<?xml version="1.0" encoding="utf-8"?>
<!-- Generator: Adobe Illustrator 15.0.0, SVG Export Plug-In . SVG Version: 6.00 Build 0)  -->
<!DOCTYPE svg PUBLIC "-//W3C//DTD SVG 1.1//EN" "http://www.w3.org/Graphics/SVG/1.1/DTD/svg11.dtd">
<svg version="1.1" xmlns="http://www.w3.org/2000/svg" xmlns:xlink="http://www.w3.org/1999/xlink" x="0px" y="0px"
	 width="595.275px" height="116.221px" viewBox="0 0 595.275 116.221" enable-background="new 0 0 595.275 116.221"
	 xml:space="preserve">
<g id="Hintergrund">
</g>
<g id="Hilfslinien" display="none">
</g>
<g id="Vordergrund">
	<g>
		<path fill="#225CAC" d="M66.567,102.445L31.449,48.022v54.423H14.138v-88.67H29.58L64.7,68.073V13.775h17.31v88.67H66.567z"/>
		<path fill="#225CAC" d="M105.794,102.445v-88.67h58.408v15.442h-41.097v20.797h34.994v15.443h-34.994v21.545h41.097v15.442
			H105.794z"/>
		<path fill="#225CAC" d="M259.844,102.445h-14.447l-16.313-53.801l-16.314,53.801h-14.446l-23.663-88.67h18.057l13.699,55.917
			l16.19-55.917h12.952l16.19,55.917l13.824-55.917h18.058L259.844,102.445z"/>
		<path fill="#225CAC" d="M294.836,74.424V59.355h38.356v15.068H294.836z"/>
		<path fill="#225CAC" d="M406.418,102.445L371.3,48.022v54.423h-17.312v-88.67h15.442l35.119,54.298V13.775h17.31v88.67H406.418z"
			/>
		<path fill="#225CAC" d="M445.644,102.445v-88.67h58.409v15.442h-41.097v20.797h34.994v15.443h-34.994v21.545h41.097v15.442
			H445.644z"/>
		<path fill="#225CAC" d="M557.974,29.218v73.228h-17.311V29.218h-23.164V13.775h63.639v15.442H557.974z"/>
	</g>
</g>
</svg>
