<?xml version="1.0" encoding="iso-8859-1"?>
<svg xmlns="http://www.w3.org/2000/svg" xmlns:xlink="http://www.w3.org/1999/xlink" width="224.87999pt" height="225pt" viewBox="0 0 224.87999 225" version="1.2">
	
	

	
	<defs>
		
		

		
		<clipPath id="clip1">
			
			
  
			
			<path d="M 0 0.0585938 L 224.761719 0.0585938 L 224.761719 224.9375 L 0 224.9375 Z M 0 0.0585938 " animation_id="0"/>
			
			

		
		</clipPath>
		
		

		
		<clipPath id="clip2">
			
			
  
			
			<path d="M 102 134 L 124 134 L 124 140.78125 L 102 140.78125 Z M 102 134 " animation_id="1"/>
			
			

		
		</clipPath>
		
		

		
		<clipPath id="clip3">
			
			
  
			
			<path d="M 134 102 L 140.71875 102 L 140.71875 124 L 134 124 Z M 134 102 " animation_id="2"/>
			
			

		
		</clipPath>
		
		

		
		<clipPath id="clip4">
			
  
			

		</clipPath>
		
		

	
	</defs>
	
	

	
	<g id="surface1">
		
		

		
		<g clip-path="url(#clip1)" clip-rule="nonzero">
			
			

			

			
			<path style=" stroke:none;fill-rule:nonzero;fill:rgb(86.669922%,83.529663%,80.778503%);fill-opacity:1;" d="M 0 0.0585938 L 224.878906 0.0585938 L 224.878906 224.941406 L 0 224.941406 Z M 0 0.0585938 " animation_id="3"/>
			
			

		
		</g>
		
		

		
		<path style=" stroke:none;fill-rule:nonzero;fill:rgb(57.249451%,46.269226%,35.289001%);fill-opacity:1;" d="M 90.265625 103.703125 L 86.972656 102.335938 L 87.0625 102.121094 C 88.464844 98.730469 90.5 95.691406 93.113281 93.09375 C 95.722656 90.492188 98.769531 88.472656 102.160156 87.085938 L 102.378906 86.996094 L 103.742188 90.292969 L 103.523438 90.378906 C 100.566406 91.589844 97.910156 93.351562 95.636719 95.613281 C 93.355469 97.878906 91.578125 100.527344 90.355469 103.484375 Z M 87.585938 102.085938 L 90.011719 103.089844 C 91.257812 100.160156 93.039062 97.535156 95.304688 95.28125 C 97.566406 93.03125 100.199219 91.265625 103.128906 90.035156 L 102.125 87.609375 C 98.875 88.96875 95.957031 90.925781 93.445312 93.425781 C 90.933594 95.925781 88.960938 98.839844 87.585938 102.085938 Z M 87.585938 102.085938 " animation_id="4"/>
		
		

		

		
		<g clip-path="url(#clip2)" clip-rule="nonzero">
			
			

			
			<path style=" stroke:none;fill-rule:nonzero;fill:rgb(57.249451%,46.269226%,35.289001%);fill-opacity:1;" d="M 112.625 140.351562 C 109.027344 140.351562 105.53125 139.671875 102.226562 138.328125 L 102.007812 138.242188 L 103.371094 134.945312 L 103.589844 135.035156 C 106.460938 136.195312 109.5 136.785156 112.625 136.785156 C 112.683594 136.785156 112.742188 136.785156 112.804688 136.785156 C 115.980469 136.761719 119.0625 136.128906 121.96875 134.90625 L 122.183594 134.816406 L 123.550781 138.109375 L 123.335938 138.199219 C 119.996094 139.601562 116.453125 140.328125 112.808594 140.351562 C 112.746094 140.351562 112.683594 140.351562 112.625 140.351562 Z M 102.621094 137.984375 C 105.804688 139.242188 109.167969 139.882812 112.625 139.882812 C 112.683594 139.878906 112.746094 139.882812 112.804688 139.882812 C 116.3125 139.859375 119.71875 139.179688 122.9375 137.859375 L 121.933594 135.429688 C 119.035156 136.617188 115.96875 137.230469 112.808594 137.253906 C 112.746094 137.253906 112.6875 137.253906 112.625 137.253906 C 109.515625 137.253906 106.492188 136.679688 103.628906 135.554688 Z M 102.621094 137.984375 " animation_id="5"/>
			
			

		
		</g>
		
		

		

		
		<g clip-path="url(#clip3)" clip-rule="nonzero">
			
			

			
			<path style=" stroke:none;fill-rule:nonzero;fill:rgb(57.249451%,46.269226%,35.289001%);fill-opacity:1;" d="M 138.085938 123.507812 L 134.792969 122.144531 L 134.882812 121.929688 C 136.085938 119.027344 136.703125 115.953125 136.714844 112.785156 C 136.714844 112.753906 136.714844 112.722656 136.714844 112.695312 C 136.714844 109.550781 136.121094 106.496094 134.945312 103.613281 L 134.855469 103.398438 L 138.152344 102.035156 L 138.242188 102.25 C 139.59375 105.566406 140.28125 109.082031 140.28125 112.695312 C 140.28125 112.726562 140.28125 112.757812 140.28125 112.789062 C 140.269531 116.425781 139.5625 119.960938 138.175781 123.292969 Z M 135.402344 121.890625 L 137.832031 122.898438 C 139.132812 119.683594 139.800781 116.28125 139.8125 112.785156 C 139.8125 112.753906 139.8125 112.722656 139.8125 112.695312 C 139.8125 109.222656 139.167969 105.84375 137.894531 102.648438 L 135.464844 103.652344 C 136.605469 106.527344 137.183594 109.570312 137.183594 112.695312 C 137.183594 112.726562 137.183594 112.757812 137.183594 112.789062 C 137.171875 115.9375 136.574219 119 135.402344 121.890625 Z M 135.402344 121.890625 " animation_id="6"/>
			
			

		
		</g>
		
		

		

		

		

		

		

		

		
		<path style=" stroke:none;fill-rule:nonzero;fill:rgb(57.249451%,46.269226%,35.289001%);fill-opacity:1;" d="M 117.894531 104.472656 C 117.894531 105.40625 117.347656 106.210938 116.554688 106.585938 C 116.378906 106.671875 116.1875 106.730469 115.988281 106.769531 C 115.847656 106.796875 115.707031 106.808594 115.558594 106.808594 C 115.101562 106.808594 114.679688 106.679688 114.320312 106.453125 C 113.578125 106.679688 113.039062 107.371094 113.039062 108.1875 L 113.039062 115.628906 C 113.210938 115.722656 113.328125 115.902344 113.328125 116.113281 C 113.328125 116.320312 113.210938 116.5 113.039062 116.59375 L 113.039062 122.960938 L 113.886719 122.960938 L 113.886719 121.699219 L 114.261719 121.699219 L 114.261719 123.335938 L 113.039062 123.335938 L 113.039062 124.027344 L 114.261719 124.027344 L 114.261719 125.664062 L 113.886719 125.664062 L 113.886719 124.402344 L 113.039062 124.402344 L 113.039062 125.664062 L 112.519531 125.664062 L 112.519531 116.59375 C 112.347656 116.5 112.230469 116.320312 112.230469 116.113281 C 112.230469 115.902344 112.347656 115.722656 112.519531 115.628906 L 112.519531 108.1875 C 112.519531 107.371094 111.980469 106.683594 111.238281 106.453125 C 110.878906 106.679688 110.453125 106.808594 110 106.808594 C 109.851562 106.808594 109.710938 106.796875 109.570312 106.769531 C 109.371094 106.734375 109.179688 106.671875 109.003906 106.585938 C 108.210938 106.210938 107.664062 105.40625 107.664062 104.472656 C 107.664062 103.183594 108.710938 102.136719 110 102.136719 C 110.519531 102.136719 111 102.304688 111.390625 102.59375 C 111.152344 102.292969 111.007812 101.910156 111.007812 101.496094 C 111.007812 100.605469 111.664062 99.867188 112.519531 99.742188 C 112.605469 99.730469 112.691406 99.722656 112.777344 99.722656 C 112.867188 99.722656 112.953125 99.730469 113.039062 99.742188 C 113.894531 99.871094 114.550781 100.605469 114.550781 101.496094 C 114.550781 101.910156 114.40625 102.292969 114.167969 102.59375 C 114.558594 102.304688 115.039062 102.136719 115.558594 102.136719 C 116.847656 102.136719 117.894531 103.179688 117.894531 104.472656 Z M 116.09375 106.207031 C 116.835938 105.976562 117.375 105.289062 117.375 104.472656 C 117.375 103.46875 116.5625 102.65625 115.558594 102.65625 C 114.941406 102.65625 114.398438 102.960938 114.070312 103.429688 C 114.367188 103.746094 114.550781 104.171875 114.550781 104.640625 C 114.550781 105.03125 114.421875 105.394531 114.210938 105.6875 C 114.277344 105.761719 114.347656 105.828125 114.425781 105.890625 C 114.734375 106.140625 115.128906 106.289062 115.558594 106.289062 C 115.746094 106.289062 115.925781 106.257812 116.09375 106.207031 Z M 113.964844 105.34375 C 114.085938 105.136719 114.15625 104.898438 114.15625 104.644531 C 114.15625 104.324219 114.050781 104.035156 113.871094 103.804688 C 113.757812 103.660156 113.617188 103.535156 113.457031 103.445312 C 113.332031 103.375 113.1875 103.320312 113.039062 103.292969 C 112.953125 103.273438 112.867188 103.265625 112.777344 103.265625 C 112.691406 103.265625 112.601562 103.273438 112.519531 103.292969 C 112.367188 103.320312 112.226562 103.371094 112.097656 103.445312 C 111.9375 103.535156 111.800781 103.660156 111.6875 103.804688 C 111.507812 104.035156 111.402344 104.328125 111.402344 104.644531 C 111.402344 104.898438 111.472656 105.136719 111.59375 105.34375 C 111.6875 105.5 111.8125 105.636719 111.957031 105.746094 C 112.121094 105.871094 112.3125 105.957031 112.519531 105.996094 C 112.601562 106.011719 112.691406 106.019531 112.777344 106.019531 C 112.867188 106.019531 112.953125 106.011719 113.039062 105.996094 C 113.246094 105.957031 113.4375 105.871094 113.601562 105.75 C 113.746094 105.636719 113.871094 105.5 113.964844 105.34375 Z M 113.859375 106.074219 C 113.851562 106.070312 113.847656 106.0625 113.84375 106.058594 C 113.785156 106.101562 113.726562 106.140625 113.664062 106.179688 C 113.472656 106.289062 113.261719 106.363281 113.039062 106.394531 C 112.953125 106.40625 112.867188 106.414062 112.777344 106.414062 C 112.691406 106.414062 112.605469 106.40625 112.519531 106.394531 C 112.285156 106.359375 112.070312 106.28125 111.875 106.167969 C 111.820312 106.132812 111.765625 106.097656 111.714844 106.058594 C 111.710938 106.0625 111.703125 106.070312 111.699219 106.074219 C 111.761719 106.101562 111.816406 106.132812 111.875 106.167969 C 112.121094 106.3125 112.339844 106.496094 112.519531 106.71875 C 112.617188 106.839844 112.707031 106.972656 112.777344 107.117188 C 112.851562 106.972656 112.9375 106.839844 113.039062 106.71875 C 113.210938 106.503906 113.421875 106.320312 113.664062 106.179688 C 113.726562 106.140625 113.792969 106.105469 113.859375 106.074219 Z M 114.15625 101.496094 C 114.15625 100.824219 113.675781 100.265625 113.039062 100.144531 C 112.953125 100.125 112.867188 100.117188 112.777344 100.117188 C 112.691406 100.117188 112.601562 100.128906 112.519531 100.144531 C 111.882812 100.265625 111.402344 100.824219 111.402344 101.496094 C 111.402344 102.164062 111.882812 102.726562 112.519531 102.847656 C 112.601562 102.863281 112.691406 102.871094 112.777344 102.871094 C 112.867188 102.871094 112.953125 102.863281 113.039062 102.847656 C 113.675781 102.726562 114.15625 102.164062 114.15625 101.496094 Z M 111.132812 105.890625 C 111.210938 105.828125 111.28125 105.761719 111.347656 105.6875 C 111.132812 105.394531 111.007812 105.035156 111.007812 104.644531 C 111.007812 104.171875 111.191406 103.746094 111.488281 103.429688 C 111.160156 102.960938 110.613281 102.65625 110 102.65625 C 108.996094 102.65625 108.183594 103.46875 108.183594 104.472656 C 108.183594 105.289062 108.722656 105.976562 109.464844 106.207031 C 109.632812 106.257812 109.8125 106.289062 110 106.289062 C 110.429688 106.289062 110.820312 106.140625 111.132812 105.890625 Z M 111.132812 105.890625 " animation_id="7"/>
		
		

		

		

		

		
		<g clip-path="url(#clip4)" clip-rule="nonzero">
			

			

		</g>
		
		

		

		

		

		

	
	</g>
	
	


</svg>
