<?xml version="1.0" encoding="iso-8859-1"?>
<!-- Converted by misc2svg (http://www.network-science.de/tools/misc2svg/) -->
<svg height="61.049999" id="svg2" inkscape:version="0.48.2 r9819" sodipodi:docname="misc2svg_20111207_175719_cff595832b.svg" version="1.1" viewBox="0 0 120.552 48.84" width="150.69" xmlns="http://www.w3.org/2000/svg" xmlns:cc="http://creativecommons.org/ns#" xmlns:dc="http://purl.org/dc/elements/1.1/" xmlns:inkscape="http://www.inkscape.org/namespaces/inkscape" xmlns:rdf="http://www.w3.org/1999/02/22-rdf-syntax-ns#" xmlns:sodipodi="http://sodipodi.sourceforge.net/DTD/sodipodi-0.dtd" xmlns:svg="http://www.w3.org/2000/svg">
	
  
	<metadata id="metadata4747">
		
    
		<rdf:RDF>
			
      
			<cc:Work rdf:about="">
				
        
				<dc:format>image/svg+xml</dc:format>
				
        
				<dc:type rdf:resource="http://purl.org/dc/dcmitype/StillImage"/>
				
        
				<dc:title/>
				
      
			</cc:Work>
			
    
		</rdf:RDF>
		
  
	</metadata>
	
  
	<defs id="defs4745"/>
	
  
	<sodipodi:namedview bordercolor="#666666" borderopacity="1" fit-margin-bottom="0" fit-margin-left="0" fit-margin-right="0" fit-margin-top="0" gridtolerance="10" guidetolerance="10" id="namedview4743" inkscape:current-layer="misc2svg" inkscape:cx="97.511266" inkscape:cy="43.741012" inkscape:pageopacity="0" inkscape:pageshadow="2" inkscape:window-height="962" inkscape:window-maximized="1" inkscape:window-width="1280" inkscape:window-x="-8" inkscape:window-y="-8" inkscape:zoom="5.7375119" objecttolerance="10" pagecolor="#ffffff" showgrid="false"/>
	
  
	<g id="misc2svg" transform="translate(-535.28751,-589.18992)">
		
    
		<g id="g7781" transform="translate(3.9999983,-4.0000036)">
			
      
			<path animation_id="0" d="m 632.26017,617.49416 c 0.46094,-3.57813 -2.08984,-6.31641 -5.94532,-6.09766 l 0.71876,-3.85156 c 5.52734,0.15625 9.64062,4.47656 9.07422,10.125 l -3.90235,0.14844 0.0547,-0.32422" id="path5" inkscape:connector-curvature="0" style="fill:#f05417;fill-opacity:1;fill-rule:nonzero;stroke:none"/>
			
      
			<path animation_id="1" d="m 628.9672,597.19728 c 11.61718,-0.36718 20.21484,8.32813 18.70313,20.03125 l -1.3008,0.0469 c 1.4922,-11.09374 -6.5664,-19.28124 -17.64452,-18.78906 l 0.24219,-1.28905" id="path7" inkscape:connector-curvature="0" style="fill:#f05417;fill-opacity:1;fill-rule:nonzero;stroke:none"/>
			
      
			<path animation_id="2" d="m 627.99453,602.38478 c 8.52344,-0.0508 14.81642,6.44922 13.78908,15.06641 l -2.59376,0.0977 0.0273,-0.21875 c 0.95706,-7.21875 -4.27732,-12.67578 -11.6992,-12.375 l 0.47656,-2.57031" id="path9" inkscape:connector-curvature="0" style="fill:#f05417;fill-opacity:1;fill-rule:nonzero;stroke:none"/>
			
      
			<path animation_id="3" d="m 539.90079,622.17775 c 0.0391,-0.26172 0.13281,-0.45703 0.27735,-0.58984 0.14843,-0.13281 0.34375,-0.20313 0.58593,-0.21094 0.2461,-0.008 0.42188,0.043 0.53516,0.16406 0.10937,0.125 0.14453,0.32032 0.10937,0.58204 l -0.91796,6.47265 c -0.0352,0.25781 -0.125,0.45313 -0.27344,0.57813 -0.14453,0.1289 -0.33594,0.19531 -0.58203,0.19531 -0.24219,0.008 -0.41797,-0.0586 -0.52344,-0.17969 -0.10938,-0.125 -0.14844,-0.3164 -0.11328,-0.57812 l 0.90234,-6.4336 z m -4.61328,10.20703 3.03125,0 0.19922,-1.44531 0.0469,0 c 0.20312,0.70313 0.46875,1.15625 0.78515,1.3711 0.31641,0.21484 0.75,0.3125 1.30079,0.29296 1.0039,0.0195 1.75,-0.25781 2.23828,-0.84375 0.48828,-0.58203 0.82422,-1.58984 1.01562,-3.01953 l 1.13672,-7.94531 c 0.13672,-1.09375 0.008,-1.83984 -0.39844,-2.24609 -0.40625,-0.40625 -0.97265,-0.57813 -1.69922,-0.52735 -0.58593,0.0352 -1.09375,0.1875 -1.51562,0.45703 -0.41797,0.27344 -0.79297,0.64844 -1.12109,1.13282 l -0.0469,0 1.01171,-7.1836 -3.24218,0.22266 -2.74219,19.73437" id="path11" inkscape:connector-curvature="0" style="fill:#3a54a6;fill-opacity:1;fill-rule:evenodd;stroke:none"/>
			
      
			<path animation_id="4" d="m 544.38907,632.38478 3.39454,0 2.10156,-14.48046 -3.44141,0.17187 -2.05469,14.30859 z m 2.44532,-17.02734 3.44922,-0.19922 0.49219,-3.39062 -3.46094,0.24218 -0.48047,3.34766" id="path13" inkscape:connector-curvature="0" style="fill:#3a54a6;fill-opacity:1;fill-rule:evenodd;stroke:none"/>
			
      
			<path animation_id="5" d="m 548.80314,632.38478 3.49609,0 3.08594,-20.93359 -3.57031,0.24609 -3.01172,20.6875" id="path15" inkscape:connector-curvature="0" style="fill:#3a54a6;fill-opacity:1;fill-rule:nonzero;stroke:none"/>
			
      
			<path animation_id="6" d="m 553.35392,632.38478 3.60156,0 3.1836,-21.26562 -3.67969,0.25781 -3.10547,21.00781" id="path17" inkscape:connector-curvature="0" style="fill:#3a54a6;fill-opacity:1;fill-rule:nonzero;stroke:none"/>
			
      
			<path animation_id="7" d="m 558.04533,632.38478 3.72265,0 2.30469,-15.17187 -3.77734,0.18359 -2.25,14.98828 z m 2.67578,-17.83593 3.78906,-0.21875 0.53906,-3.55469 -3.80078,0.26562 -0.52734,3.50782" id="path19" inkscape:connector-curvature="0" style="fill:#3a54a6;fill-opacity:1;fill-rule:evenodd;stroke:none"/>
			
      
			<path animation_id="8" d="m 568.47892,621.04103 c 0.0469,-0.33203 0.15625,-0.57031 0.33203,-0.71875 0.17188,-0.14843 0.44141,-0.22656 0.79688,-0.23437 0.36328,-0.0156 0.60547,0.043 0.73828,0.17578 0.13281,0.13672 0.17187,0.37109 0.11719,0.70313 l -1.15625,7.42578 c -0.0469,0.32812 -0.15625,0.5664 -0.33594,0.71093 -0.17188,0.14063 -0.4375,0.20704 -0.79297,0.20704 -0.35156,0.004 -0.59766,-0.0586 -0.73047,-0.19532 -0.12891,-0.13672 -0.16406,-0.37109 -0.10937,-0.69922 l 1.14062,-7.375 z m -5.04687,7.75391 c -0.17969,1.03906 -0.10157,1.91016 0.23437,2.60547 0.33594,0.71094 1.09766,1.07422 2.28125,1.10156 0.57422,0 1.10547,-0.11719 1.58984,-0.35156 0.48438,-0.24219 0.91797,-0.59766 1.30079,-1.06641 l 0.0508,0 -0.42969,2.75 c -0.0586,0.39844 -0.17969,0.67188 -0.35938,0.82032 -0.1875,0.14062 -0.45703,0.20703 -0.80859,0.19531 -0.35547,0 -0.59766,-0.0547 -0.74219,-0.16797 -0.14062,-0.10938 -0.1875,-0.28906 -0.14843,-0.52734 l 0.0469,-0.33204 -3.36719,-0.0156 -0.125,0.80469 c -0.17968,1.00391 -0.0156,1.8086 0.48047,2.42188 0.4961,0.61328 1.4961,0.9414 2.9961,0.98437 1.77343,0.0742 3.15625,-0.1875 4.13671,-0.77734 0.98829,-0.58985 1.61719,-1.7461 1.88672,-3.47657 l 2.6875,-17.09374 -3.75,0.18359 -0.22265,1.44141 -0.0547,0.004 c -0.31642,-0.62889 -0.71095,-1.05467 -1.1836,-1.26561 -0.47657,-0.22266 -1.08985,-0.30469 -1.85157,-0.25781 -0.91797,0.0508 -1.67187,0.42578 -2.25781,1.1289 -0.58984,0.70313 -0.98437,1.71485 -1.19141,3.03516 l -1.19921,7.85547" id="path21" inkscape:connector-curvature="0" style="fill:#3a54a6;fill-opacity:1;fill-rule:evenodd;stroke:none"/>
			
      
			<path animation_id="9" d="m 574.36955,627.65041 c -0.21875,1.39062 -0.17969,2.44141 0.10937,3.16406 0.30078,0.71875 0.82812,1.20703 1.59375,1.46094 0.76562,0.25391 1.75,0.37109 2.95312,0.35547 2.10157,0.0352 3.62891,-0.26172 4.57032,-0.89453 0.94531,-0.62891 1.53515,-1.78125 1.77343,-3.44922 l 0.15235,-0.92578 -4.3711,0.0664 -0.12109,0.75 c -0.0742,0.46484 -0.22266,0.77343 -0.44141,0.92968 -0.21875,0.15235 -0.53515,0.23047 -0.94531,0.21875 -0.52734,0.0117 -0.85937,-0.0625 -0.99609,-0.21875 -0.13672,-0.16015 -0.16016,-0.44921 -0.082,-0.85937 l 0.43359,-2.69141 6.83984,-0.14843 0.82422,-5.05469 c 0.16016,-0.86719 0.14453,-1.63281 -0.0508,-2.30078 -0.19531,-0.66407 -0.67969,-1.17188 -1.45312,-1.52735 -0.76953,-0.35156 -1.9336,-0.49218 -3.48047,-0.42187 -1.21485,0.043 -2.25,0.21484 -3.11328,0.51172 -0.85938,0.30078 -1.55469,0.82031 -2.08594,1.57422 -0.52734,0.74609 -0.90625,1.82031 -1.125,3.21875 l -0.98437,6.24218 z m 5.47265,-7.39844 c 0.043,-0.32422 0.15625,-0.57031 0.33594,-0.72656 0.1875,-0.16016 0.51953,-0.25 0.99219,-0.26172 0.48437,-0.0195 0.79296,0.0391 0.92578,0.18359 0.14062,0.14844 0.17187,0.38672 0.10937,0.71875 l -0.38672,2.37891 -2.35156,0.0664 0.375,-2.35937" id="path23" inkscape:connector-curvature="0" style="fill:#3a54a6;fill-opacity:1;fill-rule:evenodd;stroke:none"/>
			
      
			<path animation_id="10" d="m 585.7172,632.38478 4.43359,0 2.01172,-12.10156 c 0.0586,-0.33594 0.1836,-0.57031 0.37891,-0.70703 0.19141,-0.13672 0.42578,-0.20703 0.69531,-0.21094 0.25391,-0.0156 0.46094,0.0195 0.62891,0.10547 0.16015,0.0859 0.22265,0.25781 0.1914,0.51563 l -0.41406,2.48828 3.88281,-0.11328 0.77344,-4.57422 c 0.15235,-1.02344 0.008,-1.69141 -0.41406,-2.01563 -0.42969,-0.32422 -1.06641,-0.44531 -1.91016,-0.3789 -0.875,0.0273 -1.5664,0.19531 -2.08203,0.49218 -0.51172,0.29688 -0.97656,0.82813 -1.39062,1.59375 l -0.0586,0 0.27344,-1.66406 -4.32031,0.21094 -2.67969,16.35937" id="path25" inkscape:connector-curvature="0" style="fill:#3a54a6;fill-opacity:1;fill-rule:nonzero;stroke:none"/>
			
      
			<path animation_id="11" d="m 593.29923,632.38478 4.64063,0 0.86718,-5.08984 -4.66406,0.0664 -0.84375,5.02344" id="path27" inkscape:connector-curvature="0" style="fill:#3a54a6;fill-opacity:1;fill-rule:nonzero;stroke:none"/>
			
      
			<path animation_id="12" d="m 600.17814,628.03713 c -0.3125,1.70312 -0.23828,2.90234 0.21484,3.59765 0.45313,0.69922 1.40625,1.03907 2.85938,1.01563 0.84375,0.0312 1.55468,-0.0937 2.13672,-0.35547 0.58593,-0.26172 1.18359,-0.83594 1.80078,-1.70312 l 0.0625,0 -0.3125,1.79296 4.78906,0 4.44141,-25.15234 -5.14063,0.35547 -1.55859,8.94141 -0.0703,0.004 c -0.28906,-0.57032 -0.70703,-0.9961 -1.23828,-1.28125 -0.53125,-0.28125 -1.23437,-0.39844 -2.11328,-0.35938 -1.0664,0.0312 -1.97656,0.32031 -2.74219,0.86719 -0.75781,0.54297 -1.25781,1.47265 -1.5,2.77344 l -1.62891,9.50388 z m 6.44531,-8.23828 c 0.0586,-0.32032 0.19531,-0.56641 0.42188,-0.73047 0.21875,-0.16797 0.51562,-0.25391 0.88671,-0.26953 0.3711,-0.0156 0.64454,0.0547 0.81641,0.20312 0.16797,0.15235 0.22266,0.39063 0.16797,0.71485 l -1.39453,7.98828 c -0.0508,0.32031 -0.19531,0.5664 -0.41797,0.72265 -0.21875,0.16016 -0.51563,0.23828 -0.88281,0.2461 -0.36719,0.004 -0.63672,-0.0742 -0.80469,-0.22657 -0.16406,-0.15234 -0.21875,-0.39062 -0.16406,-0.70703 l 1.37109,-7.9414" id="path29" inkscape:connector-curvature="0" style="fill:#f05417;fill-opacity:1;fill-rule:evenodd;stroke:none"/>
			
      
			<path animation_id="13" d="m 613.86173,627.07228 c -0.27344,1.5625 -0.22656,2.74219 0.14453,3.54688 0.3711,0.8125 1.04297,1.35937 2.00391,1.64062 0.96875,0.28907 2.21484,0.42188 3.73436,0.40625 2.66408,0.0352 4.60548,-0.29687 5.8008,-1.00781 1.19531,-0.71484 1.95312,-2.00781 2.25,-3.89453 l 0.1914,-1.04297 -5.54688,0.082 -0.15624,0.84766 c -0.0937,0.51953 -0.27736,0.86719 -0.55469,1.03906 -0.28125,0.17969 -0.67969,0.26172 -1.20313,0.25 -0.66406,0.0156 -1.08594,-0.0625 -1.25782,-0.24219 -0.17186,-0.17968 -0.20702,-0.5039 -0.10546,-0.96875 l 0.54687,-3.02734 8.68359,-0.18359 1.0547,-5.71094 c 0.19922,-0.97656 0.17969,-1.84375 -0.0703,-2.58985 -0.25,-0.7539 -0.86719,-1.32421 -1.85157,-1.71875 -0.97656,-0.39062 -2.44921,-0.54296 -4.41406,-0.44921 -1.53906,0.0547 -2.85937,0.2539 -3.94922,0.60156 -1.08984,0.33594 -1.96093,0.92969 -2.63672,1.77344 -0.66796,0.84765 -1.14062,2.05859 -1.42187,3.6289 l -1.2422,7.01953 z m 6.92188,-8.34375 c 0.0508,-0.36328 0.19531,-0.63671 0.42577,-0.82031 0.23438,-0.17969 0.65235,-0.27734 1.26173,-0.30078 0.60156,-0.0234 0.99218,0.043 1.17186,0.20703 0.17188,0.16406 0.21876,0.4336 0.13282,0.8086 l -0.48438,2.67578 -2.98437,0.0859 0.47657,-2.65625" id="path31" inkscape:connector-curvature="0" style="fill:#f05417;fill-opacity:1;fill-rule:evenodd;stroke:none"/>
			
    
		</g>
		
  
	</g>
	

</svg>
