<?xml version="1.0" encoding="iso-8859-1"?>
<!-- Created with Inkscape (http://www.inkscape.org/) -->
<svg height="216.14172" id="svg16559" version="1.1" width="892.91339" xmlns="http://www.w3.org/2000/svg" xmlns:cc="http://creativecommons.org/ns#" xmlns:dc="http://purl.org/dc/elements/1.1/" xmlns:rdf="http://www.w3.org/1999/02/22-rdf-syntax-ns#" xmlns:svg="http://www.w3.org/2000/svg">
	
  
	<defs id="defs16561">
		
    
		<clipPath id="clipPath16081">
			
      
			<path animation_id="0" d="m 202.677,129.625 147.401,0 0,34.784 -147.401,0 0,-34.784 z" id="path16083"/>
			
    
		</clipPath>
		
    
		<clipPath id="clipPath16045">
			
      
			<path animation_id="1" d="m 202.677,127.559 147.401,0 0,36.851 -147.401,0 0,-36.851 z" id="path16047"/>
			
    
		</clipPath>
		
  
	</defs>
	
  
	<metadata id="metadata16564">
		
    
		<rdf:RDF>
			
      
			<cc:Work rdf:about="">
				
        
				<dc:format>image/svg+xml</dc:format>
				
        
				<dc:type rdf:resource="http://purl.org/dc/dcmitype/StillImage"/>
				
        
				<dc:title/>
				
      
			</cc:Work>
			
    
		</rdf:RDF>
		
  
	</metadata>
	
  
	<g id="layer1" transform="translate(-93.588722,-329.38969)">
		
    
		<g id="g16624" transform="matrix(4.8077143,0,0,4.8077143,-352.81582,-2080.7757)">
			
      
			<g id="g16041" transform="matrix(1.25,0,0,-1.25,-159.75765,707.56269)">
				
        
				<g clip-path="url(#clipPath16045)" id="g16043">
					
          
					<g id="g16049" transform="translate(333.7716,154.9309)">
						
            
						<path animation_id="2" d="m 0,0 c -2.193,-1.594 -2.001,-4.826 -2.001,-4.826 l -10e-4,-13.759 -5.363,-2.998 0,16.575 c 0,0 -0.07,2.676 1.548,4.228 2.979,2.857 17.653,10.259 17.653,10.259 l 0,-2.591 C 11.836,6.888 3.547,2.578 0,0" id="path16051" style="fill:#214395;fill-opacity:1;fill-rule:nonzero;stroke:none"/>
						
          
					</g>
					
          
					<g id="g16053" transform="translate(215.7651,155.154)">
						
            
						<path animation_id="3" d="m 0,0 c -1.323,1.334 -3.998,2.196 -5.925,2.196 -3.654,0 -6.328,-2.641 -6.328,-5.909 0,-3.06 2.042,-4.341 4.832,-5.387 1.697,-0.602 3.768,-1.177 3.768,-3.217 0,-1.516 -1.065,-2.85 -2.79,-2.85 -1.813,0 -3.337,1.36 -3.912,2.877 l -2.733,-2.432 c 1.496,-2.275 3.682,-3.844 6.674,-3.844 4.429,0 7.133,2.798 7.133,6.746 0,6.616 -8.601,5.23 -8.601,8.551 0,1.282 1.295,2.223 2.647,2.223 1.409,0 2.445,-0.628 3.25,-1.621 L 0,0" id="path16055" style="fill:#918f90;fill-opacity:1;fill-rule:nonzero;stroke:none"/>
						
          
					</g>
					
          
					<g id="g16057" transform="translate(232.8997,156.1998)">
						
            
						<path animation_id="4" d="m 0,0 c -1.467,0.732 -3.135,1.151 -4.832,1.151 -6.357,0 -10.701,-4.942 -10.701,-10.539 0,-5.439 4.516,-10.224 10.614,-10.224 1.755,0 3.337,0.497 4.919,1.177 l 0,4.576 c -1.179,-1.229 -2.992,-2.092 -4.803,-2.092 -3.942,0 -6.358,3.321 -6.358,6.642 0,3.399 2.331,6.799 6.386,6.799 1.812,0 3.596,-0.785 4.775,-2.092 L 0,0" id="path16059" style="fill:#918f90;fill-opacity:1;fill-rule:nonzero;stroke:none"/>
						
          
					</g>
					
          
					<g id="g16061" transform="translate(239.6176,149.0611)">
						
            
						<path animation_id="5" d="m 0,0 0,7.766 -4.228,0 0,-19.716 4.228,0 0,8.812 7.824,0 0,-8.812 4.228,0 0,19.716 -4.228,0 L 7.824,0 0,0 z" id="path16063" style="fill:#918f90;fill-opacity:1;fill-rule:nonzero;stroke:none"/>
						
          
					</g>
					
          
					<g id="g16065" transform="translate(258.7113,156.8275)">
						
            
						<path animation_id="6" d="m 0,0 -4.228,0 0,-19.717 10.211,0 0,3.348 -5.983,0 L 0,0 z" id="path16067" style="fill:#918f90;fill-opacity:1;fill-rule:nonzero;stroke:none"/>
						
          
					</g>
					
          
					<g id="g16069" transform="translate(277.5421,153.4803)">
						
            
						<path animation_id="7" d="m 0,0 0,3.347 -11.218,0 0,-19.717 11.218,0 0,3.348 -6.99,0 0,5.334 6.731,0 0,3.347 -6.731,0 L -6.99,0 0,0 z" id="path16071" style="fill:#918f90;fill-opacity:1;fill-rule:nonzero;stroke:none"/>
						
          
					</g>
					
          
					<g id="g16073" transform="translate(280.0618,137.1107)">
						
            
						<path animation_id="8" d="m 0,0 4.228,0 0,13.388 0.058,0 L 15.405,0 l 3.349,0 0,19.717 -4.228,0 0,-13.258 -0.057,0 L 3.459,19.717 0,19.717 0,0 z" id="path16075" style="fill:#918f90;fill-opacity:1;fill-rule:nonzero;stroke:none"/>
						
          
					</g>
					
        
				</g>
				
      
			</g>
			
      
			<g id="g16077" transform="matrix(1.25,0,0,-1.25,-159.75765,707.56269)">
				
        
				<g clip-path="url(#clipPath16081)" id="g16079">
					
          
					<g id="g16085" transform="translate(305.8846,148.5119)">
						
            
						<path animation_id="9" d="m 0,0 -0.057,0 0,8.316 -4.229,0 0,-19.717 4.229,0 0,8.864 0.057,0 6.932,-8.864 5.436,0 -8.686,10.617 8.227,9.1 -5.207,0 L 0,0 z" id="path16087" style="fill:#918f90;fill-opacity:1;fill-rule:nonzero;stroke:none"/>
						
          
					</g>
					
          
					<g id="g16089" transform="translate(342.7137,139.1042)">
						
            
						<path animation_id="10" d="M 0,0 C 2.193,1.594 2,4.826 2,4.826 L 2.002,18.585 7.365,21.583 7.364,5.009 c 0,0 0.071,-2.677 -1.547,-4.229 C 2.838,-2.076 -11.836,-9.479 -11.836,-9.479 l 0,2.591 c 0,0 8.289,4.31 11.836,6.888" id="path16091" style="fill:#214395;fill-opacity:1;fill-rule:nonzero;stroke:none"/>
						
          
					</g>
					
        
				</g>
				
      
			</g>
			
    
		</g>
		
  
	</g>
	

</svg>
