<?xml version="1.0" encoding="iso-8859-1"?>
<!-- Created with Inkscape (http://www.inkscape.org/) -->
<svg height="515.88617" id="svg2" version="1.0" width="1052.55" xml:space="preserve" xmlns="http://www.w3.org/2000/svg" xmlns:svg="http://www.w3.org/2000/svg">
	<defs id="defs5"/>
	<path animation_id="0" d="M 5e-06,8.5265128e-14 L 5e-06,515.88615 L 1052.55,515.88615 L 1052.55,8.5265128e-14 L 5e-06,8.5265128e-14 z" id="weiss" style="fill:#ffffff;fill-opacity:1;fill-rule:nonzero;stroke:none"/>
	<path animation_id="1" d="M 1007.4165,362.23958 L 1007.4165,288.52958 L 922.077,414.51908 C 920.47051,416.46158 918.03751,417.43208 914.769,417.43208 C 914.769,417.43208 859.73251,417.55057 856.34551,417.43208 C 852.705,417.36908 850.23751,415.90657 849.04801,414.51908 L 705.375,201.18458 C 704.622,200.29508 703.914,199.40558 703.78651,198.53408 L 680.865,198.53408 L 680.865,414.73658 C 680.865,418.42208 678.2415,419.99257 672.14251,419.99257 L 597.8865,419.99257 C 596.97901,419.99257 596.1885,419.93707 595.45351,419.83808 L 595.45351,456.86558 L 926.0445,456.86558 C 961.5285,455.89508 1006.473,442.09658 1007.553,379.82407 C 1007.652,374.35057 1007.3805,365.14508 1007.4165,362.23958 M 580.41151,327.22808 L 580.41151,272.19908 C 580.41151,251.23808 554.20501,234.99008 518.40301,234.99008 C 481.71001,234.99008 455.50351,251.23808 455.50351,272.19908 L 455.50351,327.22808 C 455.50351,348.71408 481.71001,364.96358 518.40301,364.96358 C 554.20501,364.96358 580.41151,348.71408 580.41151,327.22808 M 574.30201,190.43558 C 576.28201,190.43558 577.9515,189.74708 579.05101,188.50208 L 579.05101,100.90358 L 124.69455,100.93958 C 87.830255,100.93958 51.982655,116.00857 44.221355,158.25608 C 42.723605,166.43558 42.332855,178.44458 42.332855,188.99258 L 42.332855,211.76858 C 70.746155,190.74458 116.20726,178.40857 172.9875,178.40857 C 213.174,178.40857 245.49151,183.65558 272.5695,195.70058 C 306.63,210.90608 327.5985,233.97308 327.5985,240.25508 C 327.5985,241.82558 325.8465,243.40358 322.36951,244.44008 L 246.38101,266.98808 C 244.62,267.48758 242.86801,267.48758 241.9875,267.48758 C 236.7495,267.48758 235.00651,264.36458 229.7595,258.58208 C 214.91851,241.82558 198.31501,233.44658 172.9875,233.44658 C 136.30486,233.44658 110.09761,250.22108 110.09761,271.17308 L 110.09761,336.16958 C 110.09761,357.12908 136.30486,373.89608 172.9875,373.89608 C 198.31501,373.89608 214.04701,365.52607 228.87901,348.74108 C 234.13501,342.45158 237.63,338.77508 241.9875,338.77508 C 243.73951,338.77508 244.62,338.77508 246.38101,339.31958 L 322.36951,361.84058 C 325.8465,362.90258 327.5985,364.46407 327.5985,366.03458 C 327.5985,371.79908 314.49151,385.95157 284.80651,404.81408 C 282.219,406.42957 279.46051,407.93708 276.61951,409.38907 L 435.024,409.38907 C 386.205,394.49258 355.05,364.91858 355.05,327.22808 L 355.05,272.19008 C 355.05,219.25808 420.5625,179.96108 504.43201,179.96108 C 541.986,179.96108 564.69,190.43558 574.30201,190.43558" id="schwarz" style="fill:#000000;fill-opacity:1;fill-rule:nonzero;stroke:none"/>
	<path animation_id="2" d="M 799.21875,197.84375 L 887.15625,337.21875 L 967.0625,197.84375 L 799.21875,197.84375 z" id="gruen" style="fill:#92d400;fill-opacity:1;fill-rule:nonzero;stroke:none"/>
</svg>
