<?xml version="1.0" encoding="iso-8859-1"?>
<!-- Created with Inkscape (http://www.inkscape.org/) -->
<svg height="220" id="svg2716" inkscape:output_extension="org.inkscape.output.svg.inkscape" inkscape:version="0.46" sodipodi:docname="Logo_Citipost.svg" sodipodi:version="0.32" version="1.0" width="530" xmlns="http://www.w3.org/2000/svg" xmlns:cc="http://creativecommons.org/ns#" xmlns:dc="http://purl.org/dc/elements/1.1/" xmlns:inkscape="http://www.inkscape.org/namespaces/inkscape" xmlns:rdf="http://www.w3.org/1999/02/22-rdf-syntax-ns#" xmlns:sodipodi="http://sodipodi.sourceforge.net/DTD/sodipodi-0.dtd" xmlns:svg="http://www.w3.org/2000/svg">
	
  
	<defs id="defs2718">
		
    
		<clipPath clipPathUnits="userSpaceOnUse" id="clipPath2452">
			
      
			<path animation_id="0" d="M 0,680.33 L 680.32,680.33 L 680.32,0.01 L 0,0.01 L 0,680.33 z" id="path2454"/>
			
    
		</clipPath>
		
    
		<clipPath clipPathUnits="userSpaceOnUse" id="clipPath2446">
			
      
			<path animation_id="1" d="M 497.48,646.301 L 182.835,646.301 L 182.835,34.018 L 497.48,34.018 L 497.48,646.301 z" id="path2448"/>
			
    
		</clipPath>
		
    
		<clipPath clipPathUnits="userSpaceOnUse" id="clipPath2440">
			
      
			<path animation_id="2" d="M 488.977,601.797 L 290.552,601.797 L 290.552,517.797 L 488.977,517.797 L 488.977,601.797 z" id="path2442"/>
			
    
		</clipPath>
		
    
		<clipPath clipPathUnits="userSpaceOnUse" id="clipPath2434">
			
      
			<path animation_id="3" d="M 295.258,595.975 L 475.258,595.975 L 475.258,520.975 L 295.258,520.975 L 295.258,595.975" id="path2436"/>
			
    
		</clipPath>
		
    
		<inkscape:perspective id="perspective2724" inkscape:persp3d-origin="372.04724 : 350.78739 : 1" inkscape:vp_x="0 : 526.18109 : 1" inkscape:vp_y="0 : 1000 : 0" inkscape:vp_z="744.09448 : 526.18109 : 1" sodipodi:type="inkscape:persp3d"/>
		
  
	</defs>
	
  
	<sodipodi:namedview bordercolor="#666666" borderopacity="1.0" id="base" inkscape:current-layer="layer1" inkscape:cx="350" inkscape:cy="520" inkscape:document-units="px" inkscape:pageopacity="0.0" inkscape:pageshadow="2" inkscape:zoom="0.35" pagecolor="#ffffff" showgrid="false"/>
	
  
	<metadata id="metadata2721">
		
    
		<rdf:RDF>
			
      
			<cc:Work rdf:about="">
				
        
				<dc:format>image/svg+xml</dc:format>
				
        
				<dc:type rdf:resource="http://purl.org/dc/dcmitype/StillImage"/>
				
      
			</cc:Work>
			
    
		</rdf:RDF>
		
  
	</metadata>
	
  
	<g id="layer1" inkscape:groupmode="layer" inkscape:label="Ebene 1" transform="translate(-116.98386,-203.60812)">
		
    
		<g id="g2430" transform="matrix(2.914292,0,0,-2.914292,-737.43063,1942.559)">
			
      
			<g clip-path="url(#clipPath2434)" id="g2432">
				
        
				<g clip-path="url(#clipPath2440)" id="g2438">
					
          
					<g clip-path="url(#clipPath2446)" id="g2444">
						
            
						<g clip-path="url(#clipPath2452)" id="g2450">
							
              
							<path animation_id="4" d="M 313.546,543.513 L 311.842,538.62 L 311.612,538.344 C 311.272,538.195 310.914,538.046 310.539,537.896 C 310.059,537.714 309.396,537.545 308.548,537.388 C 307.7,537.231 306.768,537.148 305.752,537.138 C 304.357,537.109 302.932,537.322 301.48,537.776 C 300.027,538.229 298.755,539.097 297.663,540.377 C 296.914,541.354 296.415,542.468 296.168,543.719 C 295.921,544.972 295.863,546.293 295.994,547.682 C 296.157,549.545 296.609,551.354 297.349,553.108 C 298.088,554.862 299.1,556.445 300.385,557.856 C 301.67,559.267 303.212,560.389 305.013,561.221 C 306.813,562.054 308.856,562.479 311.141,562.499 C 312.18,562.499 313.228,562.396 314.284,562.189 C 315.22,562.003 315.959,561.79 316.502,561.552 C 317.046,561.313 317.572,561.032 318.082,560.708 L 318.161,560.432 L 316.463,555.987 L 316.181,555.918 C 315.896,556.199 315.609,556.463 315.321,556.71 C 314.873,557.026 314.312,557.282 313.639,557.477 C 312.966,557.672 312.236,557.773 311.451,557.779 C 309.996,557.758 308.712,557.432 307.601,556.802 C 306.49,556.171 305.55,555.357 304.782,554.359 C 304.014,553.36 303.417,552.301 302.991,551.179 C 302.565,550.057 302.308,548.995 302.223,547.993 C 302.068,546.075 302.461,544.561 303.402,543.453 C 304.343,542.344 305.766,541.778 307.672,541.756 C 308.455,541.767 309.245,541.882 310.046,542.1 C 310.712,542.285 311.282,542.501 311.756,542.746 C 312.23,542.992 312.738,543.293 313.282,543.651 L 313.546,543.513" id="path2456" style="fill:#0066b3;fill-opacity:1;fill-rule:nonzero;stroke:none"/>
							
              
							<path animation_id="5" d="M 321.933,543.41 L 320.31,537.862 L 320,537.584 L 313.953,537.584 L 313.826,537.793 L 315.339,542.479 L 317.779,549.888 C 318.322,551.602 318.773,553.043 319.132,554.21 C 319.492,555.377 319.838,556.527 320.171,557.66 C 320.505,558.792 320.904,560.164 321.369,561.775 L 321.666,562.083 L 327.735,562.086 L 327.856,561.879 C 327.355,560.422 326.928,559.174 326.575,558.134 C 326.223,557.094 325.896,556.118 325.596,555.203 C 325.296,554.288 324.974,553.29 324.63,552.207 C 324.287,551.125 323.873,549.812 323.392,548.268 L 321.933,543.41" id="path2458" style="fill:#0066b3;fill-opacity:1;fill-rule:nonzero;stroke:none"/>
							
              
							<path animation_id="6" d="M 336.459,544.822 L 334.372,537.896 L 334.097,537.584 L 328.212,537.586 L 328.057,537.793 L 329.732,542.755 L 332.036,549.785 L 334.552,557.675 L 332.378,557.641 L 328.369,557.503 L 328.221,557.779 L 329.711,561.81 L 330.001,561.982 L 341.682,561.982 L 347.617,562.086 L 347.806,561.879 L 346.348,557.813 L 346.051,557.572 L 342.686,557.709 L 340.55,557.709 L 338.657,551.817 L 336.459,544.822" id="path2460" style="fill:#0066b3;fill-opacity:1;fill-rule:nonzero;stroke:none"/>
							
              
							<path animation_id="7" d="M 349.983,543.41 L 348.36,537.862 L 348.078,537.584 L 341.996,537.586 L 341.876,537.793 L 343.389,542.479 L 345.829,549.888 C 346.372,551.602 346.823,553.043 347.182,554.21 C 347.542,555.377 347.888,556.527 348.221,557.66 C 348.555,558.792 348.954,560.164 349.419,561.775 L 349.652,562.083 L 355.786,562.086 L 355.906,561.879 C 355.405,560.422 354.978,559.174 354.625,558.134 C 354.273,557.094 353.946,556.118 353.646,555.203 C 353.346,554.288 353.024,553.29 352.68,552.207 C 352.337,551.125 351.923,549.812 351.442,548.268 L 349.983,543.41" id="path2462" style="fill:#0066b3;fill-opacity:1;fill-rule:nonzero;stroke:none"/>
							
              
							<path animation_id="8" d="M 358.235,542.806 L 356.773,537.912 L 356.48,537.584 L 350.749,537.584 L 350.562,537.809 L 352.757,544.39 L 354.112,548.456 C 354.648,550.113 355.097,551.51 355.459,552.648 C 355.822,553.786 356.141,554.805 356.417,555.706 C 356.693,556.606 356.969,557.528 357.246,558.472 C 357.523,559.417 357.843,560.523 358.207,561.792 L 358.467,561.998 L 361.502,562.033 L 364.709,562.067 C 366.4,562.101 367.811,562.068 368.943,561.968 C 370.075,561.868 371.026,561.603 371.798,561.171 C 372.852,560.55 373.578,559.734 373.974,558.721 C 374.37,557.708 374.51,556.607 374.395,555.417 C 374.293,554.37 374.037,553.362 373.626,552.393 C 373.217,551.424 372.724,550.572 372.149,549.835 C 371.172,548.628 370.064,547.757 368.827,547.219 C 367.59,546.681 366.277,546.342 364.887,546.203 C 363.497,546.064 362.084,545.988 360.648,545.976 L 359.235,545.976 L 358.235,542.806 z M 362.279,555.555 L 360.608,550.248 L 361.332,550.248 C 361.997,550.237 362.692,550.269 363.416,550.343 C 364.14,550.418 364.832,550.605 365.489,550.903 C 366.321,551.299 366.982,551.869 367.474,552.613 C 367.965,553.358 368.253,554.177 368.335,555.072 C 368.37,555.621 368.302,556.071 368.134,556.42 C 367.966,556.77 367.78,557.035 367.579,557.216 C 367.376,557.398 367.241,557.51 367.174,557.553 C 366.823,557.754 366.392,557.878 365.88,557.928 C 365.369,557.978 364.721,557.99 363.937,557.967 L 363.041,557.967 L 362.279,555.555" id="path2464" style="fill:#00b9f1;fill-opacity:1;fill-rule:evenodd;stroke:none"/>
							
              
							<path animation_id="9" d="M 396.922,547.822 C 396.027,545.363 394.977,543.416 393.771,541.981 C 392.566,540.547 391.344,539.496 390.106,538.828 C 389.698,538.563 388.931,538.232 387.805,537.833 C 386.679,537.435 385.146,537.215 383.208,537.175 C 381.927,537.162 380.675,537.316 379.449,537.635 C 378.224,537.955 377.162,538.513 376.262,539.311 C 375.444,539.997 374.81,540.934 374.364,542.123 C 373.916,543.313 373.769,544.88 373.922,546.823 C 374.057,548.283 374.392,549.816 374.927,551.418 C 375.462,553.021 376.138,554.51 376.955,555.885 C 378.107,557.768 379.384,559.19 380.787,560.151 C 382.191,561.112 383.596,561.757 385.005,562.082 C 386.414,562.408 387.704,562.559 388.872,562.535 C 390.463,562.559 391.998,562.297 393.479,561.748 C 394.96,561.199 396.144,560.219 397.032,558.809 C 397.921,557.398 398.272,555.413 398.086,552.852 C 397.921,551.158 397.533,549.482 396.922,547.822 z M 391.297,550.475 C 391.572,551.451 391.761,552.428 391.863,553.404 C 391.993,554.754 391.824,555.845 391.358,556.677 C 390.81,557.438 390.201,557.906 389.529,558.082 C 388.858,558.257 388.412,558.328 388.191,558.297 C 386.758,558.253 385.536,557.744 384.527,556.771 C 383.518,555.797 382.695,554.622 382.06,553.245 C 381.424,551.868 380.949,550.552 380.635,549.299 C 380.32,548.045 380.142,547.116 380.097,546.513 C 380.026,545.628 380.054,544.916 380.181,544.376 C 380.308,543.836 380.49,543.4 380.726,543.067 C 381.135,542.491 381.611,542.092 382.154,541.869 C 382.698,541.647 383.234,541.54 383.763,541.551 C 385.237,541.595 386.475,542.107 387.478,543.083 C 388.48,544.06 389.289,545.232 389.904,546.599 C 390.519,547.966 390.983,549.258 391.297,550.475" id="path2466" style="fill:#00b9f1;fill-opacity:1;fill-rule:evenodd;stroke:none"/>
							
              
							<path animation_id="10" d="M 395.995,539.156 L 395.956,539.501 L 397.508,543.843 L 397.862,543.946 C 398.05,543.692 398.246,543.458 398.451,543.244 C 398.655,543.029 398.947,542.804 399.326,542.568 C 400.146,542.084 400.91,541.776 401.618,541.642 C 402.327,541.507 402.862,541.448 403.227,541.465 C 404.495,541.477 405.56,541.763 406.42,542.322 C 407.28,542.882 407.765,543.641 407.877,544.601 C 407.92,545.427 407.657,546.099 407.089,546.616 C 406.519,547.133 405.825,547.598 405.005,548.012 L 403.922,548.632 C 403.334,548.966 402.729,549.378 402.109,549.868 C 401.488,550.357 400.979,550.988 400.582,551.761 C 400.185,552.534 400.028,553.513 400.111,554.697 C 400.163,555.405 400.365,556.202 400.717,557.087 C 401.069,557.972 401.62,558.83 402.372,559.659 C 403.399,560.714 404.593,561.463 405.954,561.907 C 407.315,562.351 408.72,562.566 410.171,562.553 C 412.03,562.508 413.537,562.262 414.689,561.812 C 415.841,561.363 416.646,560.978 417.103,560.658 L 417.22,560.417 L 415.568,556.11 L 415.214,556.006 C 415.041,556.253 414.88,556.448 414.732,556.592 C 414.584,556.735 414.385,556.896 414.136,557.074 C 413.007,557.884 411.722,558.297 410.283,558.315 C 409.166,558.297 408.264,558.03 407.577,557.514 C 406.889,556.997 406.504,556.334 406.42,555.524 C 406.361,554.807 406.586,554.207 407.099,553.723 C 407.61,553.24 408.378,552.725 409.401,552.182 L 410.192,551.768 C 410.784,551.432 411.411,551.005 412.073,550.485 C 412.736,549.966 413.286,549.301 413.723,548.491 C 414.162,547.68 414.34,546.671 414.258,545.462 C 414.142,544.058 413.675,542.727 412.857,541.471 C 412.039,540.215 410.843,539.188 409.269,538.392 C 407.696,537.595 405.716,537.184 403.332,537.158 C 401.569,537.158 399.882,537.433 398.27,537.985 C 397.734,538.172 397.298,538.358 396.963,538.545 C 396.628,538.732 396.306,538.935 395.995,539.156" id="path2468" style="fill:#00b9f1;fill-opacity:1;fill-rule:nonzero;stroke:none"/>
							
              
							<path animation_id="11" d="M 426.115,544.822 L 424.027,537.896 L 423.747,537.584 L 417.867,537.586 L 417.712,537.793 L 419.387,542.755 L 421.691,549.785 L 424.207,557.675 L 422.033,557.641 L 418.025,557.503 L 417.876,557.779 L 419.366,561.81 L 419.657,561.982 L 431.337,561.982 L 437.273,562.086 L 437.461,561.879 L 436.003,557.813 L 435.706,557.572 L 432.341,557.709 L 430.205,557.709 L 428.312,551.817 L 426.115,544.822" id="path2470" style="fill:#00b9f1;fill-opacity:1;fill-rule:nonzero;stroke:none"/>
							
              
							<path animation_id="12" d="M 365.833,564.586 C 365.833,564.586 455.077,599.869 437.063,564.087 C 437.055,564.073 428.341,564.087 428.341,564.087 C 428.341,564.087 446.653,586.667 379.484,568.301 L 365.833,564.586" id="path2472" style="fill:#0066b3;fill-opacity:1;fill-rule:nonzero;stroke:none"/>
							
              
							<path animation_id="13" d="M 474.466,594.369 C 474.466,594.369 434.805,565.58 425.005,589.334 C 425.004,589.337 433.594,594.287 433.594,594.287 C 433.594,594.287 431.953,573.896 468.41,591.674 L 474.466,594.369" id="path2474" style="fill:#0066b3;fill-opacity:1;fill-rule:nonzero;stroke:none"/>
							
              
							<path animation_id="14" d="M 440.254,591.578 C 440.254,593.647 441.931,595.325 444,595.325 C 446.069,595.325 447.746,593.647 447.746,591.578 C 447.746,589.509 446.069,587.832 444,587.832 C 441.931,587.832 440.254,589.509 440.254,591.578" id="path2476" style="fill:#0066b3;fill-opacity:1;fill-rule:nonzero;stroke:none"/>
							
              
							<path animation_id="15" d="M 332.156,522.052 L 332.156,522.915 L 329.072,522.915 L 329.072,525.61 L 331.875,525.61 L 331.875,526.472 L 329.072,526.472 L 329.072,528.974 L 332.091,528.974 L 332.091,529.836 L 328.08,529.836 L 328.08,522.052 L 332.156,522.052" id="path2478" style="fill:#0066b3;fill-opacity:1;fill-rule:nonzero;stroke:none"/>
							
              
							<path animation_id="16" d="M 334.263,527.497 L 333.37894,527.497 L 333.37894,522.0522 L 334.263,522.0522 L 334.263,527.497 z M 333.325,528.888 L 334.31688,528.888 L 334.31688,529.83673 L 333.325,529.83673 L 333.325,528.888 z" id="path2480" style="fill:#0066b3;fill-opacity:1;fill-rule:evenodd;stroke:none"/>
							
              
							<path animation_id="17" d="M 339.656,522.052 L 339.656,525.826 C 339.656,526.904 339.365,527.604 338.2,527.604 C 337.499,527.604 337.09,527.41 336.745,526.796 L 336.702,526.796 L 336.702,527.497 L 335.764,527.497 C 335.796,527.119 335.818,526.742 335.818,526.365 L 335.818,522.052 L 336.702,522.052 L 336.702,525.276 C 336.702,526.02 336.842,526.882 337.812,526.882 C 338.567,526.882 338.771,526.408 338.771,525.826 L 338.771,522.052 L 339.656,522.052" id="path2482" style="fill:#0066b3;fill-opacity:1;fill-rule:nonzero;stroke:none"/>
							
              
							<path animation_id="18" d="M 340.556,527.497 L 340.556,526.828 L 341.397,526.828 L 341.397,522.052 L 342.281,522.052 L 342.281,526.828 L 343.38,526.828 L 343.38,527.497 L 342.281,527.497 L 342.281,528.424 C 342.281,528.866 342.442,529.265 343.38,529.2 L 343.38,529.836 C 343.251,529.858 343.143,529.869 342.96,529.869 C 342.173,529.869 341.397,529.653 341.397,528.553 L 341.397,527.497 L 340.556,527.497" id="path2484" style="fill:#0066b3;fill-opacity:1;fill-rule:nonzero;stroke:none"/>
							
              
							<path animation_id="19" d="M 347.037,524.758 C 347.123,523.001 346.455,522.667 345.915,522.667 C 345.323,522.667 345.064,523.141 345.064,523.669 C 345.064,524.823 346.196,524.747 347.037,524.758 z M 347.058,522.052 L 348.029,522.052 C 347.964,522.472 347.921,522.915 347.921,523.346 L 347.921,525.966 C 347.921,526.882 347.554,527.604 346.153,527.604 C 344.999,527.604 344.352,527.184 344.309,525.966 L 345.269,525.966 C 345.215,526.537 345.527,526.936 346.12,526.936 C 347.069,526.936 347.058,526.149 347.037,525.427 C 345.797,525.459 344.18,525.384 344.18,523.734 C 344.18,522.688 344.514,521.944 345.668,521.944 C 346.347,521.944 346.767,522.214 347.037,522.839 L 347.058,522.839 L 347.058,522.052" id="path2486" style="fill:#0066b3;fill-opacity:1;fill-rule:evenodd;stroke:none"/>
							
              
							<path animation_id="20" d="M 352.896,525.75 C 352.95,526.968 352.314,527.604 351.225,527.604 C 349.339,527.604 349.155,526.289 349.155,524.693 C 349.155,522.289 350.072,521.944 351.225,521.944 C 351.829,521.944 352.972,522.332 352.939,523.863 L 352.012,523.863 C 352.045,522.882 351.43,522.667 351.225,522.667 C 350.309,522.667 350.082,523.303 350.082,525.071 C 350.082,526.559 350.546,526.882 351.225,526.882 C 351.56,526.882 352.001,526.645 351.98,525.75 L 352.896,525.75" id="path2488" style="fill:#0066b3;fill-opacity:1;fill-rule:nonzero;stroke:none"/>
							
              
							<path animation_id="21" d="M 357.958,522.052 L 357.958,525.912 C 357.958,527.141 357.441,527.604 356.513,527.604 C 355.802,527.604 355.392,527.432 355.036,526.796 L 354.993,526.796 L 354.993,529.836 L 354.109,529.836 L 354.109,522.052 L 354.993,522.052 L 354.993,525.254 C 354.993,526.171 355.219,526.882 356.103,526.882 C 356.858,526.882 357.074,526.408 357.074,525.739 L 357.074,522.052 L 357.958,522.052" id="path2490" style="fill:#0066b3;fill-opacity:1;fill-rule:nonzero;stroke:none"/>
							
              
							<path animation_id="22" d="M 359.02,522.052 L 360.0335,522.052 L 360.0335,523.1733 L 359.02,523.1733 L 359.02,522.052 z" id="path2492" style="fill:#0066b3;fill-opacity:1;fill-rule:nonzero;stroke:none"/>
							
              
							<path animation_id="23" d="M 368.802,527.756 C 368.867,529.383 368.069,529.998 366.387,529.998 C 364.737,529.998 363.94,529.006 363.94,527.454 L 363.94,524.898 C 363.94,522.742 364.737,521.89 366.387,521.89 C 367.39,521.89 368.133,522.127 368.77,522.472 L 368.77,526.257 L 366.344,526.257 L 366.344,525.394 L 367.777,525.394 L 367.777,523.065 C 367.573,522.915 367.099,522.72 366.387,522.72 C 365.449,522.72 364.953,523.152 364.953,524.855 L 364.953,527.486 C 364.953,529.114 366.074,529.168 366.387,529.168 C 367.39,529.168 367.767,528.672 367.767,527.756 L 368.802,527.756" id="path2494" style="fill:#0066b3;fill-opacity:1;fill-rule:nonzero;stroke:none"/>
							
              
							<path animation_id="24" d="M 373.03,523.885 C 373.03,522.979 372.437,522.623 371.962,522.623 C 371.337,522.623 371.035,523.065 371.035,523.723 L 371.035,527.497 L 370.151,527.497 L 370.151,523.346 C 370.151,522.419 370.669,521.944 371.617,521.944 C 372.189,521.944 372.706,522.214 372.997,522.71 L 373.03,522.71 L 373.03,522.052 L 373.968,522.052 C 373.935,522.429 373.914,522.807 373.914,523.184 L 373.914,527.497 L 373.03,527.497 L 373.03,523.885" id="path2496" style="fill:#0066b3;fill-opacity:1;fill-rule:nonzero;stroke:none"/>
							
              
							<path animation_id="25" d="M 374.954,527.497 L 374.954,526.828 L 375.849,526.828 L 375.849,522.958 C 375.849,522.332 376.226,521.987 377.067,521.987 C 377.358,521.987 377.649,522.052 377.94,522.074 L 377.94,522.753 C 377.746,522.731 377.606,522.71 377.541,522.71 C 376.733,522.71 376.733,523.152 376.733,523.497 L 376.733,526.828 L 377.919,526.828 L 377.919,527.497 L 376.733,527.497 L 376.733,528.942 L 375.849,528.542 L 375.849,527.497 L 374.954,527.497" id="path2498" style="fill:#0066b3;fill-opacity:1;fill-rule:nonzero;stroke:none"/>
							
              
							<path animation_id="26" d="M 378.901,522.052 L 379.9145,522.052 L 379.9145,523.1733 L 378.901,523.1733 L 378.901,522.052 z" id="path2500" style="fill:#0066b3;fill-opacity:1;fill-rule:nonzero;stroke:none"/>
							
              
							<path animation_id="27" d="M 388.683,527.756 C 388.748,529.383 387.95,529.998 386.268,529.998 C 384.619,529.998 383.821,529.006 383.821,527.454 L 383.821,524.898 C 383.821,522.742 384.619,521.89 386.268,521.89 C 387.271,521.89 388.015,522.127 388.651,522.472 L 388.651,526.257 L 386.225,526.257 L 386.225,525.394 L 387.659,525.394 L 387.659,523.065 C 387.454,522.915 386.98,522.72 386.268,522.72 C 385.33,522.72 384.835,523.152 384.835,524.855 L 384.835,527.486 C 384.835,529.114 385.956,529.168 386.268,529.168 C 387.271,529.168 387.648,528.672 387.648,527.756 L 388.683,527.756" id="path2502" style="fill:#0066b3;fill-opacity:1;fill-rule:nonzero;stroke:none"/>
							
              
							<path animation_id="28" d="M 390.863,525.157 C 390.873,526.666 391.337,526.936 391.898,526.936 C 392.545,526.936 392.987,526.742 392.987,525.157 L 390.863,525.157 z M 393.925,524.489 L 393.925,524.952 C 393.925,526.753 393.537,527.604 391.984,527.604 C 390.097,527.604 389.914,526.289 389.914,524.693 C 389.914,522.289 390.83,521.944 391.984,521.944 C 393.127,521.944 393.871,522.494 393.882,523.702 L 392.911,523.702 C 392.879,523.152 392.566,522.667 391.962,522.667 C 391.272,522.667 390.863,522.968 390.863,524.489 L 393.925,524.489" id="path2504" style="fill:#0066b3;fill-opacity:1;fill-rule:evenodd;stroke:none"/>
							
              
							<path animation_id="29" d="M 398.706,523.604 C 398.706,525.265 395.989,525.243 395.989,526.203 C 395.989,526.677 396.356,526.936 396.83,526.936 C 397.391,526.936 397.693,526.634 397.682,526.063 L 398.663,526.063 C 398.738,527.141 397.908,527.604 396.938,527.604 C 395.407,527.604 395.062,526.688 395.062,526.117 C 395.062,524.489 397.779,524.467 397.779,523.497 C 397.779,522.936 397.369,522.667 396.841,522.667 C 395.946,522.667 395.935,523.4 395.935,523.712 L 394.932,523.712 C 394.9,522.462 395.633,521.944 396.808,521.944 C 397.887,521.944 398.706,522.408 398.706,523.604" id="path2506" style="fill:#0066b3;fill-opacity:1;fill-rule:nonzero;stroke:none"/>
							
              
							<path animation_id="30" d="M 403.344,525.75 C 403.398,526.968 402.762,527.604 401.673,527.604 C 399.786,527.604 399.603,526.289 399.603,524.693 C 399.603,522.289 400.519,521.944 401.673,521.944 C 402.277,521.944 403.419,522.332 403.387,523.863 L 402.46,523.863 C 402.492,522.882 401.877,522.667 401.673,522.667 C 400.756,522.667 400.53,523.303 400.53,525.071 C 400.53,526.559 400.994,526.882 401.673,526.882 C 402.007,526.882 402.449,526.645 402.427,525.75 L 403.344,525.75" id="path2508" style="fill:#0066b3;fill-opacity:1;fill-rule:nonzero;stroke:none"/>
							
              
							<path animation_id="31" d="M 408.405,522.052 L 408.405,525.912 C 408.405,527.141 407.888,527.604 406.961,527.604 C 406.249,527.604 405.839,527.432 405.484,526.796 L 405.441,526.796 L 405.441,529.836 L 404.556,529.836 L 404.556,522.052 L 405.441,522.052 L 405.441,525.254 C 405.441,526.171 405.667,526.882 406.551,526.882 C 407.306,526.882 407.521,526.408 407.521,525.739 L 407.521,522.052 L 408.405,522.052" id="path2510" style="fill:#0066b3;fill-opacity:1;fill-rule:nonzero;stroke:none"/>
							
              
							<path animation_id="32" d="M 410.739,527.497 L 409.85509,527.497 L 409.85509,522.0522 L 410.739,522.0522 L 410.739,527.497 z M 409.801,528.888 L 410.79285,528.888 L 410.79285,529.83673 L 409.801,529.83673 L 409.801,528.888 z" id="path2512" style="fill:#0066b3;fill-opacity:1;fill-rule:evenodd;stroke:none"/>
							
              
							<path animation_id="33" d="M 415.733,525.75 C 415.787,526.968 415.15,527.604 414.062,527.604 C 412.175,527.604 411.992,526.289 411.992,524.693 C 411.992,522.289 412.908,521.944 414.062,521.944 C 414.666,521.944 415.808,522.332 415.776,523.863 L 414.849,523.863 C 414.881,522.882 414.267,522.667 414.062,522.667 C 413.145,522.667 412.919,523.303 412.919,525.071 C 412.919,526.559 413.383,526.882 414.062,526.882 C 414.396,526.882 414.838,526.645 414.816,525.75 L 415.733,525.75" id="path2514" style="fill:#0066b3;fill-opacity:1;fill-rule:nonzero;stroke:none"/>
							
              
							<path animation_id="34" d="M 417.733,525.103 L 417.754,525.103 L 419.695,522.052 L 420.816,522.052 L 418.681,525.157 L 420.493,527.497 L 419.415,527.497 L 417.754,525.146 L 417.733,525.146 L 417.733,529.836 L 416.849,529.836 L 416.849,522.052 L 417.733,522.052 L 417.733,525.103" id="path2516" style="fill:#0066b3;fill-opacity:1;fill-rule:nonzero;stroke:none"/>
							
              
							<path animation_id="35" d="M 421.076,527.497 L 421.076,526.828 L 421.971,526.828 L 421.971,522.958 C 421.971,522.332 422.349,521.987 423.189,521.987 C 423.48,521.987 423.772,522.052 424.063,522.074 L 424.063,522.753 C 423.869,522.731 423.729,522.71 423.664,522.71 C 422.855,522.71 422.855,523.152 422.855,523.497 L 422.855,526.828 L 424.041,526.828 L 424.041,527.497 L 422.855,527.497 L 422.855,528.942 L 421.971,528.542 L 421.971,527.497 L 421.076,527.497" id="path2518" style="fill:#0066b3;fill-opacity:1;fill-rule:nonzero;stroke:none"/>
							
              
							<path animation_id="36" d="M 425.024,522.052 L 426.0374,522.052 L 426.0374,523.1733 L 425.024,523.1733 L 425.024,522.052 z" id="path2520" style="fill:#0066b3;fill-opacity:1;fill-rule:nonzero;stroke:none"/>
							
            
						</g>
						
          
					</g>
					
        
				</g>
				
      
			</g>
			
    
		</g>
		
  
	</g>
	

</svg>
