<?xml version="1.0" encoding="iso-8859-1"?>
<svg height="192.54414" id="svg3212" version="1.1" width="599.68622" xmlns="http://www.w3.org/2000/svg" xmlns:svg="http://www.w3.org/2000/svg">
	
  
	<defs id="defs3214"/>
	
  
	<g id="layer1" transform="translate(11.27167,-427.51856)">
		
    
		<path animation_id="0" d="m 226.89976,428.51856 -210.687615,0 c -14.457666,0 -26.483815,11.44784 -26.483815,26.24723 l 0,131.58447 c 0,14.80597 12.026149,26.52982 26.483815,26.52982 l 210.687615,0 c 14.26052,0 26.22095,-11.72385 26.22095,-26.52982 l 0,-131.58447 c 0,-14.79939 -11.96043,-26.24723 -26.22095,-26.24723" id="path54" style="fill:#ed1c24;fill-opacity:1;fill-rule:nonzero;stroke:none"/>
		
    
		<path animation_id="1" d="m 233.86567,586.35026 c 0,4.19273 -2.7601,7.54428 -6.96596,7.54428 l -210.687618,0 c -4.205866,0 -7.2288328,-3.35155 -7.2288328,-7.54428 l 0,-131.58447 c 0,-4.19272 3.0229668,-7.5377 7.2288328,-7.5377 l 210.687618,0 c 4.20586,0 6.96596,3.34498 6.96596,7.5377 l 0,131.58447" id="path58" style="fill:#ffffff;fill-opacity:1;fill-rule:nonzero;stroke:none"/>
		
    
		<path animation_id="2" d="m 25.865922,460.35828 0,120.75436 44.358746,0 c 36.801332,-0.28915 47.973162,-26.03036 47.973162,-60.9522 0,-40.22517 -16.75775,-59.80216 -47.973162,-59.80216 l -44.358746,0 z m 105.146658,0 0,120.75436 46.82312,0 c 21.75222,0 42.38725,-10.40294 42.38725,-34.99412 0,-15.06226 -10.02179,-24.07858 -24.80804,-28.25816 10.58038,-5.30334 20.37216,-13.57049 20.37216,-25.30092 0,-22.63939 -12.51902,-32.20116 -35.65129,-32.20116 l -49.1232,0 z m 28.75104,18.72925 8.05029,0 c 9.4632,0 18.40067,3.00982 18.40067,14.45766 0,10.34381 -6.96597,14.62196 -16.42917,14.62196 l -10.02179,0 0,-29.07962 z m -104.818075,0.32858 5.914499,0 c 26.155231,0 28.586748,18.90011 28.586748,43.20871 0,26.54953 -8.773174,38.93712 -24.150873,38.93712 l -10.350374,0 0,-82.14583 z m 104.818075,51.09471 10.51467,0 c 11.43469,0 19.22212,2.82581 19.22212,15.11483 0,12.57817 -9.0689,15.93629 -19.38642,15.93629 l -10.35037,0 0,-31.05112 z" id="path62" style="fill:#ed1c24;fill-opacity:1;fill-rule:nonzero;stroke:none"/>
		
    
		<path animation_id="3" d="m 398.80797,435.87882 -0.32858,0.16403 c -0.85431,0.70317 -2.56295,1.25519 -4.27158,1.31434 l -0.98575,0 0,45.67308 5.42162,0 c 0,0 0.65717,-1.81378 0.98575,-2.79296 3.68014,2.51037 7.06454,3.77871 10.67896,3.77871 3.41727,0 6.50595,-1.19605 8.87175,-3.45013 3.35155,-3.21354 4.92875,-7.68228 4.92875,-14.12908 0,-10.52124 -4.7316,-16.92204 -12.48617,-16.92204 -3.81156,0 -6.50595,1.17633 -10.51466,4.10729 l 0,-17.7435 -2.30009,0 z m 40.08717,0 c -2.69438,0 -4.60017,1.85979 -4.60017,4.43588 0,2.74038 1.77435,4.76446 4.60017,4.76446 2.7601,0 4.92875,-1.94522 4.92875,-4.60017 0,-2.66152 -2.16865,-4.60017 -4.92875,-4.60017 z m 21.02933,0 -0.32858,0.32859 c -0.59145,0.5783 -2.30009,1.07775 -4.27159,1.15004 l -0.98575,0 0,45.67308 7.72171,0 0,-47.15171 -2.13579,0 z m 18.72925,0 c -2.69438,0 -4.76446,1.85979 -4.76446,4.43588 0,2.74038 1.93864,4.76446 4.76446,4.76446 2.7601,0 4.76446,-1.94522 4.76446,-4.60017 0,-2.66152 -2.00436,-4.60017 -4.76446,-4.60017 z m -180.06365,1.80721 -0.98575,45.3445 7.39312,0 c 0,0 0.29546,-13.51135 0.49261,-23.16513 0.0657,-3.45012 -0.16403,-8.024 -0.16403,-9.6932 0.72289,1.48519 2.1358,5.63849 3.45013,8.54316 3.74585,8.30659 8.87175,19.87929 8.87175,19.87929 l 5.09304,0 c 0,0 4.86303,-11.60556 8.54317,-20.04358 1.24861,-2.95725 2.72724,-6.96596 3.45012,-8.54316 0,1.77435 -0.3943,6.21022 -0.32858,9.6932 0.0657,9.78521 0.16403,23.32942 0.16403,23.32942 l 7.886,0 -0.16403,-45.3445 -9.03604,0 c 0,0 -10.87611,25.95808 -12.32188,29.40821 -1.5772,-3.41727 -13.30762,-29.40821 -13.30762,-29.40821 l -9.03604,0 z m 199.28577,5.75021 -1.15004,3.61442 c -0.65717,2.45123 -1.47862,3.12154 -4.10729,3.12154 l -2.13579,0 0,5.9145 4.92875,0 0,16.42916 c 0,7.51142 3.61441,11.17183 11.17183,11.17183 2.10293,0 3.77871,-0.24972 5.75021,-0.98575 l 0.49261,-0.32858 0,-5.75021 -1.15004,0.32859 c -1.9715,0.58488 -2.72724,0.65716 -4.10729,0.65716 -3.22012,0 -4.43588,-1.07118 -4.43588,-4.27158 l 0,-17.25062 10.67896,0 c 0.46002,1.01203 10.35037,21.9165 10.67896,22.67225 -0.32859,0.74259 -7.886,16.42916 -7.886,16.42916 l 7.886,0 20.53645,-45.01591 -7.7217,0 c 0,0 -7.32741,16.58688 -8.70746,19.715 -1.44577,-3.12155 -9.03604,-19.715 -9.03604,-19.715 l -16.42917,0 0,-6.73596 -5.25733,0 z m -57.50208,5.9145 -0.16403,0.16403 c -1.24861,0.81488 -3.05582,1.15004 -6.40737,1.15004 l -3.45012,0 0,6.07879 4.92874,0 0,26.28667 7.55742,0 0,-33.67979 -2.46437,0 z m 39.75858,0 -0.32858,0.16403 c -1.31433,0.81488 -2.99011,1.15004 -6.40737,1.15004 l -3.45013,0 0,6.07879 4.92875,0 0,26.28667 7.72171,0 0,-33.67979 -2.46438,0 z m -111.88261,0.16403 c -10.44895,0 -15.93629,5.98021 -15.93629,17.08633 0,11.53985 5.3559,17.41492 15.93629,17.41492 10.58038,0 15.93629,-5.8225 15.93629,-17.25063 0,-11.23755 -5.55306,-17.25062 -15.93629,-17.25062 z m -1.64292,5.9145 c 0.54177,-0.0694 1.04327,0 1.64292,0 4.92875,0 7.72171,1.84006 7.72171,11.33612 0,9.54206 -2.79296,11.33613 -7.72171,11.33613 -4.92875,0 -7.886,-1.84664 -7.886,-11.50042 0,-8.17678 2.45065,-10.68432 6.24308,-11.17183 z m 43.04441,0.65716 c 4.00872,0 6.24309,1.72835 6.24309,10.67896 0,9.21348 -2.7601,11.17183 -6.90025,11.17183 -2.89154,0 -4.79732,-0.67688 -7.886,-2.46437 l 0,-16.26487 c 4.86303,-2.86525 5.98021,-3.12155 8.54316,-3.12155 z m 125.51883,40.08717 -0.16403,0.16403 c -0.85432,0.71631 -2.56295,1.26176 -4.27158,1.31433 l -0.82146,0 0,45.67308 7.55741,0 0,-9.69321 c 0.3943,-0.3943 2.89154,-3.09525 3.943,-4.27158 1.1829,1.72178 9.36463,13.96479 9.36463,13.96479 l 8.54316,0 c 0,0 -12.19044,-18.58467 -12.97904,-19.715 0.92004,-0.97918 12.15758,-13.14333 12.15758,-13.14333 l -9.03604,0 c 0,0 -9.49605,11.26383 -11.99329,14.29337 l 0,-28.58675 -2.30008,0 z m -237.23715,1.64291 0,45.50879 7.55742,0 0,-24.31516 c 0,-1.41948 -0.0657,-7.48513 -0.32859,-9.03604 1.05147,1.74149 3.91014,5.79621 4.76446,6.90025 6.17737,7.92543 20.70075,26.45095 20.70075,26.45095 l 5.42162,0 0,-45.50879 -7.55741,0 0,18.89354 c 0,2.03722 0,10.94183 0.32858,12.97904 -0.65717,-1.26176 -4.89589,-7.03825 -6.07879,-8.54316 -6.37452,-8.22773 -18.07208,-23.32942 -18.07208,-23.32942 l -6.73596,0 z m 91.34616,5.9145 -0.98575,3.61442 c -0.72288,2.45123 -1.54434,3.12154 -4.10729,3.12154 l -2.13579,0 0,5.75021 4.76445,0 0,16.59346 c 0,7.52455 3.68014,11.17183 11.17184,11.17183 2.10293,0 3.61441,-0.25656 5.58591,-0.98575 l 0.65717,-0.32858 0,-5.9145 -1.15004,0.32858 c -1.90579,0.58488 -2.95725,0.82146 -4.27159,0.82146 -3.22011,0 -4.27158,-1.23548 -4.27158,-4.43588 l 0,-17.25062 8.87175,0 0,-5.75021 -8.87175,0 0,-6.73596 -5.25733,0 z m 120.0972,5.9145 -0.32859,0.16403 c -0.85431,0.71631 -2.56295,1.26176 -4.27158,1.31433 l -0.82146,0.16403 0,32.03688 7.55742,0 0,-23.82229 c 2.62867,-1.18948 5.9145,-2.08979 9.8575,-2.46438 l 0.82146,0 0,-7.22883 -0.98575,0 c -3.1544,0.28232 -6.34166,1.72835 -9.69321,4.27158 l 0,-4.43587 -2.13579,0 z m -147.86249,0.16403 c -9.72607,0 -15.27912,6.14451 -15.27912,17.25063 0,11.21783 5.65163,17.25062 16.42916,17.25062 3.81157,0 6.93311,-0.76231 11.00754,-2.62867 l 0.49261,-0.32858 0,-6.57167 -1.31433,0.49262 c -5.1259,2.22122 -6.73596,2.79295 -10.02179,2.79295 -5.98022,0 -8.18172,-2.4578 -8.37887,-9.03604 l 21.19362,0 0,-3.45012 c 0,-10.14665 -4.99447,-15.772 -14.12908,-15.772 z m 116.97566,0 c -10.31752,0 -15.772,5.98022 -15.772,17.08633 0,11.55299 5.32305,17.41492 15.772,17.41492 10.51466,0 15.93629,-5.81593 15.93629,-17.25062 0,-11.22441 -5.61878,-17.25063 -15.93629,-17.25063 z m 97.42495,0.16403 c -7.62314,0 -11.99329,3.4567 -11.99329,9.52892 0,2.7601 0.95289,5.00761 2.79295,6.73595 1.5772,1.41948 3.45013,2.41838 7.72171,3.943 5.1259,1.87293 5.58592,2.68782 5.58592,4.43588 0,1.5772 -0.3943,3.28583 -5.58592,3.28583 -3.48298,0 -5.81592,-0.6966 -9.36462,-2.46437 l -1.31434,-0.65717 0,6.73596 0.49262,0.32858 c 3.41726,1.52463 6.76881,2.13579 10.51466,2.13579 7.886,0 12.65046,-3.65384 12.65046,-9.8575 0,-3.16754 -1.11718,-5.36248 -3.61442,-7.22883 -1.31433,-1.01861 -2.69438,-1.70863 -6.57166,-3.12154 -5.9145,-2.14236 -6.24309,-2.8521 -6.24309,-4.76446 0,-0.69002 -0.0983,-2.79296 4.76446,-2.79296 2.7601,0 4.79732,0.63088 8.54317,2.30009 l 1.31433,0.49261 0,-7.06454 -0.49261,-0.16403 c -3.68013,-1.32091 -6.11165,-1.80721 -9.20033,-1.80721 z m -145.23382,0.16403 c 0,0 -6.04594,19.24841 -7.55742,23.32941 -2.30008,-9.23319 -6.24308,-23.00083 -6.24308,-23.00083 l -8.21459,0 10.84325,33.18692 5.9145,0 c 0,0 6.44024,-17.54635 7.886,-21.35792 1.38005,3.82471 7.55742,21.35792 7.55742,21.35792 l 5.9145,0 10.84325,-33.18692 -7.22884,0 c 0,0 -4.69874,15.16084 -6.40737,23.00083 -1.51148,-4.10072 -7.39312,-23.32941 -7.39312,-23.32941 l -5.9145,0 z m -69.33108,5.58592 c 3.68013,0 5.55306,1.26176 6.07879,7.39312 l -12.97904,0 c 0.19715,-1.70206 0.42689,-2.87182 0.82146,-3.77871 1.11718,-2.45123 3.12154,-3.61441 6.07879,-3.61441 z m 115.49703,0 c 0.53188,-0.0694 1.05147,0 1.64292,0 4.92875,0 7.7217,1.84663 7.7217,11.33612 0,9.54206 -2.79295,11.33612 -7.7217,11.33612 -4.86304,0 -7.55742,-1.85321 -7.55742,-11.50041 0,-8.1883 2.19126,-10.68669 5.9145,-11.17183 z m -62.26654,40.58003 c -2.69438,0 -4.60016,2.01751 -4.60016,4.60017 0,2.73381 1.84006,4.60017 4.60016,4.60017 2.82582,0 4.92875,-1.94522 4.92875,-4.60017 0,-2.65495 -2.10293,-4.60017 -4.92875,-4.60017 z m 78.86,0 c -2.69439,0 -4.92875,2.01751 -4.92875,4.60017 0,2.73381 2.10293,4.60017 4.92875,4.60017 2.7601,0 4.76446,-1.94522 4.76446,-4.60017 0,-2.65495 -2.00436,-4.60017 -4.76446,-4.60017 z m -195.50707,1.80721 0,45.50879 27.27241,0 0.65717,-6.24308 -20.04358,0 0,-39.26571 -7.886,0 z m 166.92032,6.40738 -0.98575,3.61441 c -0.72288,2.45123 -1.54434,3.12154 -4.10729,3.12154 l -2.13579,0 0,6.0788 4.92875,0 0,15.77199 c 0,7.51142 3.61441,11.17184 11.17183,11.17184 2.10293,0 3.71299,-0.40745 5.75021,-1.15004 l 0.49261,-0.16403 0,-5.9145 -1.15004,0.32858 c -1.9715,0.59145 -2.79296,0.82146 -4.10729,0.82146 -3.28584,0 -4.43588,-1.23547 -4.43588,-4.43588 l 0,-16.42916 8.54317,0 0,-6.07879 -8.54317,0 0,-6.73596 -5.42162,0 z m -48.63033,5.42162 -0.32858,0.16403 c -0.85432,0.72288 -2.56295,1.25519 -4.27159,1.31433 l -0.82145,0 0,32.20117 7.7217,0 0,-33.67979 -2.30008,0 z m 78.53141,0 -0.16403,0.16403 c -1.24861,0.82146 -3.05582,1.15004 -6.40737,1.15004 l -2.79296,0 0,6.07879 4.27158,0 0,26.28667 7.72171,0 0,-33.67979 -2.62867,0 z m -146.54815,0.16403 c -10.38324,0 -15.93629,5.81592 -15.93629,16.92204 0,11.55299 5.3559,17.41492 15.93629,17.41492 10.58038,0 15.93629,-5.8225 15.93629,-17.25063 0,-11.23098 -5.48735,-17.08633 -15.93629,-17.08633 z m 38.44424,0 c -8.54316,0 -13.47191,4.33073 -13.47191,11.66471 0,4.02843 1.31433,6.21679 3.61441,8.05029 -1.9715,1.94521 -3.41726,4.4753 -3.28583,7.886 0.13143,1.85321 0.82146,3.42384 2.13579,4.60016 -3.08868,1.78093 -4.92875,4.29787 -4.92875,7.39313 0,5.82907 5.81593,9.36462 15.60771,9.36462 14.39195,0 16.59346,-6.88053 16.59346,-11.00754 0,-7.31426 -5.19162,-9.69321 -13.8005,-9.69321 l -5.25734,0 c -3.41726,0 -3.51584,-2.47751 -3.45012,-3.61441 0.0657,-0.7426 0.32858,-1.70864 0.98575,-2.62867 1.51148,0.42059 3.12154,0.65717 5.09304,0.65717 11.0404,0 13.30762,-6.07222 13.30762,-11.17183 0,-2.20808 -0.46001,-3.97586 -1.31433,-5.58592 0.85432,-0.24289 1.67578,-0.49261 2.79296,-0.49261 l 2.79296,0 0,-4.92875 -12.65046,0 c -1.44577,-0.37485 -2.99011,-0.49261 -4.76446,-0.49261 z m 135.8692,0 c -10.44895,0 -16.10058,5.93421 -16.10058,17.08633 0,11.50042 5.35591,17.25063 15.93629,17.25063 3.22011,0 6.04593,-0.59145 9.52891,-2.1358 l 0,-6.57166 c -5.25733,2.34608 -6.17736,2.46437 -9.20033,2.46437 -6.3088,0 -8.21458,-2.47752 -8.21458,-11.00754 0,-9.35805 2.3658,-10.84325 7.886,-10.84325 2.89153,0 4.50159,0.47947 9.03604,2.30009 l 0,-6.90025 c -3.35155,-1.11062 -5.84878,-1.64292 -8.87175,-1.64292 z m -82.14583,0.16403 c -7.62313,0 -11.99329,3.45012 -11.99329,9.52891 0,2.75353 1.05147,5.02076 2.95725,6.73596 1.5772,1.43263 3.28584,2.41838 7.55742,3.943 5.19161,1.87293 5.75021,2.53009 5.75021,4.27159 0,1.57719 -0.4269,3.28583 -5.75021,3.28583 -3.48298,0 -5.9145,-0.53231 -9.52892,-2.30009 l -1.31433,-0.65716 0,6.73596 0.65717,0.16402 c 3.48298,1.52463 6.86739,2.30009 10.67895,2.30009 7.95172,0 12.65046,-3.65385 12.65046,-9.8575 0,-3.16754 -1.11718,-5.52677 -3.61442,-7.39313 -1.31433,-1.01203 -2.72724,-1.53119 -6.73595,-2.95725 -5.9145,-2.14236 -6.24309,-2.85867 -6.24309,-4.76445 0,-0.69003 0,-2.79296 4.92875,-2.79296 2.7601,0 4.79732,0.47947 8.54317,2.13579 l 1.31433,0.65717 0,-7.06454 -0.49261,-0.16403 c -3.68013,-1.34062 -6.14451,-1.80721 -9.36462,-1.80721 z m 111.22545,0 c -7.62313,0 -11.99329,3.45012 -11.99329,9.52891 0,2.75353 0.88718,5.02076 2.79296,6.73596 1.5772,1.43263 3.45012,2.41838 7.72171,3.943 5.25733,1.87293 5.75021,2.53009 5.75021,4.27159 0,1.57719 -0.4269,3.28583 -5.75021,3.28583 -3.48299,0 -5.9145,-0.53231 -9.52892,-2.30009 l -1.31433,-0.65716 0,6.73596 0.49261,0.16402 c 3.48298,1.52463 7.03168,2.30009 10.84325,2.30009 7.886,0 12.48617,-3.65385 12.48617,-9.8575 0,-3.16754 -1.11719,-5.52677 -3.61442,-7.39313 -1.31433,-1.01203 -2.56295,-1.53119 -6.57167,-2.95725 -5.98021,-2.14236 -6.24308,-2.85867 -6.24308,-4.76445 0,-0.69003 0,-2.79296 4.92875,-2.79296 2.69438,0 4.7316,0.47947 8.54317,2.13579 l 1.31433,0.65717 0,-7.06454 -0.65717,-0.16403 c -3.68013,-1.34062 -5.98021,-1.80721 -9.20033,-1.80721 z m -203.39306,5.58591 c 4.92875,0 7.886,1.84664 7.886,11.33613 0,9.54863 -2.95725,11.50041 -7.886,11.50041 -4.92875,0 -7.72171,-1.85978 -7.72171,-11.50041 0,-9.35805 2.92439,-11.33613 7.72171,-11.33613 z m 38.27995,0 c 4.3373,0 5.58592,1.31434 5.58592,5.58592 0,4.16644 -1.28148,5.58592 -5.42163,5.58592 -4.40301,0 -5.9145,-1.38662 -5.9145,-5.75021 0,-3.97586 1.61006,-5.42163 5.75021,-5.42163 z m -6.07879,28.58675 c 1.5772,0.40061 3.61442,0.49261 3.61442,0.49261 l 6.07879,0 c 5.32305,0 5.75021,1.84007 5.75021,3.28584 0,1.38662 -0.19715,2.47094 -1.31434,3.45012 -1.51148,1.35377 -5.19161,1.47863 -7.886,1.47863 -3.1544,0 -8.54316,-0.47316 -8.54316,-3.943 0,-1.62978 0.65716,-3.31212 2.30008,-4.76446 z" id="path186" style="fill:#000000;fill-opacity:1;fill-rule:nonzero;stroke:none"/>
		
  
	</g>
	

</svg>
