<?xml version="1.0" encoding="iso-8859-1"?>
<!-- Created with Inkscape (http://www.inkscape.org/) -->
<svg height="147.04724" id="svg8270" version="1.1" width="892.91339" xmlns="http://www.w3.org/2000/svg" xmlns:cc="http://creativecommons.org/ns#" xmlns:dc="http://purl.org/dc/elements/1.1/" xmlns:rdf="http://www.w3.org/1999/02/22-rdf-syntax-ns#" xmlns:svg="http://www.w3.org/2000/svg">
	
  
	<defs id="defs8272">
		
    
		<clipPath id="clipPath8189">
			
      
			<path animation_id="0" d="m 147.862,751.89 c 0,0 -1.896,0 -1.896,-1.939 l 0,0 0,-34.882 c 0,0 0,-1.937 1.896,-1.937 l 0,0 21.787,0 c 0,0 1.895,0 1.895,1.937 l 0,0 0,34.882 c 0,0 0,1.939 -1.895,1.939 l 0,0 -21.787,0 z" id="path8191"/>
			
    
		</clipPath>
		
    
		<clipPath id="clipPath8177">
			
      
			<path animation_id="1" d="m 0,0 1190.551,0 0,841.89 L 0,841.89 0,0 z" id="path8179"/>
			
    
		</clipPath>
		
  
	</defs>
	
  
	<metadata id="metadata8275">
		
    
		<rdf:RDF>
			
      
			<cc:Work rdf:about="">
				
        
				<dc:format>image/svg+xml</dc:format>
				
        
				<dc:type rdf:resource="http://purl.org/dc/dcmitype/StillImage"/>
				
        
				<dc:title/>
				
      
			</cc:Work>
			
    
		</rdf:RDF>
		
  
	</metadata>
	
  
	<g id="layer1" transform="translate(24.559136,-146.68169)">
		
    
		<g id="g8319" transform="matrix(2.8923906,0,0,2.8923906,463.21741,-170.90184)">
			
      
			<g id="g8173" transform="matrix(1.25,0,0,-1.25,-299.90515,1050.8576)">
				
        
				<g clip-path="url(#clipPath8177)" id="g8175">
					
          
					<g id="g8181" transform="translate(147.8619,751.8898)">
						
            
						<path animation_id="2" d="m 0,0 c 0,0 -1.895,0 -1.895,-1.939 l 0,-34.882 c 0,0 0,-1.937 1.895,-1.937 l 21.787,0 c 0,0 1.895,0 1.895,1.937 l 0,34.882 c 0,0 0,1.939 -1.895,1.939 L 0,0 z" id="path8183" style="fill:#00853a;fill-opacity:1;fill-rule:nonzero;stroke:none"/>
						
          
					</g>
					
        
				</g>
				
      
			</g>
			
      
			<g id="g8185" transform="matrix(1.25,0,0,-1.25,-299.90515,1050.8576)">
				
        
				<g clip-path="url(#clipPath8189)" id="g8187">
					
          
					<g id="g8193" transform="translate(171.5302,745.2483)">
						
            
						<path animation_id="3" d="m 0,0 0.001,0.824 c -3.947,0.212 -7.974,-0.178 -11.708,-1.144 -3.703,-1.167 -7.596,-3.596 -9.306,-7.48 -1.804,-4.177 -1.044,-9.617 1.995,-12.919 4.653,-5.245 11.49,-5.342 18.042,-5.633 0.332,0.014 0.662,0.032 0.99,0.055 l 0,0.903 c -0.742,-0.042 -1.485,-0.067 -2.224,-0.084 -5.887,0.096 -12.061,2.332 -14.623,8.256 -0.095,0.584 -0.761,1.263 -0.095,1.748 l 16.942,0.176 0,0.85 -2.129,0.043 -14.624,0.097 -0.76,0.388 c -0.664,1.943 -0.19,4.177 0.475,6.022 2.469,6.119 8.927,7.771 14.814,7.965 C -1.481,0.051 -0.742,0.032 0,0" id="path8195" style="fill:#b5cbab;fill-opacity:1;fill-rule:nonzero;stroke:none"/>
						
          
					</g>
					
        
				</g>
				
      
			</g>
			
      
			<g id="g8205" transform="matrix(1.25,0,0,-1.25,-164.99377,110.99583)">
				
        
				<path animation_id="4" d="m 0,0 c 0,0 -1.938,0 -1.938,-1.938 l 0,-34.882 c 0,0 0,-1.938 1.938,-1.938 l 34.395,0 c 0,0 1.938,0 1.938,1.938 l 0,34.882 c 0,0 0,1.938 -1.938,1.938 L 0,0 z" id="path8207" style="fill:#abacae;fill-opacity:1;fill-rule:nonzero;stroke:none"/>
				
      
			</g>
			
      
			<g id="g8209" transform="matrix(1.25,0,0,-1.25,-157.82853,127.39433)">
				
        
				<path animation_id="5" d="m 0,0 c 0,1.111 -0.634,1.804 -1.816,1.804 l -1.633,0 c -0.131,0 -0.244,-0.115 -0.244,-0.249 l 0,-5.528 c 0,-0.133 0.113,-0.248 0.244,-0.248 l 0.686,0 c 0.13,0 0.243,0.115 0.243,0.248 l 0,2.16 0.713,0 C -0.765,-1.813 0,-1.102 0,0 m -1.156,0 c 0,-0.471 -0.278,-0.791 -0.738,-0.791 l -0.626,0 0,1.573 0.626,0 c 0.486,0 0.738,-0.284 0.738,-0.782 m 5.875,-3.973 0,5.528 c 0,0.134 -0.113,0.249 -0.243,0.249 l -0.687,0 c -0.13,0 -0.243,-0.115 -0.243,-0.249 l 0,-2.07 -1.503,0 0,2.07 c 0,0.134 -0.113,0.249 -0.244,0.249 l -0.686,0 C 0.983,1.804 0.87,1.689 0.87,1.555 l 0,-5.528 c 0,-0.133 0.113,-0.248 0.243,-0.248 l 0.686,0 c 0.131,0 0.244,0.115 0.244,0.248 l 0,2.444 1.503,0 0,-2.444 c 0,-0.133 0.113,-0.248 0.243,-0.248 l 0.687,0 c 0.13,0 0.243,0.115 0.243,0.248 M 10.254,-3.91 8.63,1.582 C 8.586,1.715 8.456,1.804 8.326,1.804 l -1,0 C 7.196,1.804 7.057,1.715 7.022,1.582 L 5.51,-3.91 c -0.043,-0.16 0.026,-0.311 0.2,-0.311 l 0.721,0 c 0.148,0 0.27,0.088 0.305,0.222 l 0.26,1.111 1.694,0 0.279,-1.111 c 0.034,-0.142 0.156,-0.222 0.304,-0.222 l 0.782,0 c 0.173,0 0.243,0.151 0.199,0.311 m -1.824,2.088 -1.191,0 0.452,2.08 C 7.752,0.533 7.804,0.951 7.822,1.2 7.848,0.96 7.891,0.524 7.952,0.258 l 0.478,-2.08 z m 6.704,-2.053 c -0.148,0.382 -0.565,1.475 -0.773,1.92 -0.174,0.364 -0.487,0.622 -0.791,0.711 0.721,0.16 1.156,0.675 1.156,1.457 0,0.64 -0.313,1.591 -1.825,1.591 l -1.59,0 c -0.13,0 -0.243,-0.115 -0.243,-0.24 l 0,-5.546 c 0,-0.124 0.113,-0.239 0.243,-0.239 l 0.686,0 c 0.131,0 0.244,0.115 0.244,0.239 l 0,2.338 0.226,0 c 0.816,0 1.094,-1.502 1.355,-2.293 0.078,-0.222 0.209,-0.284 0.382,-0.284 l 0.756,0 c 0.235,0 0.252,0.142 0.174,0.346 m -1.599,3.937 c 0,-0.444 -0.269,-0.817 -0.764,-0.817 l -0.53,0 0,1.528 0.617,0 c 0.486,0 0.677,-0.4 0.677,-0.711 m 7.938,-4.035 -0.46,5.528 c -0.009,0.134 -0.148,0.249 -0.278,0.249 l -0.965,0 c -0.13,0 -0.278,-0.089 -0.304,-0.222 L 18.78,-1.76 C 18.736,-1.973 18.693,-2.568 18.667,-2.871 18.641,-2.56 18.597,-2 18.554,-1.76 l -0.66,3.342 C 17.868,1.715 17.72,1.804 17.589,1.804 l -0.99,0 c -0.13,0 -0.269,-0.115 -0.278,-0.249 l -0.469,-5.528 c -0.009,-0.133 0.078,-0.248 0.208,-0.248 l 0.695,0 c 0.131,0 0.27,0.115 0.278,0.248 l 0.131,3.635 c 0.008,0.205 -0.018,1.093 -0.018,1.271 0.052,-0.338 0.131,-1.004 0.192,-1.271 l 0.642,-3.021 c 0.027,-0.134 0.174,-0.223 0.305,-0.223 l 0.729,0 c 0.131,0 0.278,0.089 0.305,0.223 l 0.677,3.021 c 0.07,0.294 0.139,0.933 0.183,1.271 0,-0.24 -0.018,-1.084 -0.009,-1.271 l 0.113,-3.635 c 0,-0.133 0.148,-0.248 0.278,-0.248 l 0.704,0 c 0.13,0 0.217,0.115 0.208,0.248 m 5.41,0.063 -1.625,5.492 c -0.043,0.133 -0.174,0.222 -0.304,0.222 l -0.999,0 c -0.131,0 -0.27,-0.089 -0.304,-0.222 L 22.139,-3.91 c -0.044,-0.16 0.026,-0.311 0.2,-0.311 l 0.721,0 c 0.148,0 0.269,0.088 0.304,0.222 l 0.261,1.111 1.694,0 0.278,-1.111 c 0.035,-0.142 0.156,-0.222 0.304,-0.222 l 0.782,0 c 0.174,0 0.243,0.151 0.2,0.311 m -1.825,2.088 -1.19,0 0.452,2.08 c 0.061,0.275 0.113,0.693 0.13,0.942 0.026,-0.24 0.07,-0.676 0.13,-0.942 l 0.478,-2.08 z m -26.865,-10.16 -0.713,0 0,-2.159 c 0,-0.133 -0.113,-0.249 -0.243,-0.249 l -0.686,0 c -0.131,0 -0.244,0.116 -0.244,0.249 l 0,5.528 c 0,0.133 0.113,0.249 0.244,0.249 l 1.633,0 c 1.182,0 1.816,-0.694 1.816,-1.805 0,-1.102 -0.765,-1.813 -1.807,-1.813 m -0.087,2.596 -0.626,0 0,-1.573 0.626,0 c 0.46,0 0.738,0.319 0.738,0.79 0,0.498 -0.252,0.783 -0.738,0.783 m 6.656,-5.004 -0.756,0 c -0.173,0 -0.304,0.062 -0.382,0.284 -0.261,0.791 -0.539,2.293 -1.355,2.293 l -0.226,0 0,-2.337 c 0,-0.124 -0.113,-0.24 -0.244,-0.24 l -0.686,0 c -0.13,0 -0.243,0.116 -0.243,0.24 l 0,5.546 c 0,0.124 0.113,0.24 0.243,0.24 l 1.59,0 c 1.512,0 1.825,-0.951 1.825,-1.591 0,-0.782 -0.435,-1.298 -1.156,-1.458 0.304,-0.089 0.617,-0.346 0.791,-0.711 0.208,-0.444 0.625,-1.537 0.773,-1.919 0.078,-0.205 0.061,-0.347 -0.174,-0.347 m -2.102,4.995 -0.617,0 0,-1.529 0.53,0 c 0.495,0 0.764,0.373 0.764,0.818 0,0.311 -0.191,0.711 -0.677,0.711 m 4.824,-4.995 -1.712,0 c -0.13,0 -0.235,0.107 -0.235,0.24 l 0,0.435 c 0,0.134 0.105,0.24 0.235,0.24 l 0.269,0 0,4.195 -0.269,0 c -0.13,0 -0.235,0.107 -0.235,0.24 l 0,0.436 c 0,0.133 0.105,0.24 0.235,0.24 l 1.712,0 c 0.13,0 0.234,-0.107 0.234,-0.24 l 0,-0.436 c 0,-0.133 -0.104,-0.24 -0.234,-0.24 l -0.27,0 0,-4.195 0.27,0 c 0.13,0 0.234,-0.106 0.234,-0.24 l 0,-0.435 c 0,-0.133 -0.104,-0.24 -0.234,-0.24 m 3.841,0.222 c -0.035,-0.133 -0.174,-0.222 -0.304,-0.222 l -0.843,0 c -0.13,0 -0.269,0.089 -0.304,0.222 l -1.573,5.493 c -0.043,0.16 0.026,0.311 0.2,0.311 l 0.773,0 c 0.165,0 0.27,-0.089 0.313,-0.258 l 0.869,-3.706 c 0.087,-0.356 0.13,-0.862 0.165,-1.378 0.044,0.516 0.096,1.013 0.183,1.378 l 0.842,3.688 c 0.044,0.187 0.139,0.276 0.322,0.276 l 0.686,0 c 0.174,0 0.244,-0.151 0.2,-0.311 l -1.529,-5.493 z m 6.072,-0.222 -0.782,0 c -0.147,0 -0.269,0.08 -0.304,0.222 l -0.278,1.111 -1.694,0 -0.261,-1.111 c -0.034,-0.133 -0.156,-0.222 -0.304,-0.222 l -0.721,0 c -0.174,0 -0.243,0.151 -0.2,0.311 l 1.512,5.492 c 0.035,0.134 0.174,0.223 0.304,0.223 l 0.999,0 c 0.131,0 0.261,-0.089 0.304,-0.223 l 1.625,-5.492 c 0.044,-0.16 -0.026,-0.311 -0.2,-0.311 m -2.102,4.479 c -0.061,0.267 -0.105,0.702 -0.131,0.942 -0.017,-0.249 -0.069,-0.666 -0.13,-0.942 l -0.452,-2.079 1.191,0 -0.478,2.079 z m 5.818,0.462 -1.13,0 0,-4.692 c 0,-0.133 -0.113,-0.249 -0.243,-0.249 l -0.687,0 c -0.13,0 -0.243,0.116 -0.243,0.249 l 0,4.692 -1.129,0 c -0.131,0 -0.244,0.116 -0.244,0.249 l 0,0.587 c 0,0.133 0.113,0.249 0.244,0.249 l 3.432,0 c 0.13,0 0.243,-0.116 0.243,-0.249 l 0,-0.587 c 0,-0.133 -0.113,-0.249 -0.243,-0.249" id="path8211" style="fill:#ffffff;fill-opacity:1;fill-rule:nonzero;stroke:none"/>
				
      
			</g>
			
      
			<g id="g8213" transform="matrix(1.25,0,0,-1.25,138.84485,127.68908)">
				
        
				<path animation_id="6" d="m 0,0 c 0,1.431 -1.139,2.596 -2.538,2.596 -1.4,0 -2.539,-1.165 -2.539,-2.596 0,-1.431 1.139,-2.596 2.539,-2.596 C -1.139,-2.596 0,-1.431 0,0 m -1.237,-4.76 -4.686,0 c -0.488,0 -0.879,-0.4 -0.879,-0.899 l 0,-1.465 c 0,-0.499 0.391,-0.899 0.879,-0.899 l 1.334,0 0,-12.05 c 0,-0.499 0.391,-0.898 0.879,-0.898 l 2.473,0 c 0.488,0 0.879,0.399 0.879,0.898 l 0,14.414 c 0,0.499 -0.391,0.899 -0.879,0.899 m -7.169,-7.89 c 0,2.597 -0.423,5.127 -1.953,6.692 -0.65,0.665 -1.855,1.431 -3.287,1.431 -1.692,0 -2.798,-0.799 -3.514,-1.698 l 0,8.023 c 0,0.499 -0.391,0.898 -0.879,0.898 l -2.473,0 c -0.488,0 -0.879,-0.399 -0.879,-0.898 l 0,-21.871 c 0,-0.499 0.391,-0.898 0.879,-0.898 l 1.692,0 c 0.488,0 0.944,0.366 1.074,0.898 l 0.26,1.199 c 0.554,-1.199 2.116,-2.33 3.71,-2.33 2.701,0 5.37,1.364 5.37,8.554 m -4.393,-0.233 c 0,-3.528 -0.912,-4.493 -2.409,-4.493 -1.334,0 -2.115,1.265 -2.115,4.493 0,3.296 0.749,4.694 2.115,4.694 1.79,0 2.409,-1.431 2.409,-4.694 m -11.651,0.067 c 0,5.027 -2.311,8.289 -6.607,8.289 -4.295,0 -6.638,-3.229 -6.638,-8.289 0,-5.226 2.245,-8.388 6.638,-8.388 4.394,0 6.607,3.362 6.607,8.388 m -4.198,0.033 c 0,-3.828 -1.172,-4.693 -2.441,-4.693 -1.237,0 -2.408,0.865 -2.408,4.693 0,3.729 1.139,4.627 2.408,4.627 1.269,0 2.441,-0.898 2.441,-4.627 m -17.43,0.133 c 0,3.03 1.171,4.394 3.254,4.394 0.716,0 1.106,-0.166 1.562,-0.299 0.618,-0.167 0.911,0.133 1.041,0.532 l 0.586,1.898 c 0.098,0.366 0,0.799 -0.586,1.032 -0.911,0.366 -1.952,0.566 -2.929,0.566 -4.848,0 -7.289,-3.595 -7.289,-8.123 0,-5.958 2.701,-8.554 6.964,-8.554 1.204,0 2.441,0.166 3.482,0.565 0.521,0.2 0.619,0.533 0.521,0.999 l -0.358,1.964 c -0.098,0.466 -0.358,0.732 -0.911,0.566 -0.619,-0.2 -1.432,-0.266 -2.018,-0.266 -2.408,0 -3.319,1.398 -3.319,4.726 m -7.671,-8.321 c 0.586,0 0.847,0.332 0.749,0.898 l -0.163,0.966 c -0.163,0.898 -0.13,1.831 -0.13,2.53 l 0,5.259 c 0,2.896 -0.195,6.791 -6.216,6.791 -1.399,0 -3.352,-0.366 -4.426,-0.732 -0.521,-0.167 -0.683,-0.5 -0.553,-1.066 l 0.456,-1.864 c 0.097,-0.466 0.488,-0.732 1.073,-0.533 0.814,0.267 2.116,0.566 3.255,0.566 1.855,0 2.18,-0.632 2.18,-2.363 l -2.636,-0.2 c -4.003,-0.299 -5.467,-2.43 -5.467,-5.293 0,-3.162 1.301,-5.192 4.296,-5.192 1.985,0 3.612,0.765 4.426,1.964 l 0.13,-0.799 c 0.097,-0.6 0.358,-0.932 0.911,-0.932 l 2.115,0 z m -3.775,5.492 c 0,-1.065 -1.041,-2.164 -2.506,-2.164 -0.553,0 -1.399,0.433 -1.399,1.631 0,2.231 1.432,2.564 3.905,2.564 l 0,-2.031 z m -11.249,1.786 0,15.161 c 0,0.602 -0.28,0.906 -0.836,0.906 l -2.76,-0.033 c -0.707,-0.004 -0.806,-0.588 -0.815,-0.845 -0.009,-0.257 0,-15.824 0,-15.824 0,-1.904 0,-3.375 -1.829,-3.375 -2.189,0 -1.993,2.44 -1.993,3.242 0,0.367 -0.284,0.467 -0.545,0.467 l -2.851,0 c -0.196,0 -0.524,-0.162 -0.524,-0.563 0,-2.807 0.882,-6.754 5.88,-6.754 5.194,0 6.273,3.508 6.273,7.618 m -15.3,0.875 c 0.463,0 0.833,0.379 0.833,0.852 l 0,1.324 c 0,0.473 -0.37,0.852 -0.833,0.852 l -4.069,0 0,4.478 c 0,0.473 -0.37,0.851 -0.833,0.851 l -1.418,0 c -0.463,0 -0.833,-0.378 -0.833,-0.851 l 0,-4.478 -4.069,0 c -0.463,0 -0.833,-0.379 -0.833,-0.852 l 0,-1.324 c 0,-0.473 0.37,-0.852 0.833,-0.852 l 4.069,0 0,-4.604 c 0,-0.473 0.37,-0.851 0.833,-0.851 l 1.418,0 c 0.463,0 0.833,0.378 0.833,0.851 l 0,4.604 4.069,0 z m -15.778,-7.92 c 0.423,0.133 0.618,0.466 0.553,0.898 l -0.391,2.098 c -0.097,0.532 -0.423,0.732 -0.943,0.599 -0.228,-0.067 -0.651,-0.1 -0.944,-0.1 -0.586,0 -0.977,0.399 -0.977,1.298 l 0,7.922 1.986,0 c 0.488,0 0.878,0.4 0.878,0.899 l 0,1.465 c 0,0.499 -0.39,0.899 -0.878,0.899 l -1.986,0 0,4.261 c 0,0.799 -0.325,1.231 -1.073,1.065 L -106.002,0 c -0.619,-0.133 -0.781,-0.699 -0.781,-1.332 l 0,-3.428 -1.66,0 c -0.488,0 -0.879,-0.4 -0.879,-0.899 l 0,-1.465 c 0,-0.499 0.391,-0.899 0.879,-0.899 l 1.66,0 0,-9.054 c 0,-2.53 1.074,-4.127 3.775,-4.127 1.139,0 2.376,0.199 3.157,0.466 m -11.413,12.216 0.683,2.397 c 0.13,0.499 0,0.965 -0.748,1.332 -0.358,0.166 -0.912,0.266 -1.66,0.266 -1.725,0 -2.799,-0.899 -3.645,-2.131 l -0.26,0.999 c -0.131,0.533 -0.586,0.899 -1.074,0.899 l -1.758,0 c -0.488,0 -0.878,-0.4 -0.878,-0.899 l 0,-14.414 c 0,-0.499 0.39,-0.898 0.878,-0.898 l 2.474,0 c 0.488,0 0.878,0.399 0.878,0.898 l 0,6.858 c 0,3.462 0.651,4.76 1.888,4.76 0.683,0 1.302,-0.766 2.245,-0.766 0.293,0 0.814,0.167 0.977,0.699 m -13.467,-5.426 c 0.488,0 0.879,0.4 0.879,0.899 0,5.426 -1.985,8.522 -6.281,8.522 -4.003,0 -6.379,-3.462 -6.379,-8.289 0,-5.692 2.669,-8.388 6.867,-8.388 2.115,0 3.482,0.266 4.947,0.932 0.39,0.166 0.683,0.499 0.52,0.998 l -0.651,1.931 c -0.13,0.433 -0.357,0.732 -0.911,0.533 -0.878,-0.333 -1.79,-0.633 -3.059,-0.633 -2.668,0 -3.124,1.365 -3.287,3.495 l 7.355,0 z m -3.352,2.763 -4.003,0 c 0.13,1.665 0.521,3.263 2.05,3.263 1.53,0 1.855,-1.532 1.953,-3.263 m -10.782,-1.465 c 0,2.597 -0.423,5.127 -1.952,6.692 -0.651,0.665 -1.855,1.431 -3.287,1.431 -1.692,0 -2.799,-0.799 -3.515,-1.698 l 0,8.023 c 0,0.499 -0.39,0.898 -0.879,0.898 l -2.473,0 c -0.488,0 -0.879,-0.399 -0.879,-0.898 l 0,-21.871 c 0,-0.499 0.391,-0.898 0.879,-0.898 l 1.692,0 c 0.489,0 0.944,0.366 1.074,0.898 l 0.261,1.199 c 0.553,-1.199 2.115,-2.33 3.71,-2.33 2.701,0 5.369,1.364 5.369,8.554 m -4.393,-0.233 c 0,-3.528 -0.911,-4.493 -2.408,-4.493 -1.335,0 -2.116,1.265 -2.116,4.493 0,3.296 0.749,4.694 2.116,4.694 1.79,0 2.408,-1.431 2.408,-4.694 m -12.585,-8.088 c 0.488,0 0.911,0.432 0.911,0.932 l 0,2.13 c 0,0.499 -0.423,0.932 -0.911,0.932 l -7.094,0 0,6.092 6.053,0 c 0.488,0 0.911,0.433 0.911,0.932 l 0,1.797 c 0,0.5 -0.423,0.933 -0.911,0.933 l -6.053,0 0,4.993 6.801,0 c 0.489,0 0.912,0.432 0.912,0.932 l 0,1.964 c 0,0.499 -0.423,0.932 -0.912,0.932 l -10.284,0 c -0.488,0 -0.911,-0.433 -0.911,-0.932 l 0,-20.705 c 0,-0.5 0.423,-0.932 0.911,-0.932 l 10.577,0 z" id="path8215" style="fill:#00853a;fill-opacity:1;fill-rule:nonzero;stroke:none"/>
				
      
			</g>
			
    
		</g>
		
  
	</g>
	

</svg>
