<?xml version="1.0" encoding="iso-8859-1"?>
<svg height="203.34462" id="svg3992" version="1.1" width="765.14874" xmlns="http://www.w3.org/2000/svg" xmlns:svg="http://www.w3.org/2000/svg">
	
  
	<defs id="defs3994"/>
	
  
	<g id="layer1" transform="translate(-5.9970536,-402.11844)">
		
    
		<path animation_id="0" d="m 5.9970536,605.46306 765.1487464,0 0,-203.34462 -765.1487464,0 0,203.34462 z" id="path84" style="fill:#231f20;fill-opacity:1;fill-rule:nonzero;stroke:none"/>
		
    
		<path animation_id="1" d="m 11.325916,600.05321 754.474754,0 0,-192.77327 -754.474754,0 0,192.77327 z" id="path86" style="fill:#ffffff;fill-opacity:1;fill-rule:nonzero;stroke:none"/>
		
    
		<path animation_id="2" d="m 31.141679,425.17536 0,157.28124 515.718751,0 0,-157.28124 -515.718751,0 z m 664.562501,0 0,157.28124 50.28125,0 0,-157.28124 -50.28125,0 z" id="path88" style="fill:#231f20;fill-opacity:1;fill-rule:nonzero;stroke:none"/>
		
    
		<path animation_id="3" d="m 456.49967,557.22256 -22.77861,0 0,-106.36139 32.80466,0 c 21.01852,0 36.74057,10.12863 37.26428,33.11781 0.21057,9.36736 -7.02957,25.54833 -22.36289,29.65701 l 26.74693,43.58657 -24.66829,0 -27.00068,-43.23023 -0.005,43.23023 z m -0.13499,-64.08684 2.67793,0 c 8.78966,0 21.1265,1.90047 21.1265,-9.66971 0,-10.79271 -11.21384,-9.28098 -21.1265,-9.28098 l -2.67793,0 0,18.95069 z m -71.86151,-18.8589 0,17.77369 35.81194,0 0,23.4157 -35.83893,0 0,18.34059 35.66076,0 0,23.4157 -57.51074,0 0,-106.36139 57.48914,0 0,23.41571 -35.61217,0 z m -59.29237,59.36801 27.79974,0 0,23.57767 -51.24244,0 0,-106.36139 23.4427,0 0,82.78372 z m -60.71237,0 27.69715,0 0,23.57767 -51.24783,0 0,-106.36139 23.55068,0 0,82.78372 z m -101.48604,0.38878 -7.59647,23.18894 -25.53753,0 40.90324,-106.36138 22.36829,0 40.06099,106.36138 -25.46195,0 -8.91384,-23.18894 -35.82273,0 z m 17.16899,-47.28498 -11.14365,26.63353 21.715,0 -10.57135,-26.63353 z m -79.12855,-12.36383 0,18.3298 35.60137,0 0,23.42109 -35.60137,0 0,41.08682 -23.631668,0 0,-106.36139 59.222238,0 0,23.52368 -35.59057,0 z" id="path146" style="fill:#fff200;fill-opacity:1;stroke:#fff200;stroke-width:0.67488194;stroke-linecap:butt;stroke-linejoin:miter;stroke-miterlimit:4;stroke-opacity:1;stroke-dasharray:none"/>
		
    
		<path animation_id="4" d="m 720.27592,447.34638 c 3.21784,-0.10258 3.96291,-1.43615 3.96291,-3.12065 0,-1.63592 -0.74507,-2.47817 -3.46619,-2.47817 l -4.10868,0 0,5.59882 3.61196,0 z m -3.61196,3.4176 0,9.45375 -3.41761,0 0,-21.88237 7.07817,0 c 4.01149,0 8.17417,1.09061 8.17417,6.04154 0,2.52136 -1.53873,4.50281 -4.45962,5.09671 l 0,0.10258 c 3.01807,0.5885 3.36901,1.92746 3.71455,4.30305 0.29694,2.07864 0.5453,4.35704 1.28497,6.33849 l -4.35164,0 c -0.24835,-1.23638 -0.59929,-2.62394 -0.73967,-3.90892 -0.25375,-1.88427 -0.25375,-3.61736 -1.24178,-4.65938 -0.84225,-0.88545 -1.98145,-0.78826 -3.16925,-0.88545 l -2.87229,0 z m 19.25843,-1.24178 c 0,-8.41713 -6.82981,-15.29552 -15.29553,-15.29552 -8.51431,0 -15.3981,6.87839 -15.3981,15.29552 0,8.51431 6.88379,15.39811 15.3981,15.39811 8.46572,0 15.29553,-6.8838 15.29553,-15.39811 z m -33.95466,0 c 0,-10.24741 8.30914,-18.56195 18.65913,-18.56195 10.296,0 18.56196,8.31454 18.56196,18.56195 0,10.34459 -8.26596,18.66454 -18.56196,18.66454 -10.34999,0 -18.65913,-8.31995 -18.65913,-18.66454" id="path150" style="fill:#ffffff;fill-opacity:1;fill-rule:nonzero;stroke:none"/>
		
    
		<path animation_id="5" d="m 557.45655,582.45769 128.06562,0 0,-157.27448 -128.06562,0 0,157.27448 z" id="path152" style="fill:#fff200;fill-opacity:1;fill-rule:nonzero;stroke:none"/>
		
    
		<path animation_id="6" d="m 557.48543,425.17536 0,19.375 128.03125,0 0,-19.375 -128.03125,0 z m 0,34.5 0,19.34375 128.03125,0 0,-19.34375 -128.03125,0 z m 0,34.5 0,19.34374 128.03125,0 0,-19.34374 -128.03125,0 z m 0,34.49999 0,19.34375 128.03125,0 0,-19.34375 -128.03125,0 z m 0,34.46875 0,19.375 128.03125,0 0,-19.375 -128.03125,0 z" id="path154" style="fill:#ed1c24;fill-opacity:1;fill-rule:nonzero;stroke:none"/>
		
  
	</g>
	

</svg>
