<?xml version="1.0" encoding="iso-8859-1"?>
<svg height="246.991" id="svg7594" version="1.1" viewBox="0 0 533.49201 246.99101" width="533.492" xmlns="http://www.w3.org/2000/svg" xmlns:cc="http://creativecommons.org/ns#" xmlns:dc="http://purl.org/dc/elements/1.1/" xmlns:rdf="http://www.w3.org/1999/02/22-rdf-syntax-ns#" xmlns:svg="http://www.w3.org/2000/svg">
	
  
	<defs id="defs7596">
		
    
		<clipPath clipPathUnits="userSpaceOnUse" id="clipPath6914">
			
      
			<path animation_id="0" d="m 0,0 70.87,0 0,32.67 L 0,32.67 0,0 Z" id="path6916"/>
			
    
		</clipPath>
		
    
		<clipPath clipPathUnits="userSpaceOnUse" id="clipPath6926">
			
      
			<path animation_id="1" d="m 0,0 70.87,0 0,32.67 L 0,32.67 0,0 Z" id="path6928"/>
			
    
		</clipPath>
		
    
		<clipPath clipPathUnits="userSpaceOnUse" id="clipPath6934">
			
      
			<path animation_id="2" d="m 0,32.666 70.866,0 L 70.866,0 0,0 0,32.666 Z" id="path6936"/>
			
    
		</clipPath>
		
  
	</defs>
	
  
	<metadata id="metadata7599">
		
    
		<rdf:RDF>
			
      
			<cc:Work rdf:about="">
				
        
				<dc:format>image/svg+xml</dc:format>
				
        
				<dc:type rdf:resource="http://purl.org/dc/dcmitype/StillImage"/>
				
        
				<dc:title/>
				
      
			</cc:Work>
			
    
		</rdf:RDF>
		
  
	</metadata>
	
  
	<g id="layer1" transform="translate(0,-805.37116)">
		
    
		<g id="g6908" transform="matrix(7.5,0,0,-7.5,0.9985,1051.3622)">
			
      
			<g id="g6910">
				
        
				<g clip-path="url(#clipPath6914)" id="g6912">
					
          
					<g id="g6918"/>
					
          
					<g id="g6920">
						
            
						<g id="g6922">
							
              
							<g clip-path="url(#clipPath6926)" id="g6924">
								
                
								<g id="g6930">
									
                  
									<g clip-path="url(#clipPath6934)" id="g6932">
										
                    
										<g id="g6938" transform="translate(70.661,7.9304)">
											
                      
											<path animation_id="3" d="m 0,0 c -12.675,-1.181 -23.396,-0.061 -35.346,0.734 -11.945,0.79 -22.56,1.616 -35.265,0.665 l 0,0.795 c 12.705,1.031 23.32,0.125 35.265,-0.67 C -23.396,0.729 -11.275,-0.19 0,0.79 L 0,0 Z" id="path6940" style="fill:#848483;fill-opacity:1;fill-rule:nonzero;stroke:none"/>
											
                    
										</g>
										
                    
										<g id="g6942" transform="translate(5.1752,2.9099)">
											
                      
											<path animation_id="4" d="M 0,0 C 0,0.325 -0.05,0.63 -0.155,0.92 -0.26,1.21 -0.41,1.471 -0.61,1.69 -0.81,1.91 -1.05,2.085 -1.335,2.215 -1.62,2.346 -1.94,2.41 -2.295,2.41 -2.65,2.41 -2.97,2.346 -3.255,2.215 -3.54,2.085 -3.78,1.91 -3.98,1.69 -4.18,1.471 -4.33,1.215 -4.435,0.92 -4.54,0.63 -4.59,0.32 -4.59,0 c 0,-0.325 0.05,-0.63 0.155,-0.92 0.105,-0.29 0.255,-0.545 0.455,-0.765 0.2,-0.22 0.44,-0.395 0.725,-0.525 0.285,-0.13 0.605,-0.195 0.96,-0.195 0.355,0 0.675,0.065 0.96,0.195 0.285,0.13 0.525,0.305 0.725,0.525 0.2,0.22 0.35,0.475 0.455,0.765 C -0.05,-0.63 0,-0.325 0,0 m 0.595,0 c 0,-0.42 -0.075,-0.81 -0.22,-1.165 -0.145,-0.355 -0.35,-0.66 -0.605,-0.92 -0.255,-0.26 -0.565,-0.46 -0.915,-0.604 -0.35,-0.146 -0.735,-0.221 -1.145,-0.221 -0.41,0 -0.795,0.075 -1.145,0.221 -0.35,0.144 -0.655,0.349 -0.915,0.604 -0.26,0.255 -0.46,0.565 -0.605,0.92 -0.145,0.355 -0.22,0.745 -0.22,1.165 0,0.42 0.075,0.811 0.22,1.165 0.145,0.356 0.35,0.66 0.605,0.92 0.255,0.261 0.565,0.46 0.915,0.605 0.35,0.145 0.735,0.22 1.145,0.22 0.41,0 0.795,-0.075 1.145,-0.22 C -0.795,2.545 -0.49,2.34 -0.23,2.085 0.03,1.83 0.23,1.521 0.375,1.165 0.52,0.811 0.595,0.425 0.595,0" id="path6944" style="fill:#848483;fill-opacity:1;fill-rule:nonzero;stroke:none"/>
											
                    
										</g>
										
                    
										<g id="g6946" transform="translate(9.7851,1.1003)">
											
                      
											<path animation_id="5" d="m 0,0 0.01,0 1.855,4.58 0.86,0 0,-5.535 -0.565,0 0,4.805 -0.015,0 -2,-4.805 -0.295,0 -2,4.805 -0.015,0 0,-4.805 -0.57,0 0,5.535 0.86,0 L 0,0 Z" id="path6948" style="fill:#848483;fill-opacity:1;fill-rule:nonzero;stroke:none"/>
											
                    
										</g>
										
                    
										<g id="g6950" transform="translate(17.9804,0.9645)">
											
                      
											<path animation_id="6" d="m 0,0 0.015,0 0,4.716 0.565,0 0,-5.535 -0.705,0 -3.22,4.759 -0.015,0 0,-4.759 -0.565,0 0,5.535 0.705,0 L 0,0 Z" id="path6952" style="fill:#848483;fill-opacity:1;fill-rule:nonzero;stroke:none"/>
											
                    
										</g>
										
                    
										<path animation_id="7" d="m 20.665,0.145 -0.565,0 0,5.535 0.565,0 0,-5.535 z" id="path6954" style="fill:#848483;fill-opacity:1;fill-rule:nonzero;stroke:none"/>
										
                    
										<g id="g6956" transform="translate(22.7802,0.6296)">
											
                      
											<path animation_id="8" d="M 0,0 1.045,0 C 1.25,0 1.44,0.021 1.625,0.061 1.81,0.101 1.97,0.16 2.11,0.25 c 0.14,0.085 0.25,0.2 0.33,0.335 0.085,0.141 0.125,0.306 0.125,0.495 0,0.365 -0.125,0.636 -0.37,0.816 -0.25,0.179 -0.6,0.269 -1.05,0.269 l -1.15,0 L -0.005,0 0,0 Z m 0,2.625 1.135,0 c 0.135,0 0.27,0.016 0.41,0.046 C 1.685,2.7 1.81,2.756 1.925,2.83 2.04,2.905 2.13,3.006 2.205,3.131 2.275,3.256 2.31,3.41 2.31,3.591 2.31,3.766 2.275,3.915 2.205,4.04 2.135,4.16 2.04,4.266 1.92,4.341 1.8,4.421 1.66,4.476 1.5,4.511 1.34,4.546 1.165,4.561 0.985,4.561 l -0.975,0 0,-1.936 -0.01,0 z m -0.565,2.426 1.65,0 C 1.295,5.051 1.505,5.03 1.72,4.985 1.935,4.94 2.125,4.865 2.295,4.761 2.465,4.655 2.6,4.511 2.71,4.325 2.815,4.146 2.87,3.915 2.87,3.636 2.87,3.346 2.78,3.091 2.605,2.875 2.425,2.66 2.19,2.516 1.89,2.45 l 0,-0.014 C 2.25,2.396 2.545,2.256 2.785,2.016 3.02,1.78 3.14,1.455 3.14,1.051 3.14,0.82 3.09,0.61 2.995,0.421 2.9,0.23 2.76,0.07 2.585,-0.064 2.41,-0.199 2.19,-0.3 1.94,-0.375 1.685,-0.449 1.4,-0.484 1.08,-0.484 l -1.64,0 0,5.535 -0.005,0 z" id="path6958" style="fill:#848483;fill-opacity:1;fill-rule:nonzero;stroke:none"/>
											
                    
										</g>
										
                    
										<g id="g6960" transform="translate(29.3056,0.0046)">
											
                      
											<path animation_id="9" d="M 0,0 C -0.415,0 -0.76,0.07 -1.025,0.216 -1.29,0.36 -1.5,0.54 -1.66,0.761 -1.815,0.98 -1.925,1.216 -1.985,1.476 c -0.06,0.259 -0.09,0.5 -0.09,0.729 l 0,3.471 0.565,0 0,-3.41 c 0,-0.226 0.025,-0.441 0.08,-0.656 0.05,-0.21 0.135,-0.4 0.255,-0.564 0.115,-0.165 0.27,-0.296 0.465,-0.4 0.195,-0.1 0.43,-0.151 0.71,-0.151 0.28,0 0.52,0.051 0.71,0.151 0.195,0.099 0.35,0.235 0.465,0.4 0.115,0.164 0.2,0.35 0.255,0.564 0.05,0.21 0.08,0.43 0.08,0.656 l 0,3.41 0.565,0 0,-3.471 C 2.075,1.976 2.045,1.73 1.985,1.476 1.925,1.216 1.815,0.98 1.66,0.761 1.505,0.54 1.29,0.36 1.025,0.216 0.75,0.07 0.41,0 0,0" id="path6962" style="fill:#848483;fill-opacity:1;fill-rule:nonzero;stroke:none"/>
											
                    
										</g>
										
                    
										<g id="g6964" transform="translate(35.5458,4.7897)">
											
                      
											<path animation_id="10" d="m 0,0 c -0.12,0.165 -0.275,0.301 -0.46,0.405 -0.19,0.1 -0.415,0.151 -0.68,0.151 -0.135,0 -0.275,-0.021 -0.415,-0.066 -0.14,-0.04 -0.27,-0.104 -0.385,-0.189 -0.115,-0.085 -0.205,-0.196 -0.275,-0.325 -0.07,-0.13 -0.105,-0.286 -0.105,-0.46 0,-0.175 0.035,-0.326 0.1,-0.441 0.065,-0.115 0.155,-0.21 0.27,-0.295 0.11,-0.08 0.24,-0.144 0.38,-0.2 0.145,-0.05 0.29,-0.104 0.45,-0.154 0.19,-0.066 0.385,-0.131 0.58,-0.205 0.195,-0.075 0.37,-0.17 0.525,-0.285 0.155,-0.116 0.285,-0.266 0.38,-0.446 0.1,-0.179 0.15,-0.41 0.15,-0.684 0,-0.276 -0.055,-0.516 -0.16,-0.716 -0.105,-0.199 -0.24,-0.364 -0.41,-0.494 -0.17,-0.131 -0.36,-0.226 -0.575,-0.29 -0.215,-0.066 -0.435,-0.096 -0.655,-0.096 -0.165,0 -0.335,0.016 -0.5,0.051 -0.165,0.034 -0.325,0.085 -0.475,0.149 -0.15,0.07 -0.29,0.155 -0.42,0.26 -0.13,0.105 -0.245,0.226 -0.345,0.36 l 0.485,0.361 c 0.12,-0.201 0.29,-0.366 0.505,-0.495 0.215,-0.135 0.47,-0.201 0.76,-0.201 0.14,0 0.285,0.02 0.43,0.066 0.145,0.045 0.28,0.109 0.395,0.204 0.115,0.091 0.215,0.205 0.29,0.335 0.075,0.136 0.115,0.29 0.115,0.466 0,0.194 -0.04,0.354 -0.115,0.479 -0.075,0.13 -0.175,0.235 -0.3,0.32 -0.125,0.085 -0.27,0.161 -0.43,0.215 -0.16,0.055 -0.33,0.116 -0.51,0.17 -0.185,0.055 -0.36,0.12 -0.54,0.196 -0.175,0.075 -0.335,0.169 -0.475,0.285 -0.14,0.114 -0.255,0.259 -0.34,0.434 -0.085,0.17 -0.13,0.385 -0.13,0.635 0,0.266 0.055,0.495 0.16,0.69 0.105,0.196 0.245,0.35 0.42,0.475 0.17,0.125 0.36,0.215 0.57,0.275 0.21,0.055 0.415,0.085 0.615,0.085 0.375,0 0.695,-0.065 0.96,-0.2 C 0.105,0.69 0.305,0.535 0.44,0.351 L 0,0 Z" id="path6966" style="fill:#848483;fill-opacity:1;fill-rule:nonzero;stroke:none"/>
											
                    
										</g>
										
                    
										<g id="g6968" transform="translate(39.0155,0.8698)">
											
                      
											<path animation_id="11" d="m 0,0 0.015,0 1.8,4.806 0.6,0 -2.12,-5.535 -0.595,0 -2.11,5.535 0.61,0 L 0,0 Z" id="path6970" style="fill:#848483;fill-opacity:1;fill-rule:nonzero;stroke:none"/>
											
                    
										</g>
										
                    
										<g id="g6972" transform="translate(42.8603,0.6452)">
											
                      
											<path animation_id="12" d="m 0,0 2.966,0 0,-0.5 -3.526,0 0,5.535 3.43,0 0,-0.5 -2.87,0 0,-1.9 2.681,0 0,-0.5 L 0,2.135 0,0 Z" id="path6974" style="fill:#848483;fill-opacity:1;fill-rule:nonzero;stroke:none"/>
											
                    
										</g>
										
                    
										<g id="g6976" transform="translate(47.5653,3.2155)">
											
                      
											<path animation_id="13" d="m 0,0 0.976,0 c 0.455,0 0.799,0.079 1.045,0.244 0.245,0.165 0.365,0.41 0.365,0.74 0,0.181 -0.035,0.335 -0.101,0.46 C 2.216,1.569 2.125,1.67 2.006,1.75 1.886,1.829 1.74,1.885 1.565,1.92 1.396,1.954 1.205,1.975 0.995,1.975 l -1,0 L -0.005,0 0,0 Z m 0,-3.07 -0.564,0 0,5.535 1.625,0 C 1.33,2.465 1.58,2.439 1.815,2.385 2.046,2.335 2.25,2.25 2.415,2.13 2.586,2.015 2.716,1.859 2.811,1.675 2.905,1.484 2.95,1.26 2.95,0.984 2.95,0.779 2.915,0.595 2.841,0.43 2.766,0.265 2.671,0.119 2.546,-0.006 2.421,-0.125 2.271,-0.226 2.101,-0.301 1.931,-0.375 1.74,-0.421 1.535,-0.44 l 1.62,-2.635 -0.689,0 -1.53,2.585 -0.941,0 0,-2.58 0.005,0 z" id="path6978" style="fill:#848483;fill-opacity:1;fill-rule:nonzero;stroke:none"/>
											
                    
										</g>
										
                    
										<g id="g6980" transform="translate(52.3554,3.195)">
											
                      
											<path animation_id="14" d="m 0,0 0.011,0 2.635,2.485 0.804,0 -2.79,-2.51 2.945,-3.025 -0.83,0 -2.764,2.946 -0.011,0 0,-2.946 -0.564,0 0,5.535 L 0,2.485 0,0 Z" id="path6982" style="fill:#848483;fill-opacity:1;fill-rule:nonzero;stroke:none"/>
											
                    
										</g>
										
                    
										<g id="g6984" transform="translate(57.3759,0.6452)">
											
                      
											<path animation_id="15" d="m 0,0 2.965,0 0,-0.5 -3.525,0 0,5.535 3.43,0 0,-0.5 -2.87,0 0,-1.9 2.68,0 0,-0.5 L 0,2.135 0,0 Z" id="path6986" style="fill:#848483;fill-opacity:1;fill-rule:nonzero;stroke:none"/>
											
                    
										</g>
										
                    
										<g id="g6988" transform="translate(61.5155,5.6804)">
											
                      
											<path animation_id="16" d="m 0,0 0.565,0 0,-2.4 3.015,0 0,2.4 0.566,0 0,-5.535 -0.566,0 0,2.62 -3.015,0 0,-2.62 L 0,-5.535 0,0 Z" id="path6990" style="fill:#848483;fill-opacity:1;fill-rule:nonzero;stroke:none"/>
											
                    
										</g>
										
                    
										<g id="g6992" transform="translate(67.7108,3.2155)">
											
                      
											<path animation_id="17" d="m 0,0 0.976,0 c 0.455,0 0.799,0.079 1.045,0.244 0.245,0.165 0.365,0.41 0.365,0.74 0,0.181 -0.035,0.335 -0.101,0.46 C 2.215,1.569 2.125,1.67 2.005,1.75 1.886,1.829 1.74,1.885 1.565,1.92 1.396,1.954 1.205,1.975 0.995,1.975 l -1,0 L -0.005,0 0,0 Z m 0,-3.07 -0.564,0 0,5.535 1.625,0 C 1.33,2.465 1.58,2.439 1.815,2.385 2.045,2.335 2.245,2.25 2.415,2.13 2.585,2.015 2.715,1.859 2.811,1.675 2.905,1.484 2.95,1.26 2.95,0.984 2.95,0.779 2.915,0.595 2.84,0.43 2.766,0.265 2.67,0.119 2.545,-0.006 2.42,-0.125 2.271,-0.226 2.101,-0.301 1.931,-0.375 1.74,-0.421 1.535,-0.44 l 1.62,-2.635 -0.69,0 -1.529,2.585 -0.941,0 0,-2.58 0.005,0 z" id="path6994" style="fill:#848483;fill-opacity:1;fill-rule:nonzero;stroke:none"/>
											
                    
										</g>
										
                    
										<g id="g6996" transform="translate(0.0351,32.4406)">
											
                      
											<path animation_id="18" d="m 0,0 5.7,0 0,-1.37 -4.125,0 0,-2.42 3.89,0 0,-1.32 -3.89,0 0,-3.715 L 0,-8.825 0,0 Z" id="path6998" style="fill:#00a0e6;fill-opacity:1;fill-rule:nonzero;stroke:none"/>
											
                    
										</g>
										
                    
										<path animation_id="19" d="m 7.24,32.441 1.57,0 0,-8.83 -1.57,0 0,8.83 z" id="path7000" style="fill:#00a0e6;fill-opacity:1;fill-rule:nonzero;stroke:none"/>
										
                    
										<g id="g7002" transform="translate(15.4652,30.5954)">
											
                      
											<path animation_id="20" d="M 0,0 C -0.165,0.215 -0.4,0.395 -0.705,0.545 -1.01,0.69 -1.315,0.765 -1.62,0.765 -1.805,0.765 -1.985,0.74 -2.17,0.695 -2.355,0.65 -2.52,0.58 -2.67,0.485 -2.82,0.39 -2.94,0.265 -3.04,0.11 c -0.095,-0.155 -0.145,-0.34 -0.145,-0.555 0,-0.2 0.04,-0.37 0.125,-0.51 0.085,-0.14 0.195,-0.26 0.345,-0.36 0.145,-0.1 0.32,-0.185 0.53,-0.26 0.21,-0.075 0.435,-0.15 0.685,-0.225 0.285,-0.09 0.575,-0.195 0.88,-0.31 0.305,-0.115 0.58,-0.27 0.835,-0.46 C 0.47,-2.76 0.675,-3 0.84,-3.295 1,-3.585 1.085,-3.95 1.085,-4.38 1.085,-4.855 1,-5.27 0.825,-5.62 0.65,-5.975 0.42,-6.265 0.125,-6.5 -0.165,-6.735 -0.505,-6.905 -0.9,-7.025 -1.29,-7.14 -1.7,-7.2 -2.135,-7.2 c -0.575,0 -1.135,0.105 -1.685,0.32 -0.55,0.21 -1,0.525 -1.345,0.94 l 1.12,1.05 c 0.215,-0.3 0.505,-0.535 0.865,-0.71 0.36,-0.175 0.715,-0.26 1.065,-0.26 0.185,0 0.37,0.025 0.56,0.07 0.19,0.045 0.365,0.125 0.52,0.23 0.155,0.11 0.28,0.245 0.375,0.405 0.095,0.16 0.145,0.365 0.145,0.605 0,0.235 -0.055,0.425 -0.16,0.58 -0.11,0.155 -0.255,0.285 -0.435,0.4 -0.185,0.11 -0.4,0.21 -0.65,0.295 -0.25,0.085 -0.51,0.17 -0.785,0.26 -0.265,0.085 -0.53,0.185 -0.8,0.3 -0.265,0.115 -0.505,0.27 -0.715,0.46 -0.21,0.19 -0.385,0.425 -0.52,0.705 -0.135,0.28 -0.2,0.625 -0.2,1.04 0,0.45 0.095,0.835 0.28,1.16 0.185,0.325 0.43,0.59 0.735,0.805 0.305,0.21 0.65,0.37 1.035,0.475 0.395,0.09 0.785,0.14 1.185,0.14 0.45,0 0.905,-0.08 1.365,-0.235 C 0.28,1.675 0.68,1.44 1.025,1.125 L 0,0 Z" id="path7004" style="fill:#00a0e6;fill-opacity:1;fill-rule:nonzero;stroke:none"/>
											
                    
										</g>
										
                    
										<g id="g7006" transform="translate(24.5854,30.3703)">
											
                      
											<path animation_id="21" d="M 0,0 C -0.235,0.315 -0.535,0.545 -0.91,0.69 -1.285,0.835 -1.65,0.91 -2.01,0.91 -2.465,0.91 -2.885,0.825 -3.255,0.66 -3.63,0.495 -3.95,0.265 -4.22,-0.025 c -0.27,-0.29 -0.48,-0.63 -0.625,-1.025 -0.145,-0.39 -0.22,-0.815 -0.22,-1.27 0,-0.48 0.07,-0.925 0.21,-1.32 0.14,-0.4 0.345,-0.74 0.605,-1.03 0.26,-0.29 0.575,-0.51 0.94,-0.665 0.365,-0.16 0.775,-0.235 1.235,-0.235 0.475,0 0.895,0.095 1.26,0.28 0.365,0.185 0.66,0.435 0.885,0.74 L 1.33,-5.435 C 0.94,-5.925 0.46,-6.305 -0.105,-6.575 -0.67,-6.845 -1.33,-6.98 -2.09,-6.98 c -0.69,0 -1.325,0.115 -1.9,0.345 -0.58,0.23 -1.075,0.55 -1.49,0.96 -0.415,0.41 -0.74,0.9 -0.975,1.47 -0.235,0.57 -0.35,1.2 -0.35,1.89 0,0.705 0.125,1.345 0.37,1.915 0.245,0.57 0.58,1.055 1.01,1.455 0.43,0.4 0.935,0.705 1.515,0.925 0.585,0.205 1.22,0.315 1.9,0.315 0.285,0 0.58,-0.025 0.885,-0.08 C -0.815,2.16 -0.52,2.08 -0.24,1.965 0.045,1.855 0.31,1.715 0.56,1.545 0.81,1.38 1.02,1.18 1.195,0.945 L 0,0 Z" id="path7008" style="fill:#00a0e6;fill-opacity:1;fill-rule:nonzero;stroke:none"/>
											
                    
										</g>
										
                    
										<g id="g7010" transform="translate(27.2655,32.4406)">
											
                      
											<path animation_id="22" d="m 0,0 1.57,0 0,-3.565 4.13,0 0,3.565 1.57,0 0,-8.83 -1.57,0 0,3.915 -4.13,0 0,-3.915 L 0,-8.83 0,0 Z" id="path7012" style="fill:#00a0e6;fill-opacity:1;fill-rule:nonzero;stroke:none"/>
											
                    
										</g>
										
                    
										<g id="g7014" transform="translate(36.3505,32.4406)">
											
                      
											<path animation_id="23" d="m 0,0 1.57,0 0,-7.435 3.755,0 0,-1.395 L 0,-8.83 0,0 Z" id="path7016" style="fill:#00a0e6;fill-opacity:1;fill-rule:nonzero;stroke:none"/>
											
                    
										</g>
										
                    
										<g id="g7018" transform="translate(43.1806,32.4406)">
											
                      
											<path animation_id="24" d="m 0,0 5.851,0 0,-1.37 -4.281,0 0,-2.245 4.055,0 0,-1.32 -4.055,0 0,-2.495 4.5,0 0,-1.395 -6.07,0 L 0,0 Z" id="path7020" style="fill:#00a0e6;fill-opacity:1;fill-rule:nonzero;stroke:none"/>
											
                    
										</g>
										
                    
										<g id="g7022" transform="translate(15.4652,19.3454)">
											
                      
											<path animation_id="25" d="M 0,0 C -0.165,0.215 -0.4,0.395 -0.705,0.54 -1.01,0.685 -1.315,0.755 -1.62,0.755 -1.805,0.755 -1.985,0.73 -2.17,0.685 -2.355,0.64 -2.52,0.57 -2.67,0.475 -2.82,0.38 -2.94,0.255 -3.04,0.105 -3.135,-0.05 -3.185,-0.23 -3.185,-0.445 c 0,-0.2 0.04,-0.37 0.125,-0.51 0.085,-0.14 0.195,-0.26 0.345,-0.36 0.145,-0.1 0.32,-0.185 0.53,-0.26 0.21,-0.075 0.435,-0.15 0.685,-0.225 0.285,-0.09 0.575,-0.195 0.88,-0.31 0.305,-0.115 0.58,-0.27 0.835,-0.46 C 0.47,-2.76 0.675,-3 0.84,-3.29 1,-3.58 1.085,-3.94 1.085,-4.37 1.085,-4.84 1,-5.255 0.825,-5.605 0.65,-5.955 0.42,-6.25 0.125,-6.48 -0.165,-6.71 -0.505,-6.885 -0.9,-7 c -0.39,-0.115 -0.8,-0.175 -1.235,-0.175 -0.575,0 -1.135,0.105 -1.685,0.315 -0.55,0.21 -1,0.525 -1.345,0.935 l 1.12,1.045 c 0.215,-0.3 0.505,-0.535 0.865,-0.71 0.36,-0.176 0.715,-0.261 1.065,-0.261 0.185,0 0.37,0.026 0.56,0.071 0.19,0.045 0.365,0.12 0.52,0.23 0.155,0.105 0.28,0.239 0.375,0.404 0.095,0.161 0.145,0.361 0.145,0.601 0,0.23 -0.055,0.425 -0.16,0.575 -0.11,0.155 -0.255,0.284 -0.435,0.395 -0.185,0.11 -0.4,0.21 -0.65,0.29 -0.25,0.085 -0.51,0.17 -0.785,0.26 -0.265,0.085 -0.53,0.18 -0.8,0.3 -0.265,0.115 -0.505,0.27 -0.715,0.46 -0.21,0.19 -0.385,0.425 -0.52,0.7 -0.135,0.275 -0.2,0.625 -0.2,1.035 0,0.445 0.095,0.83 0.28,1.155 0.185,0.325 0.43,0.59 0.735,0.8 0.305,0.21 0.65,0.37 1.035,0.47 C -2.345,2 -1.95,2.05 -1.55,2.05 -1.1,2.05 -0.645,1.97 -0.185,1.815 0.275,1.66 0.675,1.42 1.02,1.105 L 0,0 Z" id="path7024" style="fill:#006826;fill-opacity:1;fill-rule:nonzero;stroke:none"/>
											
                    
										</g>
										
                    
										<g id="g7026" transform="translate(24.5756,19.1252)">
											
                      
											<path animation_id="26" d="M 0,0 C -0.235,0.315 -0.535,0.545 -0.91,0.69 -1.285,0.835 -1.65,0.905 -2.005,0.905 -2.46,0.905 -2.88,0.82 -3.25,0.655 -3.625,0.49 -3.945,0.26 -4.215,-0.03 c -0.27,-0.29 -0.48,-0.63 -0.625,-1.02 -0.145,-0.39 -0.22,-0.81 -0.22,-1.265 0,-0.479 0.07,-0.92 0.21,-1.315 0.14,-0.395 0.345,-0.74 0.605,-1.025 0.26,-0.285 0.575,-0.505 0.94,-0.665 0.365,-0.155 0.775,-0.235 1.235,-0.235 0.475,0 0.895,0.095 1.26,0.28 0.365,0.185 0.66,0.43 0.885,0.74 l 1.26,-0.88 C 0.945,-5.905 0.465,-6.28 -0.1,-6.55 c -0.565,-0.27 -1.225,-0.405 -1.985,-0.405 -0.69,0 -1.325,0.115 -1.9,0.34 -0.58,0.23 -1.075,0.545 -1.49,0.955 -0.415,0.41 -0.74,0.9 -0.975,1.465 -0.235,0.565 -0.35,1.195 -0.35,1.88 0,0.705 0.125,1.34 0.37,1.905 0.245,0.565 0.58,1.05 1.01,1.445 0.43,0.395 0.935,0.705 1.515,0.92 0.58,0.215 1.215,0.325 1.895,0.325 0.285,0 0.58,-0.025 0.885,-0.08 C -0.82,2.145 -0.52,2.065 -0.24,1.95 0.045,1.84 0.31,1.7 0.56,1.535 0.81,1.37 1.02,1.17 1.195,0.94 L 0,0 Z" id="path7028" style="fill:#006826;fill-opacity:1;fill-rule:nonzero;stroke:none"/>
											
                    
										</g>
										
                    
										<g id="g7030" transform="translate(27.2655,21.1852)">
											
                      
											<path animation_id="27" d="m 0,0 1.57,0 0,-3.55 4.13,0 0,3.55 1.57,0 0,-8.79 -1.57,0 0,3.9 -4.13,0 0,-3.9 L 0,-8.79 0,0 Z" id="path7032" style="fill:#006826;fill-opacity:1;fill-rule:nonzero;stroke:none"/>
											
                    
										</g>
										
                    
										<g id="g7034" transform="translate(36.3505,21.1852)">
											
                      
											<path animation_id="28" d="m 0,0 1.57,0 0,-7.4 3.755,0 0,-1.39 L 0,-8.79 0,0 Z" id="path7036" style="fill:#006826;fill-opacity:1;fill-rule:nonzero;stroke:none"/>
											
                    
										</g>
										
                    
										<path animation_id="29" d="m 43.181,21.185 1.57,0 0,-8.79 -1.57,0 0,8.79 z" id="path7038" style="fill:#006826;fill-opacity:1;fill-rule:nonzero;stroke:none"/>
										
                    
										<g id="g7040" transform="translate(46.7909,21.1852)">
											
                      
											<path animation_id="30" d="m 0,0 5.85,0 0,-1.365 -4.28,0 0,-2.235 4.055,0 0,-1.315 -4.055,0 0,-2.485 4.5,0 0,-1.39 L 0,-8.79 0,0 Z" id="path7042" style="fill:#006826;fill-opacity:1;fill-rule:nonzero;stroke:none"/>
											
                    
										</g>
										
                    
										<g id="g7044" transform="translate(54.5858,21.1852)">
											
                      
											<path animation_id="31" d="m 0,0 2.085,0 4.105,-6.58 0.025,0 0,6.58 1.57,0 0,-8.79 -1.995,0 -4.19,6.79 -0.025,0 0,-6.79 -1.57,0 0,8.79 L 0,0 Z" id="path7046" style="fill:#006826;fill-opacity:1;fill-rule:nonzero;stroke:none"/>
											
                    
										</g>
										
                    
										<g id="g7048" transform="translate(63.9159,13.8102)">
											
                      
											<path animation_id="32" d="m 0,0 4.8,6.01 -4.725,0 0,1.365 6.595,0 0,-1.415 -4.825,-5.985 4.9,0 0,-1.39 L 0,-1.415 0,0 Z" id="path7050" style="fill:#006826;fill-opacity:1;fill-rule:nonzero;stroke:none"/>
											
                    
										</g>
										
                    
										<g id="g7052" transform="translate(58.5556,30.5256)">
											
                      
											<path animation_id="33" d="M 0,0 C 0,0.315 -0.104,0.58 -0.314,0.8 -0.524,1.015 -0.795,1.125 -1.13,1.125 -1.47,1.125 -1.75,1.015 -1.975,0.8 -2.199,0.585 -2.31,0.3 -2.31,-0.05 c 0,-0.14 0.026,-0.285 0.081,-0.425 0.054,-0.14 0.12,-0.28 0.205,-0.42 0.085,-0.135 0.174,-0.265 0.279,-0.38 0.105,-0.115 0.205,-0.22 0.306,-0.31 0.179,0.085 0.359,0.175 0.535,0.275 0.175,0.1 0.324,0.215 0.46,0.35 0.13,0.135 0.239,0.28 0.324,0.435 C -0.04,-0.365 0,-0.19 0,0 M -1.81,-2.815 C -2.239,-3 -2.59,-3.225 -2.845,-3.5 c -0.259,-0.275 -0.384,-0.635 -0.384,-1.085 0,-0.235 0.044,-0.445 0.134,-0.635 0.09,-0.19 0.215,-0.355 0.37,-0.485 0.156,-0.135 0.33,-0.235 0.531,-0.305 0.199,-0.07 0.404,-0.105 0.609,-0.105 0.426,0 0.78,0.095 1.075,0.28 0.29,0.185 0.555,0.465 0.8,0.83 l -2.1,2.19 z m 3.595,-2.05 2.021,-2.085 -1.635,0 -1.101,1.16 C 0.735,-6.205 0.36,-6.53 -0.06,-6.765 -0.479,-7 -0.994,-7.115 -1.614,-7.115 c -0.381,0 -0.75,0.055 -1.096,0.16 -0.35,0.11 -0.654,0.27 -0.915,0.48 -0.26,0.21 -0.47,0.475 -0.625,0.785 -0.154,0.31 -0.229,0.67 -0.229,1.08 0,0.33 0.054,0.63 0.169,0.89 0.116,0.26 0.26,0.495 0.446,0.705 0.184,0.21 0.394,0.39 0.639,0.55 0.241,0.16 0.491,0.295 0.741,0.41 -0.286,0.29 -0.526,0.6 -0.726,0.93 -0.199,0.33 -0.295,0.69 -0.295,1.09 0,0.355 0.066,0.67 0.195,0.935 0.13,0.265 0.305,0.49 0.526,0.665 0.22,0.18 0.47,0.31 0.755,0.4 0.284,0.085 0.58,0.13 0.884,0.13 0.31,0 0.6,-0.045 0.875,-0.13 C 0.006,1.88 0.245,1.745 0.455,1.57 0.665,1.395 0.83,1.18 0.955,0.92 1.08,0.66 1.141,0.365 1.141,0.02 1.141,-0.27 1.091,-0.535 0.985,-0.765 0.881,-1 0.74,-1.21 0.565,-1.4 0.391,-1.59 0.19,-1.76 -0.04,-1.91 -0.27,-2.06 -0.51,-2.195 -0.755,-2.31 l 1.761,-1.81 1.109,1.87 1.37,0 -1.7,-2.615 z" id="path7054" style="fill:#848483;fill-opacity:1;fill-rule:nonzero;stroke:none"/>
											
                    
										</g>
										
                  
									</g>
									
                
								</g>
								
              
							</g>
							
            
						</g>
						
          
					</g>
					
        
				</g>
				
      
			</g>
			
    
		</g>
		
  
	</g>
	

</svg>
