<?xml version="1.0" encoding="iso-8859-1"?>
<svg height="151.83528" id="svg2994" version="1.1" width="1010" xmlns="http://www.w3.org/2000/svg" xmlns:svg="http://www.w3.org/2000/svg">
	
  
	<defs id="defs2996"/>
	
  
	<g id="layer1" transform="translate(155,-456.44454)">
		
    
		<path animation_id="0" d="m -150,595.68824 0,-7.58645 46.60484,0 c 50.50314,0 49.11407,0.0679 54.34519,-2.58527 1.27116,-0.64404 3.71885,-2.25001 5.44007,-3.5691 l 3.12963,-2.39893 10.482,0.12772 10.48155,0.12764 -6.80188,6.8871 c -9.84682,9.97041 -16.23316,13.98599 -25.18484,15.83507 -3.16187,0.65291 -9.68578,0.74858 -51.06079,0.74858 l -47.43577,0 0,-7.58636 z m 333.33305,2.90258 0,-4.684 3.63511,-0.54065 c 9.2471,-1.37525 13.78832,-5.91925 15.31469,-15.32319 0.56339,-3.4733 0.65327,-10.33029 0.13503,-10.32982 -0.19558,10e-5 -1.42247,0.40408 -2.72654,0.89779 -6.26906,2.37356 -17.22162,2.56161 -23.11103,0.39727 -10.44313,-3.83815 -17.17736,-12.18994 -20.07118,-24.8924 -0.99709,-4.37755 -1.40509,-16.41824 -0.72809,-21.50385 2.10091,-15.78808 9.43184,-26.84737 20.88127,-31.49932 9.60419,-3.90274 26.84359,-3.2286 35.99187,1.40762 l 2.44777,1.24007 -0.007,41.59916 c -0.007,40.03225 -0.04,41.74923 -0.95665,45.57635 -2.07122,8.63981 -7.21416,15.276 -14.68759,18.95146 -4.40653,2.16718 -9.15977,3.36628 -13.3946,3.37911 l -2.72653,0.0134 0,-4.68383 z m 11.27687,-36.10968 c 1.63864,-0.26639 4.14703,-1 5.57478,-1.63198 l 2.59579,-1.1478 -0.12208,-30.67837 -0.12194,-30.67889 -1.89652,-0.66295 c -3.36213,-1.17485 -9.07665,-1.66522 -12.76137,-1.09535 -8.85849,1.37086 -14.58597,6.97015 -17.52307,17.13181 -2.66281,9.21177 -2.87356,23.15514 -0.49001,32.36048 3.23661,12.49584 12.2003,18.4383 24.74442,16.40305 z M -150,564.4117 l 0,-7.60456 72.247,0 c 80.20645,0 77.40215,0.1024 83.98525,-3.06662 4.49254,-2.16274 8.30397,-5.14588 15.83622,-12.39541 10.71158,-10.30953 15.32313,-13.38268 23.04866,-15.35859 3.4578,-0.8842 5.26135,-0.94774 26.86472,-0.94774 l 23.15786,0 0,7.56514 0,7.5653 -23.11491,0.13992 c -21.53768,0.1301 -23.26135,0.20165 -25.24953,1.04784 -3.99905,1.70266 -7.33671,4.3026 -14.83943,11.55987 -11.72235,11.33788 -17.16882,14.90979 -26.74238,17.53503 l -4.6482,1.27524 -75.27263,0.14402 -75.27263,0.14482 0,-7.60426 z m 465.6233,5.88042 c -8.98324,-1.93619 -16.51835,-8.73454 -19.45214,-17.54897 -2.18289,-6.55775 -2.32544,-8.823 -2.34273,-37.06926 l -0.02,-26.67119 6.40131,0 6.40069,0 0,28.47429 c 0,24.26501 0.11093,28.96221 0.75039,31.77366 1.42973,6.28815 5.36061,10.22132 11.3409,11.34987 7.32154,1.38132 13.99449,-1.11217 17.08261,-6.38206 2.43581,-4.15609 2.57714,-6.17031 2.58638,-36.88501 l 0.0133,-28.33075 6.40146,0 6.4006,0 -0.0141,26.43421 c -0.011,14.53886 -0.21295,27.84954 -0.46446,29.57972 -1.54323,10.66542 -6.90856,18.98574 -14.83567,23.00221 -5.5475,2.81064 -13.57634,3.71229 -20.25208,2.27328 z m 69.71986,0.18537 c -5.26006,-0.75079 -13.2951,-3.89185 -13.2951,-5.19635 0,-0.243 0.55855,-1.76887 1.24149,-3.39094 0.6835,-1.62228 1.42661,-3.43454 1.65237,-4.02774 l 0.41051,-1.07852 1.78539,1.165 c 4.66693,3.04528 13.00546,4.36149 18.39136,2.90352 3.56738,-0.96585 7.1696,-3.82813 8.90068,-7.07401 1.50743,-2.82863 1.502,-9.65058 -0.0169,-12.38155 -2.28812,-4.12906 -4.18653,-5.52745 -12.1064,-8.91544 -7.32683,-3.1341 -10.01773,-4.83275 -13.33477,-8.41596 -3.77542,-4.07737 -4.74678,-6.87081 -4.77287,-13.7257 -0.0303,-5.20261 0.06,-5.60399 1.53701,-8.74515 2.94,-6.20837 7.39583,-10.13399 13.81697,-12.17303 4.27582,-1.35774 12.08146,-1.36692 17.17163,-0.0242 4.52228,1.19656 9.41529,3.6107 9.41529,4.64565 0,0.78961 -2.26191,6.25238 -2.89321,6.98793 -0.19563,0.22869 -1.09755,-0.0426 -2.00124,-0.60201 -6.01335,-3.71516 -14.28185,-4.18604 -19.27885,-1.09741 -4.03038,2.4909 -6.2266,7.64052 -5.32611,12.48519 1.0062,5.41014 4.31097,8.54217 12.73788,12.07305 6.74666,2.82656 9.59915,4.50229 12.9635,7.61665 4.75573,4.40407 6.64162,8.84049 6.64162,15.6202 0,15.93667 -14.59742,26.06659 -33.6452,23.34658 z m 74.18725,0.0179 c -1.04064,-0.24397 -3.47749,-1.22596 -5.41268,-2.1818 -8.01543,-3.96032 -14.2957,-13.18671 -16.86827,-24.7806 -1.0473,-4.73499 -1.47087,-17.52618 -0.75147,-22.90471 2.04491,-15.39774 9.56514,-26.59806 20.56391,-30.63269 3.73024,-1.36838 11.42259,-1.84009 16.37655,-1.00412 3.63591,0.61361 9.90546,3.38573 10.36436,4.58381 0.14287,0.37284 -0.41474,2.22698 -1.24105,4.12028 l -1.50034,3.44282 -3.38583,-1.68079 c -3.23374,-1.60521 -3.61198,-1.68093 -8.39498,-1.68093 -4.41578,0 -5.32303,0.14775 -7.66133,1.24402 -5.15523,2.41773 -8.85025,7.643 -10.92094,15.44817 -1.4076,5.30246 -1.78054,18.43589 -0.71435,25.16946 1.29362,8.16378 4.40477,14.72713 8.6771,18.30361 5.02577,4.20695 12.84974,4.70394 19.65226,1.24842 l 2.72542,-1.38528 1.48993,3.88817 c 0.97069,2.54564 1.34596,4.12002 1.07324,4.55985 -0.69008,1.11063 -5.37017,3.27711 -8.75522,4.05322 -3.50615,0.80375 -12.22903,0.91139 -15.31631,0.18909 z m 314.00992,-0.68472 c -9.5884,-1.7346 -16.9791,-7.05643 -20.9402,-15.08633 -3.2194,-6.52912 -3.2602,-6.93015 -3.4709,-33.12129 l -0.1886,-23.58904 -4.4731,0 -4.4775,0 0,-4.03062 0,-4.03019 4.5073,0 4.5117,0 0,-14.22453 0,-14.22498 6.6316,0 6.6393,0 0,14.22498 0,14.22453 9.2433,0 9.2482,0 0,4.03019 0,4.03062 -9.483,0 -9.4811,0 0,23.02137 c 0,25.56379 0.1612,27.31813 2.9873,32.02492 2.6455,4.40715 6.8726,6.77409 13.2218,7.40176 l 2.6905,0.26677 0.1518,4.15052 c 0.1027,2.28349 0.1027,4.49531 -0.01,4.91601 -0.1931,0.9439 -2.1561,0.94777 -7.3147,0.0181 z m -118.9884,-0.0963 c -4.3048,-0.11432 -5.103,-0.25637 -5.3042,-0.94858 -0.1324,-0.4475 -4.0087,-13.72281 -8.6183,-29.50052 -4.5997,-15.7776 -8.5144,-28.84267 -8.6917,-29.03441 -0.1762,-0.19091 -3.5823,10.37084 -7.569,23.47105 -3.988,13.10016 -8.0987,26.53918 -9.1311,29.86391 l -1.8843,6.04571 -5.6329,0 -5.6271,0 -0.7208,-2.25226 c -0.3992,-1.2385 -1.4714,-4.91935 -2.3876,-8.17933 -3.705,-13.18013 -19.2999,-68.08203 -19.4876,-68.63429 -0.165,-0.45595 1.3442,-0.59258 6.5482,-0.59258 l 6.7605,0 1.4603,5.8085 c 8.3305,33.11749 13.6435,53.76419 13.9101,54.07199 0.1782,0.20565 4.3713,-13.13012 9.3209,-29.63493 l 9,-30.0086 5.7517,-0.13289 5.7482,-0.13278 0.4335,1.55482 c 2.7822,10.00778 16.9005,59.11083 16.9741,59.03294 0.1036,-0.0569 2.9034,-10.5592 6.3318,-23.33806 3.4288,-12.77833 6.8507,-25.47368 7.6056,-28.21228 0.7548,-2.73784 1.6046,-5.8854 1.8905,-6.99399 l 0.5183,-2.01472 5.9438,0 c 4.9381,0 5.9178,0.11548 5.7947,0.68554 -0.1012,0.37717 -5.1712,18.28515 -11.2992,39.79526 -7.9636,27.95025 -11.3457,39.15361 -11.8533,39.2624 -0.3906,0.0853 -2.9948,0.0931 -5.7851,0.0213 z m 51.8966,-0.0207 -1.0678,-0.15151 0,-39.79618 0,-39.79629 6.4016,0 6.4019,0 0,39.80063 0,39.80034 -5.3341,0.14733 c -2.936,0.0829 -5.8152,0.0812 -6.4016,-0.009 z m -465.73292,-25.5703 c 0.0109,-14.38191 0.21534,-26.91119 0.48177,-28.75715 2.13581,-14.77302 12.3137,-24.05373 28.07688,-25.60199 l 3.20051,-0.31438 0,4.91908 0,4.9198 -3.6507,0.51237 c -7.11349,0.9982 -11.49077,4.25755 -13.97228,10.4045 l -1.10629,2.74173 -0.13593,28.33064 -0.13631,28.33105 -6.38356,0 -6.38336,0 0.0134,-25.48565 z m 265.52009,-28.5686 0,-54.05362 6.16277,0 6.16302,0 0,15.4496 c 0,8.49724 0.16373,15.37817 0.36251,15.29158 0.20038,-0.0875 1.53412,-0.73845 2.96206,-1.44778 3.93631,-1.94962 7.69647,-2.74068 13.03444,-2.74068 8.56073,0 14.46973,2.30494 19.96253,7.78434 2.4779,2.47116 3.8103,4.29795 5.0468,6.91447 3.4611,7.32377 3.3838,6.48992 3.5652,38.28839 l 0.1539,28.56795 -6.1844,0 -6.1835,0 -0.031,-26.43448 c -0.017,-14.53872 -0.2099,-27.92765 -0.4533,-29.75311 -1.0123,-7.63039 -3.1259,-11.34791 -7.8186,-13.74579 -2.5808,-1.32159 -3.1577,-1.42729 -7.79867,-1.42564 -4.26433,0.003 -5.38802,0.17085 -7.5198,1.13302 -3.36282,1.51731 -5.98823,4.57737 -7.3279,8.53655 -1.04236,3.08447 -1.06031,3.56485 -1.20261,32.40982 l -0.14987,29.27963 -6.37601,0 -6.38073,0 0,-54.05425 z m 292.55583,53.69743 c 0,-0.19648 3.8552,-8.57128 8.5707,-18.61075 4.7172,-10.03963 10.5624,-22.52109 12.9933,-27.73718 2.4304,-5.21544 5.6326,-12.0436 7.1271,-15.17308 1.4853,-3.12902 3.0987,-6.59652 3.5874,-7.70457 l 0.8793,-2.01518 -16.5802,0 -16.5776,0 0,-4.03053 0,-4.03029 24.9422,0 c 19.7636,0 24.8904,0.1225 24.6952,0.59246 -0.502,1.18896 -5.2906,11.64435 -18.7352,40.8963 l -13.7279,29.87204 17.0151,0.1243 17.01907,0.12451 0,4.02434 0,4.02446 -25.60627,0 c -14.0818,0 -25.6022,-0.16072 -25.6022,-0.35683 z M -150,532.62748 l 0,-7.58422 88.71289,-0.12069 c 48.79206,-0.0685 88.89893,-0.0125 89.12616,0.13405 0.227,0.14066 -0.69991,1.12504 -2.06057,2.18788 -1.36062,1.0625 -5.06517,4.4149 -8.23243,7.44948 l -5.75893,5.51765 -80.89363,0 -80.89349,0 0,-7.58415 z M 0.07091,515.52069 c -3.2428,-2.57442 -6.53284,-4.42192 -10.1944,-5.72451 -3.00811,-1.0696 -3.62742,-1.10279 -25.84161,-1.37876 -24.98864,-0.31033 -24.94027,-0.305 -31.76421,-3.43369 -4.84722,-2.22203 -9.43393,-5.84156 -18.55891,-14.64539 -8.24651,-7.95611 -11.64642,-10.48567 -16.61832,-12.36404 -2.67569,-1.01063 -3.43537,-1.04677 -24.92639,-1.19324 L -150,476.63068 l 0,-7.59327 0,-7.59287 23.35188,0.17241 c 22.5845,0.16636 23.4697,0.20763 26.9087,1.23902 8.47289,2.54121 13.23241,5.83249 25.14066,17.38412 9.67628,9.38744 12.79436,11.51159 18.42816,12.55591 1.42859,0.26519 11.24792,0.48125 22.2856,0.49027 21.69021,0.0222 23.83874,0.21373 30.95868,2.81372 6.33022,2.31165 11.82014,6.23067 20.03739,14.30384 l 7.14187,7.01706 -10.90532,-0.0139 -10.90577,-0.0143 -2.37094,-1.88181 z M -150,500.85652 l 0,-7.58689 27.86564,0 27.86579,0 4.73235,4.7772 c 2.60319,2.62701 6.29227,6.0411 8.19863,7.58642 l 3.46591,2.80963 -36.06425,0 -36.06407,0 0,-7.58636 z m 858.42583,-25.58756 c -3.7088,-1.88672 -5.029,-6.48199 -2.9257,-10.16196 2.8685,-4.9902 10.1838,-4.73572 12.6919,0.44129 3.0988,6.4047 -3.4571,12.93125 -9.7662,9.72067 z" id="path2995" style="fill:#000000"/>
		
  
	</g>
	

</svg>
