<?xml version="1.0" encoding="iso-8859-1"?>
<!-- Created with Inkscape (http://www.inkscape.org/) -->
<svg height="273.331" version="1.0" width="894.189" xmlns="http://www.w3.org/2000/svg" xmlns:cc="http://creativecommons.org/ns#" xmlns:dc="http://purl.org/dc/elements/1.1/" xmlns:rdf="http://www.w3.org/1999/02/22-rdf-syntax-ns#">
	

 
	<metadata>
		

  
		<rdf:RDF>
			

   
			<cc:Work rdf:about="">
				

    
				<dc:format>image/svg+xml</dc:format>
				

    
				<dc:type rdf:resource="http://purl.org/dc/dcmitype/StillImage"/>
				

    
				<dc:title/>
				

   
			</cc:Work>
			

  
		</rdf:RDF>
		

 
	</metadata>
	

 
	<path animation_id="0" d="m12.3997,10.8774,0.872872,251.83,110.855,0,0-88.3705,47.135,0.25541,0,88.1151,111.728,0,0-251.83-111.728,0,0,90.1583-47.135,0.25541,0-90.4137-111.728,0" fill="#ec008b" fill-rule="nonzero"/>
	

 
	<path animation_id="1" d="M350.188,52.5c-15.712,0-27.032,9.7189-27.032,23,0,11.7487,4.349,17.6083,19.188,25.781,15.711,8.429,19.217,10.739,31.437,18.657,8.729-6.641,12.211-8.929,21.813-13.782,6.11-3.575,11.35-5.874,13.968-7.406,4.365-2.5541,7.851-5.3726,10.469-8.4375,2.619-4.0865,4.375-9.449,4.375-14.8125,0-13.5365-10.473-23-25.312-23-9.602,0-14.838,2.8258-25.313,12.5312-8.728-9.9608-13.992-12.5312-23.593-12.5312zm-32.282,73.312v136.907h110.844v-136.907h-110.844z" fill="#00acef" fill-rule="nonzero"/>
	

 
	<path animation_id="2" d="m653.087,10.622,89.0329,0c102.126,0.255406,139.659,22.2203,139.659,81.4745,0,48.5272-41.0249,81.2191-102.126,81.2191h-13.9659v89.1367l-112.6,0.25541v-252.086zm111.728,58.9988c-8.72872-7.91759-13.9659-10.4716-22.6947-10.4716-13.0931,0-23.5675,9.19462-23.5675,21.1987,0,12.5149,4.36435,16.8568,27.059,28.8609,6.1101,3.32027,9.60158,5.10812,10.4744,5.61893,1.74575,1.27703,5.23723,3.57568,8.72872,6.38515,8.72871-6.38515,11.3473-8.17299,29.6776-17.3676,13.0931-7.15137,17.4574-12.7703,17.4574-22.7311,0-12.5149-10.4744-21.9649-23.5675-21.9649-7.85584,0-11.3473,1.78784-23.5675,10.4716" fill="#542790" fill-rule="nonzero"/>
	

 
	<path animation_id="3" d="m458.437,10.622,89.0329,0c101.253,0.255406,139.659,22.2203,139.659,81.4745,0,48.5272-41.8978,81.2191-102.126,81.2191h-14.8388v89.1367l-111.728,0.25541v-252.086zm110.855,59.765c-7.85584-8.93921-13.0931-11.4933-21.8218-11.4933-13.0931,0-24.4404,9.70543-24.4404,20.9433,0,9.45002,4.36435,16.8568,13.9659,21.9649l20.076,11.2379,12.2202,8.17299c11.3473-8.68381,16.5846-11.4933,26.1861-16.0906,16.5846-7.66218,20.9489-13.0257,20.9489-24.7744,0-12.2595-10.4744-21.7095-24.4404-21.7095-7.85585,0-13.9659,3.06487-22.6947,11.7487" fill="#f25c19" fill-rule="nonzero"/>
	


</svg>
