<?xml version="1.0" encoding="iso-8859-1"?>
<!-- Created with Inkscape (http://www.inkscape.org/) -->
<svg height="289.13385" id="svg15818" version="1.1" width="715.74799" xmlns="http://www.w3.org/2000/svg" xmlns:cc="http://creativecommons.org/ns#" xmlns:dc="http://purl.org/dc/elements/1.1/" xmlns:rdf="http://www.w3.org/1999/02/22-rdf-syntax-ns#" xmlns:svg="http://www.w3.org/2000/svg">
	
  
	<defs id="defs15820"/>
	
  
	<metadata id="metadata15823">
		
    
		<rdf:RDF>
			
      
			<cc:Work rdf:about="">
				
        
				<dc:format>image/svg+xml</dc:format>
				
        
				<dc:type rdf:resource="http://purl.org/dc/dcmitype/StillImage"/>
				
        
				<dc:title/>
				
      
			</cc:Work>
			
    
		</rdf:RDF>
		
  
	</metadata>
	
  
	<g id="layer1" transform="translate(-19.638666,-426.18737)">
		
    
		<g id="g15893" transform="matrix(7.1112654,0,0,7.1112654,-2373.3117,-3319.3669)">
			
      
			<path animation_id="0" d="m 336.99961,548.01283 99.65332,0 0,10.4004 -93.59375,0" id="path14499" style="fill:#00abee;fill-opacity:1;fill-rule:nonzero;stroke:none"/>
			
      
			<path animation_id="1" d="m 343.76718,533.86733 5.26368,0.0293 0,-6.65039 6.75292,0 0,19.0332 -6.74316,0 0,-7.26563 -5.29785,-0.0244 0,7.29004 -6.74316,0 0,-19.05273 6.76757,0 0,6.64062 z m 21.02052,-6.6211 -0.01,13.56446 5.06835,0 0.01,-13.56446 6.71386,0 0,16.29883 c 0,2.63672 -2.11914,2.73438 -2.11914,2.73438 l -14.62402,-0.01 c 0,0 -2.03125,-0.0879 -2.02149,-2.74414 l 0.0146,-16.2793 6.96777,0 z m 50.09277,5.19532 -8.13965,0.0439 c -1.39649,0.93261 0,1.83593 0,1.83593 l 8.00781,0 0,4.73145 -8.20312,0 c -1.26465,1.04492 0,1.95312 0,1.95312 l 8.33496,0 0,5.27344 -13.69629,0 c 0,0 -1.78711,-0.21484 -1.78711,-2.62695 l -0.01,-13.30078 c 0,-3.03711 2.19238,-3.10547 2.19238,-3.10547 l 13.30078,0 0,5.19531 z m -24.41406,6.57226 0,1.72852 -4.90235,-0.0244 0,-1.72852 4.90235,0.0244 z m 0.0635,-6.75781 0,1.82129 -4.89746,-0.0293 0.005,-1.75781 4.89257,-0.0342 z m 4.70215,-5.01465 c 0,0 2.24609,0.0732 2.38281,3.0957 l -0.005,4.35547 c 0,2.23633 -1.78711,2.14844 -1.78711,2.14844 2.71485,-0.0146 1.72852,6.7041 1.72852,6.7041 -0.1709,2.6416 -2.25586,2.73438 -2.25586,2.73438 l -16.6748,0 0,-19.02344 16.61133,-0.0146 z m 33.41309,7.06055 -4.96094,0 0,-1.68946 4.96094,0 0,1.68946 z m 4.29687,-7.04102 c 1.32813,0.4541 2.58789,1.70899 2.64648,3.20801 0.044,3.84766 0.63477,8.75488 -2.17773,8.75976 l -1.65527,0.0195 4.89746,7.02149 -8.14454,0 -4.82421,-6.17188 -0.13184,0 0,6.16211 -6.55274,0.01 0,-19.05273" id="path14501" style="fill:#211e1e;fill-opacity:1;fill-rule:evenodd;stroke:none"/>
			
      
			<path animation_id="2" d="m 363.98691,549.95131 0,1.09375 -2.29491,0 0,5.05371 -1.61622,0 0,-5.05371 -2.30957,0 0,-1.09375" id="path14503" style="fill:#ffffff;fill-opacity:1;fill-rule:evenodd;stroke:none"/>
			
      
			<path animation_id="3" d="m 370.6129,551.04506 -4.06739,0 0,1.29883 3.73046,0 0,1.06934 -3.73046,0 0,1.58203 4.25781,0 0,1.10351 -5.83007,0 0,-6.14746 5.63965,0" id="path14505" style="fill:#ffffff;fill-opacity:1;fill-rule:evenodd;stroke:none"/>
			
      
			<path animation_id="4" d="m 372.79551,550.60073 c 0.625,-0.50782 1.42577,-0.76661 2.3877,-0.76661 1.28906,0 2.23144,0.3418 2.83691,1.02051 0.33203,0.38086 0.50781,0.7666 0.53223,1.14258 l -1.61133,0 c -0.0976,-0.29297 -0.2295,-0.5127 -0.39551,-0.66406 -0.28809,-0.26367 -0.72754,-0.39551 -1.29883,-0.39551 -0.58593,0 -1.04492,0.18555 -1.38183,0.56641 -0.33692,0.37109 -0.50782,0.90332 -0.50782,1.59179 0,0.68848 0.18067,1.21094 0.53223,1.55274 0.36132,0.34179 0.81055,0.50781 1.36719,0.50781 0.56152,0 0.98632,-0.14649 1.2793,-0.43945 0.16601,-0.15625 0.30761,-0.39551 0.40527,-0.71289 l 1.59179,0 c -0.1416,0.66406 -0.48828,1.21582 -1.06934,1.63085 -0.5664,0.41993 -1.28906,0.63477 -2.19726,0.63477 -1.09375,0 -1.96289,-0.28809 -2.59765,-0.85449 -0.63478,-0.56641 -0.95215,-1.34766 -0.95215,-2.33887 0,-1.07422 0.36132,-1.89453 1.0791,-2.47558" id="path14507" style="fill:#ffffff;fill-opacity:1;fill-rule:evenodd;stroke:none"/>
			
      
			<path animation_id="5" d="m 379.75352,556.09877 0,-6.14746 1.58691,0 0,2.34375 2.99804,0 0,-2.34375 1.60645,0 0,6.14746 -1.60645,0 0,-2.73926 -2.99804,0 0,2.73926" id="path14509" style="fill:#ffffff;fill-opacity:1;fill-rule:evenodd;stroke:none"/>
			
      
			<path animation_id="6" d="m 387.45371,549.95131 1.67481,0 3.0664,4.29199 0,-4.29199 1.48926,0 0,6.14746 -1.60156,0 -3.14454,-4.36523 0,4.36523 -1.48437,0" id="path14511" style="fill:#ffffff;fill-opacity:1;fill-rule:evenodd;stroke:none"/>
			
      
			<path animation_id="7" d="m 400.8961,555.54701 c -0.58107,0.47852 -1.41602,0.72266 -2.51465,0.72266 -1.10352,0 -1.93848,-0.24414 -2.51954,-0.72266 -0.78125,-0.58593 -1.17188,-1.42578 -1.17188,-2.52929 0,-1.12305 0.39063,-1.96778 1.17188,-2.53418 0.58106,-0.47364 1.41602,-0.71289 2.51954,-0.71289 1.09863,0 1.93358,0.23925 2.51465,0.71289 0.77148,0.5664 1.16211,1.41113 1.16211,2.53418 0,1.10351 -0.39063,1.94336 -1.16211,2.52929 z m -1.00587,-0.93261 c 0.37598,-0.3711 0.56642,-0.90332 0.56642,-1.59668 0,-0.69336 -0.19044,-1.22071 -0.56642,-1.5918 -0.37108,-0.38086 -0.8789,-0.57129 -1.50878,-0.57129 -0.63477,0 -1.14258,0.19043 -1.52344,0.56152 -0.38086,0.3711 -0.57618,0.90821 -0.57618,1.60157 0,0.69336 0.19532,1.22558 0.57618,1.59668 0.38086,0.38086 0.88379,0.56152 1.52344,0.56152 0.62988,0 1.1377,-0.18066 1.50878,-0.56152" id="path14513" style="fill:#ffffff;fill-opacity:1;fill-rule:evenodd;stroke:none"/>
			
      
			<path animation_id="8" d="m 403.0836,549.95131 1.60643,0 0,5.04395 3.8086,0 0,1.10351 -5.41503,0" id="path14515" style="fill:#ffffff;fill-opacity:1;fill-rule:evenodd;stroke:none"/>
			
      
			<path animation_id="9" d="m 415.52012,555.54701 c -0.57617,0.47852 -1.4209,0.72266 -2.51465,0.72266 -1.10351,0 -1.93847,-0.24414 -2.51465,-0.72266 -0.78125,-0.58593 -1.17187,-1.42578 -1.17187,-2.52929 0,-1.12305 0.39062,-1.96778 1.17187,-2.53418 0.57618,-0.47364 1.41114,-0.71289 2.51465,-0.71289 1.09375,0 1.93848,0.23925 2.51465,0.71289 0.77636,0.5664 1.16699,1.41113 1.16699,2.53418 0,1.10351 -0.39063,1.94336 -1.16699,2.52929 z m -1.00586,-0.93261 c 0.38086,-0.3711 0.5664,-0.90332 0.5664,-1.59668 0,-0.69336 -0.18554,-1.22071 -0.5664,-1.5918 -0.36621,-0.38086 -0.87891,-0.57129 -1.50879,-0.57129 -0.63965,0 -1.1377,0.19043 -1.52344,0.56152 -0.38575,0.3711 -0.57128,0.90821 -0.57128,1.60157 0,0.69336 0.18553,1.22558 0.57128,1.59668 0.38574,0.38086 0.88379,0.56152 1.52344,0.56152 0.62988,0 1.14258,-0.18066 1.50879,-0.56152" id="path14517" style="fill:#ffffff;fill-opacity:1;fill-rule:evenodd;stroke:none"/>
			
      
			<path animation_id="10" d="m 423.07871,551.87026 c -0.122,-0.41504 -0.41504,-0.70801 -0.89355,-0.87891 -0.26856,-0.0928 -0.55176,-0.13672 -0.88379,-0.13672 -0.61524,0 -1.12305,0.19043 -1.52344,0.56152 -0.4004,0.3711 -0.59571,0.9375 -0.59571,1.68458 0,0.75683 0.21485,1.28906 0.64454,1.60644 0.43945,0.3125 0.91796,0.46875 1.47461,0.46875 0.5371,0 0.97656,-0.12695 1.31835,-0.37109 0.34669,-0.24903 0.55665,-0.57618 0.63965,-0.98145 l -1.78222,0 0,-1.02051 3.20312,0 0,3.29102 -1.05956,0 -0.16603,-0.76172 c -0.30761,0.29297 -0.58593,0.49316 -0.83496,0.61523 -0.41991,0.20508 -0.94726,0.3125 -1.5625,0.3125 -1.01562,0 -1.85057,-0.2832 -2.49511,-0.84472 -0.68359,-0.56641 -1.02539,-1.34278 -1.02539,-2.32422 0,-0.99609 0.3418,-1.79688 1.03028,-2.39258 0.68847,-0.60058 1.58691,-0.90332 2.71483,-0.90332 0.97657,0 1.75782,0.2002 2.3584,0.5957 0.59083,0.40039 0.92774,0.88868 1.01074,1.4795" id="path14519" style="fill:#ffffff;fill-opacity:1;fill-rule:evenodd;stroke:none"/>
			
      
			<path animation_id="11" d="m 430.59825,549.95131 1.8164,0 -2.56837,3.83301 0,2.31445 -1.60643,0 0,-2.31445 -2.66114,-3.83301 1.89454,0 1.60156,2.68067" id="path14521" style="fill:#ffffff;fill-opacity:1;fill-rule:evenodd;stroke:none"/>
			
      
			<path animation_id="12" d="m 359.6461,566.75795 1.24511,0 0.73242,-3.49121 0.75684,3.49121 1.2207,0 0.97656,-4.58984 -1.02538,0 -0.70802,3.34472 -0.708,-3.34472 -1.0254,0 -0.708,3.34472 -0.70801,-3.34472 -1.02539,0 0.97657,4.58984 z m 0,0" id="path14523" style="fill:#211e1e;fill-opacity:1;fill-rule:nonzero;stroke:none"/>
			
      
			<path animation_id="13" d="m 367.77597,566.75795 1.07423,0 -1.53809,-4.58984 -1.26953,0 -1.53808,4.58984 1.07421,0 0.26856,-0.83008 1.66015,0 0.26855,0.83008 z m -1.09862,-3.51562 0.56152,1.83105 -1.12305,0 0.56153,-1.83105 z m 0,0" id="path14525" style="fill:#211e1e;fill-opacity:1;fill-rule:nonzero;stroke:none"/>
			
      
			<path animation_id="14" d="m 371.53086,562.14369 c -0.24414,-0.0488 -0.48828,-0.0488 -0.70801,-0.0488 -0.51269,0 -0.8789,0.12208 -1.14745,0.36622 -0.26857,0.24414 -0.39063,0.58593 -0.39063,1.0498 0,0.36621 0.0733,0.65918 0.26855,0.85449 0.19531,0.21973 0.5127,0.39063 0.90333,0.48828 l 0.41503,0.0977 c 0.26855,0.0488 0.43945,0.12208 0.51269,0.19531 0.0733,0.0977 0.12213,0.19532 0.12213,0.3418 0,0.1709 -0.0489,0.29297 -0.19532,0.36621 -0.12212,0.0977 -0.29297,0.14649 -0.5127,0.14649 -0.24413,0 -0.46386,-0.0488 -0.708,-0.12208 -0.26856,-0.0732 -0.5127,-0.19531 -0.78125,-0.36621 l 0,1.00098 c 0.26855,0.12207 0.5371,0.19531 0.80567,0.24414 0.24413,0.0732 0.51268,0.0977 0.78125,0.0977 0.56152,0 0.97656,-0.14649 1.24511,-0.39063 0.26856,-0.24414 0.39062,-0.61035 0.39062,-1.12304 0,-0.39063 -0.0976,-0.6836 -0.29296,-0.87891 -0.19531,-0.21973 -0.5127,-0.36621 -0.97656,-0.48828 l -0.46388,-0.0977 c -0.21972,-0.0488 -0.36621,-0.0976 -0.43945,-0.1709 -0.0733,-0.0732 -0.12212,-0.1709 -0.12212,-0.29297 0,-0.14648 0.0732,-0.26855 0.1709,-0.34179 0.14649,-0.0977 0.31739,-0.12208 0.58594,-0.12208 0.19531,0 0.39062,0.0244 0.61035,0.0732 0.21973,0.0732 0.43946,0.14648 0.65918,0.26855 l 0,-0.97656 c -0.26856,-0.0732 -0.5127,-0.14648 -0.73242,-0.1709 z m 0,0" id="path14527" style="fill:#211e1e;fill-opacity:1;fill-rule:nonzero;stroke:none"/>
			
      
			<path animation_id="15" d="m 372.98106,563.07143 1.36719,0 0,3.68652 1.07421,0 0,-3.68652 1.36719,0 0,-0.90332 -3.80859,0 0,0.90332 z m 0,0" id="path14529" style="fill:#211e1e;fill-opacity:1;fill-rule:nonzero;stroke:none"/>
			
      
			<path animation_id="16" d="m 377.34628,566.75795 2.95412,0 0,-0.90332 -1.87989,0 0,-1.0498 1.70899,0 0,-0.87891 -1.70899,0 0,-0.85449 1.80664,0 0,-0.90332 -2.88087,0 0,4.58984 z m 0,0" id="path14531" style="fill:#211e1e;fill-opacity:1;fill-rule:nonzero;stroke:none"/>
			
      
			<path animation_id="17" d="m 383.83066,566.75795 1.24512,0 0.73243,-3.49121 0.75682,3.49121 1.22072,0 0.97656,-4.58984 -1.0254,0 -0.708,3.34472 -0.70801,-3.34472 -1.02539,0 -0.70801,3.34472 -0.708,-3.34472 -1.0254,0 0.97656,4.58984 z m 0,0" id="path14533" style="fill:#00abee;fill-opacity:1;fill-rule:nonzero;stroke:none"/>
			
      
			<path animation_id="18" d="m 391.96055,566.75795 1.07422,0 -1.53809,-4.58984 -1.26953,0 -1.53809,4.58984 1.07422,0 0.26855,-0.83008 1.66017,0 0.26855,0.83008 z m -1.09864,-3.51562 0.56152,1.83105 -1.12303,0 0.56151,-1.83105 z m 0,0" id="path14535" style="fill:#00abee;fill-opacity:1;fill-rule:nonzero;stroke:none"/>
			
      
			<path animation_id="19" d="m 392.59531,563.07143 1.36719,0 0,3.68652 1.07422,0 0,-3.68652 1.36719,0 0,-0.90332 -3.8086,0 0,0.90332 z m 0,0" id="path14537" style="fill:#00abee;fill-opacity:1;fill-rule:nonzero;stroke:none"/>
			
      
			<path animation_id="20" d="m 396.95566,566.75795 2.95411,0 0,-0.90332 -1.87989,0 0,-1.0498 1.70899,0 0,-0.87891 -1.70899,0 0,-0.85449 1.80664,0 0,-0.90332 -2.88086,0 0,4.58984 z m 0,0" id="path14539" style="fill:#00abee;fill-opacity:1;fill-rule:nonzero;stroke:none"/>
			
      
			<path animation_id="21" d="m 401.90196,564.19448 0,-1.17188 0.46386,0 c 0.21973,0 0.36621,0.0488 0.46386,0.12208 0.0976,0.0977 0.14649,0.24414 0.14649,0.46386 0,0.21973 -0.0489,0.36621 -0.14649,0.46387 -0.0976,0.0732 -0.24413,0.12207 -0.46386,0.12207 l -0.46386,0 z m 0.29296,0.83007 c 0.1709,0 0.31739,0.0488 0.41504,0.12208 0.12212,0.0732 0.21972,0.24414 0.31739,0.46386 l 0.51268,1.14747 1.12305,0 -0.56152,-1.29395 c -0.122,-0.26855 -0.24414,-0.46387 -0.36621,-0.61035 -0.0976,-0.12208 -0.24414,-0.19531 -0.39063,-0.24414 0.26856,-0.0977 0.46388,-0.24414 0.61036,-0.43945 0.122,-0.19532 0.19532,-0.43946 0.19532,-0.73243 0,-0.43945 -0.12213,-0.75683 -0.39063,-0.97656 -0.24415,-0.19531 -0.65919,-0.29297 -1.1963,-0.29297 l -1.63574,0 0,4.58985 1.07423,0 0,-1.7334 0.29296,0 z m 0,0" id="path14541" style="fill:#00abee;fill-opacity:1;fill-rule:nonzero;stroke:none"/>
			
      
			<path animation_id="22" d="m 408.89902,562.14369 c -0.19531,-0.0488 -0.39062,-0.0488 -0.58594,-0.0488 -0.46386,0 -0.80566,0.0977 -1.07421,0.3418 -0.24415,0.24414 -0.39062,0.53711 -0.39062,0.95215 0,0.3418 0.0976,0.63477 0.29296,0.83008 0.19531,0.19531 0.48829,0.3418 0.90332,0.43945 l 0.3418,0.0732 c 0.29297,0.0488 0.48828,0.14649 0.61035,0.26856 0.122,0.12207 0.19532,0.31738 0.19532,0.53711 0,0.26855 -0.0976,0.46386 -0.26857,0.58593 -0.1709,0.14649 -0.41503,0.21973 -0.73241,0.21973 -0.21974,0 -0.43946,-0.0488 -0.65919,-0.0977 -0.19531,-0.0977 -0.43945,-0.19531 -0.65917,-0.3418 l 0,0.65918 c 0.24414,0.0977 0.46386,0.1709 0.68359,0.21973 0.21972,0.0488 0.43946,0.0732 0.63477,0.0732 0.51269,0 0.90331,-0.12208 1.17188,-0.36621 0.26855,-0.21973 0.39062,-0.56153 0.39062,-1.00098 0,-0.36621 -0.0976,-0.65918 -0.29297,-0.87891 -0.19532,-0.24414 -0.48828,-0.39062 -0.90333,-0.48828 l -0.34179,-0.0732 c -0.31738,-0.0488 -0.5127,-0.14648 -0.63477,-0.24414 -0.0976,-0.0977 -0.17089,-0.26855 -0.17089,-0.46386 0,-0.24415 0.0976,-0.41504 0.26855,-0.56153 0.14649,-0.12207 0.39063,-0.19531 0.68359,-0.19531 0.1709,0 0.36621,0.0244 0.56152,0.0977 0.1709,0.0488 0.39063,0.12207 0.58594,0.24414 l 0,-0.61035 c -0.19531,-0.0732 -0.41504,-0.14649 -0.61035,-0.1709 z m 0,0" id="path14543" style="fill:#211e1e;fill-opacity:1;fill-rule:nonzero;stroke:none"/>
			
      
			<path animation_id="23" d="m 412.47812,564.0724 c 0.14649,0.24415 0.21973,0.56153 0.21973,0.97657 0,0.39062 -0.0733,0.73242 -0.21973,0.95215 -0.1709,0.24414 -0.39062,0.36621 -0.65917,0.36621 -0.26855,0 -0.48829,-0.12208 -0.63477,-0.3418 -0.1709,-0.24414 -0.24415,-0.58594 -0.24415,-0.97656 0,-0.41504 0.0733,-0.75684 0.24415,-0.97657 0.14648,-0.24414 0.36622,-0.36621 0.63477,-0.36621 0.26855,0 0.48827,0.12208 0.65917,0.36621 z m -1.70897,-0.36621 c -0.24415,0.31739 -0.36622,0.75684 -0.36622,1.34278 0,0.56152 0.122,1.00097 0.36622,1.31836 0.26855,0.31738 0.61035,0.48828 1.0498,0.48828 0.43945,0 0.78125,-0.1709 1.0498,-0.48828 0.24415,-0.31739 0.39062,-0.75684 0.39062,-1.31836 0,-0.58594 -0.14647,-1.02539 -0.39062,-1.34278 -0.26855,-0.31738 -0.61035,-0.46386 -1.0498,-0.46386 -0.43945,0 -0.78125,0.14648 -1.0498,0.46386 z m 0,0" id="path14545" style="fill:#211e1e;fill-opacity:1;fill-rule:nonzero;stroke:none"/>
			
      
			<path animation_id="24" d="m 414.08946,566.75795 0.51269,0 0,-4.78515 -0.51269,0 0,4.78515 z m 0,0" id="path14547" style="fill:#211e1e;fill-opacity:1;fill-rule:nonzero;stroke:none"/>
			
      
			<path animation_id="25" d="m 415.88633,566.46498 c 0.19532,0.24414 0.46387,0.39063 0.80567,0.39063 0.21972,0 0.41503,-0.0488 0.58593,-0.1709 0.14648,-0.0977 0.29297,-0.24414 0.41504,-0.46387 l 0,0.53711 0.51269,0 0,-3.44238 -0.51269,0 0,1.95312 c 0,0.3418 -0.0733,0.61036 -0.24414,0.80567 -0.14648,0.19531 -0.36621,0.26855 -0.63477,0.26855 -0.21973,0 -0.41504,-0.0732 -0.51269,-0.24414 -0.12212,-0.14648 -0.1709,-0.39062 -0.1709,-0.73242 l 0,-2.05078 -0.5127,0 0,2.07519 c 0,0.48829 0.0976,0.83008 0.26856,1.07422 z m 0,0" id="path14549" style="fill:#211e1e;fill-opacity:1;fill-rule:nonzero;stroke:none"/>
			
      
			<path animation_id="26" d="m 419.26523,562.33901 0,0.97656 -0.39062,0 0,0.43945 0.39062,0 0,1.87988 c 0,0.41504 0.0733,0.70801 0.21973,0.87891 0.14649,0.1709 0.41504,0.24414 0.80566,0.24414 l 0.53711,0 0,-0.46387 -0.53711,0 c -0.19531,0 -0.34179,-0.0488 -0.41504,-0.12207 -0.0733,-0.0977 -0.0976,-0.26856 -0.0976,-0.53711 l 0,-1.87988 1.0498,0 0,-0.43946 -1.0498,0 0,-0.97656 -0.5127,0 z m 0,0" id="path14551" style="fill:#211e1e;fill-opacity:1;fill-rule:nonzero;stroke:none"/>
			
      
			<path animation_id="27" d="m 421.4918,566.75795 0.5127,0 0,-3.44238 -0.5127,0 0,3.44238 z m 0,-4.07715 0.5127,0 0,-0.708 -0.5127,0 0,0.708 z m 0,0" id="path14553" style="fill:#211e1e;fill-opacity:1;fill-rule:nonzero;stroke:none"/>
			
      
			<path animation_id="28" d="m 424.92441,564.0724 c 0.14649,0.24415 0.21974,0.56153 0.21974,0.97657 0,0.39062 -0.0733,0.73242 -0.21974,0.95215 -0.17089,0.24414 -0.39063,0.36621 -0.65918,0.36621 -0.26855,0 -0.48827,-0.12208 -0.63476,-0.3418 -0.1709,-0.24414 -0.24414,-0.58594 -0.24414,-0.97656 0,-0.41504 0.0733,-0.75684 0.24414,-0.97657 0.14649,-0.24414 0.36621,-0.36621 0.63476,-0.36621 0.26855,0 0.48829,0.12208 0.65918,0.36621 z m -1.70898,-0.36621 c -0.24415,0.31739 -0.36621,0.75684 -0.36621,1.34278 0,0.56152 0.122,1.00097 0.36621,1.31836 0.26855,0.31738 0.61035,0.48828 1.0498,0.48828 0.43945,0 0.78125,-0.1709 1.0498,-0.48828 0.24415,-0.31739 0.39063,-0.75684 0.39063,-1.31836 0,-0.58594 -0.14648,-1.02539 -0.39063,-1.34278 -0.26855,-0.31738 -0.61035,-0.46386 -1.0498,-0.46386 -0.43945,0 -0.78125,0.14648 -1.0498,0.46386 z m 0,0" id="path14555" style="fill:#211e1e;fill-opacity:1;fill-rule:nonzero;stroke:none"/>
			
      
			<path animation_id="29" d="m 428.83555,563.58412 c -0.1709,-0.24414 -0.43945,-0.34179 -0.80567,-0.34179 -0.19531,0 -0.39062,0.0488 -0.56152,0.14648 -0.1709,0.0976 -0.31739,0.24414 -0.43945,0.46387 l 0,-0.53711 -0.5127,0 0,3.44238 0.5127,0 0,-1.95312 c 0,-0.3418 0.0976,-0.58594 0.24414,-0.78125 0.1709,-0.19532 0.36621,-0.29297 0.65917,-0.29297 0.21974,0 0.39063,0.0732 0.5127,0.24414 0.0976,0.14648 0.1709,0.39062 0.1709,0.73242 l 0,2.05078 0.5127,0 0,-2.07519 c 0,-0.48828 -0.0976,-0.83008 -0.29297,-1.09864 z m 0,0" id="path14557" style="fill:#211e1e;fill-opacity:1;fill-rule:nonzero;stroke:none"/>
			
      
			<path animation_id="30" d="m 431.64805,563.26674 c -0.1709,-0.0244 -0.3418,-0.0244 -0.53712,-0.0244 -0.36621,0 -0.65917,0.0732 -0.8789,0.24414 -0.19531,0.19531 -0.31738,0.43945 -0.31738,0.75684 0,0.26855 0.0733,0.48828 0.21972,0.63476 0.14649,0.14649 0.36621,0.26856 0.6836,0.3418 l 0.1709,0.0488 c 0.31738,0.0732 0.5371,0.14648 0.63476,0.21973 0.0733,0.0977 0.12213,0.19531 0.12213,0.36621 0,0.17089 -0.0489,0.29297 -0.19531,0.39062 -0.12213,0.0732 -0.31739,0.12208 -0.53712,0.12208 -0.19531,0 -0.36621,-0.0244 -0.56152,-0.0732 -0.1709,-0.0488 -0.36621,-0.14649 -0.53711,-0.24414 l 0,0.58593 c 0.19531,0.0732 0.39062,0.12208 0.56152,0.14649 0.1709,0.0488 0.3418,0.0732 0.5127,0.0732 0.41504,0 0.708,-0.0977 0.95215,-0.29297 0.21973,-0.1709 0.34179,-0.43945 0.34179,-0.75684 0,-0.29297 -0.0733,-0.48828 -0.24414,-0.65918 -0.14649,-0.14648 -0.39062,-0.26855 -0.75684,-0.36621 l -0.1709,-0.0488 c -0.29296,-0.0488 -0.46386,-0.12207 -0.56152,-0.19531 -0.0976,-0.0732 -0.122,-0.19531 -0.122,-0.31738 0,-0.1709 0.0489,-0.29297 0.1709,-0.39063 0.14647,-0.0732 0.31737,-0.12207 0.58594,-0.12207 0.14647,0 0.31737,0.0244 0.48827,0.0488 0.14649,0.0488 0.29298,0.12207 0.43945,0.19531 l 0,-0.53711 c -0.14647,-0.0732 -0.29296,-0.0977 -0.46386,-0.14648 z m 0,0" id="path14559" style="fill:#211e1e;fill-opacity:1;fill-rule:nonzero;stroke:none"/>
			
    
		</g>
		
  
	</g>
	

</svg>
