<?xml version="1.0" encoding="iso-8859-1"?>
<!-- Created with Inkscape (http://www.inkscape.org/) -->
<svg height="398.97638" id="svg33077" version="1.0" width="1133.8583" xmlns="http://www.w3.org/2000/svg" xmlns:svg="http://www.w3.org/2000/svg">
	
  
	<defs id="defs33079">
		
    
		<clipPath id="clipPath12703">
			
      
			<path animation_id="0" d="M 0,0 L 920.519,0 L 920.519,284.074 L 0,284.074 L 0,0 z" id="path12705"/>
			
    
		</clipPath>
		
    
		<clipPath id="clipPath12695">
			
      
			<path animation_id="1" d="M 0,0 L 920.519,0 L 920.519,284.074 L 0,284.074 L 0,0 z" id="path12697"/>
			
    
		</clipPath>
		
    
		<clipPath id="clipPath12687">
			
      
			<path animation_id="2" d="M -205.843,150.377 L -205.843,159.911 L -174.951,159.911 L -174.951,150.377 L -205.843,150.377 z" id="path12689"/>
			
    
		</clipPath>
		
    
		<clipPath id="clipPath12679">
			
      
			<path animation_id="3" d="M 0,0 L 595.276,0 L 595.276,841.89 L 0,841.89 L 0,0 z" id="path12681"/>
			
    
		</clipPath>
		
    
		<clipPath id="clipPath12739">
			
      
			<path animation_id="4" d="M 0,0 L 920.519,0 L 920.519,284.074 L 0,284.074 L 0,0 z" id="path12741"/>
			
    
		</clipPath>
		
    
		<clipPath id="clipPath12731">
			
      
			<path animation_id="5" d="M 0,0 L 920.519,0 L 920.519,284.074 L 0,284.074 L 0,0 z" id="path12733"/>
			
    
		</clipPath>
		
    
		<clipPath id="clipPath12723">
			
      
			<path animation_id="6" d="M -205.843,150.377 L -205.843,159.911 L -174.951,159.911 L -174.951,150.377 L -205.843,150.377 z" id="path12725"/>
			
    
		</clipPath>
		
    
		<clipPath id="clipPath12715">
			
      
			<path animation_id="7" d="M 0,0 L 595.276,0 L 595.276,841.89 L 0,841.89 L 0,0 z" id="path12717"/>
			
    
		</clipPath>
		
  
	</defs>
	
  
	<g id="layer1" transform="translate(90.733677,-318.86064)">
		
    
		<g id="g33121" transform="translate(35.43307,35.473155)">
			
      
			<g id="g12675" transform="matrix(34.415325,0,0,-34.415325,-14800.44,7698.255)">
				
        
				<g clip-path="url(#clipPath12679)" id="g12677">
					
          
					<g id="g12683" transform="matrix(1,0,0,-1,633.25984,364.79933)">
						
            
						<g clip-path="url(#clipPath12687)" id="g12685">
							
              
							<g id="g12691" transform="matrix(3.35541e-2,0,0,3.35541e-2,-205.84251,150.37724)">
								
                
								<g clip-path="url(#clipPath12695)" id="g12693">
									
                  
									<g id="g12699">
										
                    
										<g clip-path="url(#clipPath12703)" id="g12701">
											
                      
											<g id="g12707" transform="translate(53.177808,1.00045e-2)">
												
                        
												<path animation_id="8" d="M 0,0 C 23.135,0 42.003,18.869 42.003,42.004 C 42.003,65.14 23.135,84.008 0,84.008 C -23.136,84.008 -42.004,65.14 -42.004,42.004 C -42.004,18.869 -23.136,0 0,0 C 0,0 0,0 0,0 z" id="path12709" style="fill:#36488b;fill-opacity:1;fill-rule:evenodd;stroke:none"/>
												
                      
											</g>
											
                    
										</g>
										
                  
									</g>
									
                
								</g>
								
              
							</g>
							
            
						</g>
						
          
					</g>
					
        
				</g>
				
      
			</g>
			
      
			<g id="g12711" transform="matrix(34.415325,0,0,-34.415325,-14800.44,7698.255)">
				
        
				<g clip-path="url(#clipPath12715)" id="g12713">
					
          
					<g id="g12719" transform="matrix(1,0,0,-1,633.25984,364.79933)">
						
            
						<g clip-path="url(#clipPath12723)" id="g12721">
							
              
							<g id="g12727" transform="matrix(3.35541e-2,0,0,3.35541e-2,-205.84251,150.37724)">
								
                
								<g clip-path="url(#clipPath12731)" id="g12729">
									
                  
									<g id="g12735">
										
                    
										<g clip-path="url(#clipPath12739)" id="g12737">
											
                      
											<g id="g12743" transform="translate(201.39563,188.91542)">
												
                        
												<path animation_id="9" d="M 0,0 C 0,0 56.725,0.005 56.725,0.005 C 56.725,0.005 28.316,-35.117 28.316,-35.117 C 28.316,-35.117 0,0 0,0 C 0,0 0,0 0,0 z M 252.125,-56.537 C 252.125,-56.537 252.125,-19.404 252.125,-19.404 C 252.125,-19.404 252.177,-19.404 252.177,-19.404 C 252.177,-19.404 252.177,-19.389 252.177,-19.389 C 252.177,-19.389 344.042,-19.389 344.042,-19.389 C 344.042,-19.389 344.042,-19.393 344.042,-19.393 C 344.138,-19.392 344.234,-19.389 344.331,-19.389 C 354.565,-19.389 362.912,-27.735 362.912,-37.97 C 362.912,-48.204 354.566,-56.537 344.332,-56.537 C 313.597,-56.537 282.86,-56.537 252.125,-56.537 C 252.125,-56.537 252.125,-56.537 252.125,-56.537 z M 420.771,-0.924 C 420.771,-1.686 420.783,-2.444 420.808,-3.202 C 420.808,-3.203 420.808,-3.203 420.808,-3.203 C 420.809,-3.245 420.81,-3.286 420.812,-3.328 C 421.078,-12.892 423.211,-22.1 426.924,-30.73 C 430.721,-41.241 436.797,-50.212 444.667,-57.808 C 467.397,-81.884 515.923,-98.007 569.395,-98.844 C 569.387,-98.849 569.38,-98.853 569.373,-98.857 C 569.62,-98.857 569.867,-98.855 570.114,-98.854 C 570.249,-98.856 570.384,-98.857 570.519,-98.859 C 570.519,-98.859 574.191,-98.817 574.191,-98.817 C 574.194,-98.817 574.197,-98.816 574.2,-98.816 C 579.716,-98.726 585.154,-98.482 590.502,-98.095 C 598.795,-97.605 606.935,-96.628 614.836,-95.208 C 614.836,-95.208 614.834,-95.236 614.834,-95.236 C 641.275,-91.198 660.589,-83.462 674.621,-74.733 C 674.626,-74.725 674.632,-74.717 674.637,-74.708 C 674.637,-74.708 674.635,-74.718 674.635,-74.718 C 699.672,-59.266 706.228,-43.487 708.272,-33.89 C 706.384,-33.893 683.048,-33.89 683.051,-33.89 C 683.051,-33.89 677.06,-33.886 677.06,-33.886 C 675.188,-38.625 664.995,-61.843 616.218,-67.57 C 616.223,-67.57 616.227,-67.57 616.23,-67.57 C 615.772,-67.614 615.317,-67.655 614.863,-67.693 C 613.382,-67.83 611.883,-67.95 610.364,-68.051 C 610.015,-68.073 609.667,-68.087 609.318,-68.105 C 604.309,-68.428 599.254,-68.524 594.362,-68.376 C 588.887,-68.21 583.037,-67.536 577.963,-66.884 C 577.963,-66.884 577.963,-66.886 577.963,-66.886 C 577.519,-66.833 577.075,-66.778 576.633,-66.722 C 576.587,-66.716 576.542,-66.71 576.497,-66.705 C 573.17,-66.276 569.899,-65.748 566.695,-65.124 C 566.684,-65.122 566.672,-65.12 566.66,-65.117 C 564.261,-64.649 561.898,-64.128 559.576,-63.556 C 559.547,-63.549 559.518,-63.541 559.488,-63.534 C 558.742,-63.35 557.999,-63.16 557.262,-62.965 C 557.23,-62.957 557.198,-62.949 557.166,-62.94 C 556.422,-62.743 555.684,-62.541 554.948,-62.333 C 554.917,-62.324 554.886,-62.314 554.855,-62.306 C 554.112,-62.095 553.374,-61.88 552.64,-61.659 C 552.636,-61.658 552.632,-61.657 552.628,-61.656 C 551.878,-61.43 551.134,-61.198 550.395,-60.961 C 550.392,-60.96 550.39,-60.959 550.388,-60.959 C 549.668,-60.728 548.953,-60.492 548.243,-60.251 C 548.207,-60.239 548.17,-60.227 548.133,-60.214 C 546.717,-59.732 545.321,-59.23 543.945,-58.709 C 543.893,-58.689 543.841,-58.669 543.788,-58.65 C 542.42,-58.129 541.072,-57.589 539.746,-57.03 C 539.691,-57.007 539.638,-56.984 539.583,-56.961 C 538.055,-56.315 536.555,-55.646 535.086,-54.951 C 535.086,-54.951 535.086,-54.944 535.086,-54.944 C 510.859,-43.475 494.938,-25.503 494.112,-5.259 C 494.105,-4.951 494.102,-4.643 494.102,-4.334 C 494.102,-4.276 494.104,-4.219 494.104,-4.162 C 494.104,-4.099 494.102,-4.034 494.102,-3.971 C 494.102,5.013 497.078,13.576 502.441,21.356 C 502.515,21.464 502.588,21.57 502.662,21.678 C 502.699,21.73 502.735,21.783 502.772,21.835 C 509.721,31.82 520.509,40.476 533.922,47.017 C 533.922,47.017 533.922,47.022 533.922,47.022 C 534.08,47.1 534.24,47.176 534.4,47.253 C 534.424,47.265 534.448,47.275 534.473,47.287 C 535.09,47.584 535.712,47.876 536.341,48.164 C 536.38,48.182 536.419,48.2 536.458,48.218 C 537.045,48.485 537.637,48.75 538.232,49.01 C 538.311,49.044 538.39,49.078 538.468,49.112 C 539.084,49.38 539.704,49.643 540.329,49.901 C 540.38,49.922 540.433,49.943 540.484,49.965 C 541.083,50.211 541.686,50.453 542.294,50.691 C 542.374,50.724 542.455,50.755 542.535,50.786 C 543.16,51.03 543.79,51.271 544.424,51.506 C 544.5,51.534 544.576,51.562 544.652,51.59 C 545.271,51.818 545.893,52.042 546.52,52.263 C 546.576,52.282 546.633,52.303 546.69,52.323 C 547.352,52.554 548.018,52.78 548.688,53.002 C 548.76,53.025 548.832,53.049 548.903,53.072 C 549.542,53.282 550.185,53.488 550.83,53.689 C 550.903,53.713 550.976,53.735 551.049,53.758 C 551.709,53.962 552.373,54.161 553.04,54.356 C 553.119,54.38 553.198,54.403 553.277,54.426 C 553.938,54.618 554.602,54.806 555.269,54.988 C 555.354,55.012 555.439,55.035 555.524,55.058 C 556.199,55.241 556.878,55.42 557.561,55.594 C 557.626,55.61 557.691,55.627 557.758,55.644 C 558.478,55.826 559.202,56.004 559.932,56.177 C 559.945,56.18 559.959,56.183 559.974,56.187 C 560.703,56.358 561.438,56.525 562.176,56.687 C 562.228,56.698 562.279,56.709 562.331,56.721 C 563.073,56.882 563.819,57.039 564.57,57.189 C 564.6,57.195 564.63,57.201 564.659,57.207 C 565.399,57.355 566.144,57.498 566.893,57.636 C 566.935,57.644 566.977,57.651 567.019,57.659 C 567.775,57.797 568.536,57.931 569.3,58.058 C 569.345,58.065 569.39,58.072 569.435,58.079 C 569.982,58.17 570.533,58.257 571.085,58.342 C 571.087,58.342 571.089,58.343 571.091,58.343 C 571.111,58.347 571.133,58.35 571.153,58.353 C 571.155,58.353 571.157,58.354 571.158,58.354 C 571.159,58.354 571.16,58.354 571.161,58.354 C 571.295,58.376 571.429,58.398 571.563,58.421 C 571.608,58.428 571.655,58.436 571.701,58.442 C 572.473,58.566 573.248,58.686 574.026,58.799 C 574.065,58.804 574.104,58.81 574.143,58.815 C 574.929,58.929 575.718,59.036 576.51,59.139 C 576.587,59.148 576.664,59.158 576.741,59.168 C 577.521,59.268 578.304,59.361 579.09,59.45 C 579.113,59.452 579.139,59.455 579.162,59.458 C 579.978,59.549 580.796,59.634 581.618,59.713 C 581.667,59.718 581.717,59.723 581.766,59.727 C 582.573,59.805 583.385,59.876 584.198,59.94 C 584.226,59.943 584.253,59.945 584.279,59.947 C 585.104,60.013 585.931,60.072 586.76,60.125 C 586.82,60.129 586.881,60.133 586.941,60.137 C 587.752,60.188 588.566,60.233 589.383,60.272 C 589.416,60.273 589.448,60.275 589.48,60.277 C 590.3,60.316 591.122,60.349 591.947,60.375 C 592.037,60.378 592.127,60.381 592.217,60.384 C 593.029,60.409 593.843,60.429 594.659,60.442 C 594.678,60.442 594.696,60.443 594.715,60.443 C 594.719,60.444 594.724,60.443 594.728,60.443 C 594.754,60.444 594.778,60.444 594.804,60.444 C 594.806,60.444 594.809,60.444 594.811,60.444 C 594.824,60.444 594.838,60.444 594.852,60.444 C 595.658,60.457 596.467,60.464 597.277,60.464 C 597.291,60.464 597.305,60.464 597.318,60.464 C 597.332,60.465 597.346,60.465 597.359,60.465 C 597.362,60.465 597.364,60.465 597.366,60.465 C 597.369,60.465 597.371,60.465 597.373,60.465 C 597.373,60.465 597.373,60.465 597.373,60.465 C 597.375,60.465 597.378,60.465 597.38,60.465 C 597.382,60.465 597.384,60.465 597.387,60.465 C 597.399,60.465 597.414,60.464 597.428,60.464 C 597.441,60.464 597.455,60.464 597.469,60.464 C 598.28,60.464 599.105,60.521 599.912,60.51 C 599.944,60.51 599.978,60.51 600.01,60.51 C 600.026,60.523 600.044,60.54 600.061,60.555 C 601.185,60.554 602.228,60.563 603.315,60.531 C 624.172,61.011 644.345,57.53 664.898,54.939 C 664.898,54.939 675.545,53.158 675.545,53.158 C 675.546,46.582 675.547,41.444 675.547,37.141 C 675.547,37.135 675.547,37.127 675.547,37.121 C 675.547,37.12 675.547,37.119 675.547,37.117 C 675.547,37.116 675.547,37.114 675.547,37.113 C 675.547,37.112 675.547,37.111 675.547,37.11 C 675.547,37.11 675.547,37.019 675.547,37.019 C 675.547,37.019 675.547,37.019 675.547,37.019 C 675.547,36.998 675.547,36.977 675.547,36.955 C 675.547,36.955 675.547,36.847 675.547,36.847 C 675.547,36.847 675.545,36.847 675.545,36.847 C 675.451,26.081 666.513,17.265 655.728,17.25 C 655.728,17.25 655.728,17.248 655.728,17.248 C 655.728,17.248 655.158,17.248 655.158,17.248 C 655.158,17.248 655.158,17.248 655.158,17.248 C 649.371,17.248 653.975,17.249 653.865,17.251 C 653.865,17.251 651.144,17.251 651.144,17.251 C 651.144,17.251 651.144,0.01 651.144,0.01 C 651.144,0.01 706.703,0.021 706.703,0.021 C 706.703,0.021 706.703,0.021 706.703,0.021 C 713.542,0.05 719.112,5.637 719.112,12.483 C 719.112,12.518 719.111,12.552 719.11,12.586 C 719.11,12.586 719.112,12.586 719.112,12.586 C 719.112,12.586 719.123,81.412 719.123,81.412 C 710.587,82.42 593.794,107.4 508.975,87.489 C 492.549,84.404 477.47,78.484 464.602,70.413 C 453.756,63.934 444.511,55.906 437.457,46.046 C 435.554,43.56 433.796,40.996 432.191,38.361 C 432.193,38.518 432.197,38.673 432.197,38.831 C 432.197,63.316 405.133,88.487 371.949,88.487 C 314.251,88.487 256.55,88.485 198.851,88.486 C 198.851,88.486 198.856,88.493 198.856,88.493 C 198.856,88.493 127.763,88.488 127.763,88.488 C 127.763,88.488 86.838,37.616 86.838,37.616 C 86.838,37.616 -30.396,37.629 -30.396,37.629 C -30.396,37.629 -71.505,88.488 -71.505,88.488 C -71.505,88.488 -123.61,88.488 -123.61,88.488 C -123.61,88.488 -123.609,88.487 -123.609,88.487 C -123.609,88.487 -177.03,88.487 -177.03,88.487 C -177.03,88.487 -177.019,-52.746 -177.019,-52.746 C -177.015,-52.924 -177.017,-49.046 -177.017,-55.068 C -177.017,-55.074 -177.017,-55.079 -177.017,-55.084 C -177.017,-55.087 -177.018,-55.09 -177.018,-55.093 C -177.031,-66.011 -185.939,-74.911 -196.859,-74.911 C -197.083,-74.911 -197.305,-74.906 -197.526,-74.898 C -197.604,-74.903 -197.682,-74.907 -197.757,-74.907 C -203.742,-74.907 -198.756,-74.906 -198.815,-74.905 C -198.815,-74.905 -198.815,-74.906 -198.815,-74.906 C -198.815,-74.906 -199.56,-74.906 -199.56,-74.906 C -199.56,-74.906 -200.188,-74.906 -200.188,-74.906 C -200.188,-74.906 -201.396,-74.906 -201.396,-74.906 C -201.396,-74.906 -201.396,-92.062 -201.396,-92.062 C -201.396,-92.062 -177.019,-92.062 -177.019,-92.062 C -177.019,-92.062 -123.041,-92.063 -123.041,-92.063 C -123.041,-92.063 -123.041,-92.059 -123.041,-92.059 C -113.773,-92.059 -106.214,-84.5 -106.214,-75.231 C -106.214,-75.156 -106.216,-75.08 -106.217,-75.004 C -106.217,-75.004 -106.215,-75.004 -106.215,-75.004 C -106.215,-75.004 -106.214,66.919 -106.214,66.919 C -106.214,66.919 -14.312,-47.034 -14.312,-47.034 C -14.312,-47.034 -14.313,-47.035 -14.313,-47.035 C -11.728,-49.995 -10.16,-53.861 -10.16,-58.083 C -10.16,-67.352 -17.719,-74.911 -26.987,-74.911 C -27.071,-74.911 -27.154,-74.91 -27.238,-74.908 C -27.238,-74.908 -30.136,-74.908 -30.136,-74.908 C -30.136,-74.908 -33.741,-74.908 -33.741,-74.908 C -33.741,-74.908 -33.741,-92.062 -33.741,-92.062 C -33.741,-92.062 45.302,-92.063 45.302,-92.063 C 45.325,-92.063 45.348,-92.063 45.371,-92.063 C 45.394,-92.063 45.416,-92.063 45.439,-92.063 C 45.439,-92.063 45.525,-92.063 45.525,-92.063 C 45.525,-92.063 45.525,-92.062 45.525,-92.062 C 50.777,-92.014 55.466,-89.541 58.523,-85.71 C 58.523,-85.71 58.524,-85.711 58.524,-85.711 C 58.524,-85.711 181.322,66.727 181.322,66.727 C 181.322,66.727 181.322,-52.746 181.322,-52.746 C 181.323,-52.761 181.324,-52.773 181.324,-52.788 C 181.324,-52.788 181.323,-52.788 181.323,-52.788 C 181.323,-52.788 181.318,-55.084 181.318,-55.084 C 181.316,-55.085 181.315,-55.087 181.313,-55.088 C 181.303,-66.008 172.394,-74.911 161.472,-74.911 C 161.472,-74.911 161.472,-74.911 161.472,-74.911 C 161.472,-74.911 156.975,-74.908 156.975,-74.908 C 156.975,-74.908 156.975,-92.062 156.975,-92.062 C 156.975,-92.062 181.322,-92.062 181.322,-92.062 C 181.322,-92.062 181.629,-92.062 181.629,-92.062 C 181.629,-92.062 252.125,-92.062 252.125,-92.062 C 252.125,-92.062 254.089,-92.062 254.089,-92.062 C 286.56,-92.012 319.033,-92.009 351.501,-92.009 C 384.684,-92.009 411.748,-70.353 411.748,-43.8 C 411.748,-29.644 404.055,-16.88 391.844,-8.047 C 404.009,-4.52 414.407,1.372 421.602,9.641 C 421.079,6.174 420.802,2.649 420.784,-0.924 C 420.784,-0.924 420.771,-0.924 420.771,-0.924 C 420.771,-0.924 420.771,-0.924 420.771,-0.924 z M 252.125,53.068 C 252.125,53.068 252.177,53.068 252.177,53.068 C 252.177,53.068 252.177,53.204 252.177,53.204 C 252.177,53.204 344.342,53.195 344.342,53.195 C 344.342,53.195 344.342,53.195 344.342,53.195 C 354.582,53.18 362.93,44.845 362.93,34.626 C 362.93,24.404 354.577,16.066 344.332,16.056 C 344.332,16.056 344.332,16.056 344.332,16.056 C 344.332,16.056 318.434,16.056 318.434,16.056 C 318.434,16.056 252.125,16.056 252.125,16.056 C 252.125,16.056 252.125,53.068 252.125,53.068 C 252.125,53.068 252.125,53.068 252.125,53.068 z" id="path12745" style="fill:#36488b;fill-opacity:1;fill-rule:evenodd;stroke:none"/>
												
                      
											</g>
											
                    
										</g>
										
                  
									</g>
									
                
								</g>
								
              
							</g>
							
            
						</g>
						
          
					</g>
					
        
				</g>
				
      
			</g>
			
    
		</g>
		
  
	</g>
	

</svg>
