<?xml version="1.0" encoding="iso-8859-1"?>
<!-- Generator: Adobe Illustrator 16.0.0, SVG Export Plug-In . SVG Version: 6.00 Build 0)  -->
<!DOCTYPE svg
  PUBLIC '-//W3C//DTD SVG 1.1//EN'
  'http://www.w3.org/Graphics/SVG/1.1/DTD/svg11.dtd'>
<svg enable-background="new 0 0 177.17 34.02" height="34.02px" id="Ebene_1" version="1.1" viewBox="0 0 177.17 34.02" width="177.17px" x="0px" xml:space="preserve" xmlns="http://www.w3.org/2000/svg" xmlns:xlink="http://www.w3.org/1999/xlink" y="0px">
	

	<g>
		
	
		<g>
			
		
			<defs>
				
			
				<rect animation_id="5" height="28.806" id="SVGID_1_" width="177.114" x="0.038" y="0.167"/>
				
		
			</defs>
			
		
			<clipPath id="SVGID_2_">
				
			
				<use overflow="visible" xlink:href="#SVGID_1_"/>
				
		
			</clipPath>
			
		
			<path animation_id="0" clip-path="url(#SVGID_2_)" d="M32.454,2.18h-6.405v16.291h6.405v-6.908l4.211,6.908h7.648l-6.143-8.659L43.79,2.18h-7.294    l-3.993,6.395L32.454,2.18z M162.853,18.467h6.409v-5.81h7.65v-3.92h-7.65V6.098h7.891v-3.92h-14.3V18.467z M146.905,18.469h6.405    v-5.812h7.652v-3.92h-7.652V6.098h7.891v-3.92h-14.296V18.469z M133.592,10.325c0-1.518,0.189-4.507,2.557-4.507    c2.438,0,2.606,2.989,2.632,4.507c-0.025,1.749-0.1,4.504-2.632,4.504C133.854,14.829,133.592,12.074,133.592,10.325     M145.474,10.322c0-5.46-3.491-8.425-9.329-8.425c-5.83,0-9.248,2.965-9.248,8.428c0.002,5.555,3.418,8.425,9.252,8.425    S145.474,15.88,145.474,10.322 M118.842,7.802h-4.281V2.18h-6.409v16.289h6.409v-5.858h4.281v5.858h6.407V2.178l-6.407,0.001    V7.802z M99.359,7.802H95.08V2.18h-6.409v16.289h6.409v-5.858h4.279v5.858h6.411L105.767,2.18h-6.407V7.802z M87.026,13.778    c-1.172,0.397-2.297,0.631-3.466,0.631c-2.653,0-4.568-1.424-4.568-4.225c0-2.66,2.058-4.085,4.783-4.085    c1.076,0,2.151,0.279,3.204,0.607V2.412c-1.721-0.304-2.773-0.513-4.543-0.513c-5.355,0-9.994,2.731-9.994,8.193    c0,5.811,4.447,8.658,9.995,8.658c1.625,0,3.396-0.328,4.592-0.654L87.026,13.778z M60.493,5.82h1.769    c1.291,0,2.511,0.208,2.511,1.68c0,1.657-1.292,1.798-2.606,1.798h-1.674V5.82z M54.372,18.469h6.408v-5.529h1.434    c0.789,0,1.437,0.093,1.818,0.839c0.524,0.981,0.597,3.527,0.886,4.69h6.67c-0.67-1.585-0.599-4.106-1.579-5.833    c-0.597-0.861-1.434-1.518-2.821-1.75c2.393-0.606,3.992-1.866,3.992-4.366c0-3.128-2.462-4.34-6.455-4.34H54.372V18.469z     M45.769,2.18v16.291l6.41-0.002L52.176,2.18H45.769z"/>
			
		
			<path animation_id="1" clip-path="url(#SVGID_2_)" d="M0.122,10.646C0.12,4.859,4.813,0.167,10.6,0.167    c5.789,0.002,10.483,4.696,10.484,10.483c0,5.789-4.69,10.481-10.479,10.479C4.817,21.127,0.123,16.437,0.122,10.646" fill="#FFFFFF"/>
			
		
			<path animation_id="2" clip-path="url(#SVGID_2_)" d="M0.139,10.648c0-5.79,4.692-10.482,10.481-10.482    c0.563,0,1.116,0.045,1.656,0.131C7.582,2.471,4.546,5.934,4.546,9.837c0.001,4.529,4.097,8.468,10.124,10.485    c-1.244,0.521-2.611,0.809-4.045,0.809C4.834,21.131,0.139,16.438,0.139,10.648" fill="#07A1E2"/>
			
		
			<path animation_id="3" clip-path="url(#SVGID_2_)" d="M18.506,3.744c1.619,1.845,2.597,4.262,2.598,6.906    c0,3.712-1.928,6.973-4.836,8.833c-2.713-1.966-4.336-4.464-4.336-7.181C11.932,8.896,14.464,5.846,18.506,3.744" fill="#07A1E2"/>
			
	
		</g>
		

	</g>
	

	<g>
		
	
		<defs>
			
		
			<rect animation_id="6" height="10.293" id="SVGID_3_" width="48.968" x="25.533" y="23.488"/>
			
	
		</defs>
		
	
		<clipPath id="SVGID_4_">
			
		
			<use overflow="visible" xlink:href="#SVGID_3_"/>
			
	
		</clipPath>
		

	</g>
	

	<g>
		
	
		<defs>
			
		
			<rect animation_id="7" height="10.274" id="SVGID_5_" width="51.5" x="25.533" y="23.484"/>
			
	
		</defs>
		
	
		<clipPath id="SVGID_6_">
			
		
			<use overflow="visible" xlink:href="#SVGID_5_"/>
			
	
		</clipPath>
		
	
		<path animation_id="4" clip-path="url(#SVGID_6_)" d="M71.373,33.588h5.66v-0.854h-4.557v-3.828h4.141v-0.854h-4.141v-3.543h4.365v-0.854h-5.468   V33.588z M63.378,33.588h1.104V29.29h1.535c1.035,0,1.882-0.242,2.542-0.726c0.671-0.474,1.013-1.173,1.023-2.091   c-0.053-1.879-1.205-2.818-3.454-2.818h-2.75V33.588z M64.482,24.509h1.791c1.45,0.02,2.185,0.674,2.207,1.965   c0,0.436-0.085,0.787-0.256,1.052c-0.17,0.266-0.411,0.465-0.72,0.599c-0.309,0.123-0.656,0.203-1.039,0.241   c-0.384,0.048-0.789,0.07-1.215,0.07h-0.768V24.509z M55.384,33.588h1.104V29.29h1.535c1.034,0,1.881-0.242,2.542-0.726   c0.671-0.474,1.012-1.173,1.023-2.091c-0.054-1.879-1.205-2.818-3.454-2.818h-2.75V33.588z M56.488,24.509h1.791   c1.449,0.02,2.185,0.674,2.206,1.965c0,0.436-0.085,0.787-0.256,1.052c-0.17,0.266-0.41,0.465-0.719,0.599   c-0.309,0.123-0.656,0.203-1.039,0.241c-0.384,0.048-0.789,0.07-1.215,0.07h-0.768V24.509z M53.05,23.655h-1.103v6.46   c0,0.825-0.246,1.49-0.736,1.992c-0.491,0.522-1.226,0.787-2.206,0.798c-0.96-0.011-1.69-0.275-2.191-0.798   c-0.501-0.502-0.751-1.167-0.751-1.992v-6.46H44.96v6.46c0,0.721,0.138,1.318,0.416,1.793c0.266,0.484,0.603,0.858,1.007,1.124   c0.416,0.267,0.858,0.45,1.327,0.556c0.458,0.113,0.89,0.171,1.295,0.171c0.426,0,0.874-0.058,1.343-0.171   c0.458-0.105,0.895-0.289,1.311-0.556c0.406-0.266,0.741-0.64,1.007-1.124c0.245-0.475,0.374-1.072,0.384-1.793V23.655z    M37.605,24.509h1.135c0.384,0,0.746,0.01,1.087,0.028c0.341,0.028,0.64,0.101,0.896,0.213c0.255,0.105,0.458,0.276,0.607,0.513   c0.149,0.237,0.224,0.56,0.224,0.967c-0.021,0.676-0.32,1.149-0.896,1.424c-0.564,0.276-1.194,0.407-1.887,0.398h-1.167V24.509z    M36.501,33.588h1.104v-4.682h0.912c0.266,0,0.5,0.005,0.703,0.015c0.202,0.018,0.384,0.07,0.544,0.156   c0.319,0.15,0.628,0.534,0.927,1.151l1.615,3.359h1.215l-1.903-3.842c-0.074-0.171-0.154-0.328-0.239-0.47   c-0.075-0.143-0.166-0.261-0.272-0.355c-0.192-0.2-0.501-0.323-0.927-0.371v-0.027c0.703-0.097,1.29-0.342,1.759-0.741   c0.469-0.39,0.709-0.906,0.719-1.552c-0.053-1.744-1.146-2.602-3.277-2.574h-2.878V33.588z M33.528,32.549   c-0.277,0.143-0.645,0.232-1.104,0.271c-0.469,0.057-0.89,0.086-1.263,0.086c-1.471-0.011-2.591-0.414-3.358-1.211   c-0.778-0.777-1.167-1.802-1.167-3.074c0-1.261,0.394-2.285,1.183-3.073c0.778-0.786,1.893-1.189,3.342-1.209   c0.501,0,0.997,0.028,1.486,0.086c0.48,0.085,0.938,0.231,1.375,0.441l0.127-0.912c-0.394-0.171-0.874-0.293-1.438-0.368   c-0.576-0.066-1.093-0.101-1.551-0.101c-1.749,0.019-3.119,0.493-4.109,1.424c-1.002,0.938-1.509,2.177-1.519,3.712   c0,1.557,0.501,2.795,1.503,3.715c0.98,0.931,2.356,1.404,4.125,1.424c1.204,0.009,2.361-0.195,3.469-0.612v-4.938h-3.693v0.853   h2.59V32.549z"/>
		

	</g>
	

</svg>
