<?xml version="1.0" encoding="iso-8859-1"?>
<!-- Generator: Adobe Illustrator 22.1.0, SVG Export Plug-In . SVG Version: 6.00 Build 0)  -->
<svg id="Ebene_1" style="enable-background:new 0 0 545 174.9;" version="1.1" viewBox="0 0 545 174.9" x="0px" xml:space="preserve" xmlns="http://www.w3.org/2000/svg" xmlns:xlink="http://www.w3.org/1999/xlink" y="0px">
	

	<style type="text/css">
	.st0{fill:#181715;}
	.st1{fill:#27529C;}
</style>
	

	<g>
		
	
		<polygon animation_id="20" class="st0" points="45.7,80.1 63.4,119.9 41.1,119.9 27.8,82.6 20.8,119.9 2.9,119.9 17.9,40.5 35.8,40.5 29.2,75.5    55.6,40.5 78.4,40.5  "/>
		
	
		<path animation_id="0" class="st0" d="M113.8,55.6C98.3,55.6,89,72.5,89,89.1c0,10.1,4.6,15.5,13.4,15.5c14.7,0,25.1-16.1,25.1-34.1   C127.5,61.8,123.3,55.6,113.8,55.6z M99.7,121.4c-20.6,0-30-11.3-30-29.2c0-28.5,20.4-53.3,47.1-53.3c19.7,0,29.8,10.7,29.8,29.4   C146.6,99.1,125.4,121.4,99.7,121.4z"/>
		
	
		<path animation_id="1" class="st0" d="M185.5,54.7c-2.5,0-4.8,0.1-7.1,0.2L175,72.3c1.5,0.1,2.9,0.1,4.6,0.1c9.4,0,15.1-4.6,15.1-11.7   C194.7,56.9,192.2,54.7,185.5,54.7z M180,86c-2.7,0-6,0-7.6,0.1l-3.4,18.7c1.4,0.2,4.2,0.4,6.4,0.4c10,0,15.2-5.8,15.2-12   C190.4,88.5,186.9,86,180,86z M200.3,77.5v0.1c5.9,1.9,9.4,7.8,9.4,14.4c0,15.4-13.9,28.1-36.2,28.1c-5.4,0-14.1-0.2-25.4-0.2   l15.1-79.3c7.2-0.4,18.2-0.6,26.9-0.6c14.9,0,24.2,4.9,24.2,16.6C214.3,67,208.7,73.9,200.3,77.5z"/>
		
	
		<polygon animation_id="21" class="st0" points="234.3,119.9 216.5,119.9 231.5,40.5 249.4,40.5  "/>
		
	
		<polygon animation_id="22" class="st0" points="291.4,119.9 250,119.9 265.1,40.5 282.9,40.5 270.9,103.6 294.5,103.6  "/>
		
	
		<polygon animation_id="23" class="st1" points="356.9,119.9 339.1,119.9 354.5,40.5 372.3,40.5  "/>
		
	
		<polygon animation_id="24" class="st1" points="432.1,82.1 414.3,82.1 429.7,2.7 447.5,2.7  "/>
		
	
		<polygon animation_id="25" class="st1" points="383,161 365.3,161 391.9,21.4 409.6,21.4  "/>
		
	
		<g>
			
		
			<path animation_id="2" class="st1" d="M158.1,144.6c-0.9-0.3-1.8-0.4-2.8-0.4c-2.3,0-3.5,1-3.5,2.5c0,2.8,5.5,3.8,5.5,8.1c0,3.3-2.9,6.5-8.6,6.5    c-1.3,0-2.4-0.1-3.3-0.3l0.7-3.6c1,0.4,2,0.5,3.1,0.5c2.3,0,3.8-0.9,3.8-2.7c0-2.9-5.5-3.4-5.5-8.1c0-3.4,2.7-6.1,8-6.1    c1.3,0,2.4,0.1,3.3,0.3L158.1,144.6z"/>
			
		
			<path animation_id="3" class="st1" d="M166.4,152.5c-0.1,0.5-0.2,1.4-0.2,2c0,2.7,1,3.4,3.9,3.4c1.8,0,3.8-0.4,5.5-1.1l0.1,3.3    c-2.1,0.8-4.5,1.3-7,1.3c-4.7,0-6.7-2.1-6.7-6.5c0-7.8,4.6-13.8,10.8-13.8c4.5,0,6,2.3,6,4.6C178.9,149.9,174.5,152.2,166.4,152.5    z M172.4,144.1c-2.8,0-4.7,2.5-5.5,5.5c5.3-0.2,7.8-1.3,7.8-3.5C174.8,144.8,173.9,144.1,172.4,144.1z"/>
			
		
			<path animation_id="4" class="st1" d="M196.2,145.2c-0.9-0.4-2-0.7-3.3-0.7c-4.5,0-6.6,5.1-6.6,9.2c0,2,0.7,3.8,3.8,3.8c1.4,0,2.9-0.3,4-0.8    l-0.1,3.5c-1.4,0.5-3.2,0.9-5,0.9c-5.1,0-7-2.7-7-6.6c0-7.5,4.3-13.6,11.3-13.6c1.5,0,2.8,0.2,4,0.5L196.2,145.2z"/>
			
		
			<path animation_id="5" class="st1" d="M216.5,151.5c-0.3,1.3-1.5,8.1-1.7,9.3h-4c0.2-1.2,0.7-3.3,2-6.9l-0.1,0c-1.8,3.8-4.7,7.4-8.6,7.4    c-3.7,0-4.9-2.6-4.1-6.6l2.5-13.3h4.1l-2.4,12.4c-0.5,2.8,0,4,1.5,4c3.1,0,6.9-7,7.8-11.7l0.9-4.6h4.1L216.5,151.5z"/>
			
		
			<path animation_id="6" class="st1" d="M234.7,145c-3.3-0.9-6.9,5.6-8,11.5l-0.8,4.3h-4.1l2-10.2c0.3-1.3,1.5-8.1,1.7-9.3h4    c-0.3,1.6-0.8,3.5-1.8,6.6l0.1,0c2.2-4.5,4.4-7.6,8-7L234.7,145z"/>
			
		
			<path animation_id="7" class="st1" d="M240.7,152.5c-0.1,0.5-0.2,1.4-0.2,2c0,2.7,1,3.4,3.9,3.4c1.8,0,3.8-0.4,5.5-1.1l0.1,3.3    c-2.1,0.8-4.5,1.3-7,1.3c-4.7,0-6.7-2.1-6.7-6.5c0-7.8,4.6-13.8,10.8-13.8c4.5,0,6,2.3,6,4.6C253.2,149.9,248.7,152.2,240.7,152.5    z M246.7,144.1c-2.8,0-4.7,2.5-5.5,5.5c5.3-0.2,7.8-1.3,7.8-3.5C249.1,144.8,248.2,144.1,246.7,144.1z"/>
			
		
			<path animation_id="8" class="st1" d="M271.5,167.1c-2.4,2.4-4.8,3.6-7.2,3.6c-1,0-2-0.1-2.8-0.3l0.7-3.7c0.7,0.3,1.6,0.4,2.4,0.4    c1.3,0,2.8-0.7,4-2c1.4-1.4,2-3.1,2-5.7c0-5.3-1.2-11.8-2.9-18.1h4.6c1.2,4.7,2.1,10.6,2.1,14.7c0,0.6-0.1,1.4-0.2,2h0    c2.9-5.1,5.4-10.5,8.2-17.5l3.8,1.1C280.9,154.2,276.2,162.4,271.5,167.1z"/>
			
		
			<path animation_id="9" class="st1" d="M294.5,161.2c-5.1,0-7.4-2.5-7.4-7c0-8,5.2-13.3,11.5-13.3c5.3,0,7.5,2.9,7.5,7.1    C306.1,156,300.5,161.2,294.5,161.2z M298,144.5c-4,0-6.6,4.6-6.6,9.1c0,2.5,1,4,3.6,4c3.7,0,6.6-4,6.6-9.1    C301.7,145.9,300.6,144.5,298,144.5z"/>
			
		
			<path animation_id="10" class="st1" d="M327.1,151.5c-0.3,1.3-1.5,8.1-1.7,9.3h-4c0.2-1.2,0.7-3.3,2-6.9l-0.1,0c-1.8,3.8-4.7,7.4-8.6,7.4    c-3.7,0-4.9-2.6-4.1-6.6l2.6-13.3h4.1l-2.4,12.4c-0.5,2.8,0,4,1.5,4c3.1,0,6.9-7,7.8-11.7l0.9-4.6h4.1L327.1,151.5z"/>
			
		
			<path animation_id="11" class="st1" d="M345.3,145c-3.3-0.9-6.9,5.6-8,11.5l-0.8,4.3h-4.1l2-10.2c0.3-1.3,1.5-8.1,1.7-9.3h4    c-0.3,1.6-0.8,3.5-1.8,6.6l0.1,0c2.2-4.5,4.4-7.6,8-7L345.3,145z"/>
			
		
			<path animation_id="12" class="st1" d="M408.3,160.8h-4.1l3.7-19.5h4.1L408.3,160.8z M411,137.9c-1.5,0-2.5-1.1-2.5-2.5c0-1.6,1.3-2.8,2.8-2.8    c1.5,0,2.5,1.2,2.5,2.4C413.8,136.7,412.5,137.9,411,137.9z"/>
			
		
			<path animation_id="13" class="st1" d="M431.8,153.8c-0.2,1-1.1,6-1.3,7.1h-4c0.3-1.6,1-3.9,2-7.1l-0.1,0c-1.5,2.9-4.3,7.6-8.7,7.6    c-2.9,0-4.4-1.9-4.4-6c0-7.3,3.8-14.2,12.4-14.2c0.8,0,1.5,0,2.4,0.2l1.7-9h4.2L431.8,153.8z M427,144.3c-5.2,0-7.4,5.7-7.4,10.2    c0,2.2,0.7,3.2,1.8,3.2c3.3,0,7-7.2,7.9-11.6l0.3-1.4C428.8,144.4,428,144.3,427,144.3z"/>
			
		
			<path animation_id="14" class="st1" d="M441.9,152.5c-0.1,0.5-0.2,1.4-0.2,2c0,2.7,1,3.4,3.9,3.4c1.8,0,3.8-0.4,5.5-1.1l0.1,3.3    c-2.1,0.8-4.5,1.3-7,1.3c-4.7,0-6.7-2.1-6.7-6.5c0-7.8,4.5-13.8,10.8-13.8c4.5,0,6,2.3,6,4.6C454.4,149.9,450,152.2,441.9,152.5z     M447.9,144.1c-2.8,0-4.7,2.5-5.5,5.5c5.3-0.2,7.8-1.3,7.8-3.5C450.3,144.8,449.4,144.1,447.9,144.1z"/>
			
		
			<path animation_id="15" class="st1" d="M473.3,160.8h-4.1l2.4-12.4c0.5-2.8,0-4-1.5-4c-3.1,0-7,7-7.8,11.7l-0.9,4.6h-4.1l2-10.2    c0.3-1.3,1.5-8.1,1.7-9.3h4.1c-0.2,1.2-0.7,3.3-2,6.9l0.1,0c1.8-3.8,4.7-7.4,8.7-7.4c3.7,0,4.9,2.6,4.1,6.6L473.3,160.8z"/>
			
		
			<path animation_id="16" class="st1" d="M492.9,144.6h-5l-1.8,9.6c-0.5,2.7-0.1,3.5,1.6,3.5c1.1,0,1.8-0.1,2.6-0.3l-0.3,3.4c-1.2,0.3-2.7,0.4-3.8,0.4    c-4.1,0-5.2-1.9-4.3-6.5l1.9-10.1h-3.7l0.7-3.3h3.6l1.2-6.2l4.3-0.9l-1.4,7.1h5L492.9,144.6z"/>
			
		
			<path animation_id="17" class="st1" d="M499.4,160.8h-4.1l3.7-19.5h4.1L499.4,160.8z M502.1,137.9c-1.5,0-2.5-1.1-2.5-2.5c0-1.6,1.3-2.8,2.8-2.8    c1.5,0,2.5,1.2,2.5,2.4C504.9,136.7,503.6,137.9,502.1,137.9z"/>
			
		
			<path animation_id="18" class="st1" d="M519.4,144.6h-5l-1.8,9.6c-0.5,2.7-0.1,3.5,1.6,3.5c1.1,0,1.8-0.1,2.6-0.3l-0.3,3.4c-1.2,0.3-2.7,0.4-3.8,0.4    c-4.1,0-5.2-1.9-4.3-6.5l1.9-10.1h-3.7l0.7-3.3h3.6l1.2-6.2l4.3-0.9l-1.4,7.1h5L519.4,144.6z"/>
			
		
			<path animation_id="19" class="st1" d="M526.2,167.1c-2.4,2.4-4.8,3.6-7.2,3.6c-1,0-2-0.1-2.8-0.3l0.7-3.7c0.7,0.3,1.6,0.4,2.4,0.4    c1.3,0,2.8-0.7,4-2c1.4-1.4,2-3.1,2-5.7c0-5.3-1.2-11.8-2.9-18.1h4.6c1.2,4.7,2.1,10.6,2.1,14.7c0,0.6-0.1,1.4-0.2,2h0    c2.9-5.1,5.4-10.5,8.2-17.5l3.8,1.1C535.7,154.2,531,162.4,526.2,167.1z"/>
			
	
		</g>
		

	</g>
	

</svg>
