<?xml version="1.0" encoding="iso-8859-1"?>
<!-- Generator: Adobe Illustrator 15.0.0, SVG Export Plug-In . SVG Version: 6.00 Build 0)  -->
<!DOCTYPE svg
  PUBLIC '-//W3C//DTD SVG 1.1//EN'
  'http://www.w3.org/Graphics/SVG/1.1/DTD/svg11.dtd'>
<svg enable-background="new 0 0 595.275 357.165" height="357.165px" version="1.1" viewBox="-148.81875 -89.29125 892.9124999999999 535.7475000000001" width="595.275px" x="0px" xml:space="preserve" xmlns="http://www.w3.org/2000/svg" xmlns:xlink="http://www.w3.org/1999/xlink" y="0px">
	
	

	
	<g id="Hintergrund">
</g>
	
	

	
	<g display="none" id="Hilfslinien">
</g>
	
	

	
	<g id="Vordergrund">
		
		
	
		
		<g>
			
			
		
			
			
			<polygon animation_id="25" clip-rule="evenodd" fill="#EC6608" fill-rule="evenodd" points="    109.065,260.988 191.583,283.727 179.937,342.34 85.136,312.58   " stroke="#EC6608" stroke-miterlimit="3.8637" stroke-width="0"/>
			
			
		
			
			
			<polygon animation_id="26" clip-rule="evenodd" fill="#EC6608" fill-rule="evenodd" points="    231.784,55.836 174.116,28.834 151.949,54.15 225.128,88.094   " stroke="#EC6608" stroke-miterlimit="3.8637" stroke-width="0"/>
			
			
		
			
			
			<polygon animation_id="27" clip-rule="evenodd" fill="#EC6608" fill-rule="evenodd" points="    246.758,33.076 291.894,19.613 324.817,40.59 275.285,67.516   " stroke="#EC6608" stroke-miterlimit="3.8637" stroke-width="0"/>
			
			
		
			
			
			<polygon animation_id="28" clip-rule="evenodd" fill="#EC6608" fill-rule="evenodd" points="    347.49,26.824 394.081,14.824 430.875,39.779 354.802,50.307   " stroke="#EC6608" stroke-miterlimit="3.8637" stroke-width="0"/>
			
			
		
			
			<g>
				
				
			
				
				<path animation_id="0" d="M230.797,199.709h-39.128v-71.023h18.443v55.941h24.15L230.797,199.709z"/>
				
				
			
				
				<path animation_id="1" d="M270.123,199.709v-71.023h41.269l-1.324,14.979h-21.704v11.922h17.729v14.471h-17.729v14.469h24.354v15.184H270.123z"/>
				
				
			
				
				<path animation_id="2" d="M374.57,200.932c-10.7,0-19.055-2.65-26.188-6.42l6.42-14.266c5.095,2.955,12.737,5.705,19.972,5.705     c7.134,0,9.986-2.648,9.986-6.52c0-3.16-2.241-4.484-7.133-5.809l-8.355-2.141c-10.292-2.75-17.323-8.355-17.323-20.582     c0-14.062,11.616-23.438,27.513-23.438c9.884,0,19.055,2.547,25.372,6.93l-8.763,12.941c-4.789-3.16-11.107-4.994-15.998-4.994     c-4.687,0-7.234,2.242-7.234,5.096c0,2.344,1.63,4.686,6.929,6.012l7.235,1.834c7.643,1.936,18.646,5.4,18.646,19.666     C405.648,191.965,393.014,200.932,374.57,200.932z"/>
				
				
			
				
				<path animation_id="3" d="M471.978,200.932c-8.764,0-16.711-2.65-23.232-9.783c-5.604-6.215-8.152-15.488-8.152-25.576     c0-8.865,1.427-15.59,4.891-22.01c6.013-11.107,16.305-16.1,28.736-16.1c7.233,0,14.876,2.037,18.138,5.197l-7.745,13.449     c-3.159-2.445-6.725-3.77-10.597-3.77c-3.159,0-6.114,0.814-7.948,2.752c-3.464,3.566-4.585,7.234-4.585,15.59     c0,11.719,0.51,17.322,3.464,20.787c2.344,2.752,5.299,4.482,9.069,4.482c4.585,0,8.253-1.119,12.228-4.686l7.847,12.432     C489.605,197.875,482.37,200.932,471.978,200.932z"/>
				
				
			
				
				<path animation_id="4" d="M562.863,199.709v-29.857h-14.57v29.857h-18.241v-71.023h18.241v26.086h14.57v-26.086h18.239v71.023H562.863z"/>
				
				
		
			
			</g>
			
			
		
			
			<g>
				
				
			
				
				<path animation_id="5" d="M197.605,222.893v6.221h4.607v-6.221h3.271v16.01h-3.271v-7.141h-4.607v7.141h-3.201v-16.01H197.605z"/>
				
				
			
				
				<path animation_id="6" d="M227.87,230.818c0,3.615-1.243,6.334-3.569,7.602c-0.969,0.529-1.867,0.736-3.203,0.736     c-2.418,0-3.985-0.668-5.205-2.258c-1.221-1.566-1.843-3.594-1.843-5.943c0-3.455,1.312-6.219,3.616-7.486     c0.944-0.506,2.119-0.783,3.316-0.783C225.244,222.686,227.87,225.797,227.87,230.818z M218.448,226.578     c-0.552,1.037-0.805,2.443-0.805,4.377c0,2.764,0.461,4.492,1.428,5.184c0.507,0.369,1.151,0.553,1.911,0.553     c2.234,0,3.179-1.705,3.179-5.781c0-1.637-0.139-2.811-0.415-3.709c-0.253-0.807-1.104-2.027-2.81-2.027     C219.854,225.174,218.909,225.727,218.448,226.578z"/>
				
				
			
				
				<path animation_id="7" d="M244.937,222.893l-0.369,2.604h-5.09v3.662h4.077v2.627h-4.077v7.117h-3.225v-16.01H244.937z"/>
				
				
			
				
				<path animation_id="8" d="M257.765,231.256v2.67h-5.529v-2.67H257.765z"/>
				
				
			
				
				<path animation_id="9" d="M275.267,230.471v-4.859h2.903v4.859h4.86v2.904h-4.86v4.859h-2.903v-4.859h-4.86v-2.904H275.267z"/>
				
				
			
				
				<path animation_id="10" d="M306.338,226.486c-1.037-0.852-2.12-1.244-3.34-1.244c-0.945,0-1.751,0.277-2.305,0.807     c-1.081,1.037-1.357,2.764-1.357,5.16c0,2.279,0.391,3.754,1.196,4.561c0.599,0.576,1.475,0.898,2.511,0.898     c0.715,0,1.291-0.115,1.82-0.391v-3.641h-2.441l-0.415-2.625h6.196v7.646c-1.636,0.969-3.432,1.428-5.321,1.428     c-2.395,0-4.168-0.783-5.458-2.441c-1.176-1.496-1.705-3.201-1.705-5.596c0-3.387,1.106-5.783,3.34-7.279     c1.174-0.783,2.372-1.129,3.893-1.129c1.936,0,3.686,0.621,5.09,1.842L306.338,226.486z"/>
				
				
			
				
				<path animation_id="11" d="M326.491,222.893l-0.415,2.627h-5.482v3.709h4.584v2.625h-4.537v4.285h6.059v2.764h-9.33v-16.01H326.491z"/>
				
				
			
				
				<path animation_id="12" d="M338.674,222.893v6.221h4.606v-6.221h3.271v16.01h-3.271v-7.141h-4.606v7.141h-3.202v-16.01H338.674z"/>
				
				
			
				
				<path animation_id="13" d="M358.065,222.893l1.383,6.312c0.644,2.994,0.852,5.275,0.852,5.275c0.069-0.623,0.346-2.902,0.829-5.115l1.429-6.473     h3.524l1.474,7.164c0.3,1.498,0.691,4.238,0.691,4.238c0.046-0.506,0.552-3.754,0.875-5.32l1.312-6.082h3.386l-3.868,16.148     h-3.525l-1.428-6.52c-0.484-2.141-0.714-4.215-0.761-4.652c0,0-0.276,2.258-0.76,4.607l-1.337,6.564h-3.662l-3.823-16.148     H358.065z"/>
				
				
			
				
				<path animation_id="14" d="M390.979,222.893l-0.415,2.627h-5.482v3.709h4.584v2.625h-4.537v4.285h6.059v2.764h-9.33v-16.01H390.979z"/>
				
				
			
				
				<path animation_id="15" d="M409.52,226.486c-1.036-0.852-2.12-1.244-3.34-1.244c-0.944,0-1.75,0.277-2.304,0.807     c-1.082,1.037-1.358,2.764-1.358,5.16c0,2.279,0.392,3.754,1.197,4.561c0.599,0.576,1.474,0.898,2.511,0.898     c0.715,0,1.29-0.115,1.819-0.391v-3.641h-2.44l-0.416-2.625h6.196v7.646c-1.636,0.969-3.431,1.428-5.321,1.428     c-2.395,0-4.168-0.783-5.458-2.441c-1.176-1.496-1.705-3.201-1.705-5.596c0-3.387,1.106-5.783,3.34-7.279     c1.175-0.783,2.373-1.129,3.894-1.129c1.935,0,3.686,0.621,5.09,1.842L409.52,226.486z"/>
				
				
			
				
				<path animation_id="16" d="M426.516,222.893c2.834,0,4.7,1.891,4.7,4.699c0,2.396-1.591,4.377-3.57,4.424c0.322,0.254,0.461,0.391,0.667,0.668     c0.922,1.152,3.847,6.219,3.847,6.219h-3.8c-0.622-1.061-0.876-1.498-1.498-2.625c-1.589-2.881-2.073-3.664-2.648-3.916     c-0.161-0.07-0.3-0.115-0.508-0.139v6.68h-3.154v-16.01H426.516z M423.705,229.803h1.083c1.383,0,1.981-0.137,2.42-0.529     c0.391-0.367,0.62-0.943,0.62-1.611c0-0.99-0.391-1.682-1.151-1.959c-0.368-0.137-1.036-0.23-1.818-0.23h-1.153V229.803z"/>
				
				
			
				
				<path animation_id="17" d="M449.411,222.893l-0.414,2.627h-5.482v3.709h4.584v2.625h-4.538v4.285h6.059v2.764h-9.329v-16.01H449.411z"/>
				
				
			
				
				<path animation_id="18" d="M461.755,222.893v16.01h-3.363v-16.01H461.755z"/>
				
				
			
				
				<path animation_id="19" d="M474.952,222.893l3.062,6.404c0.806,1.705,1.428,3.387,1.751,4.539c-0.115-1.244-0.229-3.295-0.253-4.4l-0.07-6.543     h3.063v16.01h-3.362l-2.741-6.127c-0.898-2.004-1.866-4.262-2.164-5.252c0.114,1.312,0.138,3.201,0.159,4.537l0.094,6.842h-3.11     v-16.01H474.952z"/>
				
				
			
				
				<path animation_id="20" d="M495.496,222.893v16.01h-3.362v-16.01H495.496z"/>
				
				
			
				
				<path animation_id="21" d="M514.682,226.486c-1.036-0.852-2.119-1.244-3.339-1.244c-0.945,0-1.751,0.277-2.305,0.807     c-1.082,1.037-1.358,2.764-1.358,5.16c0,2.279,0.392,3.754,1.197,4.561c0.599,0.576,1.474,0.898,2.511,0.898     c0.715,0,1.291-0.115,1.82-0.391v-3.641h-2.441l-0.416-2.625h6.196v7.646c-1.635,0.969-3.431,1.428-5.32,1.428     c-2.396,0-4.169-0.783-5.458-2.441c-1.177-1.496-1.706-3.201-1.706-5.596c0-3.387,1.106-5.783,3.34-7.279     c1.175-0.783,2.373-1.129,3.894-1.129c1.935,0,3.686,0.621,5.09,1.842L514.682,226.486z"/>
				
				
			
				
				<path animation_id="22" d="M528.915,222.893v10.527c0,0.99,0.093,1.566,0.276,1.912c0.369,0.715,1.13,1.105,2.188,1.105     c1.405,0,2.304-0.691,2.442-1.865c0.046-0.346,0.046-0.576,0.046-1.428v-10.252h3.271v10.781c0,1.52-0.022,1.82-0.253,2.51     c-0.415,1.268-1.98,3.018-5.437,3.018c-2.441,0-4.238-0.736-5.137-2.141c-0.53-0.83-0.69-1.475-0.69-3.018v-11.15H528.915z"/>
				
				
			
				
				<path animation_id="23" d="M550.242,222.893l3.063,6.404c0.806,1.705,1.428,3.387,1.751,4.539c-0.115-1.244-0.23-3.295-0.254-4.4l-0.069-6.543     h3.063v16.01h-3.363l-2.74-6.127c-0.898-2.004-1.866-4.262-2.166-5.252c0.116,1.312,0.14,3.201,0.161,4.537l0.093,6.842h-3.109     v-16.01H550.242z"/>
				
				
			
				
				<path animation_id="24" d="M576.982,226.486c-1.037-0.852-2.12-1.244-3.34-1.244c-0.944,0-1.75,0.277-2.304,0.807     c-1.082,1.037-1.358,2.764-1.358,5.16c0,2.279,0.391,3.754,1.196,4.561c0.6,0.576,1.475,0.898,2.511,0.898     c0.716,0,1.291-0.115,1.82-0.391v-3.641h-2.44l-0.416-2.625h6.196v7.646c-1.636,0.969-3.432,1.428-5.321,1.428     c-2.395,0-4.168-0.783-5.458-2.441c-1.176-1.496-1.705-3.201-1.705-5.596c0-3.387,1.106-5.783,3.34-7.279     c1.175-0.783,2.372-1.129,3.894-1.129c1.935,0,3.686,0.621,5.09,1.842L576.982,226.486z"/>
				
				
		
			
			</g>
			
			
		
			
			
			<polygon animation_id="29" clip-rule="evenodd" fill="#EC6608" fill-rule="evenodd" points="    80.652,101.125 158.198,87.139 168.242,126.436 70.666,139.49   " stroke="#EC6608" stroke-miterlimit="3.8637" stroke-width="0"/>
			
			
		
			
			
			<polygon animation_id="30" clip-rule="evenodd" fill="#EC6608" fill-rule="evenodd" points="    14.173,195.281 82.762,167.447 127.716,197.361 48.272,242.441   " stroke="#EC6608" stroke-miterlimit="3.8637" stroke-width="0"/>
			
			
		
			
			
			<polygon animation_id="31" clip-rule="evenodd" fill="#EC6608" fill-rule="evenodd" points="    458.704,28.359 494.955,31.582 494.285,56.746 452.377,51.537   " stroke="#EC6608" stroke-miterlimit="3.8637" stroke-width="0"/>
			
			
	
		
		</g>
		
		

	
	</g>
	
	


</svg>
