<?xml version="1.0" encoding="iso-8859-1"?>
<!-- Generator: Adobe Illustrator 15.0.0, SVG Export Plug-In . SVG Version: 6.00 Build 0)  -->
<!DOCTYPE svg
  PUBLIC '-//W3C//DTD SVG 1.1//EN'
  'http://www.w3.org/Graphics/SVG/1.1/DTD/svg11.dtd'>
<svg xmlns="http://www.w3.org/2000/svg" xmlns:xlink="http://www.w3.org/1999/xlink" version="1.1" x="0px" y="0px" width="595.275px" height="161.575px" viewBox="0 0 595.275 161.575" enable-background="new 0 0 595.275 161.575" xml:space="preserve">
	

	<g id="Hintergrund">
</g>
	

	<g id="Hilfslinien">
</g>
	

	<g id="Vordergrund">
		
	
		<g>
			
		
			<path fill-rule="evenodd" clip-rule="evenodd" fill="#225CAC" d="M53.677,144.904V53.405c0-21.429-17.757-39.185-39.186-39.185    v130.684h9.792l0.005-119.662c11.02,4.285,19.591,15.306,19.591,28.163l-0.005,91.499H53.677z" animation_id="0"/>
			
		
			<path fill-rule="evenodd" clip-rule="evenodd" fill="#225CAC" d="M145.658,144.905v-9.796c-15.919,0-29.388-13.469-29.388-29.389    l-0.003-28.936h19.593v-9.801h-19.593V24.021h29.388v-9.801h-39.178l-0.002,91.5C106.475,127.15,124.23,144.905,145.658,144.905z" animation_id="1"/>
			
		
			<path fill-rule="evenodd" clip-rule="evenodd" fill="#225CAC" d="M256.059,100.822l0.002-86.602h-9.803l0.006,86.602    c0,17.144-9.795,28.164-19.592,33.676l-0.017-67.252c0-16.531-0.582-19.053-4.868-31.299c-4.284,12.246-4.9,14.768-4.9,31.299    l-0.01,67.252c-9.797-5.512-19.592-16.532-19.592-33.676V14.221h-9.801l0.006,86.602c0,28.164,21.427,42.859,34.286,46.531    C234.632,143.682,256.059,128.986,256.059,100.822z" animation_id="2"/>
			
		
			<rect x="299.229" y="67.001" fill-rule="evenodd" clip-rule="evenodd" fill="#225CAC" width="29.386" height="9.796" animation_id="6"/>
			
		
			<polygon fill-rule="evenodd" clip-rule="evenodd" fill="#225CAC" points="580.784,24.028 580.784,14.232 531.808,14.232     531.808,24.028 551.397,24.028 551.413,144.916 561.215,144.916 561.194,24.028   " animation_id="5"/>
			
		
			<path fill-rule="evenodd" clip-rule="evenodd" fill="#225CAC" d="M413.294,144.914l-0.001-91.498    c0-21.429-17.755-39.184-39.186-39.184v130.682h9.793l0.003-119.661c11.021,4.286,19.594,15.306,19.594,28.163l-0.004,91.498    H413.294z" animation_id="3"/>
			
		
			<path fill-rule="evenodd" clip-rule="evenodd" fill="#225CAC" d="M505.273,144.916v-9.797c-15.917,0-29.389-13.469-29.389-29.387    l-0.001-28.936h19.592v-9.802h-19.592V24.033h29.388v-9.801h-39.18l-0.001,91.5C466.091,127.16,483.846,144.916,505.273,144.916z" animation_id="4"/>
			
	
		</g>
		

	</g>
	

</svg>
