<?xml version="1.0" encoding="iso-8859-1"?>
<!-- Generator: Adobe Illustrator 15.0.0, SVG Export Plug-In . SVG Version: 6.00 Build 0)  -->
<!DOCTYPE svg
  PUBLIC '-//W3C//DTD SVG 1.1//EN'
  'http://www.w3.org/Graphics/SVG/1.1/DTD/svg11.dtd'>
<svg enable-background="new 0 0 595.275 121.89" height="121.89px" version="1.1" viewBox="-148.81875 -30.4725 892.9124999999999 182.835" width="595.275px" x="0px" xml:space="preserve" xmlns="http://www.w3.org/2000/svg" xmlns:xlink="http://www.w3.org/1999/xlink" y="0px">
	
	

	
	<g id="Hintergrund">
</g>
	
	

	
	<g display="none" id="Hilfslinien">
</g>
	
	

	
	<g id="Vordergrund">
		
		
	
		
		<g>
			
			
		
			
			<path animation_id="0" d="M30.106,51.539c0,7.153,0,48.62,0,53.256c-2.915,0-13.38,0-15.896,0c0-6.226,0-84.389,0-89.82    c3.841,3.709,49.149,50.209,53.653,54.714c0-6.227,0-47.825,0-53.257c2.12,0,12.983,0,15.765,0c0,5.3,0,82.27,0,90.085    C78.991,101.748,34.478,56.043,30.106,51.539z" fill="#225CAC"/>
			
			
		
			
			<path animation_id="1" d="M173.446,16.432c0,2.518,0,13.116,0,15.5c-4.107,0-48.222,0-52.197,0c0,2.65,0,17.752,0,20.534    c4.107,0,38.154,0,41.731,0c0,2.253,0,13.514,0,15.5c-4.638,0-37.756,0-41.731,0c0,3.312,0,17.886,0,21.329    c4.107,0,48.09,0,51.799,0c0,3.048,0,12.719,0,15.5c-3.709,0-64.385,0-67.696,0c0-4.769,0-83.063,0-88.363    C110.518,16.432,169.735,16.432,173.446,16.432z" fill="#225CAC"/>
			
			
		
			
			<path animation_id="2" d="M268.032,106.915c-3.444-2.782-33.12-27.688-36.829-30.867c-3.708,3.312-32.192,27.157-36.696,30.867    c-0.531-8.214-5.962-84.786-6.36-90.483c2.915,0,13.513,0,16.296,0c0.132,5.034,2.517,54.052,2.782,59.483    c3.179-2.782,21.064-18.548,23.979-21.196c3.047,2.782,21.462,19.076,23.979,21.196c0.398-3.975,2.783-54.316,2.915-59.483    c2.385,0,14.441,0,16.295,0C273.861,21.863,268.297,101.881,268.032,106.915z" fill="#225CAC"/>
			
			
		
			
			<path animation_id="3" d="M288.296,70.352c0-3.048,0-13.116,0-16.428c3.444,0,34.842,0,38.021,0c0,3.179,0,12.982,0,16.428    C323.005,70.352,291.343,70.352,288.296,70.352z" fill="#225CAC"/>
			
			
		
			
			<path animation_id="4" d="M359.568,51.539c0,7.153,0,48.62,0,53.256c-2.915,0-13.38,0-15.897,0c0-6.226,0-84.389,0-89.82    c3.842,3.709,49.15,50.209,53.653,54.714c0-6.227,0-47.825,0-53.257c2.12,0,12.983,0,15.765,0c0,5.3,0,82.27,0,90.085    C408.452,101.748,363.939,56.043,359.568,51.539z" fill="#225CAC"/>
			
			
		
			
			<path animation_id="5" d="M502.907,16.432c0,2.518,0,13.116,0,15.5c-4.106,0-48.222,0-52.197,0c0,2.65,0,17.752,0,20.534    c4.107,0,38.155,0,41.731,0c0,2.253,0,13.514,0,15.5c-4.637,0-37.756,0-41.731,0c0,3.312,0,17.886,0,21.329    c4.107,0,48.091,0,51.8,0c0,3.048,0,12.719,0,15.5c-3.709,0-64.385,0-67.696,0c0-4.769,0-83.063,0-88.363    C439.98,16.432,499.198,16.432,502.907,16.432z" fill="#225CAC"/>
			
			
		
			
			<path animation_id="6" d="M556.162,31.932c0,4.505,0,68.228,0,72.863c-2.65,0-14.31,0-16.297,0c0-4.239,0-70.213,0-72.863    c-3.311,0-22.256,0-25.7,0c0-2.517,0-13.115,0-15.5c4.24,0,62.265,0,66.901,0c0,2.518,0,12.983,0,15.5    C576.827,31.932,558.943,31.932,556.162,31.932z" fill="#225CAC"/>
			
			
	
		
		</g>
		
		

	
	</g>
	
	


</svg>
