<?xml version="1.0" encoding="iso-8859-1"?>
<!-- Generator: Adobe Illustrator 15.0.0, SVG Export Plug-In . SVG Version: 6.00 Build 0)  -->
<!DOCTYPE svg
  PUBLIC '-//W3C//DTD SVG 1.1//EN'
  'http://www.w3.org/Graphics/SVG/1.1/DTD/svg11.dtd'>
<svg enable-background="new 0 0 595.275 320.315" height="320.315px" version="1.1" viewBox="-148.81875 -80.07875 892.9124999999999 480.47249999999997" width="595.275px" x="0px" xml:space="preserve" xmlns="http://www.w3.org/2000/svg" xmlns:xlink="http://www.w3.org/1999/xlink" y="0px">
	
	

	
	<g id="Hintergrund">
</g>
	
	

	
	<g display="none" id="Hilfslinien">
</g>
	
	

	
	<g id="Vordergrund">
		
		
	
		
		<g>
			
			
		
			
			<g>
				
				
			
				
				<polyline animation_id="11" clip-rule="evenodd" fill="#9D9D9C" fill-rule="evenodd" points="194.721,75.037 196.614,65.226 198.843,63.533      200.634,61.827 202.519,59.858 204.143,57.796 205.684,55.552 206.964,53.214 208.245,50.874 209.786,48.631 211.067,46.292      212.608,44.049 215.014,42.273 217.336,40.319 219.659,38.365 221.804,36.493 224.043,34.36 226.366,32.407 228.772,30.632      231.177,28.856 233.583,27.081 236.333,25.581 239.417,24.797 242.583,24.191 245.574,23.668 248.74,23.062 251.824,22.278      254.813,21.755 257.896,20.97 261.074,19.925 264.074,18.961 267.168,17.735 268.835,17.612 270.502,17.487 271.908,17.268      273.491,16.964 275.252,16.579 276.752,16.097 278.252,15.616 279.836,15.313 281.513,14.749 283.096,14.446 285.627,14.79      287.982,15.216 290.598,15.739 292.953,16.165 295.484,16.509 297.932,16.675 300.381,16.839 302.839,16.563 305.298,16.288      307.683,15.394 311.643,14.637 314.236,16.04 316.925,17.182 319.612,18.324 322.396,19.204 325,20.167 327.782,21.048      330.741,21.845 333.522,22.726 336.128,23.688 338.992,24.749 341.244,25.876 343.494,27.005 345.745,28.132 347.902,29.522      349.882,30.995 351.862,32.467 353.665,34.021 355.374,35.838 357.083,37.654 358.439,39.636 360.305,42.249 362.347,44.782      364.578,46.79 367.067,48.896 369.651,50.739 372.06,52.665 374.645,54.509 377.312,56.532 379.541,58.54 381.856,60.728      383.397,62.187 385.315,62.6 387.139,63.273 389.057,63.686 390.796,64.181 392.713,64.594 394.546,64.827 396.297,64.882      398.225,64.854 400.067,64.648 401.746,64.083 404.11,64.069 403.308,64.661 402.589,65.433 402.31,66.216 401.851,67.083      401.653,68.047 401.717,69.106 401.694,69.987 401.758,71.047 401.561,72.01 401.54,72.891 401.071,74.198 400.779,75.422      400.312,76.729 399.844,78.036 399.292,79.165 398.741,80.294 398.272,81.601 397.636,82.55 397.085,83.679 396.355,84.89      387.076,92.266 386.161,93.999 384.984,95.638 383.983,97.192 382.891,99.008 381.892,100.563 380.715,102.2 379.622,104.017      378.622,105.572 377.445,107.21 376.529,108.943 376.415,110.085 376.041,111.131 374.718,111.53 373.862,110.622      373.529,109.907 373.195,109.191 372.77,108.737 372.164,108.366 371.518,106.054 371.131,103.839 370.662,101.444      370.191,99.05 369.806,96.835 369.335,94.44 368.595,92.392 367.771,90.161 366.51,87.919 364.978,86.021 364.403,84.327      363.913,82.813 363.34,81.122 362.673,79.69 362.099,77.997 361.255,76.649 360.41,75.302 359.213,74.118 358.014,72.935      356.544,72.096 354.574,70.184 352.251,68.436 349.739,67.212 346.967,65.891 344.279,64.748 341.591,63.606 338.819,62.286      336.308,61.062 333.983,59.313 332.015,57.401 330.889,56.837 329.503,56.177 328.201,55.696 326.899,55.214 325.335,54.636      324.033,54.155 322.73,53.673 321.344,53.013 320.22,52.448 319.01,51.706 314.655,50.688 310.467,50.028 306.185,49.63      301.903,49.23 297.705,49.011 293.497,49.23 289.204,49.272 284.901,49.755 280.775,50.153 276.473,50.636 274.807,50.759      273.129,51.323 271.629,51.806 270.212,52.466 268.62,53.209 267.203,53.869 265.786,54.53 264.191,55.272 262.692,55.755      260.932,56.141 259.953,56.815 258.712,57.392 257.734,58.066 256.494,58.645 255.515,59.319 254.359,60.077 253.38,60.751      252.485,61.604 251.505,62.278 250.61,63.131 249.6,65.126 248.33,67.025 246.798,68.828 245.279,70.19 243.581,71.636      241.706,73.163 239.665,74.333 237.8,75.42 235.498,76.493 233.373,77.484 231.936,79.026 230.76,80.663 229.489,82.562      228.396,84.378 227.303,86.194 226.208,88.011 225.116,89.827 223.762,91.547 222.325,93.089 220.804,94.45 221.044,95.429      221.555,96.062 222.326,96.79 223.098,97.52 224.473,98.62 224.432,100.382 223.422,102.376 222.413,104.372 221.236,106.009      219.799,107.55 218.279,108.913 216.497,110.179 214.634,111.266 212.769,112.354 210.904,113.44 208.779,114.432      209.196,115.325 210.051,116.233 207.957,115.903 206.217,115.409 204.487,114.474 202.851,113.276 201.392,111.996      200.11,110.634 198.744,109.093 197.556,107.47 196.275,106.107 195.085,104.483 193.825,102.241 192.824,100.095      192.177,97.782 191.791,95.567 191.759,93.187 191.726,90.808 191.956,88.522 192.006,86.32 192.151,83.858 192.38,81.573      194.721,75.037    "/>
				
				
			
				
				<polyline animation_id="12" clip-rule="evenodd" fill="#9D9D9C" fill-rule="evenodd" points="235.927,137.052 236.906,136.377 237.885,135.702      238.697,134.671 239.416,133.899 239.968,132.771 240.604,131.821 241.155,130.692 241.79,129.745 242.602,128.712      243.238,127.763 245.352,127.212 247.363,127.362 249.28,127.776 251.009,128.712 252.646,129.908 254.104,131.188      255.47,132.729 256.834,134.271 258.294,135.55 259.576,136.911 260.076,137.985 260.4,139.14 260.546,140.379 260.349,141.343      262.224,143.517 264.455,145.525 266.779,147.272 269.28,148.938 271.875,150.341 274.823,151.579 277.604,152.46      280.387,153.339 283.439,153.876 286.409,154.233 287.347,155.321 288.462,156.325 289.765,156.808 291.15,157.468      292.37,157.77 293.943,157.907 295.339,158.128 296.912,158.265 298.224,158.306 299.538,158.347 300.776,157.769      301.923,157.452 303.069,157.136 304.381,157.177 305.61,157.04 306.83,157.342 308.143,157.384 309.361,157.687 310.58,157.989      311.8,158.291 313.3,157.81 314.8,157.327 316.384,157.024 317.884,156.543 319.384,156.062 320.966,155.759 322.466,155.276      324.05,154.974 325.633,154.671 327.218,154.368 329.186,152.579 331.236,150.97 333.548,149.456 335.945,148.12      338.341,146.786 340.736,145.451 343.048,143.937 345.184,142.506 347.236,140.896 349.204,139.107 350.547,137.827      351.891,136.548 353.234,135.269 354.316,133.892 355.577,132.433 356.836,130.975 357.837,129.419 358.659,127.946      359.314,126.117 359.709,124.19 360.804,122.374 361.282,120.626 361.238,118.687 360.843,116.911 360.362,114.957      359.789,113.265 359.309,111.312 359.173,109.634 359.651,107.885 360.745,106.069 360.682,105.009 360.879,104.046      363.254,103.592 363.391,105.271 363.787,107.046 364.36,108.737 364.757,110.513 365.331,112.205 365.904,113.897      366.656,115.507 367.489,117.296 368.239,118.905 368.991,120.517 368.439,121.645 368.325,122.786 368.388,123.846      368.711,125.001 369.212,126.075 369.535,127.231 370.036,128.304 370.276,129.28 370.161,130.423 370.047,131.565      369.651,133.491 369.257,135.418 368.862,137.345 368.384,139.092 367.988,141.019 367.853,143.042 367.635,144.886      367.595,146.646 367.638,148.587 367.68,150.526 366.679,152.081 365.856,153.554 364.941,155.288 364.202,156.938      363.463,158.591 362.808,160.42 362.068,162.071 361.068,163.626 359.985,165.003 358.819,166.2 357.308,167.122      355.715,167.864 354.121,168.608 352.35,169.435 350.758,170.177 349.246,171.099 347.914,171.938 346.486,173.038      345.32,174.236 344.498,175.709 342.437,177.759 340.206,179.452 337.718,181.048 335.062,182.286 332.321,183.347      329.666,184.585 326.927,185.645 324.187,186.704 321.613,188.122 319.125,189.719 315.427,190.571 311.905,191.343      308.395,191.673 304.707,192.086 301.029,192.059 297.436,192.21 293.852,191.921 290.09,191.716 286.506,191.427      283.114,190.997 280.74,190.562 278.64,190.16 277.087,189.722 275.087,189.13 273.263,188.456 271.357,187.603 269.534,186.929      267.627,186.075 265.72,185.222 264.34,184.665 263.521,183.422 262.896,182.401 258.988,180.958 255.269,178.989      251.903,176.856 248.536,174.726 245.535,171.987 242.711,169.165 240.157,166.001 237.957,162.673 236.029,158.998      234.371,154.979 233.461,145.169 235.927,137.052    "/>
				
				
			
				
				<polyline animation_id="13" clip-rule="evenodd" fill="#164194" fill-rule="evenodd" points="267.884,101.177 267.16,100.622 266.296,99.807      265.631,98.899 265.124,97.956 264.823,97.164 264.454,96.199 264.248,95.24 264.071,94.311 263.925,93.071 263.956,91.751      264.246,90.526 264.715,89.22 265.267,88.091 265.735,86.784 266.204,85.477 266.495,84.251 267.734,83.674 268.975,83.095      270.297,82.696 271.619,82.298 273.224,81.114 274.745,79.751 276.349,78.568 277.952,77.386 279.555,76.201 281.243,75.196      283.014,74.371 284.952,73.902 287.056,73.792 289.067,73.944 289.848,74.233 290.723,74.261 291.599,74.288 292.567,74.054      293.358,73.902 294.058,74.013 294.839,74.302 295.442,74.673 298.235,75.112 301.12,75.292 304.007,75.47 306.894,75.649      309.778,75.827 312.748,76.186 315.54,76.626 318.499,77.423 321.448,78.661 324.303,80.161 325.678,81.261 327.147,82.101      328.701,83.12 330.17,83.958 331.639,84.798 333.285,85.555 334.755,86.394 336.4,87.15 338.047,87.907 339.693,88.663      339.684,89.104 339.934,89.641 340.986,89.585 341.872,89.173 342.756,88.759 343.559,88.168 344.36,87.577 345.163,86.984      346.048,86.571 346.934,86.159 346.632,87.824 345.893,89.476 345.164,90.687 344.081,92.062 343.175,93.355 341.748,94.456      340.582,95.653 339.333,96.672 338.082,97.69 336.917,98.888 335.552,101.048 334.104,103.029 332.574,104.832 330.866,106.718      329.074,108.423 327.283,110.13 325.408,111.657 323.534,113.185 321.481,114.795 319.607,116.323 317.503,116.433      315.305,116.805 313.368,117.272 311.253,117.823 309.222,118.552 307.191,119.281 304.982,120.093 302.951,120.823      300.825,121.813 298.795,122.544 295.628,123.149 292.555,123.493 289.231,123.301 286.002,122.847 282.782,121.953      279.655,120.798 276.801,119.298 273.863,117.619 271.342,115.626 269.059,113.327 268.222,112.21 267.564,110.974      267.129,109.652 266.983,108.415 266.931,107.37 266.94,106.474 267.138,105.511 267.335,104.548 267.486,103.394      267.575,102.377    "/>
				
				
		
			
			</g>
			
			
		
			
			<g>
				
				
			
				
				<path animation_id="0" d="M25.979,231.078c0.505,1.814,0.807,3.226,0.908,4.839c2.318-2.822,7.459-4.839,12.701-4.839     c3.629,0,7.357,1.21,10.18,3.125c5.543,3.729,9.577,10.382,9.577,22.276c0,11.086-1.815,16.73-7.157,22.477     c-3.528,3.729-8.165,5.846-13.809,5.846c-4.032,0-7.862-1.008-10.785-2.721c0.201,1.209,0.201,2.721,0.201,4.233v16.127     l-13.002,3.428v-59.671c0-6.754-0.101-8.67-0.807-13.004L25.979,231.078z M35.353,274.118c6.654,0,9.274-4.536,9.274-16.328     c0-4.939-0.403-8.871-1.311-11.392c-1.007-2.821-3.124-4.333-6.451-4.333c-3.325,0-6.551,1.41-8.97,3.93v25.099     C29.709,272.606,32.632,274.118,35.353,274.118z" fill="#164194"/>
				
				
			
				
				<path animation_id="1" d="M81.118,230.876c1.208,2.117,1.915,4.436,2.116,7.358c1.916-2.62,5.141-5.442,7.66-6.552     c1.109-0.504,2.923-0.807,4.436-0.807c2.016,0,2.923,0.202,5.04,1.109l-3.729,11.895c-1.311-0.707-2.419-1.01-3.932-1.01     c-3.024,0-5.745,1.412-8.266,4.336v36.488H70.937v-34.473c0-6.955-0.806-12.197-1.915-15.119L81.118,230.876z" fill="#164194"/>
				
				
			
				
				<path animation_id="2" d="M123.151,217.874c0,4.637-3.729,8.365-8.366,8.365c-4.537,0-8.266-3.729-8.266-8.365     s3.831-8.366,8.467-8.366C119.523,209.508,123.151,213.237,123.151,217.874z M121.539,230.876v52.818h-13.507v-50.701     L121.539,230.876z" fill="#164194"/>
				
				
			
				
				<path animation_id="3" d="M147.545,231.179c0.906,1.411,1.31,2.621,1.813,5.241c3.528-3.427,7.864-5.241,12.6-5.241     c4.234,0,7.762,1.411,10.484,4.232c0.705,0.707,1.411,1.613,2.016,2.521c4.737-4.837,8.97-6.753,14.615-6.753     c4.031,0,7.861,1.21,10.18,3.225c2.923,2.521,3.83,5.545,3.83,12.6v36.691H189.98v-34.07c0-6.148-0.707-7.357-4.234-7.357     c-2.52,0-6.047,1.713-8.97,4.334v37.094h-12.801v-33.566c0-6.45-0.907-7.963-4.637-7.963c-2.52,0-5.946,1.311-8.869,3.932v37.598     h-13.205v-35.985c0-7.458-0.505-10.685-1.916-13.204L147.545,231.179z" fill="#164194"/>
				
				
			
				
				<path animation_id="4" d="M258.828,277.948c-5.946,4.838-12.196,7.156-19.453,7.156c-14.818,0-24.393-10.482-24.393-26.711     c0-9.273,1.915-15.422,6.451-20.462c4.234-4.737,9.374-6.954,16.229-6.954c5.946,0,11.591,2.016,14.917,5.442     c4.738,4.839,6.854,11.794,6.854,22.578c0,1.109,0,2.218,0,3.125h-29.835v0.403c0,7.963,3.932,12.498,10.886,12.498     c4.637,0,8.97-1.713,13.104-5.141L258.828,277.948z M245.423,252.245v-0.604c0-3.83-0.402-5.847-1.612-7.761     c-1.311-2.017-3.226-3.024-5.947-3.024c-5.141,0-8.064,4.032-8.064,11.188v0.201H245.423z" fill="#164194"/>
				
				
			
				
				<path animation_id="5" d="M300.863,231.078c0.505,1.814,0.808,3.226,0.907,4.839c2.318-2.822,7.459-4.839,12.701-4.839     c3.629,0,7.357,1.21,10.18,3.125c5.544,3.729,9.576,10.382,9.576,22.276c0,11.086-1.814,16.73-7.156,22.477     c-3.528,3.729-8.165,5.846-13.81,5.846c-4.032,0-7.862-1.008-10.785-2.721c0.201,1.209,0.201,2.721,0.201,4.233v16.127     l-13.002,3.428v-59.671c0-6.754-0.102-8.67-0.807-13.004L300.863,231.078z M310.237,274.118c6.653,0,9.273-4.536,9.273-16.328     c0-4.939-0.403-8.871-1.311-11.392c-1.007-2.821-3.124-4.333-6.451-4.333c-3.325,0-6.551,1.41-8.97,3.93v25.099     C304.594,272.606,307.517,274.118,310.237,274.118z" fill="#164194"/>
				
				
			
				
				<path animation_id="6" d="M386.24,277.948c-5.946,4.838-12.195,7.156-19.453,7.156c-14.817,0-24.393-10.482-24.393-26.711     c0-9.273,1.915-15.422,6.451-20.462c4.233-4.737,9.374-6.954,16.228-6.954c5.946,0,11.592,2.016,14.919,5.442     c4.737,4.839,6.853,11.794,6.853,22.578c0,1.109,0,2.218,0,3.125H357.01v0.403c0,7.963,3.932,12.498,10.886,12.498     c4.637,0,8.971-1.713,13.104-5.141L386.24,277.948z M372.835,252.245v-0.604c0-3.83-0.403-5.847-1.612-7.761     c-1.312-2.017-3.226-3.024-5.947-3.024c-5.142,0-8.064,4.032-8.064,11.188v0.201H372.835z" fill="#164194"/>
				
				
			
				
				<path animation_id="7" d="M435.734,238.839c4.134,4.839,5.947,10.482,5.947,18.85c0,8.87-2.016,14.918-6.45,19.957     c-3.932,4.436-9.072,7.156-17.035,7.156c-14.011,0-23.183-10.482-23.183-26.71c0-16.229,9.272-27.014,23.183-27.014     C425.554,231.078,431.3,233.599,435.734,238.839z M411.442,246.298c-0.907,2.723-1.411,6.351-1.411,11.492     c0,5.946,0.605,10.381,1.714,13.002c1.21,2.822,4.234,4.232,6.854,4.232c5.847,0,8.365-5.24,8.365-17.438     c0-6.955-0.907-11.49-2.721-13.809c-1.31-1.713-3.428-2.722-5.847-2.722C415.172,241.057,412.551,243.073,411.442,246.298z" fill="#164194"/>
				
				
			
				
				<path animation_id="8" d="M464.767,231.078c0.505,1.814,0.808,3.226,0.906,4.839c2.319-2.822,7.46-4.839,12.701-4.839     c3.63,0,7.358,1.21,10.18,3.125c5.545,3.729,9.577,10.382,9.577,22.276c0,11.086-1.814,16.73-7.156,22.477     c-3.529,3.729-8.165,5.846-13.81,5.846c-4.032,0-7.861-1.008-10.785-2.721c0.201,1.209,0.201,2.721,0.201,4.233v16.127     l-13.002,3.428v-59.671c0-6.754-0.101-8.67-0.808-13.004L464.767,231.078z M474.14,274.118c6.654,0,9.275-4.536,9.275-16.328     c0-4.939-0.404-8.871-1.312-11.392c-1.007-2.821-3.124-4.333-6.451-4.333c-3.325,0-6.551,1.41-8.97,3.93v25.099     C468.496,272.606,471.42,274.118,474.14,274.118z" fill="#164194"/>
				
				
			
				
				<path animation_id="9" d="M522.829,222.511v40.217c0,8.871,0.1,10.08,0.907,11.491c0.503,0.907,1.611,1.411,2.72,1.411     c0.504,0,0.807,0,1.513-0.201l2.318,8.062c-2.318,0.908-5.14,1.412-8.063,1.412c-5.745,0-10.382-2.722-11.994-7.056     c-1.009-2.62-1.21-4.233-1.21-11.591v-38.504c0-6.754-0.202-10.887-0.705-15.523l13.809-3.125     C522.627,211.927,522.829,215.253,522.829,222.511z" fill="#164194"/>
				
				
			
				
				<path animation_id="10" d="M580.687,277.948c-5.947,4.838-12.196,7.156-19.453,7.156c-14.817,0-24.393-10.482-24.393-26.711     c0-9.273,1.914-15.422,6.451-20.462c4.233-4.737,9.373-6.954,16.228-6.954c5.946,0,11.591,2.016,14.918,5.442     c4.738,4.839,6.854,11.794,6.854,22.578c0,1.109,0,2.218,0,3.125h-29.835v0.403c0,7.963,3.932,12.498,10.886,12.498     c4.637,0,8.97-1.713,13.104-5.141L580.687,277.948z M567.281,252.245v-0.604c0-3.83-0.403-5.847-1.613-7.761     c-1.311-2.017-3.225-3.024-5.946-3.024c-5.142,0-8.064,4.032-8.064,11.188v0.201H567.281z" fill="#164194"/>
				
				
		
			
			</g>
			
			
	
		
		</g>
		
		

	
	</g>
	
	


</svg>
