<?xml version="1.0" encoding="iso-8859-1"?>
<!-- Generator: Adobe Illustrator 15.0.0, SVG Export Plug-In . SVG Version: 6.00 Build 0)  -->
<!DOCTYPE svg
  PUBLIC '-//W3C//DTD SVG 1.1//EN'
  'http://www.w3.org/Graphics/SVG/1.1/DTD/svg11.dtd'>
<svg enable-background="new 0 0 595.275 206.929" height="206.929px" version="1.1" viewBox="-148.81875 -51.73225 892.9124999999999 310.3935" width="595.275px" x="0px" xml:space="preserve" xmlns="http://www.w3.org/2000/svg" xmlns:xlink="http://www.w3.org/1999/xlink" y="0px">
	
	
	

	
	
	<g id="Hintergrund">
</g>
	
	
	

	
	
	<g display="none" id="Hilfslinien">
</g>
	
	
	

	
	
	<g id="Vordergrund">
		
		
		
	
		
		
		<g>
			
			
			
		
			
			
			<g>
				
				
				
			
				
				
				<path animation_id="0" d="M275.255,145.647c-0.518,2.072-0.906,2.331-2.849,2.331h-42.74c-2.202,0-2.72-0.389-2.72-2.72V61.982     c0-2.331,0.518-2.72,2.72-2.72h12.044c2.203,0,2.72,0.389,2.72,2.72v70.454h31.213c1.813,0,2.331,0.648,2.331,1.684     c0,0.389-0.129,1.166-0.259,1.685L275.255,145.647z"/>
				
				
				
			
				
				
				<path animation_id="1" d="M353.871,141.114c0.258,0.389,0.388,0.908,0.388,1.425c0,3.366-12.95,7.642-23.182,7.642     c-17.096,0-29.01-9.714-29.01-33.545c0-20.592,11.007-34.838,28.362-34.838c22.017,0,25.901,19.686,25.901,35.357     c0,2.461-0.519,3.238-2.978,3.238h-34.84c0,7.252,2.073,16.188,14.247,16.188c9.325,0,14.634-4.273,16.448-4.273     c0.646,0,1.166,0.518,1.423,1.036L353.871,141.114z M338.849,108.349c0-5.311-0.391-14.506-9.327-14.506     c-10.102,0-10.619,10.879-11.008,14.506H338.849z"/>
				
				
				
			
				
				
				<path animation_id="2" d="M423.548,96.95c-0.259,0.648-0.906,1.166-1.035,1.166c-0.39,0-6.736-3.367-15.024-3.367     c-4.921,0-8.547,1.812-8.547,6.217c0,6.994,11.655,6.476,20.852,12.562c5.05,3.367,8.677,8.289,8.677,15.801     c0,11.915-8.419,20.852-22.148,20.852c-9.582,0-24.347-4.922-24.347-8.419c0-0.388,0.519-1.165,0.647-1.684l2.85-7.382     c0.258-0.648,0.518-1.166,1.036-1.166c0.518,0,10.49,5.699,18.521,5.699c4.272,0,7.899-1.814,7.899-6.477     c0-7.512-12.693-7.512-21.24-13.209c-3.886-2.592-7.642-7.125-7.642-14.637c0-11.785,8.937-21.109,22.923-21.109     c7.901,0,20.205,3.367,20.205,6.346c0,0.389-0.39,1.166-0.647,1.685L423.548,96.95z"/>
				
				
				
			
				
				
				<path animation_id="3" d="M500.996,142.022c0.131,0.387,0.391,0.905,0.391,1.295c0,3.107-10.491,6.863-18.263,6.863     c-18.002,0-28.751-11.009-28.751-32.896s11.009-35.486,30.176-35.486c6.994,0,18.392,3.887,18.392,7.9     c0,0.389-0.259,0.777-0.39,1.166l-4.792,8.418c-0.258,0.259-0.517,0.647-0.906,0.647c-1.296,0-5.568-5.181-12.304-5.181     c-8.806,0-12.692,6.734-12.692,21.629c0,14.246,3.368,20.852,13.339,20.852c6.607,0,9.198-4.404,11.528-4.404     c0.389,0,0.647,0.26,0.906,0.648L500.996,142.022z"/>
				
				
				
			
				
				
				<path animation_id="4" d="M580.907,146.165c0,1.425-0.261,1.813-1.813,1.813h-12.823c-1.552,0-1.812-0.389-1.812-1.813v-39.889     c0-4.922-0.649-10.88-7.254-10.88c-5.439,0-9.324,3.886-11.01,5.438v45.33c0,1.425-0.257,1.813-1.812,1.813h-12.821     c-1.555,0-1.815-0.389-1.815-1.813V59.134c0-1.943,0.907-1.943,2.462-2.332l10.88-2.201c0.388,0,1.554-0.389,1.812-0.389     c1.037,0,1.294,0.518,1.294,2.719v32.25c3.497-2.85,8.679-7.383,17.874-7.383c13.729,0,16.838,9.195,16.838,20.463V146.165z"/>
				
				
				
		
			
			
			</g>
			
			
			
		
			
			
			<g>
				
				
				
			
				
				
				<path animation_id="5" d="M242.954,188.211c0,0.558-0.125,0.651-0.65,0.651h-2.88c-0.526,0-0.65-0.094-0.65-0.651v-8.64h-5.883v8.64     c0,0.558-0.125,0.651-0.65,0.651h-2.881c-0.526,0-0.65-0.094-0.65-0.651v-19.912c0-0.558,0.124-0.65,0.65-0.65h2.881     c0.525,0,0.65,0.093,0.65,0.65v7.929h5.883v-7.929c0-0.558,0.125-0.65,0.65-0.65h2.88c0.526,0,0.65,0.093,0.65,0.65V188.211z"/>
				
				
				
			
				
				
				<path animation_id="6" d="M255.686,189.388c-4.8,0-7.712-3.623-7.712-11.117c0-7.525,2.942-11.148,7.712-11.148c4.769,0,7.711,3.654,7.711,11.148     S260.485,189.388,255.686,189.388z M258.999,178.271c0-4.861-0.991-7.896-3.313-7.896c-2.323,0-3.314,3.065-3.314,7.896     s0.991,7.865,3.314,7.865C258.008,186.136,258.999,183.102,258.999,178.271z"/>
				
				
				
			
				
				
				<path animation_id="7" d="M272.629,188.211c0,0.558-0.094,0.651-0.621,0.651h-2.911c-0.526,0-0.651-0.094-0.651-0.651v-19.912     c0-0.558,0.125-0.65,0.651-0.65h10.158c0.619,0,0.774,0.062,0.774,0.341c0,0.154-0.03,0.217-0.093,0.434l-0.588,2.074     c-0.124,0.465-0.465,0.496-0.713,0.496h-6.007v5.109h5.264c0.557,0,0.651,0.093,0.651,0.65v2.045c0,0.557-0.125,0.65-0.651,0.65     h-5.264V188.211z"/>
				
				
				
			
				
				
				<path animation_id="8" d="M295.764,187.405c0,0.435-0.092,0.527-0.527,0.527h-2.043c-0.434,0-0.527-0.093-0.527-0.527v-4.955h-4.955     c-0.434,0-0.527-0.092-0.527-0.525v-2.045c0-0.432,0.123-0.525,0.527-0.525h4.955v-4.955c0-0.434,0.093-0.525,0.527-0.525h2.043     c0.435,0,0.527,0.092,0.527,0.525v4.955h4.956c0.433,0,0.525,0.094,0.525,0.525v2.045c0,0.434-0.093,0.525-0.525,0.525h-4.956     V187.405z"/>
				
				
				
			
				
				
				<path animation_id="9" d="M324.291,186.973c0,1.301-3.654,2.415-6.193,2.415c-5.45,0-8.3-3.53-8.3-11.024c0-7.339,2.818-11.241,8.361-11.241     c2.787,0,5.76,1.363,5.76,1.889c0,0.094-0.03,0.217-0.156,0.465l-1.021,2.045c-0.092,0.186-0.216,0.309-0.339,0.309     c-0.186,0-1.921-1.363-4.027-1.363c-3.157,0-4.18,2.943-4.18,7.681c0,4.831,0.805,7.897,4.149,7.897     c1.146,0,1.951-0.372,2.229-0.496v-4.49h-2.322c-0.526,0-0.651-0.093-0.651-0.65v-2.044c0-0.557,0.125-0.65,0.651-0.65h5.389     c0.526,0,0.65,0.094,0.65,0.65V186.973z"/>
				
				
				
			
				
				
				<path animation_id="10" d="M340.801,188.211c0,0.558-0.093,0.651-0.621,0.651h-10.188c-0.526,0-0.649-0.094-0.649-0.651v-19.912     c0-0.558,0.123-0.65,0.649-0.65h10.158c0.62,0,0.773,0.062,0.773,0.341c0,0.154-0.031,0.217-0.093,0.434l-0.59,2.074     c-0.122,0.465-0.463,0.496-0.712,0.496h-6.007v5.109h5.266c0.557,0,0.649,0.093,0.649,0.65v2.045c0,0.557-0.125,0.65-0.649,0.65     h-5.266v6.068h6.628c0.558,0,0.65,0.094,0.65,0.65V188.211z"/>
				
				
				
			
				
				
				<path animation_id="11" d="M359.694,188.211c0,0.558-0.126,0.651-0.651,0.651h-2.88c-0.525,0-0.65-0.094-0.65-0.651v-8.64h-5.884v8.64     c0,0.558-0.124,0.651-0.65,0.651h-2.88c-0.526,0-0.65-0.094-0.65-0.651v-19.912c0-0.558,0.124-0.65,0.65-0.65h2.88     c0.526,0,0.65,0.093,0.65,0.65v7.929h5.884v-7.929c0-0.558,0.125-0.65,0.65-0.65h2.88c0.525,0,0.651,0.093,0.651,0.65V188.211z"/>
				
				
				
			
				
				
				<path animation_id="12" d="M383.232,167.989c0.124-0.619,0.31-0.619,0.464-0.619c0.186,0,0.341,0.031,0.465,0.062l2.322,0.464     c0.248,0.062,0.588,0.124,0.588,0.311c0,0.154-0.094,0.465-0.154,0.682l-4.521,19.695c-0.124,0.434-0.218,0.557-0.682,0.557     h-2.664c-0.557,0-0.588-0.092-0.681-0.557l-2.044-10.406c-0.279-1.393-0.558-3.312-0.712-5.357h-0.062     c-0.156,2.076-0.434,3.934-0.775,5.357l-2.508,10.406c-0.124,0.465-0.124,0.557-0.683,0.557h-2.663     c-0.462,0-0.588-0.123-0.682-0.557l-4.024-19.727c-0.03-0.217-0.123-0.496-0.123-0.682s0.339-0.248,0.588-0.311l2.414-0.433     c0.124-0.03,0.279-0.062,0.466-0.062c0.154,0,0.341,0,0.463,0.619l1.858,10.033c0.312,1.703,0.56,4.273,0.682,5.854h0.062     c0.187-1.766,0.62-4.273,0.99-5.854l2.199-9.445c0.155-0.65,0.188-0.929,0.93-0.929h2.104c0.496,0,0.527,0.278,0.683,0.929     l2.199,9.445c0.37,1.58,0.68,4.088,0.866,5.854h0.063c0.123-1.58,0.402-4.15,0.711-5.854L383.232,167.989z"/>
				
				
				
			
				
				
				<path animation_id="13" d="M402.653,188.211c0,0.558-0.094,0.651-0.62,0.651h-10.189c-0.525,0-0.648-0.094-0.648-0.651v-19.912     c0-0.558,0.123-0.65,0.648-0.65h10.159c0.62,0,0.773,0.062,0.773,0.341c0,0.154-0.03,0.217-0.092,0.434l-0.59,2.074     c-0.123,0.465-0.464,0.496-0.713,0.496h-6.008v5.109h5.267c0.557,0,0.649,0.093,0.649,0.65v2.045c0,0.557-0.125,0.65-0.649,0.65     h-5.267v6.068h6.629c0.557,0,0.65,0.094,0.65,0.65V188.211z"/>
				
				
				
			
				
				
				<path animation_id="14" d="M420.679,186.973c0,1.301-3.655,2.415-6.193,2.415c-5.451,0-8.299-3.53-8.299-11.024c0-7.339,2.817-11.241,8.36-11.241     c2.788,0,5.761,1.363,5.761,1.889c0,0.094-0.031,0.217-0.155,0.465l-1.021,2.045c-0.094,0.186-0.218,0.309-0.341,0.309     c-0.187,0-1.92-1.363-4.026-1.363c-3.158,0-4.18,2.943-4.18,7.681c0,4.831,0.805,7.897,4.149,7.897     c1.145,0,1.951-0.372,2.229-0.496v-4.49h-2.321c-0.527,0-0.649-0.093-0.649-0.65v-2.044c0-0.557,0.122-0.65,0.649-0.65h5.389     c0.524,0,0.649,0.094,0.649,0.65V186.973z"/>
				
				
				
			
				
				
				<path animation_id="15" d="M430.005,188.211c0,0.558-0.126,0.651-0.652,0.651h-2.879c-0.526,0-0.65-0.094-0.65-0.651v-19.912     c0-0.558,0.124-0.65,0.65-0.65h5.017c2.384,0,7.216,0.155,7.216,5.978c0,3.994-2.385,5.14-3.53,5.729l4.613,8.268     c0.093,0.156,0.249,0.403,0.249,0.589c0,0.187-0.311,0.28-0.621,0.372l-2.6,0.743c-0.124,0.03-0.31,0.062-0.435,0.062     c-0.155,0-0.401-0.371-0.711-0.96l-4.182-8.33h-1.485V188.211z M430.811,176.847c2.011,0,3.715-0.311,3.715-3.16     c0-2.693-1.765-2.786-3.375-2.786h-1.146v5.946H430.811z"/>
				
				
				
			
				
				
				<path animation_id="16" d="M455.339,188.211c0,0.558-0.092,0.651-0.62,0.651h-10.187c-0.526,0-0.65-0.094-0.65-0.651v-19.912     c0-0.558,0.124-0.65,0.65-0.65h10.157c0.619,0,0.774,0.062,0.774,0.341c0,0.154-0.033,0.217-0.094,0.434l-0.588,2.074     c-0.123,0.465-0.465,0.496-0.712,0.496h-6.009v5.109h5.266c0.558,0,0.65,0.093,0.65,0.65v2.045c0,0.557-0.126,0.65-0.65,0.65     h-5.266v6.068h6.628c0.558,0,0.649,0.094,0.649,0.65V188.211z"/>
				
				
				
			
				
				
				<path animation_id="17" d="M467.513,188.211c0,0.558-0.124,0.651-0.65,0.651h-7.587c-0.526,0-0.65-0.094-0.65-0.651v-1.672     c0-0.558,0.124-0.651,0.65-0.651h1.704v-15.267h-1.704c-0.526,0-0.65-0.093-0.65-0.649v-1.673c0-0.558,0.124-0.65,0.65-0.65     h7.587c0.526,0,0.65,0.093,0.65,0.65v1.673c0,0.557-0.124,0.649-0.65,0.649h-1.705v15.267h1.705c0.526,0,0.65,0.094,0.65,0.651     V188.211z"/>
				
				
				
			
				
				
				<path animation_id="18" d="M486.684,188.211c0,0.558-0.092,0.651-0.65,0.651h-2.043c-0.436,0-0.527-0.062-0.712-0.435l-5.668-10.56     c-0.93-1.734-1.455-2.818-1.765-4.213h-0.062c0,0.404,0.092,1.982,0.092,3.407v11.148c0,0.558-0.123,0.651-0.65,0.651h-2.26     c-0.526,0-0.65-0.094-0.65-0.651v-19.912c0-0.558,0.124-0.65,0.65-0.65h2.539c0.465,0,0.525,0.062,0.713,0.402l5.109,9.601     c0.866,1.642,1.455,3.221,1.825,4.49h0.062c0-0.992-0.093-3.158-0.093-4.025v-9.817c0-0.558,0.124-0.65,0.651-0.65h2.26     c0.527,0,0.65,0.093,0.65,0.65V188.211z"/>
				
				
				
			
				
				
				<path animation_id="19" d="M500.344,188.211c0,0.558-0.122,0.651-0.65,0.651h-7.588c-0.525,0-0.648-0.094-0.648-0.651v-1.672     c0-0.558,0.123-0.651,0.648-0.651h1.704v-15.267h-1.704c-0.525,0-0.648-0.093-0.648-0.649v-1.673c0-0.558,0.123-0.65,0.648-0.65     h7.588c0.528,0,0.65,0.093,0.65,0.65v1.673c0,0.557-0.122,0.649-0.65,0.649h-1.704v15.267h1.704c0.528,0,0.65,0.094,0.65,0.651     V188.211z"/>
				
				
				
			
				
				
				<path animation_id="20" d="M518.587,186.973c0,1.301-3.656,2.415-6.194,2.415c-5.451,0-8.299-3.53-8.299-11.024c0-7.339,2.817-11.241,8.361-11.241     c2.786,0,5.759,1.363,5.759,1.889c0,0.094-0.03,0.217-0.155,0.465l-1.021,2.045c-0.093,0.186-0.216,0.309-0.341,0.309     c-0.186,0-1.92-1.363-4.025-1.363c-3.159,0-4.181,2.943-4.181,7.681c0,4.831,0.805,7.897,4.15,7.897     c1.145,0,1.951-0.372,2.229-0.496v-4.49h-2.322c-0.526,0-0.649-0.093-0.649-0.65v-2.044c0-0.557,0.123-0.65,0.649-0.65h5.39     c0.524,0,0.65,0.094,0.65,0.65V186.973z"/>
				
				
				
			
				
				
				<path animation_id="21" d="M538.502,181.677c0,4.613-1.61,7.711-7.463,7.711c-5.854,0-7.464-3.098-7.464-7.711v-13.378     c0-0.558,0.124-0.65,0.649-0.65h2.881c0.527,0,0.65,0.093,0.65,0.65v13.378c0,2.23,0.155,4.367,3.283,4.367     c3.125,0,3.282-2.137,3.282-4.367v-13.378c0-0.558,0.124-0.65,0.65-0.65h2.88c0.526,0,0.65,0.093,0.65,0.65V181.677z"/>
				
				
				
			
				
				
				<path animation_id="22" d="M558.666,188.211c0,0.558-0.093,0.651-0.651,0.651h-2.043c-0.434,0-0.526-0.062-0.712-0.435l-5.667-10.56     c-0.931-1.734-1.456-2.818-1.766-4.213h-0.062c0,0.404,0.094,1.982,0.094,3.407v11.148c0,0.558-0.125,0.651-0.651,0.651h-2.26     c-0.526,0-0.65-0.094-0.65-0.651v-19.912c0-0.558,0.124-0.65,0.65-0.65h2.54c0.465,0,0.524,0.062,0.713,0.402l5.107,9.601     c0.867,1.642,1.455,3.221,1.827,4.49h0.062c0-0.992-0.093-3.158-0.093-4.025v-9.817c0-0.558,0.124-0.65,0.65-0.65h2.26     c0.527,0,0.651,0.093,0.651,0.65V188.211z"/>
				
				
				
			
				
				
				<path animation_id="23" d="M578.18,186.973c0,1.301-3.654,2.415-6.193,2.415c-5.451,0-8.3-3.53-8.3-11.024c0-7.339,2.817-11.241,8.361-11.241     c2.787,0,5.76,1.363,5.76,1.889c0,0.094-0.031,0.217-0.154,0.465l-1.022,2.045c-0.093,0.186-0.217,0.309-0.34,0.309     c-0.186,0-1.92-1.363-4.027-1.363c-3.156,0-4.18,2.943-4.18,7.681c0,4.831,0.805,7.897,4.149,7.897     c1.146,0,1.951-0.372,2.231-0.496v-4.49h-2.323c-0.528,0-0.65-0.093-0.65-0.65v-2.044c0-0.557,0.122-0.65,0.65-0.65h5.388     c0.526,0,0.65,0.094,0.65,0.65V186.973z"/>
				
				
				
		
			
			
			</g>
			
			
			
		
			
			
			
			<polygon animation_id="24" clip-rule="evenodd" fill="#F7A600" fill-rule="evenodd" points="    36.112,90.509 52.82,91.685 72.802,92.365 88.782,92.706 118.028,92.024 140.558,90.509 159.084,90.509 171.624,90.509     170.896,93.728 170.532,103.079 171.624,107.167 159.084,107.847 138.011,110.231 117.861,110.948 116.287,109.476     103.705,110.36 76.441,111.407 59.9,111.749 41.009,111.407 34.866,106.086 33.565,100.54   " stroke="#F7A600" stroke-miterlimit="3.8637" stroke-width="0"/>
			
			
			
		
			
			
			
			<polygon animation_id="25" clip-rule="evenodd" fill="#004F9F" fill-rule="evenodd" points="    146.89,120.864 160.229,118.544 166.6,121.196 166.6,129.964 164.277,141.865 165.051,149.308 164.277,153.616 153.647,153.947     149.987,152.621 141.818,154.002 145.341,145.538 144.958,133.498 145.341,126.192   " stroke="#004F9F" stroke-miterlimit="3.8637" stroke-width="0"/>
			
			
			
		
			
			
			
			<polygon animation_id="26" clip-rule="evenodd" fill="#EC6608" fill-rule="evenodd" points="    26.591,74.821 32.682,69.289 41.631,62.519 46.931,58.786 57.32,49.597 58.835,49.653 67.786,41.573 75.88,33.505 84.687,26.634     96.66,19.569 102.81,14.958 109.834,20.796 118.389,27.37 125.292,32.522 133.464,37.579 141.319,44.444 148.412,52.526     158.923,59.646 163.049,62.746 173.754,69.812 178.823,75.37 171.346,79.454 163.049,81.487 157.188,79.454 148.923,74.177     140.686,66.866 132.422,60.688 121.909,51.39 122.441,50.528 113.636,44.935 102.875,37.753 95.061,42.882 86.554,50.522     73.341,58.777 62.656,66.513 54.786,73.931 48.198,82.224 38.567,81.241   " stroke="#EC6608" stroke-miterlimit="3.8637" stroke-width="0"/>
			
			
			
		
			
			
			
			<polygon animation_id="27" clip-rule="evenodd" fill="#004F9F" fill-rule="evenodd" points="    44.235,119.804 57.967,121.156 64.467,124.829 65.703,131.942 63.232,146.384 64.056,154.163 51.933,155.206 44.235,152.772     42.689,138.548   " stroke="#004F9F" stroke-miterlimit="3.8637" stroke-width="0"/>
			
			
			
		
			
			
			
			<polygon animation_id="28" clip-rule="evenodd" fill="#76B82A" fill-rule="evenodd" points="    19.532,167.087 40.845,166.057 49.608,163.649 53.207,163.649 67.612,164.517 83.507,166.251 101.154,165.713 115.426,165.024     136.896,165.369 149.444,164.337 157.52,163.993 166.283,163.993 177.455,164.681 188.972,165.369 191.382,167.432     189.072,172.771 189.94,184.673 189.245,187.624 175.734,189.407 156.143,191.628 138.594,191.444 137.553,190.403     128.949,190.228 110.949,191.972 95.145,190.597 85.004,191.284 77.083,190.749 64.565,189.187 53.011,189.708 51.933,190.597     45.821,190.097 35.336,189.753 24.508,191.628 17.466,189.753 14.368,183.219 16.787,176.243 16.092,169.03   " stroke="#76B82A" stroke-miterlimit="3.8637" stroke-width="0"/>
			
			
			
	
		
		
		</g>
		
		
		

	
	
	</g>
	
	
	



</svg>
