<?xml version="1.0" encoding="iso-8859-1"?>
<!-- Created with Inkscape (http://www.inkscape.org/) -->
<svg height="240" id="svg3261" version="1.1" width="904" xmlns="http://www.w3.org/2000/svg" xmlns:cc="http://creativecommons.org/ns#" xmlns:dc="http://purl.org/dc/elements/1.1/" xmlns:rdf="http://www.w3.org/1999/02/22-rdf-syntax-ns#" xmlns:svg="http://www.w3.org/2000/svg">
	
  
	<defs id="defs3263">
		
    
		<clipPath id="clipPath3057">
			
      
			<path animation_id="0" d="m 396.211,743.873 159.38,0 0,41.323 -159.38,0 0,-41.323 z" id="path3059"/>
			
    
		</clipPath>
		
  
	</defs>
	
  
	<metadata id="metadata3266">
		
    
		<rdf:RDF>
			
      
			<cc:Work rdf:about="">
				
        
				<dc:format>image/svg+xml</dc:format>
				
        
				<dc:type rdf:resource="http://purl.org/dc/dcmitype/StillImage"/>
				
        
				<dc:title/>
				
      
			</cc:Work>
			
    
		</rdf:RDF>
		
  
	</metadata>
	
  
	<g id="layer1" transform="translate(0,-528)">
		
    
		<g id="g3053" transform="matrix(5.625,0,0,-5.625,-2224.9409,4948.5091)">
			
      
			<g clip-path="url(#clipPath3057)" id="g3055">
				
        
				<g id="g3061" transform="translate(409.5382,778.4027)">
					
          
					<path animation_id="1" d="m 0,0 c -0.958,1.423 -2.468,2.149 -4.675,2.149 -1.597,0 -3.281,-0.668 -4.471,-1.829 l -0.726,1.683 -3.455,-0.231 0,-16.551 4.79,0 0,11.847 c 0.523,0.697 1.51,1.161 2.555,1.161 1.801,0 2.497,-0.755 2.497,-2.265 l 0,-10.743 4.734,0 0,11.557 c 0.406,0.754 1.422,1.451 2.555,1.451 1.829,0 2.526,-0.843 2.526,-2.41 l 0,-10.598 4.762,0 0,10.685 c 0,3.92 -2.294,6.243 -6.098,6.243 C 2.874,2.149 1.162,1.394 0,0" id="path3063" style="fill:#868e93;fill-opacity:1;fill-rule:nonzero;stroke:none"/>
					
        
				</g>
				
        
				<g id="g3065" transform="translate(465.0842,780.4062)">
					
          
					<path animation_id="2" d="m 0,0 -3.774,-0.232 0,-16.551 4.79,0 0,9.059 c 0.552,2.353 2.033,3.485 4.036,3.485 0.755,0 1.307,-0.087 1.975,-0.203 l 0.348,4.384 C 6.853,0.058 6.214,0.174 5.314,0.174 c -1.888,0 -3.746,-0.812 -4.849,-2.7 L 0,0 z" id="path3067" style="fill:#868e93;fill-opacity:1;fill-rule:nonzero;stroke:none"/>
					
        
				</g>
				
        
				<g id="g3069" transform="translate(494.1202,784.82)">
					
          
					<path animation_id="3" d="m 0,0 0,-21.197 4.791,0 0,21.574 L 0,0 z" id="path3071" style="fill:#868e93;fill-opacity:1;fill-rule:nonzero;stroke:none"/>
					
        
				</g>
				
        
				<g id="g3073" transform="translate(445.9208,780.4062)">
					
          
					<path animation_id="4" d="m 0,0 -3.485,-0.232 0,-16.551 4.791,0 0,11.818 c 0.581,0.726 1.742,1.19 2.904,1.19 2.062,0 2.758,-0.754 2.758,-2.439 l 0,-10.569 4.792,0 0,10.569 c 0,4.007 -2.382,6.388 -6.273,6.388 -1.828,0 -3.426,-0.754 -4.761,-1.858 L 0,0 z" id="path3075" style="fill:#868e93;fill-opacity:1;fill-rule:nonzero;stroke:none"/>
					
        
				</g>
				
        
				<g id="g3077" transform="translate(550.1879,768.1526)">
					
          
					<path animation_id="5" d="m 0,0 c -0.261,-0.406 -1.132,-1.306 -2.961,-1.306 -2.497,0 -3.253,1.162 -3.253,4.935 0,3.572 0.814,4.879 3.283,4.879 1.364,0 2.322,-0.435 2.931,-1.045 L 0,0 z m 0.93,-4.529 3.832,0 0,21.573 L 0,16.667 0,11.005 c -1.19,0.929 -2.757,1.423 -4.268,1.423 -4.383,0 -6.852,-3.02 -6.852,-8.625 0,-5.865 2.264,-8.623 6.91,-8.623 2.062,0 3.572,0.668 4.675,1.799 L 0.93,-4.529 z" id="path3079" style="fill:#868e93;fill-opacity:1;fill-rule:nonzero;stroke:none"/>
					
        
				</g>
				
        
				<g id="g3081" transform="translate(524.2308,780.4062)">
					
          
					<path animation_id="6" d="m 0,0 -3.484,-0.232 0,-16.551 4.79,0 0,11.818 c 0.581,0.726 1.743,1.19 2.903,1.19 2.063,0 2.76,-0.754 2.76,-2.439 l 0,-10.569 4.79,0 0,10.569 c 0,4.007 -2.381,6.388 -6.272,6.388 -1.828,0 -3.426,-0.754 -4.762,-1.858 L 0,0 z" id="path3083" style="fill:#868e93;fill-opacity:1;fill-rule:nonzero;stroke:none"/>
					
        
				</g>
				
        
				<g id="g3085" transform="translate(438.7775,773.4944)">
					
          
					<path animation_id="7" d="m 0,0 c 0,4.793 -2.497,7.057 -7.898,7.057 -2.497,0 -4.675,-0.29 -5.837,-0.494 l 0.408,-3.716 c 0.987,0.145 3.02,0.406 4.674,0.406 3.107,0 3.891,-0.842 3.891,-2.09 l 0,-0.552 -3.484,0 c -4.588,0 -6.969,-2.092 -6.969,-5.4 0,-3.457 2.207,-5.373 5.778,-5.373 2.527,0 4.008,0.784 4.966,1.799 L -4.007,-9.871 0,-9.871 0,0 z m -4.762,-5.109 c -0.378,-0.611 -1.306,-1.394 -3.194,-1.394 -1.481,0 -2.467,0.32 -2.467,1.887 0,1.538 1.19,1.888 3.019,1.888 l 2.642,0 0,-2.381 z" id="path3087" style="fill:#868e93;fill-opacity:1;fill-rule:nonzero;stroke:none"/>
					
        
				</g>
				
        
				<g id="g3089" transform="translate(473.4467,771.9851)">
					
          
					<path animation_id="8" d="m 0,0 c 0,-4.935 3.977,-8.914 8.914,-8.914 4.935,0 8.914,3.979 8.914,8.914 0,4.937 -3.979,8.915 -8.914,8.915 C 3.977,8.915 0,4.937 0,0 m 4.616,0 c 0,2.382 1.916,4.356 4.298,4.356 2.381,0 4.297,-1.974 4.297,-4.356 0,-2.381 -1.916,-4.355 -4.297,-4.355 -2.382,0 -4.298,1.974 -4.298,4.355" id="path3091" style="fill:#00507a;fill-opacity:1;fill-rule:nonzero;stroke:none"/>
					
        
				</g>
				
        
				<g id="g3093" transform="translate(517.1171,773.4944)">
					
          
					<path animation_id="9" d="m 0,0 c 0,4.793 -2.498,7.057 -7.898,7.057 -2.497,0 -4.676,-0.29 -5.837,-0.494 l 0.407,-3.716 c 0.987,0.145 3.02,0.406 4.674,0.406 3.108,0 3.892,-0.842 3.892,-2.09 l 0,-0.552 -3.485,0 c -4.587,0 -6.968,-2.092 -6.968,-5.4 0,-3.457 2.206,-5.373 5.777,-5.373 2.527,0 4.008,0.784 4.966,1.799 L -4.007,-9.871 0,-9.871 0,0 z m -4.762,-5.109 c -0.378,-0.611 -1.307,-1.394 -3.195,-1.394 -1.481,0 -2.467,0.32 -2.467,1.887 0,1.538 1.19,1.888 3.02,1.888 l 2.642,0 0,-2.381 z" id="path3095" style="fill:#868e93;fill-opacity:1;fill-rule:nonzero;stroke:none"/>
					
        
				</g>
				
        
				<g id="g3097" transform="translate(481.9446,746.7435)">
					
          
					<path animation_id="10" d="M 0,0 -1.242,0 -2.941,5.054 -4.626,0 l -1.256,0 -2.242,7.238 1.542,0 1.399,-5.096 1.685,5.096 1.128,0 1.671,-5.096 1.399,5.096 1.556,0 L 0,0 z" id="path3099" style="fill:#00507a;fill-opacity:1;fill-rule:nonzero;stroke:none"/>
					
        
				</g>
				
        
				<g id="g3101" transform="translate(489.5405,751.941)">
					
          
					<path animation_id="11" d="M 0,0 C -0.227,0.543 -0.741,0.913 -1.427,0.913 -2.113,0.913 -2.642,0.543 -2.87,0 -3.012,-0.329 -3.041,-0.542 -3.055,-0.985 l 3.255,0 C 0.186,-0.542 0.143,-0.329 0,0 m -3.055,-1.999 c 0,-1.243 0.657,-2.028 1.842,-2.028 0.814,0 1.243,0.228 1.757,0.742 l 0.927,-0.87 C 0.729,-4.898 0.03,-5.284 -1.242,-5.284 c -1.813,0 -3.255,0.957 -3.255,3.713 0,2.342 1.214,3.698 3.07,3.698 1.941,0 3.07,-1.428 3.07,-3.484 l 0,-0.642 -4.698,0 z" id="path3103" style="fill:#00507a;fill-opacity:1;fill-rule:nonzero;stroke:none"/>
					
        
				</g>
				
        
				<g id="g3105" transform="translate(496.0802,752.769)">
					
          
					<path animation_id="12" d="m 0,0 c -1.314,0 -1.514,-1.113 -1.514,-2.399 0,-1.285 0.2,-2.414 1.514,-2.414 1.314,0 1.5,1.129 1.5,2.414 C 1.5,-1.113 1.314,0 0,0 m 2.141,-5.469 c -0.399,-0.4 -1.042,-0.643 -1.77,-0.643 -0.785,0 -1.371,0.2 -1.913,0.858 l 0,-0.772 -1.428,0 0,10.167 1.456,0 0,-3.655 c 0.528,0.627 1.129,0.813 1.9,0.813 0.727,0 1.356,-0.242 1.755,-0.643 0.729,-0.727 0.814,-1.955 0.814,-3.055 0,-1.1 -0.085,-2.341 -0.814,-3.07" id="path3107" style="fill:#00507a;fill-opacity:1;fill-rule:nonzero;stroke:none"/>
					
        
				</g>
				
        
				<g id="g3109" transform="translate(506.7751,746.6572)">
					
          
					<path animation_id="13" d="m 0,0 c -1.186,0 -2.186,0.2 -3.042,1.042 l 0.957,0.957 C -1.5,1.4 -0.715,1.242 0,1.242 c 0.885,0 1.585,0.314 1.585,1 0,0.486 -0.272,0.8 -0.972,0.857 l -1.156,0.1 c -1.357,0.114 -2.142,0.728 -2.142,1.998 0,1.415 1.214,2.214 2.728,2.214 1.084,0 2.013,-0.228 2.684,-0.814 L 1.813,5.669 c -0.457,0.386 -1.1,0.528 -1.785,0.528 -0.871,0 -1.313,-0.385 -1.313,-0.927 0,-0.429 0.228,-0.757 0.999,-0.829 l 1.142,-0.1 C 2.213,4.227 3.012,3.584 3.012,2.299 3.012,0.785 1.727,0 0,0" id="path3111" style="fill:#00507a;fill-opacity:1;fill-rule:nonzero;stroke:none"/>
					
        
				</g>
				
        
				<g id="g3113" transform="translate(513.8271,745.3009)">
					
          
					<path animation_id="14" d="m 0,0 c -0.142,-0.399 -0.314,-0.685 -0.528,-0.899 -0.399,-0.4 -0.927,-0.528 -1.484,-0.528 l -0.586,0 0,1.313 0.371,0 c 0.614,0 0.828,0.186 1.043,0.771 l 0.399,1.128 -2.527,6.896 1.542,0 1.727,-5.097 1.686,5.097 1.556,0 L 0,0 z" id="path3115" style="fill:#00507a;fill-opacity:1;fill-rule:nonzero;stroke:none"/>
					
        
				</g>
				
        
				<g id="g3117" transform="translate(520.5813,746.6572)">
					
          
					<path animation_id="15" d="m 0,0 c -1.186,0 -2.185,0.2 -3.042,1.042 l 0.957,0.957 C -1.5,1.4 -0.715,1.242 0,1.242 c 0.885,0 1.585,0.314 1.585,1 0,0.486 -0.271,0.8 -0.971,0.857 l -1.157,0.1 c -1.357,0.114 -2.142,0.728 -2.142,1.998 0,1.415 1.214,2.214 2.728,2.214 1.085,0 2.013,-0.228 2.684,-0.814 L 1.813,5.669 c -0.457,0.386 -1.1,0.528 -1.784,0.528 -0.872,0 -1.314,-0.385 -1.314,-0.927 0,-0.429 0.228,-0.757 0.999,-0.829 l 1.142,-0.1 C 2.213,4.227 3.012,3.584 3.012,2.299 3.012,0.785 1.727,0 0,0" id="path3119" style="fill:#00507a;fill-opacity:1;fill-rule:nonzero;stroke:none"/>
					
        
				</g>
				
        
				<g id="g3121" transform="translate(527.3909,746.7435)">
					
          
					<path animation_id="16" d="m 0,0 c -1.356,0 -1.984,0.97 -1.984,2.013 l 0,3.984 -0.828,0 0,1.114 0.828,0 0,2.198 1.456,0 0,-2.198 1.4,0 0,-1.114 -1.4,0 0,-3.912 c 0,-0.529 0.257,-0.843 0.799,-0.843 l 0.601,0 L 0.872,0 0,0 z" id="path3123" style="fill:#00507a;fill-opacity:1;fill-rule:nonzero;stroke:none"/>
					
        
				</g>
				
        
				<g id="g3125" transform="translate(534.1451,751.941)">
					
          
					<path animation_id="17" d="M 0,0 C -0.229,0.543 -0.743,0.913 -1.427,0.913 -2.113,0.913 -2.642,0.543 -2.87,0 -3.013,-0.329 -3.042,-0.542 -3.056,-0.985 l 3.256,0 C 0.186,-0.542 0.143,-0.329 0,0 m -3.056,-1.999 c 0,-1.243 0.657,-2.028 1.842,-2.028 0.814,0 1.242,0.228 1.756,0.742 l 0.929,-0.87 c -0.743,-0.743 -1.443,-1.129 -2.714,-1.129 -1.813,0 -3.255,0.957 -3.255,3.713 0,2.342 1.213,3.698 3.071,3.698 1.941,0 3.068,-1.428 3.068,-3.484 l 0,-0.642 -4.697,0 z" id="path3127" style="fill:#00507a;fill-opacity:1;fill-rule:nonzero;stroke:none"/>
					
        
				</g>
				
        
				<g id="g3129" transform="translate(546.5378,746.7435)">
					
          
					<path animation_id="18" d="m 0,0 0,4.412 c 0,1.128 -0.642,1.614 -1.457,1.614 -0.785,0 -1.498,-0.5 -1.498,-1.543 l 0,-4.483 -1.457,0 0,4.412 c 0,1.128 -0.642,1.614 -1.457,1.614 -0.813,0 -1.498,-0.5 -1.498,-1.614 l 0,-4.412 -1.457,0 0,7.238 1.428,0 0,-0.727 c 0.486,0.528 1.199,0.814 1.928,0.814 0.898,0 1.598,-0.358 2.056,-1.057 0.585,0.713 1.313,1.057 2.27,1.057 0.742,0 1.399,-0.243 1.828,-0.658 C 1.243,6.125 1.457,5.44 1.457,4.625 L 1.457,0 0,0 z" id="path3131" style="fill:#00507a;fill-opacity:1;fill-rule:nonzero;stroke:none"/>
					
        
				</g>
				
        
				<g id="g3133" transform="translate(552.578,746.6572)">
					
          
					<path animation_id="19" d="m 0,0 c -1.186,0 -2.186,0.2 -3.042,1.042 l 0.957,0.957 C -1.5,1.4 -0.715,1.242 0,1.242 c 0.885,0 1.585,0.314 1.585,1 0,0.486 -0.272,0.8 -0.972,0.857 l -1.156,0.1 c -1.357,0.114 -2.142,0.728 -2.142,1.998 0,1.415 1.214,2.214 2.728,2.214 1.084,0 2.013,-0.228 2.684,-0.814 L 1.813,5.669 c -0.457,0.386 -1.1,0.528 -1.785,0.528 -0.871,0 -1.313,-0.385 -1.313,-0.927 0,-0.429 0.228,-0.757 0.999,-0.829 l 1.142,-0.1 C 2.213,4.227 3.012,3.584 3.012,2.299 3.012,0.785 1.727,0 0,0" id="path3135" style="fill:#00507a;fill-opacity:1;fill-rule:nonzero;stroke:none"/>
					
        
				</g>
				
      
			</g>
			
    
		</g>
		
  
	</g>
	

</svg>
