<?xml version="1.0" encoding="iso-8859-1"?>
<!-- Created with Inkscape (http://www.inkscape.org/) -->
<svg height="100" id="svg2" version="1.0" width="660" xml:space="preserve" xmlns="http://www.w3.org/2000/svg" xmlns:svg="http://www.w3.org/2000/svg">
	<defs id="defs5"/>
	<g id="g11" transform="matrix(1.25,0,0,-1.25,-59.506375,297.83427)">
		<path animation_id="0" d="M 97.202325,212.10077 C 94.080157,216.71655 89.194458,219.06492 82.018869,219.06492 C 76.840747,219.06492 71.365706,216.9055 67.501235,213.13551 L 65.152861,218.59706 L 53.92835,217.84575 L 53.92835,164.19754 L 69.47621,164.19754 L 69.47621,202.59932 C 71.176756,204.8532 74.384402,206.3603 77.776499,206.3603 C 83.615943,206.3603 85.88334,203.91746 85.88334,199.01826 L 85.88334,164.19754 L 101.25575,164.19754 L 101.25575,201.66356 C 102.5694,204.1019 105.86702,206.3603 109.54704,206.3603 C 115.48546,206.3603 117.75285,203.63404 117.75285,198.55039 L 117.75285,164.19754 L 133.19724,164.19754 L 133.19724,198.84281 C 133.19724,211.53843 125.76072,219.06492 113.40701,219.06492 C 106.52834,219.06492 100.95883,216.62207 97.202325,212.10077" id="path43" style="fill:#868d91;fill-opacity:1;fill-rule:nonzero;stroke:none"/>
		<path animation_id="1" d="M 277.5251,218.5957 L 265.27937,217.8444 L 265.27937,164.20068 L 280.82722,164.20068 L 280.82722,193.55987 C 282.62224,201.18984 287.42697,204.85637 293.93223,204.85637 C 296.38408,204.85637 298.18359,204.57293 300.34302,204.19953 L 301.47222,218.40674 C 299.78068,218.78464 297.70223,219.15805 294.77801,219.15805 C 288.65963,219.15805 282.62224,216.52624 279.0277,210.39888 L 277.5251,218.5957 z" id="path47" style="fill:#868d91;fill-opacity:1;fill-rule:nonzero;stroke:none"/>
		<path animation_id="2" d="M 371.80335,232.8983 L 371.80335,164.19708 L 387.3512,164.19708 L 387.3512,234.13096 L 371.80335,232.8983 z" id="path51" style="fill:#868d91;fill-opacity:1;fill-rule:nonzero;stroke:none"/>
		<path animation_id="3" d="M 215.30757,218.5957 L 203.99758,217.8444 L 203.99758,164.20068 L 219.55895,164.20068 L 219.55895,202.50798 C 221.44843,204.85637 225.20943,206.35895 228.98843,206.35895 C 235.66914,206.35895 237.92305,203.91611 237.92305,198.45456 L 237.92305,164.20068 L 253.4844,164.20068 L 253.4844,198.45456 C 253.4844,211.4426 245.75997,219.15805 233.13632,219.15805 C 227.19341,219.15805 222.01529,216.7152 217.66945,213.13416 L 215.30757,218.5957 z" id="path63" style="fill:#868d91;fill-opacity:1;fill-rule:nonzero;stroke:none"/>
		<path animation_id="4" d="M 556.84716,164.19843 L 569.28185,164.19843 L 569.28185,234.13231 L 553.82846,232.89965 L 553.82846,214.55353 C 549.955,217.56323 544.86685,219.1603 539.95867,219.1603 C 525.73795,219.1603 517.71659,209.3664 517.71659,191.20924 C 517.71659,172.1838 525.08111,163.25819 540.16111,163.25819 C 546.85533,163.25819 551.75002,165.42211 555.33106,169.08414 L 556.84716,164.19843 z M 553.82846,178.87803 C 552.9692,177.56438 550.15295,174.64916 544.21003,174.64916 C 536.09419,174.64916 533.65134,178.41015 533.65134,190.6469 C 533.65134,202.22231 536.29664,206.46468 544.30451,206.46468 C 548.73132,206.46468 551.8445,205.04306 553.82846,203.07258 L 553.82846,178.87803 z" id="path67" style="fill:#868d91;fill-opacity:1;fill-rule:nonzero;stroke:none"/>
		<path animation_id="5" d="M 469.55737,218.5957 L 458.23838,217.8444 L 458.23838,164.20068 L 473.79523,164.20068 L 473.79523,202.50798 C 475.67573,204.85637 479.44572,206.35895 483.21572,206.35895 C 489.90994,206.35895 492.17283,203.91611 492.17283,198.45456 L 492.17283,164.20068 L 507.7342,164.20068 L 507.7342,198.45456 C 507.7342,211.4426 499.99625,219.15805 487.35912,219.15805 C 481.4297,219.15805 476.23808,216.7152 471.90573,213.13416 L 469.55737,218.5957 z" id="path71" style="fill:#868d91;fill-opacity:1;fill-rule:nonzero;stroke:none"/>
		<path animation_id="6" d="M 176.65927,179.62977 C 175.44009,177.6593 172.42139,175.12198 166.28952,175.12198 C 161.4848,175.12198 158.28166,176.1522 158.28166,181.22685 C 158.28166,186.22951 162.14612,187.35871 168.08455,187.35871 L 176.65927,187.35871 L 176.65927,179.62977 z M 192.12614,196.18987 C 192.12614,211.73772 184.0238,219.06627 166.47848,219.06627 C 158.37614,219.06627 151.30401,218.12603 147.53403,217.46919 L 148.86117,205.42141 C 152.05531,205.88928 158.65506,206.73506 164.03562,206.73506 C 174.11295,206.73506 176.65927,204.00878 176.65927,199.96887 L 176.65927,198.18733 L 165.36278,198.18733 C 150.45825,198.18733 142.72031,191.39864 142.72031,180.66451 C 142.72031,169.47148 149.89589,163.25863 161.4848,163.25863 C 169.68163,163.25863 174.49985,165.79595 177.60851,169.08458 L 179.11561,164.19889 L 192.12614,164.19889 L 192.12614,196.18987 z" id="path75" style="fill:#868d91;fill-opacity:1;fill-rule:nonzero;stroke:none"/>
		<path animation_id="7" d="M 319.67302,191.30282 C 319.67302,199.01826 325.88587,205.42006 333.61481,205.42006 C 341.35275,205.42006 347.5656,199.01826 347.5656,191.30282 C 347.5656,183.58738 341.35275,177.18557 333.61481,177.18557 C 325.88587,177.18557 319.67302,183.58738 319.67302,191.30282 M 304.67853,191.30282 C 304.67853,175.30959 317.58108,162.40252 333.61481,162.40252 C 349.64404,162.40252 362.54661,175.30959 362.54661,191.30282 C 362.54661,207.29606 349.64404,220.19412 333.61481,220.19412 C 317.58108,220.19412 304.67853,207.29606 304.67853,191.30282" id="path79" style="fill:#005078;fill-opacity:1;fill-rule:nonzero;stroke:none"/>
		<path animation_id="8" d="M 431.00263,179.62977 C 429.76996,177.6593 426.75126,175.12198 420.61939,175.12198 C 415.81917,175.12198 412.61152,176.1522 412.61152,181.22685 C 412.61152,186.22951 416.47599,187.35871 422.41891,187.35871 L 431.00263,187.35871 L 431.00263,179.62977 z M 446.45601,196.18987 C 446.45601,211.73772 438.34467,219.06627 420.80835,219.06627 C 412.706,219.06627 405.63838,218.12603 401.86839,217.46919 L 403.18204,205.42141 C 406.39868,205.88928 412.98942,206.73506 418.35649,206.73506 C 428.45631,206.73506 431.00263,204.00878 431.00263,199.96887 L 431.00263,198.18733 L 419.68365,198.18733 C 404.77912,198.18733 397.06367,191.39864 397.06367,180.66451 C 397.06367,169.47148 404.21676,163.25863 415.81917,163.25863 C 424.02499,163.25863 428.82072,165.79595 431.94288,169.08458 L 433.44548,164.19889 L 446.45601,164.19889 L 446.45601,196.18987 z" id="path83" style="fill:#868d91;fill-opacity:1;fill-rule:nonzero;stroke:none"/>
	</g>
</svg>
