<?xml version="1.0" encoding="iso-8859-1"?>
<svg height="706.63" id="svg3336" version="1.1" viewBox="0 0 5399.1299 706.63" width="5399.1299" xml:space="preserve" xmlns="http://www.w3.org/2000/svg" xmlns:cc="http://creativecommons.org/ns#" xmlns:dc="http://purl.org/dc/elements/1.1/" xmlns:rdf="http://www.w3.org/1999/02/22-rdf-syntax-ns#" xmlns:svg="http://www.w3.org/2000/svg">
	<metadata id="metadata3342">
		<rdf:RDF>
			<cc:Work rdf:about="">
				<dc:format>image/svg+xml</dc:format>
				<dc:type rdf:resource="http://purl.org/dc/dcmitype/StillImage"/>
				<dc:title/>
			</cc:Work>
		</rdf:RDF>
	</metadata>
	<defs id="defs3340">
		<clipPath clipPathUnits="userSpaceOnUse" id="clipPath3350">
			<path animation_id="0" d="m 596.152,102.048 -597.1679,0 0,532.913 597.1679,0 0,-532.913 M 27.371,239.4 l 0,-115.92 474.481,0 0,115.92 -474.481,0" id="path3352"/>
		</clipPath>
		<clipPath clipPathUnits="userSpaceOnUse" id="clipPath3356">
			<path animation_id="1" d="m 0.029999,634.961 595.246001,0 0,-532.913 -595.246001,0 0,532.913 z" id="path3358"/>
		</clipPath>
		<clipPath clipPathUnits="userSpaceOnUse" id="clipPath3368">
			<path animation_id="2" d="m 0.029999,793.701 595.246001,0 0,-793.671 -595.246001,0 0,793.671 z" id="path3370"/>
		</clipPath>
		<clipPath clipPathUnits="userSpaceOnUse" id="clipPath3576">
			<path animation_id="3" d="m 501.852,123.48 -474.481,0 0,115.92 474.481,0 0,-115.92" id="path3578"/>
		</clipPath>
	</defs>
	<g id="g3344" transform="matrix(1.25,0,0,-1.25,-35.4325,1574.995)">
		<g id="g3424" transform="matrix(8,0,0,8,1280.586,1251.668)">
			<path animation_id="4" d="M 0,0 33.613,0 C 47.202,0 58.862,-11.053 58.261,-24.63 57.764,-35.932 50.529,-44.424 39.448,-46.711 l 18.845,-21.173 -24.092,0 -13.815,16.452 0,-16.452 L 0,-67.884 0,0 Z m 20.386,-33.304 10.611,0 c 4.004,1.136 6.43,4.504 6.237,8.662 -0.196,4.231 -3.009,8.088 -7.245,8.088 l -9.603,0 0,-16.75" id="path3426" style="fill:#b00931;fill-opacity:1;fill-rule:evenodd;stroke:none"/>
		</g>
		<g id="g3428" transform="matrix(8,0,0,8,1280.586,1251.668)">
			<path animation_id="5" d="M 0,0 33.613,0 C 47.202,0 58.862,-11.053 58.261,-24.63 57.764,-35.932 50.529,-44.424 39.448,-46.711 l 18.845,-21.173 -24.092,0 -13.815,16.452 0,-16.452 L 0,-67.884 0,0 Z m 20.386,-33.304 10.611,0 c 4.004,1.136 6.43,4.504 6.237,8.662 -0.196,4.231 -3.009,8.088 -7.245,8.088 l -9.603,0 0,-16.75" id="path3430" style="fill:#b00931;fill-opacity:1;fill-rule:nonzero;stroke:none"/>
		</g>
		<path animation_id="6" d="m 1762.746,708.596 164.152,0 0,543.072 -164.152,0 0,-543.072 z" id="path3432" style="fill:#b00931;fill-opacity:1;fill-rule:nonzero;stroke:none"/>
		<g id="g3434" transform="matrix(8,0,0,8,1926.898,1028.044)">
			<path animation_id="7" d="m 0,0 19.269,27.953 22.631,0 -23.334,-34.431 9.835,-14.261 0,-19.192 -12.032,0 L 0,-16.044 0,0" id="path3436" style="fill:#b00931;fill-opacity:1;fill-rule:nonzero;stroke:none"/>
		</g>
		<g id="g3438" transform="matrix(8,0,0,8,28.346,708.596)">
			<path animation_id="8" d="m 0,0 46.498,67.884 19.537,0 0,-30.892 21.298,30.892 18.939,0 0.049,-39.806 27.278,39.806 18.868,0 0,-67.884 -18.209,0 0,8.922 -18.479,0 L 108.416,0 86.991,0 l 0,34.581 L 63.291,0 47.015,0 l 0,34.581 L 23.523,0 0,0 Z m 134.258,24.827 0,11.191 -7.887,-11.191 7.887,0" id="path3440" style="fill:#b00931;fill-opacity:1;fill-rule:evenodd;stroke:none"/>
		</g>
		<g id="g3442" transform="matrix(8,0,0,8,28.346,708.596)">
			<path animation_id="9" d="m 0,0 46.498,67.884 19.537,0 0,-30.892 21.298,30.892 18.939,0 0.049,-39.806 27.278,39.806 18.868,0 0,-67.884 -18.209,0 0,8.922 -18.479,0 L 108.416,0 86.991,0 l 0,34.581 L 63.291,0 47.015,0 l 0,34.581 L 23.523,0 0,0 Z m 134.258,24.827 0,11.191 -7.887,-11.191 7.887,0" id="path3444" style="fill:#b00931;fill-opacity:1;fill-rule:nonzero;stroke:none"/>
		</g>
		<g id="g3446" transform="matrix(8,0,0,8,2199.89,933.22)">
			<path animation_id="10" d="m 0,0 27.28,39.806 18.868,0 0,-67.884 -18.282,0 0,8.922 -18.407,0 -7.364,-8.922 -8.991,0 -11.35,1.779 L 0,0 Z m 27.938,-3.252 0,11.191 -7.887,-11.191 7.887,0" id="path3448" style="fill:#b00931;fill-opacity:1;fill-rule:evenodd;stroke:none"/>
		</g>
		<g id="g3450" transform="matrix(8,0,0,8,2199.89,933.22)">
			<path animation_id="11" d="m 0,0 27.28,39.806 18.868,0 0,-67.884 -18.282,0 0,8.922 -18.407,0 -7.364,-8.922 -8.991,0 -11.35,1.779 L 0,0 Z m 27.938,-3.252 0,11.191 -7.887,-11.191 7.887,0" id="path3452" style="fill:#b00931;fill-opacity:1;fill-rule:nonzero;stroke:none"/>
		</g>
		<g id="g3454" transform="matrix(8,0,0,8,2602.994,708.596)">
			<path animation_id="12" d="m 0,0 0,67.884 18.151,0 23.013,-33.303 0,33.303 83.798,0.025 -11.435,-16.579 -24.201,0 0,-51.33 -17.676,0 0,51.33 -12.574,0 L 59.076,0 41.164,0 18.151,34.037 18.151,0 0,0" id="path3456" style="fill:#b00931;fill-opacity:1;fill-rule:nonzero;stroke:none"/>
		</g>
		<g id="g3458" transform="matrix(8,0,0,8,3586.658,976.396)">
			<path animation_id="13" d="M 0,0 C -0.106,19.29 17.646,33.094 40.664,35.403 23.946,32.226 11.309,17.536 11.309,-0.104 c 0,-16.904 11.602,-31.097 27.277,-35.05 C 16.588,-32.213 -0.103,-18.533 0,0 Z M 53.992,35.45 C 77.219,33.296 95.124,19.512 95.124,0 c 0,-18.658 -16.837,-32.396 -39.037,-35.213 15.793,3.871 27.511,18.12 27.511,35.109 0,17.729 -12.766,32.478 -29.606,35.554" id="path3460" style="fill:#b00931;fill-opacity:1;fill-rule:evenodd;stroke:none"/>
		</g>
		<g id="g3462" transform="matrix(8,0,0,8,3586.658,976.396)">
			<path animation_id="14" d="M 0,0 C -0.106,19.29 17.646,33.094 40.664,35.403 23.946,32.226 11.309,17.536 11.309,-0.104 c 0,-16.904 11.602,-31.097 27.277,-35.05 C 16.588,-32.213 -0.103,-18.533 0,0 Z M 53.992,35.45 C 77.219,33.296 95.124,19.512 95.124,0 c 0,-18.658 -16.837,-32.396 -39.037,-35.213 15.793,3.871 27.511,18.12 27.511,35.109 0,17.729 -12.766,32.478 -29.606,35.554" id="path3464" style="fill:#b00931;fill-opacity:1;fill-rule:nonzero;stroke:none"/>
		</g>
		<g id="g3466" transform="matrix(8,0,0,8,3695.026,1008.044)">
			<path animation_id="15" d="M 0,0 C 2.284,14.005 16.594,23.591 33.907,23.591 51.184,23.591 65.469,13.962 67.798,0.07 64.486,8.854 50.405,13.784 33.907,13.784 17.383,13.784 3.287,8.762 0,0 Z M 67.783,-8.012 C 65.408,-21.671 51.148,-31.51 33.907,-31.51 c -17.233,0 -31.492,9.75 -33.873,23.462 3.343,-8.614 17.404,-13.756 33.873,-13.756 16.473,0 30.535,5.222 33.876,13.792" id="path3468" style="fill:#b00931;fill-opacity:1;fill-rule:evenodd;stroke:none"/>
		</g>
		<g id="g3470" transform="matrix(8,0,0,8,3695.026,1008.044)">
			<path animation_id="16" d="M 0,0 C 2.284,14.005 16.594,23.591 33.907,23.591 51.184,23.591 65.469,13.962 67.798,0.07 64.486,8.854 50.405,13.784 33.907,13.784 17.383,13.784 3.287,8.762 0,0 Z M 67.783,-8.012 C 65.408,-21.671 51.148,-31.51 33.907,-31.51 c -17.233,0 -31.492,9.75 -33.873,23.462 3.343,-8.614 17.404,-13.756 33.873,-13.756 16.473,0 30.535,5.222 33.876,13.792" id="path3472" style="fill:#b00931;fill-opacity:1;fill-rule:nonzero;stroke:none"/>
		</g>
		<g id="g3474" transform="matrix(8,0,0,8,3752.89,976.852)">
			<path animation_id="17" d="M 0,0 C 0,9.208 9.509,14.496 22.015,15.515 15.314,13.5 10.435,7.286 10.435,-0.069 c 0,-7.123 4.577,-13.177 10.95,-15.382 C 9.191,-14.258 0,-8.807 0,0 Z M 31.482,15.49 C 43.821,14.423 53.164,9.218 53.164,0 c 0,-8.814 -9.024,-14.181 -21.052,-15.421 6.33,2.23 10.866,8.26 10.866,15.352 0,7.325 -4.84,13.519 -11.496,15.559" id="path3476" style="fill:#b00931;fill-opacity:1;fill-rule:evenodd;stroke:none"/>
		</g>
		<g id="g3478" transform="matrix(8,0,0,8,3752.89,976.852)">
			<path animation_id="18" d="M 0,0 C 0,9.208 9.509,14.496 22.015,15.515 15.314,13.5 10.435,7.286 10.435,-0.069 c 0,-7.123 4.577,-13.177 10.95,-15.382 C 9.191,-14.258 0,-8.807 0,0 Z M 31.482,15.49 C 43.821,14.423 53.164,9.218 53.164,0 c 0,-8.814 -9.024,-14.181 -21.052,-15.421 6.33,2.23 10.866,8.26 10.866,15.352 0,7.325 -4.84,13.519 -11.496,15.559" id="path3480" style="fill:#b00931;fill-opacity:1;fill-rule:nonzero;stroke:none"/>
		</g>
		<g id="g3482" transform="matrix(8,0,0,8,3890.81,975.86)">
			<path animation_id="19" d="m 0,0 c 0,5.227 4.238,9.465 9.465,9.465 5.229,0 9.463,-4.238 9.463,-9.465 0,-5.229 -4.234,-9.466 -9.463,-9.466 C 4.238,-9.466 0,-5.229 0,0" id="path3484" style="fill:#b00931;fill-opacity:1;fill-rule:nonzero;stroke:none"/>
		</g>
	</g>
</svg>
