<?xml version="1.0" encoding="iso-8859-1"?>
<!DOCTYPE svg
  PUBLIC '-//W3C//DTD SVG 1.1//EN'
  'http://www.w3.org/Graphics/SVG/1.1/DTD/svg11.dtd'>
<svg height="284.70001" id="svg3421" version="1.1" width="899.98999" xmlns="http://www.w3.org/2000/svg" xmlns:svg="http://www.w3.org/2000/svg">
	
  
	<defs id="defs3423"/>
	
  
	<path animation_id="0" d="m 4.5537851,277.43029 890.7943749,0 0,-272.8526078 -890.7943749,0 0,272.8526078 z" id="path28" style="fill:#932632;fill-opacity:1;fill-rule:nonzero;stroke:none;"/>
	
  
	<path animation_id="1" d="m 794.74119,95.66643 -36.79279,0 0,16.80071 13.87678,0 0,17.5733 c -2.16917,1.0103 -5.22385,1.52139 -8.40927,1.52139 -17.3118,0 -29.65531,-10.56062 -29.65531,-28.00911 0,-20.746829 15.78447,-28.769808 35.00397,-28.769808 5.6042,0 14.25713,1.402535 21.6561,5.729001 l 1.90174,-19.350237 c -8.65887,-3.316165 -21.00832,-3.946118 -26.86212,-3.946118 -32.59113,0 -56.14303,12.860539 -56.14303,46.337162 0,33.61331 27.36727,45.57647 51.04992,45.57647 8.14778,0 19.3443,-0.24961 34.37401,-4.07092 l 0,-49.39184 z m -123.18126,16.16363 -22.28605,0 11.458,-34.754359 0.26149,0 10.56656,34.754359 z m -58.81141,35.77654 24.05111,0 7.01268,-18.96989 33.35182,0 6.62044,18.96989 25.97069,0 -34.24327,-88.864893 -29.0313,0 -33.73217,88.864893 z m -93.87005,-50.286842 13.11609,0 0,26.986922 c 0,15.78447 4.97425,24.82369 25.46553,24.82369 5.729,0 10.06141,-0.75475 14.38193,-1.27773 l -0.76069,-14.88708 c -2.28804,0.38034 -4.70682,0.89144 -7.0008,0.89144 -7.25634,0 -9.16997,-4.07686 -9.16997,-12.0939 l 0,-24.443342 16.04002,0 0,-16.045959 -16.04002,0 0,-21.893819 -22.52971,7.000792 0,14.893027 -13.50238,0 0,16.045959 z m 4.25991,-16.807845 c -2.29398,-0.380348 -5.09311,-0.76664 -7.77338,-0.76664 -9.93066,0 -15.65967,5.348653 -19.60578,13.751981 l -0.24961,0 0,-12.2187 -20.88946,0 0,66.323296 22.92195,0 0,-28.00317 c 0,-12.99129 5.99049,-20.752773 16.68186,-20.752773 2.67432,0 5.2179,0 7.76149,0.76664 l 1.15293,-19.100634 z M 422.98842,108.13949 c 0.51109,-7.63669 4.46315,-13.876784 12.73573,-13.876784 9.16403,0 12.7298,6.240094 12.7298,13.876784 l -25.46553,0 z m 46.08756,12.98534 0,-4.19572 c 0,-19.736531 -8.90254,-37.179083 -33.47663,-37.179083 -20.62797,0 -35.521,12.735737 -35.521,34.629553 0,21.89382 16.67592,34.75436 38.57568,34.75436 8.52813,0 16.93146,-1.27773 24.3126,-4.20166 l 0,-16.17076 c -6.87599,3.69651 -14.00159,5.0931 -20.24168,5.0931 -11.20246,0 -18.20325,-3.55982 -19.47504,-12.72979 l 45.82607,0 z m -107.91205,26.47999 22.92195,0 0,-50.283279 16.28962,0 0,-16.045959 -16.28962,0 0,-4.070919 c 0,-6.495642 2.28804,-10.572504 8.14778,-10.572504 3.43503,0 5.34271,0.386292 7.2504,1.022187 l 1.40253,-15.784469 c -2.92393,-0.511094 -6.74524,-1.271791 -11.71354,-1.271791 -18.334,0 -27.61688,6.864105 -27.61688,26.606577 l 0,4.070919 -13.88273,0 0,16.045959 13.49049,0 0,50.283279 z m -47.81755,0 22.91601,0 0,-50.283279 16.29556,0 0,-16.045959 -16.29556,0 0,-4.070919 c 0,-6.495642 2.28803,-10.572504 8.14778,-10.572504 3.43502,0 5.34865,0.386292 7.25634,1.022187 l 1.39659,-15.784469 c -2.92393,-0.511094 -6.74525,-1.271791 -11.70761,-1.271791 -18.33399,0 -27.62876,6.864105 -27.62876,26.606577 l 0,4.070919 -13.88273,0 0,16.045959 13.50238,0 0,50.283279 z m -59.65709,-39.46533 c 0.51109,-7.63669 4.45721,-13.876784 12.72979,-13.876784 9.16997,0 12.7298,6.240094 12.7298,13.876784 l -25.45959,0 z m 46.08756,12.98534 0,-4.19572 c 0,-19.736531 -8.91442,-37.179083 -33.48257,-37.179083 -20.62797,0 -35.52694,12.735737 -35.52694,34.629553 0,21.89382 16.6878,34.75436 38.58162,34.75436 8.52813,0 16.93145,-1.27773 24.31854,-4.20166 l 0,-16.17076 c -6.87599,3.69651 -14.00753,5.0931 -20.24762,5.0931 -11.20246,0 -18.2092,-3.55982 -19.48099,-12.72979 l 45.83796,0 z m -186.24247,26.47999 23.17155,0 -0.50515,-68.236924 0.2496,0 21.64422,68.236924 21.77496,0 22.65452,-68.236924 0.25554,0 -0.38035,68.236924 23.17156,0 0,-88.858953 -35.90729,0 -19.72465,59.072903 -0.26149,0 -18.83914,-59.072903 -37.30388,0 0,88.858953 z" id="path72" style="fill:#ffffff;fill-opacity:1;fill-rule:nonzero;stroke:none;"/>
	
  
	<path animation_id="2" d="m 772.53358,212.42574 c 1.03408,-3.96989 4.37996,-8.19533 10.57845,-8.19533 5.24762,0 7.01268,3.74406 7.01268,8.19533 l -17.59113,0 z m 23.23099,13.20523 c -3.98178,1.90174 -9.1462,2.85856 -12.96752,2.85856 -8.74801,0 -10.97068,-3.5004 -11.13114,-7.95167 l 29.34034,0 c 0.55863,-2.46038 1.04001,-6.12718 1.04001,-7.79715 0,-12.56339 -8.19532,-18.04873 -19.0828,-18.04873 -18.4588,0 -24.81181,14.792 -24.81181,24.41363 0,10.41799 7.47029,18.93423 21.30547,18.93423 4.14223,0 9.46711,-0.80229 14.47702,-2.3118 l 1.83043,-10.09707 z m -120.81122,11.45384 14.54834,0 4.37995,-20.521 0.16046,0 8.50436,20.521 15.90333,0 -10.72702,-21.47781 17.09786,-19.96236 -16.30745,0 -13.76387,17.41878 -0.14857,0 7.63074,-35.62797 -14.47107,0 -12.80706,59.64936 z m -59.72781,-41.4378 c -0.40412,3.73218 -1.03407,7.23851 -1.75317,10.81617 l -6.43621,30.62401 14.30467,0 4.06498,-19.08875 c 1.04002,-6.12718 4.60578,-11.38074 10.66165,-11.38074 2.6981,0 4.7603,0.32091 6.59667,1.75317 l 3.25674,-12.6466 c -1.90769,-0.79635 -4.1363,-1.02813 -6.04398,-1.02813 -5.87758,0 -10.49525,4.61173 -12.80705,9.46118 l -0.15452,0 1.58677,-8.51031 -13.27655,0 z m -73.01624,16.77873 c 1.03407,-3.96989 4.37401,-8.19533 10.57844,-8.19533 5.24763,0 6.99485,3.74406 6.99485,8.19533 l -17.57329,0 z m 23.21909,13.20523 c -3.96989,1.90174 -9.14619,2.85856 -12.95562,2.85856 -8.75396,0 -10.98257,-3.5004 -11.13114,-7.95167 l 29.34033,0 c 0.55864,-2.46038 1.04002,-6.12718 1.04002,-7.79715 0,-12.56339 -8.19533,-18.04873 -19.08875,-18.04873 -18.4588,0 -24.8237,14.792 -24.8237,24.41363 0,10.41799 7.48218,18.93423 21.31736,18.93423 4.13629,0 9.46711,-0.80229 14.47702,-2.3118 l 1.82448,-10.09707 z m -68.48415,-29.98396 -14.47702,0 -13.28249,29.98218 -0.14857,0 -0.32686,-29.98218 -17.34152,0 -13.59747,29.98218 -0.16046,0 -0.39818,-29.98218 -14.2393,0 3.97583,41.44018 16.70563,0 14.23336,-29.98812 0.1664,0 0.5527,29.98812 16.63431,0 21.70364,-41.44018 z M 349.9383,218.63315 c 0,-5.49723 4.05903,-12.97346 10.81022,-12.97346 4.53447,0 6.84628,3.43503 6.84628,8.5103 0,6.45404 -4.05904,12.89026 -10.81617,12.89026 -4.77219,0 -6.84033,-4.20761 -6.84033,-8.4271 m -5.96672,18.45285 2.06814,-7.79715 0.16046,0 c 2.53764,5.88352 7.31577,8.75396 14.39382,8.75396 14.94652,0 21.79279,-12.65847 21.79279,-26.25594 0,-9.29477 -5.24762,-17.09192 -15.43383,-17.09192 -5.40808,0 -9.77615,2.14541 -13.35975,5.96078 l -0.16046,0 5.17037,-23.22504 -14.0729,0 -10.97663,49.31458 c -0.95681,4.13629 -1.91363,7.71395 -2.8645,10.34073 l 13.28249,0 z m -71.2607,-41.43899 c -0.40412,3.73218 -1.03407,7.23851 -1.75317,10.81617 l -6.44215,30.62401 14.3225,0 4.05309,-19.08875 c 1.03407,-6.12718 4.61767,-11.38074 10.65571,-11.38074 2.70404,0 4.77218,0.32091 6.60261,1.75317 l 3.25674,-12.6466 c -1.90769,-0.79635 -4.13629,-1.02813 -6.03804,-1.02813 -5.88946,0 -10.50119,4.61173 -12.81299,9.46118 l -0.14858,0 1.58083,-8.51031 -13.27655,0 z m -75.16343,28.71157 c 0,-3.65491 5.00991,-6.12718 11.85024,-5.88946 0.87955,0 2.62678,0 3.82131,0.23772 -1.03407,5.57448 -4.69492,9.78209 -10.81616,9.78209 -3.02496,0 -4.85539,-2.22266 -4.85539,-4.13035 m 13.75792,12.72385 11.69573,0 c 1.58676,-12.48613 5.24762,-21.79278 5.24762,-28.3122 0,-10.18621 -8.11213,-14.07884 -17.97148,-14.07884 -6.44809,0 -10.97662,0.95681 -15.19017,2.38312 l -1.43819,10.42393 c 4.77218,-2.46038 8.27258,-3.26268 13.44294,-3.26268 4.69493,0 7.63669,2.38312 7.63669,5.33083 0,0.54675 0,1.11727 -0.16046,1.66402 -1.98494,-0.14857 -4.84944,-0.39223 -7.71394,-0.39223 -12.6466,0 -22.82687,5.0099 -22.82687,15.18423 0,8.04081 4.93265,12.01664 13.83519,12.01664 5.57448,0 10.90531,-1.99089 13.92432,-6.76308 l 0,-0.16046 0.16046,0.16046 -0.64184,5.80626 z m -104.98276,0.002 14.95246,0 4.68898,-22.34548 21.47781,0 2.15135,-10.50713 -21.79873,0 2.78724,-12.17116 22.58915,0 2.06814,-10.4893 -37.14936,0 -11.76704,55.51307 z" id="path108" style="fill:#ffffff;fill-opacity:1;fill-rule:evenodd;stroke:none;"/>
	
  
	<path animation_id="3" d="m 4.5537853,280.18781 890.7943747,0 0,-275.6041945 -890.7943747,0 0,275.6041945 z" id="path110" style="fill:none;stroke:#ffffff;stroke-width:9.20562649;stroke-linecap:butt;stroke-linejoin:miter;stroke-miterlimit:4;stroke-opacity:1;stroke-dasharray:none;"/>
	

</svg>
