<?xml version="1.0" encoding="iso-8859-1"?>
<svg height="256.96875" id="svg3882" version="1.1" width="611.07391" xmlns="http://www.w3.org/2000/svg" xmlns:svg="http://www.w3.org/2000/svg">
	
  
	<defs id="defs3884"/>
	
  
	<g id="layer1" transform="translate(-71.605912,-386.73495)">
		
    
		<path animation_id="0" d="m 554.21105,386.73495 c -41.9869,0 -79.27238,20.14338 -102.71876,51.28125 l 8.53126,7.15625 c 21.39139,-28.71105 55.62557,-47.3125 94.1875,-47.3125 64.82002,0 117.34375,52.5615 117.34375,117.375 0,7.80894 -0.76395,15.43414 -2.21875,22.8125 l 11.34375,0 c 1.32432,-7.40446 2,-15.02966 2,-22.8125 0,-70.96541 -57.49683,-128.5 -128.46875,-128.5 z m -136.40626,39.4375 c -0.0717,1.50046 -0.125,2.27249 -0.125,3.375 -0.92637,61.05582 -1.15471,97.80651 0,156.78125 0,0.42405 0.0364,1.41222 0.0625,2.3125 l 2.25,0 34.93751,0 2.09375,0 c 0,0 -0.0312,-1.03826 -0.0312,-2.0625 l 0,-70.78125 c 0,0 54.57834,50.17835 89.5,76.3125 1.0177,0.73719 1.6801,1.20547 2.75,1.96875 0.0131,-1.67007 0.0312,-2.58644 0.0312,-4.25 0.69151,-48.10616 0.92636,-115.08877 0,-160.1875 0,-1.14166 -0.0113,-1.67357 -0.0312,-2.75 l -39.28125,0 0,77.125 c 0,0 -56.64985,-52.50385 -89.71876,-76.09375 -0.6589,-0.46971 -1.36108,-1.03239 -2.4375,-1.75 z m 146.59376,0.6875 c -0.007,0.5219 0,161.78125 0,161.78125 l 95.25,0 c 8.2656,-11.84714 14.59227,-25.14395 18.5,-39.4375 l -72.125,1.09375 0,-123.4375 -41.625,0 z M 457.6798,600.0787 c 23.55075,26.76045 58.08024,43.625 96.53125,43.625 38.45101,0 72.94923,-16.86455 96.5,-43.625 l -15.40625,0 c -21.07825,20.14536 -49.6362,32.5 -81.09375,32.5 -31.45755,0 -60.02203,-12.35464 -81.09375,-32.5 l -15.4375,0 z" id="path194" style="fill:#0b63a2;fill-opacity:1;fill-rule:nonzero;stroke:none"/>
		
    
		<path animation_id="1" d="m 345.87826,548.17794 c -0.17614,0 -0.47624,-0.0588 -0.47624,0.53495 l 0,19.76697 0,19.64303 c 0,0.60019 0,0.54147 0.47624,0.54147 l 9.79215,0 c 0.41753,0 0.47624,-0.0588 0.47624,-0.54147 l 0,-11.27958 6.86951,-0.124 c 0,0 4.35788,6.86952 6.39329,10.75115 0.53495,1.07643 0.77632,1.19385 1.25256,1.19385 l 10.56847,0 c 0.6589,0 0.83504,-0.41752 0.11738,-1.61137 -3.46411,-5.61695 -6.86299,-11.6449 -8.41564,-14.0913 3.64025,-1.73533 5.55172,-5.61696 5.55172,-11.10996 0,-7.34576 -4.89934,-13.67379 -14.09132,-13.67379 l -18.51441,0 z m 10.26839,20.60201 0,-11.70361 5.91705,0 c 3.46411,0 5.07547,2.3877 5.07547,5.55171 0,3.46411 -1.79402,5.85181 -5.01676,5.96924 l -5.97576,0.18266 z m -18.32849,19.88376 c 0.59366,0 0.6589,-0.11737 0.6589,-0.83503 l 0,-7.70457 c 0,-0.77632 0,-0.77632 -0.6589,-0.77632 l -17.49671,0.18266 0,-6.92822 16.72039,0 c 0.53495,0 0.59366,-0.11738 0.59366,-0.83504 l 0,-7.28704 c 0,-0.71761 -0.0587,-0.83504 -0.59366,-0.83504 l -16.72039,0 0,-6.74556 17.07919,0.17614 c 0.47623,0 0.6589,-0.30009 0.6589,-0.83504 l 0,-7.28704 c 0,-0.71761 -0.0652,-0.77632 -0.6589,-0.77632 l -26.98878,0 c -0.60017,0 -0.54146,0.0588 -0.54146,0.60019 l 0,39.0512 c 0,0.71761 0.0588,0.83503 0.6589,0.83503 l 27.28886,0 z m -57.97857,-0.53756 c 0,0.47624 -0.0588,0.53495 -0.53495,0.53495 l -9.67473,0 c -0.54147,0 -0.54147,0.0652 -0.54147,-0.53495 l 0,-19.64302 0,-19.76698 c 0,-0.60019 0,-0.53495 0.54147,-0.53495 l 9.67473,0 c 0.47623,0 0.53495,0.0588 0.53495,0.53495 l 0,17.91422 c 0,0 8.29821,-12.65608 11.58618,-18.09037 0.23487,-0.30009 0.41753,-0.3588 0.71762,-0.3588 l 10.80333,0 c 0.60019,0 0.71762,0.17614 0.35882,0.71109 -3.99907,5.43428 -11.87977,16.42681 -11.87977,16.42681 0,0 8.95712,15.93754 12.78004,22.50696 0.3588,0.71761 0.11738,0.83504 -0.41752,0.83504 l -10.80987,0 c -0.47622,0 -0.41751,-0.11738 -0.77632,-0.71109 -1.85274,-3.58807 -7.46318,-14.09784 -7.46318,-14.09784 l -4.89933,6.92823 0,7.34575 z m -26.74935,-13.61376 c -1.43523,3.04658 -4.29915,5.01676 -8.35693,5.01676 -5.01677,0 -9.97482,-3.4054 -9.97482,-10.86857 0,-6.38675 3.82292,-11.10995 9.79215,-11.10995 4.12301,0 6.98695,1.85275 8.71573,5.43428 0.124,0.30009 0.18268,0.41753 0.54148,0.30009 l 8.8984,-3.46411 c 0.23486,-0.11738 0.47624,-0.3588 0.17614,-1.07642 -2.68778,-6.08666 -8.71573,-11.40352 -18.57313,-11.40352 -11.70361,0 -20.89559,9.01582 -20.89559,21.26091 0,11.46224 8.47437,21.07825 21.19568,21.07825 9.31592,0 16.00277,-5.8518 18.69056,-12.36251 0.124,-0.3588 0.0588,-0.6589 -0.53495,-0.77632 l -8.95711,-2.44642 c -0.47624,-0.11737 -0.54148,0.11738 -0.71761,0.41753 m -35.17087,14.15132 c 0.59367,0 0.6589,-0.11737 0.6589,-0.83504 l 0,-7.70456 c 0,-0.77632 0,-0.77632 -0.6589,-0.77632 l -17.49671,0.18266 0,-6.92823 16.72039,0 c 0.53495,0 0.59366,-0.11737 0.59366,-0.83503 l 0,-7.28704 c 0,-0.71761 -0.0588,-0.83504 -0.59366,-0.83504 l -16.72039,0 0,-6.74556 17.07919,0.17614 c 0.47624,0 0.65237,-0.30009 0.65237,-0.83504 l 0,-7.28704 c 0,-0.71761 -0.0587,-0.77632 -0.65237,-0.77632 l -26.99529,0 c -0.59366,0 -0.53495,0.0588 -0.53495,0.60018 l 0,39.0512 c 0,0.71762 0.0587,0.83504 0.6589,0.83504 l 27.28886,0 z M 182.93965,577.6764 c 0,-4.71667 -3.16403,-9.37464 -8.29821,-9.90959 4.65796,-1.3178 7.16307,-4.59924 7.16307,-8.95711 0,-6.68685 -4.41657,-10.63373 -11.76232,-10.63373 l -20.90211,0 c -0.53495,0 -0.71762,0.124 -0.71762,0.60019 l 0,39.0512 c 0,0.77633 0.0588,0.83504 0.54148,0.83504 l 22.57218,0 c 7.10438,0 11.40353,-4.41658 11.40353,-10.986 m -23.82475,-13.49765 0,-7.63931 7.99812,0 c 2.45293,0 3.82292,1.31127 3.82292,3.82291 0,2.3877 -1.36999,3.8164 -3.82292,3.8164 l -7.99812,0 z m 0,16.12672 0,-8.78097 8.5983,0 c 2.3877,0 4.1165,1.85275 4.1165,4.4231 0,2.80522 -1.61138,4.35787 -4.1165,4.35787 l -8.5983,0 z m -38.27226,-40.30766 c 0,-0.54147 -0.11738,-0.54147 -0.47624,-0.54147 l -9.37464,0 c -0.30009,0 -0.30009,0.3001 -0.30009,0.54147 l 0,5.7931 c 0,0.29356 0.0588,0.65889 0.35882,0.65889 l 9.31591,0 c 0.35881,0 0.47624,-0.0653 0.47624,-0.48275 l 0,-5.96924 z m 14.45011,0 c 0,-0.54147 -0.17614,-0.54147 -0.47623,-0.54147 l -9.37463,0 c -0.41753,0 -0.41753,0.3001 -0.41753,0.54147 l 0,5.7931 c 0,0.29356 0.11738,0.65889 0.41753,0.65889 l 9.43335,0 c 0.24137,0 0.41751,-0.0653 0.41751,-0.48275 l 0,-5.96924 z m -29.55913,33.38205 c 0,9.85088 5.493,16.29634 16.90305,16.29634 11.87975,0 16.83782,-6.08666 16.83782,-15.70268 l 0,-25.3774 c 0,-0.41752 0,-0.41752 -0.3001,-0.41752 l -9.79215,0 c -0.35882,0 -0.35882,0.0588 -0.35882,0.41752 l 0,26.62997 c 0,4.0643 -3.4054,5.67566 -6.26932,5.67566 -2.92916,0 -6.26932,-1.67008 -6.26932,-5.67566 l 0,-26.57125 c 0,-0.47624 0,-0.47624 -0.41753,-0.47624 l -10.03354,0 c -0.30008,0 -0.30008,0 -0.30008,0.35881 l 0,24.84245 z m -4.94043,14.68693 c 0,0.52842 0,0.59366 -0.52843,0.59366 l -28.065185,0 c -0.593663,0 -0.593663,0.0718 -0.593663,-0.59366 l 0,-21.82197 0,-21.95896 c 0,-0.66541 0,-0.60017 0.593663,-0.60017 l 10.751137,0 c 0.528425,0 0.593663,0.0718 0.593663,0.60017 l 0,33.8322 16.655145,-0.33271 c 0.52843,0 0.59367,0.13047 0.59367,0.66542 l 0,9.61602 z m 276.22099,-48.90142 c 0.60019,0 0.65891,-0.11737 0.65891,-0.83503 l 0,-7.70457 c 0,-0.77632 0,-0.77632 -0.65891,-0.77632 l -17.49671,0.18266 0,-6.92822 16.72039,0 c 0.53495,0 0.60019,-0.11738 0.60019,-0.83504 l 0,-7.28704 c 0,-0.71761 -0.0652,-0.83504 -0.60019,-0.83504 l -16.72039,0 0,-6.75208 17.07919,0.18266 c 0.47624,0 0.6589,-0.30009 0.6589,-0.83504 l 0,-7.28704 c 0,-0.71761 -0.0652,-0.77632 -0.6589,-0.77632 l -26.98878,0 c -0.60017,0 -0.54146,0.0588 -0.54146,0.60019 l 0,39.0512 c 0,0.71761 0.0587,0.83503 0.6589,0.83503 l 27.28886,0 z m -70.63596,-15.28646 c 0,9.85088 5.493,16.30286 16.90305,16.30286 11.87977,0 16.83782,-6.09318 16.83782,-15.70267 l 0,-25.38394 c 0,-0.41751 0,-0.41751 -0.3001,-0.41751 l -9.79215,0 c -0.35882,0 -0.35882,0.0588 -0.35882,0.41751 l 0,26.6365 c 0,4.05778 -3.4054,5.66914 -6.26932,5.66914 -2.92916,0 -6.26933,-1.67008 -6.26933,-5.66914 l 0,-26.57126 c 0,-0.48275 0,-0.48275 -0.41752,-0.48275 l -10.03354,0 c -0.30009,0 -0.30009,0 -0.30009,0.3588 l 0,24.84246 z m -6.98563,15.28646 c 0.60018,0 0.6589,-0.11737 0.6589,-0.83503 l 0,-7.70457 c 0,-0.77632 0,-0.77632 -0.6589,-0.77632 l -17.49672,0.18266 0,-6.92822 16.72039,0 c 0.53495,0 0.60019,-0.11738 0.60019,-0.83504 l 0,-7.28704 c 0,-0.71761 -0.0652,-0.83504 -0.60019,-0.83504 l -16.72039,0 0,-6.75208 17.07919,0.18266 c 0.47624,0 0.6589,-0.30009 0.6589,-0.83504 l 0,-7.28704 c 0,-0.71761 -0.0588,-0.77632 -0.6589,-0.77632 l -26.99529,0 c -0.59366,0 -0.53495,0.0588 -0.53495,0.60019 l 0,39.0512 c 0,0.71761 0.0588,0.83503 0.6589,0.83503 l 27.28887,0 z m -75.80408,-0.66281 c 0,0.26748 0.19571,0.66543 0.66543,0.66543 l 10.01396,0 c 0.60018,0 0.60018,0 0.60018,-0.60019 l 0,-20.2954 c 0,0 15.65049,14.3914 25.67098,21.8872 0.73066,0.52842 0.7959,0.13047 0.7959,-0.66543 0.20224,-13.79773 0.26748,-31.57497 0,-44.51158 0,-0.65889 0,-0.78937 -0.66542,-0.78937 l -10.0792,0 c -0.53495,0 -0.53495,0.0653 -0.53495,0.78937 l 0,19.90398 c 0,0 -16.25068,-15.05683 -25.73622,-21.82196 -0.33271,-0.20224 -0.73066,-0.26747 -0.73066,0.46319 -0.26747,17.50975 -0.33271,28.05866 0,44.97476" id="path254" style="fill:#878988;fill-opacity:1;fill-rule:evenodd;stroke:none"/>
		
  
	</g>
	

</svg>
