<?xml version="1.0" encoding="iso-8859-1"?>
<!DOCTYPE svg
  PUBLIC '-//W3C//DTD SVG 1.1//EN'
  'http://www.w3.org/Graphics/SVG/1.1/DTD/svg11.dtd'>
<!-- Creator: CorelDRAW -->
<svg clip-rule="evenodd" fill-rule="evenodd" height="1425px" image-rendering="optimizeQuality" shape-rendering="geometricPrecision" text-rendering="geometricPrecision" viewBox="0 0 3411.03 1501.78" width="3236px" xml:space="preserve" xmlns="http://www.w3.org/2000/svg" xmlns:xlink="http://www.w3.org/1999/xlink">
	
 
	<g id="Ebene_x0020_1">
		
  
		<metadata id="CorelCorpID_0Corel-Layer"/>
		
  
		<path animation_id="0" d="M88.5511 1025.62c0,106.79 42.187,209.636 114.699,284.781 72.5274,73.8397 175.373,117.353 279.532,117.353 106.791,0 204.372,-40.8598 279.511,-117.353 73.8596,-75.1445 114.721,-175.352 114.721,-284.781 0,-108.117 -39.555,-205.7 -114.721,-282.17 -42.802,-43.5752 -94.4576,-76.4991 -150.872,-96.4882 6.31734,-15.7099 9.78354,-32.8691 9.78354,-50.835 0.00622521,-5.14825 -0.280134,-10.2342 -0.841648,-15.2393 73.8608,21.6102 141.048,60.9597 197.318,116.41 90.9851,89.6716 138.442,203.06 138.442,328.322 0,94.922 -27.6872,184.595 -80.416,261.067 -89.6716,130.525 -232.073,205.671 -392.925,205.671 -126.588,0 -247.887,-48.7633 -334.899,-135.797 -89.6729,-89.653 -138.464,-207.012 -138.464,-333.58 0,-121.311 50.1167,-238.65 138.464,-325.683 57.9106,-56.236 126.506,-95.9068 201.364,-117.312 -0.622521,5.29143 -0.943742,10.6775 -0.943742,16.1407 0,17.5352 3.30185,34.2909 9.33159,49.6933 -56.871,19.6605 -109.498,52.7425 -154.385,97.6299 -73.8384,73.8384 -114.699,174.053 -114.699,282.17z" fill="#002E4F"/>
		
  
		<path animation_id="1" d="M88.5511 1025.62c0,106.79 42.187,209.636 114.699,284.781 72.5274,73.8397 175.373,117.353 279.532,117.353 106.791,0 204.372,-40.8598 279.511,-117.353 73.8596,-75.1445 114.721,-175.352 114.721,-284.781 0,-108.117 -39.555,-205.7 -114.721,-282.17 -42.802,-43.5752 -94.4576,-76.4991 -150.872,-96.4882 6.31734,-15.7099 9.78354,-32.8691 9.78354,-50.835 0,-5.14825 -0.280134,-10.2342 -0.841648,-15.2393 73.8608,21.6102 141.048,60.9597 197.318,116.41 90.9851,89.6716 138.442,203.06 138.442,328.322 0,94.922 -27.6872,184.595 -80.416,261.067 -89.6716,130.525 -232.073,205.671 -392.925,205.671 -126.588,0 -247.887,-48.7633 -334.899,-135.797 -89.6729,-89.653 -138.464,-207.012 -138.464,-333.58 0,-121.311 50.1167,-238.65 138.464,-325.683 57.9106,-56.236 126.506,-95.9068 201.364,-117.312 -0.622521,5.29143 -0.943742,10.6775 -0.943742,16.1407 0,17.5352 3.30185,34.2909 9.33159,49.6933 -56.871,19.6605 -109.498,52.7425 -154.385,97.6299 -73.8384,73.8384 -114.699,174.053 -114.699,282.17z" fill="none" stroke="#002E4F" stroke-width="3.43133"/>
		
  
		<polygon animation_id="9" fill="#002E4F" points="944.878,1476.54 1038.49,1476.54 1398.46,1062.53 1759.72,1476.54 1853.33,1476.54 1443.28,1009.79 1826.98,575.999 1733.36,575.999 1395.8,958.356 1063.54,575.999 969.926,575.999 1350.98,1011.11 " stroke="#002E4F" stroke-width="3.43133"/>
		
  
		<polygon animation_id="10" fill="#002E4F" points="1971.99,1476.54 2470.38,1476.54 2470.38,1415.88 2044.5,1415.88 2044.5,1049.34 2446.66,1049.34 2446.66,991.334 2044.5,991.334 2044.5,634.005 2459.84,634.005 2459.84,575.999 1971.99,575.999 " stroke="#002E4F" stroke-width="3.43133"/>
		
  
		<path animation_id="2" d="M2587.58 1476.54l76.4705 0 133.166 -313.816 395.565 0 133.158 313.816 76.4779 0 -392.905 -908.455 -29.007 0 -392.925 908.455zm234.684 -374.455l172.741 -408.737 172.721 408.737 -345.462 0z" fill="#002E4F"/>
		
  
		<polygon animation_id="11" fill="none" points="2587.58,1476.54 2664.05,1476.54 2797.21,1162.73 3192.78,1162.73 3325.94,1476.54 3402.41,1476.54 3009.51,568.09 2980.5,568.09 " stroke="#002E4F" stroke-width="3.43133"/>
		
  
		<polygon animation_id="12" fill="none" points="2822.26,1102.09 2995,693.352 3167.72,1102.09 " stroke="#002E4F" stroke-width="3.43133"/>
		
  
		<path animation_id="3" d="M194.596 1024.57c0,77.2162 29.4502,147.268 85.1808,201.392 54.1307,52.5432 127.362,81.9885 204.578,81.9885 78.8086,0 149.661,-27.8516 206.184,-81.9885 54.9238,-52.537 84.3814,-123.39 84.3814,-196.621 0,-78.8086 -28.6584,-146.475 -85.1745,-201.405 -54.1369,-53.3376 -127.368,-81.9885 -205.391,-81.9885 -77.2162,0 -148.855,28.6509 -204.578,81.9885 -54.1369,52.5445 -85.1808,123.39 -85.1808,196.634z" fill="#FFDB00" stroke="#002E4F" stroke-width="2.48884"/>
		
  
		<path animation_id="4" d="M202.424 390.113c0,-21.8704 17.7331,-39.6035 39.6023,-39.6035 21.8766,0 39.6098,17.7331 39.6098,39.6035 0,21.8754 -17.7331,39.6023 -39.6098,39.6023 -21.8692,0 -39.6023,-17.7269 -39.6023,-39.6023z" fill="#FFDB00" stroke="#002E4F" stroke-width="2.48884"/>
		
  
		<path animation_id="5" d="M330.947 193.821c0,-51.3007 41.5856,-92.8863 92.8851,-92.8863 51.3069,0 92.8926,41.5856 92.8926,92.8863 0,51.3057 -41.5856,92.8913 -92.8926,92.8913 -51.2994,0 -92.8851,-41.5856 -92.8851,-92.8913z" fill="#FFDB00" stroke="#002E4F" stroke-width="2.48884"/>
		
  
		<path animation_id="6" d="M407.337 566.455c0,-42.761 34.6607,-77.4217 77.4217,-77.4217 42.7547,0 77.4217,34.6607 77.4217,77.4217 0,42.7622 -34.6669,77.4217 -77.4217,77.4217 -42.761,0 -77.4217,-34.6595 -77.4217,-77.4217z" fill="#FFDB00" stroke="#002E4F" stroke-width="2.48884"/>
		
  
		<path animation_id="7" d="M563.308 337.533c0,-63.6727 51.6144,-115.287 115.288,-115.287 63.6801,0 115.287,51.6144 115.287,115.287 0,63.6739 -51.607,115.288 -115.287,115.288 -63.6739,0 -115.288,-51.6144 -115.288,-115.288z" fill="#FFDB00" stroke="#002E4F" stroke-width="2.48884"/>
		
  
		<path animation_id="8" d="M623.557 72.256c0,-36.1299 29.2871,-65.4232 65.417,-65.4232 36.1361,0 65.4232,29.2933 65.4232,65.4232 0,36.1373 -29.2871,65.4244 -65.4232,65.4244 -36.1299,0 -65.417,-29.2871 -65.417,-65.4244z" fill="#FFDB00" stroke="#002E4F" stroke-width="2.48884"/>
		
 
	</g>
	

</svg>
