<?xml version="1.0" encoding="iso-8859-1"?>
<svg height="439.625" id="svg2" version="1.1" viewBox="0 0 357.875 439.625" width="357.875" xml:space="preserve" xmlns="http://www.w3.org/2000/svg" xmlns:cc="http://creativecommons.org/ns#" xmlns:dc="http://purl.org/dc/elements/1.1/" xmlns:rdf="http://www.w3.org/1999/02/22-rdf-syntax-ns#" xmlns:svg="http://www.w3.org/2000/svg">
	<metadata id="metadata8">
		<rdf:RDF>
			<cc:Work rdf:about="">
				<dc:format>image/svg+xml</dc:format>
				<dc:type rdf:resource="http://purl.org/dc/dcmitype/StillImage"/>
			</cc:Work>
		</rdf:RDF>
	</metadata>
	<defs id="defs6">
		<clipPath clipPathUnits="userSpaceOnUse" id="clipPath18">
			<path animation_id="0" d="m 0,0 2862.98,0 0,3517 L 0,3517 0,0 Z" id="path20"/>
		</clipPath>
	</defs>
	<g id="g10" transform="matrix(1.25,0,0,-1.25,0,439.625)">
		<g id="g12" transform="scale(0.1,0.1)">
			<g id="g14">
				<g clip-path="url(#clipPath18)" id="g16">
					<path animation_id="1" d="M 18.4922,8.80859 C 8.91016,8.80859 0,16.9102 0,27.0117 L 0,56.8008 C 0,66.9297 8.91016,75 18.4922,75 l 36.5195,-0.7187 0,318.0777 -36.5195,0.723 C 8.21094,393.082 0,401.191 0,410.602 l 0,37.558 c 0,9.442 8.16797,17.52 18.4609,17.52 l 172.6171,0 c 110.133,0 179.781,-47.539 179.781,-147.301 0,-92.328 -49.296,-152.777 -164.265,-152.777 l -67.074,0 0,-90.602 61.222,0 c 10.219,0 18.418,-8.0703 18.418,-18.1992 l 0,-29.7891 c 0,-10.1015 -8.199,-18.20311 -18.418,-18.20311 l -182.2498,0 z M 283.082,316.051 c 0,58.75 -46.262,76.66 -94.762,76.66 l -48.8,0 0,-157.551 56.73,0 c 47.859,0 86.832,21.481 86.832,79.879" id="path22" style="fill:#990d33;fill-opacity:1;fill-rule:nonzero;stroke:none"/>
					<path animation_id="2" d="m 2862.98,260.84 0,-234.5119 c 0,-12.1093 -8.2,-17.51951 -17.77,-17.51951 l -43.11,0 c -9.57,0 -17.75,5.41021 -17.75,17.51951 l 0,214.2739 c 0,36.41 -12.34,45.199 -37.59,45.199 -25.35,0 -48.61,-12.832 -68.38,-30.352 l 0,-229.1209 c 0,-12.1093 -8.26,-17.51951 -17.77,-17.51951 l -43.11,0 c -9.58,0 -17.77,5.41021 -17.77,17.51951 l 0,297.8519 c 0,12.172 8.19,17.558 17.77,17.558 l 26.7,0 c 12.25,0 20.45,-6.738 22.47,-17.558 l 4.13,-20.219 c 28.03,27.641 60.85,46.508 103.94,46.508 55.39,0 88.24,-25.61 88.24,-89.629" id="path24" style="fill:#990d33;fill-opacity:1;fill-rule:nonzero;stroke:none"/>
					<path animation_id="3" d="m 2496.35,260.84 0,-234.5119 c 0,-12.1093 -8.16,-17.51951 -17.79,-17.51951 l -43.03,0 c -9.61,0 -17.81,5.41021 -17.81,17.51951 l 0,214.2739 c 0,36.41 -12.25,45.199 -37.62,45.199 -25.25,0 -48.52,-12.832 -68.37,-30.352 l 0,-229.1209 c 0,-12.1093 -8.15,-17.51951 -17.74,-17.51951 l -43.11,0 c -9.53,0 -17.77,5.41021 -17.77,17.51951 l 0,297.8519 c 0,12.172 8.24,17.558 17.77,17.558 l 26.67,0 c 12.33,0 20.54,-6.738 22.55,-17.558 l 4.12,-20.219 c 28.05,27.641 60.9,46.508 103.93,46.508 55.43,0 88.2,-25.61 88.2,-89.629" id="path26" style="fill:#990d33;fill-opacity:1;fill-rule:nonzero;stroke:none"/>
					<path animation_id="4" d="m 1706.32,350.469 c 49.97,0 82.75,-24.957 82.75,-88.297 l 0,-235.8439 c 0,-12.1093 -8.21,-17.51951 -17.78,-17.51951 l -43.04,0 c -9.57,0 -17.78,5.41021 -17.78,17.51951 l 0,214.9419 c 0,36.441 -9.61,44.531 -32.8,44.531 -20.52,0 -42.42,-12.172 -61.57,-28.36 l 0,-231.1129 c 0,-12.1093 -8.24,-17.51951 -17.81,-17.51951 l -43.04,0 c -9.58,0 -17.86,5.41021 -17.86,17.51951 l 0,214.9419 c 0,36.441 -9.49,44.531 -32.78,44.531 -21.2,0 -41.71,-13.5 -61.48,-30.352 l 0,-229.1209 c 0,-12.1093 -8.28,-17.51951 -17.78,-17.51951 l -43.11,0 c -9.61,0 -17.78,5.41021 -17.78,17.51951 l 0,297.8519 c 0,12.129 8.17,17.5 17.78,17.5 l 26.7,0 c 12.25,0 20.49,-6.719 22.51,-17.5 l 4.12,-19.532 c 28.69,26.954 58.15,45.821 97.74,45.821 34.87,0 60.86,-13.457 73.9,-44.469 30.1,26.949 60.85,44.469 99.11,44.469" id="path28" style="fill:#990d33;fill-opacity:1;fill-rule:nonzero;stroke:none"/>
					<path animation_id="5" d="m 1134.03,481.891 94.38,0 c 10.19,0 17.64,-8.082 17.47,-17.52 l -6.66,-376.0897 c -0.39,-22.1719 3.6,-26.9102 23.4,-26.9102 4.81,0 14.41,1.3594 17.12,1.3594 4.81,0 7.51,-2.711 8.07,-7.3789 l 3.69,-22.2696 c 0.69,-4.0429 1.23,-8.1015 1.19,-10.1328 -0.13,-7.3789 -4.97,-13.46092 -13.24,-15.48826 -13.72,-3.40235 -31.55,-6.10938 -45.93,-6.10938 -58.79,0 -73.94,31.73044 -72.76,98.42974 l 5.63,318.0897 -33.49,0 c -10.31,0 -17.68,8.07 -17.51,17.52 l 0.51,28.98 c 0.17,9.438 7.83,17.52 18.13,17.52" id="path30" style="fill:#990d33;fill-opacity:1;fill-rule:nonzero;stroke:none"/>
					<path animation_id="6" d="m 788.363,93.7109 0,230.4881 c 0,12.129 8.203,17.52 17.774,17.52 l 43.097,0 c 9.532,0 17.743,-5.391 17.743,-17.52 l 0,-212.23 c 0,-37.1487 13.687,-47.887 39.019,-47.887 23.883,0 45.781,13.4571 66.309,31.6563 l 0,228.4607 c 0,12.129 8.242,17.52 17.773,17.52 l 43.122,0 c 9.56,0 17.73,-5.391 17.73,-17.52 l 0,-297.8709 c 0,-12.1093 -8.17,-17.51951 -17.73,-17.51951 l -28.09,0 c -10.223,0 -17.774,6.08981 -19.794,14.14061 l -6.179,23.6094 C 951.777,19.5508 925.117,0.078125 881.355,0.078125 c -53.328,0 -92.992,29.632775 -92.992,93.632775" id="path32" style="fill:#990d33;fill-opacity:1;fill-rule:nonzero;stroke:none"/>
					<path animation_id="7" d="m 1871.19,103.301 c 0,71.031 47.19,111 155.92,111 l 24.59,0 0,16.23 c 0,36.36 -4.79,56.578 -43.75,56.578 -30.76,0 -55.39,-3.359 -84.1,-14.828 -3.47,-1.133 -6.02,-1.75 -8.77,-1.75 -6.12,0 -11.77,1.75 -15.16,9.199 l -9.58,20.852 c -1.37,2.719 -2.08,5.418 -2.08,8.789 0,7.43 3.44,12.82 8.91,16.18 30,16.769 70.43,24.937 119.01,24.937 77.92,0 114.18,-30.347 114.18,-107.187 l 0,-216.9729 c 0,-12.1093 -8.21,-17.51951 -17.78,-17.51951 l -28.04,0 c -10.24,0 -17.07,6.01171 -19.83,14.12111 l -4.79,15.5117 C 2040.08,18.2813 2013.42,0 1975.81,0 1906.04,0 1871.19,47.25 1871.19,103.301 m 180.51,-18.3205 0,79.4885 -12.29,0 c -75.23,0 -88.19,-25.207 -88.19,-60.547 0,-20.5626 11.59,-47.9611 41.71,-47.9611 25.98,0 45.1,14.8008 58.77,29.0196" id="path34" style="fill:#990d33;fill-opacity:1;fill-rule:nonzero;stroke:none"/>
					<path animation_id="8" d="m 425.875,103.301 c 0,71.031 47.188,111 155.918,111 l 24.598,0 0,16.23 c 0,36.36 -4.797,56.578 -43.75,56.578 -30.766,0 -55.399,-3.359 -84.094,-14.828 -3.492,-1.133 -6.031,-1.75 -8.777,-1.75 -6.125,0 -11.778,1.75 -15.165,9.199 l -9.582,20.852 c -1.371,2.719 -2.078,5.418 -2.078,8.789 0,7.43 3.446,12.82 8.907,16.18 30,16.769 70.445,24.937 119.011,24.937 77.922,0 114.18,-30.347 114.18,-107.187 l 0,-216.9729 c 0,-12.1093 -8.203,-17.51951 -17.781,-17.51951 l -28.039,0 c -10.239,0 -17.071,6.01171 -19.821,14.12111 l -4.797,15.5117 C 594.762,18.2813 568.113,0 530.492,0 460.723,0 425.875,47.25 425.875,103.301 m 180.516,-18.3205 0,79.4885 -12.297,0 c -75.231,0 -88.199,-25.207 -88.199,-60.547 0,-20.5626 11.585,-47.9611 41.718,-47.9611 25.981,0 45.114,14.8008 58.778,29.0196" id="path36" style="fill:#990d33;fill-opacity:1;fill-rule:nonzero;stroke:none"/>
					<path animation_id="9" d="m 0.00390625,710.738 2862.97999375,0 0,2806.3 -2862.97999375,0 0,-2806.3 z" id="path38" style="fill:#990d33;fill-opacity:1;fill-rule:nonzero;stroke:none"/>
					<path animation_id="10" d="m 567.043,1118.08 c -40.383,0 -77.961,34.36 -77.961,77 l 0,152.58 c 0,42.94 37.578,76.99 77.961,76.99 l 213.539,0 0,1325.86 -213.539,0 c -43.359,0 -77.961,34.26 -77.961,74.12 l 0,181.41 c 0,39.84 34.688,74.05 78.051,74.05 l 974.947,0 c 431.91,0 738.71,-206.85 738.71,-636.11 0,-408.98 -242.81,-659.06 -747.25,-659.06 l -338.76,0 0,-360.27 306.96,0 c 43.11,0 77.7,-34.05 77.7,-76.99 l 0,-152.58 c 0,-42.64 -34.59,-77 -77.7,-77 l -934.697,0 z m 908.907,1632.97 -281.17,0 0,-653.13 268.39,0 c 159.96,0 409.51,33.06 409.51,340.19 0,254.9 -192.17,312.94 -396.73,312.94" id="path40" style="fill:#ffffff;fill-opacity:1;fill-rule:nonzero;stroke:none"/>
				</g>
			</g>
		</g>
	</g>
</svg>
