<?xml version="1.0" encoding="iso-8859-1"?>
<!-- Generator: Adobe Illustrator 15.0.2, SVG Export Plug-In . SVG Version: 6.00 Build 0)  -->
<svg enable-background="new 0 0 351.273 461.059" height="32" id="Layer_1" inkscape:version="0.92.4 (5da689c313, 2019-01-14)" sodipodi:docname="Panasonic Toyota Racing logo.svg" version="1.1" viewBox="0 0 100 32" width="100" x="0px" xml:space="preserve" xmlns="http://www.w3.org/2000/svg" xmlns:cc="http://creativecommons.org/ns#" xmlns:dc="http://purl.org/dc/elements/1.1/" xmlns:inkscape="http://www.inkscape.org/namespaces/inkscape" xmlns:rdf="http://www.w3.org/1999/02/22-rdf-syntax-ns#" xmlns:sodipodi="http://sodipodi.sourceforge.net/DTD/sodipodi-0.dtd" xmlns:svg="http://www.w3.org/2000/svg" y="0px">
	<title id="title849">Puma logo</title>
	<metadata id="metadata135">
		<rdf:RDF>
			<cc:Work rdf:about="">
				<dc:format>image/svg+xml</dc:format>
				<dc:type rdf:resource="http://purl.org/dc/dcmitype/StillImage"/>
				<dc:title>Puma logo</dc:title>
				<cc:license rdf:resource="http://scripts.sil.org/OFL"/>
			</cc:Work>
			<cc:License rdf:about="http://scripts.sil.org/OFL">
				<cc:permits rdf:resource="http://scripts.sil.org/pub/OFL/Reproduction"/>
				<cc:permits rdf:resource="http://scripts.sil.org/pub/OFL/Distribution"/>
				<cc:permits rdf:resource="http://scripts.sil.org/pub/OFL/Embedding"/>
				<cc:permits rdf:resource="http://scripts.sil.org/pub/OFL/DerivativeWorks"/>
				<cc:requires rdf:resource="http://scripts.sil.org/pub/OFL/Notice"/>
				<cc:requires rdf:resource="http://scripts.sil.org/pub/OFL/Attribution"/>
				<cc:requires rdf:resource="http://scripts.sil.org/pub/OFL/ShareAlike"/>
				<cc:requires rdf:resource="http://scripts.sil.org/pub/OFL/DerivativeRenaming"/>
				<cc:requires rdf:resource="http://scripts.sil.org/pub/OFL/BundlingWhenSelling"/>
			</cc:License>
		</rdf:RDF>
	</metadata>
	<defs id="defs133">
		<pattern height="6" id="EMFhbasepattern" patternUnits="userSpaceOnUse" width="6" x="0" y="0"/>
	</defs>
	<sodipodi:namedview bordercolor="#666666" borderopacity="1" gridtolerance="1" guidetolerance="1" id="namedview131" inkscape:current-layer="Layer_1" inkscape:cx="65.929035" inkscape:cy="19.537481" inkscape:pageopacity="0" inkscape:pageshadow="2" inkscape:showpageshadow="false" inkscape:window-height="705" inkscape:window-maximized="1" inkscape:window-width="1366" inkscape:window-x="-8" inkscape:window-y="-8" inkscape:zoom="1" objecttolerance="1" pagecolor="#ffffff" showgrid="false" showguides="false">
</sodipodi:namedview>
	

	<g id="color_000000ff" transform="matrix(0.15780356,0,0,0.15780356,-518.02312,2.11314)"/>
	<g id="color_868686ff" transform="matrix(0.03854182,0,0,0.03854182,-4.973258,9.5502)"/>
	<g id="color_000000ff-6-3-4" style="opacity:0.46520003;fill:#00ff00" transform="matrix(0.13117361,0,0,0.12883172,-42.796784,72.2117)"/>
	<g id="color_000000ff-0" transform="matrix(0.79798858,0,0,0.79116343,152.44221,-234.06572)"/>
	<g id="g2414" transform="matrix(1.9463693,0,0,-1.9463693,103.02172,193.05609)"/>
	<g id="g2418" transform="matrix(1.9463693,0,0,-1.9463693,117.12745,192.89902)"/>
	<g id="g2422" transform="matrix(1.9463693,0,0,-1.9463693,149.9045,213.8402)"/>
	<g id="g2426" transform="matrix(1.9463693,0,0,-1.9463693,179.20943,197.56505)"/>
	<g id="g2432" transform="matrix(1.9463693,0,0,-1.9463693,212.07484,189.00978)"/>
	<g id="g2440" transform="matrix(1.9463693,0,0,-1.9463693,276.74705,213.8402)"/>
	<g id="g2446" transform="matrix(1.9463693,0,0,-1.9463693,323.77776,213.8402)"/>
	<g id="g2450" transform="matrix(1.9463693,0,0,-1.9463693,340.31508,192.89902)"/>
	<g id="g3148" style="fill:#000000" transform="matrix(1.3417228,0,0,-1.3417228,-997.72546,84.084782)">
		<path animation_id="0" d="m 768.15312,41.95522 c -0.577,0.014 -1.067,0.487 -1.067,1.072 l 0.002,19.12 h -6.302 v -21.075 c 0,-1.034 0.837,-1.876 1.864,-1.876 h 11.013 c 1.034,0 1.861,0.842 1.861,1.876 v 21.075 h -6.296 l -0.005,-19.12 c 0,-0.585 -0.49,-1.058 -1.07,-1.072" id="path102" inkscape:connector-curvature="0" style="fill:#000000;fill-opacity:1;fill-rule:nonzero;stroke:none"/>
		<path animation_id="1" d="m 789.25012,62.14722 h -9.536 c -1.13,0 -2.049,-0.918 -2.049,-2.058 v -20.893 h 6.308 v 19.165 c 0.004,0.587 0.479,1.052 1.066,1.052 0.588,0 1.061,-0.454 1.074,-1.036 v -19.181 h 6.281 v 19.181 c 0.008,0.582 0.48,1.036 1.068,1.036 0.582,0 1.064,-0.465 1.068,-1.052 v -19.165 h 6.308 v 20.893 c 0,1.14 -0.922,2.058 -2.05,2.058 h -9.538" id="path104" inkscape:connector-curvature="0" style="fill:#000000;fill-opacity:1;fill-rule:nonzero;stroke:none"/>
		<path animation_id="2" d="m 756.58312,44.96322 h -6.366 v -5.767 h -6.298 v 22.951 h 12.704 c 1.137,0 2.025,-0.924 2.025,-2.067 v -13.048 c 0,-1.147 -0.923,-2.069 -2.065,-2.069 z m -4.229,13.358 c 0.005,0.638 -0.515,1.092 -1.067,1.092 h -1.07 v -11.608 h 1.07 c 0.556,0 1.072,0.442 1.067,1.078 v 9.438" id="path106" inkscape:connector-curvature="0" style="fill:#000000;fill-opacity:1;fill-rule:nonzero;stroke:none"/>
		<path animation_id="3" d="m 811.41112,39.19622 v 5.762 h -2.141 v -5.762 h -6.295 v 20.893 c 0,1.14 0.919,2.058 2.049,2.058 h 10.634 c 1.132,0 2.05,-0.918 2.05,-2.058 v -20.893 z m 0,8.605 v 10.568 c -0.015,0.584 -0.485,1.033 -1.073,1.033 -0.582,0 -1.062,-0.467 -1.068,-1.05 v -10.551 h 2.141" id="path112" inkscape:connector-curvature="0" style="fill:#000000;fill-opacity:1;fill-rule:nonzero;stroke:none"/>
	</g>
</svg>
