<?xml version="1.0" encoding="iso-8859-1"?>
<!-- Created with Inkscape (http://www.inkscape.org/) -->
<svg height="203" id="svg2" version="1.0" viewBox="-0.963 -0.503 437 203" width="437" xml:space="preserve" xmlns="http://www.w3.org/2000/svg" xmlns:svg="http://www.w3.org/2000/svg">
	
	
	<defs id="defs4">
	</defs>
	
	
	<g id="g6">
		
		
		<g id="g8">
			
			
			<g id="g10">
				
				
				<path animation_id="0" d="M 4.346,85.674 L 32.051,85.674 L 32.051,57.969 L 57.427,57.969 C 64.414,57.969 68.716,60.298 68.716,73.335 C 68.716,77.173 68.838,82.065 70.347,85.674 L 100.728,85.674 C 97.237,81.485 96.773,76.245 95.489,59.834 C 94.796,50.869 90.718,46.68 85.479,44.937 L 85.479,44.703 C 92.93,42.843 98.75,36.788 98.75,25.724 C 98.75,11.876 91.299,2.565 70.933,2.565 L 4.346,2.565 L 4.346,85.674 M 32.051,21.187 L 58.706,21.187 C 65.459,21.187 69.067,24.678 69.067,30.152 C 69.067,35.855 65.459,39.346 58.706,39.346 L 32.051,39.346 L 32.051,21.187 z " id="path12" style="fill:#131c39;fill-rule:evenodd"/>
				
			
			</g>
			
		
		</g>
		
		
		<g id="g14">
			
			
			<g id="g16">
				
				
				<path animation_id="1" d="M 144.116,44.121 C 144.116,26.772 154.126,18.623 168.906,18.623 C 183.808,18.623 193.701,26.772 193.701,44.121 C 193.701,61.582 183.808,69.609 168.906,69.609 C 154.126,69.609 144.116,61.582 144.116,44.121 M 114.785,44.121 C 114.785,78.574 139.58,88.232 168.906,88.232 C 198.242,88.232 223.037,78.574 223.037,44.121 C 223.037,9.663 198.242,0 168.906,0 C 139.58,0 114.785,9.663 114.785,44.121 z " id="path18" style="fill:#131c39;fill-rule:evenodd"/>
				
			
			</g>
			
		
		</g>
		
		
		<g id="g20">
			
			
			<polyline animation_id="6" fill="#131C39" id="polyline22" points="235.132,21.187 265.63,21.187 265.63,85.674 293.335,85.674 293.335,21.187 323.833,21.187      323.833,2.563 235.132,2.563 235.132,21.187 " style="fill:#131c39"/>
			
		
		</g>
		
		
		<g id="g24">
			
			
			<polyline animation_id="7" fill="#131C39" id="polyline26" points="407.607,85.674 435.313,85.674 435.313,2.563 407.607,2.563 407.607,32.246 365.586,32.246      365.586,2.563 337.881,2.563 337.881,85.674 365.586,85.674 365.586,50.869 407.607,50.869 407.607,85.674 " style="fill:#131c39"/>
			
		
		</g>
		
		
		<g id="g28">
			
			
			<g id="g30">
				
				
				<path animation_id="2" d="M 38.154,135.249 C 38.154,131.182 41.689,129.316 46.338,129.316 C 50.869,129.316 53.638,131.875 53.638,135.483 C 53.638,138.857 50.645,142.006 44.785,144.331 C 41.689,141.655 38.154,138.047 38.154,135.249 M 105.166,199.741 L 83.818,179.721 C 89.687,174.013 93.003,169.706 97.207,162.602 L 84.707,153.408 C 81.064,158.764 76.191,165.049 71.992,168.31 L 56.728,153.642 C 66.464,150.849 74.199,145.493 74.199,135.136 C 74.199,122.792 63.144,115.815 44.345,115.815 C 28.09,115.815 14.711,122.216 14.711,136.186 C 14.711,143.168 19.237,147.939 22.558,150.966 C 9.844,153.994 0,161.094 0,175.645 C 0,189.615 10.176,202.3 34.395,202.3 C 49.322,202.3 59.161,197.993 66.465,192.871 L 73.545,199.741 L 105.166,199.741 z M 54.854,181.465 C 51.641,184.024 46.006,186.006 41.026,186.006 C 30.635,186.006 25.44,179.722 25.44,172.964 C 25.44,168.897 28.536,163.418 33.956,161.445 L 54.854,181.465 z " id="path32" style="fill:#131c39;fill-rule:evenodd"/>
				
			
			</g>
			
		
		</g>
		
		
		<g id="g34">
			
			
			<g id="g36">
				
				
				<path animation_id="3" d="M 118.994,199.741 L 146.699,199.741 L 146.699,172.036 L 172.07,172.036 C 179.057,172.036 183.359,174.365 183.359,187.397 C 183.359,191.24 183.476,196.127 184.99,199.741 L 215.371,199.741 C 211.885,195.552 211.416,190.307 210.137,173.901 C 209.434,164.936 205.362,160.747 200.122,158.999 L 200.122,158.765 C 207.568,156.905 213.393,150.85 213.393,139.79 C 213.393,125.937 205.942,116.631 185.571,116.631 L 118.994,116.631 L 118.994,199.741 M 146.699,135.249 L 173.349,135.249 C 180.102,135.249 183.71,138.745 183.71,144.214 C 183.71,149.922 180.102,153.408 173.349,153.408 L 146.699,153.408 L 146.699,135.249 z " id="path38" style="fill:#131c39;fill-rule:evenodd"/>
				
			
			</g>
			
		
		</g>
		
		
		<g id="g40">
			
			
			<g id="g42">
				
				
				<path animation_id="4" d="M 290.356,169.009 L 267.075,169.009 L 278.603,137.578 L 278.832,137.578 L 290.356,169.009 M 225.869,199.741 L 255.552,199.741 L 260.557,186.235 L 296.875,186.235 L 301.88,199.741 L 331.563,199.741 L 295.826,116.631 L 261.954,116.631 L 225.869,199.741 z " id="path44" style="fill:#131c39;fill-rule:evenodd"/>
				
			
			</g>
			
		
		</g>
		
		
		<g id="g46">
			
			
			<path animation_id="5" d="M 338.291,170.405 C 338.291,193.34 356.035,202.3 386.372,202.3 C 416.704,202.3 434.448,193.34 434.448,170.405 L 434.448,116.631 L 405.913,116.631 L 405.913,165.864 C 405.913,179.37 399.438,183.677 386.372,183.677 C 373.301,183.677 366.826,179.37 366.826,165.864 L 366.826,116.631 L 338.291,116.631 L 338.291,170.405" id="path48" style="fill:#131c39"/>
			
		
		</g>
		
	
	</g>
	

</svg>
