<?xml version="1.0" encoding="iso-8859-1"?>
<!-- Created with Inkscape (http://www.inkscape.org/) -->
<svg height="142.3045" id="svg4237" inkscape:version="0.48.5 r10040" sodipodi:docname="Saturn-Logo.svg" sodipodi:version="0.32" version="1.0" width="654.36682" xmlns="http://www.w3.org/2000/svg" xmlns:cc="http://creativecommons.org/ns#" xmlns:dc="http://purl.org/dc/elements/1.1/" xmlns:inkscape="http://www.inkscape.org/namespaces/inkscape" xmlns:rdf="http://www.w3.org/1999/02/22-rdf-syntax-ns#" xmlns:sodipodi="http://sodipodi.sourceforge.net/DTD/sodipodi-0.dtd" xmlns:svg="http://www.w3.org/2000/svg">
	
  
	<defs id="defs4239"/>
	
  
	<sodipodi:namedview bordercolor="#666666" borderopacity="1.0" id="base" inkscape:current-layer="layer1" inkscape:cx="339.50196" inkscape:cy="215.28355" inkscape:document-units="px" inkscape:pageopacity="0.0" inkscape:pageshadow="2" inkscape:window-height="705" inkscape:window-maximized="1" inkscape:window-width="1366" inkscape:window-x="-8" inkscape:window-y="-8" inkscape:zoom="0.7" pagecolor="#ffffff" showgrid="false"/>
	
  
	<metadata id="metadata4242">
		
    
		<rdf:RDF>
			
      
			<cc:Work rdf:about="">
				
        
				<dc:format>image/svg+xml</dc:format>
				
        
				<dc:type rdf:resource="http://purl.org/dc/dcmitype/StillImage"/>
				
      
			</cc:Work>
			
    
		</rdf:RDF>
		
  
	</metadata>
	
  
	<g id="layer1" inkscape:groupmode="layer" inkscape:label="Ebene 1" transform="translate(175.7548,-436.9242)">
		
    
		<path animation_id="0" class="ps01" d="M -175.75485,579.22872 L 478.61199,579.22872 L 478.61199,436.92422 L -175.75485,436.92422 L -175.75485,579.22872 z " id="path3869" style="fill:#00121f;fill-rule:nonzero;stroke:none;fill-opacity:1"/>
		
    
		<path animation_id="1" class="ps02" d="M 139.27077,456.32904 L 121.20337,558.54115 L 143.80586,558.54479 L 153.48395,479.50297 L 154.50526,479.50297 L 163.76997,558.5375 L 186.28734,558.54115 L 168.21994,456.3412 L 139.27077,456.32904" id="path3878" style="fill:white;fill-rule:nonzero;stroke:none"/>
		
    
		<path animation_id="2" class="ps02" d="M 344.18861,506.53112 L 344.18861,508.09955 L 356.48076,558.44753 L 378.84008,558.44753 L 365.69684,514.06933 L 365.69684,513.77753 L 366.19533,513.3763 C 372.2259,508.41567 375.66673,499.27255 375.66673,488.02602 L 375.66673,486.27521 C 375.66673,477.0105 372.78519,469.26559 367.33822,463.89157 C 362.26817,458.90662 355.54457,456.29257 347.45922,456.32904 L 319.3733,456.32904 L 319.3733,558.44753 L 338.1702,558.44753 L 340.93016,558.37701 L 340.93016,473.20491 L 340.94232,473.01038 L 344.37099,473.01038 C 352.43201,473.01038 354.04908,481.35105 354.20714,487.22356 C 354.20714,487.32083 354.2193,488.09897 354.2193,488.85279 C 354.2193,489.47287 354.23146,490.33611 354.23146,490.33611 C 354.23146,490.88324 354.2193,491.72217 354.18282,492.23283 C 353.7816,502.06898 349.47752,505.53413 346.14612,506.17852 C 346.13396,506.17852 346.04885,506.20284 346.03669,506.20284 L 344.18861,506.53112" id="path3880" style="fill:white;fill-rule:nonzero;stroke:none"/>
		
    
		<path animation_id="3" class="ps02" d="M 59.013105,481.65501 L 59.013105,483.01675 C 59.013105,498.98074 68.739833,507.02961 77.651947,514.23955 L 79.998521,516.13626 C 87.816378,522.56806 92.375782,529.01202 92.375782,534.16232 L 92.375782,534.54288 C 92.375782,541.8744 89.287546,543.50849 86.089884,543.50849 C 83.074598,543.50849 79.585135,540.38256 79.585135,534.04073 C 79.585135,534.04073 79.585135,526.47577 79.585135,526.38337 C 79.475709,526.38337 58.2836,526.38337 58.174175,526.38337 C 58.174175,526.47577 58.174175,533.09846 58.174175,533.09846 C 58.174175,549.47097 69.396387,560.46704 86.089884,560.46704 C 103.96275,560.46704 114.57704,550.50444 114.57704,533.7003 L 114.57704,532.79693 C 114.57704,516.53749 107.47653,510.23943 96.242156,500.56134 L 94.467028,499.04154 C 94.45487,499.02938 91.232891,496.31805 91.232891,496.31805 C 85.627864,491.63706 81.238678,487.33299 81.238678,481.70364 L 81.238678,481.14436 C 81.238678,478.05612 82.247826,472.5362 87.57321,472.5362 C 92.497366,472.5362 93.628098,478.91937 93.628098,482.20214 C 93.628098,482.20214 93.628098,488.98653 93.628098,489.07164 C 93.725365,489.07164 114.34603,489.07164 114.43114,489.07164 C 114.43114,488.98653 114.43114,482.0684 114.43114,482.0684 C 114.43114,465.229 103.8898,454.34722 87.57321,454.34722 C 73.80989,454.34722 59.013105,462.89458 59.013105,481.65501" id="path3882" style="fill:white;fill-rule:nonzero;stroke:none"/>
		
    
		<path animation_id="4" class="ps02" d="M 183.63681,456.32904 L 183.63681,474.01953 C 183.63681,474.01953 197.07185,474.01953 199.85613,474.01953 C 199.85613,477.46036 199.85613,558.44753 199.85613,558.44753 L 221.75342,558.44753 L 221.75342,474.01953 L 235.66264,474.01953 L 235.66264,456.32904 L 183.63681,456.32904" id="path3884" style="fill:white;fill-rule:nonzero;stroke:none"/>
		
    
		<path animation_id="5" class="ps02" d="M 282.03482,456.32904 L 282.03482,533.76595 C 282.03482,541.53153 277.91312,542.57229 275.74892,542.57229 C 272.00413,542.57229 269.47518,539.48527 269.47518,533.76595 L 269.47518,456.32904 L 247.65084,456.32904 L 247.65084,536.23898 C 247.65084,550.90931 258.67851,560.37707 275.74892,560.37707 C 292.81933,560.37707 303.85917,550.90931 303.85917,536.23898 L 303.85917,456.32904 L 282.03482,456.32904" id="path3886" style="fill:white;fill-rule:nonzero;stroke:none"/>
		
    
		<path animation_id="6" class="ps02" d="M 434.53776,456.32904 L 435.68065,529.45701 L 435.13352,529.45701 L 418.52513,456.32904 L 389.8556,456.32904 L 389.8556,558.54115 L 411.64347,558.54115 L 409.89266,485.13231 L 410.43979,485.13231 L 427.33998,558.53264 L 455.72986,558.54115 L 455.72986,456.32904 L 434.53776,456.32904" id="path3895" style="fill:white;fill-rule:nonzero;stroke:none"/>
		
    
		<path animation_id="7" class="ps03" d="M 0.50683602,499.35765 C 0.51899443,499.47924 0.68921217,501.32732 0.75000422,502.64042 C 0.79863786,503.55231 0.75000422,504.97484 0.75000422,505.05995 C 0.77432104,505.05995 0.98101401,505.24232 0.99317242,505.25448 C 12.507187,514.68941 24.726389,527.56638 26.829794,537.02319 C 27.413397,539.64211 27.279655,542.00571 26.24619,544.02644 C 25.018191,546.39125 22.708093,548.08491 19.522589,549.17309 C 3.0236269,554.80973 -36.320988,543.99604 -68.431349,528.13175 C -91.374268,516.79281 -111.5086,503.28482 -125.13331,490.08079 C -137.79629,477.80079 -141.22497,468.21997 -137.95435,462.44472 C -136.71055,460.25621 -134.56824,458.63914 -131.70007,457.53272 C -121.22681,453.4475 -101.15206,456.30472 -81.392214,462.20155 C -90.742031,469.18048 -97.258939,478.60325 -100.27544,488.02602 C -100.27544,488.03817 -100.28638,488.07465 -100.28638,488.07465 C -100.28638,488.08681 -100.29368,488.12328 -100.29368,488.12328 C -101.21893,496.75575 -88.723735,508.03876 -76.103305,514.33682 C -76.115464,514.28818 -75.422434,514.59214 -75.422434,514.54351 C -75.434593,514.49487 -75.544019,513.6681 -75.556177,513.63163 C -78.510671,492.18419 -62.267035,460.08599 -45.196627,453.04627 C -44.10237,452.59641 -43.154014,452.32892 -43.020272,452.28029 C -43.129697,452.26813 -45.111518,452.0736 -45.220944,452.06144 C -45.816706,452.01281 -46.412468,451.96417 -47.056864,451.93986 C -47.749893,451.90338 -48.479398,451.87906 -49.257536,451.8669 C -59.762402,451.721 -68.990636,454.51744 -76.674751,459.05253 C -109.65322,447.73305 -133.80347,446.40778 -143.89617,449.77566 C -147.90601,451.12524 -150.61977,453.1557 -151.95841,455.8427 C -153.36514,458.66346 -153.37486,462.21371 -151.98151,466.37189 C -147.38685,480.11089 -127.31696,498.88348 -101.89372,515.55266 C -98.207295,534.95991 -80.80861,554.86688 -55.908186,557.51498 C -55.859553,557.51862 -54.826088,557.62927 -54.765296,557.63413 C -54.789613,557.61468 -54.339751,557.64386 -54.364068,557.62927 C -54.437019,557.56361 -55.677177,556.6262 -55.750127,556.57148 C -63.458559,550.6394 -70.376694,540.85917 -72.747584,532.37382 C -72.249089,532.62793 -71.750595,532.87474 -71.2521,533.12885 C -70.863031,533.3246 -70.48612,533.51306 -70.097051,533.70151 C -29.901347,553.57079 12.276177,563.69996 30.939336,557.4554 C 35.121829,556.0584 38.197907,554.08752 39.608283,551.26312 C 40.957866,548.56152 40.726856,544.9833 39.377273,540.9613 C 35.863492,530.47467 20.799222,514.48272 1.6740434,500.2209 C 1.6132513,500.17227 0.57978648,499.39413 0.50683602,499.35765" id="path3897" style="fill:#eb680b;fill-rule:nonzero;stroke:none;fill-opacity:1"/>
		
  
	</g>
	

</svg>
