<?xml version="1.0" encoding="iso-8859-1"?>
<!-- Created with Inkscape (http://www.inkscape.org/) -->
<svg height="602.36218" id="svg1916" inkscape:output_extension="org.inkscape.output.svg.inkscape" inkscape:version="0.45" sodipodi:docbase="Y:\Eigene Dateien Andreas\Eigene Bilder\sonstiges\Logos\Vektor\[--Convertme!--]\[--vektorisieren--]" sodipodi:docname="Siemens-Schuckert-Logo.svg" sodipodi:modified="true" sodipodi:version="0.32" version="1.0" width="602.36218" xmlns="http://www.w3.org/2000/svg" xmlns:cc="http://web.resource.org/cc/" xmlns:dc="http://purl.org/dc/elements/1.1/" xmlns:inkscape="http://www.inkscape.org/namespaces/inkscape" xmlns:rdf="http://www.w3.org/1999/02/22-rdf-syntax-ns#" xmlns:sodipodi="http://sodipodi.sourceforge.net/DTD/sodipodi-0.dtd" xmlns:svg="http://www.w3.org/2000/svg">
	
  
	<defs id="defs1918"/>
	
  
	<sodipodi:namedview bordercolor="#666666" borderopacity="1.0" height="17cm" id="base" inkscape:current-layer="layer1" inkscape:cx="-49.173719" inkscape:cy="212.05232" inkscape:document-units="px" inkscape:pageopacity="0.0" inkscape:pageshadow="2" inkscape:window-height="1088" inkscape:window-width="1600" inkscape:window-x="-4" inkscape:window-y="-4" inkscape:zoom="0.7" pagecolor="#ffffff" units="cm" width="17cm"/>
	
  
	<metadata id="metadata1921">
		
    
		<rdf:RDF>
			
      
			<cc:Work rdf:about="">
				
        
				<dc:format>image/svg+xml</dc:format>
				
        
				<dc:type rdf:resource="http://purl.org/dc/dcmitype/StillImage"/>
				
      
			</cc:Work>
			
    
		</rdf:RDF>
		
  
	</metadata>
	
  
	<g id="layer1" inkscape:groupmode="layer" inkscape:label="Ebene 1" transform="translate(-45.71875,-171.14229)">
		
    
		<path animation_id="0" d="M 346.89985,188.85881 C 190.41981,188.85881 63.435276,315.84334 63.435276,472.32338 C 63.435276,628.80342 190.41981,755.78789 346.89985,755.78795 C 503.37989,755.78795 630.36444,628.80342 630.36441,472.32338 C 630.36441,315.84334 503.37989,188.85878 346.89985,188.85881 z M 346.89985,221.38437 C 485.41818,221.38437 597.83886,333.80505 597.83886,472.32338 C 597.83886,610.84175 485.41818,723.26239 346.89985,723.26239 C 208.38148,723.26233 95.960836,610.84172 95.960836,472.32338 C 95.960826,333.80505 208.38151,221.38437 346.89985,221.38437 z " id="path2241" style="opacity:1;color:#000000;fill:#000000;fill-opacity:1;fill-rule:nonzero;stroke:none;stroke-width:6.80000019;stroke-linecap:butt;stroke-linejoin:bevel;marker:none;marker-start:none;marker-mid:none;marker-end:none;stroke-miterlimit:4;stroke-dasharray:none;stroke-dashoffset:1.86;stroke-opacity:1;visibility:visible;display:inline;overflow:visible"/>
		
    
		<path animation_id="1" d="M 366.78571,153.25504 C 280.18021,44.6318 156.64213,159.75449 255.71429,246.82646 L 349.82143,345.75504 C 444.71907,445.51461 305.58036,552.76396 236.07143,450.57647" id="path2260" sodipodi:nodetypes="ccsz" style="fill:none;fill-opacity:0.75;fill-rule:evenodd;stroke:#000000;stroke-width:36;stroke-linecap:butt;stroke-linejoin:miter;stroke-opacity:1;stroke-miterlimit:4;stroke-dasharray:none" transform="translate(45.71875,171.14229)"/>
		
    
		<path animation_id="2" d="M 308.57143,178.07647 L 220,262.36218 C 181.08422,299.39494 227.167,372.48703 281.42857,323.79075 L 337.14286,273.79075 C 369.9985,244.30492 423.08497,296.91313 388.57143,330.93361 L 288.57143,429.50504" id="path4202" sodipodi:nodetypes="czsssc" style="fill:none;fill-opacity:0.75;fill-rule:evenodd;stroke:#000000;stroke-width:36;stroke-linecap:butt;stroke-linejoin:miter;stroke-opacity:1;stroke-miterlimit:4;stroke-dasharray:none" transform="translate(45.71875,171.14229)"/>
		
  
	</g>
	

</svg>
