<?xml version="1.0" encoding="iso-8859-1"?>
<!-- Created with Inkscape (http://www.inkscape.org/) -->
<svg height="200" id="svg2" version="1.1" width="800" xmlns="http://www.w3.org/2000/svg" xmlns:cc="http://creativecommons.org/ns#" xmlns:dc="http://purl.org/dc/elements/1.1/" xmlns:rdf="http://www.w3.org/1999/02/22-rdf-syntax-ns#" xmlns:svg="http://www.w3.org/2000/svg">
	
  
	<defs id="defs4"/>
	
  
	<metadata id="metadata7">
		
    
		<rdf:RDF>
			
      
			<cc:Work rdf:about="">
				
        
				<dc:format>image/svg+xml</dc:format>
				
        
				<dc:type rdf:resource="http://purl.org/dc/dcmitype/StillImage"/>
				
        
				<dc:title/>
				
      
			</cc:Work>
			
    
		</rdf:RDF>
		
  
	</metadata>
	
  
	<g id="layer1" transform="translate(0,-852)">
		
    
		<path animation_id="0" d="m 49.78,884.4 c -11.88,0 -21.44,9.5 -21.44,21.4 l 0,64 c 0,11.9 9.56,21.2 21.44,21.2 l 64.02,0 c 11.9,0 21.4,-9.3 21.4,-21.2 l 0,-64 c 0,-11.9 -9.5,-21.4 -21.4,-21.4 l -64.02,0 z m 26.48,24.1 11.03,0 c 1.11,0 2,0.9 2,2.1 l 0,19.7 19.81,0 c 1.2,0 2,0.9 2,2 l 0,11 c 0,1.1 -0.8,2.1 -2,2.1 l -19.81,0 0,19.8 c 0,1.1 -0.89,2 -2,2 l -11.03,0 c -1.14,0 -2.06,-0.9 -2.06,-2 l 0,-19.8 -19.74,0 c -1.14,0 -2.05,-1 -2.05,-2.1 l 0,-11 c 0,-1.1 0.91,-2 2.05,-2 l 19.74,0 0,-19.7 c 0,-1.2 0.92,-2.1 2.06,-2.1 z" id="rect3037" style="fill:#769bc9;fill-opacity:1;fill-rule:nonzero;stroke:none"/>
		
    
		<g id="text2996" style="font-size:51.2717px;font-style:normal;font-variant:normal;font-weight:normal;font-stretch:normal;text-align:start;line-height:100%;letter-spacing:0px;word-spacing:0px;writing-mode:lr-tb;text-anchor:start;fill:#769bc9;fill-opacity:1;stroke:none;font-family:OfficinaSanITCMedium;-inkscape-font-specification:OfficinaSanITCMedium" transform="matrix(0.7382,0,0,0.7382,96,571.7)">
			
      
			<path animation_id="1" d="m 208.9,590.2 c -0.2,-0.8 -0.4,-1.7 -0.6,-2.6 -0.2,-0.9 -0.3,-1.9 -0.6,-3 -0.3,2.1 -0.7,4 -1.1,5.6 l -2.6,10.3 7.5,0 z m 12.4,23.1 c 0.1,0.4 0.1,0.7 0.1,0.9 0,0.3 -0.3,0.4 -0.8,0.4 l -4.4,0 c -0.4,0 -0.6,0 -0.7,-0.1 -0.1,-0.1 -0.3,-0.3 -0.3,-0.6 l -2.5,-9.2 -9.6,0 -2.5,9.2 c 0,0.3 -0.2,0.5 -0.3,0.6 -0.1,0.1 -0.3,0.1 -0.7,0.1 l -4.1,0 c -0.5,0 -0.8,-0.1 -0.8,-0.4 0,-0.2 0,-0.5 0.1,-0.9 L 205,580.1 c 0.1,-0.3 0.2,-0.5 0.3,-0.6 0.1,0 0.3,-0.1 0.7,-0.1 l 4.2,0 c 0.3,0 0.6,0.1 0.6,0.1 0.1,0.1 0.2,0.3 0.3,0.6 l 10.2,33.2 z" id="path3001" style="fill:#769bc9;fill-opacity:1"/>
			
      
			<path animation_id="2" d="m 242,615 c -0.2,0.1 -0.4,0.2 -0.5,0.2 -0.1,0 -0.3,-0.1 -0.4,-0.3 l -10.2,-12.6 0,11.6 c 0,0.3 0,0.5 -0.1,0.6 -0.1,0.1 -0.3,0.1 -0.6,0.1 l -3.7,0 c -0.3,0 -0.6,0 -0.7,-0.1 -0.1,-0.1 -0.1,-0.3 -0.1,-0.6 l 0,-34.8 c 0,-0.4 0.2,-0.7 0.7,-0.8 l 3.5,-0.7 c 0.3,-0.1 0.6,-0.1 0.8,-0.1 0.1,0.1 0.2,0.3 0.2,0.7 l 0,21.8 10.2,-10.7 c 0.2,-0.3 0.5,-0.4 0.7,-0.3 0.1,0.1 0.4,0.3 0.6,0.4 l 2.1,1.6 c 0.2,0.2 0.3,0.4 0.3,0.5 0,0.2 -0.1,0.4 -0.3,0.6 l -8.6,8.8 9.2,11 c 0.2,0.3 0.3,0.5 0.4,0.6 0.1,0.2 0,0.4 -0.4,0.6 z" id="path3003" style="fill:#769bc9;fill-opacity:1"/>
			
      
			<path animation_id="3" d="m 263.5,612.9 c 0,0.3 0.1,0.5 0,0.6 0,0.1 -0.2,0.3 -0.5,0.4 -1,0.5 -2,0.8 -3.1,1 -1,0.3 -2.1,0.4 -3.1,0.4 -1.3,0 -2.4,-0.2 -3.3,-0.6 -0.8,-0.4 -1.5,-0.9 -2,-1.6 -0.5,-0.7 -0.8,-1.5 -1,-2.4 -0.2,-1 -0.3,-2 -0.3,-3.2 l 0,-13.9 -3.5,0 c -0.3,0 -0.6,-0.1 -0.7,-0.2 -0.1,-0.1 -0.1,-0.3 -0.1,-0.6 l 0,-2.4 c 0,-0.4 0,-0.6 0.1,-0.7 0.1,-0.1 0.4,-0.1 0.7,-0.1 l 3.5,0 0,-6.7 c 0,-0.3 0.1,-0.5 0.2,-0.6 0,-0.1 0.2,-0.1 0.5,-0.2 l 3.5,-0.7 c 0.3,0 0.6,-0.1 0.8,0 0.1,0 0.2,0.2 0.2,0.6 l 0,7.6 6.8,0 c 0.4,0 0.6,0.1 0.6,0.2 0,0.2 0,0.4 -0.1,0.7 l -0.5,2.4 c -0.1,0.3 -0.2,0.5 -0.3,0.6 0,0 -0.2,0.1 -0.5,0.1 l -6,0 0,13.4 c 0,1.5 0.2,2.5 0.5,3 0.3,0.5 1,0.8 2,0.8 0.8,0 1.4,-0.1 2,-0.4 0.6,-0.2 1.2,-0.4 1.9,-0.7 0.4,-0.1 0.6,-0.2 0.7,0 0.1,0.1 0.2,0.3 0.2,0.5 l 0.8,2.7 z" id="path3005" style="fill:#769bc9;fill-opacity:1"/>
			
      
			<path animation_id="4" d="m 273.7,613.9 c 0,0.3 0,0.5 -0.1,0.6 0,0.1 -0.2,0.1 -0.5,0.1 l -3.8,0 c -0.3,0 -0.6,0 -0.6,-0.1 -0.1,-0.1 -0.1,-0.3 -0.1,-0.7 l 0,-20.2 -3.9,0 c -0.4,0 -0.6,-0.1 -0.7,-0.1 -0.1,-0.1 -0.1,-0.3 -0.1,-0.7 l 0,-2.4 c 0,-0.4 0,-0.6 0.1,-0.7 0.1,-0.1 0.3,-0.1 0.7,-0.1 l 8.3,0 c 0.3,0 0.5,0 0.6,0.1 0.1,0.1 0.1,0.3 0.1,0.7 l 0,23.5 z m 0.9,-32.6 c 0,1.1 -0.4,1.9 -1.1,2.6 -0.7,0.7 -1.6,1.1 -2.6,1.1 -1,0 -1.8,-0.4 -2.5,-1.1 -0.8,-0.7 -1.1,-1.5 -1.1,-2.6 0,-1 0.3,-1.8 1.1,-2.5 0.7,-0.8 1.5,-1.1 2.5,-1.1 1,0 1.9,0.3 2.6,1.1 0.7,0.7 1.1,1.5 1.1,2.5 z" id="path3007" style="fill:#769bc9;fill-opacity:1"/>
			
      
			<path animation_id="5" d="m 295.2,599.5 c -0.1,-4.5 -1.6,-6.8 -4.6,-6.8 -1.5,0 -2.7,0.6 -3.5,1.6 -0.8,1.1 -1.3,2.9 -1.4,5.2 l 9.5,0 z m 5.5,2 c 0,0.6 0,1.1 -0.1,1.4 0,0.4 -0.3,0.5 -0.7,0.5 l -14.3,0 c 0.2,5 2.3,7.6 6.2,7.6 1.5,0 2.7,-0.3 3.7,-0.7 0.9,-0.4 1.8,-0.8 2.6,-1.2 0.3,-0.2 0.5,-0.1 0.6,0.3 l 1.2,2.6 c 0.2,0.3 0.2,0.5 0.1,0.7 -0.1,0.2 -0.3,0.4 -0.6,0.6 -1,0.6 -2.3,1.1 -3.8,1.5 -1.5,0.4 -3,0.6 -4.3,0.6 -3.5,0 -6.2,-1.2 -8.2,-3.5 -1.9,-2.3 -2.8,-5.5 -2.8,-9.7 0,-2 0.2,-3.9 0.7,-5.5 0.6,-1.7 1.3,-3.1 2.2,-4.2 0.9,-1.2 2,-2.1 3.4,-2.7 1.3,-0.7 2.7,-1 4.3,-1 3.2,0 5.6,1.1 7.3,3.3 1.7,2.1 2.5,5.3 2.5,9.4 z" id="path3009" style="fill:#769bc9;fill-opacity:1"/>
			
      
			<path animation_id="6" d="m 325.5,613.9 c 0,0.3 0,0.5 -0.1,0.6 -0.1,0.1 -0.3,0.1 -0.6,0.1 l -3.8,0 c -0.3,0 -0.5,0 -0.6,-0.1 0,-0.1 0,-0.3 0,-0.6 l 0,-16.5 c 0,-1.5 -0.3,-2.6 -0.8,-3.3 -0.5,-0.6 -1.3,-1 -2.5,-1 -1,0 -1.9,0.2 -2.7,0.6 -0.8,0.4 -1.8,1.1 -2.9,2.1 l 0,18.1 c 0,0.3 0,0.5 -0.1,0.6 -0.1,0.1 -0.3,0.1 -0.6,0.1 l -3.7,0 c -0.3,0 -0.5,0 -0.6,-0.1 -0.1,-0.1 -0.1,-0.3 -0.1,-0.6 l 0,-17.5 c 0,-1.1 -0.1,-2 -0.2,-2.8 -0.2,-0.7 -0.4,-1.5 -0.8,-2.3 -0.1,-0.2 -0.2,-0.4 -0.2,-0.5 0,-0.1 0.1,-0.3 0.4,-0.4 l 3.4,-1.5 c 0.3,-0.2 0.5,-0.1 0.6,0 0.2,0.2 0.3,0.5 0.5,0.8 0.2,0.3 0.3,0.7 0.5,1 0.1,0.4 0.3,0.9 0.5,1.6 0.6,-0.5 1.2,-0.9 1.8,-1.4 0.6,-0.4 1.2,-0.8 1.8,-1.1 0.6,-0.3 1.2,-0.5 1.9,-0.7 0.6,-0.2 1.3,-0.2 2.2,-0.2 2.4,0 4.1,0.6 5.1,1.7 1.1,1.2 1.6,3.2 1.6,6.1 l 0,17.2 z" id="path3011" style="fill:#769bc9;fill-opacity:1"/>
			
      
			<path animation_id="7" d="m 345.2,594.7 c -0.8,-0.6 -1.6,-1 -2.2,-1.2 -0.7,-0.2 -1.3,-0.3 -2,-0.3 -1.7,0 -2.9,0.7 -3.8,2.1 -0.8,1.5 -1.2,3.5 -1.2,6.3 0,2.8 0.3,4.9 1,6.2 0.7,1.3 1.7,2 3.2,2 0.8,0 1.6,-0.2 2.4,-0.5 0.8,-0.4 1.7,-0.9 2.6,-1.7 z m 6.6,-3.6 c -0.6,1 -1,1.9 -1.2,2.7 -0.2,0.9 -0.3,1.9 -0.3,3.1 l 0,7.8 c 0,1.3 0,2.5 0,3.5 0.1,1 0.1,2.1 0.1,3.1 0.1,1 0.1,2.1 0.1,3.1 0.1,1 0,2 0,3.1 -0.2,2.6 -1.1,4.5 -2.7,5.9 -1.5,1.3 -3.7,2 -6.6,2 -0.7,0 -1.4,-0.1 -2.2,-0.2 -0.8,-0.1 -1.6,-0.2 -2.4,-0.4 -0.8,-0.2 -1.6,-0.4 -2.3,-0.7 -0.7,-0.2 -1.4,-0.5 -2,-0.8 -0.4,-0.2 -0.6,-0.3 -0.6,-0.5 0,-0.1 0,-0.3 0.1,-0.6 l 1,-2.8 c 0.1,-0.3 0.2,-0.4 0.4,-0.4 0.2,0 0.4,0 0.7,0.2 1.3,0.5 2.5,1 3.7,1.3 1.2,0.3 2.3,0.5 3.3,0.5 1.7,0 2.9,-0.4 3.6,-1.1 0.7,-0.8 1.1,-2.1 1.1,-3.9 0,-0.6 -0.1,-1.4 -0.1,-2.1 0,-0.8 -0.1,-1.5 -0.2,-2.2 -1,0.9 -2.1,1.4 -3.1,1.8 -1.1,0.4 -2.2,0.6 -3.4,0.6 -2.5,0 -4.5,-1.1 -6,-3.2 -1.4,-2.1 -2.2,-5 -2.2,-8.7 0,-4.2 0.9,-7.5 2.5,-9.9 1.7,-2.3 4.1,-3.5 7.1,-3.5 1.2,0 2.2,0.2 3.1,0.5 0.9,0.3 1.9,0.9 3,1.8 0.1,-0.3 0.2,-0.5 0.2,-0.7 0.1,-0.2 0.2,-0.3 0.3,-0.5 0.2,-0.4 0.4,-0.7 0.6,-1 0.2,-0.2 0.5,-0.3 0.9,-0.1 l 3.3,1.4 c 0.4,0.2 0.4,0.5 0.2,0.9 z" id="path3013" style="fill:#769bc9;fill-opacity:1"/>
			
      
			<path animation_id="8" d="m 370.7,599.5 c -0.1,-4.5 -1.6,-6.8 -4.5,-6.8 -1.6,0 -2.7,0.6 -3.5,1.6 -0.8,1.1 -1.3,2.9 -1.5,5.2 l 9.5,0 z m 5.5,2 c 0,0.6 0,1.1 -0.1,1.4 0,0.4 -0.3,0.5 -0.7,0.5 l -14.3,0 c 0.2,5 2.3,7.6 6.2,7.6 1.5,0 2.8,-0.3 3.7,-0.7 1,-0.4 1.8,-0.8 2.6,-1.2 0.3,-0.2 0.5,-0.1 0.7,0.3 l 1.1,2.6 c 0.2,0.3 0.3,0.5 0.1,0.7 -0.1,0.2 -0.3,0.4 -0.6,0.6 -1,0.6 -2.3,1.1 -3.8,1.5 -1.5,0.4 -2.9,0.6 -4.3,0.6 -3.5,0 -6.2,-1.2 -8.1,-3.5 -1.9,-2.3 -2.9,-5.5 -2.9,-9.7 0,-2 0.3,-3.9 0.8,-5.5 0.5,-1.7 1.2,-3.1 2.1,-4.2 1,-1.2 2.1,-2.1 3.4,-2.7 1.3,-0.7 2.8,-1 4.4,-1 3.2,0 5.6,1.1 7.2,3.3 1.7,2.1 2.5,5.3 2.5,9.4 z" id="path3015" style="fill:#769bc9;fill-opacity:1"/>
			
      
			<path animation_id="9" d="m 396.8,607.6 c 0,2.3 -0.8,4.2 -2.3,5.6 -1.6,1.5 -3.6,2.2 -6.2,2.2 -1.4,0 -2.9,-0.2 -4.4,-0.6 -1.5,-0.4 -2.8,-0.9 -4,-1.6 -0.3,-0.2 -0.5,-0.3 -0.5,-0.4 0,-0.1 0,-0.3 0.2,-0.7 l 1.1,-2.6 c 0.1,-0.3 0.2,-0.4 0.4,-0.4 0.2,0.1 0.4,0.2 0.5,0.3 1.2,0.6 2.4,1 3.5,1.3 1.1,0.4 2.1,0.5 3,0.5 1.1,0 2,-0.3 2.6,-0.9 0.6,-0.5 0.9,-1.3 0.9,-2.3 0,-0.8 -0.2,-1.4 -0.7,-1.8 -0.5,-0.4 -1.5,-1 -2.9,-1.7 -0.3,-0.1 -0.6,-0.3 -1.1,-0.5 -0.4,-0.3 -0.8,-0.5 -1.3,-0.7 -0.5,-0.3 -0.9,-0.5 -1.3,-0.7 -0.5,-0.3 -0.9,-0.5 -1.2,-0.7 -1.1,-0.7 -1.8,-1.5 -2.2,-2.5 -0.4,-0.9 -0.6,-1.9 -0.6,-2.8 0,-1.2 0.2,-2.2 0.6,-3.1 0.4,-1 1,-1.8 1.8,-2.5 0.7,-0.7 1.6,-1.2 2.7,-1.6 1,-0.4 2.1,-0.6 3.4,-0.6 1.1,0 2.2,0.2 3.5,0.5 1.2,0.3 2.3,0.7 3.2,1.2 0.4,0.3 0.5,0.7 0.3,1.2 l -1.1,2.2 c -0.1,0.3 -0.3,0.5 -0.4,0.5 -0.2,0 -0.4,-0.1 -0.6,-0.2 -1.9,-0.9 -3.5,-1.3 -4.8,-1.3 -1.2,0 -2.1,0.3 -2.7,0.8 -0.6,0.5 -0.9,1.3 -0.9,2.2 0,0.8 0.2,1.4 0.7,1.9 0.4,0.4 1.2,0.9 2.4,1.5 0.3,0.2 0.7,0.4 1.2,0.7 0.5,0.2 1,0.5 1.5,0.7 0.5,0.3 1,0.5 1.4,0.8 0.5,0.2 0.8,0.4 1,0.5 1.3,0.7 2.2,1.6 2.6,2.5 0.4,0.8 0.7,1.9 0.7,3.1 z" id="path3017" style="fill:#769bc9;fill-opacity:1"/>
			
      
			<path animation_id="10" d="m 414.9,599.5 c -0.1,-4.5 -1.6,-6.8 -4.6,-6.8 -1.5,0 -2.7,0.6 -3.5,1.6 -0.8,1.1 -1.3,2.9 -1.5,5.2 l 9.6,0 z m 5.5,2 c 0,0.6 -0.1,1.1 -0.1,1.4 -0.1,0.4 -0.3,0.5 -0.8,0.5 l -14.2,0 c 0.2,5 2.3,7.6 6.2,7.6 1.5,0 2.7,-0.3 3.7,-0.7 0.9,-0.4 1.8,-0.8 2.5,-1.2 0.4,-0.2 0.6,-0.1 0.7,0.3 l 1.2,2.6 c 0.2,0.3 0.2,0.5 0.1,0.7 -0.1,0.2 -0.3,0.4 -0.6,0.6 -1,0.6 -2.3,1.1 -3.8,1.5 -1.6,0.4 -3,0.6 -4.3,0.6 -3.5,0 -6.3,-1.2 -8.2,-3.5 -1.9,-2.3 -2.8,-5.5 -2.8,-9.7 0,-2 0.2,-3.9 0.7,-5.5 0.5,-1.7 1.3,-3.1 2.2,-4.2 0.9,-1.2 2,-2.1 3.3,-2.7 1.4,-0.7 2.8,-1 4.4,-1 3.2,0 5.6,1.1 7.3,3.3 1.6,2.1 2.5,5.3 2.5,9.4 z" id="path3019" style="fill:#769bc9;fill-opacity:1"/>
			
      
			<path animation_id="11" d="m 436.3,613.5 c 0.1,0.2 0.1,0.4 0.1,0.5 0,0.1 -0.1,0.3 -0.4,0.4 -0.7,0.3 -1.4,0.5 -2.1,0.6 -0.8,0.2 -1.6,0.3 -2.3,0.3 -1.2,0 -2.2,-0.2 -2.9,-0.5 -0.8,-0.3 -1.4,-0.8 -1.8,-1.4 -0.4,-0.6 -0.7,-1.3 -0.9,-2.1 -0.2,-0.8 -0.3,-1.7 -0.3,-2.7 0,-0.8 0,-1.5 0,-2.2 0,-0.8 0,-1.5 0,-2.2 l 0,-25.1 c 0,-0.4 0.2,-0.7 0.6,-0.8 l 3.9,-0.8 c 0.3,-0.1 0.5,-0.1 0.6,0 0.1,0.1 0.2,0.4 0.2,0.7 l 0,30.3 c 0,0.8 0.1,1.4 0.4,1.7 0.3,0.3 0.7,0.5 1.3,0.5 0.7,0 1.3,-0.1 1.9,-0.4 0.4,-0.2 0.7,-0.2 0.8,0.2 l 0.9,3 z" id="path3021" style="fill:#769bc9;fill-opacity:1"/>
			
      
			<path animation_id="12" d="m 449.9,613.5 c 0.1,0.2 0.1,0.4 0.1,0.5 0.1,0.1 -0.1,0.3 -0.4,0.4 -0.6,0.3 -1.4,0.5 -2.1,0.6 -0.8,0.2 -1.6,0.3 -2.3,0.3 -1.2,0 -2.2,-0.2 -2.9,-0.5 -0.8,-0.3 -1.4,-0.8 -1.8,-1.4 -0.4,-0.6 -0.7,-1.3 -0.9,-2.1 -0.2,-0.8 -0.2,-1.7 -0.2,-2.7 0,-0.8 -0.1,-1.5 -0.1,-2.2 0,-0.8 0,-1.5 0,-2.2 l 0,-25.1 c 0,-0.4 0.2,-0.7 0.7,-0.8 l 3.8,-0.8 c 0.4,-0.1 0.6,-0.1 0.7,0 0,0.1 0.1,0.4 0.1,0.7 l 0,30.3 c 0,0.8 0.1,1.4 0.4,1.7 0.3,0.3 0.7,0.5 1.3,0.5 0.7,0 1.3,-0.1 1.9,-0.4 0.4,-0.2 0.7,-0.2 0.8,0.2 l 0.9,3 z" id="path3023" style="fill:#769bc9;fill-opacity:1"/>
			
      
			<path animation_id="13" d="m 468.5,607.6 c 0,2.3 -0.8,4.2 -2.3,5.6 -1.5,1.5 -3.6,2.2 -6.2,2.2 -1.4,0 -2.9,-0.2 -4.3,-0.6 -1.5,-0.4 -2.9,-0.9 -4.1,-1.6 -0.3,-0.2 -0.4,-0.3 -0.4,-0.4 -0.1,-0.1 0,-0.3 0.1,-0.7 l 1.1,-2.6 c 0.1,-0.3 0.3,-0.4 0.4,-0.4 0.2,0.1 0.4,0.2 0.6,0.3 1.2,0.6 2.3,1 3.4,1.3 1.2,0.4 2.2,0.5 3,0.5 1.1,0 2,-0.3 2.6,-0.9 0.7,-0.5 1,-1.3 1,-2.3 0,-0.8 -0.3,-1.4 -0.8,-1.8 -0.5,-0.4 -1.4,-1 -2.8,-1.7 -0.3,-0.1 -0.7,-0.3 -1.1,-0.5 -0.4,-0.3 -0.9,-0.5 -1.3,-0.7 -0.5,-0.3 -1,-0.5 -1.4,-0.7 -0.4,-0.3 -0.8,-0.5 -1.1,-0.7 -1.1,-0.7 -1.9,-1.5 -2.3,-2.5 -0.4,-0.9 -0.6,-1.9 -0.6,-2.8 0,-1.2 0.2,-2.2 0.6,-3.1 0.5,-1 1.1,-1.8 1.8,-2.5 0.8,-0.7 1.7,-1.2 2.7,-1.6 1,-0.4 2.2,-0.6 3.4,-0.6 1.1,0 2.3,0.2 3.5,0.5 1.3,0.3 2.3,0.7 3.2,1.2 0.5,0.3 0.6,0.7 0.3,1.2 l -1,2.2 c -0.2,0.3 -0.3,0.5 -0.5,0.5 -0.1,0 -0.3,-0.1 -0.6,-0.2 -1.9,-0.9 -3.5,-1.3 -4.8,-1.3 -1.2,0 -2,0.3 -2.7,0.8 -0.6,0.5 -0.9,1.3 -0.9,2.2 0,0.8 0.3,1.4 0.7,1.9 0.5,0.4 1.3,0.9 2.4,1.5 0.4,0.2 0.8,0.4 1.3,0.7 0.4,0.2 0.9,0.5 1.4,0.7 0.5,0.3 1,0.5 1.5,0.8 0.4,0.2 0.7,0.4 0.9,0.5 1.3,0.7 2.2,1.6 2.6,2.5 0.5,0.8 0.7,1.9 0.7,3.1 z" id="path3025" style="fill:#769bc9;fill-opacity:1"/>
			
      
			<path animation_id="14" d="m 488.8,595.1 c -0.2,0.2 -0.3,0.2 -0.5,0.2 -0.2,-0.1 -0.3,-0.2 -0.3,-0.2 -1,-0.8 -1.9,-1.3 -2.6,-1.6 -0.6,-0.2 -1.4,-0.4 -2.2,-0.4 -3.7,0 -5.6,3 -5.6,9 0,3.1 0.4,5.3 1.3,6.8 0.9,1.4 2.3,2.2 4.1,2.2 1.1,0 2,-0.2 2.7,-0.6 0.8,-0.3 1.6,-0.8 2.4,-1.4 0.4,-0.3 0.7,-0.3 0.8,0.1 l 1.1,2.5 c 0.1,0.3 0.2,0.6 0.1,0.7 0,0.2 -0.1,0.4 -0.5,0.6 -0.9,0.8 -2,1.3 -3.4,1.8 -1.3,0.4 -2.6,0.6 -3.8,0.6 -3.3,0 -5.9,-1.1 -7.6,-3.4 -1.8,-2.2 -2.7,-5.3 -2.7,-9.3 0,-2.2 0.2,-4.1 0.7,-5.8 0.5,-1.7 1.3,-3.2 2.2,-4.4 1,-1.2 2.2,-2.1 3.5,-2.7 1.4,-0.7 3,-1 4.7,-1 1.3,0 2.5,0.2 3.7,0.6 1.1,0.4 2.2,1 3.1,1.7 0.2,0.1 0.3,0.3 0.5,0.6 0.1,0.2 0.1,0.4 0,0.6 z" id="path3027" style="fill:#769bc9;fill-opacity:1"/>
			
      
			<path animation_id="15" d="m 513.6,613.9 c 0,0.3 0,0.5 -0.1,0.6 -0.2,0.1 -0.4,0.1 -0.7,0.1 l -3.7,0 c -0.4,0 -0.6,0 -0.6,-0.2 -0.1,-0.1 -0.1,-0.3 -0.1,-0.6 l 0,-16.4 c 0,-1.6 -0.3,-2.7 -0.7,-3.3 -0.5,-0.7 -1.3,-1 -2.5,-1 -0.9,0 -1.8,0.2 -2.6,0.6 -0.9,0.4 -1.9,1.1 -3,2.1 l 0,18.1 c 0,0.3 0,0.5 -0.1,0.6 -0.1,0.1 -0.3,0.1 -0.6,0.1 l -3.7,0 c -0.3,0 -0.6,0 -0.7,-0.1 -0.1,-0.1 -0.1,-0.3 -0.1,-0.6 l 0,-34.8 c 0,-0.4 0.2,-0.7 0.7,-0.8 l 3.5,-0.7 c 0.4,-0.1 0.6,-0.1 0.8,-0.1 0.1,0.1 0.2,0.3 0.2,0.7 l 0,13.8 c 1.2,-1.1 2.4,-1.9 3.6,-2.4 1.2,-0.5 2.5,-0.8 3.9,-0.8 1.3,0 2.4,0.2 3.3,0.6 0.8,0.4 1.5,0.9 2,1.6 0.4,0.7 0.8,1.6 1,2.6 0.1,0.9 0.2,2 0.2,3.1 l 0,17.2 z" id="path3029" style="fill:#769bc9;fill-opacity:1"/>
			
      
			<path animation_id="16" d="m 532.4,602.8 c -0.8,0 -1.7,0 -2.6,0.1 -1,0.1 -1.9,0.3 -2.7,0.6 -0.9,0.3 -1.6,0.7 -2.2,1.4 -0.5,0.6 -0.8,1.4 -0.8,2.6 0,1.1 0.3,2 1,2.7 0.7,0.8 1.5,1.1 2.5,1.1 1.5,0 3.2,-0.8 4.8,-2.4 z m 6.3,9.9 c 0.1,0.2 0.1,0.3 0.1,0.5 0,0.2 0,0.3 -0.2,0.4 l -3.1,1.5 c -0.4,0.2 -0.7,0.2 -0.9,0.1 -0.2,-0.2 -0.3,-0.4 -0.5,-0.8 -0.4,-0.6 -0.6,-1.3 -0.9,-2.3 -1.1,1.1 -2.2,1.9 -3.2,2.4 -1.1,0.5 -2.3,0.7 -3.7,0.7 -2.2,0 -4,-0.6 -5.3,-2 -1.3,-1.3 -2,-3.1 -2,-5.4 0,-1.9 0.4,-3.4 1.3,-4.6 0.8,-1.1 1.9,-2 3.2,-2.6 1.3,-0.7 2.7,-1.1 4.3,-1.3 1.6,-0.2 3.1,-0.3 4.6,-0.3 l 0,-1.6 c 0,-1.6 -0.2,-2.7 -0.8,-3.3 -0.6,-0.7 -1.7,-1 -3.2,-1 -0.9,0 -1.8,0.1 -2.7,0.4 -0.9,0.2 -2,0.6 -3.2,1.1 -0.2,0.1 -0.4,0.1 -0.6,0.1 -0.1,0 -0.3,-0.1 -0.3,-0.3 l -0.8,-2.6 c -0.2,-0.5 -0.2,-0.8 0.1,-1 0.3,-0.2 0.5,-0.3 0.8,-0.4 2.4,-1 4.8,-1.5 7.3,-1.5 2.8,0 5,0.6 6.4,1.8 1.4,1.2 2.1,3.2 2.1,5.9 l 0,10.1 c 0,1.4 0.1,2.5 0.2,3.4 0.2,0.9 0.5,1.8 1,2.6 z" id="path3031" style="fill:#769bc9;fill-opacity:1"/>
			
      
			<path animation_id="17" d="m 558.8,582.6 c 0,0.2 -0.2,0.3 -0.4,0.3 -0.3,-0.1 -0.5,-0.1 -0.6,-0.2 -1.3,-0.6 -2.4,-0.9 -3.3,-0.9 -0.6,0 -1.1,0.1 -1.5,0.2 -0.4,0.2 -0.7,0.4 -0.9,0.8 -0.3,0.3 -0.4,0.8 -0.5,1.4 -0.1,0.7 -0.1,1.4 -0.1,2.4 l 0,3 6.7,0 c 0.4,0 0.6,0.2 0.5,0.5 l -0.8,2.9 c -0.1,0.3 -0.2,0.5 -0.3,0.5 -0.1,0.1 -0.2,0.1 -0.3,0.1 l -5.8,0 0,20.3 c 0,0.3 -0.1,0.5 -0.2,0.6 0,0.1 -0.2,0.1 -0.6,0.1 l -3.7,0 c -0.3,0 -0.5,0 -0.6,-0.1 0,-0.1 -0.1,-0.3 -0.1,-0.6 l 0,-20.3 -3.6,0 c -0.5,0 -0.8,-0.2 -0.8,-0.6 l 0,-2.8 c 0,-0.3 0.1,-0.4 0.2,-0.5 0.2,-0.1 0.4,-0.1 0.7,-0.1 l 3.5,0 0,-3 c 0,-2 0.2,-3.5 0.5,-4.5 0.2,-1 0.8,-1.9 1.7,-2.7 1.4,-1.3 3.2,-1.9 5.5,-1.9 1,0 2,0.1 3.1,0.4 1,0.2 1.9,0.5 2.4,0.9 0.3,0.1 0.4,0.3 0.4,0.4 0,0.2 -0.1,0.3 -0.1,0.5 z" id="path3033" style="fill:#769bc9;fill-opacity:1"/>
			
      
			<path animation_id="18" d="m 577.4,612.9 c 0.1,0.3 0.1,0.5 0.1,0.6 0,0.1 -0.2,0.3 -0.5,0.4 -1,0.5 -2,0.8 -3.1,1 -1.1,0.3 -2.1,0.4 -3.1,0.4 -1.3,0 -2.4,-0.2 -3.3,-0.6 -0.9,-0.4 -1.5,-0.9 -2,-1.6 -0.5,-0.7 -0.8,-1.5 -1,-2.4 -0.2,-1 -0.3,-2 -0.3,-3.2 l 0,-13.9 -3.5,0 c -0.4,0 -0.6,-0.1 -0.7,-0.2 -0.1,-0.1 -0.2,-0.3 -0.2,-0.6 l 0,-2.4 c 0,-0.4 0.1,-0.6 0.2,-0.7 0.1,-0.1 0.3,-0.1 0.7,-0.1 l 3.5,0 0,-6.7 c 0,-0.3 0,-0.5 0.1,-0.6 0.1,-0.1 0.3,-0.1 0.6,-0.2 l 3.5,-0.7 c 0.3,0 0.5,-0.1 0.7,0 0.2,0 0.3,0.2 0.3,0.6 l 0,7.6 6.7,0 c 0.4,0 0.6,0.1 0.7,0.2 0,0.2 0,0.4 -0.1,0.7 l -0.6,2.4 c 0,0.3 -0.1,0.5 -0.2,0.6 -0.1,0 -0.3,0.1 -0.5,0.1 l -6,0 0,13.4 c 0,1.5 0.1,2.5 0.5,3 0.3,0.5 1,0.8 2,0.8 0.7,0 1.4,-0.1 2,-0.4 0.6,-0.2 1.2,-0.4 1.9,-0.7 0.4,-0.1 0.6,-0.2 0.7,0 0.1,0.1 0.1,0.3 0.2,0.5 l 0.7,2.7 z" id="path3035" style="fill:#769bc9;fill-opacity:1"/>
			
    
		</g>
		
    
		<path animation_id="19" d="m 224.4,892.6 0,33.9 -69.1,0 0,20.7 69.1,0 0,35.6 20.6,0 0,-90.2 -20.6,0 z" id="path3060" style="font-size:medium;font-style:normal;font-variant:normal;font-weight:normal;font-stretch:normal;text-indent:0;text-align:start;text-decoration:none;line-height:normal;letter-spacing:normal;word-spacing:normal;text-transform:none;direction:ltr;block-progression:tb;writing-mode:lr-tb;text-anchor:start;baseline-shift:baseline;color:#000000;fill:#000000;fill-opacity:1;stroke:none;stroke-width:28;marker:none;visibility:visible;display:inline;overflow:visible;enable-background:accumulate;font-family:Sans;-inkscape-font-specification:Sans"/>
		
    
		<path animation_id="20" d="m 267.4,892.6 0,90.6 20.7,0 0,-35.5 62.2,0 c 2.1,0 5.4,1 7.4,2.6 2,1.5 3.1,3.1 3.1,6.6 l 0,26.5 20.7,0 0,-26.5 c 0,-9.6 -4.8,-18 -11,-22.9 -6.2,-4.8 -13.3,-7 -20.2,-7 l -62.2,0 0,-34.4 -20.7,0 z" id="path3875" style="font-size:medium;font-style:normal;font-variant:normal;font-weight:normal;font-stretch:normal;text-indent:0;text-align:start;text-decoration:none;line-height:normal;letter-spacing:normal;word-spacing:normal;text-transform:none;direction:ltr;block-progression:tb;writing-mode:lr-tb;text-anchor:start;baseline-shift:baseline;color:#000000;fill:#000000;fill-opacity:1;stroke:none;stroke-width:28;marker:none;visibility:visible;display:inline;overflow:visible;enable-background:accumulate;font-family:Sans;-inkscape-font-specification:Sans"/>
		
    
		<path animation_id="21" d="m 434.2,927 -0.2,18.8 52.2,0.3 0.2,-19.1 z m -34.3,0 0,29.5 c 0,14.4 12,26.5 26.5,26.5 l 67.6,0 c 14.4,0 26.5,-12.1 26.5,-26.5 l 0,-29.5 -20.7,0 0,29.5 c 0,3.4 -2.4,5.8 -5.8,5.8 l -67.6,0 c -3.4,0 -5.8,-2.4 -5.8,-5.8 l 0,-29.5 z" id="rect3879" style="font-size:medium;font-style:normal;font-variant:normal;font-weight:normal;font-stretch:normal;text-indent:0;text-align:start;text-decoration:none;line-height:normal;letter-spacing:normal;word-spacing:normal;text-transform:none;direction:ltr;block-progression:tb;writing-mode:lr-tb;text-anchor:start;baseline-shift:baseline;color:#000000;fill:#000000;fill-opacity:1;stroke:none;stroke-width:28;marker:none;visibility:visible;display:inline;overflow:visible;enable-background:accumulate;font-family:Sans;-inkscape-font-specification:Sans"/>
		
    
		<path animation_id="22" d="m 701.2,926.4 c -14.9,0 -26.8,12.7 -26.8,28.4 0,15.7 11.9,28.3 26.8,28.3 l 82.8,0 0,-56.7 -82.8,0 z m 2.8,19.1 59.3,0 0,18.2 -59.3,0 c -5.4,0 -9.7,-4 -9.7,-9.1 0,-5.1 4.3,-9.1 9.7,-9.1 z" id="rect3935" style="fill:#000000;stroke:none"/>
		
    
		<path animation_id="23" d="m 564.2,926.4 c -14.8,0 -26.7,12.7 -26.7,28.4 0,15.7 11.9,28.3 26.7,28.3 l 33.9,0 9.4,0 21.4,0 c 4.1,1.1 7.2,4.9 7.2,8.9 0,5 -4.3,9 -9.6,9 l -19,0 -9.4,0 -55.9,0 0,20 55.9,0 9.4,0 21.8,0 c 14.7,0 26.6,-13 26.6,-29 0,-7 -2.4,-13.5 -6.5,-18.5 4.1,-5.1 6.5,-11.6 6.5,-18.7 0,-15.7 -11.9,-28.4 -26.6,-28.4 l -18.1,0 -13.1,0 z m 2.8,19.1 31.1,0 13.1,0 15.3,0 c 5.3,0 9.6,4 9.6,9.1 0,5.1 -4.3,9.1 -9.6,9.1 l -15.3,0 -13.1,0 -14.7,0 -16.4,0 c -5.3,0 -9.6,-4 -9.6,-9.1 0,-5.1 4.3,-9.1 9.6,-9.1 z" id="rect3935-6" style="fill:#000000;stroke:none"/>
		
  
	</g>
	

</svg>
