<?xml version="1.0" encoding="iso-8859-1"?>
<!-- Created with Inkscape (http://www.inkscape.org/) -->
<svg height="228.5433" id="svg16714" version="1.1" width="892.91339" xmlns="http://www.w3.org/2000/svg" xmlns:cc="http://creativecommons.org/ns#" xmlns:dc="http://purl.org/dc/elements/1.1/" xmlns:rdf="http://www.w3.org/1999/02/22-rdf-syntax-ns#" xmlns:svg="http://www.w3.org/2000/svg">
	
  
	<defs id="defs16716"/>
	
  
	<metadata id="metadata16719">
		
    
		<rdf:RDF>
			
      
			<cc:Work rdf:about="">
				
        
				<dc:format>image/svg+xml</dc:format>
				
        
				<dc:type rdf:resource="http://purl.org/dc/dcmitype/StillImage"/>
				
        
				<dc:title/>
				
      
			</cc:Work>
			
    
		</rdf:RDF>
		
  
	</metadata>
	
  
	<g id="layer1" transform="translate(48.40416,-466.11989)">
		
    
		<g id="g16743" transform="matrix(6.0738589,0,0,6.0738589,-4813.9292,-4570.5598)">
			
      
			<path animation_id="0" d="m 829.84306,852.1544 0,14.12875 4.5575,0 0,-5.24125 8.2025,0 0,-4.1025 -8.2025,0 0,-3.87375 c 0,-0.50375 0.40875,-0.91125 0.91125,-0.91125 l 7.2925,0 0,-4.1025 -8.20375,0 c -2.5175,0 -4.5575,1.83625 -4.5575,4.1025" id="path16598" style="fill:#1c418a;fill-opacity:1;fill-rule:nonzero;stroke:none"/>
			
      
			<path animation_id="1" d="m 821.63931,848.0519 -7.2925,0 c -2.51625,0 -4.5575,1.83625 -4.5575,4.1025 l 0,14.12875 4.5575,0 0,-5.24125 7.2925,0 0,5.24125 4.5575,0 0,-14.12875 c 0,-2.26625 -2.04125,-4.1025 -4.5575,-4.1025 z m 0,8.8875 -7.2925,0 0,-3.87375 c 0,-0.50375 0.40875,-0.91125 0.9125,-0.91125 l 5.46875,0 c 0.5025,0 0.91125,0.4075 0.91125,0.91125 l 0,3.87375" id="path16600" style="fill:#1c418a;fill-opacity:1;fill-rule:nonzero;stroke:none"/>
			
      
			<path animation_id="2" d="m 801.58556,862.18065 -3.645,0 0,-14.12875 -4.5575,0 0,14.12875 -2.735,0 c -0.50375,0 -0.9125,-0.4075 -0.9125,-0.91125 l 0,-13.2175 -4.55625,0 0,14.12875 c 0,2.26625 2.04,4.1025 4.55625,4.1025 l 16.4075,0 0,-18.23125 -4.5575,0 0,14.12875" id="path16602" style="fill:#1c418a;fill-opacity:1;fill-rule:nonzero;stroke:none"/>
			
      
			<path animation_id="3" d="m 845.79431,866.28315 4.55712,0 0,-18.23 -4.55712,0 0,18.23 z" id="path16604" style="fill:#1c418a;fill-opacity:1;fill-rule:nonzero;stroke:none"/>
			
      
			<path animation_id="4" d="m 864.48056,848.0519 -6.38,0 c -2.5175,0 -4.55875,1.83625 -4.55875,4.1025 l 0,10.02625 c 0,2.26625 2.04125,4.1025 4.55875,4.1025 l 6.38,0 c 2.51625,0 4.5575,-1.83625 4.5575,-4.1025 l 0,-10.02625 c 0,-2.26625 -2.04125,-4.1025 -4.5575,-4.1025 z m 0,13.2175 c 0,0.50375 -0.40875,0.91125 -0.91125,0.91125 l -4.5575,0 c -0.50375,0 -0.91125,-0.4075 -0.91125,-0.91125 l 0,-8.20375 c 0,-0.50375 0.4075,-0.91125 0.91125,-0.91125 l 4.5575,0 c 0.50375,0 0.91125,0.4075 0.91125,0.91125 l 0,8.20375" id="path16606" style="fill:#1c418a;fill-opacity:1;fill-rule:nonzero;stroke:none"/>
			
      
			<path animation_id="5" d="m 880.88806,855.1169 -3.64625,0 c -0.50375,0 -0.91125,-0.40875 -0.91125,-0.9125 l 0,-1.13875 c 0,-0.50375 0.4075,-0.91125 0.91125,-0.91125 l 7.2925,0 0,-4.1025 -8.20375,0 c -2.5175,0 -4.5575,1.83625 -4.5575,4.1025 l 0,2.9625 c 0,2.265 2.04,4.10125 4.5575,4.10125 l 3.64625,0 c 0.5025,0 0.91125,0.40875 0.91125,0.9125 l 0,1.13875 c 0,0.50375 -0.40875,0.91125 -0.91125,0.91125 l -7.7475,0 0,4.1025 8.65875,0 c 2.5175,0 4.5575,-1.83625 4.5575,-4.1025 l 0,-2.9625 c 0,-2.265 -2.04,-4.10125 -4.5575,-4.10125" id="path16608" style="fill:#1c418a;fill-opacity:1;fill-rule:nonzero;stroke:none"/>
			
      
			<path animation_id="6" d="m 921.90556,829.8219 0,25.5225 c 0,1.2575 -1.02,2.27875 -2.27875,2.27875 l -11.39375,0 0,8.65875 13.6725,0 c 5.035,0 9.11625,-4.08 9.11625,-9.115 l 0,-27.345 -9.11625,0" id="path16610" style="fill:#1c418a;fill-opacity:1;fill-rule:nonzero;stroke:none"/>
			
      
			<path animation_id="7" d="m 917.34806,829.8219 -13.6725,0 c -5.03375,0 -9.115,4.08125 -9.115,9.115 l 0,27.34625 9.115,0 0,-25.52375 c 0,-1.25875 1.02,-2.27875 2.27875,-2.27875 l 11.39375,0 0,-8.65875" id="path16612" style="fill:#1c418a;fill-opacity:1;fill-rule:nonzero;stroke:none"/>
			
    
		</g>
		
  
	</g>
	

</svg>
