<?xml version="1.0" encoding="iso-8859-1"?>
<!-- Generator: Adobe Illustrator 15.0.0, SVG Export Plug-In . SVG Version: 6.00 Build 0)  -->
<!DOCTYPE svg
  PUBLIC '-//W3C//DTD SVG 1.1//EN'
  'http://www.w3.org/Graphics/SVG/1.1/DTD/svg11.dtd'>
<svg enable-background="new 0 0 595.275 201.26" height="201.26px" version="1.1" viewBox="0 0 595.275 201.26" width="595.275px" x="0px" xml:space="preserve" xmlns="http://www.w3.org/2000/svg" xmlns:xlink="http://www.w3.org/1999/xlink" y="0px">
	
	

	
	<g id="Hintergrund">
</g>
	
	

	
	<g display="none" id="Hilfslinien">
</g>
	
	

	
	<g id="Vordergrund">
		
		
	
		
		<g>
			
			
		
			
			<path animation_id="0" clip-rule="evenodd" d="    M268.543,107.295c-9.416-47.349-1.342-88.717,18.031-92.398c19.375-3.682,42.71,31.717,52.126,79.067    c9.415,47.35,1.342,88.717-18.031,92.399C301.295,190.045,277.958,154.645,268.543,107.295z" fill="#164194" fill-rule="evenodd" stroke="#164194" stroke-miterlimit="3.8637" stroke-width="0"/>
			
			
		
			
			<g>
				
				
			
				
				<path animation_id="1" d="M38.392,84.184c0.901,1.402,1.502,5.908,1.302,8.211c3.806-4.004,9.814-7.609,16.123-7.609     c8.711,0,13.718,6.51,13.718,16.924c0,9.312-4.005,22.73-10.213,28.939c-4.607,4.605-10.815,7.61-17.425,7.61     c-4.006,0-8.21-0.7-10.415-2.003c0.1,0.902-0.299,2.504-0.5,3.506l-3.405,16.021l-13.618,3.404l12.216-57.379     c1.203-5.708,0.801-9.713-0.199-12.718L38.392,84.184z M40.996,128.246c4.305,0,6.609-2.004,8.21-4.406     c3.806-5.709,5.908-16.023,5.908-21.73c0-4.105-1.301-6.109-4.706-6.109c-3.305,0-7.711,2.304-11.517,8.111l-4.706,21.931     C34.987,127.144,38.292,128.246,40.996,128.246z" fill="#9D9D9C"/>
				
				
			
				
				<path animation_id="2" d="M92.764,84.184c0.802,1.703,1.602,5.408,1.202,8.312c4.506-4.606,9.312-7.811,14.32-7.811     c1.902,0,2.803,0.199,4.606,1.102l-5.808,11.816c-1.201-0.701-2.404-1.002-3.906-1.002c-2.604,0-5.507,1.502-9.713,7.01     l-7.11,33.547H72.937l7.209-33.848c1.402-6.408,1.202-10.916,0.201-14.22L92.764,84.184z" fill="#9D9D9C"/>
				
				
			
				
				<path animation_id="3" d="M132.818,84.686l-11.116,52.473h-13.418l10.715-50.37L132.818,84.686z M137.224,71.768     c0,4.605-3.706,8.311-8.312,8.311c-4.505,0-8.211-3.705-8.211-8.311c0-4.607,3.805-8.312,8.412-8.312     C133.619,63.455,137.224,67.16,137.224,71.768z" fill="#9D9D9C"/>
				
				
			
				
				<path animation_id="4" d="M155.547,84.184c0.702,1.604,1.402,5.508,1.203,8.211c5.006-5.105,10.714-7.609,16.422-7.609     c5.208,0,8.913,2.303,9.413,7.609c5.507-5.506,11.116-7.609,16.524-7.609c5.707,0,10.314,3.004,10.314,10.615     c0,2.002-0.301,4.406-0.802,6.709l-7.41,35.049h-13.017l7.209-33.848c0.4-1.902,0.601-3.305,0.601-4.406     c0-2.203-0.9-2.904-3.304-2.904c-3.504,0-7.611,3.004-10.615,7.711l-7.109,33.447h-12.718l7.11-33.347     c0.5-2.202,0.701-3.806,0.701-5.007c0-2.104-0.901-2.805-3.205-2.805c-3.505,0-7.209,2.805-10.815,7.711l-7.11,33.447H135.82     l7.51-35.049c1.002-4.607,0.602-10.516-0.2-13.019L155.547,84.184z" fill="#9D9D9C"/>
				
				
			
				
				<path animation_id="5" d="M256.284,131.55c-6.91,4.807-13.62,7.011-20.83,7.011c-12.216,0-19.426-6.41-19.426-18.827     c0-10.614,4.707-21.53,11.516-28.14c5.108-4.906,10.815-6.809,17.625-6.809c10.115,0,17.425,4.006,17.425,14.02     c0,9.713-8.913,17.625-25.937,17.625c-3.504,0-6.108-0.701-6.108-0.701s-0.5,3.304-0.5,4.605c0,5.809,3.004,8.211,8.611,8.211     c4.606,0,9.413-2.002,14.22-5.406L256.284,131.55z M236.556,107.016c5.808,0,12.517-2.002,12.517-7.109     c0-3.104-1.402-5.308-5.407-5.308c-5.106,0-8.913,3.005-10.915,11.917C232.75,106.516,234.753,107.016,236.556,107.016z" fill="#9D9D9C"/>
				
				
			
				
				<path animation_id="6" d="M308.451,84.184c0.901,1.402,1.502,5.908,1.303,8.211c3.805-4.004,9.813-7.609,16.122-7.609     c8.712,0,13.719,6.51,13.719,16.924c0,9.312-4.006,22.73-10.214,28.939c-4.606,4.605-10.815,7.61-17.425,7.61     c-4.005,0-8.211-0.7-10.414-2.003c0.1,0.902-0.3,2.504-0.501,3.506l-3.405,16.021l-13.618,3.404l12.217-57.379     c1.201-5.708,0.801-9.713-0.201-12.718L308.451,84.184z M311.057,128.246c4.305,0,6.607-2.004,8.21-4.406     c3.806-5.709,5.908-16.023,5.908-21.73c0-4.105-1.301-6.109-4.706-6.109c-3.305,0-7.711,2.304-11.517,8.111l-4.706,21.931     C305.047,127.144,308.352,128.246,311.057,128.246z" fill="#FFFFFF"/>
				
				
			
				
				<path animation_id="7" d="M386.356,131.55c-6.909,4.807-13.619,7.011-20.828,7.011c-12.218,0-19.428-6.41-19.428-18.827     c0-10.614,4.707-21.53,11.516-28.14c5.107-4.906,10.814-6.809,17.624-6.809c10.114,0,17.426,4.006,17.426,14.02     c0,9.713-8.914,17.625-25.938,17.625c-3.504,0-6.107-0.701-6.107-0.701s-0.501,3.304-0.501,4.605     c0,5.809,3.005,8.211,8.611,8.211c4.607,0,9.414-2.002,14.221-5.406L386.356,131.55z M366.63,107.016     c5.808,0,12.517-2.002,12.517-7.109c0-3.104-1.402-5.308-5.408-5.308c-5.106,0-8.911,3.005-10.914,11.917     C362.824,106.516,364.827,107.016,366.63,107.016z" fill="#9D9D9C"/>
				
				
			
				
				<path animation_id="8" d="M445.136,102.41c0,18.024-9.613,35.849-29.94,35.849c-11.617,0-18.227-6.409-18.227-18.125     c0-19.327,11.917-35.249,29.542-35.249C438.026,84.885,445.136,91.194,445.136,102.41z M411.189,121.436     c0,4.906,2.503,7.109,6.308,7.109c8.612,0,13.219-16.121,13.219-26.135c0-5.908-2.202-7.611-6.208-7.611     C415.494,94.799,411.189,113.625,411.189,121.436z" fill="#9D9D9C"/>
				
				
			
				
				<path animation_id="9" d="M468.766,84.184c0.901,1.402,1.502,5.908,1.303,8.211c3.805-4.004,9.813-7.609,16.122-7.609     c8.712,0,13.719,6.51,13.719,16.924c0,9.312-4.006,22.73-10.214,28.939c-4.606,4.605-10.815,7.61-17.425,7.61     c-4.005,0-8.211-0.7-10.415-2.003c0.101,0.902-0.299,2.504-0.5,3.506l-3.404,16.021l-13.618,3.404l12.217-57.379     c1.201-5.708,0.8-9.713-0.201-12.718L468.766,84.184z M471.37,128.246c4.305,0,6.608-2.004,8.211-4.406     c3.806-5.709,5.907-16.023,5.907-21.73c0-4.105-1.301-6.109-4.705-6.109c-3.306,0-7.711,2.304-11.517,8.111l-4.706,21.931     C465.36,127.144,468.665,128.246,471.37,128.246z" fill="#9D9D9C"/>
				
				
			
				
				<path animation_id="10" d="M528.847,78.377l-8.112,37.952c-1.301,6.009-1.702,8.512-1.702,9.913c0,1.902,0.802,2.904,2.604,2.904     c0.5,0,1.001,0,1.502-0.2l0.6,8.011c-2.402,0.901-5.406,1.402-8.312,1.402c-7.209,0-10.613-3.906-10.613-9.213     c0-1.803,0.7-5.607,1.502-9.312l8.11-38.253c1.402-6.71,2.204-11.416,1.202-14.821l14.22-4.306     C530.248,64.758,530.248,71.867,528.847,78.377z" fill="#9D9D9C"/>
				
				
			
				
				<path animation_id="11" d="M575.009,131.55c-6.91,4.807-13.619,7.011-20.83,7.011c-12.217,0-19.426-6.41-19.426-18.827     c0-10.614,4.707-21.53,11.516-28.14c5.107-4.906,10.814-6.809,17.624-6.809c10.114,0,17.425,4.006,17.425,14.02     c0,9.713-8.914,17.625-25.937,17.625c-3.504,0-6.107-0.701-6.107-0.701s-0.501,3.304-0.501,4.605     c0,5.809,3.005,8.211,8.611,8.211c4.605,0,9.413-2.002,14.22-5.406L575.009,131.55z M555.28,107.016     c5.81,0,12.518-2.002,12.518-7.109c0-3.104-1.401-5.308-5.407-5.308c-5.107,0-8.912,3.005-10.915,11.917     C551.476,106.516,553.479,107.016,555.28,107.016z" fill="#9D9D9C"/>
				
				
		
			
			</g>
			
			
	
		
		</g>
		
		

	
	</g>
	
	


</svg>
