<?xml version="1.0" encoding="iso-8859-1"?>
<!-- Generator: Adobe Illustrator 16.2.0, SVG Export Plug-In . SVG Version: 6.00 Build 0)  -->
<!DOCTYPE svg
  PUBLIC '-//W3C//DTD SVG 1.1//EN'
  'http://www.w3.org/Graphics/SVG/1.1/DTD/svg11.dtd'>
<svg enable-background="new -40.001 -29.107 200 157.214" height="157.214px" id="Ebene_1" version="1.1" viewBox="-90.001 -68.4105 300.0 235.821" width="200px" x="0px" xml:space="preserve" xmlns="http://www.w3.org/2000/svg" xmlns:xlink="http://www.w3.org/1999/xlink" y="0px">
	
	

	
	<g>
		
		
	
		
		<polygon animation_id="9" fill="#FFFFFF" points="-40.001,-29.107 159.999,-29.107 159.999,128.107 -40.001,128.107  "/>
		
		
	
		
		<polygon animation_id="10" fill="#FFAF00" points="-34.916,-24.035 154.937,-24.035 154.937,75.818 -34.916,75.818  "/>
		
		
	
		
		<polygon animation_id="11" points="-34.916,80.883 154.937,80.883 154.937,123.07 -34.916,123.07  "/>
		
		
	
		
		<path animation_id="0" d="M11.298,47.205c3.936-0.166,7.87-0.411,11.808-0.411s7.872,0.245,11.811,0.411V44.09c-5.655,0-6.563-0.661-8.938-8.533   L11.706-10.71h-5.66l-16.49,41.015c-5.25,13.042-7.629,13.785-12.711,13.785v3.115c3.686-0.166,7.461-0.411,11.155-0.411   c3.696,0,7.467,0.245,11.158,0.411V44.09c-5.084,0-7.382-0.333-7.382-3.859c0-1.476,0.656-4.016,1.884-7.134l2.953-7.466h18.046   l3.04,10.091c0.818,2.708,1.066,3.934,1.066,4.672c0,2.297-2.547,3.693-5.172,3.693h-2.294V47.205L11.298,47.205z M13.512,21.689   H-1.911L6.781-0.293h0.165L13.512,21.689L13.512,21.689z"/>
		
		
	
		
		<path animation_id="1" d="M40.054,39.655c0,3.118-2.873,4.432-7.131,4.432v3.115c3.768-0.165,7.131-0.41,12.05-0.41c4.925,0,8.288,0.245,12.062,0.41   v-3.115c-8.037,0-9.599-1.316-9.599-4.925V25.465c0-10.995,5.334-13.452,8.207-13.452c2.457,0,3.854,1.804,4.344,4.021h3.118   c-0.165-1.889-0.41-3.611-0.41-5.335s0.245-3.443,0.41-5.002l-1.477-1.396C53.426,5.53,49.162,11.19,47.601,15.949h-0.165   c0-2.627,0-4.679,0.575-10.252l-2.052-1.396C42.684,7.088,37.511,8.4,32.923,8.4v3.118c6.065,0,7.131,0.33,7.131,7.547V39.655   L40.054,39.655z"/>
		
		
	
		
		<path animation_id="2" d="M102.782,10.451V6.188L91.3,6.678c-1.231-0.901-4.68-2.377-9.514-2.377c-9.929,0-17.559,5.495-17.559,15.011   c0,4.757,2.868,8.938,6.396,10.91c-6.649,2.132-8.118,3.198-8.118,6.889c0,5.66,6.975,7.545,14.929,8.778v0.162   c-8.45,0.413-19.119,3.526-19.119,11.894c0,7.792,6.811,13.042,19.282,13.042c18.201,0,25.513-9.999,25.513-17.967   c0-7.296-4.52-11.395-20.264-12.959c-5.822-0.575-13.537-2.95-13.537-5.577c0-1.722,2.212-2.953,4.106-3.118   c0.983,0.576,3.035,1.068,6.563,1.068c11.565,0,17.226-7.219,17.226-14.768c0-3.44-1.151-5.988-2.207-7.219h7.789v0.005H102.782z    M89.325,19.477c0,7.302-4.184,9.841-8.695,9.841c-4.347,0-8.53-3.525-8.53-11.4c0-7.051,4.264-10.5,8.53-10.5   C86.705,7.419,89.325,13.161,89.325,19.477L89.325,19.477z M96.299,56.39c0,6.07-5.409,11.48-16.729,11.48   c-8.533,0-13.372-4.344-13.372-10.26c0-4.669,3.854-9.839,15.504-9.839C92.12,47.777,96.299,51.305,96.299,56.39L96.299,56.39z"/>
		
		
	
		
		<path animation_id="3" d="M99.24,27.349c0,11.321,5.908,20.833,19.853,20.833c15.75,0,21.9-12.961,21.9-21.159c0-14.603-7.545-22.723-18.782-22.723   C109.987,4.301,99.24,11.765,99.24,27.349L99.24,27.349z M132.632,28.092c0,12.631-6.646,16.568-11.896,16.568   c-8.37,0-13.127-6.23-13.127-19.766c0-11.898,5.25-17.063,12.637-17.063C127.462,7.829,132.632,14.966,132.632,28.092   L132.632,28.092z"/>
		
		
	
		
		<path animation_id="4" d="M-13.514,112.091v-8.29h1.742c4.859,0,7.231-2.285,7.231-6.168c0-3.884-2.372-6.171-7.231-6.171h-5.69   V112.1h3.949V112.091z M-13.514,94.713h2.112c1.942,0,2.917,0.971,2.917,2.92c0,1.941-0.976,2.912-2.917,2.912h-2.112V94.713   L-13.514,94.713z" fill="#FFAF00"/>
		
		
	
		
		<polygon animation_id="12" fill="#FFAF00" points="14.373,112.091 14.373,108.602 7.227,108.602 7.227,103.168 12.456,103.168 12.456,99.684    7.227,99.684 7.227,94.94 14.091,94.94 14.091,91.457 3.286,91.457 3.286,112.091  "/>
		
		
	
		
		<path animation_id="5" d="M36.148,112.091l-3.888-9.203c2.202-0.836,3.118-2.688,3.118-5.26c0-3.889-2.262-6.171-6.999-6.171h-5.715   v20.634h3.943v-8.405h1.887l3.428,8.405H36.148L36.148,112.091z M26.607,94.713h2.027c1.747,0,2.803,0.86,2.803,2.854   c0,2.002-1.056,2.857-2.803,2.857h-2.027V94.713L26.607,94.713z" fill="#FFAF00"/>
		
		
	
		
		<path animation_id="6" d="M55.896,96.166c-0.686-2.907-2.828-4.997-6.346-4.997c-4.084,0-6.201,2.225-6.201,5.775   c0,5.771,8.804,5.823,8.804,9.714c0,1.546-1.062,2.457-2.433,2.457c-1.169,0-2.603-0.883-3.056-3.365l-3.891,0.823   c1.061,4.059,3.551,5.803,6.749,5.803c4.141,0,6.573-2.342,6.573-5.886c0-6.458-8.803-6.69-8.803-9.799   c0-1.406,0.771-2.257,2.172-2.257c1.371,0,2.227,0.823,2.882,2.768L55.896,96.166L55.896,96.166z" fill="#FFAF00"/>
		
		
	
		
		<path animation_id="7" d="M64.271,105.455c0,5.089,2.688,6.916,6.516,6.916s6.516-1.827,6.516-6.916v-7.372   c0-5.087-2.688-6.914-6.516-6.914s-6.516,1.827-6.516,6.914V105.455L64.271,105.455z M68.214,97.567   c0-2.287,1.001-2.912,2.572-2.912c1.569,0,2.567,0.625,2.567,2.912v8.402c0,2.29-0.998,2.913-2.567,2.913   c-1.571,0-2.572-0.623-2.572-2.913V97.567L68.214,97.567z" fill="#FFAF00"/>
		
		
	
		
		<polygon animation_id="13" fill="#FFAF00" points="89.415,112.091 89.415,98.773 89.473,98.773 95.501,112.091 99.278,112.091 99.278,91.457    95.679,91.457 95.679,103.682 95.616,103.682 90.129,91.457 85.815,91.457 85.815,112.091  "/>
		
		
	
		
		<path animation_id="8" d="M114.308,95.911h0.056l1.911,8.343h-3.911L114.308,95.911L114.308,95.911z M110.537,112.091l1.121-4.347   h5.455l1.003,4.347h3.773l-4.972-20.634h-5.055l-5.12,20.634H110.537L110.537,112.091z" fill="#FFAF00"/>
		
		
	
		
		<polygon animation_id="14" fill="#FFAF00" points="139.396,112.091 139.396,108.602 133.053,108.602 133.053,91.457 129.109,91.457 129.109,112.091     "/>
		
		

	
	</g>
	
	


</svg>
