<?xml version="1.0" encoding="iso-8859-1"?>
<!-- Created with Inkscape (http://www.inkscape.org/) -->
<svg height="116.79733" id="svg5005" version="1.1" viewBox="-150.7734375 -29.1993325 904.640625 175.195995" width="603.09375" xmlns="http://www.w3.org/2000/svg" xmlns:cc="http://creativecommons.org/ns#" xmlns:dc="http://purl.org/dc/elements/1.1/" xmlns:rdf="http://www.w3.org/1999/02/22-rdf-syntax-ns#" xmlns:svg="http://www.w3.org/2000/svg">
	
	
  
	
	<defs id="defs5007"/>
	
	
  
	
	<g id="layer1" transform="translate(-78.59375,-425.10892)">
		
		
    
		
		<path animation_id="0" d="m 79.771709,518.55698 600.742291,0 0,22.17155 -600.742291,0 0,-22.17155 z" id="path506" style="fill:#9c9c9c;fill-opacity:1;stroke:#9c9c9c;stroke-width:0.3451975;stroke-linecap:butt;stroke-linejoin:miter;stroke-miterlimit:2.61299992;stroke-opacity:1;stroke-dasharray:none"/>
		
		
    
		
		<path animation_id="1" d="m 671.35805,504.21978 c 0.95669,-0.48985 1.71941,-1.1934 2.27995,-2.10899 0.56217,-0.9156 0.84491,-1.91338 0.84491,-2.99007 0,-0.91395 -0.20712,-1.78023 -0.623,-2.5972 -0.48657,-0.95505 -1.19011,-1.71284 -2.11228,-2.27831 -0.92217,-0.56546 -1.89366,-0.84655 -2.91446,-0.84655 -0.96984,0 -1.86077,0.20712 -2.66952,0.623 -0.97806,0.49971 -1.73914,1.20326 -2.28653,2.1057 -0.56053,0.92217 -0.83833,1.92489 -0.83833,3.00815 0,0.90409 0.20712,1.76708 0.623,2.58241 0.48985,0.95998 1.19175,1.7227 2.10899,2.28159 0.91888,0.56382 1.91502,0.84327 2.99007,0.84327 0.91559,0 1.78023,-0.20712 2.5972,-0.623 m 0.96326,-1.4449 c -0.98299,0.99779 -2.17145,1.4975 -3.56046,1.4975 -0.80875,0 -1.56983,-0.18739 -2.28652,-0.55889 -0.8482,-0.43725 -1.51723,-1.06847 -2.01366,-1.8953 -0.49807,-0.82519 -0.74792,-1.7227 -0.74792,-2.68268 0,-0.82518 0.18903,-1.60599 0.56053,-2.34241 0.43068,-0.85642 1.05039,-1.53695 1.86242,-2.04324 0.80382,-0.50136 1.65859,-0.75122 2.56597,-0.75122 0.85642,0 1.63722,0.18575 2.34241,0.55396 0.85642,0.44547 1.52545,1.07505 2.01365,1.88215 0.50136,0.83176 0.74958,1.73421 0.74958,2.70734 0,0.67395 -0.12651,1.3249 -0.38465,1.95283 -0.25808,0.63615 -0.62629,1.19504 -1.10135,1.67996 m -4.7177,-3.17582 1.18683,0 1.87721,2.88816 0.89752,0 -1.93311,-2.995 c 0.97806,-0.31397 1.46462,-0.91067 1.46462,-1.79667 0,-0.37972 -0.0936,-0.70848 -0.28273,-0.9945 -0.22356,-0.33534 -0.53259,-0.56218 -0.92874,-0.68053 -0.39616,-0.12007 -1.02245,-0.17753 -1.88051,-0.17753 l -1.12929,0 0,6.64423 0.7282,0 0,-2.88816 z m 0,-0.61971 0,-2.51337 0.43725,0 c 0.79396,0 1.32326,0.046 1.58298,0.14302 0.46026,0.16931 0.6904,0.5293 0.6904,1.07997 0,0.60163 -0.26959,0.98628 -0.80382,1.15723 -0.27123,0.0888 -0.76601,0.13315 -1.48599,0.13315 l -0.42082,0 z m 7.59271,4.07991 c -0.9682,1.18353 -2.35064,2.07776 -3.81361,2.5183 -1.38408,0.41588 -2.84049,0.43231 -4.29854,0.43231 l -27.46457,0 38.75582,-63.39963 -47.30192,0 c -0.11349,2.62515 -0.22685,5.25193 -0.50794,7.859 -0.32054,2.98349 -0.8597,5.94068 -1.39887,8.89952 l 1.60271,0 c 0.24821,-1.02902 0.49642,-2.05804 0.81368,-3.07719 0.49971,-1.60763 1.16709,-3.19061 2.2372,-4.50072 0.75122,-0.91888 1.70133,-1.70626 2.74679,-2.21255 1.91338,-0.9271 4.1473,-0.9156 6.38287,-0.9156 l 20.16775,0 -38.22323,63.55251 53.78671,0 0.30574,-9.28252 c 0.47013,-3.23993 0.95341,-6.57684 1.42353,-9.81676 l -1.85585,0 c -0.40766,1.99063 -0.81368,3.98127 -1.42517,5.95219 -0.44218,1.42681 -0.99285,2.84377 -1.9331,3.99114 m -48.59724,-12.48629 c 0.34355,-2.4509 0.69861,-4.97578 1.04217,-7.42503 l -1.47449,0 c -0.38793,1.9216 -0.77587,3.84155 -1.44983,5.74671 -0.46355,1.30847 -1.06189,2.60707 -2.05968,3.50951 -0.89751,0.81039 -2.11556,1.30024 -3.33197,1.50079 -0.73807,0.12164 -1.47613,0.15287 -2.21256,0.15287 l -19.27681,0 0,-45.75182 c 0.007,-0.62629 0.0149,-1.25257 0.17753,-1.85585 0.16109,-0.58848 0.47177,-1.15394 0.91559,-1.5764 0.46684,-0.44218 1.07834,-0.7282 1.70462,-0.86464 0.56876,-0.12493 1.14902,-0.12493 1.72928,-0.1265 l 0,-1.246 -8.44419,0.20218 c -2.7435,-0.0756 -5.57083,-0.15287 -8.31433,-0.22848 l -0.051,1.21969 c 0.54902,0.0543 1.09805,0.10692 1.65201,0.23014 0.73807,0.16438 1.48435,0.45368 1.98407,0.99285 0.35834,0.38465 0.59012,0.9008 0.71176,1.42353 0.16274,0.69368 0.13315,1.40216 0.10192,2.11064 l 0,43.1053 c -10e-4,0.47835 -10e-4,0.95834 0,1.44983 0.005,0.98299 0.028,2.01037 -0.40602,2.87336 -0.31561,0.62464 -0.87121,1.16217 -1.50079,1.47449 -0.72327,0.35834 -1.54517,0.42081 -2.36542,0.48327 l 0,1.09477 40.23195,0 0.63614,-8.49514 z m -52.184,-4.52702 c 2.52487,-5.05468 3.34513,-10.87208 2.94897,-16.55469 -0.34026,-4.8755 -1.57476,-9.65238 -3.91552,-13.88515 -1.81804,-3.28596 -4.30018,-6.24479 -7.30011,-8.49351 -2.28981,-1.71941 -4.88043,-3.02458 -7.60256,-3.91717 -3.31226,-1.08655 -6.81683,-1.56489 -10.30004,-1.44983 -3.00651,0.0986 -5.99657,0.63944 -8.82391,1.65366 -2.86185,1.02573 -5.55932,2.53638 -7.90995,4.47607 -3.3665,2.77637 -6.02452,6.42889 -7.75544,10.45126 -1.61914,3.76101 -2.42953,7.84585 -2.41638,11.9274 0.0149,4.65688 1.0997,9.30882 3.02623,13.55475 1.22134,2.6909 2.78131,5.21906 4.73085,7.42668 2.4657,2.79117 5.55439,5.06947 8.95048,6.63601 3.22842,1.48928 6.73464,2.33748 10.27373,2.56926 2.96048,0.19232 5.94398,-0.046 8.82555,-0.73807 2.98021,-0.71505 5.85192,-1.91502 8.41789,-3.61142 3.74786,-2.47885 6.8382,-6.02123 8.85021,-10.04525 m -5.13851,-5.26344 c -0.75944,3.50129 -2.23228,6.94505 -4.65359,9.56197 -2.21256,2.39337 -5.22071,4.09635 -8.39159,4.90838 -2.69912,0.6904 -5.51823,0.73642 -8.26502,0.3041 -2.31446,-0.36327 -4.57797,-1.06518 -6.61299,-2.18625 -2.65638,-1.46298 -4.92318,-3.63936 -6.73793,-6.10342 -1.90516,-2.5824 -3.3139,-5.48206 -4.27223,-8.5198 -0.87943,-2.78295 -1.38243,-5.68097 -1.55175,-8.59542 -0.15451,-2.65144 -0.0362,-5.31768 0.50794,-7.93461 0.70354,-3.38787 2.11885,-6.69519 4.34949,-9.33348 1.91831,-2.26844 4.43989,-4.04046 7.19654,-5.16153 2.33255,-0.95011 4.83112,-1.43339 7.34942,-1.47613 2.41474,-0.0395 4.84756,0.32712 7.09463,1.17039 2.48214,0.93039 4.73743,2.44104 6.68862,4.27223 2.32268,2.18132 4.21305,4.81797 5.46891,7.70612 1.39394,3.21034 2.00543,6.72971 2.31282,10.24908 0.32712,3.73306 0.31397,7.46777 -0.48327,11.13837 m -59.53342,-36.92627 c 0.36492,-0.0559 0.72984,-0.0789 1.09312,-0.10192 l 0,-1.14408 -8.1368,0.20383 c -2.92103,-0.10191 -5.92918,-0.20547 -8.8502,-0.30574 l 0,1.24599 c 0.4356,0.0247 0.87121,0.0493 1.32161,0.10192 0.74793,0.0871 1.53531,0.24821 2.08598,0.71176 0.47999,0.40602 0.77916,1.04217 0.94025,1.67832 0.20054,0.78738 0.18904,1.5764 0.17753,2.36543 l 0,18.31026 -27.28704,0 0,-18.28396 c -0.009,-0.79067 -0.0213,-1.58298 0.17917,-2.36543 0.1611,-0.63615 0.46191,-1.26572 0.94026,-1.67832 0.53752,-0.46519 1.30188,-0.65423 2.03502,-0.73806 0.46519,-0.0526 0.91888,-0.0642 1.37257,-0.0756 l 0,-1.246 -8.85021,0.3041 c -2.69418,-0.0575 -5.46891,-0.11835 -8.1631,-0.17753 l 0,1.16874 c 0.37479,10e-4 0.74793,0.003 1.11943,0.0526 0.64108,0.0839 1.27559,0.30903 1.80489,0.68546 0.58848,0.41753 1.0471,1.0208 1.32326,1.67832 0.31067,0.743 0.383,1.55503 0.45697,2.36543 l 0,43.7168 c 0,0.69861 10e-4,1.39722 -0.10191,2.11063 -0.11836,0.8367 -0.37972,1.69311 -0.94026,2.28817 -0.4241,0.4504 -1.01915,0.74957 -1.62736,0.91559 -0.60984,0.16603 -1.23284,0.19726 -1.85584,0.22849 l 0,1.22134 8.4935,-0.23013 c 2.87007,0.0938 5.82726,0.18904 8.69733,0.28109 l 0,-1.32161 c -0.6493,-0.009 -1.29531,-0.0197 -1.9331,-0.17918 -0.74793,-0.18739 -1.48107,-0.58354 -1.95777,-1.16874 -0.46848,-0.57697 -0.68875,-1.3364 -0.81368,-2.08598 -0.13808,-0.83011 -0.1578,-1.64872 -0.17917,-2.46734 l 0,-20.21706 13.73393,0 13.63037,0 0,20.16611 c -0.0131,0.82683 -0.0247,1.65201 -0.15287,2.49199 -0.11507,0.75944 -0.32219,1.53038 -0.78738,2.11228 -0.47177,0.58848 -1.20984,0.98135 -1.95941,1.16874 -0.64601,0.1611 -1.30189,0.16932 -1.95776,0.17918 l 0,1.29695 8.69733,-0.33204 c 2.8109,0.0756 5.70891,0.15451 8.5198,0.23013 l 0,-1.22134 c -0.63286,-0.028 -1.26736,-0.0575 -1.88214,-0.22849 -0.58848,-0.16438 -1.15724,-0.45862 -1.57641,-0.89094 -0.57697,-0.59341 -0.86463,-1.44983 -0.99121,-2.28817 -0.10033,-0.65094 -0.10033,-1.29202 -0.10191,-1.9331 l 0,-43.86803 c 0.0296,-0.82026 0.0592,-1.64051 0.35506,-2.39008 0.26136,-0.6641 0.72985,-1.27395 1.32326,-1.67996 0.53259,-0.36328 1.16709,-0.56218 1.80489,-0.66081 m -60.47532,51.60045 c 0.66081,-0.4356 1.29696,-0.90409 1.93311,-1.37421 l 0,-5.08591 -3.02624,2.23885 c -1.67338,1.23778 -3.72155,1.869 -5.69576,2.492 -3.12485,0.98463 -6.53738,1.19011 -9.81676,0.6345 -4.30017,-0.7282 -8.37021,-2.76486 -11.57069,-5.69576 -2.92596,-2.67774 -5.12371,-6.10342 -6.56204,-9.7921 -1.06353,-2.7287 -1.71119,-5.60535 -1.8805,-8.51816 -0.22191,-3.8021 0.36821,-7.66831 1.78023,-11.24029 1.22299,-3.09855 3.0624,-5.97356 5.54289,-8.1631 1.83612,-1.62078 4.02073,-2.86514 6.33191,-3.63772 2.08269,-0.69533 4.26729,-1.00929 6.48478,-1.11778 2.41638,-0.12007 4.87386,10e-4 7.12093,0.81368 1.68654,0.6082 3.25307,1.60599 4.52702,2.89801 1.48763,1.50901 2.5709,3.42075 3.12814,5.44262 0.24822,0.9008 0.38958,1.82297 0.53424,2.74678 l 1.2197,0 -0.40602,-6.73957 c -0.0921,-2.18132 -0.18739,-4.43003 -0.27945,-6.61135 -1.47448,-0.60163 -2.91938,-1.27723 -4.4251,-1.80654 -3.56375,-1.24928 -7.39051,-1.8805 -11.16467,-1.75393 -2.86186,0.0953 -5.69248,0.62793 -8.44255,1.47449 -3.29746,1.01587 -6.47821,2.48378 -9.20691,4.55167 -3.07883,2.3342 -5.58234,5.43276 -7.44969,8.87651 -2.45912,4.52702 -3.82183,9.65238 -3.81526,14.7498 0.005,3.82183 0.77916,7.62722 2.1616,11.21399 1.41202,3.66895 3.46019,7.10778 6.20533,9.89402 2.60542,2.64487 5.84206,4.70126 9.30719,6.02616 3.54896,1.35613 7.33791,1.94461 11.18933,1.9331 5.7237,-0.0164 11.5822,-1.35613 16.27524,-4.44976 m -55.28585,-9.12965 c 1.17367,-2.46734 1.80653,-5.17961 1.90681,-7.93461 0.0953,-2.61528 -0.28931,-5.26837 -1.34792,-7.63051 -1.35777,-3.02787 -3.82511,-5.57576 -6.63765,-7.40038 -3.08541,-1.99885 -6.58834,-3.1265 -10.09621,-4.11935 -2.68268,-0.75779 -5.367,-1.43833 -8.08748,-2.03503 -2.51994,-0.55231 -5.06783,-1.03394 -7.52695,-1.75393 -1.65531,-0.48492 -3.27116,-1.07833 -4.85742,-1.88215 -2.11228,-1.07175 -4.17196,-2.51665 -5.26344,-4.52701 -0.92218,-1.69805 -1.15395,-3.79718 -0.86464,-5.79768 0.34684,-2.3983 1.44654,-4.65195 3.10184,-6.30725 1.86407,-1.86078 4.43168,-2.96212 7.01902,-3.63608 2.08762,-0.5441 4.18675,-0.81039 6.30725,-0.94025 2.06461,-0.12822 4.14895,-0.12651 6.20534,0.1265 2.42789,0.29589 4.81468,0.9419 7.06997,1.93147 1.58955,0.69861 3.11171,1.56818 4.37415,2.74678 1.31175,1.22792 2.33912,2.79281 2.97527,4.47606 0.46191,1.22792 0.7167,2.51994 0.8893,3.81526 0.0362,0.27122 0.069,0.54245 0.10191,0.81368 l 1.98407,0 -0.99121,-9.56197 c -0.0838,-2.40817 -0.17096,-4.8903 -0.25479,-7.29847 l -1.17039,-0.43232 c -3.50951,-1.29695 -7.18175,-2.1057 -10.85892,-2.56925 -3.36815,-0.4241 -6.80861,-0.35506 -10.22278,-0.0756 -4.15552,0.33863 -8.27159,0.98464 -12.20684,2.39009 -2.97199,1.06025 -5.83877,2.55446 -8.11215,4.7292 -2.04817,1.96105 -3.61306,4.47442 -4.47606,7.17189 -0.75779,2.36707 -0.97477,4.87551 -0.76272,7.37572 0.21863,2.60706 0.90409,5.20427 2.23721,7.40038 1.5912,2.6235 4.10456,4.6766 6.81518,6.22999 3.81855,2.18954 8.02831,3.39116 12.23315,4.42675 3.55882,0.8745 7.11435,1.629 10.70605,2.56761 2.51501,0.65588 5.0481,1.40216 7.14559,2.89802 1.40709,1.006 2.62021,2.34734 3.38294,3.91717 1.02901,2.11721 1.24435,4.64537 0.71176,6.94175 -0.51286,2.21091 -1.71777,4.20648 -3.25472,5.87494 -1.70133,1.84927 -3.81032,3.2991 -6.10342,4.24757 -2.61693,1.08162 -5.47385,1.51229 -8.31597,1.67832 -2.4394,0.14301 -4.86893,0.0936 -7.27381,-0.33041 -2.94075,-0.51944 -5.84534,-1.59777 -8.23871,-3.38293 -2.15173,-1.6027 -3.89251,-3.77745 -5.08756,-6.17904 -0.94354,-1.89858 -1.54681,-3.93854 -1.98242,-6.0015 -0.12821,-0.60985 -0.24328,-1.2197 -0.3567,-1.83119 l -2.05968,0 c 0.33041,3.21033 0.66081,6.42067 0.83998,9.63758 0.1726,3.13966 0.20055,6.28753 0.22849,9.4354 l 9.79046,3.50951 c 4.50236,1.61421 9.45348,1.46462 14.1909,1.32326 3.83005,-0.11507 7.66503,-0.80218 11.34221,-2.03502 3.52101,-1.18189 6.89573,-2.86679 9.68854,-5.28975 2.14351,-1.85913 3.94347,-4.15387 5.16317,-6.71326 M 337.1937,466.87099 c 0.29424,-1.08162 0.5967,-2.19776 0.89094,-3.28102 l -1.01751,0 c -0.0526,0.21369 -0.10678,0.42574 -0.17753,0.63614 -0.23342,0.68876 -0.65588,1.35943 -1.24764,1.75558 -0.65095,0.43889 -1.50737,0.53917 -2.31283,0.55889 -0.28437,0.007 -0.56217,0 -0.83998,0 l -13.70598,0 c -0.14466,1.04381 -0.28931,2.08598 -0.53424,3.10349 -0.2893,1.19176 -0.71669,2.35063 -1.14572,3.50951 l 0.81368,0 c 0.087,-0.24821 0.17424,-0.49643 0.27944,-0.73806 0.22027,-0.49808 0.52766,-0.97313 0.9419,-1.32162 0.61149,-0.51615 1.45476,-0.75779 2.26351,-0.78902 0.30903,-0.0118 0.61149,0.0247 0.91559,0.0247 l 14.13995,0 0.73642,-3.45855 z m -31.17791,15.1065 c 1.32655,-4.05361 1.63229,-8.38337 1.29696,-12.66546 -0.38136,-4.85907 -1.58791,-9.65567 -3.91553,-13.90982 -1.80818,-3.30239 -4.29031,-6.27602 -7.3001,-8.5198 -2.30296,-1.71613 -4.91496,-3.00322 -7.65353,-3.89087 -3.30074,-1.07012 -6.78395,-1.55832 -10.24907,-1.44983 -2.99665,0.0953 -5.98178,0.63779 -8.79925,1.65366 -2.85364,1.02901 -5.53467,2.5446 -7.88366,4.47606 -3.37471,2.77473 -6.06232,6.40752 -7.80804,10.42661 -1.63229,3.76265 -2.44104,7.86393 -2.41474,11.95205 0.0296,4.64373 1.13423,9.27102 3.05254,13.5038 1.22298,2.70569 2.77966,5.25029 4.7292,7.47763 2.45419,2.80432 5.53467,5.10564 8.92582,6.66232 3.21527,1.47613 6.71163,2.27994 10.24908,2.54295 3.13473,0.23342 6.30232,0.0379 9.33349,-0.73806 3.59169,-0.91889 6.99436,-2.65802 9.89237,-5.03496 3.95005,-3.23992 6.96806,-7.66831 8.54446,-12.48628 m -6.5867,-1.29696 c -0.78902,3.54567 -2.27994,7.02066 -4.73085,9.66389 -2.23392,2.4098 -5.26508,4.12922 -8.4672,4.95933 -2.71555,0.70355 -5.55439,0.76766 -8.31597,0.33041 -2.34077,-0.36986 -4.62729,-1.09806 -6.68861,-2.23885 -2.67939,-1.47942 -4.97742,-3.65252 -6.81519,-6.12808 -1.9331,-2.60542 -3.35663,-5.54453 -4.32319,-8.62172 -0.88436,-2.80925 -1.38901,-5.73521 -1.55174,-8.67103 -0.14959,-2.68433 -0.0147,-5.38015 0.53423,-8.03653 0.71012,-3.43883 2.11228,-6.8119 4.37415,-9.46006 1.93968,-2.27173 4.51222,-4.00922 7.29846,-5.16317 2.35885,-0.97641 4.87057,-1.5353 7.40038,-1.5764 2.43446,-0.0394 4.88536,0.40109 7.17189,1.2723 2.5035,0.9534 4.80975,2.42296 6.73957,4.27223 2.17474,2.08434 3.87114,4.65195 5.11056,7.40038 1.52381,3.37636 2.35392,7.02395 2.74679,10.70605 0.40109,3.7643 0.34684,7.5664 -0.48328,11.29125 m -54.01519,-22.25209 1.32162,0 -0.8893,-7.95927 c -0.10034,-2.5446 -0.20383,-5.16317 -0.30575,-7.70612 l -42.87516,0 c -0.0806,2.54624 -0.1578,5.09248 -0.3567,7.62886 -0.20876,2.66953 -0.54903,5.32755 -0.8893,7.98557 l 1.34627,0 c 0.1463,-1.06518 0.29096,-2.13036 0.50958,-3.1791 0.15452,-0.74793 0.34684,-1.486 0.60985,-2.21255 0.42739,-1.17696 1.04381,-2.31776 1.93311,-3.17911 0.80381,-0.77751 1.83119,-1.3249 2.89966,-1.70297 1.2575,-0.44547 2.57253,-0.65423 3.89085,-0.73807 0.92217,-0.0575 1.84763,-0.0509 2.77144,-0.0509 l 4.78017,0 0,45.57265 c 0.0149,0.47012 0.0279,0.94025 -0.0246,1.42353 -0.0905,0.83669 -0.37808,1.71119 -0.96656,2.26351 -0.45697,0.42903 -1.09477,0.66245 -1.72927,0.81368 -0.71505,0.17259 -1.42682,0.23835 -2.13529,0.30574 l 0,1.42517 8.62007,-0.50957 c 2.9539,0.14301 5.99822,0.28931 8.95212,0.43232 l 0,-1.29696 c -0.66902,-0.0625 -1.33805,-0.12322 -2.03502,-0.25479 -0.79888,-0.15123 -1.63558,-0.39287 -2.16159,-0.9419 -0.53259,-0.55395 -0.74629,-1.42024 -0.83834,-2.2372 -0.0576,-0.50301 -0.0673,-0.98957 -0.0773,-1.47449 l 0,-45.57265 5.26508,0 c 0.97642,0 1.95283,0.0739 2.92432,0.17753 1.19832,0.1298 2.38679,0.35999 3.53416,0.76437 1.03724,0.36492 2.0416,0.86957 2.8487,1.60106 0.9419,0.85477 1.61586,2.01858 2.03502,3.23006 0.25808,0.74957 0.41917,1.51723 0.5589,2.28981 0.18739,1.02737 0.33533,2.06461 0.48327,3.10185 m -51.14182,-14.49666 c 0.5293,-0.16109 1.07833,-0.23341 1.62736,-0.3041 l 0,-1.01751 -8.31597,0.40766 c -2.75994,-0.11835 -5.60535,-0.23835 -8.36693,-0.3567 l 0,1.22134 c 0.69532,-0.003 1.39065,-0.007 2.06132,0.17753 0.53752,0.14794 1.06025,0.41588 1.44819,0.81368 0.39286,0.39944 0.65094,0.93039 0.78902,1.47449 0.18575,0.72984 0.15616,1.48435 0.12651,2.23885 l 0,31.15325 c -0.003,0.89752 -0.008,1.79503 0,2.69583 0.0118,1.26408 0.0493,2.53145 -0.12651,3.78896 -0.23671,1.69475 -0.85806,3.37307 -1.88215,4.75386 -0.93696,1.26572 -2.20926,2.28323 -3.61142,2.97692 -2.37036,1.17202 -5.10728,1.41531 -7.8064,1.29695 -2.38679,-0.1052 -4.74564,-0.49314 -6.81683,-1.5764 -1.28709,-0.6756 -2.46405,-1.61914 -3.35663,-2.77309 -0.92217,-1.19339 -1.5386,-2.61035 -1.93311,-4.0684 -0.4241,-1.57147 -0.58683,-3.18896 -0.68546,-4.80646 -0.0427,-0.68711 -0.0723,-1.37257 -0.10192,-2.05968 l 0,-30.39053 c 0.0395,-0.7019 0.0789,-1.4038 0.10192,-2.11064 0.0131,-0.42738 0.0214,-0.85477 0.1265,-1.27065 0.15781,-0.61643 0.5326,-1.20326 1.04217,-1.57805 0.40109,-0.29259 0.88601,-0.45533 1.37422,-0.55889 0.59834,-0.12651 1.20161,-0.16602 1.80489,-0.20383 l 0,-1.246 -8.74665,0.25479 c -2.63501,-0.0756 -5.35056,-0.15287 -7.98557,-0.22849 l 0,1.16874 c 0.503,0.0476 1.00765,0.0953 1.52544,0.17918 0.73149,0.11677 1.48929,0.30739 2.03338,0.76272 0.56547,0.47177 0.90409,1.22956 1.06847,1.98242 0.1989,0.90244 0.15123,1.79996 0.10192,2.69583 l 0,27.84757 0,2.92432 c 0.0509,1.6438 0.10191,3.28759 0.3567,4.90838 0.26136,1.6701 0.73807,3.31718 1.44983,4.85742 0.76108,1.65202 1.79174,3.18239 3.05089,4.50072 1.76215,1.84763 3.96977,3.28266 6.33191,4.22127 2.91938,1.16217 6.07547,1.56818 9.25787,1.62901 3.64594,0.0673 7.32311,-0.31726 10.63044,-1.72928 2.21419,-0.94847 4.26236,-2.35721 5.92424,-4.121 1.24929,-1.3249 2.27995,-2.85035 3.02623,-4.50072 0.87286,-1.92817 1.35778,-4.02402 1.60271,-6.12972 0.18903,-1.62243 0.23506,-3.25308 0.22848,-4.88208 -0.003,-0.99121 -0.028,-1.98406 -0.0509,-2.97527 l 0,-27.3643 c 0.041,-0.49807 0.0822,-0.99779 0.15288,-1.49915 0.0789,-0.5556 0.19068,-1.11614 0.45697,-1.6027 0.1989,-0.36328 0.48328,-0.68546 0.81533,-0.9419 0.37643,-0.29095 0.81696,-0.49642 1.27065,-0.63615 m -46.99618,66.55409 c -0.97148,-0.3715 -1.85091,-1.05532 -2.49199,-1.88215 -0.62629,-0.80711 -1.02573,-1.75229 -1.42518,-2.69583 l -22.25208,-58.38934 c -0.3863,-0.93696 -0.77259,-1.87393 -1.01587,-2.8487 -0.16109,-0.64108 -0.25808,-1.30024 -0.35671,-1.95776 l -7.67982,0.15287 c -2.66953,-0.0838 -5.41796,-0.17096 -8.08748,-0.25479 l -0.0247,1.39887 c 0.48328,0.11349 0.96656,0.2252 1.47449,0.33041 0.68053,0.14136 1.40216,0.26794 1.90681,0.6871 0.54245,0.44876 0.83176,1.23614 0.89093,1.98407 0.069,0.88765 -0.19396,1.71941 -0.45862,2.54295 -0.2104,0.65588 -0.42245,1.30682 -0.6345,1.95777 l -21.057079,54.676 c -0.220269,0.52109 -0.438894,1.04217 -0.738066,1.52709 -0.74464,1.20491 -1.980776,2.18297 -3.331978,2.59227 -0.667381,0.20383 -1.362708,0.26794 -2.059678,0.33205 l 0,1.5764 9.155953,-0.12822 c 3.39773,0.0592 6.900663,0.12007 10.298393,0.17918 l 0,-1.55175 c -0.96491,-0.046 -1.928175,-0.0921 -2.873359,-0.3567 -0.761078,-0.21205 -1.509006,-0.56382 -2.035021,-1.14408 -0.478345,-0.52766 -0.772585,-1.24436 -0.838337,-1.95777 -0.07404,-0.79231 0.136435,-1.58133 0.381361,-2.33912 0.136435,-0.42246 0.284377,-0.83505 0.432319,-1.246 l 6.256292,-16.42976 25.68434,0 6.07876,16.53168 c 0.22356,0.64436 0.44547,1.28873 0.60985,1.98242 0.20877,0.87614 0.32383,1.83283 0,2.62021 -0.36821,0.89423 -1.30188,1.57311 -2.26351,1.93146 -0.80874,0.3041 -1.63722,0.38136 -2.46569,0.45862 l 0,1.50079 10.73235,-0.23013 c 3.44047,0.0756 6.9845,0.15451 10.42661,0.23013 l 0,-1.29696 c -0.76436,-0.10691 -1.52709,-0.21205 -2.23885,-0.48327 m -22.76002,-29.14454 -21.6932,0 10.78331,-28.12538 10.90989,28.12538 z m 493.23299,28.2536 -460.02006,0 0,2.61857 460.02006,0 0,-2.61857 z m -443.00676,13.70269 -7.93954,13.97229 9.79704,0 0.65587,-3.57526 -0.53423,0 c -0.53259,1.49585 -1.12929,2.39336 -1.79503,2.69254 -0.28766,0.13643 -0.78902,0.20547 -1.50407,0.20547 l -4.15388,0 7.93132,-13.97228 -8.93897,0 -0.58848,3.23171 0.56711,0 c 0.30739,-1.23121 0.79067,-2.00544 1.44983,-2.32105 0.31561,-0.14958 0.77423,-0.2252 1.37422,-0.23342 l 3.67881,0 z m 23.01482,-0.5819 c -0.71506,0 -1.63065,-0.0559 -2.74843,-0.16109 l 0,0.53752 c 0.32218,0.023 0.57861,0.0476 0.77258,0.074 0.48163,0.0739 0.78574,0.23013 0.91231,0.47341 0.0855,0.15616 0.12822,0.46026 0.12822,0.91066 l 0,8.21406 c 0,0.54245 0.0379,1.01916 0.10691,1.42517 0.12821,0.68876 0.43889,1.29696 0.93532,1.83613 0.91559,0.99285 2.20433,1.49092 3.86457,1.49092 1.10956,0 2.05474,-0.21698 2.83555,-0.64601 0.87943,-0.48657 1.48764,-1.20819 1.82461,-2.16488 0.17096,-0.49314 0.25644,-1.19669 0.25644,-2.11393 l 0,-8.04146 c 0,-0.29917 0.009,-0.50135 0.0329,-0.61149 0.0427,-0.29259 0.20876,-0.50136 0.50136,-0.63286 0.23835,-0.10034 0.66245,-0.16931 1.27888,-0.21369 l 0,-0.53753 c -0.92382,0.0723 -1.63394,0.1102 -2.1353,0.1102 -0.48821,0 -1.2312,-0.0379 -2.23228,-0.1102 l 0,0.53753 c 0.32219,0.023 0.58027,0.0476 0.77259,0.074 0.48163,0.0739 0.78573,0.23013 0.91231,0.47342 0.0855,0.15616 0.12821,0.46026 0.12821,0.91066 l 0,8.14831 c 0,1.05203 -0.17095,1.84598 -0.51615,2.39172 -0.28602,0.45862 -0.71012,0.81368 -1.28216,1.06683 -0.56711,0.25314 -1.21641,0.38136 -1.9479,0.38136 -0.69368,0 -1.29367,-0.11349 -1.80325,-0.3452 -0.66738,-0.28438 -1.13257,-0.73478 -1.40709,-1.3512 -0.1726,-0.39287 -0.25643,-1.02573 -0.25643,-1.89695 l 0,-8.39487 c 0,-0.2926 0.0118,-0.49314 0.0329,-0.61149 0.0476,-0.2926 0.21698,-0.50136 0.50135,-0.63286 0.23835,-0.10034 0.6641,-0.16932 1.27888,-0.2137 l 0,-0.53752 c -1.11614,0.1052 -2.03338,0.16109 -2.74679,0.16109 m 31.24201,0 c -0.72492,0 -1.64709,-0.0559 -2.76816,-0.16109 l 0,0.53752 c 0.31397,0.023 0.5704,0.0476 0.77259,0.074 0.47999,0.0739 0.78409,0.23013 0.91231,0.47341 0.0839,0.14959 0.12821,0.45369 0.12821,0.91067 l 0,10.78988 c 0,0.27781 -0.0149,0.47999 -0.0443,0.6115 -0.0395,0.29424 -0.20547,0.503 -0.48985,0.63121 -0.23999,0.10192 -0.66409,0.17096 -1.27887,0.21534 l 0,0.53917 c 1.10134,-0.10691 2.02187,-0.16109 2.76815,-0.16109 0.75286,0 1.61257,0.0542 2.58405,0.16109 l 0,-0.53917 c -0.9008,-0.0592 -1.44818,-0.23835 -1.64215,-0.54574 -0.0838,-0.1578 -0.12651,-0.46191 -0.12651,-0.91231 l 0,-4.79824 0.9008,-0.9682 3.95169,5.87329 c 0.26137,0.37643 0.38958,0.63615 0.38958,0.77259 0,0.25643 -0.20547,0.41752 -0.61313,0.48327 -0.21534,0.0329 -0.51616,0.0657 -0.90409,0.0953 l 0,0.53917 c 1.09477,-0.11349 2.04817,-0.1726 2.85692,-0.1726 0.81368,0 1.77366,0.0592 2.87665,0.1726 l 0,-0.53917 c -0.50136,-0.0296 -0.90409,-0.0986 -1.21313,-0.21534 -0.42081,-0.17588 -0.85642,-0.57532 -1.30024,-1.19175 l -4.88372,-6.96477 3.78895,-4.17525 c 0.47177,-0.51286 0.93696,-0.84326 1.39558,-0.98627 0.30082,-0.0953 0.71012,-0.14959 1.2345,-0.1726 l 0,-0.53752 c -0.81697,0.0657 -1.56819,0.0986 -2.25365,0.0986 -0.68546,0 -1.43504,-0.0329 -2.252,-0.0986 l 0,0.53752 c 0.35012,0.0149 0.61806,0.0379 0.80546,0.0625 0.36163,0.0443 0.54574,0.17589 0.54574,0.39944 0,0.14301 -0.0986,0.32712 -0.30082,0.54575 l -5.00372,5.49521 0,-5.04481 c 0,-0.29918 0.0118,-0.50136 0.0329,-0.6115 0.0427,-0.29259 0.20876,-0.50136 0.50136,-0.63286 0.24492,-0.10691 0.67067,-0.17589 1.27887,-0.21369 l 0,-0.53752 c -1.03723,0.1052 -1.91995,0.16109 -2.6498,0.16109 m 30.34286,0 c -0.71341,0 -1.63065,-0.0559 -2.74678,-0.16109 l 0,0.53752 c 0.32218,0.023 0.57861,0.0476 0.77258,0.074 0.47999,0.0739 0.78409,0.23014 0.91231,0.47342 0.0838,0.15616 0.12821,0.46026 0.12821,0.91066 l 0,8.21406 c 0,0.54245 0.0362,1.01915 0.10692,1.42517 0.1265,0.68875 0.43889,1.29696 0.93367,1.83612 0.9156,0.99286 2.20434,1.49093 3.86457,1.49093 1.10957,0 2.05639,-0.21698 2.83555,-0.64601 0.87943,-0.48657 1.48764,-1.2082 1.82462,-2.16489 0.1726,-0.49314 0.25643,-1.19668 0.25643,-2.11392 l 0,-8.04146 c 0,-0.29917 0.0118,-0.50136 0.0329,-0.61149 0.0443,-0.2926 0.20876,-0.50136 0.50136,-0.63286 0.23835,-0.10034 0.66409,-0.16931 1.27887,-0.2137 l 0,-0.53752 c -0.92217,0.0723 -1.63394,0.1102 -2.13529,0.1102 -0.48821,0 -1.23121,-0.0379 -2.23064,-0.1102 l 0,0.53752 c 0.32219,0.023 0.57862,0.0476 0.77259,0.074 0.47999,0.0739 0.78409,0.23013 0.91231,0.47341 0.0838,0.15616 0.12821,0.46027 0.12821,0.91067 l 0,8.1483 c 0,1.05203 -0.1726,1.84599 -0.51615,2.39173 -0.28602,0.45862 -0.71176,0.81368 -1.28216,1.06682 -0.56876,0.25315 -1.21806,0.38136 -1.94955,0.38136 -0.69204,0 -1.29367,-0.11348 -1.80324,-0.34519 -0.66574,-0.28438 -1.13094,-0.73478 -1.40709,-1.35121 -0.17096,-0.39286 -0.25479,-1.02573 -0.25479,-1.89694 l 0,-8.39487 c 0,-0.2926 0.009,-0.49314 0.0329,-0.6115 0.0476,-0.29259 0.21534,-0.50135 0.50136,-0.63286 0.23835,-0.10033 0.66245,-0.16931 1.27888,-0.21369 l 0,-0.53752 c -1.11779,0.1052 -2.03338,0.16109 -2.74843,0.16109 m 30.2919,-0.0838 c -0.57204,0 -1.18846,-0.0263 -1.84763,-0.0773 l 0,0.53752 c 0.42081,0.023 0.7693,0.0708 1.04053,0.15123 0.30739,0.092 0.57204,0.25643 0.79559,0.49478 l 0,11.60193 c 0,0.28602 -0.0118,0.4882 -0.0329,0.61149 -0.0362,0.28602 -0.20219,0.49478 -0.503,0.63122 -0.24493,0.10191 -0.67067,0.17095 -1.27723,0.21533 l 0,0.53917 c 0.95833,-0.074 1.67009,-0.1102 2.13529,-0.1102 0.4356,0 1.17531,0.0362 2.21913,0.1102 l 0,-0.53917 c -0.9156,-0.0592 -1.47942,-0.23506 -1.6964,-0.53587 -0.0756,-0.13808 -0.11665,-0.44547 -0.11665,-0.92217 l 0,-10.87373 6.4815,9.74608 0.53916,0.81532 c 0.54081,0.80711 1.12436,1.70133 1.74736,2.68268 l 0.32218,0 0,-13.16024 c 0,-0.29917 0.009,-0.50136 0.0329,-0.6115 0.0362,-0.28602 0.20054,-0.49478 0.50136,-0.63286 0.26794,-0.10691 0.69204,-0.17588 1.27887,-0.21369 l 0,-0.53752 c -0.91559,0.0723 -1.62571,0.1102 -2.13529,0.1102 -0.49478,0 -1.23942,-0.0379 -2.23228,-0.1102 l 0,0.53752 c 0.93861,0.0592 1.50243,0.23506 1.6964,0.53588 0.0773,0.13479 0.11835,0.44218 0.11835,0.92217 l 0,9.13294 -7.45955,-11.12851 c -0.52766,0.0509 -1.06682,0.0773 -1.60763,0.0773 m 39.10759,-0.0118 -9.57184,0 0,0.53423 c 0.92875,0.0509 1.49093,0.23506 1.6849,0.55067 0.0838,0.15781 0.12821,0.46191 0.12821,0.91231 l 0,10.72249 c 0,0.2926 -0.0118,0.49479 -0.0329,0.6115 -0.0443,0.28602 -0.20877,0.49478 -0.50136,0.63121 -0.23178,0.0953 -0.65752,0.16438 -1.27888,0.21534 l 0,0.53917 c 1.13422,-0.10692 2.05475,-0.1611 2.74679,-0.1611 0.70026,0 1.61585,0.0542 2.74843,0.1611 l 0,-0.53917 c -0.33698,-0.0296 -0.59506,-0.0542 -0.77423,-0.0723 -0.47999,-0.0739 -0.78409,-0.23177 -0.91231,-0.47341 -0.0838,-0.14959 -0.1265,-0.45369 -0.1265,-0.91231 l 0,-5.34563 3.02458,0 c 0.57205,0 0.9419,0.13644 1.10628,0.40766 0.18411,0.2926 0.29095,0.76437 0.31232,1.41696 l 0.53424,0 0,-4.31497 -0.53424,0 c -0.0444,0.83176 -0.20219,1.37093 -0.47341,1.61914 -0.14959,0.12822 -0.4241,0.19397 -0.82683,0.19397 l -3.14294,0 0,-6.01959 3.17581,0 c 0.47999,0 0.85313,0.0592 1.12765,0.1726 0.3041,0.12822 0.57533,0.35999 0.80217,0.69697 0.24493,0.35013 0.47013,0.93368 0.67889,1.74571 l 0.49478,0 -0.38958,-3.29252 z m 18.55683,0 -0.59012,3.34841 0.53916,0 c 0.24164,-0.82025 0.48985,-1.42517 0.74957,-1.81475 0.37808,-0.56218 1.03395,-0.8482 1.96434,-0.85642 l 1.18025,0 0,12.04246 c 0,0.2926 -0.0118,0.49479 -0.0329,0.6115 -0.0379,0.28602 -0.20218,0.49478 -0.503,0.63121 -0.24493,0.10192 -0.67067,0.17096 -1.27887,0.21534 l 0,0.53917 c 1.1375,-0.10692 2.05639,-0.1611 2.74843,-0.1611 0.70025,0 1.61585,0.0542 2.74843,0.1611 l 0,-0.53917 c -0.91724,-0.0625 -1.48107,-0.24164 -1.6964,-0.53588 -0.0773,-0.13808 -0.11836,-0.44218 -0.11836,-0.92217 l 0,-12.04246 1.38572,0 c 0.43561,0 0.78081,0.0477 1.02902,0.13972 0.33041,0.11349 0.61478,0.34684 0.86135,0.69697 0.24822,0.36493 0.48657,0.97642 0.71834,1.83448 l 0.52273,0 -0.61149,-3.34841 -9.61622,0 z m 53.87383,0 -9.57348,0 0,0.53423 c 0.93039,0.0509 1.49092,0.23506 1.68489,0.55067 0.0838,0.15781 0.12822,0.46191 0.12822,0.91231 l 0,10.65674 c 0,0.2926 -0.0118,0.49807 -0.0329,0.61149 -0.0443,0.2926 -0.20876,0.50629 -0.50136,0.63451 -0.23835,0.0986 -0.66409,0.1726 -1.27887,0.21534 l 0,0.53423 9.69018,0 0.50465,-3.54074 -0.50465,0 c -0.27122,1.13422 -0.65587,1.92653 -1.15723,2.36871 -0.37478,0.33041 -0.98299,0.49479 -1.82461,0.49479 l -1.55832,0 c -0.75779,-0.007 -1.21641,-0.18247 -1.37258,-0.52766 -0.0625,-0.11349 -0.0953,-0.36986 -0.0953,-0.7693 l 0,-5.30125 3.02624,0 c 0.53423,0 0.90408,0.13973 1.10627,0.41753 0.18246,0.27944 0.28931,0.74792 0.31068,1.40709 l 0.53423,0 0,-4.31497 -0.53423,0 c -0.0427,0.83505 -0.20054,1.3775 -0.47341,1.61914 -0.14959,0.12822 -0.4241,0.19397 -0.82683,0.19397 l -3.14295,0 0,-6.01959 3.17582,0 c 0.78738,0.008 1.35942,0.20548 1.71777,0.59012 0.33369,0.36986 0.63122,1.0471 0.89094,2.02516 l 0.49478,0 -0.38793,-3.29252 z m 24.75066,0 -5.89137,0 0,0.53423 c 0.93039,0.0509 1.49092,0.23506 1.68489,0.55067 0.0855,0.15781 0.12822,0.46191 0.12822,0.91231 l 0,10.72249 c 0,0.2926 -0.009,0.49479 -0.0329,0.6115 -0.0427,0.28602 -0.20876,0.49478 -0.50136,0.63121 -0.23177,0.0953 -0.65587,0.16438 -1.27887,0.21534 l 0,0.53917 c 1.16545,-0.10692 2.08433,-0.1611 2.75829,-0.1611 0.67889,0 1.58626,0.0542 2.71555,0.1611 l 0,-0.53917 c -0.33698,-0.0296 -0.59341,-0.0542 -0.77258,-0.0723 -0.47342,-0.0739 -0.77752,-0.23177 -0.91231,-0.47341 -0.0855,-0.1578 -0.12822,-0.46191 -0.12822,-0.91231 l 0,-5.03331 0.83834,0 c 0.25643,0 0.50629,0.0214 0.75122,0.0658 0.47999,0.069 0.84984,0.26465 1.11285,0.57861 0.18739,0.21205 0.39615,0.58191 0.62464,1.10299 l 1.68489,3.93032 c 0.19397,0.43725 0.39945,0.88601 0.6115,1.35285 0.58683,-0.0443 1.07011,-0.0675 1.44983,-0.0675 0.37807,0 0.86135,0.023 1.44818,0.0675 l 0,-0.53917 c -0.42903,-0.0147 -0.74793,-0.0625 -0.95669,-0.14958 -0.27944,-0.12165 -0.55725,-0.49479 -0.83505,-1.11779 l -1.51229,-3.46677 c -0.33862,-0.74957 -0.65588,-1.22956 -0.95669,-1.43503 -0.29424,-0.20876 -0.60163,-0.35671 -0.92382,-0.44054 1.22463,-0.2515 2.10735,-0.67396 2.6498,-1.26737 0.62958,-0.69532 0.94354,-1.509 0.94354,-2.44597 0,-0.623 -0.14958,-1.21641 -0.4504,-1.78516 -0.29917,-0.57204 -0.69861,-1.02573 -1.20161,-1.36271 -0.72163,-0.47177 -1.73585,-0.70683 -3.0476,-0.70683 m -0.25644,0.67724 c 1.01423,0 1.78517,0.26136 2.30461,0.78409 0.52273,0.51944 0.78409,1.29696 0.78409,2.32762 0,1.10134 -0.31561,1.94132 -0.94518,2.52323 -0.51287,0.46519 -1.26737,0.69533 -2.26022,0.69533 l -1.83613,0 0,-6.33027 1.95283,0 z m 33.62553,-0.67724 -9.57348,0 0,0.53423 c 0.93039,0.0509 1.49093,0.23506 1.6849,0.55067 0.0839,0.15781 0.12821,0.46191 0.12821,0.91231 l 0,10.72249 c 0,0.2926 -0.0118,0.49479 -0.0329,0.6115 -0.0443,0.28602 -0.20877,0.49478 -0.50136,0.63121 -0.23178,0.0953 -0.65752,0.16438 -1.27888,0.21534 l 0,0.53917 c 1.13422,-0.10692 2.05475,-0.1611 2.74679,-0.1611 0.70026,0 1.61585,0.0542 2.74843,0.1611 l 0,-0.53917 c -0.33698,-0.0296 -0.59341,-0.0542 -0.77423,-0.0723 -0.47999,-0.0739 -0.78409,-0.23177 -0.91231,-0.47341 -0.0838,-0.14959 -0.1265,-0.45369 -0.1265,-0.91231 l 0,-5.34563 3.02458,0 c 0.57204,0 0.9419,0.13644 1.10628,0.40766 0.1841,0.2926 0.28931,0.76437 0.31232,1.41696 l 0.53423,0 0,-4.31497 -0.53423,0 c -0.0443,0.83176 -0.20219,1.37093 -0.47341,1.61914 -0.14959,0.12822 -0.4241,0.19397 -0.82683,0.19397 l -3.14294,0 0,-6.01959 3.17581,0 c 0.47999,0 0.85313,0.0592 1.12765,0.1726 0.3041,0.12822 0.57533,0.35999 0.80217,0.69697 0.24657,0.35013 0.47013,0.93368 0.67889,1.74571 l 0.49478,0 -0.38793,-3.29252 z m 17.49658,13.87694 c -0.24164,0.1578 -0.69039,0.25643 -1.34134,0.30081 l 0,0.53917 c 0.83505,-0.0822 1.53531,-0.12164 2.09091,-0.12164 0.55725,0 1.25751,0.0395 2.09256,0.12164 l 0,-0.53917 c -0.38465,-0.0147 -0.67067,-0.0443 -0.85806,-0.0838 -0.39123,-0.0888 -0.58848,-0.28273 -0.58848,-0.59012 0,-0.18575 0.0872,-0.53095 0.26629,-1.03395 l 0.72985,-2.05803 5.11057,0 0.75121,2.37035 c 0.0921,0.30082 0.13972,0.54903 0.13972,0.73971 0,0.25315 -0.16602,0.4241 -0.49478,0.51615 -0.21205,0.0673 -0.51944,0.1102 -0.91231,0.13973 l 0,0.53916 c 1.00765,-0.10691 1.90516,-0.16109 2.68104,-0.16109 0.77423,0 1.66681,0.0542 2.67446,0.16109 l 0,-0.53916 c -0.53095,-0.0362 -0.92217,-0.10192 -1.18025,-0.20548 -0.35835,-0.1265 -0.64437,-0.48985 -0.85971,-1.09148 l -4.51715,-13.35421 -5.01194,13.10435 c -0.24986,0.64602 -0.50958,1.06025 -0.77259,1.246 m 2.64816,-4.15388 2.50186,-6.7297 2.13529,6.7297 -4.63715,0 z m 29.81849,-9.62772 c -0.72163,0 -1.62736,-0.0559 -2.71555,-0.16109 l 0,0.53752 c 0.32218,0.023 0.57861,0.0477 0.77258,0.074 0.48164,0.0739 0.78574,0.23013 0.91231,0.47341 0.0855,0.15616 0.12822,0.46027 0.12822,0.91067 l 0,10.78988 c 0,0.2926 -0.009,0.49479 -0.0329,0.6115 -0.0427,0.28602 -0.20876,0.49478 -0.50136,0.63121 -0.23177,0.0953 -0.65587,0.16438 -1.27887,0.21534 l 0,0.53917 c 1.13586,-0.10691 2.04488,-0.16109 2.71555,-0.16109 0.67396,0 1.59284,0.0542 2.75829,0.16109 l 0,-0.53917 c -0.33697,-0.0296 -0.59341,-0.0542 -0.77258,-0.0723 -0.47341,-0.0739 -0.77752,-0.23178 -0.91231,-0.47342 -0.0855,-0.1578 -0.12821,-0.46191 -0.12821,-0.91231 l 0,-5.3785 6.16917,0 0,5.3785 c 0,0.2926 -0.009,0.49479 -0.0329,0.6115 -0.0443,0.28602 -0.20876,0.49478 -0.50136,0.63121 -0.23177,0.0953 -0.65587,0.16438 -1.27887,0.21534 l 0,0.53917 c 1.16545,-0.10691 2.08433,-0.16109 2.75829,-0.16109 0.67067,0 1.57969,0.0542 2.71556,0.16109 l 0,-0.53917 c -0.33863,-0.0296 -0.59506,-0.0542 -0.77423,-0.0723 -0.47835,-0.0739 -0.78409,-0.23178 -0.91231,-0.47342 -0.0838,-0.1578 -0.12822,-0.46191 -0.12822,-0.91231 l 0,-10.78988 c 0,-0.29918 0.0118,-0.50136 0.0329,-0.6115 0.0443,-0.29259 0.20876,-0.50136 0.503,-0.63286 0.23671,-0.10034 0.66245,-0.16931 1.27888,-0.21369 l 0,-0.53752 c -1.08984,0.1052 -1.99393,0.16109 -2.71556,0.16109 -0.72163,0 -1.64051,-0.0559 -2.75829,-0.16109 l 0,0.53752 c 0.32218,0.023 0.57862,0.0477 0.77258,0.074 0.47999,0.0739 0.7841,0.23014 0.91231,0.47342 0.0855,0.15616 0.12822,0.46026 0.12822,0.91066 l 0,4.73414 -6.16917,0 0,-4.73414 c 0,-0.29917 0.009,-0.50136 0.0329,-0.61149 0.0476,-0.2926 0.21534,-0.50136 0.50136,-0.63286 0.23835,-0.10034 0.66409,-0.16931 1.27887,-0.2137 l 0,-0.53752 c -1.11778,0.1052 -2.03666,0.16109 -2.75829,0.16109 m 34.55756,-0.0953 -5.89137,0 0,0.53424 c 0.93203,0.0509 1.49257,0.23506 1.68654,0.55067 0.0838,0.1578 0.1265,0.46191 0.1265,0.91231 l 0,10.72249 c 0,0.2926 -0.009,0.49478 -0.0329,0.61149 -0.0427,0.28602 -0.20712,0.49479 -0.50136,0.63122 -0.23013,0.0953 -0.65588,0.16438 -1.27888,0.21534 l 0,0.53916 c 1.16546,-0.10691 2.08434,-0.16109 2.75994,-0.16109 0.67724,0 1.58626,0.0542 2.71391,0.16109 l 0,-0.53916 c -0.33698,-0.0296 -0.59341,-0.0542 -0.77258,-0.0723 -0.47177,-0.0739 -0.77588,-0.23177 -0.91231,-0.47341 -0.0838,-0.15781 -0.12822,-0.46191 -0.12822,-0.91231 l 0,-5.03331 0.83834,0 c 0.25643,0 0.50629,0.0214 0.75121,0.0657 0.47999,0.069 0.84985,0.26465 1.1145,0.57862 0.18739,0.21205 0.39451,0.5819 0.623,1.10299 l 1.68489,3.93032 c 0.19397,0.43725 0.39944,0.88601 0.61149,1.35284 0.58684,-0.0443 1.07012,-0.0675 1.44983,-0.0675 0.37808,0 0.86135,0.023 1.44819,0.0675 l 0,-0.53916 c -0.42739,-0.0147 -0.74793,-0.0625 -0.95669,-0.14959 -0.2778,-0.12164 -0.55561,-0.49478 -0.83505,-1.11778 l -1.5123,-3.46677 c -0.33697,-0.74957 -0.65587,-1.22956 -0.95669,-1.43503 -0.29259,-0.20877 -0.60163,-0.35671 -0.92381,-0.44054 1.22463,-0.2515 2.10735,-0.67396 2.6498,-1.26737 0.62958,-0.69533 0.94519,-1.50901 0.94519,-2.44597 0,-0.623 -0.15123,-1.21641 -0.45205,-1.78517 -0.29917,-0.57204 -0.69861,-1.02573 -1.19997,-1.3627 -0.72327,-0.47177 -1.73749,-0.70684 -3.04925,-0.70684 m -0.25643,0.67725 c 1.01587,0 1.78517,0.26136 2.30461,0.78409 0.52437,0.51944 0.78409,1.29696 0.78409,2.32762 0,1.10134 -0.31561,1.94132 -0.94519,2.52323 -0.51286,0.46519 -1.26736,0.69532 -2.26022,0.69532 l -1.83612,0 0,-6.33026 1.95283,0 z m 33.53019,-0.67725 -9.57348,0 0,0.53424 c 0.93039,0.0509 1.49092,0.23506 1.68489,0.55067 0.0839,0.1578 0.12822,0.46191 0.12822,0.91231 l 0,10.65674 c 0,0.29259 -0.009,0.49807 -0.0329,0.61149 -0.0443,0.2926 -0.20876,0.50629 -0.50136,0.63451 -0.23835,0.0986 -0.66245,0.1726 -1.27887,0.21533 l 0,0.53424 9.69019,0 0.50464,-3.54074 -0.50464,0 c -0.27123,1.13422 -0.65588,1.92653 -1.15724,2.36871 -0.37478,0.3304 -0.98299,0.49478 -1.82461,0.49478 l -1.55832,0 c -0.75779,-0.007 -1.21477,-0.18246 -1.37257,-0.52766 -0.0625,-0.11348 -0.0953,-0.36985 -0.0953,-0.76929 l 0,-5.30125 3.02623,0 c 0.53423,0 0.90409,0.13972 1.10627,0.41752 0.18247,0.27945 0.28931,0.74793 0.31068,1.40709 l 0.53588,0 0,-4.31496 -0.53588,0 c -0.0427,0.83505 -0.20054,1.3775 -0.47177,1.61914 -0.15123,0.12821 -0.42574,0.19396 -0.82847,0.19396 l -3.14294,0 0,-6.01958 3.17581,0 c 0.78738,0.008 1.35942,0.20547 1.71777,0.59012 0.33369,0.36986 0.63122,1.0471 0.89094,2.02516 l 0.49478,0 -0.38793,-3.29253 z m 20.6839,0.0118 c -0.57039,0 -1.18682,-0.0263 -1.84598,-0.0773 l 0,0.53753 c 0.42081,0.023 0.7693,0.0707 1.04052,0.15123 0.30739,0.0921 0.57204,0.25643 0.7956,0.49478 l 0,11.60192 c 0,0.28602 -0.0118,0.48821 -0.0329,0.6115 -0.0379,0.28602 -0.20219,0.49478 -0.50301,0.63121 -0.24492,0.10192 -0.66902,0.17096 -1.27723,0.21534 l 0,0.53917 c 0.95834,-0.074 1.6701,-0.1102 2.1353,-0.1102 0.4356,0 1.17531,0.0362 2.21912,0.1102 l 0,-0.53917 c -0.91559,-0.0592 -1.47942,-0.23506 -1.6964,-0.53588 -0.0756,-0.13808 -0.11677,-0.44547 -0.11677,-0.92217 l 0,-10.87372 6.48149,9.74608 0.53917,0.81532 c 0.54081,0.80711 1.12436,1.70133 1.74571,2.68268 l 0.32383,0 0,-13.16025 c 0,-0.29917 0.009,-0.50135 0.0329,-0.61149 0.0362,-0.28602 0.20055,-0.49478 0.50136,-0.63286 0.26794,-0.10691 0.69204,-0.17589 1.27888,-0.21369 l 0,-0.53753 c -0.9156,0.0723 -1.62736,0.1102 -2.13694,0.1102 -0.49314,0 -1.23778,-0.0379 -2.23063,-0.1102 l 0,0.53753 c 0.93861,0.0592 1.50243,0.23506 1.6964,0.53587 0.0772,0.1348 0.11664,0.44219 0.11664,0.92217 l 0,9.13294 -7.45791,-11.12851 c -0.52766,0.0509 -1.06682,0.0773 -1.60928,0.0773" id="path508" style="fill:#000000;fill-opacity:1;fill-rule:nonzero;stroke:none"/>
		
		
  
	
	</g>
	
	


</svg>
