<?xml version="1.0" encoding="iso-8859-1"?>
<svg height="74.78125" id="svg4013" version="1.1" viewBox="-184.4453125 -18.6953125 1106.671875 112.171875" width="737.78125" xmlns="http://www.w3.org/2000/svg" xmlns:svg="http://www.w3.org/2000/svg">
	
	
  
	
	<defs id="defs4015"/>
	
	
  
	
	<g id="layer1" transform="translate(-56.6875,-475.96875)">
		
		
    
		
		<path animation_id="0" d="m 58.287379,477.57239 0,35.08803 17.544013,0 c 9.691313,0 17.544013,-7.8527 17.544013,-17.54401 0,-9.69483 -7.8527,-17.54402 -17.544013,-17.54402 l -17.544013,0 z m 704.216681,7.36849 c -15.79635,0 -30.35086,11.64922 -30.35086,28.24586 0,17.76507 12.73358,30.26342 30.35086,30.26342 17.61784,0 30.35142,-12.49835 30.35142,-30.26342 0,-16.59664 -14.55451,-28.24586 -30.35142,-28.24586 z m -380.3542,1.05264 c -7.71937,0 -15.49151,3.32634 -20.8771,8.85973 -5.24608,5.38601 -8.07024,12.58958 -8.07024,20.08789 0,8.15446 2.72928,15.24224 8.772,20.70194 5.67697,5.16846 12.97191,8.15796 20.61408,8.15796 4.44214,0 7.89845,-1.17545 12.63169,-2.6316 l 0,-17.10541 c -2.98613,3.56494 -7.70842,5.87724 -12.36867,5.87724 -8.88036,0 -14.82455,-6.24918 -14.82455,-14.91241 0,-8.51937 5.91219,-15.26329 14.64939,-15.26329 4.87695,0 9.63152,2.11932 12.54383,6.05268 l 0,-17.10541 c -4.2246,-1.74738 -8.48401,-2.71932 -13.07043,-2.71932 z m 140.70298,0.78948 0,54.82504 14.21093,0 0,-23.77214 0.17404,0 18.42149,23.77214 18.5088,0 11.1403,0 3.77211,-9.47377 19.64929,0 3.5088,9.47377 15.2633,0 -20.70194,-54.82504 -15.52659,0 -19.82445,51.49168 -21.05282,-25.52654 21.75458,-25.96514 -17.63188,0 -17.28099,22.63178 -0.17404,0 0,-22.63178 -14.21093,0 z m 107.10634,0 0,54.82504 31.40378,0 0,-12.01765 -17.10555,0 0,-42.80739 -14.29823,0 z m 35.87765,0 0,54.82504 14.29823,0 0,-54.82504 -14.29823,0 z m 21.92973,0 0,54.82504 14.21093,0 0,-23.77214 0.17404,0 18.4215,23.77214 18.50879,0 -23.85986,-28.8599 21.84244,-25.96514 -17.63188,0 -17.28099,22.63178 -0.17404,0 0,-22.63178 -14.21093,0 z m -511.75857,0.61404 0,54.91276 22.01759,0 c 10.04584,0 19.82474,-3.75793 19.82474,-15.26329 0,-7.64217 -3.3648,-13.01766 -11.22817,-14.03521 l 0,-0.0876 c 4.43849,-2.25616 6.05254,-6.27725 6.05254,-11.22817 0,-10.4843 -6.56174,-14.29837 -16.31565,-14.29837 l -20.35105,0 z m 45.26355,0 0,54.91276 31.22834,0 0,-12.10537 -16.93011,0 0,-9.47376 16.05263,0 0,-12.10537 -16.05263,0 0,-9.12289 16.93011,0 0,-12.10537 -31.22834,0 z m 37.63177,0 0,54.91276 14.29851,0 0,-33.6845 0.087,0 26.14058,33.6845 14.29823,0 0,-54.91276 -14.29823,0 0,33.59679 -0.087,0 -26.1403,-33.59679 -14.29851,0 z m 60.26382,0 0,54.91276 31.22834,0 0,-12.10537 -16.93011,0 0,-9.47376 16.05263,0 0,-12.10537 -16.05263,0 0,-9.12289 16.93011,0 0,-12.10537 -31.22834,0 z m 80.17586,0 0,54.91276 14.29851,0 0,-23.77214 0.087,0 18.42149,23.77214 18.5088,0 -23.772,-28.94762 21.84216,-25.96514 -17.71946,0 -17.28099,22.63178 -0.087,0 0,-22.63178 -14.29851,0 z m 54.56216,0 0,54.91276 31.22834,0 0,-12.10537 -16.93011,0 0,-9.47376 16.14049,0 0,-12.10537 -16.14049,0 0,-9.12289 16.93011,0 0,-12.10537 -31.22834,0 z m -263.59893,10.96501 0.96478,0 c 3.85968,0 8.33354,0.24197 8.33354,5.2632 0,4.65969 -3.9335,5.35093 -7.71936,5.35093 l -1.57896,0 0,-10.61413 z m 572.19784,0.4386 c 8.51628,0 15.52659,6.90181 15.52659,14.47381 0,9.46324 -7.01031,16.40365 -15.52659,16.40365 -8.51909,0 -15.52631,-6.94041 -15.52631,-16.40365 0,-7.572 7.00722,-14.47381 15.52631,-14.47381 z m -163.59778,4.91232 0.087,0 5.87738,17.4563 -11.84235,0 5.87739,-17.4563 z m -540.618901,10.35097 0,35.08803 17.544013,0 c 9.691313,0 17.544013,-7.84919 17.544013,-17.54402 0,-9.69131 -7.8527,-17.54401 -17.544013,-17.54401 l -17.544013,0 z m 431.495141,2.71932 0,12.19309 26.75448,0 0,-12.19309 -26.75448,0 z m -299.4763,2.80704 1.40352,0 c 4.65969,0 11.75449,-0.66316 11.75449,5.96497 0,6.04216 -7.17901,5.78952 -11.40361,5.78952 l -1.7544,0 0,-11.75449 z" id="path342" style="fill:#1b1a19;fill-opacity:1;fill-rule:evenodd;stroke:#1b1a19;stroke-width:1.20351923;stroke-linecap:butt;stroke-linejoin:miter;stroke-miterlimit:3.86400008;stroke-opacity:1;stroke-dasharray:none"/>
		
		
    
		
		<path animation_id="1" d="m 92.147464,477.59345 23.803716,0 31.33361,35.80733 -31.33361,35.78978 -23.803716,0 31.231856,-35.78978 -31.231856,-35.80733" id="path374" style="fill:#d8232d;fill-opacity:1;fill-rule:nonzero;stroke:none"/>
		
		
  
	
	</g>
	
	


</svg>
