<?xml version="1.0" encoding="iso-8859-1"?>
<!-- Generator: Adobe Illustrator 15.0.2, SVG Export Plug-In . SVG Version: 6.00 Build 0)  -->
<!DOCTYPE svg
  PUBLIC '-//W3C//DTD SVG 1.1//EN'
  'http://www.w3.org/Graphics/SVG/1.1/DTD/svg11.dtd'>
<svg enable-background="new 0 0 1015 375.4" height="375.4px" id="Ebene_1" version="1.1" viewBox="-253.75 -93.85 1522.5 563.0999999999999" width="1015px" x="0px" xml:space="preserve" xmlns="http://www.w3.org/2000/svg" xmlns:xlink="http://www.w3.org/1999/xlink" y="0px">
	
	

	
	<g>
		
		
	
		
		<path animation_id="0" d="M283.79,118.156h46.047v156.1H283.79v-14.971c-4.496,5.086-7.193,8.078-15.556,12.258   c-9.271,4.797-24.732,7.178-34.898,7.178s-28.999-1.488-39.769-16.438c-8.047-11.355-9.556-20.623-9.556-46.049v-98.078h46.337   v96.875c0,6.889,0,13.768,3.582,18.553c2.698,3.576,10.391,8.547,21.615,8.547c2.692,0,10.905-0.795,17.779-4.686   c9.871-5.975,10.156-13.748,10.465-22.105V118.156L283.79,118.156z" fill="#90B0D0"/>
		
		
	
		
		<path animation_id="1" d="M44.92,195.764c0,11.363,1.813,25.736,7.188,35.018c5.975,9.551,16.754,14.627,27.225,14.627   c12.243,0,20.017-6.875,23.918-11.664c8.362-11.051,9.256-31.373,9.256-38.281c0-24.806-7.788-48.718-33.804-47.229   C45.235,150.037,44.92,186.508,44.92,195.764L44.92,195.764z M46.129,63.931v69.361c6.564-6.859,18.238-18.823,44.849-18.823   c25.107,0,67.423,17.324,67.423,79.505c0,15.861-2.708,34.404-9.561,48.156c-8.078,17.619-28.279,37.359-59.371,37.359   c-27.479,0-40.053-14.34-45.732-20.625l1.778,16.439H1.3V63.931H46.129L46.129,63.931z" fill="#90B0D0"/>
		
		
	
		
		<path animation_id="2" d="M410.917,135.395c10.156-8.667,21.226-15.565,45.148-17.963v40.688l-15.246,2.383   c-22.119,3.901-28.704,7.168-28.704,26.92v87.882h-46.047V118.94h44.848V135.395L410.917,135.395z" fill="#90B0D0"/>
		
		
	
		
		<polygon animation_id="18" fill="#90B0D0" points="478.5,64.241 523.633,64.241 523.633,172.741 574.156,119.225 629.467,119.225 575.645,174.849    636.359,275.305 583.129,275.305 543.057,208.037 523.314,226.586 523.314,275.305 478.5,275.305 478.5,64.241  "/>
		
		
	
		
		<path animation_id="3" d="M747.338,177.847c-0.91-6.574-2.129-15.242-8.682-22.13c-5.686-5.68-14.348-8.677-22.4-8.677   c-11.1,0-18.854,5.39-23.357,10.166c-6.264,6.889-7.754,14.067-9.262,20.642H747.338L747.338,177.847z M793.055,235.557   c-5.363,8.063-10.77,15.826-18.842,23.309c-13.447,12.549-33.758,22.109-58.885,22.109c-46.338,0-78.908-29.592-78.908-80.715   c0-37.655,18.504-86.095,80.117-86.095c9.26,0,36.176,0.899,56.197,22.424c20.32,21.815,21.52,52.322,22.09,69.95H683.357   c2.537,19.83,11.879,38.523,34.928,37.891c26.266-0.711,31.141-14.953,40.102-26.531L793.055,235.557L793.055,235.557z" fill="#90B0D0"/>
		
		
	
		
		<path animation_id="4" d="M865.709,135.395c10.119-8.667,21.221-15.565,45.119-17.963v40.688l-15.227,2.383   c-22.121,3.901-28.715,7.168-28.715,26.92v87.882H820.85V118.94h44.859V135.395L865.709,135.395z" fill="#90B0D0"/>
		
		
	
		
		<path animation_id="5" d="M939.24,122.512V74.097h45.758v48.725h30.223v34.468H984.68v63.884c-0.281,9.607-0.281,17.65,11.959,17.65   l16.453-0.594v35.871c-9.84,1.494-15.824,2.402-24.227,2.402c-15.846,0-33.16-0.908-43.01-15.271   c-6.285-9.256-6.615-20.295-6.615-35.262V121.678" fill="#90B0D0"/>
		
		
	
		
		<polygon animation_id="19" fill="#90B0D0" points="1,38.454 148.779,38.454 148.779,0 1,0 1,38.454  "/>
		
		
	
		
		<polygon animation_id="20" fill="#90B0D0" points="188.982,38.454 229.854,38.454 229.854,0 188.982,0 188.982,38.454  "/>
		
		
	
		
		<polygon animation_id="21" fill="#90B0D0" points="282.096,38.454 321.585,38.454 321.585,0 282.096,0 282.096,38.454  "/>
		
		
	
		
		<polygon animation_id="22" fill="#90B0D0" points="365.41,38.454 1014.631,38.454 1014.631,0 365.41,0 365.41,38.454  "/>
		
		
	
		
		<polygon animation_id="23" fill="#798890" points="1,373.814 12.145,373.814 12.145,356.525 40.579,356.525 40.579,348.607 12.145,348.607    12.145,337.148 42.352,337.148 42.352,329.105 1,329.105 1,373.814  "/>
		
		
	
		
		<polygon animation_id="24" fill="#798890" points="48.481,373.814 84.519,373.814 84.519,365.582 59.691,365.582 59.691,329.105 48.481,329.105    48.481,373.814  "/>
		
		
	
		
		<path animation_id="6" d="M89.274,355.072c0,5.314,0.06,11.209,7.089,15.955c2.788,1.838,5.574,2.727,7.728,3.232   c3.102,0.758,6.269,1.078,9.436,1.078c6.779,0,15.392-1.713,20.012-6.844c3.801-4.18,3.801-8.678,3.867-13.422v-25.967h-11.149   v26.346c0.129,4.496-0.825,5.949-1.898,7.219c-1.774,2.027-4.496,3.166-8.737,3.547c-3.297,0.125-6.524,0.254-10.135-1.459   c-4.241-2.023-5.065-5.381-5.065-9.371v-26.281H89.274V355.072L89.274,355.072z" fill="#798890"/>
		
		
	
		
		<polygon animation_id="25" fill="#798890" points="150.203,373.814 161.413,373.814 161.413,329.105 150.203,329.105 150.203,373.814  "/>
		
		
	
		
		<path animation_id="7" clip-rule="evenodd" d="M173.866,373.814h23.053c6.774-0.061,15.197-0.125,21.471-8.293   c3.102-4.121,4.366-9.186,4.366-14.316c0-11.523-6.459-20.641-19.501-21.844c-1.649-0.191-3.297-0.191-4.941-0.256h-24.447V373.814   L173.866,373.814z M197.934,337.023c3.861,0.061,8.547,0.125,11.464,4.75c1.264,2.023,2.213,4.936,2.213,9.182   c0,5.635-1.394,8.736-2.722,10.576c-2.978,4.24-7.538,4.305-11.524,4.369h-12.349v-28.877H197.934L197.934,337.023z" fill="#798890" fill-rule="evenodd"/>
		
		
	
		
		<path animation_id="8" d="M290.499,358.678c-1.454,2.723-4.431,8.422-14.122,8.422c-8.487,0-16.15-5.824-16.15-15.574   c0-8.553,5.765-15.58,15.896-15.58c8.677,0,12.159,5.32,13.362,7.217l12.289-1.518c-5.83-12.793-20.521-13.934-25.651-13.934   c-14.122,0-27.544,6.84-27.544,23.684c0,15.646,11.014,23.943,26.91,23.943c11.404,0,17.354-3.742,20.965-7.033   c3.986-3.672,5-6.904,5.825-9.686L290.499,358.678L290.499,358.678z" fill="#798890"/>
		
		
	
		
		<path animation_id="9" clip-rule="evenodd" d="M332.495,327.711c-14.696,0.635-25.711,8.422-25.711,23.814   c0,13.932,9.562,23.748,27.61,23.748s27.295-10.006,27.295-24.258c0-7.473-2.977-12.414-4.811-14.627   C351.302,329.611,341.297,327.332,332.495,327.711L332.495,327.711z M333.759,335.754c8.932-0.314,16.465,5.824,16.465,15.83   c0,8.617-5.575,15.707-16.02,15.707c-8.677,0-11.974-4.621-13.048-6.141c-0.824-1.078-2.853-3.926-2.853-9.377   C318.303,340.949,326.286,336.01,333.759,335.754L333.759,335.754z" fill="#798890" fill-rule="evenodd"/>
		
		
	
		
		<path animation_id="10" d="M369.576,373.814h10.64v-24.639c-0.065-3.416-0.065-4.174-0.379-7.598c2.473,3.168,3.417,4.307,5.765,7.029   l22.165,25.207h11.08v-44.709h-10.7v22.859c0.065,3.865,0.065,5.004,0.439,9.246c-2.782-3.482-3.287-4.117-5.949-7.219   l-21.91-24.887h-11.15V373.814L369.576,373.814z" fill="#798890"/>
		
		
	
		
		<polygon animation_id="26" fill="#798890" points="424.87,337.273 441.465,337.273 441.465,373.814 452.669,373.814 452.669,337.273 469.264,337.273    469.264,329.105 424.87,329.105 424.87,337.273  "/>
		
		
	
		
		<path animation_id="11" clip-rule="evenodd" d="M475.204,373.814h11.209V355.83h12.728l11.975,17.984h13.168   l-13.557-18.684c1.777-0.314,4.885-0.949,7.283-2.781c3.166-2.408,4.305-6.465,4.305-9.881c0-2.598-0.629-5.955-2.906-8.613   c-3.736-4.311-8.363-4.75-13.428-4.75h-30.777V373.814L475.204,373.814z M486.413,336.959h17.349c4.438,0,5.51,1.074,6.334,2.152   c0.76,1.074,0.891,2.598,0.891,3.48c0,5.008-4.307,5.32-6.715,5.32h-17.858V336.959L486.413,336.959z" fill="#798890" fill-rule="evenodd"/>
		
		
	
		
		<path animation_id="12" clip-rule="evenodd" d="M554.156,327.711c-14.688,0.635-25.707,8.422-25.707,23.814   c0,13.932,9.561,23.748,27.615,23.748c18.043,0,27.295-10.006,27.295-24.258c0-7.473-2.979-12.414-4.816-14.627   C572.969,329.611,562.967,327.332,554.156,327.711L554.156,327.711z M555.424,335.754c8.932-0.314,16.465,5.824,16.465,15.83   c0,8.617-5.574,15.707-16.014,15.707c-8.684,0-11.98-4.621-13.049-6.141c-0.83-1.078-2.857-3.926-2.857-9.377   C539.969,340.949,547.951,336.01,555.424,335.754L555.424,335.754z" fill="#798890" fill-rule="evenodd"/>
		
		
	
		
		<polygon animation_id="27" fill="#798890" points="591.83,373.814 627.867,373.814 627.867,365.582 603.041,365.582 603.041,329.105 591.83,329.105    591.83,373.814  "/>
		
		
	
		
		<path animation_id="13" d="M652.676,362.605c5.764,11.338,17.104,12.602,24.447,12.602c5.633,0,22.738-0.504,22.738-14.881   c0-9.816-8.813-11.719-13.998-12.662c-2.086-0.445-11.209-1.969-13.047-2.35c-3.357-0.758-5.955-1.518-5.955-4.43   c0-4.246,5.066-5.195,10.002-5.195c2.156,0,6.023,0.256,9,1.707c2.658,1.334,3.547,2.984,3.928,3.678l10.631-2.662   c-0.881-1.453-2.848-4.746-7.404-7.219c-4.625-2.533-9.621-3.482-16.154-3.482c-7.084,0-15.326,1.584-19.053,7.6   c-1.148,1.838-1.779,4.115-1.779,6.334c0,10.129,10.391,12.094,14.508,12.857c2.088,0.379,11.27,1.773,13.107,2.154   c2.408,0.438,5.504,1.203,5.504,4.43c0,5.445-8.541,5.889-11.27,5.889c-6.074,0-12.479-1.646-15.006-7.027L652.676,362.605   L652.676,362.605z" fill="#798890"/>
		
		
	
		
		<path animation_id="14" d="M721.771,357.029v16.785h11.209v-16.785l21.34-27.924h-13.617l-12.229,17.164   c-0.57,0.82-0.689,1.074-1.068,1.959c-0.32-0.885-0.381-1.139-1.27-2.279l-11.848-16.844H700.49L721.771,357.029L721.771,357.029z" fill="#798890"/>
		
		
	
		
		<path animation_id="15" d="M751.273,362.605c5.766,11.338,17.096,12.602,24.447,12.602c5.635,0,22.73-0.504,22.73-14.881   c0-9.816-8.803-11.719-13.986-12.662c-2.1-0.445-11.211-1.969-13.049-2.35c-3.357-0.758-5.955-1.518-5.955-4.43   c0-4.246,5.064-5.195,10-5.195c2.158,0,6.025,0.256,9.004,1.707c2.656,1.334,3.535,2.984,3.914,3.678l10.641-2.662   c-0.879-1.453-2.848-4.746-7.402-7.219c-4.627-2.533-9.631-3.482-16.156-3.482c-7.092,0-15.326,1.584-19.063,7.6   c-1.139,1.838-1.768,4.115-1.768,6.334c0,10.129,10.391,12.094,14.496,12.857c2.1,0.379,11.281,1.773,13.119,2.154   c2.396,0.438,5.504,1.203,5.504,4.43c0,5.445-8.553,5.889-11.27,5.889c-6.084,0-12.479-1.646-15.016-7.027L751.273,362.605   L751.273,362.605z" fill="#798890"/>
		
		
	
		
		<polygon animation_id="28" fill="#798890" points="800.85,337.273 817.443,337.273 817.443,373.814 828.652,373.814 828.652,337.273 845.238,337.273    845.238,329.105 800.85,329.105 800.85,337.273  "/>
		
		
	
		
		<polygon animation_id="29" fill="#798890" points="851.111,373.814 894.053,373.814 894.053,365.836 862.32,365.836 862.32,355.131 891.775,355.131    891.775,347.219 862.32,347.219 862.32,337.148 892.783,337.148 892.783,329.105 851.111,329.105 851.111,373.814  "/>
		
		
	
		
		<path animation_id="16" d="M902.664,373.814h10.57v-31.471c-0.129-1.713-0.189-2.094-0.379-3.992c0.51,1.834,0.629,2.344,1.328,4.053   l13.367,31.41h10.191l13.367-32.041c0.631-1.588,0.82-2.092,1.26-3.422c-0.25,1.709-0.439,2.848-0.439,4.176v31.287h10.58v-44.709   h-16.025l-11.65,27.863c-1.268,3.104-1.648,4.242-2.098,6.146c-0.629-2.535-1.068-3.738-2.277-6.654l-11.648-27.355h-16.146   V373.814L902.664,373.814z" fill="#798890"/>
		
		
	
		
		<path animation_id="17" d="M968.244,362.605c5.764,11.338,17.105,12.602,24.447,12.602c5.635,0,22.738-0.504,22.738-14.881   c0-9.816-8.801-11.719-13.996-12.662c-2.088-0.445-11.209-1.969-13.049-2.35c-3.355-0.758-5.953-1.518-5.953-4.43   c0-4.246,5.064-5.195,10.01-5.195c2.148,0,6.014,0.256,8.992,1.707c2.658,1.334,3.547,2.984,3.926,3.678l10.641-2.662   c-0.889-1.453-2.848-4.746-7.414-7.219c-4.615-2.533-9.621-3.482-16.145-3.482c-7.092,0-15.326,1.584-19.063,7.6   c-1.139,1.838-1.777,4.115-1.777,6.334c0,10.129,10.389,12.094,14.506,12.857c2.088,0.379,11.27,1.773,13.107,2.154   c2.408,0.438,5.506,1.203,5.506,4.43c0,5.445-8.543,5.889-11.27,5.889c-6.074,0-12.469-1.646-15.006-7.027L968.244,362.605   L968.244,362.605z" fill="#798890"/>
		
		

	
	</g>
	
	


</svg>
