<?xml version="1.0" encoding="iso-8859-1"?>
<svg height="50" viewBox="-60.0 -12.0425 360.0 72.255" width="240" xmlns="http://www.w3.org/2000/svg">
	
	
  
	
	<title>accumotive-logo-final</title>
	
	
  
	
	<path animation_id="0" d="M230.1,7.4h9.7v-2H227.6V26.2H240v-2h-9.9V16.4h9v-2h-9ZM213.7,26.3h2.5l7.6-21h-2.6L215,23.5,208.7,5.4h-2.6Zm-12-21h-2.5V26.1h2.5Zm-21,2.1h5.7V26.2h2.5V7.4h5.7v-2h-14v2Zm-5.9,1.9a10.69,10.69,0,0,1,1.8,6.5,12.72,12.72,0,0,1-.6,3.9,6.84,6.84,0,0,1-2.5,3.7,5.74,5.74,0,0,1-5.4.6,5.66,5.66,0,0,1-2.4-1.9,10.58,10.58,0,0,1-1.8-6.4,13.86,13.86,0,0,1,.6-4A6.84,6.84,0,0,1,167,8a5,5,0,0,1,3.1-1,5.32,5.32,0,0,1,4.7,2.3M163.9,7.8a11.3,11.3,0,0,0-2.7,8,11.78,11.78,0,0,0,2.7,8,8.62,8.62,0,0,0,11.6,1,10,10,0,0,0,1.1-1,11.78,11.78,0,0,0,2.7-8,15,15,0,0,0-.9-5.2,9,9,0,0,0-3.5-4.2A8,8,0,0,0,170.4,5a7.9,7.9,0,0,0-6.5,2.8M137.3,26.2h2.4V7.7L146,26.2h2.5l6.4-18.5V26.2h2.4V5.3h-3.8l-6.3,18.3L141,5.3h-3.8V26.2Zm-22.1-8.9a19.4,19.4,0,0,0,.2,3.4,6.13,6.13,0,0,0,2.6,4.1,11.55,11.55,0,0,0,11.9,0,6.52,6.52,0,0,0,2.6-4.1,19.4,19.4,0,0,0,.2-3.4V5.3h-4.3V19.1a4.23,4.23,0,0,1-1.2,3,6.15,6.15,0,0,1-5.8.5,3.53,3.53,0,0,1-1.6-1.8,13.42,13.42,0,0,1-.4-3.5V5.3H115ZM107.7,5.9A10,10,0,0,0,97.1,7.1c-2.4,2-3.5,4.9-3.5,8.8,0,3.6,1,6.4,3.3,8.3a9.78,9.78,0,0,0,6.8,2.4c3.1,0,5.4-1.1,6.7-3.4a10,10,0,0,0,1.2-4.7h-3.8c-.3,3.1-1.7,4.7-4.2,4.7a4.73,4.73,0,0,1-4.1-2,9,9,0,0,1-1.4-5.3,9,9,0,0,1,1.5-5.5,4.6,4.6,0,0,1,3.8-1.9,4,4,0,0,1,3.1,1.4,5,5,0,0,1,.9,2.3h3.7c-.2-3-1.4-5.1-3.4-6.3m-20.6,0A10,10,0,0,0,76.5,7.1C74.2,9,73,12,73,15.9c0,3.6,1,6.4,3.3,8.3A10,10,0,0,0,83,26.6c3.1,0,5.4-1.1,6.7-3.4a10,10,0,0,0,1.2-4.7H87.1c-.3,3.1-1.7,4.7-4.2,4.7a4.79,4.79,0,0,1-4-2,9.88,9.88,0,0,1-1.5-5.3,9,9,0,0,1,1.5-5.5,4.6,4.6,0,0,1,3.8-1.9,4,4,0,0,1,3.1,1.4,5,5,0,0,1,.9,2.3h3.7q-.15-4.5-3.3-6.3M59.9,18.4l2.8-8.5,2.9,8.5ZM53,26.2h4.4l1.4-4.3h7.8L68,26.2h4.4L64.9,5.3H60.5Z" transform="translate(0 -1)"/>
	
	
  
	
	<polygon animation_id="27" points="4.6 6.7 4.6 4.3 38.6 4.3 38.6 25.2 36 25.2 36 6.7 4.6 6.7" style="fill: #009fe3"/>
	
	
  
	
	<rect animation_id="29" height="20.9" style="fill: #009fe3" width="33.8" y="8.7"/>
	
	
  
	
	<polygon animation_id="28" points="9.2 0 9.2 2.4 40.8 2.4 40.8 20.8 43.4 20.8 43.4 0 9.2 0" style="fill: #009fe3"/>
	
	
  
	
	<g style="isolation: isolate">
		
		
    
		
		<path animation_id="1" d="M59,43.71v.91H55.26v3.47h4.17V49H54.2V39.66h5.13v.91H55.26v3.14Z" style="fill: #666" transform="translate(0 -1)"/>
		
		
    
		
		<path animation_id="2" d="M62.28,40.26a.67.67,0,0,1-.71.7.69.69,0,0,1-.72-.7.71.71,0,0,1,.73-.73A.69.69,0,0,1,62.28,40.26Zm-.19,2.1V49h-1V42.36Z" style="fill: #666" transform="translate(0 -1)"/>
		
		
    
		
		<path animation_id="3" d="M64.92,42.36a2.93,2.93,0,0,1,.14,1,2.17,2.17,0,0,1,2-1.15A2,2,0,0,1,69,43.26c.19.43.21.62.21,1.93V49h-1V45.25A3.21,3.21,0,0,0,68,43.68a1.19,1.19,0,0,0-1.15-.63,1.66,1.66,0,0,0-1.45.83,2.74,2.74,0,0,0-.3,1.41V49h-1V44.62A7.28,7.28,0,0,0,64,42.36Z" style="fill: #666" transform="translate(0 -1)"/>
		
		
    
		
		<path animation_id="4" d="M75.81,39.66v5.5c0,1.43,0,1.78.33,2.22a2.25,2.25,0,0,0,1.92.85,2.07,2.07,0,0,0,2.06-1.15,4.77,4.77,0,0,0,.18-1.92v-5.5h1v5.52a5.21,5.21,0,0,1-.22,2.24,3.59,3.59,0,0,1-6.15,0,5.21,5.21,0,0,1-.22-2.24V39.66Z" style="fill: #666" transform="translate(0 -1)"/>
		
		
    
		
		<path animation_id="5" d="M84.22,42.36a2.69,2.69,0,0,1,.14,1,2.18,2.18,0,0,1,2-1.15,2,2,0,0,1,1.91,1.08,4.15,4.15,0,0,1,.21,1.93V49h-1V45.25a3.34,3.34,0,0,0-.18-1.57,1.2,1.2,0,0,0-1.15-.63,1.69,1.69,0,0,0-1.46.83,2.75,2.75,0,0,0-.29,1.41V49h-1V44.62a6.84,6.84,0,0,0-.16-2.26Z" style="fill: #666" transform="translate(0 -1)"/>
		
		
    
		
		<path animation_id="6" d="M93.43,42.36v.8H91.84l-.06,3.36a6,6,0,0,0,0,1.31.64.64,0,0,0,.7.46,2.38,2.38,0,0,0,1-.24l0,.87a3.22,3.22,0,0,1-1.16.22,1.45,1.45,0,0,1-1.37-.63,1.72,1.72,0,0,1-.17-.94c0-.18,0-.22,0-1.08l.08-3.33h-1l0-.8h1l.05-1.92h1l0,1.92Z" style="fill: #666" transform="translate(0 -1)"/>
		
		
    
		
		<path animation_id="7" d="M95.34,45.85c0,1.61.71,2.48,1.92,2.48a1.57,1.57,0,0,0,1.54-1l.91.11a2.43,2.43,0,0,1-2.47,1.74c-1.78,0-2.91-1.33-2.91-3.42s1.12-3.57,2.86-3.57,2.69,1.33,2.69,3.39a1.83,1.83,0,0,1,0,.28Zm3.51-.77c-.11-1.34-.71-2.07-1.71-2.07s-1.58.71-1.78,2.07Z" style="fill: #666" transform="translate(0 -1)"/>
		
		
    
		
		<path animation_id="8" d="M102.36,42.36a4,4,0,0,1,.13,1c0,.09,0,.23,0,.41.46-1.11,1-1.61,1.71-1.61a1.76,1.76,0,0,1,.79.21v1a1.9,1.9,0,0,0-.88-.27,1.48,1.48,0,0,0-1.27,1,4.47,4.47,0,0,0-.3,1.9v3h-1V44.65a12.27,12.27,0,0,0-.11-2.29Z" style="fill: #666" transform="translate(0 -1)"/>
		
		
    
		
		<path animation_id="9" d="M107,42.36a2.69,2.69,0,0,1,.14,1,2.18,2.18,0,0,1,2-1.15,2,2,0,0,1,1.9,1.08,4.15,4.15,0,0,1,.21,1.93V49h-1V45.25a3.34,3.34,0,0,0-.18-1.57,1.19,1.19,0,0,0-1.15-.63,1.69,1.69,0,0,0-1.46.83,2.85,2.85,0,0,0-.29,1.41V49h-1V44.62a6.84,6.84,0,0,0-.16-2.26Z" style="fill: #666" transform="translate(0 -1)"/>
		
		
    
		
		<path animation_id="10" d="M113.91,45.85c0,1.61.72,2.48,1.92,2.48a1.55,1.55,0,0,0,1.54-1l.92.11a2.43,2.43,0,0,1-2.47,1.74c-1.78,0-2.91-1.33-2.91-3.42s1.12-3.57,2.85-3.57,2.69,1.33,2.69,3.39c0,0,0,.15,0,.28Zm3.52-.77c-.11-1.34-.71-2.07-1.71-2.07s-1.58.71-1.78,2.07Z" style="fill: #666" transform="translate(0 -1)"/>
		
		
    
		
		<path animation_id="11" d="M121.08,39.62v3.53a2.22,2.22,0,0,1,1.91-1,2.09,2.09,0,0,1,1.83.91c.24.41.3.79.3,2.1V49h-1V45.25a3.15,3.15,0,0,0-.21-1.57,1.23,1.23,0,0,0-1.15-.63,1.61,1.61,0,0,0-1.42.83,3.07,3.07,0,0,0-.28,1.47V49h-1V39.62Z" style="fill: #666" transform="translate(0 -1)"/>
		
		
    
		
		<path animation_id="12" d="M127.94,42.36a2.69,2.69,0,0,1,.13.91A2,2,0,0,1,130,42.18a1.78,1.78,0,0,1,1.84,1.16,2.17,2.17,0,0,1,2-1.16,1.85,1.85,0,0,1,1.71.86c.22.39.25.64.25,1.9V49h-1V44.94c0-.87,0-1.09-.19-1.37a1.24,1.24,0,0,0-1.1-.51,1.48,1.48,0,0,0-1.33.74,2.41,2.41,0,0,0-.25,1.28V49h-1V45.09c0-1,0-1.19-.15-1.44a1.21,1.21,0,0,0-1.12-.6,1.5,1.5,0,0,0-1.36.75,2.62,2.62,0,0,0-.25,1.34V49h-1V44.42a6.19,6.19,0,0,0-.16-2.06Z" style="fill: #666" transform="translate(0 -1)"/>
		
		
    
		
		<path animation_id="13" d="M138.46,45.85c0,1.61.71,2.48,1.92,2.48a1.57,1.57,0,0,0,1.54-1l.91.11a2.43,2.43,0,0,1-2.47,1.74c-1.78,0-2.91-1.33-2.91-3.42s1.12-3.57,2.85-3.57S143,43.51,143,45.57c0,0,0,.15,0,.28Zm3.51-.77c-.11-1.34-.71-2.07-1.71-2.07s-1.58.71-1.78,2.07Z" style="fill: #666" transform="translate(0 -1)"/>
		
		
    
		
		<path animation_id="14" d="M145.41,42.36a2.69,2.69,0,0,1,.14,1,2.19,2.19,0,0,1,2-1.15,2,2,0,0,1,1.9,1.08,4.15,4.15,0,0,1,.21,1.93V49h-1V45.25a3.34,3.34,0,0,0-.18-1.57,1.19,1.19,0,0,0-1.15-.63,1.69,1.69,0,0,0-1.46.83,2.85,2.85,0,0,0-.29,1.41V49h-1V44.62a7.28,7.28,0,0,0-.15-2.26Z" style="fill: #666" transform="translate(0 -1)"/>
		
		
    
		
		<path animation_id="15" d="M160.26,47a8.51,8.51,0,0,0,.12,2h-1a2.53,2.53,0,0,1-.1-.71,2.27,2.27,0,0,1,0-.24,2,2,0,0,1-1.87,1.12c-1.62,0-2.67-1.34-2.67-3.43s1.05-3.56,2.61-3.56a2,2,0,0,1,1.88,1.12V39.62h1ZM155.8,45.7c0,1.61.67,2.62,1.74,2.62s1.75-1,1.75-2.64S158.62,43,157.57,43,155.8,44,155.8,45.7Z" style="fill: #666" transform="translate(0 -1)"/>
		
		
    
		
		<path animation_id="16" d="M162.93,45.85c0,1.61.71,2.48,1.92,2.48a1.56,1.56,0,0,0,1.54-1l.91.11a2.43,2.43,0,0,1-2.47,1.74c-1.78,0-2.91-1.33-2.91-3.42s1.12-3.57,2.86-3.57,2.69,1.33,2.69,3.39a1.83,1.83,0,0,1,0,.28Zm3.51-.77c-.11-1.34-.71-2.07-1.7-2.07s-1.59.71-1.78,2.07Z" style="fill: #666" transform="translate(0 -1)"/>
		
		
    
		
		<path animation_id="17" d="M170,42.36a4.51,4.51,0,0,1,.12,1c0,.09,0,.23,0,.41.46-1.11,1-1.61,1.71-1.61a1.84,1.84,0,0,1,.8.21v1a1.93,1.93,0,0,0-.89-.27,1.48,1.48,0,0,0-1.27,1,4.5,4.5,0,0,0-.29,1.9v3h-1V44.65a11.41,11.41,0,0,0-.11-2.29Z" style="fill: #666" transform="translate(0 -1)"/>
		
		
    
		
		<path animation_id="18" d="M178.85,39.66a6.16,6.16,0,0,1,3.28.53,4.61,4.61,0,0,1,2.11,4.13A4.49,4.49,0,0,1,182,48.5c-.77.4-1.39.5-3.31.5h-1.35V39.66Zm.26,8.43a4.08,4.08,0,0,0,2.55-.47,3.68,3.68,0,0,0,1.47-3.3A3.57,3.57,0,0,0,181.49,41c-.6-.32-1-.38-2.64-.38h-.42v7.52Z" style="fill: #666" transform="translate(0 -1)"/>
		
		
    
		
		<path animation_id="19" d="M185.83,44.1c.14-1.25,1-1.92,2.48-1.92a2.1,2.1,0,0,1,2.13,1.09,4,4,0,0,1,.15,1.49v2.49a4.32,4.32,0,0,0,.19,1.75h-.94a3.85,3.85,0,0,1-.16-.89,2,2,0,0,1-1.94,1.06,1.92,1.92,0,0,1-2.15-1.92,2.09,2.09,0,0,1,1.54-2,13,13,0,0,1,2.5-.59v-.28c0-1-.38-1.37-1.36-1.37s-1.33.34-1.47,1.08Zm3.8,1.3c-2.24.39-3,.87-3,1.78a1.17,1.17,0,0,0,1.29,1.16,1.64,1.64,0,0,0,1.49-.82,3.27,3.27,0,0,0,.25-1.46Z" style="fill: #666" transform="translate(0 -1)"/>
		
		
    
		
		<path animation_id="20" d="M193.87,40.26a.72.72,0,0,1-1.43,0,.71.71,0,0,1,.73-.73A.7.7,0,0,1,193.87,40.26Zm-.2,2.1V49h-1V42.36Z" style="fill: #666" transform="translate(0 -1)"/>
		
		
    
		
		<path animation_id="21" d="M196.54,42.36a2.69,2.69,0,0,1,.13.91,2,2,0,0,1,1.93-1.09,1.78,1.78,0,0,1,1.84,1.16,2.16,2.16,0,0,1,2-1.16,1.85,1.85,0,0,1,1.71.86c.22.39.25.64.25,1.9V49h-1V44.94c0-.87,0-1.09-.19-1.37a1.24,1.24,0,0,0-1.1-.51,1.47,1.47,0,0,0-1.33.74,2.41,2.41,0,0,0-.25,1.28V49h-1V45.09c0-1,0-1.19-.15-1.44a1.21,1.21,0,0,0-1.13-.6,1.5,1.5,0,0,0-1.35.75,2.61,2.61,0,0,0-.26,1.34V49h-1V44.42a6.19,6.19,0,0,0-.16-2.06Z" style="fill: #666" transform="translate(0 -1)"/>
		
		
    
		
		<path animation_id="22" d="M207.48,39.62V49h-1V39.62Z" style="fill: #666" transform="translate(0 -1)"/>
		
		
    
		
		<path animation_id="23" d="M210.15,45.85c0,1.61.71,2.48,1.92,2.48a1.56,1.56,0,0,0,1.54-1l.91.11a2.43,2.43,0,0,1-2.47,1.74c-1.77,0-2.91-1.33-2.91-3.42s1.12-3.57,2.86-3.57,2.69,1.33,2.69,3.39a1.83,1.83,0,0,1,0,.28Zm3.52-.77C213.55,43.74,213,43,212,43s-1.59.71-1.78,2.07Z" style="fill: #666" transform="translate(0 -1)"/>
		
		
    
		
		<path animation_id="24" d="M217.18,42.36a4.51,4.51,0,0,1,.12,1c0,.09,0,.23,0,.41.46-1.11,1-1.61,1.71-1.61a1.8,1.8,0,0,1,.8.21v1a1.93,1.93,0,0,0-.88-.27,1.49,1.49,0,0,0-1.28,1,4.5,4.5,0,0,0-.29,1.9v3h-1V44.65a11.41,11.41,0,0,0-.11-2.29Z" style="fill: #666" transform="translate(0 -1)"/>
		
		
    
		
		<path animation_id="25" d="M227.8,39.6,231,49h-1.1l-.82-2.48h-3.52L224.75,49h-1.08l3.22-9.4ZM227.34,41l-1.47,4.65h2.94Z" style="fill: #666" transform="translate(0 -1)"/>
		
		
    
		
		<path animation_id="26" d="M238.82,44.37V48.2a5.09,5.09,0,0,1-3.08,1c-2.52,0-4-1.82-4-4.86s1.51-4.82,3.89-4.82a2.89,2.89,0,0,1,3.1,2.75h-1a2,2,0,0,0-2.12-1.82c-1.72,0-2.77,1.47-2.77,3.9s1.06,3.93,2.93,3.93a4.08,4.08,0,0,0,2.11-.62V45.26l-1.89,0v-.91Z" style="fill: #666" transform="translate(0 -1)"/>
		
		
  
	
	</g>
	
	


</svg>
