<?xml version="1.0" encoding="iso-8859-1"?>
<svg height="234.21094" id="svg5629" version="1.1" viewBox="-168.197755 -58.552735000000006 1009.18653 351.31641" width="672.79102" xmlns="http://www.w3.org/2000/svg" xmlns:svg="http://www.w3.org/2000/svg">
	
	
  
	
	<defs id="defs5631"/>
	
	
  
	
	<g id="layer1" transform="translate(16.39551,-343.82816)">
		
		
    
		
		<path animation_id="0" d="m 114.95801,348.82816 c -76.00248,0 -97.53711,72.21289 -97.53711,72.21289 l 25.01367,-4.0957 c 0,0 16.15361,-55.17858 70.6211,-58.33398 54.15518,-3.4713 72.51757,44.14648 72.51757,44.14648 0,0 -10.45078,-53.92969 -70.61523,-53.92969 z m 76.63086,70.95899 -2.21094,10.08594 12.66406,0 1.90235,-10.08594 -12.35547,0 z m -3.79688,18.60547 -9.49218,46.03515 12.3457,0 9.49414,-46.03515 -12.34766,0 z m -46.55078,57.70312 -23.11914,4.09961 c 0,0 -11.40145,58.3378 -58.57812,62.125 -46.87155,3.78003 -70.93946,-45.41406 -70.93946,-45.41406 0,0 17.42008,56.13281 69.34961,56.13281 65.86499,0 83.28711,-76.94336 83.28711,-76.94336 z m 261.25586,0.002 0,25.2246 4.75,0 0,-9.77734 c 0,-2.20771 0.95391,-4.72852 3.48828,-4.72852 2.5236,0 2.84766,2.20831 2.84766,4.41602 l 0,10.08984 4.74805,0 0,-11.3496 c 0,-4.09952 -1.58208,-6.62305 -5.70313,-6.62305 -2.21847,0 -4.11008,1.25909 -5.38086,3.46679 l 0,-10.71874 -4.75,0 z m 205.20508,0.31445 0,4.0957 4.75,0 0,-4.0957 -4.75,0 z m -282.79492,2.20898 -4.74219,1.57617 0,3.4668 -3.16211,0 0,3.15234 3.16211,0 0,8.83008 c 0,3.7872 0.94781,6.30469 4.74219,6.30469 1.27437,0 2.85359,-0.31301 4.11719,-0.62891 l -0.3125,-3.46679 c -0.6318,0.3159 -1.27055,0.3164 -1.90235,0.3164 -1.58309,0 -1.90234,-0.9459 -1.90234,-2.52539 l 0,-8.83008 3.80469,0 0,-3.15234 -3.80469,0 0,-5.04297 z m 14.2539,4.72657 c -4.74926,0 -8.23437,3.78697 -8.23437,9.14648 0,5.99132 3.17218,9.46289 8.86914,9.46289 2.2077,0 4.43796,-0.32101 6.32617,-0.94922 l -0.3125,-3.4707 c -1.2636,0.9477 -3.48465,1.26367 -5.06055,1.26367 -2.85027,0 -5.0664,-1.89116 -5.0664,-5.04297 l 11.39062,0 0,-0.95117 c 0,-5.35951 -2.21157,-9.45898 -7.91211,-9.45898 z m 52.25391,0 c -4.74926,0 -8.23437,3.78697 -8.23437,9.14648 0,5.99132 3.165,9.46289 8.86914,9.46289 1.89897,0 4.43272,-0.32101 6.32812,-0.94922 l -0.31055,-3.4707 c -1.27077,0.9477 -3.4866,1.26367 -5.0625,1.26367 -2.85386,0 -5.07617,-1.89116 -5.07617,-5.04297 l 11.40235,0 0,-0.95117 c 0,-5.35951 -2.21548,-9.45898 -7.91602,-9.45898 z m 69.3418,0 c -5.06516,0 -8.54688,3.78697 -8.54688,9.14648 0,5.99132 3.17415,9.46289 8.8711,9.46289 2.2113,0 4.43563,-0.32101 6.34179,-0.94922 l 0,-3.4707 c -1.59743,0.9477 -3.80753,1.26367 -5.39062,1.26367 -2.85386,0 -5.06836,-1.89116 -5.06836,-5.04297 l 11.4082,0 0,-0.95117 c 0,-5.35951 -2.23058,-9.45898 -7.61523,-9.45898 z m 47.8164,0 c -3.15898,0 -7.27539,1.26018 -7.27539,5.36328 0,5.67901 8.55274,4.09888 8.55274,7.8789 0,1.57949 -1.90161,2.20899 -3.48828,2.20899 -1.57949,0 -3.48577,-0.31372 -4.74219,-1.25782 l -0.32227,3.46485 c 1.90258,0.63179 3.80742,0.94336 5.69922,0.94336 3.48566,0 7.2832,-1.57236 7.28321,-5.67188 0,-5.99131 -8.54688,-5.0433 -8.54688,-7.88281 0,-1.5759 1.90765,-1.89453 3.16406,-1.89453 1.58668,0 3.16119,0.31937 4.43555,0.95117 l 0.32422,-3.16016 c -1.59744,-0.6282 -3.48654,-0.94335 -5.08399,-0.94335 z m 54.48047,0 c -5.06875,0 -8.55078,3.78697 -8.55078,9.14648 0,5.99132 3.16243,9.46289 8.85938,9.46289 2.22206,0 4.43336,-0.32101 6.33593,-0.94922 l 0,-3.4707 c -1.58308,0.9477 -3.80917,1.26367 -5.38867,1.26367 -2.8395,0 -5.06445,-1.89116 -5.06445,-5.04297 l 11.4082,0 0,-0.95117 c 0,-5.35951 -2.22573,-9.45898 -7.59961,-9.45898 z m 30.39453,0 c -5.06515,0 -7.27734,4.41713 -7.27734,9.14843 0,4.41542 2.21036,8.82617 6.9668,8.82617 2.21128,0 4.42403,-0.94381 5.3789,-2.83203 l 0,1.88867 c 0,3.46413 -1.58812,5.67188 -5.3789,5.67188 -1.90258,0 -3.80723,-0.31371 -5.38672,-1.25781 l 0,3.78125 c 1.90257,0.63179 4.11684,0.94726 6.32812,0.94726 6.01645,0 9.19336,-3.15485 9.19336,-9.14258 l 0,-16.71484 -4.43359,0 0,3.15234 c -0.95488,-2.20412 -3.16496,-3.46874 -5.39063,-3.46874 z m 31.04102,0 c -5.06875,0 -8.55469,3.78697 -8.55469,9.14648 0,5.99132 3.16664,9.46289 8.86719,9.46289 2.21487,0 4.7465,-0.32101 6.65625,-0.94922 l -0.32031,-3.4707 c -1.59027,0.9477 -3.48559,1.26367 -5.07227,1.26367 -3.15899,0 -5.38476,-1.89116 -5.38476,-5.04297 l 11.40234,0 0,-0.95117 c 0,-5.35951 -2.2127,-9.45898 -7.59375,-9.45898 z m -316.03711,0.002 c -2.53796,0 -4.44016,1.25909 -5.71094,3.46679 l 0,-3.15234 -4.43359,0 0,4.09961 0,13.55859 4.75781,0 0,-9.77734 c 0,-2.20771 0.94641,-4.72852 3.48438,-4.72852 2.53077,0 2.84375,2.20831 2.84375,4.41602 l 0,10.08984 4.75195,0 0,-11.3496 c 0,-4.09952 -1.5795,-6.62305 -5.69336,-6.62305 z m 51.29883,0 c -2.53436,0 -4.1213,1.89499 -5.07617,3.7832 l 0,-3.46875 -4.42188,0 c 0,1.5795 0.30861,2.83601 0.30859,4.09961 l 0,13.55859 4.75586,0 0,-7.8789 c 0,-2.52719 0.94744,-5.67969 4.11719,-5.67969 l 1.57617,0 0,-4.09961 c -0.31948,-0.3159 -0.95104,-0.31445 -1.25976,-0.31445 z m 13.92578,0 c -2.21489,0 -4.43448,1.25909 -5.375,3.46679 l -0.32227,-3.15234 -4.4375,0 c 0.32308,1.26001 0.32422,2.83601 0.32422,4.09961 l 0,13.55859 4.74414,0 0,-9.77734 c 0,-2.20771 0.63215,-4.72852 3.48243,-4.72852 2.53436,0 2.85351,2.20831 2.85351,4.41602 l 0,10.08984 4.75,0 0,-11.3496 c 0,-4.09952 -1.90566,-6.62305 -6.01953,-6.62305 z m 58.90234,0 c -2.21847,0 -4.11726,1.25909 -5.38086,3.46679 l 0,-3.15234 -4.43359,0 0,4.09961 0,13.55859 4.74609,0 0,-9.77734 c 0,-2.20771 0.95165,-4.72852 3.48243,-4.72852 1.90257,0 2.5332,1.89285 2.5332,3.46876 l 0,11.0371 4.76172,0 0,-9.77734 c 0,-2.20771 0.62773,-4.72852 3.16211,-4.72852 2.21128,0 2.5332,1.89285 2.5332,3.46876 l 0,11.0371 4.74219,0 0,-11.3496 c 0,-3.7872 -1.5795,-6.62305 -5.69336,-6.62305 -2.21848,0 -4.43656,1.25909 -5.06836,3.46679 -0.63539,-1.89179 -2.5309,-3.46679 -5.38477,-3.46679 z m 49.08203,0 c -2.2077,0 -4.42824,1.25909 -5.38671,3.46679 l -0.30664,-3.15234 -4.4336,0 c 0.30873,1.26001 0.30859,2.83601 0.3086,4.09961 l 0,13.55859 4.7539,0 0,-9.77734 c 0,-2.20771 0.63605,-4.72852 3.48633,-4.72852 2.53436,0 2.8418,2.20831 2.8418,4.41602 l 0,10.08984 4.75781,0 0,-11.3496 c 0,-4.09952 -1.90402,-6.62305 -6.02149,-6.62305 z m 63.65821,0 c -2.54155,0 -4.75051,1.25909 -5.70899,3.46679 l 0,-3.15234 -4.42968,0 0,4.09961 0,13.55859 4.7539,0 0,-9.77734 c 0,-2.20771 0.6341,-4.72852 3.48438,-4.72852 2.53077,0 2.83984,2.20831 2.83984,4.41602 l 0,10.08984 4.75977,0 0,-11.3496 c 0,-4.09952 -1.58176,-6.62305 -5.69922,-6.62305 z m 37.99609,0 c -2.21489,0 -4.11562,1.89499 -4.74023,3.7832 l -0.32422,-3.46875 -4.4375,0 c 0.32309,1.5795 0.32422,2.83601 0.32422,4.09961 l 0,13.55859 4.74218,0 0,-7.8789 c 0,-2.52719 0.94711,-5.67969 4.11329,-5.67969 l 1.59375,0 0,-4.09961 c -0.31949,-0.3159 -0.63969,-0.31445 -1.27149,-0.31445 z m 62.38477,0 c -2.53438,0 -4.74239,1.25909 -5.69727,3.46679 l 0,-3.15234 -4.4375,0 0,4.09961 0,13.55859 4.75,0 0,-9.77734 c 0,-2.20771 0.64128,-4.72852 3.48438,-4.72852 2.52718,0 2.84765,2.20831 2.84765,4.41602 l 0,10.08984 4.74805,0 0,-11.3496 c 0,-4.09952 -1.57786,-6.62305 -5.69531,-6.62305 z m -367.6543,0.31445 0,11.67188 c 0,3.78002 1.89817,6.61523 6.01562,6.61523 2.21129,0 4.43739,-1.25714 5.38868,-3.46484 l 0.30859,2.83593 4.43359,0 c -0.31231,-1.2636 -0.3125,-2.52287 -0.3125,-3.77929 l 0,-13.87891 -4.7539,0 0,9.77539 c 0,2.52361 -0.62693,4.73242 -3.48438,4.73242 -2.53437,0 -2.84765,-1.89353 -2.84765,-4.09765 l 0,-10.41016 -4.74805,0 z m 237.81836,0 6.01953,18.29102 -0.32227,0.94726 c -0.30871,1.26 -1.26067,3.15235 -2.84374,3.15235 -0.63898,0 -1.27055,-5.1e-4 -1.90235,-0.31641 l -0.31641,3.4668 c 1.2672,0 2.21915,0.3164 3.48633,0.3164 4.42619,0 5.69338,-3.46662 6.33594,-5.99023 l 6.32227,-19.86719 -4.41993,0 -3.8125,13.875 -3.48242,-13.875 -5.06445,0 z m 91.83789,0 0,17.6582 4.75,0 0,-17.6582 -4.75,0 z m -268.22461,2.52539 c 2.52719,0 3.17383,2.83721 3.17383,5.04492 l -6.96875,0 c 0,-2.20771 0.95182,-5.04492 3.79492,-5.04492 z m 51.9375,0 c 2.84668,0 3.47852,2.83721 3.47852,5.04492 l -6.96485,0 c 0,-2.20771 0.94477,-5.04492 3.48633,-5.04492 z m 69.3418,0 c 2.53437,0 3.18164,2.83721 3.18164,5.04492 l -6.97461,0 c 0,-2.20771 0.95347,-5.04492 3.79297,-5.04492 z m 102.29687,0 c 2.53078,0 3.16016,2.83721 3.16016,5.04492 l -6.96875,0 c 0,-2.20771 0.95473,-5.04492 3.80859,-5.04492 z m 61.43555,0 c 2.52719,0 3.48242,2.83721 3.48242,5.04492 l -7.29101,0 c 0,-2.20771 1.27063,-5.04492 3.80859,-5.04492 z m -29.45898,0.62695 c 2.85386,0 3.80859,3.15609 3.80859,5.67969 0,2.52362 -0.95473,5.67383 -3.80859,5.67383 -3.16258,0 -3.79493,-3.15021 -3.79493,-5.67383 0,-2.5236 0.63235,-5.67969 3.79493,-5.67969 z" id="path446" style="fill:#019036;fill-opacity:1;fill-rule:nonzero;stroke:none"/>
		
		
    
		
		<path animation_id="1" d="m 285.6416,417.89262 c -10.44981,0 -15.82789,6.6194 -17.73047,16.08203 l -0.94726,4.72265 -8.23633,0 -1.89844,8.51563 8.23242,0 -7.9121,38.79101 c -0.95129,4.09952 -2.85835,10.72266 -7.91993,10.72266 -1.27077,0 -2.53473,-5.1e-4 -3.48242,-0.3164 l -2.22461,8.51562 c 2.85746,0.6318 6.01528,0.63086 8.86914,0.63086 10.1339,0 15.20421,-9.77824 17.09961,-18.60547 l 7.92188,-39.73828 9.81445,0 1.58984,-8.51563 -9.50586,0 0.63282,-3.77539 c 0.95487,-4.09591 2.84953,-8.83789 7.92187,-8.83789 1.26,0 2.53052,0.31951 4.11719,0.64258 l 2.20898,-7.88672 c -2.8395,-0.9477 -5.69333,-0.94726 -8.55078,-0.94726 z m -217.55078,0.94531 0,65.9082 12.35352,0 0,-23.33203 17.41406,23.33203 15.19727,0 -19.94727,-25.54687 18.04883,-20.50196 -14.25195,0 -16.46094,18.92188 0,-38.78125 -12.35352,0 z m 511.10742,0.002 -13.61132,65.9043 12.33984,0 5.07031,-23.96094 12.03516,23.96094 14.25586,0 -14.25586,-24.9082 22.48437,-21.13673 -14.56836,0 -19.3125,18.92384 7.90821,-38.78321 -12.34571,0 z m -24.38672,1.25195 -1.89257,10.09571 12.34179,0 2.23047,-10.09571 -12.67969,0 z m -19.63085,5.04883 -13.29688,4.41406 -1.89844,9.14453 -7.92578,0 -1.88867,8.51368 8.22461,0 -4.73828,22.39648 c -0.64616,2.2077 -0.64649,4.10109 -0.64649,6.6211 0,6.61952 4.11833,9.45898 10.13477,9.45898 4.12105,0 7.91843,-0.62847 10.44922,-1.57617 l 1.27734,-8.51562 c -1.58667,0.63179 -3.17296,0.94726 -5.06836,0.94726 -2.53796,0 -4.125,-0.94729 -4.125,-3.7832 0,-1.57591 0.32031,-2.52371 0.32031,-4.09961 l 4.75196,-21.44922 9.81836,0 1.57617,-8.51368 -9.80664,0 2.8418,-13.55859 z M 237.8252,437.7598 c -7.59954,0 -12.03621,3.15321 -16.14649,9.14454 l 1.27149,-8.20704 -11.72852,0 c -0.30871,3.47489 -0.94829,6.94245 -1.58008,10.41016 l -7.5957,35.63672 12.66211,0 5.38672,-26.17774 c 1.2636,-5.9913 4.43738,-12.2871 11.08203,-12.2871 4.43695,0 6.01758,2.51861 6.01758,5.98632 0,1.5795 -0.32082,3.15261 -0.63672,4.72852 l -5.69922,27.75 12.35547,0 6.32422,-30.27344 c 0.32307,-1.8954 0.32422,-3.79097 0.32422,-5.36328 0,-7.56722 -4.7463,-11.34766 -12.03711,-11.34766 z m 172.27539,0 c -7.60313,0 -12.03652,2.83372 -16.15039,9.14454 l 1.25976,-8.20704 -11.70898,0 c -0.32308,3.47489 -0.95609,6.94245 -1.58789,10.41016 l -7.28321,35.63672 12.35547,0 5.3711,-26.17774 c 0.95487,-5.3631 4.76058,-12.2871 10.77343,-12.2871 3.48567,0 5.38672,1.57155 5.38672,5.35156 0,1.2636 -0.31527,2.51992 -0.63476,3.78711 l -6.01563,29.32617 12.35157,0 5.38085,-26.17774 c 1.2636,-5.3631 4.74642,-12.2871 11.08594,-12.2871 3.48206,0 5.37696,1.88026 5.37695,5.35156 0,1.2636 -0.313,2.51992 -0.6289,3.78711 l -6.01953,29.32617 12.35547,0 6.01757,-29.64844 c 0.6282,-1.8918 0.93946,-4.09648 0.93946,-5.98828 0,-7.56722 -5.06452,-11.34766 -12.02149,-11.34766 -6.65901,0 -12.35972,3.77966 -15.84179,9.45508 -0.3159,-5.98413 -5.38785,-9.45508 -10.76172,-9.45508 z m -93.41992,0.002 c -17.72985,0 -29.13477,13.55731 -29.13477,31.53126 0,11.03493 9.17859,16.39453 19.3125,16.39453 17.41752,0 28.82617,-13.55875 28.82617,-31.2168 0,-11.35801 -9.18949,-16.70899 -19.0039,-16.70899 z m 172.90625,0 c -17.10523,0 -35.1543,12.61007 -35.1543,33.41993 0,8.51492 4.74524,14.50781 13.61914,14.50781 8.8703,0 14.24461,-5.67634 17.41797,-11.66406 -0.63899,4.09591 -1.59005,8.51105 -1.90235,10.71875 l 12.66407,0 c 0.31948,-3.46771 0.63175,-8.82712 2.21484,-16.08203 l 6.33594,-28.69532 c -3.15899,-1.26719 -9.81784,-2.20508 -15.19531,-2.20508 z m -458.86329,0.002 c -13.30367,0 -18.37304,11.65849 -18.37304,23.95703 0,11.67031 5.06937,23.02539 18.37304,23.02539 5.69695,0 10.76579,-2.8395 13.93555,-7.88672 l 0,5.04688 c 0,9.14312 -4.43805,15.13867 -14.56836,15.13867 -4.75285,0 -9.49809,-1.263 -13.61914,-3.4707 l -0.3164,9.45898 c 5.38463,1.8918 11.08655,2.52344 16.7871,2.52344 15.20265,0 24.06446,-7.88414 24.06446,-23.65039 l 0,-43.20703 -12.0293,0 0,7.57617 c -2.85745,-5.679 -7.92157,-8.51172 -14.25391,-8.51172 z m 342.64454,0.002 c -6.6626,0 -12.03645,4.71944 -14.88672,10.39844 l 1.89843,-9.14648 -11.70898,0 c -0.32308,3.14822 -1.27445,6.62049 -1.90625,10.09179 l -7.28711,35.63868 12.35547,0 4.11328,-20.18946 c 1.5795,-7.24773 6.0164,-15.44922 14.24414,-15.44922 1.27078,0 2.53945,0.3156 3.80664,0.63868 l 2.85352,-11.67774 c -1.26719,-0.30512 -2.53472,-0.30469 -3.48242,-0.30469 z m -259.67969,0.9336 14.5664,46.04492 15.20704,0 14.56054,-46.04492 -12.34961,0 -9.49804,36.58203 -9.50196,-36.58203 -12.98437,0 z m 437.64062,0 -9.49023,46.04492 12.33984,0 9.50586,-46.04492 -12.35547,0 z m -63.97265,7.57812 c 0.95846,0 2.22989,-0.002 3.48633,0.62305 l -2.52735,10.7207 c -2.21489,11.04212 -8.23046,19.55664 -14.56641,19.55664 -4.75283,0 -6.02148,-3.15244 -6.02148,-7.25195 0,-12.30571 9.19346,-23.64844 19.62891,-23.64844 z m -172.88867,0.002 c 5.69695,0 8.23242,4.09543 8.23242,9.76367 0,7.8903 -5.07261,21.13086 -14.24805,21.13086 -5.71131,0 -7.92188,-3.78029 -7.92187,-9.46289 0,-7.87594 4.74769,-21.43164 13.9375,-21.43164 z m -279.31055,0.62695 c 7.91544,0 9.82031,8.51441 9.82031,14.81445 0,6.3108 -2.22436,14.19531 -9.82031,14.19531 -7.91543,0 -9.49805,-7.88451 -9.49805,-14.19531 0,-6.62312 1.58262,-14.81445 9.49805,-14.81445 z" id="path552" style="fill:#b1c700;fill-opacity:1;fill-rule:nonzero;stroke:none"/>
		
		
  
	
	</g>
	
	


</svg>
