<?xml version="1.0" encoding="iso-8859-1"?>
<svg height="94.391731" id="svg2" inkscape:version="0.91 r13725" sodipodi:docname="Grohe.svg" version="1.1" viewBox="-30.700765 -23.59793275 184.20459 141.5875965" width="122.80306" xml:space="preserve" xmlns="http://www.w3.org/2000/svg" xmlns:cc="http://creativecommons.org/ns#" xmlns:dc="http://purl.org/dc/elements/1.1/" xmlns:inkscape="http://www.inkscape.org/namespaces/inkscape" xmlns:rdf="http://www.w3.org/1999/02/22-rdf-syntax-ns#" xmlns:sodipodi="http://sodipodi.sourceforge.net/DTD/sodipodi-0.dtd" xmlns:svg="http://www.w3.org/2000/svg">
	
	
	<sodipodi:namedview bordercolor="#666666" borderopacity="1" fit-margin-bottom="0" fit-margin-left="0" fit-margin-right="0" fit-margin-top="0" gridtolerance="10" guidetolerance="10" id="namedview16" inkscape:current-layer="svg2" inkscape:cx="51.413098" inkscape:cy="61.458232" inkscape:pageopacity="0" inkscape:pageshadow="2" inkscape:window-height="480" inkscape:window-maximized="0" inkscape:window-width="640" inkscape:window-x="0" inkscape:window-y="25" inkscape:zoom="2.3859934" objecttolerance="10" pagecolor="#ffffff" showgrid="false"/>
	
	
	<metadata id="metadata8">
		
		
		<rdf:RDF>
			
			
			<cc:Work rdf:about="">
				
				
				<dc:format>image/svg+xml</dc:format>
				
				
				<dc:type rdf:resource="http://purl.org/dc/dcmitype/StillImage"/>
				
				
				<dc:title/>
				
			
			</cc:Work>
			
		
		</rdf:RDF>
		
	
	</metadata>
	
	
	<defs id="defs6"/>
	
	
	<g id="g10" transform="matrix(1.3333333,0,0,-1.3333333,0,94.391731)">
		
		
		<g id="g12" transform="scale(0.1,0.1)">
			
			
			<path animation_id="0" d="M 921.023,0 0,0 l 0,707.938 921.023,0 0,-707.938" id="path14" inkscape:connector-curvature="0" style="fill:#152849;fill-opacity:1;fill-rule:nonzero;stroke:none"/>
			
			
			<path animation_id="1" d="m 795.684,317.305 c -11.52,-1.875 -17.954,-2.555 -24.274,-2.555 -15.133,0 -36.781,4.406 -59.472,12.09 l -34.008,11.527 c -18.008,6.094 -44.785,11.11 -59.496,11.11 -14.582,0 -41.457,-5.028 -59.391,-11.11 L 525.027,326.84 c -22.672,-7.684 -44.343,-12.09 -59.476,-12.09 -15.141,0 -36.813,4.406 -59.496,12.09 l -34.008,11.527 c -17.961,6.082 -44.817,11.11 -59.418,11.11 -14.668,-0.008 -41.5,-5.016 -59.469,-11.11 L 219.148,326.84 c -22.695,-7.684 -44.343,-12.09 -59.476,-12.09 -6.313,0 -12.746,0.68 -24.266,2.555 l 1.407,-2.367 c 3.269,-5.45 4.996,-7.809 9.402,-12.887 5.969,-0.821 8.355,-1 13.137,-1 15.175,0 39.964,4.75 59.796,11.429 l 34.012,11.489 c 23.078,7.785 44.238,12.094 59.469,12.094 12.867,0 35.355,-4.129 50.961,-9.36 l 42.465,-14.223 c 20.05,-6.699 44.633,-11.429 59.508,-11.429 14.882,0 39.449,4.738 59.464,11.429 l 42.473,14.223 c 15.602,5.231 38.113,9.36 50.973,9.36 15.254,-0.012 36.363,-4.309 59.457,-12.094 l 34.008,-11.489 c 19.82,-6.679 44.621,-11.429 59.777,-11.429 4.765,0 7.172,0.179 13.203,1 4.746,5.629 6.18,7.597 9.352,12.887 l 1.414,2.367 0,0" id="path16" inkscape:connector-curvature="0" style="fill:#ffffff;fill-opacity:1;fill-rule:nonzero;stroke:none"/>
			
			
			<path animation_id="2" d="m 744.961,269.457 -49.508,15.207 c -22.265,6.84 -30.875,9.238 -42.738,11.856 -12.563,2.781 -25.152,4.382 -34.262,4.382 -14.359,0 -41.754,-5.113 -59.41,-11.089 l -34.016,-11.528 c -23.011,-7.797 -44.203,-12.097 -59.66,-12.097 -15.531,0 -36.519,4.265 -59.648,12.097 l -34.008,11.528 c -17.613,5.968 -45.106,11.089 -59.484,11.089 -9.051,0 -21.754,-1.621 -34.231,-4.382 -11.734,-2.598 -21.039,-5.176 -42.742,-11.856 l -49.453,-15.207 c 5.285,-4.805 6.683,-5.918 12.605,-9.93 l 27.496,8.371 22.711,6.707 9.121,2.696 c 24.164,7.129 40.555,10.187 54.524,10.187 12.687,0 35.637,-4.203 50.945,-9.343 l 42.516,-14.27 c 19.91,-6.668 44.574,-11.379 59.656,-11.379 15.035,0 39.914,4.746 59.652,11.379 l 42.473,14.27 c 15.238,5.117 38.328,9.355 50.973,9.343 14.015,0 30.273,-3.035 54.496,-10.187 l 9.121,-2.696 22.719,-6.707 27.539,-8.371 c 5.894,4.047 7.297,5.145 12.613,9.93 l 0,0" id="path18" inkscape:connector-curvature="0" style="fill:#ffffff;fill-opacity:1;fill-rule:nonzero;stroke:none"/>
			
			
			<path animation_id="3" d="m 689.547,237.242 -3.117,1.133 -8.5,2.836 c -24.668,7.441 -44.41,11.148 -59.489,11.148 -12.625,0 -33.992,-3.632 -50.941,-8.648 l -8.457,-2.5 c -4.293,-1.418 -7.156,-2.356 -8.551,-2.836 l -8.5,-2.93 -8.457,-2.879 -8.508,-2.89 c -25.812,-8.352 -44.203,-12.09 -59.476,-12.09 -13.164,0 -32.676,3.602 -50.996,9.402 l -8.5,2.688 -8.496,2.89 -8.465,2.879 -8.504,2.93 -8.543,2.836 c -24.637,7.441 -44.43,11.148 -59.418,11.148 -12.707,-0.011 -34.043,-3.625 -51.024,-8.648 l -8.445,-2.5 c -6.027,-1.945 -7.269,-2.379 -11.629,-3.969 l 17.102,-8.875 3.832,1.164 c 19.937,6.16 37.109,9.371 50.207,9.371 11.016,0 28.242,-2.808 42.41,-6.902 l 8.508,-2.469 8.457,-2.738 8.543,-2.824 8.504,-2.938 8.465,-2.871 8.496,-2.84 c 25.527,-7.832 44.316,-11.437 59.508,-11.429 13.035,0.011 32.953,3.476 50.968,8.882 l 8.496,2.547 8.508,2.84 8.457,2.871 8.5,2.938 8.551,2.824 8.457,2.738 c 21.695,6.442 37.68,9.371 50.973,9.36 13.097,0 30.238,-3.207 50.16,-9.36 l 3.824,-1.164 17.09,8.875 0,0" id="path20" inkscape:connector-curvature="0" style="fill:#ffffff;fill-opacity:1;fill-rule:nonzero;stroke:none"/>
			
			
			<path animation_id="4" d="m 203.941,438.133 0,-37.231 c -8.496,-3.562 -16.988,-5.347 -25.449,-5.347 -21.812,0 -37.144,16.847 -37.144,40.816 0,25.82 18.324,43.82 44.621,43.82 14.707,0 29.265,-4.097 46.918,-13.199 l 0,24.75 c -22.555,9.219 -33.688,11.848 -50.352,11.848 -46.047,0 -75.457,-26.047 -75.457,-66.828 0,-38.797 28.535,-64.598 71.442,-64.598 19.125,0 41.808,6.145 58.339,15.809 l 0,50.16 -32.918,0 0,0" id="path22" inkscape:connector-curvature="0" style="fill:#ffffff;fill-opacity:1;fill-rule:nonzero;stroke:none"/>
			
			
			<path animation_id="5" d="m 264.164,499.961 0,-124.18 32.402,0 0,100.746 13.977,0 c 18.312,0 26.527,-5.843 26.527,-18.867 0,-13.308 -9.183,-20.906 -25.308,-20.906 l -7.117,0.187 -3.645,0 45.02,-61.16 41.421,0 -41.285,49.926 c 15.332,6.918 23.508,19.203 23.508,35.344 0,26.301 -17.047,38.91 -52.601,38.91 l -52.899,0 0,0" id="path24" inkscape:connector-curvature="0" style="fill:#ffffff;fill-opacity:1;fill-rule:nonzero;stroke:none"/>
			
			
			<path animation_id="6" d="m 565.707,499.961 0,-124.18 32.395,0 0,53.09 57.25,0 0,-53.09 32.402,0 0,124.18 -32.402,0 0,-45.91 -57.25,0 0,45.91 -32.395,0 0,0" id="path26" inkscape:connector-curvature="0" style="fill:#ffffff;fill-opacity:1;fill-rule:nonzero;stroke:none"/>
			
			
			<path animation_id="7" d="m 722.34,499.961 0,-124.18 93.187,0 0,24.324 -60.839,0 0,29.512 44.738,0 0,23.391 -44.738,0 0,22.621 53.75,0 0,24.332 -86.098,0 0,0" id="path28" inkscape:connector-curvature="0" style="fill:#ffffff;fill-opacity:1;fill-rule:nonzero;stroke:none"/>
			
			
			<path animation_id="8" d="m 424.004,437.84 c 0,25.64 17.34,43.515 42.219,43.515 24.89,0 42.23,-17.89 42.23,-43.523 0,-25.57 -17.394,-43.492 -42.23,-43.492 -24.828,0 -42.231,17.93 -42.219,43.5 z m -34.156,0 c 0,-38.582 32.324,-66.887 76.375,-66.887 44.07,0 76.39,28.313 76.39,66.887 0,38.668 -32.261,66.933 -76.39,66.933 -44.118,0 -76.375,-28.265 -76.375,-66.933 l 0,0" id="path30" inkscape:connector-curvature="0" style="fill:#ffffff;fill-opacity:1;fill-rule:evenodd;stroke:none"/>
			
		
		</g>
		
	
	</g>
	

</svg>
