<?xml version="1.0" encoding="iso-8859-1"?>
<!DOCTYPE svg
  PUBLIC '-//W3C//DTD SVG 1.0//EN'
  'http://www.w3.org/TR/2001/REC-SVG-20010904/DTD/svg10.dtd'>
<!-- Created with Inkscape (http://www.inkscape.org/) -->
<!-- DOCTYPE and viewBox fix by in[k]firmary (http://inkfirmary.48design.de) -->
<svg height="100%" id="svg2" version="1.0" viewBox="-253.25 -42.0 1519.5 252.0" width="100%" xml:space="preserve" xmlns="http://www.w3.org/2000/svg" xmlns:svg="http://www.w3.org/2000/svg">
	
	
	<defs id="defs5"/>
	
	
	<path animation_id="0" d="M 35.997779,6 L 35.997779,155.29832 L 69.410644,155.29832 L 69.410644,96.745975 L 151.82517,96.745975 L 151.82517,155.29832 L 185.23804,155.29832 L 185.23804,6 L 151.82517,6 L 151.82517,70.329201 L 69.410644,70.329201 L 69.410644,6 L 35.997779,6 z M 907.69328,20.195388 C 880.45486,20.195388 845.54129,31.554485 845.54129,64.436228 C 845.54127,89.980253 866.13615,99.451981 891.66904,103.01633 C 925.37012,107.72046 943.922,105.54491 943.922,121.5371 C 943.92202,133.50094 927.71383,138.1129 911.69934,138.1129 C 896.45683,138.11289 877.47365,130.54203 877.47365,117.79231 L 842.9867,117.79231 C 848.24542,158.28903 885.77514,162.81694 912.19284,162.81694 C 943.77036,162.81693 977.18968,151.84591 977.18968,116.57307 C 977.18968,85.594738 947.68932,81.288852 919.42117,77.238203 C 898.47124,74.249315 878.72192,74.52732 878.72192,61.30105 C 878.7219,49.115651 891.4433,44.23175 907.17075,44.23175 C 919.42164,44.23175 937.317,49.289139 940.81585,64.174963 L 975.99947,64.174963 C 973.12207,31.226336 937.3437,20.195388 907.69328,20.195388 z M 266.75266,20.224417 C 225.38086,20.224426 191.82772,48.843945 191.82772,92.827003 C 191.82772,134.54157 222.11376,162.875 267.39131,162.875 C 311.62936,162.87501 336.02847,129.02646 337.00386,117.56007 L 302.16856,117.56007 C 298.44953,128.67117 286.35751,139.70952 268.02995,139.70952 C 239.40787,139.70954 225.90826,117.08051 225.90826,97.036269 L 341.47439,96.978211 C 341.47439,95.274049 341.47439,93.719252 341.47439,91.549709 C 341.47439,47.566659 307.758,20.224417 266.75266,20.224417 z M 627.09488,20.224417 C 585.70079,20.224426 552.14092,48.843945 552.14092,92.827003 C 552.14092,134.54157 582.41442,162.875 627.7045,162.875 C 671.93,162.87501 696.36094,129.02646 697.34609,117.56007 L 662.48175,117.56007 C 658.76412,128.67117 646.67209,139.70952 628.34314,139.70952 C 599.74476,139.70954 586.22145,117.08051 586.22145,97.036269 L 701.43924,96.978211 C 701.43923,95.274049 701.46827,93.719252 701.46827,91.549709 C 701.46829,47.566659 668.07793,20.224417 627.09488,20.224417 z M 481.91874,20.57277 C 434.2278,20.572761 425.16715,41.4995 424.00504,57.614314 L 453.2667,57.614314 C 454.55002,43.447482 470.11654,39.20966 483.48633,39.20966 C 498.83755,39.20966 513.67693,42.12909 513.67693,58.165872 C 513.67693,65.447845 512.91636,73.725643 484.56042,73.725643 C 477.2659,73.725643 460.33153,73.783702 449.92832,73.783702 C 430.15023,73.783711 405.71651,85.651626 405.71651,114.86034 C 405.7165,135.99976 418.92791,159.15923 454.77623,159.15923 C 488.965,159.15923 503.79461,148.7112 514.05431,136.37114 C 514.28702,140.65446 514.05431,150.6211 514.05431,155.41444 L 545.319,155.41444 L 545.26094,124.81742 L 545.26094,70.706583 C 545.26094,46.345556 534.43505,20.57277 481.91874,20.57277 z M 739.40972,26.233508 C 726.82584,26.233498 728.18927,26.291566 707.44833,26.291566 L 707.44833,105.19353 C 707.4483,132.68553 726.75777,159.53661 762.19782,159.53661 C 785.34099,159.5366 800.58632,144.86585 806.96119,135.09384 C 806.9612,141.78919 806.84507,148.68426 806.84507,155.41444 L 838.77743,155.35638 L 838.7484,26.291566 L 807.13536,26.291566 L 807.10633,99.445711 C 807.10635,116.94419 794.37611,134.68743 770.87761,134.68743 C 751.68754,134.68743 739.40972,123.64719 739.40972,99.706977 L 739.40972,26.233508 z M 347.28028,26.436714 L 347.28028,155.41444 L 379.88032,155.41444 L 379.88032,91.317473 C 379.88032,72.269509 381.33458,57.730431 405.0198,57.730431 L 420.75375,57.730431 L 420.75375,26.494772 L 415.84777,26.494772 C 404.39253,26.494772 384.6019,37.143462 377.52894,56.424107 L 377.55797,26.436714 L 347.28028,26.436714 z M 266.75266,42.664161 C 296.15923,42.664161 305.82626,64.044679 305.82626,73.319231 L 227.50488,73.319231 C 227.50488,68.935565 237.35584,42.664161 266.75266,42.664161 z M 627.09488,42.664161 C 656.49031,42.664161 666.13945,64.044679 666.13945,73.319231 L 587.8471,73.319231 C 587.84709,68.935565 597.68692,42.664161 627.09488,42.664161 z M 513.93819,82.869911 L 513.93819,110.62204 C 513.93819,122.92865 496.48571,137.38717 468.12976,137.38717 C 450.73162,137.38715 439.1584,129.45191 439.1584,113.67013 C 439.15839,105.47963 444.20325,94.48168 464.50109,94.48168 C 468.17553,94.481699 476.57036,94.336533 482.32515,94.336533 C 501.70473,94.336552 510.60654,89.832793 513.93819,82.869911 z" id="Heraeus" style="fill: rgb(145, 146, 148); fill-opacity: 1; fill-rule: nonzero; stroke: none;"/>
	

</svg>
