<?xml version="1.0" encoding="iso-8859-1"?>
<!DOCTYPE svg
  PUBLIC '-//W3C//DTD SVG 1.1//EN'
  'http://www.w3.org/Graphics/SVG/1.1/DTD/svg11.dtd'>
<!-- Creator: CorelDRAW -->
<svg clip-rule="evenodd" fill-rule="evenodd" height="750px" image-rendering="optimizeQuality" shape-rendering="geometricPrecision" text-rendering="geometricPrecision" viewBox="-576.585 -188.1595 3459.51 1128.957" width="2299px" xml:space="preserve" xmlns="http://www.w3.org/2000/svg" xmlns:xlink="http://www.w3.org/1999/xlink">
	
	
 
	
	<g id="Ebene_x0020_1">
		
		
  
		
		<metadata id="CorelCorpID_0Corel-Layer"/>
		
		
  
		
		<polygon animation_id="1" fill="red" points="0,0 177.566,0 177.566,274.429 284.509,274.429 284.509,0 462.076,0 462.076,750.625 284.509,750.625 284.509,445.935 177.566,445.935 177.566,750.625 0,750.625 "/>
		
		
  
		
		<polygon animation_id="2" fill="red" points="534.718,88.7899 534.718,750.625 863.617,750.625 863.617,597.264 696.139,597.264 696.139,492.34 843.441,492.34 843.441,338.995 696.139,338.995 696.139,242.14 863.617,242.14 863.617,88.7899 "/>
		
		
  
		
		<polygon animation_id="3" fill="red" points="1977.44,88.7899 1977.44,750.625 2306.34,750.625 2306.34,597.264 2138.86,597.264 2138.86,492.34 2286.16,492.34 2286.16,338.995 2138.86,338.995 2138.86,242.14 2306.34,242.14 2306.34,88.7899 "/>
		
		
  
		
		<polygon animation_id="4" fill="red" points="1353.94,88.7899 1353.94,242.14 1450.79,242.14 1450.79,750.625 1612.22,750.625 1612.22,242.14 1709.07,242.14 1709.07,88.7899 "/>
		
		
  
		
		<polygon animation_id="5" fill="red" points="1753.47,88.7899 1753.47,750.625 1914.89,750.625 1914.89,88.7899 "/>
		
		
  
		
		<path animation_id="0" d="M1085.58 397.505c76.6667,0 96.8515,-40.3494 96.8515,-88.7757 0,-48.4334 -38.3375,-78.6987 -96.8515,-76.6786l0 165.454zm0 353.119l-169.498 0 0 -661.835 219.943 0c121.061,0 219.932,64.5673 221.952,203.795 2.02013,139.221 -78.694,175.543 -100.891,187.654l131.163 272.398 -193.71 0 -108.959 -276.437 0 274.424z" fill="red"/>
		
		
 
	
	</g>
	
	


</svg>
