<?xml version="1.0" encoding="iso-8859-1"?>
<!-- Created with Inkscape (http://www.inkscape.org/) -->
<svg height="26.030001" id="svg12828" inkscape:version="0.48.1 " sodipodi:docname="Neues Dokument 7" version="1.1" viewBox="-20.81999975 -6.50750025 124.9199985 39.0450015" width="83.279999" xmlns="http://www.w3.org/2000/svg" xmlns:cc="http://creativecommons.org/ns#" xmlns:dc="http://purl.org/dc/elements/1.1/" xmlns:inkscape="http://www.inkscape.org/namespaces/inkscape" xmlns:rdf="http://www.w3.org/1999/02/22-rdf-syntax-ns#" xmlns:sodipodi="http://sodipodi.sourceforge.net/DTD/sodipodi-0.dtd" xmlns:svg="http://www.w3.org/2000/svg">
	
	
  
	
	<defs id="defs12830">
		
		
    
		
		<clipPath clipPathUnits="userSpaceOnUse" id="clipPath6506">
			
			
      
			
			<path animation_id="0" d="m 0,0 1785.827,0 0,1190.551 L 0,1190.551 0,0 z" id="path6508" inkscape:connector-curvature="0"/>
			
			
    
		
		</clipPath>
		
		
  
	
	</defs>
	
	
  
	
	<sodipodi:namedview bordercolor="#666666" borderopacity="1.0" fit-margin-bottom="0" fit-margin-left="0" fit-margin-right="0" fit-margin-top="0" id="base" inkscape:current-layer="g6504" inkscape:cx="31.712697" inkscape:cy="3.6891644" inkscape:document-units="px" inkscape:pageopacity="0.0" inkscape:pageshadow="2" inkscape:window-height="678" inkscape:window-maximized="1" inkscape:window-width="1024" inkscape:window-x="-4" inkscape:window-y="-4" inkscape:zoom="7.9447266" pagecolor="#ffffff" showgrid="false"/>
	
	
  
	
	<metadata id="metadata12833">
		
		
    
		
		<rdf:RDF>
			
			
      
			
			<cc:Work rdf:about="">
				
				
        
				
				<dc:format>image/svg+xml</dc:format>
				
				
        
				
				<dc:type rdf:resource="http://purl.org/dc/dcmitype/StillImage"/>
				
				
        
				
				<dc:title/>
				
				
      
			
			</cc:Work>
			
			
    
		
		</rdf:RDF>
		
		
  
	
	</metadata>
	
	
  
	
	<g id="layer1" inkscape:groupmode="layer" inkscape:label="Ebene 1" transform="translate(-310.43164,-513.00323)">
		
		
    
		
		<g id="g6502" transform="matrix(1.25,0,0,-1.25,-946.05148,575.67623)">
			
			
      
			
			<g clip-path="url(#clipPath6506)" id="g6504">
				
				
        
				
				<g id="g6514" transform="translate(1014.8868,45.3326)">
					
					
          
					
					<path animation_id="1" d="m 0,0 c -3.491,0 -6.321,-2.83 -6.321,-6.321 0,-3.49 2.83,-6.321 6.321,-6.321 3.491,0 6.321,2.831 6.321,6.321 C 6.321,-2.83 3.491,0 0,0" id="path6516" inkscape:connector-curvature="0" style="fill:#cad306;fill-opacity:1;fill-rule:nonzero;stroke:none"/>
					
					
        
				
				</g>
				
				
        
				
				<g id="g6518" transform="translate(1014.8868,45.3326)">
					
					
          
					
					<path animation_id="2" d="m 0,0 c -3.491,0 -6.321,-2.83 -6.321,-6.321 0,-3.49 2.83,-6.321 6.321,-6.321 3.491,0 6.321,2.831 6.321,6.321 C 6.321,-2.83 3.491,0 0,0 z" id="path6520" inkscape:connector-curvature="0" style="fill:none;stroke:#cad306;stroke-width:0.065;stroke-linecap:butt;stroke-linejoin:miter;stroke-miterlimit:3.86400008;stroke-opacity:1;stroke-dasharray:none"/>
					
					
        
				
				</g>
				
				
        
				
				<g id="g6522" transform="translate(1045.4436,44.4116)">
					
					
          
					
					<path animation_id="3" d="M 0,0 0.154,-0.022 C 0.469,1.044 1.435,1.654 2.849,1.654 4.636,1.654 5.7,0.71 5.7,-0.797 l 0,-4.565 1.194,0 0,-1.35 -4.573,0 0,1.35 1.161,0 0,3.682 c 0,1.29 -0.469,1.913 -1.533,1.913 -1.29,0 -1.967,-0.902 -1.967,-2.484 l 0,-3.111 1.161,0 0,-1.35 -4.59,0 0,1.35 1.213,0 0,8.94 -1.213,0 0,1.35 L 0,4.928 0,0 z" id="path6524" inkscape:connector-curvature="0" style="fill:#2d2c2e;fill-opacity:1;fill-rule:nonzero;stroke:none"/>
					
					
        
				
				</g>
				
				
        
				
				<g id="g6526" transform="translate(1056.5127,40.0121)">
					
					
          
					
					<path animation_id="4" d="m 0,0 c 0,-0.529 0.013,-0.687 0.178,-0.852 0.139,-0.174 0.368,-0.265 0.593,-0.265 0.348,0 0.62,0.214 0.716,0.541 0.052,0.176 0.069,0.368 0.087,0.914 l 1.283,0 0,-0.286 c 0,-1.795 -0.78,-2.59 -2.537,-2.59 -1.72,0 -2.538,0.846 -2.538,2.677 l 0,4.27 -1.368,0 0,1.35 1.368,0 0,1.703 2.218,0.76 0,-2.463 2.373,0 0,-1.35 L 0,4.409 0,0 z" id="path6528" inkscape:connector-curvature="0" style="fill:#2d2c2e;fill-opacity:1;fill-rule:nonzero;stroke:none"/>
					
					
        
				
				</g>
				
				
        
				
				<g id="g6530" transform="translate(1063.9751,41.796)">
					
					
          
					
					<path animation_id="5" d="m 0,0 c 0,-1.824 0.815,-2.901 2.279,-2.901 1.43,0 2.191,1.044 2.191,2.867 C 4.47,1.787 3.709,2.85 2.33,2.85 0.869,2.85 0,1.76 0,0 M 0.192,2.269 0.347,2.254 c 0.134,0.64 0.315,0.919 0.804,1.324 0.555,0.47 1.263,0.692 2.185,0.692 2.372,0 3.698,-1.53 3.698,-4.27 0,-2.79 -1.36,-4.321 -3.768,-4.321 -1.413,0 -2.349,0.559 -2.785,1.665 l -0.151,-0.028 0,-3.075 1.352,0 0,-1.351 -4.781,0 0,1.351 1.212,0 0,8.384 -1.212,0 0,1.35 3.291,0 0,-1.706 z" id="path6532" inkscape:connector-curvature="0" style="fill:#2d2c2e;fill-opacity:1;fill-rule:nonzero;stroke:none"/>
					
					
        
				
				</g>
				
				
        
				
				<g id="g6534" transform="translate(1018.8736,40.412)">
					
					
          
					
					<path animation_id="6" d="m 0,0 c 0,1.131 -0.911,2.042 -2.042,2.042 -1.13,0 -2.041,-0.911 -2.041,-2.042 0,-1.13 0.911,-2.041 2.041,-2.041 C -0.911,-2.041 0,-1.13 0,0" id="path6536" inkscape:connector-curvature="0" style="fill:#2d2c2e;fill-opacity:1;fill-rule:nonzero;stroke:none"/>
					
					
        
				
				</g>
				
				
        
				
				<g id="g6538" transform="translate(1018.8736,40.412)">
					
					
          
					
					<path animation_id="7" d="m 0,0 c 0,1.131 -0.911,2.042 -2.042,2.042 -1.13,0 -2.041,-0.911 -2.041,-2.042 0,-1.13 0.911,-2.041 2.041,-2.041 C -0.911,-2.041 0,-1.13 0,0 z" id="path6540" inkscape:connector-curvature="0" style="fill:none;stroke:#2d2c2e;stroke-width:0.03;stroke-linecap:butt;stroke-linejoin:miter;stroke-miterlimit:3.86400008;stroke-opacity:1;stroke-dasharray:none"/>
					
					
        
				
				</g>
				
				
        
				
				<g id="g6542" transform="translate(1030.9385,40.412)">
					
					
          
					
					<path animation_id="8" d="m 0,0 c 0,1.131 -0.911,2.042 -2.042,2.042 -1.13,0 -2.042,-0.911 -2.042,-2.042 0,-1.13 0.912,-2.041 2.042,-2.041 C -0.911,-2.041 0,-1.13 0,0" id="path6544" inkscape:connector-curvature="0" style="fill:#2d2c2e;fill-opacity:1;fill-rule:nonzero;stroke:none"/>
					
					
        
				
				</g>
				
				
        
				
				<g id="g6546" transform="translate(1038.7848,40.412)">
					
					
          
					
					<path animation_id="9" d="m 0,0 c 0,1.131 -0.911,2.042 -2.042,2.042 -1.13,0 -2.042,-0.911 -2.042,-2.042 0,-1.13 0.912,-2.041 2.042,-2.041 C -0.911,-2.041 0,-1.13 0,0" id="path6548" inkscape:connector-curvature="0" style="fill:#2d2c2e;fill-opacity:1;fill-rule:nonzero;stroke:none"/>
					
					
        
				
				</g>
				
				
        
				
				<g id="g6550" transform="translate(1014.8868,47.9112)">
					
					
          
					
					<path animation_id="10" d="m 0,0 c 4.914,0 8.899,-3.985 8.899,-8.9 0,-4.914 -3.985,-8.898 -8.899,-8.898 -4.915,0 -8.899,3.984 -8.899,8.898 0,4.915 3.984,8.9 8.899,8.9 m 0,-2.579 c -3.491,0 -6.321,-2.829 -6.321,-6.321 0,-3.49 2.83,-6.32 6.321,-6.32 3.491,0 6.321,2.83 6.321,6.32 0,3.492 -2.83,6.321 -6.321,6.321" id="path6552" inkscape:connector-curvature="0" style="fill:#2d2c2e;fill-opacity:1;fill-rule:nonzero;stroke:none"/>
					
					
        
				
				</g>
				
				
      
			
			</g>
			
			
    
		
		</g>
		
		
  
	
	</g>
	
	


</svg>
