<?xml version="1.0" encoding="iso-8859-1"?>
<!-- Created with Inkscape (http://www.inkscape.org/) -->
<!-- http://www.isgus.de/cms/upload/downloads/daten/IT400FP.pdf -->
<svg height="109.126" version="1.0" viewBox="-75.0 -27.2815 450.0 163.68900000000002" width="300" xmlns="http://www.w3.org/2000/svg" xmlns:svg="http://www.w3.org/2000/svg">
	
	
  
	
	<path animation_id="0" d="M 58.9712,64.4609 L 0.0643704,64.4609 C -0.330255,55.8574 1.07866,47.1789 4.22914,39.1527 C 7.3731,31.0873 12.2521,23.7101 18.4389,17.6374 C 24.6225,11.5615 32.1073,6.8227 40.2053,3.82224 C 48.2707,0.821783 56.9851,-0.443628 65.5559,0.136896 L 65.5559,16.0459 L 58.9712,16.0459 L 58.9712,64.4609" style="fill:#f17a2c;fill-opacity:1;fill-rule:evenodd;stroke:none"/>
	
	
  
	
	<path animation_id="1" d="M 250.906,20.8401 L 250.906,34.091 L 250.704,34.1921 C 248.134,32.1309 245.46,30.6307 243.467,30.0143 C 242.495,29.6914 241.611,29.4762 240.815,29.4044 C 240.056,29.3327 239.459,29.4599 238.881,29.6066 C 238.34,29.7501 237.851,29.9262 237.453,30.2198 C 237.058,30.5068 236.788,30.8427 236.537,31.2373 C 236.321,31.6352 236.201,31.9874 236.129,32.4603 C 236.054,32.9658 236.086,33.5496 236.23,34.091 C 236.517,35.2488 237.525,36.449 238.575,37.3524 C 239.12,37.8253 239.553,38.2427 240.206,38.6765 C 240.894,39.1494 241.804,39.7104 242.958,40.6138 C 244.152,41.5172 245.642,42.8184 246.829,43.9762 C 248.023,45.134 248.822,46.1548 249.582,47.2376 C 250.345,48.3236 251.014,49.4847 251.519,50.6033 C 252.53,52.9189 252.98,55.228 253.046,57.9414 C 253.088,60.6484 252.654,63.4368 251.826,65.7883 C 251.392,66.9819 250.874,68.1397 250.296,69.1507 C 249.68,70.1618 248.953,71.0358 248.154,71.9033 C 247.397,72.7709 246.582,73.6286 245.606,74.3494 C 244.664,75.0375 243.571,75.6376 242.446,76.1823 C 241.288,76.6878 240.118,77.0791 238.78,77.4053 C 237.437,77.7314 235.946,78.0086 234.498,78.1195 L 234.498,85.2521 C 243.069,85.8327 251.813,84.4857 259.875,81.482 C 267.976,78.4783 275.399,73.8015 281.583,67.7255 C 287.769,61.6529 292.707,54.2463 295.854,46.2201 C 299.002,38.1906 300.329,29.4534 299.931,20.8401 L 250.906,20.8401 z M 234.498,56.614 L 234.498,60.182 C 235.075,58.9524 235.043,57.6609 234.498,56.614 z" style="fill:#e90f74;fill-opacity:1;fill-rule:evenodd;stroke:none"/>
	
	
  
	
	<path animation_id="2" d="M 100.681,14.8294 C 99.2328,14.9011 97.8044,15.149 96.4998,15.4392 C 95.1985,15.6936 94.0179,16.0556 92.9351,16.5612 C 91.81,17.0341 90.7468,17.6081 89.7749,18.2929 C 88.8291,18.9811 87.9876,19.7703 87.2277,20.6379 C 86.4352,21.4695 85.7667,22.4121 85.1894,23.3905 C 84.573,24.3656 84.0218,25.4256 83.6598,26.5475 C 83.2619,27.7085 82.9912,28.8859 82.8445,30.1154 C 82.701,31.3449 82.6683,32.5908 82.7434,33.7844 C 82.851,36.1359 83.5196,38.4613 84.7817,40.9203 C 85.3981,42.1107 86.1482,43.2229 87.1266,44.485 C 88.1018,45.7537 89.4422,47.1104 90.4891,48.1573 C 91.5752,49.2075 92.4133,49.9837 93.2384,50.7044 C 94.0701,51.3926 94.8528,52.0188 95.6845,52.7428 C 96.4803,53.4636 97.3445,54.2235 97.9283,54.9834 C 98.5382,55.7041 98.8676,56.4053 99.0502,57.0217 C 99.2655,57.599 99.2916,58.1436 99.2524,58.6524 C 99.1839,59.6275 98.7599,60.5799 97.9283,61.3039 C 97.5695,61.6659 97.1456,62.0051 96.6042,62.2203 C 96.0954,62.403 95.4529,62.5269 94.768,62.5269 C 94.0766,62.5269 93.2613,62.4747 92.322,62.2203 C 91.3827,62.0051 90.2934,61.5485 89.0606,60.8962 C 87.7985,60.2472 86.3961,59.3666 85.496,58.7568 C 84.5958,58.1404 84.224,57.8892 83.8653,57.6348 C 83.5033,57.3478 83.1054,57.0021 82.7434,56.7151 L 82.5379,56.8195 L 82.5379,73.534 C 85.5742,75.4876 88.6236,76.8574 91.4056,77.5096 C 95.7106,78.625 100.482,78.2598 104.35,77.0987 C 105.651,76.7008 106.832,76.1855 107.915,75.5724 C 109.001,74.9919 110.074,74.3265 110.974,73.534 C 111.92,72.7383 112.797,71.8609 113.521,70.8825 C 114.281,69.9433 114.91,68.8409 115.458,67.7255 C 115.996,66.6036 116.355,65.4589 116.681,64.1576 C 117.004,62.8563 117.281,61.3854 117.395,59.9765 C 117.536,57.1913 117.343,54.4876 116.479,52.0286 C 115.608,49.713 114.46,47.5507 112.402,45.1992 C 111.355,44.0773 110.087,42.8413 109.037,41.9379 C 107.99,41.0312 107.184,40.48 106.388,39.8995 C 104.797,38.7809 102.925,37.5318 101.803,36.2305 C 100.756,35.0368 100.407,33.9149 100.475,32.868 C 100.515,32.3592 100.603,31.8733 100.782,31.4395 C 101.004,31.0058 101.301,30.6111 101.698,30.3209 C 102.06,29.9947 102.484,29.7893 103.023,29.6066 C 103.57,29.4631 104.308,29.3294 105.064,29.4044 C 105.863,29.4403 106.698,29.5871 107.712,29.9132 C 108.691,30.2393 109.806,30.7514 111.075,31.4395 C 112.34,32.1668 113.674,33.1061 115.05,34.1921 L 115.253,34.091 L 115.253,18.394 C 111.708,16.6949 108.032,15.573 104.96,15.1327 C 103.437,14.9174 102.09,14.7935 100.681,14.8294 z M 143.18,14.8294 C 141.083,14.9011 139.145,15.1359 137.371,15.6447 C 135.565,16.1502 133.966,16.8808 132.479,17.7842 C 130.999,18.6876 129.629,19.8095 128.403,21.1466 C 127.173,22.4871 126.054,24.0917 125.037,25.9376 C 124.026,27.7835 123.175,29.9654 122.49,32.4603 C 121.805,34.9553 121.351,37.8416 121.064,41.0214 C 120.81,44.2404 120.748,47.7562 120.96,51.0077 C 121.185,54.2659 121.632,57.2043 122.287,59.7743 C 122.933,62.3769 123.758,64.5816 124.734,66.4993 C 125.712,68.4137 126.762,70.0215 127.995,71.3913 C 129.189,72.8035 130.522,74.02 131.97,74.9592 C 133.412,75.9344 135.026,76.6976 136.758,77.2031 C 138.496,77.7477 140.375,78.0086 142.364,78.1195 C 144.351,78.2271 146.435,78.1391 148.277,77.8129 C 150.123,77.4868 151.79,77.0074 153.27,76.2834 C 154.758,75.5626 156.052,74.6527 157.246,73.534 C 158.44,72.4121 159.529,71.1206 160.507,69.4573 C 161.479,67.8299 162.366,65.8241 163.055,63.5445 C 163.779,61.2321 164.356,58.5415 164.685,55.2899 C 164.972,51.9992 164.992,48.0823 164.989,45.9135 C 164.989,43.7088 165.024,43.2261 164.989,42.7532 C 164.949,42.2836 164.92,41.8987 164.887,41.4291 L 143.281,41.4291 L 143.281,53.8647 L 148.277,53.8647 C 148.277,55.0942 148.219,56.4836 148.072,57.5305 C 147.967,58.3263 147.844,58.9231 147.664,59.4677 C 147.449,60.0091 147.204,60.5342 146.95,60.8962 C 146.696,61.2582 146.461,61.493 146.135,61.7116 C 144.941,62.6117 143.721,62.6019 142.671,62.4225 C 141.95,62.2399 141.324,62.0279 140.633,61.3039 C 140.346,60.9778 139.967,60.482 139.713,59.9765 C 139.459,59.471 139.318,58.9003 139.103,58.1436 C 138.885,57.3837 138.637,56.4347 138.493,54.9834 C 138.307,53.5386 138.157,51.5981 138.082,49.1749 C 138.05,46.7517 138.112,43.8425 138.187,41.5302 C 138.255,39.1755 138.317,37.4013 138.493,36.0283 C 138.676,34.6911 138.888,33.8334 139.103,33.0702 C 139.325,32.3103 139.563,31.707 139.817,31.2373 C 140.072,30.7285 140.447,30.4383 140.734,30.1154 C 141.38,29.4631 142.081,29.1729 142.873,28.9935 C 143.274,28.9217 143.728,28.8565 144.201,28.8924 C 145.355,29 146.369,29.3099 147.563,30.8296 C 147.886,31.2634 148.258,31.7754 148.581,32.4603 C 148.91,33.1485 149.181,34.0388 149.396,34.9064 L 164.278,29.8088 C 163.625,27.7118 162.706,25.6995 161.727,24.0003 C 160.71,22.337 159.66,20.9444 158.466,19.8225 C 157.24,18.7006 155.974,17.7287 154.494,16.9688 C 153.006,16.2448 151.346,15.7002 149.396,15.3381 C 147.478,14.9761 145.274,14.7576 143.18,14.8294 z M 236.23,14.8294 C 234.821,14.9011 233.419,15.149 232.153,15.4392 C 230.852,15.6936 229.71,16.0556 228.585,16.5612 C 227.467,17.0341 226.368,17.6081 225.428,18.2929 C 224.45,18.9811 223.576,19.7703 222.777,20.6379 C 221.984,21.4695 221.316,22.4121 220.738,23.3905 C 220.161,24.3656 219.714,25.4256 219.313,26.5475 C 218.951,27.7085 218.645,28.8859 218.498,30.1154 C 218.322,31.3449 218.322,32.5908 218.397,33.7844 C 218.537,36.1359 219.17,38.4613 220.432,40.9203 C 221.045,42.1107 221.802,43.2229 222.777,44.485 C 223.794,45.7537 225.057,47.1104 226.139,48.1573 C 227.189,49.2075 228.06,49.9837 228.892,50.7044 C 229.724,51.3926 230.545,52.0188 231.338,52.7428 C 232.17,53.4636 232.903,54.2235 233.477,54.9834 C 234.055,55.7041 234.485,56.4053 234.704,57.0217 C 234.919,57.599 234.938,58.1436 234.906,58.6524 C 234.831,59.6275 234.413,60.5799 233.582,61.3039 C 233.184,61.6659 232.763,62.0051 232.258,62.2203 C 231.716,62.403 231.044,62.5269 230.32,62.5269 C 229.635,62.5269 228.911,62.4747 227.975,62.2203 C 227.033,62.0051 225.983,61.5485 224.714,60.8962 C 223.452,60.2472 222.05,59.3666 221.146,58.7568 C 220.239,58.1404 219.877,57.8892 219.515,57.6348 C 219.121,57.3478 218.759,57.0021 218.397,56.7151 L 218.191,56.8195 L 218.191,73.534 C 221.195,75.4876 224.209,76.8574 226.955,77.5096 C 231.26,78.625 236.135,78.2598 240,77.0987 C 241.305,76.7008 242.482,76.1855 243.568,75.5724 C 244.69,74.9919 245.688,74.3265 246.627,73.534 C 247.566,72.7383 248.414,71.8609 249.174,70.8825 C 249.898,69.9433 250.463,68.8409 251.01,67.7255 C 251.549,66.6036 252.012,65.4589 252.335,64.1576 C 252.661,62.8563 252.869,61.3854 252.944,59.9765 C 253.124,57.1913 252.961,54.4876 252.129,52.0286 C 251.258,49.713 250.117,47.5507 248.052,45.1992 C 247.041,44.0773 245.639,42.8413 244.589,41.9379 C 243.575,41.0312 242.834,40.48 242.042,39.8995 C 240.411,38.7809 238.578,37.5318 237.453,36.2305 C 236.406,35.0368 235.989,33.9149 236.028,32.868 C 236.064,32.3592 236.22,31.8733 236.435,31.4395 C 236.654,31.0058 236.889,30.6111 237.251,30.3209 C 237.645,29.9947 238.099,29.7893 238.676,29.6066 C 239.217,29.4631 239.919,29.3294 240.714,29.4044 C 241.474,29.4403 242.286,29.5871 243.261,29.9132 C 244.276,30.2393 245.46,30.7514 246.728,31.4395 C 247.955,32.1668 249.363,33.1061 250.704,34.1921 L 250.906,34.091 L 250.906,18.394 C 247.328,16.6949 243.692,15.573 240.613,15.1327 C 239.097,14.9174 237.639,14.7935 236.23,14.8294 z M 58.9941,16.0524 L 58.9941,76.9976 L 76.1163,76.9976 L 76.1163,16.0524 L 58.9941,16.0524 z M 171.208,16.0524 L 171.208,55.1888 C 171.208,58.1567 171.518,61.1897 172.023,63.6488 C 172.565,66.1438 173.256,68.0354 174.163,69.6595 C 175.063,71.3228 176.159,72.7187 177.424,73.8373 C 178.693,74.9592 180.203,75.8659 182.01,76.5899 C 183.781,77.314 185.835,77.7673 188.33,78.0184 C 190.793,78.2728 193.715,78.3087 196.177,78.0184 C 198.672,77.7673 200.789,77.314 202.599,76.5899 C 204.373,75.8659 205.821,74.8581 207.083,73.7362 C 208.384,72.5784 209.441,71.2869 210.344,69.6595 C 211.245,68.0321 212.076,66.1079 212.585,63.6488 C 213.094,61.1897 213.299,58.1567 213.299,55.1888 L 213.299,16.0524 L 196.076,16.0524 L 196.076,56.8195 C 196.076,57.4718 196.047,58.1077 195.972,58.6524 C 195.864,59.1938 195.711,59.6504 195.567,59.9765 C 195.424,60.3385 195.27,60.6418 195.055,60.8962 C 194.869,61.1506 194.599,61.2615 194.341,61.405 C 194.054,61.5876 193.786,61.705 193.424,61.8127 C 193.062,61.8844 192.707,61.9138 192.306,61.9138 C 191.513,61.9138 190.747,61.767 190.163,61.405 C 189.909,61.2615 189.667,61.1506 189.449,60.8962 C 189.234,60.6418 189.087,60.3353 188.94,59.9765 C 188.797,59.6178 188.604,59.1938 188.532,58.6524 C 188.425,58.1077 188.431,57.4718 188.431,56.8195 L 188.431,16.0524 L 171.208,16.0524 z M 222.473,93.8165 C 220.122,93.8132 217.986,95.1243 217.986,97.5866 C 217.986,102.071 224.613,101.546 224.613,105.127 C 224.613,106.536 223.657,107.573 221.961,107.573 C 220.37,107.573 218.974,106.872 218.498,106.657 C 218.397,106.621 218.299,106.555 218.191,106.555 C 218.084,106.555 218.022,106.679 217.986,106.862 L 217.683,107.573 C 217.683,107.641 217.581,107.707 217.581,107.778 C 217.581,107.889 217.676,108.01 217.784,108.082 C 218.11,108.228 219.763,109.103 221.86,109.103 C 224.646,109.103 226.651,107.527 226.651,104.925 C 226.651,103.477 226.107,102.502 224.92,101.559 C 223.077,100.15 220.027,99.7261 220.027,97.4823 C 220.027,96.0375 221.097,95.3428 222.473,95.3428 C 223.739,95.3428 224.89,95.8418 225.324,96.057 C 225.435,96.1288 225.559,96.1582 225.631,96.1582 C 225.813,96.1582 225.865,96.0994 225.937,95.9559 L 226.244,95.2417 C 226.276,95.17 226.345,95.0101 226.345,94.9351 C 226.345,94.8634 226.244,94.8079 226.139,94.7329 C 225.81,94.5894 224.313,93.8165 222.473,93.8165 z M 234.397,93.8165 C 230.382,93.8132 228.892,97.2703 228.892,101.357 C 228.892,105.802 230.278,109.103 234.293,109.103 C 235.705,109.103 237.124,108.757 237.965,108.287 C 238.285,108.144 238.369,107.951 238.369,107.371 L 238.369,101.559 C 238.369,101.415 238.249,101.357 238.066,101.357 L 234.599,101.357 C 234.423,101.357 234.397,101.415 234.397,101.559 L 234.397,102.479 C 234.397,102.658 234.423,102.785 234.599,102.785 L 236.435,102.785 L 236.435,107.266 C 235.998,107.485 235.405,107.677 234.397,107.677 C 231.902,107.674 230.93,105.029 230.93,101.05 C 230.93,97.3975 231.902,95.2417 234.397,95.2417 C 236.207,95.2417 237.13,96.2625 237.352,96.2625 C 237.459,96.2593 237.59,96.1353 237.658,95.9559 L 238.066,95.3428 C 238.141,95.1993 238.167,95.2091 238.167,95.1406 C 238.167,94.8503 236.458,93.8165 234.397,93.8165 z M 82.2346,94.1198 C 82.1824,94.1622 82.2346,94.2339 82.2346,94.3253 L 82.2346,104.82 C 82.2346,107.465 83.4837,109.103 86.9212,109.103 C 90.3913,109.103 91.9143,107.426 91.9143,104.82 L 91.9143,94.3253 C 91.9143,94.1459 91.7904,94.1198 91.6078,94.1198 L 90.2836,94.1198 C 90.101,94.1198 90.0814,94.1459 90.0814,94.3253 L 90.0814,104.82 C 90.0814,106.774 88.9791,107.677 86.9212,107.677 C 84.7882,107.674 84.0675,106.595 84.0675,104.82 L 84.0675,94.3253 C 84.0675,94.1459 83.9435,94.1198 83.7609,94.1198 L 82.4368,94.1198 C 82.3487,94.1198 82.2835,94.0807 82.2346,94.1198 z M 95.8899,94.1198 C 95.8508,94.1655 95.7888,94.2502 95.7888,94.3253 L 95.7888,108.594 C 95.7888,108.773 95.9095,108.796 96.0954,108.796 L 97.3152,108.796 C 97.4978,108.796 97.5206,108.773 97.5206,108.594 L 97.5206,98.0954 C 97.5206,97.6225 97.5011,96.9898 97.3152,96.1582 C 97.4587,96.7485 97.687,97.4399 97.9283,97.9943 L 103.228,108.594 C 103.3,108.737 103.352,108.796 103.535,108.796 L 104.859,108.796 C 105.041,108.796 105.064,108.737 105.064,108.594 L 105.064,94.3253 C 105.061,94.1459 105.041,94.1198 104.859,94.1198 L 103.636,94.1198 C 103.456,94.1198 103.329,94.1459 103.329,94.3253 L 103.329,104.618 C 103.329,105.016 103.561,105.473 103.636,105.942 L 103.535,105.942 C 103.355,105.293 103.31,104.853 103.023,104.312 L 97.9283,94.2209 C 97.8924,94.1198 97.8011,94.1198 97.6217,94.1198 L 96.0954,94.1198 C 96.0041,94.1198 95.9291,94.0741 95.8899,94.1198 z M 107.712,94.1198 C 107.663,94.1687 107.611,94.2339 107.611,94.3253 L 107.611,95.3428 C 107.611,95.5254 107.735,95.5483 107.915,95.5483 L 111.28,95.5483 L 111.28,108.594 C 111.28,108.773 111.404,108.796 111.587,108.796 L 112.911,108.796 C 113.094,108.796 113.113,108.773 113.113,108.594 L 113.113,95.5483 L 116.375,95.5483 C 116.518,95.5483 116.609,95.5254 116.681,95.3428 L 117.089,94.5275 C 117.089,94.4198 117.089,94.2959 117.089,94.2209 C 117.089,94.0807 117.03,94.1198 116.883,94.1198 L 108.019,94.1198 C 107.892,94.1198 107.761,94.0709 107.712,94.1198 z M 119.535,94.1198 C 119.486,94.1622 119.535,94.2339 119.535,94.3253 L 119.535,108.594 C 119.535,108.773 119.662,108.796 119.841,108.796 L 126.772,108.796 C 127.026,108.796 127.078,108.747 127.078,108.493 L 127.078,107.573 C 127.075,107.426 126.954,107.266 126.772,107.266 L 121.371,107.266 L 121.371,101.866 L 125.852,101.866 C 126.11,101.866 126.159,101.781 126.159,101.559 L 126.159,100.643 C 126.159,100.388 126.11,100.339 125.852,100.339 L 121.371,100.339 L 121.371,95.5483 L 126.364,95.5483 C 126.579,95.5483 126.703,95.5613 126.772,95.3428 L 127.078,94.4264 C 127.114,94.3546 127.18,94.2959 127.18,94.2209 C 127.18,94.1915 127.127,94.1198 126.873,94.1198 L 119.841,94.1198 C 119.75,94.1198 119.584,94.0807 119.535,94.1198 z M 130.033,94.1198 C 129.981,94.1622 130.033,94.2339 130.033,94.3253 L 130.033,108.594 C 130.033,108.773 130.059,108.796 130.235,108.796 L 131.56,108.796 C 131.736,108.796 131.866,108.773 131.866,108.594 L 131.866,102.071 L 133.497,102.071 L 137.267,109.001 C 137.306,109.145 137.427,109.142 137.574,109.103 L 139.002,108.897 C 139.149,108.897 139.204,108.77 139.204,108.695 C 139.243,108.626 139.24,108.561 139.204,108.493 L 135.434,101.97 C 136.66,101.572 138.389,100.378 138.389,97.9943 C 138.389,94.1948 135.542,94.1198 133.803,94.1198 L 130.235,94.1198 C 130.147,94.1198 130.082,94.0807 130.033,94.1198 z M 141.957,94.1198 C 141.908,94.1655 141.856,94.2502 141.856,94.3253 L 141.856,108.594 C 141.856,108.773 141.98,108.796 142.159,108.796 L 143.281,108.796 C 143.457,108.796 143.587,108.773 143.587,108.594 L 143.587,98.0954 C 143.587,97.6225 143.568,96.9898 143.385,96.1582 C 143.503,96.7485 143.721,97.4399 143.995,97.9943 L 149.194,108.594 C 149.308,108.737 149.416,108.796 149.601,108.796 L 150.824,108.796 C 151.004,108.796 151.128,108.737 151.128,108.594 L 151.128,94.3253 C 151.131,94.1459 151.004,94.1198 150.824,94.1198 L 149.703,94.1198 C 149.52,94.1198 149.396,94.1459 149.396,94.3253 L 149.396,104.618 C 149.396,105.016 149.53,105.473 149.601,105.942 C 149.38,105.293 149.282,104.853 148.988,104.312 L 143.995,94.2209 C 143.923,94.1198 143.871,94.1198 143.689,94.1198 L 142.159,94.1198 C 142.071,94.1198 142.006,94.0741 141.957,94.1198 z M 155.41,94.1198 C 155.361,94.1622 155.309,94.2339 155.309,94.3253 L 155.309,108.594 C 155.309,108.773 155.43,108.796 155.615,108.796 L 162.543,108.796 C 162.797,108.796 162.849,108.747 162.849,108.493 L 162.849,107.573 C 162.849,107.426 162.826,107.266 162.647,107.266 L 157.142,107.266 L 157.142,101.866 L 161.626,101.866 C 161.877,101.866 161.933,101.781 161.933,101.559 L 161.933,100.643 C 161.933,100.388 161.877,100.339 161.626,100.339 L 157.142,100.339 L 157.142,95.5483 L 162.239,95.5483 C 162.461,95.5483 162.474,95.5613 162.543,95.3428 L 162.849,94.4264 C 162.882,94.3546 162.953,94.2959 162.953,94.2209 C 162.953,94.1915 162.895,94.1198 162.647,94.1198 L 155.615,94.1198 C 155.524,94.1198 155.459,94.0807 155.41,94.1198 z M 166.009,94.1198 C 165.96,94.1622 166.009,94.2339 166.009,94.3253 L 166.009,108.594 C 166.009,108.773 166.032,108.796 166.215,108.796 L 167.539,108.796 C 167.722,108.796 167.846,108.773 167.846,108.594 L 167.846,101.97 L 173.654,101.97 L 173.654,108.594 C 173.654,108.773 173.778,108.796 173.957,108.796 L 175.285,108.796 C 175.461,108.796 175.588,108.773 175.588,108.594 L 175.588,94.3253 C 175.591,94.1459 175.461,94.1198 175.285,94.1198 L 173.957,94.1198 C 173.781,94.1198 173.654,94.1459 173.654,94.3253 L 173.654,100.44 L 167.846,100.44 L 167.846,94.3253 C 167.846,94.1459 167.722,94.1198 167.539,94.1198 L 166.215,94.1198 C 166.124,94.1198 166.058,94.0807 166.009,94.1198 z M 180.48,94.1198 C 180.431,94.1622 180.379,94.2339 180.379,94.3253 L 179.564,108.594 C 179.564,108.773 179.59,108.796 179.769,108.796 L 181.093,108.796 C 181.276,108.796 181.4,108.773 181.4,108.594 L 181.706,97.4823 C 181.739,97.0518 181.706,96.5202 181.706,96.1582 L 181.807,96.1582 C 181.807,96.631 181.827,97.1822 182.01,97.6877 L 184.661,105.127 C 184.736,105.342 184.854,105.433 185.069,105.433 L 185.679,105.433 C 185.897,105.433 185.979,105.342 186.086,105.127 L 188.738,97.6877 C 188.917,97.1822 189.044,96.631 189.044,96.1582 L 189.146,96.1582 C 189.11,96.5202 189.012,97.0518 189.044,97.4823 L 189.449,108.594 C 189.452,108.773 189.573,108.796 189.755,108.796 L 190.978,108.796 C 191.158,108.796 191.285,108.773 191.285,108.594 L 190.369,94.3253 C 190.369,94.1459 190.346,94.1198 190.163,94.1198 L 188.634,94.1198 C 188.451,94.1198 188.503,94.1426 188.431,94.3253 L 185.783,101.663 C 185.672,101.986 185.48,102.655 185.372,103.089 C 185.268,102.619 185.212,101.986 185.069,101.663 L 182.417,94.3253 C 182.349,94.1426 182.293,94.1198 182.111,94.1198 L 180.686,94.1198 C 180.594,94.1198 180.532,94.0807 180.48,94.1198 z M 195.362,94.1198 C 195.323,94.1622 195.362,94.2339 195.362,94.3253 L 195.362,108.594 C 195.362,108.773 195.388,108.796 195.567,108.796 L 202.599,108.796 C 202.853,108.796 202.905,108.747 202.905,108.493 L 202.905,107.573 C 202.902,107.426 202.781,107.266 202.599,107.266 L 197.198,107.266 L 197.198,101.866 L 201.578,101.866 C 201.832,101.866 201.884,101.781 201.884,101.559 L 201.884,100.643 C 201.884,100.388 201.832,100.339 201.578,100.339 L 197.198,100.339 L 197.198,95.5483 L 202.191,95.5483 C 202.367,95.5483 202.524,95.5613 202.599,95.3428 L 202.905,94.4264 C 202.902,94.3546 203.006,94.2959 203.006,94.2209 C 203.006,94.1915 202.85,94.1198 202.599,94.1198 L 195.567,94.1198 C 195.476,94.1198 195.401,94.0807 195.362,94.1198 z M 205.756,94.1198 C 205.707,94.1655 205.756,94.2502 205.756,94.3253 L 205.756,108.594 C 205.759,108.773 205.779,108.796 205.961,108.796 L 207.184,108.796 C 207.367,108.796 207.491,108.773 207.491,108.594 L 207.491,98.0954 C 207.491,97.6225 207.36,96.9898 207.184,96.1582 L 207.285,96.057 C 207.393,96.6702 207.605,97.4138 207.898,97.9943 L 213.094,108.594 C 213.201,108.737 213.221,108.796 213.4,108.796 L 214.724,108.796 C 214.907,108.796 215.031,108.737 215.031,108.594 L 215.031,94.3253 C 215.031,94.1459 214.943,94.1198 214.724,94.1198 L 213.505,94.1198 C 213.322,94.1198 213.299,94.1459 213.299,94.3253 L 213.299,104.618 C 213.299,105.016 213.426,105.473 213.505,105.942 L 213.4,105.942 C 213.182,105.293 213.146,104.853 212.892,104.312 L 207.898,94.2209 C 207.827,94.1198 207.673,94.1198 207.491,94.1198 L 205.961,94.1198 C 205.87,94.1198 205.808,94.0741 205.756,94.1198 z M 242.042,94.1198 C 241.99,94.1622 242.042,94.2339 242.042,94.3253 L 242.042,108.594 C 242.038,108.773 242.166,108.796 242.345,108.796 L 243.568,108.796 C 243.754,108.796 243.875,108.773 243.875,108.594 L 243.875,102.071 L 245.505,102.071 L 249.275,109.001 C 249.344,109.145 249.399,109.142 249.582,109.103 L 251.01,108.897 C 251.183,108.897 251.314,108.77 251.314,108.695 C 251.314,108.626 251.252,108.561 251.213,108.493 L 247.443,101.97 C 248.672,101.572 250.397,100.378 250.397,97.9943 C 250.397,94.1948 247.547,94.1198 245.812,94.1198 L 242.345,94.1198 C 242.257,94.1198 242.091,94.0807 242.042,94.1198 z M 253.965,94.1198 C 253.923,94.1622 253.861,94.2339 253.861,94.3253 L 253.861,104.82 C 253.864,107.465 255.11,109.103 258.551,109.103 C 262.018,109.103 263.544,107.426 263.544,104.82 L 263.544,94.3253 C 263.544,94.1459 263.417,94.1198 263.241,94.1198 L 262.014,94.1198 C 261.835,94.1198 261.711,94.1459 261.711,94.3253 L 261.711,104.82 C 261.711,106.774 260.645,107.677 258.551,107.677 C 256.411,107.674 255.697,106.595 255.697,104.82 L 255.697,94.3253 C 255.697,94.1459 255.674,94.1198 255.492,94.1198 L 254.167,94.1198 C 254.076,94.1198 254.004,94.0807 253.965,94.1198 z M 267.826,94.1198 C 267.784,94.1622 267.826,94.2339 267.826,94.3253 L 267.826,108.594 C 267.826,108.773 267.846,108.796 268.028,108.796 L 269.352,108.796 C 269.535,108.796 269.659,108.773 269.659,108.594 L 269.659,102.58 L 271.29,102.58 C 273.677,102.58 276.182,101.644 276.182,97.9943 C 276.182,94.1948 273.328,94.1198 271.596,94.1198 L 268.028,94.1198 C 267.937,94.1198 267.865,94.0807 267.826,94.1198 z M 279.342,94.1198 C 279.293,94.1622 279.342,94.2339 279.342,94.3253 L 279.342,108.594 C 279.342,108.773 279.362,108.796 279.547,108.796 L 280.872,108.796 C 281.051,108.796 281.178,108.773 281.178,108.594 L 281.178,102.58 L 282.809,102.58 C 285.193,102.58 287.701,101.644 287.701,97.9943 C 287.701,94.1948 284.85,94.1198 283.112,94.1198 L 279.547,94.1198 C 279.453,94.1198 279.391,94.0807 279.342,94.1198 z M 290.858,94.1198 C 290.819,94.1622 290.757,94.2339 290.757,94.3253 L 290.757,108.594 C 290.757,108.773 290.884,108.796 291.063,108.796 L 298.095,108.796 C 298.349,108.796 298.3,108.747 298.3,108.493 L 298.401,107.573 C 298.401,107.426 298.274,107.266 298.095,107.266 L 292.593,107.266 L 292.593,101.866 L 297.074,101.866 C 297.325,101.866 297.381,101.781 297.381,101.559 L 297.381,100.643 C 297.381,100.388 297.322,100.339 297.074,100.339 L 292.593,100.339 L 292.593,95.5483 L 297.687,95.5483 C 297.87,95.5483 297.919,95.5613 297.994,95.3428 L 298.3,94.4264 C 298.336,94.3546 298.401,94.2959 298.401,94.2209 C 298.401,94.1915 298.31,94.1198 298.095,94.1198 L 291.063,94.1198 C 290.972,94.1198 290.897,94.0807 290.858,94.1198 z M 131.866,95.5483 L 133.601,95.5483 C 134.902,95.5483 136.556,95.6722 136.556,98.0954 C 136.556,100.375 135.059,100.744 133.396,100.744 L 131.866,100.744 L 131.866,95.5483 z M 243.875,95.5483 L 245.606,95.5483 C 246.908,95.5483 248.564,95.6722 248.564,98.0954 C 248.561,100.375 247.002,100.744 245.303,100.744 L 243.875,100.744 L 243.875,95.5483 z M 269.659,95.5483 L 271.394,95.5483 C 272.659,95.5483 274.349,95.6722 274.349,98.0954 C 274.349,100.734 272.79,101.05 271.087,101.05 L 269.659,101.05 L 269.659,95.5483 z M 281.178,95.5483 L 282.91,95.5483 C 284.211,95.5483 285.865,95.6722 285.865,98.0954 C 285.865,100.734 284.306,101.05 282.603,101.05 L 281.178,101.05 L 281.178,95.5483 z" style="fill:#231f20;fill-opacity:1;fill-rule:evenodd;stroke:none"/>
	
	


</svg>
