<?xml version="1.0" encoding="iso-8859-1"?>
<!-- Generator: Adobe Illustrator 24.2.3, SVG Export Plug-In . SVG Version: 6.00 Build 0)  -->
<svg id="Ebene_1" style="enable-background:new 0 0 2767 740.4;" version="1.1" viewBox="-691.75 -185.1 4150.5 1110.6" x="0px" xml:space="preserve" xmlns="http://www.w3.org/2000/svg" xmlns:xlink="http://www.w3.org/1999/xlink" y="0px">
	
	

	
	<style type="text/css">
	.st0{fill:#FCBC67;}
	.st1{fill-rule:evenodd;clip-rule:evenodd;}
</style>
	
	

	
	<ellipse animation_id="11" class="st0" cx="332.7" cy="410.7" rx="326.7" ry="323.7"/>
	
	

	
	<path animation_id="0" class="st1" d="M496,588.7c144.3,0,261.3-116,261.3-259c0-143-117-259-261.3-259c-144.3,0-261.4,115.9-261.4,259  C234.7,472.7,351.7,588.7,496,588.7z M496,653.4c180.4,0,326.7-144.9,326.7-323.7C822.7,150.9,676.5,6,496,6  C315.6,6,169.3,150.9,169.3,329.7C169.3,508.5,315.6,653.4,496,653.4z"/>
	
	

	
	<path animation_id="1" d="M1173.8,482.2c0-3.8-2.8-5.2-9.5-5.2h-113.1V220.1c0-8.5-1.4-10-10-10h-45.1c-9,0-10,0.9-10,10v305.8c0,9,0.9,10,10,10  h157.3c7.6,0,9.5-1.4,10.9-8.5l8.6-39.4C1173.8,483.2,1173.8,483.2,1173.8,482.2z"/>
	
	

	
	<path animation_id="2" d="M1267.6,231.5c0-20.9-17.1-38.5-38-38.5c-21.4,0-39,17.1-39,38c0,21.8,17.1,38.9,38.5,38.9S1267.6,252.9,1267.6,231.5z   M1260.9,527.8V309.4c0-7.1-0.9-8.1-8.1-8.1h-88.4c-7.1,0-8.1,0.9-8.1,8.1v28c0,7.1,1,8.1,8.1,8.1h36.1v182.3c0,7.1,0.9,8.1,8.1,8.1  h44.2C1260,535.9,1260.9,534.9,1260.9,527.8z"/>
	
	

	
	<path animation_id="3" d="M1470.4,320.3c0-11.9-38.5-27.1-67.5-27.1c-68,0-109.8,49.4-109.8,130.1c0,76.4,37.5,120.6,102.2,120.6  c32.3,0,68.9-13.8,68.9-25.6c0-1.9,0-1.9-1.4-5.7l-11.4-29c-0.9-1.9-2.4-3.3-3.8-3.3c-1.4,0-3.3,0.9-5.2,2.4  c-13.8,9-25.7,13.3-39,13.3c-32.8,0-47.5-23.3-47.5-75c0-55.1,14.7-79.8,47-79.8c14.3,0,22.8,3.3,40.4,16.1c1.9,1.4,3.3,1.9,4.8,1.9  c1.4,0,3.3-1.4,4.3-3.3l16.6-30.4C1470,323.6,1470.4,321.7,1470.4,320.3z"/>
	
	

	
	<path animation_id="4" d="M1553.7,527.8V361.1c15.7-14.2,26.6-19.5,40.9-19.5c19,0,26.1,10.9,26.1,39.9v146.2c0,7.1,0.9,8.1,8.1,8.1h44.2  c7.1,0,8.1-0.9,8.1-8.1v-160c0-24.2-2.4-37-9.5-48.9c-10-16.1-29.5-25.6-52.3-25.6c-25.2,0-46.1,9-65.6,27.5V200.2  c0-5.7-1.4-8.1-4.8-8.1c-0.9,0-2.9,0-4.3,0.5l-44.2,9c-6.7,1.4-7.1,1.9-7.1,8.5v317.6c0,7.1,0.9,8.1,8.1,8.1h44.2  C1552.8,535.9,1553.7,534.9,1553.7,527.8z"/>
	
	

	
	<path animation_id="5" d="M1869,525.4c0-1.4,0-1.9-0.9-5.2l-7.6-33.2c-0.9-2.9-2.4-4.8-4.8-4.8c-1.4,0-2.9,0.5-4.3,0.9c-17.6,7.1-21.9,8.1-31.4,8.1  c-14.3,0-17.6-5.2-17.6-30.4V345.5h47.1c5.7,0,7.1-1.4,8.6-7.1l6.2-28c0.5-1.4,0.5-2.8,0.5-4.3c0-3.8-1.9-4.8-8.1-4.8h-54.2v-66.9  c0-5.7-1.4-7.6-4.8-7.6h-4.3l-43.7,6.2c-6.6,1-7.6,1.9-7.6,8.5v59.8h-32.8c-7.1,0-8.1,0.9-8.1,8.1v28c0,7.1,0.9,8.1,8.1,8.1h32.8  v123.9c0,26.6,2.4,38.5,10.5,50.3c10.9,16.1,29,24.2,53.7,24.2c15.7,0,31.8-2.8,48-8.1C1866.1,532.1,1869,530.2,1869,525.4z"/>
	
	

	
	<path animation_id="6" d="M2101.4,443.8c0-39.4-21.9-68.4-59.9-78.3c33.7-15.2,48-37,48-71.7c0-29-12.8-56-33.3-69.8c-16.2-10.9-31.4-13.8-77-13.8  h-77c-8.6,0-10,1.4-10,10v305.8c0,9,1,10,10,10h80.8c39.4,0,57-2.4,72.2-10C2082.4,512.6,2101.4,478.9,2101.4,443.8z M2026.3,300.4  c0,16.1-5.7,29.9-15.2,37c-8.6,6.2-17.6,8.1-37.1,8.1h-20v-87.8h25.2c14.7,0,21.9,1.4,28.5,5.2  C2019.7,270,2026.3,283.3,2026.3,300.4z M2035.8,440c0,31.8-16.6,44.2-59.4,44.2h-22.3v-89.7h23.3  C2019.7,394.4,2035.8,407.2,2035.8,440z"/>
	
	

	
	<path animation_id="7" d="M2238.4,530.6c0-0.5,0-0.9-0.5-1.9l-0.5-1.9l-9.5-38.9c-0.5-1.9-1.9-2.8-3.8-2.8c-0.5,0-1.9,0-3.3,0.5  c-6.2,1.9-10.5,2.8-15.7,2.8c-6.7,0-10-2.8-11.9-9.5c-0.9-3.8-0.9-4.8-0.9-31.3V200.2c0-5.7-1.4-8.1-4.8-8.1c-1,0-1,0-5.7,1  l-42.8,8.5c-4.8,0.9-7.1,3.8-7.1,9v241.2c0,41.3,0.5,47,4.3,57.9c7.6,22.3,26.6,34.2,54.2,34.2  C2213.2,543.9,2238.4,536.8,2238.4,530.6z"/>
	
	

	
	<path animation_id="8" d="M2337.5,231.5c0-20.9-17.1-38.5-38-38.5c-21.4,0-39,17.1-39,38c0,21.8,17.1,38.9,38.5,38.9  C2320.4,270,2337.5,252.9,2337.5,231.5z M2330.9,527.8V309.4c0-7.1-0.9-8.1-8.1-8.1h-88.4c-7.1,0-8.1,0.9-8.1,8.1v28  c0,7.1,1,8.1,8.1,8.1h36.1v182.3c0,7.1,0.9,8.1,8.1,8.1h44.2C2329.9,535.9,2330.9,534.9,2330.9,527.8z"/>
	
	

	
	<path animation_id="9" d="M2535.6,320.3c0-11.9-38.5-27.1-67.5-27.1c-67.9,0-109.8,49.4-109.8,130.1c0,76.4,37.5,120.6,102.2,120.6  c32.3,0,68.9-13.8,68.9-25.6c0-1.9,0-1.9-1.4-5.7l-11.4-29c-0.9-1.9-2.4-3.3-3.8-3.3c-1.4,0-3.3,0.9-5.2,2.4  c-13.8,9-25.7,13.3-39,13.3c-32.8,0-47.5-23.3-47.5-75c0-55.1,14.7-79.8,47.1-79.8c14.3,0,22.8,3.3,40.4,16.1  c1.9,1.4,3.3,1.9,4.8,1.9c1.4,0,3.3-1.4,4.3-3.3l16.6-30.4C2535.2,323.6,2535.6,321.7,2535.6,320.3z"/>
	
	

	
	<path animation_id="10" d="M2761,515.4c0-1.4-0.9-3.8-2.9-5.7l-87.4-105.4l77.9-75c2.4-2.4,3.3-4.3,3.3-5.7c0-1.9-1.4-3.8-3.8-5.7l-25.7-20.4  c-3.8-3.3-3.8-3.3-5.7-3.3c-1.9,0-1.9,0-5.7,3.8l-92.2,92.6V200.2c0-5.7-1.4-8.1-4.8-8.1l-4.3,0.5l-44.2,9c-6.6,1.4-7.1,2.4-7.1,8.5  v317.6c0,7.1,0.9,8.1,8.1,8.1h44.2c7.1,0,8.1-0.9,8.1-8.1V425.7l88.9,113.9c2.4,3.3,3.8,4.3,6.2,4.3c1.4,0,1.4,0,4.8-1.9l37.5-20.9  C2759.6,519.2,2761,517.3,2761,515.4z"/>
	
	


</svg>
