<?xml version="1.0" encoding="iso-8859-1"?>
<!-- Created with Inkscape (http://www.inkscape.org/) -->
<svg height="147" id="svg3870" version="1.1" viewBox="-256.0 -36.75 1536.0 220.5" width="1024" xmlns="http://www.w3.org/2000/svg" xmlns:cc="http://creativecommons.org/ns#" xmlns:dc="http://purl.org/dc/elements/1.1/" xmlns:rdf="http://www.w3.org/1999/02/22-rdf-syntax-ns#" xmlns:svg="http://www.w3.org/2000/svg">
	
	
  
	
	<defs id="defs3872"/>
	
	
  
	
	<metadata id="metadata3875">
		
		
    
		
		<rdf:RDF>
			
			
      
			
			<cc:Work rdf:about="">
				
				
        
				
				<dc:format>image/svg+xml</dc:format>
				
				
        
				
				<dc:type rdf:resource="http://purl.org/dc/dcmitype/StillImage"/>
				
				
        
				
				<dc:title/>
				
				
      
			
			</cc:Work>
			
			
    
		
		</rdf:RDF>
		
		
  
	
	</metadata>
	
	
  
	
	<g id="layer1" transform="translate(0,-621)">
		
		
    
		
		<g id="g3855" transform="matrix(4.1944035,0,0,-4.1944035,-1358.643,3959.2099)">
			
			
      
			
			<path animation_id="0" d="m 334.876,769.686 21.414,0 0,-7.782 -31.248,0 0,32.174 9.834,0 0,-24.392 z m 40.577,-8.174 c -3.75,0 -6.501,0.173 -8.25,0.512 -1.74,0.339 -3.157,0.912 -4.256,1.739 -1.236,0.924 -2.132,2.124 -2.678,3.616 -0.546,1.496 -0.815,3.474 -0.815,5.936 l 0,8.773 c 0,2.69 0.269,4.828 0.815,6.393 0.546,1.571 1.442,2.818 2.678,3.738 1.085,0.814 2.522,1.388 4.314,1.734 1.796,0.348 4.509,0.518 8.15,0.518 l 11.569,0 c 3.656,0 6.388,-0.17 8.201,-0.518 1.804,-0.346 3.241,-0.92 4.304,-1.734 1.195,-0.906 2.077,-2.145 2.631,-3.717 0.549,-1.571 0.831,-3.579 0.831,-6.026 l 0,-8.968 c 0,-2.479 -0.282,-4.492 -0.831,-6.04 -0.554,-1.548 -1.436,-2.781 -2.631,-3.705 -1.074,-0.827 -2.505,-1.4 -4.277,-1.739 -1.771,-0.339 -4.512,-0.512 -8.228,-0.512 l -11.527,0 z m 2.665,8.041 6.241,0 c 3.476,0 5.777,0.44 6.92,1.307 1.136,0.872 1.703,2.494 1.703,4.854 l 0,4.556 c 0,2.361 -0.567,3.981 -1.703,4.855 -1.143,0.869 -3.444,1.305 -6.92,1.305 l -6.282,0 c -3.547,0 -5.87,-0.444 -6.972,-1.318 -1.097,-0.882 -1.654,-2.548 -1.654,-5.009 l 0,-4.478 c 0,-2.316 0.586,-3.907 1.74,-4.772 1.161,-0.86 3.47,-1.3 6.927,-1.3 z m 50.892,-7.649 -9.807,0 0,24.292 -13.461,0 0,7.882 36.733,0 0,-7.882 -13.465,0 0,-24.292 z m 41.515,0 -9.807,0 0,24.292 -13.462,0 0,7.882 36.732,0 0,-7.882 -13.463,0 0,-24.292 z m 52.916,24.333 -25.346,0 0,-4.867 23.876,0 0,-6.763 -23.876,0 0,-4.921 25.738,0 0,-7.782 -35.547,0 0,32.174 35.155,0 0,-7.841 z m 29.936,-0.175 -15.62,0 0,-7.864 15.62,0 c 1.316,0 2.24,0.303 2.76,0.917 0.522,0.61 0.789,1.716 0.789,3.318 0,1.269 -0.277,2.19 -0.842,2.767 -0.557,0.573 -1.466,0.862 -2.707,0.862 z m 0.371,8.016 c 5.103,0 8.57,-0.757 10.415,-2.272 1.843,-1.51 2.766,-4.27 2.766,-8.273 0,-2.773 -0.409,-4.846 -1.234,-6.198 -0.818,-1.357 -2.196,-2.264 -4.121,-2.722 1.699,-0.403 2.974,-1.119 3.821,-2.138 0.852,-1.023 1.278,-2.351 1.278,-3.984 l 0,-6.587 -9.837,0 0,4.904 c 0,1.272 -0.292,2.14 -0.888,2.613 -0.599,0.48 -1.78,0.717 -3.532,0.717 l -14.659,0 0,-8.234 -9.855,0 0,32.174 25.846,0" id="path3301" style="fill:#1e87c9;fill-opacity:1;fill-rule:evenodd;stroke:none"/>
			
			
    
		
		</g>
		
		
  
	
	</g>
	
	


</svg>
