<?xml version="1.0" encoding="iso-8859-1"?>
<!-- Created with Inkscape (http://www.inkscape.org/) -->
<svg height="774.93903" id="svg2" version="1.1" viewBox="-129.913 -193.73475 779.4780000000001 1162.4085" width="519.65198" xml:space="preserve" xmlns="http://www.w3.org/2000/svg" xmlns:cc="http://creativecommons.org/ns#" xmlns:dc="http://purl.org/dc/elements/1.1/" xmlns:rdf="http://www.w3.org/1999/02/22-rdf-syntax-ns#" xmlns:svg="http://www.w3.org/2000/svg">
	
	
	<metadata id="metadata9">
		
		
		<rdf:RDF>
			
			
			<cc:Work rdf:about="">
				
				
				<dc:format>image/svg+xml</dc:format>
				
				
				<dc:type rdf:resource="http://purl.org/dc/dcmitype/StillImage"/>
				
				
				<dc:title/>
				
			
			</cc:Work>
			
		
		</rdf:RDF>
		
	
	</metadata>
	
	
	<defs id="defs7"/>
	
	

	
	<path animation_id="0" d="m 259.827,20.512 c -132.645,0 -240.56,107.914 -240.56,240.559 v 253.221 c 0,132.643 107.915,240.559 240.56,240.559 132.646,0 240.559,-107.916 240.559,-240.559 V 261.071 C 500.385,128.426 392.472,20.512 259.827,20.512 z M 6.606,261.071 c 0,-139.849 113.37,-253.22 253.221,-253.22 139.85,0 253.22,113.371 253.22,253.22 v 253.221 c 0,139.85 -113.37,253.219 -253.22,253.219 C 119.976,767.511 6.606,654.142 6.606,514.292 V 261.071 z m 390.381,335.518 c 0,75.762 -61.409,137.176 -137.16,137.176 -75.752,0 -137.161,-61.414 -137.161,-137.176 0,-75.73 61.409,-137.146 137.161,-137.146 75.751,-10e-4 137.16,61.415 137.16,137.146 z m -137.16,-27.42 c 1.192,0 2.36,0.102 3.512,0.25 l 28.167,-48.785 c -9.753,-4.07 -20.451,-6.328 -31.679,-6.328 -11.229,0 -21.928,2.258 -31.68,6.328 l 28.166,48.785 c 1.153,-0.148 2.321,-0.25 3.514,-0.25 z m 25.324,16.885 h 56.277 c -2.856,-22.311 -14.635,-41.824 -31.662,-54.848 l -28.156,48.77 c 1.421,1.857 2.627,3.886 3.541,6.078 z m -47.108,-6.078 -28.157,-48.77 c -17.025,13.025 -28.804,32.537 -31.66,54.848 h 56.277 c 0.913,-2.192 2.119,-4.217 3.54,-6.078 z m 21.784,44.06 c -1.191,0 -2.358,-0.102 -3.511,-0.25 l -28.166,48.785 c 9.752,4.07 20.45,6.328 31.677,6.328 11.228,0 21.925,-2.258 31.676,-6.324 l -28.167,-48.789 c -1.152,0.149 -2.317,0.25 -3.509,0.25 z m 81.599,-16.881 H 285.15 c -0.913,2.189 -2.12,4.219 -3.542,6.078 l 28.157,48.768 c 17.024,-13.022 28.802,-32.533 31.661,-54.846 z m -106.922,0 h -56.276 c 2.859,22.309 14.637,41.822 31.661,54.844 l 28.155,-48.77 c -1.42,-1.857 -2.627,-3.886 -3.54,-6.074 z M 145.877,292.161 c -2.329,0 -4.216,1.886 -4.221,4.213 l 0.002,0.009 v 179.166 c 0,1.461 0.301,2.945 0.944,4.361 2.406,5.301 8.661,7.65 13.969,5.24 L 55.284,531.294 c -5.307,2.41 -11.562,0.061 -13.969,-5.24 -0.645,-1.418 -0.948,-2.904 -0.947,-4.367 V 261.071 c 0,-60.603 24.564,-115.469 64.281,-155.183 L 259.827,261.068 415.006,105.89 c 39.715,39.715 64.277,94.579 64.277,155.181 h 0.002 l -0.009,260.613 c 10e-4,1.461 -0.292,2.947 -0.937,4.369 -2.407,5.301 -8.663,7.65 -13.97,5.24 L 363.082,485.148 c 5.307,2.41 11.562,0.061 13.969,-5.24 0.643,-1.416 0.945,-2.9 0.945,-4.361 V 296.382 c 0,-2.332 -1.891,-4.222 -4.22,-4.222 -1.166,0 -2.222,0.473 -2.984,1.237 l -60.323,60.271 v 92.966 c -15.901,-5.367 -32.929,-8.293 -50.643,-8.295 -17.713,0 -34.742,2.92 -50.645,8.287 v -92.963 l -60.322,-60.267 c -0.762,-0.763 -1.817,-1.235 -2.982,-1.235 z" id="path3" style="fill:#89181b"/>
	
	


</svg>
