<?xml version="1.0" encoding="iso-8859-1"?>
<svg height="46.258" version="1.1" viewBox="-15.98165325 -3.05965825 95.8899195 18.3579495" width="241.614" xmlns="http://www.w3.org/2000/svg">
	
	
	<path animation_id="0" d="M3.927 7.811h.217L3.38 4.14 2.07 7.373.764 4.139 0 7.81h.217l.608-2.94h.01L2.07 7.93l1.24-3.06h.01l.607 2.942m5.295-1.406c0 .32 0 .66-.184.896-.174.226-.523.344-.797.344-.273 0-.622-.118-.796-.344-.184-.236-.184-.575-.184-.896v-2.15h-.226v2.216c0 .363 0 .675.24.972.24.273.608.414.966.414.359 0 .727-.14.967-.414.24-.297.24-.609.24-.972V4.256h-.226v2.15m3.683-2.15h-.227v3.555h1.132v-.212h-.905V4.256m4.465.212h.92v-.212h-2.066v.212h.92v3.343h.226V4.468m4.054-.212h-.226v3.555h.226V4.256m5.008-.068c-.585 0-1.061.217-1.43.651-.3.355-.449.759-.449 1.211 0 .505.18.936.537 1.294.36.355.793.532 1.3.532.338 0 .66-.087.968-.261v-.649a2.707 2.707 0 0 1-.25.19 1.38 1.38 0 0 1-.23.124 1.134 1.134 0 0 1-.48.092 1.25 1.25 0 0 1-.926-.385 1.294 1.294 0 0 1-.377-.944c0-.377.125-.696.377-.957.25-.263.558-.394.923-.394.331 0 .653.13.963.389v-.634a1.822 1.822 0 0 0-.926-.26" fill="#0c2b53"/>
	
	
	<path animation_id="1" d="M26.432 4.188c-.585 0-1.061.217-1.43.651-.3.355-.449.759-.449 1.211 0 .505.18.936.537 1.294.36.355.793.532 1.3.532.338 0 .66-.087.968-.261v-.649a2.707 2.707 0 0 1-.25.19 1.38 1.38 0 0 1-.23.124 1.134 1.134 0 0 1-.48.092 1.25 1.25 0 0 1-.926-.385 1.294 1.294 0 0 1-.377-.944c0-.377.125-.696.377-.957.25-.263.558-.394.923-.394.331 0 .653.13.963.389v-.634a1.822 1.822 0 0 0-.926-.26z" fill="none" stroke="#0c2b53" stroke-width=".143"/>
	
	
	<path animation_id="2" d="M38.67 7.811V5.323l2.592 2.705V4.257h-.537v2.47l-2.592-2.712v3.797h.537" fill="#0c2b53"/>
	
	
	<path animation_id="3" d="M38.67 7.811V5.323l2.592 2.705V4.257h-.537v2.47l-2.592-2.712v3.797z" fill="none" stroke="#0c2b53" stroke-width=".143"/>
	
	
	<path animation_id="4" d="M45.15 7.811V5.323l2.593 2.705V4.257h-.537v2.47l-2.592-2.712v3.797h.536" fill="#0c2b53"/>
	
	
	<path animation_id="5" d="M45.15 7.811V5.323l2.593 2.705V4.257h-.537v2.47l-2.592-2.712v3.797z" fill="none" stroke="#0c2b53" stroke-width=".143"/>
	
	
	<path animation_id="6" d="M53.053 4.257H51.09V7.81h1.962v-.504h-1.426V6.12h1.384v-.504h-1.384v-.854h1.426v-.504" fill="#0c2b53"/>
	
	
	<path animation_id="7" d="M53.053 4.257H51.09V7.81h1.962v-.504h-1.426V6.12h1.384v-.504h-1.384v-.854h1.426z" fill="none" stroke="#0c2b53" stroke-width=".143"/>
	
	
	<path animation_id="8" d="M57.96 4.188c-.585 0-1.062.217-1.43.651-.3.355-.449.759-.449 1.211 0 .505.179.936.537 1.294a1.78 1.78 0 0 0 1.3.532c.338 0 .66-.087.967-.261v-.649a2.63 2.63 0 0 1-.25.19 1.395 1.395 0 0 1-.229.124 1.135 1.135 0 0 1-.48.092c-.366 0-.675-.129-.926-.385a1.296 1.296 0 0 1-.378-.944c0-.377.126-.696.378-.957.25-.263.558-.394.923-.394.331 0 .652.13.962.389v-.634a1.821 1.821 0 0 0-.925-.26" fill="#0c2b53"/>
	
	
	<path animation_id="9" d="M57.96 4.188c-.585 0-1.062.217-1.43.651-.3.355-.449.759-.449 1.211 0 .505.179.936.537 1.294a1.78 1.78 0 0 0 1.3.532c.338 0 .66-.087.967-.261v-.649a2.63 2.63 0 0 1-.25.19 1.395 1.395 0 0 1-.229.124 1.135 1.135 0 0 1-.48.092c-.366 0-.675-.129-.926-.385a1.296 1.296 0 0 1-.378-.944c0-.377.126-.696.378-.957.25-.263.558-.394.923-.394.331 0 .652.13.962.389v-.634a1.821 1.821 0 0 0-.925-.26z" fill="none" stroke="#0c2b53" stroke-width=".143"/>
	
	
	<path animation_id="10" d="M63.855 4.76v-.503h-2.169v.504h.818v3.05h.536v-3.05h.815" fill="#0c2b53"/>
	
	
	<path animation_id="11" d="M63.855 4.76v-.503h-2.169v.504h.818v3.05h.536v-3.05z" fill="none" stroke="#0c2b53" stroke-width=".143"/>
	
	
	<path animation_id="12" d="M34.398 5.18a1.776 1.776 0 0 0-1.088-.9 1.81 1.81 0 0 0-1.416.13 1.74 1.74 0 0 0-.903 1.071c-.167.545-.11 1.044.173 1.498.256.41.604.683 1.043.817.496.152.971.11 1.427-.125.453-.233.755-.595.904-1.083a1.776 1.776 0 0 0-.14-1.408zm-.299 1.267c-.116.38-.344.663-.685.848-.34.182-.7.215-1.078.099a1.349 1.349 0 0 1-.805-.667c-.19-.34-.223-.708-.102-1.106.116-.38.343-.66.68-.838a1.344 1.344 0 0 1 1.072-.102c.377.115.653.343.828.682.178.339.208.7.09 1.084" fill="#0c2b53"/>
	
	
	<path animation_id="13" d="M34.398 5.18a1.776 1.776 0 0 0-1.088-.9 1.81 1.81 0 0 0-1.416.13 1.74 1.74 0 0 0-.903 1.071c-.167.545-.11 1.044.173 1.498.256.41.604.683 1.043.817.496.152.971.11 1.427-.125.453-.233.755-.595.904-1.083a1.776 1.776 0 0 0-.14-1.408zm-.299 1.267c-.116.38-.344.663-.685.848-.34.182-.7.215-1.078.099a1.349 1.349 0 0 1-.805-.667c-.19-.34-.223-.708-.102-1.106.116-.38.343-.66.68-.838a1.344 1.344 0 0 1 1.072-.102c.377.115.653.343.828.682.178.339.208.7.09 1.084z" fill="none" stroke="#0c2b53" stroke-width=".143"/>
	
	
	<path animation_id="14" d="M34.482.409l-1.3 4.252" fill="none" stroke="#0c2b53" stroke-width=".176"/>
	
	
	<path animation_id="15" d="M34.366.792a.405.405 0 1 0 .237-.776.405.405 0 0 0-.237.776M30.87 12.22a.405.405 0 1 0 .237-.774.405.405 0 0 0-.237.774" fill="#0c2b53"/>
	
	
	<path animation_id="16" d="M32.316 7.49l-1.328 4.343" fill="none" stroke="#0c2b53" stroke-width=".176"/>
	
	
	<path animation_id="17" d="M28.863 4.935a.405.405 0 1 0 .775.236.405.405 0 0 0-.775-.236" fill="#0c2b53"/>
	
	
	<path animation_id="18" d="M31.022 5.597l-1.913-.585 2.083.637" fill="none" stroke="#0c2b53" stroke-width=".176"/>
	
	
	<path animation_id="19" d="M35.833 7.066a.405.405 0 1 0 .774.238.405.405 0 0 0-.774-.238" fill="#0c2b53"/>
	
	
	<path animation_id="20" d="M36.222 7.186l-1.956-.598" fill="none" stroke="#0c2b53" stroke-width=".176"/>
	

</svg>
