<?xml version="1.0" encoding="iso-8859-1"?>
<!-- Created with Inkscape (http://www.inkscape.org/) -->
<svg height="244.64215" id="svg2680" version="1.0" viewBox="-207.589095 -61.160537500000004 1245.53457 366.96322499999997" width="830.35638" xmlns="http://www.w3.org/2000/svg" xmlns:svg="http://www.w3.org/2000/svg">
	
	
  
	
	<defs id="defs2682"/>
	
	
  
	
	<g id="layer1" transform="translate(426.60679,-305.75539)">
		
		
    
		
		<path animation_id="0" d="M -405.50155,520.15332 C -405.1542,520.70651 -403.49462,521.95441 -402.88996,522.52047 C -397.61533,527.51207 -382.96224,533.19839 -368.38614,533.19839 C -348.71561,533.19839 -338.57803,525.91682 -338.57803,516.0494 C -338.57803,490.75688 -410.01715,517.90195 -410.01715,477.93052 C -410.01715,462.63408 -393.60156,451.28719 -370.6761,451.28719 C -359.93386,451.28719 -351.13423,453.51282 -344.85613,455.73846 C -338.46224,457.95123 -333.44491,460.13828 -332.58295,460.56282 L -338.02483,472.24421 C -338.5137,471.66528 -340.3148,470.23727 -341.25404,469.58116 C -346.43852,465.9661 -358.14563,461.65634 -372.85028,461.65634 C -387.92801,461.65634 -399.14636,467.81866 -399.14636,477.81473 C -399.14636,502.60551 -327.72,476.95278 -327.72,515.30323 C -327.72,533.81591 -345.57656,543.55468 -368.86225,543.55468 C -396.25164,543.55468 -408.43476,532.43935 -411.75402,531.44875 L -405.50155,520.15332" id="path117" style="fill:#231f20;fill-opacity:1;fill-rule:nonzero;stroke:none"/>
		
		
    
		
		<path animation_id="1" d="M -272.465,462.38965 L -253.03891,506.55505 L -290.92621,506.55505 L -272.465,462.38965 z M -226.36984,537.26371 L -261.60697,459.43071 L -264.68169,452.52222 L -278.91034,452.52222 C -278.91034,452.52222 -280.90441,457.43664 -281.39328,458.56875 L -312.39783,531.96335 L -316.81051,542.31964 L -305.45075,542.31964 L -295.39035,517.41308 L -248.45898,517.41308 L -237.92258,542.31964 L -224.05415,542.31964 L -226.36984,537.26371" id="path119" style="fill:#231f20;fill-opacity:1;fill-rule:nonzero;stroke:none"/>
		
		
    
		
		<path animation_id="2" d="M -56.78404,462.38965 L -37.35795,506.55505 L -75.245155,506.55505 L -56.78404,462.38965 z M -10.688785,537.26371 L -45.925911,459.43071 L -49.000636,452.52222 L -63.229282,452.52222 C -63.229282,452.52222 -65.223351,457.43664 -65.71222,458.56875 L -96.716774,531.96335 L -101.12956,542.31964 L -89.769695,542.31964 L -79.709296,517.41308 L -32.778024,517.41308 L -22.241519,542.31964 L -8.3730919,542.31964 L -10.688785,537.26371" id="path121" style="fill:#231f20;fill-opacity:1;fill-rule:nonzero;stroke:none"/>
		
		
    
		
		<path animation_id="3" d="M -119.78365,464.70534 L -126.13894,475.7692 L -131.79952,471.53663 C -137.35718,467.09822 -149.21868,461.65634 -161.00308,461.65634 C -182.60325,461.65634 -200.22835,475.96218 -200.22835,498.54018 C -200.22835,518.87969 -181.88281,533.19839 -163.42159,533.19839 C -151.47015,533.19839 -139.64715,530.48388 -129.99843,522.95788 L -129.99843,508.52339 L -152.67935,508.52339 L -157.74815,508.49766 L -157.74815,498.12851 L -152.67935,498.1671 L -117.69963,498.1671 L -117.68666,503.84055 L -117.68666,527.64072 C -130.71886,538.87183 -143.39085,543.55468 -162.21229,543.55468 C -188.63691,543.55468 -212.52715,526.77877 -212.52715,497.92267 C -212.52715,470.0443 -187.91648,451.28719 -161.37617,451.28719 C -139.05536,451.28719 -122.81978,462.94284 -119.78365,464.70534" id="path123" style="fill:#231f20;fill-opacity:1;fill-rule:nonzero;stroke:none"/>
		
		
    
		
		<path animation_id="4" d="M 23.056006,538.00988 C 23.056006,540.3513 23.056006,542.31964 23.056006,542.31964 L 10.744239,542.31964 C 10.744239,542.31964 10.744239,540.3513 10.744239,538.00988 L 10.744239,452.52222 L 82.414932,452.52222 C 84.589111,452.52222 87.483727,452.52222 87.483727,452.52222 L 87.483727,463.32879 C 87.483727,463.32879 84.589111,463.38025 82.414932,463.38025 L 23.056006,463.38025 L 23.056006,491.73462 L 62.873058,491.73462 C 65.047236,491.73462 67.941852,491.73462 67.941852,491.73462 L 67.941852,502.51546 C 67.941852,502.51546 65.047236,502.60551 62.873058,502.60551 L 23.056006,502.60551 L 23.056006,538.00988" id="path125" style="fill:#231f20;fill-opacity:1;fill-rule:nonzero;stroke:none"/>
		
		
    
		
		<path animation_id="5" d="M 115.47778,452.52222 C 115.47778,452.52222 115.50361,454.49056 115.50361,456.84485 L 115.50361,531.43589 L 174.74675,531.43589 C 179.45533,531.43589 181.74529,531.43589 181.74529,531.43589 L 181.74529,542.31964 C 181.74529,542.31964 178.36181,542.31964 174.74675,542.31964 L 103.16601,542.31964 C 103.16601,542.31964 103.19184,540.3513 103.19184,538.00988 L 103.19184,456.84485 C 103.19184,454.49056 103.16601,452.52222 103.16601,452.52222 L 115.47778,452.52222" id="path127" style="fill:#231f20;fill-opacity:1;fill-rule:nonzero;stroke:none"/>
		
		
    
		
		<path animation_id="6" d="M 198.19957,497.42093 C 198.19957,473.73654 215.82457,461.65634 235.85531,461.65634 C 255.87309,461.65634 273.49808,473.73654 273.49808,497.42093 C 273.49808,521.10532 255.87309,533.19839 235.85531,533.19839 C 215.82457,533.19839 198.19957,521.10532 198.19957,497.42093 z M 185.90067,497.42093 C 185.90067,526.2899 209.18625,543.55468 235.85531,543.55468 C 262.51151,543.55468 285.79699,526.2899 285.79699,497.42093 C 285.79699,468.55196 262.51151,451.28719 235.85531,451.28719 C 209.18625,451.28719 185.90067,468.55196 185.90067,497.42093" id="path129" style="fill:#231f20;fill-opacity:1;fill-rule:nonzero;stroke:none"/>
		
		
    
		
		<path animation_id="7" d="M 318.75712,463.38025 L 358.94725,463.38025 C 370.52572,463.38025 376.19916,469.91565 376.19916,477.19722 C 376.19916,489.03298 368.95619,492.73809 361.353,492.73809 L 318.75712,492.73809 L 318.75712,463.38025 z M 318.73139,542.31964 C 318.73139,542.31964 318.75712,540.3513 318.75712,538.00988 L 318.75712,503.59611 L 352.30893,503.59611 L 369.80528,532.69665 C 371.97946,536.40176 375.59451,542.31964 375.59451,542.31964 L 388.89688,542.31964 C 388.89688,542.31964 387.77763,540.22266 386.56822,538.25432 L 364.85217,502.23243 C 378.96513,502.11664 388.49807,492.73809 388.49807,477.93052 C 388.49807,462.14521 376.67517,452.52222 358.94725,452.52222 L 306.41962,452.52222 C 306.41962,452.52222 306.45821,454.49056 306.45821,456.84485 L 306.45821,538.00988 C 306.45821,540.3513 306.41962,542.31964 306.41962,542.31964 L 318.73139,542.31964" id="path131" style="fill:#231f20;fill-opacity:1;fill-rule:nonzero;stroke:none"/>
		
		
    
		
		<path animation_id="8" d="M -49.039231,395.13163 C -78.242794,395.13163 -102.72471,379.30773 -107.75501,359.30272 L -117.8539,359.30272 C -112.92662,385.01978 -83.890408,405.41074 -49.039231,405.41074 C -14.200919,405.41074 14.835193,385.01978 20.856098,359.1998 L 10.757001,359.1998 C 4.6462478,379.30773 -19.835771,395.13163 -49.039231,395.13163" id="path133" style="fill:#176fc1;fill-opacity:1;fill-rule:nonzero;stroke:none"/>
		
		
    
		
		<path animation_id="9" d="M 33.232189,323.44808 C 62.602894,323.44808 87.226428,339.27198 92.269492,359.27699 L 102.43281,359.27699 C 97.479698,333.55993 68.276238,313.16897 33.232189,313.16897 C -1.7992002,313.16897 -31.00266,333.55993 -37.049088,359.37991 L -26.898635,359.37991 C -20.749184,339.27198 3.8743502,323.44808 33.232189,323.44808" id="path135" style="fill:#00894d;fill-opacity:1;fill-rule:nonzero;stroke:none"/>
		
		
  
	
	</g>
	
	


</svg>
