<?xml version="1.0" encoding="iso-8859-1"?>
<svg height="146.96465" id="svg3682" version="1.1" viewBox="-146.8625025 -36.7411625 881.175015 220.446975" width="587.45001" xmlns="http://www.w3.org/2000/svg" xmlns:svg="http://www.w3.org/2000/svg">
	
	
  
	
	<defs id="defs3684"/>
	
	
  
	
	<g id="layer1" transform="translate(-56.275,-458.87986)">
		
		
    
		
		<path animation_id="0" d="m 426.93811,485.55008 c 0,-3.368 -0.24445,-5.97096 -4.45899,-5.97096 l -8.22535,0 0,-14.77125 20.60639,0 c 7.827,0 12.15922,4.06063 12.15922,11.39419 l 0,66.87121 -20.08127,0 0,-57.52319 z M 638.725,531.43009 c 0,5.39153 -2.91532,12.53043 -14.32761,12.53043 -5.37342,0 -10.75588,-0.88726 -14.88441,-7.1389 l -30.53387,-46.00225 c -0.89633,-1.33542 -1.55273,-1.88319 -2.12764,-1.88319 -0.44364,0 -1.3309,0.20824 -1.3309,2.2227 l 0,51.91438 -17.003,0 0,-66.9029 c 0,-8.5015 6.48251,-12.2905 14.76219,-12.2905 5.58617,0 10.96865,1.54819 14.43172,6.71337 l 30.73305,46.40967 c 0.57944,0.78315 1.02308,1.91035 2.0371,1.91035 1.23584,0 1.23584,-1.35354 1.23584,-1.91035 l 0,-52.23578 17.00753,0 0,66.66298 z m -94.35848,-27.49632 c 0,32.63888 -10.85095,40.02675 -41.61569,40.02675 -30.76927,0 -41.62475,-7.38788 -41.62475,-40.02675 0,-32.55739 10.85548,-40.05391 41.62475,-40.05391 30.76474,0 41.61569,7.49652 41.61569,40.05391 m -41.61569,24.3773 c 16.32849,0 21.03193,-5.93927 21.03193,-24.3773 0,-18.48781 -4.70344,-24.3954 -21.03193,-24.3954 -16.33302,0 -21.0274,5.90759 -21.0274,24.3954 0,18.43803 4.69438,24.3773 21.0274,24.3773 m -144.58931,-5.3707 c 0.33951,1.00044 0.89632,1.67043 1.5663,1.67043 0.66093,0 1.10456,-0.66999 1.56177,-1.67043 l 20.93687,-58.17052 21.47103,0 -27.86752,68.68648 c -2.23176,5.57713 -6.0434,10.50239 -16.10215,10.50239 -10.08137,0 -13.99261,-5.02032 -16.23342,-10.50239 l -27.75888,-68.68648 21.48461,0 20.94139,58.17052 z m -53.04428,8.48973 c 0,5.39152 -2.91983,12.53042 -14.33213,12.53042 -5.36889,0 -10.73325,-0.88726 -14.8844,-7.1389 l -30.54293,-46.00225 c -0.8918,-1.33542 -1.57989,-1.88319 -2.11859,-1.88319 -0.45268,0 -1.35806,0.20824 -1.35806,2.2227 l 0,51.91438 -16.99395,0 0,-66.9029 c 0,-8.5015 6.48704,-12.2905 14.75314,-12.2905 5.61334,0 10.96412,1.54819 14.45436,6.71337 l 30.75115,46.40967 c 0.57039,0.78315 1.0095,1.91035 2.04616,1.91035 1.20415,0 1.20415,-1.35354 1.20415,-1.91035 l 0,-52.23578 17.0211,0 0,66.66298 z m -95.2892,-51.449 -40.28478,0 c -3.92934,0 -5.24666,1.34448 -5.24666,5.2693 l 0,10.83285 44.51742,0 0,14.53131 -44.51743,0 0,11.98267 c 0,3.9067 1.31733,5.2693 5.24667,5.2693 l 40.72842,0 0,15.20582 -54.2774,0 c -7.26566,0 -11.84687,-3.58982 -11.84687,-11.96457 l 0,-54.25476 c 0,-8.39739 4.58121,-12.0868 11.84687,-12.0868 l 53.83376,0 0,15.21488 z m -147.652189,47.44135 43.412869,0 c 5.36889,0 5.59976,-3.48118 5.59976,-5.38248 0,-2.67539 -1.35354,-4.92525 -6.0434,-6.36932 L 74.48899,506.47653 C 64.294435,503.46162 61.275,495.51693 61.275,484.55733 c 0,-11.7337 5.13802,-19.78703 18.139245,-19.78703 l 48.338125,0 0,15.65398 -40.520186,0 c -2.901736,0 -5.47301,1.13625 -5.47301,5.14708 0,3.02396 1.561777,5.14254 6.260688,6.58662 l 27.528008,8.08049 c 11.63864,3.34538 16.23342,9.17149 16.23342,22.02785 0,12.42631 -4.59478,20.80558 -17.90836,20.80558 l -51.697079,0 0,-15.64945 z" id="path82" style="fill:#009d6c;fill-opacity:1;fill-rule:nonzero;stroke:none"/>
		
		
    
		
		<path animation_id="1" d="m 434.33866,586.41551 c 1.70664,1.03666 3.50381,1.71116 5.39152,1.71116 2.8791,0 4.3594,-1.48481 4.3594,-3.23672 0,-1.57537 -0.80578,-2.65277 -2.91985,-3.59435 l -2.51242,-1.1272 c -3.28199,-1.48029 -4.49973,-2.96512 -4.49973,-5.88948 0,-3.7709 2.91984,-6.64547 7.3743,-6.64547 1.88772,0 3.54909,0.31235 4.8483,0.80578 l -0.17655,3.23673 c -1.16793,-0.5387 -2.78403,-0.98686 -4.49067,-0.98686 -2.4762,0 -3.77995,1.34448 -3.77995,3.14166 0,1.84244 1.35354,2.8791 3.87049,3.86596 l 1.34448,0.5387 c 2.78857,1.1272 4.54048,3.01491 4.54048,5.84421 0,3.9565 -2.10954,7.10269 -7.36978,7.10269 -2.38567,0 -4.54047,-0.49342 -6.20637,-1.34901 l 0.22635,-3.4178 z m -21.56881,-13.52544 c 0,-1.66136 -0.13582,-3.32726 -0.18108,-4.94336 l 3.64415,0 0.1358,3.41327 0.086,0 c 1.20868,-2.60748 3.14619,-3.72562 5.79441,-3.72562 4.00178,0 6.69528,2.28607 6.69528,7.3245 l 0,15.90749 -3.7709,0 0,-14.78482 c 0,-3.63962 -1.34901,-5.21498 -3.77995,-5.21498 -2.96511,0 -4.85283,2.0688 -4.85283,6.20185 l 0,13.79795 -3.7709,0 0,-17.97628 z m -14.47564,15.23434 c 3.59435,0 5.26025,-2.96511 5.26025,-8.71879 0,-5.75367 -1.6659,-8.71878 -5.26025,-8.71878 -3.59435,0 -5.25571,2.96511 -5.25571,8.71878 0,5.75368 1.66136,8.71879 5.25571,8.71879 m 0,-20.49323 c 6.07056,0 9.21675,4.58122 9.21675,11.77444 0,7.1887 -3.14619,11.77444 -9.21675,11.77444 -6.06604,0 -9.21223,-4.58574 -9.21223,-11.77444 0,-7.19322 3.14619,-11.77444 9.21223,-11.77444 m -18.60641,0.31327 3.77542,0 0,22.91963 -3.77542,0 0,-12.79751 0,-10.12212 z m 3.95197,-4.94337 -4.13305,0 0,-4.49067 4.13305,0 0,4.49067 z m -9.2996,27.59637 c -0.89632,0.31235 -2.1548,0.58396 -3.19146,0.58396 -3.45854,0 -5.30099,-1.39427 -5.30099,-5.44131 l 0,-14.73955 -3.63961,0 0,-3.05565 3.63961,0 0,-4.67175 3.7709,-1.12268 0,5.79443 4.72155,0 0,3.05565 -4.72155,0 0,13.53086 c 0,2.60296 0.67904,3.59435 2.3902,3.59435 0.93706,0 1.6161,-0.27161 2.33135,-0.58396 l 0,3.05565 z m -17.39095,-4.67492 c 0,1.66137 0.13581,3.32727 0.18108,4.94337 l -3.64415,0 -0.1358,-3.4178 -0.086,0 c -1.21322,2.60748 -3.14619,3.73015 -5.79895,3.73015 -4.00177,0 -6.69527,-2.2906 -6.69527,-7.3245 l 0,-15.90749 3.7709,0 0,14.78481 c 0,3.63963 1.35354,5.21045 3.77543,5.21045 2.96964,0 4.85735,-2.06426 4.85735,-6.19731 l 0,-13.79795 3.77542,0 0,17.97627 z m -26.69823,-28.7625 3.77543,0 0,17.43305 0,16.27417 -3.77543,0 0,-16.27417 0,-17.43305 z m -13.92969,30.96438 c 3.59887,0 5.26025,-2.96511 5.26025,-8.71879 0,-5.75367 -1.66138,-8.71879 -5.26025,-8.71879 -3.59435,0 -5.26025,2.96512 -5.26025,8.71879 0,5.75368 1.6659,8.71879 5.26025,8.71879 m 0,-20.49323 c 6.07056,0 9.21675,4.58122 9.21675,11.77444 0,7.1887 -3.14619,11.77444 -9.21675,11.77444 -6.07057,0 -9.20769,-4.58574 -9.20769,-11.77444 0,-7.19322 3.13712,-11.77444 9.20769,-11.77444 m -25.7082,18.78433 c 1.71116,1.03666 3.50833,1.71116 5.39605,1.71116 2.87457,0 4.3594,-1.48481 4.3594,-3.23672 0,-1.57537 -0.81032,-2.65277 -2.92438,-3.59435 l -2.51695,-1.1272 c -3.282,-1.48029 -4.4952,-2.96512 -4.4952,-5.88948 0,-3.7709 2.92438,-6.64547 7.3743,-6.64547 1.88319,0 3.54909,0.31235 4.85283,0.80578 l -0.18108,3.23673 c -1.16794,-0.5387 -2.78856,-0.98686 -4.4952,-0.98686 -2.47167,0 -3.77542,1.34448 -3.77542,3.14166 0,1.84244 1.34901,2.8791 3.86596,3.86596 l 1.34901,0.5387 c 2.78404,1.1272 4.54048,3.01491 4.54048,5.84421 0,3.9565 -2.10954,7.10269 -7.36978,7.10269 -2.38567,0 -4.54047,-0.49342 -6.20184,-1.34901 l 0.22182,-3.4178 z m -20.44027,9.12349 c -1.12266,3.91123 -2.7433,5.30551 -5.6224,5.30551 -0.89632,0 -1.88318,-0.0905 -2.55768,-0.27161 l 0.17655,-3.41328 c 0.58848,0.26709 1.263,0.44816 2.07331,0.44816 1.0774,0 1.88319,-0.49342 2.51242,-2.87457 l 0.90085,-3.50834 -7.2385,-23.28179 3.9565,0 5.12444,18.70058 0.0905,0 4.76229,-18.70058 3.77542,0 -7.95375,27.59592 z m -22.47781,-7.41459 c 3.46308,0 5.0339,-2.96511 5.0339,-8.71879 0,-5.75367 -1.57082,-8.71879 -5.0339,-8.71879 -3.45854,0 -5.0339,2.96512 -5.0339,8.71879 0,5.75368 1.57536,8.71879 5.0339,8.71879 m 8.80933,3.73016 c 0,6.33764 -4.76682,8.98588 -9.79619,8.98588 -1.93298,0 -5.0339,-0.71525 -6.6998,-1.38977 l 0.18107,-3.82068 c 1.62064,1.0774 4.22359,1.97825 6.29238,1.97825 4.63101,0 6.42819,-2.7433 6.42819,-6.6998 l 0,-3.59435 -0.0905,0 c -1.48482,2.60748 -3.50834,3.86596 -6.02529,3.86596 -4.71703,0 -7.90848,-3.86596 -7.90848,-11.77444 0,-7.90847 3.19145,-11.77444 8.3159,-11.77444 2.2906,0 4.35939,1.43503 5.61787,3.63962 l 0.0905,0 0.13582,-3.32727 3.63961,0 c -0.0452,1.35354 -0.18107,2.78857 -0.18107,4.17833 l 0,19.73271 z m -29.79689,-18.9645 c 0,-1.66136 -0.13128,-3.32726 -0.18108,-4.94336 l 3.64415,0 0.13128,3.59435 0.0905,0 c 1.21321,-2.78856 3.14619,-3.9067 6.51872,-3.9067 l 0,3.72562 c -0.44816,-0.086 -0.94612,-0.13127 -1.43955,-0.13127 -2.91985,0 -4.98863,2.51695 -4.98863,7.50557 l 0,12.13207 -3.77543,0 0,-17.97628 z m -9.75183,4.76229 c 0,-4.76229 -1.48482,-7.14343 -4.4952,-7.14343 -2.42641,0 -4.58121,1.79718 -4.67175,7.14343 l 9.16695,0 z m -9.16695,2.87457 c 0,5.30552 2.06879,7.7772 6.24712,7.7772 1.88771,0 3.95196,-0.9416 5.25571,-1.88771 l 0.18107,3.4178 c -1.79717,0.85105 -4.13305,1.34449 -6.42818,1.34449 -6.06603,0 -9.21222,-4.58121 -9.21222,-11.76991 0,-7.19324 3.14619,-11.77898 8.85459,-11.77898 5.16971,0 8.04429,4.13305 8.04429,10.87813 l 0,2.01898 -12.94238,0 z m -25.39223,-7.63686 c 0,-1.66136 -0.13582,-3.32726 -0.18108,-4.94336 l 3.63961,0 0.13582,3.41327 0.0905,0 c 1.21321,-2.60748 3.14618,-3.72562 5.79895,-3.72562 3.99723,0 6.69526,2.28607 6.69526,7.3245 l 0,15.90749 -3.77543,0 0,-14.78482 c 0,-3.63962 -1.34448,-5.21498 -3.77542,-5.21498 -2.96511,0 -4.85283,2.0688 -4.85283,6.20185 l 0,13.79795 -3.77542,0 0,-17.97628 z m -8.85278,4.76229 c 0,-4.76229 -1.48482,-7.14343 -4.4952,-7.14343 -2.42641,0 -4.58574,1.79718 -4.67175,7.14343 l 9.16695,0 z m -9.16695,2.87457 c 0,5.30552 2.06426,7.7772 6.24258,7.7772 1.88771,0 3.9565,-0.9416 5.26025,-1.88771 l 0.18107,3.4178 c -1.79717,0.85105 -4.13757,1.34449 -6.42819,1.34449 -6.06602,0 -9.21221,-4.58121 -9.21221,-11.76991 0,-7.19324 3.14619,-11.77898 8.85006,-11.77898 5.16972,0 8.04882,4.13305 8.04882,10.87813 l 0,2.01898 -12.94238,0 z m -27.55065,-9.8392 c -3.46308,0 -5.0339,2.96512 -5.0339,8.71879 0,5.75368 1.57082,8.71879 5.0339,8.71879 3.45854,0 5.0339,-2.96511 5.0339,-8.71879 0,-5.75367 -1.57536,-8.71879 -5.0339,-8.71879 m 8.80933,15.95277 c 0,1.39427 0.13581,2.83382 0.17654,4.22358 l -3.63508,0 -0.13582,-3.37253 -0.0905,0 c -0.99138,1.8017 -2.69802,3.68941 -6.02528,3.68941 -4.71703,0 -7.90848,-3.86596 -7.90848,-11.77444 0,-7.913 3.19145,-11.77444 7.90848,-11.77444 2.60748,0 4.31865,1.03213 5.84421,3.45854 l 0.0905,0 0,-13.92924 3.77543,0 0,29.47912 z m -39.05529,-13.75043 c 0,-1.66136 -0.13581,-3.32726 -0.18108,-4.94336 l 3.63963,0 0.1358,3.41327 0.0905,0 c 1.21321,-2.60748 3.14618,-3.72562 5.79895,-3.72562 3.99723,0 6.69526,2.28607 6.69526,7.3245 l 0,15.90749 -3.77543,0 0,-14.78482 c 0,-3.63962 -1.34901,-5.21498 -3.77542,-5.21498 -2.96511,0 -4.85283,2.0688 -4.85283,6.20185 l 0,13.79795 -3.77542,0 0,-17.97628 z m -10.515965,-4.94562 3.775426,0 0,22.91963 -3.775426,0 0,-12.41272 0,-10.50691 z m 3.956505,-4.94337 -4.13758,0 0,-4.49067 4.13758,0 0,4.49067 z m -14.338473,27.86482 -4.314125,0 -4.807556,-19.37057 -0.09054,0 -4.404663,19.37057 -4.314126,0 -6.070558,-22.91964 3.956502,0 4.359393,19.14421 0.09054,0 4.359396,-19.14421 4.495201,0 4.540469,19.14421 0.08601,0 4.314127,-19.14421 3.775425,0 -5.975494,22.91964 z" id="path158" style="fill:#003871;fill-opacity:1;fill-rule:nonzero;stroke:none"/>
		
		
  
	
	</g>
	
	


</svg>
