<?xml version="1.0" encoding="iso-8859-1"?>
<!-- Created with Inkscape (http://www.inkscape.org/) -->
<svg height="18.069136" id="svg4248" inkscape:version="0.47 r22583" sodipodi:docname="New document 13" version="1.1" viewBox="-22.91901025 -4.517284 137.5140615 27.103704000000004" width="91.676041" xmlns="http://www.w3.org/2000/svg" xmlns:cc="http://creativecommons.org/ns#" xmlns:dc="http://purl.org/dc/elements/1.1/" xmlns:inkscape="http://www.inkscape.org/namespaces/inkscape" xmlns:rdf="http://www.w3.org/1999/02/22-rdf-syntax-ns#" xmlns:sodipodi="http://sodipodi.sourceforge.net/DTD/sodipodi-0.dtd" xmlns:svg="http://www.w3.org/2000/svg">
	
	
  
	
	<defs id="defs4250">
		
		
    
		
		<inkscape:perspective id="perspective4256" inkscape:persp3d-origin="372.04724 : 350.78739 : 1" inkscape:vp_x="0 : 526.18109 : 1" inkscape:vp_y="0 : 1000 : 0" inkscape:vp_z="744.09448 : 526.18109 : 1" sodipodi:type="inkscape:persp3d"/>
		
		
    
		
		<inkscape:perspective id="perspective4206" inkscape:persp3d-origin="0.5 : 0.33333333 : 1" inkscape:vp_x="0 : 0.5 : 1" inkscape:vp_y="0 : 1000 : 0" inkscape:vp_z="1 : 0.5 : 1" sodipodi:type="inkscape:persp3d"/>
		
		
    
		
		<clipPath clipPathUnits="userSpaceOnUse" id="clipPath452">
			
			
      
			
			<path animation_id="0" clip-rule="evenodd" d="m 311.276,528.042 97.024,0 0,18.977 -97.024,0 0,-18.977 z" id="path454"/>
			
			
    
		
		</clipPath>
		
		
    
		
		<clipPath clipPathUnits="userSpaceOnUse" id="clipPath512">
			
			
      
			
			<path animation_id="1" d="m -6.796,-913.276 470,0 0,289 -470,0 0,-289 z" id="path514"/>
			
			
    
		
		</clipPath>
		
		
  
	
	</defs>
	
	
  
	
	<sodipodi:namedview bordercolor="#666666" borderopacity="1.0" id="base" inkscape:current-layer="layer1" inkscape:cx="46.054422" inkscape:cy="8.9115646" inkscape:document-units="px" inkscape:pageopacity="0.0" inkscape:pageshadow="2" inkscape:window-height="678" inkscape:window-maximized="1" inkscape:window-width="1024" inkscape:window-x="-4" inkscape:window-y="-4" inkscape:zoom="9.9144526" pagecolor="#ffffff" showgrid="false"/>
	
	
  
	
	<metadata id="metadata4253">
		
		
    
		
		<rdf:RDF>
			
			
      
			
			<cc:Work rdf:about="">
				
				
        
				
				<dc:format>image/svg+xml</dc:format>
				
				
        
				
				<dc:type rdf:resource="http://purl.org/dc/dcmitype/StillImage"/>
				
				
        
				
				<dc:title/>
				
				
      
			
			</cc:Work>
			
			
    
		
		</rdf:RDF>
		
		
  
	
	</metadata>
	
	
  
	
	<g id="layer1" inkscape:groupmode="layer" inkscape:label="Layer 1" transform="translate(-234.16198,-491.89905)">
		
		
    
		
		<g id="g448" transform="matrix(1.25,0,0,-1.25,-155.19864,1175.6728)">
			
			
      
			
			<g clip-path="url(#clipPath452)" id="g450">
				
				
        
				
				<g id="g456" transform="matrix(0.1564026,0,0,-0.1566162,312.44485,432.89929)">
					
					
          
					
					<path animation_id="2" d="m 37.048,-721.319 c -5.457,-3.244 -13.032,-5.292 -19.223,-5.292 -12.299,0 -21.177,8.536 -21.177,21.598 0,12.462 6.598,15.195 16.616,18.182 3.421,1.025 9.693,2.647 9.693,7.342 0,4.524 -3.991,6.487 -7.738,6.487 -5.457,0 -10.181,-2.987 -14.173,-6.658 l -6.841,13.487 c 6.272,4.611 13.846,7.342 21.584,7.342 6.19,0 12.625,-1.793 17.431,-6.06 4.886,-4.354 6.353,-10.928 6.353,-17.33 0,-10.415 -6.598,-14.939 -15.15,-17.585 l -4.073,-1.281 c -2.769,-0.939 -7.086,-2.39 -7.086,-6.146 0,-3.586 3.91,-5.378 6.842,-5.378 3.91,0 7.656,1.707 10.588,4.267 l 6.354,-12.975 z" id="path458" style="fill:#2c2f8c;fill-opacity:1;fill-rule:nonzero;stroke:none"/>
					
					
          
					
					<path animation_id="3" d="m 37.048,-721.319 c -5.457,-3.244 -13.032,-5.292 -19.223,-5.292 -12.299,0 -21.177,8.536 -21.177,21.598 0,12.462 6.598,15.195 16.616,18.182 3.421,1.025 9.693,2.647 9.693,7.342 0,4.524 -3.991,6.487 -7.738,6.487 -5.457,0 -10.181,-2.987 -14.173,-6.658 l -6.841,13.487 c 6.272,4.611 13.846,7.342 21.584,7.342 6.19,0 12.625,-1.793 17.431,-6.06 4.886,-4.354 6.353,-10.928 6.353,-17.33 0,-10.415 -6.598,-14.939 -15.15,-17.585 l -4.073,-1.281 c -2.769,-0.939 -7.086,-2.39 -7.086,-6.146 0,-3.586 3.91,-5.378 6.842,-5.378 3.91,0 7.656,1.707 10.588,4.267 l 6.354,-12.975 z" id="path460" style="fill:none;stroke:#2c2f8c;stroke-width:0.62300003;stroke-linecap:butt;stroke-linejoin:miter;stroke-miterlimit:3.86400008;stroke-opacity:1;stroke-dasharray:none"/>
					
					
          
					
					<path animation_id="4" d="m 61.462,-685.141 14.034,-19.439 17.127,0 -14.034,18.738 15.893,25.504 -18.559,0 c -4.716,-8.116 -14.461,-24.803 -14.461,-24.803" id="path462" style="fill:#2c2f8c;fill-opacity:1;fill-rule:nonzero;stroke:none"/>
					
					
          
					
					<path animation_id="5" d="m 61.462,-685.141 14.034,-19.439 17.127,0 -14.034,18.738 15.893,25.504 -18.559,0 c -4.716,-8.116 -14.461,-24.803 -14.461,-24.803 z" id="path464" style="fill:none;stroke:#2c2f8c;stroke-width:0.71899998;stroke-linecap:butt;stroke-linejoin:miter;stroke-miterlimit:3.86400008;stroke-opacity:1;stroke-dasharray:none"/>
					
					
          
					
					<path animation_id="6" d="m 60.831,-724.742 -15.295,0 0,64.404 15.295,0 0,-64.404 z" id="path466" style="fill:#2c2f8c;fill-opacity:1;fill-rule:nonzero;stroke:none"/>
					
					
          
					
					<path animation_id="7" d="m 60.831,-724.742 -15.295,0 0,64.404 15.295,0 0,-64.404 z" id="path468" style="fill:none;stroke:#2c2f8c;stroke-width:0.61199999;stroke-linecap:butt;stroke-linejoin:miter;stroke-miterlimit:3.86400008;stroke-opacity:1;stroke-dasharray:none"/>
					
					
          
					
					<path animation_id="8" d="m 115.083,-665.47 -14.253,28.79 16.615,0 33.476,-67.913 -16.86,0 -10.914,23.226 -11.159,-23.226 -17.104,0 20.199,39.123 z" id="path470" style="fill:#2c2f8c;fill-opacity:1;fill-rule:nonzero;stroke:none"/>
					
					
          
					
					<path animation_id="9" d="m 115.083,-665.47 -14.253,28.79 16.615,0 33.476,-67.913 -16.86,0 -10.914,23.226 -11.159,-23.226 -17.104,0 20.199,39.123 z" id="path472" style="fill:none;stroke:#2c2f8c;stroke-width:0.62300003;stroke-linecap:butt;stroke-linejoin:miter;stroke-miterlimit:3.86400008;stroke-opacity:1;stroke-dasharray:none"/>
					
					
          
					
					<path animation_id="10" d="m 162.469,-718.125 14.809,-0.002 -0.004,13.33 8.617,0 0,11.013 -8.647,0 -0.001,18.384 c 1.051,4.022 5.125,3.391 8.657,3.326 l 0,13.491 -14.814,0 c -4.84,-0.052 -9.435,-4.006 -9.637,-8.761 l 0,-26.44 -8.566,0 0,-10.809 c 7.164,10e-4 9.752,-6.36 9.586,-13.532" id="path474" style="fill:#ed192d;fill-opacity:1;fill-rule:nonzero;stroke:none"/>
					
					
          
					
					<path animation_id="11" d="m 162.469,-718.125 14.809,-0.002 -0.004,13.33 8.617,0 0,11.013 -8.647,0 -0.001,18.384 c 1.051,4.022 5.125,3.391 8.657,3.326 l 0,13.491 -14.814,0 c -4.84,-0.052 -9.435,-4.006 -9.637,-8.761 l 0,-26.44 -8.566,0 0,-10.809 c 7.164,10e-4 9.752,-6.36 9.586,-13.532 z" id="path476" style="fill:none;stroke:#ed192d;stroke-width:0.61199999;stroke-linecap:butt;stroke-linejoin:miter;stroke-miterlimit:3.86400008;stroke-opacity:1;stroke-dasharray:none"/>
					
					
          
					
					<path animation_id="12" d="m 259.136,-704.593 -15.704,0 0,44.255 15.704,0 0,-23.188 c -0.085,-6.576 0.378,-12.198 6.628,-12.198 7.602,0 6.689,9.511 6.629,13.595 l 0,21.791 15.703,0 0,-27.633 c 0,-10.984 -4.782,-18.253 -16.438,-18.253 -5.997,0 -8.974,1.518 -12.522,6.923 l 0,-5.292 z" id="path478" style="fill:#ed192d;fill-opacity:1;fill-rule:nonzero;stroke:none"/>
					
					
          
					
					<path animation_id="13" d="m 259.136,-704.593 -15.704,0 0,44.255 15.704,0 0,-23.188 c -0.085,-6.576 0.378,-12.198 6.628,-12.198 7.602,0 6.689,9.511 6.629,13.595 l 0,21.791 15.703,0 0,-27.633 c 0,-10.984 -4.782,-18.253 -16.438,-18.253 -5.997,0 -8.974,1.518 -12.522,6.923 l 0,-5.292 z" id="path480" style="fill:none;stroke:#ed192d;stroke-width:0.62300003;stroke-linecap:butt;stroke-linejoin:miter;stroke-miterlimit:3.86400008;stroke-opacity:1;stroke-dasharray:none"/>
					
					
          
					
					<path animation_id="14" d="m 379.461,-704.593 -15.703,0 0,44.255 15.703,0 0,-23.188 c -0.085,-6.576 0.378,-12.198 6.628,-12.198 7.602,0 6.688,9.511 6.629,13.595 l 0,21.791 15.703,0 0,-27.633 c 0,-10.984 -4.781,-18.253 -16.438,-18.253 -5.997,0 -8.974,1.518 -12.522,6.923 l 0,-5.292 z" id="path482" style="fill:#ed192d;fill-opacity:1;fill-rule:nonzero;stroke:none"/>
					
					
          
					
					<path animation_id="15" d="m 379.461,-704.593 -15.703,0 0,44.255 15.703,0 0,-23.188 c -0.085,-6.576 0.378,-12.198 6.628,-12.198 7.602,0 6.688,9.511 6.629,13.595 l 0,21.791 15.703,0 0,-27.633 c 0,-10.984 -4.781,-18.253 -16.438,-18.253 -5.997,0 -8.974,1.518 -12.522,6.923 l 0,-5.292 z" id="path484" style="fill:none;stroke:#ed192d;stroke-width:0.62300003;stroke-linecap:butt;stroke-linejoin:miter;stroke-miterlimit:3.86400008;stroke-opacity:1;stroke-dasharray:none"/>
					
					
          
					
					<path animation_id="16" d="m 358.951,-704.571 -15.296,0 0,44.233 15.296,0 0,-44.233 z" id="path486" style="fill:#ed192d;fill-opacity:1;fill-rule:nonzero;stroke:none"/>
					
					
          
					
					<path animation_id="17" d="m 358.951,-704.571 -15.296,0 0,44.233 15.296,0 0,-44.233 z" id="path488" style="fill:none;stroke:#ed192d;stroke-width:0.61199999;stroke-linecap:butt;stroke-linejoin:miter;stroke-miterlimit:3.86400008;stroke-opacity:1;stroke-dasharray:none"/>
					
					
          
					
					<path animation_id="18" d="m 351.384,-727.314 c -4.963,0 -9.04,4.114 -9.04,9.123 0,5.009 4.077,9.123 9.04,9.123 4.964,0 9.041,-4.114 9.041,-9.123 0,-5.009 -4.077,-9.123 -9.041,-9.123" id="path490" style="fill:#ed192d;fill-opacity:1;fill-rule:nonzero;stroke:none"/>
					
					
          
					
					<path animation_id="19" d="m 351.384,-727.314 c -4.963,0 -9.04,4.114 -9.04,9.123 0,5.009 4.077,9.123 9.04,9.123 4.964,0 9.041,-4.114 9.041,-9.123 0,-5.009 -4.077,-9.123 -9.041,-9.123 z" id="path492" style="fill:none;stroke:#ed192d;stroke-width:0.61199999;stroke-linecap:butt;stroke-linejoin:miter;stroke-miterlimit:3.86400008;stroke-opacity:1;stroke-dasharray:none"/>
					
					
          
					
					<path animation_id="20" d="m 308.712,-685.141 14.034,-19.439 17.127,0 -14.034,18.738 15.893,25.504 -18.558,0 c -4.716,-8.116 -14.462,-24.803 -14.462,-24.803" id="path494" style="fill:#ed192d;fill-opacity:1;fill-rule:nonzero;stroke:none"/>
					
					
          
					
					<path animation_id="21" d="m 308.712,-685.141 14.034,-19.439 17.127,0 -14.034,18.738 15.893,25.504 -18.558,0 c -4.716,-8.116 -14.462,-24.803 -14.462,-24.803 z" id="path496" style="fill:none;stroke:#ed192d;stroke-width:0.71899998;stroke-linecap:butt;stroke-linejoin:miter;stroke-miterlimit:3.86400008;stroke-opacity:1;stroke-dasharray:none"/>
					
					
          
					
					<path animation_id="22" d="m 308.082,-724.742 -15.296,0 0,64.404 15.296,0 0,-64.404 z" id="path498" style="fill:#ed192d;fill-opacity:1;fill-rule:nonzero;stroke:none"/>
					
					
          
					
					<path animation_id="23" d="m 308.082,-724.742 -15.296,0 0,64.404 15.296,0 0,-64.404 z" id="path500" style="fill:none;stroke:#ed192d;stroke-width:0.61199999;stroke-linecap:butt;stroke-linejoin:miter;stroke-miterlimit:3.86400008;stroke-opacity:1;stroke-dasharray:none"/>
					
					
          
					
					<path animation_id="24" d="m 213.174,-693.711 c 6.395,0 10.111,5.062 10.111,11.079 0,6.209 -3.716,10.985 -10.111,10.985 -6.395,0 -10.111,-4.776 -10.111,-10.985 0,-6.017 3.716,-11.079 10.111,-11.079 m 26.122,-11.214 -16.084,0 0,4.34 c -3.358,-3.905 -8.837,-5.815 -14.051,-5.815 -13.433,0 -22.712,10.935 -22.712,23.694 0,12.758 9.456,23.78 22.889,23.78 5.302,0 10.869,-1.996 13.698,-6.421 l 0.176,0 0,5.009 16.081,0 0.003,-44.587 z" id="path502" style="fill:#ed192d;fill-opacity:1;fill-rule:evenodd;stroke:none"/>
					
					
          
					
					<path animation_id="25" d="m 213.174,-693.711 c 6.395,0 10.111,5.062 10.111,11.079 0,6.209 -3.716,10.985 -10.111,10.985 -6.395,0 -10.111,-4.776 -10.111,-10.985 0,-6.017 3.716,-11.079 10.111,-11.079 z m 26.122,-11.214 -16.084,0 0,4.34 c -3.358,-3.905 -8.837,-5.815 -14.051,-5.815 -13.433,0 -22.712,10.935 -22.712,23.694 0,12.758 9.456,23.78 22.889,23.78 5.302,0 10.869,-1.996 13.698,-6.421 l 0.176,0 0,5.009 16.081,0 0.003,-44.587 z" id="path504" style="fill:none;stroke:#ed192d;stroke-width:0.63599998;stroke-linecap:butt;stroke-linejoin:miter;stroke-miterlimit:3.86400008;stroke-opacity:1;stroke-dasharray:none"/>
					
					
          
					
					<path animation_id="26" d="m 437.235,-693.023 c 6.325,0 9.999,4.97 9.999,10.878 0,6.095 -3.674,10.785 -9.999,10.785 -6.324,0 -9.999,-4.69 -9.999,-10.785 0,-5.908 3.675,-10.878 9.999,-10.878 m 25.254,-11.697 -15.648,0 0,4.778 -0.172,0 c -3.096,-4.513 -7.824,-6.282 -12.984,-6.282 -13.499,0 -22.613,11.325 -22.613,24.596 0,13.095 8.857,23.182 21.753,23.182 5.848,0 9.975,-2.035 14.016,-6.193 l 0,2.123 c 0,7.343 -1.634,13.005 -10.061,13.005 -1.461,0 -3.095,-0.353 -4.47,-1.061 -1.376,-0.708 -2.494,-1.857 -2.924,-3.45 l -17.54,0 c 1.376,11.944 14.961,17.342 25.107,17.342 16.25,0 25.536,-7.787 25.536,-27.075 l 0,-40.965 z" id="path506" style="fill:#ed192d;fill-opacity:1;fill-rule:evenodd;stroke:none"/>
					
					
          
					
					<g id="g508">
						
						
            
						
						<g clip-path="url(#clipPath512)" id="g510">
							
							
              
							
							<path animation_id="27" d="m 437.235,-693.023 c 6.325,0 9.999,4.97 9.999,10.878 0,6.095 -3.674,10.785 -9.999,10.785 -6.324,0 -9.999,-4.69 -9.999,-10.785 0,-5.908 3.675,-10.878 9.999,-10.878 z m 25.254,-11.697 -15.648,0 0,4.778 -0.172,0 c -3.096,-4.513 -7.824,-6.282 -12.984,-6.282 -13.499,0 -22.613,11.325 -22.613,24.596 0,13.095 8.857,23.182 21.753,23.182 5.848,0 9.975,-2.035 14.016,-6.193 l 0,2.123 c 0,7.343 -1.634,13.005 -10.061,13.005 -1.461,0 -3.095,-0.353 -4.47,-1.061 -1.376,-0.708 -2.494,-1.857 -2.924,-3.45 l -17.54,0 c 1.376,11.944 14.961,17.342 25.107,17.342 16.25,0 25.536,-7.787 25.536,-27.075 l 0,-40.965 z" id="path516" style="fill:none;stroke:#ed192d;stroke-width:0.61199999;stroke-linecap:butt;stroke-linejoin:miter;stroke-miterlimit:3.86400008;stroke-opacity:1;stroke-dasharray:none"/>
							
							
            
						
						</g>
						
						
          
					
					</g>
					
					
          
					
					<path animation_id="28" d="m 236.469,-849.913 -28.343,-32.768 -59.127,0 c 21.093,-18.775 48.888,-30.184 79.348,-30.184 65.934,0 119.383,53.45 119.383,119.384 0,6.431 -0.955,13.191 -1.933,19.346 l -37.223,-45.25 -23.17,0 -25.129,-30.528 -23.806,0 z" id="path518" style="fill:#2c2f8c;fill-opacity:1;fill-rule:nonzero;stroke:none"/>
					
					
          
					
					<path animation_id="29" d="m 108.963,-793.481 c 0,-34.367 14.522,-65.344 37.764,-87.126 l 56.675,142.391 -80.906,0 c -8.644,-16.523 -13.533,-35.324 -13.533,-55.265" id="path520" style="fill:#2c2f8c;fill-opacity:1;fill-rule:nonzero;stroke:none"/>
					
					
          
					
					<path animation_id="30" d="m 254.28,-845.767 21.486,26.382 -24.94,0 33.632,81.169 -40.247,0 -42.864,-107.699 52.933,0.148 z" id="path522" style="fill:#ed192d;fill-opacity:1;fill-rule:nonzero;stroke:none"/>
					
					
        
				
				</g>
				
				
      
			
			</g>
			
			
    
		
		</g>
		
		
  
	
	</g>
	
	


</svg>
