<?xml version="1.0" encoding="iso-8859-1"?>
<!-- Created with Inkscape (http://www.inkscape.org/) -->
<svg height="35.965" id="svg2985" version="1.1" viewBox="-23.49093625 -8.99125 140.9456175 53.94750000000001" width="93.963745" xml:space="preserve" xmlns="http://www.w3.org/2000/svg" xmlns:cc="http://creativecommons.org/ns#" xmlns:dc="http://purl.org/dc/elements/1.1/" xmlns:rdf="http://www.w3.org/1999/02/22-rdf-syntax-ns#" xmlns:svg="http://www.w3.org/2000/svg">
	
	
	<metadata id="metadata2991">
		
		
		<rdf:RDF>
			
			
			<cc:Work rdf:about="">
				
				
				<dc:format>image/svg+xml</dc:format>
				
				
				<dc:type rdf:resource="http://purl.org/dc/dcmitype/StillImage"/>
				
				
				<dc:title/>
				
			
			</cc:Work>
			
		
		</rdf:RDF>
		
	
	</metadata>
	
	
	<defs id="defs2989">
		
		
		<clipPath id="clipPath3001">
			
			
			<path animation_id="0" d="m -1,865 654,0 0,-867 -654,0 0,867 z" id="path3003"/>
			
		
		</clipPath>
		
		
		<clipPath id="clipPath3007">
			
			
			<path animation_id="1" d="m 0,864.03 651,0 0,-864 -651,0 0,864 z" id="path3009"/>
			
		
		</clipPath>
		
		
		<clipPath id="clipPath3017">
			
			
			<path animation_id="2" d="m 0,864 1303.94,0 0,-864.57 L 0,-0.57 0,864 z" id="path3019"/>
			
		
		</clipPath>
		
		
		<clipPath id="clipPath3023">
			
			
			<path animation_id="3" d="m -1,865 654,0 0,-867 -654,0 0,867 z" id="path3025"/>
			
		
		</clipPath>
		
		
		<clipPath id="clipPath3029">
			
			
			<path animation_id="4" d="m 0,864.03 651,0 0,-864 -651,0 0,864 z" id="path3031"/>
			
		
		</clipPath>
		
		
		<clipPath id="clipPath3055">
			
			
			<path animation_id="5" d="m 90.069,238.955 68.676,0 0,-29.391 -68.676,0 0,29.391 z" id="path3057"/>
			
		
		</clipPath>
		
		
		<clipPath id="clipPath3139">
			
			
			<path animation_id="6" d="m 127.56,569.46 33.56,0 0,-31.43 -33.56,0 0,31.43 z" id="path3141"/>
			
		
		</clipPath>
		
		
		<clipPath id="clipPath3289">
			
			
			<path animation_id="7" d="m 505.65,379.04 43.09,0 0,-43.94 -43.09,0 0,43.94 z" id="path3291"/>
			
		
		</clipPath>
		
		
		<clipPath id="clipPath3355">
			
			
			<path animation_id="8" d="m 216.955,287.931 9.46,0 0.001,-4.794 5.975,10e-4 0,-3.648 -15.436,0 0,8.441 z m 11.869,17.669 21.543,0 0,-7.644 -21.543,0 0,7.644 z" id="path3357"/>
			
		
		</clipPath>
		
		
		<clipPath id="clipPath3975">
			
			
			<path animation_id="9" d="m -1,865 654,0 0,-867 -654,0 0,867 z" id="path3977"/>
			
		
		</clipPath>
		
		
		<clipPath id="clipPath3981">
			
			
			<path animation_id="10" d="m 0,864.03 651,0 0,-864 -651,0 0,864 z" id="path3983"/>
			
		
		</clipPath>
		
		
		<clipPath id="clipPath4003">
			
			
			<path animation_id="11" d="m 351.5,501.97 55.88,0 0,-27.94 -55.88,0 0,27.94 z" id="path4005"/>
			
		
		</clipPath>
		
		
		<clipPath id="clipPath4009">
			
			
			<path animation_id="12" d="m -1,865 654,0 0,-867 -654,0 0,867 z" id="path4011"/>
			
		
		</clipPath>
		
		
		<clipPath id="clipPath4015">
			
			
			<path animation_id="13" d="m 0,864.03 651,0 0,-864 -651,0 0,864 z" id="path4017"/>
			
		
		</clipPath>
		
		
		<clipPath id="clipPath4047">
			
			
			<path animation_id="14" d="m 344.33,571.41 71.11,0 0,-35.56 -71.11,0 0,35.56 z" id="path4049"/>
			
		
		</clipPath>
		
		
		<clipPath id="clipPath4053">
			
			
			<path animation_id="15" d="m -1,865 654,0 0,-867 -654,0 0,867 z" id="path4055"/>
			
		
		</clipPath>
		
		
		<clipPath id="clipPath4059">
			
			
			<path animation_id="16" d="m 0,864.03 651,0 0,-864 -651,0 0,864 z" id="path4061"/>
			
		
		</clipPath>
		
		
		<clipPath id="clipPath4139">
			
			
			<path animation_id="17" d="m 337.06,444.44 85.04,0 0,-42.52 -85.04,0 0,42.52 z" id="path4141"/>
			
		
		</clipPath>
		
		
		<clipPath id="clipPath4145">
			
			
			<path animation_id="18" d="m -1,865 654,0 0,-867 -654,0 0,867 z" id="path4147"/>
			
		
		</clipPath>
		
		
		<clipPath id="clipPath4151">
			
			
			<path animation_id="19" d="m 0,864.03 651,0 0,-864 -651,0 0,864 z" id="path4153"/>
			
		
		</clipPath>
		
		
		<clipPath id="clipPath4185">
			
			
			<path animation_id="20" d="m 340.57,365.38 78.37,0 0,-16.75 -78.37,0 0,16.75 z" id="path4187"/>
			
		
		</clipPath>
		
		
		<clipPath id="clipPath4191">
			
			
			<path animation_id="21" d="m -1,865 654,0 0,-867 -654,0 0,867 z" id="path4193"/>
			
		
		</clipPath>
		
		
		<clipPath id="clipPath4197">
			
			
			<path animation_id="22" d="m 0,864.03 651,0 0,-864 -651,0 0,864 z" id="path4199"/>
			
		
		</clipPath>
		
		
		<clipPath id="clipPath4259">
			
			
			<path animation_id="23" d="m -1,865 654,0 0,-867 -654,0 0,867 z" id="path4261"/>
			
		
		</clipPath>
		
		
		<clipPath id="clipPath4265">
			
			
			<path animation_id="24" d="m 0,864.03 651,0 0,-864 -651,0 0,864 z" id="path4267"/>
			
		
		</clipPath>
		
	
	</defs>
	
	
	<g id="g2993" transform="matrix(1.25,0,0,-1.25,-74.445427,546.11811)">
		
		
		<path animation_id="25" d="m 124.12334,426.17449 c -1.583,-2.265 -3.192,-4.632 -4.706,-6.903 l 15.31,0 0,6.903 -10.604,0" id="path3473" style="fill:#fff100;fill-opacity:1;fill-rule:nonzero;stroke:none"/>
		
		
		<path animation_id="26" d="m 103.53934,426.17449 c -0.413,-1.183 -1.283,-1.82 -2.785,-1.82 -1.330998,0 -2.543998,0.408 -3.404998,1.156 l 0,0.664 -37.793,0 0,-6.903 54.989998,0 c 1.305,1.845 2.926,4.355 4.383,6.903 l -15.39,0" id="path3475" style="fill:#fff100;fill-opacity:1;fill-rule:nonzero;stroke:none"/>
		
		
		<path animation_id="27" d="m 72.518342,432.97849 c -0.501,0.933 -1.172,1.473 -1.853,1.473 -0.4,0 -0.58,-0.243 -0.58,-0.594 0,-0.73 2.022,-1.095 2.864,-2.231 0.34,-0.459 0.52,-1.095 0.52,-1.879 0,-2.095 -1.161,-3.311 -3.585,-3.311 -1.241,0 -2.353,0.202 -3.414,0.757 l 0.811,3.365 c 0.441,-0.946 1.212,-1.608 1.872,-1.608 0.311,0 0.551,0.243 0.551,0.568 0,1.203 -2.924,0.878 -2.924,3.933 0,2.23 1.222,3.379 3.575,3.379 1.011,0 2.193,-0.27 2.984,-0.675 l -0.821,-3.177" id="path3477" style="fill:#ed3a21;fill-opacity:1;fill-rule:nonzero;stroke:none"/>
		
		
		<path animation_id="28" d="m 78.100342,432.35149 -1.251,0 0,-1.713 c 0,-0.572 0.198,-0.871 0.566,-0.871 0.278,0 0.526,0.204 0.715,0.571 l 0,-3.169 c -0.417,-0.394 -1.103,-0.639 -1.718,-0.639 -1.202,0 -2.563,0.966 -2.563,3.319 l 0,2.502 -1.221,0 4.221,4.53 0,-2.285 1.251,0 0,-2.245" id="path3479" style="fill:#ed3a21;fill-opacity:1;fill-rule:nonzero;stroke:none"/>
		
		
		<path animation_id="29" d="m 85.293342,426.59849 -2.829,0 0,1.401 -0.019,0 c -0.607,-1.061 -1.165,-1.469 -1.968,-1.469 -1.076,0 -2.006,0.87 -2.006,2.829 l 0,5.237 2.789,0 0,-4.312 c 0,-0.667 0.128,-1.088 0.539,-1.088 0.234,0 0.43,0.163 0.538,0.421 l 0,4.979 2.956,0 0,-7.998 z m -2.085,10.296 c 0.372,0 0.665,-0.408 0.665,-0.925 0,-0.516 -0.293,-0.924 -0.665,-0.924 -0.372,0 -0.666,0.408 -0.666,0.924 0,0.517 0.294,0.925 0.666,0.925 z m -2.466,0 c 0.371,0 0.665,-0.408 0.665,-0.925 0,-0.516 -0.294,-0.924 -0.665,-0.924 -0.372,0 -0.666,0.408 -0.666,0.924 0,0.517 0.294,0.925 0.666,0.925" id="path3481" style="fill:#ed3a21;fill-opacity:1;fill-rule:nonzero;stroke:none"/>
		
		
		<path animation_id="30" d="m 86.221342,429.61749 c 0.398,-0.734 1.033,-1.21 1.609,-1.21 0.348,0 0.576,0.231 0.576,0.571 0,0.966 -1.35,0.612 -2.175,1.741 -0.278,0.381 -0.467,0.925 -0.467,1.524 0,1.591 1.043,2.516 2.851,2.516 0.983,0 1.897,-0.231 2.602,-0.68 l -0.715,-2.04 c -0.437,0.544 -0.943,0.87 -1.371,0.87 -0.288,0 -0.486,-0.19 -0.486,-0.476 0,-0.979 1.45,-0.558 2.294,-1.714 0.298,-0.408 0.447,-0.966 0.447,-1.578 0,-1.809 -1.232,-2.666 -2.622,-2.666 -0.973,0 -2.215,0.34 -3.208,0.898 l 0.665,2.244" id="path3483" style="fill:#ed3a21;fill-opacity:1;fill-rule:nonzero;stroke:none"/>
		
		
		<path animation_id="31" d="m 91.932342,429.61749 c 0.397,-0.734 1.033,-1.21 1.609,-1.21 0.348,0 0.576,0.231 0.576,0.571 0,0.966 -1.351,0.612 -2.175,1.741 -0.278,0.381 -0.467,0.925 -0.467,1.524 0,1.591 1.043,2.516 2.851,2.516 0.983,0 1.897,-0.231 2.602,-0.68 l -0.715,-2.04 c -0.437,0.544 -0.944,0.87 -1.371,0.87 -0.288,0 -0.486,-0.19 -0.486,-0.476 0,-0.979 1.45,-0.558 2.294,-1.714 0.298,-0.408 0.447,-0.966 0.447,-1.578 0,-1.809 -1.232,-2.666 -2.622,-2.666 -0.974,0 -2.215,0.34 -3.208,0.898 l 0.665,2.244" id="path3485" style="fill:#ed3a21;fill-opacity:1;fill-rule:nonzero;stroke:none"/>
		
		
		<path animation_id="32" d="m 110.33234,428.24449 c -0.685,-1.224 -1.619,-1.769 -2.83,-1.769 -2.037,0 -3.377,1.673 -3.377,4.217 0,2.394 1.251,4.067 3.059,4.067 1.827,0 3.228,-1.7 3.148,-4.679 l -3.059,0 c 0.209,-0.803 0.765,-1.306 1.44,-1.306 0.646,0 1.252,0.327 1.619,0.871 l 0,-1.401 z m -1.827,3.237 c -0.02,0.775 -0.298,1.265 -0.725,1.265 -0.398,0 -0.706,-0.517 -0.686,-1.265 l 1.411,0" id="path3487" style="fill:#ed3a21;fill-opacity:1;fill-rule:nonzero;stroke:none"/>
		
		
		<path animation_id="33" d="m 113.54634,433.58949 c 0.521,0.748 1.051,1.075 1.755,1.075 0.965,0 2.054,-0.572 2.054,-3.102 l 0,-4.964 -2.748,0 0,4.665 c 0,0.64 -0.174,0.993 -0.54,0.993 -0.154,0 -0.376,-0.109 -0.521,-0.258 l 0,-5.4 -2.912,0 0,7.998 2.912,0 0,-1.007" id="path3489" style="fill:#ed3a21;fill-opacity:1;fill-rule:nonzero;stroke:none"/>
		
		
		<path animation_id="34" d="m 107.64434,418.73249 4.659,0 c 0,0 0.506,-1.01 0.912,-1.717 1.823,2.122 6.38,8.993 8.608,14.045 1.216,0.303 5.672,1.617 7.09,2.223 -5.773,-7.477 -14.584,-21.018 -17.015,-25.161 -0.304,2.729 -4.254,10.61 -4.254,10.61" id="path3491" style="fill:#ed3a21;fill-opacity:1;fill-rule:nonzero;stroke:none"/>
		
		
		<path animation_id="35" d="m 103.83734,428.31249 c 0,-2.544 -0.841,-3.958 -3.083,-3.958 -1.330998,0 -2.543998,0.408 -3.404998,1.156 l 0,3.631 c 0.704,-0.952 1.487,-1.428 2.348,-1.428 0.733998,0 1.291998,0.327 1.184998,1.238 -0.265,-0.245 -0.734,-0.435 -1.213998,-0.435 -1.439,0 -2.339,1.183 -2.339,3.033 0,1.346 0.519,2.203 0.871,2.489 0.548,0.435 0.93,0.544 2.319998,0.544 l 3.317,0.014 0,-6.284 z m -3.024,4.026 c -0.675,0 -0.987998,-0.313 -0.987998,-1.007 0,-0.544 0.253998,-0.897 0.645998,-0.897 0.166,0 0.303,0.054 0.411,0.176 l 0,1.728 -0.069,0" id="path3493" style="fill:#ed3a21;fill-opacity:1;fill-rule:nonzero;stroke:none"/>
		
		
		<path animation_id="36" d="m 102.56534,421.24849 c -0.284,0 -0.506,-0.274 -0.506,-0.587 0,-0.339 0.245,-0.586 0.529,-0.586 0.267,0 0.505,0.273 0.505,0.58 0,0.351 -0.227,0.593 -0.528,0.593" id="path3495" style="fill:#58b33f;fill-opacity:1;fill-rule:nonzero;stroke:none"/>
		
		
		<path animation_id="37" d="m 100.67934,420.73349 c -0.494,0 -0.686998,0.482 -0.686998,1.101 l 1.840998,0 c 0,0.072 0,0.104 0,0.137 0.028,0.951 -0.585,1.511 -1.375,1.511 -0.857998,0 -1.493998,-0.677 -1.493998,-1.681 0,-1.042 0.647,-1.726 1.538998,-1.726 0.654,0 1.085,0.345 1.398,0.984 l -0.477,0.273 c -0.165,-0.313 -0.409,-0.599 -0.745,-0.599 z m -0.216,2.104 c 0.228,0 0.393,-0.189 0.398,-0.469 l -0.841,0 c 0.023,0.28 0.216,0.469 0.443,0.469" id="path3497" style="fill:#58b33f;fill-opacity:1;fill-rule:nonzero;stroke:none"/>
		
		
		<path animation_id="38" d="m 98.736342,420.88349 c -0.028,0.11 -0.028,0.28 -0.028,0.391 l 0,1.075 c 0,0.312 -0.006,0.56 -0.205,0.801 -0.181,0.215 -0.431,0.332 -0.687,0.332 -0.341,0 -0.642,-0.143 -0.915,-0.319 l 0,1.688 -0.307,0 c -0.346,-0.176 -0.715,-0.267 -1.09,-0.287 l 0,-0.534 c 0.136,0 0.295,-0.02 0.38,-0.092 0.08,-0.071 0.068,-0.332 0.068,-0.443 l 0,-2.221 c 0,-0.45 0.017,-0.548 -0.42,-0.613 l 0,-0.534 1.687,0 0,0.534 -0.091,0.026 c -0.09,0.026 -0.193,0.046 -0.204,0.196 -0.028,0.11 -0.023,0.28 -0.023,0.391 l 0,1.225 c 0.148,0.143 0.432,0.28 0.659,0.26 0.228,0 0.199,-0.3 0.199,-0.489 l 0,-0.996 c 0,-0.118 0.006,-0.326 -0.04,-0.437 -0.045,-0.111 -0.142,-0.13 -0.221,-0.163 l -0.057,-0.013 0,-0.534 1.653,0 0,0.534 -0.096,0.026 c -0.125,0.026 -0.222,0.046 -0.262,0.196" id="path3499" style="fill:#58b33f;fill-opacity:1;fill-rule:nonzero;stroke:none"/>
		
		
		<path animation_id="39" d="m 95.089342,421.33949 c -0.147,-0.346 -0.448,-0.606 -0.801,-0.606 -0.471,0 -0.659,0.554 -0.659,1.023 0,0.384 0.068,1.127 0.523,1.127 0.068,0 0.176,-0.046 0.233,-0.091 0.091,-0.078 0.091,-0.163 0.091,-0.28 -0.006,-0.157 0.011,-0.261 0.113,-0.378 0.091,-0.098 0.222,-0.163 0.347,-0.163 0.273,0 0.477,0.221 0.477,0.534 0,0.352 -0.233,0.593 -0.483,0.749 -0.25,0.15 -0.511,0.228 -0.795,0.228 -0.886,0 -1.534,-0.664 -1.534,-1.707 0,-1.023 0.625,-1.7 1.5,-1.7 0.625,0 1.199,0.312 1.449,0.99 l -0.461,0.274" id="path3501" style="fill:#58b33f;fill-opacity:1;fill-rule:nonzero;stroke:none"/>
		
		
		<path animation_id="40" d="m 91.608342,422.23149 -0.285,0.066 c -0.153,0.032 -0.511,0.071 -0.511,0.319 0,0.195 0.267,0.254 0.398,0.254 0.312,0 0.562,-0.228 0.733,-0.508 l 0.46,0.078 -0.108,0.958 -0.352,0 -0.074,-0.144 c -0.239,0.144 -0.455,0.228 -0.727,0.228 -0.296,0 -0.591,-0.097 -0.824,-0.325 -0.205,-0.209 -0.335,-0.502 -0.335,-0.815 0,-0.339 0.119,-0.625 0.375,-0.795 0.221,-0.15 0.471,-0.182 0.715,-0.221 0.16,-0.026 0.375,-0.052 0.523,-0.111 0.085,-0.039 0.165,-0.104 0.165,-0.222 0,-0.234 -0.347,-0.312 -0.5,-0.312 -0.409,0 -0.631,0.247 -0.864,0.593 l -0.46,-0.079 0.227,-1.068 0.381,0 0.063,0.13 c 0.233,-0.13 0.471,-0.182 0.727,-0.182 0.619,0 1.273,0.391 1.273,1.179 0,0.274 -0.103,0.534 -0.29,0.704 -0.199,0.182 -0.46,0.221 -0.71,0.273" id="path3503" style="fill:#58b33f;fill-opacity:1;fill-rule:nonzero;stroke:none"/>
		
		
		<path animation_id="41" d="m 89.512342,421.27449 0,2.124 -0.375,0 -1.012,-0.17 0,-0.534 0.04,0 c 0.409,-0.052 0.398,-0.182 0.398,-0.612 l 0,-0.808 c 0,-0.437 0.005,-0.567 -0.443,-0.613 l 0,-0.534 1.778,0 0,0.534 c -0.403,0.059 -0.386,0.189 -0.386,0.613" id="path3505" style="fill:#58b33f;fill-opacity:1;fill-rule:nonzero;stroke:none"/>
		
		
		<path animation_id="42" d="m 87.500342,423.39849 c -0.284,0 -0.477,-0.124 -0.738,-0.307 l 0,0.307 -0.228,0 -0.686,-0.115 -0.512,1.281 -3.25,0 0,-0.534 c 0.477,-0.039 0.488,-0.189 0.488,-0.639 l 0,-2.091 c 0,-0.463 -0.011,-0.606 -0.488,-0.639 l 0,-0.534 2.051,0 0,0.534 -0.063,0 c -0.125,0.007 -0.346,0.039 -0.426,0.163 -0.074,0.111 -0.068,0.345 -0.068,0.476 l 0,0.84 c 0.625,0.033 0.665,-0.124 0.733,-0.762 l 0.42,0 0,2.111 -0.42,0 c -0.023,-0.183 -0.034,-0.385 -0.119,-0.541 -0.086,-0.182 -0.284,-0.169 -0.443,-0.169 l -0.171,0 0,0.527 c 0,0.496 -0.028,0.659 0.46,0.659 0.659,0 1.057,-0.365 1.432,-0.958 l 0.051,0.028 0,-0.341 0.04,0 c 0.409,-0.052 0.398,-0.182 0.398,-0.612 l 0,-0.808 c 0,-0.45 0,-0.574 -0.455,-0.613 l 0,-0.534 1.813,0 0,0.534 -0.052,0.007 c -0.369,0.032 -0.358,0.182 -0.358,0.612 l 0,1.206 c 0,0.065 0.086,0.104 0.171,0.104 0.142,0 0.221,-0.202 0.477,-0.202 0.239,0 0.449,0.189 0.449,0.482 0,0.332 -0.227,0.528 -0.506,0.528" id="path3507" style="fill:#58b33f;fill-opacity:1;fill-rule:nonzero;stroke:none"/>
		
		
		<path animation_id="43" d="m 79.774342,423.39849 c -0.284,0 -0.477,-0.124 -0.739,-0.307 l 0,0.307 -0.227,0 -1.011,-0.17 0,-0.534 0.04,0 c 0.409,-0.052 0.397,-0.182 0.397,-0.612 l 0,-0.808 c 0,-0.45 0,-0.574 -0.454,-0.613 l 0,-0.534 1.812,0 0,0.534 -0.051,0.007 c -0.369,0.032 -0.358,0.182 -0.358,0.612 l 0,1.206 c 0,0.065 0.085,0.104 0.171,0.104 0.142,0 0.221,-0.202 0.477,-0.202 0.239,0 0.449,0.189 0.449,0.482 0,0.332 -0.228,0.528 -0.506,0.528" id="path3509" style="fill:#58b33f;fill-opacity:1;fill-rule:nonzero;stroke:none"/>
		
		
		<path animation_id="44" d="m 77.337342,421.33249 c -0.164,-0.313 -0.409,-0.599 -0.744,-0.599 -0.494,0 -0.687,0.482 -0.687,1.101 l 1.84,0 c 0,0.072 0,0.104 0,0.137 0.029,0.951 -0.585,1.511 -1.375,1.511 -0.857,0 -1.494,-0.677 -1.494,-1.681 0,-1.042 0.648,-1.726 1.54,-1.726 0.653,0 1.085,0.345 1.398,0.984 l -0.478,0.273 z m -0.96,1.505 c 0.227,0 0.392,-0.189 0.398,-0.469 l -0.841,0 c 0.023,0.28 0.216,0.469 0.443,0.469" id="path3511" style="fill:#58b33f;fill-opacity:1;fill-rule:nonzero;stroke:none"/>
		
		
		<path animation_id="45" d="m 73.475342,424.46649 c -0.302,0.098 -0.79,0.098 -1.108,0.098 l -1.756,0 0,-0.534 c 0.477,-0.046 0.483,-0.183 0.483,-0.639 l 0,-2.091 c 0,-0.463 -0.011,-0.6 -0.483,-0.639 l 0,-0.534 1.892,0 c 0.591,0 1.153,0.019 1.625,0.495 0.437,0.443 0.619,1.056 0.619,1.72 0,0.482 -0.113,0.964 -0.358,1.355 -0.21,0.346 -0.556,0.652 -0.914,0.769 z m -0.989,-3.74 c -0.097,0 -0.244,0.007 -0.324,0.065 -0.074,0.053 -0.062,0.196 -0.062,0.287 l 0,2.47 c 0,0.39 0.079,0.417 0.426,0.417 0.329,0 0.63,-0.105 0.858,-0.45 0.21,-0.319 0.267,-0.756 0.267,-1.153 0,-0.899 -0.341,-1.636 -1.165,-1.636" id="path3513" style="fill:#58b33f;fill-opacity:1;fill-rule:nonzero;stroke:none"/>
		
		
		<path animation_id="46" d="m 88.949342,423.61349 c 0.301,0 0.563,0.286 0.563,0.638 0,0.346 -0.228,0.626 -0.529,0.626 -0.312,0 -0.557,-0.293 -0.557,-0.652 0,-0.319 0.233,-0.612 0.523,-0.612" id="path3515" style="fill:#58b33f;fill-opacity:1;fill-rule:nonzero;stroke:none"/>
		
	
	</g>
	

</svg>
