<?xml version="1.0" encoding="iso-8859-1"?>
<svg height="219" viewBox="-138.9992825 -54.7499975 833.995695 328.499985" width="555.99713" xmlns="http://www.w3.org/2000/svg">
	
	
  
	
	<path animation_id="0" d="m0 0h5.62v-5.797h-5.62v-18.677h-7.126v41.422h12.746v-5.797h-5.62zm12.151-8.686h3.5l-1.751 19.615zm4.016-5.798h-4.534l-.891-9.99h-6.315l4.651 41.422h9.645l4.652-41.422h-6.315zm-39.214 31.432h14.617v-5.797h-3.745v-35.625h-7.126v35.625h-3.746zm-30.947 0h12.745v-5.797h-5.619v-11.151h5.619v-5.797h-5.619v-12.881h5.619v-5.796h-12.745zm-1.08 0-4.964-41.422h-7.297l-2.53 18.202-2.53-18.202h-7.298l-4.963 41.422h6.88l2.065-22.865 2.619 22.865h6.454l2.619-22.865 2.065 22.865zm15.739-5.511c0 3.345 2.742 6.057 6.125 6.057h3.1c3.384 0 6.127-2.712 6.127-6.057v-8.417h-6.699v7.897c0 .466-.383.845-.855.845h-.245c-.472 0-.855-.379-.855-.845v-6.546c0-.577.209-1.11.555-1.522l6.89-8.207c.753-.839 1.209-1.944 1.209-3.153v-10.491c0-3.345-2.743-6.056-6.126-6.056h-3.101c-3.383 0-6.125 2.711-6.125 6.056v10.912h6.699l-.001-10.39c0-.468.383-.847.856-.847h.245c.471 0 .854.379.854.847v8.934c0 .581-.21 1.112-.56 1.525l-6.975 8.309c-.698.826-1.118 1.889-1.118 3.049z" fill="#005da9" fill-rule="evenodd" transform="matrix(5.1466441 0 0 -5.1466441 435.694303 90.03539)"/>
	
	


</svg>
