<?xml version="1.0" encoding="iso-8859-1"?>
<!DOCTYPE svg
  PUBLIC '-//W3C//DTD SVG 1.0//EN'
  'http://www.w3.org/TR/2001/REC-SVG-20010904/DTD/svg10.dtd'>
<!-- Created with Inkscape (http://www.inkscape.org/) -->
<svg height="500" id="svg2" version="1.1" viewBox="-200.0 -125.0 1200.0 750.0" width="800" xmlns="http://www.w3.org/2000/svg" xmlns:svg="http://www.w3.org/2000/svg">
	
	
  
	
	<defs id="defs4"/>
	
	
  
	
	<g id="layer1" transform="translate(0,-552.36218)">
		
		
    
		
		<path animation_id="0" d="M 540.33711,663.69083 521.0068,645.54404 c -7.76395,-7.28859 -26.05763,-8.12635 -38.2661,2.36696 -12.20843,10.49332 -11.14794,34.61355 0.39453,46.15601 l 46.92557,46.03479 c 11.54247,11.54247 12.60297,35.66269 0.39453,46.15601 -12.20846,10.49331 -30.50215,9.65555 -38.26609,2.36696 L 460.5298,758.90374" id="path2844-1" style="fill:none;stroke:#000000;stroke-width:9.37274265;stroke-linecap:round;stroke-linejoin:miter;stroke-miterlimit:4;stroke-opacity:1;stroke-dasharray:none"/>
		
		
    
		
		<path animation_id="1" d="m 641.36218,679.93776 -14.67946,-11.48233 c -7.83574,-6.12912 -26.3943,-6.27193 -38.71568,2.55217 -12.32134,8.82406 -11.25104,29.10733 0.39819,38.81368 l 42.6256,34.37229 c 11.64923,9.70634 8.04575,23.55282 -1.57434,35.26325 -11.13784,13.55802 -35.21545,8.6552 -41.38147,1.59593 L 573.4406,764.34402" id="path2844-1-7" style="fill:none;stroke:#000000;stroke-width:8.63463783;stroke-linecap:round;stroke-linejoin:miter;stroke-miterlimit:4;stroke-opacity:1;stroke-dasharray:none"/>
		
		
    
		
		<path animation_id="2" d="m 418.43791,633.70914 0,159.37634" id="path3663" style="fill:none;stroke:#000000;stroke-width:9.37274265;stroke-linecap:round;stroke-linejoin:miter;stroke-miterlimit:4;stroke-opacity:1;stroke-dasharray:none"/>
		
		
    
		
		<path animation_id="3" d="m 367.94245,634.89264 -67.85328,9.46791 -1.1835,142.80748 67.85328,3.55045" id="path3665" style="fill:none;stroke:#000000;stroke-width:9.37274265;stroke-linecap:round;stroke-linejoin:round;stroke-miterlimit:4;stroke-opacity:1;stroke-dasharray:none"/>
		
		
    
		
		<path animation_id="4" d="m 300.48366,707.08538 66.66979,1.57799" id="path3667" style="fill:none;stroke:#000000;stroke-width:9.37274265;stroke-linecap:round;stroke-linejoin:miter;stroke-miterlimit:4;stroke-opacity:1;stroke-dasharray:none"/>
		
		
    
		
		<path animation_id="5" d="m 174.24498,668.03028 75.74322,-16.17432 -76.13769,125.44966 80.87161,10.6514" id="path3669" style="fill:none;stroke:#000000;stroke-width:9.37274265;stroke-linecap:round;stroke-linejoin:round;stroke-miterlimit:4;stroke-opacity:1;stroke-dasharray:none"/>
		
		
    
		
		<path animation_id="6" d="m 223.55697,857.3883 0,95.46797" id="path3671" style="fill:#ff0000;stroke:#000000;stroke-width:9.37274265;stroke-linecap:round;stroke-linejoin:miter;stroke-miterlimit:4;stroke-opacity:1;stroke-dasharray:none;stroke-dashoffset:0"/>
		
		
    
		
		<path animation_id="7" d="m 275.23593,858.57179 0,87.18356" id="path3671-4" style="fill:#ff0000;stroke:#000000;stroke-width:9.37274265;stroke-linecap:round;stroke-linejoin:miter;stroke-miterlimit:4;stroke-opacity:1;stroke-dasharray:none;stroke-dashoffset:0"/>
		
		
    
		
		<path animation_id="8" d="M 346.63964,866.4617 276.4194,910.64522" id="path3671-9" style="fill:#ff0000;stroke:#000000;stroke-width:9.37274265;stroke-linecap:round;stroke-linejoin:miter;stroke-miterlimit:4;stroke-opacity:1;stroke-dasharray:none;stroke-dashoffset:0"/>
		
		
    
		
		<path animation_id="9" d="m 306.00658,893.2874 37.4771,45.76151" id="path3671-8" style="fill:#ff0000;stroke:#000000;stroke-width:9.37274265;stroke-linecap:round;stroke-linejoin:miter;stroke-miterlimit:4;stroke-opacity:1;stroke-dasharray:none;stroke-dashoffset:0"/>
		
		
    
		
		<path animation_id="10" d="m 504.04351,946.54435 0,-78.11018 78.11015,80.47714 0,-90.33955" id="path3731" style="fill:none;stroke:#000000;stroke-width:9.37274265;stroke-linecap:round;stroke-linejoin:round;stroke-miterlimit:4;stroke-opacity:1;stroke-dasharray:none"/>
		
		
    
		
		<path animation_id="11" d="m 563.03376,480.36331 a 13.258252,12.12183 0 1 1 -26.5165,0 13.258252,12.12183 0 1 1 26.5165,0 z" id="path3733" style="fill:none;stroke:#000000;stroke-width:3;stroke-linecap:round;stroke-linejoin:round;stroke-miterlimit:4;stroke-opacity:1;stroke-dasharray:none;stroke-dashoffset:0" transform="matrix(3.1242474,0,0,3.1242474,-1296.0409,-596.04605)"/>
		
		
    
		
		<path animation_id="12" d="m 31.302064,690.43836 0,282.29806 51.326918,39.05308 c 216.642978,-48.66399 430.889338,-55.38709 641.586548,0 l 50.21113,-39.05308 0,-282.29806 c -249.21144,-121.76327 -496.88856,-119.24472 -743.124596,0 z" id="path3737" style="fill:none;stroke:#000000;stroke-width:9.37274265;stroke-linecap:butt;stroke-linejoin:miter;stroke-miterlimit:4;stroke-opacity:1;stroke-dasharray:none"/>
		
		
    
		
		<path animation_id="13" d="m 30.18627,804.25022 c 248.45206,37.19342 496.90412,37.19342 745.35618,0" id="path3739" style="fill:none;stroke:#000000;stroke-width:9.37274265;stroke-linecap:butt;stroke-linejoin:miter;stroke-miterlimit:4;stroke-opacity:1;stroke-dasharray:none"/>
		
		
  
	
	</g>
	
	


</svg>
