<?xml version="1.0" encoding="iso-8859-1"?>
<!-- Generator: Adobe Illustrator 15.0.0, SVG Export Plug-In . SVG Version: 6.00 Build 0)  -->
<!DOCTYPE svg
  PUBLIC '-//W3C//DTD SVG 1.1//EN'
  'http://www.w3.org/Graphics/SVG/1.1/DTD/svg11.dtd'>
<svg enable-background="new 0 0 595.275 147.402" height="147.402px" version="1.1" viewBox="-148.81875 -36.8505 892.9124999999999 221.10299999999998" width="595.275px" x="0px" xml:space="preserve" xmlns="http://www.w3.org/2000/svg" xmlns:xlink="http://www.w3.org/1999/xlink" y="0px">
	
	
	
	

	
	
	
	<g id="Hintergrund">
</g>
	
	
	
	

	
	
	
	<g display="none" id="Hilfslinien">
</g>
	
	
	
	

	
	
	
	<g id="Vordergrund">
		
		
		
		
	
		
		
		
		<g>
			
			
			
			
		
			
			
			
			<g>
				
				
				
				
			
				
				
				
				<path animation_id="0" d="M23.281,52.494c0.379,1.362,0.606,2.423,0.683,3.634c1.742-2.119,5.604-3.634,9.542-3.634     c2.727,0,5.529,0.908,7.649,2.347c4.166,2.803,7.195,7.801,7.195,16.738c0,8.331-1.363,12.572-5.378,16.889     c-2.65,2.803-6.134,4.393-10.375,4.393c-3.029,0-5.908-0.757-8.104-2.045c0.151,0.908,0.151,2.045,0.151,3.182v12.117     l-9.77,2.575V63.854c0-5.075-0.076-6.514-0.606-9.771L23.281,52.494z M30.325,84.833c4.999,0,6.968-3.408,6.968-12.27     c0-3.711-0.303-6.665-0.985-8.558c-0.756-2.121-2.347-3.257-4.847-3.257c-2.499,0-4.923,1.06-6.739,2.953v18.858     C26.085,83.696,28.28,84.833,30.325,84.833z" fill="#9D9D9C">
					<animate attributeName = "opacity" begin = "0" dur = "4.222109257625241" from = "0" to = "1.0" fill = "freeze"/>
				</path>
				
				
				
				
			
				
				
				
				<path animation_id="1" d="M64.707,52.342c0.908,1.591,1.438,3.333,1.591,5.528c1.438-1.968,3.862-4.089,5.755-4.923     c0.834-0.378,2.197-0.605,3.333-0.605c1.515,0,2.196,0.152,3.787,0.833l-2.802,8.938c-0.985-0.53-1.818-0.758-2.954-0.758     c-2.272,0-4.317,1.061-6.211,3.257v27.416H57.059V66.126c0-5.226-0.606-9.164-1.439-11.36L64.707,52.342z" fill="#9D9D9C"/>
				
				
				
				
			
				
				
				
				<path animation_id="2" d="M96.288,42.572c0,3.484-2.803,6.286-6.286,6.286c-3.408,0-6.211-2.802-6.211-6.286     c0-3.483,2.879-6.286,6.361-6.286C93.561,36.286,96.288,39.089,96.288,42.572z M95.075,52.342v39.686H84.928V53.933     L95.075,52.342z" fill="#9D9D9C"/>
				
				
				
				
			
				
				
				
				<path animation_id="3" d="M114.614,52.569c0.681,1.061,0.984,1.969,1.363,3.938c2.65-2.575,5.906-3.938,9.467-3.938     c3.181,0,5.832,1.061,7.876,3.181c0.53,0.53,1.062,1.212,1.515,1.894c3.56-3.635,6.74-5.074,10.982-5.074     c3.029,0,5.907,0.909,7.649,2.424c2.195,1.893,2.877,4.165,2.877,9.467v27.567h-9.846V66.429c0-4.62-0.53-5.528-3.181-5.528     c-1.894,0-4.544,1.287-6.74,3.257v27.87h-9.618v-25.22c0-4.847-0.682-5.982-3.484-5.982c-1.893,0-4.468,0.983-6.664,2.953v28.249     h-9.921V64.99c0-5.605-0.379-8.028-1.439-9.922L114.614,52.569z" fill="#9D9D9C">
					<animateTransform attributeName = "transform" attributeType = "XML" type = "rotate" begin = "0" dur = "4.540564425976676" from = "-158 130.8965 72.2985" to = "0 130.8965 72.2985" fill = "freeze"/>
				</path>
				
				
				
				
			
				
				
				
				<path animation_id="4" d="M198.224,87.711c-4.469,3.635-9.164,5.377-14.617,5.377c-11.133,0-18.328-7.877-18.328-20.07     c0-6.968,1.438-11.587,4.847-15.374c3.181-3.56,7.044-5.226,12.194-5.226c4.468,0,8.709,1.515,11.208,4.09     c3.561,3.635,5.15,8.861,5.15,16.965c0,0.833,0,1.666,0,2.348h-22.417v0.303c0,5.982,2.953,9.391,8.18,9.391     c3.482,0,6.739-1.287,9.844-3.861L198.224,87.711z M188.15,68.398v-0.455c0-2.878-0.304-4.393-1.212-5.831     c-0.983-1.515-2.424-2.272-4.468-2.272c-3.863,0-6.06,3.029-6.06,8.406v0.152H188.15z" fill="#9D9D9C">
					<animateTransform attributeName = "transform" attributeType = "XML" type = "translate" begin = "0" dur = "2.0246706872520717" from = "181.97849999999988 72.753" to = "0 0" fill = "freeze"/>
					<animateTransform attributeName = "transform" attributeType = "XML" type = "scale" begin = "0" dur = "2.0246706872520717" from = "0" to = "1" fill = "freeze" additive="sum" />
				</path>
				
				
				
				
		
			
			
			
			</g>
			
			
			
			
		
			
			
			
			<g>
				
				
				
				
			
				
				
				
				<polyline animation_id="11" clip-rule="evenodd" fill="#164194" fill-rule="evenodd" points="212.872,55.065 214.138,48.603 215.626,47.488      216.823,46.364 218.083,45.067 219.169,43.708 220.199,42.23 221.056,40.689 221.911,39.148 222.94,37.672 223.796,36.13      224.826,34.653 226.435,33.483 227.986,32.196 229.538,30.909 230.972,29.677 232.468,28.271 234.021,26.983 235.628,25.814      237.235,24.645 238.845,23.477 240.682,22.487 242.743,21.972 244.859,21.572 246.856,21.227 248.974,20.828 251.035,20.312      253.032,19.967 255.094,19.45 257.216,18.761 259.221,18.127 261.289,17.32 262.402,17.238 263.517,17.156 264.456,17.012      265.515,16.812 266.691,16.559 267.693,16.24 268.696,15.924 269.755,15.724 270.876,15.352 271.935,15.152 273.626,15.379      275.199,15.66 276.946,16.005 278.521,16.286 280.213,16.512 281.849,16.621 283.485,16.729 285.128,16.548 286.771,16.366      288.365,15.777 291.011,15.278 292.744,16.202 294.541,16.954 296.338,17.707 298.197,18.287 299.938,18.921 301.797,19.502      303.774,20.026 305.634,20.607 307.375,21.241 309.29,21.939 310.794,22.683 312.298,23.425 313.803,24.168 315.243,25.084      316.566,26.054 317.891,27.023 319.095,28.048 320.237,29.244 321.379,30.44 322.285,31.745 323.532,33.468 324.897,35.135      326.388,36.459 328.053,37.845 329.779,39.061 331.389,40.329 333.116,41.543 334.897,42.875 336.389,44.198 337.935,45.64      338.965,46.601 340.246,46.872 341.466,47.316 342.747,47.588 343.911,47.914 345.192,48.186 346.417,48.34 347.586,48.377      348.874,48.358 350.106,48.223 351.227,47.851 352.808,47.841 352.272,48.231 351.791,48.738 351.604,49.256 351.297,49.826      351.166,50.461 351.207,51.159 351.194,51.738 351.235,52.437 351.103,53.071 351.09,53.651 350.777,54.512 350.583,55.319      350.271,56.181 349.956,57.041 349.587,57.784 349.219,58.528 348.906,59.389 348.48,60.015 348.112,60.758 347.625,61.556      341.425,66.414 340.811,67.556 340.024,68.635 339.358,69.659 338.626,70.855 337.96,71.88 337.173,72.959 336.441,74.154      335.774,75.18 334.988,76.259 334.376,77.4 334.3,78.152 334.049,78.842 333.165,79.104 332.593,78.507 332.37,78.035      332.147,77.564 331.862,77.265 331.458,77.021 331.026,75.497 330.768,74.037 330.454,72.461 330.139,70.884 329.882,69.424      329.567,67.847 329.073,66.497 328.522,65.027 327.68,63.551 326.655,62.301 326.271,61.186 325.943,60.188 325.562,59.073      325.115,58.131 324.731,57.016 324.168,56.128 323.603,55.239 322.802,54.46 322.001,53.681 321.019,53.128 319.703,51.868      318.149,50.717 316.471,49.911 314.619,49.04 312.823,48.288 311.026,47.536 309.174,46.666 307.495,45.859 305.941,44.708      304.625,43.449 303.873,43.077 302.948,42.642 302.077,42.324 301.207,42.008 300.162,41.627 299.292,41.31 298.421,40.993      297.496,40.558 296.743,40.186 295.936,39.697 293.025,39.026 290.226,38.591 287.364,38.328 284.502,38.066 281.696,37.921      278.884,38.066 276.015,38.094 273.14,38.411 270.383,38.674 267.508,38.991 266.394,39.073 265.273,39.445 264.271,39.762      263.323,40.197 262.259,40.688 261.312,41.122 260.364,41.558 259.3,42.047 258.298,42.364 257.12,42.617 256.467,43.062      255.639,43.442 254.983,43.887 254.156,44.268 253.502,44.712 252.729,45.21 252.074,45.654 251.475,46.217 250.821,46.66      250.224,47.223 249.549,48.537 248.699,49.788 247.676,50.976 246.66,51.873 245.525,52.825 244.272,53.831 242.908,54.602      241.662,55.317 240.123,56.024 238.704,56.677 237.743,57.693 236.957,58.771 236.107,60.021 235.378,61.219 234.646,62.415      233.915,63.612 233.186,64.808 232.281,65.941 231.32,66.957 230.305,67.854 230.465,68.497 230.806,68.914 231.321,69.395      231.836,69.875 232.757,70.6 232.729,71.76 232.054,73.075 231.379,74.39 230.593,75.468 229.632,76.483 228.616,77.381      227.426,78.215 226.18,78.931 224.934,79.647 223.688,80.362 222.268,81.016 222.547,81.604 223.117,82.203 221.718,81.985      220.556,81.659 219.398,81.043 218.306,80.255 217.33,79.411 216.474,78.514 215.562,77.499 214.767,76.43 213.911,75.532      213.116,74.463 212.273,72.986 211.604,71.571 211.173,70.049 210.914,68.59 210.893,67.021 210.871,65.453 211.023,63.948      211.058,62.498 211.154,60.876 211.308,59.371 212.872,55.065    "/>
				
				
				
				
			
				
				
				
				<polyline animation_id="12" clip-rule="evenodd" fill="#164194" fill-rule="evenodd" points="240.41,95.916 241.064,95.471 241.719,95.027      242.262,94.348 242.741,93.84 243.111,93.097 243.535,92.471 243.904,91.728 244.328,91.102 244.871,90.422 245.296,89.797      246.709,89.435 248.052,89.534 249.333,89.806 250.489,90.422 251.583,91.21 252.558,92.054 253.472,93.068 254.383,94.083      255.358,94.927 256.215,95.824 256.55,96.53 256.766,97.292 256.863,98.107 256.731,98.742 257.985,100.175 259.476,101.497      261.028,102.649 262.699,103.745 264.435,104.67 266.405,105.485 268.265,106.065 270.122,106.646 272.163,106.998      274.148,107.234 274.775,107.95 275.52,108.612 276.39,108.929 277.316,109.364 278.131,109.563 279.182,109.653      280.115,109.799 281.166,109.89 282.044,109.917 282.922,109.943 283.749,109.563 284.516,109.354 285.281,109.146      286.159,109.173 286.98,109.083 287.794,109.282 288.672,109.309 289.486,109.508 290.302,109.707 291.116,109.907      292.118,109.589 293.121,109.272 294.18,109.073 295.182,108.755 296.185,108.438 297.243,108.238 298.245,107.922      299.303,107.723 300.361,107.523 301.42,107.322 302.735,106.145 304.106,105.084 305.652,104.087 307.252,103.208      308.854,102.329 310.454,101.448 311.999,100.451 313.427,99.509 314.799,98.448 316.114,97.271 317.011,96.427 317.908,95.584      318.807,94.741 319.531,93.834 320.373,92.873 321.215,91.912 321.883,90.889 322.433,89.918 322.87,88.713 323.135,87.444      323.865,86.247 324.185,85.097 324.156,83.818 323.892,82.649 323.571,81.362 323.188,80.247 322.867,78.96 322.776,77.854      323.096,76.703 323.826,75.507 323.785,74.809 323.917,74.174 325.504,73.875 325.596,74.981 325.859,76.15 326.243,77.265      326.509,78.435 326.892,79.55 327.275,80.664 327.776,81.724 328.334,82.902 328.836,83.963 329.337,85.023 328.97,85.767      328.893,86.519 328.936,87.217 329.15,87.979 329.485,88.685 329.701,89.446 330.036,90.154 330.195,90.797 330.119,91.549      330.042,92.302 329.778,93.571 329.515,94.84 329.251,96.108 328.932,97.261 328.667,98.529 328.577,99.861 328.432,101.076      328.404,102.236 328.433,103.515 328.461,104.792 327.793,105.816 327.243,106.786 326.631,107.929 326.137,109.017      325.643,110.104 325.204,111.31 324.71,112.396 324.043,113.422 323.319,114.328 322.539,115.117 321.53,115.725      320.465,116.214 319.4,116.702 318.217,117.246 317.152,117.736 316.143,118.345 315.251,118.896 314.298,119.622      313.519,120.41 312.969,121.381 311.591,122.731 310.101,123.847 308.437,124.897 306.662,125.713 304.832,126.411      303.057,127.228 301.226,127.926 299.395,128.624 297.676,129.558 296.012,130.609 293.54,131.172 291.187,131.679      288.841,131.896 286.376,132.169 283.918,132.15 281.516,132.251 279.121,132.061 276.607,131.925 274.213,131.734      271.945,131.451 270.358,131.164 268.955,130.9 267.918,130.61 266.581,130.221 265.362,129.777 264.089,129.216      262.869,128.771 261.596,128.21 260.32,127.647 259.399,127.279 258.852,126.461 258.434,125.789 255.822,124.838      253.336,123.542 251.086,122.138 248.837,120.731 246.832,118.929 244.944,117.07 243.236,114.986 241.768,112.793      240.479,110.373 239.37,107.726 238.763,101.263 240.41,95.916    "/>
				
				
				
				
			
				
				
				
				<polyline animation_id="13" clip-rule="evenodd" fill="#164194" fill-rule="evenodd" points="261.769,72.284 261.283,71.919 260.707,71.382      260.262,70.783 259.924,70.163 259.722,69.642 259.475,69.006 259.337,68.374 259.22,67.761 259.121,66.945 259.143,66.075      259.337,65.269 259.649,64.408 260.018,63.665 260.332,62.803 260.645,61.942 260.839,61.136 261.668,60.754 262.495,60.374      263.379,60.111 264.265,59.848 265.335,59.068 266.353,58.171 267.423,57.392 268.495,56.612 269.567,55.832 270.695,55.171      271.879,54.627 273.174,54.319 274.579,54.245 275.924,54.346 276.446,54.535 277.03,54.554 277.616,54.572 278.263,54.418      278.792,54.317 279.259,54.39 279.781,54.581 280.186,54.825 282.052,55.115 283.98,55.233 285.908,55.351 287.837,55.469      289.765,55.587 291.75,55.821 293.616,56.111 295.594,56.637 297.564,57.453 299.473,58.441 300.392,59.166 301.373,59.719      302.411,60.39 303.393,60.942 304.375,61.495 305.476,61.993 306.458,62.546 307.558,63.045 308.658,63.544 309.759,64.041      309.751,64.332 309.919,64.686 310.621,64.648 311.213,64.377 311.805,64.104 312.342,63.715 312.877,63.325 313.412,62.937      314.004,62.663 314.596,62.392 314.396,63.488 313.901,64.576 313.413,65.374 312.689,66.281 312.085,67.133 311.131,67.857      310.352,68.646 309.517,69.317 308.682,69.987 307.901,70.775 306.989,72.2 306.022,73.504 304.999,74.692 303.858,75.935      302.662,77.058 301.464,78.182 300.211,79.188 298.958,80.195 297.588,81.255 296.335,82.261 294.929,82.334 293.459,82.578      292.163,82.887 290.75,83.25 289.394,83.73 288.036,84.211 286.56,84.745 285.203,85.227 283.782,85.878 282.426,86.359      280.308,86.758 278.254,86.984 276.034,86.858 273.875,86.559 271.724,85.97 269.635,85.209 267.727,84.221 265.763,83.115      264.079,81.803 262.552,80.288 261.993,79.552 261.555,78.737 261.264,77.867 261.165,77.052 261.13,76.365 261.138,75.773      261.27,75.139 261.401,74.504 261.502,73.744 261.562,73.075    "/>
				
				
				
				
		
			
			
			
			</g>
			
			
			
			
		
			
			
			
			<g>
				
				
				
				
			
				
				
				
				<path animation_id="5" d="M370.316,52.494c0.379,1.362,0.607,2.423,0.682,3.634c1.743-2.119,5.606-3.634,9.543-3.634     c2.727,0,5.53,0.908,7.649,2.347c4.166,2.803,7.195,7.801,7.195,16.738c0,8.331-1.362,12.572-5.378,16.889     c-2.65,2.803-6.135,4.393-10.374,4.393c-3.029,0-5.909-0.757-8.104-2.045c0.152,0.908,0.152,2.045,0.152,3.182v12.117     l-9.771,2.575V63.854c0-5.075-0.074-6.514-0.605-9.771L370.316,52.494z M377.361,84.833c4.997,0,6.967-3.408,6.967-12.27     c0-3.711-0.303-6.665-0.984-8.558c-0.757-2.121-2.348-3.257-4.847-3.257c-2.5,0-4.923,1.06-6.741,2.953v18.858     C373.12,83.696,375.315,84.833,377.361,84.833z" fill="#9D9D9C"/>
				
				
				
				
			
				
				
				
				<path animation_id="6" d="M434.464,87.711c-4.47,3.635-9.164,5.377-14.618,5.377c-11.132,0-18.327-7.877-18.327-20.07     c0-6.968,1.438-11.587,4.847-15.374c3.18-3.56,7.043-5.226,12.194-5.226c4.468,0,8.709,1.515,11.208,4.09     c3.561,3.635,5.149,8.861,5.149,16.965c0,0.833,0,1.666,0,2.348h-22.416v0.303c0,5.982,2.953,9.391,8.179,9.391     c3.483,0,6.739-1.287,9.845-3.861L434.464,87.711z M424.39,68.398v-0.455c0-2.878-0.303-4.393-1.212-5.831     c-0.983-1.515-2.423-2.272-4.468-2.272c-3.863,0-6.06,3.029-6.06,8.406v0.152H424.39z" fill="#9D9D9C"/>
				
				
				
				
			
				
				
				
				<path animation_id="7" d="M471.648,58.325c3.105,3.636,4.47,7.876,4.47,14.162c0,6.665-1.515,11.209-4.849,14.996     c-2.953,3.332-6.816,5.377-12.799,5.377c-10.527,0-17.42-7.876-17.42-20.069s6.969-20.297,17.42-20.297     C463.998,52.494,468.316,54.388,471.648,58.325z M453.397,63.93c-0.684,2.045-1.062,4.771-1.062,8.634     c0,4.469,0.454,7.8,1.288,9.77c0.909,2.121,3.182,3.181,5.149,3.181c4.394,0,6.287-3.938,6.287-13.102     c0-5.226-0.682-8.634-2.046-10.376c-0.983-1.287-2.575-2.045-4.392-2.045C456.198,59.991,454.229,61.506,453.397,63.93z" fill="#9D9D9C"/>
				
				
				
				
			
				
				
				
				<path animation_id="8" d="M493.457,52.494c0.381,1.362,0.607,2.423,0.684,3.634c1.741-2.119,5.604-3.634,9.543-3.634     c2.725,0,5.528,0.908,7.647,2.347c4.166,2.803,7.195,7.801,7.195,16.738c0,8.331-1.362,12.572-5.378,16.889     c-2.648,2.803-6.133,4.393-10.374,4.393c-3.029,0-5.909-0.757-8.104-2.045c0.152,0.908,0.152,2.045,0.152,3.182v12.117     l-9.77,2.575V63.854c0-5.075-0.076-6.514-0.607-9.771L493.457,52.494z M500.502,84.833c4.999,0,6.969-3.408,6.969-12.27     c0-3.711-0.305-6.665-0.986-8.558c-0.757-2.121-2.348-3.257-4.847-3.257c-2.5,0-4.923,1.06-6.739,2.953v18.858     C496.261,83.696,498.456,84.833,500.502,84.833z" fill="#9D9D9C"/>
				
				
				
				
			
				
				
				
				<path animation_id="9" d="M537.08,46.057v30.218c0,6.665,0.076,7.573,0.681,8.634c0.379,0.682,1.212,1.061,2.046,1.061     c0.379,0,0.605,0,1.136-0.151l1.741,6.059c-1.741,0.682-3.86,1.061-6.059,1.061c-4.315,0-7.8-2.045-9.012-5.302     c-0.758-1.969-0.91-3.181-0.91-8.71V49.994c0-5.074-0.15-8.18-0.529-11.663l10.375-2.348     C536.93,38.104,537.08,40.604,537.08,46.057z" fill="#9D9D9C"/>
				
				
				
				
			
				
				
				
				<path animation_id="10" d="M580.551,87.711c-4.468,3.635-9.164,5.377-14.616,5.377c-11.134,0-18.329-7.877-18.329-20.07     c0-6.968,1.438-11.587,4.847-15.374c3.182-3.56,7.045-5.226,12.194-5.226c4.468,0,8.709,1.515,11.21,4.09     c3.559,3.635,5.149,8.861,5.149,16.965c0,0.833,0,1.666,0,2.348h-22.418v0.303c0,5.982,2.953,9.391,8.178,9.391     c3.484,0,6.742-1.287,9.846-3.861L580.551,87.711z M570.479,68.398v-0.455c0-2.878-0.303-4.393-1.212-5.831     c-0.983-1.515-2.425-2.272-4.468-2.272c-3.863,0-6.06,3.029-6.06,8.406v0.152H570.479z" fill="#9D9D9C">
					<animateTransform attributeName = "transform" attributeType = "XML" type = "skewX" begin = "0" dur = "1.2525317068122028" from = "12" to = "0" fill = "freeze"/>
				</path>
				
				
				
				
		
			
			
			
			</g>
			
			
			
			
	
		
		
		
		</g>
		
		
		
		

	
	
	
	</g>
	
	
	
	




</svg>
