<?xml version="1.0" encoding="iso-8859-1"?>
<!-- Generator: Adobe Illustrator 15.0.0, SVG Export Plug-In . SVG Version: 6.00 Build 0)  -->
<!DOCTYPE svg
  PUBLIC '-//W3C//DTD SVG 1.1//EN'
  'http://www.w3.org/Graphics/SVG/1.1/DTD/svg11.dtd'>
<svg enable-background="new 0 0 595.275 204.095" height="204.095px" version="1.1" viewBox="-148.81875 -51.02375 892.9124999999999 306.1425" width="595.275px" x="0px" xml:space="preserve" xmlns="http://www.w3.org/2000/svg" xmlns:xlink="http://www.w3.org/1999/xlink" y="0px">
	
	
	
	

	
	
	
	<g id="Hintergrund">
</g>
	
	
	
	

	
	
	
	<g display="none" id="Hilfslinien">
</g>
	
	
	
	

	
	
	
	<g id="Vordergrund">
		
		
		
		
	
		
		
		
		<g>
			
			
			
			
		
			
			
			
			<polygon animation_id="6" clip-rule="evenodd" fill="#225CAC" fill-rule="evenodd" points="565.582,38.925 581.364,38.925 581.364,17.004     527.88,17.004 527.88,38.925 543.662,38.925 543.662,187.399 565.582,187.399   "/>
			
			
			
			
		
			
			
			
			<path animation_id="0" clip-rule="evenodd" d="M213.313,16.999v143.506c0,4.092-3.216,7.308-7.308,7.308    s-7.306-3.216-7.306-7.308V16.999h-21.922v143.506c0,16.368,13.153,29.229,29.228,29.229c7.015,0,13.444-2.338,18.414-6.43    c4.677,4.092,11.397,6.43,18.121,6.43c16.367,0,29.228-12.86,29.228-29.229V16.999h-21.922v143.506    c0,4.092-3.214,7.308-7.306,7.308s-7.308-3.216-7.308-7.308V16.999H213.313z" fill="#225CAC" fill-rule="evenodd"/>
			
			
			
			
		
			
			
			
			<polygon animation_id="7" clip-rule="evenodd" fill="#225CAC" fill-rule="evenodd" points="121.926,107.024 121.932,99.901 121.932,91.105     121.926,85.104 121.926,38.925 149.511,38.925 149.511,16.993 100.004,17.004 100.004,187.399 149.511,187.407 149.511,165.474     121.926,165.479   "/>
			
			
			
			
		
			
			
			
			<circle animation_id="3" clip-rule="evenodd" cx="137.252" cy="96.056" fill="#225CAC" fill-rule="evenodd" r="12.058">
				<animate attributeName = "fill" begin = "0" dur = "2.018747423269561" from = "#000000" to = "#47c09d" fill = "remove"/>
				<animate attributeName = "fill" begin = "2.018747423269561" dur = "3.6324515407813407" from = "#47c09d" to = "#000000" fill = "freeze"/>
			</circle>
			
			
			
			
		
			
			
			
			<path animation_id="1" clip-rule="evenodd" d="M61.278,20.722c0.909,0.721,1.212,1.004,1.742,1.496l1.306,1.27    c1.269,1.361,2.385,2.764,3.616,4.732c1.186,1.895,2.304,4.416,2.989,6.59c0.323,1.02,1.155,4.068,1.326,6.738    c0.094,1.286,0.057,1.002,0.111,2.041v143.505H50.447V43.589c0-4.093-3.216-7.309-7.306-7.309c-4.094,0-7.308,3.216-7.308,7.309    v143.505H13.912V43.589c0-16.368,12.586-29.287,29.229-29.229C50.39,14.386,56.449,16.767,61.278,20.722z" fill="#225CAC" fill-rule="evenodd">
				<animateTransform attributeName = "transform" attributeType = "XML" type = "skewY" begin = "0" dur = "3.3776874061001925" from = "-10" to = "0" fill = "freeze"/>
			</path>
			
			
			
			
		
			
			
			
			<g>
				
				
				
				
			
				
				
				
				<polygon animation_id="8" clip-rule="evenodd" fill="#225CAC" fill-rule="evenodd" points="481.765,107.024 481.769,99.901 481.769,91.105      481.765,85.104 481.765,38.925 509.349,38.925 509.349,16.993 459.842,17.004 459.842,187.399 509.349,187.407 509.349,165.474      481.765,165.479    "/>
				
				
				
				
			
				
				
				
				<circle animation_id="4" clip-rule="evenodd" cx="497.09" cy="96.056" fill="#225CAC" fill-rule="evenodd" r="12.058"/>
				
				
				
				
		
			
			
			
			</g>
			
			
			
			
		
			
			
			
			<path animation_id="2" clip-rule="evenodd" d="M421.116,20.722c0.906,0.721,1.211,1.004,1.741,1.496l1.307,1.27    c1.269,1.361,2.385,2.764,3.617,4.732c1.183,1.895,2.303,4.416,2.989,6.59c0.32,1.02,1.152,4.068,1.324,6.738    c0.094,1.286,0.058,1.002,0.109,2.041v143.505h-21.92V43.589c0-4.093-3.216-7.309-7.307-7.309c-4.093,0-7.306,3.216-7.306,7.309    v143.505H373.75V43.589c0-16.368,12.586-29.287,29.228-29.229C410.229,14.386,416.286,16.767,421.116,20.722z" fill="#225CAC" fill-rule="evenodd"/>
			
			
			
			
		
			
			
			
			<circle animation_id="5" clip-rule="evenodd" cx="321.442" cy="96.044" fill="#225CAC" fill-rule="evenodd" r="12.058">
				<animate attributeName = "opacity" begin = "0" dur = "1.6197365498016572" from = "0" to = "1.0" fill = "freeze"/>
			</circle>
			
			
			
			
	
		
		
		
		</g>
		
		
		
		

	
	
	
	</g>
	
	
	
	




</svg>
