<?xml version="1.0" encoding="iso-8859-1"?>
<!-- Generator: Adobe Illustrator 15.0.0, SVG Export Plug-In . SVG Version: 6.00 Build 0)  -->
<!DOCTYPE svg
  PUBLIC '-//W3C//DTD SVG 1.1//EN'
  'http://www.w3.org/Graphics/SVG/1.1/DTD/svg11.dtd'>
<svg enable-background="new 0 0 595.275 121.89" height="121.89px" version="1.1" viewBox="-148.81875 -30.4725 892.9124999999999 182.835" width="595.275px" x="0px" xml:space="preserve" xmlns="http://www.w3.org/2000/svg" xmlns:xlink="http://www.w3.org/1999/xlink" y="0px">
	
	
	
	

	
	
	
	<g id="Hintergrund">
</g>
	
	
	
	

	
	
	
	<g display="none" id="Hilfslinien">
</g>
	
	
	
	

	
	
	
	<g id="Vordergrund">
		
		
		
		
	
		
		
		
		<g>
			
			
			
			
		
			
			
			
			<path animation_id="0" clip-rule="evenodd" d="M104.073,105.211h51.037l0.928-5.121h-4.091    c-1.656-0.004-2.271-0.009-11.437-0.009l-24.998,0.009c0.057-2.924,0.004-0.009,0.004-7.638V61.541h16.706    c11.18,0,12.065,0.012,12.891,0.005h3.028v-5.133h-3.028c-1.349-0.004-1.973-0.002-12.891-0.002h-16.706V30.498    c-0.002-7.742,0.002-6.645-0.004-8.68l21.84-0.001c10.918,0,11.04,0.002,12.099,0.001h4.072l-0.648-5.131l-48.8-0.004v2.249    c-0.011,2.698-0.001,4.068-0.001,11.565V105.211z" fill="#225CAC" fill-rule="evenodd">
				<animateTransform attributeName = "transform" attributeType = "XML" type = "translate" begin = "0" dur = "1.6197365498016572" from = "130.05391883454732 60.947" to = "0 0" fill = "freeze"/>
				<animateTransform attributeName = "transform" attributeType = "XML" type = "scale" begin = "0" dur = "1.6197365498016572" from = "0" to = "1" fill = "freeze" additive="sum" />
			</path>
			
			
			
			
		
			
			
			
			<path animation_id="1" clip-rule="evenodd" d="M14.366,61.546h6.839l-0.001-21.155h0.265    c29.875,36.547,30.609,37.428,54.455,66.586V16.688h-6.84V81.43h-0.264C52.158,60.996,46.882,54.49,14.366,14.913V61.546z" fill="#225CAC" fill-rule="evenodd"/>
			
			
			
			
		
			
			
			
			<path animation_id="2" clip-rule="evenodd" d="M446.734,105.211h51.037l0.927-5.121h-4.09    c-1.657-0.004-2.271-0.009-11.438-0.009l-25,0.009c0.06-2.924,0.007-0.009,0.007-7.638V61.541h16.706    c11.18,0,12.064,0.012,12.891,0.005h3.027v-5.133h-3.027c-1.351-0.004-1.974-0.002-12.891-0.002h-16.706V30.498    c-0.002-7.742,0.002-6.645-0.007-8.68l21.843-0.001c10.918,0,11.039,0.002,12.099,0.001h4.072l-0.649-5.131l-48.8-0.004v2.249    c-0.011,2.698-0.001,4.068-0.001,11.565V105.211z" fill="#225CAC" fill-rule="evenodd">
				<animateTransform attributeName = "transform" attributeType = "XML" type = "rotate" begin = "0" dur = "3.6324515407813407" from = "-158 472.71391883454737 60.947" to = "0 472.71391883454737 60.947" fill = "freeze"/>
			</path>
			
			
			
			
		
			
			
			
			<path animation_id="3" clip-rule="evenodd" d="M357.027,61.546h6.838V40.391h0.265    c29.877,36.547,30.608,37.428,54.454,66.586l0.001-90.289h-6.839V81.43h-0.264c-16.664-20.434-21.94-26.939-54.455-66.517V61.546z    " fill="#225CAC" fill-rule="evenodd"/>
			
			
			
			
		
			
			
			
			<polygon animation_id="5" clip-rule="evenodd" fill="#225CAC" fill-rule="evenodd" points="192.835,106.657 202.305,106.657 224.798,28.131     225.061,28.131 249.001,106.657 256.367,106.657 266.835,56.409 259.898,56.409 253.867,85.48 253.605,85.48 232.69,16.688     221.641,16.688 200.99,88.77 200.726,88.77 186.125,16.688 174.581,16.684   ">
				<animateTransform attributeName = "transform" attributeType = "XML" type = "skewY" begin = "0" dur = "3.3776874061001925" from = "-10" to = "0" fill = "freeze"/>
			</polygon>
			
			
			
			
		
			
			
			
			<rect animation_id="6" clip-rule="evenodd" fill="#225CAC" fill-rule="evenodd" height="5.133" width="53.626" x="284.542" y="56.413"/>
			
			
			
			
		
			
			
			
			<path animation_id="4" clip-rule="evenodd" d="M541.446,61.543h11.437l0.01-39.729h11.837    c11.313,0,8.055-0.005,12.107,0.001h4.072l-0.657-5.131h-66.164l-0.649,5.131h4.072c3.686-0.006,1.049-0.001,12.1-0.001h11.837    L541.446,61.543z" fill="#225CAC" fill-rule="evenodd"/>
			
			
			
			
	
		
		
		
		</g>
		
		
		
		

	
	
	
	</g>
	
	
	
	




</svg>
