<?xml version="1.0" encoding="iso-8859-1"?>
<!-- Generator: Adobe Illustrator 15.0.0, SVG Export Plug-In . SVG Version: 6.00 Build 0)  -->
<!DOCTYPE svg
  PUBLIC '-//W3C//DTD SVG 1.1//EN'
  'http://www.w3.org/Graphics/SVG/1.1/DTD/svg11.dtd'>
<svg enable-background="new 0 0 595.276 325.984" height="325.984px" id="Ebene_1" version="1.1" viewBox="-148.819 -81.496 892.914 488.976" width="595.276px" x="0px" xml:space="preserve" xmlns="http://www.w3.org/2000/svg" xmlns:xlink="http://www.w3.org/1999/xlink" y="0px">
	
	
	
	

	
	
	
	<g>
		
		
		
		
	
		
		
		
		<path animation_id="0" d="M150.762,131.896h15.374v54.625c0,23.248-11.249,30.998-27.873,30.998c-4.375,0-9.625-0.75-13-2   l1.875-12.375c2.5,0.875,5.875,1.5,9.5,1.5c8.75,0,14.124-4,14.124-18.623V131.896z" fill="#1B3E90"/>
		
		
		
		
	
		
		
		
		<path animation_id="1" d="M242.386,201.519c0,5.5,0.25,10.875,1,14.625h-13.874l-1.125-6.75h-0.375c-3.625,4.75-10,8.125-18,8.125   c-12.249,0-19.124-8.875-19.124-18.125c0-15.248,13.624-23.123,36.123-22.998v-1c0-4-1.625-10.625-12.374-10.625   c-6,0-12.249,1.875-16.375,4.5l-2.999-10c4.499-2.75,12.374-5.375,21.999-5.375c19.499,0,25.124,12.375,25.124,25.75V201.519z    M198.513,138.146c0-4.373,3.375-7.748,7.874-7.748c4.125,0,7.375,3.25,7.375,7.748c0,4.125-3.125,7.625-7.625,7.625   C201.762,145.771,198.513,142.271,198.513,138.146z M227.386,186.396c-10.874-0.127-21.249,2.123-21.249,11.373   c0,6,3.875,8.75,8.75,8.75c6.25,0,10.625-4,12.124-8.375c0.375-1.125,0.375-2.25,0.375-3.375V186.396z M230.886,145.771   c-4.25,0-7.5-3.5-7.5-7.625c0-4.373,3.376-7.748,7.751-7.748c4.249,0,7.499,3.25,7.499,7.748c0,4.125-3.125,7.625-7.499,7.625   H230.886z" fill="#1B3E90"/>
		
		
		
		
	
		
		
		
		<path animation_id="2" d="M326.51,207.269c0,12.75-2.625,21.873-8.999,27.625c-6.25,5.623-15.125,7.373-23.499,7.373   c-7.751,0-16-1.75-21.25-4.875l3.374-11.623c3.875,2.25,10.375,4.625,17.749,4.625c10.001,0,17.5-5.25,17.5-18.375v-5.25h-0.249   c-3.499,5.375-9.625,9-17.75,9c-15.124,0-25.874-12.5-25.874-29.748c0-20,12.999-32.125,27.624-32.125   c9.376,0,14.749,4.5,17.625,9.5h0.249l0.626-8.125h13.374c-0.249,4.125-0.5,9.125-0.5,17.5V207.269z M311.136,179.646   c0-1.5-0.125-2.875-0.501-4.125c-1.624-5.625-5.999-9.875-12.499-9.875c-8.625,0-15,7.5-15,19.873   c0,10.375,5.25,18.75,14.875,18.75c5.751,0,10.75-3.75,12.5-9.375c0.5-1.5,0.625-3.625,0.625-5.375V179.646z" fill="#1B3E90"/>
		
		
		
		
	
		
		
		
		<path animation_id="3" d="M366.637,190.021c0.375,10.998,8.875,15.748,18.749,15.748c7.125,0,12.126-1.125,16.874-2.75l2.25,10.5   c-5.249,2.25-12.498,3.875-21.248,3.875c-19.75,0-31.375-12.125-31.375-30.75c0-16.873,10.25-32.748,29.75-32.748   c19.748,0,26.248,16.25,26.248,29.623c0,2.877-0.25,5.125-0.499,6.502H366.637z M393.386,179.271   c0.124-5.625-2.375-14.875-12.624-14.875c-9.5,0-13.499,8.625-14.125,14.875H393.386z" fill="#1B3E90"/>
		
		
		
		
	
		
		
		
		<path animation_id="4" d="M433.011,174.896c0-8.25-0.125-14.25-0.499-19.625h13.248l0.626,11.5h0.374   c3-8.5,10.125-12.875,16.749-12.875c1.501,0,2.375,0.125,3.626,0.375v14.375c-1.375-0.25-2.749-0.375-4.625-0.375   c-7.25,0-12.374,4.625-13.749,11.623c-0.25,1.377-0.375,3.002-0.375,4.627v31.623h-15.375V174.896z" fill="#1B3E90"/>
		
		
		
		

	
	
	
	</g>
	
	
	
	

	
	
	
	<rect animation_id="5" fill="#EE7518" height="29.529" width="82.677" x="14.173" y="147.243">
		<animate attributeName = "opacity" begin = "0" dur = "1.0020253654497622" from = "0" to = "1.0" fill = "freeze"/>
	</rect>
	
	
	
	

	
	
	
	<rect animation_id="6" fill="#EE7518" height="31.496" width="31.495" x="125.394" y="237.796"/>
	
	
	
	

	
	
	
	<rect animation_id="7" fill="#EE7518" height="43.307" width="86.614" x="254.331" y="269.292">
		<animateTransform attributeName = "transform" attributeType = "XML" type = "skewY" begin = "0" dur = "1.6197365498016572" from = "-1" to = "0" fill = "freeze"/>
	</rect>
	
	
	
	

	
	
	
	<rect animation_id="8" fill="#EE7518" height="33.465" width="74.803" x="178.937" y="56.692">
		<animateTransform attributeName = "transform" attributeType = "XML" type = "skewY" begin = "0" dur = "3.6324515407813407" from = "10" to = "0" fill = "freeze"/>
	</rect>
	
	
	
	

	
	
	
	<rect animation_id="9" fill="#EE7518" height="27.559" width="53.149" x="527.953" y="162.993">
		<animate attributeName = "opacity" begin = "0" dur = "0.4028048322734632" from = "0" to = "1.0" fill = "freeze"/>
	</rect>
	
	
	
	

	
	
	
	<rect animation_id="10" fill="#EE7518" height="118.111" width="39.37" x="362.598" y="13.386">
		<animate attributeName = "fill" begin = "0" dur = "3.03181761176121" from = "#000000" to = "#6b4282" fill = "remove"/>
		<animate attributeName = "fill" begin = "3.03181761176121" dur = "3.3776874061001925" from = "#6b4282" to = "#000000" fill = "freeze"/>
	</rect>
	
	
	
	

	
	
	
	<rect animation_id="11" fill="#EE7518" height="37.402" width="37.402" x="490.551" y="72.44"/>
	
	
	
	

	
	
	
	<rect animation_id="12" fill="#EE7518" height="74.805" width="31.495" x="474.804" y="216.142">
		<animateTransform attributeName = "transform" attributeType = "XML" type = "rotate" begin = "0" dur = "1.2405902772773305" from = "287 490.5515 253.5445" to = "0 490.5515 253.5445" fill = "freeze"/>
	</rect>
	
	
	
	




</svg>
