<?xml version="1.0" encoding="iso-8859-1"?>
<!-- Generator: Adobe Illustrator 15.0.0, SVG Export Plug-In . SVG Version: 6.00 Build 0)  -->
<!DOCTYPE svg
  PUBLIC '-//W3C//DTD SVG 1.1//EN'
  'http://www.w3.org/Graphics/SVG/1.1/DTD/svg11.dtd'>
<svg enable-background="new 0 0 595.275 235.275" height="235.275px" version="1.1" viewBox="-148.81875 -58.81875 892.9124999999999 352.9125" width="595.275px" x="0px" xml:space="preserve" xmlns="http://www.w3.org/2000/svg" xmlns:xlink="http://www.w3.org/1999/xlink" y="0px">
	
	
	
	

	
	
	
	<g id="Hintergrund">
</g>
	
	
	
	

	
	
	
	<g display="none" id="Hilfslinien">
</g>
	
	
	
	

	
	
	
	<g id="Vordergrund">
		
		
		
		
	
		
		
		
		<g>
			
			
			
			
		
			
			
			
			<g>
				
				
				
				
			
				
				
				
				<path animation_id="0" d="M25.413,149.805c0.477,1.716,0.763,3.052,0.858,4.577c2.192-2.67,7.056-4.577,12.015-4.577     c3.433,0,6.96,1.144,9.631,2.956c5.244,3.527,9.058,9.821,9.058,21.072c0,10.488-1.716,15.828-6.77,21.264     c-3.338,3.528-7.724,5.53-13.063,5.53c-3.815,0-7.438-0.954-10.203-2.573c0.19,1.143,0.19,2.573,0.19,4.004v15.256l-12.3,3.242     v-56.449c0-6.389-0.095-8.199-0.763-12.3L25.413,149.805z M34.28,190.52c6.293,0,8.773-4.29,8.773-15.446     c0-4.673-0.381-8.392-1.239-10.775c-0.955-2.67-2.957-4.1-6.102-4.1c-3.148,0-6.199,1.335-8.487,3.718v23.743     C28.94,189.089,31.707,190.52,34.28,190.52z" fill="#9D9D9C"/>
				
				
				
				
			
				
				
				
				<path animation_id="1" d="M79,149.614c1.145,2.002,1.811,4.195,2.002,6.961c1.812-2.48,4.863-5.15,7.247-6.199     c1.049-0.477,2.766-0.762,4.196-0.762c1.906,0,2.765,0.19,4.768,1.049l-3.529,11.252c-1.239-0.668-2.288-0.955-3.719-0.955     c-2.86,0-5.434,1.336-7.818,4.102v34.517H69.369v-32.61c0-6.58-0.763-11.537-1.811-14.303L79,149.614z" fill="#9D9D9C"/>
				
				
				
				
			
				
				
				
				<path animation_id="2" d="M122.098,137.313c0,4.386-3.527,7.914-7.914,7.914c-4.291,0-7.819-3.528-7.819-7.914     c0-4.387,3.623-7.914,8.01-7.914C118.666,129.399,122.098,132.927,122.098,137.313z M120.573,149.614v49.964h-12.777v-47.962     L120.573,149.614z" fill="#9D9D9C">
					<animate attributeName = "opacity" begin = "0" dur = "2.0246706872520717" from = "0" to = "1.0" fill = "freeze"/>
				</path>
				
				
				
				
			
				
				
				
				<path animation_id="3" d="M146.604,149.899c0.858,1.335,1.24,2.48,1.716,4.959c3.338-3.242,7.438-4.959,11.919-4.959     c4.005,0,7.342,1.335,9.917,4.005c0.667,0.667,1.334,1.526,1.907,2.384c4.482-4.576,8.485-6.389,13.826-6.389     c3.814,0,7.438,1.145,9.631,3.052c2.765,2.384,3.623,5.244,3.623,11.919v34.708h-12.396v-32.229c0-5.815-0.667-6.961-4.004-6.961     c-2.384,0-5.721,1.622-8.487,4.101v35.09h-12.109v-31.752c0-6.103-0.858-7.533-4.385-7.533c-2.385,0-5.626,1.24-8.392,3.719     v35.566h-12.491v-34.04c0-7.057-0.477-10.107-1.812-12.491L146.604,149.899z" fill="#9D9D9C">
					<animateTransform attributeName = "transform" attributeType = "XML" type = "rotate" begin = "0" dur = "4.540564425976676" from = "-158 167.1050000000001 174.73899999999992" to = "0 167.1050000000001 174.73899999999992" fill = "freeze"/>
				</path>
				
				
				
				
			
				
				
				
				<path animation_id="4" d="M255.207,194.144c-5.626,4.577-11.538,6.77-18.403,6.77c-14.017,0-23.075-9.916-23.075-25.268     c0-8.773,1.812-14.59,6.103-19.357c4.004-4.481,8.867-6.578,15.351-6.578c5.626,0,10.966,1.906,14.112,5.148     c4.482,4.577,6.484,11.156,6.484,21.359c0,1.049,0,2.098,0,2.955h-28.223v0.381c0,7.533,3.718,11.824,10.297,11.824     c4.387,0,8.487-1.621,12.397-4.863L255.207,194.144z M242.525,169.828v-0.571c0-3.623-0.381-5.531-1.525-7.342     c-1.239-1.908-3.051-2.861-5.626-2.861c-4.863,0-7.628,3.814-7.628,10.584v0.19H242.525z" fill="#9D9D9C"/>
				
				
				
				
			
				
				
				
				<path animation_id="5" d="M295.921,149.805c0.477,1.716,0.763,3.052,0.858,4.577c2.194-2.67,7.056-4.577,12.015-4.577     c3.434,0,6.961,1.144,9.631,2.956c5.243,3.527,9.058,9.821,9.058,21.072c0,10.488-1.716,15.828-6.77,21.264     c-3.338,3.528-7.723,5.53-13.063,5.53c-3.814,0-7.437-0.954-10.203-2.573c0.191,1.143,0.191,2.573,0.191,4.004v15.256     l-12.3,3.242v-56.449c0-6.389-0.095-8.199-0.763-12.3L295.921,149.805z M304.789,190.52c6.293,0,8.773-4.29,8.773-15.446     c0-4.673-0.382-8.392-1.24-10.775c-0.954-2.67-2.956-4.1-6.103-4.1s-6.197,1.335-8.488,3.718v23.743     C299.449,189.089,302.215,190.52,304.789,190.52z" fill="#9D9D9C">
					<animateTransform attributeName = "transform" attributeType = "XML" type = "rotate" begin = "0" dur = "4.222109257625241" from = "-58 306.029 185.18049999999997" to = "0 306.029 185.18049999999997" fill = "freeze"/>
				</path>
				
				
				
				
			
				
				
				
				<path animation_id="6" d="M380.021,194.144c-5.626,4.577-11.538,6.77-18.403,6.77c-14.017,0-23.074-9.916-23.074-25.268     c0-8.773,1.812-14.59,6.103-19.357c4.004-4.481,8.867-6.578,15.351-6.578c5.626,0,10.967,1.906,14.112,5.148     c4.482,4.577,6.483,11.156,6.483,21.359c0,1.049,0,2.098,0,2.955H352.37v0.381c0,7.533,3.718,11.824,10.298,11.824     c4.386,0,8.486-1.621,12.396-4.863L380.021,194.144z M367.34,169.828v-0.571c0-3.623-0.382-5.531-1.526-7.342     c-1.238-1.908-3.05-2.861-5.625-2.861c-4.863,0-7.629,3.814-7.629,10.584v0.19H367.34z" fill="#9D9D9C"/>
				
				
				
				
			
				
				
				
				<path animation_id="7" d="M431.13,157.146c3.909,4.577,5.626,9.917,5.626,17.831c0,8.391-1.908,14.111-6.104,18.879     c-3.719,4.197-8.581,6.771-16.114,6.771c-13.254,0-21.931-9.917-21.931-25.269s8.772-25.554,21.931-25.554     C421.499,149.805,426.934,152.188,431.13,157.146z M408.149,164.202c-0.857,2.574-1.335,6.008-1.335,10.871     c0,5.625,0.572,9.82,1.621,12.3c1.145,2.67,4.005,4.005,6.484,4.005c5.53,0,7.914-4.959,7.914-16.496     c0-6.578-0.858-10.87-2.574-13.062c-1.24-1.621-3.241-2.574-5.531-2.574C411.678,159.245,409.198,161.151,408.149,164.202z" fill="#9D9D9C"/>
				
				
				
				
			
				
				
				
				<path animation_id="8" d="M461.928,149.805c0.476,1.716,0.762,3.052,0.857,4.577c2.192-2.67,7.056-4.577,12.015-4.577     c3.433,0,6.96,1.144,9.631,2.956c5.243,3.527,9.059,9.821,9.059,21.072c0,10.488-1.717,15.828-6.771,21.264     c-3.338,3.528-7.723,5.53-13.062,5.53c-3.815,0-7.438-0.954-10.204-2.573c0.19,1.143,0.19,2.573,0.19,4.004v15.256l-12.3,3.242     v-56.449c0-6.389-0.096-8.199-0.763-12.3L461.928,149.805z M470.794,190.52c6.294,0,8.773-4.29,8.773-15.446     c0-4.673-0.381-8.392-1.239-10.775c-0.954-2.67-2.957-4.1-6.103-4.1c-3.147,0-6.197,1.335-8.487,3.718v23.743     C465.455,189.089,468.221,190.52,470.794,190.52z" fill="#9D9D9C"/>
				
				
				
				
			
				
				
				
				<path animation_id="9" d="M520.186,141.699v38.046c0,8.391,0.095,9.535,0.857,10.87c0.478,0.858,1.526,1.335,2.576,1.335     c0.477,0,0.763,0,1.43-0.191l2.192,7.629c-2.192,0.857-4.863,1.334-7.627,1.334c-5.437,0-9.822-2.573-11.348-6.674     c-0.954-2.479-1.145-4.005-1.145-10.965v-36.425c0-6.39-0.19-10.298-0.666-14.685l13.062-2.956     C519.994,131.688,520.186,134.834,520.186,141.699z" fill="#9D9D9C"/>
				
				
				
				
			
				
				
				
				<path animation_id="10" d="M580.638,194.144c-5.626,4.577-11.537,6.77-18.402,6.77c-14.017,0-23.074-9.916-23.074-25.268     c0-8.773,1.811-14.59,6.103-19.357c4.004-4.481,8.866-6.578,15.351-6.578c5.626,0,10.966,1.906,14.111,5.148     c4.482,4.577,6.484,11.156,6.484,21.359c0,1.049,0,2.098,0,2.955h-28.224v0.381c0,7.533,3.719,11.824,10.298,11.824     c4.386,0,8.487-1.621,12.396-4.863L580.638,194.144z M567.956,169.828v-0.571c0-3.623-0.381-5.531-1.525-7.342     c-1.238-1.908-3.051-2.861-5.626-2.861c-4.863,0-7.628,3.814-7.628,10.584v0.19H567.956z" fill="#9D9D9C"/>
				
				
				
				
		
			
			
			
			</g>
			
			
			
			
		
			
			
			
			
			<polygon animation_id="12" clip-rule="evenodd" fill="#9D9D9C" fill-rule="evenodd" points="    457.388,66.098 445.566,62.327 435.757,57.154 418.977,47.767 411.273,44.28 401.772,40.485 388.898,36.999 379.09,34.47     375.181,32.784 372.18,30.802 357.966,25.853 339.996,22.97 328.016,20.72 312.906,19.369 306.023,17.388 297.618,16.937     283.8,16.424 267.132,14.72 252.879,17.688 241.384,19.91 223.338,23.283 197.169,29.72 187.246,35.313 181.23,37.843     170.043,52.095 165.406,57.154 154.218,75.622 149.045,79.95 138.075,84.285 173.159,77.729 186.773,73.144 196.595,68.798     206.441,64.884 222.842,57.413 237.17,53.018 249.317,49.465 262.191,47.634 275.428,46.169 283.377,46.923 290.658,47.345     301.003,49.03 308.705,51.253 317.671,52.938 336.139,55.046 346.483,57.154 366.215,59.376 375.181,62.327 386.791,64.969     405.259,68.763 420.661,70.028 436.601,70.984 443.458,72.671 449.052,74.356   " stroke="#9D9D9C" stroke-miterlimit="3.8637" stroke-width="0"/>
			
			
			
			
		
			
			
			
			
			<circle animation_id="11" clip-rule="evenodd" cx="269.358" cy="92.396" fill="#164194" fill-rule="evenodd" r="28.382" stroke="#164194" stroke-miterlimit="3.8637" stroke-width="0"/>
			
			
			
			
	
		
		
		
		</g>
		
		
		
		

	
	
	
	</g>
	
	
	
	




</svg>
