<?xml version="1.0" encoding="iso-8859-1"?>
<!-- Generator: Adobe Illustrator 15.0.0, SVG Export Plug-In . SVG Version: 6.00 Build 0)  -->
<!DOCTYPE svg
  PUBLIC '-//W3C//DTD SVG 1.1//EN'
  'http://www.w3.org/Graphics/SVG/1.1/DTD/svg11.dtd'>
<svg enable-background="new 0 0 595.275 116.221" height="116.221px" version="1.1" viewBox="-148.81875 -29.05525 892.9124999999999 174.3315" width="595.275px" x="0px" xml:space="preserve" xmlns="http://www.w3.org/2000/svg" xmlns:xlink="http://www.w3.org/1999/xlink" y="0px">
	
	
	
	

	
	
	
	<g id="Hintergrund">
</g>
	
	
	
	

	
	
	
	<g display="none" id="Hilfslinien">
</g>
	
	
	
	

	
	
	
	<g id="Vordergrund">
		
		
		
		
	
		
		
		
		<g>
			
			
			
			
		
			
			
			
			<path animation_id="0" d="M66.567,102.445L31.449,48.022v54.423H14.138v-88.67H29.58L64.7,68.073V13.775h17.31v88.67H66.567z" fill="#225CAC"/>
			
			
			
			
		
			
			
			
			<path animation_id="1" d="M105.794,102.445v-88.67h58.408v15.442h-41.097v20.797h34.994v15.443h-34.994v21.545h41.097v15.442    H105.794z" fill="#225CAC"/>
			
			
			
			
		
			
			
			
			<path animation_id="2" d="M259.844,102.445h-14.447l-16.313-53.801l-16.314,53.801h-14.446l-23.663-88.67h18.057l13.699,55.917    l16.19-55.917h12.952l16.19,55.917l13.824-55.917h18.058L259.844,102.445z" fill="#225CAC">
				<animateTransform attributeName = "transform" attributeType = "XML" type = "skewY" begin = "0" dur = "2.0246706872520717" from = "-1" to = "0" fill = "freeze"/>
			</path>
			
			
			
			
		
			
			
			
			<path animation_id="3" d="M294.836,74.424V59.355h38.356v15.068H294.836z" fill="#225CAC"/>
			
			
			
			
		
			
			
			
			<path animation_id="4" d="M406.418,102.445L371.3,48.022v54.423h-17.312v-88.67h15.442l35.119,54.298V13.775h17.31v88.67H406.418z" fill="#225CAC">
				<animate attributeName = "fill" begin = "0" dur = "2.5234342790869513" from = "#000000" to = "#47c09d" fill = "remove"/>
				<animate attributeName = "fill" begin = "2.5234342790869513" dur = "4.540564425976676" from = "#47c09d" to = "#000000" fill = "freeze"/>
			</path>
			
			
			
			
		
			
			
			
			<path animation_id="5" d="M445.644,102.445v-88.67h58.409v15.442h-41.097v20.797h34.994v15.443h-34.994v21.545h41.097v15.442    H445.644z" fill="#225CAC">
				<animate attributeName = "opacity" begin = "0" dur = "4.222109257625241" from = "0" to = "1.0" fill = "freeze"/>
			</path>
			
			
			
			
		
			
			
			
			<path animation_id="6" d="M557.974,29.218v73.228h-17.311V29.218h-23.164V13.775h63.639v15.442H557.974z" fill="#225CAC"/>
			
			
			
			
	
		
		
		
		</g>
		
		
		
		

	
	
	
	</g>
	
	
	
	




</svg>
