<?xml version="1.0" encoding="iso-8859-1"?>
<!-- Generator: Adobe Illustrator 15.0.0, SVG Export Plug-In . SVG Version: 6.00 Build 0)  -->
<!DOCTYPE svg
  PUBLIC '-//W3C//DTD SVG 1.1//EN'
  'http://www.w3.org/Graphics/SVG/1.1/DTD/svg11.dtd'>
<svg enable-background="new 0 0 595.276 297.638" height="297.638px" id="Ebene_1" version="1.1" viewBox="-148.819 -74.4095 892.914 446.457" width="595.276px" x="0px" xml:space="preserve" xmlns="http://www.w3.org/2000/svg" xmlns:xlink="http://www.w3.org/1999/xlink" y="0px">
	
	
	
	

	
	
	
	<g>
		
		
		
		
	
		
		
		
		<path animation_id="0" d="M208.967,35.48h17.75v49.746c0,22.421-10.744,30.245-27.91,30.245c-4.203,0-9.575-0.701-13.078-1.868   l1.985-14.363c2.452,0.817,5.604,1.4,9.108,1.4c7.474,0,12.145-3.386,12.145-15.53V35.48z" fill="#EE7518">
			<animate attributeName = "opacity" begin = "0" dur = "2.0246706872520717" from = "0" to = "1.0" fill = "freeze"/>
		</path>
		
		
		
		
	
		
		
		
		<path animation_id="1" d="M273.421,93.985l-5.605,20.202h-18.333l23.938-78.707h23.355l24.523,78.707h-19.269l-6.072-20.202H273.421z    M265.948,23.103c0-4.555,3.504-8.058,8.058-8.058c4.321,0,7.708,3.387,7.708,8.058c0,4.32-3.271,7.94-7.825,7.94   C269.452,31.043,265.948,27.423,265.948,23.103z M293.39,80.673l-4.904-16.699c-1.401-4.671-2.803-10.51-3.971-15.181h-0.233   c-1.168,4.671-2.335,10.626-3.62,15.181l-4.671,16.699H293.39z M290.237,23.103c0-4.555,3.387-8.058,7.942-8.058   c4.438,0,7.823,3.387,7.823,8.058c0,4.32-3.269,7.94-7.94,7.94C293.507,31.043,290.237,27.423,290.237,23.103z" fill="#EE7518"/>
		
		
		
		
	
		
		
		
		<path animation_id="2" d="M408.057,110.567c-5.488,1.868-15.882,4.438-26.274,4.438c-14.363,0-24.756-3.62-31.996-10.511   c-7.124-6.889-11.094-17.166-11.094-28.727c0.117-26.157,19.15-41.104,44.959-41.104c10.159,0,17.983,1.985,21.836,3.736   l-3.736,14.364c-4.321-1.985-9.576-3.387-18.217-3.387c-14.83,0-26.158,8.291-26.158,25.457c0,16.349,10.276,25.807,24.873,25.807   c3.971,0,7.24-0.467,8.643-1.051V83.008h-12.146V69.112h29.311V110.567z" fill="#EE7518"/>
		
		
		
		
	
		
		
		
		<path animation_id="3" d="M487.456,80.906h-28.961V99.59h32.347v14.598h-50.097V35.48h48.463v14.598h-30.713v16.348h28.961V80.906z" fill="#EE7518">
			<animateTransform attributeName = "transform" attributeType = "XML" type = "skewY" begin = "0" dur = "4.540564425976676" from = "10" to = "0" fill = "freeze"/>
		</path>
		
		
		
		
	
		
		
		
		<path animation_id="4" d="M521.663,36.531c5.722-0.934,14.13-1.635,23.706-1.635c11.677,0,19.852,1.752,25.457,6.189   c4.788,3.736,7.356,9.342,7.356,16.582c0,9.926-7.123,16.815-13.896,19.268v0.351c5.488,2.219,8.525,7.356,10.51,14.597   c2.452,8.992,4.787,19.269,6.307,22.305h-18.217c-1.169-2.336-3.154-8.642-5.373-18.334c-2.218-9.926-5.604-12.495-12.962-12.612   h-5.255v30.946h-17.633V36.531z M539.296,70.396h7.007c8.876,0,14.131-4.438,14.131-11.327c0-7.124-4.905-10.86-13.08-10.86   c-4.32,0-6.772,0.233-8.058,0.584V70.396z" fill="#EE7518"/>
		
		
		
		

	
	
	
	</g>
	
	
	
	

	
	
	
	<rect animation_id="6" fill="#EE7518" height="116.221" width="116.221" x="14.173" y="165.826"/>
	
	
	
	

	
	
	
	<polygon animation_id="5" fill="#1B3E90" points="130.394,70.866 148.819,70.866 148.819,147.401 226.717,147.401 226.771,165.827 148.819,165.827   148.819,243.779 130.394,243.779 130.394,165.827 53.858,165.826 53.858,147.401 130.394,147.401 ">
		<animateTransform attributeName = "transform" attributeType = "XML" type = "rotate" begin = "0" dur = "4.222109257625241" from = "-58 140.31449999999998 157.3225" to = "0 140.31449999999998 157.3225" fill = "freeze"/>
	</polygon>
	
	
	
	




</svg>
