<?xml version="1.0" encoding="iso-8859-1"?>
<!-- Generator: Adobe Illustrator 15.0.0, SVG Export Plug-In . SVG Version: 6.00 Build 0)  -->
<!DOCTYPE svg
  PUBLIC '-//W3C//DTD SVG 1.1//EN'
  'http://www.w3.org/Graphics/SVG/1.1/DTD/svg11.dtd'>
<svg enable-background="new 0 0 595.275 357.165" height="357.165px" version="1.1" viewBox="-148.81875 -89.29125 892.9124999999999 535.7475000000001" width="595.275px" x="0px" xml:space="preserve" xmlns="http://www.w3.org/2000/svg" xmlns:xlink="http://www.w3.org/1999/xlink" y="0px">
	
	
	
	

	
	
	
	<g id="Hintergrund">
</g>
	
	
	
	

	
	
	
	<g display="none" id="Hilfslinien">
</g>
	
	
	
	

	
	
	
	<g id="Vordergrund">
		
		
		
		
	
		
		
		
		<g>
			
			
			
			
		
			
			
			
			
			<polygon animation_id="25" clip-rule="evenodd" fill="#EC6608" fill-rule="evenodd" points="    108.848,261.292 191.58,284.089 179.903,342.854 84.857,313.019   " stroke="#EC6608" stroke-miterlimit="3.8637" stroke-width="0"/>
			
			
			
			
		
			
			
			
			
			<polygon animation_id="26" clip-rule="evenodd" fill="#EC6608" fill-rule="evenodd" points="    231.885,56.142 174.067,29.069 151.844,54.451 225.211,88.483   " stroke="#EC6608" stroke-miterlimit="3.8637" stroke-width="0"/>
			
			
			
			
		
			
			
			
			
			<polygon animation_id="27" clip-rule="evenodd" fill="#EC6608" fill-rule="evenodd" points="    250.668,32.149 295.921,18.651 328.932,39.681 279.271,66.677   " stroke="#EC6608" stroke-miterlimit="3.8637" stroke-width="0"/>
			
			
			
			
		
			
			
			
			
			<polygon animation_id="28" clip-rule="evenodd" fill="#EC6608" fill-rule="evenodd" points="    351.664,26.343 398.374,14.312 435.263,39.331 358.994,49.885   " stroke="#EC6608" stroke-miterlimit="3.8637" stroke-width="0"/>
			
			
			
			
		
			
			
			
			<g>
				
				
				
				
			
				
				
				
				<path animation_id="0" d="M191.639,130.376h19.002v57.211h29.423v14.099h-48.425V130.376z">
					<animate attributeName = "opacity" begin = "0" dur = "3.3776874061001925" from = "0" to = "1.0" fill = "freeze"/>
				</path>
				
				
				
				
			
				
				
				
				<path animation_id="1" d="M263.251,130.376h50.262v13.484h-31.261v14.713h29.524v13.485h-29.524V188.2h32.386v13.485h-51.387V130.376z">
					<animateTransform attributeName = "transform" attributeType = "XML" type = "skewX" begin = "0" dur = "1.2405902772773305" from = "7" to = "0" fill = "freeze"/>
				</path>
				
				
				
				
			
				
				
				
				<path animation_id="2" d="M347.834,184.113c4.901,2.655,11.749,4.7,19.615,4.7c6.027,0,11.747-1.227,11.747-6.947     c0-13.281-33.714-4.904-33.714-30.853c0-17.163,16.756-21.863,31.058-21.863c6.845,0,13.589,1.022,18.391,2.655l-1.227,14.713     c-4.903-2.248-10.42-3.27-15.834-3.27c-4.803,0-12.771,0.408-12.771,6.641c0,11.543,33.713,3.779,33.713,29.524     c0,18.491-15.527,23.497-31.362,23.497c-6.64,0-14.915-1.021-21.252-3.064L347.834,184.113z">
					<animate attributeName = "opacity" begin = "0" dur = "3.1351943561390905" from = "0" to = "0" fill = "remove"/>
					<animateTransform attributeName = "transform" attributeType = "XML" type = "translate" begin = "3.1351943561390905" dur = "1.6197365498016572" from = "-234.16603396673293 -16.717497740347675" to = "0 0" fill = "freeze"/>
				</path>
				
				
				
				
			
				
				
				
				<path animation_id="3" d="M490.956,200.051c-5.415,1.329-11.441,2.86-21.146,2.86c-19.003,0-40.969-9.604-40.969-36.573     c0-24.827,17.37-37.188,40.866-37.188c7.253,0,14.302,1.634,21.147,3.679l-1.531,15.426c-6.132-3.372-12.056-5.006-18.595-5.006     c-13.486,0-22.271,9.807-22.271,23.089c0,13.996,9.91,22.476,23.805,22.476c6.232,0,12.564-1.635,17.774-3.678L490.956,200.051z">
					<animateTransform attributeName = "transform" attributeType = "XML" type = "skewX" begin = "0" dur = "1.0020253654497622" from = "12" to = "0" fill = "freeze"/>
				</path>
				
				
				
				
			
				
				
				
				<path animation_id="4" d="M521.087,130.376h19.002v27.277h22.475v-27.277h19.003v71.31h-19.003V171.14h-22.475v30.546h-19.002V130.376z">
					<animateTransform attributeName = "transform" attributeType = "XML" type = "rotate" begin = "0" dur = "3.6324515407813407" from = "-158 551.327 166.031" to = "0 551.327 166.031" fill = "freeze"/>
				</path>
				
				
				
				
		
			
			
			
			</g>
			
			
			
			
		
			
			
			
			<g>
				
				
				
				
			
				
				
				
				<path animation_id="5" d="M193.465,223.463h3.26v7.233h5.272v-7.233h3.26v17.778h-3.26v-7.846h-5.272v7.846h-3.26V223.463z"/>
				
				
				
				
			
				
				
				
				<path animation_id="6" d="M220.492,223.208c3.693,0,7.081,2.751,7.081,9.145c0,6.392-3.388,9.143-7.081,9.143c-3.692,0-7.081-2.751-7.081-9.143     C213.412,225.959,216.8,223.208,220.492,223.208z M220.492,238.999c2.063,0,3.719-1.757,3.719-6.646     c0-4.891-1.656-6.647-3.719-6.647c-2.062,0-3.719,1.757-3.719,6.647C216.773,237.242,218.43,238.999,220.492,238.999z"/>
				
				
				
				
			
				
				
				
				<path animation_id="7" d="M235.73,223.463h8.991v2.599h-5.731v4.839h5.476v2.598h-5.476v7.743h-3.26V223.463z"/>
				
				
				
				
			
				
				
				
				<path animation_id="8" d="M251.805,232.709h5.882v2.597h-5.882V232.709z"/>
				
				
				
				
			
				
				
				
				<path animation_id="9" d="M274.961,235.917h-5.323v-2.24h5.323v-5.324h2.242v5.324h5.322v2.24h-5.322v5.324h-2.242V235.917z"/>
				
				
				
				
			
				
				
				
				<path animation_id="10" d="M302.373,231.281h5.757v9.297c-0.919,0.484-2.498,0.917-4.815,0.917c-5.704,0-8.736-3.871-8.736-9.143     c0-5.272,3.032-9.145,8.736-9.145c2.038,0,3.643,0.459,4.33,0.766l-0.178,2.928c-1.046-0.637-2.472-1.095-4.102-1.095     c-3.464,0-5.323,2.853-5.323,6.546c0,3.998,1.81,6.545,5.145,6.545c0.765,0,1.452-0.153,1.886-0.331v-4.789h-2.699V231.281z"/>
				
				
				
				
			
				
				
				
				<path animation_id="11" d="M316.896,223.463h9.348v2.599h-6.088v4.736h5.755v2.598h-5.755v5.247h6.34v2.599h-9.6V223.463z"/>
				
				
				
				
			
				
				
				
				<path animation_id="12" d="M334.73,223.463h3.26v7.233h5.271v-7.233h3.262v17.778h-3.262v-7.846h-5.271v7.846h-3.26V223.463z"/>
				
				
				
				
			
				
				
				
				<path animation_id="13" d="M364.152,226.672h-0.052l-2.801,14.569h-3.846l-3.59-17.778h3.057l2.493,13.702h0.052l2.675-13.702h3.973l2.648,13.702     h0.053l2.597-13.702h2.953l-3.667,17.778h-3.895L364.152,226.672z"/>
				
				
				
				
			
				
				
				
				<path animation_id="14" d="M381.708,223.463h9.348v2.599h-6.088v4.736h5.755v2.598h-5.755v5.247h6.343v2.599h-9.603V223.463z"/>
				
				
				
				
			
				
				
				
				<path animation_id="15" d="M406.621,231.281h5.757v9.297c-0.918,0.484-2.496,0.917-4.813,0.917c-5.705,0-8.736-3.871-8.736-9.143     c0-5.272,3.031-9.145,8.736-9.145c2.036,0,3.642,0.459,4.329,0.766l-0.178,2.928c-1.046-0.637-2.473-1.095-4.102-1.095     c-3.464,0-5.322,2.853-5.322,6.546c0,3.998,1.809,6.545,5.145,6.545c0.764,0,1.451-0.153,1.885-0.331v-4.789h-2.7V231.281z"/>
				
				
				
				
			
				
				
				
				<path animation_id="16" d="M420.991,223.463h5.554c3.158,0,5.297,1.427,5.297,4.687c0,2.317-1.45,3.871-3.438,4.177v0.076     c0.663,0.103,1.4,0.408,1.961,2.063l2.319,6.775h-3.466l-1.756-5.783c-0.433-1.399-1.274-1.857-2.472-1.857h-0.738v7.641h-3.261     V223.463z M425.578,231.206c1.73,0,2.902-0.892,2.902-2.699c0-2.037-1.069-2.548-2.902-2.548h-1.326v5.247H425.578z"/>
				
				
				
				
			
				
				
				
				<path animation_id="17" d="M440.406,223.463h9.348v2.599h-6.089v4.736h5.756v2.598h-5.756v5.247h6.341v2.599h-9.6V223.463z"/>
				
				
				
				
			
				
				
				
				<path animation_id="18" d="M458.265,223.463h3.262v17.778h-3.262V223.463z"/>
				
				
				
				
			
				
				
				
				<path animation_id="19" d="M470.392,223.463h3.872l5.907,13.958h0.052v-13.958h2.953v17.778h-3.896l-5.883-13.855h-0.051v13.855h-2.954V223.463z"/>
				
				
				
				
			
				
				
				
				<path animation_id="20" d="M492.046,223.463h3.261v17.778h-3.261V223.463z"/>
				
				
				
				
			
				
				
				
				<path animation_id="21" d="M511.278,231.281h5.757v9.297c-0.918,0.484-2.496,0.917-4.813,0.917c-5.705,0-8.736-3.871-8.736-9.143     c0-5.272,3.031-9.145,8.736-9.145c2.036,0,3.642,0.459,4.329,0.766l-0.18,2.928c-1.043-0.637-2.47-1.095-4.1-1.095     c-3.464,0-5.322,2.853-5.322,6.546c0,3.998,1.81,6.545,5.146,6.545c0.762,0,1.45-0.153,1.884-0.331v-4.789h-2.7V231.281z"/>
				
				
				
				
			
				
				
				
				<path animation_id="22" d="M528.908,223.463v11.513c0,2.954,0.892,3.922,2.803,3.922c1.86,0,2.775-0.968,2.775-3.922v-11.513h3.261v11.513     c0,4.686-2.701,6.52-6.036,6.52c-3.361,0-6.062-1.834-6.062-6.52v-11.513H528.908z"/>
				
				
				
				
			
				
				
				
				<path animation_id="23" d="M546.437,223.463h3.872l5.908,13.958h0.051v-13.958h2.955v17.778h-3.896l-5.885-13.855h-0.049v13.855h-2.956V223.463z"/>
				
				
				
				
			
				
				
				
				<path animation_id="24" d="M575.146,231.281h5.757v9.297c-0.917,0.484-2.499,0.917-4.813,0.917c-5.706,0-8.736-3.871-8.736-9.143     c0-5.272,3.03-9.145,8.736-9.145c2.035,0,3.641,0.459,4.33,0.766l-0.181,2.928c-1.043-0.637-2.47-1.095-4.101-1.095     c-3.464,0-5.323,2.853-5.323,6.546c0,3.998,1.81,6.545,5.146,6.545c0.764,0,1.453-0.153,1.885-0.331v-4.789h-2.699V231.281z"/>
				
				
				
				
		
			
			
			
			</g>
			
			
			
			
		
			
			
			
			
			<polygon animation_id="29" clip-rule="evenodd" fill="#EC6608" fill-rule="evenodd" points="    80.361,101.015 158.109,86.991 168.179,126.39 70.349,139.479   " stroke="#EC6608" stroke-miterlimit="3.8637" stroke-width="0"/>
			
			
			
			
		
			
			
			
			
			<polygon animation_id="30" clip-rule="evenodd" fill="#EC6608" fill-rule="evenodd" points="    13.709,195.415 82.477,167.509 127.547,197.501 47.897,242.696   " stroke="#EC6608" stroke-miterlimit="3.8637" stroke-width="0"/>
			
			
			
			
		
			
			
			
			
			<polygon animation_id="31" clip-rule="evenodd" fill="#EC6608" fill-rule="evenodd" points="    459.394,27.474 495.739,30.703 495.067,55.933 453.051,50.711   " stroke="#EC6608" stroke-miterlimit="3.8637" stroke-width="0"/>
			
			
			
			
	
		
		
		
		</g>
		
		
		
		

	
	
	
	</g>
	
	
	
	




</svg>
