<?xml version="1.0" encoding="iso-8859-1"?>
<!-- Generator: Adobe Illustrator 15.0.0, SVG Export Plug-In . SVG Version: 6.00 Build 0)  -->
<!DOCTYPE svg
  PUBLIC '-//W3C//DTD SVG 1.1//EN'
  'http://www.w3.org/Graphics/SVG/1.1/DTD/svg11.dtd'>
<svg enable-background="new 0 0 595.276 260.787" height="260.787px" id="Ebene_1" version="1.1" viewBox="-148.819 -65.19675 892.914 391.18049999999994" width="595.276px" x="0px" xml:space="preserve" xmlns="http://www.w3.org/2000/svg" xmlns:xlink="http://www.w3.org/1999/xlink" y="0px">
	
	
	
	

	
	
	
	<g>
		
		
		
		
	
		
		
		
		<g>
			
			
			
			
		
			
			
			
			<rect animation_id="5" fill="#EE7518" height="11.375" width="64.467" x="14.173" y="164.832"/>
			
			
			
			
		
			
			
			
			<rect animation_id="6" fill="#EE7518" height="24.648" width="56.883" x="91.912" y="164.832"/>
			
			
			
			
		
			
			
			
			<rect animation_id="7" fill="#EE7518" height="34.129" width="49.297" x="171.549" y="164.832"/>
			
			
			
			
		
			
			
			
			<rect animation_id="8" fill="#EE7518" height="43.609" width="41.714" x="251.183" y="164.832"/>
			
			
			
			
		
			
			
			
			<rect animation_id="9" fill="#EE7518" height="53.09" width="34.13" x="330.819" y="164.832">
				<animateTransform attributeName = "transform" attributeType = "XML" type = "translate" begin = "0" dur = "1.0020253654497622" from = "-347.884 -191.377" to = "0 0" fill = "freeze"/>
				<animateTransform attributeName = "transform" attributeType = "XML" type = "scale" begin = "0" dur = "1.0020253654497622" from = "2" to = "1" fill = "freeze" additive="sum" />
			</rect>
			
			
			
			
		
			
			
			
			<rect animation_id="10" fill="#EE7518" height="62.57" width="26.546" x="410.453" y="164.832"/>
			
			
			
			
		
			
			
			
			<rect animation_id="11" fill="#EE7518" height="72.051" width="18.961" x="490.09" y="164.832"/>
			
			
			
			
		
			
			
			
			<rect animation_id="12" fill="#EE7518" height="127.039" width="11.375" x="569.727" y="119.324"/>
			
			
			
			
		
			
			
			
			<g>
				
				
				
				
			
				
				
				
				<path animation_id="0" d="M116.312,36.199h18.912v53.002c0,23.889-11.446,32.225-29.736,32.225c-4.479,0-10.202-0.748-13.935-1.99     l2.114-15.305c2.613,0.871,5.973,1.494,9.705,1.494c7.963,0,12.939-3.609,12.939-16.549V36.199z" fill="#1B3E90"/>
				
				
				
				
			
				
				
				
				<path animation_id="1" d="M183.621,98.533l-5.973,21.523h-19.533l25.506-83.857h24.883l26.129,83.857h-20.529l-6.47-21.523H183.621     z M175.658,23.01c0-4.852,3.732-8.584,8.585-8.584c4.604,0,8.212,3.607,8.212,8.584c0,4.604-3.484,8.461-8.337,8.461     C179.391,31.471,175.658,27.613,175.658,23.01z M204.896,84.348l-5.226-17.791c-1.493-4.977-2.986-11.197-4.23-16.174h-0.249     c-1.244,4.977-2.487,11.322-3.856,16.174l-4.977,17.791H204.896z M201.537,23.01c0-4.852,3.608-8.584,8.461-8.584     c4.728,0,8.335,3.607,8.335,8.584c0,4.604-3.483,8.461-8.46,8.461C205.021,31.471,201.537,27.613,201.537,23.01z" fill="#1B3E90">
					<animateTransform attributeName = "transform" attributeType = "XML" type = "translate" begin = "0" dur = "3.6324515407813407" from = "196.37400000000002 67.241" to = "0 0" fill = "freeze"/>
					<animateTransform attributeName = "transform" attributeType = "XML" type = "scale" begin = "0" dur = "3.6324515407813407" from = "0" to = "1" fill = "freeze" additive="sum" />
				</path>
				
				
				
				
			
				
				
				
				<path animation_id="2" d="M327.07,116.199c-5.848,1.99-16.92,4.729-27.993,4.729c-15.304,0-26.377-3.857-34.091-11.197     c-7.59-7.342-11.82-18.291-11.82-30.607c0.125-27.869,20.405-43.795,47.9-43.795c10.825,0,19.162,2.115,23.267,3.98l-3.98,15.305     c-4.604-2.115-10.202-3.609-19.41-3.609c-15.801,0-27.869,8.834-27.869,27.123c0,17.42,10.949,27.498,26.502,27.498     c4.229,0,7.713-0.498,9.206-1.121V86.838h-12.939V72.031h31.229V116.199z" fill="#1B3E90"/>
				
				
				
				
			
				
				
				
				<path animation_id="3" d="M411.049,84.598h-30.855v19.906h34.464v15.553h-53.374V36.199h51.633v15.553h-32.723V69.17h30.855V84.598     z" fill="#1B3E90">
					<animate attributeName = "opacity" begin = "0" dur = "3.1351943561390905" from = "0" to = "0" fill = "remove"/>
					<animateTransform attributeName = "transform" attributeType = "XML" type = "translate" begin = "3.1351943561390905" dur = "1.6197365498016572" from = "-234.16642734128075 -12.206420234939168" to = "0 0" fill = "freeze"/>
				</path>
				
				
				
				
			
				
				
				
				<path animation_id="4" d="M446.878,37.318c6.098-0.994,15.056-1.742,25.258-1.742c12.441,0,21.151,1.867,27.123,6.596     c5.102,3.98,7.839,9.953,7.839,17.666c0,10.576-7.59,17.916-14.807,20.529v0.373c5.848,2.365,9.083,7.838,11.198,15.553     c2.612,9.58,5.102,20.529,6.719,23.764h-19.41c-1.243-2.488-3.358-9.207-5.724-19.533c-2.363-10.576-5.972-13.312-13.81-13.438     h-5.599v32.971h-18.788V37.318z M465.666,73.4h7.465c9.456,0,15.055-4.729,15.055-12.068c0-7.59-5.226-11.572-13.935-11.572     c-4.604,0-7.217,0.25-8.585,0.623V73.4z" fill="#1B3E90">
					<animateTransform attributeName = "transform" attributeType = "XML" type = "skewY" begin = "0" dur = "3.3776874061001925" from = "-10" to = "0" fill = "freeze"/>
				</path>
				
				
				
				
		
			
			
			
			</g>
			
			
			
			
	
		
		
		
		</g>
		
		
		
		

	
	
	
	</g>
	
	
	
	




</svg>
