<?xml version="1.0" encoding="iso-8859-1"?>
<!-- Generator: Adobe Illustrator 15.0.0, SVG Export Plug-In . SVG Version: 6.00 Build 0)  -->
<!DOCTYPE svg
  PUBLIC '-//W3C//DTD SVG 1.1//EN'
  'http://www.w3.org/Graphics/SVG/1.1/DTD/svg11.dtd'>
<svg enable-background="new 0 0 595.275 215.433" height="215.433px" version="1.1" viewBox="-148.81875 -53.85825 892.9124999999999 323.1495" width="595.275px" x="0px" xml:space="preserve" xmlns="http://www.w3.org/2000/svg" xmlns:xlink="http://www.w3.org/1999/xlink" y="0px">
	
	
	
	

	
	
	
	<g id="Hintergrund">
</g>
	
	
	
	

	
	
	
	<g display="none" id="Hilfslinien">
</g>
	
	
	
	

	
	
	
	<g id="Vordergrund">
		
		
		
		
	
		
		
		
		<g>
			
			
			
			
		
			
			
			
			<g>
				
				
				
				
			
				
				
				
				
				<polygon animation_id="11" clip-rule="evenodd" fill="#164194" fill-rule="evenodd" points="     260.97,21.345 262.445,19.701 264.004,18.304 265.51,17.483 266.328,17.4 267.887,16.632 270.705,15.235 272.017,14.495      274.477,14.084 276.855,14.002 279.262,14.167 281.887,14.825 285.442,15.728 288.393,16.796 289.816,17.729 290.473,18.551      291.128,19.126 291.867,19.536 292.933,20.276 293.753,21.263 294.654,22.659 295.393,24.251 296.16,26.715 296.816,28.03      297.8,29.757 298.374,31.265 298.456,32.743 298.374,34.223 297.719,35.126 297.391,35.948 297.308,37.786 297.391,39.511      297.226,41.976 296.406,44.224 295.639,45.128 294.654,46.032 293.342,47.511 292.195,48.937 289.57,50.663 286.508,51.32      284.294,51.896 281.558,53.128 280.902,53.292 277.786,54.36 275.624,54.36 273.984,54.114 271.936,53.292 270.265,52.718      268.79,52.389 267.724,51.731 266.166,50.171 264.525,49.595 263.594,49.02 262.61,48.004 262.118,47.1 261.626,45.95      261.134,45.046 260.478,44.307 259.986,43.648 259.658,43.073 259.412,42.47 258.509,41.483 258.071,40.825 257.988,40.086      258.071,39.429 257.825,38.771 257.579,37.703 257.579,36.554 257.825,35.455 257.825,33.812 257.66,32.825 257.414,31.593      257.333,30.442 257.333,28.934 257.66,27.373 258.263,26.14 258.92,25.071 259.658,23.317 259.903,22.495 260.396,21.839    " stroke="#164194" stroke-miterlimit="3.8637" stroke-width="0"/>
				
				
				
				
			
				
				
				
				
				<polygon animation_id="12" clip-rule="evenodd" fill="#164194" fill-rule="evenodd" points="     217.64,66.077 221.147,66.501 223.904,66.218 226.799,65.794 228.376,66.077 230.995,66.077 232.236,66.077 234.364,66.077      235.606,66.359 237.949,66.642 239.052,66.642 241.319,66.847 243.938,66.988 246.894,66.705 248.273,65.794 249.514,65.652      252.132,65.652 256.053,65.652 265.688,66.359 277.665,66.642 279.871,66.359 281.387,65.794 282.49,65.229 285.308,64.663      292.951,64.663 301.146,64.805 305.066,65.229 309.126,65.229 310.366,65.794 311.745,65.229 314.088,64.521 318.147,64.239      323.31,64.38 326.755,63.956 332.055,63.532 338.318,63.532 340.173,64.805 339.422,67.694 338.182,69.391 337.491,71.512      337.078,73.554 337.491,74.825 338.044,75.956 338.869,77.369 339.56,79.49 338.595,82.663 328.057,85.206 324.135,85.206      319.25,84.642 316.355,84.642 311.883,84.358 306.996,83.651 304.791,83.793 295.708,85.065 295.57,84.218 290.332,84.076      283.179,83.369 276.502,84.076 272.365,84.782 264.998,86.542 259.975,86.825 254.951,87.39 249.238,87.813 244.903,87.106      239.741,85.977 236.434,86.825 234.917,86.825 232.787,86.825 230.444,86.118 229.065,85.631 226.937,85.489 224.869,85.977      222.388,85.489 220.534,85.206 218.19,84.358 216.95,85.489 216.675,83.369 216.812,80.118 217.088,77.935 216.537,74.401      216.399,72.218 216.675,70.239 217.088,68.118 217.64,67.271    " stroke="#164194" stroke-miterlimit="3.8637" stroke-width="0"/>
				
				
				
				
			
				
				
				
				
				<polygon animation_id="13" clip-rule="evenodd" fill="#164194" fill-rule="evenodd" points="     244.027,99.325 245.004,98.997 245.819,98.833 246.687,98.668 247.664,98.668 249.048,98.668 250.434,98.833 252.307,98.997      254.152,99.079 255.292,99.161 256.677,99.243 258.795,98.997 261.454,98.997 263.328,98.421 263.083,97.846 264.713,97.846      266.313,98.01 268.268,98.339 269.979,98.668 271.823,98.914 274.267,99.489 277.119,99.735 278.882,99.9 282.548,99.489      284.799,99.161 287.895,98.914 290.88,98.585 293.244,98.339 295.279,97.846 297.694,97.682 301.116,98.175 304.508,98.257      307.034,98.421 309.611,98.339 312.544,98.257 311.322,102.284 311.159,103.271 311.322,104.228 311.24,105.543 310.915,107.022      309.938,109.569 304.835,119.539 304.265,121.593 303.856,122.961 303.449,124.687 302.879,126.331 302.094,129.589      301.93,134.026 300.708,137.204 297.694,142.188 296.636,145.886 295.85,145.886 295.443,147.53 294.464,151.364      292.999,156.267 290.555,161.908 290.148,163.552 289.524,165.113 289.362,166.347 289.117,167.55 289.036,168.536      288.873,170.098 288.384,171.495 287.406,173.932 287.325,174.178 285.859,176.726 285.614,177.054 285.208,178.534      284.881,179.409 284.311,181.135 284.067,183.684 283.904,185.327 283.985,187.517 283.363,189.571 281.163,193.487      280.429,195.214 280.267,196.118 280.267,196.775 280.104,197.925 280.022,199.54 280.022,200.608 279.127,201.431      278.637,200.444 278.067,199.129 277.905,198.554 277.579,197.925 277.444,197.433 277.038,195.707 276.875,194.884      276.63,193.897 276.304,192.419 276.223,191.844 275.897,190.311 275.407,189.161 274.512,187.599 273.535,185.327      273.29,183.765 272.231,179.985 266.232,162.812 264.55,156.76 264.468,155.608 264.306,154.458 264.143,153.419      264.062,151.939 264.062,150.542 263.979,149.556 263.898,148.651 263.083,146.298 262.024,144.817 260.641,142.681      256.84,135.479 255.862,132.63 255.048,129.589 254.56,127.235 254.07,124.112 253.745,123.044 253.256,122.004 252.388,120.853      251.412,119.046 250.76,117.729 249.538,115.458 248.641,113.649 248.152,112.253 247.745,110.28 247.175,107.843      246.442,105.953 246.226,103.733 246.063,102.448 245.656,101.626 245.167,100.723 244.597,100.065    " stroke="#164194" stroke-miterlimit="3.8637" stroke-width="0"/>
				
				
				
				
		
			
			
			
			</g>
			
			
			
			
		
			
			
			
			<g>
				
				
				
				
			
				
				
				
				<path animation_id="0" d="M24.039,101.106c0.41,1.471,0.654,2.614,0.736,3.922c1.88-2.287,6.048-3.922,10.297-3.922     c2.942,0,5.965,0.98,8.254,2.532c4.495,3.024,7.763,8.418,7.763,18.062c0,8.988-1.47,13.566-5.802,18.225     c-2.861,3.022-6.62,4.74-11.196,4.74c-3.269,0-6.374-0.818-8.745-2.207c0.165,0.98,0.165,2.207,0.165,3.432v13.076l-10.542,2.778     v-48.38c0-5.476-0.083-7.029-0.654-10.542L24.039,101.106z M31.639,136.001c5.395,0,7.52-3.678,7.52-13.238     c0-4.005-0.328-7.191-1.063-9.235c-0.817-2.288-2.534-3.515-5.23-3.515c-2.697,0-5.312,1.146-7.273,3.188v20.349     C27.063,134.776,29.433,136.001,31.639,136.001z" fill="#9D9D9C">
					<animateTransform attributeName = "transform" attributeType = "XML" type = "translate" begin = "0" dur = "4.222109257625241" from = "32.702 131.42499999999995" to = "0 0" fill = "freeze"/>
					<animateTransform attributeName = "transform" attributeType = "XML" type = "scale" begin = "0" dur = "4.222109257625241" from = "0" to = "1" fill = "freeze" additive="sum" />
				</path>
				
				
				
				
			
				
				
				
				<path animation_id="1" d="M68.737,100.942c0.98,1.716,1.553,3.596,1.717,5.966c1.552-2.125,4.167-4.413,6.21-5.312     c0.899-0.407,2.37-0.653,3.596-0.653c1.635,0,2.371,0.164,4.086,0.898l-3.024,9.644c-1.062-0.571-1.961-0.817-3.187-0.817     c-2.451,0-4.657,1.145-6.701,3.514v29.584H60.483v-27.948c0-5.64-0.653-9.889-1.552-12.259L68.737,100.942z" fill="#9D9D9C"/>
				
				
				
				
			
				
				
				
				<path animation_id="2" d="M102.812,90.4c0,3.759-3.024,6.782-6.782,6.782c-3.678,0-6.703-3.023-6.703-6.782     s3.106-6.783,6.866-6.783C99.87,83.617,102.812,86.642,102.812,90.4z M101.505,100.942v42.822H90.553v-41.106L101.505,100.942z" fill="#9D9D9C">
					<animate attributeName = "opacity" begin = "0" dur = "3.918992945173863" from = "0" to = "0" fill = "remove"/>
					<animateTransform attributeName = "transform" attributeType = "XML" type = "translate" begin = "3.918992945173863" dur = "2.0246706872520717" from = "-117.08301698336646 -5.04178837609553" to = "0 0" fill = "freeze"/>
				</path>
				
				
				
				
			
				
				
				
				<path animation_id="3" d="M122.586,101.188c0.735,1.144,1.062,2.124,1.471,4.249c2.861-2.779,6.374-4.249,10.215-4.249     c3.432,0,6.293,1.144,8.499,3.432c0.572,0.572,1.144,1.308,1.634,2.043c3.842-3.922,7.273-5.475,11.851-5.475     c3.269,0,6.375,0.979,8.254,2.615c2.37,2.043,3.106,4.494,3.106,10.214v29.747h-10.625v-27.622c0-4.984-0.572-5.966-3.432-5.966     c-2.043,0-4.904,1.389-7.273,3.514v30.074h-10.378v-27.213c0-5.23-0.735-6.456-3.759-6.456c-2.043,0-4.822,1.062-7.191,3.187     v30.482h-10.705V114.59c0-6.047-0.41-8.662-1.554-10.705L122.586,101.188z" fill="#9D9D9C"/>
				
				
				
				
			
				
				
				
				<path animation_id="4" d="M212.802,139.106c-4.822,3.924-9.889,5.803-15.772,5.803c-12.014,0-19.777-8.499-19.777-21.656     c0-7.519,1.553-12.504,5.23-16.59c3.432-3.841,7.6-5.639,13.157-5.639c4.822,0,9.398,1.634,12.096,4.413     c3.841,3.923,5.556,9.562,5.556,18.306c0,0.898,0,1.798,0,2.533h-24.189v0.326c0,6.457,3.187,10.135,8.825,10.135     c3.76,0,7.273-1.389,10.625-4.168L212.802,139.106z M201.932,118.268v-0.49c0-3.105-0.327-4.739-1.307-6.293     c-1.062-1.634-2.614-2.451-4.822-2.451c-4.168,0-6.538,3.269-6.538,9.071v0.163H201.932z" fill="#9D9D9C"/>
				
				
				
				
		
			
			
			
			</g>
			
			
			
			
		
			
			
			
			<g>
				
				
				
				
			
				
				
				
				<path animation_id="5" d="M353.631,101.105c0.409,1.471,0.654,2.614,0.735,3.923c1.88-2.288,6.049-3.923,10.298-3.923     c2.941,0,5.965,0.98,8.254,2.532c4.494,3.024,7.764,8.418,7.764,18.062c0,8.988-1.471,13.565-5.803,18.224     c-2.86,3.022-6.62,4.739-11.196,4.739c-3.268,0-6.374-0.816-8.745-2.205c0.166,0.979,0.166,2.205,0.166,3.432v13.075     l-10.543,2.778v-48.38c0-5.476-0.082-7.028-0.654-10.542L353.631,101.105z M361.231,136.001c5.395,0,7.519-3.678,7.519-13.238     c0-4.006-0.328-7.192-1.062-9.236c-0.817-2.287-2.533-3.514-5.229-3.514c-2.697,0-5.312,1.145-7.273,3.188v20.349     C356.655,134.775,359.023,136.001,361.231,136.001z" fill="#9D9D9C"/>
				
				
				
				
			
				
				
				
				<path animation_id="6" d="M422.847,139.106c-4.823,3.922-9.89,5.802-15.773,5.802c-12.014,0-19.777-8.499-19.777-21.656     c0-7.519,1.554-12.503,5.23-16.59c3.433-3.841,7.601-5.639,13.157-5.639c4.822,0,9.398,1.634,12.096,4.413     c3.841,3.922,5.556,9.562,5.556,18.307c0,0.898,0,1.797,0,2.533h-24.189v0.326c0,6.457,3.188,10.135,8.825,10.135     c3.761,0,7.273-1.391,10.625-4.168L422.847,139.106z M411.976,118.267v-0.49c0-3.105-0.326-4.74-1.308-6.293     c-1.062-1.634-2.613-2.451-4.821-2.451c-4.168,0-6.538,3.27-6.538,9.072v0.162H411.976z" fill="#9D9D9C"/>
				
				
				
				
			
				
				
				
				<path animation_id="7" d="M462.966,107.397c3.351,3.923,4.823,8.5,4.823,15.283c0,7.191-1.636,12.095-5.23,16.181     c-3.188,3.597-7.355,5.802-13.812,5.802c-11.358,0-18.796-8.499-18.796-21.656s7.519-21.901,18.796-21.901     C454.712,101.105,459.371,103.148,462.966,107.397z M443.271,113.445c-0.734,2.206-1.145,5.148-1.145,9.317     c0,4.82,0.491,8.416,1.389,10.541c0.981,2.288,3.434,3.434,5.559,3.434c4.739,0,6.782-4.25,6.782-14.139     c0-5.639-0.734-9.316-2.207-11.196c-1.062-1.39-2.778-2.206-4.739-2.206C446.295,109.196,444.17,110.83,443.271,113.445z" fill="#9D9D9C"/>
				
				
				
				
			
				
				
				
				<path animation_id="8" d="M486.497,101.105c0.409,1.471,0.654,2.614,0.735,3.923c1.88-2.288,6.048-3.923,10.298-3.923     c2.942,0,5.965,0.98,8.254,2.532c4.495,3.024,7.764,8.418,7.764,18.062c0,8.988-1.472,13.565-5.802,18.224     c-2.86,3.022-6.621,4.739-11.197,4.739c-3.269,0-6.373-0.816-8.744-2.205c0.164,0.979,0.164,2.205,0.164,3.432v13.075     l-10.542,2.778v-48.38c0-5.476-0.083-7.028-0.654-10.542L486.497,101.105z M494.097,136.001c5.396,0,7.52-3.678,7.52-13.238     c0-4.006-0.328-7.192-1.062-9.236c-0.817-2.287-2.534-3.514-5.23-3.514c-2.697,0-5.312,1.145-7.272,3.188v20.349     C489.521,134.775,491.891,136.001,494.097,136.001z" fill="#9D9D9C"/>
				
				
				
				
			
				
				
				
				<path animation_id="9" d="M533.565,94.159v32.607c0,7.191,0.081,8.172,0.734,9.316c0.409,0.735,1.308,1.145,2.207,1.145     c0.409,0,0.654,0,1.228-0.164l1.877,6.537c-1.877,0.736-4.167,1.145-6.537,1.145c-4.657,0-8.417-2.206-9.725-5.721     c-0.816-2.125-0.979-3.433-0.979-9.398V98.409c0-5.477-0.164-8.827-0.573-12.586l11.195-2.533     C533.401,85.578,533.565,88.274,533.565,94.159z" fill="#9D9D9C"/>
				
				
				
				
			
				
				
				
				<path animation_id="10" d="M580.471,139.106c-4.822,3.922-9.89,5.802-15.771,5.802c-12.014,0-19.777-8.499-19.777-21.656     c0-7.519,1.552-12.503,5.23-16.59c3.432-3.841,7.599-5.639,13.156-5.639c4.822,0,9.398,1.634,12.096,4.413     c3.84,3.922,5.557,9.562,5.557,18.307c0,0.898,0,1.797,0,2.533h-24.189v0.326c0,6.457,3.186,10.135,8.826,10.135     c3.759,0,7.272-1.391,10.624-4.168L580.471,139.106z M569.601,118.267v-0.49c0-3.105-0.325-4.74-1.307-6.293     c-1.063-1.634-2.615-2.451-4.822-2.451c-4.169,0-6.537,3.27-6.537,9.072v0.162H569.601z" fill="#9D9D9C">
					<animate attributeName = "fill" begin = "0" dur = "2.5234342790869513" from = "#000000" to = "#47c09d" fill = "remove"/>
					<animate attributeName = "fill" begin = "2.5234342790869513" dur = "4.540564425976676" from = "#47c09d" to = "#000000" fill = "freeze"/>
				</path>
				
				
				
				
		
			
			
			
			</g>
			
			
			
			
	
		
		
		
		</g>
		
		
		
		

	
	
	
	</g>
	
	
	
	




</svg>
