<?xml version="1.0" encoding="iso-8859-1"?>
<!-- Generator: Adobe Illustrator 15.0.0, SVG Export Plug-In . SVG Version: 6.00 Build 0)  -->
<!DOCTYPE svg
  PUBLIC '-//W3C//DTD SVG 1.1//EN'
  'http://www.w3.org/Graphics/SVG/1.1/DTD/svg11.dtd'>
<svg enable-background="new 0 0 595.275 637.795" height="637.795px" version="1.1" viewBox="0 0 595.275 637.795" width="595.275px" x="0px" xml:space="preserve" xmlns="http://www.w3.org/2000/svg" xmlns:xlink="http://www.w3.org/1999/xlink" y="0px">
	
	

	
	<g id="Hintergrund">
</g>
	
	

	
	<g display="none" id="Hilfslinien">
</g>
	
	

	
	<g id="Vordergrund">
		
		
	
		
		<g>
			
			
		
			
			<g>
				
				
			
				
				<path animation_id="0" d="M29.042,251.052c0,1.969-0.438,2.297-2.298,2.297H16.566c-1.86,0-2.297-0.328-2.297-2.297v-70.37     c0-1.97,0.437-2.298,2.297-2.298h17.73c8.864,0,25.499,0,25.499,20.574c0,18.059-13.46,24.404-24.952,24.404h-5.801V251.052z      M32.437,211.872c6.456,0,12.584-1.096,12.584-12.148c0-9.521-5.8-9.85-11.492-9.85h-4.487v21.998H32.437z" fill="#9D9D9C"/>
				
				
			
				
				<path animation_id="1" d="M81.021,251.817c0,1.203-0.218,1.531-1.532,1.531H68.655c-1.314,0-1.534-0.328-1.534-1.531v-33.051     c0-12.039-2.845-14.009-2.845-16.525c0-0.438,0.438-0.766,0.985-0.984l8.318-3.393c0.437-0.11,0.985-0.438,1.422-0.438     c1.313,0,3.503,4.925,4.049,8.646c2.079-2.517,6.128-8.646,13.571-8.646c3.174,0,6.348,1.095,6.348,2.517     c0,0.438-0.11,0.876-0.22,1.096l-3.393,9.191c-0.11,0.329-0.437,0.985-0.875,0.985c-0.656,0-2.626-1.203-5.144-1.203     c-3.392,0-6.895,3.72-8.317,5.253V251.817z" fill="#9D9D9C"/>
				
				
			
				
				<path animation_id="2" d="M124.684,251.817c0,1.203-0.218,1.531-1.531,1.531h-10.834c-1.313,0-1.533-0.328-1.533-1.531v-42.354     h-8.426c-1.313,0-1.533-0.328-1.533-1.532v-7.113c0-1.204,0.219-1.532,1.533-1.532h20.794c1.313,0,1.531,0.328,1.531,1.532     V251.817z M117.679,192.173c-5.034,0-9.083-4.05-9.083-9.084s4.049-8.975,9.083-8.975c4.925,0,8.974,3.94,8.974,8.975     S122.604,192.173,117.679,192.173z" fill="#9D9D9C"/>
				
				
			
				
				<path animation_id="3" d="M207.199,251.817c0,1.203-0.22,1.531-1.531,1.531h-10.836c-1.312,0-1.532-0.328-1.532-1.531v-33.708     c0-4.158-0.438-9.192-4.596-9.192c-4.597,0-8.208,3.174-9.631,4.486v38.414c0,1.203-0.22,1.531-1.532,1.531h-10.836     c-1.312,0-1.531-0.328-1.531-1.531v-33.708c0-4.158-0.438-9.192-4.596-9.192c-4.597,0-8.208,3.174-9.631,4.486v38.414     c0,1.203-0.22,1.531-1.532,1.531h-10.834c-1.314,0-1.534-0.328-1.534-1.531v-33.051c0-15.432-2.079-14.557-2.079-17.073     c0-0.547,0.438-0.985,1.204-1.204l8.318-2.735c0.656-0.218,1.203-0.328,1.641-0.328c1.423,0,2.299,2.407,3.502,7.552     c3.282-2.846,8.098-7.552,16.745-7.552c4.705,0,9.849,2.955,11.163,7.552c3.282-2.846,7.989-7.552,16.963-7.552     c10.286,0,12.694,7.771,12.694,17.292V251.817z" fill="#9D9D9C"/>
				
				
			
				
				<path animation_id="4" d="M260.379,247.55c0.219,0.328,0.328,0.766,0.328,1.203c0,2.846-10.944,6.457-19.589,6.457     c-14.447,0-24.514-8.207-24.514-28.345c0-17.401,9.301-29.439,23.967-29.439c18.605,0,21.888,16.636,21.888,29.878     c0,2.078-0.438,2.735-2.518,2.735h-29.438c0,6.128,1.75,13.679,12.038,13.679c7.88,0,12.366-3.611,13.899-3.611     c0.546,0,0.985,0.438,1.204,0.877L260.379,247.55z M247.683,219.86c0-4.486-0.327-12.258-7.88-12.258     c-8.535,0-8.974,9.193-9.301,12.258H247.683z" fill="#9D9D9C"/>
				
				
			
				
				<path animation_id="5" d="M309.182,251.052c0,1.969-0.438,2.297-2.299,2.297h-10.178c-1.86,0-2.297-0.328-2.297-2.297v-70.37     c0-1.97,0.437-2.298,2.297-2.298h17.731c8.864,0,25.499,0,25.499,20.574c0,18.059-13.461,24.404-24.953,24.404h-5.8V251.052z      M312.575,211.872c6.456,0,12.585-1.096,12.585-12.148c0-9.521-5.8-9.85-11.492-9.85h-4.486v21.998H312.575z" fill="#9D9D9C"/>
				
				
			
				
				<path animation_id="6" d="M386.113,247.55c0.22,0.328,0.327,0.766,0.327,1.203c0,2.846-10.943,6.457-19.589,6.457     c-14.446,0-24.514-8.207-24.514-28.345c0-17.401,9.301-29.439,23.968-29.439c18.604,0,21.888,16.636,21.888,29.878     c0,2.078-0.439,2.735-2.519,2.735h-29.438c0,6.128,1.751,13.679,12.039,13.679c7.879,0,12.365-3.611,13.897-3.611     c0.547,0,0.985,0.438,1.205,0.877L386.113,247.55z M373.417,219.86c0-4.486-0.327-12.258-7.879-12.258     c-8.536,0-8.975,9.193-9.302,12.258H373.417z" fill="#9D9D9C"/>
				
				
			
				
				<path animation_id="7" d="M418.723,255.21c-14.775,0-23.75-11.272-23.75-28.893c0-17.619,8.975-28.892,23.75-28.892     c14.665,0,23.748,11.272,23.748,28.892C442.471,243.938,433.497,255.21,418.723,255.21z M427.697,226.317     c0-10.178-1.424-17.947-8.975-17.947c-7.553,0-8.974,7.77-8.974,17.947s1.312,17.948,8.974,17.948     C426.383,244.266,427.697,236.604,427.697,226.317z" fill="#9D9D9C"/>
				
				
			
				
				<path animation_id="8" d="M466.104,272.392c0,1.533-0.766,1.752-2.079,1.971l-9.194,1.859c-0.328,0.11-1.313,0.329-1.86,0.329     s-0.765-0.438-0.765-2.299v-55.485c0-15.432-2.08-14.557-2.08-17.073c0-0.547,0.438-0.985,1.204-1.204l8.317-2.735     c0.657-0.218,1.204-0.328,1.642-0.328c1.423,0,2.188,2.079,3.393,5.69c2.408-2.298,6.677-5.69,14.008-5.69     c12.148,0,18.934,9.521,18.934,27.907c0,19.152-5.911,29.877-20.138,29.877c-6.347,0-9.083-1.641-11.381-2.846V272.392z      M466.104,242.187c1.97,1.094,3.72,2.079,7.989,2.079c7.66,0,9.63-5.472,9.63-18.386c0-11.272-2.079-17.51-8.864-17.51     c-4.596,0-7.224,2.734-8.755,4.158V242.187z" fill="#9D9D9C"/>
				
				
			
				
				<path animation_id="9" d="M531.871,251.271c0.108,0.547,0.219,0.547,0.219,0.875c0,1.531-5.801,3.064-11.055,3.064     c-13.46,0-13.46-11.054-13.46-21.122v-55.814c0-1.642,0.767-1.642,2.08-1.97l9.193-1.861c0.326,0,1.312-0.328,1.53-0.328     c0.876,0,1.096,0.438,1.096,2.299v59.646c0,3.501,0,6.565,3.064,6.565c2.188,0,3.61-0.985,4.268-0.985     c0.438,0,0.767,0.22,0.876,0.657L531.871,251.271z" fill="#9D9D9C"/>
				
				
			
				
				<path animation_id="10" d="M578.927,247.55c0.22,0.328,0.328,0.766,0.328,1.203c0,2.846-10.944,6.457-19.589,6.457     c-14.447,0-24.515-8.207-24.515-28.345c0-17.401,9.302-29.439,23.968-29.439c18.604,0,21.888,16.636,21.888,29.878     c0,2.078-0.438,2.735-2.518,2.735h-29.438c0,6.128,1.75,13.679,12.038,13.679c7.88,0,12.366-3.611,13.899-3.611     c0.547,0,0.984,0.438,1.202,0.877L578.927,247.55z M566.231,219.86c0-4.486-0.327-12.258-7.88-12.258     c-8.535,0-8.974,9.193-9.301,12.258H566.231z" fill="#9D9D9C"/>
				
				
		
			
			</g>
			
			
		
			
			<g>
				
				
			
				
				
				<polygon animation_id="11" clip-rule="evenodd" fill="#164194" fill-rule="evenodd" points="     262.571,23.968 267.603,22.626 271.35,19.942 272.356,18.265 277.054,17.259 280.745,16.192 284.828,15.188 287.846,14.853      292.544,15.188 296.488,16.923 300.317,17.929 302.33,15.858 306.356,15.858 311.446,16.192 319.162,18.265 323.245,21.284      329.619,22.962 332.975,25.981 337.059,29 343.096,30.399 345.109,32.749 349.192,36.438 351.205,40.8 351.542,42.536      353.554,48.574 356.237,53.271 358.25,58.36 358.979,62.388 361.327,66.413 363.005,71.839 363.341,75.864 363.005,80.618      361.664,82.297 359.65,82.968 358.979,86.323 359.986,89.342 359.65,92.755 358.979,95.438 359.314,99.464 359.65,102.148      358.979,104.22 357.916,108.581 355.566,111.265 353.218,112.271 350.87,114.283 349.864,117.696 347.85,120.046      346.509,120.046 342.426,122.729 344.438,125.077 342.761,127.761 336.052,133.188 331.296,134.864 328.277,134.864      323.917,134.528 321.232,136.869 317.821,136.869 313.123,139.226 311.782,140.233 306.691,142.974 304.008,144.315      300.653,144.987 294.222,145.323 290.531,145.658 286.505,145.658 282.422,143.645 279.402,141.632 275.041,140.903      272.022,140.567 268.274,138.89 263.913,133.858 259.216,132.181 254.797,131.174 252.113,129.497 247.751,125.077      247.751,123.063 246.745,119.71 241.991,115.962 238.972,111.6 237.629,107.575 232.875,102.483 232.875,99.129 233.547,96.444      230.863,91.019 231.198,84.31 232.541,77.878 231.869,76.199 230.191,71.167 230.528,64.735 231.535,56.013 232.875,54.671      235.282,51.258 236.958,52.601 238.972,50.251 239.308,46.562 240.65,43.877 242.998,41.136 246.411,38.452 247.082,34.761      250.436,31.07 254.797,26.316 259.216,26.316    " stroke="#164194" stroke-miterlimit="3.8637" stroke-width="0"/>
				
				
			
				
				
				<polygon animation_id="12" clip-rule="evenodd" fill="#164194" fill-rule="evenodd" points="     184.249,288.573 200.972,296.79 212.379,294.132 230.698,294.132 253.512,291.528 266.514,289.105 268.109,295.194      278.985,298.386 301.268,295.727 316.928,291.528 333.651,294.132 351.681,291.528 353.807,285.915 377.684,286.446      391.751,291.528 406.954,291.528 401.562,305.538 403.688,312.983 398.902,325.454 387.495,345.61 381.938,343.483      384.306,359.677 373.962,383.023 373.962,404.243 367.342,418.309 363.086,422.563 353.807,446.442 349.554,444.847      347.427,460.509 342.4,483.854 338.146,503.237 333.892,517.013 328.867,529.483 321.423,529.483 319.587,548.868      314.801,564.53 313.738,582.026 307.647,590.774 299.141,605.374 298.607,622.942 291.456,609.628 291.456,579.901      286.669,571.683 282.175,567.431 270.236,550.997 272.072,529.483 266.514,515.179 264.919,511.987 262.261,515.95      251.385,484.917 252.449,458.382 238.383,426.286 232.826,410.093 227.508,411.155 217.696,386.745 215.037,354.359      206.29,344.015 199.908,327.05 191.161,310.325 190.628,303.412 190.097,296.79    " stroke="#164194" stroke-miterlimit="3.8637" stroke-width="0"/>
				
				
		
			
			</g>
			
			
	
		
		</g>
		
		

	
	</g>
	
	


</svg>
