<?xml version="1.0" encoding="UTF-8"?>
<!DOCTYPE svg PUBLIC "-//W3C//DTD SVG 1.1//EN" "http://www.w3.org/Graphics/SVG/1.1/DTD/svg11.dtd">
<!-- Creator: CorelDRAW X6 -->
<svg xmlns="http://www.w3.org/2000/svg" xml:space="preserve" width="8.38889in" height="2.90278in" version="1.1" style="shape-rendering:geometricPrecision; text-rendering:geometricPrecision; image-rendering:optimizeQuality; fill-rule:evenodd; clip-rule:evenodd"
viewBox="0 0 8389 2903"
 xmlns:xlink="http://www.w3.org/1999/xlink">
 <defs>
  <style type="text/css">
   <![CDATA[
    .fil0 {fill:#00A1CF;fill-rule:nonzero}
   ]]>
  </style>
 </defs>
 <g id="Layer_x0020_1">
  <metadata id="CorelCorpID_0Corel-Layer"/>
  <path class="fil0" d="M3218 1551c-43,50 -68,93 -74,127 -7,34 -10,83 -10,147 0,73 3,120 9,142 6,21 18,32 35,32 17,0 28,-8 33,-25 5,-17 8,-61 8,-132l0 -291zm-85 -194l-250 0 0 -95c0,-109 8,-194 23,-253 16,-59 47,-112 94,-157 47,-45 108,-68 184,-68 90,0 158,26 204,77 46,52 73,115 83,190 9,75 14,229 14,463l0 710 -260 0 0 -126c-16,51 -37,88 -63,114 -26,25 -57,38 -92,38 -47,0 -90,-21 -129,-63 -39,-42 -58,-135 -58,-278l0 -116c0,-106 10,-178 31,-216 21,-38 72,-83 154,-134 88,-55 135,-93 141,-112 6,-19 9,-58 9,-117 0,-74 -3,-122 -10,-144 -7,-22 -18,-34 -34,-34 -18,0 -29,9 -34,28 -4,19 -7,68 -7,147l0 148z"/>
  <path class="fil0" d="M3903 1165c0,-52 -3,-87 -8,-104 -5,-18 -16,-27 -33,-27 -16,0 -27,8 -32,24 -6,16 -8,52 -8,107l0 693c0,58 3,95 8,113 5,18 15,27 30,27 17,0 29,-10 34,-30 6,-20 9,-70 9,-149l0 -654zm267 -667l0 1726 -267 0 0 -103c-26,43 -52,75 -81,96 -28,21 -58,32 -89,32 -41,0 -77,-18 -108,-53 -30,-35 -50,-76 -58,-122 -9,-46 -13,-122 -13,-226l0 -662c0,-109 4,-186 13,-231 9,-45 28,-85 59,-120 31,-34 68,-52 110,-52 33,0 63,10 91,29 28,19 53,48 75,87l0 -401 267 0z"/>
  <path class="fil0" d="M4576 1551c-43,50 -68,93 -74,127 -7,34 -10,83 -10,147 0,73 3,120 9,142 6,21 18,32 35,32 17,0 28,-8 33,-25 5,-17 8,-61 8,-132l0 -291zm-85 -194l-250 0 0 -95c0,-109 8,-194 23,-253 16,-59 47,-112 94,-157 47,-45 108,-68 184,-68 90,0 158,26 204,77 46,52 73,115 83,190 9,75 14,229 14,463l0 710 -260 0 0 -126c-16,51 -37,88 -63,114 -26,25 -57,38 -92,38 -47,0 -90,-21 -129,-63 -39,-42 -58,-135 -58,-278l0 -116c0,-106 10,-178 31,-216 21,-38 72,-83 154,-134 88,-55 135,-93 141,-112 6,-19 9,-58 9,-117 0,-74 -3,-122 -10,-144 -7,-22 -18,-34 -34,-34 -18,0 -29,9 -34,28 -4,19 -7,68 -7,147l0 148z"/>
  <path class="fil0" d="M5185 809l-5 135c21,-53 45,-93 74,-120 29,-27 61,-40 98,-40 71,0 128,53 169,160 22,-53 48,-93 76,-120 28,-27 60,-40 94,-40 45,0 83,18 113,53 30,36 49,79 57,131 8,52 13,135 13,251l0 1005 -259 0 0 -922c0,-121 -3,-196 -8,-224 -5,-29 -17,-43 -35,-43 -19,0 -31,14 -37,43 -6,28 -8,103 -8,225l0 922 -259 0 0 -899c0,-139 -2,-222 -6,-249 -4,-28 -16,-42 -35,-42 -12,0 -22,7 -30,22 -8,15 -13,32 -14,53 -1,21 -1,66 -1,134l0 981 -259 0 0 -1414 264 0z"/>
  <path class="fil0" d="M6402 497l0 388c23,-34 48,-60 74,-77 27,-17 55,-26 86,-26 47,0 86,19 119,58 33,38 53,83 60,133 7,50 11,142 11,274l0 975 -267 0 0 -996c0,-82 -3,-135 -8,-159 -5,-23 -16,-35 -34,-35 -16,0 -27,12 -33,36 -6,24 -9,72 -9,144l0 1009 -267 0 0 -1726 267 0z"/>
  <path class="fil0" d="M7134 1551c-43,50 -68,93 -74,127 -7,34 -10,83 -10,147 0,73 3,120 9,142 6,21 18,32 35,32 17,0 28,-8 33,-25 5,-17 8,-61 8,-132l0 -291zm-85 -194l-250 0 0 -95c0,-109 8,-194 23,-253 16,-59 47,-112 94,-157 47,-45 108,-68 184,-68 90,0 158,26 204,77 46,52 73,115 83,190 9,75 14,229 14,463l0 710 -260 0 0 -126c-16,51 -37,88 -63,114 -26,25 -56,38 -92,38 -47,0 -90,-21 -129,-63 -39,-42 -58,-135 -58,-278l0 -116c0,-106 10,-178 31,-216 21,-38 72,-83 154,-134 88,-55 135,-93 141,-112 6,-19 9,-58 9,-117 0,-74 -3,-122 -10,-144 -7,-22 -18,-34 -34,-34 -18,0 -29,9 -34,28 -4,19 -7,68 -7,147l0 148z"/>
  <polygon class="fil0" points="7479,2223 7754,2223 7754,497 7479,497 "/>
  <polygon class="fil0" points="7850,2223 8125,2223 8125,497 7850,497 "/>
  <path class="fil0" d="M8287 586l17 0c11,0 19,-2 19,-14 0,-11 -11,-12 -20,-12l-17 0 0 26zm106 12l0 -7c-2,-52 -44,-84 -90,-84 -48,0 -91,34 -91,88 0,54 43,88 91,88 47,0 89,-33 90,-85zm-126 -53l37 0c25,0 39,8 39,29 0,18 -11,25 -26,26l26 43 -21 0 -24 -42 -12 0 0 42 -20 0 0 -99zm35 119c37,0 66,-29 66,-70 0,-40 -30,-69 -66,-69 -37,0 -66,29 -66,69 0,40 29,70 66,70z"/>
  <path class="fil0" d="M2649 1123c0,-98 -50,-184 -125,-235 30,45 48,99 48,157 0,0 0,1134 0,1143 0,8 -4,14 -12,14 -9,0 -505,0 -513,0 -9,0 -12,-3 -12,-12 0,-9 0,-1112 0,-1112 0,0 -2,-125 -107,-126 -119,-2 -119,126 -119,126 0,0 0,1105 0,1112 0,8 -3,12 -12,12 -9,0 -972,0 -972,0 -157,0 -284,-127 -284,-284l0 -336c0,-243 44,-434 285,-565 86,-53 195,-66 230,-69 7,-1 11,2 11,8 0,6 0,910 0,910 0,65 46,118 102,118 57,0 103,-53 103,-118l0 -1284c0,-65 -46,-118 -103,-118 -57,0 -102,53 -102,118 0,0 0,219 0,223 0,6 -2,9 -9,9 -6,0 -502,0 -509,0 -6,0 -8,-3 -8,-8 0,-46 0,-257 0,-264 0,-147 128,-267 284,-267l700 0c157,0 284,120 284,267 0,5 0,219 0,219l480 0c68,0 131,24 180,64 -172,-472 -625,-813 -1161,-828l-72 0c-685,19 -1235,570 -1235,1248 0,689 569,1248 1271,1248 264,0 509,-79 713,-215l653 0 0 0c9,0 12,-6 12,-14 0,-9 0,-1143 0,-1143z"/>
  <path class="fil0" d="M3036 2676c0,-27 -4,-46 -13,-57 -9,-11 -23,-17 -42,-17 -20,0 -34,6 -44,18 -10,12 -15,31 -15,56l115 0zm12 96l13 -1 1 26c-33,5 -62,7 -86,7 -32,0 -54,-9 -67,-28 -13,-18 -20,-47 -20,-86 0,-77 31,-116 92,-116 30,0 52,8 67,25 15,17 22,43 22,78l-2 25 -145 0c0,24 4,42 13,54 9,12 24,18 46,18 22,0 44,-1 67,-3z"/>
  <polygon class="fil0" points="3097,2579 3133,2579 3187,2665 3241,2579 3277,2579 3207,2688 3276,2799 3240,2799 3187,2713 3133,2799 3097,2799 3166,2689 "/>
  <path class="fil0" d="M3412 2604c-9,0 -18,1 -28,4 -10,3 -18,6 -24,9l-8 4 0 148c21,3 37,5 48,5 24,0 40,-7 50,-20 10,-14 14,-36 14,-66 0,-31 -4,-52 -13,-65 -9,-13 -21,-19 -38,-19zm-94 293l0 -318 33 0 0 16c22,-14 44,-20 66,-20 28,0 48,9 61,27 13,18 19,47 19,88 0,41 -7,70 -22,88 -15,18 -39,27 -74,27 -18,0 -34,-2 -49,-5l0 98 -33 0z"/>
  <path class="fil0" d="M3688 2676c0,-27 -4,-46 -13,-57 -9,-11 -23,-17 -42,-17 -20,0 -34,6 -44,18 -10,12 -15,31 -15,56l115 0zm12 96l13 -1 1 26c-33,5 -62,7 -86,7 -32,0 -54,-9 -67,-28 -13,-18 -20,-47 -20,-86 0,-77 31,-116 92,-116 30,0 52,8 67,25 15,17 22,43 22,78l-2 25 -145 0c0,24 4,42 13,54 9,12 24,18 46,18 22,0 44,-1 67,-3z"/>
  <path class="fil0" d="M3773 2799l0 -220 33 0 0 30c26,-18 52,-29 81,-35l0 33c-12,2 -25,6 -39,11 -13,5 -24,9 -31,13l-11 6 0 162 -33 0z"/>
  <path class="fil0" d="M3925 2799l0 -220 33 0 0 220 -33 0zm0 -270l0 -38 33 0 0 38 -33 0z"/>
  <path class="fil0" d="M4159 2676c0,-27 -4,-46 -13,-57 -9,-11 -23,-17 -42,-17 -20,0 -34,6 -44,18 -10,12 -15,31 -15,56l115 0zm12 96l13 -1 1 26c-33,5 -62,7 -86,7 -32,0 -54,-9 -67,-28 -13,-18 -20,-47 -20,-86 0,-77 31,-116 92,-116 30,0 52,8 67,25 15,17 22,43 22,78l-2 25 -145 0c0,24 4,42 13,54 9,12 24,18 46,18 22,0 44,-1 67,-3z"/>
  <path class="fil0" d="M4277 2799l-33 0 0 -220 33 0 0 15c24,-13 47,-20 68,-20 29,0 49,8 59,24 10,16 15,44 15,85l0 116 -33 0 0 -115c0,-31 -3,-51 -9,-63 -6,-11 -19,-17 -39,-17 -9,0 -19,1 -30,4 -10,3 -18,5 -24,8l-8 4 0 179z"/>
  <path class="fil0" d="M4563 2575c10,0 26,2 49,5l11 1 -1 27c-24,-3 -41,-4 -52,-4 -25,0 -42,6 -51,18 -9,12 -13,34 -13,66 0,32 4,55 13,67 8,13 26,19 52,19l52 -4 1 27c-27,4 -48,6 -61,6 -34,0 -58,-9 -71,-26 -13,-18 -20,-47 -20,-89 0,-42 7,-71 21,-88 14,-17 38,-25 70,-25z"/>
  <path class="fil0" d="M4808 2676c0,-27 -4,-46 -13,-57 -9,-11 -23,-17 -42,-17 -20,0 -34,6 -44,18 -10,12 -15,31 -15,56l114 0zm12 96l13 -1 1 26c-33,5 -62,7 -86,7 -32,0 -54,-9 -67,-28 -13,-18 -20,-47 -20,-86 0,-77 31,-116 92,-116 30,0 52,8 66,25 15,17 22,43 22,78l-2 25 -145 0c0,24 4,42 13,54 9,12 24,18 46,18 22,0 44,-1 67,-3z"/>
  <path class="fil0" d="M5127 2676c0,-27 -4,-46 -13,-57 -9,-11 -23,-17 -42,-17 -20,0 -34,6 -44,18 -10,12 -15,31 -15,56l115 0zm12 96l13 -1 1 26c-33,5 -62,7 -86,7 -32,0 -54,-9 -67,-28 -13,-18 -20,-47 -20,-86 0,-77 31,-116 92,-116 30,0 52,8 66,25 15,17 22,43 22,78l-2 25 -145 0c0,24 4,42 13,54 9,12 24,18 46,18 22,0 44,-1 67,-3z"/>
  <polygon class="fil0" points="5187,2579 5223,2579 5274,2771 5290,2771 5344,2579 5377,2579 5315,2799 5249,2799 "/>
  <path class="fil0" d="M5554 2676c0,-27 -4,-46 -13,-57 -9,-11 -23,-17 -42,-17 -20,0 -34,6 -44,18 -10,12 -15,31 -15,56l114 0zm12 96l13 -1 1 26c-33,5 -62,7 -86,7 -32,0 -54,-9 -67,-28 -13,-18 -20,-47 -20,-86 0,-77 31,-116 92,-116 30,0 52,8 66,25 15,17 22,43 22,78l-2 25 -145 0c0,24 4,42 13,54 9,12 24,18 46,18 22,0 44,-1 67,-3z"/>
  <path class="fil0" d="M5671 2799l-33 0 0 -220 33 0 0 15c24,-13 47,-20 68,-20 29,0 49,8 59,24 10,16 15,44 15,85l0 116 -33 0 0 -115c0,-31 -3,-51 -9,-63 -6,-11 -19,-17 -39,-17 -9,0 -19,1 -30,4 -10,3 -18,5 -24,8l-8 4 0 179z"/>
  <path class="fil0" d="M5987 2608l-70 0 0 105c0,25 2,42 5,50 4,8 12,12 26,12l39 -3 2 27c-20,3 -35,5 -45,5 -23,0 -39,-6 -48,-17 -9,-11 -13,-32 -13,-64l0 -116 -31 0 0 -29 31 0 0 -67 33 0 0 67 70 0 0 29z"/>
  <path class="fil0" d="M6239 2608l-70 0 0 105c0,25 2,42 5,50 4,8 12,12 26,12l39 -3 2 27c-20,3 -35,5 -45,5 -23,0 -39,-6 -48,-17 -9,-11 -13,-32 -13,-64l0 -116 -31 0 0 -29 31 0 0 -67 33 0 0 67 70 0 0 29z"/>
  <path class="fil0" d="M6417 2676c0,-27 -4,-46 -13,-57 -9,-11 -23,-17 -42,-17 -20,0 -34,6 -44,18 -10,12 -15,31 -15,56l115 0zm12 96l13 -1 1 26c-33,5 -62,7 -86,7 -32,0 -54,-9 -67,-28 -13,-18 -20,-47 -20,-86 0,-77 31,-116 92,-116 30,0 52,8 67,25 15,17 22,43 22,78l-2 25 -145 0c0,24 4,42 13,54 9,12 24,18 46,18 22,0 44,-1 67,-3z"/>
  <path class="fil0" d="M6584 2575c10,0 26,2 49,5l11 1 -1 27c-23,-3 -41,-4 -52,-4 -25,0 -42,6 -51,18 -9,12 -13,34 -13,66 0,32 4,55 13,67 8,13 26,19 52,19l52 -4 1 27c-27,4 -48,6 -61,6 -34,0 -58,-9 -71,-26 -13,-18 -20,-47 -20,-89 0,-42 7,-71 21,-88 14,-17 38,-25 70,-25z"/>
  <path class="fil0" d="M6727 2799l-33 0 0 -316 33 0 0 108c23,-11 46,-17 68,-17 29,0 49,8 59,24 10,16 15,44 15,85l0 116 -33 0 0 -115c0,-31 -3,-51 -9,-63 -6,-11 -19,-17 -38,-17 -18,0 -36,3 -54,10l-8 3 0 182z"/>
  <path class="fil0" d="M6963 2799l-33 0 0 -220 33 0 0 15c24,-13 47,-20 68,-20 29,0 49,8 59,24 10,16 15,44 15,85l0 116 -33 0 0 -115c0,-31 -3,-51 -9,-63 -6,-11 -19,-17 -39,-17 -9,0 -19,1 -30,4 -10,3 -18,5 -24,8l-8 4 0 179z"/>
  <path class="fil0" d="M7191 2688c0,32 4,55 12,68 8,13 24,19 49,19 25,0 41,-6 49,-19 8,-13 11,-35 11,-68 0,-32 -4,-54 -13,-67 -9,-12 -24,-18 -47,-18 -23,0 -39,6 -48,18 -9,12 -13,34 -13,67zm-34 1c0,-40 7,-69 22,-87 14,-18 39,-27 73,-27 34,0 58,9 73,27 14,18 21,47 21,87 0,40 -7,69 -20,88 -14,18 -38,27 -74,27 -36,0 -60,-9 -74,-27 -14,-18 -20,-47 -20,-88z"/>
  <polygon class="fil0" points="7402,2799 7435,2799 7435,2483 7402,2483 "/>
  <path class="fil0" d="M7525 2688c0,32 4,55 12,68 8,13 24,19 49,19 25,0 41,-6 49,-19 8,-13 11,-35 11,-68 0,-32 -4,-54 -13,-67 -9,-12 -24,-18 -47,-18 -23,0 -39,6 -48,18 -9,12 -13,34 -13,67zm-34 1c0,-40 7,-69 22,-87 14,-18 39,-27 73,-27 34,0 58,9 73,27 14,18 21,47 21,87 0,40 -7,69 -20,88 -14,18 -38,27 -74,27 -36,0 -60,-9 -74,-27 -14,-18 -20,-47 -20,-88z"/>
  <path class="fil0" d="M7760 2650c0,17 4,30 12,37 8,7 21,11 39,11 18,0 31,-4 38,-11 8,-7 11,-20 11,-37 0,-17 -4,-30 -11,-37 -8,-7 -20,-11 -38,-11 -18,0 -31,4 -39,11 -8,7 -12,20 -12,37zm-3 184c0,16 4,26 13,32 9,6 25,9 48,9 23,0 40,-3 50,-10 10,-6 15,-17 15,-32 0,-15 -4,-25 -11,-29 -7,-4 -22,-7 -43,-7l-48 -2c-10,7 -16,13 -20,19 -3,5 -5,12 -5,20zm62 69c-35,0 -60,-5 -74,-14 -14,-10 -21,-27 -21,-52 0,-12 3,-22 8,-29 5,-7 14,-16 27,-25 -8,-6 -12,-16 -12,-30 0,-5 4,-14 11,-28l4 -7c-23,-11 -35,-33 -35,-66 0,-50 27,-75 82,-75 14,0 27,1 39,4l7 1 65 -2 0 28 -42 -1c10,10 15,24 15,44 0,28 -7,47 -20,58 -14,11 -35,17 -65,17 -8,0 -15,-1 -22,-2 -5,13 -8,21 -8,25 0,9 3,15 8,17 6,2 22,3 51,3 28,0 48,4 61,13 12,9 19,26 19,52 0,47 -33,70 -98,70z"/>
  <polygon class="fil0" points="7939,2579 7972,2579 8027,2771 8042,2771 8097,2579 8130,2579 8039,2897 8006,2897 8034,2799 8002,2799 "/>
 </g>
</svg>
