<?xml version="1.0" encoding="UTF-8" standalone="no"?>
<!-- Created with Inkscape (http://www.inkscape.org/) -->
<svg
   xmlns:svg="http://www.w3.org/2000/svg"
   xmlns="http://www.w3.org/2000/svg"
   version="1.0"
   width="956.69287"
   height="283.46457"
   id="svg2327">
  <defs
     id="defs2329" />
  <g
     transform="translate(244.58844,-26.433703)"
     id="layer1">
    <g
       transform="translate(35.433065,35.436565)"
       id="g3486">
      <path
         d="M -37.143274,40.324683 C -36.967574,39.325413 -37.329954,37.853953 -37.944964,37.074303 L -45.214364,27.751423 C -45.829274,26.971773 -46.938374,26.850983 -47.685084,27.498863 L -58.512364,36.887623 C -59.259074,37.535503 -60.005794,38.886173 -60.170514,39.885443 L -73.391594,117.12589 C -73.567294,118.13614 -73.204914,119.59662 -72.600974,120.39823 L -65.606064,129.57836 C -65.002124,130.369 -63.860094,130.54469 -63.069474,129.9627 L -52.428884,122.17716 C -51.627294,121.60615 -50.836674,120.31039 -50.671944,119.30013 L -37.143274,40.324683"
         style="fill:#d90021;fill-rule:nonzero;stroke:none"
         id="path3113" />
      <path
         d="M -77.641294,143.29365 C -78.366064,143.96349 -79.112774,145.31416 -79.266434,146.31343 L -92.092294,223.56486 C -92.257024,224.56413 -91.905614,226.03559 -91.312654,226.8372 L -84.185934,236.42362 C -83.592974,237.22524 -82.461924,237.38995 -81.693264,236.78601 L -70.053414,227.68275 C -69.273774,227.07879 -68.505114,225.76106 -68.340384,224.7618 L -55.514524,146.10479 C -55.349804,145.10552 -55.701204,143.63406 -56.305144,142.83245 L -63.629514,133.01542 C -64.233454,132.21381 -65.320594,132.104 -66.045364,132.77384 L -77.641294,143.29365"
         style="fill:#d90021;fill-rule:nonzero;stroke:none"
         id="path3117" />
      <path
         d="M 213.49832,27.861233 C 212.8834,27.081583 211.5986,26.433703 210.63228,26.433703 L 120.88447,26.433703 C 119.90718,26.433703 118.53448,26.993733 117.82078,27.674553 L 105.86247,39.105793 C 105.14868,39.786613 105.0938,40.961583 105.74164,41.719273 L 113.18675,50.295443 C 113.83468,51.042153 115.16338,51.657093 116.1297,51.657093 L 206.18501,51.657093 C 207.15133,51.657093 208.53491,51.108043 209.25967,50.427213 L 220.57015,39.841523 C 221.29483,39.160693 221.38272,37.963763 220.76781,37.184113 L 213.49832,27.861233"
         style="fill:#d90021;fill-rule:nonzero;stroke:none"
         id="path3121" />
      <path
         d="M 151.13712,58.619053 C 150.1708,58.619053 149.24838,59.431653 149.08374,60.441903 L 139.87064,117.12589 C 139.70591,118.13614 140.06829,119.59662 140.67223,120.39823 L 147.66715,129.57836 C 148.27109,130.369 149.41311,130.54469 150.20373,129.9627 L 160.85539,122.17716 C 161.646,121.60615 162.42565,120.31039 162.59037,119.30013 L 172.12187,60.485823 C 172.2866,59.486553 171.62769,58.662973 170.66137,58.662973 L 151.13712,58.619053"
         style="fill:#d90021;fill-rule:nonzero;stroke:none"
         id="path3125" />
      <path
         d="M 135.632,143.29365 C 134.90723,143.96349 134.1715,145.31416 133.99579,146.31343 L 120.8735,223.56486 C 120.70877,224.56413 121.06018,226.03559 121.65314,226.8372 L 128.77986,236.42362 C 129.37282,237.22524 130.49289,237.38995 131.27253,236.78601 L 142.91237,227.68275 C 143.69202,227.07879 144.46068,225.76106 144.62541,224.7618 L 157.75868,146.10479 C 157.92341,145.10552 157.572,143.63406 156.96806,142.83245 L 149.64378,133.01542 C 149.03975,132.21381 147.96367,132.104 147.22793,132.77384 L 135.632,143.29365"
         style="fill:#d90021;fill-rule:nonzero;stroke:none"
         id="path3129" />
      <path
         d="M -121.75198,27.861233 C -122.36698,27.081583 -123.65169,26.433703 -124.6181,26.433703 L -176.8767,26.433703 C -177.84302,26.433703 -179.25961,26.949813 -180.02828,27.564743 L -194.2926,39.215603 C -195.05029,39.841523 -195.20404,41.016483 -194.63303,41.840063 L -188.76916,50.174653 C -188.19815,50.987253 -186.9353,51.657093 -185.96898,51.657093 L -129.98779,51.657093 C -129.02147,51.657093 -127.62682,51.119023 -126.89117,50.471143 L -114.71316,39.797593 C -113.96644,39.138733 -113.86766,37.963763 -114.48257,37.184113 L -121.75198,27.861233"
         style="fill:#d90021;fill-rule:nonzero;stroke:none"
         id="path3133" />
      <path
         d="M -193.0078,58.256683 C -192.8321,57.257403 -193.1835,55.796933 -193.79842,55.017283 L -201.06791,45.694403 C -201.68282,44.903763 -202.81387,44.761013 -203.59351,45.375953 L -214.00352,53.589753 C -214.77219,54.204683 -215.55183,55.522403 -215.72754,56.521683 L -225.81907,112.8982 C -225.99477,113.89747 -225.66532,115.36893 -225.07235,116.18152 L -217.71506,126.29504 C -217.12209,127.09665 -216.02406,127.25039 -215.25531,126.62447 L -204.81237,118.02633 C -204.0437,117.40042 -203.27504,116.07171 -203.09933,115.07244 L -193.0078,58.256683"
         style="fill:#d90021;fill-rule:nonzero;stroke:none"
         id="path3137" />
      <path
         d="M -231.65001,151.10115 C -232.37477,151.78197 -233.09953,153.14362 -233.26417,154.15387 L -244.54172,223.23543 C -244.70645,224.23471 -244.4209,225.77205 -243.91583,226.62856 L -237.08564,238.26844 C -236.58048,239.13593 -235.58124,239.27869 -234.87843,238.58688 L -222.98596,226.87015 C -222.28324,226.17834 -221.56945,224.78376 -221.40473,223.78448 L -209.81976,154.2527 C -209.65504,153.25343 -209.98449,151.76001 -210.54453,150.93644 L -217.68213,140.55938 C -218.24216,139.7358 -219.29638,139.61501 -220.02114,140.28485 L -231.65001,151.10115"
         style="fill:#d90021;fill-rule:nonzero;stroke:none"
         id="path3141" />
      <path
         d="M -100.67942,59.881873 C -100.50372,58.882593 -100.85512,57.433103 -101.45906,56.642473 L -108.73953,47.319593 C -109.35444,46.539933 -110.48549,46.397183 -111.25416,47.001143 L -121.66417,55.214943 C -122.44381,55.829873 -123.22345,57.147593 -123.39916,58.146873 L -133.47971,112.8982 C -133.66639,113.89747 -133.32596,115.36893 -132.74397,116.18152 L -125.37579,126.29504 C -124.7938,127.09665 -123.68471,127.25039 -122.92701,126.62447 L -112.4731,118.02633 C -111.71541,117.40042 -110.94666,116.07171 -110.76007,115.07244 L -100.67942,59.881873"
         style="fill:#d90021;fill-rule:nonzero;stroke:none"
         id="path3145" />
      <path
         d="M -139.32163,151.4196 C -140.04639,152.10042 -140.77115,153.47305 -140.93588,154.47232 L -152.50987,223.23543 C -152.67459,224.23471 -152.36709,225.7391 -151.81803,226.57366 L -145.14159,236.69815 C -144.59253,237.53271 -143.52734,237.69743 -142.78063,237.04954 L -130.7345,226.77131 C -129.98779,226.13442 -129.2301,224.78376 -129.06537,223.78448 L -117.18388,153.93425 C -117.00818,152.93498 -117.35958,151.45254 -117.94157,150.63995 L -125.30985,140.52643 C -125.89183,139.72482 -126.968,139.62599 -127.68179,140.30681 L -139.32163,151.4196"
         style="fill:#d90021;fill-rule:nonzero;stroke:none"
         id="path3149" />
      <path
         d="M -202.23188,146.77463 C -203.1982,146.77463 -204.46105,146.12675 -205.05401,145.31416 L -212.00494,135.74969 C -212.58693,134.9371 -212.47717,133.74017 -211.74143,133.07033 L -199.53058,122.01244 C -198.79484,121.3426 -197.41117,120.80453 -196.44485,120.80453 L -140.77115,120.80453 C -139.81581,120.80453 -138.55296,121.47437 -137.99293,122.29795 L -131.37137,131.91732 C -130.81133,132.7409 -130.94313,133.94881 -131.67887,134.61865 L -143.47246,145.25925 C -144.2082,145.91811 -145.59178,146.46716 -146.5581,146.46716 L -202.23188,146.77463"
         style="fill:#d90021;fill-rule:nonzero;stroke:none"
         id="path3153" />
      <path
         d="M 22.417736,155.71318 C 22.318866,156.72343 21.813796,158.23881 21.286686,159.09533 L -26.678384,236.22597 C -27.205494,237.08249 -28.435324,237.7743 -29.390674,237.7743 L -43.237734,237.7743 C -44.204134,237.7743 -44.862954,236.9617 -44.698234,235.95145 L -41.865124,218.07436 C -41.711374,217.07508 -41.151334,215.5597 -40.624314,214.70318 L 7.6592357,136.2658 C 8.1863457,135.40928 9.4051957,134.71748 10.371516,134.71748 L 22.659296,134.71748 C 23.625616,134.71748 24.339406,135.54105 24.240526,136.56229 L 22.417736,155.71318"
         style="fill:#d90021;fill-rule:nonzero;stroke:none"
         id="path3157" />
      <path
         d="M 34.430936,108.72542 C 34.551756,107.71516 35.078776,106.1888 35.605886,105.34326 L 83.658856,28.959333 C 84.185876,28.102813 85.415796,27.411013 86.382116,27.411013 L 100.2182,27.411013 C 101.18452,27.411013 101.84334,28.234583 101.68968,29.233863 L 98.856566,47.110953 C 98.702816,48.121203 98.131806,49.636583 97.604696,50.482123 L 50.056886,126.64643 C 49.529866,127.50295 48.310916,128.19476 47.344596,128.19476 L 34.024646,128.19476 C 33.047356,128.19476 32.355516,127.37118 32.465366,126.34995 L 34.430936,108.72542"
         style="fill:#d90021;fill-rule:nonzero;stroke:none"
         id="path3161" />
      <path
         d="M 28.907496,157.99723 C 28.589016,157.0309 28.435266,155.41669 28.545116,154.40644 L 30.609556,136.22188 C 30.719316,135.21162 31.608806,134.38805 32.575126,134.38805 L 46.103796,134.38805 C 47.070116,134.38805 48.091316,135.18966 48.376866,136.15599 L 72.436186,217.42648 C 72.721736,218.39281 72.831586,220.00701 72.677836,221.01727 L 70.448666,235.62201 C 70.294916,236.63226 69.372496,237.45584 68.406176,237.45584 L 56.425906,237.45584 C 55.470566,237.45584 54.416346,236.66521 54.108936,235.69888 L 28.907496,157.99723"
         style="fill:#d90021;fill-rule:nonzero;stroke:none"
         id="path3165" />
      <path
         d="M 28.215656,104.26712 C 28.534136,105.23345 28.698866,106.83668 28.589016,107.84694 L 26.524576,126.0315 C 26.403846,127.04175 25.525326,127.86533 24.559006,127.86533 L 11.645346,127.86533 C 10.679026,127.86533 9.6467557,127.07469 9.3503157,126.10836 L -14.972604,47.110953 C -15.269134,46.144623 -15.389954,44.530413 -15.236204,43.531143 L -13.007034,28.915413 C -12.853284,27.905153 -11.930864,27.081583 -10.964544,27.081583 L 1.0157257,27.081583 C 1.9710757,27.081583 3.0251957,27.872213 3.3436757,28.838543 L 28.215656,104.26712"
         style="fill:#d90021;fill-rule:nonzero;stroke:none"
         id="path3169" />
      <path
         d="M 469.2352,27.861233 C 468.62019,27.081583 467.32451,26.433703 466.3581,26.433703 L 414.0995,26.433703 C 413.13318,26.433703 411.70561,26.916863 410.91499,27.509843 L 397.04598,37.963763 C 396.25536,38.556743 396.03575,39.742693 396.5518,40.599213 L 402.31688,50.097783 C 402.83302,50.954303 404.04089,51.657093 405.00722,51.657093 L 460.98841,51.657093 C 461.95473,51.657093 463.34938,51.119023 464.09609,50.471143 L 476.26304,39.797593 C 477.00975,39.138733 477.11951,37.963763 476.5046,37.184113 L 469.2352,27.861233"
         style="fill:#d90021;fill-rule:nonzero;stroke:none"
         id="path3173" />
      <path
         d="M 438.4334,214.39572 C 437.81848,213.62704 436.51173,212.99015 435.54541,212.99015 L 380.80503,212.99015 C 379.83871,212.99015 378.41122,213.48429 377.6206,214.06629 L 363.43312,224.84964 C 362.65347,225.44261 362.48875,226.58464 363.08171,227.39723 L 369.824,236.74208 C 370.40608,237.55467 371.67981,238.21354 372.64614,238.21354 L 429.86822,238.21354 C 430.83454,238.21354 432.24017,237.69743 432.99786,237.06053 L 445.74679,226.3211 C 446.49351,225.69518 446.60327,224.53119 445.97738,223.76252 L 438.4334,214.39572"
         style="fill:#d90021;fill-rule:nonzero;stroke:none"
         id="path3177" />
      <path
         d="M 375.34753,56.631493 C 375.52323,55.621233 376.28092,54.281553 377.03861,53.644653 L 388.86514,43.575063 C 389.61185,42.938163 390.66598,43.113863 391.20406,43.959403 L 398.25386,55.214943 C 398.78097,56.071453 399.07749,57.586833 398.90179,58.586113 L 388.68943,116.58782 C 388.51373,117.58709 387.77799,118.95972 387.05323,119.61858 L 375.44631,130.23722 C 374.71058,130.90707 373.62352,130.80824 373.00852,130.02859 L 365.32185,120.16763 C 364.70694,119.377 364.35553,117.91652 364.53124,116.91725 L 375.34753,56.631493"
         style="fill:#d90021;fill-rule:nonzero;stroke:none"
         id="path3181" />
      <path
         d="M 468.91672,56.620513 C 469.09242,55.621233 469.86109,54.281553 470.6078,53.644653 L 482.43432,43.575063 C 483.19201,42.938163 484.24623,43.113863 484.77334,43.959403 L 491.82313,55.214943 C 492.35024,56.071453 492.64668,57.586833 492.47098,58.586113 L 482.2696,115.93994 C 482.09389,116.93921 481.34727,118.30086 480.6225,118.9707 L 469.0155,129.58934 C 468.29083,130.25919 467.19271,130.16036 466.57779,129.36972 L 458.89104,119.50877 C 458.27612,118.72912 457.92472,117.26865 458.1114,116.26937 L 468.91672,56.620513"
         style="fill:#d90021;fill-rule:nonzero;stroke:none"
         id="path3185" />
      <path
         d="M 359.24935,146.31343 C 359.41408,145.31416 360.17177,143.97447 360.92946,143.33757 L 372.75598,133.26798 C 373.5027,132.63109 374.55683,132.7958 375.08393,133.65232 L 382.14471,144.91884 C 382.67181,145.76438 382.96834,147.27976 382.80361,148.27903 L 372.87681,207.5765 C 372.71208,208.58676 371.93244,209.8935 371.15271,210.49745 L 360.05095,219.07363 C 359.27131,219.67758 358.17319,219.47992 357.61315,218.65635 L 350.03625,207.33493 C 349.48719,206.48938 349.1688,204.99596 349.33344,203.9967 L 359.24935,146.31343"
         style="fill:#d90021;fill-rule:nonzero;stroke:none"
         id="path3189" />
      <path
         d="M 452.51104,145.99498 C 452.68674,144.99571 453.43346,143.64504 454.19115,143.00814 L 466.01776,132.93855 C 466.76447,132.30165 467.8186,132.47735 468.35668,133.32289 L 475.40648,144.58941 C 475.93359,145.43495 476.23011,146.95033 476.06538,147.9496 L 466.44599,205.95132 C 466.28127,206.96157 465.54553,208.32322 464.82076,208.98207 L 453.21385,219.60071 C 452.48909,220.28154 451.39106,220.17172 450.77605,219.39207 L 443.08939,209.52015 C 442.48545,208.74049 442.11209,207.28002 442.2878,206.28074 L 452.51104,145.99498"
         style="fill:#d90021;fill-rule:nonzero;stroke:none"
         id="path3193" />
      <path
         d="M 215.48592,143.94153 C 214.75019,144.61137 214.02542,145.97302 213.84972,146.97229 L 201.03493,223.56486 C 200.8702,224.56413 201.22152,226.03559 201.81457,226.8372 L 208.9412,236.42362 C 209.53416,237.22524 210.66521,237.38995 211.43387,236.78601 L 223.0738,227.68275 C 223.85345,227.07879 224.62211,225.76106 224.78684,224.7618 L 237.61261,146.75267 C 237.77734,145.7534 237.42593,144.28194 236.82199,143.48033 L 229.49771,133.6633 C 228.89368,132.87267 227.80663,132.76286 227.08186,133.42172 L 215.48592,143.94153"
         style="fill:#d90021;fill-rule:nonzero;stroke:none"
         id="path3197" />
      <path
         d="M 235.65801,33.384683 C 235.03212,32.616013 234.37322,32.802693 234.19751,33.801963 L 219.86734,114.96263 C 219.69164,115.9619 220.03207,117.43336 220.62503,118.23497 L 227.76263,127.8214 C 228.35569,128.62302 229.47567,128.78773 230.2554,128.17279 L 241.89524,119.08051 C 242.66391,118.46558 243.44355,117.14785 243.60828,116.14858 L 253.62298,57.718613 C 253.79868,56.719333 253.42532,55.258863 252.79934,54.490193 L 235.65801,33.384683"
         style="fill:#d90021;fill-rule:nonzero;stroke:none"
         id="path3201" />
      <path
         d="M 240.76419,26.763133 C 239.79787,26.763133 239.51232,27.400033 240.1383,28.168703 L 258.13619,50.460163 C 258.75111,51.239813 260.05786,51.876713 261.02418,51.876713 L 314.40285,51.876713 C 315.36917,51.876713 316.77479,51.349623 317.53248,50.723703 L 331.51125,38.995983 C 332.26894,38.370063 332.36781,37.217053 331.74192,36.448383 L 325.05442,28.333413 C 324.41755,27.564743 323.1108,26.927843 322.14448,26.927843 L 240.76419,26.763133"
         style="fill:#d90021;fill-rule:nonzero;stroke:none"
         id="path3205" />
      <path
         d="M 322.94607,56.620513 C 323.13275,55.621233 323.90142,54.281553 324.64813,53.644653 L 336.47474,43.575063 C 337.23243,42.938163 338.27558,43.113863 338.80269,43.959403 L 345.86346,55.214943 C 346.39057,56.071453 346.68701,57.586833 346.51139,58.586113 L 336.92493,113.32646 C 336.74923,114.32573 336.01349,115.69836 335.2997,116.37918 L 323.35236,127.61276 C 322.62768,128.29359 321.54054,128.20574 320.92562,127.4151 L 313.23887,117.55415 C 312.62396,116.76352 312.27255,115.30304 312.45923,114.31475 L 322.94607,56.620513"
         style="fill:#d90021;fill-rule:nonzero;stroke:none"
         id="path3209" />
      <path
         d="M 315.99515,135.29947 C 316.70885,134.61865 316.79674,133.42172 316.1928,132.63109 L 308.80258,123.09957 C 308.19864,122.31991 306.90286,121.67203 305.93654,121.67203 L 250.58124,121.67203 C 249.61492,121.67203 248.19832,122.17716 247.42966,122.79209 L 237.20632,130.98393 C 236.43766,131.59887 236.27293,132.78482 236.84394,133.6084 L 244.38792,144.63333 C 244.95893,145.45691 246.2108,146.12675 247.17712,146.12675 L 302.83984,146.12675 C 303.80616,146.12675 305.17885,145.56672 305.90353,144.89688 L 315.99515,135.29947"
         style="fill:#d90021;fill-rule:nonzero;stroke:none"
         id="path3213" />
      <path
         d="M 260.60692,152.57261 C 259.96996,151.80394 258.66321,151.17802 257.69689,151.17802 L 243.5534,151.17802 C 242.58708,151.17802 241.67563,152.00159 241.52188,153.00087 L 240.20416,162.07118 C 240.05041,163.07046 240.43474,164.53093 241.06072,165.31058 L 297.98628,236.8409 C 298.6012,237.62056 299.90795,238.25746 300.86329,238.25746 L 313.15106,238.25746 C 314.12836,238.25746 315.08371,237.44486 315.29234,236.45657 L 317.94974,223.76252 C 318.15837,222.76325 317.80697,221.32473 317.1701,220.55607 L 260.60692,152.57261"
         style="fill:#d90021;fill-rule:nonzero;stroke:none"
         id="path3217" />
      <path
         d="M 547.41999,40.324683 C 547.58472,39.325413 547.22234,37.853953 546.6184,37.074303 L 539.33793,27.751423 C 538.73399,26.971773 537.61392,26.850983 536.86721,27.498863 L 526.05091,36.887623 C 525.3042,37.535503 524.55748,38.886173 524.39275,39.885443 L 511.17168,117.45532 C 510.99597,118.45459 511.35836,119.92605 511.95132,120.71668 L 518.94624,129.90779 C 519.56115,130.69843 520.6922,130.87412 521.49379,130.29213 L 532.13439,122.50659 C 532.925,121.92459 533.71571,120.62883 533.89141,119.62956 L 547.41999,40.324683"
         style="fill:#d90021;fill-rule:nonzero;stroke:none"
         id="path3221" />
      <path
         d="M 507.22947,143.62308 C 506.49374,144.28194 505.758,145.64359 505.59327,146.64286 L 492.47098,223.56486 C 492.30625,224.56413 492.64668,226.03559 493.25062,226.8372 L 500.37733,236.42362 C 500.9703,237.22524 502.09037,237.38995 502.87001,236.78601 L 514.50985,227.68275 C 515.27852,227.07879 516.05825,225.76106 516.22289,224.7618 L 529.35625,146.43422 C 529.52097,145.42397 529.16957,143.95251 528.5766,143.1509 L 521.24126,133.34485 C 520.63732,132.54324 519.56115,132.43343 518.82541,133.09229 L 507.22947,143.62308"
         style="fill:#d90021;fill-rule:nonzero;stroke:none"
         id="path3225" />
      <path
         d="M 641.19779,40.324683 C 641.36249,39.325413 641.01109,37.853953 640.39619,37.074303 L 633.12679,27.751423 C 632.51189,26.971773 631.39179,26.850983 630.64509,27.498863 L 619.82879,36.887623 C 619.08209,37.535503 618.33539,38.886173 618.15969,39.885443 L 604.94949,117.78475 C 604.77379,118.78402 605.12519,120.25548 605.72909,121.04611 L 612.72409,130.22624 C 613.33899,131.01688 614.48099,131.19257 615.27169,130.62156 L 625.91229,122.83602 C 626.71389,122.25402 627.49349,120.95827 627.66919,119.95899 L 641.19779,40.324683"
         style="fill:#d90021;fill-rule:nonzero;stroke:none"
         id="path3229" />
      <path
         d="M 601.00729,143.94153 C 600.27169,144.61137 599.53589,145.97302 599.37119,146.97229 L 586.24889,223.56486 C 586.08419,224.56413 586.43559,226.03559 587.02849,226.8372 L 594.15519,236.42362 C 594.74809,237.22524 595.86819,237.38995 596.64779,236.78601 L 608.28779,227.68275 C 609.06739,227.07879 609.83609,225.76106 610.00079,224.7618 L 623.12309,146.75267 C 623.29879,145.7534 622.93639,144.28194 622.34349,143.48033 L 615.01909,133.6633 C 614.41509,132.87267 613.33899,132.76286 612.60329,133.42172 L 601.00729,143.94153"
         style="fill:#d90021;fill-rule:nonzero;stroke:none"
         id="path3233" />
      <path
         d="M 568.74509,39.457183 C 568.26199,38.567723 567.07599,37.853953 566.10959,37.853953 L 555.67767,37.853953 C 554.71135,37.853953 553.77795,38.666553 553.60225,39.665823 L 551.15356,53.315223 C 550.97786,54.314493 551.20844,55.862823 551.66961,56.752283 L 584.67849,120.04684 C 585.15079,120.9363 586.31469,121.67203 587.29199,121.67203 L 595.85719,121.67203 C 596.82349,121.67203 597.74599,120.84846 597.91069,119.84918 L 601.02929,100.9838 C 601.19399,99.984533 600.94139,98.447193 600.45829,97.557723 L 568.74509,39.457183"
         style="fill:#d90021;fill-rule:nonzero;stroke:none"
         id="path3237" />
    </g>
  </g>
</svg>
