<svg xmlns="http://www.w3.org/2000/svg" width="120.77525" height="24.5655">
  <path fill="#4e9d2d" d="M26.14387.59625h-6.78l7.97125 23.37625h5.615L26.14387.59625zm51.635005.855125c-1.58375-.97625-3.39375-1.45125-5.65125-1.45125-6.4125 0-9.7575 3.5225-9.7575 12.16875 0 8.5075 3.2525 12.39625 10.0325 12.39625 2.40875 0 4.2925-.63375 5.80875-1.65875l-1.5225-5.23625c-1.1575 1.0175-2.03 1.68-3.8275 1.68-2.6575 0-3.4825-1.4175-3.4825-7.27375 0-5.90125.91625-6.9075 3.29875-6.9075 1.53375 0 2.535.62375 3.5275 1.69125l1.57375-5.40875zM99.70225 12.35125C99.70225 3.5225 95.991 0 89.53225 0c-6.46 0-10.17 3.385-10.17 12.16875 0 8.7825 3.71 12.39625 10.17 12.39625 6.45875 0 10.17-3.43125 10.17-12.21375m-6.9175-.1825c0 5.9925-.6875 7.63875-3.2075 7.63875-2.565 0-3.2525-1.50875-3.2525-7.45625 0-6.22125.64125-7.5475 3.2075-7.5475 2.52 0 3.2525 1.18875 3.2525 7.365m9.483 11.801875h6.46V6.541875c1.09875-.87 1.96875-1.3725 3.39-1.3725 1.3275 0 2.1525.5025 2.1525 2.745v16.05625h6.505v-17.52c0-4.7575-2.1075-6.45-6.0925-6.45-2.9325 0-4.85625 1.18875-6.5975 2.835l-.54875-2.24125h-5.26875v23.37625zm-89.1365-.000125h4.9175V7.548c0-5.49-2.565-7.5475-8.42875-7.5475-2.5175 0-4.60875.51375-6.49625 1.38125l1.44 4.9525c1.3625-.64375 2.8425-1.11875 4.415-1.11875 2.19875 0 2.61125 1.00625 2.61125 3.33875V9.423h-1.42C3.20625 9.423 0 11.61925 0 17.063c0 4.62 2.015 7.5025 6.9175 7.5025 1.61 0 2.88125-.45125 3.90125-1.12125L9.805 19.9605c-.3325.1025-.69375.1675-1.10125.1675-1.695 0-2.29125-.82375-2.29125-3.15625 0-2.51625.6875-3.56875 4.85625-3.56875H11.59v5.27l1.54125 5.2975zm41.056875 0h4.9175V7.548c0-5.49-2.565-7.5475-8.42875-7.5475-2.5175 0-4.60875.51375-6.49625 1.38125l1.44 4.9525c1.3625-.64375 2.8425-1.11875 4.415-1.11875 2.19875 0 2.61125 1.00625 2.61125 3.33875V9.423h-1.42c-6.96375 0-10.17 2.19625-10.17 7.64 0 4.62 2.015 7.5025 6.9175 7.5025 1.61 0 2.88125-.45125 3.90125-1.12125l-1.01375-3.48375c-.3325.1025-.69375.1675-1.10125.1675-1.695 0-2.29125-.82375-2.29125-3.15625 0-2.51625.6875-3.56875 4.85625-3.56875h.32125v5.27l1.54125 5.2975z"/>
  <path fill="#005487" d="M40.75662.59625h-6.78l-2.81625 9.66125 2.88 10.0325L40.75662.59625z"/>
</svg>
