<svg id="Ebene_1" data-name="Ebene 1" xmlns="http://www.w3.org/2000/svg" viewBox="0 0 169.75 71.2"><title>Zeichenfläche 1 Kopie1</title>
<polyline points="103.34 56.43 103.34 66.4 164.95 66.4 164.95 4.8 103.34 4.8 103.34 14.77" style="fill:none"/>
<path d="M103.35,56.43h-4.8V71.2h71.2V0H98.55V14.77h4.8V4.8H165V66.4h-61.6v-10" style="fill:#92ba1f"/>
<path d="M122.77,36.26q1-1.2,1.77-2.16a17.19,17.19,0,0,0,1.15-1.74,8.45,8.45,0,0,0,.64-1.41,4.22,4.22,0,0,0,.2-1.24,2.68,2.68,0,0,0-.84-2,3.5,3.5,0,0,0-2.55-.83,4.57,4.57,0,0,0-2.39.54,4.32,4.32,0,0,0-1.41,1.41,3.32,3.32,0,0,1-1,1.08,2,2,0,0,1-1.17.28,2.31,2.31,0,0,1-1.55-.56,2.18,2.18,0,0,1-.63-1.7,3.64,3.64,0,0,1,.56-1.84,6.15,6.15,0,0,1,1.64-1.81,9.53,9.53,0,0,1,2.6-1.38,10.22,10.22,0,0,1,3.44-.54,10.1,10.1,0,0,1,3.24.49A7.35,7.35,0,0,1,129,24.29a6.67,6.67,0,0,1,1.67,2.28,7.16,7.16,0,0,1,.61,3,7.23,7.23,0,0,1-.3,2.09,10.82,10.82,0,0,1-.87,2,17.61,17.61,0,0,1-1.41,2.11c-.57.73-1.21,1.52-1.94,2.37l-5.16,6.18h8.06a2.36,2.36,0,0,1,1.69.6,2.27,2.27,0,0,1,0,3.16,2.36,2.36,0,0,1-1.69.6H117.2a3.63,3.63,0,0,1-.76-.09,2.49,2.49,0,0,1-.79-.34,1.88,1.88,0,0,1-.62-.66,2.07,2.07,0,0,1-.24-1.05,2.72,2.72,0,0,1,.22-1.06,3.87,3.87,0,0,1,.57-.94Z" style="fill:#006d92"/>
<path d="M145.37,39.69v-9l-6,9Zm5.84,0a2.47,2.47,0,0,1,1.64.56,2,2,0,0,1,.66,1.62,2,2,0,0,1-.66,1.58,2.43,2.43,0,0,1-1.64.57h-1.28v2.44a2.21,2.21,0,0,1-.62,1.66,2.27,2.27,0,0,1-1.64.6,2.35,2.35,0,0,1-1.64-.6,2.13,2.13,0,0,1-.66-1.66V44h-9.15a2.4,2.4,0,0,1-1.63-.57,2,2,0,0,1-.66-1.58,3.47,3.47,0,0,1,.11-.75,2.5,2.5,0,0,1,.42-.87l10.95-16.07a3.64,3.64,0,0,1,1-1.11,2.11,2.11,0,0,1,1.18-.32,2.34,2.34,0,0,1,1.66.62,2.2,2.2,0,0,1,.68,1.71V39.69Z" style="fill:#006d92"/>
<path d="M103.34,46.33V32.5a2.39,2.39,0,0,0-.67-1.74,2.6,2.6,0,0,0-3.46,0,2.39,2.39,0,0,0-.67,1.74V46.33a2.4,2.4,0,1,0,4.8,0M94,26.17a2.36,2.36,0,0,0,0-3.12,2.22,2.22,0,0,0-1.62-.57H79a2.49,2.49,0,0,0-1.75.63,2.2,2.2,0,0,0-.68,1.69V46.33a2.46,2.46,0,0,0,.61,1.73,2.74,2.74,0,0,0,3.57,0,2.46,2.46,0,0,0,.61-1.73v-8.1h7.08a2.26,2.26,0,0,0,1.61-.57,2.11,2.11,0,0,0,.59-1.56,2,2,0,0,0-.59-1.54A2.25,2.25,0,0,0,88.47,34H81.39V26.74h11A2.22,2.22,0,0,0,94,26.17M70.27,42.83A12.2,12.2,0,0,0,71,38.49V24.88a2.46,2.46,0,0,0-4.15-1.73,2.37,2.37,0,0,0-.64,1.73V37.77q0,6.66-6,6.66t-6-6.51v-13a2.45,2.45,0,0,0-4.13-1.73,2.34,2.34,0,0,0-.66,1.73V38.64a11.65,11.65,0,0,0,.74,4.28,9.08,9.08,0,0,0,2.13,3.29,9.51,9.51,0,0,0,3.4,2.13,12.66,12.66,0,0,0,4.53.76,12.49,12.49,0,0,0,4.5-.76,9.35,9.35,0,0,0,5.56-5.51M34.42,29.06m7,17.84a3.32,3.32,0,0,0,.93,1.39,2.21,2.21,0,0,0,1.42.43,2.67,2.67,0,0,0,1.79-.62,2.15,2.15,0,0,0,.72-1.7A3.67,3.67,0,0,0,45.94,45L37.27,24.57A4,4,0,0,0,36.19,23a2.56,2.56,0,0,0-1.69-.55,2.48,2.48,0,0,0-1.68.55,4.08,4.08,0,0,0-1.06,1.54L23.09,45a6.44,6.44,0,0,0-.33.89,3.21,3.21,0,0,0-.09.78,1.91,1.91,0,0,0,.64,1.52,2.9,2.9,0,0,0,3.05.25,2.37,2.37,0,0,0,.87-1.16l7.19-18.18Zm-24.35-.31a7.42,7.42,0,0,0,2.4-5.85,7.14,7.14,0,0,0-1-3.77,6.68,6.68,0,0,0-3.27-2.59,5.28,5.28,0,0,0,2.21-2.09,6.26,6.26,0,0,0,.83-3.23,6.65,6.65,0,0,0-.51-2.64,5.68,5.68,0,0,0-1.54-2.08A7.37,7.37,0,0,0,13.64,23a12.68,12.68,0,0,0-3.75-.49H2.4a2.35,2.35,0,0,0-1.77.65A2.34,2.34,0,0,0,0,24.84V46.33a2.46,2.46,0,0,0,.59,1.82,2.5,2.5,0,0,0,1.81.57h8.06a9.64,9.64,0,0,0,6.65-2.13M13.39,29.82a3.48,3.48,0,0,1-.82,2.3,2.8,2.8,0,0,1-2.26,1H4.79V26.74h5.1a3.69,3.69,0,0,1,2.6.82,2.89,2.89,0,0,1,.9,2.26m1.21,10.8a3.73,3.73,0,0,1-1.08,2.85,4.19,4.19,0,0,1-3,1H4.79V37.05h5.59c2.82,0,4.22,1.19,4.22,3.57" style="fill:#006d92"/>
<path d="M103.34,26V24.88a2.35,2.35,0,0,0-.67-1.73,2.57,2.57,0,0,0-3.46,0,2.35,2.35,0,0,0-.67,1.73V26a2.4,2.4,0,1,0,4.8,0" style="fill:#006d92"/>
</svg>