<svg height="58.999996" viewBox="0 0 536.95769 58.999996" width="536.9577" xmlns="http://www.w3.org/2000/svg">
  <g transform="matrix(1.3333333 0 0 -1.3333333 0 58.999971)">
    <path d="m400.14846 18.488489c1.59048-1.697 2.46327-3.92852 2.56981-6.31143-.0187-2.96788-1.02418-5.67224-2.71744-7.64584-.84664-.99429-1.86334-1.80541-3.01648-2.37918-1.15315-.56441-2.44271-.90269-3.81452-.93633l-48.90841-.16074.058 2.89313 48.74022.16074c2.0521.006 3.6594.83541 4.82561 2.0876 1.1737 1.26902 1.90072 2.99592 2.05584 4.75833.15513 1.75307-.25792 3.54353-1.32135 4.9527-1.06529 1.40359-2.81463 2.47823-5.38068 2.75857-13.46201 1.62038-26.28298 3.15478-40.81215 5.37134-2.36235.59247-4.18643 1.8297-5.45358 3.50428-1.26341 1.67645-1.95678 3.77526-2.05772 6.07034.0636 2.79033.96439 5.40498 2.7324 7.3356.88775.96437 1.98295 1.75868 3.29495 2.30441 1.30827.54386 2.82584.85224 4.54154.85785l42.78015.14012-.0729-2.87069-43.4081-.12715c-1.85026-.0149-3.4482-.77374-4.66862-1.94743-1.22043-1.18118-2.05772-2.77538-2.3661-4.44809-.29902-1.66524-.0748-3.39027.80739-4.85177.88028-1.45592 2.4315-2.67821 4.84244-3.2931 14.09184-2.03341 27.14082-3.66312 39.94683-5.20313 2.91742-.19811 5.21248-1.33069 6.80295-3.02021"/>
    <path d="m333.83364 17.753249.50648 26.28858 3.02582.009-.57563-26.22877c-.0392-2.67259-1.25033-5.08913-3.16974-7.18983-1.91941-2.09322-4.5677-3.89862-7.5524-5.38257-5.9638-2.96413-13.35174-4.66114001-19.15107-4.73964001-.0935 0-.1869-.001-.28035-.001-5.65356-.0187-12.57426 1.70821001-18.09512 4.93775001-2.80342 1.64092-5.27042 3.68181-7.02162 6.0965-1.75121 2.41466-2.78661 5.21621-2.73054 8.35418l.43921 23.95613 3.06132.0168-.53825-23.95613c-.0336-2.04276.53078-3.90609 1.52693-5.59749 1.00175-1.69138 2.43523-3.20337 4.12476-4.51537 6.0666-4.68918 13.28633-6.20116 19.40152-6.1806 1.41852.006 2.77912.0916 4.05187.24109 3.90984.45603 9.64002 1.94184 14.41516 4.3397 2.39225 1.19987 4.51351 2.61279 6.05165 4.22382 1.53254 1.60915 2.45766 3.38839 2.51 5.32836"/>
    <path d="m269.49652 32.838989c.98306-2.00164 1.52692-4.13223 1.51384-6.23292-.001-2.20537-.59245-4.40511-1.63532-6.46656-1.05035-2.06144-2.56046-3.99019-4.42753-5.6386-3.73042-3.29868-8.89992-5.52086-14.67869-5.54703l-22.11897-.11593-.1495-8.16356001-3.0333-.009.27846 11.09405001 25.07563.12523c4.27242.0299 8.14486 1.426 11.17816 3.58837 3.20525 2.29133 5.0798 5.0125 5.88531 7.79723.80552 2.78661.54947 5.66478-.57563 8.26448-1.12323 2.60904-3.11553 4.94149-5.77131 6.6198-2.63894 1.67271-5.94324 2.68941-9.69608 2.67633l-38.10591-.11771-.79057-40.08887001-3.0333-.0118.82982 43.02124001 41.11117.13452c5.5433.0187 10.44741-2.18293 13.9685-5.42182 1.76616-1.62223 3.19216-3.50614 4.17522-5.50778"/>
    <path d="m19.810909 3.011009 27.46975.10472-.0524-2.96040001-27.3165-.15513c-3.90423-.0133-7.0777.58311-9.68674 1.68392001-2.6258801 1.11015-4.6667601 2.72305-6.2086401 4.70227-3.08001999 3.95655-4.13971999 9.35407-4.00514999 15.04687.11033 6.51888 1.55682999 11.91079 4.86673999 15.68231 1.66336 1.8839 3.7734 3.34916 6.3917901 4.34157 2.61838 1.00175 5.73018 1.5288 9.40079 1.55682l27.20997.0879-.0524-2.92303-27.21558-.10472c-2.92863-.0168-5.54142-.3495-7.79724-1.12698-2.25581-.77001-4.1714801-1.97547-5.7264401-3.73415-1.86335-2.10817-3.19589-5.70963-3.8033-9.72972-.59807-4.00515-.47471-8.36353.51022-11.92761.73822-2.67634 1.87642-4.88542 3.85002-6.73568 3.2239301-3.02395 6.9132201-3.75284 12.1649601-3.80892"/>
    <path d="m82.290859 43.259489 17.38306.0133 26.550221-42.83621001-3.64444-.10841-24.597181 40.00102001-14.20211.006-21.51342-32.6486-4.93402-7.57109001-3.48931-.0187z"/>
    <path d="m167.24619 25.406759 10.00073 18.07457 24.88313.0448-.87092-42.93901001-2.96976-.0187.82047 40.09073001-20.13602-.028-11.80986-21.41811-10.87164 21.15085-20.35842-.0299-.77562-39.96365001-2.99778-.0187.86532 43.02872001 24.81398.0822z"/>
  </g>
</svg>
