<?xml version="1.0" encoding="UTF-8" standalone="no"?>
<!-- Created with Inkscape (http://www.inkscape.org/) -->

<svg
   xmlns:dc="http://purl.org/dc/elements/1.1/"
   xmlns:cc="http://creativecommons.org/ns#"
   xmlns:rdf="http://www.w3.org/1999/02/22-rdf-syntax-ns#"
   xmlns:svg="http://www.w3.org/2000/svg"
   xmlns="http://www.w3.org/2000/svg"
   xmlns:sodipodi="http://sodipodi.sourceforge.net/DTD/sodipodi-0.dtd"
   xmlns:inkscape="http://www.inkscape.org/namespaces/inkscape"
   width="198.7"
   height="54.970001"
   id="svg5449"
   version="1.1"
   inkscape:version="0.48.1 "
   sodipodi:docname="Neues Dokument 7">
  <defs
     id="defs5451" />
  <sodipodi:namedview
     id="base"
     pagecolor="#ffffff"
     bordercolor="#666666"
     borderopacity="1.0"
     inkscape:pageopacity="0.0"
     inkscape:pageshadow="2"
     inkscape:zoom="4.172"
     inkscape:cx="102.59484"
     inkscape:cy="15.714286"
     inkscape:document-units="px"
     inkscape:current-layer="layer1"
     showgrid="false"
     fit-margin-top="0"
     fit-margin-left="0"
     fit-margin-right="0"
     fit-margin-bottom="0"
     inkscape:window-width="1024"
     inkscape:window-height="678"
     inkscape:window-x="-4"
     inkscape:window-y="-4"
     inkscape:window-maximized="1" />
  <metadata
     id="metadata5454">
    <rdf:RDF>
      <cc:Work
         rdf:about="">
        <dc:format>image/svg+xml</dc:format>
        <dc:type
           rdf:resource="http://purl.org/dc/dcmitype/StillImage" />
        <dc:title></dc:title>
      </cc:Work>
    </rdf:RDF>
  </metadata>
  <g
     inkscape:label="Ebene 1"
     inkscape:groupmode="layer"
     id="layer1"
     transform="translate(-181.64835,-472.44616)">
    <g
       id="g1506"
       transform="matrix(1.25,0,0,-1.25,205.02875,473.44861)"
       style="fill:#000000">
      <path
         inkscape:connector-curvature="0"
         d="m 0,0 c 3.3,0 7.392,-1.067 10.414,-4.645 -0.103,-0.349 -0.535,-0.694 -1.003,-1.01 -2.247,2.801 -5.829,3.768 -8.32,3.768 -7.156,0 -12.698,-6.259 -12.698,-18.581 0,-13.38 7.179,-19.811 14.384,-19.811 3.323,0 6.433,1.711 9.495,5.55 0.358,-0.1 0.784,-0.51 1.219,-0.874 -3.467,-4.71 -8.459,-6.939 -12.699,-6.759 -7.991,0.339 -16.366,6.274 -18.289,16.454 -1.026,6.619 0.163,10.804 0.497,12.044 C -14.567,-5.011 -6.82,0 0,0 m 42.608,-0.604 0,-12.057 c -0.007,-1.116 -2.376,-1.079 -2.786,-1.079 -3.869,0 -5.282,2.878 -10.267,2.878 -2.368,0 -5.024,-0.573 -7.281,-1.997 l 0,12.179 -6.23,0 0,-40.882 6.106,0 0,25.43 c 0.015,0.832 1.965,1.414 2.313,1.476 0.384,0.062 1.025,0.122 1.273,0.122 3.335,0 7.949,-2.974 11.359,-2.974 1.649,0 3.622,0.652 5.543,1.503 l 0,-25.454 5.848,0 -0.009,40.855 -5.869,0 z m 46.186,-40.88 6.081,0 0,40.711 -6.081,0 0,-40.711 z m 19.787,41.225 c -4.777,0 -8.607,-2.651 -8.607,-8.044 0,-10.401 16.602,-17.625 16.602,-25.415 0,-4.162 -2.92,-6.916 -7.225,-6.916 -2.881,0 -6.641,2.508 -9.336,5.093 l -1.462,0 c 2.766,-4.889 7.467,-6.529 11.156,-6.529 0.255,0 0.845,-0.022 2.062,0.105 7.16,0.807 8.903,6.263 8.903,10.963 0,12.055 -16.498,16.897 -16.498,25.106 0,3.012 2.345,4.202 4.867,4.202 0.974,0 1.487,0.039 2.666,-0.627 0.422,-0.231 1.126,-0.909 1.381,-0.909 0.257,0 0.906,0.659 1.126,1.038 -1.878,1.64 -3.789,1.933 -5.635,1.933 m 8.828,-2.491 8.333,0 0,-38.78 6.092,0 0,38.857 7.615,0 c -0.045,1.241 -0.049,1.609 0.008,1.993 l -22.048,0 0,-2.07 z M 84.885,-36.475 c -3.062,-1.004 -2.588,-1.371 -5.033,-1.371 -5.307,0 -15.134,4.969 -18.953,9.986 4.926,1.152 20.739,4.559 20.739,14.419 0,4.079 -1.672,8.737 -7.078,11.535 0,0 -0.986,0.455 -1.878,0.719 -1.449,0.43 -2.963,0.608 -2.963,0.608 -3.542,0.537 -6.536,0.25 -6.536,0.25 -3.051,-0.123 -6.226,-1.073 -9.222,-1.64 l 0,-39.416 6.084,0 0,11.785 c 6.517,-4.964 17.055,-11.917 24.633,-11.917 0.248,0 -0.201,0 0.207,0.043 l 0,4.999 z m -25.299,9.657 0.019,4.405 0,1.411 0.012,2.954 0,15.141 c 1.525,0.229 2.608,0.524 4.568,0.524 7.378,0 11.455,-4.658 11.455,-11.8 0,-5.929 -4.154,-9.594 -11.283,-11.629 -1.166,-0.321 -3.462,-0.772 -3.71,-0.772"
         style="fill:#000000;fill-opacity:1;fill-rule:nonzero;stroke:none"
         id="path1508" />
    </g>
  </g>
</svg>
