<?xml version="1.0" encoding="utf-8"?>
<!-- Generator: Adobe Illustrator 23.0.1, SVG Export Plug-In . SVG Version: 6.00 Build 0)  -->
<svg version="1.1" id="Ebene_1" xmlns="http://www.w3.org/2000/svg" xmlns:xlink="http://www.w3.org/1999/xlink" x="0px" y="0px"
	 viewBox="0 0 513.52 74.2" style="enable-background:new 0 0 513.52 74.2;" xml:space="preserve">
<g>
	<g>
		<rect x="279.36" y="0.15" width="50.37" height="9.42"/>
		<path d="M253.05,34.61c0,0,11.85-2.59,10.65-16.91c-1.2-14.32-13.35-16.97-21.24-17.45l-23.28-0.14V9.6h21.87
			c0,0,12.52-0.56,11.57,10.85c-0.96,11.41-9.74,11.01-14.6,11.49h-18.67v9.58h24.1c0,0,15.4-0.48,15.16,11.17
			c-0.24,11.65-10.69,11.57-15.72,11.73H219.1v9.79h26.42h0.01h0.04c1.16-0.01,19.86-0.37,23.59-15.58
			C273.02,42.91,258.34,34.97,253.05,34.61z"/>
		<polygon points="169.63,31.14 140.98,0.11 131.81,0.11 131.89,74.07 142.02,74.07 142.02,16.38 169.63,46.07 197.24,16.46 
			197.24,74.07 207.45,74.07 207.45,0.11 198.35,0.11 		"/>
		<polygon points="84.57,0.11 52.5,73.99 63.27,73.99 82.9,28.75 93.83,28.75 113.86,74.15 124.71,74.15 92.23,0.11 		"/>
		<polygon points="10.44,0 0,0.09 0,74.01 45.4,74.01 45.4,64.56 10.44,64.56 		"/>
		<polygon points="462.76,0.19 397.95,0.19 397.95,9.82 425.2,9.82 425.2,74.02 435.62,74.02 435.62,9.64 462.76,9.64 		"/>
		<rect x="279.42" y="64.58" width="50.29" height="9.42"/>
		<rect x="279.44" y="31.98" width="49.17" height="9.42"/>
		<path d="M508.07,38.7c-3.74-4.43-19.25-8.24-23.23-8.91c-6.86-1.14-6.5-9.63-6.5-9.63c2.16-18.83,29.3-8.36,29.3-8.36l0.24-9.81
			c0,0-11.79-3.67-25.57-0.9c-13.78,2.77-14.62,16.79-14.62,16.79c-1.26,12.09,6.37,18.23,16.6,21.54
			c10.23,3.31,17.45,0.36,18.24,13.78c0.78,13.42-21.42,11.25-21.42,11.25h-2.95h-22.09v9.57h34.66
			c11.44-0.54,18.05-5.11,21.43-14.74c0.92-2.65,1.33-5.05,1.35-7.23v-0.27C513.47,46.17,510.86,42.01,508.07,38.7z"/>
		<path d="M375.2,38.76c0,0,13.3-2.89,15.52-9.33c2.23-6.44,3.19-17.93-3.61-24.01c-6.8-6.08-18.72-5.3-18.72-5.3h-24.43l0.06,73.78
			h10.53V41.05c0,0,8.42-0.84,13.06,3.49c0,0,2.23,2.05,2.83,3.07c0.6,1.02,17.45,26.35,17.45,26.35h12.94l-18.96-28.22
			C381.88,45.74,377.43,39.6,375.2,38.76z M363.16,32.21h-8.56V9.09l12.6,0.04c10.66-0.63,17.49,3.45,15.22,14.43
			C380.74,31.67,364.88,32.44,363.16,32.21z"/>
	</g>
</g>
</svg>
