<?xml version="1.0" encoding="utf-8"?>
<!-- Generator: Adobe Illustrator 18.1.1, SVG Export Plug-In . SVG Version: 6.00 Build 0)  -->
<!DOCTYPE svg PUBLIC "-//W3C//DTD SVG 1.1//EN" "http://www.w3.org/Graphics/SVG/1.1/DTD/svg11.dtd">
<svg version="1.1" id="Ebene_1" xmlns="http://www.w3.org/2000/svg" xmlns:xlink="http://www.w3.org/1999/xlink" x="0px" y="0px"
	 viewBox="0 0 841.9 595.3" enable-background="new 0 0 841.9 595.3" xml:space="preserve">
<g>
	<g>
		<path fill="#FFFFFF" stroke="#947326" d="M425.2,507.5c203.5,0,368.5-76.4,368.5-170.7c0-94.3-165-170.7-368.5-170.7
			c-203.5,0-368.5,76.4-368.5,170.7C56.7,431.1,221.7,507.5,425.2,507.5"/>
		<ellipse fill="none" stroke="#A98216" stroke-width="21.144" cx="425.2" cy="336.8" rx="368.5" ry="170.7"/>
		<path fill="#003464" d="M424.6,480.2c188.3,0,341-64.2,341-143.4c0-79.2-152.7-143.5-341-143.5c-188.3,0-341,64.2-341,143.5
			C83.6,416,236.3,480.2,424.6,480.2"/>
	</g>
	<g>
		<polygon fill="#FFFFFF" points="286.8,262.6 305.5,262.6 329.8,216.9 353.1,262.6 377.6,216.8 400.9,262.6 425.3,216.8 
			448.6,262.6 473,216.8 496.3,262.6 520.7,216.8 543.9,262.6 563.6,262.6 472.6,88.5 447.8,134.8 424.7,87.8 400.3,134.2 
			376.7,88.3 		"/>
		<polygon fill="#003464" points="353.1,170.6 377.5,124.4 400.8,170.6 377.5,216.8 		"/>
		<polygon fill="#003464" points="400.8,170.6 425.3,124.4 448.6,170.6 425.3,216.8 		"/>
		<polygon fill="#003464" points="448.6,170.6 473,124.4 496.3,170.6 473,216.8 		"/>
		<polygon fill="none" stroke="#003464" stroke-width="8.072" stroke-miterlimit="3.864" points="424.9,88.6 400.5,134.2 
			377.2,88.6 293.7,249.4 276.9,280.8 572.1,280.8 556.1,249.4 472.7,88.6 448.3,134.2 		"/>
	</g>
	<g>
		<path fill="#FFFFFF" d="M216.9,383.3c-4.2,1.8-13.2,3.5-20.3,3.5c-11.4,0-20.1-3.2-26.5-9.8c-8.5-8.2-13-22.8-12.7-39.8
			c0.4-35.9,20.8-50.8,42-50.8c7.5,0,12.9,1.5,16,2.9l-3.2,16.5c-2.9-1.5-6.6-2.2-11.3-2.2c-13.2,0-23.6,8.9-23.6,34.5
			c0,23.7,9.2,32.3,18.3,32.3c1.8,0,3.1-0.1,3.8-0.4v-23.9h-8.9v-15.7h26.5V383.3z"/>
		<path fill="#FFFFFF" d="M289.5,334.8c0,37.2-13.2,52.3-31.9,52.3c-22.4,0-31.2-23.7-31.2-50.8c0-26.9,10.7-50.2,32.6-50.2
			C282.8,286.1,289.5,312.3,289.5,334.8z M246.3,336.6c0,22.4,4.2,33.8,12,33.8c8.2,0,11.3-14.6,11.3-34.7
			c0-17.3-2.6-32.9-11.4-32.9C250.6,302.8,246.3,315.4,246.3,336.6z"/>
		<path fill="#FFFFFF" d="M301.7,287.3h19.2v82.4H346v16.2h-44.4V287.3z"/>
		<path fill="#FFFFFF" d="M357.3,288.7c4.8-1.2,11.9-1.9,19.5-1.9c12.4,0,21.1,2.9,27.4,8.8c8.5,7.6,12.9,20.6,12.9,39.8
			c0,19.9-5.1,34.1-13.8,41.7c-6.7,6.3-16.4,9.5-30,9.5c-6.1,0-12.1-0.6-16-1.2V288.7z M376.5,370.7c1,0.3,2.3,0.3,3.4,0.3
			c9.2,0,17.3-9.1,17.3-36.3c0-20.2-5.3-32.5-16.8-32.5c-1.3,0-2.6,0-3.8,0.4V370.7z"/>
		<path fill="#FFFFFF" d="M427,366.3c4,2.2,10.8,3.8,16.2,3.8c8.9,0,13.5-4.7,13.5-11.1c0-7.2-4.4-10.7-12.7-16.1
			c-13.5-8.2-18.6-18.6-18.6-27.5c0-15.8,10.5-29,31-29c6.6,0,12.7,1.8,15.5,3.5l-3.1,16.5c-2.8-1.8-7-3.4-12.4-3.4
			c-8.2,0-12.2,5-12.2,10.2c0,5.9,2.9,8.9,13.5,15.4c13.2,7.9,17.9,17.9,17.9,28.3c0,18-13.3,29.9-32.5,29.9c-7.9,0-15.5-2-18.9-4
			L427,366.3z"/>
		<path fill="#FFFFFF" d="M497.5,305h-17.4v-17.7h54.2V305h-17.6v80.9h-19.2V305z"/>
		<path fill="#FFFFFF" d="M585.9,342.6h-22.4v26.6h25.3v16.7h-44.5v-98.7h42.9V304h-23.7v22.7h22.4V342.6z"/>
		<path fill="#FFFFFF" d="M621.2,287.3v98.7H602v-98.7H621.2z"/>
		<path fill="#FFFFFF" d="M693.1,383.3c-4.2,1.8-13.2,3.5-20.3,3.5c-11.4,0-20.1-3.2-26.5-9.8c-8.5-8.2-13-22.8-12.7-39.8
			c0.4-35.9,20.8-50.8,42-50.8c7.5,0,12.9,1.5,16,2.9l-3.2,16.5c-2.9-1.5-6.6-2.2-11.3-2.2c-13.2,0-23.6,8.9-23.6,34.5
			c0,23.7,9.2,32.3,18.3,32.3c1.8,0,3.1-0.1,3.8-0.4v-23.9h-8.9v-15.7h26.5V383.3z"/>
	</g>
	<g>
		<polygon fill="none" stroke="#FFFFFF" stroke-width="0.8251" stroke-miterlimit="5.263" points="258.7,423.4 267.2,416.7 
			262.6,416.7 251.8,425.3 251.8,416.7 248.8,416.7 248.8,434.3 251.8,434.3 251.8,429 256.4,425.4 263.9,434.3 267.9,434.3 		"/>
		<path fill="none" stroke="#FFFFFF" stroke-width="0.8251" stroke-miterlimit="5.263" d="M276.6,427.4l3.8-7.8l3.8,7.8H276.6z
			 M282.3,416.7h-3.8l-8.6,17.6h3.4l1.8-3.8h10.6l1.8,3.8h3.4L282.3,416.7z"/>
		<g>
			<path fill="none" stroke="#FFFFFF" stroke-width="0.8251" stroke-miterlimit="5.263" d="M311.7,418.8c-2.2-1.7-5.1-2.6-8.7-2.6
				c-2.7,0-4.8,0.5-6.2,1.5c-1.5,1-2.2,2.3-2.2,4c0,1.4,0.5,2.5,1.4,3.2c0.9,0.7,2.4,1.2,4.3,1.4c0.5,0.1,1.8,0.1,4,0.3
				c1.4,0.1,2.4,0.2,3.1,0.4c1.2,0.4,1.8,1,1.8,2c0,0.8-0.5,1.5-1.5,2c-1,0.5-2.4,0.8-4.1,0.8c-3.2,0-5.9-0.8-8-2.5l-1.7,2.4
				c2.4,2.1,5.7,3.1,9.8,3.1c2.9,0,5.1-0.5,6.6-1.5c1.5-1,2.3-2.5,2.3-4.4c0-1.7-0.6-2.9-1.8-3.7c-1.1-0.7-2.9-1.3-5.5-1.5
				c-1.8-0.2-3.6-0.4-5.4-0.5c-1.3-0.2-2-0.8-2-1.6c0-1.4,1.8-2.1,5.3-2.1c2.4,0,4.7,0.6,6.7,1.8L311.7,418.8z"/>
			<polygon fill="none" stroke="#FFFFFF" stroke-width="0.8251" stroke-miterlimit="5.263" points="336.1,431.2 322.1,431.2 
				322.1,426.7 331.4,426.7 331.4,423.6 322.1,423.6 322.1,419.8 335.5,419.8 335.5,416.7 319,416.7 319,434.3 336.1,434.3 			"/>
			<path fill="none" stroke="#FFFFFF" stroke-width="0.8251" stroke-miterlimit="5.263" d="M358.9,418.8c-2.2-1.7-5.1-2.6-8.7-2.6
				c-2.7,0-4.8,0.5-6.2,1.5c-1.5,1-2.2,2.3-2.2,4c0,1.4,0.5,2.5,1.4,3.2c0.9,0.7,2.4,1.2,4.3,1.4c0.5,0.1,1.8,0.1,4,0.3
				c1.4,0.1,2.4,0.2,3.1,0.4c1.2,0.4,1.8,1,1.8,2c0,0.8-0.5,1.5-1.5,2c-1,0.5-2.4,0.8-4.1,0.8c-3.2,0-5.9-0.8-8-2.5l-1.7,2.4
				c2.4,2.1,5.7,3.1,9.8,3.1c2.9,0,5.1-0.5,6.6-1.5c1.5-1,2.3-2.5,2.3-4.4c0-1.7-0.6-2.9-1.8-3.7c-1.1-0.7-2.9-1.3-5.5-1.5
				c-1.8-0.2-3.6-0.4-5.4-0.5c-1.3-0.2-2-0.8-2-1.6c0-1.4,1.8-2.1,5.3-2.1c2.4,0,4.7,0.6,6.7,1.8L358.9,418.8z"/>
			<path fill="none" stroke="#FFFFFF" stroke-width="0.8251" stroke-miterlimit="5.263" d="M369.3,424.7v-5h9.1c2,0,3,0.8,3,2.5
				c0,1.6-0.9,2.4-2.8,2.4H369.3z M366.2,416.7v17.6h3.1v-6.5h9.2c1.9,0,3.4-0.5,4.5-1.4c1-1,1.6-2.3,1.6-4.1c0-1.7-0.5-3.1-1.5-4.1
				c-1-1-2.3-1.5-4-1.5H366.2z"/>
			<polygon fill="none" stroke="#FFFFFF" stroke-width="0.8251" stroke-miterlimit="5.263" points="406.6,431.2 392.6,431.2 
				392.6,426.7 401.9,426.7 401.9,423.6 392.6,423.6 392.6,419.8 406,419.8 406,416.7 389.5,416.7 389.5,434.3 406.6,434.3 			"/>
			<polygon fill="none" stroke="#FFFFFF" stroke-width="0.8251" stroke-miterlimit="5.263" points="429.7,431.2 416.4,431.2 
				429.1,419.8 429.1,416.7 412.2,416.7 412.2,419.8 424.7,419.8 412,431.2 412,434.3 429.7,434.3 			"/>
			
				<rect x="436.5" y="416.7" fill="none" stroke="#FFFFFF" stroke-width="0.8251" stroke-miterlimit="5.263" width="3.1" height="17.6"/>
			<path fill="none" stroke="#FFFFFF" stroke-width="0.8251" stroke-miterlimit="5.263" d="M450.4,427.4l3.8-7.8l3.8,7.8H450.4z
				 M456.1,416.7h-3.8l-8.6,17.6h3.4l1.8-3.8h10.6l1.8,3.8h3.4L456.1,416.7z"/>
			<polygon fill="none" stroke="#FFFFFF" stroke-width="0.8251" stroke-miterlimit="5.263" points="484.2,431.2 471.9,431.2 
				471.9,416.7 468.8,416.7 468.8,434.3 484.2,434.3 			"/>
			
				<rect x="488" y="416.7" fill="none" stroke="#FFFFFF" stroke-width="0.8251" stroke-miterlimit="5.263" width="3.1" height="17.6"/>
			<polygon fill="none" stroke="#FFFFFF" stroke-width="0.8251" stroke-miterlimit="5.263" points="513.7,416.7 495.5,416.7 
				495.5,419.8 503.1,419.8 503.1,434.3 506.2,434.3 506.2,419.8 513.7,419.8 			"/>
			<path fill="none" stroke="#FFFFFF" stroke-width="0.8251" stroke-miterlimit="5.263" d="M521.2,427.4l3.8-7.8l3.8,7.8H521.2z
				 M526.9,416.7h-3.8l-8.6,17.6h3.4l1.8-3.8h10.6l1.8,3.8h3.4L526.9,416.7z"/>
			<polygon fill="none" stroke="#FFFFFF" stroke-width="0.8251" stroke-miterlimit="5.263" points="554.5,416.7 536.3,416.7 
				536.3,419.8 543.9,419.8 543.9,434.3 547,434.3 547,419.8 554.5,419.8 			"/>
			<polygon fill="none" stroke="#FFFFFF" stroke-width="0.8251" stroke-miterlimit="5.263" points="576.6,431.2 562.6,431.2 
				562.6,426.7 571.9,426.7 571.9,423.6 562.6,423.6 562.6,419.8 576,419.8 576,416.7 559.5,416.7 559.5,434.3 576.6,434.3 			"/>
			<polygon fill="none" stroke="#FFFFFF" stroke-width="0.8251" stroke-miterlimit="5.263" points="601.6,416.7 598.5,416.7 
				598.5,431.4 587.8,416.7 583.2,416.7 583.2,434.3 586.3,434.3 586.3,419.6 597,434.3 601.6,434.3 			"/>
		</g>
		
			<rect x="274.5" y="409.5" fill="none" stroke="#FFFFFF" stroke-width="0.8953" stroke-miterlimit="5.707" width="4" height="3.7"/>
		
			<rect x="281.9" y="409.5" fill="none" stroke="#FFFFFF" stroke-width="0.8953" stroke-miterlimit="5.707" width="4" height="3.7"/>
		
			<rect x="519.1" y="409.5" fill="none" stroke="#FFFFFF" stroke-width="0.8953" stroke-miterlimit="5.707" width="4" height="3.7"/>
		
			<rect x="526.4" y="409.5" fill="none" stroke="#FFFFFF" stroke-width="0.8953" stroke-miterlimit="5.707" width="4" height="3.7"/>
		<g>
			<g>
				<path fill="#FFFFFF" d="M267.9,434.3h-4l-7.6-8.9l-4.5,3.6v5.3h-3.1v-17.6h3.1v8.6l10.8-8.6h4.6l-8.5,6.7L267.9,434.3z"/>
				<path fill="#FFFFFF" d="M290.9,434.3h-3.4l-1.8-3.8H275l-1.8,3.8h-3.4l8.6-17.6h3.8L290.9,434.3z M284.1,427.4l-3.8-7.8
					l-3.8,7.8H284.1z"/>
				<path fill="#FFFFFF" d="M309.8,421c-2.1-1.2-4.3-1.8-6.7-1.8c-3.5,0-5.3,0.7-5.3,2.1c0,0.8,0.7,1.4,2,1.6
					c1.8,0.2,3.6,0.4,5.4,0.5c2.6,0.3,4.4,0.8,5.5,1.5c1.2,0.8,1.8,2.1,1.8,3.8c0,1.9-0.8,3.3-2.3,4.4c-1.5,1-3.7,1.5-6.6,1.5
					c-4.1,0-7.3-1-9.8-3.1l1.7-2.4c2.2,1.7,4.9,2.5,8,2.5c1.8,0,3.2-0.3,4.1-0.8c1-0.5,1.5-1.2,1.5-2c0-0.9-0.6-1.6-1.8-2
					c-0.7-0.2-1.7-0.4-3.1-0.4c-2.2-0.1-3.5-0.2-4-0.3c-2-0.2-3.4-0.7-4.3-1.4c-0.9-0.7-1.4-1.8-1.4-3.2c0-1.7,0.7-3,2.2-4
					c1.5-1,3.6-1.5,6.2-1.5c3.6,0,6.5,0.9,8.7,2.6L309.8,421z"/>
				<path fill="#FFFFFF" d="M336.1,434.3H319v-17.6h16.5v3.1h-13.4v3.8h9.3v3.1h-9.3v4.5h14V434.3z"/>
				<path fill="#FFFFFF" d="M357,421c-2.1-1.2-4.3-1.8-6.7-1.8c-3.5,0-5.3,0.7-5.3,2.1c0,0.8,0.7,1.4,2,1.6c1.8,0.2,3.6,0.4,5.4,0.5
					c2.6,0.3,4.4,0.8,5.5,1.5c1.2,0.8,1.8,2.1,1.8,3.8c0,1.9-0.8,3.3-2.3,4.4c-1.5,1-3.7,1.5-6.6,1.5c-4.1,0-7.3-1-9.8-3.1l1.7-2.4
					c2.2,1.7,4.9,2.5,8,2.5c1.8,0,3.2-0.3,4.1-0.8c1-0.5,1.5-1.2,1.5-2c0-0.9-0.6-1.6-1.8-2c-0.7-0.2-1.7-0.4-3.1-0.4
					c-2.2-0.1-3.5-0.2-4-0.3c-2-0.2-3.4-0.7-4.3-1.4c-0.9-0.7-1.4-1.8-1.4-3.2c0-1.7,0.7-3,2.2-4c1.5-1,3.6-1.5,6.2-1.5
					c3.6,0,6.5,0.9,8.7,2.6L357,421z"/>
				<path fill="#FFFFFF" d="M379,416.7c1.7,0,3,0.5,4,1.5c1,1,1.5,2.4,1.5,4.1c0,1.8-0.5,3.1-1.6,4.1c-1,1-2.5,1.4-4.5,1.4h-9.2v6.5
					h-3.1v-17.6H379z M378.5,424.7c1.9,0,2.8-0.8,2.8-2.4c0-1.7-1-2.5-3-2.5h-9.1v5H378.5z"/>
				<path fill="#FFFFFF" d="M406.6,434.3h-17.1v-17.6H406v3.1h-13.4v3.8h9.3v3.1h-9.3v4.5h14V434.3z"/>
				<path fill="#FFFFFF" d="M429.7,434.3H412v-3.1l12.7-11.4h-12.5v-3.1h16.9v3.1l-12.7,11.4l13.2,0V434.3z"/>
				<path fill="#FFFFFF" d="M439.6,434.3h-3.1v-17.6h3.1V434.3z"/>
				<path fill="#FFFFFF" d="M464.7,434.3h-3.4l-1.8-3.8h-10.6l-1.8,3.8h-3.4l8.6-17.6h3.8L464.7,434.3z M458,427.4l-3.8-7.8
					l-3.8,7.8H458z"/>
				<path fill="#FFFFFF" d="M484.1,434.3h-15.3v-17.6h3.1v14.5h12.2V434.3z"/>
				<path fill="#FFFFFF" d="M491.1,434.3H488v-17.6h3.1V434.3z"/>
				<path fill="#FFFFFF" d="M513.7,419.8h-7.6v14.5H503v-14.5h-7.6v-3.1h18.2V419.8z"/>
				<path fill="#FFFFFF" d="M535.5,434.3h-3.4l-1.8-3.8h-10.6l-1.8,3.8h-3.4l8.6-17.6h3.8L535.5,434.3z M528.8,427.4l-3.8-7.8
					l-3.8,7.8H528.8z"/>
				<path fill="#FFFFFF" d="M554.5,419.8h-7.6v14.5h-3.1v-14.5h-7.6v-3.1h18.2V419.8z"/>
				<path fill="#FFFFFF" d="M576.6,434.3h-17.1v-17.6H576v3.1h-13.4v3.8h9.3v3.1h-9.3v4.5h14V434.3z"/>
				<path fill="#FFFFFF" d="M601.6,434.3H597l-10.8-14.7v14.7h-3.1v-17.6h4.6l10.8,14.7v-14.7h3.1V434.3z"/>
			</g>
			<g>
				<path fill="#FFFFFF" d="M278.5,413.2h-4v-3.7h4V413.2z"/>
				<path fill="#FFFFFF" d="M285.9,413.2h-4v-3.7h4V413.2z"/>
			</g>
			<g>
				<path fill="#FFFFFF" d="M523.1,413.2h-4v-3.7h4V413.2z"/>
				<path fill="#FFFFFF" d="M530.4,413.2h-4v-3.7h4V413.2z"/>
			</g>
		</g>
	</g>
</g>
</svg>
