<?xml version="1.0" encoding="UTF-8" standalone="no"?>
<!-- Created with Inkscape (http://www.inkscape.org/) -->

<svg
   xmlns:dc="http://purl.org/dc/elements/1.1/"
   xmlns:cc="http://creativecommons.org/ns#"
   xmlns:rdf="http://www.w3.org/1999/02/22-rdf-syntax-ns#"
   xmlns:svg="http://www.w3.org/2000/svg"
   xmlns="http://www.w3.org/2000/svg"
   version="1.1"
   width="743.34967"
   height="285.04852"
   id="svg2"
   xml:space="preserve">
   <defs
   id="defs6"><clipPath
     id="clipPath4017-4"><path
       d="m 260.65,344.465 0,-32.461 85.021,0 0,32.461"
       id="path4019-0" /></clipPath></defs><g
   transform="matrix(1.25,0,0,-1.25,-91.48228,488.18178)"
   id="g10"><g
     transform="translate(123.41502,-123.38199)"
     id="g3917"><g
       transform="matrix(4.2787535,0,0,4.2787535,68.847561,395.30936)"
       id="g3997"><path
         d="m 94.488569,27.535602 c -2.342639,0 -4.394803,-0.04783 -6.677125,-0.342905 -4.435854,-0.552648 -8.042798,-3.833485 -9.239388,-8.029695 -0.551016,-1.91552 -0.828687,-3.888575 -0.828687,-5.98179 0,-2.27906 0.351309,-4.4687455 1.00014,-6.5342475 1.304182,-4.0429703 4.86462,-7.02738487 9.210813,-7.53438762 1.979099,-0.21193058 3.955159,-0.30480458 5.991314,-0.30480458 2.559459,0 4.647114,9.144e-4 7.115284,0.33338 4.90862,0.87869363 8.38146,4.3255546 9.31559,8.7059802 0.37495,1.6237091 0.57751,3.2832995 0.59056,5.0292755 0.0163,2.500772 -0.34565,4.793207 -1.02872,6.896203 -1.35309,3.963087 -4.89611,6.908706 -9.19176,7.401035 -1.967689,0.226601 -3.936574,0.361956 -6.258021,0.361956 z M 67.42764,27.373674 c -2.430673,0 -4.807737,-0.116651 -7.143857,-0.39053 -5.005397,-0.458814 -9.069886,-4.192063 -9.991874,-9.039361 -0.246164,-1.491658 -0.428632,-3.146153 -0.428632,-4.733995 0,-1.55198 0.113299,-3.042215 0.33338,-4.4768173 0.737548,-4.775501 4.498169,-8.54912773 9.267964,-9.32511441 2.27254,-0.32278498 4.588146,-0.51170289 6.943828,-0.55245829 2.148644,-0.037494 4.263317,0.048766 6.35327,0.24765373 0.660811,0.0590833 1.186257,0.59656958 1.238269,1.26684394 l 0,0.00951 0.0095,4.40061583 c 0,0.7613164 -0.610304,1.3811456 -1.371621,1.3811456 l -0.04762,0 c -1.374285,-0.06521 -2.765123,-0.07208 -4.172013,-0.047626 -1.183547,0.019569 -2.352423,0.048836 -3.514777,0.1238269 -1.781842,0.2184503 -3.195324,1.6455788 -3.390951,3.4290512 -0.148351,1.3139638 -0.228603,2.6458378 -0.228603,4.0005598 0,0.84772 0.03656,1.691117 0.09525,2.524163 0.01466,2.055721 1.610343,3.739793 3.64813,3.876733 1.397105,0.08803 2.805716,0.104776 4.238688,0.104776 1.064539,0 2.114109,-0.03793 3.162347,-0.104776 0.762947,0 1.381146,0.608673 1.381146,1.37162 l 0,0.02856 0.02856,4.400615 c 0,0.718931 -0.553059,1.308042 -1.257319,1.371621 -1.697069,0.120635 -3.425058,0.133352 -5.153102,0.133352 z m -93.679776,-0.533408 c -0.772728,0 -1.390671,-0.616567 -1.390671,-1.381145 l 0,-24.76537049 c 0,-0.97324704 0.862475,-1.3716205 1.390671,-1.3716205 l 8.267824,0 c 0.697737,0 1.390671,0.58182008 1.390671,1.40019593 l 0,24.71774406 c 0,0.735235 -0.592976,1.400196 -1.409721,1.400196 l -8.248774,0 z m 16.107016,0 c -1.087363,0 -1.460514,-0.979876 -1.400196,-1.571648 0.0114,-0.123897 0.07843,-0.240899 0.114302,-0.438157 L -5.6016271,3.2845892 c 0.3733216,-1.4443834 1.4097394,-2.50981249 2.2574588,-3.05757066 0.9748777,-0.62926901 1.9478718,-0.89536339 3.52430265,-0.89536339 l 6.45804655,0 c 2.7387848,0 4.8144091,1.68493215 5.5626831,4.57206835 l 5.248354,20.8791125 c 0.04239,0.164652 0.08573,0.37134 0.08573,0.619134 0,0.906406 -0.654062,1.438296 -1.381146,1.438296 l -4.772096,0 c -0.267356,0 -1.075174,-0.0843 -1.362096,-1.047765 L 5.8761695,7.7137805 C 5.7522726,7.0959233 5.4371991,6.9612942 5.104633,6.9612942 c -0.2771405,0 -0.5890226,0.2126012 -0.6477097,0.5810337 L 0.0563075,25.468646 c -0.12063555,0.901517 -0.70245868,1.37162 -1.4001959,1.37162 l -8.8012316,0 z m 37.776715,0 c -2.707811,0 -5.476957,-2.092739 -5.476957,-5.896063 l 0,-16.0879653 c 0,-3.4723883 2.934311,-5.52458255 5.457906,-5.52458255 l 16.926179,0 c 0.714041,0 1.4328,0.53284409 1.400195,1.52402279 l 0,3.98150956 c 0,0.7547966 -0.61305,1.3811456 -1.39067,1.3811456 l -9.820422,0 c -0.912929,0 -1.533548,0.5345449 -1.533548,1.4001959 l 0,2.2955594 8.629779,0 c 0.653723,0 1.37162,0.5286286 1.37162,1.4382966 l 0,3.524303 c 0,0.715672 -0.592975,1.362095 -1.409721,1.362095 l -8.591678,0 -0.0095,2.381286 c 0,0.865651 0.665474,1.438296 1.381146,1.438296 l 9.820421,0.0095 c 0.595034,-0.0015 1.381146,0.463583 1.381146,1.37162 l 0,4.010085 c 0,0.797183 -0.659816,1.390671 -1.409721,1.390671 l -16.72615,0 z m 66.952226,-6.362795 c 0.397776,0 0.794497,2.56e-4 1.190642,-0.0095 2.039417,0 3.717833,-1.545203 3.905309,-3.524302 0.167914,-1.291143 0.257179,-2.606622 0.257179,-3.943409 0,-1.28299 -0.06584,-2.510672 -0.219079,-3.7529064 -0.286921,-1.7655377 -1.763748,-3.132071 -3.581453,-3.2575987 -0.715672,-0.030974 -1.430491,-0.047626 -2.152682,-0.047626 -0.339089,0 -0.635737,0.00305 -0.971565,0.00951 -1.951383,0.00814 -3.566384,1.4432465 -3.838632,3.3147496 -0.187476,1.3612425 -0.285754,2.7507085 -0.285754,4.1624875 0,1.203109 0.07261,2.387263 0.209553,3.552878 0.207038,1.861722 1.722222,3.339993 3.610029,3.467152 0.626007,0.02445 1.243922,0.02856 1.876453,0.02856 z M 31.622629,-7.4883468 28.184053,-7.516907 c -3.594655,-0.026091 -5.089444,-0.3922469 -6.610449,-1.7812016 -1.70522,-1.5438264 -2.495587,-3.7191184 -2.495587,-6.7057004 0,-6.574716 3.201124,-9.382265 10.811037,-9.382265 2.807256,0 4.749894,0.366771 6.324694,1.152542 0.759686,0.366802 0.990615,0.714218 0.990615,1.447822 l 0,6.438996 c 0,0.523304 -0.360904,0.895363 -0.885838,0.895363 l -4.695896,0 c -0.603183,0 -1.028715,-0.393603 -1.028715,-0.942989 l 0.02856,-3.095671 c 0,-1.022153 -0.419191,-1.33352 -1.809777,-1.33352 -0.891736,0 -1.734134,0.365887 -2.076481,0.942989 -0.418969,0.707519 -0.495307,1.103859 -0.495307,2.962319 0,2.593695 0.182419,3.47975 0.733436,4.029136 0.787401,0.733603 1.545597,0.914413 3.933883,0.914413 0.471137,0 0.917045,0.0087 1.362096,-0.01905 l 2.495587,-0.104776 1.00014,-0.05715 c 0.577102,0.05217 0.838213,0.262299 0.838213,0.733436 l 0,2.8003915 c 0,0.5249344 -0.285145,0.8171109 -0.914414,0.8953634 -1.180286,0.1581326 -2.544603,0.2381285 -4.067236,0.2381285 z m 71.457621,-0.047626 c -5.798729,0 -8.004307,-0.8423884 -8.791709,-3.4100012 -0.262467,-0.837938 -0.361955,-1.594767 -0.361955,-2.590838 0,-2.094846 0.439293,-3.459511 1.304944,-4.114862 1.075951,-0.785771 2.91556,-1.179508 6.45805,-1.362095 0.91782,-0.0538 1.26684,-0.337754 1.26684,-1.01919 0,-0.864021 -0.36951,-1.076341 -1.83835,-1.076341 -0.5771,0 -1.185493,0.0249 -1.86693,0.104776 -0.839568,0.07825 -1.912145,0.188452 -3.276649,0.266704 l -0.942989,0.04763 c -0.07988,0 -0.188451,0.02856 -0.266704,0.02856 -0.524934,0 -0.762011,-0.258621 -0.762011,-0.809637 l 0,-2.752766 c 0,-0.497219 0.237519,-0.731827 0.866788,-0.914414 l 2.600364,-0.08573 3.381421,-0.104777 c 0.34072,0 0.6578,-0.01905 1.00014,-0.01905 6.11337,0 8.31545,1.592186 8.31545,6.01989 0,2.200811 -0.39665,3.430935 -1.31447,4.086286 -0.9439,0.681436 -2.20537,1.107849 -3.64813,1.238269 -0.5771,0.05217 -1.39106,0.101097 -2.46701,0.180977 -0.91945,0.07825 -1.33352,0.391552 -1.33352,1.01919 0,0.524935 0.38874,0.862247 1.12397,0.914414 0.49885,0.05217 1.02312,0.05715 1.60022,0.05715 0.41897,0 0.86779,-0.0024 1.31447,-0.02856 1.04987,-0.05217 1.70924,-0.07869 1.97171,-0.104777 0.23638,-0.02771 0.60357,-0.05261 1.07634,-0.104776 0.70915,0.105965 0.97156,0.367938 0.97156,0.866788 l 0,2.4384358 c 0,0.4972185 -0.26944,0.7338779 -0.95251,0.8382125 -1.83727,0.2624672 -3.56598,0.3905309 -5.42933,0.3905309 z m -122.845764,-0.1619274 -6.953354,-0.00953 c -0.2103,0 -0.422901,-0.099046 -0.581033,-0.2571788 -0.2103,-0.2347544 -0.342906,-0.4435821 -0.342906,-0.600084 l 0,-15.74506 c 0,-0.49885 0.365446,-0.885839 0.838213,-0.885839 l 2.762291,0 c 0.236382,0 0.465123,0.10403 0.64771,0.31433 0.158133,0.156502 0.266704,0.36284 0.266704,0.571509 l -0.02858,7.934443 0,1.228744 c 0,0.156502 0.0024,0.240619 0.02856,0.266704 0,0.02609 0.0551,0.04763 0.133352,0.04763 0.132047,0 0.209553,-0.097 0.209553,-0.33338 0,-0.130419 0.07459,-0.477698 0.257179,-1.028715 l 2.628939,-8.086846 c 0.236382,-0.759686 0.469475,-0.914414 1.152542,-0.914414 l 2.600379,0.01905 c 0.761317,0 1.075595,0.215558 1.285895,0.895363 l 2.647989,8.324975 c 0.156502,0.471136 0.238129,0.731384 0.238129,0.809637 0,0.262467 0.05056,0.342905 0.180977,0.342905 0.132048,0 0.180978,-0.05391 0.180978,-0.238129 0,-0.07825 0.007,-0.150351 -0.01905,-0.228603 l 0,-0.809637 -0.02856,-8.229723 c 0,-0.471137 0.39402,-0.885839 0.866788,-0.885839 l 4.9340233,0 c 0.4988492,0 0.866788,0.360904 0.866788,0.885839 l -0.00954,15.6879091 c 0,0.5249345 -0.3894793,0.9144137 -0.9144137,0.9144137 l -6.6675996,0 c -0.681437,0 -0.989869,-0.2035393 -1.200168,-0.8572628 l -1.733571,-5.219777 c -0.28855,-0.86402 -0.419107,-1.331469 -0.419107,-1.409721 -0.02609,-0.182587 -0.07751,-0.238129 -0.209553,-0.238129 -0.130419,0 -0.190503,0.05554 -0.190503,0.238129 0,0.02609 -0.149607,0.493533 -0.438156,1.409721 l -1.64785,5.2483535 c -0.2103,0.6553512 -0.501845,0.8382126 -1.343045,0.8382126 z m 23.5271019,0 c -0.6553511,0 -1.0722415,-0.291317 -1.2287434,-0.866788 L -1.4867656,-24.147821 c -0.026091,-0.07825 -0.01905,-0.129673 -0.01905,-0.209553 0,-0.497219 0.3609039,-0.838213 0.88583829,-0.838213 l 3.22902331,0 c 0.3668018,0 0.75996,0.338059 0.8382125,0.704861 l 0.4476817,1.990755 5.3817054,0 0.4095812,-1.971705 c 0.026091,-0.156502 0.160318,-0.31023 0.3429052,-0.466732 0.184214,-0.156502 0.424973,-0.266704 0.68581,-0.266704 l 5.486482,0.0095 c 0.498849,0 0.895363,0.384496 0.895363,0.857263 0,0.05217 -0.0024,0.138336 -0.02856,0.190503 l -4.067251,15.5831481 c -0.158133,0.575471 -0.600779,0.866788 -1.362095,0.866788 l -7.8772928,0 z m 49.7117181,0 c -0.655351,0 -0.990615,-0.3182617 -0.990615,-0.8953634 l 0,-15.6117084 c 0,-0.655351 0.29218,-1.00014 0.895364,-1.00014 l 5.191202,0 c 0.524935,0 0.895364,0.396956 0.895364,1.00014 l 0,4.68637 0.542933,0 c 0.709149,0 1.056544,-0.229624 1.266844,-0.857262 l 1.362095,-3.933884 c 0.262467,-0.733604 0.4409,-0.885839 1.123967,-0.885839 l 5.505532,-0.0095 c 0.551017,0 0.885838,0.31945 0.885838,0.790586 0,0.13042 -0.02402,0.238571 -0.0762,0.342906 l -2.66704,5.39123 -0.33338,0.523883 c -0.02771,0.05217 -0.05715,0.133794 -0.05715,0.238129 0,0.262467 0.104913,0.364887 0.523882,0.495307 1.364504,0.4206 2.181258,2.07642 2.181258,4.381565 0,3.588135 -1.524751,5.343605 -4.648269,5.343605 l -11.601624,0 z m 20.774336,0 c -0.472767,0 -0.809637,-0.3670762 -0.809637,-0.8382126 l 0,-11.0301142 c 0,-4.034817 2.301743,-5.767253 7.943968,-5.715086 l 2.914694,0.02856 c 3.594655,0.02609 5.877013,2.281402 5.877013,5.791287 l 0,10.8681871 c 0,0.2347544 -0.108572,0.4746478 -0.266704,0.6572349 -0.156502,0.1581326 -0.338806,0.2381285 -0.495308,0.2381285 l -3.03852,0 c -0.526565,0 -0.866788,-0.3459775 -0.866788,-0.8953634 l 0,-10.0585501 c 0,-1.256907 -0.896637,-2.177905 -2.181258,-2.124107 l -0.628659,0.02856 c -1.310705,0.05217 -2.228883,0.893285 -2.228883,2.124107 l 0,10.0585503 c 0,0.4450512 -0.452803,0.866788 -0.923939,0.866788 l -5.295979,0 z m -32.128306,-0.00953 c -0.683067,0 -1.01919,-0.3654667 -1.01919,-1.0191902 l 0,-15.3735796 c 0,-0.759686 0.341107,-1.104917 1.076341,-1.104917 l 4.905449,0 c 0.603183,0 1.01919,0.396956 1.01919,1.00014 l 0,15.506932 c 0,0.6553511 -0.393274,0.9906148 -1.076341,0.9906148 l -4.905449,0 z m 17.345285,-4.1339118 2.228883,0 c 0.945534,0 1.304944,-0.518122 1.304944,-1.828827 0,-1.178655 -0.412766,-1.838353 -1.200167,-1.838353 l -2.33366,0 0,3.66718 z M 6.6762815,-12.231868 c 0.2086692,0 0.3980046,-0.209248 0.4762571,-0.523883 l 1.2858942,-5.610308 -3.6290792,0 1.3144696,5.610308 c 0.078252,0.314635 0.2899911,0.523883 0.5524583,0.523883 z"
         id="path3999"
         style="fill:#155196;fill-opacity:1;fill-rule:nonzero;stroke:none" /></g><g
       transform="matrix(4.2787535,0,0,4.2787535,107.74999,462.25473)"
       id="g4001" /><g
       transform="matrix(4.2787535,0,0,4.2787535,224.88082,439.71426)"
       id="g4005" /><g
       transform="matrix(4.2787535,0,0,4.2787535,308.42776,449.74794)"
       id="g4009" /><g
       transform="matrix(4.2787535,0,0,4.2787535,-1050.0423,-1004.5234)"
       id="g4013"><g
         clip-path="url(#clipPath4017-4)"
         id="g4015"><g
           transform="translate(338.775,333.249)"
           id="g4021" /></g></g><g
       transform="matrix(4.2787535,0,0,4.2787535,422.50361,365.40943)"
       id="g4025" /><g
       transform="matrix(4.2787535,0,0,4.2787535,346.5429,376.87221)"
       id="g4029" /><g
       transform="matrix(4.2787535,0,0,4.2787535,248.4482,330.93979)"
       id="g4037" /><g
       transform="matrix(4.2787535,0,0,4.2787535,231.62842,365.18693)"
       id="g4041" /><g
       transform="matrix(4.2787535,0,0,4.2787535,293.82438,366.01273)"
       id="g4045" /><g
       transform="matrix(4.2787535,0,0,4.2787535,76.989986,354.11352)"
       id="g4049" /><g
       transform="matrix(4.2787535,0,0,4.2787535,76.989986,354.11352)"
       id="g4053" /><g
       transform="matrix(4.2787535,0,0,4.2787535,159.89939,348.89344)"
       id="g4057" /></g></g></svg>