<svg xmlns="http://www.w3.org/2000/svg" xmlns:xlink="http://www.w3.org/1999/xlink" viewBox="0 0 1576 615.1">
  <defs>
    <path id="a" d="M13.7 454.1c.1 0 .3-.1.4-.1.7-.2.6-.2 0 0-.4.1-.7.3-1 .4l-.7.3c-3 1.7-4.6 5.3-3.5 8.7.2.6.5 1.2.9 1.7.3.4.6.7.8 1.1.4.4.7.8 1.2 1.2.3.2.1.1-.4-.1 4.1 5.6 9.3 10.4 15.5 14l221 127c8 4.6 17 6.9 25.9 6.9 8.9 0 17.9-2.4 25.9-7.1l209.8-122.6c1.2-.9 2.2-2.2 2.7-3.8 1.2-4-1.1-8.2-5.2-9.3-.6-.2-.7-.2 0 0 .5.1 1.4.4 2.5.7L272 330.3 13.7 454.1zm521.4-250c-.8.3-1.5.7-2.2 1.2-.2.2-.2.1.1-.2l-212.8 102 213.3 100.8c-.6-.6-.8-.9-.5-.6 1.3 1 2.9 1.6 4.7 1.6 3.2 0 6-2 7.1-4.9V208.5c-1.1-2.8-3.9-4.8-7.1-4.8-1 0-1.8.1-2.6.4M.3 176.8c-.1 1.3-.3 2.7-.3 4l1 255.6c0 1.1.2 2.3.2 3.4 1.2 2.6 3.9 4.3 6.9 4.3 1.8 0 3.4-.6 4.7-1.6.3-.2.1 0-.4.5l221.8-135.5L11.5 173.6c.5.5.6.7.3.4-1.3-1-2.9-1.6-4.7-1.6-3 .1-5.6 1.8-6.8 4.4M245.8 7.1L25.7 135.7c-7.5 4.4-13.5 10.6-17.9 17.8-.8 3 .3 6.1 2.7 7.9l261.4 123.1 235.5-143.9c-.6.2-1 .3-1.4.4-.1 0-.2.1-.2.1-.8.2-.6.2.2-.1 3.9-1.3 6.1-5.4 4.9-9.3-.5-1.6-1.5-2.8-2.7-3.8L297.6 6.9c-8-4.6-17-6.9-25.9-6.9-9 0-17.9 2.4-25.9 7.1"/>
  </defs>
  <linearGradient id="b" gradientUnits="userSpaceOnUse" x1="525.265" y1="307.552" x2="-66.549" y2="307.552">
    <stop offset="0" stop-color="#0e86c8"/>
    <stop offset="1" stop-color="#38bde4"/>
  </linearGradient>
  <use xlink:href="#a" overflow="visible" fill="url(#b)"/>
  <clipPath id="c">
    <use xlink:href="#a" overflow="visible"/>
  </clipPath>
  <linearGradient id="d" gradientUnits="userSpaceOnUse" x1="525.965" y1="307.555" x2="-66.639" y2="307.555">
    <stop offset="0" stop-color="#0e86c8"/>
    <stop offset="1" stop-color="#38bde4"/>
  </linearGradient>
  <path clip-path="url(#c)" fill="url(#d)" d="M274.9 887.4l-582-577.7 577.7-582 582.1 577.7z"/>
  <g>
    <path d="M1164.5 202l26.2-.1.8 203.5-31.4.1c-28.6-51.5-57.4-103.4-86.3-155.3l-1.2.3c-.6 7.3-.1 14.6-.2 21.9 0 7.4 0 14.8.1 22.2l.1 22.2.1 22.2.1 22.2.1 22.2.1 22.5-25.8.1-.8-203.4 31.8-.1c28.5 52.2 57.1 104.7 85.7 157.2l1.2-.4-.6-157.3zM997.8 305.2c.1 17.5.1 35 .2 52.5 0 3.2.1 6.5-.3 9.7-.6 5.5-2.9 10.3-6.5 14.5-6.2 7.2-12.7 14.3-20.5 19.7-6.4 4.5-13.6 6.8-21.4 6.9-17 .2-34.1.1-51.1.3-10.3.1-19.5-2.9-27.2-9.6-6.3-5.4-12.1-11.4-17.7-17.4-4.1-4.4-6-9.9-6.3-15.9-.1-3.1-.2-6.3-.3-9.4-.1-35.2-.3-70.4-.4-105.6 0-6.6.3-13.1 4.1-18.7 2.5-3.6 5.3-6.9 8.3-10.1 3.5-3.7 7.2-7.1 10.9-10.5 7.6-6.7 16.4-10.2 26.7-10.2 16.1 0 32.3.1 48.4-.2 12.5-.3 23.2 3.5 32 12.2 5.3 5.2 10.3 10.6 15.1 16.2 4.7 5.5 6.2 12.3 6 19.4-.1 1.6-.1 3.1-.1 4.7-.1 17.1 0 34.3.1 51.5m-124.7.2c.1 17.6.2 35.2.2 52.8 0 3.4.8 6.5 3.2 8.9 4.7 4.6 9.5 9.1 14.4 13.6 2.3 2.1 5.3 2.8 8.4 2.8 15.7-.1 31.4-.1 47.1-.2 3 0 5.8-.6 8.1-2.7 4.4-3.9 8.9-7.8 13.1-12 2.6-2.6 4.3-5.9 4.3-9.9-.2-35.9-.3-71.7-.5-107.6 0-2.3-.9-4.9-2.2-6.8-4.2-6.5-9.8-11.7-16.2-15.9-1.8-1.2-4.4-1.9-6.6-1.9-16-.1-32.1-.1-48.1.2-2.4 0-5.3.9-7.1 2.3-4.7 3.7-9.1 7.9-13.4 12.2-3.5 3.6-4.9 7.9-4.8 13.1.1 17 0 34.1.1 51.1M1239.5 201.8l26.6-.1c.1 1.6.2 3 .2 4.5.2 50 .4 100 .5 150 0 4.2 1.1 7.8 4.1 10.6 4.9 4.5 9.7 9 14.9 13 1.9 1.4 4.7 2.2 7.2 2.2 12.7.2 25.3 0 38 0 3.3 0 6.4-.8 9-3.1 1.9-1.7 3.9-3.3 5.9-5 7.4-6.2 10.7-13.6 10.6-23.9-.8-48-.6-96-.8-143.9v-4.6l26.8-.1c.1 1.5.2 2.9.2 4.3.2 50.6.3 101.1.7 151.7.1 10.5-2.4 19.5-10 26.8-5.1 5-10.2 10.1-15.7 14.7-7 5.8-15.3 8.3-24.3 8.3-14 .1-28 0-42 .2-9.8.1-18.7-2.6-26.1-9-6.5-5.6-12.5-11.9-18.4-18.2-5.3-5.7-6.9-13.1-7-20.6-.3-51.6-.4-103.1-.6-154.7-.1-1 .1-1.9.2-3.1M816.1 407l-35.3.1c-26.8-29.5-53.6-59-80.2-88.4h-4.2l.3 88.4-26.5.1-.8-203.5 26.2-.1.3 88.4c2.6 1.9 4.2 1.1 5.7-.6 4.7-5.3 9.5-10.5 14.1-15.8 13.1-14.8 26.2-29.5 39.2-44.3l23.4-26.4c.5-.6.9-1.3 1.2-1.7l35.6-.1c-31 34.3-61.6 68.3-92.5 102.4 31.3 33.9 62.2 67.5 93.5 101.5M1576 404.1l-29.7.1c-16.9-26.5-33.9-53.1-51.4-80.6-17.1 27.5-33.8 54.2-50.5 81l-29.7.1c22.1-34.9 43.8-69.3 65.7-104-21.2-33.2-42.3-66.3-63.6-99.8l29.4-.1c15.9 25.2 31.9 50.6 48.5 76.9 16.4-26.2 32.4-51.8 48.3-77.2l29.4-.1c-21.1 33.6-41.9 66.8-62.8 100.2 22.1 34.5 44.1 68.7 66.4 103.5"/>
  </g>
</svg>
