<?xml version="1.0" encoding="UTF-8" standalone="no"?>
<!-- Created with Inkscape (http://www.inkscape.org/) -->

<svg
   xmlns:dc="http://purl.org/dc/elements/1.1/"
   xmlns:cc="http://creativecommons.org/ns#"
   xmlns:rdf="http://www.w3.org/1999/02/22-rdf-syntax-ns#"
   xmlns:svg="http://www.w3.org/2000/svg"
   xmlns="http://www.w3.org/2000/svg"
   version="1.1"
   width="91.867622"
   height="93.249619"
   id="svg2"
   xml:space="preserve"><metadata
     id="metadata8"><rdf:RDF><cc:Work
         rdf:about=""><dc:format>image/svg+xml</dc:format><dc:type
           rdf:resource="http://purl.org/dc/dcmitype/StillImage" /><dc:title></dc:title></cc:Work></rdf:RDF></metadata><defs
     id="defs6"><clipPath
       id="clipPath156"><path
         d="m 428.032,255.118 99.212,0 0,96.377 -99.212,0 0,-96.377 z"
         id="path158" /></clipPath><clipPath
       id="clipPath180"><path
         d="m 439.718,261.306 73.494,0 0,74.599 -73.494,0 0,-74.599 z"
         id="path182" /></clipPath><clipPath
       id="clipPath196"><path
         d="m 428.032,255.118 99.212,0 0,96.377 -99.212,0 0,-96.377 z"
         id="path198" /></clipPath><clipPath
       id="clipPath372"><path
         d="m 0,0 527.244,0 0,351.496 L 0,351.496 0,0 z"
         id="path374" /></clipPath><clipPath
       id="clipPath380"><path
         d="m -32768,32767 65535,0 0,-65535 -65535,0 0,65535 z"
         id="path382" /></clipPath><linearGradient
       x1="0"
       y1="0"
       x2="1"
       y2="0"
       id="linearGradient384"
       gradientUnits="userSpaceOnUse"
       gradientTransform="matrix(0,99.212601,99.212601,0,-1.53e-5,244.48817)"
       spreadMethod="pad"><stop
         id="stop386"
         style="stop-color:#ffffff;stop-opacity:0"
         offset="0" /><stop
         id="stop388"
         style="stop-color:#ffffff;stop-opacity:1"
         offset="0.25" /><stop
         id="stop390"
         style="stop-color:#ffffff;stop-opacity:0"
         offset="1" /></linearGradient><mask
       id="mask392"><g
         id="g394"><g
           clip-path="url(#clipPath380)"
           id="g396"><g
             id="g398"><g
               id="g400"><path
                 d="m -32768,32767 65535,0 0,-65535 -65535,0 0,65535 z"
                 id="path402"
                 style="fill:url(#linearGradient384);stroke:none" /></g></g></g></g></mask><clipPath
       id="clipPath408"><path
         d="m -1.00002,344.701 336.48802,0 0,-101.213 -336.48802,0 0,101.213 z"
         id="path410" /></clipPath><clipPath
       id="clipPath412"><path
         d="m 0,244.489 334.489,0 0,99.212 -334.489,0 0,-99.212 z"
         id="path414" /></clipPath><clipPath
       id="clipPath196-6"><path
         d="m 428.032,255.118 99.212,0 0,96.377 -99.212,0 0,-96.377 z"
         id="path198-5" /></clipPath><clipPath
       id="clipPath180-7"><path
         d="m 439.718,261.306 73.494,0 0,74.599 -73.494,0 0,-74.599 z"
         id="path182-7" /></clipPath><clipPath
       id="clipPath156-5"><path
         d="m 428.032,255.118 99.212,0 0,96.377 -99.212,0 0,-96.377 z"
         id="path158-1" /></clipPath></defs><g
     transform="matrix(1.25,0,0,-1.25,-49.99625,420.68289)"
     id="g10"><g
       id="g3777"><path
         d="m 51.92131,293.65061 10.988,0 0,-10.978 -10.988,0 0,10.978 z"
         id="path114"
         style="fill:#17b19b;fill-opacity:1;fill-rule:evenodd;stroke:none" /><path
         d="m 51.92131,306.49661 10.988,0 0,-10.978 -10.988,0 0,10.978 z"
         id="path116"
         style="fill:#17b19b;fill-opacity:1;fill-rule:evenodd;stroke:none" /><path
         d="m 64.76631,306.49661 10.987,0 0,-10.978 -10.987,0 0,10.978 z"
         id="path118"
         style="fill:#17b19b;fill-opacity:1;fill-rule:evenodd;stroke:none" /><path
         d="m 77.60931,306.49661 10.987,0 0,-10.978 -10.987,0 0,10.978 z"
         id="path120"
         style="fill:#17b19b;fill-opacity:1;fill-rule:evenodd;stroke:none" /><path
         d="m 90.40731,306.49661 10.988,0 0,-10.978 -10.988,0 0,10.978 z"
         id="path122"
         style="fill:#17b19b;fill-opacity:1;fill-rule:evenodd;stroke:none" /><path
         d="m 51.92131,319.29361 10.988,0 0,-10.976 -10.988,0 0,10.976 z"
         id="path124"
         style="fill:#17b19b;fill-opacity:1;fill-rule:evenodd;stroke:none" /><path
         d="m 64.76631,319.29361 10.987,0 0,-10.976 -10.987,0 0,10.976 z"
         id="path126"
         style="fill:#17b19b;fill-opacity:1;fill-rule:evenodd;stroke:none" /><path
         d="m 77.60931,319.29361 10.987,0 0,-10.976 -10.987,0 0,10.976 z"
         id="path128"
         style="fill:#17b19b;fill-opacity:1;fill-rule:evenodd;stroke:none" /><path
         d="m 90.40731,319.29361 10.988,0 0,-10.976 -10.988,0 0,10.976 z"
         id="path130"
         style="fill:#17b19b;fill-opacity:1;fill-rule:evenodd;stroke:none" /><path
         d="m 51.92131,332.13961 10.988,0 0,-10.977 -10.988,0 0,10.977 z"
         id="path132"
         style="fill:#17b19b;fill-opacity:1;fill-rule:evenodd;stroke:none" /><path
         d="m 77.60931,332.13961 10.987,0 0,-10.977 -10.987,0 0,10.977 z"
         id="path134"
         style="fill:#17b19b;fill-opacity:1;fill-rule:evenodd;stroke:none" /><g
         transform="translate(65.92851,335.16371)"
         id="g136"><path
           d="M 0,0 10.877,-1.557 9.321,-12.423 -1.555,-10.866 0,0 z"
           id="path138"
           style="fill:#244ba6;fill-opacity:1;fill-rule:evenodd;stroke:none" /></g><g
         transform="translate(90.68681,333.81431)"
         id="g140"><path
           d="M 0,0 10.642,2.732 13.371,-7.901 2.729,-10.632 0,0 z"
           id="path142"
           style="fill:#244ba6;fill-opacity:1;fill-rule:evenodd;stroke:none" /></g><g
         transform="translate(69.45661,312.88041)"
         id="g144"><path
           d="m 0,0 0.736,2.592 0.106,0 L 1.578,0 0,0 z m 2.019,-1.578 0.415,-1.47 1.916,0 -2.262,7.71 -2.598,0 -2.262,-7.71 1.917,0 0.415,1.47 2.459,0 z"
           id="path146"
           style="fill:#ffffff;fill-opacity:1;fill-rule:nonzero;stroke:none" /></g><g
         transform="translate(56.86101,317.54271)"
         id="g148"><path
           d="m 0,0 -1.969,0 0,-7.71 5.354,0 0,1.733 L 0,-5.977 0,0 z"
           id="path150"
           style="fill:#ffffff;fill-opacity:1;fill-rule:nonzero;stroke:none" /></g><g
         transform="translate(-399.7217,0.640616)"
         id="g152"><g
           clip-path="url(#clipPath156-5)"
           id="g154"><g
             transform="translate(482.0932,315.2665)"
             id="g160"><path
               d="m 0,0 0.568,0 c 0.635,0 1.16,-0.103 1.16,-1.382 l 0.019,-0.695 0,-0.283 -0.019,-0.695 c 0,-1.278 -0.525,-1.382 -1.16,-1.382 L 0,-4.437 0,0 z m 3.708,-2.129 c 0,1.588 -0.106,2.201 -0.471,2.738 C 2.8,1.243 2.148,1.636 0.247,1.636 l -2.217,0 0,-7.711 2.217,0 c 1.901,0 2.553,0.392 2.99,1.027 0.365,0.536 0.471,1.15 0.471,2.738 l 0,0.181 z"
               id="path162"
               style="fill:#ffffff;fill-opacity:1;fill-rule:nonzero;stroke:none" /></g><g
             transform="translate(494.7063,315.4353)"
             id="g164"><path
               d="m 0,0 0.634,0 c 0.431,0 0.672,-0.005 0.882,-0.081 0.227,-0.084 0.378,-0.242 0.378,-0.736 l 0,-0.083 c 0,-0.493 -0.151,-0.652 -0.378,-0.736 -0.21,-0.075 -0.451,-0.08 -0.882,-0.08 L 0,-1.716 0,0 z m -1.92,1.467 0,-7.71 1.92,0 0,3.021 0.652,0 c 0.08,-0.173 1.48,-3.021 1.48,-3.021 l 2.118,0 c 0,0 -1.635,3.173 -1.744,3.393 0.878,0.336 1.368,0.988 1.368,2.013 0,2.304 -2.017,2.304 -2.878,2.304 l -2.916,0 z"
               id="path166"
               style="fill:#ffffff;fill-opacity:1;fill-rule:nonzero;stroke:none" /></g><g
             transform="translate(465.254,284.715)"
             id="g168"><path
               d="M 0,0 C 0,0 0.062,0.437 0.292,0.796 0.687,1.412 1.21,1.618 1.21,1.618 1.507,1.671 1.804,1.587 2.055,1.386 2.133,1.323 2.192,1.277 2.234,1.248 L 2.611,0.881 c 0,0 0.014,-0.029 0.059,-0.084 L 2.757,0.659 c 0.077,-0.167 0.199,-0.308 0.24,-0.423 0,0 0.058,-0.033 0.157,-0.522 0.063,-0.31 0.355,-2.396 0.355,-2.396 l 6.711,0 0,10.977 -10.986,0 0,-10.977 0.959,0 C 0.161,-2.351 0.13,-1.991 0.095,-1.578 L 0,0 z"
               id="path170"
               style="fill:#17b19b;fill-opacity:1;fill-rule:nonzero;stroke:none" /></g><g
             transform="translate(485.0811,287.1098)"
             id="g172"><path
               d="M 0,0 C -0.074,0.583 -0.043,1.124 0.09,1.608 L 0.137,1.73 c 0.02,0.04 0.06,0.116 0.122,0.23 L 0.314,2.063 0.402,2.14 c 0.216,0.193 0.393,0.32 0.603,0.358 l 0.128,0.011 c 0.043,0 0.127,-0.006 0.253,-0.03 L 1.435,2.47 1.954,2.138 C 2.219,1.762 2.095,1.917 2.317,1.638 L 2.398,1.509 C 2.495,1.303 2.794,0.451 2.794,0.451 2.807,0.4 2.83,0.302 2.861,0.185 2.904,0.018 2.955,-0.185 3.015,-0.435 l 0.222,-1.065 0,7.401 -10.987,0 0,-10.978 8.522,0 -0.548,3.299 C 0.185,-1.475 0.111,-0.89 0,0"
               id="path174"
               style="fill:#17b19b;fill-opacity:1;fill-rule:nonzero;stroke:none" /></g></g></g><g
         transform="translate(-399.7217,0.640616)"
         id="g176"><g
           clip-path="url(#clipPath180-7)"
           id="g178"><g
             transform="translate(491.7548,283.9011)"
             id="g184"><path
               d="M 0,0 0.045,0.003 0.09,-0.001 c 0.371,-0.027 0.697,-0.062 0.971,-0.104 l 0.143,-0.039 c 0.056,-0.022 0.138,-0.059 0.246,-0.113 0.465,-0.088 0.939,-0.358 1.444,-0.82 0.28,-0.26 0.508,-0.524 0.692,-0.791 l 0.192,0 c 0,0.011 0,0.026 0,0.036 l 0.004,0.072 c 0.046,0.447 0.33,0.971 0.892,1.648 l 0.066,0.079 0.088,0.055 c 0.076,0.049 0.194,0.12 0.352,0.21 L 5.882,0.676 C 6.14,0.841 6.394,0.947 6.643,0.991 L 7.824,1.199 C 8.009,1.231 8.223,1.225 8.452,1.174 8.651,1.184 8.904,1.159 9.362,0.971 l 0,8.138 -10.988,0 0,-9.312 1.059,0.157 C -0.535,-0.04 -0.339,-0.021 0,0"
               id="path186"
               style="fill:#17b19b;fill-opacity:1;fill-rule:nonzero;stroke:none" /></g><g
             transform="translate(475.9309,267.5906)"
             id="g188"><path
               d="M 0,0 C 0.034,-0.191 0.007,-0.431 -0.078,-0.723 -0.104,-0.802 -0.184,-1.061 -0.319,-1.502 -0.413,-1.704 -0.498,-1.969 -0.575,-2.298 -0.604,-2.384 -0.64,-2.449 -0.683,-2.491 -0.84,-3.02 -1.09,-3.752 -1.435,-4.689 -1.476,-4.871 -1.556,-5.146 -1.676,-5.515 -1.68,-5.592 -1.689,-5.713 -1.705,-5.877 c -0.03,-0.019 -0.073,-0.053 -0.129,-0.102 0.007,-0.044 0.022,-0.064 0.044,-0.06 -0.013,-0.01 -0.061,-0.044 -0.146,-0.105 -0.082,-0.056 -0.128,-0.085 -0.135,-0.087 l -0.265,-0.046 c -0.156,-0.028 -0.293,0.021 -0.413,0.148 -0.145,0.055 -0.591,0.433 -1.34,1.135 -0.188,0.254 -0.352,0.448 -0.494,0.58 -0.174,0.24 -0.345,0.481 -0.514,0.724 -0.11,0.341 -0.17,0.534 -0.178,0.578 -0.022,0.13 -0.007,0.26 0.047,0.393 0.054,0.132 0.123,0.205 0.207,0.22 0.087,0.015 0.258,-0.08 0.513,-0.288 0.102,-0.055 0.216,-0.148 0.339,-0.276 0.442,-0.679 0.905,-1.141 1.388,-1.385 0.226,0.576 0.571,1.435 1.034,2.579 0.29,0.99 0.629,1.831 1.014,2.523 C -0.67,0.615 -0.58,0.595 -0.462,0.591 -0.416,0.557 -0.308,0.462 -0.138,0.306 -0.07,0.242 -0.024,0.139 0,0"
               id="path190"
               style="fill:#17b19b;fill-opacity:1;fill-rule:nonzero;stroke:none" /></g></g></g><g
         transform="translate(-399.7217,0.640616)"
         id="g192"><g
           clip-path="url(#clipPath196-6)"
           id="g194"><g
             transform="translate(480.0818,265.4373)"
             id="g200"><path
               d="M 0,0 -0.023,0.132 C -0.319,0.539 -0.559,0.726 -0.744,0.694 -0.753,0.692 -0.762,0.686 -0.773,0.675 -0.784,0.665 -0.791,0.659 -0.797,0.658 L -0.846,0.649 C -0.913,0.743 -1.045,0.772 -1.244,0.737 -1.266,0.733 -1.289,0.729 -1.313,0.724 L -1.758,0.625 -2.719,0.209 -2.749,0.114 -2.716,-0.069 c 0.006,-0.038 0.028,-0.088 0.064,-0.151 -0.004,-0.023 -0.025,-0.063 -0.062,-0.122 0.037,-0.067 0.059,-0.105 0.066,-0.115 -0.042,-0.06 -0.079,-0.101 -0.109,-0.124 -0.002,0 -0.026,-0.092 -0.068,-0.275 -0.049,-0.187 -0.069,-0.303 -0.062,-0.347 0.005,-0.01 0.019,-0.046 0.041,-0.109 0.102,-0.104 0.258,-0.189 0.468,-0.256 0.209,-0.066 0.385,-0.087 0.53,-0.062 0.307,0.132 0.489,0.203 0.547,0.213 l 0.603,0.442 c 0.292,0.217 0.483,0.401 0.571,0.553 C -0.023,-0.25 0.02,-0.109 0,0 M 1.002,-0.171 C 1.047,-0.426 1.022,-0.656 0.93,-0.861 0.93,-0.893 0.925,-0.964 0.917,-1.074 0.844,-1.248 0.736,-1.495 0.593,-1.814 0.335,-2.112 0.092,-2.388 -0.135,-2.642 -0.709,-3.016 -1.156,-3.231 -1.48,-3.289 l -0.274,-0.047 c -0.03,-0.006 -0.066,0.003 -0.109,0.027 -0.006,-10e-4 -0.01,-10e-4 -0.013,-0.002 -0.073,-0.013 -0.303,0.013 -0.69,0.078 -0.172,0.085 -0.42,0.25 -0.743,0.494 -0.056,0.092 -0.147,0.228 -0.274,0.41 -0.161,0.388 -0.261,0.692 -0.3,0.913 l -0.048,0.486 -0.133,0.755 c 0.003,0.028 0.011,0.142 0.024,0.34 0.014,0.209 0.021,0.359 0.022,0.451 0.022,0.19 0.19,0.46 0.504,0.814 0.055,0.034 0.146,0.085 0.271,0.153 0.031,0.029 0.07,0.068 0.118,0.115 0.013,-0.012 0.031,-0.015 0.053,-0.012 l 0.22,0.134 c 0.144,0.092 0.274,0.148 0.391,0.169 l 0.787,0.138 c 0.087,0.016 0.191,0.008 0.311,-0.023 0.006,10e-4 0.011,10e-4 0.016,0.002 0.193,0.035 0.606,-0.121 1.239,-0.465 L -0.091,1.54 C 0.021,1.447 0.163,1.358 0.335,1.273 0.403,1.204 0.568,0.946 0.829,0.498 0.907,0.263 0.964,0.04 1.002,-0.171"
               id="path202"
               style="fill:#17b19b;fill-opacity:1;fill-rule:nonzero;stroke:none" /></g><g
             transform="translate(486.8507,267.5397)"
             id="g204"><path
               d="m 0,0 c -0.014,-0.003 -0.047,-0.028 -0.1,-0.075 0.006,-0.034 0.006,-0.061 0.001,-0.079 l 0.1,-0.088 c -0.115,-0.065 -0.232,-0.144 -0.35,-0.235 l -0.794,0.071 c -0.132,-0.034 -0.306,-0.096 -0.523,-0.187 -0.241,-0.159 -0.469,-0.295 -0.684,-0.41 -0.39,-0.286 -0.742,-0.562 -1.057,-0.828 -0.415,-0.346 -0.635,-0.802 -0.659,-1.366 0.004,-0.021 0.042,-0.154 0.113,-0.401 l 0.03,-0.168 c -0.016,-0.066 -0.027,-0.121 -0.03,-0.163 -0.003,-0.018 -0.002,-0.036 10e-4,-0.053 0.008,-0.044 0.031,-0.076 0.071,-0.097 l -0.35,-0.398 -0.081,-0.015 c -0.062,0.031 -0.148,0.088 -0.258,0.17 l -0.106,-0.039 c -0.046,0.058 -0.11,0.138 -0.189,0.239 -0.043,0.084 -0.085,0.157 -0.128,0.22 l -0.106,0.318 -0.078,0.443 c -0.001,0.003 0,0.023 0,0.057 10e-4,0.035 10e-4,0.057 0,0.064 l -0.084,0.474 c -0.024,0.139 -0.026,0.382 -0.002,0.73 0.025,0.442 0.099,0.674 0.222,0.696 l 0.122,0.021 0.17,-0.132 0.062,0.01 c 0.071,0.013 0.292,0.229 0.663,0.648 0.271,0.213 0.68,0.539 1.228,0.978 0.022,0.005 0.148,0.098 0.379,0.283 0.062,0.014 0.183,0.066 0.364,0.154 l 0.284,0.128 0.412,0.073 c 0.288,0.051 0.666,-0.13 1.134,-0.541 0.017,-0.018 0.034,-0.057 0.05,-0.117 0.084,-0.083 0.134,-0.166 0.149,-0.247 L 0,0 z"
               id="path206"
               style="fill:#17b19b;fill-opacity:1;fill-rule:nonzero;stroke:none" /></g><g
             transform="translate(498.305,274.0423)"
             id="g208"><path
               d="M 0,0 C -0.003,0.017 -0.021,0.04 -0.055,0.069 -0.048,0.036 -0.03,0.012 0,0 M 0.438,-2.629 C 0.389,-2.351 0.28,-2.025 0.111,-1.651 0.013,-1.434 -0.145,-1.217 -0.364,-1 c -0.219,0.218 -0.418,0.354 -0.596,0.411 -0.093,0.081 -0.24,0.155 -0.442,0.221 -0.187,0.058 -0.325,0.099 -0.413,0.122 -0.133,0.008 -0.314,0.03 -0.542,0.067 l -0.999,-0.15 C -3.364,-0.33 -3.371,-0.331 -3.377,-0.332 -3.491,-0.352 -3.706,-0.438 -4.021,-0.588 -4.036,-0.612 -4.065,-0.636 -4.105,-0.66 l -0.098,-0.018 c -0.008,0.016 -0.019,0.037 -0.032,0.063 -0.005,-0.001 -0.026,0.001 -0.06,0.005 -0.032,0.005 -0.05,0.007 -0.055,0.006 l -0.566,-0.462 -0.609,-0.959 c 0.009,-0.023 0.02,-0.046 0.033,-0.068 l -0.277,-0.196 c -0.028,0.03 -0.074,0.047 -0.139,0.049 -0.024,-0.148 -0.05,-0.24 -0.077,-0.276 -0.043,-0.123 -0.088,-0.327 -0.136,-0.613 -0.004,-0.298 -0.005,-0.502 -0.006,-0.611 -0.003,-0.088 -0.008,-0.132 -0.01,-0.133 -0.003,0 -0.005,0.005 -0.007,0.015 L -6.08,-4.22 c 0.002,-0.01 0,-0.03 -0.006,-0.059 -0.008,-0.036 -0.011,-0.06 -0.009,-0.07 0.015,-0.084 0.059,-0.217 0.133,-0.397 0.008,-0.044 0.015,-0.102 0.023,-0.175 0.457,-1.019 1.013,-1.804 1.668,-2.354 0.237,-0.2 0.619,-0.396 1.146,-0.586 0.388,-0.023 0.628,-0.026 0.72,-0.01 0.395,0.069 0.821,0.306 1.28,0.709 0.611,0.539 1.06,1.224 1.348,2.057 0.288,0.831 0.359,1.657 0.215,2.476 m 0.727,0.265 C 1.165,-2.378 1.161,-2.421 1.154,-2.493 1.157,-2.51 1.16,-2.525 1.162,-2.538 1.212,-2.82 1.232,-3.236 1.222,-3.784 1.198,-3.995 1.149,-4.314 1.075,-4.74 1.081,-4.816 1.046,-4.981 0.974,-5.236 0.882,-5.796 0.598,-6.5 0.123,-7.352 0.121,-7.373 0.114,-7.404 0.102,-7.445 0.072,-7.464 0.026,-7.507 -0.035,-7.574 -0.03,-7.601 -0.013,-7.631 0.019,-7.665 l -0.058,-0.01 -0.175,-0.272 c -0.035,-0.006 -0.059,-0.01 -0.073,-0.013 -0.525,-0.692 -1.192,-1.167 -1.998,-1.425 -0.022,-0.003 -0.048,-0.024 -0.077,-0.061 -0.042,-0.007 -0.093,-0.02 -0.158,-0.038 l -0.1,-0.028 c -0.008,-10e-4 -0.019,-0.003 -0.032,-0.006 -0.196,-0.034 -0.612,0.022 -1.246,0.17 -0.414,0.235 -0.788,0.5 -1.124,0.795 l -0.018,0.107 c -0.073,0.078 -0.176,0.203 -0.31,0.376 -0.711,0.74 -1.194,1.682 -1.449,2.825 l -0.095,0.419 c -0.003,0.021 -0.007,0.041 -0.011,0.061 -0.019,0.109 -0.026,0.23 -0.022,0.364 -0.048,0.591 -0.026,1.264 0.065,2.019 0.002,0.032 0.042,0.167 0.118,0.405 0.135,0.71 0.428,1.345 0.879,1.905 0.018,0.038 0.068,0.101 0.151,0.19 0.069,0.054 0.136,0.087 0.201,0.098 0.061,0.084 0.172,0.158 0.331,0.221 0.022,0.021 0.054,0.054 0.097,0.096 0.07,0.019 0.136,0.056 0.2,0.109 0.063,0.022 0.222,0.083 0.476,0.184 0.186,0.074 0.291,0.114 0.315,0.118 l 0.551,0.097 0.482,-0.04 0.335,0.059 c 0.006,0 0.015,0.011 0.03,0.031 0.015,0.02 0.025,0.03 0.03,0.032 0.224,0 0.348,0.003 0.373,0.007 0.014,-0.018 0.037,-0.046 0.069,-0.082 l 0.102,0.039 c 0.036,-0.014 0.085,-0.04 0.144,-0.075 l 0.113,0.047 0.42,-0.089 C -1.449,0.959 -1.458,0.94 -1.473,0.913 c 0.042,-0.049 0.098,-0.067 0.166,-0.055 0.04,0.007 0.083,0.02 0.127,0.038 L -0.89,0.731 C -0.948,0.756 -0.977,0.771 -0.977,0.774 -0.994,0.771 -1.007,0.749 -1.016,0.709 L -0.323,0.28 c 0.003,0 0.006,0.001 0.009,0.001 0.006,10e-4 0.011,0.007 0.017,0.019 L -0.784,0.677 C -0.457,0.538 -0.16,0.324 0.108,0.035 0.19,-0.052 0.371,-0.307 0.65,-0.731 c 0.017,-0.046 0.04,-0.12 0.068,-0.22 0.08,-0.101 0.133,-0.227 0.159,-0.376 0.035,-0.057 0.064,-0.148 0.087,-0.274 0.056,-0.067 0.09,-0.129 0.099,-0.187 l 0.102,-0.576 z"
               id="path210"
               style="fill:#17b19b;fill-opacity:1;fill-rule:nonzero;stroke:none" /></g><g
             transform="translate(505.9099,270.9005)"
             id="g212"><path
               d="m 0,0 c -0.014,-0.003 -0.048,-0.028 -0.1,-0.075 0.006,-0.034 0.006,-0.061 0.001,-0.079 l 0.1,-0.088 c -0.115,-0.065 -0.232,-0.144 -0.35,-0.235 l -0.795,0.07 c -0.131,-0.033 -0.305,-0.095 -0.521,-0.187 -0.241,-0.158 -0.47,-0.294 -0.685,-0.409 -0.39,-0.286 -0.742,-0.562 -1.057,-0.828 -0.415,-0.346 -0.635,-0.802 -0.659,-1.367 0.004,-0.02 0.042,-0.154 0.113,-0.4 l 0.03,-0.168 c -0.016,-0.066 -0.027,-0.121 -0.03,-0.163 -0.003,-0.018 -0.002,-0.035 0,-0.053 0.008,-0.044 0.033,-0.077 0.072,-0.097 L -4.23,-4.477 -4.313,-4.492 c -0.061,0.032 -0.147,0.088 -0.257,0.17 l -0.106,-0.039 c -0.046,0.057 -0.11,0.137 -0.189,0.239 -0.043,0.084 -0.085,0.157 -0.128,0.22 l -0.106,0.317 -0.078,0.444 c -0.001,0.003 0,0.022 0,0.057 10e-4,0.035 10e-4,0.057 0,0.064 l -0.084,0.473 c -0.024,0.14 -0.025,0.383 -0.002,0.731 0.025,0.442 0.099,0.674 0.221,0.696 l 0.123,0.021 0.17,-0.133 0.062,0.011 c 0.07,0.013 0.292,0.229 0.663,0.648 0.271,0.213 0.681,0.539 1.228,0.978 0.022,0.005 0.148,0.098 0.379,0.283 0.062,0.014 0.183,0.066 0.364,0.154 l 0.284,0.128 0.412,0.073 c 0.288,0.051 0.666,-0.13 1.134,-0.541 0.017,-0.018 0.034,-0.057 0.05,-0.117 0.084,-0.083 0.134,-0.166 0.149,-0.248 L 0,0 z"
               id="path214"
               style="fill:#17b19b;fill-opacity:1;fill-rule:nonzero;stroke:none" /></g><g
             transform="translate(513.2128,272.3299)"
             id="g216"><path
               d="m 0,0 -0.138,-0.024 c -0.014,-0.052 -0.017,-0.095 -0.011,-0.129 0.002,-0.01 0.005,-0.019 0.009,-0.029 -0.047,-0.054 -0.084,-0.084 -0.114,-0.089 -0.11,-0.208 -0.179,-0.315 -0.209,-0.32 L -0.814,-0.654 -1.161,-0.83 c -0.037,0.007 -0.079,0.007 -0.126,-0.001 l -0.5,-0.215 c -0.002,0 -0.022,0 -0.057,0.001 -0.035,10e-4 -0.059,0 -0.073,-0.002 -0.041,-0.008 -0.145,-0.044 -0.314,-0.108 -0.105,-0.036 -0.264,-0.096 -0.477,-0.179 -0.097,-0.038 -0.218,-0.131 -0.362,-0.279 0.038,-0.964 0.064,-1.487 0.079,-1.569 l 0.07,-0.397 c 0.003,-0.021 0.003,-0.143 -0.003,-0.368 -0.003,-0.232 -10e-4,-0.372 0.007,-0.42 -0.094,-0.072 -0.233,-0.19 -0.417,-0.352 -0.007,0.006 -0.064,0.04 -0.174,0.101 -0.106,0.062 -0.169,0.091 -0.187,0.088 -0.144,0.181 -0.256,0.412 -0.332,0.693 -0.022,0.07 -0.079,0.292 -0.173,0.668 l -0.063,0.835 -0.055,0.311 -0.037,0.041 -0.09,-0.016 -0.915,-0.413 c -0.006,-10e-4 -0.011,-0.002 -0.016,-0.003 -0.027,-0.005 -0.057,0.002 -0.088,0.021 l -0.729,-0.323 c -0.05,0.03 -0.141,0.072 -0.27,0.126 -0.067,0.027 -0.134,0.097 -0.202,0.211 -0.038,0.06 -0.087,0.137 -0.146,0.232 -0.078,0.288 -0.12,0.431 -0.126,0.43 l 0.001,-0.006 c -0.018,0.103 -0.005,0.22 0.039,0.355 0.039,0.122 0.088,0.189 0.145,0.198 0.002,10e-4 0.007,0.002 0.012,0.003 l 1.466,0.39 0.924,0.457 c -0.042,0.623 -0.1,1.555 -0.173,2.797 0.038,0.514 0.08,0.946 0.125,1.294 0.079,0.171 0.168,0.312 0.267,0.42 0.037,-0.008 0.216,-0.1 0.536,-0.279 0.12,-0.375 0.181,-0.562 0.183,-0.561 l 0.135,-2.815 0.07,-0.397 0.575,0.102 0.004,0 c 0.011,-0.001 0.028,0.016 0.05,0.051 l 0.118,0.021 c 0.008,0.001 0.033,0.002 0.074,0.002 0.04,0 0.066,0.001 0.077,0.003 0.006,0.001 0.048,0.021 0.128,0.059 0.08,0.039 0.125,0.059 0.132,0.061 0.03,0.005 0.075,-0.004 0.136,-0.029 0.078,0.049 0.278,0.102 0.602,0.159 10e-4,-0.004 0.204,-0.008 0.608,-0.014 0.11,-0.05 0.256,-0.102 0.435,-0.154 0.002,-0.01 0.004,-0.021 0.006,-0.031 0.008,-0.044 0.004,-0.082 -0.01,-0.112 0.03,-0.09 0.083,-0.167 0.16,-0.235 0.007,0.002 0.014,0.003 0.02,0.004 C -0.058,0.035 -0.027,0.027 0,0"
               id="path218"
               style="fill:#17b19b;fill-opacity:1;fill-rule:nonzero;stroke:none" /></g><g
             transform="translate(441.6317,277.9431)"
             id="g220"><path
               d="M 0,0 0.628,-4.884 0.873,-6.06 C 0.844,-6.161 0.838,-6.255 0.853,-6.341 l 0.121,-0.685 0.099,-1.135 0.118,-0.668 0.397,-2.395 c 0.005,-0.027 0.046,-0.084 0.125,-0.171 -0.025,-0.004 -0.064,-0.056 -0.118,-0.155 l -0.085,-0.015 -0.113,0.031 c -0.122,-0.168 -0.173,-0.306 -0.154,-0.415 0.003,-0.016 0.007,-0.029 0.013,-0.039 -0.148,-0.116 -0.293,-0.187 -0.436,-0.212 -0.097,-0.017 -0.178,-0.003 -0.24,0.042 -0.139,0.094 -0.38,0.258 -0.725,0.494 l -0.409,1.358 -1.284,9.856 c -0.011,0.255 -0.03,0.539 -0.055,0.848 -0.006,0.105 -0.012,0.239 -0.02,0.4 0.012,0.053 0.055,0.355 0.13,0.906 0.055,0.408 0.167,0.655 0.337,0.74 0.056,-0.007 0.135,-0.032 0.24,-0.075 0.316,-0.314 0.482,-0.484 0.5,-0.509 0.18,-0.187 0.321,-0.403 0.423,-0.648 L 0,0 z"
               id="path222"
               style="fill:#244ba6;fill-opacity:1;fill-rule:nonzero;stroke:none" /></g><g
             transform="translate(452.0433,271.5805)"
             id="g224"><path
               d="M 0,0 0.399,-3.336 C 0.52,-3.662 0.614,-4.021 0.684,-4.412 0.71,-4.682 0.723,-4.826 0.721,-4.843 0.613,-4.873 0.551,-4.971 0.534,-5.137 l -0.257,-0.188 -0.574,0.32 c -0.405,0.438 -0.624,0.761 -0.656,0.969 -0.002,0.011 -0.003,0.019 -0.004,0.024 -0.16,0.19 -0.287,0.552 -0.381,1.085 -0.021,0.12 -0.042,0.248 -0.062,0.384 L -1.75,0.162 C -1.755,0.211 -1.761,0.258 -1.769,0.302 -1.873,0.894 -2.127,1.155 -2.531,1.084 -2.584,1.075 -2.655,1.037 -2.744,0.97 -3.66,0.725 -4.633,-0.585 -5.665,-2.958 -5.764,-3.139 -6.002,-3.388 -6.378,-3.706 -6.397,-3.743 -6.433,-3.8 -6.487,-3.877 l -0.112,0.098 C -6.644,-3.787 -6.686,-3.8 -6.725,-3.818 l -0.058,-0.027 c -0.022,0.052 -0.062,0.149 -0.12,0.29 -0.096,-0.051 -0.182,-0.114 -0.257,-0.188 -0.068,0.072 -0.145,0.14 -0.232,0.203 -0.318,0.807 -0.496,1.311 -0.531,1.512 l -0.291,1.647 c -0.02,0.114 -0.022,0.176 -0.007,0.184 0.004,0.001 0.009,-0.001 0.014,-0.005 L -8.67,3.172 c -0.028,0.185 -0.043,0.367 -0.046,0.546 -0.033,0.096 -0.057,0.184 -0.072,0.265 -0.023,0.136 -0.024,0.245 -10e-4,0.328 -0.029,0.074 -0.062,0.208 -0.096,0.403 -0.064,0.365 -0.198,1.622 -0.4,3.773 0.021,0.166 0.101,0.332 0.24,0.496 l 0.135,0.024 c 0.155,0.027 0.389,-0.122 0.703,-0.448 0.149,-0.153 0.281,-0.303 0.395,-0.451 0.231,-0.689 0.366,-1.146 0.407,-1.375 0.003,-0.022 0.007,-0.044 0.011,-0.066 l 0.259,-2.325 0.109,-0.62 0.071,-0.761 0.436,-2.471 0.062,-0.064 c 0.149,0.199 0.374,0.486 0.674,0.858 0.039,0.069 0.268,0.423 0.69,1.064 0.167,0.124 0.36,0.296 0.577,0.513 0.508,0.505 1.017,0.802 1.527,0.892 0.255,-0.062 0.395,-0.093 0.42,-0.094 0.496,0.003 1.133,-0.56 1.913,-1.69 C -0.342,1.38 -0.137,0.811 -0.04,0.262 -0.023,0.164 -0.009,0.077 0,0"
               id="path226"
               style="fill:#244ba6;fill-opacity:1;fill-rule:nonzero;stroke:none" /></g><g
             transform="translate(460.6548,275.1421)"
             id="g228"><path
               d="m 0,0 c -0.02,-0.004 -0.07,-0.043 -0.149,-0.119 0.009,-0.054 0.01,-0.096 0.003,-0.125 L 0.005,-0.386 C -0.166,-0.489 -0.34,-0.612 -0.517,-0.755 l -1.195,0.125 c -0.197,-0.052 -0.457,-0.147 -0.781,-0.289 -0.36,-0.249 -0.7,-0.463 -1.022,-0.642 -0.581,-0.45 -1.105,-0.885 -1.574,-1.304 -0.618,-0.546 -0.941,-1.271 -0.967,-2.172 0.006,-0.032 0.065,-0.246 0.177,-0.641 l 0.047,-0.27 c -0.023,-0.105 -0.038,-0.191 -0.043,-0.259 -0.003,-0.029 -0.002,-0.057 0.003,-0.084 0.012,-0.071 0.049,-0.123 0.109,-0.157 l -0.519,-0.63 -0.123,-0.021 c -0.093,0.05 -0.222,0.142 -0.389,0.276 l -0.159,-0.062 c -0.071,0.094 -0.168,0.222 -0.289,0.386 -0.066,0.134 -0.131,0.251 -0.195,0.353 l -0.165,0.508 -0.125,0.71 c -10e-4,0.005 -10e-4,0.037 -10e-4,0.093 10e-4,0.055 0,0.089 -0.002,0.1 l -0.133,0.758 c -0.04,0.224 -0.045,0.612 -0.017,1.166 0.031,0.707 0.139,1.076 0.322,1.108 l 0.184,0.033 0.258,-0.216 0.092,0.017 c 0.106,0.018 0.435,0.36 0.986,1.023 0.404,0.335 1.013,0.848 1.828,1.542 0.033,0.005 0.222,0.154 0.565,0.444 0.093,0.022 0.275,0.102 0.545,0.239 l 0.425,0.201 0.618,0.109 c 0.432,0.076 1.003,-0.218 1.713,-0.883 0.026,-0.03 0.052,-0.092 0.077,-0.189 0.129,-0.134 0.205,-0.266 0.228,-0.397 L 0,0 z"
               id="path230"
               style="fill:#244ba6;fill-opacity:1;fill-rule:nonzero;stroke:none" /></g><g
             transform="translate(478.2491,275.6546)"
             id="g232"><path
               d="m 0,0 c -0.035,-0.062 -0.07,-0.156 -0.108,-0.28 l 0.107,-0.107 0.05,-0.278 c -0.058,-0.01 -0.094,-0.055 -0.109,-0.136 -0.116,-0.127 -0.277,-0.301 -0.481,-0.522 -0.185,-0.078 -0.407,-0.19 -0.667,-0.336 -0.271,-0.155 -0.42,-0.237 -0.448,-0.247 L -2.054,-1.977 -4.525,-3.06 c -0.02,0.025 -0.058,0.032 -0.11,0.023 l -2.403,-1.181 c 0.003,-0.021 0.016,-0.045 0.037,-0.069 0.017,0.003 0.03,0.005 0.043,0.008 0.068,0.017 0.134,0.003 0.196,-0.042 l -0.581,-0.102 -0.18,-0.158 c -0.004,0.022 -0.014,0.037 -0.033,0.045 l -0.007,0.007 c -0.017,-0.003 -0.03,-0.025 -0.04,-0.066 l -1.978,-0.87 -0.441,0.031 c -0.169,0.032 -0.291,0.106 -0.367,0.221 l -0.22,-0.038 -0.008,0.049 c -0.203,0.127 -0.329,0.337 -0.377,0.631 -0.055,0.103 -0.107,0.287 -0.154,0.554 l -0.352,4.36 -0.088,0.498 -0.259,3.15 -0.092,0.521 c -0.025,0.332 -0.046,0.559 -0.063,0.679 -0.005,0.027 -0.011,0.049 -0.017,0.064 -0.066,0.538 -0.139,1.299 -0.22,2.282 -0.013,0.217 -0.042,0.688 -0.086,1.415 0.085,0.211 0.216,0.509 0.391,0.893 0.179,0.11 0.267,0.17 0.265,0.181 0.106,0.019 0.211,-0.013 0.314,-0.096 0.166,-0.133 0.269,-0.208 0.31,-0.223 0.03,-0.073 0.134,-0.128 0.211,-0.22 0.376,-0.451 0.309,-0.507 0.415,-0.754 l 0.351,-3.1 0.135,-0.767 0.725,-6.902 0.307,0.012 c 0.127,0.067 0.309,0.128 0.549,0.181 l 5.887,2.266 1.362,0.223 C -0.903,0.653 -0.615,0.595 -0.24,0.471 -0.242,0.482 -0.245,0.487 -0.249,0.485 -0.26,0.472 -0.27,0.426 -0.282,0.346 -0.248,0.301 -0.207,0.283 -0.158,0.292 -0.146,0.294 -0.134,0.296 -0.121,0.298 -0.11,0.278 -0.068,0.178 0,0"
               id="path234"
               style="fill:#244ba6;fill-opacity:1;fill-rule:nonzero;stroke:none" /></g><g
             transform="translate(483.0357,277.3394)"
             id="g236"><path
               d="M 0,0 -0.312,-0.055 C -0.43,-0.076 -0.669,-0.227 -1.027,-0.509 l -0.62,-0.488 C -1.873,-1.244 -2.1,-1.584 -2.331,-2.017 l -0.007,-0.102 0.369,0.014 c 0.79,0.437 1.37,1.021 1.741,1.754 C -0.209,-0.314 -0.134,-0.198 0,0 M 3.454,-1.956 C 3.376,-2.154 3.268,-2.426 3.131,-2.77 L 2.908,-2.759 C 2.903,-2.821 2.882,-2.898 2.848,-2.988 2.785,-2.965 2.689,-2.914 2.562,-2.837 2.555,-2.843 2.545,-2.848 2.533,-2.85 2.415,-2.87 2.157,-2.731 1.76,-2.431 1.649,-2.232 1.4,-1.892 1.012,-1.411 l -1.33,-1.899 c 0.002,-0.012 0.016,-0.033 0.043,-0.065 0.027,-0.031 0.041,-0.053 0.042,-0.063 -0.022,-0.088 -0.173,-0.269 -0.452,-0.543 -0.829,-0.521 -1.242,-0.788 -1.24,-0.799 -0.629,-0.11 -1.189,0.13 -1.679,0.722 -0.292,0.604 -0.463,1.048 -0.513,1.331 -0.033,0.19 0.028,0.809 0.183,1.857 0.214,0.463 0.383,0.712 0.513,0.746 0.034,0.068 0.286,0.406 0.753,1.016 0.236,0.188 0.614,0.5 1.134,0.94 0.551,0.287 0.825,0.44 0.822,0.455 L -0.718,2.286 c 0.048,0.009 0.153,0.016 0.311,0.022 0.142,0.008 0.249,0.019 0.322,0.031 0.037,0.007 0.063,0.014 0.079,0.023 C 0.264,2.258 0.415,2.119 0.445,1.945 0.449,1.923 0.449,1.898 0.446,1.87 0.508,1.825 0.651,1.614 0.873,1.239 0.908,1.256 0.947,1.269 0.993,1.276 1.168,1.307 1.358,1.238 1.565,1.066 1.937,0.532 2.267,0.055 2.556,-0.365 2.962,-0.972 3.261,-1.502 3.454,-1.956"
               id="path238"
               style="fill:#244ba6;fill-opacity:1;fill-rule:nonzero;stroke:none" /></g><g
             transform="translate(493.3966,280.0663)"
             id="g240"><path
               d="M 0,0 -0.023,0.13 C -0.14,0.267 -0.305,0.397 -0.521,0.521 -1.003,0.678 -1.538,0.723 -2.128,0.659 -2.225,0.681 -2.284,0.69 -2.303,0.686 l -0.007,0 -1.228,-0.293 C -3.739,0.341 -4.1,0.132 -4.62,-0.235 l 0.048,-0.269 c 0.002,-0.011 0.019,-0.05 0.051,-0.117 0.034,-0.067 0.051,-0.106 0.053,-0.117 l 0.156,-0.889 0.625,-2.143 c 0.012,0.024 0.033,0.039 0.061,0.044 10e-4,0.045 0.013,0.103 0.039,0.175 0.285,0.314 0.764,0.721 1.437,1.221 0.65,0.485 1.051,0.835 1.202,1.053 C -0.804,-1.213 -0.488,-0.787 0,0 M 2.042,0.36 C 2.059,0.267 1.993,-0.182 1.844,-0.987 1.741,-1.111 1.683,-1.276 1.673,-1.479 1.289,-2.164 0.788,-2.799 0.167,-3.385 0.06,-3.488 -0.474,-3.944 -1.433,-4.752 -1.575,-4.805 -1.79,-4.921 -2.078,-5.101 c -0.287,-0.18 -0.435,-0.27 -0.444,-0.272 -0.008,-10e-4 -0.05,-0.003 -0.128,-0.005 -0.078,-0.003 -0.124,-0.006 -0.141,-0.008 -0.152,0.146 -0.287,0.209 -0.405,0.189 -0.029,-0.005 -0.056,-0.01 -0.079,-0.014 -0.033,0.067 -0.102,0.158 -0.206,0.275 C -3.513,-5.088 -3.554,-5.269 -3.6,-5.479 -3.659,-5.528 -3.727,-5.56 -3.804,-5.573 -3.825,-5.577 -3.846,-5.578 -3.867,-5.576 L -3.966,-5.77 -4.063,-5.787 c -0.025,-0.005 -0.153,0.048 -0.387,0.158 -0.105,-0.052 -0.165,-0.079 -0.181,-0.082 -0.255,0.202 -0.396,0.381 -0.424,0.539 -0.127,0.151 -0.233,0.382 -0.318,0.692 -0.096,0.141 -0.168,0.294 -0.219,0.458 -0.023,0.086 -0.069,0.243 -0.14,0.471 -0.069,0.229 -0.114,0.35 -0.133,0.364 l 0.007,-0.041 -0.153,0.873 c -0.086,0.27 -0.138,0.458 -0.157,0.561 -0.004,0.027 -0.006,0.049 -0.005,0.066 -0.025,0.069 -0.044,0.144 -0.059,0.225 -0.017,0.103 -0.026,0.206 -0.023,0.307 -0.062,0.096 -0.217,0.186 -0.463,0.272 -0.193,0.213 -0.316,0.468 -0.369,0.767 -0.035,0.201 -0.015,0.446 0.06,0.734 0.069,0.281 0.162,0.488 0.282,0.621 l -0.693,4.175 c -0.036,0.28 -0.109,0.864 -0.22,1.753 -0.063,0.499 -0.04,0.948 0.071,1.349 0.019,0.037 0.056,0.108 0.113,0.214 0.142,0.126 0.236,0.192 0.281,0.2 0.016,0.003 0.062,-0.002 0.138,-0.017 0.077,-0.015 0.116,-0.022 0.12,-0.021 0.079,-0.138 0.219,-0.332 0.419,-0.582 0.093,-0.197 0.204,-0.455 0.332,-0.774 0,-0.028 0.003,-0.058 0.009,-0.091 0.017,-0.092 0.044,-0.208 0.081,-0.347 0.039,-0.156 0.09,-0.357 0.15,-0.605 l 0.823,-3.95 c 0.013,-0.031 0.041,-0.054 0.082,-0.069 0.025,0.021 0.169,0.069 0.428,0.142 l 1.253,0.373 1.247,0.186 c 0.045,0.008 0.216,0.021 0.511,0.04 0.358,-0.027 0.664,-0.06 0.919,-0.099 C -0.622,3.052 -0.528,3.007 -0.399,2.94 -0.038,2.897 0.363,2.673 0.804,2.269 1.2,1.902 1.482,1.534 1.648,1.165 1.893,0.608 2.025,0.332 2.041,0.334 2.045,0.335 2.045,0.344 2.042,0.36"
               id="path242"
               style="fill:#244ba6;fill-opacity:1;fill-rule:nonzero;stroke:none" /></g><g
             transform="translate(502.246,281.0208)"
             id="g244"><path
               d="M 0,0 -0.037,0.212 C -0.489,0.867 -0.853,1.17 -1.13,1.121 -1.143,1.119 -1.158,1.109 -1.173,1.092 -1.188,1.076 -1.201,1.067 -1.209,1.065 L -1.283,1.052 C -1.385,1.202 -1.585,1.251 -1.882,1.199 -1.915,1.193 -1.949,1.187 -1.986,1.18 L -2.653,1.029 -4.09,0.381 -4.133,0.23 -4.082,-0.064 c 0.011,-0.06 0.044,-0.14 0.1,-0.243 -0.006,-0.034 -0.036,-0.099 -0.092,-0.193 0.057,-0.107 0.091,-0.168 0.102,-0.184 -0.063,-0.095 -0.117,-0.16 -0.161,-0.196 -0.005,-0.001 -0.038,-0.147 -0.1,-0.438 -0.069,-0.298 -0.097,-0.482 -0.084,-0.553 0.007,-0.016 0.027,-0.074 0.062,-0.174 0.156,-0.169 0.392,-0.308 0.708,-0.418 0.315,-0.11 0.58,-0.146 0.797,-0.107 0.46,0.204 0.732,0.314 0.819,0.329 l 0.898,0.697 c 0.437,0.34 0.719,0.631 0.849,0.872 C -0.03,-0.398 0.031,-0.174 0,0 M 1.508,-0.289 C 1.58,-0.697 1.549,-1.064 1.412,-1.391 1.413,-1.441 1.408,-1.554 1.397,-1.73 1.29,-2.006 1.132,-2.399 0.923,-2.907 0.54,-3.378 0.179,-3.814 -0.158,-4.216 -1.013,-4.803 -1.683,-5.14 -2.169,-5.226 l -0.409,-0.072 c -0.045,-0.008 -0.1,0.008 -0.166,0.046 -0.008,-0.001 -0.015,-0.002 -0.019,-0.003 -0.11,-0.019 -0.456,0.026 -1.039,0.136 -0.26,0.14 -0.635,0.407 -1.125,0.803 -0.085,0.148 -0.225,0.366 -0.419,0.657 -0.248,0.624 -0.404,1.112 -0.466,1.465 l -0.08,0.777 -0.213,1.207 c 0.005,0.046 0.014,0.226 0.03,0.543 0.017,0.334 0.026,0.574 0.025,0.72 0.031,0.302 0.278,0.733 0.743,1.291 0.084,0.054 0.218,0.134 0.406,0.24 0.046,0.047 0.105,0.108 0.176,0.182 0.02,-0.019 0.046,-0.026 0.079,-0.02 l 0.329,0.21 c 0.214,0.144 0.408,0.231 0.584,0.262 l 1.181,0.209 c 0.13,0.023 0.286,0.008 0.467,-0.044 0.008,10e-4 0.017,0.003 0.025,0.004 0.29,0.051 0.913,-0.203 1.87,-0.763 L -0.163,2.46 C 0.007,2.311 0.222,2.167 0.481,2.027 0.586,1.917 0.837,1.501 1.237,0.782 1.358,0.405 1.449,0.048 1.508,-0.289"
               id="path246"
               style="fill:#244ba6;fill-opacity:1;fill-rule:nonzero;stroke:none" /></g><g
             transform="translate(512.3834,284.2634)"
             id="g248"><path
               d="m 0,0 c -0.02,-0.004 -0.069,-0.043 -0.149,-0.119 0.009,-0.054 0.01,-0.096 0.003,-0.126 l 0.151,-0.141 c -0.17,-0.103 -0.345,-0.226 -0.522,-0.369 l -1.194,0.125 c -0.197,-0.051 -0.458,-0.148 -0.782,-0.289 -0.36,-0.248 -0.7,-0.463 -1.021,-0.643 -0.581,-0.45 -1.106,-0.884 -1.575,-1.303 -0.618,-0.547 -0.94,-1.271 -0.967,-2.172 0.007,-0.032 0.065,-0.247 0.177,-0.641 l 0.047,-0.27 c -0.023,-0.105 -0.037,-0.191 -0.043,-0.259 -0.003,-0.03 -0.002,-0.057 0.003,-0.084 0.013,-0.071 0.049,-0.123 0.109,-0.158 L -6.282,-7.078 -6.405,-7.1 c -0.093,0.051 -0.222,0.143 -0.389,0.276 l -0.159,-0.061 c -0.071,0.094 -0.168,0.222 -0.289,0.386 -0.065,0.134 -0.13,0.251 -0.194,0.353 l -0.166,0.508 -0.124,0.71 c -0.001,0.005 -0.002,0.037 -0.001,0.092 0.001,0.056 0,0.09 -0.003,0.101 l -0.133,0.758 c -0.039,0.223 -0.045,0.612 -0.017,1.166 0.031,0.707 0.139,1.076 0.322,1.108 l 0.184,0.032 0.258,-0.215 0.092,0.017 c 0.106,0.018 0.435,0.36 0.987,1.023 0.403,0.335 1.013,0.848 1.828,1.542 0.032,0.005 0.221,0.153 0.565,0.444 0.092,0.022 0.275,0.102 0.544,0.239 l 0.425,0.201 0.618,0.109 C -1.625,1.765 -1.054,1.471 -0.343,0.805 -0.318,0.776 -0.292,0.714 -0.266,0.617 -0.138,0.483 -0.061,0.351 -0.038,0.22 L 0,0 z"
               id="path250"
               style="fill:#244ba6;fill-opacity:1;fill-rule:nonzero;stroke:none" /></g></g></g></g></g></svg>