<?xml version="1.0" encoding="utf-8"?>
<!DOCTYPE svg PUBLIC "-//W3C//DTD SVG 1.1//EN" "http://www.w3.org/Graphics/SVG/1.1/DTD/svg11.dtd" [
<!ENTITY ns_svg "http://www.w3.org/2000/svg">
<!ENTITY ns_xlink "http://www.w3.org/1999/xlink">
]>
<svg  version="1.1" id="Layer_1" xmlns="&ns_svg;" xmlns:xlink="&ns_xlink;" width="356.749" height="52.348"
viewBox="0 0 356.749 52.348" overflow="visible" enable-background="new 0 0 356.749 52.348" xml:space="preserve">
<g>
<path fill-rule="evenodd" clip-rule="evenodd" d="M47.644,11.047c4.173,5.35,6.099,14.551,3.851,22.36
c-2.781,9.31-10.27,16.584-20.113,18.512l-4.601,0.429c-7.063,0-12.734-2.142-17.12-5.993c-4.172-3.316-7.276-7.81-8.667-13.054
c-3.208-11.769,1.712-22.361,9.63-28.247c5.671-4.279,15.407-6.632,23.538-3.851C39.726,2.916,44.326,6.445,47.644,11.047
L47.644,11.047z"/>
<path fill-rule="evenodd" clip-rule="evenodd" fill="#FFFFFF" d="M33.734,2.594c0.642,0.321,1.07,0.964,1.07,1.927
c-0.213,1.177-0.855,1.924-1.284,2.888l-2.888,5.136c-1.07,1.817-1.927,3.745-3.104,5.456c-0.213,0.107-0.534,0-0.534-0.107
l-1.711-2.568l-6.527-9.415c-0.535-0.644-0.749-1.285-0.535-2.354c0.535-1.711,2.889-1.606,4.601-1.926
C26.566,1.097,30.631,1.417,33.734,2.594L33.734,2.594z"/>
<path fill-rule="evenodd" clip-rule="evenodd" fill="#FFFFFF" d="M11.479,7.73c0.535,0.748,0.213,1.926,0.321,2.888v12.624
c-0.107,0.965-0.535,1.928-1.391,2.035l-5.029,0.106c-1.284-0.106-3.102,0.32-3.958-0.427c0.535-6.421,2.675-11.664,6.633-15.729
C9.02,8.692,9.875,6.339,11.479,7.73L11.479,7.73z"/>
<path fill-rule="evenodd" clip-rule="evenodd" fill="#FFFFFF" d="M44.541,9.549c3.852,4.064,5.992,9.201,6.527,15.621l-0.322,0.428
l-5.029,0.106h-1.283v-0.106c-0.963-0.214-2.568,0.321-3.103-0.643c-0.536-0.642-0.749-1.283-0.643-2.354v-5.883
c0.107,0-0.106-0.535,0.107-0.75c-0.321-0.749,0-1.391,0-2.246V8.585c0-0.534,0.429-0.855,0.749-1.176
C43.15,7.302,43.685,8.8,44.541,9.549L44.541,9.549z"/>
<path fill-rule="evenodd" clip-rule="evenodd" fill="#FFFFFF" d="M18.221,13.508l1.604,2.247l6.206,9.2
c0.107,0.964-1.498,0.322-2.247,0.535h-6.847c-0.215,0-0.642,0-0.856,0c-1.069-0.106-1.605-0.642-2.033-1.497l-0.107-1.926
l0.107-4.708V8.371c0-0.32,0.535-0.213,0.535-0.106L18.221,13.508L18.221,13.508z"/>
<path fill-rule="evenodd" clip-rule="evenodd" fill="#FFFFFF" d="M35.981,10.084c-0.213,0.963,0.215,2.46,0,3.745v9.949
c-0.321,0.856-0.749,1.605-1.712,1.819h-5.777c-0.428-0.106-1.391-0.107-2.033-0.214c-0.105-0.32,0-0.749,0.214-1.07l5.67-10.378
l0.215-0.213l2.887-5.351C36.196,8.479,35.767,9.549,35.981,10.084L35.981,10.084z"/>
<path fill-rule="evenodd" clip-rule="evenodd" d="M236.167,15.219c0.106,1.713,0.214,3.961-0.108,5.671
c-2.354-1.177-5.671-2.674-8.772-1.283c-0.644,0.32-0.964,0.962-0.964,1.712c0.106,1.178,0.964,1.817,1.819,2.247
c4.065,1.069,8.561,2.247,9.521,6.634c0.321,0.963,0.107,2.248,0.107,3.208c-0.429,3.211-2.246,5.673-5.135,6.636
c-4.067,1.39-9.63,0.533-12.626-1.605v-6.205c0.429-0.429,0.428,0.215,0.749,0.215c2.032,1.71,5.135,3.53,8.451,2.139
c0.535-0.429,1.07-0.856,1.07-1.819c0.214-0.748-0.213-1.283-0.642-1.712c-1.711-1.499-4.709-1.07-6.419-2.354
c-2.567-1.284-3.959-3.959-3.959-7.168c0.107-2.14,0.536-3.852,1.498-5.35c0.963-1.176,2.247-1.819,3.531-2.353
C228.356,12.651,232.958,13.722,236.167,15.219L236.167,15.219z"/>
<path fill-rule="evenodd" clip-rule="evenodd" d="M87.979,13.4c0.428,0.322,0.535,0.964,0.75,1.284l0.962,2.568l4.173,10.591
l1.071,2.57c0.106,0.106,0.322,0.106,0.428,0l2.354-5.458l1.391-3.423l3.211-8.024l2.245-0.107h6.313l0.215,0.107v5.136
l-0.107,1.069v4.709h-0.106c0.106,0.962,0.106,2.245,0.106,3.208l-0.108,5.031l0.001,6.954l-2.142,0.106h-4.387
c0-1.391,0.107-2.783,0-4.066v-5.027v-4.924c-0.107-0.214,0-0.534-0.32-0.533l-0.214-0.001l-4.494,10.485
c-0.642,1.283-1.071,2.676-1.605,3.957c-1.712,0.109-3.423,0.107-5.136,0.109L86.482,25.17c-0.107-0.215-0.428-0.429-0.428-0.106
l-0.107,9.629c0,1.282,0.107,3.104-0.107,4.388v0.642c-2.353-0.109-4.386,0.107-6.526-0.215V29.342
c0.322-0.106-0.213-0.32,0.107-0.427l-0.107-2.354l0.107-9.737c0-1.176-0.107-2.353,0.107-3.424H87.979L87.979,13.4z"/>
<path fill-rule="evenodd" clip-rule="evenodd" d="M125.75,13.508c1.498,0,2.995,0,4.493,0l0.963,2.675l2.997,7.918l2.245,6.099
l0.322,0.855l1.711,4.601c0.642,1.283,0.855,2.676,1.499,4.066h-0.215h-6.847c-0.537-1.284-0.964-2.676-1.605-3.958l-0.214-0.215
h-9.523c-0.962,1.176-1.177,2.782-1.819,4.171l-6.955,0.002c-0.107-0.75,0.429-1.07,0.536-1.713l2.247-6.205l0.429-1.069
l1.604-4.173l0.75-2.248l4.173-10.806c0.534,0.214,0.75-0.214,1.177,0C124.358,13.508,125.214,13.508,125.75,13.508L125.75,13.508z
"/>
<path fill-rule="evenodd" clip-rule="evenodd" d="M143.617,13.508c1.283,0.107,2.781,0,4.173,0l0.963,1.284l2.461,3.531
c2.567,3.422,5.136,7.062,7.597,10.484l0.428-0.106c0-1.07,0.215-2.033,0-2.994c0.215-3.21,0.107-6.421,0.107-9.417
c-0.107-0.428,0.107-1.283-0.107-1.819l0.107-0.855l2.14-0.107h4.493c0.106,0.428-0.106,1.284,0.106,1.711
c-0.106,3.423-0.106,7.061,0,10.7v13.803l-0.213,0.214h-6.634c-0.215-0.429-0.535-0.855-0.856-1.284l-3.102-4.28
c-2.141-2.888-4.174-5.778-6.206-8.559h-0.535l-0.108,13.909l-0.104,0.214h-6.42l-0.108-0.214V13.615
c0.428-0.107,1.177-0.001,1.499-0.107H143.617L143.617,13.508z"/>
<path fill-rule="evenodd" clip-rule="evenodd" d="M174.324,13.508c0.75-0.001,1.177,0.641,1.712,0.105l0.643,0.109l2.567,3.744
l3.104,4.28c1.71,2.461,3.423,4.708,5.026,7.061h0.535c0-0.535,0-1.283,0-1.71l0.108-4.923v-7.062
c0.214-0.428-0.105-1.069,0.214-1.499l5.992,0.001c0,0.321,0.643-0.107,0.534,0.321v1.177v5.243h-0.106l0.106,4.493
c0,1.713,0,4.066-0.106,5.671c0,0.749,0,1.284,0,2.247v5.671c0,0.32,0,1.069,0,1.605h-5.029c-0.641,0-1.391,0.107-1.926-0.107
l-2.46-3.532c-0.964-1.283-1.928-2.567-2.782-3.956l-4.814-6.528c-0.642-0.321-0.535,0.429-0.535,0.962v12.841
c-0.321,0.321-0.964,0.319-1.284,0.214c-1.392-0.214-2.674,0.105-4.386,0.107l-0.749-0.107l-0.108-2.14V20.035
c0-0.965,0-2.356,0-3.211c0.108-0.963,0.108-2.14,0.108-3.209C171.755,13.508,173.362,13.615,174.324,13.508L174.324,13.508z"/>
<path fill-rule="evenodd" clip-rule="evenodd" d="M210.059,13.829h5.993c0.215,0.106,0.105,0.855,0.106,1.069
c0.108,1.392,0.108,3.103,0,4.494h-9.736c-0.643,0.428-0.215,0.963-0.429,1.604c0.107,1.07-0.106,2.032,0.214,2.997l0.322,0.213
c1.177-0.106,2.245,0,3.315,0c0.429,0.106,1.071,0.106,1.499,0h4.601l0.214,0.106c0.213,1.605-0.214,3.21,0,4.922l-2.14,0.106
h-7.383c-0.214-0.32-0.429,0-0.643,0.107v4.495c0.107,0.748,1.393,0.213,1.927,0.427c0.641,0,1.176,0,1.818,0l6.206,0.108
c0.322,0.32,0.107,1.069,0.214,1.391c-0.214,1.389-0.001,2.888-0.106,4.173c-1.178,0.213-2.674,0.107-3.745,0.107l-5.027-0.107
h-7.063l-0.854-0.002v-5.135V30.52c0.213-0.535-0.214-1.178,0-1.819c-0.214-0.32,0.213-0.857,0-1.177
c-0.107-0.213,0.105-0.213,0-0.428c0.106-0.856,0-1.392,0-2.461c0-0.534,0-1.926,0-2.567c0-0.643,0-1.712,0-2.462v-5.776
l0.213-0.107h9.309L210.059,13.829L210.059,13.829z"/>
<path fill-rule="evenodd" clip-rule="evenodd" d="M250.181,13.936l2.462,5.885l2.782,7.276c0.643,1.283,0.855,2.888,1.819,3.958
c0.429-0.106,0.429-0.749,0.643-1.177c0.854-1.82,1.604-3.853,2.353-5.671l2.354-5.884c0.534-1.499,1.283-2.89,1.818-4.387h8.56
l0.106,0.107c0,1.498,0.108,3.102,0,4.493v6.206c-0.214,0.214,0.215,0.429-0.106,0.536l0.106,0.32l-0.106,4.387
c0.106,2.248-0.107,4.602,0,6.74c-0.107,0.643-0.107,1.606-0.107,2.355c0,0.214,0,0.749,0,1.176c-0.427,0-0.964,0-1.39,0h-5.029
l-0.106-1.176V25.813c0-0.215-0.32-0.216-0.32-0.108l-0.749,1.392l-4.389,10.271c-0.535,0.964-0.749,1.927-1.284,2.889h-4.813
c-0.216-0.213-0.323-0.641-0.43-0.962l-2.353-5.35c-1.072-2.89-2.248-5.673-3.531-8.561c-0.857-0.214-0.214,1.178-0.535,1.497
l0.106,0.108l-0.106,5.029c0.106,0.962-0.214,2.032,0,2.888l-0.107,5.137c-0.535,0.213-1.284,0.107-1.713,0.107l-0.321,0.105
l-4.386-0.107l-0.213-0.107c0.104-1.925-0.002-3.316,0.104-5.135V14.257h0.108l0.001-0.428h8.561L250.181,13.936L250.181,13.936z"
/>
<path fill-rule="evenodd" clip-rule="evenodd" d="M292.232,14.15l2.246,5.885c0.644,2.032,1.39,3.958,2.139,5.99l1.713,4.815
l2.567,6.955l0.855,2.46l-2.139,0.108h-4.707c-0.429-0.643-0.643-1.393-0.964-2.142l-0.749-2.032l-5.669-0.216l-3.958,0.003
l-0.429,0.321l-1.499,3.957c-2.355,0-4.174-0.105-6.633,0c-0.321-0.534,0.106-1.176,0.211-1.711
c1.179-2.675,2.035-5.564,3.212-8.239l2.139-5.884l1.927-4.924c0.644-1.819,1.39-3.743,2.139-5.563h6.957L292.232,14.15
L292.232,14.15z"/>
<path fill-rule="evenodd" clip-rule="evenodd" d="M310.527,15.219l9.737,13.696c0.214,0.214,0.32,0.427,0.643,0.427
c0.428-0.32,0.215-1.281,0.106-1.712c0.214-0.32,0.108-0.963,0.108-1.282l0.104-5.779l0.001-6.312c0.107,0,0.215-0.321,0.426-0.107
l1.179-0.107h4.494l0.427,0.214v26.107l-2.14,0.106h-4.6l-1.713-2.462l-2.674-3.638l-0.643-0.855l-5.242-7.276
c-0.215-0.106-0.322,0.106-0.429,0.322l-0.106,13.694l-0.214,0.215h-6.205l-0.214-0.215V15.646c0.214-0.427,0-1.177,0.214-1.604
h5.776L310.527,15.219L310.527,15.219z"/>
<path fill-rule="evenodd" clip-rule="evenodd" d="M338.559,14.257l0.321,0.32l7.169,10.271l3.425,4.601l0.535-0.107V15.541
l0.106-1.284c2.032-0.107,4.278,0,6.419,0l0.214,0.213v4.388c0,0.213-0.106,0.963,0,1.178v5.028v13.802v0.106l-0.106,1.713
c-0.643,0-1.177-0.108-1.712,0l-5.029-0.106c-1.604-2.033-2.889-4.175-4.492-6.207l-4.815-6.741l-0.857-1.176
c-0.32-0.108-0.535,0-0.535,0.213c-0.214,0.429,0,1.069-0.106,1.284l0.106,0.429l-0.106,4.921v7.063l-0.107,0.212l-6.419,0.002
l-0.106-2.141V32.98c0-0.427,0.106-1.391-0.107-1.926l0.107-1.07V14.47l0.214-0.32C334.6,14.15,336.848,14.043,338.559,14.257
L338.559,14.257z"/>
<path fill-rule="evenodd" clip-rule="evenodd" fill="#FFFFFF" d="M129.387,30.52l-0.107,0.429
c-1.926,0.106-3.852,0.106-5.778,0.106c-0.535-0.535,0.215-1.177,0.215-1.713c0.855-2.032,1.498-4.172,2.46-6.1h0.536
L129.387,30.52L129.387,30.52z"/>
<path fill-rule="evenodd" clip-rule="evenodd" fill="#FFFFFF" d="M288.807,24.422c0.75,2.245,1.71,4.385,2.463,6.847
c0,0.429-0.537,0.321-0.964,0.321c-0.964,0-2.675,0-3.638,0c-0.429-0.213-1.178,0.104-1.392-0.213l0.106-0.857l1.82-4.601
c0.321-0.749,0.641-1.497,0.961-2.247C288.703,23.458,288.703,23.991,288.807,24.422L288.807,24.422z"/>
<path fill-rule="evenodd" clip-rule="evenodd" fill="#FFFFFF" d="M6.129,27.843l2.354,3.747c1.176,2.14,2.247,4.28,3.638,6.206
c0.856,1.926,2.032,3.852,3.103,5.671l2.461,4.172c0.214,0.643,0.855,1.178,0.642,1.926c-3.103-0.854-5.67-2.461-8.024-4.278
c-0.321,0.104-0.214-0.321-0.321-0.429c-5.03-4.387-8.025-9.951-8.56-17.548c0-0.429,0.214-0.535,0.535-0.643
C3.669,26.562,5.167,26.774,6.129,27.843L6.129,27.843z"/>
<path fill-rule="evenodd" clip-rule="evenodd" fill="#FFFFFF" d="M23.249,26.774c0.856,0.106,1.819,0.106,2.675,0.108
c0.213,0.106,0.32,0.641,0.107,0.854l-4.172,9.096l-1.926,4.174c-0.214,0.104-0.535,0.104-0.642-0.106l-1.284-2.248l-2.247-3.746
c-1.069-1.818-1.926-3.743-3.103-5.563c-0.108-0.32-0.321-0.962-0.107-1.499c0.321-0.427,0.536-0.962,1.284-1.068H23.249
L23.249,26.774z"/>
<path fill-rule="evenodd" clip-rule="evenodd" fill="#FFFFFF" d="M33.841,26.881c1.498,0.108,3.637,0,5.243,0.108
c0.534,0.106,1.071,0.32,1.391,0.747c0.107,0.429,0.321,1.07,0.107,1.605l-2.032,4.388c-0.428,0.75-0.643,1.605-1.072,2.354
l-2.46,5.135c-0.535,0.32-0.642-0.534-0.963-0.748c-0.962-1.713-1.926-3.425-2.995-5.136l-2.568-4.28l-2.033-3.745
c-0.214-0.214,0.214-0.214,0.214-0.429H33.841L33.841,26.881z"/>
<path fill-rule="evenodd" clip-rule="evenodd" fill="#FFFFFF" d="M50.639,27.096l0.429,0.32c-0.32,6.313-2.675,11.129-6.099,15.193
c-0.321,0.107-0.214,0.322-0.535,0.536c-2.782,2.994-6.205,5.242-10.272,6.525c-0.107-0.214-0.535,0-0.535,0.32
c-4.386,1.179-10.805,1.499-14.871-0.32c-0.107-0.64,0.214-1.39,0.535-1.925c0.856-2.033,1.819-4.065,2.781-5.992l2.997-6.312
c0.642-0.214,0.856,0.856,1.176,1.282l1.926,3.318l4.173,6.74c0.428,0.749,0.962,1.713,1.391,2.462
c0.535-0.214,0.428-1.073,0.749-1.499l4.173-8.666c1.497-3.531,3.102-7.062,4.814-10.487
C44.434,26.239,48.072,27.096,50.639,27.096L50.639,27.096z"/>
</g>
</svg>
