<svg xmlns="http://www.w3.org/2000/svg" viewBox="0 0 382.68 340.16">
<g id="MAIN"><polygon style="fill:#cd1719;" points="49.61 288.36 61.23 294.8 61.23 247.39 49.61 240.95 49.61 288.36"/><rect style="fill:#cd1719;" x="67.94" y="265.76" width="16.16" height="9.46"/><path style="fill:#cd1719;" d="M108.83,244h-18V290.6h18c14.17,0,23.71-6.82,23.71-23.34S123,244,108.83,244Zm.26,36.7h-6.66V253.81H109c8.75,0,11.88,5.94,11.88,13.45S117.78,280.72,109.09,280.72Z"/><path style="fill:#cd1719;" d="M224.77,254.86c-10.57,0-17,7.05-17,19.33,0,9.79,6.27,17.23,17,17.23,7.7,0,13-3.21,16.55-9.62l-7.53-4.18c-2.25,3.59-4.14,6.36-8.3,6.36-3.26,0-7.51-2.09-7.57-8.75h23.9C241.75,264.52,237.44,254.86,224.77,254.86Zm-7,14.1a7,7,0,0,1,6.92-6.66c2.94,0,6.59,1.57,6.92,6.66Z"/><path style="fill:#cd1719;" d="M270.38,258.51a12.59,12.59,0,0,0-9.53-3.65c-7,0-15,4.7-14.76,18.54.2,12.6,6.86,18,15.22,18a11.57,11.57,0,0,0,9.33-4.3h.14v3.48h9.79V244H270.38ZM263.27,284c-5.62,0-7-5.16-7-10.84,0-6.66,2.15-10.84,7-10.84,5.29,0,7.11,3.92,7.11,10.12C270.38,279.08,268.56,284,263.27,284Z"/><rect style="fill:#cd1719;" x="287.3" y="255.81" width="10.19" height="34.78"/><rect style="fill:#cd1719;" x="287.3" y="244.02" width="10.19" height="7.84"/><path style="fill:#cd1719;" d="M317.59,254.86c-4.7,0-14,.91-14.3,10.9h9.8c.52-3.46,2.09-4.64,5.35-4.64,2.75,0,4.84,1.12,4.84,3.73v2.58s-9.42,1.76-11.74,2.47c-6.24,1.9-9.81,5.12-9.81,11.21,0,6.66,5,10.32,11.62,10.32,3.66,0,8.75-1.77,10.45-4.51h.13v3.68h9.14V264.91C333,257.08,327.06,254.86,317.59,254.86ZM323.28,276c0,5.29-3,8-7,8-2.48,0-4.77-1.17-4.77-3.92s2.35-3.79,4.9-4.5l6.86-2Z"/><polygon style="fill:#cd1719;" points="177.09 274.6 168.78 244.02 151.3 244.02 151.3 290.59 162.3 290.59 162.3 256.76 172.03 290.59 182.15 290.59 191.88 256.76 191.88 290.59 202.89 290.59 202.89 244.02 185.41 244.02 177.09 274.6"/><polygon style="fill:#cd1719;" points="134.65 193.47 168.76 212.38 168.76 75.6 134.65 56.69 134.65 193.47"/><path style="fill:#cd1719;" d="M180.73,56.69H142l30.35,16.83V193.46h8.42c41.59,0,69.57-19.78,69.57-68.38S222.32,56.69,180.73,56.69Z"/></g></svg>