<?xml version="1.0" encoding="UTF-8" standalone="no"?>
<!-- Created with Inkscape (http://www.inkscape.org/) by Marsupilami -->
<svg
   xmlns:svg="http://www.w3.org/2000/svg"
   xmlns="http://www.w3.org/2000/svg"
   version="1.0"
   width="1024"
   height="215"
   viewBox="0 0 177.16499 37.201244"
   id="svg2408">
  <defs
     id="defs2410" />
  <g
     transform="translate(582.86821,-70.904415)"
     id="layer1">
    <path
       d="M 118,0 C 123.33875,3.03875 126.9375,8.7950003 126.9375,15.375 C 126.9375,25.13 119.0375,33.031249 109.28125,33.03125 C 102.6225,33.03125 96.822498,29.346245 93.8125,23.90625 C 96.2625,31.617495 103.47875,37.1875 112,37.1875 C 122.53875,37.1875 131.06251,28.66125 131.0625,18.125 C 131.0625,9.685 125.59625,2.51625 118,0 z M 13.46875,0.96875 C 5.83875,0.96875 0.55500001,4.4799998 0.28125,10.09375 C 0.03625,15.13125 3.55125,17.88125 9.78125,20.25 C 12.76625,21.385 20.46875,23.17875 20.46875,27.375 C 20.46875,31.288745 16.7125,33.5 12.25,33.5 C 8.5,33.5 5.0637499,32.0525 2.15625,29.9375 L 0,33.125 C 3.3325,35.64875 8.23,37.187501 12.34375,37.1875 C 19.69375,37.1875 25.506251,33.121246 25.875,27.46875 C 26.3175,20.6925 20.6975,18.155 15.15625,16.25 C 8.765,14.0525 5.5312502,12.475 5.53125,9.8125 C 5.53125,6.93125 8.0262497,4.6562502 13.75,4.65625 C 16.90625,4.65625 20.16375,5.8924999 22.6875,7.65625 L 24.5,4.65625 C 21.41375,2.26875 17.35875,0.96874999 13.46875,0.96875 z M 46.3125,0.96875 C 34.503825,1.517009 27.999999,10.426797 28,18.96875 C 28,28.62375 34.377499,37.187501 46.875,37.1875 C 50.6775,37.1875 54.89125,36.035 58.0625,33.875 L 56.15625,31 C 53.505,32.80875 50.352501,33.593749 47.125,33.59375 C 39.6975,33.59375 33.749999,27.905 33.75,18.875 C 33.75,10.5 38.717501,4.5625001 47.125,4.5625 C 50.1075,4.5625 54.07875,5.60375 56.4375,7.53125 L 58.46875,4.65625 C 55.2525,2.26 51.616251,0.96874999 47.46875,0.96875 C 47.076797,0.96875 46.693425,0.95106422 46.3125,0.96875 z M 109.28125,0.96875 C 101.33625,0.96875 94.875002,7.4312503 94.875,15.375 C 94.875,21.90125 99.231254,27.397505 105.1875,29.15625 C 101.49,26.871255 99.031252,22.79125 99.03125,18.125 C 99.03125,10.96125 104.8375,5.1562499 112,5.15625 C 116.72375,5.15625 120.85625,7.6637505 123.125,11.4375 C 121.42125,5.39625 115.87125,0.96874998 109.28125,0.96875 z M 61.71875,1.5625 L 61.71875,36.59375 L 67.125,36.59375 L 67.125,19.25 L 84.125,19.25 L 84.125,36.59375 L 89.5,36.59375 L 89.5,1.5625 L 84.125,1.5625 L 84.125,15.65625 L 67.125,15.65625 L 67.125,1.5625 L 61.71875,1.5625 z M 130.09375,1.5625 L 130.09375,5.15625 L 138.5,5.15625 L 138.5,36.59375 L 143.90625,36.59375 L 143.90625,5.15625 L 152.375,5.15625 L 152.375,1.5625 L 130.09375,1.5625 z M 154.90625,1.5625 L 154.90625,5.15625 L 163.3125,5.15625 L 163.3125,36.59375 L 168.71875,36.59375 L 168.71875,5.15625 L 177.15625,5.15625 L 177.15625,1.5625 L 154.90625,1.5625 z "
       transform="translate(-582.86821,70.904415)"
       style="fill:#006db6;fill-opacity:1;fill-rule:nonzero;stroke:none"
       id="path24790" />
  </g>
</svg>
