<?xml version="1.0" encoding="UTF-8"?>
<!-- Generator: Adobe Illustrator 21.0.2, SVG Export Plug-In . SVG Version: 6.00 Build 0)  -->
<svg version="1.1" id="sgl_carbon_logo" xmlns="http://www.w3.org/2000/svg" xmlns:xlink="http://www.w3.org/1999/xlink" x="0px" y="0px" viewBox="0 0 198.4 40.7" style="enable-background:new 0 0 198.4 40.7;" xml:space="preserve">
<style type="text/css">
	.st0{fill:#00748D;}
</style>
<path class="st0" d="M11.7,0h11.8v9h-6.6l-6.5,11.3l6.5,11.3h6.6v9H11.7L0,20.3L11.7,0z M30.2,9l6.5,11.3l-6.5,11.3h10.4l6.5-11.3  L40.6,9H30.2z M69.8,22.2l-3.1-0.8l0,0c-0.7-0.2-1.2-0.4-1.6-0.7c-0.4-0.3-0.6-0.8-0.6-1.4c0-0.7,0.3-1.2,0.8-1.6  c0.5-0.4,1.2-0.6,2.1-0.6c1,0,1.8,0.3,2.3,0.7c0.6,0.5,0.9,1.2,1.1,2.1l0,0.2h0.2h2.6l0-0.2c-0.1-1.9-0.8-3.2-1.9-4.1  c-1.1-0.9-2.6-1.3-4.3-1.3c-1.5,0-3,0.4-4,1.3c-1,0.8-1.7,2.1-1.7,3.7c0,1.5,0.6,2.6,1.4,3.4c0.8,0.7,1.9,1.2,2.8,1.4l0,0l3.2,0.8  c0.9,0.2,1.4,0.5,1.7,0.9c0.3,0.4,0.4,0.8,0.4,1.3c0,0.7-0.3,1.2-0.8,1.6c-0.5,0.4-1.3,0.6-2.4,0.6c-1.1,0-2-0.2-2.7-0.7  c-0.7-0.5-1.1-1.3-1.3-2.4l0-0.2h-2.8l0,0.2c0.1,2,0.9,3.5,2.2,4.4c1.2,0.9,2.9,1.3,4.6,1.3c1.7,0,3.2-0.3,4.3-1.1  c1.1-0.8,1.7-2,1.7-3.7c0-1.5-0.4-2.7-1.2-3.5C72.2,22.9,71.1,22.5,69.8,22.2z M96.9,28.9c-0.3-0.1-0.4-0.2-0.5-0.4  c-0.1-0.2-0.2-0.4-0.2-0.8V9h-2.7v18.5c0,0.7,0.1,1.3,0.2,1.8c0.2,0.8,0.6,1.4,1.2,1.7c0.6,0.4,1.5,0.5,2.7,0.5h0.7V29h-0.7  C97.3,29,97.1,29,96.9,28.9z M112.3,18.1c0.7-0.6,1.7-1,2.7-1c0.9,0,1.8,0.3,2.5,0.8c0.7,0.5,1.2,1.3,1.3,2.4l0,0.2h2.8l0-0.2  c-0.2-2.2-1.1-3.6-2.3-4.5c-1.2-0.9-2.8-1.3-4.3-1.3c-1.6,0-3.2,0.4-4.5,1.4c-1.3,1-2.1,2.7-2.1,5.2v4.3c0,2.5,0.9,4.1,2.1,5.2  c1.3,1,2.9,1.4,4.5,1.4c1.5,0,3-0.4,4.3-1.3c1.2-0.9,2.1-2.4,2.3-4.5l0-0.2h-2.8l0,0.2c-0.2,1.1-0.6,1.9-1.3,2.4  c-0.7,0.5-1.6,0.8-2.5,0.8c-1,0-2-0.3-2.7-1c-0.7-0.6-1.2-1.6-1.2-2.9V21C111.1,19.7,111.6,18.7,112.3,18.1z M135.3,15.9  c-1.3-1-2.9-1.4-4.5-1.4c-1.5,0-3,0.3-4.2,1.2c-1.2,0.9-2.1,2.3-2.4,4.4l0,0.2h2.8l0-0.1c0.2-1,0.7-1.8,1.3-2.3  c0.7-0.5,1.5-0.8,2.4-0.8c1,0,2,0.3,2.7,1c0.7,0.6,1.2,1.6,1.2,2.9v0.1c-2.7,0.2-5,0.4-6.9,0.9c-1.5,0.4-2.4,1.2-3,2.1  c-0.6,0.9-0.7,1.9-0.7,2.8c0,1.7,0.7,3,1.7,3.8c1.1,0.8,2.5,1.2,3.9,1.2c1.1,0,2.2-0.2,3.1-0.5c0.7-0.3,1.4-0.7,1.9-1.2v1.4h2.7V21  C137.4,18.6,136.5,16.9,135.3,15.9z M134.6,25.6c0,1.2-0.5,2.2-1.3,2.8c-0.8,0.6-1.9,1-3.2,1c-1.2,0-2-0.3-2.6-0.7  c-0.5-0.4-0.8-1-0.8-1.7c0-0.5,0.1-0.9,0.2-1.2c0.2-0.3,0.5-0.7,1.1-1l0,0c0.5-0.3,1.3-0.5,2.4-0.7c1-0.2,2.4-0.3,4.1-0.4V25.6z   M145.4,15.1c-0.6,0.3-1.1,0.6-1.5,1.1v-1.4h-2.7v16.8h2.7V21.2c0-1.3,0.5-2.3,1.2-2.9c0.7-0.6,1.7-1,2.7-1h1.2v-2.7h-1.2  C147,14.6,146.1,14.8,145.4,15.1z M162.9,15.9c-1.3-1-2.9-1.4-4.5-1.4c-0.8,0-1.6,0.2-2.3,0.5c-0.6,0.3-1.1,0.6-1.5,1.1V9h-2.7v22.6  h2.7v-1.3c0.4,0.5,0.9,0.9,1.5,1.1c0.7,0.3,1.6,0.5,2.3,0.5c1.6,0,3.2-0.4,4.5-1.4c1.3-1,2.1-2.7,2.1-5.2V21  C165,18.6,164.2,16.9,162.9,15.9z M162.3,25.4c0,1.3-0.5,2.3-1.2,2.9c-0.7,0.6-1.7,1-2.7,1c-1,0-2-0.3-2.7-1  c-0.7-0.6-1.2-1.6-1.2-2.9V21c0-1.3,0.5-2.3,1.2-2.9c0.7-0.6,1.7-1,2.7-1c1,0,2,0.3,2.7,1c0.7,0.6,1.2,1.6,1.2,2.9V25.4z   M179.4,15.9c-1.3-1-2.9-1.4-4.5-1.4c-1.6,0-3.2,0.4-4.5,1.4c-1.3,1-2.1,2.7-2.1,5.2v4.3c0,2.5,0.9,4.1,2.1,5.2  c1.3,1,2.9,1.4,4.5,1.4c1.6,0,3.2-0.4,4.5-1.4c1.3-1,2.1-2.7,2.1-5.2V21C181.5,18.6,180.6,16.9,179.4,15.9z M178.8,25.4  c0,1.3-0.5,2.3-1.2,2.9c-0.7,0.6-1.7,1-2.7,1c-1,0-2-0.3-2.7-1c-0.7-0.6-1.2-1.6-1.2-2.9V21c0-1.3,0.5-2.3,1.2-2.9  c0.7-0.6,1.7-1,2.7-1c1,0,2,0.3,2.7,1c0.7,0.6,1.2,1.6,1.2,2.9V25.4z M196.3,15.9c-1.3-1-2.9-1.4-4.5-1.4c-0.8,0-1.6,0.2-2.3,0.5  c-0.6,0.3-1.1,0.6-1.5,1.1v-1.2h-2.7v16.8h2.7V21c0-1.3,0.5-2.3,1.2-2.9c0.7-0.6,1.7-1,2.7-1c1,0,2,0.3,2.7,1  c0.7,0.6,1.2,1.6,1.2,2.9v10.7h2.7V21C198.4,18.6,197.6,16.9,196.3,15.9z M87.1,14.9v1.2c-0.4-0.5-0.9-0.9-1.5-1.1  c-0.7-0.3-1.6-0.5-2.3-0.5c-1.6,0-3.2,0.4-4.5,1.4c-1.3,1-2.1,2.7-2.1,5.2v3.7c0,2.5,0.9,4.1,2.1,5.2c1.3,1,2.9,1.4,4.5,1.4  c0.8,0,1.6-0.2,2.3-0.5c0.6-0.3,1.1-0.6,1.5-1.1v1.6c0,1.3-0.5,2.3-1.2,2.9c-0.7,0.6-1.7,1-2.7,1c-0.9,0-1.8-0.3-2.5-0.8  c-0.7-0.5-1.2-1.3-1.3-2.4h-2.8l0,0c0.2,2.2,1.1,3.6,2.3,4.5c1.2,0.9,2.8,1.3,4.3,1.3c1.6,0,3.2-0.4,4.5-1.4c1.3-1,2.1-2.7,2.1-5.2  V14.9H87.1z M87.1,24.8c0,1.3-0.5,2.3-1.2,2.9c-0.7,0.6-1.7,1-2.7,1c-1,0-2-0.3-2.7-1c-0.7-0.6-1.2-1.6-1.2-2.9V21  c0-1.3,0.5-2.3,1.2-2.9c0.7-0.6,1.7-1,2.7-1c1,0,2,0.3,2.7,1c0.7,0.6,1.2,1.6,1.2,2.9V24.8z"/>
</svg>