<?xml version="1.0" encoding="UTF-8" standalone="no"?>
<svg
   xmlns:dc="http://purl.org/dc/elements/1.1/"
   xmlns:cc="http://creativecommons.org/ns#"
   xmlns:rdf="http://www.w3.org/1999/02/22-rdf-syntax-ns#"
   xmlns:svg="http://www.w3.org/2000/svg"
   xmlns="http://www.w3.org/2000/svg"
   version="1.1"
   id="svg4665"
   viewBox="0 0 500.07403 74.99334"
   height="21.164787mm"
   width="141.132mm">
  <defs
     id="defs4667">
    <clipPath
       id="clipPath4535"
       clipPathUnits="userSpaceOnUse">
      <path
         id="path4537"
         d="m 0,0 595.276,0 0,841.89 L 0,841.89 0,0 Z" />
    </clipPath>
  </defs>
  <metadata
     id="metadata4670">
    <rdf:RDF>
      <cc:Work
         rdf:about="">
        <dc:format>image/svg+xml</dc:format>
        <dc:type
           rdf:resource="http://purl.org/dc/dcmitype/StillImage" />
        <dc:title></dc:title>
      </cc:Work>
    </rdf:RDF>
  </metadata>
  <g
     transform="translate(-1.379233e-5,-977.36886)"
     id="layer1">
    <path
       d="m 1.379233e-5,1019.3155 c 0.0049999877,0.022 0.01249997767,0.045 0.01749997767,0.07 -0.005,-0.025 -0.01249999,-0.048 -0.01749997767,-0.07"
       style="fill:#ab273b;fill-opacity:1;fill-rule:nonzero;stroke:none"
       id="path4541" />
    <path
       d="m 139.50306,997.6028 c -0.0725,0 -0.815,0 -2.2325,0.075 -1.41499,0.08 -2.37999,0.08 -2.90499,0.08 -0.3925,0 -1.39,-0.0475 -2.9475,-0.1 l 0,0.003 c -0.7225,0 -1.375,0.17 -1.825,0.635 -0.32249,0.3325 -0.48249,0.735 -0.63249,1.285 -0.0275,0.1125 -0.06,0.23 -0.09,0.3425 -0.0375,0.1575 -0.075,0.3125 -0.1175,0.4925 l -0.01,0 c -1.2575,4.745 -3.72,12.4925 -5.56,18.2725 -1.04249,3.3475 -2.85999,8.7375 -5.76749,17.3724 -0.225,0.75 -0.49,1.8 -0.715,2.695 -0.135,0.6625 -0.2925,1.295 -0.365,1.295 0,0 -0.3825,-1.57 -0.89499,-3.5 l -5.66,-17.8624 c -2.30499,-7.22 -4.79249,-15.8125 -6.05749,-20.5725 -0.1475,-0.37 -0.3,-0.525 -0.37,-0.525 -0.0775,0 -0.8975,0 -2.37999,0.075 -1.417501,0.08 -2.459999,0.08 -2.979999,0.08 -0.527499,0 -1.334998,-0.025 -2.382496,-0.0575 l 0,0.002 c -0.722499,0 -1.594998,0.2175 -2.087497,0.64 -0.484999,0.4275 -0.794999,1.035 -0.634999,1.82 2.404996,6.27 5.819991,16.0725 8.782491,24.4175 4.24249,12.2799 7.21999,21.0649 8.92748,26.1974 0.0775,0.2975 0.3025,0.445 0.6,0.445 0.075,0 1.255,-0.065 2.6675,-0.16 1.3625,-0.095 1.975,-0.1325 2.49499,-0.1175 1.795,0.057 2.7025,0.12 3.4625,-0.1425 0.7375,-0.2575 1.1025,-0.4875 1.575,-0.905 0.7475,-0.62 1.34999,-1.8975 1.46749,-2.26 3.755,-11.5425 5.7975,-17.5424 7.31249,-21.9399 4.095,-11.765 7.91499,-22.5725 9.62749,-27.4075 0.145,-0.45 0.07,-0.675 -0.3025,-0.675"
       style="fill:#4a4a49;fill-opacity:1;fill-rule:nonzero;stroke:none"
       id="path4545" />
    <path
       d="m 251.53889,1051.9852 c -4.99249,0 -9.15749,-1.6425 -12.50748,-4.91 -3.425,-3.5025 -5.13749,-8.0425 -5.13749,-13.625 0,-5.7375 1.71249,-10.35 5.20999,-13.845 3.49499,-3.5049 7.96749,-5.2124 13.39998,-5.2124 4.83749,0 8.93499,1.4925 12.20998,4.5449 3.6425,3.3425 5.42999,7.96 5.42999,13.8425 0,5.4325 -1.565,9.895 -4.76249,13.3975 -3.4275,3.87 -8.03999,5.8075 -13.84248,5.8075 m 0.22,-30.45 c -5.28499,0 -8.40999,4.69 -8.40999,11.245 0,7.37 4.02,11.98 8.85749,11.98 2.305,0 4.24499,-0.9675 5.80999,-2.8225 1.7825,-2.085 2.675,-4.77 2.675,-8.115 0,-3.35 -0.82,-6.2575 -2.3825,-8.635 -1.565,-2.455 -3.79749,-3.6525 -6.54999,-3.6525"
       style="fill:#4a4a49;fill-opacity:1;fill-rule:nonzero;stroke:none"
       id="path4549" />
    <path
       d="m 390.62744,1031.0693 c 0.1525,0 0.2025,0.052 0.2025,0.1525 -0.05,4.68 -1.3225,8.645 -3.81499,11.9 -0.1525,0.1525 -0.1525,0.255 0,0.4075 0.96749,1.0175 1.93249,1.5275 3.00249,1.5275 0.7625,0 1.2025,-0.015 2.07,-0.2 0.405,-0.088 0.815,0.1025 0.9225,0.5175 0.4025,1.555 0.5475,2.85 0.415,4.5125 -0.01,0.115 0,0.205 -0.155,0.255 -1.015,0.355 -2.135,0.5075 -3.305,0.5075 -2.99999,0 -5.38999,-0.9675 -7.21999,-2.95 -0.1025,-0.1525 -0.205,-0.2025 -0.3575,-0.05 -2.69499,2.135 -6.05249,3.2025 -10.06998,3.2025 -3.305,0 -6.10249,-0.965 -8.38999,-2.8975 -2.44,-2.085 -3.6625,-4.8325 -3.6625,-8.2375 0,-2.4425 0.7625,-4.63 2.2875,-6.5125 1.22,-1.525 2.8,-2.745 4.67999,-3.61 0.1525,-0.05 0.1525,-0.2025 0,-0.355 -1.93249,-1.985 -2.89999,-4.2725 -2.89999,-6.815 0,-2.34 0.9675,-4.2725 2.84999,-5.7475 1.9325,-1.525 4.3225,-2.29 7.21999,-2.29 5.545,0 9.05499,3.0025 9.05499,7.275 0,3.865 -2.1875,6.7125 -6.51249,8.595 -0.15,0.05 -0.2025,0.1525 -0.1,0.255 0.7625,0.76 1.6775,1.7775 2.7475,3.05 1.37249,1.88 2.48999,3.51 3.35499,4.9325 0.1025,0.1525 0.2025,0.1525 0.255,0 0.4575,-0.7625 0.915,-1.78 1.27,-3.1025 0.3125,-1.1675 0.4575,-1.8975 0.505,-2.8875 0.0575,-1.2375 0.6325,-1.4675 1.325,-1.44 0.3075,0.013 0.9175,0.057 1.37499,0.057 0.4075,0 1.0175,0 1.78,-0.052 l 1.17,0 z m -11.90248,11.85 c -1.1175,-1.78 -2.5925,-3.915 -4.475,-6.4075 -0.5075,-0.66 -1.52499,-1.78 -2.99999,-3.255 -0.05,-0.053 -0.1025,-0.1025 -0.2525,-0.053 -2.6975,1.425 -4.06999,3.51 -4.06999,6.205 0,3.51 2.69749,6.0525 6.35749,6.0525 2.03499,0 3.91749,-0.66 5.64499,-2.0325 0.05,-0.053 -0.0525,-0.205 -0.205,-0.51 m -5.49249,-16.02 c 2.79999,-1.0675 4.22249,-2.695 4.22249,-4.9325 0,-1.8825 -1.17,-2.85 -3.51,-2.85 -2.38749,0 -3.60999,1.07 -3.60999,3.205 0,1.3725 0.865,2.9 2.5425,4.5275 0.1025,0.1 0.2025,0.1 0.355,0.05"
       style="fill:#4a4a49;fill-opacity:1;fill-rule:nonzero;stroke:none"
       id="path4553" />
    <path
       d="m 439.67636,1040.9247 c -0.0775,-0.2925 -0.295,-0.3675 -0.6675,-0.1475 -4.20499,2.2175 -7.89749,3.325 -11.06248,3.325 -4.4225,0 -8.04249,-2.29 -10.77749,-5.7625 -2.72249,-3.465 -4.04999,-9.045 -4.04999,-14.8775 0,-5.685 1.5425,-10.17 4.63999,-13.34 2.66,-2.6625 5.97999,-3.9874 9.96249,-3.9874 3.48249,0 6.90249,1.0999 10.25248,3.2349 1.29,-0.925 2.335,-2.0775 3.1225,-3.4299 0.7275,-1.305 1.1275,-2.84 1.19,-4.4 -3.895,-2.38004 -8.59999,-3.54754 -14.19498,-3.54754 -7.59749,0 -13.72248,2.43254 -18.44248,7.37754 -4.64999,4.8674 -7.01249,11.7224 -7.01249,19.3199 0,8.3325 2.435,16.0125 7.30499,20.885 4.505,4.5025 10.10999,6.7875 16.97248,6.7875 5.67999,0 11.06498,-1.3275 16.07498,-4.055 0.14999,-0.1475 0.14999,-0.295 0.0775,-0.44 -1.25749,-2.2925 -2.43499,-4.65 -3.38999,-6.9425"
       style="fill:#4a4a49;fill-opacity:1;fill-rule:nonzero;stroke:none"
       id="path4557" />
    <path
       d="m 498.51903,1035.211 c 0.215,0 -1.3425,0 -4.68249,-0.08 -3.27,-0.07 -6.08999,-0.07 -8.46749,-0.07 l -6.45749,0 c -2.3,0.07 -3.345,0.07 -3.1225,0.07 -0.445,0 -0.6675,0.155 -0.6675,0.4475 0,2.53 0.965,4.75 2.8975,6.69 1.56,1.5575 3.70749,2.375 6.38499,2.375 3.195,0 6.53499,-1.41 10.02999,-4.235 0.1175,-0.12 0.2525,-0.26 0.4075,-0.24 0.2175,0.027 0.77999,0.2375 1.39249,0.6375 1.0375,0.6775 2.005,1.6775 2.5525,3.7025 0.1,0.37 0.2225,1.0675 0.2125,1.5325 0,0 -0.1825,0.185 -0.3375,0.3225 -1.565,1.415 -3.49,2.73 -5.93749,3.695 -2.9725,1.19 -6.01999,1.7875 -9.13749,1.7875 -5.34999,0 -9.64998,-1.715 -12.91998,-5.05 -3.19249,-3.3475 -4.82999,-7.9525 -4.82999,-13.7425 0,-6.16 2.23,-11.1425 6.68749,-14.925 2.96749,-2.5225 6.68249,-3.7875 11.13748,-3.7875 5.04999,0 9.06249,1.8525 11.95498,5.495 2.9725,3.6325 4.4575,8.3925 4.4575,14.4075 0,0.6625 -0.52,0.9675 -1.555,0.9675 m -8.76749,-6.095 c 0.37,0 0.5175,-0.1475 0.5175,-0.445 0,-1.1875 -0.445,-2.6 -1.3325,-4.16 -1.41499,-2.3775 -3.41999,-3.5625 -6.01999,-3.5625 -2.59749,0 -4.67999,1.185 -6.15999,3.4925 -1.0425,1.63 -1.5625,3.0425 -1.5625,4.23 0,0.2975 0.15,0.445 0.445,0.445 l 2.45,0 c 1.71,0.07 3.27,0.07 4.68249,0.07 1.335,0 2.82,0 4.53,-0.07 l 2.44999,0 z"
       style="fill:#4a4a49;fill-opacity:1;fill-rule:nonzero;stroke:none"
       id="path4561" />
    <path
       d="m 148.96154,1051.0787 c 0.93,0 1.715,-0.2875 2.35,-0.83 0.7075,-0.6175 1.08249,-1.5325 1.08249,-2.735 -0.01,-0.4975 -0.02,-1.03 -0.0325,-1.6375 -0.07,-3.8425 -0.13999,-7.2925 -0.13999,-10.2725 l 0,-5.885 c 0,-3.215 0.07,-5.2475 0.13999,-9.01 0.06,-3.2625 0.1225,-4.8699 0.1375,-5.0024 -0.01,-0.2075 -0.0775,-0.3475 -0.20749,-0.3475 -0.1425,0 -0.85,0 -2.0475,0.08 -0.71,0.045 -1.28,0.062 -1.775,0.07 -1.3875,0.01 -2.5575,0.445 -3.51249,1.25 -1.035,0.9099 -1.59,2.1724 -1.6275,3.8999 0.07,3.6475 0.1375,5.7225 0.1375,9.1375 l 0,5.65 c 0,3.1375 -0.07,6.5875 -0.14,10.43 -0.0575,3.0175 -0.1125,4.67 -0.135,4.9275 0.0225,0.2675 0.15,0.4075 0.345,0.4075 0.2125,0 0.8475,0 1.8375,-0.08 1.05749,-0.078 1.83499,-0.078 2.39749,-0.078 0.31,0 0.73,0.01 1.19,0.025"
       style="fill:#4a4a49;fill-opacity:1;fill-rule:nonzero;stroke:none"
       id="path4565" />
    <path
       d="m 307.65131,1051.0842 c 0.8925,0 1.6425,-0.2775 2.2525,-0.795 0.6775,-0.5925 1.0375,-1.4675 1.0375,-2.62 -0.01,-0.4775 -0.02,-0.99 -0.03,-1.57 -0.0675,-3.6825 -0.1375,-6.99 -0.1375,-9.845 l 0,-5.64 c 0,-3.08 0.07,-6.4625 0.1375,-10.07 0.055,-3.125 0.115,-4.7249 0.12999,-4.8524 -0.01,-0.2 -0.075,-0.335 -0.19749,-0.335 -0.1375,0 -0.815,0 -1.9625,0.077 -0.68,0.045 -1.2275,0.06 -1.7025,0.067 -1.3275,0.01 -2.45,0.4275 -3.36499,1.1975 -0.9925,0.8724 -1.525,2.1424 -1.56,3.7974 0.0675,3.495 0.1325,6.92 0.1325,10.1925 l 0,5.415 c 0,3.005 -0.0675,6.3125 -0.135,9.995 -0.055,2.89 -0.1075,4.475 -0.13,4.7225 0.0225,0.255 0.1425,0.39 0.3325,0.39 0.2025,0 0.81,0 1.76,-0.075 1.01499,-0.078 1.75999,-0.078 2.29749,-0.078 0.2975,0 0.7,0.013 1.14,0.025"
       style="fill:#4a4a49;fill-opacity:1;fill-rule:nonzero;stroke:none"
       id="path4569" />
    <path
       d="m 25.592476,1017.7238 c 3.164995,-10.295 11.734983,-18.21247 22.382467,-20.41247 0.1375,-0.0275 0.282499,-0.0375 0.419999,-0.065 l -0.0275,-19.87747 -24.132464,0.03 c -6.44749,0.0125 -12.504981,2.5425 -17.0574747,7.12499 -4.5574933,4.58749 -7.0574896,10.67998 -7.04248962,17.15495 l 0.0125,9.9825 c 0.85749872,8.13 7.60248872,14.2325 15.78497632,14.2325 l 8.367488,-0.015 c 0.0625,-2.83 0.497499,-5.57 1.292498,-8.155"
       style="fill:#ab273b;fill-opacity:1;fill-rule:nonzero;stroke:none"
       id="path4573" />
    <path
       d="m 62.344922,1002.3028 -8.364988,0.012 c -6.42749,0 -12.469981,2.52 -17.014974,7.08 -4.577494,4.5925 -7.08999,10.7025 -7.07499,17.2 l 0.0325,24.2324 24.134964,-0.033 c 6.447491,-0.01 12.504982,-2.54 17.057475,-7.125 4.557493,-4.5875 7.05749,-10.6799 7.04249,-17.1549 l -0.0125,-9.98 c -0.857499,-8.1325 -7.602489,-14.2325 -15.784977,-14.2325"
       style="fill:#ab273b;fill-opacity:1;fill-rule:nonzero;stroke:none"
       id="path4577" />
    <path
       d="m 39.794455,1000.3198 c 2.527496,-1.3825 5.277492,-2.4075 8.179988,-3.0075 -2.902496,0.6 -5.652492,1.625 -8.179988,3.0075"
       style="fill:#ab273b;fill-opacity:1;fill-rule:nonzero;stroke:none"
       id="path4581" />
    <path
       d="m 144.4518,1001.7655 c -1.0175,0.895 -1.5525,2.2075 -1.5525,3.9375 0,1.49 0.4275,2.745 1.2325,3.76 0.91,1.1325 2.15,1.67 3.65,1.67 2.84999,0 4.88999,-2.505 4.88999,-5.6675 0,-2.805 -2.04,-4.8925 -4.8325,-4.8925 -1.34249,0 -2.46999,0.415 -3.38749,1.1925"
       style="fill:#4a4a49;fill-opacity:1;fill-rule:nonzero;stroke:none"
       id="path4585" />
    <path
       d="m 303.35481,1001.767 c -1.0175,0.895 -1.5525,2.2075 -1.5525,3.9375 0,1.49 0.4275,2.745 1.2325,3.76 0.91,1.1325 2.15,1.67 3.65,1.67 2.84999,0 4.88999,-2.505 4.88999,-5.6675 0,-2.805 -2.04,-4.8925 -4.8325,-4.8925 -1.34249,0 -2.46999,0.415 -3.38749,1.1925"
       style="fill:#4a4a49;fill-opacity:1;fill-rule:nonzero;stroke:none"
       id="path4589" />
    <path
       d="m 455.62684,1051.0842 c 0.8925,0 1.6425,-0.2775 2.2525,-0.795 0.6775,-0.5925 1.0375,-1.4675 1.0375,-2.62 -0.01,-0.4775 -0.02,-0.99 -0.03,-1.57 -0.0675,-3.6825 -0.1375,-6.99 -0.1375,-9.845 l 0,-5.64 c 0,-3.08 0.07,-6.4625 0.1375,-10.07 0.055,-3.125 0.115,-4.7249 0.12999,-4.8524 -0.01,-0.2 -0.075,-0.335 -0.19749,-0.335 -0.1375,0 -0.815,0 -1.9625,0.077 -0.68,0.045 -1.2275,0.06 -1.7025,0.067 -1.3275,0.01 -2.45,0.4275 -3.36499,1.1975 -0.9925,0.8724 -1.525,2.1424 -1.56,3.7974 0.0675,3.495 0.1325,6.92 0.1325,10.1925 l 0,5.415 c 0,3.005 -0.0675,6.3125 -0.135,9.995 -0.055,2.89 -0.1075,4.475 -0.13,4.7225 0.0225,0.255 0.1425,0.39 0.3325,0.39 0.2025,0 0.81,0 1.76,-0.075 1.01499,-0.078 1.75999,-0.078 2.29749,-0.078 0.2975,0 0.7,0.013 1.14,0.025"
       style="fill:#4a4a49;fill-opacity:1;fill-rule:nonzero;stroke:none"
       id="path4593" />
    <path
       d="m 451.33035,1001.767 c -1.0175,0.895 -1.5525,2.2075 -1.5525,3.9375 0,1.49 0.4275,2.745 1.2325,3.76 0.91,1.1325 2.15,1.67 3.65,1.67 2.84999,0 4.88999,-2.505 4.88999,-5.6675 0,-2.805 -2.04,-4.8925 -4.8325,-4.8925 -1.34249,0 -2.46999,0.415 -3.38749,1.1925"
       style="fill:#4a4a49;fill-opacity:1;fill-rule:nonzero;stroke:none"
       id="path4597" />
    <path
       d="m 167.32527,1051.0712 c 1.0225,0 1.8825,-0.41 2.5825,-1.1775 0.7775,-0.8775 1.18749,-2.1725 1.18749,-3.8775 -0.01,-0.7075 -0.0225,-1.4625 -0.035,-2.325 -0.0775,-5.4475 -0.155,-10.3425 -0.155,-14.5675 l 0,-8.345 c 0,-4.5599 0.0775,-7.4424 0.155,-12.7774 0.065,-4.63 0.1325,-6.9075 0.15,-7.0975 -0.01,-0.2925 -0.085,-0.4925 -0.2275,-0.4925 -0.155,0 -0.93249,0 -2.24749,0.1125 -0.78,0.065 -1.4075,0.092 -1.9525,0.1 -1.5225,0.018 -3.42749,-0.3 -4.59999,0.7125 -1.3375,1.1575 -1.195,2.43 -1.0425,6.5925 0.075,5.1725 0.15,8.115 0.15,12.9599 l 0,8.0125 c 0,4.4475 -0.0775,9.3425 -0.155,14.79 -0.0625,4.28 -0.125,6.625 -0.1475,6.99 0.0225,0.3775 0.1625,0.5775 0.38,0.5775 0.2325,0 0.9275,0 2.015,-0.1125 1.16499,-0.11 2.01749,-0.11 2.63499,-0.11 0.3425,0 0.8025,0.015 1.3075,0.035"
       style="fill:#4a4a49;fill-opacity:1;fill-rule:nonzero;stroke:none"
       id="path4601" />
    <path
       d="m 295.97383,1015.195 c -1.4375,-0.725 -2.46,-0.92 -3.74749,-0.92 -1.695,0 -3.0825,0.4575 -4.595,1.26 -1.2875,0.68 -2.14999,1.545 -3.32999,3.4075 -0.135,0.225 -0.27,0.375 -0.475,0.375 -0.135,0 -0.18,-0.053 -0.2325,-0.2725 -0.38,-1.595 -0.35,-2.02 -0.6475,-3.415 -0.095,-0.445 -0.2025,-0.6775 -0.4725,-0.6775 -1.1525,0.15 -3.39999,0.16 -7.26249,0.31 -0.31,0 -0.445,0.1325 -0.465,0.3275 0.045,0.015 0.2675,1.5725 0.33,3.96 0.07,2.805 0.3525,5.3375 0.3525,8.1975 l 0,10.5375 c 0,3.46 -0.0675,6.6225 -0.1375,9.405 -0.0475,2.0649 -0.0975,3.1749 -0.12,3.3674 0.025,0.1225 0.1,0.17 0.2575,0.17 0.27,0 0.9475,0 2.0325,-0.075 1.0825,-0.075 1.82749,-0.075 2.16499,-0.075 0.21,0 0.565,0 1.0475,0.02 0.865,-0.015 1.595,-0.2875 2.1875,-0.79 0.6825,-0.5975 1.04,-1.4724 1.04,-2.6249 0,-0.1 -0.005,-0.1875 -0.007,-0.2925 -0.0675,-2.935 -0.135,-6.2475 -0.135,-9.935 l 0,-4.1375 c 0,-1.7325 0.0675,-2.8625 0.205,-3.54 0.2025,-0.675 0.49,-2.48 1.1175,-3.4925 1.32749,-2.1425 2.28999,-3.57 4.16749,-4.1825 2.9625,-0.97 4.82749,0.645 5.88749,0.93 0.4975,0.135 0.6825,-0.043 0.7375,-0.4975 0.4975,-4.1675 0.5125,-5.8575 0.58,-6.675 0.0275,-0.3275 -0.095,-0.47 -0.48,-0.665"
       style="fill:#4a4a49;fill-opacity:1;fill-rule:nonzero;stroke:none"
       id="path4605" />
    <path
       d="m 224.79318,1050.9592 c 0.895,0 1.6475,-0.28 2.255,-0.7975 0.6675,-0.5825 1.02,-1.44 1.0325,-2.56 -0.0275,-1.1625 -0.0425,-2.4425 -0.09,-3.88 -0.0675,-2.8575 -0.0675,-6.095 -0.0675,-9.63 l 0,-8.505 c 0,-3.915 -1.15,-6.925 -3.455,-8.9574 -1.8275,-1.655 -3.99499,-2.4825 -6.56999,-2.4825 -3.79249,0 -6.38999,1.3075 -9.36999,4.6174 -0.195,0.215 -0.77999,0.87 -1.13249,1.25 -0.5725,-1.3225 -1.37,-2.46 -2.4175,-3.3849 -1.8275,-1.655 -3.99499,-2.4825 -6.56999,-2.4825 -3.7925,0 -6.39249,1.3075 -9.37249,4.6174 -0.2025,0.225 -0.3775,0.4225 -0.445,0.4225 -0.1375,0 -0.1825,-0.1625 -0.23,-0.3825 -0.2025,-0.9325 -0.3275,-1.9074 -0.665,-3.4874 -0.0675,-0.4525 -0.27249,-0.6775 -0.47499,-0.6775 -2.845,0.375 -5.2575,0.4275 -7.35499,0.505 -0.3175,0 -0.45,0.07 -0.4675,0.26 0.025,0.12 0.1225,1.46 0.3025,3.8999 0.21,2.87 0.44,5.83 0.44,8.915 l 0,7.7525 c 0,3.3875 -0.0675,6.8475 -0.135,10.385 -0.055,2.835 -0.1075,4.315 -0.1275,4.5175 0.0175,0.1625 0.0875,0.2225 0.2625,0.2225 0.2725,0 0.94999,0 2.03249,-0.075 0.6275,-0.04 1.1225,-0.058 1.51,-0.065 l 0,0 c 1.355,0 2.495,-0.42 3.4175,-1.205 1.01999,-0.8975 1.55999,-2.2075 1.56999,-3.93 -0.065,-3.66 -0.13,-7.3175 -0.13,-11.05 l 0.1375,-4.63 c 0,-0.6025 0.4925,-2.525 0.8475,-3.275 1.835,-3.86 3.955,-5.4975 6.93499,-5.4975 2.505,0 3.5725,2.6375 3.5725,7.23 l 0,5.72 c 0,3.6125 0,6.85 -0.0675,9.63 -0.0675,3.915 -0.2025,7 -0.2025,6.775 0,0.225 0.0675,0.375 0.27,0.375 0.2725,0 0.95,0 2.09999,-0.075 1.1525,-0.075 1.83,-0.075 2.1675,-0.075 0.2025,0 0.5425,0 0.9975,0.017 l 0,0 c 0.895,0 1.6475,-0.2775 2.2575,-0.795 0.67249,-0.5925 1.02999,-1.46 1.03499,-2.5975 -0.0275,-1.155 -0.0425,-2.425 -0.09,-3.85 -0.0675,-2.8575 -0.0675,-6.095 -0.0675,-9.63 l 0,-4.0225 0.002,0.01 c -0.002,-0.028 0,-0.06 -0.002,-0.088 l 0,-0.51 c 0.045,-0.905 0.31,-2.04 0.585,-2.615 1.8325,-3.86 3.5275,-5.4975 6.50499,-5.4975 2.5075,0 4.0025,2.6375 4.0025,7.23 l 0,5.72 c 0,3.6125 0,6.85 -0.0675,9.63 -0.07,3.915 -0.205,7 -0.205,6.775 0,0.225 0.0675,0.375 0.2725,0.375 0.27,0 0.9475,0 2.09999,-0.075 1.15,-0.075 1.8275,-0.075 2.165,-0.075 0.2025,0 0.545,0 1.0025,0.02 l 0,-0.01 z"
       style="fill:#4a4a49;fill-opacity:1;fill-rule:nonzero;stroke:none"
       id="path4609" />
    <path
       d="m 346.742,1050.436 c 0.665,-0.5825 1.015,-1.435 1.0325,-2.5475 -0.03,-1.17 -0.045,-2.46 -0.0925,-3.905 -0.0675,-2.86 -0.0675,-6.095 -0.0675,-9.6325 l 0,-8.505 c 0,-3.915 -1.1525,-6.925 -3.455,-8.9575 -1.82749,-1.6549 -3.99499,-2.4824 -6.56999,-2.4824 -3.79249,0 -6.81749,1.3075 -9.79998,4.6174 -0.2025,0.2275 -0.3775,0.425 -0.445,0.425 -0.135,0 -0.1825,-0.1625 -0.23,-0.385 -0.2025,-0.9325 -0.325,-1.9075 -0.665,-3.4874 -0.0675,-0.4525 -0.27,-0.6775 -0.475,-0.6775 -2.845,0.3775 -5.25499,0.43 -7.35499,0.505 -0.315,0 -0.45,0.07 -0.4675,0.26 0.025,0.12 0.1225,1.4624 0.3025,3.9024 0.2125,2.8675 0.4425,5.8275 0.4425,8.9125 l 0,7.755 c 0,3.385 -0.07,6.845 -0.1375,10.3825 -0.055,2.8375 -0.1075,4.315 -0.1275,4.52 0.0175,0.16 0.0875,0.2225 0.265,0.2225 0.27,0 0.9475,0 2.03,-0.075 0.635,-0.043 1.1325,-0.06 1.52,-0.068 1.35749,0 2.49749,-0.4225 3.41749,-1.2075 0.98,-0.8575 1.5125,-2.105 1.565,-3.7275 -0.0675,-3.7275 -0.135,-7.4525 -0.135,-11.2525 l 0.1375,-4.63 c 0,-0.6 0.4925,-2.5225 0.85,-3.275 1.83499,-3.86 3.95249,-5.4975 6.93249,-5.4975 2.50749,0 4.00249,2.64 4.00249,7.23 l 0,5.72 c 0,3.6125 0,6.85 -0.0675,9.6325 -0.07,3.9125 -0.205,7 -0.205,6.7725 0,0.2275 0.0675,0.3775 0.2725,0.3775 0.27,0 0.9475,0 2.0975,-0.075 1.1525,-0.075 1.83,-0.075 2.16749,-0.075 0.2125,0 0.5675,0 1.0575,0.02 0.87,-0.013 1.605,-0.285 2.2025,-0.7925"
       style="fill:#4a4a49;fill-opacity:1;fill-rule:nonzero;stroke:none"
       id="path4613" />
  </g>
</svg>
