<?xml version="1.0" encoding="UTF-8" standalone="no"?>
<svg
   xmlns:dc="http://purl.org/dc/elements/1.1/"
   xmlns:cc="http://creativecommons.org/ns#"
   xmlns:rdf="http://www.w3.org/1999/02/22-rdf-syntax-ns#"
   xmlns:svg="http://www.w3.org/2000/svg"
   xmlns="http://www.w3.org/2000/svg"
   version="1.1"
   id="svg4594"
   viewBox="0 0 402.50884 53.666074"
   height="15.145759mm"
   width="113.59694mm">
  <defs
     id="defs4596">
    <clipPath
       id="clipPath54"
       clipPathUnits="userSpaceOnUse">
      <path
         id="path56"
         d="m 15,15 612.283,0 0,858.898 L 15,873.898 15,15 Z" />
    </clipPath>
  </defs>
  <metadata
     id="metadata4599">
    <rdf:RDF>
      <cc:Work
         rdf:about="">
        <dc:format>image/svg+xml</dc:format>
        <dc:type
           rdf:resource="http://purl.org/dc/dcmitype/StillImage" />
        <dc:title></dc:title>
      </cc:Work>
    </rdf:RDF>
  </metadata>
  <g
     transform="translate(-278.07697,-307.15466)"
     id="layer1">
    <g
       id="g5222">
      <g
         id="g38"
         transform="matrix(2.3665838,0,0,-2.3665838,278.07697,316.91276)">
        <path
           d="m 0,0 1.312,-18.33 5.088,0 3.792,9.121 -0.016,-9.121 5.088,0 L 23.936,0 18.56,0 14.128,-10.917 13.984,0 9.824,0 5.36,-10.917 5.184,0 0,0 Z"
           style="fill:#f46d16;fill-opacity:1;fill-rule:nonzero;stroke:none"
           id="path40" />
      </g>
      <g
         id="g42"
         transform="matrix(2.3665838,0,0,-2.3665838,380.14324,318.8543)">
        <path
           d="m 0,0 -4.76,0 -0.696,-3.337 4.76,0 L 0,0 Z"
           style="fill:#f46d16;fill-opacity:1;fill-rule:nonzero;stroke:none"
           id="path44" />
      </g>
      <g
         id="g46"
         transform="matrix(2.3665838,0,0,-2.3665838,360.26392,360.29129)">
        <path
           d="m 0,0 4.752,0 2.616,12.887 -4.76,0 L 0,0 Z"
           style="fill:#f46d16;fill-opacity:1;fill-rule:nonzero;stroke:none"
           id="path48" />
      </g>
      <g
         transform="matrix(2.3665838,0,0,-2.3665838,-723.43003,2247.8523)"
         id="g50">
        <g
           id="g52"
           clip-path="url(#clipPath54)">
          <g
             id="g58"
             transform="translate(452.1388,801.4435)">
            <path
               d="m 0,0 c -0.24,-0.432 -0.84,-0.889 -1.872,-0.889 -1.488,0 -1.944,1.105 -1.944,2.427 l 8.888,0 c 0.216,0.767 0.232,1.489 0.232,2.16 0,3.915 -3.328,5.604 -6.088,5.604 -3.104,0 -7.472,-2.026 -7.472,-7.742 0,-3.025 1.656,-5.602 6.08,-5.602 5.376,0 6.424,3.201 6.736,4.042 L 0,0 Z m -3.408,4.012 c 0.36,1.319 1.2,2.088 2.472,2.088 1.2,0 1.8,-0.745 1.8,-1.681 0,-0.121 -0.024,-0.288 -0.048,-0.407 l -4.224,0 z"
               style="fill:#f46d16;fill-opacity:1;fill-rule:evenodd;stroke:none"
               id="path60" />
          </g>
          <g
             id="g62"
             transform="translate(477.0509,815.9185)">
            <path
               d="m 0,0 -0.08,-0.308 -1.384,-6.799 c -0.84,1.349 -2.184,1.781 -3.624,1.781 -3.72,0 -6.192,-3.29 -6.192,-8.019 0,-1.514 0.536,-5.172 4.552,-5.172 1.44,0 2.504,0.657 3.32,1.832 l -0.24,-1.645 4.664,0 L 4.768,0 0,0 Z m -2.336,-10.95 c 0,-1.488 -0.624,-3.865 -2.472,-3.865 -1.248,0 -1.752,0.913 -1.752,2.041 0,1.801 0.616,4.129 2.52,4.129 1.224,0 1.704,-0.91 1.704,-2.305"
               style="fill:#f46d16;fill-opacity:1;fill-rule:evenodd;stroke:none"
               id="path64" />
          </g>
          <g
             id="g66"
             transform="translate(480.6271,797.5889)">
            <path
               d="m 0,0 4.752,0 1.536,7.364 c 0.216,1.08 0.816,1.85 1.992,1.85 0.768,0 1.2,-0.362 1.2,-1.155 0,-0.335 -0.12,-0.837 -0.192,-1.15 L 7.848,0 l 4.76,0 1.632,7.771 c 0.192,0.914 0.864,1.443 1.8,1.443 0.768,0 1.224,-0.409 1.224,-1.202 0,-0.36 -0.24,-1.583 -0.288,-1.826 L 15.704,0 l 4.752,0 1.512,7.339 c 0.096,0.554 0.288,1.393 0.288,1.97 0,2.571 -1.52,3.848 -3.944,3.848 -1.656,0 -3.088,-0.919 -4.12,-2.214 -0.312,1.536 -1.688,2.214 -3.32,2.214 -1.584,0 -3,-0.919 -3.96,-2.095 l -0.048,0 0.352,1.825 -4.608,0 L 0,0 Z"
               style="fill:#f46d16;fill-opacity:1;fill-rule:nonzero;stroke:none"
               id="path68" />
          </g>
          <g
             id="g70"
             transform="translate(518.8989,810.4756)">
            <path
               d="m 0,0 -4.76,0 -1.104,-5.261 c -0.384,-1.585 -0.472,-3.915 -2.616,-3.915 -0.696,0 -1.368,0.41 -1.368,1.177 0,0 0,0.647 0.192,1.295 L -8.24,0 -12.992,0 c -1.44,-6.866 -1.872,-8.576 -1.872,-9.657 0,-2.375 1.688,-3.417 3.848,-3.417 1.608,0 3.088,0.776 4.12,2.001 l 0.048,0 -0.384,-1.814 4.616,0 L 0,0 Z"
               style="fill:#f46d16;fill-opacity:1;fill-rule:nonzero;stroke:none"
               id="path72" />
          </g>
          <g
             id="g74"
             transform="translate(507.6669,811.8364)">
            <path
               d="m 0,0 4.224,0 0.672,3.195 -4.224,0 L 0,0 Z"
               style="fill:#f46d16;fill-opacity:1;fill-rule:nonzero;stroke:none"
               id="path76" />
          </g>
          <g
             id="g78"
             transform="translate(513.5388,811.8364)">
            <path
               d="m 0,0 4.224,0 0.672,3.195 -4.224,0 L 0,0 Z"
               style="fill:#f46d16;fill-opacity:1;fill-rule:nonzero;stroke:none"
               id="path80" />
          </g>
          <g
             id="g82"
             transform="translate(522.5548,815.963)">
            <path
               d="M 0,0 4.792,0 1,-18.374 l -4.752,0 L 0,0 Z"
               style="fill:#f46d16;fill-opacity:1;fill-rule:nonzero;stroke:none"
               id="path84" />
          </g>
          <g
             id="g86"
             transform="translate(529.9708,815.963)">
            <path
               d="m 0,0 4.792,0 -3.736,-18.374 -4.752,0 L 0,0 Z"
               style="fill:#f46d16;fill-opacity:1;fill-rule:nonzero;stroke:none"
               id="path88" />
          </g>
          <g
             id="g90"
             transform="translate(542.4188,801.4122)">
            <path
               d="m 0,0 c -0.24,-0.43 -0.84,-0.889 -1.872,-0.889 -1.488,0 -1.944,1.105 -1.944,2.427 l 8.888,0 c 0.216,0.767 0.24,1.489 0.24,2.159 0,3.914 -3.344,5.592 -6.104,5.592 -3.096,0 -7.464,-2.013 -7.464,-7.727 0,-3.027 1.664,-5.609 6.08,-5.609 5.384,0 6.424,3.205 6.736,4.047 L 0,0 Z m -3.408,4.01 c 0.36,1.321 1.2,2.09 2.472,2.09 1.2,0 1.8,-0.745 1.8,-1.681 C 0.864,4.298 0.84,4.13 0.816,4.01 l -4.224,0 z"
               style="fill:#f46d16;fill-opacity:1;fill-rule:evenodd;stroke:none"
               id="path92" />
          </g>
          <g
             id="g94"
             transform="translate(548.179,797.5889)">
            <path
               d="m 0,0 4.76,0 1.08,5.412 c 0.552,2.618 1.56,3.481 3.576,3.481 0.6,0 1.248,-0.094 1.824,-0.311 l 0.888,4.439 c -0.432,0.145 -0.888,0.194 -1.68,0.194 -1.224,0 -2.784,-0.935 -3.624,-2.258 l -0.048,-0.238 0.408,2.183 -4.608,0 L 0,0 Z"
               style="fill:#f46d16;fill-opacity:1;fill-rule:nonzero;stroke:none"
               id="path96" />
          </g>
          <g
             id="g98"
             transform="translate(570.0349,816.3646)">
            <path
               d="m 0,0 5.912,0 c 0.616,0 0.912,-0.241 1.384,-0.813 0.168,-0.21 0.56,-0.68 1.024,-1.257 l 2.336,2.855 C 9.856,1.767 9.264,2.493 9.264,2.493 8.68,3.203 8.048,3.677 6.888,3.677 L 0,3.677 C -0.952,3.677 -1.936,3.055 -1.936,1.83 -1.936,0.599 -0.968,0 0,0"
               style="fill:#231f20;fill-opacity:1;fill-rule:nonzero;stroke:none"
               id="path100" />
          </g>
          <g
             id="g102"
             transform="translate(591.3309,801.1974)">
            <path
               d="m 0,0 -5.904,0 c -0.624,0 -0.92,0.241 -1.392,0.815 -0.168,0.208 -0.552,0.681 -1.024,1.26 l -2.336,-2.855 c 0.8,-0.983 1.392,-1.711 1.392,-1.711 0.584,-0.712 1.216,-1.186 2.376,-1.186 l 6.888,0 c 0.96,0 1.936,0.623 1.936,1.85 C 1.936,-0.598 0.968,0 0,0"
               style="fill:#f46d16;fill-opacity:1;fill-rule:nonzero;stroke:none"
               id="path104" />
          </g>
          <g
             id="g106"
             transform="translate(579.5149,807.5638)">
            <path
               d="m 0,0 c -0.408,0.464 -0.6,0.85 -0.6,1.218 0,0.357 0.2,0.767 0.6,1.219 0.032,0.047 3.856,4.741 4.52,5.55 0.472,0.573 0.768,0.814 1.392,0.814 l 5.904,0 c 0.968,0 1.936,0.599 1.936,1.829 0,1.226 -0.976,1.848 -1.936,1.848 l -6.888,0 c -1.16,0 -1.792,-0.474 -2.376,-1.184 0,0 -5.304,-6.539 -5.872,-7.156 C -4.048,3.343 -4.416,3.066 -5.688,3.066 l -3.8,0 c -0.944,0 -1.928,-0.626 -1.928,-1.861 0,-1.235 0.968,-1.836 1.928,-1.836 l 3.8,0 c 1.272,0 1.64,-0.279 2.368,-1.072 0.216,-0.236 1.12,-1.338 2.16,-2.604 l 2.336,2.862 C 0.512,-0.633 0.008,-0.017 0,0"
               style="fill:#f46d16;fill-opacity:1;fill-rule:nonzero;stroke:none"
               id="path108" />
          </g>
          <g
             id="g110"
             transform="translate(591.3387,810.6294)">
            <path
               d="m 0,0 -3.8,0 c -1.272,0 -1.64,0.277 -2.368,1.073 -0.216,0.235 -1.12,1.333 -2.16,2.599 l -2.328,-2.86 c 0.656,-0.814 1.152,-1.424 1.168,-1.441 0.4,-0.451 0.6,-0.862 0.6,-1.219 0,-0.368 -0.192,-0.754 -0.6,-1.218 -0.04,-0.048 -3.856,-4.743 -4.52,-5.551 -0.472,-0.574 -0.768,-0.815 -1.384,-0.815 l -5.912,0 c -0.968,0 -1.936,-0.598 -1.936,-1.827 0,-1.227 0.984,-1.85 1.936,-1.85 l 6.888,0 c 1.16,0 1.792,0.474 2.376,1.186 0,0 5.304,6.536 5.872,7.154 0.728,0.793 1.096,1.072 2.368,1.072 l 3.8,0 c 0.96,0 1.928,0.602 1.928,1.837 C 1.928,-0.626 0.952,0 0,0"
               style="fill:#231f20;fill-opacity:1;fill-rule:nonzero;stroke:none"
               id="path112" />
          </g>
        </g>
      </g>
    </g>
  </g>
</svg>
