<?xml version="1.0" encoding="UTF-8" standalone="no"?>
<!DOCTYPE svg PUBLIC "-//W3C//DTD SVG 1.0//EN" "http://www.w3.org/TR/2001/REC-SVG-20010904/DTD/svg10.dtd">
<!-- Created with Inkscape (http://www.inkscape.org/) by Steadfast-->
<svg
   xmlns:svg="http://www.w3.org/2000/svg"
   xmlns="http://www.w3.org/2000/svg"
   version="1.0"
   width="900"
   height="135"
   id="svg2502">
  <defs
     id="defs2504" />
  <g
     id="layer1">
    <g
       transform="matrix(5.4575797,0,0,5.4575797,-1514.7287,-1356.566)"
       id="g2519">
      <path
         d="M 430.39931,250.48353 L 432.15056,250.48353 C 432.23556,250.48353 432.67681,250.55728 432.94806,250.57353 C 435.31181,250.72978 439.12181,251.84478 440.21806,255.15228 C 440.26056,255.29103 440.33931,255.42603 440.36806,255.56853 C 440.47306,256.00853 440.62306,256.90478 440.62181,256.99103 L 440.62181,258.13728 L 434.24681,258.13728 C 434.00431,256.09978 432.59806,255.51978 431.22306,255.51978 C 428.46306,255.51978 426.62931,257.49103 425.81056,261.09603 C 425.77181,261.26353 425.54806,262.33853 425.54806,262.72978 C 425.54806,263.30353 425.72431,263.89353 425.86556,264.36353 L 426.01556,264.60353 C 426.23181,265.06853 426.82306,265.75603 427.33306,266.03103 C 427.71181,266.23478 428.63056,266.62853 429.15681,266.62853 L 430.42556,266.62853 C 431.35681,266.62853 433.04306,265.69728 433.34806,264.54353 L 430.51931,264.54353 L 431.35056,260.35478 L 440.61931,260.35478 L 438.44431,270.93728 L 434.21431,270.93728 L 434.21431,269.21478 C 432.89306,270.24353 431.38431,271.05353 430.05181,271.19103 C 429.78056,271.21728 429.49556,271.25603 429.22431,271.29478 C 429.05556,271.32103 428.71806,271.38978 428.63056,271.38978 L 426.22556,271.38978 C 425.84931,271.38978 423.92931,270.97853 423.86931,270.96228 C 423.52431,270.84603 423.15306,270.61728 422.76556,270.49978 C 421.03181,269.96978 419.14806,267.51478 418.91056,265.95853 C 418.88556,265.78228 418.81181,265.57978 418.77306,265.37228 C 418.71306,265.06603 418.63931,264.71478 418.61306,264.37103 C 418.57431,263.85228 418.54431,263.21353 418.54431,263.12728 C 418.54431,263.04103 418.60931,262.46603 418.63556,262.15978 C 418.88931,259.13728 420.16056,255.59728 423.69181,252.92353 C 424.17056,252.56103 424.66431,252.18853 425.21181,251.90853 C 426.28556,251.35228 427.42556,250.89728 428.52931,250.74603 C 428.61931,250.73353 430.13181,250.48353 430.39931,250.48353"
         id="path47"
         style="fill:#009ee0;fill-opacity:1;fill-rule:nonzero;stroke:none" />
      <path
         d="M 410.23506,257.35915 L 406.80631,264.51665 L 411.16131,264.51665 L 410.23506,257.35915 z M 407.73381,251.10415 L 414.91381,251.10415 L 418.96881,270.77165 L 411.78756,270.77165 L 411.46256,268.2929 L 404.93006,268.2929 L 403.35506,270.77165 L 396.17381,270.77165 L 407.73381,251.10415 z"
         id="path51"
         style="fill:#009ee0;fill-opacity:1;fill-rule:nonzero;stroke:none" />
      <path
         d="M 279.37818,251.10465 L 285.91068,251.10465 L 286.25818,263.5909 L 291.23818,251.10465 L 297.16818,251.10465 L 297.49318,263.5909 L 302.14943,251.10465 L 309.02943,251.10465 L 300.27318,270.77215 L 292.79068,270.77215 L 292.48943,258.58715 L 287.48568,270.77215 L 280.30443,270.77215 L 279.37818,251.10465 z"
         id="path55"
         style="fill:#009ee0;fill-opacity:1;fill-rule:nonzero;stroke:none" />
      <path
         d="M 382.73956,250.45603 C 388.73831,250.45603 392.39831,252.98103 392.21331,258.14728 L 385.81956,258.14728 C 385.54206,256.10853 384.29206,255.48228 382.73956,255.48228 C 380.53956,255.48228 378.05956,257.03478 377.22581,261.66728 C 376.20706,267.38978 383.66581,267.96853 384.93956,264.53978 L 382.06706,264.53978 L 382.94831,260.34728 L 392.21331,260.34728 L 389.98956,270.93353 L 385.81956,270.93353 L 385.81956,269.17353 C 385.86706,269.21978 383.66581,270.86478 381.85956,271.16478 C 376.80956,272.02228 371.50456,270.74853 370.39331,265.65228 C 368.95581,258.98103 373.68206,250.47978 382.73956,250.45603"
         id="path59"
         style="fill:#009ee0;fill-opacity:1;fill-rule:nonzero;stroke:none" />
      <path
         d="M 358.39306,264.51715 L 362.74806,264.51715 L 361.82181,257.35965 L 358.39306,264.51715 z M 354.94181,270.77215 L 347.76056,270.77215 L 359.31931,251.10465 L 366.50056,251.10465 L 370.55431,270.77215 L 363.37306,270.77215 L 363.04931,268.2934 L 356.51681,268.2934 L 354.94181,270.77215 z"
         id="path63"
         style="fill:#009ee0;fill-opacity:1;fill-rule:nonzero;stroke:none" />
      <path
         d="M 323.69231,270.77178 L 327.12106,251.10428 L 336.17856,251.10428 L 337.72981,263.28928 L 344.00731,251.10428 L 352.11606,251.10428 L 348.36231,270.77178 L 342.13106,270.77178 L 344.91106,258.58678 L 338.37856,270.77178 L 333.67606,270.77178 L 332.12481,258.28553 L 330.24731,270.77178 L 323.69231,270.77178 z"
         id="path67"
         style="fill:#009ee0;fill-opacity:1;fill-rule:nonzero;stroke:none" />
      <path
         d="M 326.21731,251.10465 L 325.29106,255.7834 L 314.68106,255.7834 L 314.03231,258.9109 L 323.08981,258.9109 L 322.18606,263.28965 L 313.12981,263.28965 L 312.48106,266.09215 L 323.41481,266.09215 L 322.48731,270.77215 L 304.99856,270.77215 L 309.05231,251.10465 L 326.21731,251.10465 z"
         id="path71"
         style="fill:#009ee0;fill-opacity:1;fill-rule:nonzero;stroke:none" />
    </g>
  </g>
</svg>
