<?xml version="1.0" encoding="iso-8859-1"?>
<!-- Created with Inkscape (http://www.inkscape.org/) -->
<svg height="768" id="svg4024" version="1.1" viewBox="-207.5 -192.0 1245.0 1152.0" width="830" xmlns="http://www.w3.org/2000/svg" xmlns:cc="http://creativecommons.org/ns#" xmlns:dc="http://purl.org/dc/elements/1.1/" xmlns:rdf="http://www.w3.org/1999/02/22-rdf-syntax-ns#" xmlns:svg="http://www.w3.org/2000/svg">
	
	
  
	
	<defs id="defs4026">
		
		
    
		
		<clipPath id="clipPath3887">
			
			
      
			
			<path animation_id="0" d="m 104.882,600.575 113.263,0 0,102.966 -113.263,0 0,-102.966 z" id="path3889"/>
			
			
    
		
		</clipPath>
		
		
  
	
	</defs>
	
	
  
	
	<metadata id="metadata4029">
		
		
    
		
		<rdf:RDF>
			
			
      
			
			<cc:Work rdf:about="">
				
				
        
				
				<dc:format>image/svg+xml</dc:format>
				
				
        
				
				<dc:type rdf:resource="http://purl.org/dc/dcmitype/StillImage"/>
				
				
        
				
				<dc:title/>
				
				
      
			
			</cc:Work>
			
			
    
		
		</rdf:RDF>
		
		
  
	
	</metadata>
	
	
  
	
	<g id="layer1">
		
		
    
		
		<g id="g4681" transform="matrix(1.2221,0,0,1.2221,-138.8334,-61.288582)">
			
			
      
			
			<g id="g3891" style="fill:#004475;fill-opacity:1" transform="matrix(6.25,0,0,-6.25,199.20013,62.931225)">
				
				
        
				
				<path animation_id="1" d="m 0,0 81.535,0 c 6.511,0.011 11.827,-5.277 11.874,-11.807 l 0,-73.369 c -0.047,-6.47 -5.363,-11.757 -11.874,-11.806 l -81.535,0 c -6.573,0.049 -11.89,5.336 -11.873,11.806 l 0,73.369 C -11.89,-5.277 -6.573,0.011 0,0" id="path3893" style="fill:#004475;fill-opacity:1;fill-rule:nonzero;stroke:none"/>
				
				
      
			
			</g>
			
			
      
			
			<path animation_id="2" d="m 199.20013,62.931225 509.59375,0 c 40.69375,-0.06875 73.91875,32.98125 74.2125,73.793745 l 0,458.55626 c -0.29375,40.43749 -33.51875,73.48124 -74.2125,73.78749 l -509.59375,0 c -41.08125,-0.30625 -74.3125,-33.35 -74.20625,-73.78749 l 0,-458.55626 c -0.10625,-40.812495 33.125,-73.862495 74.20625,-73.793745 z" id="path3897" style="fill:#004475;fill-opacity:1;stroke:#004475;stroke-width:12.86874962;stroke-linecap:butt;stroke-linejoin:miter;stroke-miterlimit:3.86400008;stroke-opacity:1;stroke-dasharray:none"/>
			
			
      
			
			<g id="g3899" transform="matrix(6.25,0,0,-6.25,214.27263,364.26623)">
				
				
        
				
				<path animation_id="3" d="m 0,0 c 0,1.523 -0.617,2.88 -2.12,3.54 1.112,0.679 1.729,1.831 1.729,3.087 0,2.737 -1.996,4.034 -4.487,4.034 l -5.145,0 0,-14.818 5.331,0 C -1.502,-4.157 0,-2.264 0,0 m -3.067,6.586 c 0,-1.358 -0.946,-2.12 -2.078,-2.12 l -2.285,0 0,4.013 2.182,0 c 1.667,0 2.181,-0.7 2.181,-1.893 m 0.309,-6.34 c 0,-1.563 -0.576,-2.222 -2.511,-2.222 l -2.161,0 0,4.282 2.1,0 c 1.749,0 2.572,-0.639 2.572,-2.06" id="path3901" style="fill:#ffffff;fill-opacity:1;fill-rule:evenodd;stroke:none"/>
				
				
      
			
			</g>
			
			
      
			
			<path animation_id="4" d="m 236.272,297.63435 -16.08125,0 0,92.6125 16.08125,0 0,-92.6125 z" id="path3903" style="fill:#ffffff;fill-opacity:1;fill-rule:nonzero;stroke:none"/>
			
			
      
			
			<g id="g3905" transform="matrix(6.25,0,0,-6.25,297.98144,356.80191)">
				
				
        
				
				<path animation_id="5" d="M 0,0 C 0,1.111 -0.124,2.16 -0.432,3.045 -0.988,4.63 -2.202,5.68 -4.549,5.68 -6.915,5.68 -8.13,4.63 -8.706,3.045 -9.015,2.16 -9.138,1.13 -9.138,0 c 0,-1.133 0.123,-2.183 0.432,-3.067 0.576,-1.565 1.811,-2.615 4.157,-2.615 2.326,0 3.54,1.05 4.117,2.615 C -0.124,-2.183 0,-1.133 0,0 m -2.614,0 c 0,-2.717 -0.679,-3.479 -1.935,-3.479 -0.802,0 -1.379,0.309 -1.688,1.173 -0.185,0.535 -0.288,1.276 -0.288,2.306 0,1.029 0.103,1.79 0.288,2.325 0.309,0.865 0.886,1.153 1.688,1.153 0.782,0 1.338,-0.288 1.647,-1.173 C -2.717,1.769 -2.614,1.029 -2.614,0" id="path3907" style="fill:#ffffff;fill-opacity:1;fill-rule:evenodd;stroke:none"/>
				
				
      
			
			</g>
			
			
      
			
			<g id="g3909" transform="matrix(6.25,0,0,-6.25,359.98138,390.25004)">
				
				
        
				
				<path animation_id="6" d="m 0,0 0,7.697 c 0,2.676 -1.77,3.334 -3.169,3.334 -1.626,0 -2.449,-0.761 -3.026,-1.461 l 0,5.248 -2.573,0 0,-14.818 2.573,0 0,6.319 c 0,1.254 0.906,2.366 2.079,2.366 0.988,0 1.544,-0.576 1.544,-1.441 L -2.572,0 0,0 z" id="path3911" style="fill:#ffffff;fill-opacity:1;fill-rule:nonzero;stroke:none"/>
				
				
      
			
			</g>
			
			
      
			
			<g id="g3913" transform="matrix(6.25,0,0,-6.25,455.932,390.25004)">
				
				
        
				
				<path animation_id="7" d="m 0,0 0,7.697 c 0,2.676 -1.543,3.334 -2.942,3.334 -1.729,0 -2.614,-0.823 -3.149,-1.502 -0.515,1.173 -1.605,1.502 -2.593,1.502 -1.647,0 -2.408,-0.823 -2.923,-1.523 l -0.062,1.194 -2.388,0 0,-10.702 2.573,0 0,6.319 c 0,1.254 0.68,2.366 1.853,2.366 0.987,0 1.317,-0.576 1.317,-1.441 l 0,-7.244 2.572,0 0,6.319 c 0,1.254 0.68,2.366 1.853,2.366 0.987,0 1.317,-0.576 1.317,-1.441 L -2.572,0 0,0 z" id="path3915" style="fill:#ffffff;fill-opacity:1;fill-rule:nonzero;stroke:none"/>
				
				
      
			
			</g>
			
			
      
			
			<g id="g3917" transform="matrix(6.25,0,0,-6.25,603.07081,297.63623)">
				
				
        
				
				<path animation_id="8" d="M 0,0 -2.675,0 -5.576,-10.867 -8.355,0 l -2.8,0 4.24,-14.818 2.656,0 L 0,0 z" id="path3919" style="fill:#ffffff;fill-opacity:1;fill-rule:nonzero;stroke:none"/>
				
				
      
			
			</g>
			
			
      
			
			<g id="g3921" transform="matrix(6.25,0,0,-6.25,651.03262,356.80191)">
				
				
        
				
				<path animation_id="9" d="M 0,0 C 0,1.111 -0.123,2.16 -0.43,3.045 -0.986,4.63 -2.202,5.68 -4.548,5.68 -6.915,5.68 -8.128,4.63 -8.705,3.045 -9.012,2.16 -9.138,1.13 -9.138,0 c 0,-1.133 0.126,-2.183 0.433,-3.067 0.577,-1.565 1.811,-2.615 4.157,-2.615 2.327,0 3.541,1.05 4.118,2.615 C -0.123,-2.183 0,-1.133 0,0 m -2.613,0 c 0,-2.717 -0.679,-3.479 -1.935,-3.479 -0.801,0 -1.378,0.309 -1.688,1.173 -0.185,0.535 -0.286,1.276 -0.286,2.306 0,1.029 0.101,1.79 0.286,2.325 0.31,0.865 0.887,1.153 1.688,1.153 0.783,0 1.339,-0.288 1.646,-1.173 C -2.715,1.769 -2.613,1.029 -2.613,0" id="path3923" style="fill:#ffffff;fill-opacity:1;fill-rule:evenodd;stroke:none"/>
				
				
      
			
			</g>
			
			
      
			
			<g id="g3925" transform="matrix(6.25,0,0,-6.25,707.25763,335.06747)">
				
				
        
				
				<path animation_id="10" d="m 0,0 c -0.556,1.482 -1.977,2.202 -3.952,2.202 -2.1,0 -3.171,-0.843 -3.623,-1.708 -0.288,-0.535 -0.39,-1.173 -0.39,-1.688 0,-0.493 0.144,-1.276 0.575,-1.811 0.248,-0.309 0.638,-0.617 1.194,-0.885 0.329,-0.165 0.7,-0.309 1.112,-0.453 1.645,-0.535 2.532,-0.639 2.532,-1.585 0,-0.782 -0.742,-1.07 -1.688,-1.07 -1.071,0 -1.667,0.576 -2.079,1.235 L -8.48,-6.689 c 0.267,-0.7 0.823,-1.379 1.523,-1.79 0.721,-0.413 1.482,-0.68 2.84,-0.68 1.688,0 2.861,0.638 3.356,1.235 0.288,0.371 0.718,0.968 0.718,2.099 0,0.782 -0.184,1.38 -0.43,1.792 -0.331,0.534 -0.988,1.11 -2.573,1.543 -1.544,0.411 -2.49,0.76 -2.49,1.502 0,0.371 0.123,0.638 0.369,0.823 0.288,0.226 0.7,0.329 1.256,0.329 1.092,0 1.584,-0.535 1.832,-1.111 L 0,0 z" id="path3927" style="fill:#ffffff;fill-opacity:1;fill-rule:nonzero;stroke:none"/>
				
				
      
			
			</g>
			
			
      
			
			<g id="g3929" transform="matrix(6.25,0,0,-6.25,763.3345,335.06747)">
				
				
        
				
				<path animation_id="11" d="m 0,0 c -0.556,1.482 -1.977,2.202 -3.952,2.202 -2.1,0 -3.171,-0.843 -3.623,-1.708 -0.288,-0.535 -0.39,-1.173 -0.39,-1.688 0,-0.493 0.144,-1.276 0.575,-1.811 0.248,-0.309 0.638,-0.617 1.194,-0.885 0.329,-0.165 0.7,-0.309 1.112,-0.453 1.646,-0.535 2.53,-0.639 2.53,-1.585 0,-0.782 -0.74,-1.07 -1.686,-1.07 -1.071,0 -1.667,0.576 -2.079,1.235 L -8.48,-6.689 c 0.267,-0.7 0.823,-1.379 1.523,-1.79 0.721,-0.413 1.482,-0.68 2.84,-0.68 1.688,0 2.861,0.638 3.356,1.235 0.288,0.371 0.718,0.968 0.718,2.099 0,0.782 -0.184,1.38 -0.43,1.792 -0.331,0.534 -0.988,1.11 -2.573,1.543 -1.544,0.411 -2.49,0.76 -2.49,1.502 0,0.371 0.123,0.638 0.369,0.823 0.288,0.226 0.7,0.329 1.256,0.329 1.09,0 1.584,-0.535 1.832,-1.111 L 0,0 z" id="path3931" style="fill:#ffffff;fill-opacity:1;fill-rule:nonzero;stroke:none"/>
				
				
      
			
			</g>
			
			
      
			
			<g id="g3933" transform="matrix(6.25,0,0,-6.25,539.35269,359.13741)">
				
				
        
				
				<path animation_id="12" d="m 0,0 0,2.144 -4.94,0 0,4.958 -2.143,0 0,-4.958 -5.02,0 0,-2.144 5.02,0 0,-4.974 2.143,0 L -4.94,0 0,0 z" id="path3935" style="fill:#ffffff;fill-opacity:1;fill-rule:nonzero;stroke:none"/>
				
				
      
			
			</g>
			
			
    
		
		</g>
		
		
  
	
	</g>
	
	


</svg>
