<?xml version="1.0" encoding="iso-8859-1"?>
<!-- Created with Inkscape (http://www.inkscape.org/) -->
<svg height="289.13385" id="svg3930" version="1.1" viewBox="-178.9369975 -72.2834625 1073.621985 433.700775" width="715.74799" xmlns="http://www.w3.org/2000/svg" xmlns:cc="http://creativecommons.org/ns#" xmlns:dc="http://purl.org/dc/elements/1.1/" xmlns:rdf="http://www.w3.org/1999/02/22-rdf-syntax-ns#" xmlns:svg="http://www.w3.org/2000/svg">
	
	
  
	
	<defs id="defs3932"/>
	
	
  
	
	<metadata id="metadata3935">
		
		
    
		
		<rdf:RDF>
			
			
      
			
			<cc:Work rdf:about="">
				
				
        
				
				<dc:format>image/svg+xml</dc:format>
				
				
        
				
				<dc:type rdf:resource="http://purl.org/dc/dcmitype/StillImage"/>
				
				
        
				
				<dc:title/>
				
				
      
			
			</cc:Work>
			
			
    
		
		</rdf:RDF>
		
		
  
	
	</metadata>
	
	
  
	
	<g id="layer1" transform="translate(-7.3095557,-400.63937)">
		
		
    
		
		<g id="g3963" transform="matrix(2.2114657,0,0,2.2114657,-939.08115,-471.76757)">
			
			
      
			
			<path animation_id="0" d="m 444.24325,498.33293 c -4.82375,0 -6.78625,4.2625 -6.78625,9.7025 0,5.43875 2.13125,10.71125 6.44875,10.71125 4.99125,0 7.1225,-5.38375 7.1225,-10.9925 0,-4.87875 -2.29875,-9.42125 -6.785,-9.42125 z m 6.785,24.2275 0,-4.0375 c -1.9625,2.355 -4.87875,4.71 -9.2525,4.71 -7.3475,0 -12.22625,-6.05625 -12.22625,-15.03 0,-7.29 5.27125,-14.35625 12.78625,-14.35625 3.64625,0 6.89875,1.4575 8.58125,3.925 l 0.11125,-12.33 7.45875,-5.3125 0,42.43125 -7.45875,0" id="path3790" style="fill:#211e1f;fill-opacity:1;fill-rule:evenodd;stroke:none"/>
			
			
      
			
			<path animation_id="1" d="m 484.20575,522.56043 7.40375,0 0,-28.04125 -7.46,0 0,16.2075 c 0,5.10375 -3.02875,7.29125 -5.6075,7.29125 -3.53375,0 -5.2725,-2.58 -5.2725,-6.50625 l 0,-16.9925 -7.45875,0 0,18.05875 c 0,7.06625 3.4775,10.655 9.4775,10.655 3.53375,0 6.2825,-1.51375 8.9175,-4.15 l 0,3.4775" id="path3792" style="fill:#211e1f;fill-opacity:1;fill-rule:evenodd;stroke:none"/>
			
			
      
			
			<path animation_id="2" d="m 506.67575,494.51918 -7.459,0 0,28.04125 7.459,0 0,-28.04125 z m -7.45875,0 z m 3.70125,-3.70125 c 2.7475,0 4.48625,-2.3 4.48625,-4.71125 0,-2.1875 -2.01875,-4.31875 -4.59875,-4.31875 -2.52375,0 -4.31875,2.1875 -4.31875,4.31875 0,2.41125 1.795,4.71125 4.43125,4.71125" id="path3794" style="fill:#211e1f;fill-opacity:1;fill-rule:evenodd;stroke:none"/>
			
			
      
			
			<path animation_id="3" d="m 531.8945,496.42543 c -2.01875,-1.79375 -5.0475,-2.57875 -8.1325,-2.57875 -5.495,0 -9.7575,3.30875 -9.7575,7.73875 0,3.4775 2.1875,5.60875 5.38375,7.795 2.69125,1.9075 5.60875,3.365 5.60875,6.00125 0,2.35625 -1.9075,3.4775 -4.03875,3.4775 -2.01875,0 -4.43,-1.34625 -6.1125,-2.6925 l -2.35625,3.87 c 2.63625,1.85 5.49625,3.19625 9.36625,3.19625 6.16875,0 10.4875,-4.15 10.4875,-8.075 0,-2.58 -1.1775,-5.49625 -5.16,-8.46875 -3.14,-2.3 -5.8325,-3.58875 -5.8325,-5.8325 0,-1.9075 1.6825,-2.86 3.365,-2.86 1.34625,0 3.085,0.56 4.7675,1.79375 l 2.41125,-3.365" id="path3796" style="fill:#211e1f;fill-opacity:1;fill-rule:nonzero;stroke:none"/>
			
			
      
			
			<path animation_id="4" d="m 553.45575,484.24293 c 4.2625,0 6.39375,4.82375 6.39375,9.64625 0,4.935 -1.6825,10.7675 -6.67375,10.7675 -4.0375,0 -6.89875,-3.98125 -6.89875,-9.87 0,-6.45 2.46875,-10.54375 7.17875,-10.54375 z m -7.17875,-3.81375 -7.45875,0 0,42.0625 7.45875,0 0,-17.4975 c 2.075,2.4675 4.9925,4.14875 8.4125,4.14875 8.02,0 13.0675,-7.9075 13.0675,-15.31 0,-6.16875 -3.58875,-14.07625 -12.39375,-14.07625 -3.365,0 -7.01125,1.6825 -8.97375,4.5425 l -0.1125,0 0,-3.87" id="path3798" style="fill:#211e1f;fill-opacity:1;fill-rule:evenodd;stroke:none"/>
			
			
      
			
			<path animation_id="5" d="m 586.91325,509.14293 c 8.805,0 14.75,-6.33625 14.75,-15.03 0,-9.085 -7.17875,-14.35625 -14.75,-14.35625 -7.515,0 -14.6925,5.27125 -14.6925,14.35625 0,8.69375 5.94375,15.03 14.6925,15.03 z m 0,-4.14875 c -5.3275,0 -6.785,-5.945 -6.785,-10.88125 0,-4.65375 1.6825,-10.20625 6.785,-10.20625 5.21625,0 6.8425,5.5525 6.8425,10.20625 0,4.93625 -1.4025,10.88125 -6.8425,10.88125" id="path3800" style="fill:#211e1f;fill-opacity:1;fill-rule:evenodd;stroke:none"/>
			
			
      
			
			<path animation_id="6" d="m 613.1045,480.42918 -7.40375,0 0,28.04125 7.46,0 0,-13.8525 c 0,-6.05625 2.5225,-8.13125 5.1025,-8.13125 1.515,0 2.3,0.33625 3.53375,0.95375 l 2.80375,-5.16 c -1.57,-1.62625 -3.365,-2.52375 -5.0475,-2.52375 -2.29875,0 -3.925,2.2425 -4.8225,3.42125 l -1.515,2.1875 -0.11125,0 0,-4.93625" id="path3802" style="fill:#211e1f;fill-opacity:1;fill-rule:nonzero;stroke:none"/>
			
			
      
			
			<path animation_id="7" d="m 636.97575,468.34918 -7.45875,5.35 0,6.73 -3.92625,0 0,3.81375 3.92625,0 0,15.9275 c 0,5.72 2.69125,8.9725 8.86125,8.9725 2.4675,0 5.15875,-0.61625 7.34625,-1.79375 l -1.29,-3.70125 c -1.01,0.50375 -1.9625,0.95375 -3.58875,0.95375 -2.4675,0 -3.87,-1.96375 -3.87,-6.5625 l 0,-13.79625 7.34625,0 0,-3.81375 -7.34625,0 0,-12.08" id="path3804" style="fill:#211e1f;fill-opacity:1;fill-rule:nonzero;stroke:none"/>
			
			
      
			
			<path animation_id="8" d="m 717.90825,396.35293 -1.9225,0.33875 0.79125,-0.565 1.13125,0.22625 z m 0,10.18875 -16.62875,0.905 2.715,-1.92375 13.91375,1.01875 z m 0,14.7175 -39.02625,2.49 5.995,-4.415 33.03125,1.925 z m 0,59.66125 -42.64625,2.49125 37.44375,2.60375 -37.44375,2.26375 31.9,1.585 -2.14875,1.585 -29.75125,1.81125 25.1125,1.585 -2.8275,2.03875 -22.285,1.58375 18.665,1.1325 -3.50625,2.49125 -15.15875,1.01875 12.67,0.7925 -4.9775,3.6225 -7.58,0.67875 6.335,0.34 -17.8725,12.7925 0,-86.60625 14.47875,-10.5275 39.5925,2.0375 -42.64625,2.49 42.64625,2.49125 -42.64625,2.60375 42.64625,2.3775 -42.64625,2.49125 42.64625,2.49 -42.64625,2.49 42.64625,2.49125 -42.64625,2.26375 42.64625,2.7175 -42.64625,2.26375 42.64625,2.7175 -42.64625,2.49 42.64625,2.3775 -42.64625,2.605 42.64625,2.37625 -42.64625,2.3775 42.64625,2.60375 -42.64625,2.3775 42.64625,2.3775 -42.64625,2.60375 42.64625,2.60375 z m 0,-79.58625 -9.1625,0.67875 1.58375,-1.1325 7.57875,0.45375 z m 0,10.18875 -23.98125,1.245 3.62,-2.60375 20.36125,1.35875 z m 0,4.98125 -30.995,1.35875 4.4125,-3.17 26.5825,1.81125" id="path3806" style="fill:#02a6ed;fill-opacity:1;fill-rule:evenodd;stroke:none"/>
			
			
      
			
			<path animation_id="9" d="m 749.99825,484.99668 -14.47875,10.52875 -39.5925,-2.03875 42.64625,-2.9425 -42.64625,-2.03875 42.64625,-2.6025 -42.64625,-2.3775 42.64625,-2.7175 -42.64625,-2.26375 42.64625,-2.83125 -42.64625,-2.15125 42.64625,-2.60375 -42.64625,-2.3775 42.64625,-2.71625 -42.64625,-2.26375 42.64625,-2.49125 -42.64625,-2.3775 42.64625,-2.60375 -42.64625,-2.7175 42.64625,-2.0375 -42.64625,-2.94375 42.64625,-2.0375 -42.64625,-2.7175 42.64625,-2.26375 -42.64625,-2.60375 42.64625,-2.49125 -37.4425,-2.60375 37.4425,-2.26375 -31.335,-2.15125 1.81125,-1.35875 29.52375,-1.47125 -25,-1.69875 2.82875,-2.0375 22.17125,-1.3575 -18.55125,-1.24625 3.95875,-2.94375 14.5925,-0.79125 -12.44375,-0.79375 4.75125,-3.39625 7.6925,-0.67875 -6.4475,-0.34 17.8725,-12.7925 0,86.60625 z m -15.15875,10.98125 -5.995,4.415 -32.9175,-1.925 38.9125,-2.49 z m -7.9175,5.8875 -4.41125,3.17 -26.58375,-1.8125 30.995,-1.3575 z m -7.01375,5.09375 -3.62,2.60375 -20.36125,-1.35875 23.98125,-1.245 z m -7.3525,5.32125 -2.715,1.92375 -13.91375,-1.01875 16.62875,-0.905 z m -7.46625,5.43375 -1.58375,1.1325 -7.57875,-0.4525 9.1625,-0.68 z m -7.24,5.32125 -1.9225,0.34 1.13125,0.22625 0.79125,-0.56625" id="path3808" style="fill:#015dab;fill-opacity:1;fill-rule:evenodd;stroke:none"/>
			
			
    
		
		</g>
		
		
  
	
	</g>
	
	


</svg>
