<?xml version="1.0" encoding="iso-8859-1"?>
<svg height="167" viewBox="-196.74843999999996 -41.75 1180.49064 250.5" width="786.99377" xmlns="http://www.w3.org/2000/svg">
	
	
  
	
	<path animation_id="0" d="m0 0h-19.172c-.491 0-.889-.398-.889-.89v-2.148c0-.492.398-.89.889-.89h19.172c.492 0 .889.398.889.89v2.148c0 .492-.397.89-.889.89" fill="#ee7726" transform="matrix(5.10790840564 0 0 -5.10790840564 621.92397011857 146.9361305016)"/>
	
	
  
	
	<path animation_id="1" d="m0 0v-15.019c0-.491.372-.889.832-.889h6.84c.46 0 .832.398.832.889v15.019c0 .492-.372.889-.832.889h-6.84c-.46 0-.832-.397-.832-.889" fill="#ee7726" transform="matrix(5.10790840564 0 0 -5.10790840564 551.24175855229 12.10472053905)"/>
	
	
  
	
	<g fill="#646363">
		
		
    
		
		<path animation_id="2" d="m0 0h-9.438c-2.728 0-4.393-1.726-4.569-4.735-.001-.017-.002-.034-.002-.052l-.001-18.808c0-.235.094-.461.26-.627.167-.167.393-.26.628-.26h3.545v19.832c0 .12.097.217.216.217h9.774c.12 0 .217-.097.217-.217v-19.832h3.515.029c.23 0 .452.089.619.249.172.167.27.398.27.639v18.728c0 3.093-1.846 4.866-5.063 4.866" transform="matrix(5.10790840564 0 0 -5.10790840564 294.81671162958 .13229417169)"/>
		
		
    
		
		<path animation_id="3" d="m0 0c0-.12-.097-.217-.217-.217l-9.603-.005c-.12 0-.217.097-.217.217v15.182c0 .12.097.217.217.217h9.603c.12 0 .217-.097.217-.217zm3.077 18.522c-.889.866-2.02 1.304-3.364 1.304h-10.637-1.329-2.216v-24.481h2.359 1.186 10.785c2.863 0 4.572 1.747 4.572 4.674v15.182c0 1.327-.456 2.444-1.356 3.321" transform="matrix(5.10790840564 0 0 -5.10790840564 420.80788181314 101.40628097318)"/>
		
		
    
		
		<path animation_id="4" d="m0 0h-2.661c-.491 0-.888-.398-.888-.89v-18.962c0-.12-.097-.217-.217-.217l-11.656.008h.018c-.12 0-.217.097-.217.217l-.001 18.954c0 .492-.398.89-.889.89h-2.661c-.491 0-.889-.398-.889-.89v-18.839c0-2.993 1.785-4.779 4.775-4.779h11.695c2.805 0 4.481 1.75 4.481 4.681v18.937c0 .492-.398.89-.89.89" transform="matrix(5.10790840564 0 0 -5.10790840564 621.92397011857 .00000084167)"/>
		
		
    
		
		<path animation_id="5" d="m0 0-.14.001c-.12 0-.217.097-.217.217v5.26c.001.119.097.216.217.216h11.822c-.167 2.825-1.987 4.433-5.051 4.433h-11.42v-24.482h4.432v9.706c0 .12.097.217.217.217h8.547v4.432z" transform="matrix(5.10790840564 0 0 -5.10790840564 24.46177305512 51.86007821183)"/>
		
		
    
		
		<path animation_id="6" d="m0 0c0-.12-.097-.217-.216-.217l-9.784.005c-.113.007-.205.097-.205.212v15.182c0 .12.097.217.217.217h9.771c.12 0 .217-.097.217-.217v-.005zm3.08 18.527c-.889.866-2.021 1.304-3.364 1.304h-9.585c-2.986 0-4.768-1.692-4.768-4.526v-15.281c0-1.297.412-2.402 1.224-3.286.833-.908 1.99-1.388 3.347-1.388h9.93c2.862 0 4.572 1.747 4.572 4.674v15.182c0 1.327-.456 2.444-1.356 3.321" transform="matrix(5.10790840564 0 0 -5.10790840564 174.37531464062 101.42977563925)"/>
		
		
    
		
		<path animation_id="7" d="m0 0v3.981c0 .492-.398.89-.889.89h-2.661c-.492 0-.889-.398-.889-.89v-18.721-3.982c0-.491.398-.889.889-.889h2.661c.491 0 .889.398.889.889z" transform="matrix(5.10790840564 0 0 -5.10790840564 492.33046669174 25.01137354971)"/>
		
		
    
		
		<path animation_id="8" d="m0 0v-.009zm10.315 4.433h-5.743c-.781-.002-1.473-.341-2.072-.824-.816.533-1.867.824-3.147.824h-5.743c-2.728 0-4.393-1.726-4.569-4.735-.001-.017-.002-.034-.002-.052l-.001-18.788c0-.235.094-.461.26-.627.167-.167.393-.26.628-.26l2.674-.02h.029c.23 0 .451.089.618.249.172.167.27.398.27.639v18.944c0 .12.097.217.217.217h6.049c.12 0 .217-.097.217-.217v-18.944c0-.241.097-.472.27-.639.166-.16.388-.249.618-.249h.029l1.322.01 1.257-.009.003-.001h.029.004.03.028c.23 0 .452.089.619.249.172.167.27.398.27.639v18.944c0 .12.097.217.217.217h6.049c.12 0 .217-.097.217-.217v-.241-18.703c0-.241.097-.472.27-.639.166-.16.388-.249.618-.249h.029 2.469.112.029c.23 0 .452.089.619.249.172.167.27.398.27.639v18.728c0 3.093-1.846 4.866-5.063 4.866" transform="matrix(5.10790840564 0 0 -5.10790840564 708.44438128889 22.77565360561)"/>
		
		
  
	
	</g>
	
	


</svg>
