<?xml version="1.0" encoding="iso-8859-1"?>
<!DOCTYPE svg
  PUBLIC '-//W3C//DTD SVG 1.1//EN'
  'http://www.w3.org/Graphics/SVG/1.1/DTD/svg11.dtd'>
<svg height="141.73" id="svg50616" version="1.1" viewBox="-85.04 -35.4325 510.24000000000007 212.595" width="340.16" xmlns="http://www.w3.org/2000/svg" xmlns:svg="http://www.w3.org/2000/svg">
	
	
  
	
	<defs id="defs50618"/>
	
	
  
	
	<path animation_id="0" d="m 273.22901,72.691996 v -24.055 h 6.485 v 4.535 c 1.679,-3.387 4.235,-5.082 7.667,-5.082 0.409,0 0.812,0.043 1.206,0.131 v 5.784 c -0.921,-0.335 -1.774,-0.503 -2.563,-0.504 -2.586,0 -4.688,1.308 -6.31,3.921 v 15.271 h -6.485 m -19.848,-14.395 h 8.632 c 0,-4.104 -1.322,-6.155 -3.966,-6.156 -2.688,0 -4.243,2.053 -4.666,6.156 z m 15.008,13.583 c -3.082,0.905 -6.003,1.358 -8.765,1.358 -4.016,0 -7.185,-1.138 -9.507,-3.418 -2.323,-2.277 -3.483,-5.389 -3.483,-9.332 0,-3.725 1.058,-6.719 3.176,-8.983 2.133,-2.278 4.944,-3.417 8.435,-3.417 3.52,0 6.09,1.11 7.712,3.33 1.621,2.22 2.433,5.733 2.433,10.538 h -14.921 c 0.438,4.586 2.958,6.879 7.56,6.879 2.175,0 4.629,-0.504 7.361,-1.512 v 4.557 z m -32.636,0.811 v -4.535 c -2.104,3.389 -4.835,5.082 -8.194,5.082 -2.146,0 -3.841,-0.679 -5.082,-2.037 -1.241,-1.358 -1.862,-3.213 -1.862,-5.564 v -17.001 h 6.484 v 15.401 c 0,2.731 0.913,4.097 2.739,4.097 2.043,0 4.016,-1.452 5.915,-4.359 v -15.139 h 6.485 v 24.056 h -6.485 z m -27.274,-6.068 v -4.886 h -1.533 c -4.193,0 -6.288,1.314 -6.288,3.943 0,0.891 0.299,1.643 0.898,2.257 0.613,0.599 1.364,0.897 2.256,0.897 1.52,10e-4 3.075,-0.736 4.667,-2.211 z m 0,3.483 c -2.163,2.088 -4.478,3.132 -6.945,3.132 -2.104,0 -3.812,-0.641 -5.126,-1.927 -1.314,-1.286 -1.972,-2.951 -1.972,-4.996 0,-2.657 1.058,-4.702 3.176,-6.134 2.132,-1.446 5.179,-2.169 9.137,-2.169 h 1.73 v -2.191 c 0,-2.498 -1.425,-3.747 -4.272,-3.747 -2.527,0 -5.082,0.716 -7.668,2.147 v -4.469 c 2.937,-1.11 5.842,-1.665 8.72,-1.665 6.294,0 9.442,2.505 9.442,7.514 v 10.647 c 0,1.884 0.606,2.826 1.818,2.826 0.219,0 0.504,-0.028 0.854,-0.087 l 0.153,3.636 c -1.373,0.408 -2.586,0.613 -3.637,0.613 -2.657,0 -4.368,-1.044 -5.127,-3.132 h -0.283 z m -34.031,-3.703 c 1.578,1.753 3.257,2.629 5.04,2.629 1.591,0 2.862,-0.767 3.812,-2.3 0.949,-1.548 1.424,-3.607 1.425,-6.179 0,-4.921 -1.587,-7.382 -4.755,-7.383 -1.914,0 -3.753,1.234 -5.521,3.703 v 9.53 z m -6.483,6.288 v -34.593 h 6.483 v 15.073 c 1.666,-3.387 4.287,-5.082 7.866,-5.082 2.892,0 5.162,1.059 6.812,3.176 1.666,2.118 2.497,5.032 2.497,8.741 0,4.018 -0.935,7.23 -2.804,9.64 -1.868,2.396 -4.367,3.593 -7.491,3.593 -2.688,0 -4.982,-0.992 -6.881,-2.979 l -1.204,2.432 h -5.278 z m -27.401,0 v -24.055 h 6.485 v 4.535 c 2.117,-3.387 4.848,-5.082 8.193,-5.082 2.147,0 3.841,0.679 5.083,2.038 1.241,1.358 1.861,3.213 1.861,5.564 v 17.001 h -6.484 v -15.402 c 0,-2.731 -0.906,-4.096 -2.717,-4.097 -2.059,0 -4.039,1.453 -5.937,4.36 v 15.139 h -6.484 z m -19.986,-14.394 h 8.632 c 0,-4.104 -1.322,-6.155 -3.966,-6.156 -2.688,0 -4.243,2.053 -4.666,6.156 z m 15.007,13.583 c -3.083,0.905 -6.003,1.358 -8.764,1.358 -4.017,0 -7.186,-1.138 -9.508,-3.418 -2.322,-2.277 -3.483,-5.389 -3.483,-9.332 0,-3.725 1.058,-6.719 3.177,-8.983 2.131,-2.278 4.944,-3.417 8.435,-3.417 3.519,0 6.089,1.11 7.711,3.33 1.621,2.22 2.432,5.733 2.432,10.538 h -14.92 c 0.438,4.586 2.958,6.879 7.559,6.879 2.176,0 4.63,-0.504 7.361,-1.512 v 4.557 z m -32.321,-8.15 v -8.872 c -1.563,-1.767 -3.199,-2.65 -4.907004,-2.651 -1.637,0 -2.936,0.745 -3.9,2.234 -0.963,1.49 -1.446,3.491 -1.446,6.003 0,4.703 1.512,7.055 4.535,7.055 2.088,0 3.994004,-1.256 5.718004,-3.769 z m -14.963004,16.431 0.526,-4.709 c 2.672,1.226 5.221,1.839 7.646,1.839 2.395,0 4.125004,-0.511 5.192004,-1.532 1.066,-1.023 1.599,-2.681 1.599,-4.974 v -3.286 c -1.577,3.461 -4.185004,5.192 -7.821004,5.192 -2.863,0 -5.134,-1.065 -6.813,-3.198 -1.681,-2.147 -2.52,-5.047 -2.52,-8.698 0,-3.841 0.942,-6.916 2.826,-9.223 1.884,-2.323 4.388,-3.484 7.515,-3.484 2.453,0 4.724004,0.993 6.813004,2.979 l 0.679,-2.432 h 5.827 v 18.359 c 0,3.666 -0.226,6.309 -0.679,7.932 -0.438,1.62 -1.3,3 -2.585,4.141 -2.163,1.868 -5.208,2.802 -9.136004,2.804 -2.789,0 -5.812,-0.57 -9.069,-1.71 z m -20.797,-21.864 h 8.632 c 0,-4.104 -1.322,-6.155 -3.966,-6.156 -2.688,0 -4.243,2.053 -4.666,6.156 z m 15.007,13.583 c -3.083,0.905 -6.003,1.358 -8.764,1.358 -4.017,0 -7.186,-1.138 -9.508,-3.418 -2.323,-2.277 -3.484,-5.389 -3.484,-9.332 0,-3.725 1.059,-6.719 3.177,-8.983 2.132,-2.278 4.944,-3.417 8.435,-3.417 3.52,0 6.09,1.11 7.712,3.33 1.621,2.22 2.432,5.733 2.432,10.538 h -14.92 c 0.438,4.586 2.958,6.879 7.559,6.879 2.176,0 4.629,-0.504 7.361,-1.512 v 4.557 z m -25.964,0.045 c -4.061,1.052 -7.566,1.576 -10.516,1.576 -5.594,0 -9.896,-1.467 -12.904,-4.402 -2.995,-2.95 -4.491,-7.171 -4.491,-12.664 0,-5.447 1.497,-9.639 4.491,-12.575 3.008,-2.936 7.288,-4.404 12.838,-4.404 3.549,0 7.069,0.417 10.56,1.249 v 5.28 c -4.046,-1.387 -7.369,-2.081 -9.968,-2.081 -3.434,0 -6.084,1.095 -7.953,3.286 -1.869,2.19 -2.804,5.294 -2.804,9.312 0,3.885 1,6.938 3.001,9.157 2,2.206 4.761,3.309 8.282,3.309 0.773,0 1.679,-0.109 2.716,-0.329 v -7.752 h -6.667 v -4.554 h 13.387 l 0.028,15.592 z" id="path50606" style="fill:#008abe;fill-rule:evenodd;"/>
	
	
  
	
	<path animation_id="1" d="M 303.45801,106.575 V 96.179996 h 2.091 v 1.109 c 0.698,-0.821 1.641,-1.23 2.748,-1.23 1.62,0 3.464,1.251 3.464,3.607 V 106.575 h -2.09 v -6.191 c 0,-1.415004 -0.883,-2.234004 -2.052,-2.234004 -1.188,0 -2.07,0.819 -2.07,2.234004 v 6.191 h -2.091 m -9.49,-6.13 h 4.387 c -0.062,-1.579004 -0.964,-2.419004 -2.193,-2.419004 -1.229,0 -2.153,0.84 -2.194,2.419004 z m 6.477,1.723 h -6.478 c 0,1.7 1.045,2.562 2.48,2.562 0.799,0 1.66,-0.368 2.275,-1.005 l 1.517,1.292 c -1.025,1.188 -2.357,1.681 -3.752,1.681 -2.131,0 -4.611,-1.024 -4.611,-5.288 0,-4.039004 2.274,-5.351004 4.284,-5.351004 2.296,0 4.284,1.701 4.284,4.387004 v 1.722 z m -26.21,4.407 V 96.179996 h 2.092 v 1.109 c 0.696,-0.821 1.64,-1.23 2.746,-1.23 1.457,0 2.194,0.595 2.933,1.353 0.861,-0.943 1.866,-1.353 3.279,-1.353 1.62,0 3.466,1.251 3.466,3.607 V 106.575 h -2.092 v -6.191 c 0,-1.415004 -0.882,-2.234004 -2.05,-2.234004 -1.188,0 -2.071,0.819 -2.071,2.234004 v 6.191 h -2.09 v -6.191 c 0,-1.415004 -0.882,-2.234004 -2.051,-2.234004 -1.189,0 -2.07,0.819 -2.07,2.234004 v 6.191 h -2.092 z m -9.613,-6.13 h 4.387 c -0.062,-1.579004 -0.964,-2.419004 -2.193,-2.419004 -1.231,0 -2.154,0.84 -2.194,2.419004 z m 6.477,1.723 h -6.477 c 0,1.7 1.045,2.562 2.479,2.562 0.8,0 1.661,-0.368 2.276,-1.005 l 1.517,1.292 c -1.024,1.188 -2.356,1.681 -3.751,1.681 -2.132,0 -4.612,-1.024 -4.612,-5.288 0,-4.039004 2.275,-5.351004 4.284,-5.351004 2.295,0 4.283,1.701 4.283,4.387004 v 1.722 z m -17.783,-0.78 c 0,1.661 0.04,1.949 0.409,2.42 0.287,0.368 0.819,0.8 1.661,0.8 0.82,0 1.353,-0.432 1.64,-0.8 0.369,-0.471 0.41,-0.759 0.41,-2.42 0,-1.682004 -0.041,-1.968004 -0.41,-2.438004 -0.287,-0.369 -0.819,-0.8 -1.64,-0.8 -0.842,0 -1.374,0.431 -1.661,0.8 -0.369,0.47 -0.409,0.756 -0.409,2.438004 z m 4.121,5.167 v -1.065 c -0.656,0.715 -1.619,1.208 -2.686,1.208 -1.353,0 -2.276,-0.676 -2.747,-1.27 -0.594,-0.779 -0.779,-1.169 -0.779,-4.04 0,-2.890004 0.186,-3.279004 0.779,-4.059004 0.471,-0.594 1.395,-1.271 2.747,-1.271 1.066,0 1.907,0.409 2.686,1.23 v -1.108 h 2.091 V 106.33 c 0,3.137 -2.132,4.57 -4.511,4.57 -1.331,0 -2.685,-0.697 -3.606,-1.742 l 1.619,-1.292 c 0.511,0.513 1.229,0.942 2.028,0.942 1.395,10e-4 2.379,-0.797 2.379,-2.253 z m -11.459,-3.629 v -0.758 h -2.502 c -1.229,0 -1.803,0.492 -1.803,1.249 0,0.697 0.553,1.312 1.968,1.312 1.742,0 2.337,-0.184 2.337,-1.803 z m 0,3.649 v -0.923 c -0.472,0.718 -1.189,1.045 -2.604,1.045 -2.317,0 -3.67,-1.373 -3.67,-3.177 0,-1.661 1.147,-3.075 3.383,-3.075 h 2.891 v -1.086004 c 0,-0.983 -0.636,-1.333 -2.132,-1.333 -1.087,0 -1.6,0.205 -1.969,0.8 l -1.641,-1.251 c 0.801,-1.107 1.948,-1.517 3.507,-1.517 2.562,0 4.325,0.86 4.325,3.423 V 106.575 h -2.09 z m -17.277,0 V 96.179996 h 2.091 v 1.109 c 0.697,-0.821 1.639,-1.23 2.746,-1.23 1.62,0 3.465,1.251 3.465,3.607 V 106.575 h -2.091 v -6.191 c 0,-1.415004 -0.881,-2.234004 -2.049,-2.234004 -1.19,0 -2.071,0.819 -2.071,2.234004 v 6.191 h -2.091 z m -5.616,-3.649 v -0.758 h -2.502 c -1.23,0 -1.804,0.492 -1.804,1.249 0,0.697 0.553,1.312 1.968,1.312 1.743,0 2.338,-0.184 2.338,-1.803 z m 0,3.649 v -0.923 c -0.473,0.718 -1.19,1.045 -2.604,1.045 -2.316,0 -3.669,-1.373 -3.669,-3.177 0,-1.661 1.147,-3.075 3.383,-3.075 h 2.891 v -1.086004 c 0,-0.983 -0.636,-1.333 -2.133,-1.333 -1.087,0 -1.6,0.205 -1.968,0.8 l -1.64,-1.251 c 0.8,-1.107 1.947,-1.517 3.505,-1.517 2.562,0 4.326,0.86 4.326,3.423 V 106.575 h -2.091 z m -21.624,0 V 91.978996 h 2.091 l 4.183,9.512004 4.101,-9.512004 h 2.091 V 106.576 h -2.215 v -9.103004 l -3.096,7.012004 h -1.844 l -3.056,-7.012004 -0.04,9.103004 h -2.215 z m -13.602,-0.41 -3.731,-9.985004 h 2.214 l 2.46,7.279004 2.501,-7.279004 h 2.215 l -4.47,12.548004 c -0.574,1.6 -1.661,2.051 -2.932,2.051 h -0.696 v -1.97 h 0.614 c 0.533,0 1.045,-0.286 1.251,-0.9 l 0.574,-1.744 z m -8.624,-9.985004 v -3.155 h 2.092 v 3.155 h 1.517 v 1.601 h -1.517 V 103.829 c 0,0.574 0.224,0.779 0.738,0.779 h 0.778 v 1.968 h -1.087 c -1.455,0 -2.521,-0.923 -2.521,-2.562 v -6.234004 h -1.046 v -1.6 h 1.046 z m -3.708,-2.111 h -2.09 v -2.091 h 2.09 v 2.091 z m 0,12.506004 h -2.09 V 96.179996 h 2.09 V 106.575 z m -8.257,-2.521 V 91.978996 h 2.091 V 103.89 c 0,0.472 0.267,0.718 0.78,0.718 h 0.717 v 1.968 h -0.922 c -1.517,-10e-4 -2.666,-0.657 -2.666,-2.522 z m -3.584,-9.985004 h -2.091 v -2.091 h 2.091 v 2.091 z m 0,12.506004 h -2.091 V 96.179996 h 2.091 V 106.575 z m -5.959,-3.054 1.537,1.373 c -0.901,1.045 -2.153,1.804 -3.731,1.804 -2.399,0 -4.715,-1.516 -4.715,-5.31 0,-3.812004 2.316,-5.329004 4.715,-5.329004 1.578,0 2.83,0.758 3.731,1.804 l -1.537,1.373 c -0.513,-0.636 -1.251,-1.086 -2.112,-1.086 -1.701,0 -2.706,0.964 -2.706,3.238004 0,2.256 1.005,3.22 2.706,3.22 0.861,-0.001 1.599,-0.452 2.112,-1.087 z m -11.726,-0.595 v -0.758 h -2.501 c -1.23,0 -1.805,0.492 -1.805,1.249 0,0.697 0.554,1.312 1.969,1.312 1.742,0 2.337,-0.184 2.337,-1.803 z m 0,3.649 v -0.923 c -0.471,0.718 -1.189,1.045 -2.604,1.045 -2.316,0 -3.669,-1.373 -3.669,-3.177 0,-1.661 1.147,-3.075 3.382,-3.075 h 2.891 v -1.086004 c 0,-0.983 -0.635,-1.333 -2.132,-1.333 -1.086,0 -1.599,0.205 -1.968,0.8 l -1.64,-1.251 c 0.799,-1.107 1.948,-1.517 3.505,-1.517 2.563,0 4.326,0.86 4.326,3.423 V 106.575 h -2.091 z m -16.6,0 V 91.978996 h 9.328 v 2.091 h -7.114 v 4.307 h 6.068 V 100.344 h -6.068 v 6.232 h -2.214 z m 186.004,-10.395004 v -3.155 h 2.091 v 3.155 h 1.517 v 1.601 h -1.517 V 103.829 c 0,0.574 0.226,0.779 0.738,0.779 h 0.778 v 1.968 h -1.086 c -1.455,0 -2.521,-0.923 -2.521,-2.562 v -6.234004 h -1.046 v -1.6 h 1.046 z" id="path50608" style="fill:#869199;"/>
	
	


</svg>
