<?xml version="1.0" encoding="iso-8859-1"?>
<svg enable-background="new 0 0 841.889 595.275" viewBox="-158.5912525 -20.86524875 951.547515 125.1914925" width="634.36" xmlns="http://www.w3.org/2000/svg">
	
	
 
	
	<path animation_id="0" d="m352.16 0l16.01 6.693c0 0-2.874 6.03-4.22 9.994-1.239 3.644-4.219 12.628-4.219 12.628 0 0-8.48 10.08-12.863 27.526-3.652 14.52-3.687 25.843-3.687 25.843l-6.739.015c0 0-.901-18.875 3.898-41.879 3.236-15.506 11.815-40.82 11.815-40.82"/>
	
	
 
	
	<g fill="#d51317">
		
		
  
		
		<path animation_id="1" d="m0 82.39v-51.31h20.55v17.319h19.417v-17.319h20.553v51.31h-20.553v-19.882h-19.417v19.882h-20.55"/>
		
		
  
		
		<path animation_id="2" d="m63.975 82.39l22.466-51.31h20.897l22.471 51.31h-20.468l-2.438-6.771h-20.462l-2.352 6.771h-20.11m32.743-35.847l-6.358 18.39h12.977l-6.619-18.39"/>
		
		
  
		
		<path animation_id="3" d="m178.38 59.09l-.783-11.689v-16.318h19.683v51.31h-19.248l-22.38-27.935.784 11.689v16.246h-19.683v-51.31h19.249l22.378 28.01"/>
		
		
  
		
		<path animation_id="4" d="m238.81 45.686c-.345-1.781-1.478-2.852-2.964-3.491-1.478-.642-3.299-.928-5.31-.928-4.522 0-6.525 1.07-6.525 2.922 0 7.699 36.05 2.925 36.05 21.595 0 11.907-12.1 17.677-29.335 17.677-16.556 0-27.35-7.913-27.784-17.18h19.675c.435 1.855 1.657 3.206 3.398 4.063 1.65.854 3.826 1.279 5.827 1.279 5.147 0 8.538-1.354 8.538-3.775 0-7.769-36.05-2.422-36.05-22.03 0-10.899 11.499-16.388 27.17-16.388 17.417 0 25.338 7.269 26.824 16.249h-19.511"/>
		
		
  
		
		<path animation_id="5" d="m261.85 82.39l22.475-51.31h20.896l22.457 51.31h-20.455l-2.445-6.771h-20.453l-2.356 6.771h-20.12m32.742-35.847l-6.361 18.39h12.985l-6.624-18.39"/>
		
		
  
		
		<path animation_id="6" d="m396.49 82.39v-51.31h48.765v11.975h-28.22v9.333h22.477v11.976h-22.477v18.03h-20.545"/>
		
		
  
		
		<path animation_id="7" d="m456.48 82.39v-51.31h20.556v39.34h28.21v11.97h-48.766"/>
		
		
  
		
		<path animation_id="8" d="m511.07 82.39v-51.31h51.11v11.975h-30.56v7.338h25.864v11.973h-25.862v8.06h31.783v11.97l-52.33-.001"/>
		
		
  
		
		<path animation_id="9" d="m591.09 82.39h-23.09l22.21-26.654-20.02-24.657h23.07l8.889 13.11 8.966-13.11h23.07l-21.16 24.657 21.34 26.654h-23.08l-10.09-14.395-10.1 14.395"/>
		
		
  
		
		<path animation_id="10" d="m375.63 10.469c0 0-15 16.716-22.261 33.563-8.83 20.48-8.362 38.651-8.362 38.651l15.604-.02c0 0 .247-14.504 7.725-32.04 7.03-16.466 19.2-29.03 19.2-29.03l-11.905-11.123"/>
		
		
 
	
	</g>
	
	


</svg>
