<?xml version="1.0" encoding="iso-8859-1"?>
<!-- Generator: Adobe Illustrator 14.0.0, SVG Export Plug-In . SVG Version: 6.00 Build 43363)  -->
<!DOCTYPE svg
  PUBLIC '-//W3C//DTD SVG 1.1//EN'
  'http://www.w3.org/Graphics/SVG/1.1/DTD/svg11.dtd'>
<svg enable-background="new 233.811 316.512 131.425 201.609" height="201.609px" id="Ebene_1" version="1.1" viewBox="200.95475 266.10975 197.13750000000002 302.4135" width="131.425px" x="0px" xml:space="preserve" xmlns="http://www.w3.org/2000/svg" xmlns:xlink="http://www.w3.org/1999/xlink" y="0px">
	
	

	
	<g>
		
		
	
		
		<rect animation_id="27" fill="#FFFFFF" height="201.609" width="131.425" x="233.811" y="316.512"/>
		
		
	
		
		<path animation_id="0" d="M245.542,443.88v62.943h107.964V443.88H245.542z M273.777,498.761h-11.652h-0.817h-7.997v-49.057h8.814v40.924h3.368h8.285   L273.777,498.761L273.777,498.761z M289.738,498.761h-8.814v-49.057h8.814V498.761z M318.756,457.837h-13.968v11.707h3.439h8.285   v8.133h-11.726v21.084h-8.813v-49.057h7.478h1.336h2.849h11.119L318.756,457.837L318.756,457.837z M348.832,457.837h-8.508v40.924   h-8.813v-40.924h-8.504v-8.133h5.487h3.017h8.813h8.508V457.837z"/>
		
		
	
		
		<g>
			
			
		
			
			<g>
				
				
			
				
				<g>
					
					
				
					
					<polygon animation_id="10" fill="#3373B9" points="353.506,432.771 334.238,432.771 334.238,395.3 353.506,395.3     "/>
					
					
				
					
					<polygon animation_id="11" fill="#3373B9" points="335.572,333.887 353.506,333.887 353.506,397.026 335.572,397.026     "/>
					
					
			
				
				</g>
				
				
			
				
				<polygon animation_id="12" fill="#3373B9" points="245.542,327.917 257.506,327.917 257.506,438.726 245.542,438.726    "/>
				
				
			
				
				<polygon animation_id="13" fill="#3373B9" points="263.612,327.921 275.577,327.921 275.577,438.732 263.612,438.732    "/>
				
				
			
				
				<polygon animation_id="14" fill="#3373B9" points="256.338,399.784 265.338,399.784 265.338,410.824 256.338,410.824    "/>
				
				
			
				
				<polygon animation_id="15" fill="#3373B9" points="279.484,327.921 290.638,327.921 290.638,438.726 279.484,438.726    "/>
				
				
			
				
				<polygon animation_id="16" fill="#3373B9" points="295.531,327.97 305.486,327.97 305.486,438.679 295.531,438.679    "/>
				
				
			
				
				<polygon animation_id="17" fill="#3373B9" points="303.367,327.97 315.637,327.97 315.637,338.772 303.367,338.772    "/>
				
				
			
				
				<polygon animation_id="18" fill="#3373B9" points="310.604,333.88 321.555,333.88 321.555,388.934 310.604,388.934    "/>
				
				
			
				
				<polygon animation_id="19" fill="#3373B9" points="310.604,420.127 321.555,420.127 321.555,438.679 310.604,438.679    "/>
				
				
			
				
				<circle animation_id="3" cx="315.638" cy="333.887" fill="#3373B9" r="5.917"/>
				
				
			
				
				<polygon animation_id="20" fill="#3373B9" points="326.488,333.887 336.59,333.887 336.59,401.191 326.488,401.191    "/>
				
				
			
				
				<polygon animation_id="21" fill="#3373B9" points="347.596,327.97 347.596,338.071 332.406,338.071 332.406,327.97    "/>
				
				
			
				
				<circle animation_id="4" cx="332.406" cy="333.887" fill="#3373B9" r="5.918"/>
				
				
			
				
				<circle animation_id="5" cx="347.589" cy="333.887" fill="#3373B9" r="5.917"/>
				
				
			
				
				<polygon animation_id="22" fill="#3373B9" points="336.59,432.771 326.488,432.771 326.488,397.965 336.59,397.965    "/>
				
				
			
				
				<polygon animation_id="23" fill="#3373B9" points="332.398,438.687 332.398,428.585 347.588,428.585 347.588,438.687    "/>
				
				
			
				
				<circle animation_id="6" cx="347.589" cy="432.77" fill="#3373B9" r="5.917"/>
				
				
			
				
				<circle animation_id="7" cx="332.406" cy="432.771" fill="#3373B9" r="5.918"/>
				
				
			
				
				<path animation_id="1" d="M343.004,427.958h-0.031c0.006,0.057,0.021,0.113,0.021,0.172c0,1.303-1.344,2.359-3.002,2.359     c-1.655,0-3.002-1.057-3.002-2.359c0-0.059,0.019-0.115,0.023-0.172h-0.023v-88.089H337c-0.003-0.021-0.011-0.043-0.011-0.064     c0-1.304,1.347-2.36,3.002-2.36c1.658,0,3.002,1.057,3.002,2.36c0,0.021-0.008,0.043-0.008,0.064h0.019V427.958L343.004,427.958z     " fill="#FFFFFF"/>
				
				
			
				
				<circle animation_id="8" cx="316.079" cy="399.687" fill="#3373B9" r="5.476"/>
				
				
			
				
				<polygon animation_id="24" fill="#3373B9" points="310.604,387.134 321.555,387.134 321.555,399.687 310.604,399.687    "/>
				
				
			
				
				<g>
					
					
				
					
					<circle animation_id="9" cx="316.079" cy="410.637" fill="#3373B9" r="5.476"/>
					
					
				
					
					<polygon animation_id="25" fill="#3373B9" points="321.555,423.189 310.604,423.189 310.604,410.637 321.555,410.637     "/>
					
					
			
				
				</g>
				
				
			
				
				<path animation_id="2" d="M310.604,398.348c0,0,0.158,1.546-1.447,1.546c-1.604,0-4.082,0-4.082,0v11.029h4.188     c0,0,1.342-0.054,1.342,1.216s0,0.667,0,0.667h1.387v-14.542h-1.387" fill="#3373B9"/>
				
				
			
				
				<polygon animation_id="26" fill="#3373B9" points="309.283,400.843 316.08,400.843 316.08,409.155 309.283,409.155    "/>
				
				
		
			
			</g>
			
			
		
			
			<rect animation_id="28" fill="#FFFFFF" height="1.064" width="1.871" x="341.133" y="427.015"/>
			
			
		
			
			<rect animation_id="29" fill="#FFFFFF" height="0.828" width="2.07" x="336.99" y="427.265"/>
			
			
		
			
			<rect animation_id="30" fill="#FFFFFF" height="0.844" width="1.433" x="336.99" y="339.703"/>
			
			
		
			
			<rect animation_id="31" fill="#FFFFFF" height="0.781" width="1.349" x="341.656" y="339.813"/>
			
			
	
		
		</g>
		
		

	
	</g>
	
	


</svg>
