<?xml version="1.0" encoding="iso-8859-1"?>
<!-- Generator: Adobe Illustrator 21.1.0, SVG Export Plug-In . SVG Version: 6.00 Build 0)  -->
<svg enable-background="new 0 0 283.5 96.7" height="96.7px" id="Ebene_1" version="1.1" viewBox="-70.875 -24.175 425.25 145.05" width="283.5px" x="0px" xml:space="preserve" xmlns="http://www.w3.org/2000/svg" xmlns:xlink="http://www.w3.org/1999/xlink" y="0px">
	
	

	
	<g>
		
		
	
		
		<path animation_id="0" d="M53.3,90.8h16.5V28.6H53.3V90.8L53.3,90.8z M71.2,10.3c0-5.5-4.1-10-9.6-10s-9.6,4.5-9.6,10   c0,5.5,4.1,10,9.6,10S71.2,15.8,71.2,10.3L71.2,10.3z" fill="#D63D19"/>
		
		
	
		
		<path animation_id="1" d="M145.5,90.8V45.8c0-14.1-6.9-18.6-17.2-18.6c-11.4,0-20.6,7.9-20.6,7.9l-2.4-6.5H91.5v62.3H108V45.4   c0,0,6.9-4.5,14.1-4.5c5.2,0,6.9,1.4,6.9,5.8v44H145.5L145.5,90.8z" fill="#D63D19"/>
		
		
	
		
		<path animation_id="2" d="M165.8,90.8h16.5V28.6h-16.5V90.8L165.8,90.8z M183.7,10.3c0-5.5-4.1-10-9.6-10c-5.5,0-9.6,4.5-9.6,10   c0,5.5,4.1,10,9.6,10C179.6,20.3,183.7,15.8,183.7,10.3L183.7,10.3z" fill="#D63D19"/>
		
		
	
		
		<path animation_id="3" d="M235.6,89.1V76.7c0,0-8.6,2.1-11.4,2.1c-2.1,0-4.1-0.3-4.1-4.1V39.6h12.7l1.7-11h-14.1V9.6l-14.8,5.2   L204,28.6v46.8c0,14.8,8.6,16.9,17.2,16.9C228.8,91.9,235.6,89.1,235.6,89.1L235.6,89.1L235.6,89.1z" fill="#D63D19"/>
		
		
	
		
		<polygon animation_id="4" fill="#D63D19" points="258.4,0 258.4,96.7 283.5,96.7 283.5,88.4 269,86.7 269,10.3 283.5,8.6 283.5,0  "/>
		
		
	
		
		<polygon animation_id="5" fill="#D63D19" points="25.1,0 25.1,96.7 0,96.7 0,88.4 14.8,86.7 14.8,10.3 0,8.6 0,0  "/>
		
		

	
	</g>
	
	


</svg>
