<?xml version="1.0" encoding="iso-8859-1"?>
<svg height="25" id="svg2" inkscape:version="0.48.4 r9939" sodipodi:docname="makro.svg" version="1.1" viewBox="-25.0 -6.25 150.0 37.5" width="100" xml:space="preserve" xmlns="http://www.w3.org/2000/svg" xmlns:cc="http://creativecommons.org/ns#" xmlns:dc="http://purl.org/dc/elements/1.1/" xmlns:inkscape="http://www.inkscape.org/namespaces/inkscape" xmlns:rdf="http://www.w3.org/1999/02/22-rdf-syntax-ns#" xmlns:sodipodi="http://sodipodi.sourceforge.net/DTD/sodipodi-0.dtd" xmlns:svg="http://www.w3.org/2000/svg">
	
	
	<title id="title2995">Makro logo</title>
	
	
	<sodipodi:namedview bordercolor="#666666" borderopacity="1" gridtolerance="10" guidetolerance="10" id="namedview18" inkscape:current-layer="svg2" inkscape:cx="102.7357" inkscape:cy="33.469457" inkscape:pageopacity="0" inkscape:pageshadow="2" inkscape:showpageshadow="false" inkscape:window-height="844" inkscape:window-maximized="1" inkscape:window-width="1600" inkscape:window-x="-4" inkscape:window-y="-4" inkscape:zoom="6.0555201" objecttolerance="10" pagecolor="#ffffff" showgrid="false"/>
	
	
	<metadata id="metadata8">
		
		
		<rdf:RDF>
			
			
			<cc:Work rdf:about="">
				
				
				<dc:format>image/svg+xml</dc:format>
				
				
				<dc:type rdf:resource="http://purl.org/dc/dcmitype/StillImage"/>
				
				
				<dc:title>Makro logo</dc:title>
				
			
			</cc:Work>
			
		
		</rdf:RDF>
		
	
	</metadata>
	
	
	<defs id="defs6"/>
	
	
	<g id="g10" transform="matrix(0.59318965,0,0,-0.59104512,-7.0350977,69.601135)">
		
		
		<g id="g12" transform="scale(0.1,0.1)">
			
			
			<g id="g16">
				
				
				<path animation_id="0" d="m 1764.34,841.571 c 0,-12.973 -2.95,-22.731 -8.86,-29.309 -5.91,-6.551 -14.7,-9.828 -26.36,-9.828 -11.82,0 -20.68,3.277 -26.6,9.828 -5.91,6.578 -8.87,16.336 -8.87,29.309 l 1.08,101.886 -124.91,-124.906 c -9.17,-9.187 -18.17,-13.992 -26.98,-14.457 -8.82,-0.465 -17.36,3.434 -25.61,11.668 -8.35,8.363 -12.3,16.957 -11.84,25.762 0.46,8.832 5.28,17.82 14.45,27.008 l 115.71,115.699 -93.95,0 c -12.96,0 -22.73,2.953 -29.29,8.871 -6.56,5.91 -9.85,14.698 -9.85,26.348 0,11.82 3.29,20.69 9.85,26.6 5.35,4.83 12.85,7.68 22.47,8.57 l 2.59,0.28 3.43,0.01 128.63,0.01 52.09,-0.02 c 42.4,0 42.4,-42.41 42.4,-42.41 l 0.42,-170.919 0,0 z M 363.414,1018.34 c 8.484,11.82 18.629,20.73 30.437,26.71 11.809,5.99 25.055,8.98 39.743,8.98 24.984,0 44.703,-7.23 59.16,-21.7 14.468,-14.45 21.695,-34.181 21.695,-59.173 l 0,-142.102 c 0,-12.285 -2.684,-21.469 -8.059,-27.512 -5.371,-6.066 -13.503,-9.097 -24.394,-9.097 -10.59,0 -18.688,3.097 -24.281,9.316 -5.602,6.223 -8.391,15.316 -8.391,27.293 l 0,128.684 c 0,11.824 -3.227,21.035 -9.66,27.632 -6.438,6.586 -15.418,9.887 -26.926,9.887 -12.879,0 -23.105,-4.168 -30.683,-12.508 -7.567,-8.332 -11.356,-19.773 -11.356,-34.32 l 0,-119.375 c 0,-12.133 -2.734,-21.27 -8.195,-27.402 -5.465,-6.157 -13.586,-9.207 -24.363,-9.207 -10.782,0 -18.829,3.031 -24.137,9.097 -5.317,6.043 -7.969,15.227 -7.969,27.512 l 0,128.25 c 0,11.973 -3.109,21.215 -9.32,27.727 -6.211,6.519 -15.071,9.773 -26.578,9.773 -12.871,0 -23.059,-4.164 -30.551,-12.496 -7.496,-8.336 -11.242,-19.777 -11.242,-34.32 l 0,-118.934 c 0,-12.133 -2.727,-21.27 -8.172,-27.402 -5.446,-6.157 -13.621,-9.207 -24.512,-9.207 -10.738,0 -18.828,3.05 -24.281,9.207 -5.445,6.132 -8.168,15.269 -8.168,27.402 l 0,182.075 c 0,11.94 2.683,21.12 8.055,27.54 5.375,6.42 13.05,9.64 23.035,9.64 9.383,0 16.718,-2.65 22.011,-7.94 5.293,-5.29 8.473,-13.15 9.536,-23.58 8.789,11.83 18.871,20.74 30.238,26.73 11.371,5.98 24.18,8.97 38.43,8.97 15.617,0 28.953,-2.91 40.023,-8.75 11.066,-5.83 20.691,-14.97 28.875,-27.4 l 0,0 z m 334.98,-98.191 c -10.914,-5.18 -23.379,-9.231 -37.402,-12.196 l -21.707,-4.648 c -11.52,-3.32 -19.59,-7.481 -24.215,-12.484 -4.621,-4.981 -6.933,-11.864 -6.933,-20.629 0,-9.368 3.031,-16.668 9.097,-21.871 6.059,-5.227 14.547,-7.836 25.461,-7.836 16.82,0 30.309,5.113 40.465,15.316 10.152,10.207 15.234,23.84 15.234,40.93 l 0,23.418 z m 63.27,64.547 0,-140.36 c 0,-4.98 0.375,-10.762 1.133,-17.265 0.757,-6.532 1.14,-10.536 1.14,-12.04 0,-7.878 -2.496,-14.058 -7.48,-18.55 -4.996,-4.45 -11.949,-6.688 -20.871,-6.688 -12.246,0 -21.278,3.168 -27.098,9.539 -5.828,6.379 -8.812,16.383 -8.961,30.016 -8.344,-12.883 -19.258,-22.711 -32.754,-29.438 -13.488,-6.75 -29.187,-10.117 -47.078,-10.117 -23.652,0 -42.039,6.731 -55.152,20.211 -13.121,13.485 -19.676,32.34 -19.676,56.555 0,22.734 5.535,40.113 16.602,52.152 11.074,12.039 29.871,20.852 56.41,26.449 10.156,2.125 23.082,4.141 38.777,6.024 15.695,1.902 25.887,3.605 30.594,5.113 3.484,1.219 6.062,3.41 7.734,6.586 1.668,3.176 2.496,7.188 2.496,12.035 0,9.992 -3.105,17.149 -9.32,21.461 -6.215,4.321 -16.602,6.471 -31.16,6.471 -7.574,0 -14.512,-1.05 -20.801,-3.174 -6.289,-2.117 -11.867,-5.219 -16.719,-9.301 -1.672,-1.511 -4.172,-4.086 -7.508,-7.722 -10.46,-11.34 -20.242,-17.016 -29.335,-17.016 -7.579,0 -13.907,2.609 -18.981,7.836 -5.082,5.227 -7.621,11.629 -7.621,19.203 0,16.524 9.508,30.944 28.516,43.294 19.007,12.35 42.378,18.52 70.097,18.52 34.535,0 61,-5.98 79.406,-17.96 18.407,-11.98 27.61,-29.25 27.61,-51.834 l 0,0 z M 871.621,831.012 c 0,-11.953 -2.762,-21.051 -8.289,-27.25 -5.516,-6.219 -13.645,-9.316 -24.383,-9.316 -10.586,0 -18.488,3.031 -23.711,9.074 -5.211,6.066 -7.82,15.226 -7.82,27.492 l 0,269.948 c 0,12.43 2.609,21.66 7.82,27.72 5.223,6.05 13.125,9.09 23.711,9.09 10.738,0 18.867,-3.11 24.383,-9.32 5.527,-6.21 8.289,-15.37 8.289,-27.49 l 0,-143.335 65.64,74.045 c 6.516,7.57 11.817,12.49 15.903,14.76 4.09,2.28 8.707,3.41 13.851,3.41 8.024,0 15.063,-2.76 21.129,-8.29 6.055,-5.53 9.086,-11.92 9.086,-19.19 0,-7.27 -6.207,-17.65 -18.625,-31.121 l -34.984,-37.243 58.189,-100.035 c 4.58,-7.41 7.61,-13.058 9.06,-16.93 1.44,-3.851 2.18,-7.527 2.18,-11 0,-9.253 -2.97,-16.824 -8.88,-22.73 -5.92,-5.914 -13.514,-8.855 -22.768,-8.855 -8.039,0 -14.98,1.722 -20.824,5.222 -5.84,3.473 -10.891,9.008 -15.141,16.578 l -48.84,87.543 -24.976,-27.07 0,-45.707 z m 240.489,168.184 c 6.67,16.054 14.99,28.584 24.98,37.594 10,9.01 20.6,13.52 31.81,13.52 10.9,0 19.46,-3.03 25.67,-9.09 6.2,-6.06 9.3,-14.38 9.3,-24.99 0,-5.3 -0.87,-9.99 -2.61,-14.08 -1.74,-4.087 -4.42,-7.724 -8.07,-10.904 -4.23,-3.632 -11.8,-5.683 -22.71,-6.136 -6.36,-0.301 -11.21,-0.75 -14.53,-1.36 -12.87,-2.425 -22.59,-8.211 -29.18,-17.375 -6.6,-9.172 -9.89,-21.543 -9.89,-37.148 l 0,-98.215 c 0,-12.109 -2.77,-21.227 -8.29,-27.383 -5.52,-6.133 -13.81,-9.183 -24.85,-9.183 -10.9,0 -19.11,3.05 -24.63,9.183 -5.53,6.156 -8.29,15.274 -8.29,27.383 l 0,182.038 c 0,12.42 2.68,21.74 8.06,27.94 5.37,6.21 13.35,9.32 23.95,9.32 9.23,0 16.41,-2.58 21.56,-7.73 5.14,-5.15 7.72,-12.34 7.72,-21.58 l 0,-21.804 z m 217.25,-0.528 c -18.63,0 -32.97,-6.625 -43.04,-19.871 -10.07,-13.25 -15.11,-32.062 -15.11,-56.433 0,-24.528 5.04,-43.45 15.11,-56.778 10.07,-13.324 24.41,-19.965 43.04,-19.965 18.32,0 32.52,6.641 42.59,19.965 10.07,13.328 15.11,32.25 15.11,56.778 0,24.371 -5.04,43.183 -15.11,56.433 -10.07,13.246 -24.27,19.871 -42.59,19.871 l 0,0 z m 0.01,55.822 c 38.76,0 69.31,-11.74 91.64,-35.22 22.34,-23.473 33.51,-55.735 33.51,-96.774 0,-41.214 -11.17,-73.554 -33.51,-97.019 -22.33,-23.488 -52.88,-35.219 -91.64,-35.219 -38.91,0 -69.5,11.731 -91.76,35.219 -22.25,23.465 -33.39,55.805 -33.39,97.019 0,41.039 11.14,73.301 33.39,96.774 22.26,23.48 52.85,35.22 91.76,35.22 l 0,0 z" id="path18" inkscape:connector-curvature="0" style="fill:none;stroke:#ed1c24;stroke-width:63.56110001;stroke-linecap:butt;stroke-linejoin:miter;stroke-miterlimit:2.61310005;stroke-opacity:1;stroke-dasharray:none"/>
				
			
			</g>
			
			
			<g id="g20">
				
				
				<path animation_id="1" d="m 1764.34,841.571 c 0,-12.973 -2.95,-22.731 -8.86,-29.309 -5.91,-6.551 -14.7,-9.828 -26.36,-9.828 -11.82,0 -20.68,3.277 -26.6,9.828 -5.91,6.578 -8.87,16.336 -8.87,29.309 l 1.08,101.886 -124.91,-124.906 c -9.17,-9.187 -18.17,-13.992 -26.98,-14.457 -8.82,-0.465 -17.36,3.434 -25.61,11.668 -8.35,8.363 -12.3,16.957 -11.84,25.762 0.46,8.832 5.28,17.82 14.45,27.008 l 115.71,115.699 -93.95,0 c -12.96,0 -22.73,2.953 -29.29,8.871 -6.56,5.91 -9.85,14.698 -9.85,26.348 0,11.82 3.29,20.69 9.85,26.6 5.35,4.83 12.85,7.68 22.47,8.57 l 2.59,0.28 3.43,0.01 128.63,0.01 52.09,-0.02 c 42.4,0 42.4,-42.41 42.4,-42.41 l 0.42,-170.919 0,0 z M 363.414,1018.34 c 8.484,11.82 18.629,20.73 30.437,26.71 11.809,5.99 25.055,8.98 39.743,8.98 24.984,0 44.703,-7.23 59.16,-21.7 14.468,-14.45 21.695,-34.181 21.695,-59.173 l 0,-142.102 c 0,-12.285 -2.684,-21.469 -8.059,-27.512 -5.371,-6.066 -13.503,-9.097 -24.394,-9.097 -10.59,0 -18.688,3.097 -24.281,9.316 -5.602,6.223 -8.391,15.316 -8.391,27.293 l 0,128.684 c 0,11.824 -3.227,21.035 -9.66,27.632 -6.438,6.586 -15.418,9.887 -26.926,9.887 -12.879,0 -23.105,-4.168 -30.683,-12.508 -7.567,-8.332 -11.356,-19.773 -11.356,-34.32 l 0,-119.375 c 0,-12.133 -2.734,-21.27 -8.195,-27.402 -5.465,-6.157 -13.586,-9.207 -24.363,-9.207 -10.782,0 -18.829,3.031 -24.137,9.097 -5.317,6.043 -7.969,15.227 -7.969,27.512 l 0,128.25 c 0,11.973 -3.109,21.215 -9.32,27.727 -6.211,6.519 -15.071,9.773 -26.578,9.773 -12.871,0 -23.059,-4.164 -30.551,-12.496 -7.496,-8.336 -11.242,-19.777 -11.242,-34.32 l 0,-118.934 c 0,-12.133 -2.727,-21.27 -8.172,-27.402 -5.446,-6.157 -13.621,-9.207 -24.512,-9.207 -10.738,0 -18.828,3.05 -24.281,9.207 -5.445,6.132 -8.168,15.269 -8.168,27.402 l 0,182.075 c 0,11.94 2.683,21.12 8.055,27.54 5.375,6.42 13.05,9.64 23.035,9.64 9.383,0 16.718,-2.65 22.011,-7.94 5.293,-5.29 8.473,-13.15 9.536,-23.58 8.789,11.83 18.871,20.74 30.238,26.73 11.371,5.98 24.18,8.97 38.43,8.97 15.617,0 28.953,-2.91 40.023,-8.75 11.066,-5.83 20.691,-14.97 28.875,-27.4 l 0,0 z m 334.98,-98.191 c -10.914,-5.18 -23.379,-9.231 -37.402,-12.196 l -21.707,-4.648 c -11.52,-3.32 -19.59,-7.481 -24.215,-12.484 -4.621,-4.981 -6.933,-11.864 -6.933,-20.629 0,-9.368 3.031,-16.668 9.097,-21.871 6.059,-5.227 14.547,-7.836 25.461,-7.836 16.82,0 30.309,5.113 40.465,15.316 10.152,10.207 15.234,23.84 15.234,40.93 l 0,23.418 z m 63.27,64.547 0,-140.36 c 0,-4.98 0.375,-10.762 1.133,-17.265 0.757,-6.532 1.14,-10.536 1.14,-12.04 0,-7.878 -2.496,-14.058 -7.48,-18.55 -4.996,-4.45 -11.949,-6.688 -20.871,-6.688 -12.246,0 -21.278,3.168 -27.098,9.539 -5.828,6.379 -8.812,16.383 -8.961,30.016 -8.344,-12.883 -19.258,-22.711 -32.754,-29.438 -13.488,-6.75 -29.187,-10.117 -47.078,-10.117 -23.652,0 -42.039,6.731 -55.152,20.211 -13.121,13.485 -19.676,32.34 -19.676,56.555 0,22.734 5.535,40.113 16.602,52.152 11.074,12.039 29.871,20.852 56.41,26.449 10.156,2.125 23.082,4.141 38.777,6.024 15.695,1.902 25.887,3.605 30.594,5.113 3.484,1.219 6.062,3.41 7.734,6.586 1.668,3.176 2.496,7.188 2.496,12.035 0,9.992 -3.105,17.149 -9.32,21.461 -6.215,4.321 -16.602,6.471 -31.16,6.471 -7.574,0 -14.512,-1.05 -20.801,-3.174 -6.289,-2.117 -11.867,-5.219 -16.719,-9.301 -1.672,-1.511 -4.172,-4.086 -7.508,-7.722 -10.46,-11.34 -20.242,-17.016 -29.335,-17.016 -7.579,0 -13.907,2.609 -18.981,7.836 -5.082,5.227 -7.621,11.629 -7.621,19.203 0,16.524 9.508,30.944 28.516,43.294 19.007,12.35 42.378,18.52 70.097,18.52 34.535,0 61,-5.98 79.406,-17.96 18.407,-11.98 27.61,-29.25 27.61,-51.834 l 0,0 z M 871.621,831.012 c 0,-11.953 -2.762,-21.051 -8.289,-27.25 -5.516,-6.219 -13.645,-9.316 -24.383,-9.316 -10.586,0 -18.488,3.031 -23.711,9.074 -5.211,6.066 -7.82,15.226 -7.82,27.492 l 0,269.948 c 0,12.43 2.609,21.66 7.82,27.72 5.223,6.05 13.125,9.09 23.711,9.09 10.738,0 18.867,-3.11 24.383,-9.32 5.527,-6.21 8.289,-15.37 8.289,-27.49 l 0,-143.335 65.64,74.045 c 6.516,7.57 11.817,12.49 15.903,14.76 4.09,2.28 8.707,3.41 13.851,3.41 8.024,0 15.063,-2.76 21.129,-8.29 6.055,-5.53 9.086,-11.92 9.086,-19.19 0,-7.27 -6.207,-17.65 -18.625,-31.121 l -34.984,-37.243 58.189,-100.035 c 4.58,-7.41 7.61,-13.058 9.06,-16.93 1.44,-3.851 2.18,-7.527 2.18,-11 0,-9.253 -2.97,-16.824 -8.88,-22.73 -5.92,-5.914 -13.514,-8.855 -22.768,-8.855 -8.039,0 -14.98,1.722 -20.824,5.222 -5.84,3.473 -10.891,9.008 -15.141,16.578 l -48.84,87.543 -24.976,-27.07 0,-45.707 z m 240.489,168.184 c 6.67,16.054 14.99,28.584 24.98,37.594 10,9.01 20.6,13.52 31.81,13.52 10.9,0 19.46,-3.03 25.67,-9.09 6.2,-6.06 9.3,-14.38 9.3,-24.99 0,-5.3 -0.87,-9.99 -2.61,-14.08 -1.74,-4.087 -4.42,-7.724 -8.07,-10.904 -4.23,-3.632 -11.8,-5.683 -22.71,-6.136 -6.36,-0.301 -11.21,-0.75 -14.53,-1.36 -12.87,-2.425 -22.59,-8.211 -29.18,-17.375 -6.6,-9.172 -9.89,-21.543 -9.89,-37.148 l 0,-98.215 c 0,-12.109 -2.77,-21.227 -8.29,-27.383 -5.52,-6.133 -13.81,-9.183 -24.85,-9.183 -10.9,0 -19.11,3.05 -24.63,9.183 -5.53,6.156 -8.29,15.274 -8.29,27.383 l 0,182.038 c 0,12.42 2.68,21.74 8.06,27.94 5.37,6.21 13.35,9.32 23.95,9.32 9.23,0 16.41,-2.58 21.56,-7.73 5.14,-5.15 7.72,-12.34 7.72,-21.58 l 0,-21.804 z m 217.25,-0.528 c -18.63,0 -32.97,-6.625 -43.04,-19.871 -10.07,-13.25 -15.11,-32.062 -15.11,-56.433 0,-24.528 5.04,-43.45 15.11,-56.778 10.07,-13.324 24.41,-19.965 43.04,-19.965 18.32,0 32.52,6.641 42.59,19.965 10.07,13.328 15.11,32.25 15.11,56.778 0,24.371 -5.04,43.183 -15.11,56.433 -10.07,13.246 -24.27,19.871 -42.59,19.871 l 0,0 z m 0.01,55.822 c 38.76,0 69.31,-11.74 91.64,-35.22 22.34,-23.473 33.51,-55.735 33.51,-96.774 0,-41.214 -11.17,-73.554 -33.51,-97.019 -22.33,-23.488 -52.88,-35.219 -91.64,-35.219 -38.91,0 -69.5,11.731 -91.76,35.219 -22.25,23.465 -33.39,55.805 -33.39,97.019 0,41.039 11.14,73.301 33.39,96.774 22.26,23.48 52.85,35.22 91.76,35.22 l 0,0 z" id="path22" inkscape:connector-curvature="0" style="fill:none;stroke:#ffffff;stroke-width:31.77890015;stroke-linecap:butt;stroke-linejoin:miter;stroke-miterlimit:2.61310005;stroke-opacity:1;stroke-dasharray:none"/>
				
			
			</g>
			
			
			<path animation_id="2" d="m 1764.34,841.57 c 0,-12.972 -2.95,-22.73 -8.86,-29.308 -5.91,-6.551 -14.7,-9.828 -26.36,-9.828 -11.82,0 -20.68,3.277 -26.6,9.828 -5.91,6.578 -8.87,16.336 -8.87,29.308 l 1.08,101.887 -124.91,-124.906 c -9.17,-9.188 -18.17,-13.992 -26.98,-14.457 -8.82,-0.465 -17.36,3.433 -25.61,11.668 -8.35,8.363 -12.3,16.957 -11.84,25.761 0.46,8.832 5.28,17.821 14.45,27.008 l 115.71,115.699 -93.94,0 c -12.97,0 -22.73,2.954 -29.3,8.872 -6.56,5.91 -9.85,14.698 -9.85,26.348 0,11.82 3.29,20.69 9.85,26.6 5.35,4.83 12.85,7.68 22.47,8.57 l 2.59,0.28 3.43,0.01 128.63,0.01 52.09,-0.02 c 42.4,0 42.4,-42.41 42.4,-42.41 l 0.42,-170.92 0,0" id="path24" inkscape:connector-curvature="0" style="fill:#ed1c24;fill-opacity:1;fill-rule:nonzero;stroke:none"/>
			
			
			<path animation_id="3" d="m 363.414,1018.34 c 8.484,11.82 18.629,20.73 30.438,26.71 11.808,5.99 25.054,8.98 39.742,8.98 24.984,0 44.703,-7.23 59.16,-21.7 14.469,-14.45 21.695,-34.182 21.695,-59.174 l 0,-142.101 c 0,-12.285 -2.683,-21.469 -8.058,-27.512 -5.371,-6.066 -13.504,-9.098 -24.395,-9.098 -10.59,0 -18.687,3.098 -24.281,9.317 -5.602,6.222 -8.391,15.316 -8.391,27.293 l 0,128.683 c 0,11.825 -3.226,21.035 -9.66,27.633 -6.437,6.586 -15.418,9.887 -26.926,9.887 -12.879,0 -23.105,-4.168 -30.683,-12.508 -7.567,-8.332 -11.356,-19.773 -11.356,-34.32 l 0,-119.375 c 0,-12.133 -2.734,-21.27 -8.195,-27.403 -5.465,-6.156 -13.586,-9.207 -24.363,-9.207 -10.782,0 -18.828,3.032 -24.137,9.098 -5.316,6.043 -7.969,15.227 -7.969,27.512 l 0,128.25 c 0,11.972 -3.109,21.215 -9.32,27.726 -6.211,6.52 -15.07,9.774 -26.578,9.774 -12.871,0 -23.059,-4.164 -30.551,-12.496 -7.496,-8.336 -11.242,-19.778 -11.242,-34.321 l 0,-118.933 c 0,-12.133 -2.727,-21.27 -8.172,-27.403 -5.445,-6.156 -13.621,-9.207 -24.512,-9.207 -10.738,0 -18.828,3.051 -24.281,9.207 -5.445,6.133 -8.168,15.27 -8.168,27.403 l 0,182.075 c 0,11.94 2.684,21.12 8.055,27.54 5.375,6.42 13.05,9.63 23.035,9.63 9.383,0 16.719,-2.64 22.012,-7.93 5.292,-5.29 8.472,-13.15 9.535,-23.58 8.789,11.83 18.871,20.74 30.238,26.73 11.371,5.98 24.18,8.97 38.43,8.97 15.617,0 28.953,-2.91 40.023,-8.75 11.066,-5.83 20.691,-14.97 28.875,-27.4 l 0,0" id="path26" inkscape:connector-curvature="0" style="fill:#ed1c24;fill-opacity:1;fill-rule:nonzero;stroke:none"/>
			
			
			<path animation_id="4" d="m 698.395,920.148 c -10.915,-5.179 -23.379,-9.23 -37.403,-12.195 -14.019,-2.945 -21.254,-4.515 -21.707,-4.648 -11.519,-3.321 -19.59,-7.481 -24.215,-12.485 -4.621,-4.98 -6.933,-11.863 -6.933,-20.629 0,-9.367 3.031,-16.668 9.097,-21.871 6.059,-5.226 14.547,-7.836 25.461,-7.836 16.821,0 30.309,5.114 40.465,15.317 10.153,10.207 15.235,23.84 15.235,40.929 l 0,23.418 z m 63.269,64.547 0,-140.359 c 0,-4.981 0.375,-10.762 1.133,-17.266 0.758,-6.531 1.141,-10.535 1.141,-12.039 0,-7.879 -2.497,-14.058 -7.481,-18.551 -4.996,-4.449 -11.949,-6.687 -20.871,-6.687 -12.246,0 -21.277,3.168 -27.098,9.539 -5.828,6.379 -8.812,16.383 -8.961,30.016 -8.343,-12.883 -19.257,-22.711 -32.754,-29.438 -13.488,-6.75 -29.187,-10.117 -47.078,-10.117 -23.652,0 -42.039,6.73 -55.152,20.211 -13.121,13.484 -19.676,32.34 -19.676,56.555 0,22.734 5.535,40.113 16.602,52.152 11.074,12.039 29.871,20.852 56.41,26.449 10.156,2.125 23.082,4.141 38.777,6.024 15.696,1.902 25.887,3.605 30.594,5.113 3.484,1.219 6.063,3.41 7.734,6.586 1.668,3.176 2.496,7.187 2.496,12.035 0,9.992 -3.105,17.148 -9.32,21.461 -6.215,4.321 -16.601,6.471 -31.16,6.471 -7.574,0 -14.512,-1.05 -20.801,-3.174 -6.289,-2.117 -11.867,-5.219 -16.719,-9.301 -1.671,-1.512 -4.171,-4.086 -7.507,-7.723 -10.461,-11.339 -20.243,-17.015 -29.336,-17.015 -7.578,0 -13.907,2.609 -18.981,7.836 -5.082,5.226 -7.621,11.629 -7.621,19.203 0,16.524 9.508,30.944 28.516,43.294 19.008,12.35 42.379,18.52 70.097,18.52 34.536,0 61,-5.98 79.407,-17.96 18.406,-11.98 27.609,-29.25 27.609,-51.835 l 0,0" id="path28" inkscape:connector-curvature="0" style="fill:#ed1c24;fill-opacity:1;fill-rule:evenodd;stroke:none"/>
			
			
			<path animation_id="5" d="m 871.621,831.012 c 0,-11.953 -2.762,-21.051 -8.289,-27.25 -5.516,-6.219 -13.644,-9.317 -24.383,-9.317 -10.586,0 -18.488,3.032 -23.711,9.075 -5.211,6.066 -7.82,15.226 -7.82,27.492 l 0,269.948 c 0,12.43 2.609,21.66 7.82,27.72 5.223,6.05 13.125,9.09 23.711,9.09 10.739,0 18.867,-3.11 24.383,-9.32 5.527,-6.21 8.289,-15.37 8.289,-27.49 l 0,-143.335 65.641,74.045 c 6.515,7.57 11.816,12.49 15.902,14.76 4.09,2.28 8.707,3.41 13.852,3.41 8.023,0 15.062,-2.76 21.129,-8.29 6.054,-5.53 9.085,-11.92 9.085,-19.19 0,-7.27 -6.207,-17.65 -18.625,-31.122 l -0.687,-0.683 -34.297,-36.559 58.189,-100.035 c 4.58,-7.41 7.61,-13.059 9.06,-16.93 1.44,-3.851 2.18,-7.527 2.18,-11 0,-9.254 -2.97,-16.824 -8.88,-22.73 -5.92,-5.914 -13.514,-8.856 -22.768,-8.856 -8.039,0 -14.98,1.723 -20.824,5.223 -5.84,3.473 -10.89,9.008 -15.14,16.578 l -48.84,87.543 -24.977,-27.07 0,-45.707" id="path30" inkscape:connector-curvature="0" style="fill:#ed1c24;fill-opacity:1;fill-rule:nonzero;stroke:none"/>
			
			
			<path animation_id="6" d="m 1112.11,999.195 c 6.67,16.055 14.99,28.585 24.98,37.595 10,9.01 20.6,13.51 31.81,13.51 10.9,0 19.46,-3.02 25.67,-9.08 6.2,-6.06 9.31,-14.38 9.31,-24.99 0,-5.3 -0.88,-9.99 -2.62,-14.08 -1.74,-4.087 -4.42,-7.724 -8.06,-10.904 -4.24,-3.633 -11.81,-5.683 -22.72,-6.137 -6.36,-0.3 -11.21,-0.75 -14.53,-1.359 -12.87,-2.426 -22.59,-8.211 -29.18,-17.375 -6.6,-9.172 -9.89,-21.543 -9.89,-37.148 l 0,-98.215 c 0,-12.11 -2.77,-21.227 -8.29,-27.383 -5.52,-6.133 -13.81,-9.184 -24.85,-9.184 -10.9,0 -19.11,3.051 -24.63,9.184 -5.53,6.156 -8.29,15.273 -8.29,27.383 l 0,182.038 c 0,12.42 2.68,21.74 8.06,27.94 5.37,6.21 13.35,9.31 23.95,9.31 9.23,0 16.41,-2.57 21.56,-7.72 5.15,-5.15 7.72,-12.34 7.72,-21.58 l 0,-21.805" id="path32" inkscape:connector-curvature="0" style="fill:#ed1c24;fill-opacity:1;fill-rule:nonzero;stroke:none"/>
			
			
			<path animation_id="7" d="m 1329.36,998.668 c -18.63,0 -32.97,-6.625 -43.04,-19.871 -10.07,-13.25 -15.11,-32.063 -15.11,-56.434 0,-24.527 5.04,-43.449 15.11,-56.777 10.07,-13.324 24.41,-19.965 43.04,-19.965 18.32,0 32.52,6.641 42.59,19.965 10.07,13.328 15.11,32.25 15.11,56.777 0,24.371 -5.04,43.184 -15.11,56.434 -10.07,13.246 -24.27,19.871 -42.59,19.871 l 0,0 z m 0.01,55.822 c 38.76,0 69.31,-11.74 91.64,-35.22 22.34,-23.473 33.51,-55.735 33.51,-96.774 0,-41.215 -11.17,-73.555 -33.51,-97.019 -22.33,-23.489 -52.88,-35.219 -91.64,-35.219 -38.91,0 -69.5,11.73 -91.76,35.219 -22.25,23.464 -33.39,55.804 -33.39,97.019 0,41.039 11.14,73.301 33.39,96.774 22.26,23.48 52.85,35.22 91.76,35.22 l 0,0" id="path34" inkscape:connector-curvature="0" style="fill:#ed1c24;fill-opacity:1;fill-rule:evenodd;stroke:none"/>
			
		
		</g>
		
	
	</g>
	

</svg>
