<?xml version="1.0" encoding="iso-8859-1"?>
<!-- Generator: Adobe Illustrator 16.0.3, SVG Export Plug-In . SVG Version: 6.00 Build 0)  -->
<!DOCTYPE svg
  PUBLIC '-//W3C//DTD SVG 1.1//EN'
  'http://www.w3.org/Graphics/SVG/1.1/DTD/svg11.dtd'>
<svg enable-background="new 0 0 566.93 425.2" height="425.2px" id="Ebene_1" version="1.1" viewBox="-141.7325 -106.3 850.395 637.8" width="566.93px" x="0px" xml:space="preserve" xmlns="http://www.w3.org/2000/svg" xmlns:xlink="http://www.w3.org/1999/xlink" y="0px">
	
	

	
	<g>
		
		
	
		
		<g>
			
			
		
			
			<g>
				
				
			
				
				<path animation_id="0" d="M411.001,385.385c-11.031,0-18.01-3.973-21.329-12.143l-0.391-0.957l9.344-4.838l0.461,1.152     c1.681,4.178,6.185,6.672,12.049,6.672c2.243,0,9.571-0.422,9.571-5.848c0-2.006-1.013-4.783-9.764-5.723     c-9.544-1.135-19.294-3.832-19.294-15.223c0-10.047,9.615-14.621,19.147-14.693c9.465,0,16.137,3.41,19.308,9.873l0.493,1     l-8.917,4.584l-0.548-0.91c-1.349-2.246-5.333-4.639-10.067-4.639c-5.322,0-8.507,1.891-8.507,5.053     c0,2.598,2.627,3.924,9.375,4.727c10.259,1.266,19.753,4.07,19.753,15.951C431.686,379.266,423.755,385.385,411.001,385.385" fill="#58585A"/>
				
				
		
			
			</g>
			
			
		
			
			<polygon animation_id="16" fill="#58585A" points="386.011,384.19 351.031,384.19 351.031,335.378 362.072,335.378 362.072,373.812 386.011,373.812       "/>
			
			
		
			
			<polygon animation_id="17" fill="#58585A" points="340.269,384.191 329.291,384.191 329.291,365.376 308.687,365.376 308.687,384.191     297.64,384.191 297.64,335.379 308.687,335.379 308.687,354.997 329.291,354.997 329.291,335.379 340.269,335.379   "/>
			
			
		
			
			<path animation_id="1" d="M293.023,384.19h-12.061l-3.922-8.778H254.17l-3.992,8.778h-11.986l21.895-48.812h11.041L293.023,384.19z     M258.693,364.971h13.827l-6.913-15.85L258.693,364.971z" fill="#58585A"/>
			
			
		
			
			<path animation_id="2" d="M218.143,384.189h-23.208v-48.812h23.208c10.744,0,17.156,5.469,17.156,14.631    c0,3.738-1.627,6.812-4.638,8.859c4.147,2.41,6.035,7.299,6.035,10.488C236.696,379.061,230.282,384.189,218.143,384.189     M205.846,373.744h12.297c1.266,0,7.576-0.213,7.576-4.451c0-3.383-4.48-5.254-7.576-5.254h-12.297V373.744z M205.846,354.062    h12.297c4.103,0,6.182-1.295,6.182-3.854c0-1.588-1.292-4.586-6.182-4.586h-12.297V354.062z" fill="#58585A"/>
			
			
		
			
			<path animation_id="3" d="M147.342,385.382c-8.049,0-17.445-3.73-17.445-14.246c0-5.1,3.211-9.672,9.551-13.607    c-2.852-3.117-5.018-5.779-5.018-10.402c0-9.381,7.855-12.723,15.207-12.723c8.66,0,14.256,4.875,14.256,12.426    c0,5.883-3.398,9.1-7.64,12.238l5.134,5.48l5.67-5.895l7.461,7.516l-6.047,6.166l9.177,9.7l0.008,2.149h-12.9l-3.616-4.105    C157.382,383.69,152.977,385.382,147.342,385.382 M146.68,364.327c-2.748,1.764-5.414,3.91-4.802,6.93    c0.685,3.402,4.175,3.768,5.646,3.768c2.121,0,4.217-0.922,6.388-2.818L146.68,364.327z M149.501,343.892    c-2.178,0-3.589,1.424-3.589,3.635c0,1.797,1.824,3.447,3.29,4.773c1.955-1.186,4.002-2.771,4.002-4.809    C153.204,345.304,151.75,343.892,149.501,343.892" fill="#58585A"/>
			
			
	
		
		</g>
		
		
	
		
		<g>
			
			
		
			
			<path animation_id="4" d="M230.403,320.734h-12.091l-13.562-15.539h-6.795v15.539h-11.044v-48.812c0,0,19.585,0.001,23.274,0.001    c12.293,0.074,17.889,8.69,17.889,16.605c0,7.688-3.912,13.152-10.816,15.251l13.146,14.796V320.734z M197.955,295.033h12.23    c5.048,0,6.845-3.26,6.845-6.308c0-2.908-1.79-6.305-6.845-6.305h-12.23V295.033z" fill="#58585A"/>
			
			
		
			
			<path animation_id="5" d="M439.876,320.734h-12.09l-13.562-15.539h-6.795v15.539h-11.045v-48.812c0,0,19.586,0.001,23.275,0.001    c12.293,0.074,17.889,8.69,17.889,16.605c0,7.688-3.912,13.152-10.816,15.251l13.145,14.796V320.734z M407.429,295.033h12.23    c5.047,0,6.844-3.26,6.844-6.308c0-2.908-1.789-6.305-6.844-6.305h-12.23V295.033z" fill="#58585A"/>
			
			
		
			
			<path animation_id="6" d="M465.667,320.734h-19.416v-48.812h19.416c16.571,0,24.198,12.048,24.406,23.989    c0.115,7.033-2.335,13.626-6.723,18.091C479.022,318.406,472.905,320.734,465.667,320.734 M457.224,310.023h8.443    c4.132,0,7.425-1.223,9.775-3.644c2.466-2.533,3.764-6.254,3.651-10.488c-0.18-6.471-3.799-13.394-13.427-13.394h-8.443V310.023z" fill="#58585A"/>
			
			
		
			
			<path animation_id="7" d="M391.172,320.734h-12.06l-3.923-8.775h-22.873l-3.991,8.775H336.34l21.896-48.812h11.038L391.172,320.734z     M356.84,301.513h13.83l-6.916-15.848L356.84,301.513z" fill="#58585A"/>
			
			
		
			
			<path animation_id="8" d="M313.496,321.66c-13.251,0-21.812-8.613-21.812-21.943v-27.795h10.974v27.795    c0,7.434,3.978,11.697,10.903,11.697c6.509,0,10.236-4.264,10.236-11.697v-27.795h10.98v27.795    C334.777,313.252,326.622,321.66,313.496,321.66" fill="#58585A"/>
			
			
		
			
			<path animation_id="9" d="M277.473,324.117l-5.823-5.752c-3.621,2.098-8.009,3.16-13.067,3.16    c-17.222,0-24.998-12.686-25.067-25.262c-0.038-7.229,2.562-14.016,7.142-18.619c4.463-4.484,10.662-6.857,17.926-6.857    c16.987,0,24.799,12.518,25.006,24.916c0.066,5.531-1.344,10.83-3.998,15.029l5.669,5.598L277.473,324.117z M258.582,280.971    c-4.105,0-7.451,1.279-9.937,3.814c-2.763,2.807-4.3,7.053-4.222,11.652c0.128,7.309,5.031,14.707,14.158,14.707    c3.985,0,7.424-1.387,9.939-4.01c2.783-2.902,4.339-7.248,4.154-11.629C272.525,292.098,271.063,280.971,258.582,280.971" fill="#58585A"/>
			
			
		
			
			<path animation_id="10" d="M182.488,320.734h-12.06l-3.922-8.775h-22.871l-3.987,8.775h-11.99l21.895-48.812h11.044L182.488,320.734z     M148.163,301.513h13.823l-6.912-15.848L148.163,301.513z" fill="#58585A"/>
			
			
		
			
			<polygon animation_id="18" fill="#58585A" points="111.291,271.922 97.308,291.143 83.322,271.922 71.505,271.922 71.505,320.734 82.549,320.734     82.549,289.227 95.668,307.168 98.538,307.168 111.998,289.223 111.998,320.734 123.042,320.734 123.042,271.922   "/>
			
			
	
		
		</g>
		
		

	
	</g>
	
	

	
	<g>
		
		
	
		
		<path animation_id="11" d="M103.992,247.57c-2.318,0.85-1.89,3.611,0,3.533c0,0,83.288-21.182,176.831-21.25   c93.544-0.068,176.502,21.154,176.502,21.154c2.648,0.174,2.648-2.871,0-3.438c0,0-82.958-25.443-176.307-25.512   C188.668,221.99,103.992,247.57,103.992,247.57" fill="#A5082F"/>
		
		
	
		
		<path animation_id="12" d="M238.796,167.807c-1.562-1.881-31.86-49.851-31.86-49.851s-1.4-24.52-1.456-25.036   c-0.194-1.812-4.741-1.433-4.614,0.34c1.256,17.695,1.274,17.946,1.274,17.946s-20.933-32.581-21.347-33.378   c-0.78-1.501-3.954-1.851-3.068,1.696c11.682,34.392,14.375,62.737-13.932,80.954c2.312-0.357,1.525-0.229,2.3-0.332   c20.946-2.822,44.38-0.736,69.56,6.704" fill="#A5082F"/>
		
		
	
		
		<path animation_id="13" d="M253.611,181.381c24.033-4.691,50.104-8.152,64.346,0.566c20.977-38.905,20.943-75.401-4.677-104.882   c-2.104-2.351-3.076-3.817-6.853-4.98l-22.807-7.301c-0.084-8.315-0.07-9.882-0.09-11.867c5.711-0.16,6.609-0.833,6.609-0.833   l1.676-13.314c0,0-2.684-1.343-11.059-1.343c-7.59,0-10.566,1.343-10.566,1.343l1.888,13.314c0,0,1.614,0.634,6.375,0.816   c-0.024,2.637,0.295,5.142,0.244,10.275l-36.144-9.86c-2.846-0.983-4.11,2.02-2.803,3.488   c37.883,38.758,37.359,84.024,13.816,124.676" fill="#A5082F"/>
		
		
	
		
		<path animation_id="14" d="M364.021,229.145c9.283-2.834,12.785-12.543,14.966-20.627c2.144-7.938,1.395-13.046,10.413-15.647   c2.019-5.086,7.179-15.111,10.08-22.542c0,0,24.929-15.002,25.589-15.488c1.871-1.374-0.631-4.187-2.598-2.825   c-0.596,0.404-24.291,14.009-24.291,14.009s-1.845,0.649-5.98,1.551l-53.381,8.785c0,0,0.399,13.668-8.193,16.805   c-8.701,3.748-73.508,3.319-81.195,0.636c-9.555-3.334-10.195-17.653-10.195-17.653s-80.492-7.104-82.479-7.274   c-2.485-0.23-2.75,3.94-0.569,4.164c0.497,0.052,13.802,1.4,13.802,1.4s5.137,17.896,5.664,20.193   c0.551,2.401,7.094-0.013,9.984,5.908c0.304,0.623,8.676,28.89,8.676,28.89s16.686-0.898,91.896,0.426" fill="#A5082F"/>
		
		
	
		
		<path animation_id="15" d="M382.162,100.877c-0.852-0.876-1.882-1.174-3.497-1.912c-0.521-0.237-5.881-1.806-12.366-3.672   c0.097-4.283,0.273-7.393,0.41-9.652c5.117-0.129,6.042-0.715,6.042-0.715l1.361-12.677c0,0-2.747-1.115-9.755-1.092   c-6.357,0.015-9.339,1.152-9.339,1.152l1.634,12.667c0,0,2.055,0.562,5.755,0.725c-0.102,2.418-0.215,5.31-0.34,8.378   c-9.56-2.736-18.38-4.919-18.981-5.088c-1.769-0.498-3.447,1.211-2.227,2.662c13.665,11.491,25.004,41.256,7.719,71.531   c17.711-4.906,28.142-6.343,37.904-2.546C401.297,133.192,393.917,114.525,382.162,100.877" fill="#A5082F"/>
		
		

	
	</g>
	
	


</svg>
