<?xml version="1.0" encoding="iso-8859-1"?>
<!-- Created with Inkscape (http://www.inkscape.org/) -->
<svg height="519.72424" id="svg2" inkscape:version="0.48.0 r9654" sodipodi:docname="Lloyd Automarke Logo.svg" version="1.1" viewBox="-149.8856975 -129.93106 899.314185 779.58636" width="599.54279" xmlns="http://www.w3.org/2000/svg" xmlns:cc="http://creativecommons.org/ns#" xmlns:dc="http://purl.org/dc/elements/1.1/" xmlns:inkscape="http://www.inkscape.org/namespaces/inkscape" xmlns:rdf="http://www.w3.org/1999/02/22-rdf-syntax-ns#" xmlns:sodipodi="http://sodipodi.sourceforge.net/DTD/sodipodi-0.dtd" xmlns:svg="http://www.w3.org/2000/svg" xmlns:xlink="http://www.w3.org/1999/xlink">
	
	
  
	
	<defs id="defs4">
		
		
    
		
		<linearGradient id="linearGradient3921">
			
			
      
			
			<stop id="stop3923" offset="0" style="stop-color:#b4b4b4;stop-opacity:1;"/>
			
			
      
			
			<stop id="stop3935" offset="0.24719921" style="stop-color:#dbdbdb;stop-opacity:1;"/>
			
			
      
			
			<stop id="stop3933" offset="0.32051244" style="stop-color:#b4b4b4;stop-opacity:1;"/>
			
			
      
			
			<stop id="stop3931" offset="0.49536699" style="stop-color:#d9d9d9;stop-opacity:1;"/>
			
			
      
			
			<stop id="stop3929" offset="0.63659227" style="stop-color:#b4b4b4;stop-opacity:1;"/>
			
			
      
			
			<stop id="stop3925" offset="1" style="stop-color:#e6e6e6;stop-opacity:1;"/>
			
			
    
		
		</linearGradient>
		
		
    
		
		<filter color-interpolation-filters="sRGB" id="filter3917" inkscape:collect="always">
			
			
      
			
			<feGaussianBlur id="feGaussianBlur3919" inkscape:collect="always" stdDeviation="1.9671095"/>
			
			
    
		
		</filter>
		
		
    
		
		<linearGradient gradientUnits="userSpaceOnUse" id="linearGradient3927" inkscape:collect="always" x1="694.34363" x2="1033.0946" xlink:href="#linearGradient3921" y1="445.32013" y2="708.80511"/>
		
		
    
		
		<linearGradient gradientUnits="userSpaceOnUse" id="linearGradient3950" inkscape:collect="always" x1="694.34363" x2="1033.0946" xlink:href="#linearGradient3921" y1="445.32013" y2="708.80511"/>
		
		
  
	
	</defs>
	
	
  
	
	<sodipodi:namedview bordercolor="#666666" borderopacity="1.0" fit-margin-bottom="5" fit-margin-left="5" fit-margin-right="5" fit-margin-top="5" id="base" inkscape:current-layer="layer1" inkscape:cx="299.77139" inkscape:cy="259.86212" inkscape:document-units="px" inkscape:guide-bbox="true" inkscape:object-nodes="true" inkscape:object-paths="true" inkscape:pageopacity="0.0" inkscape:pageshadow="2" inkscape:snap-center="true" inkscape:snap-global="false" inkscape:snap-intersection-paths="true" inkscape:snap-midpoints="true" inkscape:snap-object-midpoints="true" inkscape:snap-smooth-nodes="true" inkscape:window-height="749" inkscape:window-maximized="1" inkscape:window-width="1024" inkscape:window-x="-4" inkscape:window-y="-4" inkscape:zoom="0.71972684" pagecolor="#ffffff" showgrid="false" showguides="true"/>
	
	
  
	
	<metadata id="metadata7">
		
		
    
		
		<rdf:RDF>
			
			
      
			
			<cc:Work rdf:about="">
				
				
        
				
				<dc:format>image/svg+xml</dc:format>
				
				
        
				
				<dc:type rdf:resource="http://purl.org/dc/dcmitype/StillImage"/>
				
				
        
				
				<dc:title/>
				
				
      
			
			</cc:Work>
			
			
    
		
		</rdf:RDF>
		
		
  
	
	</metadata>
	
	
  
	
	<g id="layer1" inkscape:groupmode="layer" inkscape:label="Ebene 1" transform="translate(-70.346907,-197.34762)">
		
		
    
		
		<path animation_id="0" d="M 107.42449,547.06917 -162.64976,458.30749 49.257239,268.79716 z" id="path2997" inkscape:flatsided="true" inkscape:randomized="0" inkscape:rounded="0" inkscape:transform-center-x="25.623291" inkscape:transform-center-y="-16.79144" sodipodi:arg1="0.84113437" sodipodi:arg2="1.8883319" sodipodi:cx="-1.9893425" sodipodi:cy="424.72461" sodipodi:r1="164.13281" sodipodi:r2="31.185234" sodipodi:sides="3" sodipodi:type="star" style="fill:#ffffff;fill-opacity:0;stroke:none"/>
		
		
    
		
		<path animation_id="1" d="M -775.8435,129.30726 -1488.76,-71.807686 -958.13111,-588.65402 z" id="path2999" inkscape:flatsided="true" inkscape:randomized="0" inkscape:rounded="0" inkscape:transform-center-x="58.056884" inkscape:transform-center-y="-52.621899" sodipodi:arg1="0.7985553" sodipodi:arg2="1.8457529" sodipodi:cx="-1074.2449" sodipodi:cy="-177.05148" sodipodi:r1="427.66699" sodipodi:r2="213.8335" sodipodi:sides="3" sodipodi:type="star" style="fill:#ffffff;fill-opacity:0;stroke:none"/>
		
		
    
		
		<g id="g3937" transform="matrix(1.3111878,0,0,1.3111878,-683.74888,-181.01091)">
			
			
      
			
			<path animation_id="2" d="m 803.75,292.375 -224.8125,388.75 224.8125,0 224.8125,0 L 803.75,292.375 z" id="path3777" inkscape:connector-curvature="0" style="fill:url(#linearGradient3950);fill-opacity:1;stroke:none"/>
			
			
      
			
			<g id="g3131" style="fill:#000000;filter:url(#filter3917)" transform="translate(2.5933224,0)">
				
				
        
				
				<path animation_id="3" d="m 803.75,308.21875 -1.71875,3 c -69.75388,120.63316 -139.4767,241.28437 -209.25,361.90625 l 421.93755,0 C 944.3764,551.50086 874.05326,429.86546 803.75,308.21875 z m 0,23.84375 190.25,329.0625 -380.46875,0 94.1875,-162.9375 96.03125,-166.125 z" id="path3133" inkscape:connector-curvature="0" style="fill:#000000;fill-opacity:1;stroke:none"/>
				
				
        
				
				<path animation_id="4" d="m 888.80105,495.0625 4.125,7.125 33.4375,57.84375 -37.5625,0 0,-64.96875 z m -30.875,-53.4375 15.46875,26.78125 0,91.625 -15.46875,0 0,-118.40625 z m -30.96875,-53.5625 15.5,26.8125 0,145.15625 -15.5,0 0,-171.96875 z m -108.23855,107 -4.125,7.125 -33.4375,57.84375 37.5625,0 0,-64.96875 z m 30.875,-53.4375 -15.46875,26.78125 0,91.625 15.46875,0 0,-118.40625 z m 30.96875,-53.5625 -15.5,26.8125 0,145.15625 15.5,0 0,-171.96875 z m 23.1875,-40.125 -7.71875,13.34375 0,198.75 15.46875,0 0,-198.6875 -7.75,-13.40625 z" id="path3135" inkscape:connector-curvature="0" style="fill:#000000;fill-opacity:1;stroke:none"/>
				
				
        
				
				<g id="g3137" style="fill:#000000" transform="translate(-40.338422,0.50744)">
					
					
          
					
					<path animation_id="5" d="m 895.84375,571.25 0.0625,78.5625 c 0,0 10.90605,-0.13678 17.25,0 24.9362,0.53763 39.02687,-20.21553 38.6875,-39.28125 C 951.50438,591.46554 938.25394,571.25 907.40625,571.25 z m 14.71875,16.5625 c 12.71823,0.0738 25.22624,9.37759 25.22624,22.71875 0,13.34117 -9.98203,25.42633 -25.31999,25.09375 0.17948,-14.49905 0.117,-31.5485 0.125,-46.71875 -0.0117,-0.36382 -0.0195,-0.72988 -0.0312,-1.09375 z m -77.17876,61.9982 17.99521,0 41.61391,-78.57551 -18.55756,0 -13.95506,26.47666 -14.16244,-26.47666 -20.24461,0 25.14949,44.03528 z m -41.29532,-78.62586 c -21.84994,0 -39.5625,17.71256 -39.5625,39.5625 0,21.84994 17.71256,39.5625 39.5625,39.5625 21.84994,0 39.5625,-17.71256 39.5625,-39.5625 0,-21.84994 -17.71256,-39.5625 -39.5625,-39.5625 z m 0,14.40625 c 13.88448,0 25.15625,11.27177 25.15625,25.15625 0,13.88448 -11.27177,25.125 -25.15625,25.125 -13.88448,0 -25.125,-11.24052 -25.125,-25.125 0,-13.88448 11.24052,-25.15625 25.125,-25.15625 z M 722.03656,571.25 l 0,63.78125 0,14.78125 14.78125,0 19.125,0 0,-14.78125 -19.125,0 0,-63.78125 -14.78125,0 z m -46.01064,0 0,63.78125 0,14.78125 14.78125,0 19.125,0 0,-14.78125 -19.125,0 0,-63.78125 -14.78125,0 z" id="path3139" inkscape:connector-curvature="0" style="fill:#000000;fill-opacity:1;stroke:none" transform="translate(39.34375,-0.50744)"/>
					
					
        
				
				</g>
				
				
      
			
			</g>
			
			
      
			
			<g id="g3125">
				
				
        
				
				<path animation_id="6" d="m 803.75,308.21875 -1.71875,3 c -69.75388,120.63316 -139.4767,241.28437 -209.25,361.90625 l 421.93755,0 C 944.3764,551.50086 874.05326,429.86546 803.75,308.21875 z m 0,23.84375 190.25,329.0625 -380.46875,0 94.1875,-162.9375 96.03125,-166.125 z" id="path3782" inkscape:connector-curvature="0" style="fill:#3671b6;fill-opacity:1;stroke:none"/>
				
				
        
				
				<path animation_id="7" d="m 888.80105,495.0625 4.125,7.125 33.4375,57.84375 -37.5625,0 0,-64.96875 z m -30.875,-53.4375 15.46875,26.78125 0,91.625 -15.46875,0 0,-118.40625 z m -30.96875,-53.5625 15.5,26.8125 0,145.15625 -15.5,0 0,-171.96875 z m -108.23855,107 -4.125,7.125 -33.4375,57.84375 37.5625,0 0,-64.96875 z m 30.875,-53.4375 -15.46875,26.78125 0,91.625 15.46875,0 0,-118.40625 z m 30.96875,-53.5625 -15.5,26.8125 0,145.15625 15.5,0 0,-171.96875 z m 23.1875,-40.125 -7.71875,13.34375 0,198.75 15.46875,0 0,-198.6875 -7.75,-13.40625 z" id="path3035" inkscape:connector-curvature="0" style="fill:#e02730;fill-opacity:1;stroke:none"/>
				
				
        
				
				<g id="g3083" transform="translate(-40.338422,0.50744)">
					
					
          
					
					<path animation_id="8" d="m 895.84375,571.25 0.0625,78.5625 c 0,0 10.90605,-0.13678 17.25,0 24.9362,0.53763 39.02687,-20.21553 38.6875,-39.28125 C 951.50438,591.46554 938.25394,571.25 907.40625,571.25 z m 14.71875,16.5625 c 12.71823,0.0738 25.22624,9.37759 25.22624,22.71875 0,13.34117 -9.98203,25.42633 -25.31999,25.09375 0.17948,-14.49905 0.117,-31.5485 0.125,-46.71875 -0.0117,-0.36382 -0.0195,-0.72988 -0.0312,-1.09375 z m -77.17876,61.9982 17.99521,0 41.61391,-78.57551 -18.55756,0 -13.95506,26.47666 -14.16244,-26.47666 -20.24461,0 25.14949,44.03528 z m -41.29532,-78.62586 c -21.84994,0 -39.5625,17.71256 -39.5625,39.5625 0,21.84994 17.71256,39.5625 39.5625,39.5625 21.84994,0 39.5625,-17.71256 39.5625,-39.5625 0,-21.84994 -17.71256,-39.5625 -39.5625,-39.5625 z m 0,14.40625 c 13.88448,0 25.15625,11.27177 25.15625,25.15625 0,13.88448 -11.27177,25.125 -25.15625,25.125 -13.88448,0 -25.125,-11.24052 -25.125,-25.125 0,-13.88448 11.24052,-25.15625 25.125,-25.15625 z M 722.03656,571.25 l 0,63.78125 0,14.78125 14.78125,0 19.125,0 0,-14.78125 -19.125,0 0,-63.78125 -14.78125,0 z m -46.01064,0 0,63.78125 0,14.78125 14.78125,0 19.125,0 0,-14.78125 -19.125,0 0,-63.78125 -14.78125,0 z" id="path3063" inkscape:connector-curvature="0" style="fill:#3671b6;fill-opacity:1;stroke:none" transform="translate(39.34375,-0.50744)"/>
					
					
        
				
				</g>
				
				
      
			
			</g>
			
			
    
		
		</g>
		
		
  
	
	</g>
	
	


</svg>
