<?xml version="1.0" encoding="iso-8859-1"?>
<!-- Generator: Adobe Illustrator 15.1.0, SVG Export Plug-In . SVG Version: 6.00 Build 0)  -->
<!DOCTYPE svg
  PUBLIC '-//W3C//DTD SVG 1.1//EN'
  'http://www.w3.org/Graphics/SVG/1.1/DTD/svg11.dtd'>
<svg enable-background="new 0 0 181.871 60.207" height="60.207px" id="Ebene_1" version="1.1" viewBox="-45.46775 -15.05175 272.8065 90.3105" width="181.871px" x="0px" xml:space="preserve" xmlns="http://www.w3.org/2000/svg" xmlns:xlink="http://www.w3.org/1999/xlink" y="0px">
	
	

	
	<polygon animation_id="3" fill="#004F9F" points="100.927,20.073 95.173,40.138 114.23,40.138 115.803,34.7 105.02,34.7 105.682,32.429   114.974,32.429 116.267,27.905 106.989,27.905 107.665,25.484 118.43,25.484 119.985,20.073 "/>
	
	

	
	<polygon animation_id="4" fill="#004F9F" points="20.069,40.138 25.813,20.073 32.976,20.075 36.097,27.905 38.342,20.068 45.636,20.073   39.885,40.138 33.294,40.138 30.199,32.429 27.99,40.138 "/>
	
	

	
	<g>
		
		
	
		
		<path animation_id="0" d="M51.971,30.027c1.323-4.536,4.001-4.542,5.396-4.542c1.395,0,3.864,0.001,2.58,4.542   c-1.322,4.675-3.916,4.677-5.311,4.677S50.586,34.702,51.971,30.027 M44.202,30.053c-2.987,10.417,4.193,10.754,8.683,10.754   c4.488,0,11.864-0.338,14.85-10.754c2.988-10.417-4.193-10.755-8.683-10.755C54.563,19.298,47.189,19.637,44.202,30.053" fill="#004F9F"/>
		
		
	
		
		<path animation_id="1" d="M125.613,34.7l2.657-9.215h2.009c1.387,0,3.854,0.003,2.637,4.548c-1.251,4.667-3.872,4.667-5.262,4.667   H125.613z M141.04,30.094c2.786-9.719-4.868-10.026-9.057-10.021h-10.416l-5.752,20.065h10.364   C130.392,40.138,138.254,39.812,141.04,30.094" fill="#004F9F"/>
		
		
	
		
		<path animation_id="2" d="M153.873,25.566l-4.057,6.863h4.057V25.566z M160.752,20.073l1.05,20.065H154l-0.058-2.34h-7.251   l-1.384,2.34h-8.084l11.947-20.065H160.752z" fill="#004F9F"/>
		
		
	
		
		<polygon animation_id="5" fill="#004F9F" points="81.312,32.429 76.841,40.138 70.36,40.138 69.428,20.073 77.271,20.073 77.636,27.905    82.267,20.073 87.143,20.073 87.507,27.905 92.143,20.073 100.16,20.073 88.206,40.138 81.42,40.138  "/>
		
		

	
	</g>
	
	


</svg>
