<?xml version="1.0" encoding="iso-8859-1"?>
<!-- Created with Inkscape (http://www.inkscape.org/) -->
<svg height="75" id="svg2" version="1.0" viewBox="-127.75 -19.006 766.5 112.5" width="511" xml:space="preserve" xmlns="http://www.w3.org/2000/svg" xmlns:svg="http://www.w3.org/2000/svg">
	
	
	
	
	<defs id="defs4">
	</defs>
	
	
	
	
	<g id="g6">
		
		
		
		
		<path animation_id="0" d="M 8.399,22.49 L 8.941,22.219 C 12.464,19.509 15.174,17.883 20.05,17.883 C 32.243,17.883 38.747,28.179 38.747,39.561 C 38.747,50.669 32.516,60.697 20.321,60.697 C 16.529,60.697 11.109,59.341 8.399,56.089 L 8.399,74.244 L 0,74.244 L 0,18.696 L 8.399,18.696 L 8.399,22.49 L 8.399,22.49 z M 8.399,39.29 C 8.399,46.605 11.109,53.651 19.508,53.651 C 27.638,53.651 30.348,46.878 30.348,39.832 C 30.348,32.517 28.18,25.2 19.508,25.2 C 11.109,25.2 8.399,32.244 8.399,39.29 L 8.399,39.29 z " id="path8" style="fill-rule:evenodd"/>
		
		
		
		
		<path animation_id="1" d="M 81.29,18.696 L 81.29,60.155 L 72.891,60.155 L 72.891,26.555 L 59.613,26.555 L 59.613,18.696 L 81.29,18.696 L 81.29,18.696 z M 69.639,0 L 81.29,0 L 81.29,10.567 L 69.639,10.567 L 69.639,0 L 69.639,0 z " id="path10" style="fill-rule:evenodd"/>
		
		
		
		
		<polygon animation_id="7" id="polygon12" points="128.44,32.517 137.382,18.696 147.136,18.696 133.046,39.019 148.762,60.155 137.924,60.155 127.897,44.979 117.872,60.155 108.117,60.155 123.29,39.29 108.117,18.696 119.769,18.696 128.44,32.517 " style="fill-rule:evenodd"/>
		
		
		
		
		<path animation_id="2" d="M 178.298,41.187 C 178.027,48.501 182.903,53.651 190.491,53.651 C 192.93,53.651 196.182,53.381 196.995,50.941 L 205.394,50.941 C 205.123,58.798 196.453,60.697 189.949,60.697 C 176.943,60.697 169.898,52.567 169.898,39.832 C 169.898,27.368 175.858,17.883 188.865,17.883 C 201.872,17.883 207.02,26.555 207.02,38.477 L 207.02,41.187 L 178.298,41.187 L 178.298,41.187 z M 198.35,33.87 C 198.35,28.452 194.285,25.2 188.865,25.2 C 183.716,25.2 178.84,28.452 178.298,33.87 L 198.35,33.87 L 198.35,33.87 z " id="path14" style="fill-rule:evenodd"/>
		
		
		
		
		<path animation_id="3" d="M 243.331,44.168 C 243.331,50.941 245.77,53.109 252.543,53.109 L 258.232,53.109 L 258.232,60.155 L 250.375,60.155 C 238.182,60.155 234.659,53.651 234.659,42 L 234.659,0 L 243.331,0 L 243.331,44.168 L 243.331,44.168 z " id="path16" style="fill-rule:evenodd"/>
		
		
		
		
		<path animation_id="4" d="M 293.73,22.49 L 294.272,22.219 C 297.796,19.509 300.503,17.883 305.112,17.883 C 317.575,17.883 324.079,28.179 324.079,39.561 C 324.079,50.669 317.575,60.697 305.654,60.697 C 301.588,60.697 296.44,59.341 293.73,56.089 L 293.73,74.244 L 285.061,74.244 L 285.061,18.696 L 293.73,18.696 L 293.73,22.49 L 293.73,22.49 z M 293.73,39.29 C 293.73,46.605 296.44,53.651 304.57,53.651 C 312.697,53.651 315.41,46.878 315.41,39.832 C 315.41,32.517 313.512,25.2 304.57,25.2 C 296.44,25.2 293.73,32.244 293.73,39.29 L 293.73,39.29 z " id="path18" style="fill-rule:evenodd"/>
		
		
		
		
		<path animation_id="5" d="M 374.209,56.089 C 370.957,59.071 366.621,60.697 362.285,60.697 C 354.158,60.697 347.382,56.361 347.382,47.962 C 347.382,37.393 357.41,34.141 366.352,34.141 L 374.209,34.141 L 374.209,32.516 C 374.209,27.909 373.397,24.386 366.352,24.386 C 362.016,24.386 357.68,25.199 357.68,29.264 L 349.281,29.264 C 349.823,20.05 358.492,17.882 366.08,17.882 C 378.004,17.882 382.609,22.218 382.609,34.411 L 382.609,60.154 L 374.21,60.154 L 374.21,56.089 L 374.209,56.089 z M 365.268,40.645 C 360.66,40.645 355.785,42.271 355.785,47.689 C 355.785,52.025 358.764,54.462 363.1,54.462 C 370.415,54.462 374.209,48.773 374.209,41.999 L 374.209,40.644 L 365.268,40.644 L 365.268,40.645 z " id="path20" style="fill-rule:evenodd"/>
		
		
		
		
		<path animation_id="6" d="M 424.339,23.303 L 424.609,23.303 C 427.049,19.78 430.843,17.883 435.179,17.883 C 442.494,17.883 447.642,23.303 447.642,30.618 L 447.642,32.244 L 439.243,32.244 L 439.243,30.89 C 439.243,27.638 437.617,24.386 434.093,24.386 C 425.966,24.386 424.34,32.516 424.34,38.747 L 424.34,60.154 L 415.941,60.154 L 415.941,18.696 L 424.34,18.696 L 424.34,23.303 L 424.339,23.303 z " id="path22" style="fill-rule:evenodd"/>
		
		
		
		
		<polygon animation_id="8" id="polygon24" points="481.512,33.599 497.229,18.696 508.339,18.696 488.83,36.58 510.234,60.155 499.125,60.155 481.512,40.645 481.512,60.155 473.112,60.155 473.112,0 481.512,0 481.512,33.599 " style="fill-rule:evenodd"/>
		
		
	
	
	</g>
	
	


</svg>
