<?xml version="1.0" encoding="iso-8859-1"?>
<svg enable-background="new 0 0 252 254.1" height="300" viewBox="-75.0 -74.9999975 450.0 449.99998500000004" width="300" xmlns="http://www.w3.org/2000/svg" xmlns:xlink="http://www.w3.org/1999/xlink">
	
	
  
	
	<clipPath id="a">
		
		
    
		
		<path animation_id="0" d="m259.9-11.8v167.6h-40.3l-92.6 64.2-.1 34.1h-132.8v-265.9z" height="100%" width="100%"/>
		
		
  
	
	</clipPath>
	
	
  
	
	<linearGradient gradientUnits="userSpaceOnUse" id="b" x1="173.5641" x2="163.108" y1="188.3436" y2="173.411">
		
		
    
		
		<stop offset="0" stop-color="#6f6f6e"/>
		
		
    
		
		<stop offset=".227" stop-color="#9c9b9b"/>
		
		
    
		
		<stop offset=".9571" stop-color="#fff"/>
		
		
    
		
		<stop offset="1" stop-color="#fbfbfb"/>
		
		
  
	
	</linearGradient>
	
	
  
	
	<linearGradient gradientUnits="userSpaceOnUse" id="c" x1="20.4027" x2="187.45399" y1="178.3461" y2="11.2948">
		
		
    
		
		<stop offset="0" stop-color="#292827"/>
		
		
    
		
		<stop offset=".1896" stop-color="#2c2c2b"/>
		
		
    
		
		<stop offset=".3751" stop-color="#383837"/>
		
		
    
		
		<stop offset=".5591" stop-color="#4c4c4b"/>
		
		
    
		
		<stop offset=".7421" stop-color="#676766"/>
		
		
    
		
		<stop offset=".9228" stop-color="#8a8a8a"/>
		
		
    
		
		<stop offset="1" stop-color="#9c9b9b"/>
		
		
  
	
	</linearGradient>
	
	
  
	
	<g transform="matrix(1.5166835 0 0 1.5166835 -42.618804 -33.670369)">
		
		
    
		
		<circle animation_id="11" clip-path="url(#a)" cx="127" cy="121.1" fill="#222221" r="98.900002"/>
		
		
    
		
		<path animation_id="1" d="m126.9 220h.1l92.6-64.2h-.1c-42.4 0-78.6 26.7-92.6 64.2z" fill="url(#b)"/>
		
		
    
		
		<path animation_id="2" d="m137 127.1c49.7-16.1 74.7-50.5 76.8-53.5-16.8-30.6-49.4-51.4-86.8-51.4-54.6 0-98.9 44.3-98.9 98.9 0 4.1.3 8.2.8 12.1 1.3.3 56.8 10.5 108.1-6.1z" fill="url(#c)"/>
		
		
    
		
		<g fill="#fff">
			
			
      
			
			<path animation_id="3" d="m199 128.9h-.1l-9.2-13.5v20.5h-2.8v-25.3h2.9l9.2 13.8 9.2-13.8h2.9v25.3h-2.9v-20.5z"/>
			
			
      
			
			<path animation_id="4" d="m165.2 110.6h2.9v22.7h14.2v2.6h-17.1z"/>
			
			
      
			
			<path animation_id="5" d="m159.2 110.6v25.3h-2.9v-25.3z"/>
			
			
      
			
			<path animation_id="6" d="m151.3 113.2h-15.3v9h13.7v2.6h-13.7v11h-2.9v-25.3h18.2z"/>
			
			
      
			
			<path animation_id="7" d="m121.3 135.9v-25.3h5.6v25.3z"/>
			
			
      
			
			<path animation_id="8" d="m98.1 135.9v-25.3h5.6v20.2h12.6v5.1z"/>
			
			
      
			
			<path animation_id="9" d="m80.1 136.3c-7.8 0-13.4-5.8-13.4-13v-.1c0-7.2 5.7-13.1 13.5-13.1s13.4 5.8 13.4 13v.1c-.1 7.2-5.7 13.1-13.5 13.1zm7.6-13.1c0-4.3-3.2-8-7.7-8s-7.6 3.5-7.6 7.9v.1c0 4.3 3.2 7.9 7.7 7.9 4.5.1 7.6-3.5 7.6-7.9z"/>
			
			
      
			
			<path animation_id="10" d="m53 128.3h-4.2v7.6h-5.6v-25.3h10.3c6 0 9.7 3.6 9.7 8.7v.1c0 5.8-4.5 8.9-10.2 8.9zm4.6-8.9c0-2.5-1.7-3.8-4.5-3.8h-4.3v7.7h4.4c2.7 0 4.4-1.6 4.4-3.9z"/>
			
			
    
		
		</g>
		
		
  
	
	</g>
	
	


</svg>
