<?xml version="1.0" encoding="iso-8859-1"?>
<!-- Created with Inkscape (http://www.inkscape.org/) by Marsupilami -->
<svg height="170" id="svg2273" version="1.0" viewBox="-37.296875 -6.1953125 223.78125 37.171875" width="1024" xmlns="http://www.w3.org/2000/svg" xmlns:svg="http://www.w3.org/2000/svg">
	
	
  
	
	<defs id="defs2275">
		
		
    
		
		<clipPath id="clipPath3955">
			
			
      
			
			<path animation_id="0" d="M 0.06,842.04 L 596.1,842.04 L 596.1,0 L 0.06,0 L 0.06,842.04 z " id="path3957"/>
			
			
    
		
		</clipPath>
		
		
    
		
		<clipPath id="clipPath3949">
			
			
      
			
			<path animation_id="1" d="M 12,829 L 584,829 L 584,11 L 12,11 L 12,829 z " id="path3951"/>
			
			
    
		
		</clipPath>
		
		
    
		
		<clipPath id="clipPath3943">
			
			
      
			
			<path animation_id="2" d="M 448.15,428.31 L 604.05,428.31 L 604.05,393.02 L 448.15,393.02 L 448.15,428.31 z " id="path3945"/>
			
			
    
		
		</clipPath>
		
		
  
	
	</defs>
	
	
  
	
	<g id="layer1" transform="translate(58.02232,-3.46652)">
		
		
    
		
		<g id="g3939" transform="matrix(1.25,0,0,-1.25,-630.80357,536.96652)">
			
			
      
			
			<g clip-path="url(#clipPath3943)" id="g3941">
				
				
        
				
				<g clip-path="url(#clipPath3949)" id="g3947">
					
					
          
					
					<g clip-path="url(#clipPath3955)" id="g3953">
						
						
            
						
						<path animation_id="3" d="M 713.46875,519 C 706.58251,519 702.7925,522.46125 700.96875,524.84375 C 700.83002,525.02377 700.71,525.20875 700.59375,525.375 C 699.66253,526.74372 699.08125,528.05875 698.71875,529.25 C 698.215,530.90249 698.125,532.3075 698.125,533.1875 C 698.12502,533.8575 698.1825,534.49375 698.28125,535.125 C 698.64625,537.45999 699.67875,539.5225 701.34375,541.03125 C 702.37128,541.96248 703.6575,542.6825 705.15625,543.15625 C 706.03251,543.45997 707.43625,543.78125 709.625,543.78125 C 710.80372,543.78127 714.43875,543.66375 717.875,542.25 L 718.125,541.03125 L 719.375,535.125 L 720,532.21875 L 714.75,532.21875 L 714.125,535.125 L 713.03125,540.3125 C 711.88501,540.88502 710.7525,540.96875 710.28125,540.96875 C 707.45252,540.96875 705.22125,539.22 704.3125,536.59375 C 704.14376,536.08748 704.0325,535.57125 703.96875,535.125 C 703.86625,534.41249 703.875,533.85125 703.875,533.5625 C 703.87498,531.91623 704.13875,530.46125 704.53125,529.25 C 705.09628,527.50874 705.91375,526.245 706.46875,525.53125 C 706.65623,525.28502 706.835,525.05875 707.03125,524.84375 C 709.44753,522.20252 712.47375,521.84375 713.84375,521.84375 C 717.14501,521.84373 719.19625,523.75125 719.9375,524.59375 C 720.00373,524.675 720.05875,524.75625 720.125,524.84375 C 720.39253,525.19377 720.65875,525.59125 720.875,525.96875 L 721.125,524.84375 L 721.96875,520.78125 C 718.46627,519.09752 714.715,519 713.46875,519 z M 661.625,519.09375 C 657.23997,519.14719 654.94531,521.34414 653.9375,523.09375 C 653.62123,523.65127 653.385,524.24 653.21875,524.84375 C 653.07248,525.37502 652.9675,525.93375 652.9375,526.5 C 652.87503,527.69747 653.08625,528.57125 653.375,529.25 C 653.61373,529.81124 653.915,530.2275 654.1875,530.5625 C 654.75626,531.29999 655.43375,531.875 657.03125,532.9375 L 657.9375,533.53125 C 658.26375,533.75002 658.585,533.9675 658.875,534.21875 C 659.24128,534.51877 659.5025,534.8225 659.6875,535.125 C 660.12503,535.83874 660.15,536.5275 660.125,537 C 660.07998,537.87502 659.58625,540.01625 657.09375,540.59375 C 656.65,540.70627 656.1575,540.74375 655.6875,540.71875 C 652.55873,540.55502 651.0825,538.05375 650.65625,537.1875 L 649.65625,541.03125 L 649.375,542.0625 C 651.17623,543.10126 653.3225,543.58 655.375,543.6875 C 659.16877,543.88623 661.60875,542.53 663.09375,541.03125 C 663.68872,540.42873 664.11875,539.80375 664.4375,539.25 C 665.28877,537.81123 665.43625,536.44875 665.46875,535.84375 C 665.48128,535.59627 665.4775,535.355 665.46875,535.125 C 665.38252,533.06999 664.41,531.68 662.6875,530.40625 C 662.16872,530.00749 661.65,529.67625 661.09375,529.34375 L 660.9375,529.25 L 660.1875,528.75 C 659.63376,528.38377 659.285,528.15 659.09375,527.9375 C 658.70877,527.58 658.075,526.73375 658.125,525.34375 C 658.13372,525.17498 658.16125,524.995 658.1875,524.84375 C 658.48873,523.09127 659.83625,522.4625 660.5,522.25 C 661.22127,521.98378 661.9525,521.9875 662.1875,522 C 663.12998,522.04878 665.21125,522.495 666.6875,524.5625 L 667.78125,520.5625 C 665.52122,519.29624 663.47375,519.17375 662.53125,519.125 C 662.22015,519.10867 661.91734,519.09019 661.625,519.09375 z M 677.21875,519.09375 C 672.83285,519.14721 670.50783,521.34416 669.5,523.09375 C 669.1825,523.65125 668.94627,524.24002 668.78125,524.84375 C 668.635,525.375 668.56001,525.93372 668.53125,526.5 C 668.46875,527.6975 668.64877,528.57124 668.9375,529.25 C 669.17625,529.81125 669.47749,530.22749 669.75,530.5625 C 670.31875,531.3 670.99624,531.87499 672.59375,532.9375 L 673.53125,533.53125 C 673.85625,533.75 674.30374,534.03001 674.59375,534.28125 C 674.94125,534.56625 675.21748,534.83749 675.40625,535.125 C 675.88625,535.85625 675.93123,536.58001 675.90625,537.0625 C 675.86125,537.9375 675.17998,540.01627 672.6875,540.59375 C 672.24375,540.70625 671.72124,540.74377 671.25,540.71875 C 668.1225,540.555 666.67747,538.05377 666.25,537.1875 L 665.21875,541.03125 L 664.9375,542.0625 C 666.73875,543.10125 668.91625,543.57998 670.96875,543.6875 C 671.18375,543.69875 671.38749,543.71751 671.59375,543.71875 L 671.84375,543.71875 C 675.2075,543.66625 677.26501,542.46998 678.6875,541.03125 C 679.22125,540.49125 679.67123,539.90625 680.0625,539.34375 L 682.75,535.40625 L 692,535.40625 L 692,541.03125 L 692,543.28125 L 696.8125,543.28125 L 696.8125,541.03125 L 696.8125,535.125 L 696.8125,529.25 L 696.8125,524.84375 L 696.8125,519.5 L 694.34375,519.5 C 690.79625,519.5 689.13374,519.52377 686.90625,522.15625 C 686.265,522.89875 685.73,523.71872 685.15625,524.5625 L 684.96875,524.84375 L 681.90625,529.25 L 679.96875,532.03125 C 679.52625,531.445 678.97498,530.91874 678.28125,530.40625 C 677.7625,530.0075 677.21124,529.67624 676.65625,529.34375 L 676.53125,529.25 L 675.75,528.75 C 675.195,528.38375 674.87875,528.15 674.6875,527.9375 C 674.3025,527.58 673.66876,526.73373 673.71875,525.34375 C 673.7275,525.175 673.72377,524.99502 673.75,524.84375 C 674.05,523.09125 675.43122,522.46253 676.09375,522.25 C 676.81625,521.98375 677.51502,521.98753 677.75,522 C 678.6925,522.04875 680.805,522.495 682.28125,524.5625 L 683.375,520.5625 C 681.11375,519.29625 679.06626,519.17373 678.125,519.125 C 677.81383,519.10867 677.51114,519.09019 677.21875,519.09375 z M 584.34375,519.46875 C 583.90172,519.46875 583.45436,519.48314 583,519.5 L 577.84375,519.5 L 576.71875,524.84375 L 575.78125,529.25 L 574.53125,535.125 L 573.28125,541.03125 L 572.78125,543.28125 L 577.96875,543.28125 L 578.46875,541.03125 L 579.71875,535.125 L 580.96875,529.25 L 581.90625,524.84375 L 582.3125,523.03125 C 583.50125,522.25 584.60628,521.96874 585.71875,521.96875 C 587.09125,521.96875 588.96497,522.48752 589.46875,524.84375 C 589.5525,525.235 589.59378,525.68998 589.59375,526.1875 C 589.59375,526.57875 589.53872,527.97374 588.84375,529.25 C 588.63875,529.625 588.39123,529.99002 588.0625,530.3125 C 587.82625,530.5475 587.31122,530.98377 586.46875,531.21875 C 585.18875,531.55625 583.80998,531.47498 582.96875,532.6875 C 582.43,533.4625 582.43748,534.48249 582.4375,534.71875 C 582.4375,534.85875 582.42628,534.99499 582.4375,535.125 C 582.475,535.59125 582.5725,535.99873 582.625,536.15625 C 583.6775,535.80375 584.64375,535.44749 585.53125,535.125 C 589.1325,533.815 591.44251,532.69125 592.875,531.125 C 593.41,530.5475 593.78622,529.89374 594.0625,529.25 C 594.6725,527.83 594.75003,526.4475 594.75,525.9375 C 594.75,525.5475 594.73626,525.18252 594.6875,524.84375 C 594.3775,522.69375 593.15627,521.55123 592.3125,520.96875 C 590.42625,519.68875 587.8125,519.53377 585.65625,519.5 C 585.21875,519.48312 584.78578,519.46875 584.34375,519.46875 z M 597.96875,519.5 L 596.84375,524.84375 L 595.90625,529.25 L 594.65625,535.125 L 593.40625,541.03125 L 592.90625,543.28125 L 598.09375,543.28125 L 598.59375,541.03125 L 599.84375,535.125 L 601.09375,529.25 L 602.03125,524.84375 L 602.40625,523.03125 C 603.595,522.25 604.69999,521.96877 605.8125,521.96875 C 607.295,521.96875 608.61501,522.41753 609.21875,523.8125 C 609.35875,524.1375 609.43002,524.48877 609.46875,524.84375 C 609.4825,524.97125 609.49997,525.09374 609.5,525.21875 C 609.5,526.80125 608.545,528.01999 607.5,529.03125 L 607.25,529.25 L 606.21875,530.1875 C 605.2425,530.9625 604.5,531.62374 604.5,532.9375 C 604.5,533.645 604.67378,534.48503 604.875,535.125 L 606.125,540.15625 C 606.20875,540.45875 606.26877,540.75498 606.375,541.03125 C 606.7275,541.9525 607.28128,542.6825 608.46875,543.0625 C 608.975,543.22375 609.92877,543.28499 610.3125,543.28125 L 612.5,543.28125 L 611.9375,541.03125 L 611.1875,538.15625 C 610.71625,536.64 610.66125,536.145 610.15625,535.4375 C 610.08625,535.32625 610.01002,535.21499 609.9375,535.125 C 609.835,534.9975 609.7425,534.91126 609.625,534.8125 C 609.2875,534.51 608.81247,534.16128 608.8125,533.65625 C 608.8125,533.1175 609.19501,532.83624 609.53125,532.5 C 610.71,531.4225 612.01625,530.58499 613.09375,529.40625 C 613.14,529.35875 613.16877,529.30499 613.21875,529.25 C 613.80625,528.60625 614.71876,527.45502 614.75,525.5 C 614.75,525.27125 614.74123,525.05127 614.71875,524.84375 C 614.54,523.18375 613.69625,522.16377 613.1875,521.65625 C 611.06625,519.46625 607.92124,519.50002 605.125,519.5 L 597.96875,519.5 z M 618.375,519.5 C 618.375,519.5 617.87502,521.79877 617.21875,524.84375 C 616.92375,526.21125 616.60997,527.72374 616.28125,529.25 C 615.8375,531.30875 615.37627,533.37999 615,535.125 C 614.76625,536.2125 614.56624,537.18872 614.40625,537.9375 C 614.40625,537.9375 614.03125,539.80627 613.96875,540.28125 C 613.93375,540.5475 613.90374,540.80998 613.90625,541.03125 C 613.93625,542.8575 615.2425,543.18876 616.71875,543.25 C 617.72625,543.2925 619.40625,543.28127 619.40625,543.28125 L 628.0625,543.28125 L 628.53125,541.03125 L 628.71875,540.03125 L 619.28125,540.03125 L 620.34375,535.125 L 620.90625,532.4375 L 626.78125,532.4375 L 626.78125,529.25 L 626.78125,529.15625 L 621.625,529.15625 L 622.53125,524.84375 L 622.96875,522.71875 L 632.3125,522.71875 L 631.875,524.84375 L 630.9375,529.25 L 630.65625,530.5 C 630.2025,532.5925 629.92625,533.98124 629.8125,535.125 C 629.77375,535.50875 629.75,535.88 629.75,536.21875 C 629.75,537.96375 630.02002,539.68623 631.1875,541.03125 L 631.21875,541.03125 C 632.49875,542.51375 634.19749,543.78127 638.34375,543.78125 C 642.34125,543.78125 644.93251,542.52623 646.5,541.03125 C 647.015,540.54125 647.40253,540.02998 647.71875,539.53125 C 648.4325,538.435 648.86627,537.15624 649.375,535.125 C 649.53875,534.47125 649.71875,533.74249 649.90625,532.90625 L 650.6875,529.25 L 651.625,524.84375 L 652.71875,519.71875 L 647.46875,519.71875 L 646.375,524.84375 L 645.4375,529.25 L 644.375,534.21875 C 644.30625,534.5175 644.26001,534.81874 644.1875,535.125 C 643.75875,536.9175 643.17372,538.75374 641.5625,539.875 C 641.0575,540.24625 640.07997,540.81251 638.53125,540.8125 C 636.0975,540.8125 634.8875,539.49748 634.90625,536.5 C 634.90875,536.07625 634.93752,535.58874 635,535.125 C 635.11125,534.29625 635.29624,533.4625 635.46875,532.75 L 636.21875,529.25 L 637.15625,524.84375 L 637.4375,523.4375 C 637.51625,523.06 637.69249,522.24499 637.71875,521.875 C 637.8175,520.45625 636.86997,519.615 635.1875,519.53125 C 634.77875,519.51125 633.45498,519.50003 633.03125,519.5 L 618.375,519.5 z M 692.28125,522.65625 L 692.25,524.84375 L 692.21875,529.25 L 692.1875,532.21875 L 685.0625,532.21875 L 687.0625,529.25 L 690.0625,524.84375 L 690.875,523.65625 C 691.38,522.90875 691.58123,522.65624 692.28125,522.65625 z " id="path3959" style="fill:#1a5dae;fill-opacity:1;fill-rule:evenodd;stroke:none" transform="matrix(0.8,0,0,-0.8,0,842)"/>
						
						
          
					
					</g>
					
					
        
				
				</g>
				
				
      
			
			</g>
			
			
    
		
		</g>
		
		
  
	
	</g>
	
	


</svg>
