<?xml version="1.0" encoding="iso-8859-1"?>
<!-- Created with Inkscape (http://www.inkscape.org/) -->
<svg height="293.03149" id="svg2327" version="1.0" viewBox="-212.59842 -73.2578725 1275.59052 439.547235" width="850.39368" xmlns="http://www.w3.org/2000/svg" xmlns:svg="http://www.w3.org/2000/svg">
	
	
  
	
	<defs id="defs2329"/>
	
	
  
	
	<g id="layer1" transform="translate(205.35849,-188.44497)">
		
		
    
		
		<g id="g2341" transform="matrix(1.2325381,0,0,1.2325381,83.186757,-60.125279)">
			
			
      
			
			<path animation_id="0" d="M -60.716362,410.71379 L -85.13571,410.71379 C -109.28808,410.71379 -123.24045,410.44695 -126.99809,410.18001 C -158.12655,407.76737 -176.64255,398.90718 -189.79424,380.39123 C -199.98897,365.63292 -205.3585,345.77192 -205.3585,321.89167 C -205.3585,287.81147 -195.96444,262.04721 -178.25443,247.82273 C -164.30211,236.82197 -142.29545,230.37957 -117.07025,230.37957 C -85.4026,230.37957 -59.371412,240.31272 -45.952824,258.02273 C -35.758141,271.16915 -28.515022,296.93336 -28.515022,319.74601 C -28.515022,343.35928 -34.952198,362.14217 -48.637631,378.77925 L -18.048177,378.77925 L -18.048177,410.71379 L -60.716362,410.71379 z M -153.02923,276.27175 C -159.73848,285.66053 -163.22923,299.88511 -163.22923,318.40106 C -163.22923,337.45597 -160.54442,351.68055 -154.64112,361.87523 C -147.12592,374.75481 -134.51328,380.65812 -116.5312,380.65812 C -98.015201,380.65812 -85.4026,374.22099 -78.159526,360.26335 C -73.05689,350.33546 -70.644289,336.91696 -70.644289,319.207 C -70.644289,302.30293 -74.401885,287.53935 -81.111135,277.34458 C -88.354298,266.07175 -100.43307,260.43528 -116.80332,260.43528 C -133.16828,260.43528 -145.2471,265.53792 -153.02923,276.27175" id="path32" style="fill:#94a1aa;fill-rule:nonzero;stroke:none"/>
			
			
      
			
			<path animation_id="1" d="M 143.49798,403.47076 C 134.64302,409.10718 123.37014,410.71379 96.805175,410.71379 L 6.9049959,410.71379 L 6.9049959,378.77925 L 88.48395,378.77925 C 102.70853,378.77925 110.49061,377.43953 115.05419,374.48788 C 120.69061,370.99726 123.90924,365.09382 123.90924,358.11764 C 123.90924,349.80168 119.61255,342.82032 112.36947,339.06268 C 108.61179,337.18381 101.63569,335.84413 93.047623,335.84413 L 60.040161,335.84413 C 38.572556,335.84413 24.615005,332.08649 15.226131,324.03738 C 4.4923507,314.64337 -1.6831185,300.15195 -1.6831185,284.58765 C -1.6831185,261.78032 10.929527,241.91933 29.445479,235.4822 C 37.494496,232.53059 46.893736,231.72461 67.822333,231.72461 L 156.37756,231.72461 L 156.37756,263.65915 L 76.410403,263.65915 C 59.501153,263.65915 58.16143,263.92599 52.524969,265.26576 C 45.009732,267.14462 40.451421,274.12604 40.451421,283.51486 C 40.451421,291.56388 44.209017,298.00629 50.646149,300.95794 C 56.01572,303.37577 60.312324,303.90955 73.191815,303.90955 L 101.90254,303.90955 C 128.20066,303.90955 142.42515,307.93412 152.89204,318.67318 C 160.94633,326.72219 166.30544,342.55338 166.30544,358.11764 C 166.30544,377.17264 157.45035,394.88265 143.49798,403.47076" id="path36" style="fill:#94a1aa;fill-rule:nonzero;stroke:none"/>
			
			
      
			
			<path animation_id="2" d="M 267.47323,410.71379 C 236.61679,410.71379 221.85325,406.42242 207.90089,393.00383 C 192.60348,378.24547 184.2823,353.5541 184.2823,321.61956 C 184.2823,281.36915 198.51201,251.58032 223.73198,239.77362 C 233.93198,234.94324 251.64199,231.72461 269.08511,231.72461 L 329.7356,231.72461 L 329.7356,263.65915 L 273.64865,263.65915 C 255.93864,263.65915 243.32604,268.48957 235.54387,278.15057 C 229.63543,285.3936 226.41679,299.61817 226.41679,318.13412 C 226.41679,344.4322 232.05325,362.94815 242.78708,370.73024 C 249.76326,376.09981 260.49704,378.77925 274.98842,378.77925 L 329.7356,378.77925 L 329.7356,410.71379 L 267.47323,410.71379" id="path40" style="fill:#94a1aa;fill-rule:nonzero;stroke:none"/>
			
			
      
			
			<path animation_id="3" d="M 378.03507,410.3213 L 374.00535,400.56098 L 358.00665,400.56098 L 353.97689,410.3213 L 343.46291,410.3213 L 360.8432,368.31764 L 371.10593,368.31764 L 388.4915,410.3213 L 378.03507,410.3213 z M 366.00857,378.39203 L 360.02676,393.0667 L 371.99043,393.0667 L 366.00857,378.39203" id="path44" style="fill:#94a1aa;fill-rule:nonzero;stroke:none"/>
			
			
      
			
			<path animation_id="4" d="M 408.33149,410.3213 C 401.84204,410.3213 398.50308,409.50495 395.41536,407.04525 C 391.1344,403.71142 388.80553,397.60401 388.80553,389.47653 C 388.80553,381.47979 391.1344,375.30432 395.35777,371.90258 C 398.37747,369.51089 402.72649,368.31764 408.7083,368.31764 L 427.09865,368.31764 L 427.09865,375.81192 L 409.78118,375.81192 C 406.69342,375.81192 404.36456,376.3772 402.60089,377.50754 C 399.82716,379.46491 398.62868,382.98703 398.62868,388.65486 C 398.62868,393.8831 399.76434,398.29489 401.65361,400.30973 C 403.29168,402.01062 405.9974,402.82706 410.09517,402.82706 L 418.15468,402.82706 L 418.15468,392.87822 L 406.44222,392.87822 L 406.44222,385.38394 L 427.09865,385.38394 L 427.09865,410.3213 L 408.33149,410.3213" id="path48" style="fill:#94a1aa;fill-rule:nonzero;stroke:none"/>
			
			
    
		
		</g>
		
		
  
	
	</g>
	
	


</svg>
