<?xml version="1.0" encoding="iso-8859-1"?>
<!-- Generator: Adobe Illustrator 14.0.0, SVG Export Plug-In . SVG Version: 6.00 Build 43363)  -->
<!DOCTYPE svg
  PUBLIC '-//W3C//DTD SVG 1.1//EN'
  'http://www.w3.org/Graphics/SVG/1.1/DTD/svg11.dtd'>
<svg enable-background="new 0 0 65.197 65.197" height="65.197px" id="Ebene_1" version="1.1" viewBox="-16.29925 -16.29925 97.7955 97.7955" width="65.197px" x="0px" xml:space="preserve" xmlns="http://www.w3.org/2000/svg" xmlns:xlink="http://www.w3.org/1999/xlink" y="0px">
	
	

	
	<g>
		
		
	
		
		<rect animation_id="5" fill="#E20020" height="65.197" width="65.197" y="0"/>
		
		
	
		
		<g>
			
			
		
			
			<path animation_id="0" d="M24.153,14.459c-0.005-2.72-2.198-4.911-4.903-4.911c-2.708,0-4.903,2.195-4.903,4.903    s2.195,4.903,4.903,4.903C21.955,19.354,24.148,17.164,24.153,14.459L24.153,14.459z M25.423,8.576v11.727h-1.27v-2.099    c-1.129,1.473-2.906,2.421-4.903,2.421c-3.41,0-6.174-2.764-6.174-6.174c0-3.409,2.764-6.173,6.174-6.173    c1.997,0,3.774,0.949,4.903,2.421V8.576H25.423L25.423,8.576z" fill="#FFFFFF"/>
			
			
		
			
			<path animation_id="1" d="M6.656,8.575v1.327c1.608-1.831,4.505-2.466,7.063-0.343l-0.811,0.978c-2.881-2.39-6.249-0.246-6.229,2.68    v7.102H5.386V8.575H6.656L6.656,8.575z" fill="#FFFFFF"/>
			
			
		
			
			<path animation_id="2" d="M48.489,18.964c-1.105,1.055-2.605,1.702-4.256,1.702c-3.41,0-6.174-2.765-6.174-6.174    s2.764-6.173,6.174-6.173c1.732,0,3.301,0.714,4.421,1.863l-0.909,0.888c-0.893-0.914-2.136-1.481-3.512-1.481    c-2.708,0-4.902,2.195-4.902,4.903s2.194,4.903,4.902,4.903c1.311,0,2.5-0.515,3.38-1.352L48.489,18.964L48.489,18.964z" fill="#FFFFFF"/>
			
			
		
			
			<path animation_id="3" d="M35.604,15.68V8.565h1.271v7.146c-0.056,6.593-9.827,6.583-9.869,0.015l0.002-7.16h1.271l-0.001,7.154    C28.29,20.652,35.592,20.582,35.604,15.68L35.604,15.68z" fill="#FFFFFF"/>
			
			
		
			
			<path animation_id="4" d="M51.329,4.961v5.021c2.651-2.953,8.59-2.007,8.623,3.178v7.154H58.68l0.002-7.147    c-0.032-4.936-7.102-4.65-7.329,0.069v7.079h-1.294V4.961H51.329L51.329,4.961z" fill="#FFFFFF"/>
			
			
	
		
		</g>
		
		

	
	</g>
	
	


</svg>
