<?xml version="1.0" encoding="iso-8859-1"?>
<!-- Created with Inkscape (http://www.inkscape.org/) -->
<svg height="198.42519" id="svg3525" version="1.1" viewBox="-178.9369975 -49.606297500000004 1073.621985 297.63778499999995" width="715.74799" xmlns="http://www.w3.org/2000/svg" xmlns:cc="http://creativecommons.org/ns#" xmlns:dc="http://purl.org/dc/elements/1.1/" xmlns:rdf="http://www.w3.org/1999/02/22-rdf-syntax-ns#" xmlns:svg="http://www.w3.org/2000/svg">
	
	
  
	
	<defs id="defs3527"/>
	
	
  
	
	<metadata id="metadata3530">
		
		
    
		
		<rdf:RDF>
			
			
      
			
			<cc:Work rdf:about="">
				
				
        
				
				<dc:format>image/svg+xml</dc:format>
				
				
        
				
				<dc:type rdf:resource="http://purl.org/dc/dcmitype/StillImage"/>
				
				
        
				
				<dc:title/>
				
				
      
			
			</cc:Work>
			
			
    
		
		</rdf:RDF>
		
		
  
	
	</metadata>
	
	
  
	
	<g id="layer1" transform="translate(-0.86381957,-458.21987)">
		
		
    
		
		<g id="g3814" transform="matrix(2.4689456,0,0,2.4689456,-1971.7261,-981.49071)">
			
			
      
			
			<path animation_id="0" d="m 884.87311,656.77315 c 0,-0.2675 -0.19625,-0.4625 -0.48375,-0.4625 -0.38,0 -0.73,0.36 -0.73,0.70875 0,0.2675 0.19625,0.4625 0.48375,0.4625 0.38,0 0.73,-0.35875 0.73,-0.70875" id="path3041" style="fill:#0068ac;fill-opacity:1;fill-rule:nonzero;stroke:none"/>
			
			
      
			
			<path animation_id="1" d="m 1081.8044,647.72315 -0.25,0.71625 -0.2963,0.71875 -0.3425,0.71625 -0.385,0.7125 -0.4287,0.70625 -0.4675,0.69625 -0.5088,0.685 -0.5462,0.67125 -0.585,0.65375 -0.6188,0.635 -0.655,0.6125 -0.6875,0.5875 -0.7212,0.56125 -0.75,0.53 -0.78,0.49875 -0.8088,0.4625 -0.8362,0.42375 -0.8613,0.38375 -0.8862,0.34 -0.9088,0.2925 -0.9325,0.24375 -0.9512,0.19125 -0.97,0.1375 -0.9888,0.0788 -1.005,0.0187 -1.0187,-0.0437 -1.0325,-0.11125 -1.0438,-0.17875 -1.055,-0.25 -1.8525,-0.56625 c 0.4913,-0.315 0.9825,-0.6275 1.4613,-0.95625 0.3875,-0.27625 0.7625,-0.56125 1.1325,-0.8575 0.3112,-0.2575 0.6125,-0.52 0.91,-0.78875 0.3187,-0.30125 0.6287,-0.60625 0.9312,-0.91875 l 0.6188,-0.6875 0.6075,-0.7475 0.59,-0.81 0.5612,-0.8725 0.2688,-0.46 0.2587,-0.4775 0.2475,-0.4925 0.2363,-0.51 0.2225,-0.52625 0.21,-0.54375 0.195,-0.56125 0.1787,-0.5775 0.1625,-0.59625 0.145,-0.61375 7.1763,-33.7775 0.37,-0.1975 12.3112,8.66875 -5.2687,24.77125 -0.15,0.695 -0.2025,0.71375" id="path3043" style="fill:#0068ac;fill-opacity:1;fill-rule:evenodd;stroke:none"/>
			
			
      
			
			<path animation_id="2" d="m 1073.3044,621.71315 1.7825,-8.3825 11.905,8.3825 -5.215,24.51875 c -1.3075,7.22875 -11.1,16.265 -22.23,12.48875 2.5462,-1.60875 7.2637,-5.4575 8.53,-12.43375 l 5.2275,-24.57375" id="path3045" style="fill:#0068ac;fill-opacity:1;fill-rule:evenodd;stroke:none"/>
			
			
      
			
			<path animation_id="3" d="m 1053.7144,645.89815 -0.031,0 -0.165,1.00625 -0.077,0.67125 -0.046,0.65375 -0.015,0.635 0.015,0.61875 0.042,0.6 0.069,0.5825 0.094,0.56375 0.1175,0.54625 0.1387,0.52625 0.1588,0.50875 0.18,0.49 0.195,0.47125 0.2125,0.45125 0.2262,0.4325 0.2388,0.41375 0.2487,0.395 0.26,0.37625 0.2663,0.35625 0.275,0.3375 0.2787,0.31875 0.5688,0.57875 0.5712,0.50125 0.5625,0.42375 0.5425,0.3475 0.515,0.27125 0.4263,0.18625 0.9625,-0.645 c 0.3861,-0.2775 0.7636,-0.56125 1.1386,-0.85625 l 0.7263,-0.61125 0.6987,-0.645 0.6675,-0.67875 0.6363,-0.715 0.6012,-0.74875 0.565,-0.78625 0.5263,-0.82375 0.4875,-0.86 0.4437,-0.9 0.4,-0.9375 0.3525,-0.9775 0.3063,-1.01625 c 0.1087,-0.4275 0.215,-0.85375 0.3012,-1.285 l 0.011,0 3.755,-17.6525 -0.016,0 3.3738,-15.8625 -0.405,-0.28625 -16.2325,8.655 -1.76,8.27 0.016,0 -3.4238,16.09875" id="path3047" style="fill:#0068ac;fill-opacity:1;fill-rule:evenodd;stroke:none"/>
			
			
      
			
			<path animation_id="4" d="m 1054.0281,646.2869 c 0,0 -0.01,0 -0.015,0 -1.3462,7.2525 3.1988,11.4875 5.5313,12.435 4.2,-2.70875 7.465,-6.6825 8.5325,-12.435 l 0.015,0 3.59,-16.87625 -0.015,0 3.42,-16.08 -15.8625,8.45625 -1.6213,7.62375 0.015,0 -3.59,16.87625" id="path3049" style="fill:#0068ac;fill-opacity:1;fill-rule:evenodd;stroke:none"/>
			
			
      
			
			<path animation_id="5" d="m 1017.0081,622.8944 -1.82,8.56 -0.37,0.1975 -12.3112,-8.66875 5.2687,-24.77 0.1488,-0.695 0.2037,-0.71375 0.2488,-0.71625 0.2975,-0.71875 0.3412,-0.71625 0.3863,-0.7125 0.4262,-0.705 0.47,-0.6975 0.5075,-0.685 0.5475,-0.67125 0.5838,-0.65375 0.62,-0.635 0.655,-0.6125 0.6875,-0.5875 0.72,-0.56125 0.7512,-0.53125 0.78,-0.4975 0.8088,-0.4625 0.835,-0.42375 0.8625,-0.38375 0.8862,-0.33875 0.9088,-0.29375 0.9312,-0.24375 0.9525,-0.1925 0.97,-0.13625 0.9875,-0.08 1.005,-0.0175 1.02,0.0437 1.0325,0.11125 1.0438,0.17875 1.0537,0.25 1.8538,0.565 c -0.4913,0.315 -0.9838,0.6275 -1.4625,0.9575 -0.3863,0.27625 -0.7625,0.56125 -1.1313,0.8575 -0.3112,0.2575 -0.6137,0.52125 -0.9112,0.79 -0.3188,0.3 -0.6275,0.605 -0.93,0.91875 l -0.62,0.68625 -0.6075,0.74875 -0.5888,0.80875 -0.5625,0.8725 -0.2687,0.46125 -0.2575,0.475 -0.2475,0.49375 -0.2375,0.51 -0.2225,0.52625 -0.21,0.54375 -0.195,0.56125 -0.1788,0.5775 -0.1625,0.59625 -0.1437,0.61375 -0.1288,0.64 -5.2275,24.57625" id="path3051" style="fill:#0068ac;fill-opacity:1;fill-rule:evenodd;stroke:none"/>
			
			
      
			
			<path animation_id="6" d="m 1016.6294,622.81315 -1.7838,8.38375 -11.905,-8.38375 5.215,-24.51875 c 1.3075,-7.22875 11.1,-16.265 22.23,-12.48875 -2.5462,1.61 -7.2637,5.4575 -8.53,12.435 l -5.2262,24.5725" id="path3053" style="fill:#0068ac;fill-opacity:1;fill-rule:evenodd;stroke:none"/>
			
			
      
			
			<path animation_id="7" d="m 1014.8181,631.6519 0.2275,-0.12125 16.005,-8.53375 5.2513,-24.685 0.1112,-0.68875 0.079,-0.67125 0.045,-0.65375 0.016,-0.635 -0.015,-0.61875 -0.043,-0.6 -0.069,-0.5825 -0.095,-0.56375 -0.1175,-0.545 -0.1387,-0.5275 -0.16,-0.50875 -0.1775,-0.49 -0.1963,-0.47 -0.2125,-0.4525 -0.225,-0.4325 -0.2387,-0.41375 -0.25,-0.395 -0.2587,-0.37625 -0.2688,-0.35625 -0.2725,-0.3375 -0.5625,-0.61625 -0.5712,-0.54125 -0.5688,-0.4625 -0.5537,-0.38625 -0.5288,-0.30875 -0.2537,-0.12625 -0.4263,-0.1875 -0.9637,0.64625 -0.7663,0.56375 c -0.375,0.295 -0.7412,0.595 -1.1012,0.90625 l -0.6988,0.64625 -0.6687,0.67875 -0.6363,0.71625 -0.6025,0.75 -0.565,0.78625 -0.5262,0.825 -0.4863,0.86125 -0.445,0.90125 -0.3987,0.93875 -0.3538,0.98 -0.305,1.01875 -0.255,1.05875 -7.165,33.725 0.405,0.285" id="path3055" style="fill:#0068ac;fill-opacity:1;fill-rule:evenodd;stroke:none"/>
			
			
      
			
			<path animation_id="8" d="m 1014.8456,631.1969 15.8625,-8.4575 5.2113,-24.49875 c 1.3462,-7.2525 -3.1975,-11.48875 -5.5325,-12.43625 -4.2038,2.7125 -7.4713,6.69125 -8.5338,12.4525 l -7.0075,32.94" id="path3057" style="fill:#0068ac;fill-opacity:1;fill-rule:evenodd;stroke:none"/>
			
			
      
			
			<path animation_id="9" d="m 1025.0494,649.49315 0.052,0.75625 0.096,0.7275 0.1375,0.69875 0.1762,0.6675 0.2125,0.63875 0.2488,0.61 0.28,0.58 0.3112,0.55125 0.3375,0.52125 0.3663,0.4925 0.3875,0.46375 0.41,0.435 0.4287,0.4075 0.4463,0.38 0.46,0.35125 0.4737,0.325 0.4825,0.2975 0.4925,0.27125 0.4988,0.245 0.5025,0.21875 0.5037,0.19375 0.505,0.16875 0.5025,0.14375 0.5,0.12 0.4925,0.095 0.4863,0.0712 0.4762,0.0488 0.465,0.0237 14.21,0 -2.3025,-0.895 -0.7625,-0.335 -0.7887,-0.39875 -0.8,-0.465 -0.7975,-0.53 -0.3938,-0.29 -0.3887,-0.3075 -0.3812,-0.3225 -0.3713,-0.34125 -0.3612,-0.35625 -0.3488,-0.375 -0.335,-0.39125 -0.3187,-0.40625 -0.3025,-0.42625 -0.2838,-0.44125 -0.2625,-0.46 -0.2425,-0.4775 -0.2162,-0.49375 -0.1938,-0.5125 -0.165,-0.53125 -0.1387,-0.54875 -0.1088,-0.5675 -0.078,-0.5875 -0.044,-0.60625 -0.01,-0.625 0.027,-0.64625 0.065,-0.66625 0.1013,-0.65625 10.215,-48.02625 0.1275,-0.80625 0.084,-0.78125 0.04,-0.75625 10e-4,-0.73125 -0.038,-0.705 -0.075,-0.6825 -0.1112,-0.6575 -0.1425,-0.6325 -0.1763,-0.6075 -0.2062,-0.5825 -0.235,-0.55875 -0.26,-0.53375 -0.285,-0.50875 -0.3075,-0.48375 -0.3288,-0.46 -0.3475,-0.435 -0.3637,-0.41125 -0.3788,-0.3875 -0.3937,-0.36375 -0.4025,-0.34 -0.4138,-0.31625 -0.4212,-0.2925 -0.4263,-0.27 -0.4312,-0.24875 -0.435,-0.225 -0.4338,-0.2025 -0.435,-0.18 -0.43,-0.16 -0.4275,-0.13625 -0.42,-0.11625 -0.4137,-0.095 -0.43,-0.0788 -16.9988,0 -0.785,0.0638 -0.97,0.13625 -0.5087,0.10375 5.2012,0.5625 0.7838,0.13 0.7387,0.16875 0.6925,0.205 0.6475,0.2375 0.6075,0.27 0.5638,0.29875 0.5262,0.32625 0.4875,0.35125 0.4513,0.37625 0.4162,0.3975 0.3838,0.4175 0.3487,0.435 0.3175,0.4525 0.2875,0.46625 0.2588,0.48 0.23,0.49 0.2025,0.49875 0.1762,0.505 0.1513,0.51125 0.1262,0.5125 0.1038,0.515 0.081,0.51125 0.059,0.5075 0.041,0.5025 0.02,0.495 0,0.48375 -0.014,0.4725 -0.03,0.4575 -0.044,0.44 -0.1175,0.765 -10.3263,48.515 0.031,0 -0.066,0.4175 -0.088,0.84625 -0.039,0.8175 0.01,0.78625" id="path3059" style="fill:#0068ac;fill-opacity:1;fill-rule:evenodd;stroke:none"/>
			
			
      
			
			<path animation_id="10" d="m 1025.6881,646.2369 c -1.7175,9.30125 5.4263,13.24125 10.1038,13.37125 3.835,0 8.2937,0 12.1287,0 -3.9662,-1.4825 -9.8925,-5.71875 -8.5062,-13.37125 l 0,0 10.2102,-47.99625 c 1.5588,-8.53 -4.5062,-12.6475 -8.57,-13.2875 -3.8362,0 -10.9925,0 -14.8275,0 9.3588,0.755 10.5075,8.9875 9.6713,13.2875 l 0,0 -10.2075,47.98875 -10e-4,0.007" id="path3061" style="fill:#0068ac;fill-opacity:1;fill-rule:evenodd;stroke:none"/>
			
			
      
			
			<path animation_id="11" d="m 1064.8631,594.9969 -0.059,-0.75375 -0.1013,-0.725 -0.1425,-0.695 -0.1812,-0.66625 -0.2188,-0.63625 -0.2512,-0.60625 -0.2838,-0.57875 -0.315,-0.54875 -0.3437,-0.52 -0.3688,-0.49 -0.39,-0.4625 -0.4137,-0.43375 -0.4325,-0.405 -0.4488,-0.3775 -0.4637,-0.35 -0.475,-0.32375 -0.4875,-0.295 -0.4938,-0.26875 -0.5012,-0.2425 -0.5063,-0.2175 -0.5062,-0.19 -0.5088,-0.16625 -0.505,-0.14125 -0.5025,-0.11625 -0.4962,-0.0912 -0.4888,-0.0675 -0.48,-0.0438 -0.465,-0.02 -16.3975,0 3.7838,0.87625 0.4625,0.12625 0.4575,0.145 0.4537,0.16375 0.4463,0.1825 0.44,0.2025 0.4325,0.22 0.4225,0.23875 0.4112,0.25875 0.4013,0.27625 0.39,0.295 0.375,0.315 0.36,0.3325 0.3462,0.35125 0.3288,0.37125 0.3112,0.3875 0.2938,0.40875 0.2737,0.4275 0.2525,0.445 0.2338,0.465 0.2087,0.485 0.1863,0.50375 0.1625,0.5225 0.1362,0.5425 0.1088,0.5625 0.082,0.5825 0.053,0.6025 0.024,0.6225 -0.01,0.64375 -0.04,0.66375 -0.074,0.68375 -0.1063,0.695 -10.1962,47.93625 c -0.026,0.0538 -0.02,0.035 -0.02,0.105 l -0.12,0.68125 -0.082,0.7075 -0.041,0.6875 0,0.6675 0.039,0.64875 0.076,0.62875 0.11,0.60875 0.1437,0.59 0.1763,0.57 0.2037,0.55 0.2338,0.53125 0.2575,0.51125 0.2825,0.49125 0.3037,0.47125 0.3225,0.45375 0.3413,0.43375 0.3575,0.415 0.3712,0.39625 0.3838,0.37875 0.3937,0.36 0.4025,0.3425 0.4088,0.325 0.4137,0.3075 0.8363,0.56375 0.8337,0.4975 0.8188,0.4325 0.7875,0.36875 0.4487,0.19 c 5.4475,0 10.8963,-0.0175 16.3425,-0.0175 l 0.7588,-10e-4 0,-0.003 0.8062,-0.015 0.9888,-0.0788 0.97,-0.1375 0.9512,-0.19125 0.1975,-0.0512 -5.0712,-0.35625 -0.77,-0.095 -0.7325,-0.13125 -0.6938,-0.165 -0.6575,-0.1975 -0.6212,-0.23 -0.5863,-0.25875 -0.55,-0.28625 -0.5175,-0.3125 -0.485,-0.3375 -0.4525,-0.36125 -0.4212,-0.3825 -0.3913,-0.40375 -0.36,-0.42375 -0.3325,-0.44125 -0.3025,-0.45875 -0.275,-0.4725 -0.2475,-0.4875 -0.22,-0.49875 -0.1937,-0.51125 -0.1675,-0.52 -0.1425,-0.5275 -0.1175,-0.53375 -0.092,-0.53875 -0.069,-0.54125 -0.045,-0.54375 -0.021,-0.54375 0,-0.54125 0.023,-0.53875 0.044,-0.53375 0.064,-0.5275 0.085,-0.52125 10.2062,-47.9875 0.1325,-0.87375 0.081,-0.8425 0.033,-0.8125 -0.014,-0.78375" id="path3063" style="fill:#0068ac;fill-opacity:1;fill-rule:evenodd;stroke:none"/>
			
			
      
			
			<path animation_id="12" d="m 1054.0419,646.2294 0,0 10.2062,-47.98875 c 1.6463,-9.25375 -5.5112,-13.20875 -10.2237,-13.2875 -4.0538,0 -8.935,0 -12.9888,0 5.1238,1.07625 9.9675,5.48 8.59,13.2875 l -10e-4,0 -10.2075,47.98875 c 0,0.002 0,0.005 -10e-4,0.007 -1.5462,7.62625 4.5075,11.78375 8.3938,13.39 4.0537,0 12.6037,-0.0187 16.6575,-0.0187 -9.0525,-0.4125 -11.4613,-7.72875 -10.425,-13.37875" id="path3065" style="fill:#0068ac;fill-opacity:1;fill-rule:evenodd;stroke:none"/>
			
			
      
			
			<path animation_id="13" d="m 806.02811,659.78065 -0.915,-7.0725 -0.8625,0 -3.855,7.0725 0.915,0 1.12125,-2.1175 2.425,0 0.22625,2.1175 0.945,0 z m -1.2025,-2.68375 -2.1175,0 1.40875,-2.6825 c 0.25625,-0.49375 0.37,-0.8525 0.37,-0.8525 l 0.0213,0 c 0,0 0,0.34875 0.05,0.8525" id="path3067" style="fill:#0068ac;fill-opacity:1;fill-rule:nonzero;stroke:none"/>
			
			
      
			
			<path animation_id="14" d="m 812.01061,654.2394 -0.97625,0 -2.4975,2.57 -0.0213,0 1.04875,-5.0975 -0.88375,0 -1.675,8.06875 0.88375,0 0.59625,-2.8575 0.02,0 1.5725,2.8575 1.0175,0 -1.7675,-2.92" id="path3069" style="fill:#0068ac;fill-opacity:1;fill-rule:nonzero;stroke:none"/>
			
			
      
			
			<path animation_id="15" d="m 815.16561,654.2394 -0.95625,0 0.33,-1.55125 -0.9775,0.2775 -0.2575,1.27375 -0.63625,0 -0.11375,0.555 0.6275,0 -0.74,3.61875 c -0.02,0.12375 -0.0412,0.25625 -0.0412,0.38 0,0.565 0.29875,1.04875 1.11,1.04875 0.21625,0 0.40125,-0.0412 0.51375,-0.0825 l 0.11375,-0.58625 c -0.0725,0.0213 -0.19625,0.0525 -0.28875,0.0525 -0.4,0 -0.53375,-0.22625 -0.53375,-0.535 0,-0.0825 0.01,-0.185 0.0312,-0.2775 l 0.74,-3.61875 0.955,0" id="path3071" style="fill:#0068ac;fill-opacity:1;fill-rule:nonzero;stroke:none"/>
			
			
      
			
			<path animation_id="16" d="m 817.24186,654.2394 -0.89375,0 -1.15125,5.54125 0.905,0 1.14,-5.54125 z m 0.4125,-1.65375 c 0,-0.21625 -0.185,-0.40125 -0.4425,-0.40125 -0.34,0 -0.6375,0.2975 -0.6375,0.59625 0,0.22625 0.175,0.40125 0.4325,0.40125 0.33875,0 0.6475,-0.28875 0.6475,-0.59625" id="path3073" style="fill:#0068ac;fill-opacity:1;fill-rule:nonzero;stroke:none"/>
			
			
      
			
			<path animation_id="17" d="m 822.47436,655.91565 c 0,-1.1825 -0.6375,-1.77875 -1.68625,-1.77875 -0.8425,0 -1.6125,0.42125 -2.1475,1.22375 -0.4525,0.68875 -0.75,1.70625 -0.75,2.53875 0,1.35625 0.80125,1.98375 2.00375,1.98375 0.70875,0 1.33625,-0.185 1.71625,-0.39125 l -0.1125,-0.59625 c -0.30875,0.155 -0.8325,0.34 -1.44,0.34 -1.20125,0 -1.4075,-0.905 -1.28375,-1.87125 l 3.5875,-0.50375 c 0.0825,-0.34875 0.1125,-0.6575 0.1125,-0.945 z m -0.8125,-0.12375 c 0,0.195 -0.03,0.41125 -0.0813,0.66875 l -2.745,0.41 c 0.0925,-0.4725 0.2375,-0.8625 0.41125,-1.18125 0.38125,-0.6575 0.90375,-0.97625 1.44875,-0.97625 0.6075,0 0.96625,0.32875 0.96625,1.07875" id="path3075" style="fill:#0068ac;fill-opacity:1;fill-rule:nonzero;stroke:none"/>
			
			
      
			
			<path animation_id="18" d="m 827.85061,655.4319 c 0,-0.71875 -0.4725,-1.295 -1.7375,-1.295 -0.8125,0 -1.52125,0.155 -2.04625,0.39125 l -1.08875,5.2525 0.90375,0 1.0175,-4.8725 c 0.30875,-0.11375 0.66875,-0.185 1.07,-0.185 0.71875,0 0.97625,0.33875 0.97625,0.75 0,0.1025 -0.01,0.20625 -0.0312,0.31875 l -0.8325,3.98875 0.905,0 0.82125,-3.9375 c 0.0325,-0.13375 0.0425,-0.2775 0.0425,-0.41125" id="path3077" style="fill:#0068ac;fill-opacity:1;fill-rule:nonzero;stroke:none"/>
			
			
      
			
			<path animation_id="19" d="m 833.52436,654.5169 c -0.2775,-0.185 -0.885,-0.38 -1.59375,-0.38 -1.0275,0 -1.83,0.4625 -2.375,1.22375 -0.4925,0.68875 -0.8225,1.73625 -0.8225,2.59 0,1.1825 0.65875,1.90125 1.7475,1.90125 0.47375,0 0.86375,-0.1025 1.12125,-0.23625 l -0.0925,0.38 c -0.195,0.79125 -0.69875,1.43875 -1.68625,1.43875 -0.51375,0 -1.0075,-0.1325 -1.26375,-0.2875 l -0.37,0.555 c 0.37,0.22625 1.00625,0.39125 1.665,0.39125 1.34625,0 2.27125,-0.8025 2.56,-2.2 l 1.11,-5.37625 z m -0.93625,0.30875 -0.88375,4.255 c -0.23625,0.13375 -0.58625,0.22625 -0.935,0.22625 -0.8125,0 -1.15125,-0.45125 -1.15125,-1.26375 0,-0.72 0.24625,-1.68625 0.60625,-2.3025 0.39,-0.66875 0.935,-1.05875 1.62375,-1.05875 0.39125,0 0.61625,0.0725 0.74,0.14375" id="path3079" style="fill:#0068ac;fill-opacity:1;fill-rule:nonzero;stroke:none"/>
			
			
      
			
			<path animation_id="20" d="m 838.79686,655.91565 c 0,-1.1825 -0.6375,-1.77875 -1.68625,-1.77875 -0.8425,0 -1.6125,0.42125 -2.1475,1.22375 -0.4525,0.68875 -0.75,1.70625 -0.75,2.53875 0,1.35625 0.80125,1.98375 2.00375,1.98375 0.70875,0 1.33625,-0.185 1.71625,-0.39125 l -0.1125,-0.59625 c -0.30875,0.155 -0.8325,0.34 -1.44,0.34 -1.2025,0 -1.4075,-0.905 -1.28375,-1.87125 l 3.5875,-0.50375 c 0.0813,-0.34875 0.1125,-0.6575 0.1125,-0.945 z m -0.8125,-0.12375 c 0,0.195 -0.03,0.41125 -0.0825,0.66875 l -2.74375,0.41 c 0.0925,-0.4725 0.23625,-0.8625 0.41125,-1.18125 0.38,-0.6575 0.90375,-0.97625 1.44875,-0.97625 0.60625,0 0.96625,0.32875 0.96625,1.07875" id="path3081" style="fill:#0068ac;fill-opacity:1;fill-rule:nonzero;stroke:none"/>
			
			
      
			
			<path animation_id="21" d="m 843.14436,654.52815 c -0.2875,-0.23625 -0.68875,-0.39125 -1.23375,-0.39125 -1.2025,0 -1.97375,0.88375 -1.97375,1.78875 0,1.3775 1.7175,1.04875 1.7175,2.09625 0,0.6175 -0.525,1.20375 -1.275,1.20375 -0.4925,0 -0.8525,-0.155 -1.0275,-0.29875 l -0.35,0.565 c 0.2875,0.22625 0.8125,0.39125 1.3575,0.39125 1.3875,0 2.23,-0.95625 2.23,-1.97375 0,-1.3875 -1.7775,-1.06875 -1.7775,-2.09625 0,-0.56625 0.4825,-1.07 1.14,-1.07 0.37,0 0.69875,0.12375 0.87375,0.2775" id="path3083" style="fill:#0068ac;fill-opacity:1;fill-rule:nonzero;stroke:none"/>
			
			
      
			
			<path animation_id="22" d="m 848.34561,655.91565 c 0,-1.1825 -0.6375,-1.77875 -1.68625,-1.77875 -0.8425,0 -1.6125,0.42125 -2.1475,1.22375 -0.4525,0.68875 -0.75,1.70625 -0.75,2.53875 0,1.35625 0.80125,1.98375 2.00375,1.98375 0.70875,0 1.33625,-0.185 1.71625,-0.39125 l -0.1125,-0.59625 c -0.30875,0.155 -0.8325,0.34 -1.44,0.34 -1.20125,0 -1.4075,-0.905 -1.28375,-1.87125 l 3.5875,-0.50375 c 0.0825,-0.34875 0.1125,-0.6575 0.1125,-0.945 z m -0.8125,-0.12375 c 0,0.195 -0.03,0.41125 -0.0812,0.66875 l -2.745,0.41 c 0.0925,-0.4725 0.2375,-0.8625 0.41125,-1.18125 0.38125,-0.6575 0.905,-0.97625 1.44875,-0.97625 0.6075,0 0.96625,0.32875 0.96625,1.07875" id="path3085" style="fill:#0068ac;fill-opacity:1;fill-rule:nonzero;stroke:none"/>
			
			
      
			
			<path animation_id="23" d="m 851.47061,651.7119 -0.895,0 -1.675,8.06875 0.895,0" id="path3087" style="fill:#0068ac;fill-opacity:1;fill-rule:nonzero;stroke:none"/>
			
			
      
			
			<path animation_id="24" d="m 854.01936,651.7119 -0.89375,0 -1.67625,8.06875 0.895,0" id="path3089" style="fill:#0068ac;fill-opacity:1;fill-rule:nonzero;stroke:none"/>
			
			
      
			
			<path animation_id="25" d="m 857.70936,654.52815 c -0.2875,-0.23625 -0.68875,-0.39125 -1.23375,-0.39125 -1.2025,0 -1.97375,0.88375 -1.97375,1.78875 0,1.3775 1.7175,1.04875 1.7175,2.09625 0,0.6175 -0.525,1.20375 -1.275,1.20375 -0.4925,0 -0.8525,-0.155 -1.0275,-0.29875 l -0.35,0.565 c 0.2875,0.22625 0.8125,0.39125 1.3575,0.39125 1.3875,0 2.23,-0.95625 2.23,-1.97375 0,-1.3875 -1.7775,-1.06875 -1.7775,-2.09625 0,-0.56625 0.4825,-1.07 1.14,-1.07 0.37,0 0.69875,0.12375 0.87375,0.2775" id="path3091" style="fill:#0068ac;fill-opacity:1;fill-rule:nonzero;stroke:none"/>
			
			
      
			
			<path animation_id="26" d="m 862.32436,654.52815 c -0.16375,-0.175 -0.6375,-0.39125 -1.2025,-0.39125 -0.79125,0 -1.51,0.40125 -2.025,1.1725 -0.4625,0.6775 -0.75,1.685 -0.75,2.5175 0,1.23375 0.6275,2.05625 1.645,2.05625 0.545,0 1.0375,-0.185 1.285,-0.39125 l -0.12375,-0.585 c -0.19625,0.14375 -0.555,0.2975 -0.915,0.2975 -0.6575,0 -0.98625,-0.51375 -0.98625,-1.34625 0,-0.69875 0.225,-1.61375 0.575,-2.2 0.34,-0.565 0.8025,-0.89375 1.4075,-0.89375 0.35,0 0.6275,0.15375 0.75125,0.24625" id="path3093" style="fill:#0068ac;fill-opacity:1;fill-rule:nonzero;stroke:none"/>
			
			
      
			
			<path animation_id="27" d="m 867.20686,655.4319 c 0,-0.79125 -0.50375,-1.295 -1.50125,-1.295 -0.4825,0 -1.0275,0.175 -1.35625,0.36 l 0.57625,-2.785 -0.905,0 -1.67625,8.06875 0.905,0 0.9975,-4.76 c 0.38,-0.195 0.74,-0.3075 1.15125,-0.3075 0.6875,0 0.90375,0.37 0.90375,0.80125 0,0.1025 -0.01,0.195 -0.0312,0.29875 l -0.82125,3.9675 0.90375,0 0.8125,-3.91625 c 0.0312,-0.155 0.0412,-0.29875 0.0412,-0.4325" id="path3095" style="fill:#0068ac;fill-opacity:1;fill-rule:nonzero;stroke:none"/>
			
			
      
			
			<path animation_id="28" d="m 872.93186,654.52815 c -0.2875,-0.19625 -0.91375,-0.39125 -1.6025,-0.39125 -0.9975,0 -1.76875,0.42125 -2.31375,1.12125 -0.53375,0.6875 -0.8825,1.7575 -0.8825,2.64125 0,1.1925 0.6675,1.98375 1.9925,1.98375 0.8025,0 1.41875,-0.185 1.77875,-0.39125 l 1.0275,-4.96375 z m -0.955,0.3075 -0.88375,4.27625 c -0.185,0.1025 -0.50375,0.175 -0.86375,0.175 -0.85375,0 -1.1925,-0.535 -1.1925,-1.3675 0,-0.73 0.23625,-1.665 0.62625,-2.28125 0.38125,-0.60625 0.92625,-0.95625 1.57375,-0.95625 0.37,0 0.61625,0.0825 0.74,0.15375" id="path3097" style="fill:#0068ac;fill-opacity:1;fill-rule:nonzero;stroke:none"/>
			
			
      
			
			<path animation_id="29" d="m 877.18811,651.7119 c -0.0725,-0.0113 -0.155,-0.0113 -0.22625,-0.0113 -0.84375,0 -1.7575,0.47375 -2.015,1.75875 l -0.155,0.78 -0.63625,0 -0.11375,0.555 0.6275,0 -1.0275,4.98625 0.905,0 1.0275,-4.98625 0.97625,0 0.1125,-0.555 -0.96625,0 0.175,-0.87375 c 0.165,-0.8325 0.78125,-1.08875 1.1925,-1.07875" id="path3099" style="fill:#0068ac;fill-opacity:1;fill-rule:nonzero;stroke:none"/>
			
			
      
			
			<path animation_id="30" d="m 879.88061,654.2394 -0.95625,0 0.32875,-1.55125 -0.97625,0.2775 -0.2575,1.27375 -0.6375,0 -0.1125,0.555 0.6275,0 -0.74,3.61875 c -0.0213,0.12375 -0.0413,0.25625 -0.0413,0.38 0,0.565 0.2975,1.04875 1.11,1.04875 0.21625,0 0.40125,-0.0412 0.51375,-0.0825 l 0.11375,-0.58625 c -0.0725,0.0213 -0.19625,0.0525 -0.28875,0.0525 -0.4,0 -0.53375,-0.22625 -0.53375,-0.535 0,-0.0825 0.01,-0.185 0.03,-0.2775 l 0.74,-3.61875 0.95625,0" id="path3101" style="fill:#0068ac;fill-opacity:1;fill-rule:nonzero;stroke:none"/>
			
			
      
			
			<path animation_id="31" d="m 894.31186,652.70815 -0.86375,0 -1.03875,5.0475 c -0.17375,0.8625 -0.8825,1.3875 -1.64375,1.3875 -0.59625,0 -0.9975,-0.35 -0.9975,-0.9875 0,-0.1225 0.0213,-0.25625 0.0512,-0.4 l 1.04875,-5.0475 -0.94625,0 -1.0475,5.0475 c -0.0312,0.16375 -0.0512,0.32875 -0.0512,0.4825 0,0.97625 0.6675,1.645 1.82875,1.645 1.3575,0 2.375,-0.895 2.62125,-2.1175" id="path3103" style="fill:#0068ac;fill-opacity:1;fill-rule:nonzero;stroke:none"/>
			
			
      
			
			<path animation_id="32" d="m 899.26686,655.4319 c 0,-0.71875 -0.4725,-1.295 -1.7375,-1.295 -0.81125,0 -1.52125,0.155 -2.045,0.39125 l -1.09,5.2525 0.905,0 1.0175,-4.8725 c 0.30875,-0.11375 0.6675,-0.185 1.06875,-0.185 0.72,0 0.97625,0.33875 0.97625,0.75 0,0.1025 -0.01,0.20625 -0.0312,0.31875 l -0.8325,3.98875 0.905,0 0.8225,-3.9375 c 0.0312,-0.13375 0.0412,-0.2775 0.0412,-0.41125" id="path3105" style="fill:#0068ac;fill-opacity:1;fill-rule:nonzero;stroke:none"/>
			
			
      
			
			<path animation_id="33" d="m 903.14186,654.2394 -0.95625,0 0.32875,-1.55125 -0.97625,0.2775 -0.2575,1.27375 -0.6375,0 -0.1125,0.555 0.6275,0 -0.74,3.61875 c -0.0212,0.12375 -0.0425,0.25625 -0.0425,0.38 0,0.565 0.29875,1.04875 1.11125,1.04875 0.215,0 0.4,-0.0412 0.51375,-0.0825 l 0.11375,-0.58625 c -0.0725,0.0213 -0.19625,0.0525 -0.28875,0.0525 -0.40125,0 -0.53375,-0.22625 -0.53375,-0.535 0,-0.0825 0.01,-0.185 0.03,-0.2775 l 0.74,-3.61875 0.95625,0" id="path3107" style="fill:#0068ac;fill-opacity:1;fill-rule:nonzero;stroke:none"/>
			
			
      
			
			<path animation_id="34" d="m 907.95186,655.91565 c 0,-1.1825 -0.6375,-1.77875 -1.68625,-1.77875 -0.8425,0 -1.6125,0.42125 -2.1475,1.22375 -0.4525,0.68875 -0.75,1.70625 -0.75,2.53875 0,1.35625 0.80125,1.98375 2.00375,1.98375 0.70875,0 1.33625,-0.185 1.71625,-0.39125 l -0.1125,-0.59625 c -0.30875,0.155 -0.8325,0.34 -1.44,0.34 -1.2025,0 -1.4075,-0.905 -1.28375,-1.87125 l 3.5875,-0.50375 c 0.0825,-0.34875 0.1125,-0.6575 0.1125,-0.945 z m -0.8125,-0.12375 c 0,0.195 -0.03,0.41125 -0.0813,0.66875 l -2.745,0.41 c 0.0925,-0.4725 0.23625,-0.8625 0.41125,-1.18125 0.38,-0.6575 0.90375,-0.97625 1.44875,-0.97625 0.6075,0 0.96625,0.32875 0.96625,1.07875" id="path3109" style="fill:#0068ac;fill-opacity:1;fill-rule:nonzero;stroke:none"/>
			
			
      
			
			<path animation_id="35" d="m 912.00186,654.15815 c -0.13375,-0.0113 -0.24625,-0.0213 -0.39125,-0.0213 -0.89375,0 -1.62375,0.175 -2.06625,0.39125 l -1.08875,5.2525 0.90375,0 1.0075,-4.8625 c 0.2775,-0.16375 0.77125,-0.185 1.285,-0.0712" id="path3111" style="fill:#0068ac;fill-opacity:1;fill-rule:nonzero;stroke:none"/>
			
			
      
			
			<path animation_id="36" d="m 916.66811,655.4319 c 0,-0.71875 -0.4725,-1.295 -1.7375,-1.295 -0.8125,0 -1.52125,0.155 -2.04625,0.39125 l -1.08875,5.2525 0.90375,0 1.0175,-4.8725 c 0.30875,-0.11375 0.66875,-0.185 1.07,-0.185 0.71875,0 0.97625,0.33875 0.97625,0.75 0,0.1025 -0.01,0.20625 -0.0312,0.31875 l -0.8325,3.98875 0.905,0 0.8225,-3.9375 c 0.03,-0.13375 0.0412,-0.2775 0.0412,-0.41125" id="path3113" style="fill:#0068ac;fill-opacity:1;fill-rule:nonzero;stroke:none"/>
			
			
      
			
			<path animation_id="37" d="m 922.16686,655.91565 c 0,-1.1825 -0.6375,-1.77875 -1.68625,-1.77875 -0.8425,0 -1.6125,0.42125 -2.1475,1.22375 -0.4525,0.68875 -0.75,1.70625 -0.75,2.53875 0,1.35625 0.80125,1.98375 2.005,1.98375 0.7075,0 1.335,-0.185 1.715,-0.39125 l -0.1125,-0.59625 c -0.3075,0.155 -0.8325,0.34 -1.43875,0.34 -1.2025,0 -1.40875,-0.905 -1.285,-1.87125 l 3.5875,-0.50375 c 0.0825,-0.34875 0.1125,-0.6575 0.1125,-0.945 z m -0.81125,-0.12375 c 0,0.195 -0.0312,0.41125 -0.0825,0.66875 l -2.745,0.41 c 0.0925,-0.4725 0.2375,-0.8625 0.41125,-1.18125 0.38125,-0.6575 0.905,-0.97625 1.44875,-0.97625 0.6075,0 0.9675,0.32875 0.9675,1.07875" id="path3115" style="fill:#0068ac;fill-opacity:1;fill-rule:nonzero;stroke:none"/>
			
			
      
			
			<path animation_id="38" d="m 927.53311,655.4319 c 0,-0.79125 -0.50375,-1.295 -1.50125,-1.295 -0.4825,0 -1.0275,0.175 -1.3575,0.36 l 0.57625,-2.785 -0.90375,0 -1.67625,8.06875 0.905,0 0.99625,-4.76 c 0.38,-0.195 0.74,-0.3075 1.15125,-0.3075 0.68875,0 0.905,0.37 0.905,0.80125 0,0.1025 -0.01,0.195 -0.0312,0.29875 l -0.8225,3.9675 0.905,0 0.8125,-3.91625 c 0.0312,-0.155 0.0413,-0.29875 0.0413,-0.4325" id="path3117" style="fill:#0068ac;fill-opacity:1;fill-rule:nonzero;stroke:none"/>
			
			
      
			
			<path animation_id="39" d="m 936.13561,655.4119 c 0,-0.71 -0.4,-1.275 -1.50125,-1.275 -0.77,0 -1.47,0.31875 -1.86,0.66875 -0.24625,-0.39125 -0.73,-0.66875 -1.52125,-0.66875 -0.8025,0 -1.47,0.155 -2.005,0.39125 l -1.08875,5.2525 0.90375,0 1.0175,-4.8725 c 0.32,-0.12375 0.6375,-0.185 1.02875,-0.185 0.70875,0 1.0175,0.2875 1.0175,0.76 0,0.0825 0,0.175 -0.02,0.2675 l -0.84375,4.03 0.905,0 0.935,-4.5225 c 0.29875,-0.30875 0.78125,-0.535 1.24375,-0.535 0.66875,0 0.88375,0.32875 0.88375,0.74 0,0.1025 -0.01,0.21625 -0.03,0.32875 l -0.83375,3.98875 0.905,0 0.8225,-3.98875 c 0.0213,-0.12375 0.0413,-0.25625 0.0413,-0.38" id="path3119" style="fill:#0068ac;fill-opacity:1;fill-rule:nonzero;stroke:none"/>
			
			
      
			
			<path animation_id="40" d="m 941.63561,655.91565 c 0,-1.1825 -0.6375,-1.77875 -1.68625,-1.77875 -0.8425,0 -1.61375,0.42125 -2.1475,1.22375 -0.4525,0.68875 -0.75125,1.70625 -0.75125,2.53875 0,1.35625 0.80125,1.98375 2.005,1.98375 0.70875,0 1.335,-0.185 1.71625,-0.39125 l -0.11375,-0.59625 c -0.3075,0.155 -0.8325,0.34 -1.43875,0.34 -1.2025,0 -1.4075,-0.905 -1.285,-1.87125 l 3.5875,-0.50375 c 0.0825,-0.34875 0.11375,-0.6575 0.11375,-0.945 z m -0.8125,-0.12375 c 0,0.195 -0.0312,0.41125 -0.0825,0.66875 l -2.74375,0.41 c 0.0925,-0.4725 0.23625,-0.8625 0.41,-1.18125 0.38125,-0.6575 0.905,-0.97625 1.45,-0.97625 0.60625,0 0.96625,0.32875 0.96625,1.07875" id="path3121" style="fill:#0068ac;fill-opacity:1;fill-rule:nonzero;stroke:none"/>
			
			
      
			
			<path animation_id="41" d="m 947.01061,655.4319 c 0,-0.71875 -0.4725,-1.295 -1.73625,-1.295 -0.8125,0 -1.5225,0.155 -2.04625,0.39125 l -1.09,5.2525 0.905,0 1.0175,-4.8725 c 0.30875,-0.11375 0.66875,-0.185 1.06875,-0.185 0.72,0 0.9775,0.33875 0.9775,0.75 0,0.1025 -0.0113,0.20625 -0.0325,0.31875 l -0.8325,3.98875 0.905,0 0.8225,-3.9375 c 0.0312,-0.13375 0.0413,-0.2775 0.0413,-0.41125" id="path3123" style="fill:#0068ac;fill-opacity:1;fill-rule:nonzero;stroke:none"/>
			
			
      
			
			<path animation_id="42" d="m 951.47061,654.52815 c -0.2875,-0.23625 -0.6875,-0.39125 -1.2325,-0.39125 -1.2025,0 -1.97375,0.88375 -1.97375,1.78875 0,1.3775 1.71625,1.04875 1.71625,2.09625 0,0.6175 -0.52375,1.20375 -1.27375,1.20375 -0.49375,0 -0.85375,-0.155 -1.02875,-0.29875 l -0.34875,0.565 c 0.2875,0.22625 0.81125,0.39125 1.35625,0.39125 1.3875,0 2.23,-0.95625 2.23,-1.97375 0,-1.3875 -1.7775,-1.06875 -1.7775,-2.09625 0,-0.56625 0.4825,-1.07 1.14125,-1.07 0.37,0 0.69875,0.12375 0.87375,0.2775" id="path3125" style="fill:#0068ac;fill-opacity:1;fill-rule:nonzero;stroke:none"/>
			
			
      
			
			<path animation_id="43" d="m 956.84686,654.5169 c -0.27625,-0.185 -0.88375,-0.38 -1.5925,-0.38 -1.0275,0 -1.83,0.4625 -2.375,1.22375 -0.4925,0.68875 -0.8225,1.73625 -0.8225,2.59 0,1.1825 0.65875,1.90125 1.7475,1.90125 0.47375,0 0.86375,-0.1025 1.12125,-0.23625 l -0.0925,0.38 c -0.195,0.79125 -0.69875,1.43875 -1.68625,1.43875 -0.51375,0 -1.0075,-0.1325 -1.26375,-0.2875 l -0.37,0.555 c 0.37,0.22625 1.00625,0.39125 1.665,0.39125 1.34625,0 2.27125,-0.8025 2.56,-2.2 l 1.10875,-5.37625 z m -0.935,0.30875 -0.88375,4.255 c -0.23625,0.13375 -0.58625,0.22625 -0.935,0.22625 -0.8125,0 -1.15125,-0.45125 -1.15125,-1.26375 0,-0.72 0.24625,-1.68625 0.60625,-2.3025 0.39,-0.66875 0.935,-1.05875 1.62375,-1.05875 0.39125,0 0.61625,0.0725 0.74,0.14375" id="path3127" style="fill:#0068ac;fill-opacity:1;fill-rule:nonzero;stroke:none"/>
			
			
      
			
			<path animation_id="44" d="m 960.78436,654.15815 c -0.13375,-0.0113 -0.24625,-0.0213 -0.39125,-0.0213 -0.89375,0 -1.62375,0.175 -2.06625,0.39125 l -1.08875,5.2525 0.90375,0 1.0075,-4.8625 c 0.2775,-0.16375 0.77125,-0.185 1.285,-0.0712" id="path3129" style="fill:#0068ac;fill-opacity:1;fill-rule:nonzero;stroke:none"/>
			
			
      
			
			<path animation_id="45" d="m 965.64561,654.2394 -0.905,0 -0.99625,4.83125 c -0.2575,0.11375 -0.6075,0.175 -1.0175,0.175 -0.72,0 -0.935,-0.33875 -0.935,-0.77125 0,-0.1125 0.01,-0.25625 0.04,-0.38 l 0.8025,-3.855 -0.905,0 -0.79125,3.82375 c -0.0412,0.175 -0.0512,0.35 -0.0512,0.49375 0,0.8325 0.51375,1.32625 1.71625,1.32625 0.82125,0 1.54125,-0.165 1.9525,-0.39125" id="path3131" style="fill:#0068ac;fill-opacity:1;fill-rule:nonzero;stroke:none"/>
			
			
      
			
			<path animation_id="46" d="m 970.81686,656.10065 c 0,-1.21375 -0.68875,-1.96375 -1.97375,-1.96375 -0.74,0 -1.3575,0.175 -1.77875,0.39125 l -1.5525,7.4625 0.895,0 0.4725,-2.2625 c 0.185,0.0725 0.535,0.13375 0.85375,0.13375 0.945,0 1.72625,-0.43125 2.28125,-1.2125 0.48375,-0.67875 0.8025,-1.70625 0.8025,-2.54875 z m -0.885,-0.11375 c 0,0.72 -0.22625,1.665 -0.59625,2.2725 -0.4,0.6675 -0.98625,1.0375 -1.71625,1.0375 -0.2775,0 -0.49375,-0.0413 -0.62625,-0.1025 l 0.90375,-4.3375 c 0.23625,-0.1025 0.49375,-0.165 0.8325,-0.165 0.86375,0 1.2025,0.48375 1.2025,1.295" id="path3133" style="fill:#0068ac;fill-opacity:1;fill-rule:nonzero;stroke:none"/>
			
			
      
			
			<path animation_id="47" d="m 976.26436,656.10065 c 0,-1.21375 -0.68875,-1.96375 -1.97375,-1.96375 -0.74,0 -1.35625,0.175 -1.77875,0.39125 l -1.55125,7.4625 0.89375,0 0.4725,-2.2625 c 0.185,0.0725 0.535,0.13375 0.85375,0.13375 0.945,0 1.72625,-0.43125 2.2825,-1.2125 0.4825,-0.67875 0.80125,-1.70625 0.80125,-2.54875 z m -0.88375,-0.11375 c 0,0.72 -0.2275,1.665 -0.5975,2.2725 -0.4,0.6675 -0.98625,1.0375 -1.71625,1.0375 -0.2775,0 -0.4925,-0.0413 -0.62625,-0.1025 l 0.905,-4.3375 c 0.23625,-0.1025 0.4925,-0.165 0.8325,-0.165 0.8625,0 1.2025,0.48375 1.2025,1.295" id="path3135" style="fill:#0068ac;fill-opacity:1;fill-rule:nonzero;stroke:none"/>
			
			
      
			
			<path animation_id="48" d="m 981.74186,655.91565 c 0,-1.1825 -0.6375,-1.77875 -1.68625,-1.77875 -0.8425,0 -1.6125,0.42125 -2.1475,1.22375 -0.4525,0.68875 -0.75,1.70625 -0.75,2.53875 0,1.35625 0.80125,1.98375 2.00375,1.98375 0.70875,0 1.33625,-0.185 1.71625,-0.39125 l -0.1125,-0.59625 c -0.30875,0.155 -0.8325,0.34 -1.43875,0.34 -1.2025,0 -1.40875,-0.905 -1.285,-1.87125 l 3.5875,-0.50375 c 0.0825,-0.34875 0.1125,-0.6575 0.1125,-0.945 z m -0.81125,-0.12375 c 0,0.195 -0.0312,0.41125 -0.0825,0.66875 l -2.745,0.41 c 0.0925,-0.4725 0.2375,-0.8625 0.41125,-1.18125 0.38125,-0.6575 0.90375,-0.97625 1.44875,-0.97625 0.6075,0 0.9675,0.32875 0.9675,1.07875" id="path3137" style="fill:#0068ac;fill-opacity:1;fill-rule:nonzero;stroke:none"/>
			
			
      
			
			<path animation_id="49" d="m 827.47686,592.95815 c -1.20875,-0.8175 -3.02375,-1.4225 -5.5475,-1.4225 -6.43625,0 -9.175,4.94375 -9.175,8.49875 0,5.335 6.08125,5.335 6.08125,8.64125 0,2.205 -1.7425,3.77 -4.125,3.77 -1.565,0 -2.88125,-0.4975 -3.52125,-0.96 l -2.0975,3.805 c 1.245,0.88875 3.3775,1.4225 6.25875,1.4225 7.21875,0 9.74375,-5.29875 9.74375,-8.855 0,-5.405 -6.57875,-5.36875 -6.57875,-8.7475 0,-1.81375 1.28,-3.6275 3.6625,-3.6275 1.49375,0 2.6675,0.4625 3.3775,0.925" id="path3139" style="fill:#0068ac;fill-opacity:1;fill-rule:nonzero;stroke:none"/>
			
			
      
			
			<path animation_id="50" d="m 840.20686,597.19065 -2.95125,0 1.17375,-5.5125 -5.8675,1.4225 -0.8175,4.09 -2.13375,0 -0.71125,3.59125 2.0625,0 -2.0625,10.17 c -0.1075,0.49875 -0.1775,0.99625 -0.1775,1.4575 0,2.3825 1.38625,4.2325 4.72875,4.2325 1.20875,0 2.3475,-0.285 2.845,-0.53375 l 0.67625,-3.44875 c -0.32125,0.1425 -0.7125,0.24875 -1.21,0.24875 -0.96,0 -1.4225,-0.53375 -1.4225,-1.35125 0,-0.24875 0.0362,-0.53375 0.1075,-0.8175 l 2.0625,-9.9575 2.95125,0" id="path3141" style="fill:#0068ac;fill-opacity:1;fill-rule:nonzero;stroke:none"/>
			
			
      
			
			<path animation_id="51" d="m 859.33811,598.2569 c -1.38625,-0.8175 -3.94625,-1.42125 -6.72,-1.42125 -4.08875,0 -7.07625,1.42125 -9.10375,3.875 -1.88375,2.31125 -3.0225,5.83125 -3.0225,8.855 0,4.445 2.845,7.1475 7.895,7.1475 3.30625,0 5.68875,-0.605 7.43125,-1.4225 l 3.52,-17.03375 z m -5.9725,2.09875 -2.56125,12.51625 c -0.42625,0.17875 -1.0675,0.32125 -1.84875,0.32125 -2.0625,0 -2.9875,-1.31625 -2.9875,-3.66375 0,-2.0975 0.67625,-4.835 1.67125,-6.64875 1.03125,-1.85 2.41875,-2.84625 4.08875,-2.84625 0.81875,0 1.3525,0.17875 1.6375,0.32125" id="path3143" style="fill:#0068ac;fill-opacity:1;fill-rule:nonzero;stroke:none"/>
			
			
      
			
			<path animation_id="52" d="m 881.88436,588.4419 -5.5475,0 -1.81375,8.82 c -0.605,-0.1775 -1.63625,-0.32125 -2.77375,-0.32125 -3.23625,0 -6.01,1.3875 -7.93,3.9475 -1.7425,2.27625 -2.845,5.76125 -2.845,8.64125 0,4.73 3.23625,7.18375 7.89375,7.18375 3.3075,0 5.69,-0.605 7.4325,-1.4225 l 5.58375,-26.84875 z m -7.96625,11.80625 -2.63125,12.62375 c -0.4275,0.21375 -1.0675,0.32125 -1.84875,0.32125 -2.09875,0 -2.9875,-1.31625 -2.9875,-3.66375 0,-2.0625 0.71125,-4.9075 1.7075,-6.685 0.995,-1.77875 2.3825,-2.81 4.3025,-2.81 0.56875,0 0.995,0.0725 1.4575,0.21375" id="path3145" style="fill:#0068ac;fill-opacity:1;fill-rule:nonzero;stroke:none"/>
			
			
      
			
			<path animation_id="53" d="m 894.01061,597.19065 -2.9525,0 1.17375,-5.5125 -5.8675,1.4225 -0.8175,4.09 -2.13375,0 -0.71125,3.59125 2.0625,0 -2.0625,10.17 c -0.1075,0.49875 -0.1775,0.99625 -0.1775,1.4575 0,2.3825 1.38625,4.2325 4.72875,4.2325 1.20875,0 2.3475,-0.285 2.845,-0.53375 l 0.67625,-3.44875 c -0.32125,0.1425 -0.71125,0.24875 -1.21,0.24875 -0.96,0 -1.42125,-0.53375 -1.42125,-1.35125 0,-0.24875 0.035,-0.53375 0.10625,-0.8175 l 2.0625,-9.9575 2.95125,0" id="path3147" style="fill:#0068ac;fill-opacity:1;fill-rule:nonzero;stroke:none"/>
			
			
      
			
			<path animation_id="54" d="m 923.27561,597.19065 -5.01375,0 -4.73,11.05875 c -0.5675,1.35125 -0.92375,2.81 -0.92375,2.81 l -0.0713,0 c 0,0 0.1775,-1.45875 0.10625,-2.845 l -0.46245,-11.02375 -4.55125,0 -5.1925,11.02375 c -0.74625,1.6 -1.03,2.845 -1.03,2.845 l -0.0713,0 c 0,0 0.2125,-1.245 0.2125,-2.845 l 0,-11.02375 -5.405,0 1.28,19.16625 5.08625,0 4.9775,-10.3825 c 0.605,-1.28 0.925,-2.6675 0.925,-2.6675 l 0.0713,0 c 0,0 -0.21375,1.3875 -0.1425,2.6675 l 0.56875,10.3825 5.1575,0" id="path3149" style="fill:#0068ac;fill-opacity:1;fill-rule:nonzero;stroke:none"/>
			
			
      
			
			<path animation_id="55" d="m 940.38061,603.5919 c 0,-4.26875 -2.3825,-6.75625 -6.61375,-6.75625 -3.485,0 -6.29375,1.635 -8.14375,4.23 -1.635,2.27625 -2.595,5.47625 -2.595,8.28625 0,4.6225 2.845,7.36125 7.68125,7.36125 2.845,0 5.33375,-0.64 6.8975,-1.4225 l -0.5325,-3.44875 c -1.0675,0.4975 -3.09375,1.1025 -5.12125,1.1025 -2.845,0 -3.84,-1.77875 -3.73375,-4.26875 l 11.7,-1.59875 c 0.32,-1.28125 0.46125,-2.41875 0.46125,-3.485 z m -4.90625,-0.57 c 0,0.605 -0.0713,1.245 -0.25,1.95625 l -6.93375,1.03125 c 0.21375,-1.1375 0.53375,-2.13375 0.925,-2.9525 0.92375,-1.88375 2.275,-2.98625 3.87625,-2.98625 1.52875,0 2.3825,1.03125 2.3825,2.95125" id="path3151" style="fill:#0068ac;fill-opacity:1;fill-rule:nonzero;stroke:none"/>
			
			
      
			
			<path animation_id="56" d="m 955.77936,596.94065 c -0.7475,-0.07 -1.35125,-0.105 -2.27625,-0.105 -3.45,0 -6.2225,0.5675 -8.21375,1.42125 l -3.77,18.1 5.5475,0 3.23625,-15.68125 c 0.92375,-0.39125 2.34625,-0.35625 3.6625,0.14125" id="path3153" style="fill:#0068ac;fill-opacity:1;fill-rule:nonzero;stroke:none"/>
			
			
      
			
			<path animation_id="57" d="m 975.08811,597.19065 -5.69,0 -7.11125,8.4275 -0.0713,0 3.55625,-17.17625 -5.47625,0 -5.7975,27.915 5.47625,0 1.99125,-9.6725 0.0725,0 3.62625,9.6725 6.11625,0 -4.69375,-10.3825" id="path3155" style="fill:#0068ac;fill-opacity:1;fill-rule:nonzero;stroke:none"/>
			
			
      
			
			<path animation_id="58" d="m 991.76561,603.5919 c 0,-4.26875 -2.3825,-6.75625 -6.615,-6.75625 -3.48375,0 -6.29375,1.635 -8.1425,4.23 -1.63625,2.27625 -2.59625,5.47625 -2.59625,8.28625 0,4.6225 2.845,7.36125 7.68125,7.36125 2.845,0 5.33375,-0.64 6.89875,-1.4225 l -0.53375,-3.44875 c -1.06625,0.4975 -3.09375,1.1025 -5.12,1.1025 -2.845,0 -3.84125,-1.77875 -3.73375,-4.26875 l 11.69875,-1.59875 c 0.32,-1.28125 0.4625,-2.41875 0.4625,-3.485 z m -4.9075,-0.57 c 0,0.605 -0.0712,1.245 -0.24875,1.95625 l -6.93375,1.03125 c 0.2125,-1.1375 0.5325,-2.13375 0.92375,-2.9525 0.925,-1.88375 2.27625,-2.98625 3.87625,-2.98625 1.52875,0 2.3825,1.03125 2.3825,2.95125" id="path3157" style="fill:#0068ac;fill-opacity:1;fill-rule:nonzero;stroke:none"/>
			
			
      
			
			<path animation_id="59" d="m 824.79561,624.08815 -5.47125,0 -1.9925,9.5925 -5.87625,0 1.9925,-9.5925 -5.505,0 -4.79625,23.23625 5.505,0 2.06,-10.06375 5.8775,0 -2.06125,10.06375 5.4725,0" id="path3159" style="fill:#0068ac;fill-opacity:1;fill-rule:nonzero;stroke:none"/>
			
			
      
			
			<path animation_id="60" d="m 841.81811,635.20065 c 0,-4.05375 -2.2625,-6.4175 -6.28125,-6.4175 -3.31,0 -5.97875,1.55375 -7.735,4.01875 -1.55375,2.16125 -2.465,5.20125 -2.465,7.86875 0,4.39125 2.70125,6.9925 7.295,6.9925 2.70125,0 5.06625,-0.60875 6.5525,-1.35125 l -0.5075,-3.27625 c -1.0125,0.4725 -2.9375,1.0475 -4.8625,1.0475 -2.7025,0 -3.64875,-1.68875 -3.5475,-4.05375 l 11.1125,-1.52 c 0.30375,-1.215 0.43875,-2.29625 0.43875,-3.30875 z m -4.66,-0.54125 c 0,0.57375 -0.0687,1.1825 -0.2375,1.8575 l -6.585,0.98 c 0.2025,-1.08125 0.50625,-2.02625 0.8775,-2.80375 0.87875,-1.79 2.16125,-2.83625 3.68125,-2.83625 1.4525,0 2.26375,0.97875 2.26375,2.8025" id="path3161" style="fill:#0068ac;fill-opacity:1;fill-rule:nonzero;stroke:none"/>
			
			
      
			
			<path animation_id="61" d="m 851.98311,629.12065 -5.23375,0 -3.78375,18.20375 5.26875,0 3.74875,-18.20375 z m 1.28375,-5.67375 c 0,-1.14875 -0.945,-2.02625 -2.33,-2.02625 -1.75625,0 -3.34375,1.38375 -3.34375,2.9375 0,1.14875 0.94625,2.06125 2.33,2.06125 1.7225,0 3.34375,-1.385 3.34375,-2.9725" id="path3163" style="fill:#0068ac;fill-opacity:1;fill-rule:nonzero;stroke:none"/>
			
			
      
			
			<path animation_id="62" d="m 873.22811,620.8119 -5.26875,0 -1.7225,8.37625 c -0.575,-0.16875 -1.55375,-0.30375 -2.635,-0.30375 -3.0725,0 -5.7075,1.3175 -7.53125,3.74875 -1.655,2.16125 -2.70125,5.47125 -2.70125,8.2075 0,4.49125 3.07375,6.8225 7.4975,6.8225 3.14125,0 5.40375,-0.575 7.05875,-1.35125 l 5.3025,-25.5 z m -7.56625,11.21375 -2.49875,11.99 c -0.405,0.20125 -1.0125,0.3025 -1.75625,0.3025 -1.9925,0 -2.83625,-1.24875 -2.83625,-3.4775 0,-1.96 0.675,-4.66125 1.62125,-6.35 0.945,-1.68875 2.2625,-2.6675 4.08625,-2.6675 0.54,0 0.94625,0.0662 1.38375,0.2025" id="path3165" style="fill:#0068ac;fill-opacity:1;fill-rule:nonzero;stroke:none"/>
			
			
      
			
			<path animation_id="63" d="m 889.33811,635.20065 c 0,-4.05375 -2.26375,-6.4175 -6.2825,-6.4175 -3.30875,0 -5.9775,1.55375 -7.73375,4.01875 -1.55375,2.16125 -2.46625,5.20125 -2.46625,7.86875 0,4.39125 2.7025,6.9925 7.29625,6.9925 2.70125,0 5.065,-0.60875 6.55125,-1.35125 l -0.50625,-3.27625 c -1.0125,0.4725 -2.93875,1.0475 -4.8625,1.0475 -2.7025,0 -3.64875,-1.68875 -3.5475,-4.05375 l 11.1125,-1.52 c 0.30375,-1.215 0.43875,-2.29625 0.43875,-3.30875 z m -4.66125,-0.54125 c 0,0.57375 -0.0675,1.1825 -0.23625,1.8575 l -6.585,0.98 c 0.2025,-1.08125 0.50625,-2.02625 0.8775,-2.80375 0.8775,-1.79 2.16125,-2.83625 3.68125,-2.83625 1.4525,0 2.2625,0.97875 2.2625,2.8025" id="path3167" style="fill:#0068ac;fill-opacity:1;fill-rule:nonzero;stroke:none"/>
			
			
      
			
			<path animation_id="64" d="m 908.69061,633.37565 c 0,-2.735 -1.95875,-4.5925 -6.85625,-4.5925 -3.1075,0 -5.87625,0.54 -7.835,1.35125 l -3.58,17.19 5.26875,0 3.10625,-14.89375 c 0.6425,-0.2025 1.4525,-0.3725 2.2975,-0.3725 1.655,0 2.29625,0.7775 2.29625,1.79125 0,0.23625 -0.0338,0.4725 -0.10125,0.7425 l -2.60125,12.7325 5.235,0 2.60125,-12.49625 c 0.10125,-0.50625 0.16875,-0.97875 0.16875,-1.4525" id="path3169" style="fill:#0068ac;fill-opacity:1;fill-rule:nonzero;stroke:none"/>
			
			
      
			
			<path animation_id="65" d="m 928.31311,633.2069 c 0,-2.63375 -1.68875,-4.42375 -5.20125,-4.42375 -1.55375,0 -3.1075,0.4725 -4.15375,0.945 l 1.8575,-8.91625 -5.27,0 -5.50375,26.5125 5.26875,0 3.0725,-14.75875 c 0.7775,-0.37125 1.52,-0.57375 2.365,-0.57375 1.655,0 2.22875,0.84375 2.22875,1.89125 0,0.23625 -0.0675,0.4725 -0.10125,0.70875 l -2.635,12.7325 5.26875,0 2.635,-12.63125 c 0.10125,-0.50625 0.16875,-1.0125 0.16875,-1.48625" id="path3171" style="fill:#0068ac;fill-opacity:1;fill-rule:nonzero;stroke:none"/>
			
			
      
			
			<path animation_id="66" d="m 947.19186,635.20065 c 0,-4.05375 -2.2625,-6.4175 -6.28125,-6.4175 -3.31,0 -5.97875,1.55375 -7.735,4.01875 -1.55375,2.16125 -2.465,5.20125 -2.465,7.86875 0,4.39125 2.70125,6.9925 7.295,6.9925 2.70125,0 5.06625,-0.60875 6.5525,-1.35125 l -0.5075,-3.27625 c -1.0125,0.4725 -2.9375,1.0475 -4.8625,1.0475 -2.7025,0 -3.64875,-1.68875 -3.5475,-4.05375 l 11.1125,-1.52 c 0.30375,-1.215 0.43875,-2.29625 0.43875,-3.30875 z m -4.66,-0.54125 c 0,0.57375 -0.0687,1.1825 -0.2375,1.8575 l -6.585,0.98 c 0.2025,-1.08125 0.50625,-2.02625 0.8775,-2.80375 0.87875,-1.79 2.16125,-2.83625 3.6825,-2.83625 1.45125,0 2.2625,0.97875 2.2625,2.8025" id="path3173" style="fill:#0068ac;fill-opacity:1;fill-rule:nonzero;stroke:none"/>
			
			
      
			
			<path animation_id="67" d="m 957.35811,629.12065 -5.235,0 -3.7825,18.20375 5.26875,0 3.74875,-18.20375 z m 1.28375,-5.67375 c 0,-1.14875 -0.945,-2.02625 -2.33,-2.02625 -1.7575,0 -3.345,1.38375 -3.345,2.9375 0,1.14875 0.94625,2.06125 2.33125,2.06125 1.7225,0 3.34375,-1.385 3.34375,-2.9725" id="path3175" style="fill:#0068ac;fill-opacity:1;fill-rule:nonzero;stroke:none"/>
			
			
      
			
			<path animation_id="68" d="m 986.20061,633.37565 c 0,-2.70125 -1.82375,-4.5925 -5.505,-4.5925 -3.00625,0 -5.3025,0.8775 -6.5175,1.82375 -0.845,-1.01375 -2.80375,-1.82375 -5.2025,-1.82375 -3.03875,0 -5.505,0.4725 -7.66625,1.35125 l -3.58,17.19 5.26875,0 3.07375,-14.89375 c 0.675,-0.23625 1.385,-0.3725 2.22875,-0.3725 1.5875,0 2.39875,0.67625 2.39875,1.79125 0,0.2025 -0.035,0.405 -0.0687,0.64125 l -2.6675,12.83375 5.26875,0 2.9725,-14.32 c 0.64125,-0.54 1.5875,-0.94625 2.5325,-0.94625 1.55375,0 2.195,0.74375 2.195,1.79125 0,0.23625 -0.0337,0.43875 -0.0675,0.675 l -2.6675,12.8 5.26875,0 2.6,-12.63125 c 0.10125,-0.43875 0.135,-0.8775 0.135,-1.3175" id="path3177" style="fill:#0068ac;fill-opacity:1;fill-rule:nonzero;stroke:none"/>
			
			
      
			
			<path animation_id="69" d="m 884.87311,656.77315 c 0,-0.2675 -0.19625,-0.4625 -0.48375,-0.4625 -0.38,0 -0.73,0.36 -0.73,0.70875 0,0.2675 0.19625,0.4625 0.48375,0.4625 0.38,0 0.73,-0.35875 0.73,-0.70875" id="path3179" style="fill:#0068ac;fill-opacity:1;fill-rule:nonzero;stroke:none"/>
			
			
      
			
			<path animation_id="70" d="m 1081.8044,647.72315 -0.25,0.71625 -0.2963,0.71875 -0.3425,0.71625 -0.385,0.7125 -0.4287,0.70625 -0.4675,0.69625 -0.5088,0.685 -0.5462,0.67125 -0.585,0.65375 -0.6188,0.635 -0.655,0.6125 -0.6875,0.5875 -0.7212,0.56125 -0.75,0.53 -0.78,0.49875 -0.8088,0.4625 -0.8362,0.42375 -0.8613,0.38375 -0.8862,0.34 -0.9088,0.2925 -0.9325,0.24375 -0.9512,0.19125 -0.97,0.1375 -0.9888,0.0788 -1.005,0.0187 -1.0187,-0.0437 -1.0325,-0.11125 -1.0438,-0.17875 -1.055,-0.25 -1.8525,-0.56625 c 0.4913,-0.315 0.9825,-0.6275 1.4613,-0.95625 0.3875,-0.27625 0.7625,-0.56125 1.1325,-0.8575 0.3112,-0.2575 0.6125,-0.52 0.91,-0.78875 0.3187,-0.30125 0.6287,-0.60625 0.9312,-0.91875 l 0.6188,-0.6875 0.6075,-0.7475 0.59,-0.81 0.5612,-0.8725 0.2688,-0.46 0.2587,-0.4775 0.2475,-0.4925 0.2363,-0.51 0.2225,-0.52625 0.21,-0.54375 0.195,-0.56125 0.1787,-0.5775 0.1625,-0.59625 0.145,-0.61375 7.1763,-33.7775 0.37,-0.1975 12.3112,8.66875 -5.2687,24.77125 -0.15,0.695 -0.2025,0.71375" id="path3181" style="fill:#0068ac;fill-opacity:1;fill-rule:evenodd;stroke:none"/>
			
			
      
			
			<path animation_id="71" d="m 1073.3044,621.71315 1.7825,-8.3825 11.905,8.3825 -5.215,24.51875 c -1.3075,7.22875 -11.1,16.265 -22.23,12.48875 2.5462,-1.60875 7.2637,-5.4575 8.53,-12.43375 l 5.2275,-24.57375" id="path3183" style="fill:#fcdb0e;fill-opacity:1;fill-rule:evenodd;stroke:none"/>
			
			
      
			
			<path animation_id="72" d="m 1053.7144,645.89815 -0.031,0 -0.165,1.00625 -0.077,0.67125 -0.046,0.65375 -0.015,0.635 0.015,0.61875 0.042,0.6 0.069,0.5825 0.094,0.56375 0.1175,0.54625 0.1387,0.52625 0.1588,0.50875 0.18,0.49 0.195,0.47125 0.2125,0.45125 0.2262,0.4325 0.2388,0.41375 0.2487,0.395 0.26,0.37625 0.2663,0.35625 0.275,0.3375 0.2787,0.31875 0.5688,0.57875 0.5712,0.50125 0.5625,0.42375 0.5425,0.3475 0.515,0.27125 0.4263,0.18625 0.9625,-0.645 c 0.3861,-0.2775 0.7636,-0.56125 1.1386,-0.85625 l 0.7263,-0.61125 0.6987,-0.645 0.6675,-0.67875 0.6363,-0.715 0.6012,-0.74875 0.565,-0.78625 0.5263,-0.82375 0.4875,-0.86 0.4437,-0.9 0.4,-0.9375 0.3525,-0.9775 0.3063,-1.01625 c 0.1087,-0.4275 0.215,-0.85375 0.3012,-1.285 l 0.011,0 3.755,-17.6525 -0.016,0 3.3738,-15.8625 -0.405,-0.28625 -16.2325,8.655 -1.76,8.27 0.016,0 -3.4238,16.09875" id="path3185" style="fill:#0068ac;fill-opacity:1;fill-rule:evenodd;stroke:none"/>
			
			
      
			
			<path animation_id="73" d="m 1054.0281,646.2869 c 0,0 -0.01,0 -0.015,0 -1.3462,7.2525 3.1988,11.4875 5.5313,12.435 4.2,-2.70875 7.465,-6.6825 8.5325,-12.435 l 0.015,0 3.59,-16.87625 -0.015,0 3.42,-16.08 -15.8625,8.45625 -1.6213,7.62375 0.015,0 -3.59,16.87625" id="path3187" style="fill:#f29223;fill-opacity:1;fill-rule:evenodd;stroke:none"/>
			
			
      
			
			<path animation_id="74" d="m 1017.0081,622.8944 -1.82,8.56 -0.37,0.1975 -12.3112,-8.66875 5.2687,-24.77 0.1488,-0.695 0.2037,-0.71375 0.2488,-0.71625 0.2975,-0.71875 0.3412,-0.71625 0.3863,-0.7125 0.4262,-0.705 0.47,-0.6975 0.5075,-0.685 0.5475,-0.67125 0.5838,-0.65375 0.62,-0.635 0.655,-0.6125 0.6875,-0.5875 0.72,-0.56125 0.7512,-0.53125 0.78,-0.4975 0.8088,-0.4625 0.835,-0.42375 0.8625,-0.38375 0.8862,-0.33875 0.9088,-0.29375 0.9312,-0.24375 0.9525,-0.1925 0.97,-0.13625 0.9875,-0.08 1.005,-0.0175 1.02,0.0437 1.0325,0.11125 1.0438,0.17875 1.0537,0.25 1.8538,0.565 c -0.4913,0.315 -0.9838,0.6275 -1.4625,0.9575 -0.3863,0.27625 -0.7625,0.56125 -1.1313,0.8575 -0.3112,0.2575 -0.6137,0.52125 -0.9112,0.79 -0.3188,0.3 -0.6275,0.605 -0.93,0.91875 l -0.62,0.68625 -0.6075,0.74875 -0.5888,0.80875 -0.5625,0.8725 -0.2687,0.46125 -0.2575,0.475 -0.2475,0.49375 -0.2375,0.51 -0.2225,0.52625 -0.21,0.54375 -0.195,0.56125 -0.1788,0.5775 -0.1625,0.59625 -0.1437,0.61375 -0.1288,0.64 -5.2275,24.57625" id="path3189" style="fill:#0068ac;fill-opacity:1;fill-rule:evenodd;stroke:none"/>
			
			
      
			
			<path animation_id="75" d="m 1016.6294,622.81315 -1.7838,8.38375 -11.905,-8.38375 5.215,-24.51875 c 1.3075,-7.22875 11.1,-16.265 22.23,-12.48875 -2.5462,1.61 -7.2637,5.4575 -8.53,12.435 l -5.2262,24.5725" id="path3191" style="fill:#fcdb0e;fill-opacity:1;fill-rule:evenodd;stroke:none"/>
			
			
      
			
			<path animation_id="76" d="m 1014.8181,631.6519 0.2275,-0.12125 16.005,-8.53375 5.2513,-24.685 0.1112,-0.68875 0.079,-0.67125 0.045,-0.65375 0.016,-0.635 -0.015,-0.61875 -0.043,-0.6 -0.069,-0.5825 -0.095,-0.56375 -0.1175,-0.545 -0.1387,-0.5275 -0.16,-0.50875 -0.1775,-0.49 -0.1963,-0.47 -0.2125,-0.4525 -0.225,-0.4325 -0.2387,-0.41375 -0.25,-0.395 -0.2587,-0.37625 -0.2688,-0.35625 -0.2725,-0.3375 -0.5625,-0.61625 -0.5712,-0.54125 -0.5688,-0.4625 -0.5537,-0.38625 -0.5288,-0.30875 -0.2537,-0.12625 -0.4263,-0.1875 -0.9637,0.64625 -0.7663,0.56375 c -0.375,0.295 -0.7412,0.595 -1.1012,0.90625 l -0.6988,0.64625 -0.6687,0.67875 -0.6363,0.71625 -0.6025,0.75 -0.565,0.78625 -0.5262,0.825 -0.4863,0.86125 -0.445,0.90125 -0.3987,0.93875 -0.3538,0.98 -0.305,1.01875 -0.255,1.05875 -7.165,33.725 0.405,0.285" id="path3193" style="fill:#0068ac;fill-opacity:1;fill-rule:evenodd;stroke:none"/>
			
			
      
			
			<path animation_id="77" d="m 1014.8456,631.1969 15.8625,-8.4575 5.2113,-24.49875 c 1.3462,-7.2525 -3.1975,-11.48875 -5.5325,-12.43625 -4.2038,2.7125 -7.4713,6.69125 -8.5338,12.4525 l -7.0075,32.94" id="path3195" style="fill:#f29223;fill-opacity:1;fill-rule:evenodd;stroke:none"/>
			
			
      
			
			<path animation_id="78" d="m 1025.0494,649.49315 0.052,0.75625 0.096,0.7275 0.1375,0.69875 0.1762,0.6675 0.2125,0.63875 0.2488,0.61 0.28,0.58 0.3112,0.55125 0.3375,0.52125 0.3663,0.4925 0.3875,0.46375 0.41,0.435 0.4287,0.4075 0.4463,0.38 0.46,0.35125 0.4737,0.325 0.4825,0.2975 0.4925,0.27125 0.4988,0.245 0.5025,0.21875 0.5037,0.19375 0.505,0.16875 0.5025,0.14375 0.5,0.12 0.4925,0.095 0.4863,0.0712 0.4762,0.0488 0.465,0.0237 14.21,0 -2.3025,-0.895 -0.7625,-0.335 -0.7887,-0.39875 -0.8,-0.465 -0.7975,-0.53 -0.3938,-0.29 -0.3887,-0.3075 -0.3812,-0.3225 -0.3713,-0.34125 -0.3612,-0.35625 -0.3488,-0.375 -0.335,-0.39125 -0.3187,-0.40625 -0.3025,-0.42625 -0.2838,-0.44125 -0.2625,-0.46 -0.2425,-0.4775 -0.2162,-0.49375 -0.1938,-0.5125 -0.165,-0.53125 -0.1387,-0.54875 -0.1088,-0.5675 -0.078,-0.5875 -0.044,-0.60625 -0.01,-0.625 0.027,-0.64625 0.065,-0.66625 0.1013,-0.65625 10.215,-48.02625 0.1275,-0.80625 0.084,-0.78125 0.04,-0.75625 10e-4,-0.73125 -0.038,-0.705 -0.075,-0.6825 -0.1112,-0.6575 -0.1425,-0.6325 -0.1763,-0.6075 -0.2062,-0.5825 -0.235,-0.55875 -0.26,-0.53375 -0.285,-0.50875 -0.3075,-0.48375 -0.3288,-0.46 -0.3475,-0.435 -0.3637,-0.41125 -0.3788,-0.3875 -0.3937,-0.36375 -0.4025,-0.34 -0.4138,-0.31625 -0.4212,-0.2925 -0.4263,-0.27 -0.4312,-0.24875 -0.435,-0.225 -0.4338,-0.2025 -0.435,-0.18 -0.43,-0.16 -0.4275,-0.13625 -0.42,-0.11625 -0.4137,-0.095 -0.43,-0.0788 -16.9988,0 -0.785,0.0638 -0.97,0.13625 -0.5087,0.10375 5.2012,0.5625 0.7838,0.13 0.7387,0.16875 0.6925,0.205 0.6475,0.2375 0.6075,0.27 0.5638,0.29875 0.5262,0.32625 0.4875,0.35125 0.4513,0.37625 0.4162,0.3975 0.3838,0.4175 0.3487,0.435 0.3175,0.4525 0.2875,0.46625 0.2588,0.48 0.23,0.49 0.2025,0.49875 0.1762,0.505 0.1513,0.51125 0.1262,0.5125 0.1038,0.515 0.081,0.51125 0.059,0.5075 0.041,0.5025 0.02,0.495 0,0.48375 -0.014,0.4725 -0.03,0.4575 -0.044,0.44 -0.1175,0.765 -10.3263,48.515 0.031,0 -0.066,0.4175 -0.088,0.84625 -0.039,0.8175 0.01,0.78625" id="path3197" style="fill:#0068ac;fill-opacity:1;fill-rule:evenodd;stroke:none"/>
			
			
      
			
			<path animation_id="79" d="m 1025.6881,646.2369 c -1.7175,9.30125 5.4263,13.24125 10.1038,13.37125 3.835,0 8.2937,0 12.1287,0 -3.9662,-1.4825 -9.8925,-5.71875 -8.5062,-13.37125 l 0,0 10.2102,-47.99625 c 1.5588,-8.53 -4.5062,-12.6475 -8.57,-13.2875 -3.8362,0 -10.9925,0 -14.8275,0 9.3588,0.755 10.5075,8.9875 9.6713,13.2875 l 0,0 -10.2075,47.98875 -10e-4,0.007" id="path3199" style="fill:#e62329;fill-opacity:1;fill-rule:evenodd;stroke:none"/>
			
			
      
			
			<path animation_id="80" d="m 1064.8631,594.9969 -0.059,-0.75375 -0.1013,-0.725 -0.1425,-0.695 -0.1812,-0.66625 -0.2188,-0.63625 -0.2512,-0.60625 -0.2838,-0.57875 -0.315,-0.54875 -0.3437,-0.52 -0.3688,-0.49 -0.39,-0.4625 -0.4137,-0.43375 -0.4325,-0.405 -0.4488,-0.3775 -0.4637,-0.35 -0.475,-0.32375 -0.4875,-0.295 -0.4938,-0.26875 -0.5012,-0.2425 -0.5063,-0.2175 -0.5062,-0.19 -0.5088,-0.16625 -0.505,-0.14125 -0.5025,-0.11625 -0.4962,-0.0912 -0.4888,-0.0675 -0.48,-0.0438 -0.465,-0.02 -16.3975,0 3.7838,0.87625 0.4625,0.12625 0.4575,0.145 0.4537,0.16375 0.4463,0.1825 0.44,0.2025 0.4325,0.22 0.4225,0.23875 0.4112,0.25875 0.4013,0.27625 0.39,0.295 0.375,0.315 0.36,0.3325 0.3462,0.35125 0.3288,0.37125 0.3112,0.3875 0.2938,0.40875 0.2737,0.4275 0.2525,0.445 0.2338,0.465 0.2087,0.485 0.1863,0.50375 0.1625,0.5225 0.1362,0.5425 0.1088,0.5625 0.082,0.5825 0.053,0.6025 0.024,0.6225 -0.01,0.64375 -0.04,0.66375 -0.074,0.68375 -0.1063,0.695 -10.1962,47.93625 c -0.026,0.0538 -0.02,0.035 -0.02,0.105 l -0.12,0.68125 -0.082,0.7075 -0.041,0.6875 0,0.6675 0.039,0.64875 0.076,0.62875 0.11,0.60875 0.1437,0.59 0.1763,0.57 0.2037,0.55 0.2338,0.53125 0.2575,0.51125 0.2825,0.49125 0.3037,0.47125 0.3225,0.45375 0.3413,0.43375 0.3575,0.415 0.3712,0.39625 0.3838,0.37875 0.3937,0.36 0.4025,0.3425 0.4088,0.325 0.4137,0.3075 0.8363,0.56375 0.8337,0.4975 0.8188,0.4325 0.7875,0.36875 0.4487,0.19 c 5.4475,0 10.8963,-0.0175 16.3425,-0.0175 l 0.7588,-10e-4 0,-0.003 0.8062,-0.015 0.9888,-0.0788 0.97,-0.1375 0.9512,-0.19125 0.1975,-0.0512 -5.0712,-0.35625 -0.77,-0.095 -0.7325,-0.13125 -0.6938,-0.165 -0.6575,-0.1975 -0.6212,-0.23 -0.5863,-0.25875 -0.55,-0.28625 -0.5175,-0.3125 -0.485,-0.3375 -0.4525,-0.36125 -0.4212,-0.3825 -0.3913,-0.40375 -0.36,-0.42375 -0.3325,-0.44125 -0.3025,-0.45875 -0.275,-0.4725 -0.2475,-0.4875 -0.22,-0.49875 -0.1937,-0.51125 -0.1675,-0.52 -0.1425,-0.5275 -0.1175,-0.53375 -0.092,-0.53875 -0.069,-0.54125 -0.045,-0.54375 -0.021,-0.54375 0,-0.54125 0.023,-0.53875 0.044,-0.53375 0.064,-0.5275 0.085,-0.52125 10.2062,-47.9875 0.1325,-0.87375 0.081,-0.8425 0.033,-0.8125 -0.014,-0.78375" id="path3201" style="fill:#0068ac;fill-opacity:1;fill-rule:evenodd;stroke:none"/>
			
			
      
			
			<path animation_id="81" d="m 1054.0419,646.2294 0,0 10.2062,-47.98875 c 1.6463,-9.25375 -5.5112,-13.20875 -10.2237,-13.2875 -4.0538,0 -8.935,0 -12.9888,0 5.1238,1.07625 9.9675,5.48 8.59,13.2875 l -10e-4,0 -10.2075,47.98875 c 0,0.002 0,0.005 -10e-4,0.007 -1.5462,7.62625 4.5075,11.78375 8.3938,13.39 4.0537,0 12.6037,-0.0187 16.6575,-0.0187 -9.0525,-0.4125 -11.4613,-7.72875 -10.425,-13.37875" id="path3203" style="fill:#0068ac;fill-opacity:1;fill-rule:evenodd;stroke:none"/>
			
			
      
			
			<path animation_id="82" d="m 806.02811,659.78065 -0.915,-7.0725 -0.8625,0 -3.855,7.0725 0.915,0 1.12125,-2.1175 2.425,0 0.22625,2.1175 0.945,0 z m -1.2025,-2.68375 -2.1175,0 1.40875,-2.6825 c 0.25625,-0.49375 0.37,-0.8525 0.37,-0.8525 l 0.0213,0 c 0,0 0,0.34875 0.05,0.8525" id="path3205" style="fill:#0068ac;fill-opacity:1;fill-rule:nonzero;stroke:none"/>
			
			
      
			
			<path animation_id="83" d="m 812.01061,654.2394 -0.97625,0 -2.4975,2.57 -0.0213,0 1.04875,-5.0975 -0.88375,0 -1.675,8.06875 0.88375,0 0.59625,-2.8575 0.02,0 1.5725,2.8575 1.0175,0 -1.7675,-2.92" id="path3207" style="fill:#0068ac;fill-opacity:1;fill-rule:nonzero;stroke:none"/>
			
			
      
			
			<path animation_id="84" d="m 815.16561,654.2394 -0.95625,0 0.33,-1.55125 -0.9775,0.2775 -0.2575,1.27375 -0.63625,0 -0.11375,0.555 0.6275,0 -0.74,3.61875 c -0.02,0.12375 -0.0412,0.25625 -0.0412,0.38 0,0.565 0.29875,1.04875 1.11,1.04875 0.21625,0 0.40125,-0.0412 0.51375,-0.0825 l 0.11375,-0.58625 c -0.0725,0.0213 -0.19625,0.0525 -0.28875,0.0525 -0.4,0 -0.53375,-0.22625 -0.53375,-0.535 0,-0.0825 0.01,-0.185 0.0312,-0.2775 l 0.74,-3.61875 0.955,0" id="path3209" style="fill:#0068ac;fill-opacity:1;fill-rule:nonzero;stroke:none"/>
			
			
      
			
			<path animation_id="85" d="m 817.24186,654.2394 -0.89375,0 -1.15125,5.54125 0.905,0 1.14,-5.54125 z m 0.4125,-1.65375 c 0,-0.21625 -0.185,-0.40125 -0.4425,-0.40125 -0.34,0 -0.6375,0.2975 -0.6375,0.59625 0,0.22625 0.175,0.40125 0.4325,0.40125 0.33875,0 0.6475,-0.28875 0.6475,-0.59625" id="path3211" style="fill:#0068ac;fill-opacity:1;fill-rule:nonzero;stroke:none"/>
			
			
      
			
			<path animation_id="86" d="m 822.47436,655.91565 c 0,-1.1825 -0.6375,-1.77875 -1.68625,-1.77875 -0.8425,0 -1.6125,0.42125 -2.1475,1.22375 -0.4525,0.68875 -0.75,1.70625 -0.75,2.53875 0,1.35625 0.80125,1.98375 2.00375,1.98375 0.70875,0 1.33625,-0.185 1.71625,-0.39125 l -0.1125,-0.59625 c -0.30875,0.155 -0.8325,0.34 -1.44,0.34 -1.20125,0 -1.4075,-0.905 -1.28375,-1.87125 l 3.5875,-0.50375 c 0.0825,-0.34875 0.1125,-0.6575 0.1125,-0.945 z m -0.8125,-0.12375 c 0,0.195 -0.03,0.41125 -0.0813,0.66875 l -2.745,0.41 c 0.0925,-0.4725 0.2375,-0.8625 0.41125,-1.18125 0.38125,-0.6575 0.90375,-0.97625 1.44875,-0.97625 0.6075,0 0.96625,0.32875 0.96625,1.07875" id="path3213" style="fill:#0068ac;fill-opacity:1;fill-rule:nonzero;stroke:none"/>
			
			
      
			
			<path animation_id="87" d="m 827.85061,655.4319 c 0,-0.71875 -0.4725,-1.295 -1.7375,-1.295 -0.8125,0 -1.52125,0.155 -2.04625,0.39125 l -1.08875,5.2525 0.90375,0 1.0175,-4.8725 c 0.30875,-0.11375 0.66875,-0.185 1.07,-0.185 0.71875,0 0.97625,0.33875 0.97625,0.75 0,0.1025 -0.01,0.20625 -0.0312,0.31875 l -0.8325,3.98875 0.905,0 0.82125,-3.9375 c 0.0325,-0.13375 0.0425,-0.2775 0.0425,-0.41125" id="path3215" style="fill:#0068ac;fill-opacity:1;fill-rule:nonzero;stroke:none"/>
			
			
      
			
			<path animation_id="88" d="m 833.52436,654.5169 c -0.2775,-0.185 -0.885,-0.38 -1.59375,-0.38 -1.0275,0 -1.83,0.4625 -2.375,1.22375 -0.4925,0.68875 -0.8225,1.73625 -0.8225,2.59 0,1.1825 0.65875,1.90125 1.7475,1.90125 0.47375,0 0.86375,-0.1025 1.12125,-0.23625 l -0.0925,0.38 c -0.195,0.79125 -0.69875,1.43875 -1.68625,1.43875 -0.51375,0 -1.0075,-0.1325 -1.26375,-0.2875 l -0.37,0.555 c 0.37,0.22625 1.00625,0.39125 1.665,0.39125 1.34625,0 2.27125,-0.8025 2.56,-2.2 l 1.11,-5.37625 z m -0.93625,0.30875 -0.88375,4.255 c -0.23625,0.13375 -0.58625,0.22625 -0.935,0.22625 -0.8125,0 -1.15125,-0.45125 -1.15125,-1.26375 0,-0.72 0.24625,-1.68625 0.60625,-2.3025 0.39,-0.66875 0.935,-1.05875 1.62375,-1.05875 0.39125,0 0.61625,0.0725 0.74,0.14375" id="path3217" style="fill:#0068ac;fill-opacity:1;fill-rule:nonzero;stroke:none"/>
			
			
      
			
			<path animation_id="89" d="m 838.79686,655.91565 c 0,-1.1825 -0.6375,-1.77875 -1.68625,-1.77875 -0.8425,0 -1.6125,0.42125 -2.1475,1.22375 -0.4525,0.68875 -0.75,1.70625 -0.75,2.53875 0,1.35625 0.80125,1.98375 2.00375,1.98375 0.70875,0 1.33625,-0.185 1.71625,-0.39125 l -0.1125,-0.59625 c -0.30875,0.155 -0.8325,0.34 -1.44,0.34 -1.2025,0 -1.4075,-0.905 -1.28375,-1.87125 l 3.5875,-0.50375 c 0.0813,-0.34875 0.1125,-0.6575 0.1125,-0.945 z m -0.8125,-0.12375 c 0,0.195 -0.03,0.41125 -0.0825,0.66875 l -2.74375,0.41 c 0.0925,-0.4725 0.23625,-0.8625 0.41125,-1.18125 0.38,-0.6575 0.90375,-0.97625 1.44875,-0.97625 0.60625,0 0.96625,0.32875 0.96625,1.07875" id="path3219" style="fill:#0068ac;fill-opacity:1;fill-rule:nonzero;stroke:none"/>
			
			
      
			
			<path animation_id="90" d="m 843.14436,654.52815 c -0.2875,-0.23625 -0.68875,-0.39125 -1.23375,-0.39125 -1.2025,0 -1.97375,0.88375 -1.97375,1.78875 0,1.3775 1.7175,1.04875 1.7175,2.09625 0,0.6175 -0.525,1.20375 -1.275,1.20375 -0.4925,0 -0.8525,-0.155 -1.0275,-0.29875 l -0.35,0.565 c 0.2875,0.22625 0.8125,0.39125 1.3575,0.39125 1.3875,0 2.23,-0.95625 2.23,-1.97375 0,-1.3875 -1.7775,-1.06875 -1.7775,-2.09625 0,-0.56625 0.4825,-1.07 1.14,-1.07 0.37,0 0.69875,0.12375 0.87375,0.2775" id="path3221" style="fill:#0068ac;fill-opacity:1;fill-rule:nonzero;stroke:none"/>
			
			
      
			
			<path animation_id="91" d="m 848.34561,655.91565 c 0,-1.1825 -0.6375,-1.77875 -1.68625,-1.77875 -0.8425,0 -1.6125,0.42125 -2.1475,1.22375 -0.4525,0.68875 -0.75,1.70625 -0.75,2.53875 0,1.35625 0.80125,1.98375 2.00375,1.98375 0.70875,0 1.33625,-0.185 1.71625,-0.39125 l -0.1125,-0.59625 c -0.30875,0.155 -0.8325,0.34 -1.44,0.34 -1.20125,0 -1.4075,-0.905 -1.28375,-1.87125 l 3.5875,-0.50375 c 0.0825,-0.34875 0.1125,-0.6575 0.1125,-0.945 z m -0.8125,-0.12375 c 0,0.195 -0.03,0.41125 -0.0812,0.66875 l -2.745,0.41 c 0.0925,-0.4725 0.2375,-0.8625 0.41125,-1.18125 0.38125,-0.6575 0.905,-0.97625 1.44875,-0.97625 0.6075,0 0.96625,0.32875 0.96625,1.07875" id="path3223" style="fill:#0068ac;fill-opacity:1;fill-rule:nonzero;stroke:none"/>
			
			
      
			
			<path animation_id="92" d="m 851.47061,651.7119 -0.895,0 -1.675,8.06875 0.895,0" id="path3225" style="fill:#0068ac;fill-opacity:1;fill-rule:nonzero;stroke:none"/>
			
			
      
			
			<path animation_id="93" d="m 854.01936,651.7119 -0.89375,0 -1.67625,8.06875 0.895,0" id="path3227" style="fill:#0068ac;fill-opacity:1;fill-rule:nonzero;stroke:none"/>
			
			
      
			
			<path animation_id="94" d="m 857.70936,654.52815 c -0.2875,-0.23625 -0.68875,-0.39125 -1.23375,-0.39125 -1.2025,0 -1.97375,0.88375 -1.97375,1.78875 0,1.3775 1.7175,1.04875 1.7175,2.09625 0,0.6175 -0.525,1.20375 -1.275,1.20375 -0.4925,0 -0.8525,-0.155 -1.0275,-0.29875 l -0.35,0.565 c 0.2875,0.22625 0.8125,0.39125 1.3575,0.39125 1.3875,0 2.23,-0.95625 2.23,-1.97375 0,-1.3875 -1.7775,-1.06875 -1.7775,-2.09625 0,-0.56625 0.4825,-1.07 1.14,-1.07 0.37,0 0.69875,0.12375 0.87375,0.2775" id="path3229" style="fill:#0068ac;fill-opacity:1;fill-rule:nonzero;stroke:none"/>
			
			
      
			
			<path animation_id="95" d="m 862.32436,654.52815 c -0.16375,-0.175 -0.6375,-0.39125 -1.2025,-0.39125 -0.79125,0 -1.51,0.40125 -2.025,1.1725 -0.4625,0.6775 -0.75,1.685 -0.75,2.5175 0,1.23375 0.6275,2.05625 1.645,2.05625 0.545,0 1.0375,-0.185 1.285,-0.39125 l -0.12375,-0.585 c -0.19625,0.14375 -0.555,0.2975 -0.915,0.2975 -0.6575,0 -0.98625,-0.51375 -0.98625,-1.34625 0,-0.69875 0.225,-1.61375 0.575,-2.2 0.34,-0.565 0.8025,-0.89375 1.4075,-0.89375 0.35,0 0.6275,0.15375 0.75125,0.24625" id="path3231" style="fill:#0068ac;fill-opacity:1;fill-rule:nonzero;stroke:none"/>
			
			
      
			
			<path animation_id="96" d="m 867.20686,655.4319 c 0,-0.79125 -0.50375,-1.295 -1.50125,-1.295 -0.4825,0 -1.0275,0.175 -1.35625,0.36 l 0.57625,-2.785 -0.905,0 -1.67625,8.06875 0.905,0 0.9975,-4.76 c 0.38,-0.195 0.74,-0.3075 1.15125,-0.3075 0.6875,0 0.90375,0.37 0.90375,0.80125 0,0.1025 -0.01,0.195 -0.0312,0.29875 l -0.82125,3.9675 0.90375,0 0.8125,-3.91625 c 0.0312,-0.155 0.0412,-0.29875 0.0412,-0.4325" id="path3233" style="fill:#0068ac;fill-opacity:1;fill-rule:nonzero;stroke:none"/>
			
			
      
			
			<path animation_id="97" d="m 872.93186,654.52815 c -0.2875,-0.19625 -0.91375,-0.39125 -1.6025,-0.39125 -0.9975,0 -1.76875,0.42125 -2.31375,1.12125 -0.53375,0.6875 -0.8825,1.7575 -0.8825,2.64125 0,1.1925 0.6675,1.98375 1.9925,1.98375 0.8025,0 1.41875,-0.185 1.77875,-0.39125 l 1.0275,-4.96375 z m -0.955,0.3075 -0.88375,4.27625 c -0.185,0.1025 -0.50375,0.175 -0.86375,0.175 -0.85375,0 -1.1925,-0.535 -1.1925,-1.3675 0,-0.73 0.23625,-1.665 0.62625,-2.28125 0.38125,-0.60625 0.92625,-0.95625 1.57375,-0.95625 0.37,0 0.61625,0.0825 0.74,0.15375" id="path3235" style="fill:#0068ac;fill-opacity:1;fill-rule:nonzero;stroke:none"/>
			
			
      
			
			<path animation_id="98" d="m 877.18811,651.7119 c -0.0725,-0.0113 -0.155,-0.0113 -0.22625,-0.0113 -0.84375,0 -1.7575,0.47375 -2.015,1.75875 l -0.155,0.78 -0.63625,0 -0.11375,0.555 0.6275,0 -1.0275,4.98625 0.905,0 1.0275,-4.98625 0.97625,0 0.1125,-0.555 -0.96625,0 0.175,-0.87375 c 0.165,-0.8325 0.78125,-1.08875 1.1925,-1.07875" id="path3237" style="fill:#0068ac;fill-opacity:1;fill-rule:nonzero;stroke:none"/>
			
			
      
			
			<path animation_id="99" d="m 879.88061,654.2394 -0.95625,0 0.32875,-1.55125 -0.97625,0.2775 -0.2575,1.27375 -0.6375,0 -0.1125,0.555 0.6275,0 -0.74,3.61875 c -0.0213,0.12375 -0.0413,0.25625 -0.0413,0.38 0,0.565 0.2975,1.04875 1.11,1.04875 0.21625,0 0.40125,-0.0412 0.51375,-0.0825 l 0.11375,-0.58625 c -0.0725,0.0213 -0.19625,0.0525 -0.28875,0.0525 -0.4,0 -0.53375,-0.22625 -0.53375,-0.535 0,-0.0825 0.01,-0.185 0.03,-0.2775 l 0.74,-3.61875 0.95625,0" id="path3239" style="fill:#0068ac;fill-opacity:1;fill-rule:nonzero;stroke:none"/>
			
			
      
			
			<path animation_id="100" d="m 894.31186,652.70815 -0.86375,0 -1.03875,5.0475 c -0.17375,0.8625 -0.8825,1.3875 -1.64375,1.3875 -0.59625,0 -0.9975,-0.35 -0.9975,-0.9875 0,-0.1225 0.0213,-0.25625 0.0512,-0.4 l 1.04875,-5.0475 -0.94625,0 -1.0475,5.0475 c -0.0312,0.16375 -0.0512,0.32875 -0.0512,0.4825 0,0.97625 0.6675,1.645 1.82875,1.645 1.3575,0 2.375,-0.895 2.62125,-2.1175" id="path3241" style="fill:#0068ac;fill-opacity:1;fill-rule:nonzero;stroke:none"/>
			
			
      
			
			<path animation_id="101" d="m 899.26686,655.4319 c 0,-0.71875 -0.4725,-1.295 -1.7375,-1.295 -0.81125,0 -1.52125,0.155 -2.045,0.39125 l -1.09,5.2525 0.905,0 1.0175,-4.8725 c 0.30875,-0.11375 0.6675,-0.185 1.06875,-0.185 0.72,0 0.97625,0.33875 0.97625,0.75 0,0.1025 -0.01,0.20625 -0.0312,0.31875 l -0.8325,3.98875 0.905,0 0.8225,-3.9375 c 0.0312,-0.13375 0.0412,-0.2775 0.0412,-0.41125" id="path3243" style="fill:#0068ac;fill-opacity:1;fill-rule:nonzero;stroke:none"/>
			
			
      
			
			<path animation_id="102" d="m 903.14186,654.2394 -0.95625,0 0.32875,-1.55125 -0.97625,0.2775 -0.2575,1.27375 -0.6375,0 -0.1125,0.555 0.6275,0 -0.74,3.61875 c -0.0212,0.12375 -0.0425,0.25625 -0.0425,0.38 0,0.565 0.29875,1.04875 1.11125,1.04875 0.215,0 0.4,-0.0412 0.51375,-0.0825 l 0.11375,-0.58625 c -0.0725,0.0213 -0.19625,0.0525 -0.28875,0.0525 -0.40125,0 -0.53375,-0.22625 -0.53375,-0.535 0,-0.0825 0.01,-0.185 0.03,-0.2775 l 0.74,-3.61875 0.95625,0" id="path3245" style="fill:#0068ac;fill-opacity:1;fill-rule:nonzero;stroke:none"/>
			
			
      
			
			<path animation_id="103" d="m 907.95186,655.91565 c 0,-1.1825 -0.6375,-1.77875 -1.68625,-1.77875 -0.8425,0 -1.6125,0.42125 -2.1475,1.22375 -0.4525,0.68875 -0.75,1.70625 -0.75,2.53875 0,1.35625 0.80125,1.98375 2.00375,1.98375 0.70875,0 1.33625,-0.185 1.71625,-0.39125 l -0.1125,-0.59625 c -0.30875,0.155 -0.8325,0.34 -1.44,0.34 -1.2025,0 -1.4075,-0.905 -1.28375,-1.87125 l 3.5875,-0.50375 c 0.0825,-0.34875 0.1125,-0.6575 0.1125,-0.945 z m -0.8125,-0.12375 c 0,0.195 -0.03,0.41125 -0.0813,0.66875 l -2.745,0.41 c 0.0925,-0.4725 0.23625,-0.8625 0.41125,-1.18125 0.38,-0.6575 0.90375,-0.97625 1.44875,-0.97625 0.6075,0 0.96625,0.32875 0.96625,1.07875" id="path3247" style="fill:#0068ac;fill-opacity:1;fill-rule:nonzero;stroke:none"/>
			
			
      
			
			<path animation_id="104" d="m 912.00186,654.15815 c -0.13375,-0.0113 -0.24625,-0.0213 -0.39125,-0.0213 -0.89375,0 -1.62375,0.175 -2.06625,0.39125 l -1.08875,5.2525 0.90375,0 1.0075,-4.8625 c 0.2775,-0.16375 0.77125,-0.185 1.285,-0.0712" id="path3249" style="fill:#0068ac;fill-opacity:1;fill-rule:nonzero;stroke:none"/>
			
			
      
			
			<path animation_id="105" d="m 916.66811,655.4319 c 0,-0.71875 -0.4725,-1.295 -1.7375,-1.295 -0.8125,0 -1.52125,0.155 -2.04625,0.39125 l -1.08875,5.2525 0.90375,0 1.0175,-4.8725 c 0.30875,-0.11375 0.66875,-0.185 1.07,-0.185 0.71875,0 0.97625,0.33875 0.97625,0.75 0,0.1025 -0.01,0.20625 -0.0312,0.31875 l -0.8325,3.98875 0.905,0 0.8225,-3.9375 c 0.03,-0.13375 0.0412,-0.2775 0.0412,-0.41125" id="path3251" style="fill:#0068ac;fill-opacity:1;fill-rule:nonzero;stroke:none"/>
			
			
      
			
			<path animation_id="106" d="m 922.16686,655.91565 c 0,-1.1825 -0.6375,-1.77875 -1.68625,-1.77875 -0.8425,0 -1.6125,0.42125 -2.1475,1.22375 -0.4525,0.68875 -0.75,1.70625 -0.75,2.53875 0,1.35625 0.80125,1.98375 2.005,1.98375 0.7075,0 1.335,-0.185 1.715,-0.39125 l -0.1125,-0.59625 c -0.3075,0.155 -0.8325,0.34 -1.43875,0.34 -1.2025,0 -1.40875,-0.905 -1.285,-1.87125 l 3.5875,-0.50375 c 0.0825,-0.34875 0.1125,-0.6575 0.1125,-0.945 z m -0.81125,-0.12375 c 0,0.195 -0.0312,0.41125 -0.0825,0.66875 l -2.745,0.41 c 0.0925,-0.4725 0.2375,-0.8625 0.41125,-1.18125 0.38125,-0.6575 0.905,-0.97625 1.44875,-0.97625 0.6075,0 0.9675,0.32875 0.9675,1.07875" id="path3253" style="fill:#0068ac;fill-opacity:1;fill-rule:nonzero;stroke:none"/>
			
			
      
			
			<path animation_id="107" d="m 927.53311,655.4319 c 0,-0.79125 -0.50375,-1.295 -1.50125,-1.295 -0.4825,0 -1.0275,0.175 -1.3575,0.36 l 0.57625,-2.785 -0.90375,0 -1.67625,8.06875 0.905,0 0.99625,-4.76 c 0.38,-0.195 0.74,-0.3075 1.15125,-0.3075 0.68875,0 0.905,0.37 0.905,0.80125 0,0.1025 -0.01,0.195 -0.0312,0.29875 l -0.8225,3.9675 0.905,0 0.8125,-3.91625 c 0.0312,-0.155 0.0413,-0.29875 0.0413,-0.4325" id="path3255" style="fill:#0068ac;fill-opacity:1;fill-rule:nonzero;stroke:none"/>
			
			
      
			
			<path animation_id="108" d="m 936.13561,655.4119 c 0,-0.71 -0.4,-1.275 -1.50125,-1.275 -0.77,0 -1.47,0.31875 -1.86,0.66875 -0.24625,-0.39125 -0.73,-0.66875 -1.52125,-0.66875 -0.8025,0 -1.47,0.155 -2.005,0.39125 l -1.08875,5.2525 0.90375,0 1.0175,-4.8725 c 0.32,-0.12375 0.6375,-0.185 1.02875,-0.185 0.70875,0 1.0175,0.2875 1.0175,0.76 0,0.0825 0,0.175 -0.02,0.2675 l -0.84375,4.03 0.905,0 0.935,-4.5225 c 0.29875,-0.30875 0.78125,-0.535 1.24375,-0.535 0.66875,0 0.88375,0.32875 0.88375,0.74 0,0.1025 -0.01,0.21625 -0.03,0.32875 l -0.83375,3.98875 0.905,0 0.8225,-3.98875 c 0.0213,-0.12375 0.0413,-0.25625 0.0413,-0.38" id="path3257" style="fill:#0068ac;fill-opacity:1;fill-rule:nonzero;stroke:none"/>
			
			
      
			
			<path animation_id="109" d="m 941.63561,655.91565 c 0,-1.1825 -0.6375,-1.77875 -1.68625,-1.77875 -0.8425,0 -1.61375,0.42125 -2.1475,1.22375 -0.4525,0.68875 -0.75125,1.70625 -0.75125,2.53875 0,1.35625 0.80125,1.98375 2.005,1.98375 0.70875,0 1.335,-0.185 1.71625,-0.39125 l -0.11375,-0.59625 c -0.3075,0.155 -0.8325,0.34 -1.43875,0.34 -1.2025,0 -1.4075,-0.905 -1.285,-1.87125 l 3.5875,-0.50375 c 0.0825,-0.34875 0.11375,-0.6575 0.11375,-0.945 z m -0.8125,-0.12375 c 0,0.195 -0.0312,0.41125 -0.0825,0.66875 l -2.74375,0.41 c 0.0925,-0.4725 0.23625,-0.8625 0.41,-1.18125 0.38125,-0.6575 0.905,-0.97625 1.45,-0.97625 0.60625,0 0.96625,0.32875 0.96625,1.07875" id="path3259" style="fill:#0068ac;fill-opacity:1;fill-rule:nonzero;stroke:none"/>
			
			
      
			
			<path animation_id="110" d="m 947.01061,655.4319 c 0,-0.71875 -0.4725,-1.295 -1.73625,-1.295 -0.8125,0 -1.5225,0.155 -2.04625,0.39125 l -1.09,5.2525 0.905,0 1.0175,-4.8725 c 0.30875,-0.11375 0.66875,-0.185 1.06875,-0.185 0.72,0 0.9775,0.33875 0.9775,0.75 0,0.1025 -0.0113,0.20625 -0.0325,0.31875 l -0.8325,3.98875 0.905,0 0.8225,-3.9375 c 0.0312,-0.13375 0.0413,-0.2775 0.0413,-0.41125" id="path3261" style="fill:#0068ac;fill-opacity:1;fill-rule:nonzero;stroke:none"/>
			
			
      
			
			<path animation_id="111" d="m 951.47061,654.52815 c -0.2875,-0.23625 -0.6875,-0.39125 -1.2325,-0.39125 -1.2025,0 -1.97375,0.88375 -1.97375,1.78875 0,1.3775 1.71625,1.04875 1.71625,2.09625 0,0.6175 -0.52375,1.20375 -1.27375,1.20375 -0.49375,0 -0.85375,-0.155 -1.02875,-0.29875 l -0.34875,0.565 c 0.2875,0.22625 0.81125,0.39125 1.35625,0.39125 1.3875,0 2.23,-0.95625 2.23,-1.97375 0,-1.3875 -1.7775,-1.06875 -1.7775,-2.09625 0,-0.56625 0.4825,-1.07 1.14125,-1.07 0.37,0 0.69875,0.12375 0.87375,0.2775" id="path3263" style="fill:#0068ac;fill-opacity:1;fill-rule:nonzero;stroke:none"/>
			
			
      
			
			<path animation_id="112" d="m 956.84686,654.5169 c -0.27625,-0.185 -0.88375,-0.38 -1.5925,-0.38 -1.0275,0 -1.83,0.4625 -2.375,1.22375 -0.4925,0.68875 -0.8225,1.73625 -0.8225,2.59 0,1.1825 0.65875,1.90125 1.7475,1.90125 0.47375,0 0.86375,-0.1025 1.12125,-0.23625 l -0.0925,0.38 c -0.195,0.79125 -0.69875,1.43875 -1.68625,1.43875 -0.51375,0 -1.0075,-0.1325 -1.26375,-0.2875 l -0.37,0.555 c 0.37,0.22625 1.00625,0.39125 1.665,0.39125 1.34625,0 2.27125,-0.8025 2.56,-2.2 l 1.10875,-5.37625 z m -0.935,0.30875 -0.88375,4.255 c -0.23625,0.13375 -0.58625,0.22625 -0.935,0.22625 -0.8125,0 -1.15125,-0.45125 -1.15125,-1.26375 0,-0.72 0.24625,-1.68625 0.60625,-2.3025 0.39,-0.66875 0.935,-1.05875 1.62375,-1.05875 0.39125,0 0.61625,0.0725 0.74,0.14375" id="path3265" style="fill:#0068ac;fill-opacity:1;fill-rule:nonzero;stroke:none"/>
			
			
      
			
			<path animation_id="113" d="m 960.78436,654.15815 c -0.13375,-0.0113 -0.24625,-0.0213 -0.39125,-0.0213 -0.89375,0 -1.62375,0.175 -2.06625,0.39125 l -1.08875,5.2525 0.90375,0 1.0075,-4.8625 c 0.2775,-0.16375 0.77125,-0.185 1.285,-0.0712" id="path3267" style="fill:#0068ac;fill-opacity:1;fill-rule:nonzero;stroke:none"/>
			
			
      
			
			<path animation_id="114" d="m 965.64561,654.2394 -0.905,0 -0.99625,4.83125 c -0.2575,0.11375 -0.6075,0.175 -1.0175,0.175 -0.72,0 -0.935,-0.33875 -0.935,-0.77125 0,-0.1125 0.01,-0.25625 0.04,-0.38 l 0.8025,-3.855 -0.905,0 -0.79125,3.82375 c -0.0412,0.175 -0.0512,0.35 -0.0512,0.49375 0,0.8325 0.51375,1.32625 1.71625,1.32625 0.82125,0 1.54125,-0.165 1.9525,-0.39125" id="path3269" style="fill:#0068ac;fill-opacity:1;fill-rule:nonzero;stroke:none"/>
			
			
      
			
			<path animation_id="115" d="m 970.81686,656.10065 c 0,-1.21375 -0.68875,-1.96375 -1.97375,-1.96375 -0.74,0 -1.3575,0.175 -1.77875,0.39125 l -1.5525,7.4625 0.895,0 0.4725,-2.2625 c 0.185,0.0725 0.535,0.13375 0.85375,0.13375 0.945,0 1.72625,-0.43125 2.28125,-1.2125 0.48375,-0.67875 0.8025,-1.70625 0.8025,-2.54875 z m -0.885,-0.11375 c 0,0.72 -0.22625,1.665 -0.59625,2.2725 -0.4,0.6675 -0.98625,1.0375 -1.71625,1.0375 -0.2775,0 -0.49375,-0.0413 -0.62625,-0.1025 l 0.90375,-4.3375 c 0.23625,-0.1025 0.49375,-0.165 0.8325,-0.165 0.86375,0 1.2025,0.48375 1.2025,1.295" id="path3271" style="fill:#0068ac;fill-opacity:1;fill-rule:nonzero;stroke:none"/>
			
			
      
			
			<path animation_id="116" d="m 976.26436,656.10065 c 0,-1.21375 -0.68875,-1.96375 -1.97375,-1.96375 -0.74,0 -1.35625,0.175 -1.77875,0.39125 l -1.55125,7.4625 0.89375,0 0.4725,-2.2625 c 0.185,0.0725 0.535,0.13375 0.85375,0.13375 0.945,0 1.72625,-0.43125 2.2825,-1.2125 0.4825,-0.67875 0.80125,-1.70625 0.80125,-2.54875 z m -0.88375,-0.11375 c 0,0.72 -0.2275,1.665 -0.5975,2.2725 -0.4,0.6675 -0.98625,1.0375 -1.71625,1.0375 -0.2775,0 -0.4925,-0.0413 -0.62625,-0.1025 l 0.905,-4.3375 c 0.23625,-0.1025 0.4925,-0.165 0.8325,-0.165 0.8625,0 1.2025,0.48375 1.2025,1.295" id="path3273" style="fill:#0068ac;fill-opacity:1;fill-rule:nonzero;stroke:none"/>
			
			
      
			
			<path animation_id="117" d="m 981.74186,655.91565 c 0,-1.1825 -0.6375,-1.77875 -1.68625,-1.77875 -0.8425,0 -1.6125,0.42125 -2.1475,1.22375 -0.4525,0.68875 -0.75,1.70625 -0.75,2.53875 0,1.35625 0.80125,1.98375 2.00375,1.98375 0.70875,0 1.33625,-0.185 1.71625,-0.39125 l -0.1125,-0.59625 c -0.30875,0.155 -0.8325,0.34 -1.43875,0.34 -1.2025,0 -1.40875,-0.905 -1.285,-1.87125 l 3.5875,-0.50375 c 0.0825,-0.34875 0.1125,-0.6575 0.1125,-0.945 z m -0.81125,-0.12375 c 0,0.195 -0.0312,0.41125 -0.0825,0.66875 l -2.745,0.41 c 0.0925,-0.4725 0.2375,-0.8625 0.41125,-1.18125 0.38125,-0.6575 0.90375,-0.97625 1.44875,-0.97625 0.6075,0 0.9675,0.32875 0.9675,1.07875" id="path3275" style="fill:#0068ac;fill-opacity:1;fill-rule:nonzero;stroke:none"/>
			
			
      
			
			<path animation_id="118" d="m 827.47686,592.95815 c -1.20875,-0.8175 -3.02375,-1.4225 -5.5475,-1.4225 -6.43625,0 -9.175,4.94375 -9.175,8.49875 0,5.335 6.08125,5.335 6.08125,8.64125 0,2.205 -1.7425,3.77 -4.125,3.77 -1.565,0 -2.88125,-0.4975 -3.52125,-0.96 l -2.0975,3.805 c 1.245,0.88875 3.3775,1.4225 6.25875,1.4225 7.21875,0 9.74375,-5.29875 9.74375,-8.855 0,-5.405 -6.57875,-5.36875 -6.57875,-8.7475 0,-1.81375 1.28,-3.6275 3.6625,-3.6275 1.49375,0 2.6675,0.4625 3.3775,0.925" id="path3277" style="fill:#0068ac;fill-opacity:1;fill-rule:nonzero;stroke:none"/>
			
			
      
			
			<path animation_id="119" d="m 840.20686,597.19065 -2.95125,0 1.17375,-5.5125 -5.8675,1.4225 -0.8175,4.09 -2.13375,0 -0.71125,3.59125 2.0625,0 -2.0625,10.17 c -0.1075,0.49875 -0.1775,0.99625 -0.1775,1.4575 0,2.3825 1.38625,4.2325 4.72875,4.2325 1.20875,0 2.3475,-0.285 2.845,-0.53375 l 0.67625,-3.44875 c -0.32125,0.1425 -0.7125,0.24875 -1.21,0.24875 -0.96,0 -1.4225,-0.53375 -1.4225,-1.35125 0,-0.24875 0.0362,-0.53375 0.1075,-0.8175 l 2.0625,-9.9575 2.95125,0" id="path3279" style="fill:#0068ac;fill-opacity:1;fill-rule:nonzero;stroke:none"/>
			
			
      
			
			<path animation_id="120" d="m 859.33811,598.2569 c -1.38625,-0.8175 -3.94625,-1.42125 -6.72,-1.42125 -4.08875,0 -7.07625,1.42125 -9.10375,3.875 -1.88375,2.31125 -3.0225,5.83125 -3.0225,8.855 0,4.445 2.845,7.1475 7.895,7.1475 3.30625,0 5.68875,-0.605 7.43125,-1.4225 l 3.52,-17.03375 z m -5.9725,2.09875 -2.56125,12.51625 c -0.42625,0.17875 -1.0675,0.32125 -1.84875,0.32125 -2.0625,0 -2.9875,-1.31625 -2.9875,-3.66375 0,-2.0975 0.67625,-4.835 1.67125,-6.64875 1.03125,-1.85 2.41875,-2.84625 4.08875,-2.84625 0.81875,0 1.3525,0.17875 1.6375,0.32125" id="path3281" style="fill:#0068ac;fill-opacity:1;fill-rule:nonzero;stroke:none"/>
			
			
      
			
			<path animation_id="121" d="m 881.88436,588.4419 -5.5475,0 -1.81375,8.82 c -0.605,-0.1775 -1.63625,-0.32125 -2.77375,-0.32125 -3.23625,0 -6.01,1.3875 -7.93,3.9475 -1.7425,2.27625 -2.845,5.76125 -2.845,8.64125 0,4.73 3.23625,7.18375 7.89375,7.18375 3.3075,0 5.69,-0.605 7.4325,-1.4225 l 5.58375,-26.84875 z m -7.96625,11.80625 -2.63125,12.62375 c -0.4275,0.21375 -1.0675,0.32125 -1.84875,0.32125 -2.09875,0 -2.9875,-1.31625 -2.9875,-3.66375 0,-2.0625 0.71125,-4.9075 1.7075,-6.685 0.995,-1.77875 2.3825,-2.81 4.3025,-2.81 0.56875,0 0.995,0.0725 1.4575,0.21375" id="path3283" style="fill:#0068ac;fill-opacity:1;fill-rule:nonzero;stroke:none"/>
			
			
      
			
			<path animation_id="122" d="m 894.01061,597.19065 -2.9525,0 1.17375,-5.5125 -5.8675,1.4225 -0.8175,4.09 -2.13375,0 -0.71125,3.59125 2.0625,0 -2.0625,10.17 c -0.1075,0.49875 -0.1775,0.99625 -0.1775,1.4575 0,2.3825 1.38625,4.2325 4.72875,4.2325 1.20875,0 2.3475,-0.285 2.845,-0.53375 l 0.67625,-3.44875 c -0.32125,0.1425 -0.71125,0.24875 -1.21,0.24875 -0.96,0 -1.42125,-0.53375 -1.42125,-1.35125 0,-0.24875 0.035,-0.53375 0.10625,-0.8175 l 2.0625,-9.9575 2.95125,0" id="path3285" style="fill:#0068ac;fill-opacity:1;fill-rule:nonzero;stroke:none"/>
			
			
      
			
			<path animation_id="123" d="m 923.27561,597.19065 -5.01375,0 -4.73,11.05875 c -0.5675,1.35125 -0.92375,2.81 -0.92375,2.81 l -0.0713,0 c 0,0 0.1775,-1.45875 0.10625,-2.845 l -0.46245,-11.02375 -4.55125,0 -5.1925,11.02375 c -0.74625,1.6 -1.03,2.845 -1.03,2.845 l -0.0713,0 c 0,0 0.2125,-1.245 0.2125,-2.845 l 0,-11.02375 -5.405,0 1.28,19.16625 5.08625,0 4.9775,-10.3825 c 0.605,-1.28 0.925,-2.6675 0.925,-2.6675 l 0.0713,0 c 0,0 -0.21375,1.3875 -0.1425,2.6675 l 0.56875,10.3825 5.1575,0" id="path3287" style="fill:#0068ac;fill-opacity:1;fill-rule:nonzero;stroke:none"/>
			
			
      
			
			<path animation_id="124" d="m 940.38061,603.5919 c 0,-4.26875 -2.3825,-6.75625 -6.61375,-6.75625 -3.485,0 -6.29375,1.635 -8.14375,4.23 -1.635,2.27625 -2.595,5.47625 -2.595,8.28625 0,4.6225 2.845,7.36125 7.68125,7.36125 2.845,0 5.33375,-0.64 6.8975,-1.4225 l -0.5325,-3.44875 c -1.0675,0.4975 -3.09375,1.1025 -5.12125,1.1025 -2.845,0 -3.84,-1.77875 -3.73375,-4.26875 l 11.7,-1.59875 c 0.32,-1.28125 0.46125,-2.41875 0.46125,-3.485 z m -4.90625,-0.57 c 0,0.605 -0.0713,1.245 -0.25,1.95625 l -6.93375,1.03125 c 0.21375,-1.1375 0.53375,-2.13375 0.925,-2.9525 0.92375,-1.88375 2.275,-2.98625 3.87625,-2.98625 1.52875,0 2.3825,1.03125 2.3825,2.95125" id="path3289" style="fill:#0068ac;fill-opacity:1;fill-rule:nonzero;stroke:none"/>
			
			
      
			
			<path animation_id="125" d="m 955.77936,596.94065 c -0.7475,-0.07 -1.35125,-0.105 -2.27625,-0.105 -3.45,0 -6.2225,0.5675 -8.21375,1.42125 l -3.77,18.1 5.5475,0 3.23625,-15.68125 c 0.92375,-0.39125 2.34625,-0.35625 3.6625,0.14125" id="path3291" style="fill:#0068ac;fill-opacity:1;fill-rule:nonzero;stroke:none"/>
			
			
      
			
			<path animation_id="126" d="m 975.08811,597.19065 -5.69,0 -7.11125,8.4275 -0.0713,0 3.55625,-17.17625 -5.47625,0 -5.7975,27.915 5.47625,0 1.99125,-9.6725 0.0725,0 3.62625,9.6725 6.11625,0 -4.69375,-10.3825" id="path3293" style="fill:#0068ac;fill-opacity:1;fill-rule:nonzero;stroke:none"/>
			
			
      
			
			<path animation_id="127" d="m 991.76561,603.5919 c 0,-4.26875 -2.3825,-6.75625 -6.615,-6.75625 -3.48375,0 -6.29375,1.635 -8.1425,4.23 -1.63625,2.27625 -2.59625,5.47625 -2.59625,8.28625 0,4.6225 2.845,7.36125 7.68125,7.36125 2.845,0 5.33375,-0.64 6.89875,-1.4225 l -0.53375,-3.44875 c -1.06625,0.4975 -3.09375,1.1025 -5.12,1.1025 -2.845,0 -3.84125,-1.77875 -3.73375,-4.26875 l 11.69875,-1.59875 c 0.32,-1.28125 0.4625,-2.41875 0.4625,-3.485 z m -4.9075,-0.57 c 0,0.605 -0.0712,1.245 -0.24875,1.95625 l -6.93375,1.03125 c 0.2125,-1.1375 0.5325,-2.13375 0.92375,-2.9525 0.925,-1.88375 2.27625,-2.98625 3.87625,-2.98625 1.52875,0 2.3825,1.03125 2.3825,2.95125" id="path3295" style="fill:#0068ac;fill-opacity:1;fill-rule:nonzero;stroke:none"/>
			
			
      
			
			<path animation_id="128" d="m 824.79561,624.08815 -5.47125,0 -1.9925,9.5925 -5.87625,0 1.9925,-9.5925 -5.505,0 -4.79625,23.23625 5.505,0 2.06,-10.06375 5.8775,0 -2.06125,10.06375 5.4725,0" id="path3297" style="fill:#0068ac;fill-opacity:1;fill-rule:nonzero;stroke:none"/>
			
			
      
			
			<path animation_id="129" d="m 841.81811,635.20065 c 0,-4.05375 -2.2625,-6.4175 -6.28125,-6.4175 -3.31,0 -5.97875,1.55375 -7.735,4.01875 -1.55375,2.16125 -2.465,5.20125 -2.465,7.86875 0,4.39125 2.70125,6.9925 7.295,6.9925 2.70125,0 5.06625,-0.60875 6.5525,-1.35125 l -0.5075,-3.27625 c -1.0125,0.4725 -2.9375,1.0475 -4.8625,1.0475 -2.7025,0 -3.64875,-1.68875 -3.5475,-4.05375 l 11.1125,-1.52 c 0.30375,-1.215 0.43875,-2.29625 0.43875,-3.30875 z m -4.66,-0.54125 c 0,0.57375 -0.0687,1.1825 -0.2375,1.8575 l -6.585,0.98 c 0.2025,-1.08125 0.50625,-2.02625 0.8775,-2.80375 0.87875,-1.79 2.16125,-2.83625 3.68125,-2.83625 1.4525,0 2.26375,0.97875 2.26375,2.8025" id="path3299" style="fill:#0068ac;fill-opacity:1;fill-rule:nonzero;stroke:none"/>
			
			
      
			
			<path animation_id="130" d="m 851.98311,629.12065 -5.23375,0 -3.78375,18.20375 5.26875,0 3.74875,-18.20375 z m 1.28375,-5.67375 c 0,-1.14875 -0.945,-2.02625 -2.33,-2.02625 -1.75625,0 -3.34375,1.38375 -3.34375,2.9375 0,1.14875 0.94625,2.06125 2.33,2.06125 1.7225,0 3.34375,-1.385 3.34375,-2.9725" id="path3301" style="fill:#0068ac;fill-opacity:1;fill-rule:nonzero;stroke:none"/>
			
			
      
			
			<path animation_id="131" d="m 873.22811,620.8119 -5.26875,0 -1.7225,8.37625 c -0.575,-0.16875 -1.55375,-0.30375 -2.635,-0.30375 -3.0725,0 -5.7075,1.3175 -7.53125,3.74875 -1.655,2.16125 -2.70125,5.47125 -2.70125,8.2075 0,4.49125 3.07375,6.8225 7.4975,6.8225 3.14125,0 5.40375,-0.575 7.05875,-1.35125 l 5.3025,-25.5 z m -7.56625,11.21375 -2.49875,11.99 c -0.405,0.20125 -1.0125,0.3025 -1.75625,0.3025 -1.9925,0 -2.83625,-1.24875 -2.83625,-3.4775 0,-1.96 0.675,-4.66125 1.62125,-6.35 0.945,-1.68875 2.2625,-2.6675 4.08625,-2.6675 0.54,0 0.94625,0.0662 1.38375,0.2025" id="path3303" style="fill:#0068ac;fill-opacity:1;fill-rule:nonzero;stroke:none"/>
			
			
      
			
			<path animation_id="132" d="m 889.33811,635.20065 c 0,-4.05375 -2.26375,-6.4175 -6.2825,-6.4175 -3.30875,0 -5.9775,1.55375 -7.73375,4.01875 -1.55375,2.16125 -2.46625,5.20125 -2.46625,7.86875 0,4.39125 2.7025,6.9925 7.29625,6.9925 2.70125,0 5.065,-0.60875 6.55125,-1.35125 l -0.50625,-3.27625 c -1.0125,0.4725 -2.93875,1.0475 -4.8625,1.0475 -2.7025,0 -3.64875,-1.68875 -3.5475,-4.05375 l 11.1125,-1.52 c 0.30375,-1.215 0.43875,-2.29625 0.43875,-3.30875 z m -4.66125,-0.54125 c 0,0.57375 -0.0675,1.1825 -0.23625,1.8575 l -6.585,0.98 c 0.2025,-1.08125 0.50625,-2.02625 0.8775,-2.80375 0.8775,-1.79 2.16125,-2.83625 3.68125,-2.83625 1.4525,0 2.2625,0.97875 2.2625,2.8025" id="path3305" style="fill:#0068ac;fill-opacity:1;fill-rule:nonzero;stroke:none"/>
			
			
      
			
			<path animation_id="133" d="m 908.69061,633.37565 c 0,-2.735 -1.95875,-4.5925 -6.85625,-4.5925 -3.1075,0 -5.87625,0.54 -7.835,1.35125 l -3.58,17.19 5.26875,0 3.10625,-14.89375 c 0.6425,-0.2025 1.4525,-0.3725 2.2975,-0.3725 1.655,0 2.29625,0.7775 2.29625,1.79125 0,0.23625 -0.0338,0.4725 -0.10125,0.7425 l -2.60125,12.7325 5.235,0 2.60125,-12.49625 c 0.10125,-0.50625 0.16875,-0.97875 0.16875,-1.4525" id="path3307" style="fill:#0068ac;fill-opacity:1;fill-rule:nonzero;stroke:none"/>
			
			
      
			
			<path animation_id="134" d="m 928.31311,633.2069 c 0,-2.63375 -1.68875,-4.42375 -5.20125,-4.42375 -1.55375,0 -3.1075,0.4725 -4.15375,0.945 l 1.8575,-8.91625 -5.27,0 -5.50375,26.5125 5.26875,0 3.0725,-14.75875 c 0.7775,-0.37125 1.52,-0.57375 2.365,-0.57375 1.655,0 2.22875,0.84375 2.22875,1.89125 0,0.23625 -0.0675,0.4725 -0.10125,0.70875 l -2.635,12.7325 5.26875,0 2.635,-12.63125 c 0.10125,-0.50625 0.16875,-1.0125 0.16875,-1.48625" id="path3309" style="fill:#0068ac;fill-opacity:1;fill-rule:nonzero;stroke:none"/>
			
			
      
			
			<path animation_id="135" d="m 947.19186,635.20065 c 0,-4.05375 -2.2625,-6.4175 -6.28125,-6.4175 -3.31,0 -5.97875,1.55375 -7.735,4.01875 -1.55375,2.16125 -2.465,5.20125 -2.465,7.86875 0,4.39125 2.70125,6.9925 7.295,6.9925 2.70125,0 5.06625,-0.60875 6.5525,-1.35125 l -0.5075,-3.27625 c -1.0125,0.4725 -2.9375,1.0475 -4.8625,1.0475 -2.7025,0 -3.64875,-1.68875 -3.5475,-4.05375 l 11.1125,-1.52 c 0.30375,-1.215 0.43875,-2.29625 0.43875,-3.30875 z m -4.66,-0.54125 c 0,0.57375 -0.0687,1.1825 -0.2375,1.8575 l -6.585,0.98 c 0.2025,-1.08125 0.50625,-2.02625 0.8775,-2.80375 0.87875,-1.79 2.16125,-2.83625 3.6825,-2.83625 1.45125,0 2.2625,0.97875 2.2625,2.8025" id="path3311" style="fill:#0068ac;fill-opacity:1;fill-rule:nonzero;stroke:none"/>
			
			
      
			
			<path animation_id="136" d="m 957.35811,629.12065 -5.235,0 -3.7825,18.20375 5.26875,0 3.74875,-18.20375 z m 1.28375,-5.67375 c 0,-1.14875 -0.945,-2.02625 -2.33,-2.02625 -1.7575,0 -3.345,1.38375 -3.345,2.9375 0,1.14875 0.94625,2.06125 2.33125,2.06125 1.7225,0 3.34375,-1.385 3.34375,-2.9725" id="path3313" style="fill:#0068ac;fill-opacity:1;fill-rule:nonzero;stroke:none"/>
			
			
      
			
			<path animation_id="137" d="m 986.20061,633.37565 c 0,-2.70125 -1.82375,-4.5925 -5.505,-4.5925 -3.00625,0 -5.3025,0.8775 -6.5175,1.82375 -0.845,-1.01375 -2.80375,-1.82375 -5.2025,-1.82375 -3.03875,0 -5.505,0.4725 -7.66625,1.35125 l -3.58,17.19 5.26875,0 3.07375,-14.89375 c 0.675,-0.23625 1.385,-0.3725 2.22875,-0.3725 1.5875,0 2.39875,0.67625 2.39875,1.79125 0,0.2025 -0.035,0.405 -0.0687,0.64125 l -2.6675,12.83375 5.26875,0 2.9725,-14.32 c 0.64125,-0.54 1.5875,-0.94625 2.5325,-0.94625 1.55375,0 2.195,0.74375 2.195,1.79125 0,0.23625 -0.0337,0.43875 -0.0675,0.675 l -2.6675,12.8 5.26875,0 2.6,-12.63125 c 0.10125,-0.43875 0.135,-0.8775 0.135,-1.3175" id="path3315" style="fill:#0068ac;fill-opacity:1;fill-rule:nonzero;stroke:none"/>
			
			
    
		
		</g>
		
		
  
	
	</g>
	
	


</svg>
