<?xml version="1.0" encoding="iso-8859-1"?>
<!DOCTYPE svg
  PUBLIC '-//W3C//DTD SVG 1.1//EN'
  'http://www.w3.org/Graphics/SVG/1.1/DTD/svg11.dtd'>
<svg height="208pt" version="1.1" viewBox="-150.0 -52.0 900.0 312.0" width="600pt" xmlns="http://www.w3.org/2000/svg">
	
	

	
	<path animation_id="0" d=" M 0.00 0.00 L 600.00 0.00 L 600.00 208.00 L 0.00 208.00 L 0.00 0.00 Z" fill="#ffffff"/>
	
	

	
	<path animation_id="1" d=" M 178.48 13.77 C 191.21 13.01 204.50 15.68 215.16 22.93 C 221.87 27.03 227.17 32.99 231.54 39.43 C 239.78 52.61 241.53 68.98 238.84 84.07 C 236.17 99.13 226.62 112.63 213.58 120.54 C 200.41 128.75 184.01 130.44 168.96 127.65 C 151.76 124.59 136.66 112.47 129.42 96.63 C 123.44 83.24 123.06 67.77 126.95 53.74 C 131.31 38.30 142.93 25.30 157.44 18.64 C 164.06 15.64 171.29 14.35 178.48 13.77 Z" fill="#087c58"/>
	
	

	
	<path animation_id="2" d=" M 14.59 16.22 C 32.65 16.15 50.70 16.23 68.76 16.18 C 68.77 17.46 68.78 18.75 68.79 20.04 C 64.82 20.75 60.59 20.34 56.83 21.94 C 53.97 24.39 54.65 28.81 55.99 31.92 C 64.41 51.63 72.63 71.42 81.07 91.12 C 88.62 72.16 96.06 53.15 103.39 34.11 C 104.85 30.55 105.06 26.63 104.16 22.90 C 100.11 20.90 95.56 20.63 91.15 20.09 C 91.18 18.78 91.20 17.48 91.23 16.18 C 102.71 16.15 114.19 16.24 125.67 16.20 C 125.66 17.46 125.65 18.71 125.64 19.97 C 122.08 20.87 118.13 21.67 115.68 24.67 C 113.40 27.66 111.89 31.15 110.48 34.61 C 100.26 59.85 90.72 85.35 80.52 110.59 C 77.93 116.65 75.66 122.84 73.30 128.99 C 71.80 128.93 70.31 128.86 68.82 128.79 C 59.45 105.02 48.47 81.91 39.02 58.16 C 36.45 51.99 33.77 45.88 31.18 39.72 C 28.87 34.52 27.03 29.02 23.70 24.35 C 21.49 21.43 17.72 20.70 14.38 19.89 C 14.44 18.67 14.51 17.44 14.59 16.22 Z" fill="#087c58"/>
	
	

	
	<path animation_id="3" d=" M 249.35 16.18 C 268.20 16.19 287.05 16.18 305.90 16.21 C 306.08 17.49 306.27 18.76 306.46 20.04 C 301.96 20.82 296.90 20.33 292.98 23.01 C 289.30 26.58 289.66 32.22 289.52 36.96 C 289.52 62.32 289.31 87.68 289.46 113.04 C 289.24 116.35 291.44 119.60 294.90 119.90 C 306.35 121.45 318.84 120.27 328.63 113.62 C 336.76 107.80 341.22 98.35 344.73 89.27 C 346.40 89.21 348.06 89.17 349.74 89.14 C 347.43 101.33 345.10 113.52 343.09 125.77 C 311.69 125.62 280.28 125.98 248.87 125.74 C 248.94 124.33 249.01 122.91 249.09 121.50 C 252.97 121.35 257.25 121.19 260.38 118.57 C 262.92 116.11 263.26 112.31 263.28 108.96 C 263.31 82.99 263.39 57.02 263.42 31.04 C 263.54 28.04 262.60 24.86 260.21 22.90 C 257.10 20.47 252.97 20.72 249.27 20.18 C 249.29 18.85 249.32 17.51 249.35 16.18 Z" fill="#087c58"/>
	
	

	
	<path animation_id="4" d=" M 357.18 16.22 C 375.60 16.22 394.01 16.08 412.43 16.25 C 412.47 17.55 412.51 18.84 412.55 20.14 C 408.67 20.70 404.58 21.05 401.19 23.20 C 399.04 25.17 398.52 28.23 398.39 31.00 C 397.50 43.71 398.02 56.45 397.83 69.17 C 400.60 67.59 402.69 65.14 404.94 62.93 C 414.66 53.31 424.23 43.55 433.87 33.85 C 435.91 31.52 438.59 29.30 439.01 26.03 C 439.29 24.37 438.40 22.59 436.84 21.93 C 433.10 20.59 429.07 20.61 425.17 20.22 C 425.19 18.88 425.21 17.55 425.24 16.22 C 440.94 16.23 456.63 16.18 472.32 16.23 C 472.38 17.52 472.44 18.80 472.50 20.09 C 463.59 20.90 454.61 23.85 447.99 30.07 C 438.94 37.60 430.83 46.16 422.39 54.36 C 421.13 55.40 419.39 57.18 421.13 58.69 C 435.98 77.23 450.88 95.73 465.77 114.24 C 467.44 116.20 468.92 118.35 470.88 120.04 C 472.71 121.58 475.39 120.87 477.38 122.05 C 477.37 123.25 477.33 124.45 477.24 125.65 C 458.94 125.71 440.63 125.81 422.33 125.77 C 422.41 124.39 422.46 123.01 422.67 121.64 C 426.90 121.17 431.29 121.75 435.36 120.12 C 435.49 115.70 432.26 112.49 429.76 109.24 C 420.44 97.81 411.77 85.83 402.00 74.80 C 400.31 75.77 399.02 77.25 397.71 78.65 C 397.88 89.09 397.64 99.52 397.72 109.96 C 397.93 113.35 398.42 117.60 401.80 119.38 C 404.83 121.28 408.46 121.39 411.93 121.54 C 411.94 122.93 411.96 124.33 411.98 125.73 C 393.65 125.60 375.33 125.84 357.00 125.78 C 357.00 124.39 356.99 123.01 357.00 121.63 C 360.71 121.35 364.74 121.29 367.86 118.96 C 370.85 116.20 371.01 111.78 371.21 107.99 C 371.19 82.66 371.22 57.32 371.31 31.99 C 371.35 28.96 370.89 25.58 368.53 23.43 C 365.58 20.47 361.04 20.72 357.18 20.39 C 357.18 19.00 357.18 17.61 357.18 16.22 Z" fill="#087c58"/>
	
	

	
	<path animation_id="5" d=" M 486.01 16.20 C 517.22 16.34 548.42 16.03 579.62 16.23 C 579.56 27.02 579.56 37.80 579.54 48.59 C 578.13 48.69 576.74 48.77 575.35 48.86 C 573.84 41.18 571.39 33.04 565.38 27.63 C 558.75 22.64 550.04 21.92 542.02 21.63 C 537.53 21.52 532.98 21.42 528.61 22.67 C 527.68 24.34 526.49 26.01 526.62 28.03 C 526.52 41.07 526.48 54.12 526.58 67.17 C 532.44 66.36 538.95 66.74 543.96 63.03 C 549.86 58.18 551.29 50.19 553.08 43.17 C 554.31 43.14 555.56 43.10 556.81 43.07 C 556.85 61.25 556.74 79.44 556.75 97.62 C 555.46 97.64 554.18 97.65 552.91 97.67 C 551.65 90.66 550.36 83.03 545.29 77.64 C 540.09 73.28 533.01 72.49 526.48 72.40 C 526.48 85.94 526.50 99.48 526.31 113.01 C 526.33 115.72 527.65 118.89 530.54 119.57 C 535.89 121.03 541.55 120.39 547.03 120.19 C 554.36 119.28 561.90 117.45 567.84 112.82 C 574.57 107.49 579.12 99.96 582.62 92.23 C 584.06 92.24 585.51 92.25 586.97 92.27 C 585.18 103.48 582.55 114.54 580.58 125.72 C 548.83 125.64 517.07 125.79 485.31 125.75 C 485.33 124.34 485.36 122.93 485.39 121.52 C 489.52 121.35 494.07 121.21 497.40 118.41 C 499.52 115.79 500.14 112.28 500.16 109.00 C 500.19 83.01 500.33 57.01 500.26 31.02 C 500.35 27.12 498.22 22.63 494.21 21.54 C 491.40 20.64 488.46 20.36 485.56 19.94 C 485.71 18.69 485.86 17.45 486.01 16.20 Z" fill="#087c58"/>
	
	

	
	<path animation_id="6" d=" M 176.49 19.84 C 183.49 18.40 191.37 19.33 196.91 24.18 C 204.61 30.93 207.95 41.10 209.56 50.91 C 211.76 64.80 211.56 79.03 209.39 92.91 C 207.83 101.74 205.01 110.93 198.46 117.38 C 189.94 125.30 175.75 125.42 166.73 118.29 C 161.59 113.89 158.63 107.55 156.64 101.20 C 153.14 88.44 153.21 75.08 153.66 61.96 C 154.47 50.33 156.25 38.07 163.44 28.51 C 166.59 24.16 171.31 21.13 176.49 19.84 Z" fill="#ffffff"/>
	
	

	
	<path animation_id="7" d=" M 375.93 158.99 C 379.94 155.58 386.37 155.14 390.63 158.30 C 392.69 159.73 393.18 162.26 393.85 164.51 C 392.68 164.63 391.51 164.74 390.34 164.85 C 390.26 164.15 390.09 162.76 390.01 162.06 C 387.54 159.29 383.48 158.15 380.07 159.83 C 377.20 160.44 377.66 163.74 377.73 165.94 C 381.89 168.12 386.75 168.17 390.98 170.17 C 394.45 171.72 395.79 176.48 393.67 179.64 C 391.47 183.77 386.10 184.42 381.90 183.98 C 377.07 183.86 373.30 179.57 373.01 174.89 C 373.73 174.85 375.18 174.76 375.90 174.71 C 376.98 176.61 377.37 179.29 379.67 180.17 C 382.12 181.55 385.02 180.90 387.70 181.04 C 390.51 179.88 392.70 176.21 390.29 173.59 C 385.59 170.06 377.89 172.03 374.45 166.54 C 373.79 163.97 373.97 160.97 375.93 158.99 Z" fill="#282828"/>
	
	

	
	<path animation_id="8" d=" M 403.13 163.08 C 406.23 155.74 417.10 153.83 422.79 159.21 C 424.44 160.67 425.03 162.87 425.83 164.84 C 425.03 164.86 423.42 164.89 422.62 164.90 C 421.49 162.27 419.54 159.81 416.54 159.36 C 413.58 158.15 410.71 159.86 408.08 161.05 C 404.49 165.85 403.58 172.83 407.14 177.89 C 410.44 182.27 417.65 182.23 421.19 178.22 C 422.25 176.64 422.82 174.78 423.21 172.93 C 420.38 171.70 417.11 172.65 414.12 172.23 C 414.22 171.53 414.44 170.13 414.54 169.43 C 418.30 169.42 422.05 169.43 425.81 169.41 C 425.71 174.38 425.95 179.36 425.52 184.32 C 424.08 183.43 423.18 182.10 422.95 180.43 C 418.77 184.62 411.76 185.36 406.93 181.87 C 401.00 177.81 400.13 169.21 403.13 163.08 Z" fill="#282828"/>
	
	

	
	<path animation_id="9" d=" M 49.07 157.00 C 50.25 157.00 51.44 157.00 52.63 157.00 C 52.58 163.00 52.37 169.01 52.59 175.02 C 52.28 182.63 65.92 183.48 66.78 176.06 C 67.63 169.76 66.99 163.34 67.16 157.00 C 68.01 157.00 69.71 157.00 70.57 157.00 C 70.43 162.68 70.60 168.36 70.47 174.04 C 70.26 177.63 68.92 181.90 65.14 183.15 C 60.74 184.70 55.25 184.52 51.57 181.37 C 49.91 179.73 49.08 177.39 49.11 175.08 C 49.00 169.06 49.16 163.03 49.07 157.00 Z" fill="#282828"/>
	
	

	
	<path animation_id="10" d=" M 80.10 156.92 C 81.36 156.98 82.63 157.03 83.89 157.09 C 88.26 163.89 92.87 170.53 96.96 177.50 L 98.20 177.50 C 98.06 170.66 98.22 163.82 98.12 156.98 C 98.90 156.97 100.44 156.94 101.22 156.93 C 101.06 165.81 100.77 174.70 101.13 183.59 C 99.66 183.39 97.72 183.93 96.75 182.50 C 92.07 175.79 88.32 168.40 83.10 162.08 C 83.01 169.24 83.00 176.40 83.01 183.56 C 82.27 183.56 80.79 183.56 80.05 183.56 C 80.07 174.68 80.02 165.80 80.10 156.92 Z" fill="#282828"/>
	
	

	
	<path animation_id="11" d=" M 108.09 157.05 C 115.28 156.93 122.47 157.03 129.66 157.00 C 129.52 157.71 129.25 159.11 129.11 159.82 C 126.26 159.80 123.41 159.81 120.56 159.83 C 120.35 167.63 121.01 175.54 120.20 183.27 C 119.43 183.39 117.90 183.62 117.13 183.74 C 117.00 175.77 117.13 167.79 117.18 159.81 C 114.13 159.77 111.08 159.74 108.02 159.71 C 108.04 159.05 108.07 157.72 108.09 157.05 Z" fill="#282828"/>
	
	

	
	<path animation_id="12" d=" M 136.24 157.00 C 142.41 157.00 148.58 156.99 154.75 157.00 C 154.73 157.73 154.69 159.17 154.66 159.89 C 149.69 159.88 144.72 159.91 139.75 159.86 C 139.77 162.68 139.76 165.49 139.74 168.31 C 144.35 168.34 148.95 168.31 153.55 168.33 C 153.60 168.98 153.70 170.28 153.75 170.94 C 149.08 171.09 144.41 170.99 139.74 170.98 C 139.75 174.14 139.76 177.29 139.64 180.44 C 144.32 180.62 149.01 180.28 153.67 180.63 C 155.74 180.53 154.96 184.14 153.07 183.53 C 147.43 183.58 141.79 183.40 136.15 183.52 C 136.23 174.68 136.16 165.84 136.24 157.00 Z" fill="#282828"/>
	
	

	
	<path animation_id="13" d=" M 163.03 156.95 C 168.04 156.99 173.06 156.76 178.06 157.18 C 182.00 157.65 184.53 162.30 183.19 165.95 C 182.92 168.01 181.02 169.13 179.65 170.44 C 184.13 173.45 182.22 179.30 183.97 183.68 C 182.79 183.62 181.60 183.56 180.42 183.50 C 179.94 180.40 179.52 177.30 179.15 174.19 C 178.38 173.44 177.61 172.69 176.84 171.94 C 173.39 171.90 169.94 171.87 166.49 171.86 C 166.30 175.79 166.41 179.74 166.16 183.67 C 165.38 183.64 163.83 183.58 163.05 183.54 C 163.00 174.68 162.97 165.82 163.03 156.95 Z" fill="#282828"/>
	
	

	
	<path animation_id="14" d=" M 192.32 156.91 C 193.61 156.94 194.91 156.99 196.21 157.09 C 201.01 164.23 205.54 171.58 210.18 178.84 C 210.38 171.56 210.24 164.28 210.29 157.00 C 211.14 157.00 212.82 157.00 213.66 157.00 C 213.46 165.30 213.63 173.61 213.50 181.91 C 213.73 184.56 209.63 183.91 208.91 182.11 C 204.38 175.47 200.17 168.61 195.76 161.89 C 195.58 169.10 195.73 176.32 195.57 183.53 C 194.73 183.52 193.05 183.52 192.20 183.52 C 192.31 174.65 192.35 165.78 192.32 156.91 Z" fill="#282828"/>
	
	

	
	<path animation_id="15" d=" M 223.28 157.00 C 229.45 157.01 235.63 156.98 241.80 157.02 C 241.78 157.73 241.75 159.15 241.74 159.86 C 236.73 159.85 231.73 159.85 226.72 159.85 C 226.73 162.68 226.72 165.51 226.74 168.34 C 231.38 168.32 236.02 168.35 240.66 168.32 C 240.67 168.99 240.69 170.35 240.70 171.02 C 236.12 171.14 231.53 170.93 226.96 171.13 C 226.40 174.22 226.80 177.39 226.67 180.52 C 231.72 180.49 236.79 180.59 241.84 180.82 C 241.80 181.53 241.72 182.94 241.68 183.65 C 235.52 183.52 229.35 183.52 223.19 183.46 C 223.28 174.64 223.33 165.82 223.28 157.00 Z" fill="#282828"/>
	
	

	
	<path animation_id="16" d=" M 250.11 156.99 C 251.28 157.00 252.46 157.01 253.64 157.03 C 253.55 160.79 253.57 164.56 253.58 168.33 C 258.22 168.30 262.87 168.34 267.51 168.39 C 267.58 164.59 267.66 160.80 267.72 157.00 C 268.54 157.00 270.17 157.00 270.99 157.00 C 270.94 165.93 270.99 174.87 270.91 183.81 C 269.74 183.62 268.58 183.43 267.41 183.23 C 267.47 179.13 267.58 175.03 267.39 170.94 C 262.84 171.21 258.09 170.43 253.65 171.31 C 253.39 175.29 253.56 179.29 253.55 183.27 C 252.40 183.45 251.24 183.62 250.09 183.79 C 250.01 174.85 250.14 165.92 250.11 156.99 Z" fill="#282828"/>
	
	

	
	<path animation_id="17" d=" M 281.11 157.00 C 282.67 157.00 284.25 157.00 285.82 157.00 C 288.53 164.45 291.37 171.87 293.98 179.36 C 297.10 172.00 299.94 164.52 302.66 157.00 C 304.34 156.99 306.03 156.99 307.72 156.99 C 307.51 165.84 307.63 174.69 307.54 183.54 C 306.71 183.52 305.04 183.48 304.21 183.46 C 304.11 176.18 304.42 168.89 304.21 161.61 C 300.81 168.77 298.67 176.49 295.29 183.67 C 293.68 183.91 292.61 183.31 292.09 181.89 C 289.32 175.22 287.37 168.23 284.45 161.63 C 283.95 168.92 284.16 176.26 283.87 183.58 C 283.16 183.58 281.75 183.59 281.04 183.60 C 281.07 174.73 281.12 165.86 281.11 157.00 Z" fill="#282828"/>
	
	

	
	<path animation_id="18" d=" M 317.32 156.98 C 323.50 157.05 329.67 156.90 335.84 157.07 C 335.82 157.75 335.77 159.09 335.75 159.77 C 330.73 159.80 325.72 159.81 320.70 159.83 C 320.70 162.66 320.71 165.48 320.72 168.31 C 325.38 168.33 330.05 168.34 334.72 168.31 C 334.75 168.95 334.82 170.22 334.86 170.86 C 330.13 171.01 325.40 170.86 320.69 171.17 C 320.71 174.30 320.66 177.44 320.60 180.58 C 325.66 180.79 330.73 180.46 335.80 180.59 C 335.79 181.35 335.79 182.87 335.78 183.64 C 329.62 183.59 323.45 183.66 317.28 183.51 C 317.28 174.67 317.30 165.82 317.32 156.98 Z" fill="#282828"/>
	
	

	
	<path animation_id="19" d=" M 344.16 156.95 C 345.31 156.94 346.46 156.95 347.62 156.96 C 352.54 164.18 357.07 171.66 362.08 178.81 C 362.06 171.53 362.06 164.24 362.11 156.96 C 362.90 156.99 364.48 157.05 365.27 157.08 C 364.84 165.90 364.84 174.74 364.89 183.57 C 363.70 183.54 362.52 183.52 361.34 183.50 C 356.64 176.31 352.14 168.98 347.13 162.00 C 346.83 169.21 346.99 176.44 346.96 183.65 C 346.24 183.64 344.80 183.62 344.08 183.61 C 344.12 174.72 344.12 165.83 344.16 156.95 Z" fill="#282828"/>
	
	

	
	<path animation_id="20" d=" M 435.16 157.00 C 439.82 157.04 444.48 156.92 449.14 157.02 C 452.43 156.95 455.57 159.68 455.67 163.03 C 455.98 165.20 454.96 167.18 454.19 169.12 C 453.52 169.35 452.18 169.81 451.51 170.04 C 452.54 171.15 453.71 172.17 454.53 173.47 C 455.05 176.90 455.27 180.37 456.05 183.76 C 454.79 183.55 453.55 183.34 452.31 183.11 C 452.06 179.69 452.51 175.70 450.32 172.85 C 446.74 170.99 442.50 172.17 438.64 171.85 C 438.58 175.76 438.60 179.67 438.51 183.58 C 437.65 183.58 435.95 183.59 435.10 183.59 C 435.14 174.73 435.16 165.87 435.16 157.00 Z" fill="#282828"/>
	
	

	
	<path animation_id="21" d=" M 464.40 157.00 C 465.56 157.00 466.72 157.00 467.89 157.00 C 467.91 163.34 467.60 169.71 467.99 176.04 C 469.05 182.88 480.93 182.98 482.12 176.19 C 482.59 169.81 482.25 163.39 482.32 157.00 C 483.20 156.99 484.97 156.99 485.85 156.99 C 485.71 163.01 485.87 169.03 485.69 175.05 C 485.58 179.04 482.88 182.84 478.91 183.74 C 475.04 184.30 470.53 184.47 467.38 181.74 C 465.12 179.92 464.46 176.86 464.38 174.11 C 464.27 168.40 464.48 162.70 464.40 157.00 Z" fill="#282828"/>
	
	

	
	<path animation_id="22" d=" M 495.48 156.90 C 500.00 156.97 504.52 156.87 509.04 157.07 C 512.02 157.31 515.14 159.70 514.98 162.93 C 515.18 165.64 515.30 168.94 512.80 170.71 C 508.77 173.69 503.45 172.19 498.82 172.52 C 498.79 176.29 498.84 180.07 498.78 183.85 C 497.67 183.54 496.29 183.79 495.48 182.83 C 495.31 174.19 495.54 165.54 495.48 156.90 Z" fill="#282828"/>
	
	

	
	<path animation_id="23" d=" M 523.55 157.00 C 528.33 157.11 533.12 156.77 537.89 157.14 C 543.84 158.12 544.81 166.42 541.31 170.37 C 537.24 173.65 531.62 172.14 526.83 172.55 C 526.76 176.17 527.13 179.83 526.62 183.43 C 525.55 183.44 524.49 183.42 523.44 183.36 C 523.45 174.57 523.61 165.79 523.55 157.00 Z" fill="#282828"/>
	
	

	
	<path animation_id="24" d=" M 551.75 156.90 C 557.81 156.99 563.88 156.94 569.95 156.85 C 569.95 157.58 569.95 159.04 569.95 159.77 C 564.93 159.76 559.90 159.75 554.88 159.84 C 554.87 162.65 554.87 165.46 554.88 168.27 C 559.56 168.33 564.23 168.29 568.91 168.28 C 568.92 168.93 568.95 170.24 568.96 170.89 C 564.25 171.01 559.53 170.74 554.85 171.28 C 554.87 174.34 554.87 177.40 554.87 180.46 C 559.89 180.52 564.92 180.53 569.95 180.42 C 569.94 181.49 569.93 182.57 569.93 183.64 C 563.82 183.58 557.70 183.67 551.60 183.42 C 551.78 174.58 552.06 165.74 551.75 156.90 Z" fill="#282828"/>
	
	

	
	<path animation_id="25" d=" M 166.44 159.76 C 170.28 159.77 174.13 159.76 177.97 159.90 C 180.38 162.10 180.48 165.26 179.13 168.07 C 175.06 169.52 170.72 169.28 166.49 169.26 C 166.46 166.09 166.47 162.93 166.44 159.76 Z" fill="#ffffff"/>
	
	

	
	<path animation_id="26" d=" M 438.62 159.75 C 442.40 159.79 446.18 159.81 449.96 159.87 C 452.42 161.74 453.57 166.01 450.74 168.03 C 447.06 170.00 442.68 168.93 438.70 169.24 C 438.64 166.08 438.66 162.91 438.62 159.75 Z" fill="#ffffff"/>
	
	

	
	<path animation_id="27" d=" M 498.81 159.72 C 502.88 159.81 507.15 159.20 510.98 160.97 C 511.38 162.35 511.79 163.73 512.22 165.10 C 511.48 166.44 511.05 168.07 509.76 169.02 C 506.18 169.86 502.46 169.66 498.82 169.57 C 498.84 166.29 498.85 163.01 498.81 159.72 Z" fill="#ffffff"/>
	
	

	
	<path animation_id="28" d=" M 526.83 159.84 C 530.93 159.87 535.20 159.38 539.10 160.95 C 540.20 163.64 540.70 167.21 537.80 168.98 C 534.23 169.91 530.47 169.38 526.82 169.47 C 526.85 166.26 526.86 163.05 526.83 159.84 Z" fill="#ffffff"/>
	
	


</svg>
