<?xml version="1.0" encoding="iso-8859-1"?>
<!-- Created with Inkscape (http://www.inkscape.org/) -->
<svg height="185.85715" id="svg2642" version="1.0" viewBox="-183.6071475 -46.4642875 1101.642885 278.78572499999996" width="734.42859" xmlns="http://www.w3.org/2000/svg" xmlns:svg="http://www.w3.org/2000/svg">
	
	
  
	
	<defs id="defs2644">
		
		
    
		
		<clipPath id="clipPath115">
			
			
      
			
			<path animation_id="0" d="M 539.756,772.711 L 405.164,772.711 L 405.164,750.819 C 427.176,747.948 449.613,746.468 472.41,746.468 C 495.235,746.468 517.717,747.952 539.756,750.829 L 539.756,772.711" id="path117"/>
			
			
    
		
		</clipPath>
		
		
    
		
		<clipPath id="clipPath149">
			
			
      
			
			<path animation_id="1" d="M 0,842.04 L 594.96,842.04 L 594.96,0 L 0,0 L 0,842.04 z" id="path151"/>
			
			
    
		
		</clipPath>
		
		
    
		
		<clipPath id="clipPath143">
			
			
      
			
			<path animation_id="2" d="M 9,832 L 586,832 L 586,40 L 9,40 L 9,832 z" id="path145"/>
			
			
    
		
		</clipPath>
		
		
    
		
		<clipPath id="clipPath137">
			
			
      
			
			<path animation_id="3" d="M 396.13,775.99 L 549.66,775.99 L 549.66,734.19 L 396.13,734.19 L 396.13,775.99 z" id="path139"/>
			
			
    
		
		</clipPath>
		
		
  
	
	</defs>
	
	
  
	
	<g id="layer1" transform="translate(281.5,-379.43362)">
		
		
    
		
		<g id="g111" transform="matrix(5.022698,0,0,-5.022698,-2290.5434,4260.0644)">
			
			
      
			
			<g clip-path="url(#clipPath115)" id="g113">
				
				
        
				
				<path animation_id="4" d="M 416.264,752.311 L 416.196,752.311 L 412.435,770.709 L 407.014,770.709 L 412.978,746.246 L 418.941,746.246 L 423.685,764.881 L 423.752,764.881 L 428.157,746.246 L 433.985,746.246 L 440.22,770.709 L 435.205,770.709 L 431.274,752.311 L 431.207,752.311 L 426.937,770.709 L 421.008,770.709 L 416.264,752.311" id="path119" style="fill:#f15a22;fill-opacity:1;fill-rule:nonzero;stroke:none"/>
				
				
        
				
				<path animation_id="5" d="M 443.004,746.246 L 448.086,746.246 L 448.086,763.255 L 443.004,763.255 L 443.004,746.246 z M 442.835,766.338 L 448.256,766.338 L 448.256,770.709 L 442.835,770.709 L 442.835,766.338 z" id="path121" style="fill:#f15a22;fill-opacity:1;fill-rule:evenodd;stroke:none"/>
				
				
        
				
				<path animation_id="6" d="M 468.143,753.395 C 468.143,754.513 468.143,755.597 468.008,756.648 C 467.872,757.732 467.635,758.749 467.161,759.697 C 465.738,762.679 463.095,763.763 459.91,763.763 C 454.726,763.763 451.744,759.833 451.744,754.716 C 451.744,749.024 454.082,745.737 459.91,745.737 C 463.874,745.737 467.161,747.127 467.601,751.328 L 463.027,751.328 C 462.553,749.769 461.672,749.126 459.91,749.126 C 457.301,749.126 456.996,751.193 456.996,753.395 L 468.143,753.395 z M 456.996,756.783 C 457.064,758.647 457.572,760.375 459.91,760.375 C 462.383,760.375 462.892,758.647 462.892,756.783 L 456.996,756.783" id="path123" style="fill:#f15a22;fill-opacity:1;fill-rule:evenodd;stroke:none"/>
				
				
        
				
				<path animation_id="7" d="M 471.471,770.709 L 476.553,770.709 L 476.553,746.467 L 471.471,746.467 L 471.471,770.709 z" id="path125" style="fill:#f15a22;fill-opacity:1;fill-rule:nonzero;stroke:none"/>
				
				
        
				
				<path animation_id="8" d="M 490.443,754.242 C 490.443,752.243 490.342,749.126 487.529,749.126 C 486.106,749.126 485.056,750.142 485.056,751.565 C 485.056,754.31 488.681,754.276 490.443,754.242 z M 485.835,758.443 C 485.767,759.223 486.343,760.883 488.105,760.883 C 489.901,760.883 490.443,759.494 490.443,758.782 L 490.443,757.19 C 488.41,757.258 485.835,757.156 483.802,756.275 C 480.719,754.954 480.177,752.073 480.177,750.888 C 480.177,747.567 482.549,745.737 485.734,745.737 C 488.038,745.737 489.8,746.551 490.952,748.516 L 491.019,748.516 C 491.019,747.804 491.087,747.025 491.189,746.246 L 495.763,746.246 C 495.695,746.754 495.56,747.262 495.526,748.109 L 495.526,757.393 C 495.526,762.51 491.697,763.763 488.275,763.763 C 486.445,763.763 484.649,763.492 483.26,762.679 C 481.905,761.9 480.99,760.578 480.956,758.443 L 485.835,758.443" id="path127" style="fill:#f15a22;fill-opacity:1;fill-rule:evenodd;stroke:none"/>
				
				
        
				
				<path animation_id="9" d="M 505.054,763.255 L 500.005,763.255 L 500.005,746.246 L 505.088,746.246 L 505.088,756.478 C 505.155,758.952 506.545,760.375 508.137,760.375 C 510.644,760.375 511.153,758.308 511.187,756.478 L 511.187,746.246 L 516.269,746.246 L 516.269,757.325 C 516.269,757.901 516.201,758.986 515.93,760.036 C 515.32,762.51 512.034,763.763 510.339,763.763 C 507.764,763.763 506.172,762.747 505.122,761.188 L 505.054,761.29 L 505.054,763.255" id="path129" style="fill:#f15a22;fill-opacity:1;fill-rule:nonzero;stroke:none"/>
				
				
        
				
				<path animation_id="10" d="M 525.237,754.75 C 525.237,757.359 525.643,760.375 528.896,760.375 C 531.641,760.375 532.555,757.088 532.555,754.75 C 532.555,752.412 531.641,749.126 528.896,749.126 C 525.643,749.126 525.237,752.141 525.237,754.75 z M 532.555,761.29 L 532.488,761.29 C 531.539,762.713 529.709,763.763 527.947,763.763 C 522.661,763.763 519.985,759.324 519.985,754.75 C 519.985,750.379 522.323,745.737 527.304,745.737 C 529.506,745.737 531.403,746.652 532.521,748.651 L 532.589,748.651 C 532.589,747.838 532.657,747.059 532.725,746.246 L 537.807,746.246 C 537.74,747.364 537.638,748.516 537.638,749.634 L 537.638,770.709 L 532.555,770.709 L 532.555,761.29" id="path131" style="fill:#f15a22;fill-opacity:1;fill-rule:evenodd;stroke:none"/>
				
				
      
			
			</g>
			
			
    
		
		</g>
		
		
    
		
		<g id="g133" transform="matrix(5.022698,0,0,-5.022698,-2290.5434,4260.0644)">
			
			
      
			
			<g clip-path="url(#clipPath137)" id="g135">
				
				
        
				
				<g clip-path="url(#clipPath143)" id="g141">
					
					
          
					
					<g clip-path="url(#clipPath149)" id="g147">
						
						
            
						
						<path animation_id="11" d="M 402.2,738.61 C 425.173,741.744 448.617,743.363 472.452,743.363 C 496.339,743.363 519.847,741.737 542.87,738.59" id="path153" style="fill:none;stroke:#f15a22;stroke-width:0.949;stroke-linecap:butt;stroke-linejoin:miter;stroke-miterlimit:3.86400008;stroke-dasharray:none;stroke-opacity:1"/>
						
						
          
					
					</g>
					
					
        
				
				</g>
				
				
      
			
			</g>
			
			
    
		
		</g>
		
		
  
	
	</g>
	
	


</svg>
