<?xml version="1.0" encoding="iso-8859-1"?>
<!-- Generator: Adobe Illustrator 15.0.0, SVG Export Plug-In . SVG Version: 6.00 Build 0)  -->
<!DOCTYPE svg
  PUBLIC '-//W3C//DTD SVG 1.1//EN'
  'http://www.w3.org/Graphics/SVG/1.1/DTD/svg11.dtd'>
<svg enable-background="new 0 0 595.275 255.118" height="255.118px" version="1.1" viewBox="-148.81875 -63.7795 892.9124999999999 382.677" width="595.275px" x="0px" xml:space="preserve" xmlns="http://www.w3.org/2000/svg" xmlns:xlink="http://www.w3.org/1999/xlink" y="0px">
	
	
	

	
	
	<g id="Hintergrund">
</g>
	
	
	

	
	
	<g id="Hilfslinien_anzeigen">
</g>
	
	
	

	
	
	<g id="Vordergrund">
		
		
		
	
		
		
		<g>
			
			
			
		
			
			
			<path animation_id="0" clip-rule="evenodd" d="M512.188,36.792l-2.011,1.508h-2.011    c0.459-3.675-2.135-12.304-4.021-15.581c-1.5,2.284-1.314,8.471-0.502,11.058c1.329,0.729,2.789,2.189,3.519,3.518    c-0.229,0.853-0.544,1.754-1.006,2.513c7.331,6.993,5.492,20.325,4.021,29.152c-1.89-3.104-2.479-7.019-3.016-10.555    c-1.433,5.729-1.948,10.301-0.503,16.084c2.585-1.79,4.281-0.764,7.037-3.519c6.314-6.314,12.011-15.992,20.104-20.104    c-1.185-0.999-3.454-1.988-5.026-2.011l-4.523,4.523l-2.011,0.503l-1.508-1.508c-0.222-1.552,0.411-3.897,1.508-5.026    l-2.513,0.503v2.513l-1.006,1.508v0.503l-0.502,0.502h-1.508l-1.508-1.508c0.587-2.734,1.274-4.577,1.005-7.539    c12.81,1.495,26.488,1.486,34.178,13.571c1.85,2.906,2.333,6.595,4.021,9.55c0.846,1.479,2.07,2.737,2.81,4.278    c-1.938-1.092-4.65-3.667-5.322-5.787c-1.825,2.13-4.706,4.15-7.539,4.524l-3.519-2.011c0.71-2.294,7.414-4.337,9.55-5.529    c-0.047-5.496-7.772-9.892-12.565-11.058c-3.872,4.707-7.51,9.517-11.561,14.073c-2.617,2.945-5.959,5.133-8.544,8.042    l2.011,1.508c2.371,0.474,3.785-1.005,5.863-1.005c10.298,0,20.667-1.35,30.325,2.513c7.607-1.902,14.165-6.145,19.602,2.011    c1.363-0.398,3.1-0.661,4.523-0.503l0.503,1.508c-0.331,3.198-4.839,3.658-6.534,6.031c5.052,9.861-12.386,32.491-18.597,38.701    c-2.663,2.663-8.215,6.872-11.561,8.545c-6.092,3.046-11.445,3.495-18.094,2.513c3.901-1.95,13.652-6.533,16.586-9.047    c8.038-6.89,25.199-30.508,29.152-40.209c-3.06-0.196-8.049-2.242-10.555-4.021l0.502-1.005l-0.502-1.005    c-5.801,4.71-33.775,10.974-40.21,8.042c2.591-1.295,5.353-3.012,8.042-4.021c2.708-1.016,6.089-1.447,8.545-3.016    c-6.77-2.98-10.7,1.271-16.084,0.502c-1.861,1.329-2.502,3.825-4.021,5.529c3.11,8.249,13.236,11.153,18.095,18.094    c1.185,1.692,2.077,4.154,3.016,6.031c2.646-2.646,4.882-4.292,6.031-8.042c-1.125-0.776-3.472-2.688-4.021-4.021l0.502-1.508    l3.016,0.503c0.653,0.816,1.604,1.512,2.514,2.01l2.01-2.01l0.503-2.513l-3.016-4.021l1.508-1.005l2.513,1.005l1.006-1.508    c-0.143-1.001,0.006-2.612,0.502-3.519l1.508-1.005l0.503,9.55c-1.369,1.409-2.218,5.176-3.016,7.036    c-4.376,10.212-10.21,14.909-21.11,17.089c-0.613-2.525-4.429-8.196-2.513-10.555l2.513,1.508    c1.277,2.555,0.524,5.071,1.509,7.539l6.031-5.026c-1.396-1.22-2.265-2.767-3.519-4.021c-2.866-2.866-12.296-10.971-15.581-13.068    l-1.005,1.005c1.59,7.287,1.081,14.859-0.503,22.115c5.032,5.986,4.523,13.721,4.523,21.109c-0.786,1.366-1.6,2.735-2.513,4.021    l-1.508,0.502c-3.645-9.43-15.066-17.097-1.508-26.136l-11.561-25.633h-1.006c-6.986,5.018-17.689,13.892-21.612,21.613    c0.626,0.607,6.124,2.938,7.037,3.016c0.884-2.479,2.091-4.829,3.519-7.037l2.01-1.005l1.508,1.005l0.503,2.011    c-1.361,1.575-2.289,4.187-3.519,6.031c0.871,1.452,3.377,2.845,5.026,3.016c0.661-0.954,2.927-7.838,3.016-9.047    c2.195,0.122,3.929,3.379,5.026,5.026c-0.243,2.854-2.779,5.067-5.026,6.533c-2.915-0.647-6.235-1.072-9.047-2.01    c-10.239-3.413-28.315-17.307-26.136-29.654l1.508,0.502l3.016,4.523c2.557-2.557,3.892-4.411,7.539-5.529l3.016,0.503    l0.502,2.513l-1.508,2.513l2.514,0.502l1.005,2.011c-1.538,1.495-5.031,1.801-7.036,2.01c-0.918-1.086-3.106-2.043-4.523-2.01    c0.506,5.848,3.058,8.586,7.036,12.565c6.329-12.659,14.093-16.319,24.126-25.131l-0.503-0.503    c-6.646,1.434-28.243,2.395-34.681,1.005l-1.005,1.005c-3.163-2.439-6.71-3.649-10.556-4.523    c-3.387,1.222-6.062,3.725-9.549,4.523c3.279,2.833,10.768,2.461,14.576,1.005c-0.394,1.239-1.451,2.76-2.514,3.519    c-1.902,0.339-4.705,1.508-6.534,1.508c-3.065,0-10.144-3.661-12.565-5.529c1.034-5.919,9.168-7.061,13.068-10.052    c-4.24-7.037,6.682-27.102,10.555-32.167c4.256-5.564,9.821-10.439,16.084-13.571c5.612-2.806,16.002-2.818,17.089-3.518    c0.906-1.652,0.156-7.231-0.503-9.047c0.865-2.262,0.815-5.067,3.016-6.534c6.258-0.115,14.438,9.806,15.079,15.582" fill="#004F9F" fill-rule="evenodd"/>
			
			
			
		
			
			
			<path animation_id="1" clip-rule="evenodd" d="M571.998,68.959c-7.855-12.207-11.674-28.333-26.136-35.183    c-4.571-2.166-9.688-1.737-14.408-2.681c-5.157-1.031-12.129-2.95-17.257-1.34l-0.502-0.503c6.862-9.607,37.146,3.626,43.728,9.55    c5.523,4.971,8.85,11.82,11.56,18.597" fill="#004F9F" fill-rule="evenodd"/>
			
			
			
		
			
			
			<path animation_id="2" clip-rule="evenodd" d="M497.611,34.781c4.305,1.773,3.518,9.019,3.518,12.565    c-2.593,0.648-5.674,1.924-8.041,0l-1.006,2.011l-2.01,0.502c-1.094-0.893-2.495-1.554-3.809-2.038l-0.422,1.125l0.712,1.416    c-8.684,1.914-15.128,9.555-19.603,16.587c-1.773,2.786-4.9,6.68-2.01,10.052h2.01l2.011-1.508    c1.442,1.402,5.517,2.008,7.539,2.513l1.005-1.508v-2.01c-0.876-1.052-3.467-3.405-5.025-3.016l1.005-2.011    c0.858,0.926,2.726,1.977,4.021,2.011l1.006-1.508v-1.508c-0.812-0.975-1.886-1.923-3.016-2.513l0.502-2.011    c1.731-1.483,2.793-3.542,4.523-5.026c-0.127,5.457,9.791,11.835,13.068,15.581c-6.239,1.04-23.955,5.448-28.648,9.047    c-2.488-1.361-8.947-4.501-11.561-4.523c1.021-4.023,3.332-7.833,5.026-11.56c5.768-12.689,14.492-27.484,28.146-33.173    c3.159-1.316,6.69-1.53,10.052-2.01" fill="#FFFFFF" fill-rule="evenodd"/>
			
			
			
		
			
			
			<path animation_id="3" clip-rule="evenodd" d="M501.129,48.854c0,8.837,0.559,16.418,2.011,25.131    c-6.509-2.322-15.383-11.77-19.099-17.591l4.523-2.011l3.518,3.016l1.508-2.011l-0.502-2.513l3.016,2.011l1.508-2.011    c-0.152-0.911,0.079-2.2,0.502-3.016" fill="#FFFFFF" fill-rule="evenodd"/>
			
			
			
		
			
			
			<path animation_id="4" clip-rule="evenodd" d="M544.354,57.901c-0.97,3.058-4.075,4.251-6.031,6.534    c-0.769-0.224-1.54-0.88-2.011-1.508c1.78-2.924,1.786-5.663,6.031-6.534" fill="#004F9F" fill-rule="evenodd"/>
			
			
			
		
			
			
			<path animation_id="5" clip-rule="evenodd" d="M516.137,78.065c-0.133,1.041-0.751,2.18-1.437,2.957    c-1.702,0.206-4.561-0.221-5.995-1.25c-0.188-1.022-0.039-2.354,0.467-3.273c1.656,0.962,4.617,0.138,5.863-1.224l0.781,1.066" fill="#FFFFFF" fill-rule="evenodd"/>
			
			
			
		
			
			
			<path animation_id="6" clip-rule="evenodd" d="M565.607,78.564c1.739-0.125,4.585-0.262,6.283,0.293    c-1.968,0.72-5.258,1.585-7.396,1.229" fill="#FFFFFF" fill-rule="evenodd"/>
			
			
			
		
			
			
			<path animation_id="7" clip-rule="evenodd" d="M504.023,79.827l0.121,1.697    c-4.278,3.034-22.556,1.667-26.639,1.508c8.205-1.641,17.815-6.1,26.137-4.021" fill="#FFFFFF" fill-rule="evenodd"/>
			
			
			
		
			
			
			<path animation_id="8" clip-rule="evenodd" d="M513.695,87.053c-2.516,7.283,0.648,13.972,0,21.11    l-6.032-20.105" fill="#FFFFFF" fill-rule="evenodd"/>
			
			
			
		
			
			
			<path animation_id="9" clip-rule="evenodd" d="M457.666,95.896c-0.027,0.868-0.222,2.003-0.767,2.717    c11.519,24.601,19.958,37.194,48.754,37.194c-6.288,13.9-35.717-8.365-40.712-15.581c-4.428-6.396-8.003-13.479-11.059-20.607    c-0.023-1.464,1.468-4.247,3.166-4.229" fill="#004F9F" fill-rule="evenodd"/>
			
			
			
		
			
			
			<path animation_id="10" clip-rule="evenodd" d="M522.239,114.697v3.016l-1.508,2.514l-1.575-1.265    c-1.147-1.964-0.713-4.642-0.436-6.777" fill="#004F9F" fill-rule="evenodd"/>
			
			
			
		
			
			
			<path animation_id="11" clip-rule="evenodd" d="M516.02,135.253c-1.636-2.434-2.765-6.668-1.822-9.499    l1.137,0.585c-0.549,3.046-0.02,6.648,1.371,9.409" fill="#FFFFFF" fill-rule="evenodd"/>
			
			
			
	
		
		
		</g>
		
		
		
	
		
		
		<g>
			
			
			
		
			
			
			<path animation_id="12" d="M37.376,227.912c-13.216,0-22.96-11.872-22.96-31.36c0-19.824,9.744-31.248,23.185-31.248    c7.392,0,11.424,2.353,13.328,4.032l-2.353,5.712c-1.792-1.344-4.479-2.912-8.96-2.912c-10.976,0-15.231,9.968-15.231,24.08    c0,14.448,5.151,24.416,14.896,24.416c4.144,0,6.944-1.344,9.184-2.912l2.465,6.16C48.577,226.007,44.097,227.912,37.376,227.912z    " fill="#706F6F"/>
			
			
			
		
			
			
			<path animation_id="13" d="M82.176,227.912c-16.464,0-23.632-13.553-23.632-31.248c0-18.032,7.28-31.36,23.521-31.36    c16.575,0,23.632,13.328,23.632,31.36C105.697,214.359,98.529,227.912,82.176,227.912z M82.176,171.576    c-11.535,0-13.775,12.88-13.775,25.088s2.464,24.416,13.775,24.416c11.536,0,13.664-12.32,13.664-24.416    S93.712,171.576,82.176,171.576z" fill="#706F6F"/>
			
			
			
		
			
			
			<path animation_id="14" d="M187.456,226.792v-43.456c0-6.048-2.911-11.536-11.647-11.536c-5.04,0-8.96,1.681-12.432,5.376v49.616    h-9.856v-43.904c0-6.72-4.479-11.199-13.216-11.199c-4.928,0-7.616,0.672-10.864,2.016v53.088h-9.855v-57.232    c5.487-2.688,11.312-4.256,20.943-4.256c9.296,0,14.896,2.801,18.48,7.28c4.144-4.368,10.304-7.28,18.704-7.28    c14.447,0,19.6,9.408,19.6,17.809v43.68H187.456z" fill="#706F6F"/>
			
			
			
		
			
			
			<path animation_id="15" d="M232.705,227.687c-3.472,0-7.168-0.672-9.407-1.456v24.641h-9.744v-81.312    c4.032-2.352,10.191-4.256,18.815-4.256c17.024,0,26.656,11.872,26.656,30.353C259.025,215.704,248.609,227.687,232.705,227.687z     M231.921,171.24c-3.696,0-6.272,0.672-8.624,1.68v47.376c1.903,0.784,4.367,1.344,7.392,1.344    c12.208,0,18.479-9.52,18.479-25.536C249.168,180.759,244.689,171.24,231.921,171.24z" fill="#706F6F"/>
			
			
			
		
			
			
			<path animation_id="16" d="M292.848,227.912c-15.68,0-22.96-6.832-22.96-17.809c0-16.016,15.008-20.72,33.711-22.624v-3.695    c0-9.296-5.599-11.984-13.328-11.984c-5.823,0-11.199,2.128-14.56,3.809l-2.352-5.824c3.472-1.904,10.191-4.48,18.479-4.48    c11.201,0,21.056,4.816,21.056,19.601v38.752C308.305,226.231,301.248,227.912,292.848,227.912z M303.6,192.519    c-15.231,1.904-24.303,5.152-24.303,17.36c0,8.736,5.376,12.32,14.336,12.32c3.808,0,7.504-0.673,9.967-2.017V192.519z" fill="#706F6F"/>
			
			
			
		
			
			
			<path animation_id="17" d="M340.895,227.687c-6.496,0-12.207-1.68-15.455-4.144l2.688-6.496c2.129,1.792,6.385,3.584,11.76,3.584    c6.721,0,11.201-4.592,11.201-10.416c0-6.271-3.361-9.072-9.969-11.536c-11.76-4.368-14.111-10.64-14.111-16.912    c0-8.96,7.055-16.575,18.031-16.575c6.16,0,10.977,2.016,14.111,4.144l-2.576,5.937c-1.791-1.345-5.375-3.36-10.08-3.36    c-6.607,0-10.078,4.368-10.078,9.52c0,5.824,4.256,8.624,10.078,10.864c11.762,4.48,14.672,10.752,14.672,17.696    C361.166,219.175,353.215,227.687,340.895,227.687z" fill="#706F6F"/>
			
			
			
		
			
			
			<path animation_id="18" d="M385.357,227.687c-6.496,0-12.207-1.68-15.455-4.144l2.688-6.496c2.129,1.792,6.385,3.584,11.76,3.584    c6.721,0,11.201-4.592,11.201-10.416c0-6.271-3.361-9.072-9.969-11.536c-11.76-4.368-14.111-10.64-14.111-16.912    c0-8.96,7.055-16.575,18.031-16.575c6.16,0,10.977,2.016,14.111,4.144l-2.576,5.937c-1.791-1.345-5.375-3.36-10.08-3.36    c-6.607,0-10.078,4.368-10.078,9.52c0,5.824,4.256,8.624,10.078,10.864c11.762,4.48,14.672,10.752,14.672,17.696    C405.629,219.175,397.678,227.687,385.357,227.687z" fill="#706F6F"/>
			
			
			
		
			
			
			<path animation_id="19" d="M440.572,228.023c-15.119,0-21.391-7.615-21.391-19.712v-41.888h9.855v42.224    c0,7.057,3.809,12.433,12.096,12.433c4.703,0,8.064-0.784,10.863-2.464v-52.192h9.857v56.784    C457.373,225.784,450.316,228.023,440.572,228.023z" fill="#706F6F"/>
			
			
			
		
			
			
			<path animation_id="20" d="M489.852,227.687c-6.496,0-12.207-1.68-15.455-4.144l2.688-6.496c2.129,1.792,6.385,3.584,11.76,3.584    c6.721,0,11.201-4.592,11.201-10.416c0-6.271-3.361-9.072-9.969-11.536c-11.76-4.368-14.111-10.64-14.111-16.912    c0-8.96,7.055-16.575,18.031-16.575c6.16,0,10.977,2.016,14.111,4.144l-2.576,5.937c-1.791-1.345-5.375-3.36-10.08-3.36    c-6.607,0-10.078,4.368-10.078,9.52c0,5.824,4.256,8.624,10.078,10.864c11.762,4.48,14.672,10.752,14.672,17.696    C510.123,219.175,502.172,227.687,489.852,227.687z" fill="#706F6F"/>
			
			
			
	
		
		
		</g>
		
		
		

	
	
	</g>
	
	
	



</svg>
