<?xml version="1.0" encoding="iso-8859-1"?>
<!-- Generator: Adobe Illustrator 15.0.0, SVG Export Plug-In . SVG Version: 6.00 Build 0)  -->
<!DOCTYPE svg
  PUBLIC '-//W3C//DTD SVG 1.1//EN'
  'http://www.w3.org/Graphics/SVG/1.1/DTD/svg11.dtd'>
<svg enable-background="new 0 0 595.275 155.905" height="155.905px" version="1.1" viewBox="-148.81875 -38.97625 892.9124999999999 233.85750000000002" width="595.275px" x="0px" xml:space="preserve" xmlns="http://www.w3.org/2000/svg" xmlns:xlink="http://www.w3.org/1999/xlink" y="0px">
	
	
	
	

	
	
	
	<g id="Hintergrund">
</g>
	
	
	
	

	
	
	
	<g display="none" id="Hilfslinien">
</g>
	
	
	
	

	
	
	
	<g id="Vordergrund">
		
		
		
		
	
		
		
		
		<g>
			
			
			
			
		
			
			
			
			<g>
				
				
				
				
			
				
				
				
				<path animation_id="0" d="M28.139,87.557c9.029,0,11.783,0.917,14.767,2.601c4.973,2.755,7.65,7.651,7.65,13.771     c0,7.039-3.366,12.701-9.18,15.454c-2.449,1.148-4.744,1.76-10.636,1.76h-5.891v19.587H14.138V87.557H28.139z M24.849,112.421     h5.586c4.36,0,5.661-0.535,7.115-2.754c0.917-1.453,1.3-2.984,1.3-5.509c0-4.973-2.677-7.957-7.191-7.957h-6.809V112.421z" fill="#9D9D9C"/>
				
				
				
				
			
				
				
				
				<path animation_id="1" d="M81.921,87.557c9.411,0,15.609,6.272,15.609,15.607c0,7.957-5.28,14.537-11.86,14.689     c1.072,0.841,1.531,1.301,2.22,2.219c3.061,3.825,12.776,20.657,12.776,20.657H88.042c-2.066-3.52-2.907-4.973-4.972-8.723     c-5.28-9.562-6.887-12.164-8.799-13.006c-0.535-0.23-0.994-0.383-1.684-0.459v22.188H62.105V87.557H81.921z M72.587,110.509     h3.596c4.59,0,6.58-0.459,8.035-1.76c1.3-1.225,2.065-3.137,2.065-5.355c0-3.29-1.301-5.585-3.826-6.504     c-1.224-0.458-3.442-0.765-6.044-0.765h-3.826V110.509z" fill="#9D9D9C"/>
				
				
				
				
			
				
				
				
				<path animation_id="2" d="M123.541,87.557v53.173H112.37V87.557H123.541z" fill="#9D9D9C"/>
				
				
				
				
			
				
				
				
				<path animation_id="3" d="M157.278,87.557l6.962,26.625c0.995,3.824,1.378,5.661,1.837,8.416c0.459-2.755,1.071-5.509,1.912-8.646     l7.192-26.396H188.8l4.744,53.173h-10.481l-1.99-28.385c-0.229-3.366-0.382-6.044-0.382-8.875     c-0.613,3.061-1.072,4.973-1.99,8.187l-8.416,29.073h-9.104l-7.574-27.925c-0.688-2.603-1.607-6.352-2.143-9.411     c0,3.137-0.152,6.273-0.382,9.563l-1.836,27.772H138.61l4.973-53.173H157.278z" fill="#9D9D9C"/>
				
				
				
				
			
				
				
				
				<path animation_id="4" d="M238.984,87.557l-1.377,8.721h-18.209v12.319h15.226v8.721h-15.072v14.231h20.122v9.181h-30.986V87.557     H238.984z" fill="#9D9D9C"/>
				
				
				
				
		
			
			
			
			</g>
			
			
			
			
		
			
			
			
			<g>
				
				
				
				
			
				
				
				
				<path animation_id="5" d="M329.591,87.557c9.03,0,11.783,0.917,14.767,2.601c4.974,2.755,7.651,7.651,7.651,13.771     c0,7.039-3.366,12.701-9.181,15.454c-2.448,1.148-4.744,1.76-10.635,1.76h-5.891v19.587H315.59V87.557H329.591z M326.303,112.421     h5.585c4.361,0,5.661-0.535,7.115-2.754c0.918-1.453,1.3-2.984,1.3-5.509c0-4.973-2.677-7.957-7.191-7.957h-6.809V112.421z" fill="#9D9D9C"/>
				
				
				
				
			
				
				
				
				<path animation_id="6" d="M393.855,87.557l-1.377,8.721H374.27v12.319h15.225v8.721h-15.071v14.231h20.123v9.181h-30.987V87.557     H393.855z" fill="#9D9D9C"/>
				
				
				
				
			
				
				
				
				<path animation_id="7" d="M450.776,113.875c0,12.012-4.133,21.04-11.858,25.248c-3.215,1.76-6.198,2.448-10.636,2.448     c-8.032,0-13.236-2.219-17.291-7.498c-4.054-5.203-6.119-11.936-6.119-19.739c0-11.477,4.359-20.657,12.011-24.865     c3.137-1.684,7.039-2.601,11.018-2.601C442.054,86.868,450.776,97.196,450.776,113.875z M419.484,99.798     c-1.837,3.442-2.679,8.11-2.679,14.536c0,9.181,1.531,14.919,4.744,17.215c1.684,1.224,3.826,1.836,6.351,1.836     c7.421,0,10.558-5.662,10.558-19.203c0-5.433-0.46-9.335-1.378-12.319c-0.841-2.677-3.671-6.732-9.333-6.732     C424.151,95.13,421.014,96.966,419.484,99.798z" fill="#9D9D9C"/>
				
				
				
				
			
				
				
				
				<path animation_id="8" d="M477.321,87.557c9.028,0,11.782,0.917,14.767,2.601c4.973,2.755,7.649,7.651,7.649,13.771     c0,7.039-3.365,12.701-9.181,15.454c-2.448,1.148-4.742,1.76-10.634,1.76h-5.892v19.587h-10.712V87.557H477.321z      M474.031,112.421h5.585c4.361,0,5.661-0.535,7.115-2.754c0.918-1.453,1.3-2.984,1.3-5.509c0-4.973-2.677-7.957-7.191-7.957     h-6.809V112.421z" fill="#9D9D9C"/>
				
				
				
				
			
				
				
				
				<path animation_id="9" d="M521.617,87.557v44.298h19.051l-1.913,8.875h-28.079V87.557H521.617z" fill="#9D9D9C"/>
				
				
				
				
			
				
				
				
				<path animation_id="10" d="M580.447,87.557l-1.377,8.721h-18.209v12.319h15.227v8.721h-15.072v14.231h20.122v9.181H550.15V87.557     H580.447z" fill="#9D9D9C"/>
				
				
				
				
		
			
			
			
			</g>
			
			
			
			
		
			
			
			
			
			<rect animation_id="11" clip-rule="evenodd" fill="#164194" fill-rule="evenodd" height="124.022" stroke="#164194" stroke-miterlimit="3.8637" stroke-width="0" width="35.434" x="258.593" y="14.335"/>
			
			
			
			
	
		
		
		
		</g>
		
		
		
		

	
	
	
	</g>
	
	
	
	




</svg>
