<?xml version="1.0" encoding="iso-8859-1"?>
<!-- Generator: Adobe Illustrator 15.0.0, SVG Export Plug-In . SVG Version: 6.00 Build 0)  -->
<!DOCTYPE svg
  PUBLIC '-//W3C//DTD SVG 1.1//EN'
  'http://www.w3.org/Graphics/SVG/1.1/DTD/svg11.dtd'>
<svg enable-background="new 0 0 595.275 595.275" height="595.275px" version="1.1" viewBox="-148.81875 -148.81875 892.9124999999999 892.9124999999999" width="595.275px" x="0px" xml:space="preserve" xmlns="http://www.w3.org/2000/svg" xmlns:xlink="http://www.w3.org/1999/xlink" y="0px">
	
	
	
	

	
	
	
	<g id="Hintergrund">
</g>
	
	
	
	

	
	
	
	<g display="none" id="Hilfslinien">
</g>
	
	
	
	

	
	
	
	<g id="Vordergrund">
		
		
		
		
	
		
		
		
		<g>
			
			
			
			
		
			
			
			
			<g>
				
				
				
				
			
				
				
				
				<g>
					
					
					
					
				
					
					
					
					<path animation_id="0" d="M102.506,523.464c-0.691,2.765-1.208,3.11-3.802,3.11H41.68c-2.938,0-3.63-0.518-3.63-3.629V411.832      c0-3.111,0.692-3.63,3.63-3.63h16.071c2.937,0,3.627,0.519,3.627,3.63v94.006h41.647c2.418,0,3.109,0.864,3.109,2.246      c0,0.518-0.172,1.556-0.345,2.247L102.506,523.464z"/>
					
					
					
					
				
					
					
					
					<path animation_id="1" d="M211.202,522.945c0,3.111-0.519,3.629-3.457,3.629h-56.853c-2.937,0-3.629-0.518-3.629-3.629V411.832      c0-3.111,0.692-3.63,3.629-3.63h56.681c3.455,0,4.318,0.347,4.318,1.901c0,0.864-0.172,1.21-0.517,2.42l-3.284,11.578      c-0.692,2.592-2.593,2.765-3.975,2.765h-33.523v28.512h29.375c3.111,0,3.629,0.52,3.629,3.629v11.405      c0,3.111-0.69,3.629-3.629,3.629h-29.375v33.87h36.98c3.11,0,3.628,0.519,3.628,3.629V522.945z"/>
					
					
					
					
				
					
					
					
					<path animation_id="2" d="M311.601,429.804c-0.52,1.036-1.211,1.729-1.9,1.729c-1.037,0-11.751-7.604-24.194-7.604      c-7.948,0-16.242,3.11-16.242,13.479c0,13.133,20.218,15.552,35.424,26.785c8.813,6.565,14.861,15.725,14.861,28.857      c0,21.946-15.554,36.462-37.325,36.462c-17.626,0-36.116-7.604-36.116-10.367c0-0.52,0.518-1.729,0.864-2.766l3.975-11.406      c0.344-1.036,1.208-1.728,1.9-1.728c1.037,0,13.824,7.604,28.686,7.604c9.678,0,15.552-5.184,15.552-15.897      c0-15.38-17.625-16.935-35.252-27.649c-9.159-5.529-15.035-12.442-15.035-26.784c0-24.885,17.973-35.252,38.019-35.252      c16.417,0,33.35,7.604,33.35,10.541c0,0.519-0.172,1.209-0.863,2.592L311.601,429.804z"/>
					
					
					
					
				
					
					
					
					<path animation_id="3" d="M430.487,515.86c0.518,1.037,0.864,1.729,0.864,2.592c0,2.938-11.751,11.06-28.686,11.06      c-30.242,0-44.757-19.7-44.757-61.173c0-39.745,14.86-63.073,44.757-63.073c12.96,0,28.339,9.504,28.339,12.787      c0,0.691,0,1.382-0.863,2.592l-6.394,9.678c-0.692,1.036-1.384,1.728-2.074,1.728c-2.938,0-8.64-8.122-17.799-8.122      c-14.861,0-21.428,10.195-21.428,39.918c0,29.378,3.629,47.003,21.428,47.003c9.678,0,15.897-6.394,19.354-6.394      c0.69,0,1.209,0.518,1.899,1.728L430.487,515.86z"/>
					
					
					
					
				
					
					
					
					<path animation_id="4" d="M554.561,522.945c0,3.111-0.69,3.629-3.629,3.629h-16.069c-2.938,0-3.629-0.518-3.629-3.629v-48.213h-32.834v48.213      c0,3.111-0.689,3.629-3.629,3.629h-16.069c-2.938,0-3.629-0.518-3.629-3.629V411.832c0-3.111,0.69-3.63,3.629-3.63h16.069      c2.939,0,3.629,0.519,3.629,3.63v44.237h32.834v-44.237c0-3.111,0.691-3.63,3.629-3.63h16.069c2.938,0,3.629,0.519,3.629,3.63      V522.945z"/>
					
					
					
					
			
				
				
				
				</g>
				
				
				
				
			
				
				
				
				<g>
					
					
					
					
				
					
					
					
					<path animation_id="5" d="M62.005,580.255c0,0.744-0.166,0.867-0.867,0.867h-3.844c-0.701,0-0.867-0.123-0.867-0.867v-11.528h-7.851v11.528      c0,0.744-0.166,0.867-0.868,0.867h-3.844c-0.701,0-0.867-0.123-0.867-0.867v-26.568c0-0.744,0.166-0.868,0.867-0.868h3.844      c0.702,0,0.868,0.124,0.868,0.868v10.577h7.851v-10.577c0-0.744,0.166-0.868,0.867-0.868h3.844c0.701,0,0.867,0.124,0.867,0.868      V580.255z"/>
					
					
					
					
				
					
					
					
					<path animation_id="6" d="M81.473,581.824c-6.406,0-10.29-4.834-10.29-14.833c0-10.041,3.925-14.875,10.29-14.875      c6.363,0,10.288,4.875,10.288,14.875C91.761,576.99,87.877,581.824,81.473,581.824z M85.893,566.991      c0-6.487-1.321-10.537-4.419-10.537c-3.1,0-4.421,4.092-4.421,10.537c0,6.446,1.321,10.494,4.421,10.494      C84.571,577.485,85.893,573.438,85.893,566.991z"/>
					
					
					
					
				
					
					
					
					<path animation_id="7" d="M106.557,580.255c0,0.744-0.124,0.867-0.827,0.867h-3.884c-0.702,0-0.868-0.123-0.868-0.867v-26.568      c0-0.744,0.166-0.868,0.868-0.868H115.4c0.825,0,1.032,0.082,1.032,0.455c0,0.206-0.041,0.289-0.124,0.577l-0.784,2.77      c-0.166,0.619-0.62,0.66-0.951,0.66h-8.016v6.817h7.023c0.744,0,0.869,0.125,0.869,0.868v2.728c0,0.743-0.166,0.867-0.869,0.867      h-7.023V580.255z"/>
					
					
					
					
				
					
					
					
					<path animation_id="8" d="M139.906,579.181c0,0.578-0.124,0.702-0.703,0.702h-2.726c-0.579,0-0.703-0.124-0.703-0.702v-6.611h-6.61      c-0.58,0-0.704-0.124-0.704-0.702v-2.728c0-0.579,0.165-0.703,0.704-0.703h6.61v-6.611c0-0.577,0.124-0.702,0.703-0.702h2.726      c0.579,0,0.703,0.125,0.703,0.702v6.611h6.612c0.577,0,0.702,0.124,0.702,0.703v2.728c0,0.578-0.125,0.702-0.702,0.702h-6.612      V579.181z"/>
					
					
					
					
				
					
					
					
					<path animation_id="9" d="M180.449,578.602c0,1.736-4.875,3.223-8.264,3.223c-7.272,0-11.074-4.71-11.074-14.71      c0-9.792,3.761-14.998,11.157-14.998c3.719,0,7.685,1.818,7.685,2.521c0,0.124-0.041,0.289-0.207,0.62l-1.364,2.726      c-0.124,0.249-0.288,0.413-0.454,0.413c-0.248,0-2.562-1.817-5.372-1.817c-4.213,0-5.577,3.926-5.577,10.247      c0,6.446,1.074,10.538,5.537,10.538c1.528,0,2.604-0.496,2.975-0.662v-5.991h-3.098c-0.704,0-0.868-0.124-0.868-0.868v-2.728      c0-0.744,0.164-0.866,0.868-0.866h7.189c0.701,0,0.867,0.122,0.867,0.866V578.602z"/>
					
					
					
					
				
					
					
					
					<path animation_id="10" d="M204.955,580.255c0,0.744-0.124,0.867-0.827,0.867h-13.594c-0.703,0-0.867-0.123-0.867-0.867v-26.568      c0-0.744,0.164-0.868,0.867-0.868h13.553c0.827,0,1.034,0.082,1.034,0.455c0,0.206-0.042,0.289-0.124,0.577l-0.786,2.77      c-0.165,0.619-0.62,0.66-0.95,0.66h-8.017v6.817h7.025c0.744,0,0.868,0.125,0.868,0.868v2.728c0,0.743-0.166,0.867-0.868,0.867      h-7.025v8.101h8.843c0.744,0,0.868,0.122,0.868,0.866V580.255z"/>
					
					
					
					
				
					
					
					
					<path animation_id="11" d="M232.645,580.255c0,0.744-0.166,0.867-0.867,0.867h-3.845c-0.701,0-0.867-0.123-0.867-0.867v-11.528h-7.85v11.528      c0,0.744-0.166,0.867-0.868,0.867h-3.844c-0.701,0-0.867-0.123-0.867-0.867v-26.568c0-0.744,0.166-0.868,0.867-0.868h3.844      c0.702,0,0.868,0.124,0.868,0.868v10.577h7.85v-10.577c0-0.744,0.166-0.868,0.867-0.868h3.845c0.701,0,0.867,0.124,0.867,0.868      V580.255z"/>
					
					
					
					
				
					
					
					
					<path animation_id="12" d="M266.531,553.273c0.166-0.827,0.413-0.827,0.62-0.827c0.247,0,0.454,0.042,0.62,0.083l3.099,0.619      c0.33,0.084,0.785,0.165,0.785,0.414c0,0.206-0.124,0.619-0.207,0.908l-6.033,26.28c-0.165,0.578-0.288,0.744-0.909,0.744      h-3.554c-0.744,0-0.785-0.125-0.907-0.744l-2.728-13.885c-0.373-1.858-0.744-4.421-0.951-7.148h-0.083      c-0.207,2.77-0.577,5.248-1.033,7.148l-3.346,13.885c-0.166,0.619-0.166,0.744-0.91,0.744h-3.554      c-0.619,0-0.785-0.166-0.908-0.744l-5.373-26.32c-0.041-0.289-0.165-0.662-0.165-0.91c0-0.247,0.455-0.33,0.785-0.413      l3.223-0.578c0.166-0.041,0.373-0.083,0.62-0.083c0.207,0,0.455,0,0.62,0.827l2.48,13.388c0.412,2.272,0.744,5.7,0.907,7.809      h0.083c0.248-2.355,0.827-5.702,1.321-7.809l2.934-12.604c0.208-0.867,0.25-1.239,1.241-1.239h2.809      c0.663,0,0.704,0.372,0.91,1.239l2.934,12.604c0.496,2.106,0.907,5.453,1.157,7.809h0.082c0.165-2.108,0.538-5.536,0.951-7.809      L266.531,553.273z"/>
					
					
					
					
				
					
					
					
					<path animation_id="13" d="M294.924,580.255c0,0.744-0.124,0.867-0.828,0.867h-13.593c-0.704,0-0.867-0.123-0.867-0.867v-26.568      c0-0.744,0.164-0.868,0.867-0.868h13.552c0.828,0,1.034,0.082,1.034,0.455c0,0.206-0.043,0.289-0.124,0.577l-0.786,2.77      c-0.165,0.619-0.62,0.66-0.95,0.66h-8.017v6.817h7.025c0.744,0,0.867,0.125,0.867,0.868v2.728c0,0.743-0.166,0.867-0.867,0.867      h-7.025v8.101h8.843c0.744,0,0.868,0.122,0.868,0.866V580.255z"/>
					
					
					
					
				
					
					
					
					<path animation_id="14" d="M321.456,578.602c0,1.736-4.876,3.223-8.264,3.223c-7.272,0-11.075-4.71-11.075-14.71      c0-9.792,3.762-14.998,11.157-14.998c3.719,0,7.685,1.818,7.685,2.521c0,0.124-0.041,0.289-0.207,0.62l-1.363,2.726      c-0.123,0.249-0.288,0.413-0.454,0.413c-0.247,0-2.562-1.817-5.371-1.817c-4.214,0-5.578,3.926-5.578,10.247      c0,6.446,1.075,10.538,5.536,10.538c1.529,0,2.604-0.496,2.977-0.662v-5.991h-3.1c-0.703,0-0.866-0.124-0.866-0.868v-2.728      c0-0.744,0.163-0.866,0.866-0.866h7.19c0.701,0,0.867,0.122,0.867,0.866V578.602z"/>
					
					
					
					
				
					
					
					
					<path animation_id="15" d="M336.377,580.255c0,0.744-0.166,0.867-0.869,0.867h-3.842c-0.703,0-0.867-0.123-0.867-0.867v-26.568      c0-0.744,0.164-0.868,0.867-0.868h6.693c3.181,0,9.627,0.206,9.627,7.976c0,5.329-3.181,6.858-4.71,7.643l6.157,11.033      c0.123,0.206,0.33,0.537,0.33,0.785c0,0.247-0.413,0.371-0.826,0.496l-3.471,0.991c-0.166,0.041-0.413,0.082-0.579,0.082      c-0.207,0-0.536-0.495-0.95-1.28l-5.578-11.115h-1.982V580.255z M337.45,565.091c2.686,0,4.96-0.413,4.96-4.216      c0-3.595-2.356-3.718-4.505-3.718h-1.528v7.934H337.45z"/>
					
					
					
					
				
					
					
					
					<path animation_id="16" d="M372.66,580.255c0,0.744-0.123,0.867-0.826,0.867h-13.593c-0.704,0-0.868-0.123-0.868-0.867v-26.568      c0-0.744,0.164-0.868,0.868-0.868h13.553c0.826,0,1.032,0.082,1.032,0.455c0,0.206-0.042,0.289-0.124,0.577l-0.786,2.77      c-0.163,0.619-0.619,0.66-0.95,0.66h-8.016v6.817h7.025c0.743,0,0.867,0.125,0.867,0.868v2.728c0,0.743-0.166,0.867-0.867,0.867      h-7.025v8.101h8.844c0.743,0,0.866,0.122,0.866,0.866V580.255z"/>
					
					
					
					
				
					
					
					
					<path animation_id="17" d="M391.381,580.255c0,0.744-0.163,0.867-0.866,0.867h-10.124c-0.701,0-0.867-0.123-0.867-0.867v-2.231      c0-0.744,0.166-0.868,0.867-0.868h2.273v-20.37h-2.273c-0.701,0-0.867-0.124-0.867-0.868v-2.23c0-0.744,0.166-0.868,0.867-0.868      h10.124c0.703,0,0.866,0.124,0.866,0.868v2.23c0,0.744-0.163,0.868-0.866,0.868h-2.274v20.37h2.274      c0.703,0,0.866,0.124,0.866,0.868V580.255z"/>
					
					
					
					
				
					
					
					
					<path animation_id="18" d="M419.441,580.255c0,0.744-0.125,0.867-0.868,0.867h-2.726c-0.579,0-0.704-0.082-0.951-0.578l-7.562-14.09      c-1.238-2.314-1.94-3.761-2.354-5.619h-0.083c0,0.537,0.123,2.644,0.123,4.545v14.875c0,0.744-0.163,0.867-0.866,0.867h-3.016      c-0.703,0-0.869-0.123-0.869-0.867v-26.568c0-0.744,0.166-0.868,0.869-0.868h3.388c0.62,0,0.702,0.082,0.95,0.537l6.818,12.809      c1.156,2.191,1.94,4.298,2.437,5.991h0.084c0-1.322-0.124-4.213-0.124-5.37v-13.099c0-0.744,0.164-0.868,0.867-0.868h3.016      c0.702,0,0.868,0.124,0.868,0.868V580.255z"/>
					
					
					
					
				
					
					
					
					<path animation_id="19" d="M440.147,580.255c0,0.744-0.165,0.867-0.868,0.867h-10.124c-0.701,0-0.867-0.123-0.867-0.867v-2.231      c0-0.744,0.166-0.868,0.867-0.868h2.273v-20.37h-2.273c-0.701,0-0.867-0.124-0.867-0.868v-2.23c0-0.744,0.166-0.868,0.867-0.868      h10.124c0.703,0,0.868,0.124,0.868,0.868v2.23c0,0.744-0.165,0.868-0.868,0.868h-2.273v20.37h2.273      c0.703,0,0.868,0.124,0.868,0.868V580.255z"/>
					
					
					
					
				
					
					
					
					<path animation_id="20" d="M466.967,578.602c0,1.736-4.876,3.223-8.264,3.223c-7.272,0-11.073-4.71-11.073-14.71      c0-9.792,3.761-14.998,11.157-14.998c3.718,0,7.685,1.818,7.685,2.521c0,0.124-0.042,0.289-0.207,0.62l-1.363,2.726      c-0.124,0.249-0.289,0.413-0.455,0.413c-0.247,0-2.562-1.817-5.371-1.817c-4.213,0-5.577,3.926-5.577,10.247      c0,6.446,1.073,10.538,5.536,10.538c1.527,0,2.604-0.496,2.975-0.662v-5.991h-3.099c-0.702,0-0.867-0.124-0.867-0.868v-2.728      c0-0.744,0.165-0.866,0.867-0.866h7.19c0.7,0,0.866,0.122,0.866,0.866V578.602z"/>
					
					
					
					
				
					
					
					
					<path animation_id="21" d="M496.021,571.536c0,6.156-2.148,10.288-9.958,10.288c-7.811,0-9.959-4.132-9.959-10.288v-17.85      c0-0.744,0.165-0.868,0.867-0.868h3.843c0.704,0,0.87,0.124,0.87,0.868v17.85c0,2.975,0.206,5.827,4.379,5.827      s4.379-2.853,4.379-5.827v-17.85c0-0.744,0.166-0.868,0.869-0.868h3.842c0.703,0,0.868,0.124,0.868,0.868V571.536z"/>
					
					
					
					
				
					
					
					
					<path animation_id="22" d="M525.403,580.255c0,0.744-0.123,0.867-0.868,0.867h-2.726c-0.58,0-0.704-0.082-0.951-0.578l-7.562-14.09      c-1.239-2.314-1.94-3.761-2.354-5.619h-0.084c0,0.537,0.124,2.644,0.124,4.545v14.875c0,0.744-0.164,0.867-0.868,0.867H507.1      c-0.703,0-0.869-0.123-0.869-0.867v-26.568c0-0.744,0.166-0.868,0.869-0.868h3.388c0.621,0,0.702,0.082,0.95,0.537l6.817,12.809      c1.157,2.191,1.942,4.298,2.438,5.991h0.084c0-1.322-0.124-4.213-0.124-5.37v-13.099c0-0.744,0.164-0.868,0.868-0.868h3.015      c0.702,0,0.868,0.124,0.868,0.868V580.255z"/>
					
					
					
					
				
					
					
					
					<path animation_id="23" d="M553.92,578.602c0,1.736-4.876,3.223-8.264,3.223c-7.272,0-11.074-4.71-11.074-14.71      c0-9.792,3.762-14.998,11.157-14.998c3.719,0,7.684,1.818,7.684,2.521c0,0.124-0.04,0.289-0.206,0.62l-1.364,2.726      c-0.122,0.249-0.287,0.413-0.453,0.413c-0.247,0-2.562-1.817-5.371-1.817c-4.215,0-5.578,3.926-5.578,10.247      c0,6.446,1.074,10.538,5.537,10.538c1.527,0,2.604-0.496,2.975-0.662v-5.991h-3.099c-0.703,0-0.867-0.124-0.867-0.868v-2.728      c0-0.744,0.164-0.866,0.867-0.866h7.19c0.7,0,0.866,0.122,0.866,0.866V578.602z"/>
					
					
					
					
			
				
				
				
				</g>
				
				
				
				
		
			
			
			
			</g>
			
			
			
			
		
			
			
			
			
			<polygon animation_id="24" clip-rule="evenodd" fill="#76B82A" fill-rule="evenodd" points="    18.786,362.089 32.117,359.732 57.364,350.882 76.005,349.82 113.166,346.988 115.291,348.404 137.705,343.215 161.303,341.091     188.333,334.635 220.988,333.438 263.378,335.834 309.513,334.036 331.233,332.09 372.427,328.495 394.294,329.693     440.28,332.689 460.951,337.631 496.749,337.032 524.611,337.631 548.877,339.43 564.604,341.826 574.793,344.385     577.737,335.033 581.06,323.102 576.537,314.164 576.139,308.572 565.803,303.63 548.877,300.634 535.546,300.634 508.283,295.84     476.679,294.642 451.215,292.096 436.485,292.297 416.163,293.441 415.564,292.096 405.828,291.497 383.959,292.695     350.105,292.096 335.576,289.699 310.112,289.699 284.047,287.303 273.714,286.104 257.385,286.703 257.185,289.1     242.457,291.497 216.792,290.898 183.391,290.898 167.063,293.295 132.162,301.45 114.229,301.805 93.937,301.805 67.629,307.703     51.466,312.304 40.259,316.552 29.285,319.383 20.555,318.676 17.015,319.738 16.423,327.496 14.216,344.385   " stroke="#76B82A" stroke-miterlimit="3.8637" stroke-width="0"/>
			
			
			
			
		
			
			
			
			
			<polygon animation_id="25" clip-rule="evenodd" fill="#F7A600" fill-rule="evenodd" points="    220.902,224.277 240.909,225.85 264.84,226.758 283.976,227.211 318.999,226.303 345.979,224.277 368.166,224.277     383.182,224.277 382.309,228.575 381.873,241.053 383.182,246.507 368.166,247.416 342.929,250.597 318.799,251.555     316.912,249.588 301.845,250.768 269.196,252.167 249.388,252.621 226.767,252.167 219.409,245.065 217.852,237.664   " stroke="#F7A600" stroke-miterlimit="3.8637" stroke-width="0"/>
			
			
			
			
		
			
			
			
			<g>
				
				
				
				
			
				
				
				
				
				<polygon animation_id="26" clip-rule="evenodd" fill="#EC6608" fill-rule="evenodd" points="     108.429,176.337 142.327,175.613 177.256,170.547 193.48,170.547 211.877,169.101 234.199,167.654 233.476,170.547      257.877,169.213 289.64,164.689 306.216,160.981 331.95,164.227 378.785,164.689 431.275,163.729 457.382,162.371      484.973,163.299 497.378,164.227 514.88,166.432 514.155,161.558 506.648,158.199 492.39,157.272 472.568,152.637      453.289,151.12 426.627,145.331 383.013,137.789 349.839,132 321.729,129.83 294.036,129.83 260.138,132.723 233.476,134.895      219.42,136.342 199.563,140.695 173.331,147.502 139.365,162.246 122.972,168.562 110.163,172.443 107.581,173.189    " stroke="#EC6608" stroke-miterlimit="3.8637" stroke-width="0"/>
				
				
				
				
			
				
				
				
				
				<polygon animation_id="27" clip-rule="evenodd" fill="#EC6608" fill-rule="evenodd" points="     118.471,171.996 120.716,180.192 127.552,181.01 133.309,183.168 140.883,178.851 146.64,173.434 151.726,162.835      161.352,151.75 187.354,139.574 196.854,130.716 198.458,132 227.348,111.812 238.521,106.055 266.623,83.709 288.248,73.635      317.068,63.902 340.854,48.411 349.148,42.274 396.337,36.518 399.935,32.92 396.337,28.223 387.985,24.704 387.985,20.211      390.085,17.789 379.001,14.9 366.076,13.452 357.062,14.172 345.172,17.77 324.712,26.629 316.515,31.938 302.862,36.751      294.024,44.132 286.323,49.763 237.08,66.779 222.311,77.232 221.591,79.635 182.317,115.07 170.424,126.242 139.356,154.492      121.795,165.52    " stroke="#EC6608" stroke-miterlimit="3.8637" stroke-width="0"/>
				
				
				
				
		
			
			
			
			</g>
			
			
			
			
		
			
			
			
			
			<polygon animation_id="28" clip-rule="evenodd" fill="#004F9F" fill-rule="evenodd" points="    402.643,280.855 409.441,284.558 417.092,285.885 422.119,287.69 429.866,281.414 434.892,277.504 436.011,270.877     434.892,262.572 440.479,238.625 445.989,210.362 447.104,194.236 452.467,180.63 444.285,177.904 435.195,180.328     432.167,178.207 415.198,180.934 409.905,198.072 409.905,213.08 409.347,224.735 407.671,227.529 403.202,244.771     404.878,256.428 402.085,265.849 399.925,279.181   " stroke="#004F9F" stroke-miterlimit="3.8637" stroke-width="0"/>
			
			
			
			
		
			
			
			
			
			<polygon animation_id="29" clip-rule="evenodd" fill="#004F9F" fill-rule="evenodd" points="    157.259,285.602 174.305,288.801 185.679,279.047 197.652,281.051 200.368,270.605 203.513,253.478 204.193,236.594     205.551,218.798 208.945,203.676 212.342,189.22 214.379,180.109 210.304,176.102 200.368,175.433 186.357,182.114     175.493,182.114 164.878,182.783 161.052,195.233 161.732,203.676 162.841,229.912 159.015,241.025 155.62,259.491     159.015,273.277 157.259,280.252   " stroke="#004F9F" stroke-miterlimit="3.8637" stroke-width="0"/>
			
			
			
			
	
		
		
		
		</g>
		
		
		
		

	
	
	
	</g>
	
	
	
	




</svg>
