<?xml version="1.0" encoding="iso-8859-1"?>
<!-- Generator: Adobe Illustrator 15.0.0, SVG Export Plug-In . SVG Version: 6.00 Build 0)  -->
<!DOCTYPE svg
  PUBLIC '-//W3C//DTD SVG 1.1//EN'
  'http://www.w3.org/Graphics/SVG/1.1/DTD/svg11.dtd'>
<svg enable-background="new 0 0 595.276 206.929" height="206.929px" id="Ebene_1" version="1.1" viewBox="-148.819 -51.73225 892.914 310.3935" width="595.276px" x="0px" xml:space="preserve" xmlns="http://www.w3.org/2000/svg" xmlns:xlink="http://www.w3.org/1999/xlink" y="0px">
	
	
	

	
	
	<g>
		
		
		
	
		
		
		<g>
			
			
			
		
			
			
			<g>
				
				
				
			
				
				
				<path animation_id="0" d="M197.098,35.733h18.315v51.334c0,23.135-11.086,31.209-28.8,31.209c-4.338,0-9.881-0.723-13.495-1.928     l2.048-14.822c2.53,0.844,5.784,1.447,9.399,1.447c7.712,0,12.532-3.496,12.532-16.027V35.733z" fill="#1B3E90"/>
				
				
				
			
				
				
				<path animation_id="1" d="M263.608,96.104l-5.784,20.846h-18.918l24.702-81.217h24.101l25.305,81.217H293.13l-6.266-20.846H263.608     z M255.896,22.96c0-4.699,3.615-8.314,8.314-8.314c4.458,0,7.953,3.496,7.953,8.314c0,4.459-3.374,8.195-8.074,8.195     C259.511,31.155,255.896,27.419,255.896,22.96z M284.213,82.368l-5.062-17.232c-1.445-4.82-2.892-10.846-4.097-15.666h-0.24     c-1.205,4.82-2.41,10.967-3.736,15.666l-4.819,17.232H284.213z M280.959,22.96c0-4.699,3.495-8.314,8.194-8.314     c4.579,0,8.073,3.496,8.073,8.314c0,4.459-3.374,8.195-8.193,8.195C284.333,31.155,280.959,27.419,280.959,22.96z" fill="#1B3E90"/>
				
				
				
			
				
				
				<path animation_id="2" d="M402.536,113.216c-5.663,1.928-16.388,4.578-27.112,4.578c-14.821,0-25.546-3.734-33.017-10.846     c-7.351-7.107-11.447-17.713-11.447-29.643c0.12-26.992,19.761-42.416,46.393-42.416c10.483,0,18.557,2.049,22.532,3.857     l-3.855,14.82c-4.459-2.049-9.881-3.494-18.797-3.494c-15.304,0-26.993,8.557-26.993,26.27c0,16.869,10.604,26.631,25.667,26.631     c4.097,0,7.471-0.482,8.917-1.086V84.776h-12.532V70.438h30.245V113.216z" fill="#1B3E90"/>
				
				
				
			
				
				
				<path animation_id="3" d="M484.468,82.608h-29.885v19.279h33.379v15.062h-51.694V35.733h50.008v15.062h-31.692v16.871h29.885     V82.608z" fill="#1B3E90"/>
				
				
				
			
				
				
				<path animation_id="4" d="M519.768,36.819c5.904-0.965,14.581-1.688,24.462-1.688c12.05,0,20.485,1.807,26.269,6.385     c4.941,3.857,7.592,9.641,7.592,17.113c0,10.242-7.351,17.352-14.34,19.881v0.361c5.663,2.291,8.797,7.592,10.845,15.062     c2.53,9.279,4.94,19.883,6.508,23.016h-18.798c-1.206-2.41-3.255-8.916-5.544-18.918c-2.288-10.242-5.784-12.895-13.375-13.014     h-5.423v31.932h-18.195V36.819z M537.963,71.763h7.23c9.158,0,14.581-4.578,14.581-11.688c0-7.352-5.062-11.207-13.497-11.207     c-4.458,0-6.988,0.24-8.314,0.602V71.763z" fill="#1B3E90"/>
				
				
				
		
			
			
			</g>
			
			
			
		
			
			
			<rect animation_id="5" fill="#E83E33" height="40.184" width="40.181" x="174.903" y="152.101"/>
			
			
			
		
			
			
			<rect animation_id="6" fill="#E83E33" height="40.184" width="40.182" x="94.538" y="152.101"/>
			
			
			
		
			
			
			<rect animation_id="7" fill="#E83E33" height="40.184" width="40.182" x="14.173" y="152.101"/>
			
			
			
		
			
			
			<rect animation_id="8" fill="#E83E33" height="40.184" width="40.182" x="255.267" y="152.101"/>
			
			
			
	
		
		
		</g>
		
		
		

	
	
	</g>
	
	
	



</svg>
