<?xml version="1.0" encoding="iso-8859-1"?>
<svg height="225pt" version="1.2" viewBox="-56.2199975 -56.25 337.319985 337.5" width="224.87999pt" xmlns="http://www.w3.org/2000/svg" xmlns:xlink="http://www.w3.org/1999/xlink">
	
	
	
	
	

	
	
	
	
	<defs>
		
		
		
		
		

		
		
		
		
		<clipPath id="clip1">
			
			
			
			
			
  
			
			
			
			
			<path animation_id="0" d="M 0 0.0585938 L 224.761719 0.0585938 L 224.761719 224.9375 L 0 224.9375 Z M 0 0.0585938 "/>
			
			
			
			
			

		
		
		
		
		</clipPath>
		
		
		
		
		

		
		
		
		
		<clipPath id="clip2">
			
			
			
			
			
  
			
			
			
			
			<path animation_id="1" d="M 93 85 L 131.804688 85 L 131.804688 140 L 93 140 Z M 93 85 "/>
			
			
			
			
			

		
		
		
		
		</clipPath>
		
		
		
		
		

	
	
	
	
	</defs>
	
	
	
	
	

	
	
	
	
	<g id="surface1">
		
		
		
		
		

		
		
		
		
		<g clip-path="url(#clip1)" clip-rule="nonzero">
			
			
			
			
			

			
			
			
			
			<path animation_id="2" d="M 0 0.0585938 L 224.878906 0.0585938 L 224.878906 224.941406 L 0 224.941406 Z M 0 0.0585938 " style=" stroke:none;fill-rule:nonzero;fill:rgb(100%,100%,100%);fill-opacity:1;"/>
			
			
			
			
			

			
			
			
			
			<path animation_id="3" d="M 0 0.0585938 L 224.878906 0.0585938 L 224.878906 224.941406 L 0 224.941406 Z M 0 0.0585938 " style=" stroke:none;fill-rule:nonzero;fill:rgb(100%,100%,100%);fill-opacity:1;"/>
			
			
			
			
			

		
		
		
		
		</g>
		
		
		
		
		

		
		
		
		
		<g clip-path="url(#clip2)" clip-rule="nonzero">
			
			
			
			
			

			
			
			
			
			<path animation_id="4" d="M 114.316406 106.761719 C 116.855469 103.285156 124.011719 102.984375 124.191406 108.445312 C 124.222656 109.359375 124.011719 110.261719 123.800781 111.152344 C 126.160156 108.699219 127.074219 104.917969 126.101562 101.636719 C 125.363281 99.144531 123.558594 97.019531 121.285156 95.824219 C 120.328125 95.320312 119.171875 95.222656 118.351562 94.53125 C 117.3125 93.652344 116.507812 92.554688 115.382812 91.738281 C 111.078125 88.601562 105.347656 87.5625 100.214844 88.863281 C 97.753906 89.492188 95.453125 90.609375 93.390625 92.09375 L 93.390625 85.835938 L 131.234375 85.835938 L 131.234375 139.507812 L 126.109375 139.507812 C 124.386719 134.71875 122.074219 130.148438 119.230469 125.945312 C 117.25 123.019531 114.992188 120.226562 113.695312 116.929688 C 112.398438 113.632812 112.230469 109.613281 114.316406 106.761719 Z M 114.316406 106.761719 " style=" stroke:none;fill-rule:nonzero;fill:rgb(45.098877%,29.798889%,13.729858%);fill-opacity:1;"/>
			
			
			
			
			

		
		
		
		
		</g>
		
		
		
		
		

		
		
		
		
		<path animation_id="5" d="M 105.710938 94.507812 C 106.902344 94.476562 108.125 94.460938 109.253906 94.84375 C 110.386719 95.226562 111.433594 96.078125 111.734375 97.25 C 110.585938 97.175781 109.335938 97.398438 108.246094 97.488281 C 107.375 97.5625 106.476562 97.636719 105.636719 97.390625 C 104.121094 96.941406 103.273438 95.714844 102.34375 94.421875 C 103.484375 94.59375 104.519531 94.539062 105.710938 94.507812 Z M 105.710938 94.507812 " style=" stroke:none;fill-rule:nonzero;fill:rgb(45.098877%,29.798889%,13.729858%);fill-opacity:1;"/>
		
		
		
		
		

		
		
		
		
		<path animation_id="6" d="M 102.902344 126.070312 C 103.445312 131.058594 105.644531 135.84375 109.03125 139.507812 L 103.871094 139.507812 C 102.332031 135.234375 101.992188 130.523438 102.902344 126.070312 Z M 102.902344 126.070312 " style=" stroke:none;fill-rule:nonzero;fill:rgb(45.098877%,29.798889%,13.729858%);fill-opacity:1;"/>
		
		
		
		
		

	
	
	
	
	</g>
	
	
	
	
	





</svg>
