<?xml version="1.0" encoding="iso-8859-1"?>
<!-- Generator: Adobe Illustrator 15.0.0, SVG Export Plug-In . SVG Version: 6.00 Build 0)  -->
<!DOCTYPE svg
  PUBLIC '-//W3C//DTD SVG 1.1//EN'
  'http://www.w3.org/Graphics/SVG/1.1/DTD/svg11.dtd'>
<svg enable-background="new 0 0 595.276 206.929" height="206.929px" id="Ebene_1" version="1.1" viewBox="0 0 595.276 206.929" width="595.276px" x="0px" xml:space="preserve" xmlns="http://www.w3.org/2000/svg" xmlns:xlink="http://www.w3.org/1999/xlink" y="0px">
	
	

	
	<g>
		
		
	
		
		<g>
			
			
		
			
			<g>
				
				
			
				
				<path animation_id="0" d="M207.362,36.171v70.307c0,11.301-0.376,13.561-1.255,17.076c-2.511,10.67-12.43,17.451-20.339,20.465     l-8.16-9.041c4.519-2.762,8.662-7.029,10.169-10.547c1.381-3.137,1.758-6.652,1.758-16.068V36.171H207.362z" fill="#1B3E90"/>
				
				
			
				
				<path animation_id="1" d="M278.545,35.921l27.497,87.506h-18.833l-6.152-20.715h-25.611l-6.152,20.715h-18.33l28.626-87.506     H278.545z M265.489,23.616c0,5.273-4.395,9.668-9.668,9.668c-5.147,0-9.541-4.395-9.541-9.668s4.52-9.668,9.793-9.668     C261.22,13.948,265.489,18.343,265.489,23.616z M276.789,88.149c0,0-2.888-9.166-4.771-17.578     c-0.879-4.018-3.515-15.441-3.515-15.441s-2.511,10.295-4.144,16.822c-1.633,6.277-2.762,10.42-4.646,16.197H276.789z      M282.312,33.284c-5.273,0-9.541-4.395-9.541-9.668s4.394-9.668,9.792-9.668c5.147,0,9.416,4.395,9.416,9.668     S287.585,33.284,282.312,33.284z" fill="#1B3E90"/>
				
				
			
				
				<path animation_id="2" d="M382.118,55.757c-5.649-4.645-11.551-6.779-18.205-6.779c-5.147,0-9.541,1.506-12.555,4.395     c-5.901,5.648-7.408,15.064-7.408,28.123c0,12.428,2.137,20.463,6.53,24.857c3.264,3.139,8.035,4.896,13.685,4.896     c3.891,0,7.03-0.627,9.918-2.135V89.278h-13.309l-2.259-14.312h33.771v41.682c-8.913,5.273-18.706,7.783-29.001,7.783     c-13.057,0-22.725-4.268-29.755-13.307c-6.402-8.16-9.292-17.451-9.292-30.51c0-18.455,6.027-31.512,18.206-39.672     c6.403-4.27,12.932-6.152,21.217-6.152c10.547,0,20.088,3.389,27.747,10.043L382.118,55.757z" fill="#1B3E90"/>
				
				
			
				
				<path animation_id="3" d="M480.415,36.171l-2.258,14.312h-29.883v20.213h24.985v14.312h-24.733v23.354h33.02v15.064h-50.847V36.171     H480.415z" fill="#1B3E90"/>
				
				
			
				
				<path animation_id="4" d="M550.343,36.171c15.442,0,25.611,10.295,25.611,25.613c0,13.057-8.662,23.854-19.459,24.104     c1.757,1.381,2.51,2.135,3.641,3.643c5.021,6.277,20.966,33.896,20.966,33.896h-20.716c-3.39-5.773-4.771-8.16-8.161-14.312     c-8.662-15.693-11.298-19.961-14.438-21.342c-0.879-0.377-1.633-0.629-2.762-0.754v36.408h-17.199V36.171H550.343z      M535.025,73.835h5.901c7.533,0,10.797-0.752,13.183-2.887c2.134-2.01,3.389-5.148,3.389-8.789c0-5.398-2.134-9.164-6.276-10.672     c-2.009-0.752-5.649-1.256-9.92-1.256h-6.276V73.835z" fill="#1B3E90"/>
				
				
		
			
			</g>
			
			
		
			
			<rect animation_id="5" fill="#EB5D0B" height="131.109" width="18.73" x="89.093" y="61.872"/>
			
			
		
			
			<rect animation_id="6" fill="#EB5D0B" height="131.109" width="18.73" x="126.552" y="61.872"/>
			
			
		
			
			<rect animation_id="7" fill="#EB5D0B" height="131.109" width="18.729" x="51.633" y="61.872"/>
			
			
		
			
			<rect animation_id="8" fill="#EB5D0B" height="131.109" width="18.729" x="14.174" y="61.872"/>
			
			
	
		
		</g>
		
		

	
	</g>
	
	


</svg>
