<?xml version="1.0" encoding="iso-8859-1"?>
<!-- Generator: Adobe Illustrator 15.0.0, SVG Export Plug-In . SVG Version: 6.00 Build 0)  -->
<!DOCTYPE svg
  PUBLIC '-//W3C//DTD SVG 1.1//EN'
  'http://www.w3.org/Graphics/SVG/1.1/DTD/svg11.dtd'>
<svg enable-background="new 0 0 595.275 320.315" height="320.315px" version="1.1" viewBox="0 0 595.275 320.315" width="595.275px" x="0px" xml:space="preserve" xmlns="http://www.w3.org/2000/svg" xmlns:xlink="http://www.w3.org/1999/xlink" y="0px">
	
	
	

	
	
	<g id="Hintergrund">
</g>
	
	
	

	
	
	<g display="none" id="Hilfslinien">
</g>
	
	
	

	
	
	<g id="Vordergrund">
		
		
		
	
		
		
		<g>
			
			
			
		
			
			
			<g>
				
				
				
			
				
				
				<path animation_id="0" d="M45.065,240.185c0.442,1.59,0.706,2.826,0.796,4.24c2.032-2.475,6.537-4.24,11.129-4.24     c3.18,0,6.448,1.061,8.921,2.738c4.858,3.268,8.391,9.098,8.391,19.521c0,9.716-1.59,14.663-6.271,19.697     c-3.092,3.269-7.155,5.123-12.102,5.123c-3.532,0-6.889-0.883-9.452-2.385c0.177,1.061,0.177,2.385,0.177,3.71v14.134     l-11.395,3.003v-52.293c0-5.918-0.089-7.597-0.706-11.394L45.065,240.185z M53.28,277.902c5.83,0,8.126-3.975,8.126-14.31     c0-4.328-0.353-7.773-1.148-9.982c-0.883-2.473-2.738-3.798-5.653-3.798c-2.915,0-5.741,1.237-7.86,3.445v21.993     C48.334,276.577,50.896,277.902,53.28,277.902z" fill="#9D9D9C"/>
				
				
				
			
				
				
				<path animation_id="1" d="M94.703,240.008c1.061,1.854,1.679,3.886,1.856,6.448c1.677-2.297,4.504-4.771,6.712-5.742     c0.972-0.441,2.562-0.706,3.886-0.706c1.767,0,2.562,0.177,4.417,0.972l-3.268,10.422c-1.15-0.617-2.121-0.883-3.446-0.883     c-2.649,0-5.035,1.237-7.244,3.799v31.977H85.782v-30.21c0-6.095-0.706-10.688-1.677-13.249L94.703,240.008z" fill="#9D9D9C"/>
				
				
				
			
				
				
				<path animation_id="2" d="M134.625,228.612c0,4.064-3.269,7.332-7.331,7.332c-3.975,0-7.245-3.268-7.245-7.332     c0-4.062,3.357-7.331,7.421-7.331C131.446,221.281,134.625,224.55,134.625,228.612z M133.213,240.008v46.286h-11.838v-44.432     L133.213,240.008z" fill="#9D9D9C"/>
				
				
				
			
				
				
				<path animation_id="3" d="M157.324,240.272c0.794,1.237,1.148,2.297,1.59,4.594c3.091-3.004,6.889-4.594,11.04-4.594     c3.711,0,6.803,1.237,9.188,3.71c0.618,0.618,1.237,1.413,1.767,2.208c4.151-4.24,7.862-5.918,12.809-5.918     c3.532,0,6.889,1.061,8.92,2.826c2.562,2.209,3.357,4.859,3.357,11.043v32.152h-11.483v-29.856c0-5.388-0.619-6.448-3.709-6.448     c-2.208,0-5.3,1.502-7.861,3.799v32.506h-11.219v-29.415c0-5.653-0.794-6.978-4.064-6.978c-2.207,0-5.211,1.148-7.772,3.445     v32.947h-11.571v-31.535c0-6.537-0.442-9.363-1.679-11.571L157.324,240.272z" fill="#9D9D9C"/>
				
				
				
			
				
				
				<path animation_id="4" d="M257.929,281.259c-5.211,4.24-10.689,6.271-17.049,6.271c-12.984,0-21.375-9.186-21.375-23.408     c0-8.127,1.678-13.516,5.653-17.932c3.709-4.15,8.214-6.095,14.222-6.095c5.211,0,10.157,1.767,13.072,4.771     c4.152,4.24,6.007,10.334,6.007,19.786c0,0.972,0,1.942,0,2.739h-26.147v0.352c0,6.979,3.446,10.953,9.54,10.953     c4.063,0,7.862-1.5,11.484-4.504L257.929,281.259z M246.18,258.733v-0.529c0-3.357-0.354-5.123-1.414-6.803     c-1.148-1.766-2.826-2.648-5.211-2.648c-4.505,0-7.067,3.532-7.067,9.805v0.176H246.18z" fill="#9D9D9C"/>
				
				
				
			
				
				
				<path animation_id="5" d="M295.638,240.185c0.442,1.59,0.706,2.826,0.796,4.24c2.032-2.475,6.537-4.24,11.129-4.24     c3.181,0,6.448,1.061,8.922,2.738c4.858,3.268,8.391,9.098,8.391,19.521c0,9.716-1.59,14.663-6.271,19.697     c-3.092,3.269-7.155,5.123-12.102,5.123c-3.533,0-6.89-0.883-9.453-2.385c0.177,1.061,0.177,2.385,0.177,3.71v14.134     l-11.394,3.003v-52.293c0-5.918-0.089-7.597-0.707-11.394L295.638,240.185z M303.854,277.902c5.83,0,8.126-3.975,8.126-14.31     c0-4.328-0.353-7.773-1.147-9.982c-0.884-2.473-2.739-3.798-5.653-3.798c-2.915,0-5.741,1.237-7.861,3.445v21.993     C298.908,276.577,301.469,277.902,303.854,277.902z" fill="#9D9D9C"/>
				
				
				
			
				
				
				<path animation_id="6" d="M373.542,281.259c-5.211,4.24-10.688,6.271-17.048,6.271c-12.984,0-21.376-9.186-21.376-23.408     c0-8.127,1.678-13.516,5.653-17.932c3.709-4.15,8.215-6.095,14.222-6.095c5.212,0,10.157,1.767,13.072,4.771     c4.151,4.24,6.007,10.334,6.007,19.786c0,0.972,0,1.942,0,2.739h-26.146v0.352c0,6.979,3.445,10.953,9.541,10.953     c4.062,0,7.86-1.5,11.481-4.504L373.542,281.259z M361.794,258.733v-0.529c0-3.357-0.354-5.123-1.413-6.803     c-1.148-1.766-2.827-2.648-5.212-2.648c-4.506,0-7.066,3.532-7.066,9.805v0.176H361.794z" fill="#9D9D9C"/>
				
				
				
			
				
				
				<path animation_id="7" d="M420.883,246.985c3.622,4.24,5.212,9.188,5.212,16.518c0,7.773-1.766,13.074-5.654,17.49     c-3.443,3.887-7.949,6.271-14.928,6.271c-12.277,0-20.316-9.186-20.316-23.407s8.126-23.673,20.316-23.673     C411.961,240.185,416.997,242.394,420.883,246.985z M399.595,253.522c-0.794,2.385-1.235,5.564-1.235,10.07     c0,5.211,0.528,9.098,1.5,11.395c1.061,2.473,3.711,3.709,6.008,3.709c5.123,0,7.331-4.593,7.331-15.281     c0-6.094-0.794-10.068-2.385-12.102c-1.147-1.501-3.004-2.384-5.123-2.384C402.863,248.93,400.566,250.696,399.595,253.522z" fill="#9D9D9C"/>
				
				
				
			
				
				
				<path animation_id="8" d="M449.411,240.185c0.441,1.59,0.706,2.826,0.796,4.24c2.031-2.475,6.536-4.24,11.13-4.24     c3.179,0,6.446,1.061,8.92,2.738c4.858,3.268,8.393,9.098,8.393,19.521c0,9.716-1.591,14.663-6.271,19.697     c-3.092,3.269-7.155,5.123-12.103,5.123c-3.532,0-6.89-0.883-9.451-2.385c0.177,1.061,0.177,2.385,0.177,3.71v14.134     l-11.394,3.003v-52.293c0-5.918-0.09-7.597-0.707-11.394L449.411,240.185z M457.625,277.902c5.831,0,8.128-3.975,8.128-14.31     c0-4.328-0.354-7.773-1.148-9.982c-0.884-2.473-2.739-3.798-5.654-3.798s-5.741,1.237-7.86,3.445v21.993     C452.681,276.577,455.241,277.902,457.625,277.902z" fill="#9D9D9C"/>
				
				
				
			
				
				
				<path animation_id="9" d="M503.377,232.677v35.244c0,7.773,0.088,8.833,0.795,10.07c0.441,0.795,1.413,1.236,2.385,1.236     c0.441,0,0.707,0,1.325-0.178l2.032,7.066c-2.032,0.795-4.506,1.236-7.067,1.236c-5.035,0-9.099-2.385-10.512-6.182     c-0.884-2.297-1.06-3.711-1.06-10.158v-33.744c0-5.918-0.177-9.539-0.62-13.603l12.103-2.737     C503.2,223.401,503.377,226.317,503.377,232.677z" fill="#9D9D9C"/>
				
				
				
			
				
				
				<path animation_id="10" d="M559.375,281.259c-5.211,4.24-10.688,6.271-17.049,6.271c-12.983,0-21.376-9.186-21.376-23.408     c0-8.127,1.679-13.516,5.654-17.932c3.709-4.15,8.214-6.095,14.222-6.095c5.212,0,10.156,1.767,13.072,4.771     c4.151,4.24,6.007,10.334,6.007,19.786c0,0.972,0,1.942,0,2.739h-26.146v0.352c0,6.979,3.445,10.953,9.539,10.953     c4.063,0,7.861-1.5,11.483-4.504L559.375,281.259z M547.627,258.733v-0.529c0-3.357-0.354-5.123-1.413-6.803     c-1.148-1.766-2.827-2.648-5.212-2.648c-4.506,0-7.066,3.532-7.066,9.805v0.176H547.627z" fill="#9D9D9C"/>
				
				
				
		
			
			
			</g>
			
			
			
		
			
			
			<g>
				
				
				
			
				
				
				
				<polygon animation_id="12" clip-rule="evenodd" fill="#9D9D9C" fill-rule="evenodd" points="     580.771,105.702 559.808,99.013 542.411,89.841 512.652,73.192 498.994,67.011 482.145,60.282 459.313,54.101 441.919,49.614      434.987,46.626 429.666,43.11 404.457,34.331 372.59,29.22 351.344,25.229 324.552,22.835 312.344,19.32 297.437,18.522      272.932,17.612 243.374,14.589 218.099,19.854 197.713,23.795 165.709,29.774 119.302,41.19 101.704,51.11 91.037,55.596      71.197,80.87 62.973,89.841 43.133,122.592 33.96,130.269 14.505,137.954 76.722,126.327 100.867,118.197 118.284,110.491      135.745,103.55 164.83,90.302 190.24,82.506 211.78,76.206 234.61,72.958 258.087,70.36 272.185,71.697 285.096,72.444      303.44,75.436 317.099,79.376 332.999,82.366 365.749,86.103 384.095,89.841 419.089,93.781 434.987,99.013 455.575,103.701      488.326,110.429 515.643,112.671 543.906,114.368 556.07,117.358 565.99,120.349    " stroke="#9D9D9C" stroke-miterlimit="3.8637" stroke-width="0"/>
				
				
				
			
				
				
				
				<circle animation_id="11" clip-rule="evenodd" cx="267.302" cy="152.11" fill="#164194" fill-rule="evenodd" r="50.559" stroke="#164194" stroke-miterlimit="3.8637" stroke-width="0"/>
				
				
				
		
			
			
			</g>
			
			
			
	
		
		
		</g>
		
		
		

	
	
	</g>
	
	
	



</svg>
