<?xml version="1.0" encoding="iso-8859-1"?>
<!-- Generator: Adobe Illustrator 15.0.0, SVG Export Plug-In . SVG Version: 6.00 Build 0)  -->
<!DOCTYPE svg
  PUBLIC '-//W3C//DTD SVG 1.1//EN'
  'http://www.w3.org/Graphics/SVG/1.1/DTD/svg11.dtd'>
<svg xmlns="http://www.w3.org/2000/svg" xmlns:xlink="http://www.w3.org/1999/xlink" version="1.1" x="0px" y="0px" width="595.275px" height="357.165px" viewBox="0 0 595.275 357.165" enable-background="new 0 0 595.275 357.165" xml:space="preserve">
	
	

	
	<g id="Hintergrund">
</g>
	
	

	
	<g id="Hilfslinien" display="none">
</g>
	
	

	
	<g id="Vordergrund">
		
		
	
		
		<g>
			
			
		
			
			
			<polygon fill-rule="evenodd" clip-rule="evenodd" fill="#EC6608" stroke="#EC6608" stroke-width="0" stroke-miterlimit="3.8637" points="    109.065,260.988 191.583,283.727 179.937,342.34 85.136,312.58   " animation_id="25"/>
			
			
		
			
			
			<polygon fill-rule="evenodd" clip-rule="evenodd" fill="#EC6608" stroke="#EC6608" stroke-width="0" stroke-miterlimit="3.8637" points="    231.784,55.836 174.116,28.834 151.949,54.15 225.128,88.094   " animation_id="26"/>
			
			
		
			
			
			<polygon fill-rule="evenodd" clip-rule="evenodd" fill="#EC6608" stroke="#EC6608" stroke-width="0" stroke-miterlimit="3.8637" points="    246.758,33.076 291.894,19.613 324.817,40.59 275.285,67.516   " animation_id="27"/>
			
			
		
			
			
			<polygon fill-rule="evenodd" clip-rule="evenodd" fill="#EC6608" stroke="#EC6608" stroke-width="0" stroke-miterlimit="3.8637" points="    347.49,26.824 394.081,14.824 430.875,39.779 354.802,50.307   " animation_id="28"/>
			
			
		
			
			<g>
				
				
			
				
				
				
			
				
				
				
			
				
				<path d="M374.57,200.932c-10.7,0-19.055-2.65-26.188-6.42l6.42-14.266c5.095,2.955,12.737,5.705,19.972,5.705     c7.134,0,9.986-2.648,9.986-6.52c0-3.16-2.241-4.484-7.133-5.809l-8.355-2.141c-10.292-2.75-17.323-8.355-17.323-20.582     c0-14.062,11.616-23.438,27.513-23.438c9.884,0,19.055,2.547,25.372,6.93l-8.763,12.941c-4.789-3.16-11.107-4.994-15.998-4.994     c-4.687,0-7.234,2.242-7.234,5.096c0,2.344,1.63,4.686,6.929,6.012l7.235,1.834c7.643,1.936,18.646,5.4,18.646,19.666     C405.648,191.965,393.014,200.932,374.57,200.932z" animation_id="2"/>
				
				
			
				
				
				
			
				
				<path d="M562.863,199.709v-29.857h-14.57v29.857h-18.241v-71.023h18.241v26.086h14.57v-26.086h18.239v71.023H562.863z" animation_id="4"/>
				
				
		
			
			</g>
			
			
		
			
			<g>
				
				
			
				
				
				
			
				
				
				
			
				
				
				
			
				
				
				
			
				
				
				
			
				
				
				
			
				
				
				
			
				
				
				
			
				
				
				
			
				
				
				
			
				
				
				
			
				
				
				
			
				
				
				
			
				
				
				
			
				
				
				
			
				
				
				
			
				
				
				
			
				
				
				
			
				
				
				
			
				
				
				
		
			
			</g>
			
			
		
			
			
			<polygon fill-rule="evenodd" clip-rule="evenodd" fill="#EC6608" stroke="#EC6608" stroke-width="0" stroke-miterlimit="3.8637" points="    80.652,101.125 158.198,87.139 168.242,126.436 70.666,139.49   " animation_id="29"/>
			
			
		
			
			
			<polygon fill-rule="evenodd" clip-rule="evenodd" fill="#EC6608" stroke="#EC6608" stroke-width="0" stroke-miterlimit="3.8637" points="    14.173,195.281 82.762,167.447 127.716,197.361 48.272,242.441   " animation_id="30"/>
			
			
		
			
			
			
			
	
		
		</g>
		
		

	
	</g>
	
	


</svg>
