<?xml version="1.0" encoding="iso-8859-1"?>
<!-- Generator: Adobe Illustrator 15.0.0, SVG Export Plug-In . SVG Version: 6.00 Build 0)  -->
<!DOCTYPE svg
  PUBLIC '-//W3C//DTD SVG 1.1//EN'
  'http://www.w3.org/Graphics/SVG/1.1/DTD/svg11.dtd'>
<svg xmlns="http://www.w3.org/2000/svg" xmlns:xlink="http://www.w3.org/1999/xlink" version="1.1" x="0px" y="0px" width="595.275px" height="198.425px" viewBox="0 0 595.275 198.425" enable-background="new 0 0 595.275 198.425" xml:space="preserve">
	
	

	
	<g id="Hintergrund">
</g>
	
	

	
	<g id="Hilfslinien" display="none">
</g>
	
	

	
	<g id="Vordergrund">
		
		
	
		
		<g>
			
			
		
			
			
			<rect x="31.414" y="162.293" fill-rule="evenodd" clip-rule="evenodd" fill="#F7A600" stroke="#F7A600" stroke-width="0" stroke-miterlimit="3.8637" width="171.728" height="20.606" animation_id="27"/>
			
			
		
			
			
			<polygon fill-rule="evenodd" clip-rule="evenodd" fill="#EC6608" stroke="#EC6608" stroke-width="0" stroke-miterlimit="3.8637" points="    48.587,83.297 117.278,14.606 185.969,83.297 172.231,97.036 117.278,42.083 62.325,97.036   " animation_id="26"/>
			
			
		
			
			<g>
				
				
			
				
				<g>
					
					
				
					
					<path d="M284.51,141.385c-0.502,2.011-0.879,2.262-2.765,2.262h-41.462c-2.136,0-2.639-0.377-2.639-2.639V60.219      c0-2.262,0.503-2.639,2.639-2.639h11.686c2.136,0,2.638,0.377,2.638,2.639v68.351h30.281c1.759,0,2.261,0.628,2.261,1.633      c0,0.377-0.125,1.131-0.25,1.634L284.51,141.385z" animation_id="0"/>
					
					
				
					
					<path d="M360.778,136.987c0.25,0.377,0.376,0.88,0.376,1.382c0,3.267-12.564,7.413-22.49,7.413      c-16.585,0-28.145-9.424-28.145-32.542c0-19.977,10.68-33.798,27.516-33.798c21.36,0,25.129,19.098,25.129,34.301      c0,2.388-0.502,3.141-2.89,3.141h-33.798c0,7.036,2.01,15.706,13.82,15.706c9.047,0,14.197-4.146,15.957-4.146      c0.629,0,1.131,0.502,1.382,1.005L360.778,136.987z M346.202,105.199c0-5.151-0.377-14.072-9.047-14.072      c-9.799,0-10.303,10.554-10.679,14.072H346.202z" animation_id="1"/>
					
					
				
					
					<path d="M428.374,94.142c-0.252,0.629-0.88,1.132-1.005,1.132c-0.378,0-6.534-3.267-14.576-3.267      c-4.773,0-8.292,1.759-8.292,6.03c0,6.785,11.309,6.282,20.229,12.188c4.899,3.267,8.417,8.042,8.417,15.329      c0,11.56-8.167,20.229-21.485,20.229c-9.297,0-23.621-4.774-23.621-8.166c0-0.378,0.504-1.132,0.629-1.635l2.764-7.161      c0.253-0.628,0.503-1.131,1.006-1.131c0.502,0,10.177,5.528,17.968,5.528c4.146,0,7.663-1.759,7.663-6.282      c0-7.288-12.312-7.288-20.605-12.815c-3.769-2.513-7.413-6.911-7.413-14.198c0-11.434,8.67-20.479,22.239-20.479      c7.664,0,19.602,3.267,19.602,6.156c0,0.377-0.377,1.131-0.629,1.634L428.374,94.142z" animation_id="2"/>
					
					
				
					
					
					
				
					
					<path d="M581.033,141.888c0,1.382-0.252,1.759-1.76,1.759h-12.439c-1.507,0-1.759-0.377-1.759-1.759v-38.699      c0-4.774-0.627-10.554-7.036-10.554c-5.277,0-9.045,3.77-10.68,5.276v43.977c0,1.382-0.251,1.759-1.759,1.759h-12.438      c-1.508,0-1.759-0.377-1.759-1.759V57.454c0-1.885,0.879-1.885,2.387-2.262l10.555-2.136c0.376,0,1.507-0.377,1.759-0.377      c1.005,0,1.256,0.502,1.256,2.638v31.287c3.393-2.766,8.419-7.162,17.339-7.162c13.319,0,16.335,8.92,16.335,19.852V141.888z" animation_id="4"/>
					
					
			
				
				</g>
				
				
			
				
				<g>
					
					
				
					
					
					
				
					
					
					
				
					
					
					
				
					
					
					
				
					
					
					
				
					
					
					
				
					
					
					
				
					
					
					
				
					
					
					
				
					
					
					
				
					
					
					
				
					
					
					
				
					
					
					
				
					
					
					
				
					
					
					
				
					
					
					
				
					
					
					
				
					
					
					
				
					
					
					
			
				
				</g>
				
				
		
			
			</g>
			
			
		
			
			<path fill="#76B82A" stroke="#76B82A" stroke-width="0" stroke-miterlimit="3.8637" d="M14.242,90.167    c0-28.453,23.065-51.52,51.518-51.52c2.549,0,5.055,0.187,7.504,0.544c-5.967,5.725-6.863,6.633-12.316,11.861    c-3.874,3.715-4.67,4.511-9.268,8.686c-1.58,1.433-1.024,1.043-3.093,1.713c-5.367,1.738-8.193,7.133-10.757,11.646    c-4.21,7.404-4.863,15.592-2.733,23.809c2.525,9.643,11.255,20.04,22.12,22.705c4.249,1.042,10.261,1.292,10.261,1.447    c0,0.33,0-0.231,0,1.188c0,3.354,0,4.931,0,8.048c0,2.722,0,4.22,0,6.943c0,1.036,0,1.738,0,2.985c0,0.866,0,0.878,0,1.463    c-0.621,0.022-1.091,0-1.717,0C37.307,141.685,14.242,118.619,14.242,90.167z" animation_id="24"/>
			
			
		
			
			<path fill="#FFFFFF" stroke="#FFFFFF" stroke-width="0" stroke-miterlimit="3.8637" d="M33.131,88.449    c0-16.429,12.142-30.021,27.941-32.294c-0.967,1.219-2,2.455-3.278,3.934c-1.386,1.619-1.851,3.235-3.839,4.115    c-4.77,2.102-6.741,4.95-9.305,9.463c-4.21,7.405-6.793,12.947-4.664,21.163c2.525,9.644,8.148,14.17,16.631,19.319    c3.742,2.266,6.551,2.119,10.295,4.385c0.9,0.541,0.634,1.478,0.466,2.504c-0.536,0.025-1.077,0.039-1.619,0.039    C47.74,121.077,33.131,106.47,33.131,88.449z" animation_id="25"/>
			
			
		
			
			
			
			
	
		
		</g>
		
		

	
	</g>
	
	


</svg>
