<?xml version="1.0" encoding="iso-8859-1"?>
<!-- Generator: Adobe Illustrator 15.0.0, SVG Export Plug-In . SVG Version: 6.00 Build 0)  -->
<!DOCTYPE svg
  PUBLIC '-//W3C//DTD SVG 1.1//EN'
  'http://www.w3.org/Graphics/SVG/1.1/DTD/svg11.dtd'>
<svg xmlns="http://www.w3.org/2000/svg" xmlns:xlink="http://www.w3.org/1999/xlink" version="1.1" x="0px" y="0px" width="595.275px" height="243.78px" viewBox="0 0 595.275 243.78" enable-background="new 0 0 595.275 243.78" xml:space="preserve">
	
	

	
	<g id="Hintergrund">
</g>
	
	

	
	<g id="Hilfslinien" display="none">
</g>
	
	

	
	<g id="Vordergrund">
		
		
	
		
		<g>
			
			
		
			
			<g>
				
				
			
				
				
				<polygon fill-rule="evenodd" clip-rule="evenodd" fill="#164194" stroke="#164194" stroke-width="0" stroke-miterlimit="3.8637" points="     65.278,22.828 66.966,20.943 68.75,19.34 70.472,18.398 71.41,18.304 73.193,17.422 76.417,15.82 77.917,14.972 80.733,14.5      83.454,14.406 86.208,14.594 89.211,15.349 93.279,16.385 96.657,17.611 98.285,18.681 99.037,19.623 99.787,20.283      100.63,20.754 101.851,21.603 102.79,22.734 103.822,24.336 104.666,26.16 105.544,28.988 106.294,30.495 107.42,32.475      108.077,34.205 108.171,35.901 108.077,37.598 107.326,38.635 106.952,39.576 106.858,41.684 106.952,43.663 106.764,46.49      105.826,49.068 104.948,50.105 103.822,51.143 102.32,52.839 101.006,54.475 98.005,56.453 94.499,57.207 91.966,57.867      88.835,59.281 88.085,59.47 84.519,60.695 82.046,60.695 80.169,60.411 77.825,59.47 75.915,58.81 74.225,58.434 73.005,57.68      71.222,55.889 69.346,55.229 68.28,54.568 67.154,53.404 66.592,52.367 66.028,51.049 65.466,50.012 64.714,49.162      64.152,48.409 63.776,47.749 63.495,47.057 62.462,45.925 61.96,45.171 61.867,44.323 61.96,43.568 61.679,42.815 61.397,41.589      61.397,40.271 61.679,39.012 61.679,37.126 61.491,35.995 61.21,34.582 61.116,33.262 61.116,31.532 61.491,29.742      62.181,28.328 62.932,27.103 63.776,25.089 64.058,24.148 64.621,23.393    " animation_id="11"/>
				
				
			
				
				
				<polygon fill-rule="evenodd" clip-rule="evenodd" fill="#164194" stroke="#164194" stroke-width="0" stroke-miterlimit="3.8637" points="     15.697,74.133 19.711,74.619 22.865,74.295 26.178,73.809 27.983,74.133 30.98,74.133 32.399,74.133 34.836,74.133      36.255,74.457 38.937,74.78 40.198,74.78 42.793,75.016 45.79,75.178 49.172,74.854 50.75,73.809 52.169,73.646 55.166,73.646      59.653,73.646 70.675,74.457 84.381,74.78 86.905,74.457 88.639,73.809 89.901,73.159 93.127,72.512 101.871,72.512      111.248,72.674 115.735,73.159 120.379,73.159 121.799,73.809 123.376,73.159 126.057,72.35 130.702,72.025 136.608,72.188      140.552,71.701 146.615,71.215 153.784,71.215 155.904,72.674 155.045,75.988 153.625,77.934 152.837,80.365 152.364,82.707      152.837,84.167 153.468,85.463 154.415,87.084 155.202,89.518 154.099,93.155 142.041,96.073 137.555,96.073 131.963,95.426      128.651,95.426 123.534,95.102 117.943,94.291 115.419,94.451 105.027,95.912 104.868,94.938 98.875,94.776 90.691,93.966      83.049,94.776 78.317,95.588 69.888,97.605 64.139,97.93 58.39,98.577 51.853,99.064 46.894,98.254 40.987,96.956 37.201,97.93      35.467,97.93 33.031,97.93 30.348,97.118 28.771,96.56 26.335,96.397 23.969,96.956 21.131,96.397 19.01,96.073 16.328,95.102      14.909,96.397 14.594,93.966 14.751,90.237 15.067,87.733 14.435,83.68 14.278,81.176 14.594,78.906 15.067,76.475      15.697,75.502    " animation_id="12"/>
				
				
			
				
				
				<polygon fill-rule="evenodd" clip-rule="evenodd" fill="#164194" stroke="#164194" stroke-width="0" stroke-miterlimit="3.8637" points="     45.891,112.267 47.009,111.889 47.941,111.701 48.935,111.513 50.053,111.513 51.638,111.513 53.222,111.701 55.365,111.889      57.476,111.984 58.781,112.078 60.366,112.172 62.79,111.889 65.832,111.889 67.976,111.229 67.697,110.569 69.561,110.569      71.392,110.758 73.628,111.135 75.586,111.513 77.698,111.795 80.493,112.454 83.757,112.738 85.774,112.926 89.969,112.454      92.545,112.078 96.087,111.795 99.502,111.418 102.206,111.135 104.537,110.569 107.299,110.381 111.215,110.947      115.096,111.041 117.986,111.229 120.935,111.135 124.291,111.041 122.893,115.66 122.707,116.791 122.893,117.889      122.8,119.396 122.427,121.094 121.309,124.016 115.469,135.449 114.817,137.807 114.351,139.375 113.885,141.355      113.232,143.24 112.333,146.978 112.147,152.068 110.749,155.711 107.299,161.428 106.088,165.67 105.189,165.67      104.723,167.555 103.604,171.951 101.926,177.574 99.13,184.045 98.663,185.931 97.951,187.722 97.764,189.137 97.485,190.516      97.392,191.647 97.206,193.438 96.646,195.041 95.527,197.836 95.435,198.118 93.757,201.041 93.477,201.418 93.011,203.115      92.638,204.118 91.986,206.097 91.706,209.02 91.521,210.904 91.613,213.416 90.9,215.773 88.383,220.265 87.545,222.244      87.358,223.281 87.358,224.035 87.172,225.354 87.079,227.207 87.079,228.432 86.053,229.375 85.495,228.244 84.842,226.736      84.655,226.076 84.282,225.354 84.128,224.789 83.663,222.81 83.476,221.867 83.196,220.736 82.823,219.039 82.73,218.38      82.357,216.621 81.798,215.303 80.773,213.512 79.654,210.904 79.375,209.113 78.164,204.777 71.298,185.082 69.374,178.14      69.281,176.82 69.094,175.5 68.908,174.309 68.815,172.611 68.815,171.009 68.722,169.878 68.628,168.842 67.697,166.141      66.484,164.444 64.899,161.994 60.553,153.731 59.434,150.465 58.501,146.978 57.942,144.277 57.383,140.695 57.01,139.47      56.451,138.277 55.459,136.957 54.34,134.885 53.595,133.376 52.196,130.77 51.171,128.695 50.611,127.094 50.146,124.831      49.493,122.037 48.655,119.869 48.407,117.323 48.221,115.848 47.755,114.906 47.196,113.869 46.543,113.114    " animation_id="13"/>
				
				
		
			
			</g>
			
			
		
			
			<g>
				
				
			
				
				<path fill="#9D9D9C" d="M199.11,77.492c0.346,1.247,0.554,2.218,0.623,3.326c1.595-1.939,5.129-3.326,8.735-3.326     c2.494,0,5.059,0.831,7,2.148c3.813,2.564,6.586,7.14,6.586,15.319c0,7.625-1.248,11.507-4.922,15.458     c-2.426,2.564-5.615,4.02-9.496,4.02c-2.773,0-5.407-0.692-7.417-1.871c0.139,0.832,0.139,1.871,0.139,2.911v11.091l-8.942,2.357     V87.89c0-4.645-0.07-5.962-0.556-8.942L199.11,77.492z M205.556,107.091c4.574,0,6.377-3.12,6.377-11.23     c0-3.396-0.277-6.099-0.902-7.833c-0.692-1.939-2.149-2.98-4.436-2.98c-2.287,0-4.506,0.971-6.17,2.704v17.26     C201.674,106.051,203.684,107.091,205.556,107.091z" animation_id="0"/>
				
				
			
				
				
				
			
				
				
				
			
				
				<path fill="#9D9D9C" d="M282.708,77.561c0.624,0.971,0.901,1.803,1.248,3.605c2.426-2.357,5.408-3.605,8.666-3.605     c2.91,0,5.336,0.971,7.209,2.912c0.485,0.484,0.97,1.109,1.386,1.732c3.258-3.326,6.169-4.645,10.051-4.645     c2.773,0,5.407,0.832,7.001,2.219c2.011,1.733,2.635,3.812,2.635,8.664v25.232h-9.011v-23.43c0-4.229-0.486-5.061-2.912-5.061     c-1.733,0-4.159,1.179-6.17,2.98v25.51h-8.804V90.592c0-4.436-0.623-5.475-3.188-5.475c-1.733,0-4.09,0.9-6.1,2.703v25.855     h-9.081V88.93c0-5.13-0.346-7.348-1.317-9.081L282.708,77.561z" animation_id="3"/>
				
				
			
				
				
				
			
				
				<path fill="#9D9D9C" d="M388.147,77.492c0.346,1.247,0.554,2.218,0.623,3.326c1.595-1.939,5.129-3.326,8.735-3.326     c2.495,0,5.06,0.831,7.001,2.148c3.812,2.564,6.585,7.14,6.585,15.319c0,7.625-1.248,11.507-4.922,15.458     c-2.427,2.564-5.614,4.02-9.496,4.02c-2.774,0-5.407-0.692-7.418-1.871c0.14,0.832,0.14,1.871,0.14,2.911v11.091l-8.942,2.357     V87.89c0-4.645-0.069-5.962-0.555-8.942L388.147,77.492z M394.595,107.091c4.573,0,6.377-3.12,6.377-11.23     c0-3.396-0.277-6.099-0.901-7.833c-0.693-1.939-2.15-2.98-4.437-2.98c-2.288,0-4.506,0.971-6.171,2.704v17.26     C390.712,106.051,392.722,107.091,394.595,107.091z" animation_id="5"/>
				
				
			
				
				
				
			
				
				<path fill="#9D9D9C" d="M480.897,82.829c2.843,3.327,4.091,7.209,4.091,12.963c0,6.1-1.387,10.259-4.437,13.725     c-2.703,3.05-6.239,4.921-11.715,4.921c-9.635,0-15.942-7.209-15.942-18.369c0-11.159,6.377-18.576,15.942-18.576     C473.896,77.492,477.849,79.225,480.897,82.829z M464.192,87.959c-0.623,1.871-0.97,4.367-0.97,7.901     c0,4.091,0.416,7.14,1.178,8.942c0.832,1.941,2.912,2.912,4.714,2.912c4.021,0,5.753-3.605,5.753-11.992     c0-4.783-0.623-7.902-1.87-9.496c-0.901-1.18-2.357-1.873-4.021-1.873C466.757,84.354,464.955,85.741,464.192,87.959z" animation_id="7"/>
				
				
			
				
				<path fill="#9D9D9C" d="M500.864,77.492c0.346,1.247,0.554,2.218,0.623,3.326c1.594-1.939,5.129-3.326,8.733-3.326     c2.496,0,5.061,0.831,7.002,2.148c3.812,2.564,6.585,7.14,6.585,15.319c0,7.625-1.248,11.507-4.922,15.458     c-2.426,2.564-5.614,4.02-9.496,4.02c-2.773,0-5.407-0.692-7.417-1.871c0.139,0.832,0.139,1.871,0.139,2.911v11.091l-8.942,2.357     V87.89c0-4.645-0.069-5.962-0.555-8.942L500.864,77.492z M507.311,107.091c4.574,0,6.377-3.12,6.377-11.23     c0-3.396-0.277-6.099-0.901-7.833c-0.693-1.939-2.15-2.98-4.437-2.98c-2.287,0-4.506,0.971-6.17,2.704v17.26     C503.428,106.051,505.438,107.091,507.311,107.091z" animation_id="8"/>
				
				
			
				
				
				
			
				
				
				
		
			
			</g>
			
			
	
		
		</g>
		
		

	
	</g>
	
	


</svg>
