<?xml version="1.0" encoding="iso-8859-1"?>
<!-- Generator: Adobe Illustrator 15.0.0, SVG Export Plug-In . SVG Version: 6.00 Build 0)  -->
<!DOCTYPE svg
  PUBLIC '-//W3C//DTD SVG 1.1//EN'
  'http://www.w3.org/Graphics/SVG/1.1/DTD/svg11.dtd'>
<svg xmlns="http://www.w3.org/2000/svg" xmlns:xlink="http://www.w3.org/1999/xlink" enable-background="new 0 0 595.276 291.969" height="291.969px" id="Ebene_1" version="1.1" viewBox="-148.819 -72.99225 892.914 437.95349999999996" width="595.276px" x="0px" xml:space="preserve" y="0px">
	
	
	
	

	
	
	
	<path animation_id="0" clip-rule="evenodd" d="M402.436,116.182c0,57.738-46.86,104.598-104.598,104.598  c-57.738,0-104.6-46.859-104.6-104.598s46.861-104.6,104.6-104.6C355.575,11.582,402.436,58.443,402.436,116.182z" fill="#FBB908" fill-rule="evenodd"/>
	
	
	
	

	
	
	
	<path animation_id="1" clip-rule="evenodd" d="M381.517,116.219c0,46.189-37.489,83.678-83.679,83.678  c-46.191,0-83.68-37.488-83.68-83.678s37.488-83.678,83.68-83.678C344.027,32.541,381.517,70.029,381.517,116.219" fill="#FFFFFF" fill-rule="evenodd"/>
	
	
	
	

	
	
	
	<path animation_id="2" clip-rule="evenodd" d="M376.324,140.572c0,43.305-35.145,78.449-78.449,78.449  c-43.304,0-78.448-35.145-78.448-78.449c0-43.303,35.145-78.447,78.448-78.447C341.18,62.125,376.324,97.27,376.324,140.572" fill="#FBB908" fill-rule="evenodd"/>
	
	
	
	

	
	
	
	<path animation_id="3" clip-rule="evenodd" d="M357.11,140.609c0,32.719-26.554,59.273-59.272,59.273  s-59.272-26.555-59.272-59.273s26.554-59.271,59.272-59.271S357.11,107.891,357.11,140.609" fill="#FFFFFF" fill-rule="evenodd"/>
	
	
	
	

	
	
	
	<path animation_id="4" clip-rule="evenodd" d="M297.838,112.74c-28.868,0-52.299,23.428-52.299,52.297  s23.431,52.301,52.299,52.301c28.869,0,52.3-23.432,52.3-52.301S326.707,112.74,297.838,112.74z M297.839,199.902  c-19.247,0-34.866-15.619-34.866-34.865s15.619-34.865,34.866-34.865c19.246,0,34.865,15.619,34.865,34.865  S317.085,199.902,297.839,199.902z" fill="#FBB908" fill-rule="evenodd"/>
	
	
	
	

	
	
	
	<g>
		
		
		
		
	
		
		
		
		<path animation_id="5" d="M18.657,278.812c3.144,0,3.763-0.664,3.763-4.119v-19.037c0-3.453-0.619-4.117-3.763-4.117v-1.107h12.396v1.107   c-3.144,0-3.763,0.664-3.763,4.117v7.881h11.776v-7.881c0-3.453-0.664-4.117-3.764-4.117v-1.107h12.397v1.107   c-3.144,0-3.764,0.664-3.764,4.117v19.037c0,3.455,0.62,4.119,3.764,4.119v1.105H35.304v-1.105c3.1,0,3.764-0.664,3.764-4.119   v-9.119H27.291v9.119c0,3.455,0.619,4.119,3.763,4.119v1.105H18.657V278.812z"/>
		
		
		
		
	
		
		
		
		
		
		
		
	
		
		
		
		
		
		
		
	
		
		
		
		
		
		
		
	
		
		
		
		
		
		
		
	
		
		
		
		
		
		
		
	
		
		
		
		
		
		
		
	
		
		
		
		
		
		
		
	
		
		
		
		
		
		
		
	
		
		
		
		
		
		
		
	
		
		
		
		
		
		
		
	
		
		
		
		
		
		
		
	
		
		
		
		
		
		
		

	
	
	
	</g>
	
	
	
	

	
	
	
	<g>
		
		
		
		
	
		
		
		
		<path animation_id="18" d="M427.616,278.75c3.271,0,3.972-0.701,3.972-4.346v-20.096c0-3.645-0.701-4.346-3.972-4.346v-1.168h12.431v1.168   c-2.711,0-3.318,0.701-3.318,4.346v9.348h0.093l7.945-10.328c0.654-0.842,1.542-1.963,1.542-2.523c0-0.562-0.935-0.842-2.804-0.842   v-1.168h11.356v1.168c-3.459,0-4.954,1.215-7.29,4.205l-6.402,8.225l8.551,12.152c1.31,1.916,3.46,4.205,6.73,4.205v1.168h-13.412   v-1.168c1.448,0,2.617-0.232,2.617-1.168c0-0.607-0.562-1.402-1.356-2.523l-7.478-10.795h-0.093v10.141   c0,3.645,0.607,4.346,3.318,4.346v1.168h-12.431V278.75z"/>
		
		
		
		
	
		
		
		
		
		
		
		
	
		
		
		
		<path animation_id="20" d="M495.153,264.355c0-9.953,3.037-16.027,12.759-16.027c9.767,0,12.758,6.074,12.758,16.027   c0,9.955-2.991,16.031-12.758,16.031C498.19,280.387,495.153,274.311,495.153,264.355z M507.912,278.143   c6.215,0,7.243-6.449,7.243-13.787c0-7.289-1.028-13.785-7.243-13.785c-6.263,0-7.244,6.496-7.244,13.785   C500.668,271.693,501.649,278.143,507.912,278.143z"/>
		
		
		
		
	
		
		
		
		
		
		
		
	
		
		
		
		
		
		
		

	
	
	
	</g>
	
	
	
	




</svg>
