<?xml version="1.0" encoding="iso-8859-1"?>
<!-- Generator: Adobe Illustrator 15.0.0, SVG Export Plug-In . SVG Version: 6.00 Build 0)  -->
<!DOCTYPE svg
  PUBLIC '-//W3C//DTD SVG 1.1//EN'
  'http://www.w3.org/Graphics/SVG/1.1/DTD/svg11.dtd'>
<svg xmlns="http://www.w3.org/2000/svg" xmlns:xlink="http://www.w3.org/1999/xlink" enable-background="new 0 0 595.275 255.118" height="255.118px" version="1.1" viewBox="-148.81875 -63.7795 892.9124999999999 382.677" width="595.275px" x="0px" xml:space="preserve" y="0px">
	
	
	
	

	
	
	
	<g id="Hintergrund">
</g>
	
	
	
	

	
	
	
	<g id="Hilfslinien_anzeigen">
</g>
	
	
	
	

	
	
	
	<g id="Vordergrund">
		
		
		
		
	
		
		
		
		<g>
			
			
			
			
		
			
			
			
			
			
			
			
		
			
			
			
			
			
			
			
		
			
			
			
			
			
			
			
		
			
			
			
			
			
			
			
		
			
			
			
			
			
			
			
		
			
			
			
			
			
			
			
		
			
			
			
			
			
			
			
		
			
			
			
			
			
			
			
		
			
			
			
			
			
			
			
		
			
			
			
			
			
			
			
		
			
			
			
			
			
			
			
		
			
			
			
			
			
			
			
	
		
		
		
		</g>
		
		
		
		
	
		
		
		
		<g>
			
			
			
			
		
			
			
			
			
			
			
			
		
			
			
			
			<path animation_id="13" d="M82.176,227.912c-16.464,0-23.632-13.553-23.632-31.248c0-18.032,7.28-31.36,23.521-31.36    c16.575,0,23.632,13.328,23.632,31.36C105.697,214.359,98.529,227.912,82.176,227.912z M82.176,171.576    c-11.535,0-13.775,12.88-13.775,25.088s2.464,24.416,13.775,24.416c11.536,0,13.664-12.32,13.664-24.416    S93.712,171.576,82.176,171.576z" fill="#706F6F"/>
			
			
			
			
		
			
			
			
			<path animation_id="14" d="M187.456,226.792v-43.456c0-6.048-2.911-11.536-11.647-11.536c-5.04,0-8.96,1.681-12.432,5.376v49.616    h-9.856v-43.904c0-6.72-4.479-11.199-13.216-11.199c-4.928,0-7.616,0.672-10.864,2.016v53.088h-9.855v-57.232    c5.487-2.688,11.312-4.256,20.943-4.256c9.296,0,14.896,2.801,18.48,7.28c4.144-4.368,10.304-7.28,18.704-7.28    c14.447,0,19.6,9.408,19.6,17.809v43.68H187.456z" fill="#706F6F"/>
			
			
			
			
		
			
			
			
			<path animation_id="15" d="M232.705,227.687c-3.472,0-7.168-0.672-9.407-1.456v24.641h-9.744v-81.312    c4.032-2.352,10.191-4.256,18.815-4.256c17.024,0,26.656,11.872,26.656,30.353C259.025,215.704,248.609,227.687,232.705,227.687z     M231.921,171.24c-3.696,0-6.272,0.672-8.624,1.68v47.376c1.903,0.784,4.367,1.344,7.392,1.344    c12.208,0,18.479-9.52,18.479-25.536C249.168,180.759,244.689,171.24,231.921,171.24z" fill="#706F6F"/>
			
			
			
			
		
			
			
			
			<path animation_id="16" d="M292.848,227.912c-15.68,0-22.96-6.832-22.96-17.809c0-16.016,15.008-20.72,33.711-22.624v-3.695    c0-9.296-5.599-11.984-13.328-11.984c-5.823,0-11.199,2.128-14.56,3.809l-2.352-5.824c3.472-1.904,10.191-4.48,18.479-4.48    c11.201,0,21.056,4.816,21.056,19.601v38.752C308.305,226.231,301.248,227.912,292.848,227.912z M303.6,192.519    c-15.231,1.904-24.303,5.152-24.303,17.36c0,8.736,5.376,12.32,14.336,12.32c3.808,0,7.504-0.673,9.967-2.017V192.519z" fill="#706F6F"/>
			
			
			
			
		
			
			
			
			<path animation_id="17" d="M340.895,227.687c-6.496,0-12.207-1.68-15.455-4.144l2.688-6.496c2.129,1.792,6.385,3.584,11.76,3.584    c6.721,0,11.201-4.592,11.201-10.416c0-6.271-3.361-9.072-9.969-11.536c-11.76-4.368-14.111-10.64-14.111-16.912    c0-8.96,7.055-16.575,18.031-16.575c6.16,0,10.977,2.016,14.111,4.144l-2.576,5.937c-1.791-1.345-5.375-3.36-10.08-3.36    c-6.607,0-10.078,4.368-10.078,9.52c0,5.824,4.256,8.624,10.078,10.864c11.762,4.48,14.672,10.752,14.672,17.696    C361.166,219.175,353.215,227.687,340.895,227.687z" fill="#706F6F"/>
			
			
			
			
		
			
			
			
			<path animation_id="18" d="M385.357,227.687c-6.496,0-12.207-1.68-15.455-4.144l2.688-6.496c2.129,1.792,6.385,3.584,11.76,3.584    c6.721,0,11.201-4.592,11.201-10.416c0-6.271-3.361-9.072-9.969-11.536c-11.76-4.368-14.111-10.64-14.111-16.912    c0-8.96,7.055-16.575,18.031-16.575c6.16,0,10.977,2.016,14.111,4.144l-2.576,5.937c-1.791-1.345-5.375-3.36-10.08-3.36    c-6.607,0-10.078,4.368-10.078,9.52c0,5.824,4.256,8.624,10.078,10.864c11.762,4.48,14.672,10.752,14.672,17.696    C405.629,219.175,397.678,227.687,385.357,227.687z" fill="#706F6F"/>
			
			
			
			
		
			
			
			
			<path animation_id="19" d="M440.572,228.023c-15.119,0-21.391-7.615-21.391-19.712v-41.888h9.855v42.224    c0,7.057,3.809,12.433,12.096,12.433c4.703,0,8.064-0.784,10.863-2.464v-52.192h9.857v56.784    C457.373,225.784,450.316,228.023,440.572,228.023z" fill="#706F6F"/>
			
			
			
			
		
			
			
			
			<path animation_id="20" d="M489.852,227.687c-6.496,0-12.207-1.68-15.455-4.144l2.688-6.496c2.129,1.792,6.385,3.584,11.76,3.584    c6.721,0,11.201-4.592,11.201-10.416c0-6.271-3.361-9.072-9.969-11.536c-11.76-4.368-14.111-10.64-14.111-16.912    c0-8.96,7.055-16.575,18.031-16.575c6.16,0,10.977,2.016,14.111,4.144l-2.576,5.937c-1.791-1.345-5.375-3.36-10.08-3.36    c-6.607,0-10.078,4.368-10.078,9.52c0,5.824,4.256,8.624,10.078,10.864c11.762,4.48,14.672,10.752,14.672,17.696    C510.123,219.175,502.172,227.687,489.852,227.687z" fill="#706F6F"/>
			
			
			
			
	
		
		
		
		</g>
		
		
		
		

	
	
	
	</g>
	
	
	
	




</svg>
