<?xml version="1.0" encoding="iso-8859-1"?>
<!-- Generator: Adobe Illustrator 15.0.0, SVG Export Plug-In . SVG Version: 6.00 Build 0)  -->
<!DOCTYPE svg
  PUBLIC '-//W3C//DTD SVG 1.1//EN'
  'http://www.w3.org/Graphics/SVG/1.1/DTD/svg11.dtd'>
<svg enable-background="new 0 0 595.275 158.74" height="158.74px" version="1.1" viewBox="-148.81875 -39.685 892.9124999999999 238.11" width="595.275px" x="0px" xml:space="preserve" xmlns="http://www.w3.org/2000/svg" xmlns:xlink="http://www.w3.org/1999/xlink" y="0px">
	
	
	
	

	
	
	
	<g id="Hintergrund">
</g>
	
	
	
	

	
	
	
	<g display="none" id="Hilfslinien">
</g>
	
	
	
	

	
	
	
	<g id="Vordergrund">
		
		
		
		
	
		
		
		
		<g>
			
			
			
			
		
			
			
			
			<path animation_id="0" clip-rule="evenodd" d="M388.527,68.45c-5.735,0-8.849,2.708-11.867,7.235l-0.312,0.242    l0.195-6.877c-2.133,0-4.09,0-6.339,0c-2.531,0.076-4.261,0.283-6.373,0.661l-0.002,3.91c2.222,0.11,4.2,0.249,6.479,0.847v50.143    c2.309,0,4.477,0,6.743,0l-0.018-18.148l0.3-0.095c5.384,0.644,13.246,0.233,17.753-3.087    C405.879,95.328,405.615,68.45,388.527,68.45z M387.562,100.644c-2.592,0.864-8.001,0.794-10.511-0.332    c-0.046-4.007,0-7.978-0.038-12.05c-0.026-2.659,0.467-5.341,1.672-7.752c1.856-3.714,8.962-9.704,13.122-4.921    C397.489,82.122,396.769,97.574,387.562,100.644z" fill="#9D9D9C" fill-rule="evenodd"/>
			
			
			
			
		
			
			
			
			<path animation_id="1" clip-rule="evenodd" d="M511.503,68.45c-5.735,0-8.85,2.708-11.868,7.236l-0.311,0.242    l0.197-6.877c-2.135,0-4.091,0-6.34,0c-2.531,0.075-4.262,0.283-6.374,0.66l-0.002,3.91c2.222,0.11,4.2,0.249,6.48,0.847v50.143    c2.308,0,4.477,0,6.743,0l-0.018-18.148l0.299-0.095c5.385,0.644,13.246,0.233,17.755-3.087    C528.856,95.329,528.591,68.45,511.503,68.45z M510.538,100.644c-2.593,0.864-8,0.794-10.51-0.331    c-0.047-4.008,0-7.978-0.039-12.051c-0.025-2.659,0.468-5.341,1.672-7.752c1.857-3.714,8.962-9.703,13.122-4.92    C520.464,82.122,519.746,97.574,510.538,100.644z" fill="#9D9D9C" fill-rule="evenodd"/>
			
			
			
			
		
			
			
			
			
			
			
			
		
			
			
			
			<path animation_id="3" clip-rule="evenodd" d="M550.06,85.378c-0.498,4.473,0.137,8.642,2.034,13.015    c2.616,6.031,8.939,8.683,15.341,8.426c3.392-0.135,9.628-0.726,12.61-2.248c-0.224-1.75-0.463-3.509-0.774-5.245    c-11.994,3.992-22.98,3.046-22.141-11.977h23.97l0.005-0.277C583.001,62.409,552.621,62.322,550.06,85.378z M574.487,82.422    h-16.989C558.647,69.051,575.962,71.543,574.487,82.422z" fill="#9D9D9C" fill-rule="evenodd"/>
			
			
			
			
		
			
			
			
			<path animation_id="4" clip-rule="evenodd" d="M479.765,76.168c-6.714-14.973-38.646-8.513-31.263,19.684    C454.186,117.549,492.771,105.181,479.765,76.168z M455.545,94.5c-6.405-20.031,14.697-26.262,18.319-16.091    C481.435,99.671,460.287,109.327,455.545,94.5z" fill="#9D9D9C" fill-rule="evenodd"/>
			
			
			
			
		
			
			
			
			
			
			
			
		
			
			
			
			
			<circle animation_id="11" clip-rule="evenodd" cx="32.695" cy="87.573" fill="#9D9D9C" fill-rule="evenodd" r="18.608" stroke="#9D9D9C" stroke-miterlimit="3.8637" stroke-width="0"/>
			
			
			
			
		
			
			
			
			
			<ellipse animation_id="13" clip-rule="evenodd" cx="90.529" cy="79.371" fill="#164194" fill-rule="evenodd" rx="88.61" ry="18.609" stroke="#164194" stroke-miterlimit="3.8637" stroke-width="0" transform="matrix(-0.7071 0.7071 -0.7071 -0.7071 210.6658 71.4801)"/>
			
			
			
			
		
			
			
			
			<path animation_id="6" clip-rule="evenodd" d="M173.47,68.45c-5.735,0-8.849,2.708-11.868,7.236l-0.31,0.242    l0.196-6.877c-2.134,0-4.092,0-6.338,0c-2.531,0.075-4.261,0.283-6.374,0.66l-0.002,3.91c2.221,0.11,4.199,0.249,6.479,0.847    v50.144c2.309,0,4.478,0,6.744,0l-0.017-18.149l0.298-0.094c5.384,0.643,13.246,0.233,17.753-3.088    C190.822,95.329,190.558,68.45,173.47,68.45z M172.505,100.644c-2.592,0.864-8,0.794-10.51-0.331    c-0.046-4.008,0-7.978-0.039-12.051c-0.025-2.659,0.468-5.341,1.672-7.751c1.858-3.715,8.963-9.704,13.123-4.921    C182.431,82.122,181.712,97.574,172.505,100.644z" fill="#9D9D9C" fill-rule="evenodd"/>
			
			
			
			
		
			
			
			
			
			
			
			
			
		
			
			
			
			
			
			
			
		
			
			
			
			
			
			
			
		
			
			
			
			
			
			
			
		
			
			
			
			<path animation_id="10" clip-rule="evenodd" d="M277.663,75.727c2.447-3.941,6.205-7.031,10.961-7.367    c10.574-0.748,12.239,3.433,12.227,14.062c0.038,1.619,0.023,3.28,0.023,4.926c0,6.276,0,12.459,0,18.862h-6.646l-0.016-26.783    c0.016-3.085-1.644-5.535-4.811-5.297c-4.479,0.339-6.936,1.399-9.379,5.031c-0.992,1.475-1.895,3.259-1.895,8.187    c-0.032,6.599-0.003,14.892,0,18.862c-2.22,0-3.898,0-6.657,0c-0.005-2.695,0-11.335,0-18.862c0-5.347,0-6.995,0-7.713    c0-3.681-3.111-5.667-6.431-5.505c-6.882,0.339-10.027,5.369-10.027,13.218c0,9.102,0,11.728,0,18.862h-6.663V74.469    c-2.327-0.707-4.275-0.882-6.449-1.033v-3.725c2.167-0.359,3.311-0.564,6.449-0.66c2.356,0,4.082,0,6.165,0    c0.074,1.629,0.121,3.299,0.684,5.015c2.492-2.136,5.086-4.438,8.321-5.361C268.813,67.193,276.33,69.808,277.663,75.727z" fill="#9D9D9C" fill-rule="evenodd"/>
			
			
			
			
	
		
		
		
		</g>
		
		
		
		

	
	
	
	</g>
	
	
	
	




</svg>
