<?xml version="1.0" encoding="iso-8859-1"?>
<!-- Generator: Adobe Illustrator 15.0.0, SVG Export Plug-In . SVG Version: 6.00 Build 0)  -->
<!DOCTYPE svg
  PUBLIC '-//W3C//DTD SVG 1.1//EN'
  'http://www.w3.org/Graphics/SVG/1.1/DTD/svg11.dtd'>
<svg enable-background="new 0 0 595.276 189.921" height="189.921px" id="Ebene_1" version="1.1" viewBox="-148.819 -47.48025 892.914 284.88149999999996" width="595.276px" x="0px" xml:space="preserve" xmlns="http://www.w3.org/2000/svg" xmlns:xlink="http://www.w3.org/1999/xlink" y="0px">
	
	
	
	

	
	
	
	<g>
		
		
		
		
	
		
		
		
		<g>
			
			
			
			
		
			
			
			
			<path animation_id="0" clip-rule="evenodd" d="M335.095,51.4c0,20.773-16.859,37.634-37.633,37.634    c-20.775,0-37.635-16.86-37.635-37.634s16.859-37.634,37.635-37.634C318.235,13.767,335.095,30.627,335.095,51.4z" fill="#FBB908" fill-rule="evenodd"/>
			
			
			
			
		
			
			
			
			<path animation_id="1" clip-rule="evenodd" d="M203.423,28.817c0,8.31-6.746,15.054-15.055,15.054    c-8.31,0-15.054-6.744-15.054-15.054c0-8.311,6.744-15.055,15.054-15.055C196.677,13.763,203.423,20.507,203.423,28.817" fill="#FBB908" fill-rule="evenodd"/>
			
			
			
			
		
			
			
			
			<path animation_id="2" clip-rule="evenodd" d="M203.423,73.983c0,8.311-6.746,15.055-15.055,15.055    c-8.31,0-15.054-6.744-15.054-15.055c0-8.309,6.744-15.055,15.054-15.055C196.677,58.929,203.423,65.675,203.423,73.983" fill="#FBB908" fill-rule="evenodd"/>
			
			
			
			
		
			
			
			
			<path animation_id="3" clip-rule="evenodd" d="M248.509,28.817c0,8.31-6.744,15.054-15.054,15.054    c-8.309,0-15.053-6.744-15.053-15.054c0-8.311,6.744-15.055,15.053-15.055C241.765,13.763,248.509,20.507,248.509,28.817" fill="#FBB908" fill-rule="evenodd"/>
			
			
			
			
		
			
			
			
			<path animation_id="4" clip-rule="evenodd" d="M248.509,73.983c0,8.311-6.744,15.055-15.054,15.055    c-8.309,0-15.053-6.744-15.053-15.055c0-8.309,6.744-15.055,15.053-15.055C241.765,58.929,248.509,65.675,248.509,73.983" fill="#FBB908" fill-rule="evenodd"/>
			
			
			
			
		
			
			
			
			<path animation_id="5" clip-rule="evenodd" d="M421.659,23.201c0,5.194-4.215,9.409-9.408,9.409    c-5.195,0-9.41-4.215-9.41-9.409s4.215-9.409,9.41-9.409C417.444,13.792,421.659,18.007,421.659,23.201" fill="#FBB908" fill-rule="evenodd"/>
			
			
			
			
		
			
			
			
			
			
			
			
		
			
			
			
			<path animation_id="7" clip-rule="evenodd" d="M365.22,23.201c0,5.194-4.215,9.409-9.408,9.409    s-9.408-4.215-9.408-9.409s4.215-9.409,9.408-9.409S365.22,18.007,365.22,23.201" fill="#FBB908" fill-rule="evenodd"/>
			
			
			
			
		
			
			
			
			<path animation_id="8" clip-rule="evenodd" d="M365.22,79.64c0,5.194-4.215,9.409-9.408,9.409    s-9.408-4.215-9.408-9.409c0-5.193,4.215-9.408,9.408-9.408S365.22,74.446,365.22,79.64" fill="#FBB908" fill-rule="evenodd"/>
			
			
			
			
		
			
			
			
			<g>
				
				
				
				
			
				
				
				
				
				
				
				
			
				
				
				
				
				
				
				
			
				
				
				
				
				
				
				
			
				
				
				
				
				
				
				
			
				
				
				
				
				
				
				
			
				
				
				
				
				
				
				
			
				
				
				
				
				
				
				
			
				
				
				
				
				
				
				
			
				
				
				
				
				
				
				
			
				
				
				
				
				
				
				
			
				
				
				
				
				
				
				
			
				
				
				
				
				
				
				
			
				
				
				
				
				
				
				
			
				
				
				
				
				
				
				
			
				
				
				
				
				
				
				
			
				
				
				
				
				
				
				
			
				
				
				
				
				
				
				
			
				
				
				
				
				
				
				
		
			
			
			
			</g>
			
			
			
			
	
		
		
		
		</g>
		
		
		
		

	
	
	
	</g>
	
	
	
	




</svg>
