<?xml version="1.0" encoding="iso-8859-1"?>
<!-- Generator: Adobe Illustrator 15.0.0, SVG Export Plug-In . SVG Version: 6.00 Build 0)  -->
<!DOCTYPE svg
  PUBLIC '-//W3C//DTD SVG 1.1//EN'
  'http://www.w3.org/Graphics/SVG/1.1/DTD/svg11.dtd'>
<svg xmlns="http://www.w3.org/2000/svg" xmlns:xlink="http://www.w3.org/1999/xlink" enable-background="new 0 0 595.276 325.984" height="325.984px" id="Ebene_1" version="1.1" viewBox="-148.819 -81.496 892.914 488.976" width="595.276px" x="0px" xml:space="preserve" y="0px">
	
	
	
	

	
	
	
	<g>
		
		
		
		
	
		
		
		
		
		
		
		
	
		
		
		
		<path animation_id="1" d="M242.386,201.519c0,5.5,0.25,10.875,1,14.625h-13.874l-1.125-6.75h-0.375c-3.625,4.75-10,8.125-18,8.125   c-12.249,0-19.124-8.875-19.124-18.125c0-15.248,13.624-23.123,36.123-22.998v-1c0-4-1.625-10.625-12.374-10.625   c-6,0-12.249,1.875-16.375,4.5l-2.999-10c4.499-2.75,12.374-5.375,21.999-5.375c19.499,0,25.124,12.375,25.124,25.75V201.519z    M198.513,138.146c0-4.373,3.375-7.748,7.874-7.748c4.125,0,7.375,3.25,7.375,7.748c0,4.125-3.125,7.625-7.625,7.625   C201.762,145.771,198.513,142.271,198.513,138.146z M227.386,186.396c-10.874-0.127-21.249,2.123-21.249,11.373   c0,6,3.875,8.75,8.75,8.75c6.25,0,10.625-4,12.124-8.375c0.375-1.125,0.375-2.25,0.375-3.375V186.396z M230.886,145.771   c-4.25,0-7.5-3.5-7.5-7.625c0-4.373,3.376-7.748,7.751-7.748c4.249,0,7.499,3.25,7.499,7.748c0,4.125-3.125,7.625-7.499,7.625   H230.886z" fill="#1B3E90"/>
		
		
		
		
	
		
		
		
		<path animation_id="2" d="M326.51,207.269c0,12.75-2.625,21.873-8.999,27.625c-6.25,5.623-15.125,7.373-23.499,7.373   c-7.751,0-16-1.75-21.25-4.875l3.374-11.623c3.875,2.25,10.375,4.625,17.749,4.625c10.001,0,17.5-5.25,17.5-18.375v-5.25h-0.249   c-3.499,5.375-9.625,9-17.75,9c-15.124,0-25.874-12.5-25.874-29.748c0-20,12.999-32.125,27.624-32.125   c9.376,0,14.749,4.5,17.625,9.5h0.249l0.626-8.125h13.374c-0.249,4.125-0.5,9.125-0.5,17.5V207.269z M311.136,179.646   c0-1.5-0.125-2.875-0.501-4.125c-1.624-5.625-5.999-9.875-12.499-9.875c-8.625,0-15,7.5-15,19.873   c0,10.375,5.25,18.75,14.875,18.75c5.751,0,10.75-3.75,12.5-9.375c0.5-1.5,0.625-3.625,0.625-5.375V179.646z" fill="#1B3E90"/>
		
		
		
		
	
		
		
		
		
		
		
		
	
		
		
		
		
		
		
		

	
	
	
	</g>
	
	
	
	

	
	
	
	<rect animation_id="5" fill="#EE7518" height="29.529" width="82.677" x="14.173" y="147.243"/>
	
	
	
	

	
	
	
	
	
	
	

	
	
	
	<rect animation_id="7" fill="#EE7518" height="43.307" width="86.614" x="254.331" y="269.292"/>
	
	
	
	

	
	
	
	<rect animation_id="8" fill="#EE7518" height="33.465" width="74.803" x="178.937" y="56.692"/>
	
	
	
	

	
	
	
	<rect animation_id="9" fill="#EE7518" height="27.559" width="53.149" x="527.953" y="162.993"/>
	
	
	
	

	
	
	
	<rect animation_id="10" fill="#EE7518" height="118.111" width="39.37" x="362.598" y="13.386"/>
	
	
	
	

	
	
	
	
	
	
	

	
	
	
	<rect animation_id="12" fill="#EE7518" height="74.805" width="31.495" x="474.804" y="216.142"/>
	
	
	
	




</svg>
