<?xml version="1.0" encoding="iso-8859-1"?>
<!-- Generator: Adobe Illustrator 15.0.0, SVG Export Plug-In . SVG Version: 6.00 Build 0)  -->
<!DOCTYPE svg
  PUBLIC '-//W3C//DTD SVG 1.1//EN'
  'http://www.w3.org/Graphics/SVG/1.1/DTD/svg11.dtd'>
<svg enable-background="new 0 0 595.275 340.157" height="340.157px" version="1.1" viewBox="-148.81875 -85.03925 892.9124999999999 510.2355" width="595.275px" x="0px" xml:space="preserve" xmlns="http://www.w3.org/2000/svg" xmlns:xlink="http://www.w3.org/1999/xlink" y="0px">
	
	
	
	

	
	
	
	<g id="Hintergrund">
</g>
	
	
	
	

	
	
	
	<g display="none" id="Hilfslinien">
</g>
	
	
	
	

	
	
	
	<g id="Vordergrund">
		
		
		
		
	
		
		
		
		<g>
			
			
			
			
		
			
			
			
			
			<rect animation_id="12" clip-rule="evenodd" fill="#9D9D9C" fill-rule="evenodd" height="60.734" stroke="#9D9D9C" stroke-miterlimit="3.8637" stroke-width="0" width="60.734" x="338.127" y="15.298"/>
			
			
			
			
		
			
			
			
			
			<polygon animation_id="11" clip-rule="evenodd" fill="#164194" fill-rule="evenodd" points="    14.213,112.366 35.198,119.062 52.611,128.243 82.403,144.909 96.074,151.099 112.942,157.833 135.796,164.021 153.208,168.511     160.147,171.505 165.475,175.022 190.709,183.812 222.611,188.928 243.877,192.922 270.698,195.319 282.917,198.837     297.839,199.637 322.369,200.547 351.958,203.573 377.26,198.302 397.665,194.358 429.703,188.372 476.157,176.944     493.774,167.015 504.452,162.524 524.314,137.224 532.546,128.243 552.405,95.459 561.587,87.773 581.062,80.081 518.782,91.72     494.612,99.858 477.176,107.572 459.698,114.521 430.584,127.782 405.147,135.587 383.584,141.892 360.73,145.144 337.23,147.745     323.118,146.405 310.193,145.657 291.831,142.663 278.158,138.72 262.241,135.728 229.457,131.985 211.093,128.243 176.063,124.3     160.147,119.062 139.538,114.37 106.753,107.634 79.409,105.39 51.115,103.69 38.939,100.697 29.01,97.704   " stroke="#164194" stroke-miterlimit="3.8637" stroke-width="0"/>
			
			
			
			
		
			
			
			
			<g>
				
				
				
				
			
				
				
				
				<path animation_id="0" d="M46.654,321.5c0,1.238-0.618,1.414-1.679,1.591l-7.428,1.504c-0.265,0.088-1.062,0.266-1.504,0.266     s-0.618-0.354-0.618-1.857v-44.83c0-12.469-1.681-11.761-1.681-13.795c0-0.441,0.354-0.795,0.974-0.973l6.719-2.211     c0.532-0.176,0.974-0.264,1.327-0.264c1.149,0,1.769,1.68,2.741,4.597c1.946-1.856,5.394-4.597,11.318-4.597     c9.816,0,15.298,7.692,15.298,22.547c0,15.475-4.775,24.141-16.27,24.141c-5.129,0-7.34-1.326-9.197-2.299V321.5z      M46.654,297.095c1.592,0.885,3.008,1.68,6.456,1.68c6.189,0,7.781-4.42,7.781-14.854c0-9.108-1.679-14.147-7.161-14.147     c-3.715,0-5.836,2.21-7.075,3.359V297.095z" fill="#9D9D9C"/>
				
				
				
				
			
				
				
				
				
				
				
				
			
				
				
				
				
				
				
				
			
				
				
				
				<path animation_id="3" d="M207.926,304.876c0,0.973-0.177,1.238-1.239,1.238h-8.754c-1.06,0-1.237-0.266-1.237-1.238v-27.234     c0-3.359-0.354-7.428-3.713-7.428c-3.715,0-6.633,2.564-7.782,3.626v31.036c0,0.973-0.177,1.238-1.237,1.238h-8.755     c-1.062,0-1.237-0.266-1.237-1.238v-27.234c0-3.359-0.354-7.428-3.714-7.428c-3.713,0-6.631,2.564-7.781,3.626v31.036     c0,0.973-0.177,1.238-1.239,1.238h-8.753c-1.061,0-1.238-0.266-1.238-1.238v-26.703c0-12.469-1.68-11.761-1.68-13.795     c0-0.441,0.354-0.795,0.973-0.973l6.72-2.211c0.53-0.176,0.973-0.264,1.327-0.264c1.149,0,1.857,1.945,2.829,6.101     c2.653-2.3,6.543-6.101,13.529-6.101c3.802,0,7.958,2.387,9.02,6.101c2.651-2.3,6.454-6.101,13.705-6.101     c8.312,0,10.258,6.277,10.258,13.971V304.876z" fill="#9D9D9C"/>
				
				
				
				
			
				
				
				
				<path animation_id="4" d="M257.083,301.428c0.177,0.265,0.265,0.619,0.265,0.973c0,2.3-8.842,5.218-15.826,5.218     c-11.672,0-19.808-6.633-19.808-22.902c0-14.059,7.516-23.785,19.366-23.785c15.031,0,17.684,13.439,17.684,24.139     c0,1.68-0.354,2.211-2.034,2.211h-23.786c0,4.951,1.415,11.053,9.727,11.053c6.366,0,9.992-2.918,11.229-2.918     c0.442,0,0.797,0.354,0.974,0.707L257.083,301.428z M246.827,279.057c0-3.626-0.265-9.903-6.366-9.903     c-6.898,0-7.25,7.428-7.516,9.903H246.827z" fill="#9D9D9C"/>
				
				
				
				
			
				
				
				
				<path animation_id="5" d="M304.65,321.5c0,1.238-0.618,1.414-1.68,1.591l-7.428,1.504c-0.266,0.088-1.062,0.266-1.504,0.266     c-0.442,0-0.618-0.354-0.618-1.857v-44.83c0-12.469-1.681-11.761-1.681-13.795c0-0.441,0.354-0.795,0.973-0.973l6.72-2.211     c0.531-0.176,0.973-0.264,1.326-0.264c1.149,0,1.769,1.68,2.741,4.597c1.946-1.856,5.394-4.597,11.317-4.597     c9.816,0,15.298,7.692,15.298,22.547c0,15.475-4.774,24.141-16.27,24.141c-5.129,0-7.339-1.326-9.196-2.299V321.5z      M304.65,297.095c1.591,0.885,3.007,1.68,6.455,1.68c6.189,0,7.781-4.42,7.781-14.854c0-9.108-1.68-14.147-7.162-14.147     c-3.714,0-5.836,2.21-7.074,3.359V297.095z" fill="#9D9D9C"/>
				
				
				
				
			
				
				
				
				
				
				
				
			
				
				
				
				<path animation_id="7" d="M411.014,307.618c-11.938,0-19.188-9.108-19.188-23.345s7.25-23.343,19.188-23.343     c11.85,0,19.188,9.106,19.188,23.343S422.951,307.618,411.014,307.618z M418.265,284.273c0-8.224-1.149-14.501-7.251-14.501     c-6.101,0-7.25,6.277-7.25,14.501s1.061,14.501,7.25,14.501S418.265,292.585,418.265,284.273z" fill="#9D9D9C"/>
				
				
				
				
			
				
				
				
				<path animation_id="8" d="M456.371,321.5c0,1.238-0.618,1.414-1.679,1.591l-7.429,1.504c-0.265,0.088-1.061,0.266-1.504,0.266     c-0.441,0-0.617-0.354-0.617-1.857v-44.83c0-12.469-1.682-11.761-1.682-13.795c0-0.441,0.354-0.795,0.975-0.973l6.719-2.211     c0.531-0.176,0.975-0.264,1.326-0.264c1.149,0,1.769,1.68,2.741,4.597c1.946-1.856,5.394-4.597,11.318-4.597     c9.815,0,15.298,7.692,15.298,22.547c0,15.475-4.774,24.141-16.271,24.141c-5.128,0-7.34-1.326-9.196-2.299V321.5z      M456.371,297.095c1.592,0.885,3.008,1.68,6.456,1.68c6.188,0,7.78-4.42,7.78-14.854c0-9.108-1.679-14.147-7.161-14.147     c-3.715,0-5.836,2.21-7.075,3.359V297.095z" fill="#9D9D9C"/>
				
				
				
				
			
				
				
				
				
				
				
				
			
				
				
				
				
				
				
				
		
			
			
			
			</g>
			
			
			
			
	
		
		
		
		</g>
		
		
		
		

	
	
	
	</g>
	
	
	
	




</svg>
