<?xml version="1.0" encoding="iso-8859-1"?>
<!-- Generator: Adobe Illustrator 15.0.0, SVG Export Plug-In . SVG Version: 6.00 Build 0)  -->
<!DOCTYPE svg
  PUBLIC '-//W3C//DTD SVG 1.1//EN'
  'http://www.w3.org/Graphics/SVG/1.1/DTD/svg11.dtd'>
<svg xmlns="http://www.w3.org/2000/svg" xmlns:xlink="http://www.w3.org/1999/xlink" enable-background="new 0 0 595.275 317.48" height="317.48px" version="1.1" viewBox="-148.81875 -79.37 892.9124999999999 476.22" width="595.275px" x="0px" xml:space="preserve" y="0px">
	
	
	
	

	
	
	
	<g id="Hintergrund">
</g>
	
	
	
	

	
	
	
	<g display="none" id="Hilfslinien">
</g>
	
	
	
	

	
	
	
	<g id="Vordergrund">
		
		
		
		
	
		
		
		
		<g>
			
			
			
			
		
			
			
			
			<g>
				
				
				
				
			
				
				
				
				
				
				
				
				
			
				
				
				
				
				<polygon animation_id="20" clip-rule="evenodd" fill="#9D9D9C" fill-rule="evenodd" points="     386.16,21.6 382.467,27.549 382.263,36.639 381.898,44.162 379.424,49.993 371.581,48.322 366.059,44.162 359.957,41.954      352.024,40.701 343.073,40.283 336.026,40.021 326.929,38.512 319.086,36.424 309.36,33.514 299.159,33.916 287.518,34.867      287.883,33.514 277.959,34.867 270.283,35.588 262.397,35.881 255.247,36.005 249.987,36.005 237.992,37.259 230.15,39.866      222.957,42.373 214.744,40.701 209.116,29.638 214.375,27.967 218.156,25.359 221.479,21.6 225.63,17.738 229.78,16.485      236.147,16.485 237.188,14.584 248.141,15.231 254.877,16.485 264.655,18.574 275.91,17.32 285.32,18.156 293.902,19.41      303.68,18.992 316.781,18.156 324.56,16.695 331.449,15.231 338.554,16.067 345.658,16.067 355.068,15.231 364.019,15.65      373.059,18.574 379.794,21.181    " stroke="#9D9D9C" stroke-miterlimit="3.8637" stroke-width="0"/>
				
				
				
				
			
				
				
				
				
				<polygon animation_id="21" clip-rule="evenodd" fill="#9D9D9C" fill-rule="evenodd" points="     212.126,165.762 221.71,166.104 233.663,167.81 242.883,169.857 250.201,171.791 254.382,170.963 260.68,171.645      277.015,173.693 292.985,176.847 306.762,176.847 313.061,175.822 320.819,175.822 330.126,176.505 337.154,175.482      340.529,173.693 346.462,171.304 352.027,170.621 362.503,167.39 369.19,164.787 374.849,163.504 378.484,160.58      383.813,154.449 386.16,162.608 383.516,169.175 382.785,174.717 384.334,177.87 379.497,181.365 369.46,181.365      363.162,183.071 357.229,183.412 348.652,185.118 343.451,186.225 340.529,187.248 334.214,188.385 324.882,188.064      325.213,189.348 313.86,190.631 307.541,191.629 301.553,191.629 291.229,189.348 286.232,188.385 282.889,188.385      277.892,188.385 269.259,187.744 262.902,185.783 257.392,184.777 250.275,183.412 243.614,183.412 236.22,183.412      229.192,180.682 222.529,179.918 218.423,178.553 214.317,177.188 209.116,171.986    " stroke="#9D9D9C" stroke-miterlimit="3.8637" stroke-width="0"/>
				
				
				
				
		
			
			
			
			</g>
			
			
			
			
		
			
			
			
			<g>
				
				
				
				
			
				
				
				
				<path animation_id="0" clip-rule="evenodd" d="M31.743,279.422l-0.384,0.122l0.023,23.353     c-2.917,0-5.708,0-8.677,0v-64.519c-2.934-0.77-5.479-0.948-8.338-1.091l0.004-5.03c2.718-0.485,4.943-0.753,8.201-0.851     c2.891,0,5.41,0,8.155,0l-0.253,8.848l0.4-0.311c3.884-5.826,7.889-9.311,15.269-9.311c21.987,0,22.329,34.585,8.442,44.816     C48.787,279.723,38.67,280.25,31.743,279.422z" fill="#9D9D9C" fill-rule="evenodd"/>
				
				
				
				
			
				
				
				
				
				
				
				
			
				
				
				
				
				
				
				
				
			
				
				
				
				
				
				
				
			
				
				
				
				
				
				
				
			
				
				
				
				<path animation_id="4" clip-rule="evenodd" d="M261.341,254.949h-30.842     c-1.081,19.33,13.055,20.547,28.488,15.41c0.4,2.233,0.709,4.498,0.994,6.749c-3.837,1.959-11.86,2.718-16.224,2.894     c-8.236,0.328-16.372-3.082-19.738-10.843c-2.442-5.628-3.257-10.991-2.618-16.747c3.297-29.666,42.384-29.555,39.943,2.18     L261.341,254.949z" fill="#9D9D9C" fill-rule="evenodd"/>
				
				
				
				
			
				
				
				
				
				
				
				
			
				
				
				
				<path animation_id="6" clip-rule="evenodd" d="M318.618,279.422l-0.386,0.121l0.023,23.353     c-2.917,0-5.708,0-8.677,0v-64.52c-2.934-0.769-5.479-0.947-8.338-1.09l0.004-5.03c2.718-0.486,4.944-0.753,8.201-0.851     c2.891,0,5.41,0,8.154,0l-0.252,8.849l0.399-0.311c3.885-5.827,7.891-9.311,15.271-9.311     c21.985-0.002,22.327,34.584,8.441,44.816C335.662,279.722,325.545,280.249,318.618,279.422z" fill="#9D9D9C" fill-rule="evenodd"/>
				
				
				
				
			
				
				
				
				
				
				
				
			
				
				
				
				<path animation_id="8" clip-rule="evenodd" d="M476.848,279.422l-0.385,0.121l0.022,23.354     c-2.917,0-5.708,0-8.678,0v-64.52c-2.934-0.77-5.479-0.948-8.338-1.09l0.003-5.031c2.719-0.486,4.944-0.752,8.202-0.851     c2.892,0,5.411,0,8.156,0l-0.253,8.849l0.398-0.311c3.885-5.826,7.891-9.311,15.271-9.311c21.987,0,22.329,34.585,8.442,44.816     C493.891,279.722,483.774,280.249,476.848,279.422z" fill="#9D9D9C" fill-rule="evenodd"/>
				
				
				
				
			
				
				
				
				
				
				
				
			
				
				
				
				
				
				
				
			
				
				
				
				
				
				
				
			
				
				
				
				
				
				
				
			
				
				
				
				
				
				
				
			
				
				
				
				<path animation_id="14" clip-rule="evenodd" d="M450.409,240.562c16.736,37.332-32.911,53.244-40.223,25.326     C400.685,229.608,441.773,221.296,450.409,240.562z" fill="#9D9D9C" fill-rule="evenodd"/>
				
				
				
				
			
				
				
				
				
				
				
				
			
				
				
				
				
				
				
				
			
				
				
				
				<path animation_id="17" clip-rule="evenodd" d="M180.207,239.995c3.148-5.071,7.985-9.046,14.103-9.479     c13.605-0.962,15.749,4.418,15.731,18.094c0.051,2.085,0.033,4.222,0.033,6.339c0,8.075,0,16.03,0,24.27h-8.554l-0.021-34.461     c0.021-3.971-2.114-7.123-6.189-6.815c-5.763,0.434-8.926,1.801-12.068,6.474c-1.276,1.897-2.437,4.193-2.437,10.533     c-0.041,8.49-0.005,19.16,0,24.27c-2.856,0-5.017,0-8.566,0c-0.005-3.468,0-14.585,0-24.27c0-6.88,0-8.999,0-9.925     c0-4.734-4.004-7.291-8.273-7.082c-8.855,0.434-12.902,6.908-12.902,17.007c0,11.71,0,15.089,0,24.27h-8.574v-40.843     c-2.994-0.908-5.501-1.133-8.298-1.328v-4.792c2.79-0.463,4.26-0.726,8.298-0.85c3.032,0,5.252,0,7.932,0     c0.097,2.096,0.157,4.245,0.881,6.452c3.206-2.748,6.543-5.711,10.704-6.898C168.821,229.015,178.491,232.379,180.207,239.995z" fill="#9D9D9C" fill-rule="evenodd"/>
				
				
				
				
		
			
			
			
			</g>
			
			
			
			
	
		
		
		
		</g>
		
		
		
		

	
	
	
	</g>
	
	
	
	




</svg>
