<?xml version="1.0" encoding="iso-8859-1"?>
<!-- Generator: Adobe Illustrator 15.0.0, SVG Export Plug-In . SVG Version: 6.00 Build 0)  -->
<!DOCTYPE svg
  PUBLIC '-//W3C//DTD SVG 1.1//EN'
  'http://www.w3.org/Graphics/SVG/1.1/DTD/svg11.dtd'>
<svg xmlns="http://www.w3.org/2000/svg" xmlns:xlink="http://www.w3.org/1999/xlink" enable-background="new 0 0 595.275 255.118" height="255.118px" version="1.1" viewBox="-148.81875 -63.7795 892.9124999999999 382.677" width="595.275px" x="0px" xml:space="preserve" y="0px">
	
	
	
	

	
	
	
	<g id="Hintergrund">
</g>
	
	
	
	

	
	
	
	<g id="Hilfslinien_anzeigen">
</g>
	
	
	
	

	
	
	
	<g id="Vordergrund">
		
		
		
		
	
		
		
		
		
		
		
		
	
		
		
		
		<g>
			
			
			
			
		
			
			
			
			
			
			
			
		
			
			
			
			<path animation_id="2" d="M92.445,227.814c-20.901,0-23.401-12.501-23.401-27.502c0-15.102,2.5-27.602,23.401-27.602    c21.001,0,23.401,12.5,23.401,27.602C115.847,215.313,113.446,227.814,92.445,227.814z M92.445,179.111    c-14.501,0-15.101,8.5-15.101,21.201c0,12.601,0.6,21.102,15.101,21.102s15.101-8.501,15.101-21.102    C107.546,187.611,106.946,179.111,92.445,179.111z" fill="#004F9F"/>
			
			
			
			
		
			
			
			
			<path animation_id="3" d="M213.849,226.513h-4.9c-1,0-1.601-0.6-1.601-1.5v-37.002c0-6.601-2.399-8.9-9.4-8.9    c-9.301,0-18.801,2.8-18.801,2.8v43.103c0,1-0.4,1.5-1.4,1.5h-4.9c-0.899,0-1.5-0.6-1.5-1.5v-37.002c0-6.601-2.5-8.9-9.501-8.9    c-9.3,0-18.7,2.8-18.7,2.8v43.103c0,0.9-0.501,1.5-1.4,1.5h-5c-0.9,0-1.501-0.6-1.501-1.5v-41.502c0-4.001,0.2-5.801,5.201-7.501    c5.2-1.8,15.2-3.3,21.601-3.3c6.301,0,10.801,1.2,13.602,3.8c5.6-2.2,16.4-3.8,22.501-3.8c11.9,0,17.201,3.7,17.201,14.4v37.902    C215.349,225.914,214.748,226.513,213.849,226.513z" fill="#004F9F"/>
			
			
			
			
		
			
			
			
			<path animation_id="4" d="M258.745,227.814c-6.001,0-11.601-0.9-15.201-1.9l1.101,5.9v13.101c0,0.8-0.501,1.1-1.2,1.3l-5.4,1.301    h-0.301c-0.699,0-1-0.7-1-1.301V183.71c0-4.1,0.2-5.9,5.201-7.7c5.2-1.9,12.9-3.3,19.4-3.3c18.002,0,20.901,11.2,20.901,27.602    C282.246,219.713,276.946,227.814,258.745,227.814z M259.245,179.21c-6.001,0-14.601,2.4-14.601,2.4v38.103    c0,0,5.5,1.899,14,1.899c11.501,0,15.401-5.3,15.401-21.101C274.046,181.51,268.945,179.21,259.245,179.21z" fill="#004F9F"/>
			
			
			
			
		
			
			
			
			<path animation_id="5" d="M334.944,226.414c-2.9,0.6-7.701,1.4-13.001,1.4c-8.601,0-22.901-0.301-22.901-16.502    c0-13.4,7.4-14.101,17.301-15.7l18.901-3.101v-4.7c0-3.2-0.1-5.801-3.601-7.101c-1.899-0.8-4.7-1.2-9.101-1.2    c-7.7,0-14.4,1.9-18.501,2.9c-0.2,0-0.399,0.1-0.6,0.1c-0.4,0-0.801-0.199-1-0.8l-0.9-4.5v-0.2c0-0.8,0.7-1.1,1-1.2    c3.2-1.2,11.801-3.1,20.901-3.1c7.101,0,11.701,1,14.601,2.6c5.101,2.7,5.2,7.4,5.2,12.101v28.702    C343.244,223.113,341.845,224.713,334.944,226.414z M335.344,198.812l-18.4,3.1c-4.801,0.9-9.701,1.101-9.701,9.001    c0,10,8.2,10.7,14.801,10.7c4.4,0,9.101-0.6,13.301-2V198.812z" fill="#004F9F"/>
			
			
			
			
		
			
			
			
			<path animation_id="6" d="M380.742,227.814c-8.8,0-16.4-2.9-17.7-3.4c-0.4-0.2-0.801-0.4-0.801-1v-0.301l1-3.899    c0.101-0.5,0.4-0.9,1.101-0.9h0.5c0.8,0.3,7.9,2.9,16.101,2.9c8.501,0,13.401-2.7,13.401-8.801c0-8.301-6.4-8.001-14.201-9.2    c-4.9-0.801-17.401-1.7-17.401-14.901c0-12.9,11.501-15.601,20.302-15.601c8.601,0,15.201,1.8,16.301,2.1    c0.7,0.101,1,0.601,1,1.101v0.199l-0.7,4.4c-0.1,0.601-0.5,0.801-0.899,0.801h-0.2c-1.4-0.2-8.801-1.9-14.701-1.9    c-7.2,0-13.201,2-13.201,8.301c0,6.8,6.801,7.6,13.001,8.4c9.001,1.2,18.701,1.899,18.701,15.501    C402.344,224.614,392.344,227.814,380.742,227.814z" fill="#004F9F"/>
			
			
			
			
		
			
			
			
			<path animation_id="7" d="M437.24,227.814c-8.8,0-16.4-2.9-17.7-3.4c-0.4-0.2-0.801-0.4-0.801-1v-0.301l1-3.899    c0.101-0.5,0.4-0.9,1.101-0.9h0.5c0.8,0.3,7.9,2.9,16.101,2.9c8.501,0,13.401-2.7,13.401-8.801c0-8.301-6.4-8.001-14.201-9.2    c-4.9-0.801-17.401-1.7-17.401-14.901c0-12.9,11.501-15.601,20.302-15.601c8.601,0,15.201,1.8,16.301,2.1    c0.7,0.101,1,0.601,1,1.101v0.199l-0.7,4.4c-0.1,0.601-0.5,0.801-0.899,0.801h-0.2c-1.4-0.2-8.801-1.9-14.701-1.9    c-7.2,0-13.201,2-13.201,8.301c0,6.8,6.801,7.6,13.001,8.4c9.001,1.2,18.701,1.899,18.701,15.501    C458.842,224.614,448.842,227.814,437.24,227.814z" fill="#004F9F"/>
			
			
			
			
		
			
			
			
			<path animation_id="8" d="M499.239,227.814c-17.602,0-22.002-7.501-22.002-20.702V175.31c0-0.8,0.5-1.1,1.301-1.3l5.4-1.3h0.3    c0.7,0,0.899,0.7,0.899,1.3v33.902c0,9.4,3.301,13.601,14.102,13.601c13.001,0,14.001-6.4,14.001-13.901V175.31    c0-0.8,0.6-1.1,1.3-1.3l5.4-1.3h0.3c0.7,0,1,0.7,1,1.3v32.902C521.24,216.813,519.84,227.814,499.239,227.814z" fill="#004F9F"/>
			
			
			
			
		
			
			
			
			<path animation_id="9" d="M558.637,227.814c-8.8,0-16.4-2.9-17.7-3.4c-0.4-0.2-0.801-0.4-0.801-1v-0.301l1-3.899    c0.101-0.5,0.4-0.9,1.101-0.9h0.5c0.8,0.3,7.9,2.9,16.101,2.9c8.501,0,13.401-2.7,13.401-8.801c0-8.301-6.4-8.001-14.201-9.2    c-4.9-0.801-17.401-1.7-17.401-14.901c0-12.9,11.501-15.601,20.302-15.601c8.601,0,15.201,1.8,16.301,2.1    c0.7,0.101,1,0.601,1,1.101v0.199l-0.7,4.4c-0.1,0.601-0.5,0.801-0.899,0.801h-0.2c-1.4-0.2-8.801-1.9-14.701-1.9    c-7.2,0-13.201,2-13.201,8.301c0,6.8,6.801,7.6,13.001,8.4c9.001,1.2,18.701,1.899,18.701,15.501    C580.238,224.614,570.238,227.814,558.637,227.814z" fill="#004F9F"/>
			
			
			
			
	
		
		
		
		</g>
		
		
		
		

	
	
	
	</g>
	
	
	
	




</svg>
