<?xml version="1.0" encoding="iso-8859-1"?>
<!-- Created with Inkscape (http://www.inkscape.org/) -->
<svg height="178.937" id="svg3462" version="1.1" width="892.91339" xmlns="http://www.w3.org/2000/svg" xmlns:cc="http://creativecommons.org/ns#" xmlns:dc="http://purl.org/dc/elements/1.1/" xmlns:rdf="http://www.w3.org/1999/02/22-rdf-syntax-ns#" xmlns:svg="http://www.w3.org/2000/svg">
	
  
	<defs id="defs3464"/>
	
  
	<metadata id="metadata3467">
		
    
		<rdf:RDF>
			
      
			<cc:Work rdf:about="">
				
        
				<dc:format>image/svg+xml</dc:format>
				
        
				<dc:type rdf:resource="http://purl.org/dc/dcmitype/StillImage"/>
				
        
				<dc:title/>
				
      
			</cc:Work>
			
    
		</rdf:RDF>
		
  
	</metadata>
	
  
	<g id="layer1" transform="translate(-24.033972,-489.2717)">
		
    
		<g id="g3539" transform="matrix(5.4225232,0,0,5.4225232,-102.74751,-2958.7089)">
			
      
			<g id="g3065" transform="matrix(1.25,0,0,-1.25,87.413226,651.44228)">
				
        
				<path animation_id="0" d="m 0,0 -2.593,-5.048 4.889,0 C 1.79,-6.132 0.482,-7.95 -2.831,-8.057 -9.476,-7.889 -7.982,2.626 2.261,2.659 3.011,2.658 3.872,2.66 4.726,2.66 L 7.389,7.813 C 6.86,7.816 5.168,7.812 4.005,7.813 -11.94,7.831 -12.458,-2.081 -12.568,-3.266 -12.621,-4.363 -12.76,-13.025 -2.947,-13.413 -1.616,-13.36 8.08,-13.95 9.935,0 L 0,0 z" id="path3067" style="fill:#004494;fill-opacity:1;fill-rule:nonzero;stroke:none"/>
				
      
			</g>
			
      
			<g id="g3069" transform="matrix(1.25,0,0,-1.25,24.033976,667.85508)">
				
        
				<path animation_id="1" d="m 0,0 9.144,20.78 8.4,0 c 4.901,-0.012 6.261,-3.093 6.029,-5.292 -0.035,-0.291 -0.256,-3.369 -2.936,-4.869 0.942,-0.555 2,-1.947 1.669,-4.391 C 22.166,5.194 20.98,-0.01 12.097,0 L 0,0 z m 11.69,13.195 3.361,0 c 2.668,0.013 2.761,1.319 2.807,1.602 0.093,0.564 -0.168,0.992 -1.273,1.029 l -3.726,0 -1.169,-2.631 z M 9.563,8.1 8.313,5.191 l 4.86,0 C 15.969,5.189 16.312,6.52 16.37,6.902 16.475,7.625 16.05,8.089 14.731,8.1 l -5.168,0 z" id="path3071" style="fill:#004494;fill-opacity:1;fill-rule:evenodd;stroke:none"/>
				
      
			</g>
			
      
			<g id="g3073" transform="matrix(1.25,0,0,-1.25,28.800846,664.80578)">
				
        
				<path animation_id="2" d="m 0,0 7.139,16.224 6.179,0 c 3.372,-0.011 4.006,-2.88 3.814,-4.087 C 17.091,11.877 16.585,9.187 13.58,8.27 14.673,7.931 16.167,6.455 15.905,4.546 15.795,3.74 15.068,0.126 9.447,0 L 0,0 z m 4.348,8.48 c 0.849,0.004 5.587,-0.041 7.337,0.01 3.505,0.098 4.633,2.843 4.679,2.966 1.093,2.827 -1.616,4.191 -2.488,4.191 L 7.522,15.637 4.348,8.48 z M 4.122,7.912 0.872,0.505 9.557,0.524 c 4.558,0.158 5.511,2.783 5.65,3.405 0.762,3.325 -1.97,3.983 -2.924,4.002 L 4.122,7.912 z" id="path3075" style="fill:#ffffff;fill-opacity:1;fill-rule:evenodd;stroke:none"/>
				
      
			</g>
			
      
			<g id="g3077" transform="matrix(1.25,0,0,-1.25,51.080096,667.92108)">
				
        
				<path animation_id="3" d="m 0,0 14.243,0 2.081,5.32 -7.046,0 6.749,15.461 -6.842,0 L 0,0 z" id="path3079" style="fill:#004494;fill-opacity:1;fill-rule:nonzero;stroke:none"/>
				
      
			</g>
			
      
			<g id="g3081" transform="matrix(1.25,0,0,-1.25,120.46898,647.78458)">
				
        
				<path animation_id="4" d="m 0,0 -1.878,0 c 0.698,0.59 1.273,1.266 1.646,2.043 l 2.302,0 C 1.628,1.321 0.913,0.627 0,0 m -7.464,-2.753 c 1.645,0.502 3.459,1.22 4.906,2.234 l 1.733,0 c -1.338,-0.774 -2.983,-1.413 -4.761,-1.835 -0.53,-0.136 -1.465,-0.34 -1.878,-0.399 m -9.726,2.234 2.087,0 c 0.657,-1.153 2.116,-1.898 3.418,-2.374 -0.453,0.056 -1.046,0.155 -1.296,0.222 -2.081,0.367 -3.523,1.151 -4.209,2.152 m -0.209,2.518 c 0.006,0.015 0.012,0.029 0.017,0.044 l 2.175,0 C -15.51,1.262 -15.521,0.586 -15.335,0 l -2.134,0 c -0.244,0.617 -0.232,1.296 0.07,1.999 m 2.296,2.567 0,-0.013 1.779,0 c -0.692,-0.592 -1.25,-1.252 -1.634,-1.972 l -2.133,0 c 0.442,0.699 1.122,1.373 1.988,1.985 m 7.046,2.73 c -1.68,-0.525 -3.308,-1.276 -4.61,-2.224 l -1.657,0 c 1.14,0.68 2.506,1.259 3.994,1.676 0.918,0.289 1.535,0.423 2.273,0.548 m 6.778,-0.299 0.047,-0.012 0.04,-0.011 0.041,-0.011 0.035,-0.011 0.052,-0.014 0.041,-0.011 0.035,-0.013 C 0.453,6.494 1.5,5.85 2.07,5.072 l -2.093,0 C -0.523,6.188 -1.715,6.923 -2.976,7.388 -2.5,7.298 -1.779,7.129 -1.32,7.009 L -1.279,6.997 z M -3.517,2.581 c 0.233,0.672 0.32,1.336 0.273,1.972 l 2.831,0 C -0.244,3.969 -0.285,3.31 -0.57,2.581 l -2.947,0 z M -5.017,0 c 0.541,0.632 0.983,1.318 1.285,2.043 l 2.918,0 C -1.244,1.272 -1.901,0.594 -2.721,0 l -2.296,0 z m -3.017,-2.497 c 0.913,0.543 1.791,1.214 2.541,1.978 l 1.982,0 C -4.284,-0.981 -5.156,-1.387 -6.081,-1.736 -6.22,-1.8 -7.342,-2.247 -8.034,-2.497 m -3.837,1.978 c 0.146,-0.763 0.494,-1.48 1.035,-2.115 -1.581,0.502 -2.959,1.175 -3.645,2.115 l 2.61,0 z m 1.907,5.072 C -10.499,3.941 -10.975,3.28 -11.371,2.581 l -2.994,0 c 0.436,0.721 1.082,1.383 1.866,1.972 l 2.535,0 z m 3.221,2.689 C -7.737,6.644 -8.667,5.911 -9.481,5.072 l -2.268,0 c 0.925,0.587 1.994,1.086 3.111,1.486 0.139,0.064 1.22,0.458 1.895,0.684 m 2.249,0.059 c 1.907,-0.412 3.279,-1.171 3.86,-2.229 l -2.679,0 c -0.158,0.814 -0.559,1.57 -1.181,2.229 M -6.092,5.072 -5.151,7.223 C -4.47,6.625 -4.029,5.886 -3.848,5.072 l -2.244,0 z M -8.319,0 l 0.895,2.043 3.128,0 C -4.645,1.27 -5.145,0.591 -5.703,0 l -2.616,0 z m -1.174,-2.674 0.948,2.155 2.313,0 c -1.203,-1.098 -2.54,-1.815 -3.261,-2.155 m 0.401,2.155 -0.959,-2.189 c -0.674,0.611 -1.11,1.366 -1.285,2.189 l 2.244,0 z m 2.232,5.072 -0.866,-1.972 -3.046,0 c 0.43,0.705 0.936,1.367 1.506,1.972 l 2.406,0 z m 1.012,2.601 c 0.058,0.033 0.116,0.062 0.168,0.09 l -0.953,-2.172 -2.116,0 c 0.872,0.825 1.86,1.531 2.901,2.082 m -5.226,-5.111 3.11,0 L -8.859,0 -11.411,0 c -0.053,0.661 0.058,1.353 0.337,2.043 m 7.005,0.538 -3.116,0 0.86,1.972 2.552,0 C -3.72,3.919 -3.819,3.25 -4.069,2.581 m -10.609,-0.6 c 0.011,0.02 0.023,0.041 0.029,0.062 l 3.017,0 C -11.882,1.349 -11.981,0.661 -11.935,0 l -2.836,0 c -0.233,0.57 -0.227,1.224 0.093,1.981 m 17.027,0.6 -2.361,0 C 0.25,3.33 0.285,3.985 0.151,4.553 l 2.221,0 C 2.639,3.947 2.639,3.277 2.349,2.581 m 2.825,0 -2.267,0 C 4.04,5.74 0.291,7.856 -4.825,7.967 L -4.366,9.013 -4.901,9.015 -5.36,7.971 C -10.702,7.938 -16.091,5.533 -17.69,2.581 l -2.558,0 -0.285,-0.551 2.587,0 c -1.215,-3.194 2.384,-5.389 7.581,-5.446 l -0.477,-1.093 0.547,0 0.482,1.095 c 5.337,0.097 10.912,2.475 12.481,5.457 l 2.262,0 0.244,0.538 z" id="path3083" style="fill:#e20020;fill-opacity:1;fill-rule:nonzero;stroke:none"/>
				
      
			</g>
			
      
			<g id="g3085" transform="matrix(1.25,0,0,-1.25,57.532856,664.23808)">
				
        
				<path animation_id="5" d="m 0,0 10.232,-0.002 -0.216,-0.546 -10.847,0 8.109,18.383 0.576,0 L 0,0 z" id="path3087" style="fill:#ffffff;fill-opacity:1;fill-rule:evenodd;stroke:none"/>
				
      
			</g>
			
      
			<g id="g3089" transform="matrix(1.25,0,0,-1.25,85.952726,654.28978)">
				
        
				<path animation_id="6" d="m 0,0 -0.285,-0.557 7.604,-0.035 c -0.913,-3.892 -4.18,-7.782 -9.325,-7.565 -4.598,0.195 -6.644,3.701 -6.208,7.322 0.744,6.26 7.075,8.459 15.295,8.069 l 0.284,0.551 c -0.895,0.049 -15.05,1.386 -16.161,-8.62 -0.122,-0.845 -0.412,-7.394 6.79,-7.878 4.541,0 8.604,2.321 10.075,8.7 C 8.063,-0.002 0.5,0 0,0" id="path3091" style="fill:#ffffff;fill-opacity:1;fill-rule:nonzero;stroke:none"/>
				
      
			</g>
			
      
			<g id="g3093" transform="matrix(1.25,0,0,-1.25,122.79435,654.40618)">
				
        
				<path animation_id="7" d="m 0,0 4.029,0 0.267,0.677 -3.215,0 3.058,7.204 -0.802,0 L 0,0 z" id="path3095" style="fill:#004494;fill-opacity:1;fill-rule:nonzero;stroke:none"/>
				
      
			</g>
			
      
			<g id="g3097" transform="matrix(1.25,0,0,-1.25,131.4126,650.46848)">
				
        
				<path animation_id="8" d="m 0,0 c 0.407,1.942 2.157,4.189 4.267,4.189 1.5,0 1.988,-1.14 1.674,-2.608 C 5.534,-0.362 3.79,-2.609 1.674,-2.609 0.174,-2.609 -0.308,-1.468 0,0 m -0.796,-0.068 c -0.402,-1.92 0.366,-3.218 2.307,-3.218 2.622,0 4.703,2.438 5.227,4.934 0.401,1.921 -0.367,3.219 -2.308,3.219 -2.616,0 -4.697,-2.439 -5.226,-4.935" id="path3099" style="fill:#004494;fill-opacity:1;fill-rule:evenodd;stroke:none"/>
				
      
			</g>
			
      
			<g id="g3101" transform="matrix(1.25,0,0,-1.25,150.75635,644.87948)">
				
        
				<path animation_id="9" d="m 0,0 c -0.767,0.294 -1.546,0.396 -2.337,0.396 -2.564,0 -4.994,-1.841 -5.546,-4.483 -0.465,-2.214 0.651,-3.671 2.843,-3.671 1.273,0 1.93,0.317 2.238,0.396 l 1.668,4.008 -2.68,0 -0.302,-0.677 1.89,0 -1.122,-2.722 c -0.291,-0.124 -0.78,-0.327 -1.605,-0.327 -1.628,0 -2.511,1.276 -2.174,2.902 0.488,2.315 2.471,3.896 4.738,3.896 0.721,0 1.441,-0.124 2.017,-0.451 L 0,0 z" id="path3103" style="fill:#004494;fill-opacity:1;fill-rule:nonzero;stroke:none"/>
				
      
			</g>
			
      
			<g id="g3105" transform="matrix(1.25,0,0,-1.25,149.44098,654.40618)">
				
        
				<path animation_id="10" d="M 0,0 0.785,0 4.11,7.881 3.331,7.881 0,0 z" id="path3107" style="fill:#004494;fill-opacity:1;fill-rule:nonzero;stroke:none"/>
				
      
			</g>
			
      
			<g id="g3109" transform="matrix(1.25,0,0,-1.25,161.5181,644.82228)">
				
        
				<path animation_id="11" d="m 0,0 c -0.5,0.237 -1.087,0.35 -1.756,0.35 -1.389,0 -2.802,-0.666 -3.127,-2.202 -0.378,-1.818 2.494,-1.954 2.151,-3.591 -0.256,-1.22 -1.483,-1.683 -2.546,-1.683 -0.564,0 -1.181,0.181 -1.576,0.497 l -0.395,-0.745 c 0.308,-0.192 0.872,-0.429 1.895,-0.429 1.436,0 3.087,0.858 3.424,2.461 0.424,2.033 -2.447,2.18 -2.163,3.546 0.227,1.062 1.326,1.468 2.198,1.468 0.552,0 1.075,-0.135 1.511,-0.384 L 0,0 z" id="path3111" style="fill:#004494;fill-opacity:1;fill-rule:nonzero;stroke:none"/>
				
      
			</g>
			
      
			<g id="g3113" transform="matrix(1.25,0,0,-1.25,162.37573,645.40098)">
				
        
				<path animation_id="12" d="m 0,0 2.395,0 -3.052,-7.204 0.814,0 L 3.186,0 5.581,0 5.854,0.677 0.285,0.677 0,0 z" id="path3115" style="fill:#004494;fill-opacity:1;fill-rule:nonzero;stroke:none"/>
				
      
			</g>
			
      
			<g id="g3117" transform="matrix(1.25,0,0,-1.25,166.69923,654.40618)">
				
        
				<path animation_id="13" d="m 0,0 0.779,0 3.325,7.881 -0.779,0 L 0,0 z" id="path3119" style="fill:#004494;fill-opacity:1;fill-rule:nonzero;stroke:none"/>
				
      
			</g>
			
      
			<g id="g3121" transform="matrix(1.25,0,0,-1.25,180.98536,644.89318)">
				
        
				<path animation_id="14" d="m 0,0 c -0.587,0.305 -1.186,0.407 -2.035,0.407 -2.72,0 -5.092,-1.943 -5.673,-4.698 -0.448,-2.135 0.959,-3.456 2.976,-3.456 0.837,0 1.256,0.159 1.593,0.248 l 0.232,0.69 c -0.476,-0.125 -0.755,-0.26 -1.738,-0.26 -1.657,0 -2.61,1.232 -2.284,2.767 0.476,2.281 2.412,4.031 4.708,4.031 0.675,0 1.302,-0.079 1.814,-0.384 L 0,0 z" id="path3123" style="fill:#004494;fill-opacity:1;fill-rule:nonzero;stroke:none"/>
				
      
			</g>
			
      
			<g id="g3125" transform="matrix(1.25,0,0,-1.25,187.3946,644.82228)">
				
        
				<path animation_id="15" d="m 0,0 c -0.5,0.237 -1.087,0.35 -1.756,0.35 -1.389,0 -2.802,-0.666 -3.127,-2.202 -0.378,-1.818 2.494,-1.954 2.151,-3.591 -0.256,-1.22 -1.483,-1.683 -2.547,-1.683 -0.563,0 -1.18,0.181 -1.575,0.497 l -0.395,-0.745 c 0.308,-0.192 0.872,-0.429 1.901,-0.429 1.43,0 3.081,0.858 3.418,2.461 0.424,2.033 -2.447,2.18 -2.163,3.546 0.227,1.062 1.326,1.468 2.198,1.468 0.552,0 1.075,-0.135 1.511,-0.384 L 0,0 z" id="path3127" style="fill:#004494;fill-opacity:1;fill-rule:nonzero;stroke:none"/>
				
      
			</g>
			
    
		</g>
		
  
	</g>
	

</svg>
