<?xml version="1.0" encoding="iso-8859-1"?>
<!-- Created with Inkscape (http://www.inkscape.org/) -->
<svg height="187.44093" id="svg4699" version="1.1" width="892.91339" xmlns="http://www.w3.org/2000/svg" xmlns:cc="http://creativecommons.org/ns#" xmlns:dc="http://purl.org/dc/elements/1.1/" xmlns:rdf="http://www.w3.org/1999/02/22-rdf-syntax-ns#" xmlns:svg="http://www.w3.org/2000/svg">
	
  
	<defs id="defs4701"/>
	
  
	<metadata id="metadata4704">
		
    
		<rdf:RDF>
			
      
			<cc:Work rdf:about="">
				
        
				<dc:format>image/svg+xml</dc:format>
				
        
				<dc:type rdf:resource="http://purl.org/dc/dcmitype/StillImage"/>
				
        
				<dc:title/>
				
      
			</cc:Work>
			
    
		</rdf:RDF>
		
  
	</metadata>
	
  
	<g id="layer1" transform="translate(32.659559,-445.62203)">
		
    
		<g id="g4716" transform="matrix(7.2297163,0,0,7.2297163,-1614.7547,-2381.6042)">
			
      
			<path animation_id="0" d="m 224.80601,392.482 115.19896,0 -4.49741,22.40215 -114.9565,0.33941 4.25495,-22.74156 z" id="path4569" style="fill:#ffffff;fill-opacity:1;fill-rule:nonzero;stroke:none"/>
			
      
			<path animation_id="1" d="m 335.77823,403.03206 c 0,0 -0.40234,1.90026 -0.40234,1.90026 -0.46521,2.18748 -1.41934,4.06868 -4.08027,4.3036 -0.55541,0 -1.29878,0.0165 -2.22871,0.0165 0,0 -3.58104,0 -3.58104,0 0,0 0.61824,-2.85361 0.61824,-2.85361 0.21482,-0.0149 0.47241,-0.0106 0.73618,-0.0106 0,0 2.23333,0 2.23333,0 2.04735,0 2.27867,-0.60921 2.5275,-1.78589 0,0 0.26531,-1.23979 0.26531,-1.23979 0.25039,-1.17875 0.20144,-1.83999 -1.69752,-1.83999 0,0 -2.33534,0 -2.33534,0 -0.25398,0.005 -0.36938,0.005 -0.69086,0.005 0,0 0.58628,-2.81627 0.58628,-2.81627 0,0 3.36363,0 3.36363,0 0.97782,0 1.8449,-0.0299 2.42087,0.0338 2.54861,0.2411 2.72633,2.12282 2.26474,4.28737 z m -12.04193,10.64218 c 0,0 -3.96693,0 -3.96693,0 0,0 3.17971,-14.9633 3.17971,-14.9633 0,0 3.96334,0 3.96334,0 0,0 -3.17766,14.95403 -3.17766,14.95403 0,0 0.004,0 0.004,0 0,0 -0.002,0.009 -0.002,0.009 z m -9.94772,-4.42183 c 0,0 2.24,-10.54147 2.24,-10.54147 0,0 3.96593,0 3.96593,0 0,0 -2.23951,10.54147 -2.23951,10.54147 0,0 -3.96642,0 -3.96642,0 z m -1.59811,-6.05678 c 0,0 -1.28641,6.05678 -1.28641,6.05678 0,0 -3.96847,0 -3.96847,0 0,0 1.28642,-6.05678 1.28642,-6.05678 0.21998,-1.03243 -0.21277,-1.62309 -2.15966,-1.62309 0,0 -2.29155,0 -2.29155,0 0,0 0.61308,-2.8616 0.61308,-2.8616 0,0 2.97468,0 2.97468,0 0.83614,0 1.77582,-0.007 2.56304,0.0423 1.42243,0.0907 2.9041,1.44407 2.26887,4.44245 z m -14.843,6.05678 c 0,0 3.17972,-14.96331 3.17972,-14.96331 0,0 3.96848,0 3.96848,0 0,0 -3.18282,14.96331 -3.18282,14.96331 0,0 -3.96538,0 -3.96538,0 z m -1.32764,-7.21389 c 0,0 -0.20195,0.95078 -0.20195,0.95078 0,0 -3.84586,0 -3.84586,0 0.22976,-1.07622 -0.24421,-1.46674 -1.98088,-1.46674 0,0 -1.52983,0 -1.52983,0 -1.65376,0 -2.53602,0.45388 -2.78099,1.61176 0,0 -0.3001,1.40466 -0.3001,1.40466 -0.28593,1.36472 0.49072,1.77739 1.73206,1.77739 0,0 2.02571,0 2.02571,0 1.11435,0 2.18078,-0.24833 2.38737,-1.21842 0,0 0.0515,-0.24987 0.0515,-0.24987 0,0 3.84635,0 3.84635,0 0,0 -0.2004,0.93095 -0.2004,0.93095 -0.60018,2.83146 -3.12819,3.63669 -5.40249,3.63669 0,0 -4.0496,0 -4.0496,0 -2.62514,0 -5.28814,-0.49406 -4.33091,-5.00091 0,0 0.2161,-1.01285 0.2161,-1.01285 0.84672,-3.98599 3.01461,-4.85511 5.91023,-4.85511 0,0 4.45944,0 4.45944,0 2.93708,0 4.50684,1.0721 3.99423,3.49167 z m -16.66446,1.05381 c 0,0 -0.37967,1.77662 -0.37967,1.77662 0,0 -8.7919,0 -8.7919,0 0,0 0.50127,-2.35569 0.50127,-2.35569 0,0 4.94991,0 4.94991,0 0.26583,-1.25911 -0.26327,-1.4863 -2.57801,-1.4863 -2.27478,0 -2.825,0.1767 -3.10578,1.07828 0,0 -0.01,0 -0.01,0 0,0 -0.0278,0.13008 -0.0278,0.13008 -0.0214,0.0881 -0.0451,0.18006 -0.0672,0.27794 0,0 0.008,0 0.008,0 0,0 -0.49999,2.35569 -0.49999,2.35569 0,0 -0.008,0 -0.008,0 0,0 -0.13652,0.64166 -0.13652,0.64166 -0.23673,1.11564 0.48118,1.42681 2.13493,1.42681 0,0 1.21867,0 1.21867,0 2.15116,0 2.37681,-0.57958 2.50689,-1.19987 0,0 3.72145,0 3.72145,0 0,0 -0.0976,0.45414 -0.0976,0.45414 -0.5613,2.64599 -3.03908,3.22403 -5.91281,3.22403 0,0 -2.97646,0 -2.97646,0 -2.62358,0 -5.28838,-0.49406 -4.32885,-5.00091 0,0 0.21302,-1.01285 0.21302,-1.01285 0.84851,-3.98599 3.01694,-4.85511 5.90996,-4.85511 0,0 2.76887,0 2.76887,0 4.21705,0 5.76415,0.8887 4.98672,4.54548 z m -17.77029,6.16008 c 0,0 -3.9512,0 -3.9512,0 0,0 2.23975,-10.54147 2.23975,-10.54147 0,0 3.9538,0 3.9538,0 0,0 -2.24235,10.54147 -2.24235,10.54147 z m -4.77268,0 c 0,0 -2.926,0 -2.926,0 -0.83794,0 -1.77713,0.006 -2.56278,-0.0428 -1.42552,-0.0907 -2.90512,-1.44638 -2.26939,-4.44348 0,0 1.2872,-6.05523 1.2872,-6.05523 0,0 3.96743,0 3.96743,0 0,0 -1.28821,6.05523 -1.28821,6.05523 -0.2187,1.03476 0.21353,1.62207 2.1612,1.62207 0,0 2.24183,0 2.24183,0 0,0 -0.61128,2.86417 -0.61128,2.86417 z m -11.66664,0 c 0,0 -3.96872,0 -3.96872,0 0,0 3.18204,-14.96331 3.18204,-14.96331 0,0 3.9672,0 3.9672,0 0,0 -3.18052,14.96331 -3.18052,14.96331 z m -5.33112,-6.22035 c 0,0 -0.40392,1.90026 -0.40392,1.90026 -0.46443,2.18748 -1.42088,4.06868 -4.08155,4.3036 -0.55382,0 -1.29827,0.0165 -2.23126,0.0165 0,0 -3.60656,0 -3.60656,0 0,0 0.61512,-2.84923 0.61512,-2.84923 0.21638,-0.0149 0.50489,-0.0149 0.76813,-0.0149 0,0 2.23206,0 2.23206,0 2.04787,0 2.27996,-0.60921 2.52904,-1.7859 0,0 0.26327,-1.23979 0.26327,-1.23979 0.25167,-1.17874 0.20478,-1.83998 -1.69444,-1.83998 0,0 -2.33586,0 -2.33586,0 -0.26404,0 -0.40158,-0.0111 -0.72411,0 0,0 0.61901,-2.81163 0.61901,-2.81163 0,0 3.36263,0 3.36263,0 0.97908,0 1.8446,-0.0299 2.42162,0.0338 2.54888,0.24111 2.72585,2.12282 2.26682,4.28738 z m -11.12981,6.22035 c 0,0 -3.96823,0 -3.96823,0 0,0 3.17845,-14.96331 3.17845,-14.96331 0,0 3.96871,0 3.96871,0 0,0 -1.43143,6.7443 -1.43143,6.7443 0,0 0,-0.004 0,-0.004 0,0 -0.28386,1.33175 -0.28386,1.33175 0,0 -0.62262,2.93578 -0.62262,2.93578 0,0 -0.52548,2.46233 -0.52548,2.46233 0,0 -0.31554,1.49353 -0.31554,1.49353 z M 316.9683,394.2891 c 0,0 3.96745,0 3.96745,0 0,0 -0.77486,3.61944 -0.77486,3.61944 0,0 -3.96898,0 -3.96898,0 0,0 0.77639,-3.61944 0.77639,-3.61944 z m -92.76276,-2.74491 c 0,0 -4.88318,24.9507 -4.88318,24.9507 0,0 117.63978,0 117.63978,0 0,0 4.88602,-24.9507 4.88602,-24.9507 0,0 -117.64262,0 -117.64262,0 z" id="path4597" style="fill:#3a3d8c;fill-opacity:1;fill-rule:nonzero;stroke:none"/>
			
    
		</g>
		
  
	</g>
	

</svg>
