<?xml version="1.0" encoding="iso-8859-1"?>
<svg height="279.89999" id="svg3836" version="1.1" viewBox="0 0 1587.402 279.89999" width="1587.402" xml:space="preserve" xmlns="http://www.w3.org/2000/svg" xmlns:cc="http://creativecommons.org/ns#" xmlns:dc="http://purl.org/dc/elements/1.1/" xmlns:rdf="http://www.w3.org/1999/02/22-rdf-syntax-ns#" xmlns:svg="http://www.w3.org/2000/svg">
	<metadata id="metadata3842">
		<rdf:RDF>
			<cc:Work rdf:about="">
				<dc:format>image/svg+xml</dc:format>
				<dc:type rdf:resource="http://purl.org/dc/dcmitype/StillImage"/>
				<dc:title/>
			</cc:Work>
		</rdf:RDF>
	</metadata>
	<defs id="defs3840">
		<clipPath clipPathUnits="userSpaceOnUse" id="clipPath3850">
			<path animation_id="0" d="m 12.497,167.268 314.645,0 0,457.511 -314.645,0 0,-457.511 z" id="path3852"/>
		</clipPath>
		<clipPath clipPathUnits="userSpaceOnUse" id="clipPath3864">
			<path animation_id="1" d="m 12.496,12.496 314.646,0 0,612.283 -314.646,0 0,-612.283 z" id="path3866"/>
		</clipPath>
		<clipPath clipPathUnits="userSpaceOnUse" id="clipPath3888">
			<path animation_id="2" d="m 12.496,12.496 314.646,0 0,612.283 -314.646,0 0,-612.283 z" id="path3890"/>
		</clipPath>
		<clipPath clipPathUnits="userSpaceOnUse" id="clipPath3916">
			<path animation_id="3" d="m 12.496,12.496 314.646,0 0,612.283 -314.646,0 0,-612.283 z" id="path3918"/>
		</clipPath>
		<clipPath clipPathUnits="userSpaceOnUse" id="clipPath3976">
			<path animation_id="4" d="m 0,0 339.638,0 0,637.276 L 0,637.276 0,0 Z" id="path3978"/>
		</clipPath>
	</defs>
	<g id="g3844" transform="matrix(1.25,0,0,-1.25,-175.06937,979.82362)">
		<g id="g3920" transform="matrix(8,0,0,8,152.6811,630.0749)">
			<path animation_id="5" d="m 0,0 c -0.078,-0.128 -0.154,-0.253 -0.231,-0.376 0,0 -0.103,0.151 -0.228,0.374 L 0,0 Z m 13.014,0 c 0.305,-0.868 0.563,-1.549 0.727,-1.87 0.766,-1.492 2.548,-1.332 3.445,-0.382 0.366,0.387 0.969,1.192 1.701,2.259 L 25.405,0 c -2.07,-5.137 -7.105,-8.767 -12.988,-8.767 -3.435,0 -6.579,1.239 -9.014,3.292 l -2.094,0 c 0.75,1.352 1.85,3.355 3.007,5.469 L 13.014,0 Z m 24.068,0 -0.858,-2.27 2.347,0 -0.849,2.27 1.482,0 c 0.931,-2.422 2.213,-5.766 2.213,-5.797 0,-0.073 -0.049,-0.121 -0.122,-0.121 l -1.277,0 c -0.048,0 -0.097,0.048 -0.121,0.121 l -0.876,2.311 -3.259,0 -0.852,-2.311 C 34.886,-5.87 34.837,-5.918 34.789,-5.918 l -1.277,0 c -0.073,0 -0.122,0.048 -0.122,0.121 0,0.032 1.293,3.406 2.212,5.802 L 37.082,0 Z m 7.302,0 0,-5.797 c 0,-0.073 -0.048,-0.121 -0.121,-0.121 l -1.217,0 c -0.072,0 -0.121,0.048 -0.121,0.121 l 0,5.797 1.459,0 z m 3.989,0 0,-0.932 1.217,0 c 1.383,0 1.649,0.419 1.694,0.931 L 52.747,0 c -0.037,-0.926 -0.333,-1.628 -1.516,-1.966 0.329,-0.316 0.584,-0.717 0.73,-1.034 0.717,-1.568 1.156,-2.797 1.156,-2.797 0,-0.073 -0.049,-0.121 -0.122,-0.121 l -1.338,0 c -0.048,0 -0.086,0.048 -0.122,0.121 l -1.094,2.676 c -0.134,0.329 -0.596,0.973 -1.217,0.973 l -0.851,0 0,-3.649 c 0,-0.073 -0.048,-0.121 -0.121,-0.121 l -1.217,0 c -0.072,0 -0.122,0.048 -0.122,0.121 l 0,5.797 1.46,0 z m 8.161,0 0,-1.418 1.217,0 c 1.58,0 1.702,0.778 1.702,1.398 0,0.008 0,0.016 0,0.024 L 60.913,0 l 0,-0.02 c 0,-1.277 -0.366,-2.615 -3.162,-2.615 l -1.217,0 0,-3.162 c 0,-0.073 -0.049,-0.121 -0.121,-0.121 l -1.217,0 c -0.073,0 -0.122,0.048 -0.122,0.121 l 0,5.797 1.46,0 z m 7.507,0 c -0.161,-0.488 -0.222,-1.06 -0.222,-1.662 0,-1.703 0.487,-3.162 2.371,-3.162 1.886,0 2.372,1.459 2.372,3.162 0,0.602 -0.061,1.174 -0.222,1.661 L 69.903,0 c 0.126,-0.509 0.18,-1.072 0.18,-1.662 0,-2.419 -0.913,-4.378 -3.893,-4.378 -2.979,0 -3.891,1.959 -3.891,4.378 0,0.59 0.054,1.152 0.179,1.666 L 64.041,0 Z m 9.593,0 0,-0.932 1.216,0 c 1.384,0 1.65,0.419 1.694,0.931 L 78.007,0 c -0.037,-0.926 -0.333,-1.628 -1.515,-1.966 0.328,-0.316 0.584,-0.717 0.73,-1.034 0.717,-1.568 1.154,-2.797 1.154,-2.797 0,-0.073 -0.048,-0.121 -0.121,-0.121 l -1.338,0 c -0.048,0 -0.085,0.048 -0.121,0.121 l -1.095,2.676 c -0.133,0.329 -0.596,0.973 -1.216,0.973 l -0.851,0 0,-3.649 c 0,-0.073 -0.049,-0.121 -0.122,-0.121 l -1.216,0 c -0.074,0 -0.122,0.048 -0.122,0.121 l 0,5.797 1.46,0 z m 9.778,0 0,-5.797 c 0,-0.073 -0.049,-0.121 -0.122,-0.121 l -1.216,0 c -0.073,0 -0.121,0.048 -0.121,0.121 l 0,5.797 1.459,0 z m 8.938,0 0,-5.797 c 0,-0.073 -0.048,-0.121 -0.121,-0.121 l -1.216,0 c -0.073,0 -0.122,0.048 -0.122,0.121 l 0,5.797 1.459,0 z m 1.918,0 1.731,-3.607 0.244,-0.852 0,4.459 1.459,0 0,-5.797 c 0,-0.073 -0.049,-0.121 -0.122,-0.121 l -1.945,0 c -0.061,0 -0.086,0.048 -0.123,0.121 L 92.731,0 94.268,0 Z m 7.326,0 0,-2.635 c 0,-1.338 0.243,-2.188 1.824,-2.188 1.581,0 1.824,0.85 1.824,2.188 l 0,2.635 1.46,0 0,-2.756 c 0,-2.432 -1.217,-3.285 -3.284,-3.285 -2.067,0 -3.284,0.853 -3.284,3.285 l 0,2.756 1.46,0 z m 9.012,0 0,-0.932 1.216,0 c 1.383,0 1.65,0.419 1.695,0.931 L 114.98,0 c -0.038,-0.926 -0.334,-1.628 -1.517,-1.966 0.329,-0.316 0.585,-0.717 0.731,-1.034 0.717,-1.568 1.154,-2.797 1.154,-2.797 0,-0.073 -0.048,-0.121 -0.121,-0.121 l -1.337,0 c -0.05,0 -0.087,0.048 -0.122,0.121 l -1.095,2.676 c -0.134,0.329 -0.596,0.973 -1.216,0.973 l -0.851,0 0,-3.649 c 0,-0.073 -0.049,-0.121 -0.122,-0.121 l -1.216,0 c -0.074,0 -0.123,0.048 -0.123,0.121 l 0,5.797 1.461,0 z m 8.161,0 0,-5.797 c 0,-0.073 -0.049,-0.121 -0.123,-0.121 l -1.216,0 c -0.073,0 -0.122,0.048 -0.122,0.121 l 0,5.797 1.461,0 z m 1.916,0 1.732,-3.607 0.243,-0.852 0,4.459 1.459,0 0,-5.797 c 0,-0.073 -0.048,-0.121 -0.121,-0.121 l -1.946,0 c -0.061,0 -0.085,0.048 -0.122,0.121 L 119.146,0 l 1.537,0 z m 7.424,0 0,-0.932 1.215,0 c 1.246,0 1.606,0.399 1.685,0.931 L 132.479,0 c -0.047,-0.727 -0.402,-1.212 -0.966,-1.54 0.692,-0.365 1.215,-0.949 1.215,-1.825 0,-1.459 -0.365,-2.553 -3.406,-2.553 l -2.554,0 c -0.072,0 -0.121,0.048 -0.121,0.121 l 0,5.797 1.46,0 z m 8.208,0 0,-0.932 3.528,0 c 0.073,0 0.121,-0.049 0.121,-0.121 l 0,-0.974 c 0,-0.073 -0.048,-0.121 -0.121,-0.121 l -3.528,0 0,-2.554 3.893,0 c 0.072,0 0.121,-0.049 0.121,-0.122 0,-0.048 -0.121,-0.973 -0.121,-0.973 -0.012,-0.073 -0.049,-0.121 -0.122,-0.121 l -5.108,0 c -0.073,0 -0.122,0.048 -0.122,0.121 l 0,5.797 1.459,0 z m 7.626,0 0,-0.932 1.216,0 c 1.384,0 1.65,0.419 1.694,0.931 L 148.314,0 c -0.037,-0.926 -0.333,-1.628 -1.515,-1.966 0.328,-0.316 0.584,-0.717 0.73,-1.034 0.717,-1.568 1.155,-2.797 1.155,-2.797 0,-0.073 -0.049,-0.121 -0.121,-0.121 l -1.338,0 c -0.048,0 -0.085,0.048 -0.122,0.121 l -1.095,2.676 c -0.133,0.329 -0.595,0.973 -1.216,0.973 l -0.851,0 0,-3.649 c 0,-0.073 -0.048,-0.121 -0.122,-0.121 l -1.215,0 c -0.074,0 -0.122,0.048 -0.122,0.121 l 0,5.797 1.459,0 z m 8.056,0 c -0.199,-0.54 -0.248,-1.15 -0.248,-1.662 0,-1.277 0.305,-3.162 2.493,-3.162 0.852,0 1.46,0.085 1.46,0.085 l 0,2.591 -1.946,0 c -0.073,0 -0.122,0.048 -0.122,0.121 0,0.049 0.122,0.974 0.122,0.974 0.012,0.072 0.049,0.121 0.122,0.121 l 3.161,0 c 0.074,0 0.123,-0.049 0.123,-0.121 l 0,-4.501 c 0,-0.06 -0.049,-0.109 -0.123,-0.121 0,0 -1.095,-0.365 -2.797,-0.365 -3.648,0 -4.013,2.627 -4.013,4.378 0,0.507 0.031,1.088 0.163,1.657 L 151.997,0 Z m -22.675,-2.148 -1.215,0 0,-2.554 1.215,0 c 1.704,0 1.946,0.547 1.946,1.216 0,0.669 -0.242,1.338 -1.946,1.338" id="path3922" style="fill:#153a75;fill-opacity:1;fill-rule:nonzero;stroke:none"/>
		</g>
		<g id="g3924" transform="matrix(8,0,0,8,149.0075,630.0749)">
			<path animation_id="6" d="m 0,0 c -0.092,0.164 -0.196,0.369 -0.278,0.58 -0.535,1.378 -0.841,3.22 -0.841,4.648 0,7.729 6.265,13.995 13.995,13.995 3.401,0 6.517,-1.214 8.942,-3.23 l 2.156,-0.004 c 0,0 -3.63,-8.288 -7.343,-14.805 C 16.415,0.804 15.999,0.772 15.846,1.148 15.693,1.523 12.713,10.425 12.248,11.56 11.712,12.869 9.698,13.555 8.42,11.95 6.308,9.297 3.173,4.384 0.459,-0.003 L 0,0 Z M 4.775,0 C 6.737,3.579 8.863,7.485 9.721,9.079 9.989,9.576 10.372,9.5 10.564,9.04 10.621,8.947 12.358,3.193 13.473,0.003 L 4.775,0 Z m 14.572,0 c 1.873,2.732 4.598,7.169 6.415,10.725 0,0 0.049,-0.152 0.164,-0.46 0.115,-0.306 0.21,-0.612 0.21,-0.612 0.536,-1.569 0.735,-3.151 0.735,-4.425 0,-1.846 -0.357,-3.609 -1.007,-5.223 L 19.347,0 Z m 16.714,0 c 0.508,1.328 0.902,2.352 0.902,2.352 0.024,0.06 0.072,0.109 0.121,0.121 l 1.034,0.122 0.474,0 c 0.061,0 0.097,-0.06 0.122,-0.122 0,0 0.418,-1.085 0.949,-2.469 L 38.181,0 37.984,0.528 37.863,1.379 37.741,0.528 37.542,0 36.061,0 Z m 7.323,0 0,2.352 c 0,0.073 0.049,0.109 0.121,0.121 0,0 1.192,0.122 1.217,0.122 0.073,0 0.122,-0.048 0.122,-0.122 l 0,-2.473 -1.46,0 z m 3.988,0 0,2.352 c 0,0.073 0.05,0.109 0.122,0.121 l 1.095,0.122 1.46,0 c 2.797,0 3.162,-1.095 3.162,-2.372 0,-0.076 -10e-4,-0.152 -0.004,-0.226 L 51.743,0 c 0.007,0.072 0.008,0.147 0.008,0.223 0,0.608 -0.121,1.156 -1.702,1.156 l -1.217,0 0,-1.379 -1.46,0 z m 8.161,0 0,2.352 c 0,0.073 0.049,0.109 0.122,0.121 l 0.973,0.122 1.582,0 c 2.779,0 3.157,-1.321 3.162,-2.591 L 59.912,0 C 59.909,0.62 59.771,1.379 58.21,1.379 l -1.217,0 0,-1.379 -1.46,0 z m 7.404,0 c 0.388,1.597 1.459,2.717 3.712,2.717 2.254,0 3.325,-1.12 3.713,-2.713 L 68.799,0 C 68.502,0.89 67.868,1.5 66.649,1.5 65.431,1.5 64.797,0.89 64.5,-0.001 L 62.937,0 Z m 9.696,0 0,2.352 c 0,0.073 0.049,0.109 0.122,0.121 l 1.094,0.122 1.46,0 c 2.797,0 3.162,-1.095 3.162,-2.372 0,-0.076 -0.002,-0.152 -0.004,-0.226 L 77.004,0 c 0.006,0.072 0.008,0.147 0.008,0.223 0,0.608 -0.122,1.156 -1.703,1.156 l -1.216,0 0,-1.379 -1.46,0 z m 9.779,0 0,1.257 -2.433,0 c -0.072,0 -0.122,0.049 -0.122,0.122 l 0,0.973 c 0,0.073 0.05,0.109 0.122,0.121 l 0.973,0.122 5.351,0 c 0.073,0 0.122,-0.048 0.122,-0.122 0,-0.024 -0.122,-1.094 -0.122,-1.094 C 86.291,1.306 86.255,1.257 86.182,1.257 l -2.311,0 0,-1.257 -1.459,0 z m 8.938,0 0,2.352 c 0,0.073 0.049,0.109 0.122,0.121 l 0.973,0.122 0.973,0 c 0.048,0 0.085,-0.048 0.122,-0.122 L 94.727,0 93.19,0 93.054,0.284 92.809,1.135 92.809,0 91.35,0 Z m 5.352,0 0,2.352 c 0,0.073 0.048,0.109 0.121,0.121 l 1.216,0.122 c 0.073,0 0.122,-0.048 0.122,-0.122 l 0,-2.473 -1.459,0 z m 3.891,0.592 1.46,0 0,-0.592 -1.46,0 0,0.592 z m 5.108,0 1.46,0 0,-0.592 -1.46,0 0,0.592 z M 109.605,0 l 0,2.352 c 0,0.073 0.048,0.109 0.122,0.121 l 1.094,0.122 1.46,0 c 2.797,0 3.162,-1.095 3.162,-2.372 0,-0.076 -0.002,-0.152 -0.004,-0.226 L 113.976,0 c 0.006,0.072 0.008,0.147 0.008,0.223 0,0.608 -0.122,1.156 -1.703,1.156 l -1.216,0 0,-1.379 -1.46,0 z m 8.16,0 0,2.352 c 0,0.073 0.049,0.109 0.122,0.121 l 0.973,0.122 0.974,0 c 0.048,0 0.084,-0.048 0.121,-0.122 L 121.142,0 l -1.537,0 -0.136,0.284 -0.243,0.851 0,-1.135 -1.461,0 z m 5.352,0 0,2.352 c 0,0.073 0.049,0.109 0.122,0.121 l 1.216,0.122 c 0.073,0 0.121,-0.048 0.121,-0.122 l 0,-2.473 -1.459,0 z m 3.989,0 0,2.352 c 0,0.073 0.049,0.109 0.122,0.121 l 1.094,0.122 1.46,0 c 2.797,0 3.161,-0.973 3.161,-2.433 0,-0.057 -0.001,-0.113 -0.005,-0.167 L 131.466,0 c 0.013,0.091 0.019,0.186 0.019,0.284 0,0.669 -0.244,1.095 -1.703,1.095 l -1.216,0 0,-1.379 -1.46,0 z m 8.209,0 0,2.352 c 0,0.073 0.049,0.109 0.122,0.121 l 1.216,0.122 3.892,0 c 0.073,0 0.11,-0.048 0.122,-0.122 0,0 0.122,-0.923 0.122,-0.973 0,-0.073 -0.05,-0.121 -0.122,-0.121 l -3.893,0 0,-1.379 -1.459,0 z m 7.626,0 0,2.352 c 0,0.073 0.048,0.109 0.122,0.121 l 1.095,0.122 1.458,0 c 2.798,0 3.162,-1.095 3.162,-2.372 0,-0.076 -0.001,-0.152 -0.005,-0.226 L 147.31,0 c 0.007,0.072 0.009,0.147 0.009,0.223 0,0.608 -0.121,1.156 -1.703,1.156 l -1.216,0 0,-1.379 -1.459,0 z m 7.91,0 c 0.324,1.39 1.258,2.717 3.85,2.717 1.216,0 2.189,-0.365 2.189,-0.365 0.061,-0.025 0.11,-0.073 0.122,-0.121 0,0 0.122,-0.925 0.122,-0.974 0,-0.072 -0.049,-0.122 -0.122,-0.122 -0.061,0 -1.459,0.365 -2.311,0.365 -1.311,0 -1.946,-0.676 -2.245,-1.493 L 150.851,0 Z m -43.69,1.402 -1.46,0 0,1.152 c 0,0.074 0.049,0.122 0.123,0.122 l 1.215,0.122 c 0.074,0 0.122,-0.048 0.122,-0.122 l 0,-1.274 z m -5.108,0 -1.46,0 0,1.152 c 0,0.074 0.05,0.122 0.122,0.122 l 1.216,0.122 c 0.073,0 0.122,-0.048 0.122,-0.122 l 0,-1.274 z m 32.958,10.46 1.579,0 c 2.065,0 2.187,0.643 2.187,1.489 0,0.833 -0.243,1.489 -2.187,1.489 l -1.579,0 0,-2.978 z m 3.887,-1.906 c 0,0 1.216,-2.561 1.216,-2.621 0,-0.071 -0.049,-0.119 -0.122,-0.119 l -0.85,0 c -0.049,0 -0.086,0.048 -0.121,0.119 l -1.155,2.633 c -0.17,0.393 -0.729,1.179 -1.641,1.179 l -1.214,0 0,-3.812 c 0,-0.071 -0.049,-0.119 -0.122,-0.119 l -0.729,0 c -0.072,0 -0.122,0.048 -0.122,0.119 l 0,7.981 c 0,0.071 0.05,0.107 0.122,0.119 l 1.094,0.119 1.214,0 c 2.795,0 3.28,-0.893 3.28,-2.203 0,-0.966 -0.243,-1.847 -1.943,-2.144 0.705,-0.441 0.935,-0.882 1.093,-1.251 m -7.35,-2.74 -4.897,0 c -0.073,0 -0.121,0.048 -0.121,0.119 l 0,7.981 c 0,0.071 0.048,0.107 0.121,0.119 l 1.094,0.119 3.803,0 c 0.073,0 0.11,-0.047 0.121,-0.119 0,0 0.086,-0.428 0.086,-0.476 0,-0.071 -0.049,-0.119 -0.122,-0.119 l -4.131,0 0,-2.978 3.767,0 c 0.072,0 0.121,-0.048 0.121,-0.12 l 0,-0.476 c 0,-0.071 -0.049,-0.119 -0.121,-0.119 l -3.767,0 0,-3.216 4.131,0 c 0.073,0 0.122,-0.048 0.122,-0.119 0,-0.048 -0.086,-0.477 -0.086,-0.477 -0.011,-0.071 -0.048,-0.119 -0.121,-0.119 m -12.174,4.646 1.579,0 c 2.065,0 2.187,0.643 2.187,1.489 0,0.833 -0.243,1.489 -2.187,1.489 l -1.579,0 0,-2.978 z m 3.887,-1.906 c 0,0 1.215,-2.561 1.215,-2.621 0,-0.071 -0.048,-0.119 -0.121,-0.119 l -0.85,0 c -0.049,0 -0.086,0.048 -0.122,0.119 l -1.154,2.633 c -0.17,0.393 -0.73,1.179 -1.64,1.179 l -1.215,0 0,-3.812 c 0,-0.071 -0.049,-0.119 -0.122,-0.119 l -0.729,0 c -0.073,0 -0.121,0.048 -0.121,0.119 l 0,7.981 c 0,0.071 0.048,0.107 0.121,0.119 l 1.093,0.119 1.216,0 c 2.794,0 3.28,-0.893 3.28,-2.203 0,-0.966 -0.243,-1.847 -1.944,-2.144 0.705,-0.441 0.936,-0.882 1.093,-1.251 m -20.019,-2.74 -2.621,0 c -0.072,0 -0.119,0.048 -0.119,0.119 l 0,7.981 c 0,0.071 0.047,0.107 0.119,0.119 l 1.072,0.119 1.549,0 c 3.573,0 3.93,-2.454 3.93,-4.169 0,-1.716 -0.357,-4.169 -3.93,-4.169 m 0,7.624 -1.788,0 0,-6.909 1.788,0 c 2.597,0 2.918,2.096 2.918,3.454 0,1.358 -0.321,3.455 -2.918,3.455 m -14.246,0 0,0.476 c 0,0.071 0.047,0.107 0.119,0.119 l 0.953,0.119 5.241,0 c 0.071,0 0.118,-0.047 0.118,-0.119 0,-0.024 -0.082,-0.595 -0.082,-0.595 -0.012,-0.072 -0.048,-0.119 -0.12,-0.119 l -2.537,0 0,-7.386 c 0,-0.071 -0.048,-0.119 -0.119,-0.119 l -0.715,0 c -0.071,0 -0.119,0.048 -0.119,0.119 l 0,7.386 -2.62,0 c -0.072,0 -0.119,0.047 -0.119,0.119 m -8.017,-7.505 0,8.017 c 0,0.071 0.048,0.107 0.12,0.119 0,0 0.666,0.083 0.714,0.083 0.072,0 0.119,-0.047 0.119,-0.119 l 0,-3.573 4.526,0 0,3.49 c 0,0.071 0.048,0.119 0.119,0.119 l 0.715,0.083 c 0.072,0 0.119,-0.047 0.119,-0.119 l 0,-8.1 c 0,-0.071 -0.047,-0.119 -0.119,-0.119 l -0.715,0 c -0.071,0 -0.119,0.048 -0.119,0.119 l 0,3.812 -4.526,0 0,-3.812 c 0,-0.071 -0.047,-0.119 -0.119,-0.119 l -0.714,0 c -0.072,0 -0.12,0.048 -0.12,0.119 m -2.216,7.266 c 0,0 -1.25,0.358 -2.144,0.358 -2.608,0 -2.919,-2.227 -2.919,-3.574 0,-1.358 0.311,-3.573 2.919,-3.573 0.953,0 2.025,0.238 2.062,0.238 0.059,0 0.107,-0.048 0.118,-0.119 0,0 0.083,-0.429 0.083,-0.477 0,-0.059 -0.047,-0.106 -0.119,-0.119 0,0 -0.953,-0.238 -2.144,-0.238 -3.573,0 -3.93,2.572 -3.93,4.288 0,1.715 0.357,4.289 3.93,4.289 1.072,0 2.062,-0.358 2.062,-0.358 0.059,-0.024 0.107,-0.071 0.118,-0.119 0,0 0.083,-0.429 0.083,-0.476 0,-0.072 -0.047,-0.12 -0.119,-0.12 m -8.111,-7.385 -4.801,0 c -0.071,0 -0.119,0.048 -0.119,0.119 l 0,7.981 c 0,0.071 0.048,0.107 0.119,0.119 l 1.073,0.119 3.728,0 c 0.071,0 0.106,-0.047 0.119,-0.119 0,0 0.083,-0.428 0.083,-0.476 0,-0.071 -0.047,-0.119 -0.119,-0.119 l -4.05,0 0,-2.978 3.693,0 c 0.071,0 0.119,-0.048 0.119,-0.12 l 0,-0.476 c 0,-0.071 -0.048,-0.119 -0.119,-0.119 l -3.693,0 0,-3.216 4.05,0 c 0.072,0 0.119,-0.048 0.119,-0.119 0,-0.048 -0.083,-0.477 -0.083,-0.477 C 70.758,7.264 70.723,7.216 70.652,7.216 m -11.936,4.646 1.549,0 c 2.025,0 2.144,0.643 2.144,1.489 0,0.833 -0.238,1.489 -2.144,1.489 l -1.549,0 0,-2.978 z m 3.812,-1.906 c 0,0 1.191,-2.561 1.191,-2.621 0,-0.071 -0.047,-0.119 -0.119,-0.119 l -0.834,0 c -0.047,0 -0.083,0.048 -0.119,0.119 l -1.131,2.633 c -0.167,0.393 -0.715,1.179 -1.608,1.179 l -1.192,0 0,-3.812 c 0,-0.071 -0.047,-0.119 -0.119,-0.119 l -0.715,0 c -0.071,0 -0.119,0.048 -0.119,0.119 l 0,7.981 c 0,0.071 0.048,0.107 0.119,0.119 l 1.073,0.119 1.191,0 c 2.74,0 3.216,-0.893 3.216,-2.203 0,-0.966 -0.238,-1.847 -1.906,-2.144 0.691,-0.441 0.917,-0.882 1.072,-1.251 m -12.793,-2.621 0,7.981 c 0,0.071 0.048,0.107 0.119,0.119 l 1.073,0.119 1.309,0 c 2.74,0 3.097,-1.012 3.097,-2.262 0,-0.894 -0.536,-1.55 -1.31,-1.788 0.774,-0.238 1.548,-0.893 1.548,-1.906 0,-1.25 -0.357,-2.382 -3.335,-2.382 l -2.382,0 c -0.071,0 -0.119,0.048 -0.119,0.119 m 0.953,4.527 1.548,0 c 1.978,0 2.144,0.536 2.144,1.43 0,0.833 -0.166,1.548 -2.144,1.548 l -1.548,0 0,-2.978 z m 1.548,-0.715 -1.548,0 0,-3.216 1.548,0 c 2.228,0 2.383,0.715 2.383,1.667 0,0.823 -0.274,1.549 -2.383,1.549 m -9.172,-3.812 0,8.017 c 0,0.071 0.048,0.107 0.12,0.119 0,0 0.655,0.083 0.714,0.083 0.072,0 0.119,-0.047 0.119,-0.119 l 0,-7.504 4.051,0 c 0.071,0 0.119,-0.048 0.119,-0.119 0,-0.048 -0.084,-0.477 -0.084,-0.477 C 48.092,7.264 48.056,7.216 47.984,7.216 l -4.8,0 c -0.072,0 -0.12,0.048 -0.12,0.119 m -5.407,6.91 -1.37,-3.694 2.954,0 -1.369,3.694 -0.096,0.714 -0.119,-0.714 z m 2.787,-6.91 -0.93,2.501 -3.489,0 -0.929,-2.501 C 35.072,7.264 35.024,7.216 34.976,7.216 l -0.773,0 c -0.072,0 -0.12,0.048 -0.12,0.119 0,0.048 3.05,7.981 3.05,7.981 0.023,0.06 0.071,0.107 0.131,0.119 0,0 0.905,0.119 0.965,0.119 0.059,0 0.119,-0.059 0.143,-0.119 0,0 3.096,-8.052 3.096,-8.1 0,-0.071 -0.047,-0.119 -0.119,-0.119 l -0.774,0 c -0.048,0 -0.108,0.048 -0.131,0.119 m 68.834,6.409 0.971,0 0,-3.312 c 0,-1.786 0.426,-2.62 2.309,-2.62 1.895,0 2.308,0.834 2.308,2.62 l 0,3.312 0.972,0 0,-3.431 c 0,-2.382 -1.215,-3.216 -3.28,-3.216 -2.066,0 -3.28,0.834 -3.28,3.216 l 0,3.431 z m 0.971,0.809 -0.971,0 0,0.965 c 0,0.071 0.047,0.118 0.121,0.131 l 0.729,0.083 c 0.072,0 0.121,-0.048 0.121,-0.119 l 0,-1.06 z m 5.589,0 -0.972,0 0,0.965 c 0,0.071 0.048,0.118 0.122,0.131 l 0.729,0.083 c 0.073,0 0.121,-0.048 0.121,-0.119 l 0,-1.06 z" id="path3926" style="fill:#153a75;fill-opacity:1;fill-rule:nonzero;stroke:none"/>
		</g>
		<g id="g3928" transform="translate(295.9606,63.6757)">
			<path animation_id="7" d="m 0,0 -0.119,-0.037 c -0.086,-0.018 -0.205,-0.027 -0.358,-0.027 -0.172,0 -0.294,0.009 -0.367,0.027 -0.049,0.013 -0.086,0.024 -0.11,0.037 l 0,0.863 0.11,0.027 c 0.036,0.012 0.085,0.022 0.146,0.028 0.062,0.006 0.135,0.009 0.221,0.009 0.079,0 0.148,-0.003 0.207,-0.009 0.058,-0.006 0.108,-0.016 0.151,-0.028 L 0,0.863 0,0 Z m -94.253,6.544 0.05,-0.17 c 0.015,-0.058 0.023,-0.121 0.023,-0.188 0,-0.141 -0.024,-0.276 -0.073,-0.404 l -2.791,0 0,-2.129 2.331,0 0.051,-0.175 c 0.015,-0.061 0.023,-0.125 0.023,-0.192 0,-0.129 -0.025,-0.257 -0.074,-0.386 l -2.331,0 0,-2.202 2.882,0 0.051,-0.179 c 0.015,-0.058 0.022,-0.121 0.022,-0.188 0,-0.129 -0.024,-0.261 -0.073,-0.395 l -3.818,0 0,6.608 3.727,0 z m 2.918,-2.368 c -0.086,0.146 -0.161,0.292 -0.225,0.436 l -0.17,0.381 c -0.055,0.128 -0.104,0.251 -0.146,0.367 l -0.01,-0.423 c 0.013,-0.134 0.021,-0.296 0.028,-0.486 0.006,-0.189 0.009,-0.4 0.009,-0.633 l 0,-3.818 -0.11,-0.037 c -0.074,-0.018 -0.184,-0.027 -0.33,-0.027 -0.153,0 -0.261,0.009 -0.322,0.027 -0.043,0.013 -0.076,0.024 -0.1,0.037 l 0,6.48 0.137,0.027 c 0.049,0.012 0.109,0.021 0.179,0.028 0.07,0.006 0.151,0.009 0.243,0.009 0.092,0 0.171,-0.003 0.238,-0.009 0.068,-0.007 0.126,-0.016 0.175,-0.028 l 0.137,-0.027 2.286,-4.14 c 0.085,-0.153 0.162,-0.301 0.229,-0.445 l 0.175,-0.39 0.165,-0.385 -0.009,0.45 c -0.019,0.275 -0.028,0.636 -0.028,1.082 l 0,3.828 0.11,0.027 c 0.038,0.012 0.081,0.021 0.134,0.028 0.051,0.006 0.117,0.009 0.197,0.009 0.073,0 0.138,-0.003 0.192,-0.009 0.056,-0.007 0.098,-0.016 0.129,-0.028 l 0.101,-0.027 0,-6.48 -0.138,-0.037 c -0.092,-0.018 -0.226,-0.027 -0.404,-0.027 -0.189,0 -0.33,0.009 -0.422,0.027 L -89.022,0 -91.335,4.176 Z m 9.196,2.368 0.037,-0.11 c 0.012,-0.037 0.021,-0.08 0.027,-0.129 0.006,-0.049 0.009,-0.101 0.009,-0.156 0,-0.062 -0.003,-0.116 -0.009,-0.165 -0.006,-0.049 -0.015,-0.092 -0.027,-0.129 l -0.037,-0.119 -1.707,0 0,-5.736 -0.119,-0.037 c -0.086,-0.018 -0.202,-0.027 -0.35,-0.027 -0.164,0 -0.284,0.009 -0.357,0.027 l -0.11,0.037 0,5.736 -1.753,0 -0.037,0.11 c -0.012,0.037 -0.021,0.078 -0.028,0.124 -0.005,0.046 -0.009,0.102 -0.009,0.17 0,0.055 0.004,0.107 0.009,0.156 0.007,0.049 0.016,0.092 0.028,0.128 l 0.037,0.12 4.396,0 z m 1.111,-1.79 c 0,0.281 0.045,0.538 0.137,0.771 0.092,0.232 0.231,0.431 0.418,0.596 0.186,0.166 0.42,0.293 0.702,0.381 0.281,0.089 0.608,0.133 0.981,0.133 0.276,0 0.524,-0.013 0.744,-0.041 0.22,-0.027 0.41,-0.056 0.569,-0.087 0.184,-0.037 0.346,-0.08 0.487,-0.129 0,-0.134 -0.022,-0.267 -0.064,-0.399 -0.044,-0.132 -0.108,-0.243 -0.194,-0.335 -0.122,0.037 -0.26,0.071 -0.412,0.101 -0.129,0.024 -0.279,0.047 -0.45,0.069 -0.171,0.022 -0.355,0.032 -0.551,0.032 -0.489,0 -0.852,-0.09 -1.087,-0.271 -0.236,-0.18 -0.353,-0.439 -0.353,-0.775 0,-0.178 0.045,-0.324 0.137,-0.441 0.092,-0.116 0.212,-0.216 0.363,-0.298 0.15,-0.083 0.324,-0.154 0.523,-0.216 l 0.619,-0.192 c 0.214,-0.074 0.424,-0.158 0.629,-0.253 0.204,-0.095 0.388,-0.212 0.55,-0.353 0.163,-0.141 0.293,-0.315 0.391,-0.523 0.097,-0.208 0.146,-0.462 0.146,-0.762 0,-0.618 -0.194,-1.092 -0.582,-1.423 -0.389,-0.33 -0.963,-0.495 -1.721,-0.495 -0.306,0 -0.582,0.02 -0.826,0.059 -0.245,0.04 -0.453,0.084 -0.624,0.134 -0.202,0.055 -0.38,0.119 -0.532,0.193 -0.007,0.121 0.011,0.25 0.054,0.385 0.043,0.134 0.098,0.254 0.166,0.358 0.17,-0.055 0.352,-0.104 0.541,-0.147 0.159,-0.037 0.341,-0.069 0.546,-0.096 0.205,-0.028 0.414,-0.042 0.629,-0.042 0.93,0 1.395,0.349 1.395,1.047 0,0.164 -0.031,0.304 -0.092,0.417 -0.061,0.114 -0.144,0.211 -0.248,0.294 -0.104,0.082 -0.226,0.153 -0.367,0.211 -0.141,0.058 -0.29,0.111 -0.449,0.161 l -0.744,0.243 c -0.257,0.082 -0.491,0.191 -0.702,0.325 -0.211,0.135 -0.385,0.31 -0.524,0.524 -0.137,0.214 -0.205,0.495 -0.205,0.844 M -74.403,0 -74.522,-0.037 c -0.073,-0.018 -0.187,-0.027 -0.339,-0.027 -0.171,0 -0.294,0.009 -0.367,0.027 L -75.339,0 l 0,6.544 2.396,0 c 0.299,0 0.572,-0.049 0.816,-0.147 0.245,-0.098 0.453,-0.236 0.624,-0.413 0.172,-0.178 0.303,-0.391 0.395,-0.638 0.092,-0.248 0.138,-0.522 0.138,-0.822 0,-0.299 -0.046,-0.571 -0.138,-0.816 -0.092,-0.245 -0.223,-0.456 -0.395,-0.633 -0.171,-0.178 -0.379,-0.316 -0.624,-0.414 -0.244,-0.097 -0.517,-0.147 -0.816,-0.147 l -1.46,0 0,-2.514 z m 1.34,3.295 c 0.368,0 0.646,0.108 0.835,0.325 0.19,0.217 0.285,0.519 0.285,0.904 0,0.392 -0.095,0.697 -0.285,0.914 -0.189,0.217 -0.467,0.325 -0.835,0.325 l -1.34,0 0,-2.468 1.34,0 z m 4.755,3.185 0.155,0.027 c 0.049,0.012 0.106,0.021 0.17,0.028 0.064,0.006 0.139,0.009 0.225,0.009 0.086,0 0.162,-0.003 0.229,-0.009 0.068,-0.007 0.126,-0.016 0.175,-0.028 L -67.207,6.48 -64.903,0 -65.032,-0.037 c -0.086,-0.018 -0.211,-0.027 -0.376,-0.027 -0.16,0 -0.276,0.009 -0.349,0.027 l -0.11,0.037 -0.569,1.615 -2.717,0 L -69.731,0 -69.85,-0.037 c -0.074,-0.018 -0.184,-0.027 -0.331,-0.027 -0.141,0 -0.247,0.009 -0.321,0.027 l -0.11,0.037 2.304,6.48 z m 0.504,-0.955 -0.064,-0.239 -0.073,-0.261 -0.101,-0.326 -0.845,-2.322 2.184,0 -0.835,2.322 -0.11,0.331 -0.073,0.256 c -0.024,0.086 -0.043,0.166 -0.055,0.239 l -0.028,0 z m 5.543,-1.349 c -0.085,0.146 -0.16,0.292 -0.225,0.436 l -0.17,0.381 c -0.054,0.128 -0.103,0.251 -0.146,0.367 l -0.009,-0.423 c 0.012,-0.134 0.021,-0.296 0.027,-0.486 0.006,-0.189 0.009,-0.4 0.009,-0.633 l 0,-3.818 -0.11,-0.037 c -0.073,-0.018 -0.184,-0.027 -0.33,-0.027 -0.153,0 -0.26,0.009 -0.321,0.027 -0.043,0.013 -0.077,0.024 -0.101,0.037 l 0,6.48 0.137,0.027 c 0.049,0.012 0.109,0.021 0.179,0.028 0.071,0.006 0.152,0.009 0.244,0.009 0.091,0 0.171,-0.003 0.238,-0.009 0.068,-0.007 0.125,-0.016 0.174,-0.028 l 0.138,-0.027 2.285,-4.14 c 0.086,-0.153 0.163,-0.301 0.23,-0.445 l 0.174,-0.39 0.165,-0.385 -0.009,0.45 c -0.018,0.275 -0.027,0.636 -0.027,1.082 l 0,3.828 0.11,0.027 c 0.037,0.012 0.081,0.021 0.133,0.028 0.052,0.006 0.118,0.009 0.198,0.009 0.073,0 0.137,-0.003 0.192,-0.009 0.055,-0.007 0.098,-0.016 0.129,-0.028 l 0.101,-0.027 0,-6.48 -0.138,-0.037 c -0.092,-0.018 -0.226,-0.027 -0.404,-0.027 -0.19,0 -0.33,0.009 -0.422,0.027 L -59.948,0 -62.261,4.176 Z m 6.608,0 c -0.086,0.146 -0.16,0.292 -0.224,0.436 l -0.17,0.381 c -0.056,0.128 -0.105,0.251 -0.147,0.367 l -0.009,-0.423 c 0.012,-0.134 0.021,-0.296 0.027,-0.486 0.006,-0.189 0.009,-0.4 0.009,-0.633 l 0,-3.818 -0.11,-0.037 c -0.073,-0.018 -0.183,-0.027 -0.33,-0.027 -0.153,0 -0.26,0.009 -0.322,0.027 -0.043,0.013 -0.076,0.024 -0.101,0.037 l 0,6.48 0.139,0.027 c 0.048,0.012 0.108,0.021 0.179,0.028 0.069,0.006 0.151,0.009 0.243,0.009 0.091,0 0.171,-0.003 0.238,-0.009 0.067,-0.007 0.125,-0.016 0.175,-0.028 l 0.137,-0.027 2.286,-4.14 c 0.085,-0.153 0.161,-0.301 0.229,-0.445 l 0.175,-0.39 0.164,-0.385 -0.009,0.45 c -0.018,0.275 -0.027,0.636 -0.027,1.082 l 0,3.828 0.11,0.027 c 0.036,0.012 0.081,0.021 0.133,0.028 0.052,0.006 0.118,0.009 0.197,0.009 0.074,0 0.138,-0.003 0.193,-0.009 0.055,-0.007 0.098,-0.016 0.128,-0.028 l 0.101,-0.027 0,-6.48 -0.137,-0.037 c -0.092,-0.018 -0.227,-0.027 -0.404,-0.027 -0.19,0 -0.33,0.009 -0.422,0.027 L -53.34,0 -55.653,4.176 Z m 9.187,2.368 0.036,-0.11 c 0.013,-0.037 0.022,-0.08 0.028,-0.129 0.006,-0.049 0.009,-0.101 0.009,-0.156 0,-0.062 -0.003,-0.116 -0.009,-0.165 -0.006,-0.049 -0.015,-0.092 -0.028,-0.129 l -0.036,-0.119 -1.707,0 0,-5.736 -0.12,-0.037 c -0.085,-0.018 -0.202,-0.027 -0.348,-0.027 -0.166,0 -0.284,0.009 -0.358,0.027 l -0.11,0.037 0,5.736 -1.753,0 -0.037,0.11 c -0.012,0.037 -0.021,0.078 -0.027,0.124 -0.006,0.046 -0.009,0.102 -0.009,0.17 0,0.055 0.003,0.107 0.009,0.156 0.006,0.049 0.015,0.092 0.027,0.128 l 0.037,0.12 4.396,0 z m 5.369,-0.064 0.156,0.027 c 0.049,0.012 0.105,0.021 0.17,0.028 0.064,0.006 0.139,0.009 0.225,0.009 0.085,0 0.161,-0.003 0.229,-0.009 0.067,-0.007 0.126,-0.016 0.174,-0.028 L -39.996,6.48 -37.692,0 -37.821,-0.037 c -0.085,-0.018 -0.211,-0.027 -0.376,-0.027 -0.159,0 -0.275,0.009 -0.349,0.027 l -0.11,0.037 -0.569,1.615 -2.717,0 -0.577,-1.615 -0.12,-0.037 c -0.073,-0.018 -0.183,-0.027 -0.331,-0.027 -0.14,0 -0.247,0.009 -0.321,0.027 l -0.11,0.037 2.304,6.48 z m 0.504,-0.955 -0.064,-0.239 -0.073,-0.261 -0.1,-0.326 -0.845,-2.322 2.184,0 -0.835,2.322 -0.11,0.331 -0.074,0.256 c -0.025,0.086 -0.043,0.166 -0.055,0.239 l -0.028,0 z m 6.627,1.019 c 0.294,0 0.553,-0.046 0.78,-0.138 0.226,-0.092 0.414,-0.219 0.564,-0.381 0.15,-0.162 0.263,-0.353 0.34,-0.573 0.076,-0.221 0.115,-0.462 0.115,-0.725 0,-0.19 -0.023,-0.36 -0.069,-0.51 -0.046,-0.15 -0.104,-0.281 -0.175,-0.394 -0.069,-0.114 -0.15,-0.21 -0.238,-0.29 -0.089,-0.079 -0.173,-0.147 -0.252,-0.202 0.098,-0.049 0.201,-0.114 0.312,-0.197 0.109,-0.082 0.211,-0.185 0.303,-0.307 0.091,-0.123 0.166,-0.268 0.224,-0.436 0.058,-0.169 0.087,-0.366 0.087,-0.592 0,-0.275 -0.043,-0.528 -0.128,-0.757 -0.086,-0.23 -0.213,-0.427 -0.381,-0.593 -0.168,-0.165 -0.373,-0.292 -0.615,-0.38 -0.242,-0.089 -0.518,-0.133 -0.831,-0.133 l -2.496,0 0,6.608 2.46,0 z m -0.202,-2.91 c 0.373,0 0.641,0.103 0.803,0.308 0.162,0.205 0.243,0.466 0.243,0.785 0,0.324 -0.081,0.587 -0.243,0.789 -0.162,0.201 -0.433,0.303 -0.812,0.303 l -1.313,0 0,-2.185 1.322,0 z m 0.064,-2.973 c 0.417,0 0.715,0.099 0.895,0.298 0.181,0.199 0.271,0.479 0.271,0.84 0,0.385 -0.095,0.671 -0.284,0.858 -0.191,0.187 -0.487,0.28 -0.891,0.28 l -1.377,0 0,-2.276 1.386,0 z m 7.36,5.819 0.12,0.027 c 0.043,0.012 0.091,0.021 0.146,0.028 0.055,0.006 0.123,0.009 0.203,0.009 0.073,0 0.139,-0.003 0.196,-0.009 0.059,-0.007 0.109,-0.016 0.152,-0.028 l 0.119,-0.027 0,-6.48 -0.119,-0.037 c -0.073,-0.018 -0.186,-0.027 -0.34,-0.027 -0.171,0 -0.293,0.009 -0.366,0.027 L -26.744,0 l 0,2.918 -2.753,0 0,-2.918 -0.119,-0.037 c -0.086,-0.018 -0.202,-0.027 -0.349,-0.027 -0.165,0 -0.284,0.009 -0.358,0.027 l -0.11,0.037 0,6.48 0.119,0.027 c 0.037,0.012 0.083,0.021 0.138,0.028 0.055,0.006 0.122,0.009 0.202,0.009 0.08,0 0.148,-0.003 0.207,-0.009 0.058,-0.007 0.108,-0.016 0.151,-0.028 l 0.119,-0.027 0,-2.754 2.753,0 0,2.754 z m 6.489,0.064 0.051,-0.17 c 0.015,-0.058 0.023,-0.121 0.023,-0.188 0,-0.141 -0.025,-0.276 -0.074,-0.404 l -2.79,0 0,-2.129 2.331,0 0.051,-0.175 c 0.015,-0.061 0.023,-0.125 0.023,-0.192 0,-0.129 -0.025,-0.257 -0.074,-0.386 l -2.331,0 0,-2.202 2.882,0 0.05,-0.179 c 0.015,-0.058 0.024,-0.121 0.024,-0.188 0,-0.129 -0.026,-0.261 -0.074,-0.395 l -3.818,0 0,6.608 3.726,0 z m 4.01,0 c 0.294,0 0.554,-0.046 0.781,-0.138 0.226,-0.092 0.415,-0.219 0.564,-0.381 0.15,-0.162 0.263,-0.353 0.34,-0.573 0.076,-0.221 0.114,-0.462 0.114,-0.725 0,-0.19 -0.022,-0.36 -0.069,-0.51 -0.045,-0.15 -0.103,-0.281 -0.174,-0.394 -0.07,-0.114 -0.15,-0.21 -0.239,-0.29 -0.088,-0.079 -0.172,-0.147 -0.252,-0.202 0.098,-0.049 0.202,-0.114 0.312,-0.197 0.11,-0.082 0.211,-0.185 0.303,-0.307 0.092,-0.123 0.167,-0.268 0.225,-0.436 0.059,-0.169 0.087,-0.366 0.087,-0.592 0,-0.275 -0.043,-0.528 -0.128,-0.757 -0.086,-0.23 -0.213,-0.427 -0.381,-0.593 -0.168,-0.165 -0.373,-0.292 -0.615,-0.38 -0.242,-0.089 -0.519,-0.133 -0.831,-0.133 l -2.496,0 0,6.608 2.459,0 z m -0.202,-2.91 c 0.374,0 0.642,0.103 0.804,0.308 0.162,0.205 0.243,0.466 0.243,0.785 0,0.324 -0.081,0.587 -0.243,0.789 -0.162,0.201 -0.433,0.303 -0.813,0.303 l -1.312,0 0,-2.185 1.321,0 z m 0.065,-2.973 c 0.416,0 0.714,0.099 0.895,0.298 0.18,0.199 0.27,0.479 0.27,0.84 0,0.385 -0.094,0.671 -0.284,0.858 -0.19,0.187 -0.486,0.28 -0.89,0.28 l -1.377,0 0,-2.276 1.386,0 z m 7.397,5.883 0.051,-0.17 c 0.015,-0.058 0.022,-0.121 0.022,-0.188 0,-0.141 -0.024,-0.276 -0.073,-0.404 l -2.79,0 0,-2.129 2.331,0 0.051,-0.175 C -9.378,3.417 -9.37,3.353 -9.37,3.286 -9.37,3.157 -9.396,3.029 -9.444,2.9 l -2.331,0 0,-2.202 2.882,0 0.051,-0.179 C -8.828,0.461 -8.82,0.398 -8.82,0.331 -8.82,0.202 -8.844,0.07 -8.893,-0.064 l -3.818,0 0,6.608 3.726,0 z M -6.066,4.176 C -6.152,4.322 -6.227,4.468 -6.291,4.612 L -6.462,4.993 C -6.516,5.121 -6.565,5.244 -6.608,5.36 L -6.617,4.937 c 0.012,-0.134 0.021,-0.296 0.027,-0.486 0.006,-0.189 0.01,-0.4 0.01,-0.633 L -6.58,0 -6.69,-0.037 c -0.074,-0.018 -0.184,-0.027 -0.331,-0.027 -0.153,0 -0.26,0.009 -0.321,0.027 -0.043,0.013 -0.077,0.024 -0.101,0.037 l 0,6.48 0.138,0.027 c 0.049,0.012 0.108,0.021 0.178,0.028 0.071,0.006 0.152,0.009 0.244,0.009 0.092,0 0.171,-0.003 0.238,-0.009 0.067,-0.007 0.126,-0.016 0.175,-0.028 L -6.333,6.48 -4.048,2.34 c 0.086,-0.153 0.163,-0.301 0.23,-0.445 l 0.175,-0.39 0.165,-0.385 -0.01,0.45 c -0.018,0.275 -0.027,0.636 -0.027,1.082 l 0,3.828 0.11,0.027 c 0.037,0.012 0.081,0.021 0.133,0.028 0.052,0.006 0.118,0.009 0.197,0.009 0.074,0 0.138,-0.003 0.193,-0.009 0.056,-0.007 0.098,-0.016 0.129,-0.028 L -2.652,6.48 -2.652,0 -2.79,-0.037 c -0.092,-0.018 -0.227,-0.027 -0.404,-0.027 -0.189,0 -0.33,0.009 -0.422,0.027 L -3.754,0 -6.066,4.176 Z" id="path3930" style="fill:#ffffff;fill-opacity:1;fill-rule:nonzero;stroke:none"/>
		</g>
	</g>
</svg>
