<?xml version="1.0" encoding="iso-8859-1"?>
<svg height="198.84521" id="svg5301" version="1.1" width="747.14386" xmlns="http://www.w3.org/2000/svg" xmlns:svg="http://www.w3.org/2000/svg">
	
  
	<defs id="defs5303"/>
	
  
	<g id="layer1" transform="translate(23.571935,-432.93957)">
		
    
		<path animation_id="0" d="m -23.571935,631.78479 747.143865,0 0,-198.84522 -747.143865,0 0,198.84522 z" id="path178" style="fill:#000000;fill-opacity:1;fill-rule:nonzero;stroke:none"/>
		
    
		<path animation_id="1" d="m 692.09418,447.80971 c -9.1327,0 -16.54693,7.36823 -16.5,16.4375 0,9.11726 7.3673,16.46875 16.5,16.46875 9.08475,-0.048 16.5,-7.35149 16.5,-16.46875 0,-9.06927 -7.41525,-16.4375 -16.5,-16.4375 z m -0.0312,1.90625 c 8.08065,0 14.625,6.51245 14.625,14.53125 0,8.06679 -6.56107,14.5625 -14.59375,14.5625 -8.08066,0.048 -14.5625,-6.4812 -14.5625,-14.5 -0.048,-8.06679 6.49858,-14.59375 14.53125,-14.59375 z m -6.125,5 0,18.125 2.34375,0 0,-7.78125 5.96875,0 c 3.7785,0 2.74319,3.35213 3.125,5.5 l 0.375,2.28125 2.78125,0 c -1.00441,-1.57517 -0.6841,-1.95645 -0.875,-4.34375 -0.28689,-3.15035 -0.32277,-3.43215 -2.1875,-4.625 1.76928,-1.33629 2.47045,-2.19194 2.375,-4.53125 -0.23943,-4.10431 -2.96043,-4.625 -5.78125,-4.625 l -8.125,0 z m 2.34375,2.0625 5.84375,0 c 1.4344,0 3.67862,0.36585 3.34375,3.46875 -0.23836,2.33931 -1.76645,2.78125 -3.34375,2.78125 l -5.84375,0 0,-6.25 z m -617.875,8.875 c -48.833735,0 -77.875,25.16389 -77.875,62.34375 0,36.99536 26.819068,58.625 64,58.625 19.422048,0 34.383955,-5.5452 44.18749,-13.5 l 3.90625,10.71875 32.1875,0 0,-68.96875 -66.06249,0 0,28.46875 27.218745,0 c -3.51455,9.9891 -16.83761,17.03125 -30.156245,17.03125 -15.908024,0 -33.6875,-9.0752 -33.6875,-32.9375 0,-24.41686 19.803325,-36.25 35.15625,-36.25 11.653865,0 20.161965,3.87906 25.156245,11.09375 l 38.281245,-5.1875 c -5.73441,-21.27184 -32.71578,-31.4375 -62.31249,-31.4375 z m 238.43749,0.9375 c -45.13415,0 -72.90625,24.58551 -72.90625,60.65625 0,33.85034 21.11059,59.5625 72.71875,59.5625 50.49904,0 74.15625,-26.2766 74.15625,-60.3125 0,-35.70014 -23.65475,-59.90625 -73.96875,-59.90625 z m -163.71875,4.0625 0,113.1875 96.75,0 0,-28.65625 -55.875,0 0,-84.53125 -40.875,0 z m 243.25,0 0,113.1875 41.625,0 0,-40.6875 19.40625,0 24.25,40.6875 44.93751,0 -26.81251,-44 c 10.17366,-3.88462 23.65626,-13.3263 23.65626,-34.96875 0,-19.60707 -14.96859,-34.21875 -40.12501,-34.21875 l -45.875,0 -41.0625,0 z m 133.37501,0 0,113.1875 41.25,0 0,-113.1875 -41.25,0 z m 93.21875,0 -49.03125,113.1875 44.21875,0 6.46875,-17.75 41.25,0 6.46875,17.75 43.84375,0 -49,-113.1875 -44.21875,0 z m -305.40626,21.625 c 16.64762,0 31.28125,12.59715 31.28125,33.5 0,22.38204 -11.46776,35.6875 -32,35.6875 -18.12735,0 -30.90625,-13.85756 -30.90625,-35.5 0,-21.64191 13.31209,-33.6875 31.625,-33.6875 z m 120.4375,4.8125 34.59375,0 c 7.39865,0 10.71875,4.44868 10.71875,9.8125 0,4.99481 -3.13454,9.625 -10.71875,9.625 l -34.59375,0 0,-19.4375 z m 206.78126,6.84375 0.9375,2.96875 11.09375,33.46875 -23.125,0 10.375,-33.46875 0.71875,-2.96875 z" id="path180" style="fill:#ffffff;fill-opacity:1;fill-rule:nonzero;stroke:none"/>
		
  
	</g>
	

</svg>
