<?xml version="1.0" encoding="iso-8859-1"?>
<!-- Created with Inkscape (http://www.inkscape.org/) -->
<svg height="35.667175" id="svg2" version="1.1" width="287.69873" xml:space="preserve" xmlns="http://www.w3.org/2000/svg" xmlns:cc="http://creativecommons.org/ns#" xmlns:dc="http://purl.org/dc/elements/1.1/" xmlns:rdf="http://www.w3.org/1999/02/22-rdf-syntax-ns#" xmlns:svg="http://www.w3.org/2000/svg">
	<metadata id="metadata8">
		<rdf:RDF>
			<cc:Work rdf:about="">
				<dc:format>image/svg+xml</dc:format>
				<dc:type rdf:resource="http://purl.org/dc/dcmitype/StillImage"/>
				<dc:title/>
			</cc:Work>
		</rdf:RDF>
	</metadata>
	<defs id="defs6">
		<clipPath id="clipPath16">
			<path animation_id="0" d="m 0,0 595.27559,0 0,841.88977 L 0,841.88977 0,0 z" id="path18"/>
		</clipPath>
		<clipPath id="clipPath24">
			<path animation_id="1" d="m -2976.378,-492.94489 2976.378,0 0,985.88978 -2976.378,0 0,-985.88978 z" id="path26"/>
		</clipPath>
		<clipPath id="clipPath46">
			<path animation_id="2" d="m -276.5,-34 0,68 553,0 0,-68 -553,0 z" id="path48"/>
		</clipPath>
		<clipPath id="clipPath74">
			<path animation_id="3" d="m 0,-492.94489 2976.378,0 0,985.88978 -2976.378,0 0,-985.88978 z" id="path76"/>
		</clipPath>
		<clipPath id="clipPath96">
			<path animation_id="4" d="m -276.5,-34 0,68 553,0 0,-68 -553,0 z" id="path98"/>
		</clipPath>
		<clipPath id="clipPath574">
			<path animation_id="5" d="m 45.75183,-20.67801 0,112.05704 135.81035,0 0,-112.05704 -135.81035,0 z" id="path576"/>
		</clipPath>
		<clipPath id="clipPath590">
			<path animation_id="6" d="m 180.10771,-20.67801 0,112.39371 119.34491,0 0,-112.39371 -119.34491,0 z" id="path592"/>
		</clipPath>
		<clipPath id="clipPath96-9">
			<path animation_id="7" d="m -276.5,-34 0,68 553,0 0,-68 -553,0 z" id="path98-2"/>
		</clipPath>
	</defs>
	<g id="g10" transform="matrix(1.25,0,0,-1.25,-336.57951,254.74773)">
		<g id="g12">
			<g clip-path="url(#clipPath16)" id="g14">
				<g id="g92" style="fill:#000000" transform="matrix(0.41514343,0,0,-0.41514343,384.42872,189.39511)">
					<g clip-path="url(#clipPath96-9)" id="g94" style="fill:#000000">
						<g id="g100" style="fill:#000000" transform="matrix(1,0,0,-1,-276.4838,33.99797)">
							<path animation_id="8" d="M 14.16949,67.67322 66.6682,67.42313 c 3.00538,-0.28147 11.11862,-4.71842 11.10011,-9.90586 l 0,-10.5574 -31.4632,0 0,5.61984 c -0.01828,3.87491 -5.3619,5.09366 -7.39324,5.09366 -3.81247,0 -7.37497,-1.78125 -7.37497,-6.1561 l 0,-34.43741 c 0,-4.6875 5.28131,-6.4064 7.74997,-6.4064 2.8439,0 7.5,1.96875 7.51815,5.59381 l 0,11.06836 -8.73163,0 0,13.80142 39.67687,0 0,-39.92111 -30.93691,0 c 0.22733,1.11283 0.22733,2.05219 0.09012,2.95783 0.06198,-0.07807 -3.52276,-3.00025 -4.7727,-3.00025 l -30.68753,0 C 4.41187,1.17352 0.0369,9.64221 0.0369,14.26736 l 0,40.06241 c 0,5.87485 7.10812,14.15534 14.13259,13.34345 z" id="path102" style="fill:#000000;fill-opacity:1;fill-rule:nonzero;stroke:none"/>
							<path animation_id="9" d="m 84.8237,67.38681 31.67648,0 0,-9.92694 -31.67648,0 0,9.92694 z" id="path104" style="fill:#000000;fill-opacity:1;fill-rule:nonzero;stroke:none"/>
							<path animation_id="10" d="m 131.3237,67.38681 31.67648,0 0,-9.92694 -31.67648,0 0,9.92694 z" id="path106" style="fill:#000000;fill-opacity:1;fill-rule:nonzero;stroke:none"/>
							<path animation_id="11" d="m 84.80519,55.13675 31.46344,0 0,-35.55704 c 0.0183,-4.46884 3.98706,-7.90619 7.6432,-7.90619 3.09386,0 7.37508,3.12494 7.39348,6.09375 l 0,37.36948 31.96335,0 0,-40.30689 C 163.28683,9.70477 158.25574,1.17352 151.13074,1.17352 l -53.68747,0 c -6.28136,0 -12.65636,6.53134 -12.63808,12.84375 l 0,41.11948 z" id="path108" style="fill:#000000;fill-opacity:1;fill-rule:nonzero;stroke:none"/>
							<path animation_id="12" d="m 170.07352,67.38681 32.30191,0 0,-25.74985 13.82332,0 0,25.74985 32.05148,0 0,-66.17673 -31.92691,0 0,26.4375 -14.1982,0 0,-26.4375 -32.0516,0 0,66.17673 z" id="path110" style="fill:#000000;fill-opacity:1;fill-rule:nonzero;stroke:none"/>
							<path animation_id="13" d="m 341.07352,67.38681 31.92679,0 0,-66.17673 -31.92679,0 0,66.17673 z" id="path112" style="fill:#000000;fill-opacity:1;fill-rule:nonzero;stroke:none"/>
							<path animation_id="14" d="m 380.32361,67.40509 28.3071,0 c 1.125,0.01828 23.64914,-22.51663 31.27499,-29.99155 l 0,29.97327 27.84448,0 0,-66.19501 -28.80706,0 c -0.62507,-0.01828 -20.62055,20.26923 -29.52585,29.49094 l 0,-29.47266 -29.09366,0 0,66.19501 z" id="path114" style="fill:#000000;fill-opacity:1;fill-rule:nonzero;stroke:none"/>
							<path animation_id="15" d="m 485.88681,67.42221 54.74393,0 c 3.06231,0.0012 11.90625,-4.46744 11.88745,-9.15494 l 0,-11.80755 -31.46295,0 0,6.86999 c -0.0183,3.43756 -6.04969,4.09381 -7.39337,4.09381 -3.31241,0 -7.37507,-1.9064 -7.37507,-5.90625 l 0,-34.43741 c 0,-4.18759 4.34391,-6.4064 7.75007,-6.4064 2.84368,0 7.5,1.37506 7.51806,5.34375 l 0,11.06836 -8.48132,0 0,14.05148 39.42657,0 0,-40.17117 -30.68695,0 c 0.2273,1.11304 0.2273,2.30225 0.0754,3.20975 -0.34381,-0.60608 -4.35187,-3.25217 -5.50805,-3.25217 l -30.1875,0 c -6.34382,0 -11.40632,7.78125 -11.40632,13.09381 l 0,40.3125 c 0,3.31244 2.57062,7.62213 5.35196,10.24713 1.6561,1.56257 3.97406,2.08664 5.74805,2.84531 z" id="path116" style="fill:#000000;fill-opacity:1;fill-rule:nonzero;stroke:none"/>
							<path animation_id="16" d="m 287.53687,57.20111 0,-16.5 7.75009,0 c 0,0 6.75,-0.25009 7.5,8.74991 0,0 -0.12516,6.12494 -5.37516,7.875 l -9.87493,-0.12491 z m -31.875,9.99985 70.125,0 c 0,0 7.24993,-0.49994 8.25,-7.99994 l 0,-18.25006 c 0,0 -1.125,-4.62494 -5.50007,-6.375 0,0 4.25016,0.50015 5.50007,-6.99985 l 0,-26.50009 -31.24991,0 0,20.12509 c 0,0 -0.87516,7.125 -9.375,6.75 l -5.87509,0 0,-26.87509 -31.875,0 0,66.12494 z" id="path118" style="fill:#000000;fill-opacity:1;fill-rule:evenodd;stroke:none"/>
						</g>
					</g>
				</g>
			</g>
		</g>
	</g>
</svg>
