<?xml version="1.0" encoding="iso-8859-1"?>
<svg height="121px" version="1.1" viewBox="0 0 828 121" width="828px" xmlns="http://www.w3.org/2000/svg" xmlns:xlink="http://www.w3.org/1999/xlink">
	<g fill="none" fill-rule="evenodd" id="Page-1" stroke="none" stroke-width="0.75">
		<g fill-rule="nonzero" id="logo-H+K-horizontal-(red-RGB)">
			<rect animation_id="25" fill="#231F20" height="36" id="Rectangle" width="36" x="144" y="72"/>
			<polygon animation_id="16" fill="#231F20" id="Path" points="288 36 288 72 252 72 252 108 216 108 216 72 180 72 180 36 216 36 216 0 252 0 252 36"/>
			<rect animation_id="26" fill="#231F20" height="36" id="Rectangle" width="36" x="288" y="72"/>
			<rect animation_id="27" fill="#8D191B" height="36" id="Rectangle" width="36" x="360" y="0"/>
			<rect animation_id="28" fill="#231F20" height="36" id="Rectangle" width="36" x="288" y="0"/>
			<rect animation_id="29" fill="#231F20" height="36" id="Rectangle" width="36" x="144" y="0"/>
			<polygon animation_id="17" fill="#231F20" id="Path" points="144 36 144 72 108 72 108 108 72 108 72 72 36 72 36 108 0 108 0 0 36 0 36 36 72 36 72 0 108 0 108 36"/>
			<polygon animation_id="18" fill="#231F20" id="Path" points="432 0 437.839 0 437.839 18.871 460.952 18.871 460.952 0 466.791 0 466.791 43.889 460.952 43.889 460.952 23.789 437.839 23.789 437.839 43.889 432 43.889"/>
			<path animation_id="0" d="M481.708,6.393 L476.483,6.393 L476.483,0 L481.708,0 L481.708,6.393 Z M476.483,12.109 L481.708,12.109 L481.708,43.889 L476.483,43.889 L476.483,12.109 Z" fill="#231F20" id="Shape"/>
			<polygon animation_id="19" fill="#231F20" id="Path" points="491.397 0 496.622 0 496.622 43.889 491.397 43.889"/>
			<polygon animation_id="20" fill="#231F20" id="Path" points="506.31 0 511.536 0 511.536 43.889 506.31 43.889"/>
			<polygon animation_id="21" fill="#231F20" id="Path" points="544.028 19.648 558.767 19.648 558.767 24.248 544.028 24.248 544.028 39.053 539.428 39.053 539.428 24.246 524.691 24.246 524.691 19.646 539.43 19.646 539.43 4.841 544.03 4.841"/>
			<polygon animation_id="22" fill="#231F20" id="Path" points="571.578 0 577.422 0 577.422 21.883 599.669 0 607.23 0 588.73 17.7 607.97 43.886 600.593 43.886 584.732 21.698 577.422 28.522 577.422 43.889 571.583 43.889"/>
			<path animation_id="1" d="M612.522,12.109 L617.439,12.109 L617.439,17.15 L617.563,17.15 C619.776,13.216 623.279,11.372 627.889,11.372 C636.25,11.372 638.831,16.166 638.831,22.989 L638.831,43.889 L633.606,43.889 L633.606,22.375 C633.606,18.44 631.147,15.982 627.152,15.982 C620.821,15.982 617.752,20.223 617.752,25.94 L617.752,43.889 L612.522,43.889 L612.522,12.109 Z" fill="#231F20" id="Path"/>
			<path animation_id="2" d="M659.967,11.372 C670.048,11.372 675.396,18.686 675.396,28.03 C675.396,37.312 670.048,44.63 659.967,44.63 C649.886,44.63 644.538,37.315 644.538,28.03 C644.538,18.686 649.886,11.372 659.967,11.372 Z M659.967,40.017 C665.438,40.017 669.867,35.717 669.867,28.03 C669.867,20.343 665.441,15.982 659.967,15.982 C654.493,15.982 650.067,20.346 650.067,28.03 C650.067,35.714 654.496,40.017 659.967,40.017 Z" fill="#231F20" id="Shape"/>
			<polygon animation_id="23" fill="#231F20" id="Path" points="712.732 43.889 707.199 43.889 700.745 18.625 700.622 18.625 694.229 43.889 688.574 43.889 678.374 12.109 684.152 12.109 691.344 38.109 691.467 38.109 697.86 12.109 703.577 12.109 710.215 38.109 710.338 38.109 717.469 12.109 722.878 12.109"/>
			<polygon animation_id="24" fill="#231F20" id="Path" points="729.768 0 734.993 0 734.993 43.889 729.768 43.889"/>
			<path animation_id="3" d="M752.306,12.109 L758.638,12.109 L758.638,16.719 L752.306,16.719 L752.306,36.451 C752.306,38.91 752.983,39.279 756.24,39.279 L758.64,39.279 L758.64,43.889 L754.64,43.889 C749.231,43.889 747.079,42.783 747.079,36.943 L747.079,16.719 L741.672,16.719 L741.672,12.109 L747.081,12.109 L747.081,2.581 L752.306,2.581 L752.306,12.109 Z" fill="#231F20" id="Path"/>
			<path animation_id="4" d="M779.153,11.372 C789.233,11.372 794.582,18.686 794.582,28.03 C794.582,37.312 789.233,44.63 779.153,44.63 C769.073,44.63 763.722,37.312 763.722,28.03 C763.722,18.686 769.072,11.372 779.153,11.372 Z M779.153,40.017 C784.623,40.017 789.053,35.717 789.053,28.03 C789.053,20.343 784.627,15.982 779.153,15.982 C773.679,15.982 769.253,20.346 769.253,28.03 C769.253,35.714 773.682,40.017 779.153,40.017 Z" fill="#231F20" id="Shape"/>
			<path animation_id="5" d="M800.706,12.109 L805.622,12.109 L805.622,17.15 L805.745,17.15 C807.958,13.216 811.462,11.372 816.072,11.372 C824.432,11.372 827.014,16.166 827.014,22.989 L827.014,43.889 L821.789,43.889 L821.789,22.375 C821.789,18.44 819.33,15.982 815.335,15.982 C809.003,15.982 805.935,20.223 805.935,25.94 L805.935,43.889 L800.71,43.889 L800.706,12.109 Z" fill="#231F20" id="Path"/>
			<path animation_id="6" d="M458.615,76.322 C457.939,69.991 453.82,67.347 447.734,67.347 C442.755,67.347 437.899,69.13 437.899,74.847 C437.899,85.665 465.991,78.047 465.991,95.316 C465.991,104.659 456.832,108.409 448.841,108.409 C439.005,108.409 430.707,103.553 430.707,92.919 L436.239,92.919 C436.239,100.295 442.387,103.492 449.025,103.492 C454.312,103.492 460.151,101.832 460.151,95.5 C460.151,83.453 432.06,91.382 432.06,75.277 C432.06,66.425 439.928,62.43 447.98,62.43 C456.955,62.43 463.839,66.671 464.147,76.322 L458.615,76.322 Z" fill="#231F20" id="Path"/>
			<path animation_id="7" d="M481.551,76.22 L487.882,76.22 L487.882,80.83 L481.551,80.83 L481.551,100.56 C481.551,103.019 482.227,103.387 485.485,103.387 L487.885,103.387 L487.885,107.998 L483.885,107.998 C478.476,107.998 476.324,106.891 476.324,101.051 L476.324,80.83 L470.915,80.83 L470.915,76.22 L476.322,76.22 L476.322,66.692 L481.548,66.692 L481.551,76.22 Z" fill="#231F20" id="Path"/>
			<path animation_id="8" d="M495.632,76.22 L500.55,76.22 L500.55,82.92 L500.672,82.92 C503.192,77.756 506.697,75.298 512.352,75.482 L512.352,81.014 C503.93,81.014 500.857,85.747 500.857,93.861 L500.857,108 L495.632,108 L495.632,76.22 Z" fill="#231F20" id="Path"/>
			<path animation_id="9" d="M546.889,107.241 C545.737644,107.855933 544.443281,108.153118 543.139,108.102 C540.434,108.102 538.713,106.627 538.713,103.184 C535.942404,106.461399 531.814025,108.276306 527.526,108.102 C521.748,108.102 517.015,105.582 517.015,99.189 C517.015,91.997 522.362,90.399 527.772,89.415 C533.488,88.247 538.467,88.739 538.467,84.743 C538.467,80.133 534.656,79.457 531.399,79.457 C526.973,79.457 523.715,80.809 523.469,85.481 L518.244,85.481 C518.551,77.613 524.575,74.847 531.706,74.847 C537.423,74.847 543.631,76.138 543.631,83.575 L543.631,99.926 C543.631,102.385 543.631,103.492 545.291,103.492 C545.837173,103.473766 546.37709,103.369832 546.891,103.184 L546.889,107.241 Z M538.406,90.952 C534.349,93.964 522.547,91.013 522.547,98.82 C522.547,102.262 525.497,103.492 528.694,103.492 C535.578,103.492 538.406,99.25 538.406,96.3 L538.406,90.952 Z" fill="#231F20" id="Shape"/>
			<path animation_id="10" d="M561.373,76.22 L567.704,76.22 L567.704,80.83 L561.373,80.83 L561.373,100.56 C561.373,103.019 562.049,103.387 565.307,103.387 L567.707,103.387 L567.707,107.998 L563.707,107.998 C558.297,107.998 556.146,106.891 556.146,101.051 L556.146,80.83 L550.737,80.83 L550.737,76.22 L556.146,76.22 L556.146,66.692 L561.371,66.692 L561.373,76.22 Z" fill="#231F20" id="Path"/>
			<path animation_id="11" d="M601.764,97.283 C600.351,104.352 595.372,108.102 588.18,108.102 C578.037,108.102 573.242,101.033 572.935,91.382 C572.935,81.793 579.205,74.847 587.872,74.847 C599.121,74.847 602.564,85.358 602.256,93.047 L578.467,93.047 C578.283,98.579 581.418,103.497 588.367,103.497 C592.731,103.497 595.682,101.468 596.604,97.288 L601.764,97.283 Z M596.724,88.432 C596.416,83.453 592.79,79.457 587.565,79.457 C582.156,79.457 578.774,83.514 578.465,88.432 L596.724,88.432 Z" fill="#231F20" id="Shape"/>
			<path animation_id="12" d="M637.265,104.66 C637.265,115.049 632.594,120.274 622.513,120.274 C616.55,120.274 609.666,117.815 609.358,110.93 L614.583,110.93 C614.767,114.68 619.439,116.094 622.82,116.094 C629.643,116.094 632.348,111.176 632.348,104.046 L632.348,101.96 L632.222,101.96 C630.439,105.833 626.382,107.738 622.322,107.738 C612.856,107.738 608.122,100.3 608.122,91.633 C608.122,84.133 611.749,74.852 622.813,74.852 C626.711453,74.6931118 630.369201,76.7356698 632.279,80.138 L632.341,80.138 L632.341,75.584 L637.258,75.584 L637.265,104.66 Z M632.102,90.83 C632.102,85.236 629.643,79.458 623.066,79.458 C616.366,79.458 613.666,84.929 613.666,91.014 C613.666,96.731 615.756,103.124 622.641,103.124 C629.526,103.124 632.102,96.791 632.102,90.829 L632.102,90.83 Z" fill="#231F20" id="Shape"/>
			<path animation_id="13" d="M651.315,70.503 L646.09,70.503 L646.09,64.11 L651.315,64.11 L651.315,70.503 Z M646.09,76.22 L651.315,76.22 L651.315,108 L646.09,108 L646.09,76.22 Z" fill="#231F20" id="Shape"/>
			<path animation_id="14" d="M687.105,97.283 C685.691,104.352 680.712,108.102 673.52,108.102 C663.378,108.102 658.583,101.033 658.276,91.382 C658.276,81.793 664.546,74.847 673.213,74.847 C684.462,74.847 687.904,85.358 687.597,93.047 L663.808,93.047 C663.624,98.579 666.759,103.497 673.708,103.497 C678.072,103.497 681.023,101.468 681.945,97.288 L687.105,97.283 Z M682.065,88.432 C681.757,83.453 678.131,79.457 672.906,79.457 C667.496,79.457 664.115,83.514 663.806,88.432 L682.065,88.432 Z" fill="#231F20" id="Shape"/>
			<path animation_id="15" d="M698.283,97.345 C698.468,102.016 702.583,103.492 706.827,103.492 C710.085,103.492 714.511,102.754 714.511,98.758 C714.511,90.583 693.734,96.115 693.734,83.883 C693.734,77.49 700.004,74.847 705.598,74.847 C712.729,74.847 718.138,77.059 718.629,84.805 L713.405,84.805 C713.097,80.748 709.405,79.457 706.028,79.457 C702.893,79.457 699.266,80.317 699.266,83.514 C699.266,87.202 704.799,87.94 709.655,89.046 C714.88,90.214 720.043,91.997 720.043,98.082 C720.043,105.704 712.974,108.102 706.52,108.102 C699.39,108.102 693.366,105.213 693.058,97.345 L698.283,97.345 Z" fill="#231F20" id="Path"/>
		</g>
	</g>
</svg>
