<?xml version="1.0" encoding="iso-8859-1"?>
<!-- Generator: Adobe Illustrator 16.0.0, SVG Export Plug-In . SVG Version: 6.00 Build 0)  -->
<!DOCTYPE svg
  PUBLIC '-//W3C//DTD SVG 1.1//EN'
  'http://www.w3.org/Graphics/SVG/1.1/DTD/svg11.dtd'>
<svg enable-background="new 0 0 1004 425" height="425px" id="Ebene_1" version="1.1" viewBox="0 0 1004 425" width="1004px" x="0px" xml:space="preserve" xmlns="http://www.w3.org/2000/svg" xmlns:xlink="http://www.w3.org/1999/xlink" y="0px">
	

	<path animation_id="0" d="M961.257,123.462h-74.91v33.885h28.269v35.415c-4.417,2.053-10.639,3.085-17.12,3.085  c-35.254,0-60.401-21.305-60.401-56.468c0-41.837,32.157-58.007,71.284-58.007c11.41,0,29.041,2.824,44.071,11.548l3.88-39.005  c-17.625-6.673-42.764-7.966-54.678-7.966c-66.363,0-114.314,25.927-114.314,93.43c0,67.756,55.711,91.876,103.937,91.876  c16.599,0,39.411-0.505,69.983-8.211V123.462z M681.052,228.179h48.218V84.448h44.6V49.04H636.476v35.408h44.576V228.179z   M462.808,228.179h48.215v-81.361h0.517l56.258,81.361h61.423l-72.067-95.725l66.864-83.414h-58.049l-54.429,73.143h-0.517V49.04  h-48.215V228.179z" fill="#0080C9"/>
	

	<path animation_id="1" d="M366.332,275.296c-26.321,55.045-82.698,93.139-148.104,93.139c-72.4,0-133.748-46.274-155.324-110.901  c-4.404-11.967-34.942,1.226-31.594,12.574c26.275,77.383,99.935,132.029,186.917,132.029c84.779,0,157.099-52.986,185.192-127.438  C407.919,261.949,372.388,262.898,366.332,275.296" fill="#BA6C2F"/>
	

	<path animation_id="2" d="M99.958,274.867c19.912-15.045,68.26-64.672,94.677-64.672c50.553,0,88.33,60.455,131.226,61.664  c7.351,5.717,15.451,18.948,3.673,18.948c-42.284,0-96.605-59.345-120.803-58.665c-21.14,0.604-62.594,48.518-72.612,53.844  C118.044,295.621,99.346,284.203,99.958,274.867" fill="#BA6C2F"/>
	

	<path animation_id="3" d="M99.973,274.852  c19.919-15.029,68.253-64.625,94.662-64.625c50.55,0,88.315,60.416,131.2,61.609c7.358,5.717,15.455,18.949,3.677,18.949  c-42.276,0-96.583-59.309-120.78-58.627c-21.133,0.597-62.587,48.479-72.612,53.82C118.052,295.59,99.361,284.173,99.973,274.852z" fill="none" stroke="#BA6C2F" stroke-miterlimit="10" stroke-width="0.043"/>
	

	<path animation_id="4" d="M100.038,140.006c4.481,4.813,34.635,45.632,98.187,46.941c60.317,1.217,116.966-41.446,122.808-44.507  c5.854-3.045,19.686-5.977,15.08-17.379c-4.913-12.183-40.011-8.517-40.011-8.517s3.432,3.298,0,6.091  c-10.221,8.318-68.073,39.211-99.104,41.439C155.549,167.073,107.958,123.89,100.038,140.006" fill="#0080C9"/>
	

	<path animation_id="5" d="M366.324,275.303  c-26.332,55.03-82.689,93.117-148.1,93.117c-72.39,0-133.725-46.26-155.297-110.863c-4.403-11.976-34.941,1.217-31.593,12.559  c26.274,77.367,99.926,131.991,186.89,131.991c84.775,0,157.096-52.964,185.173-127.392  C407.908,261.965,372.374,262.906,366.324,275.303z" fill="none" stroke="#BA6C2F" stroke-miterlimit="3.864" stroke-width="0.043"/>
	

	<path animation_id="6" d="M416.069,218.949c0.245-3.803,0.368-7.66,0.368-11.868c0-108.774-88.743-196.946-198.217-196.946  c-109.478,0-198.224,88.172-198.224,196.946c0,3.268-0.008,6.52,0.172,9.757c-0.077,16.629,34.291-0.337,33.877-10.592  c0.452-89.718,73.767-162.302,164.174-162.302c90.683,0,164.178,73.036,164.178,163.137c0,5.624-0.313,10.545-0.697,15.542  C380.798,235.625,414.902,232.318,416.069,218.949" fill="#0080C9"/>
	

	<g>
		
	
		<path animation_id="7" d="M533.889,365.832h-33.297l0.987-3.81c9.733-0.987,10.3-2.542,9.455-8.602   c-0.85-5.931-2.12-12.703-3.527-20.885h-29.49c-2.398,4.517-6.631,12.696-9.737,19.186c-4.09,8.464-3.104,9.459,7.622,10.301   l-0.85,3.81h-30.335l0.987-3.81c8.751-1.126,10.158-1.837,16.79-13.545l42.33-75.202l4.373-1.125l3.953,25.107   c2.819,18.061,5.922,35.699,9.029,52.49c1.691,10.162,2.679,11.287,12.695,12.274L533.889,365.832z M501.013,290.211h-0.278   c-7.057,12.833-13.546,24.549-19.615,36.395h25.537L501.013,290.211z" fill="#BA6C2F"/>
		
	
		<path animation_id="8" d="M607.793,305.73c-4.095,4.369-7.764,6.061-10.021,6.626c-1.128,0.146-2.115,0.283-3.665,0.43   c0.563,1.828,1.129,4.086,1.129,7.76c0,10.154-5.644,17.493-10.726,21.725c-3.807,3.107-10.158,6.636-18.202,8.181   c-1.691,1.271-2.82,2.823-2.82,4.378c0,2.257,3.529,4.797,10.159,8.325c13.545,7.056,19.048,12.696,19.048,18.765   c0,11.569-19.756,20.172-33.301,20.172c-13.686,0-25.536-7.048-25.253-15.802c0.279-6.062,8.185-12.413,23.703-20.317   c-3.385-2.258-5.363-5.075-5.223-7.049c0-2.12,1.979-4.66,8.751-8.609c-8.184-1.836-12.416-7.622-12.416-17.218   c0-9.168,4.657-17.915,11.851-23.563c5.785-4.652,12.982-7.048,18.06-7.048c4.516,0,8.889,1.271,11.991,3.949   c8.043-0.146,13.124-1.692,15.944-3.245L607.793,305.73z M582.395,385.729c0-3.811-3.813-7.484-10.301-11.287   c-4.656-2.686-8.606-4.943-10.583-5.931c-9.451,4.514-15.521,10.163-15.521,15.381c0,7.056,9.172,12.275,19.047,12.275   C575.622,396.168,582.395,391.232,582.395,385.729z M584.793,321.104c0-8.044-3.244-13.684-9.454-13.684   c-4.091,0-7.76,2.541-10.16,6.353c-3.103,4.369-5.359,10.857-5.359,18.335c0,8.326,3.949,12.703,9.029,12.703   C576.324,344.812,584.793,336.202,584.793,321.104z" fill="#BA6C2F"/>
		
	
		<path animation_id="9" d="M632.182,325.902c7.339-13.828,15.664-23.417,21.305-23.417c2.395,0,4.799,1.691,6.069,3.665   c0.987,1.691,0.987,4.094-0.139,5.924c-0.995,1.699-2.403,3.244-3.812,4.231c-1.132,0.85-2.265,0.711-3.106,0   c-1.554-1.546-3.107-2.395-4.653-2.395c-1.698,0-3.947,1.553-7.199,6.068c-3.1,4.369-7.478,11.004-10.156,17.355   c-2.12,9.451-3.813,18.198-5.647,27.511c-2.962,0.565-6.772,1.553-10.018,2.541l-0.986-0.988   c3.527-15.098,7.621-32.453,10.3-47.407c0.842-4.798,0.704-6.205-0.283-6.205c-1.271,0-5.923,2.961-10.017,6.764l-1.975-3.244   c7.197-7.897,15.947-13.82,19.751-13.82c3.665,0,3.811,6.489,1.691,16.361l-1.546,7.056H632.182z" fill="#BA6C2F"/>
		
	
		<path animation_id="10" d="M722.466,352.854c-7.76,9.451-17.211,14.671-20.745,14.671c-2.678,0-4.515-2.113-2.396-12.413l2.824-13.406   h-0.428c-5.356,7.759-12.129,14.531-18.198,19.476c-4.652,3.804-9.313,6.344-13.117,6.344c-3.673,0-8.188-4.652-8.188-15.803   c0-14.248,6.628-29.769,16.927-38.377c7.201-5.924,17.502-10.859,26.386-10.859c2.824,0,5.648,0.421,8.755,1.124   c1.829,0.421,3.813,0.851,5.356,0.851l0.284,0.559c-2.257,8.755-6.49,27.938-9.734,45.861c-0.85,4.791-0.421,6.062,0.284,6.062   c1.271,0,6.06-3.383,10.3-7.478L722.466,352.854z M703.985,330.846c1.69-5.51,3.812-15.665,4.653-20.181   c-1.976-0.986-5.648-1.974-9.314-1.974c-3.802,0-7.614,1.125-10.153,2.962c-9.598,7.055-15.245,23.562-15.245,37.527   c0,6.353,1.7,9.313,3.812,9.313C683.24,358.494,699.324,340.718,703.985,330.846z" fill="#BA6C2F"/>
		
	
		<path animation_id="11" d="M755.748,325.902c7.331-13.828,15.655-23.417,21.305-23.417c2.395,0,4.79,1.691,6.061,3.665   c0.993,1.691,0.993,4.094-0.138,5.924c-0.987,1.699-2.403,3.244-3.812,4.231c-1.134,0.85-2.258,0.711-3.106,0   c-1.546-1.546-3.1-2.395-4.654-2.395c-1.69,0-3.947,1.553-7.193,6.068c-3.105,4.369-7.483,11.004-10.161,17.355   c-2.113,9.451-3.811,18.198-5.641,27.511c-2.961,0.565-6.772,1.553-10.018,2.541l-0.995-0.988   c3.537-15.098,7.623-32.453,10.302-47.407c0.85-4.798,0.711-6.205-0.276-6.205c-1.271,0-5.924,2.961-10.025,6.764l-1.973-3.244   c7.2-7.897,15.947-13.82,19.759-13.82c3.665,0,3.811,6.489,1.691,16.361l-1.554,7.056H755.748z" fill="#BA6C2F"/>
		
	
		<path animation_id="12" d="M828.8,337.895c1.407,10.728,7.33,25.398,22.712,25.398c10.162,0,17.218-7.057,17.218-18.199   c0-8.041-4.943-13.545-13.27-20.034l-4.087-3.106c-6.352-5.081-15.656-12.841-15.656-24.549c0-14.678,11.563-25.254,28.635-25.254   c4.662,0,9.459,0.842,13.408,2.25c2.678,0.994,5.081,1.836,6.069,2.266c-0.429,5.923-0.146,13.398-0.283,19.889l-4.096,0.421   c-1.125-10.722-4.936-20.173-16.935-20.173c-9.871,0-15.795,7.76-15.795,16.369c0,8.318,5.785,13.4,13.117,18.902l4.231,3.244   c9.741,7.201,16.368,14.678,16.368,25.82c0,16.368-14.395,26.814-30.763,26.814c-11.28,0-21.159-5.081-24.259-8.609   c-0.146-3.391-0.146-11.005-0.429-21.022L828.8,337.895z" fill="#BA6C2F"/>
		
	
		<path animation_id="13" d="M970.295,274.263c-0.421,2.54-1.691,13.261-2.679,21.588l-4.094,0.283c0-5.364-0.283-9.597-1.829-12.421   c-1.416-3.244-3.246-4.652-13.691-4.652h-11.005c-4.798,0-5.08,0.422-6.067,5.785l-6.069,30.473h13.69   c11.709,0,12.696-0.986,16.087-10.3h4.085l-5.355,26.814h-4.094c0.282-10.018,0.282-11.012-11.992-11.012h-13.407l-4.652,24.693   c-1.555,8.181-1.409,11.855,0.566,13.545c2.112,1.692,6.344,1.976,14.248,1.976c10.584,0,14.671-1.125,18.627-4.799   c3.382-3.244,6.626-8.464,9.589-13.545l3.956,1.416c-1.555,3.804-6.919,17.349-9.03,21.725h-66.034l0.85-3.81   c11.563-0.987,12.695-1.691,14.808-13.116l11.287-57.854c2.121-11.287,1.416-11.992-10.153-12.979l1.124-3.811H970.295z" fill="#BA6C2F"/>
		

	</g>
	

</svg>
