<?xml version="1.0" encoding="iso-8859-1"?>
<!-- Created with Inkscape (http://www.inkscape.org/) -->
<svg height="280" id="svg2" version="1.0" width="500" xmlns="http://www.w3.org/2000/svg" xmlns:svg="http://www.w3.org/2000/svg">
	
  
	<defs id="defs4"/>
	
  
	<rect animation_id="20" height="280" id="background" style="fill:#ffffff;stroke:none" width="500" x="0" y="0"/>
	
  
	<g id="g2578" transform="matrix(0.5,0,0,0.5,35.33839,-320.72622)">
		
    
		<polygon animation_id="14" id="polygon2410" points="27.422,21.293 37.344,0.46875 40.758,0.46875 54.754,32.805 46.328,32.805 38.84,15.16 30.652,32.805 24.242,32.805 16.051,15.16 8.5156,32.805 0.09375,32.805 14.133,0.46875 17.547,0.46875 27.422,21.293 " transform="matrix(1.7361,0,0,-1.7361,-31.25,1187.5)"/>
		
    
		<path animation_id="0" d="M 73.797939,1185.9538 L 85.577377,1185.9538 L 85.577377,1148.4985 L 73.797939,1148.4985 L 73.797939,1185.9538 z M 79.643388,1129.8146 L 79.310056,1129.8233 L 78.981933,1129.8493 L 78.657283,1129.891 L 78.33784,1129.9483 L 78.023606,1130.0212 L 77.716317,1130.108 L 77.415971,1130.2104 L 77.120834,1130.3285 L 76.832642,1130.4587 L 76.553129,1130.6028 L 76.280562,1130.759 L 76.016675,1130.9292 L 75.761468,1131.1115 L 75.516678,1131.3042 L 75.280568,1131.509 L 75.054875,1131.7243 L 74.839599,1131.95 L 74.634739,1132.1861 L 74.442032,1132.4326 L 74.259741,1132.6879 L 74.089604,1132.9517 L 73.933355,1133.2243 L 73.789258,1133.5038 L 73.659051,1133.792 L 73.542732,1134.0871 L 73.440302,1134.3892 L 73.351761,1134.6965 L 73.278845,1135.0108 L 73.221554,1135.3302 L 73.179887,1135.6566 L 73.155582,1135.9847 L 73.146901,1136.3198 C 73.146901,1139.8927 76.068758,1142.8163 79.643388,1142.8163 C 83.218017,1142.8163 86.146818,1139.8927 86.146818,1136.3198 C 86.146818,1132.7382 83.218017,1129.8146 79.643388,1129.8146 z" id="polygon2412"/>
		
    
		<polygon animation_id="15" id="polygon2416" points="75.645,0.89062 82.43,0.89062 82.43,32.805 75.645,32.805 75.645,0.89062 " transform="matrix(1.7361,0,0,-1.7361,-31.25,1187.5)"/>
		
    
		<polygon animation_id="16" id="polygon2418" points="90.781,0.89062 97.566,0.89062 97.566,32.805 90.781,32.805 90.781,0.89062 " transform="matrix(1.7361,0,0,-1.7361,-31.25,1187.5)"/>
		
    
		<polygon animation_id="17" id="polygon2420" points="112.7,32.805 105.92,32.805 105.92,0.89062 112.7,0.89062 112.7,11.512 112.8,11.512 121.17,0.89062 129.5,0.89062 120.71,11.793 129.13,22.465 121.17,22.465 112.8,11.793 112.7,11.793 112.7,32.805 " transform="matrix(1.7361,0,0,-1.7361,-31.25,1187.5)"/>
		
    
		<path animation_id="1" d="M 239.59896,1167.271 L 239.59896,1166.6026 L 239.56424,1165.9498 L 239.46007,1164.6807 L 239.30382,1163.4654 L 239.07813,1162.3022 L 238.78299,1161.1911 L 238.45313,1160.1304 L 238.05383,1159.1182 L 237.60245,1158.1564 L 237.11634,1157.2415 L 236.57815,1156.3752 L 235.98787,1155.554 L 235.36288,1154.7797 L 234.70316,1154.0506 L 234.00872,1153.3665 L 233.27956,1152.7259 L 232.51567,1152.1287 L 231.73443,1151.5714 L 230.93582,1151.0575 L 230.10249,1150.5836 L 229.25181,1150.1495 L 228.38376,1149.7554 L 227.51571,1149.3978 L 226.61293,1149.0784 L 225.72752,1148.7971 L 224.82475,1148.5506 L 223.90462,1148.3405 L 223.00184,1148.1634 L 222.09907,1148.0211 L 221.1963,1147.9117 L 220.31089,1147.8336 L 219.42548,1147.7884 L 218.55743,1147.7728 C 207.51583,1147.7728 197.35965,1154.4325 197.35965,1167.1894 C 197.35965,1178.9686 206.2832,1186.6862 218.55743,1186.6862 C 226.83863,1186.6862 239.59896,1182.1358 239.59896,1167.271 z M 227.01224,1166.9446 L 226.99488,1167.7033 L 226.97751,1168.4411 L 226.92543,1169.1564 L 226.87335,1169.8491 L 226.8039,1170.5202 L 226.69974,1171.1692 L 226.59557,1171.7958 L 226.47404,1172.3999 L 226.3178,1172.9812 L 226.16155,1173.5397 L 225.98794,1174.0749 L 225.79697,1174.5871 L 225.58863,1175.0758 L 225.36294,1175.541 L 225.11989,1175.9825 L 224.85947,1176.4002 L 224.5817,1176.7938 L 224.28656,1177.1631 L 223.99142,1177.5081 L 223.66156,1177.8285 L 223.31434,1178.1244 L 222.96712,1178.3952 L 222.60254,1178.6412 L 222.20324,1178.8619 L 221.80394,1179.0572 L 221.38727,1179.2271 L 220.95325,1179.3712 L 220.50186,1179.4896 L 220.05048,1179.5818 L 219.56437,1179.648 L 219.07826,1179.6877 L 218.55743,1179.7011 C 214.09565,1179.7011 209.94637,1176.8528 209.94637,1167.1894 C 209.94637,1158.7398 213.43593,1154.7589 218.55743,1154.7589 C 224.49489,1154.7589 227.01224,1159.6339 227.01224,1166.9446 z" id="path2422"/>
		
    
		<path animation_id="2" d="M 263.97381,1148.4985 L 252.20305,1148.4985 L 252.20305,1185.9538 L 263.97381,1185.9538 L 263.97381,1160.8474 C 266.82101,1157.4377 269.91127,1155.653 273.00153,1155.653 C 276.49109,1155.653 280.1369,1157.6807 280.1369,1163.7779 L 280.1369,1185.9538 L 291.92502,1185.9538 L 291.92502,1161.988 C 294.61597,1157.8439 297.77567,1155.653 301.17843,1155.653 C 305.48396,1155.653 308.08811,1158.6582 308.08811,1164.0227 L 308.08811,1185.9538 L 319.87622,1185.9538 L 319.87622,1161.9064 C 319.87622,1153.3752 313.78251,1147.7728 305.2409,1147.7728 C 299.6333,1147.7728 295.32777,1150.127 290.46669,1155.7346 C 287.86254,1150.37 283.47021,1147.7728 276.97719,1147.7728 C 274.6161,1147.7728 272.42861,1148.1808 270.22377,1149.068 C 268.12308,1150.0454 266.00504,1151.4291 263.97381,1153.2936 L 263.97381,1148.4985 z" id="path2426"/>
		
    
		<path animation_id="3" d="M 346.508,1148.4985 L 334.73724,1148.4985 L 334.73724,1185.9538 L 346.508,1185.9538 L 346.508,1160.8474 C 349.3552,1157.4377 352.44546,1155.653 355.53572,1155.653 C 359.02528,1155.653 362.68845,1157.6807 362.68845,1163.7779 L 362.68845,1185.9538 L 374.45921,1185.9538 L 374.45921,1161.988 C 377.15016,1157.8439 380.30987,1155.653 383.72998,1155.653 C 388.03551,1155.653 390.6223,1158.6582 390.6223,1164.0227 L 390.6223,1185.9538 L 402.41042,1185.9538 L 402.41042,1161.9064 C 402.41042,1153.3752 396.31671,1147.7728 387.79246,1147.7728 C 382.18485,1147.7728 377.87933,1150.127 373.00088,1155.7346 C 370.39673,1150.37 366.0044,1147.7728 359.51139,1147.7728 C 357.15029,1147.7728 354.96281,1148.1808 352.77532,1149.068 C 350.65728,1150.0454 348.5566,1151.4291 346.508,1153.2936 L 346.508,1148.4985 z" id="path2428"/>
		
    
		<path animation_id="4" d="M 453.59065,1174.3369 L 453.06982,1174.7025 L 452.58371,1175.053 L 452.08024,1175.389 L 451.59413,1175.7103 L 451.12539,1176.0173 L 450.65664,1176.3101 L 450.20525,1176.5891 L 449.75387,1176.8544 L 449.30248,1177.1063 L 448.86846,1177.345 L 448.43443,1177.5705 L 448.00041,1177.7836 L 447.58374,1177.9839 L 447.16708,1178.1719 L 446.75041,1178.3478 L 446.33375,1178.5119 L 445.93445,1178.6641 L 445.51778,1178.8051 L 445.11848,1178.9348 L 444.70181,1179.0535 L 443.90321,1179.2587 L 443.08724,1179.4228 L 442.25391,1179.5473 L 441.42059,1179.6339 L 440.5699,1179.6846 L 439.70185,1179.7011 C 432.30606,1179.7011 427.75748,1175.8016 427.34081,1169.1355 L 454.233,1169.1355 C 454.80592,1155.4898 445.79556,1147.7728 434.89285,1147.7728 C 423.36515,1147.7728 415.15339,1155.8978 415.15339,1167.3508 C 415.15339,1179.0501 423.69501,1186.6862 436.85464,1186.6862 C 439.77129,1186.6862 446.85458,1186.6862 453.59065,1181.7289 L 453.59065,1174.3369 z M 427.60123,1162.9637 L 427.65331,1162.4828 L 427.72276,1162.0141 L 427.7922,1161.5592 L 427.89637,1161.1182 L 428.00053,1160.6894 L 428.12206,1160.2745 L 428.26095,1159.8752 L 428.4172,1159.488 L 428.57345,1159.1148 L 428.76442,1158.7554 L 428.95539,1158.4116 L 429.16372,1158.0818 L 429.37205,1157.7658 L 429.59774,1157.4655 L 429.8408,1157.1807 L 430.10121,1156.9099 L 430.36163,1156.6547 L 430.63941,1156.4151 L 430.93454,1156.1912 L 431.24704,1155.9828 L 431.55954,1155.7901 L 431.87204,1155.6131 L 432.21926,1155.4533 L 432.56648,1155.3092 L 432.9137,1155.1808 L 433.29564,1155.0697 L 433.66022,1154.9759 L 434.05952,1154.8978 L 434.45882,1154.837 L 434.85813,1154.7936 L 435.29215,1154.7676 L 435.70882,1154.7589 C 440.2574,1154.7589 443.36502,1157.8439 443.83376,1162.9637 L 427.60123,1162.9637 z" id="path2430"/>
		
    
		<path animation_id="5" d="M 478.10438,1148.4985 L 466.31626,1148.4985 L 466.31626,1185.9538 L 478.10438,1185.9538 L 478.10438,1161.8248 C 481.17728,1157.1929 483.38212,1155.653 486.29877,1155.653 C 489.63208,1155.653 492.14943,1157.8439 492.14943,1163.1269 L 492.14943,1185.9538 L 503.93755,1185.9538 L 503.93755,1162.1495 C 503.93755,1151.1027 496.14246,1147.7728 490.2918,1147.7728 C 485.4828,1147.7728 481.83699,1149.5575 478.10438,1153.8631 L 478.10438,1148.4985 z" id="path2434"/>
		
    
		<path animation_id="6" d="M 583.24259,1176.6968 L 583.12107,1176.7867 L 582.99954,1176.8742 L 582.75649,1177.0412 L 582.51343,1177.1985 L 582.3051,1177.3462 L 582.07941,1177.4848 L 581.88844,1177.6143 L 581.68011,1177.7351 L 581.50649,1177.8475 L 581.31552,1177.9518 L 581.15927,1178.0485 L 580.98566,1178.1376 L 580.82942,1178.2195 L 580.69053,1178.2945 L 580.55164,1178.3629 L 580.41275,1178.4251 L 580.29122,1178.4813 L 580.15234,1178.5317 L 580.04817,1178.5768 L 579.92664,1178.6167 L 579.82248,1178.6518 L 579.71831,1178.6823 L 579.61415,1178.7087 L 579.52734,1178.7313 L 579.44054,1178.7501 L 579.33637,1178.7657 L 579.24956,1178.778 L 579.09332,1178.7952 L 578.93707,1178.8037 L 578.78082,1178.806 C 577.56555,1178.806 576.83639,1178.0735 576.83639,1176.2086 L 576.83639,1159.146 C 576.83639,1150.9395 570.41282,1147.7728 560.98579,1147.7728 C 555.04833,1147.7728 549.61434,1149.3127 544.7359,1152.3231 L 544.7359,1161.9064 C 548.48587,1158.0887 553.83306,1155.653 558.55525,1155.653 C 563.67675,1155.653 565.29132,1158.4134 565.04827,1161.9064 C 549.37128,1166.7814 542.79146,1168.573 542.79146,1177.5039 C 542.79146,1182.217 547.25324,1186.6862 553.26015,1186.6862 C 557.32262,1186.6862 561.0726,1185.5537 565.62118,1182.4613 C 566.43715,1185.4722 568.29477,1186.6862 572.201,1186.6862 C 575.3607,1186.6862 579.99609,1185.2214 583.24259,1183.275 L 583.24259,1176.6968 z M 565.04827,1176.8528 L 564.68369,1177.1799 L 564.30174,1177.4893 L 563.9198,1177.7804 L 563.5205,1178.0532 L 563.1212,1178.3068 L 562.72189,1178.5409 L 562.30523,1178.7549 L 561.88856,1178.9483 L 561.68023,1179.0372 L 561.4719,1179.1209 L 561.26357,1179.1992 L 561.05524,1179.2719 L 560.8469,1179.3393 L 560.63857,1179.4011 L 560.43024,1179.4573 L 560.22191,1179.5079 L 560.01358,1179.5527 L 559.80525,1179.5917 L 559.59691,1179.6249 L 559.38858,1179.6521 L 559.16289,1179.6735 L 558.97192,1179.6888 L 558.76359,1179.698 L 558.55525,1179.7011 C 556.43721,1179.7011 554.73583,1177.9108 554.73583,1175.7202 C 554.73583,1171.9836 558.06914,1170.356 565.04827,1167.8404 L 565.04827,1176.8528 z" id="path2436"/>
		
    
		<path animation_id="7" d="M 604.31885,1148.4985 L 592.53073,1148.4985 L 592.53073,1185.9538 L 604.31885,1185.9538 L 604.31885,1161.8248 C 607.40911,1157.1929 609.59659,1155.653 612.5306,1155.653 C 615.84655,1155.653 618.38126,1157.8439 618.38126,1163.1269 L 618.38126,1185.9538 L 630.15202,1185.9538 L 630.15202,1162.1495 C 630.15202,1151.1027 622.35693,1147.7728 616.50627,1147.7728 C 611.71464,1147.7728 608.05146,1149.5575 604.31885,1153.8631 L 604.31885,1148.4985 z" id="path2440"/>
		
    
		<path animation_id="8" d="M 672.4955,1130.5472 L 672.4955,1185.9538 L 699.47449,1185.9538 C 715.63758,1185.9538 719.0577,1176.0457 719.0577,1169.705 C 719.0577,1163.2085 715.15147,1157.5176 707.26958,1155.4898 C 711.90497,1153.212 714.83898,1149.068 714.83898,1144.443 C 714.83898,1138.2659 709.54387,1130.5472 696.47104,1130.5472 L 672.4955,1130.5472 z M 686.31485,1140.7 L 693.53703,1140.7 C 698.58908,1140.7 700.60296,1143.7103 700.60296,1146.5523 C 700.60296,1149.4759 698.58908,1152.561 693.53703,1152.561 L 686.31485,1152.561 L 686.31485,1140.7 z M 686.31485,1162.7206 L 695.98493,1162.7206 C 700.86337,1162.7206 704.42237,1164.9168 704.42237,1168.9793 C 704.42237,1173.7671 701.74878,1175.8016 694.10994,1175.8016 L 686.31485,1175.8016 L 686.31485,1162.7206 z" id="path2442"/>
		
    
		<path animation_id="9" d="M 772.84208,1167.271 L 772.84208,1166.6026 L 772.80735,1165.9498 L 772.70319,1164.6807 L 772.54694,1163.4654 L 772.32125,1162.3022 L 772.02611,1161.1911 L 771.67889,1160.1304 L 771.29695,1159.1182 L 770.84556,1158.1564 L 770.35945,1157.2415 L 769.8039,1156.3752 L 769.23099,1155.554 L 768.60599,1154.7797 L 767.94627,1154.0506 L 767.25183,1153.3665 L 766.52267,1152.7259 L 765.75879,1152.1287 L 764.97754,1151.5714 L 764.17894,1151.0575 L 763.34561,1150.5836 L 762.49492,1150.1495 L 761.62687,1149.7554 L 760.74146,1149.3978 L 759.85605,1149.0784 L 758.95328,1148.7971 L 758.0505,1148.5506 L 757.14773,1148.3405 L 756.24496,1148.1634 L 755.34219,1148.0211 L 754.43942,1147.9117 L 753.554,1147.8336 L 752.66859,1147.7884 L 751.80054,1147.7728 C 740.75895,1147.7728 730.5854,1154.4325 730.5854,1167.1894 C 730.5854,1178.9686 739.52632,1186.6862 751.80054,1186.6862 C 760.08174,1186.6862 772.84208,1182.1358 772.84208,1167.271 z M 760.25535,1166.9446 L 760.23799,1167.7033 L 760.22063,1168.4411 L 760.16855,1169.1564 L 760.11646,1169.8491 L 760.02966,1170.5202 L 759.94285,1171.1692 L 759.83869,1171.7958 L 759.6998,1172.3999 L 759.56091,1172.9812 L 759.40466,1173.5397 L 759.23105,1174.0749 L 759.04008,1174.5871 L 758.81439,1175.0758 L 758.58869,1175.541 L 758.363,1175.9825 L 758.10259,1176.4002 L 757.82481,1176.7938 L 757.52967,1177.1631 L 757.21718,1177.5081 L 756.90468,1177.8285 L 756.55746,1178.1244 L 756.21024,1178.3952 L 755.84566,1178.6412 L 755.44635,1178.8619 L 755.04705,1179.0572 L 754.63039,1179.2271 L 754.19636,1179.3712 L 753.74498,1179.4896 L 753.27623,1179.5818 L 752.80748,1179.648 L 752.30401,1179.6877 L 751.80054,1179.7011 C 747.32141,1179.7011 743.18949,1176.8528 743.18949,1167.1894 C 743.18949,1158.7398 746.67905,1154.7589 751.80054,1154.7589 C 757.73801,1154.7589 760.25535,1159.6339 760.25535,1166.9446 z" id="path2448"/>
		
    
		<path animation_id="10" d="M 797.30372,1148.4985 L 785.51561,1148.4985 L 785.51561,1185.9538 L 797.30372,1185.9538 L 797.30372,1169.7866 C 799.90787,1162.8821 802.66827,1158.8196 806.9738,1158.8196 C 808.83143,1158.8196 810.86267,1159.6339 813.95292,1161.58 L 817.19943,1151.1843 C 813.79667,1148.6617 811.76544,1147.7728 809.40434,1147.7728 C 804.85576,1147.7728 800.94954,1151.4291 797.45997,1159.2276 L 797.30372,1159.2276 L 797.30372,1148.4985 z" id="path2452"/>
		
    
		<path animation_id="11" d="M 862.4422,1130.5472 L 850.67144,1130.5472 L 850.67144,1150.127 C 847.49438,1148.5871 844.33467,1147.7728 840.91456,1147.7728 C 830.18546,1147.7728 822.72023,1155.7346 822.72023,1167.1894 C 822.72023,1178.399 830.18546,1186.6862 840.2722,1186.6862 C 844.24787,1186.6862 847.33813,1185.6283 850.67144,1182.9495 L 850.67144,1185.9538 L 862.4422,1185.9538 L 862.4422,1130.5472 z M 850.67144,1175.7202 L 850.44575,1175.9218 L 850.22005,1176.1159 L 849.99436,1176.3025 L 849.76867,1176.4818 L 849.54297,1176.6537 L 849.33464,1176.8185 L 849.10895,1176.9761 L 848.90062,1177.1265 L 848.69229,1177.27 L 848.46659,1177.4067 L 848.25826,1177.5363 L 848.04993,1177.6593 L 847.8416,1177.7754 L 847.63326,1177.885 L 847.40757,1177.9881 L 847.19924,1178.0846 L 846.99091,1178.1747 L 846.78257,1178.2584 L 846.57424,1178.3358 L 846.34855,1178.4072 L 846.14022,1178.4723 L 845.93189,1178.5315 L 845.70619,1178.5846 L 845.49786,1178.6318 L 845.27217,1178.6733 L 845.04647,1178.7089 L 844.82078,1178.7388 L 844.59509,1178.7633 L 844.3694,1178.782 L 844.1437,1178.7954 L 843.91801,1178.8034 L 843.67496,1178.806 C 838.15416,1178.806 834.6646,1174.2555 834.6646,1167.4324 C 834.6646,1159.9602 838.15416,1155.653 844.09162,1155.653 C 846.1923,1155.653 848.9527,1156.6235 850.67144,1157.8439 L 850.67144,1175.7202 z" id="path2454"/>
		
    
		<path animation_id="12" d="M 882.66776,1172.5532 L 882.30318,1172.5624 L 881.9386,1172.5899 L 881.59138,1172.6348 L 881.24416,1172.697 L 880.89694,1172.776 L 880.56708,1172.8713 L 880.23722,1172.9824 L 879.90736,1173.1089 L 879.59486,1173.2506 L 879.29973,1173.4069 L 879.00459,1173.577 L 878.70945,1173.761 L 878.43168,1173.9581 L 878.17126,1174.168 L 877.91085,1174.3902 L 877.66779,1174.6242 L 877.4421,1174.8697 L 877.21641,1175.1261 L 877.00808,1175.3931 L 876.79974,1175.6702 L 876.62613,1175.957 L 876.45252,1176.2528 L 876.29628,1176.5575 L 876.15739,1176.8706 L 876.03586,1177.1914 L 875.91433,1177.5195 L 875.82753,1177.8547 L 875.74072,1178.1966 L 875.67128,1178.5443 L 875.63656,1178.8978 L 875.60184,1179.2563 L 875.60184,1179.6197 C 875.60184,1183.5191 878.76154,1186.6862 882.66776,1186.6862 C 886.55663,1186.6862 889.73369,1183.5191 889.73369,1179.6197 C 889.73369,1175.7202 886.55663,1172.5532 882.66776,1172.5532 z" id="path2458"/>
		
    
		<polygon animation_id="18" id="polygon2460" points="239.17,306.02 348.79,306.02 315.47,264.39 205.85,264.39 239.17,306.02 " style="font-style:normal;font-variant:normal;font-weight:normal;font-stretch:normal;letter-spacing:normal;word-spacing:normal;text-anchor:start;fill:#ff0000;fill-opacity:1;fill-rule:nonzero;stroke:#ff0000;stroke-width:0;stroke-linecap:butt;stroke-linejoin:miter;stroke-miterlimit:10.43299961;stroke-dasharray:none;stroke-dashoffset:0;stroke-opacity:1" transform="matrix(1.7361,0,0,-1.7361,-31.25,1187.5)"/>
		
    
		<polygon animation_id="19" id="polygon2462" points="198.71,255.09 308.12,255.09 294.56,238.15 185.15,238.15 198.71,255.09 " style="font-style:normal;font-variant:normal;font-weight:normal;font-stretch:normal;letter-spacing:normal;word-spacing:normal;text-anchor:start;fill:#0033ff;fill-opacity:1;fill-rule:nonzero;stroke:#0033ff;stroke-width:0;stroke-linecap:butt;stroke-linejoin:miter;stroke-miterlimit:10.43299961;stroke-dasharray:none;stroke-dashoffset:0;stroke-opacity:1" transform="matrix(1.7361,0,0,-1.7361,-31.25,1187.5)"/>
		
    
		<path animation_id="13" d="M 604.17996,871.87702 L 604.17996,970.52222 L 657.42615,970.52222 C 670.32537,970.52222 696.93978,957.34522 696.93978,922.31073 C 696.93978,887.29359 674.52673,871.87702 659.11016,871.87702 L 604.17996,871.87702 z M 202.94989,886.1304 L 202.60267,790.81851 L 58.273733,790.81851 L 58.273733,1050.5929 C 107.03384,1019.9125 155.1377,1005.331 202.60267,1006.8762 L 202.60267,934.01204 L 270.41474,1006.0428 C 302.91453,1001.8415 363.73011,1009.3935 457.34062,1031.8204 L 357.84473,922.81419 L 460.6913,795.8532 L 460.6913,1032.6607 C 460.6913,1032.6607 550.10045,1055.9227 635.84642,1055.0824 C 653.76298,1054.9054 696.4884,1058.9748 736.45342,1043.8724 C 790.25516,1023.5462 837.98055,968.49099 838.46666,919.44616 C 839.29998,834.53351 751.86999,790.81851 686.57527,790.81851 L 277.13344,790.81851 L 202.60267,883.2832 L 202.94989,886.1304 z" id="path2464" style="fill:#ff0000;fill-rule:evenodd"/>
		
  
	</g>
	

</svg>
