<?xml version="1.0" encoding="iso-8859-1"?>
<!-- Generator: Adobe Illustrator 24.3.0, SVG Export Plug-In . SVG Version: 6.00 Build 0)  -->
<svg id="Ebene_1" style="enable-background:new 0 0 2991.04 800;" version="1.1" viewBox="0 0 2991.04 800" x="0px" xml:space="preserve" xmlns="http://www.w3.org/2000/svg" xmlns:xlink="http://www.w3.org/1999/xlink" y="0px">
	

	<style type="text/css">
	.st0{fill:#4A4A49;}
</style>
	

	<g>
		
	
		<path animation_id="0" class="st0" d="M651.82,629.81c2.71-0.23,5.41-0.4,7.88,1.09c-2.62,0-5.24,0-7.86,0   C651.85,630.54,651.84,630.17,651.82,629.81z"/>
		
	
		<path animation_id="1" class="st0" d="M692.27,630.9c2.08-1.42,4.41-1.3,6.75-1.1c-0.02,0.37-0.03,0.73-0.02,1.1   C696.76,630.9,694.51,630.9,692.27,630.9z"/>
		
	
		<path animation_id="2" class="st0" d="M1108.17,542.14c17.78,0,35.55,0,53.33,0c1.5,0,2.99,0.03,4.49,0.05c1.22,0.01,2.14,0.48,2.64,1.67   c0.43,1.03,0.95,2.03,1.42,3.05c3.48,7.67,9.23,13.04,16.79,16.6c6.33,2.98,13.05,4.61,19.93,5.51c10.98,1.43,21.99,1.5,33.04,0.56   c8.03-0.68,15.99-1.68,23.79-3.75c6-1.59,11.75-3.77,17.05-7.03c3.7-2.28,6.95-5.08,9.54-8.58c2.87-3.87,4.44-8.16,4.29-13.07   c-0.1-3.57-1.43-6.5-3.91-9.02c-2.14-2.17-4.72-3.66-7.45-4.93c-5.14-2.39-10.61-3.62-16.15-4.58c-7.38-1.27-14.81-1.97-22.3-2.42   c-18.13-1.09-36.27-1.13-54.41-0.85c-16.7,0.26-33.28-0.66-49.6-4.52c-13.36-3.16-26.2-7.64-38.08-14.65   c-7.46-4.4-14.27-9.61-19.83-16.32c-10.59-12.78-13.69-27.13-8.99-43.08c3.34-11.34,9.56-21.08,17.17-29.97   c12.21-14.27,27.03-25.24,43.62-33.86c17.03-8.85,35.13-14.79,53.72-19.32c20.4-4.98,41.1-7.94,62.06-9.31   c13.27-0.87,26.54-1.12,39.81-0.48c18.75,0.91,37.21,3.69,55.11,9.57c18.73,6.15,35.76,15.28,50.11,28.96   c10.42,9.93,18.62,21.44,23.87,34.93c0.41,1.05,0.81,2.1,1.15,3.16c1.05,3.34,0.6,4.01-2.81,4.16c-1.49,0.06-2.99,0.03-4.49,0.03   c-31.81,0-63.62,0-95.43,0c-1.12,0-2.25-0.09-3.37,0.01c-2.79,0.26-4.44-0.82-5.53-3.52c-2.96-7.37-8.61-12.03-15.83-15.01   c-5.24-2.16-10.72-3.36-16.28-4.08c-22.43-2.88-44.42-1.12-65.83,6.48c-5.3,1.88-10.45,4.09-15.27,7.02   c-3.38,2.05-6.5,4.42-9.08,7.44c-5.02,5.89-4.7,13.2,0.84,18.63c2.44,2.39,5.4,3.99,8.54,5.28c5.04,2.09,10.34,3.27,15.68,4.23   c10.14,1.83,20.41,2.61,30.66,3.33c18.47,1.31,36.97,2.13,55.42,3.69c21.25,1.79,42.41,4.38,63.11,9.86   c8.33,2.21,16.5,4.87,24.29,8.6c6.79,3.25,13.08,7.22,18.37,12.68c6.55,6.77,10.02,14.73,10.1,24.2   c0.26,30.95-11.95,55.83-36.31,74.8c-12.83,10-27.28,16.97-42.52,22.38c-16.45,5.84-33.39,9.67-50.62,12.29   c-18.51,2.82-37.14,4.31-55.85,4.99c-11.6,0.42-23.18,0.73-34.77,0.34c-23.61-0.79-47.01-3.14-69.83-9.73   c-11.55-3.33-22.65-7.72-33.11-13.67c-9.84-5.59-18.68-12.46-25.99-21.14c-8.99-10.68-15.03-22.74-16.69-36.76   c-0.09-0.74-0.22-1.48-0.24-2.23c-0.05-1.65,0.64-2.49,2.23-2.59c1.68-0.1,3.37-0.09,5.05-0.09   C1072.62,542.14,1090.4,542.14,1108.17,542.14z"/>
		
	
		<path animation_id="3" class="st0" d="M2675.56,425.52c-2.88,0-4.9,0-6.93,0c-54.45,0.09-108.9,0.18-163.36,0.27c-2.06,0-4.12,0.01-6.17-0.12   c-1.92-0.12-2.61-0.98-2.26-2.99c0.61-3.5,1.37-6.97,2.09-10.45c3.66-17.77,7.33-35.53,11-53.3c0.19-0.92,0.31-1.85,0.54-2.75   c0.59-2.24,1.15-2.72,3.5-2.85c1.49-0.09,2.99-0.06,4.49-0.06c104.04,0,208.09,0,312.13,0c8.57,0,7.95-0.4,5.23,7.43   c-7.31,21.03-14.7,42.02-21.94,63.07c-1.15,3.34-2.96,5.72-5.94,7.73c-48.45,32.56-96.83,65.22-145.23,97.86   c-9.93,6.7-19.84,13.41-29.76,20.12c-1.08,0.73-2.16,1.48-3.2,2.28c-0.24,0.19-0.37,0.61-0.41,0.94c-0.05,0.44,0.25,0.68,0.71,0.69   c1.87,0.05,3.73,0.15,5.6,0.15c47.34,0.01,94.69,0.01,142.03,0.01c1.87,0,3.74,0.02,5.61,0.12c1.34,0.08,2.02,0.91,1.75,2.26   c-0.92,4.58-1.92,9.15-2.89,13.72c-3.16,14.82-6.33,29.63-9.5,44.45c-0.31,1.46-0.67,2.92-1.01,4.37   c-0.38,1.66-1.36,2.61-3.12,2.64c-1.5,0.03-2.99,0.07-4.49,0.07c-100.49,0-200.98,0-301.47,0c-7.55,0-7.27,0.32-5.63-7.05   c4.17-18.81,8.5-37.58,12.45-56.43c0.86-4.09,2.82-6.48,6.26-8.57c37.54-22.89,75-45.91,112.47-68.89   c27.43-16.82,54.86-33.65,82.28-50.5C2671.97,428.77,2673.76,428.08,2675.56,425.52z"/>
		
	
		<path animation_id="4" class="st0" d="M354.82,241.84c0.46,2.09-0.33,4.07-0.73,6.05c-6.47,32.27-13.01,64.52-19.51,96.78   c-4.69,23.28-9.34,46.56-14.03,69.84c-7.31,36.29-14.64,72.58-21.95,108.87c-0.89,4.4-1.82,8.79-2.62,13.2   c-0.37,2.02,0.32,2.88,2.25,3c1.86,0.11,3.74,0.09,5.61,0.09c48.45,0,96.91-0.01,145.36,0.02c9.72,0.01,7.64-0.79,9.47,7.74   c5.11,23.81,15.1,45.33,30.1,64.51c1.84,2.36,3.81,4.62,5.66,6.96c0.89,1.13,0.38,2.09-1.16,2.19c-1.49,0.09-2.99,0.1-4.49,0.1   c-106.07,0-212.15,0-318.22,0c-0.94,0-1.87,0.02-2.81-0.01c-4.58-0.14-5.16-0.77-4.2-5.46c2.61-12.64,5.32-25.25,8-37.87   c8.17-38.6,16.33-77.19,24.52-115.79c9.12-42.98,18.27-85.96,27.4-128.94c6.1-28.71,12.21-57.43,18.24-86.15   c1.37-6.52,1.39-5.97,7.17-5.97c33.49-0.03,66.97-0.02,100.46,0.01C351.19,241,353.13,240.59,354.82,241.84z"/>
		
	
		<path animation_id="5" class="st0" d="M1670.96,540.47c0.88,1.48,0.35,2.96,0.07,4.39c-3.59,18.35-7.26,36.69-10.76,55.07   c-0.57,3.02-1.93,4.96-4.51,6.6c-13.92,8.85-29.03,14.58-45.2,17.63c-15.7,2.96-31.57,3.83-47.5,3.22   c-12.18-0.47-24.21-2.21-35.7-6.62c-7.59-2.91-14.53-6.89-20.48-12.48c-8.61-8.09-13.7-18.15-16.18-29.57   c-2.23-10.31-2.59-20.72-1.67-31.25c1.15-13.09,4-25.87,6.6-38.69c5.03-24.74,10.1-49.47,15.15-74.21c0.3-1.47,0.61-2.93,0.84-4.41   c0.28-1.78-0.24-2.54-1.92-2.66c-1.68-0.12-3.37-0.11-5.05-0.11c-18.15-0.01-36.3,0-54.45-0.01c-1.68,0-3.37-0.05-5.04-0.24   c-0.76-0.08-1.37-0.76-1.25-1.58c0.26-1.85,0.61-3.69,1.02-5.51c3.06-13.69,6.15-27.37,9.22-41.06c1.68-7.48,3.34-14.97,5.02-22.45   c0.25-1.09,0.55-2.17,0.82-3.26c0.37-1.49,1.38-2.14,2.85-2.17c1.68-0.04,3.37-0.07,5.05-0.07c17.96-0.01,35.93-0.02,53.89,0   c7.02,0.01,6.3-0.08,7.64-6.16c6.93-31.41,13.8-62.84,20.69-94.26c0.52-2.37,0.98-4.77,1.58-7.12c0.59-2.3,1.19-2.76,3.47-2.9   c1.31-0.08,2.62-0.06,3.93-0.06c31.06,0,62.13,0,93.19,0c0.19,0,0.37,0,0.56,0c6.82-0.07,6.35,0.31,5.18,6.15   c-5.87,29.34-11.71,58.69-17.56,88.04c-0.84,4.22-1.74,8.42-2.52,12.65c-0.5,2.71,0.12,3.47,2.73,3.6   c1.68,0.09,3.37,0.05,5.05,0.05c19.09,0,38.17,0,57.26,0.01c1.68,0,3.37,0,5.05,0.1c1.38,0.08,1.94,0.79,1.7,2.29   c-0.5,3.14-1.07,6.27-1.71,9.38c-3.92,19.24-7.87,38.48-11.81,57.72c-0.11,0.55-0.17,1.11-0.28,1.66   c-1.06,5.11-1.06,5.15-6.13,5.18c-7.49,0.04-14.97,0.01-22.46,0.01c-12.91,0-25.82,0-38.74,0c-0.94,0-1.87-0.01-2.81,0   c-5.85,0.05-5.87,0.05-7.02,5.51c-1.89,8.97-3.78,17.94-5.61,26.92c-4.04,19.79-8.05,39.58-12.04,59.38   c-0.52,2.56-1.03,5.15-1.27,7.75c-0.73,8.15,2.18,16.99,13.54,20.62c4.69,1.5,9.55,1.8,14.43,1.72c8.08-0.13,16.04-1.24,23.82-3.41   c4.86-1.35,9.65-2.98,14.49-4.4C1667.73,541.02,1669.2,540,1670.96,540.47z"/>
		
	
		<path animation_id="6" class="st0" d="M2467.09,351.67c0.6,2.3-0.26,4.27-0.66,6.26c-4.28,21.26-8.64,42.51-12.97,63.76   c-0.19,0.92-0.32,1.85-0.55,2.75c-0.57,2.25-1.14,2.75-3.46,2.88c-1.68,0.09-3.37,0.05-5.05,0.05c-20.21,0-40.41,0-60.62,0.01   c-6.57,0-6.28-0.28-7.59,6.15c-6.02,29.5-12.06,58.99-18.13,88.47c-0.69,3.34-0.81,6.71-0.51,10.05c0.5,5.54,3.1,9.94,7.86,12.93   c3.88,2.44,8.19,3.59,12.72,4.01c8.46,0.77,16.81-0.04,25.1-1.71c6.98-1.41,13.78-3.44,20.48-5.85c0.88-0.32,1.76-0.63,2.66-0.89   c2.16-0.64,2.91-0.07,2.52,2.03c-0.98,5.33-2.02,10.65-3.07,15.98c-2.63,13.39-5.27,26.79-7.91,40.18   c-0.18,0.92-0.48,1.82-0.58,2.74c-0.23,2.06-1.45,3.33-3.11,4.39c-6.96,4.44-14.19,8.34-21.87,11.37   c-12.97,5.12-26.5,7.83-40.34,9.21c-9.51,0.95-19.04,1.22-28.58,1.03c-10.89-0.21-21.64-1.53-32.13-4.54   c-8.89-2.55-17.16-6.4-24.35-12.34c-11.05-9.14-16.96-21.15-19.45-35.04c-1.93-10.77-1.68-21.59-0.59-32.42   c1.07-10.63,3.43-21.04,5.55-31.48c5.28-26.02,10.66-52.02,16-78.03c0.08-0.37,0.14-0.73,0.21-1.1c0.86-4.95,0.79-5.11-4.2-5.11   c-18.52-0.03-37.04-0.01-55.57-0.02c-1.87,0-3.74-0.03-5.6-0.16c-1.33-0.09-1.95-0.94-1.82-2.29c0.09-0.93,0.27-1.85,0.48-2.76   c4.89-21.9,9.8-43.79,14.7-65.69c0.25-1.1,0.49-2.19,0.76-3.28c0.31-1.21,1.11-1.95,2.36-2.03c1.68-0.1,3.36-0.13,5.05-0.13   c17.96-0.01,35.92,0.02,53.88-0.02c6.9-0.02,6.64,0.82,8.28-6.72c7.02-32.15,14.06-64.3,21.22-96.42c1.71-7.67,0.22-7.34,8.91-7.34   c30.5-0.01,60.99-0.01,91.49,0.01c1.87,0,3.74,0.05,5.6,0.2c1.3,0.11,1.94,0.97,1.82,2.33c-0.12,1.3-0.34,2.6-0.59,3.88   c-6.48,32.46-12.97,64.92-19.45,97.38c-0.29,1.47-0.55,2.94-0.74,4.43c-0.17,1.33,0.47,2.09,1.9,2.18c1.68,0.1,3.36,0.1,5.05,0.1   c19.46,0.01,38.91-0.01,58.37,0.02C2462.78,351.04,2465.06,350.68,2467.09,351.67z"/>
		
	
		<path animation_id="7" class="st0" d="M1869.98,401.48c2.67-1.15,3.92-2.85,5.44-4.19c14.75-13.06,30.46-24.79,47.65-34.45   c12.93-7.27,26.41-13.21,40.94-16.57c14.67-3.39,29.29-3.29,43.86,0.56c1.08,0.29,2.16,0.6,3.22,0.97   c2.31,0.82,2.69,1.34,2.27,3.69c-0.98,5.52-1.97,11.05-3.1,16.54c-5.42,26.37-10.89,52.73-16.34,79.09   c-0.19,0.92-0.28,1.85-0.53,2.75c-0.42,1.53-1.25,2.11-2.9,1.96c-4.1-0.37-8.18-0.91-12.28-1.2c-22.91-1.59-45.61-0.81-67.73,6.23   c-16.25,5.18-31.06,12.91-43.56,24.68c-12.31,11.59-20.66,25.32-23.83,42.22c-5.75,30.69-11.94,61.29-17.96,91.93   c-1.06,5.39-1.09,5.46-6.48,5.46c-33.67,0.02-67.34,0.01-101.01,0.01c-5.76,0-6.09-0.04-4.88-5.94   c7.77-37.72,15.42-75.47,23.1-113.21c7.02-34.44,14.03-68.88,21.06-103.32c2.88-14.1,5.8-28.2,8.7-42.3   c0.23-1.1,0.45-2.2,0.75-3.28c0.33-1.18,1.08-1.95,2.38-1.99c1.49-0.05,2.99-0.12,4.48-0.12c32.36-0.01,64.72,0,97.08,0   c0.56,0,1.12-0.01,1.68,0.01c4.98,0.11,5.12,0.27,4.37,5.12c-1.98,12.75-3.98,25.49-5.91,38.24   C1870.14,396.56,1869.63,398.75,1869.98,401.48z"/>
		
	
		<path animation_id="8" class="st0" d="M938.7,621.19c-16.47,0-32.93,0.01-49.4-0.01c-6.74-0.01-6.75-0.05-5.4-6.52   c10.13-48.7,20.27-97.4,30.39-146.11c8.1-39,16.16-78.01,24.25-117.01c0.42-2.01,0.87-4.02,1.42-6c0.35-1.24,1.22-1.75,2.57-1.42   c4,0.97,8.03,1.79,12,2.86c14.04,3.77,28.33,4.86,42.82,4.42c16.7-0.5,33.18-2.45,49.37-6.69c1.08-0.28,2.18-0.52,3.29-0.73   c1.14-0.22,1.91,0.36,1.79,1.4c-0.18,1.48-0.4,2.97-0.71,4.43c-9.55,45.77-19.1,91.53-28.66,137.3   c-8.94,42.84-17.89,85.67-26.84,128.51c-0.23,1.1-0.42,2.2-0.71,3.29c-0.38,1.44-1.36,2.18-2.86,2.2   c-1.68,0.03-3.37,0.08-5.05,0.08C970.89,621.19,954.8,621.19,938.7,621.19z"/>
		
	
		<path animation_id="9" class="st0" d="M2059.87,621.19c-15.9,0-31.8,0-47.69,0c-1.68,0-3.37,0.04-5.05-0.05c-2.82-0.15-3.23-0.64-2.66-3.47   c2.88-14.1,5.81-28.2,8.73-42.29c6.65-32.03,13.29-64.06,19.95-96.09c6.13-29.47,12.28-58.92,18.42-88.39   c2.82-13.54,5.52-27.11,8.46-40.63c1.59-7.34,0.45-6.92,8.23-5.08c8.91,2.11,17.76,4.5,26.91,5.43c3.53,0.36,7.08,0.68,10.62,0.75   c18,0.38,35.88-0.81,53.52-4.62c3.84-0.83,7.64-1.8,11.47-2.65c1.8-0.4,2.53,0.26,2.2,1.99c-0.7,3.67-1.46,7.33-2.22,10.99   c-8.54,40.99-17.07,81.99-25.63,122.98c-8.37,40.07-16.77,80.14-25.16,120.21c-1.19,5.67-2.32,11.36-3.58,17.01   c-0.82,3.66-1.02,3.8-4.9,3.87c-4.49,0.08-8.98,0.03-13.47,0.03C2085.3,621.19,2072.58,621.19,2059.87,621.19z"/>
		
	
		<path animation_id="10" class="st0" d="M2140.29,238.96c16.28,0,32.56,0,48.84,0.01c1.68,0,3.36,0.06,5.04,0.14c1.1,0.06,1.69,0.73,1.68,1.81   c-0.01,0.93-0.09,1.87-0.28,2.78c-3.5,16.65-7.12,33.28-10.46,49.97c-0.63,3.13-2.06,4.93-4.78,6.29   c-9.1,4.55-18.62,7.77-28.59,9.72c-12.54,2.45-25.22,3.43-37.96,3.1c-13.54-0.35-26.78-2.69-39.56-7.31   c-2.97-1.07-3.25-1.5-2.63-4.52c2.63-12.82,5.32-25.64,7.98-38.45c1.37-6.59,2.71-13.19,4.12-19.77c0.74-3.47,0.99-3.69,4.4-3.74   c4.3-0.07,8.61-0.02,12.91-0.03C2114.1,238.96,2127.2,238.96,2140.29,238.96z"/>
		
	
		<path animation_id="11" class="st0" d="M1019.56,238.96c16.83,0,33.65,0.01,50.48,0c5.46,0,5.28,0.2,4.19,5.38c-3.5,16.64-6.99,33.28-10.38,49.94   c-0.54,2.65-1.91,4.23-4.25,5.44c-11.08,5.72-22.87,9.2-35.14,11.04c-10.18,1.52-20.44,2.27-30.73,2.05   c-13.73-0.3-27.13-2.59-40.13-7.11c-0.71-0.25-1.42-0.47-2.1-0.77c-0.96-0.43-1.37-1.24-1.24-2.27c0.16-1.3,0.33-2.6,0.6-3.88   c3.71-17.93,7.36-35.88,11.22-53.78c1.36-6.31,0.15-6.04,7.57-6.04C986.28,238.95,1002.92,238.96,1019.56,238.96z"/>
		
	
		<path animation_id="12" class="st0" d="M870,467.47c-0.5-32.17-12.71-59.25-35.83-81.44c-12.85-12.34-27.9-21.32-44.37-27.97   c-27.52-11.12-56.35-14.72-85.76-14.37c-14.96,0.18-29.87,1.55-44.65,4.13c-23.01,4.02-45.07,10.91-65.83,21.67   c-23.94,12.41-44.55,28.94-60.54,50.78c-21.1,28.83-31.34,60.98-28.43,96.9c1.92,23.75,10.91,44.51,26.82,62.25   c10.5,11.7,23.05,20.71,36.94,27.97c18.42,9.63,38.07,15.5,58.47,18.98c8.29,1.41,16.67,2.32,25,3.45   c2.48,1.42,5.41-0.39,7.88,1.09c10.85,0,21.71,0,32.56,0c2.08-1.44,4.67,0.3,6.75-1.1c6.83-1.1,13.7-2,20.49-3.33   c33.75-6.58,64.63-19.83,92.34-40.25c14.86-10.95,27.98-23.68,38.31-39.09c1.11-1.65,3.41-3.35,2.54-5.29   c-0.96-2.14-3.69-0.68-5.61-1.03c-0.36-0.07-0.75-0.01-1.12-0.01c-33.13,0-66.25,0-99.38,0c-1.12,0-2.25,0.09-3.37-0.01   c-2.66-0.25-4.54,0.66-6.14,2.94c-3.6,5.14-8.51,8.88-13.87,12.08c-7.14,4.27-14.88,7.03-22.96,8.78   c-13.44,2.91-27.02,3.74-40.71,2.23c-6.54-0.72-12.87-2.38-18.91-5.03c-12.58-5.52-21.51-14.68-26.93-27.27   c-3.68-8.54-5.23-17.53-5.55-26.77c-0.08-2.44,0.2-4.86,0.94-7.21c0.38-1.21,1.18-1.9,2.43-1.94c2.06-0.07,4.12-0.09,6.17-0.09   c80.29,0,160.57,0,240.86-0.01c2.06,0,4.12-0.04,6.17-0.1c1.28-0.04,2.11-0.81,2.39-1.99c0.53-2.18,0.98-4.38,1.38-6.59   C869.85,482.44,870.11,474.96,870,467.47z M757.38,448.43c-0.09,0.74-0.26,1.47-0.48,2.18c-0.36,1.18-1.18,1.91-2.42,1.98   c-1.86,0.1-3.73,0.15-5.6,0.15c-20.56,0.01-41.12,0.01-61.69,0.01c-20.75,0-41.5,0.01-62.25,0c-7.31,0-7.45-0.12-5.16-7.18   c5.85-18.05,17.45-31.14,34.67-39.05c14.4-6.62,29.73-8.59,45.42-7.69c9.53,0.55,18.92,2.2,28.05,5.14c3.56,1.15,7,2.58,10.39,4.15   c6.95,3.2,11.73,8.52,15.1,15.22C757.41,431.26,758.43,439.69,757.38,448.43z"/>
		

	</g>
	

	<text animation_id="13" style="fill:#020203; font-family:'MyriadPro-Regular'; font-size:12px;" transform="matrix(1 0 0 1 2881.9495 2390.9092)">EX</text>
	

</svg>
