<?xml version="1.0" encoding="iso-8859-1"?>
<!-- Generator: Adobe Illustrator 14.0.0, SVG Export Plug-In . SVG Version: 6.00 Build 43363)  -->
<!DOCTYPE svg
  PUBLIC '-//W3C//DTD SVG 1.1//EN'
  'http://www.w3.org/Graphics/SVG/1.1/DTD/svg11.dtd'>
<svg enable-background="new 0 0 1024 216" height="216px" id="Ebene_1" version="1.1" viewBox="0 0 1024 216" width="1024px" x="0px" xml:space="preserve" xmlns="http://www.w3.org/2000/svg" xmlns:xlink="http://www.w3.org/1999/xlink" y="0px">
	

	<path animation_id="0" d="M885.893,171.834c33.683,0,60.977-27.302,60.977-60.977c0-33.667-27.294-60.97-60.977-60.97  c-33.668,0-60.97,27.302-60.97,60.97C824.923,144.532,852.225,171.834,885.893,171.834 M956.11,112.046  C956.11,169.457,909.566,216,852.148,216c-57.403,0-103.947-46.543-103.947-103.954h67.465c0-57.411,46.544-103.962,103.955-103.962  c57.41,0,103.962,46.551,103.962,103.962H956.11z" fill="#E00822"/>
	

	<path animation_id="1" d="M4.994,110.251h13.758V75.717c0-18.145,7.021-30.722,22.682-30.722c11.998,0.729,15.798,9.21,15.798,26.627v38.629H70.99  V65.916c0-20.047-8.632-32.049-27.95-32.049c-10.388,0-20.338,5.13-24.438,13.612h-0.292V35.623H4.994V110.251z"/>
	

	<path animation_id="2" d="M102.771,65.771c1.028-9.663,6.588-20.783,20.051-20.783c11.849,0,18.579,9.372,18.579,20.783H102.771z M150.331,93.425  c-3.371,2.784-13.9,7.462-22.974,7.462c-13.025,0-24.587-10.092-24.587-24.878h53.27c0-23.989-8.053-42.142-32.931-42.142  c-21.067,0-34.968,15.66-34.968,37.755c0,24.295,12.141,40.386,38.63,40.386c12.289,0,18.29-2.922,23.56-4.832V93.425z"/>
	

	<path animation_id="3" d="M236.251,35.623h-13.758v34.542c0,18.137-7.021,30.73-22.678,30.73c-12.002-0.744-15.802-9.218-15.802-26.643V35.623  h-13.759v44.343c0,20.047,8.632,32.049,27.95,32.049c10.388,0,20.338-5.13,24.438-13.612h0.291v11.849h13.317V35.623z"/>
	

	<path animation_id="4" d="M268.036,65.771c1.02-9.663,6.587-20.783,20.047-20.783c11.853,0,18.582,9.372,18.582,20.783H268.036z M315.592,93.425  c-3.367,2.784-13.896,7.462-22.977,7.462c-13.022,0-24.579-10.092-24.579-24.878h53.266c0-23.989-8.049-42.142-32.928-42.142  c-21.07,0-34.971,15.66-34.971,37.755c0,24.295,12.144,40.386,38.629,40.386c12.294,0,18.291-2.922,23.56-4.832V93.425z"/>
	

	<rect animation_id="24" height="109.745" width="13.751" x="362.013" y="0.506"/>
	

	<path animation_id="5" d="M406.363,65.771c1.027-9.663,6.588-20.783,20.051-20.783c11.849,0,18.578,9.372,18.578,20.783H406.363z M453.923,93.425  c-3.37,2.784-13.9,7.462-22.98,7.462c-13.018,0-24.579-10.092-24.579-24.878h53.27c0-23.989-8.053-42.142-32.932-42.142  c-21.066,0-34.967,15.66-34.967,37.755c0,24.295,12.141,40.386,38.629,40.386c12.29,0,18.291-2.922,23.56-4.832V93.425z"/>
	

	<path animation_id="6" d="M533.268,72.642c0.283,11.71-5.859,28.253-20.638,28.253c-15.507,0-21.949-15.369-21.949-27.808  c0-13.904,7.171-28.092,22.091-28.092C527.699,44.995,533.551,59.183,533.268,72.642 M476.923,110.251h13.172V99.714h0.287  c3.662,5.56,12.151,12.301,25.469,12.301c22.532,0,32.042-19.901,32.042-40.393c0-20.047-10.529-37.755-32.191-37.755  c-13.018,0-20.487,5.13-24.729,12.002h-0.292V0.506h-13.758V110.251z"/>
	

	<path animation_id="7" d="M574.558,65.771c1.028-9.663,6.588-20.783,20.047-20.783c11.856,0,18.583,9.372,18.583,20.783H574.558z M622.114,93.425  c-3.367,2.784-13.904,7.462-22.97,7.462c-13.029,0-24.587-10.092-24.587-24.878h53.27c0-23.989-8.053-42.142-32.931-42.142  c-21.075,0-34.972,15.66-34.972,37.755c0,24.295,12.141,40.386,38.63,40.386c12.293,0,18.291-2.922,23.56-4.832V93.425z"/>
	

	<path animation_id="8" d="M642.038,110.251h13.759V75.717c0-18.145,7.017-30.722,22.677-30.722c12.003,0.729,15.799,9.21,15.799,26.627v38.629h13.766  V65.916c0-20.047-8.643-32.049-27.953-32.049c-10.385,0-20.339,5.13-24.435,13.612h-0.291V35.623h-13.321V110.251z"/>
	

	<polygon animation_id="20" points="11.378,179.688 18.871,179.688 27.43,145.583 27.541,145.583 36.038,179.688 43.255,179.688 55.272,140.659   49.348,140.659 40.011,174.097 39.896,174.097 31.452,140.659 23.511,140.659 15.178,174.097 15.071,174.097 5.734,140.659   -0.417,140.659 "/>
	

	<path animation_id="9" d="M69.713,179.68h5.254v-28.521h-5.254V179.68z M69.376,144.793h5.928v-5.921h-5.928V144.793z"/>
	

	<rect animation_id="25" height="41.942" width="5.265" x="94.377" y="137.737"/>
	

	<rect animation_id="26" height="41.942" width="5.261" x="119.045" y="137.737"/>
	

	<polygon animation_id="21" points="143.045,179.688 148.298,179.688 148.298,165.031 161.052,179.688 168.603,179.688 153.671,163.805   166.927,151.174 159.768,151.174 148.298,162.746 148.298,137.753 143.045,137.753 "/>
	

	<path animation_id="10" d="M186.974,165.431c0-5.43,3.302-10.684,8.946-10.684c5.59,0,8.892,5.254,8.892,10.684c0,5.084-2.733,10.675-8.892,10.675  C189.715,176.105,186.974,170.515,186.974,165.431 M181.383,165.431c0,8.159,5.932,14.924,14.537,14.924  c8.563,0,14.49-6.765,14.49-14.924c0-8.674-5.82-14.932-14.49-14.932C187.196,150.499,181.383,156.757,181.383,165.431"/>
	

	<path animation_id="11" d="M226.527,179.688h5.253v-14.372c0-5.308,2.128-10.568,7.5-10.568c4.249,0,5.089,4.418,5.089,7.938v17.003h5.253v-14.372  c0-5.308,2.121-10.568,7.493-10.568c4.248,0,5.088,4.418,5.088,7.938v17.003h5.254v-18.283c0-6.212-2.623-10.905-9.894-10.905  c-2.577,0-6.879,1.449-8.835,5.537c-1.507-3.858-4.815-5.537-8.113-5.537c-4.191,0-7.044,1.511-9.054,4.808h-0.111v-4.133h-4.923  V179.688z"/>
	

	<path animation_id="12" d="M285.395,179.688h5.254v-14.372c0-5.308,2.128-10.568,7.492-10.568c4.257,0,5.089,4.418,5.089,7.938v17.003h5.261v-14.372  c0-5.308,2.12-10.568,7.493-10.568c4.248,0,5.088,4.418,5.088,7.938v17.003h5.253v-18.283c0-6.212-2.63-10.905-9.893-10.905  c-2.577,0-6.879,1.449-8.835,5.537c-1.511-3.858-4.816-5.537-8.114-5.537c-4.194,0-7.044,1.511-9.053,4.808h-0.119v-4.133h-4.916  V179.688z"/>
	

	<path animation_id="13" d="M348.009,162.685c0.392-3.688,2.512-7.938,7.654-7.938c4.532,0,7.109,3.582,7.109,7.938H348.009z M366.181,173.253  c-1.288,1.059-5.311,2.853-8.78,2.853c-4.978,0-9.392-3.857-9.392-9.502h20.354c0-9.172-3.08-16.104-12.582-16.104  c-8.056,0-13.367,5.981-13.367,14.425c0,9.28,4.645,15.431,14.768,15.431c4.693,0,6.986-1.112,8.999-1.849V173.253z"/>
	

	<path animation_id="14" d="M384.553,179.688h5.253v-13.199c0-6.933,2.688-11.741,8.67-11.741c4.59,0.276,6.039,3.521,6.039,10.177v14.764h5.254  v-16.941c0-7.661-3.298-12.247-10.68-12.247c-3.965,0-7.765,1.955-9.337,5.191h-0.111v-4.517h-5.088V179.688z"/>
	

	<polygon animation_id="22" points="449.836,179.688 476.842,179.688 476.842,174.771 456.323,174.771 476.505,145.69 476.505,140.659 450.507,140.659   450.507,145.583 470.074,145.583 449.836,174.648 "/>
	

	<path animation_id="15" d="M517.979,151.166h-5.254v13.19c0,6.948-2.688,11.749-8.67,11.749c-4.59-0.275-6.039-3.52-6.039-10.177v-14.763h-5.253  v16.948c0,7.654,3.297,12.24,10.679,12.24c3.965,0,7.765-1.956,9.337-5.2h0.111v4.525h5.089V151.166z"/>
	

	<polygon animation_id="23" points="536.059,179.688 541.305,179.688 541.305,165.031 554.066,179.688 561.612,179.688 546.681,163.805 559.94,151.174   552.777,151.174 541.305,162.746 541.305,137.753 536.059,137.753 "/>
	

	<path animation_id="16" d="M600.955,151.166h-5.254v13.19c0,6.948-2.691,11.749-8.674,11.749c-4.586-0.275-6.035-3.52-6.035-10.177v-14.763h-5.253  v16.948c0,7.654,3.298,12.24,10.675,12.24c3.973,0,7.776-1.956,9.341-5.2h0.107v4.525h5.093V151.166z"/>
	

	<path animation_id="17" d="M619.039,179.688h5.245v-13.199c0-6.933,2.685-11.741,8.674-11.741c4.586,0.276,6.035,3.521,6.035,10.177v14.764h5.262  v-16.941c0-7.661-3.298-12.247-10.684-12.247c-3.965,0-7.769,1.955-9.333,5.191h-0.115v-4.517h-5.084V179.688z"/>
	

	<path animation_id="18" d="M664.624,179.688h5.253v-24.266h7.547v-4.248h-7.547v-3.083c0-3.857,0.567-6.765,5.085-6.765  c0.904,0,1.901,0.115,2.53,0.338l0.215-4.249c-1.059-0.169-2.178-0.337-3.513-0.337c-7.776,0-9.57,4.524-9.57,11.465v2.631h-6.703  v4.248h6.703V179.688z"/>
	

	<path animation_id="19" d="M707.801,151.166h-7.547v-8.275l-5.261,1.68v6.596h-6.427v4.248h6.427v16.665c0,5.698,3.367,8.275,8.789,8.275  c1.672,0,3.298-0.445,4.471-0.782v-4.472c-0.79,0.507-1.955,1.005-3.581,1.005c-2.408,0-4.418-1.787-4.418-5.084v-15.607h7.547  V151.166z"/>
	

</svg>
