<?xml version="1.0" encoding="iso-8859-1"?>
<!-- Created with Inkscape (http://www.inkscape.org/) -->
<svg height="56.6086" id="svg2" version="1.1" width="197.666" xmlns="http://www.w3.org/2000/svg" xmlns:cc="http://creativecommons.org/ns#" xmlns:dc="http://purl.org/dc/elements/1.1/" xmlns:inkscape="http://www.inkscape.org/namespaces/inkscape" xmlns:rdf="http://www.w3.org/1999/02/22-rdf-syntax-ns#" xmlns:svg="http://www.w3.org/2000/svg">
	
  
	<defs id="defs4">
		
    
		<inkscape:path-effect effect="skeletal" id="path-effect3110"/>
		
    
		<inkscape:path-effect effect="skeletal" id="path-effect3106"/>
		
    
		<inkscape:path-effect effect="spiro" id="path-effect3104"/>
		
    
		<inkscape:path-effect effect="skeletal" id="path-effect3100"/>
		
  
	</defs>
	
  
	<metadata id="metadata7">
		
    
		<rdf:RDF>
			
      
			<cc:Work rdf:about="">
				
        
				<dc:format>image/svg+xml</dc:format>
				
        
				<dc:type rdf:resource="http://purl.org/dc/dcmitype/StillImage"/>
				
        
				<dc:title/>
				
      
			</cc:Work>
			
    
		</rdf:RDF>
		
  
	</metadata>
	
  
	<g id="layer1" transform="translate(-251.334,-504.253)">
		
    
		<g id="g3120" transform="translate(-2.912,130.721)">
			
      
			<path animation_id="0" d="m 313.912,394.141 c -4.986,0 -9,4.014 -9,9 l 0,18 c 0,4.986 4.014,9 9,9 l 26,0 c 4.986,0 9,-4.014 9,-9 l 0,-18 c 0,-4.986 -4.014,-9 -9,-9 l -26,0 z m 2,8.125 22,0 c 1.108,0 2,0.892 2,2 l 0,15.719 c 0,1.108 -0.892,2 -2,2 l -22,0 c -1.108,0 -2,-0.892 -2,-2 l 0,-15.719 c 0,-1.108 0.892,-2 2,-2 z" id="rect3015" style="fill:#003d62;fill-opacity:1;stroke:none"/>
			
      
			<path animation_id="1" d="m 355.912,394.141 0,36 10,0 0,-13.75 24,0 0,13.75 10,0 0,-36 -10,0 0,13.75 -24,0 0,-13.75 -10,0 z" id="rect3024" style="fill:#003d62;fill-opacity:1;stroke:none"/>
			
      
			<path animation_id="2" d="m 406.912,394.141 0,36 8.5,0 25.906,0 c 5.851,0 10.594,-4.743 10.594,-10.594 0,-3.372 -1.575,-6.372 -4.031,-8.312 1.392,-1.793 2.219,-4.054 2.219,-6.5 0,-5.851 -4.744,-10.594 -10.594,-10.594 l -24.094,0 z m 8.5,7.5 13.969,0 8.812,0 c 2.011,0 3.625,1.646 3.625,3.656 0,2.011 -1.614,3.625 -3.625,3.625 l -8.437,0 -14.344,0 z m 0,13.687 24.094,0 0.344,0 c 2.009,0 3.624,1.615 3.624,3.626 0,2.009 -1.614,3.656 -3.624,3.656 l 0,0.03 -24.438,0 0,-7.313 z" id="rect3031" style="fill:#003d62;fill-opacity:1;stroke:none"/>
			
    
		</g>
		
    
		<path animation_id="3" d="m 290.088,542.068 c -48.741,-23.417 10.048,-39.792 85.657,-26.57 -56.691,0.08 -117.028,-2.304 -85.657,26.57 z" id="path3116" style="fill:#639db5;fill-opacity:1;stroke:none"/>
		
    
		<path animation_id="4" d="m 281.797,542.31 c -66.22,-19.284 -14.504,-48.791 59.936,-34.092 -58.456,-4.533 -102.249,10.368 -59.936,34.092 z" id="path3118" style="fill:#639db5;fill-opacity:1;stroke:none"/>
		
  
	</g>
	

</svg>
