<?xml version="1.0" encoding="iso-8859-1"?>
<svg height="148.25839mm" id="svg1118" version="1.1" viewBox="0 0 156.06242 148.25839" width="156.06242mm" xmlns="http://www.w3.org/2000/svg" xmlns:cc="http://creativecommons.org/ns#" xmlns:dc="http://purl.org/dc/elements/1.1/" xmlns:rdf="http://www.w3.org/1999/02/22-rdf-syntax-ns#" xmlns:svg="http://www.w3.org/2000/svg">
	
  
	<defs id="defs1112"/>
	
  
	<metadata id="metadata1115">
		
    
		<rdf:RDF>
			
      
			<cc:Work rdf:about="">
				
        
				<dc:format>image/svg+xml</dc:format>
				
        
				<dc:type rdf:resource="http://purl.org/dc/dcmitype/StillImage"/>
				
        
				<dc:title/>
				
      
			</cc:Work>
			
    
		</rdf:RDF>
		
  
	</metadata>
	
  
	<g id="layer1" transform="translate(14.531215,-18.00771)">
		
    
		<path animation_id="0" d="M -14.531215,166.2661 H 141.53121 V 18.00771 H -14.531215 Z" id="path36" style="fill:#e30513;fill-opacity:1;fill-rule:nonzero;stroke:none;stroke-width:0.1146978"/>
		
    
		<path animation_id="1" d="m 79.370722,79.822026 h 13.924323 l 8.826005,14.968066 8.96593,-14.968066 h 13.92546 l -16.24694,24.132654 16.11962,23.67844 h -13.63527 l -9.1288,-14.4533 -9.995915,14.4533 H 78.432507 l 17.044098,-23.67844 m -17.084243,23.67798 h -10.58087 v -3.18872 h -0.153697 c -2.300837,2.76307 -6.287733,4.32182 -10.197782,4.32182 -11.041957,0 -17.328547,-9.28387 -17.328547,-18.70962 0,-9.21345 6.363436,-18.356122 17.174853,-18.356122 3.911195,0 7.89809,1.558629 10.505173,4.393846 V 92.83438 h 10.58087 z m -9.971826,-17.43544 c 0,-4.67704 -3.450108,-9.70894 -8.970518,-9.70894 -5.520404,0 -8.894815,5.0319 -8.894815,9.70894 0,4.67841 3.374411,9.78028 8.894815,9.78028 5.52041,0 8.970518,-5.10187 8.970518,-9.78028 M 26.769174,79.048276 c 12.223343,0 17.288399,8.30309 17.288399,15.295067 0,7.365777 -4.727842,14.669727 -19.92186,14.669727 h -7.091765 v 18.60296 H 6.508952 V 79.048276 Z m -7.564321,21.724914 c 5.740625,0 14.047039,0.87411 14.047039,-6.74297 0,-7.616164 -8.306414,-6.742055 -14.047039,-6.742055 h -2.160905 v 13.485025 m 107.198862,36.17557 c 0,-0.22813 -0.0505,-0.26621 -0.26494,-0.26621 h -0.92332 c -0.21449,0 -0.26495,0.0381 -0.26495,0.26621 v 4.00984 c 0,0.35442 0.0378,1.23977 0.0378,1.64476 h -0.0252 c -0.15255,-0.51831 -0.39227,-1.16395 -0.74668,-1.83378 l -2.08865,-3.92164 c -0.0768,-0.13981 -0.10208,-0.16539 -0.29133,-0.16539 h -1.03572 c -0.21564,0 -0.26611,0.0381 -0.26611,0.26621 v 8.13449 c 0,0.22721 0.0505,0.26483 0.26611,0.26483 h 0.92216 c 0.21449,0 0.26496,-0.0376 0.26496,-0.26483 v -4.55477 c 0,-0.58152 -0.0379,-1.22715 -0.0379,-1.39105 h 0.0252 c 0.12732,0.5689 0.3418,1.01163 0.72145,1.72047 l 2.3169,4.31366 c 0.0757,0.1514 0.11355,0.17652 0.29018,0.17652 h 0.835 c 0.2271,0 0.26496,-0.0376 0.26496,-0.26483 m -7.99675,-0.8342 c 0,-0.22722 -0.0367,-0.2653 -0.2661,-0.2653 h -2.70572 v -2.4816 h 2.15059 c 0.21448,0 0.2661,-0.0381 0.2661,-0.26529 v -0.83374 c 0,-0.22814 -0.039,-0.26622 -0.2661,-0.26622 h -2.15059 v -2.08876 h 2.45339 c 0.10093,0 0.23971,-0.0125 0.29133,-0.20152 l 0.23972,-0.84773 c 0.0264,-0.0883 0.0378,-0.11332 0.0378,-0.17652 0,-0.11378 -0.0631,-0.1389 -0.31657,-0.1389 h -4.14747 c -0.21563,0 -0.2661,0.0376 -0.2661,0.26483 v 8.13449 c 0,0.22813 0.0505,0.26621 0.2661,0.26621 h 4.16009 c 0.21678,0 0.25348,-0.0381 0.25348,-0.26621 m -15.91547,-10.39931 c 0,-0.46831 -0.379665,-0.87193 -0.871715,-0.87193 -0.49319,0 -0.87284,0.39112 -0.87284,0.87193 0,0.48024 0.39227,0.87136 0.87284,0.87136 0.47945,0 0.871715,-0.39112 0.871715,-0.87136 m -2.240045,0 c 0,-0.48081 -0.39227,-0.87193 -0.87172,-0.87193 -0.49319,0 -0.87284,0.39112 -0.87284,0.87193 0,0.48024 0.39227,0.87136 0.87284,0.87136 0.47945,0 0.87172,-0.39112 0.87172,-0.87136 m 3.276915,2.26563 c 0,-0.22848 -0.0505,-0.2661 -0.26495,-0.2661 h -1.175665 c -0.21563,0 -0.26609,0.0376 -0.26609,0.2661 v 5.46523 c 0,0.91174 -0.0631,1.78447 -1.34197,1.78447 -1.27889,0 -1.34196,-0.87273 -1.34196,-1.78447 v -5.46523 c 0,-0.22848 -0.0505,-0.2661 -0.26495,-0.2661 h -1.17567 c -0.21447,0 -0.26495,0.0376 -0.26495,0.2661 v 5.46523 c 0,1.88575 0.65722,3.14972 3.04753,3.14972 2.391455,0 3.048675,-1.26397 3.048675,-3.14972 m -9.424715,-4.21422 h 1.56791 c 0.10093,0 0.23971,0 0.29132,-0.2021 l 0.26611,-0.99913 c 0.0252,-0.0883 0.0367,-0.11332 0.0367,-0.17652 0,-0.11333 -0.0631,-0.1389 -0.31541,-0.1389 h -5.21073 c -0.17777,0 -0.21447,0.0381 -0.21447,0.2146 v 1.08745 c 0,0.17652 0.0367,0.2146 0.21447,0.2146 h 1.65739 v 6.88267 c 0,0.22721 0.0493,0.26484 0.26609,0.26484 h 1.17567 c 0.21333,0 0.26495,-0.0376 0.26495,-0.26484 m 17.700135,-0.24052 -1.88448,-3.37774 c 0.46682,-0.23972 1.4406,-0.70791 1.4406,-2.34018 0,-2.37723 -1.9728,-2.44042 -2.94773,-2.44042 h -2.04851 c -0.21448,0 -0.26495,0.0376 -0.26495,0.26483 v 8.13449 c 0,0.22721 0.0505,0.26483 0.26495,0.26483 h 1.17566 c 0.21448,0 0.26494,-0.0376 0.26494,-0.26483 v -3.315 h 0.60791 l 1.71014,3.40331 c 0.12502,0.23972 0.22595,0.39204 0.28904,0.39204 0.0505,0 0.12731,-0.0125 0.17778,-0.0251 l 1.06325,-0.30372 c 0.12502,-0.0381 0.25119,-0.0757 0.25119,-0.15152 0,-0.077 -0.0631,-0.17778 -0.0998,-0.24098 m -2.15059,-5.69233 c 0,1.16395 -0.69621,1.29127 -1.51974,1.29127 h -0.32919 v -2.43148 h 0.46912 c 0.65837,0 1.37981,0.0389 1.37981,1.14021 m -24.419175,1.82174 c 0,-3.50551 -1.263957,-4.28866 -3.681801,-4.28866 h -1.960171 c -0.227105,0 -0.277569,0.0376 -0.277569,0.2661 v 8.13413 c 0,0.2146 0.05049,0.2653 0.264951,0.2653 h 1.93494 c 2.253811,0 3.71965,-0.74554 3.71965,-4.37687 m -1.795007,-0.0256 c 0,2.41669 -0.532202,3.03731 -1.962494,3.03731 h -0.455338 v -5.93561 h 0.455338 c 1.417666,0 1.962494,0.63302 1.962494,2.8983 M 74.3938,136.94874 c 0,-0.22814 -0.0505,-0.26622 -0.264948,-0.26622 h -0.923319 c -0.214495,0 -0.264949,0.0381 -0.264949,0.26622 v 4.00983 c 0,0.35442 0.03785,1.23977 0.03785,1.64477 h -0.02521 c -0.152537,-0.51832 -0.392268,-1.16396 -0.746683,-1.83379 l -2.088637,-3.92163 c -0.07684,-0.13982 -0.102081,-0.1654 -0.291332,-0.1654 h -1.036866 c -0.214487,0 -0.264953,0.0381 -0.264953,0.26622 v 8.13448 c 0,0.22721 0.05047,0.26484 0.264953,0.26484 h 0.923314 c 0.214485,0 0.264954,-0.0376 0.264954,-0.26484 v -4.55477 c 0,-0.58151 -0.03785,-1.22715 -0.03785,-1.39105 h 0.02524 c 0.127317,0.5689 0.341799,1.01163 0.72145,1.72047 l 2.316898,4.31367 c 0.0757,0.1514 0.113548,0.17652 0.290173,0.17652 h 0.83501 c 0.227099,0 0.264951,-0.0376 0.264951,-0.26484 m -8.488611,-8.13411 c 0,-0.22848 -0.05047,-0.2661 -0.266099,-0.2661 h -1.175655 c -0.214485,0 -0.264949,0.0376 -0.264949,0.2661 v 5.46524 c 0,0.91173 -0.06308,1.78447 -1.341966,1.78447 -1.27888,0 -1.341964,-0.87274 -1.341964,-1.78447 v -5.46524 c 0,-0.22848 -0.05161,-0.2661 -0.264951,-0.2661 h -1.175653 c -0.214484,0 -0.266099,0.0376 -0.266099,0.2661 v 5.46524 c 0,1.88574 0.658363,3.14971 3.048667,3.14971 2.391452,0 3.048669,-1.26397 3.048669,-3.14971 m -19.568594,1.8347 c 0,-0.22721 -0.03785,-0.26529 -0.266099,-0.26529 h -2.706868 v -2.48161 h 2.150581 c 0.215633,0 0.266102,-0.0381 0.266102,-0.26529 v -0.83374 c 0,-0.22813 -0.03785,-0.26621 -0.266102,-0.26621 h -2.150581 v -2.08877 h 2.454532 c 0.100933,0 0.23972,-0.0125 0.290184,-0.20152 l 0.240867,-0.84773 c 0.02521,-0.0883 0.03785,-0.11332 0.03785,-0.17652 0,-0.11378 -0.06308,-0.1389 -0.316563,-0.1389 h -4.148643 c -0.214482,0 -0.264951,0.0376 -0.264951,0.26484 v 8.13448 c 0,0.22814 0.05047,0.26621 0.264951,0.26621 h 4.16124 c 0.215632,0 0.253481,-0.0381 0.253481,-0.26621 m -8.286919,-6.88267 h 1.569066 c 0.100933,0 0.239721,0 0.291336,-0.2021 l 0.264951,-0.99913 c 0.02521,-0.0883 0.03785,-0.11332 0.03785,-0.17652 0,-0.11332 -0.06308,-0.1389 -0.316566,-0.1389 h -5.21072 c -0.176636,0 -0.214484,0.0381 -0.214484,0.2146 v 1.08745 c 0,0.17652 0.03785,0.2146 0.214484,0.2146 h 1.657385 v 6.88267 c 0,0.22722 0.05047,0.26484 0.266096,0.26484 h 1.175655 c 0.214485,0 0.264949,-0.0376 0.264949,-0.26484 m -4.795512,-7.65424 c 0.05046,-0.10082 0.06308,-0.1514 0.06308,-0.18903 0,-0.21551 -1.238737,-0.77065 -2.44077,-0.77065 -1.466985,0 -2.782581,0.75804 -2.782581,2.57933 0,1.05063 0.42898,1.55656 1.098817,1.96156 1.291495,0.78453 2.582992,0.89785 2.582992,2.02418 0,0.78454 -0.431263,1.16407 -1.138959,1.16407 -1.089618,0 -2.024404,-0.55605 -2.10125,-0.55605 -0.04932,0 -0.113554,0.0501 -0.137641,0.12593 l -0.29133,0.83512 c -0.02408,0.0757 -0.06309,0.16402 -0.06309,0.2021 0,0.2029 1.352285,0.75803 2.642637,0.75803 1.5943,0 2.732103,-1.06095 2.732103,-2.6681 0,-0.96231 -0.440441,-1.63214 -1.086188,-2.11376 -1.113716,-0.82216 -2.594467,-0.99913 -2.594467,-1.96111 0,-0.75941 0.607901,-0.98663 1.189418,-0.98663 0.911847,0 1.696382,0.55652 1.772081,0.55652 0.04932,0 0.09979,-0.0506 0.137637,-0.1264 m -6.79355,-1.31489 c 0,-0.22814 -0.05048,-0.26622 -0.264952,-0.26622 h -0.923319 c -0.214484,0 -0.264953,0.0381 -0.264953,0.26622 v 4.00983 c 0,0.35442 0.03785,1.23977 0.03785,1.64477 h -0.02524 c -0.152548,-0.51832 -0.392268,-1.16396 -0.746683,-1.83379 l -2.08865,-3.92163 c -0.07684,-0.13982 -0.102079,-0.1654 -0.29133,-0.1654 h -1.03687 c -0.214482,0 -0.264951,0.0381 -0.264951,0.26622 v 8.13448 c 0,0.22721 0.05047,0.26484 0.264951,0.26484 h 0.923319 c 0.214484,0 0.264954,-0.0376 0.264954,-0.26484 v -4.55477 c 0,-0.58151 -0.03785,-1.22715 -0.03785,-1.39105 h 0.02524 c 0.127315,0.5689 0.341799,1.01163 0.721452,1.72047 l 2.316893,4.31367 c 0.0757,0.1514 0.113551,0.17652 0.290187,0.17652 h 0.835005 c 0.2271,0 0.264952,-0.0376 0.264952,-0.26484 m -7.995587,-0.8342 c 0,-0.22721 -0.03785,-0.26529 -0.266097,-0.26529 h -2.70687 v -2.48161 h 2.150586 c 0.214485,0 0.266097,-0.0381 0.266097,-0.26529 v -0.83374 c 0,-0.22813 -0.039,-0.26621 -0.266097,-0.26621 h -2.150586 v -2.08877 h 2.453386 c 0.102084,0 0.239721,-0.0125 0.291335,-0.20152 l 0.240867,-0.84773 c 0.02524,-0.0883 0.0367,-0.11332 0.0367,-0.17652 0,-0.11378 -0.06309,-0.1389 -0.315421,-0.1389 h -4.148619 c -0.215633,0 -0.264954,0.0376 -0.264954,0.26484 v 8.13448 c 0,0.22814 0.04932,0.26621 0.264954,0.26621 h 4.161235 c 0.215632,0 0.253481,-0.0381 0.253481,-0.26621 m -9.350162,-3.58064 h 2.150582 c 0.215632,0 0.266101,-0.0376 0.266101,-0.26484 v -0.83511 c 0,-0.22722 -0.03785,-0.26484 -0.266101,-0.26484 H 8.697385 v -2.08876 h 2.454532 c 0.100934,0 0.240866,-0.0125 0.291331,-0.2029 l 0.23972,-0.84636 c 0.02523,-0.0888 0.03785,-0.11377 0.03785,-0.17697 0,-0.11333 -0.06308,-0.13844 -0.315418,-0.13844 H 7.256779 c -0.215632,0 -0.266097,0.0376 -0.266097,0.26483 v 8.13403 c 0,0.22721 0.05046,0.26529 0.266097,0.26529 h 1.188272 c 0.214482,0 0.252335,-0.0381 0.252335,-0.26529 m 45.420332,-0.24052 -1.883339,-3.37774 c 0.46682,-0.23972 1.440606,-0.70791 1.440606,-2.34018 0,-2.37723 -1.972805,-2.44042 -2.947736,-2.44042 h -2.048505 c -0.214482,0 -0.266097,0.0376 -0.266097,0.26483 v 8.13449 c 0,0.22721 0.05162,0.26483 0.266097,0.26483 h 1.175655 c 0.214484,0 0.264954,-0.0376 0.264954,-0.26483 v -3.315 h 0.607896 l 1.708999,3.40331 c 0.126167,0.23972 0.2271,0.39204 0.290185,0.39204 0.05047,0 0.127314,-0.0125 0.177781,-0.0251 l 1.062101,-0.30372 c 0.126169,-0.0381 0.252336,-0.0757 0.252336,-0.15152 0,-0.077 -0.06309,-0.17778 -0.100933,-0.24098 m -2.149436,-5.69233 c 0,1.16395 -0.696219,1.29127 -1.519751,1.29127 h -0.329176 v -2.43148 h 0.469111 c 0.658366,0 1.379818,0.0389 1.379818,1.14021" id="path76" style="fill:#ffffff;fill-opacity:1;fill-rule:nonzero;stroke:none;stroke-width:0.1146978"/>
		
  
	</g>
	

</svg>
