<?xml version="1.0" encoding="iso-8859-1"?>
<!DOCTYPE svg
  PUBLIC '-//W3C//DTD SVG 1.0//EN'
  'http://www.w3.org/TR/2001/REC-SVG-20010904/DTD/svg10.dtd'>
<!-- Created with Inkscape (http://www.inkscape.org/) by Steadfast-->
<svg height="273" id="svg3406" version="1.0" width="900" xmlns="http://www.w3.org/2000/svg" xmlns:svg="http://www.w3.org/2000/svg">
	
  
	<defs id="defs3408"/>
	
  
	<g id="layer1">
		
    
		<g id="g3453" transform="matrix(4.5005881,0,0,4.5005881,-810.16467,-690.66646)">
			
      
			<path animation_id="0" d="M 182.235,173.21825 L 182.235,211.8695 L 196.13375,204.362 L 196.13375,192.927 C 196.64375,192.652 214.25125,183.17825 214.25125,183.17825 L 214.25125,155.92825 L 182.235,173.21825 z M 213.25375,157.5995 L 213.25375,182.582 C 212.745,182.857 195.1375,192.33075 195.1375,192.33075 L 195.1375,203.767 C 194.665,204.02325 184.5125,209.507 183.2325,210.19825 L 183.2325,173.812 C 183.735,173.54075 211.865,158.35075 213.25375,157.5995" id="path381" style="fill:#00519e;fill-opacity:1;fill-rule:nonzero;stroke:none"/>
			
      
			<path animation_id="1" d="M 195.13375,171.23325 L 195.13375,188.3745 L 209.92375,180.46825 L 209.92375,163.3245 L 195.13375,171.23325 z" id="path383" style="fill:#00519e;fill-opacity:1;fill-rule:nonzero;stroke:none"/>
			
      
			<path animation_id="2" d="M 231.99625,183.58575 L 235.62,183.58575 L 235.62,172.452 L 243.93375,172.452 C 249.3475,172.49075 252.28375,169.4395 252.28375,164.407 C 252.28375,159.37325 249.3475,156.36075 243.93375,156.36075 L 231.99625,156.36075 L 231.99625,183.58575 z M 235.62,159.41075 L 242.71375,159.41075 C 246.7925,159.41075 248.66125,161.1645 248.66125,164.407 C 248.66125,167.647 246.7925,169.4395 242.71375,169.40075 L 235.62,169.40075 L 235.62,159.41075 z" id="path385" style="fill:#00519e;fill-opacity:1;fill-rule:evenodd;stroke:none"/>
			
      
			<path animation_id="3" d="M 276.335,156.36075 L 272.71,156.36075 L 272.71,173.7495 C 272.71,178.55325 270.19375,181.1845 265.62,181.1845 C 260.81375,181.1845 258.06875,178.55325 258.06875,173.7495 L 258.06875,156.36075 L 254.44625,156.36075 L 254.44625,173.7495 C 254.44625,180.992 258.6025,184.232 265.62,184.232 C 272.40625,184.232 276.335,180.61325 276.335,173.7495 L 276.335,156.36075 z" id="path387" style="fill:#00519e;fill-opacity:1;fill-rule:nonzero;stroke:none"/>
			
      
			<path animation_id="4" d="M 279.0525,183.58575 L 297.085,183.58575 L 297.085,180.537 L 282.67375,180.537 L 282.67375,156.36075 L 279.0525,156.36075 L 279.0525,183.58575 z" id="path389" style="fill:#00519e;fill-opacity:1;fill-rule:nonzero;stroke:none"/>
			
      
			<path animation_id="5" d="M 317.5975,164.3295 C 317.3675,158.34325 313.13625,155.712 307.5675,155.712 C 302.61125,155.712 297.6875,158.15325 297.6875,163.68075 C 297.6875,168.677 302.07875,169.93575 306.4225,170.8895 C 310.76875,171.842 315.11875,172.49075 315.11875,176.227 C 315.11875,180.1545 311.49375,181.1845 308.21375,181.1845 C 304.0975,181.1845 300.285,179.20075 300.285,174.62325 L 296.85125,174.62325 C 296.85125,181.2595 302.00125,184.232 308.09875,184.232 C 313.06,184.232 318.73875,181.9095 318.73875,176.11325 C 318.73875,170.77325 314.39375,169.24825 310.04375,168.25825 C 305.6625,167.26575 301.31375,166.76825 301.31375,163.4145 C 301.31375,159.86825 304.36375,158.76325 307.41375,158.76325 C 311.15,158.76325 313.74625,160.44075 314.16625,164.3295 L 317.5975,164.3295 z" id="path391" style="fill:#00519e;fill-opacity:1;fill-rule:nonzero;stroke:none"/>
			
      
			<path animation_id="6" d="M 321.3225,183.58575 L 324.94375,183.58575 L 324.94375,156.3595 L 321.3225,156.3595 L 321.3225,183.58575 z" id="path393" style="fill:#00519e;fill-opacity:1;fill-rule:nonzero;stroke:none"/>
			
      
			<path animation_id="7" d="M 327.4575,169.97325 C 327.4575,177.37075 331.84125,184.232 340.4975,184.232 C 349.15125,184.232 353.5375,177.37075 353.5375,169.97325 C 353.5375,162.577 349.15125,155.712 340.4975,155.712 C 331.84125,155.712 327.4575,162.577 327.4575,169.97325 M 331.0775,169.97325 C 331.0775,164.482 333.86125,158.76325 340.4975,158.76325 C 347.13,158.76325 349.9125,164.482 349.9125,169.97325 C 349.9125,175.4645 347.13,181.1845 340.4975,181.1845 C 333.86125,181.1845 331.0775,175.4645 331.0775,169.97325" id="path395" style="fill:#00519e;fill-opacity:1;fill-rule:evenodd;stroke:none"/>
			
      
			<path animation_id="8" d="M 355.895,183.58575 L 359.32375,183.58575 L 359.32375,161.737 L 359.4,161.737 L 373.62125,183.58575 L 377.58625,183.58575 L 377.58625,156.36075 L 374.155,156.36075 L 374.155,178.43825 L 374.08125,178.43825 L 359.74375,156.36075 L 355.895,156.36075 L 355.895,183.58575 z" id="path397" style="fill:#00519e;fill-opacity:1;fill-rule:nonzero;stroke:none"/>
			
      
			<path animation_id="9" d="M 232.07375,192.597 L 234.2725,192.597 L 238.0775,202.7445 L 241.9,192.597 L 244.0975,192.597 L 244.0975,204.67325 L 242.57625,204.67325 L 242.57625,194.627 L 242.5425,194.627 L 238.77,204.67325 L 237.40125,204.67325 L 233.63,194.627 L 233.595,194.627 L 233.595,204.67325 L 232.07375,204.67325 L 232.07375,192.597 z" id="path399" style="fill:#00519e;fill-opacity:1;fill-rule:nonzero;stroke:none"/>
			
      
			<path animation_id="10" d="M 255.17625,201.8995 C 254.78625,203.827 253.4,204.87575 251.4375,204.87575 C 248.6475,204.87575 247.32875,202.94825 247.24375,200.27575 C 247.24375,197.6545 248.96875,195.72575 251.35375,195.72575 C 254.44875,195.72575 255.395,198.61825 255.31125,200.73325 L 248.76625,200.73325 C 248.715,202.2545 249.5775,203.607 251.48875,203.607 C 252.6725,203.607 253.50125,203.03325 253.755,201.8995 L 255.17625,201.8995 z M 253.78875,199.46325 C 253.72125,198.0945 252.69,196.99575 251.26875,196.99575 C 249.76375,196.99575 248.8675,198.12825 248.76625,199.46325 L 253.78875,199.46325 z" id="path401" style="fill:#00519e;fill-opacity:1;fill-rule:nonzero;stroke:none"/>
			
      
			<path animation_id="11" d="M 266.0675,204.67325 L 264.63,204.67325 L 264.63,203.4895 L 264.595,203.4895 C 264.1225,204.45325 263.00625,204.87575 261.805,204.87575 C 259.11625,204.87575 257.78,202.7445 257.78,200.27575 C 257.78,197.807 259.09875,195.72575 261.77125,195.72575 C 262.6675,195.72575 263.9525,196.0645 264.595,197.097 L 264.63,197.097 L 264.63,192.597 L 266.0675,192.597 L 266.0675,204.67325 z M 262.0075,203.607 C 263.93625,203.607 264.68,201.9495 264.68,200.3095 C 264.68,198.5845 263.9025,196.99575 261.92375,196.99575 C 259.96125,196.99575 259.3025,198.6695 259.3025,200.37825 C 259.3025,202.01825 260.1475,203.607 262.0075,203.607" id="path403" style="fill:#00519e;fill-opacity:1;fill-rule:nonzero;stroke:none"/>
			
      
			<path animation_id="12" d="M 271.12375,194.357 L 269.68625,194.357 L 269.68625,192.59825 L 271.12375,192.59825 L 271.12375,194.357 z M 269.68625,195.9295 L 271.12375,195.9295 L 271.12375,204.67325 L 269.68625,204.67325 L 269.68625,195.9295 z" id="path405" style="fill:#00519e;fill-opacity:1;fill-rule:nonzero;stroke:none"/>
			
      
			<path animation_id="13" d="M 280.61125,198.737 C 280.39125,197.63825 279.63,196.99575 278.44625,196.99575 C 276.36625,196.99575 275.72375,198.63575 275.72375,200.41075 C 275.72375,202.01825 276.45125,203.607 278.2775,203.607 C 279.66375,203.607 280.4925,202.79575 280.67875,201.477 L 282.15,201.477 C 281.82875,203.607 280.4925,204.87575 278.29375,204.87575 C 275.6225,204.87575 274.20125,203.01575 274.20125,200.41075 C 274.20125,197.7895 275.555,195.72575 278.3275,195.72575 C 280.3075,195.72575 281.89625,196.657 282.1,198.737 L 280.61125,198.737 z" id="path407" style="fill:#00519e;fill-opacity:1;fill-rule:nonzero;stroke:none"/>
			
      
			<path animation_id="14" d="M 292.82125,204.6395 C 292.56875,204.79075 292.24625,204.87575 291.79,204.87575 C 291.04625,204.87575 290.5725,204.47075 290.5725,203.52325 C 289.7775,204.45325 288.7125,204.87575 287.49375,204.87575 C 285.905,204.87575 284.6025,204.16575 284.6025,202.4245 C 284.6025,200.4445 286.07375,200.022 287.5625,199.7345 C 289.1525,199.43075 290.505,199.532 290.505,198.4495 C 290.505,197.19825 289.47375,196.99575 288.56,196.99575 C 287.3425,196.99575 286.44625,197.367 286.37875,198.652 L 284.94125,198.652 C 285.025,196.487 286.7,195.72575 288.64375,195.72575 C 290.2175,195.72575 291.925,196.082 291.925,198.12825 L 291.925,202.627 C 291.925,203.30325 291.925,203.607 292.3825,203.607 C 292.50125,203.607 292.63625,203.59075 292.82125,203.52325 L 292.82125,204.6395 z M 290.4875,200.157 C 289.93,200.56325 288.8475,200.58075 287.88375,200.7495 C 286.93625,200.91825 286.125,201.257 286.125,202.32325 C 286.125,203.2695 286.93625,203.607 287.81625,203.607 C 289.71,203.607 290.4875,202.4245 290.4875,201.6295 L 290.4875,200.157 z" id="path409" style="fill:#00519e;fill-opacity:1;fill-rule:nonzero;stroke:none"/>
			
      
			<path animation_id="15" d="M 295.56125,192.597 L 296.99875,192.597 L 296.99875,204.672 L 295.56125,204.672 L 295.56125,192.597 z" id="path411" style="fill:#00519e;fill-opacity:1;fill-rule:nonzero;stroke:none"/>
			
      
			<path animation_id="16" d="M 313.76,196.167 C 313.57375,194.4495 312.42875,193.70825 310.7775,193.70825 C 309.43,193.70825 308.0825,194.19575 308.0825,195.762 C 308.0825,197.2445 310.0025,197.46325 311.94,197.902 C 313.86,198.3395 315.78,199.01325 315.78,201.372 C 315.78,203.932 313.27125,204.9595 311.08125,204.9595 C 308.38625,204.9595 306.1125,203.64575 306.1125,200.7145 L 307.62875,200.7145 C 307.62875,202.73575 309.3125,203.612 311.13125,203.612 C 312.58,203.612 314.18,203.157 314.18,201.422 C 314.18,199.77075 312.26,199.48575 310.34,199.0645 C 308.42,198.64325 306.4825,198.087 306.4825,195.88075 C 306.4825,193.43825 308.655,192.36075 310.845,192.36075 C 313.30375,192.36075 315.17375,193.52325 315.275,196.167 L 313.76,196.167 z" id="path413" style="fill:#00519e;fill-opacity:1;fill-rule:nonzero;stroke:none"/>
			
      
			<path animation_id="17" d="M 322.215,205.83575 C 321.5575,207.537 320.96875,208.1595 319.6875,208.1595 C 319.35125,208.1595 319.015,208.12575 318.69375,208.00825 L 318.69375,206.6945 C 318.96375,206.77825 319.25,206.897 319.53625,206.897 C 320.12625,206.897 320.44625,206.6095 320.71625,206.1045 L 321.305,204.62325 L 317.8525,195.96575 L 319.46875,195.96575 L 322.0125,203.0895 L 322.04625,203.0895 L 324.48875,195.96575 L 326.00375,195.96575 L 322.215,205.83575 z" id="path415" style="fill:#00519e;fill-opacity:1;fill-rule:nonzero;stroke:none"/>
			
      
			<path animation_id="18" d="M 329.40625,201.92825 C 329.4575,203.207 330.56875,203.612 331.7475,203.612 C 332.64125,203.612 333.85375,203.4095 333.85375,202.31575 C 333.85375,201.20325 332.43875,201.01825 331.0075,200.69825 C 329.5925,200.37825 328.16125,199.90575 328.16125,198.23825 C 328.16125,196.487 329.89625,195.762 331.41125,195.762 C 333.33125,195.762 334.865,196.3695 334.9825,198.492 L 333.55,198.492 C 333.44875,197.3795 332.4725,197.02575 331.52875,197.02575 C 330.67,197.02575 329.67625,197.262 329.67625,198.13825 C 329.67625,199.1645 331.1925,199.33325 332.5225,199.65325 C 333.955,199.97325 335.37,200.44575 335.37,202.1295 C 335.37,204.202 333.4325,204.87575 331.66375,204.87575 C 329.71,204.87575 328.06,204.08325 327.975,201.92825 L 329.40625,201.92825 z" id="path417" style="fill:#00519e;fill-opacity:1;fill-rule:nonzero;stroke:none"/>
			
      
			<path animation_id="19" d="M 340.255,195.96575 L 341.98875,195.96575 L 341.98875,197.22825 L 340.255,197.22825 L 340.255,202.6345 C 340.255,203.292 340.44,203.4095 341.3325,203.4095 L 341.98875,203.4095 L 341.98875,204.67325 L 340.89375,204.67325 C 339.4125,204.67325 338.8225,204.3695 338.8225,202.7695 L 338.8225,197.22825 L 337.34125,197.22825 L 337.34125,195.96575 L 338.8225,195.96575 L 338.8225,193.3545 L 340.255,193.3545 L 340.255,195.96575 z" id="path419" style="fill:#00519e;fill-opacity:1;fill-rule:nonzero;stroke:none"/>
			
      
			<path animation_id="20" d="M 352.315,201.91075 C 351.92625,203.83075 350.545,204.87575 348.59125,204.87575 C 345.8125,204.87575 344.49875,202.9545 344.415,200.29325 C 344.415,197.68325 346.1325,195.762 348.5075,195.762 C 351.59,195.762 352.53375,198.64325 352.44875,200.74825 L 345.93,200.74825 C 345.88,202.2645 346.73875,203.612 348.6425,203.612 C 349.82125,203.612 350.64625,203.0395 350.89875,201.91075 L 352.315,201.91075 z M 350.9325,199.48575 C 350.86625,198.12075 349.83875,197.02575 348.42375,197.02575 C 346.92375,197.02575 346.03125,198.1545 345.93,199.48575 L 350.9325,199.48575 z" id="path421" style="fill:#00519e;fill-opacity:1;fill-rule:nonzero;stroke:none"/>
			
      
			<path animation_id="21" d="M 355.245,195.96575 L 356.5925,195.96575 L 356.5925,197.2445 L 356.62625,197.2445 C 357.26625,196.26825 358.2425,195.762 359.43875,195.762 C 360.5,195.762 361.4775,196.1845 361.83125,197.2445 C 362.42,196.31825 363.4475,195.762 364.55875,195.762 C 366.29375,195.762 367.45625,196.487 367.45625,198.2895 L 367.45625,204.67325 L 366.025,204.67325 L 366.025,198.96325 C 366.025,197.88575 365.73875,197.02575 364.34,197.02575 C 362.95875,197.02575 362.06625,197.902 362.06625,199.2495 L 362.06625,204.67325 L 360.635,204.67325 L 360.635,198.96325 C 360.635,197.8345 360.28125,197.02575 359.00125,197.02575 C 357.3,197.02575 356.67625,198.592 356.67625,199.2495 L 356.67625,204.67325 L 355.245,204.67325 L 355.245,195.96575 z" id="path423" style="fill:#00519e;fill-opacity:1;fill-rule:nonzero;stroke:none"/>
			
      
			<path animation_id="22" d="M 371.8025,201.92825 C 371.8525,203.207 372.965,203.612 374.14375,203.612 C 375.03625,203.612 376.24875,203.4095 376.24875,202.31575 C 376.24875,201.20325 374.83375,201.01825 373.4025,200.69825 C 371.9875,200.37825 370.555,199.90575 370.555,198.23825 C 370.555,196.487 372.29125,195.762 373.80625,195.762 C 375.72625,195.762 377.25875,196.3695 377.3775,198.492 L 375.94625,198.492 C 375.845,197.3795 374.8675,197.02575 373.925,197.02575 C 373.06625,197.02575 372.07125,197.262 372.07125,198.13825 C 372.07125,199.1645 373.5875,199.33325 374.91875,199.65325 C 376.35,199.97325 377.765,200.44575 377.765,202.1295 C 377.765,204.202 375.8275,204.87575 374.06,204.87575 C 372.10625,204.87575 370.455,204.08325 370.37125,201.92825 L 371.8025,201.92825 z" id="path425" style="fill:#00519e;fill-opacity:1;fill-rule:nonzero;stroke:none"/>
			
      
			<path animation_id="23" d="M 232.07375,192.597 L 234.2725,192.597 L 238.0775,202.7445 L 241.9,192.597 L 244.0975,192.597 L 244.0975,204.67325 L 242.57625,204.67325 L 242.57625,194.627 L 242.5425,194.627 L 238.77,204.67325 L 237.40125,204.67325 L 233.63,194.627 L 233.595,194.627 L 233.595,204.67325 L 232.07375,204.67325 L 232.07375,192.597 z" id="path427" style="fill:#00519e;fill-opacity:1;fill-rule:nonzero;stroke:none"/>
			
      
			<path animation_id="24" d="M 255.17625,201.8995 C 254.78625,203.827 253.4,204.87575 251.4375,204.87575 C 248.6475,204.87575 247.32875,202.94825 247.24375,200.27575 C 247.24375,197.6545 248.96875,195.72575 251.35375,195.72575 C 254.44875,195.72575 255.395,198.61825 255.31125,200.73325 L 248.76625,200.73325 C 248.715,202.2545 249.5775,203.607 251.48875,203.607 C 252.6725,203.607 253.50125,203.03325 253.755,201.8995 L 255.17625,201.8995 z M 253.78875,199.46325 C 253.72125,198.0945 252.69,196.99575 251.26875,196.99575 C 249.76375,196.99575 248.8675,198.12825 248.76625,199.46325 L 253.78875,199.46325 z" id="path429" style="fill:#00519e;fill-opacity:1;fill-rule:nonzero;stroke:none"/>
			
      
			<path animation_id="25" d="M 266.0675,204.67325 L 264.63,204.67325 L 264.63,203.4895 L 264.595,203.4895 C 264.1225,204.45325 263.00625,204.87575 261.805,204.87575 C 259.11625,204.87575 257.78,202.7445 257.78,200.27575 C 257.78,197.807 259.09875,195.72575 261.77125,195.72575 C 262.6675,195.72575 263.9525,196.0645 264.595,197.097 L 264.63,197.097 L 264.63,192.597 L 266.0675,192.597 L 266.0675,204.67325 z M 262.0075,203.607 C 263.93625,203.607 264.68,201.9495 264.68,200.3095 C 264.68,198.5845 263.9025,196.99575 261.92375,196.99575 C 259.96125,196.99575 259.3025,198.6695 259.3025,200.37825 C 259.3025,202.01825 260.1475,203.607 262.0075,203.607" id="path431" style="fill:#00519e;fill-opacity:1;fill-rule:nonzero;stroke:none"/>
			
      
			<path animation_id="26" d="M 271.12375,194.357 L 269.68625,194.357 L 269.68625,192.59825 L 271.12375,192.59825 L 271.12375,194.357 z M 269.68625,195.9295 L 271.12375,195.9295 L 271.12375,204.67325 L 269.68625,204.67325 L 269.68625,195.9295 z" id="path433" style="fill:#00519e;fill-opacity:1;fill-rule:nonzero;stroke:none"/>
			
      
			<path animation_id="27" d="M 280.61125,198.737 C 280.39125,197.63825 279.63,196.99575 278.44625,196.99575 C 276.36625,196.99575 275.72375,198.63575 275.72375,200.41075 C 275.72375,202.01825 276.45125,203.607 278.2775,203.607 C 279.66375,203.607 280.4925,202.79575 280.67875,201.477 L 282.15,201.477 C 281.82875,203.607 280.4925,204.87575 278.29375,204.87575 C 275.6225,204.87575 274.20125,203.01575 274.20125,200.41075 C 274.20125,197.7895 275.555,195.72575 278.3275,195.72575 C 280.3075,195.72575 281.89625,196.657 282.1,198.737 L 280.61125,198.737 z" id="path435" style="fill:#00519e;fill-opacity:1;fill-rule:nonzero;stroke:none"/>
			
      
			<path animation_id="28" d="M 292.82125,204.6395 C 292.56875,204.79075 292.24625,204.87575 291.79,204.87575 C 291.04625,204.87575 290.5725,204.47075 290.5725,203.52325 C 289.7775,204.45325 288.7125,204.87575 287.49375,204.87575 C 285.905,204.87575 284.6025,204.16575 284.6025,202.4245 C 284.6025,200.4445 286.07375,200.022 287.5625,199.7345 C 289.1525,199.43075 290.505,199.532 290.505,198.4495 C 290.505,197.19825 289.47375,196.99575 288.56,196.99575 C 287.3425,196.99575 286.44625,197.367 286.37875,198.652 L 284.94125,198.652 C 285.025,196.487 286.7,195.72575 288.64375,195.72575 C 290.2175,195.72575 291.925,196.082 291.925,198.12825 L 291.925,202.627 C 291.925,203.30325 291.925,203.607 292.3825,203.607 C 292.50125,203.607 292.63625,203.59075 292.82125,203.52325 L 292.82125,204.6395 z M 290.4875,200.157 C 289.93,200.56325 288.8475,200.58075 287.88375,200.7495 C 286.93625,200.91825 286.125,201.257 286.125,202.32325 C 286.125,203.2695 286.93625,203.607 287.81625,203.607 C 289.71,203.607 290.4875,202.4245 290.4875,201.6295 L 290.4875,200.157 z" id="path437" style="fill:#00519e;fill-opacity:1;fill-rule:nonzero;stroke:none"/>
			
      
			<path animation_id="29" d="M 295.56125,192.597 L 296.99875,192.597 L 296.99875,204.672 L 295.56125,204.672 L 295.56125,192.597 z" id="path439" style="fill:#00519e;fill-opacity:1;fill-rule:nonzero;stroke:none"/>
			
      
			<path animation_id="30" d="M 313.76,196.167 C 313.57375,194.4495 312.42875,193.70825 310.7775,193.70825 C 309.43,193.70825 308.0825,194.19575 308.0825,195.762 C 308.0825,197.2445 310.0025,197.46325 311.94,197.902 C 313.86,198.3395 315.78,199.01325 315.78,201.372 C 315.78,203.932 313.27125,204.9595 311.08125,204.9595 C 308.38625,204.9595 306.1125,203.64575 306.1125,200.7145 L 307.62875,200.7145 C 307.62875,202.73575 309.3125,203.612 311.13125,203.612 C 312.58,203.612 314.18,203.157 314.18,201.422 C 314.18,199.77075 312.26,199.48575 310.34,199.0645 C 308.42,198.64325 306.4825,198.087 306.4825,195.88075 C 306.4825,193.43825 308.655,192.36075 310.845,192.36075 C 313.30375,192.36075 315.17375,193.52325 315.275,196.167 L 313.76,196.167 z" id="path441" style="fill:#00519e;fill-opacity:1;fill-rule:nonzero;stroke:none"/>
			
      
			<path animation_id="31" d="M 322.215,205.83575 C 321.5575,207.537 320.96875,208.1595 319.6875,208.1595 C 319.35125,208.1595 319.015,208.12575 318.69375,208.00825 L 318.69375,206.6945 C 318.96375,206.77825 319.25,206.897 319.53625,206.897 C 320.12625,206.897 320.44625,206.6095 320.71625,206.1045 L 321.305,204.62325 L 317.8525,195.96575 L 319.46875,195.96575 L 322.0125,203.0895 L 322.04625,203.0895 L 324.48875,195.96575 L 326.00375,195.96575 L 322.215,205.83575 z" id="path443" style="fill:#00519e;fill-opacity:1;fill-rule:nonzero;stroke:none"/>
			
      
			<path animation_id="32" d="M 329.40625,201.92825 C 329.4575,203.207 330.56875,203.612 331.7475,203.612 C 332.64125,203.612 333.85375,203.4095 333.85375,202.31575 C 333.85375,201.20325 332.43875,201.01825 331.0075,200.69825 C 329.5925,200.37825 328.16125,199.90575 328.16125,198.23825 C 328.16125,196.487 329.89625,195.762 331.41125,195.762 C 333.33125,195.762 334.865,196.3695 334.9825,198.492 L 333.55,198.492 C 333.44875,197.3795 332.4725,197.02575 331.52875,197.02575 C 330.67,197.02575 329.67625,197.262 329.67625,198.13825 C 329.67625,199.1645 331.1925,199.33325 332.5225,199.65325 C 333.955,199.97325 335.37,200.44575 335.37,202.1295 C 335.37,204.202 333.4325,204.87575 331.66375,204.87575 C 329.71,204.87575 328.06,204.08325 327.975,201.92825 L 329.40625,201.92825 z" id="path445" style="fill:#00519e;fill-opacity:1;fill-rule:nonzero;stroke:none"/>
			
      
			<path animation_id="33" d="M 340.255,195.96575 L 341.98875,195.96575 L 341.98875,197.22825 L 340.255,197.22825 L 340.255,202.6345 C 340.255,203.292 340.44,203.4095 341.3325,203.4095 L 341.98875,203.4095 L 341.98875,204.67325 L 340.89375,204.67325 C 339.4125,204.67325 338.8225,204.3695 338.8225,202.7695 L 338.8225,197.22825 L 337.34125,197.22825 L 337.34125,195.96575 L 338.8225,195.96575 L 338.8225,193.3545 L 340.255,193.3545 L 340.255,195.96575 z" id="path447" style="fill:#00519e;fill-opacity:1;fill-rule:nonzero;stroke:none"/>
			
      
			<path animation_id="34" d="M 352.315,201.91075 C 351.92625,203.83075 350.545,204.87575 348.59125,204.87575 C 345.8125,204.87575 344.49875,202.9545 344.415,200.29325 C 344.415,197.68325 346.1325,195.762 348.5075,195.762 C 351.59,195.762 352.53375,198.64325 352.44875,200.74825 L 345.93,200.74825 C 345.88,202.2645 346.73875,203.612 348.6425,203.612 C 349.82125,203.612 350.64625,203.0395 350.89875,201.91075 L 352.315,201.91075 z M 350.9325,199.48575 C 350.86625,198.12075 349.83875,197.02575 348.42375,197.02575 C 346.92375,197.02575 346.03125,198.1545 345.93,199.48575 L 350.9325,199.48575 z" id="path449" style="fill:#00519e;fill-opacity:1;fill-rule:nonzero;stroke:none"/>
			
      
			<path animation_id="35" d="M 355.245,195.96575 L 356.5925,195.96575 L 356.5925,197.2445 L 356.62625,197.2445 C 357.26625,196.26825 358.2425,195.762 359.43875,195.762 C 360.5,195.762 361.4775,196.1845 361.83125,197.2445 C 362.42,196.31825 363.4475,195.762 364.55875,195.762 C 366.29375,195.762 367.45625,196.487 367.45625,198.2895 L 367.45625,204.67325 L 366.025,204.67325 L 366.025,198.96325 C 366.025,197.88575 365.73875,197.02575 364.34,197.02575 C 362.95875,197.02575 362.06625,197.902 362.06625,199.2495 L 362.06625,204.67325 L 360.635,204.67325 L 360.635,198.96325 C 360.635,197.8345 360.28125,197.02575 359.00125,197.02575 C 357.3,197.02575 356.67625,198.592 356.67625,199.2495 L 356.67625,204.67325 L 355.245,204.67325 L 355.245,195.96575 z" id="path451" style="fill:#00519e;fill-opacity:1;fill-rule:nonzero;stroke:none"/>
			
      
			<path animation_id="36" d="M 371.8025,201.92825 C 371.8525,203.207 372.965,203.612 374.14375,203.612 C 375.03625,203.612 376.24875,203.4095 376.24875,202.31575 C 376.24875,201.20325 374.83375,201.01825 373.4025,200.69825 C 371.9875,200.37825 370.555,199.90575 370.555,198.23825 C 370.555,196.487 372.29125,195.762 373.80625,195.762 C 375.72625,195.762 377.25875,196.3695 377.3775,198.492 L 375.94625,198.492 C 375.845,197.3795 374.8675,197.02575 373.925,197.02575 C 373.06625,197.02575 372.07125,197.262 372.07125,198.13825 C 372.07125,199.1645 373.5875,199.33325 374.91875,199.65325 C 376.35,199.97325 377.765,200.44575 377.765,202.1295 C 377.765,204.202 375.8275,204.87575 374.06,204.87575 C 372.10625,204.87575 370.455,204.08325 370.37125,201.92825 L 371.8025,201.92825 z" id="path453" style="fill:#00519e;fill-opacity:1;fill-rule:nonzero;stroke:none"/>
			
    
		</g>
		
  
	</g>
	

</svg>
