<?xml version="1.0" encoding="iso-8859-1"?>
<!-- Created with Inkscape (http://www.inkscape.org/) -->
<svg height="805.21655" id="svg3623" version="1.1" width="1047.5403" xmlns="http://www.w3.org/2000/svg" xmlns:cc="http://creativecommons.org/ns#" xmlns:dc="http://purl.org/dc/elements/1.1/" xmlns:rdf="http://www.w3.org/1999/02/22-rdf-syntax-ns#" xmlns:svg="http://www.w3.org/2000/svg">
	
  
	<defs id="defs3625">
		
    
		<clipPath id="clipPath3447">
			
      
			<path animation_id="0" d="m 99.779,710.824 81.496,0 0,47.208 -81.496,0 0,-47.208 z" id="path3449"/>
			
    
		</clipPath>
		
  
	</defs>
	
  
	<metadata id="metadata3628">
		
    
		<rdf:RDF>
			
      
			<cc:Work rdf:about="">
				
        
				<dc:format>image/svg+xml</dc:format>
				
        
				<dc:type rdf:resource="http://purl.org/dc/dcmitype/StillImage"/>
				
        
				<dc:title/>
				
      
			</cc:Work>
			
    
		</rdf:RDF>
		
  
	</metadata>
	
  
	<g id="layer1" transform="translate(-143.67223,185.13786)">
		
    
		<g id="g3443" transform="matrix(27.236876,0,0,-27.236876,-3173.5972,20222.486)">
			
      
			<g clip-path="url(#clipPath3447)" id="g3445">
				
        
				<g id="g3451" transform="translate(123.9195,745.1021)">
					
          
					<path animation_id="1" d="m 0,0 2.025,0 c 0.908,0 1.448,0.331 1.448,1.105 0,0.858 -0.393,1.214 -1.412,1.214 L 0,2.319 0,0 z m 2.491,3.902 c 1.964,0 2.896,-1.092 2.896,-2.527 0,-1.743 -1.276,-2.713 -2.773,-2.885 l 2.92,-3.423 -2.429,0 -2.615,3.423 -0.49,0 0,-3.423 -1.866,0 0,8.835 4.357,0 z" id="path3453" style="fill:#041e38;fill-opacity:1;fill-rule:nonzero;stroke:none"/>
					
        
				</g>
				
        
				<g id="g3455" transform="translate(136.8043,749.0043)">
					
          
					<path animation_id="2" d="m 0,0 0,-1.62 -2.602,0 0,-7.215 -1.938,0 0,7.215 -2.614,0 0,1.62 L 0,0 z" id="path3457" style="fill:#041e38;fill-opacity:1;fill-rule:nonzero;stroke:none"/>
					
        
				</g>
				
        
				<g id="g3459" transform="translate(139.5524,749.0043)">
					
          
					<path animation_id="3" d="m 0,0 0,-7.203 4.368,0 0,-1.632 -6.282,0 0,8.835 L 0,0 z" id="path3461" style="fill:#041e38;fill-opacity:1;fill-rule:nonzero;stroke:none"/>
					
        
				</g>
				
        
				<path animation_id="4" d="m 124.005,729.483 -1.902,0 0,8.836 1.902,0 0,-8.836 z" id="path3463" style="fill:#3e1f70;fill-opacity:1;fill-rule:nonzero;stroke:none"/>
				
        
				<g id="g3465" transform="translate(128.6605,738.3186)">
					
          
					<path animation_id="5" d="m 0,0 3.436,-6.075 0,6.075 1.767,0 0,-8.836 -1.889,0 -3.51,6.186 0,-6.186 -1.78,0 0,8.836 L 0,0 z" id="path3467" style="fill:#3e1f70;fill-opacity:1;fill-rule:nonzero;stroke:none"/>
					
        
				</g>
				
        
				<g id="g3469" transform="translate(142.7639,738.3186)">
					
          
					<path animation_id="6" d="m 0,0 0,-1.62 -2.601,0 0,-7.216 -1.939,0 0,7.216 -2.614,0 0,1.62 L 0,0 z" id="path3471" style="fill:#3e1f70;fill-opacity:1;fill-rule:nonzero;stroke:none"/>
					
        
				</g>
				
        
				<g id="g3473" transform="translate(150.7579,738.3186)">
					
          
					<path animation_id="7" d="m 0,0 0,-1.62 -4.601,0 0,-1.791 4.221,0 0,-1.584 -4.221,0 0,-2.208 4.834,0 0,-1.633 -6.7,0 0,8.836 L 0,0 z" id="path3475" style="fill:#3e1f70;fill-opacity:1;fill-rule:nonzero;stroke:none"/>
					
        
				</g>
				
        
				<g id="g3477" transform="translate(154.4585,734.416)">
					
          
					<path animation_id="8" d="M 0,0 2.025,0 C 2.933,0 3.473,0.332 3.473,1.105 3.473,1.964 3.08,2.32 2.062,2.32 L 0,2.32 0,0 z m 2.491,3.903 c 1.964,0 2.896,-1.092 2.896,-2.528 0,-1.743 -1.276,-2.712 -2.773,-2.884 l 2.921,-3.424 -2.431,0 -2.612,3.424 -0.492,0 0,-3.424 -1.865,0 0,8.836 4.356,0 z" id="path3479" style="fill:#3e1f70;fill-opacity:1;fill-rule:nonzero;stroke:none"/>
					
        
				</g>
				
        
				<g id="g3481" transform="translate(129.4428,723.9722)">
					
          
					<path animation_id="9" d="m 0,0 c 0,2.6 1.315,4.091 3.608,4.091 2.084,0 3.096,-1.241 3.217,-2.523 l -1.429,0 C 5.173,2.465 4.556,2.934 3.53,2.934 c -1.298,0 -2.072,-1.101 -2.072,-2.945 0,-2.629 1.595,-2.833 2.084,-2.833 0.954,0 1.623,0.544 1.842,1.445 l 1.413,0 C 6.65,-2.447 5.845,-4.011 3.575,-4.011 1.337,-4.011 0,-2.512 0,0" id="path3483" style="fill:#3e1f70;fill-opacity:1;fill-rule:nonzero;stroke:none"/>
					
        
				</g>
				
        
				<g id="g3485" transform="translate(143.1725,727.9171)">
					
          
					<path animation_id="10" d="m 0,0 0,-1.144 -2.375,0 0,-6.589 -1.435,0 0,6.589 -2.387,0 0,1.144 L 0,0 z" id="path3487" style="fill:#3e1f70;fill-opacity:1;fill-rule:nonzero;stroke:none"/>
					
        
				</g>
				
        
				<path animation_id="11" d="m 145.71,720.184 -1.402,0 0,7.733 1.402,0 0,-7.733 z" id="path3489" style="fill:#3e1f70;fill-opacity:1;fill-rule:nonzero;stroke:none"/>
				
        
				<g id="g3491" transform="translate(153.2285,727.9171)">
					
          
					<path animation_id="12" d="m 0,0 c -0.14,-0.413 -2.548,-7.518 -2.62,-7.733 l -1.395,0 C -4.087,-7.516 -6.466,-0.412 -6.603,0 l 1.5,0 c 0.066,-0.235 1.816,-6.499 1.816,-6.499 0,0 1.788,6.265 1.854,6.499 L 0,0 z" id="path3493" style="fill:#3e1f70;fill-opacity:1;fill-rule:nonzero;stroke:none"/>
					
        
				</g>
				
        
				<g id="g3495" transform="translate(159.6797,727.9171)">
					
          
					<path animation_id="13" d="m 0,0 0,-1.144 -4.202,0 0,-1.971 3.854,0 0,-1.11 -3.854,0 0,-2.352 4.414,0 0,-1.156 -5.783,0 0,7.733 L 0,0 z" id="path3497" style="fill:#3e1f70;fill-opacity:1;fill-rule:nonzero;stroke:none"/>
					
        
				</g>
				
        
				<g id="g3499" transform="translate(126.9217,724.3337)">
					
          
					<path animation_id="14" d="m 0,0 -3.45,0 0,2.432 2.03,0 c 0.972,0 1.411,-0.379 1.425,-1.232 L 0,0 z m -1.031,3.526 -3.769,0 0,-7.648 1.35,0 0,3.091 3.471,0.019 0,-3.127 1.351,0 c 0,0.317 0.003,5.998 0.003,5.998 -0.193,1.075 -1.047,1.667 -2.406,1.667" id="path3501" style="fill:#3e1f70;fill-opacity:1;fill-rule:nonzero;stroke:none"/>
					
        
				</g>
				
        
				<path animation_id="15" d="m 152.99,744.986 -1.615,0 0,1.615 1.615,0 0,-1.615 z" id="path3503" style="fill:#041e38;fill-opacity:1;fill-rule:nonzero;stroke:none"/>
				
        
				<path animation_id="16" d="m 157.404,744.986 -1.615,0 0,1.615 1.615,0 0,-1.615 z" id="path3505" style="fill:#a5936f;fill-opacity:1;fill-rule:nonzero;stroke:none"/>
				
        
				<path animation_id="17" d="m 150.783,744.986 -1.615,0 0,1.615 1.615,0 0,-1.615 z" id="path3507" style="fill:#3e1f70;fill-opacity:1;fill-rule:nonzero;stroke:none"/>
				
        
				<path animation_id="18" d="m 148.576,744.986 -1.615,0 0,1.615 1.615,0 0,-1.615 z" id="path3509" style="fill:#a5936f;fill-opacity:1;fill-rule:nonzero;stroke:none"/>
				
        
				<path animation_id="19" d="m 159.612,744.986 -1.615,0 0,1.615 1.615,0 0,-1.615 z" id="path3511" style="fill:#041e38;fill-opacity:1;fill-rule:nonzero;stroke:none"/>
				
        
				<path animation_id="20" d="m 152.99,742.583 -1.615,0 0,1.615 1.615,0 0,-1.615 z" id="path3513" style="fill:#a5936f;fill-opacity:1;fill-rule:nonzero;stroke:none"/>
				
        
				<path animation_id="21" d="m 148.576,742.583 -1.615,0 0,1.615 1.615,0 0,-1.615 z" id="path3515" style="fill:#3e1f70;fill-opacity:1;fill-rule:nonzero;stroke:none"/>
				
        
				<path animation_id="22" d="m 159.612,742.583 -1.615,0 0,1.615 1.615,0 0,-1.615 z" id="path3517" style="fill:#3e1f70;fill-opacity:1;fill-rule:nonzero;stroke:none"/>
				
        
				<path animation_id="23" d="m 155.197,742.583 -1.615,0 0,1.615 1.615,0 0,-1.615 z" id="path3519" style="fill:#3e1f70;fill-opacity:1;fill-rule:nonzero;stroke:none"/>
				
        
				<path animation_id="24" d="m 157.404,747.387 -1.615,0 0,1.615 1.615,0 0,-1.615 z" id="path3521" style="fill:#3e1f70;fill-opacity:1;fill-rule:nonzero;stroke:none"/>
				
        
				<path animation_id="25" d="m 150.783,747.387 -1.615,0 0,1.615 1.615,0 0,-1.615 z" id="path3523" style="fill:#a5936f;fill-opacity:1;fill-rule:nonzero;stroke:none"/>
				
        
				<path animation_id="26" d="m 146.368,747.387 -1.615,0 0,1.615 1.615,0 0,-1.615 z" id="path3525" style="fill:#a5936f;fill-opacity:1;fill-rule:nonzero;stroke:none"/>
				
        
				<path animation_id="27" d="m 146.368,742.583 -1.615,0 0,1.615 1.615,0 0,-1.615 z" id="path3527" style="fill:#a5936f;fill-opacity:1;fill-rule:nonzero;stroke:none"/>
				
        
				<path animation_id="28" d="m 148.576,747.387 -1.615,0 0,1.615 1.615,0 0,-1.615 z" id="path3529" style="fill:#3e1f70;fill-opacity:1;fill-rule:nonzero;stroke:none"/>
				
        
				<path animation_id="29" d="m 159.612,747.387 -1.615,0 0,1.615 1.615,0 0,-1.615 z" id="path3531" style="fill:#a5936f;fill-opacity:1;fill-rule:nonzero;stroke:none"/>
				
        
				<path animation_id="30" d="m 155.197,747.387 -1.615,0 0,1.615 1.615,0 0,-1.615 z" id="path3533" style="fill:#a5936f;fill-opacity:1;fill-rule:nonzero;stroke:none"/>
				
        
				<path animation_id="31" d="m 157.404,740.182 -1.615,0 0,1.615 1.615,0 0,-1.615 z" id="path3535" style="fill:#a5936f;fill-opacity:1;fill-rule:nonzero;stroke:none"/>
				
        
				<path animation_id="32" d="m 150.783,740.182 -1.615,0 0,1.615 1.615,0 0,-1.615 z" id="path3537" style="fill:#a5936f;fill-opacity:1;fill-rule:nonzero;stroke:none"/>
				
        
				<path animation_id="33" d="m 148.576,740.182 -1.615,0 0,1.615 1.615,0 0,-1.615 z" id="path3539" style="fill:#041e38;fill-opacity:1;fill-rule:nonzero;stroke:none"/>
				
        
				<path animation_id="34" d="m 155.197,740.182 -1.615,0 0,1.615 1.615,0 0,-1.615 z" id="path3541" style="fill:#041e38;fill-opacity:1;fill-rule:nonzero;stroke:none"/>
				
      
			</g>
			
    
		</g>
		
  
	</g>
	

</svg>
