<?xml version="1.0" encoding="iso-8859-1"?>
<!-- Created with Inkscape (http://www.inkscape.org/) -->
<svg height="800" id="svg2" version="1.1" width="800" xmlns="http://www.w3.org/2000/svg" xmlns:cc="http://creativecommons.org/ns#" xmlns:dc="http://purl.org/dc/elements/1.1/" xmlns:rdf="http://www.w3.org/1999/02/22-rdf-syntax-ns#" xmlns:svg="http://www.w3.org/2000/svg">
	
  
	<defs id="defs4"/>
	
  
	<metadata id="metadata7">
		
    
		<rdf:RDF>
			
      
			<cc:Work rdf:about="">
				
        
				<dc:format>image/svg+xml</dc:format>
				
        
				<dc:type rdf:resource="http://purl.org/dc/dcmitype/StillImage"/>
				
        
				<dc:title/>
				
      
			</cc:Work>
			
    
		</rdf:RDF>
		
  
	</metadata>
	
  
	<g id="layer1" transform="translate(0,-252)">
		
    
		<rect animation_id="1" height="522.2" id="rect3892-6" style="fill:#ffffff;stroke:#000000;stroke-width:20.7288;stroke-linecap:round;stroke-linejoin:miter;stroke-miterlimit:4;stroke-opacity:1;stroke-dasharray:none;stroke-dashoffset:0" transform="matrix(0.7071,0.7071,-0.7071,0.7071,0,0)" width="522.2" x="479.8" y="-79.65"/>
		
    
		<rect animation_id="2" height="444.2" id="rect3892" style="fill:#000000;stroke:none" transform="matrix(0.7071,0.7071,-0.7071,0.7071,0,0)" width="444.2" x="518.8" y="-40.56"/>
		
    
		<g id="text3912" style="font-size:63.9676px;font-style:normal;font-variant:normal;font-weight:bold;font-stretch:normal;text-align:start;line-height:100%;letter-spacing:0px;word-spacing:0px;writing-mode:lr-tb;text-anchor:start;fill:#00ff00;fill-opacity:1;stroke:none;font-family:Arial;-inkscape-font-specification:Arial Bold" transform="matrix(1.475,0,0,1.487,488.9,204.1)">
			
      
			<path animation_id="0" d="m -153,-557.3 0,45.9 9.2,0 0,-19.2 1.9,0 c 2.1,0 3.7,0.2 4.7,0.5 0.8,0.4 1.8,1 2.6,1.9 0.9,1 2.5,3.2 4.9,6.8 l 6.7,10 11.1,0 -5.6,-9 c -2.2,-3.6 -4,-6 -5.3,-7.4 -1.3,-1.4 -3,-2.7 -5,-3.9 4.1,-0.6 7.1,-2 9.1,-4.2 2,-2.2 2.9,-5.2 2.9,-8.6 0,-2.7 -0.5,-5.1 -1.9,-7.2 -1.3,-2.1 -3.1,-3.6 -5.3,-4.4 -2.2,-0.8 -5.8,-1.2 -10.7,-1.2 l -19.3,0 z m 45.9,0 0,24.5 c 0,5.1 0.3,9 0.9,11.6 0.4,1.8 1.3,3.5 2.6,5.1 1.3,1.6 3.1,2.9 5.35,3.9 2.25,1 5.58,1.6 9.94,1.6 3.61,0 6.51,-0.4 8.75,-1.4 2.24,-0.9 4.04,-2.1 5.37,-3.8 1.34,-1.6 2.25,-3.5 2.75,-5.7 0.5,-2.3 0.75,-6.2 0.75,-11.7 l 0,-24.1 -9.19,0 0,25.4 c 0,3.6 -0.16,6.2 -0.43,7.8 -0.27,1.5 -1.05,2.8 -2.38,3.9 -1.33,1.1 -3.28,1.6 -5.9,1.6 -2.57,0 -4.62,-0.5 -6.1,-1.7 -1.48,-1.1 -2.42,-2.6 -2.81,-4.5 -0.23,-1.2 -0.34,-3.7 -0.34,-7.7 l 0,-24.8 -9.26,0 z m 46.19,0 0,45.9 9.22,0 0,-20.1 18.03,0 0,20.1 9.22,0 0,-45.9 -9.22,0 0,18.1 -18.03,0 0,-18.1 -9.22,0 z m 46.03,0 0,45.9 9.224,0 0,-19.2 1.844,0 c 2.114,0 3.6811,0.2 4.6558,0.5 0.9752,0.4 1.8782,1 2.7502,1.9 0.87,1 2.511,3.2 4.875,6.8 l 6.651,10 11,0 -5.56,-9 c -2.19,-3.6 -3.95,-6 -5.25,-7.4 -1.29,-1.4 -2.95,-2.7 -4.93,-3.9 3.99,-0.6 7.01,-2 9.03,-4.2 2.01,-2.2 3.03,-5.2 3.03,-8.6 0,-2.7 -0.68,-5.1 -2,-7.2 -1.34,-2.1 -3.1,-3.6 -5.32,-4.4 -2.2,-0.8 -5.747,-1.2 -10.62,-1.2 l -19.38,0 z m -128.92,7.7 7.1,0 c 3.8,0 6,0 6.8,0.2 1.5,0.2 2.7,0.8 3.5,1.7 0.8,1 1.2,2.2 1.2,3.8 0,1.4 -0.3,2.5 -0.9,3.4 -0.7,0.9 -1.5,1.7 -2.6,2.1 -1.1,0.3 -3.9,0.5 -8.2,0.5 l -6.9,0 0,-11.7 z m 138.144,0 7.187,0 c 3.733,0 5.972,0 6.719,0.2 1.493,0.2 2.64,0.8 3.47,1.7 0.82,1 1.22,2.2 1.22,3.8 0,1.4 -0.31,2.5 -0.94,3.4 -0.62,0.9 -1.47,1.7 -2.562,2.1 -1.1,0.3 -3.863,0.5 -8.282,0.5 l -6.812,0 0,-11.7 z m -147.844,47.5 0,158.3 29.2,0 0,-121.5 121.3,121.5 31.34,0 0,-158.3 -30.809,0 0,113.9 -113.731,-113.9 -37.3,0 z" id="path3924" style="fill:#ffffff" transform="matrix(1.004,0,0,0.996,0,749)"/>
			
    
		</g>
		
    
		<g id="text3916" style="font-size:267.0626px;font-style:normal;font-variant:normal;font-weight:normal;font-stretch:normal;text-align:start;line-height:100%;letter-spacing:0px;word-spacing:0px;writing-mode:lr-tb;text-anchor:start;fill:#00ff00;fill-opacity:1;stroke:none;font-family:Arial;-inkscape-font-specification:Arial" transform="scale(1.208,0.828)"/>
		
  
	</g>
	

</svg>
