<?xml version="1.0" encoding="iso-8859-1"?>
<svg height="73.262527pt" id="svg9044" inkscape:version="1.0 (4035a4fb49, 2020-05-01)" sodipodi:docname="Tönnies Logo 4.2020.svg" version="1.2" viewBox="0 0 300.00001 73.262528" width="300pt" xmlns="http://www.w3.org/2000/svg" xmlns:cc="http://creativecommons.org/ns#" xmlns:dc="http://purl.org/dc/elements/1.1/" xmlns:inkscape="http://www.inkscape.org/namespaces/inkscape" xmlns:rdf="http://www.w3.org/1999/02/22-rdf-syntax-ns#" xmlns:sodipodi="http://sodipodi.sourceforge.net/DTD/sodipodi-0.dtd" xmlns:svg="http://www.w3.org/2000/svg">
	
  
	<metadata id="metadata9048">
		
    
		<rdf:RDF>
			
      
			<cc:Work rdf:about="">
				
        
				<dc:format>image/svg+xml</dc:format>
				
        
				<dc:type rdf:resource="http://purl.org/dc/dcmitype/StillImage"/>
				
        
				<dc:title/>
				
      
			</cc:Work>
			
    
		</rdf:RDF>
		
  
	</metadata>
	
  
	<sodipodi:namedview bordercolor="#666666" borderopacity="1" fit-margin-bottom="0" fit-margin-left="0" fit-margin-right="0" fit-margin-top="0" gridtolerance="10" guidetolerance="10" id="namedview9046" inkscape:current-layer="svg9044" inkscape:cx="199.99269" inkscape:cy="34.793407" inkscape:pageopacity="0" inkscape:pageshadow="2" inkscape:window-height="837" inkscape:window-maximized="1" inkscape:window-width="1600" inkscape:window-x="-8" inkscape:window-y="-8" inkscape:zoom="2.7229281" objecttolerance="10" pagecolor="#ffffff" showgrid="false"/>
	
  
	<defs id="defs1731"/>
	
  
	<path animation_id="0" d="M 43.575786,51.41198 H 36.035509 V 16.59299 H 22.763306 V 10.2802 h 34.073721 v 6.31279 H 43.575786 Z M 89.946301,30.84062 c 0,-2.49883 -0.29592,-4.70171 -0.93158,-6.55391 -0.59182,-1.86315 -1.4686,-3.43037 -2.55361,-4.70171 -1.07405,-1.22749 -2.38922,-2.15906 -3.86878,-2.79472 -1.51244,-0.59183 -3.12351,-0.93157 -4.94282,-0.93157 -1.76452,0 -3.37559,0.33974 -4.89899,0.93157 -1.51244,0.63566 -2.78377,1.56723 -3.85782,2.79472 -1.08501,1.27134 -1.96178,2.83856 -2.55361,4.70171 -0.63566,1.8522 -0.93157,4.05508 -0.93157,6.55391 0,2.49879 0.29591,4.70171 0.93157,6.56485 0.59183,1.90699 1.4686,3.4304 2.55361,4.70171 1.07405,1.21654 2.34538,2.14811 3.85782,2.78377 1.5234,0.64663 3.13447,0.93157 4.89899,0.93157 1.81931,0 3.43038,-0.28494 4.94282,-0.93157 1.47956,-0.63566 2.79473,-1.56723 3.86878,-2.78377 1.08501,-1.27131 1.96179,-2.79472 2.55361,-4.70171 0.63566,-1.86314 0.93158,-4.06606 0.93158,-6.56485 m 7.78139,0 c 0,3.13448 -0.43839,6.02784 -1.32613,8.62529 -0.93157,2.64127 -2.2029,4.88803 -3.91261,6.75118 -1.70972,1.90699 -3.82494,3.37557 -6.31279,4.40579 -2.49881,1.03022 -5.33738,1.56723 -8.52665,1.56723 -3.13448,0 -5.97304,-0.53701 -8.47185,-1.56723 -2.49882,-1.03022 -4.60308,-2.4988 -6.31279,-4.40579 -1.70972,-1.86315 -2.992003,-4.10991 -3.912619,-6.75118 -0.887738,-2.59745 -1.326126,-5.49081 -1.326126,-8.62529 0,-3.13449 0.438388,-6.01688 1.326126,-8.61432 0.920616,-2.59745 2.202899,-4.84422 3.912619,-6.76215 1.70971,-1.8522 3.81397,-3.32078 6.31279,-4.4058 2.49881,-1.03022 5.33737,-1.51243 8.47185,-1.51243 3.18927,0 6.02784,0.48221 8.52665,1.51243 2.48785,1.08502 4.60307,2.5536 6.31279,4.4058 1.70971,1.91793 2.98104,4.1647 3.91261,6.76215 0.88774,2.59744 1.32613,5.47983 1.32613,8.61432 M 68.004971,0 h 6.84981 v 6.90462 h -6.84981 z m 12.63654,0 h 6.90461 v 6.90462 h -6.90461 z m 45.921159,29.4268 c 2.992,4.20853 5.39217,7.92387 7.20052,11.157 h 0.19727 c -0.24112,-5.33739 -0.39455,-9.20615 -0.39455,-11.65018 V 10.2802 h 7.54028 v 41.13178 h -7.88003 L 119.81148,32.46264 c -2.34538,-3.2331 -4.80035,-7.05804 -7.29916,-11.40904 h -0.19727 c 0.25206,5.08531 0.39455,8.95406 0.39455,11.74881 v 18.60957 h -7.54028 V 10.2802 h 7.88003 z m 46.03075,0 c 2.99201,4.20853 5.38122,7.92387 7.20053,11.157 h 0.19724 c -0.25195,-5.33739 -0.39453,-9.20615 -0.39453,-11.65018 V 10.2802 h 7.54028 v 41.13178 h -7.88005 L 165.83126,32.46264 c -2.34537,-3.2331 -4.78939,-7.05804 -7.2882,-11.40904 h -0.19727 c 0.24112,5.08531 0.39455,8.95406 0.39455,11.74881 V 51.41198 H 151.2439 V 10.2802 h 7.83619 z m 24.68127,-19.1466 h 7.54027 v 41.13178 h -7.54027 z m 25.16348,34.80802 h 20.22065 v 6.32376 H 214.89789 V 10.2802 h 26.64303 v 6.31279 h -19.10275 v 10.63093 h 16.40669 v 6.31279 h -16.40669 z m 47.06098,-5.47984 c 0,-1.03022 -0.25195,-1.86314 -0.7891,-2.54265 -0.49321,-0.63566 -1.17269,-1.18366 -2.04947,-1.56723 -0.88775,-0.39456 -1.91796,-0.7343 -2.99201,-0.98639 -1.07404,-0.29592 -2.2577,-0.53701 -3.47422,-0.77813 -1.56723,-0.33974 -3.09063,-0.73431 -4.55924,-1.22749 -1.46861,-0.49318 -2.73992,-1.17269 -3.86879,-2.00561 -1.07404,-0.83296 -1.95082,-1.907 -2.64127,-3.23313 -0.63568,-1.32611 -0.97542,-2.98104 -0.97542,-4.94283 0,-2.15906 0.38359,-4.06606 1.17269,-5.67711 0.73431,-1.56726 1.76452,-2.93722 3.07969,-3.96744 1.28228,-1.07404 2.79471,-1.86314 4.55924,-2.35632 1.76449,-0.53704 3.71531,-0.77813 5.92919,-0.77813 2.19194,0 4.39483,0.19724 6.60871,0.63566 2.20288,0.39453 4.10988,0.97539 5.72096,1.66587 v 6.41141 c -2.14812,-0.83292 -4.20853,-1.42475 -6.11553,-1.80835 -2.00561,-0.39453 -3.82493,-0.5918 -5.53466,-0.5918 -2.4988,0 -4.40579,0.49318 -5.7319,1.36996 -1.36999,0.93157 -2.00564,2.25768 -2.00564,4.06605 0,1.0302 0.19724,1.90697 0.63565,2.59745 0.43839,0.63566 1.03022,1.21652 1.80838,1.66588 0.73428,0.43838 1.62202,0.77812 2.59745,1.07404 0.98636,0.24101 2.06041,0.49318 3.13445,0.7343 1.76452,0.33974 3.4304,0.77813 4.99763,1.27131 1.61108,0.49319 3.03586,1.12887 4.26335,2.00565 1.21651,0.83292 2.20288,1.96179 2.88239,3.33175 0.7343,1.42475 1.07404,3.18928 1.07404,5.33736 0,2.20292 -0.38359,4.10988 -1.21651,5.73193 -0.83296,1.61108 -1.96179,2.98104 -3.47423,4.01126 -1.5234,1.07405 -3.33175,1.86315 -5.49081,2.35633 -2.14811,0.53703 -4.50444,0.77813 -7.10188,0.77813 -2.20292,0 -4.40583,-0.24101 -6.55391,-0.67948 -2.15906,-0.44936 -3.96741,-1.03022 -5.39219,-1.86317 v -6.32374 c 2.00564,0.88772 3.96743,1.52341 5.92919,1.91794 1.907,0.39456 3.91264,0.58086 5.97305,0.58086 1.17269,0 2.34539,-0.0875 3.47423,-0.28494 1.12886,-0.19724 2.20291,-0.54798 3.09063,-0.98637 0.92062,-0.49318 1.65493,-1.12887 2.20291,-1.95082 0.53703,-0.7891 0.83295,-1.81932 0.83295,-2.99201" id="path2725" style="fill:#055c4a;fill-opacity:1;fill-rule:evenodd;stroke:none;stroke-width:2.80568"/>
	
  
	<path animation_id="1" d="M 300,57.28638 C 300,58.06451 243.19586,81.32102 149.83012,70.30652 56.3548,59.33585 0,71.43536 0,72.21349 0,71.43536 56.157527,52.28875 149.57805,63.20463 242.95474,74.21913 300,58.06451 300,57.28638" id="path2727" style="fill:#055c4a;fill-opacity:1;fill-rule:evenodd;stroke:none;stroke-width:2.80568"/>
	

</svg>
