<?xml version="1.0" encoding="iso-8859-1"?>
<!-- Created with Inkscape (http://www.inkscape.org/) -->
<svg height="26.200001" id="svg3507" inkscape:version="0.48.1 " sodipodi:docname="Neues Dokument 3" version="1.1" width="95.919998" xmlns="http://www.w3.org/2000/svg" xmlns:cc="http://creativecommons.org/ns#" xmlns:dc="http://purl.org/dc/elements/1.1/" xmlns:inkscape="http://www.inkscape.org/namespaces/inkscape" xmlns:rdf="http://www.w3.org/1999/02/22-rdf-syntax-ns#" xmlns:sodipodi="http://sodipodi.sourceforge.net/DTD/sodipodi-0.dtd" xmlns:svg="http://www.w3.org/2000/svg">
	
  
	<defs id="defs3509"/>
	
  
	<sodipodi:namedview bordercolor="#666666" borderopacity="1.0" fit-margin-bottom="0" fit-margin-left="0" fit-margin-right="0" fit-margin-top="0" id="base" inkscape:current-layer="layer1" inkscape:cx="47.959995" inkscape:cy="13.100001" inkscape:document-units="px" inkscape:pageopacity="0.0" inkscape:pageshadow="2" inkscape:window-height="678" inkscape:window-maximized="1" inkscape:window-width="1024" inkscape:window-x="-4" inkscape:window-y="-4" inkscape:zoom="9.5190687" pagecolor="#ffffff" showgrid="false"/>
	
  
	<metadata id="metadata3512">
		
    
		<rdf:RDF>
			
      
			<cc:Work rdf:about="">
				
        
				<dc:format>image/svg+xml</dc:format>
				
        
				<dc:type rdf:resource="http://purl.org/dc/dcmitype/StillImage"/>
				
        
				<dc:title/>
				
      
			</cc:Work>
			
    
		</rdf:RDF>
		
  
	</metadata>
	
  
	<g id="layer1" inkscape:groupmode="layer" inkscape:label="Ebene 1" transform="translate(-287.58276,-582.06773)">
		
    
		<path animation_id="0" d="m 346.22363,592.14723 -9.0775,0 0,-9.0775 9.0775,0 0,9.0775 z" id="path28" inkscape:connector-curvature="0" style="fill:#092239;fill-opacity:1;fill-rule:nonzero;stroke:none"/>
		
    
		<path animation_id="1" d="m 358.31488,592.14723 -9.0775,0 0,-9.0775 9.0775,0 0,9.0775 z" id="path30" inkscape:connector-curvature="0" style="fill:#092239;fill-opacity:1;fill-rule:nonzero;stroke:none"/>
		
    
		<path animation_id="2" d="m 370.40738,592.14723 -9.0775,0 0,-9.0775 9.0775,0 0,9.0775 z" id="path32" inkscape:connector-curvature="0" style="fill:#00a770;fill-opacity:1;fill-rule:nonzero;stroke:none"/>
		
    
		<path animation_id="3" d="m 382.49988,592.14723 -9.0775,0 0,-9.0775 9.0775,0 0,9.0775 z" id="path34" inkscape:connector-curvature="0" style="fill:#092239;fill-opacity:1;fill-rule:nonzero;stroke:none"/>
		
    
		<path animation_id="4" d="m 361.46738,607.05598 -3.05,0 0,-3.1825 3.05,0 0,3.1825 z" id="path36" inkscape:connector-curvature="0" style="fill:#092239;fill-opacity:1;fill-rule:nonzero;stroke:none"/>
		
    
		<path animation_id="5" d="m 308.73488,597.26348 -3.03625,0 0,-2.875 3.03625,0 0,2.875 z" id="path38" inkscape:connector-curvature="0" style="fill:#092239;fill-opacity:1;fill-rule:nonzero;stroke:none"/>
		
    
		<g id="g40" transform="matrix(1.25,0,0,-1.25,288.58438,598.25548)">
			
      
			<path animation_id="6" d="m 0,0 2.543,0 1.136,-5.072 0.027,0 1.218,5.072 2.922,0 1.189,-5.072 0.028,0 1.108,5.072 2.354,0 -2.151,-7.046 -2.826,0 -1.191,5.099 -0.027,0 -1.339,-5.099 -2.827,0 L 0,0 z" id="path42" inkscape:connector-curvature="0" style="fill:#092239;fill-opacity:1;fill-rule:nonzero;stroke:none"/>
			
    
		</g>
		
    
		<path animation_id="7" d="m 305.69488,598.25598 3.0425,0 0,8.8075 -3.0425,0 0,-8.8075 z" id="path44" inkscape:connector-curvature="0" style="fill:#092239;fill-opacity:1;fill-rule:nonzero;stroke:none"/>
		
    
		<path animation_id="8" d="m 310.48738,594.38348 3.04375,0 0,12.68 -3.04375,0 0,-12.68 z" id="path46" inkscape:connector-curvature="0" style="fill:#092239;fill-opacity:1;fill-rule:nonzero;stroke:none"/>
		
    
		<g id="g56" transform="matrix(1.25,0,0,-1.25,315.46838,594.38298)">
			
      
			<path animation_id="9" d="m 0,0 2.435,0 0,-4.139 0.027,0 c 0.527,0.73 1.299,1.204 2.353,1.204 1.921,0 2.692,-1.353 2.692,-2.814 l 0,-4.395 -2.435,0 0,3.408 c 0,1.325 -0.46,1.772 -1.122,1.772 -1.001,0 -1.515,-0.69 -1.515,-2.205 l 0,-2.975 -2.435,0 L 0,0" id="path58" inkscape:connector-curvature="0" style="fill:#092239;fill-opacity:1;fill-rule:nonzero;stroke:none"/>
			
    
		</g>
		
    
		<g id="g60" transform="matrix(1.25,0,0,-1.25,329.39963,603.54698)">
			
      
			<path animation_id="10" d="m 0,0 c 0.135,-0.973 0.88,-1.353 2.069,-1.353 0.663,0 1.421,0.15 2.151,0.542 l 0,-1.718 C 3.435,-2.84 2.543,-2.975 1.636,-2.975 c -2.325,0 -4.098,1.366 -4.098,3.693 0,2.325 1.583,3.678 3.775,3.678 2.61,0 3.557,-1.853 3.557,-3.95 L 4.87,0 0,0 z m 2.678,1.379 c 0,0.813 -0.378,1.475 -1.352,1.475 -0.879,0 -1.298,-0.662 -1.353,-1.475 l 2.705,0" id="path62" inkscape:connector-curvature="0" style="fill:#092239;fill-opacity:1;fill-rule:nonzero;stroke:none"/>
			
    
		</g>
		
    
		<path animation_id="11" d="m 337.11863,594.38348 3.0425,0 0,12.68 -3.0425,0 0,-12.68 z" id="path64" inkscape:connector-curvature="0" style="fill:#092239;fill-opacity:1;fill-rule:nonzero;stroke:none"/>
		
    
		<g id="g66" transform="matrix(1.25,0,0,-1.25,341.97501,598.25548)">
			
      
			<path animation_id="12" d="m 0,0 2.219,0 0,-1.298 0.027,0 c 0.487,1.014 1.46,1.461 2.57,1.461 1.001,0 1.825,-0.433 2.204,-1.353 0.568,0.947 1.501,1.353 2.502,1.353 2.03,0 2.489,-1.15 2.489,-3.057 l 0,-4.152 -2.434,0 0,3.787 c 0,0.798 -0.284,1.393 -0.974,1.393 -0.865,0 -1.38,-0.69 -1.38,-2.205 l 0,-2.975 -2.434,0 0,3.787 c 0,0.798 -0.284,1.393 -0.974,1.393 -0.865,0 -1.38,-0.69 -1.38,-2.205 l 0,-2.975 L 0,-7.046 0,0" id="path68" inkscape:connector-curvature="0" style="fill:#092239;fill-opacity:1;fill-rule:nonzero;stroke:none"/>
			
    
		</g>
		
    
		<g id="g70" transform="matrix(1.25,0,0,-1.25,371.79625,603.54698)">
			
      
			<path animation_id="13" d="m 0,0 c 0.136,-0.973 0.879,-1.353 2.07,-1.353 0.663,0 1.42,0.15 2.151,0.542 l 0,-1.718 C 3.436,-2.84 2.543,-2.975 1.636,-2.975 c -2.325,0 -4.097,1.366 -4.097,3.693 0,2.325 1.582,3.678 3.773,3.678 2.61,0 3.557,-1.853 3.557,-3.95 L 4.869,0 0,0 z m 2.678,1.379 c 0,0.813 -0.378,1.475 -1.352,1.475 -0.879,0 -1.299,-0.662 -1.353,-1.475 l 2.705,0" id="path72" inkscape:connector-curvature="0" style="fill:#092239;fill-opacity:1;fill-rule:nonzero;stroke:none"/>
			
    
		</g>
		
    
		<path animation_id="14" d="m 379.45863,594.38348 3.0425,0 0,12.68 -3.0425,0 0,-12.68 z" id="path74" inkscape:connector-curvature="0" style="fill:#092239;fill-opacity:1;fill-rule:nonzero;stroke:none"/>
		
    
		<g id="g76" transform="matrix(1.25,0,0,-1.25,361.01013,598.36923)">
			
      
			<path animation_id="15" d="m 0,0 1.415,0 0,1.561 2.362,0.734 0,-2.295 1.681,0 0,-1.681 -1.681,0 0,-2.562 c 0,-0.842 0.2,-1.268 0.96,-1.268 0.241,0 0.495,0.053 0.734,0.092 L 5.552,-6.98 C 5.098,-7.033 4.644,-7.113 4.044,-7.113 c -2.149,0 -2.669,0.947 -2.669,2.602 l 0,2.83 L 0,-1.681 0,0" id="path78" inkscape:connector-curvature="0" style="fill:#092239;fill-opacity:1;fill-rule:nonzero;stroke:none"/>
			
    
		</g>
		
  
	</g>
	

</svg>
