<?xml version="1.0" encoding="iso-8859-1"?>
<!DOCTYPE svg
  PUBLIC '-//W3C//DTD SVG 1.1//EN'
  'http://www.w3.org/Graphics/SVG/1.1/DTD/svg11.dtd'>
<!-- Creator: CorelDRAW -->
<svg height="28.0808mm" style="shape-rendering:geometricPrecision; text-rendering:geometricPrecision; image-rendering:optimizeQuality; fill-rule:evenodd; clip-rule:evenodd" viewBox="0 0 278 28.0808" width="278mm" xml:space="preserve" xmlns="http://www.w3.org/2000/svg" xmlns:xlink="http://www.w3.org/1999/xlink">
	
 
	<defs>
		
  
		<style type="text/css">
			
   
<![CDATA[
    .fil0 {fill:#06376C}
   ]]>			
  
		</style>
		
 
	</defs>
	
 
	<g id="Ebene_x0020_1">
		
  
		<metadata id="CorelCorpID_0Corel-Layer"/>
		
  
		<polygon animation_id="3" class="fil0" points="9.87742,2.16849 17.4285,2.16849 20.1492,15.5507 24.1165,2.16849 31.6502,2.16849 35.6351,15.5507 38.3562,2.16849 45.8712,2.16849 40.2017,26.127 32.4049,26.127 27.8924,11.0433 23.3974,26.127 15.6006,26.127 "/>
		
  
		<polygon animation_id="4" class="fil0" points="128.512,2.16849 136.064,2.16849 138.784,15.5507 142.752,2.16849 150.285,2.16849 154.27,15.5507 156.991,2.16849 164.506,2.16849 158.837,26.127 151.04,26.127 146.528,11.0433 142.033,26.127 134.236,26.127 "/>
		
  
		<polygon animation_id="5" class="fil0" points="166.767,2.16849 182.689,2.16849 182.689,7.28369 172.722,7.28369 172.722,11.0936 181.968,11.0936 181.968,15.98 172.722,15.98 172.722,20.6996 182.98,20.6996 182.98,26.127 166.767,26.127 "/>
		
  
		<polygon animation_id="6" class="fil0" points="49.4185,2.16849 56.2457,2.16849 56.2457,26.127 49.4185,26.127 "/>
		
  
		<polygon animation_id="7" class="fil0" points="188.361,2.16849 195.188,2.16849 195.188,26.127 188.361,26.127 "/>
		
  
		<polygon animation_id="8" class="fil0" points="201.155,2.16849 208.057,2.16849 217.058,15.4223 217.058,2.16849 224.021,2.16849 224.021,26.127 217.058,26.127 208.101,12.9734 208.101,26.127 201.155,26.127 "/>
		
  
		<path animation_id="0" class="fil0" d="M61.4859 26.127l0 -23.9585 11.0948 0c2.05626,0 3.63094,0.195162 4.71439,0.591382 1.08869,0.390323 1.9665,1.11556 2.63323,2.18113 0.6672,1.05977 0.998086,2.35364 0.998086,3.87674 0,1.33337 -0.255816,2.47654 -0.762207,3.44186 -0.511726,0.964763 -1.21356,1.74588 -2.10157,2.34812 -0.571632,0.379465 -1.349,0.697527 -2.33735,0.943047 0.79244,0.295504 1.36941,0.591382 1.73549,0.886886 0.240746,0.194974 0.596998,0.613566 1.06342,1.25531 0.466422,0.646701 0.77737,1.13774 0.932844,1.48903l3.22003 6.94504 -7.5235 0 -3.55625 -7.3245c-0.451352,-0.942673 -0.85244,-1.56167 -1.20869,-1.84622 -0.476157,-0.368139 -1.02298,-0.552256 -1.62981,-0.552256l-0.58717 0 0 9.72298 -6.68576 0zm6.68576 -14.2523l2.80911 0c0.300745,0 0.887541,-0.106145 1.76039,-0.323585 0.441524,-0.100342 0.802643,-0.351665 1.08336,-0.753314 0.275847,-0.401649 0.416251,-0.864608 0.416251,-1.38878 0,-0.775686 -0.220809,-1.36697 -0.661865,-1.77948 -0.441524,-0.418404 -1.26907,-0.624892 -2.48309,-0.624892l-2.92415 -9.36027e-005 0 4.87015z"/>
		
  
		<polygon animation_id="9" class="fil0" points="83.4177,2.16849 102.094,2.16849 102.094,8.0869 95.8256,8.0869 95.8256,26.127 89.6817,26.127 89.6817,8.0869 83.4177,8.0869 "/>
		
  
		<polygon animation_id="10" class="fil0" points="104.326,2.16849 111.361,2.16849 111.361,10.5528 119.053,10.5528 119.053,2.16849 126.121,2.16849 126.121,26.127 119.053,26.127 119.053,16.4377 111.361,16.4377 111.361,26.127 104.326,26.127 "/>
		
  
		<path animation_id="1" class="fil0" d="M227.672 26.1801l9.48701 -23.9607 2.43339 0 9.54701 24.0215 -2.61788 -0.00730101 -2.43301 -6.25659 -11.5859 0 -2.37844 6.20988 -2.4522 -0.006833zm15.7546 -7.90587l-5.17482 -13.306 -5.09695 13.306 10.2718 0z"/>
		
  
		<path animation_id="2" class="fil0" d="M266.957 14.1389l2.43255 0 0 8.69644 0 2.06768 0 0.266393c-1.83162,0.724859 -5.45245,1.13241 -7.60185,1.13241 -8.90517,0 -12.7101,-5.4356 -12.7101,-12.1021 0,-6.66638 5.14281,-12.0411 13.0142,-12.0411 2.12721,-9.36027e-005 5.39657,0.336782 7.23951,1.04657l-0.614408 2.05486c-1.85923,-1.0183 -4.41589,-1.21618 -6.4994,-1.21618 -6.37556,-9.36027e-005 -10.5413,4.4948 -10.5413,10.0697 9.36027e-005,5.57498 3.08196,10.1206 10.2948,10.1206 1.35527,0 3.43232,-0.207424 4.98584,-0.584549l9.36027e-005 -9.51069z"/>
		
 
	</g>
	

</svg>
