<?xml version="1.0" encoding="iso-8859-1"?>
<!-- Created with Inkscape (http://www.inkscape.org/) -->
<svg height="307.91339" id="svg5569" version="1.1" width="892.91339" xmlns="http://www.w3.org/2000/svg" xmlns:cc="http://creativecommons.org/ns#" xmlns:dc="http://purl.org/dc/elements/1.1/" xmlns:rdf="http://www.w3.org/1999/02/22-rdf-syntax-ns#" xmlns:svg="http://www.w3.org/2000/svg">
	
  
	<defs id="defs5571"/>
	
  
	<metadata id="metadata5574">
		
    
		<rdf:RDF>
			
      
			<cc:Work rdf:about="">
				
        
				<dc:format>image/svg+xml</dc:format>
				
        
				<dc:type rdf:resource="http://purl.org/dc/dcmitype/StillImage"/>
				
        
				<dc:title/>
				
      
			</cc:Work>
			
    
		</rdf:RDF>
		
  
	</metadata>
	
  
	<g id="layer1" transform="translate(182.00809,-194.06571)">
		
    
		<g id="g5610" transform="matrix(7.1428282,0,0,7.1428282,-1755.9514,-3168.8361)">
			
      
			<g id="g4537" transform="matrix(1.25,0,0,-1.25,237.77277,501.88218)">
				
        
				<path animation_id="0" d="m 0,0 3.961,-6.65 5.625,0 L 2.803,4.656 0,0" id="path4539" style="fill:#acb0e0;fill-opacity:1;fill-rule:nonzero;stroke:none"/>
				
      
			</g>
			
      
			<g id="g4541" style="fill:#134b98;fill-opacity:1" transform="matrix(1.25,0,0,-1.25,253.29652,471.31718)">
				
        
				<path animation_id="1" d="m 0,0 -5.749,0 -20.209,-33.673 5.737,0 L 0,0" id="path4543" style="fill:#134b98;fill-opacity:1;fill-rule:nonzero;stroke:none"/>
				
      
			</g>
			
      
			<g id="g4545" transform="matrix(1.25,0,0,-1.25,234.84402,485.35843)">
				
        
				<path animation_id="2" d="m 0,0 -3.514,5.91 -5.639,0 L -2.809,-4.675 0,0" id="path4547" style="fill:#acb0e0;fill-opacity:1;fill-rule:nonzero;stroke:none"/>
				
      
			</g>
			
      
			<g id="g4549" style="fill:#134b98;fill-opacity:1" transform="matrix(1.25,0,0,-1.25,338.42777,491.42968)">
				
        
				<path animation_id="3" d="m 0,0 -0.006,2.661 c 0,2.409 -1.567,3.263 -5.257,3.263 -2.679,0 -3.942,-0.502 -4.852,-1.958 l -4.044,3.062 c 1.971,2.711 4.802,3.715 8.643,3.715 6.319,0 10.666,-2.108 10.666,-8.384 l 0,-17.369 -5.156,0 0,10.793 -6.167,0 c -3.032,0 -4.448,-1.205 -4.448,-3.062 0,-1.707 1.365,-3.213 4.852,-3.213 1.525,0 2.697,0.065 3.569,0.316 l -0.005,-4.323 c -1.005,-0.408 -2.918,-0.812 -4.636,-0.812 -5.712,0 -9.048,3.363 -9.048,7.781 0,4.066 2.831,7.53 8.34,7.53 L 0,0" id="path4551" style="fill:#134b98;fill-opacity:1;fill-rule:nonzero;stroke:none"/>
				
      
			</g>
			
      
			<g id="g4553" style="fill:#134b98;fill-opacity:1" transform="matrix(1.25,0,0,-1.25,279.55652,496.64218)">
				
        
				<path animation_id="4" d="m 0,0 -13.767,0 0,4.206 8.611,-0.001 c -0.151,3.854 -2.376,5.907 -5.408,5.907 -3.033,0 -5.308,-2.053 -5.409,-5.907 l 0,-4.205 c 0,-4.155 2.578,-6.257 6.116,-6.257 1.972,0 4.095,0.901 5.611,2.452 l 3.741,-3.153 c -2.528,-2.904 -5.814,-4.105 -9.251,-4.105 -5.257,0 -11.373,2.503 -11.373,12.915 0,9.862 5.611,13.066 10.565,13.066 C -4.903,14.918 0,10.763 0,4.205 L 0,0" id="path4555" style="fill:#134b98;fill-opacity:1;fill-rule:nonzero;stroke:none"/>
				
      
			</g>
			
      
			<g id="g4557" style="fill:#134b98;fill-opacity:1" transform="matrix(1.25,0,0,-1.25,285.09902,502.54468)">
				
        
				<path animation_id="5" d="m 0,0 0,24.983 5.134,0 0,-24.586 c 0,-1.141 0.655,-1.737 1.914,-1.737 l 1.762,0 0,-4.766 -2.265,0 C 2.819,-6.106 0,-4.517 0,0" id="path4559" style="fill:#134b98;fill-opacity:1;fill-rule:nonzero;stroke:none"/>
				
      
			</g>
			
      
			<g id="g4561" style="fill:#134b98;fill-opacity:1" transform="matrix(1.25,0,0,-1.25,304.03527,502.54468)">
				
        
				<path animation_id="6" d="m 0,0 0,24.983 5.135,0 0,-24.586 c 0,-1.141 0.654,-1.737 1.913,-1.737 l 1.762,0 0,-4.766 -2.265,0 C 2.819,-6.106 0,-4.517 0,0" id="path4563" style="fill:#134b98;fill-opacity:1;fill-rule:nonzero;stroke:none"/>
				
      
			</g>
			
    
		</g>
		
  
	</g>
	

</svg>
