<?xml version="1.0" encoding="iso-8859-1"?>
<!-- Created with Inkscape (http://www.inkscape.org/) -->
<svg height="729.99213" id="svg1943" version="1.0" width="733.46454" xmlns="http://www.w3.org/2000/svg" xmlns:svg="http://www.w3.org/2000/svg">
	
  
	<defs id="defs1945">
		<clipPath id="clp34">
			

			<path animation_id="0" d="M 336.54,90.072 L 336.54,60.156 L 366.45,60.156 L 366.45,90.072 L 336.54,90.072" id="path38256"/>
			


		</clipPath>
		

		<clipPath id="clp25">
			

			<path animation_id="1" d="M 858.9,204.09 L 938.27,204.09 L 938.27,172.35 L 858.9,172.35 L 858.9,204.09" id="path37919"/>
			


		</clipPath>
		

		<clipPath id="clp27">
			

			<path animation_id="2" d="M 858.9,204.09 L 938.27,204.09 L 938.27,172.35 L 858.9,172.35 L 858.9,204.09" id="path37933"/>
			


		</clipPath>
		

		<clipPath id="clp26">
			

			<path animation_id="3" d="M 867.16,165.63 C 867.16,183.24 881.24,197.53 898.61,197.53 C 915.98,197.53 930.05,183.24 930.05,165.63 C 930.05,148.01 915.98,133.72 898.61,133.72 C 881.24,133.72 867.16,148.01 867.16,165.63" id="path37927"/>
			


		</clipPath>
		

		<clipPath id="clp20">
			

			<path animation_id="4" d="M 93.546,436.27 L 93.546,392.86 L 181.41,392.86 L 181.41,436.27 L 93.546,436.27" id="path37689"/>
			


		</clipPath>
		

		<clipPath id="clp47">
			

			<path animation_id="5" d="M 0.03,793.02 L 595.05,793.02 L 595.05,0 L 0.03,0 L 0.03,793.02 z " id="path10279"/>
			


		</clipPath>
		

		<clipPath id="clp46">
			

			<path animation_id="6" d="M -1,794 L 596,794 L 596,-2 L -1,-2 L -1,794 z " id="path10273"/>
			


		</clipPath>
		

		<clipPath id="clp45">
			

			<path animation_id="7" d="M 396.11,638.75 L 477.22,638.75 L 477.22,615.05 L 396.11,615.05 L 396.11,638.75 z " id="path10267"/>
			


		</clipPath>
		

		<clipPath id="clp44">
			

			<path animation_id="8" d="M 396.39,617.03 L 477.47,617.03 L 477.47,636.78 L 396.39,636.78 L 396.39,617.03 z " id="path10261"/>
			


		</clipPath>
		

		<clipPath id="clp52">
			

			<path animation_id="9" d="M 0.03,793.02 L 595.05,793.02 L 595.05,0 L 0.03,0 L 0.03,793.02 z " id="path10312"/>
			


		</clipPath>
		

		<clipPath id="clp51">
			

			<path animation_id="10" d="M -1,794 L 596,794 L 596,-2 L -1,-2 L -1,794 z " id="path10306"/>
			


		</clipPath>
		

		<clipPath id="clp50">
			

			<path animation_id="11" d="M 396.11,638.75 L 477.22,638.75 L 477.22,615.05 L 396.11,615.05 L 396.11,638.75 z " id="path10300"/>
			


		</clipPath>
		

		<clipPath id="clp49">
			

			<path animation_id="12" d="M 396.39,617.03 L 477.47,617.03 L 477.47,636.78 L 396.39,636.78 L 396.39,617.03 z " id="path10294"/>
			


		</clipPath>
		

		<clipPath id="clp57">
			

			<path animation_id="13" d="M 0.03,793.02 L 595.05,793.02 L 595.05,0 L 0.03,0 L 0.03,793.02 z " id="path10345"/>
			


		</clipPath>
		

		<clipPath id="clp56">
			

			<path animation_id="14" d="M -1,794 L 596,794 L 596,-2 L -1,-2 L -1,794 z " id="path10339"/>
			


		</clipPath>
		

		<clipPath id="clp55">
			

			<path animation_id="15" d="M 396.11,638.75 L 477.22,638.75 L 477.22,615.05 L 396.11,615.05 L 396.11,638.75 z " id="path10333"/>
			


		</clipPath>
		

		<clipPath id="clp54">
			

			<path animation_id="16" d="M 396.39,617.03 L 477.47,617.03 L 477.47,636.78 L 396.39,636.78 L 396.39,617.03 z " id="path10327"/>
			


		</clipPath>
		

		<clipPath id="clp62">
			

			<path animation_id="17" d="M 0.03,793.02 L 595.05,793.02 L 595.05,0 L 0.03,0 L 0.03,793.02 z " id="path10378"/>
			


		</clipPath>
		

		<clipPath id="clp61">
			

			<path animation_id="18" d="M -1,794 L 596,794 L 596,-2 L -1,-2 L -1,794 z " id="path10372"/>
			


		</clipPath>
		

		<clipPath id="clp60">
			

			<path animation_id="19" d="M 396.11,638.75 L 477.22,638.75 L 477.22,615.05 L 396.11,615.05 L 396.11,638.75 z " id="path10366"/>
			


		</clipPath>
		

		<clipPath id="clp59">
			

			<path animation_id="20" d="M 396.39,617.03 L 477.47,617.03 L 477.47,636.78 L 396.39,636.78 L 396.39,617.03 z " id="path10360"/>
			


		</clipPath>
		

		<clipPath id="clp67">
			

			<path animation_id="21" d="M 0.03,793.02 L 595.05,793.02 L 595.05,0 L 0.03,0 L 0.03,793.02 z " id="path10411"/>
			


		</clipPath>
		

		<clipPath id="clp66">
			

			<path animation_id="22" d="M -1,794 L 596,794 L 596,-2 L -1,-2 L -1,794 z " id="path10405"/>
			


		</clipPath>
		

		<clipPath id="clp65">
			

			<path animation_id="23" d="M 396.11,638.75 L 477.22,638.75 L 477.22,615.05 L 396.11,615.05 L 396.11,638.75 z " id="path10399"/>
			


		</clipPath>
		

		<clipPath id="clp64">
			

			<path animation_id="24" d="M 396.39,617.03 L 477.47,617.03 L 477.47,636.78 L 396.39,636.78 L 396.39,617.03 z " id="path10393"/>
			


		</clipPath>
		

		<clipPath id="clp72">
			

			<path animation_id="25" d="M 0.03,793.02 L 595.05,793.02 L 595.05,0 L 0.03,0 L 0.03,793.02 z " id="path10444"/>
			


		</clipPath>
		

		<clipPath id="clp71">
			

			<path animation_id="26" d="M -1,794 L 596,794 L 596,-2 L -1,-2 L -1,794 z " id="path10438"/>
			


		</clipPath>
		

		<clipPath id="clp70">
			

			<path animation_id="27" d="M 396.11,638.75 L 477.22,638.75 L 477.22,615.05 L 396.11,615.05 L 396.11,638.75 z " id="path10432"/>
			


		</clipPath>
		

		<clipPath id="clp69">
			

			<path animation_id="28" d="M 396.39,617.03 L 477.47,617.03 L 477.47,636.78 L 396.39,636.78 L 396.39,617.03 z " id="path10426"/>
			


		</clipPath>
		

		<clipPath id="clp77">
			

			<path animation_id="29" d="M 0.03,793.02 L 595.05,793.02 L 595.05,0 L 0.03,0 L 0.03,793.02 z " id="path10477"/>
			


		</clipPath>
		

		<clipPath id="clp76">
			

			<path animation_id="30" d="M -1,794 L 596,794 L 596,-2 L -1,-2 L -1,794 z " id="path10471"/>
			


		</clipPath>
		

		<clipPath id="clp75">
			

			<path animation_id="31" d="M 396.11,638.75 L 477.22,638.75 L 477.22,615.05 L 396.11,615.05 L 396.11,638.75 z " id="path10465"/>
			


		</clipPath>
		

		<clipPath id="clp74">
			

			<path animation_id="32" d="M 396.39,617.03 L 477.47,617.03 L 477.47,636.78 L 396.39,636.78 L 396.39,617.03 z " id="path10459"/>
			


		</clipPath>
		

		<clipPath id="clp82">
			

			<path animation_id="33" d="M 0.03,793.02 L 595.05,793.02 L 595.05,0 L 0.03,0 L 0.03,793.02 z " id="path10510"/>
			


		</clipPath>
		

		<clipPath id="clp81">
			

			<path animation_id="34" d="M -1,794 L 596,794 L 596,-2 L -1,-2 L -1,794 z " id="path10504"/>
			


		</clipPath>
		

		<clipPath id="clp80">
			

			<path animation_id="35" d="M 396.11,638.75 L 477.22,638.75 L 477.22,615.05 L 396.11,615.05 L 396.11,638.75 z " id="path10498"/>
			


		</clipPath>
		

		<clipPath id="clp79">
			

			<path animation_id="36" d="M 396.39,617.03 L 477.47,617.03 L 477.47,636.78 L 396.39,636.78 L 396.39,617.03 z " id="path10492"/>
			


		</clipPath>
		

		<clipPath id="clp87">
			

			<path animation_id="37" d="M 0.03,793.02 L 595.05,793.02 L 595.05,0 L 0.03,0 L 0.03,793.02 z " id="path10543"/>
			


		</clipPath>
		

		<clipPath id="clp86">
			

			<path animation_id="38" d="M -1,794 L 596,794 L 596,-2 L -1,-2 L -1,794 z " id="path10537"/>
			


		</clipPath>
		

		<clipPath id="clp85">
			

			<path animation_id="39" d="M 396.11,638.75 L 477.22,638.75 L 477.22,615.05 L 396.11,615.05 L 396.11,638.75 z " id="path10531"/>
			


		</clipPath>
		

		<clipPath id="clp84">
			

			<path animation_id="40" d="M 396.39,617.03 L 477.47,617.03 L 477.47,636.78 L 396.39,636.78 L 396.39,617.03 z " id="path10525"/>
			


		</clipPath>
		

		<clipPath id="clp92">
			

			<path animation_id="41" d="M 0.03,793.02 L 595.05,793.02 L 595.05,0 L 0.03,0 L 0.03,793.02 z " id="path10576"/>
			


		</clipPath>
		

		<clipPath id="clp91">
			

			<path animation_id="42" d="M -1,794 L 596,794 L 596,-2 L -1,-2 L -1,794 z " id="path10570"/>
			


		</clipPath>
		

		<clipPath id="clp90">
			

			<path animation_id="43" d="M 396.11,638.75 L 477.22,638.75 L 477.22,615.05 L 396.11,615.05 L 396.11,638.75 z " id="path10564"/>
			


		</clipPath>
		

		<clipPath id="clp89">
			

			<path animation_id="44" d="M 396.39,617.03 L 477.47,617.03 L 477.47,636.78 L 396.39,636.78 L 396.39,617.03 z " id="path10558"/>
			


		</clipPath>
		

		<clipPath id="clp97">
			

			<path animation_id="45" d="M 0.03,793.02 L 595.05,793.02 L 595.05,0 L 0.03,0 L 0.03,793.02 z " id="path10609"/>
			


		</clipPath>
		

		<clipPath id="clp96">
			

			<path animation_id="46" d="M -1,794 L 596,794 L 596,-2 L -1,-2 L -1,794 z " id="path10603"/>
			


		</clipPath>
		

		<clipPath id="clp95">
			

			<path animation_id="47" d="M 396.11,638.75 L 477.22,638.75 L 477.22,615.05 L 396.11,615.05 L 396.11,638.75 z " id="path10597"/>
			


		</clipPath>
		

		<clipPath id="clp94">
			

			<path animation_id="48" d="M 396.39,617.03 L 477.47,617.03 L 477.47,636.78 L 396.39,636.78 L 396.39,617.03 z " id="path10591"/>
			


		</clipPath>
		

		<clipPath id="clp102">
			

			<path animation_id="49" d="M 0.03,793.02 L 595.05,793.02 L 595.05,0 L 0.03,0 L 0.03,793.02 z " id="path10642"/>
			


		</clipPath>
		

		<clipPath id="clp101">
			

			<path animation_id="50" d="M -1,794 L 596,794 L 596,-2 L -1,-2 L -1,794 z " id="path10636"/>
			


		</clipPath>
		

		<clipPath id="clp100">
			

			<path animation_id="51" d="M 396.11,638.75 L 477.22,638.75 L 477.22,615.05 L 396.11,615.05 L 396.11,638.75 z " id="path10630"/>
			


		</clipPath>
		

		<clipPath id="clp99">
			

			<path animation_id="52" d="M 396.39,617.03 L 477.47,617.03 L 477.47,636.78 L 396.39,636.78 L 396.39,617.03 z " id="path10624"/>
			


		</clipPath>
		

		<clipPath id="clp107">
			

			<path animation_id="53" d="M 0.03,793.02 L 595.05,793.02 L 595.05,0 L 0.03,0 L 0.03,793.02 z " id="path10675"/>
			


		</clipPath>
		

		<clipPath id="clp106">
			

			<path animation_id="54" d="M -1,794 L 596,794 L 596,-2 L -1,-2 L -1,794 z " id="path10669"/>
			


		</clipPath>
		

		<clipPath id="clp105">
			

			<path animation_id="55" d="M 396.11,638.75 L 477.22,638.75 L 477.22,615.05 L 396.11,615.05 L 396.11,638.75 z " id="path10663"/>
			


		</clipPath>
		

		<clipPath id="clp104">
			

			<path animation_id="56" d="M 396.39,617.03 L 477.47,617.03 L 477.47,636.78 L 396.39,636.78 L 396.39,617.03 z " id="path10657"/>
			


		</clipPath>
		

		<clipPath id="clp112">
			

			<path animation_id="57" d="M 0.03,793.02 L 595.05,793.02 L 595.05,0 L 0.03,0 L 0.03,793.02 z " id="path10708"/>
			


		</clipPath>
		

		<clipPath id="clp111">
			

			<path animation_id="58" d="M -1,794 L 596,794 L 596,-2 L -1,-2 L -1,794 z " id="path10702"/>
			


		</clipPath>
		

		<clipPath id="clp110">
			

			<path animation_id="59" d="M 396.11,638.75 L 477.22,638.75 L 477.22,615.05 L 396.11,615.05 L 396.11,638.75 z " id="path10696"/>
			


		</clipPath>
		

		<clipPath id="clp109">
			

			<path animation_id="60" d="M 396.39,617.03 L 477.47,617.03 L 477.47,636.78 L 396.39,636.78 L 396.39,617.03 z " id="path10690"/>
			


		</clipPath>
		

		<clipPath id="clp117">
			

			<path animation_id="61" d="M 0.03,793.02 L 595.05,793.02 L 595.05,0 L 0.03,0 L 0.03,793.02 z " id="path10741"/>
			


		</clipPath>
		

		<clipPath id="clp116">
			

			<path animation_id="62" d="M -1,794 L 596,794 L 596,-2 L -1,-2 L -1,794 z " id="path10735"/>
			


		</clipPath>
		

		<clipPath id="clp115">
			

			<path animation_id="63" d="M 396.11,638.75 L 477.22,638.75 L 477.22,615.05 L 396.11,615.05 L 396.11,638.75 z " id="path10729"/>
			


		</clipPath>
		

		<clipPath id="clp114">
			

			<path animation_id="64" d="M 396.39,617.03 L 477.47,617.03 L 477.47,636.78 L 396.39,636.78 L 396.39,617.03 z " id="path10723"/>
			


		</clipPath>
		

		<clipPath id="clp122">
			

			<path animation_id="65" d="M 0.03,793.02 L 595.05,793.02 L 595.05,0 L 0.03,0 L 0.03,793.02 z " id="path10774"/>
			


		</clipPath>
		

		<clipPath id="clp121">
			

			<path animation_id="66" d="M -1,794 L 596,794 L 596,-2 L -1,-2 L -1,794 z " id="path10768"/>
			


		</clipPath>
		

		<clipPath id="clp120">
			

			<path animation_id="67" d="M 396.11,638.75 L 477.22,638.75 L 477.22,615.05 L 396.11,615.05 L 396.11,638.75 z " id="path10762"/>
			


		</clipPath>
		

		<clipPath id="clp119">
			

			<path animation_id="68" d="M 396.39,617.03 L 477.47,617.03 L 477.47,636.78 L 396.39,636.78 L 396.39,617.03 z " id="path10756"/>
			


		</clipPath>
		

		<clipPath id="clp127">
			

			<path animation_id="69" d="M 0.03,793.02 L 595.05,793.02 L 595.05,0 L 0.03,0 L 0.03,793.02 z " id="path10807"/>
			


		</clipPath>
		

		<clipPath id="clp126">
			

			<path animation_id="70" d="M -1,794 L 596,794 L 596,-2 L -1,-2 L -1,794 z " id="path10801"/>
			


		</clipPath>
		

		<clipPath id="clp125">
			

			<path animation_id="71" d="M 396.11,638.75 L 477.22,638.75 L 477.22,615.05 L 396.11,615.05 L 396.11,638.75 z " id="path10795"/>
			


		</clipPath>
		

		<clipPath id="clp124">
			

			<path animation_id="72" d="M 396.39,617.03 L 477.47,617.03 L 477.47,636.78 L 396.39,636.78 L 396.39,617.03 z " id="path10789"/>
			


		</clipPath>
		

		<clipPath id="clp132">
			

			<path animation_id="73" d="M 0.03,793.02 L 595.05,793.02 L 595.05,0 L 0.03,0 L 0.03,793.02 z " id="path10840"/>
			


		</clipPath>
		

		<clipPath id="clp131">
			

			<path animation_id="74" d="M -1,794 L 596,794 L 596,-2 L -1,-2 L -1,794 z " id="path10834"/>
			


		</clipPath>
		

		<clipPath id="clp130">
			

			<path animation_id="75" d="M 396.11,638.75 L 477.22,638.75 L 477.22,615.05 L 396.11,615.05 L 396.11,638.75 z " id="path10828"/>
			


		</clipPath>
		

		<clipPath id="clp129">
			

			<path animation_id="76" d="M 396.39,617.03 L 477.47,617.03 L 477.47,636.78 L 396.39,636.78 L 396.39,617.03 z " id="path10822"/>
			


		</clipPath>
		

		<clipPath id="clp137">
			

			<path animation_id="77" d="M 0.03,793.02 L 595.05,793.02 L 595.05,0 L 0.03,0 L 0.03,793.02 z " id="path10873"/>
			


		</clipPath>
		

		<clipPath id="clp136">
			

			<path animation_id="78" d="M -1,794 L 596,794 L 596,-2 L -1,-2 L -1,794 z " id="path10867"/>
			


		</clipPath>
		

		<clipPath id="clp135">
			

			<path animation_id="79" d="M 396.11,638.75 L 477.22,638.75 L 477.22,615.05 L 396.11,615.05 L 396.11,638.75 z " id="path10861"/>
			


		</clipPath>
		

		<clipPath id="clp134">
			

			<path animation_id="80" d="M 396.39,617.03 L 477.47,617.03 L 477.47,636.78 L 396.39,636.78 L 396.39,617.03 z " id="path10855"/>
			


		</clipPath>
		

		<clipPath id="clp142">
			

			<path animation_id="81" d="M 0.03,793.02 L 595.05,793.02 L 595.05,0 L 0.03,0 L 0.03,793.02 z " id="path10906"/>
			


		</clipPath>
		

		<clipPath id="clp141">
			

			<path animation_id="82" d="M -1,794 L 596,794 L 596,-2 L -1,-2 L -1,794 z " id="path10900"/>
			


		</clipPath>
		

		<clipPath id="clp140">
			

			<path animation_id="83" d="M 396.11,638.75 L 477.22,638.75 L 477.22,615.05 L 396.11,615.05 L 396.11,638.75 z " id="path10894"/>
			


		</clipPath>
		

		<clipPath id="clp139">
			

			<path animation_id="84" d="M 396.39,617.03 L 477.47,617.03 L 477.47,636.78 L 396.39,636.78 L 396.39,617.03 z " id="path10888"/>
			


		</clipPath>
		

		<clipPath id="clp147">
			

			<path animation_id="85" d="M 0.03,793.02 L 595.05,793.02 L 595.05,0 L 0.03,0 L 0.03,793.02 z " id="path10939"/>
			


		</clipPath>
		

		<clipPath id="clp146">
			

			<path animation_id="86" d="M -1,794 L 596,794 L 596,-2 L -1,-2 L -1,794 z " id="path10933"/>
			


		</clipPath>
		

		<clipPath id="clp145">
			

			<path animation_id="87" d="M 396.11,638.75 L 477.22,638.75 L 477.22,615.05 L 396.11,615.05 L 396.11,638.75 z " id="path10927"/>
			


		</clipPath>
		

		<clipPath id="clp144">
			

			<path animation_id="88" d="M 396.39,617.03 L 477.47,617.03 L 477.47,636.78 L 396.39,636.78 L 396.39,617.03 z " id="path10921"/>
			


		</clipPath>
		

		<clipPath id="clp152">
			

			<path animation_id="89" d="M 0.03,793.02 L 595.05,793.02 L 595.05,0 L 0.03,0 L 0.03,793.02 z " id="path10972"/>
			


		</clipPath>
		

		<clipPath id="clp151">
			

			<path animation_id="90" d="M -1,794 L 596,794 L 596,-2 L -1,-2 L -1,794 z " id="path10966"/>
			


		</clipPath>
		

		<clipPath id="clp150">
			

			<path animation_id="91" d="M 396.11,638.75 L 477.22,638.75 L 477.22,615.05 L 396.11,615.05 L 396.11,638.75 z " id="path10960"/>
			


		</clipPath>
		

		<clipPath id="clp149">
			

			<path animation_id="92" d="M 396.39,617.03 L 477.47,617.03 L 477.47,636.78 L 396.39,636.78 L 396.39,617.03 z " id="path10954"/>
			


		</clipPath>
		

		<clipPath id="clp157">
			

			<path animation_id="93" d="M 0.03,793.02 L 595.05,793.02 L 595.05,0 L 0.03,0 L 0.03,793.02 z " id="path11005"/>
			


		</clipPath>
		

		<clipPath id="clp156">
			

			<path animation_id="94" d="M -1,794 L 596,794 L 596,-2 L -1,-2 L -1,794 z " id="path10999"/>
			


		</clipPath>
		

		<clipPath id="clp155">
			

			<path animation_id="95" d="M 396.11,638.75 L 477.22,638.75 L 477.22,615.05 L 396.11,615.05 L 396.11,638.75 z " id="path10993"/>
			


		</clipPath>
		

		<clipPath id="clp154">
			

			<path animation_id="96" d="M 396.39,617.03 L 477.47,617.03 L 477.47,636.78 L 396.39,636.78 L 396.39,617.03 z " id="path10987"/>
			


		</clipPath>
		

		<clipPath id="clp160">
			

			<path animation_id="97" d="M 0.03,793.02 L 595.05,793.02 L 595.05,0 L 0.03,0 L 0.03,793.02 z " id="path11054"/>
			


		</clipPath>
		

		<clipPath id="clp159">
			

			<path animation_id="98" d="M -1,794 L 596,794 L 596,-2 L -1,-2 L -1,794 z " id="path11048"/>
			


		</clipPath>
		

		<clipPath id="clp163">
			

			<path animation_id="99" d="M 0.03,793.02 L 595.05,793.02 L 595.05,0 L 0.03,0 L 0.03,793.02 z " id="path11075"/>
			


		</clipPath>
		

		<clipPath id="clp162">
			

			<path animation_id="100" d="M -1,794 L 596,794 L 596,-2 L -1,-2 L -1,794 z " id="path11069"/>
			


		</clipPath>
		

		<clipPath id="clp166">
			

			<path animation_id="101" d="M 0.03,793.02 L 595.05,793.02 L 595.05,0 L 0.03,0 L 0.03,793.02 z " id="path11096"/>
			


		</clipPath>
		

		<clipPath id="clp165">
			

			<path animation_id="102" d="M -1,794 L 596,794 L 596,-2 L -1,-2 L -1,794 z " id="path11090"/>
			


		</clipPath>
		

		<clipPath id="clp169">
			

			<path animation_id="103" d="M 0.03,793.02 L 595.05,793.02 L 595.05,0 L 0.03,0 L 0.03,793.02 z " id="path11117"/>
			


		</clipPath>
		

		<clipPath id="clp168">
			

			<path animation_id="104" d="M -1,794 L 596,794 L 596,-2 L -1,-2 L -1,794 z " id="path11111"/>
			


		</clipPath>
		

		<clipPath id="clp172">
			

			<path animation_id="105" d="M 0.03,793.02 L 595.05,793.02 L 595.05,0 L 0.03,0 L 0.03,793.02 z " id="path11138"/>
			


		</clipPath>
		

		<clipPath id="clp171">
			

			<path animation_id="106" d="M -1,794 L 596,794 L 596,-2 L -1,-2 L -1,794 z " id="path11132"/>
			


		</clipPath>
		

		<clipPath id="clp175">
			

			<path animation_id="107" d="M 0.03,793.02 L 595.05,793.02 L 595.05,0 L 0.03,0 L 0.03,793.02 z " id="path11159"/>
			


		</clipPath>
		

		<clipPath id="clp174">
			

			<path animation_id="108" d="M -1,794 L 596,794 L 596,-2 L -1,-2 L -1,794 z " id="path11153"/>
			


		</clipPath>
		

		<clipPath id="clp178">
			

			<path animation_id="109" d="M 0.03,793.02 L 595.05,793.02 L 595.05,0 L 0.03,0 L 0.03,793.02 z " id="path11180"/>
			


		</clipPath>
		

		<clipPath id="clp177">
			

			<path animation_id="110" d="M -1,794 L 596,794 L 596,-2 L -1,-2 L -1,794 z " id="path11174"/>
			


		</clipPath>
		

		<clipPath id="clp181">
			

			<path animation_id="111" d="M 0.03,793.02 L 595.05,793.02 L 595.05,0 L 0.03,0 L 0.03,793.02 z " id="path11201"/>
			


		</clipPath>
		

		<clipPath id="clp180">
			

			<path animation_id="112" d="M -1,794 L 596,794 L 596,-2 L -1,-2 L -1,794 z " id="path11195"/>
			


		</clipPath>
		

		<clipPath id="clp184">
			

			<path animation_id="113" d="M 0.03,793.02 L 595.05,793.02 L 595.05,0 L 0.03,0 L 0.03,793.02 z " id="path11222"/>
			


		</clipPath>
		

		<clipPath id="clp183">
			

			<path animation_id="114" d="M -1,794 L 596,794 L 596,-2 L -1,-2 L -1,794 z " id="path11216"/>
			


		</clipPath>
		

		<clipPath id="clp187">
			

			<path animation_id="115" d="M 0.03,793.02 L 595.05,793.02 L 595.05,0 L 0.03,0 L 0.03,793.02 z " id="path11243"/>
			


		</clipPath>
		

		<clipPath id="clp186">
			

			<path animation_id="116" d="M -1,794 L 596,794 L 596,-2 L -1,-2 L -1,794 z " id="path11237"/>
			


		</clipPath>
		

		<clipPath id="clp190">
			

			<path animation_id="117" d="M 0.03,793.02 L 595.05,793.02 L 595.05,0 L 0.03,0 L 0.03,793.02 z " id="path11264"/>
			


		</clipPath>
		

		<clipPath id="clp189">
			

			<path animation_id="118" d="M -1,794 L 596,794 L 596,-2 L -1,-2 L -1,794 z " id="path11258"/>
			


		</clipPath>
		

		<clipPath id="clp193">
			

			<path animation_id="119" d="M 0.03,793.02 L 595.05,793.02 L 595.05,0 L 0.03,0 L 0.03,793.02 z " id="path11285"/>
			


		</clipPath>
		

		<clipPath id="clp192">
			

			<path animation_id="120" d="M -1,794 L 596,794 L 596,-2 L -1,-2 L -1,794 z " id="path11279"/>
			


		</clipPath>
		

		<clipPath id="clp196">
			

			<path animation_id="121" d="M 0.03,793.02 L 595.05,793.02 L 595.05,0 L 0.03,0 L 0.03,793.02 z " id="path11306"/>
			


		</clipPath>
		

		<clipPath id="clp195">
			

			<path animation_id="122" d="M -1,794 L 596,794 L 596,-2 L -1,-2 L -1,794 z " id="path11300"/>
			


		</clipPath>
		

		<clipPath id="clp199">
			

			<path animation_id="123" d="M 0.03,793.02 L 595.05,793.02 L 595.05,0 L 0.03,0 L 0.03,793.02 z " id="path11327"/>
			


		</clipPath>
		

		<clipPath id="clp198">
			

			<path animation_id="124" d="M -1,794 L 596,794 L 596,-2 L -1,-2 L -1,794 z " id="path11321"/>
			


		</clipPath>
		

		<clipPath id="clp202">
			

			<path animation_id="125" d="M 0.03,793.02 L 595.05,793.02 L 595.05,0 L 0.03,0 L 0.03,793.02 z " id="path11348"/>
			


		</clipPath>
		

		<clipPath id="clp201">
			

			<path animation_id="126" d="M -1,794 L 596,794 L 596,-2 L -1,-2 L -1,794 z " id="path11342"/>
			


		</clipPath>
		

		<clipPath id="clp205">
			

			<path animation_id="127" d="M 0.03,793.02 L 595.05,793.02 L 595.05,0 L 0.03,0 L 0.03,793.02 z " id="path11369"/>
			


		</clipPath>
		

		<clipPath id="clp204">
			

			<path animation_id="128" d="M -1,794 L 596,794 L 596,-2 L -1,-2 L -1,794 z " id="path11363"/>
			


		</clipPath>
		

		<clipPath id="clp208">
			

			<path animation_id="129" d="M 0.03,793.02 L 595.05,793.02 L 595.05,0 L 0.03,0 L 0.03,793.02 z " id="path11390"/>
			


		</clipPath>
		

		<clipPath id="clp207">
			

			<path animation_id="130" d="M -1,794 L 596,794 L 596,-2 L -1,-2 L -1,794 z " id="path11384"/>
			


		</clipPath>
		

		<clipPath id="clp217">
			

			<path animation_id="131" d="M 0.03,793.02 L 595.05,793.02 L 595.05,0 L 0.03,0 L 0.03,793.02 z " id="path11453"/>
			


		</clipPath>
		

		<clipPath id="clp216">
			

			<path animation_id="132" d="M -1,794 L 596,794 L 596,-2 L -1,-2 L -1,794 z " id="path11447"/>
			


		</clipPath>
		

		<clipPath id="clp220">
			

			<path animation_id="133" d="M 0.03,793.02 L 595.05,793.02 L 595.05,0 L 0.03,0 L 0.03,793.02 z " id="path11474"/>
			


		</clipPath>
		

		<clipPath id="clp219">
			

			<path animation_id="134" d="M -1,794 L 596,794 L 596,-2 L -1,-2 L -1,794 z " id="path11468"/>
			


		</clipPath>
		

		<clipPath id="clp223">
			

			<path animation_id="135" d="M 0.03,793.02 L 595.05,793.02 L 595.05,0 L 0.03,0 L 0.03,793.02 z " id="path11495"/>
			


		</clipPath>
		

		<clipPath id="clp222">
			

			<path animation_id="136" d="M -1,794 L 596,794 L 596,-2 L -1,-2 L -1,794 z " id="path11489"/>
			


		</clipPath>
		

		<clipPath id="clp226">
			

			<path animation_id="137" d="M 0.03,793.02 L 595.05,793.02 L 595.05,0 L 0.03,0 L 0.03,793.02 z " id="path11516"/>
			


		</clipPath>
		

		<clipPath id="clp225">
			

			<path animation_id="138" d="M -1,794 L 596,794 L 596,-2 L -1,-2 L -1,794 z " id="path11510"/>
			


		</clipPath>
		

		<clipPath id="clp229">
			

			<path animation_id="139" d="M 0.03,793.02 L 595.05,793.02 L 595.05,0 L 0.03,0 L 0.03,793.02 z " id="path11537"/>
			


		</clipPath>
		

		<clipPath id="clp228">
			

			<path animation_id="140" d="M -1,794 L 596,794 L 596,-2 L -1,-2 L -1,794 z " id="path11531"/>
			


		</clipPath>
		

		<clipPath id="clp232">
			

			<path animation_id="141" d="M 0.03,793.02 L 595.05,793.02 L 595.05,0 L 0.03,0 L 0.03,793.02 z " id="path11558"/>
			


		</clipPath>
		

		<clipPath id="clp231">
			

			<path animation_id="142" d="M -1,794 L 596,794 L 596,-2 L -1,-2 L -1,794 z " id="path11552"/>
			


		</clipPath>
		

		<clipPath id="clp235">
			

			<path animation_id="143" d="M 0.03,793.02 L 595.05,793.02 L 595.05,0 L 0.03,0 L 0.03,793.02 z " id="path11579"/>
			


		</clipPath>
		

		<clipPath id="clp234">
			

			<path animation_id="144" d="M -1,794 L 596,794 L 596,-2 L -1,-2 L -1,794 z " id="path11573"/>
			


		</clipPath>
		

		<clipPath id="clp238">
			

			<path animation_id="145" d="M 0.03,793.02 L 595.05,793.02 L 595.05,0 L 0.03,0 L 0.03,793.02 z " id="path11600"/>
			


		</clipPath>
		

		<clipPath id="clp237">
			

			<path animation_id="146" d="M -1,794 L 596,794 L 596,-2 L -1,-2 L -1,794 z " id="path11594"/>
			


		</clipPath>
		

		<clipPath id="clp241">
			

			<path animation_id="147" d="M 0.03,793.02 L 595.05,793.02 L 595.05,0 L 0.03,0 L 0.03,793.02 z " id="path11621"/>
			


		</clipPath>
		

		<clipPath id="clp240">
			

			<path animation_id="148" d="M -1,794 L 596,794 L 596,-2 L -1,-2 L -1,794 z " id="path11615"/>
			


		</clipPath>
		

		<clipPath id="clp244">
			

			<path animation_id="149" d="M 0.03,793.02 L 595.05,793.02 L 595.05,0 L 0.03,0 L 0.03,793.02 z " id="path11642"/>
			


		</clipPath>
		

		<clipPath id="clp243">
			

			<path animation_id="150" d="M -1,794 L 596,794 L 596,-2 L -1,-2 L -1,794 z " id="path11636"/>
			


		</clipPath>
		

		<clipPath id="clp253">
			

			<path animation_id="151" d="M 0.03,793.02 L 595.05,793.02 L 595.05,0 L 0.03,0 L 0.03,793.02 z " id="path11705"/>
			


		</clipPath>
		

		<clipPath id="clp252">
			

			<path animation_id="152" d="M -1,794 L 596,794 L 596,-2 L -1,-2 L -1,794 z " id="path11699"/>
			


		</clipPath>
		

		<clipPath id="clp256">
			

			<path animation_id="153" d="M 0.03,793.02 L 595.05,793.02 L 595.05,0 L 0.03,0 L 0.03,793.02 z " id="path11726"/>
			


		</clipPath>
		

		<clipPath id="clp255">
			

			<path animation_id="154" d="M -1,794 L 596,794 L 596,-2 L -1,-2 L -1,794 z " id="path11720"/>
			


		</clipPath>
		

		<clipPath id="clp259">
			

			<path animation_id="155" d="M 0.03,793.02 L 595.05,793.02 L 595.05,0 L 0.03,0 L 0.03,793.02 z " id="path11747"/>
			


		</clipPath>
		

		<clipPath id="clp258">
			

			<path animation_id="156" d="M -1,794 L 596,794 L 596,-2 L -1,-2 L -1,794 z " id="path11741"/>
			


		</clipPath>
		

		<clipPath id="clp262">
			

			<path animation_id="157" d="M 0.03,793.02 L 595.05,793.02 L 595.05,0 L 0.03,0 L 0.03,793.02 z " id="path11768"/>
			


		</clipPath>
		

		<clipPath id="clp261">
			

			<path animation_id="158" d="M -1,794 L 596,794 L 596,-2 L -1,-2 L -1,794 z " id="path11762"/>
			


		</clipPath>
		

		<clipPath id="clp265">
			

			<path animation_id="159" d="M 0.03,793.02 L 595.05,793.02 L 595.05,0 L 0.03,0 L 0.03,793.02 z " id="path11789"/>
			


		</clipPath>
		

		<clipPath id="clp264">
			

			<path animation_id="160" d="M -1,794 L 596,794 L 596,-2 L -1,-2 L -1,794 z " id="path11783"/>
			


		</clipPath>
		

		<clipPath id="clp268">
			

			<path animation_id="161" d="M 0.03,793.02 L 595.05,793.02 L 595.05,0 L 0.03,0 L 0.03,793.02 z " id="path11810"/>
			


		</clipPath>
		

		<clipPath id="clp267">
			

			<path animation_id="162" d="M -1,794 L 596,794 L 596,-2 L -1,-2 L -1,794 z " id="path11804"/>
			


		</clipPath>
		

		<clipPath id="clp271">
			

			<path animation_id="163" d="M 0.03,793.02 L 595.05,793.02 L 595.05,0 L 0.03,0 L 0.03,793.02 z " id="path11831"/>
			


		</clipPath>
		

		<clipPath id="clp270">
			

			<path animation_id="164" d="M -1,794 L 596,794 L 596,-2 L -1,-2 L -1,794 z " id="path11825"/>
			


		</clipPath>
		

		<clipPath id="clp274">
			

			<path animation_id="165" d="M 0.03,793.02 L 595.05,793.02 L 595.05,0 L 0.03,0 L 0.03,793.02 z " id="path11852"/>
			


		</clipPath>
		

		<clipPath id="clp273">
			

			<path animation_id="166" d="M -1,794 L 596,794 L 596,-2 L -1,-2 L -1,794 z " id="path11846"/>
			


		</clipPath>
		

		<clipPath id="clp277">
			

			<path animation_id="167" d="M 0.03,793.02 L 595.05,793.02 L 595.05,0 L 0.03,0 L 0.03,793.02 z " id="path11873"/>
			


		</clipPath>
		

		<clipPath id="clp276">
			

			<path animation_id="168" d="M -1,794 L 596,794 L 596,-2 L -1,-2 L -1,794 z " id="path11867"/>
			


		</clipPath>
		

		<clipPath id="clp280">
			

			<path animation_id="169" d="M 0.03,793.02 L 595.05,793.02 L 595.05,0 L 0.03,0 L 0.03,793.02 z " id="path11894"/>
			


		</clipPath>
		

		<clipPath id="clp279">
			

			<path animation_id="170" d="M -1,794 L 596,794 L 596,-2 L -1,-2 L -1,794 z " id="path11888"/>
			


		</clipPath>
		

		<clipPath id="clp283">
			

			<path animation_id="171" d="M 0.03,793.02 L 595.05,793.02 L 595.05,0 L 0.03,0 L 0.03,793.02 z " id="path11915"/>
			


		</clipPath>
		

		<clipPath id="clp282">
			

			<path animation_id="172" d="M -1,794 L 596,794 L 596,-2 L -1,-2 L -1,794 z " id="path11909"/>
			


		</clipPath>
		

		<clipPath id="clp286">
			

			<path animation_id="173" d="M 0.03,793.02 L 595.05,793.02 L 595.05,0 L 0.03,0 L 0.03,793.02 z " id="path11936"/>
			


		</clipPath>
		

		<clipPath id="clp285">
			

			<path animation_id="174" d="M -1,794 L 596,794 L 596,-2 L -1,-2 L -1,794 z " id="path11930"/>
			


		</clipPath>
		

		<clipPath id="clp289">
			

			<path animation_id="175" d="M 0.03,793.02 L 595.05,793.02 L 595.05,0 L 0.03,0 L 0.03,793.02 z " id="path11957"/>
			


		</clipPath>
		

		<clipPath id="clp288">
			

			<path animation_id="176" d="M -1,794 L 596,794 L 596,-2 L -1,-2 L -1,794 z " id="path11951"/>
			


		</clipPath>
		

		<clipPath id="clp292">
			

			<path animation_id="177" d="M 0.03,793.02 L 595.05,793.02 L 595.05,0 L 0.03,0 L 0.03,793.02 z " id="path11978"/>
			


		</clipPath>
		

		<clipPath id="clp291">
			

			<path animation_id="178" d="M -1,794 L 596,794 L 596,-2 L -1,-2 L -1,794 z " id="path11972"/>
			


		</clipPath>
		

		<clipPath id="clp295">
			

			<path animation_id="179" d="M 0.03,793.02 L 595.05,793.02 L 595.05,0 L 0.03,0 L 0.03,793.02 z " id="path11999"/>
			


		</clipPath>
		

		<clipPath id="clp294">
			

			<path animation_id="180" d="M -1,794 L 596,794 L 596,-2 L -1,-2 L -1,794 z " id="path11993"/>
			


		</clipPath>
		

		<clipPath id="clp298">
			

			<path animation_id="181" d="M 0.03,793.02 L 595.05,793.02 L 595.05,0 L 0.03,0 L 0.03,793.02 z " id="path12020"/>
			


		</clipPath>
		

		<clipPath id="clp297">
			

			<path animation_id="182" d="M -1,794 L 596,794 L 596,-2 L -1,-2 L -1,794 z " id="path12014"/>
			


		</clipPath>
		

		<clipPath id="clp301">
			

			<path animation_id="183" d="M 0.03,793.02 L 595.05,793.02 L 595.05,0 L 0.03,0 L 0.03,793.02 z " id="path12041"/>
			


		</clipPath>
		

		<clipPath id="clp300">
			

			<path animation_id="184" d="M -1,794 L 596,794 L 596,-2 L -1,-2 L -1,794 z " id="path12035"/>
			


		</clipPath>
		

		<clipPath id="clp304">
			

			<path animation_id="185" d="M 0.03,793.02 L 595.05,793.02 L 595.05,0 L 0.03,0 L 0.03,793.02 z " id="path12062"/>
			


		</clipPath>
		

		<clipPath id="clp303">
			

			<path animation_id="186" d="M -1,794 L 596,794 L 596,-2 L -1,-2 L -1,794 z " id="path12056"/>
			


		</clipPath>
		

		<clipPath id="clp307">
			

			<path animation_id="187" d="M 0.03,793.02 L 595.05,793.02 L 595.05,0 L 0.03,0 L 0.03,793.02 z " id="path12083"/>
			


		</clipPath>
		

		<clipPath id="clp306">
			

			<path animation_id="188" d="M -1,794 L 596,794 L 596,-2 L -1,-2 L -1,794 z " id="path12077"/>
			


		</clipPath>
		

		<clipPath id="clp310">
			

			<path animation_id="189" d="M 0.03,793.02 L 595.05,793.02 L 595.05,0 L 0.03,0 L 0.03,793.02 z " id="path12104"/>
			


		</clipPath>
		

		<clipPath id="clp309">
			

			<path animation_id="190" d="M -1,794 L 596,794 L 596,-2 L -1,-2 L -1,794 z " id="path12098"/>
			


		</clipPath>
		

		<clipPath id="clp313">
			

			<path animation_id="191" d="M 0.03,793.02 L 595.05,793.02 L 595.05,0 L 0.03,0 L 0.03,793.02 z " id="path12125"/>
			


		</clipPath>
		

		<clipPath id="clp312">
			

			<path animation_id="192" d="M -1,794 L 596,794 L 596,-2 L -1,-2 L -1,794 z " id="path12119"/>
			


		</clipPath>
		

		<clipPath id="clp316">
			

			<path animation_id="193" d="M 0.03,793.02 L 595.05,793.02 L 595.05,0 L 0.03,0 L 0.03,793.02 z " id="path12146"/>
			


		</clipPath>
		

		<clipPath id="clp315">
			

			<path animation_id="194" d="M -1,794 L 596,794 L 596,-2 L -1,-2 L -1,794 z " id="path12140"/>
			


		</clipPath>
		

		<clipPath id="clp319">
			

			<path animation_id="195" d="M 0.03,793.02 L 595.05,793.02 L 595.05,0 L 0.03,0 L 0.03,793.02 z " id="path12167"/>
			


		</clipPath>
		

		<clipPath id="clp318">
			

			<path animation_id="196" d="M -1,794 L 596,794 L 596,-2 L -1,-2 L -1,794 z " id="path12161"/>
			


		</clipPath>
		

		<clipPath id="clp322">
			

			<path animation_id="197" d="M 0.03,793.02 L 595.05,793.02 L 595.05,0 L 0.03,0 L 0.03,793.02 z " id="path12188"/>
			


		</clipPath>
		

		<clipPath id="clp321">
			

			<path animation_id="198" d="M -1,794 L 596,794 L 596,-2 L -1,-2 L -1,794 z " id="path12182"/>
			


		</clipPath>
		

		<clipPath id="clp325">
			

			<path animation_id="199" d="M 0.03,793.02 L 595.05,793.02 L 595.05,0 L 0.03,0 L 0.03,793.02 z " id="path12209"/>
			


		</clipPath>
		

		<clipPath id="clp324">
			

			<path animation_id="200" d="M -1,794 L 596,794 L 596,-2 L -1,-2 L -1,794 z " id="path12203"/>
			


		</clipPath>
		

		<clipPath id="clp328">
			

			<path animation_id="201" d="M 0.03,793.02 L 595.05,793.02 L 595.05,0 L 0.03,0 L 0.03,793.02 z " id="path12230"/>
			


		</clipPath>
		

		<clipPath id="clp327">
			

			<path animation_id="202" d="M -1,794 L 596,794 L 596,-2 L -1,-2 L -1,794 z " id="path12224"/>
			


		</clipPath>
		

		<clipPath id="clp331">
			

			<path animation_id="203" d="M 0.03,793.02 L 595.05,793.02 L 595.05,0 L 0.03,0 L 0.03,793.02 z " id="path12251"/>
			


		</clipPath>
		

		<clipPath id="clp330">
			

			<path animation_id="204" d="M -1,794 L 596,794 L 596,-2 L -1,-2 L -1,794 z " id="path12245"/>
			


		</clipPath>
		

		<clipPath id="clp334">
			

			<path animation_id="205" d="M 0.03,793.02 L 595.05,793.02 L 595.05,0 L 0.03,0 L 0.03,793.02 z " id="path12272"/>
			


		</clipPath>
		

		<clipPath id="clp333">
			

			<path animation_id="206" d="M -1,794 L 596,794 L 596,-2 L -1,-2 L -1,794 z " id="path12266"/>
			


		</clipPath>
		

		<clipPath id="clp337">
			

			<path animation_id="207" d="M 0.03,793.02 L 595.05,793.02 L 595.05,0 L 0.03,0 L 0.03,793.02 z " id="path12293"/>
			


		</clipPath>
		

		<clipPath id="clp336">
			

			<path animation_id="208" d="M -1,794 L 596,794 L 596,-2 L -1,-2 L -1,794 z " id="path12287"/>
			


		</clipPath>
		

		<clipPath id="clp340">
			

			<path animation_id="209" d="M 0.03,793.02 L 595.05,793.02 L 595.05,0 L 0.03,0 L 0.03,793.02 z " id="path12314"/>
			


		</clipPath>
		

		<clipPath id="clp339">
			

			<path animation_id="210" d="M -1,794 L 596,794 L 596,-2 L -1,-2 L -1,794 z " id="path12308"/>
			


		</clipPath>
		

		<clipPath id="clp343">
			

			<path animation_id="211" d="M 0.03,793.02 L 595.05,793.02 L 595.05,0 L 0.03,0 L 0.03,793.02 z " id="path12335"/>
			


		</clipPath>
		

		<clipPath id="clp342">
			

			<path animation_id="212" d="M -1,794 L 596,794 L 596,-2 L -1,-2 L -1,794 z " id="path12329"/>
			


		</clipPath>
		

		<clipPath id="clp346">
			

			<path animation_id="213" d="M 0.03,793.02 L 595.05,793.02 L 595.05,0 L 0.03,0 L 0.03,793.02 z " id="path12356"/>
			


		</clipPath>
		

		<clipPath id="clp345">
			

			<path animation_id="214" d="M -1,794 L 596,794 L 596,-2 L -1,-2 L -1,794 z " id="path12350"/>
			


		</clipPath>
		

		<clipPath id="clp349">
			

			<path animation_id="215" d="M 0.03,793.02 L 595.05,793.02 L 595.05,0 L 0.03,0 L 0.03,793.02 z " id="path12377"/>
			


		</clipPath>
		

		<clipPath id="clp348">
			

			<path animation_id="216" d="M -1,794 L 596,794 L 596,-2 L -1,-2 L -1,794 z " id="path12371"/>
			


		</clipPath>
		

		<clipPath id="clp352">
			

			<path animation_id="217" d="M 0.03,793.02 L 595.05,793.02 L 595.05,0 L 0.03,0 L 0.03,793.02 z " id="path12398"/>
			


		</clipPath>
		

		<clipPath id="clp351">
			

			<path animation_id="218" d="M -1,794 L 596,794 L 596,-2 L -1,-2 L -1,794 z " id="path12392"/>
			


		</clipPath>
		

		<clipPath id="clp355">
			

			<path animation_id="219" d="M 0.03,793.02 L 595.05,793.02 L 595.05,0 L 0.03,0 L 0.03,793.02 z " id="path12419"/>
			


		</clipPath>
		

		<clipPath id="clp354">
			

			<path animation_id="220" d="M -1,794 L 596,794 L 596,-2 L -1,-2 L -1,794 z " id="path12413"/>
			


		</clipPath>
		
























		<clipPath id="clipPath20771">
			

			<path animation_id="221" d="M 0.03,793.02 L 595.05,793.02 L 595.05,0 L 0.03,0 L 0.03,793.02 z " id="path20773"/>
			


		</clipPath>
		




		<clipPath id="clipPath20779">
			

			<path animation_id="222" d="M 0.03,793.02 L 595.05,793.02 L 595.05,0 L 0.03,0 L 0.03,793.02 z " id="path20781"/>
			


		</clipPath>
		




		<clipPath id="clipPath20787">
			

			<path animation_id="223" d="M 0.03,793.02 L 595.05,793.02 L 595.05,0 L 0.03,0 L 0.03,793.02 z " id="path20789"/>
			


		</clipPath>
		




		<clipPath id="clipPath20795">
			

			<path animation_id="224" d="M 0.03,793.02 L 595.05,793.02 L 595.05,0 L 0.03,0 L 0.03,793.02 z " id="path20797"/>
			


		</clipPath>
		




		<clipPath id="clipPath20803">
			

			<path animation_id="225" d="M 0.03,793.02 L 595.05,793.02 L 595.05,0 L 0.03,0 L 0.03,793.02 z " id="path20805"/>
			


		</clipPath>
		




		<clipPath id="clipPath20811">
			

			<path animation_id="226" d="M 0.03,793.02 L 595.05,793.02 L 595.05,0 L 0.03,0 L 0.03,793.02 z " id="path20813"/>
			


		</clipPath>
		




		<clipPath id="clipPath20819">
			

			<path animation_id="227" d="M 0.03,793.02 L 595.05,793.02 L 595.05,0 L 0.03,0 L 0.03,793.02 z " id="path20821"/>
			


		</clipPath>
		




		<clipPath id="clipPath20827">
			

			<path animation_id="228" d="M 0.03,793.02 L 595.05,793.02 L 595.05,0 L 0.03,0 L 0.03,793.02 z " id="path20829"/>
			


		</clipPath>
		




		<clipPath id="clipPath20835">
			

			<path animation_id="229" d="M 0.03,793.02 L 595.05,793.02 L 595.05,0 L 0.03,0 L 0.03,793.02 z " id="path20837"/>
			


		</clipPath>
		




		<clipPath id="clipPath20843">
			

			<path animation_id="230" d="M 0.03,793.02 L 595.05,793.02 L 595.05,0 L 0.03,0 L 0.03,793.02 z " id="path20845"/>
			


		</clipPath>
		




		<clipPath id="clipPath20851">
			

			<path animation_id="231" d="M 0.03,793.02 L 595.05,793.02 L 595.05,0 L 0.03,0 L 0.03,793.02 z " id="path20853"/>
			


		</clipPath>
		
































































































































		<clipPath id="clipPath20763">
			

			<path animation_id="232" d="M 0.03,793.02 L 595.05,793.02 L 595.05,0 L 0.03,0 L 0.03,793.02 z " id="path20765"/>
			


		</clipPath>
		




		<clipPath id="clipPath20755">
			

			<path animation_id="233" d="M 0.03,793.02 L 595.05,793.02 L 595.05,0 L 0.03,0 L 0.03,793.02 z " id="path20757"/>
			


		</clipPath>
		




		<clipPath id="clipPath20747">
			

			<path animation_id="234" d="M 0.03,793.02 L 595.05,793.02 L 595.05,0 L 0.03,0 L 0.03,793.02 z " id="path20749"/>
			


		</clipPath>
		




		<clipPath id="clipPath20739">
			

			<path animation_id="235" d="M 0.03,793.02 L 595.05,793.02 L 595.05,0 L 0.03,0 L 0.03,793.02 z " id="path20741"/>
			


		</clipPath>
		




		<clipPath id="clipPath20731">
			

			<path animation_id="236" d="M 0.03,793.02 L 595.05,793.02 L 595.05,0 L 0.03,0 L 0.03,793.02 z " id="path20733"/>
			


		</clipPath>
		




		<clipPath id="clipPath20723">
			

			<path animation_id="237" d="M 0.03,793.02 L 595.05,793.02 L 595.05,0 L 0.03,0 L 0.03,793.02 z " id="path20725"/>
			


		</clipPath>
		




		<clipPath id="clipPath20715">
			

			<path animation_id="238" d="M 0.03,793.02 L 595.05,793.02 L 595.05,0 L 0.03,0 L 0.03,793.02 z " id="path20717"/>
			


		</clipPath>
		




		<clipPath id="clipPath20707">
			

			<path animation_id="239" d="M 0.03,793.02 L 595.05,793.02 L 595.05,0 L 0.03,0 L 0.03,793.02 z " id="path20709"/>
			


		</clipPath>
		




		<clipPath id="clipPath20699">
			

			<path animation_id="240" d="M 0.03,793.02 L 595.05,793.02 L 595.05,0 L 0.03,0 L 0.03,793.02 z " id="path20701"/>
			


		</clipPath>
		




		<clipPath id="clipPath20691">
			

			<path animation_id="241" d="M 0.03,793.02 L 595.05,793.02 L 595.05,0 L 0.03,0 L 0.03,793.02 z " id="path20693"/>
			


		</clipPath>
		




		<clipPath id="clipPath20683">
			

			<path animation_id="242" d="M 0.03,793.02 L 595.05,793.02 L 595.05,0 L 0.03,0 L 0.03,793.02 z " id="path20685"/>
			


		</clipPath>
		




		<clipPath id="clipPath20675">
			

			<path animation_id="243" d="M 0.03,793.02 L 595.05,793.02 L 595.05,0 L 0.03,0 L 0.03,793.02 z " id="path20677"/>
			


		</clipPath>
		




		<clipPath id="clipPath20667">
			

			<path animation_id="244" d="M 0.03,793.02 L 595.05,793.02 L 595.05,0 L 0.03,0 L 0.03,793.02 z " id="path20669"/>
			


		</clipPath>
		




		<clipPath id="clipPath20659">
			

			<path animation_id="245" d="M 0.03,793.02 L 595.05,793.02 L 595.05,0 L 0.03,0 L 0.03,793.02 z " id="path20661"/>
			


		</clipPath>
		




		<clipPath id="clipPath20651">
			

			<path animation_id="246" d="M 0.03,793.02 L 595.05,793.02 L 595.05,0 L 0.03,0 L 0.03,793.02 z " id="path20653"/>
			


		</clipPath>
		




		<clipPath id="clipPath20643">
			

			<path animation_id="247" d="M 0.03,793.02 L 595.05,793.02 L 595.05,0 L 0.03,0 L 0.03,793.02 z " id="path20645"/>
			


		</clipPath>
		




		<clipPath id="clipPath20635">
			

			<path animation_id="248" d="M 0.03,793.02 L 595.05,793.02 L 595.05,0 L 0.03,0 L 0.03,793.02 z " id="path20637"/>
			


		</clipPath>
		




		<clipPath id="clipPath20627">
			

			<path animation_id="249" d="M 0.03,793.02 L 595.05,793.02 L 595.05,0 L 0.03,0 L 0.03,793.02 z " id="path20629"/>
			


		</clipPath>
		




		<clipPath id="clipPath20619">
			

			<path animation_id="250" d="M 0.03,793.02 L 595.05,793.02 L 595.05,0 L 0.03,0 L 0.03,793.02 z " id="path20621"/>
			


		</clipPath>
		




		<clipPath id="clipPath20611">
			

			<path animation_id="251" d="M 0.03,793.02 L 595.05,793.02 L 595.05,0 L 0.03,0 L 0.03,793.02 z " id="path20613"/>
			


		</clipPath>
		




		<clipPath id="clipPath20603">
			

			<path animation_id="252" d="M 0.03,793.02 L 595.05,793.02 L 595.05,0 L 0.03,0 L 0.03,793.02 z " id="path20605"/>
			


		</clipPath>
		




		<clipPath id="clipPath20595">
			

			<path animation_id="253" d="M 0.03,793.02 L 595.05,793.02 L 595.05,0 L 0.03,0 L 0.03,793.02 z " id="path20597"/>
			


		</clipPath>
		




		<clipPath id="clipPath20587">
			

			<path animation_id="254" d="M 0.03,793.02 L 595.05,793.02 L 595.05,0 L 0.03,0 L 0.03,793.02 z " id="path20589"/>
			


		</clipPath>
		




		<clipPath id="clipPath20579">
			

			<path animation_id="255" d="M 0.03,793.02 L 595.05,793.02 L 595.05,0 L 0.03,0 L 0.03,793.02 z " id="path20581"/>
			


		</clipPath>
		




		<clipPath id="clipPath20571">
			

			<path animation_id="256" d="M 0.03,793.02 L 595.05,793.02 L 595.05,0 L 0.03,0 L 0.03,793.02 z " id="path20573"/>
			


		</clipPath>
		




		<clipPath id="clipPath20563">
			

			<path animation_id="257" d="M 0.03,793.02 L 595.05,793.02 L 595.05,0 L 0.03,0 L 0.03,793.02 z " id="path20565"/>
			


		</clipPath>
		




		<clipPath id="clipPath20555">
			

			<path animation_id="258" d="M 0.03,793.02 L 595.05,793.02 L 595.05,0 L 0.03,0 L 0.03,793.02 z " id="path20557"/>
			


		</clipPath>
		




		<clipPath id="clipPath20547">
			

			<path animation_id="259" d="M 0.03,793.02 L 595.05,793.02 L 595.05,0 L 0.03,0 L 0.03,793.02 z " id="path20549"/>
			


		</clipPath>
		




		<clipPath id="clipPath20539">
			

			<path animation_id="260" d="M 0.03,793.02 L 595.05,793.02 L 595.05,0 L 0.03,0 L 0.03,793.02 z " id="path20541"/>
			


		</clipPath>
		




		<clipPath id="clipPath20531">
			

			<path animation_id="261" d="M 0.03,793.02 L 595.05,793.02 L 595.05,0 L 0.03,0 L 0.03,793.02 z " id="path20533"/>
			


		</clipPath>
		




		<clipPath id="clipPath20523">
			

			<path animation_id="262" d="M 0.03,793.02 L 595.05,793.02 L 595.05,0 L 0.03,0 L 0.03,793.02 z " id="path20525"/>
			


		</clipPath>
		




		<clipPath id="clipPath20515">
			

			<path animation_id="263" d="M 0.03,793.02 L 595.05,793.02 L 595.05,0 L 0.03,0 L 0.03,793.02 z " id="path20517"/>
			


		</clipPath>
		




		<clipPath id="clipPath20507">
			

			<path animation_id="264" d="M 0.03,793.02 L 595.05,793.02 L 595.05,0 L 0.03,0 L 0.03,793.02 z " id="path20509"/>
			


		</clipPath>
		




		<clipPath id="clipPath20499">
			

			<path animation_id="265" d="M 0.03,793.02 L 595.05,793.02 L 595.05,0 L 0.03,0 L 0.03,793.02 z " id="path20501"/>
			


		</clipPath>
		




		<clipPath id="clipPath20491">
			

			<path animation_id="266" d="M 0.03,793.02 L 595.05,793.02 L 595.05,0 L 0.03,0 L 0.03,793.02 z " id="path20493"/>
			


		</clipPath>
		




		<clipPath id="clipPath20483">
			

			<path animation_id="267" d="M 0.03,793.02 L 595.05,793.02 L 595.05,0 L 0.03,0 L 0.03,793.02 z " id="path20485"/>
			


		</clipPath>
		




		<clipPath id="clipPath20475">
			

			<path animation_id="268" d="M 0.03,793.02 L 595.05,793.02 L 595.05,0 L 0.03,0 L 0.03,793.02 z " id="path20477"/>
			


		</clipPath>
		




		<clipPath id="clipPath20467">
			

			<path animation_id="269" d="M 0.03,793.02 L 595.05,793.02 L 595.05,0 L 0.03,0 L 0.03,793.02 z " id="path20469"/>
			


		</clipPath>
		




		<clipPath id="clipPath20459">
			

			<path animation_id="270" d="M 0.03,793.02 L 595.05,793.02 L 595.05,0 L 0.03,0 L 0.03,793.02 z " id="path20461"/>
			


		</clipPath>
		




		<clipPath id="clipPath20451">
			

			<path animation_id="271" d="M 0.03,793.02 L 595.05,793.02 L 595.05,0 L 0.03,0 L 0.03,793.02 z " id="path20453"/>
			


		</clipPath>
		




		<clipPath id="clipPath20443">
			

			<path animation_id="272" d="M 0.03,793.02 L 595.05,793.02 L 595.05,0 L 0.03,0 L 0.03,793.02 z " id="path20445"/>
			


		</clipPath>
		




		<clipPath id="clipPath20435">
			

			<path animation_id="273" d="M 0.03,793.02 L 595.05,793.02 L 595.05,0 L 0.03,0 L 0.03,793.02 z " id="path20437"/>
			


		</clipPath>
		




		<clipPath id="clipPath20427">
			

			<path animation_id="274" d="M 0.03,793.02 L 595.05,793.02 L 595.05,0 L 0.03,0 L 0.03,793.02 z " id="path20429"/>
			


		</clipPath>
		




		<clipPath id="clipPath20419">
			

			<path animation_id="275" d="M 0.03,793.02 L 595.05,793.02 L 595.05,0 L 0.03,0 L 0.03,793.02 z " id="path20421"/>
			


		</clipPath>
		




		<clipPath id="clipPath20411">
			

			<path animation_id="276" d="M 0.03,793.02 L 595.05,793.02 L 595.05,0 L 0.03,0 L 0.03,793.02 z " id="path20413"/>
			


		</clipPath>
		




		<clipPath id="clipPath20403">
			

			<path animation_id="277" d="M 0.03,793.02 L 595.05,793.02 L 595.05,0 L 0.03,0 L 0.03,793.02 z " id="path20405"/>
			


		</clipPath>
		




		<clipPath id="clipPath20395">
			

			<path animation_id="278" d="M 0.03,793.02 L 595.05,793.02 L 595.05,0 L 0.03,0 L 0.03,793.02 z " id="path20397"/>
			


		</clipPath>
		




		<clipPath id="clipPath20387">
			

			<path animation_id="279" d="M 0.03,793.02 L 595.05,793.02 L 595.05,0 L 0.03,0 L 0.03,793.02 z " id="path20389"/>
			


		</clipPath>
		




		<clipPath id="clipPath20379">
			

			<path animation_id="280" d="M 0.03,793.02 L 595.05,793.02 L 595.05,0 L 0.03,0 L 0.03,793.02 z " id="path20381"/>
			


		</clipPath>
		




		<clipPath id="clipPath20371">
			

			<path animation_id="281" d="M 0.03,793.02 L 595.05,793.02 L 595.05,0 L 0.03,0 L 0.03,793.02 z " id="path20373"/>
			


		</clipPath>
		




		<clipPath id="clipPath20363">
			

			<path animation_id="282" d="M 0.03,793.02 L 595.05,793.02 L 595.05,0 L 0.03,0 L 0.03,793.02 z " id="path20365"/>
			


		</clipPath>
		


















































































































		<clipPath id="clipPath73722">
			

			<path animation_id="283" d="M 858.9,204.09 L 938.27,204.09 L 938.27,172.35 L 858.9,172.35 L 858.9,204.09" id="path73724"/>
			


		</clipPath>
		












































































	</defs>
	
  
	<g id="layer1" transform="translate(-3709.641,1365.013)">
		
    
		<g id="g74247">
			
      
			<path animation_id="284" d="M 3894.2978,-730.08945 C 3745.268,-830.6431 3705.9374,-1033.0061 3806.3963,-1182.0833 C 3906.8551,-1331.1604 4109.1945,-1370.491 4258.2243,-1269.9611 C 4407.491,-1169.3838 4446.8216,-967.04445 4346.3627,-817.96727 C 4245.9038,-668.86641 4043.5645,-629.53581 3894.2978,-730.08945" id="path38260" style="fill:white;fill-rule:nonzero;stroke:none;stroke-width:2;stroke-linecap:butt;stroke-linejoin:miter;stroke-miterlimit:4;stroke-dasharray:none"/>
			
      
			<path animation_id="285" d="M 4076.2813,-1354.2569 C 3962.5825,-1354.1646 3850.9405,-1299.4273 3782.6875,-1198.0694 C 3757.1037,-1160.1201 3739.8193,-1118.9928 3730.3438,-1076.8506 C 3715.6568,-1009.859 3720.8607,-940.35144 3744.3125,-876.91312 C 3763.7372,-824.41899 3795.7122,-776.12548 3839.0625,-736.94437 C 3851.3806,-726.0239 3864.43,-715.77871 3878.4063,-706.35062 C 4016.2745,-613.44358 4195.8116,-630.34527 4313.7813,-736.94437 C 4334.6274,-755.84796 4353.5923,-777.55258 4369.9375,-801.97562 C 4386.0401,-825.86911 4399.0878,-851.03102 4408.5625,-876.91312 C 4408.5658,-876.92224 4408.5592,-876.93525 4408.5625,-876.94437 C 4432.7158,-941.91453 4436.7474,-1011.3844 4422.0625,-1076.8506 C 4403.1116,-1162.272 4352.6284,-1240.8923 4274.2188,-1293.6944 C 4213.4573,-1334.7084 4144.5005,-1354.3123 4076.2813,-1354.2569 z M 4076.6563,-1325.8506 C 4139.3413,-1325.8965 4202.718,-1307.8548 4258.5938,-1270.1631 C 4328.7123,-1222.8568 4374.679,-1153.0335 4393.1563,-1076.8506 C 4409.0276,-1011.4935 4404.5313,-941.4648 4378,-876.91312 C 4369.7089,-856.70667 4359.2738,-837.042 4346.7188,-818.25687 C 4324.9251,-785.87441 4298.1603,-758.6669 4268.3125,-736.94437 C 4160.7659,-658.72433 4011.5352,-651.68804 3894.75,-730.38187 C 3891.6705,-732.53756 3888.5795,-734.71764 3885.5,-736.94437 C 3834.8062,-773.70922 3797.6112,-822.61865 3775.3438,-876.91312 C 3749.76,-939.75922 3744.0792,-1009.8353 3760.1875,-1076.8506 C 3768.9523,-1113.497 3784.5765,-1149.2263 3806.8438,-1182.3194 C 3869.6188,-1275.4751 3972.1812,-1325.7741 4076.6563,-1325.8506 z M 4077.5625,-1294.4756 C 3983.5064,-1294.4055 3891.1193,-1249.0967 3834.5625,-1165.1944 C 3815.8484,-1137.4075 3802.3667,-1107.5275 3794.3125,-1076.8506 C 3776.3091,-1009.7879 3783.1623,-938.83536 3812.0625,-876.91312 C 3833.856,-830.41223 3867.9684,-789.02091 3913.6875,-758.22562 C 3925.5319,-750.14777 3938.1013,-743.05605 3950.6563,-736.94437 C 4032.3823,-697.64485 4125.6973,-699.35042 4204.3438,-736.94437 C 4249.826,-758.71429 4290.3529,-792.53162 4320.4375,-837.35062 C 4329.1969,-850.13448 4336.5444,-863.37206 4342.9375,-876.91312 C 4342.9415,-876.92161 4342.9335,-876.93588 4342.9375,-876.94437 C 4368.5116,-931.49245 4376.094,-991.17909 4367.0938,-1047.9756 L 4303.375,-1047.9756 C 4288.4511,-996.64219 4261.4557,-903.87478 4261.2188,-903.06937 C 4257.6655,-891.2961 4245.795,-885.10728 4234.1875,-888.16312 C 4222.5801,-891.26634 4215.496,-903.88783 4218.8125,-915.85062 C 4220.2338,-921.67804 4256.2188,-1047.9756 4256.2188,-1047.9756 L 4223.5313,-1047.9756 L 4182.3125,-905.72562 C 4178.7592,-894.56826 4166.2093,-887.69046 4155.3125,-891.00687 C 4143.2312,-894.63123 4137.0899,-906.76283 4140.4063,-918.72562 C 4142.0645,-924.55304 4177.3438,-1047.9756 4177.3438,-1047.9756 L 4120.7188,-1047.9756 C 4137.3009,-1026.9401 4139.2105,-996.53419 4131.1563,-968.91312 C 4117.6538,-923.52558 4085.2053,-893.95542 4043.75,-892.91312 L 3852.0938,-892.91312 L 3839.5313,-893.50687 C 3829.5821,-896.5864 3822.25,-905.86864 3822.25,-916.69437 C 3822.25,-926.57256 3834.0938,-941.38187 3834.0938,-941.38187 L 3921.75,-1076.8506 L 3929.5625,-1089.1006 L 3860.1563,-1089.0694 C 3849.0226,-1089.401 3840.25,-1098.6837 3840.25,-1110.0069 C 3840.25,-1121.3301 3849.0226,-1130.5815 3860.1563,-1130.9131 L 3970.7813,-1130.9131 C 3985.942,-1129.6339 3993.0572,-1112.4474 3986.1875,-1099.6319 L 3976.2188,-1083.4756 L 3971.9688,-1076.8506 L 3881.7188,-933.72562 L 3981.6875,-933.38187 C 3967.948,-954.22792 3959.4126,-986.1595 3969.125,-1013.7569 C 3978.8373,-1041.0225 3995.904,-1063.8455 4016.75,-1076.8506 C 4029.7788,-1084.8574 4043.9642,-1089.1702 4059.125,-1088.5069 L 4189.4375,-1088.5069 L 4200.5625,-1125.8506 C 4201.2731,-1128.0774 4201.7399,-1129.2226 4202.6875,-1130.9756 C 4206.9514,-1137.6558 4216.4238,-1144.2779 4228.0313,-1140.8194 C 4237.0329,-1138.0241 4243.1926,-1128.8992 4242.7188,-1119.1631 C 4242.7188,-1116.9127 4242.492,-1115.0613 4241.7813,-1112.8819 L 4234.9063,-1088.5069 L 4268.3125,-1088.5069 L 4279.2188,-1125.9756 C 4279.9295,-1128.2023 4280.3963,-1129.2 4281.3438,-1130.8819 C 4285.1339,-1137.1358 4292.0034,-1141.7966 4300.5313,-1141.7256 C 4302.9001,-1141.6782 4305.0243,-1141.3264 4307.1563,-1140.6631 C 4316.3949,-1137.773 4322.5625,-1129.1765 4322.5625,-1119.8194 C 4322.5625,-1117.6401 4322.3356,-1115.1786 4321.625,-1112.9756 L 4314.9688,-1088.5069 L 4357.8438,-1088.5069 C 4338.6559,-1150.1922 4299.1129,-1205.4225 4241.3125,-1244.3194 C 4191.0333,-1278.2712 4133.9962,-1294.5177 4077.5625,-1294.4756 z M 4056.2188,-1050.9444 C 4034.3835,-1050.6918 4012.5869,-1029.4068 4005.125,-1003.6631 C 3996.597,-974.21805 4007.9675,-941.94264 4031.6563,-935.47562 C 4057.9508,-928.1795 4085.9227,-949.02303 4094.6875,-978.44437 C 4103.2155,-1007.8895 4090.4045,-1042.7611 4065.5313,-1049.7256 C 4062.4517,-1050.5962 4059.3381,-1050.9805 4056.2188,-1050.9444 z " id="path38266" style="fill:#ec192e;fill-rule:evenodd;stroke:none;stroke-width:0.072;stroke-linecap:butt;stroke-linejoin:miter;stroke-miterlimit:3.86400008;stroke-dasharray:none"/>
			
    
		</g>
		
  
	</g>
	

</svg>
