<svg xmlns="http://www.w3.org/2000/svg" viewBox="0.0 0.0 24.0 24.0" height="200px" width="200px"><path fill="none" stroke="black" stroke-width=".3" stroke-opacity="1.0"  filling="0" d="M10.97912883758545 6.586726665496826 L10.97912883758545 6.586726665496826 C13.094472885131836 7.334815502166748 13.684332847595215 8.580522537231445 12.016894340515137 10.22614574432373 L11.727285385131836 10.438525199890137 L12.871240615844727 11.64522933959961 L14.777831077575684 9.646927833557129 L14.777831077575684 11.41836929321289 L13.720759391784668 12.528536796569824 L15.429451942443848 14.324110984802246 L13.59526252746582 14.324110984802246 L12.813318252563477 13.508379936218262 C12.21786117553711 13.95799446105957 11.647239685058594 14.581806182861328 10.786056518554688 14.468915939331055 C9.140569686889648 14.253212928771973 7.808351516723633 12.92306900024414 8.838435173034668 11.27416706085205 C9.069127082824707 10.904889106750488 9.467531204223633 10.672021865844727 9.782078742980957 10.370948791503906 L9.719329833984375 10.206838607788086 C8.663848876953125 8.126381874084473 8.721173286437988 7.393003940582275 10.97912883758545 6.586726665496826 L10.97912883758545 6.586726665496826"></path>
<path fill="none" stroke="black" stroke-width=".3" stroke-opacity="1.0"  filling="0" d="M10.230973243713379 8.517452239990234 L10.230973243713379 8.517452239990234 C11.316490173339844 7.4035563468933105 11.999048233032227 8.048563957214355 11.254257202148438 9.284915924072266 L10.88259220123291 9.564871788024902 L10.679866790771484 9.342838287353516 C10.530235290527344 9.067709922790527 10.38060474395752 8.792580604553223 10.230973243713379 8.517452239990234 L10.230973243713379 8.517452239990234"></path>
<path fill="none" stroke="black" stroke-width=".3" stroke-opacity="1.0"  filling="0" d="M18.547574996948242 8.913251876831055 L18.547574996948242 8.913251876831055 C19.68696403503418 9.205132484436035 20.30023956298828 9.106261253356934 20.937742233276367 10.255463600158691 C21.968053817749023 12.11276626586914 20.715595245361328 14.483396530151367 18.547574996948242 14.483396530151367 C16.37955665588379 14.483396530151367 15.127093315124512 12.112765312194824 16.157405853271484 10.255463600158691 C16.79490852355957 9.106263160705566 17.408185958862305 9.205132484436035 18.547574996948242 8.913251876831055 L18.547574996948242 8.913251876831055"></path>
<path fill="none" stroke="black" stroke-width=".3" stroke-opacity="1.0"  filling="0" d="M2.69631290435791 12.895373344421387 L2.69631290435791 12.895373344421387 C2.9830284118652344 12.205062866210938 3.586902141571045 11.601520538330078 4.269855976104736 11.297698020935059 L5.563441276550293 11.104625701904297 C5.726040840148926 10.951940536499023 7.147631645202637 9.862149238586426 5.071106433868408 10.047553062438965 C4.633418560028076 10.08663272857666 4.401787757873535 10.617116928100586 4.067128658294678 10.901899337768555 L2.8073301315307617 10.63642406463623 C3.589500904083252 9.184248924255371 5.176905155181885 8.066497802734375 6.8274641036987305 9.511173248291016 C7.2007598876953125 9.837905883789062 7.172179222106934 10.441542625427246 7.344536781311035 10.906726837158203 L7.344536781311035 13.493898391723633 C7.365452766418457 13.772245407104492 7.386369228363037 14.050591468811035 7.407285213470459 14.328938484191895 L6.1040449142456055 14.328938484191895 C6.086346626281738 14.11816692352295 6.068648338317871 13.90739631652832 6.050950050354004 13.696624755859375 L6.050950050354004 13.696624755859375 C4.300825119018555 14.574413299560547 3.539531707763672 14.811588287353516 2.69631290435791 12.895373344421387 L2.69631290435791 12.895373344421387"></path>
<path fill="none" stroke="black" stroke-width=".3" stroke-opacity="1.0"  filling="0" d="M18.547574996948242 13.194637298583984 L18.547574996948242 13.194637298583984 C17.273710250854492 12.673811912536621 16.418392181396484 10.202012062072754 18.547574996948242 10.202012062072754 C20.673799514770508 10.202012062072754 19.828540802001953 12.676922798156738 18.547574996948242 13.194637298583984 L18.547574996948242 13.194637298583984"></path>
<path fill="none" stroke="black" stroke-width=".3" stroke-opacity="1.0"  filling="0" d="M10.810190200805664 13.22359848022461 L10.810190200805664 13.22359848022461 C10.507709503173828 12.932380676269531 9.968836784362793 12.764594078063965 9.902748107910156 12.349944114685059 C9.84116268157959 11.963547706604004 10.30820083618164 11.680625915527344 10.510927200317383 11.345966339111328 L11.963800430297852 12.596111297607422 C11.579263687133789 12.80527400970459 11.194726943969727 13.014435768127441 10.810190200805664 13.22359848022461 L10.810190200805664 13.22359848022461"></path>
<path fill="none" stroke="black" stroke-width=".3" stroke-opacity="1.0"  filling="0" d="M4.80080509185791 13.416669845581055 L4.80080509185791 13.416669845581055 C4.572335720062256 13.213943481445312 4.123523235321045 13.1138277053833 4.115396499633789 12.808491706848145 C4.107162952423096 12.499140739440918 4.549810409545898 12.367642402648926 4.767017364501953 12.147217750549316 L5.954413414001465 11.963798522949219 L5.954413414001465 12.200312614440918 C5.5698771476745605 12.605765342712402 5.1853413581848145 13.01121711730957 4.80080509185791 13.416669845581055 L4.80080509185791 13.416669845581055"></path>
<path fill="none" stroke="black" stroke-width=".3" stroke-opacity="1.0"  filling="0" d="M12.900200843811035 15.352224349975586 L13.262212753295898 15.352224349975586 L13.262212753295898 17.326391220092773 L12.900200843811035 17.326391220092773 L12.900200843811035 15.352224349975586"></path>
<path fill="none" stroke="black" stroke-width=".3" stroke-opacity="1.0"  filling="0" d="M5.930279731750488 15.357050895690918 L6.297117233276367 15.357050895690918 L6.297117233276367 16.100379943847656 C6.586686134338379 15.980690956115723 6.942129135131836 16.252981185913086 7.156290054321289 16.48169708251953 L7.156290054321289 17.326391220092773 L6.794279098510742 17.326391220092773 L6.794279098510742 16.54444694519043 C6.679316520690918 16.4228515625 6.408362865447998 16.419082641601562 6.292290687561035 16.53961944580078 L6.292290687561035 17.331218719482422 L5.930279731750488 17.331218719482422 L5.930279731750488 15.357050895690918"></path>
<path fill="none" stroke="black" stroke-width=".3" stroke-opacity="1.0"  filling="0" d="M10.49644660949707 15.583910942077637 L11.090145111083984 15.984537124633789 L10.819843292236328 16.872669219970703 C10.893223762512207 16.94382667541504 10.988313674926758 17.02632713317871 11.090145111083984 17.017475128173828 L11.090145111083984 17.31673812866211 C10.84872055053711 17.35697364807129 10.637703895568848 17.10648536682129 10.462658882141113 16.9354190826416 L10.28889274597168 15.984535217285156 C10.358077049255371 15.913742065429688 10.427262306213379 15.842948913574219 10.49644660949707 15.77215576171875 L10.49644660949707 15.583910942077637"></path>
<path fill="none" stroke="black" stroke-width=".3" stroke-opacity="1.0"  filling="0" d="M4.94078254699707 15.945921897888184 L4.94078254699707 15.945921897888184 C5.175687789916992 16.184043884277344 5.645497798919678 16.325801849365234 5.645497798919678 16.660289764404297 C5.645497798919678 17.612781524658203 4.236066818237305 17.612781524658203 4.236066818237305 16.660289764404297 C4.236066818237305 16.3257999420166 4.705877304077148 16.184043884277344 4.94078254699707 15.945921897888184 L4.94078254699707 15.945921897888184"></path>
<path fill="none" stroke="black" stroke-width=".3" stroke-opacity="1.0"  filling="0" d="M8.126481056213379 15.945921897888184 L8.126481056213379 15.945921897888184 C8.3613862991333 16.184043884277344 8.831195831298828 16.325801849365234 8.831195831298828 16.660289764404297 C8.831195831298828 17.612783432006836 7.421765327453613 17.612783432006836 7.421765327453613 16.660289764404297 C7.421765327453613 16.3257999420166 7.891575813293457 16.184043884277344 8.126481056213379 15.945921897888184 L8.126481056213379 15.945921897888184"></path>
<path fill="none" stroke="black" stroke-width=".3" stroke-opacity="1.0"  filling="0" d="M9.545564651489258 15.945921897888184 L9.545564651489258 15.945921897888184 C9.720939636230469 16.074636459350586 9.896313667297363 16.203351974487305 10.071688652038574 16.332067489624023 L9.767599105834961 16.399642944335938 C9.583158493041992 16.25128936767578 9.215293884277344 16.199695587158203 9.492469787597656 16.476871490478516 L9.685542106628418 16.515487670898438 C10.442672729492188 17.290857315063477 9.649396896362305 17.432497024536133 9.004961013793945 16.95472526550293 L9.318704605102539 16.88715171813965 C9.522175788879395 17.05471420288086 9.920953750610352 17.11446762084961 9.598660469055176 16.82440185546875 L9.420068740844727 16.785789489746094 C9.226222038269043 16.57951545715332 9.332537651062012 16.132320404052734 9.545564651489258 15.945921897888184 L9.545564651489258 15.945921897888184"></path>
<path fill="none" stroke="black" stroke-width=".3" stroke-opacity="1.0"  filling="0" d="M11.954145431518555 15.945921897888184 L11.954145431518555 15.945921897888184 C12.192994117736816 16.19697380065918 12.625645637512207 16.405807495117188 12.610591888427734 16.751998901367188 L11.650055885314941 16.751998901367188 C11.811083793640137 16.896923065185547 12.111766815185547 16.97353172302246 12.292022705078125 16.853363037109375 L12.60093879699707 16.945072174072266 C11.507353782653809 17.702831268310547 11.077813148498535 16.87982177734375 11.954145431518555 15.945921897888184 L11.954145431518555 15.945921897888184"></path>
<path fill="none" stroke="black" stroke-width=".3" stroke-opacity="1.0"  filling="0" d="M14.0779447555542 15.945921897888184 L14.0779447555542 15.945921897888184 C14.253318786621094 16.074636459350586 14.428692817687988 16.203351974487305 14.604066848754883 16.332067489624023 L14.299979209899902 16.399642944335938 C14.115537643432617 16.25128746032715 13.747673988342285 16.199695587158203 14.024849891662598 16.476871490478516 L14.21792221069336 16.515487670898438 C14.975053787231445 17.29085922241211 14.18177604675293 17.4324951171875 13.537341117858887 16.95472526550293 L13.851083755493164 16.88715171813965 C14.054553985595703 17.054716110229492 14.453332901000977 17.114469528198242 14.131040573120117 16.82440185546875 L13.952446937561035 16.785789489746094 C13.758600234985352 16.57951545715332 13.864917755126953 16.132320404052734 14.0779447555542 15.945921897888184 L14.0779447555542 15.945921897888184"></path>
<path fill="none" stroke="black" stroke-width=".3" stroke-opacity="1.0"  filling="0" d="M17.79941749572754 15.945921897888184 L17.79941749572754 15.945921897888184 C18.03432273864746 16.184043884277344 18.504133224487305 16.3257999420166 18.504133224487305 16.660289764404297 C18.504133224487305 17.612781524658203 17.094703674316406 17.612781524658203 17.094703674316406 16.660289764404297 C17.094703674316406 16.325801849365234 17.564512252807617 16.184043884277344 17.79941749572754 15.945921897888184 L17.79941749572754 15.945921897888184"></path>
<path fill="none" stroke="black" stroke-width=".3" stroke-opacity="1.0"  filling="0" d="M19.53224754333496 15.945921897888184 L19.53224754333496 15.945921897888184 C19.665788650512695 16.019933700561523 19.79932975769043 16.093944549560547 19.932870864868164 16.16795539855957 L19.932870864868164 16.16795539855957 C20.21561622619629 16.020156860351562 20.62505340576172 16.22658348083496 20.845138549804688 16.457563400268555 L20.845138549804688 17.326391220092773 L20.492782592773438 17.326391220092773 L20.492782592773438 16.529964447021484 C20.382444381713867 16.410619735717773 20.1169376373291 16.4215145111084 20.005273818969727 16.53961944580078 L20.005273818969727 17.326391220092773 L19.643260955810547 17.326391220092773 L19.643260955810547 16.529964447021484 C19.53292465209961 16.410619735717773 19.267417907714844 16.4215145111084 19.15575408935547 16.53961944580078 L19.15575408935547 17.326391220092773 L18.793743133544922 17.326391220092773 L18.793743133544922 15.984535217285156 L19.141273498535156 16.14864730834961 C19.27159881591797 16.081071853637695 19.40192222595215 16.01349639892578 19.53224754333496 15.945921897888184 L19.53224754333496 15.945921897888184"></path>
<path fill="none" stroke="black" stroke-width=".3" stroke-opacity="1.0"  filling="0" d="M11.954145431518555 16.2403564453125 L11.954145431518555 16.2403564453125 C12.053899765014648 16.328847885131836 12.153654098510742 16.417341232299805 12.253408432006836 16.50583267211914 L11.65488338470459 16.50583267211914 C11.754637718200684 16.417341232299805 11.854391098022461 16.328847885131836 11.954145431518555 16.2403564453125 L11.954145431518555 16.2403564453125"></path>
<path fill="none" stroke="black" stroke-width=".3" stroke-opacity="1.0"  filling="0" d="M16.312759399414062 16.278972625732422 L16.312759399414062 16.278972625732422 C15.888588905334473 16.744964599609375 16.043806076049805 17.23429298400879 16.62167739868164 16.80992317199707 L16.940248489379883 16.916112899780273 C15.362987518310547 18.05658531188965 15.34702205657959 15.255047798156738 16.935420989990234 16.39481544494629 L16.612022399902344 16.50583267211914 C16.51226806640625 16.430212020874023 16.412513732910156 16.35459327697754 16.312759399414062 16.278972625732422 L16.312759399414062 16.278972625732422"></path>
<path fill="none" stroke="black" stroke-width=".3" stroke-opacity="1.0"  filling="0" d="M2.788022041320801 16.964380264282227 L2.788022041320801 16.964380264282227 C2.9247817993164062 16.8292293548584 3.0615415573120117 16.694076538085938 3.198301315307617 16.55892562866211 L3.5265254974365234 16.510658264160156 C3.8187148571014404 16.23238182067871 3.325451135635376 16.30452537536621 3.145207405090332 16.457563400268555 L2.821810722351074 16.38998794555664 C3.1278247833251953 16.153406143188477 3.6892971992492676 16.202682495117188 3.9802465438842773 16.457563400268555 L3.9802465438842773 17.118837356567383 C3.9850730895996094 17.18963050842285 3.9898996353149414 17.26042366027832 3.9947261810302734 17.33121681213379 L3.6616764068603516 17.33121681213379 C3.6568496227264404 17.278121948242188 3.65202260017395 17.225027084350586 3.647195816040039 17.171932220458984 L3.647195816040039 17.171932220458984 C3.383671283721924 17.303693771362305 3.009753704071045 17.15839385986328 2.788022041320801 16.964380264282227 L2.788022041320801 16.964380264282227"></path>
<path fill="none" stroke="black" stroke-width=".3" stroke-opacity="1.0"  filling="0" d="M4.94078254699707 17.041608810424805 L4.94078254699707 17.041608810424805 C4.14318323135376 16.154138565063477 5.738381385803223 16.154138565063477 4.94078254699707 17.041608810424805 L4.94078254699707 17.041608810424805"></path>
<path fill="none" stroke="black" stroke-width=".3" stroke-opacity="1.0"  filling="0" d="M8.126481056213379 17.041608810424805 L8.126481056213379 17.041608810424805 C7.32888126373291 16.154138565063477 8.924079895019531 16.154138565063477 8.126481056213379 17.041608810424805 L8.126481056213379 17.041608810424805"></path>
<path fill="none" stroke="black" stroke-width=".3" stroke-opacity="1.0"  filling="0" d="M17.79941749572754 17.041608810424805 L17.79941749572754 17.041608810424805 C17.001815795898438 16.154138565063477 18.59701919555664 16.154138565063477 17.79941749572754 17.041608810424805 L17.79941749572754 17.041608810424805"></path>
<path fill="none" stroke="black" stroke-width=".3" stroke-opacity="1.0"  filling="0" d="M3.3237991333007812 17.094703674316406 L3.3237991333007812 17.094703674316406 C3.243220090866089 17.02307891845703 3.2427382469177246 16.84754180908203 3.318971633911133 16.77130699157715 L3.623061180114746 16.780960083007812 C3.5233070850372314 16.885541915893555 3.423553228378296 16.990121841430664 3.3237991333007812 17.094703674316406 L3.3237991333007812 17.094703674316406"></path>
<path fill="none" stroke="black" stroke-width=".3" stroke-opacity="1.0"  filling="0" d="M14.888849258422852 17.099531173706055 L14.888849258422852 17.099531173706055 C15.472304344177246 16.516077041625977 15.472302436828613 17.682985305786133 14.888849258422852 17.099531173706055 L14.888849258422852 17.099531173706055"></path></svg>