<svg xmlns="http://www.w3.org/2000/svg" viewBox="0.0 0.0 24.0 24.0" height="200px" width="200px"><path fill="none" stroke="black" stroke-width=".3" stroke-opacity="1.0"  filling="0" d="M1.1621313095092773 10.023649215698242 L1.2674369812011719 10.44172191619873 L1.1621313095092773 10.023649215698242"></path>
<path fill="none" stroke="black" stroke-width=".3" stroke-opacity="1.0"  filling="0" d="M1.1621313095092773 10.023723602294922 L1.2674369812011719 10.441758155822754 L1.1621313095092773 10.023723602294922"></path>
<path fill="none" stroke="black" stroke-width=".3" stroke-opacity="1.0"  filling="0" d="M1.1621313095092773 10.023723602294922 L1.2674369812011719 10.441758155822754 L1.1621313095092773 10.023723602294922"></path>
<path fill="none" stroke="black" stroke-width=".3" stroke-opacity="1.0"  filling="0" d="M1.2156362533569336 10.301104545593262 L1.2156362533569336 10.301104545593262"></path>
<path fill="none" stroke="black" stroke-width=".3" stroke-opacity="1.0"  filling="0" d="M1.2206764221191406 10.318370819091797 L1.2206764221191406 10.318370819091797 C1.233027458190918 10.31851863861084 1.2453784942626953 10.3186674118042 1.2577295303344727 10.318815231323242 L1.2577295303344727 10.318815231323242 C1.2545055150985718 10.318864822387695 1.2512813806533813 10.318914413452148 1.2480573654174805 10.318964004516602 L1.2480573654174805 10.318964004516602 C1.238930344581604 10.318766593933105 1.229803442955017 10.318568229675293 1.2206764221191406 10.318370819091797 L1.2206764221191406 10.318370819091797"></path>
<path fill="none" stroke="black" stroke-width=".3" stroke-opacity="1.0"  filling="0" d="M3.618885040283203 10.95384407043457 L4.979434967041016 13.811578750610352 L4.2024736404418945 13.811578750610352 C3.9936630725860596 13.260025024414062 3.7848527431488037 12.70847225189209 3.5760421752929688 12.1569185256958 L3.5760421752929688 12.1569185256958 C3.35295033454895 12.707314491271973 3.1298587322235107 13.257709503173828 2.906766891479492 13.80810546875 L2.2363338470458984 13.80810546875 L3.618885040283203 10.95384407043457"></path>
<path fill="none" stroke="black" stroke-width=".3" stroke-opacity="1.0"  filling="0" d="M12.733993530273438 11.862807273864746 L13.404424667358398 11.862807273864746 L13.404424667358398 12.176602363586426 L12.733993530273438 12.176602363586426 L12.733993530273438 11.862807273864746"></path>
<path fill="none" stroke="black" stroke-width=".3" stroke-opacity="1.0"  filling="0" d="M6.124613285064697 11.92996597290039 L6.124613285064697 11.92996597290039 C6.491905212402344 12.113808631896973 7.280152797698975 12.161965370178223 7.182947635650635 12.561030387878418 L6.470829486846924 12.561030387878418 C5.380352973937988 11.603616714477539 5.452995777130127 14.247611045837402 6.470829486846924 13.223358154296875 L7.182947635650635 13.219883918762207 C7.182947635650635 14.735408782958984 5.148916721343994 13.396599769592285 4.979434967041016 13.313675880432129 L4.979434967041016 12.682611465454102 C5.361161231994629 12.431729316711426 5.742887020111084 12.180848121643066 6.124613285064697 11.92996597290039 L6.124613285064697 11.92996597290039"></path>
<path fill="none" stroke="black" stroke-width=".3" stroke-opacity="1.0"  filling="0" d="M15.002348899841309 11.933440208435059 L15.002348899841309 11.933440208435059 C15.344269752502441 12.114363670349121 15.995841026306152 12.146403312683105 15.995841026306152 12.53324031829834 L15.26172161102295 12.53324031829834 C15.393627166748047 11.9500732421875 14.589820861816406 12.378458976745605 14.635290145874023 12.431344032287598 C14.9922513961792 12.846522331237793 16.292322158813477 12.844539642333984 16.017841339111328 13.318306922912598 C15.906566619873047 13.51037311553955 13.857170104980469 14.645770072937012 13.857170104980469 13.262727737426758 L14.613288879394531 13.262727737426758 C14.4819917678833 13.904619216918945 15.350698471069336 13.414156913757324 15.304563522338867 13.3646240234375 C14.931953430175781 12.964567184448242 14.034966468811035 13.017199516296387 13.922013282775879 12.482292175292969 C13.838560104370117 12.08708667755127 14.642236709594727 12.1163911819458 15.002348899841309 11.933440208435059 L15.002348899841309 11.933440208435059"></path>
<path fill="none" stroke="black" stroke-width=".3" stroke-opacity="1.0"  filling="0" d="M7.4203200340271 11.953125 L9.710676193237305 11.953125 L9.710676193237305 12.258814811706543 L8.954557418823242 12.258814811706543 L8.954557418823242 13.867158889770508 L8.19843864440918 13.867158889770508 L8.19843864440918 12.255341529846191 L7.4203200340271 12.255341529846191 L7.4203200340271 11.953125"></path>
<path fill="none" stroke="black" stroke-width=".3" stroke-opacity="1.0"  filling="0" d="M10.055734634399414 11.953125 L11.438285827636719 11.953125 C11.668710708618164 12.099408149719238 12.09880256652832 12.120777130126953 12.129560470581055 12.391975402832031 C12.158689498901367 12.648813247680664 11.740501403808594 12.732401847839355 11.545971870422363 12.902615547180176 L11.545971870422363 12.902615547180176 C11.808372497558594 13.184582710266113 12.140944480895996 13.477605819702148 12.194403648376465 13.859052658081055 L11.481128692626953 13.859052658081055 C11.416860580444336 13.334576606750488 11.362261772155762 13.039410591125488 10.769011497497559 13.047354698181152 L10.769011497497559 13.867158889770508 L10.055734634399414 13.867158889770508 L10.055734634399414 11.953125"></path>
<path fill="none" stroke="black" stroke-width=".3" stroke-opacity="1.0"  filling="0" d="M21.24466896057129 12.000598907470703 L21.24466896057129 12.000598907470703 C21.614343643188477 12.1809663772583 22.461885452270508 12.209039688110352 22.32500457763672 12.596925735473633 L21.590885162353516 12.596925735473633 C20.627880096435547 11.808755874633789 20.37286376953125 13.67523193359375 21.61172866821289 13.651786804199219 L21.61172866821289 13.219883918762207 L21.222667694091797 13.219883918762207 L21.222667694091797 12.925773620605469 L22.32500457763672 12.925773620605469 L22.32500457763672 13.898422241210938 C21.560626983642578 13.946491241455078 20.765649795532227 13.75411605834961 20.07864761352539 13.415572166442871 L20.07864761352539 12.718506813049316 C20.467321395874023 12.479204177856445 20.855995178222656 12.239901542663574 21.24466896057129 12.000598907470703 L21.24466896057129 12.000598907470703"></path>
<path fill="none" stroke="black" stroke-width=".3" stroke-opacity="1.0"  filling="0" d="M18.177350997924805 12.028388977050781 L19.085159301757812 12.028388977050781 L19.991806030273438 13.941265106201172 L19.214845657348633 13.941265106201172 L19.063156127929688 13.522100448608398 L18.112506866455078 13.522100448608398 L17.917980194091797 13.941265106201172 L17.24870491027832 13.941265106201172 L18.177350997924805 12.028388977050781"></path>
<path fill="none" stroke="black" stroke-width=".3" stroke-opacity="1.0"  filling="0" d="M10.769011497497559 12.232182502746582 L10.876696586608887 12.232182502746582 C11.59604549407959 12.535656929016113 11.397868156433105 12.780683517456055 10.769011497497559 12.769454956054688 L10.769011497497559 12.232182502746582"></path>
<path fill="none" stroke="black" stroke-width=".3" stroke-opacity="1.0"  filling="0" d="M18.588411331176758 12.290078163146973 L18.588411331176758 12.290078163146973 C18.703432083129883 12.602715492248535 18.818450927734375 12.915352821350098 18.9334716796875 13.22799015045166 L18.24219512939453 13.22799015045166 C18.357601165771484 12.915352821350098 18.473005294799805 12.602715492248535 18.588411331176758 12.290078163146973 L18.588411331176758 12.290078163146973"></path>
<path fill="none" stroke="black" stroke-width=".3" stroke-opacity="1.0"  filling="0" d="M12.733993530273438 12.47534465789795 L13.404424667358398 12.47534465789795 L13.404424667358398 13.86368465423584 L12.733993530273438 13.86368465423584 L12.733993530273438 12.47534465789795"></path></svg>