<svg xmlns="http://www.w3.org/2000/svg" viewBox="0.0 0.0 24.0 24.0" height="200px" width="200px"><path fill="none" stroke="black" stroke-width=".3" stroke-opacity="1.0"  filling="0" d="M7.013004779815674 7.9842119216918945 L7.013004779815674 7.9842119216918945 C7.326502323150635 8.061896324157715 7.6399993896484375 8.139579772949219 7.953496932983398 8.217264175415039 L6.792275428771973 9.984893798828125 C5.284514427185059 9.883033752441406 2.992763042449951 9.728991508483887 2.1344642639160156 11.428155899047852 C1.880440592765808 11.93104362487793 2.034503221511841 12.550520896911621 1.984522819519043 13.111703872680664 L1.984522819519043 13.111703872680664 C1.8042871952056885 12.512005805969238 1.4525169134140015 11.938745498657227 1.44381582736969 11.31260871887207 C1.4034587144851685 8.408462524414062 4.99333381652832 8.057424545288086 7.013004779815674 7.9842119216918945 L7.013004779815674 7.9842119216918945"></path>
<path fill="none" stroke="black" stroke-width=".3" stroke-opacity="1.0"  filling="0" d="M7.790225505828857 11.360644340515137 L9.139036178588867 11.862447738647461 L7.328835487365723 11.742890357971191 L6.865764141082764 12.141976356506348 L6.865764141082764 12.729660034179688 L7.328835487365723 13.130428314208984 L8.110167503356934 13.21125602722168 L8.76352310180664 12.620205879211426 L7.999029636383057 12.620205879211426 L7.999029636383057 12.340677261352539 L9.164292335510254 12.340677261352539 L9.164292335510254 12.977193832397461 L8.620393753051758 13.377963066101074 L7.285053730010986 13.43690013885498 L6.459939956665039 12.79028034210205 L6.650223731994629 11.801827430725098 L7.790225505828857 11.360644340515137"></path>
<path fill="none" stroke="black" stroke-width=".3" stroke-opacity="1.0"  filling="0" d="M20.948265075683594 11.360644340515137 L22.421682357788086 11.70247745513916 L22.18088150024414 11.946643829345703 L21.116653442382812 11.643540382385254 L20.340373992919922 11.91128158569336 L22.327381134033203 12.434976577758789 L22.556396484375 12.817222595214844 L22.354324340820312 13.214624404907227 L21.162120819091797 13.49583625793457 L19.78636932373047 13.125377655029297 L20.02716827392578 12.872791290283203 L21.20926856994629 13.21630859375 L22.105106353759766 12.940147399902344 L21.881149291992188 12.562952995300293 L20.006961822509766 12.158815383911133 L20.074317932128906 11.626701354980469 L20.948265075683594 11.360644340515137"></path>
<path fill="none" stroke="black" stroke-width=".3" stroke-opacity="1.0"  filling="0" d="M4.612698078155518 11.367380142211914 L4.929272174835205 11.367380142211914 L6.352169990539551 13.49583625793457 L5.9143548011779785 13.49583625793457 L5.532110691070557 12.936779975891113 L4.009860038757324 12.936779975891113 L3.639401435852051 13.49583625793457 L3.2032670974731445 13.49583625793457 L4.612698078155518 11.367380142211914"></path>
<path fill="none" stroke="black" stroke-width=".3" stroke-opacity="1.0"  filling="0" d="M14.1671781539917 11.367380142211914 L14.485433578491211 11.367380142211914 L15.910018920898438 13.49583625793457 L15.46883487701416 13.49583625793457 L15.088272094726562 12.936779975891113 L13.566020965576172 12.936779975891113 L13.197248458862305 13.49583625793457 L12.761115074157715 13.49583625793457 L14.1671781539917 11.367380142211914"></path>
<path fill="none" stroke="black" stroke-width=".3" stroke-opacity="1.0"  filling="0" d="M15.522720336914062 11.367380142211914 L15.963905334472656 11.367380142211914 L17.033184051513672 13.009187698364258 L18.100780487060547 11.367380142211914 L18.54869842529297 11.367380142211914 L16.9085750579834 13.49583625793457 L15.522720336914062 11.367380142211914"></path>
<path fill="none" stroke="black" stroke-width=".3" stroke-opacity="1.0"  filling="0" d="M18.861906051635742 11.367380142211914 L19.2694091796875 11.367380142211914 L19.2694091796875 13.49583625793457 L18.861906051635742 13.49583625793457 L18.861906051635742 11.367380142211914"></path>
<path fill="none" stroke="black" stroke-width=".3" stroke-opacity="1.0"  filling="0" d="M9.890058517456055 11.370747566223145 L12.252574920654297 11.581235885620117 L12.380552291870117 12.194177627563477 L11.78613567352295 12.579791069030762 L12.496744155883789 13.50088882446289 L12.038722038269043 13.499204635620117 L11.339898109436035 12.589895248413086 L10.290827751159668 12.589895248413086 L10.290827751159668 13.499204635620117 L9.890058517456055 13.499204635620117 L9.890058517456055 11.370747566223145"></path>
<path fill="none" stroke="black" stroke-width=".3" stroke-opacity="1.0"  filling="0" d="M10.292509078979492 11.653643608093262 L11.733932495117188 11.673850059509277 L11.996622085571289 12.07630443572998 L10.292509078979492 12.286791801452637 L10.292509078979492 11.653643608093262"></path>
<path fill="none" stroke="black" stroke-width=".3" stroke-opacity="1.0"  filling="0" d="M4.770985126495361 11.79509162902832 L5.340145111083984 12.642095565795898 L4.205192565917969 12.642095565795898 L4.770985126495361 11.79509162902832"></path>
<path fill="none" stroke="black" stroke-width=".3" stroke-opacity="1.0"  filling="0" d="M14.327146530151367 11.79509162902832 L14.897993087768555 12.642095565795898 L13.761354446411133 12.642095565795898 L14.327146530151367 11.79509162902832"></path>
<path fill="none" stroke="black" stroke-width=".3" stroke-opacity="1.0"  filling="0" d="M2.2052526473999023 13.49738597869873 L2.2052526473999023 13.49738597869873 C3.7812323570251465 15.392013549804688 5.715290546417236 16.052059173583984 7.7246198654174805 15.966687202453613 C9.733949661254883 15.881316184997559 11.818550109863281 15.050527572631836 13.695613861083984 13.96349048614502 L13.695613861083984 13.96349048614502 C11.566417694091797 14.790760040283203 9.712526321411133 15.275300979614258 7.881585121154785 15.252490997314453 C6.050642967224121 15.229681015014648 4.242650985717773 14.699520111083984 2.2052526473999023 13.49738597869873 L2.2052526473999023 13.49738597869873"></path>
<path fill="none" stroke="black" stroke-width=".3" stroke-opacity="1.0"  filling="0" d="M18.922527313232422 13.785468101501465 L18.922527313232422 13.785468101501465 C19.04502296447754 13.803750991821289 19.094240188598633 13.809122085571289 19.13974952697754 13.926916122436523 L19.065658569335938 13.93028450012207 C18.829965591430664 13.53744888305664 18.967435836791992 14.815279960632324 18.70025062561035 14.11214542388916 L18.772659301757812 14.107094764709473 C18.930856704711914 14.53300666809082 18.85951042175293 13.795798301696777 18.922527313232422 13.785468101501465 L18.922527313232422 13.785468101501465"></path>
<path fill="none" stroke="black" stroke-width=".3" stroke-opacity="1.0"  filling="0" d="M22.226348876953125 13.785468101501465 L22.226348876953125 13.785468101501465 C22.35283851623535 13.804347038269043 22.396278381347656 13.812548637390137 22.460411071777344 13.923547744750977 L22.391368865966797 13.940387725830078 C22.149381637573242 13.496707916259766 21.755098342895508 14.466001510620117 22.39642333984375 14.167715072631836 L22.47051429748535 14.19802474975586 C22.026865005493164 14.410202980041504 21.70728302001953 13.890448570251465 22.226348876953125 13.785468101501465 L22.226348876953125 13.785468101501465"></path>
<path fill="none" stroke="black" stroke-width=".3" stroke-opacity="1.0"  filling="0" d="M14.33220100402832 13.793888092041016 L14.586467742919922 13.793888092041016 C14.803101539611816 13.819003105163574 14.863261222839355 13.965699195861816 14.630249977111816 14.049840927124023 L14.630249977111816 14.049840927124023 C14.671340942382812 14.071146965026855 14.705730438232422 14.104241371154785 14.738019943237305 14.137404441833496 L14.667295455932617 14.166030883789062 C14.608196258544922 14.097973823547363 14.584081649780273 14.06184196472168 14.497222900390625 14.054893493652344 L14.33220100402832 14.265380859375 L14.33220100402832 13.793888092041016"></path>
<path fill="none" stroke="black" stroke-width=".3" stroke-opacity="1.0"  filling="0" d="M15.243192672729492 13.793888092041016 L15.558084487915039 14.265380859375 L15.024283409118652 14.265380859375 L15.243192672729492 13.793888092041016"></path>
<path fill="none" stroke="black" stroke-width=".3" stroke-opacity="1.0"  filling="0" d="M15.80898380279541 13.793888092041016 L15.884761810302734 14.265380859375 L15.80898380279541 13.793888092041016"></path>
<path fill="none" stroke="black" stroke-width=".3" stroke-opacity="1.0"  filling="0" d="M16.21985626220703 13.793888092041016 L16.605472564697266 13.793888092041016 L16.295635223388672 13.849456787109375 L16.563373565673828 14.049840927124023 L16.295635223388672 14.265380859375 L16.21985626220703 13.793888092041016"></path>
<path fill="none" stroke="black" stroke-width=".3" stroke-opacity="1.0"  filling="0" d="M16.883316040039062 13.793888092041016 L17.26892852783203 13.793888092041016 L16.957408905029297 13.849456787109375 L17.225149154663086 14.049840927124023 L16.957408905029297 14.265380859375 L16.883316040039062 13.793888092041016"></path>
<path fill="none" stroke="black" stroke-width=".3" stroke-opacity="1.0"  filling="0" d="M17.54509162902832 13.793888092041016 L17.959331512451172 13.793888092041016 L17.620866775512695 13.849456787109375 L17.937440872192383 14.04815673828125 L17.620866775512695 14.208127975463867 L17.972803115844727 14.265380859375 L17.54509162902832 14.265380859375 L17.54509162902832 13.793888092041016"></path>
<path fill="none" stroke="black" stroke-width=".3" stroke-opacity="1.0"  filling="0" d="M18.296113967895508 13.793888092041016 L18.37188720703125 14.265380859375 L18.296113967895508 13.793888092041016"></path>
<path fill="none" stroke="black" stroke-width=".3" stroke-opacity="1.0"  filling="0" d="M19.481582641601562 13.793888092041016 L19.894140243530273 13.793888092041016 L19.557357788085938 13.849456787109375 L19.873931884765625 14.04815673828125 L19.557357788085938 14.208127975463867 L19.90929412841797 14.265380859375 L19.481582641601562 14.265380859375 L19.481582641601562 13.793888092041016"></path>
<path fill="none" stroke="black" stroke-width=".3" stroke-opacity="1.0"  filling="0" d="M20.23260498046875 13.793888092041016 L20.609798431396484 14.164346694946289 L20.682205200195312 13.793888092041016 L20.682205200195312 14.265380859375 L20.305011749267578 13.894922256469727 L20.23260498046875 14.265380859375 L20.23260498046875 13.793888092041016"></path>
<path fill="none" stroke="black" stroke-width=".3" stroke-opacity="1.0"  filling="0" d="M21.47195816040039 13.793888092041016 L21.788532257080078 14.265380859375 L21.2530517578125 14.265380859375 L21.47195816040039 13.793888092041016"></path>
<path fill="none" stroke="black" stroke-width=".3" stroke-opacity="1.0"  filling="0" d="M15.281923294067383 13.844405174255371 L15.281923294067383 13.844405174255371 C15.294818878173828 13.876635551452637 15.308812141418457 13.908416748046875 15.322338104248047 13.940387725830078 L15.25161361694336 13.931967735290527 C15.261716842651367 13.902780532836914 15.271820068359375 13.873592376708984 15.281923294067383 13.844405174255371 L15.281923294067383 13.844405174255371"></path>
<path fill="none" stroke="black" stroke-width=".3" stroke-opacity="1.0"  filling="0" d="M21.51068878173828 13.844405174255371 L21.51068878173828 13.844405174255371 C21.528661727905273 13.874363899230957 21.539175033569336 13.908212661743164 21.55278778076172 13.940387725830078 L21.480379104614258 13.931967735290527 C21.490482330322266 13.902780532836914 21.500585556030273 13.873592376708984 21.51068878173828 13.844405174255371 L21.51068878173828 13.844405174255371"></path>
<path fill="none" stroke="black" stroke-width=".3" stroke-opacity="1.0"  filling="0" d="M14.409660339355469 13.846088409423828 L14.591522216796875 13.846088409423828 C14.764763832092285 13.883888244628906 14.72236442565918 13.985116958618164 14.572997093200684 14.001008987426758 L14.409660339355469 13.846088409423828"></path></svg>