<svg xmlns="http://www.w3.org/2000/svg" viewBox="0.0 0.0 24.0 24.0" height="200px" width="200px"><path fill="none" stroke="black" stroke-width=".3" stroke-opacity="1.0"  filling="0" d="M7.893197059631348 21.05622100830078 L8.863203048706055 21.05622100830078 L8.863203048706055 23.244388580322266 C9.152751922607422 23.560619354248047 9.303083419799805 24.193267822265625 9.731849670410156 24.193082809448242 C10.161294937133789 24.19289779663086 10.312409400939941 23.56011962890625 10.602688789367676 23.243637084960938 L10.602688789367676 21.05622100830078 L11.571941375732422 23.250215530395508 C11.152654647827148 24.361970901489258 9.930251121520996 26.151628494262695 8.43142318725586 24.678556442260742 C8.068547248840332 24.321916580200195 8.072606086730957 23.726329803466797 7.893197059631348 23.250215530395508 L7.893197059631348 21.05622100830078"></path>
<path fill="none" stroke="black" stroke-width=".3" stroke-opacity="1.0"  filling="0" d="M-3.4701929092407227 21.06507682800293 L-1.4282045364379883 24.955928802490234 L-2.598668098449707 24.955928802490234 L-3.854246139526367 22.413860321044922 L-4.352819442749023 23.47782325744629 L-3.823409080505371 23.47782325744629 L-3.4063405990600586 24.33029556274414 L-4.747106552124023 24.33029556274414 L-5.040813446044922 24.955900192260742 L-6.208332061767578 24.955215454101562 L-4.24268913269043 21.065048217773438"></path>
<path fill="none" stroke="black" stroke-width=".3" stroke-opacity="1.0"  filling="0" d="M-0.26029205322265625 21.06728744506836 L-0.26029205322265625 24.957523345947266 L-1.228036880493164 24.957523345947266 L-0.26029205322265625 21.06728744506836"></path>
<path fill="none" stroke="black" stroke-width=".3" stroke-opacity="1.0"  filling="0" d="M4.950243949890137 21.88671112060547 L6.292516231536865 21.88671112060547 C6.450321197509766 22.040075302124023 6.443871974945068 22.395143508911133 6.284443378448486 22.54681968688965 L4.950257301330566 22.54681968688965"></path>
<path fill="none" stroke="black" stroke-width=".3" stroke-opacity="1.0"  filling="0" d="M3.654888153076172 22.358917236328125 L3.654888153076172 22.358917236328125 C3.3606793880462646 22.757387161254883 2.782872438430786 23.059123992919922 2.772261619567871 23.554325103759766 C2.7605819702148438 24.099409103393555 3.3234434127807617 24.495182037353516 3.599034309387207 24.96561050415039 L2.6386232376098633 24.96561050415039 L1.4241628646850586 22.807598114013672 L2.226743698120117 22.807598114013672 C2.389263391494751 22.657316207885742 2.7125167846679688 22.578096389770508 2.7143030166625977 22.35675048828125 C2.7160909175872803 22.135175704956055 2.3941614627838135 22.050315856933594 2.234090805053711 21.897098541259766 L1.0864496231079102 21.897098541259766 L1.0864496231079102 24.96556282043457 L0.1509838104248047 24.96624755859375 L0.1509838104248047 21.075328826904297 L2.1695337295532227 21.075328826904297 C2.7897422313690186 21.284048080444336 3.4090747833251953 21.752439498901367 3.654970169067383 22.358869552612305 L3.654970169067383 22.358869552612305"></path>
<path fill="none" stroke="black" stroke-width=".3" stroke-opacity="1.0"  filling="0" d="M14.006084442138672 22.572484970092773 L14.006084442138672 22.572484970092773 C15.375579833984375 23.197925567626953 16.14737319946289 25.123821258544922 13.734421730041504 25.036699295043945 C13.09174919128418 25.01349449157715 12.488094329833984 24.71900177001953 11.864930152893066 24.56015396118164 L12.153497695922852 23.788480758666992 C12.65695858001709 23.915266036987305 13.1448974609375 24.15457534790039 13.663881301879883 24.168834686279297 C15.496395111083984 24.21918296813965 11.93815803527832 22.959957122802734 11.961881637573242 22.178932189941406 C12.016858100891113 20.36899757385254 14.36243724822998 21.129695892333984 15.230870246887207 21.316158294677734 L14.924674987792969 22.107707977294922 C14.264892578125 21.91522216796875 11.596818923950195 21.436922073364258 14.00606918334961 22.572500228881836 L14.00606918334961 22.572500228881836"></path>
<path fill="none" stroke="black" stroke-width=".3" stroke-opacity="1.0"  filling="0" d="M7.087737083435059 22.95874786376953 L7.087737083435059 22.95874786376953 C7.259068012237549 23.2443904876709 7.712514877319336 23.501554489135742 7.601729393005371 23.815675735473633 C7.416560173034668 24.34070587158203 6.789119243621826 24.576885223388672 6.382814407348633 24.957490921020508 L4.014065742492676 24.955997467041016 L4.014065742492676 21.06507682800293 L6.293242931365967 21.06507682800293 C6.674076557159424 21.430994033813477 7.2314276695251465 21.675811767578125 7.435744285583496 22.162826538085938 C7.547767639160156 22.42984962463379 7.203712463378906 22.693450927734375 7.087696552276611 22.958763122558594 L7.087696552276611 22.958763122558594"></path>
<path fill="none" stroke="black" stroke-width=".3" stroke-opacity="1.0"  filling="0" d="M6.316071033477783 24.134323120117188 L4.950291633605957 24.134323120117188 L4.950291633605957 23.367721557617188 L6.316756248474121 23.367721557617188 C6.502909183502197 23.54276466369629 6.501664161682129 23.958709716796875 6.316023349761963 24.134296417236328 L6.316023349761963 24.134296417236328"></path></svg>