<svg xmlns="http://www.w3.org/2000/svg" viewBox="0.0 0.0 24.0 24.0" height="200px" width="200px"><path fill="none" stroke="black" stroke-width=".3" stroke-opacity="1.0"  filling="0" d="M19.88505744934082 9.395479202270508 L19.88505744934082 9.395479202270508 C20.34912109375 9.514037132263184 20.856090545654297 9.523037910461426 21.27724838256836 9.751152038574219 C23.058168411254883 10.715761184692383 23.05820083618164 13.28426742553711 21.27724838256836 14.248854637145996 C20.14457130432129 14.862327575683594 19.751684188842773 14.57440185546875 18.635013580322266 14.322224617004395 L16.303743362426758 14.506850242614746 L14.448702812194824 12.893352508544922 L14.448702812194824 14.506850242614746 L12.611054420471191 14.506850242614746 L12.611054420471191 9.576943397521973 L14.440446853637695 9.576943397521973 L14.540401458740234 11.152145385742188 L15.774809837341309 9.576943397521973 L17.91811752319336 9.576943397521973 L16.017757415771484 11.869215965270996 L17.509693145751953 13.324613571166992 C16.843914031982422 11.022933006286621 17.61231803894043 9.976099014282227 19.88505744934082 9.395479202270508 L19.88505744934082 9.395479202270508"></path>
<path fill="none" stroke="black" stroke-width=".3" stroke-opacity="1.0"  filling="0" d="M3.6787595748901367 9.576943397521973 L5.845606803894043 9.576943397521973 L7.648824691772461 13.404541969299316 L7.648824691772461 9.576943397521973 L9.486648559570312 9.576943397521973 L9.486648559570312 13.16475772857666 L12.081594467163086 13.16475772857666 L12.081594467163086 14.506850242614746 L6.169185161590576 14.506850242614746 L5.9063873291015625 13.883935928344727 L3.617979049682617 13.883935928344727 L3.355182647705078 14.506850242614746 L1.356271743774414 14.506850242614746 L3.6787595748901367 9.576943397521973"></path>
<path fill="none" stroke="black" stroke-width=".3" stroke-opacity="1.0"  filling="0" d="M19.88505744934082 10.893915176391602 L19.88505744934082 10.893915176391602 C20.25372314453125 11.262639045715332 20.991052627563477 11.47867488861084 20.991052627563477 12.00008773803711 C20.991052627563477 12.521459579467773 20.406429290771484 13.106084823608398 19.88505744934082 13.106084823608398 C19.363643646240234 13.106084823608398 18.77888298034668 12.521501541137695 18.77888298034668 12.00008773803711 C18.77888298034668 11.478632926940918 19.516332626342773 11.262639045715332 19.88505744934082 10.893915176391602 L19.88505744934082 10.893915176391602"></path>
<path fill="none" stroke="black" stroke-width=".3" stroke-opacity="1.0"  filling="0" d="M4.720110893249512 11.326054573059082 L5.382022380828857 12.658310890197754 L4.142343997955322 12.658310890197754 L4.720110893249512 11.326054573059082"></path>
<path fill="none" stroke="black" stroke-width=".3" stroke-opacity="1.0"  filling="0" d="M10.137845039367676 11.439184188842773 L12.081594467163086 11.439184188842773 L12.081594467163086 12.466483116149902 L10.137845039367676 12.466483116149902 L10.137845039367676 11.439184188842773"></path></svg>