<svg xmlns="http://www.w3.org/2000/svg" viewBox="0.0 0.0 24.0 24.0" height="200px" width="200px"><path fill="none" stroke="black" stroke-width=".3" stroke-opacity="1.0"  filling="0" d="M15.598865509033203 10.991012573242188 L15.598865509033203 10.991012573242188 C15.1364164352417 11.622632026672363 14.760956764221191 12.327534675598145 14.494574546813965 13.063634872436523 L14.494574546813965 13.063634872436523 C16.0435733795166 12.318598747253418 17.463407516479492 11.242149353027344 19.120330810546875 10.784895896911621 C20.564456939697266 10.386367797851562 22.03955841064453 10.68102741241455 23.386699676513672 11.32381820678711 C24.733840942382812 11.966608047485352 25.953022003173828 12.957529067993164 26.885303497314453 13.951520919799805 L27.34226417541504 13.951520919799805 C25.77562141418457 12.302797317504883 23.894451141357422 10.849422454833984 21.877601623535156 10.1648530960083 C19.86075210571289 9.480283737182617 17.708223342895508 9.564518928527832 15.598865509033203 10.991012573242188 L15.598865509033203 10.991012573242188"></path>
<path fill="none" stroke="black" stroke-width=".3" stroke-opacity="1.0"  filling="0" d="M15.479448318481445 14.109842300415039 L15.479448318481445 14.109842300415039 C15.117415428161621 14.419029235839844 14.75538158416748 14.728217124938965 14.393348693847656 15.03740406036377 L14.368571281433105 15.176183700561523 C14.348708152770996 15.19270133972168 14.32884407043457 15.209219932556152 14.308980941772461 15.225737571716309 L14.194820404052734 15.225737571716309 C14.175009727478027 15.242307662963867 14.155198097229004 15.258877754211426 14.135387420654297 15.275447845458984 L14.061057090759277 15.7068452835083 C14.075901985168457 15.720122337341309 14.090747833251953 15.733400344848633 14.105592727661133 15.74667739868164 L14.219754219055176 15.74667739868164 C14.232926368713379 15.758176803588867 14.246099472045898 15.76967716217041 14.259271621704102 15.781176567077637 L14.00695514678955 17.249277114868164 C14.020232200622559 17.26093292236328 14.033510208129883 17.2725887298584 14.04678726196289 17.284244537353516 L14.512996673583984 17.284244537353516 C14.917210578918457 16.945085525512695 14.779415130615234 16.26275062561035 14.88935375213623 15.74667739868164 L15.21160888671875 15.74667739868164 C15.229799270629883 15.730107307434082 15.247989654541016 15.713536262512207 15.266180038452148 15.696966171264648 L15.340509414672852 15.260550498962402 C15.327337265014648 15.248946189880371 15.314165115356445 15.23734188079834 15.300992965698242 15.225737571716309 L14.978581428527832 15.225737571716309 C14.965356826782227 15.21418571472168 14.952132225036621 15.20263385772705 14.938907623291016 15.191082000732422 L14.973563194274902 14.987691879272461 C15.151500701904297 14.827619552612305 15.38290786743164 14.73913860321045 15.593609809875488 14.625606536865234 L15.811738967895508 14.20895004272461 C15.879416465759277 14.073604583740234 15.837542533874512 14.1813325881958 15.479448318481445 14.109842300415039 L15.479448318481445 14.109842300415039"></path>
<path fill="none" stroke="black" stroke-width=".3" stroke-opacity="1.0"  filling="0" d="M13.374773025512695 14.16322135925293 L13.374773025512695 14.16322135925293 C13.354962348937988 14.179686546325684 13.335151672363281 14.196151733398438 13.315340995788574 14.212616920471191 L12.78467845916748 17.253101348876953 C12.797903060913086 17.26460075378418 12.811128616333008 17.27610206604004 12.824353218078613 17.287601470947266 L13.290407180786133 17.287601470947266 C13.310270309448242 17.271135330200195 13.330133438110352 17.254671096801758 13.349996566772461 17.238204956054688 L13.880658149719238 14.197720527648926 C13.867433547973633 14.1862211227417 13.854208946228027 14.174720764160156 13.840984344482422 14.16322135925293 L13.374773025512695 14.16322135925293"></path>
<path fill="none" stroke="black" stroke-width=".3" stroke-opacity="1.0"  filling="0" d="M18.569297790527344 14.625651359558105 L17.850143432617188 15.32504653930664 C17.8450984954834 15.34555435180664 17.872236251831055 15.362743377685547 17.88981819152832 15.374444007873535 L18.177574157714844 15.374444007873535 C18.190799713134766 15.386048316955566 18.204023361206055 15.397652626037598 18.217248916625977 15.409256935119629 L18.023738861083984 16.52029037475586 C17.990394592285156 16.864282608032227 18.342239379882812 17.546741485595703 18.68832015991211 17.278961181640625 L18.723133087158203 17.07071304321289 C18.55244255065918 16.872169494628906 18.33968162536621 16.77806282043457 18.361047744750977 16.52029037475586 L18.554401397705078 15.424154281616211 C18.574264526367188 15.407584190368652 18.594127655029297 15.391014099121094 18.613990783691406 15.374444007873535 L18.976076126098633 15.374444007873535 C18.995887756347656 15.357977867126465 19.015697479248047 15.341512680053711 19.03550910949707 15.32504653930664 L19.065303802490234 15.126676559448242 C19.052078247070312 15.115072250366211 19.038854598999023 15.103466987609863 19.0256290435791 15.091862678527832 L18.663543701171875 15.091862678527832 C18.650320053100586 15.0802583694458 18.637094497680664 15.06865406036377 18.623870849609375 15.057049751281738 L18.68832015991211 14.6604642868042 C18.675094604492188 14.648859977722168 18.6618709564209 14.637255668640137 18.648645401000977 14.625651359558105 L18.569297790527344 14.625651359558105"></path>
<path fill="none" stroke="black" stroke-width=".3" stroke-opacity="1.0"  filling="0" d="M11.655030250549316 15.012624740600586 L11.655030250549316 15.012624740600586 C11.307841300964355 15.303621292114258 10.960653305053711 15.594616889953613 10.61346435546875 15.885613441467285 L10.519220352172852 16.406238555908203 C10.438148498535156 17.350879669189453 11.654099464416504 17.12836265563965 11.704583168029785 17.239553451538086 L11.704583168029785 17.24927520751953 C11.71780776977539 17.26093101501465 11.731033325195312 17.2725887298584 11.744257926940918 17.284244537353516 L12.165932655334473 17.284244537353516 C12.18574333190918 17.267621994018555 12.205554962158203 17.250999450683594 12.22536563873291 17.234376907348633 L12.607367515563965 15.047280311584473 C12.59414291381836 15.035728454589844 12.580917358398438 15.024176597595215 12.567692756652832 15.012624740600586 L12.146174430847168 15.012624740600586 C12.027592658996582 15.125499725341797 11.813608169555664 15.053314208984375 11.655030250549316 15.012624740600586 L11.655030250549316 15.012624740600586"></path>
<path fill="none" stroke="black" stroke-width=".3" stroke-opacity="1.0"  filling="0" d="M16.589902877807617 15.012624740600586 L16.589902877807617 15.012624740600586 C16.242713928222656 15.303621292114258 15.895525932312012 15.594616889953613 15.548337936401367 15.885613441467285 L15.454092025756836 16.406238555908203 C15.373023986816406 17.350893020629883 16.588964462280273 17.128347396850586 16.63945770263672 17.239553451538086 L16.63945770263672 17.24927520751953 C16.652681350708008 17.26093101501465 16.66590690612793 17.2725887298584 16.67913055419922 17.284244537353516 L17.100807189941406 17.284244537353516 C17.120616912841797 17.267621994018555 17.14042854309082 17.250999450683594 17.16023826599121 17.234376907348633 L17.542240142822266 15.047280311584473 C17.529014587402344 15.035728454589844 17.515790939331055 15.024176597595215 17.502565383911133 15.012624740600586 L17.08104705810547 15.012624740600586 C16.962465286254883 15.125499725341797 16.74847984313965 15.053314208984375 16.589902877807617 15.012624740600586 L16.589902877807617 15.012624740600586"></path>
<path fill="none" stroke="black" stroke-width=".3" stroke-opacity="1.0"  filling="0" d="M21.917203903198242 15.091814994812012 L21.917203903198242 15.091814994812012 C21.5981388092041 15.361327171325684 21.279071807861328 15.630840301513672 20.960006713867188 15.900352478027344 L20.860740661621094 16.470687866210938 C20.716873168945312 18.003358840942383 22.099130630493164 16.885828018188477 22.204957962036133 17.00636863708496 L22.16998863220215 17.24927520751953 C22.183265686035156 17.26093101501465 22.196542739868164 17.2725887298584 22.209819793701172 17.284244537353516 L22.393291473388672 17.284244537353516 C22.413103103637695 17.26772689819336 22.432912826538086 17.251209259033203 22.45272445678711 17.234691619873047 L22.8198299407959 15.126784324645996 C22.806657791137695 15.115180015563965 22.793485641479492 15.103575706481934 22.78031349182129 15.091971397399902 L22.596527099609375 15.091971397399902 C22.57671546936035 15.108541488647461 22.55690574645996 15.12511157989502 22.537094116210938 15.141681671142578 L22.502437591552734 15.349931716918945 C22.46405601501465 15.396964073181152 22.085906982421875 15.13004207611084 21.917203903198242 15.091814994812012 L21.917203903198242 15.091814994812012"></path>
<path fill="none" stroke="black" stroke-width=".3" stroke-opacity="1.0"  filling="0" d="M19.749752044677734 15.091911315917969 L19.749752044677734 15.091911315917969 C19.72994041442871 15.108428955078125 19.71013069152832 15.124947547912598 19.690319061279297 15.141465187072754 L19.32321548461914 17.24921417236328 C19.336441040039062 17.2608699798584 19.349666595458984 17.27252769470215 19.362892150878906 17.284183502197266 L19.600934982299805 17.284183502197266 C19.620798110961914 17.267560958862305 19.640663146972656 17.250938415527344 19.660526275634766 17.234315872192383 L19.8836727142334 15.949846267700195 C20.261686325073242 15.632364273071289 20.524166107177734 15.592622756958008 20.741764068603516 15.39440631866455 L20.786300659179688 15.126726150512695 C20.773075103759766 15.115121841430664 20.759851455688477 15.103516578674316 20.746625900268555 15.091912269592285 L20.563152313232422 15.091912269592285 C20.407007217407227 15.146044731140137 19.96468162536621 15.446020126342773 19.928207397460938 15.404287338256836 L19.972902297973633 15.126725196838379 C19.95967674255371 15.115120887756348 19.946453094482422 15.103515625 19.9332275390625 15.091911315917969 L19.749752044677734 15.091911315917969"></path>
<path fill="none" stroke="black" stroke-width=".3" stroke-opacity="1.0"  filling="0" d="M31.20188331604004 15.091973304748535 L31.20188331604004 15.091973304748535 C30.88276481628418 15.361485481262207 30.56364631652832 15.630998611450195 30.24452781677246 15.900510787963867 L30.145265579223633 16.47084617614746 C30.001249313354492 18.00471305847168 31.35468864440918 16.904516220092773 31.434755325317383 17.011545181274414 L31.330629348754883 17.631591796875 C31.122325897216797 17.80847930908203 30.97135353088379 18.09807586669922 30.705720901489258 18.162254333496094 C30.522531509399414 18.206514358520508 30.409069061279297 17.824655532836914 30.22492790222168 17.86477279663086 L30.00177764892578 17.96889877319336 C29.809900283813477 18.15851593017578 30.394704818725586 18.510601043701172 30.656326293945312 18.44483184814453 C31.08970069885254 18.33588409423828 31.337427139282227 17.86618423461914 31.677976608276367 17.576860427856445 L32.104515075683594 15.126787185668945 C32.09123611450195 15.115182876586914 32.07796096801758 15.103577613830566 32.06468200683594 15.091973304748535 L31.881362915039062 15.091973304748535 C31.861499786376953 15.108543395996094 31.841636657714844 15.125114440917969 31.821773529052734 15.141684532165527 L31.78696060180664 15.349933624267578 C31.748003005981445 15.397504806518555 31.3707332611084 15.130279541015625 31.20188331604004 15.091973304748535 L31.20188331604004 15.091973304748535"></path>
<path fill="none" stroke="black" stroke-width=".3" stroke-opacity="1.0"  filling="0" d="M25.473342895507812 15.092000961303711 L25.473342895507812 15.092000961303711 C25.24420166015625 15.162527084350586 24.96162223815918 15.535542488098145 24.803897857666016 15.35498046875 L24.83855438232422 15.126815795898438 C24.82527732849121 15.115211486816406 24.812002182006836 15.103607177734375 24.798725128173828 15.092002868652344 L24.615407943725586 15.092002868652344 C24.595544815063477 15.108572959899902 24.575679779052734 15.125143051147461 24.555816650390625 15.14171314239502 L24.18871307373047 17.249618530273438 C24.201990127563477 17.261117935180664 24.215269088745117 17.272619247436523 24.228546142578125 17.28411865234375 L24.466590881347656 17.28411865234375 C24.48640251159668 17.26765251159668 24.50621223449707 17.251188278198242 24.526023864746094 17.234722137451172 L24.759206771850586 15.900541305541992 C24.81247901916504 15.85385513305664 25.94926643371582 14.709129333496094 25.815513610839844 15.900541305541992 L25.58232879638672 17.24962043762207 C25.595605850219727 17.261119842529297 25.608884811401367 17.272621154785156 25.622161865234375 17.284120559692383 L25.86020278930664 17.284120559692383 C27.041444778442383 16.302387237548828 26.033945083618164 15.620699882507324 25.473342895507812 15.092000961303711 L25.473342895507812 15.092000961303711"></path>
<path fill="none" stroke="black" stroke-width=".3" stroke-opacity="1.0"  filling="0" d="M28.94020652770996 15.092000961303711 L28.94020652770996 15.092000961303711 C28.710973739624023 15.162555694580078 28.429040908813477 15.534910202026367 28.270450592041016 15.35498046875 L28.305419921875 15.126815795898438 C28.292194366455078 15.115211486816406 28.27897071838379 15.103607177734375 28.265745162963867 15.092002868652344 L28.082271575927734 15.092002868652344 C28.062461853027344 15.108572959899902 28.04265022277832 15.125143051147461 28.02284049987793 15.14171314239502 L27.655736923217773 17.249618530273438 C27.668909072875977 17.261117935180664 27.68208122253418 17.272619247436523 27.695253372192383 17.28411865234375 L27.933612823486328 17.28411865234375 C27.95342445373535 17.26765251159668 27.973234176635742 17.251188278198242 27.993045806884766 17.234722137451172 L28.225915908813477 15.900541305541992 C28.280927658081055 15.85234260559082 29.414113998413086 14.710152626037598 29.282533645629883 15.900541305541992 L29.049192428588867 17.24962043762207 C29.062469482421875 17.261119842529297 29.075748443603516 17.272621154785156 29.089025497436523 17.284120559692383 L29.327070236206055 17.284120559692383 C30.50957489013672 16.30388641357422 29.500011444091797 15.619945526123047 28.94020652770996 15.092000961303711 L28.94020652770996 15.092000961303711"></path>
<path fill="none" stroke="black" stroke-width=".3" stroke-opacity="1.0"  filling="0" d="M23.57878303527832 15.09200382232666 L23.57878303527832 15.09200382232666 C23.558971405029297 15.108573913574219 23.539161682128906 15.125144004821777 23.519350051879883 15.141714096069336 L23.15224838256836 17.24962043762207 C23.165369033813477 17.261119842529297 23.17848777770996 17.272621154785156 23.191608428955078 17.284120559692383 L23.43012237548828 17.284120559692383 C23.449934005737305 17.267654418945312 23.469743728637695 17.251190185546875 23.48955535888672 17.234724044799805 L23.856346130371094 15.126816749572754 C23.843225479125977 15.115212440490723 23.830106735229492 15.103608131408691 23.816986083984375 15.09200382232666 L23.57878303527832 15.09200382232666"></path>
<path fill="none" stroke="black" stroke-width=".3" stroke-opacity="1.0"  filling="0" d="M27.04555320739746 15.09200382232666 L27.04555320739746 15.09200382232666 C27.02569007873535 15.108573913574219 27.00582504272461 15.125144004821777 26.9859619140625 15.141714096069336 L26.618858337402344 17.24962043762207 C26.632081985473633 17.261119842529297 26.645307540893555 17.272621154785156 26.658531188964844 17.284120559692383 L26.896577835083008 17.284120559692383 C26.916440963745117 17.267654418945312 26.936304092407227 17.251190185546875 26.956167221069336 17.234724044799805 L27.323272705078125 15.126816749572754 C27.31009864807129 15.115212440490723 27.296926498413086 15.103608131408691 27.28375244140625 15.09200382232666 L27.04555320739746 15.09200382232666"></path>
<path fill="none" stroke="black" stroke-width=".3" stroke-opacity="1.0"  filling="0" d="M22.358638763427734 15.811124801635742 L22.358638763427734 15.811124801635742 C22.35529327392578 15.840920448303223 22.351947784423828 15.870715141296387 22.348602294921875 15.900510787963867 L22.249652862548828 16.470687866210938 C22.192638397216797 16.520700454711914 21.060388565063477 17.668399810791016 21.19303321838379 16.470687866210938 L21.29229736328125 15.900352478027344 C21.560550689697266 15.665262222290039 22.09823989868164 15.567364692687988 22.358638763427734 15.811126708984375 L22.358638763427734 15.811126708984375"></path>
<path fill="none" stroke="black" stroke-width=".3" stroke-opacity="1.0"  filling="0" d="M31.64300537109375 15.811124801635742 L31.64300537109375 15.811124801635742 C31.6397647857666 15.840920448303223 31.63652229309082 15.870715141296387 31.633281707763672 15.900510787963867 L31.534021377563477 16.470844268798828 C31.4769344329834 16.520915985107422 30.34514617919922 17.6680908203125 30.477712631225586 16.470844268798828 L30.5766658782959 15.900510787963867 C30.844982147216797 15.665487289428711 31.38264274597168 15.56732177734375 31.64300537109375 15.811126708984375 L31.64300537109375 15.811126708984375"></path>
<path fill="none" stroke="black" stroke-width=".3" stroke-opacity="1.0"  filling="0" d="M11.898563385009766 15.821004867553711 L11.898563385009766 15.821004867553711 C11.896943092346191 15.842540740966797 11.895322799682617 15.8640775680542 11.893702507019043 15.885613441467285 L11.799456596374512 16.406238555908203 C11.726341247558594 16.469636917114258 11.029890060424805 17.18061065673828 11.09018325805664 16.406238555908203 L11.184429168701172 15.885613441467285 C11.366933822631836 15.731271743774414 11.72676944732666 15.654825210571289 11.898564338684082 15.821004867553711 L11.898564338684082 15.821004867553711"></path>
<path fill="none" stroke="black" stroke-width=".3" stroke-opacity="1.0"  filling="0" d="M16.833436965942383 15.821004867553711 L16.833436965942383 15.821004867553711 C16.831764221191406 15.842540740966797 16.83009147644043 15.8640775680542 16.828418731689453 15.885613441467285 L16.734329223632812 16.406238555908203 C16.66121482849121 16.469636917114258 15.964761734008789 17.180612564086914 16.025054931640625 16.406238555908203 L16.119300842285156 15.885613441467285 C16.30180549621582 15.731270790100098 16.661640167236328 15.654825210571289 16.833436965942383 15.821004867553711 L16.833436965942383 15.821004867553711"></path>
<path fill="none" stroke="black" stroke-width=".3" stroke-opacity="1.0"  filling="0" d="M17.886104583740234 18.391265869140625 L17.886104583740234 18.391265869140625 C18.302448272705078 18.899240493774414 18.6668758392334 19.454631805419922 19.135133743286133 19.915191650390625 C20.232742309570312 20.994754791259766 22.313501358032227 22.281747817993164 24.307220458984375 22.714689254760742 C26.300941467285156 23.14763069152832 28.207618713378906 22.726520538330078 28.957061767578125 20.389869689941406 C29.160959243774414 19.754148483276367 29.047191619873047 19.057676315307617 29.092256546020508 18.391578674316406 L29.39867401123047 18.391578674316406 C29.424468994140625 20.681922912597656 28.50204086303711 22.25710105895996 27.05417251586914 23.06337547302246 C25.606304168701172 23.86964988708496 23.63299560546875 23.907020568847656 21.557025909423828 23.12175178527832 C20.314990997314453 22.651931762695312 19.24774742126465 21.9908447265625 18.29851722717285 21.186485290527344 C17.349285125732422 20.382125854492188 16.518070220947266 19.434492111206055 15.748088836669922 18.391578674316406 L15.748088836669922 18.391578674316406"></path></svg>