<svg xmlns="http://www.w3.org/2000/svg" viewBox="0.0 0.0 24.0 24.0" height="200px" width="200px"><path fill="none" stroke="black" stroke-width=".3" stroke-opacity="1.0"  filling="0" d="M11.203850746154785 6.146964073181152 L11.203850746154785 6.146964073181152 C12.840675354003906 6.225605010986328 14.800165176391602 6.417999744415283 16.546960830688477 7.020661354064941 C18.293758392333984 7.623322486877441 19.82785987854004 8.636251449584961 20.613906860351562 10.35595989227295 C21.813976287841797 12.981462478637695 20.3651123046875 14.844209671020508 18.178247451782227 16.05634117126465 C15.991382598876953 17.268474578857422 13.06651496887207 17.829992294311523 11.314577102661133 17.85303497314453 C9.53567886352539 17.876432418823242 6.605000019073486 17.360021591186523 4.404685020446777 16.18035316467285 C2.2043702602386475 15.000682830810547 0.7344197034835815 13.157754898071289 1.876979112625122 10.528117179870605 C2.6307082176208496 8.79338550567627 4.144654273986816 7.753002643585205 5.879054546356201 7.118850231170654 C7.613454341888428 6.484697341918945 9.568307876586914 6.25677490234375 11.203850746154785 6.146964073181152 L11.203850746154785 6.146964073181152"></path>
<path fill="none" stroke="black" stroke-width=".3" stroke-opacity="1.0"  filling="0" d="M11.210037231445312 6.884769916534424 L11.210037231445312 6.884769916534424 C13.172826766967773 7.019657611846924 13.835654258728027 6.938360214233398 15.692463874816895 7.543984413146973 C17.182863235473633 8.030098915100098 18.696578979492188 8.99888801574707 19.495769500732422 10.221553802490234 C20.294960021972656 11.444218635559082 20.379627227783203 12.920760154724121 19.011930465698242 14.422379493713379 C18.07595443725586 15.450004577636719 16.84932518005371 16.068071365356445 15.532428741455078 16.456804275512695 C14.215532302856445 16.845537185668945 12.808368682861328 17.00493621826172 11.511324882507324 17.11522674560547 L11.511324882507324 17.11522674560547 C13.405680656433105 15.797306060791016 13.6889009475708 14.15192699432373 14.234869003295898 11.981559753417969 L14.388664245605469 11.397469520568848 L15.667412757873535 11.397469520568848 L15.058774948120117 13.770710945129395 C16.27985954284668 14.866568565368652 16.60190773010254 14.66602611541748 17.936115264892578 13.838249206542969 L17.677900314331055 13.469425201416016 C15.57052230834961 13.42721939086914 16.721481323242188 12.30035400390625 17.130611419677734 10.727320671081543 L17.130611419677734 10.727320671081543 C16.735097885131836 10.749885559082031 16.339582443237305 10.772451400756836 15.944068908691406 10.795016288757324 L14.548528671264648 10.795016288757324 L14.831252098083496 9.737482070922852 C14.870183944702148 9.626822471618652 14.855823516845703 9.47800064086914 14.94804859161377 9.405503273010254 C15.229169845581055 9.184514045715332 15.566643714904785 8.75958251953125 15.89493465423584 8.901324272155762 C16.368675231933594 9.105865478515625 15.901849746704102 10.378484725952148 16.41747283935547 10.35849666595459 C16.760251998901367 10.345209121704102 17.35525131225586 10.161617279052734 17.296661376953125 9.82362174987793 C16.97471046447754 7.966341495513916 14.455942153930664 8.138899803161621 13.749211311340332 9.393167495727539 C13.504401206970215 9.827643394470215 13.400798797607422 10.327733039855957 13.226592063903809 10.795016288757324 L12.199875831604004 10.795016288757324 L12.212127685546875 11.397469520568848 L13.060660362243652 11.397469520568848 L12.574885368347168 13.192767143249512 C12.081005096435547 13.280901908874512 11.587125778198242 13.369036674499512 11.093245506286621 13.457171440124512 L12.378180503845215 8.477178573608398 C11.942943572998047 8.516247749328613 11.50523853302002 8.519448280334473 11.068615913391113 8.526313781738281 L9.826749801635742 13.340258598327637 C9.371788024902344 13.375104904174805 8.656444549560547 13.857524871826172 8.461864471435547 13.444798469543457 C8.435033798217773 13.387887001037598 9.192560195922852 10.58100414276123 9.298023223876953 10.186258316040039 L9.298023223876953 10.186258316040039 C8.859453201293945 10.202676773071289 8.420884132385254 10.219095230102539 7.982314109802246 10.235513687133789 L7.982314109802246 10.235513687133789 C7.955663681030273 10.342076301574707 7.929012775421143 10.448639869689941 7.90236234664917 10.55520248413086 L7.90236234664917 10.55520248413086 C7.90236234664917 10.55726432800293 7.90236234664917 10.559327125549316 7.90236234664917 10.561388969421387 L7.90236234664917 10.561388969421387 C6.289592742919922 9.830055236816406 5.087170600891113 10.464325904846191 4.6253838539123535 12.301286697387695 C4.394897937774658 13.218147277832031 4.475399971008301 14.58297061920166 5.867406845092773 14.637565612792969 C6.383333683013916 14.657800674438477 6.773181438446045 14.14164924621582 7.226068496704102 13.893691062927246 L7.226068496704102 13.893691062927246 C7.496578216552734 14.13958740234375 7.6720380783081055 14.628811836242676 8.03759765625 14.631380081176758 C8.687976837158203 14.63594913482666 9.246785163879395 14.15188217163086 9.85137939453125 13.91213321685791 L9.85137939453125 13.91213321685791 C10.132121086120605 14.15188217163086 10.324707984924316 14.6168794631958 10.693605422973633 14.631380081176758 C11.283905029296875 14.654582977294922 11.8002347946167 14.217450141906738 12.35354995727539 14.010485649108887 L12.13840389251709 14.803614616394043 C11.816654205322266 15.342573165893555 11.669443130493164 16.036176681518555 11.173154830932617 16.420490264892578 C10.657548904418945 16.81976318359375 9.92711353302002 16.805788040161133 9.304092407226562 16.998435974121094 L9.316465377807617 17.004623413085938 C7.5393171310424805 16.63626480102539 6.773499488830566 16.618783950805664 5.182040214538574 15.765524864196777 C3.4895286560058594 14.858085632324219 2.596503973007202 13.52092170715332 2.5449447631835938 12.163928031921387 C2.4933853149414062 10.806933403015137 3.2832913398742676 9.430109024047852 4.95664119720459 8.443347930908203 C6.920886039733887 7.285048484802246 8.993938446044922 7.077205657958984 11.210037231445312 6.884769916534424 L11.210037231445312 6.884769916534424"></path>
<path fill="none" stroke="black" stroke-width=".3" stroke-opacity="1.0"  filling="0" d="M21.815547943115234 8.846002578735352 L21.815547943115234 8.846002578735352 C23.304887771606445 10.33544635772705 20.315595626831055 10.331440925598145 21.815547943115234 8.846002578735352 L21.815547943115234 8.846002578735352"></path>
<path fill="none" stroke="black" stroke-width=".3" stroke-opacity="1.0"  filling="0" d="M21.815547943115234 8.950579643249512 L21.815547943115234 8.950579643249512 C23.01051902770996 10.18874740600586 20.610143661499023 10.18449878692627 21.815547943115234 8.950579643249512 L21.815547943115234 8.950579643249512"></path>
<path fill="none" stroke="black" stroke-width=".3" stroke-opacity="1.0"  filling="0" d="M21.56954574584961 9.116510391235352 L21.846200942993164 9.116510391235352 C21.95404624938965 9.2012357711792 22.007781982421875 9.42236042022705 21.913902282714844 9.522337913513184 L22.122859954833984 9.842022895812988 L21.68027114868164 9.528524398803711 L21.56954574584961 9.842022895812988 L21.56954574584961 9.116510391235352"></path>
<path fill="none" stroke="black" stroke-width=".3" stroke-opacity="1.0"  filling="0" d="M21.68027114868164 9.2087984085083 L21.827762603759766 9.2087984085083 C21.88974380493164 9.249283790588379 21.871265411376953 9.38952922821045 21.80936050415039 9.430130004882812 L21.68027114868164 9.2087984085083"></path>
<path fill="none" stroke="black" stroke-width=".3" stroke-opacity="1.0"  filling="0" d="M7.539608001708984 12.252068519592285 L7.539608001708984 12.252068519592285 C7.408698558807373 12.59893798828125 7.369521617889404 12.996220588684082 7.146880149841309 13.29267692565918 C5.869325637817383 14.993792533874512 5.320242881774902 10.865399360656738 7.035507678985596 10.831859588623047 C7.5377516746521 10.822038650512695 7.371574401855469 11.778665542602539 7.539608001708984 12.252068519592285 L7.539608001708984 12.252068519592285"></path></svg>