<svg xmlns="http://www.w3.org/2000/svg" viewBox="0.0 0.0 24.0 24.0" height="200px" width="200px"><path fill="none" stroke="black" stroke-width=".3" stroke-opacity="1.0"  filling="0" d="M52.89431381225586 15.541143417358398 L55.431732177734375 15.541143417358398 L55.43173599243164 21.92757797241211 L55.43173599243164 28.314014434814453 L55.431732177734375 34.70044708251953 L52.89431381225586 34.70044708251953 L52.894317626953125 28.314014434814453 L52.894317626953125 21.92757797241211 L52.89431381225586 15.541143417358398"></path>
<path fill="none" stroke="black" stroke-width=".3" stroke-opacity="1.0"  filling="0" d="M63.259429931640625 15.541143417358398 L63.259429931640625 15.541143417358398 C60.292137145996094 15.941899299621582 59.65083312988281 17.327199935913086 59.52507400512695 20.14763641357422 L59.52507400512695 26.32306671142578 L57.801307678222656 26.32306671142578 L57.801307678222656 28.90475082397461 L59.52507400512695 28.90475082397461 L59.52507400512695 32.06824493408203 L62.086544036865234 32.06824493408203 L62.086544036865234 28.904748916625977 L65.5814208984375 28.904748916625977 L65.5814208984375 26.32306671142578 L62.086544036865234 26.32306671142578 C62.15238571166992 25.00701141357422 62.1193962097168 23.6784725189209 62.13582229614258 22.356176376342773 C62.15224838256836 21.033878326416016 62.21809387207031 19.717824935913086 62.481597900390625 18.426740646362305 C62.573158264160156 17.978134155273438 63.351192474365234 18.139820098876953 63.78599166870117 17.996360778808594 L65.53356170654297 17.996360778808594 L65.53356170654297 15.541143417358398 L63.259429931640625 15.541143417358398"></path>
<path fill="none" stroke="black" stroke-width=".3" stroke-opacity="1.0"  filling="0" d="M103.54725646972656 16.983823776245117 L105.98898315429688 22.944286346435547 L108.43071746826172 28.90475082397461 L105.701904296875 28.90475082397461 L103.51143646240234 23.53915023803711 L101.32096862792969 18.17354965209961 C100.95221710205078 17.950658798217773 100.38949584960938 17.938560485839844 100.02833557128906 18.17354965209961 L97.92179870605469 23.53915023803711 L95.81526184082031 28.90475082397461 L93.1343002319336 28.90475082397461 L95.4562759399414 22.944286346435547 L97.77825164794922 16.983823776245117 C99.60836029052734 14.679309844970703 101.69866943359375 14.735246658325195 103.54724884033203 16.983823776245117 L103.54724884033203 16.983823776245117"></path>
<path fill="none" stroke="black" stroke-width=".3" stroke-opacity="1.0"  filling="0" d="M147.4855194091797 17.958370208740234 L147.4855194091797 17.958370208740234 C147.72305297851562 19.665111541748047 147.56028747558594 20.960582733154297 146.9003448486328 21.857086181640625 C146.24041748046875 22.753589630126953 145.08328247070312 23.251123428344727 143.33206176757812 23.361988067626953 L140.36376953125 23.361988067626953 C139.8889617919922 23.48434829711914 139.3215789794922 23.42195701599121 138.93936157226562 23.729068756103516 C137.4419708251953 24.93221664428711 139.3690948486328 26.06852149963379 140.219970703125 26.32306671142578 L147.20997619628906 26.32306671142578 L147.20997619628906 28.904748916625977 L140.19619750976562 28.904748916625977 C138.8588409423828 28.718942642211914 138.02694702148438 28.863924026489258 137.0362548828125 27.854328155517578 C135.7507781982422 26.544315338134766 135.67205810546875 23.63234519958496 136.95257568359375 22.286361694335938 C137.93943786621094 21.249042510986328 139.13339233398438 21.19532585144043 140.4354248046875 21.10939598083496 L143.4280242919922 21.10939598083496 C143.8867950439453 20.9954891204834 144.44090270996094 21.069948196411133 144.8043212890625 20.76767349243164 C146.32554626464844 19.502370834350586 144.52090454101562 18.403797149658203 143.57130432128906 18.148027420043945 L136.22256469726562 18.148027420043945 L136.22256469726562 15.541143417358398 L143.57125854492188 15.541143417358398 C145.705078125 15.883810043334961 146.41323852539062 16.081392288208008 147.48550415039062 17.958370208740234 L147.48550415039062 17.958370208740234"></path>
<path fill="none" stroke="black" stroke-width=".3" stroke-opacity="1.0"  filling="0" d="M49.30349349975586 18.22411346435547 L49.30349349975586 24.500648498535156 C48.91415023803711 27.339813232421875 47.78238296508789 28.686630249023438 44.899024963378906 28.904748916625977 L38.51246643066406 28.904748916625977 C38.106689453125 28.475692749023438 37.295135498046875 28.208126068115234 37.295135498046875 27.61758041381836 C37.295135498046875 27.027084350585938 38.0018196105957 26.627140045166016 38.51246643066406 26.33061981201172 C38.80100631713867 26.163070678710938 39.179786682128906 26.329845428466797 39.51344680786133 26.329456329345703 C41.30062484741211 26.327367782592773 43.087791442871094 26.325265884399414 44.874969482421875 26.323169708251953 L44.874969482421875 26.323169708251953 C45.37364959716797 26.145938873291016 45.98788070678711 26.156585693359375 46.371009826660156 25.791475296020508 C46.70608901977539 25.472156524658203 46.66627883911133 24.914104461669922 46.81391525268555 24.475418090820312 L46.81391525268555 23.463117599487305 L40.805419921875 23.463117599487305 C39.609371185302734 23.3897762298584 38.44489669799805 23.3418025970459 37.50220489501953 22.43832015991211 C36.08718490600586 21.082157135009766 36.20780944824219 17.99512481689453 37.538021087646484 16.62963104248047 C38.55400466918945 15.586700439453125 39.407554626464844 15.734291076660156 40.7816276550293 15.541219711303711 L46.694427490234375 15.541219711303711 C48.70536422729492 15.775318145751953 49.129085540771484 16.216045379638672 49.30348587036133 18.224111557006836 L49.30348587036133 18.224111557006836"></path>
<path fill="none" stroke="black" stroke-width=".3" stroke-opacity="1.0"  filling="0" d="M91.62308502197266 18.22411346435547 L91.62308502197266 24.500648498535156 C91.23375701904297 27.339811325073242 90.10197448730469 28.686630249023438 87.2186279296875 28.904748916625977 L80.83206939697266 28.904748916625977 C80.4262924194336 28.475692749023438 79.61473846435547 28.208126068115234 79.61473846435547 27.61758041381836 C79.61473846435547 27.027084350585938 80.32142639160156 26.627151489257812 80.83206939697266 26.33061981201172 C81.12057495117188 26.163082122802734 81.49932098388672 26.329845428466797 81.83294677734375 26.329456329345703 C83.62014770507812 26.327367782592773 85.40736389160156 26.325265884399414 87.19457244873047 26.323169708251953 L87.19457244873047 26.323169708251953 C87.69325256347656 26.145938873291016 88.30748748779297 26.156585693359375 88.69062042236328 25.791475296020508 C89.02569580078125 25.472158432006836 88.98588562011719 24.914104461669922 89.1335220336914 24.475418090820312 L89.1335220336914 23.463117599487305 L83.12503051757812 23.463117599487305 C81.928955078125 23.3897762298584 80.7643051147461 23.341751098632812 79.82154846191406 22.43832015991211 C78.4065170288086 21.08231544494629 78.52719116210938 17.994993209838867 79.85736846923828 16.62963104248047 C80.87334442138672 15.58677864074707 81.7273178100586 15.73426628112793 83.10124206542969 15.541219711303711 L89.0137710571289 15.541219711303711 C91.02486419677734 15.775289535522461 91.44867706298828 16.21587371826172 91.62309265136719 18.224111557006836 L91.62309265136719 18.224111557006836"></path>
<path fill="none" stroke="black" stroke-width=".3" stroke-opacity="1.0"  filling="0" d="M46.81391143798828 18.831680297851562 L46.81391143798828 21.33715057373047 L40.85326385498047 21.33715057373047 C40.3825569152832 21.19794273376465 39.81285095214844 21.24011993408203 39.44114685058594 20.91952896118164 C37.890281677246094 19.581920623779297 39.858699798583984 18.455562591552734 40.805419921875 18.148107528686523 L46.1197509765625 18.148107528686523 C46.351139068603516 18.375965118408203 46.58252716064453 18.603822708129883 46.81391525268555 18.831680297851562 L46.81391525268555 18.831680297851562"></path>
<path fill="none" stroke="black" stroke-width=".3" stroke-opacity="1.0"  filling="0" d="M89.1335220336914 18.831680297851562 L89.1335220336914 21.33715057373047 L83.17288208007812 21.33715057373047 C82.70208740234375 21.19794273376465 82.13227081298828 21.240175247192383 81.760498046875 20.91952896118164 C80.2095947265625 19.58189582824707 82.17855834960938 18.455425262451172 83.12503051757812 18.148107528686523 L88.43936157226562 18.148107528686523 C88.67074584960938 18.375965118408203 88.90213775634766 18.603822708129883 89.1335220336914 18.831680297851562 L89.1335220336914 18.831680297851562"></path>
<path fill="none" stroke="black" stroke-width=".3" stroke-opacity="1.0"  filling="0" d="M15.235936164855957 19.658321380615234 L15.235936164855957 19.658321380615234 C16.760818481445312 19.974864959716797 18.139238357543945 20.755828857421875 18.939208984375 21.8780574798584 C19.739181518554688 23.000288009643555 19.960708618164062 24.46378517150879 19.171804428100586 26.145397186279297 C18.41078758239746 27.767566680908203 17.713542938232422 27.804702758789062 16.232105255126953 28.543495178222656 L16.232105255126953 28.543495178222656 C16.64080238342285 28.099021911621094 17.13195037841797 27.718162536621094 17.45819854736328 27.21007537841797 C18.599695205688477 25.43235206604004 17.70224952697754 21.62481689453125 15.053812026977539 21.81635856628418 C12.159407615661621 22.02569007873535 16.412437438964844 26.092588424682617 12.915918350219727 26.488513946533203 C10.713668823242188 26.737882614135742 10.7176513671875 23.601581573486328 11.197427749633789 22.410690307617188 C11.9646635055542 20.506275177001953 13.41722297668457 20.03586769104004 15.23593807220459 19.658321380615234 L15.23593807220459 19.658321380615234"></path>
<path fill="none" stroke="black" stroke-width=".3" stroke-opacity="1.0"  filling="0" d="M121.50057983398438 21.957294464111328 L121.50057983398438 21.957294464111328 C122.13652038574219 23.004039764404297 122.54168701171875 24.42908477783203 122.41770935058594 25.714723587036133 C122.29373931884766 27.000362396240234 121.64064025878906 28.14659881591797 120.1600570678711 28.635732650756836 C119.5405044555664 28.840412139892578 118.86744689941406 28.81500816345215 118.22114562988281 28.904645919799805 L114.12754821777344 28.904645919799805 C111.24268341064453 28.689443588256836 110.11283111572266 27.343032836914062 109.72307586669922 24.500858306884766 L109.72307586669922 19.945219039916992 C110.11016082763672 17.102243423461914 111.24141693115234 15.756271362304688 114.12754821777344 15.541326522827148 L120.63046264648438 15.542057991027832 C121.04225158691406 15.97740650177002 121.86582946777344 16.24885368347168 121.86582946777344 16.848102569580078 C121.86582946777344 17.447324752807617 121.14911651611328 17.85393714904785 120.63046264648438 18.154043197631836 C120.3361587524414 18.324331283569336 119.95043182373047 18.1534366607666 119.61041259765625 18.15313148498535 C117.78279113769531 18.1514949798584 115.9551773071289 18.14985466003418 114.12754821777344 18.148212432861328 L114.12754821777344 18.148212432861328 C113.62886810302734 18.321191787719727 113.01364135742188 18.30303955078125 112.63150024414062 18.66714859008789 C112.29354095458984 18.989160537719727 112.33623504638672 19.55283546447754 112.1885986328125 19.99567985534668 L112.1885986328125 20.957544326782227 L118.19734954833984 20.957544326782227 C119.33875274658203 21.101112365722656 120.50090789794922 21.38800048828125 121.50056457519531 21.957294464111328 L121.50056457519531 21.957294464111328"></path>
<path fill="none" stroke="black" stroke-width=".3" stroke-opacity="1.0"  filling="0" d="M162.21926879882812 21.957294464111328 L162.21926879882812 21.957294464111328 C162.85520935058594 23.004037857055664 163.2603759765625 24.4290828704834 163.1363983154297 25.714725494384766 C163.01242065429688 27.0003662109375 162.3593292236328 28.146604537963867 160.87875366210938 28.635732650756836 C160.2592010498047 28.840412139892578 159.5861358642578 28.81500816345215 158.93983459472656 28.904645919799805 L154.84625244140625 28.904645919799805 C151.96139526367188 28.689443588256836 150.83154296875 27.343032836914062 150.4417724609375 24.500858306884766 L150.4417724609375 19.945219039916992 C150.82887268066406 17.102245330810547 151.96011352539062 15.756268501281738 154.84625244140625 15.541326522827148 L161.34915161132812 15.542057991027832 C161.7609405517578 15.97740650177002 162.58453369140625 16.248851776123047 162.58453369140625 16.848102569580078 C162.58453369140625 17.447328567504883 161.86781311035156 17.85394859313965 161.34915161132812 18.154043197631836 C161.0548095703125 18.324342727661133 160.66905212402344 18.1534366607666 160.32899475097656 18.15313148498535 C158.5014190673828 18.1514949798584 156.67381286621094 18.14985466003418 154.84625244140625 18.148212432861328 L154.84625244140625 18.148212432861328 C154.34765625 18.321191787719727 153.7325439453125 18.303096771240234 153.3504638671875 18.66714859008789 C153.01248168945312 18.989179611206055 153.0550079345703 19.55283546447754 152.90728759765625 19.99567985534668 L152.90728759765625 20.957544326782227 L158.91604614257812 20.957544326782227 C160.0574493408203 21.101112365722656 161.2196044921875 21.387998580932617 162.21925354003906 21.957294464111328 L162.21925354003906 21.957294464111328"></path>
<path fill="none" stroke="black" stroke-width=".3" stroke-opacity="1.0"  filling="0" d="M119.99250030517578 24.65273666381836 L119.99250030517578 24.65273666381836 C119.84886932373047 25.05765151977539 119.87615203857422 25.57481575012207 119.56161499023438 25.867481231689453 C119.21061706542969 26.194074630737305 118.65210723876953 26.171205520629883 118.19734954833984 26.32306671142578 L114.1275405883789 26.32306671142578 C113.62885284423828 26.14594078063965 113.01461029052734 26.156753540039062 112.63148498535156 25.79168701171875 C112.2963638305664 25.472366333007812 112.33621978759766 24.914243698120117 112.18859100341797 24.475522994995117 L112.18859100341797 23.058151245117188 L118.12518310546875 23.058151245117188 C118.60791778564453 23.201610565185547 119.19042205810547 23.161497116088867 119.5733871459961 23.488529205322266 C119.88703918457031 23.75636863708496 119.85279846191406 24.264667510986328 119.99250030517578 24.65273666381836 L119.99250030517578 24.65273666381836"></path>
<path fill="none" stroke="black" stroke-width=".3" stroke-opacity="1.0"  filling="0" d="M160.71119689941406 24.65273666381836 L160.71119689941406 24.65273666381836 C160.56756591796875 25.05765151977539 160.5948486328125 25.574817657470703 160.2803192138672 25.867481231689453 C159.9293212890625 26.194076538085938 159.3708038330078 26.171205520629883 158.91604614257812 26.32306671142578 L154.8462371826172 26.32306671142578 C154.34764099121094 26.14594078063965 153.7335205078125 26.156694412231445 153.35044860839844 25.79168701171875 C153.0153045654297 25.47234535217285 153.05499267578125 24.914243698120117 152.9072723388672 24.475522994995117 L152.9072723388672 23.058151245117188 L158.8438720703125 23.058151245117188 C159.3266143798828 23.201610565185547 159.90911865234375 23.161495208740234 160.29208374023438 23.488529205322266 C160.60572814941406 23.75636863708496 160.5714874267578 24.264667510986328 160.711181640625 24.65273666381836 L160.711181640625 24.65273666381836"></path>
<path fill="none" stroke="black" stroke-width=".3" stroke-opacity="1.0"  filling="0" d="M72.18836975097656 26.32306671142578 L76.64094543457031 26.32306671142578 L76.64094543457031 28.904748916625977 L71.44636535644531 28.904748916625977 C68.77926635742188 28.513057708740234 68.31383514404297 27.627519607543945 68.02313232421875 25.006824493408203 L68.02313232421875 20.273983001708984 L68.02313232421875 15.541143417358398 L70.56056213378906 15.541143417358398 L70.56056213378906 20.071552276611328 L70.56056213378906 24.60196304321289 C70.6961669921875 25.032230377197266 70.65739440917969 25.56501007080078 70.9673843383789 25.89276695251465 C71.26390838623047 26.20628547668457 71.78137969970703 26.17963409423828 72.1883773803711 26.32306671142578 L72.1883773803711 26.32306671142578"></path>
<path fill="none" stroke="black" stroke-width=".3" stroke-opacity="1.0"  filling="0" d="M129.73533630371094 26.32306671142578 L134.18765258789062 26.32306671142578 L134.18765258789062 28.904748916625977 L128.99307250976562 28.904748916625977 C126.32588958740234 28.513044357299805 125.86075592041016 27.627548217773438 125.57010650634766 25.006824493408203 L125.57010650634766 20.273983001708984 L125.57010650634766 15.541143417358398 L128.10726928710938 15.541143417358398 L128.10726928710938 20.071552276611328 L128.10726928710938 24.60196304321289 C128.242919921875 25.032230377197266 128.20419311523438 25.56502342224121 128.51422119140625 25.89276695251465 C128.810791015625 26.206289291381836 129.3282928466797 26.17963409423828 129.73533630371094 26.32306671142578 L129.73533630371094 26.32306671142578"></path>
<path fill="none" stroke="black" stroke-width=".3" stroke-opacity="1.0"  filling="0" d="M5.483675479888916 35.144317626953125 L5.483675479888916 35.144317626953125 C7.825758934020996 36.08110046386719 10.276601791381836 36.82360076904297 12.692373275756836 36.91693115234375 C15.108144760131836 37.01026153564453 17.488845825195312 36.45441436767578 19.69064712524414 34.79450607299805 C21.410385131835938 33.498016357421875 22.613508224487305 31.716894149780273 23.227832794189453 29.80086898803711 C23.8421573638916 27.884845733642578 23.86768341064453 25.83391571044922 23.232223510742188 23.997812271118164 C22.596763610839844 22.161706924438477 21.30031967163086 20.54042625427246 19.270706176757812 19.48369789123535 L19.270706176757812 19.48369789123535 C20.936214447021484 20.824525833129883 21.948795318603516 22.55381965637207 22.340486526489258 24.3687744140625 C22.732177734375 26.18372917175293 22.50297737121582 28.084346771240234 21.684917449951172 29.767826080322266 C20.866859436035156 31.451305389404297 19.459941864013672 32.91764831542969 17.49620246887207 33.86404800415039 C15.547792434692383 34.803062438964844 13.543931007385254 35.115196228027344 11.633525848388672 34.90888214111328 C9.72312068939209 34.70256805419922 7.906172275543213 33.97779846191406 6.331587314605713 32.8430061340332 C4.757001876831055 31.70821189880371 3.42478084564209 30.163393020629883 2.4838309288024902 28.316974639892578 C1.4553252458572388 26.298744201660156 1.0781033039093018 24.260643005371094 1.2420947551727295 22.007314682006836 C1.3471510410308838 20.563785552978516 1.6907012462615967 19.24589729309082 2.2129945755004883 17.998470306396484 C2.735288143157959 16.751041412353516 3.4363250732421875 15.574075698852539 4.256354808807373 14.41239070892334 L4.256354808807373 14.41239070892334 C3.319689989089966 16.754413604736328 2.5772461891174316 19.20525550842285 2.483920097351074 21.62102508544922 C2.390594005584717 24.036794662475586 2.946385383605957 26.41748809814453 4.606191158294678 28.61921501159668 C5.9026198387146 30.33892250061035 7.68365478515625 31.542068481445312 9.599613189697266 32.15645217895508 C11.515572547912598 32.770835876464844 13.566455841064453 32.79645538330078 15.402580261230469 32.16111755371094 C17.238704681396484 31.525779724121094 18.86007308959961 30.229480743408203 19.9169979095459 28.200023651123047 L19.9169979095459 28.200023651123047 C18.576059341430664 29.86529541015625 16.84670639038086 30.877702713012695 15.03172492980957 31.26927375793457 C13.216743469238281 31.660842895507812 11.316133499145508 31.431575775146484 9.632683753967285 30.613494873046875 C7.949234485626221 29.795413970947266 6.482944488525391 28.388519287109375 5.536601543426514 26.424840927124023 C4.597621917724609 24.4764404296875 4.285489082336426 22.472578048706055 4.491799831390381 20.56217384338379 C4.698110580444336 18.651771545410156 5.422865390777588 16.834827423095703 6.5576605796813965 15.260263442993164 C7.692455768585205 13.685698509216309 9.23729133605957 12.35351276397705 11.083765029907227 11.412626266479492 C13.102195739746094 10.384117126464844 15.139960289001465 10.006681442260742 17.39348030090332 10.170753479003906 C18.83697509765625 10.275850296020508 20.154830932617188 10.619443893432617 21.402225494384766 11.141770362854004 C22.649620056152344 11.664095878601074 23.826553344726562 12.365152359008789 24.988201141357422 13.185173988342285 L24.988201141357422 13.185173988342285 C22.646217346191406 12.24824333190918 20.195444107055664 11.505834579467773 17.779720306396484 11.412586212158203 C15.363995552062988 11.319337844848633 12.983320236206055 11.875247955322266 10.781527519226074 13.534955024719238 C9.061809539794922 14.83127498626709 7.858676433563232 16.6123104095459 7.2443132400512695 18.52829933166504 C6.629949569702148 20.444290161132812 6.604356288909912 22.4952335357666 7.239717960357666 24.331371307373047 C7.87507963180542 26.167510986328125 9.171396255493164 27.788843154907227 11.200854301452637 28.845609664916992 L11.200854301452637 28.845609664916992 C9.535477638244629 27.504703521728516 8.523037910461426 25.775360107421875 8.131467819213867 23.960378646850586 C7.739897727966309 22.145397186279297 7.9691972732543945 20.24477767944336 8.787299156188965 18.56131362915039 C9.605401039123535 16.877849578857422 11.012306213378906 15.411543846130371 12.975946426391602 14.465190887451172 C14.92430591583252 13.526202201843262 16.928163528442383 13.214082717895508 18.838581085205078 13.420408248901367 C20.748998641967773 13.626733779907227 22.565975189208984 14.3515043258667 24.140573501586914 15.486295700073242 C25.715171813964844 16.6210880279541 27.047393798828125 18.16590118408203 27.988296508789062 20.012310028076172 C29.01690101623535 22.030820846557617 29.39417266845703 24.068552017211914 29.230030059814453 26.322162628173828 C29.124889373779297 27.765697479248047 28.78129005432129 29.083572387695312 28.25895881652832 30.330982208251953 C27.73662757873535 31.578392028808594 27.035564422607422 32.75533676147461 26.21549415588379 33.917015075683594 L26.21549415588379 33.917015075683594 C27.152442932128906 31.574966430664062 27.89495086669922 29.12417984008789 27.988250732421875 26.708450317382812 C28.08155059814453 24.292720794677734 27.52564239501953 21.91204833984375 25.86576271057129 19.710233688354492 C24.5693359375 17.990535736083984 22.788341522216797 16.787429809570312 20.872434616088867 16.173080444335938 C18.956527709960938 15.558731079101562 16.90570831298828 15.533136367797852 15.069629669189453 16.1684627532959 C13.233551025390625 16.803787231445312 11.612213134765625 18.100032806396484 10.555270195007324 20.12936019897461 L10.555270195007324 20.12936019897461 C11.896181106567383 18.463970184326172 13.625480651855469 17.45155906677246 15.440401077270508 17.060028076171875 C17.255321502685547 16.668498992919922 19.155864715576172 16.897850036621094 20.83926010131836 17.715988159179688 C22.52265739440918 18.53412628173828 23.988906860351562 19.941051483154297 24.935243606567383 21.904666900634766 C25.87425422668457 23.85308265686035 26.18643569946289 25.856935501098633 25.980175018310547 27.767330169677734 C25.773914337158203 29.677724838256836 25.049213409423828 31.494659423828125 23.914461135864258 33.069236755371094 C22.779708862304688 34.64381408691406 21.234905242919922 35.976036071777344 19.388439178466797 36.91699981689453 C17.37002944946289 37.945587158203125 15.332145690917969 38.32268524169922 13.078639030456543 38.15863037109375 C11.635112762451172 38.05354309082031 10.31722640991211 37.7099609375 9.069794654846191 37.187652587890625 C7.822362899780273 36.665340423583984 6.6453857421875 35.96430587768555 5.483675479888916 35.14431381225586 L5.483675479888916 35.14431381225586"></path></svg>