<svg xmlns="http://www.w3.org/2000/svg" viewBox="0.0 0.0 24.0 24.0" height="200px" width="200px"><path fill="none" stroke="black" stroke-width=".3" stroke-opacity="1.0"  filling="0" d="M19.595359802246094 9.596673965454102 L19.595359802246094 9.596673965454102 C20.092605590820312 9.454498291015625 22.683080673217773 12.534014701843262 20.4822998046875 10.386335372924805 C20.198999404907227 10.109870910644531 19.70365333557129 9.977416038513184 19.595359802246094 9.596673965454102 L19.595359802246094 9.596673965454102"></path>
<path fill="none" stroke="black" stroke-width=".3" stroke-opacity="1.0"  filling="0" d="M15.301811218261719 10.477058410644531 L15.301811218261719 10.477058410644531 C15.87056827545166 10.249430656433105 16.400224685668945 9.870388984680176 17.008081436157227 9.794174194335938 C17.598960876464844 9.720088005065918 18.229463577270508 9.808121681213379 18.777429580688477 10.041275024414062 C19.368953704833984 10.292961120605469 20.72048568725586 10.94700813293457 20.207799911499023 11.334823608398438 C19.71280860900879 11.70925521850586 19.255504608154297 10.507235527038574 18.684404373168945 10.264211654663086 C18.174026489257812 10.047027587890625 17.586753845214844 9.965028762817383 17.03639793395996 10.034049034118652 C16.44428062438965 10.108305931091309 15.218515396118164 11.067971229553223 15.301811218261719 10.477058410644531 L15.301811218261719 10.477058410644531"></path>
<path fill="none" stroke="black" stroke-width=".3" stroke-opacity="1.0"  filling="0" d="M13.254460334777832 11.112117767333984 L13.254460334777832 11.112117767333984 C14.394338607788086 9.674046516418457 15.441451072692871 8.57403564453125 17.44736671447754 8.607272148132324 C18.062414169311523 8.617463111877441 19.45290756225586 8.535311698913574 19.224018096923828 9.106273651123047 C19.001108169555664 9.662315368652344 18.044300079345703 8.85916805267334 17.445323944091797 8.849194526672363 C16.912704467773438 8.840325355529785 16.370559692382812 8.936896324157715 15.870382308959961 9.120162010192871 C15.297894477844238 9.329922676086426 13.305368423461914 11.27607536315918 13.254460334777832 11.112117767333984 L13.254460334777832 11.112117767333984"></path>
<path fill="none" stroke="black" stroke-width=".3" stroke-opacity="1.0"  filling="0" d="M2.8126401901245117 11.54261589050293 L4.024846076965332 11.54261589050293 L5.4550347328186035 15.253798484802246 L4.370337963104248 15.253798484802246 L4.093944072723389 14.461652755737305 L2.700791358947754 14.461652755737305 L2.408489227294922 15.253798484802246 L1.4035797119140625 15.253798484802246 L2.8126401901245117 11.54261589050293"></path>
<path fill="none" stroke="black" stroke-width=".3" stroke-opacity="1.0"  filling="0" d="M6.040383338928223 11.542863845825195 L7.598081111907959 11.542863845825195 L8.395695686340332 14.009778022766113 L9.219905853271484 11.542863845825195 L10.719193458557129 11.542863845825195 L10.719193458557129 15.254047393798828 L9.751565933227539 15.254047393798828 L9.756786346435547 12.404109001159668 L8.810535430908203 15.254047393798828 L7.9013190269470215 15.254047393798828 L6.98688268661499 12.404109001159668 L7.008009910583496 15.254047393798828 L6.040383338928223 15.254047393798828 L6.040383338928223 11.542863845825195"></path>
<path fill="none" stroke="black" stroke-width=".3" stroke-opacity="1.0"  filling="0" d="M11.802397727966309 11.542863845825195 L14.418196678161621 11.542863845825195 L14.418196678161621 12.24478530883789 L12.791400909423828 12.24478530883789 L12.791400909423828 13.010335922241211 L14.327970504760742 13.010335922241211 L14.327970504760742 13.71200942993164 L12.791400909423828 13.71200942993164 L12.791400909423828 14.55212688446045 L14.476855278015137 14.55212688446045 L14.476855278015137 15.254047393798828 L11.802397727966309 15.254047393798828 L11.802397727966309 11.542863845825195"></path>
<path fill="none" stroke="black" stroke-width=".3" stroke-opacity="1.0"  filling="0" d="M3.4079322814941406 12.308415412902832 L3.8600549697875977 13.759979248046875 L2.929462432861328 13.759979248046875 L3.4079322814941406 12.308415412902832"></path>
<path fill="none" stroke="black" stroke-width=".3" stroke-opacity="1.0"  filling="0" d="M19.177291870117188 13.395100593566895 L19.177291870117188 13.395100593566895 C18.982227325439453 13.865999221801758 18.952512741088867 14.447383880615234 18.592098236083984 14.8077974319458 C17.354700088500977 16.045194625854492 15.181510925292969 15.14508056640625 15.181510925292969 13.395100593566895 C15.181510925292969 11.645118713378906 17.354700088500977 10.745006561279297 18.592098236083984 11.982403755187988 C18.952512741088867 12.342817306518555 18.982227325439453 12.924201965332031 19.177291870117188 13.395100593566895 L19.177291870117188 13.395100593566895"></path>
<path fill="none" stroke="black" stroke-width=".3" stroke-opacity="1.0"  filling="0" d="M19.94333839416504 14.339611053466797 L19.94333839416504 14.339611053466797 C20.283611297607422 14.421137809753418 20.615148544311523 14.609221458435059 20.964155197143555 14.584190368652344 C22.5417537689209 14.471041679382324 19.91879653930664 13.165246963500977 19.821048736572266 12.616872787475586 C19.56918716430664 11.203916549682617 21.77692985534668 11.528290748596191 22.394344329833984 11.617431640625 L22.330467224121094 12.382981300354004 C22.05573081970215 12.326311111450195 21.784847259521484 12.18012809753418 21.506256103515625 12.212969779968262 C19.847564697265625 12.408501625061035 22.46635627746582 13.385998725891113 22.596420288085938 14.095032691955566 C22.883394241333008 15.659453392028809 20.527671813964844 15.2549409866333 19.85833168029785 15.158353805541992 L19.94333839416504 14.339611053466797"></path></svg>