<svg xmlns="http://www.w3.org/2000/svg" viewBox="0.0 0.0 24.0 24.0" height="200px" width="200px"><path fill="none" stroke="black" stroke-width=".3" stroke-opacity="1.0"  filling="0" d="M13.67234992980957 7.690548896789551 L13.67234992980957 7.690548896789551 C14.068766593933105 8.06480598449707 14.46518325805664 8.439062118530273 14.861599922180176 8.813319206237793 L14.861599922180176 12.425389289855957 L12.741632461547852 12.425389289855957 L12.741632461547852 10.357128143310547 L9.196043968200684 12.425389289855957 L5.229414939880371 12.425389289855957 C6.376959800720215 11.753814697265625 7.525274276733398 11.083564758300781 8.674012184143066 10.414040565490723 C9.822750091552734 9.744516372680664 10.971912384033203 9.075719833374023 12.12115478515625 8.40705394744873 L12.12115478515625 8.40705394744873 C12.638219833374023 8.168218612670898 13.155284881591797 7.929383754730225 13.67234992980957 7.690548896789551 L13.67234992980957 7.690548896789551"></path>
<path fill="none" stroke="black" stroke-width=".3" stroke-opacity="1.0"  filling="0" d="M13.67234992980957 7.690548896789551 L13.67234992980957 7.690548896789551 C14.068766593933105 8.06480598449707 14.46518325805664 8.439062118530273 14.861599922180176 8.813319206237793 L14.861599922180176 12.425389289855957 L14.3740816116333 12.425389289855957 L14.3740816116333 8.883491516113281 C14.142633438110352 8.648350715637207 14.009631156921387 8.183476448059082 13.679737091064453 8.178068161010742 C12.48680305480957 8.158512115478516 11.573147773742676 9.300348281860352 10.544604301452637 9.904973030090332 C9.115202903747559 10.745241165161133 7.693098545074463 11.59803581237793 6.256158351898193 12.425389289855957 L5.229414939880371 12.425389289855957 C6.376959800720215 11.753814697265625 7.525274276733398 11.083564758300781 8.674012184143066 10.414040565490723 C9.822750091552734 9.744516372680664 10.971912384033203 9.075719833374023 12.12115478515625 8.40705394744873 L12.12115478515625 8.40705394744873 C12.638219833374023 8.168218612670898 13.155284881591797 7.929383754730225 13.67234992980957 7.690548896789551 L13.67234992980957 7.690548896789551"></path>
<path fill="none" stroke="black" stroke-width=".3" stroke-opacity="1.0"  filling="0" d="M15.19769287109375 7.694242477416992 L17.11821937561035 7.694242477416992 C19.080286026000977 8.536603927612305 18.81795883178711 9.08427906036377 17.657445907592773 10.770780563354492 L19.644451141357422 12.425389289855957 L16.70456886291504 12.425389289855957 L15.19769287109375 11.132725715637207 L15.19769287109375 7.694242477416992"></path>
<path fill="none" stroke="black" stroke-width=".3" stroke-opacity="1.0"  filling="0" d="M15.19769287109375 7.694242477416992 L17.11821937561035 7.694242477416992 C19.080286026000977 8.536603927612305 18.81795883178711 9.08427906036377 17.657445907592773 10.770780563354492 L19.644451141357422 12.425389289855957 L18.931640625 12.425389289855957 L16.475582122802734 10.357128143310547 C17.088520050048828 10.357128143310547 18.248109817504883 10.529788970947266 18.192975997924805 9.278677940368652 C18.170095443725586 8.759478569030762 17.45677375793457 8.544938087463379 17.088672637939453 8.178068161010742 L15.19769287109375 8.178068161010742 L15.19769287109375 7.694242477416992"></path>
<path fill="none" stroke="black" stroke-width=".3" stroke-opacity="1.0"  filling="0" d="M20.372039794921875 7.694242477416992 L22.25932502746582 7.694242477416992 L22.25932502746582 9.492891311645508 L21.635154724121094 9.492891311645508 C21.096996307373047 9.805770874023438 22.664764404296875 10.597768783569336 22.79854965209961 11.39864444732666 C22.85820770263672 11.755775451660156 22.562177658081055 12.083141326904297 22.443992614746094 12.425389289855957 L19.7700252532959 12.425389289855957 C20.414993286132812 10.857961654663086 17.797870635986328 9.638116836547852 19.256820678710938 8.172287940979004 C19.542139053344727 7.885624408721924 20.00029945373535 7.853590965270996 20.372039794921875 7.694242477416992 L20.372039794921875 7.694242477416992"></path>
<path fill="none" stroke="black" stroke-width=".3" stroke-opacity="1.0"  filling="0" d="M20.372039794921875 7.694242477416992 L22.25932502746582 7.694242477416992 L22.25932502746582 9.492891311645508 L21.635154724121094 9.492891311645508 C21.096996307373047 9.805770874023438 22.664764404296875 10.597768783569336 22.79854965209961 11.39864444732666 C22.85820770263672 11.755775451660156 22.562177658081055 12.083141326904297 22.443992614746094 12.425389289855957 L21.838287353515625 12.425389289855957 C22.006948471069336 12.094221115112305 22.39142608642578 11.800524711608887 22.34427261352539 11.431884765625 C22.150083541870117 9.913724899291992 19.91343879699707 10.395951271057129 21.55389976501465 9.03861141204834 L21.771806716918945 9.03861141204834 L21.771806716918945 8.178068161010742 L20.372039794921875 8.178068161010742 C20.01378631591797 8.538782119750977 19.3933048248291 8.760972023010254 19.297279357910156 9.260210990905762 C19.07652473449707 10.407923698425293 20.79489517211914 10.937013626098633 20.331409454345703 12.425389289855957 L19.7700252532959 12.425389289855957 C20.414993286132812 10.857961654663086 17.797870635986328 9.638116836547852 19.256820678710938 8.172287940979004 C19.542139053344727 7.885624408721924 20.00029945373535 7.853590965270996 20.372039794921875 7.694242477416992 L20.372039794921875 7.694242477416992"></path>
<path fill="none" stroke="black" stroke-width=".3" stroke-opacity="1.0"  filling="0" d="M15.19769287109375 9.034918785095215 L16.47188949584961 9.034918785095215 C16.58037567138672 9.154252052307129 16.581279754638672 9.400238037109375 16.47188949584961 9.518743515014648 L15.19769287109375 9.518743515014648 L15.19769287109375 9.034918785095215"></path>
<path fill="none" stroke="black" stroke-width=".3" stroke-opacity="1.0"  filling="0" d="M13.229150772094727 9.52243709564209 L13.229150772094727 12.425389289855957 L12.741632461547852 12.425389289855957 L12.741632461547852 10.357128143310547 L9.196043968200684 12.425389289855957 L8.294872283935547 12.425389289855957 L13.229150772094727 9.52243709564209"></path>
<path fill="none" stroke="black" stroke-width=".3" stroke-opacity="1.0"  filling="0" d="M15.19769287109375 10.563953399658203 L17.450618743896484 12.425389289855957 L16.70456886291504 12.425389289855957 L15.19769287109375 11.132725715637207 L15.19769287109375 10.563953399658203"></path>
<path fill="none" stroke="black" stroke-width=".3" stroke-opacity="1.0"  filling="0" d="M11.43789005279541 12.233335494995117 L11.43789005279541 12.233335494995117 C11.769058227539062 12.56450366973877 12.43139362335205 12.758498191833496 12.43139362335205 13.226840019226074 C12.43139362335205 14.551511764526367 10.44438648223877 14.551511764526367 10.44438648223877 13.226840019226074 C10.44438648223877 12.758498191833496 11.106721878051758 12.56450366973877 11.43789005279541 12.233335494995117 L11.43789005279541 12.233335494995117"></path>
<path fill="none" stroke="black" stroke-width=".3" stroke-opacity="1.0"  filling="0" d="M12.885672569274902 13.038479804992676 L17.762704849243164 13.038479804992676 L22.63973617553711 13.038479804992676 C22.691442489624023 13.09018611907959 22.74315071105957 13.14189338684082 22.794857025146484 13.193599700927734 L22.794857025146484 13.282238960266113 C22.74315071105957 13.333945274353027 22.691442489624023 13.385652542114258 22.63973617553711 13.437358856201172 L17.762704849243164 13.437358856201172 L12.885672569274902 13.437358856201172 C12.833966255187988 13.385652542114258 12.782258987426758 13.333945274353027 12.730552673339844 13.282238960266113 L12.730552673339844 13.193599700927734 C12.782258987426758 13.14189338684082 12.833966255187988 13.09018611907959 12.885672569274902 13.038479804992676 L12.885672569274902 13.038479804992676"></path>
<path fill="none" stroke="black" stroke-width=".3" stroke-opacity="1.0"  filling="0" d="M4.956109046936035 13.042173385620117 L9.975335121154785 13.042173385620117 C10.0270414352417 13.093879699707031 10.078747749328613 13.145586013793945 10.130454063415527 13.19729232788086 L10.130454063415527 13.285932540893555 C10.078747749328613 13.337638854980469 10.0270414352417 13.3893461227417 9.975335121154785 13.441052436828613 L4.956109046936035 13.441052436828613 C4.904402256011963 13.3893461227417 4.852695941925049 13.337638854980469 4.800989151000977 13.285932540893555 L4.800989151000977 13.19729232788086 C4.852695941925049 13.145586013793945 4.904402256011963 13.093879699707031 4.956109046936035 13.042173385620117 L4.956109046936035 13.042173385620117"></path>
<path fill="none" stroke="black" stroke-width=".3" stroke-opacity="1.0"  filling="0" d="M15.201385498046875 14.017210960388184 L15.201385498046875 14.017210960388184 C15.280176162719727 14.049220085144043 15.358967781066895 14.081228256225586 15.437758445739746 14.113237380981445 L16.737808227539062 15.963592529296875 C16.741500854492188 15.977133750915527 16.745195388793945 15.990675926208496 16.74888801574707 16.00421714782715 L16.74888801574707 16.033763885498047 C16.637239456176758 16.312883377075195 16.558496475219727 16.285966873168945 16.305688858032227 16.14456558227539 L15.980676651000977 15.66443157196045 L14.425787925720215 15.66443157196045 L14.104469299316406 16.14456558227539 C13.852041244506836 16.28575325012207 13.769524574279785 16.313629150390625 13.657576560974121 16.033763885498047 L13.657576560974121 16.00421714782715 C13.661270141601562 15.990675926208496 13.664962768554688 15.977133750915527 13.668656349182129 15.963592529296875 L14.972399711608887 14.113237380981445 C15.048727989196777 14.081228256225586 15.125057220458984 14.049220085144043 15.201385498046875 14.017210960388184 L15.201385498046875 14.017210960388184"></path>
<path fill="none" stroke="black" stroke-width=".3" stroke-opacity="1.0"  filling="0" d="M4.258071422576904 14.031984329223633 L4.258071422576904 14.031984329223633 C4.35902214050293 14.108312606811523 4.459972381591797 14.18464183807373 4.560923099517822 14.260970115661621 L4.560923099517822 14.260970115661621 C4.560923099517822 14.883837699890137 4.557651996612549 16.48835563659668 4.095564365386963 16.070697784423828 L4.095564365386963 15.66443157196045 L2.4705028533935547 15.66812515258789 C2.220587968826294 15.839249610900879 1.9706732034683228 16.010374069213867 1.7207584381103516 16.18149757385254 L1.7207584381103516 16.18149757385254 C1.4730392694473267 16.311254501342773 0.9360167980194092 16.170467376708984 1.3218793869018555 15.89341926574707 C1.597005009651184 15.695879936218262 3.5390453338623047 14.405207633972168 3.9662981033325195 14.120623588562012 L3.9662981033325195 14.120623588562012 C4.063555717468262 14.091076850891113 4.160813808441162 14.061531066894531 4.258071422576904 14.031984329223633 L4.258071422576904 14.031984329223633"></path>
<path fill="none" stroke="black" stroke-width=".3" stroke-opacity="1.0"  filling="0" d="M17.232711791992188 14.035676956176758 L17.232711791992188 14.035676956176758 C17.326276779174805 14.075072288513184 17.419841766357422 14.114468574523926 17.51340675354004 14.153863906860352 L19.197559356689453 15.586873054504395 L19.197559356689453 14.227729797363281 C19.3732852935791 13.958281517028809 19.452795028686523 14.014657020568848 19.670305252075195 14.227729797363281 L19.670305252075195 15.963592529296875 C19.552350997924805 16.09522247314453 19.323814392089844 16.216949462890625 19.168014526367188 16.13348388671875 L17.461698532104492 14.685702323913574 L17.461698532104492 16.048538208007812 C17.287124633789062 16.313215255737305 17.21390151977539 16.278076171875 16.98895263671875 16.048538208007812 L16.98895263671875 14.305289268493652 C17.013904571533203 14.130633354187012 17.06094741821289 14.077317237854004 17.232711791992188 14.035676956176758 L17.232711791992188 14.035676956176758"></path>
<path fill="none" stroke="black" stroke-width=".3" stroke-opacity="1.0"  filling="0" d="M20.312944412231445 14.035676956176758 L20.312944412231445 14.035676956176758 C20.407739639282227 14.075072288513184 20.502534866333008 14.114468574523926 20.59733009338379 14.153863906860352 L22.281484603881836 15.586873054504395 L22.281484603881836 14.227729797363281 C22.457210540771484 13.958282470703125 22.536718368530273 14.014657020568848 22.754230499267578 14.227729797363281 L22.754230499267578 15.963592529296875 C22.636274337768555 16.09522247314453 22.4071044921875 16.218122482299805 22.251937866210938 16.13348388671875 L20.545623779296875 14.685702323913574 L20.545623779296875 16.048538208007812 C20.371049880981445 16.313215255737305 20.29782485961914 16.278078079223633 20.0728759765625 16.048538208007812 L20.0728759765625 14.305289268493652 C20.092979431152344 14.12939167022705 20.141061782836914 14.077345848083496 20.312944412231445 14.035676956176758 L20.312944412231445 14.035676956176758"></path>
<path fill="none" stroke="black" stroke-width=".3" stroke-opacity="1.0"  filling="0" d="M9.894081115722656 14.0393705368042 L9.894081115722656 14.0393705368042 C9.97902774810791 14.078765869140625 10.063973426818848 14.11816120147705 10.148920059204102 14.157556533813477 L11.452662467956543 15.71613883972168 L12.726860046386719 14.157556533813477 C13.024823188781738 14.019371032714844 13.113232612609863 13.983049392700195 13.243924140930176 14.297903060913086 L13.243924140930176 16.052230834960938 C13.069748878479004 16.310686111450195 12.996173858642578 16.27814292907715 12.774872779846191 16.052230834960938 L12.774872779846191 14.826047897338867 L11.729662895202637 16.115018844604492 C11.56035041809082 16.1917724609375 11.34166145324707 16.190933227539062 11.17197036743164 16.115018844604492 L10.108293533325195 14.8186616897583 L10.108293533325195 16.052230834960938 C9.891809463500977 16.26871681213379 9.810407638549805 16.320058822631836 9.631855964660645 16.052230834960938 L9.631855964660645 14.279436111450195 C9.683064460754395 14.172565460205078 9.782373428344727 14.078933715820312 9.894081115722656 14.0393705368042 L9.894081115722656 14.0393705368042"></path>
<path fill="none" stroke="black" stroke-width=".3" stroke-opacity="1.0"  filling="0" d="M7.079769611358643 14.046756744384766 L9.144336700439453 14.046756744384766 C9.4147310256958 14.172061920166016 9.333691596984863 14.256030082702637 9.144336700439453 14.449329376220703 L8.346578598022461 14.449329376220703 L8.346578598022461 16.048538208007812 C8.131309509277344 16.26820182800293 8.04740047454834 16.323848724365234 7.873834133148193 16.048538208007812 L7.873834133148193 14.449329376220703 L7.079769611358643 14.449329376220703 C6.885526180267334 14.255085945129395 6.804328918457031 14.171360969543457 7.079769611358643 14.046756744384766 L7.079769611358643 14.046756744384766"></path>
<path fill="none" stroke="black" stroke-width=".3" stroke-opacity="1.0"  filling="0" d="M5.174015045166016 14.065223693847656 L5.174015045166016 14.065223693847656 C5.299588203430176 14.065223693847656 5.434704303741455 14.139419555664062 5.506414413452148 14.24250316619873 L5.506414413452148 15.653352737426758 C5.676140785217285 15.782015800476074 5.90308141708374 15.835078239440918 6.115812301635742 15.845405578613281 L7.319835662841797 15.845405578613281 C7.58793830871582 15.976186752319336 7.510195732116699 16.05337905883789 7.319835662841797 16.251670837402344 L6.119505882263184 16.251670837402344 C5.5333452224731445 16.21986198425293 5.271414756774902 16.21529769897461 5.033668518066406 15.653352737426758 L5.033668518066406 14.24250316619873 C5.080450534820557 14.183409690856934 5.127233028411865 14.124317169189453 5.174015045166016 14.065223693847656 L5.174015045166016 14.065223693847656"></path>
<path fill="none" stroke="black" stroke-width=".3" stroke-opacity="1.0"  filling="0" d="M15.205079078674316 14.541662216186523 L15.69629192352295 15.269247055053711 L14.710173606872559 15.269247055053711 L15.205079078674316 14.541662216186523"></path>
<path fill="none" stroke="black" stroke-width=".3" stroke-opacity="1.0"  filling="0" d="M4.099257946014404 14.571208953857422 L4.095564365386963 15.258167266845703 L3.0799007415771484 15.261859893798828 L4.099257946014404 14.571208953857422"></path></svg>