<svg xmlns="http://www.w3.org/2000/svg" viewBox="0.0 0.0 24.0 24.0" height="200px" width="200px"><path fill="none" stroke="black" stroke-width=".3" stroke-opacity="1.0"  filling="0" d="M12.397375106811523 3.2991247177124023 L12.397375106811523 3.2991247177124023 C12.402246475219727 3.8855326175689697 12.407116889953613 4.471940517425537 12.411988258361816 5.058348655700684 L12.411988258361816 5.058348655700684 C11.503715515136719 4.489846229553223 11.22602367401123 3.760895252227783 12.397375106811523 3.2991247177124023 L12.397375106811523 3.2991247177124023"></path>
<path fill="none" stroke="black" stroke-width=".3" stroke-opacity="1.0"  filling="0" d="M10.433575630187988 5.472583293914795 L10.433575630187988 5.472583293914795 C10.036139488220215 2.9359731674194336 10.79345989227295 1.2845802307128906 13.518094062805176 1.2292251586914062 L13.518094062805176 1.2292251586914062 C13.519046783447266 2.482304096221924 13.519046783447266 3.735383987426758 13.518094062805176 4.988462924957275 L13.518094062805176 4.988462924957275 C13.873666763305664 4.989098072052002 14.229238510131836 4.989733695983887 14.584811210632324 4.990368843078613 L14.584811210632324 4.990368843078613 C14.582269668579102 5.521291732788086 14.579728126525879 6.0522141456604 14.577186584472656 6.583137035369873 L14.577186584472656 6.583137035369873 C12.8982515335083 7.758656978607178 11.384389877319336 7.0853376388549805 10.433575630187988 5.472583293914795 L10.433575630187988 5.472583293914795"></path>
<path fill="none" stroke="black" stroke-width=".3" stroke-opacity="1.0"  filling="0" d="M10.328110694885254 7.517705917358398 L10.328110694885254 7.517705917358398 C10.777287483215332 7.517705917358398 11.226465225219727 7.517705917358398 11.675642013549805 7.517705917358398 L11.675642013549805 7.517705917358398 C11.676488876342773 7.941257953643799 11.677336692810059 8.3648099899292 11.678183555603027 8.788362503051758 L11.678183555603027 8.788362503051758 C12.647067070007324 8.787198066711426 13.615951538085938 8.783173561096191 14.584811210632324 8.776290893554688 L14.584811210632324 8.776290893554688 C14.550657272338867 11.129837989807129 13.74064826965332 10.926187515258789 11.678183555603027 10.924971580505371 L11.678183555603027 10.924971580505371 C11.6775484085083 11.217222213745117 11.676913261413574 11.50947380065918 11.676278114318848 11.801724433898926 L11.676278114318848 11.801724433898926 C11.226888656616211 11.801936149597168 10.77750015258789 11.80214786529541 10.328110694885254 11.802359580993652 L10.328110694885254 11.802359580993652 C10.32578182220459 11.508837699890137 10.32345199584961 11.215315818786621 10.321123123168945 10.921793937683105 L10.321123123168945 10.921793937683105 C10.005788803100586 10.92348861694336 9.69045352935791 10.925182342529297 9.37511920928955 10.92687702178955 L9.375118255615234 8.788997650146484 C9.691723823547363 8.789421081542969 10.008328437805176 8.78984546661377 10.324934005737305 8.790268898010254 L10.324934005737305 8.790268898010254 C10.325992584228516 8.366081237792969 10.327052116394043 7.941893577575684 10.328110694885254 7.517705917358398 L10.328110694885254 7.517705917358398"></path>
<path fill="none" stroke="black" stroke-width=".3" stroke-opacity="1.0"  filling="0" d="M11.676277160644531 12.282669067382812 L11.676277160644531 12.282669067382812 C11.840619087219238 14.199979782104492 12.974381446838379 13.792854309082031 14.5994234085083 13.7960205078125 L14.5994234085083 13.7960205078125 C14.600164413452148 14.518608093261719 14.596776008605957 15.241211891174316 14.589258193969727 15.963760375976562 L14.589258193969727 15.963760375976562 C13.175415992736816 15.95928955078125 11.761651992797852 15.959760665893555 10.347805976867676 15.961219787597656 L10.347805976867676 15.961219787597656 C10.348017692565918 15.296666145324707 10.34822940826416 14.632113456726074 10.348441123962402 13.967559814453125 L10.348441123962402 13.967559814453125 C10.510025978088379 13.95739459991455 10.671611785888672 13.947230339050293 10.833196640014648 13.937065124511719 L10.833196640014648 13.937065124511719 C10.665470123291016 13.386235237121582 10.497743606567383 12.835404396057129 10.33001708984375 12.284574508666992 L10.33001708984375 12.284574508666992 C10.778770446777344 12.283939361572266 11.227523803710938 12.283304214477539 11.676277160644531 12.282669067382812 L11.676277160644531 12.282669067382812"></path>
<path fill="none" stroke="black" stroke-width=".3" stroke-opacity="1.0"  filling="0" d="M14.598153114318848 17.047630310058594 L14.598153114318848 17.047630310058594 C14.598840713500977 17.76004409790039 14.599052429199219 18.47245979309082 14.598788261413574 19.18487548828125 L14.598788261413574 19.18487548828125 C14.19620132446289 19.184452056884766 13.793615341186523 19.18402862548828 13.39102840423584 19.183605194091797 L13.39102840423584 19.183605194091797 C13.624800682067871 19.889068603515625 13.742063522338867 20.805017471313477 14.596881866455078 20.273193359375 L14.596881866455078 20.273193359375 C14.597940444946289 20.93922996520996 14.707301139831543 21.613954544067383 14.600058555603027 22.27130126953125 C14.498104095458984 22.896230697631836 13.635124206542969 22.98787498474121 13.23982048034668 22.602306365966797 C12.199665069580078 21.5877685546875 12.934579849243164 20.33963394165039 12.244260787963867 19.357685089111328 C11.858074188232422 18.808349609375 11.130023956298828 20.10567855834961 12.105759620666504 20.555278778076172 L12.105759620666504 20.555278778076172 C12.106606483459473 21.23804473876953 12.106818199157715 21.92081069946289 12.10639476776123 22.60357666015625 L12.10639476776123 22.60357666015625 C11.686442375183105 22.38121223449707 11.144559860229492 22.306602478027344 10.846538543701172 21.936481475830078 C9.794379234313965 20.629779815673828 9.825187683105469 17.612865447998047 11.722657203674316 17.060972213745117 C12.643025398254395 16.793275833129883 13.639660835266113 17.053348541259766 14.598153114318848 17.047630310058594 L14.598153114318848 17.047630310058594"></path></svg>