<svg xmlns="http://www.w3.org/2000/svg" viewBox="0.0 0.0 24.0 24.0" height="200px" width="200px"><path fill="none" stroke="black" stroke-width=".3" stroke-opacity="1.0"  filling="0" d="M113.89569091796875 114.62782287597656 L113.89569091796875 114.62782287597656 C116.38699340820312 115.21269989013672 116.8608169555664 115.6821517944336 117.2468490600586 118.21692657470703 L117.01377868652344 118.22533416748047 C116.66213989257812 115.8210678100586 116.21973419189453 115.38555908203125 113.85230255126953 114.8587875366211 L113.89569091796875 114.62782287597656"></path>
<path fill="none" stroke="black" stroke-width=".3" stroke-opacity="1.0"  filling="0" d="M113.72140502929688 115.55728912353516 L113.72140502929688 115.55728912353516 C115.54700469970703 116.03070068359375 115.89723205566406 116.3909912109375 116.19207763671875 118.25682067871094 L115.73223114013672 118.23513793945312 C115.57051849365234 117.69717407226562 115.63301086425781 117.02944946289062 115.24710083007812 116.62124633789062 C114.85314178466797 116.20452880859375 114.17304229736328 116.2189712524414 113.6360092163086 116.01783752441406 L113.72138977050781 115.55730438232422"></path>
<path fill="none" stroke="black" stroke-width=".3" stroke-opacity="1.0"  filling="0" d="M111.6028060913086 116.42587280273438 L110.8070068359375 120.93257141113281 L109.94892883300781 120.93257141113281 L109.99372863769531 120.6113052368164 C109.35359191894531 121.21673583984375 108.79222106933594 121.07172393798828 108.73738861083984 120.15357208251953 L109.02925109863281 118.45072937011719 C109.3517074584961 117.85453033447266 109.8446273803711 117.52820587158203 110.3898696899414 118.09236907958984 L110.68173217773438 116.48956298828125 L111.6028060913086 116.42587280273438"></path>
<path fill="none" stroke="black" stroke-width=".3" stroke-opacity="1.0"  filling="0" d="M112.8465347290039 117.6471939086914 L112.8465347290039 117.6471939086914 C113.64286804199219 117.7282485961914 113.95928955078125 117.67103576660156 113.98178100585938 118.49967956542969 L113.79280853271484 119.52294158935547 L112.23692321777344 119.55584716796875 L112.13893127441406 120.0982666015625 C112.17982482910156 120.473876953125 112.5680160522461 120.32806396484375 112.69815063476562 120.08425903320312 L113.68572235107422 120.10458374023438 C113.07066345214844 121.16917419433594 111.25206756591797 121.52450561523438 111.18916320800781 119.9806900024414 L111.41172790527344 118.72294616699219 C111.75175476074219 117.85514831542969 111.9317398071289 117.78654479980469 112.8465347290039 117.6471939086914 L112.8465347290039 117.6471939086914"></path>
<path fill="none" stroke="black" stroke-width=".3" stroke-opacity="1.0"  filling="0" d="M101.66764831542969 117.73680114746094 L101.76213836669922 117.10828399658203 L102.44314575195312 117.06068420410156 L102.3465576171875 117.69759368896484 L101.66764831542969 117.73680114746094"></path>
<path fill="none" stroke="black" stroke-width=".3" stroke-opacity="1.0"  filling="0" d="M99.17948150634766 117.88166809082031 L99.26557159423828 117.28185272216797 L99.88568878173828 117.23847198486328 L99.79750061035156 117.84599304199219 L99.17948150634766 117.88166809082031"></path>
<path fill="none" stroke="black" stroke-width=".3" stroke-opacity="1.0"  filling="0" d="M105.42265319824219 118.0153579711914 L105.42265319824219 118.0153579711914 C106.10114288330078 118.09761047363281 106.3003921508789 118.08174896240234 106.31572723388672 118.77686309814453 L106.16805267333984 119.68253326416016 L104.94251251220703 119.70913696289062 L104.86483001708984 120.19136810302734 C104.89582824707031 120.51637268066406 105.20291900634766 120.39686584472656 105.30645751953125 120.17877197265625 L106.08404541015625 120.19835662841797 C105.58316802978516 121.17257690429688 104.15858459472656 121.3995590209961 104.11311340332031 120.08428955078125 L104.28950500488281 118.96582794189453 C104.54657745361328 118.23031616210938 104.65938568115234 118.14082336425781 105.42265319824219 118.0153579711914 L105.42265319824219 118.0153579711914"></path>
<path fill="none" stroke="black" stroke-width=".3" stroke-opacity="1.0"  filling="0" d="M102.2681655883789 118.21414184570312 L101.855224609375 120.93257141113281 L101.1882095336914 120.93257141113281 L101.59135437011719 118.24701690673828 L102.2681655883789 118.21414184570312"></path>
<path fill="none" stroke="black" stroke-width=".3" stroke-opacity="1.0"  filling="0" d="M114.48571014404297 118.2645263671875 L114.48571014404297 118.2645263671875 C114.13062286376953 117.90034484863281 113.77554321289062 117.53616333007812 113.42045593261719 117.17198181152344 L113.54924774169922 116.48187255859375 C114.29247283935547 116.80901336669922 114.93031311035156 117.52176666259766 115.17512512207031 118.2960205078125 L114.48571014404297 118.2645263671875"></path>
<path fill="none" stroke="black" stroke-width=".3" stroke-opacity="1.0"  filling="0" d="M99.72611236572266 118.3380126953125 L99.34955596923828 120.93257141113281 L98.74134063720703 120.93257141113281 L99.1094970703125 118.36880493164062 L99.72611236572266 118.3380126953125"></path>
<path fill="none" stroke="black" stroke-width=".3" stroke-opacity="1.0"  filling="0" d="M112.42939758300781 118.4856948852539 L112.42939758300781 118.4856948852539 C112.5439682006836 118.26494598388672 112.91410064697266 118.15383911132812 112.96552276611328 118.466796875 L112.87873840332031 118.94624328613281 L112.34400177001953 118.96162414550781 L112.42939758300781 118.48567962646484"></path>
<path fill="none" stroke="black" stroke-width=".3" stroke-opacity="1.0"  filling="0" d="M109.89224243164062 118.67745971679688 L109.89224243164062 118.67745971679688 C110.0005874633789 118.48986053466797 110.2403564453125 118.39580535888672 110.3030776977539 118.66276550292969 L110.05321502685547 120.09407806396484 C109.94422149658203 120.28253936767578 109.70753479003906 120.36310577392578 109.64656829833984 120.10038757324219 L109.89224243164062 118.67745971679688"></path>
<path fill="none" stroke="black" stroke-width=".3" stroke-opacity="1.0"  filling="0" d="M103.25993347167969 118.72926330566406 L103.25993347167969 118.72926330566406 C103.33119201660156 118.74623107910156 103.40116882324219 118.81448364257812 103.4132080078125 118.8867416381836 L103.20603942871094 120.21725463867188 C103.11837005615234 120.40276336669922 102.89232635498047 120.47114562988281 102.85328674316406 120.22145080566406 L103.05765533447266 118.9000473022461 C103.09465789794922 118.81993865966797 103.17527770996094 118.75415802001953 103.25993347167969 118.72926330566406 L103.25993347167969 118.72926330566406"></path>
<path fill="none" stroke="black" stroke-width=".3" stroke-opacity="1.0"  filling="0" d="M105.09368896484375 118.75865173339844 L105.09368896484375 118.75865173339844 C105.18450927734375 118.5622329711914 105.47618103027344 118.47420501708984 105.51712799072266 118.74327087402344 L105.44783782958984 119.16950988769531 L105.0264892578125 119.18140411376953 L105.09368896484375 118.75865173339844"></path>
<path fill="none" stroke="black" stroke-width=".3" stroke-opacity="1.0"  filling="0" d="M98.09183502197266 118.96022033691406 L98.09183502197266 118.96022033691406 C98.14813232421875 118.97748565673828 98.19644165039062 119.0360336303711 98.20732116699219 119.09391021728516 L98.04283905029297 120.25365447998047 C97.96958923339844 120.40856170654297 97.81481170654297 120.45722961425781 97.77547454833984 120.25646209716797 L97.93714904785156 119.10370635986328 C97.96707916259766 119.0400619506836 98.02566528320312 118.98403930664062 98.09183502197266 118.96022033691406 L98.09183502197266 118.96022033691406"></path>
<path fill="none" stroke="black" stroke-width=".3" stroke-opacity="1.0"  filling="0" d="M102.15338134765625 120.28937530517578 L102.36825561523438 118.88186645507812 C102.59880065917969 118.2945556640625 102.9865493774414 117.8274917602539 103.53009796142578 118.40873718261719 L103.57978820800781 118.14973449707031 L104.25170135498047 118.1168441772461 L103.7701644897461 121.17962646484375 C103.38571166992188 121.88804626464844 102.28910827636719 122.44603729248047 102.0679931640625 121.33151245117188 L102.68531036376953 121.24962615966797 C102.75401306152344 121.49372100830078 102.9832534790039 121.35407257080078 103.05416107177734 121.19223022460938 L103.12205505371094 120.69949340820312 C102.60862731933594 121.12042999267578 102.21399688720703 120.96320343017578 102.15338134765625 120.28935241699219 L102.15338134765625 120.28935241699219"></path>
<path fill="none" stroke="black" stroke-width=".3" stroke-opacity="1.0"  filling="0" d="M97.11056518554688 120.93257141113281 L97.60189819335938 117.39665222167969 L98.18281555175781 117.35674285888672 L98.00994110107422 118.64387512207031 C98.41109466552734 118.23853302001953 98.75264739990234 118.26073455810547 98.85822296142578 118.8559341430664 L98.65455627441406 120.279541015625 C98.48854064941406 120.77310943603516 98.07461547851562 121.33165740966797 97.69778442382812 120.67359924316406 L97.6536865234375 120.93257141113281 L97.11056518554688 120.93257141113281"></path>
<path fill="none" stroke="black" stroke-width=".3" stroke-opacity="1.0"  filling="0" d="M99.53223419189453 120.93257141113281 L100.07186126708984 117.22586822509766 L100.71157836914062 117.18177032470703 L100.15865325927734 120.93257141113281 L99.53223419189453 120.93257141113281"></path>
<path fill="none" stroke="black" stroke-width=".3" stroke-opacity="1.0"  filling="0" d="M100.34762573242188 120.93257141113281 L100.904052734375 117.1684799194336 L101.56336212158203 117.12227630615234 L100.99293518066406 120.93257141113281 L100.34762573242188 120.93257141113281"></path>
<path fill="none" stroke="black" stroke-width=".3" stroke-opacity="1.0"  filling="0" d="M106.1463394165039 120.93257141113281 L106.62648010253906 118.0013656616211 L107.40057373046875 117.96356964111328 L107.3620834350586 118.26172637939453 C107.72460174560547 117.84625244140625 108.26382446289062 117.65043640136719 108.4007339477539 118.31703186035156 L108.26215362548828 119.13661193847656 L107.56644439697266 119.15690612792969 L107.64064025878906 118.71106719970703 C107.56172943115234 118.49853515625 107.37969970703125 118.61775970458984 107.30118560791016 118.76425170898438 L106.94073486328125 120.93257141113281 L106.1463394165039 120.93257141113281"></path>
<path fill="none" stroke="black" stroke-width=".3" stroke-opacity="1.0"  filling="0" d="M107.50485229492188 120.93257141113281 L107.65604400634766 120.03248596191406 L108.4917221069336 120.02059936523438 L108.33634948730469 120.93257141113281 L107.50485229492188 120.93257141113281"></path></svg>