<svg xmlns="http://www.w3.org/2000/svg" viewBox="0.0 0.0 24.0 24.0" height="200px" width="200px"><path fill="none" stroke="black" stroke-width=".3" stroke-opacity="1.0"  filling="0" d="M1.8723020553588867 6.419846534729004 L2.547595977783203 6.419846534729004 C2.660093307495117 6.532343864440918 2.7725906372070312 6.64484167098999 2.8850879669189453 6.757339000701904 L2.8850879669189453 8.310310363769531 C2.930126905441284 8.355351448059082 2.975165605545044 8.400392532348633 3.020204544067383 8.445433616638184 L6.936257839202881 8.445433616638184 C8.976377487182617 9.290485382080078 9.194796562194824 12.573567390441895 6.936258316040039 13.509086608886719 L3.2216243743896484 13.509086608886719 C3.109445571899414 13.397014617919922 2.9972667694091797 13.284943580627441 2.8850879669189453 13.172871589660645 L2.8850879669189453 12.49533748626709 C2.9972667694091797 12.383158683776855 3.109445571899414 12.270979881286621 3.2216243743896484 12.158801078796387 L6.80114221572876 12.158801078796387 C6.8461809158325195 12.113759994506836 6.891219615936279 12.068718910217285 6.936258316040039 12.023677825927734 L6.936258316040039 9.930845260620117 C6.891219615936279 9.885804176330566 6.8461809158325195 9.840763092041016 6.80114221572876 9.795722007751465 L3.020204544067383 9.795722007751465 C2.975165605545044 9.840763092041016 2.930126905441284 9.885804176330566 2.8850879669189453 9.930845260620117 L2.8850879669189453 11.821309089660645 C2.7725906372070312 11.933806419372559 2.660093307495117 12.046303749084473 2.547595977783203 12.158801078796387 L1.8723020553588867 12.158801078796387 C1.759804368019104 12.046303749084473 1.6473067998886108 11.933806419372559 1.5348091125488281 11.821309089660645 L1.5348091125488281 6.757339000701904 C1.6473067998886108 6.64484167098999 1.759804368019104 6.532343864440918 1.8723020553588867 6.419846534729004 L1.8723020553588867 6.419846534729004"></path>
<path fill="none" stroke="black" stroke-width=".3" stroke-opacity="1.0"  filling="0" d="M15.038406372070312 6.419973850250244 L15.713390350341797 6.419973850250244 C15.825887680053711 6.532471179962158 15.938385009765625 6.644968032836914 16.05088233947754 6.757465362548828 L16.05088233947754 11.823986053466797 C15.938385009765625 11.936483383178711 15.825887680053711 12.048980712890625 15.713390350341797 12.161478042602539 L15.038406372070312 12.161478042602539 C14.925797462463379 12.048874855041504 14.813189506530762 11.936271667480469 14.700580596923828 11.823668479919434 L14.700580596923828 9.933204650878906 C14.65554141998291 9.888162612915039 14.610503196716309 9.843120574951172 14.56546401977539 9.798078536987305 L10.785171508789062 9.798078536987305 C10.740236282348633 9.843120574951172 10.69530200958252 9.888162612915039 10.65036678314209 9.933204650878906 L10.65036678314209 12.023805618286133 C10.69530200958252 12.068846702575684 10.740236282348633 12.113886833190918 10.785171508789062 12.158927917480469 L14.36308765411377 12.158927917480469 C14.475481986999512 12.271319389343262 14.587875366210938 12.383710861206055 14.70026969909668 12.496102333068848 L14.70026969909668 13.172041893005371 C14.587875366210938 13.284433364868164 14.475481986999512 13.396824836730957 14.36308765411377 13.50921630859375 L10.649721145629883 13.50921630859375 C10.061564445495605 13.265628814697266 9.542831420898438 12.747037887573242 9.299131393432617 12.158927917480469 L9.299131393432617 9.797443389892578 C9.542831420898438 9.209333419799805 10.061564445495605 8.690742492675781 10.649721145629883 8.447154998779297 L14.56546401977539 8.447154998779297 C14.610503196716309 8.402113914489746 14.65554141998291 8.357072830200195 14.700580596923828 8.312031745910645 L14.700580596923828 6.757465362548828 C14.813189506530762 6.644968032836914 14.925797462463379 6.532471179962158 15.038406372070312 6.419973850250244 L15.038406372070312 6.419973850250244"></path>
<path fill="none" stroke="black" stroke-width=".3" stroke-opacity="1.0"  filling="0" d="M22.12683868408203 8.445352554321289 L22.12683868408203 8.445352554321289 C22.239439010620117 8.557849884033203 22.352041244506836 8.670347213745117 22.464641571044922 8.782844543457031 L22.464641571044922 9.458148956298828 C22.352041244506836 9.570646286010742 22.239439010620117 9.683143615722656 22.12683868408203 9.79564094543457 L18.549232482910156 9.796358108520508 C18.504194259643555 9.841400146484375 18.45915412902832 9.886442184448242 18.41411590576172 9.93148422241211 L18.41411590576172 11.819397926330566 C18.301618576049805 11.93189525604248 18.18912124633789 12.044392585754395 18.076623916625977 12.156889915466309 L17.401329040527344 12.156889915466309 C17.28883171081543 12.044392585754395 17.176332473754883 11.93189525604248 17.06383514404297 11.819397926330566 L17.06383514404297 9.795722007751465 C17.307424545288086 9.207645416259766 17.826038360595703 8.689026832580566 18.414113998413086 8.445433616638184 L22.127483367919922 8.445433616638184"></path>
<path fill="none" stroke="black" stroke-width=".3" stroke-opacity="1.0"  filling="0" d="M22.12738609313965 12.158832550048828 L22.12738609313965 12.158832550048828 C22.239986419677734 12.271329879760742 22.35258674621582 12.383827209472656 22.465187072753906 12.49632453918457 L22.465187072753906 13.17162799835205 C22.35258674621582 13.284125328063965 22.239986419677734 13.396623611450195 22.12738609313965 13.50912094116211 L21.452404022216797 13.50912094116211 C21.339906692504883 13.396623611450195 21.227407455444336 13.284125328063965 21.114910125732422 13.17162799835205 L21.114910125732422 12.49632453918457 C21.227407455444336 12.383827209472656 21.339906692504883 12.271329879760742 21.452404022216797 12.158832550048828 L22.12738609313965 12.158832550048828"></path>
<path fill="none" stroke="black" stroke-width=".3" stroke-opacity="1.0"  filling="0" d="M6.5929365158081055 16.210647583007812 L6.5929365158081055 16.210647583007812 C6.7879743576049805 16.432348251342773 7.1780500411987305 16.580469131469727 7.1780500411987305 16.875751495361328 C7.1780500411987305 17.175928115844727 6.7879743576049805 17.33211326599121 6.5929365158081055 17.56029510498047 L6.102808952331543 17.56029510498047 L6.102808952331543 16.21064567565918"></path>
<path fill="none" stroke="black" stroke-width=".3" stroke-opacity="1.0"  filling="0" d="M10.9424467086792 16.210647583007812 L10.9424467086792 16.210647583007812 C11.137588500976562 16.432350158691406 11.527871131896973 16.580402374267578 11.527871131896973 16.87575340270996 C11.527871131896973 17.17599868774414 11.137588500976562 17.332115173339844 10.9424467086792 17.5602970123291 L10.452292442321777 17.5602970123291 L10.452292442321777 16.210647583007812"></path>
<path fill="none" stroke="black" stroke-width=".3" stroke-opacity="1.0"  filling="0" d="M16.466796875 16.210712432861328 L16.696897506713867 16.210712432861328 L16.696897506713867 16.865617752075195 L17.53632354736328 16.210712432861328 L17.05795669555664 16.77447509765625 L17.54237174987793 17.560359954833984 L16.696897506713867 17.183351516723633 L16.466796875 17.560361862182617 L16.466796875 16.210712432861328"></path>
<path fill="none" stroke="black" stroke-width=".3" stroke-opacity="1.0"  filling="0" d="M7.638659477233887 16.210739135742188 L8.525579452514648 16.210739135742188 L7.868758678436279 16.417251586914062 L7.868758678436279 16.758567810058594 L8.436328887939453 16.965078353881836 L7.868758678436279 16.965078353881836 L7.868758678436279 17.353879928588867 L8.53545093536377 17.56039047241211 L7.638659477233887 17.56039047241211 L7.638659477233887 16.210739135742188"></path>
<path fill="none" stroke="black" stroke-width=".3" stroke-opacity="1.0"  filling="0" d="M17.98677635192871 16.210742950439453 L18.87369728088379 16.210742950439453 L18.216876983642578 16.417253494262695 L18.216876983642578 16.758569717407227 L18.784473419189453 16.96508026123047 L18.216876983642578 16.96508026123047 L18.216876983642578 17.3538818359375 L18.883569717407227 17.560394287109375 L17.98677635192871 17.560394287109375 L17.98677635192871 16.210742950439453"></path>
<path fill="none" stroke="black" stroke-width=".3" stroke-opacity="1.0"  filling="0" d="M20.85010528564453 16.210742950439453 L21.737024307250977 16.210742950439453 L21.08020782470703 16.417251586914062 L21.08020782470703 16.758569717407227 L21.64780044555664 16.965078353881836 L21.08020782470703 16.965078353881836 L21.08020782470703 17.3538818359375 L21.74689483642578 17.56039047241211 L20.85010528564453 17.56039047241211 L20.85010528564453 16.210742950439453"></path>
<path fill="none" stroke="black" stroke-width=".3" stroke-opacity="1.0"  filling="0" d="M1.534928321838379 16.21080780029297 L2.0923166275024414 16.21080780029297 C2.2679359912872314 16.355552673339844 2.4286422729492188 16.674646377563477 2.2988271713256836 16.861572265625 L2.2988271713256836 16.861572265625 C2.443751811981201 17.05211067199707 2.3121676445007324 17.40232276916504 2.1321611404418945 17.560138702392578 L1.534928321838379 17.560138702392578 L1.534928321838379 16.21080780029297"></path>
<path fill="none" stroke="black" stroke-width=".3" stroke-opacity="1.0"  filling="0" d="M3.01116943359375 16.21080780029297 L3.2412471771240234 16.21080780029297 L3.2412471771240234 17.084014892578125 C3.374173641204834 17.222352981567383 3.684795379638672 17.22323226928711 3.816800117492676 17.084014892578125 L3.816800117492676 16.21080780029297 L4.046902179718018 16.21080780029297 L4.046902179718018 17.084014892578125 C3.8742761611938477 17.249309539794922 3.7680258750915527 17.579896926879883 3.529024124145508 17.579896926879883 C3.2900278568267822 17.579896926879883 3.1837875843048096 17.249309539794922 3.01116943359375 17.084014892578125 L3.01116943359375 17.084014892578125"></path>
<path fill="none" stroke="black" stroke-width=".3" stroke-opacity="1.0"  filling="0" d="M11.98819351196289 16.21080780029297 L12.553540229797363 16.21080780029297 C12.748892784118652 16.40326690673828 12.86324405670166 16.799585342407227 12.700464248657227 17.020278930664062 L13.031908988952637 17.560138702392578 L12.218295097351074 17.056289672851562 L12.218295097351074 17.560138702392578 L11.98819351196289 17.560138702392578 L11.98819351196289 16.21080780029297"></path>
<path fill="none" stroke="black" stroke-width=".3" stroke-opacity="1.0"  filling="0" d="M13.474400520324707 16.21080780029297 L13.70450210571289 16.21080780029297 L13.70450210571289 17.084014892578125 C13.837428092956543 17.222352981567383 14.148050308227539 17.22323226928711 14.280055046081543 17.084014892578125 L14.280055046081543 16.21080780029297 L14.510132789611816 16.21080780029297 L14.510132789611816 17.084014892578125 C14.337514877319336 17.249309539794922 14.231274604797363 17.579896926879883 13.992279052734375 17.579896926879883 C13.753277778625488 17.579896926879883 13.647027015686035 17.249309539794922 13.474401473999023 17.084014892578125 L13.474401473999023 17.084014892578125"></path>
<path fill="none" stroke="black" stroke-width=".3" stroke-opacity="1.0"  filling="0" d="M19.363872528076172 16.21080780029297 L19.92922019958496 16.21080780029297 C20.12450408935547 16.403337478637695 20.23880958557129 16.79949951171875 20.07614517211914 17.020278930664062 L20.407588958740234 17.560138702392578 L19.593975067138672 17.056289672851562 L19.593975067138672 17.560138702392578 L19.363872528076172 17.560138702392578 L19.363872528076172 16.21080780029297"></path>
<path fill="none" stroke="black" stroke-width=".3" stroke-opacity="1.0"  filling="0" d="M22.22693634033203 16.21080780029297 L22.45703887939453 16.21080780029297 L22.45703887939453 17.560138702392578 L22.22693634033203 17.560138702392578"></path>
<path fill="none" stroke="black" stroke-width=".3" stroke-opacity="1.0"  filling="0" d="M4.546999454498291 16.21090316772461 L4.546999454498291 17.560232162475586 L4.771341323852539 17.560232162475586 L4.77516508102417 16.661211013793945 L5.3606133460998535 17.560232162475586 L5.602808952331543 16.21090316772461 L5.378444194793701 16.21090316772461 L5.374619483947754 17.133506774902344 L4.546999454498291 16.21090316772461"></path>
<path fill="none" stroke="black" stroke-width=".3" stroke-opacity="1.0"  filling="0" d="M6.5929365158081055 16.417156219482422 L6.5929365158081055 16.417156219482422 C6.7800116539001465 16.667112350463867 6.775028228759766 17.100175857543945 6.5929365158081055 17.353784561157227 L6.332886695861816 17.353784561157227 L6.332886695861816 16.417156219482422"></path>
<path fill="none" stroke="black" stroke-width=".3" stroke-opacity="1.0"  filling="0" d="M10.9424467086792 16.417158126831055 L10.9424467086792 16.417158126831055 C11.129521369934082 16.6671142578125 11.12453842163086 17.100177764892578 10.9424467086792 17.35378646850586 L10.682395935058594 17.35378646850586 L10.682395935058594 16.417158126831055"></path>
<path fill="none" stroke="black" stroke-width=".3" stroke-opacity="1.0"  filling="0" d="M2.066502571105957 16.417320251464844 L2.066502571105957 16.417320251464844 C2.154773235321045 16.493236541748047 2.1546356678009033 16.690523147583008 2.066502571105957 16.766599655151367 L1.765030860900879 16.766599655151367 L1.765030860900879 16.417316436767578"></path>
<path fill="none" stroke="black" stroke-width=".3" stroke-opacity="1.0"  filling="0" d="M12.527726173400879 16.417316436767578 L12.527726173400879 16.417316436767578 C12.629754066467285 16.519187927246094 12.624408721923828 16.750595092773438 12.519766807556152 16.84977912902832 L12.218295097351074 16.84977912902832 L12.527726173400879 16.417316436767578"></path>
<path fill="none" stroke="black" stroke-width=".3" stroke-opacity="1.0"  filling="0" d="M19.903406143188477 16.417320251464844 L19.903406143188477 16.417320251464844 C20.005434036254883 16.51919174194336 20.00008773803711 16.750595092773438 19.89544677734375 16.849781036376953 L19.593975067138672 16.849781036376953 L19.903406143188477 16.417320251464844"></path>
<path fill="none" stroke="black" stroke-width=".3" stroke-opacity="1.0"  filling="0" d="M2.080533027648926 16.972793579101562 L2.080533027648926 16.972793579101562 C2.1781105995178223 17.05429458618164 2.1895158290863037 17.269428253173828 2.0945396423339844 17.353946685791016 L1.765030860900879 17.353946685791016 L1.765030860900879 16.972793579101562"></path>
<path fill="none" stroke="black" stroke-width=".3" stroke-opacity="1.0"  filling="0" d="M9.749919891357422 17.19112777709961 L9.749919891357422 17.19112777709961 C9.003046989440918 16.690542221069336 8.836474418640137 16.09041404724121 9.960254669189453 16.26246452331543 L9.908626556396484 16.456867218017578 C8.514986991882324 16.256547927856445 10.029077529907227 16.845483779907227 9.991805076599121 17.17327880859375 C9.924370765686035 17.766328811645508 9.267494201660156 17.54746437072754 8.995893478393555 17.508541107177734 L9.033491134643555 17.31414031982422 C9.273791313171387 17.345237731933594 9.552680015563965 17.331867218017578 9.749919891357422 17.19112777709961 L9.749919891357422 17.19112777709961"></path>
<path fill="none" stroke="black" stroke-width=".3" stroke-opacity="1.0"  filling="0" d="M15.577749252319336 17.373641967773438 L15.577749252319336 17.373641967773438 C15.712658882141113 17.353776931762695 15.847567558288574 17.33390998840332 15.982477188110352 17.314044952392578 L16.034103393554688 17.508445739746094 C14.73255729675293 17.7044620513916 14.723409652709961 16.06585693359375 16.034103393554688 16.262372970581055 L15.982477188110352 16.45677375793457 C15.164763450622559 16.337011337280273 15.162551879882812 16.8073673248291 15.577749252319336 17.373641967773438 L15.577749252319336 17.373641967773438"></path></svg>