<svg xmlns="http://www.w3.org/2000/svg" viewBox="0.0 0.0 24.0 24.0" height="200px" width="200px"><path fill="none" stroke="black" stroke-width=".3" stroke-opacity="1.0"  filling="0" d="M3.5063133239746094 10.817960739135742 L5.2095465660095215 12.554033279418945 L6.2775726318359375 10.830876350402832 L5.141506671905518 12.43562126159668 L4.57020378112793 12.435863494873047 L3.5063133239746094 10.817960739135742"></path>
<path fill="none" stroke="black" stroke-width=".3" stroke-opacity="1.0"  filling="0" d="M6.516371726989746 10.827460289001465 L6.551180839538574 12.55836009979248 L9.331011772155762 12.564224243164062 L9.295976638793945 10.836932182312012 L9.209518432617188 12.448895454406738 L8.399514198303223 12.447768211364746 L7.924443244934082 11.586190223693848 L7.4871134757995605 12.437018394470215 L6.668163299560547 12.43581485748291 L6.516371726989746 10.827460289001465"></path>
<path fill="none" stroke="black" stroke-width=".3" stroke-opacity="1.0"  filling="0" d="M1.9969205856323242 10.934438705444336 L1.9969205856323242 10.934438705444336 C1.135568380355835 11.204132080078125 1.0487478971481323 12.283653259277344 2.0291738510131836 12.425360679626465 L3.123964309692383 12.429573059082031 L2.0315074920654297 12.543621063232422 C0.9656856060028076 12.367115020751953 0.9198648929595947 11.001260757446289 2.000983238220215 10.813322067260742 L3.1019420623779297 10.93864917755127 L1.996927261352539 10.934436798095703"></path>
<path fill="none" stroke="black" stroke-width=".3" stroke-opacity="1.0"  filling="0" d="M14.629003524780273 11.527488708496094 L14.629003524780273 11.527488708496094 C14.267680168151855 10.760455131530762 12.774066925048828 10.734062194824219 12.53392505645752 11.614398002624512 L12.432430267333984 12.577396392822266 L12.414762496948242 11.61372184753418 C12.74428939819336 10.605514526367188 14.322319030761719 10.564812660217285 14.747940063476562 11.530235290527344 L14.64937686920166 12.584968566894531 L14.629003524780273 11.527467727661133"></path>
<path fill="none" stroke="black" stroke-width=".3" stroke-opacity="1.0"  filling="0" d="M17.296632766723633 11.55704116821289 L17.296632766723633 11.55704116821289 C17.155574798583984 11.619664192199707 14.258481979370117 11.966653823852539 15.47175407409668 12.472749710083008 L17.217914581298828 12.477864265441895 L15.499946594238281 12.587705612182617 C15.109618186950684 12.513975143432617 14.837295532226562 11.883785247802734 15.376951217651367 11.780257225036621 C15.97292423248291 11.665925025939941 17.56842613220215 11.219544410705566 17.0114688873291 10.978599548339844 L15.048479080200195 10.855752944946289 L17.015899658203125 10.862217903137207 C17.388710021972656 10.95373249053955 17.433120727539062 11.221810340881348 17.2966251373291 11.55704402923584 L17.2966251373291 11.55704402923584"></path>
<path fill="none" stroke="black" stroke-width=".3" stroke-opacity="1.0"  filling="0" d="M12.040939331054688 12.13430404663086 L12.040939331054688 12.13430404663086 C11.869362831115723 12.360639572143555 11.575851440429688 12.471193313598633 11.311079025268555 12.57396411895752 L9.657315254211426 12.56855297088623 L9.623934745788574 10.837953567504883 L9.777755737304688 12.451068878173828 L11.310627937316895 12.455802917480469 C12.200347900390625 12.210221290588379 12.08660888671875 11.553675651550293 11.269577026367188 11.29139518737793 L10.260869979858398 11.286356925964355 L10.24966812133789 10.840080261230469 L10.377700805664062 11.168835639953613 L11.267473220825195 11.173498153686523 C11.822017669677734 11.38305950164795 12.196105003356934 11.49544620513916 12.040937423706055 12.134316444396973 L12.040937423706055 12.134316444396973"></path></svg>