<svg xmlns="http://www.w3.org/2000/svg" viewBox="0.0 0.0 24.0 24.0" height="200px" width="200px"><path fill="none" stroke="black" stroke-width=".3" stroke-opacity="1.0"  filling="0" d="M14.005170822143555 8.500470161437988 L14.005170822143555 8.500470161437988 C14.305523872375488 8.800822257995605 14.605875968933105 9.101175308227539 14.906229019165039 9.401527404785156 L14.906229019165039 14.6555814743042 C14.605875968933105 14.955933570861816 14.429933547973633 15.556638717651367 14.005170822143555 15.556638717651367 C13.580408096313477 15.556638717651367 13.404465675354004 14.955933570861816 13.10411262512207 14.6555814743042 L13.10411262512207 12.815393447875977 L10.515159606933594 12.815393447875977 L10.515159606933594 14.6555814743042 C10.21480655670166 14.955933570861816 10.038864135742188 15.556638717651367 9.61410140991211 15.556638717651367 C9.189338684082031 15.556638717651367 9.013396263122559 14.955933570861816 8.713044166564941 14.6555814743042 L8.713044166564941 9.401527404785156 C9.013396263122559 9.101175308227539 9.189338684082031 8.500470161437988 9.61410140991211 8.500470161437988 C10.038864135742188 8.500470161437988 10.21480655670166 9.101175308227539 10.515159606933594 9.401527404785156 L10.515159606933594 11.241716384887695 L13.10411262512207 11.241716384887695 L13.10411262512207 9.401527404785156 C13.404465675354004 9.101175308227539 13.704817771911621 8.800822257995605 14.005170822143555 8.500470161437988 L14.005170822143555 8.500470161437988"></path>
<path fill="none" stroke="black" stroke-width=".3" stroke-opacity="1.0"  filling="0" d="M7.139365196228027 9.509400367736816 L7.139365196228027 9.509400367736816 C6.75318717956543 9.884791374206543 6.45351505279541 10.867035865783691 5.971797466278076 10.626204490661621 L5.971797466278076 10.626204490661621 C4.344813823699951 10.024927139282227 1.58516263961792 11.327054977416992 3.5295825004577637 13.271474838256836 C5.347653388977051 15.089545249938965 6.646851539611816 11.174111366271973 7.900822162628174 13.564159393310547 C8.234317779541016 14.199795722961426 7.119889736175537 14.854294776916504 6.482607841491699 15.184635162353516 C4.806502819061279 16.05345916748047 2.6463065147399902 15.487265586853027 1.691657304763794 13.822915077209473 C0.7183331251144409 12.126006126403809 1.2692437171936035 9.871603012084961 2.9842538833618164 8.885899543762207 C4.049424171447754 8.27369213104248 6.687864780426025 8.073379516601562 7.405875205993652 9.509400367736816 L7.405875205993652 9.509400367736816 C7.399529933929443 9.515746116638184 7.393184185028076 9.52209186553955 7.386838912963867 9.528437614440918 L7.386838912963867 9.528437614440918 C7.304347515106201 9.52209186553955 7.221856594085693 9.515746116638184 7.139365196228027 9.509400367736816 L7.139365196228027 9.509400367736816"></path>
<path fill="none" stroke="black" stroke-width=".3" stroke-opacity="1.0"  filling="0" d="M7.989659309387207 10.651586532592773 L7.989659309387207 10.651586532592773 C7.706227779388428 10.935017585754395 7.540194511413574 11.50337028503418 7.139365196228027 11.501879692077637 C5.997195720672607 11.497633934020996 5.997195720672607 9.784356117248535 7.139365196228027 9.788601875305176 C7.543197154998779 9.7901029586792 7.706227779388428 10.363924980163574 7.989659309387207 10.651586532592773 L7.989659309387207 10.651586532592773"></path>
<path fill="none" stroke="black" stroke-width=".3" stroke-opacity="1.0"  filling="0" d="M22.799999237060547 12.510810852050781 L22.799999237060547 12.510810852050781 C22.79576873779297 12.565804481506348 22.79153823852539 12.62079906463623 22.787307739257812 12.675792694091797 L22.787307739257812 12.682138442993164 C22.787307739257812 14.32823371887207 20.699970245361328 15.652978897094727 19.24653434753418 15.607403755187988 C17.27603530883789 15.545615196228027 15.643083572387695 14.015592575073242 15.642302513122559 11.996827125549316 C15.641679763793945 10.385680198669434 16.641443252563477 9.20353889465332 17.914836883544922 8.701948165893555 C19.188230514526367 8.200356483459473 20.735252380371094 8.379314422607422 21.829143524169922 9.490364074707031 C22.432071685791016 10.102749824523926 21.913476943969727 10.73469066619873 21.188251495361328 11.025969505310059 C20.534921646118164 11.288372039794922 19.950557708740234 10.201449394226074 19.24653434753418 10.194711685180664 C18.250293731689453 10.185176849365234 17.444419860839844 11.010123252868652 17.444419860839844 11.996827125549316 C17.444419860839844 14.285454750061035 19.507352828979492 13.668533325195312 20.68061065673828 13.081903457641602 L19.449588775634766 13.081903457641602 C19.202116012573242 12.834429740905762 18.707168579101562 12.689462661743164 18.707168579101562 12.339482307434082 C18.707168579101562 11.989501953125 19.202116012573242 11.844535827636719 19.449588775634766 11.597062110900879 L21.898944854736328 11.597062110900879 C22.199296951293945 11.901644706726074 22.49964714050293 12.206228256225586 22.799999237060547 12.510810852050781 L22.799999237060547 12.510810852050781"></path></svg>