<svg xmlns="http://www.w3.org/2000/svg" viewBox="0.0 0.0 24.0 24.0" height="200px" width="200px"><path fill="none" stroke="black" stroke-width=".3" stroke-opacity="1.0"  filling="0" d="M5.397778511047363 11.082296371459961 L5.397778511047363 11.082296371459961 C5.5029826164245605 11.095358848571777 5.620950698852539 11.18483829498291 5.639261722564697 11.289257049560547 L5.639261722564697 12.709310531616211 C5.555795669555664 12.699116706848145 5.46518611907959 12.622953414916992 5.452403545379639 12.539844512939453 L5.452403545379639 12.539844512939453 C4.26530647277832 13.023279190063477 4.303025722503662 11.230411529541016 5.397778511047363 11.671712875366211 L5.397778511047363 11.082296371459961"></path>
<path fill="none" stroke="black" stroke-width=".3" stroke-opacity="1.0"  filling="0" d="M21.614784240722656 11.082296371459961 L21.614784240722656 11.082296371459961 C21.719554901123047 11.095118522644043 21.840484619140625 11.179701805114746 21.859241485595703 11.283575057983398 L21.859241485595703 12.709310531616211 C21.75322914123535 12.696639060974121 21.631519317626953 12.607797622680664 21.614784240722656 12.502350807189941 L21.614784240722656 11.082296371459961"></path>
<path fill="none" stroke="black" stroke-width=".3" stroke-opacity="1.0"  filling="0" d="M5.880710124969482 11.165761947631836 L5.880710124969482 11.165761947631836 C5.979772567749023 11.169750213623047 6.105958461761475 11.238033294677734 6.125077247619629 11.335314750671387 L6.125077247619629 11.456100463867188 C6.018478870391846 11.44327163696289 5.897248268127441 11.352341651916504 5.880710124969482 11.246255874633789 L5.880710124969482 11.165761947631836"></path>
<path fill="none" stroke="black" stroke-width=".3" stroke-opacity="1.0"  filling="0" d="M6.415426254272461 11.234742164611816 L6.978798866271973 11.53084945678711 C6.965051651000977 11.624007225036621 6.873532772064209 11.718039512634277 6.780400276184082 11.73195743560791 L6.665383815765381 12.370141983032227 C6.762470245361328 12.489066123962402 6.947933197021484 12.56561279296875 6.967346668243408 12.717901229858398 L6.967346668243408 12.717901229858398 C6.606744289398193 12.72767162322998 6.538151741027832 12.690641403198242 6.41542387008667 12.370139122009277 L6.2601189613342285 11.58827018737793 C6.330138206481934 11.579669952392578 6.40743350982666 11.514591217041016 6.415426254272461 11.444499969482422 L6.415426254272461 11.234742164611816"></path>
<path fill="none" stroke="black" stroke-width=".3" stroke-opacity="1.0"  filling="0" d="M8.742168426513672 11.377721786499023 L9.364622116088867 12.0 L8.742256164550781 12.622278213500977 L8.119802474975586 12.0 L8.742168426513672 11.377721786499023"></path>
<path fill="none" stroke="black" stroke-width=".3" stroke-opacity="1.0"  filling="0" d="M20.930824279785156 11.516406059265137 L20.930824279785156 11.516406059265137 C21.154754638671875 11.607007026672363 21.343318939208984 11.837822914123535 21.393600463867188 12.0740966796875 L21.393600463867188 12.709310531616211 C21.287633895874023 12.69664478302002 21.165952682495117 12.607768058776855 21.149324417114258 12.502350807189941 L21.149324417114258 12.05390739440918 C21.062410354614258 11.619973182678223 20.618532180786133 11.576604843139648 20.557022094726562 12.05390739440918 L20.557022094726562 12.709310531616211 C20.4510555267334 12.696629524230957 20.329519271850586 12.607745170593262 20.312740325927734 12.502350807189941 L20.312740325927734 11.533623695373535 C20.394983291625977 11.543755531311035 20.48651885986328 11.615757942199707 20.49959945678711 11.697583198547363 L20.49959945678711 11.697583198547363 C20.643341064453125 11.637190818786621 20.78708267211914 11.576798439025879 20.930824279785156 11.516406059265137 L20.930824279785156 11.516406059265137"></path>
<path fill="none" stroke="black" stroke-width=".3" stroke-opacity="1.0"  filling="0" d="M3.2217159271240234 11.525127410888672 L3.2217159271240234 11.525127410888672 C3.1986677646636963 11.73835563659668 2.8805572986602783 11.84343147277832 2.8594493865966797 12.05686092376709 L2.8594493865966797 12.7092924118042 C2.7541158199310303 12.696697235107422 2.6320173740386963 12.610041618347168 2.615168571472168 12.505304336547852 L2.615168571472168 11.530896186828613 C2.6973695755004883 11.54089641571045 2.7889063358306885 11.612833023071289 2.802027702331543 11.69459342956543 L2.802027702331543 11.69459342956543 C2.9419238567352295 11.638104438781738 3.081819772720337 11.581616401672363 3.2217159271240234 11.525127410888672 L3.2217159271240234 11.525127410888672"></path>
<path fill="none" stroke="black" stroke-width=".3" stroke-opacity="1.0"  filling="0" d="M13.622758865356445 11.525131225585938 L13.622758865356445 11.525131225585938 C13.599908828735352 11.738364219665527 13.281684875488281 11.843452453613281 13.260579109191895 12.056865692138672 L13.260579109191895 12.709296226501465 C13.155268669128418 12.696698188781738 13.033230781555176 12.61002254486084 13.016386032104492 12.5053071975708 L13.016386032104492 11.530899047851562 C13.09852123260498 11.540892601013184 13.190016746520996 11.61287784576416 13.202981948852539 11.694597244262695 L13.202981948852539 11.694597244262695 C13.342907905578613 11.638108253479004 13.482832908630371 11.581620216369629 13.622758865356445 11.525131225585938 L13.622758865356445 11.525131225585938"></path>
<path fill="none" stroke="black" stroke-width=".3" stroke-opacity="1.0"  filling="0" d="M22.34211540222168 11.527942657470703 L22.672744750976562 11.527942657470703 L22.106311798095703 12.088517189025879 L22.7186279296875 12.709310531616211 C22.574460983276367 12.703523635864258 22.416290283203125 12.687100410461426 22.299028396606445 12.603033065795898 L21.925312042236328 12.180460929870605 C21.898277282714844 12.129735946655273 21.898256301879883 12.058736801147461 21.925312042236328 12.008023262023926 L22.34211540222168 11.527942657470703"></path>
<path fill="none" stroke="black" stroke-width=".3" stroke-opacity="1.0"  filling="0" d="M5.880710124969482 11.530826568603516 L5.880710124969482 11.530826568603516 C5.98543643951416 11.543519020080566 6.106342792510986 11.628114700317383 6.125077247619629 11.73193073272705 L6.125077247619629 12.709310531616211 C6.018487453460693 12.696569442749023 5.897237777709961 12.605622291564941 5.880710124969482 12.499553680419922 L5.880710124969482 11.530826568603516"></path>
<path fill="none" stroke="black" stroke-width=".3" stroke-opacity="1.0"  filling="0" d="M11.694051742553711 11.530830383300781 L11.694051742553711 11.530830383300781 C11.800482749938965 11.543912887573242 11.917546272277832 11.637743949890137 11.935447692871094 11.743471145629883 L11.935447692871094 12.19479751586914 C12.029122352600098 12.626771926879883 12.470573425292969 12.652270317077637 12.530546188354492 12.18326187133789 L12.530546188354492 11.530830383300781 C12.637738227844238 11.543822288513184 12.75688648223877 11.637009620666504 12.774911880493164 11.743471145629883 L12.77762508392334 12.709314346313477 C12.69417953491211 12.69912338256836 12.603581428527832 12.622944831848145 12.590849876403809 12.539848327636719 L12.590849876403809 12.539848327636719 C12.043688774108887 12.773158073425293 11.827072143554688 12.791412353515625 11.694051742553711 12.174610137939453 L11.694051742553711 11.530830383300781"></path>
<path fill="none" stroke="black" stroke-width=".3" stroke-opacity="1.0"  filling="0" d="M19.116945266723633 11.536595344543457 L19.530866622924805 11.536595344543457 C19.774494171142578 11.608173370361328 20.028888702392578 11.796698570251465 20.10297966003418 12.039573669433594 L20.10297966003418 12.709310531616211 C20.0184326171875 12.697284698486328 19.931501388549805 12.615495681762695 19.91900634765625 12.531017303466797 L19.91900634765625 12.531017303466797 C19.31699562072754 13.023932456970215 18.53536033630371 12.259913444519043 19.490663528442383 11.97350025177002 L19.861408233642578 11.97350025177002 C19.809585571289062 11.85037899017334 19.6697998046875 11.764023780822754 19.539430618286133 11.734902381896973 L19.29803466796875 11.734902381896973 C19.209449768066406 11.722023010253906 19.128582000732422 11.625351905822754 19.116945266723633 11.536595344543457 L19.116945266723633 11.536595344543457"></path>
<path fill="none" stroke="black" stroke-width=".3" stroke-opacity="1.0"  filling="0" d="M18.56210708618164 11.65730094909668 L18.56210708618164 11.65730094909668 C18.540544509887695 11.770974159240723 18.398452758789062 11.852033615112305 18.283390045166016 11.864173889160156 L17.938426971435547 11.864173889160156 L17.938426971435547 11.447457313537598 L18.268970489501953 11.447457313537598 C18.366682052612305 11.51740550994873 18.46439552307129 11.587352752685547 18.56210708618164 11.65730094909668 L18.56210708618164 11.65730094909668"></path>
<path fill="none" stroke="black" stroke-width=".3" stroke-opacity="1.0"  filling="0" d="M3.8196115493774414 11.706192016601562 L3.8196115493774414 11.706192016601562 C3.91831374168396 11.809642791748047 4.0170159339904785 11.913093566894531 4.115718364715576 12.016544342041016 L4.115718364715576 12.016544342041016 C4.115718364715576 12.01846694946289 4.115718364715576 12.020389556884766 4.115718364715576 12.02231216430664 L3.500518798828125 12.02231216430664 C3.5221521854400635 11.874160766601562 3.671421527862549 11.727560997009277 3.8196115493774414 11.706192016601562 L3.8196115493774414 11.706192016601562"></path>
<path fill="none" stroke="black" stroke-width=".3" stroke-opacity="1.0"  filling="0" d="M16.87087059020996 11.706192016601562 L16.87087059020996 11.706192016601562 C16.969572067260742 11.809642791748047 17.068275451660156 11.913093566894531 17.166976928710938 12.016544342041016 L17.166976928710938 12.016544342041016 C17.166976928710938 12.01846694946289 17.166976928710938 12.020389556884766 17.166976928710938 12.02231216430664 L16.551952362060547 12.02231216430664 C16.57353401184082 11.874195098876953 16.72272300720215 11.727561950683594 16.87087059020996 11.706192016601562 L16.87087059020996 11.706192016601562"></path>
<path fill="none" stroke="black" stroke-width=".3" stroke-opacity="1.0"  filling="0" d="M7.4817914962768555 12.0 L7.4817914962768555 12.0 C7.4818220138549805 11.999969482421875 10.002632141113281 8.639087677001953 10.002632141113281 12.0 C10.002632141113281 15.360915184020996 7.4818220138549805 12.000029563903809 7.481791973114014 12.0 L7.481791973114014 12.0"></path>
<path fill="none" stroke="black" stroke-width=".3" stroke-opacity="1.0"  filling="0" d="M10.098475456237793 12.0 L10.098475456237793 12.0 C9.591877937316895 13.223172187805176 7.385794162750244 14.159912109375 7.385794162750244 12.0 C7.385794162750244 9.840106010437012 9.591869354248047 10.776847839355469 10.098475456237793 12.0 L10.098475456237793 12.0"></path>
<path fill="none" stroke="black" stroke-width=".3" stroke-opacity="1.0"  filling="0" d="M4.368649482727051 12.02231216430664 L4.368649482727051 12.02231216430664 C4.349470615386963 12.127134323120117 4.221706390380859 12.20677661895752 4.115718364715576 12.21782398223877 L3.500518798828125 12.21782398223877 C3.5536327362060547 12.355118751525879 3.688375949859619 12.467813491821289 3.828176498413086 12.513930320739746 L4.08687686920166 12.513930320739746 C4.177941799163818 12.528050422668457 4.265912055969238 12.621018409729004 4.279590606689453 12.712150573730469 L3.836915969848633 12.712150573730469 C3.6423957347869873 12.513842582702637 3.252034902572632 12.39500904083252 3.253355026245117 12.117227554321289 C3.25896954536438 10.935724258422852 4.233874797821045 11.647693634033203 4.368650436401367 12.02231216430664 L4.368650436401367 12.02231216430664"></path>
<path fill="none" stroke="black" stroke-width=".3" stroke-opacity="1.0"  filling="0" d="M17.41990852355957 12.02231216430664 L17.41990852355957 12.02231216430664 C17.400728225708008 12.127134323120117 17.272964477539062 12.20677661895752 17.166976928710938 12.21782398223877 L16.551952362060547 12.21782398223877 C16.605009078979492 12.355117797851562 16.739742279052734 12.467820167541504 16.8795223236084 12.513930320739746 L17.13822364807129 12.513930320739746 C17.229267120361328 12.528055191040039 17.317171096801758 12.621038436889648 17.330848693847656 12.712150573730469 L16.888174057006836 12.712150573730469 C16.693683624267578 12.513842582702637 16.303380966186523 12.394988059997559 16.30470085144043 12.117227554321289 C16.310314178466797 10.935768127441406 17.28512954711914 11.647686004638672 17.41990852355957 12.02231216430664 L17.41990852355957 12.02231216430664"></path>
<path fill="none" stroke="black" stroke-width=".3" stroke-opacity="1.0"  filling="0" d="M5.40066385269165 12.11718463897705 L5.40066385269165 12.11718463897705 C5.3354363441467285 12.65235424041748 4.7653632164001465 12.663930892944336 4.748144626617432 12.11718463897705 C4.728402137756348 11.490291595458984 5.305196762084961 11.667343139648438 5.40066385269165 12.11718463897705 L5.40066385269165 12.11718463897705"></path>
<path fill="none" stroke="black" stroke-width=".3" stroke-opacity="1.0"  filling="0" d="M14.568463325500488 12.12009048461914 L14.568463325500488 12.12009048461914 C14.508757591247559 12.610085487365723 14.141328811645508 12.739330291748047 13.901611328125 12.12009048461914 C13.692648887634277 11.58029556274414 14.4602632522583 11.63708209991455 14.568463325500488 12.12009048461914 L14.568463325500488 12.12009048461914"></path>
<path fill="none" stroke="black" stroke-width=".3" stroke-opacity="1.0"  filling="0" d="M14.818684577941895 12.12009048461914 L14.818684577941895 12.12009048461914 C13.43582534790039 13.543342590332031 13.440709114074707 10.70187759399414 14.818686485290527 12.12009048461914 L14.818686485290527 12.12009048461914"></path>
<path fill="none" stroke="black" stroke-width=".3" stroke-opacity="1.0"  filling="0" d="M16.152286529541016 12.122864723205566 L16.152286529541016 12.122864723205566 C15.94068431854248 12.381035804748535 15.565112113952637 12.693254470825195 15.255488395690918 12.568511962890625 L15.255488395690918 13.163521766662598 C15.151511192321777 13.150839805603027 15.030954360961914 13.065711975097656 15.014093399047852 12.962329864501953 L15.014093399047852 11.530827522277832 C15.096630096435547 11.542624473571777 15.185014724731445 11.618020057678223 15.197980880737305 11.700380325317383 L15.197980880737305 11.700380325317383 C15.520126342773438 11.569064140319824 15.930205345153809 11.855094909667969 16.152286529541016 12.122865676879883 L16.152286529541016 12.122865676879883"></path>
<path fill="none" stroke="black" stroke-width=".3" stroke-opacity="1.0"  filling="0" d="M15.904946327209473 12.122865676879883 L15.904946327209473 12.122865676879883 C15.79959487915039 13.049734115600586 14.934917449951172 12.208062171936035 15.29289436340332 11.76924991607666 C15.579438209533691 11.418002128601074 15.868454933166504 11.945221900939941 15.904947280883789 12.122865676879883 L15.904947280883789 12.122865676879883"></path>
<path fill="none" stroke="black" stroke-width=".3" stroke-opacity="1.0"  filling="0" d="M19.861408233642578 12.203446388244629 L19.861408233642578 12.203446388244629 C19.754417419433594 12.917014122009277 18.894929885864258 12.234704971313477 19.527982711791992 12.166040420532227 L19.861408233642578 12.203447341918945"></path>
<path fill="none" stroke="black" stroke-width=".3" stroke-opacity="1.0"  filling="0" d="M18.596630096435547 12.278181076049805 L18.596630096435547 12.278181076049805 C18.570697784423828 12.406100273132324 18.40745735168457 12.491852760314941 18.277624130249023 12.505243301391602 L17.938426971435547 12.505243301391602 L17.938426971435547 12.059684753417969 L18.283390045166016 12.059684753417969 C18.387802124023438 12.132516860961914 18.49221420288086 12.20534896850586 18.59662628173828 12.278181076049805 L18.59662628173828 12.278181076049805"></path>
<path fill="none" stroke="black" stroke-width=".3" stroke-opacity="1.0"  filling="0" d="M18.85550308227539 12.281064987182617 L18.85550308227539 12.281064987182617 C18.659992218017578 12.42477798461914 18.464481353759766 12.568490982055664 18.268970489501953 12.712203979492188 L17.924095153808594 12.712203979492188 C17.8195743560791 12.699361801147461 17.701963424682617 12.609240531921387 17.685407638549805 12.505244255065918 L17.685407638549805 11.447457313537598 C17.701810836791992 11.342777252197266 17.818933486938477 11.250490188598633 17.924095153808594 11.237525939941406 L18.260316848754883 11.237525939941406 C18.47185707092285 11.385961532592773 18.753456115722656 11.709928512573242 18.613933563232422 11.927451133728027 L18.613933563232422 11.927451133728027 C18.727493286132812 12.013949394226074 18.816999435424805 12.14360523223877 18.85550308227539 12.281064987182617 L18.85550308227539 12.281064987182617"></path>
<path fill="none" stroke="black" stroke-width=".3" stroke-opacity="1.0"  filling="0" d="M11.510086059570312 12.709314346313477 L10.736695289611816 12.709314346313477 C10.628674507141113 12.69656753540039 10.505070686340332 12.606770515441895 10.486734390258789 12.499557495117188 L10.486734390258789 11.447539329528809 C10.5050630569458 11.340267181396484 10.628623962402344 11.25031566619873 10.736695289611816 11.237520217895508 L11.303125381469727 11.237520217895508 C11.400422096252441 11.251426696777344 11.496366500854492 11.350215911865234 11.510085105895996 11.447539329528809 L10.7366943359375 11.447539329528809 L10.7366943359375 11.855603218078613 L11.23408031463623 11.855603218078613 C11.329285621643066 11.869417190551758 11.424381256103516 11.964468955993652 11.438156127929688 12.059679985046387 L10.7366943359375 12.059679985046387 L10.7366943359375 12.499557495117188 L11.285907745361328 12.499557495117188 C11.387358665466309 12.512988090515137 11.494274139404297 12.608207702636719 11.510085105895996 12.709315299987793 L11.510085105895996 12.709315299987793"></path>
<path fill="none" stroke="black" stroke-width=".3" stroke-opacity="1.0"  filling="0" d="M2.408201217651367 12.715043067932129 L1.9598464965820312 12.715043067932129 C0.9243485927581787 12.295710563659668 1.2786699533462524 11.976492881774902 1.9598464965820312 11.234771728515625 L2.408201217651367 11.234771728515625 C2.3948886394500732 11.329401969909668 2.3072457313537598 11.43011474609375 2.2127771377563477 11.444528579711914 L1.9598464965820312 11.444528579711914 C1.2624658346176147 11.485285758972168 1.4636300802230835 12.279516220092773 1.9598464965820312 12.502315521240234 L2.198357582092285 12.502315521240234 C2.2969841957092285 12.516230583190918 2.394536256790161 12.616381645202637 2.4082021713256836 12.715043067932129 L2.4082021713256836 12.715043067932129"></path></svg>