<svg xmlns="http://www.w3.org/2000/svg" viewBox="0.0 0.0 24.0 24.0" height="200px" width="200px"><path fill="none" stroke="black" stroke-width=".3" stroke-opacity="1.0"  filling="0" d="M2.6330318450927734 10.63198471069336 L2.6330318450927734 10.63198471069336 C4.661611557006836 11.223726272583008 4.704441547393799 12.682063102722168 2.669046401977539 13.305971145629883 L1.2087812423706055 13.305971145629883 C1.2087812423706055 13.255471229553223 1.2087812423706055 13.204971313476562 1.2087812423706055 13.154471397399902 L1.2087812423706055 13.154471397399902 C1.3719879388809204 13.05080509185791 1.535194754600525 12.947137832641602 1.6984014511108398 12.84347152709961 L1.6984014511108398 11.009164810180664 C1.6271435022354126 10.950885772705078 1.555885672569275 10.892605781555176 1.4846277236938477 10.83432674407959 L1.2981433868408203 10.83432674407959 C1.4807462692260742 10.766993522644043 1.6633491516113281 10.699661254882812 1.845952033996582 10.632328033447266 L1.845952033996582 10.632328033447266"></path>
<path fill="none" stroke="black" stroke-width=".3" stroke-opacity="1.0"  filling="0" d="M6.113560676574707 10.661483764648438 L6.113560676574707 10.661483764648438 C6.147272109985352 10.757080078125 6.180984020233154 10.852677345275879 6.214695453643799 10.948273658752441 L7.112469673156738 12.996009826660156 C7.207141399383545 13.041279792785645 7.301812648773193 13.086548805236816 7.396484375 13.131818771362305 L7.485150337219238 13.131818771362305 C7.451438903808594 13.190008163452148 7.417726993560791 13.248197555541992 7.3840155601501465 13.306386947631836 L6.124917984008789 13.306386947631836 C6.124917984008789 13.255610466003418 6.124917984008789 13.204833030700684 6.124917984008789 13.154056549072266 L6.124917984008789 13.154056549072266 C6.2660956382751465 13.104838371276855 6.407273292541504 13.055619239807129 6.548450946807861 13.006401062011719 L6.303641319274902 12.419418334960938 L5.300856590270996 12.419418334960938 L5.141522407531738 12.843368530273438 C5.183085918426514 12.939241409301758 5.224649429321289 13.035115242004395 5.2662129402160645 13.130988121032715 L5.600114822387695 13.130988121032715 C5.567785263061523 13.189281463623047 5.535455703735352 13.247573852539062 5.50312614440918 13.305867195129395 L4.391568660736084 13.305867195129395 C4.391568660736084 13.255367279052734 4.391568660736084 13.204867362976074 4.391568660736084 13.154367446899414 L4.391568660736084 13.154367446899414 C4.537969589233398 13.0508394241333 4.684370994567871 12.947311401367188 4.8307719230651855 12.843783378601074 L5.600114822387695 11.021093368530273 C5.720649242401123 10.900558471679688 5.841183662414551 10.780024528503418 5.9617180824279785 10.659489631652832 L5.9617180824279785 10.659489631652832"></path>
<path fill="none" stroke="black" stroke-width=".3" stroke-opacity="1.0"  filling="0" d="M19.73844337463379 10.704730987548828 L19.73844337463379 10.704730987548828 C20.947216033935547 10.685609817504883 22.323179244995117 10.933871269226074 21.334484100341797 12.300785064697266 L21.334484100341797 12.300785064697266 C21.754802703857422 12.672019958496094 22.28113555908203 12.91110897064209 22.794761657714844 13.136214256286621 L22.794761657714844 13.136214256286621 C21.784690856933594 13.639819145202637 21.492395401000977 12.83289623260498 20.722244262695312 12.411636352539062 L20.461742401123047 12.411636352539062 L20.461742401123047 12.98240852355957 C20.540782928466797 13.03274917602539 20.619823455810547 13.083089828491211 20.698863983154297 13.133430480957031 L20.896915435791016 13.133430480957031 C20.85930061340332 13.191619873046875 20.821683883666992 13.249808311462402 20.784069061279297 13.307997703552246 L19.559812545776367 13.307997703552246 C19.559812545776367 13.257200241088867 19.559812545776367 13.206401824951172 19.559812545776367 13.155604362487793 L19.559812545776367 13.155604362487793 C19.698495864868164 13.055851936340332 19.837181091308594 12.956098556518555 19.97586441040039 12.856346130371094 L19.97586441040039 11.060796737670898 C19.90454864501953 11.002150535583496 19.833232879638672 10.943503379821777 19.761917114257812 10.884857177734375 L19.575429916381836 10.884857177734375 C19.628541946411133 10.822698593139648 19.68165397644043 10.760540962219238 19.734766006469727 10.698382377624512 L19.734766006469727 10.698382377624512"></path>
<path fill="none" stroke="black" stroke-width=".3" stroke-opacity="1.0"  filling="0" d="M9.917994499206543 10.710020065307617 L10.702851295471191 10.710020065307617 L11.678505897521973 12.579418182373047 L12.57628059387207 10.710197448730469 C12.884307861328125 10.759041786193848 13.192336082458496 10.807886123657227 13.50036334991455 10.856730461120605 L13.50036334991455 10.856730461120605 C13.376136779785156 10.922781944274902 13.251909255981445 10.9888334274292 13.12768268585205 11.054884910583496 L13.314720153808594 12.951537132263184 C13.439133644104004 13.009726524353027 13.56354808807373 13.067914962768555 13.68796157836914 13.126104354858398 L13.68796157836914 13.126104354858398 C13.651617050170898 13.184293746948242 13.615273475646973 13.242483139038086 13.57892894744873 13.30067253112793 L12.207329750061035 13.30067253112793 C12.207329750061035 13.250345230102539 12.207329750061035 13.200018882751465 12.207329750061035 13.149691581726074 L12.41736125946045 13.138677597045898 C12.53775691986084 13.054649353027344 12.658153533935547 12.970622062683105 12.778549194335938 12.88659381866455 L12.603981971740723 11.192190170288086 L11.670608520507812 13.151208877563477 C11.606877326965332 13.205709457397461 11.543147087097168 13.260209083557129 11.479415893554688 13.314709663391113 L10.405681610107422 11.193498611450195 L10.280990600585938 12.939172744750977 C10.414458274841309 13.00290298461914 10.547926902770996 13.066634178161621 10.681394577026367 13.130364418029785 L10.890593528747559 13.130364418029785 C10.858267784118652 13.188553810119629 10.825942039489746 13.246742248535156 10.79361629486084 13.304931640625 L9.518983840942383 13.304931640625 C9.518983840942383 13.254605293273926 9.518983840942383 13.204278945922852 9.518983840942383 13.153952598571777 L9.518983840942383 13.153952598571777 C9.676925659179688 13.065747261047363 9.834867477416992 12.977542877197266 9.992809295654297 12.889337539672852 L10.152143478393555 11.063311576843262 C10.020061492919922 11.003737449645996 9.887978553771973 10.944162368774414 9.75589656829834 10.884588241577148 L9.75589656829834 10.884588241577148 C9.809928894042969 10.826398849487305 9.863962173461914 10.768209457397461 9.917994499206543 10.710020065307617 L9.917994499206543 10.710020065307617"></path>
<path fill="none" stroke="black" stroke-width=".3" stroke-opacity="1.0"  filling="0" d="M9.01856803894043 10.710020065307617 L9.01856803894043 10.710020065307617 C9.01856803894043 10.760496139526367 9.01856803894043 10.8109712600708 9.01856803894043 10.86144733428955 L9.01856803894043 10.86144733428955 C8.889260292053223 10.948269844055176 8.7599515914917 11.035093307495117 8.630643844604492 11.121915817260742 L8.630643844604492 12.968183517456055 C8.698070526123047 13.022562980651855 8.765497207641602 13.07694149017334 8.832923889160156 13.13132095336914 L9.042123794555664 13.13132095336914 C9.00841236114502 13.189579010009766 8.974700927734375 13.247838020324707 8.94098949432373 13.306096076965332 L7.760582447052002 13.306096076965332 C7.760582447052002 13.255561828613281 7.760582447052002 13.205026626586914 7.760582447052002 13.154492378234863 L7.760582447052002 13.154492378234863 C7.8889689445495605 13.071593284606934 8.017355918884277 12.98869514465332 8.145742416381836 12.90579605102539 L8.145742416381836 11.048213005065918 C8.074529647827148 10.993729591369629 8.003317832946777 10.939247131347656 7.93210506439209 10.884763717651367 L7.745484352111816 10.884763717651367 C7.79988431930542 10.82657527923584 7.854283809661865 10.768385887145996 7.908683776855469 10.710197448730469 L7.908683776855469 10.710197448730469"></path>
<path fill="none" stroke="black" stroke-width=".3" stroke-opacity="1.0"  filling="0" d="M15.637121200561523 10.710051536560059 L15.637121200561523 10.710051536560059 C15.637121200561523 10.760526657104492 15.637121200561523 10.811002731323242 15.637121200561523 10.861477851867676 L15.637121200561523 10.861477851867676 C15.475299835205078 10.965158462524414 15.31347942352295 11.068839073181152 15.151658058166504 11.17251968383789 L15.151658058166504 12.890251159667969 C15.210331916809082 12.944734573364258 15.26900577545166 12.99921703338623 15.327679634094238 13.05370044708252 L15.577061653137207 13.05370044708252 C15.740545272827148 12.93056869506836 15.90402889251709 12.807435989379883 16.06751251220703 12.684304237365723 L16.189502716064453 12.44302749633789 C16.357187271118164 12.678539276123047 16.183944702148438 13.028355598449707 16.10367202758789 13.306096076965332 L14.208369255065918 13.306096076965332 C14.208369255065918 13.255561828613281 14.208369255065918 13.205026626586914 14.208369255065918 13.154492378234863 L14.208369255065918 13.154492378234863 C14.36253547668457 13.045685768127441 14.516702651977539 12.93687915802002 14.670868873596191 12.828072547912598 L14.670868873596191 11.048213005065918 C14.599587440490723 10.993729591369629 14.528305053710938 10.939247131347656 14.457023620605469 10.884763717651367 L14.270683288574219 10.884763717651367 C14.32508373260498 10.82657527923584 14.379483222961426 10.768385887145996 14.433883666992188 10.710197448730469 L14.433883666992188 10.710197448730469"></path>
<path fill="none" stroke="black" stroke-width=".3" stroke-opacity="1.0"  filling="0" d="M18.80034065246582 10.713044166564941 L18.80034065246582 10.713044166564941 C18.827762603759766 10.946105003356934 18.944908142089844 11.423620223999023 18.71056365966797 11.41130256652832 L18.65923309326172 11.236736297607422 C18.53887176513672 11.136983871459961 18.418508529663086 11.037230491638184 18.298147201538086 10.937478065490723 L17.676044464111328 10.937478065490723 L17.676044464111328 11.93608570098877 L18.084095001220703 11.93608570098877 C18.134733200073242 11.88943099975586 18.185373306274414 11.842775344848633 18.236011505126953 11.796120643615723 L18.308956146240234 11.598016738891602 C18.494813919067383 11.841350555419922 18.421178817749023 12.203522682189941 18.421178817749023 12.509716033935547 L18.421178817749023 12.509716033935547 C18.376487731933594 12.517756462097168 18.329504013061523 12.51777458190918 18.28495216369629 12.508988380432129 L18.28495216369629 12.508988380432129 C18.21751594543457 12.396316528320312 18.15007781982422 12.28364372253418 18.0826416015625 12.170971870422363 L17.674901962280273 12.170971870422363 L17.674901962280273 12.855110168457031 C17.774654388427734 12.921161651611328 17.874408721923828 12.987213134765625 17.97416114807129 13.053264617919922 L18.308019638061523 13.053264617919922 C18.47150421142578 12.930167198181152 18.634986877441406 12.807068824768066 18.798471450805664 12.683971405029297 L18.920387268066406 12.442797660827637 C19.088045120239258 12.67841625213623 18.9148006439209 13.02826976776123 18.834495544433594 13.306075096130371 L16.68981170654297 13.306075096130371 C16.68981170654297 13.2555513381958 16.68981170654297 13.205026626586914 16.68981170654297 13.154502868652344 L16.68981170654297 13.154502868652344 C16.851909637451172 13.050923347473145 17.014009475708008 12.947342872619629 17.17610740661621 12.84376335144043 L17.17610740661621 11.048213005065918 C17.106372833251953 10.993729591369629 17.036640167236328 10.939247131347656 16.96690559387207 10.884763717651367 L16.781251907348633 10.884763717651367 C16.83824348449707 10.82657527923584 16.895233154296875 10.768385887145996 16.952224731445312 10.710197448730469 L16.952224731445312 10.710197448730469"></path>
<path fill="none" stroke="black" stroke-width=".3" stroke-opacity="1.0"  filling="0" d="M20.46580696105957 10.914523124694824 L20.598600387573242 10.914523124694824 C20.848453521728516 11.143781661987305 21.333782196044922 11.263507843017578 21.348159790039062 11.602298736572266 C21.361021041870117 11.905380249023438 20.884519577026367 11.993619918823242 20.652698516845703 12.18928050994873 L20.46607780456543 12.18928050994873"></path>
<path fill="none" stroke="black" stroke-width=".3" stroke-opacity="1.0"  filling="0" d="M5.790611267089844 11.195659637451172 L6.214352130889893 12.206487655639648 L5.386497974395752 12.206487655639648"></path>
<path fill="none" stroke="black" stroke-width=".3" stroke-opacity="1.0"  filling="0" d="M2.1839990615844727 12.816496849060059 L2.1839990615844727 10.861603736877441 L2.584402084350586 10.861603736877441 C2.9626312255859375 11.255439758300781 3.7076685428619385 11.497187614440918 3.7190895080566406 12.043111801147461 C3.759793519973755 13.988790512084961 2.6243691444396973 13.089134216308594 2.1841440200805664 12.817577362060547 L2.1841440200805664 12.817577362060547"></path></svg>