<svg xmlns="http://www.w3.org/2000/svg" viewBox="0.0 0.0 24.0 24.0" height="200px" width="200px"><path fill="none" stroke="black" stroke-width=".3" stroke-opacity="1.0"  filling="0" d="M109.50885772705078 209.01776123046875 L112.07952880859375 209.01776123046875 C114.4579086303711 209.2133331298828 115.00755310058594 209.22442626953125 115.86307525634766 211.4901123046875 L115.86307525634766 211.4901123046875 C115.15989685058594 211.5467529296875 114.45734405517578 211.61190795898438 113.75584411621094 211.68649291992188 L113.75584411621094 211.68649291992188 C113.7924575805664 210.38168334960938 113.18370819091797 210.46112060546875 112.20448303222656 210.1719970703125 L111.61326599121094 210.1719970703125 L111.61326599121094 212.00962829589844 C110.9089126586914 212.1529998779297 110.2070083618164 212.30918884277344 109.50885772705078 212.480224609375 L109.50885772705078 209.01776123046875"></path>
<path fill="none" stroke="black" stroke-width=".3" stroke-opacity="1.0"  filling="0" d="M116.82810974121094 209.01776123046875 L118.96733856201172 209.01776123046875 L118.96733856201172 211.3807830810547 C118.25411224365234 211.39134216308594 117.54095458984375 211.4091339111328 116.82810974121094 211.434814453125 L116.82810974121094 209.01776123046875"></path>
<path fill="none" stroke="black" stroke-width=".3" stroke-opacity="1.0"  filling="0" d="M120.92632293701172 209.01776123046875 L123.56510162353516 209.01776123046875 L121.59384155273438 211.43019104003906 C120.76183319091797 211.4049835205078 119.92950439453125 211.3888397216797 119.09715270996094 211.3807830810547 L120.92632293701172 209.01776123046875"></path>
<path fill="none" stroke="black" stroke-width=".3" stroke-opacity="1.0"  filling="0" d="M128.62246704101562 209.01776123046875 L130.803955078125 209.01776123046875 L129.21621704101562 212.61184692382812 C128.60769653320312 212.4579620361328 127.9991683959961 212.30406188964844 127.3906478881836 212.15017700195312 L128.62246704101562 209.01776123046875"></path>
<path fill="none" stroke="black" stroke-width=".3" stroke-opacity="1.0"  filling="0" d="M119.15885925292969 211.34083557128906 L119.15885925292969 211.34083557128906 C119.9689712524414 211.34994506835938 120.779052734375 211.3684844970703 121.58869934082031 211.3974151611328 L121.58869934082031 211.3974151611328 C121.59041595458984 211.40834045410156 121.59212493896484 211.4192657470703 121.59384155273438 211.43019104003906 L123.79016876220703 214.09942626953125 L121.10222625732422 214.09942626953125 L119.09715270996094 211.3807830810547 C119.11772155761719 211.36746215820312 119.13829040527344 211.35415649414062 119.15885925292969 211.34083557128906 L119.15885925292969 211.34083557128906"></path>
<path fill="none" stroke="black" stroke-width=".3" stroke-opacity="1.0"  filling="0" d="M118.93124389648438 211.3415985107422 L118.93124389648438 211.3415985107422 C118.94319152832031 211.3546600341797 118.95513916015625 211.3677215576172 118.96708679199219 211.3807830810547 L118.96733856201172 214.09942626953125 L116.82810974121094 214.09942626953125 L116.82810974121094 211.434814453125 C116.84244537353516 211.42098999023438 116.85678100585938 211.4071502685547 116.8711166381836 211.39332580566406 L116.8711166381836 211.39332580566406 C117.55760955810547 211.3689727783203 118.24439239501953 211.35191345214844 118.93124389648438 211.3415985107422 L118.93124389648438 211.3415985107422"></path>
<path fill="none" stroke="black" stroke-width=".3" stroke-opacity="1.0"  filling="0" d="M115.8280029296875 211.45323181152344 L115.8280029296875 211.45323181152344 C116.10716247558594 211.7467803955078 115.82963562011719 212.2813262939453 115.68630981445312 212.66021728515625 C115.15432739257812 214.06651306152344 113.67433166503906 213.98692321777344 112.4454116821289 214.09942626953125 L109.50885772705078 214.09942626953125 L109.50885772705078 212.480224609375 C109.58707427978516 212.368896484375 111.53374481201172 211.92822265625 111.61326599121094 212.00962829589844 L111.61326599121094 212.94520568847656 L112.20448303222656 212.94520568847656 C112.86373901367188 212.76231384277344 113.36164855957031 212.17567443847656 113.79092407226562 211.64295959472656 L113.79092407226562 211.64295959472656 C114.46910095214844 211.57115173339844 115.14825439453125 211.5081787109375 115.8280029296875 211.45323181152344 L115.8280029296875 211.45323181152344"></path>
<path fill="none" stroke="black" stroke-width=".3" stroke-opacity="1.0"  filling="0" d="M124.92828369140625 211.6913604736328 L124.92828369140625 211.6913604736328 C125.68441772460938 211.80372619628906 126.4388198852539 211.92874145507812 127.19042205810547 212.06825256347656 L127.19042205810547 212.06825256347656 C127.20722961425781 212.08506774902344 127.22404479980469 212.1018829345703 127.24085235595703 212.1186981201172 L127.3906478881836 212.15017700195312 C127.40609741210938 212.14010620117188 127.42153930664062 212.1300506591797 127.4369888305664 212.11997985839844 L127.4369888305664 212.11997985839844 C128.0246124267578 212.26866149902344 128.6122283935547 212.41732788085938 129.19985961914062 212.56600952148438 L129.19985961914062 212.56600952148438 C129.20530700683594 212.58128356933594 129.2107696533203 212.59657287597656 129.21621704101562 212.61184692382812 L128.55923461914062 214.09942626953125 L125.94170379638672 214.09942626953125 L124.89344787597656 211.72618103027344 C124.90505981445312 211.71456909179688 124.91667175292969 211.70297241210938 124.92828369140625 211.6913604736328 L124.92828369140625 211.6913604736328"></path>
<path fill="none" stroke="black" stroke-width=".3" stroke-opacity="1.0"  filling="0" d="M124.89344787597656 211.72618103027344 L123.69722747802734 209.01776123046875 L126.05435943603516 209.01776123046875 L127.24085235595703 212.1186981201172 C126.46105194091797 211.97280883789062 125.67817687988281 211.84268188476562 124.89344787597656 211.72618103027344 L124.89344787597656 211.72618103027344"></path></svg>