<svg xmlns="http://www.w3.org/2000/svg" viewBox="0.0 0.0 24.0 24.0" height="200px" width="200px"><path fill="none" stroke="black" stroke-width=".3" stroke-opacity="1.0"  filling="0" d="M6.746192455291748 158.7115936279297 L6.746192455291748 158.7115936279297 C5.3964128494262695 159.01544189453125 3.799898147583008 159.5494384765625 2.7131175994873047 160.4169921875 C1.6263372898101807 161.2845458984375 1.0492911338806152 162.4856414794922 1.738448143005371 164.12368774414062 L1.738448143005371 164.12368774414062 C2.3171374797821045 163.74989318847656 2.837693691253662 163.2078857421875 3.5106029510498047 163.0602569580078 L3.5106029510498047 163.0602569580078 C4.185702800750732 163.07879638671875 4.860972881317139 163.0908966064453 5.536235332489014 163.10205078125 L6.207146167755127 163.10205078125 C8.724445343017578 162.4290008544922 8.338399887084961 160.2659149169922 6.746192455291748 158.7115936279297 L6.746192455291748 158.7115936279297"></path>
<path fill="none" stroke="black" stroke-width=".3" stroke-opacity="1.0"  filling="0" d="M13.922324180603027 159.98532104492188 L13.922324180603027 159.98532104492188 C14.375041961669922 160.05406188964844 14.885886192321777 159.959228515625 15.280478477478027 160.19155883789062 C16.738405227661133 161.04995727539062 15.446664810180664 163.13340759277344 14.885683059692383 164.1235809326172 L10.132953643798828 164.0992889404297 C10.791908264160156 161.43096923828125 11.214742660522461 160.826171875 13.922324180603027 159.98532104492188 L13.922324180603027 159.98532104492188"></path>
<path fill="none" stroke="black" stroke-width=".3" stroke-opacity="1.0"  filling="0" d="M21.69144058227539 160.14491271972656 L21.69144058227539 160.14491271972656 C23.264230728149414 161.63153076171875 22.661479949951172 162.1249542236328 22.078704833984375 164.12413024902344 L20.607358932495117 164.12413024902344 C20.777650833129883 163.48516845703125 21.045421600341797 162.86447143554688 21.118236541748047 162.2072296142578 C21.184694290161133 161.60736083984375 19.836994171142578 162.25564575195312 19.355051040649414 162.6189422607422 C18.783912658691406 163.0494842529297 18.336048126220703 163.6228790283203 17.82654571533203 164.12484741210938 L15.967307090759277 164.12335205078125 C16.49447250366211 162.47865295410156 16.367712020874023 160.131591796875 18.46466827392578 160.46826171875 L18.46466827392578 160.46826171875 C18.478809356689453 162.18739318847656 20.955322265625 160.41952514648438 21.69144058227539 160.14491271972656 L21.69144058227539 160.14491271972656"></path>
<path fill="none" stroke="black" stroke-width=".3" stroke-opacity="1.0"  filling="0" d="M6.042882442474365 160.41246032714844 L6.042882442474365 160.41246032714844 C6.191433906555176 160.87684631347656 5.981278419494629 161.4656524658203 5.646958827972412 161.82054138183594 L4.008635997772217 161.82054138183594 C3.739337921142578 161.57618713378906 4.439570903778076 161.210205078125 4.749186038970947 161.0194854736328 C5.154760837554932 160.76966857910156 5.611650466918945 160.61480712890625 6.042882442474365 160.41246032714844 L6.042882442474365 160.41246032714844"></path>
<path fill="none" stroke="black" stroke-width=".3" stroke-opacity="1.0"  filling="0" d="M13.407363891601562 161.25900268554688 L13.407363891601562 161.25900268554688 C14.039530754089355 161.71844482421875 13.747902870178223 164.1957550048828 12.695487976074219 164.05726623535156 C11.572774887084961 163.90953063964844 12.791922569274902 161.48287963867188 13.407363891601562 161.2590789794922 L13.407363891601562 161.2590789794922"></path>
<path fill="none" stroke="black" stroke-width=".3" stroke-opacity="1.0"  filling="0" d="M10.00527572631836 162.15513610839844 L10.00527572631836 162.15513610839844 C9.845651626586914 162.6857147216797 8.841925621032715 164.099609375 8.360533714294434 162.8672637939453 C7.967737197875977 161.86172485351562 9.459156036376953 161.75318908691406 10.005290985107422 162.15516662597656 L10.005290985107422 162.15516662597656"></path>
<path fill="none" stroke="black" stroke-width=".3" stroke-opacity="1.0"  filling="0" d="M6.904036521911621 163.7227020263672 L6.904036521911621 163.7227020263672 C7.274987697601318 163.83865356445312 8.028066635131836 163.7353973388672 7.999126434326172 164.1229705810547 L5.3393473625183105 164.1229705810547 C5.4706501960754395 164.0183563232422 5.601953506469727 163.91375732421875 5.7332563400268555 163.80914306640625 L5.7332563400268555 163.80914306640625 C6.12351655960083 163.78033447265625 6.5137763023376465 163.7515106201172 6.904036521911621 163.7227020263672 L6.904036521911621 163.7227020263672"></path>
<path fill="none" stroke="black" stroke-width=".3" stroke-opacity="1.0"  filling="0" d="M1.738570213317871 164.12286376953125 L3.95889949798584 164.12286376953125 C4.400794982910156 164.25137329101562 4.895269393920898 164.2437286376953 5.339512348175049 164.1235809326172 L7.999291896820068 164.1235809326172 C5.859591484069824 165.8772735595703 3.942955255508423 165.5876007080078 1.738570213317871 164.12286376953125 L1.738570213317871 164.12286376953125"></path>
<path fill="none" stroke="black" stroke-width=".3" stroke-opacity="1.0"  filling="0" d="M14.885088920593262 164.1235809326172 L14.885088920593262 164.1235809326172 C13.227304458618164 165.41229248046875 11.4994478225708 165.97035217285156 10.132641792297363 164.1235809326172 L10.132641792297363 164.1235809326172"></path>
<path fill="none" stroke="black" stroke-width=".3" stroke-opacity="1.0"  filling="0" d="M17.826263427734375 164.1235809326172 L17.826263427734375 164.1235809326172 C17.62012481689453 164.3631134033203 16.180984497070312 166.13534545898438 15.785608291625977 164.84429931640625 L15.861132621765137 164.51829528808594 C15.896467208862305 164.38685607910156 15.931800842285156 164.25540161132812 15.967135429382324 164.12396240234375 L17.82622528076172 164.12396240234375"></path>
<path fill="none" stroke="black" stroke-width=".3" stroke-opacity="1.0"  filling="0" d="M22.079008102416992 164.1235809326172 L22.079008102416992 164.1235809326172 C21.665740966796875 165.37701416015625 20.06960678100586 165.78880310058594 20.607152938842773 164.1235809326172 L20.607152938842773 164.1235809326172"></path></svg>