<svg xmlns="http://www.w3.org/2000/svg" viewBox="0.0 0.0 24.0 24.0" height="200px" width="200px"><path fill="none" stroke="black" stroke-width=".3" stroke-opacity="1.0"  filling="0" d="M1.2000007629394531 1.2000007629394531 L8.40000057220459 1.2000007629394531 L15.600000381469727 1.2000007629394531 L22.799999237060547 1.2000007629394531 L22.799999237060547 8.40000057220459 L22.799999237060547 15.600000381469727 L22.799999237060547 22.799999237060547 L15.600000381469727 22.799999237060547 L8.40000057220459 22.799999237060547 L1.2000007629394531 22.799999237060547 L1.2000007629394531 15.600000381469727 L1.2000007629394531 8.40000057220459 L1.2000007629394531 1.2000007629394531"></path>
<path fill="none" stroke="black" stroke-width=".3" stroke-opacity="1.0"  filling="0" d="M11.998682022094727 8.501038551330566 L14.158854484558105 9.48316764831543 L11.998682022094727 10.465319633483887 L9.841144561767578 9.48316764831543 L11.998682022094727 8.501038551330566"></path>
<path fill="none" stroke="black" stroke-width=".3" stroke-opacity="1.0"  filling="0" d="M13.321574211120605 9.679619789123535 L13.578786849975586 9.679619789123535 L13.578786849975586 10.866043090820312 L13.321574211120605 10.978665351867676 L13.321574211120605 9.679619789123535"></path>
<path fill="none" stroke="black" stroke-width=".3" stroke-opacity="1.0"  filling="0" d="M10.930411338806152 10.282001495361328 L12.001296043395996 10.771759033203125 L13.0722017288208 10.282001495361328 L13.0722017288208 10.557011604309082 L12.00129508972168 11.044157028198242 L10.930410385131836 10.557011604309082 L10.930410385131836 10.282001495361328"></path>
<path fill="none" stroke="black" stroke-width=".3" stroke-opacity="1.0"  filling="0" d="M5.295079231262207 11.84426498413086 L5.295079231262207 14.450217247009277 L4.980108261108398 14.450217247009277 L4.980108261108398 11.988314628601074 L5.295079231262207 11.84426498413086"></path>
<path fill="none" stroke="black" stroke-width=".3" stroke-opacity="1.0"  filling="0" d="M5.835792064666748 11.925458908081055 L6.16387414932251 11.925458908081055 L6.16387414932251 12.297368049621582 L5.835792064666748 12.297368049621582 L5.835792064666748 11.925458908081055"></path>
<path fill="none" stroke="black" stroke-width=".3" stroke-opacity="1.0"  filling="0" d="M3.100799560546875 11.972611427307129 L4.510286331176758 11.972611427307129 L4.510286331176758 12.244986534118652 L3.428882598876953 12.244986534118652 L3.428882598876953 13.05427360534668 L4.426283836364746 13.05427360534668 L4.426283836364746 13.321401596069336 L3.428882598876953 13.321401596069336 L3.428882598876953 14.177820205688477 L4.539144515991211 14.177820205688477 L4.539144515991211 14.4501953125 L3.100799560546875 14.4501953125 L3.100799560546875 11.972611427307129"></path>
<path fill="none" stroke="black" stroke-width=".3" stroke-opacity="1.0"  filling="0" d="M9.893632888793945 11.972611427307129 L10.688922882080078 11.972611427307129 C10.963645935058594 12.23713207244873 11.238369941711426 12.501652717590332 11.513092994689941 12.766173362731934 L11.513092994689941 12.774036407470703 C11.238369941711426 13.04030704498291 10.963645935058594 13.3065767288208 10.688922882080078 13.572847366333008 L10.221714973449707 13.572847366333008 L10.221714973449707 14.450217247009277 L9.893632888793945 14.450217247009277 L9.893632888793945 11.972611427307129"></path>
<path fill="none" stroke="black" stroke-width=".3" stroke-opacity="1.0"  filling="0" d="M7.106152534484863 12.072121620178223 L7.106152534484863 12.622122764587402 L7.5812225341796875 12.622122764587402 L7.5812225341796875 12.855209350585938 L7.106152534484863 12.855209350585938 L7.106152534484863 13.839974403381348 C7.227565288543701 14.007445335388184 7.417515754699707 14.20468521118164 7.623234748840332 14.18306827545166 L7.628483772277832 14.424016952514648 C7.293247699737549 14.469870567321777 7.00929069519043 14.105602264404297 6.796430587768555 13.8425874710083 L6.796430587768555 12.85782241821289 L6.518200874328613 12.637848854064941 L7.106152534484863 12.072121620178223"></path>
<path fill="none" stroke="black" stroke-width=".3" stroke-opacity="1.0"  filling="0" d="M15.392496109008789 12.072121620178223 L15.392496109008789 12.622122764587402 L15.86756706237793 12.622122764587402 L15.86756706237793 12.855209350585938 L15.392496109008789 12.855209350585938 L15.392496109008789 13.839974403381348 C15.513909339904785 14.007445335388184 15.70386028289795 14.20468521118164 15.909579277038574 14.18306827545166 L15.914806365966797 14.424016952514648 C15.579569816589355 14.469870567321777 15.295612335205078 14.10560131072998 15.082752227783203 13.8425874710083 L15.082752227783203 12.85782241821289 L14.804544448852539 12.637848854064941 L15.392496109008789 12.072121620178223"></path>
<path fill="none" stroke="black" stroke-width=".3" stroke-opacity="1.0"  filling="0" d="M10.221736907958984 12.2423734664917 L10.691558837890625 12.2423734664917 C10.856042861938477 12.416973114013672 11.020526885986328 12.591573715209961 11.18501091003418 12.766173362731934 L11.18501091003418 12.774036407470703 C11.020526885986328 12.950386047363281 10.856042861938477 13.12673568725586 10.691558837890625 13.303085327148438 L10.221736907958984 13.303085327148438 L10.221736907958984 12.2423734664917"></path>
<path fill="none" stroke="black" stroke-width=".3" stroke-opacity="1.0"  filling="0" d="M17.158945083618164 12.590694427490234 L17.158945083618164 12.590694427490234 C17.342674255371094 12.875296592712402 17.526403427124023 13.159897804260254 17.710132598876953 13.444499969482422 L17.710132598876953 14.452831268310547 L17.392547607421875 14.452831268310547 L17.392547607421875 13.441885948181152 C17.240619659423828 13.173293113708496 16.853565216064453 12.926422119140625 16.563129425048828 13.030686378479004 L16.563129425048828 14.452831268310547 L16.248159408569336 14.452831268310547 L16.248159408569336 12.627349853515625 L16.526390075683594 12.82378101348877 C16.737241744995117 12.746085166931152 16.94809341430664 12.668390274047852 17.158945083618164 12.590694427490234 L17.158945083618164 12.590694427490234"></path>
<path fill="none" stroke="black" stroke-width=".3" stroke-opacity="1.0"  filling="0" d="M14.534196853637695 12.595901489257812 L14.544695854187012 12.894498825073242 C14.352210998535156 12.975686073303223 14.1597261428833 13.056873321533203 13.967241287231445 13.138060569763184 L13.967241287231445 14.4501953125 L13.652271270751953 14.4501953125 L13.652271270751953 12.624714851379395 L13.930500030517578 12.897090911865234 C14.131731986999512 12.7966947555542 14.332964897155762 12.696297645568848 14.534196853637695 12.595901489257812 L14.534196853637695 12.595901489257812"></path>
<path fill="none" stroke="black" stroke-width=".3" stroke-opacity="1.0"  filling="0" d="M20.88867950439453 12.595901489257812 L20.899200439453125 12.894498825073242 C20.706714630126953 12.975686073303223 20.514230728149414 13.056873321533203 20.321744918823242 13.138060569763184 L20.321744918823242 14.4501953125 L20.00677490234375 14.4501953125 L20.00677490234375 12.624714851379395 L20.28498077392578 12.897090911865234 C20.48621368408203 12.7966947555542 20.68744659423828 12.696297645568848 20.88867950439453 12.595901489257812 L20.88867950439453 12.595901489257812"></path>
<path fill="none" stroke="black" stroke-width=".3" stroke-opacity="1.0"  filling="0" d="M5.841041088104248 12.624735832214355 L6.156012058258057 12.624735832214355 L6.156012058258057 14.450217247009277 L5.841041088104248 14.450217247009277 L5.841041088104248 12.624735832214355"></path>
<path fill="none" stroke="black" stroke-width=".3" stroke-opacity="1.0"  filling="0" d="M13.127325057983398 13.250704765319824 L13.127325057983398 14.044267654418945 C13.183115005493164 14.1228609085083 13.257015228271484 14.233192443847656 13.353045463562012 14.22497272491455 L13.353045463562012 14.437105178833008 C13.182989120483398 14.460683822631836 13.011516571044922 14.3522310256958 12.872726440429688 14.251173973083496 L12.872726440429688 14.251173973083496 C12.503454208374023 14.38675308227539 12.014473915100098 14.240693092346191 11.725723266601562 13.97354793548584 L11.725723266601562 13.965685844421387 C12.020570755004883 13.778860092163086 12.315417289733887 13.592034339904785 12.610264778137207 13.405208587646484 L12.814990043640137 13.250682830810547 C12.589557647705078 13.01523208618164 12.218954086303711 12.868756294250488 11.896342277526855 12.91542911529541 L11.859601020812988 12.684957504272461 C12.317330360412598 12.61701488494873 12.807148933410645 12.916608810424805 13.127325057983398 13.250704765319824 L13.127325057983398 13.250704765319824"></path>
<path fill="none" stroke="black" stroke-width=".3" stroke-opacity="1.0"  filling="0" d="M8.190192222595215 13.423547744750977 L8.190192222595215 13.423547744750977 C8.345057487487793 13.228867530822754 8.40607738494873 12.84472370147705 8.654787063598633 12.839506149291992 C8.887514114379883 12.834623336791992 8.927752494812012 13.216642379760742 9.06423568725586 13.405210494995117 L8.190192222595215 13.423547744750977"></path>
<path fill="none" stroke="black" stroke-width=".3" stroke-opacity="1.0"  filling="0" d="M18.403060913085938 13.423547744750977 L18.403060913085938 13.423547744750977 C18.557918548583984 13.228867530822754 18.618928909301758 12.84472370147705 18.867633819580078 12.839506149291992 C19.100364685058594 12.834623336791992 19.140615463256836 13.216642379760742 19.2771053314209 13.405210494995117 L18.403060913085938 13.423547744750977"></path>
<path fill="none" stroke="black" stroke-width=".3" stroke-opacity="1.0"  filling="0" d="M9.363439559936523 13.436637878417969 L8.190192222595215 13.625205039978027 C8.480043411254883 13.90832233428955 8.875303268432617 14.224282264709473 9.276823043823242 14.169958114624023 L9.310951232910156 14.403043746948242 C8.758216857910156 14.484851837158203 8.258443832397461 13.942612648010254 7.877834320068359 13.53353500366211 L7.877834320068359 13.525672912597656 C8.135932922363281 13.212257385253906 8.246846199035645 12.60971450805664 8.652129173278809 12.58542537689209 C9.021230697631836 12.563304901123047 9.126336097717285 13.152900695800781 9.363439559936523 13.436637878417969 L9.363439559936523 13.436637878417969"></path>
<path fill="none" stroke="black" stroke-width=".3" stroke-opacity="1.0"  filling="0" d="M19.576330184936523 13.436637878417969 L18.403060913085938 13.625205039978027 C18.69291114807129 13.908323287963867 19.088172912597656 14.224282264709473 19.48969268798828 14.169958114624023 L19.523818969726562 14.403043746948242 C18.971084594726562 14.48485279083252 18.4713134765625 13.942611694335938 18.0907039642334 13.53353500366211 L18.0907039642334 13.525672912597656 C18.34880256652832 13.212257385253906 18.459716796875 12.60971450805664 18.864999771118164 12.58542537689209 C19.234106063842773 12.563304901123047 19.33922004699707 13.152900695800781 19.576330184936523 13.436637878417969 L19.576330184936523 13.436637878417969"></path>
<path fill="none" stroke="black" stroke-width=".3" stroke-opacity="1.0"  filling="0" d="M12.817602157592773 14.070446014404297 L12.817602157592773 14.070446014404297 C12.569942474365234 14.160821914672852 12.230094909667969 14.117497444152832 12.038058280944824 13.936872482299805 L12.038058280944824 13.929010391235352 C12.23491382598877 13.819887161254883 12.431768417358398 13.710762977600098 12.628623962402344 13.601639747619629 L12.817602157592773 14.070446014404297"></path></svg>