<svg xmlns="http://www.w3.org/2000/svg" viewBox="0.0 0.0 24.0 24.0" height="200px" width="200px"><path fill="none" stroke="black" stroke-width=".3" stroke-opacity="1.0"  filling="0" d="M22.54470443725586 10.005487442016602 L22.54470443725586 10.005487442016602 C23.145919799804688 10.606709480285645 21.943483352661133 10.606705665588379 22.54470443725586 10.005487442016602 L22.54470443725586 10.005487442016602"></path>
<path fill="none" stroke="black" stroke-width=".3" stroke-opacity="1.0"  filling="0" d="M22.54470443725586 10.044238090515137 L22.54470443725586 10.044238090515137 C23.05466651916504 10.554204940795898 22.03473663330078 10.554201126098633 22.54470443725586 10.044238090515137 L22.54470443725586 10.044238090515137"></path>
<path fill="none" stroke="black" stroke-width=".3" stroke-opacity="1.0"  filling="0" d="M22.446685791015625 10.119460105895996 L22.53786277770996 10.119460105895996 C22.580896377563477 10.153528213500977 22.631601333618164 10.227726936340332 22.599411010742188 10.27218246459961 L22.446685791015625 10.119460105895996"></path>
<path fill="none" stroke="black" stroke-width=".3" stroke-opacity="1.0"  filling="0" d="M22.4968318939209 10.165048599243164 L22.55154037475586 10.165048599243164 C22.569971084594727 10.179793357849121 22.57423210144043 10.220602035522461 22.55609893798828 10.235712051391602 L22.4968318939209 10.165048599243164"></path>
<path fill="none" stroke="black" stroke-width=".3" stroke-opacity="1.0"  filling="0" d="M17.251834869384766 17.030729293823242 L17.251834869384766 17.030729293823242 C17.462303161621094 17.20396614074707 17.672771453857422 17.37720489501953 17.88323974609375 17.55044174194336 L17.518529891967773 17.55044174194336 C16.738035202026367 16.574819564819336 16.633872985839844 18.964269638061523 17.56412124633789 18.628620147705078 L17.56412124633789 18.022287368774414 L17.21080780029297 17.814857482910156 L17.883241653442383 17.814857482910156 L17.87412452697754 18.72435760498047 C16.36741828918457 19.200157165527344 16.57991600036621 17.875490188598633 17.251834869384766 17.030729293823242 L17.251834869384766 17.030729293823242"></path>
<path fill="none" stroke="black" stroke-width=".3" stroke-opacity="1.0"  filling="0" d="M8.377965927124023 17.030731201171875 L8.377965927124023 17.030731201171875 C8.513213157653809 17.045927047729492 8.648459434509277 17.06112289428711 8.783706665039062 17.076318740844727 L8.776867866516113 17.356689453125 C7.118044853210449 16.900297164916992 10.25978946685791 19.199016571044922 7.812664031982422 18.833768844604492 L7.828620433807373 18.526042938232422 C9.47339916229248 19.051145553588867 7.739843845367432 17.831058502197266 7.778472900390625 17.504854202270508 C7.808434009552002 17.251848220825195 8.17813491821289 17.188772201538086 8.377965927124023 17.030731201171875 L8.377965927124023 17.030731201171875"></path>
<path fill="none" stroke="black" stroke-width=".3" stroke-opacity="1.0"  filling="0" d="M20.780414581298828 17.033008575439453 L20.780414581298828 17.033008575439453 C21.01823616027832 17.344532012939453 21.493881225585938 17.575653076171875 21.493881225585938 17.967580795288086 C21.493881225585938 18.359508514404297 21.17234230041504 18.90215301513672 20.780414581298828 18.90215301513672 C20.388948440551758 18.90215301513672 20.069229125976562 18.359046936035156 20.069229125976562 17.967580795288086 C20.069229125976562 17.576114654541016 20.543352127075195 17.344532012939453 20.780414581298828 17.033008575439453 L20.780414581298828 17.033008575439453"></path>
<path fill="none" stroke="black" stroke-width=".3" stroke-opacity="1.0"  filling="0" d="M8.37796688079834 17.048965454101562 L8.37796688079834 17.048965454101562 C8.51473331451416 17.06416130065918 8.651500701904297 17.07935905456543 8.788267135620117 17.094554901123047 L8.788267135620117 17.338455200195312 C6.992836952209473 16.845407485961914 10.248292922973633 19.17160415649414 7.817224025726318 18.815532684326172 L7.817224025726318 18.539722442626953 C9.364858627319336 19.031822204589844 7.870144367218018 17.920944213867188 7.794429302215576 17.504854202270508 C7.75023889541626 17.262006759643555 8.183454513549805 17.200927734375 8.37796688079834 17.048965454101562 L8.37796688079834 17.048965454101562"></path>
<path fill="none" stroke="black" stroke-width=".3" stroke-opacity="1.0"  filling="0" d="M17.251834869384766 17.048965454101562 L17.251834869384766 17.048965454101562 C17.45622444152832 17.21612548828125 17.660615921020508 17.383283615112305 17.865005493164062 17.550443649291992 L17.534486770629883 17.550443649291992 C16.70599937438965 16.528200149536133 16.608617782592773 19.00554847717285 17.580076217651367 18.635456085205078 L17.580076217651367 18.006332397460938 L17.226762771606445 17.83537483215332 L17.86272621154785 17.83537483215332 L17.86272621154785 18.71295928955078 C16.386825561523438 19.170366287231445 16.597368240356445 17.87622833251953 17.251834869384766 17.048965454101562 L17.251834869384766 17.048965454101562"></path>
<path fill="none" stroke="black" stroke-width=".3" stroke-opacity="1.0"  filling="0" d="M20.780414581298828 17.048965454101562 L20.780414581298828 17.048965454101562 C21.012157440185547 17.35441017150879 21.475643157958984 17.581893920898438 21.475643157958984 17.965301513671875 C21.475643157958984 18.348709106445312 21.163822174072266 18.881637573242188 20.780414581298828 18.881637573242188 C20.397464752197266 18.881637573242188 20.087461471557617 18.348251342773438 20.087461471557617 17.965301513671875 C20.087461471557617 17.582351684570312 20.54943084716797 17.35441017150879 20.780414581298828 17.048965454101562 L20.780414581298828 17.048965454101562"></path>
<path fill="none" stroke="black" stroke-width=".3" stroke-opacity="1.0"  filling="0" d="M3.9718027114868164 17.058082580566406 L4.945124626159668 17.058082580566406 L4.290924549102783 17.265514373779297 L4.290924549102783 17.826255798339844 L4.90865421295166 18.03368377685547 L4.290924549102783 18.03368377685547 L4.290924549102783 18.65141487121582 L4.965640068054199 18.65141487121582 L4.965640068054199 18.872520446777344 L3.9718027114868164 18.872520446777344 L3.9718027114868164 17.058082580566406"></path>
<path fill="none" stroke="black" stroke-width=".3" stroke-opacity="1.0"  filling="0" d="M5.4739556312561035 17.058082580566406 L5.884255409240723 17.058082580566406 L6.367496967315674 18.473617553710938 L6.853018283843994 17.058082580566406 L7.249641418457031 17.058082580566406 L7.249641418457031 18.872520446777344 L6.955593109130859 18.872520446777344 L6.955593109130859 17.413677215576172 L6.460954189300537 18.872520446777344 L6.219332695007324 18.872520446777344 L5.724694728851318 17.413677215576172 L5.724694728851318 18.872520446777344 L5.4739556312561035 18.872520446777344 L5.4739556312561035 17.058082580566406"></path>
<path fill="none" stroke="black" stroke-width=".3" stroke-opacity="1.0"  filling="0" d="M9.428789138793945 17.058082580566406 L9.74791145324707 17.058082580566406 L9.74791145324707 18.65141487121582 L10.404390335083008 18.65141487121582 L10.404390335083008 18.872520446777344 L9.428789138793945 18.872520446777344 L9.428789138793945 17.058082580566406"></path>
<path fill="none" stroke="black" stroke-width=".3" stroke-opacity="1.0"  filling="0" d="M11.247783660888672 17.058082580566406 L11.56690502166748 17.058082580566406 L12.175517082214355 18.872520446777344 L11.842719078063965 18.872520446777344 L11.680877685546875 18.34368896484375 L11.095061302185059 18.34368896484375 L10.933220863342285 18.872520446777344 L10.643731117248535 18.872520446777344 L11.247783660888672 17.058082580566406"></path>
<path fill="none" stroke="black" stroke-width=".3" stroke-opacity="1.0"  filling="0" d="M12.620009422302246 17.058082580566406 L12.964205741882324 17.058082580566406 L13.645759582519531 18.4166316986084 L13.645759582519531 17.058082580566406 L13.917014122009277 17.058082580566406 L13.917014122009277 18.872520446777344 L13.593330383300781 18.872520446777344 L12.891263008117676 17.472942352294922 L12.891263008117676 18.872520446777344 L12.620009422302246 18.872520446777344 L12.620009422302246 17.058082580566406"></path>
<path fill="none" stroke="black" stroke-width=".3" stroke-opacity="1.0"  filling="0" d="M14.548418045043945 17.058082580566406 L14.965555191040039 17.058082580566406 C15.240608215332031 17.35441017150879 15.790714263916016 17.54275894165039 15.790714263916016 17.947065353393555 C15.790714263916016 18.36036491394043 15.240608215332031 18.564035415649414 14.965555191040039 18.872520446777344 L14.548418045043945 18.872520446777344 L14.548418045043945 17.058082580566406"></path>
<path fill="none" stroke="black" stroke-width=".3" stroke-opacity="1.0"  filling="0" d="M23.86905860900879 17.058082580566406 L24.252004623413086 17.058082580566406 C24.487546920776367 17.227521896362305 24.958633422851562 17.276243209838867 24.958633422851562 17.56639862060547 C24.958633422851562 17.859691619873047 24.487548828125 17.91591453552246 24.25200653076172 18.09067153930664 L24.188182830810547 18.872520446777344 L23.86905860900879 18.872520446777344 L23.86905860900879 17.058082580566406"></path>
<path fill="none" stroke="black" stroke-width=".3" stroke-opacity="1.0"  filling="0" d="M18.466779708862305 17.05808448791504 L18.874801635742188 17.05808448791504 C19.14397430419922 17.24243927001953 19.455801010131836 17.70503044128418 19.25318717956543 17.960742950439453 L19.25318717956543 17.960742950439453 C19.35196304321289 18.102827072143555 19.45073890686035 18.24491310119629 19.549514770507812 18.38699722290039 L19.647531509399414 18.872520446777344 L19.323850631713867 18.872520446777344 L19.221275329589844 18.384719848632812 C19.105024337768555 18.28366470336914 18.988771438598633 18.18260955810547 18.872520446777344 18.081554412841797 L18.785900115966797 18.872520446777344 L18.466779708862305 18.872520446777344 L18.466779708862305 17.05808448791504"></path>
<path fill="none" stroke="black" stroke-width=".3" stroke-opacity="1.0"  filling="0" d="M22.015871047973633 17.06036376953125 L22.334993362426758 17.06036376953125 L22.334993362426758 18.225156784057617 C22.43528938293457 18.387758255004883 22.444835662841797 18.71295928955078 22.635881423950195 18.71295928955078 C22.826927185058594 18.71295928955078 22.836471557617188 18.387758255004883 22.936767578125 18.225156784057617 L22.936767578125 17.06036376953125 L23.255889892578125 17.06036376953125 L23.255889892578125 18.225156784057617 C23.04998016357422 18.450822830200195 22.943649291992188 18.90215301513672 22.638160705566406 18.90215301513672 C22.33164405822754 18.90215301513672 22.22330093383789 18.450822830200195 22.015871047973633 18.225156784057617 L22.015871047973633 17.06036376953125"></path>
<path fill="none" stroke="black" stroke-width=".3" stroke-opacity="1.0"  filling="0" d="M17.25183868408203 17.06719970703125 L17.25183868408203 17.06719970703125 C17.450149536132812 17.22296142578125 17.648462295532227 17.378725051879883 17.846773147583008 17.534486770629883 L17.555004119873047 17.534486770629883 C16.675432205200195 16.51498794555664 16.58930015563965 19.032344818115234 17.596031188964844 18.651412963867188 L17.6005916595459 17.990373611450195 L17.247278213500977 17.85588836669922 L17.846771240234375 17.85588836669922 L17.846771240234375 18.703840255737305 C16.401445388793945 19.140512466430664 16.618715286254883 17.872013092041016 17.2518367767334 17.06719970703125 L17.2518367767334 17.06719970703125"></path>
<path fill="none" stroke="black" stroke-width=".3" stroke-opacity="1.0"  filling="0" d="M20.780414581298828 17.06719970703125 L20.780414581298828 17.06719970703125 C21.006078720092773 17.367326736450195 21.457408905029297 17.592079162597656 21.457408905029297 17.967580795288086 C21.457408905029297 18.343080520629883 21.155914306640625 18.86795997619629 20.780414581298828 18.86795997619629 C20.405370712280273 18.86795997619629 20.105697631835938 18.34262466430664 20.105697631835938 17.967580795288086 C20.105697631835938 17.5925350189209 20.555509567260742 17.367326736450195 20.780414581298828 17.06719970703125 L20.780414581298828 17.06719970703125"></path>
<path fill="none" stroke="black" stroke-width=".3" stroke-opacity="1.0"  filling="0" d="M8.377965927124023 17.067201614379883 L8.377965927124023 17.067201614379883 C8.50865364074707 17.08163833618164 8.639342308044434 17.096073150634766 8.77003002166748 17.110509872436523 L8.77003002166748 17.31110191345215 C7.040871620178223 16.862455368041992 10.22105884552002 19.142826080322266 7.837738513946533 18.804136276245117 L7.837738513946533 18.57391357421875 C9.515987396240234 19.07979393005371 7.777450084686279 17.824026107788086 7.812664031982422 17.504854202270508 C7.838797569274902 17.267986297607422 8.189532279968262 17.213085174560547 8.377965927124023 17.067201614379883 L8.377965927124023 17.067201614379883"></path>
<path fill="none" stroke="black" stroke-width=".3" stroke-opacity="1.0"  filling="0" d="M3.9900379180908203 17.076318740844727 L4.929168701171875 17.076318740844727 L4.274969577789307 17.247278213500977 L4.274969577789307 17.84449005126953 L4.892697811126709 18.01544952392578 L4.274969577789307 18.01544952392578 L4.274969577789307 18.66965103149414 L4.949683666229248 18.854286193847656 L3.9900388717651367 18.854286193847656 L3.9900388717651367 17.07632064819336"></path>
<path fill="none" stroke="black" stroke-width=".3" stroke-opacity="1.0"  filling="0" d="M5.492190837860107 17.076318740844727 L5.870579242706299 17.076318740844727 L6.36749792098999 18.521486282348633 L6.862136363983154 17.076318740844727 L7.229126453399658 17.076318740844727 L7.229126453399658 18.854284286499023 L6.97382926940918 18.854284286499023 L6.97382926940918 17.31793975830078 L6.2330098152160645 18.854284286499023 L5.708738327026367 17.31793975830078 L5.708738327026367 18.854284286499023 L5.494471073150635 18.854284286499023 L5.494471073150635 17.076318740844727"></path>
<path fill="none" stroke="black" stroke-width=".3" stroke-opacity="1.0"  filling="0" d="M9.44702434539795 17.076318740844727 L9.72967529296875 17.076318740844727 L9.72967529296875 18.669649124145508 L10.386154174804688 18.854284286499023 L9.444745063781738 18.854284286499023 L9.444745063781738 17.076318740844727"></path>
<path fill="none" stroke="black" stroke-width=".3" stroke-opacity="1.0"  filling="0" d="M11.261460304260254 17.076318740844727 L11.555508613586426 17.076318740844727 L12.150443077087402 18.854284286499023 L11.85639476776123 18.854284286499023 L11.694555282592773 18.325454711914062 L11.081384658813477 18.325454711914062 L10.668805122375488 18.854284286499023 L11.261460304260254 17.076318740844727"></path>
<path fill="none" stroke="black" stroke-width=".3" stroke-opacity="1.0"  filling="0" d="M12.638243675231934 17.076318740844727 L12.95280647277832 17.076318740844727 L13.663993835449219 18.482736587524414 L13.663993835449219 17.076318740844727 L13.898775100708008 17.076318740844727 L13.898775100708008 18.854284286499023 L13.604726791381836 18.854284286499023 L12.873024940490723 17.40683937072754 L12.873024940490723 18.854284286499023 L12.6382417678833 18.854284286499023 L12.6382417678833 17.076318740844727"></path>
<path fill="none" stroke="black" stroke-width=".3" stroke-opacity="1.0"  filling="0" d="M14.56665325164795 17.076318740844727 L14.965555191040039 17.076318740844727 C15.234529495239258 17.366567611694336 15.772478103637695 17.551349639892578 15.772478103637695 17.947067260742188 C15.772478103637695 18.35178565979004 15.234529495239258 18.551877975463867 14.965555191040039 18.854284286499023 L14.56665325164795 18.854284286499023 L14.56665325164795 17.076318740844727"></path>
<path fill="none" stroke="black" stroke-width=".3" stroke-opacity="1.0"  filling="0" d="M18.482736587524414 17.076318740844727 L18.872520446777344 17.076318740844727 C19.10274314880371 17.232080459594727 19.471033096313477 17.281362533569336 19.563190460205078 17.54360580444336 C19.62541389465332 17.720670700073242 19.309412002563477 17.82017707824707 19.18252182006836 17.958463668823242 L19.18252182006836 17.963024139404297 C19.29877471923828 18.10662841796875 19.41502571105957 18.250232696533203 19.531278610229492 18.393836975097656 L19.62701416015625 18.854286193847656 L19.342082977294922 18.854286193847656 L19.241788864135742 18.38016128540039 C19.11945915222168 18.274547576904297 18.997129440307617 18.168933868408203 18.874799728393555 18.06332015991211 L18.76994514465332 18.854286193847656 L18.487293243408203 18.854286193847656 L18.487293243408203 17.07632064819336"></path>
<path fill="none" stroke="black" stroke-width=".3" stroke-opacity="1.0"  filling="0" d="M22.031829833984375 17.076318740844727 L22.31447982788086 17.076318740844727 L22.31447982788086 18.22287940979004 C22.420854568481445 18.391557693481445 22.43418312072754 18.728914260864258 22.633602142333984 18.728914260864258 C22.83302116394043 18.728914260864258 22.846349716186523 18.391557693481445 22.95272445678711 18.22287940979004 L22.95272445678711 17.076318740844727 L23.235374450683594 17.076318740844727 L23.235374450683594 18.22287940979004 C23.03554344177246 18.44246482849121 22.932783126831055 18.881637573242188 22.635881423950195 18.881637573242188 C22.337955474853516 18.881637573242188 22.23318099975586 18.44246482849121 22.031829833984375 18.22287940979004 L22.031829833984375 17.076318740844727"></path>
<path fill="none" stroke="black" stroke-width=".3" stroke-opacity="1.0"  filling="0" d="M23.88729476928711 17.076318740844727 L24.254283905029297 17.076318740844727 C24.483747482299805 17.23967933654785 24.942676544189453 17.284725189208984 24.942676544189453 17.56639862060547 C24.942676544189453 17.8511905670166 24.483747482299805 17.903757095336914 24.254283905029297 18.07243537902832 L24.172225952148438 18.856563568115234 L23.889572143554688 18.856563568115234 L23.889572143554688 17.076318740844727"></path>
<path fill="none" stroke="black" stroke-width=".3" stroke-opacity="1.0"  filling="0" d="M18.5009708404541 17.092273712158203 L18.872520446777344 17.092273712158203 C19.09666633605957 17.24195671081543 19.45339584350586 17.287822723388672 19.54495620727539 17.541324615478516 C19.606143951416016 17.71073341369629 19.300294876098633 17.805740356445312 19.17796516418457 17.93794822692871 L19.17796516418457 17.978979110717773 C19.288898468017578 18.118024826049805 19.399829864501953 18.257070541381836 19.51076316833496 18.396116256713867 L19.60194206237793 18.836048126220703 L19.35348129272461 18.836048126220703 L19.25318717956543 18.373321533203125 C19.125537872314453 18.26314926147461 18.99789047241211 18.15297508239746 18.870241165161133 18.042802810668945 L18.747150421142578 18.833768844604492 L18.5009708404541 18.833768844604492 L18.5009708404541 17.092273712158203"></path>
<path fill="none" stroke="black" stroke-width=".3" stroke-opacity="1.0"  filling="0" d="M23.903249740600586 17.092273712158203 L24.252004623413086 17.092273712158203 C24.47538948059082 17.249555587768555 24.922161102294922 17.29092025756836 24.922161102294922 17.56412124633789 C24.922161102294922 17.840417861938477 24.47538948059082 17.889320373535156 24.252004623413086 18.05191993713379 L24.151710510253906 18.836048126220703 L23.905529022216797 18.836048126220703 L23.903249740600586 17.092273712158203"></path>
<path fill="none" stroke="black" stroke-width=".3" stroke-opacity="1.0"  filling="0" d="M4.005995273590088 17.094554901123047 L4.90865421295166 17.094554901123047 L4.254453659057617 17.226762771606445 L4.254453659057617 17.86044692993164 L4.872182846069336 17.99493408203125 L4.254453659057617 17.99493408203125 L4.254453659057617 18.685606002807617 L4.931448459625244 18.836048126220703 L4.008274078369141 18.836048126220703 L4.005995273590088 17.094554901123047"></path>
<path fill="none" stroke="black" stroke-width=".3" stroke-opacity="1.0"  filling="0" d="M5.508147239685059 17.094554901123047 L5.8569016456604 17.094554901123047 L6.381173610687256 18.539722442626953 L6.875812530517578 17.094554901123047 L7.210890769958496 17.094554901123047 L7.210890769958496 18.836048126220703 L6.992064476013184 18.836048126220703 L6.989785194396973 17.299705505371094 L6.242127895355225 18.836048126220703 L5.685943603515625 17.299705505371094 L5.508147239685059 18.836048126220703 L5.508147239685059 17.094554901123047"></path>
<path fill="none" stroke="black" stroke-width=".3" stroke-opacity="1.0"  filling="0" d="M9.46753978729248 17.094554901123047 L9.713719367980957 17.094554901123047 L9.713719367980957 18.685606002807617 L10.370199203491211 18.836048126220703 L9.46526050567627 18.836048126220703 L9.46753978729248 17.094554901123047"></path>
<path fill="none" stroke="black" stroke-width=".3" stroke-opacity="1.0"  filling="0" d="M11.275137901306152 17.094554901123047 L11.541831970214844 17.094554901123047 L12.125370025634766 18.836048126220703 L11.870072364807129 18.836048126220703 L11.708230972290039 18.307218551635742 L11.067708015441895 18.307218551635742 L10.693879127502441 18.836048126220703 L11.275137901306152 17.094554901123047"></path>
<path fill="none" stroke="black" stroke-width=".3" stroke-opacity="1.0"  filling="0" d="M12.656479835510254 17.094554901123047 L12.941410064697266 17.094554901123047 L13.682228088378906 18.5009708404541 L13.880539894104004 17.094554901123047 L13.880539894104004 18.836048126220703 L13.61612606048584 18.836048126220703 L12.854791641235352 17.38860321044922 L12.656479835510254 18.836050033569336 L12.656479835510254 17.094554901123047"></path>
<path fill="none" stroke="black" stroke-width=".3" stroke-opacity="1.0"  filling="0" d="M14.582609176635742 17.094554901123047 L14.963276863098145 17.094554901123047 C15.22617244720459 17.378725051879883 15.751962661743164 17.559938430786133 15.751962661743164 17.947065353393555 C15.751962661743164 18.34320068359375 15.22617244720459 18.53972053527832 14.963276863098145 18.836048126220703 L14.582609176635742 18.836048126220703 L14.582609176635742 17.094554901123047"></path>
<path fill="none" stroke="black" stroke-width=".3" stroke-opacity="1.0"  filling="0" d="M22.052345275878906 17.094554901123047 L22.303083419799805 17.094554901123047 L22.303083419799805 18.22287940979004 C22.415536880493164 18.39763641357422 22.43263053894043 18.747150421142578 22.64044189453125 18.747150421142578 C22.84825325012207 18.747150421142578 22.865345001220703 18.39763641357422 22.97779655456543 18.22287940979004 L22.97779655456543 17.094554901123047 L23.223976135253906 17.094554901123047 L23.223976135253906 18.22287940979004 C23.028703689575195 18.43638801574707 22.927499771118164 18.8634033203125 22.638160705566406 18.8634033203125 C22.34882164001465 18.8634033203125 22.24761390686035 18.43638801574707 22.05234146118164 18.22287940979004 L22.05234146118164 17.094554901123047"></path>
<path fill="none" stroke="black" stroke-width=".3" stroke-opacity="1.0"  filling="0" d="M20.780414581298828 17.183452606201172 L20.780414581298828 17.183452606201172 C21.705341339111328 18.936216354370117 19.858686447143555 18.939851760864258 20.780414581298828 17.183452606201172 L20.780414581298828 17.183452606201172"></path>
<path fill="none" stroke="black" stroke-width=".3" stroke-opacity="1.0"  filling="0" d="M20.780414581298828 17.201688766479492 L20.780414581298828 17.201688766479492 C21.663644790649414 18.911985397338867 19.900386810302734 18.91568946838379 20.780414581298828 17.201688766479492 L20.780414581298828 17.201688766479492"></path>
<path fill="none" stroke="black" stroke-width=".3" stroke-opacity="1.0"  filling="0" d="M20.780414581298828 17.21992301940918 L20.780414581298828 17.21992301940918 C21.621992111206055 18.887786865234375 19.942039489746094 18.89155387878418 20.780414581298828 17.21992301940918 L20.780414581298828 17.21992301940918"></path>
<path fill="none" stroke="black" stroke-width=".3" stroke-opacity="1.0"  filling="0" d="M18.74942970275879 17.226762771606445 L18.872520446777344 17.226762771606445 C19.053123474121094 17.365835189819336 19.04755401611328 17.764575958251953 18.872520446777344 17.910594940185547 L18.74942970275879 17.226762771606445"></path>
<path fill="none" stroke="black" stroke-width=".3" stroke-opacity="1.0"  filling="0" d="M14.83106803894043 17.229042053222656 L14.965555191040039 17.229042053222656 C15.145630836486816 17.4683837890625 15.505783081054688 17.64754867553711 15.505783081054688 17.947067260742188 C15.505783081054688 18.25700569152832 15.145630836486816 18.451583862304688 14.965555191040039 18.703842163085938 L14.83106803894043 17.229042053222656"></path>
<path fill="none" stroke="black" stroke-width=".3" stroke-opacity="1.0"  filling="0" d="M24.153987884521484 17.229042053222656 L24.254283905029297 17.229042053222656 C24.434057235717773 17.372861862182617 24.430753707885742 17.77185821533203 24.254281997680664 17.91971206665039 L24.153987884521484 17.229042053222656"></path>
<path fill="none" stroke="black" stroke-width=".3" stroke-opacity="1.0"  filling="0" d="M14.849305152893066 17.247278213500977 L14.965555191040039 17.247278213500977 C15.252422332763672 17.63142967224121 15.243654251098633 18.295059204101562 14.965555191040039 18.685606002807617 L14.849305152893066 17.247278213500977"></path>
<path fill="none" stroke="black" stroke-width=".3" stroke-opacity="1.0"  filling="0" d="M18.76766586303711 17.247278213500977 L18.872520446777344 17.247278213500977 C19.044340133666992 17.377822875976562 19.0388240814209 17.75713539123535 18.872520446777344 17.894638061523438 L18.76766586303711 17.247278213500977"></path>
<path fill="none" stroke="black" stroke-width=".3" stroke-opacity="1.0"  filling="0" d="M24.169944763183594 17.247278213500977 L24.252004623413086 17.247278213500977 C24.42340850830078 17.382089614868164 24.42014503479004 17.762619018554688 24.252004623413086 17.901477813720703 L24.169944763183594 17.247278213500977"></path>
<path fill="none" stroke="black" stroke-width=".3" stroke-opacity="1.0"  filling="0" d="M24.18817901611328 17.265512466430664 L24.252004623413086 17.265512466430664 C24.414642333984375 17.391796112060547 24.41141128540039 17.752901077270508 24.252004623413086 17.88323974609375 L24.18817901611328 17.265512466430664"></path>
<path fill="none" stroke="black" stroke-width=".3" stroke-opacity="1.0"  filling="0" d="M14.867539405822754 17.265514373779297 L14.965555191040039 17.265514373779297 C15.24351692199707 17.641136169433594 15.234745025634766 18.285411834716797 14.965555191040039 18.667369842529297 L14.867539405822754 17.265514373779297"></path>
<path fill="none" stroke="black" stroke-width=".3" stroke-opacity="1.0"  filling="0" d="M18.785900115966797 17.265514373779297 L18.872520446777344 17.265514373779297 C19.035539627075195 17.38753890991211 19.030080795288086 17.747407913208008 18.872520446777344 17.87640380859375 L18.785900115966797 17.265514373779297"></path>
<path fill="none" stroke="black" stroke-width=".3" stroke-opacity="1.0"  filling="0" d="M11.375432968139648 17.31338119506836 L11.66720199584961 18.175010681152344 L11.111018180847168 18.175010681152344 L11.375432968139648 17.31338119506836"></path>
<path fill="none" stroke="black" stroke-width=".3" stroke-opacity="1.0"  filling="0" d="M11.389108657836914 17.33161735534668 L11.644407272338867 18.156776428222656 L11.136091232299805 18.156776428222656 L11.389108657836914 17.33161735534668"></path>
<path fill="none" stroke="black" stroke-width=".3" stroke-opacity="1.0"  filling="0" d="M11.389110565185547 17.386322021484375 L11.617053985595703 18.138538360595703 L11.158886909484863 18.138538360595703 L11.389110565185547 17.386322021484375"></path>
<path fill="none" stroke="black" stroke-width=".3" stroke-opacity="1.0"  filling="0" d="M5.469396591186523 19.380834579467773 L5.608443260192871 19.52899932861328 L5.469396591186523 19.380834579467773"></path>
<path fill="none" stroke="black" stroke-width=".3" stroke-opacity="1.0"  filling="0" d="M5.4807939529418945 19.39223289489746 L5.4807939529418945 19.39223289489746"></path>
<path fill="none" stroke="black" stroke-width=".3" stroke-opacity="1.0"  filling="0" d="M5.492190837860107 19.403629302978516 L5.492190837860107 19.403629302978516"></path>
<path fill="none" stroke="black" stroke-width=".3" stroke-opacity="1.0"  filling="0" d="M9.973575592041016 19.453777313232422 L9.973575592041016 20.149009704589844 C10.00086498260498 20.278013229370117 10.006011962890625 20.300708770751953 10.135416984558105 20.28577423095703 L10.142255783081055 20.37923240661621 C9.969605445861816 20.38389778137207 9.901859283447266 20.370635986328125 9.848206520080566 20.20371437072754 L9.731954574584961 19.68172264099121 L9.973575592041016 19.453777313232422"></path>
<path fill="none" stroke="black" stroke-width=".3" stroke-opacity="1.0"  filling="0" d="M13.30156135559082 19.453777313232422 L13.30156135559082 20.149009704589844 C13.328849792480469 20.278011322021484 13.333996772766113 20.300708770751953 13.463400840759277 20.28577423095703 L13.470239639282227 20.37923240661621 C13.297588348388672 20.38389778137207 13.229843139648438 20.37063217163086 13.176192283630371 20.20371437072754 L13.059941291809082 19.68172264099121 L13.30156135559082 19.453777313232422"></path>
<path fill="none" stroke="black" stroke-width=".3" stroke-opacity="1.0"  filling="0" d="M18.124862670898438 19.453777313232422 L18.124862670898438 20.149009704589844 C18.15215301513672 20.278013229370117 18.157299041748047 20.300708770751953 18.28670310974121 20.28577423095703 L18.293540954589844 20.37923240661621 C18.120891571044922 20.38389778137207 18.053144454956055 20.370630264282227 17.999492645263672 20.20371437072754 L17.883241653442383 19.68172264099121 L18.124862670898438 19.453777313232422"></path>
<path fill="none" stroke="black" stroke-width=".3" stroke-opacity="1.0"  filling="0" d="M9.964457511901855 19.46973419189453 L9.964457511901855 20.149009704589844 C10.009871482849121 20.210773468017578 10.066360473632812 20.305734634399414 10.142252922058105 20.29489517211914 L10.142252922058105 20.365556716918945 C10.03450870513916 20.371540069580078 9.944546699523926 20.2730770111084 9.861882209777832 20.20371437072754 L9.964457511901855 19.46973419189453"></path>
<path fill="none" stroke="black" stroke-width=".3" stroke-opacity="1.0"  filling="0" d="M13.292444229125977 19.46973419189453 L13.292444229125977 20.149009704589844 C13.337858200073242 20.210773468017578 13.394347190856934 20.305734634399414 13.470239639282227 20.29489517211914 L13.470239639282227 20.365556716918945 C13.362495422363281 20.371540069580078 13.272533416748047 20.2730770111084 13.189868927001953 20.20371437072754 L13.292444229125977 19.46973419189453"></path>
<path fill="none" stroke="black" stroke-width=".3" stroke-opacity="1.0"  filling="0" d="M18.113466262817383 19.46973419189453 L18.113466262817383 20.149009704589844 C18.15888023376465 20.210773468017578 18.215370178222656 20.305734634399414 18.291261672973633 20.29489517211914 L18.291261672973633 20.365556716918945 C18.183517456054688 20.371540069580078 18.093555450439453 20.2730770111084 18.01089096069336 20.20371437072754 L18.113466262817383 19.46973419189453"></path>
<path fill="none" stroke="black" stroke-width=".3" stroke-opacity="1.0"  filling="0" d="M9.948502540588379 19.49024772644043 L9.948502540588379 20.144451141357422 C9.980622291564941 20.27980613708496 9.983413696289062 20.318714141845703 10.126298904418945 20.306289672851562 L10.126298904418945 20.351879119873047 C9.975099563598633 20.36163330078125 9.915580749511719 20.34705924987793 9.871001243591309 20.201435089111328 L9.948502540588379 19.49024772644043"></path>
<path fill="none" stroke="black" stroke-width=".3" stroke-opacity="1.0"  filling="0" d="M13.276487350463867 19.49024772644043 L13.276487350463867 20.144451141357422 C13.308605194091797 20.279804229736328 13.31139850616455 20.318714141845703 13.454282760620117 20.306289672851562 L13.454282760620117 20.351879119873047 C13.303081512451172 20.36163330078125 13.243565559387207 20.347061157226562 13.198986053466797 20.201435089111328 L13.276487350463867 19.49024772644043"></path>
<path fill="none" stroke="black" stroke-width=".3" stroke-opacity="1.0"  filling="0" d="M18.09750747680664 19.49024772644043 L18.09750747680664 20.144451141357422 C18.12962532043457 20.27980613708496 18.13241958618164 20.318714141845703 18.275304794311523 20.306289672851562 L18.275304794311523 20.351879119873047 C18.12410545349121 20.36163330078125 18.064586639404297 20.347063064575195 18.020008087158203 20.201435089111328 L18.09750747680664 19.49024772644043"></path>
<path fill="none" stroke="black" stroke-width=".3" stroke-opacity="1.0"  filling="0" d="M5.011228084564209 19.66120719909668 L5.011228084564209 19.66120719909668 C5.063748836517334 19.668956756591797 5.117006778717041 19.673402786254883 5.1685099601745605 19.686283111572266 L5.1571125984191895 19.804813385009766 C4.551913738250732 19.614606857299805 5.745203495025635 20.507722854614258 4.774167060852051 20.351879119873047 L4.787842273712158 20.228788375854492 C5.247159481048584 20.38189697265625 4.719128131866455 19.897668838500977 5.011228084564209 19.66120719909668 L5.011228084564209 19.66120719909668"></path>
<path fill="none" stroke="black" stroke-width=".3" stroke-opacity="1.0"  filling="0" d="M7.008020877838135 19.66348648071289 L7.008020877838135 19.66348648071289 C7.06576681137085 19.69919776916504 7.123512268066406 19.734907150268555 7.181258201599121 19.770618438720703 L7.30662727355957 20.358715057373047 C7.170657634735107 20.48979377746582 7.00123405456543 20.665796279907227 6.814268112182617 20.639087677001953 L6.823385715484619 20.504600524902344 C6.9473876953125 20.544939041137695 7.102210998535156 20.453807830810547 7.183537483215332 20.351879119873047 L7.183537483215332 20.269817352294922 C6.658621788024902 20.563772201538086 6.838963031768799 19.89985466003418 7.008020877838135 19.66348648071289 L7.008020877838135 19.66348648071289"></path>
<path fill="none" stroke="black" stroke-width=".3" stroke-opacity="1.0"  filling="0" d="M12.088898658752441 19.66348648071289 L12.088898658752441 19.66348648071289 C12.170958518981934 19.756183624267578 12.253018379211426 19.8488826751709 12.335078239440918 19.941579818725586 L11.945293426513672 19.95297622680664 C12.039602279663086 20.083423614501953 12.150588989257812 20.307016372680664 12.307723999023438 20.272098541259766 L12.303166389465332 20.354158401489258 C11.688089370727539 20.46270179748535 11.849479675292969 19.953514099121094 12.088898658752441 19.66348648071289 L12.088898658752441 19.66348648071289"></path>
<path fill="none" stroke="black" stroke-width=".3" stroke-opacity="1.0"  filling="0" d="M15.316590309143066 19.66348648071289 L15.316590309143066 19.66348648071289 C15.396370887756348 19.74098777770996 15.476151466369629 19.81848907470703 15.55593204498291 19.8959903717041 L15.412327766418457 19.8959903717041 C15.136871337890625 19.494781494140625 15.062556266784668 20.343795776367188 15.505783081054688 20.2789363861084 L15.528578758239746 20.35643768310547 C14.908116340637207 20.459848403930664 15.075797080993652 19.950885772705078 15.316590309143066 19.66348648071289 L15.316590309143066 19.66348648071289"></path>
<path fill="none" stroke="black" stroke-width=".3" stroke-opacity="1.0"  filling="0" d="M16.627269744873047 19.66348648071289 L16.627269744873047 19.66348648071289 C16.70932960510254 19.756183624267578 16.79138946533203 19.8488826751709 16.873449325561523 19.941579818725586 L16.483665466308594 19.95297622680664 C16.577974319458008 20.083423614501953 16.688961029052734 20.30701446533203 16.84609603881836 20.272098541259766 L16.841537475585938 20.354158401489258 C16.226463317871094 20.46269989013672 16.387849807739258 19.953516006469727 16.627269744873047 19.66348648071289 L16.627269744873047 19.66348648071289"></path>
<path fill="none" stroke="black" stroke-width=".3" stroke-opacity="1.0"  filling="0" d="M18.797298431396484 19.66348648071289 L18.797298431396484 19.66348648071289 C18.879358291625977 19.756183624267578 18.961416244506836 19.8488826751709 19.043476104736328 19.941579818725586 L18.6536922454834 19.95297622680664 C18.748003005981445 20.083423614501953 18.858989715576172 20.30701446533203 19.016124725341797 20.272098541259766 L19.011566162109375 20.354158401489258 C18.39649200439453 20.46269989013672 18.557876586914062 19.953516006469727 18.797298431396484 19.66348648071289 L18.797298431396484 19.66348648071289"></path>
<path fill="none" stroke="black" stroke-width=".3" stroke-opacity="1.0"  filling="0" d="M6.301393508911133 19.6657657623291 L6.301393508911133 19.6657657623291 C6.35837984085083 19.727310180664062 6.415365695953369 19.788856506347656 6.472352027893066 19.850400924682617 L6.472352027893066 20.365554809570312 L6.34470272064209 19.925622940063477 C6.2971673011779785 19.834625244140625 6.128865718841553 19.985082626342773 6.07344913482666 20.07150650024414 L6.071169853210449 19.81620979309082 C6.147911071777344 19.766061782836914 6.224652290344238 19.715913772583008 6.301393508911133 19.6657657623291 L6.301393508911133 19.6657657623291"></path>
<path fill="none" stroke="black" stroke-width=".3" stroke-opacity="1.0"  filling="0" d="M8.503334999084473 19.6657657623291 L8.503334999084473 19.6657657623291 C8.560320854187012 19.727310180664062 8.61730670928955 19.788856506347656 8.67429256439209 19.850400924682617 L8.67429256439209 20.365554809570312 L8.54664421081543 19.925622940063477 C8.49910831451416 19.834625244140625 8.33080768585205 19.985082626342773 8.275390625 20.07150650024414 L8.273111343383789 19.81620979309082 C8.349852561950684 19.766061782836914 8.426593780517578 19.715913772583008 8.503334999084473 19.6657657623291 L8.503334999084473 19.6657657623291"></path>
<path fill="none" stroke="black" stroke-width=".3" stroke-opacity="1.0"  filling="0" d="M11.61021614074707 19.6657657623291 L11.580583572387695 19.809370040893555 C11.522077560424805 19.886871337890625 11.46357250213623 19.964372634887695 11.40506649017334 20.041873931884766 L11.40506649017334 19.807090759277344 C11.47344970703125 19.75998306274414 11.54183292388916 19.712873458862305 11.61021614074707 19.6657657623291 L11.61021614074707 19.6657657623291"></path>
<path fill="none" stroke="black" stroke-width=".3" stroke-opacity="1.0"  filling="0" d="M13.989953994750977 19.6657657623291 L13.989953994750977 19.6657657623291 C14.671867370605469 20.492326736450195 13.318665504455566 20.49836540222168 13.989953994750977 19.6657657623291 L13.989953994750977 19.6657657623291"></path>
<path fill="none" stroke="black" stroke-width=".3" stroke-opacity="1.0"  filling="0" d="M16.148584365844727 19.6657657623291 L16.118953704833984 19.809370040893555 C16.060447692871094 19.886871337890625 16.001941680908203 19.964372634887695 15.943435668945312 20.041873931884766 L15.943435668945312 19.807090759277344 C16.011817932128906 19.75998306274414 16.080202102661133 19.712873458862305 16.148584365844727 19.6657657623291 L16.148584365844727 19.6657657623291"></path>
<path fill="none" stroke="black" stroke-width=".3" stroke-opacity="1.0"  filling="0" d="M9.230477333068848 19.668045043945312 L9.230477333068848 19.668045043945312 C9.306458473205566 19.745546340942383 9.382440567016602 19.823049545288086 9.45842170715332 19.900550842285156 L9.333051681518555 20.29717254638672 C8.950164794921875 20.474258422851562 8.88306713104248 20.249221801757812 9.333051681518555 19.980329513549805 L9.333051681518555 19.902830123901367 C9.293083190917969 19.84330177307129 9.167558670043945 19.81177520751953 9.121063232421875 19.866357803344727 L8.977458953857422 19.866357803344727 C9.061798095703125 19.80025291442871 9.146138191223145 19.734149932861328 9.230477333068848 19.668045043945312 L9.230477333068848 19.668045043945312"></path>
<path fill="none" stroke="black" stroke-width=".3" stroke-opacity="1.0"  filling="0" d="M17.379484176635742 19.668045043945312 L17.379484176635742 19.668045043945312 C17.45546531677246 19.745546340942383 17.531448364257812 19.823049545288086 17.60742950439453 19.900550842285156 L17.4820613861084 20.29717254638672 C17.09917640686035 20.47425651550293 17.03207015991211 20.249223709106445 17.4820613861084 19.980329513549805 L17.4820613861084 19.902830123901367 C17.442092895507812 19.84330177307129 17.31656837463379 19.81177520751953 17.27007293701172 19.866357803344727 L17.126468658447266 19.866357803344727 C17.21080780029297 19.80025291442871 17.29514503479004 19.734149932861328 17.379484176635742 19.668045043945312 L17.379484176635742 19.668045043945312"></path>
<path fill="none" stroke="black" stroke-width=".3" stroke-opacity="1.0"  filling="0" d="M7.008020401000977 19.674884796142578 L7.008020401000977 19.674884796142578 C7.068805694580078 19.72199249267578 7.1295905113220215 19.769102096557617 7.190375804901123 19.81620979309082 L7.295230388641357 20.358715057373047 C7.1633758544921875 20.48565101623535 6.997684955596924 20.65390968322754 6.816547393798828 20.627689361572266 L6.816547393798828 20.513717651367188 C6.946178436279297 20.556421279907227 7.106873035430908 20.45803451538086 7.192655563354492 20.351879119873047 L7.190375804901123 20.21967315673828 C6.714049816131592 20.579965591430664 6.829141616821289 19.92844009399414 7.008020401000977 19.674884796142578 L7.008020401000977 19.674884796142578"></path>
<path fill="none" stroke="black" stroke-width=".3" stroke-opacity="1.0"  filling="0" d="M9.230477333068848 19.674884796142578 L9.230477333068848 19.674884796142578 C9.30265998840332 19.748586654663086 9.374841690063477 19.822288513183594 9.44702434539795 19.8959903717041 L9.342169761657715 20.260700225830078 C9.011541366577148 20.449630737304688 8.831308364868164 20.28271484375 9.344449043273926 19.99172592163086 L9.344449043273926 19.902830123901367 C9.299254417419434 19.837644577026367 9.162044525146484 19.80451202392578 9.10966682434082 19.864078521728516 L8.988856315612793 19.864078521728516 C9.06939697265625 19.801013946533203 9.14993667602539 19.73794937133789 9.230477333068848 19.674884796142578 L9.230477333068848 19.674884796142578"></path>
<path fill="none" stroke="black" stroke-width=".3" stroke-opacity="1.0"  filling="0" d="M11.61021614074707 19.674884796142578 L11.580583572387695 19.795692443847656 C11.518279075622559 19.87699317932129 11.455973625183105 19.95829200744629 11.393669128417969 20.039592742919922 L11.39594841003418 19.848121643066406 C11.467370986938477 19.790376663208008 11.538793563842773 19.732629776000977 11.61021614074707 19.674884796142578 L11.61021614074707 19.674884796142578"></path>
<path fill="none" stroke="black" stroke-width=".3" stroke-opacity="1.0"  filling="0" d="M12.088898658752441 19.674884796142578 L12.088898658752441 19.674884796142578 C12.167159080505371 19.763782501220703 12.245420455932617 19.85268211364746 12.323680877685547 19.941579818725586 L11.936175346374512 19.941579818725586 C12.033863067626953 20.079389572143555 12.145745277404785 20.30949592590332 12.31228256225586 20.28121566772461 L12.31228256225586 20.342761993408203 C11.726898193359375 20.440319061279297 11.842917442321777 19.97506332397461 12.088898658752441 19.674884796142578 L12.088898658752441 19.674884796142578"></path>
<path fill="none" stroke="black" stroke-width=".3" stroke-opacity="1.0"  filling="0" d="M15.318868637084961 19.674884796142578 L15.318868637084961 19.674884796142578 C15.394850730895996 19.748586654663086 15.470831871032715 19.822288513183594 15.54681396484375 19.8959903717041 L15.426004409790039 19.8959903717041 C15.124578475952148 19.470449447631836 15.049205780029297 20.362468719482422 15.528578758239746 20.28577423095703 L15.528578758239746 20.347320556640625 C14.931559562683105 20.43916130065918 15.082804679870605 19.95855712890625 15.318868637084961 19.674884796142578 L15.318868637084961 19.674884796142578"></path>
<path fill="none" stroke="black" stroke-width=".3" stroke-opacity="1.0"  filling="0" d="M16.148584365844727 19.674884796142578 L16.118953704833984 19.795692443847656 C16.05664825439453 19.87699317932129 15.994343757629395 19.95829200744629 15.932039260864258 20.039592742919922 L15.934317588806152 19.848121643066406 C16.005739212036133 19.790376663208008 16.07716178894043 19.732629776000977 16.148584365844727 19.674884796142578 L16.148584365844727 19.674884796142578"></path>
<path fill="none" stroke="black" stroke-width=".3" stroke-opacity="1.0"  filling="0" d="M16.627267837524414 19.674884796142578 L16.627267837524414 19.674884796142578 C16.705528259277344 19.763782501220703 16.783788681030273 19.85268211364746 16.862049102783203 19.941579818725586 L16.472267150878906 19.941579818725586 C16.56995391845703 20.079389572143555 16.68183708190918 20.30949592590332 16.848373413085938 20.28121566772461 L16.848373413085938 20.342761993408203 C16.261919021606445 20.441875457763672 16.383827209472656 19.97196388244629 16.627267837524414 19.674884796142578 L16.627267837524414 19.674884796142578"></path>
<path fill="none" stroke="black" stroke-width=".3" stroke-opacity="1.0"  filling="0" d="M17.379484176635742 19.674884796142578 L17.379484176635742 19.674884796142578 C17.4516658782959 19.748586654663086 17.523849487304688 19.822288513183594 17.596031188964844 19.8959903717041 L17.49117660522461 20.260700225830078 C17.160552978515625 20.449630737304688 16.980314254760742 20.282716751098633 17.493457794189453 19.99172592163086 L17.493457794189453 19.902830123901367 C17.44826316833496 19.837644577026367 17.311052322387695 19.80451202392578 17.25867462158203 19.864078521728516 L17.13786506652832 19.864078521728516 C17.21840476989746 19.801013946533203 17.2989444732666 19.73794937133789 17.379484176635742 19.674884796142578 L17.379484176635742 19.674884796142578"></path>
<path fill="none" stroke="black" stroke-width=".3" stroke-opacity="1.0"  filling="0" d="M18.797298431396484 19.674884796142578 L18.797298431396484 19.674884796142578 C18.875558853149414 19.763782501220703 18.95381736755371 19.85268211364746 19.03207778930664 19.941579818725586 L18.642295837402344 19.941579818725586 C18.7399845123291 20.079389572143555 18.851865768432617 20.30949592590332 19.018402099609375 20.28121566772461 L19.018402099609375 20.342761993408203 C18.431947708129883 20.441875457763672 18.55385971069336 19.971961975097656 18.797298431396484 19.674884796142578 L18.797298431396484 19.674884796142578"></path>
<path fill="none" stroke="black" stroke-width=".3" stroke-opacity="1.0"  filling="0" d="M5.008950233459473 19.677162170410156 L5.008950233459473 19.677162170410156 C5.060617446899414 19.68476104736328 5.1122846603393555 19.692358016967773 5.163951873779297 19.6999568939209 L5.163951873779297 19.797971725463867 C4.494680881500244 19.589962005615234 5.7431745529174805 20.4892578125 4.7787251472473145 20.34276008605957 L4.7787251472473145 20.237905502319336 C5.324707984924316 20.426637649536133 4.686263561248779 19.935312271118164 5.008950233459473 19.677162170410156 L5.008950233459473 19.677162170410156"></path>
<path fill="none" stroke="black" stroke-width=".3" stroke-opacity="1.0"  filling="0" d="M4.366146564483643 19.67716407775879 L4.368426322937012 20.23334503173828 C4.255314826965332 20.306869506835938 4.053117275238037 20.270849227905273 3.9695234298706055 20.164962768554688 L3.9695234298706055 19.679443359375 L4.094892501831055 20.119375228881836 C4.153851509094238 20.20342254638672 4.316697120666504 20.06346321105957 4.366146564483643 19.973491668701172 L4.366146564483643 19.67716407775879"></path>
<path fill="none" stroke="black" stroke-width=".3" stroke-opacity="1.0"  filling="0" d="M6.299113750457764 19.67716407775879 L6.299113750457764 19.67716407775879 C6.352300643920898 19.734909057617188 6.405488014221191 19.79265594482422 6.458674907684326 19.850400924682617 L6.458674907684326 20.354158401489258 L6.356099605560303 19.925622940063477 C6.302962303161621 19.82997703552246 6.1219658851623535 19.97995376586914 6.062051773071289 20.07150650024414 L6.059772968292236 19.85495948791504 C6.139553070068359 19.79569435119629 6.219333648681641 19.73642921447754 6.299113750457764 19.67716407775879 L6.299113750457764 19.67716407775879"></path>
<path fill="none" stroke="black" stroke-width=".3" stroke-opacity="1.0"  filling="0" d="M8.503334999084473 19.67716407775879 L8.503334999084473 19.67716407775879 C8.556522369384766 19.734909057617188 8.609708786010742 19.79265594482422 8.662896156311035 19.850400924682617 L8.662896156311035 20.354158401489258 L8.560321807861328 19.925622940063477 C8.507184028625488 19.82997703552246 8.326187133789062 19.979951858520508 8.26627254486084 20.07150650024414 L8.263994216918945 19.85495948791504 C8.343774795532227 19.79569435119629 8.423554420471191 19.73642921447754 8.503334999084473 19.67716407775879 L8.503334999084473 19.67716407775879"></path>
<path fill="none" stroke="black" stroke-width=".3" stroke-opacity="1.0"  filling="0" d="M10.805573463439941 19.67716407775879 L10.807851791381836 20.23334503173828 C10.694740295410156 20.306869506835938 10.492544174194336 20.270849227905273 10.408949851989746 20.164962768554688 L10.408949851989746 19.679443359375 L10.534317970275879 20.119375228881836 C10.593276977539062 20.20342254638672 10.756123542785645 20.06346321105957 10.805573463439941 19.973491668701172 L10.805573463439941 19.67716407775879"></path>
<path fill="none" stroke="black" stroke-width=".3" stroke-opacity="1.0"  filling="0" d="M13.989953994750977 19.67716407775879 L13.989953994750977 19.67716407775879 C14.645193099975586 20.476858139038086 13.34531307220459 20.482959747314453 13.989953994750977 19.67716407775879 L13.989953994750977 19.67716407775879"></path>
<path fill="none" stroke="black" stroke-width=".3" stroke-opacity="1.0"  filling="0" d="M5.476235389709473 19.679443359375 L5.60160493850708 20.365554809570312 L5.476235389709473 19.679443359375"></path>
<path fill="none" stroke="black" stroke-width=".3" stroke-opacity="1.0"  filling="0" d="M6.2968339920043945 19.684001922607422 L6.2968339920043945 19.684001922607422 C6.346221923828125 19.73870849609375 6.395610332489014 19.793415069580078 6.444998264312744 19.848121643066406 L6.444998264312744 20.34276008605957 L6.365217208862305 19.91878318786621 C6.306550025939941 19.818397521972656 6.112870693206787 19.967924118041992 6.048375129699707 20.064668655395508 L6.068889617919922 19.85495948791504 C6.144871234893799 19.7979736328125 6.220852375030518 19.74098777770996 6.2968339920043945 19.684001922607422 L6.2968339920043945 19.684001922607422"></path>
<path fill="none" stroke="black" stroke-width=".3" stroke-opacity="1.0"  filling="0" d="M8.501055717468262 19.684001922607422 L8.501055717468262 19.684001922607422 C8.550443649291992 19.73870849609375 8.599831581115723 19.793415069580078 8.649219512939453 19.848121643066406 L8.649219512939453 20.34276008605957 L8.569438934326172 19.91878318786621 C8.510771751403809 19.818397521972656 8.317091941833496 19.967924118041992 8.252595901489258 20.064668655395508 L8.273111343383789 19.85495948791504 C8.349092483520508 19.7979736328125 8.425074577331543 19.74098777770996 8.501055717468262 19.684001922607422 L8.501055717468262 19.684001922607422"></path>
<path fill="none" stroke="black" stroke-width=".3" stroke-opacity="1.0"  filling="0" d="M11.5988187789917 19.686283111572266 L11.580583572387695 19.784297943115234 C11.514479637145996 19.86939811706543 11.448375701904297 19.954496383666992 11.382271766662598 20.039596557617188 L11.40734577178955 19.852680206298828 C11.471170425415039 19.79721450805664 11.534994125366211 19.741748809814453 11.5988187789917 19.686283111572266 L11.5988187789917 19.686283111572266"></path>
<path fill="none" stroke="black" stroke-width=".3" stroke-opacity="1.0"  filling="0" d="M12.088899612426758 19.686283111572266 L12.088899612426758 19.686283111572266 C12.163360595703125 19.768342971801758 12.237822532653809 19.850400924682617 12.312283515930176 19.93246078491211 L11.92249870300293 19.943859100341797 C12.022770881652832 20.083553314208984 12.123537063598633 20.323970794677734 12.294049263000488 20.30173110961914 L12.294049263000488 20.30173110961914 C12.2963285446167 20.30097198486328 12.298606872558594 20.30021095275879 12.300886154174805 20.29945182800293 L12.300886154174805 20.335922241210938 C11.733255386352539 20.420652389526367 11.857007026672363 19.971529006958008 12.088898658752441 19.686283111572266 L12.088898658752441 19.686283111572266"></path>
<path fill="none" stroke="black" stroke-width=".3" stroke-opacity="1.0"  filling="0" d="M13.989953994750977 19.686283111572266 L13.989953994750977 19.686283111572266 C14.618523597717285 20.4591121673584 13.371946334838867 20.46527862548828 13.989953994750977 19.686283111572266 L13.989953994750977 19.686283111572266"></path>
<path fill="none" stroke="black" stroke-width=".3" stroke-opacity="1.0"  filling="0" d="M15.316587448120117 19.686283111572266 L15.316587448120117 19.686283111572266 C15.38952922821045 19.75162696838379 15.462471961975098 19.816970825195312 15.53541374206543 19.882314682006836 L15.437397956848145 19.882314682006836 C15.101461410522461 19.450389862060547 15.0378999710083 20.364492416381836 15.514900207519531 20.29945182800293 L15.517178535461426 20.33820343017578 C14.938809394836426 20.423538208007812 15.093648910522461 19.95615577697754 15.316588401794434 19.686283111572266 L15.316588401794434 19.686283111572266"></path>
<path fill="none" stroke="black" stroke-width=".3" stroke-opacity="1.0"  filling="0" d="M16.137187957763672 19.686283111572266 L16.118953704833984 19.784297943115234 C16.05284881591797 19.86939811706543 15.98674488067627 19.954496383666992 15.92064094543457 20.039596557617188 L15.94571590423584 19.852680206298828 C16.009540557861328 19.79721450805664 16.0733642578125 19.741748809814453 16.137187957763672 19.686283111572266 L16.137187957763672 19.686283111572266"></path>
<path fill="none" stroke="black" stroke-width=".3" stroke-opacity="1.0"  filling="0" d="M16.62955093383789 19.686283111572266 L16.62955093383789 19.686283111572266 C16.704011917114258 19.768342971801758 16.778474807739258 19.850400924682617 16.852935791015625 19.93246078491211 L16.463150024414062 19.943859100341797 C16.56342315673828 20.083553314208984 16.664186477661133 20.323970794677734 16.834699630737305 20.30173110961914 L16.834699630737305 20.30173110961914 C16.836978912353516 20.30097198486328 16.839258193969727 20.30021095275879 16.841537475585938 20.29945182800293 L16.841537475585938 20.335922241210938 C16.273906707763672 20.420652389526367 16.397655487060547 19.97153091430664 16.629549026489258 19.686283111572266 L16.629549026489258 19.686283111572266"></path>
<path fill="none" stroke="black" stroke-width=".3" stroke-opacity="1.0"  filling="0" d="M18.797298431396484 19.686283111572266 L18.797298431396484 19.686283111572266 C18.871761322021484 19.768342971801758 18.94622230529785 19.850400924682617 19.02068519592285 19.93246078491211 L18.630901336669922 19.943859100341797 C18.731172561645508 20.083553314208984 18.831937789916992 20.323970794677734 19.00244903564453 20.30173110961914 L19.00244903564453 20.30173110961914 C19.004728317260742 20.30097198486328 19.007007598876953 20.30021095275879 19.009286880493164 20.29945182800293 L19.009286880493164 20.335922241210938 C18.441654205322266 20.420652389526367 18.56540870666504 19.971529006958008 18.797298431396484 19.686283111572266 L18.797298431396484 19.686283111572266"></path>
<path fill="none" stroke="black" stroke-width=".3" stroke-opacity="1.0"  filling="0" d="M9.230477333068848 19.68855857849121 L9.230477333068848 19.68855857849121 C9.298860549926758 19.75846290588379 9.367243766784668 19.828365325927734 9.435626983642578 19.898269653320312 L9.333051681518555 20.253860473632812 C9.01834487915039 20.43088722229004 8.850105285644531 20.275846481323242 9.337611198425293 20.000844955444336 L9.355846405029297 19.902830123901367 C9.305604934692383 19.83231544494629 9.159587860107422 19.7916259765625 9.10054874420166 19.854957580566406 L9.002532958984375 19.854957580566406 C9.078514099121094 19.79949188232422 9.154496192932129 19.7440242767334 9.230477333068848 19.68855857849121 L9.230477333068848 19.68855857849121"></path>
<path fill="none" stroke="black" stroke-width=".3" stroke-opacity="1.0"  filling="0" d="M17.379484176635742 19.68855857849121 L17.379484176635742 19.68855857849121 C17.44786834716797 19.75846290588379 17.516250610351562 19.828365325927734 17.58463478088379 19.898269653320312 L17.4820613861084 20.253860473632812 C17.16735076904297 20.430889129638672 16.999120712280273 20.27584457397461 17.486618041992188 20.000844955444336 L17.504854202270508 19.902830123901367 C17.454612731933594 19.83231544494629 17.308595657348633 19.7916259765625 17.249555587768555 19.854957580566406 L17.151540756225586 19.854957580566406 C17.227521896362305 19.79949188232422 17.303503036499023 19.7440242767334 17.379484176635742 19.68855857849121 L17.379484176635742 19.68855857849121"></path>
<path fill="none" stroke="black" stroke-width=".3" stroke-opacity="1.0"  filling="0" d="M4.3775434494018555 19.688560485839844 L4.379822731018066 20.19231605529785 C4.272833824157715 20.271793365478516 4.062746047973633 20.27016830444336 3.9809207916259766 20.164962768554688 L3.9809207916259766 19.690839767456055 L4.08349609375 20.119373321533203 C4.147556781768799 20.20807456970215 4.323636054992676 20.068706512451172 4.3775434494018555 19.973491668701172 L4.3775434494018555 19.688560485839844"></path>
<path fill="none" stroke="black" stroke-width=".3" stroke-opacity="1.0"  filling="0" d="M10.816969871520996 19.688560485839844 L10.81924819946289 20.19231605529785 C10.712259292602539 20.271793365478516 10.502171516418457 20.27016830444336 10.4203462600708 20.164962768554688 L10.4203462600708 19.690839767456055 L10.522921562194824 20.119373321533203 C10.586982727050781 20.20807456970215 10.763062477111816 20.068706512451172 10.816969871520996 19.973491668701172 L10.816969871520996 19.688560485839844"></path>
<path fill="none" stroke="black" stroke-width=".3" stroke-opacity="1.0"  filling="0" d="M5.4876322746276855 19.690839767456055 L5.590207099914551 20.354158401489258 L5.4876322746276855 19.690839767456055"></path>
<path fill="none" stroke="black" stroke-width=".3" stroke-opacity="1.0"  filling="0" d="M5.006669521331787 19.690841674804688 L5.006669521331787 19.690841674804688 C5.0545854568481445 19.697338104248047 5.103363990783691 19.699626922607422 5.150274276733398 19.711355209350586 L5.150274276733398 19.78201675415039 C4.4846577644348145 19.58909034729004 5.718967437744141 20.471725463867188 4.790122985839844 20.333642959594727 L4.787843227386475 20.262981414794922 C5.278380870819092 20.417888641357422 4.74343729019165 19.898656845092773 5.006669521331787 19.690841674804688 L5.006669521331787 19.690841674804688"></path>
<path fill="none" stroke="black" stroke-width=".3" stroke-opacity="1.0"  filling="0" d="M7.008021354675293 19.690841674804688 L7.008021354675293 19.690841674804688 C7.065007209777832 19.734149932861328 7.121993541717529 19.7774600982666 7.178979396820068 19.820768356323242 L7.283833026885986 20.36099624633789 C7.157729625701904 20.48221206665039 7.001151084899902 20.645248413085938 6.827944755554199 20.620853424072266 L6.827945232391357 20.536514282226562 C6.9610819816589355 20.576454162597656 7.115581512451172 20.46364402770996 7.2040534019470215 20.35643768310547 L7.178979396820068 20.22195053100586 C6.720961570739746 20.567033767700195 6.844910144805908 19.925521850585938 7.008021354675293 19.690841674804688 L7.008021354675293 19.690841674804688"></path>
<path fill="none" stroke="black" stroke-width=".3" stroke-opacity="1.0"  filling="0" d="M3.994598388671875 19.70451545715332 L4.074378967285156 20.121654510498047 C4.143557071685791 20.215106964111328 4.332767963409424 20.076282501220703 4.391220569610596 19.975772857666016 L4.3707051277160645 20.187759399414062 C4.270226001739502 20.263118743896484 4.070891857147217 20.264734268188477 3.9945974349975586 20.164962768554688 L3.9945974349975586 19.70223617553711"></path>
<path fill="none" stroke="black" stroke-width=".3" stroke-opacity="1.0"  filling="0" d="M5.499029636383057 19.70223617553711 L5.578810214996338 20.34276008605957 L5.499029636383057 19.70223617553711"></path>
<path fill="none" stroke="black" stroke-width=".3" stroke-opacity="1.0"  filling="0" d="M10.431742668151855 19.70451545715332 L10.511523246765137 20.121654510498047 C10.58070182800293 20.215106964111328 10.769913673400879 20.076282501220703 10.82836627960205 19.975772857666016 L10.80785083770752 20.187759399414062 C10.707371711730957 20.263118743896484 10.508037567138672 20.264734268188477 10.431743621826172 20.164962768554688 L10.431743621826172 19.70223617553711"></path>
<path fill="none" stroke="black" stroke-width=".3" stroke-opacity="1.0"  filling="0" d="M13.989953994750977 19.71819305419922 L13.989953994750977 19.71819305419922 C14.390820503234863 20.401159286499023 13.598739624023438 20.41033935546875 13.989953994750977 19.71819305419922 L13.989953994750977 19.71819305419922"></path>
<path fill="none" stroke="black" stroke-width=".3" stroke-opacity="1.0"  filling="0" d="M12.084339141845703 19.720474243164062 L12.084339141845703 19.720474243164062 C12.132966995239258 19.7744197845459 12.181594848632812 19.828367233276367 12.230222702026367 19.882312774658203 L11.929337501525879 19.882312774658203 C11.98100471496582 19.828367233276367 12.032671928405762 19.7744197845459 12.084339141845703 19.720474243164062 L12.084339141845703 19.720474243164062"></path>
<path fill="none" stroke="black" stroke-width=".3" stroke-opacity="1.0"  filling="0" d="M16.622711181640625 19.720474243164062 L16.622711181640625 19.720474243164062 C16.67133903503418 19.7744197845459 16.719966888427734 19.828367233276367 16.76859474182129 19.882312774658203 L16.46770668029785 19.882312774658203 C16.51937484741211 19.828367233276367 16.571043014526367 19.7744197845459 16.622711181640625 19.720474243164062 L16.622711181640625 19.720474243164062"></path>
<path fill="none" stroke="black" stroke-width=".3" stroke-opacity="1.0"  filling="0" d="M18.79045867919922 19.720474243164062 L18.79045867919922 19.720474243164062 C18.839086532592773 19.7744197845459 18.88771629333496 19.828367233276367 18.936344146728516 19.882312774658203 L18.635456085205078 19.882312774658203 C18.687124252319336 19.828367233276367 18.73879051208496 19.7744197845459 18.79045867919922 19.720474243164062 L18.79045867919922 19.720474243164062"></path>
<path fill="none" stroke="black" stroke-width=".3" stroke-opacity="1.0"  filling="0" d="M13.989953994750977 19.729591369628906 L13.989953994750977 19.729591369628906 C14.364876747131348 20.385704040527344 13.624656677246094 20.39513397216797 13.989953994750977 19.729591369628906 L13.989953994750977 19.729591369628906"></path>
<path fill="none" stroke="black" stroke-width=".3" stroke-opacity="1.0"  filling="0" d="M12.08434009552002 19.731868743896484 L12.08434009552002 19.731868743896484 C12.129169464111328 19.78201675415039 12.17399787902832 19.832164764404297 12.218827247619629 19.882312774658203 L11.94073486328125 19.882312774658203 C11.988603591918945 19.832164764404297 12.036471366882324 19.78201675415039 12.08434009552002 19.731868743896484 L12.08434009552002 19.731868743896484"></path>
<path fill="none" stroke="black" stroke-width=".3" stroke-opacity="1.0"  filling="0" d="M16.622711181640625 19.731868743896484 L16.622711181640625 19.731868743896484 C16.667539596557617 19.78201675415039 16.71236801147461 19.832164764404297 16.7571964263916 19.882312774658203 L16.47910499572754 19.882312774658203 C16.526973724365234 19.832164764404297 16.57484245300293 19.78201675415039 16.622711181640625 19.731868743896484 L16.622711181640625 19.731868743896484"></path>
<path fill="none" stroke="black" stroke-width=".3" stroke-opacity="1.0"  filling="0" d="M18.79045867919922 19.731868743896484 L18.79045867919922 19.731868743896484 C18.83528709411621 19.78201675415039 18.880117416381836 19.832164764404297 18.924945831298828 19.882312774658203 L18.646854400634766 19.882312774658203 C18.69472312927246 19.832164764404297 18.742589950561523 19.78201675415039 18.79045867919922 19.731868743896484 L18.79045867919922 19.731868743896484"></path>
<path fill="none" stroke="black" stroke-width=".3" stroke-opacity="1.0"  filling="0" d="M7.030815124511719 19.731870651245117 L7.030815124511719 19.731870651245117 C7.415395259857178 20.359342575073242 6.6737895011901855 20.382915496826172 7.030815124511719 19.731870651245117 L7.030815124511719 19.731870651245117"></path>
<path fill="none" stroke="black" stroke-width=".3" stroke-opacity="1.0"  filling="0" d="M7.0308146476745605 19.743267059326172 L7.0308146476745605 19.743267059326172 C7.389104843139648 20.343778610229492 6.700019836425781 20.36810302734375 7.0308146476745605 19.743267059326172 L7.0308146476745605 19.743267059326172"></path>
<path fill="none" stroke="black" stroke-width=".3" stroke-opacity="1.0"  filling="0" d="M12.08434009552002 19.743267059326172 L12.08434009552002 19.743267059326172 C12.125370025634766 19.785816192626953 12.166399955749512 19.828367233276367 12.207429885864258 19.87091636657715 L11.952131271362305 19.87091636657715 C11.996200561523438 19.828367233276367 12.040270805358887 19.785816192626953 12.08434009552002 19.743267059326172 L12.08434009552002 19.743267059326172"></path>
<path fill="none" stroke="black" stroke-width=".3" stroke-opacity="1.0"  filling="0" d="M13.989953994750977 19.743267059326172 L13.989953994750977 19.743267059326172 C14.338998794555664 20.372533798217773 13.650506019592285 20.382226943969727 13.989953994750977 19.743267059326172 L13.989953994750977 19.743267059326172"></path>
<path fill="none" stroke="black" stroke-width=".3" stroke-opacity="1.0"  filling="0" d="M16.622711181640625 19.743267059326172 L16.622711181640625 19.743267059326172 C16.663740158081055 19.785816192626953 16.704771041870117 19.828367233276367 16.745800018310547 19.87091636657715 L16.490501403808594 19.87091636657715 C16.534570693969727 19.828367233276367 16.578641891479492 19.785816192626953 16.622711181640625 19.743267059326172 L16.622711181640625 19.743267059326172"></path>
<path fill="none" stroke="black" stroke-width=".3" stroke-opacity="1.0"  filling="0" d="M18.79045867919922 19.743267059326172 L18.79045867919922 19.743267059326172 C18.83148956298828 19.785816192626953 18.872520446777344 19.828367233276367 18.913551330566406 19.87091636657715 L18.658252716064453 19.87091636657715 C18.702322006225586 19.828367233276367 18.746389389038086 19.785816192626953 18.79045867919922 19.743267059326172 L18.79045867919922 19.743267059326172"></path>
<path fill="none" stroke="black" stroke-width=".3" stroke-opacity="1.0"  filling="0" d="M7.030814170837402 19.75466537475586 L7.030814170837402 19.75466537475586 C7.11799430847168 19.905248641967773 7.207092761993408 20.276657104492188 7.0330939292907715 20.276657104492188 C6.676882743835449 20.276657104492188 7.0295891761779785 19.7570743560791 7.0308146476745605 19.75466537475586 L7.0308146476745605 19.75466537475586"></path>
<path fill="none" stroke="black" stroke-width=".3" stroke-opacity="1.0"  filling="0" d="M9.330772399902344 20.035036087036133 L9.330772399902344 20.035036087036133 C9.33457088470459 20.035036087036133 9.338370323181152 20.035036087036133 9.342168807983398 20.035036087036133 L9.35356616973877 20.119375228881836 C9.125079154968262 20.382291793823242 8.947258949279785 20.260435104370117 9.330772399902344 20.035036087036133 L9.330772399902344 20.035036087036133"></path>
<path fill="none" stroke="black" stroke-width=".3" stroke-opacity="1.0"  filling="0" d="M17.479782104492188 20.035036087036133 L17.479782104492188 20.035036087036133 C17.483579635620117 20.035036087036133 17.48737907409668 20.035036087036133 17.49117660522461 20.035036087036133 L17.502574920654297 20.119375228881836 C17.274085998535156 20.382293701171875 17.096267700195312 20.260433197021484 17.479782104492188 20.035036087036133 L17.479782104492188 20.035036087036133"></path>
<path fill="none" stroke="black" stroke-width=".3" stroke-opacity="1.0"  filling="0" d="M9.344449043273926 20.046432495117188 L9.344449043273926 20.117095947265625 C9.132460594177246 20.36288070678711 8.954523086547852 20.256654739379883 9.344449043273926 20.046432495117188 L9.344449043273926 20.046432495117188"></path>
<path fill="none" stroke="black" stroke-width=".3" stroke-opacity="1.0"  filling="0" d="M17.493457794189453 20.046432495117188 L17.493457794189453 20.117095947265625 C17.281463623046875 20.362882614135742 17.103534698486328 20.25665283203125 17.493457794189453 20.046432495117188 L17.493457794189453 20.046432495117188"></path>
<path fill="none" stroke="black" stroke-width=".3" stroke-opacity="1.0"  filling="0" d="M9.333051681518555 20.057830810546875 L9.333051681518555 20.117095947265625 C9.136086463928223 20.347915649414062 8.979684829711914 20.249658584594727 9.333051681518555 20.057830810546875 L9.333051681518555 20.057830810546875"></path>
<path fill="none" stroke="black" stroke-width=".3" stroke-opacity="1.0"  filling="0" d="M17.4820613861084 20.057830810546875 L17.4820613861084 20.117095947265625 C17.285093307495117 20.347915649414062 17.128690719604492 20.249658584594727 17.4820613861084 20.057830810546875 L17.4820613861084 20.057830810546875"></path></svg>