<svg xmlns="http://www.w3.org/2000/svg" viewBox="0.0 0.0 24.0 24.0" height="200px" width="200px"><path fill="none" stroke="black" stroke-width=".3" stroke-opacity="1.0"  filling="0" d="M16.52941131591797 8.53188419342041 L17.217622756958008 8.53188419342041 L17.217622756958008 9.188547134399414 L16.52941131591797 9.188547134399414 L16.52941131591797 8.53188419342041"></path>
<path fill="none" stroke="black" stroke-width=".3" stroke-opacity="1.0"  filling="0" d="M18.006006240844727 8.818422317504883 L18.639904022216797 8.819202423095703 L18.639904022216797 9.643364906311035 L19.839393615722656 9.643364906311035 C19.999248504638672 9.742703437805176 20.221973419189453 9.806714057922363 20.291479110717773 9.981616020202637 L21.087020874023438 11.936967849731445 L21.92972183227539 9.641738891601562 L22.59191131591797 9.641738891601562 L21.337779998779297 12.84406566619873 C20.88359832763672 13.25114917755127 20.22760009765625 13.681970596313477 19.63871955871582 13.523170471191406 L19.855655670166016 13.041163444519043 C20.179121017456055 13.12376594543457 20.548921585083008 12.91511344909668 20.79235076904297 12.686649322509766 L19.72198486328125 10.19594955444336 L18.639904022216797 10.195169448852539 L18.639904022216797 11.800886154174805 C18.846364974975586 11.99930477142334 19.16097640991211 12.141509056091309 19.444549560546875 12.10173511505127 L19.444549560546875 12.63805866241455 C18.90786361694336 12.742494583129883 18.377174377441406 12.251461029052734 18.006006240844727 11.849998474121094 L18.006006240844727 8.818422317504883"></path>
<path fill="none" stroke="black" stroke-width=".3" stroke-opacity="1.0"  filling="0" d="M16.85881996154785 9.63795280456543 L17.19023895263672 9.63795280456543 L17.19023895263672 12.703353881835938 L16.556991577148438 12.703353881835938 L16.556991577148438 9.638603210449219 L16.85881996154785 9.637823104858398"></path>
<path fill="none" stroke="black" stroke-width=".3" stroke-opacity="1.0"  filling="0" d="M2.881237030029297 10.121456146240234 L2.881237030029297 10.121456146240234 C3.147610664367676 10.394551277160645 3.4139842987060547 10.667645454406738 3.6803579330444336 10.940740585327148 L2.041788101196289 10.940740585327148 C2.3216044902801514 10.667645454406738 2.6014206409454346 10.394551277160645 2.881237030029297 10.121456146240234 L2.881237030029297 10.121456146240234"></path>
<path fill="none" stroke="black" stroke-width=".3" stroke-opacity="1.0"  filling="0" d="M9.565470695495605 10.121573448181152 L9.565470695495605 10.121573448181152 C9.831952095031738 10.394667625427246 10.098432540893555 10.667762756347656 10.364913940429688 10.94085693359375 L8.726349830627441 10.94085693359375 C9.006056785583496 10.667762756347656 9.28576374053955 10.394668579101562 9.565470695495605 10.121574401855469 L9.565470695495605 10.121574401855469"></path>
<path fill="none" stroke="black" stroke-width=".3" stroke-opacity="1.0"  filling="0" d="M4.87614107131958 10.90963363647461 L4.87614107131958 10.90963363647461 C5.430628299713135 9.231569290161133 6.993375301361084 9.168111801147461 7.516448497772217 10.898575782775879 L7.516448497772217 12.703341484069824 L6.882878303527832 12.703341484069824 L6.882878303527832 10.911259651184082 C6.656402111053467 10.657896995544434 6.543278217315674 10.151895523071289 6.203449249267578 10.15117073059082 C5.861143112182617 10.15044116973877 5.740957260131836 10.655945777893066 5.509711265563965 10.908332824707031 L5.509711265563965 12.703341484069824 L4.87614107131958 12.703341484069824 L4.87614107131958 10.909634590148926"></path>
<path fill="none" stroke="black" stroke-width=".3" stroke-opacity="1.0"  filling="0" d="M11.561607360839844 10.920249938964844 L11.561607360839844 10.920249938964844 C11.837642669677734 10.053206443786621 11.906535148620605 9.537062644958496 13.085041046142578 9.58871078491211 L13.06747817993164 10.163738250732422 C13.014572143554688 10.16222095489502 12.961666107177734 10.1607027053833 12.908760070800781 10.159185409545898 L12.908760070800781 10.159185409545898 C12.67296028137207 10.42263126373291 12.437159538269043 10.686076164245605 12.201359748840332 10.949522018432617 L12.201359748840332 12.703224182128906 L11.56160831451416 12.703224182128906 L11.56160831451416 10.920249938964844"></path>
<path fill="none" stroke="black" stroke-width=".3" stroke-opacity="1.0"  filling="0" d="M13.249676704406738 11.17905044555664 L13.249676704406738 11.17905044555664 C13.9453706741333 9.397815704345703 14.474563598632812 9.390329360961914 16.089031219482422 10.330170631408691 L15.59368896484375 10.614431381225586 C15.327317237854004 10.463627815246582 15.085814476013184 10.067819595336914 14.794572830200195 10.162020683288574 C14.364145278930664 10.301239967346191 14.187020301818848 10.832451820373535 13.883243560791016 11.167667388916016 L13.883243560791016 11.179038047790527 C14.198512077331543 11.518048286437988 14.389324188232422 12.051275253295898 14.829048156738281 12.196067810058594 C15.110854148864746 12.288860321044922 15.339675903320312 11.893810272216797 15.594989776611328 11.742681503295898 L16.088382720947266 12.023690223693848 C14.493912696838379 12.961230278015137 13.938596725463867 12.963462829589844 13.249676704406738 11.190422058105469 L13.249676704406738 11.179025650024414"></path>
<path fill="none" stroke="black" stroke-width=".3" stroke-opacity="1.0"  filling="0" d="M1.408217430114746 11.184671401977539 L1.408217430114746 11.184671401977539 C1.5517168045043945 10.80092716217041 1.5611025094985962 10.33474063873291 1.8387154340744019 10.033438682556152 C2.978260040283203 8.796655654907227 4.389728546142578 10.122075080871582 4.299617767333984 11.410714149475098 L2.042959213256836 11.427419662475586 C2.3447840213775635 11.695201873779297 2.552334785461426 12.15388298034668 2.9484338760375977 12.230765342712402 C3.2588372230529785 12.291014671325684 3.4987409114837646 11.919183731079102 3.7738943099975586 11.76339340209961 L4.244194030761719 12.030740737915039 C2.6159162521362305 12.95654582977295 2.0978994369506836 12.979716300964355 1.4080877304077148 11.184788703918457 L1.4080877304077148 11.184788703918457"></path>
<path fill="none" stroke="black" stroke-width=".3" stroke-opacity="1.0"  filling="0" d="M8.092451095581055 11.18478775024414 L8.092451095581055 11.18478775024414 C8.235937118530273 10.801043510437012 8.245331764221191 10.334882736206055 8.522908210754395 10.033554077148438 C9.662325859069824 8.796636581420898 11.07396411895752 10.122217178344727 10.983848571777344 11.4108304977417 L8.727190017700195 11.427535057067871 C9.028905868530273 11.695317268371582 9.236315727233887 12.154027938842773 9.63233757019043 12.230881690979004 C9.942928314208984 12.291155815124512 10.183079719543457 11.919300079345703 10.458450317382812 11.763509750366211 L10.928098678588867 12.030858993530273 C9.300216674804688 12.956902503967285 8.782073974609375 12.979520797729492 8.09231948852539 11.184905052185059 L8.09231948852539 11.184905052185059"></path>
<path fill="none" stroke="black" stroke-width=".3" stroke-opacity="1.0"  filling="0" d="M8.031173706054688 13.726642608642578 L8.236726760864258 13.922762870788574 L8.031173706054688 13.726642608642578"></path>
<path fill="none" stroke="black" stroke-width=".3" stroke-opacity="1.0"  filling="0" d="M9.229692459106445 13.726642608642578 L9.434919357299805 13.922762870788574 L9.229692459106445 13.726642608642578"></path>
<path fill="none" stroke="black" stroke-width=".3" stroke-opacity="1.0"  filling="0" d="M17.393905639648438 13.726642608642578 L17.599454879760742 13.922762870788574 L17.393905639648438 13.726642608642578"></path>
<path fill="none" stroke="black" stroke-width=".3" stroke-opacity="1.0"  filling="0" d="M8.545055389404297 13.817071914672852 L8.990636825561523 14.076939582824707 L8.733370780944824 14.752466201782227 C8.798924446105957 14.815604209899902 8.896512031555176 14.866247177124023 8.986733436584473 14.854253768920898 L8.986733436584473 15.012971878051758 C8.821267127990723 15.0442533493042 8.65906047821045 14.891676902770996 8.545055389404297 14.767740249633789 L8.545055389404297 13.817059516906738"></path>
<path fill="none" stroke="black" stroke-width=".3" stroke-opacity="1.0"  filling="0" d="M8.039936065673828 14.075431823730469 L8.228574752807617 15.031641006469727 L8.039936065673828 14.075431823730469"></path>
<path fill="none" stroke="black" stroke-width=".3" stroke-opacity="1.0"  filling="0" d="M9.238449096679688 14.075431823730469 L9.42643928527832 15.031641006469727 L9.238449096679688 14.075431823730469"></path>
<path fill="none" stroke="black" stroke-width=".3" stroke-opacity="1.0"  filling="0" d="M9.637198448181152 14.075431823730469 L10.111722946166992 14.796492576599121 L10.577144622802734 14.075431823730469 L10.188480377197266 15.031316757202148 L9.637198448181152 14.075431823730469"></path>
<path fill="none" stroke="black" stroke-width=".3" stroke-opacity="1.0"  filling="0" d="M17.402986526489258 14.075431823730469 L17.59097671508789 15.031641006469727 L17.402986526489258 14.075431823730469"></path>
<path fill="none" stroke="black" stroke-width=".3" stroke-opacity="1.0"  filling="0" d="M11.136247634887695 14.21702766418457 L11.136247634887695 14.21702766418457 C11.222003936767578 14.306794166564941 11.307759284973145 14.396561622619629 11.393515586853027 14.486328125 L10.866621017456055 14.486328125 C10.956496238708496 14.396561622619629 11.046372413635254 14.306794166564941 11.136247634887695 14.21702766418457 L11.136247634887695 14.21702766418457"></path>
<path fill="none" stroke="black" stroke-width=".3" stroke-opacity="1.0"  filling="0" d="M12.742806434631348 14.217041015625 L12.742806434631348 14.217041015625 C12.828778266906738 14.306807518005371 12.914750099182129 14.396574974060059 13.00072193145752 14.48634147644043 L12.473180770874023 14.48634147644043 C12.563055992126465 14.396574974060059 12.652931213378906 14.306807518005371 12.742806434631348 14.217041015625 L12.742806434631348 14.217041015625"></path>
<path fill="none" stroke="black" stroke-width=".3" stroke-opacity="1.0"  filling="0" d="M14.92577838897705 14.21705436706543 L14.92577838897705 14.21705436706543 C15.011533737182617 14.3068208694458 15.097289085388184 14.396588325500488 15.18304443359375 14.48635482788086 L14.655502319335938 14.48635482788086 C14.745594024658203 14.396588325500488 14.835686683654785 14.3068208694458 14.92577838897705 14.21705436706543 L14.92577838897705 14.21705436706543"></path>
<path fill="none" stroke="black" stroke-width=".3" stroke-opacity="1.0"  filling="0" d="M18.30171012878418 14.21706771850586 L18.30171012878418 14.21706771850586 C18.3875732421875 14.30683422088623 18.473438262939453 14.396600723266602 18.559301376342773 14.486367225646973 L18.031755447387695 14.486367225646973 C18.121740341186523 14.396600723266602 18.21172523498535 14.30683422088623 18.30171012878418 14.21706771850586 L18.30171012878418 14.21706771850586"></path>
<path fill="none" stroke="black" stroke-width=".3" stroke-opacity="1.0"  filling="0" d="M7.114307880401611 14.347345352172852 L7.114307880401611 14.347345352172852 C7.286334991455078 14.193929672241211 7.562358379364014 14.100000381469727 7.78235387802124 14.16878890991211 L7.703972816467285 14.307665824890137 C7.571854114532471 14.26404094696045 7.396246433258057 14.240683555603027 7.287010192871094 14.32685661315918 L7.287010192871094 14.330108642578125 C7.46982479095459 14.451358795166016 7.637136459350586 14.595635414123535 7.798295497894287 14.744466781616211 L7.798295497894287 14.748056411743164 C7.6088385581970215 14.912981033325195 7.297438621520996 14.990769386291504 7.061295986175537 14.905149459838867 L7.150086879730225 14.768872261047363 C7.297695159912109 14.826624870300293 7.4978461265563965 14.865307807922363 7.625592231750488 14.771474838256836 L7.625592231750488 14.767909049987793 C7.441579341888428 14.647359848022461 7.274347305297852 14.501558303833008 7.114310264587402 14.350625038146973 L7.114310264587402 14.347372055053711"></path>
<path fill="none" stroke="black" stroke-width=".3" stroke-opacity="1.0"  filling="0" d="M13.416007041931152 14.470743179321289 L13.416007041931152 14.470743179321289 C13.60881233215332 14.277176856994629 14.04312515258789 14.273613929748535 14.23561954498291 14.467489242553711 L14.23561954498291 15.031784057617188 L14.0473051071167 14.471718788146973 C13.948896408081055 14.3616304397583 13.704068183898926 14.36186408996582 13.604323387145996 14.470743179321289 L13.416007041931152 15.031784057617188 L13.416007041931152 14.470743179321289"></path>
<path fill="none" stroke="black" stroke-width=".3" stroke-opacity="1.0"  filling="0" d="M15.59986400604248 14.474555015563965 L15.59986400604248 14.474555015563965 C15.748201370239258 14.327820777893066 15.85931396484375 14.053065299987793 16.067882537841797 14.058895111083984 L16.067882537841797 14.230298042297363 C15.942611694335938 14.226393699645996 15.873600959777832 14.390235900878906 15.790128707885742 14.483726501464844 L15.59986400604248 15.031757354736328 L15.59986400604248 14.474618911743164"></path>
<path fill="none" stroke="black" stroke-width=".3" stroke-opacity="1.0"  filling="0" d="M16.193740844726562 14.542803764343262 L16.193740844726562 14.542803764343262 C16.800628662109375 13.910106658935547 17.11742401123047 14.121210098266602 17.11742401123047 14.952281951904297 L17.11742401123047 14.952281951904297 C16.93585777282715 15.498944282531738 16.740074157714844 15.50388240814209 16.209678649902344 15.3448486328125 L16.28481101989746 15.193285942077637 C16.500892639160156 15.2662353515625 16.774940490722656 15.136131286621094 16.931713104248047 14.970495223999023 L16.934654235839844 14.879753112792969 C16.68915557861328 14.994085311889648 16.3725528717041 14.749780654907227 16.193750381469727 14.546380043029785 L16.193750381469727 14.542816162109375"></path>
<path fill="none" stroke="black" stroke-width=".3" stroke-opacity="1.0"  filling="0" d="M16.38335609436035 14.54800796508789 L16.38335609436035 14.54800796508789 C17.033443450927734 13.803597450256348 17.03360939025879 15.291826248168945 16.38335609436035 14.54800796508789 L16.38335609436035 14.54800796508789"></path>
<path fill="none" stroke="black" stroke-width=".3" stroke-opacity="1.0"  filling="0" d="M10.67895793914795 14.554303169250488 L10.67895793914795 14.554303169250488 C10.769124031066895 14.456735610961914 11.65652084350586 13.329795837402344 11.577598571777344 14.623905181884766 L10.866945266723633 14.623905181884766 C10.890588760375977 15.141386032104492 11.2926664352417 14.817763328552246 11.418747901916504 14.747509956359863 L11.557303428649902 14.826869010925293 C11.290432929992676 14.97702407836914 10.891103744506836 14.778908729553223 10.678823471069336 14.558219909667969 L10.678823471069336 14.554317474365234"></path>
<path fill="none" stroke="black" stroke-width=".3" stroke-opacity="1.0"  filling="0" d="M12.285516738891602 14.554317474365234 L12.285516738891602 14.554317474365234 C12.369423866271973 14.463457107543945 13.27110481262207 13.32317066192627 13.184171676635742 14.623918533325195 L12.473522186279297 14.623918533325195 C12.48544979095459 15.147936820983887 12.907914161682129 14.813064575195312 13.025390625 14.747523307800293 L13.163945198059082 14.826882362365723 C12.897024154663086 14.976945877075195 12.497672080993652 14.7789945602417 12.285468101501465 14.558233261108398 L12.285468101501465 14.554329872131348"></path>
<path fill="none" stroke="black" stroke-width=".3" stroke-opacity="1.0"  filling="0" d="M14.467838287353516 14.554329872131348 L14.467838287353516 14.554329872131348 C14.55130672454834 14.464009284973145 15.454397201538086 13.32283878326416 15.366792678833008 14.623931884765625 L14.656465530395508 14.623931884765625 C14.668429374694824 15.147615432739258 15.090100288391113 14.813138008117676 15.207685470581055 14.747536659240723 L15.346562385559082 14.826895713806152 C15.079602241516113 14.97710132598877 14.68018627166748 14.778937339782715 14.46776008605957 14.558245658874512 L14.46776008605957 14.554343223571777"></path>
<path fill="none" stroke="black" stroke-width=".3" stroke-opacity="1.0"  filling="0" d="M17.844419479370117 14.554343223571777 L17.844419479370117 14.554343223571777 C17.92856788635254 14.463284492492676 18.829925537109375 13.32370662689209 18.743072509765625 14.623944282531738 L18.03241729736328 14.623944282531738 C18.044424057006836 15.147649765014648 18.466657638549805 14.813093185424805 18.584285736083984 14.747549057006836 L18.72316551208496 14.826908111572266 C18.456153869628906 14.977021217346191 18.056713104248047 14.779023170471191 17.844364166259766 14.558259010314941 L17.844364166259766 14.554356575012207"></path>
<path fill="none" stroke="black" stroke-width=".3" stroke-opacity="1.0"  filling="0" d="M5.90604829788208 14.555357933044434 L5.90604829788208 14.555357933044434 C6.073329925537109 14.389159202575684 6.172087669372559 14.057682037353516 6.407893180847168 14.0567626953125 C6.642167568206787 14.055849075317383 6.740724086761475 14.386557579040527 6.907139301300049 14.5514554977417 L6.907139301300049 14.555357933044434 C6.739423751831055 14.720797538757324 6.639573574066162 15.050911903381348 6.403993129730225 15.051676750183105 C6.170407772064209 15.052435874938965 6.072030067443848 14.722965240478516 5.90604829788208 14.558609962463379 L5.90604829788208 14.555356979370117"></path>
<path fill="none" stroke="black" stroke-width=".3" stroke-opacity="1.0"  filling="0" d="M6.0972900390625 14.555357933044434 L6.0972900390625 14.5514554977417 C6.240712642669678 14.401341438293457 6.575344085693359 14.406554222106934 6.720125675201416 14.555357933044434 L6.720125675201416 14.558610916137695 C6.575445175170898 14.707510948181152 6.240828514099121 14.705361366271973 6.0972900390625 14.55535888671875 L6.0972900390625 14.55535888671875"></path>
<path fill="none" stroke="black" stroke-width=".3" stroke-opacity="1.0"  filling="0" d="M4.932924747467041 14.556971549987793 L4.932924747467041 14.553380966186523 C5.058990478515625 14.409283638000488 5.379354000091553 14.408998489379883 5.507298946380615 14.551429748535156 L5.507298946380615 14.55533218383789 C5.3792829513549805 14.697699546813965 5.059852123260498 14.700298309326172 4.932924747467041 14.55695915222168 L4.932924747467041 14.55695915222168"></path>
<path fill="none" stroke="black" stroke-width=".3" stroke-opacity="1.0"  filling="0" d="M4.747538089752197 14.567378997802734 L4.747538089752197 14.567378997802734 C4.902894973754883 14.39716911315918 4.983191013336182 14.060596466064453 5.213608741760254 14.056750297546387 C5.445324897766113 14.052882194519043 5.539283752441406 14.386545181274414 5.702121257781982 14.551443099975586 L5.702121257781982 14.55534553527832 C5.510108947753906 14.762327194213867 5.192727088928223 15.027698516845703 4.93455171585083 14.913436889648438 L4.747277736663818 15.415285110473633 C4.747364521026611 15.132649421691895 4.747451305389404 14.850014686584473 4.747538089752197 14.567378997802734 L4.747538089752197 14.567378997802734"></path></svg>