<svg xmlns="http://www.w3.org/2000/svg" viewBox="0.0 0.0 24.0 24.0" height="200px" width="200px"><path fill="none" stroke="black" stroke-width=".3" stroke-opacity="1.0"  filling="0" d="M3.23239803314209 9.047935485839844 L6.479750156402588 9.047935485839844 L6.479750156402588 9.511754035949707 L3.23239803314209 9.511754035949707 L3.23239803314209 9.047935485839844"></path>
<path fill="none" stroke="black" stroke-width=".3" stroke-opacity="1.0"  filling="0" d="M3.23239803314209 9.975198745727539 L6.479750156402588 9.975198745727539 L6.479750156402588 10.439141273498535 L3.23239803314209 10.439141273498535 L3.23239803314209 9.975198745727539"></path>
<path fill="none" stroke="black" stroke-width=".3" stroke-opacity="1.0"  filling="0" d="M3.23239803314209 10.90320873260498 L6.479750156402588 10.90320873260498 L6.479750156402588 11.367277145385742 L3.23239803314209 11.367277145385742 L3.23239803314209 10.90320873260498"></path>
<path fill="none" stroke="black" stroke-width=".3" stroke-opacity="1.0"  filling="0" d="M5.088294506072998 11.831095695495605 L5.552362442016602 11.831095695495605 L5.552362442016602 14.024178504943848 L5.088294506072998 14.024178504943848 L5.088294506072998 11.831095695495605"></path>
<path fill="none" stroke="black" stroke-width=".3" stroke-opacity="1.0"  filling="0" d="M6.016056060791016 11.831095695495605 L6.479750156402588 11.831095695495605 L6.479750156402588 14.024178504943848 L6.016056060791016 14.024178504943848 L6.016056060791016 11.831095695495605"></path>
<path fill="none" stroke="black" stroke-width=".3" stroke-opacity="1.0"  filling="0" d="M6.943817615509033 11.831095695495605 L7.407761096954346 11.831095695495605 L7.407761096954346 14.024178504943848 L6.943817615509033 14.024178504943848 L6.943817615509033 11.831095695495605"></path>
<path fill="none" stroke="black" stroke-width=".3" stroke-opacity="1.0"  filling="0" d="M7.87145471572876 11.831095695495605 L8.335646629333496 11.831095695495605 L8.335646629333496 14.024178504943848 L7.87145471572876 14.024178504943848 L7.87145471572876 11.831095695495605"></path>
<path fill="none" stroke="black" stroke-width=".3" stroke-opacity="1.0"  filling="0" d="M14.350096702575684 11.838940620422363 L14.999317169189453 11.838940620422363 C15.265094757080078 12.09643268585205 15.384549140930176 12.634475708007812 15.169903755187988 12.935917854309082 L15.169903755187988 12.942142486572266 C15.293837547302246 13.113848686218262 15.417771339416504 13.285555839538574 15.541705131530762 13.45726203918457 L15.547931671142578 13.694587707519531 C15.578437805175781 13.801255226135254 15.6089448928833 13.907923698425293 15.639451026916504 14.014591217041016 L15.411089897155762 14.014591217041016 C15.391707420349121 13.913069725036621 15.372323989868164 13.811548233032227 15.352941513061523 13.710026741027832 L15.346714973449707 13.527114868164062 C15.202526092529297 13.358604431152344 15.058338165283203 13.190093994140625 14.914149284362793 13.021583557128906 L14.54546070098877 13.021583557128906 L14.350345611572266 14.014591217041016 L14.350096702575684 11.838940620422363"></path>
<path fill="none" stroke="black" stroke-width=".3" stroke-opacity="1.0"  filling="0" d="M17.652982711791992 11.838940620422363 L18.301956176757812 11.838940620422363 C18.567827224731445 12.096353530883789 18.68748664855957 12.63449764251709 18.472789764404297 12.935917854309082 L18.472789764404297 12.942142486572266 C18.596723556518555 13.113848686218262 18.720659255981445 13.285555839538574 18.844593048095703 13.45726203918457 L18.850818634033203 13.694587707519531 C18.881364822387695 13.801255226135254 18.91191291809082 13.907923698425293 18.942459106445312 14.014591217041016 L18.713478088378906 14.014591217041016 C18.694177627563477 13.913069725036621 18.67487907409668 13.811548233032227 18.65557861328125 13.710026741027832 L18.649351119995117 13.527114868164062 C18.50507926940918 13.358604431152344 18.360809326171875 13.190093994140625 18.216537475585938 13.021583557128906 L17.847848892211914 13.021583557128906 L17.652732849121094 14.014591217041016 L17.652982711791992 11.838940620422363"></path>
<path fill="none" stroke="black" stroke-width=".3" stroke-opacity="1.0"  filling="0" d="M20.13020896911621 11.991471290588379 L20.471378326416016 13.216449737548828 L19.79476547241211 13.216449737548828 L20.13020896911621 11.991471290588379"></path>
<path fill="none" stroke="black" stroke-width=".3" stroke-opacity="1.0"  filling="0" d="M14.54546070098877 12.003922462463379 L14.901823043823242 12.003922462463379 C15.057259559631348 12.146160125732422 15.373358726501465 12.220005989074707 15.368131637573242 12.430634498596191 C15.362776756286621 12.646410942077637 15.043147087097168 12.714778900146484 14.880655288696289 12.856850624084473 L14.54546070098877 12.856850624084473 L14.54546070098877 12.003922462463379"></path>
<path fill="none" stroke="black" stroke-width=".3" stroke-opacity="1.0"  filling="0" d="M17.847848892211914 12.003922462463379 L18.204336166381836 12.003922462463379 C18.359731674194336 12.146160125732422 18.675777435302734 12.220036506652832 18.670520782470703 12.430634498596191 C18.66513442993164 12.64640998840332 18.345537185668945 12.714778900146484 18.18304443359375 12.856850624084473 L17.847850799560547 12.856850624084473 L17.847850799560547 12.003922462463379"></path>
<path fill="none" stroke="black" stroke-width=".3" stroke-opacity="1.0"  filling="0" d="M1.3771238327026367 12.632473945617676 L4.6241021156311035 12.632473945617676 L4.6241021156311035 13.096044540405273 L1.3771238327026367 13.096044540405273 L1.3771238327026367 12.632473945617676"></path>
<path fill="none" stroke="black" stroke-width=".3" stroke-opacity="1.0"  filling="0" d="M22.44021224975586 13.070145606994629 L21.92521858215332 13.070145606994629 L22.622875213623047 12.90578556060791 L22.622875213623047 14.014592170715332 L22.464244842529297 13.65499210357666 C21.042680740356445 14.83259105682373 20.862024307250977 10.639720916748047 22.610546112060547 12.448565483093262 L22.415307998657227 12.448565483093262 C21.188600540161133 11.07203483581543 21.202476501464844 15.218131065368652 22.43996238708496 13.115592956542969 L22.43996238708496 13.070144653320312"></path>
<path fill="none" stroke="black" stroke-width=".3" stroke-opacity="1.0"  filling="0" d="M1.3771238327026367 13.560111999511719 L4.6241021156311035 13.560111999511719 L4.6241021156311035 14.024303436279297 L1.3771238327026367 14.024303436279297 L1.3771238327026367 13.560111999511719"></path>
<path fill="none" stroke="black" stroke-width=".3" stroke-opacity="1.0"  filling="0" d="M19.368297576904297 14.014467239379883 L20.011293411254883 11.839313507080078 L20.254968643188477 11.839313507080078 L20.897966384887695 14.014467239379883 L20.513837814331055 13.380685806274414 L19.752304077148438 13.380685806274414 L19.36829948425293 14.014467239379883"></path>
<path fill="none" stroke="black" stroke-width=".3" stroke-opacity="1.0"  filling="0" d="M9.263407707214355 14.014591217041016 L9.263407707214355 11.839189529418945 L10.342330932617188 11.839189529418945 L9.458274841308594 12.004047393798828 L9.458274841308594 12.79583740234375 L10.284307479858398 12.9605712890625 L9.458274841308594 12.9605712890625 L9.458274841308594 13.850480079650879 L10.369475364685059 14.014591217041016 L9.263407707214355 14.014591217041016"></path>
<path fill="none" stroke="black" stroke-width=".3" stroke-opacity="1.0"  filling="0" d="M10.844001770019531 14.014591217041016 L10.844001770019531 11.839188575744629 L11.106106758117676 11.839188575744629 L11.943968772888184 13.734432220458984 L12.139083862304688 11.839188575744629 L12.139083862304688 14.014591217041016 L11.876978874206543 14.014591217041016 L11.039365768432617 12.11947250366211 L10.844499588012695 14.014591217041016"></path>
<path fill="none" stroke="black" stroke-width=".3" stroke-opacity="1.0"  filling="0" d="M12.76925277709961 14.014591217041016 L12.76925277709961 11.839189529418945 L13.848051071166992 11.839189529418945 L12.964367866516113 12.004047393798828 L12.964367866516113 12.79583740234375 L13.790277481079102 12.9605712890625 L12.964367866516113 12.9605712890625 L12.964367866516113 13.850480079650879 L13.875445365905762 14.014591217041016 L12.76925277709961 14.014591217041016"></path>
<path fill="none" stroke="black" stroke-width=".3" stroke-opacity="1.0"  filling="0" d="M16.464859008789062 14.014591217041016 L16.464859008789062 12.004047393798828 L15.904541015625 11.839189529418945 L17.22054100036621 11.839189529418945 L16.659975051879883 12.004047393798828 L16.464859008789062 14.014591217041016"></path>
<path fill="none" stroke="black" stroke-width=".3" stroke-opacity="1.0"  filling="0" d="M1.3771238327026367 14.48812198638916 L4.6241021156311035 14.48812198638916 L4.6241021156311035 14.952064514160156 L1.3771238327026367 14.952064514160156 L1.3771238327026367 14.48812198638916"></path></svg>