<svg xmlns="http://www.w3.org/2000/svg" viewBox="0.0 0.0 24.0 24.0" height="200px" width="200px"><path fill="none" stroke="black" stroke-width=".3" stroke-opacity="1.0"  filling="0" d="M1.3089418411254883 66.6868896484375 L1.3089418411254883 66.6868896484375 C1.7588567733764648 66.8358383178711 2.295832633972168 66.82887268066406 2.658686876296997 67.13374328613281 C3.912148952484131 68.18690490722656 2.4346914291381836 69.61957550048828 1.3089418411254883 69.61944580078125 C0.1836484670639038 69.61931610107422 -1.2942689657211304 68.18717956542969 -0.04080355167388916 67.13401794433594 C0.3220731317996979 66.8291244506836 0.8590267300605774 66.83592987060547 1.3089418411254883 66.6868896484375 L1.3089418411254883 66.6868896484375"></path>
<path fill="none" stroke="black" stroke-width=".3" stroke-opacity="1.0"  filling="0" d="M3.123053550720215 66.79183959960938 L5.740774154663086 66.79183959960938 L5.740774154663086 68.680908203125 C5.307985782623291 69.00775146484375 4.983775615692139 69.62896728515625 4.442409038543701 69.66143798828125 C3.9297897815704346 69.69218444824219 3.5748326778411865 69.11170196533203 3.1410446166992188 68.83683776855469 L3.443897247314453 68.83683776855469 C3.6467978954315186 68.99475860595703 3.849698781967163 69.1526870727539 4.0525994300842285 69.31060791015625 L4.0525994300842285 69.31060791015625 C4.272491931915283 69.10270690917969 4.492384433746338 68.89481353759766 4.712276935577393 68.6869125366211 L4.712276935577393 67.06470489501953 L3.123053550720215 67.06470489501953 L3.123053550720215 66.79183959960938"></path>
<path fill="none" stroke="black" stroke-width=".3" stroke-opacity="1.0"  filling="0" d="M9.057153701782227 66.79183959960938 L11.725848197937012 66.79183959960938 L11.725848197937012 67.05570983886719 L10.901251792907715 67.05570983886719 L10.901251792907715 69.54149627685547 L9.896742820739746 69.54149627685547 L9.896742820739746 67.05570983886719 L9.057153701782227 67.05570983886719 L9.057153701782227 66.79183959960938"></path>
<path fill="none" stroke="black" stroke-width=".3" stroke-opacity="1.0"  filling="0" d="M-7.017988204956055 66.79783630371094 L-5.980495452880859 66.79783630371094 L-5.980495452880859 68.89680480957031 C-5.820497989654541 69.07013702392578 -5.42922306060791 69.0704116821289 -5.2728424072265625 68.89381408691406 L-5.269842147827148 66.79783630371094 L-4.250341415405273 66.79783630371094 L-4.250341415405273 68.56697082519531 C-4.711116313934326 68.9207992553711 -5.171890735626221 69.27462005615234 -5.632665634155273 69.62844848632812 L-5.632665634155273 69.62844848632812 C-6.09443998336792 69.27062225341797 -6.556213855743408 68.91280364990234 -7.017988204956055 68.55497741699219 L-7.017988204956055 66.79783630371094"></path>
<path fill="none" stroke="black" stroke-width=".3" stroke-opacity="1.0"  filling="0" d="M-3.5666751861572266 66.79783630371094 L-1.6506118774414062 66.79783630371094 C-1.3417632579803467 67.085693359375 -1.032914400100708 67.37355041503906 -0.7240657806396484 67.66140747070312 L-0.7240657806396484 67.66140747070312 C-1.0399112701416016 67.97725677490234 -1.3557567596435547 68.29309844970703 -1.6716022491455078 68.60894775390625 L-1.6716022491455078 68.60894775390625 C-1.3177751302719116 68.85782623291016 -0.9639478921890259 69.10669708251953 -0.6101207733154297 69.35557556152344 L-0.6101207733154297 69.53250122070312 C-0.9249407052993774 69.52896118164062 -1.2412290573120117 69.51004028320312 -1.5516605377197266 69.45753479003906 L-1.5516605377197266 69.45753479003906 C-1.868505835533142 69.20465850830078 -2.1853511333465576 68.95177459716797 -2.5021963119506836 68.69889831542969 L-2.5021963119506836 69.53250122070312 L-3.5666751861572266 69.53250122070312 L-3.5666751861572266 66.79783630371094"></path>
<path fill="none" stroke="black" stroke-width=".3" stroke-opacity="1.0"  filling="0" d="M-9.6956787109375 66.80382537841797 L-7.458772659301758 66.80382537841797 L-7.458772659301758 67.06470489501953 L-8.649190902709961 67.06470489501953 L-8.649190902709961 67.90129089355469 L-7.458772659301758 67.90129089355469 L-7.458772659301758 68.16216278076172 L-8.64619255065918 68.16216278076172 L-8.64619255065918 69.25363159179688 L-7.458772659301758 69.25363159179688 L-7.458772659301758 69.52949523925781 L-9.6956787109375 69.52949523925781 L-9.6956787109375 66.80382537841797"></path>
<path fill="none" stroke="black" stroke-width=".3" stroke-opacity="1.0"  filling="0" d="M6.433435916900635 66.80382537841797 L8.670342445373535 66.80382537841797 L8.670342445373535 67.05570983886719 L7.476925849914551 67.05570983886719 L7.476925849914551 67.90129089355469 L8.682336807250977 67.90129089355469 L8.682336807250977 68.16216278076172 L7.4829230308532715 68.16216278076172 L7.4829230308532715 69.25363159179688 L8.685335159301758 69.25363159179688 L8.685335159301758 69.52949523925781 L6.433435916900635 69.52949523925781 L6.433435916900635 66.80382537841797"></path>
<path fill="none" stroke="black" stroke-width=".3" stroke-opacity="1.0"  filling="0" d="M1.2999458312988281 66.95376586914062 L1.2999458312988281 66.95376586914062 C1.5208381414413452 67.18265533447266 1.7417303323745728 67.41153717041016 1.9626226425170898 67.64042663574219 L1.9626226425170898 68.7168960571289 C1.7417303323745728 68.92879486083984 1.6050384044647217 69.3773193359375 1.2999458312988281 69.35258483886719 C0.9676828384399414 69.32564544677734 0.8541635274887085 68.85682678222656 0.6312723159790039 68.60894775390625 L0.6312723159790039 67.63142395019531 C0.8541634678840637 67.4055404663086 1.0770546197891235 67.17964935302734 1.2999458312988281 66.95376586914062 L1.2999458312988281 66.95376586914062"></path>
<path fill="none" stroke="black" stroke-width=".3" stroke-opacity="1.0"  filling="0" d="M-2.391249656677246 67.00773620605469 L-2.391249656677246 67.00773620605469 C-2.169358253479004 67.2236328125 -1.9474668502807617 67.43952178955078 -1.7255754470825195 67.6554183959961 L-1.7255754470825195 67.6554183959961 C-1.9884471893310547 67.86032104492188 -2.25131893157959 68.06521606445312 -2.514190673828125 68.2701187133789 L-2.514190673828125 67.01373291015625 C-2.473210334777832 67.01173400878906 -2.432229995727539 67.00973510742188 -2.391249656677246 67.00773620605469 L-2.391249656677246 67.00773620605469"></path></svg>