<svg xmlns="http://www.w3.org/2000/svg" viewBox="0.0 0.0 24.0 24.0" height="200px" width="200px"><path fill="none" stroke="black" stroke-width=".3" stroke-opacity="1.0"  filling="0" d="M4.452186107635498 9.357122421264648 L4.452186107635498 9.357122421264648 C4.839663982391357 9.643176078796387 7.035670280456543 11.077044486999512 6.044005393981934 11.969533920288086 L3.401127815246582 11.969533920288086 C3.216675281524658 11.846566200256348 3.2166786193847656 11.536507606506348 3.401127815246582 11.41353988647461 L5.54132604598999 11.41353988647461 C5.328702449798584 11.023836135864258 5.23897647857666 10.535122871398926 4.9034552574157715 10.244428634643555 C2.231436014175415 7.929400444030762 0.23092103004455566 13.711237907409668 3.6600847244262695 13.591819763183594 C4.186934947967529 13.57347297668457 4.61974573135376 13.15514850616455 5.099576473236084 12.936812400817871 L3.104090690612793 12.936812400817871 C1.9207872152328491 12.640981674194336 2.1348164081573486 10.802122116088867 3.104090690612793 10.43864631652832 L4.216078758239746 10.43864631652832 C4.418981552124023 10.489370346069336 5.003605842590332 10.908906936645508 4.703525543212891 10.994640350341797 L3.2183351516723633 10.994640350341797 C3.1252517700195312 11.442041397094727 2.895200252532959 12.042450904846191 3.2183351516723633 12.365585327148438 L5.922143936157227 12.365585327148438 C6.458471298217773 12.804402351379395 5.119041919708252 13.711013793945312 4.7596964836120605 13.889809608459473 C4.196113109588623 14.17022705078125 3.4723386764526367 14.218740463256836 2.875598907470703 14.018336296081543 C0.8295338153839111 13.331202507019043 0.640228271484375 10.440637588500977 2.5709445476531982 9.484697341918945 C3.1342053413391113 9.205814361572266 3.825105667114258 9.39964771270752 4.452186107635498 9.357122421264648 L4.452186107635498 9.357122421264648"></path>
<path fill="none" stroke="black" stroke-width=".3" stroke-opacity="1.0"  filling="0" d="M8.085189819335938 10.431029319763184 L9.966431617736816 10.431029319763184 C9.989280700683594 10.453878402709961 10.012129783630371 10.476727485656738 10.034978866577148 10.499576568603516 L10.034978866577148 10.926093101501465 C10.012129783630371 10.948942184448242 9.989280700683594 10.97179126739502 9.966431617736816 10.994640350341797 L8.38222885131836 10.994640350341797 C8.346685409545898 11.131734848022461 8.311142921447754 11.268829345703125 8.275599479675293 11.405923843383789 L9.85218620300293 11.405923843383789 C9.87757396697998 11.428772926330566 9.902961730957031 11.451622009277344 9.928349494934082 11.474471092224121 L9.928349494934082 11.885754585266113 C9.902961730957031 11.911142349243164 9.87757396697998 11.936530113220215 9.85218620300293 11.961917877197266 L8.267982482910156 11.961917877197266 C8.303525924682617 12.096473693847656 8.339069366455078 12.231029510498047 8.374612808227539 12.365585327148438 L10.057828903198242 12.365585327148438 C10.083216667175293 12.388434410095215 10.108603477478027 12.411283493041992 10.133991241455078 12.43413257598877 L10.133991241455078 12.853033065795898 C10.108603477478027 12.880959510803223 10.083216667175293 12.908885955810547 10.057828903198242 12.936812400817871 L8.077573776245117 12.936812400817871 C7.5653815269470215 12.65225887298584 7.533139228820801 10.707064628601074 8.085189819335938 10.431029319763184 L8.085189819335938 10.431029319763184"></path>
<path fill="none" stroke="black" stroke-width=".3" stroke-opacity="1.0"  filling="0" d="M10.431028366088867 10.431029319763184 L10.987022399902344 10.431029319763184 C11.009871482849121 10.448801040649414 11.032719612121582 10.466572761535645 11.05556869506836 10.484344482421875 L11.64202880859375 12.373202323913574 L12.274187088012695 10.476727485656738 C12.2944974899292 10.461494445800781 12.31480884552002 10.44626235961914 12.335119247436523 10.431029319763184 L12.88349723815918 10.431029319763184 C12.913374900817871 10.460907936096191 12.962292671203613 10.496665954589844 12.952044486999512 10.53765869140625 L12.053313255310059 12.883498191833496 C12.027925491333008 12.901269912719727 12.00253677368164 12.91904067993164 11.97714900970459 12.936812400817871 L11.291677474975586 12.936812400817871 C11.268828392028809 12.921579360961914 11.245979309082031 12.906347274780273 11.223130226135254 12.891114234924316 L10.362481117248535 10.53004264831543 C10.362481117248535 10.489900588989258 10.4041748046875 10.460866928100586 10.431028366088867 10.431029319763184 L10.431028366088867 10.431029319763184"></path>
<path fill="none" stroke="black" stroke-width=".3" stroke-opacity="1.0"  filling="0" d="M19.456417083740234 10.431029319763184 L19.867700576782227 10.431029319763184 C19.89308738708496 10.456417083740234 19.918476104736328 10.481805801391602 19.943862915039062 10.507193565368652 L19.943862915039062 12.853033065795898 C19.918476104736328 12.87842082977295 19.89308738708496 12.90380859375 19.867700576782227 12.92919635772705 L19.456417083740234 12.92919635772705 C19.4310302734375 12.90380859375 19.405641555786133 12.87842082977295 19.3802547454834 12.853033065795898 L19.3802547454834 10.507193565368652 C19.405641555786133 10.481805801391602 19.4310302734375 10.456417083740234 19.456417083740234 10.431029319763184 L19.456417083740234 10.431029319763184"></path>
<path fill="none" stroke="black" stroke-width=".3" stroke-opacity="1.0"  filling="0" d="M20.568405151367188 10.431029319763184 L20.97207260131836 10.431029319763184 C20.997461318969727 10.456417083740234 21.02284812927246 10.481805801391602 21.048236846923828 10.507193565368652 L21.048236846923828 11.299294471740723 L21.299575805664062 11.299294471740723 C21.594289779663086 11.010090827941895 21.89110565185547 10.723003387451172 22.183074951171875 10.431029319763184 L22.601974487304688 10.431029319763184 C22.894332885742188 10.723386764526367 22.323326110839844 11.21181869506836 22.13737678527832 11.581099510192871 L22.13737678527832 11.581099510192871 C22.455583572387695 11.889044761657715 23.116317749023438 12.529097557067871 22.708602905273438 12.936812400817871 L22.297321319580078 12.936812400817871 C21.95049476623535 12.589986801147461 21.748022079467773 12.053967475891113 21.299575805664062 11.8552885055542 L21.048236846923828 11.8552885055542 L21.048236846923828 12.853033065795898 C21.02284812927246 12.87842082977295 20.997461318969727 12.90380859375 20.97207260131836 12.92919635772705 L20.568405151367188 12.92919635772705 C20.543018341064453 12.90380859375 20.517629623413086 12.87842082977295 20.49224281311035 12.853033065795898 L20.49224281311035 10.507193565368652 C20.517629623413086 10.481805801391602 20.543018341064453 10.456417083740234 20.568405151367188 10.431029319763184 L20.568405151367188 10.431029319763184"></path>
<path fill="none" stroke="black" stroke-width=".3" stroke-opacity="1.0"  filling="0" d="M13.317630767822266 10.644288063049316 L13.317630767822266 10.644288063049316 C13.875832557678223 10.497759819030762 15.292749404907227 9.904915809631348 15.792947769165039 10.705218315124512 L15.792947769165039 12.662623405456543 C15.471129417419434 13.177531242370605 13.601367950439453 13.177532196044922 13.279548645019531 12.662623405456543 L13.279548645019531 10.705218315124512 C13.292243003845215 10.684907913208008 13.304936408996582 10.66459846496582 13.317630767822266 10.644288063049316 L13.317630767822266 10.644288063049316"></path>
<path fill="none" stroke="black" stroke-width=".3" stroke-opacity="1.0"  filling="0" d="M16.364173889160156 10.644288063049316 L16.364173889160156 10.644288063049316 C16.816967010498047 10.525429725646973 18.457775115966797 9.871129989624023 18.83187484741211 10.712835311889648 L18.83187484741211 12.860648155212402 C18.806486129760742 12.886035919189453 18.781099319458008 12.91142463684082 18.75571060180664 12.936812400817871 L18.34442710876465 12.936812400817871 C18.31903839111328 12.91142463684082 18.293651580810547 12.886035919189453 18.26826286315918 12.860648155212402 L18.275880813598633 11.017489433288574 C17.816360473632812 11.017489433288574 17.356840133666992 11.017489433288574 16.897319793701172 11.017489433288574 L16.897319793701172 12.853033065795898 C16.871931076049805 12.87842082977295 16.84654426574707 12.90380859375 16.821155548095703 12.92919635772705 L16.40987205505371 12.92919635772705 C16.384483337402344 12.90380859375 16.35909652709961 12.87842082977295 16.333707809448242 12.853033065795898 L16.333707809448242 10.705218315124512 C16.343862533569336 10.684907913208008 16.354019165039062 10.66459846496582 16.364173889160156 10.644288063049316 L16.364173889160156 10.644288063049316"></path>
<path fill="none" stroke="black" stroke-width=".3" stroke-opacity="1.0"  filling="0" d="M13.843158721923828 11.017489433288574 L13.843158721923828 11.017489433288574 C14.302679061889648 11.017489433288574 14.762200355529785 11.017489433288574 15.221720695495605 11.017489433288574 L15.221720695495605 12.35035228729248 C14.762200355529785 12.35035228729248 14.302679061889648 12.35035228729248 13.843158721923828 12.35035228729248 L13.843158721923828 11.017489433288574"></path>
<path fill="none" stroke="black" stroke-width=".3" stroke-opacity="1.0"  filling="0" d="M16.24993133544922 13.55373764038086 L16.447956085205078 13.751763343811035 L16.24993133544922 13.55373764038086"></path>
<path fill="none" stroke="black" stroke-width=".3" stroke-opacity="1.0"  filling="0" d="M16.60028076171875 13.55373764038086 L16.798307418823242 13.751763343811035 L16.60028076171875 13.55373764038086"></path>
<path fill="none" stroke="black" stroke-width=".3" stroke-opacity="1.0"  filling="0" d="M22.525808334350586 13.820310592651367 L22.525808334350586 13.820310592651367 C22.609588623046875 13.840620994567871 22.693368911743164 13.860930442810059 22.777149200439453 13.881240844726562 L22.777149200439453 14.079266548156738 C22.690156936645508 14.048398971557617 22.247146606445312 13.916522026062012 22.48011016845703 14.170662879943848 L22.5562744140625 14.208744049072266 C23.04068374633789 14.503605842590332 22.599302291870117 14.806563377380371 22.183069229125977 14.711423873901367 L22.175457000732422 14.505783081054688 C22.309917449951172 14.553239822387695 22.745012283325195 14.671669960021973 22.46487808227539 14.3915376663208 L22.388713836669922 14.353456497192383 C22.274600982666016 14.209757804870605 22.38252067565918 13.934940338134766 22.525808334350586 13.820310592651367 L22.525808334350586 13.820310592651367"></path>
<path fill="none" stroke="black" stroke-width=".3" stroke-opacity="1.0"  filling="0" d="M12.578843116760254 13.835542678833008 L12.784483909606934 13.835542678833008 C12.89872932434082 14.140196800231934 13.012974739074707 14.444851875305176 13.127220153808594 14.749505996704102 L12.502679824829102 14.505783081054688 L12.205641746520996 14.749505996704102 C12.330041885375977 14.444851875305176 12.454442977905273 14.140196800231934 12.578843116760254 13.835542678833008 L12.578843116760254 13.835542678833008"></path>
<path fill="none" stroke="black" stroke-width=".3" stroke-opacity="1.0"  filling="0" d="M11.642030715942383 13.835543632507324 L11.642030715942383 13.835543632507324 C12.050741195678711 13.912866592407227 12.120391845703125 14.031964302062988 11.885754585266113 14.38392162322998 L11.885754585266113 14.38392162322998 C11.979689598083496 14.505783081054688 12.073624610900879 14.627645492553711 12.167559623718262 14.749506950378418 L11.916220664978027 14.764739990234375 C11.840057373046875 14.655571937561035 11.763893127441406 14.546402931213379 11.687729835510254 14.437234878540039 L11.383075714111328 14.764739990234375 L11.405923843383789 13.843158721923828 C11.484625816345215 13.840620040893555 11.563328742980957 13.838082313537598 11.642030715942383 13.835543632507324 L11.642030715942383 13.835543632507324"></path>
<path fill="none" stroke="black" stroke-width=".3" stroke-opacity="1.0"  filling="0" d="M17.377151489257812 13.835543632507324 L17.377151489257812 13.835543632507324 C17.78586196899414 13.912866592407227 17.855512619018555 14.031964302062988 17.620874404907227 14.38392162322998 L17.620874404907227 14.38392162322998 C17.71480941772461 14.505783081054688 17.808744430541992 14.627645492553711 17.902679443359375 14.749506950378418 L17.65134048461914 14.764739990234375 C17.575176239013672 14.655571937561035 17.499011993408203 14.546402931213379 17.422847747802734 14.437234878540039 L17.118194580078125 14.764739990234375 L17.14104461669922 13.843158721923828 C17.21974754333496 13.840620040893555 17.29844856262207 13.838082313537598 17.377151489257812 13.835543632507324 L17.377151489257812 13.835543632507324"></path>
<path fill="none" stroke="black" stroke-width=".3" stroke-opacity="1.0"  filling="0" d="M10.476727485656738 13.843158721923828 L10.689986228942871 14.262059211730957 C10.794076919555664 14.12242603302002 10.89816665649414 13.982791900634766 11.002257347106934 13.843158721923828 L11.238365173339844 13.843158721923828 C11.131735801696777 13.985330581665039 11.025107383728027 14.127503395080566 10.918478012084961 14.269675254821777 L10.918478012084961 14.269675254821777 C11.032723426818848 14.432157516479492 11.146968841552734 14.594639778137207 11.261214256286621 14.757122039794922 L10.99464225769043 14.757122039794922 C10.89309024810791 14.602255821228027 10.791539192199707 14.44739055633545 10.689987182617188 14.292524337768555 L10.476729393005371 14.757122039794922 L10.476727485656738 13.843158721923828"></path>
<path fill="none" stroke="black" stroke-width=".3" stroke-opacity="1.0"  filling="0" d="M13.294781684875488 13.843158721923828 L13.881240844726562 13.843158721923828 L13.500422477722168 14.025952339172363 L13.866008758544922 14.399154663085938 L13.500422477722168 14.399154663085938 L13.500422477722168 14.764739990234375 L13.287164688110352 14.764739990234375 L13.294781684875488 13.843158721923828"></path>
<path fill="none" stroke="black" stroke-width=".3" stroke-opacity="1.0"  filling="0" d="M15.36643123626709 13.843158721923828 L15.95289134979248 13.843158721923828 L15.57207202911377 14.025952339172363 L15.945274353027344 14.216361045837402 L15.579689025878906 14.399154663085938 L15.579689025878906 14.764739990234375 L15.36643123626709 14.764739990234375 L15.36643123626709 13.843158721923828"></path>
<path fill="none" stroke="black" stroke-width=".3" stroke-opacity="1.0"  filling="0" d="M16.341325759887695 13.843158721923828 L16.341325759887695 14.353456497192383 C16.394338607788086 14.645015716552734 16.63701629638672 14.661705017089844 16.69167709350586 14.361071586608887 L16.904935836791992 13.850775718688965 L16.904935836791992 14.38392162322998 C16.784072875976562 14.912684440612793 16.264211654663086 14.887660026550293 16.12806510925293 14.38392162322998 L16.341325759887695 13.850775718688965"></path>
<path fill="none" stroke="black" stroke-width=".3" stroke-opacity="1.0"  filling="0" d="M18.481521606445312 13.843158721923828 L18.65669822692871 13.843158721923828 C18.68462562561035 13.858391761779785 18.71255111694336 13.873623847961426 18.740478515625 13.888856887817383 L19.02228355407715 14.322990417480469 C19.062904357910156 14.399153709411621 19.103525161743164 14.47531795501709 19.144145965576172 14.551481246948242 L19.144145965576172 14.551481246948242 C19.133991241455078 14.467700958251953 19.123836517333984 14.383920669555664 19.11368179321289 14.300140380859375 L19.304092407226562 13.843158721923828 L19.12891387939453 14.757122039794922 C19.10098648071289 14.741888999938965 19.073060989379883 14.726656913757324 19.045133590698242 14.711423873901367 L18.763328552246094 14.277292251586914 C18.722707748413086 14.198590278625488 18.68208885192871 14.119887351989746 18.641468048095703 14.04118537902832 L18.641468048095703 14.04118537902832 C18.651622772216797 14.12496566772461 18.66177749633789 14.208745002746582 18.671932220458984 14.292525291442871 L18.481521606445312 14.749506950378418 L18.481521606445312 13.843158721923828"></path>
<path fill="none" stroke="black" stroke-width=".3" stroke-opacity="1.0"  filling="0" d="M19.555429458618164 13.843158721923828 L20.141887664794922 13.843158721923828 L19.768688201904297 14.018336296081543 L20.134273529052734 14.368688583374023 L19.768688201904297 14.566713333129883 L20.149505615234375 14.749506950378418 L19.555429458618164 14.749506950378418 L19.555429458618164 13.843158721923828"></path>
<path fill="none" stroke="black" stroke-width=".3" stroke-opacity="1.0"  filling="0" d="M20.583637237548828 13.843158721923828 L20.583637237548828 14.353456497192383 C20.63665008544922 14.64501667022705 20.879329681396484 14.66170597076416 20.933990478515625 14.361071586608887 L21.147247314453125 13.850775718688965 L21.147247314453125 14.38392162322998 C21.026384353637695 14.91268253326416 20.50652503967285 14.88766098022461 20.370380401611328 14.38392162322998 L20.583637237548828 13.850775718688965"></path>
<path fill="none" stroke="black" stroke-width=".3" stroke-opacity="1.0"  filling="0" d="M21.390972137451172 13.843158721923828 L21.977432250976562 13.843158721923828 L21.604232788085938 14.018336296081543 L21.969818115234375 14.368688583374023 L21.604232788085938 14.566713333129883 L21.985050201416016 14.566713333129883 L21.398590087890625 14.749506950378418 L21.398590087890625 13.843158721923828"></path>
<path fill="none" stroke="black" stroke-width=".3" stroke-opacity="1.0"  filling="0" d="M13.987869262695312 13.850775718688965 L14.779970169067383 13.850775718688965 L14.490549087524414 14.033568382263184 L14.490549087524414 14.764739990234375 L13.987869262695312 13.850775718688965"></path>
<path fill="none" stroke="black" stroke-width=".3" stroke-opacity="1.0"  filling="0" d="M11.588715553283691 13.99548625946045 L11.611565589904785 13.99548625946045 C11.937448501586914 13.99548625946045 11.857595443725586 14.246827125549316 11.588715553283691 14.246827125549316 L11.588715553283691 13.99548625946045"></path>
<path fill="none" stroke="black" stroke-width=".3" stroke-opacity="1.0"  filling="0" d="M17.323835372924805 13.99548625946045 L17.3466854095459 13.99548625946045 C17.67257308959961 13.99548625946045 17.592710494995117 14.246827125549316 17.323835372924805 14.246827125549316 L17.323835372924805 13.99548625946045"></path>
<path fill="none" stroke="black" stroke-width=".3" stroke-opacity="1.0"  filling="0" d="M12.68547248840332 14.025952339172363 L12.68547248840332 14.025952339172363 C12.698166847229004 14.079266548156738 12.710860252380371 14.13258171081543 12.723554611206055 14.185895919799805 L12.57884407043457 14.345840454101562 L12.670239448547363 14.086883544921875 C12.67531681060791 14.066573143005371 12.680395126342773 14.046262741088867 12.68547248840332 14.025952339172363 L12.68547248840332 14.025952339172363"></path></svg>