<svg xmlns="http://www.w3.org/2000/svg" viewBox="0.0 0.0 24.0 24.0" height="200px" width="200px"><path fill="none" stroke="black" stroke-width=".3" stroke-opacity="1.0"  filling="0" d="M-28.679672241210938 59.527713775634766 L-29.459842681884766 59.527713775634766 C-29.600608825683594 59.38694763183594 -29.741374969482422 59.246185302734375 -29.88214111328125 59.10541915893555 L-29.88214111328125 58.32524871826172 C-29.741374969482422 58.18448257446289 -29.600608825683594 58.04372024536133 -29.459842681884766 57.9029541015625 L-28.679672241210938 57.9029541015625 C-28.538908004760742 58.04372024536133 -28.39814567565918 58.18448257446289 -28.257381439208984 58.32524871826172 L-28.257381439208984 59.10541915893555 C-28.39814567565918 59.246185302734375 -28.538908004760742 59.38694763183594 -28.679672241210938 59.527713775634766 L-28.679672241210938 59.527713775634766"></path>
<path fill="none" stroke="black" stroke-width=".3" stroke-opacity="1.0"  filling="0" d="M-17.385068893432617 59.64223861694336 L-17.385068893432617 59.64223861694336 C-16.79180908203125 60.23550796508789 -17.990556716918945 60.23091125488281 -17.385068893432617 59.64223861694336 L-17.385068893432617 59.64223861694336"></path>
<path fill="none" stroke="black" stroke-width=".3" stroke-opacity="1.0"  filling="0" d="M-27.019119262695312 59.84980392456055 L-27.455734252929688 59.84980392456055 C-27.534467697143555 59.77107238769531 -27.61319923400879 59.69233703613281 -27.691932678222656 59.61360549926758 L-27.691932678222656 59.17699432373047 C-27.61319923400879 59.098262786865234 -27.534467697143555 59.019535064697266 -27.455734252929688 58.94080352783203 L-27.019119262695312 58.94080352783203 C-26.940385818481445 59.019535064697266 -26.86165428161621 59.098262786865234 -26.782920837402344 59.17699432373047 L-26.782920837402344 59.61360549926758 C-26.86165428161621 59.69233703613281 -26.940385818481445 59.77107238769531 -27.019119262695312 59.84980392456055 L-27.019119262695312 59.84980392456055"></path>
<path fill="none" stroke="black" stroke-width=".3" stroke-opacity="1.0"  filling="0" d="M-23.698020935058594 60.4295654296875 L-23.698020935058594 60.4295654296875 C-23.275726318359375 60.85186004638672 -22.431137084960938 61.09923553466797 -22.431137084960938 61.696449279785156 C-22.431137084960938 63.73324966430664 -23.890657424926758 62.88271713256836 -24.542613983154297 62.634090423583984 L-24.542613983154297 63.71487808227539 C-24.642162322998047 63.81099319458008 -24.858198165893555 63.81099319458008 -24.957748413085938 63.71487808227539 L-24.957748413085938 60.65145492553711 C-24.858200073242188 60.555335998535156 -24.642160415649414 60.555335998535156 -24.542613983154297 60.65145492553711 L-24.542613983154297 60.65145492553711 C-24.261083602905273 60.577491760253906 -23.979551315307617 60.5035285949707 -23.698020935058594 60.4295654296875 L-23.698020935058594 60.4295654296875"></path>
<path fill="none" stroke="black" stroke-width=".3" stroke-opacity="1.0"  filling="0" d="M-15.567054748535156 60.43671417236328 L-15.567054748535156 60.43671417236328 C-15.285524368286133 60.5440788269043 -15.00399398803711 60.65143966674805 -14.722463607788086 60.75880432128906 L-14.722463607788086 60.75880432128906 C-14.64254379272461 60.64030456542969 -14.410152435302734 60.55216979980469 -14.307327270507812 60.65144729614258 L-14.307327270507812 62.741455078125 C-14.406879425048828 62.83757019042969 -14.62291145324707 62.83757019042969 -14.722463607788086 62.741455078125 L-14.722463607788086 62.64124298095703 C-15.378408432006836 62.891395568847656 -16.833940505981445 63.74079895019531 -16.833940505981445 61.696449279785156 C-16.833940505981445 61.10091781616211 -15.989350318908691 60.856624603271484 -15.567054748535156 60.43671417236328 L-15.567054748535156 60.43671417236328"></path>
<path fill="none" stroke="black" stroke-width=".3" stroke-opacity="1.0"  filling="0" d="M-28.400527954101562 60.43672180175781 L-28.400527954101562 60.43672180175781 C-27.966957092285156 60.84565734863281 -26.75438117980957 61.67242431640625 -27.319732666015625 61.86107635498047 L-27.319732666015625 61.86107635498047 C-27.32212257385254 61.86107635498047 -27.32451057434082 61.86107635498047 -27.326900482177734 61.86107635498047 L-27.334041595458984 61.86107635498047 C-27.3364315032959 61.86107635498047 -27.33881950378418 61.86107635498047 -27.341209411621094 61.86107635498047 L-29.230804443359375 61.86107635498047 C-28.925907135009766 62.11124801635742 -27.410003662109375 62.54582977294922 -27.52014923095703 62.6054573059082 C-28.162975311279297 62.953453063964844 -29.66741180419922 63.629974365234375 -29.66741180419922 61.696449279785156 C-29.66741180419922 61.10091781616211 -28.82282257080078 60.856632232666016 -28.400527954101562 60.43672180175781 L-28.400527954101562 60.43672180175781"></path>
<path fill="none" stroke="black" stroke-width=".3" stroke-opacity="1.0"  filling="0" d="M-20.870792388916016 60.43672180175781 L-20.870792388916016 60.43672180175781 C-20.435115814208984 60.8476448059082 -19.433252334594727 61.36974334716797 -19.77569007873535 61.86107635498047 L-19.77569007873535 61.86107635498047 C-19.778076171875 61.86107635498047 -19.78046226501465 61.86107635498047 -19.782848358154297 61.86107635498047 L-19.782848358154297 61.86107635498047 C-19.787620544433594 61.86107635498047 -19.792390823364258 61.86107635498047 -19.797163009643555 61.86107635498047 L-19.8043212890625 61.86107635498047 C-19.80670738220215 61.86107635498047 -19.809093475341797 61.86107635498047 -19.811479568481445 61.86107635498047 L-21.701068878173828 61.86107635498047 C-21.396175384521484 62.11124801635742 -19.880264282226562 62.54582595825195 -19.990415573120117 62.6054573059082 C-20.63323974609375 62.953453063964844 -22.137680053710938 63.62997817993164 -22.137680053710938 61.696449279785156 C-22.137680053710938 61.10091781616211 -21.293088912963867 60.856632232666016 -20.870792388916016 60.43672180175781 L-20.870792388916016 60.43672180175781"></path>
<path fill="none" stroke="black" stroke-width=".3" stroke-opacity="1.0"  filling="0" d="M-18.215343475341797 60.43672180175781 L-18.215343475341797 60.43672180175781 C-17.79323959350586 60.81924819946289 -18.474477767944336 61.109317779541016 -18.84520721435547 61.467411041259766 L-18.84520721435547 62.734291076660156 C-18.94475746154785 62.83041000366211 -19.160795211791992 62.83041000366211 -19.260343551635742 62.734291076660156 L-19.260343551635742 60.65144729614258 C-19.160778045654297 60.55531692504883 -18.946502685546875 60.54998016357422 -18.84520721435547 60.644287109375 L-18.84520721435547 60.644287109375 C-18.635251998901367 60.57509994506836 -18.4252986907959 60.50590896606445 -18.215343475341797 60.43672180175781 L-18.215343475341797 60.43672180175781"></path>
<path fill="none" stroke="black" stroke-width=".3" stroke-opacity="1.0"  filling="0" d="M-12.840030670166016 60.43672180175781 L-12.840030670166016 60.43672180175781 C-13.054757118225098 60.50590896606445 -13.269482612609863 60.57509994506836 -13.484209060668945 60.644287109375 L-13.484209060668945 60.644287109375 C-13.585503578186035 60.54998016357422 -13.79978084564209 60.55531692504883 -13.899345397949219 60.65144729614258 L-13.899345397949219 62.741455078125 C-13.799793243408203 62.83757019042969 -13.583761215209961 62.83757019042969 -13.484209060668945 62.741455078125 L-13.484209060668945 61.47456359863281 C-13.267096519470215 61.264610290527344 -13.134854316711426 60.839725494384766 -12.83287239074707 60.844703674316406 C-11.598162651062012 60.865055084228516 -12.583712577819824 63.53055191040039 -11.766399383544922 62.741455078125 L-11.766399383544922 61.438777923583984 C-12.124276161193848 61.104759216308594 -12.48215389251709 60.7707405090332 -12.840030670166016 60.43672180175781 L-12.840030670166016 60.43672180175781"></path>
<path fill="none" stroke="black" stroke-width=".3" stroke-opacity="1.0"  filling="0" d="M-17.385068893432617 60.4510383605957 L-17.385068893432617 60.4510383605957 C-17.315879821777344 60.51784133911133 -17.246688842773438 60.58464431762695 -17.177499771118164 60.65144729614258 L-17.177499771118164 62.741455078125 C-17.27705192565918 62.83757019042969 -17.493085861206055 62.83757019042969 -17.59263801574707 62.741455078125 L-17.59263801574707 60.65144729614258 C-17.523448944091797 60.58464431762695 -17.45425796508789 60.51784133911133 -17.385068893432617 60.4510383605957 L-17.385068893432617 60.4510383605957"></path>
<path fill="none" stroke="black" stroke-width=".3" stroke-opacity="1.0"  filling="0" d="M-26.81155776977539 60.47250747680664 L-26.81155776977539 60.47250747680664 C-26.974308013916016 60.51591491699219 -27.037527084350586 60.61566925048828 -26.990489959716797 60.7802848815918 L-26.403575897216797 61.7036018371582 L-26.990489959716797 62.62693405151367 C-27.078411102294922 62.934600830078125 -26.84717559814453 62.952510833740234 -26.639774322509766 62.848812103271484 L-25.65918731689453 62.848812103271484 C-25.451780319213867 62.952518463134766 -25.22056007385254 62.93459701538086 -25.308467864990234 62.62693405151367 L-25.895389556884766 61.7036018371582 L-25.308467864990234 60.7802848815918 C-25.2191219329834 60.46755599975586 -25.462234497070312 60.46042251586914 -25.66634750366211 60.55840301513672 L-26.153060913085938 61.31710433959961 L-26.632614135742188 60.55840301513672 C-26.692262649536133 60.52976989746094 -26.751909255981445 60.50114059448242 -26.81155776977539 60.47250747680664 L-26.81155776977539 60.47250747680664"></path>
<path fill="none" stroke="black" stroke-width=".3" stroke-opacity="1.0"  filling="0" d="M-28.400527954101562 60.85186004638672 L-28.400527954101562 60.85186004638672 C-28.13331413269043 61.04750061035156 -27.866098403930664 61.24313735961914 -27.59888458251953 61.438777923583984 L-29.209331512451172 61.438777923583984 C-28.939729690551758 61.24313735961914 -28.670129776000977 61.04750061035156 -28.400527954101562 60.85186004638672 L-28.400527954101562 60.85186004638672"></path>
<path fill="none" stroke="black" stroke-width=".3" stroke-opacity="1.0"  filling="0" d="M-23.705177307128906 60.85186004638672 L-23.705177307128906 60.85186004638672 C-23.423646926879883 61.13338851928711 -22.86058807373047 61.29830551147461 -22.86058807373047 61.696449279785156 C-22.86058807373047 63.17417907714844 -24.54977035522461 62.470947265625 -24.54977035522461 61.696449279785156 C-24.54977035522461 61.29830551147461 -23.98670768737793 61.13338851928711 -23.705177307128906 60.85186004638672 L-23.705177307128906 60.85186004638672"></path>
<path fill="none" stroke="black" stroke-width=".3" stroke-opacity="1.0"  filling="0" d="M-20.870792388916016 60.85186004638672 L-20.870792388916016 60.85186004638672 C-20.603578567504883 61.04750061035156 -20.336362838745117 61.24313735961914 -20.069149017333984 61.438777923583984 L-21.67959213256836 61.438777923583984 C-21.409992218017578 61.24313735961914 -21.140392303466797 61.04750061035156 -20.870792388916016 60.85186004638672 L-20.870792388916016 60.85186004638672"></path>
<path fill="none" stroke="black" stroke-width=".3" stroke-opacity="1.0"  filling="0" d="M-15.567054748535156 60.85186004638672 L-15.567054748535156 60.85186004638672 C-15.285524368286133 61.13338851928711 -14.722463607788086 61.29830551147461 -14.722463607788086 61.696449279785156 C-14.722463607788086 62.471004486083984 -16.41164207458496 63.17412567138672 -16.41164207458496 61.696449279785156 C-16.41164207458496 61.29830551147461 -15.848584175109863 61.13338851928711 -15.567054748535156 60.85186004638672 L-15.567054748535156 60.85186004638672"></path>
<path fill="none" stroke="black" stroke-width=".3" stroke-opacity="1.0"  filling="0" d="M-30.70525360107422 61.281314849853516 L-31.578479766845703 61.281314849853516 C-31.735944747924805 61.12384796142578 -31.89341163635254 60.96638488769531 -32.05087661743164 60.80891799926758 L-32.05087661743164 59.92854309082031 C-31.89341163635254 59.77107620239258 -31.735944747924805 59.613609313964844 -31.578479766845703 59.45614242553711 L-30.698097229003906 59.45614242553711 C-30.540632247924805 59.613609313964844 -30.38316535949707 59.77107620239258 -30.22570037841797 59.92854309082031 L-30.22570037841797 60.80891799926758 C-30.38555335998535 60.96638488769531 -30.545408248901367 61.12384796142578 -30.70526123046875 61.281314849853516 L-30.70526123046875 61.281314849853516"></path>
<path fill="none" stroke="black" stroke-width=".3" stroke-opacity="1.0"  filling="0" d="M-11.437152862548828 62.483768463134766 L-11.208110809326172 62.483768463134766 C-11.191240310668945 62.50063705444336 -11.191239356994629 62.538475036621094 -11.208110809326172 62.55534362792969 L-11.286846160888672 62.906070709228516 C-11.303716659545898 62.92293930053711 -11.34154987335205 62.92293930053711 -11.358419418334961 62.906070709228516 L-11.437152862548828 62.55534362792969 C-11.454023361206055 62.538475036621094 -11.454022407531738 62.500640869140625 -11.437152862548828 62.483768463134766 L-11.437152862548828 62.483768463134766"></path>
<path fill="none" stroke="black" stroke-width=".3" stroke-opacity="1.0"  filling="0" d="M-11.072118759155273 62.4837760925293 L-11.072118759155273 62.4837760925293 C-11.055418014526367 62.49570846557617 -11.038717269897461 62.50763702392578 -11.022016525268555 62.519569396972656 L-10.921808242797852 62.81303024291992 L-10.821603775024414 62.519569396972656 C-10.794149398803711 62.49995422363281 -10.745255470275879 62.5100212097168 -10.721397399902344 62.53388214111328 L-10.721397399902344 62.906070709228516 C-10.738268852233887 62.922943115234375 -10.776103973388672 62.92293930053711 -10.792976379394531 62.906070709228516 L-10.792976379394531 62.62692642211914 C-10.824949264526367 62.72284698486328 -10.85767650604248 62.81855392456055 -10.893177032470703 62.91322326660156 L-10.893177032470703 62.91322326660156 C-10.90462875366211 62.92849349975586 -10.935534477233887 62.925148010253906 -10.950439453125 62.91322326660156 L-11.05064582824707 62.62692642211914 L-11.05064582824707 62.906070709228516 C-11.067516326904297 62.92293930053711 -11.105350494384766 62.92293930053711 -11.122220993041992 62.906070709228516 L-11.122220993041992 62.53388214111328 C-11.105520248413086 62.517181396484375 -11.08881950378418 62.5004768371582 -11.072118759155273 62.4837760925293 L-11.072118759155273 62.4837760925293"></path>
<path fill="none" stroke="black" stroke-width=".3" stroke-opacity="1.0"  filling="0" d="M-30.78398895263672 63.10647964477539 L-31.320804595947266 63.10647964477539 C-31.41623878479004 63.01104736328125 -31.511674880981445 62.91561508178711 -31.60710906982422 62.82018280029297 L-31.60710906982422 62.283363342285156 C-31.511674880981445 62.187931060791016 -31.41623878479004 62.09249496459961 -31.320804595947266 61.99706268310547 L-30.78398895263672 61.99706268310547 C-30.688556671142578 62.09249496459961 -30.593124389648438 62.187931060791016 -30.497692108154297 62.283363342285156 L-30.497692108154297 62.82018280029297 C-30.593124389648438 62.91561508178711 -30.688556671142578 63.01104736328125 -30.78398895263672 63.10647964477539 L-30.78398895263672 63.10647964477539"></path>
<path fill="none" stroke="black" stroke-width=".3" stroke-opacity="1.0"  filling="0" d="M-29.345325469970703 64.80281829833984 L-29.982341766357422 64.80281829833984 C-30.09686279296875 64.68830108642578 -30.211383819580078 64.57377624511719 -30.325904846191406 64.45925903320312 L-30.325904846191406 63.822235107421875 C-30.211383819580078 63.70771408081055 -30.09686279296875 63.59319305419922 -29.982341766357422 63.47867202758789 L-29.345325469970703 63.47867202758789 C-29.230804443359375 63.59319305419922 -29.116283416748047 63.70771408081055 -29.00176239013672 63.822235107421875 L-29.00176239013672 64.45925903320312 C-29.116283416748047 64.57377624511719 -29.230804443359375 64.68830108642578 -29.345325469970703 64.80281829833984 L-29.345325469970703 64.80281829833984"></path></svg>