<svg xmlns="http://www.w3.org/2000/svg" viewBox="0.0 0.0 24.0 24.0" height="200px" width="200px"><path fill="none" stroke="black" stroke-width=".3" stroke-opacity="1.0"  filling="0" d="M1.3482627868652344 7.664717197418213 L1.2215137481689453 8.329911231994629 L1.3482627868652344 7.664717197418213"></path>
<path fill="none" stroke="black" stroke-width=".3" stroke-opacity="1.0"  filling="0" d="M1.3482627868652344 7.664717197418213 L1.2215137481689453 8.329911231994629 L1.3482627868652344 7.664717197418213"></path>
<path fill="none" stroke="black" stroke-width=".3" stroke-opacity="1.0"  filling="0" d="M1.3482627868652344 7.664717197418213 L1.2215137481689453 8.329911231994629 L1.3482627868652344 7.664717197418213"></path>
<path fill="none" stroke="black" stroke-width=".3" stroke-opacity="1.0"  filling="0" d="M1.3482627868652344 7.664717197418213 L1.2216005325317383 8.329911231994629 L1.3482627868652344 7.664717197418213"></path>
<path fill="none" stroke="black" stroke-width=".3" stroke-opacity="1.0"  filling="0" d="M1.3482627868652344 7.664717197418213 L1.2216005325317383 8.329911231994629 L1.3482627868652344 7.664717197418213"></path>
<path fill="none" stroke="black" stroke-width=".3" stroke-opacity="1.0"  filling="0" d="M1.3267488479614258 7.717939853668213 L1.3267488479614258 7.859808444976807 C1.3258848190307617 7.914298057556152 1.3250207901000977 7.968787670135498 1.3241567611694336 8.023277282714844 L1.3241567611694336 8.023277282714844 C2.0011801719665527 7.722754001617432 1.992881178855896 8.838268280029297 1.3279590606689453 8.526298522949219 L1.3254528045654297 8.526298522949219 C1.3258848190307617 8.554608345031738 1.3263168334960938 8.582919120788574 1.3267488479614258 8.611228942871094 L1.198704719543457 8.611228942871094 C1.199136734008789 8.574480056762695 1.199568748474121 8.537732124328613 1.2000007629394531 8.500983238220215 L1.3267488479614258 7.717939853668213"></path>
<path fill="none" stroke="black" stroke-width=".3" stroke-opacity="1.0"  filling="0" d="M1.7436285018920898 8.28049087524414 L1.7436285018920898 8.28049087524414 C1.2316458225250244 8.859591484069824 1.2348484992980957 7.689938545227051 1.7436285018920898 8.28049087524414 L1.7436285018920898 8.28049087524414"></path>
<path fill="none" stroke="black" stroke-width=".3" stroke-opacity="1.0"  filling="0" d="M1.2000007629394531 8.500983238220215 L1.2000007629394531 8.500983238220215 C1.3952486515045166 8.3115816116333 1.3952492475509644 8.690382957458496 1.2000007629394531 8.500983238220215 L1.2000007629394531 8.500983238220215"></path>
<path fill="none" stroke="black" stroke-width=".3" stroke-opacity="1.0"  filling="0" d="M1.2000007629394531 7.946035385131836 L1.3267488479614258 8.351511001586914 C1.4033973217010498 8.428749084472656 1.583804965019226 8.411955833435059 1.652303695678711 8.32740592956543 L1.779052734375 7.946035385131836 L1.779052734375 8.36161994934082 C1.6699669361114502 8.480775833129883 1.4689737558364868 8.600399017333984 1.3241567611694336 8.528803825378418 L1.198704719543457 8.611228942871094 C1.199136734008789 8.574480056762695 1.199568748474121 8.537732124328613 1.2000007629394531 8.500983238220215 L1.2000007629394531 8.500983238220215"></path>
<path fill="none" stroke="black" stroke-width=".3" stroke-opacity="1.0"  filling="0" d="M1.2000007629394531 8.39073657989502 L1.4572124481201172 8.39073657989502 C1.7995221614837646 8.462242126464844 1.763885736465454 8.548644065856934 1.5155324935913086 8.773402214050293 L1.4267997741699219 8.794916152954102 C1.3862392902374268 8.824592590332031 1.381536841392517 8.921337127685547 1.4255037307739258 8.945684432983398 L1.6764097213745117 9.055930137634277 L1.4306011199951172 9.055930137634277 C1.1050611734390259 8.963919639587402 1.160712718963623 8.904115676879883 1.396388053894043 8.6770658493042 L1.4825286865234375 8.65555191040039 C1.5252184867858887 8.626399040222168 1.515974521636963 8.524449348449707 1.4699134826660156 8.500983238220215 L1.2000007629394531 8.500983238220215"></path>
<path fill="none" stroke="black" stroke-width=".3" stroke-opacity="1.0"  filling="0" d="M1.2000007629394531 8.500983238220215 L1.2000007629394531 8.500983238220215 C1.3952486515045166 8.3115816116333 1.3952492475509644 8.690382957458496 1.2000007629394531 8.500983238220215 L1.2000007629394531 8.500983238220215"></path>
<path fill="none" stroke="black" stroke-width=".3" stroke-opacity="1.0"  filling="0" d="M1.2000007629394531 7.946035385131836 L1.3267488479614258 8.296992301940918 C1.3790712356567383 8.375713348388672 1.42133629322052 8.516437530517578 1.5155324935913086 8.508585929870605 L1.5155324935913086 8.625140190124512 C1.4435687065124512 8.630409240722656 1.3837238550186157 8.565191268920898 1.322946548461914 8.526298522949219 L1.198704719543457 8.611228942871094 C1.199136734008789 8.574480056762695 1.199568748474121 8.537732124328613 1.2000007629394531 8.500983238220215 L1.2000007629394531 8.500983238220215"></path>
<path fill="none" stroke="black" stroke-width=".3" stroke-opacity="1.0"  filling="0" d="M1.2000007629394531 8.500983238220215 L1.2000007629394531 8.500983238220215 C1.3952486515045166 8.3115816116333 1.3952492475509644 8.690382957458496 1.2000007629394531 8.500983238220215 L1.2000007629394531 8.500983238220215"></path>
<path fill="none" stroke="black" stroke-width=".3" stroke-opacity="1.0"  filling="0" d="M1.2000007629394531 7.946035385131836 L1.3267488479614258 8.351511001586914 C1.4033973217010498 8.428749084472656 1.583804965019226 8.411955833435059 1.652303695678711 8.32740592956543 L1.779052734375 7.946035385131836 L1.779052734375 8.36161994934082 C1.6699875593185425 8.480794906616211 1.4689855575561523 8.600375175476074 1.3241567611694336 8.528803825378418 L1.198704719543457 8.611228942871094 C1.199136734008789 8.574480056762695 1.199568748474121 8.537732124328613 1.2000007629394531 8.500983238220215 L1.2000007629394531 8.500983238220215"></path>
<path fill="none" stroke="black" stroke-width=".3" stroke-opacity="1.0"  filling="0" d="M1.2000007629394531 8.500983238220215 L1.2000007629394531 8.500983238220215 C1.415353536605835 8.42127799987793 1.6891731023788452 8.550176620483398 1.857590675354004 8.706270217895508 L1.857590675354004 9.19918155670166 C1.857590675354004 9.229997634887695 1.857590675354004 9.260812759399414 1.857590675354004 9.29162883758545 L1.7359399795532227 9.216894149780273 C1.0810760259628296 9.495989799499512 1.0798516273498535 8.470449447631836 1.741037368774414 8.76450252532959 L1.7436285018920898 8.76450252532959 C1.7346328496932983 8.404094696044922 1.460443139076233 8.523087501525879 1.282339096069336 8.5947265625 L1.2000007629394531 8.500983238220215"></path>
<path fill="none" stroke="black" stroke-width=".3" stroke-opacity="1.0"  filling="0" d="M1.2000007629394531 7.946035385131836 L1.3267488479614258 8.351511001586914 C1.401051640510559 8.42811393737793 1.5794709920883179 8.41085147857666 1.6459970474243164 8.32740592956543 L1.7727460861206055 7.946035385131836 L1.7727460861206055 8.351511001586914 C1.8470685482025146 8.428094863891602 2.0254905223846436 8.410869598388672 2.091994285583496 8.32740592956543 L2.2187423706054688 7.946035385131836 L2.2187423706054688 8.36161994934082 C2.1062679290771484 8.485734939575195 1.8914917707443237 8.591095924377441 1.741037368774414 8.517484664916992 L1.7385311126708984 8.517484664916992 C1.617055892944336 8.58333683013916 1.4475672245025635 8.59095287322998 1.3241567611694336 8.528803825378418 L1.198704719543457 8.611228942871094 C1.199136734008789 8.574480056762695 1.199568748474121 8.537732124328613 1.2000007629394531 8.500983238220215 L1.2000007629394531 8.500983238220215"></path>
<path fill="none" stroke="black" stroke-width=".3" stroke-opacity="1.0"  filling="0" d="M1.2000007629394531 8.500983238220215 L1.2000007629394531 8.500983238220215 C2.026001214981079 7.668857574462891 2.023552656173706 9.339595794677734 1.2000007629394531 8.500983238220215 L1.2000007629394531 8.500983238220215"></path>
<path fill="none" stroke="black" stroke-width=".3" stroke-opacity="1.0"  filling="0" d="M1.2000007629394531 8.500983238220215 L1.2000007629394531 8.500983238220215 C1.882430076599121 8.18980884552002 1.873760461807251 9.310717582702637 1.2088127136230469 8.998992919921875 L1.2063074111938477 8.998992919921875 C1.2067394256591797 9.062756538391113 1.2071714401245117 9.126519203186035 1.2076034545898438 9.190282821655273 L1.2000007629394531 8.500983238220215"></path>
<path fill="none" stroke="black" stroke-width=".3" stroke-opacity="1.0"  filling="0" d="M1.2000007629394531 8.500983238220215 L1.2000007629394531 8.500983238220215 C1.3953158855438232 8.311516761779785 1.3953158855438232 8.690447807312012 1.2000007629394531 8.500983238220215 L1.2000007629394531 8.500983238220215"></path>
<path fill="none" stroke="black" stroke-width=".3" stroke-opacity="1.0"  filling="0" d="M1.2000007629394531 8.500983238220215 L1.2000007629394531 8.500983238220215 C1.3953158855438232 8.311516761779785 1.3953158855438232 8.690447807312012 1.2000007629394531 8.500983238220215 L1.2000007629394531 8.500983238220215"></path>
<path fill="none" stroke="black" stroke-width=".3" stroke-opacity="1.0"  filling="0" d="M1.2000007629394531 7.946035385131836 L1.5155324935913086 8.611228942871094 L1.2000007629394531 8.792409896850586 L1.2000007629394531 8.500983238220215"></path>
<path fill="none" stroke="black" stroke-width=".3" stroke-opacity="1.0"  filling="0" d="M1.2000007629394531 8.500983238220215 L0.9452934265136719 9.170064926147461 L1.2075166702270508 8.808913230895996 C1.2265535593032837 8.751457214355469 1.2455905675888062 8.694000244140625 1.264627456665039 8.636544227600098 L1.2671327590942383 8.636544227600098 C1.286572813987732 8.695267677307129 1.306012749671936 8.75399112701416 1.3254528045654297 8.812714576721191 L1.1049604415893555 8.276688575744629"></path>
<path fill="none" stroke="black" stroke-width=".3" stroke-opacity="1.0"  filling="0" d="M1.767648696899414 8.502279281616211 L1.767648696899414 8.502279281616211 C1.2471907138824463 9.086066246032715 1.246546745300293 7.920663356781006 1.767648696899414 8.502279281616211 L1.767648696899414 8.502279281616211"></path>
<path fill="none" stroke="black" stroke-width=".3" stroke-opacity="1.0"  filling="0" d="M1.6244840621948242 8.753185272216797 L1.6244840621948242 8.753185272216797 C1.112490177154541 9.332084655761719 1.1157383918762207 8.162678718566895 1.6244840621948242 8.753185272216797 L1.6244840621948242 8.753185272216797"></path>
<path fill="none" stroke="black" stroke-width=".3" stroke-opacity="1.0"  filling="0" d="M1.7423324584960938 8.984996795654297 L1.7423324584960938 8.984996795654297 C1.248726487159729 9.493314743041992 1.2464401721954346 8.48322868347168 1.7423324584960938 8.984996795654297 L1.7423324584960938 8.984996795654297"></path>
<path fill="none" stroke="black" stroke-width=".3" stroke-opacity="1.0"  filling="0" d="M18.978240966796875 20.8583984375 L18.978240966796875 21.53215789794922 L18.28253936767578 21.53215789794922 L18.978240966796875 20.8583984375"></path>
<path fill="none" stroke="black" stroke-width=".3" stroke-opacity="1.0"  filling="0" d="M5.239756107330322 21.91284942626953 L5.239756107330322 21.91284942626953 C5.503406524658203 22.012975692749023 5.767057418823242 22.113101959228516 6.030707836151123 22.213228225708008 L6.030707836151123 21.978839874267578 L6.682519435882568 21.978839874267578 L6.682519435882568 24.446792602539062 L6.030707836151123 24.446792602539062 C4.013314247131348 24.614707946777344 3.1643755435943604 22.737220764160156 5.239756107330322 21.91284942626953 L5.239756107330322 21.91284942626953"></path>
<path fill="none" stroke="black" stroke-width=".3" stroke-opacity="1.0"  filling="0" d="M20.816478729248047 21.91284942626953 L20.816478729248047 21.91284942626953 C21.080080032348633 22.02029037475586 21.343679428100586 22.12773323059082 21.607280731201172 22.23517417907715 L21.607280731201172 21.978839874267578 L22.259090423583984 21.978839874267578 L22.259090423583984 24.446792602539062 L21.607280731201172 24.446792602539062 C19.58974266052246 24.6147518157959 18.741044998168945 22.737123489379883 20.816478729248047 21.91284942626953 L20.816478729248047 21.91284942626953"></path>
<path fill="none" stroke="black" stroke-width=".3" stroke-opacity="1.0"  filling="0" d="M1.4169731140136719 21.978689193725586 L1.4169731140136719 22.645130157470703 L0.7797927856445312 22.645130157470703 L1.4169731140136719 21.978689193725586"></path>
<path fill="none" stroke="black" stroke-width=".3" stroke-opacity="1.0"  filling="0" d="M18.978240966796875 21.978839874267578 L18.978240966796875 24.446792602539062 L18.28253936767578 24.446792602539062 L18.978240966796875 21.978839874267578"></path>
<path fill="none" stroke="black" stroke-width=".3" stroke-opacity="1.0"  filling="0" d="M13.764054298400879 22.49882698059082 L13.764054298400879 22.49882698059082 C13.915386199951172 22.58422088623047 14.066719055175781 22.66961669921875 14.218050956726074 22.7550106048584 L13.141502380371094 23.12122344970703 C13.349019050598145 22.91375732421875 13.556536674499512 22.7062931060791 13.764053344726562 22.49882698059082 L13.764053344726562 22.49882698059082"></path>
<path fill="none" stroke="black" stroke-width=".3" stroke-opacity="1.0"  filling="0" d="M16.847091674804688 22.557342529296875 L16.847091674804688 22.557342529296875 C16.01291847229004 23.382558822631836 16.246261596679688 24.110986709594727 17.403804779052734 23.7143611907959 L17.711345672607422 24.219715118408203 C14.92502212524414 25.140663146972656 14.887152671813965 21.327863693237305 17.68193244934082 22.198448181152344 L17.381704330444336 22.72574806213379 C17.20349884033203 22.669614791870117 17.025293350219727 22.613479614257812 16.847087860107422 22.55734634399414 L16.847087860107422 22.55734634399414"></path>
<path fill="none" stroke="black" stroke-width=".3" stroke-opacity="1.0"  filling="0" d="M3.672635078430176 22.645282745361328 L3.672635078430176 21.978839874267578 L2.559511184692383 21.847013473510742 C2.942744493484497 21.668807983398438 3.3259780406951904 21.490602493286133 3.7092113494873047 21.312397003173828 L3.7092113494873047 20.66790008544922 C2.9937291145324707 20.766225814819336 2.1763505935668945 21.152048110961914 1.8638086318969727 21.803123474121094 L1.8638086318969727 24.446792602539062 L2.559511184692383 24.446792602539062 L2.559511184692383 22.645278930664062"></path>
<path fill="none" stroke="black" stroke-width=".3" stroke-opacity="1.0"  filling="0" d="M10.534562110900879 23.05538558959961 L10.534562110900879 23.05538558959961 C10.77954387664795 22.46759605407715 11.46216869354248 22.06471824645996 12.087052345275879 21.942108154296875 L12.087052345275879 22.58660888671875 C11.801456451416016 22.759937286376953 11.515860557556152 22.933263778686523 11.230264663696289 23.106592178344727 L11.230264663696289 24.446792602539062 L10.534562110900879 24.446792602539062 L10.534562110900879 23.05538558959961"></path>
<path fill="none" stroke="black" stroke-width=".3" stroke-opacity="1.0"  filling="0" d="M4.683194160461426 23.22378921508789 L4.683194160461426 23.22378921508789 C4.902903079986572 22.98701286315918 5.019431114196777 22.52227020263672 5.342320919036865 22.513458251953125 C5.661542892456055 22.504745483398438 6.023393154144287 22.867874145507812 6.023393154144287 23.187213897705078 C6.023393154144287 23.52056121826172 5.675544738769531 23.910396575927734 5.342320919036865 23.919490814208984 C5.022987365722656 23.928205490112305 4.902903079986572 23.455690383911133 4.683194160461426 23.22378921508789 L4.683194160461426 23.22378921508789"></path>
<path fill="none" stroke="black" stroke-width=".3" stroke-opacity="1.0"  filling="0" d="M20.259765625 23.22378921508789 L20.259765625 23.22378921508789 C20.479475021362305 22.98701286315918 20.595958709716797 22.520509719848633 20.91889190673828 22.513458251953125 C21.23987579345703 22.506450653076172 21.59996795654297 22.87346839904785 21.59996795654297 23.194528579711914 C21.59996795654297 23.52609634399414 21.250381469726562 23.912254333496094 20.91889190673828 23.919490814208984 C20.599515914916992 23.926464080810547 20.479475021362305 23.455690383911133 20.259765625 23.22378921508789 L20.259765625 23.22378921508789"></path>
<path fill="none" stroke="black" stroke-width=".3" stroke-opacity="1.0"  filling="0" d="M9.860804557800293 23.311721801757812 L9.860804557800293 23.311721801757812 C9.450697898864746 23.71202278137207 9.203572273254395 24.51262664794922 8.630485534667969 24.51262664794922 C8.057398796081543 24.51262664794922 7.810272693634033 23.71202278137207 7.4001665115356445 23.311721801757812 L7.4001665115356445 21.978839874267578 L8.095869064331055 21.978839874267578 L8.095869064331055 23.23110580444336 C8.27407455444336 23.448375701904297 8.349480628967285 23.882915496826172 8.630484580993652 23.882915496826172 C8.911457061767578 23.882915496826172 8.986794471740723 23.448375701904297 9.164949417114258 23.23110580444336 L9.164949417114258 21.978839874267578 L9.860803604125977 21.978839874267578 L9.860803604125977 23.311723709106445"></path>
<path fill="none" stroke="black" stroke-width=".3" stroke-opacity="1.0"  filling="0" d="M14.89912223815918 24.20508575439453 L14.89912223815918 24.20508575439453 C14.572022438049316 24.307600021362305 14.260523796081543 24.520286560058594 13.917821884155273 24.51262664794922 C11.774934768676758 24.46473503112793 12.551586151123047 21.448646545410156 13.771368026733398 21.920166015625 C14.291448593139648 22.1212100982666 14.5671968460083 22.70136260986328 14.965110778808594 23.091960906982422 L13.251382827758789 23.633892059326172 C13.665426254272461 23.815872192382812 14.175335884094238 23.844655990600586 14.60621166229248 23.707199096679688 L14.899124145507812 24.20508575439453"></path>
<path fill="none" stroke="black" stroke-width=".3" stroke-opacity="1.0"  filling="0" d="M19.67287826538086 25.610971450805664 L19.67287826538086 27.208877563476562 L19.44930648803711 27.208877563476562 L19.67287826538086 25.610971450805664"></path></svg>