<svg xmlns="http://www.w3.org/2000/svg" viewBox="0.0 0.0 24.0 24.0" height="200px" width="200px"><path fill="none" stroke="black" stroke-width=".3" stroke-opacity="1.0"  filling="0" d="M1.4434680938720703 10.087991714477539 L5.048060894012451 10.087991714477539 C5.091042518615723 10.130470275878906 5.134023666381836 10.17294979095459 5.177005290985107 10.215428352355957 L5.177005290985107 10.725358963012695 C5.134023666381836 10.767837524414062 5.091042518615723 10.810317039489746 5.048060894012451 10.852795600891113 L2.473330497741699 10.852795600891113 C2.4304094314575195 10.89527416229248 2.38748836517334 10.937752723693848 2.34456729888916 10.980231285095215 L2.34456729888916 11.490161895751953 C2.38748836517334 11.53264045715332 2.4304094314575195 11.575119972229004 2.473330497741699 11.617598533630371 L4.790731430053711 11.617598533630371 C4.833652496337891 11.660077095031738 4.87657356262207 11.702555656433105 4.91949462890625 11.745034217834473 L4.91949462890625 12.254965782165527 C4.87657356262207 12.297381401062012 4.833652496337891 12.339797019958496 4.790731430053711 12.38221263885498 L2.473330497741699 12.38221263885498 C2.4304094314575195 12.42475414276123 2.38748836517334 12.467296600341797 2.34456729888916 12.509838104248047 L2.34456729888916 13.784383773803711 C2.3016517162323 13.826925277709961 2.2587358951568604 13.869466781616211 2.2158203125 13.912008285522461 L1.4434680938720703 13.912008285522461 C1.4005523920059204 13.869466781616211 1.35763680934906 13.826925277709961 1.3147211074829102 13.784383773803711 L1.3147211074829102 10.215428352355957 C1.35763680934906 10.17294979095459 1.4005523920059204 10.130470275878906 1.4434680938720703 10.087991714477539 L1.4434680938720703 10.087991714477539"></path>
<path fill="none" stroke="black" stroke-width=".3" stroke-opacity="1.0"  filling="0" d="M5.563082695007324 10.087991714477539 L9.42536735534668 10.087991714477539 C9.468222618103027 10.130470275878906 9.511078834533691 10.17294979095459 9.553934097290039 10.215428352355957 L9.553934097290039 10.725358963012695 C9.511078834533691 10.767837524414062 9.468222618103027 10.810317039489746 9.42536735534668 10.852795600891113 L6.592929840087891 10.852795600891113 C6.550014019012451 10.89527416229248 6.5070977210998535 10.937752723693848 6.464181900024414 10.980231285095215 L6.464181900024414 11.490161895751953 C6.5070977210998535 11.53264045715332 6.550014019012451 11.575119972229004 6.592929840087891 11.617598533630371 L9.167856216430664 11.617598533630371 C9.210772514343262 11.660077095031738 9.253687858581543 11.702555656433105 9.29660415649414 11.745034217834473 L9.29660415649414 12.254965782165527 C9.253687858581543 12.297381401062012 9.210772514343262 12.339797019958496 9.167856216430664 12.38221263885498 L6.592929840087891 12.38221263885498 C6.550014019012451 12.42475414276123 6.5070977210998535 12.467296600341797 6.464181900024414 12.509838104248047 L6.464181900024414 13.019768714904785 C6.5070977210998535 13.062247276306152 6.550014019012451 13.10472583770752 6.592929840087891 13.147204399108887 L9.42536735534668 13.147204399108887 C9.468222618103027 13.189620018005371 9.511078834533691 13.232036590576172 9.553934097290039 13.274452209472656 L9.553934097290039 13.784383773803711 C9.511078834533691 13.826925277709961 9.468222618103027 13.869466781616211 9.42536735534668 13.912008285522461 L5.563082695007324 13.912008285522461 C5.5201616287231445 13.869466781616211 5.477241039276123 13.826925277709961 5.434319972991943 13.784383773803711 L5.434319972991943 10.215428352355957 C5.477241039276123 10.17294979095459 5.5201616287231445 10.130470275878906 5.563082695007324 10.087991714477539 L5.563082695007324 10.087991714477539"></path>
<path fill="none" stroke="black" stroke-width=".3" stroke-opacity="1.0"  filling="0" d="M10.583780288696289 10.087991714477539 L13.158708572387695 10.087991714477539 C13.416152954101562 10.342926025390625 13.673598289489746 10.597861289978027 13.931042671203613 10.852795600891113 L13.931042671203613 10.980231285095215 C13.888187408447266 11.022709846496582 13.845332145690918 11.065187454223633 13.80247688293457 11.107666015625 L13.02994441986084 11.107666015625 C12.944169998168945 11.0226469039917 12.858332633972168 10.937689781188965 12.77243423461914 10.852795600891113 L11.098801612854004 10.852795600891113 C11.012965202331543 10.937752723693848 10.927127838134766 11.022708892822266 10.841291427612305 11.107666015625 L10.841291427612305 11.362727165222168 C10.927127838134766 11.447684288024902 11.012965202331543 11.532641410827637 11.098801612854004 11.617598533630371 L13.158708572387695 11.617598533630371 C13.416152954101562 11.872469902038574 13.673598289489746 12.127341270446777 13.931042671203613 12.38221263885498 L13.931042671203613 13.147204399108887 C13.673598289489746 13.402138710021973 13.416152954101562 13.657073974609375 13.158708572387695 13.912008285522461 L10.583780288696289 13.912008285522461 C10.326334953308105 13.657073974609375 10.068889617919922 13.402138710021973 9.811444282531738 13.147204399108887 L9.811444282531738 13.019768714904785 C9.854360580444336 12.977227210998535 9.897275924682617 12.934686660766602 9.940192222595215 12.892145156860352 L10.712724685668945 12.892145156860352 C10.798437118530273 12.977229118347168 10.8842134475708 13.062249183654785 10.970053672790527 13.147204399108887 L12.643686294555664 13.147204399108887 C12.729583740234375 13.06218433380127 12.81548023223877 12.977165222167969 12.90137767791748 12.892145156860352 L12.90137767791748 12.637272834777832 C12.81548023223877 12.552252769470215 12.729583740234375 12.467232704162598 12.643686294555664 12.38221263885498 L10.583780288696289 12.38221263885498 C10.326334953308105 12.127341270446777 10.068889617919922 11.872469902038574 9.811444282531738 11.617598533630371 L9.811444282531738 10.852795600891113 C10.068889617919922 10.597861289978027 10.326334953308105 10.342926025390625 10.583780288696289 10.087991714477539 L10.583780288696289 10.087991714477539"></path>
<path fill="none" stroke="black" stroke-width=".3" stroke-opacity="1.0"  filling="0" d="M14.317498207092285 10.087991714477539 L18.179601669311523 10.087991714477539 C18.222457885742188 10.130470275878906 18.26531410217285 10.17294979095459 18.308170318603516 10.215428352355957 L18.308170318603516 10.725358963012695 C18.26531410217285 10.767837524414062 18.222457885742188 10.810317039489746 18.179601669311523 10.852795600891113 L16.892047882080078 10.852795600891113 C16.849191665649414 10.89527416229248 16.806337356567383 10.937752723693848 16.76348114013672 10.980231285095215 L16.76348114013672 13.784383773803711 C16.72056007385254 13.826925277709961 16.67763900756836 13.869466781616211 16.63471794128418 13.912008285522461 L15.86218547821045 13.912008285522461 C15.819269180297852 13.869466781616211 15.77635383605957 13.826925277709961 15.733437538146973 13.784383773803711 L15.733437538146973 10.980231285095215 C15.69051742553711 10.937752723693848 15.64759635925293 10.89527416229248 15.604676246643066 10.852795600891113 L14.317498207092285 10.852795600891113 C14.274517059326172 10.810317039489746 14.231535911560059 10.767837524414062 14.188554763793945 10.725358963012695 L14.188554763793945 10.215428352355957 C14.231535911560059 10.17294979095459 14.274517059326172 10.130470275878906 14.317498207092285 10.087991714477539 L14.317498207092285 10.087991714477539"></path>
<path fill="none" stroke="black" stroke-width=".3" stroke-opacity="1.0"  filling="0" d="M19.338211059570312 10.087991714477539 L21.91312026977539 10.087991714477539 C22.170507431030273 10.342926025390625 22.427892684936523 10.597861289978027 22.685279846191406 10.852795600891113 L22.685279846191406 13.147204399108887 C22.427892684936523 13.402138710021973 22.170507431030273 13.657073974609375 21.91312026977539 13.912008285522461 L19.338211059570312 13.912008285522461 C19.080699920654297 13.657073974609375 18.82318878173828 13.402138710021973 18.565677642822266 13.147204399108887 L18.565677642822266 10.852795600891113 C18.82318878173828 10.597861289978027 19.080699920654297 10.342926025390625 19.338211059570312 10.087991714477539 L19.338211059570312 10.087991714477539"></path>
<path fill="none" stroke="black" stroke-width=".3" stroke-opacity="1.0"  filling="0" d="M19.853233337402344 13.147204399108887 L19.853233337402344 13.147204399108887 C19.767396926879883 13.06218433380127 19.68155860900879 12.977165222167969 19.595722198486328 12.892145156860352 L19.595722198486328 11.107666015625 C19.68155860900879 11.022708892822266 19.767396926879883 10.937752723693848 19.853233337402344 10.852795600891113 L21.398101806640625 10.852795600891113 C21.483938217163086 10.937752723693848 21.56977653503418 11.022708892822266 21.65561294555664 11.107666015625 L21.65561294555664 12.892145156860352 C21.56977653503418 12.977165222167969 21.483938217163086 13.06218433380127 21.398101806640625 13.147204399108887 L19.853233337402344 13.147204399108887"></path></svg>