<svg xmlns="http://www.w3.org/2000/svg" viewBox="0.0 0.0 24.0 24.0" height="200px" width="200px"><path fill="none" stroke="black" stroke-width=".3" stroke-opacity="1.0"  filling="0" d="M1.2000007629394531 6.642411231994629 L1.4943475723266602 6.642411231994629 L1.4943475723266602 6.999919414520264 L1.2000007629394531 6.999919414520264 L1.2000007629394531 6.642411231994629"></path>
<path fill="none" stroke="black" stroke-width=".3" stroke-opacity="1.0"  filling="0" d="M1.2000007629394531 6.642411231994629 L1.4155988693237305 6.642411231994629 L1.263566017150879 6.999919414520264 L1.2000007629394531 6.642411231994629"></path>
<path fill="none" stroke="black" stroke-width=".3" stroke-opacity="1.0"  filling="0" d="M1.2000007629394531 6.642613410949707 L1.430781364440918 6.999919414520264 L1.2000007629394531 6.642613410949707"></path>
<path fill="none" stroke="black" stroke-width=".3" stroke-opacity="1.0"  filling="0" d="M1.2000007629394531 6.642613410949707 L1.4457616806030273 6.642613410949707 L1.4368953704833984 6.999919414520264 L1.2000007629394531 6.642613410949707"></path>
<path fill="none" stroke="black" stroke-width=".3" stroke-opacity="1.0"  filling="0" d="M1.2000007629394531 6.644030570983887 L1.4943475723266602 6.644030570983887 L1.4943475723266602 6.999919414520264 L1.2000007629394531 6.999919414520264 L1.2000007629394531 6.644030570983887"></path>
<path fill="none" stroke="black" stroke-width=".3" stroke-opacity="1.0"  filling="0" d="M1.2000007629394531 6.644030570983887 L1.4155988693237305 6.644030570983887 L1.263566017150879 6.999919414520264 L1.2000007629394531 6.644030570983887"></path>
<path fill="none" stroke="black" stroke-width=".3" stroke-opacity="1.0"  filling="0" d="M1.2000007629394531 6.644030570983887 L1.4457616806030273 6.644030570983887 L1.4368553161621094 6.999919414520264 L1.2000007629394531 6.644030570983887"></path>
<path fill="none" stroke="black" stroke-width=".3" stroke-opacity="1.0"  filling="0" d="M1.2002029418945312 6.644030570983887 L1.2647809982299805 6.918943405151367 L1.5151987075805664 6.644030570983887 L1.5151987075805664 6.999919414520264 L1.4506206512451172 6.733509063720703 L1.2000007629394531 6.999919414520264 L1.2002029418945312 6.644030570983887"></path>
<path fill="none" stroke="black" stroke-width=".3" stroke-opacity="1.0"  filling="0" d="M1.1135578155517578 6.7084059715271 L1.1135578155517578 6.7084059715271 C1.3601669073104858 6.74335241317749 0.9910862445831299 7.161419868469238 1.2000007629394531 6.999919414520264 L1.241499900817871 7.045468807220459 C0.7888493537902832 7.312177658081055 1.318310260772705 6.570399761199951 1.0362262725830078 6.801933765411377 L0.990880012512207 6.759421348571777 C1.027180552482605 6.73405122756958 1.0700480937957764 6.716669082641602 1.1135578155517578 6.7084059715271 L1.1135578155517578 6.7084059715271"></path>
<path fill="none" stroke="black" stroke-width=".3" stroke-opacity="1.0"  filling="0" d="M1.1135578155517578 6.709418773651123 L1.1135578155517578 6.709418773651123 C1.3608601093292236 6.7444586753845215 0.9902295470237732 7.1605963706970215 1.2000007629394531 6.999919414520264 L1.241297721862793 7.044658660888672 C0.789436936378479 7.310901165008545 1.3183009624481201 6.570812225341797 1.0362262725830078 6.802338600158691 L0.990880012512207 6.760028839111328 C1.0272014141082764 6.734778881072998 1.070075273513794 6.717547416687012 1.1135578155517578 6.709418773651123 L1.1135578155517578 6.709418773651123"></path>
<path fill="none" stroke="black" stroke-width=".3" stroke-opacity="1.0"  filling="0" d="M1.1346521377563477 6.71184778213501 L1.1346521377563477 6.71184778213501 C1.174061894416809 6.720723628997803 1.2127372026443481 6.7391037940979 1.2433223724365234 6.765494346618652 L1.1694316864013672 6.906392574310303 C1.4466757774353027 7.0614914894104 0.9026191234588623 7.1688361167907715 1.0994272232055664 6.916716575622559 L1.0994272232055664 6.916716575622559 C0.9860541820526123 6.853984355926514 1.0017828941345215 6.731245517730713 1.1346521377563477 6.71184778213501 L1.1346521377563477 6.71184778213501"></path>
<path fill="none" stroke="black" stroke-width=".3" stroke-opacity="1.0"  filling="0" d="M1.1153802871704102 6.717313289642334 L1.1153802871704102 6.717313289642334 C1.1650054454803467 6.727438449859619 1.2141920328140259 6.748363018035889 1.2538490295410156 6.779867172241211 L1.202834129333496 6.815699577331543 C0.9511609077453613 6.605255126953125 0.9416234493255615 7.195827484130859 1.2000007629394531 6.999919414520264 L1.2483835220336914 7.038180828094482 C1.0211961269378662 7.252841472625732 0.7422700524330139 6.785065174102783 1.1153802871704102 6.717313289642334 L1.1153802871704102 6.717313289642334"></path>
<path fill="none" stroke="black" stroke-width=".3" stroke-opacity="1.0"  filling="0" d="M1.1155834197998047 6.718326091766357 L1.1155834197998047 6.718326091766357 C1.165181040763855 6.728446006774902 1.2143489122390747 6.7492756843566895 1.2540512084960938 6.780677318572998 L1.2030372619628906 6.8163065910339355 C0.9513595104217529 6.605867385864258 0.94217848777771 7.195406436920166 1.2000007629394531 6.999919414520264 L1.2483835220336914 7.037978172302246 C1.0209263563156128 7.2511091232299805 0.742952823638916 6.785006999969482 1.1155834197998047 6.718326091766357 L1.1155834197998047 6.718326091766357"></path>
<path fill="none" stroke="black" stroke-width=".3" stroke-opacity="1.0"  filling="0" d="M1.1358270645141602 6.752336025238037 L1.1358270645141602 6.752336025238037 C1.1642842292785645 6.7597479820251465 1.1913340091705322 6.776104927062988 1.2117414474487305 6.797277450561523 L1.1267175674438477 6.885945796966553 C1.062253475189209 6.843282222747803 1.0457873344421387 6.76785945892334 1.1358270645141602 6.752336025238037 L1.1358270645141602 6.752336025238037"></path>
<path fill="none" stroke="black" stroke-width=".3" stroke-opacity="1.0"  filling="0" d="M1.2000007629394531 6.775819301605225 L1.3678627014160156 6.999919414520264 L1.2000007629394531 6.775819301605225"></path>
<path fill="none" stroke="black" stroke-width=".3" stroke-opacity="1.0"  filling="0" d="M1.1479730606079102 6.8059821128845215 L1.1479730606079102 6.8059821128845215 C1.2642379999160767 6.823022365570068 1.0649100542068481 7.1188554763793945 1.2000007629394531 6.999919414520264 L1.2178153991699219 7.014130592346191 C0.9732233285903931 7.2073493003845215 1.278459906578064 6.676092624664307 1.0971603393554688 6.8537983894348145 L1.077524185180664 6.839182376861572 C1.0990391969680786 6.8167314529418945 1.1171764135360718 6.8091230392456055 1.1479730606079102 6.8059821128845215 L1.1479730606079102 6.8059821128845215"></path>
<path fill="none" stroke="black" stroke-width=".3" stroke-opacity="1.0"  filling="0" d="M1.2998027801513672 6.8754191398620605 L1.2621498107910156 6.982104778289795 C1.3508738279342651 7.003892421722412 1.3235490322113037 7.0911712646484375 1.2429580688476562 7.099722385406494 L1.2998027801513672 6.8754191398620605"></path>
<path fill="none" stroke="black" stroke-width=".3" stroke-opacity="1.0"  filling="0" d="M1.2998437881469727 6.8754191398620605 L1.2621498107910156 6.982104778289795 C1.350894808769226 7.003897666931152 1.3235596418380737 7.091170310974121 1.2429580688476562 7.099722385406494 L1.2998437881469727 6.8754191398620605"></path>
<path fill="none" stroke="black" stroke-width=".3" stroke-opacity="1.0"  filling="0" d="M1.1771650314331055 6.876430988311768 L1.3396835327148438 7.100532054901123 L1.1771650314331055 6.876430988311768"></path>
<path fill="none" stroke="black" stroke-width=".3" stroke-opacity="1.0"  filling="0" d="M1.2000007629394531 6.942628860473633 L1.4730911254882812 6.942628860473633 L1.4700555801391602 7.298518180847168 L1.2030372619628906 7.298518180847168 L1.2000007629394531 6.942628860473633"></path>
<path fill="none" stroke="black" stroke-width=".3" stroke-opacity="1.0"  filling="0" d="M1.0892658233642578 6.9612531661987305 L1.3103294372558594 7.185354709625244 L1.0892658233642578 6.9612531661987305"></path>
<path fill="none" stroke="black" stroke-width=".3" stroke-opacity="1.0"  filling="0" d="M1.0410852432250977 6.96675968170166 L1.2234830856323242 7.190860748291016 L1.0410852432250977 6.96675968170166"></path>
<path fill="none" stroke="black" stroke-width=".3" stroke-opacity="1.0"  filling="0" d="M1.1878547668457031 6.970404148101807 L1.2977781295776367 7.194504737854004 L1.1878547668457031 6.970404148101807"></path>
<path fill="none" stroke="black" stroke-width=".3" stroke-opacity="1.0"  filling="0" d="M1.1773271560668945 6.979675769805908 L1.3162002563476562 7.203775882720947 L1.1773271560668945 6.979675769805908"></path>
<path fill="none" stroke="black" stroke-width=".3" stroke-opacity="1.0"  filling="0" d="M1.1773271560668945 6.979675769805908 L1.3162002563476562 7.203775882720947 L1.1773271560668945 6.979675769805908"></path>
<path fill="none" stroke="black" stroke-width=".3" stroke-opacity="1.0"  filling="0" d="M1.1773271560668945 6.980323314666748 L1.2437267303466797 6.980323314666748 C1.3199191093444824 6.989980220794678 1.365104079246521 7.056980133056641 1.2765226364135742 7.09854793548584 L1.2765226364135742 7.099114894866943 C1.3451783657073975 7.139925003051758 1.3111854791641235 7.197434425354004 1.2439289093017578 7.2044243812561035 L1.1773271560668945 6.980323314666748"></path>
<path fill="none" stroke="black" stroke-width=".3" stroke-opacity="1.0"  filling="0" d="M1.1997976303100586 6.999919414520264 L1.2423105239868164 6.999919414520264 C1.3151479959487915 7.007580757141113 1.3228830099105835 7.067971706390381 1.2463579177856445 7.087575912475586 L1.1997976303100586 6.999919414520264"></path>
<path fill="none" stroke="black" stroke-width=".3" stroke-opacity="1.0"  filling="0" d="M1.1997976303100586 6.999919414520264 L1.239516258239746 6.999919414520264 C1.310754418373108 7.0165534019470215 1.3113476037979126 7.073025226593018 1.240285873413086 7.079883575439453 L1.1997976303100586 6.999919414520264"></path>
<path fill="none" stroke="black" stroke-width=".3" stroke-opacity="1.0"  filling="0" d="M1.1997976303100586 6.999919414520264 L1.239516258239746 6.999919414520264 C1.3107497692108154 7.016551971435547 1.311340093612671 7.073026180267334 1.240285873413086 7.079883575439453 L1.1997976303100586 6.999919414520264"></path>
<path fill="none" stroke="black" stroke-width=".3" stroke-opacity="1.0"  filling="0" d="M1.2000007629394531 6.999919414520264 L4.069381237030029 6.999919414520264 L4.069381237030029 8.322661399841309 L1.2000007629394531 8.322661399841309 L1.2000007629394531 6.999919414520264"></path>
<path fill="none" stroke="black" stroke-width=".3" stroke-opacity="1.0"  filling="0" d="M1.2000007629394531 6.999919414520264 L4.069381237030029 6.999919414520264 L4.069381237030029 8.322661399841309 L1.2000007629394531 8.322661399841309 L1.2000007629394531 6.999919414520264"></path>
<path fill="none" stroke="black" stroke-width=".3" stroke-opacity="1.0"  filling="0" d="M1.2000007629394531 6.999919414520264 L4.069219589233398 6.999919414520264 L4.069219589233398 8.32249927520752 L1.2000007629394531 8.32249927520752 L1.2000007629394531 6.999919414520264"></path>
<path fill="none" stroke="black" stroke-width=".3" stroke-opacity="1.0"  filling="0" d="M1.2000007629394531 6.999919414520264 L1.2000007629394531 7.031905174255371 C0.24705278873443604 7.051693916320801 -0.7059130668640137 7.070644378662109 -1.6588945388793945 7.088749885559082 L-1.6588945388793945 7.056562423706055 C-0.7059118747711182 7.0385918617248535 0.2470541000366211 7.019708633422852 1.2000007629394531 6.999919414520264 L1.2000007629394531 6.999919414520264"></path>
<path fill="none" stroke="black" stroke-width=".3" stroke-opacity="1.0"  filling="0" d="M1.2000007629394531 6.999919414520264 L1.2000007629394531 6.999919414520264 C1.1197209358215332 7.476383209228516 1.1197917461395264 6.523881435394287 1.2000007629394531 6.999919414520264 L1.2000007629394531 6.999919414520264"></path>
<path fill="none" stroke="black" stroke-width=".3" stroke-opacity="1.0"  filling="0" d="M1.2000007629394531 6.999919414520264 L1.2000007629394531 6.999919414520264 C1.2574071884155273 7.012018203735352 1.2768052816390991 7.030830383300781 1.284012794494629 7.089195728302002 L1.2611370086669922 7.091665267944336 C1.2499557733535767 6.99999475479126 1.1500418186187744 6.999992370605469 1.1388635635375977 7.091665267944336 L1.115987777709961 7.089195728302002 C1.123193621635437 7.030828952789307 1.1425939798355103 7.012017726898193 1.2000007629394531 6.999919414520264 L1.2000007629394531 6.999919414520264"></path>
<path fill="none" stroke="black" stroke-width=".3" stroke-opacity="1.0"  filling="0" d="M1.2000007629394531 6.999919414520264 L1.2000007629394531 6.999919414520264 C1.1626918315887451 7.094973087310791 1.071089506149292 7.007311820983887 1.1417388916015625 6.935746192932129 L1.1417388916015625 6.935746192932129 C1.1731456518173218 6.951889991760254 1.191907286643982 6.964513778686523 1.2000007629394531 6.999919414520264 L1.2000007629394531 6.999919414520264"></path>
<path fill="none" stroke="black" stroke-width=".3" stroke-opacity="1.0"  filling="0" d="M1.224090576171875 6.999919414520264 L1.224090576171875 6.999919414520264 C1.1129579544067383 7.588422775268555 1.112964391708374 6.411456108093262 1.224090576171875 6.999919414520264 L1.224090576171875 6.999919414520264"></path>
<path fill="none" stroke="black" stroke-width=".3" stroke-opacity="1.0"  filling="0" d="M2.013808250427246 7.0057902336120605 L2.036684036254883 7.229891300201416 L2.013808250427246 7.0057902336120605"></path>
<path fill="none" stroke="black" stroke-width=".3" stroke-opacity="1.0"  filling="0" d="M1.2000007629394531 7.106200218200684 L1.2459535598754883 7.106200218200684 C1.3121159076690674 7.11362361907959 1.3014564514160156 7.178607940673828 1.2398796081542969 7.184585094451904 L1.2000007629394531 7.106200218200684"></path>
<path fill="none" stroke="black" stroke-width=".3" stroke-opacity="1.0"  filling="0" d="M2.9483108520507812 7.501767635345459 L3.0118770599365234 7.857656955718994 L2.9483108520507812 7.501767635345459"></path>
<path fill="none" stroke="black" stroke-width=".3" stroke-opacity="1.0"  filling="0" d="M1.4931325912475586 7.955880641937256 L1.5566987991333008 8.31338882446289 L1.4931325912475586 7.955880641937256"></path></svg>