<svg xmlns="http://www.w3.org/2000/svg" viewBox="0.0 0.0 24.0 24.0" height="200px" width="200px"><path fill="none" stroke="black" stroke-width=".3" stroke-opacity="1.0"  filling="0" d="M1.3689594268798828 9.976387023925781 L1.3689594268798828 9.976387023925781 C1.4278697967529297 10.016151428222656 1.4867801666259766 10.055915832519531 1.5456905364990234 10.095680236816406 L1.4569988250732422 10.095775604248047 C1.4299107789993286 10.059804916381836 1.3967818021774292 10.045018196105957 1.3770828247070312 10.095680236816406 L1.25872802734375 10.095599174499512 C1.2450891733169556 10.070793151855469 1.2314504384994507 10.045988082885742 1.2178115844726562 10.0211820602417 L1.2463054656982422 10.0211820602417 C1.2871900796890259 10.006250381469727 1.3280748128890991 9.991318702697754 1.3689594268798828 9.976387023925781 L1.3689594268798828 9.976387023925781"></path>
<path fill="none" stroke="black" stroke-width=".3" stroke-opacity="1.0"  filling="0" d="M2.6072235107421875 10.013479232788086 L2.6072235107421875 10.013479232788086 C2.6221189498901367 10.028379440307617 2.637014389038086 10.043279647827148 2.651909828186035 10.05817985534668 L2.6320419311523438 10.059826850891113 C2.6214475631713867 10.047117233276367 2.592998743057251 10.047118186950684 2.582404136657715 10.059826850891113 L2.56253719329834 10.05817985534668 C2.577432632446289 10.043279647827148 2.5923280715942383 10.028379440307617 2.6072235107421875 10.013479232788086 L2.6072235107421875 10.013479232788086"></path>
<path fill="none" stroke="black" stroke-width=".3" stroke-opacity="1.0"  filling="0" d="M2.100656509399414 10.013493537902832 L2.100656509399414 10.013493537902832 C2.122025728225708 10.037525177001953 2.1546425819396973 10.063709259033203 2.1511802673339844 10.095680236816406 L2.1299123764038086 10.095667839050293 C2.140375852584839 10.017365455627441 2.0609569549560547 10.017374992370605 2.0714149475097656 10.095680236816406 L2.05014705657959 10.095735549926758 C2.046710252761841 10.063748359680176 2.079284906387329 10.037540435791016 2.100656509399414 10.013493537902832 L2.100656509399414 10.013493537902832"></path>
<path fill="none" stroke="black" stroke-width=".3" stroke-opacity="1.0"  filling="0" d="M3.2987918853759766 10.013493537902832 L3.2987918853759766 10.013493537902832 C3.31147837638855 10.015149116516113 3.324164628982544 10.016804695129395 3.336851119995117 10.018460273742676 L3.336851119995117 10.018460273742676 C3.337409019470215 10.01900863647461 3.3379669189453125 10.01955795288086 3.33852481842041 10.020106315612793 L3.33852481842041 10.081353187561035 C3.3379669189453125 10.081901550292969 3.337409019470215 10.082450866699219 3.336851119995117 10.082999229431152 L3.293839454650879 10.082999229431152 C3.2932863235473633 10.082450866699219 3.2927331924438477 10.081901550292969 3.292180061340332 10.081353187561035 L3.292180061340332 10.081353187561035 C3.291562795639038 10.076424598693848 3.2886528968811035 10.069950103759766 3.292180061340332 10.066452980041504 L3.318659782409668 10.031196594238281 C3.279585838317871 10.028921127319336 3.2629263401031494 10.06003475189209 3.268244743347168 10.095680236816406 L3.246405601501465 10.095612525939941 C3.24322509765625 10.063300132751465 3.276852607727051 10.03742790222168 3.2987918853759766 10.013493537902832 L3.2987918853759766 10.013493537902832"></path>
<path fill="none" stroke="black" stroke-width=".3" stroke-opacity="1.0"  filling="0" d="M1.6560020446777344 10.015153884887695 L1.6733789443969727 10.015153884887695 C1.673927664756775 10.015702247619629 1.6744762659072876 10.016251564025879 1.6750249862670898 10.016799926757812 L1.7428836822509766 10.016799926757812 C1.743432641029358 10.016251564025879 1.7439817190170288 10.015702247619629 1.7445306777954102 10.015153884887695 L1.761906623840332 10.015153884887695 C1.7821236848831177 10.035196304321289 1.743607759475708 10.069084167480469 1.733454704284668 10.095680236816406 L1.6844415664672852 10.095748901367188 C1.6742929220199585 10.06912899017334 1.635776400566101 10.035216331481934 1.6560020446777344 10.015153884887695 L1.6560020446777344 10.015153884887695"></path>
<path fill="none" stroke="black" stroke-width=".3" stroke-opacity="1.0"  filling="0" d="M1.7857332229614258 10.015153884887695 L1.802292823791504 10.015153884887695 C1.8028415441513062 10.015702247619629 1.8033901453018188 10.016251564025879 1.803938865661621 10.016799926757812 L1.7840862274169922 10.016799926757812 C1.7846351861953735 10.016251564025879 1.7851842641830444 10.015702247619629 1.7857332229614258 10.015153884887695 L1.7857332229614258 10.015153884887695"></path>
<path fill="none" stroke="black" stroke-width=".3" stroke-opacity="1.0"  filling="0" d="M1.8400115966796875 10.015153884887695 L1.8565711975097656 10.015153884887695 C1.857120156288147 10.015702247619629 1.8576692342758179 10.016251564025879 1.8582181930541992 10.016799926757812 L1.869797706604004 10.066452980041504 C1.8753175735473633 10.062039375305176 1.8808374404907227 10.057626724243164 1.886357307434082 10.053213119506836 L1.9012441635131836 10.016799926757812 C1.9017972946166992 10.016251564025879 1.9023504257202148 10.015702247619629 1.9029035568237305 10.015153884887695 L1.9211101531982422 10.015153884887695 C1.9216636419296265 10.015702247619629 1.9222170114517212 10.016251564025879 1.9227705001831055 10.016799926757812 L1.9227705001831055 10.016799926757812 C1.915372610092163 10.034699440002441 1.9082775115966797 10.053107261657715 1.8971080780029297 10.068929672241211 L1.8971080780029297 10.068929672241211 C1.9039840698242188 10.07784652709961 1.9108600616455078 10.086763381958008 1.9177360534667969 10.095680236816406 L1.8978290557861328 10.095667839050293 C1.8901456594467163 10.091444969177246 1.8824621438980103 10.0872220993042 1.8747787475585938 10.082999229431152 L1.8383522033691406 10.016799926757812 C1.8389053344726562 10.016251564025879 1.8394584655761719 10.015702247619629 1.8400115966796875 10.015153884887695 L1.8400115966796875 10.015153884887695"></path>
<path fill="none" stroke="black" stroke-width=".3" stroke-opacity="1.0"  filling="0" d="M1.951059341430664 10.015153884887695 L1.9676198959350586 10.015153884887695 C1.9681686162948608 10.015702247619629 1.9687172174453735 10.016251564025879 1.9692659378051758 10.016799926757812 L1.985825538635254 10.059826850891113 C2.0001676082611084 10.071687698364258 2.014509439468384 10.083547592163086 2.0288515090942383 10.09540843963623 L2.0089855194091797 10.095735549926758 C2.0089855194091797 10.085675239562988 1.99359929561615 10.082770347595215 1.985825538635254 10.076385498046875 L1.9493989944458008 10.016799926757812 C1.949952483177185 10.016251564025879 1.9505058526992798 10.015702247619629 1.951059341430664 10.015153884887695 L1.951059341430664 10.015153884887695"></path>
<path fill="none" stroke="black" stroke-width=".3" stroke-opacity="1.0"  filling="0" d="M2.183741569519043 10.015153884887695 L2.2002878189086914 10.015153884887695 C2.200840950012207 10.015702247619629 2.2013940811157227 10.016251564025879 2.2019472122192383 10.016799926757812 L2.2135276794433594 10.066452980041504 C2.219043016433716 10.062039375305176 2.2245585918426514 10.057626724243164 2.230073928833008 10.053213119506836 L2.244974136352539 10.016799926757812 C2.2455227375030518 10.016251564025879 2.2460715770721436 10.015702247619629 2.2466201782226562 10.015153884887695 L2.264826774597168 10.015153884887695 C2.265375852584839 10.015702247619629 2.2659246921539307 10.016251564025879 2.2664737701416016 10.016799926757812 L2.2664737701416016 10.016799926757812 C2.2590880393981934 10.034700393676758 2.252005100250244 10.053110122680664 2.2408370971679688 10.068929672241211 L2.2408370971679688 10.068929672241211 C2.247708559036255 10.07784652709961 2.25458025932312 10.086763381958008 2.2614517211914062 10.095680236816406 L2.2415456771850586 10.095667839050293 C2.2338619232177734 10.091444969177246 2.2261781692504883 10.0872220993042 2.218494415283203 10.082999229431152 L2.182082176208496 10.016799926757812 C2.1826353073120117 10.016251564025879 2.1831884384155273 10.015702247619629 2.183741569519043 10.015153884887695 L2.183741569519043 10.015153884887695"></path>
<path fill="none" stroke="black" stroke-width=".3" stroke-opacity="1.0"  filling="0" d="M2.3167924880981445 10.015153884887695 L2.333338737487793 10.015153884887695 C2.3338921070098877 10.015702247619629 2.3344457149505615 10.016251564025879 2.3349990844726562 10.016799926757812 L2.3151464462280273 10.016799926757812 C2.31569504737854 10.016251564025879 2.316243886947632 10.015702247619629 2.3167924880981445 10.015153884887695 L2.3167924880981445 10.015153884887695"></path>
<path fill="none" stroke="black" stroke-width=".3" stroke-opacity="1.0"  filling="0" d="M2.4384260177612305 10.015153884887695 L2.4549732208251953 10.015153884887695 C2.455522298812866 10.015702247619629 2.456071138381958 10.016251564025879 2.456620216369629 10.016799926757812 L2.4367666244506836 10.016799926757812 C2.437319755554199 10.016251564025879 2.437872886657715 10.015702247619629 2.4384260177612305 10.015153884887695 L2.4384260177612305 10.015153884887695"></path>
<path fill="none" stroke="black" stroke-width=".3" stroke-opacity="1.0"  filling="0" d="M2.50131893157959 10.015153884887695 L2.5277843475341797 10.015153884887695 C2.5283381938934326 10.015702247619629 2.5288918018341064 10.016251564025879 2.5294456481933594 10.016799926757812 L2.499645233154297 10.016799926757812 C2.5002031326293945 10.016251564025879 2.500761032104492 10.015702247619629 2.50131893157959 10.015153884887695 L2.50131893157959 10.015153884887695"></path>
<path fill="none" stroke="black" stroke-width=".3" stroke-opacity="1.0"  filling="0" d="M2.6868247985839844 10.015153884887695 L2.703371047973633 10.015153884887695 C2.7039248943328857 10.015702247619629 2.7044785022735596 10.016251564025879 2.7050323486328125 10.016799926757812 L2.716610908508301 10.066452980041504 C2.7221267223358154 10.062039375305176 2.727642297744751 10.057626724243164 2.7331581115722656 10.053213119506836 L2.7480573654174805 10.016799926757812 C2.748610496520996 10.016251564025879 2.7491636276245117 10.015702247619629 2.7497167587280273 10.015153884887695 L2.7679100036621094 10.015153884887695 C2.7684590816497803 10.015702247619629 2.769007921218872 10.016251564025879 2.769556999206543 10.016799926757812 L2.769556999206543 10.016799926757812 C2.7621705532073975 10.03470230102539 2.7550861835479736 10.053115844726562 2.7439069747924805 10.068929672241211 L2.7439069747924805 10.068929672241211 C2.7507874965667725 10.07784652709961 2.7576677799224854 10.086763381958008 2.7645483016967773 10.095680236816406 L2.7446422576904297 10.095667839050293 C2.7369539737701416 10.091444969177246 2.7292659282684326 10.0872220993042 2.7215776443481445 10.082999229431152 L2.685152053833008 10.016799926757812 C2.6857097148895264 10.016251564025879 2.686267137527466 10.015702247619629 2.6868247985839844 10.015153884887695 L2.6868247985839844 10.015153884887695"></path>
<path fill="none" stroke="black" stroke-width=".3" stroke-opacity="1.0"  filling="0" d="M2.7978591918945312 10.015153884887695 L2.8144054412841797 10.015153884887695 C2.8149635791778564 10.015702247619629 2.8155219554901123 10.016251564025879 2.816080093383789 10.016799926757812 L2.7961997985839844 10.016799926757812 C2.7967529296875 10.016251564025879 2.7973060607910156 10.015702247619629 2.7978591918945312 10.015153884887695 L2.7978591918945312 10.015153884887695"></path>
<path fill="none" stroke="black" stroke-width=".3" stroke-opacity="1.0"  filling="0" d="M2.860751152038574 10.015153884887695 L2.8872318267822266 10.015153884887695 C2.8877804279327393 10.015702247619629 2.888329267501831 10.016251564025879 2.8888778686523438 10.016799926757812 L2.8590917587280273 10.016799926757812 C2.859644889831543 10.016251564025879 2.8601980209350586 10.015702247619629 2.860751152038574 10.015153884887695 L2.860751152038574 10.015153884887695"></path>
<path fill="none" stroke="black" stroke-width=".3" stroke-opacity="1.0"  filling="0" d="M2.9249496459960938 10.015153884887695 L2.9597015380859375 10.015153884887695 C2.9774699211120605 10.028471946716309 3.001821279525757 10.056241989135742 2.989516258239746 10.074726104736328 L2.989516258239746 10.074726104736328 C2.9938974380493164 10.081710815429688 2.9982786178588867 10.088695526123047 3.002659797668457 10.095680236816406 L2.982630729675293 10.095667839050293 C2.9749879837036133 10.091444969177246 2.9673452377319336 10.0872220993042 2.959702491760254 10.082999229431152 L2.92330265045166 10.016799926757812 C2.923851728439331 10.016251564025879 2.924400568008423 10.015702247619629 2.9249496459960938 10.015153884887695 L2.9249496459960938 10.015153884887695"></path>
<path fill="none" stroke="black" stroke-width=".3" stroke-opacity="1.0"  filling="0" d="M3.0366649627685547 10.015153884887695 L3.1061697006225586 10.015153884887695 C3.1067230701446533 10.015702247619629 3.107276678085327 10.016251564025879 3.107830047607422 10.016799926757812 L3.107830047607422 10.016799926757812 C3.108443260192871 10.021728515625 3.111327886581421 10.02817440032959 3.107830047607422 10.031700134277344 L3.102863311767578 10.066452980041504 C3.103411912918091 10.067001342773438 3.1039607524871826 10.067550659179688 3.1045093536376953 10.068099021911621 L3.1045093536376953 10.081353187561035 C3.1039607524871826 10.081901550292969 3.103411912918091 10.082450866699219 3.102863311767578 10.082999229431152 L3.0350046157836914 10.016799926757812 C3.035557985305786 10.016251564025879 3.03611159324646 10.015702247619629 3.0366649627685547 10.015153884887695 L3.0366649627685547 10.015153884887695"></path>
<path fill="none" stroke="black" stroke-width=".3" stroke-opacity="1.0"  filling="0" d="M3.1404333114624023 10.015153884887695 L3.1569652557373047 10.015153884887695 C3.1575183868408203 10.015702247619629 3.158071517944336 10.016251564025879 3.1586246490478516 10.016799926757812 L3.1702051162719727 10.066452980041504 C3.175720453262329 10.062039375305176 3.1812360286712646 10.057626724243164 3.186751365661621 10.053213119506836 L3.201650619506836 10.016799926757812 C3.2022039890289307 10.016251564025879 3.2027575969696045 10.015702247619629 3.203310966491699 10.015153884887695 L3.221517562866211 10.015153884887695 C3.222066640853882 10.015702247619629 3.2226154804229736 10.016251564025879 3.2231645584106445 10.016799926757812 L3.2231645584106445 10.016799926757812 C3.215772867202759 10.034699440002441 3.208683729171753 10.053109169006348 3.197514533996582 10.068929672241211 L3.197514533996582 10.068929672241211 C3.204385995864868 10.07784652709961 3.2112576961517334 10.086763381958008 3.2181291580200195 10.095680236816406 L3.1982221603393555 10.095667839050293 C3.1905386447906494 10.091444969177246 3.1828553676605225 10.0872220993042 3.1751718521118164 10.082999229431152 L3.1387720108032227 10.016799926757812 C3.1393258571624756 10.016251564025879 3.1398794651031494 10.015702247619629 3.1404333114624023 10.015153884887695 L3.1404333114624023 10.015153884887695"></path>
<path fill="none" stroke="black" stroke-width=".3" stroke-opacity="1.0"  filling="0" d="M2.959702491760254 10.066452980041504 L2.959702491760254 10.031700134277344 C2.969526529312134 10.03783893585205 2.969248056411743 10.059889793395996 2.959702491760254 10.066452980041504 L2.959702491760254 10.066452980041504"></path>
<path fill="none" stroke="black" stroke-width=".3" stroke-opacity="1.0"  filling="0" d="M1.1968564987182617 10.090564727783203 L1.1968564987182617 10.090564727783203 C1.1979045867919922 10.092269897460938 1.1989526748657227 10.093975067138672 1.2000007629394531 10.095680236816406 L1.1937541961669922 10.095653533935547 C1.1947883367538452 10.09395694732666 1.1958223581314087 10.09226131439209 1.1968564987182617 10.090564727783203 L1.1968564987182617 10.090564727783203"></path>
<path fill="none" stroke="black" stroke-width=".3" stroke-opacity="1.0"  filling="0" d="M-0.13322734832763672 10.094810485839844 L-0.08127498626708984 10.094810485839844 C-0.0807928740978241 10.097420692443848 -0.08027303218841553 10.100106239318848 -0.0805807113647461 10.102743148803711 L-0.08877277374267578 10.135141372680664 C-0.08827716112136841 10.137726783752441 -0.0877656415104866 10.14039421081543 -0.08807849884033203 10.143007278442383 L-0.08251380920410156 10.174357414245605 C-0.08203447610139847 10.177008628845215 -0.08150579780340195 10.17973804473877 -0.0818328857421875 10.182412147521973 L-0.13322734832763672 10.094810485839844"></path>
<path fill="none" stroke="black" stroke-width=".3" stroke-opacity="1.0"  filling="0" d="M-0.05578899383544922 10.094810485839844 L-0.05578899383544922 10.094810485839844 C-0.05429236218333244 10.094932556152344 -0.05279572680592537 10.09505558013916 -0.051299095153808594 10.09517765045166 L-0.04980182647705078 10.147632598876953 C-0.04987435042858124 10.1527099609375 -0.05001363530755043 10.15778923034668 -0.05030536651611328 10.162858963012695 L-0.05016899108886719 10.168615341186523 C-0.04950682446360588 10.166951179504395 -0.048844654113054276 10.16528606414795 -0.04818248748779297 10.16362190246582 L-0.04586982727050781 10.158437728881836 C-0.044849395751953125 10.15645980834961 -0.04382896423339844 10.154481887817383 -0.04280853271484375 10.152503967285156 L-0.009470939636230469 10.09517765045166 C-0.005731907207518816 10.094938278198242 -0.001969275763258338 10.094927787780762 0.0017690658569335938 10.09517765045166 L0.0022726058959960938 10.184223175048828 C-0.0007172077894210815 10.184870719909668 -0.0036068204790353775 10.184847831726074 -0.00659942626953125 10.184223175048828 L-0.008095741271972656 10.131767272949219 C-0.007968585006892681 10.126859664916992 -0.007841427810490131 10.121952056884766 -0.007714271545410156 10.117044448852539 L-0.012219429016113281 10.121466636657715 C-0.013257980346679688 10.12348461151123 -0.014296531677246094 10.125503540039062 -0.0153350830078125 10.127521514892578 L-0.048305511474609375 10.184223175048828 C-0.05214257910847664 10.184836387634277 -0.05582915246486664 10.184823036193848 -0.05966758728027344 10.184223175048828 L-0.06153106689453125 10.095680236816406 C-0.05971524491906166 10.095008850097656 -0.05771809071302414 10.094971656799316 -0.05578899383544922 10.094810485839844 L-0.05578899383544922 10.094810485839844"></path>
<path fill="none" stroke="black" stroke-width=".3" stroke-opacity="1.0"  filling="0" d="M0.05271434783935547 10.094810485839844 L0.05271434783935547 10.094810485839844 C0.05430157855153084 10.094932556152344 0.055888812988996506 10.09505558013916 0.057476043701171875 10.09517765045166 L0.08282756805419922 10.175350189208984 C0.08339386433362961 10.178065299987793 0.08339344710111618 10.180516242980957 0.08282756805419922 10.183229446411133 L0.022002220153808594 10.183093070983887 C0.02141294628381729 10.18039608001709 0.021393561735749245 10.177927017211914 0.022002220153808594 10.175228118896484 L0.04785633087158203 10.09517765045166 C0.049475669860839844 10.09505558013916 0.051095008850097656 10.094932556152344 0.05271434783935547 10.094810485839844 L0.05271434783935547 10.094810485839844"></path>
<path fill="none" stroke="black" stroke-width=".3" stroke-opacity="1.0"  filling="0" d="M0.18135547637939453 10.094810485839844 L0.18135547637939453 10.094810485839844 C0.18289311230182648 10.094932556152344 0.18443076312541962 10.09505558013916 0.18596839904785156 10.09517765045166 L0.20745468139648438 10.129889488220215 C0.24241852760314941 10.136186599731445 0.2424171268939972 10.178428649902344 0.20745468139648438 10.184725761413574 L0.1763629913330078 10.09517765045166 C0.17802715301513672 10.09505558013916 0.17969131469726562 10.094932556152344 0.18135547637939453 10.094810485839844 L0.18135547637939453 10.094810485839844"></path>
<path fill="none" stroke="black" stroke-width=".3" stroke-opacity="1.0"  filling="0" d="M0.24503803253173828 10.094810485839844 L0.24503803253173828 10.094810485839844 C0.24653911590576172 10.094932556152344 0.24804019927978516 10.09505558013916 0.2495412826538086 10.09517765045166 L0.3052349090576172 10.09517765045166 C0.30851370096206665 10.094923973083496 0.31182050704956055 10.094942092895508 0.31510066986083984 10.09517765045166 L0.2835044860839844 10.184223175048828 C0.27982109785079956 10.18481159210205 0.27631431818008423 10.184828758239746 0.2726325988769531 10.184223175048828 L0.24066925048828125 10.09517765045166 C0.2421255111694336 10.09505558013916 0.24358177185058594 10.094932556152344 0.24503803253173828 10.094810485839844 L0.24503803253173828 10.094810485839844"></path>
<path fill="none" stroke="black" stroke-width=".3" stroke-opacity="1.0"  filling="0" d="M0.33982372283935547 10.094810485839844 L0.33982372283935547 10.094810485839844 C0.341320663690567 10.094932556152344 0.34281763434410095 10.09505558013916 0.3443145751953125 10.09517765045166 L0.3458118438720703 10.147632598876953 C0.34573987126350403 10.1527099609375 0.3456041216850281 10.157788276672363 0.3453226089477539 10.162858963012695 L0.3454446792602539 10.168615341186523 C0.3461068570613861 10.166951179504395 0.3467690050601959 10.16528606414795 0.3474311828613281 10.16362190246582 L0.3497447967529297 10.158437728881836 C0.3507652282714844 10.15645980834961 0.35178565979003906 10.154481887817383 0.35280609130859375 10.152503967285156 L0.3861570358276367 10.09517765045166 C0.38989606499671936 10.094938278198242 0.39365869760513306 10.094927787780762 0.3973970413208008 10.09517765045166 L0.3978996276855469 10.184223175048828 C0.39491212368011475 10.184870719909668 0.392018586397171 10.18485164642334 0.38902854919433594 10.184223175048828 L0.3875312805175781 10.131767272949219 C0.3876536786556244 10.126859664916992 0.38777604699134827 10.121952056884766 0.38789844512939453 10.117044448852539 L0.3834075927734375 10.121466636657715 C0.3823646008968353 10.12348461151123 0.38132157921791077 10.125503540039062 0.3802785873413086 10.127521514892578 L0.3473091125488281 10.184223175048828 C0.3434741497039795 10.184839248657227 0.3397837281227112 10.184823036193848 0.33594703674316406 10.184223175048828 L0.33408164978027344 10.095680236816406 C0.33589988946914673 10.095015525817871 0.3378946781158447 10.094972610473633 0.33982372283935547 10.094810485839844 L0.33982372283935547 10.094810485839844"></path>
<path fill="none" stroke="black" stroke-width=".3" stroke-opacity="1.0"  filling="0" d="M0.42974090576171875 10.094810485839844 L0.42974090576171875 10.094810485839844 C0.4312378466129303 10.094932556152344 0.43273481726646423 10.09505558013916 0.4342317581176758 10.09517765045166 L0.4357280731201172 10.147632598876953 C0.4356555640697479 10.1527099609375 0.43551939725875854 10.157788276672363 0.4352378845214844 10.162858963012695 L0.4353609085083008 10.168615341186523 C0.43602752685546875 10.166951179504395 0.4366941452026367 10.16528606414795 0.4373607635498047 10.16362190246582 L0.43967342376708984 10.158437728881836 C0.44068971276283264 10.15645980834961 0.4417060315608978 10.154481887817383 0.4427223205566406 10.152503967285156 L0.4760723114013672 10.09517765045166 C0.47981134057044983 10.094938278198242 0.4835739731788635 10.094927787780762 0.48731231689453125 10.09517765045166 L0.48780250549316406 10.184223175048828 C0.4848204553127289 10.184874534606934 0.48192858695983887 10.184850692749023 0.4789438247680664 10.184223175048828 L0.477447509765625 10.131767272949219 C0.477569580078125 10.126859664916992 0.477691650390625 10.121952056884766 0.477813720703125 10.117044448852539 L0.4733238220214844 10.121466636657715 C0.47228527069091797 10.12348461151123 0.47124671936035156 10.125503540039062 0.47020816802978516 10.127521514892578 L0.4372377395629883 10.184223175048828 C0.43340155482292175 10.184836387634277 0.42971423268318176 10.184823036193848 0.4258766174316406 10.184223175048828 L0.4239845275878906 10.095680236816406 C0.42580702900886536 10.095013618469238 0.42780712246894836 10.094972610473633 0.42974090576171875 10.094810485839844 L0.42974090576171875 10.094810485839844"></path>
<path fill="none" stroke="black" stroke-width=".3" stroke-opacity="1.0"  filling="0" d="M0.5381345748901367 10.094810485839844 L0.5381345748901367 10.094810485839844 C0.5397132039070129 10.094932556152344 0.5412918925285339 10.09505558013916 0.5428705215454102 10.09517765045166 L0.5682201385498047 10.175350189208984 C0.5688102841377258 10.17806625366211 0.5688097476959229 10.18051528930664 0.5682201385498047 10.183229446411133 L0.5074100494384766 10.183093070983887 C0.5068411231040955 10.180395126342773 0.5068225860595703 10.177927017211914 0.5074100494384766 10.175228118896484 L0.5332632064819336 10.09517765045166 C0.5348870158195496 10.09505558013916 0.5365107655525208 10.094932556152344 0.5381345748901367 10.094810485839844 L0.5381345748901367 10.094810485839844"></path>
<path fill="none" stroke="black" stroke-width=".3" stroke-opacity="1.0"  filling="0" d="M0.6153020858764648 10.094810485839844 L0.6153020858764648 10.094810485839844 C0.6168031692504883 10.094932556152344 0.6183042526245117 10.09505558013916 0.6198053359985352 10.09517765045166 L0.6754989624023438 10.09517765045166 C0.6787777543067932 10.094923973083496 0.6820845603942871 10.094942092895508 0.6853647232055664 10.09517765045166 L0.6537685394287109 10.184223175048828 C0.650090217590332 10.184814453125 0.6465870141983032 10.18482780456543 0.6429100036621094 10.184223175048828 L0.6109333038330078 10.09517765045166 C0.6123895645141602 10.09505558013916 0.6138458251953125 10.094932556152344 0.6153020858764648 10.094810485839844 L0.6153020858764648 10.094810485839844"></path>
<path fill="none" stroke="black" stroke-width=".3" stroke-opacity="1.0"  filling="0" d="M0.704345703125 10.094810485839844 L0.7383098602294922 10.094810485839844 C0.7625867128372192 10.098694801330566 0.7765640616416931 10.125690460205078 0.7523117065429688 10.141006469726562 L0.7523117065429688 10.141006469726562 C0.7721789479255676 10.156929016113281 0.760068416595459 10.18078899383545 0.7378196716308594 10.184725761413574 L0.704345703125 10.094810485839844"></path>
<path fill="none" stroke="black" stroke-width=".3" stroke-opacity="1.0"  filling="0" d="M0.8736867904663086 10.094810485839844 L0.9256391525268555 10.094810485839844 C0.9261283278465271 10.097418785095215 0.9266567230224609 10.10011100769043 0.9263200759887695 10.102743148803711 L0.9181413650512695 10.135141372680664 C0.9186369776725769 10.137726783752441 0.9191485047340393 10.14039421081543 0.9188356399536133 10.143007278442383 L0.9243879318237305 10.174357414245605 C0.9248731136322021 10.177008628845215 0.9254083633422852 10.179737091064453 0.9250822067260742 10.182412147521973 L0.8736867904663086 10.094810485839844"></path>
<path fill="none" stroke="black" stroke-width=".3" stroke-opacity="1.0"  filling="0" d="M0.9454927444458008 10.094810485839844 L0.9794559478759766 10.094810485839844 C1.0037450790405273 10.0986967086792 1.0177013874053955 10.125690460205078 0.993443489074707 10.141006469726562 L0.993443489074707 10.141006469726562 C1.0133168697357178 10.156929969787598 1.0012127161026 10.180791854858398 0.9789524078369141 10.184725761413574 L0.9454927444458008 10.094810485839844"></path>
<path fill="none" stroke="black" stroke-width=".3" stroke-opacity="1.0"  filling="0" d="M1.0270395278930664 10.094810485839844 L1.0789918899536133 10.094810485839844 C1.0794739723205566 10.097420692443848 1.0799938440322876 10.100106239318848 1.079686164855957 10.102743148803711 L1.0714941024780273 10.135141372680664 C1.0719897747039795 10.137726783752441 1.0725011825561523 10.14039421081543 1.072188377380371 10.143007278442383 L1.0777406692504883 10.174357414245605 C1.0782196521759033 10.177009582519531 1.0787473917007446 10.17973518371582 1.0784339904785156 10.182412147521973 L1.0270395278930664 10.094810485839844"></path>
<path fill="none" stroke="black" stroke-width=".3" stroke-opacity="1.0"  filling="0" d="M1.1044645309448242 10.094810485839844 L1.1044645309448242 10.094810485839844 C1.1059659719467163 10.094932556152344 1.1074672937393188 10.09505558013916 1.108968734741211 10.09517765045166 L1.1104650497436523 10.147632598876953 C1.1103847026824951 10.1527099609375 1.1102430820465088 10.157788276672363 1.1099615097045898 10.162858963012695 L1.1100845336914062 10.168615341186523 C1.1107467412948608 10.166951179504395 1.1114088296890259 10.16528606414795 1.1120710372924805 10.16362190246582 L1.1143970489501953 10.158437728881836 C1.1154178380966187 10.15645980834961 1.1164385080337524 10.154481887817383 1.1174592971801758 10.152503967285156 L1.1507959365844727 10.09517765045166 C1.1545352935791016 10.094938278198242 1.1582982540130615 10.094927787780762 1.1620368957519531 10.09517765045166 L1.1625394821166992 10.184223175048828 C1.1595513820648193 10.184870719909668 1.1566578149795532 10.18485164642334 1.1536674499511719 10.184223175048828 L1.1521711349487305 10.131767272949219 C1.1522935628890991 10.126859664916992 1.1524158716201782 10.121952056884766 1.1525382995605469 10.117044448852539 L1.1480474472045898 10.121466636657715 C1.14700448513031 10.12348461151123 1.1459614038467407 10.125503540039062 1.144918441772461 10.127521514892578 L1.1119623184204102 10.184223175048828 C1.1081267595291138 10.184835433959961 1.1044371128082275 10.184825897216797 1.100600242614746 10.184223175048828 L1.0987215042114258 10.095680236816406 C1.100540041923523 10.095015525817871 1.1025351285934448 10.094972610473633 1.1044645309448242 10.094810485839844 L1.1044645309448242 10.094810485839844"></path>
<path fill="none" stroke="black" stroke-width=".3" stroke-opacity="1.0"  filling="0" d="M1.1935100555419922 10.094810485839844 L1.1935100555419922 10.094810485839844 C1.1951335668563843 10.094932556152344 1.1967569589614868 10.09505558013916 1.198380470275879 10.09517765045166 L1.198380470275879 10.10779094696045 C1.1950523853302002 10.10840892791748 1.19184410572052 10.108429908752441 1.1885156631469727 10.10779094696045 L1.1870193481445312 10.095680236816406 C1.1890887022018433 10.094985008239746 1.1913330554962158 10.094970703125 1.1935100555419922 10.094810485839844 L1.1935100555419922 10.094810485839844"></path>
<path fill="none" stroke="black" stroke-width=".3" stroke-opacity="1.0"  filling="0" d="M0.7873907089233398 10.09517765045166 L0.7873907089233398 10.09517765045166 C0.7905882000923157 10.09493637084961 0.7938134074211121 10.094930648803711 0.7970104217529297 10.09517765045166 L0.8376007080078125 10.09517765045166 C0.8407945036888123 10.094942092895508 0.8440155982971191 10.094923973083496 0.8472080230712891 10.09517765045166 L0.8472080230712891 10.184223175048828 C0.8439857363700867 10.184816360473633 0.8409451842308044 10.184840202331543 0.8377237319946289 10.184223175048828 L0.7970104217529297 10.184223175048828 C0.79379802942276 10.184818267822266 0.7907201051712036 10.184873580932617 0.7875127792358398 10.184223175048828 L0.7873907089233398 10.09517765045166"></path>
<path fill="none" stroke="black" stroke-width=".3" stroke-opacity="1.0"  filling="0" d="M3.008906364440918 10.095612525939941 L3.008906364440918 10.095612525939941 C3.0094587802886963 10.114151000976562 2.980659008026123 10.119678497314453 2.965961456298828 10.130990982055664 L2.931208610534668 10.129331588745117 C2.9306554794311523 10.128783226013184 2.9301023483276367 10.128233909606934 2.929549217224121 10.127685546875 L2.965961456298828 10.114444732666016 C2.9742655754089355 10.109105110168457 2.989535093307495 10.105530738830566 2.9888763427734375 10.095680236816406 L3.008906364440918 10.095612525939941"></path>
<path fill="none" stroke="black" stroke-width=".3" stroke-opacity="1.0"  filling="0" d="M1.2062454223632812 10.095640182495117 L1.2062454223632812 10.095640182495117 C1.2777462005615234 10.202993392944336 1.4689053297042847 10.197691917419434 1.5262174606323242 10.313244819641113 L1.4968805313110352 10.313300132751465 C1.3547239303588867 10.364648818969727 1.1077946424484253 10.287993431091309 1.2000007629394531 10.095680236816406 L1.2062454223632812 10.095640182495117"></path>
<path fill="none" stroke="black" stroke-width=".3" stroke-opacity="1.0"  filling="0" d="M1.923995018005371 10.095640182495117 L1.923995018005371 10.095640182495117 C1.9243285655975342 10.114185333251953 1.8958609104156494 10.119860649108887 1.8810234069824219 10.130990982055664 L1.8462581634521484 10.129331588745117 C1.845704436302185 10.128783226013184 1.8451505899429321 10.128233909606934 1.8445968627929688 10.127685546875 L1.8810234069824219 10.114444732666016 C1.8892192840576172 10.108878135681152 1.9044283628463745 10.105581283569336 1.904073715209961 10.095680236816406 L1.923995018005371 10.095640182495117"></path>
<path fill="none" stroke="black" stroke-width=".3" stroke-opacity="1.0"  filling="0" d="M2.2677106857299805 10.095640182495117 L2.2677106857299805 10.095640182495117 C2.2680442333221436 10.114184379577637 2.2395777702331543 10.119860649108887 2.224740982055664 10.130990982055664 L2.189988136291504 10.129331588745117 C2.189434766769409 10.128783226013184 2.1888811588287354 10.128233909606934 2.1883277893066406 10.127685546875 L2.224740982055664 10.114444732666016 C2.232941150665283 10.108879089355469 2.248161554336548 10.105584144592285 2.2478036880493164 10.095680236816406 L2.2677106857299805 10.095640182495117"></path>
<path fill="none" stroke="black" stroke-width=".3" stroke-opacity="1.0"  filling="0" d="M2.7707948684692383 10.095640182495117 L2.7707948684692383 10.095640182495117 C2.7711169719696045 10.114185333251953 2.7426605224609375 10.119860649108887 2.727823257446289 10.130990982055664 L2.693070411682129 10.129331588745117 C2.6925172805786133 10.128783226013184 2.6919641494750977 10.128233909606934 2.691411018371582 10.127685546875 L2.727823257446289 10.114444732666016 C2.7360236644744873 10.108878135681152 2.751239538192749 10.105585098266602 2.750887870788574 10.095680236816406 L2.7707948684692383 10.095640182495117"></path>
<path fill="none" stroke="black" stroke-width=".3" stroke-opacity="1.0"  filling="0" d="M2.07766056060791 10.095667839050293 L2.07766056060791 10.095667839050293 C2.09364652633667 10.106833457946777 2.120166301727295 10.106837272644043 2.136157989501953 10.095680236816406 L2.1574249267578125 10.095735549926758 C2.130232810974121 10.115604400634766 2.0835680961608887 10.115571975708008 2.0563926696777344 10.095680236816406 L2.07766056060791 10.095667839050293"></path>
<path fill="none" stroke="black" stroke-width=".3" stroke-opacity="1.0"  filling="0" d="M1.2000007629394531 10.095680236816406 L5.821501731872559 10.095680236816406 L5.821501731872559 14.431431770324707 L5.821501731872559 18.767183303833008 L1.2000007629394531 18.767183303833008 L1.2000007629394531 14.431431770324707 L1.2000007629394531 10.095680236816406"></path>
<path fill="none" stroke="black" stroke-width=".3" stroke-opacity="1.0"  filling="0" d="M1.2649736404418945 10.095680236816406 L1.3833293914794922 10.095722198486328 C1.3712407350540161 10.133275985717773 1.2838469743728638 10.130325317382812 1.2649736404418945 10.095680236816406 L1.2649736404418945 10.095680236816406"></path>
<path fill="none" stroke="black" stroke-width=".3" stroke-opacity="1.0"  filling="0" d="M1.4632577896118164 10.095680236816406 L1.5519351959228516 10.095748901367188 C1.56022310256958 10.138734817504883 1.5628095865249634 10.183844566345215 1.5556364059448242 10.227030754089355 L1.5556364059448242 10.227030754089355 C1.5539652109146118 10.231901168823242 1.5522769689559937 10.236766815185547 1.5505475997924805 10.241617202758789 L1.5505475997924805 10.241617202758789 C1.5214509963989258 10.192971229553223 1.492354393005371 10.144326210021973 1.4632577896118164 10.095680236816406 L1.4632577896118164 10.095680236816406"></path>
<path fill="none" stroke="black" stroke-width=".3" stroke-opacity="1.0"  filling="0" d="M1.6906862258911133 10.095680236816406 L1.7397003173828125 10.095735549926758 C1.7353957891464233 10.106934547424316 1.7310911417007446 10.118132591247559 1.7267866134643555 10.129331588745117 L1.7267866134643555 10.129331588745117 C1.7262331247329712 10.129884719848633 1.7256797552108765 10.130437850952148 1.7251262664794922 10.130990982055664 L1.7046070098876953 10.129331588745117 C1.704058289527893 10.128783226013184 1.7035096883773804 10.128233909606934 1.7029609680175781 10.127685546875 L1.7029609680175781 10.127685546875 C1.6988693475723267 10.117016792297363 1.6947778463363647 10.106348991394043 1.6906862258911133 10.095680236816406 L1.6906862258911133 10.095680236816406"></path>
<path fill="none" stroke="black" stroke-width=".3" stroke-opacity="1.0"  filling="0" d="M1.7903318405151367 10.095680236816406 L1.8101987838745117 10.129331588745117 C1.8059030771255493 10.133625030517578 1.798021912574768 10.129937171936035 1.7919788360595703 10.129331588745117 L1.7919788360595703 10.129331588745117 C1.791429877281189 10.128783226013184 1.790880799293518 10.128233909606934 1.7903318405151367 10.127685546875 L1.7903318405151367 10.095680236816406"></path>
<path fill="none" stroke="black" stroke-width=".3" stroke-opacity="1.0"  filling="0" d="M1.9556455612182617 10.095680236816406 L1.9920711517333984 10.114444732666016 C1.9997907876968384 10.108189582824707 2.0075104236602783 10.101935386657715 2.015230178833008 10.095680236816406 L2.035098075866699 10.095735549926758 C2.0207557678222656 10.107487678527832 2.006413459777832 10.11923885345459 1.9920711517333984 10.130990982055664 L1.957305908203125 10.129331588745117 C1.9567524194717407 10.128783226013184 1.956199049949646 10.128233909606934 1.9556455612182617 10.127685546875 L1.9556455612182617 10.095680236816406"></path>
<path fill="none" stroke="black" stroke-width=".3" stroke-opacity="1.0"  filling="0" d="M2.3213911056518555 10.095680236816406 L2.372690200805664 10.112785339355469 C2.3732388019561768 10.113338470458984 2.3737876415252686 10.1138916015625 2.3743362426757812 10.114444732666016 L2.3743362426757812 10.114444732666016 C2.3749475479125977 10.119926452636719 2.378237247467041 10.127092361450195 2.3743362426757812 10.130990982055664 L2.288285255432129 10.129331588745117 C2.287731885910034 10.128783226013184 2.2871782779693604 10.128233909606934 2.2866249084472656 10.127685546875 L2.2866249084472656 10.114444732666016 C2.2871782779693604 10.1138916015625 2.287731885910034 10.113338470458984 2.288285255432129 10.112785339355469 L2.3213911056518555 10.095680236816406"></path>
<path fill="none" stroke="black" stroke-width=".3" stroke-opacity="1.0"  filling="0" d="M2.443012237548828 10.095680236816406 L2.472811698913574 10.129331588745117 C2.4722585678100586 10.129884719848633 2.471705436706543 10.130437850952148 2.4711523056030273 10.130990982055664 L2.4446725845336914 10.129331588745117 C2.444119453430176 10.128783226013184 2.44356632232666 10.128233909606934 2.4430131912231445 10.127685546875 L2.4430131912231445 10.095680236816406"></path>
<path fill="none" stroke="black" stroke-width=".3" stroke-opacity="1.0"  filling="0" d="M2.5158376693725586 10.095680236816406 L2.5356903076171875 10.129331588745117 C2.535137176513672 10.129884719848633 2.5345840454101562 10.130437850952148 2.5340309143066406 10.130990982055664 L2.517483711242676 10.129331588745117 C2.516935110092163 10.128783226013184 2.5163862705230713 10.128233909606934 2.5158376693725586 10.127685546875 L2.5158376693725586 10.095680236816406"></path>
<path fill="none" stroke="black" stroke-width=".3" stroke-opacity="1.0"  filling="0" d="M2.568783760070801 10.095680236816406 L2.568783760070801 10.095680236816406"></path>
<path fill="none" stroke="black" stroke-width=".3" stroke-opacity="1.0"  filling="0" d="M2.6382884979248047 10.095680236816406 L2.6382884979248047 10.095680236816406"></path>
<path fill="none" stroke="black" stroke-width=".3" stroke-opacity="1.0"  filling="0" d="M2.8024444580078125 10.095680236816406 L2.832244873046875 10.129331588745117 C2.831695795059204 10.129884719848633 2.8311469554901123 10.130437850952148 2.8305978775024414 10.130990982055664 L2.804105758666992 10.129331588745117 C2.8035519123077393 10.128783226013184 2.8029983043670654 10.128233909606934 2.8024444580078125 10.127685546875 L2.8024444580078125 10.095680236816406"></path>
<path fill="none" stroke="black" stroke-width=".3" stroke-opacity="1.0"  filling="0" d="M2.875269889831543 10.095680236816406 L2.895122528076172 10.129331588745117 C2.894573926925659 10.129884719848633 2.8940250873565674 10.130437850952148 2.8934764862060547 10.130990982055664 L2.8769302368164062 10.129331588745117 C2.8763768672943115 10.128783226013184 2.8758232593536377 10.128233909606934 2.875269889831543 10.127685546875 L2.875269889831543 10.095680236816406"></path>
<path fill="none" stroke="black" stroke-width=".3" stroke-opacity="1.0"  filling="0" d="M3.041250228881836 10.095680236816406 L3.1140756607055664 10.114444732666016 C3.1175975799560547 10.117939949035645 3.1146926879882812 10.124407768249512 3.1140756607055664 10.129331588745117 L3.1140756607055664 10.129331588745117 C3.1135222911834717 10.129884719848633 3.112968683242798 10.130437850952148 3.112415313720703 10.130990982055664 L3.042910575866699 10.129331588745117 C3.0423572063446045 10.128783226013184 3.0418035984039307 10.128233909606934 3.041250228881836 10.127685546875 L3.041250228881836 10.095680236816406"></path>
<path fill="none" stroke="black" stroke-width=".3" stroke-opacity="1.0"  filling="0" d="M3.164870262145996 10.095680236816406 L3.1814184188842773 10.114444732666016 C3.1896157264709473 10.108880996704102 3.204869031906128 10.105579376220703 3.2044677734375 10.095680236816406 L3.2243757247924805 10.095640182495117 C3.2247838973999023 10.114179611206055 3.1962528228759766 10.11986255645752 3.1814184188842773 10.130990982055664 L3.1466779708862305 10.129331588745117 C3.1461246013641357 10.128783226013184 3.145570993423462 10.128233909606934 3.145017623901367 10.127685546875 L3.164870262145996 10.095680236816406"></path>
<path fill="none" stroke="black" stroke-width=".3" stroke-opacity="1.0"  filling="0" d="M3.252650260925293 10.095680236816406 L3.2744903564453125 10.095775604248047 C3.2997982501983643 10.1126070022583 3.3396050930023193 10.101119041442871 3.336484909057617 10.12603759765625 L3.336484909057617 10.12603759765625 C3.3359310626983643 10.1265869140625 3.3353774547576904 10.12713623046875 3.3348236083984375 10.127685546875 L3.3348236083984375 10.127685546875 C3.305828332901001 10.132519721984863 3.276667356491089 10.112628936767578 3.252650260925293 10.095680236816406 L3.252650260925293 10.095680236816406"></path>
<path fill="none" stroke="black" stroke-width=".3" stroke-opacity="1.0"  filling="0" d="M0.7170829772949219 10.10467529296875 L0.7359418869018555 10.10467529296875 C0.7565783858299255 10.111546516418457 0.7567861676216125 10.129055976867676 0.7358198165893555 10.135644912719727 L0.7170829772949219 10.10467529296875"></path>
<path fill="none" stroke="black" stroke-width=".3" stroke-opacity="1.0"  filling="0" d="M0.9582281112670898 10.10467529296875 L0.9770879745483398 10.10467529296875 C0.9977129101753235 10.111542701721191 0.9979172348976135 10.129054069519043 0.9769659042358398 10.135644912719727 L0.9582281112670898 10.10467529296875"></path>
<path fill="none" stroke="black" stroke-width=".3" stroke-opacity="1.0"  filling="0" d="M2.568783760070801 10.114758491516113 L2.5886497497558594 10.13209342956543 C2.5880963802337646 10.132647514343262 2.587542772293091 10.133200645446777 2.586989402770996 10.13375473022461 L2.5704431533813477 10.13209342956543 C2.569890022277832 10.131540298461914 2.5693368911743164 10.130986213684082 2.568783760070801 10.130433082580566 L2.568783760070801 10.114758491516113"></path>
<path fill="none" stroke="black" stroke-width=".3" stroke-opacity="1.0"  filling="0" d="M2.6382884979248047 10.114758491516113 L2.6581544876098633 10.13209342956543 C2.6576013565063477 10.132647514343262 2.657048225402832 10.133200645446777 2.6564950942993164 10.13375473022461 L2.639963150024414 10.13209342956543 C2.6394050121307373 10.131540298461914 2.6388466358184814 10.130986213684082 2.6382884979248047 10.130433082580566 L2.6382884979248047 10.114758491516113"></path>
<path fill="none" stroke="black" stroke-width=".3" stroke-opacity="1.0"  filling="0" d="M0.26264476776123047 10.12802505493164 L0.27851104736328125 10.167608261108398 C0.2782615125179291 10.168692588806152 0.2780119478702545 10.16977596282959 0.27776241302490234 10.170860290527344 L0.26264476776123047 10.12802505493164"></path>
<path fill="none" stroke="black" stroke-width=".3" stroke-opacity="1.0"  filling="0" d="M0.6329231262207031 10.12802505493164 L0.6487751007080078 10.167608261108398 C0.6485255360603333 10.168692588806152 0.6482760310173035 10.16977596282959 0.6480264663696289 10.170860290527344 L0.6329231262207031 10.12802505493164"></path>
<path fill="none" stroke="black" stroke-width=".3" stroke-opacity="1.0"  filling="0" d="M0.18758773803710938 10.14051628112793 L0.20582199096679688 10.14051628112793 C0.22576913237571716 10.148280143737793 0.22579438984394073 10.1663236618042 0.20582199096679688 10.17409896850586 L0.18758773803710938 10.14051628112793"></path>
<path fill="none" stroke="black" stroke-width=".3" stroke-opacity="1.0"  filling="0" d="M0.7170829772949219 10.145129203796387 L0.7350711822509766 10.145129203796387 C0.7537261843681335 10.152284622192383 0.7536779046058655 10.167872428894043 0.7349491119384766 10.174860954284668 L0.7170829772949219 10.145129203796387"></path>
<path fill="none" stroke="black" stroke-width=".3" stroke-opacity="1.0"  filling="0" d="M0.9582281112670898 10.145129203796387 L0.9762029647827148 10.145129203796387 C0.9948762059211731 10.15228271484375 0.9948276877403259 10.167874336242676 0.9760808944702148 10.174860954284668 L0.9582281112670898 10.145129203796387"></path>
<path fill="none" stroke="black" stroke-width=".3" stroke-opacity="1.0"  filling="0" d="M0.09744071960449219 10.160369873046875 L0.09744071960449219 10.160369873046875 C0.10088064521551132 10.146206855773926 0.10383357107639313 10.143385887145996 0.116912841796875 10.137332916259766 L0.12703704833984375 10.134025573730469 C0.16242018342018127 10.121337890625 0.12301557511091232 10.102784156799316 0.1004343032836914 10.10892105102539 L0.1004343032836914 10.10892105102539 C0.09895586222410202 10.105732917785645 0.09792903065681458 10.10229206085205 0.0974416732788086 10.098811149597168 L0.0974416732788086 10.098811149597168 C0.13813862204551697 10.084046363830566 0.18222582340240479 10.125343322753906 0.13239765167236328 10.145387649536133 L0.12397480010986328 10.148000717163086 C0.09071370959281921 10.161733627319336 0.12747789919376373 10.177729606628418 0.14887523651123047 10.172479629516602 L0.14887523651123047 10.172479629516602 C0.15064366161823273 10.175533294677734 0.1518269032239914 10.178982734680176 0.15238571166992188 10.182467460632324 L0.15238571166992188 10.182467460632324 C0.12869903445243835 10.188743591308594 0.10249554365873337 10.188811302185059 0.09744071960449219 10.160369873046875 L0.09744071960449219 10.160369873046875"></path>
<path fill="none" stroke="black" stroke-width=".3" stroke-opacity="1.0"  filling="0" d="M2.7315921783447266 10.192251205444336 L2.7315921783447266 10.192251205444336 C2.746469497680664 10.20683765411377 2.7613468170166016 10.22142505645752 2.776224136352539 10.236011505126953 L2.762997627258301 10.237630844116211 C2.749155044555664 10.221917152404785 2.714020013809204 10.221920013427734 2.700174331665039 10.237630844116211 L2.6869611740112305 10.236011505126953 C2.701838254928589 10.22142505645752 2.716715097427368 10.20683765411377 2.7315921783447266 10.192251205444336 L2.7315921783447266 10.192251205444336"></path>
<path fill="none" stroke="black" stroke-width=".3" stroke-opacity="1.0"  filling="0" d="M2.161372184753418 10.193870544433594 L2.161372184753418 10.193870544433594 C2.161911725997925 10.19441032409668 2.1624510288238525 10.19494915008545 2.1629905700683594 10.195488929748535 L2.1629905700683594 10.195488929748535 C2.16345477104187 10.19815731048584 2.1644160747528076 10.201684951782227 2.1625003814697266 10.203598976135254 L2.1576433181762695 10.247360229492188 C2.1581830978393555 10.247900009155273 2.1587228775024414 10.248438835144043 2.1592626571655273 10.248978614807129 L2.1592626571655273 10.25545597076416 C2.1587228775024414 10.256000518798828 2.1581830978393555 10.25654411315918 2.1576433181762695 10.257088661193848 L2.1625003814697266 10.297611236572266 C2.1644127368927 10.299522399902344 2.16345477104187 10.303044319152832 2.1629905700683594 10.305707931518555 L2.1629905700683594 10.305707931518555 C2.1624510288238525 10.30624771118164 2.161911725997925 10.30678653717041 2.161372184753418 10.307326316833496 L2.0960445404052734 10.305707931518555 C2.0955045223236084 10.305168151855469 2.0949642658233643 10.304627418518066 2.094424247741699 10.30408763885498 L2.094424247741699 10.195488929748535 C2.0949642658233643 10.19494915008545 2.0955045223236084 10.19441032409668 2.0960445404052734 10.193870544433594 L2.161372184753418 10.193870544433594"></path>
<path fill="none" stroke="black" stroke-width=".3" stroke-opacity="1.0"  filling="0" d="M2.604827880859375 10.193870544433594 L2.604827880859375 10.193870544433594 C2.6307694911956787 10.221388816833496 2.6307692527770996 10.279807090759277 2.604827880859375 10.307326316833496 L2.569164276123047 10.305707931518555 C2.568624496459961 10.305168151855469 2.568084716796875 10.304627418518066 2.567544937133789 10.30408763885498 L2.567544937133789 10.195488929748535 C2.568084716796875 10.19494915008545 2.568624496459961 10.19441032409668 2.569164276123047 10.193870544433594 L2.604827880859375 10.193870544433594"></path>
<path fill="none" stroke="black" stroke-width=".3" stroke-opacity="1.0"  filling="0" d="M2.989992141723633 10.193870544433594 L2.989992141723633 10.193870544433594 C2.9905407428741455 10.19441032409668 2.9910895824432373 10.19494915008545 2.99163818359375 10.195488929748535 L2.99163818359375 10.195488929748535 C2.9921185970306396 10.19815444946289 2.9930877685546875 10.20170783996582 2.9911489486694336 10.203598976135254 L2.9861955642700195 10.247360229492188 C2.9867446422576904 10.247900009155273 2.9872934818267822 10.24843978881836 2.987842559814453 10.248979568481445 L2.987842559814453 10.25545597076416 C2.9872934818267822 10.256000518798828 2.9867446422576904 10.25654411315918 2.9861955642700195 10.257088661193848 L2.9911489486694336 10.297611236572266 C2.993084669113159 10.29949951171875 2.9921188354492188 10.303047180175781 2.99163818359375 10.305707931518555 L2.99163818359375 10.305707931518555 C2.9910895824432373 10.30624771118164 2.9905407428741455 10.30678653717041 2.989992141723633 10.307326316833496 L2.9233579635620117 10.305707931518555 C2.922808885574341 10.305168151855469 2.922260046005249 10.304627418518066 2.921710968017578 10.30408763885498 L2.921710968017578 10.195488929748535 C2.922260046005249 10.19494915008545 2.922808885574341 10.19441032409668 2.9233579635620117 10.193870544433594 L2.989992141723633 10.193870544433594"></path>
<path fill="none" stroke="black" stroke-width=".3" stroke-opacity="1.0"  filling="0" d="M1.7859783172607422 10.195489883422852 L1.7859783172607422 10.195489883422852 C1.7865225076675415 10.194950103759766 1.7870668172836304 10.19441032409668 1.7876110076904297 10.193870544433594 L1.8529253005981445 10.193870544433594 C1.8534650802612305 10.19441032409668 1.8540048599243164 10.19494915008545 1.8545446395874023 10.195488929748535 L1.8545446395874023 10.195488929748535 C1.8550139665603638 10.198156356811523 1.8559832572937012 10.201684951782227 1.8540678024291992 10.203598976135254 L1.798945426940918 10.305707931518555 C1.7962706089019775 10.308381080627441 1.7913672924041748 10.306632995605469 1.7876110076904297 10.306196212768555 L1.7876110076904297 10.306196212768555 C1.7870668172836304 10.305656433105469 1.7865225076675415 10.3051176071167 1.7859783172607422 10.304577827453613 L1.7859783172607422 10.195488929748535"></path>
<path fill="none" stroke="black" stroke-width=".3" stroke-opacity="1.0"  filling="0" d="M1.8767509460449219 10.195488929748535 L1.8767509460449219 10.195488929748535 C1.8772910833358765 10.19494915008545 1.8778311014175415 10.19441032409668 1.878371238708496 10.193870544433594 L1.910782814025879 10.193870544433594 C1.9279289245605469 10.206116676330566 1.9483816623687744 10.235861778259277 1.935098648071289 10.252218246459961 L1.935098648071289 10.252218246459961 C1.9469650983810425 10.268414497375488 1.9269967079162598 10.295483589172363 1.910782814025879 10.307326316833496 L1.878371238708496 10.305707931518555 C1.8778311014175415 10.305168151855469 1.8772910833358765 10.304627418518066 1.8767509460449219 10.30408763885498 L1.8767509460449219 10.195488929748535"></path>
<path fill="none" stroke="black" stroke-width=".3" stroke-opacity="1.0"  filling="0" d="M2.3018932342529297 10.195488929748535 L2.3018932342529297 10.195488929748535 C2.3024370670318604 10.19494915008545 2.30298113822937 10.19441032409668 2.303524971008301 10.193870544433594 L2.3132410049438477 10.193870544433594 C2.3137807846069336 10.19441032409668 2.3143205642700195 10.19494915008545 2.3148603439331055 10.195488929748535 L2.3764467239379883 10.195488929748535 C2.376986503601074 10.19494915008545 2.37752628326416 10.19441032409668 2.378066062927246 10.193870544433594 L2.38779354095459 10.193870544433594 C2.388333559036255 10.19441032409668 2.388873815536499 10.19494915008545 2.389413833618164 10.195488929748535 L2.389413833618164 10.305707931518555 C2.388873815536499 10.30624771118164 2.388333559036255 10.30678653717041 2.38779354095459 10.307326316833496 L2.378066062927246 10.306196212768555 C2.37752628326416 10.305656433105469 2.376986503601074 10.3051176071167 2.3764467239379883 10.304577827453613 L2.3148603439331055 10.305707931518555 C2.312185287475586 10.308381080627441 2.307281494140625 10.306632995605469 2.303524971008301 10.306196212768555 L2.303524971008301 10.306196212768555 C2.30298113822937 10.305656433105469 2.3024370670318604 10.3051176071167 2.3018932342529297 10.304577827453613 L2.3018932342529297 10.195488929748535"></path>
<path fill="none" stroke="black" stroke-width=".3" stroke-opacity="1.0"  filling="0" d="M1.7503280639648438 10.195489883422852 L1.7503280639648438 10.195489883422852 C1.7509218454360962 10.194950103759766 1.7515157461166382 10.19441032409668 1.7521095275878906 10.193870544433594 L1.7626419067382812 10.193870544433594 C1.7906781435012817 10.221906661987305 1.736289620399475 10.268671989440918 1.7221336364746094 10.305707931518555 L1.7221336364746094 10.305707931518555 C1.7182691097259521 10.308920860290527 1.7120441198349 10.306323051452637 1.7070560455322266 10.305707931518555 L1.7070560455322266 10.305707931518555 C1.7064619064331055 10.305168151855469 1.7058677673339844 10.304627418518066 1.7052736282348633 10.30408763885498 L1.7052736282348633 10.30408763885498 C1.6913270950317383 10.267593383789062 1.6376663446426392 10.221383094787598 1.6654052734375 10.193870544433594 L1.6759233474731445 10.193870544433594 C1.6764675378799438 10.19441032409668 1.6770118474960327 10.194950103759766 1.677556037902832 10.195489883422852 L1.7503280639648438 10.195489883422852"></path>
<path fill="none" stroke="black" stroke-width=".3" stroke-opacity="1.0"  filling="0" d="M2.050827980041504 10.23115348815918 L2.050827980041504 10.23115348815918 C2.0459651947021484 10.236827850341797 2.041102409362793 10.242501258850098 2.0362396240234375 10.248175621032715 L2.0362396240234375 10.248175621032715 C2.049921751022339 10.263566017150879 2.0354034900665283 10.29568862915039 2.0184144973754883 10.307326316833496 L1.9876079559326172 10.305707931518555 C1.9870685338974 10.305168151855469 1.986528992652893 10.304627418518066 1.9859895706176758 10.30408763885498 L1.9859895706176758 10.195488929748535 C1.986528992652893 10.19494915008545 1.9870685338974 10.19441032409668 1.9876079559326172 10.193870544433594 L1.9973373413085938 10.193870544433594 C1.9978771209716797 10.19441032409668 1.9984169006347656 10.19494915008545 1.9989566802978516 10.195488929748535 L2.015176773071289 10.247360229492188 C2.0224697589874268 10.242012977600098 2.0297629833221436 10.236664772033691 2.0370559692382812 10.231317520141602 L2.0524463653564453 10.195489883422852 C2.0529861450195312 10.194950103759766 2.053525924682617 10.19441032409668 2.054065704345703 10.193870544433594 L2.065413475036621 10.193870544433594 C2.074852466583252 10.203304290771484 2.0563488006591797 10.21900463104248 2.050827980041504 10.23115348815918 L2.050827980041504 10.23115348815918"></path>
<path fill="none" stroke="black" stroke-width=".3" stroke-opacity="1.0"  filling="0" d="M2.877230644226074 10.23115348815918 L2.877230644226074 10.23115348815918 C2.8722732067108154 10.236827850341797 2.8673155307769775 10.242501258850098 2.8623580932617188 10.248175621032715 L2.8623580932617188 10.248175621032715 C2.8762130737304688 10.263457298278809 2.8613014221191406 10.295825004577637 2.8441781997680664 10.307326316833496 L2.812758445739746 10.305707931518555 C2.8122100830078125 10.305168151855469 2.811661720275879 10.304627418518066 2.8111133575439453 10.30408763885498 L2.8111133575439453 10.195488929748535 C2.811661720275879 10.19494915008545 2.8122100830078125 10.19441032409668 2.812758445739746 10.193870544433594 L2.8226795196533203 10.193870544433594 C2.823232650756836 10.19441032409668 2.8237857818603516 10.19494915008545 2.824338912963867 10.195488929748535 L2.8408708572387695 10.247360229492188 C2.8483095169067383 10.242012977600098 2.855748176574707 10.236664772033691 2.863186836242676 10.231317520141602 L2.878890037536621 10.195488929748535 C2.8794431686401367 10.19494915008545 2.8799962997436523 10.19441032409668 2.880549430847168 10.193870544433594 L2.892115592956543 10.193870544433594 C2.901660442352295 10.20324993133545 2.88285756111145 10.219013214111328 2.877229690551758 10.23115348815918 L2.877229690551758 10.23115348815918"></path>
<path fill="none" stroke="black" stroke-width=".3" stroke-opacity="1.0"  filling="0" d="M3.0900049209594727 10.23115348815918 L3.0900049209594727 10.23115348815918 C3.085047483444214 10.236827850341797 3.080089807510376 10.242501258850098 3.075132369995117 10.248175621032715 L3.075132369995117 10.248175621032715 C3.088984489440918 10.263461112976074 3.074063539505005 10.295825004577637 3.056939125061035 10.307326316833496 L3.0255327224731445 10.305707931518555 C3.024979829788208 10.305168151855469 3.0244271755218506 10.304627418518066 3.023874282836914 10.30408763885498 L3.023874282836914 10.195488929748535 C3.0244271755218506 10.19494915008545 3.024979829788208 10.19441032409668 3.0255327224731445 10.193870544433594 L3.0354537963867188 10.193870544433594 C3.0360069274902344 10.19441032409668 3.03656005859375 10.19494915008545 3.0371131896972656 10.195488929748535 L3.053633689880371 10.247360229492188 C3.0610764026641846 10.242012977600098 3.068519353866577 10.236664772033691 3.0759620666503906 10.231317520141602 L3.091677665710449 10.195489883422852 C3.09222674369812 10.194950103759766 3.092775583267212 10.19441032409668 3.093324661254883 10.193870544433594 L3.104890823364258 10.193870544433594 C3.1144707202911377 10.203213691711426 3.0956368446350098 10.219015121459961 3.0900049209594727 10.23115348815918 L3.0900049209594727 10.23115348815918"></path>
<path fill="none" stroke="black" stroke-width=".3" stroke-opacity="1.0"  filling="0" d="M1.6937618255615234 10.239249229431152 L1.6937618255615234 10.239249229431152"></path>
<path fill="none" stroke="black" stroke-width=".3" stroke-opacity="1.0"  filling="0" d="M1.910782814025879 10.247360229492188 L1.910782814025879 10.203598976135254 C1.922735571861267 10.211960792541504 1.9230130910873413 10.239410400390625 1.910782814025879 10.247360229492188 L1.910782814025879 10.247360229492188"></path>
<path fill="none" stroke="black" stroke-width=".3" stroke-opacity="1.0"  filling="0" d="M1.8897180557250977 10.257088661193848 L1.910782814025879 10.257088661193848 C1.9220199584960938 10.264583587646484 1.921734094619751 10.289704322814941 1.910782814025879 10.297611236572266 L1.8897180557250977 10.257088661193848"></path>
<path fill="none" stroke="black" stroke-width=".3" stroke-opacity="1.0"  filling="0" d="M1.9989566802978516 10.257088661193848 L2.0200347900390625 10.257088661193848 C2.0311293601989746 10.264793395996094 2.0311291217803955 10.28990650177002 2.0200347900390625 10.297611236572266 L1.9989566802978516 10.257088661193848"></path>
<path fill="none" stroke="black" stroke-width=".3" stroke-opacity="1.0"  filling="0" d="M2.824338912963867 10.257088661193848 L2.8458242416381836 10.257088661193848 C2.856989622116089 10.264690399169922 2.856989622116089 10.290009498596191 2.8458242416381836 10.297611236572266 L2.824338912963867 10.257088661193848"></path>
<path fill="none" stroke="black" stroke-width=".3" stroke-opacity="1.0"  filling="0" d="M3.037114143371582 10.257088661193848 L3.0585994720458984 10.257088661193848 C3.0697648525238037 10.264690399169922 3.0697648525238037 10.290009498596191 3.0585994720458984 10.297611236572266 L3.037114143371582 10.257088661193848"></path>
<path fill="none" stroke="black" stroke-width=".3" stroke-opacity="1.0"  filling="0" d="M1.3700342178344727 10.265715599060059 L5.6514668464660645 10.265715599060059 L5.6514668464660645 14.431425094604492 L5.6514668464660645 18.597135543823242 L1.370035171508789 18.597135543823242 L1.370035171508789 14.431425094604492 L1.370035171508789 10.265715599060059"></path>
<path fill="none" stroke="black" stroke-width=".3" stroke-opacity="1.0"  filling="0" d="M1.3700342178344727 10.265715599060059 L5.6514668464660645 10.265715599060059 L5.6514668464660645 14.431425094604492 L5.6514668464660645 18.597135543823242 L1.370035171508789 18.597135543823242 L1.370035171508789 14.431425094604492 L1.370035171508789 10.265715599060059"></path>
<path fill="none" stroke="black" stroke-width=".3" stroke-opacity="1.0"  filling="0" d="M1.3700342178344727 10.265715599060059 L5.6514668464660645 10.265715599060059 L5.6514668464660645 14.431425094604492 L5.6514668464660645 18.597135543823242 L1.370035171508789 18.597135543823242 L1.370035171508789 14.431425094604492 L1.370035171508789 10.265715599060059"></path>
<path fill="none" stroke="black" stroke-width=".3" stroke-opacity="1.0"  filling="0" d="M2.6869611740112305 10.293705940246582 L2.700174331665039 10.30812931060791 C2.699625015258789 10.308669090270996 2.699075698852539 10.309208869934082 2.698526382446289 10.309748649597168 L2.6886072158813477 10.308618545532227 C2.688058614730835 10.308024406433105 2.687509775161743 10.307430267333984 2.6869611740112305 10.306836128234863 L2.6869611740112305 10.293705940246582"></path>
<path fill="none" stroke="black" stroke-width=".3" stroke-opacity="1.0"  filling="0" d="M2.762997627258301 10.293705940246582 L2.776224136352539 10.30812931060791 C2.775675058364868 10.308669090270996 2.7751262187957764 10.309208869934082 2.7745771408081055 10.309748649597168 L2.764657974243164 10.308618545532227 C2.7641046047210693 10.308024406433105 2.7635509967803955 10.307430267333984 2.762997627258301 10.306836128234863 L2.762997627258301 10.293705940246582"></path>
<path fill="none" stroke="black" stroke-width=".3" stroke-opacity="1.0"  filling="0" d="M2.2717390060424805 10.29435920715332 L2.2717390060424805 10.29435920715332 C2.2736458778381348 10.296281814575195 2.2726943492889404 10.299800872802734 2.2722291946411133 10.302468299865723 L2.2722291946411133 10.302468299865723 C2.2716939449310303 10.303008079528809 2.271158456802368 10.303547859191895 2.270623207092285 10.30408763885498 L2.270623207092285 10.30408763885498 C2.169904947280884 10.321574211120605 2.1689772605895996 10.184083938598633 2.2717390060424805 10.195488929748535 L2.2717390060424805 10.195488929748535 C2.273653984069824 10.197403907775879 2.272693395614624 10.20093059539795 2.2722291946411133 10.203598976135254 L2.2722291946411133 10.203598976135254 C2.2577192783355713 10.218229293823242 2.1396617889404297 10.31640911102295 2.2717390060424805 10.29435920715332 L2.2717390060424805 10.29435920715332"></path>
<path fill="none" stroke="black" stroke-width=".3" stroke-opacity="1.0"  filling="0" d="M2.4109811782836914 10.297611236572266 L2.4109811782836914 10.297611236572266 C2.4115207195281982 10.29707145690918 2.412060022354126 10.296531677246094 2.412599563598633 10.295991897583008 L2.4482507705688477 10.195488929748535 C2.4487905502319336 10.19494915008545 2.4493303298950195 10.19441032409668 2.4498701095581055 10.193870544433594 L2.459599494934082 10.193870544433594 C2.460139274597168 10.19441032409668 2.460679054260254 10.19494915008545 2.46121883392334 10.195488929748535 L2.4957408905029297 10.295991897583008 C2.4962852001190186 10.296531677246094 2.4968292713165283 10.29707145690918 2.497373580932617 10.297611236572266 L2.497373580932617 10.297611236572266 C2.497816324234009 10.300823211669922 2.4991674423217773 10.305025100708008 2.4968833923339844 10.307326316833496 L2.412600517272949 10.305707931518555 C2.4120607376098633 10.305168151855469 2.4115209579467773 10.304627418518066 2.4109811782836914 10.30408763885498 L2.4109811782836914 10.297611236572266"></path>
<path fill="none" stroke="black" stroke-width=".3" stroke-opacity="1.0"  filling="0" d="M2.604827880859375 10.297611236572266 L2.604827880859375 10.203598976135254 C2.625051498413086 10.227537155151367 2.6250479221343994 10.273670196533203 2.604827880859375 10.297611236572266 L2.604827880859375 10.297611236572266"></path>
<path fill="none" stroke="black" stroke-width=".3" stroke-opacity="1.0"  filling="0" d="M1.3700485229492188 12.371719360351562 L5.6514668464660645 12.371719360351562 L5.6514668464660645 18.597135543823242 L1.3700485229492188 18.597135543823242 L1.3700485229492188 12.371719360351562"></path></svg>