<svg xmlns="http://www.w3.org/2000/svg" viewBox="0.0 0.0 24.0 24.0" height="200px" width="200px"><path fill="none" stroke="black" stroke-width=".3" stroke-opacity="1.0"  filling="0" d="M1.1025657653808594 9.16999340057373 L1.1025657653808594 9.16999340057373 C1.0944324731826782 9.178126335144043 1.0862993001937866 9.186260223388672 1.0781660079956055 9.194393157958984 L1.0781660079956055 9.817503929138184 C1.0862993001937866 9.82564640045166 1.0944324731826782 9.833788871765137 1.1025657653808594 9.841931343078613 L1.1756000518798828 9.841931343078613 C1.183733582496643 9.833788871765137 1.1918672323226929 9.82564640045166 1.2000007629394531 9.817503929138184 L1.2000007629394531 9.708240509033203 C1.1918672323226929 9.528824806213379 1.183733582496643 9.349409103393555 1.1756000518798828 9.16999340057373 L1.1025657653808594 9.16999340057373"></path>
<path fill="none" stroke="black" stroke-width=".3" stroke-opacity="1.0"  filling="0" d="M1.0685596466064453 9.314250946044922 L1.0685596466064453 9.986188888549805 L1.3819961547851562 9.986188888549805 C1.428206443786621 9.945631980895996 1.474416732788086 9.905076026916504 1.5206270217895508 9.864519119262695 L1.196157455444336 9.864519119262695 C1.1941722631454468 9.862543106079102 1.192186951637268 9.860567092895508 1.190201759338379 9.858591079711914 L1.190201759338379 9.714223861694336 C1.192186951637268 9.712238311767578 1.1941722631454468 9.710253715515137 1.196157455444336 9.708268165588379 L1.4307403564453125 9.586599349975586 L1.196157455444336 9.586599349975586 C1.1941722631454468 9.584614753723145 1.192186951637268 9.582629203796387 1.190201759338379 9.580644607543945 L1.0685596466064453 9.314250946044922"></path>
<path fill="none" stroke="black" stroke-width=".3" stroke-opacity="1.0"  filling="0" d="M0.9304780960083008 9.702147483825684 L0.9304780960083008 9.702147483825684 C0.9284928441047668 9.704133033752441 0.9265076518058777 9.7061185836792 0.9245223999023438 9.708104133605957 L0.9245223999023438 10.124792098999023 C0.9265076518058777 10.126777648925781 0.9284928441047668 10.128763198852539 0.9304780960083008 10.130748748779297 L1.1940441131591797 10.130748748779297 C1.2950340509414673 10.02975845336914 1.1960574388504028 9.845091819763184 1.1940441131591797 9.702284812927246 L0.9304780960083008 9.702147483825684"></path>
<path fill="none" stroke="black" stroke-width=".3" stroke-opacity="1.0"  filling="0" d="M1.1940717697143555 9.702284812927246 L0.9255380630493164 9.702422142028809 C0.9236624836921692 9.704361915588379 0.9217869639396667 9.706300735473633 0.9199113845825195 9.708240509033203 L0.9199113845825195 10.124929428100586 C0.9218966364860535 10.126914978027344 0.9238818287849426 10.128900527954102 0.9258670806884766 10.13088607788086 L1.1940441131591797 10.13088607788086 C1.1960296630859375 10.128900527954102 1.1980152130126953 10.126914978027344 1.2000007629394531 10.124929428100586 L1.2000007629394531 10.124792098999023 C1.1980243921279907 9.983956336975098 1.1960481405258179 9.843120574951172 1.1940717697143555 9.702284812927246 L1.1940717697143555 9.702284812927246"></path>
<path fill="none" stroke="black" stroke-width=".3" stroke-opacity="1.0"  filling="0" d="M1.2000007629394531 9.708240509033203 L0.6738014221191406 9.708240509033203 C0.6656681895256042 9.700098037719727 0.6575348973274231 9.691956520080566 0.6494016647338867 9.68381404876709 L0.6494016647338867 9.624858856201172 C0.6575348973274231 9.616716384887695 0.6656681895256042 9.608574867248535 0.6738014221191406 9.600432395935059 L1.2000007629394531 9.600432395935059 C1.2081340551376343 9.608574867248535 1.2162672281265259 9.616716384887695 1.224400520324707 9.624858856201172 L1.224400520324707 9.68381404876709 C1.2162672281265259 9.691956520080566 1.2081340551376343 9.700098037719727 1.2000007629394531 9.708240509033203 L1.2000007629394531 9.708240509033203"></path>
<path fill="none" stroke="black" stroke-width=".3" stroke-opacity="1.0"  filling="0" d="M1.2000007629394531 9.708240509033203 L1.2000007629394531 9.296026229858398 C1.20761239528656 9.287893295288086 1.2152239084243774 9.279760360717773 1.2228355407714844 9.271627426147461 L1.410567283630371 9.271627426147461 C1.418178915977478 9.279760360717773 1.4257904291152954 9.287893295288086 1.4334020614624023 9.296026229858398 L1.4334020614624023 9.708240509033203 C1.4257904291152954 9.716374397277832 1.418178915977478 9.724507331848145 1.410567283630371 9.732641220092773 L1.2228355407714844 9.732641220092773 C1.2152239084243774 9.724507331848145 1.20761239528656 9.716374397277832 1.2000007629394531 9.708240509033203 L1.2000007629394531 9.708240509033203"></path>
<path fill="none" stroke="black" stroke-width=".3" stroke-opacity="1.0"  filling="0" d="M1.2000007629394531 9.708240509033203 L0.9409637451171875 9.708240509033203 C0.8989156484603882 9.664665222167969 0.8178503513336182 9.637364387512207 0.8155059814453125 9.576855659484863 L0.8154783248901367 9.060647964477539 C0.8198766708374023 9.050041198730469 0.8292408585548401 9.040695190429688 0.8398504257202148 9.03630256652832 L0.9371480941772461 9.58061695098877 C0.9391241073608398 9.582601547241211 0.9411001205444336 9.584587097167969 0.9430761337280273 9.58657169342041 L1.2113351821899414 9.58657169342041 C1.2133207321166992 9.584587097167969 1.215306282043457 9.582601547241211 1.2172918319702148 9.58061695098877 L1.314560890197754 9.03630256652832 C1.3252257108688354 9.040593147277832 1.334485650062561 9.05008602142334 1.3389596939086914 9.060674667358398 L1.3389596939086914 9.574687957763672 C1.2926400899887085 9.619205474853516 1.246320366859436 9.66372299194336 1.2000007629394531 9.708240509033203 L1.2000007629394531 9.708240509033203"></path>
<path fill="none" stroke="black" stroke-width=".3" stroke-opacity="1.0"  filling="0" d="M1.2000007629394531 9.708240509033203 L1.1269655227661133 9.708240509033203 C1.1188411712646484 9.700098037719727 1.1107168197631836 9.691956520080566 1.1025924682617188 9.68381404876709 L1.1025924682617188 9.163379669189453 C1.1006075143814087 9.161394119262695 1.0986226797103882 9.159408569335938 1.0966377258300781 9.15742301940918 L0.7772188186645508 9.15764331817627 C0.7752335667610168 9.159627914428711 0.7732483744621277 9.161613464355469 0.7712631225585938 9.16359806060791 L0.7712345123291016 9.68381404876709 C0.7631015777587891 9.691956520080566 0.7549686431884766 9.700098037719727 0.7468357086181641 9.708240509033203 L0.6738014221191406 9.708240509033203 C0.6656681895256042 9.700098037719727 0.6575348973274231 9.691956520080566 0.6494016647338867 9.68381404876709 L0.6494016647338867 9.166754722595215 C0.6930869221687317 9.123032569885254 0.7367722392082214 9.07931137084961 0.7804574966430664 9.035589218139648 L1.1014413833618164 9.035589218139648 C1.1424366235733032 9.078413963317871 1.1834319829940796 9.12123966217041 1.2244272232055664 9.164064407348633 L1.2244272232055664 9.68381404876709 C1.2162851095199585 9.691956520080566 1.208142876625061 9.700098037719727 1.2000007629394531 9.708240509033203 L1.2000007629394531 9.708240509033203"></path>
<path fill="none" stroke="black" stroke-width=".3" stroke-opacity="1.0"  filling="0" d="M1.2000007629394531 9.70799446105957 L1.2000007629394531 9.708240509033203"></path>
<path fill="none" stroke="black" stroke-width=".3" stroke-opacity="1.0"  filling="0" d="M1.483107566833496 9.829910278320312 L1.325484275817871 9.829910278320312 C1.306528091430664 9.822371482849121 1.287571907043457 9.814833641052246 1.26861572265625 9.807294845581055 L1.26861572265625 9.807294845581055 C1.239824652671814 9.814833641052246 1.2110334634780884 9.822371482849121 1.1822423934936523 9.829910278320312 L1.024618148803711 9.829910278320312 C0.9825708866119385 9.786334991455078 0.9015082120895386 9.759034156799316 0.8991622924804688 9.698525428771973 L0.899134635925293 9.182865142822266 C0.9035332202911377 9.172258377075195 0.9128975868225098 9.16291332244873 0.9235067367553711 9.15852165222168 L0.9976940155029297 9.15797233581543 C1.0083507299423218 9.16226577758789 1.017594575881958 9.171761512756348 1.0220661163330078 9.182344436645508 L1.0220661163330078 9.702284812927246 C1.024051308631897 9.704270362854004 1.0260366201400757 9.706254959106445 1.0280218124389648 9.708240509033203 L1.1940441131591797 9.708240509033203 C1.1960296630859375 9.706254959106445 1.1980152130126953 9.704270362854004 1.2000007629394531 9.702284812927246 L1.2000007629394531 9.182344436645508 C1.2044718265533447 9.171760559082031 1.2137161493301392 9.16226577758789 1.2243728637695312 9.15797233581543 L1.298532485961914 9.15797233581543 C1.3091975450515747 9.162262916564941 1.3184577226638794 9.17175579071045 1.322932243347168 9.182344436645508 L1.322932243347168 9.702284812927246 C1.3249174356460571 9.704270362854004 1.3269027471542358 9.706254959106445 1.328887939453125 9.708240509033203 L1.4949092864990234 9.708240509033203 C1.4968948364257812 9.706254959106445 1.498880386352539 9.704270362854004 1.5008659362792969 9.702284812927246 L1.5008659362792969 9.182344436645508 C1.5053374767303467 9.171761512756348 1.514581322669983 9.16226577758789 1.525238037109375 9.15797233581543 L1.5976686477661133 9.15797233581543 C1.6083334684371948 9.162262916564941 1.6175934076309204 9.17175579071045 1.6220674514770508 9.182344436645508 L1.6220674514770508 9.696356773376465 C1.5757474899291992 9.740874290466309 1.5294275283813477 9.785392761230469 1.483107566833496 9.829910278320312 L1.483107566833496 9.829910278320312"></path>
<path fill="none" stroke="black" stroke-width=".3" stroke-opacity="1.0"  filling="0" d="M1.2844514846801758 10.216599464416504 L1.2844514846801758 10.216599464416504 C1.2536754608154297 10.228529930114746 1.2228994369506836 10.240459442138672 1.1921234130859375 10.252389907836914 L0.8028802871704102 10.252389907836914 L0.8028802871704102 9.580479621887207 L1.1961851119995117 9.580479621887207 C1.2380132675170898 9.62324047088623 1.279841423034668 9.66600227355957 1.321669578552246 9.708763122558594 L1.321669578552246 10.12545108795166 C1.3092635869979858 10.155834197998047 1.296857476234436 10.186216354370117 1.2844514846801758 10.216599464416504 L1.2844514846801758 10.216599464416504"></path>
<path fill="none" stroke="black" stroke-width=".3" stroke-opacity="1.0"  filling="0" d="M1.2845344543457031 10.216736793518066 L1.2845344543457031 10.216736793518066 C1.2537580728530884 10.228667259216309 1.2229818105697632 10.240596771240234 1.1922054290771484 10.252527236938477 L0.9291343688964844 10.252527236938477 C0.8855130076408386 10.211119651794434 0.8418915867805481 10.169713020324707 0.7982702255249023 10.128305435180664 L0.7982702255249023 9.708900451660156 C0.8191475868225098 9.652852058410645 0.8684776425361633 9.603528022766113 0.9237260818481445 9.58061695098877 L1.1962671279907227 9.58061695098877 C1.2380952835083008 9.623377799987793 1.279923439025879 9.666139602661133 1.321751594543457 9.708900451660156 L1.321751594543457 10.125588417053223 C1.3093458414077759 10.15597152709961 1.2969402074813843 10.18635368347168 1.2845344543457031 10.216736793518066 L1.2845344543457031 10.216736793518066"></path></svg>