<svg xmlns="http://www.w3.org/2000/svg" viewBox="0.0 0.0 24.0 24.0" height="200px" width="200px"><path fill="none" stroke="black" stroke-width=".3" stroke-opacity="1.0"  filling="0" d="M0.8397912979125977 10.073511123657227 L0.9849777221679688 10.214162826538086 C0.988104522228241 10.209580421447754 0.9912312626838684 10.204998016357422 0.9943580627441406 10.20041561126709 L0.9970541000366211 10.3554105758667 C0.9742371439933777 10.331392288208008 0.9514201283454895 10.307373046875 0.9286031723022461 10.283354759216309 L0.8397912979125977 10.641056060791016 L0.8397912979125977 10.073511123657227"></path>
<path fill="none" stroke="black" stroke-width=".3" stroke-opacity="1.0"  filling="0" d="M0.9978666305541992 10.45510482788086 L0.9978666305541992 10.45510482788086 C1.0356327295303345 10.468701362609863 1.0733989477157593 10.482297897338867 1.1111650466918945 10.495894432067871 L1.2000007629394531 10.617356300354004 C1.185542106628418 11.15152645111084 0.47103244066238403 10.566255569458008 0.9978666305541992 10.45510482788086 L0.9978666305541992 10.45510482788086"></path>
<path fill="none" stroke="black" stroke-width=".3" stroke-opacity="1.0"  filling="0" d="M0.9978666305541992 10.45510482788086 L0.9978666305541992 10.45510482788086 C1.0356327295303345 10.468701362609863 1.0733989477157593 10.482297897338867 1.1111650466918945 10.495894432067871 L1.2000007629394531 10.617356300354004 C1.185542106628418 11.15152645111084 0.47103244066238403 10.566255569458008 0.9978666305541992 10.45510482788086 L0.9978666305541992 10.45510482788086"></path>
<path fill="none" stroke="black" stroke-width=".3" stroke-opacity="1.0"  filling="0" d="M0.9978666305541992 10.45510482788086 L0.9978666305541992 10.45510482788086 C1.0356327295303345 10.468701362609863 1.0733989477157593 10.482297897338867 1.1111650466918945 10.495894432067871 L1.2000007629394531 10.617356300354004 C1.185542106628418 11.15152645111084 0.47103244066238403 10.566255569458008 0.9978666305541992 10.45510482788086 L0.9978666305541992 10.45510482788086"></path>
<path fill="none" stroke="black" stroke-width=".3" stroke-opacity="1.0"  filling="0" d="M0.27281951904296875 10.460546493530273 L0.3807249069213867 10.460546493530273 C0.4735645055770874 10.579524993896484 0.74421226978302 10.582237243652344 0.8334674835205078 10.460546493530273 L0.8334674835205078 10.460546493530273 C0.8185977935791016 10.617363929748535 0.946379542350769 10.930999755859375 0.7888584136962891 10.930999755859375 C0.556091845035553 10.930999755859375 0.4448324739933014 10.617363929748535 0.27281951904296875 10.460546493530273 L0.27281951904296875 10.460546493530273"></path>
<path fill="none" stroke="black" stroke-width=".3" stroke-opacity="1.0"  filling="0" d="M0.8736839294433594 10.460546493530273 L0.9625177383422852 10.654518127441406 C0.9718578457832336 10.7998685836792 1.102577567100525 10.789140701293945 1.111166000366211 10.64816951751709 L1.2000007629394531 10.673540115356445 C1.1754577159881592 10.898674964904785 0.9043900370597839 10.906076431274414 0.8736839294433594 10.679889678955078 L0.8736839294433594 10.460546493530273"></path>
<path fill="none" stroke="black" stroke-width=".3" stroke-opacity="1.0"  filling="0" d="M0.8737077713012695 10.460546493530273 L0.9625177383422852 10.654518127441406 C0.9718578457832336 10.7998685836792 1.102577567100525 10.789140701293945 1.111166000366211 10.64816951751709 L1.2000007629394531 10.673540115356445 C1.175460696220398 10.898648262023926 0.904333233833313 10.906107902526855 0.8737077713012695 10.679889678955078 L0.8737077713012695 10.460546493530273"></path>
<path fill="none" stroke="black" stroke-width=".3" stroke-opacity="1.0"  filling="0" d="M1.2000007629394531 10.460546493530273 L1.1998090744018555 10.770513534545898 C1.200197696685791 10.918701171875 1.2906941175460815 10.892974853515625 1.4230175018310547 10.894124031066895 L1.2586908340454102 10.992242813110352 C1.1279027462005615 10.946379661560059 1.109453797340393 10.927488327026367 1.1043634414672852 10.791278839111328 L1.103933334350586 10.460546493530273"></path>
<path fill="none" stroke="black" stroke-width=".3" stroke-opacity="1.0"  filling="0" d="M1.2000007629394531 10.460546493530273 L1.2000007629394531 10.664494514465332 C1.2077252864837646 10.752026557922363 1.227757215499878 10.755582809448242 1.3156137466430664 10.763114929199219 L1.3156137466430664 10.85171127319336 C1.3012456893920898 10.851544380187988 1.2868776321411133 10.851377487182617 1.2725095748901367 10.851210594177246 L1.2634391784667969 10.851210594177246 C1.1936581134796143 10.82542610168457 1.1341347694396973 10.758810043334961 1.1111650466918945 10.6880521774292 L1.1111650466918945 10.460546493530273"></path>
<path fill="none" stroke="black" stroke-width=".3" stroke-opacity="1.0"  filling="0" d="M1.114792823791504 10.650890350341797 L1.114792823791504 10.650890350341797 C1.0131099224090576 11.215510368347168 1.0039244890213013 10.096806526184082 1.114792823791504 10.650890350341797 L1.114792823791504 10.650890350341797"></path>
<path fill="none" stroke="black" stroke-width=".3" stroke-opacity="1.0"  filling="0" d="M1.114792823791504 10.650890350341797 L1.114792823791504 10.650890350341797 C1.0131099224090576 11.215510368347168 1.0039244890213013 10.096806526184082 1.114792823791504 10.650890350341797 L1.114792823791504 10.650890350341797"></path>
<path fill="none" stroke="black" stroke-width=".3" stroke-opacity="1.0"  filling="0" d="M1.114792823791504 10.650890350341797 L1.114792823791504 10.650890350341797 C1.0131099224090576 11.215510368347168 1.0039244890213013 10.096806526184082 1.114792823791504 10.650890350341797 L1.114792823791504 10.650890350341797"></path></svg>