<svg xmlns="http://www.w3.org/2000/svg" viewBox="0.0 0.0 24.0 24.0" height="200px" width="200px"><path fill="none" stroke="black" stroke-width=".3" stroke-opacity="1.0"  filling="0" d="M163.1999969482422 3.6986541748046875 L163.1999969482422 11.023370742797852 L163.1999969482422 18.348087310791016 L163.1999969482422 25.672805786132812 L163.1999969482422 32.99752426147461 L163.1999969482422 40.32223892211914 L163.1999969482422 47.64695739746094 L163.1999969482422 54.97167205810547 L163.1999969482422 62.296390533447266 L163.1999969482422 69.62110900878906 L163.1999969482422 76.9458236694336 L163.1999969482422 84.27053833007812 L163.1999969482422 91.59526062011719 L163.1999969482422 98.91997528076172 L163.1999969482422 106.24468994140625 L163.1999969482422 113.56940460205078 L163.1999969482422 120.89412689208984 L163.1999969482422 128.21884155273438 L155.83636474609375 128.21884155273438 L148.47271728515625 128.21884155273438 L141.1090850830078 128.21884155273438 L133.74545288085938 128.21884155273438 L126.3818130493164 128.21884155273438 L119.01818084716797 128.21884155273438 L111.65454864501953 128.21884155273438 L104.29090118408203 128.21884155273438 L96.92726135253906 128.21884155273438 L89.56363677978516 128.21884155273438 L82.19999694824219 128.21884155273438 L74.83636474609375 128.21884155273438 L67.47272491455078 128.21884155273438 L60.109092712402344 128.21884155273438 L52.745452880859375 128.21884155273438 L45.38181686401367 128.21884155273438 L38.01818084716797 128.21884155273438 L30.6545467376709 128.21884155273438 L23.290908813476562 128.21884155273438 L15.927273750305176 128.21884155273438 L8.563636779785156 128.21884155273438 L1.2000007629394531 128.21884155273438 L1.2000007629394531 120.89412689208984 L1.2000007629394531 113.56940460205078 L1.2000007629394531 106.24468994140625 L1.2000007629394531 98.91997528076172 L1.2000007629394531 91.59526062011719 L1.2000007629394531 84.27053833007812 L1.2000007629394531 76.9458236694336 L1.2000007629394531 69.62110900878906 L1.2000007629394531 62.296390533447266 L1.2000007629394531 54.97167205810547 L1.2000007629394531 47.64695739746094 L1.2000007629394531 40.32223892211914 L1.2000007629394531 32.99752426147461 L1.2000007629394531 25.672805786132812 L1.2000007629394531 18.348087310791016 L1.2000007629394531 11.023370742797852 L1.2000007629394531 3.6986541748046875 L8.563636779785156 3.6986541748046875 L15.927273750305176 3.6986541748046875 L23.290908813476562 3.6986541748046875 L30.6545467376709 3.6986541748046875 L38.01818084716797 3.6986541748046875 L45.38181686401367 3.6986541748046875 L52.745452880859375 3.6986541748046875 L60.109092712402344 3.6986541748046875 L67.47272491455078 3.6986541748046875 L74.83636474609375 3.6986541748046875 L82.19999694824219 3.6986541748046875 L89.56363677978516 3.6986541748046875 L96.92726135253906 3.6986541748046875 L104.29090118408203 3.6986541748046875 L111.65454864501953 3.6986541748046875 L119.01818084716797 3.6986541748046875 L126.3818130493164 3.6986541748046875 L133.74545288085938 3.6986541748046875 L141.1090850830078 3.6986541748046875 L148.47271728515625 3.6986541748046875 L155.83636474609375 3.6986541748046875 L163.1999969482422 3.6986541748046875"></path>
<path fill="none" stroke="black" stroke-width=".3" stroke-opacity="1.0"  filling="0" d="M122.48536682128906 45.4274787902832 L120.44203186035156 46.12559127807617 C118.1486587524414 46.78129959106445 115.99849700927734 47.2547492980957 113.89340209960938 47.52592086791992 C111.78829956054688 47.797088623046875 109.72826385498047 47.8659782409668 107.61514282226562 47.712554931640625 C105.50201416015625 47.55912780761719 103.33580017089844 47.18339538574219 101.01835632324219 46.5653190612793 L99.53084564208984 46.12559127807617 C99.02949523925781 45.95931625366211 98.52815246582031 45.79303741455078 98.02680206298828 45.62676239013672 L93.5477294921875 44.096683502197266 C91.23348999023438 43.38298797607422 89.08354949951172 42.8666877746582 86.98535919189453 42.57077407836914 C84.88716125488281 42.27485656738281 82.84071350097656 42.19933319091797 80.73345184326172 42.3671875 C78.62619018554688 42.53504180908203 76.4581069946289 42.94627380371094 74.11665344238281 43.62388610839844 L70.37826538085938 44.87474060058594 L66.6398696899414 46.12559127807617 C64.3465347290039 46.781822204589844 62.19622039794922 47.255332946777344 60.09088134765625 47.52638626098633 C57.98554229736328 47.79743957519531 55.9251708984375 47.86603546142578 53.81172180175781 47.71243667602539 C51.698272705078125 47.558837890625 49.53173828125 47.18304443359375 47.214073181152344 46.5653190612793 L45.72866439819336 46.12559127807617 C45.044288635253906 45.90053939819336 44.36176681518555 45.6695556640625 43.6832275390625 45.4274787902832 L46.69131851196289 43.86643981933594 L47.36533737182617 44.0711784362793 C49.28362274169922 44.6225700378418 51.085289001464844 45.0190315246582 52.85087966918945 45.24778366088867 C54.61647033691406 45.476531982421875 56.34598922729492 45.53757095336914 58.119972229003906 45.418113708496094 C59.893959045410156 45.29865264892578 61.71240997314453 44.998695373535156 63.6558723449707 44.50545883178711 L68.13872528076172 43.03852081298828 L72.62158203125 41.57158660888672 C74.92488098144531 40.899147033691406 77.0757827758789 40.41306686401367 79.1786117553711 40.13454055786133 C81.28144836425781 39.856014251708984 83.33621215820312 39.78504180908203 85.44722747802734 39.94281768798828 C87.55824279785156 40.1005973815918 89.72550964355469 40.48712158203125 92.05335235595703 41.12358856201172 L96.53585052490234 42.59738540649414 L101.01834869384766 44.07118225097656 C103.151123046875 44.666385650634766 105.12815856933594 45.068931579589844 107.0531005859375 45.2730712890625 C108.97804260253906 45.477210998535156 110.85089111328125 45.48295211791992 112.77528381347656 45.28455352783203 C114.6996841430664 45.086151123046875 116.67562866210938 44.68360900878906 118.80677032470703 44.07118225097656 L119.4793701171875 43.86644744873047 L122.4853515625 45.42748260498047"></path>
<path fill="none" stroke="black" stroke-width=".3" stroke-opacity="1.0"  filling="0" d="M132.23220825195312 51.09381866455078 L127.87820434570312 52.43120574951172 L123.5241928100586 53.76859664916992 C121.34866333007812 54.42868423461914 119.11463165283203 55.15104675292969 116.84854888916016 55.7042236328125 C114.58245849609375 56.25740051269531 112.28431701660156 56.641387939453125 109.98054504394531 56.624717712402344 C108.21220397949219 56.61192321777344 106.43992614746094 56.37954330444336 104.68966674804688 56.022743225097656 C102.93939971923828 55.66594696044922 101.21115112304688 55.184730529785156 99.53084564208984 54.67426300048828 L93.5477294921875 52.64657974243164 C91.85375213623047 52.10810852050781 90.12806701660156 51.57630157470703 88.37701416015625 51.179046630859375 C86.62596130371094 50.78179168701172 84.84952545166016 50.51909255981445 83.05404663085938 50.518829345703125 C81.25830078125 50.5185661315918 79.48246765136719 50.781166076660156 77.73204803466797 51.178497314453125 C75.98162841796875 51.57583236694336 74.2566146850586 52.10790252685547 72.56248474121094 52.64657974243164 L66.58076477050781 54.67426300048828 C64.8985824584961 55.18538284301758 63.168052673339844 55.666717529296875 61.41549301147461 56.023414611816406 C59.662933349609375 56.38011169433594 57.888343811035156 56.61216354370117 56.1180419921875 56.624717712402344 C53.815673828125 56.64104461669922 51.518043518066406 56.25697326660156 49.25246047973633 55.70383834838867 C46.98687744140625 55.15070724487305 44.75334167480469 54.42851257324219 42.57915496826172 53.76859664916992 L38.229976654052734 52.43120574951172 L33.88079833984375 51.09381866455078 C34.59134292602539 50.47716522216797 35.332069396972656 49.89368438720703 36.09790802001953 49.34721755981445 L41.3155517578125 50.91036605834961 L46.5331916809082 52.473514556884766 C48.73786926269531 53.08865737915039 50.797401428222656 53.52806091308594 52.809120178222656 53.767913818359375 C54.820838928222656 54.00776672363281 56.78474044799805 54.04806900024414 58.79815673828125 53.86501693725586 C60.81157302856445 53.68196105957031 62.87450408935547 53.275550842285156 65.08427429199219 52.621971130371094 L68.82337951660156 51.36698913574219 L72.5624771118164 50.112003326416016 C75.02738952636719 49.35509490966797 77.35905456542969 48.85005569458008 79.64631652832031 48.597320556640625 C81.93357849121094 48.34458541870117 84.17642211914062 48.344154357910156 86.46371459960938 48.59645462036133 C88.7509994506836 48.848758697509766 91.08271789550781 49.353797912597656 93.54772186279297 50.112003326416016 L97.28303527832031 51.36698913574219 L101.01835632324219 52.621971130371094 C103.22837829589844 53.275230407714844 105.29141998291016 53.6817741394043 107.30486297607422 53.86506652832031 C109.31831359863281 54.04835510253906 111.28215789794922 54.00839614868164 113.29379272460938 53.76865005493164 C115.30543518066406 53.52890396118164 117.36485290527344 53.08937072753906 119.56944274902344 52.473514556884766 L124.79157257080078 50.91036605834961 L130.01370239257812 49.34721755981445 C130.77796936035156 49.89650344848633 131.51889038085938 50.47982406616211 132.23220825195312 51.09381866455078 L132.23220825195312 51.09381866455078"></path>
<path fill="none" stroke="black" stroke-width=".3" stroke-opacity="1.0"  filling="0" d="M141.15394592285156 59.509864807128906 L141.15394592285156 59.509864807128906 C138.5546112060547 59.12141418457031 136.12075805664062 59.144569396972656 133.71238708496094 59.46289825439453 C131.30401611328125 59.781227111816406 128.921142578125 60.39473342895508 126.42375946044922 61.18699264526367 L120.44204711914062 63.21449661254883 C118.00454711914062 63.95774459838867 115.68104553222656 64.4535140991211 113.39555358886719 64.70153045654297 C111.11006164550781 64.94954681396484 108.86257934570312 64.94981384277344 106.57711791992188 64.70206451416016 C104.29167175292969 64.45431518554688 101.96824645996094 63.95854949951172 99.5308609008789 63.21449661254883 L93.54772186279297 61.18699264526367 C91.86160278320312 60.65179443359375 90.13987731933594 60.12016296386719 88.39288330078125 59.72233200073242 C86.64588165283203 59.324501037597656 84.87361145019531 59.06047058105469 83.0864028930664 59.06047058105469 C81.29861450195312 59.06047058105469 79.5257797241211 59.32451629638672 77.7781982421875 59.722354888916016 C76.03062438964844 60.12019348144531 74.30830383300781 60.651824951171875 72.62156677246094 61.18699264526367 L66.63985443115234 63.21449661254883 C64.20259094238281 63.95772933959961 61.87913131713867 64.45347595214844 59.593605041503906 64.70148468017578 C57.30807876586914 64.94949340820312 55.06048583984375 64.94975280761719 52.77495193481445 64.7020034790039 C50.489418029785156 64.45426177978516 48.16594696044922 63.95851135253906 45.72865295410156 63.21449661254883 L39.74624252319336 61.18699264526367 C37.248966217041016 60.39488220214844 34.866188049316406 59.78137969970703 32.45793151855469 59.4630126953125 C30.04967498779297 59.14464569091797 27.61594009399414 59.121421813964844 25.016746520996094 59.509864807128906 L25.264225006103516 59.09353256225586 C25.77358055114746 58.309112548828125 26.327800750732422 57.55240249633789 26.917957305908203 56.826820373535156 L26.917957305908203 56.826820373535156 C29.103946685791016 56.57502746582031 31.271373748779297 56.712890625 33.41212844848633 57.074066162109375 C35.552879333496094 57.435245513916016 37.666954040527344 58.019737243652344 39.74624252319336 58.661190032958984 L45.728660583496094 60.682010650634766 C48.01274490356445 61.40559387207031 50.16123580932617 61.9288444519043 52.26776123046875 62.22871398925781 C54.374290466308594 62.52858352661133 56.43885040283203 62.605072021484375 58.55506896972656 62.43511962890625 C60.67129135131836 62.265167236328125 62.83917236328125 61.848777770996094 65.15234375 61.16289520263672 L68.886962890625 59.912044525146484 L72.62157440185547 58.66119384765625 C75.08781433105469 57.904239654541016 77.41297912597656 57.399444580078125 79.69110870361328 57.14697265625 C81.96923828125 56.89449691772461 84.20032501220703 56.89434051513672 86.47840881347656 57.14665985107422 C88.75650024414062 57.39897918701172 91.08158874511719 57.903770446777344 93.54772186279297 58.66119384765625 L97.28303527832031 59.912044525146484 L101.01835632324219 61.16289520263672 C103.33157348632812 61.84876251220703 105.49946594238281 62.26502990722656 107.61567687988281 62.43486404418945 C109.73189544677734 62.604698181152344 111.79643249511719 62.52809524536133 113.90294647216797 62.228233337402344 C116.00946044921875 61.928367614746094 118.15794372558594 61.405235290527344 120.44204711914062 60.682010650634766 L126.42375946044922 58.661190032958984 C128.5056610107422 58.01866149902344 130.6205291748047 57.43513870239258 132.76205444335938 57.07471466064453 C134.90357971191406 56.714290618896484 137.07177734375 56.57696533203125 139.26031494140625 56.826820373535156 L139.26031494140625 56.826820373535156 C139.8441619873047 57.55527877807617 140.39820861816406 58.309669494628906 140.90524291992188 59.09353256225586 L141.15394592285156 59.509864807128906"></path>
<path fill="none" stroke="black" stroke-width=".3" stroke-opacity="1.0"  filling="0" d="M83.20460510253906 73.05965423583984 L83.20460510253906 73.05965423583984 C84.56916046142578 73.22754669189453 85.83621215820312 73.49484252929688 86.93770599365234 74.04496765136719 C88.0392074584961 74.59510040283203 88.97515869140625 75.42807006835938 89.6775131225586 76.7273178100586 C90.5948715209961 78.42427825927734 90.84333801269531 80.282958984375 90.54627227783203 82.00700378417969 C90.24921417236328 83.73104858398438 89.40663146972656 85.32046508789062 88.14189910888672 86.47888946533203 C86.87715911865234 87.63731384277344 85.19027709960938 88.36475372314453 83.20460510253906 88.3648452758789 C81.21913146972656 88.36493682861328 79.5325927734375 87.63756561279297 78.2681655883789 86.47918701171875 C77.00373840332031 85.32080841064453 76.16142272949219 83.73141479492188 75.86441802978516 82.00746154785156 C75.56741333007812 80.28350830078125 75.81571197509766 78.42498779296875 76.73250579833984 76.72835540771484 C77.43460845947266 75.42903137207031 78.3703842163086 74.59585571289062 79.47175598144531 74.0455093383789 C80.57313537597656 73.49516296386719 81.84010314941406 73.22764587402344 83.20460510253906 73.05965423583984 L83.20460510253906 73.05965423583984"></path>
<path fill="none" stroke="black" stroke-width=".3" stroke-opacity="1.0"  filling="0" d="M69.77090454101562 80.71092987060547 L69.77090454101562 80.71092987060547 C69.93994140625 78.70767211914062 70.39957427978516 76.86680603027344 71.2568588256836 75.24993133544922 C72.11414337158203 73.633056640625 73.36907958984375 72.24017333984375 75.12873077392578 71.13288116455078 C77.12779235839844 69.87493896484375 79.47178649902344 69.17705535888672 81.86332702636719 69.00470733642578 C84.2548599243164 68.83235931396484 86.69393157958984 69.18555450439453 88.88314819335938 70.02975463867188 C91.07235717773438 70.87396240234375 93.01171875 72.20917510986328 94.40381622314453 74.0008773803711 C95.79591369628906 75.79258728027344 96.64075469970703 78.040771484375 96.64094543457031 80.71092987060547 C96.6411361694336 83.38269805908203 95.79682922363281 85.6327133178711 94.4051513671875 87.42613983154297 C93.01347351074219 89.21956634521484 91.07443237304688 90.55640411376953 88.88514709472656 91.40182495117188 C86.69586181640625 92.24723815917969 84.25634765625 92.60123443603516 81.86371612548828 92.4289779663086 C79.47108459472656 92.2567138671875 77.12535095214844 91.55819702148438 75.1236343383789 90.29859161376953 C73.3625717163086 89.19041442871094 72.10861206054688 87.79557800292969 71.2528076171875 86.17675018310547 C70.39700317382812 84.55791473388672 69.9393539428711 82.715087890625 69.7708969116211 80.7109375 L69.7708969116211 80.7109375"></path>
<path fill="none" stroke="black" stroke-width=".3" stroke-opacity="1.0"  filling="0" d="M37.07145690917969 80.7624740600586 L37.07145690917969 74.21385955810547 C35.036651611328125 73.50249481201172 32.942840576171875 72.9239273071289 30.77912139892578 73.51238250732422 C28.292509078979492 74.18865203857422 26.781238555908203 76.23307037353516 26.26168441772461 78.5712661743164 C25.742128372192383 80.90946197509766 26.21428680419922 83.54142761230469 27.694534301757812 85.39279174804688 C29.228357315063477 87.31116485595703 31.525959014892578 88.09029388427734 33.910343170166016 88.16011810302734 C35.378753662109375 88.20311737060547 36.794456481933594 87.9302978515625 38.1667594909668 87.49293518066406 C39.539066314697266 87.05557250976562 40.867977142333984 86.45367431640625 42.162811279296875 85.83851623535156 L42.162811279296875 90.19183349609375 C40.718505859375 90.75230407714844 39.29063415527344 91.28788757324219 37.830711364746094 91.67606353759766 C36.370792388916016 92.06423950195312 34.878822326660156 92.30499267578125 33.30632781982422 92.27579498291016 C31.572452545166016 92.24359130859375 29.820968627929688 92.037353515625 28.16952896118164 91.54386138916016 C26.518089294433594 91.05037689208984 24.966690063476562 90.26963806152344 23.632986068725586 89.08844757080078 C22.052474975585938 87.68867492675781 20.985462188720703 85.828369140625 20.439882278442383 83.8121566772461 C19.894302368164062 81.79594421386719 19.87015151977539 79.62384033203125 20.37535858154297 77.6004638671875 C20.880569458007812 75.57708740234375 21.915138244628906 73.70245361328125 23.486995697021484 72.28118133544922 C25.274045944213867 70.66533660888672 27.375221252441406 69.7533187866211 29.59828758239746 69.36726379394531 C31.821353912353516 68.98121643066406 34.16630935668945 69.12113952636719 36.44091796875 69.60916900634766 C38.71552276611328 70.09720611572266 40.91978454589844 70.933349609375 42.861454010009766 71.93975830078125 L42.861454010009766 76.35111999511719 L42.861454010009766 80.7624740600586 L37.07145690917969 80.7624740600586"></path>
<path fill="none" stroke="black" stroke-width=".3" stroke-opacity="1.0"  filling="0" d="M47.66416931152344 91.63748168945312 L47.66416931152344 84.35675048828125 L47.66416931152344 77.0760269165039 L47.66416931152344 69.79529571533203 L53.3634033203125 69.79529571533203 L53.3634033203125 75.70207977294922 L53.3634033203125 81.60885620117188 L53.3634033203125 87.51564025878906 L55.821834564208984 87.51564025878906 C57.09218215942383 87.39615631103516 58.26934051513672 87.49301147460938 59.36261749267578 86.71542358398438 C61.011600494384766 85.54259490966797 60.79325866699219 82.69351959228516 59.32556915283203 81.48072052001953 C58.248046875 80.59033203125 57.37059020996094 80.6929702758789 56.03624725341797 80.51991271972656 L54.14330291748047 80.55281066894531 L58.10261917114258 75.17405700683594 L62.06193542480469 69.79529571533203 L69.3475341796875 69.79529571533203 L65.7166976928711 74.18606567382812 L62.08585739135742 78.57684326171875 C63.89363098144531 79.67692565917969 65.41778564453125 81.4887466430664 66.03572082519531 83.47621154785156 C66.65365600585938 85.46366882324219 66.36537170410156 87.62677001953125 64.54829406738281 89.42938995361328 C63.546302795410156 90.42340087890625 62.306419372558594 90.93943786621094 60.98951721191406 91.22496795654297 C59.67261505126953 91.51049041748047 58.27869415283203 91.56550598144531 56.9686393737793 91.63748168945312 L52.316402435302734 91.63748168945312 L47.66416549682617 91.63748168945312"></path>
<path fill="none" stroke="black" stroke-width=".3" stroke-opacity="1.0"  filling="0" d="M100.7029800415039 91.63748168945312 L100.70298767089844 84.35675048828125 L100.70298767089844 77.0760269165039 L100.7029800415039 69.79529571533203 L106.4009780883789 69.79529571533203 L106.4009780883789 74.46432495117188 L106.4009780883789 79.13336181640625 L111.43586730957031 79.13336181640625 L116.47076416015625 79.13336181640625 L116.47076416015625 74.46432495117188 L116.47076416015625 69.79529571533203 L122.16999053955078 69.79529571533203 L122.16999816894531 77.0760269165039 L122.16999816894531 84.35675048828125 L122.16999053955078 91.63748168945312 L116.47076416015625 91.63748168945312 L116.47076416015625 87.59989929199219 L116.47076416015625 83.56230926513672 L111.43586730957031 83.56230926513672 L106.4009780883789 83.56230926513672 L106.4009780883789 87.59989929199219 L106.4009780883789 91.63748168945312 L100.7029800415039 91.63748168945312"></path>
<path fill="none" stroke="black" stroke-width=".3" stroke-opacity="1.0"  filling="0" d="M128.25338745117188 91.63748168945312 L128.25338745117188 84.35675048828125 L128.25338745117188 77.0760269165039 L128.25338745117188 69.79529571533203 L133.71697998046875 69.79529571533203 L139.18057250976562 69.79529571533203 L144.6441650390625 69.79529571533203 L144.6441650390625 74.07368469238281 L139.29364013671875 74.07368469238281 L133.943115234375 74.07368469238281 L133.943115234375 79.26457977294922 L137.87762451171875 79.26457977294922 L141.81214904785156 79.26457977294922 L141.81214904785156 83.37885284423828 L137.87762451171875 83.37885284423828 L133.943115234375 83.37885284423828 L133.943115234375 87.35769653320312 L138.67019653320312 87.35769653320312 L143.39727783203125 87.35769653320312 L143.39727783203125 91.63748168945312 L138.3493194580078 91.63748168945312 L133.30136108398438 91.63748168945312 L128.25338745117188 91.63748168945312"></path></svg>