<svg xmlns="http://www.w3.org/2000/svg" viewBox="0.0 0.0 24.0 24.0" height="200px" width="200px"><path fill="none" stroke="black" stroke-width=".3" stroke-opacity="1.0"  filling="0" d="M8.362590789794922 19.687759399414062 L8.362590789794922 19.687759399414062 C8.52423095703125 19.74779510498047 8.685871124267578 19.807830810546875 8.847511291503906 19.86786651611328 L8.836244583129883 19.863082885742188 C8.85395336151123 19.871402740478516 8.872152328491211 19.878816604614258 8.889145851135254 19.888513565063477 L9.110503196716309 19.785757064819336 L9.309194564819336 21.89981460571289 L8.977828979492188 22.450626373291016 L8.511054992675781 22.031784057617188 L8.081521987915039 22.434965133666992 C8.068089485168457 22.41191864013672 8.054656982421875 22.388870239257812 8.041224479675293 22.36582374572754 L8.039994239807129 22.363916397094727 C7.951234817504883 22.25196647644043 7.863190650939941 22.132360458374023 7.74338960647583 22.054523468017578 L7.738015651702881 22.051542282104492 C7.6693339347839355 22.02544593811035 7.4840407371521 22.039403915405273 7.6005048751831055 22.132183074951172 L7.609289646148682 22.132183074951172 C7.6384406089782715 22.144493103027344 7.665804386138916 22.161497116088867 7.6906514167785645 22.18109130859375 L7.693741798400879 22.186439514160156 C7.661830425262451 22.461713790893555 7.405229091644287 22.333892822265625 7.3707804679870605 22.123409271240234 L7.69068717956543 21.496301651000977 C7.6736249923706055 21.4780330657959 7.6565632820129395 21.45976448059082 7.639501094818115 21.441495895385742 L7.644465923309326 21.448932647705078 C7.555337905883789 21.30155372619629 7.466209888458252 21.154172897338867 7.377081871032715 21.006793975830078 L7.368097305297852 20.969745635986328 C7.357529640197754 20.92671012878418 7.346961498260498 20.8836727142334 7.3363938331604 20.84063720703125 L7.335124969482422 20.835285186767578 C7.333024024963379 20.740808486938477 7.330923557281494 20.646333694458008 7.328822612762451 20.551856994628906 L7.329328536987305 20.547809600830078 C7.34588098526001 20.456514358520508 7.362432956695557 20.36522102355957 7.378985404968262 20.27392578125 L7.379491329193115 20.272724151611328 C7.682790279388428 19.81830596923828 7.77689790725708 19.787384033203125 8.362667083740234 19.68871307373047 L8.362667083740234 19.68871307373047"></path>
<path fill="none" stroke="black" stroke-width=".3" stroke-opacity="1.0"  filling="0" d="M8.357131958007812 19.746009826660156 L8.357131958007812 19.746009826660156 C8.50966739654541 19.802349090576172 8.662203788757324 19.85869026184082 8.814739227294922 19.915029525756836 L8.826006889343262 19.919570922851562 C8.862886428833008 19.939176559448242 8.869796752929688 19.945884704589844 8.912714958190918 19.94057273864746 L9.237115859985352 21.91073989868164 L8.964765548706055 22.36337661743164 L8.507540702819824 21.953136444091797 L8.112577438354492 22.37655258178711 C8.1044921875 22.3626766204834 8.096407890319824 22.34880256652832 8.088322639465332 22.33492660522461 L8.087972640991211 22.33431625366211 C8.021950721740723 22.250843048095703 7.955929279327393 22.167369842529297 7.889907360076904 22.08389663696289 L7.885069370269775 22.07950782775879 C7.792156219482422 22.019916534423828 7.742656707763672 21.987226486206055 7.639266490936279 21.9660587310791 L7.633039474487305 21.96561050415039 C7.578977584838867 22.017362594604492 7.553439617156982 22.1370792388916 7.607637405395508 22.188688278198242 L7.598853588104248 22.18853187561035 C7.613852024078369 22.195430755615234 7.628408432006836 22.203536987304688 7.641825199127197 22.213157653808594 L7.641825199127197 22.213157653808594 C7.636466979980469 22.2449893951416 7.609152317047119 22.27128028869629 7.582808494567871 22.289932250976562 L7.579714298248291 22.290847778320312 C7.543872833251953 22.284425735473633 7.508030891418457 22.278005599975586 7.472189426422119 22.271583557128906 L7.469771862030029 22.269676208496094 C7.445577621459961 22.225706100463867 7.435846328735352 22.17462921142578 7.4277544021606445 22.125099182128906 L7.737489700317383 21.46847152709961 C7.722019672393799 21.451663970947266 7.706549167633057 21.434856414794922 7.691079139709473 21.418048858642578 L7.6861090660095215 21.41077995300293 C7.3545613288879395 20.863414764404297 7.267434597015381 20.541526794433594 7.637216567993164 19.98581314086914 L7.638454914093018 19.984615325927734 C7.7205810546875 19.93132972717285 7.802706718444824 19.878042221069336 7.884832859039307 19.824756622314453 L7.886666297912598 19.823841094970703 C8.04346752166748 19.79786491394043 8.20026969909668 19.77189064025879 8.357070922851562 19.745914459228516 L8.357070922851562 19.745914459228516"></path>
<path fill="none" stroke="black" stroke-width=".3" stroke-opacity="1.0"  filling="0" d="M11.176698684692383 20.03683090209961 L11.176698684692383 20.03683090209961 C11.1589994430542 20.159318923950195 11.141300201416016 20.281808853149414 11.123600959777832 20.404296875 L11.319515228271484 21.944541931152344 L10.996172904968262 22.424514770507812 C10.90997314453125 22.339523315429688 10.823774337768555 22.254531860351562 10.737574577331543 22.169540405273438 L10.735224723815918 22.167633056640625 C10.675000190734863 22.112943649291992 10.614775657653809 22.058256149291992 10.554551124572754 22.00356674194336 L10.523092269897461 21.975078582763672 C10.518141746520996 21.975078582763672 10.51576042175293 21.96842384338379 10.512048721313477 21.96514892578125 L10.512048721313477 21.96514892578125 C10.5079345703125 21.957611083984375 10.50722599029541 21.951976776123047 10.507853507995605 21.943374633789062 L10.528289794921875 21.903072357177734 C10.532745361328125 21.880727767944336 10.537200927734375 21.858381271362305 10.541656494140625 21.836036682128906 L10.575654029846191 20.246761322021484 C10.769241333007812 20.18651580810547 10.955887794494629 20.10268783569336 11.134674072265625 20.007080078125 L11.18796157836914 19.97576904296875"></path>
<path fill="none" stroke="black" stroke-width=".3" stroke-opacity="1.0"  filling="0" d="M15.514410018920898 19.98294448852539 L15.515952110290527 19.98309898376465 C15.91474723815918 20.387924194335938 15.643251419067383 20.648300170898438 15.245323181152344 20.24723243713379 L15.245323181152344 20.24468231201172 C15.334513664245605 20.1574649810791 15.423705101013184 20.070247650146484 15.512895584106445 19.983030319213867 L15.512895584106445 19.983030319213867"></path>
<path fill="none" stroke="black" stroke-width=".3" stroke-opacity="1.0"  filling="0" d="M14.595752716064453 19.990339279174805 L14.595752716064453 19.990339279174805 C14.68532657623291 20.075456619262695 14.77489948272705 20.160572052001953 14.864473342895508 20.245689392089844 L14.864473342895508 20.24615478515625 C14.77470874786377 20.338403701782227 14.684945106506348 20.430654525756836 14.59518051147461 20.522903442382812 L14.592366218566895 20.522903442382812 C14.50381088256836 20.433137893676758 14.415254592895508 20.34337043762207 14.326699256896973 20.253604888916016 L14.326854705810547 20.25060272216797 C14.416492462158203 20.16376495361328 14.50613021850586 20.076927185058594 14.595767974853516 19.990089416503906 L14.595767974853516 19.990089416503906"></path>
<path fill="none" stroke="black" stroke-width=".3" stroke-opacity="1.0"  filling="0" d="M15.51371955871582 20.011581420898438 L15.51371955871582 20.011581420898438 C16.076597213745117 20.581212997436523 14.948075294494629 20.56523323059082 15.51371955871582 20.011581420898438 L15.51371955871582 20.011581420898438"></path>
<path fill="none" stroke="black" stroke-width=".3" stroke-opacity="1.0"  filling="0" d="M18.855606079101562 21.03413963317871 L18.841825485229492 21.93196678161621 C18.608829498291016 22.075439453125 18.38712501525879 22.238798141479492 18.1800479888916 22.41765594482422 L18.141468048095703 22.417449951171875 C17.900312423706055 22.26045799255371 17.65915870666504 22.10346794128418 17.41800308227539 21.946475982666016 L17.404251098632812 21.904441833496094 C17.415010452270508 21.867965698242188 17.425769805908203 21.83148765563965 17.4365291595459 21.795011520385742 L17.44264030456543 21.21051788330078 C17.429397583007812 21.137752532958984 17.416156768798828 21.064985275268555 17.40291404724121 20.992219924926758 L17.75701141357422 20.80351448059082 L17.492300033569336 20.59514617919922 L17.753572463989258 20.012054443359375"></path>
<path fill="none" stroke="black" stroke-width=".3" stroke-opacity="1.0"  filling="0" d="M14.59531021118164 20.017959594726562 L14.59531021118164 20.017959594726562 C15.174626350402832 20.568740844726562 14.01659870147705 20.584081649780273 14.59531021118164 20.017959594726562 L14.59531021118164 20.017959594726562"></path>
<path fill="none" stroke="black" stroke-width=".3" stroke-opacity="1.0"  filling="0" d="M10.117280960083008 20.02120590209961 L10.176483154296875 19.991233825683594 C10.151159286499023 20.14295196533203 10.125834465026855 20.29467010498047 10.100510597229004 20.446388244628906 L10.323966026306152 21.925174713134766 L10.035572052001953 22.35796356201172 C9.947972297668457 22.27666473388672 9.860372543334961 22.195363998413086 9.772772789001465 22.114065170288086 L9.772616386413574 22.113908767700195 C9.686480522155762 22.045595169067383 9.600343704223633 21.977283477783203 9.51420783996582 21.90896987915039 L9.525477409362793 21.91375732421875 C9.485342025756836 21.877880096435547 9.505205154418945 21.862279891967773 9.527730941772461 21.819751739501953 L9.556727409362793 20.261667251586914 C9.747906684875488 20.192466735839844 9.93635368347168 20.11396026611328 10.117280960083008 20.02120590209961 L10.117280960083008 20.02120590209961"></path>
<path fill="none" stroke="black" stroke-width=".3" stroke-opacity="1.0"  filling="0" d="M15.512895584106445 20.040510177612305 L15.512895584106445 20.040510177612305 C15.611261367797852 20.139856338500977 15.614433288574219 20.361841201782227 15.514805793762207 20.459922790527344 L15.511953353881836 20.459922790527344 C15.41390323638916 20.360265731811523 15.413106918334961 20.138412475585938 15.512908935546875 20.040510177612305 L15.512908935546875 20.040510177612305"></path>
<path fill="none" stroke="black" stroke-width=".3" stroke-opacity="1.0"  filling="0" d="M14.593091011047363 20.046056747436523 L14.59593677520752 20.04621124267578 C15.104394912719727 20.530834197998047 14.089920997619629 20.545032501220703 14.593071937561035 20.0460262298584 L14.593071937561035 20.0460262298584"></path>
<path fill="none" stroke="black" stroke-width=".3" stroke-opacity="1.0"  filling="0" d="M17.76349639892578 20.059947967529297 L18.82727813720703 21.046932220458984 L18.82762908935547 21.907840728759766 C18.592947006225586 22.052438735961914 18.369604110717773 22.216995239257812 18.160987854003906 22.397171020507812 L18.160987854003906 22.397171020507812 C17.916696548461914 22.238235473632812 17.67240333557129 22.079299926757812 17.428112030029297 21.920364379882812 L17.428112030029297 21.920364379882812 C17.440412521362305 21.878379821777344 17.45271110534668 21.836397171020508 17.465011596679688 21.79441261291504 L17.471006393432617 21.212913513183594 C17.45679473876953 21.135162353515625 17.442583084106445 21.057409286499023 17.42837142944336 20.979658126831055 L17.81169319152832 20.810562133789062 L17.76349639892578 20.059947967529297"></path>
<path fill="none" stroke="black" stroke-width=".3" stroke-opacity="1.0"  filling="0" d="M11.113286972045898 20.082727432250977 L11.113286972045898 20.082727432250977 C11.097943305969238 20.191396713256836 11.082600593566895 20.300067901611328 11.067256927490234 20.408737182617188 L11.246976852416992 21.956703186035156 L11.011680603027344 22.36026382446289 C10.9313383102417 22.2812557220459 10.850995063781738 22.20224952697754 10.770652770996094 22.123241424560547 L10.773326873779297 22.125259399414062 C10.712146759033203 22.069808959960938 10.650965690612793 22.014358520507812 10.5897855758667 21.958908081054688 L10.573184967041016 21.943435668945312 C10.590635299682617 21.910249710083008 10.591181755065918 21.870609283447266 10.598398208618164 21.833816528320312 L10.611001968383789 20.294832229614258 C10.694910049438477 20.268667221069336 10.778817176818848 20.242504119873047 10.862725257873535 20.216339111328125 L10.863537788391113 20.216026306152344 C10.946745872497559 20.171525955200195 11.029953002929688 20.127023696899414 11.113161087036133 20.082523345947266 L11.113161087036133 20.082523345947266"></path>
<path fill="none" stroke="black" stroke-width=".3" stroke-opacity="1.0"  filling="0" d="M10.09455394744873 20.09666633605957 L10.09455394744873 20.09666633605957 C10.077619552612305 20.213424682617188 10.060684204101562 20.330181121826172 10.043749809265137 20.44693946838379 L10.048490524291992 22.29279327392578 C9.968213081359863 22.218311309814453 9.887934684753418 22.143827438354492 9.807657241821289 22.069345474243164 L9.807501792907715 22.069189071655273 C9.725759506225586 22.00438117980957 9.64401626586914 21.9395751953125 9.562273979187012 21.874767303466797 L9.562273979187012 21.874767303466797 C9.56946849822998 21.85955047607422 9.576662063598633 21.84433364868164 9.583856582641602 21.829116821289062 L9.592190742492676 20.308765411376953 C9.69265079498291 20.27228355407715 9.793110847473145 20.235803604125977 9.893570899963379 20.199321746826172 L9.89419174194336 20.199012756347656 C9.960909843444824 20.164888381958008 10.027628898620605 20.130765914916992 10.09434700012207 20.096641540527344 L10.09434700012207 20.096641540527344"></path>
<path fill="none" stroke="black" stroke-width=".3" stroke-opacity="1.0"  filling="0" d="M17.773052215576172 20.107364654541016 L18.79884910583496 21.059062957763672 L18.79920196533203 21.891769409179688 C18.687091827392578 21.960779190063477 18.574981689453125 22.0297908782959 18.462871551513672 22.098800659179688 L18.46052360534668 22.100709915161133 C18.36044692993164 22.187162399291992 18.26036834716797 22.27361297607422 18.16029167175293 22.360065460205078 L18.16029167175293 22.360065460205078 C17.927093505859375 22.208423614501953 17.69389533996582 22.056781768798828 17.460697174072266 21.905139923095703 L17.460697174072266 21.905139923095703 C17.47158432006836 21.867895126342773 17.482471466064453 21.830652236938477 17.493358612060547 21.793407440185547 L17.499282836914062 21.214527130126953 C17.487567901611328 21.14126205444336 17.475854873657227 21.067995071411133 17.464139938354492 20.99472999572754 L17.866363525390625 20.81711196899414 L17.56230926513672 20.577987670898438"></path>
<path fill="none" stroke="black" stroke-width=".3" stroke-opacity="1.0"  filling="0" d="M8.140375137329102 20.14969253540039 L8.140375137329102 20.14969253540039 C8.238517761230469 20.160348892211914 8.305648803710938 20.146617889404297 8.379493713378906 20.194950103759766 L7.752476692199707 21.403305053710938 C7.598630428314209 21.21537208557129 7.56080961227417 20.95355796813965 7.511109352111816 20.715824127197266 L7.516589164733887 20.701339721679688 C7.644686222076416 20.34024429321289 7.7487874031066895 20.37584686279297 8.14035701751709 20.14975929260254 L8.14035701751709 20.14975929260254"></path>
<path fill="none" stroke="black" stroke-width=".3" stroke-opacity="1.0"  filling="0" d="M8.143556594848633 20.20648193359375 L8.143556594848633 20.20648193359375 C8.201234817504883 20.212663650512695 8.258913040161133 20.218847274780273 8.316591262817383 20.22502899169922 L8.319428443908691 20.225786209106445 C8.321529388427734 20.22687530517578 8.323630332946777 20.227962493896484 8.32573127746582 20.22905158996582 L7.76652193069458 21.33163833618164 C7.734180450439453 21.29229164123535 7.701838970184326 21.252946853637695 7.669497489929199 21.213600158691406 L7.668797016143799 21.212383270263672 C7.618707180023193 20.970046997070312 7.573831558227539 20.68744659423828 7.692670822143555 20.47039031982422 L7.694850444793701 20.46784210205078 C7.844393730163574 20.38088607788086 7.993937015533447 20.293928146362305 8.14348030090332 20.206972122192383 L8.14348030090332 20.206972122192383"></path>
<path fill="none" stroke="black" stroke-width=".3" stroke-opacity="1.0"  filling="0" d="M8.537200927734375 20.253440856933594 L8.485664367675781 21.91219139099121 C8.32062816619873 21.73674964904785 8.117290496826172 21.585752487182617 7.892263412475586 21.499847412109375 L8.457207679748535 20.211830139160156"></path>
<path fill="none" stroke="black" stroke-width=".3" stroke-opacity="1.0"  filling="0" d="M9.56389045715332 20.288888931274414 L9.56389045715332 20.288888931274414 C9.756854057312012 20.21898651123047 9.947218894958496 20.140087127685547 10.129878044128418 20.0465087890625 L10.129878044128418 20.0465087890625 C10.110538482666016 20.17989158630371 10.091197967529297 20.31327247619629 10.071858406066895 20.4466552734375 L10.284897804260254 21.929216384887695 L10.055950164794922 22.338470458984375 C9.972976684570312 22.261474609375 9.510140419006348 21.935016632080078 9.555807113647461 21.82425308227539 L9.563892364501953 20.28887939453125"></path>
<path fill="none" stroke="black" stroke-width=".3" stroke-opacity="1.0"  filling="0" d="M8.480508804321289 20.29567527770996 L8.483034133911133 21.803531646728516 C8.403264999389648 21.727136611938477 8.323494911193848 21.650741577148438 8.243725776672363 21.5743465423584 L8.242098808288574 21.573429107666016 C8.140048027038574 21.53459358215332 8.037997245788574 21.495759963989258 7.935945987701416 21.456924438476562 L7.935945987701416 21.456924438476562"></path>
<path fill="none" stroke="black" stroke-width=".3" stroke-opacity="1.0"  filling="0" d="M3.6236705780029297 20.418771743774414 L3.6236705780029297 20.418771743774414 C3.626974105834961 20.41994285583496 3.6303632259368896 20.4211483001709 3.633213996887207 20.423187255859375 L4.34271764755249 20.895721435546875 C4.33030366897583 21.015342712402344 4.31788969039917 21.134965896606445 4.30547571182251 21.254587173461914 L4.317885875701904 21.988361358642578 L3.5594701766967773 22.42247772216797 C3.3063437938690186 22.242786407470703 3.0397796630859375 22.080961227416992 2.7647666931152344 21.936981201171875 L2.7729787826538086 21.932601928710938 C2.672638177871704 21.89066505432129 2.749243974685669 21.00489044189453 2.7575550079345703 20.834606170654297 L2.775883674621582 20.813007354736328 C2.8310070037841797 20.79142951965332 3.5650291442871094 20.41678237915039 3.598841667175293 20.467071533203125 L3.598841667175293 20.467071533203125 C3.6002426147460938 20.468063354492188 3.6016435623168945 20.46905517578125 3.6030445098876953 20.470046997070312 L3.6236705780029297 20.418865203857422"></path>
<path fill="none" stroke="black" stroke-width=".3" stroke-opacity="1.0"  filling="0" d="M2.460545539855957 20.760997772216797 L2.458059310913086 20.779142379760742 C2.42411208152771 21.132244110107422 2.428849697113037 21.490137100219727 2.461878776550293 21.843326568603516 L1.655716896057129 22.423751831054688 C1.542014718055725 22.355058670043945 1.4283126592636108 22.28636360168457 1.314610481262207 22.217670440673828 L1.3132820129394531 22.21704864501953 C1.1928958892822266 22.164844512939453 1.072509765625 22.112642288208008 0.9521236419677734 22.06043815612793 L0.9334049224853516 22.028568267822266 C0.9515977501869202 21.851362228393555 0.9534040689468384 21.67377471923828 0.9593820571899414 21.495716094970703 L0.9593820571899414 21.494510650634766 C0.9611641764640808 21.359291076660156 0.9629462361335754 21.224071502685547 0.9647283554077148 21.088851928710938 L0.6822566986083984 20.926891326904297 L1.0693902969360352 20.424976348876953 L1.522989273071289 20.82681655883789 L1.9181432723999023 20.422679901123047"></path>
<path fill="none" stroke="black" stroke-width=".3" stroke-opacity="1.0"  filling="0" d="M15.064838409423828 20.427631378173828 L15.083552360534668 20.41370391845703 C15.178133964538574 20.49154281616211 15.272716522216797 20.569381713867188 15.367298126220703 20.647220611572266 L15.367453575134277 20.647377014160156 C15.498725891113281 20.728357315063477 15.629998207092285 20.809335708618164 15.761270523071289 20.890316009521484 L15.77409553527832 20.91952896118164 C15.76340103149414 21.004262924194336 15.752706527709961 21.088998794555664 15.742012023925781 21.17373275756836 L15.73306655883789 21.85231590270996 C15.656913757324219 22.161277770996094 15.226343154907227 22.23819351196289 14.987100601196289 22.448001861572266 L14.987850189208984 22.446298599243164 C14.890013694763184 22.570112228393555 14.718952178955078 22.280696868896484 14.589876174926758 22.18991470336914 L14.589176177978516 22.189605712890625 C14.44786548614502 22.12064552307129 14.206193923950195 22.12183952331543 14.17263412475586 21.968223571777344 L14.173140525817871 21.966020584106445 C14.206374168395996 21.602195739746094 14.221841812133789 21.2340145111084 14.189373970031738 20.870121002197266 L14.267077445983887 20.809226989746094 C14.532998085021973 20.68202781677246 14.798917770385742 20.55483055114746 15.064838409423828 20.427631378173828 L15.064838409423828 20.427631378173828"></path>
<path fill="none" stroke="black" stroke-width=".3" stroke-opacity="1.0"  filling="0" d="M19.84320831298828 20.453777313232422 L19.84320831298828 20.453777313232422 C20.013723373413086 20.635467529296875 20.20036506652832 20.804988861083984 20.405826568603516 20.94595718383789 L19.821592330932617 21.790307998657227 L20.18408966064453 21.961048126220703 L19.87831687927246 22.43661880493164 L19.071578979492188 21.99964141845703 C19.103290557861328 21.95696449279785 19.110374450683594 21.900087356567383 19.12104606628418 21.847999572753906 L19.134035110473633 21.148990631103516 C19.117700576782227 21.088144302368164 19.098812103271484 21.027172088623047 19.069866180419922 20.971214294433594 L19.084192276000977 20.93738555908203 C19.33292007446289 20.789669036865234 19.575122833251953 20.629037857055664 19.801734924316406 20.4492244720459 L19.82484245300293 20.42898941040039"></path>
<path fill="none" stroke="black" stroke-width=".3" stroke-opacity="1.0"  filling="0" d="M12.992096900939941 20.75529670715332 L13.37659740447998 20.452770233154297 L13.931417465209961 20.796754837036133 C13.913529396057129 20.898170471191406 13.895641326904297 20.999584197998047 13.877753257751465 21.10099983215332 L13.873973846435547 21.672706604003906 C13.880976676940918 21.7325496673584 13.887980461120605 21.792390823364258 13.894983291625977 21.85223388671875 L13.896068572998047 21.865392684936523 C13.807024955749512 22.155027389526367 13.423101425170898 22.24456214904785 13.194550514221191 22.443511962890625 L13.159433364868164 22.477848052978516 C13.15696907043457 22.481229782104492 13.152435302734375 22.482452392578125 13.148768424987793 22.484466552734375 L13.148768424987793 22.484466552734375 C13.144042015075684 22.485200881958008 13.139229774475098 22.48571014404297 13.134453773498535 22.485458374023438 L13.104087829589844 22.452625274658203 C13.033238410949707 22.35563087463379 12.90306568145752 22.268024444580078 12.82222843170166 22.20166778564453 L12.821528434753418 22.201356887817383 C12.69827651977539 22.140047073364258 12.57502555847168 22.0787353515625 12.451773643493652 22.017425537109375 L12.4307222366333 21.07815933227539 L12.073957443237305 20.832351684570312 L12.519915580749512 20.44292640686035"></path>
<path fill="none" stroke="black" stroke-width=".3" stroke-opacity="1.0"  filling="0" d="M16.666847229003906 20.74884796142578 L16.890687942504883 20.445751190185547 L17.391841888427734 20.84109878540039 L17.055891036987305 21.322002410888672 L16.690340042114258 21.055768966674805 L16.684425354003906 21.803102493286133 L16.931564331054688 21.932600021362305 L16.566394805908203 22.395174026489258 L16.034488677978516 22.077560424804688 C16.073184967041016 22.011640548706055 16.08367919921875 21.932344436645508 16.098472595214844 21.857349395751953 L15.953886985778809 20.955734252929688 L16.29747772216797 20.443115234375"></path>
<path fill="none" stroke="black" stroke-width=".3" stroke-opacity="1.0"  filling="0" d="M12.130666732788086 20.758670806884766 L12.125700950622559 21.72583770751953 L12.457635879516602 21.976032257080078 L12.153203010559082 22.436111450195312 C11.955992698669434 22.278194427490234 11.737062454223633 22.142223358154297 11.50364875793457 22.04553985595703 L11.506675720214844 22.046146392822266 C11.45534610748291 22.013916015625 11.51476001739502 21.951608657836914 11.530784606933594 21.908615112304688 L11.387160301208496 20.938541412353516 L11.664285659790039 20.443500518798828"></path>
<path fill="none" stroke="black" stroke-width=".3" stroke-opacity="1.0"  filling="0" d="M5.226285457611084 20.792137145996094 L5.542369365692139 20.50429916381836 C5.636080741882324 20.57808494567871 5.72979211807251 20.651872634887695 5.823503494262695 20.725658416748047 L5.825511455535889 20.72721290588379 C5.880870342254639 20.763099670410156 6.097339153289795 20.835424423217773 6.048598289489746 20.89881134033203 L6.260406017303467 21.97197723388672 L5.92560338973999 22.440670013427734 L5.511922836303711 22.092113494873047 L5.514250755310059 21.219482421875 L5.2455315589904785 21.028499603271484 L5.244208335876465 22.43054962158203 L4.640876293182373 22.233436584472656 L4.506611347198486 20.964513778686523 L4.787937641143799 20.444074630737305"></path>
<path fill="none" stroke="black" stroke-width=".3" stroke-opacity="1.0"  filling="0" d="M21.200908660888672 20.82439422607422 L21.200908660888672 20.82439422607422 C21.297636032104492 20.7103328704834 21.39366912841797 20.57640266418457 21.50763702392578 20.476037979125977 L21.54277801513672 20.479461669921875 C21.71909523010254 20.636808395385742 21.907453536987305 20.782154083251953 22.107114791870117 20.908571243286133 L22.282258987426758 21.976375579833984 L21.94802474975586 22.44409942626953 L21.529190063476562 22.123050689697266 L21.542560577392578 21.26361083984375 L21.242130279541016 21.020097732543945 L21.23892593383789 22.429973602294922 L20.649152755737305 22.235549926757812 L20.499988555908203 20.962600708007812 L20.825050354003906 20.46297836303711"></path>
<path fill="none" stroke="black" stroke-width=".3" stroke-opacity="1.0"  filling="0" d="M12.52208137512207 20.478607177734375 L12.963423728942871 20.77013397216797 L12.949995040893555 21.708234786987305 L13.345831871032715 21.938613891601562 L13.350263595581055 21.051624298095703 L13.006969451904297 20.84419822692871 L13.38103199005127 20.48746681213379 L13.90738296508789 20.781482696533203 C13.888086318969727 20.888397216796875 13.868789672851562 20.995309829711914 13.849493026733398 21.102224349975586 L13.845877647399902 21.67107582092285 C13.884943962097168 22.005203247070312 13.435091972351074 22.212034225463867 13.173890113830566 22.424026489257812 L13.139598846435547 22.45766830444336 C12.938199996948242 22.271284103393555 12.707182884216309 22.113107681274414 12.461487770080566 21.990901947021484 L12.119987487792969 20.829715728759766 L12.52208137512207 20.478607177734375"></path>
<path fill="none" stroke="black" stroke-width=".3" stroke-opacity="1.0"  filling="0" d="M3.6217546463012695 20.482650756835938 L4.284675121307373 20.90511703491211 C4.272706508636475 21.021621704101562 4.260737419128418 21.138126373291016 4.2487688064575195 21.25463104248047 L4.260611057281494 21.956626892089844 L3.578399658203125 22.36630630493164 C3.457822561264038 22.28074073791504 3.337245225906372 22.19517707824707 3.216668128967285 22.10961151123047 L3.216313362121582 22.109455108642578 C3.079247236251831 22.037769317626953 2.942180871963501 21.966083526611328 2.80511474609375 21.894397735595703 L2.80511474609375 21.894397735595703 C2.817192554473877 21.707988739013672 2.827322483062744 21.521778106689453 2.8375864028930664 21.335180282592773 L2.8375864028930664 21.334869384765625 C2.8314528465270996 21.17462158203125 2.824169158935547 21.01807975769043 2.814481735229492 20.858776092529297 L2.814481735229492 20.858776092529297 C3.0844645500183105 20.75314712524414 3.3849315643310547 20.65955924987793 3.6217899322509766 20.48271942138672 L3.6217899322509766 20.48271942138672"></path>
<path fill="none" stroke="black" stroke-width=".3" stroke-opacity="1.0"  filling="0" d="M11.67397403717041 20.484214782714844 L12.102147102355957 20.773658752441406 L12.097189903259277 21.73978042602539 L12.420405387878418 21.98346710205078 L12.17307186126709 22.415807723999023 C12.014620780944824 22.289064407348633 11.48671817779541 22.073427200317383 11.559103965759277 21.90772247314453 L11.67397403717041 20.484214782714844"></path>
<path fill="none" stroke="black" stroke-width=".3" stroke-opacity="1.0"  filling="0" d="M15.078780174255371 20.484371185302734 L15.078780174255371 20.484371185302734 C15.164978981018066 20.554719924926758 15.251178741455078 20.625070571899414 15.337377548217773 20.695419311523438 L15.337532997131348 20.695419311523438 C15.463648796081543 20.773330688476562 15.589765548706055 20.851240158081055 15.71588134765625 20.92915153503418 L15.71588134765625 20.92915153503418 C15.705694198608398 21.010704040527344 15.695508003234863 21.092254638671875 15.685320854187012 21.17380714416504 L15.676919937133789 21.832914352416992 C15.376937866210938 22.01336097717285 15.284465789794922 22.111980438232422 14.961538314819336 22.39396095275879 L14.961538314819336 22.39396095275879 C14.728528022766113 22.20978355407715 14.497673988342285 22.084253311157227 14.2298583984375 21.959280014038086 L14.2298583984375 21.959280014038086 C14.24908447265625 21.75135612487793 14.268310546875 21.54343032836914 14.28753662109375 21.335506439208984 L14.28753662109375 21.334585189819336 C14.27397632598877 21.183578491210938 14.260416984558105 21.03257179260254 14.246856689453125 20.88156509399414 L14.290388107299805 20.86117172241211 C14.55318832397461 20.73563003540039 14.815987586975098 20.610088348388672 15.078787803649902 20.484546661376953 L15.078787803649902 20.484546661376953"></path>
<path fill="none" stroke="black" stroke-width=".3" stroke-opacity="1.0"  filling="0" d="M16.30344009399414 20.485122680664062 L17.353271484375 20.84706687927246 L17.049091339111328 21.282272338867188 L16.662246704101562 21.00052833557129 L16.888071060180664 21.942140579223633 L16.558727264404297 22.359485626220703 L16.055713653564453 22.096641540527344 C16.07940101623535 22.016977310180664 16.103086471557617 21.937314987182617 16.126773834228516 21.857650756835938 L16.30344009399414 20.485122680664062"></path>
<path fill="none" stroke="black" stroke-width=".3" stroke-opacity="1.0"  filling="0" d="M4.796605587005615 20.487043380737305 L5.228559494018555 20.83032989501953 L5.523220539093018 20.525638580322266 C5.698861122131348 20.66362190246582 5.882819652557373 20.79236602783203 6.076432228088379 20.903736114501953 L6.2219367027282715 21.97665023803711 L5.9202351570129395 22.398954391479492 L5.217116832733154 20.97348976135254 L5.215836524963379 22.391128540039062 L4.669277667999268 22.212770462036133 L4.796605587005615 20.487043380737305"></path>
<path fill="none" stroke="black" stroke-width=".3" stroke-opacity="1.0"  filling="0" d="M1.9269285202026367 20.49506950378418 L2.400197982788086 20.790523529052734 C2.3843460083007812 20.95439338684082 2.3684940338134766 21.11826515197754 2.352642059326172 21.282135009765625 L2.352642059326172 21.284038543701172 C2.3699581623077393 21.4678955078125 2.3872745037078857 21.651752471923828 2.404590606689453 21.835609436035156 L1.6700496673583984 22.366596221923828 C1.560804009437561 22.300512313842773 1.4515584707260132 22.23442840576172 1.3423128128051758 22.168344497680664 L1.3421192169189453 22.168190002441406 C1.2252979278564453 22.117448806762695 1.1084766387939453 22.066709518432617 0.9916553497314453 22.015968322753906 L0.9916553497314453 22.015968322753906 C1.0066969394683838 21.842174530029297 1.0101701021194458 21.67200469970703 1.0161094665527344 21.49648666381836 L1.0161094665527344 21.495210647583008 C1.0179561376571655 21.35426139831543 1.0198026895523071 21.213314056396484 1.0216493606567383 21.072364807128906 L0.7668666839599609 20.910015106201172 L1.0795154571533203 20.504352569580078 L1.466649055480957 20.8059139251709 L1.4588165283203125 21.747499465942383 C1.5202133655548096 21.800899505615234 1.8131046295166016 21.946712493896484 1.8131046295166016 21.92800521850586 L1.8694448471069336 21.932958602905273 C1.869502067565918 21.931495666503906 1.8695592880249023 21.93003273010254 1.8696165084838867 21.928569793701172 L1.8697881698608398 21.928569793701172 C1.8697881698608398 21.927997589111328 1.8697881698608398 21.92742347717285 1.8697881698608398 21.926851272583008 L1.8789558410644531 21.00017547607422 L1.603933334350586 20.825231552124023"></path>
<path fill="none" stroke="black" stroke-width=".3" stroke-opacity="1.0"  filling="0" d="M19.817588806152344 20.50900650024414 L19.817588806152344 20.50900650024414 C19.90690803527832 20.604183197021484 19.99622917175293 20.69936180114746 20.085548400878906 20.794538497924805 L20.08625030517578 20.795162200927734 C20.175251007080078 20.8560848236084 20.264251708984375 20.917009353637695 20.353252410888672 20.97793197631836 L19.73482894897461 21.81198501586914 L20.101146697998047 21.98482322692871 L19.85782241821289 22.36355972290039 L19.13264274597168 22.010799407958984 C19.167871475219727 21.965572357177734 19.165971755981445 21.900938034057617 19.177715301513672 21.844825744628906 L19.190547943115234 21.143905639648438 C19.174949645996094 21.086036682128906 19.162452697753906 21.026018142700195 19.134204864501953 20.973155975341797 L19.134204864501953 20.973155975341797 C19.370962142944336 20.832448959350586 19.60175323486328 20.679828643798828 19.817527770996094 20.50867462158203 L19.817527770996094 20.50867462158203"></path>
<path fill="none" stroke="black" stroke-width=".3" stroke-opacity="1.0"  filling="0" d="M12.524686813354492 20.51397132873535 L12.935121536254883 20.785171508789062 L12.921562194824219 21.72426986694336 L13.374204635620117 21.987838745117188 L13.378976821899414 21.035751342773438 L13.053533554077148 20.839033126831055 L13.385662078857422 20.522377014160156 L13.87344741821289 20.794921875 C13.856067657470703 20.897863388061523 13.838687896728516 21.00080680847168 13.821308135986328 21.103748321533203 L13.817688941955566 21.67003631591797 C13.824691772460938 21.729434967041016 13.831694602966309 21.788833618164062 13.83869743347168 21.84823226928711 L13.83869743347168 21.84823226928711 C13.575263977050781 22.012468338012695 13.408540725708008 22.182415008544922 13.153619766235352 22.404369354248047 L13.144996643066406 22.41272735595703 C13.05823040008545 22.31595230102539 12.953509330749512 22.236713409423828 12.852974891662598 22.15433120727539 L12.852819442749023 22.1541748046875 C12.731860160827637 22.094013214111328 12.610901832580566 22.03385353088379 12.48994255065918 21.973691940307617 L12.48741626739502 21.048545837402344 L12.166172981262207 20.827194213867188"></path>
<path fill="none" stroke="black" stroke-width=".3" stroke-opacity="1.0"  filling="0" d="M11.683765411376953 20.525054931640625 L12.073765754699707 20.788427352905273 L12.068798065185547 21.753875732421875 L12.383546829223633 21.991077423095703 L12.165055274963379 22.373058319091797 C12.065485954284668 22.293479919433594 11.965917587280273 22.21390151977539 11.866348266601562 22.134323120117188 L11.865647315979004 22.13416862487793 C11.761303901672363 22.091068267822266 11.656960487365723 22.04796600341797 11.552617073059082 22.004865646362305 L11.552617073059082 22.004865646362305 C11.576701164245605 21.980009078979492 11.576070785522461 21.93973731994629 11.587535858154297 21.907081604003906 L11.462437629699707 20.920440673828125"></path>
<path fill="none" stroke="black" stroke-width=".3" stroke-opacity="1.0"  filling="0" d="M16.901382446289062 20.526575088500977 L17.314682006835938 20.852603912353516 L17.042524337768555 21.242206573486328 L16.634380340576172 20.94504165649414 L16.84465789794922 21.951168060302734 L16.55091667175293 22.323213577270508 L16.09502601623535 22.085052490234375 C16.135271072387695 22.01773452758789 16.139835357666016 21.93449592590332 16.155187606811523 21.857582092285156 L16.035430908203125 20.936294555664062 L16.3096923828125 20.52682113647461 L16.67677116394043 20.83106803894043"></path>
<path fill="none" stroke="black" stroke-width=".3" stroke-opacity="1.0"  filling="0" d="M4.805698871612549 20.53059196472168 L5.2312211990356445 20.868637084960938 L5.526105880737305 20.56382179260254 C5.681242942810059 20.685890197753906 5.858190536499023 20.850740432739258 6.047847747802734 20.926164627075195 L6.183830738067627 21.9815673828125 L5.9153032302856445 22.357810974121094 L5.568658351898193 22.065990447998047 L5.5709967613220215 21.19029998779297 L5.189019680023193 20.918907165527344 L5.187681198120117 22.352462768554688 L4.697987079620361 22.192420959472656 L4.578237056732178 20.95176124572754"></path>
<path fill="none" stroke="black" stroke-width=".3" stroke-opacity="1.0"  filling="0" d="M21.523113250732422 20.5378475189209 L21.523113250732422 20.5378475189209 C21.692432403564453 20.688888549804688 21.873804092407227 20.827735900878906 22.065452575683594 20.949199676513672 L22.205638885498047 21.985885620117188 L21.935962677001953 22.363279342651367 L21.58645248413086 22.09531593322754 L21.59963035583496 21.236825942993164 L21.18575668334961 20.901260375976562 L21.18215560913086 22.35162353515625 L20.70602035522461 22.194438934326172 L20.573856353759766 20.95282554626465 L20.835124969482422 20.55155372619629 L21.224361419677734 20.884260177612305 C21.32265853881836 20.768386840820312 21.4194393157959 20.649324417114258 21.5230655670166 20.53780746459961 L21.5230655670166 20.53780746459961"></path>
<path fill="none" stroke="black" stroke-width=".3" stroke-opacity="1.0"  filling="0" d="M3.7776031494140625 21.11712074279785 L3.756021499633789 21.919464111328125 L3.26556396484375 21.636606216430664 L3.2774085998535156 20.80312728881836"></path>
<path fill="none" stroke="black" stroke-width=".3" stroke-opacity="1.0"  filling="0" d="M15.213394165039062 21.115009307861328 L15.20460319519043 21.931676864624023 L14.736109733581543 21.68148422241211 L14.735572814941406 20.833311080932617"></path>
<path fill="none" stroke="black" stroke-width=".3" stroke-opacity="1.0"  filling="0" d="M2.785395622253418 20.839725494384766 L2.785395622253418 20.839725494384766 C3.071193218231201 20.72784423828125 3.3505284786224365 20.597124099731445 3.6180124282836914 20.446624755859375 L4.314639568328857 20.89031219482422 C4.302123069763184 21.011871337890625 4.289607048034668 21.13343048095703 4.277090549468994 21.254989624023438 L4.289215087890625 21.972217559814453 L3.5770721435546875 22.400121688842773 C3.3219075202941895 22.219030380249023 3.0532066822052 22.055946350097656 2.7760086059570312 21.910812377929688 L2.7760086059570312 21.910812377929688 C2.7965548038482666 21.55436134338379 2.8026115894317627 21.196352005004883 2.785395622253418 20.839725494384766 L2.785395622253418 20.839725494384766"></path>
<path fill="none" stroke="black" stroke-width=".3" stroke-opacity="1.0"  filling="0" d="M1.5227975845336914 20.8409423828125 L1.8220758438110352 21.03097915649414 L1.8136730194091797 21.875911712646484 C1.7147718667984009 21.81863021850586 1.6077930927276611 21.775157928466797 1.5101919174194336 21.715656280517578 L1.5101919174194336 21.715656280517578"></path>
<path fill="none" stroke="black" stroke-width=".3" stroke-opacity="1.0"  filling="0" d="M18.365283966064453 21.250431060791016 L18.365821838378906 22.01915168762207 L17.94507598876953 21.728469848632812 L17.947425842285156 20.85354995727539"></path>
<path fill="none" stroke="black" stroke-width=".3" stroke-opacity="1.0"  filling="0" d="M3.3049659729003906 20.853944778442383 L3.7490453720092773 21.132572174072266 L3.728837013244629 21.871055603027344 L3.294144630432129 21.620195388793945"></path>
<path fill="none" stroke="black" stroke-width=".3" stroke-opacity="1.0"  filling="0" d="M12.99069881439209 20.867298126220703 L13.322063446044922 21.067646026611328 L13.317853927612305 21.88947868347168 L12.978850364685059 21.691993713378906"></path>
<path fill="none" stroke="black" stroke-width=".3" stroke-opacity="1.0"  filling="0" d="M14.763933181762695 20.883018493652344 L15.185065269470215 21.131141662597656 L15.176725387573242 21.88461685180664 L14.764458656311035 21.664535522460938"></path>
<path fill="none" stroke="black" stroke-width=".3" stroke-opacity="1.0"  filling="0" d="M3.33260440826416 20.90492820739746 L3.7201194763183594 21.148052215576172 L3.7019758224487305 21.822824478149414 L3.3226728439331055 21.604137420654297"></path>
<path fill="none" stroke="black" stroke-width=".3" stroke-opacity="1.0"  filling="0" d="M17.97565269470215 20.919559478759766 L17.973495483398438 21.71384048461914 L18.337520599365234 21.96547508239746 L17.97565269470215 20.919559478759766"></path>
<path fill="none" stroke="black" stroke-width=".3" stroke-opacity="1.0"  filling="0" d="M14.792296409606934 20.932619094848633 L15.156320571899414 21.147293090820312 L15.148870468139648 21.8375244140625 L14.79287052154541 21.647491455078125"></path>
<path fill="none" stroke="black" stroke-width=".3" stroke-opacity="1.0"  filling="0" d="M18.003767013549805 20.98514747619629 L18.309123992919922 21.911060333251953 L18.00182342529297 21.69886016845703"></path>
<path fill="none" stroke="black" stroke-width=".3" stroke-opacity="1.0"  filling="0" d="M19.985498428344727 21.325483322143555 L19.64019012451172 21.78786849975586 L19.64493179321289 20.985721588134766"></path>
<path fill="none" stroke="black" stroke-width=".3" stroke-opacity="1.0"  filling="0" d="M7.40386438369751 20.99856185913086 L7.40386438369751 20.99856185913086 C7.158133029937744 19.99357032775879 7.925045013427734 19.546892166137695 8.897124290466309 19.91690444946289 L9.273046493530273 21.905742645263672 L8.971085548400879 22.407440185546875 L8.50914192199707 21.99283790588379 L8.107048034667969 22.423748016357422 C8.044572830200195 22.3165283203125 7.829473972320557 21.936389923095703 7.634153842926025 21.99401092529297 C7.611401557922363 22.000722885131836 7.572020053863525 22.663211822509766 7.398946285247803 22.123987197875977 L7.724246501922607 21.49359130859375 C7.590373516082764 21.349674224853516 7.505683898925781 21.16667938232422 7.4038987159729 20.998531341552734 L7.4038987159729 20.998531341552734"></path>
<path fill="none" stroke="black" stroke-width=".3" stroke-opacity="1.0"  filling="0" d="M19.673152923583984 21.05384635925293 L19.94812774658203 21.328433990478516 L19.669240951538086 21.702106475830078"></path>
<path fill="none" stroke="black" stroke-width=".3" stroke-opacity="1.0"  filling="0" d="M20.53713607788086 20.95801544189453 L20.830364227294922 20.507545471191406 L21.20325469970703 20.86609649658203 C21.30986213684082 20.74405860900879 21.416471481323242 20.622020721435547 21.52307891845703 20.499982833862305 L21.52307891845703 20.499982833862305 C21.701536178588867 20.6590576171875 21.892139434814453 20.80597496032715 22.09402084350586 20.93402099609375 L22.244224548339844 21.981245040893555 L21.9422607421875 22.403810501098633 L21.55789566040039 22.109416961669922 L21.571321487426758 21.250465393066406 L21.214078903198242 20.960878372192383 L21.210742950439453 22.391040802001953 L20.6776123046875 22.215286254882812 L20.68282699584961 21.090227127075195"></path>
<path fill="none" stroke="black" stroke-width=".3" stroke-opacity="1.0"  filling="0" d="M19.70089340209961 21.121509552001953 L19.910594940185547 21.33083724975586 L19.698026657104492 21.615596771240234"></path>
<path fill="none" stroke="black" stroke-width=".3" stroke-opacity="1.0"  filling="0" d="M7.6449384689331055 21.227630615234375 L7.6449384689331055 21.227630615234375 C7.60964822769165 21.05791664123535 7.5743584632873535 20.888202667236328 7.539068222045898 20.718488693237305 L7.539068222045898 20.718488693237305 C7.648200035095215 20.422670364379883 7.955728054046631 20.006187438964844 8.362948417663574 20.21794891357422 L7.772189617156982 21.383037567138672 C7.729772567749023 21.33123207092285 7.687355041503906 21.2794246673584 7.644937992095947 21.227619171142578 L7.644937992095947 21.227619171142578"></path>
<path fill="none" stroke="black" stroke-width=".3" stroke-opacity="1.0"  filling="0" d="M8.227615356445312 21.59778594970703 L8.227615356445312 21.59778594970703 C8.117486953735352 21.55575942993164 8.00735855102539 21.513734817504883 7.897230625152588 21.471708297729492 L8.508718490600586 20.270627975463867 L8.511453628540039 21.90066146850586 C8.416840553283691 21.799699783325195 8.322226524353027 21.69873809814453 8.22761344909668 21.597776412963867 L8.22761344909668 21.597776412963867"></path>
<path fill="none" stroke="black" stroke-width=".3" stroke-opacity="1.0"  filling="0" d="M10.535621643066406 21.948261260986328 L10.535621643066406 21.948261260986328 C10.547051429748535 21.910539627075195 10.558480262756348 21.87281608581543 10.569910049438477 21.835094451904297 L10.58268928527832 20.274166107177734 C10.778753280639648 20.213178634643555 10.967864990234375 20.12847900390625 11.148933410644531 20.03165626525879 L11.148933410644531 20.03165626525879 C11.131072044372559 20.156604766845703 11.11320972442627 20.281553268432617 11.095348358154297 20.40650177001953 L11.283099174499512 21.950611114501953 L11.017644882202148 22.405906677246094 C10.871419906616211 22.261999130249023 10.72399616241455 22.119186401367188 10.572128295898438 21.981246948242188 L10.535623550415039 21.94824981689453"></path>
<path fill="none" stroke="black" stroke-width=".3" stroke-opacity="1.0"  filling="0" d="M14.200386047363281 21.973814010620117 L14.200386047363281 21.973814010620117 C14.234291076660156 21.605436325073242 14.250005722045898 21.232589721679688 14.21694564819336 20.8641357421875 L14.278352737426758 20.83545684814453 C14.5462007522583 20.707115173339844 14.814048767089844 20.578773498535156 15.081896781921387 20.45043182373047 L15.081896781921387 20.45043182373047 C15.29112720489502 20.621349334716797 15.516433715820312 20.772676467895508 15.746320724487305 20.91459846496582 L15.746320724487305 20.91459846496582 C15.735455513000488 21.00099754333496 15.724589347839355 21.08739471435547 15.713724136352539 21.17379379272461 L15.705246925354004 21.84786605834961 C15.458695411682129 22.04178810119629 15.26699447631836 22.34273910522461 14.965592384338379 22.429630279541016 C14.680317878723145 22.511871337890625 14.46851634979248 22.101295471191406 14.200384140014648 21.973819732666016 L14.200384140014648 21.973819732666016"></path>
<path fill="none" stroke="black" stroke-width=".3" stroke-opacity="1.0"  filling="0" d="M14.228079795837402 21.97763442993164 L14.228079795837402 21.97763442993164 C14.227962493896484 21.978832244873047 14.227846145629883 21.980030059814453 14.227728843688965 21.98122787475586 L14.22827434539795 21.978849411010742 C14.228221893310547 21.978532791137695 14.228170394897461 21.97821617126465 14.228117942810059 21.9778995513916 L14.228117942810059 21.9778995513916"></path>
<path fill="none" stroke="black" stroke-width=".3" stroke-opacity="1.0"  filling="0" d="M19.089828491210938 22.021663665771484 L19.089828491210938 22.021663665771484 C19.109731674194336 21.963382720947266 19.129636764526367 21.90510368347168 19.149539947509766 21.84682273864746 L19.162445068359375 21.146930694580078 C19.140626907348633 21.08565330505371 19.118810653686523 21.02437400817871 19.09699249267578 20.963096618652344 L19.09699249267578 20.963096618652344 C19.34771156311035 20.814067840576172 19.5919189453125 20.652132034301758 19.820350646972656 20.470781326293945 L19.820350646972656 20.470781326293945 C19.994009017944336 20.655824661254883 20.184263229370117 20.828317642211914 20.39363670349121 20.971710205078125 L19.77836799621582 21.801450729370117 L20.142911911010742 21.973424911499023 L19.86819839477539 22.400421142578125 L19.089824676513672 22.021663665771484"></path>
<path fill="none" stroke="black" stroke-width=".3" stroke-opacity="1.0"  filling="0" d="M0.9613580703735352 22.033620834350586 L0.9613580703735352 22.033620834350586 C0.9769417643547058 21.71347999572754 0.9889187812805176 21.393077850341797 0.9931697845458984 21.072586059570312 L0.7245845794677734 20.918336868286133 L1.074397087097168 20.46474266052246 L1.495269775390625 20.79226303100586 L1.4817123413085938 21.730491638183594 C1.6016193628311157 21.79629135131836 1.7215265035629272 21.862091064453125 1.8414335250854492 21.92789077758789 L1.8505611419677734 21.015350341796875 L1.5591583251953125 20.83032989501953 L1.9224014282226562 20.45874786376953 L2.4298458099365234 20.775699615478516 C2.3954553604125977 21.131860733032227 2.400569438934326 21.492904663085938 2.4341487884521484 21.84914207458496 L1.6714162826538086 22.400524139404297 C1.4434049129486084 22.262725830078125 1.2057048082351685 22.139795303344727 0.9613590240478516 22.033620834350586 L0.9613590240478516 22.033620834350586"></path>
<path fill="none" stroke="black" stroke-width=".3" stroke-opacity="1.0"  filling="0" d="M7.902045249938965 23.762943267822266 L7.902045249938965 30.210800170898438 L8.738633155822754 30.210800170898438 L7.902045249938965 23.762943267822266"></path>
<path fill="none" stroke="black" stroke-width=".3" stroke-opacity="1.0"  filling="0" d="M7.902045249938965 23.762943267822266 L7.902045249938965 30.210800170898438 L8.738633155822754 30.210800170898438 L7.902045249938965 23.762943267822266"></path></svg>