<svg xmlns="http://www.w3.org/2000/svg" viewBox="0.0 0.0 24.0 24.0" height="200px" width="200px"><path fill="none" stroke="black" stroke-width=".3" stroke-opacity="1.0"  filling="0" d="M2.6077537536621094 11.948826789855957 L2.6315183639526367 13.17265796661377 C2.881962776184082 13.004217147827148 3.312387228012085 13.262106895446777 3.4672069549560547 13.52119255065918 L3.364229202270508 14.42025375366211 L3.308778762817383 13.529112815856934 C3.2256078720092773 13.368046760559082 3.237583875656128 13.01331615447998 3.0592660903930664 13.045913696289062 C2.801270008087158 13.093076705932617 2.7344961166381836 13.457823753356934 2.572111129760742 13.663778305053711 L2.330512046813965 14.420254707336426 L2.6077537536621094 11.948826789855957"></path>
<path fill="none" stroke="black" stroke-width=".3" stroke-opacity="1.0"  filling="0" d="M15.063788414001465 12.313944816589355 L15.063788414001465 12.33621597290039 C15.007552146911621 12.360029220581055 14.951316833496094 12.383841514587402 14.89508056640625 12.407654762268066 L14.879253387451172 12.391995429992676 C14.940765380859375 12.365978240966797 15.002276420593262 12.339962005615234 15.063788414001465 12.313944816589355 L15.063788414001465 12.313944816589355"></path>
<path fill="none" stroke="black" stroke-width=".3" stroke-opacity="1.0"  filling="0" d="M15.063894271850586 12.313944816589355 L15.063788414001465 12.313944816589355"></path>
<path fill="none" stroke="black" stroke-width=".3" stroke-opacity="1.0"  filling="0" d="M15.063958168029785 12.313944816589355 L15.063894271850586 12.313944816589355"></path>
<path fill="none" stroke="black" stroke-width=".3" stroke-opacity="1.0"  filling="0" d="M15.063958168029785 12.313944816589355 L15.063958168029785 12.313944816589355 C15.1266508102417 12.339971542358398 15.189342498779297 12.365999221801758 15.252035140991211 12.3920259475708 L15.236207962036133 12.407685279846191 C15.178791046142578 12.383862495422363 15.12137508392334 12.360038757324219 15.063958168029785 12.33621597290039 L15.063958168029785 12.313944816589355"></path>
<path fill="none" stroke="black" stroke-width=".3" stroke-opacity="1.0"  filling="0" d="M14.879253387451172 12.391995429992676 L14.89508056640625 12.407654762268066 C14.8718900680542 12.464607238769531 14.848699569702148 12.521559715270996 14.825509071350098 12.578512191772461 L14.803237915039062 12.578512191772461 C14.82857608795166 12.516340255737305 14.853915214538574 12.454167366027832 14.879253387451172 12.391995429992676 L14.879253387451172 12.391995429992676"></path>
<path fill="none" stroke="black" stroke-width=".3" stroke-opacity="1.0"  filling="0" d="M15.252035140991211 12.3920259475708 L15.252035140991211 12.3920259475708 C15.27752685546875 12.454167366027832 15.303018569946289 12.51630973815918 15.328510284423828 12.578451156616211 L15.306238174438477 12.578451156616211 C15.2828950881958 12.521529197692871 15.259551048278809 12.464606285095215 15.236207962036133 12.407684326171875 L15.252035140991211 12.3920259475708"></path>
<path fill="none" stroke="black" stroke-width=".3" stroke-opacity="1.0"  filling="0" d="M15.000524520874023 12.455792427062988 L15.063897132873535 12.455792427062988 C15.096762657165527 12.479268074035645 15.116220474243164 12.54604721069336 15.087660789489746 12.574605941772461 L15.000524520874023 12.455792427062988"></path>
<path fill="none" stroke="black" stroke-width=".3" stroke-opacity="1.0"  filling="0" d="M15.024290084838867 12.475592613220215 L15.067852973937988 12.475592613220215 C15.090412139892578 12.491706848144531 15.089653968811035 12.54163646697998 15.067852973937988 12.55876350402832 L15.024290084838867 12.475592613220215"></path>
<path fill="none" stroke="black" stroke-width=".3" stroke-opacity="1.0"  filling="0" d="M15.306238174438477 12.578451156616211 L15.306238174438477 12.57856559753418"></path>
<path fill="none" stroke="black" stroke-width=".3" stroke-opacity="1.0"  filling="0" d="M14.803237915039062 12.578512191772461 L14.803237915039062 12.578566551208496"></path>
<path fill="none" stroke="black" stroke-width=".3" stroke-opacity="1.0"  filling="0" d="M15.306238174438477 12.57856559753418 L15.306238174438477 12.578619956970215"></path>
<path fill="none" stroke="black" stroke-width=".3" stroke-opacity="1.0"  filling="0" d="M14.803239822387695 12.578566551208496 L14.803239822387695 12.578681945800781"></path>
<path fill="none" stroke="black" stroke-width=".3" stroke-opacity="1.0"  filling="0" d="M15.306238174438477 12.578619956970215 L15.328510284423828 12.578619956970215 C15.303006172180176 12.640791893005371 15.277501106262207 12.702964782714844 15.251996994018555 12.76513671875 L15.236169815063477 12.74947738647461 C15.259526252746582 12.692524909973145 15.282881736755371 12.63557243347168 15.306238174438477 12.578619956970215 L15.306238174438477 12.578619956970215"></path>
<path fill="none" stroke="black" stroke-width=".3" stroke-opacity="1.0"  filling="0" d="M14.803239822387695 12.578681945800781 L14.82551097869873 12.578681945800781 C14.8486909866333 12.635601043701172 14.871870994567871 12.692520141601562 14.895051002502441 12.749439239501953 L14.879223823547363 12.765098571777344 C14.853896141052246 12.702960014343262 14.828567504882812 12.640820503234863 14.803239822387695 12.578681945800781 L14.803239822387695 12.578681945800781"></path>
<path fill="none" stroke="black" stroke-width=".3" stroke-opacity="1.0"  filling="0" d="M14.8951416015625 12.749439239501953 L14.895050048828125 12.749439239501953"></path>
<path fill="none" stroke="black" stroke-width=".3" stroke-opacity="1.0"  filling="0" d="M14.895142555236816 12.749439239501953 L14.895142555236816 12.749439239501953 C14.951375961303711 12.773262023925781 15.007609367370605 12.79708480834961 15.0638427734375 12.820907592773438 L15.0638427734375 12.843179702758789 C15.002272605895996 12.817152976989746 14.940702438354492 12.791125297546387 14.879132270812988 12.765098571777344 L14.895142555236816 12.749439239501953"></path>
<path fill="none" stroke="black" stroke-width=".3" stroke-opacity="1.0"  filling="0" d="M15.236169815063477 12.74947738647461 L15.251996994018555 12.76513671875 C15.189334869384766 12.79115104675293 15.126673698425293 12.81716537475586 15.064011573791504 12.843179702758789 L15.064011573791504 12.820908546447754 C15.121397972106934 12.797098159790039 15.178783416748047 12.773287773132324 15.236169815063477 12.74947738647461 L15.236169815063477 12.74947738647461"></path>
<path fill="none" stroke="black" stroke-width=".3" stroke-opacity="1.0"  filling="0" d="M14.295528411865234 12.792435646057129 L14.295528411865234 12.792435646057129 C14.463194847106934 13.069680213928223 14.630861282348633 13.346923828125 14.798527717590332 13.624168395996094 L13.871744155883789 13.778631210327148 C13.995166778564453 13.924839973449707 14.27177906036377 13.994710922241211 14.434149742126465 13.893487930297852 L14.67971420288086 14.143010139465332 C13.304877281188965 14.90153980255127 13.564876556396484 13.552033424377441 14.295528411865234 12.792435646057129 L14.295528411865234 12.792435646057129"></path>
<path fill="none" stroke="black" stroke-width=".3" stroke-opacity="1.0"  filling="0" d="M13.50735855102539 12.792436599731445 L13.50735855102539 12.792436599731445 C13.549606323242188 12.797718048095703 13.591853141784668 12.802999496459961 13.634100914001465 12.808280944824219 L13.582608222961426 13.255827903747559 C13.33758544921875 13.208017349243164 13.17347240447998 13.554794311523438 13.02416706085205 13.75486946105957 L12.952874183654785 14.420254707336426 L12.560775756835938 14.420254707336426 L12.739004135131836 12.83204460144043 L13.131102561950684 12.83204460144043 L13.107337951660156 13.085522651672363 C13.240677833557129 12.98782730102539 13.374018669128418 12.890131950378418 13.50735855102539 12.792436599731445 L13.50735855102539 12.792436599731445"></path>
<path fill="none" stroke="black" stroke-width=".3" stroke-opacity="1.0"  filling="0" d="M15.063896179199219 12.820908546447754 L15.0638427734375 12.820908546447754"></path>
<path fill="none" stroke="black" stroke-width=".3" stroke-opacity="1.0"  filling="0" d="M15.064011573791504 12.820908546447754 L15.063896179199219 12.820908546447754"></path>
<path fill="none" stroke="black" stroke-width=".3" stroke-opacity="1.0"  filling="0" d="M4.283084869384766 12.871647834777832 L4.283084869384766 12.871647834777832 C4.423027992248535 13.052515983581543 4.5629706382751465 13.23338508605957 4.702913761138916 13.414253234863281 L4.663305282592773 13.786551475524902 C4.647462368011475 13.997783660888672 4.631619453430176 14.209015846252441 4.615776538848877 14.420248031616211 L4.469234466552734 14.420248031616211 C4.473196506500244 14.338396072387695 4.477158069610596 14.256545066833496 4.4811201095581055 14.17469310760498 L4.473198890686035 14.17469310760498 C3.629085063934326 14.703181266784668 3.5072245597839355 14.104255676269531 4.370221138000488 13.50534439086914 L4.564291954040527 13.414252281188965 C4.413049697875977 13.229177474975586 4.094015121459961 13.120182037353516 3.8751449584960938 13.216217041015625 L3.799894332885742 13.081561088562012 C3.9609577655792236 13.011590003967285 4.122021198272705 12.941618919372559 4.283084869384766 12.871647834777832 L4.283084869384766 12.871647834777832"></path>
<path fill="none" stroke="black" stroke-width=".3" stroke-opacity="1.0"  filling="0" d="M12.053827285766602 12.871650695800781 L12.053827285766602 12.871650695800781 C12.08419132232666 12.876931190490723 12.114556312561035 12.88221263885498 12.144920349121094 12.887493133544922 L12.10531997680664 13.077600479125977 C11.866395950317383 13.029830932617188 11.749117851257324 13.411543846130371 11.590436935424805 13.596441268920898 L11.34091567993164 14.420254707336426 L11.463701248168945 13.335041999816895 C11.475582122802734 13.192459106445312 11.48746395111084 13.049877166748047 11.499344825744629 12.907294273376465 L11.657764434814453 12.907294273376465 C11.651165008544922 12.995748519897461 11.644564628601074 13.084202766418457 11.637965202331543 13.172657012939453 L11.637965202331543 13.172657012939453 C11.776585578918457 13.072321891784668 11.915206909179688 12.971985816955566 12.053827285766602 12.871650695800781 L12.053827285766602 12.871650695800781"></path>
<path fill="none" stroke="black" stroke-width=".3" stroke-opacity="1.0"  filling="0" d="M5.6257476806640625 12.871651649475098 L5.6257476806640625 12.871651649475098 C5.755125522613525 13.088165283203125 5.88450288772583 13.304678916931152 6.013880729675293 13.52119255065918 L5.910910129547119 14.42025375366211 L5.855460166931152 13.529112815856934 C5.772286415100098 13.368046760559082 5.7842583656311035 13.013317108154297 5.6059393882751465 13.045913696289062 C5.347943305969238 13.0930757522583 5.281169414520264 13.457823753356934 5.118784427642822 13.663778305053711 L4.877193450927734 14.420254707336426 L4.999971866607666 13.335042953491211 C5.011852741241455 13.192460060119629 5.023733139038086 13.049878120422363 5.035614013671875 12.907295227050781 L5.190077781677246 12.907295227050781 C5.183478355407715 12.995749473571777 5.176878452301025 13.084203720092773 5.170279026031494 13.17265796661377 L5.178199768066406 13.17265796661377 C5.327382564544678 13.072322845458984 5.476564884185791 12.971986770629883 5.6257476806640625 12.871651649475098 L5.6257476806640625 12.871651649475098"></path>
<path fill="none" stroke="black" stroke-width=".3" stroke-opacity="1.0"  filling="0" d="M6.948588848114014 12.871651649475098 L6.948588848114014 12.871651649475098 C7.077966690063477 13.088165283203125 7.2073445320129395 13.304678916931152 7.336722373962402 13.52119255065918 L7.23375129699707 14.42025375366211 L7.1783013343811035 13.529112815856934 C7.095128059387207 13.368046760559082 7.107100009918213 13.013317108154297 6.928781032562256 13.045913696289062 C6.670784950256348 13.0930757522583 6.604011058807373 13.457823753356934 6.441626071929932 13.663778305053711 L6.200026988983154 14.420254707336426 L6.322812557220459 13.335042953491211 C6.333372116088867 13.192460060119629 6.343931198120117 13.049878120422363 6.354490756988525 12.907295227050781 L6.5129194259643555 12.907295227050781 C6.506319522857666 12.995749473571777 6.499719619750977 13.084203720092773 6.493119716644287 13.17265796661377 L6.501033306121826 13.17265796661377 C6.650218486785889 13.072322845458984 6.799403667449951 12.971986770629883 6.948588848114014 12.871651649475098 L6.948588848114014 12.871651649475098"></path>
<path fill="none" stroke="black" stroke-width=".3" stroke-opacity="1.0"  filling="0" d="M8.26351261138916 12.871659278869629 L8.26351261138916 12.871659278869629 C8.444380760192871 13.135701179504395 8.841808319091797 13.345731735229492 8.80611801147461 13.663784980773926 C8.692010879516602 14.680651664733887 7.416138172149658 14.756206512451172 7.538723468780518 13.663784980773926 C7.578633785247803 13.308124542236328 8.021916389465332 13.135701179504395 8.26351261138916 12.871659278869629 L8.26351261138916 12.871659278869629"></path>
<path fill="none" stroke="black" stroke-width=".3" stroke-opacity="1.0"  filling="0" d="M10.730971336364746 12.871662139892578 L10.730971336364746 12.871662139892578 C10.893356323242188 13.106659889221191 11.055741310119629 13.341656684875488 11.21812629699707 13.576654434204102 L10.188373565673828 13.711318016052246 C10.356546401977539 13.9534912109375 10.769308090209961 14.167356491088867 11.020097732543945 14.012325286865234 L11.119114875793457 14.135101318359375 C9.822431564331055 14.88919734954834 10.114754676818848 13.572391510009766 10.730971336364746 12.871662139892578 L10.730971336364746 12.871662139892578"></path>
<path fill="none" stroke="black" stroke-width=".3" stroke-opacity="1.0"  filling="0" d="M8.94076919555664 12.907294273376465 L9.376440048217773 14.20638370513916 L10.073502540588379 12.907294273376465 L9.427925109863281 14.420254707336426 L8.94076919555664 12.907294273376465"></path>
<path fill="none" stroke="black" stroke-width=".3" stroke-opacity="1.0"  filling="0" d="M8.243714332580566 13.045921325683594 L8.243714332580566 13.045921325683594 C9.181356430053711 14.466065406799316 6.981785774230957 14.46219539642334 8.243714332580566 13.045921325683594 L8.243714332580566 13.045921325683594"></path>
<path fill="none" stroke="black" stroke-width=".3" stroke-opacity="1.0"  filling="0" d="M10.703248977661133 13.045928001403809 L10.703248977661133 13.045928001403809 C10.824707984924316 13.209634780883789 10.9461669921875 13.37334156036377 11.067625999450684 13.53704833984375 L10.208171844482422 13.53704833984375 C10.373197555541992 13.37334156036377 10.538223266601562 13.209634780883789 10.703248977661133 13.045928001403809 L10.703248977661133 13.045928001403809"></path>
<path fill="none" stroke="black" stroke-width=".3" stroke-opacity="1.0"  filling="0" d="M14.2202787399292 13.144933700561523 L14.2202787399292 13.144933700561523 C14.288928031921387 13.245269775390625 14.35757827758789 13.34560489654541 14.426227569580078 13.445940971374512 L13.90738582611084 13.445940971374512 C14.011683464050293 13.34560489654541 14.115981101989746 13.245269775390625 14.2202787399292 13.144933700561523 L14.2202787399292 13.144933700561523"></path>
<path fill="none" stroke="black" stroke-width=".3" stroke-opacity="1.0"  filling="0" d="M4.362298965454102 13.659808158874512 L4.524685382843018 13.762787818908691 C3.8659234046936035 14.475995063781738 3.553347587585449 14.149742126464844 4.362298965454102 13.659808158874512 L4.362298965454102 13.659808158874512"></path></svg>