<svg xmlns="http://www.w3.org/2000/svg" viewBox="0.0 0.0 24.0 24.0" height="200px" width="200px"><path fill="none" stroke="black" stroke-width=".3" stroke-opacity="1.0"  filling="0" d="M3.4667444229125977 9.456976890563965 L4.8544182777404785 9.456976890563965 C6.949298858642578 10.339638710021973 7.347995758056641 11.129110336303711 6.681628227233887 13.318604469299316 L7.221628189086914 13.852325439453125 L7.227907180786133 14.536745071411133 L6.562325477600098 14.536745071411133 L5.990930080413818 13.971628189086914 C5.614185810089111 14.07837200164795 5.237441539764404 14.1851167678833 4.860697269439697 14.291860580444336 L3.4667444229125977 14.291860580444336 C2.94453501701355 14.071831703186035 2.2877211570739746 14.045146942138672 1.9001163244247437 13.631772994995117 C0.08722877502441406 11.69836139678955 1.7978696823120117 10.160144805908203 3.4667444229125977 9.456976890563965 L3.4667444229125977 9.456976890563965"></path>
<path fill="none" stroke="black" stroke-width=".3" stroke-opacity="1.0"  filling="0" d="M3.5169763565063477 10.423954010009766 L4.797906875610352 10.423954010009766 C5.831996917724609 10.9707670211792 6.17458438873291 11.35606575012207 5.884185791015625 12.539999961853027 L5.212325572967529 11.874418258666992 L4.553023338317871 11.874418258666992 L4.553023338317871 12.546278953552246 L5.2311625480651855 13.224418640136719 C5.0867438316345215 13.257906913757324 4.942325592041016 13.29139518737793 4.797906875610352 13.324883460998535 L3.5169763565063477 13.324883460998535 C1.9351568222045898 12.49264144897461 1.9379820823669434 11.256691932678223 3.5169763565063477 10.423954010009766 L3.5169763565063477 10.423954010009766"></path>
<path fill="none" stroke="black" stroke-width=".3" stroke-opacity="1.0"  filling="0" d="M20.840930938720703 10.75046443939209 L20.840930938720703 10.75046443939209 C22.25395965576172 11.933650970458984 23.837013244628906 13.14776611328125 21.481395721435547 14.147441864013672 L20.03093147277832 14.147441864013672 L20.03093147277832 13.205581665039062 L21.456283569335938 13.205581665039062 C22.3277587890625 12.262954711914062 19.71983528137207 12.037099838256836 19.804885864257812 10.769302368164062 C19.843896865844727 10.187797546386719 20.575117111206055 9.894418716430664 20.96023178100586 9.456976890563965 L22.517440795898438 9.456976890563965 L22.517440795898438 10.392558097839355 L21.186279296875 10.392558097839355 C21.071163177490234 10.511859893798828 20.95604705810547 10.631162643432617 20.840930938720703 10.75046443939209 L20.840930938720703 10.75046443939209"></path>
<path fill="none" stroke="black" stroke-width=".3" stroke-opacity="1.0"  filling="0" d="M8.125814437866211 11.805349349975586 L8.125814437866211 11.805349349975586 C8.352384567260742 11.235785484313965 8.38668441772461 10.544217109680176 8.805523872375488 10.096656799316406 C9.180706024169922 9.695747375488281 9.817500114440918 9.67020320892334 10.323488235473633 9.456976890563965 L11.095813751220703 9.456976890563965 L11.095813751220703 10.398837089538574 L10.3737211227417 10.398837089538574 C8.8397855758667 11.207792282104492 8.844074249267578 12.400979995727539 10.3737211227417 13.211860656738281 L11.095813751220703 13.211860656738281 L11.095813751220703 14.15372085571289 L10.323488235473633 14.15372085571289 C9.817500114440918 13.939709663391113 9.180914878845215 13.91281795501709 8.805523872375488 13.511686325073242 C8.387182235717773 13.064658164978027 8.352384567260742 12.374128341674805 8.125814437866211 11.805349349975586 L8.125814437866211 11.805349349975586"></path>
<path fill="none" stroke="black" stroke-width=".3" stroke-opacity="1.0"  filling="0" d="M11.315582275390625 11.805349349975586 L11.315582275390625 11.805349349975586 C11.497413635253906 11.269535064697266 11.4658784866333 10.602849006652832 11.861076354980469 10.197906494140625 C12.302735328674316 9.745357513427734 13.025320053100586 9.703953742980957 13.607441902160645 9.456976890563965 L14.122325897216797 9.456976890563965 L14.122325897216797 10.392558097839355 L13.525814056396484 10.392558097839355 C13.12813949584961 10.7169771194458 12.73046588897705 11.04139518737793 12.332791328430176 11.365814208984375 L14.122325897216797 11.365814208984375 L14.122325897216797 12.238605499267578 L12.332791328430176 12.238605499267578 C12.73046588897705 12.563023567199707 13.12813949584961 12.887442588806152 13.525814056396484 13.211860656738281 L14.122325897216797 13.211860656738281 L14.122325897216797 14.15372085571289 L13.607441902160645 14.15372085571289 C13.025320053100586 13.906744003295898 12.302735328674316 13.865340232849121 11.861076354980469 13.41279125213623 C11.4658784866333 13.007848739624023 11.497413635253906 12.341163635253906 11.315582275390625 11.805349349975586 L11.315582275390625 11.805349349975586"></path>
<path fill="none" stroke="black" stroke-width=".3" stroke-opacity="1.0"  filling="0" d="M15.673255920410156 12.60906982421875 L15.673255920410156 12.60906982421875 C15.840697288513184 12.807907104492188 16.00813865661621 13.006744384765625 16.175580978393555 13.205581665039062 L16.91651153564453 13.205581665039062 L16.91651153564453 14.147441864013672 L15.936976432800293 14.147441864013672 C15.345296859741211 13.939581871032715 14.877731323242188 13.338491439819336 14.6874418258667 12.74092960357666 L14.6874418258667 9.456976890563965 L15.673255920410156 9.456976890563965 L15.673255920410156 12.60906982421875"></path>
<path fill="none" stroke="black" stroke-width=".3" stroke-opacity="1.0"  filling="0" d="M18.291629791259766 12.60906982421875 L18.291629791259766 12.60906982421875 C18.45907211303711 12.807907104492188 18.62651252746582 13.006744384765625 18.793954849243164 13.205581665039062 L19.534883499145508 13.205581665039062 L19.534883499145508 14.147441864013672 L18.555349349975586 14.147441864013672 C17.963668823242188 13.939582824707031 17.496103286743164 13.338491439819336 17.305814743041992 12.74092960357666 L17.305814743041992 9.456976890563965 L18.291629791259766 9.456976890563965 L18.291629791259766 12.60906982421875"></path></svg>