<svg xmlns="http://www.w3.org/2000/svg" viewBox="0.0 0.0 24.0 24.0" height="200px" width="200px"><path fill="none" stroke="black" stroke-width=".3" stroke-opacity="1.0"  filling="0" d="M12.837617874145508 9.245034217834473 L14.475929260253906 9.245034217834473 C16.272193908691406 10.020967483520508 16.272216796875 11.429306983947754 14.475929260253906 12.205219268798828 L13.745834350585938 12.205219268798828 L13.745834350585938 12.97370719909668 L12.836217880249023 12.97370719909668 L12.837617874145508 9.245034217834473"></path>
<path fill="none" stroke="black" stroke-width=".3" stroke-opacity="1.0"  filling="0" d="M9.193788528442383 9.267483711242676 L10.880058288574219 9.267483711242676 C12.275178909301758 9.870123863220215 12.47158145904541 10.329644203186035 11.891365051269531 11.737199783325195 L11.891365051269531 11.737199783325195 C11.998811721801758 11.901565551757812 12.1062593460083 12.065930366516113 12.213706016540527 12.23029613494873 L12.213706016540527 12.996142387390137 L11.313833236694336 12.996142387390137 L11.313833236694336 12.566210746765137 C11.216382026672363 12.453363418579102 11.118931770324707 12.340517044067383 11.021480560302734 12.227669715881348 L10.102005004882812 12.227669715881348 L10.102005004882812 12.996142387390137 L9.192447662353516 12.996142387390137 L9.193788528442383 9.267483711242676"></path>
<path fill="none" stroke="black" stroke-width=".3" stroke-opacity="1.0"  filling="0" d="M21.724502563476562 10.612252235412598 L21.724502563476562 10.612252235412598 C21.591907501220703 10.478686332702637 21.459312438964844 10.34511947631836 21.326717376708984 10.211553573608398 L20.587295532226562 10.211553573608398 L20.58594512939453 12.97370719909668 L19.676395416259766 12.97370719909668 L19.679363250732422 9.245034217834473 L21.43605613708496 9.245034217834473 C21.835603713989258 9.644017219543457 22.235153198242188 10.043001174926758 22.634700775146484 10.441984176635742 L22.634056091308594 12.97370719909668 L21.724502563476562 12.97370719909668 L21.724502563476562 10.612252235412598"></path>
<path fill="none" stroke="black" stroke-width=".3" stroke-opacity="1.0"  filling="0" d="M2.27327823638916 10.69980239868164 L3.4451961517333984 10.701333999633789 L3.4451961517333984 9.245034217834473 L4.354742527008057 9.245034217834473 L4.354742527008057 12.97370719909668 L3.4451961517333984 12.97370719909668 L3.445847511291504 11.54068374633789 L2.27484130859375 11.53898811340332 L2.27484130859375 12.97370719909668 L1.3652982711791992 12.97370719909668 L1.3652982711791992 9.245034217834473 L2.27484130859375 9.245034217834473 L2.27327823638916 10.69980239868164"></path>
<path fill="none" stroke="black" stroke-width=".3" stroke-opacity="1.0"  filling="0" d="M14.474997520446777 11.236674308776855 L13.786849021911621 11.238729476928711 L13.78801441192627 10.210097312927246 L14.474997520446777 10.211553573608398 C14.646854400634766 10.383397102355957 14.990568161010742 10.484051704406738 14.990568161010742 10.72708511352539 C14.990568161010742 10.968721389770508 14.646854400634766 11.066811561584473 14.474997520446777 11.236674308776855 L14.474997520446777 11.236674308776855"></path>
<path fill="none" stroke="black" stroke-width=".3" stroke-opacity="1.0"  filling="0" d="M10.836943626403809 11.259124755859375 L10.100837707519531 11.261165618896484 L10.102005004882812 10.232547760009766 L10.836943626403809 10.233973503112793 C11.008800506591797 10.405827522277832 11.352514266967773 10.506495475769043 11.352514266967773 10.74953556060791 C11.352514266967773 10.991171836853027 11.008800506591797 11.089262008666992 10.836943626403809 11.259124755859375 L10.836943626403809 11.259124755859375"></path>
<path fill="none" stroke="black" stroke-width=".3" stroke-opacity="1.0"  filling="0" d="M3.443375587463379 12.972101211547852 L5.982719421386719 9.62346363067627 C6.234927177429199 9.497320175170898 6.487135410308838 9.371177673339844 6.739343166351318 9.245034217834473 L8.586389541625977 9.245034217834473 L8.584522247314453 12.97370719909668 L7.674963474273682 12.97370719909668 L7.674379825592041 12.20886516571045 L5.548852443695068 12.20886516571045 L6.282149314880371 11.242317199707031 L7.674963474273682 11.241056442260742 L7.674379825592041 10.211553573608398 L6.982059001922607 10.211553573608398 C6.862961292266846 10.27190113067627 6.743863582611084 10.33224868774414 6.624765872955322 10.392596244812012 L4.661896228790283 12.972101211547852 L3.443375587463379 12.972101211547852"></path>
<path fill="none" stroke="black" stroke-width=".3" stroke-opacity="1.0"  filling="0" d="M16.300413131713867 12.97370719909668 L16.300413131713867 9.245034217834473 L19.11012077331543 9.245034217834473 L19.11012077331543 10.211553573608398 L17.20949935913086 10.211553573608398 L17.20949935913086 10.70151424407959 L18.90972137451172 10.69980239868164 L18.90972137451172 11.54068374633789 L17.20949935913086 11.54068374633789 L17.20949935913086 12.005867004394531 L19.11012077331543 12.005867004394531 L19.11012077331543 12.97232723236084 L16.300413131713867 12.97370719909668"></path>
<path fill="none" stroke="black" stroke-width=".3" stroke-opacity="1.0"  filling="0" d="M3.4457969665527344 13.863871574401855 L9.143683433532715 13.863872528076172 L14.841568946838379 13.863872528076172 L20.53945541381836 13.863871574401855 L20.53945541381836 14.754965782165527 L14.841568946838379 14.754966735839844 L9.143683433532715 14.754966735839844 L3.4457969665527344 14.754965782165527 L3.4457969665527344 13.863871574401855"></path></svg>