<svg xmlns="http://www.w3.org/2000/svg" viewBox="0.0 0.0 24.0 24.0" height="200px" width="200px"><path fill="none" stroke="black" stroke-width=".3" stroke-opacity="1.0"  filling="0" d="M3.1299219131469727 10.341285705566406 L3.1299219131469727 10.341285705566406 C3.584660768508911 10.67989730834961 4.244881629943848 10.84788990020752 4.494138240814209 11.357121467590332 C5.299536228179932 13.002551078796387 3.897439956665039 13.153786659240723 3.110487937927246 11.546041488647461 C2.9339139461517334 11.18529987335205 3.123443841934204 10.742871284484863 3.1299219131469727 10.341285705566406 L3.1299219131469727 10.341285705566406"></path>
<path fill="none" stroke="black" stroke-width=".3" stroke-opacity="1.0"  filling="0" d="M2.5849990844726562 10.539755821228027 L2.5849990844726562 10.539755821228027 C2.546933889389038 10.935134887695312 2.534172773361206 11.333773612976074 2.470803737640381 11.725893020629883 C1.993967056274414 14.676504135131836 0.3701803684234619 11.235733032226562 2.5849990844726562 10.539755821228027 L2.5849990844726562 10.539755821228027"></path>
<path fill="none" stroke="black" stroke-width=".3" stroke-opacity="1.0"  filling="0" d="M15.900005340576172 11.114617347717285 L15.900005340576172 11.114617347717285 C16.769458770751953 11.21435260772705 15.030482292175293 11.213726043701172 15.900005340576172 11.114617347717285 L15.900005340576172 11.114617347717285"></path>
<path fill="none" stroke="black" stroke-width=".3" stroke-opacity="1.0"  filling="0" d="M5.460338115692139 11.114977836608887 L5.799592971801758 11.114977836608887 L5.799592971801758 11.48193645477295 C5.797304630279541 11.5842866897583 5.791463851928711 11.685590744018555 5.783833026885986 11.787676811218262 L5.801432132720947 11.787676811218262 C6.143348217010498 11.430316925048828 6.479830741882324 11.635721206665039 6.538706302642822 12.072761535644531 L6.538706302642822 12.91715145111084 L6.199602127075195 12.91715145111084 L6.199602127075195 12.161055564880371 C6.096993446350098 11.643115997314453 5.819578170776367 11.976330757141113 5.799592971801758 12.308259963989258 L5.799592971801758 12.91715145111084 L5.460338115692139 12.91715145111084 L5.460338115692139 11.114977836608887"></path>
<path fill="none" stroke="black" stroke-width=".3" stroke-opacity="1.0"  filling="0" d="M11.773533821105957 11.114977836608887 L12.112792015075684 11.114977836608887 L12.112792015075684 11.48193645477295 C12.110346794128418 11.584256172180176 12.104817390441895 11.685613632202148 12.097188949584961 11.787676811218262 L12.114631652832031 11.787676811218262 C12.456488609313965 11.429988861083984 12.793196678161621 11.635809898376465 12.852060317993164 12.072761535644531 L12.852060317993164 12.91715145111084 L12.51295280456543 12.91715145111084 L12.51295280456543 12.161055564880371 C12.410359382629395 11.643183708190918 12.132780075073242 11.976284980773926 12.112792015075684 12.308259963989258 L12.112792015075684 12.91715145111084 L11.773533821105957 12.91715145111084 L11.773533821105957 11.114977836608887"></path>
<path fill="none" stroke="black" stroke-width=".3" stroke-opacity="1.0"  filling="0" d="M22.215198516845703 11.199630737304688 L22.215198516845703 11.199630737304688 C22.378681182861328 11.218125343322754 22.541444778442383 11.252132415771484 22.69768524169922 11.30368423461914 L22.58306884765625 11.59091854095459 C21.558752059936523 11.19328784942627 21.429813385009766 12.777344703674316 22.362712860107422 12.618160247802734 L22.054214477539062 11.96627426147461 L22.700284957885742 11.966259002685547 L22.700284957885742 12.844161987304688 C21.331872940063477 13.263283729553223 20.804235458374023 11.435017585754395 22.215198516845703 11.199630737304688 L22.215198516845703 11.199630737304688"></path>
<path fill="none" stroke="black" stroke-width=".3" stroke-opacity="1.0"  filling="0" d="M9.73937702178955 11.346677780151367 L10.258743286132812 11.622422218322754 L9.956212997436523 11.88746166229248 L9.956212997436523 12.511799812316895 C10.013650894165039 12.692581176757812 10.110494613647461 12.669180870056152 10.271751403808594 12.618317604064941 L10.271751403808594 12.88152027130127 C9.899407386779785 13.013985633850098 9.672822952270508 12.905869483947754 9.617110252380371 12.512113571166992 L9.454444885253906 11.73796558380127 L9.73937702178955 11.346677780151367"></path>
<path fill="none" stroke="black" stroke-width=".3" stroke-opacity="1.0"  filling="0" d="M13.757808685302734 11.595580101013184 L13.757808685302734 11.595580101013184 C13.968718528747559 11.662836074829102 14.163150787353516 11.845911026000977 14.238153457641602 12.054191589355469 L14.238153457641602 12.917104721069336 L13.92491340637207 12.7413330078125 C13.468023300170898 13.301175117492676 12.702141761779785 12.404072761535645 13.70302677154541 12.11818790435791 L13.901192665100098 12.013647079467773 C13.811429023742676 11.775518417358398 13.616071701049805 11.86474609375 13.422988891601562 11.946622848510742 L13.312658309936523 11.712646484375 C13.454387664794922 11.653882026672363 13.605682373046875 11.615527153015137 13.757808685302734 11.595580101013184 L13.757808685302734 11.595580101013184"></path>
<path fill="none" stroke="black" stroke-width=".3" stroke-opacity="1.0"  filling="0" d="M20.51126480102539 11.5977783203125 L20.51126480102539 11.5977783203125 C20.892301559448242 11.66392993927002 20.991695404052734 11.809907913208008 21.04700469970703 12.186311721801758 L20.28876495361328 12.357688903808594 C20.355220794677734 12.747504234313965 20.679929733276367 12.713309288024902 20.976001739501953 12.57544994354248 L20.976001739501953 12.848745346069336 C19.997325897216797 13.299649238586426 19.491104125976562 11.787149429321289 20.51126480102539 11.5977783203125 L20.51126480102539 11.5977783203125"></path>
<path fill="none" stroke="black" stroke-width=".3" stroke-opacity="1.0"  filling="0" d="M17.17563247680664 11.597809791564941 L17.17563247680664 11.597809791564941 C17.48067855834961 11.64818000793457 17.540664672851562 11.775240898132324 17.580533981323242 12.072793006896973 L17.580848693847656 12.917182922363281 L17.2415771484375 12.91715145111084 L17.2415771484375 12.161055564880371 C17.140592575073242 11.641735076904297 16.861326217651367 11.976497650146484 16.84081268310547 12.308259963989258 L16.84081268310547 12.91715145111084 L16.50201416015625 12.91715145111084 L16.50201416015625 11.622406005859375 L16.82520294189453 11.787975311279297 C16.92502212524414 11.656837463378906 17.01265525817871 11.614748001098633 17.17563247680664 11.597809791564941 L17.17563247680664 11.597809791564941"></path>
<path fill="none" stroke="black" stroke-width=".3" stroke-opacity="1.0"  filling="0" d="M7.472310543060303 11.597919464111328 L7.472310543060303 11.597919464111328 C8.17852783203125 11.734687805175781 8.272370338439941 12.940414428710938 7.465577602386475 12.940414428710938 C6.6636786460876465 12.940414428710938 6.762892723083496 11.728271484375 7.472310543060303 11.597919464111328 L7.472310543060303 11.597919464111328"></path>
<path fill="none" stroke="black" stroke-width=".3" stroke-opacity="1.0"  filling="0" d="M15.312240600585938 11.597919464111328 L15.312240600585938 11.597919464111328 C15.348654747009277 11.597919464111328 15.384243965148926 11.60037899017334 15.41996955871582 11.607650756835938 L15.41996955871582 11.938946723937988 C15.167337417602539 11.891680717468262 15.038567543029785 12.006121635437012 15.002673149108887 12.25787353515625 L15.002673149108887 12.916963577270508 L14.663569450378418 12.916963577270508 L14.663569450378418 11.622358322143555 L14.986909866333008 11.81685733795166 C15.077253341674805 11.6759672164917 15.144906997680664 11.621468544006348 15.312241554260254 11.597793579101562 L15.312241554260254 11.597793579101562"></path>
<path fill="none" stroke="black" stroke-width=".3" stroke-opacity="1.0"  filling="0" d="M18.421245574951172 11.598374366760254 L18.421245574951172 11.598374366760254 C18.486434936523438 11.60227108001709 18.549617767333984 11.610984802246094 18.613292694091797 11.625529289245605 L19.036100387573242 11.623960494995117 L18.855073928833008 11.875970840454102 C18.996973037719727 12.252248764038086 18.70001220703125 12.535093307495117 18.3211727142334 12.480342864990234 L18.3211727142334 12.480342864990234 C18.215110778808594 12.604909896850586 18.325523376464844 12.6438627243042 18.444503784179688 12.649648666381836 L18.637928009033203 12.649648666381836 C19.140016555786133 12.71677017211914 19.140342712402344 13.32656478881836 18.646038055419922 13.453948974609375 C18.147735595703125 13.58236312866211 17.45636749267578 13.056084632873535 18.127897262573242 12.819816589355469 L18.127897262573242 12.819816589355469 C17.932249069213867 12.697748184204102 17.99526023864746 12.527050018310547 18.15758514404297 12.412454605102539 L18.15758514404297 12.412454605102539 C17.782115936279297 12.070684432983398 17.95322608947754 11.666854858398438 18.421245574951172 11.598374366760254 L18.421245574951172 11.598374366760254"></path>
<path fill="none" stroke="black" stroke-width=".3" stroke-opacity="1.0"  filling="0" d="M8.80561351776123 11.598390579223633 L8.80561351776123 11.598390579223633 C8.947985649108887 11.616418838500977 9.08895206451416 11.653024673461914 9.222759246826172 11.704893112182617 L9.120540618896484 11.955083847045898 C8.141742706298828 11.541296005249023 10.038457870483398 13.543227195739746 8.341032981872559 12.864992141723633 L8.341032981872559 12.573173522949219 C9.597773551940918 13.135939598083496 7.610461711883545 11.738595008850098 8.80561351776123 11.598390579223633 L8.80561351776123 11.598390579223633"></path>
<path fill="none" stroke="black" stroke-width=".3" stroke-opacity="1.0"  filling="0" d="M10.998767852783203 11.598390579223633 L10.998767852783203 11.598390579223633 C11.14113998413086 11.616418838500977 11.282106399536133 11.653024673461914 11.415913581848145 11.704893112182617 L11.31369400024414 11.955083847045898 C10.334929466247559 11.54130744934082 12.232057571411133 13.542280197143555 10.534034729003906 12.864992141723633 L10.534034729003906 12.573173522949219 C11.791778564453125 13.135527610778809 9.802892684936523 11.738679885864258 10.998767852783203 11.598390579223633 L10.998767852783203 11.598390579223633"></path>
<path fill="none" stroke="black" stroke-width=".3" stroke-opacity="1.0"  filling="0" d="M15.729538917541504 11.622406005859375 L16.068946838378906 11.622406005859375 L16.068946838378906 12.91715145111084 L15.729538917541504 12.91715145111084 L15.729538917541504 11.622406005859375"></path>
<path fill="none" stroke="black" stroke-width=".3" stroke-opacity="1.0"  filling="0" d="M18.421249389648438 11.819196701049805 L18.421249389648438 11.819196701049805 C18.95964241027832 12.103997230529785 17.925678253173828 12.557106018066406 18.421249389648438 11.819196701049805 L18.421249389648438 11.819196701049805"></path>
<path fill="none" stroke="black" stroke-width=".3" stroke-opacity="1.0"  filling="0" d="M20.513099670410156 11.84919261932373 L20.513099670410156 11.84919261932373 C20.675403594970703 11.88571548461914 20.706464767456055 11.963921546936035 20.727638244628906 12.12264633178711 L20.2950382232666 12.12264633178711 C20.331634521484375 12.011954307556152 20.406471252441406 11.896334648132324 20.513099670410156 11.84919261932373 L20.513099670410156 11.84919261932373"></path>
<path fill="none" stroke="black" stroke-width=".3" stroke-opacity="1.0"  filling="0" d="M7.468025207519531 11.882705688476562 L7.468025207519531 11.882705688476562 C8.803601264953613 12.629334449768066 6.137558937072754 12.637277603149414 7.468025207519531 11.882705688476562 L7.468025207519531 11.882705688476562"></path>
<path fill="none" stroke="black" stroke-width=".3" stroke-opacity="1.0"  filling="0" d="M13.900275230407715 12.317269325256348 L13.900123596191406 12.423929214477539 C13.818159103393555 12.968340873718262 13.260472297668457 12.407167434692383 13.787958145141602 12.321696281433105 L13.900278091430664 12.317300796508789"></path>
<path fill="none" stroke="black" stroke-width=".3" stroke-opacity="1.0"  filling="0" d="M3.752579689025879 12.672769546508789 L3.752579689025879 12.672769546508789 C3.6545801162719727 12.966987609863281 3.734248399734497 13.413382530212402 3.458580732345581 13.55542278289795 C3.0934958457946777 13.743535995483398 2.029245138168335 13.12270450592041 2.3943300247192383 12.934591293334961 C2.8042049407958984 12.723400115966797 3.2998297214508057 12.760043144226074 3.752579689025879 12.672769546508789 L3.752579689025879 12.672769546508789"></path>
<path fill="none" stroke="black" stroke-width=".3" stroke-opacity="1.0"  filling="0" d="M18.342748641967773 12.939959526062012 L18.499141693115234 12.939959526062012 C19.464746475219727 13.07889461517334 17.46274757385254 13.04238510131836 18.342748641967773 12.939959526062012 L18.342748641967773 12.939959526062012"></path></svg>