<svg xmlns="http://www.w3.org/2000/svg" viewBox="0.0 0.0 24.0 24.0" height="200px" width="200px"><path fill="none" stroke="black" stroke-width=".3" stroke-opacity="1.0"  filling="0" d="M9.241201400756836 11.148653984069824 L10.101858139038086 11.148653984069824 C10.615059852600098 11.296294212341309 10.72640323638916 11.438496589660645 10.425130844116211 11.902372360229492 L10.425130844116211 11.909255981445312 C10.799738883972168 12.433006286621094 10.751895904541016 12.64703369140625 10.11806869506836 12.811782836914062 L9.241199493408203 12.811782836914062 L9.241199493408203 11.148658752441406"></path>
<path fill="none" stroke="black" stroke-width=".3" stroke-opacity="1.0"  filling="0" d="M16.217269897460938 11.148688316345215 L16.84993553161621 11.148688316345215 L17.11046600341797 12.079086303710938 L17.366329193115234 11.148688316345215 L18.003660202026367 11.148688316345215 L18.003660202026367 12.811812400817871 L17.564001083374023 12.811812400817871 L17.559337615966797 11.769692420959473 L17.282596588134766 12.811812400817871 L16.92667007446289 12.811812400817871 L16.645145416259766 11.769692420959473 L16.645145416259766 12.811812400817871 L16.217266082763672 12.811812400817871 L16.217266082763672 11.148688316345215"></path>
<path fill="none" stroke="black" stroke-width=".3" stroke-opacity="1.0"  filling="0" d="M20.936811447143555 11.148688316345215 L21.3764705657959 11.148688316345215 L21.3764705657959 11.481289863586426 L20.936811447143555 11.481289863586426 L20.936811447143555 11.148688316345215"></path>
<path fill="none" stroke="black" stroke-width=".3" stroke-opacity="1.0"  filling="0" d="M1.2510805130004883 11.148711204528809 L1.7372722625732422 11.148711204528809 L1.7372722625732422 11.75805377960205 L2.249002456665039 11.75805377960205 L2.249002456665039 11.148711204528809 L2.7350759506225586 11.148711204528809 L2.7350759506225586 12.811835289001465 L2.249002456665039 12.811835289001465 L2.249002456665039 12.160510063171387 L1.7372722625732422 12.160510063171387 L1.7372722625732422 12.811835289001465 L1.2510805130004883 12.811835289001465 L1.2510805130004883 11.148711204528809"></path>
<path fill="none" stroke="black" stroke-width=".3" stroke-opacity="1.0"  filling="0" d="M8.103836059570312 11.241740226745605 L8.53416633605957 11.241740226745605 L8.759710311889648 11.625537872314453 L8.53416633605957 12.37214183807373 C8.607792854309082 12.409382820129395 8.681419372558594 12.446623802185059 8.755045890808105 12.483864784240723 L8.755045890808105 12.807135581970215 C8.512612342834473 12.838501930236816 8.29102611541748 12.627090454101562 8.103837966918945 12.469869613647461 L8.103836059570312 11.241740226745605"></path>
<path fill="none" stroke="black" stroke-width=".3" stroke-opacity="1.0"  filling="0" d="M9.718061447143555 11.5254545211792 L10.018125534057617 11.5254545211792 C10.086060523986816 11.584421157836914 10.088964462280273 11.737011909484863 10.020458221435547 11.795313835144043 L9.718061447143555 11.795313835144043 L9.718061447143555 11.5254545211792"></path>
<path fill="none" stroke="black" stroke-width=".3" stroke-opacity="1.0"  filling="0" d="M7.812985420227051 11.599974632263184 L7.812985420227051 11.599974632263184 C7.837048053741455 11.603822708129883 7.861110687255859 11.607671737670898 7.885173320770264 11.611519813537598 L7.8758440017700195 11.986104965209961 C7.739398002624512 12.09930419921875 7.602952480316162 12.212504386901855 7.466506481170654 12.325703620910645 L7.466506481170654 12.811777114868164 L7.0268473625183105 12.811777114868164 L7.0268473625183105 11.62551498413086 L7.452511310577393 11.804643630981445 C7.572669506072998 11.736420631408691 7.692827224731445 11.668197631835938 7.812985420227051 11.599974632263184 L7.812985420227051 11.599974632263184"></path>
<path fill="none" stroke="black" stroke-width=".3" stroke-opacity="1.0"  filling="0" d="M12.967571258544922 11.599974632263184 L12.967571258544922 11.599974632263184 C12.991633415222168 11.603822708129883 13.01569652557373 11.607671737670898 13.039758682250977 11.611519813537598 L13.030428886413574 11.986104965209961 C12.893982887268066 12.09930419921875 12.757537841796875 12.212504386901855 12.621091842651367 12.325703620910645 L12.621091842651367 12.81177806854248 L12.181432723999023 12.81177806854248 L12.181432723999023 11.62551498413086 L12.607097625732422 11.804643630981445 C12.727255821228027 11.736420631408691 12.847413063049316 11.668197631835938 12.967571258544922 11.599974632263184 L12.967571258544922 11.599974632263184"></path>
<path fill="none" stroke="black" stroke-width=".3" stroke-opacity="1.0"  filling="0" d="M2.9049692153930664 11.625537872314453 L3.3445119857788086 11.625537872314453 L3.3445119857788086 12.286192893981934 C3.4174723625183105 12.373025894165039 3.609849214553833 12.350923538208008 3.684110641479492 12.265201568603516 L3.684110641479492 11.625537872314453 L4.123768329620361 11.625537872314453 L4.123768329620361 12.811800956726074 L3.698103904724121 12.65832805633545 C3.4501149654388428 12.78619384765625 3.094308614730835 12.595736503601074 2.9049692153930664 12.390800476074219 L2.9049692153930664 11.625537872314453"></path>
<path fill="none" stroke="black" stroke-width=".3" stroke-opacity="1.0"  filling="0" d="M10.804378509521484 11.625537872314453 L11.244036674499512 11.625537872314453 L11.244036674499512 12.286191940307617 C11.31696605682373 12.373050689697266 11.509347915649414 12.350900650024414 11.583636283874512 12.265201568603516 L11.583636283874512 11.625537872314453 L12.023178100585938 11.625537872314453 L12.023178100585938 12.811800003051758 L11.597514152526855 12.65832805633545 C11.34952449798584 12.78619384765625 10.993718147277832 12.595736503601074 10.804378509521484 12.390800476074219 L10.804378509521484 11.625537872314453"></path>
<path fill="none" stroke="black" stroke-width=".3" stroke-opacity="1.0"  filling="0" d="M20.936811447143555 11.62554931640625 L21.3764705657959 11.62554931640625 L21.3764705657959 12.811812400817871 L20.936811447143555 12.811812400817871 L20.936811447143555 11.62554931640625"></path>
<path fill="none" stroke="black" stroke-width=".3" stroke-opacity="1.0"  filling="0" d="M6.070769786834717 12.093069076538086 L6.070769786834717 12.093069076538086 C6.1672515869140625 11.996586799621582 6.386978626251221 11.99334716796875 6.480107307434082 12.093069076538086 L6.070769309997559 12.093069076538086"></path>
<path fill="none" stroke="black" stroke-width=".3" stroke-opacity="1.0"  filling="0" d="M18.5643310546875 12.093069076538086 L18.5643310546875 12.093069076538086 C18.660812377929688 11.996587753295898 18.880538940429688 11.99334716796875 18.97366714477539 12.093069076538086 L18.5643310546875 12.093069076538086"></path>
<path fill="none" stroke="black" stroke-width=".3" stroke-opacity="1.0"  filling="0" d="M9.718059539794922 12.107040405273438 L10.062323570251465 12.107040405273438 C10.142586708068848 12.178943634033203 10.143925666809082 12.357316017150879 10.064655303955078 12.430312156677246 L9.718059539794922 12.430312156677246 L9.718059539794922 12.107040405273438"></path>
<path fill="none" stroke="black" stroke-width=".3" stroke-opacity="1.0"  filling="0" d="M13.963218688964844 12.2093505859375 L13.963218688964844 12.2093505859375 C13.425247192382812 12.970550537109375 13.423746109008789 11.457536697387695 13.963218688964844 12.2093505859375 L13.963218688964844 12.2093505859375"></path>
<path fill="none" stroke="black" stroke-width=".3" stroke-opacity="1.0"  filling="0" d="M20.350772857666016 12.2093505859375 L20.350772857666016 12.2093505859375 C19.812654495239258 12.97075080871582 19.81114959716797 11.4573335647583 20.350772857666016 12.2093505859375 L20.350772857666016 12.2093505859375"></path>
<path fill="none" stroke="black" stroke-width=".3" stroke-opacity="1.0"  filling="0" d="M5.133327960968018 12.211671829223633 L5.133327960968018 12.211671829223633 C4.609340667724609 12.99183464050293 4.609340190887451 11.431510925292969 5.133327960968018 12.211671829223633 L5.133327960968018 12.211671829223633"></path>
<path fill="none" stroke="black" stroke-width=".3" stroke-opacity="1.0"  filling="0" d="M5.640440464019775 12.216337203979492 L5.640440464019775 12.216337203979492 C6.358962059020996 11.500463485717773 6.563464164733887 11.335439682006836 6.917550563812256 12.325726509094238 L6.070769786834717 12.325726509094238 C6.172125816345215 12.421951293945312 6.345347881317139 12.524166107177734 6.468562602996826 12.458208084106445 L6.894227027893066 12.458208084106445 C6.373193264007568 13.118989944458008 6.228363513946533 12.785243034362793 5.640440464019775 12.216337203979492 L5.640440464019775 12.216337203979492"></path>
<path fill="none" stroke="black" stroke-width=".3" stroke-opacity="1.0"  filling="0" d="M18.133892059326172 12.216337203979492 L18.133892059326172 12.216337203979492 C18.85236167907715 11.500515937805176 19.056976318359375 11.335379600524902 19.410884857177734 12.325726509094238 L18.56433868408203 12.325726509094238 C18.6656436920166 12.421951293945312 18.838830947875977 12.524147987365723 18.962013244628906 12.458208084106445 L19.387676239013672 12.458208084106445 C18.866661071777344 13.118974685668945 18.72191619873047 12.785239219665527 18.133892059326172 12.216337203979492 L18.133892059326172 12.216337203979492"></path>
<path fill="none" stroke="black" stroke-width=".3" stroke-opacity="1.0"  filling="0" d="M13.084017753601074 12.216348648071289 L13.084017753601074 12.216348648071289 C13.294414520263672 11.967185020446777 13.65221118927002 11.606879234313965 13.94467544555664 11.75114917755127 L13.951560974121094 11.148688316345215 L14.391220092773438 11.148688316345215 L14.391220092773438 12.811812400817871 L13.967883110046387 12.64667797088623 C13.685232162475586 12.812469482421875 13.295137405395508 12.466959953308105 13.084015846252441 12.216348648071289 L13.084015846252441 12.216348648071289"></path>
<path fill="none" stroke="black" stroke-width=".3" stroke-opacity="1.0"  filling="0" d="M19.471454620361328 12.216348648071289 L19.471454620361328 12.216348648071289 C19.68182373046875 11.9671630859375 20.039627075195312 11.60692024230957 20.332111358642578 11.75114917755127 L20.339107513427734 11.148688316345215 L20.778648376464844 11.148688316345215 L20.778648376464844 12.811812400817871 L20.35531997680664 12.64667797088623 C20.072668075561523 12.812469482421875 19.682573318481445 12.466959953308105 19.471450805664062 12.216348648071289 L19.471450805664062 12.216348648071289"></path>
<path fill="none" stroke="black" stroke-width=".3" stroke-opacity="1.0"  filling="0" d="M15.2565279006958 12.38148307800293 L15.2565279006958 12.38148307800293 C14.89284610748291 12.74516487121582 14.875104904174805 12.402238845825195 15.2565279006958 12.27675724029541 L15.2565279006958 12.38148307800293"></path>
<path fill="none" stroke="black" stroke-width=".3" stroke-opacity="1.0"  filling="0" d="M22.241741180419922 12.38148307800293 L22.241741180419922 12.38148307800293 C21.878292083740234 12.745145797729492 21.860185623168945 12.402283668518066 22.241741180419922 12.27675724029541 L22.241741180419922 12.38148307800293"></path>
<path fill="none" stroke="black" stroke-width=".3" stroke-opacity="1.0"  filling="0" d="M4.705331325531006 12.65832805633545 L4.281999111175537 12.811800956726074 L4.281999111175537 11.148676872253418 L4.721659183502197 11.148676872253418 L4.728655815124512 11.74880599975586 C5.79534387588501 11.258079528808594 5.781859397888184 13.2235746383667 4.705331325531006 12.65832805633545 L4.705331325531006 12.65832805633545"></path>
<path fill="none" stroke="black" stroke-width=".3" stroke-opacity="1.0"  filling="0" d="M15.275187492370605 12.674549102783203 L15.270523071289062 12.674549102783203 C13.690896034240723 13.372069358825684 15.564329147338867 11.469324111938477 14.963459968566895 12.016226768493652 L14.547124862670898 12.016226768493652 C15.055347442626953 11.629743576049805 15.378947257995605 11.326955795288086 15.6821928024292 12.023224830627441 L15.6821928024292 12.472212791442871 C15.70699405670166 12.497791290283203 15.731795310974121 12.523370742797852 15.756596565246582 12.548949241638184 L15.763593673706055 12.79781723022461 C15.598379135131836 12.827765464782715 15.42319393157959 12.753840446472168 15.275187492370605 12.674549102783203 L15.275187492370605 12.674549102783203"></path>
<path fill="none" stroke="black" stroke-width=".3" stroke-opacity="1.0"  filling="0" d="M22.260517120361328 12.674549102783203 L22.25572967529297 12.674549102783203 C20.67621421813965 13.372241020202637 22.549840927124023 11.469561576843262 21.94878578186035 12.016226768493652 L21.532333374023438 12.016226768493652 C22.040626525878906 11.629769325256348 22.364158630371094 11.326959609985352 22.667400360107422 12.023224830627441 L22.667400360107422 12.472212791442871 C22.69223976135254 12.497791290283203 22.71708106994629 12.523370742797852 22.741920471191406 12.548949241638184 L22.748920440673828 12.79781723022461 C22.583702087402344 12.827747344970703 22.408506393432617 12.753865242004395 22.260513305664062 12.674549102783203 L22.260513305664062 12.674549102783203"></path></svg>