<svg xmlns="http://www.w3.org/2000/svg" viewBox="0.0 0.0 24.0 24.0" height="200px" width="200px"><path fill="none" stroke="black" stroke-width=".3" stroke-opacity="1.0"  filling="0" d="M3.071521759033203 10.753923416137695 L4.9941253662109375 10.754756927490234 C5.009541988372803 10.756715774536133 5.006564617156982 10.788676261901855 4.997446537017822 10.801260948181152 L4.675942897796631 11.101325035095215 C4.592025279998779 11.136351585388184 4.508108139038086 11.171378135681152 4.424190521240234 11.206404685974121 L3.3318796157836914 11.20586109161377 C3.231329917907715 11.252185821533203 3.1307802200317383 11.29850959777832 3.0302305221557617 11.344834327697754 L2.5271034240722656 11.885397911071777 C2.49236798286438 11.978544235229492 2.494802951812744 12.093064308166504 2.5360851287841797 12.183500289916992 L2.9691591262817383 12.584794044494629 C3.0625176429748535 12.621137619018555 3.1770987510681152 12.615260124206543 3.269601821899414 12.576791763305664 L3.7449493408203125 12.093215942382812 C3.7822623252868652 12.005197525024414 3.6246426105499268 11.920342445373535 3.530714988708496 11.902533531188965 L2.798029899597168 11.90217113494873 C2.779615879058838 11.89840316772461 2.781848669052124 11.862265586853027 2.791537284851074 11.846158981323242 L3.0341548919677734 11.593727111816406 C3.115858316421509 11.556587219238281 3.1975619792938232 11.519447326660156 3.2792654037475586 11.482307434082031 L3.2792654037475586 11.482307434082031 C3.7262375354766846 11.48214054107666 4.2900166511535645 11.540240287780762 4.552897930145264 11.9017333984375 L3.35422420501709 13.144641876220703 C3.2077524662017822 13.154706954956055 3.0612809658050537 13.164772033691406 2.914809226989746 13.174837112426758 L1.8748865127563477 12.146526336669922 C1.8730751276016235 12.083971977233887 1.871263861656189 12.021417617797852 1.8694524765014648 11.958863258361816 L2.830263137817383 10.86896800994873 C2.9106826782226562 10.830619812011719 2.9911022186279297 10.792271614074707 3.071521759033203 10.753923416137695 L3.071521759033203 10.753923416137695"></path>
<path fill="none" stroke="black" stroke-width=".3" stroke-opacity="1.0"  filling="0" d="M5.601674556732178 10.754068374633789 L5.670897960662842 13.246076583862305 L5.601674556732178 10.754068374633789"></path>
<path fill="none" stroke="black" stroke-width=".3" stroke-opacity="1.0"  filling="0" d="M9.926121711730957 11.315939903259277 L11.294341087341309 11.315939903259277 C11.300883293151855 11.32250690460205 11.307426452636719 11.32907485961914 11.313968658447266 11.335641860961914 L11.313968658447266 11.5297212600708 C11.307426452636719 11.536263465881348 11.300883293151855 11.542806625366211 11.294341087341309 11.549348831176758 L10.759132385253906 11.549348831176758 C10.75259017944336 11.555915832519531 10.746047019958496 11.562483787536621 10.73950481414795 11.569050788879395 L10.73950481414795 12.663249015808105 C10.732962608337402 12.669816017150879 10.726420402526855 12.676383972167969 10.719878196716309 12.682950973510742 L10.500434875488281 12.682950973510742 C10.493892669677734 12.676383972167969 10.487351417541504 12.669816017150879 10.480809211730957 12.663249015808105 L10.480809211730957 11.569050788879395 C10.47426700592041 11.562483787536621 10.467723846435547 11.555915832519531 10.461181640625 11.549348831176758 L9.926121711730957 11.549348831176758 C9.919554710388184 11.542806625366211 9.91298770904541 11.536263465881348 9.906420707702637 11.5297212600708 L9.906420707702637 11.335641860961914 C9.91298770904541 11.32907485961914 9.919554710388184 11.32250690460205 9.926121711730957 11.315939903259277 L9.926121711730957 11.315939903259277"></path>
<path fill="none" stroke="black" stroke-width=".3" stroke-opacity="1.0"  filling="0" d="M8.208946228027344 11.315954208374023 L8.42861557006836 11.315954208374023 C8.435157775878906 11.322522163391113 8.441699981689453 11.329089164733887 8.4482421875 11.335657119750977 L8.4482421875 12.161948204040527 C8.683796882629395 12.601637840270996 9.191493034362793 12.604452133178711 9.425131797790527 12.161948204040527 L9.42513370513916 11.335657119750977 C9.431675910949707 11.329089164733887 9.438218116760254 11.322522163391113 9.4447603225708 11.315954208374023 L9.664504051208496 11.315954208374023 C9.671046257019043 11.322522163391113 9.677589416503906 11.329089164733887 9.684131622314453 11.335657119750977 L9.684131622314453 12.21531867980957 C9.295490264892578 12.89008903503418 8.57821273803711 12.890867233276367 8.189393997192383 12.21531867980957 L8.189393997192383 11.335657119750977 C8.195911407470703 11.329089164733887 8.202428817749023 11.322522163391113 8.208946228027344 11.315954208374023 L8.208946228027344 11.315954208374023"></path>
<path fill="none" stroke="black" stroke-width=".3" stroke-opacity="1.0"  filling="0" d="M14.866546630859375 11.315961837768555 L15.086141586303711 11.315961837768555 C15.092683792114258 11.322529792785645 15.099225997924805 11.329096794128418 15.105768203735352 11.335664749145508 L15.105768203735352 12.663270950317383 C15.099225997924805 12.669838905334473 15.092683792114258 12.676405906677246 15.086141586303711 12.682973861694336 L14.866546630859375 12.682973861694336 C14.860004425048828 12.676405906677246 14.853462219238281 12.669838905334473 14.846920013427734 12.663270950317383 L14.846920013427734 11.335664749145508 C14.853462219238281 11.329096794128418 14.860004425048828 11.322529792785645 14.866546630859375 11.315961837768555 L14.866546630859375 11.315961837768555"></path>
<path fill="none" stroke="black" stroke-width=".3" stroke-opacity="1.0"  filling="0" d="M21.757503509521484 11.315961837768555 L21.977176666259766 11.315961837768555 C21.983718872070312 11.322529792785645 21.99026107788086 11.329096794128418 21.996803283691406 11.335664749145508 L21.996803283691406 12.663270950317383 C21.99026107788086 12.66981315612793 21.983718872070312 12.676356315612793 21.977176666259766 12.68289852142334 L21.759166717529297 12.68289852142334 C21.74834632873535 12.67794132232666 21.737524032592773 12.67298412322998 21.726703643798828 12.6680269241333 L20.839269638061523 11.631954193115234 C20.834991455078125 11.633540153503418 20.830713272094727 11.635127067565918 20.826435089111328 11.636713027954102 L20.826435089111328 12.663273811340332 C20.81989288330078 12.669816017150879 20.813350677490234 12.676358222961426 20.806808471679688 12.682900428771973 L20.58713722229004 12.682900428771973 C20.580570220947266 12.676358222961426 20.574003219604492 12.669816017150879 20.56743621826172 12.663273811340332 L20.56743621826172 11.33566665649414 C20.574003219604492 11.329099655151367 20.580570220947266 11.322531700134277 20.58713722229004 11.315964698791504 L20.85127067565918 11.315964698791504 C20.86541175842285 11.31778621673584 20.879467010498047 11.325794219970703 20.88871192932129 11.336648941040039 L21.728591918945312 12.332636833190918 C21.7327938079834 12.331101417541504 21.736995697021484 12.329565048217773 21.74119758605957 12.32802963256836 L21.737876892089844 11.335664749145508 C21.74441909790039 11.329096794128418 21.750959396362305 11.322529792785645 21.75750160217285 11.315961837768555 L21.75750160217285 11.315961837768555"></path>
<path fill="none" stroke="black" stroke-width=".3" stroke-opacity="1.0"  filling="0" d="M15.406942367553711 11.315974235534668 L15.670999526977539 11.315974235534668 C15.68511962890625 11.317792892456055 15.699161529541016 11.325797080993652 15.708366394042969 11.336657524108887 L16.54846954345703 12.332646369934082 C16.552671432495117 12.331111907958984 16.556875228881836 12.329578399658203 16.561077117919922 12.328043937683105 L16.55752944946289 11.335676193237305 C16.56404685974121 11.329109191894531 16.57056427001953 11.322541236877441 16.57708168029785 11.315974235534668 L16.796825408935547 11.315974235534668 C16.803394317626953 11.322541236877441 16.809961318969727 11.329109191894531 16.816530227661133 11.335676193237305 L16.816530227661133 12.663283348083496 C16.809961318969727 12.669825553894043 16.803394317626953 12.67636775970459 16.796825408935547 12.682909965515137 L16.579042434692383 12.682909965515137 C16.568222045898438 12.67792797088623 16.557401657104492 12.672945976257324 16.546581268310547 12.667963981628418 L15.659070014953613 11.631966590881348 C15.654818534851074 11.633526802062988 15.650566101074219 11.635087013244629 15.64631462097168 11.63664722442627 L15.64631462097168 12.663283348083496 C15.639771461486816 12.669825553894043 15.63322925567627 12.67636775970459 15.626686096191406 12.682909965515137 L15.406942367553711 12.682909965515137 C15.400400161743164 12.67636775970459 15.3938570022583 12.669825553894043 15.387314796447754 12.663283348083496 L15.387314796447754 11.335676193237305 C15.3938570022583 11.329109191894531 15.400400161743164 11.322541236877441 15.406942367553711 11.315974235534668 L15.406942367553711 11.315974235534668"></path>
<path fill="none" stroke="black" stroke-width=".3" stroke-opacity="1.0"  filling="0" d="M6.615063190460205 11.316007614135742 L6.834582328796387 11.316007614135742 C6.841124534606934 11.322549819946289 6.8476667404174805 11.329092025756836 6.854208946228027 11.335634231567383 L6.854208946228027 11.80169677734375 C6.860751152038574 11.80826473236084 6.867293357849121 11.814831733703613 6.873835563659668 11.821399688720703 L7.673404693603516 11.821399688720703 C7.6799468994140625 11.814831733703613 7.686489105224609 11.80826473236084 7.693031311035156 11.80169677734375 L7.693031311035156 11.335634231567383 C7.699573516845703 11.329092025756836 7.706115245819092 11.322549819946289 7.712657451629639 11.316007614135742 L7.932177543640137 11.316007614135742 C7.938719749450684 11.322549819946289 7.9452619552612305 11.329092025756836 7.951804161071777 11.335634231567383 L7.951804161071777 12.66331672668457 C7.9452619552612305 12.669858932495117 7.938719749450684 12.676401138305664 7.932177543640137 12.682943344116211 L7.712657451629639 12.682943344116211 C7.706115245819092 12.676401138305664 7.699573516845703 12.669858932495117 7.693031311035156 12.66331672668457 L7.693031311035156 12.074435234069824 C7.686489105224609 12.067893028259277 7.6799468994140625 12.061349868774414 7.673404693603516 12.054807662963867 L6.873835563659668 12.054807662963867 C6.867293357849121 12.061349868774414 6.860751152038574 12.067893028259277 6.854208946228027 12.074435234069824 L6.854208946228027 12.66331672668457 C6.8476667404174805 12.669858932495117 6.841124534606934 12.676401138305664 6.834582328796387 12.682943344116211 L6.615063190460205 12.682943344116211 C6.608520984649658 12.676401138305664 6.601978778839111 12.669858932495117 6.5954365730285645 12.66331672668457 L6.5954365730285645 11.335634231567383 C6.601978778839111 11.329092025756836 6.608520984649658 11.322549819946289 6.615063190460205 11.316007614135742 L6.615063190460205 11.316007614135742"></path>
<path fill="none" stroke="black" stroke-width=".3" stroke-opacity="1.0"  filling="0" d="M13.22868537902832 11.316007614135742 L13.448204040527344 11.316007614135742 C13.45474624633789 11.322549819946289 13.461288452148438 11.329092025756836 13.467830657958984 11.335634231567383 L13.467830657958984 11.80169677734375 C13.474372863769531 11.80826473236084 13.480915069580078 11.814831733703613 13.487457275390625 11.821399688720703 L14.286951065063477 11.821399688720703 C14.29351806640625 11.814831733703613 14.300085067749023 11.80826473236084 14.306652069091797 11.80169677734375 L14.306652069091797 11.335634231567383 C14.313194274902344 11.329092025756836 14.31973648071289 11.322549819946289 14.326278686523438 11.316007614135742 L14.545722007751465 11.316007614135742 C14.552264213562012 11.322549819946289 14.558806419372559 11.329092025756836 14.565348625183105 11.335634231567383 L14.565348625183105 12.66331672668457 C14.558806419372559 12.669858932495117 14.552264213562012 12.676401138305664 14.545722007751465 12.682943344116211 L14.326278686523438 12.682943344116211 C14.31973648071289 12.676401138305664 14.313194274902344 12.669858932495117 14.306652069091797 12.66331672668457 L14.306652069091797 12.074435234069824 C14.300085067749023 12.067893028259277 14.29351806640625 12.061349868774414 14.286951065063477 12.054807662963867 L13.487457275390625 12.054807662963867 C13.480915069580078 12.061349868774414 13.474372863769531 12.067893028259277 13.467830657958984 12.074435234069824 L13.467830657958984 12.66331672668457 C13.461288452148438 12.669858932495117 13.45474624633789 12.676401138305664 13.448204040527344 12.682943344116211 L13.22868537902832 12.682943344116211 C13.222118377685547 12.676401138305664 13.215550422668457 12.669858932495117 13.208983421325684 12.66331672668457 L13.208983421325684 11.335634231567383 C13.215550422668457 11.329092025756836 13.222118377685547 11.322549819946289 13.22868537902832 11.316007614135742 L13.22868537902832 11.316007614135742"></path>
<path fill="none" stroke="black" stroke-width=".3" stroke-opacity="1.0"  filling="0" d="M22.46419906616211 11.32026481628418 L22.46419906616211 11.32026481628418 C22.772497177124023 11.37917423248291 22.82213020324707 11.834912300109863 22.464197158813477 11.83396053314209 C22.108631134033203 11.833014488220215 22.155704498291016 11.377228736877441 22.464195251464844 11.32026481628418 L22.464195251464844 11.32026481628418"></path>
<path fill="none" stroke="black" stroke-width=".3" stroke-opacity="1.0"  filling="0" d="M22.464439392089844 11.358688354492188 L22.464439392089844 11.358688354492188 C23.56844711303711 11.572665214538574 21.363737106323242 11.56268310546875 22.464439392089844 11.358687400817871 L22.464439392089844 11.358687400817871"></path>
<path fill="none" stroke="black" stroke-width=".3" stroke-opacity="1.0"  filling="0" d="M22.357852935791016 11.428061485290527 L22.470401763916016 11.428061485290527 C22.573963165283203 11.450209617614746 22.650583267211914 11.517106056213379 22.529132843017578 11.585529327392578 L22.35784912109375 11.715896606445312 L22.35784912109375 11.428061485290527"></path>
<path fill="none" stroke="black" stroke-width=".3" stroke-opacity="1.0"  filling="0" d="M20.10852813720703 11.457464218139648 L20.10852813720703 11.457464218139648 C20.515239715576172 12.23794937133789 19.848064422607422 13.287367820739746 18.966472625732422 12.53965950012207 C17.936885833740234 11.66643238067627 19.47223663330078 11.251677513122559 20.10852813720703 11.457464218139648 L20.10852813720703 11.457464218139648"></path>
<path fill="none" stroke="black" stroke-width=".3" stroke-opacity="1.0"  filling="0" d="M22.420654296875 11.466938018798828 L22.45907974243164 11.466938018798828 C22.54417610168457 11.484627723693848 22.550716400146484 11.539453506469727 22.462024688720703 11.557297706604004 L22.420658111572266 11.466938018798828"></path>
<path fill="none" stroke="black" stroke-width=".3" stroke-opacity="1.0"  filling="0" d="M1.3106212615966797 11.48316764831543 L2.003525733947754 11.48346996307373 C2.0243911743164062 11.48885440826416 2.023287773132324 11.528101921081543 2.0135650634765625 11.547332763671875 L1.7813644409179688 11.810332298278809 C1.7212759256362915 11.813426971435547 1.6611875295639038 11.816522598266602 1.6010990142822266 11.81961727142334 L1.3060922622680664 11.53321647644043 C1.29623281955719 11.519674301147461 1.294182300567627 11.4863862991333 1.3106212615966797 11.48316764831543 L1.3106212615966797 11.48316764831543"></path>
<path fill="none" stroke="black" stroke-width=".3" stroke-opacity="1.0"  filling="0" d="M11.773290634155273 11.648585319519043 L11.773290634155273 11.648585319519043 C11.227992057800293 12.760946273803711 12.385190963745117 12.182212829589844 12.810795783996582 12.268872261047363 L12.999289512634277 12.3717622756958 C13.032382011413574 12.428627967834473 11.330519676208496 13.262713432312012 11.334931373596191 11.995681762695312 C11.33647346496582 11.552891731262207 11.812161445617676 11.221311569213867 12.219423294067383 11.273638725280762 C12.508743286132812 11.310811996459961 13.174797058105469 11.412128448486328 13.008575439453125 11.651833534240723 L12.808683395385742 11.722187995910645 C12.46480655670166 11.760479927062988 12.103873252868652 11.546445846557617 11.773290634155273 11.648585319519043 L11.773290634155273 11.648585319519043"></path>
<path fill="none" stroke="black" stroke-width=".3" stroke-opacity="1.0"  filling="0" d="M18.42637825012207 11.98375129699707 L18.42637825012207 11.98375129699707 C18.89871597290039 12.975030899047852 17.086294174194336 12.778106689453125 17.03800392150879 12.505070686340332 L17.03800392150879 12.296573638916016 C17.357595443725586 12.034741401672363 18.32495880126953 12.678641319274902 18.277137756347656 12.268265724182129 C18.220088958740234 11.778705596923828 16.999645233154297 12.387676239013672 17.023208618164062 11.704974174499512 C17.042240142822266 11.153606414794922 18.39681053161621 11.169013977050781 18.4554386138916 11.419931411743164 L18.4554386138916 11.645188331604004 C18.19490623474121 11.931196212768555 17.28487777709961 11.28886604309082 17.29519271850586 11.675609588623047 C17.29979705810547 11.848217010498047 18.293962478637695 11.940106391906738 18.42637825012207 11.98375129699707 L18.42637825012207 11.98375129699707"></path>
<path fill="none" stroke="black" stroke-width=".3" stroke-opacity="1.0"  filling="0" d="M19.955364227294922 12.348599433898926 L19.955364227294922 12.348599433898926 C19.55809783935547 12.47868537902832 18.408430099487305 12.246548652648926 19.1259765625 11.649581909179688 C19.71709442138672 11.157796859741211 20.218830108642578 11.793609619140625 19.955364227294922 12.348599433898926 L19.955364227294922 12.348599433898926"></path></svg>