<svg xmlns="http://www.w3.org/2000/svg" viewBox="0.0 0.0 24.0 24.0" height="200px" width="200px"><path fill="none" stroke="black" stroke-width=".3" stroke-opacity="1.0"  filling="0" d="M1.8113212585449219 1.8113212585449219 L8.603774070739746 1.8113212585449219 L15.39622688293457 1.8113212585449219 L22.188678741455078 1.8113212585449219 L22.188678741455078 8.603774070739746 L22.188678741455078 15.39622688293457 L22.188678741455078 22.188678741455078 L15.39622688293457 22.188678741455078 L8.603774070739746 22.188678741455078 L1.8113212585449219 22.188678741455078 L1.8113212585449219 15.39622688293457 L1.8113212585449219 8.603774070739746 L1.8113212585449219 1.8113212585449219"></path>
<path fill="none" stroke="black" stroke-width=".3" stroke-opacity="1.0"  filling="0" d="M1.8113212585449219 1.8113212585449219 L8.343215942382812 1.8113212585449219 L14.87511157989502 1.8113212585449219 C14.079995155334473 2.5160839557647705 13.142906188964844 4.011088848114014 12.92367935180664 5.3337483406066895 C12.704453468322754 6.656408309936523 13.203089714050293 7.806722164154053 15.279424667358398 7.822103023529053 C16.961305618286133 7.834561824798584 18.371227264404297 5.473377227783203 19.93351173400879 5.827494144439697 C20.853986740112305 6.036134719848633 20.213306427001953 7.326416015625 19.87061882019043 7.6873321533203125 C19.03357696533203 8.568896293640137 18.89394760131836 8.338513374328613 17.6334228515625 8.00179672241211 L15.99820327758789 9.771787643432617 C17.37796974182129 10.691635131835938 18.52475357055664 10.71371841430664 19.527013778686523 10.220765113830566 C20.529273986816406 9.727811813354492 21.387008666992188 8.719820022583008 22.188678741455078 7.57951545715332 L22.188678741455078 14.8840970993042 L22.188678741455078 22.188678741455078 L15.39622688293457 22.188678741455078 L8.603774070739746 22.188678741455078 L1.8113212585449219 22.188678741455078 L1.8113212585449219 15.39622688293457 L1.8113212585449219 8.603774070739746 L1.8113212585449219 1.8113212585449219"></path>
<path fill="none" stroke="black" stroke-width=".3" stroke-opacity="1.0"  filling="0" d="M18.783466339111328 1.8113212585449219 L22.188678741455078 1.8113212585449219 L22.188678741455078 4.704402923583984 C20.854402542114258 3.1275393962860107 19.55264663696289 3.1583735942840576 17.822101593017578 4.165319919586182 C17.273242950439453 4.484682559967041 16.804941177368164 4.94844388961792 16.22057342529297 5.196945667266846 C15.88032341003418 5.341636657714844 15.330411911010742 5.6177873611450195 15.117700576782227 5.315364360809326 C13.972535133361816 3.6872177124023438 16.455732345581055 3.3932271003723145 17.14824867248535 3.5813121795654297 L18.783466339111328 1.8113212585449219"></path>
<path fill="none" stroke="black" stroke-width=".3" stroke-opacity="1.0"  filling="0" d="M11.29919147491455 5.818509101867676 L12.718777656555176 7.130279064178467 L9.85265064239502 10.238993644714355 L11.236298561096191 11.523809432983398 L13.81491470336914 8.729559898376465 L15.189577102661133 9.987421035766602 L12.6109619140625 12.781671524047852 L15.225516319274902 15.198562622070312 L13.590296745300293 16.96855354309082 L10.194070816040039 13.837376594543457 L6.797843933105469 10.706199645996094 L11.29919147491455 5.818509101867676"></path>
<path fill="none" stroke="black" stroke-width=".3" stroke-opacity="1.0"  filling="0" d="M5.845463275909424 11.739442825317383 L9.24168872833252 14.870619773864746 L12.637914657592773 18.00179672241211 L11.011680603027344 19.771785736083984 L7.615454196929932 16.640609741210938 L4.2192277908325195 13.50943374633789 L5.845463275909424 11.739442825317383"></path></svg>