<svg xmlns="http://www.w3.org/2000/svg" viewBox="0.0 0.0 24.0 24.0" height="200px" width="200px"><path fill="none" stroke="black" stroke-width=".3" stroke-opacity="1.0"  filling="0" d="M1.4312000274658203 8.146669387817383 L2.350571632385254 8.146669387817383 L2.350571632385254 12.336504936218262 L1.4312000274658203 12.336504936218262 L1.4312000274658203 8.146669387817383"></path>
<path fill="none" stroke="black" stroke-width=".3" stroke-opacity="1.0"  filling="0" d="M12.453300476074219 8.146669387817383 L13.372672080993652 8.146669387817383 L13.372672080993652 12.336504936218262 L12.453300476074219 12.336504936218262 L12.453300476074219 8.146669387817383"></path>
<path fill="none" stroke="black" stroke-width=".3" stroke-opacity="1.0"  filling="0" d="M13.67456340789795 8.146669387817383 L14.594120979309082 8.146669387817383 L14.594120979309082 12.336504936218262 L13.67456340789795 12.336504936218262 L13.67456340789795 8.146669387817383"></path>
<path fill="none" stroke="black" stroke-width=".3" stroke-opacity="1.0"  filling="0" d="M8.950356483459473 9.389961242675781 L8.950356483459473 9.389961242675781 C9.419512748718262 9.926484107971191 10.117570877075195 10.499131202697754 10.071853637695312 11.210379600524902 L8.39395809173584 11.210379600524902 C8.809552192687988 11.520023345947266 9.47741413116455 11.571248054504395 9.94302749633789 11.343648910522461 L9.94302749633789 12.01924991607666 C7.525245666503906 13.007306098937988 6.676133632659912 10.281137466430664 8.950356483459473 9.389961242675781 L8.950356483459473 9.389961242675781"></path>
<path fill="none" stroke="black" stroke-width=".3" stroke-opacity="1.0"  filling="0" d="M5.311923980712891 9.646689414978027 L5.311923980712891 9.646689414978027 C5.604560852050781 9.331038475036621 5.897197723388672 9.015387535095215 6.1898345947265625 8.699736595153809 L6.681634902954102 8.699736595153809 L6.681634902954102 9.393847465515137 L7.49994421005249 9.393847465515137 L7.49994421005249 10.202901840209961 L6.67256498336792 10.202901840209961 L6.67256498336792 11.287750244140625 C6.844881534576416 11.460066795349121 7.200037479400635 11.435741424560547 7.403509616851807 11.30163288116455 L7.403509616851807 12.004812240600586 C6.877880096435547 12.238783836364746 6.172730445861816 11.892852783203125 5.753192901611328 11.499130249023438 L5.753192901611328 10.202901840209961 L5.311923027038574 10.202901840209961"></path>
<path fill="none" stroke="black" stroke-width=".3" stroke-opacity="1.0"  filling="0" d="M16.102283477783203 10.254173278808594 L16.102283477783203 10.254173278808594 C17.427759170532227 11.842352867126465 14.783720016479492 11.847904205322266 16.102283477783203 10.254173278808594 L16.102283477783203 10.254173278808594"></path>
<path fill="none" stroke="black" stroke-width=".3" stroke-opacity="1.0"  filling="0" d="M21.244993209838867 10.254173278808594 L21.244993209838867 10.254173278808594 C22.35659408569336 11.841872215270996 20.191768646240234 11.74155044555664 21.244993209838867 10.254173278808594 L21.244993209838867 10.254173278808594"></path>
<path fill="none" stroke="black" stroke-width=".3" stroke-opacity="1.0"  filling="0" d="M8.407840728759766 10.566801071166992 L8.407840728759766 10.566801071166992 C8.688033103942871 10.34064769744873 9.20143985748291 10.348854064941406 9.48806095123291 10.566801071166992 L8.407840728759766 10.566801071166992"></path>
<path fill="none" stroke="black" stroke-width=".3" stroke-opacity="1.0"  filling="0" d="M2.6909637451171875 9.472698211669922 L3.5551767349243164 9.472698211669922 L3.564432144165039 10.093326568603516 C3.861696243286133 9.858871459960938 4.079879283905029 9.348735809326172 4.45622444152832 9.389961242675781 C4.848987102508545 9.432985305786133 4.9802937507629395 9.981404304504395 5.24232816696167 10.27712631225586 L5.24232816696167 12.336504936218262 L4.32295560836792 12.336504936218262 L4.32295560836792 10.677119255065918 C4.215723514556885 10.536137580871582 4.173288822174072 10.211983680725098 4.001258850097656 10.254175186157227 C3.770087718963623 10.310872077941895 3.7407665252685547 10.65262508392334 3.610520362854004 10.851849555969238 L3.610520362854004 12.336504936218262 L2.6911487579345703 12.336504936218262"></path>
<path fill="none" stroke="black" stroke-width=".3" stroke-opacity="1.0"  filling="0" d="M10.2636137008667 9.472883224487305 L11.127826690673828 9.472883224487305 L11.13708209991455 10.212898254394531 C11.422293663024902 9.88138198852539 11.801424026489258 9.379435539245605 12.226557731628418 9.481953620910645 L12.226557731628418 10.557546615600586 C11.874954223632812 10.39222526550293 11.421439170837402 10.770216941833496 11.183170318603516 11.07711124420166 L11.183170318603516 12.336504936218262 L10.263798713684082 12.336504936218262"></path>
<path fill="none" stroke="black" stroke-width=".3" stroke-opacity="1.0"  filling="0" d="M21.73217010498047 12.336504936218262 L21.72309112548828 11.8861665725708 C19.233875274658203 13.489604949951172 19.389188766479492 8.26430892944336 21.677005767822266 9.97393798828125 L21.677005767822266 8.146669387817383 L22.568798065185547 8.146669387817383 L22.568798065185547 12.336504936218262 L21.73216438293457 12.336504936218262"></path>
<path fill="none" stroke="black" stroke-width=".3" stroke-opacity="1.0"  filling="0" d="M16.102283477783203 12.419242858886719 L16.102283477783203 12.419242858886719 C15.740266799926758 12.262173652648926 15.268194198608398 12.251748085021973 15.01623249053955 11.948034286499023 C14.231586456298828 11.00222396850586 14.83494758605957 9.389961242675781 16.102283477783203 9.389961242675781 C17.3693790435791 9.389961242675781 17.98235321044922 10.998941421508789 17.19231414794922 11.948034286499023 C16.939067840576172 12.252264022827148 16.465627670288086 12.262173652648926 16.102283477783203 12.419242858886719 L16.102283477783203 12.419242858886719"></path>
<path fill="none" stroke="black" stroke-width=".3" stroke-opacity="1.0"  filling="0" d="M18.229782104492188 12.161958694458008 L17.324106216430664 9.472698211669922 L18.266429901123047 9.472698211669922 L18.68030548095703 11.403435707092285 L19.112319946289062 9.472698211669922 L20.031692504882812 9.472698211669922 L18.831899642944336 13.026172637939453 L17.926410675048828 13.026172637939453"></path>
<path fill="none" stroke="black" stroke-width=".3" stroke-opacity="1.0"  filling="0" d="M20.507015228271484 14.36682415008545 L21.185020446777344 15.829638481140137 L20.879613876342773 15.338764190673828 L20.31969451904297 15.338764190673828 L20.01613998413086 15.829638481140137 L20.507015228271484 14.36682415008545"></path>
<path fill="none" stroke="black" stroke-width=".3" stroke-opacity="1.0"  filling="0" d="M6.968163013458252 14.366830825805664 L7.098285675048828 15.829645156860352 L6.968163013458252 14.366830825805664"></path>
<path fill="none" stroke="black" stroke-width=".3" stroke-opacity="1.0"  filling="0" d="M12.063117980957031 14.508792877197266 L12.406102180480957 14.508792877197266 C12.548388481140137 14.620583534240723 12.523736000061035 14.942976951599121 12.378522872924805 15.050939559936523 L12.063119888305664 15.050939559936523 L12.063119888305664 14.508792877197266"></path>
<path fill="none" stroke="black" stroke-width=".3" stroke-opacity="1.0"  filling="0" d="M4.48139762878418 14.508800506591797 L4.824565887451172 14.508800506591797 C4.966822624206543 14.620628356933594 4.942172527313232 14.942949295043945 4.796985626220703 15.050946235656738 L4.481583118438721 15.050946235656738 L4.481434345245361 14.508800506591797"></path>
<path fill="none" stroke="black" stroke-width=".3" stroke-opacity="1.0"  filling="0" d="M8.556657791137695 14.56395149230957 L8.556657791137695 14.56395149230957 C7.325554370880127 13.922593116760254 7.336672306060791 16.289793014526367 8.556657791137695 15.620664596557617 L8.552778244018555 15.40762710571289 C7.494544982910156 16.202350616455078 7.485563278198242 14.035082817077637 8.552778244018555 14.776819229125977 L8.556657791137695 14.780891418457031"></path>
<path fill="none" stroke="black" stroke-width=".3" stroke-opacity="1.0"  filling="0" d="M17.448673248291016 15.09425163269043 L17.31855010986328 15.612704277038574 C16.4473934173584 15.946605682373047 16.364147186279297 14.097053527832031 17.430904388427734 14.717764854431152 L17.430904388427734 14.536370277404785 C16.240327835083008 13.961457252502441 16.22081756591797 16.246625900268555 17.448673248291016 15.650094032287598 L17.448673248291016 15.650094032287598"></path>
<path fill="none" stroke="black" stroke-width=".3" stroke-opacity="1.0"  filling="0" d="M22.502166748046875 15.09425163269043 L22.37204360961914 15.612706184387207 C21.500877380371094 15.946601867675781 21.41764259338379 14.09705638885498 22.484394073486328 14.717764854431152 L22.484394073486328 14.536371231079102 C21.293821334838867 13.96146011352539 21.27431297302246 16.246623992919922 22.50216293334961 15.650094032287598 L22.50216293334961 15.650094032287598"></path>
<path fill="none" stroke="black" stroke-width=".3" stroke-opacity="1.0"  filling="0" d="M19.164688110351562 15.135732650756836 L19.620023727416992 15.265650749206543 L19.164688110351562 15.135732650756836"></path>
<path fill="none" stroke="black" stroke-width=".3" stroke-opacity="1.0"  filling="0" d="M20.840187072753906 15.22030258178711 L20.359121322631836 15.22030258178711 L20.59567642211914 14.473255157470703 L20.840179443359375 15.22030258178711"></path>
<path fill="none" stroke="black" stroke-width=".3" stroke-opacity="1.0"  filling="0" d="M13.352497100830078 14.366823196411133 L13.482620239257812 15.318957328796387 C13.643747329711914 15.498417854309082 14.045536041259766 15.49886703491211 14.206160545349121 15.318957328796387 L14.336282730102539 14.366823196411133 L14.336282730102539 15.338763236999512 C14.17265796661377 15.510285377502441 14.08245849609375 15.853330612182617 13.845407485961914 15.853330612182617 C13.607888221740723 15.853330612182617 13.516800880432129 15.510285377502441 13.352497100830078 15.338763236999512 L13.352497100830078 15.338763236999512"></path>
<path fill="none" stroke="black" stroke-width=".3" stroke-opacity="1.0"  filling="0" d="M17.906230926513672 15.496464729309082 L17.906230926513672 15.496464729309082 C19.461353302001953 16.408527374267578 16.878286361694336 13.798052787780762 18.681041717529297 14.492873191833496 L18.681041717529297 14.694073677062988 C17.08917808532715 13.83743667602539 19.699466705322266 16.4632511138916 17.906230926513672 15.685632705688477 L17.906230926513672 15.685632705688477"></path>
<path fill="none" stroke="black" stroke-width=".3" stroke-opacity="1.0"  filling="0" d="M5.71173095703125 15.496472358703613 L5.71173095703125 15.496472358703613 C7.2668962478637695 16.408557891845703 4.683473587036133 13.797942161560059 6.486543655395508 14.492881774902344 L6.486543655395508 14.69408130645752 C4.894679069519043 13.837448120117188 7.504968643188477 16.463247299194336 5.71173095703125 15.68564224243164 L5.71173095703125 15.68564224243164"></path>
<path fill="none" stroke="black" stroke-width=".3" stroke-opacity="1.0"  filling="0" d="M9.075297355651855 14.366823196411133 L9.205419540405273 15.03316879272461 L9.913227081298828 15.03316879272461 L10.043349266052246 14.366823196411133 L10.043349266052246 15.829638481140137 L9.913227081298828 15.163291931152344 L9.205419540405273 15.163291931152344 L9.075297355651855 15.829638481140137"></path>
<path fill="none" stroke="black" stroke-width=".3" stroke-opacity="1.0"  filling="0" d="M10.614002227783203 14.36682415008545 L11.424166679382324 14.36682415008545 L10.744124412536621 14.508792877197266 L10.744124412536621 15.033169746398926 L11.424166679382324 15.163291931152344 L10.744124412536621 15.163291931152344 L10.744124412536621 15.699515342712402 L11.424166679382324 15.829638481140137 L10.614002227783203 15.829638481140137"></path>
<path fill="none" stroke="black" stroke-width=".3" stroke-opacity="1.0"  filling="0" d="M11.93299674987793 15.829638481140137 L11.93299674987793 14.36682415008545 L12.374635696411133 14.36682415008545 C12.54220962524414 14.498921394348145 12.870026588439941 14.549861907958984 12.87735652923584 14.763114929199219 C12.884513854980469 14.971339225769043 12.560595512390137 15.033848762512207 12.402215003967285 15.16921615600586 L12.902713775634766 15.829638481140137 L12.063117980957031 15.121830940246582 L11.932995796203613 15.829638481140137"></path>
<path fill="none" stroke="black" stroke-width=".3" stroke-opacity="1.0"  filling="0" d="M14.903047561645508 14.366823196411133 L15.841307640075684 15.632511138916016 L15.971430778503418 14.366823196411133 L15.971430778503418 15.829638481140137 L15.033171653747559 14.496946334838867 L14.903047561645508 15.829638481140137"></path>
<path fill="none" stroke="black" stroke-width=".3" stroke-opacity="1.0"  filling="0" d="M1.9398431777954102 15.829645156860352 L2.615999221801758 14.366830825805664 L2.0305328369140625 15.675829887390137 L1.4509973526000977 14.366830825805664"></path>
<path fill="none" stroke="black" stroke-width=".3" stroke-opacity="1.0"  filling="0" d="M3.0322790145874023 14.366830825805664 L3.8424453735351562 14.366830825805664 L3.1624021530151367 14.508800506591797 L3.1624021530151367 15.03317642211914 L3.8424453735351562 15.163299560546875 L3.1624021530151367 15.163299560546875 L3.1624021530151367 15.699522018432617 L3.8424453735351562 15.829645156860352 L3.0322799682617188 15.829645156860352"></path>
<path fill="none" stroke="black" stroke-width=".3" stroke-opacity="1.0"  filling="0" d="M4.351274013519287 15.829645156860352 L4.351274013519287 14.366830825805664 L4.792913913726807 14.366830825805664 C4.960487365722656 14.49892807006836 5.288304805755615 14.5498685836792 5.295634746551514 14.763121604919434 C5.302791595458984 14.971345901489258 4.978874206542969 15.033855438232422 4.820493698120117 15.169222831726074 L5.321178436279297 15.829645156860352 L4.48139762878418 15.121837615966797 L4.3512749671936035 15.829645156860352"></path></svg>