<svg xmlns="http://www.w3.org/2000/svg" viewBox="0.0 0.0 24.0 24.0" height="200px" width="200px"><path fill="none" stroke="black" stroke-width=".3" stroke-opacity="1.0"  filling="0" d="M2.6785144805908203 9.387935638427734 L2.6785144805908203 13.30960750579834 C2.6140646934509277 13.762016296386719 2.6469411849975586 13.928345680236816 2.2230939865112305 14.31615161895752 C2.11657452583313 14.413613319396973 1.0690633058547974 14.875078201293945 1.215449333190918 14.22814655303955 C1.294527292251587 13.87867259979248 1.7950359582901 14.31075382232666 1.8743791580200195 14.31615161895752 C2.337257146835327 14.347643852233887 2.253995418548584 13.472556114196777 2.2692956924438477 13.371210098266602 L2.2692956924438477 9.387935638427734"></path>
<path fill="none" stroke="black" stroke-width=".3" stroke-opacity="1.0"  filling="0" d="M17.70077133178711 9.387935638427734 L18.118789672851562 9.387935638427734 L18.118789672851562 10.998406410217285 L18.53900909423828 10.81689739227295 C19.138032913208008 10.671021461486816 19.354568481445312 10.55290699005127 19.766660690307617 11.85534381866455 C20.179502487182617 13.160146713256836 18.296932220458984 13.116827011108398 17.70077133178711 12.970792770385742 L17.70077133178711 9.387935638427734"></path>
<path fill="none" stroke="black" stroke-width=".3" stroke-opacity="1.0"  filling="0" d="M10.860223770141602 9.390446662902832 L11.047590255737305 11.08127498626709 L10.860223770141602 9.390446662902832"></path>
<path fill="none" stroke="black" stroke-width=".3" stroke-opacity="1.0"  filling="0" d="M10.889273643493652 9.400035858154297 L10.889273643493652 9.400035858154297 C12.215537071228027 9.968944549560547 10.416645050048828 9.76690673828125 10.392051696777344 9.825754165649414 C10.288806915283203 10.072793006896973 10.312114715576172 10.355244636535645 10.272146224975586 10.619989395141602 L10.880473136901855 10.826798439025879 C10.864706039428711 10.897201538085938 10.848938941955566 10.967604637145996 10.833171844482422 11.038007736206055 L10.272146224975586 11.038007736206055 L10.272146224975586 13.098397254943848 L9.861828804016113 13.098397254943848 L9.861828804016113 11.036907196044922 L9.477911949157715 10.979704856872559 L9.861827850341797 10.718994140625 C9.95985221862793 9.980029106140137 10.233882904052734 9.715734481811523 10.889273643493652 9.400036811828613 L10.889273643493652 9.400036811828613"></path>
<path fill="none" stroke="black" stroke-width=".3" stroke-opacity="1.0"  filling="0" d="M13.203774452209473 9.643146514892578 L13.203774452209473 9.643146514892578 C13.421950340270996 9.682747840881348 13.64012622833252 9.722350120544434 13.858302116394043 9.761951446533203 L13.858302116394043 9.761951446533203 C13.8876371383667 10.000661849975586 13.916973114013672 10.239372253417969 13.946308135986328 10.478082656860352 L13.795600891113281 10.50888442993164 C13.568990707397461 10.278607368469238 13.40627670288086 9.959426879882812 13.115771293640137 9.81805419921875 C12.873387336730957 9.70009994506836 12.446617126464844 10.16858959197998 12.539345741271973 10.388978004455566 C12.651005744934082 10.654361724853516 14.115571975708008 12.050504684448242 14.098114013671875 12.188658714294434 C13.942838668823242 13.417421340942383 12.819890022277832 13.258009910583496 12.181830406188965 12.981793403625488 L12.181830406188965 12.981793403625488 C12.135261535644531 12.713747024536133 12.088691711425781 12.445699691772461 12.042122840881348 12.177653312683105 L12.192831039428711 12.141356468200684 C12.476643562316895 12.421868324279785 12.689624786376953 12.799959182739258 13.044267654418945 12.982892990112305 C13.329557418823242 13.13005256652832 13.764684677124023 12.596185684204102 13.666894912719727 12.360265731811523 C13.5436429977417 12.062918663024902 12.109098434448242 10.800395965576172 12.134527206420898 10.567187309265137 C12.185589790344238 10.098896026611328 12.847358703613281 9.951160430908203 13.203774452209473 9.643146514892578 L13.203774452209473 9.643146514892578"></path>
<path fill="none" stroke="black" stroke-width=".3" stroke-opacity="1.0"  filling="0" d="M16.904335021972656 9.77845287322998 L16.904335021972656 9.77845287322998 C17.042757034301758 9.837252616882324 17.485471725463867 10.313076972961426 16.89883804321289 10.313076972961426 C16.30940818786621 10.313076972961426 16.77254867553711 9.834314346313477 16.90433692932129 9.77845287322998 L16.90433692932129 9.77845287322998"></path>
<path fill="none" stroke="black" stroke-width=".3" stroke-opacity="1.0"  filling="0" d="M8.462623596191406 10.035433769226074 L8.275256156921387 11.080772399902344 L8.462623596191406 10.035433769226074"></path>
<path fill="none" stroke="black" stroke-width=".3" stroke-opacity="1.0"  filling="0" d="M6.507781982421875 10.761896133422852 L6.507781982421875 10.761896133422852 C6.659955024719238 10.79306411743164 6.81212854385376 10.82423210144043 6.964301586151123 10.855400085449219 L6.964301586151123 10.855400085449219 C7.000969886779785 11.038741111755371 7.037638187408447 11.22208309173584 7.074306488037109 11.405424118041992 L6.94450044631958 11.441725730895996 C6.730853080749512 11.236430168151855 5.936613082885742 11.023674964904785 6.068862438201904 11.288819313049316 C6.193436145782471 11.53857421875 7.199973106384277 12.240877151489258 7.173310279846191 12.43726921081543 C7.023249626159668 13.542572975158691 6.195052623748779 13.11732006072998 5.724547386169434 12.977392196655273 L5.724547386169434 12.977392196655273 C5.6952128410339355 12.773147583007812 5.665877819061279 12.568902015686035 5.636543273925781 12.364657402038574 L5.776249408721924 12.338264465332031 C6.019627094268799 12.585445404052734 6.911221981048584 12.939227104187012 6.778392791748047 12.618778228759766 C6.679390907287598 12.379938125610352 5.705604076385498 11.569491386413574 5.7190470695495605 11.436225891113281 C5.753763198852539 11.092072486877441 6.244870185852051 10.986672401428223 6.507781505584717 10.761896133422852 L6.507781505584717 10.761896133422852"></path>
<path fill="none" stroke="black" stroke-width=".3" stroke-opacity="1.0"  filling="0" d="M4.260377883911133 10.765195846557617 L4.260377883911133 10.765195846557617 C5.431516647338867 11.263452529907227 6.086684703826904 12.299564361572266 4.2548828125 13.157800674438477 C3.7726340293884277 13.383744239807129 2.953991413116455 12.426815032958984 3.118533134460449 12.011552810668945 C3.3260903358459473 11.487730979919434 3.8797662258148193 11.180647850036621 4.260382652282715 10.765195846557617 L4.260382652282715 10.765195846557617"></path>
<path fill="none" stroke="black" stroke-width=".3" stroke-opacity="1.0"  filling="0" d="M8.561572074890137 10.765195846557617 L8.561572074890137 10.765195846557617 C8.821183204650879 11.028107643127441 9.131498336791992 11.24917221069336 9.340405464172363 11.55393123626709 C9.624153137207031 11.967869758605957 8.357247352600098 11.775627136230469 7.856441020965576 11.8080415725708 L7.856441020965576 11.8080415725708 C8.177711486816406 12.219158172607422 8.751530647277832 12.75586986541748 9.232601165771484 12.553874015808105 L9.310704231262207 12.66387939453125 C7.5556960105896 13.697711944580078 6.887412071228027 11.601073265075684 8.56157112121582 10.765195846557617 L8.56157112121582 10.765195846557617"></path>
<path fill="none" stroke="black" stroke-width=".3" stroke-opacity="1.0"  filling="0" d="M15.500679016113281 10.765195846557617 L15.500679016113281 10.765195846557617 C15.763589859008789 11.028107643127441 16.07609748840332 11.249396324157715 16.289411544799805 11.553932189941406 C16.575674057006836 11.96261215209961 15.31216049194336 11.77570915222168 14.814245223999023 11.8080415725708 L14.814245223999023 11.8080415725708 C15.129526138305664 12.216105461120605 15.703234672546387 12.752184867858887 16.175004959106445 12.543974876403809 L16.258609771728516 12.65397834777832 C14.509358406066895 13.695796012878418 13.835957527160645 11.60600757598877 15.500678062438965 10.765195846557617 L15.500678062438965 10.765195846557617"></path>
<path fill="none" stroke="black" stroke-width=".3" stroke-opacity="1.0"  filling="0" d="M21.181325912475586 10.765195846557617 L21.181325912475586 10.765195846557617 C21.440937042236328 11.028107643127441 21.750062942504883 11.249990463256836 21.960159301757812 11.553930282592773 C22.24367332458496 11.964080810546875 20.98365020751953 11.77573299407959 20.486095428466797 11.8080415725708 L20.486095428466797 11.8080415725708 C20.782575607299805 12.232389450073242 21.36787223815918 12.733616828918457 21.851253509521484 12.548373222351074 L21.934856414794922 12.658378601074219 C20.18276023864746 13.701896667480469 19.511445999145508 11.603748321533203 21.181325912475586 10.765195846557617 L21.181325912475586 10.765195846557617"></path>
<path fill="none" stroke="black" stroke-width=".3" stroke-opacity="1.0"  filling="0" d="M4.193280220031738 10.936802864074707 L4.193280220031738 10.936802864074707 C4.428690433502197 11.303485870361328 4.874293327331543 11.601836204528809 4.899511337280273 12.03685188293457 C4.949298858642578 12.895689964294434 3.7179250717163086 13.854561805725098 3.601454734802246 11.845442771911621 C3.580535650253296 11.484587669372559 3.996005058288574 11.239683151245117 4.193280220031738 10.936802864074707 L4.193280220031738 10.936802864074707"></path>
<path fill="none" stroke="black" stroke-width=".3" stroke-opacity="1.0"  filling="0" d="M8.427364349365234 10.95660400390625 L8.427364349365234 10.95660400390625 C9.117073059082031 11.73170280456543 8.924910545349121 11.576434135437012 7.8850417137146 11.594632148742676 L7.8850417137146 11.594632148742676 C8.065815925598145 11.381956100463867 8.246589660644531 11.169280052185059 8.427364349365234 10.95660400390625 L8.427364349365234 10.95660400390625"></path>
<path fill="none" stroke="black" stroke-width=".3" stroke-opacity="1.0"  filling="0" d="M15.381868362426758 10.95660400390625 L15.381868362426758 10.95660400390625 C16.06450653076172 11.733001708984375 15.871910095214844 11.576469421386719 14.83404541015625 11.594632148742676 L14.83404541015625 11.594632148742676 C15.016286849975586 11.381956100463867 15.198527336120605 11.169280052185059 15.380768775939941 10.95660400390625 L15.380768775939941 10.95660400390625"></path>
<path fill="none" stroke="black" stroke-width=".3" stroke-opacity="1.0"  filling="0" d="M21.057018280029297 10.95660400390625 L21.057018280029297 10.95660400390625 C21.739654541015625 11.733001708984375 21.547060012817383 11.576469421386719 20.509193420410156 11.594632148742676 L20.509193420410156 11.594632148742676 C20.691801071166992 11.381956100463867 20.87441062927246 11.169280052185059 21.057018280029297 10.95660400390625 L21.057018280029297 10.95660400390625"></path>
<path fill="none" stroke="black" stroke-width=".3" stroke-opacity="1.0"  filling="0" d="M18.523605346679688 11.055608749389648 L18.523605346679688 11.055608749389648 C18.78835105895996 11.366922378540039 19.29922103881836 11.581310272216797 19.317842483520508 11.98954963684082 C19.370115280151367 13.135528564453125 18.24709701538086 13.232050895690918 18.11878776550293 12.498871803283691 L18.118789672851562 11.154613494873047 C18.25372886657715 11.121611595153809 18.3886661529541 11.088610649108887 18.523605346679688 11.055608749389648 L18.523605346679688 11.055608749389648"></path>
<path fill="none" stroke="black" stroke-width=".3" stroke-opacity="1.0"  filling="0" d="M20.325485229492188 13.41301155090332 L20.422286987304688 13.979536056518555 C20.526077270507812 13.748566627502441 20.74494171142578 13.654728889465332 20.88100814819336 13.91793441772461 L20.88100814819336 14.378853797912598 L20.984413146972656 13.903633117675781 C20.823001861572266 13.595335006713867 20.740211486816406 13.621413230895996 20.42228889465332 13.737525939941406 L20.325485229492188 13.41301155090332"></path>
<path fill="none" stroke="black" stroke-width=".3" stroke-opacity="1.0"  filling="0" d="M3.6531543731689453 13.413012504577637 L3.7499589920043945 13.979537010192871 C3.8548929691314697 13.746021270751953 4.081421375274658 13.65261459350586 4.2185797691345215 13.917933464050293 L4.2185797691345215 14.378854751586914 L4.3153839111328125 13.904733657836914 C4.1539716720581055 13.596437454223633 4.071181774139404 13.622516632080078 3.75325870513916 13.738626480102539 L3.6531543731689453 13.413012504577637"></path>
<path fill="none" stroke="black" stroke-width=".3" stroke-opacity="1.0"  filling="0" d="M18.495006561279297 13.504314422607422 L18.58740997314453 14.382153511047363 L18.739215850830078 13.69792366027832 L18.495006561279297 13.504314422607422"></path>
<path fill="none" stroke="black" stroke-width=".3" stroke-opacity="1.0"  filling="0" d="M3.261537551879883 13.504316329956055 L3.3539419174194336 14.382155418395996 L3.5101490020751953 13.69902515411377 L3.261537551879883 13.504316329956055"></path>
<path fill="none" stroke="black" stroke-width=".3" stroke-opacity="1.0"  filling="0" d="M16.919734954833984 13.529616355895996 L16.919734954833984 13.529616355895996 C16.820730209350586 13.587552070617676 16.72172737121582 13.645488739013672 16.622722625732422 13.703424453735352 L16.622722625732422 14.38215446472168 L16.52701759338379 13.70782470703125 C16.657922744750977 13.6154203414917 16.788829803466797 13.523016929626465 16.919734954833984 13.430612564086914 L16.919734954833984 13.534016609191895"></path>
<path fill="none" stroke="black" stroke-width=".3" stroke-opacity="1.0"  filling="0" d="M12.268732070922852 13.666022300720215 L12.268732070922852 13.666022300720215 C12.184394836425781 13.695723533630371 12.100057601928711 13.725424766540527 12.01572036743164 13.755125999450684 L12.011321067810059 13.990537643432617 C12.121039390563965 13.757386207580566 12.34028148651123 13.669382095336914 12.481042861938477 13.927834510803223 L12.481042861938477 14.375553131103516 L12.577845573425293 13.916833877563477 C12.514750480651855 13.800106048583984 12.397828102111816 13.696691513061523 12.268732070922852 13.666023254394531 L12.268732070922852 13.666023254394531"></path>
<path fill="none" stroke="black" stroke-width=".3" stroke-opacity="1.0"  filling="0" d="M6.338372230529785 13.666023254394531 L6.338372230529785 13.666023254394531 C5.5981245040893555 13.90429973602295 6.204773902893066 14.760282516479492 6.710188865661621 14.13244342803955 L6.608983993530273 14.13244342803955 C6.4472246170043945 14.226263999938965 6.198836803436279 14.186786651611328 6.051259994506836 14.071940422058105 L6.722288608551025 14.008138656616211 C6.6471381187438965 13.854080200195312 6.503269195556641 13.712827682495117 6.338372230529785 13.666023254394531 L6.338372230529785 13.666023254394531"></path>
<path fill="none" stroke="black" stroke-width=".3" stroke-opacity="1.0"  filling="0" d="M15.980295181274414 13.667120933532715 L15.980295181274414 13.667120933532715 C15.896324157714844 13.703789710998535 15.812353134155273 13.740457534790039 15.728382110595703 13.77712631225586 L15.728382110595703 13.77712631225586 C15.588814735412598 13.710665702819824 15.410257339477539 13.699326515197754 15.265263557434082 13.752925872802734 L15.265263557434082 13.990537643432617 C15.369845390319824 13.711016654968262 15.452589988708496 13.745168685913086 15.666779518127441 13.930034637451172 L15.666779518127441 14.377754211425781 L15.76358413696289 13.948734283447266 C15.889007568359375 13.697887420654297 15.969565391540527 13.759224891662598 16.164003372192383 13.931133270263672 L16.164003372192383 14.378852844238281 L16.259706497192383 13.91683292388916 C16.166568756103516 13.833596229553223 16.07343292236328 13.750358581542969 15.980295181274414 13.667121887207031 L15.980295181274414 13.667121887207031"></path>
<path fill="none" stroke="black" stroke-width=".3" stroke-opacity="1.0"  filling="0" d="M10.46025276184082 13.668222427368164 L10.46025276184082 13.668222427368164 C9.720605850219727 13.9063081741333 10.32581615447998 14.762158393859863 10.83096981048584 14.1346435546875 L10.729763984680176 14.1346435546875 C10.56800365447998 14.228464126586914 10.31961727142334 14.188985824584961 10.172039985656738 14.074139595031738 L10.841968536376953 14.008137702941895 C10.767792701721191 13.854756355285645 10.624153137207031 13.714744567871094 10.46025276184082 13.668222427368164 L10.46025276184082 13.668222427368164"></path>
<path fill="none" stroke="black" stroke-width=".3" stroke-opacity="1.0"  filling="0" d="M22.41887664794922 13.668222427368164 L22.41887664794922 13.668222427368164 C21.67862892150879 13.906497955322266 22.285287857055664 14.762491226196289 22.790695190429688 14.134642601013184 L22.689491271972656 14.1346435546875 C22.52773094177246 14.228464126586914 22.27934455871582 14.188987731933594 22.13176727294922 14.074141502380371 L22.799495697021484 14.008138656616211 C22.725948333740234 13.854758262634277 22.582515716552734 13.714669227600098 22.41887664794922 13.66822338104248 L22.41887664794922 13.66822338104248"></path>
<path fill="none" stroke="black" stroke-width=".3" stroke-opacity="1.0"  filling="0" d="M4.857707977294922 13.668224334716797 L4.857707977294922 13.668224334716797 C4.119176864624023 13.9059476852417 4.721627235412598 14.761740684509277 5.227324485778809 14.133544921875 L5.127219200134277 14.133544921875 C4.965459823608398 14.22736644744873 4.717072010040283 14.187888145446777 4.56949520111084 14.073041915893555 L5.238324165344238 14.008139610290527 C5.164776802062988 13.85476016998291 5.021345615386963 13.71467113494873 4.857707977294922 13.668224334716797 L4.857707977294922 13.668224334716797"></path>
<path fill="none" stroke="black" stroke-width=".3" stroke-opacity="1.0"  filling="0" d="M11.32489013671875 13.669322967529297 L11.32489013671875 13.669322967529297 C10.688215255737305 13.876992225646973 10.987646102905273 14.520678520202637 11.607603073120117 14.283148765563965 L11.606502532958984 13.779326438903809 C11.5126314163208 13.742658615112305 11.418761253356934 13.7059907913208 11.32489013671875 13.669322967529297 L11.32489013671875 13.669322967529297"></path>
<path fill="none" stroke="black" stroke-width=".3" stroke-opacity="1.0"  filling="0" d="M6.864194869995117 13.678123474121094 L6.864194869995117 14.118143081665039 C7.022565841674805 14.434886932373047 7.1050310134887695 14.413362503051758 7.429619312286377 14.298551559448242 L7.437320232391357 14.052139282226562 C7.3085832595825195 14.361105918884277 7.216012954711914 14.315479278564453 6.960999011993408 14.128043174743652 L6.864194869995117 13.678123474121094"></path>
<path fill="none" stroke="black" stroke-width=".3" stroke-opacity="1.0"  filling="0" d="M18.250795364379883 13.769427299499512 L18.250795364379883 13.769427299499512 C18.10973358154297 13.8201322555542 17.98310089111328 13.950529098510742 17.939481735229492 14.093940734863281 L17.939481735229492 13.774927139282227 C18.024616241455078 13.705559730529785 18.143909454345703 13.692326545715332 18.250795364379883 13.667121887207031 L18.250795364379883 13.770526885986328"></path>
<path fill="none" stroke="black" stroke-width=".3" stroke-opacity="1.0"  filling="0" d="M8.14905071258545 13.769428253173828 L8.14905071258545 13.769428253173828 C8.008227348327637 13.820047378540039 7.881776809692383 13.950591087341309 7.838837623596191 14.093942642211914 L7.838837146759033 13.77602767944336 C7.923972129821777 13.706661224365234 8.043264389038086 13.693428039550781 8.15014934539795 13.66822338104248 L8.150150299072266 13.771627426147461"></path>
<path fill="none" stroke="black" stroke-width=".3" stroke-opacity="1.0"  filling="0" d="M6.511079788208008 13.810129165649414 L6.511079788208008 13.810129165649414 C6.54774808883667 13.863664627075195 6.584415912628174 13.917200088500977 6.621084213256836 13.970735549926758 L6.057859420776367 13.970735549926758 C6.195835113525391 13.765243530273438 6.27264404296875 13.75118350982666 6.509980201721191 13.810129165649414 L6.509980201721191 13.810129165649414"></path>
<path fill="none" stroke="black" stroke-width=".3" stroke-opacity="1.0"  filling="0" d="M10.627460479736328 13.811227798461914 L10.627460479736328 13.811227798461914 C10.664129257202148 13.864764213562012 10.700797080993652 13.918299674987793 10.737465858459473 13.97183609008789 L10.176441192626953 13.97183609008789 C10.31441593170166 13.766342163085938 10.391222953796387 13.752284049987793 10.628560066223145 13.811227798461914 L10.628560066223145 13.811227798461914"></path>
<path fill="none" stroke="black" stroke-width=".3" stroke-opacity="1.0"  filling="0" d="M5.026014804840088 13.81122875213623 L5.026014804840088 13.81122875213623 C5.06268310546875 13.864764213562012 5.099351406097412 13.91830062866211 5.136019706726074 13.97183609008789 L4.573894500732422 13.971837043762207 C4.711869239807129 13.766342163085938 4.788678169250488 13.752283096313477 5.026015281677246 13.811229705810547 L5.026015281677246 13.811229705810547"></path>
<path fill="none" stroke="black" stroke-width=".3" stroke-opacity="1.0"  filling="0" d="M22.583885192871094 13.811229705810547 L22.583885192871094 13.811229705810547 C22.620553970336914 13.864765167236328 22.657222747802734 13.91830062866211 22.693891525268555 13.97183609008789 L22.135066986083984 13.97183609008789 C22.273042678833008 13.766342163085938 22.349851608276367 13.752284049987793 22.587186813354492 13.811229705810547 L22.587186813354492 13.811229705810547"></path>
<path fill="none" stroke="black" stroke-width=".3" stroke-opacity="1.0"  filling="0" d="M8.950984954833984 14.022439956665039 L8.950984954833984 14.022439956665039 C8.835555076599121 14.273431777954102 8.35700511932373 14.442547798156738 8.355860710144043 14.032339096069336 C8.354738235473633 13.62980842590332 8.831697463989258 13.775995254516602 8.94548511505127 14.033438682556152 L8.94548511505127 14.033438682556152"></path>
<path fill="none" stroke="black" stroke-width=".3" stroke-opacity="1.0"  filling="0" d="M14.907747268676758 14.03013801574707 L14.907747268676758 14.03013801574707 C14.79282283782959 14.282684326171875 14.319236755371094 14.428939819335938 14.318120956420898 14.030138969421387 C14.316994667053223 13.627607345581055 14.793959617614746 13.773795127868652 14.907746315002441 14.03123950958252 L14.907746315002441 14.03123950958252"></path>
<path fill="none" stroke="black" stroke-width=".3" stroke-opacity="1.0"  filling="0" d="M17.590768814086914 14.030138969421387 L17.590768814086914 14.030138969421387 C17.47584342956543 14.282686233520508 17.00225257873535 14.428937911987305 17.001140594482422 14.03013801574707 C17.000017166137695 13.627607345581055 17.476978302001953 13.773799896240234 17.59076690673828 14.031238555908203 L17.59076690673828 14.031238555908203"></path>
<path fill="none" stroke="black" stroke-width=".3" stroke-opacity="1.0"  filling="0" d="M21.82815170288086 14.03014087677002 L21.82815170288086 14.03014087677002 C21.713228225708008 14.282689094543457 21.23963737487793 14.428937911987305 21.238525390625 14.03014087677002 C21.237401962280273 13.62761116027832 21.714365005493164 13.773795127868652 21.82815170288086 14.031238555908203 L21.82815170288086 14.031238555908203"></path>
<path fill="none" stroke="black" stroke-width=".3" stroke-opacity="1.0"  filling="0" d="M15.006752014160156 14.030138969421387 L15.006752014160156 14.030138969421387 C14.851158142089844 14.369013786315918 14.224809646606445 14.596884727478027 14.224810600280762 14.03068733215332 C14.224811553955078 13.411273956298828 14.86314582824707 13.720390319824219 15.003450393676758 14.031238555908203 L15.003450393676758 14.031238555908203"></path>
<path fill="none" stroke="black" stroke-width=".3" stroke-opacity="1.0"  filling="0" d="M17.689769744873047 14.030138969421387 L17.689769744873047 14.030138969421387 C17.534177780151367 14.369010925292969 16.9078311920166 14.59688663482666 16.9078311920166 14.03068733215332 C16.9078311920166 13.411273956298828 17.546165466308594 13.720389366149902 17.68647003173828 14.031238555908203 L17.68647003173828 14.031238555908203"></path>
<path fill="none" stroke="black" stroke-width=".3" stroke-opacity="1.0"  filling="0" d="M21.927156448364258 14.030139923095703 L21.927156448364258 14.030139923095703 C21.771562576293945 14.369013786315918 21.145214080810547 14.596887588500977 21.145214080810547 14.030689239501953 C21.145214080810547 13.411275863647461 21.783550262451172 13.720390319824219 21.92385482788086 14.031238555908203 L21.92385482788086 14.031238555908203"></path>
<path fill="none" stroke="black" stroke-width=".3" stroke-opacity="1.0"  filling="0" d="M11.6065034866333 14.032339096069336 L11.6065034866333 14.032339096069336 C11.50407886505127 14.2631196975708 11.0421781539917 14.466968536376953 11.042179107666016 14.033437728881836 C11.042180061340332 13.602189064025879 11.506211280822754 13.793269157409668 11.6065034866333 14.033438682556152 L11.6065034866333 14.033438682556152"></path>
<path fill="none" stroke="black" stroke-width=".3" stroke-opacity="1.0"  filling="0" d="M9.043388366699219 14.032339096069336 L9.043388366699219 14.032339096069336 C8.887796401977539 14.3712158203125 8.26144790649414 14.599085807800293 8.261448860168457 14.032888412475586 C8.261449813842773 13.412397384643555 8.900310516357422 13.72398567199707 9.041189193725586 14.033438682556152 L9.041189193725586 14.033438682556152"></path>
<path fill="none" stroke="black" stroke-width=".3" stroke-opacity="1.0"  filling="0" d="M9.956428527832031 14.029038429260254 L9.956428527832031 14.029038429260254 C9.79503345489502 14.427249908447266 9.695442199707031 14.4472074508667 9.300800323486328 14.293050765991211 L9.300800323486328 13.777127265930176 C9.69282054901123 13.622788429260254 9.7925386428833 13.642922401428223 9.955330848693848 14.037837982177734 L9.955330848693848 14.037837982177734"></path>
<path fill="none" stroke="black" stroke-width=".3" stroke-opacity="1.0"  filling="0" d="M9.851924896240234 14.038938522338867 L9.851924896240234 14.038938522338867 C9.406370162963867 15.30019760131836 9.362154006958008 12.777579307556152 9.860725402832031 14.037837982177734 L9.860725402832031 14.037837982177734"></path>
<path fill="none" stroke="black" stroke-width=".3" stroke-opacity="1.0"  filling="0" d="M14.105812072753906 14.140143394470215 L14.105812072753906 14.140143394470215 C13.294520378112793 15.240778923034668 13.306599617004395 12.854153633117676 14.09701156616211 13.908032417297363 L14.00790786743164 13.948734283447266 C13.4666109085083 13.079809188842773 13.41109848022461 15.003024101257324 14.013407707214355 14.102742195129395 L14.106911659240723 14.140143394470215"></path>
<path fill="none" stroke="black" stroke-width=".3" stroke-opacity="1.0"  filling="0" d="M20.12087631225586 14.185245513916016 L20.12087631225586 14.185245513916016 C19.868682861328125 14.545841217041016 19.79228973388672 14.377620697021484 19.475149154663086 14.08734130859375 L19.574153900146484 14.08734130859375 C19.67700958251953 14.375350952148438 20.163908004760742 14.283747673034668 19.88436508178711 14.092841148376465 L19.74026107788086 14.073040962219238 C19.366796493530273 13.947683334350586 19.572002410888672 13.478893280029297 20.12087631225586 13.9454345703125 L20.02077293395996 13.9454345703125 C19.9268741607666 13.679388999938965 19.455320358276367 13.776888847351074 19.745759963989258 13.960836410522461 L19.90086555480957 13.986137390136719 C19.97420310974121 14.052506446838379 20.04753875732422 14.118876457214355 20.12087631225586 14.185245513916016 L20.12087631225586 14.185245513916016"></path></svg>