<svg xmlns="http://www.w3.org/2000/svg" viewBox="0.0 0.0 24.0 24.0" height="200px" width="200px"><path fill="none" stroke="black" stroke-width=".3" stroke-opacity="1.0"  filling="0" d="M21.444503784179688 8.280767440795898 L21.444503784179688 13.363466262817383 L15.15067195892334 13.363466262817383 L8.856840133666992 13.363466262817383 L2.5630083084106445 13.363466262817383 L8.856840133666992 11.669233322143555 L15.15067195892334 9.975000381469727 L21.444503784179688 8.280767440795898"></path>
<path fill="none" stroke="black" stroke-width=".3" stroke-opacity="1.0"  filling="0" d="M15.932024002075195 9.651840209960938 L15.932024002075195 9.651840209960938 C16.17355728149414 9.86962890625 16.227806091308594 10.35920524597168 16.036128997802734 10.621942520141602 L16.477684020996094 11.156356811523438 L16.725217819213867 10.869476318359375 L16.89406967163086 11.043705940246582 L16.63528823852539 11.34769058227539 L17.01477813720703 11.817095756530762 L16.458131790161133 11.530227661132812 C15.567359924316406 11.995479583740234 14.922033309936523 11.61694622039795 15.544479370117188 10.675703048706055 L15.67618465423584 10.579917907714844 C15.53213119506836 10.293169975280762 15.699263572692871 9.872739791870117 15.932027816772461 9.651840209960938 L15.932027816772461 9.651840209960938"></path>
<path fill="none" stroke="black" stroke-width=".3" stroke-opacity="1.0"  filling="0" d="M4.108498573303223 9.673347473144531 L4.108498573303223 10.866297721862793 L4.550504207611084 10.384919166564941 L5.0169830322265625 10.384919166564941 L4.441519737243652 11.011690139770508 L5.059495449066162 11.817095756530762 L4.586911678314209 11.817095756530762 L4.108498573303223 11.175172805786133 L4.108498573303223 11.817095756530762 L3.6970062255859375 11.817095756530762 L3.6970062255859375 9.673347473144531"></path>
<path fill="none" stroke="black" stroke-width=".3" stroke-opacity="1.0"  filling="0" d="M5.637948989868164 9.673347473144531 L5.637948989868164 11.33571720123291 C5.679951190948486 11.403621673583984 5.761842727661133 11.473200798034668 5.841004371643066 11.462779998779297 L5.892563343048096 11.768715858459473 C5.662097930908203 11.826828002929688 5.399569034576416 11.677186012268066 5.226444721221924 11.514338493347168 L5.226444721221924 9.673347473144531"></path>
<path fill="none" stroke="black" stroke-width=".3" stroke-opacity="1.0"  filling="0" d="M9.524227142333984 9.673347473144531 L9.524227142333984 10.866297721862793 L9.966458320617676 10.384919166564941 L10.432699203491211 10.384919166564941 L9.8572359085083 11.011690139770508 L10.474973678588867 11.817095756530762 L10.0028657913208 11.817095756530762 L9.524227142333984 11.175172805786133 L9.524227142333984 11.817095756530762 L9.112722396850586 11.817095756530762 L9.112722396850586 9.673347473144531"></path>
<path fill="none" stroke="black" stroke-width=".3" stroke-opacity="1.0"  filling="0" d="M6.459231376647949 9.770345687866211 L6.459231376647949 9.770345687866211 C6.93694543838501 10.261880874633789 5.976187229156494 10.259700775146484 6.459231376647949 9.770345687866211 L6.459231376647949 9.770345687866211"></path>
<path fill="none" stroke="black" stroke-width=".3" stroke-opacity="1.0"  filling="0" d="M7.043740272521973 9.770345687866211 L7.043740272521973 9.770345687866211 C7.527873516082764 10.261399269104004 6.558763027191162 10.261059761047363 7.043740272521973 9.770345687866211 L7.043740272521973 9.770345687866211"></path>
<path fill="none" stroke="black" stroke-width=".3" stroke-opacity="1.0"  filling="0" d="M15.926408767700195 9.860025405883789 L15.926408767700195 9.860025405883789 C16.06228256225586 9.986519813537598 16.034854888916016 10.270261764526367 15.921041488647461 10.416922569274902 L15.81718635559082 10.349237442016602 C15.744922637939453 10.198587417602539 15.80541706085205 9.975258827209473 15.926408767700195 9.860025405883789 L15.926408767700195 9.860025405883789"></path>
<path fill="none" stroke="black" stroke-width=".3" stroke-opacity="1.0"  filling="0" d="M22.576847076416016 9.944083213806152 L22.576847076416016 15.719232559204102 L15.525615692138672 15.719232559204102 L8.474385261535645 15.719232559204102 L1.4231538772583008 15.719232559204102 L8.474385261535645 13.794182777404785 L15.525615692138672 11.869132995605469 L22.576847076416016 9.944083213806152"></path>
<path fill="none" stroke="black" stroke-width=".3" stroke-opacity="1.0"  filling="0" d="M6.734865665435791 10.351676940917969 L6.734865665435791 10.351676940917969 C7.441276550292969 10.627036094665527 7.917261600494385 11.806554794311523 6.734865665435791 11.847647666931152 C5.566500663757324 11.888253211975098 6.050416469573975 10.626794815063477 6.734865188598633 10.351676940917969 L6.734865188598633 10.351676940917969"></path>
<path fill="none" stroke="black" stroke-width=".3" stroke-opacity="1.0"  filling="0" d="M8.429525375366211 10.351676940917969 L8.429525375366211 10.351676940917969 C8.569867134094238 10.385970115661621 8.71020793914795 10.420263290405273 8.850549697875977 10.454556465148926 L8.844169616699219 10.781509399414062 C7.932973861694336 10.470442771911621 7.92205810546875 11.684118270874023 8.817046165466309 11.423432350158691 L8.916985511779785 11.686854362487793 C7.598989486694336 12.090733528137207 7.627284526824951 11.15389347076416 8.429500579833984 10.351676940917969 L8.429500579833984 10.351676940917969"></path>
<path fill="none" stroke="black" stroke-width=".3" stroke-opacity="1.0"  filling="0" d="M11.535293579101562 10.351676940917969 L11.535293579101562 10.351676940917969 C11.689727783203125 10.524192810058594 11.844161033630371 10.696709632873535 11.998595237731934 10.86922550201416 L11.998595237731934 11.817095756530762 L11.5897798538208 11.817095756530762 L11.5897798538208 10.987505912780762 C11.48320484161377 10.834147453308105 11.229082107543945 10.759302139282227 11.053901672363281 10.82402229309082 L11.053901672363281 11.817095756530762 L10.642160415649414 11.817095756530762 L10.642160415649414 10.384919166564941 L11.032646179199219 10.536166191101074 C11.2001953125 10.474669456481934 11.367744445800781 10.41317367553711 11.535293579101562 10.351676940917969 L11.535293579101562 10.351676940917969"></path>
<path fill="none" stroke="black" stroke-width=".3" stroke-opacity="1.0"  filling="0" d="M12.887812614440918 10.351676940917969 L12.887812614440918 10.351676940917969 C13.109772682189941 10.597908973693848 13.331733703613281 10.84414005279541 13.553693771362305 11.090372085571289 L12.627079963684082 11.214508056640625 C12.832745552062988 11.381152153015137 13.136903762817383 11.490063667297363 13.393150329589844 11.42368221282959 L13.486984252929688 11.683926582336426 C12.208687782287598 12.067234992980957 12.133915901184082 11.200061798095703 12.887812614440918 10.351676940917969 L12.887812614440918 10.351676940917969"></path>
<path fill="none" stroke="black" stroke-width=".3" stroke-opacity="1.0"  filling="0" d="M14.53576946258545 10.351676940917969 L14.53576946258545 10.351676940917969 C14.608426094055176 10.373834609985352 14.681082725524902 10.395991325378418 14.753739356994629 10.4181489944458 L14.605170249938965 10.75731372833252 C14.461113929748535 10.716604232788086 14.297964096069336 10.759383201599121 14.160184860229492 10.817917823791504 L14.160184860229492 11.817095756530762 L13.751382827758789 11.817095756530762 L13.751382827758789 10.384919166564941 L14.142105102539062 10.533238410949707 C14.27332592010498 10.472718238830566 14.404547691345215 10.41219711303711 14.535768508911133 10.351676940917969 L14.535768508911133 10.351676940917969"></path>
<path fill="none" stroke="black" stroke-width=".3" stroke-opacity="1.0"  filling="0" d="M18.289377212524414 10.351676940917969 L18.289377212524414 10.351676940917969 C18.42963981628418 10.385970115661621 18.569900512695312 10.420263290405273 18.710163116455078 10.454556465148926 L18.70428466796875 10.781509399414062 C17.792949676513672 10.470406532287598 17.781322479248047 11.684098243713379 18.676910400390625 11.423432350158691 L18.776851654052734 11.686854362487793 C17.458921432495117 12.09090518951416 17.487228393554688 11.153815269470215 18.289352416992188 10.351676940917969 L18.289352416992188 10.351676940917969"></path>
<path fill="none" stroke="black" stroke-width=".3" stroke-opacity="1.0"  filling="0" d="M19.62037467956543 10.351676940917969 L19.62037467956543 10.351676940917969 C20.327098846435547 10.627033233642578 20.803091049194336 11.80655288696289 19.620378494262695 11.847647666931152 C18.452159881591797 11.888238906860352 18.936243057250977 10.626797676086426 19.620378494262695 10.351676940917969 L19.620378494262695 10.351676940917969"></path>
<path fill="none" stroke="black" stroke-width=".3" stroke-opacity="1.0"  filling="0" d="M12.875350952148438 10.65126895904541 L12.875350952148438 10.65126895904541 C12.962178230285645 10.745102882385254 13.049006462097168 10.838935852050781 13.135833740234375 10.932769775390625 L12.618045806884766 10.932769775390625 C12.703814506530762 10.838935852050781 12.789582252502441 10.745102882385254 12.875350952148438 10.65126895904541 L12.875350952148438 10.65126895904541"></path>
<path fill="none" stroke="black" stroke-width=".3" stroke-opacity="1.0"  filling="0" d="M6.728759288787842 10.672525405883789 L6.728759288787842 10.672525405883789 C7.477834701538086 11.657848358154297 6.004729747772217 11.66110610961914 6.728759288787842 10.672525405883789 L6.728759288787842 10.672525405883789"></path>
<path fill="none" stroke="black" stroke-width=".3" stroke-opacity="1.0"  filling="0" d="M19.614273071289062 10.672525405883789 L19.614273071289062 10.672525405883789 C20.363689422607422 11.657584190368652 18.890626907348633 11.661365509033203 19.614269256591797 10.672525405883789 L19.614269256591797 10.672525405883789"></path>
<path fill="none" stroke="black" stroke-width=".3" stroke-opacity="1.0"  filling="0" d="M15.8311128616333 10.771000862121582 L16.30076789855957 11.345000267028809 C15.598766326904297 11.750113487243652 15.226640701293945 11.460251808166504 15.805702209472656 10.787866592407227 L15.805702209472656 10.787866592407227"></path></svg>