<svg xmlns="http://www.w3.org/2000/svg" viewBox="0.0 0.0 24.0 24.0" height="200px" width="200px"><path fill="none" stroke="black" stroke-width=".3" stroke-opacity="1.0"  filling="0" d="M2.662761688232422 6.933992862701416 L3.8519086837768555 6.933992862701416 L3.172396659851074 11.799786567687988 L4.009672164916992 9.48823070526123 L5.1745500564575195 9.48823070526123 L4.094592094421387 12.06673812866211 L4.428290843963623 15.033537864685059 L3.208817481994629 15.033537864685059 L3.093534469604492 12.400426864624023 L2.7295093536376953 15.033537864685059 L1.5039606094360352 15.033537864685059 L2.0833611488342285 10.983765602111816 L2.662761688232422 6.933992862701416"></path>
<path fill="none" stroke="black" stroke-width=".3" stroke-opacity="1.0"  filling="0" d="M9.512499809265137 9.476097106933594 L11.108129501342773 9.476097106933594 L10.792641639709473 15.021403312683105 L9.633840560913086 15.021403312683105 L9.755182266235352 13.9414644241333 L9.263740539550781 13.9414644241333 L8.996788024902344 15.021403312683105 L7.825852394104004 15.021403312683105 L9.512499809265137 9.476097106933594"></path>
<path fill="none" stroke="black" stroke-width=".3" stroke-opacity="1.0"  filling="0" d="M5.538575172424316 9.48823070526123 L6.830852031707764 9.48823070526123 L6.909714698791504 12.133475303649902 L7.328352451324463 9.48823070526123 L8.323352813720703 9.48823070526123 L7.486096382141113 15.033537864685059 L6.321218013763428 15.033537864685059 L6.205934047698975 12.133475303649902 L5.769104480743408 15.033537864685059 L4.70129919052124 15.033537864685059 L5.538575172424316 9.48823070526123"></path>
<path fill="none" stroke="black" stroke-width=".3" stroke-opacity="1.0"  filling="0" d="M13.183089256286621 9.48823070526123 L12.467155456542969 13.983933448791504 C12.467155456542969 14.445631980895996 12.807247161865234 14.177539825439453 12.849390983581543 13.868659019470215 L13.547113418579102 9.494298934936523 L14.748373985290527 9.494298934936523 L14.074939727783203 13.759451866149902 C13.87427806854248 15.023618698120117 11.491445541381836 16.01885414123535 11.24162483215332 14.408628463745117 C11.0101957321167 12.916942596435547 11.7384614944458 10.954665184020996 11.963597297668457 9.494298934936523 L13.183089256286621 9.48823070526123"></path>
<path fill="none" stroke="black" stroke-width=".3" stroke-opacity="1.0"  filling="0" d="M15.23374080657959 9.48823070526123 L17.187358856201172 9.48823070526123 L17.06601905822754 10.36795711517334 L16.337968826293945 10.36795711517334 L16.180204391479492 11.472164154052734 L16.89006233215332 11.472164154052734 L16.750530242919922 12.394360542297363 L16.058862686157227 12.394360542297363 L15.312623023986816 17.066007614135742 L14.074939727783203 17.066007614135742 L14.654340744018555 13.277118682861328 L15.23374080657959 9.48823070526123"></path>
<path fill="none" stroke="black" stroke-width=".3" stroke-opacity="1.0"  filling="0" d="M10.204145431518555 10.113139152526855 L9.86439037322998 13.013200759887695 L9.494307518005371 13.013200759887695 L10.204145431518555 10.113139152526855"></path>
<path fill="none" stroke="black" stroke-width=".3" stroke-opacity="1.0"  filling="0" d="M19.705184936523438 12.624908447265625 L19.705184936523438 12.624908447265625 C20.32928466796875 13.405035018920898 18.87691879272461 13.424612045288086 19.705184936523438 12.624908447265625 L19.705184936523438 12.624908447265625"></path>
<path fill="none" stroke="black" stroke-width=".3" stroke-opacity="1.0"  filling="0" d="M18.540306091308594 12.74625015258789 L18.540306091308594 12.74625015258789 C18.746585845947266 12.93028450012207 18.95286750793457 13.114319801330566 19.159147262573242 13.298354148864746 L18.594921112060547 13.516769409179688 C18.16915512084961 12.746394157409668 17.77890968322754 15.187546730041504 18.503904342651367 14.202348709106445 L18.37042999267578 13.729116439819336 L19.128803253173828 13.826189041137695 C18.82343101501465 14.240772247314453 18.72670555114746 15.039702415466309 18.212684631347656 15.069939613342285 C17.7753963470459 15.095663070678711 17.520553588867188 14.350951194763184 17.581708908081055 13.917196273803711 C17.652132034301758 13.417709350585938 18.220773696899414 13.136565208435059 18.540306091308594 12.74625015258789 L18.540306091308594 12.74625015258789"></path>
<path fill="none" stroke="black" stroke-width=".3" stroke-opacity="1.0"  filling="0" d="M20.851852416992188 13.425762176513672 L20.851852416992188 13.425762176513672 C21.44776725769043 13.425762176513672 21.38765525817871 15.63754940032959 20.38469696044922 14.815122604370117 L20.378639221191406 14.821189880371094 C20.3685245513916 14.91826343536377 20.358407974243164 15.015336036682129 20.34829330444336 15.112409591674805 L20.263355255126953 15.731250762939453 L19.729454040527344 15.731250762939453 L20.05707550048828 13.456097602844238 L20.590978622436523 13.456097602844238 L20.548500061035156 13.68057918548584 C20.64961814880371 13.595640182495117 20.750734329223633 13.510701179504395 20.851852416992188 13.425762176513672 L20.851852416992188 13.425762176513672"></path>
<path fill="none" stroke="black" stroke-width=".3" stroke-opacity="1.0"  filling="0" d="M22.07740020751953 13.425762176513672 L22.07740020751953 13.425762176513672 C22.216947555541992 13.468232154846191 22.35649299621582 13.510701179504395 22.49604034423828 13.553171157836914 L22.25335693359375 13.977867126464844 C21.78754234313965 13.653189659118652 22.837188720703125 15.432398796081543 21.240142822265625 14.90006160736084 L21.50103759765625 14.463232040405273 C22.256498336791992 14.986215591430664 21.40310287475586 14.027201652526855 21.428234100341797 13.953598022460938 C21.51835060119629 13.689666748046875 21.861011505126953 13.601707458496094 22.07740020751953 13.425762176513672 L22.07740020751953 13.425762176513672"></path>
<path fill="none" stroke="black" stroke-width=".3" stroke-opacity="1.0"  filling="0" d="M19.322948455810547 13.456097602844238 L19.85079574584961 13.456097602844238 L19.626323699951172 15.027470588684082 L19.09847640991211 15.027470588684082 L19.322948455810547 13.456097602844238"></path>
<path fill="none" stroke="black" stroke-width=".3" stroke-opacity="1.0"  filling="0" d="M20.62738037109375 13.905061721801758 L20.62738037109375 13.905061721801758 C20.82672691345215 14.631258964538574 20.24297523498535 14.65958023071289 20.62738037109375 13.905061721801758 L20.62738037109375 13.905061721801758"></path></svg>