<svg xmlns="http://www.w3.org/2000/svg" viewBox="0.0 0.0 24.0 24.0" height="200px" width="200px"><path fill="none" stroke="black" stroke-width=".3" stroke-opacity="1.0"  filling="0" d="M4.908730983734131 4.052818298339844 L8.897740364074707 8.011675834655762 L12.886750221252441 11.97053337097168 L7.588172912597656 11.990179061889648 L2.2895946502685547 12.0098237991333 L-3.008983612060547 12.029467582702637 L0.949873685836792 8.041143417358398 L4.908730983734131 4.052818298339844"></path>
<path fill="none" stroke="black" stroke-width=".3" stroke-opacity="1.0"  filling="0" d="M4.568833351135254 7.882157802581787 L4.568833351135254 7.882157802581787 C4.797064781188965 7.819592475891113 5.050107002258301 7.818495273590088 5.278782367706299 7.879416465759277 L8.165177345275879 9.537792205810547 C8.206268310546875 9.595623970031738 8.265178680419922 9.652281761169434 8.132284164428711 9.718706130981445 L8.132284164428711 9.718706130981445 C8.139134407043457 9.715282440185547 8.146849632263184 9.713956832885742 8.154212951660156 9.71185302734375 L4.926548957824707 11.684086799621582 L1.3439092636108398 9.996929168701172 C1.2997936010360718 9.867850303649902 1.4555078744888306 9.740880966186523 1.5522336959838867 9.644696235656738 L4.5688323974609375 7.882157802581787"></path>
<path fill="none" stroke="black" stroke-width=".3" stroke-opacity="1.0"  filling="0" d="M1.2041120529174805 10.207995414733887 L1.2041120529174805 10.207995414733887 C1.2487897872924805 10.179086685180664 1.3895399570465088 10.206711769104004 1.357614517211914 10.16413688659668 L4.409848213195801 11.99931526184082 L1.369950294494629 13.85642147064209 C1.407544493675232 13.809429168701172 1.217239499092102 13.826040267944336 1.2137060165405273 13.76596450805664 L1.2000007629394531 10.2628173828125 C1.201371192932129 10.244543075561523 1.2027416229248047 10.226269721984863 1.2041120529174805 10.207995414733887 L1.2041120529174805 10.207995414733887"></path>
<path fill="none" stroke="black" stroke-width=".3" stroke-opacity="1.0"  filling="0" d="M18.18807029724121 10.550634384155273 L18.55263900756836 10.549263954162598 C18.583919525146484 11.253149032592773 18.52678871154785 11.963221549987793 18.562232971191406 12.666777610778809 C18.583017349243164 13.079328536987305 19.462158203125 13.231969833374023 19.646343231201172 12.9093656539917 C20.059301376342773 12.18605899810791 19.786006927490234 11.571708679199219 19.780658721923828 10.609569549560547 L20.147968292236328 10.54515266418457 C20.170547485351562 11.030999183654785 20.20615577697754 12.191634178161621 20.160301208496094 12.683223724365234 C20.07977867126465 13.546486854553223 18.702713012695312 13.626934051513672 18.28948974609375 12.995710372924805 C17.975509643554688 12.516088485717773 18.153461456298828 11.086706161499023 18.188068389892578 10.550634384155273 L18.188068389892578 10.550634384155273"></path>
<path fill="none" stroke="black" stroke-width=".3" stroke-opacity="1.0"  filling="0" d="M17.519237518310547 10.552005767822266 L17.530202865600586 13.34109115600586 L17.09984588623047 13.342462539672852 C16.705785751342773 12.632856369018555 16.311521530151367 11.923364639282227 15.917055130004883 11.213984489440918 L15.90060806274414 11.218096733093262 C15.89876937866211 11.419561386108398 15.898330688476562 11.62104320526123 15.899238586425781 11.822513580322266 L15.906089782714844 13.347945213317871 L15.552484512329102 13.349315643310547 L15.541520118713379 10.561600685119629 L15.977357864379883 10.560230255126953 C16.369047164916992 11.278310775756836 16.760570526123047 11.99648380279541 17.15192413330078 12.714747428894043 L17.16014862060547 10.553377151489258 L17.519237518310547 10.552005767822266"></path>
<path fill="none" stroke="black" stroke-width=".3" stroke-opacity="1.0"  filling="0" d="M8.533858299255371 10.582158088684082 L8.533858299255371 10.582158088684082 C8.581953048706055 10.574758529663086 8.626489639282227 10.615208625793457 8.666802406311035 10.642462730407715 L8.666802406311035 13.321904182434082 C8.621854782104492 13.352924346923828 8.476966857910156 13.333401679992676 8.511929512023926 13.37535572052002 L5.588528633117676 11.993833541870117 L8.50507640838623 10.595863342285156 C8.498586654663086 10.608842849731445 8.502768516540527 10.599115371704102 8.533858299255371 10.582158088684082 L8.533858299255371 10.582158088684082"></path>
<path fill="none" stroke="black" stroke-width=".3" stroke-opacity="1.0"  filling="0" d="M14.875431060791016 11.967792510986328 L14.875431060791016 11.967792510986328 C14.879193305969238 12.955368995666504 13.867990493774414 14.367697715759277 12.894974708557129 13.01763916015625 C12.544818878173828 12.531798362731934 12.781217575073242 11.822188377380371 12.799036026000977 11.223579406738281 C12.823678970336914 10.395700454711914 14.074938774108887 10.40131664276123 14.586243629455566 10.709619522094727 C14.997261047363281 10.957451820373535 14.874724388122559 11.603458404541016 14.875431060791016 11.967792510986328 L14.875431060791016 11.967792510986328"></path>
<path fill="none" stroke="black" stroke-width=".3" stroke-opacity="1.0"  filling="0" d="M13.16634464263916 11.97053337097168 L13.16634464263916 11.97053337097168 C13.164995193481445 11.28062629699707 13.672420501708984 10.132560729980469 14.483450889587402 11.133122444152832 C14.812644004821777 11.53924560546875 14.537354469299316 12.178528785705566 14.520456314086914 12.701040267944336 C14.50593376159668 13.150102615356445 13.614832878112793 13.149680137634277 13.41030502319336 13.002564430236816 C13.028328895568848 12.72780990600586 13.168212890625 12.463542938232422 13.16634464263916 11.97053337097168 L13.16634464263916 11.97053337097168"></path>
<path fill="none" stroke="black" stroke-width=".3" stroke-opacity="1.0"  filling="0" d="M4.927919387817383 12.31180191040039 L8.182994842529297 14.268961906433105 C8.171573638916016 14.265763282775879 8.160152435302734 14.262565612792969 8.148731231689453 14.259366989135742 L8.148731231689453 14.259366989135742 C8.178465843200684 14.312545776367188 8.218284606933594 14.389243125915527 8.182994842529297 14.438909530639648 L5.307563304901123 16.119213104248047 C5.07933235168457 16.181779861450195 4.826290130615234 16.182876586914062 4.597614765167236 16.12195587158203 L1.568680763244629 14.381345748901367 C1.4978688955307007 14.31738567352295 1.427056908607483 14.253426551818848 1.3562450408935547 14.18946647644043 L1.3562450408935547 14.18946647644043 C1.412262201309204 14.203482627868652 1.3483983278274536 14.070348739624023 1.369950294494629 14.016777038574219 L1.3795433044433594 14.012664794921875 C1.384111762046814 14.01083755493164 1.388680100440979 14.009010314941406 1.3932485580444336 14.007183074951172 L1.3932485580444336 14.007183074951172 C1.3914213180541992 14.00763988494873 1.3895940780639648 14.008095741271973 1.3877668380737305 14.008552551269531 L4.927919387817383 12.31180191040039"></path>
<path fill="none" stroke="black" stroke-width=".3" stroke-opacity="1.0"  filling="0" d="M22.799999237060547 13.323273658752441 L22.3929443359375 13.324645042419434 C22.15812110900879 12.956421852111816 21.92329978942871 12.588197708129883 21.6884765625 12.219974517822266 L21.6884765625 12.219974517822266 C21.457765579223633 12.590024948120117 21.2270565032959 12.960076332092285 20.99634552001953 13.330126762390137 L20.589290618896484 13.331497192382812 C20.889442443847656 12.856369972229004 21.189594268798828 12.381243705749512 21.48974609375 11.906116485595703 L21.48974609375 11.906116485595703 C21.199188232421875 11.450177192687988 20.908628463745117 10.99423885345459 20.618070602416992 10.538299560546875 L21.021015167236328 10.5369291305542 C21.24258804321289 10.888249397277832 21.464162826538086 11.239568710327148 21.68573570251465 11.590888977050781 L21.68573570251465 11.590888977050781 C21.906396865844727 11.238198280334473 22.127056121826172 10.88550853729248 22.34771728515625 10.532817840576172 L22.750659942626953 10.531447410583496 C22.463756561279297 10.989213943481445 22.17685317993164 11.446980476379395 21.889949798583984 11.904747009277344 L21.889949798583984 11.904747009277344 C22.193300247192383 12.377589225769043 22.49665069580078 12.850431442260742 22.80000114440918 13.323273658752441 L22.80000114440918 13.323273658752441"></path>
<path fill="none" stroke="black" stroke-width=".3" stroke-opacity="1.0"  filling="0" d="M12.385126113891602 13.363019943237305 L11.90131950378418 13.364391326904297 C11.534923553466797 12.960533142089844 11.168527603149414 12.55667495727539 10.802131652832031 12.152816772460938 L10.748679161071777 13.364391326904297 L10.385481834411621 13.365761756896973 L10.374517440795898 10.576675415039062 L10.733603477478027 10.575304985046387 L10.737715721130371 11.78687858581543 C11.122312545776367 11.746393203735352 11.290070533752441 11.244565963745117 11.546344757080078 10.954949378967285 L11.867055892944336 10.593121528625488 C11.872538566589355 10.585355758666992 11.878020286560059 10.57758903503418 11.883502960205078 10.569823265075684 L12.371420860290527 10.568452835083008 C11.948832511901855 11.036269187927246 11.526243209838867 11.5040864944458 11.103654861450195 11.971902847290039 L11.103654861450195 11.971902847290039 C11.53081226348877 12.435608863830566 11.957968711853027 12.899313926696777 12.385126113891602 13.363019943237305 L12.385126113891602 13.363019943237305"></path></svg>