<svg xmlns="http://www.w3.org/2000/svg" viewBox="0.0 0.0 24.0 24.0" height="200px" width="200px"><path fill="none" stroke="black" stroke-width=".3" stroke-opacity="1.0"  filling="0" d="M20.59809112548828 8.416831970214844 L20.59809112548828 8.416831970214844 C20.990203857421875 8.473958015441895 21.38231658935547 8.531085014343262 21.774429321289062 8.588211059570312 L21.690956115722656 9.427362442016602 C21.006540298461914 9.248023986816406 20.34490966796875 8.908312797546387 19.660348892211914 9.465370178222656 C18.418790817260742 10.47568130493164 19.71847152709961 11.784125328063965 20.876998901367188 11.575357437133789 L20.876998901367188 10.813441276550293 L20.268821716308594 10.813441276550293 L20.268821716308594 10.084441184997559 L21.880430221557617 10.084441184997559 L21.88045310974121 12.226842880249023 C20.98965072631836 12.331358909606934 19.68416976928711 12.68353271484375 18.867719650268555 11.961823463439941 C17.96854591369629 11.166991233825684 17.834590911865234 9.693285942077637 18.83302116394043 8.877259254455566 C19.303823471069336 8.492467880249023 20.009735107421875 8.570307731628418 20.59809112548828 8.416831970214844 L20.59809112548828 8.416831970214844"></path>
<path fill="none" stroke="black" stroke-width=".3" stroke-opacity="1.0"  filling="0" d="M11.156825065612793 8.483330726623535 L12.194119453430176 8.483330726623535 L12.205242156982422 10.056925773620605 L13.376225471496582 8.483330726623535 L14.625088691711426 8.483330726623535 L13.186579704284668 10.277894973754883 L14.737025260925293 12.33731746673584 L13.41557502746582 12.33731746673584 L12.194120407104492 10.586921691894531 L12.194120407104492 12.33731746673584 L11.15682601928711 12.33731746673584 L11.156825065612793 8.483330726623535"></path>
<path fill="none" stroke="black" stroke-width=".3" stroke-opacity="1.0"  filling="0" d="M14.893109321594238 8.483330726623535 L17.848995208740234 8.483330726623535 L17.848995208740234 9.245096206665039 L16.889474868774414 9.245096206665039 L16.889474868774414 12.33731746673584 L15.852115631103516 12.33731746673584 L15.852115631103516 9.245096206665039 L14.893109321594238 9.245096206665039 L14.893109321594238 8.483330726623535"></path>
<path fill="none" stroke="black" stroke-width=".3" stroke-opacity="1.0"  filling="0" d="M3.3522119522094727 10.440367698669434 L3.3522119522094727 10.440367698669434 C4.6742987632751465 10.702346801757812 5.335062026977539 11.120626449584961 6.672152042388916 10.561539649963379 C7.008825302124023 10.420763969421387 7.570321559906006 10.300527572631836 7.570321559906006 9.93560791015625 L7.570321559906006 9.93560791015625 C9.935510635375977 10.439077377319336 5.862985610961914 11.45417594909668 5.464601993560791 11.4502534866333 C4.271292686462402 11.438504219055176 4.03606653213501 11.069462776184082 3.3522119522094727 10.440367698669434 L3.3522119522094727 10.440367698669434"></path>
<path fill="none" stroke="black" stroke-width=".3" stroke-opacity="1.0"  filling="0" d="M5.387366771697998 11.951098442077637 L5.387366771697998 11.951098442077637 C6.337616443634033 12.3723783493042 7.279628753662109 12.813013076782227 8.209996223449707 13.276551246643066 L8.209996223449707 13.276551246643066 C8.492217063903809 14.730937004089355 6.184760093688965 12.325986862182617 5.690649032592773 12.422921180725098 C4.868433952331543 12.584222793579102 4.151625633239746 13.58792495727539 3.350813865661621 13.341437339782715 L3.350813865661621 13.341437339782715 C3.978574752807617 12.810836791992188 4.66292667388916 12.339437484741211 5.387366771697998 11.951098442077637 L5.387366771697998 11.951098442077637"></path>
<path fill="none" stroke="black" stroke-width=".3" stroke-opacity="1.0"  filling="0" d="M10.151285171508789 12.13874340057373 L10.151285171508789 12.13874340057373 C8.613107681274414 12.303173065185547 9.344481468200684 9.802895545959473 7.6775736808776855 8.852861404418945 C6.021537780761719 7.909023761749268 3.8213253021240234 8.433392524719238 2.8505303859710693 10.102320671081543 C2.207320213317871 11.208086013793945 2.98126220703125 12.060285568237305 1.6338939666748047 12.093328475952148 C1.0045764446258545 12.10876178741455 1.723089337348938 10.815154075622559 1.9653189182281494 10.23411750793457 C2.174084186553955 9.733351707458496 2.4943714141845703 9.26970386505127 2.879244327545166 8.887313842773438 C4.261920928955078 7.513558387756348 6.10928201675415 7.379887580871582 7.596298694610596 8.062919616699219 C9.083314895629883 8.745952606201172 10.209986686706543 10.245687484741211 10.151285171508789 12.13874340057373 L10.151285171508789 12.13874340057373"></path>
<path fill="none" stroke="black" stroke-width=".3" stroke-opacity="1.0"  filling="0" d="M2.553807258605957 12.969353675842285 L2.553807258605957 12.969353675842285 C3.297304391860962 14.234564781188965 4.180170059204102 15.480974197387695 5.8948588371276855 15.354454040527344 C6.5557966232299805 15.305685997009277 7.242193222045898 15.149521827697754 7.8032450675964355 14.796764373779297 C8.347709655761719 14.454435348510742 8.554845809936523 13.720890998840332 9.081073760986328 13.351140975952148 C9.298633575439453 13.198274612426758 9.897180557250977 13.073240280151367 9.878660202026367 13.33849048614502 C9.706218719482422 15.808255195617676 5.853686809539795 16.453601837158203 4.146529674530029 15.712872505187988 C3.3435986042022705 15.364482879638672 0.8226615190505981 13.657526016235352 2.553807258605957 12.969353675842285 L2.553807258605957 12.969353675842285"></path>
<path fill="none" stroke="black" stroke-width=".3" stroke-opacity="1.0"  filling="0" d="M12.154834747314453 13.283307075500488 L12.239879608154297 13.823457717895508 C12.322924613952637 14.306241989135742 12.355063438415527 14.87628173828125 12.70724868774414 15.216785430908203 L11.990942001342773 15.216808319091797 C12.15048599243164 15.07165813446045 12.154393196105957 14.795105934143066 12.118476867675781 14.582426071166992 L11.484030723571777 14.582426071166992 C11.388086318969727 14.771476745605469 11.312426567077637 15.046384811401367 11.438528060913086 15.216808319091797 L10.788850784301758 15.216808319091797 C10.909256935119629 15.119672775268555 11.029664039611816 15.022537231445312 11.150070190429688 14.92540168762207 L12.154834747314453 13.283307075500488"></path>
<path fill="none" stroke="black" stroke-width=".3" stroke-opacity="1.0"  filling="0" d="M19.79561996459961 13.28332805633545 L19.79561996459961 13.28332805633545 C19.937023162841797 13.30705738067627 20.080324172973633 13.330331802368164 20.21464729309082 13.380485534667969 L20.21464729309082 13.380485534667969 C20.212617874145508 13.523116111755371 20.210586547851562 13.665745735168457 20.20855712890625 13.80837631225586 L20.120437622070312 13.81743335723877 C19.56535530090332 13.156216621398926 19.292034149169922 13.55654239654541 19.698484420776367 14.142251014709473 L19.78951072692871 14.212041854858398 C20.317371368408203 15.04472541809082 19.830169677734375 15.468737602233887 18.957910537719727 15.159192085266113 L18.957910537719727 15.159192085266113 C18.954833984375 15.008437156677246 18.951757431030273 14.857681274414062 18.948680877685547 14.706926345825195 L19.030757904052734 14.69774055480957 C19.6648006439209 15.406770706176758 20.0909481048584 15.15628719329834 19.60431671142578 14.421609878540039 L19.51639175415039 14.35478687286377 C19.317934036254883 14.043601989746094 19.518810272216797 13.527454376220703 19.79561996459961 13.28332805633545 L19.79561996459961 13.28332805633545"></path>
<path fill="none" stroke="black" stroke-width=".3" stroke-opacity="1.0"  filling="0" d="M20.757488250732422 13.328743934631348 L22.074871063232422 13.328743934631348 C22.0556583404541 13.483565330505371 22.036447525024414 13.638387680053711 22.017234802246094 13.793209075927734 L21.929157257080078 13.799297332763672 C21.905052185058594 13.635600090026855 21.751930236816406 13.485222816467285 21.595264434814453 13.431989669799805 L21.358501434326172 13.431989669799805 C21.314992904663086 13.473475456237793 21.271486282348633 13.514962196350098 21.227977752685547 13.556447982788086 L21.097408294677734 14.212041854858398 L21.39193344116211 14.212041854858398 C21.507299423217773 14.138177871704102 21.622663497924805 14.064312934875488 21.73802947998047 13.990448951721191 L21.622629165649414 14.567323684692383 C21.536630630493164 14.48835277557373 21.45063018798828 14.409382820129395 21.36463165283203 14.330411911010742 L21.076196670532227 14.330411911010742 L20.976116180419922 14.861656188964844 C21.00295066833496 15.503947257995605 21.65852165222168 15.144648551940918 21.901859283447266 14.800922393798828 L21.986967086791992 14.831384658813477 C21.922210693359375 14.987181663513184 21.857452392578125 15.142979621887207 21.792695999145508 15.298776626586914 L20.390331268310547 15.216808319091797 C20.496522903442383 15.122749328613281 20.60271644592285 15.028690338134766 20.708908081054688 14.93463134765625 L20.951736450195312 13.689963340759277 C20.878925323486328 13.59688663482666 20.806116104125977 13.50381088256836 20.733304977416992 13.410734176635742 L20.757488250732422 13.328743934631348"></path>
<path fill="none" stroke="black" stroke-width=".3" stroke-opacity="1.0"  filling="0" d="M3.3504905700683594 13.341760635375977 L3.3504905700683594 13.341760635375977 C5.36439847946167 11.638299942016602 5.93800163269043 12.143865585327148 8.210556030273438 13.277046203613281 L8.210556030273438 13.277046203613281 C8.492528915405273 14.731669425964355 6.184685707092285 12.325643539428711 5.690627574920654 12.422576904296875 C4.868244171142578 12.583928108215332 4.1515398025512695 13.588071823120117 3.3504905700683594 13.341760635375977 L3.3504905700683594 13.341760635375977"></path>
<path fill="none" stroke="black" stroke-width=".3" stroke-opacity="1.0"  filling="0" d="M9.081245422363281 13.35098934173584 L9.081245422363281 13.35098934173584 C11.419906616210938 13.313347816467285 8.06286907196045 15.529058456420898 7.604193687438965 15.724976539611816 C5.744706630706787 16.519235610961914 2.155686140060425 15.725080490112305 1.873600959777832 13.239375114440918 C1.8461040258407593 12.997075080871582 2.3523142337799072 12.83078384399414 2.5533132553100586 12.96885871887207 C3.324026346206665 13.498295783996582 3.5834689140319824 14.6689453125 4.439477443695068 15.04517936706543 C6.508335113525391 15.954486846923828 7.803647041320801 14.796717643737793 9.081245422363281 13.35098934173584 L9.081245422363281 13.35098934173584"></path>
<path fill="none" stroke="black" stroke-width=".3" stroke-opacity="1.0"  filling="0" d="M11.972784996032715 13.671870231628418 L12.100190162658691 14.454870223999023 L11.550788879394531 14.454870223999023 C11.69145393371582 14.193870544433594 11.832119941711426 13.932869911193848 11.972784996032715 13.671870231628418 L11.972784996032715 13.671870231628418"></path>
<path fill="none" stroke="black" stroke-width=".3" stroke-opacity="1.0"  filling="0" d="M14.788549423217773 13.935932159423828 L14.788549423217773 13.935932159423828 C14.800676345825195 14.053261756896973 14.8128023147583 14.170592308044434 14.824929237365723 14.287921905517578 L14.800727844238281 14.43972396850586 C15.930375099182129 13.198094367980957 14.73912239074707 14.808538436889648 14.642858505249023 15.277521133422852 L14.642858505249023 15.277521133422852 C14.571016311645508 15.295742988586426 14.499174118041992 15.313965797424316 14.427331924438477 15.33218765258789 L14.406119346618652 15.310932159423828 C14.494384765625 14.904677391052246 14.948945045471191 13.936500549316406 14.40611743927002 14.303047180175781 L14.363627433776855 14.233255386352539 C14.505268096923828 14.134147644042969 14.6469087600708 14.035039901733398 14.788549423217773 13.935932159423828 L14.788549423217773 13.935932159423828"></path>
<path fill="none" stroke="black" stroke-width=".3" stroke-opacity="1.0"  filling="0" d="M17.446962356567383 13.935932159423828 L17.446962356567383 13.935932159423828 C17.459089279174805 14.053261756896973 17.471214294433594 14.170592308044434 17.483341217041016 14.287921905517578 L17.45911979675293 14.43972396850586 C18.588563919067383 13.198317527770996 17.397411346435547 14.808431625366211 17.301227569580078 15.277521133422852 L17.301227569580078 15.277521133422852 C17.229385375976562 15.295742988586426 17.157543182373047 15.313965797424316 17.08570098876953 15.33218765258789 L17.064294815063477 15.310932159423828 C17.15281105041504 14.903603553771973 17.607194900512695 13.936759948730469 17.064315795898438 14.303047180175781 L17.021867752075195 14.233255386352539 C17.16356658935547 14.134147644042969 17.30526351928711 14.035039901733398 17.446962356567383 13.935932159423828 L17.446962356567383 13.935932159423828"></path>
<path fill="none" stroke="black" stroke-width=".3" stroke-opacity="1.0"  filling="0" d="M13.653711318969727 13.935955047607422 L13.653711318969727 13.935955047607422 C13.739703178405762 13.964274406433105 13.82569408416748 13.992594718933105 13.911685943603516 14.020914077758789 L13.911685943603516 14.020914077758789 C14.026025772094727 13.99764347076416 14.140364646911621 13.974371910095215 14.254704475402832 13.951101303100586 L14.276025772094727 14.005745887756348 C14.183917045593262 14.066648483276367 14.091257095336914 14.14468002319336 13.981586456298828 14.157546997070312 L13.981586456298828 14.157546997070312 C14.035289764404297 14.526653289794922 13.136260032653809 14.739112854003906 13.322850227355957 15.062080383300781 C13.419684410095215 15.229690551757812 14.0240478515625 15.445904731750488 13.951207160949707 15.644892692565918 C13.77938461303711 16.114282608032227 11.983757019042969 16.345531463623047 13.201424598693848 15.301810264587402 L13.201424598693848 15.301810264587402 C13.132898330688477 15.209327697753906 13.195271492004395 15.045666694641113 13.277324676513672 14.964944839477539 L13.277324676513672 14.964944839477539 C12.889257431030273 14.426791191101074 13.060994148254395 14.167265892028809 13.653711318969727 13.935955047607422 L13.653711318969727 13.935955047607422"></path>
<path fill="none" stroke="black" stroke-width=".3" stroke-opacity="1.0"  filling="0" d="M16.378755569458008 13.935976028442383 L16.378755569458008 13.935976028442383 C16.480104446411133 13.948987007141113 16.581424713134766 13.962430953979492 16.68233871459961 13.978466033935547 L16.688447952270508 13.99049186706543 C16.59202003479004 14.444805145263672 16.170438766479492 15.336039543151855 16.706735610961914 14.94667911529541 L16.743093490600586 15.01956844329834 C16.606958389282227 15.1158447265625 16.276840209960938 15.231863975524902 16.2452392578125 15.068146705627441 L16.29678726196289 14.779730796813965 C15.16701889038086 15.988835334777832 15.379007339477539 14.347415924072266 16.378755569458008 13.935976028442383 L16.378755569458008 13.935976028442383"></path>
<path fill="none" stroke="black" stroke-width=".3" stroke-opacity="1.0"  filling="0" d="M13.577812194824219 14.042104721069336 L13.577812194824219 14.042104721069336 C14.305742263793945 15.095730781555176 12.50000286102295 14.716049194335938 13.577812194824219 14.042104721069336 L13.577812194824219 14.042104721069336"></path>
<path fill="none" stroke="black" stroke-width=".3" stroke-opacity="1.0"  filling="0" d="M16.245216369628906 14.069448471069336 L16.245216369628906 14.069448471069336 C16.312009811401367 14.08360481262207 16.37880516052246 14.097760200500488 16.445598602294922 14.111916542053223 L16.445598602294922 14.111916542053223 C16.003541946411133 16.029190063476562 15.101740837097168 14.403040885925293 16.245216369628906 14.069448471069336 L16.245216369628906 14.069448471069336"></path>
<path fill="none" stroke="black" stroke-width=".3" stroke-opacity="1.0"  filling="0" d="M13.280315399169922 15.356412887573242 L13.280315399169922 15.356412887573242 C14.367976188659668 15.965965270996094 12.445352554321289 16.183847427368164 13.280315399169922 15.356412887573242 L13.280315399169922 15.356412887573242"></path></svg>