<svg xmlns="http://www.w3.org/2000/svg" viewBox="0.0 0.0 24.0 24.0" height="200px" width="200px"><path fill="none" stroke="black" stroke-width=".3" stroke-opacity="1.0"  filling="0" d="M9.491976737976074 6.754299640655518 L9.491976737976074 6.754299640655518 C10.346163749694824 6.79087495803833 13.450249671936035 6.490652084350586 12.931909561157227 7.8237996101379395 L12.931909561157227 7.8237996101379395 C13.4071626663208 7.957559108734131 14.341395378112793 8.048835754394531 14.233529090881348 8.53062629699707 L14.233529090881348 8.53062629699707 C14.701171875 8.593539237976074 15.642294883728027 8.667895317077637 15.519021987915039 9.123363494873047 L15.519021987915039 9.123363494873047 C17.193618774414062 8.954339027404785 18.873470306396484 8.7618989944458 20.554981231689453 8.678247451782227 C20.874324798583984 8.662361145019531 21.526334762573242 8.367238998413086 21.514158248901367 8.686745643615723 C21.492830276489258 9.24641227722168 20.840389251708984 9.581598281860352 20.503503799438477 10.029024124145508 L20.02605438232422 10.025593757629395 C20.288711547851562 9.704092025756836 20.618356704711914 9.427237510681152 20.81402587890625 9.061087608337402 C21.087095260620117 8.550101280212402 19.654903411865234 9.09439754486084 19.07815170288086 9.149447441101074 C17.819528579711914 9.269579887390137 16.558883666992188 9.374818801879883 15.304916381835938 9.536478042602539 C13.466781616210938 9.77344799041748 11.644362449645996 10.147737503051758 9.875391006469727 10.689290046691895 C8.10641860961914 11.230842590332031 6.390893936157227 11.939659118652344 4.7665486335754395 12.845684051513672 L4.1796441078186035 12.664517402648926 C5.935770034790039 11.705948829650879 7.735398769378662 10.971970558166504 9.588642120361328 10.404852867126465 C11.441884994506836 9.837736129760742 13.348743438720703 9.437479019165039 15.319327354431152 9.14635181427002 L15.319327354431152 9.14635181427002 C15.749201774597168 7.994528293609619 15.52027416229248 8.818888664245605 12.382668495178223 8.669475555419922 C11.060508728027344 8.606513977050781 9.72189712524414 8.66118335723877 8.417158126831055 8.88935661315918 L8.201335906982422 8.607828140258789 C10.160035133361816 8.338759422302246 12.103514671325684 8.331181526184082 14.074323654174805 8.51552963256836 L14.074323654174805 8.51552963256836 C14.417147636413574 7.7340474128723145 14.25953483581543 8.219816207885742 12.048418045043945 7.946222305297852 C10.983573913574219 7.814463138580322 10.066472053527832 7.85557746887207 9.033398628234863 7.87886905670166 L8.836963653564453 7.5992279052734375 C10.151917457580566 7.575632095336914 11.467072486877441 7.6840128898620605 12.777678489685059 7.793432712554932 L12.777678489685059 7.793432712554932 C13.134645462036133 6.917501926422119 10.326149940490723 7.0709733963012695 9.665250778198242 7.039773464202881 L9.491976737976074 6.754299640655518"></path>
<path fill="none" stroke="black" stroke-width=".3" stroke-opacity="1.0"  filling="0" d="M5.560181140899658 12.656968116760254 L6.178995132446289 12.656968116760254 L6.178995132446289 14.053459167480469 C6.878701210021973 15.012295722961426 8.216229438781738 15.099258422851562 8.867328643798828 14.053459167480469 L8.867328643798828 12.656968116760254 L9.485971450805664 12.656968116760254 L9.485971450805664 14.053459167480469 C9.123981475830078 14.682958602905273 8.344030380249023 15.06310749053955 7.62969970703125 15.193641662597656 L7.416451454162598 15.193641662597656 C6.702127456665039 15.06307601928711 5.922351360321045 14.682854652404785 5.560181140899658 14.053459167480469 L5.560181140899658 12.656968116760254"></path>
<path fill="none" stroke="black" stroke-width=".3" stroke-opacity="1.0"  filling="0" d="M16.271482467651367 12.657139778137207 L18.278724670410156 12.657139778137207 L18.278724670410156 13.099076271057129 L16.271482467651367 13.099076271057129 C14.835545539855957 13.499284744262695 14.826803207397461 14.361631393432617 16.271482467651367 14.751876831054688 L18.278724670410156 14.751876831054688 L18.278724670410156 15.19381332397461 L16.271482467651367 15.193815231323242 C14.087690353393555 14.567033767700195 14.05012321472168 13.246758460998535 16.271482467651367 12.657139778137207 L16.271482467651367 12.657139778137207"></path>
<path fill="none" stroke="black" stroke-width=".3" stroke-opacity="1.0"  filling="0" d="M1.5149869918823242 12.657140731811523 L2.1336307525634766 12.657140731811523 L2.1336307525634766 15.193815231323242 L1.5149869918823242 15.193815231323242 L1.5149869918823242 12.657140731811523"></path>
<path fill="none" stroke="black" stroke-width=".3" stroke-opacity="1.0"  filling="0" d="M4.192855358123779 12.657140731811523 L5.102462291717529 12.657140731811523 L2.9845638275146484 13.9508695602417 L5.1014323234558105 15.193815231323242 L4.192855358123779 15.193815231323242 L2.4302549362182617 14.142843246459961 C2.340388536453247 14.042155265808105 2.3393337726593018 13.837857246398926 2.4300832748413086 13.737964630126953 L4.192855358123779 12.657140731811523"></path>
<path fill="none" stroke="black" stroke-width=".3" stroke-opacity="1.0"  filling="0" d="M18.88158416748047 12.657140731811523 L19.500568389892578 12.657140731811523 L19.500568389892578 15.193815231323242 L18.88158416748047 15.193815231323242 L18.88158416748047 12.657140731811523"></path>
<path fill="none" stroke="black" stroke-width=".3" stroke-opacity="1.0"  filling="0" d="M21.866371154785156 12.657140731811523 L22.485015869140625 12.657140731811523 L22.485015869140625 15.193815231323242 L21.866371154785156 15.193815231323242 L21.866371154785156 14.139068603515625 L19.781240463256836 14.139068603515625 L19.781240463256836 13.69713306427002 L21.866371154785156 13.69713306427002 L21.866371154785156 12.657140731811523"></path>
<path fill="none" stroke="black" stroke-width=".3" stroke-opacity="1.0"  filling="0" d="M14.035720825195312 14.409960746765137 L14.035720825195312 14.409960746765137 C13.78181266784668 14.820148468017578 13.288333892822266 15.081969261169434 12.819023132324219 15.193643569946289 L10.109930992126465 15.193643569946289 L10.109930992126465 14.75170612335205 L12.818851470947266 14.75170612335205 C13.599663734436035 14.6074800491333 13.600029945373535 14.196614265441895 12.818851470947266 14.057063102722168 L11.14443302154541 14.057063102722168 C9.798044204711914 13.740964889526367 9.798800468444824 12.97305679321289 11.14443302154541 12.657139778137207 L13.822471618652344 12.657139778137207 L13.822471618652344 13.09890365600586 L11.14443302154541 13.09890365600586 C10.630422592163086 13.219210624694824 10.624581336975098 13.49996566772461 11.14443302154541 13.61512565612793 L12.818851470947266 13.61512565612793 C13.289233207702637 13.731170654296875 13.781864166259766 13.997305870056152 14.035720825195312 14.409958839416504 L14.035720825195312 14.409958839416504"></path>
<path fill="none" stroke="black" stroke-width=".3" stroke-opacity="1.0"  filling="0" d="M15.619385719299316 15.961714744567871 L15.619385719299316 15.961714744567871 C15.821996688842773 16.04560661315918 16.024608612060547 16.129497528076172 16.227218627929688 16.213390350341797 L16.119138717651367 16.30122947692871 C14.358905792236328 15.551045417785645 16.237957000732422 16.815292358398438 16.265995025634766 16.873552322387695 C16.450246810913086 17.25640296936035 15.384703636169434 17.135040283203125 14.994739532470703 16.966365814208984 L15.109683990478516 16.868406295776367 C15.415188789367676 17.00543975830078 16.32172203063965 17.136289596557617 16.11416244506836 16.873552322387695 C15.866098403930664 16.559541702270508 15.234657287597656 16.681608200073242 15.043804168701172 16.329879760742188 C14.935182571411133 16.129697799682617 15.427525520324707 16.084436416625977 15.619385719299316 15.961714744567871 L15.619385719299316 15.961714744567871"></path>
<path fill="none" stroke="black" stroke-width=".3" stroke-opacity="1.0"  filling="0" d="M11.214944839477539 15.961886405944824 L11.214944839477539 15.961886405944824 C11.428764343261719 16.078947067260742 11.642584800720215 16.196006774902344 11.856404304504395 16.313068389892578 L11.728249549865723 16.372085571289062 C10.481208801269531 15.6768159866333 10.467864036560059 17.54715919494629 11.74334716796875 16.82946014404297 L11.875104904174805 16.893625259399414 C10.820089340209961 17.464435577392578 10.18206787109375 16.916948318481445 11.214944839477539 15.961886405944824 L11.214944839477539 15.961886405944824"></path>
<path fill="none" stroke="black" stroke-width=".3" stroke-opacity="1.0"  filling="0" d="M13.568394660949707 15.9922513961792 L14.902095794677734 15.9922513961792 L14.309530258178711 16.124008178710938 L14.309530258178711 17.219928741455078 L14.16096019744873 16.124008178710938 L13.568394660949707 15.9922513961792"></path>
<path fill="none" stroke="black" stroke-width=".3" stroke-opacity="1.0"  filling="0" d="M7.733836650848389 15.992423057556152 L8.441003799438477 16.591678619384766 L9.148513793945312 15.992423057556152 L8.515289306640625 16.72343635559082 L8.515289306640625 17.219585418701172 L7.733836650848389 15.992423057556152"></path>
<path fill="none" stroke="black" stroke-width=".3" stroke-opacity="1.0"  filling="0" d="M9.59765625 15.992423057556152 L10.409645080566406 17.219757080078125 L10.083854675292969 16.900657653808594 L9.292280197143555 16.900657653808594 L8.966318130493164 17.219757080078125 L9.59765625 15.992423057556152"></path>
<path fill="none" stroke="black" stroke-width=".3" stroke-opacity="1.0"  filling="0" d="M12.104822158813477 15.992423057556152 L12.25322151184082 16.51241683959961 L13.219100952148438 16.51241683959961 L13.367670059204102 15.992423057556152 L13.367670059204102 17.219757080078125 L13.219100952148438 16.64383316040039 L12.25322151184082 16.64383316040039 L12.104822158813477 17.219757080078125 L12.104822158813477 15.992423057556152"></path>
<path fill="none" stroke="black" stroke-width=".3" stroke-opacity="1.0"  filling="0" d="M9.688925743103027 16.108909606933594 L10.017976760864258 16.76889991760254 L9.35970401763916 16.76889991760254 L9.688925743103027 16.108909606933594"></path></svg>