<svg xmlns="http://www.w3.org/2000/svg" viewBox="0.0 0.0 24.0 24.0" height="200px" width="200px"><path fill="none" stroke="black" stroke-width=".3" stroke-opacity="1.0"  filling="0" d="M1.8018579483032227 1.969040870666504 L8.600619316101074 1.969040870666504 L15.399380683898926 1.969040870666504 L22.19814109802246 1.969040870666504 L22.198143005371094 8.656347274780273 L22.198143005371094 15.34365463256836 L22.19814109802246 22.030960083007812 L15.399380683898926 22.030960083007812 L8.600619316101074 22.030960083007812 L1.8018579483032227 22.030960083007812 L1.8018579483032227 15.34365463256836 L1.8018579483032227 8.656347274780273 L1.8018579483032227 1.969040870666504"></path>
<path fill="none" stroke="black" stroke-width=".3" stroke-opacity="1.0"  filling="0" d="M15.080207824707031 5.260157585144043 L15.080207824707031 5.260157585144043 C15.293363571166992 5.314104080200195 15.5220365524292 5.3880085945129395 15.735529899597168 5.335412979125977 L15.966712951660156 5.305453777313232 L15.966712951660156 5.9759674072265625 L15.719728469848633 5.9759674072265625 C15.465046882629395 5.510091304779053 14.834249496459961 5.412242412567139 14.47813606262207 5.826172351837158 C14.392556190490723 5.9256463050842285 15.84919548034668 6.200918674468994 15.947559356689453 6.343323707580566 C16.589035034179688 7.272014617919922 15.206851959228516 7.390020847320557 14.739385604858398 7.374416351318359 L14.392538070678711 7.297735214233398 C14.334449768066406 7.313866138458252 14.268586158752441 7.3408613204956055 14.239068984985352 7.393426418304443 L14.002321243286133 7.393426418304443 L14.002321243286133 6.686355113983154 L14.225231170654297 6.686355113983154 C15.35229778289795 7.283626556396484 16.035123825073242 6.740645885467529 14.74049186706543 6.582033157348633 L14.74049186706543 6.582033157348633 C13.515606880187988 6.175047874450684 14.090788841247559 5.352797985076904 15.080207824707031 5.260157585144043 L15.080207824707031 5.260157585144043"></path>
<path fill="none" stroke="black" stroke-width=".3" stroke-opacity="1.0"  filling="0" d="M8.154443740844727 5.305382251739502 L9.258722305297852 5.305382251739502 L9.16645622253418 5.531858921051025 C9.110128402709961 5.616113185882568 9.053799629211426 5.700367450714111 8.997471809387207 5.784621715545654 L8.997471809387207 6.266998767852783 L9.64526653289795 5.673166275024414 C9.659192085266113 5.624524116516113 9.63646125793457 5.558526515960693 9.594621658325195 5.530076026916504 L9.533989906311035 5.305382251739502 L10.435866355895996 5.305382251739502 L10.369885444641113 5.531858921051025 C10.26007080078125 5.603927135467529 10.150256156921387 5.675995826721191 10.040441513061523 5.748064041137695 L9.674869537353516 6.077079772949219 C9.93433666229248 6.38187837600708 10.193804740905762 6.686676502227783 10.453271865844727 6.9914751052856445 L10.453271865844727 6.9914751052856445 C10.576912879943848 7.048837184906006 10.700553894042969 7.106199741363525 10.82419490814209 7.163561820983887 L10.86610221862793 7.39003849029541 L9.594622611999512 7.39003849029541 L9.594622611999512 7.163561820983887 C9.683907508850098 7.128579139709473 9.805498123168945 7.029533863067627 9.774269104003906 6.938868045806885 L9.324883460998535 6.394075393676758 L8.997651100158691 7.015549182891846 C9.024126052856445 7.079651832580566 9.08117961883545 7.136244297027588 9.145662307739258 7.161778450012207 L9.257118225097656 7.388255596160889 L8.154622077941895 7.388255596160889 L8.154622077941895 7.161778450012207 C8.281939506530762 7.079596519470215 8.425037384033203 6.963526725769043 8.446901321411133 6.81357479095459 L8.446901321411133 5.8086957931518555 C8.389979362487793 5.715822219848633 8.333056449890137 5.622949123382568 8.276134490966797 5.530075550079346 L8.154443740844727 5.305382251739502"></path>
<path fill="none" stroke="black" stroke-width=".3" stroke-opacity="1.0"  filling="0" d="M10.535192489624023 5.30556058883667 L11.602487564086914 5.30556058883667 L11.602487564086914 5.532037258148193 C11.481620788574219 5.555355072021484 11.412995338439941 5.725903034210205 11.412995338439941 5.848998069763184 L11.674245834350586 6.580606937408447 L12.166894912719727 5.30734395980835 L12.57794189453125 5.30734395980835 C12.728926658630371 5.738149166107178 12.879911422729492 6.168954372406006 13.030896186828613 6.599759578704834 L13.380847930908203 5.706335067749023 C13.371756553649902 5.636349201202393 13.322970390319824 5.565166473388672 13.260655403137207 5.532037258148193 L13.133613586425781 5.30734395980835 L14.027037620544434 5.30734395980835 L13.995652198791504 5.533820152282715 C13.834248542785645 5.606451511383057 13.705466270446777 5.757705211639404 13.627830505371094 5.916762351989746 L13.046481132507324 7.392000198364258 L12.731304168701172 7.392000198364258 L12.227954864501953 5.983208179473877 L11.663546562194824 7.392000198364258 L11.381360054016113 7.392000198364258 L10.777255058288574 5.685400009155273 C10.71975040435791 5.634279251098633 10.66224479675293 5.583158016204834 10.604740142822266 5.532037258148193 L10.535192489624023 5.30556058883667"></path>
<path fill="none" stroke="black" stroke-width=".3" stroke-opacity="1.0"  filling="0" d="M14.821133613586426 10.937591552734375 L14.821133613586426 10.937591552734375 C14.515583038330078 12.068532943725586 14.607159614562988 12.632071495056152 13.47899055480957 13.278974533081055 C11.696674346923828 14.300971984863281 9.398173332214355 13.00885009765625 9.398173332214355 10.937591552734375 C9.398173332214355 8.86640739440918 11.696815490722656 7.57423734664917 13.47899055480957 8.596311569213867 C14.60705852508545 9.243256568908691 14.515562057495117 9.806741714477539 14.821133613586426 10.937591552734375 L14.821133613586426 10.937591552734375"></path>
<path fill="none" stroke="black" stroke-width=".3" stroke-opacity="1.0"  filling="0" d="M9.811003684997559 14.485002517700195 L14.408303260803223 14.485002517700195 L14.917001724243164 15.266971588134766 L9.302339553833008 15.266971588134766 L9.811003684997559 14.485002517700195"></path>
<path fill="none" stroke="black" stroke-width=".3" stroke-opacity="1.0"  filling="0" d="M9.102149963378906 15.578581809997559 L15.117158889770508 15.578581809997559 L15.827797889709473 16.673980712890625 L8.391511917114258 16.673980712890625 L9.102149963378906 15.578581809997559"></path>
<path fill="none" stroke="black" stroke-width=".3" stroke-opacity="1.0"  filling="0" d="M8.153017044067383 17.038198471069336 L12.109672546386719 17.038198471069336 L16.066328048706055 17.038198471069336 L17.11800193786621 18.657878875732422 L12.111438751220703 18.657880783081055 L7.104874610900879 18.657882690429688 L8.153017044067383 17.038198471069336"></path>
<path fill="none" stroke="black" stroke-width=".3" stroke-opacity="1.0"  filling="0" d="M15.314140319824219 17.604068756103516 L15.510765075683594 17.604068756103516 C15.564496040344238 17.608455657958984 15.584868431091309 17.614282608032227 15.620615005493164 17.65506935119629 L15.617049217224121 17.65506935119629 C15.638628959655762 17.76072883605957 15.609208106994629 17.785032272338867 15.510765075683594 17.814926147460938 L15.314140319824219 17.604068756103516"></path></svg>