<svg xmlns="http://www.w3.org/2000/svg" viewBox="0.0 0.0 24.0 24.0" height="200px" width="200px"><path fill="none" stroke="black" stroke-width=".3" stroke-opacity="1.0"  filling="0" d="M10.841678619384766 9.823442459106445 L11.408404350280762 9.823442459106445 L11.408404350280762 13.344094276428223 L10.29520320892334 13.344094276428223 C8.767186164855957 12.863903045654297 8.590632438659668 11.249870300292969 10.250167846679688 10.77346134185791 L10.841700553894043 10.77346134185791 L10.841678619384766 9.823442459106445"></path>
<path fill="none" stroke="black" stroke-width=".3" stroke-opacity="1.0"  filling="0" d="M21.215099334716797 9.823442459106445 L21.781654357910156 9.823442459106445 L21.781654357910156 13.344094276428223 L20.668516159057617 13.344094276428223 C19.140548706054688 12.863883972167969 18.96371841430664 11.249808311462402 20.623355865478516 10.77346134185791 L21.215057373046875 10.77346134185791 L21.215099334716797 9.823442459106445"></path>
<path fill="none" stroke="black" stroke-width=".3" stroke-opacity="1.0"  filling="0" d="M22.62169647216797 10.021258354187012 L22.62169647216797 10.021258354187012 C22.59921646118164 10.052266120910645 22.576736450195312 10.083273887634277 22.554256439208984 10.11428165435791 L22.518186569213867 9.92566204071045 C22.552690505981445 9.957527160644531 22.58719253540039 9.98939323425293 22.62169647216797 10.021258354187012 L22.62169647216797 10.021258354187012"></path>
<path fill="none" stroke="black" stroke-width=".3" stroke-opacity="1.0"  filling="0" d="M22.566936492919922 10.022819519042969 L22.566936492919922 10.022819519042969 C22.55013084411621 10.037781715393066 22.5333251953125 10.05274486541748 22.51651954650879 10.067707061767578 L22.51651954650879 9.977869033813477 C22.5333251953125 9.992852210998535 22.55013084411621 10.00783634185791 22.566936492919922 10.022819519042969 L22.566936492919922 10.022819519042969"></path>
<path fill="none" stroke="black" stroke-width=".3" stroke-opacity="1.0"  filling="0" d="M22.73220443725586 10.089412689208984 L22.73220443725586 10.089412689208984 C22.15984344482422 10.66272258758545 22.159883499145508 9.515995025634766 22.73220443725586 10.089412689208984 L22.73220443725586 10.089412689208984"></path>
<path fill="none" stroke="black" stroke-width=".3" stroke-opacity="1.0"  filling="0" d="M22.778905868530273 10.089412689208984 L22.778905868530273 10.089412689208984 C22.09673500061035 10.772031784057617 22.096708297729492 9.406864166259766 22.778905868530273 10.089412689208984 L22.778905868530273 10.089412689208984"></path>
<path fill="none" stroke="black" stroke-width=".3" stroke-opacity="1.0"  filling="0" d="M1.2210941314697266 10.147546768188477 L1.8349428176879883 10.147546768188477 L1.8349428176879883 11.977998733520508 C1.9285776615142822 12.387547492980957 2.3228273391723633 12.76358413696289 2.730584144592285 12.864738464355469 L3.435072898864746 12.864738464355469 L3.435072898864746 13.344051361083984 L2.639986038208008 13.344051361083984 C2.0138916969299316 13.17397403717041 1.4064123630523682 12.633502960205078 1.2210941314697266 12.011749267578125 L1.2210941314697266 10.147546768188477"></path>
<path fill="none" stroke="black" stroke-width=".3" stroke-opacity="1.0"  filling="0" d="M3.764240264892578 10.773483276367188 L4.962534427642822 10.773483276367188 C5.429002285003662 10.914151191711426 5.890768051147461 11.324005126953125 6.005493640899658 11.797521591186523 L6.005493640899658 13.3440523147583 L4.691838264465332 13.3440523147583 C3.4945154190063477 13.112371444702148 3.2321934700012207 11.975123405456543 4.5914530754089355 11.776385307312012 L5.438895225524902 11.776407241821289 C5.393996715545654 11.529521942138672 5.14638614654541 11.319822311401367 4.907415866851807 11.243261337280273 L3.764240264892578 11.243261337280273 L3.764240264892578 10.773483276367188"></path>
<path fill="none" stroke="black" stroke-width=".3" stroke-opacity="1.0"  filling="0" d="M6.504698276519775 10.773503303527832 L7.708244800567627 10.773503303527832 C8.1539945602417 10.927958488464355 8.566059112548828 11.337167739868164 8.690750122070312 11.792141914367676 L8.690750122070312 13.3440523147583 L8.124277114868164 13.3440523147583 L8.124277114868164 11.781659126281738 C7.965504169464111 11.602192878723145 7.806731224060059 11.422727584838867 7.647958278656006 11.243261337280273 L7.071255683898926 11.243261337280273 L7.071255683898926 13.3440523147583 L6.504698276519775 13.3440523147583 L6.504698276519775 10.773483276367188"></path>
<path fill="none" stroke="black" stroke-width=".3" stroke-opacity="1.0"  filling="0" d="M13.018132209777832 10.773483276367188 L14.136290550231934 10.773483276367188 L14.136290550231934 13.175047874450684 C14.048101425170898 13.636516571044922 13.623705863952637 14.069862365722656 13.173593521118164 14.204507827758789 L12.000274658203125 14.204507827758789 L12.000274658203125 13.734601974487305 L13.178698539733887 13.734601974487305 C13.309036254882812 13.604425430297852 13.439374923706055 13.474248886108398 13.56971263885498 13.344072341918945 L13.003218650817871 13.344072341918945 C11.318414688110352 12.908950805664062 11.451240539550781 11.267256736755371 13.018132209777832 10.773483276367188 L13.018132209777832 10.773483276367188"></path>
<path fill="none" stroke="black" stroke-width=".3" stroke-opacity="1.0"  filling="0" d="M14.630895614624023 10.773483276367188 L15.829336166381836 10.773483276367188 C16.295801162719727 10.914163589477539 16.757522583007812 11.324016571044922 16.872297286987305 11.797521591186523 L16.872297286987305 13.3440523147583 L15.558662414550781 13.3440523147583 C14.361556053161621 13.112394332885742 14.099019050598145 11.975166320800781 15.458171844482422 11.776385307312012 L16.305654525756836 11.776407241821289 C16.26080894470215 11.529512405395508 16.013151168823242 11.319809913635254 15.774177551269531 11.243261337280273 L14.630895614624023 11.243261337280273 L14.630895614624023 10.773483276367188"></path>
<path fill="none" stroke="black" stroke-width=".3" stroke-opacity="1.0"  filling="0" d="M17.39837646484375 10.773503303527832 L18.190845489501953 10.773503303527832 C18.614206314086914 10.883407592773438 19.02265167236328 11.259507179260254 19.13829231262207 11.681336402893066 L19.13829231262207 11.934757232666016 L18.59698486328125 11.734155654907227 C18.451557159423828 11.574061393737793 18.30613136291504 11.413966178894043 18.160703659057617 11.25387191772461 L17.96527099609375 13.3440523147583 L17.39837646484375 13.3440523147583 L17.39837646484375 10.773483276367188"></path>
<path fill="none" stroke="black" stroke-width=".3" stroke-opacity="1.0"  filling="0" d="M13.053146362304688 11.243240356445312 L13.569733619689941 11.243240356445312 L13.569733619689941 12.874103546142578 L13.023173332214355 12.874103546142578 C12.059344291687012 12.518972396850586 12.15945816040039 11.606513977050781 13.053146362304688 11.243240356445312 L13.053146362304688 11.243240356445312"></path>
<path fill="none" stroke="black" stroke-width=".3" stroke-opacity="1.0"  filling="0" d="M10.335577011108398 11.243261337280273 L10.841700553894043 11.243261337280273 L10.841700553894043 12.874103546142578 L10.2952241897583 12.874103546142578 C10.07463264465332 12.596151351928711 9.624672889709473 12.394987106323242 9.633450508117676 12.040246963500977 C9.642208099365234 11.686304092407227 10.101534843444824 11.508923530578613 10.335577011108398 11.243261337280273 L10.335577011108398 11.243261337280273"></path>
<path fill="none" stroke="black" stroke-width=".3" stroke-opacity="1.0"  filling="0" d="M20.70867919921875 11.243261337280273 L21.215057373046875 11.243261337280273 L21.215057373046875 12.874103546142578 L20.668498992919922 12.874103546142578 C20.447856903076172 12.596151351928711 19.997833251953125 12.39501953125 20.006574630737305 12.040246963500977 C20.015295028686523 11.686307907104492 20.47464370727539 11.508923530578613 20.70867919921875 11.243261337280273 L20.70867919921875 11.243261337280273"></path>
<path fill="none" stroke="black" stroke-width=".3" stroke-opacity="1.0"  filling="0" d="M4.6416778564453125 12.246164321899414 L5.438915729522705 12.246164321899414 L5.438915729522705 12.874125480651855 L4.6416778564453125 12.874125480651855 C4.236794471740723 12.583568572998047 4.024380683898926 12.319467544555664 4.6416778564453125 12.246164321899414 L4.6416778564453125 12.246164321899414"></path>
<path fill="none" stroke="black" stroke-width=".3" stroke-opacity="1.0"  filling="0" d="M15.508501052856445 12.246164321899414 L16.305654525756836 12.246164321899414 L16.305654525756836 12.874125480651855 L15.508502006530762 12.874125480651855 C15.103745460510254 12.583602905273438 14.891279220581055 12.319476127624512 15.508501052856445 12.246164321899414 L15.508501052856445 12.246164321899414"></path></svg>