<svg xmlns="http://www.w3.org/2000/svg" viewBox="0.0 0.0 24.0 24.0" height="200px" width="200px"><path fill="none" stroke="black" stroke-width=".3" stroke-opacity="1.0"  filling="0" d="M8.202393531799316 10.83703899383545 L8.202393531799316 10.83703899383545 C8.32253646850586 10.83703899383545 8.442679405212402 10.83703899383545 8.562822341918945 10.83703899383545 C10.298476219177246 10.83703899383545 6.979362487792969 11.812873840332031 8.202393531799316 10.83703899383545 L8.202393531799316 10.83703899383545"></path>
<path fill="none" stroke="black" stroke-width=".3" stroke-opacity="1.0"  filling="0" d="M16.372516632080078 10.83703899383545 L16.372516632080078 10.83703899383545 C17.299171447753906 10.83703899383545 17.185571670532227 11.409279823303223 16.464807510375977 11.370135307312012 C16.026264190673828 11.346318244934082 16.100875854492188 10.837669372558594 16.372516632080078 10.83703899383545 L16.372516632080078 10.83703899383545"></path>
<path fill="none" stroke="black" stroke-width=".3" stroke-opacity="1.0"  filling="0" d="M12.459073066711426 10.848376274108887 L12.459073066711426 10.848376274108887 C12.697676658630371 10.848376274108887 13.204597473144531 10.656219482421875 13.173503875732422 10.89278793334961 C13.14129638671875 11.137833595275879 13.025301933288574 11.372796058654785 13.028494834899902 11.619928359985352 C13.030705451965332 11.791009902954102 14.165576934814453 11.393701553344727 13.447273254394531 12.160173416137695 C13.327581405639648 12.28789234161377 12.956587791442871 12.06661319732666 12.890056610107422 12.237444877624512 C12.67043399810791 12.80136775970459 12.665031433105469 13.137788772583008 13.266951560974121 13.014412879943848 L13.266951560974121 13.014412879943848 C13.278241157531738 13.722552299499512 12.1575345993042 13.94593620300293 11.965190887451172 13.290566444396973 C11.859405517578125 12.930124282836914 12.169370651245117 12.56528377532959 12.116266250610352 12.217730522155762 C12.07717227935791 11.961872100830078 11.165428161621094 12.517745971679688 11.743415832519531 11.662535667419434 C11.823866844177246 11.543498039245605 12.195318222045898 11.777304649353027 12.244810104370117 11.601874351501465 C12.315709114074707 11.350560188293457 12.197979927062988 10.852359771728516 12.459073066711426 10.848376274108887 L12.459073066711426 10.848376274108887"></path>
<path fill="none" stroke="black" stroke-width=".3" stroke-opacity="1.0"  filling="0" d="M17.93323516845703 10.84852123260498 L17.93323516845703 10.84852123260498 C18.166950225830078 10.848546981811523 18.41316795349121 10.774613380432129 18.63437843322754 10.850037574768066 C18.782167434692383 10.90042781829834 18.459718704223633 11.415000915527344 18.497459411621094 11.630111694335938 C18.514114379882812 11.725043296813965 18.877002716064453 11.638381004333496 19.016260147094727 11.650981903076172 L19.016260147094727 11.650981903076172 C18.985395431518555 11.943824768066406 18.437057495117188 11.957985877990723 18.359817504882812 12.24213981628418 C18.296506881713867 12.475051879882812 18.15167999267578 12.723716735839844 18.225208282470703 12.953608512878418 C18.292388916015625 13.163654327392578 18.75827407836914 13.259076118469238 18.65691375732422 13.45492935180664 C18.52621078491211 13.707480430603027 17.755250930786133 13.720175743103027 17.57093048095703 13.520790100097656 C17.16163444519043 13.078039169311523 17.826427459716797 12.613160133361816 17.58335304260254 12.234846115112305 C17.487037658691406 12.084943771362305 17.127906799316406 12.292299270629883 17.098134994506836 12.180106163024902 C17.025569915771484 11.906655311584473 17.63785171508789 11.86983871459961 17.71565055847168 11.597830772399902 C17.787172317504883 11.347770690917969 17.732494354248047 11.013894081115723 17.93323516845703 10.84852123260498 L17.93323516845703 10.84852123260498"></path>
<path fill="none" stroke="black" stroke-width=".3" stroke-opacity="1.0"  filling="0" d="M2.997303009033203 10.851770401000977 L2.997303009033203 10.851770401000977 C3.252328872680664 10.85179615020752 3.510206460952759 10.819646835327148 3.762356758117676 10.857836723327637 L3.762356758117676 10.857836723327637 C3.67873477935791 11.550834655761719 3.3533148765563965 12.291045188903809 3.33743953704834 12.986321449279785 C3.3290185928344727 13.355131149291992 4.0754852294921875 12.990315437316895 4.443928241729736 13.008781433105469 C4.632664680480957 13.018240928649902 4.691727638244629 13.420510292053223 4.770559310913086 13.580801963806152 C4.9456071853637695 13.93673324584961 3.9773805141448975 13.597339630126953 3.5807337760925293 13.597339630126953 C3.1909618377685547 13.597339630126953 2.7187061309814453 13.837050437927246 2.4114179611206055 13.597267150878906 C2.2660982608795166 13.483871459960938 2.8054332733154297 11.011530876159668 2.997303009033203 10.851770401000977 L2.997303009033203 10.851770401000977"></path>
<path fill="none" stroke="black" stroke-width=".3" stroke-opacity="1.0"  filling="0" d="M6.28427267074585 11.593353271484375 L6.28427267074585 11.593353271484375 C6.738644599914551 11.669487953186035 7.8102641105651855 11.903300285339355 7.461821556091309 12.696303367614746 C7.3116455078125 13.038082122802734 5.527576446533203 12.305373191833496 5.591723918914795 12.778196334838867 C5.6389055252075195 13.125964164733887 9.164331436157227 13.184418678283691 6.199202537536621 13.667531967163086 L6.199202537536621 13.667531967163086 C6.120824337005615 13.667531967163086 6.042446136474609 13.667531967163086 5.9640679359436035 13.667531967163086 L5.9640679359436035 13.667531967163086 C4.2852559089660645 13.435306549072266 4.820284843444824 11.728768348693848 6.28427267074585 11.593353271484375 L6.28427267074585 11.593353271484375"></path>
<path fill="none" stroke="black" stroke-width=".3" stroke-opacity="1.0"  filling="0" d="M10.516838073730469 11.594435691833496 L10.516838073730469 11.594435691833496 C10.649497985839844 11.617472648620605 10.788383483886719 11.617247581481934 10.91481876373291 11.663546562194824 C12.723016738891602 12.325681686401367 9.64239501953125 11.964661598205566 9.774170875549316 12.30056095123291 C9.881845474243164 12.57502555847168 11.56271743774414 12.233196258544922 11.407474517822266 12.819575309753418 C11.165444374084473 13.733766555786133 10.085103988647461 13.753642082214355 9.313941955566406 13.578344345092773 C9.26204776763916 13.566548347473145 8.52524471282959 13.120841026306152 8.780990600585938 13.026689529418945 C9.184304237365723 12.878211975097656 10.275358200073242 13.463408470153809 10.517197608947754 13.084823608398438 C10.731789588928223 12.748892784118652 9.169389724731445 12.886359214782715 9.019155502319336 12.576713562011719 C8.62852668762207 11.77159595489502 10.044270515441895 11.600133895874023 10.516838073730469 11.594435691833496 L10.516838073730469 11.594435691833496"></path>
<path fill="none" stroke="black" stroke-width=".3" stroke-opacity="1.0"  filling="0" d="M8.782718658447266 11.595447540283203 L8.782718658447266 11.595447540283203 C9.059117317199707 11.81159496307373 8.655264854431152 12.285598754882812 8.583549499511719 12.629070281982422 C8.140010833740234 14.75334358215332 7.216282844543457 13.041821479797363 7.987985134124756 11.60671329498291 C8.113459587097168 11.373372077941895 8.52407169342041 11.652839660644531 8.782718658447266 11.595447540283203 L8.782718658447266 11.595447540283203"></path>
<path fill="none" stroke="black" stroke-width=".3" stroke-opacity="1.0"  filling="0" d="M16.876436233520508 11.596315383911133 L16.876436233520508 11.596315383911133 C17.594114303588867 12.245491981506348 15.309603691101074 15.327190399169922 15.882532119750977 12.572598457336426 C15.926790237426758 12.359809875488281 15.971224784851074 12.14705753326416 16.015554428100586 11.934284210205078 C16.12322235107422 11.417492866516113 16.401643753051758 11.70600700378418 16.876436233520508 11.596315383911133 L16.876436233520508 11.596315383911133"></path>
<path fill="none" stroke="black" stroke-width=".3" stroke-opacity="1.0"  filling="0" d="M15.383232116699219 11.611985206604004 L15.383232116699219 11.611985206604004 C15.785810470581055 11.617124557495117 16.036697387695312 11.754176139831543 15.5954008102417 12.360139846801758 C15.501222610473633 12.489459991455078 14.898273468017578 12.374232292175293 14.682088851928711 12.588846206665039 C14.443002700805664 12.826194763183594 14.447689056396484 13.289084434509277 14.380300521850586 13.55762004852295 C14.317238807678223 13.80891227722168 13.86273193359375 13.611608505249023 13.604053497314453 13.597122192382812 C13.314356803894043 13.580899238586426 13.677648544311523 13.020970344543457 13.73563003540039 12.736672401428223 C13.808743476867676 12.378174781799316 13.769121170043945 11.97595500946045 13.955961227416992 11.661380767822266 C14.566835403442383 10.632879257202148 14.712987899780273 11.877535820007324 14.704188346862793 12.010687828063965 L14.704188346862793 12.010687828063965 C14.954142570495605 11.81816577911377 15.102296829223633 11.725690841674805 15.383232116699219 11.611985206604004 L15.383232116699219 11.611985206604004"></path>
<path fill="none" stroke="black" stroke-width=".3" stroke-opacity="1.0"  filling="0" d="M19.38723373413086 11.662535667419434 L19.38723373413086 11.662535667419434 C19.4428768157959 11.662535667419434 21.701257705688477 11.622587203979492 21.6790714263916 11.716192245483398 C21.53089141845703 12.341361999511719 20.159561157226562 12.948582649230957 20.18796157836914 13.102733612060547 C20.279264450073242 13.59831714630127 21.805925369262695 12.575780868530273 21.215595245361328 13.577696800231934 C21.181900024414062 13.63488483428955 18.93650245666504 13.605852127075195 18.942893981933594 13.546354293823242 C19.032840728759766 12.70914363861084 19.947803497314453 12.652862548828125 20.521739959716797 12.184293746948242 L20.521739959716797 12.184293746948242 C20.10034942626953 12.184293746948242 19.623868942260742 12.324251174926758 19.24742317199707 12.18537712097168 C19.188608169555664 12.163680076599121 19.22023582458496 11.664770126342773 19.38723373413086 11.662535667419434 L19.38723373413086 11.662535667419434"></path>
<path fill="none" stroke="black" stroke-width=".3" stroke-opacity="1.0"  filling="0" d="M6.254158973693848 11.99155044555664 L6.254158973693848 11.99155044555664 C7.944235801696777 12.301255226135254 4.22526216506958 12.335063934326172 6.254158973693848 11.99155044555664 L6.254158973693848 11.99155044555664"></path>
<path fill="none" stroke="black" stroke-width=".3" stroke-opacity="1.0"  filling="0" d="M6.248020648956299 13.659516334533691 L6.248020648956299 13.659516334533691 C6.24797248840332 13.662164688110352 6.247924327850342 13.664812088012695 6.247876167297363 13.667460441589355 L6.247876167297363 13.667460441589355 C6.231675624847412 13.667460441589355 6.215475559234619 13.667460441589355 6.199275016784668 13.667460441589355 L6.199275016784668 13.667460441589355 C6.215523719787598 13.664812088012695 6.231771945953369 13.662164688110352 6.248020648956299 13.659516334533691 L6.248020648956299 13.659516334533691"></path>
<path fill="none" stroke="black" stroke-width=".3" stroke-opacity="1.0"  filling="0" d="M5.907162189483643 13.659588813781738 L5.907162189483643 13.659588813781738 C5.926130771636963 13.662212371826172 5.945099830627441 13.664836883544922 5.964068412780762 13.667460441589355 L5.964068412780762 13.667460441589355 C5.94514799118042 13.667460441589355 5.926227569580078 13.667460441589355 5.907307147979736 13.667460441589355 L5.907307147979736 13.667460441589355 C5.907258987426758 13.664836883544922 5.907210350036621 13.662212371826172 5.907162189483643 13.659588813781738 L5.907162189483643 13.659588813781738"></path></svg>