<svg xmlns="http://www.w3.org/2000/svg" viewBox="0.0 0.0 24.0 24.0" height="200px" width="200px"><path fill="none" stroke="black" stroke-width=".3" stroke-opacity="1.0"  filling="0" d="M17.9012451171875 9.150429725646973 L17.9012451171875 9.31570053100586 C16.60108757019043 10.672093391418457 16.663179397583008 12.87870979309082 17.9012451171875 14.24432373046875 L17.9012451171875 14.415496826171875 C16.160158157348633 12.594767570495605 15.642664909362793 10.959835052490234 17.9012451171875 9.150429725646973 L17.9012451171875 9.150429725646973"></path>
<path fill="none" stroke="black" stroke-width=".3" stroke-opacity="1.0"  filling="0" d="M20.575096130371094 9.150429725646973 L20.575096130371094 9.150429725646973 C22.833721160888672 10.959783554077148 22.316204071044922 12.594806671142578 20.575096130371094 14.415496826171875 L20.575096130371094 14.24432373046875 C21.81319236755371 12.87876033782959 21.875289916992188 10.672041893005371 20.575096130371094 9.31570053100586 L20.575096130371094 9.150429725646973"></path>
<path fill="none" stroke="black" stroke-width=".3" stroke-opacity="1.0"  filling="0" d="M22.484569549560547 9.643291473388672 L22.484569549560547 9.643291473388672 C23.230270385742188 10.402934074401855 21.73390769958496 10.40090560913086 22.484569549560547 9.643291473388672 L22.484569549560547 9.643291473388672"></path>
<path fill="none" stroke="black" stroke-width=".3" stroke-opacity="1.0"  filling="0" d="M1.2029523849487305 9.690512657165527 L2.5280723571777344 9.690512657165527 L2.5280723571777344 12.795249938964844 L4.3490071296691895 12.795249938964844 L4.3490071296691895 13.739656448364258 L1.2029523849487305 13.739656448364258 L1.2029523849487305 9.690512657165527"></path>
<path fill="none" stroke="black" stroke-width=".3" stroke-opacity="1.0"  filling="0" d="M14.389230728149414 9.690512657165527 L15.554983139038086 9.690512657165527 L15.554983139038086 13.739656448364258 L14.389230728149414 13.739656448364258 L14.389230728149414 9.690512657165527"></path>
<path fill="none" stroke="black" stroke-width=".3" stroke-opacity="1.0"  filling="0" d="M22.484569549560547 9.699365615844727 L22.484569549560547 9.699365615844727 C23.061180114746094 10.324613571166992 21.898298263549805 10.32011890411377 22.484569549560547 9.699365615844727 L22.484569549560547 9.699365615844727"></path>
<path fill="none" stroke="black" stroke-width=".3" stroke-opacity="1.0"  filling="0" d="M19.24997329711914 9.714122772216797 L19.24997329711914 9.714122772216797 C19.662168502807617 10.084999084472656 20.27923011779785 10.312485694885254 20.486557006835938 10.826751708984375 C20.598812103271484 11.105195999145508 20.16585350036621 11.334370613098145 20.00550079345703 11.588180541992188 L20.00550079345703 11.599984169006348 C20.206186294555664 11.908884048461914 20.563352584838867 12.160979270935059 20.607559204101562 12.526683807373047 C20.729969024658203 13.539346694946289 19.113019943237305 14.284821510314941 18.410560607910156 13.612191200256348 C18.10702133178711 13.321540832519531 18.04150390625 12.857039451599121 17.856975555419922 12.479463577270508 L18.621353149414062 12.485366821289062 C19.49724769592285 13.529359817504883 20.23924446105957 12.804787635803223 18.901723861694336 11.960040092468262 L19.03158187866211 11.396347045898438 C20.003700256347656 10.6091890335083 19.462400436401367 10.024186134338379 18.659719467163086 10.9979248046875 L17.927804946899414 10.9979248046875 C18.131135940551758 10.418251991271973 18.67230224609375 9.923075675964355 19.24997329711914 9.714122772216797 L19.24997329711914 9.714122772216797"></path>
<path fill="none" stroke="black" stroke-width=".3" stroke-opacity="1.0"  filling="0" d="M22.360614776611328 9.793806076049805 L22.49637222290039 9.793806076049805 C22.549673080444336 9.836204528808594 22.581371307373047 9.944853782653809 22.534740447998047 9.99449348449707 L22.360614776611328 10.150911331176758 L22.360614776611328 9.793806076049805"></path>
<path fill="none" stroke="black" stroke-width=".3" stroke-opacity="1.0"  filling="0" d="M22.419639587402344 9.843978881835938 L22.49047088623047 9.843978881835938 C22.51984214782715 9.862053871154785 22.513107299804688 9.927907943725586 22.484569549560547 9.947273254394531 L22.419639587402344 9.843978881835938"></path>
<path fill="none" stroke="black" stroke-width=".3" stroke-opacity="1.0"  filling="0" d="M6.119769096374512 10.717555046081543 L6.119769096374512 10.717555046081543 C6.897637367248535 11.026774406433105 7.579459190368652 11.74413013458252 7.852165699005127 12.535537719726562 L5.621004581451416 12.535537719726562 C5.872477054595947 12.784443855285645 6.333019733428955 13.027764320373535 6.636241912841797 12.845420837402344 L7.7547736167907715 12.845420837402344 C7.1999053955078125 13.51232624053955 7.140382289886475 13.902750968933105 6.125671863555908 13.819340705871582 C4.817309856414795 13.7117919921875 3.7360877990722656 12.284796714782715 4.933934211730957 11.146418571472168 C5.238622188568115 10.856856346130371 5.724490642547607 10.860509872436523 6.119769096374512 10.717555046081543 L6.119769096374512 10.717555046081543"></path>
<path fill="none" stroke="black" stroke-width=".3" stroke-opacity="1.0"  filling="0" d="M12.435489654541016 10.717555046081543 L12.435489654541016 10.717555046081543 C13.213361740112305 11.026764869689941 13.895203590393066 11.744121551513672 14.167885780334473 12.535537719726562 L11.936724662780762 12.535537719726562 C12.188865661621094 12.785106658935547 12.650343894958496 13.027345657348633 12.954914093017578 12.845420837402344 L14.073445320129395 12.845420837402344 C13.517046928405762 13.512563705444336 13.45713996887207 13.90278148651123 12.441391944885254 13.819340705871582 C11.132980346679688 13.711857795715332 10.051857948303223 12.284749984741211 11.249654769897461 11.146418571472168 C11.554343223571777 10.856856346130371 12.04021167755127 10.860509872436523 12.435489654541016 10.717555046081543 L12.435489654541016 10.717555046081543"></path>
<path fill="none" stroke="black" stroke-width=".3" stroke-opacity="1.0"  filling="0" d="M7.621966361999512 10.797239303588867 L8.793621063232422 10.797239303588867 L9.310093879699707 12.65358829498291 L9.820663452148438 10.797239303588867 L10.945097923278809 10.797239303588867 L9.950519561767578 13.739656448364258 L8.646058082580566 13.739656448364258 L7.621966361999512 10.797239303588867"></path>
<path fill="none" stroke="black" stroke-width=".3" stroke-opacity="1.0"  filling="0" d="M6.16403865814209 11.428811073303223 L6.16403865814209 11.428811073303223 C6.337179660797119 11.599985122680664 6.510321140289307 11.771158218383789 6.683462142944336 11.94233226776123 L5.621004581451416 11.94233226776123 C5.802015781402588 11.771158218383789 5.983027458190918 11.599985122680664 6.16403865814209 11.428811073303223 L6.16403865814209 11.428811073303223"></path>
<path fill="none" stroke="black" stroke-width=".3" stroke-opacity="1.0"  filling="0" d="M12.479759216308594 11.428811073303223 L12.479759216308594 11.428811073303223 C12.652900695800781 11.599985122680664 12.826041221618652 11.771158218383789 12.99918270111084 11.94233226776123 L11.936724662780762 11.94233226776123 C12.117735862731934 11.771158218383789 12.298748016357422 11.599985122680664 12.479759216308594 11.428811073303223 L12.479759216308594 11.428811073303223"></path>
<path fill="none" stroke="black" stroke-width=".3" stroke-opacity="1.0"  filling="0" d="M1.4154434204101562 14.161687850952148 L1.4154434204101562 14.161687850952148 C1.4671413898468018 14.186542510986328 1.5843085050582886 14.196966171264648 1.5630064010620117 14.250226974487305 L1.5423479080200195 14.276787757873535 C1.2234292030334473 14.489388465881348 1.3386892080307007 14.52762508392334 1.5482501983642578 14.737186431884766 L1.56890869140625 14.763747215270996 C1.6615341901779175 14.948983192443848 1.3044513463974 14.336538314819336 1.4154434204101562 14.161687850952148 L1.4154434204101562 14.161687850952148"></path>
<path fill="none" stroke="black" stroke-width=".3" stroke-opacity="1.0"  filling="0" d="M2.4395341873168945 14.161687850952148 L2.4395341873168945 14.161687850952148 C2.9309308528900146 14.938627243041992 1.952344298362732 14.942529678344727 2.4395341873168945 14.161687850952148 L2.4395341873168945 14.161687850952148"></path>
<path fill="none" stroke="black" stroke-width=".3" stroke-opacity="1.0"  filling="0" d="M9.186140060424805 14.161687850952148 L9.186140060424805 14.161687850952148 C9.237837791442871 14.186542510986328 9.355003356933594 14.196965217590332 9.333703994750977 14.250226974487305 L9.313044548034668 14.276787757873535 C8.992457389831543 14.490524291992188 9.110517501831055 14.528735160827637 9.318946838378906 14.737186431884766 L9.339605331420898 14.763747215270996 C9.432242393493652 14.94897747039795 9.07514762878418 14.336538314819336 9.186140060424805 14.161687850952148 L9.186140060424805 14.161687850952148"></path>
<path fill="none" stroke="black" stroke-width=".3" stroke-opacity="1.0"  filling="0" d="M13.173307418823242 14.161687850952148 L13.173307418823242 14.161687850952148 C13.664704322814941 14.938627243041992 12.686117172241211 14.942529678344727 13.173307418823242 14.161687850952148 L13.173307418823242 14.161687850952148"></path>
<path fill="none" stroke="black" stroke-width=".3" stroke-opacity="1.0"  filling="0" d="M15.383810043334961 14.161687850952148 L15.383810043334961 14.161687850952148 C15.438051223754883 14.17733383178711 15.55391788482666 14.17184829711914 15.540227890014648 14.226615905761719 L15.528422355651855 14.259079933166504 C15.43350887298584 14.35399341583252 15.60789680480957 14.5347261428833 15.56088638305664 14.660452842712402 C15.461721420288086 14.925662994384766 15.164909362792969 14.803125381469727 15.177220344543457 14.778504371643066 L15.18902587890625 14.746039390563965 C15.334203720092773 14.600850105285645 15.231779098510742 14.299684524536133 15.383810043334961 14.161687850952148 L15.383810043334961 14.161687850952148"></path>
<path fill="none" stroke="black" stroke-width=".3" stroke-opacity="1.0"  filling="0" d="M3.404600143432617 14.176445007324219 L3.469527244567871 14.176445007324219 C3.4724788665771484 14.17939567565918 3.475430488586426 14.182347297668457 3.478382110595703 14.185297966003418 L3.59348201751709 14.518792152404785 C3.597416877746582 14.538467407226562 3.601351737976074 14.55814266204834 3.6052865982055664 14.577817916870117 L3.6082372665405273 14.577817916870117 C3.6121723651885986 14.55814266204834 3.616107702255249 14.538467407226562 3.6200428009033203 14.518792152404785 L3.735142707824707 14.185297966003418 C3.738093614578247 14.182347297668457 3.741044759750366 14.17939567565918 3.7439956665039062 14.176445007324219 L3.808924674987793 14.176445007324219 C3.812859535217285 14.180379867553711 3.8167943954467773 14.184314727783203 3.8207292556762695 14.188249588012695 L3.8561439514160156 14.825723648071289 C3.8522090911865234 14.829658508300781 3.8482742309570312 14.83359432220459 3.844339370727539 14.837529182434082 L3.7882652282714844 14.837529182434082 C3.784330129623413 14.83359432220459 3.7803947925567627 14.829658508300781 3.7764596939086914 14.825723648071289 L3.7617034912109375 14.329911231994629 C3.7626874446868896 14.30925178527832 3.7636711597442627 14.288592338562012 3.764655113220215 14.267932891845703 L3.7617034912109375 14.267932891845703 C3.7577686309814453 14.290559768676758 3.753833770751953 14.313186645507812 3.749898910522461 14.335813522338867 L3.6318483352661133 14.672257423400879 C3.627913236618042 14.675209045410156 3.6239778995513916 14.678160667419434 3.6200428009033203 14.681112289428711 L3.5905303955078125 14.681112289428711 C3.585611581802368 14.678160667419434 3.580693006515503 14.675209045410156 3.5757741928100586 14.672257423400879 L3.463624954223633 14.335813522338867 C3.4596900939941406 14.313186645507812 3.4557552337646484 14.290559768676758 3.4518203735351562 14.267932891845703 L3.448868751525879 14.267932891845703 C3.449852705001831 14.288592338562012 3.450836420059204 14.30925178527832 3.4518203735351562 14.329911231994629 L3.4370641708374023 14.825723648071289 C3.433129072189331 14.829658508300781 3.4291937351226807 14.83359432220459 3.4252586364746094 14.837529182434082 L3.3691844940185547 14.837529182434082 C3.3652496337890625 14.83359432220459 3.3613147735595703 14.829658508300781 3.357379913330078 14.825723648071289 L3.392794609069824 14.188249588012695 C3.3967297077178955 14.184314727783203 3.400665044784546 14.180379867553711 3.404600143432617 14.176445007324219 L3.404600143432617 14.176445007324219"></path>
<path fill="none" stroke="black" stroke-width=".3" stroke-opacity="1.0"  filling="0" d="M4.626426696777344 14.176445007324219 L4.688403129577637 14.176445007324219 C4.691354274749756 14.17939567565918 4.694305419921875 14.182347297668457 4.697256565093994 14.185297966003418 L4.812356472015381 14.518792152404785 C4.816291332244873 14.538467407226562 4.820226669311523 14.55814266204834 4.824161529541016 14.577817916870117 L4.827112674713135 14.577817916870117 C4.831047534942627 14.55814266204834 4.834982872009277 14.538467407226562 4.8389177322387695 14.518792152404785 L4.954017162322998 14.185297966003418 C4.957952499389648 14.182347297668457 4.961887359619141 14.17939567565918 4.965822696685791 14.176445007324219 L5.027799129486084 14.176445007324219 C5.031733989715576 14.180379867553711 5.035669326782227 14.184314727783203 5.039604187011719 14.188249588012695 L5.077970504760742 14.825723648071289 C5.07403564453125 14.829658508300781 5.0701003074646 14.83359432220459 5.066165447235107 14.837529182434082 L5.010091304779053 14.837529182434082 C5.0061564445495605 14.83359432220459 5.00222110748291 14.829658508300781 4.998286247253418 14.825723648071289 L4.983530044555664 14.329911231994629 C4.983530044555664 14.30925178527832 4.983530044555664 14.288592338562012 4.983530044555664 14.267932891845703 L4.980578899383545 14.267932891845703 C4.976644039154053 14.290559768676758 4.972708702087402 14.313186645507812 4.96877384185791 14.335813522338867 L4.853673934936523 14.672257423400879 C4.848755359649658 14.675209045410156 4.843836307525635 14.678160667419434 4.8389177322387695 14.681112289428711 L4.8094048500061035 14.681112289428711 C4.804486274719238 14.678160667419434 4.799567222595215 14.675209045410156 4.79464864730835 14.672257423400879 L4.68250036239624 14.335813522338867 C4.678565502166748 14.313186645507812 4.674630165100098 14.290559768676758 4.6706953048706055 14.267932891845703 L4.6706953048706055 14.267932891845703 C4.6706953048706055 14.288592338562012 4.6706953048706055 14.30925178527832 4.6706953048706055 14.329911231994629 L4.655938625335693 14.825723648071289 C4.652003765106201 14.829658508300781 4.648068904876709 14.83359432220459 4.644134044647217 14.837529182434082 L4.588059425354004 14.837529182434082 C4.584124565124512 14.83359432220459 4.5801897048950195 14.829658508300781 4.576254844665527 14.825723648071289 L4.614621162414551 14.188249588012695 C4.618556499481201 14.184314727783203 4.622491359710693 14.180379867553711 4.626426696777344 14.176445007324219 L4.626426696777344 14.176445007324219"></path>
<path fill="none" stroke="black" stroke-width=".3" stroke-opacity="1.0"  filling="0" d="M5.815788269042969 14.176445007324219 L5.871862888336182 14.176445007324219 C5.875797748565674 14.180379867553711 5.879732608795166 14.184314727783203 5.883667469024658 14.188249588012695 L5.883667469024658 14.657501220703125 C5.941343784332275 14.71939754486084 6.0769853591918945 14.716649055480957 6.137476921081543 14.657501220703125 L6.137476921081543 14.188249588012695 C6.141411781311035 14.184314727783203 6.1453471183776855 14.180379867553711 6.149281978607178 14.176445007324219 L6.205356121063232 14.176445007324219 C6.209290981292725 14.180379867553711 6.213226318359375 14.184314727783203 6.217161178588867 14.188249588012695 L6.217161178588867 14.660452842712402 C6.114223957061768 14.751953125 5.904275417327881 14.75484561920166 5.803983688354492 14.660452842712402 L5.803983688354492 14.188249588012695 C5.807918548583984 14.184314727783203 5.811853408813477 14.180379867553711 5.815788269042969 14.176445007324219 L5.815788269042969 14.176445007324219"></path>
<path fill="none" stroke="black" stroke-width=".3" stroke-opacity="1.0"  filling="0" d="M6.963832855224609 14.176445007324219 L7.02876091003418 14.176445007324219 C7.033679485321045 14.17939567565918 7.038598537445068 14.182347297668457 7.043517112731934 14.185297966003418 L7.258960247039795 14.633891105651855 C7.2668304443359375 14.658485412597656 7.274700164794922 14.68307876586914 7.2825703620910645 14.707673072814941 L7.2825703620910645 14.707673072814941 C7.279619216918945 14.687997817993164 7.276667594909668 14.668322563171387 7.273716449737549 14.64864730834961 L7.273716449737549 14.188249588012695 C7.277651309967041 14.184314727783203 7.281586647033691 14.180379867553711 7.285521507263184 14.176445007324219 L7.335693359375 14.176445007324219 C7.339628219604492 14.180379867553711 7.343563556671143 14.184314727783203 7.347498416900635 14.188249588012695 L7.347498416900635 14.825723648071289 C7.343563556671143 14.829658508300781 7.339628219604492 14.83359432220459 7.335693359375 14.837529182434082 L7.2825703620910645 14.837529182434082 C7.277651786804199 14.83359432220459 7.272732734680176 14.829658508300781 7.2678141593933105 14.825723648071289 L7.043517112731934 14.350569725036621 C7.035646915435791 14.323023796081543 7.027777194976807 14.295478820800781 7.019906997680664 14.267932891845703 L7.016955852508545 14.267932891845703 C7.019906997680664 14.296462059020996 7.022858619689941 14.324991226196289 7.0258097648620605 14.353520393371582 L7.0258097648620605 14.825723648071289 C7.02187442779541 14.829658508300781 7.017939567565918 14.83359432220459 7.014004230499268 14.837529182434082 L6.963832855224609 14.837529182434082 C6.959897994995117 14.83359432220459 6.955962657928467 14.829658508300781 6.952027797698975 14.825723648071289 L6.952027797698975 14.188249588012695 C6.955962657928467 14.184314727783203 6.959897994995117 14.180379867553711 6.963832855224609 14.176445007324219 L6.963832855224609 14.176445007324219"></path>
<path fill="none" stroke="black" stroke-width=".3" stroke-opacity="1.0"  filling="0" d="M8.055803298950195 14.176445007324219 L8.309612274169922 14.176445007324219 C8.313547134399414 14.180379867553711 8.317482948303223 14.184314727783203 8.321417808532715 14.188249588012695 L8.321417808532715 14.226615905761719 C8.317482948303223 14.230550765991211 8.313547134399414 14.23448657989502 8.309612274169922 14.238421440124512 L8.309612274169922 14.772602081298828 C8.313547134399414 14.77653694152832 8.317482948303223 14.780471801757812 8.321417808532715 14.784406661987305 L8.321417808532715 14.825723648071289 C8.317482948303223 14.829658508300781 8.313547134399414 14.83359432220459 8.309612274169922 14.837529182434082 L8.055803298950195 14.837529182434082 C8.051868438720703 14.83359432220459 8.047933578491211 14.829658508300781 8.043998718261719 14.825723648071289 L8.043998718261719 14.784406661987305 C8.047933578491211 14.780471801757812 8.051868438720703 14.77653694152832 8.055803298950195 14.772602081298828 L8.055803298950195 14.238421440124512 C8.051868438720703 14.23448657989502 8.047933578491211 14.230550765991211 8.043998718261719 14.226615905761719 L8.043998718261719 14.188249588012695 C8.047933578491211 14.184314727783203 8.051868438720703 14.180379867553711 8.055803298950195 14.176445007324219 L8.055803298950195 14.176445007324219"></path>
<path fill="none" stroke="black" stroke-width=".3" stroke-opacity="1.0"  filling="0" d="M10.17186450958252 14.176445007324219 L10.17186450958252 14.176445007324219 C10.175799369812012 14.176445007324219 10.17973518371582 14.176445007324219 10.183670043945312 14.176445007324219 L10.239744186401367 14.176445007324219 C10.24466323852539 14.17939567565918 10.249582290649414 14.182347297668457 10.254501342773438 14.185297966003418 L10.449283599853516 14.813919067382812 C10.450666427612305 14.822209358215332 10.447948455810547 14.833770751953125 10.440430641174316 14.837529182434082 L10.378454208374023 14.837529182434082 C10.37353515625 14.83359432220459 10.368616104125977 14.829658508300781 10.363697052001953 14.825723648071289 L10.062667846679688 14.825723648071289 C10.05676555633545 14.829658508300781 10.050862312316895 14.83359432220459 10.044960021972656 14.837529182434082 L9.982982635498047 14.837529182434082 C9.975727081298828 14.833901405334473 9.974514961242676 14.821615219116211 9.977080345153809 14.813919067382812 L10.168913841247559 14.185297966003418 C10.169897079467773 14.182347297668457 10.170881271362305 14.17939567565918 10.17186450958252 14.176445007324219 L10.17186450958252 14.176445007324219"></path>
<path fill="none" stroke="black" stroke-width=".3" stroke-opacity="1.0"  filling="0" d="M11.021830558776855 14.176445007324219 L11.399593353271484 14.176445007324219 C11.406294822692871 14.179795265197754 11.409916877746582 14.189757347106934 11.408447265625 14.197103500366211 L11.393691062927246 14.232519149780273 C11.388772010803223 14.236454010009766 11.3838529586792 14.240388870239258 11.378933906555176 14.24432373046875 L11.243175506591797 14.825723648071289 C11.239240646362305 14.829658508300781 11.235305786132812 14.83359432220459 11.23137092590332 14.837529182434082 L11.175296783447266 14.837529182434082 C11.171361923217773 14.83359432220459 11.167426109313965 14.829658508300781 11.163491249084473 14.825723648071289 L11.018879890441895 14.24432373046875 C11.014945030212402 14.240388870239258 11.011009216308594 14.236454010009766 11.007074356079102 14.232519149780273 L11.007074356079102 14.188249588012695 C11.011993408203125 14.184314727783203 11.016911506652832 14.180379867553711 11.021830558776855 14.176445007324219 L11.021830558776855 14.176445007324219"></path>
<path fill="none" stroke="black" stroke-width=".3" stroke-opacity="1.0"  filling="0" d="M12.040019035339355 14.176445007324219 L12.296780586242676 14.176445007324219 C12.300715446472168 14.180379867553711 12.30465030670166 14.184314727783203 12.308585166931152 14.188249588012695 L12.308585166931152 14.226615905761719 C12.30465030670166 14.230550765991211 12.300715446472168 14.23448657989502 12.296780586242676 14.238421440124512 L12.296780586242676 14.772602081298828 C12.300715446472168 14.77653694152832 12.30465030670166 14.780471801757812 12.308585166931152 14.784406661987305 L12.308585166931152 14.825723648071289 C12.30465030670166 14.829658508300781 12.300715446472168 14.83359432220459 12.296780586242676 14.837529182434082 L12.040019035339355 14.837529182434082 C12.036084175109863 14.83359432220459 12.032149314880371 14.829658508300781 12.028214454650879 14.825723648071289 L12.028214454650879 14.784406661987305 C12.032149314880371 14.780471801757812 12.036084175109863 14.77653694152832 12.040019035339355 14.772602081298828 L12.040019035339355 14.238421440124512 C12.036084175109863 14.23448657989502 12.032149314880371 14.230550765991211 12.028214454650879 14.226615905761719 L12.028214454650879 14.188249588012695 C12.032149314880371 14.184314727783203 12.036084175109863 14.180379867553711 12.040019035339355 14.176445007324219 L12.040019035339355 14.176445007324219"></path>
<path fill="none" stroke="black" stroke-width=".3" stroke-opacity="1.0"  filling="0" d="M14.176739692687988 14.176445007324219 L14.176739692687988 14.176445007324219 C14.181658744812012 14.17939567565918 14.186576843261719 14.182347297668457 14.191495895385742 14.185297966003418 L14.403987884521484 14.633891105651855 C14.411857604980469 14.658485412597656 14.419727325439453 14.68307876586914 14.427597045898438 14.707673072814941 L14.430549621582031 14.707673072814941 C14.427597999572754 14.687997817993164 14.424647331237793 14.668322563171387 14.421695709228516 14.64864730834961 L14.421695709228516 14.188249588012695 C14.425630569458008 14.184314727783203 14.4295654296875 14.180379867553711 14.433500289916992 14.176445007324219 L14.480720520019531 14.176445007324219 C14.484655380249023 14.180379867553711 14.488591194152832 14.184314727783203 14.492526054382324 14.188249588012695 L14.492526054382324 14.825723648071289 C14.488591194152832 14.829658508300781 14.484655380249023 14.83359432220459 14.480720520019531 14.837529182434082 L14.427597045898438 14.837529182434082 C14.42267894744873 14.83359432220459 14.417759895324707 14.829658508300781 14.412841796875 14.825723648071289 L14.191495895385742 14.350569725036621 C14.182641983032227 14.323023796081543 14.173789024353027 14.295478820800781 14.164935111999512 14.267932891845703 L14.161983489990234 14.267932891845703 C14.164935111999512 14.296462059020996 14.167885780334473 14.324991226196289 14.17083740234375 14.353520393371582 L14.17083740234375 14.825723648071289 C14.167885780334473 14.829658508300781 14.164935111999512 14.83359432220459 14.161983489990234 14.837529182434082 L14.111811637878418 14.837529182434082 C14.107876777648926 14.83359432220459 14.103940963745117 14.829658508300781 14.100006103515625 14.825723648071289 L14.100006103515625 14.188249588012695 C14.103940963745117 14.184314727783203 14.107876777648926 14.180379867553711 14.111811637878418 14.176445007324219 L14.176739692687988 14.176445007324219"></path>
<path fill="none" stroke="black" stroke-width=".3" stroke-opacity="1.0"  filling="0" d="M2.4395341873168945 14.226615905761719 L2.4395341873168945 14.226615905761719 C2.735063314437866 14.85051441192627 2.1481902599334717 14.855659484863281 2.4395341873168945 14.226615905761719 L2.4395341873168945 14.226615905761719"></path>
<path fill="none" stroke="black" stroke-width=".3" stroke-opacity="1.0"  filling="0" d="M13.173307418823242 14.226615905761719 L13.173307418823242 14.226615905761719 C13.468839645385742 14.850516319274902 12.881961822509766 14.855658531188965 13.173307418823242 14.226615905761719 L13.173307418823242 14.226615905761719"></path>
<path fill="none" stroke="black" stroke-width=".3" stroke-opacity="1.0"  filling="0" d="M10.207280158996582 14.267932891845703 L10.210230827331543 14.267932891845703 C10.217117309570312 14.298429489135742 10.224003791809082 14.328927040100098 10.230890274047852 14.359423637390137 L10.127595901489258 14.571914672851562 L10.186620712280273 14.359423637390137 C10.193507194519043 14.328927040100098 10.200393676757812 14.298429489135742 10.207280158996582 14.267932891845703 L10.207280158996582 14.267932891845703"></path></svg>