<svg xmlns="http://www.w3.org/2000/svg" viewBox="0.0 0.0 24.0 24.0" height="200px" width="200px"><path fill="none" stroke="black" stroke-width=".3" stroke-opacity="1.0"  filling="0" d="M135.0541229248047 179.89529418945312 L135.0541229248047 179.89529418945312 C137.44381713867188 179.97183227539062 139.68096923828125 180.28811645507812 141.76022338867188 180.8953399658203 C143.8394775390625 181.5025634765625 145.76080322265625 182.40069580078125 147.51885986328125 183.6409454345703 C149.2769317626953 184.88119506835938 150.8717041015625 186.4635467529297 152.2978515625 188.43917846679688 L152.2978515625 188.43917846679688 C152.45143127441406 186.16102600097656 152.60279846191406 183.74136352539062 154.23342895507812 181.95571899414062 C155.53041076660156 180.53543090820312 157.81768798828125 179.76303100585938 160.04441833496094 179.79139709472656 C162.27114868164062 179.81976318359375 164.43731689453125 180.64892578125 165.49208068847656 182.43179321289062 C166.2598876953125 183.72964477539062 166.34121704101562 185.3413848876953 166.21835327148438 186.9783935546875 C166.09547424316406 188.6154022216797 165.76840209960938 190.27767944335938 165.7194366455078 191.6765899658203 L165.7194366455078 197.74014282226562 L165.7194366455078 203.80369567871094 L165.7194366455078 209.86724853515625 L165.7194366455078 215.9307861328125 L165.7194366455078 221.9943389892578 C165.600341796875 223.9708709716797 165.42893981933594 225.7941131591797 164.62403869628906 227.63417053222656 C163.67132568359375 229.8121795654297 162.19268798828125 231.51663208007812 160.38275146484375 232.84078979492188 C158.57281494140625 234.16493225097656 156.43157958984375 235.10877990722656 154.15365600585938 235.7655487060547 C151.875732421875 236.42233276367188 149.46112060546875 236.7920379638672 147.10443115234375 236.96792602539062 C144.74774169921875 237.143798828125 142.448974609375 237.1258544921875 140.4027557373047 237.00733947753906 C138.3545379638672 236.88870239257812 136.31289672851562 236.59437561035156 134.32781982421875 236.07000732421875 C132.59339904785156 235.61184692382812 130.71568298339844 234.92266845703125 128.9400634765625 233.993408203125 C127.16444396972656 233.06414794921875 125.49092864990234 231.89483642578125 124.16490173339844 230.47640991210938 C122.83887481689453 229.05796813964844 121.86033630371094 227.39044189453125 121.47468566894531 225.46475219726562 C121.05070495605469 223.34768676757812 121.65754699707031 221.15896606445312 122.95145416259766 219.67422485351562 C124.24535369873047 218.18946838378906 126.22630310058594 217.40866088867188 128.55052185058594 218.10740661621094 C129.97052001953125 218.5343017578125 131.0476531982422 219.3672637939453 132.03836059570312 220.31622314453125 C133.02906799316406 221.26516723632812 133.933349609375 222.33010864257812 135.00765991210938 223.22097778320312 C136.460205078125 224.42550659179688 138.11924743652344 225.15631103515625 139.8723602294922 225.54652404785156 C141.62545776367188 225.9367218017578 143.47262573242188 225.986328125 145.30145263671875 225.8284454345703 C146.6459197998047 225.71237182617188 148.03929138183594 225.45481872558594 149.19117736816406 224.85604858398438 C150.34307861328125 224.2572784423828 151.2534942626953 223.31729125976562 151.63206481933594 221.8363494873047 C151.79443359375 221.20115661621094 151.8384246826172 220.5376434326172 151.8556671142578 219.88226318359375 C151.92041015625 217.42103576660156 150.6107940673828 216.2538299560547 148.83755493164062 215.64471435546875 C147.06430053710938 215.0355987548828 144.8274383544922 214.98458862304688 143.03768920898438 214.7557373046875 C141.23965454101562 214.5258331298828 139.28033447265625 214.30482482910156 137.28173828125 214.0010223388672 C135.2831268310547 213.6972198486328 133.24520874023438 213.31063842773438 131.2899627685547 212.74960327148438 C129.33470153808594 212.18856811523438 127.46209716796875 211.45306396484375 125.79412078857422 210.45143127441406 C124.12613677978516 209.44979858398438 122.66276550292969 208.18203735351562 121.5259780883789 206.55648803710938 C120.3697738647461 204.90316772460938 119.57099151611328 202.9281463623047 119.1236572265625 200.8162384033203 C118.67631530761719 198.70433044433594 118.5804214477539 196.45553588867188 118.8299789428711 194.254638671875 C119.07954406738281 192.05374145507812 119.674560546875 189.90072631835938 120.60903930664062 187.9803924560547 C121.54353332519531 186.06005859375 122.81748962402344 184.37242126464844 124.4249267578125 183.1022491455078 C125.97073364257812 181.8807830810547 127.67216491699219 181.1191864013672 129.465087890625 180.64288330078125 C131.25799560546875 180.1665802001953 133.14239501953125 179.97557067871094 135.0541229248047 179.89529418945312 L135.0541229248047 179.89529418945312"></path>
<path fill="none" stroke="black" stroke-width=".3" stroke-opacity="1.0"  filling="0" d="M135.0541229248047 179.89529418945312 L135.0541229248047 179.89529418945312 C137.44381713867188 179.97183227539062 139.68096923828125 180.28811645507812 141.76022338867188 180.8953399658203 C143.8394775390625 181.5025634765625 145.76080322265625 182.40069580078125 147.51885986328125 183.6409454345703 C149.2769317626953 184.88119506835938 150.8717041015625 186.4635467529297 152.2978515625 188.43917846679688 L152.2978515625 188.43917846679688 C152.45143127441406 186.16102600097656 152.60279846191406 183.74136352539062 154.23342895507812 181.95571899414062 C155.53041076660156 180.53543090820312 157.81768798828125 179.76303100585938 160.04441833496094 179.79139709472656 C162.27114868164062 179.81976318359375 164.43731689453125 180.64892578125 165.49208068847656 182.43179321289062 C166.2598876953125 183.72964477539062 166.34121704101562 185.3413848876953 166.21835327148438 186.9783935546875 C166.09547424316406 188.6154022216797 165.76840209960938 190.27767944335938 165.7194366455078 191.6765899658203 L165.7194366455078 197.74014282226562 L165.7194366455078 203.80369567871094 L165.7194366455078 209.86724853515625 L165.7194366455078 215.9307861328125 L165.7194366455078 221.9943389892578 C165.600341796875 223.9708709716797 165.42893981933594 225.7941131591797 164.62403869628906 227.63417053222656 C163.67132568359375 229.8121795654297 162.19268798828125 231.51663208007812 160.38275146484375 232.84078979492188 C158.57281494140625 234.16493225097656 156.43157958984375 235.10877990722656 154.15365600585938 235.7655487060547 C151.875732421875 236.42233276367188 149.46112060546875 236.7920379638672 147.10443115234375 236.96792602539062 C144.74774169921875 237.143798828125 142.448974609375 237.1258544921875 140.4027557373047 237.00733947753906 C138.3545379638672 236.88870239257812 136.31289672851562 236.59437561035156 134.32781982421875 236.07000732421875 C132.59339904785156 235.61184692382812 130.71568298339844 234.92266845703125 128.9400634765625 233.993408203125 C127.16444396972656 233.06414794921875 125.49092864990234 231.89483642578125 124.16490173339844 230.47640991210938 C122.83887481689453 229.05796813964844 121.86033630371094 227.39044189453125 121.47468566894531 225.46475219726562 C121.05070495605469 223.34768676757812 121.65754699707031 221.15896606445312 122.95145416259766 219.67422485351562 C124.24535369873047 218.18946838378906 126.22630310058594 217.40866088867188 128.55052185058594 218.10740661621094 C129.97052001953125 218.5343017578125 131.0476531982422 219.3672637939453 132.03836059570312 220.31622314453125 C133.02906799316406 221.26516723632812 133.933349609375 222.33010864257812 135.00765991210938 223.22097778320312 C136.460205078125 224.42550659179688 138.11924743652344 225.15631103515625 139.8723602294922 225.54652404785156 C141.62545776367188 225.9367218017578 143.47262573242188 225.986328125 145.30145263671875 225.8284454345703 C146.6459197998047 225.71237182617188 148.03929138183594 225.45481872558594 149.19117736816406 224.85604858398438 C150.34307861328125 224.2572784423828 151.2534942626953 223.31729125976562 151.63206481933594 221.8363494873047 C151.79443359375 221.20115661621094 151.8384246826172 220.5376434326172 151.8556671142578 219.88226318359375 C151.92041015625 217.42103576660156 150.6107940673828 216.2538299560547 148.83755493164062 215.64471435546875 C147.06430053710938 215.0355987548828 144.8274383544922 214.98458862304688 143.03768920898438 214.7557373046875 C141.23965454101562 214.5258331298828 139.28033447265625 214.30482482910156 137.28173828125 214.0010223388672 C135.2831268310547 213.6972198486328 133.24520874023438 213.31063842773438 131.2899627685547 212.74960327148438 C129.33470153808594 212.18856811523438 127.46209716796875 211.45306396484375 125.79412078857422 210.45143127441406 C124.12613677978516 209.44979858398438 122.66276550292969 208.18203735351562 121.5259780883789 206.55648803710938 C120.3697738647461 204.90316772460938 119.57099151611328 202.9281463623047 119.1236572265625 200.8162384033203 C118.67631530761719 198.70433044433594 118.5804214477539 196.45553588867188 118.8299789428711 194.254638671875 C119.07954406738281 192.05374145507812 119.674560546875 189.90072631835938 120.60903930664062 187.9803924560547 C121.54353332519531 186.06005859375 122.81748962402344 184.37242126464844 124.4249267578125 183.1022491455078 C125.97073364257812 181.8807830810547 127.67216491699219 181.1191864013672 129.465087890625 180.64288330078125 C131.25799560546875 180.1665802001953 133.14239501953125 179.97557067871094 135.0541229248047 179.89529418945312 L135.0541229248047 179.89529418945312"></path>
<path fill="none" stroke="black" stroke-width=".3" stroke-opacity="1.0"  filling="0" d="M288.3439025878906 179.9957275390625 L288.3439025878906 179.9957275390625 C290.5919189453125 180.05880737304688 292.8167724609375 180.26502990722656 294.9750671386719 180.68304443359375 C297.13336181640625 181.10107421875 299.2250671386719 181.7309112548828 301.206787109375 182.6412353515625 C303.18853759765625 183.5515594482422 305.060302734375 184.74237060546875 306.7786865234375 186.28233337402344 C308.3990173339844 187.7344207763672 309.7979736328125 189.42950439453125 310.9752197265625 191.30043029785156 C312.1524353027344 193.17135620117188 313.1079406738281 195.21812438964844 313.84130859375 197.37356567382812 C314.57470703125 199.52902221679688 315.0859680175781 201.79315185546875 315.3747863769531 204.09881591796875 C315.6636047363281 206.40447998046875 315.72991943359375 208.75167846679688 315.57342529296875 211.0732421875 C315.41693115234375 213.39480590820312 315.0375671386719 215.6907501220703 314.43499755859375 217.8939208984375 C313.83245849609375 220.09707641601562 313.00665283203125 222.20745849609375 311.9573059082031 224.1579132080078 C310.907958984375 226.10836791992188 309.635009765625 227.8988800048828 308.1381530761719 229.46231079101562 C306.40753173828125 231.26988220214844 304.4498596191406 232.71768188476562 302.3359375 233.84471130371094 C300.2220458984375 234.97174072265625 297.9518737792969 235.77801513671875 295.5962829589844 236.3025360107422 C293.24066162109375 236.82705688476562 290.79962158203125 237.06980895996094 288.3439025878906 237.06980895996094 C285.8865051269531 237.06980895996094 283.44183349609375 236.82882690429688 281.08221435546875 236.3060760498047 C278.72259521484375 235.7833251953125 276.4480285644531 234.97882080078125 274.3308410644531 233.85177612304688 C272.213623046875 232.72474670410156 270.25384521484375 231.27517700195312 268.52374267578125 229.46231079101562 C267.0323181152344 227.89952087402344 265.7637634277344 226.10939025878906 264.71783447265625 224.15914916992188 C263.6719055175781 222.2089080810547 262.8486022949219 220.09854125976562 262.2476806640625 217.89527893066406 C261.6467590332031 215.69203186035156 261.2681884765625 213.3958740234375 261.1117248535156 211.07406616210938 C260.9552917480469 208.7522430419922 261.0209655761719 206.40475463867188 261.3085021972656 204.09881591796875 C261.5960388183594 201.79287719726562 262.10540771484375 199.52850341796875 262.83642578125 197.37289428710938 C263.56744384765625 195.21728515625 264.52001953125 193.1704559326172 265.6940002441406 191.29962158203125 C266.8679504394531 189.4287872314453 268.26324462890625 187.73394775390625 269.8796691894531 186.28233337402344 C271.59893798828125 184.73834228515625 273.4735412597656 183.54612731933594 275.45892333984375 182.6357421875 C277.44427490234375 181.72535705566406 279.5404052734375 181.0968017578125 281.7027587890625 180.68011474609375 C283.8651123046875 180.263427734375 286.09368896484375 180.05862426757812 288.3439025878906 179.9957275390625 L288.3439025878906 179.9957275390625"></path>
<path fill="none" stroke="black" stroke-width=".3" stroke-opacity="1.0"  filling="0" d="M288.3439025878906 179.9957275390625 L288.3439025878906 179.9957275390625 C290.5919189453125 180.05880737304688 292.8167724609375 180.26502990722656 294.9750671386719 180.68304443359375 C297.13336181640625 181.10107421875 299.2250671386719 181.7309112548828 301.206787109375 182.6412353515625 C303.18853759765625 183.5515594482422 305.060302734375 184.74237060546875 306.7786865234375 186.28233337402344 C308.3990173339844 187.7344207763672 309.7979736328125 189.42950439453125 310.9752197265625 191.30043029785156 C312.1524353027344 193.17135620117188 313.1079406738281 195.21812438964844 313.84130859375 197.37356567382812 C314.57470703125 199.52902221679688 315.0859680175781 201.79315185546875 315.3747863769531 204.09881591796875 C315.6636047363281 206.40447998046875 315.72991943359375 208.75167846679688 315.57342529296875 211.0732421875 C315.41693115234375 213.39480590820312 315.0375671386719 215.6907501220703 314.43499755859375 217.8939208984375 C313.83245849609375 220.09707641601562 313.00665283203125 222.20745849609375 311.9573059082031 224.1579132080078 C310.907958984375 226.10836791992188 309.635009765625 227.8988800048828 308.1381530761719 229.46231079101562 C306.40753173828125 231.26988220214844 304.4498596191406 232.71768188476562 302.3359375 233.84471130371094 C300.2220458984375 234.97174072265625 297.9518737792969 235.77801513671875 295.5962829589844 236.3025360107422 C293.24066162109375 236.82705688476562 290.79962158203125 237.06980895996094 288.3439025878906 237.06980895996094 C285.8865051269531 237.06980895996094 283.44183349609375 236.82882690429688 281.08221435546875 236.3060760498047 C278.72259521484375 235.7833251953125 276.4480285644531 234.97882080078125 274.3308410644531 233.85177612304688 C272.213623046875 232.72474670410156 270.25384521484375 231.27517700195312 268.52374267578125 229.46231079101562 C267.0323181152344 227.89952087402344 265.7637634277344 226.10939025878906 264.71783447265625 224.15914916992188 C263.6719055175781 222.2089080810547 262.8486022949219 220.09854125976562 262.2476806640625 217.89527893066406 C261.6467590332031 215.69203186035156 261.2681884765625 213.3958740234375 261.1117248535156 211.07406616210938 C260.9552917480469 208.7522430419922 261.0209655761719 206.40475463867188 261.3085021972656 204.09881591796875 C261.5960388183594 201.79287719726562 262.10540771484375 199.52850341796875 262.83642578125 197.37289428710938 C263.56744384765625 195.21728515625 264.52001953125 193.1704559326172 265.6940002441406 191.29962158203125 C266.8679504394531 189.4287872314453 268.26324462890625 187.73394775390625 269.8796691894531 186.28233337402344 C271.59893798828125 184.73834228515625 273.4735412597656 183.54612731933594 275.45892333984375 182.6357421875 C277.44427490234375 181.72535705566406 279.5404052734375 181.0968017578125 281.7027587890625 180.68011474609375 C283.8651123046875 180.263427734375 286.09368896484375 180.05862426757812 288.3439025878906 179.9957275390625 L288.3439025878906 179.9957275390625"></path>
<path fill="none" stroke="black" stroke-width=".3" stroke-opacity="1.0"  filling="0" d="M213.18283081054688 180.90032958984375 L213.18283081054688 180.90032958984375 C214.72769165039062 181.07461547851562 215.3273468017578 180.98025512695312 216.7015838623047 181.74937438964844 C219.2316131591797 183.16537475585938 220.02574157714844 185.2066650390625 219.90147399902344 187.37408447265625 C219.77719116210938 189.54150390625 218.73452758789062 191.83505249023438 217.59095764160156 193.75555419921875 L214.44876098632812 199.15744018554688 L211.30654907226562 204.55934143066406 L208.16433715820312 209.9612274169922 L205.02212524414062 215.36312866210938 L208.80039978027344 219.38536071777344 L212.57867431640625 223.4075927734375 C213.34530639648438 224.3035125732422 214.3433837890625 225.3355712890625 215.15365600585938 226.46788024902344 C215.9639129638672 227.60018920898438 216.58636474609375 228.832763671875 216.6016845703125 230.12973022460938 C216.62545776367188 232.1404571533203 215.50433349609375 233.80148315429688 213.9243621826172 234.8483428955078 C212.34439086914062 235.8951873779297 210.30557250976562 236.32785034179688 208.49395751953125 235.88182067871094 C206.40110778808594 235.36656188964844 205.03103637695312 233.6536102294922 203.6483612060547 232.14068603515625 L198.9222869873047 226.80946350097656 L194.19619750976562 221.4782257080078 L189.47012329101562 216.14698791503906 L189.47012329101562 222.33905029296875 L189.47012329101562 228.5311279296875 L189.47012329101562 234.72320556640625 L189.47012329101562 240.91526794433594 L189.47012329101562 247.10733032226562 C189.34571838378906 249.1574249267578 189.20480346679688 251.46319580078125 187.6796875 253.045166015625 C186.38137817382812 254.39186096191406 184.43295288085938 255.09706115722656 182.48477172851562 255.11920166015625 C180.53659057617188 255.14132690429688 178.58868408203125 254.48040771484375 177.29139709472656 253.0948486328125 C175.8035125732422 251.50570678710938 175.71583557128906 249.13291931152344 175.60226440429688 247.10733032226562 L175.60226440429688 239.81874084472656 L175.60226440429688 232.5301513671875 L175.60226440429688 225.24154663085938 L175.60226440429688 217.95297241210938 L175.60226440429688 210.66436767578125 L175.60226440429688 203.37579345703125 L175.60226440429688 196.08718872070312 L175.60226440429688 188.79859924316406 C175.7165069580078 186.78564453125 175.8122100830078 184.43748474121094 177.29139709472656 182.86032104492188 C178.5899658203125 181.47576904296875 180.53762817382812 180.81622314453125 182.4853515625 180.83912658691406 C184.43309020996094 180.86203002929688 186.38088989257812 181.5673828125 187.6796875 182.91258239746094 C189.1957550048828 184.48280334472656 189.3448944091797 186.76075744628906 189.47012329101562 188.79859924316406 L189.47012329101562 193.7349395751953 L189.4701385498047 198.67127990722656 L192.16754150390625 201.5948486328125 L194.86495971679688 204.51840209960938 L198.38143920898438 198.21533203125 L201.89791870117188 191.9122314453125 L205.41439819335938 185.609130859375 C206.42129516601562 184.0729522705078 207.44296264648438 182.96485900878906 208.67311096191406 182.2062530517578 C209.9032745361328 181.44766235351562 211.34193420410156 181.03854370117188 213.18283081054688 180.90032958984375 L213.18283081054688 180.90032958984375"></path>
<path fill="none" stroke="black" stroke-width=".3" stroke-opacity="1.0"  filling="0" d="M213.18283081054688 180.90032958984375 L213.18283081054688 180.90032958984375 C214.72769165039062 181.07461547851562 215.3273468017578 180.98025512695312 216.7015838623047 181.74937438964844 C219.2316131591797 183.16537475585938 220.02574157714844 185.2066650390625 219.90147399902344 187.37408447265625 C219.77719116210938 189.54150390625 218.73452758789062 191.83505249023438 217.59095764160156 193.75555419921875 L214.44876098632812 199.15744018554688 L211.30654907226562 204.55934143066406 L208.16433715820312 209.9612274169922 L205.02212524414062 215.36312866210938 L208.80039978027344 219.38536071777344 L212.57867431640625 223.4075927734375 C213.34530639648438 224.3035125732422 214.3433837890625 225.3355712890625 215.15365600585938 226.46788024902344 C215.9639129638672 227.60018920898438 216.58636474609375 228.832763671875 216.6016845703125 230.12973022460938 C216.62545776367188 232.1404571533203 215.50433349609375 233.80148315429688 213.9243621826172 234.8483428955078 C212.34439086914062 235.8951873779297 210.30557250976562 236.32785034179688 208.49395751953125 235.88182067871094 C206.40110778808594 235.36656188964844 205.03103637695312 233.6536102294922 203.6483612060547 232.14068603515625 L198.9222869873047 226.80946350097656 L194.19619750976562 221.4782257080078 L189.47012329101562 216.14698791503906 L189.47012329101562 222.33905029296875 L189.47012329101562 228.5311279296875 L189.47012329101562 234.72320556640625 L189.47012329101562 240.91526794433594 L189.47012329101562 247.10733032226562 C189.34571838378906 249.1574249267578 189.20480346679688 251.46319580078125 187.6796875 253.045166015625 C186.38137817382812 254.39186096191406 184.43295288085938 255.09706115722656 182.48477172851562 255.11920166015625 C180.53659057617188 255.14132690429688 178.58868408203125 254.48040771484375 177.29139709472656 253.0948486328125 C175.8035125732422 251.50570678710938 175.71583557128906 249.13291931152344 175.60226440429688 247.10733032226562 L175.60226440429688 239.81874084472656 L175.60226440429688 232.5301513671875 L175.60226440429688 225.24154663085938 L175.60226440429688 217.95297241210938 L175.60226440429688 210.66436767578125 L175.60226440429688 203.37579345703125 L175.60226440429688 196.08718872070312 L175.60226440429688 188.79859924316406 C175.7165069580078 186.78564453125 175.8122100830078 184.43748474121094 177.29139709472656 182.86032104492188 C178.5899658203125 181.47576904296875 180.53762817382812 180.81622314453125 182.4853515625 180.83912658691406 C184.43309020996094 180.86203002929688 186.38088989257812 181.5673828125 187.6796875 182.91258239746094 C189.1957550048828 184.48280334472656 189.3448944091797 186.76075744628906 189.47012329101562 188.79859924316406 L189.47012329101562 193.7349395751953 L189.4701385498047 198.67127990722656 L192.16754150390625 201.5948486328125 L194.86495971679688 204.51840209960938 L198.38143920898438 198.21533203125 L201.89791870117188 191.9122314453125 L205.41439819335938 185.609130859375 C206.42129516601562 184.0729522705078 207.44296264648438 182.96485900878906 208.67311096191406 182.2062530517578 C209.9032745361328 181.44766235351562 211.34193420410156 181.03854370117188 213.18283081054688 180.90032958984375 L213.18283081054688 180.90032958984375"></path>
<path fill="none" stroke="black" stroke-width=".3" stroke-opacity="1.0"  filling="0" d="M74.23846435546875 180.90036010742188 L74.23846435546875 180.90036010742188 C74.9506607055664 180.9737091064453 75.67681121826172 180.96212768554688 76.37506103515625 181.12042236328125 C78.2998046875 181.5567626953125 79.47244262695312 182.62335205078125 80.1895751953125 184.0084991455078 C80.90670013427734 185.39364624023438 81.16830444335938 187.0973358154297 81.27098846435547 188.80789184570312 L81.27098846435547 195.254150390625 L81.27098846435547 201.7003936767578 L81.27098846435547 208.14663696289062 L81.27098846435547 214.5928955078125 C81.38533020019531 216.25540161132812 81.60237121582031 217.8914337158203 82.15577697753906 219.36822509765625 C82.70919036865234 220.8450164794922 83.59896850585938 222.16256713867188 85.05878448486328 223.18814086914062 C86.82684326171875 224.43026733398438 89.23429107666016 224.96119689941406 91.49860382080078 224.6923065185547 C93.76292419433594 224.42340087890625 95.88410949707031 223.35470581054688 97.07965850830078 221.39756774902344 C98.00033569335938 219.89041137695312 98.1303482055664 218.3165283203125 98.25399017333984 216.60362243652344 L98.25399017333984 209.65467834472656 L98.25399017333984 202.70574951171875 L98.25399017333984 195.75682067871094 L98.25399017333984 188.80787658691406 C98.38096618652344 186.759521484375 98.53678894042969 184.4850616455078 100.06643676757812 182.91259765625 C101.3873291015625 181.5547332763672 103.35227966308594 180.85528564453125 105.31875610351562 180.83912658691406 C107.28524017333984 180.8229522705078 109.25325012207031 181.4900665283203 110.58024597167969 182.8653106689453 C112.09484100341797 184.43496704101562 112.20272827148438 186.78004455566406 112.32098388671875 188.80789184570312 L112.32098388671875 194.9467010498047 L112.32098388671875 201.08551025390625 L112.32098388671875 207.22430419921875 L112.32098388671875 213.36312866210938 L112.32098388671875 219.50192260742188 C112.23365020751953 221.55221557617188 112.0197982788086 223.5632781982422 111.50439453125 225.47796630859375 C110.98898315429688 227.39266967773438 110.17201232910156 229.21099853515625 108.8784408569336 230.87582397460938 C107.60331726074219 232.51690673828125 106.00191497802734 233.82492065429688 104.20479583740234 234.80686950683594 C102.40767669677734 235.788818359375 100.41484069824219 236.44471740722656 98.35685729980469 236.78158569335938 C96.29887390136719 237.11846923828125 94.17575073242188 237.13632202148438 92.11805725097656 236.84217834472656 C90.06036376953125 236.54803466796875 88.06808471679688 235.94189453125 86.27181243896484 235.0308074951172 C84.9176025390625 234.34393310546875 83.73695373535156 233.49169921875 82.66338348388672 232.51612854003906 C81.5898208618164 231.54055786132812 80.62332916259766 230.441650390625 79.69742584228516 229.2614288330078 L79.69742584228516 229.2614288330078 C78.30348205566406 231.1983184814453 76.85006713867188 232.97962951660156 74.85723876953125 234.33856201171875 C72.77236938476562 235.76025390625 70.54238891601562 236.61614990234375 68.27838897705078 236.98622131347656 C66.01438903808594 237.3562774658203 63.716365814208984 237.24050903320312 61.49541091918945 236.71888732910156 C59.274452209472656 236.197265625 57.13056564331055 235.26979064941406 55.174827575683594 234.0164337158203 C53.219093322753906 232.76307678222656 51.451515197753906 231.183837890625 49.98317337036133 229.35867309570312 L49.98317337036133 229.35867309570312 C49.63554000854492 231.24044799804688 49.3446159362793 233.0315704345703 47.923397064208984 234.45196533203125 C46.64584732055664 235.72877502441406 44.804168701171875 236.29000854492188 42.98647689819336 236.2055206298828 C41.16878128051758 236.12103271484375 39.37507247924805 235.39080810546875 38.193458557128906 234.08474731445312 C36.725704193115234 232.46240234375 36.576168060302734 230.19175720214844 36.453582763671875 228.1361083984375 L36.453582763671875 221.58140563964844 L36.453582763671875 215.02671813964844 L36.453582763671875 208.47201538085938 L36.453582763671875 201.9173126220703 L36.453582763671875 195.36260986328125 L36.453582763671875 188.8079071044922 C36.57522964477539 186.7736358642578 36.70355224609375 184.46148681640625 38.21786880493164 182.8890838623047 C39.537574768066406 181.5187530517578 41.51199722290039 180.8346405029297 43.4866943359375 180.83517456054688 C45.461387634277344 180.835693359375 47.43635559082031 181.52085876464844 48.75715637207031 182.8890838623047 C50.27265167236328 184.45899963378906 50.4006233215332 186.7754669189453 50.522308349609375 188.8079071044922 L50.522308349609375 195.2303466796875 L50.522308349609375 201.6527862548828 L50.522308349609375 208.07522583007812 L50.522308349609375 214.49766540527344 C50.63490676879883 216.15283203125 50.8469352722168 217.78831481933594 51.39369201660156 219.26654052734375 C51.94044494628906 220.7447509765625 52.821929931640625 222.06568908691406 54.27342987060547 223.09176635742188 C56.01136016845703 224.3203125 58.40605545043945 224.86074829101562 60.65611267089844 224.60403442382812 C62.90617370605469 224.34730529785156 65.0115966796875 223.29345703125 66.17097473144531 221.33343505859375 C67.06903839111328 219.81520080566406 67.18570709228516 218.22225952148438 67.3035659790039 216.50990295410156 L67.3035659790039 209.58441162109375 L67.3035659790039 202.65890502929688 L67.3035659790039 195.7333984375 L67.3035659790039 188.8079071044922 C67.4014892578125 187.10882568359375 67.64054870605469 185.40350341796875 68.33596801757812 184.01443481445312 C69.03137969970703 182.62538146972656 70.18315124511719 181.55259704589844 72.10649871826172 181.11862182617188 C72.80335235595703 180.96139526367188 73.5278091430664 180.97311401367188 74.23846435546875 180.90036010742188 L74.23846435546875 180.90036010742188"></path>
<path fill="none" stroke="black" stroke-width=".3" stroke-opacity="1.0"  filling="0" d="M74.23846435546875 180.90036010742188 L74.23846435546875 180.90036010742188 C74.9506607055664 180.9737091064453 75.67681121826172 180.96212768554688 76.37506103515625 181.12042236328125 C78.2998046875 181.5567626953125 79.47244262695312 182.62335205078125 80.1895751953125 184.0084991455078 C80.90670013427734 185.39364624023438 81.16830444335938 187.0973358154297 81.27098846435547 188.80789184570312 L81.27098846435547 195.254150390625 L81.27098846435547 201.7003936767578 L81.27098846435547 208.14663696289062 L81.27098846435547 214.5928955078125 C81.38533020019531 216.25540161132812 81.60237121582031 217.8914337158203 82.15577697753906 219.36822509765625 C82.70919036865234 220.8450164794922 83.59896850585938 222.16256713867188 85.05878448486328 223.18814086914062 C86.82684326171875 224.43026733398438 89.23429107666016 224.96119689941406 91.49860382080078 224.6923065185547 C93.76292419433594 224.42340087890625 95.88410949707031 223.35470581054688 97.07965850830078 221.39756774902344 C98.00033569335938 219.89041137695312 98.1303482055664 218.3165283203125 98.25399017333984 216.60362243652344 L98.25399017333984 209.65467834472656 L98.25399017333984 202.70574951171875 L98.25399017333984 195.75682067871094 L98.25399017333984 188.80787658691406 C98.38096618652344 186.759521484375 98.53678894042969 184.4850616455078 100.06643676757812 182.91259765625 C101.3873291015625 181.5547332763672 103.35227966308594 180.85528564453125 105.31875610351562 180.83912658691406 C107.28524017333984 180.8229522705078 109.25325012207031 181.4900665283203 110.58024597167969 182.8653106689453 C112.09484100341797 184.43496704101562 112.20272827148438 186.78004455566406 112.32098388671875 188.80789184570312 L112.32098388671875 194.9467010498047 L112.32098388671875 201.08551025390625 L112.32098388671875 207.22430419921875 L112.32098388671875 213.36312866210938 L112.32098388671875 219.50192260742188 C112.23365020751953 221.55221557617188 112.0197982788086 223.5632781982422 111.50439453125 225.47796630859375 C110.98898315429688 227.39266967773438 110.17201232910156 229.21099853515625 108.8784408569336 230.87582397460938 C107.60331726074219 232.51690673828125 106.00191497802734 233.82492065429688 104.20479583740234 234.80686950683594 C102.40767669677734 235.788818359375 100.41484069824219 236.44471740722656 98.35685729980469 236.78158569335938 C96.29887390136719 237.11846923828125 94.17575073242188 237.13632202148438 92.11805725097656 236.84217834472656 C90.06036376953125 236.54803466796875 88.06808471679688 235.94189453125 86.27181243896484 235.0308074951172 C84.9176025390625 234.34393310546875 83.73695373535156 233.49169921875 82.66338348388672 232.51612854003906 C81.5898208618164 231.54055786132812 80.62332916259766 230.441650390625 79.69742584228516 229.2614288330078 L79.69742584228516 229.2614288330078 C78.30348205566406 231.1983184814453 76.85006713867188 232.97962951660156 74.85723876953125 234.33856201171875 C72.77236938476562 235.76025390625 70.54238891601562 236.61614990234375 68.27838897705078 236.98622131347656 C66.01438903808594 237.3562774658203 63.716365814208984 237.24050903320312 61.49541091918945 236.71888732910156 C59.274452209472656 236.197265625 57.13056564331055 235.26979064941406 55.174827575683594 234.0164337158203 C53.219093322753906 232.76307678222656 51.451515197753906 231.183837890625 49.98317337036133 229.35867309570312 L49.98317337036133 229.35867309570312 C49.63554000854492 231.24044799804688 49.3446159362793 233.0315704345703 47.923397064208984 234.45196533203125 C46.64584732055664 235.72877502441406 44.804168701171875 236.29000854492188 42.98647689819336 236.2055206298828 C41.16878128051758 236.12103271484375 39.37507247924805 235.39080810546875 38.193458557128906 234.08474731445312 C36.725704193115234 232.46240234375 36.576168060302734 230.19175720214844 36.453582763671875 228.1361083984375 L36.453582763671875 221.58140563964844 L36.453582763671875 215.02671813964844 L36.453582763671875 208.47201538085938 L36.453582763671875 201.9173126220703 L36.453582763671875 195.36260986328125 L36.453582763671875 188.8079071044922 C36.57522964477539 186.7736358642578 36.70355224609375 184.46148681640625 38.21786880493164 182.8890838623047 C39.537574768066406 181.5187530517578 41.51199722290039 180.8346405029297 43.4866943359375 180.83517456054688 C45.461387634277344 180.835693359375 47.43635559082031 181.52085876464844 48.75715637207031 182.8890838623047 C50.27265167236328 184.45899963378906 50.4006233215332 186.7754669189453 50.522308349609375 188.8079071044922 L50.522308349609375 195.2303466796875 L50.522308349609375 201.6527862548828 L50.522308349609375 208.07522583007812 L50.522308349609375 214.49766540527344 C50.63490676879883 216.15283203125 50.8469352722168 217.78831481933594 51.39369201660156 219.26654052734375 C51.94044494628906 220.7447509765625 52.821929931640625 222.06568908691406 54.27342987060547 223.09176635742188 C56.01136016845703 224.3203125 58.40605545043945 224.86074829101562 60.65611267089844 224.60403442382812 C62.90617370605469 224.34730529785156 65.0115966796875 223.29345703125 66.17097473144531 221.33343505859375 C67.06903839111328 219.81520080566406 67.18570709228516 218.22225952148438 67.3035659790039 216.50990295410156 L67.3035659790039 209.58441162109375 L67.3035659790039 202.65890502929688 L67.3035659790039 195.7333984375 L67.3035659790039 188.8079071044922 C67.4014892578125 187.10882568359375 67.64054870605469 185.40350341796875 68.33596801757812 184.01443481445312 C69.03137969970703 182.62538146972656 70.18315124511719 181.55259704589844 72.10649871826172 181.11862182617188 C72.80335235595703 180.96139526367188 73.5278091430664 180.97311401367188 74.23846435546875 180.90036010742188 L74.23846435546875 180.90036010742188"></path>
<path fill="none" stroke="black" stroke-width=".3" stroke-opacity="1.0"  filling="0" d="M235.28785705566406 180.90036010742188 L235.28785705566406 180.90036010742188 C236.0166778564453 180.97364807128906 236.7591552734375 180.9618377685547 237.4743194580078 181.12022399902344 C239.41632080078125 181.55029296875 240.60659790039062 182.60501098632812 241.3376922607422 183.98464965820312 C242.06878662109375 185.36428833007812 242.34072875976562 187.06884765625 242.44610595703125 188.79859924316406 L242.44610595703125 195.87008666992188 L242.44610595703125 202.94155883789062 L242.44610595703125 210.01304626464844 C242.53518676757812 212.03717041015625 242.78564453125 214.0865020751953 243.48597717285156 215.9109344482422 C244.18630981445312 217.73536682128906 245.33651733398438 219.3348846435547 247.22509765625 220.45936584472656 C248.74224853515625 221.36268615722656 250.6471405029297 221.64569091796875 252.5600128173828 221.8767547607422 C254.472900390625 222.10781860351562 256.39373779296875 222.28695678710938 257.9428405761719 222.9825439453125 C259.4919128417969 223.67813110351562 260.66925048828125 224.89016723632812 261.09503173828125 227.18704223632812 C261.31256103515625 228.36044311523438 261.2730712890625 229.78814697265625 261.01275634765625 230.9328155517578 C260.46075439453125 233.35995483398438 258.7861633300781 234.9285888671875 256.7288513183594 235.66909790039062 C254.67156982421875 236.40960693359375 252.23159790039062 236.32199096679688 250.1488800048828 235.43661499023438 C247.95785522460938 234.50518798828125 246.2435302734375 232.95590209960938 244.84249877929688 231.1253204345703 C243.4414520263672 229.29473876953125 242.35366821289062 227.18289184570312 241.4157257080078 225.1263427734375 L241.41578674316406 229.83596801757812 C241.2384033203125 231.6026153564453 241.07684326171875 233.16737365722656 239.74827575683594 234.49725341796875 C238.48609924316406 235.76068115234375 236.62120056152344 236.30638122558594 234.77552795410156 236.220458984375 C232.9298553466797 236.134521484375 231.1033935546875 235.41696166992188 229.9180908203125 234.15382385253906 C228.40597534179688 232.54241943359375 228.29579162597656 230.17979431152344 228.1771240234375 228.11880493164062 L228.1771240234375 221.5654296875 L228.1771240234375 215.0120849609375 L228.1771240234375 208.45870971679688 L228.1771240234375 201.90533447265625 L228.1771240234375 195.3519744873047 L228.1771240234375 188.79859924316406 C228.28179931640625 187.07565307617188 228.55203247070312 185.37254333496094 229.27975463867188 183.99192810058594 C230.00746154785156 182.61131286621094 231.192626953125 181.55319213867188 233.12713623046875 181.12022399902344 C233.8336181640625 180.96209716796875 234.56761169433594 180.97364807128906 235.28785705566406 180.90036010742188 L235.28785705566406 180.90036010742188"></path>
<path fill="none" stroke="black" stroke-width=".3" stroke-opacity="1.0"  filling="0" d="M235.28785705566406 180.90036010742188 L235.28785705566406 180.90036010742188 C236.0166778564453 180.97364807128906 236.7591552734375 180.9618377685547 237.4743194580078 181.12022399902344 C239.41632080078125 181.55029296875 240.60659790039062 182.60501098632812 241.3376922607422 183.98464965820312 C242.06878662109375 185.36428833007812 242.34072875976562 187.06884765625 242.44610595703125 188.79859924316406 L242.44610595703125 195.87008666992188 L242.44610595703125 202.94155883789062 L242.44610595703125 210.01304626464844 C242.53518676757812 212.03717041015625 242.78564453125 214.0865020751953 243.48597717285156 215.9109344482422 C244.18630981445312 217.73536682128906 245.33651733398438 219.3348846435547 247.22509765625 220.45936584472656 C248.74224853515625 221.36268615722656 250.6471405029297 221.64569091796875 252.5600128173828 221.8767547607422 C254.472900390625 222.10781860351562 256.39373779296875 222.28695678710938 257.9428405761719 222.9825439453125 C259.4919128417969 223.67813110351562 260.66925048828125 224.89016723632812 261.09503173828125 227.18704223632812 C261.31256103515625 228.36044311523438 261.2730712890625 229.78814697265625 261.01275634765625 230.9328155517578 C260.46075439453125 233.35995483398438 258.7861633300781 234.9285888671875 256.7288513183594 235.66909790039062 C254.67156982421875 236.40960693359375 252.23159790039062 236.32199096679688 250.1488800048828 235.43661499023438 C247.95785522460938 234.50518798828125 246.2435302734375 232.95590209960938 244.84249877929688 231.1253204345703 C243.4414520263672 229.29473876953125 242.35366821289062 227.18289184570312 241.4157257080078 225.1263427734375 L241.41578674316406 229.83596801757812 C241.2384033203125 231.6026153564453 241.07684326171875 233.16737365722656 239.74827575683594 234.49725341796875 C238.48609924316406 235.76068115234375 236.62120056152344 236.30638122558594 234.77552795410156 236.220458984375 C232.9298553466797 236.134521484375 231.1033935546875 235.41696166992188 229.9180908203125 234.15382385253906 C228.40597534179688 232.54241943359375 228.29579162597656 230.17979431152344 228.1771240234375 228.11880493164062 L228.1771240234375 221.5654296875 L228.1771240234375 215.0120849609375 L228.1771240234375 208.45870971679688 L228.1771240234375 201.90533447265625 L228.1771240234375 195.3519744873047 L228.1771240234375 188.79859924316406 C228.28179931640625 187.07565307617188 228.55203247070312 185.37254333496094 229.27975463867188 183.99192810058594 C230.00746154785156 182.61131286621094 231.192626953125 181.55319213867188 233.12713623046875 181.12022399902344 C233.8336181640625 180.96209716796875 234.56761169433594 180.97364807128906 235.28785705566406 180.90036010742188 L235.28785705566406 180.90036010742188"></path>
<path fill="none" stroke="black" stroke-width=".3" stroke-opacity="1.0"  filling="0" d="M374.6899108886719 182.625732421875 L374.6899108886719 182.625732421875 C376.0849609375 182.73016357421875 376.6998291015625 182.67083740234375 378.0025329589844 183.15652465820312 C379.72222900390625 183.79769897460938 380.7466125488281 184.96432495117188 381.36572265625 186.37771606445312 C381.98486328125 187.7910919189453 382.19873046875 189.45120239257812 382.29742431640625 191.07933044433594 L382.279296875 198.46302795410156 L382.2611389160156 205.84674072265625 L382.24298095703125 213.23043823242188 L382.224853515625 220.6141357421875 L382.2066650390625 227.99783325195312 C382.119873046875 229.9082489013672 381.57208251953125 231.8334197998047 380.5529479980469 233.41427612304688 C379.5338134765625 234.9951171875 378.0433349609375 236.2316436767578 376.0712585449219 236.7647705078125 C375.0903015136719 237.0299530029297 374.0559387207031 237.0271759033203 373.04827880859375 237.15838623046875 L366.32562255859375 237.1483154296875 L359.6029968261719 237.1382293701172 L352.88037109375 237.12814331054688 L346.15771484375 237.11807250976562 L339.43505859375 237.1079864501953 L332.7124328613281 237.09791564941406 C330.9085388183594 236.78536987304688 329.28302001953125 236.5041961669922 327.8589172363281 235.24679565429688 C326.36492919921875 233.92767333984375 325.6304016113281 231.730224609375 325.63665771484375 229.53170776367188 C325.64288330078125 227.33316040039062 326.389892578125 225.133544921875 327.8589172363281 223.8100128173828 C329.6313171386719 222.21316528320312 331.9263610839844 222.0310821533203 334.1855773925781 221.89389038085938 L340.9499816894531 221.89389038085938 L347.7143859863281 221.89389038085938 L354.4787902832031 221.89389038085938 L349.4801330566406 216.8957061767578 L344.4814453125 211.8975067138672 L339.4827880859375 206.89932250976562 L334.4841003417969 201.901123046875 L329.4854431152344 196.90292358398438 C327.986328125 195.2078399658203 326.4869384765625 193.45196533203125 326.3642272949219 191.06919860839844 C326.26177978515625 189.07992553710938 327.2893981933594 187.0064239501953 328.8399658203125 185.4563751220703 C330.39056396484375 183.9063262939453 332.4640808105469 182.87973022460938 334.45343017578125 182.9842987060547 C336.8356018066406 183.10951232910156 338.5877990722656 184.60569763183594 340.2810974121094 186.10699462890625 L344.77783203125 190.60360717773438 L349.2746276855469 195.10023498535156 L353.7713623046875 199.5968475341797 L358.26812744140625 204.09347534179688 L362.764892578125 208.590087890625 L367.26165771484375 213.08670043945312 L367.18389892578125 205.75091552734375 L367.10614013671875 198.41513061523438 L367.02838134765625 191.07933044433594 C367.1275634765625 189.44796752929688 367.3426208496094 187.78604125976562 367.9642028808594 186.37257385253906 C368.5858154296875 184.9591064453125 369.6139221191406 183.79408264160156 371.3392028808594 183.15652465820312 C372.654541015625 182.6704559326172 373.281982421875 182.7298126220703 374.6899108886719 182.625732421875 L374.6899108886719 182.625732421875"></path>
<path fill="none" stroke="black" stroke-width=".3" stroke-opacity="1.0"  filling="0" d="M374.6899108886719 182.625732421875 L374.6899108886719 182.625732421875 C376.0849609375 182.73016357421875 376.6998291015625 182.67083740234375 378.0025329589844 183.15652465820312 C379.72222900390625 183.79769897460938 380.7466125488281 184.96432495117188 381.36572265625 186.37771606445312 C381.98486328125 187.7910919189453 382.19873046875 189.45120239257812 382.29742431640625 191.07933044433594 L382.279296875 198.46302795410156 L382.2611389160156 205.84674072265625 L382.24298095703125 213.23043823242188 L382.224853515625 220.6141357421875 L382.2066650390625 227.99783325195312 C382.119873046875 229.9082489013672 381.57208251953125 231.8334197998047 380.5529479980469 233.41427612304688 C379.5338134765625 234.9951171875 378.0433349609375 236.2316436767578 376.0712585449219 236.7647705078125 C375.0903015136719 237.0299530029297 374.0559387207031 237.0271759033203 373.04827880859375 237.15838623046875 L366.32562255859375 237.1483154296875 L359.6029968261719 237.1382293701172 L352.88037109375 237.12814331054688 L346.15771484375 237.11807250976562 L339.43505859375 237.1079864501953 L332.7124328613281 237.09791564941406 C330.9085388183594 236.78536987304688 329.28302001953125 236.5041961669922 327.8589172363281 235.24679565429688 C326.36492919921875 233.92767333984375 325.6304016113281 231.730224609375 325.63665771484375 229.53170776367188 C325.64288330078125 227.33316040039062 326.389892578125 225.133544921875 327.8589172363281 223.8100128173828 C329.6313171386719 222.21316528320312 331.9263610839844 222.0310821533203 334.1855773925781 221.89389038085938 L340.9499816894531 221.89389038085938 L347.7143859863281 221.89389038085938 L354.4787902832031 221.89389038085938 L349.4801330566406 216.8957061767578 L344.4814453125 211.8975067138672 L339.4827880859375 206.89932250976562 L334.4841003417969 201.901123046875 L329.4854431152344 196.90292358398438 C327.986328125 195.2078399658203 326.4869384765625 193.45196533203125 326.3642272949219 191.06919860839844 C326.26177978515625 189.07992553710938 327.2893981933594 187.0064239501953 328.8399658203125 185.4563751220703 C330.39056396484375 183.9063262939453 332.4640808105469 182.87973022460938 334.45343017578125 182.9842987060547 C336.8356018066406 183.10951232910156 338.5877990722656 184.60569763183594 340.2810974121094 186.10699462890625 L344.77783203125 190.60360717773438 L349.2746276855469 195.10023498535156 L353.7713623046875 199.5968475341797 L358.26812744140625 204.09347534179688 L362.764892578125 208.590087890625 L367.26165771484375 213.08670043945312 L367.18389892578125 205.75091552734375 L367.10614013671875 198.41513061523438 L367.02838134765625 191.07933044433594 C367.1275634765625 189.44796752929688 367.3426208496094 187.78604125976562 367.9642028808594 186.37257385253906 C368.5858154296875 184.9591064453125 369.6139221191406 183.79408264160156 371.3392028808594 183.15652465820312 C372.654541015625 182.6704559326172 373.281982421875 182.7298126220703 374.6899108886719 182.625732421875 L374.6899108886719 182.625732421875"></path>
<path fill="none" stroke="black" stroke-width=".3" stroke-opacity="1.0"  filling="0" d="M189.47012329101562 188.798583984375 L189.47012329101562 193.73492431640625 L189.47012329101562 198.67127990722656 L192.16763305664062 201.5948486328125 L194.86514282226562 204.51840209960938 L198.38162231445312 198.21533203125 L201.8981170654297 191.9122314453125 L205.4145965576172 185.609130859375 C206.3387451171875 184.19912719726562 207.20315551757812 182.91696166992188 208.68482971191406 182.0282745361328 C210.65675354003906 180.84555053710938 213.14205932617188 180.58596801757812 215.2817840576172 181.2289276123047 C217.4215087890625 181.87188720703125 219.21563720703125 183.41741943359375 219.80519104003906 185.8448944091797 C220.17236328125 187.35670471191406 219.98959350585938 188.71165466308594 219.5296173095703 190.0 C219.0696563720703 191.28836059570312 218.33251953125 192.51011657714844 217.5909423828125 193.75555419921875 L214.44873046875 199.15744018554688 L211.3065185546875 204.559326171875 L208.16432189941406 209.9612274169922 L205.02210998535156 215.3631134033203 L208.80038452148438 219.38525390625 L212.5786590576172 223.40737915039062 C213.34527587890625 224.3033447265625 214.34336853027344 225.33543395996094 215.15362548828125 226.46778869628906 C215.96389770507812 227.6001434326172 216.58633422851562 228.83274841308594 216.60166931152344 230.12973022460938 C216.62542724609375 232.1405029296875 215.5043487548828 233.80154418945312 213.92440795898438 234.84835815429688 C212.34446716308594 235.89520263671875 210.3056640625 236.32781982421875 208.4939727783203 235.88182067871094 C206.40110778808594 235.36659240722656 205.03115844726562 233.6536865234375 203.64857482910156 232.14068603515625 L198.92242431640625 226.80946350097656 L194.19627380371094 221.4782257080078 L189.47012329101562 216.14698791503906 L189.47012329101562 222.33905029296875 L189.47012329101562 228.5311279296875 L189.47012329101562 234.72320556640625 L189.47012329101562 240.91526794433594 L189.47012329101562 247.10733032226562 C189.34571838378906 249.15745544433594 189.20480346679688 251.46316528320312 187.6796875 253.045166015625 C186.38140869140625 254.3918914794922 184.43296813964844 255.0970916748047 182.4847869873047 255.1192169189453 C180.53660583496094 255.14134216308594 178.58868408203125 254.48040771484375 177.29139709472656 253.0948486328125 C175.8035125732422 251.50570678710938 175.71583557128906 249.13291931152344 175.60226440429688 247.10733032226562 L175.60226440429688 239.81874084472656 L175.60226440429688 232.5301513671875 L175.60226440429688 225.24154663085938 L175.60226440429688 217.95297241210938 L175.60226440429688 210.66436767578125 L175.60226440429688 203.37579345703125 L175.60226440429688 196.08718872070312 L175.60226440429688 188.79859924316406 C175.7165069580078 186.78562927246094 175.8122100830078 184.43751525878906 177.29139709472656 182.86032104492188 C178.59002685546875 181.47564697265625 180.53765869140625 180.81605529785156 182.4853515625 180.8389434814453 C184.43304443359375 180.86184692382812 186.3808135986328 181.56724548339844 187.6796875 182.91258239746094 C189.1957244873047 184.4828643798828 189.3448944091797 186.76072692871094 189.47012329101562 188.79859924316406 L189.47012329101562 188.79859924316406"></path>
<path fill="none" stroke="black" stroke-width=".3" stroke-opacity="1.0"  filling="0" d="M140.02210998535156 190.8445281982422 L140.02210998535156 190.8445281982422 C141.75650024414062 190.9542999267578 142.37698364257812 190.89523315429688 144.03656005859375 191.37440490722656 C145.86122131347656 191.9012451171875 147.32379150390625 192.78073120117188 148.47508239746094 193.91494750976562 C149.62635803222656 195.04916381835938 150.46633911132812 196.4381103515625 151.04579162597656 197.98387145996094 C151.625244140625 199.52963256835938 151.94415283203125 201.23220825195312 152.05332946777344 202.99368286132812 L152.05332946777344 208.05197143554688 C150.33030700683594 207.29153442382812 148.59454345703125 206.69422912597656 146.83006286621094 206.1893310546875 C145.06558227539062 205.6844482421875 143.2724151611328 205.27197265625 141.43458557128906 204.8812255859375 C140.14785766601562 204.60765075683594 138.77122497558594 204.3194580078125 137.48216247558594 203.84825134277344 C136.19308471679688 203.3770294189453 134.9915771484375 202.72279357910156 134.05511474609375 201.7171173095703 C132.9342041015625 200.51336669921875 132.4283905029297 198.75393676757812 132.51414489746094 197.0276641845703 C132.5998992919922 195.30137634277344 133.27720642089844 193.60824584960938 134.5225372314453 192.537109375 C136.13490295410156 191.15028381347656 138.00794982910156 191.0179901123047 140.02210998535156 190.8445281982422 L140.02210998535156 190.8445281982422"></path>
<path fill="none" stroke="black" stroke-width=".3" stroke-opacity="1.0"  filling="0" d="M140.02210998535156 190.84475708007812 L140.02210998535156 190.84475708007812 C141.75625610351562 190.95449829101562 142.37709045410156 190.8955078125 144.03648376464844 191.3745574951172 C145.86122131347656 191.90135192871094 147.3238067626953 192.7808074951172 148.47506713867188 193.91502380371094 C149.62632751464844 195.0492401123047 150.46624755859375 196.43820190429688 151.045654296875 197.98399353027344 C151.62506103515625 199.52978515625 151.94393920898438 201.23239135742188 152.0531005859375 202.993896484375 L152.0531005859375 208.05218505859375 C150.73797607421875 207.47164916992188 149.41807556152344 206.9755096435547 148.07705688476562 206.54327392578125 C146.7360382080078 206.11105346679688 145.3739013671875 205.74273681640625 143.97427368164062 205.41786193847656 L139.28555297851562 204.41387939453125 C137.43373107910156 203.77093505859375 135.4442596435547 203.20921325683594 134.05511474609375 201.7173309326172 C132.93423461914062 200.5135498046875 132.4284210205078 198.75413513183594 132.51416015625 197.0278778076172 C132.59991455078125 195.30162048339844 133.27720642089844 193.6085205078125 134.5225372314453 192.53733825683594 C136.1349639892578 191.15040588378906 138.0078125 191.0181884765625 140.02210998535156 190.84475708007812 L140.02210998535156 190.84475708007812"></path>
<path fill="none" stroke="black" stroke-width=".3" stroke-opacity="1.0"  filling="0" d="M140.02210998535156 190.84475708007812 L140.02210998535156 190.84475708007812 C141.75625610351562 190.95449829101562 142.37709045410156 190.8955078125 144.03648376464844 191.3745574951172 C145.86122131347656 191.90135192871094 147.3238067626953 192.7808074951172 148.47506713867188 193.91502380371094 C149.62632751464844 195.0492401123047 150.46624755859375 196.43820190429688 151.045654296875 197.98399353027344 C151.62506103515625 199.52978515625 151.94393920898438 201.23239135742188 152.0531005859375 202.993896484375 L152.0531005859375 208.05218505859375 C150.73797607421875 207.47164916992188 149.41807556152344 206.9755096435547 148.07705688476562 206.54327392578125 C146.7360382080078 206.11105346679688 145.3739013671875 205.74273681640625 143.97427368164062 205.41786193847656 L139.28555297851562 204.41387939453125 C137.43373107910156 203.77093505859375 135.4442596435547 203.20921325683594 134.05511474609375 201.7173309326172 C132.93423461914062 200.5135498046875 132.4284210205078 198.75413513183594 132.51416015625 197.0278778076172 C132.59991455078125 195.30162048339844 133.27720642089844 193.6085205078125 134.5225372314453 192.53733825683594 C136.1349639892578 191.15040588378906 138.0078125 191.0181884765625 140.02210998535156 190.84475708007812 L140.02210998535156 190.84475708007812"></path>
<path fill="none" stroke="black" stroke-width=".3" stroke-opacity="1.0"  filling="0" d="M382.2973937988281 191.07911682128906 L382.27923583984375 198.46286010742188 L382.2611083984375 205.84661865234375 L382.2429504394531 213.2303466796875 L382.22479248046875 220.6140899658203 L382.2066345214844 227.99783325195312 C382.1198425292969 229.9082489013672 381.572021484375 231.8334197998047 380.55291748046875 233.41427612304688 C379.5337829589844 234.9951171875 378.0433349609375 236.2316436767578 376.07122802734375 236.7647705078125 C375.09027099609375 237.0299530029297 374.055908203125 237.0271759033203 373.0482482910156 237.15838623046875 L366.3255920410156 237.1483154296875 L359.60296630859375 237.1382293701172 L352.88031005859375 237.12814331054688 L346.1576843261719 237.11807250976562 L339.4350280761719 237.1079864501953 L332.71240234375 237.09791564941406 C330.90850830078125 236.78536987304688 329.2830505371094 236.50424194335938 327.8589172363281 235.24679565429688 C326.3651123046875 233.9278564453125 325.6304626464844 231.73028564453125 325.6365661621094 229.53163146972656 C325.6426696777344 227.33297729492188 326.38958740234375 225.13327026367188 327.8589172363281 223.81002807617188 C329.6321105957031 222.21316528320312 331.9278564453125 222.0308837890625 334.1877136230469 221.8936767578125 L340.951416015625 221.8936767578125 L347.715087890625 221.8936767578125 L354.4787902832031 221.8936767578125 L349.4801330566406 216.89547729492188 L344.4814453125 211.8972930908203 L339.4827880859375 206.8990936279297 L334.4841003417969 201.90089416503906 L329.4854431152344 196.90269470214844 C327.9862060546875 195.20761108398438 326.4869384765625 193.4517822265625 326.3642272949219 191.0689697265625 C326.26177978515625 189.07972717285156 327.2894287109375 187.00628662109375 328.84002685546875 185.45628356933594 C330.390625 183.90628051757812 332.4641418457031 182.87974548339844 334.45343017578125 182.98431396484375 C336.835693359375 183.1095428466797 338.5877990722656 184.6055908203125 340.2810974121094 186.1070098876953 L344.77783203125 190.60362243652344 L349.2746276855469 195.10025024414062 L353.7713623046875 199.59686279296875 L358.26812744140625 204.09349060058594 L362.764892578125 208.59010314941406 L367.26165771484375 213.0867156982422 L367.18389892578125 205.7508544921875 L367.10614013671875 198.41497802734375 L367.02838134765625 191.0791015625 C367.1655578613281 188.822509765625 367.346923828125 186.51864624023438 368.9443054199219 184.74859619140625 C370.2767639160156 183.27210998535156 372.47088623046875 182.53269958496094 374.66473388671875 182.5321044921875 C376.8586120605469 182.53152465820312 379.0522155761719 183.269775390625 380.3836669921875 184.74859619140625 C381.9794006347656 186.52096557617188 382.1605529785156 188.8210906982422 382.29742431640625 191.0791015625 L382.29742431640625 191.0791015625"></path>
<path fill="none" stroke="black" stroke-width=".3" stroke-opacity="1.0"  filling="0" d="M288.34173583984375 191.9541473388672 L288.34173583984375 191.9541473388672 C290.19573974609375 192.07057189941406 291.89984130859375 192.22999572753906 293.6097106933594 193.03111267089844 C295.76702880859375 194.04185485839844 297.32244873046875 195.64295959472656 298.42279052734375 197.56204223632812 C299.52313232421875 199.48110961914062 300.1684265136719 201.71817016601562 300.5054016113281 204.00082397460938 C300.8423767089844 206.28346252441406 300.87109375 208.61170959472656 300.73828125 210.71316528320312 C300.5838928222656 213.15599060058594 300.063232421875 215.55905151367188 299.1348876953125 217.6774444580078 C298.20654296875 219.79583740234375 296.8705139160156 221.62954711914062 295.08544921875 222.93365478515625 C293.3003845214844 224.23776245117188 291.0662841796875 225.0122833251953 288.34173583984375 225.0122833251953 C287.08935546875 225.0122833251953 285.8349609375 224.8737030029297 284.6263732910156 224.53530883789062 C282.0408935546875 223.8114013671875 280.1557312011719 222.31158447265625 278.8072509765625 220.37896728515625 C277.45880126953125 218.44635009765625 276.64703369140625 216.08091735839844 276.2083435058594 213.62576293945312 C275.7696533203125 211.17059326171875 275.7041015625 208.62570190429688 275.8479919433594 206.33416748046875 C275.97607421875 204.294921875 276.3063659667969 202.18218994140625 276.9847106933594 200.21234130859375 C277.66302490234375 198.2425079345703 278.68939208984375 196.41554260253906 280.20953369140625 194.9478302001953 C281.3515625 193.8451690673828 282.61993408203125 193.14401245117188 283.9851379394531 192.69488525390625 C285.350341796875 192.24575805664062 286.8123779296875 192.04867553710938 288.34173583984375 191.9541473388672 L288.34173583984375 191.9541473388672"></path>
<path fill="none" stroke="black" stroke-width=".3" stroke-opacity="1.0"  filling="0" d="M288.34173583984375 191.9541473388672 L288.34173583984375 191.9541473388672 C290.19573974609375 192.07057189941406 291.89984130859375 192.22999572753906 293.6097106933594 193.03111267089844 C295.76702880859375 194.04185485839844 297.32244873046875 195.64295959472656 298.42279052734375 197.56204223632812 C299.52313232421875 199.48110961914062 300.1684265136719 201.71817016601562 300.5054016113281 204.00082397460938 C300.8423767089844 206.28346252441406 300.87109375 208.61170959472656 300.73828125 210.71316528320312 C300.5838928222656 213.15599060058594 300.063232421875 215.55905151367188 299.1348876953125 217.6774444580078 C298.20654296875 219.79583740234375 296.8705139160156 221.62954711914062 295.08544921875 222.93365478515625 C293.3003845214844 224.23776245117188 291.0662841796875 225.0122833251953 288.34173583984375 225.0122833251953 C287.08935546875 225.0122833251953 285.8349609375 224.8737030029297 284.6263732910156 224.53530883789062 C282.0408935546875 223.8114013671875 280.1557312011719 222.31158447265625 278.8072509765625 220.37896728515625 C277.45880126953125 218.44635009765625 276.64703369140625 216.08091735839844 276.2083435058594 213.62576293945312 C275.7696533203125 211.17059326171875 275.7041015625 208.62570190429688 275.8479919433594 206.33416748046875 C275.97607421875 204.294921875 276.3063659667969 202.18218994140625 276.9847106933594 200.21234130859375 C277.66302490234375 198.2425079345703 278.68939208984375 196.41554260253906 280.20953369140625 194.9478302001953 C281.3515625 193.8451690673828 282.61993408203125 193.14401245117188 283.9851379394531 192.69488525390625 C285.350341796875 192.24575805664062 286.8123779296875 192.04867553710938 288.34173583984375 191.9541473388672 L288.34173583984375 191.9541473388672"></path>
<path fill="none" stroke="black" stroke-width=".3" stroke-opacity="1.0"  filling="0" d="M288.34173583984375 191.9541473388672 L288.34173583984375 191.9541473388672 C290.19573974609375 192.07057189941406 291.89984130859375 192.22999572753906 293.6097106933594 193.03111267089844 C295.7669982910156 194.04185485839844 297.3224182128906 195.6429443359375 298.42279052734375 197.56199645996094 C299.52313232421875 199.48104858398438 300.16839599609375 201.71807861328125 300.5054016113281 204.0006866455078 C300.8423767089844 206.28330993652344 300.87109375 208.6115264892578 300.73828125 210.7129669189453 C300.5838928222656 213.1558074951172 300.063232421875 215.55889892578125 299.1349182128906 217.67730712890625 C298.2065734863281 219.79571533203125 296.87054443359375 221.6294708251953 295.0854797363281 222.93360900878906 C293.3004150390625 224.2377471923828 291.0662841796875 225.0122833251953 288.34173583984375 225.0122833251953 C287.08935546875 225.0122833251953 285.8349609375 224.8737030029297 284.6263732910156 224.53530883789062 C282.0408935546875 223.81138610839844 280.1557312011719 222.3115692138672 278.8072509765625 220.37893676757812 C277.4587707519531 218.4462890625 276.6470031738281 216.08084106445312 276.20831298828125 213.62567138671875 C275.7696533203125 211.1704864501953 275.7040710449219 208.62557983398438 275.8479919433594 206.3340301513672 C275.97607421875 204.2947998046875 276.306396484375 202.18209838867188 276.9847412109375 200.2122802734375 C277.6630859375 198.24246215820312 278.6894226074219 196.41552734375 280.20953369140625 194.9478302001953 C281.3515625 193.8451690673828 282.61993408203125 193.14401245117188 283.9851379394531 192.69488525390625 C285.350341796875 192.24575805664062 286.8123779296875 192.04867553710938 288.34173583984375 191.9541473388672 L288.34173583984375 191.9541473388672"></path>
<path fill="none" stroke="black" stroke-width=".3" stroke-opacity="1.0"  filling="0" d="M165.71937561035156 221.9940643310547 L165.71937561035156 221.9940643310547 C165.60031127929688 223.97067260742188 165.42893981933594 225.79393005371094 164.62403869628906 227.6340789794922 C163.6713409423828 229.81210327148438 162.19271850585938 231.51658630371094 160.38279724121094 232.8407440185547 C158.5728759765625 234.16490173339844 156.431640625 235.10874938964844 154.15370178222656 235.76551818847656 C151.8757781982422 236.42230224609375 149.46116638183594 236.79200744628906 147.10447692871094 236.96788024902344 C144.74777221679688 237.14376831054688 142.44900512695312 237.12582397460938 140.4027862548828 237.00729370117188 C138.35462951660156 236.88865661621094 136.3129425048828 236.5943145751953 134.32794189453125 236.06996154785156 C132.4363250732422 235.57028198242188 130.35597229003906 234.77825927734375 128.4237823486328 233.69532775878906 C126.49159240722656 232.61239624023438 124.70755004882812 231.238525390625 123.4085464477539 229.57516479492188 C122.10954284667969 227.91180419921875 121.29557800292969 225.95892333984375 121.30352783203125 223.71795654296875 C121.31175231933594 221.3994140625 122.5309829711914 219.59970092773438 124.23898315429688 218.664306640625 C125.94697570800781 217.7289276123047 128.14373779296875 217.65789794921875 130.10704040527344 218.7967071533203 C132.0841522216797 219.94354248046875 133.29446411132812 221.8000946044922 135.00762939453125 223.22096252441406 C136.46005249023438 224.42556762695312 138.11917114257812 225.1563720703125 139.8723602294922 225.5465545654297 C141.62554931640625 225.9367218017578 143.47280883789062 225.9862823486328 145.301513671875 225.8284149169922 C147.32403564453125 225.65380859375 149.73724365234375 225.2154541015625 150.96107482910156 223.38157653808594 C151.68661499023438 222.29437255859375 152.0489044189453 220.69683837890625 151.88427734375 219.22970581054688 C151.71963500976562 217.76255798339844 151.02809143066406 216.42579650878906 149.64596557617188 215.86012268066406 C147.67709350585938 215.05430603027344 145.1084442138672 215.02049255371094 143.0376739501953 214.75572204589844 C141.00479125976562 214.4958038330078 138.76377868652344 214.2342071533203 136.49290466308594 213.84915161132812 C134.22203063964844 213.46409606933594 131.9213104248047 212.95558166503906 129.7689971923828 212.20184326171875 C127.61668395996094 211.44808959960938 125.61277770996094 210.44912719726562 123.9355697631836 209.0831298828125 C122.25836181640625 207.71713256835938 120.9078369140625 205.984130859375 120.06229400634766 203.76234436035156 C119.42332458496094 202.08335876464844 119.09768676757812 200.29690551757812 118.9644546508789 198.51043701171875 C118.7984390258789 196.28433227539062 118.87505340576172 193.9674530029297 119.33599853515625 191.74925231933594 C119.79693603515625 189.5310516357422 120.64219665527344 187.41152954101562 122.01347351074219 185.5801239013672 C123.39151000976562 183.7397003173828 125.18563842773438 182.372314453125 127.21434783935547 181.428466796875 C129.24305725097656 180.484619140625 131.50634765625 179.96432495117188 133.8226776123047 179.8180389404297 C136.13900756835938 179.6717529296875 138.50840759277344 179.89950561523438 140.7493438720703 180.4517822265625 C142.9902801513672 181.00405883789062 145.10275268554688 181.880859375 146.9052276611328 183.0326690673828 C148.02110290527344 183.7457275390625 148.98580932617188 184.5661163330078 149.86326599121094 185.47384643554688 C150.74072265625 186.381591796875 151.53094482421875 187.37667846679688 152.29782104492188 188.43914794921875 L152.29782104492188 188.43914794921875 C152.45140075683594 186.1610565185547 152.60275268554688 183.7412872314453 154.2333984375 181.95570373535156 C155.53041076660156 180.53546142578125 157.81768798828125 179.76304626464844 160.04440307617188 179.7913818359375 C162.27113342285156 179.81973266601562 164.4373016357422 180.6488494873047 165.49209594726562 182.43167114257812 C166.25999450683594 183.72958374023438 166.34130859375 185.34130859375 166.21841430664062 186.97830200195312 C166.09552001953125 188.61529541015625 165.76840209960938 190.27757263183594 165.71942138671875 191.67657470703125 L165.7194366455078 197.74008178710938 L165.71942138671875 203.8035888671875 L165.71942138671875 209.86709594726562 L165.7194366455078 215.93060302734375 L165.71942138671875 221.99411010742188"></path>
<path fill="none" stroke="black" stroke-width=".3" stroke-opacity="1.0"  filling="0" d="M241.4157257080078 225.12612915039062 L241.4157257080078 229.83599853515625 C241.2387237548828 231.60348510742188 241.07791137695312 233.16722106933594 239.74822998046875 234.49728393554688 C238.48648071289062 235.7593994140625 236.621337890625 236.3046875 234.77545166015625 236.2188720703125 C232.92955017089844 236.133056640625 231.10289001464844 235.41612243652344 229.91807556152344 234.15382385253906 C228.40582275390625 232.54266357421875 228.29574584960938 230.1795654296875 228.17709350585938 228.11880493164062 L228.17709350585938 221.5654296875 L228.17710876464844 215.0120849609375 L228.17709350585938 208.45870971679688 L228.17710876464844 201.90533447265625 L228.17709350585938 195.3519744873047 L228.17709350585938 188.79859924316406 C228.3009033203125 186.7603759765625 228.4378204345703 184.44949340820312 229.96774291992188 182.8838653564453 C231.30615234375 181.51422119140625 233.30831909179688 180.83030700683594 235.31076049804688 180.83078002929688 C237.31320190429688 180.83123779296875 239.31591796875 181.51605224609375 240.65542602539062 182.8838653564453 C242.18548583984375 184.44625854492188 242.32211303710938 186.7635955810547 242.44607543945312 188.79859924316406 L242.44607543945312 195.87008666992188 L242.44607543945312 202.94155883789062 L242.44607543945312 210.01303100585938 C242.53515625 212.03713989257812 242.7855987548828 214.08648681640625 243.48593139648438 215.910888671875 C244.186279296875 217.73532104492188 245.33648681640625 219.33480834960938 247.22508239746094 220.4592742919922 C248.74327087402344 221.36318969726562 250.6480712890625 221.6462860107422 252.560546875 221.8772430419922 C254.4730224609375 222.1082000732422 256.3931579589844 222.28701782226562 257.9420471191406 222.982421875 C259.490966796875 223.67782592773438 260.6685791015625 224.88980102539062 261.0960693359375 227.18704223632812 C261.3148498535156 228.36270141601562 261.27581787109375 229.78506469726562 261.0143127441406 230.9328155517578 C260.46136474609375 233.35977172851562 258.7864685058594 234.92771911621094 256.72906494140625 235.6678009033203 C254.67166137695312 236.4078826904297 252.2317657470703 236.32009887695312 250.1488800048828 235.43553161621094 C247.95758056640625 234.50494384765625 246.24319458007812 232.95574951171875 244.84217834472656 231.1251220703125 C243.441162109375 229.29449462890625 242.353515625 227.18243408203125 241.4157257080078 225.12611389160156 L241.4157257080078 225.12611389160156"></path>
<path fill="none" stroke="black" stroke-width=".3" stroke-opacity="1.0"  filling="0" d="M79.69741821289062 229.26144409179688 L79.69741821289062 229.26144409179688 C78.30345153808594 231.19830322265625 76.85005187988281 232.97959899902344 74.85722351074219 234.33851623535156 C72.7723388671875 235.7602081298828 70.5423583984375 236.61610412597656 68.27835845947266 236.98617553710938 C66.01435852050781 237.3562469482422 63.71634292602539 237.24049377441406 61.495391845703125 236.7188720703125 C59.274444580078125 236.197265625 57.13056182861328 235.26979064941406 55.174827575683594 234.01641845703125 C53.219093322753906 232.7630615234375 51.451507568359375 231.18380737304688 49.983158111572266 229.358642578125 L49.983158111572266 229.358642578125 C49.6356086730957 231.2400360107422 49.34477615356445 233.0318603515625 47.9235954284668 234.45193481445312 C46.64678192138672 235.72775268554688 44.80470275878906 236.28848266601562 42.98659896850586 236.2039794921875 C41.168495178222656 236.11949157714844 39.37436294555664 235.38978576660156 38.193443298339844 234.08474731445312 C36.725677490234375 232.4627227783203 36.576168060302734 230.19143676757812 36.45356750488281 228.1361083984375 L36.45356750488281 221.58140563964844 L36.45356750488281 215.02671813964844 L36.45356750488281 208.47201538085938 L36.45356750488281 201.9173126220703 L36.45356750488281 195.36260986328125 L36.45356750488281 188.8079071044922 C36.57521438598633 186.7736358642578 36.70353698730469 184.46128845214844 38.217857360839844 182.88885498046875 C39.537513732910156 181.5185546875 41.51197052001953 180.83444213867188 43.4866943359375 180.8349609375 C45.461421966552734 180.83546447753906 47.43641662597656 181.52061462402344 48.75714111328125 182.88885498046875 C50.27260208129883 184.45883178710938 50.400611877441406 186.77545166015625 50.52229690551758 188.8079071044922 L50.52229690551758 195.23028564453125 L50.52229690551758 201.6526641845703 L50.52229690551758 208.07504272460938 L50.52229690551758 214.49742126464844 C50.63489532470703 216.15260314941406 50.84690856933594 217.78814697265625 51.39365768432617 219.2664031982422 C51.940406799316406 220.74465942382812 52.82188415527344 222.06565856933594 54.273414611816406 223.0917510986328 C56.01142120361328 224.3203582763672 58.40608596801758 224.8607635498047 60.65611267089844 224.60400390625 C62.90613555908203 224.3472442626953 65.01152038574219 223.2933349609375 66.17095947265625 221.3332977294922 C67.06902313232422 219.81512451171875 67.18569946289062 218.22215270996094 67.30355834960938 216.5098876953125 L67.30355834960938 209.58438110351562 L67.30355834960938 202.6588897705078 L67.30355834960938 195.7333984375 L67.30355834960938 188.80789184570312 C67.42023468017578 186.78399658203125 67.52297973632812 184.4392852783203 69.02484893798828 182.8653106689453 C70.33251953125 181.49485778808594 72.2977523803711 180.8238525390625 74.26295471191406 180.8339080810547 C76.22815704345703 180.84396362304688 78.19332122802734 181.53506469726562 79.5008544921875 182.88882446289062 C81.01863861083984 184.46026611328125 81.1487808227539 186.77230834960938 81.2709732055664 188.80787658691406 L81.2709732055664 195.25413513183594 L81.2709732055664 201.70037841796875 L81.2709732055664 208.14662170410156 L81.2709732055664 214.59288024902344 C81.38530731201172 216.25540161132812 81.60234069824219 217.89141845703125 82.15575408935547 219.3682098388672 C82.70916748046875 220.84500122070312 83.59894561767578 222.1625518798828 85.05876922607422 223.18812561035156 C86.82688903808594 224.4302978515625 89.23434448242188 224.96119689941406 91.4986572265625 224.69227600097656 C93.76297760009766 224.42337036132812 95.8841552734375 223.3546142578125 97.0797348022461 221.3974609375 C98.00043487548828 219.89028930664062 98.13037109375 218.3163299560547 98.25397491455078 216.60340881347656 L98.25397491455078 209.65452575683594 L98.25397491455078 202.7056427001953 L98.25397491455078 195.7567596435547 L98.25397491455078 188.80787658691406 C98.38095092773438 186.75949096679688 98.53673553466797 184.4850311279297 100.0664291381836 182.91258239746094 C101.38744354248047 181.55465698242188 103.35238647460938 180.85513305664062 105.31886291503906 180.8389434814453 C107.28533172607422 180.82275390625 109.25332641601562 181.48989868164062 110.5804443359375 182.86529541015625 C112.09500122070312 184.4349365234375 112.2027587890625 186.78005981445312 112.32097625732422 188.80787658691406 L112.32097625732422 194.9466552734375 L112.32097625732422 201.08541870117188 L112.32097625732422 207.22418212890625 L112.32097625732422 213.36294555664062 L112.32097625732422 219.50169372558594 C112.23365020751953 221.552001953125 112.01982879638672 223.5631103515625 111.50444030761719 225.47784423828125 C110.98905181884766 227.39259338378906 110.1720962524414 229.21096801757812 108.87849426269531 230.87579345703125 C107.60335540771484 232.51686096191406 106.001953125 233.82485961914062 104.20484161376953 234.8068084716797 C102.4077377319336 235.78875732421875 100.41492462158203 236.44467163085938 98.35697174072266 236.78155517578125 C96.29902648925781 237.11843872070312 94.1759262084961 237.13629150390625 92.11824798583984 236.8421630859375 C90.0605697631836 236.54803466796875 88.06831359863281 235.94189453125 86.27202606201172 235.0308074951172 C84.91776275634766 234.34390258789062 83.7370834350586 233.49169921875 82.66348266601562 232.51614379882812 C81.58988952636719 231.54058837890625 80.62336730957031 230.4416961669922 79.69742584228516 229.2614288330078 L79.69742584228516 229.2614288330078"></path>
<path fill="none" stroke="black" stroke-width=".3" stroke-opacity="1.0"  filling="0" d="M288.3439025878906 237.06980895996094 L288.3439025878906 237.06980895996094 C286.0936279296875 237.00686645507812 283.8651123046875 236.80189514160156 281.7027893066406 236.3850555419922 C279.5404968261719 235.9682159423828 277.4444274902344 235.33949279785156 275.4591064453125 234.42904663085938 C273.4737548828125 233.51858520507812 271.59912109375 232.326416015625 269.87969970703125 230.7826385498047 C268.2630615234375 229.33114624023438 266.86761474609375 227.6364288330078 265.69354248046875 225.76568603515625 C264.5195007324219 223.8949432373047 263.5668640136719 221.8481903076172 262.83587646484375 219.69265747070312 C262.1048889160156 217.537109375 261.5955505371094 215.2727813720703 261.3080749511719 212.9668731689453 C261.0206298828125 210.6609649658203 260.9550476074219 208.31349182128906 261.111572265625 205.99168395996094 C261.2680969238281 203.66986083984375 261.6467590332031 201.3737030029297 262.24774169921875 199.17042541503906 C262.8487548828125 196.96713256835938 263.6720886230469 194.8567352294922 264.718017578125 192.9064178466797 C265.763916015625 190.95611572265625 267.03240966796875 189.16590881347656 268.52374267578125 187.60302734375 C270.25390625 185.78982543945312 272.2136535644531 184.34017944335938 274.33074951171875 183.21316528320312 C276.4478759765625 182.08615112304688 278.7223205566406 181.28179931640625 281.0819396972656 180.75918579101562 C283.4415283203125 180.23658752441406 285.8862609863281 179.9957275390625 288.3439025878906 179.9957275390625 C290.79986572265625 179.9957275390625 293.2409973144531 180.2383575439453 295.5965881347656 180.76272583007812 C297.9521484375 181.287109375 300.2221984863281 182.09324645996094 302.3360290527344 183.22024536132812 C304.4498596191406 184.34725952148438 306.407470703125 185.79513549804688 308.1381530761719 187.60302734375 C309.6348876953125 189.16651916503906 310.90777587890625 190.9571075439453 311.9571228027344 192.90760803222656 C313.0064697265625 194.8581085205078 313.832275390625 196.9685516357422 314.4349060058594 199.17173767089844 C315.03753662109375 201.37493896484375 315.4169921875 203.6708984375 315.5735778808594 205.9924774169922 C315.7301940917969 208.31405639648438 315.6639404296875 210.66123962402344 315.375244140625 212.9668731689453 C315.0865173339844 215.2725067138672 314.5752868652344 217.53660583496094 313.8419189453125 219.69198608398438 C313.1085510253906 221.84738159179688 312.1530456542969 223.89407348632812 310.9757080078125 225.764892578125 C309.79840087890625 227.63571166992188 308.3992919921875 229.3306884765625 306.7786865234375 230.78262329101562 C305.06011962890625 232.3223419189453 303.1883239746094 233.51312255859375 301.2065734863281 234.42352294921875 C299.224853515625 235.33392333984375 297.1332092285156 235.9639434814453 294.9750061035156 236.38214111328125 C292.8167724609375 236.80032348632812 290.59197998046875 237.00669860839844 288.3439025878906 237.06980895996094 L288.3439025878906 237.06980895996094"></path></svg>