<svg xmlns="http://www.w3.org/2000/svg" viewBox="0.0 0.0 24.0 24.0" height="200px" width="200px"><path fill="none" stroke="black" stroke-width=".3" stroke-opacity="1.0"  filling="0" d="M3.268399238586426 10.488086700439453 L3.268399238586426 10.488086700439453 C4.86955451965332 11.657184600830078 4.430638313293457 12.334131240844727 3.1000795364379883 13.558775901794434 L2.821504592895508 13.58475112915039 C1.6252069473266602 13.165977478027344 0.2582268714904785 12.255142211914062 1.8432493209838867 10.72125244140625 C2.1891603469848633 10.386500358581543 2.793349266052246 10.565808296203613 3.268399238586426 10.488086700439453 L3.268399238586426 10.488086700439453"></path>
<path fill="none" stroke="black" stroke-width=".3" stroke-opacity="1.0"  filling="0" d="M2.581798553466797 10.513999938964844 L2.581798553466797 10.513999938964844 C3.0386927127838135 10.5543212890625 3.4266631603240967 10.420443534851074 3.2295284271240234 10.863840103149414 L3.0546693801879883 11.174808502197266 C2.99010968208313 11.288286209106445 2.9624128341674805 11.524322509765625 2.834400177001953 11.498672485351562 L2.335616111755371 10.773139953613281 C2.3092103004455566 10.65695858001709 2.4718945026397705 10.560006141662598 2.581798553466797 10.513999938964844 L2.581798553466797 10.513999938964844"></path>
<path fill="none" stroke="black" stroke-width=".3" stroke-opacity="1.0"  filling="0" d="M3.7153549194335938 10.863840103149414 L3.7153549194335938 10.863840103149414 C4.0463714599609375 11.100200653076172 4.135190486907959 11.563913345336914 4.2920026779174805 11.939210891723633 L3.890336036682129 11.96512508392334 C3.7955288887023926 11.945479393005371 3.689039945602417 11.877066612243652 3.663527488708496 11.783666610717773 L3.663527488708496 11.427470207214355 C3.665686845779419 11.412333488464355 3.667846441268921 11.397195816040039 3.6700057983398438 11.382059097290039 L3.6700057983398438 11.382059097290039 C3.6700057983398438 11.336730003356934 3.6700057983398438 11.291400909423828 3.6700057983398438 11.246071815490723 L3.6700057983398438 10.935043334960938 C3.68512225151062 10.911309242248535 3.7002384662628174 10.887574195861816 3.7153549194335938 10.863840103149414 L3.7153549194335938 10.863840103149414"></path>
<path fill="none" stroke="black" stroke-width=".3" stroke-opacity="1.0"  filling="0" d="M1.8950166702270508 10.883275985717773 L1.8950166702270508 10.883275985717773 C1.901495337486267 10.941561698913574 1.9079738855361938 10.999848365783691 1.9144525527954102 11.058134078979492 L1.9144525527954102 11.822477340698242 C1.8863788843154907 11.863548278808594 1.8583053350448608 11.904619216918945 1.8302316665649414 11.945690155029297 L1.525742530822754 11.952107429504395 C1.4458608627319336 11.943490028381348 1.3659791946411133 11.934871673583984 1.286097526550293 11.926254272460938 L1.286097526550293 11.926254272460938 C1.4425246715545654 11.555315017700195 1.5261566638946533 11.044544219970703 1.8950166702270508 10.883275985717773 L1.8950166702270508 10.883275985717773"></path>
<path fill="none" stroke="black" stroke-width=".3" stroke-opacity="1.0"  filling="0" d="M2.082953453063965 10.915668487548828 L2.7760934829711914 11.926193237304688 C2.730743646621704 11.936990737915039 2.685394048690796 11.94778823852539 2.6400442123413086 11.958585739135742 L2.225480079650879 11.958585739135742 C2.15981125831604 11.958585739135742 2.1034414768218994 11.906885147094727 2.0505619049072266 11.867947578430176 L2.0505619049072266 10.922085762023926 C2.061359167098999 10.919946670532227 2.0721561908721924 10.917807579040527 2.082953453063965 10.915668487548828 L2.082953453063965 10.915668487548828"></path>
<path fill="none" stroke="black" stroke-width=".3" stroke-opacity="1.0"  filling="0" d="M3.3460798263549805 10.922085762023926 L3.3460798263549805 10.922085762023926 C3.356898069381714 10.956658363342285 3.367716073989868 10.991230010986328 3.3785343170166016 11.025802612304688 L3.3785343170166016 11.025802612304688 C3.3785343170166016 11.101385116577148 3.3785343170166016 11.17696762084961 3.3785343170166016 11.25255012512207 L3.3785343170166016 11.85492992401123 C3.343981981277466 11.891641616821289 3.309429883956909 11.928352355957031 3.2748775482177734 11.96506404876709 L2.925098419189453 11.96506404876709 C2.884068250656128 11.960744857788086 2.8430378437042236 11.956426620483398 2.8020076751708984 11.952107429504395 L2.8020076751708984 11.952107429504395 C2.8063266277313232 11.930512428283691 2.810645341873169 11.908917427062988 2.8149642944335938 11.887322425842285 L3.3460798263549805 10.922085762023926"></path>
<path fill="none" stroke="black" stroke-width=".3" stroke-opacity="1.0"  filling="0" d="M6.015163898468018 11.22657585144043 L6.526844501495361 11.22657585144043 C6.541981220245361 11.252490043640137 6.557117938995361 11.278403282165527 6.572254657745361 11.304317474365234 L6.948007583618164 12.256657600402832 C6.956645488739014 12.256657600402832 6.965283393859863 12.256657600402832 6.973921298980713 12.256657600402832 L7.395084857940674 11.233115196228027 L7.926261901855469 11.233115196228027 L7.913364887237549 11.893921852111816 C7.915504455566406 11.958666801452637 7.917644023895264 12.02341079711914 7.919783592224121 12.088155746459961 L7.913304328918457 12.81380844116211 L7.5179948806762695 12.82022762298584 C7.5179948806762695 12.738166809082031 7.5179948806762695 12.656105041503906 7.5179948806762695 12.574044227600098 L7.5179948806762695 11.971542358398438 C7.511536598205566 11.960784912109375 7.505078315734863 11.950028419494629 7.49862003326416 11.939270973205566 L7.213565349578857 12.574044227600098 C7.181172847747803 12.653904914855957 7.148780345916748 12.733766555786133 7.116387844085693 12.813627243041992 L7.116387844085693 12.813627243041992 C7.012731552124023 12.815827369689941 6.909075736999512 12.81802749633789 6.805419445037842 12.82022762298584 L6.436206340789795 11.939210891723633 C6.427568435668945 11.937071800231934 6.4189300537109375 11.934931755065918 6.410292148590088 11.932792663574219 L6.403813362121582 12.51579761505127 C6.40165376663208 12.604357719421387 6.399494647979736 12.692916870117188 6.397335052490234 12.781476974487305 L6.397335052490234 12.820348739624023 C6.265625476837158 12.816009521484375 6.13391637802124 12.81166934967041 6.002206802368164 12.807330131530762 L6.002206802368164 12.191811561584473 C6.004366397857666 12.183194160461426 6.00652551651001 12.174575805664062 6.008685111999512 12.165958404541016 L6.008685111999512 11.433887481689453 C6.010844707489014 11.36478328704834 6.013004302978516 11.295680046081543 6.015163898468018 11.22657585144043 L6.015163898468018 11.22657585144043"></path>
<path fill="none" stroke="black" stroke-width=".3" stroke-opacity="1.0"  filling="0" d="M8.619461059570312 11.233115196228027 L8.619461059570312 11.233115196228027 C8.774907112121582 11.233115196228027 8.930347442626953 11.233115196228027 9.085793495178223 11.233115196228027 L9.584576606750488 12.574104309082031 C9.614830017089844 12.65616512298584 9.645082473754883 12.738226890563965 9.675335884094238 12.820287704467773 L9.24775505065918 12.820287704467773 C9.215362548828125 12.740406036376953 9.18297004699707 12.66052532196045 9.150577545166016 12.580643653869629 L8.561033248901367 12.567625999450684 C8.524321556091309 12.651805877685547 8.487610816955566 12.735986709594727 8.450899124145508 12.82016658782959 L8.029796600341797 12.820287704467773 C8.040614128112793 12.785715103149414 8.051431655883789 12.751143455505371 8.062249183654785 12.716570854187012 L8.619461059570312 11.233115196228027"></path>
<path fill="none" stroke="black" stroke-width=".3" stroke-opacity="1.0"  filling="0" d="M9.876229286193848 11.233115196228027 L9.895546913146973 11.233115196228027 C9.979767799377441 11.233115196228027 10.063987731933594 11.233115196228027 10.148208618164062 11.233115196228027 L10.355520248413086 11.52464771270752 C10.508844375610352 11.736238479614258 10.662169456481934 11.94782829284668 10.8154935836792 12.159419059753418 L10.841407775878906 12.15300178527832 C10.841407775878906 11.865766525268555 10.858277320861816 11.57826042175293 10.841407775878906 11.291420936584473 L11.249492645263672 11.233175277709961 C11.264979362487793 11.483186721801758 11.25590991973877 11.734129905700684 11.25590991973877 11.984621047973633 L11.25590991973877 12.820348739624023 L10.841346740722656 12.833305358886719 C10.82406997680664 12.807391166687012 10.806794166564941 12.781477928161621 10.789517402648926 12.755563735961914 L10.601701736450195 12.496423721313477 C10.47645092010498 12.323683738708496 10.351200103759766 12.1509428024292 10.22594928741455 11.978202819824219 L10.180719375610352 12.833305358886719 L9.792009353637695 12.833305358886719 L9.785470962524414 11.239593505859375 C9.815723419189453 11.237434387207031 9.845976829528809 11.235274314880371 9.876229286193848 11.233115196228027 L9.876229286193848 11.233115196228027"></path>
<path fill="none" stroke="black" stroke-width=".3" stroke-opacity="1.0"  filling="0" d="M11.754755973815918 11.233115196228027 L11.754755973815918 11.233115196228027 C11.789307594299316 11.235234260559082 11.823860168457031 11.237353324890137 11.85841178894043 11.239472389221191 L12.240705490112305 11.73189926147461 C12.342141151428223 11.874405860900879 12.443577766418457 12.016912460327148 12.545013427734375 12.159419059753418 L12.57740592956543 12.159419059753418 C12.57740592956543 12.124907493591309 12.57740592956543 12.0903959274292 12.57740592956543 12.05588436126709 L12.583945274353027 11.330231666564941 C12.588264465332031 11.299978256225586 12.592583656311035 11.269725799560547 12.596902847290039 11.239472389221191 L12.959698677062988 11.239532470703125 C12.970476150512695 11.246010780334473 12.981253623962402 11.252490043640137 12.99203109741211 11.258968353271484 L12.99203109741211 11.91971492767334 C12.989044189453125 12.079504013061523 12.985612869262695 12.239306449890137 12.985612869262695 12.399124145507812 L12.985612869262695 12.742485046386719 C12.985612869262695 12.774877548217773 12.985612869262695 12.807270050048828 12.985612869262695 12.839662551879883 L12.681121826171875 12.839662551879883 C12.642251014709473 12.837503433227539 12.603381156921387 12.835343360900879 12.564510345458984 12.833184242248535 L12.41556453704834 12.619333267211914 C12.359417915344238 12.5394926071167 12.30327033996582 12.459650993347168 12.247123718261719 12.379810333251953 L11.95565128326416 11.9845609664917 C11.944853782653809 12.003975868225098 11.934056282043457 12.023391723632812 11.923258781433105 12.042806625366211 L11.923258781433105 12.820287704467773 C11.810201644897461 12.839130401611328 11.694540977478027 12.83692741394043 11.579957962036133 12.839722633361816 L11.528070449829102 11.628303527832031 C11.528070449829102 11.4987154006958 11.530250549316406 11.369108200073242 11.5346097946167 11.239593505859375 L11.5346097946167 11.239593505859375 C11.607992172241211 11.237434387207031 11.681373596191406 11.235274314880371 11.754755973815918 11.233115196228027 L11.754755973815918 11.233115196228027"></path>
<path fill="none" stroke="black" stroke-width=".3" stroke-opacity="1.0"  filling="0" d="M13.283622741699219 11.246131896972656 L14.281250953674316 11.25255012512207 C14.29233169555664 11.364296913146973 14.28766918182373 11.477078437805176 14.28766918182373 11.589372634887695 L13.698186874389648 11.589372634887695 C13.67416763305664 11.67917537689209 13.678547859191895 11.775223731994629 13.685169219970703 11.867947578430176 L13.704665184020996 11.880844116210938 C13.801822662353516 11.880844116210938 13.898980140686035 11.880844116210938 13.996137619018555 11.880844116210938 L14.287670135498047 11.887262344360352 C14.287670135498047 11.98659896850586 14.287670135498047 12.085936546325684 14.287670135498047 12.185273170471191 L13.71108341217041 12.191690444946289 C13.698105812072754 12.19385051727295 13.685129165649414 12.196009635925293 13.672151565551758 12.198169708251953 L13.672151565551758 12.470327377319336 C13.746421813964844 12.486784934997559 13.822827339172363 12.496180534362793 13.89889907836914 12.496180534362793 L14.274652481079102 12.50271987915039 C14.291729927062988 12.613728523254395 14.284043312072754 12.727322578430176 14.281190872192383 12.839601516723633 L14.281190872192383 12.839601516723633 C14.205608367919922 12.841761589050293 14.130026817321777 12.843920707702637 14.054444313049316 12.846080780029297 L13.270727157592773 12.83948040008545 L13.270727157592773 12.26313591003418 C13.270727157592773 12.226424217224121 13.270727157592773 12.189713478088379 13.270727157592773 12.15300178527832 L13.270727157592773 12.15300178527832 C13.270727157592773 12.120609283447266 13.270727157592773 12.088216781616211 13.270727157592773 12.055824279785156 L13.270727157592773 12.055824279785156 C13.270727157592773 11.904657363891602 13.270727157592773 11.753494262695312 13.270727157592773 11.60232925415039 L13.283622741699219 11.246131896972656"></path>
<path fill="none" stroke="black" stroke-width=".3" stroke-opacity="1.0"  filling="0" d="M15.816536903381348 11.25255012512207 L16.347652435302734 11.259028434753418 L16.665159225463867 12.05588436126709 C16.70186996459961 12.13576602935791 16.738582611083984 12.215646743774414 16.775293350219727 12.295528411865234 L16.775293350219727 12.295528411865234 C16.84761619567871 12.163139343261719 16.89887809753418 12.020242691040039 16.95669174194336 11.880905151367188 L17.099218368530273 11.52464771270752 C17.135910034179688 11.436107635498047 17.1726016998291 11.34756851196289 17.209293365478516 11.259028434753418 L17.733989715576172 11.265507698059082 C17.733989715576172 11.356186866760254 17.733989715576172 11.44686508178711 17.733989715576172 11.537544250488281 L17.733989715576172 11.913297653198242 C17.73185157775879 11.924115180969238 17.729711532592773 11.934932708740234 17.72757339477539 11.94575023651123 L17.72757339477539 12.230743408203125 C17.72757339477539 12.43874740600586 17.721094131469727 12.645173072814941 17.721094131469727 12.852620124816895 L17.721094131469727 12.852620124816895 C17.69304084777832 12.852620124816895 17.664987564086914 12.852620124816895 17.636934280395508 12.852620124816895 L17.332443237304688 12.852620124816895 L17.326026916503906 11.978142738342285 C17.319568634033203 11.97596263885498 17.313108444213867 11.973783493041992 17.306650161743164 11.971603393554688 L16.995561599731445 12.677760124206543 C16.969648361206055 12.736066818237305 16.94373321533203 12.794373512268066 16.91781997680664 12.852680206298828 L16.626407623291016 12.852680206298828 C16.61772918701172 12.83326530456543 16.609052658081055 12.813849449157715 16.600374221801758 12.794434547424316 L16.457908630371094 12.47050952911377 C16.38664436340332 12.2977294921875 16.315380096435547 12.124948501586914 16.244115829467773 11.952168464660645 L16.244115829467773 11.952168464660645 C16.233318328857422 11.982380867004395 16.22252082824707 12.012594223022461 16.21172332763672 12.042806625366211 L16.21172332763672 12.353835105895996 C16.21172332763672 12.412121772766113 16.21172332763672 12.47040843963623 16.21172332763672 12.528695106506348 L16.205245971679688 12.839722633361816 C16.170673370361328 12.84188175201416 16.13610076904297 12.84404182434082 16.10152816772461 12.846200942993164 L15.803638458251953 12.839601516723633 C15.805737495422363 12.735965728759766 15.80783748626709 12.632330894470215 15.8099365234375 12.528695106506348 L15.816536903381348 11.25255012512207"></path>
<path fill="none" stroke="black" stroke-width=".3" stroke-opacity="1.0"  filling="0" d="M14.779914855957031 11.252731323242188 L14.779914855957031 11.252731323242188 C15.019659996032715 11.28072452545166 15.259404182434082 11.308716773986816 15.499149322509766 11.336709976196289 L15.499149322509766 11.336709976196289 C15.496969223022461 11.451163291931152 15.494790077209473 11.565617561340332 15.492609977722168 11.680070877075195 L15.492609977722168 11.680070877075195 C13.99864387512207 11.461562156677246 15.826689720153809 11.986742973327637 15.59620475769043 12.437994956970215 C15.426738739013672 12.769782066345215 14.890419960021973 12.789587020874023 14.520833969116211 12.742606163024902 L14.520833969116211 12.366912841796875 C14.535950660705566 12.371252059936523 14.551066398620605 12.375592231750488 14.566183090209961 12.379931449890137 L14.566183090209961 12.379931449890137 C16.00931739807129 12.745195388793945 13.81558609008789 11.895344734191895 14.779914855957031 11.252731323242188 L14.779914855957031 11.252731323242188"></path>
<path fill="none" stroke="black" stroke-width=".3" stroke-opacity="1.0"  filling="0" d="M18.433612823486328 11.2588472366333 L18.89370346069336 11.27198600769043 L19.029691696166992 11.628303527832031 C19.07286262512207 11.749195098876953 19.116031646728516 11.870086669921875 19.159202575683594 11.990978240966797 L19.470108032226562 12.852559089660645 L19.055606842041016 12.859098434448242 C19.036151885986328 12.815868377685547 19.016695022583008 12.772637367248535 18.99724006652832 12.72940731048584 L18.369007110595703 12.593480110168457 L18.252273559570312 12.852499008178711 C18.118404388427734 12.852499008178711 17.98453712463379 12.852499008178711 17.85066795349121 12.852499008178711 L17.85066795349121 12.852499008178711 C17.87665557861328 12.641731262207031 17.98078155517578 12.447917938232422 18.057918548583984 12.2500581741333 L18.304101943969727 11.59566879272461 C18.347272872924805 11.483394622802734 18.39044189453125 11.371121406555176 18.433612823486328 11.2588472366333 L18.433612823486328 11.2588472366333"></path>
<path fill="none" stroke="black" stroke-width=".3" stroke-opacity="1.0"  filling="0" d="M19.59326171875 11.265446662902832 L19.942977905273438 11.265446662902832 L20.59095001220703 12.165958404541016 C20.603927612304688 12.174575805664062 20.616905212402344 12.183194160461426 20.6298828125 12.191811561584473 L20.6298828125 12.191811561584473 C20.632022857666016 12.157259941101074 20.6341609954834 12.12270736694336 20.636301040649414 12.088155746459961 L20.636301040649414 12.088155746459961 C20.63848114013672 12.06228256225586 20.640661239624023 12.036408424377441 20.642841339111328 12.01053524017334 L20.64919662475586 11.278464317321777 C20.657794952392578 11.276305198669434 20.666391372680664 11.274145126342773 20.674989700317383 11.27198600769043 L21.04432487487793 11.278464317321777 L21.04432487487793 12.859159469604492 L20.63623809814453 12.86557674407959 L20.014299392700195 12.003934860229492 C20.00564193725586 12.0104341506958 19.99698257446289 12.016932487487793 19.988325119018555 12.023431777954102 L19.981908798217773 12.852560043334961 L19.580303192138672 12.852560043334961 L19.580303192138672 11.362564086914062 C19.584623336791992 11.330191612243652 19.58894157409668 11.297819137573242 19.59326171875 11.265446662902832 L19.59326171875 11.265446662902832"></path>
<path fill="none" stroke="black" stroke-width=".3" stroke-opacity="1.0"  filling="0" d="M21.342578887939453 11.27198600769043 L21.342578887939453 11.27198600769043 C21.461271286010742 11.274145126342773 21.5799617767334 11.276305198669434 21.698654174804688 11.278464317321777 L22.359521865844727 12.19828987121582 L22.398332595825195 11.278464317321777 C22.527883529663086 11.278464317321777 22.657432556152344 11.278464317321777 22.786983489990234 11.278464317321777 L22.799938201904297 11.557040214538574 C22.799938201904297 11.580815315246582 22.799938201904297 11.604589462280273 22.799938201904297 11.628364562988281 L22.793521881103516 12.878593444824219 C22.758970260620117 12.878593444824219 22.724416732788086 12.878593444824219 22.689865112304688 12.878593444824219 L22.3853759765625 12.872176170349121 C22.29471778869629 12.746905326843262 22.204057693481445 12.621633529663086 22.113399505615234 12.496362686157227 L21.769977569580078 12.017013549804688 C21.739442825317383 12.029170036315918 21.733871459960938 12.074897766113281 21.73116683959961 12.10765266418457 L21.724689483642578 12.872055053710938 L21.336040496826172 12.872176170349121 L21.32962417602539 12.412081718444824 C21.327465057373047 12.373209953308105 21.325305938720703 12.334339141845703 21.32314682006836 12.295467376708984 L21.342578887939453 11.27198600769043"></path>
<path fill="none" stroke="black" stroke-width=".3" stroke-opacity="1.0"  filling="0" d="M8.839609146118164 11.822477340698242 L9.027486801147461 12.289111137390137 C8.910873413085938 12.291250228881836 8.79426097869873 12.293389320373535 8.677647590637207 12.295528411865234 L8.677647590637207 12.295528411865234 C8.698402404785156 12.130156517028809 8.777273178100586 11.97705078125 8.839609146118164 11.822477340698242 L8.839609146118164 11.822477340698242"></path>
<path fill="none" stroke="black" stroke-width=".3" stroke-opacity="1.0"  filling="0" d="M18.647340774536133 11.848512649536133 L18.647340774536133 11.848512649536133 C19.013460159301758 12.274888038635254 18.863731384277344 12.37488079071045 18.472543716430664 12.315025329589844 L18.589155197143555 11.9845609664917 C18.608551025390625 11.93921184539795 18.627944946289062 11.893861770629883 18.647340774536133 11.848512649536133 L18.647340774536133 11.848512649536133"></path>
<path fill="none" stroke="black" stroke-width=".3" stroke-opacity="1.0"  filling="0" d="M1.3184900283813477 12.0298490524292 L1.3184900283813477 12.0298490524292 C1.4026905298233032 12.053584098815918 1.4868911504745483 12.07731819152832 1.571091651916504 12.101053237915039 L1.7136192321777344 12.327920913696289 C1.8530062437057495 12.565699577331543 1.9894624948501587 12.805242538452148 2.1217641830444336 13.047035217285156 L2.2707700729370117 13.299635887145996 C2.283726930618286 13.338506698608398 2.2966840267181396 13.377378463745117 2.309640884399414 13.41624927520752 L2.309640884399414 13.41624927520752 C2.147698402404785 13.329909324645996 1.9857559204101562 13.243570327758789 1.8238134384155273 13.157230377197266 L1.8238134384155273 13.157230377197266 C1.5735586881637573 12.82278823852539 1.0379129648208618 12.36706829071045 1.3184900283813477 12.0298490524292 L1.3184900283813477 12.0298490524292"></path>
<path fill="none" stroke="black" stroke-width=".3" stroke-opacity="1.0"  filling="0" d="M2.6076526641845703 12.036327362060547 L2.6076526641845703 12.036327362060547 C2.66701340675354 12.038724899291992 2.768706798553467 12.035625457763672 2.7760934829711914 12.094573974609375 L2.406879425048828 12.898029327392578 C2.3939225673675537 12.895890235900879 2.3809654712677 12.89375114440918 2.368008613586426 12.89161205291748 L2.154216766357422 12.528695106506348 C2.042649984359741 12.328680038452148 1.854193925857544 12.189005851745605 2.037604331970215 12.03644847869873 L2.6076526641845703 12.036327362060547"></path>
<path fill="none" stroke="black" stroke-width=".3" stroke-opacity="1.0"  filling="0" d="M2.8149642944335938 12.042746543884277 L3.248964309692383 12.042746543884277 C3.44883131980896 12.04690170288086 3.642505168914795 11.972715377807617 3.657109260559082 12.191751480102539 L3.534078598022461 12.457430839538574 C3.5124433040618896 12.504940032958984 3.4908077716827393 12.552449226379395 3.469172477722168 12.599958419799805 L3.3202266693115234 12.910865783691406 C3.207198143005371 12.82307243347168 3.152678966522217 12.678242683410645 3.0805835723876953 12.554608345031738 L2.8020076751708984 12.068719863891602 C2.8063266277313232 12.060062408447266 2.810645341873169 12.051403999328613 2.8149642944335938 12.042746543884277 L2.8149642944335938 12.042746543884277"></path>
<path fill="none" stroke="black" stroke-width=".3" stroke-opacity="1.0"  filling="0" d="M4.26602840423584 12.055824279785156 L4.2920026779174805 12.075199127197266 C4.168911457061768 12.381828308105469 4.045820713043213 12.688457489013672 3.9227294921875 12.995086669921875 L3.9227294921875 12.995086669921875 C3.7386691570281982 13.179482460021973 3.488318920135498 13.28290843963623 3.268399238586426 13.422606468200684 L3.268399238586426 13.422606468200684 C3.257601737976074 13.429064750671387 3.2468042373657227 13.435523986816406 3.236006736755371 13.44198226928711 L3.236006736755371 13.44198226928711 C2.9358766078948975 13.435523986816406 2.6357462406158447 13.429064750671387 2.335616111755371 13.422606468200684 L2.335616111755371 13.422606468200684 C2.3820033073425293 13.25570011138916 2.463460922241211 13.100391387939453 2.5363893508911133 12.943258285522461 L2.7178468704223633 12.561087608337402 C2.741581678390503 12.586960792541504 2.7653162479400635 12.612834930419922 2.789051055908203 12.638708114624023 L3.1583261489868164 13.247688293457031 C3.186399459838867 13.29737663269043 3.214472770690918 13.347064971923828 3.2425460815429688 13.396753311157227 L3.2425460815429688 13.396753311157227 C3.257662534713745 13.366499900817871 3.2727787494659424 13.336247444152832 3.2878952026367188 13.305994033813477 L3.5405569076538086 12.781295776367188 C3.6832313537597656 12.470487594604492 3.931241989135742 12.125649452209473 4.26602840423584 12.055824279785156 L4.26602840423584 12.055824279785156"></path></svg>