<svg xmlns="http://www.w3.org/2000/svg" viewBox="0.0 0.0 24.0 24.0" height="200px" width="200px"><path fill="none" stroke="black" stroke-width=".3" stroke-opacity="1.0"  filling="0" d="M1.2000007629394531 10.314932823181152 L1.3578176498413086 10.399638175964355 C1.3985294103622437 10.44742202758789 1.3788787126541138 10.542139053344727 1.3344736099243164 10.586511611938477 L1.2000007629394531 10.314932823181152"></path>
<path fill="none" stroke="black" stroke-width=".3" stroke-opacity="1.0"  filling="0" d="M1.2000007629394531 10.314932823181152 L1.3578176498413086 10.399638175964355 C1.3985294103622437 10.44742202758789 1.3788787126541138 10.542139053344727 1.3344736099243164 10.586511611938477 L1.2000007629394531 10.314932823181152"></path>
<path fill="none" stroke="black" stroke-width=".3" stroke-opacity="1.0"  filling="0" d="M1.3543682098388672 10.445874214172363 L1.3543682098388672 10.445874214172363 C1.2965562343597412 10.520161628723145 1.3027042150497437 10.655598640441895 1.3626832962036133 10.728147506713867 L1.3626832962036133 10.728147506713867 C1.2916882038116455 10.666337013244629 1.2847843170166016 10.509268760681152 1.3543682098388672 10.445874214172363 L1.3543682098388672 10.445874214172363"></path>
<path fill="none" stroke="black" stroke-width=".3" stroke-opacity="1.0"  filling="0" d="M1.3543682098388672 10.445874214172363 L1.3543682098388672 10.445874214172363 C1.2965562343597412 10.520161628723145 1.3027042150497437 10.655598640441895 1.3626832962036133 10.728147506713867 L1.3626832962036133 10.728147506713867 C1.2916882038116455 10.666337013244629 1.2847843170166016 10.509268760681152 1.3543682098388672 10.445874214172363 L1.3543682098388672 10.445874214172363"></path>
<path fill="none" stroke="black" stroke-width=".3" stroke-opacity="1.0"  filling="0" d="M1.2815570831298828 10.453274726867676 L1.3240079879760742 10.453274726867676 C1.337083339691162 10.471434593200684 1.3349053859710693 10.503617286682129 1.3199748992919922 10.520285606384277 L1.2815570831298828 10.453274726867676"></path>
<path fill="none" stroke="black" stroke-width=".3" stroke-opacity="1.0"  filling="0" d="M1.2815570831298828 10.453274726867676 L1.3240079879760742 10.453274726867676 C1.337083339691162 10.471434593200684 1.3349053859710693 10.503617286682129 1.3199748992919922 10.520285606384277 L1.2815570831298828 10.453274726867676"></path>
<path fill="none" stroke="black" stroke-width=".3" stroke-opacity="1.0"  filling="0" d="M1.1724119186401367 10.47418212890625 L1.3846216201782227 10.74576187133789 L1.1724119186401367 10.47418212890625"></path>
<path fill="none" stroke="black" stroke-width=".3" stroke-opacity="1.0"  filling="0" d="M1.1724119186401367 10.47418212890625 L1.3846216201782227 10.74576187133789 L1.1724119186401367 10.47418212890625"></path>
<path fill="none" stroke="black" stroke-width=".3" stroke-opacity="1.0"  filling="0" d="M1.2855539321899414 10.524698257446289 L1.2855539321899414 10.524698257446289 C1.2616013288497925 10.55834674835205 1.2634392976760864 10.615429878234863 1.2880735397338867 10.648582458496094 L1.2880735397338867 10.648582458496094 C1.2543123960494995 10.624788284301758 1.2520748376846313 10.548887252807617 1.2855539321899414 10.524698257446289 L1.2855539321899414 10.524698257446289"></path>
<path fill="none" stroke="black" stroke-width=".3" stroke-opacity="1.0"  filling="0" d="M1.2855539321899414 10.524698257446289 L1.2855539321899414 10.524698257446289 C1.2616013288497925 10.55834674835205 1.2634392976760864 10.615429878234863 1.2880735397338867 10.648582458496094 L1.2880735397338867 10.648582458496094 C1.2543123960494995 10.624788284301758 1.2520748376846313 10.548887252807617 1.2855539321899414 10.524698257446289 L1.2855539321899414 10.524698257446289"></path>
<path fill="none" stroke="black" stroke-width=".3" stroke-opacity="1.0"  filling="0" d="M1.471175193786621 10.554459571838379 L1.471175193786621 10.554459571838379 C1.3874982595443726 10.520391464233398 1.2838430404663086 10.520320892333984 1.2001361846923828 10.554315567016602 L1.2001361846923828 10.554315567016602 C1.2744060754776 10.5028715133667 1.3969401121139526 10.502965927124023 1.471175193786621 10.554459571838379 L1.471175193786621 10.554459571838379"></path>
<path fill="none" stroke="black" stroke-width=".3" stroke-opacity="1.0"  filling="0" d="M1.471175193786621 10.554459571838379 L1.471175193786621 10.554459571838379 C1.3874982595443726 10.520391464233398 1.2838430404663086 10.520320892333984 1.2001361846923828 10.554315567016602 L1.2001361846923828 10.554315567016602 C1.2744060754776 10.5028715133667 1.3969401121139526 10.502965927124023 1.471175193786621 10.554459571838379 L1.471175193786621 10.554459571838379"></path>
<path fill="none" stroke="black" stroke-width=".3" stroke-opacity="1.0"  filling="0" d="M1.3117694854736328 10.573502540588379 L1.3117694854736328 10.573502540588379"></path>
<path fill="none" stroke="black" stroke-width=".3" stroke-opacity="1.0"  filling="0" d="M1.3117694854736328 10.573502540588379 L1.3117694854736328 10.573502540588379"></path>
<path fill="none" stroke="black" stroke-width=".3" stroke-opacity="1.0"  filling="0" d="M1.2000007629394531 10.586511611938477 L1.3676271438598633 10.698342323303223 L1.2000007629394531 10.586511611938477"></path>
<path fill="none" stroke="black" stroke-width=".3" stroke-opacity="1.0"  filling="0" d="M1.2000007629394531 10.586511611938477 L1.8099660873413086 10.586511611938477 L1.8099660873413086 10.858092308044434 L1.2000007629394531 10.586511611938477"></path>
<path fill="none" stroke="black" stroke-width=".3" stroke-opacity="1.0"  filling="0" d="M1.2000007629394531 10.586511611938477 L1.8099660873413086 10.586511611938477 L1.8099660873413086 10.858092308044434 L1.2000007629394531 10.586511611938477"></path>
<path fill="none" stroke="black" stroke-width=".3" stroke-opacity="1.0"  filling="0" d="M1.2000007629394531 10.586511611938477 L1.6999282836914062 10.85819149017334 L1.2000007629394531 10.858092308044434 L1.2000007629394531 10.586511611938477"></path>
<path fill="none" stroke="black" stroke-width=".3" stroke-opacity="1.0"  filling="0" d="M1.2000007629394531 10.586511611938477 L1.2000007629394531 10.586511611938477 C1.283756136894226 10.620560646057129 1.3874256610870361 10.620706558227539 1.471236228942871 10.586792945861816 L1.471236228942871 10.586792945861816 C1.3969594240188599 10.638341903686523 1.2742164134979248 10.638148307800293 1.2000007629394531 10.586511611938477 L1.2000007629394531 10.586511611938477"></path>
<path fill="none" stroke="black" stroke-width=".3" stroke-opacity="1.0"  filling="0" d="M1.2000007629394531 10.586511611938477 L1.2000007629394531 10.586511611938477 C1.283756136894226 10.620560646057129 1.3874256610870361 10.620706558227539 1.471236228942871 10.586792945861816 L1.471236228942871 10.586792945861816 C1.3969594240188599 10.638341903686523 1.2742164134979248 10.638148307800293 1.2000007629394531 10.586511611938477 L1.2000007629394531 10.586511611938477"></path>
<path fill="none" stroke="black" stroke-width=".3" stroke-opacity="1.0"  filling="0" d="M1.2000007629394531 10.586511611938477 L1.2000007629394531 10.586511611938477 C1.2891676425933838 10.497340202331543 1.2891701459884644 10.675681114196777 1.2000007629394531 10.586511611938477 L1.2000007629394531 10.586511611938477"></path>
<path fill="none" stroke="black" stroke-width=".3" stroke-opacity="1.0"  filling="0" d="M1.200119972229004 10.586631774902344 L3.5814876556396484 10.586631774902344 L3.5814876556396484 13.76182746887207 L1.200119972229004 13.76182746887207 L1.200119972229004 10.586631774902344"></path>
<path fill="none" stroke="black" stroke-width=".3" stroke-opacity="1.0"  filling="0" d="M1.3259477615356445 10.648482322692871 L1.3259477615356445 10.648482322692871 C1.3504490852355957 10.61532211303711 1.3522882461547852 10.5584716796875 1.3284692764282227 10.524818420410156 L1.3284692764282227 10.524818420410156 C1.3617302179336548 10.549182891845703 1.359495759010315 10.62451457977295 1.3259477615356445 10.648482322692871 L1.3259477615356445 10.648482322692871"></path>
<path fill="none" stroke="black" stroke-width=".3" stroke-opacity="1.0"  filling="0" d="M1.3259477615356445 10.648482322692871 L1.3259477615356445 10.648482322692871 C1.3504490852355957 10.61532211303711 1.3522882461547852 10.5584716796875 1.3284692764282227 10.524818420410156 L1.3284692764282227 10.524818420410156 C1.3617302179336548 10.549182891845703 1.359495759010315 10.62451457977295 1.3259477615356445 10.648482322692871 L1.3259477615356445 10.648482322692871"></path>
<path fill="none" stroke="black" stroke-width=".3" stroke-opacity="1.0"  filling="0" d="M1.7371196746826172 10.685835838317871 L1.7371196746826172 10.685835838317871"></path>
<path fill="none" stroke="black" stroke-width=".3" stroke-opacity="1.0"  filling="0" d="M1.7371196746826172 10.685835838317871 L1.7371196746826172 10.685835838317871"></path>
<path fill="none" stroke="black" stroke-width=".3" stroke-opacity="1.0"  filling="0" d="M1.4160022735595703 10.7283353805542 L1.4160022735595703 10.7283353805542 C1.4763284921646118 10.655889511108398 1.4825308322906494 10.519843101501465 1.4243841171264648 10.445636749267578 L1.4243841171264648 10.445636749267578 C1.4943864345550537 10.508782386779785 1.487413763999939 10.666788101196289 1.4160022735595703 10.7283353805542 L1.4160022735595703 10.7283353805542"></path>
<path fill="none" stroke="black" stroke-width=".3" stroke-opacity="1.0"  filling="0" d="M1.4160022735595703 10.7283353805542 L1.4160022735595703 10.7283353805542 C1.4763284921646118 10.655889511108398 1.4825308322906494 10.519843101501465 1.4243841171264648 10.445636749267578 L1.4243841171264648 10.445636749267578 C1.4943864345550537 10.508782386779785 1.487413763999939 10.666788101196289 1.4160022735595703 10.7283353805542 L1.4160022735595703 10.7283353805542"></path>
<path fill="none" stroke="black" stroke-width=".3" stroke-opacity="1.0"  filling="0" d="M1.200119972229004 10.994770050048828 L3.5814876556396484 10.994770050048828 L3.5814876556396484 13.126765251159668 L1.200119972229004 13.126765251159668 L1.200119972229004 10.994770050048828"></path>
<path fill="none" stroke="black" stroke-width=".3" stroke-opacity="1.0"  filling="0" d="M3.5849924087524414 10.994770050048828 L3.5849924087524414 13.126765251159668 L1.1959362030029297 13.126765251159668 L1.1959362030029297 10.994770050048828 L3.5849924087524414 10.994770050048828"></path>
<path fill="none" stroke="black" stroke-width=".3" stroke-opacity="1.0"  filling="0" d="M3.2077322006225586 11.080512046813965 L3.2077322006225586 11.544266700744629 L1.3095026016235352 11.544266700744629 L1.3095026016235352 11.080512046813965 L3.2077322006225586 11.080512046813965"></path>
<path fill="none" stroke="black" stroke-width=".3" stroke-opacity="1.0"  filling="0" d="M1.3095026016235352 11.544266700744629 L1.3095026016235352 11.080512046813965 L3.2077322006225586 11.080512046813965 L3.2077322006225586 11.544266700744629 L1.3095026016235352 11.544266700744629"></path>
<path fill="none" stroke="black" stroke-width=".3" stroke-opacity="1.0"  filling="0" d="M8.252120018005371 13.42135238647461 L8.908833503723145 13.42135238647461 L8.908833503723145 15.593990325927734 L8.252120018005371 15.593990325927734 L8.252120018005371 13.42135238647461"></path></svg>