<svg xmlns="http://www.w3.org/2000/svg" viewBox="0.0 0.0 24.0 24.0" height="200px" width="200px"><path fill="none" stroke="black" stroke-width=".3" stroke-opacity="1.0"  filling="0" d="M10.007185935974121 10.386895179748535 L10.007185935974121 10.386895179748535 C10.22130012512207 10.435853958129883 10.435415267944336 10.48481273651123 10.649529457092285 10.533771514892578 L10.46220874786377 10.88236141204834 C8.943281173706055 10.475707054138184 10.682538032531738 11.35057544708252 10.616483688354492 11.726520538330078 C10.463098526000977 12.599507331848145 9.601147651672363 12.164958000183105 9.229015350341797 12.064163208007812 L9.419883728027344 11.719222068786621 C11.06263542175293 12.232057571411133 9.192732810974121 11.276955604553223 9.295104026794434 10.908108711242676 C9.373769760131836 10.624671936035156 9.769824981689453 10.560632705688477 10.007185935974121 10.386895179748535 L10.007185935974121 10.386895179748535"></path>
<path fill="none" stroke="black" stroke-width=".3" stroke-opacity="1.0"  filling="0" d="M5.242475986480713 10.416290283203125 L5.693950176239014 10.416290283203125 L6.207763671875 11.616438865661621 L6.7436747550964355 10.416290283203125 L7.191500186920166 10.416290283203125 L7.191500186920166 12.218338012695312 L6.78776741027832 12.218338012695312 L6.78776741027832 11.176012992858887 L6.2849016189575195 12.225737571716309 L5.631611347198486 11.198009490966797 L5.631611347198486 12.218338012695312 L5.242475986480713 12.218338012695312 L5.242475986480713 10.416290283203125"></path>
<path fill="none" stroke="black" stroke-width=".3" stroke-opacity="1.0"  filling="0" d="M10.809481620788574 10.416290283203125 L12.343725204467773 10.416290283203125 L12.343725204467773 10.750284194946289 L11.79676628112793 10.750284194946289 L11.79676628112793 12.218338012695312 L11.356340408325195 12.218338012695312 L11.356340408325195 10.750284194946289 L10.809481620788574 10.750284194946289 L10.809481620788574 10.416290283203125"></path>
<path fill="none" stroke="black" stroke-width=".3" stroke-opacity="1.0"  filling="0" d="M12.647005081176758 10.416290283203125 L13.847355842590332 10.416290283203125 L13.847355842590332 10.750284194946289 L13.083884239196777 10.750284194946289 L13.083884239196777 11.131919860839844 L13.711529731750488 11.131919860839844 L13.711529731750488 11.466014862060547 L13.083884239196777 11.466014862060547 L13.083884239196777 11.884445190429688 L13.887700080871582 11.884445190429688 L13.887700080871582 12.218338012695312 L12.647005081176758 12.218338012695312 L12.647005081176758 10.416290283203125"></path>
<path fill="none" stroke="black" stroke-width=".3" stroke-opacity="1.0"  filling="0" d="M14.3114013671875 10.416290283203125 L15.074772834777832 10.416290283203125 C15.334881782531738 10.659836769104004 15.49986743927002 11.170863151550293 15.294934272766113 11.462366104125977 L15.720662117004395 12.218338012695312 L15.221548080444336 12.218338012695312 L14.748077392578125 11.499059677124023 L14.748077392578125 12.218338012695312 L14.3114013671875 12.218338012695312 L14.3114013671875 10.416290283203125"></path>
<path fill="none" stroke="black" stroke-width=".3" stroke-opacity="1.0"  filling="0" d="M17.82811737060547 10.416290283203125 L18.26858139038086 10.416290283203125 L18.26858139038086 12.218338012695312 L17.82811737060547 12.218338012695312 L17.82811737060547 10.416290283203125"></path>
<path fill="none" stroke="black" stroke-width=".3" stroke-opacity="1.0"  filling="0" d="M18.81722640991211 10.416290283203125 L19.286945343017578 10.416290283203125 L20.035823822021484 11.58825969696045 L20.035823822021484 10.416290283203125 L20.439350128173828 10.416290283203125 L20.439350128173828 12.218338012695312 L20.006425857543945 12.218338012695312 L19.220956802368164 11.053565979003906 L19.220956802368164 12.214688301086426 L18.81722640991211 12.214688301086426 L18.81722640991211 10.416290283203125"></path>
<path fill="none" stroke="black" stroke-width=".3" stroke-opacity="1.0"  filling="0" d="M20.967052459716797 10.416290283203125 L21.67548370361328 10.416290283203125 C22.0180606842041 10.71480655670166 22.704158782958984 10.857450485229492 22.70321273803711 11.311840057373047 C22.702260971069336 11.769573211669922 22.015560150146484 11.91617202758789 21.671733856201172 12.218338012695312 L20.967052459716797 12.218338012695312 L20.967052459716797 10.416290283203125"></path>
<path fill="none" stroke="black" stroke-width=".3" stroke-opacity="1.0"  filling="0" d="M2.2678518295288086 10.416696548461914 L4.535767078399658 10.416696548461914 L4.535767078399658 12.684307098388672 L2.2678518295288086 12.684307098388672 L2.2678518295288086 10.416696548461914"></path>
<path fill="none" stroke="black" stroke-width=".3" stroke-opacity="1.0"  filling="0" d="M2.2699804306030273 10.724740982055664 L2.735828399658203 10.724740982055664 L2.735828399658203 12.39481258392334 L2.2699804306030273 12.39481258392334 L2.2699804306030273 10.724740982055664"></path>
<path fill="none" stroke="black" stroke-width=".3" stroke-opacity="1.0"  filling="0" d="M14.748075485229492 10.739236831665039 L14.964689254760742 10.739236831665039 C15.073495864868164 10.841383934020996 15.073518753051758 11.084837913513184 14.964689254760742 11.186960220336914 L14.748075485229492 10.739236831665039"></path>
<path fill="none" stroke="black" stroke-width=".3" stroke-opacity="1.0"  filling="0" d="M16.512008666992188 10.739236831665039 L16.7285213470459 10.739236831665039 C16.83732795715332 10.841384887695312 16.837350845336914 11.084836959838867 16.7285213470459 11.186960220336914 L16.512008666992188 10.739236831665039"></path>
<path fill="none" stroke="black" stroke-width=".3" stroke-opacity="1.0"  filling="0" d="M21.40382957458496 10.761232376098633 L21.635040283203125 10.761232376098633 C21.836923599243164 10.945984840393066 22.24068832397461 11.041829109191895 22.24068832397461 11.315489768981934 C22.24068832397461 11.589972496032715 21.836923599243164 11.687427520751953 21.635040283203125 11.873395919799805 L21.40382957458496 11.873395919799805 L21.40382957458496 10.761232376098633"></path>
<path fill="none" stroke="black" stroke-width=".3" stroke-opacity="1.0"  filling="0" d="M2.733820915222168 10.88266658782959 L4.069695949554443 10.88266658782959 L4.069695949554443 12.218338012695312 L2.733820915222168 12.218338012695312 L2.733820915222168 10.88266658782959"></path>
<path fill="none" stroke="black" stroke-width=".3" stroke-opacity="1.0"  filling="0" d="M8.27285099029541 10.908108711242676 L8.434324264526367 11.48436164855957 L8.08938217163086 11.48436164855957 L8.27285099029541 10.908108711242676"></path>
<path fill="none" stroke="black" stroke-width=".3" stroke-opacity="1.0"  filling="0" d="M2.5139636993408203 11.179155349731445 L2.5139636993408203 11.179155349731445 C2.919689655303955 11.584813117980957 3.7311410903930664 11.822394371032715 3.7311410903930664 12.396129608154297 C3.7311410903930664 15.415068626403809 1.2967853546142578 12.622455596923828 1.2967853546142578 12.396129608154297 C1.2967853546142578 11.822394371032715 2.1082375049591064 11.584813117980957 2.5139636993408203 11.179155349731445 L2.5139636993408203 11.179155349731445"></path>
<path fill="none" stroke="black" stroke-width=".3" stroke-opacity="1.0"  filling="0" d="M9.150053024291992 12.218338012695312 L8.001296043395996 11.822005271911621 L7.858068943023682 12.218338012695312 L7.388348579406738 12.218338012695312 L8.07468318939209 10.416290283203125 L8.46371841430664 10.416290283203125 L9.150053024291992 12.218338012695312"></path>
<path fill="none" stroke="black" stroke-width=".3" stroke-opacity="1.0"  filling="0" d="M17.484697341918945 12.218338012695312 L16.98548126220703 12.218338012695312 L16.512008666992188 11.499059677124023 L16.512008666992188 12.218338012695312 L16.075233459472656 12.218338012695312 L16.075233459472656 10.416290283203125 L16.83870506286621 10.416290283203125 C17.098793029785156 10.659859657287598 17.263761520385742 11.1708345413208 17.058868408203125 11.462366104125977 L17.484697341918945 12.218338012695312"></path>
<path fill="none" stroke="black" stroke-width=".3" stroke-opacity="1.0"  filling="0" d="M1.7626543045043945 12.396129608154297 L1.7626543045043945 12.396129608154297 C2.0130908489227295 12.145727157592773 2.1598172187805176 11.644922256469727 2.5139636993408203 11.644922256469727 C3.5157084465026855 11.644922256469727 3.5157084465026855 13.147337913513184 2.5139636993408203 13.147337913513184 C2.1598169803619385 13.147337913513184 2.0130908489227295 12.64653205871582 1.7626543045043945 12.396129608154297 L1.7626543045043945 12.396129608154297"></path>
<path fill="none" stroke="black" stroke-width=".3" stroke-opacity="1.0"  filling="0" d="M18.41329002380371 12.671738624572754 L18.56381607055664 12.866965293884277 L18.41329002380371 12.671738624572754"></path>
<path fill="none" stroke="black" stroke-width=".3" stroke-opacity="1.0"  filling="0" d="M10.47791862487793 12.674677848815918 L10.47791862487793 12.674677848815918 C10.529647827148438 12.689544677734375 10.581377983093262 12.704410552978516 10.63310718536377 12.719277381896973 L10.598135948181152 12.775535583496094 C10.459742546081543 12.694727897644043 10.44513988494873 12.759861946105957 10.302863121032715 12.866965293884277 L10.225116729736328 12.867168426513672 C10.3093843460083 12.80300521850586 10.393651008605957 12.73884105682373 10.47791862487793 12.674677848815918 L10.47791862487793 12.674677848815918"></path>
<path fill="none" stroke="black" stroke-width=".3" stroke-opacity="1.0"  filling="0" d="M22.43875503540039 12.675590515136719 L22.43875503540039 12.675590515136719 C22.49842071533203 12.681596755981445 22.558883666992188 12.691789627075195 22.61441993713379 12.714412689208984 L22.58329963684082 12.775535583496094 C22.4267520904541 12.690321922302246 22.403600692749023 12.76158332824707 22.252042770385742 12.866965293884277 L22.173690795898438 12.866863250732422 C22.26204490661621 12.803105354309082 22.350400924682617 12.739348411560059 22.43875503540039 12.675590515136719 L22.43875503540039 12.675590515136719"></path>
<path fill="none" stroke="black" stroke-width=".3" stroke-opacity="1.0"  filling="0" d="M5.85004997253418 12.683364868164062 L5.85004997253418 12.683364868164062"></path>
<path fill="none" stroke="black" stroke-width=".3" stroke-opacity="1.0"  filling="0" d="M6.61463737487793 12.683364868164062 L6.61463737487793 12.683364868164062"></path>
<path fill="none" stroke="black" stroke-width=".3" stroke-opacity="1.0"  filling="0" d="M9.555912971496582 12.683364868164062 L9.555912971496582 12.683364868164062"></path>
<path fill="none" stroke="black" stroke-width=".3" stroke-opacity="1.0"  filling="0" d="M9.883013725280762 12.683364868164062 L9.883013725280762 12.683364868164062"></path>
<path fill="none" stroke="black" stroke-width=".3" stroke-opacity="1.0"  filling="0" d="M10.887226104736328 12.683364868164062 L10.887226104736328 12.683364868164062"></path>
<path fill="none" stroke="black" stroke-width=".3" stroke-opacity="1.0"  filling="0" d="M11.254161834716797 12.683364868164062 L11.254161834716797 12.683364868164062"></path>
<path fill="none" stroke="black" stroke-width=".3" stroke-opacity="1.0"  filling="0" d="M12.863110542297363 12.683364868164062 L12.863110542297363 12.683364868164062"></path>
<path fill="none" stroke="black" stroke-width=".3" stroke-opacity="1.0"  filling="0" d="M13.19011116027832 12.683364868164062 L13.19011116027832 12.683364868164062"></path>
<path fill="none" stroke="black" stroke-width=".3" stroke-opacity="1.0"  filling="0" d="M13.948009490966797 12.683364868164062 L13.948009490966797 12.683364868164062"></path>
<path fill="none" stroke="black" stroke-width=".3" stroke-opacity="1.0"  filling="0" d="M19.531131744384766 12.683364868164062 L19.531131744384766 12.683364868164062"></path>
<path fill="none" stroke="black" stroke-width=".3" stroke-opacity="1.0"  filling="0" d="M20.75581169128418 12.683364868164062 L20.75581169128418 12.683364868164062"></path>
<path fill="none" stroke="black" stroke-width=".3" stroke-opacity="1.0"  filling="0" d="M21.082813262939453 12.683364868164062 L21.082813262939453 12.683364868164062"></path>
<path fill="none" stroke="black" stroke-width=".3" stroke-opacity="1.0"  filling="0" d="M21.831079483032227 12.683364868164062 L21.831079483032227 12.683364868164062"></path>
<path fill="none" stroke="black" stroke-width=".3" stroke-opacity="1.0"  filling="0" d="M8.302245140075684 12.683374404907227 L8.458446502685547 12.683374404907227 C8.52373218536377 12.733229637145996 8.636077880859375 12.785871505737305 8.622858047485352 12.866945266723633 L8.536598205566406 12.866863250732422 C8.564311981201172 12.777766227722168 8.535569190979004 12.759114265441895 8.448816299438477 12.74451732635498 L8.302245140075684 12.683374404907227"></path>
<path fill="none" stroke="black" stroke-width=".3" stroke-opacity="1.0"  filling="0" d="M16.84589958190918 12.683374404907227 L17.002201080322266 12.683374404907227 C17.067487716674805 12.73322868347168 17.17983627319336 12.785870552062988 17.166616439819336 12.866945266723633 L17.08025360107422 12.866863250732422 C17.107969284057617 12.7777738571167 17.079362869262695 12.759119987487793 16.992572784423828 12.74451732635498 L16.84589958190918 12.683374404907227"></path>
<path fill="none" stroke="black" stroke-width=".3" stroke-opacity="1.0"  filling="0" d="M18.923660278320312 12.683374404907227 L19.0799617767334 12.683374404907227 C19.14520263671875 12.73325252532959 19.257333755493164 12.785867691040039 19.244274139404297 12.866945266723633 L19.15791130065918 12.866863250732422 C19.18580436706543 12.777788162231445 19.156978607177734 12.759113311767578 19.07023048400879 12.74451732635498 L18.923660278320312 12.683374404907227"></path>
<path fill="none" stroke="black" stroke-width=".3" stroke-opacity="1.0"  filling="0" d="M7.018369674682617 12.683375358581543 L7.189269065856934 12.683375358581543 C7.288013458251953 12.716289520263672 7.3949103355407715 12.774054527282715 7.441868305206299 12.866945266723633 L7.3637166023254395 12.866864204406738 C7.325411796569824 12.805147171020508 7.253729343414307 12.76264762878418 7.183390140533447 12.74451732635498 L7.018369674682617 12.683375358581543"></path>
<path fill="none" stroke="black" stroke-width=".3" stroke-opacity="1.0"  filling="0" d="M14.351842880249023 12.683375358581543 L14.5226411819458 12.683375358581543 C14.62138557434082 12.716289520263672 14.72828197479248 12.774054527282715 14.775238990783691 12.866945266723633 L14.696986198425293 12.866864204406738 C14.658811569213867 12.805131912231445 14.58714771270752 12.762633323669434 14.516862869262695 12.74451732635498 L14.351842880249023 12.683375358581543"></path>
<path fill="none" stroke="black" stroke-width=".3" stroke-opacity="1.0"  filling="0" d="M6.26037073135376 12.683395385742188 L6.352612018585205 12.818310737609863 C6.344502925872803 12.804052352905273 6.336393356323242 12.789793968200684 6.32828426361084 12.775535583496094 L6.26037073135376 12.683395385742188"></path>
<path fill="none" stroke="black" stroke-width=".3" stroke-opacity="1.0"  filling="0" d="M7.7190985679626465 12.683395385742188 L8.006464958190918 12.74451732635498 L7.7190985679626465 12.683395385742188"></path>
<path fill="none" stroke="black" stroke-width=".3" stroke-opacity="1.0"  filling="0" d="M8.902926445007324 12.683395385742188 L9.287299156188965 12.726069450378418 L8.902926445007324 12.683395385742188"></path>
<path fill="none" stroke="black" stroke-width=".3" stroke-opacity="1.0"  filling="0" d="M11.566363334655762 12.683395385742188 L11.96928596496582 12.74451732635498 L11.566363334655762 12.683395385742188"></path>
<path fill="none" stroke="black" stroke-width=".3" stroke-opacity="1.0"  filling="0" d="M13.593844413757324 12.683395385742188 L13.685983657836914 12.818310737609863 C13.677907943725586 12.804052352905273 13.669833183288574 12.789793968200684 13.661757469177246 12.775535583496094 L13.593844413757324 12.683395385742188"></path>
<path fill="none" stroke="black" stroke-width=".3" stroke-opacity="1.0"  filling="0" d="M15.624262809753418 12.683395385742188 L15.780466079711914 12.866965293884277 L15.624262809753418 12.683395385742188"></path>
<path fill="none" stroke="black" stroke-width=".3" stroke-opacity="1.0"  filling="0" d="M15.98440933227539 12.683395385742188 L15.98440933227539 12.683395385742188"></path>
<path fill="none" stroke="black" stroke-width=".3" stroke-opacity="1.0"  filling="0" d="M16.272586822509766 12.683395385742188 L16.559850692749023 12.74451732635498 L16.272586822509766 12.683395385742188"></path>
<path fill="none" stroke="black" stroke-width=".3" stroke-opacity="1.0"  filling="0" d="M17.453479766845703 12.683395385742188 L17.545616149902344 12.851253509521484 C17.539466857910156 12.830879211425781 17.53331756591797 12.810505867004395 17.52716827392578 12.790131568908691 L17.453479766845703 12.683395385742188"></path>
<path fill="none" stroke="black" stroke-width=".3" stroke-opacity="1.0"  filling="0" d="M17.872716903686523 12.683395385742188 L17.89309310913086 12.777562141418457 C17.886943817138672 12.795672416687012 17.88079261779785 12.813782691955566 17.874643325805664 12.831892967224121 L17.872716903686523 12.683395385742188"></path>
<path fill="none" stroke="black" stroke-width=".3" stroke-opacity="1.0"  filling="0" d="M19.800052642822266 12.683395385742188 L19.65013313293457 12.866965293884277 L19.800052642822266 12.683395385742188"></path>
<path fill="none" stroke="black" stroke-width=".3" stroke-opacity="1.0"  filling="0" d="M20.110427856445312 12.683395385742188 L20.513248443603516 12.74451732635498 L20.110427856445312 12.683395385742188"></path>
<path fill="none" stroke="black" stroke-width=".3" stroke-opacity="1.0"  filling="0" d="M21.47681427001953 12.683395385742188 L21.569053649902344 12.818310737609863 C21.560945510864258 12.804052352905273 21.55283546447754 12.789793968200684 21.544727325439453 12.775535583496094 L21.47681427001953 12.683395385742188"></path>
<path fill="none" stroke="black" stroke-width=".3" stroke-opacity="1.0"  filling="0" d="M22.252037048339844 12.86674690246582 L22.252037048339844 12.86674690246582 C22.23090171813965 13.032480239868164 22.413236618041992 13.100553512573242 22.546504974365234 13.086199760437012 L22.620193481445312 13.128872871398926 C22.442752838134766 13.178828239440918 22.14771270751953 13.130231857299805 22.173583984375 12.866949081420898 L22.252037048339844 12.86674690246582"></path>
<path fill="none" stroke="black" stroke-width=".3" stroke-opacity="1.0"  filling="0" d="M10.302865982055664 12.86684799194336 L10.302865982055664 12.86684799194336 C10.280855178833008 13.072637557983398 10.441632270812988 13.10938549041748 10.602088928222656 13.071602821350098 L10.6234769821167 13.125933647155762 C10.452693939208984 13.162958145141602 10.20077133178711 13.12039566040039 10.225116729736328 12.866949081420898 L10.302865982055664 12.86684799194336"></path>
<path fill="none" stroke="black" stroke-width=".3" stroke-opacity="1.0"  filling="0" d="M6.479924201965332 12.866948127746582 L6.596188545227051 13.013318061828613 C6.602337837219238 13.027576446533203 6.608487606048584 13.041834831237793 6.6146368980407715 13.056093215942383 L6.479924201965332 12.866948127746582"></path>
<path fill="none" stroke="black" stroke-width=".3" stroke-opacity="1.0"  filling="0" d="M7.7928900718688965 12.866948127746582 L8.012343406677246 13.147320747375488 L7.71909761428833 13.147320747375488 L7.7928900718688965 12.866948127746582"></path>
<path fill="none" stroke="black" stroke-width=".3" stroke-opacity="1.0"  filling="0" d="M9.177521705627441 12.866948127746582 L9.006723403930664 13.086198806762695 L9.299867630004883 13.147320747375488 L8.902926445007324 13.147320747375488 L9.177521705627441 12.866948127746582"></path>
<path fill="none" stroke="black" stroke-width=".3" stroke-opacity="1.0"  filling="0" d="M10.961019515991211 12.866948127746582 L11.326942443847656 12.866948127746582 L11.326942443847656 13.147320747375488 L10.961019515991211 12.93952465057373 L10.887226104736328 13.147320747375488 L10.961019515991211 12.866948127746582"></path>
<path fill="none" stroke="black" stroke-width=".3" stroke-opacity="1.0"  filling="0" d="M13.8132963180542 12.866948127746582 L13.92966079711914 13.013318061828613 C13.935776710510254 13.027576446533203 13.941893577575684 13.041834831237793 13.948009490966797 13.056093215942383 L13.8132963180542 12.866948127746582"></path>
<path fill="none" stroke="black" stroke-width=".3" stroke-opacity="1.0"  filling="0" d="M16.34627914428711 12.866948127746582 L16.565732955932617 13.147320747375488 L16.272586822509766 13.147320747375488 L16.34627914428711 12.866948127746582"></path>
<path fill="none" stroke="black" stroke-width=".3" stroke-opacity="1.0"  filling="0" d="M17.62822723388672 12.866948127746582 L17.69806671142578 13.025988578796387 C17.700971603393555 13.038287162780762 17.70387840270996 13.050586700439453 17.706783294677734 13.062885284423828 L17.706783294677734 13.062885284423828 C17.71002769470215 13.050586700439453 17.713272094726562 13.038287162780762 17.716516494750977 13.025988578796387 L17.858829498291016 12.866948127746582 L17.67384147644043 13.147320747375488 L17.62822723388672 12.866948127746582"></path>
<path fill="none" stroke="black" stroke-width=".3" stroke-opacity="1.0"  filling="0" d="M18.405485153198242 12.866948127746582 L18.675315856933594 13.147320747375488 L18.224042892456055 13.147320747375488 L18.405485153198242 12.866948127746582"></path>
<path fill="none" stroke="black" stroke-width=".3" stroke-opacity="1.0"  filling="0" d="M19.742778778076172 12.866948127746582 L19.909725189208984 13.147320747375488 L19.742778778076172 12.866948127746582"></path>
<path fill="none" stroke="black" stroke-width=".3" stroke-opacity="1.0"  filling="0" d="M21.696365356445312 12.866948127746582 L21.81252670288086 13.013318061828613 C21.818710327148438 13.027576446533203 21.824893951416016 13.041834831237793 21.831077575683594 13.056093215942383 L21.696365356445312 12.866948127746582"></path>
<path fill="none" stroke="black" stroke-width=".3" stroke-opacity="1.0"  filling="0" d="M5.2425761222839355 12.866969108581543 L5.389148235321045 12.89697265625 C5.419111728668213 12.8894624710083 5.455529689788818 12.88934326171875 5.476828098297119 12.866969108581543 L5.563189506530762 12.867050170898438 C5.5297393798828125 12.895431518554688 5.4962897300720215 12.923813819885254 5.462839603424072 12.952195167541504 L5.590963840484619 13.147320747375488 L5.2425761222839355 13.147320747375488 L5.2425761222839355 12.866949081420898"></path>
<path fill="none" stroke="black" stroke-width=".3" stroke-opacity="1.0"  filling="0" d="M5.84999418258667 12.866949081420898 L5.923740863800049 13.14730167388916 L5.84999418258667 12.866949081420898"></path>
<path fill="none" stroke="black" stroke-width=".3" stroke-opacity="1.0"  filling="0" d="M6.260334491729736 12.866949081420898 L6.32828426361084 13.14730167388916 L6.260334491729736 12.866949081420898"></path>
<path fill="none" stroke="black" stroke-width=".3" stroke-opacity="1.0"  filling="0" d="M7.01837158203125 12.866989135742188 L7.177614688873291 13.086238861083984 C7.306863307952881 13.052653312683105 7.3839640617370605 13.024904251098633 7.3637189865112305 12.866989135742188 L7.44187068939209 12.867151260375977 C7.466119766235352 13.076714515686035 7.353903770446777 13.092150688171387 7.189268589019775 13.147320747375488 L7.018369197845459 12.866949081420898"></path>
<path fill="none" stroke="black" stroke-width=".3" stroke-opacity="1.0"  filling="0" d="M8.302245140075684 12.866969108581543 L8.44881820678711 12.89697265625 C8.478812217712402 12.88945484161377 8.515167236328125 12.889259338378906 8.536598205566406 12.866969108581543 L8.622858047485352 12.867050170898438 C8.589407920837402 12.895431518554688 8.555957794189453 12.923813819885254 8.522507667541504 12.952195167541504 L8.65063190460205 13.147320747375488 L8.302244186401367 13.147320747375488 L8.302244186401367 12.866949081420898"></path>
<path fill="none" stroke="black" stroke-width=".3" stroke-opacity="1.0"  filling="0" d="M9.555912971496582 12.866949081420898 L9.628692626953125 12.970643997192383 C9.688422203063965 13.030801773071289 9.823307991027832 13.0308256149292 9.883013725280762 12.970643997192383 L9.955894470214844 12.95797348022461 C9.848237991333008 13.22382640838623 9.662652969360352 13.225549697875977 9.555912971496582 12.95797348022461 L9.555912971496582 12.866949081420898"></path>
<path fill="none" stroke="black" stroke-width=".3" stroke-opacity="1.0"  filling="0" d="M11.731383323669434 12.866949081420898 L11.80416488647461 13.14730167388916 L11.731383323669434 12.866949081420898"></path>
<path fill="none" stroke="black" stroke-width=".3" stroke-opacity="1.0"  filling="0" d="M12.863110542297363 12.866949081420898 L12.935790061950684 12.970643997192383 C12.995519638061523 13.030801773071289 13.130406379699707 13.0308256149292 13.190112113952637 12.970643997192383 L13.262992858886719 12.95797348022461 C13.155336380004883 13.223827362060547 12.969841957092285 13.225523948669434 12.863112449645996 12.95797348022461 L12.863112449645996 12.866949081420898"></path>
<path fill="none" stroke="black" stroke-width=".3" stroke-opacity="1.0"  filling="0" d="M13.593795776367188 12.866949081420898 L13.661757469177246 13.14730167388916 L13.593795776367188 12.866949081420898"></path>
<path fill="none" stroke="black" stroke-width=".3" stroke-opacity="1.0"  filling="0" d="M14.351845741271973 12.866989135742188 L14.510988235473633 13.086238861083984 C14.639928817749023 13.052732467651367 14.71789836883545 13.024820327758789 14.696991920471191 12.866989135742188 L14.775243759155273 12.867151260375977 C14.799503326416016 13.076804161071777 14.687402725219727 13.092138290405273 14.5226411819458 13.147320747375488 L14.351842880249023 12.866949081420898"></path>
<path fill="none" stroke="black" stroke-width=".3" stroke-opacity="1.0"  filling="0" d="M15.702105522155762 12.866949081420898 L15.843609809875488 13.018183708190918 C15.845199584960938 13.025313377380371 15.84678840637207 13.032442092895508 15.84837818145752 13.039571762084961 L15.84837818145752 13.039571762084961 C15.850337982177734 13.032442092895508 15.85229778289795 13.025313377380371 15.854257583618164 13.018183708190918 L15.987146377563477 12.866949081420898 L15.826078414916992 13.158978462219238 L15.70211124420166 12.866949081420898"></path>
<path fill="none" stroke="black" stroke-width=".3" stroke-opacity="1.0"  filling="0" d="M16.845903396606445 12.866969108581543 L16.992576599121094 12.89697265625 C17.022537231445312 12.889452934265137 17.05884552001953 12.88923454284668 17.080257415771484 12.866969108581543 L17.16661834716797 12.867050170898438 C17.133169174194336 12.895431518554688 17.09971809387207 12.923813819885254 17.066268920898438 12.952195167541504 L17.194393157958984 13.147320747375488 L16.845901489257812 13.147320747375488 L16.845901489257812 12.866949081420898"></path>
<path fill="none" stroke="black" stroke-width=".3" stroke-opacity="1.0"  filling="0" d="M17.453449249267578 12.866949081420898 L17.52716827392578 13.14730167388916 L17.453449249267578 12.866949081420898"></path>
<path fill="none" stroke="black" stroke-width=".3" stroke-opacity="1.0"  filling="0" d="M17.89312744140625 12.866949081420898 L17.965970993041992 13.14730167388916 L17.89312744140625 12.866949081420898"></path>
<path fill="none" stroke="black" stroke-width=".3" stroke-opacity="1.0"  filling="0" d="M18.923656463623047 12.866969108581543 L19.07023048400879 12.89697265625 C19.100191116333008 12.889452934265137 19.136499404907227 12.889236450195312 19.157909393310547 12.866969108581543 L19.24427032470703 12.867050170898438 C19.2108211517334 12.895431518554688 19.177370071411133 12.923813819885254 19.1439208984375 12.952195167541504 L19.272045135498047 13.147320747375488 L18.923656463623047 13.147320747375488 L18.923656463623047 12.866949081420898"></path>
<path fill="none" stroke="black" stroke-width=".3" stroke-opacity="1.0"  filling="0" d="M19.531103134155273 12.866949081420898 L19.604822158813477 13.14730167388916 L19.531103134155273 12.866949081420898"></path>
<path fill="none" stroke="black" stroke-width=".3" stroke-opacity="1.0"  filling="0" d="M20.27544403076172 12.866949081420898 L20.348224639892578 13.14730167388916 L20.27544403076172 12.866949081420898"></path>
<path fill="none" stroke="black" stroke-width=".3" stroke-opacity="1.0"  filling="0" d="M20.755807876586914 12.866949081420898 L20.828689575195312 12.970643997192383 C20.888322830200195 13.030802726745605 21.023151397705078 13.030776977539062 21.082809448242188 12.970643997192383 L21.155689239501953 12.95797348022461 C21.04814910888672 13.223937034606934 20.862512588500977 13.225454330444336 20.755807876586914 12.95797348022461 L20.755807876586914 12.866949081420898"></path>
<path fill="none" stroke="black" stroke-width=".3" stroke-opacity="1.0"  filling="0" d="M21.476818084716797 12.866949081420898 L21.544723510742188 13.14730167388916 L21.476818084716797 12.866949081420898"></path>
<path fill="none" stroke="black" stroke-width=".3" stroke-opacity="1.0"  filling="0" d="M5.316267490386963 12.866949081420898 L5.398777961730957 12.683379173278809 C5.464062690734863 12.733233451843262 5.576410293579102 12.785872459411621 5.56318998336792 12.866945266723633 L5.476828098297119 12.866863250732422 C5.504722595214844 12.777788162231445 5.475894927978516 12.759113311767578 5.389148235321045 12.74451732635498 L5.316267967224121 12.866965293884277"></path></svg>