<svg xmlns="http://www.w3.org/2000/svg" viewBox="0.0 0.0 24.0 24.0" height="200px" width="200px"><path fill="none" stroke="black" stroke-width=".3" stroke-opacity="1.0"  filling="0" d="M3.735114097595215 10.861259460449219 L4.641984939575195 10.861259460449219 L5.177863121032715 12.262785911560059 L5.703434944152832 10.861259460449219 L6.610305309295654 10.861259460449219 L6.610305309295654 13.396373748779297 L5.961068630218506 13.396373748779297 L5.961068630218506 11.71660327911377 L5.322137355804443 13.396373748779297 L5.033587455749512 13.396373748779297 L4.394656181335449 11.71660327911377 L4.394656181335449 13.396373748779297 L3.735114097595215 13.396373748779297 L3.735114097595215 10.861259460449219"></path>
<path fill="none" stroke="black" stroke-width=".3" stroke-opacity="1.0"  filling="0" d="M8.970229148864746 10.861259460449219 L9.877099990844727 10.861259460449219 L10.41297721862793 12.262785911560059 L10.938549041748047 10.861259460449219 L11.845419883728027 10.861259460449219 L11.845419883728027 13.396373748779297 L11.196182250976562 13.396373748779297 L11.196182250976562 11.71660327911377 L10.557251930236816 13.396373748779297 L10.268702507019043 13.396373748779297 L9.62977123260498 11.71660327911377 L9.62977123260498 13.396373748779297 L8.970229148864746 13.396373748779297 L8.970229148864746 10.861259460449219"></path>
<path fill="none" stroke="black" stroke-width=".3" stroke-opacity="1.0"  filling="0" d="M14.133207321166992 10.861259460449219 L14.720611572265625 10.861259460449219 L14.720611572265625 12.293702125549316 L15.277099609375 11.56202220916748 L15.988167762756348 11.56202220916748 L15.308013916015625 12.396756172180176 L16.019081115722656 13.396373748779297 L15.297709465026855 13.396373748779297 L14.895801544189453 12.747137069702148 L14.720611572265625 13.396373748779297 L14.133207321166992 13.396373748779297 L14.133207321166992 10.861259460449219"></path>
<path fill="none" stroke="black" stroke-width=".3" stroke-opacity="1.0"  filling="0" d="M16.18396759033203 10.861259460449219 L16.771371841430664 10.861259460449219 L16.771371841430664 13.396373748779297 L16.18396759033203 13.396373748779297 L16.18396759033203 10.861259460449219"></path>
<path fill="none" stroke="black" stroke-width=".3" stroke-opacity="1.0"  filling="0" d="M13.02022933959961 11.489886283874512 L13.02022933959961 11.489886283874512 C13.305343627929688 11.733778953552246 13.590458869934082 11.977672576904297 13.87557315826416 12.221565246582031 L13.87557315826416 13.375763893127441 L13.288167953491211 13.375763893127441 C13.288167953491211 13.382634162902832 13.288167953491211 13.389503479003906 13.288167953491211 13.396373748779297 L13.288167953491211 13.210878372192383 C11.872054100036621 13.777322769165039 11.856965065002441 11.901822090148926 13.288167953491211 12.448282241821289 L13.288167953491211 12.262785911560059 C13.047884941101074 12.089248657226562 12.678975105285645 12.085363388061523 12.401907920837402 12.190649032592773 L12.18549633026123 11.778434753417969 C12.463740348815918 11.682251930236816 12.741985321044922 11.586069107055664 13.02022933959961 11.489886283874512 L13.02022933959961 11.489886283874512"></path>
<path fill="none" stroke="black" stroke-width=".3" stroke-opacity="1.0"  filling="0" d="M20.254581451416016 11.51049518585205 L20.254581451416016 12.077289581298828 C20.055940628051758 12.063101768493652 19.863584518432617 12.160974502563477 19.67748260498047 12.2318696975708 L19.67748260498047 13.406679153442383 L19.090076446533203 13.396373748779297 L19.090076446533203 11.56202220916748 L19.677480697631836 11.56202220916748 L19.677480697631836 11.788740158081055 C19.869848251342773 11.695991516113281 20.062213897705078 11.603243827819824 20.254581451416016 11.51049518585205 L20.254581451416016 11.51049518585205"></path>
<path fill="none" stroke="black" stroke-width=".3" stroke-opacity="1.0"  filling="0" d="M7.836641311645508 11.520801544189453 L7.836641311645508 11.520801544189453 C8.08740520477295 11.634160041809082 8.338168144226074 11.747519493103027 8.588932037353516 11.860877990722656 L8.207633018493652 12.211259841918945 C7.262603282928467 11.738744735717773 7.2678985595703125 13.227310180664062 8.207633018493652 12.757442474365234 L8.588930130004883 13.11812973022461 C8.117490768432617 13.331246376037598 6.837021827697754 14.191523551940918 6.83702278137207 12.47919750213623 C6.83702278137207 12.017586708068848 7.503435134887695 11.840267181396484 7.836641311645508 11.520801544189453 L7.836641311645508 11.520801544189453"></path>
<path fill="none" stroke="black" stroke-width=".3" stroke-opacity="1.0"  filling="0" d="M17.95648765563965 11.520801544189453 L17.95648765563965 11.520801544189453 C18.26908302307129 11.860877990722656 18.581680297851562 12.200953483581543 18.894275665283203 12.541029930114746 L17.585494995117188 12.675000190734863 C17.845638275146484 12.84264850616455 18.209739685058594 12.919137954711914 18.502670288085938 12.81927490234375 L18.760303497314453 13.20057201385498 C18.22771453857422 13.371001243591309 17.002086639404297 14.012922286987305 16.977481842041016 12.47919750213623 C16.970155715942383 12.02258014678955 17.630151748657227 11.840267181396484 17.95648765563965 11.520801544189453 L17.95648765563965 11.520801544189453"></path>
<path fill="none" stroke="black" stroke-width=".3" stroke-opacity="1.0"  filling="0" d="M17.95648765563965 11.984541893005371 L17.95648765563965 11.984541893005371 C18.083587646484375 12.080724716186523 18.21068572998047 12.176908493041992 18.337785720825195 12.273091316223145 L17.575191497802734 12.273091316223145 C17.702289581298828 12.176908493041992 17.829389572143555 12.080724716186523 17.95648765563965 11.984541893005371 L17.95648765563965 11.984541893005371"></path>
<path fill="none" stroke="black" stroke-width=".3" stroke-opacity="1.0"  filling="0" d="M12.95839786529541 12.623473167419434 L12.95839786529541 12.623473167419434 C13.068321228027344 12.668129920959473 13.178244590759277 12.712785720825195 13.288167953491211 12.757442474365234 L13.288167953491211 12.922327995300293 C12.92781925201416 13.068719863891602 12.415054321289062 13.030978202819824 12.95839786529541 12.623473167419434 L12.95839786529541 12.623473167419434"></path></svg>