<svg xmlns="http://www.w3.org/2000/svg" viewBox="0.0 0.0 24.0 24.0" height="200px" width="200px"><path fill="none" stroke="black" stroke-width=".3" stroke-opacity="1.0"  filling="0" d="M10.50967025756836 4.421907424926758 L13.40333366394043 4.421907424926758 L13.40333366394043 6.833305358886719 L10.50967025756836 6.833305358886719 L10.50967025756836 4.421907424926758"></path>
<path fill="none" stroke="black" stroke-width=".3" stroke-opacity="1.0"  filling="0" d="M10.112757682800293 5.606897830963135 L10.112757682800293 5.606897830963135 C8.371729850769043 5.893954277038574 7.6320929527282715 5.771408557891846 6.221865653991699 6.9230852127075195 C4.136172294616699 8.626388549804688 4.1361284255981445 11.574766159057617 6.221865653991699 13.278033256530762 C7.632135391235352 14.429696083068848 8.371692657470703 14.307144165039062 10.112757682800293 14.59421157836914 L10.112757682800293 14.59421157836914"></path>
<path fill="none" stroke="black" stroke-width=".3" stroke-opacity="1.0"  filling="0" d="M13.80024528503418 5.606897830963135 L13.80024528503418 5.606897830963135 C15.541342735290527 5.893950939178467 16.281036376953125 5.771406173706055 17.69134521484375 6.9230852127075195 C19.777149200439453 8.626382827758789 19.777193069458008 11.5747709274292 17.69134521484375 13.278033256530762 C16.280994415283203 14.429698944091797 15.5413818359375 14.307147979736328 13.80024528503418 14.59421157836914 L13.80024528503418 14.59421157836914"></path>
<path fill="none" stroke="black" stroke-width=".3" stroke-opacity="1.0"  filling="0" d="M10.50951862335205 13.380354881286621 L13.403182029724121 13.380354881286621 L13.403182029724121 15.791752815246582 L10.50951862335205 15.791752815246582 L10.50951862335205 13.380354881286621"></path>
<path fill="none" stroke="black" stroke-width=".3" stroke-opacity="1.0"  filling="0" d="M21.688392639160156 17.234577178955078 L21.688392639160156 17.234577178955078 C21.879011154174805 17.269235610961914 22.06962776184082 17.303892135620117 22.26024627685547 17.338550567626953 L22.198806762695312 17.466154098510742 C20.254377365112305 17.115806579589844 20.182558059692383 19.649490356445312 22.151546478271484 19.342391967773438 L22.151546478271484 18.53896713256836 L21.584421157836914 18.406635284423828 L22.3264102935791 18.406635284423828 L22.3264102935791 19.436914443969727 C21.88666343688965 19.512134552001953 19.852785110473633 19.581932067871094 20.402910232543945 18.401912689208984 C20.647478103637695 17.877315521240234 21.259899139404297 17.623689651489258 21.688392639160156 17.234577178955078 L21.688392639160156 17.234577178955078"></path>
<path fill="none" stroke="black" stroke-width=".3" stroke-opacity="1.0"  filling="0" d="M19.297016143798828 17.258207321166992 L20.35092544555664 19.536161422729492 L19.85941505432129 18.73746109008789 L18.885848999023438 18.73746109008789 L18.403793334960938 19.536161422729492 L19.297016143798828 17.258207321166992"></path>
<path fill="none" stroke="black" stroke-width=".3" stroke-opacity="1.0"  filling="0" d="M8.481382369995117 17.258655548095703 L8.802532196044922 17.258655548095703 L8.802532196044922 19.53528594970703 L8.481382369995117 19.53528594970703 L8.481382369995117 17.258655548095703"></path>
<path fill="none" stroke="black" stroke-width=".3" stroke-opacity="1.0"  filling="0" d="M12.914716720581055 17.258655548095703 L13.235719680786133 17.258655548095703 L13.235719680786133 19.53528594970703 L12.914716720581055 19.53528594970703 L12.914716720581055 17.258655548095703"></path>
<path fill="none" stroke="black" stroke-width=".3" stroke-opacity="1.0"  filling="0" d="M11.323797225952148 17.258657455444336 L11.644960403442383 17.258657455444336 L11.644960403442383 19.288646697998047 L12.695845603942871 19.288646697998047 L12.695845603942871 19.53528594970703 L11.323798179626465 19.53528594970703 L11.323798179626465 17.258657455444336"></path>
<path fill="none" stroke="black" stroke-width=".3" stroke-opacity="1.0"  filling="0" d="M6.1827473640441895 17.288942337036133 L6.1827473640441895 17.288942337036133 C8.72098445892334 17.112194061279297 8.714568138122559 19.646268844604492 6.182746410369873 19.528640747070312 L6.182746410369873 17.288942337036133"></path>
<path fill="none" stroke="black" stroke-width=".3" stroke-opacity="1.0"  filling="0" d="M19.37263298034668 17.442523956298828 L19.382083892822266 17.442523956298828 C19.424617767333984 17.57642936706543 19.467153549194336 17.7103328704834 19.509687423706055 17.84423828125 L19.80742645263672 18.605131149291992 L18.942562103271484 18.605131149291992 L19.24502944946289 17.83478546142578 C19.28756332397461 17.704030990600586 19.33009910583496 17.573278427124023 19.37263298034668 17.442523956298828 L19.37263298034668 17.442523956298828"></path>
<path fill="none" stroke="black" stroke-width=".3" stroke-opacity="1.0"  filling="0" d="M6.876001358032227 17.47488784790039 L6.876001358032227 17.47488784790039 C7.6995158195495605 18.200834274291992 8.476055145263672 19.388233184814453 6.503911018371582 19.30562973022461 L6.50391149520874 17.505306243896484 C6.627941608428955 17.495166778564453 6.751971244812012 17.485027313232422 6.876001358032227 17.47488784790039 L6.876001358032227 17.47488784790039"></path>
<path fill="none" stroke="black" stroke-width=".3" stroke-opacity="1.0"  filling="0" d="M10.050363540649414 17.518741607666016 L10.061283111572266 17.518741607666016 C10.10266399383545 17.65727424621582 10.144044876098633 17.795804977416992 10.185425758361816 17.934337615966797 L10.429914474487305 18.589488983154297 L9.68919849395752 18.589488983154297 L9.930000305175781 17.93086814880371 C9.970121383666992 17.793493270874023 10.010242462158203 17.656116485595703 10.050363540649414 17.518741607666016 L10.050363540649414 17.518741607666016"></path>
<path fill="none" stroke="black" stroke-width=".3" stroke-opacity="1.0"  filling="0" d="M5.792412757873535 18.467864990234375 L4.8400397300720215 18.467864990234375 L4.8400397300720215 19.28864288330078 L5.905537128448486 19.28864288330078 L5.905537128448486 19.53528594970703 L4.518970966339111 19.53528594970703 L4.518970966339111 17.258655548095703 L5.850827217102051 17.258655548095703 L5.850827217102051 17.505300521850586 L4.840039253234863 17.505300521850586 L4.840039253234863 18.224695205688477 L5.792412757873535 18.224695205688477 L5.792412757873535 18.467864990234375"></path>
<path fill="none" stroke="black" stroke-width=".3" stroke-opacity="1.0"  filling="0" d="M3.7929182052612305 18.535432815551758 L3.7929182052612305 18.535432815551758 C3.7795279026031494 18.207809448242188 3.7661378383636475 17.880184173583984 3.7527475357055664 17.552560806274414 L3.745518684387207 17.552560806274414 C3.6421334743499756 17.840801239013672 3.538748025894165 18.12904167175293 3.4353628158569336 18.417282104492188 L3.001157760620117 19.521774291992188 L2.76027774810791 19.521774291992188 L2.358859062194824 18.43758773803711 C2.2651994228363037 18.142578125 2.171539545059204 17.847570419311523 2.0778799057006836 17.552560806274414 L2.070651054382324 17.552560806274414 C2.054824113845825 17.8880615234375 2.0389974117279053 18.22356414794922 2.0231704711914062 18.559064865112305 L1.9575214385986328 19.53528594970703 L1.6546859741210938 19.53528594970703 L1.8262262344360352 17.258657455444336 L2.2311887741088867 17.258657455444336 L2.6508474349975586 18.359683990478516 C2.733553171157837 18.616416931152344 2.8162591457366943 18.87314796447754 2.8989648818969727 19.129880905151367 L2.9062700271606445 19.129880905151367 C2.993825674057007 18.87314796447754 3.08138108253479 18.616416931152344 3.1689367294311523 18.359683990478516 L3.606840133666992 17.258657455444336 L4.011861801147461 17.258657455444336 L4.165098667144775 19.53528594970703 L3.8513269424438477 19.53528594970703 L3.7929134368896484 18.535432815551758"></path>
<path fill="none" stroke="black" stroke-width=".3" stroke-opacity="1.0"  filling="0" d="M9.623384475708008 18.819141387939453 L9.368027687072754 19.53528594970703 L9.039567947387695 19.53528594970703 L9.875264167785645 17.258657455444336 L10.258376121520996 17.258657455444336 L11.097627639770508 19.53528594970703 L10.758222579956055 19.53528594970703 L10.495567321777344 18.819141387939453 L9.623384475708008 18.819141387939453"></path>
<path fill="none" stroke="black" stroke-width=".3" stroke-opacity="1.0"  filling="0" d="M13.658842086791992 19.535289764404297 L13.658842086791992 17.25865936279297 L14.009002685546875 17.25865936279297 L14.793603897094727 18.410490036010742 C14.939569473266602 18.65705680847168 15.08553409576416 18.903623580932617 15.231499671936035 19.150190353393555 L15.242585182189941 19.146862030029297 C15.230429649353027 18.83609962463379 15.21827507019043 18.525339126586914 15.206119537353516 18.214576721191406 L15.206119537353516 17.258657455444336 L15.505184173583984 17.258657455444336 L15.505184173583984 19.53528594970703 L15.184114456176758 19.53528594970703 L14.403427124023438 18.379989624023438 C14.251280784606934 18.12670135498047 14.099133491516113 17.8734130859375 13.94698715209961 17.62012481689453 L13.936355590820312 17.623451232910156 C13.943589210510254 17.936429977416992 13.950823783874512 18.249406814575195 13.958057403564453 18.56238555908203 L13.958057403564453 19.53528594970703 L13.658842086791992 19.53528594970703"></path>
<path fill="none" stroke="black" stroke-width=".3" stroke-opacity="1.0"  filling="0" d="M17.274778366088867 19.535289764404297 L16.957244873046875 19.032039642333984 C16.86358642578125 18.882259368896484 16.769929885864258 18.73247718811035 16.676271438598633 18.58269691467285 L16.669103622436523 18.58269691467285 C16.580297470092773 18.733585357666016 16.491491317749023 18.88447380065918 16.402685165405273 19.035362243652344 L16.10715675354004 19.535289764404297 L15.742136001586914 19.535289764404297 L16.493953704833984 18.383460998535156 L15.771531105041504 17.25865936279297 L16.140012741088867 17.25865936279297 L16.464784622192383 17.79233741760254 C16.54020118713379 17.920654296875 16.615615844726562 18.048973083496094 16.69103240966797 18.177289962768555 L16.701980590820312 18.177289962768555 C16.7761173248291 18.048973083496094 16.850252151489258 17.920654296875 16.924388885498047 17.79233741760254 L17.25668716430664 17.25865936279297 L17.625165939331055 17.25865936279297 L16.87712860107422 18.366701126098633 L17.64327621459961 19.535289764404297 L17.274778366088867 19.535289764404297"></path></svg>