<svg xmlns="http://www.w3.org/2000/svg" viewBox="0.0 0.0 24.0 24.0" height="200px" width="200px"><path fill="none" stroke="black" stroke-width=".3" stroke-opacity="1.0"  filling="0" d="M4.120974540710449 9.266462326049805 L4.120974540710449 9.266462326049805 C5.266577243804932 9.57370376586914 5.8429179191589355 9.481603622436523 6.501737117767334 10.620379447937012 C7.5489501953125 12.430498123168945 6.2090559005737305 14.733537673950195 4.120974540710449 14.733537673950195 C2.032876491546631 14.733537673950195 0.6933702230453491 12.430400848388672 1.740390419960022 10.620379447937012 C2.3991332054138184 9.481587409973145 2.975398302078247 9.573710441589355 4.120974540710449 9.266462326049805 L4.120974540710449 9.266462326049805"></path>
<path fill="none" stroke="black" stroke-width=".3" stroke-opacity="1.0"  filling="0" d="M4.120974540710449 9.798635482788086 L4.120974540710449 9.798635482788086 C4.644337177276611 10.013586044311523 5.289278030395508 10.04513931274414 5.691061973571777 10.443488121032715 C7.076274394989014 11.816859245300293 6.049330711364746 14.201364517211914 4.120974540710449 14.201364517211914 C2.1926534175872803 14.201364517211914 1.166054129600525 11.816751480102539 2.5510077476501465 10.443488121032715 C2.9527435302734375 10.045143127441406 3.5976521968841553 10.013586044311523 4.120974540710449 9.798635482788086 L4.120974540710449 9.798635482788086"></path>
<path fill="none" stroke="black" stroke-width=".3" stroke-opacity="1.0"  filling="0" d="M18.436996459960938 9.964893341064453 L18.436996459960938 9.964893341064453 C18.50699234008789 10.034327507019043 18.57698631286621 10.10376262664795 18.646982192993164 10.173196792602539 L18.787052154541016 10.580194473266602 C18.883378982543945 10.677987098693848 18.88451385498047 10.895334243774414 18.787052154541016 10.991996765136719 L18.646982192993164 12.870575904846191 C19.145240783691406 13.3637056350708 18.964767456054688 13.597107887268066 18.23157501220703 12.870575904846191 L18.128986358642578 10.991996765136719 C18.030412673950195 10.896468162536621 18.03153419494629 10.67686653137207 18.128986358642578 10.580194473266602 L18.23157501220703 10.173196792602539 C18.300048828125 10.10376262664795 18.36852264404297 10.034327507019043 18.436996459960938 9.964893341064453 L18.436996459960938 9.964893341064453"></path>
<path fill="none" stroke="black" stroke-width=".3" stroke-opacity="1.0"  filling="0" d="M11.290038108825684 10.557129859924316 L11.290038108825684 10.557129859924316 C11.475196838378906 10.73908519744873 11.660355567932129 10.921041488647461 11.845514297485352 11.102996826171875 L11.845514297485352 11.986906051635742 C11.775518417358398 12.056260108947754 11.705523490905762 12.125615119934082 11.635527610778809 12.194969177246094 L11.15477180480957 12.194969177246094 L11.15477180480957 12.870575904846191 C11.218867301940918 12.936264991760254 11.364874839782715 12.935136795043945 11.430107116699219 12.870575904846191 L11.430107116699219 12.639206886291504 C11.527335166931152 12.540614128112793 11.747208595275879 12.541688919067383 11.845514297485352 12.639206886291504 L11.845514297485352 12.870575904846191 C11.660355567932129 13.05405330657959 11.550705909729004 13.42100715637207 11.290038108825684 13.42100715637207 C11.030562400817871 13.42100715637207 10.923084259033203 13.05405330657959 10.739606857299805 12.870575904846191 L10.739606857299805 11.102996826171875 C10.923084259033203 10.921041488647461 11.106560707092285 10.73908519744873 11.290038108825684 10.557129859924316 L11.290038108825684 10.557129859924316"></path>
<path fill="none" stroke="black" stroke-width=".3" stroke-opacity="1.0"  filling="0" d="M14.867721557617188 10.557129859924316 L14.867721557617188 10.557129859924316 C15.052800178527832 10.73908519744873 15.237879753112793 10.921041488647461 15.422958374023438 11.102996826171875 L15.422958374023438 11.33460521697998 C15.324708938598633 11.432065963745117 15.105020523071289 11.433084487915039 15.007791519165039 11.33460521697998 L15.007791519165039 11.102996826171875 C14.941488265991211 11.039536476135254 14.79764175415039 11.038389205932617 14.73245620727539 11.102996826171875 L14.73245620727539 12.870575904846191 C14.796551704406738 12.936264991760254 14.942559242248535 12.935136795043945 15.007791519165039 12.870575904846191 L15.007791519165039 12.639206886291504 C15.104963302612305 12.540672302246094 15.3247652053833 12.541688919067383 15.422958374023438 12.639206886291504 L15.422958374023438 12.870575904846191 C15.237879753112793 13.05405330657959 15.128332138061523 13.42100715637207 14.867721557617188 13.42100715637207 C14.60818862915039 13.42100715637207 14.500606536865234 13.05405330657959 14.317049026489258 12.870575904846191 L14.317049026489258 11.102996826171875 C14.500606536865234 10.921041488647461 14.684164047241211 10.73908519744873 14.867721557617188 10.557129859924316 L14.867721557617188 10.557129859924316"></path>
<path fill="none" stroke="black" stroke-width=".3" stroke-opacity="1.0"  filling="0" d="M16.72515869140625 10.557129859924316 L16.72515869140625 10.557129859924316 C16.910236358642578 10.73908519744873 17.09531593322754 10.921041488647461 17.280393600463867 11.102996826171875 L17.280393600463867 13.185073852539062 C17.210397720336914 13.254508018493652 17.140403747558594 13.323943138122559 17.07040786743164 13.393377304077148 L16.72515869140625 13.393377304077148 C16.541601181030273 13.209819793701172 16.358041763305664 13.026263236999512 16.174484252929688 12.842705726623535 L16.174484252929688 12.329033851623535 C16.358041763305664 12.147078514099121 16.541601181030273 11.96512222290039 16.72515869140625 11.783166885375977 L16.864988327026367 11.102996826171875 C16.798738479614258 11.03947925567627 16.654895782470703 11.038447380065918 16.589651107788086 11.102996826171875 L16.589651107788086 11.33460521697998 C16.49134635925293 11.43200969696045 16.271656036376953 11.433140754699707 16.174484252929688 11.33460521697998 L16.174484252929688 11.102996826171875 C16.358041763305664 10.921041488647461 16.541601181030273 10.73908519744873 16.72515869140625 10.557129859924316 L16.72515869140625 10.557129859924316"></path>
<path fill="none" stroke="black" stroke-width=".3" stroke-opacity="1.0"  filling="0" d="M20.200489044189453 10.557129859924316 L20.200489044189453 10.557129859924316 C20.385568618774414 10.73908519744873 20.570650100708008 10.921041488647461 20.75572967529297 11.102996826171875 L20.75572967529297 11.986906051635742 C20.685733795166016 12.056260108947754 20.615737915039062 12.125615119934082 20.54574203491211 12.194969177246094 L20.064987182617188 12.194969177246094 L20.064987182617188 12.870575904846191 C20.129196166992188 12.93626594543457 20.275272369384766 12.935192108154297 20.34056282043457 12.870575904846191 L20.34056282043457 12.639206886291504 C20.43767547607422 12.540614128112793 20.657480239868164 12.541746139526367 20.75572967529297 12.639206886291504 L20.75572967529297 12.870575904846191 C20.570650100708008 13.05405330657959 20.461101531982422 13.42100715637207 20.200489044189453 13.42100715637207 C19.940956115722656 13.42100715637207 19.833375930786133 13.05405330657959 19.649818420410156 12.870575904846191 L19.649818420410156 11.102996826171875 C19.833375930786133 10.921041488647461 20.016931533813477 10.73908519744873 20.200489044189453 10.557129859924316 L20.200489044189453 10.557129859924316"></path>
<path fill="none" stroke="black" stroke-width=".3" stroke-opacity="1.0"  filling="0" d="M22.08074951171875 10.557129859924316 L22.08074951171875 10.557129859924316 C22.26582908630371 10.73908519744873 22.45090675354004 10.921041488647461 22.635986328125 11.102996826171875 L22.635986328125 12.870575904846191 C22.45090675354004 13.05405330657959 22.341360092163086 13.42100715637207 22.08074951171875 13.42100715637207 C21.821216583251953 13.42100715637207 21.71363639831543 13.05405330657959 21.530078887939453 12.870575904846191 L21.530078887939453 11.102996826171875 C21.71363639831543 10.921041488647461 21.897192001342773 10.73908519744873 22.08074951171875 10.557129859924316 L22.08074951171875 10.557129859924316"></path>
<path fill="none" stroke="black" stroke-width=".3" stroke-opacity="1.0"  filling="0" d="M8.35984992980957 10.580194473266602 L8.705100059509277 10.580194473266602 C8.823307037353516 10.62496280670166 8.941514015197754 10.669730186462402 9.059720993041992 10.714498519897461 L9.06452751159668 10.714498519897461 C9.128275871276855 10.669730186462402 9.192024230957031 10.62496280670166 9.255772590637207 10.580194473266602 L9.395602226257324 10.580194473266602 C9.5791597366333 10.763751983642578 9.762716293334961 10.947308540344238 9.946273803710938 11.130866050720215 L9.946273803710938 13.203573226928711 C9.849160194396973 13.302165031433105 9.629356384277344 13.301033973693848 9.531107902526855 13.203573226928711 L9.531107902526855 11.130866050720215 C9.485939025878906 11.084576606750488 9.440771102905273 11.038286209106445 9.395602226257324 10.991996765136719 L9.237272262573242 10.991996765136719 C9.243438720703125 11.038286209106445 9.249606132507324 11.084576606750488 9.255772590637207 11.130866050720215 L9.255772590637207 13.203573226928711 C9.158544540405273 13.302165031433105 8.938671112060547 13.301091194152832 8.840365409851074 13.203573226928711 L8.840365409851074 11.130866050720215 C8.795276641845703 11.084576606750488 8.750188827514648 11.038286209106445 8.705100059509277 10.991996765136719 L8.565030097961426 13.203573226928711 C8.467916488647461 13.302165031433105 8.248112678527832 13.301033973693848 8.149864196777344 13.203573226928711 L8.149864196777344 10.788497924804688 C8.21985912322998 10.719063758850098 8.289855003356934 10.649628639221191 8.35984992980957 10.580194473266602 L8.35984992980957 10.580194473266602"></path>
<path fill="none" stroke="black" stroke-width=".3" stroke-opacity="1.0"  filling="0" d="M12.82504653930664 10.580194473266602 L13.170297622680664 10.580194473266602 C13.910872459411621 11.314681053161621 13.664546012878418 11.48200511932373 13.170297622680664 10.991996765136719 L13.035032272338867 13.203573226928711 C12.936727523803711 13.301091194152832 12.716853141784668 13.302165031433105 12.61962604522705 13.203573226928711 L12.61962604522705 10.788497924804688 C12.68809986114502 10.719063758850098 12.756572723388672 10.649628639221191 12.82504653930664 10.580194473266602 L12.82504653930664 10.580194473266602"></path>
<path fill="none" stroke="black" stroke-width=".3" stroke-opacity="1.0"  filling="0" d="M11.290038108825684 10.968932151794434 L11.290038108825684 10.968932151794434 C11.3367280960083 11.013620376586914 11.383417129516602 11.058308601379395 11.430107116699219 11.102996826171875 L11.430107116699219 11.783166885375977 L11.15477180480957 11.783166885375977 L11.15477180480957 11.102996826171875 C11.199860572814941 11.058308601379395 11.244949340820312 11.013620376586914 11.290038108825684 10.968932151794434 L11.290038108825684 10.968932151794434"></path>
<path fill="none" stroke="black" stroke-width=".3" stroke-opacity="1.0"  filling="0" d="M20.200489044189453 10.968932151794434 L20.200489044189453 10.968932151794434 C20.247180938720703 11.013620376586914 20.29387092590332 11.058308601379395 20.34056282043457 11.102996826171875 L20.34056282043457 11.783166885375977 L20.064987182617188 11.783166885375977 L20.064987182617188 11.102996826171875 C20.11015510559082 11.058308601379395 20.15532112121582 11.013620376586914 20.200489044189453 10.968932151794434 L20.200489044189453 10.968932151794434"></path>
<path fill="none" stroke="black" stroke-width=".3" stroke-opacity="1.0"  filling="0" d="M22.08074951171875 10.968932151794434 L22.08074951171875 10.968932151794434 C22.12735939025879 11.013620376586914 22.17397117614746 11.058308601379395 22.2205810546875 11.102996826171875 L22.2205810546875 12.870575904846191 C22.15546226501465 12.935134887695312 22.009525299072266 12.93620777130127 21.94548797607422 12.870575904846191 L21.94548797607422 11.102996826171875 C21.990575790405273 11.058308601379395 22.035661697387695 11.013620376586914 22.08074951171875 10.968932151794434 L22.08074951171875 10.968932151794434"></path>
<path fill="none" stroke="black" stroke-width=".3" stroke-opacity="1.0"  filling="0" d="M16.72515869140625 12.194969177246094 L16.72515869140625 12.981575012207031 C16.679988861083984 12.935285568237305 16.63482093811035 12.888995170593262 16.589651107788086 12.842705726623535 L16.589651107788086 12.329033851623535 C16.63482093811035 12.284345626831055 16.679988861083984 12.239657402038574 16.72515869140625 12.194969177246094 L16.72515869140625 12.194969177246094"></path>
<path fill="none" stroke="black" stroke-width=".3" stroke-opacity="1.0"  filling="0" d="M3.4677133560180664 12.884990692138672 L3.4677133560180664 12.884990692138672 C4.90578556060791 14.310603141784668 2.0296409130096436 14.310603141784668 3.4677133560180664 12.884990692138672 L3.4677133560180664 12.884990692138672"></path></svg>