<svg xmlns="http://www.w3.org/2000/svg" viewBox="0.0 0.0 24.0 24.0" height="200px" width="200px"><path fill="none" stroke="black" stroke-width=".3" stroke-opacity="1.0"  filling="0" d="M4.07117223739624 1.6803398132324219 L9.375260353088379 1.6803399324417114 L14.67934799194336 1.6803399324417114 L19.983434677124023 1.6803398132324219 L19.983434677124023 5.253217697143555 L16.007251739501953 6.598318576812744 C15.83524227142334 6.758634567260742 15.68915843963623 6.962843418121338 15.619009971618652 7.1872711181640625 L15.620891571044922 10.077430725097656 C15.577746391296387 10.174558639526367 15.430846214294434 10.22220230102539 15.326791763305664 10.200568199157715 L11.540023803710938 8.039068222045898 C11.361230850219727 7.990698337554932 11.12427806854248 8.148131370544434 11.062158584594727 8.322624206542969 L11.069689750671387 11.592741012573242 C11.040999412536621 11.695265769958496 10.898643493652344 11.768113136291504 10.793289184570312 11.752782821655273 L7.4632978439331055 9.604838371276855 C7.295468330383301 9.565520286560059 7.113980293273926 9.574806213378906 6.946269512176514 9.614628791809082 L4.07117223739624 10.600860595703125"></path>
<path fill="none" stroke="black" stroke-width=".3" stroke-opacity="1.0"  filling="0" d="M4.071548938751221 4.883427143096924 L9.375383377075195 4.883427143096924 L14.679218292236328 4.883427143096924 L19.98305320739746 4.883427143096924 L19.98305320739746 10.062368392944336 L19.98305320739746 15.24130916595459 L14.679218292236328 15.241310119628906 L9.375383377075195 15.241310119628906 L4.071548938751221 15.24130916595459 L4.071548938751221 10.062368392944336 L4.071548938751221 4.883427143096924"></path>
<path fill="none" stroke="black" stroke-width=".3" stroke-opacity="1.0"  filling="0" d="M6.764010906219482 11.213537216186523 L6.764010906219482 11.213537216186523 C6.951890468597412 11.162989616394043 7.1612114906311035 11.158049583435059 7.347691535949707 11.213537216186523 L11.31596565246582 13.85779857635498 C11.509468078613281 13.897568702697754 11.797500610351562 13.806659698486328 11.858223915100098 13.618677139282227 L11.84768009185791 10.194543838500977 C11.895215034484863 10.100244522094727 12.008598327636719 10.015044212341309 12.113913536071777 10.022828102111816 L16.008756637573242 12.370731353759766 C16.161409378051758 12.387105941772461 16.363021850585938 12.298264503479004 16.415069580078125 12.153827667236328 L16.421098709106445 8.277058601379395 C16.465900421142578 8.11932373046875 16.570249557495117 7.976181983947754 16.692230224609375 7.8665995597839355 L19.983434677124023 6.770786285400391 L19.983434677124023 12.179810523986816 L19.983434677124023 17.588834762573242 L14.67934799194336 17.588834762573242 L9.375260353088379 17.588834762573242 L4.07117223739624 17.588834762573242 L4.07117223739624 12.110522270202637"></path>
<path fill="none" stroke="black" stroke-width=".3" stroke-opacity="1.0"  filling="0" d="M3.994352340698242 19.052932739257812 L4.670668601989746 19.052932739257812 L5.278072834014893 21.620372772216797 L5.825603008270264 19.052932739257812 L6.699617385864258 19.052932739257812 L7.274637222290039 21.620372772216797 L7.8775224685668945 19.052932739257812 L8.503378868103027 19.052932739257812 L7.665891170501709 22.264680862426758 L6.837817668914795 22.264680862426758 L6.248865604400635 19.697240829467773 L5.6783623695373535 22.264680862426758 L4.845396518707275 22.264680862426758"></path>
<path fill="none" stroke="black" stroke-width=".3" stroke-opacity="1.0"  filling="0" d="M8.922122955322266 19.052932739257812 L10.817389488220215 19.052932739257812 L10.817389488220215 19.559040069580078 L9.566054344177246 19.559040069580078 L9.566054344177246 20.3505859375 L10.71157455444336 20.3505859375 L10.71157455444336 20.856693267822266 L9.566054344177246 20.856693267822266 L9.566054344177246 21.758573532104492 L10.826803207397461 21.758573532104492 L10.826803207397461 22.264680862426758 L8.922122955322266 22.264680862426758"></path>
<path fill="none" stroke="black" stroke-width=".3" stroke-opacity="1.0"  filling="0" d="M12.72696590423584 19.052932739257812 L13.518512725830078 19.052932739257812 L14.751397132873535 21.454681396484375 L14.751397132873535 19.052932739257812 L15.36783504486084 19.052932739257812 L15.36783504486084 22.264680862426758 L14.581188201904297 22.264680862426758 L13.343408584594727 19.862932205200195 L13.343408584594727 22.264680862426758 L12.72696590423584 22.264680862426758"></path>
<path fill="none" stroke="black" stroke-width=".3" stroke-opacity="1.0"  filling="0" d="M11.42479419708252 19.05297088623047 L12.069101333618164 19.05297088623047 L12.069101333618164 22.264680862426758 L11.42479419708252 22.264680862426758 L11.42479419708252 19.05297088623047"></path>
<path fill="none" stroke="black" stroke-width=".3" stroke-opacity="1.0"  filling="0" d="M16.026077270507812 19.05297088623047 L16.670007705688477 19.05297088623047 L16.670007705688477 22.264680862426758 L16.026077270507812 22.264680862426758 L16.026077270507812 19.05297088623047"></path>
<path fill="none" stroke="black" stroke-width=".3" stroke-opacity="1.0"  filling="0" d="M19.03937339782715 19.50406265258789 L19.03937339782715 19.50406265258789 C17.531259536743164 20.084461212158203 17.544029235839844 21.967885971069336 19.38920783996582 21.76761245727539 L19.38920783996582 20.930126190185547 L18.7083740234375 20.930126190185547 L18.7083740234375 20.42401885986328 L20.005647659301758 20.42401885986328 L20.005647659301758 22.153968811035156 C19.234268188476562 22.276899337768555 18.411678314208984 22.567169189453125 17.7006778717041 21.919368743896484 C15.76919174194336 20.159570693969727 18.44680404663086 18.924007415771484 19.90924644470215 19.131258010864258 L19.86782455444336 19.67426872253418 C19.5916748046875 19.61753273010254 19.315523147583008 19.56079864501953 19.03937339782715 19.50406265258789 L19.03937339782715 19.50406265258789"></path></svg>