<svg xmlns="http://www.w3.org/2000/svg" viewBox="0.0 0.0 24.0 24.0" height="200px" width="200px"><path fill="none" stroke="black" stroke-width=".3" stroke-opacity="1.0"  filling="0" d="M12.000028610229492 1.418832778930664 L12.000028610229492 1.418832778930664 C14.117687225341797 1.7033839225769043 15.739922523498535 2.409064292907715 16.903881072998047 3.5730221271514893 C18.067838668823242 4.7369794845581055 18.773521423339844 6.359214782714844 19.05807113647461 8.476874351501465 L19.05807113647461 15.534943580627441 C18.794925689697266 17.49332046508789 18.4497127532959 19.06683921813965 16.990821838378906 20.52572250366211 C15.382972717285156 22.133562088012695 13.184762954711914 22.759794235229492 11.101966857910156 22.492393493652344 C9.019169807434082 22.224994659423828 7.051785469055176 21.063961029052734 5.9055867195129395 19.097270965576172 C5.0579729080200195 17.64290428161621 5.162292003631592 17.17469596862793 4.941958904266357 15.534943580627441 L4.941958904266357 8.476874351501465 C5.226511001586914 6.359207630157471 5.932195663452148 4.736972332000732 7.096158981323242 3.5730159282684326 C8.260122299194336 2.409059762954712 9.882364273071289 1.7033827304840088 12.000028610229492 1.418832778930664 L12.000028610229492 1.418832778930664"></path>
<path fill="none" stroke="black" stroke-width=".3" stroke-opacity="1.0"  filling="0" d="M12.000028610229492 1.7717342376708984 L12.000028610229492 1.7717342376708984 C14.010038375854492 2.042595148086548 15.550887107849121 2.713878631591797 16.656951904296875 3.8199477195739746 C17.763015747070312 4.926016807556152 18.434295654296875 6.46687126159668 18.70516586303711 8.476874351501465 L18.70516586303711 15.534943580627441 C18.49525260925293 17.092668533325195 18.594491958618164 17.534912109375 17.788410186767578 18.91650390625 C16.69813346862793 20.78519630432129 14.83059024810791 21.888872146606445 12.853458404541016 22.143218994140625 C10.876327514648438 22.397565841674805 8.789608001708984 21.802581787109375 7.260981559753418 20.273956298828125 C5.875304222106934 18.88827896118164 5.5455498695373535 17.395225524902344 5.29486083984375 15.534943580627441 L5.29486083984375 8.476874351501465 C5.5657243728637695 6.466863632202148 6.237011432647705 4.926008224487305 7.343085289001465 3.8199410438537598 C8.449159622192383 2.713873863220215 9.990019798278809 2.0425941944122314 12.000028610229492 1.7717342376708984 L12.000028610229492 1.7717342376708984"></path>
<path fill="none" stroke="black" stroke-width=".3" stroke-opacity="1.0"  filling="0" d="M7.674726963043213 4.151434421539307 L12.000028610229492 8.476790428161621 L16.325359344482422 4.151488304138184 C17.471384048461914 5.634842872619629 17.867084503173828 6.617161750793457 18.116960525512695 8.476873397827148 L18.11676788330078 15.74098014831543 C18.082210540771484 15.902099609375 17.855546951293945 15.950943946838379 17.70125961303711 16.00881576538086 L14.878070831298828 14.72260856628418 C15.032368659973145 14.664729118347168 15.258871078491211 14.616057395935059 15.293771743774414 14.454998970031738 L15.293771743774414 9.461102485656738 C15.2425537109375 9.409859657287598 15.15990161895752 9.350156784057617 15.092973709106445 9.377901077270508 L13.411581039428711 11.057844161987305 L13.411581039428711 13.649100303649902 C12.48288345336914 13.49698543548584 11.517085075378418 13.49691104888916 10.588363647460938 13.648877143859863 L10.588363647460938 11.057703018188477 L8.906998634338379 9.377872467041016 C8.840091705322266 9.350163459777832 8.757484436035156 9.409722328186035 8.706229209899902 9.460881233215332 L8.70628547668457 14.455053329467773 C8.741147994995117 14.61611270904541 8.967666625976562 14.664787292480469 9.121957778930664 14.722663879394531 L6.298768520355225 16.00884246826172 C6.14442777633667 15.950946807861328 5.917946815490723 15.902164459228516 5.883012771606445 15.741065979003906 L5.883012771606445 8.476874351501465 C6.132910251617432 6.617111682891846 6.528625011444092 5.6347975730896 7.674726963043213 4.151434421539307 L7.674726963043213 4.151434421539307"></path>
<path fill="none" stroke="black" stroke-width=".3" stroke-opacity="1.0"  filling="0" d="M12.000028610229492 14.006128311157227 L12.000028610229492 14.006128311157227 C13.563901901245117 14.321867942810059 14.846240997314453 14.708196640014648 15.522673606872559 16.341001510620117 C16.037227630615234 17.583053588867188 15.83260440826416 18.910892486572266 15.161323547363281 19.9282169342041 C14.490043640136719 20.945541381835938 13.352106094360352 21.65235137939453 12.000028610229492 21.65235137939453 C10.647954940795898 21.65235137939453 9.510005950927734 20.94554901123047 8.838716506958008 19.92823028564453 C8.167426109313965 18.910911560058594 7.962795257568359 17.58307647705078 8.477356910705566 16.34101676940918 C9.153796195983887 14.708212852478027 10.436155319213867 14.321881294250488 12.000028610229492 14.006128311157227 L12.000028610229492 14.006128311157227"></path>
<path fill="none" stroke="black" stroke-width=".3" stroke-opacity="1.0"  filling="0" d="M12.000027656555176 15.535335540771484 L12.000027656555176 15.535335540771484 C12.29435920715332 15.594128608703613 12.588690757751465 15.652922630310059 12.88302230834961 15.711715698242188 L12.097918510437012 17.07150650024414 C12.032804489135742 17.066871643066406 11.967195510864258 17.066875457763672 11.902081489562988 17.07150650024414 L11.117005348205566 15.711715698242188 C11.411346435546875 15.652922630310059 11.705686569213867 15.594128608703613 12.000027656555176 15.535335540771484 L12.000027656555176 15.535335540771484"></path>
<path fill="none" stroke="black" stroke-width=".3" stroke-opacity="1.0"  filling="0" d="M10.608015060424805 16.006389617919922 L11.392838478088379 17.365764617919922 C11.35994815826416 17.4222354888916 11.327057838439941 17.478708267211914 11.294167518615723 17.535179138183594 L9.725550651550293 17.535179138183594 C10.019705772399902 17.025583267211914 10.313859939575195 16.5159854888916 10.608015060424805 16.006389617919922 L10.608015060424805 16.006389617919922"></path>
<path fill="none" stroke="black" stroke-width=".3" stroke-opacity="1.0"  filling="0" d="M13.391986846923828 16.006389617919922 L13.391986846923828 16.006389617919922 C13.68616008758545 16.5159854888916 13.98033332824707 17.025583267211914 14.274506568908691 17.535179138183594 L12.705887794494629 17.535179138183594 C12.672987937927246 17.478708267211914 12.64008903503418 17.4222354888916 12.607189178466797 17.365764617919922 L13.391986846923828 16.006389617919922"></path>
<path fill="none" stroke="black" stroke-width=".3" stroke-opacity="1.0"  filling="0" d="M9.725605964660645 18.123329162597656 L11.294196128845215 18.123329162597656 C11.327086448669434 18.17976188659668 11.359976768493652 18.236196517944336 11.392867088317871 18.29262924194336 L10.608098030090332 19.65200424194336 C10.313934326171875 19.142446517944336 10.019769668579102 18.63288688659668 9.725605964660645 18.123329162597656 L9.725605964660645 18.123329162597656"></path>
<path fill="none" stroke="black" stroke-width=".3" stroke-opacity="1.0"  filling="0" d="M12.705860137939453 18.123329162597656 L14.274449348449707 18.123329162597656 C13.98028564453125 18.632905960083008 13.686121940612793 19.142484664916992 13.391958236694336 19.652061462402344 L12.607133865356445 18.292741775512695 C12.640042304992676 18.236270904541016 12.672951698303223 18.179800033569336 12.705860137939453 18.123329162597656 L12.705860137939453 18.123329162597656"></path>
<path fill="none" stroke="black" stroke-width=".3" stroke-opacity="1.0"  filling="0" d="M11.902166366577148 18.58688735961914 L11.902166366577148 18.58688735961914 C11.96722412109375 18.591520309448242 12.032776832580566 18.591524124145508 12.097834587097168 18.58688735961914 L12.882938385009766 19.946792602539062 C12.305713653564453 20.06203269958496 11.69430160522461 20.061986923217773 11.117090225219727 19.946678161621094 L11.902166366577148 18.58688735961914"></path></svg>