<svg xmlns="http://www.w3.org/2000/svg" viewBox="0.0 0.0 24.0 24.0" height="200px" width="200px"><path fill="none" stroke="black" stroke-width=".3" stroke-opacity="1.0"  filling="0" d="M20.313461303710938 8.5910062789917 L20.313461303710938 8.5910062789917 C20.851314544677734 8.813782691955566 21.51536750793457 8.84768295288086 21.927019119262695 9.259334564208984 C22.33867073059082 9.67098617553711 22.372570037841797 10.335040092468262 22.595346450805664 10.872892379760742 L22.595346450805664 13.085745811462402 L21.402233123779297 13.085745811462402 L21.402233123779297 10.87472915649414 C21.039308547973633 10.506948471069336 20.830158233642578 9.77138614654541 20.313461303710938 9.77138614654541 C18.17024040222168 9.77138614654541 19.571292877197266 12.072614669799805 20.98528289794922 11.892240524291992 L20.98528289794922 13.054117202758789 C19.48771095275879 13.278212547302246 18.97157859802246 12.72803783416748 18.141029357910156 11.572931289672852 L18.141029357910156 13.085745811462402 L16.94713020324707 13.085745811462402 L16.94713020324707 10.829976081848145 C16.594223022460938 10.477068901062012 16.387495040893555 9.771255493164062 15.888408660888672 9.771255493164062 C15.389322280883789 9.771255493164062 15.182594299316406 10.477068901062012 14.829687118530273 10.829976081848145 L14.829687118530273 13.085745811462402 L13.635787010192871 13.085745811462402 L13.635787010192871 11.571093559265137 C12.472489356994629 13.191463470458984 9.180944442749023 14.066347122192383 9.18094539642334 10.872892379760742 C9.180946350097656 8.957171440124512 11.44417953491211 7.941202640533447 12.894866943359375 9.096086502075195 C13.284318923950195 9.406126976013184 13.423198699951172 9.939921379089355 13.68736457824707 10.361839294433594 L13.68736457824707 10.361839294433594 C15.055882453918457 8.135202407836914 16.71965789794922 8.134209632873535 18.08918571472168 10.360527038574219 L18.08918571472168 10.360527038574219 C18.592348098754883 9.557750701904297 19.419931411743164 8.906017303466797 20.313457489013672 8.5910062789917 L20.313457489013672 8.5910062789917"></path>
<path fill="none" stroke="black" stroke-width=".3" stroke-opacity="1.0"  filling="0" d="M8.93708610534668 9.746135711669922 L8.93708610534668 9.746135711669922 C8.735220909118652 10.633621215820312 8.927794456481934 11.600217819213867 9.221223831176758 12.461773872375488 L9.221223831176758 13.085824012756348 L8.02745532989502 13.085824012756348 L8.02745532989502 10.829923629760742 C7.674548625946045 10.477017402648926 7.467820644378662 9.771203994750977 6.968735218048096 9.771203994750977 C6.469618320465088 9.771203994750977 6.262833118438721 10.477017402648926 5.909882068634033 10.829923629760742 L5.909882068634033 13.085824012756348 L4.716010570526123 13.085824012756348 L4.716115474700928 10.829923629760742 C4.363208293914795 10.477017402648926 4.156479835510254 9.771203994750977 3.6573944091796875 9.771203994750977 C3.158277988433838 9.771203994750977 2.95149302482605 10.477017402648926 2.5985422134399414 10.829923629760742 L2.5985422134399414 13.085824012756348 L1.404642105102539 13.085824012756348 L1.404642105102539 10.841998100280762 C2.353515863418579 8.551372528076172 3.0548171997070312 8.325371742248535 5.312999248504639 9.31474781036377 L5.312999248504639 9.31474781036377 C7.138812065124512 8.51486873626709 7.558944225311279 8.323960304260254 8.93708610534668 9.746135711669922 L8.93708610534668 9.746135711669922"></path>
<path fill="none" stroke="black" stroke-width=".3" stroke-opacity="1.0"  filling="0" d="M11.462963104248047 11.977941513061523 L11.462963104248047 11.977941513061523 C11.095182418823242 11.610203742980957 10.359620094299316 11.394819259643555 10.359620094299316 10.87472915649414 C10.359620094299316 8.163498878479004 12.566305160522461 10.643712997436523 12.566305160522461 10.87472915649414 C12.566305160522461 11.394819259643555 11.830743789672852 11.610203742980957 11.462963104248047 11.977941513061523 L11.462963104248047 11.977941513061523"></path>
<path fill="none" stroke="black" stroke-width=".3" stroke-opacity="1.0"  filling="0" d="M10.826455116271973 14.021659851074219 L10.934991836547852 14.021659851074219 C10.940328598022461 14.026996612548828 10.94566535949707 14.032333374023438 10.95100212097168 14.037670135498047 L10.95100212097168 14.154080390930176 C10.94566535949707 14.159374237060547 10.940328598022461 14.164667129516602 10.934991836547852 14.169960975646973 L10.826455116271973 14.169960975646973 C10.821161270141602 14.164667129516602 10.815868377685547 14.159374237060547 10.810574531555176 14.154080390930176 L10.810574531555176 14.037670135498047 C10.815868377685547 14.032333374023438 10.821161270141602 14.026996612548828 10.826455116271973 14.021659851074219 L10.826455116271973 14.021659851074219"></path>
<path fill="none" stroke="black" stroke-width=".3" stroke-opacity="1.0"  filling="0" d="M15.407686233520508 14.021662712097168 L15.516222953796387 14.021662712097168 C15.521515846252441 14.026999473571777 15.526809692382812 14.032337188720703 15.532102584838867 14.037673950195312 L15.532102584838867 14.154084205627441 C15.526809692382812 14.159378051757812 15.521515846252441 14.164670944213867 15.516222953796387 14.169964790344238 L15.407686233520508 14.169964790344238 C15.402349472045898 14.164670944213867 15.397012710571289 14.159378051757812 15.39167594909668 14.154084205627441 L15.39167594909668 14.037673950195312 C15.397012710571289 14.032337188720703 15.402349472045898 14.026999473571777 15.407686233520508 14.021662712097168 L15.407686233520508 14.021662712097168"></path>
<path fill="none" stroke="black" stroke-width=".3" stroke-opacity="1.0"  filling="0" d="M16.639249801635742 14.021666526794434 L16.741092681884766 14.021666526794434 C16.74647331237793 14.027003288269043 16.751853942871094 14.032340049743652 16.757234573364258 14.037676811218262 L16.75881004333496 14.42838191986084 C16.912389755249023 14.353715896606445 17.121408462524414 14.486196517944336 17.237184524536133 14.611725807189941 L17.237184524536133 15.09009838104248 C17.231847763061523 15.095392227172852 17.22650909423828 15.100685119628906 17.221172332763672 15.105978965759277 L17.119068145751953 15.105978965759277 C17.11381721496582 15.100685119628906 17.10856819152832 15.095392227172852 17.103317260742188 15.09009838104248 L17.103317260742188 14.643616676330566 C17.027185440063477 14.556901931762695 16.836244583129883 14.551380157470703 16.757234573364258 14.635479927062988 L16.757234573364258 15.09009838104248 C16.751853942871094 15.095392227172852 16.74647331237793 15.100685119628906 16.741092681884766 15.105978965759277 L16.639249801635742 15.105978965759277 C16.633869171142578 15.100685119628906 16.628488540649414 15.095392227172852 16.62310791015625 15.09009838104248 L16.62310791015625 14.037676811218262 C16.628488540649414 14.032340049743652 16.633869171142578 14.027003288269043 16.639249801635742 14.021666526794434 L16.639249801635742 14.021666526794434"></path>
<path fill="none" stroke="black" stroke-width=".3" stroke-opacity="1.0"  filling="0" d="M20.05118751525879 14.021666526794434 L20.15959358215332 14.021666526794434 C20.16493034362793 14.027003288269043 20.170265197753906 14.032341003417969 20.175601959228516 14.037677764892578 L20.175601959228516 14.154088973999023 C20.170265197753906 14.159381866455078 20.16493034362793 14.16467571258545 20.15959358215332 14.169968605041504 L20.05118751525879 14.169968605041504 C20.04585075378418 14.16467571258545 20.04051399230957 14.159381866455078 20.03517723083496 14.154088973999023 L20.03517723083496 14.037677764892578 C20.04051399230957 14.032341003417969 20.04585075378418 14.027003288269043 20.05118751525879 14.021666526794434 L20.05118751525879 14.021666526794434"></path>
<path fill="none" stroke="black" stroke-width=".3" stroke-opacity="1.0"  filling="0" d="M9.237771034240723 14.021684646606445 L9.339875221252441 14.021684646606445 C9.345169067382812 14.027022361755371 9.350462913513184 14.03235912322998 9.355756759643555 14.037696838378906 L9.357331275939941 14.42984390258789 C10.034603118896484 14.1012544631958 10.032142639160156 15.349056243896484 9.357331275939941 15.016754150390625 L9.355756759643555 15.090117454528809 C9.350462913513184 15.09541130065918 9.345169067382812 15.100704193115234 9.339875221252441 15.105998039245605 L9.237771034240723 15.105998039245605 C9.232477188110352 15.100704193115234 9.227184295654297 15.09541130065918 9.221890449523926 15.090117454528809 L9.221890449523926 14.037696838378906 C9.227184295654297 14.03235912322998 9.232477188110352 14.027022361755371 9.237771034240723 14.021684646606445 L9.237771034240723 14.021684646606445"></path>
<path fill="none" stroke="black" stroke-width=".3" stroke-opacity="1.0"  filling="0" d="M13.072359085083008 14.101366996765137 L13.174463272094727 14.101366996765137 C13.179757118225098 14.106660842895508 13.185050010681152 14.111953735351562 13.190343856811523 14.117247581481934 L13.190343856811523 14.332613945007324 C13.193580627441406 14.335763931274414 13.196818351745605 14.338912963867188 13.200055122375488 14.342062950134277 L13.321189880371094 14.342062950134277 C13.32652759552002 14.347443580627441 13.331864356994629 14.352825164794922 13.337202072143555 14.358205795288086 L13.337202072143555 14.434588432312012 C13.331864356994629 14.439925193786621 13.32652759552002 14.445262908935547 13.321189880371094 14.450599670410156 L13.200055122375488 14.450599670410156 C13.196818351745605 14.453791618347168 13.193580627441406 14.45698356628418 13.190343856811523 14.460175514221191 L13.190343856811523 14.892351150512695 C13.222804069519043 14.92476749420166 13.255265235900879 14.957184791564941 13.287725448608398 14.989601135253906 L13.32119083404541 14.989601135253906 C13.326528549194336 14.994937896728516 13.331866264343262 15.000275611877441 13.337203979492188 15.00561237335205 L13.337203979492188 15.098006248474121 C13.331866264343262 15.10334300994873 13.326528549194336 15.108680725097656 13.32119083404541 15.114017486572266 L13.262264251708984 15.114017486572266 C13.193669319152832 15.041704177856445 13.125073432922363 14.969389915466309 13.056478500366211 14.897076606750488 L13.056478500366211 14.460175514221191 C13.053282737731934 14.45698356628418 13.050087928771973 14.453791618347168 13.046892166137695 14.450599670410156 L12.983109474182129 14.450599670410156 C12.977816581726074 14.445262908935547 12.972522735595703 14.439925193786621 12.967229843139648 14.434588432312012 L12.967229843139648 14.358205795288086 C12.972522735595703 14.352825164794922 12.977816581726074 14.347443580627441 12.983109474182129 14.342062950134277 L13.046892166137695 14.342062950134277 C13.050087928771973 14.338912963867188 13.053282737731934 14.335763931274414 13.056478500366211 14.332613945007324 L13.056478500366211 14.117247581481934 C13.061772346496582 14.111953735351562 13.067065238952637 14.106660842895508 13.072359085083008 14.101366996765137 L13.072359085083008 14.101366996765137"></path>
<path fill="none" stroke="black" stroke-width=".3" stroke-opacity="1.0"  filling="0" d="M20.505701065063477 14.101371765136719 L20.607807159423828 14.101371765136719 C20.613100051879883 14.106664657592773 20.61839485168457 14.111957550048828 20.623687744140625 14.117250442504883 L20.623687744140625 14.33261775970459 C20.626882553100586 14.33576774597168 20.63007926940918 14.338916778564453 20.63327407836914 14.342066764831543 L20.754405975341797 14.342066764831543 C20.759742736816406 14.347447395324707 20.76508140563965 14.352828979492188 20.770418167114258 14.358209609985352 L20.770418167114258 14.434592247009277 C20.76508140563965 14.439929008483887 20.759742736816406 14.445266723632812 20.754405975341797 14.450603485107422 L20.63327407836914 14.450603485107422 C20.63007926940918 14.453795433044434 20.626882553100586 14.456986427307129 20.623687744140625 14.46017837524414 L20.623687744140625 14.892354965209961 C20.656103134155273 14.924771308898926 20.688520431518555 14.957188606262207 20.720935821533203 14.989604949951172 L20.75440216064453 14.989604949951172 C20.75973892211914 14.994941711425781 20.76507568359375 15.000279426574707 20.77041244506836 15.005616188049316 L20.77041244506836 15.098011016845703 C20.76507568359375 15.103347778320312 20.75973892211914 15.108684539794922 20.75440216064453 15.114021301269531 L20.695343017578125 15.114021301269531 C20.6268367767334 15.041707038879395 20.55832862854004 14.969393730163574 20.489822387695312 14.897079467773438 L20.489822387695312 14.46017837524414 C20.48662757873535 14.456986427307129 20.483430862426758 14.453795433044434 20.480236053466797 14.450603485107422 L20.416454315185547 14.450603485107422 C20.411115646362305 14.445266723632812 20.405778884887695 14.439929008483887 20.400440216064453 14.434592247009277 L20.400440216064453 14.358209609985352 C20.405778884887695 14.352828979492188 20.411115646362305 14.347447395324707 20.416454315185547 14.342066764831543 L20.480236053466797 14.342066764831543 C20.483430862426758 14.338916778564453 20.48662757873535 14.33576774597168 20.489822387695312 14.33261775970459 L20.489822387695312 14.117250442504883 C20.495115280151367 14.111957550048828 20.500408172607422 14.106664657592773 20.505701065063477 14.101371765136719 L20.505701065063477 14.101371765136719"></path>
<path fill="none" stroke="black" stroke-width=".3" stroke-opacity="1.0"  filling="0" d="M10.457969665527344 14.324563980102539 L10.457969665527344 14.324563980102539 C10.513788223266602 14.345091819763184 10.60891342163086 14.345515251159668 10.617552757263184 14.40435791015625 L10.558363914489746 14.482315063476562 C10.440084457397461 14.500303268432617 10.324739456176758 14.57595157623291 10.253883361816406 14.672351837158203 L10.253883361816406 15.090091705322266 C10.248546600341797 15.095385551452637 10.243208885192871 15.100678443908691 10.237872123718262 15.105972290039062 L10.13576602935791 15.105972290039062 C10.130475044250488 15.100678443908691 10.125184059143066 15.095385551452637 10.119893074035645 15.090091705322266 L10.119893074035645 14.358160972595215 C10.125186920166016 14.35278034210205 10.13047981262207 14.34739875793457 10.135773658752441 14.342018127441406 L10.23787784576416 14.342018127441406 C10.243215560913086 14.34739875793457 10.248553276062012 14.35278034210205 10.253890991210938 14.358160972595215 L10.255465507507324 14.436248779296875 C10.322966575622559 14.399020195007324 10.39046859741211 14.36179256439209 10.457969665527344 14.324563980102539 L10.457969665527344 14.324563980102539"></path>
<path fill="none" stroke="black" stroke-width=".3" stroke-opacity="1.0"  filling="0" d="M11.598422050476074 14.324563980102539 L11.598422050476074 14.324563980102539 C11.686659812927246 14.420282363891602 11.774897575378418 14.516000747680664 11.86313533782959 14.611719131469727 L11.86313533782959 15.090091705322266 C11.85779857635498 15.095385551452637 11.852460861206055 15.100678443908691 11.847124099731445 15.105972290039062 L11.745149612426758 15.105972290039062 C11.739855766296387 15.100678443908691 11.734562873840332 15.095385551452637 11.729269027709961 15.090091705322266 L11.729269027709961 14.643610000610352 C11.653203964233398 14.55683708190918 11.462259292602539 14.551431655883789 11.383186340332031 14.635473251342773 L11.383186340332031 15.090091705322266 C11.377848625183105 15.095385551452637 11.372511863708496 15.100678443908691 11.36717414855957 15.105972290039062 L11.265331268310547 15.105972290039062 C11.259994506835938 15.100678443908691 11.254656791687012 15.095385551452637 11.249320030212402 15.090091705322266 L11.249320030212402 14.358160972595215 C11.254656791687012 14.35278034210205 11.259994506835938 14.34739875793457 11.265331268310547 14.342018127441406 L11.36717414855957 14.342018127441406 C11.372511863708496 14.34739875793457 11.377848625183105 14.35278034210205 11.383186340332031 14.358160972595215 L11.384761810302734 14.428375244140625 C11.455982208251953 14.393771171569824 11.527201652526855 14.35916805267334 11.598422050476074 14.324563980102539 L11.598422050476074 14.324563980102539"></path>
<path fill="none" stroke="black" stroke-width=".3" stroke-opacity="1.0"  filling="0" d="M14.356505393981934 14.324566841125488 L14.356505393981934 14.324566841125488 C14.430875778198242 14.364420890808105 14.505245208740234 14.404273986816406 14.579615592956543 14.444128036499023 L14.58119010925293 14.444128036499023 C14.745135307312012 14.364852905273438 14.975761413574219 14.4796781539917 15.101167678833008 14.611722946166992 L15.101167678833008 15.090095520019531 C15.095874786376953 15.095389366149902 15.090580940246582 15.100682258605957 15.085288047790527 15.105976104736328 L14.983181953430176 15.105976104736328 C14.977843284606934 15.100682258605957 14.972503662109375 15.095389366149902 14.967164993286133 15.090095520019531 L14.967164993286133 14.643613815307617 C14.891098976135254 14.556840896606445 14.700155258178711 14.551435470581055 14.621082305908203 14.635477066040039 L14.621082305908203 15.090095520019531 C14.615788459777832 15.095389366149902 14.610495567321777 15.100682258605957 14.605201721191406 15.105976104736328 L14.503227233886719 15.105976104736328 C14.49789047241211 15.100682258605957 14.492552757263184 15.095389366149902 14.487215995788574 15.090095520019531 L14.487215995788574 14.643613815307617 C14.411150932312012 14.556840896606445 14.220207214355469 14.551436424255371 14.141134262084961 14.635477066040039 L14.141134262084961 15.090095520019531 C14.135797500610352 15.095389366149902 14.130459785461426 15.100682258605957 14.125123023986816 15.105976104736328 L14.023148536682129 15.105976104736328 C14.017854690551758 15.100682258605957 14.012561798095703 15.095389366149902 14.007267951965332 15.090095520019531 L14.007267951965332 14.358165740966797 C14.012561798095703 14.352784156799316 14.017854690551758 14.347403526306152 14.023148536682129 14.342021942138672 L14.125123023986816 14.342021942138672 C14.130459785461426 14.347403526306152 14.135797500610352 14.352784156799316 14.141134262084961 14.358165740966797 L14.142582893371582 14.42837905883789 C14.213890075683594 14.39377498626709 14.285198211669922 14.359170913696289 14.356505393981934 14.324566841125488 L14.356505393981934 14.324566841125488"></path>
<path fill="none" stroke="black" stroke-width=".3" stroke-opacity="1.0"  filling="0" d="M22.21258544921875 14.324567794799805 L22.21258544921875 14.324567794799805 C22.268325805664062 14.345084190368652 22.36361312866211 14.345548629760742 22.371910095214844 14.404362678527832 L22.312986373901367 14.482319831848145 C22.194650650024414 14.500418663024902 22.079219818115234 14.57595157623291 22.00824737548828 14.672357559204102 L22.00824737548828 15.090097427368164 C22.002954483032227 15.095390319824219 21.99765968322754 15.10068416595459 21.992366790771484 15.105977058410645 L21.890392303466797 15.105977058410645 C21.885095596313477 15.10068416595459 21.87980079650879 15.095390319824219 21.87450408935547 15.090097427368164 L21.87450408935547 14.358165740966797 C21.879796981811523 14.352785110473633 21.88509178161621 14.347404479980469 21.890384674072266 14.342023849487305 L21.992359161376953 14.342023849487305 C21.997652053833008 14.347404479980469 22.002946853637695 14.352785110473633 22.00823974609375 14.358165740966797 L22.00994873046875 14.436254501342773 C22.07749366760254 14.399025917053223 22.14504051208496 14.361796379089355 22.21258544921875 14.324567794799805 L22.21258544921875 14.324567794799805"></path>
<path fill="none" stroke="black" stroke-width=".3" stroke-opacity="1.0"  filling="0" d="M10.829730033874512 14.342018127441406 L10.931836128234863 14.342018127441406 C10.937129974365234 14.34739875793457 10.942422866821289 14.35278034210205 10.94771671295166 14.358160972595215 L10.94771671295166 15.090091705322266 C10.942422866821289 15.095385551452637 10.937129974365234 15.100678443908691 10.931836128234863 15.105972290039062 L10.829730033874512 15.105972290039062 C10.824437141418457 15.100678443908691 10.819143295288086 15.095385551452637 10.813850402832031 15.090091705322266 L10.813850402832031 14.358160972595215 C10.819143295288086 14.35278034210205 10.824437141418457 14.34739875793457 10.829730033874512 14.342018127441406 L10.829730033874512 14.342018127441406"></path>
<path fill="none" stroke="black" stroke-width=".3" stroke-opacity="1.0"  filling="0" d="M15.410837173461914 14.342021942138672 L15.512943267822266 14.342021942138672 C15.51823616027832 14.347402572631836 15.523529052734375 14.352784156799316 15.52882194519043 14.35816478729248 L15.52882194519043 15.090095520019531 C15.523529052734375 15.095389366149902 15.51823616027832 15.100682258605957 15.512943267822266 15.105976104736328 L15.410837173461914 15.105976104736328 C15.40554428100586 15.100682258605957 15.400250434875488 15.095389366149902 15.394957542419434 15.090095520019531 L15.394957542419434 14.35816478729248 C15.400250434875488 14.352784156799316 15.40554428100586 14.347402572631836 15.410837173461914 14.342021942138672 L15.410837173461914 14.342021942138672"></path>
<path fill="none" stroke="black" stroke-width=".3" stroke-opacity="1.0"  filling="0" d="M17.883466720581055 14.342023849487305 L17.991744995117188 14.342023849487305 C17.998655319213867 14.347405433654785 18.00556755065918 14.35278606414795 18.01247787475586 14.35816764831543 L18.184797286987305 14.909904479980469 L18.35698699951172 14.35816764831543 C18.363374710083008 14.35278606414795 18.369760513305664 14.347405433654785 18.376148223876953 14.342023849487305 L18.458959579467773 14.342023849487305 C18.46591567993164 14.347405433654785 18.472871780395508 14.35278606414795 18.479827880859375 14.35816764831543 L18.656612396240234 14.909904479980469 L18.821060180664062 14.35816764831543 C18.82792854309082 14.35278606414795 18.834794998168945 14.347405433654785 18.841663360595703 14.342023849487305 L18.9502010345459 14.342023849487305 C18.953920364379883 14.347405433654785 18.957637786865234 14.35278606414795 18.96135711669922 14.35816764831543 L18.720529556274414 15.090097427368164 C18.714141845703125 15.095391273498535 18.70775604248047 15.10068416595459 18.70136833190918 15.105978012084961 L18.610549926757812 15.105978012084961 C18.60416030883789 15.100685119628906 18.59777069091797 15.095391273498535 18.591381072998047 15.09009838104248 L18.41604232788086 14.543217658996582 L18.24201774597168 15.090097427368164 C18.235673904418945 15.095391273498535 18.229331970214844 15.10068416595459 18.22298812866211 15.105978012084961 L18.130462646484375 15.105978012084961 C18.12407684326172 15.10068416595459 18.11768913269043 15.095391273498535 18.111303329467773 15.090097427368164 L17.872180938720703 14.35816764831543 C17.87594223022461 14.35278606414795 17.87970542907715 14.347405433654785 17.883466720581055 14.342023849487305 L17.883466720581055 14.342023849487305"></path>
<path fill="none" stroke="black" stroke-width=".3" stroke-opacity="1.0"  filling="0" d="M20.054336547851562 14.342025756835938 L20.156444549560547 14.342025756835938 C20.1617374420166 14.347406387329102 20.16703224182129 14.352787971496582 20.172325134277344 14.358168601989746 L20.172325134277344 15.090099334716797 C20.16703224182129 15.095392227172852 20.1617374420166 15.100686073303223 20.156444549560547 15.105978965759277 L20.054336547851562 15.105978965759277 C20.048999786376953 15.100686073303223 20.043663024902344 15.095392227172852 20.038326263427734 15.090099334716797 L20.038326263427734 14.358168601989746 C20.043663024902344 14.352787971496582 20.048999786376953 14.347406387329102 20.054336547851562 14.342025756835938 L20.054336547851562 14.342025756835938"></path>
<path fill="none" stroke="black" stroke-width=".3" stroke-opacity="1.0"  filling="0" d="M19.459203720092773 14.442682266235352 L19.459203720092773 14.442682266235352 C19.535947799682617 14.495031356811523 19.70193099975586 14.592233657836914 19.636241912841797 14.657922744750977 L19.28215980529785 14.657922744750977 C19.21694564819336 14.591760635375977 19.382476806640625 14.4950590133667 19.459203720092773 14.442682266235352 L19.459203720092773 14.442682266235352"></path>
<path fill="none" stroke="black" stroke-width=".3" stroke-opacity="1.0"  filling="0" d="M21.295249938964844 14.442689895629883 L21.295249938964844 14.442689895629883 C21.371992111206055 14.495038032531738 21.538002014160156 14.592259407043457 21.472288131713867 14.657920837402344 L21.118343353271484 14.657920837402344 C21.052650451660156 14.592279434204102 21.218549728393555 14.495049476623535 21.295249938964844 14.442689895629883 L21.295249938964844 14.442689895629883"></path>
<path fill="none" stroke="black" stroke-width=".3" stroke-opacity="1.0"  filling="0" d="M15.808063507080078 14.530462265014648 L15.808063507080078 14.530462265014648 C15.962404251098633 14.424991607666016 16.404945373535156 14.293244361877441 16.366233825683594 14.476128578186035 L16.2960205078125 14.533612251281738 C15.802034378051758 14.49873161315918 15.802789688110352 14.946754455566406 16.2960205078125 14.9147310256958 L16.366233825683594 14.97208309173584 C16.404176712036133 15.151341438293457 15.743579864501953 15.048125267028809 15.808063507080078 14.530457496643066 L15.808063507080078 14.530457496643066"></path>
<path fill="none" stroke="black" stroke-width=".3" stroke-opacity="1.0"  filling="0" d="M12.587514877319336 14.858833312988281 L12.587514877319336 14.858833312988281 C11.833897590637207 15.389577865600586 12.719029426574707 13.74145221710205 12.587514877319336 14.858833312988281 L12.587514877319336 14.858833312988281"></path>
<path fill="none" stroke="black" stroke-width=".3" stroke-opacity="1.0"  filling="0" d="M9.709844589233398 14.882757186889648 L9.709844589233398 14.882757186889648 C8.931794166564941 15.423614501953125 9.839402198791504 13.708126068115234 9.709844589233398 14.882757186889648 L9.709844589233398 14.882757186889648"></path>
<path fill="none" stroke="black" stroke-width=".3" stroke-opacity="1.0"  filling="0" d="M20.997066497802734 14.916202545166016 L20.997066497802734 14.916202545166016 C20.878585815429688 14.02307415008545 21.810489654541016 14.574271202087402 21.601299285888672 14.764881134033203 L21.118331909179688 14.764881134033203 C20.879894256591797 14.999974250793457 21.533571243286133 14.911598205566406 21.534488677978516 14.911477088928223 L21.599849700927734 14.970404624938965 C21.612751007080078 15.171733856201172 21.164072036743164 15.029362678527832 20.997055053710938 14.916202545166016 L20.997055053710938 14.916202545166016"></path>
<path fill="none" stroke="black" stroke-width=".3" stroke-opacity="1.0"  filling="0" d="M19.161151885986328 14.916204452514648 L19.161151885986328 14.916204452514648 C19.042818069458008 14.024178504943848 19.974956512451172 14.572497367858887 19.765384674072266 14.764883041381836 L19.282154083251953 14.764883041381836 C19.045103073120117 15.001957893371582 19.696826934814453 14.911693572998047 19.698450088500977 14.911479949951172 L19.76380729675293 14.970407485961914 C19.777915954589844 15.171609878540039 19.3281307220459 15.029337882995605 19.161149978637695 14.916204452514648 L19.161149978637695 14.916204452514648"></path>
<path fill="none" stroke="black" stroke-width=".3" stroke-opacity="1.0"  filling="0" d="M22.45821189880371 14.937004089355469 L22.579347610473633 14.937004089355469 C22.584684371948242 14.94229793548584 22.590023040771484 14.947590827941895 22.595359802246094 14.952884674072266 L22.595359802246094 15.09016227722168 C22.590023040771484 15.09545612335205 22.584684371948242 15.100749015808105 22.579347610473633 15.106042861938477 L22.45821189880371 15.106042861938477 C22.4528751373291 15.100749015808105 22.44753646850586 15.09545612335205 22.44219970703125 15.09016227722168 L22.44219970703125 14.952884674072266 C22.44753646850586 14.947590827941895 22.4528751373291 14.94229793548584 22.45821189880371 14.937004089355469 L22.45821189880371 14.937004089355469"></path>
<path fill="none" stroke="black" stroke-width=".3" stroke-opacity="1.0"  filling="0" d="M7.953670024871826 14.937064170837402 L8.074936866760254 14.937064170837402 C8.080229759216309 14.942314147949219 8.08552360534668 14.947564125061035 8.090816497802734 14.952814102172852 L8.090816497802734 15.090091705322266 C8.08552360534668 15.095385551452637 8.080229759216309 15.100678443908691 8.074936866760254 15.105972290039062 L7.953670024871826 15.105972290039062 C7.948376655578613 15.100678443908691 7.943083763122559 15.095385551452637 7.937790393829346 15.090091705322266 L7.937790393829346 14.952814102172852 C7.943083763122559 14.947564125061035 7.948376655578613 14.942314147949219 7.953670024871826 14.937064170837402 L7.953670024871826 14.937064170837402"></path>
<path fill="none" stroke="black" stroke-width=".3" stroke-opacity="1.0"  filling="0" d="M8.330068588256836 14.937064170837402 L8.451204299926758 14.937064170837402 C8.456498146057129 14.942314147949219 8.461791038513184 14.947564125061035 8.467084884643555 14.952814102172852 L8.467084884643555 15.090091705322266 C8.461791038513184 15.095385551452637 8.456498146057129 15.100678443908691 8.451204299926758 15.105972290039062 L8.330068588256836 15.105972290039062 C8.324775695800781 15.100678443908691 8.31948184967041 15.095385551452637 8.314188957214355 15.090091705322266 L8.314188957214355 14.952814102172852 C8.31948184967041 14.947564125061035 8.324775695800781 14.942314147949219 8.330068588256836 14.937064170837402 L8.330068588256836 14.937064170837402"></path>
<path fill="none" stroke="black" stroke-width=".3" stroke-opacity="1.0"  filling="0" d="M8.706336975097656 14.937064170837402 L8.827603340148926 14.937064170837402 C8.832940101623535 14.942314147949219 8.838277816772461 14.947564125061035 8.84361457824707 14.952814102172852 L8.84361457824707 15.090091705322266 C8.838277816772461 15.095385551452637 8.832940101623535 15.100678443908691 8.827603340148926 15.105972290039062 L8.706336975097656 15.105972290039062 C8.701043128967285 15.100678443908691 8.69575023651123 15.095385551452637 8.69045639038086 15.090091705322266 L8.69045639038086 14.952814102172852 C8.69575023651123 14.947564125061035 8.701043128967285 14.942314147949219 8.706336975097656 14.937064170837402 L8.706336975097656 14.937064170837402"></path>
<path fill="none" stroke="black" stroke-width=".3" stroke-opacity="1.0"  filling="0" d="M12.141033172607422 15.297439575195312 L12.141033172607422 15.297439575195312 C12.141515731811523 15.290002822875977 12.141999244689941 15.28256607055664 12.142481803894043 15.275129318237305 L12.207839965820312 15.209770202636719 C12.347055435180664 15.209770202636719 12.509760856628418 15.182061195373535 12.604975700378418 15.080498695373535 L12.603401184082031 14.991254806518555 C11.946824073791504 15.316695213317871 11.947153091430664 14.104120254516602 12.603401184082031 14.429805755615234 L12.604975700378418 14.358280181884766 C12.610312461853027 14.35285472869873 12.615649223327637 14.347430229187012 12.620985984802246 14.342004776000977 L12.723093032836914 14.342004776000977 C12.728385925292969 14.347430229187012 12.73367977142334 14.35285472869873 12.738972663879395 14.358280181884766 L12.738972663879395 15.072623252868652 C12.589468002319336 15.22424602508545 12.336790084838867 15.38123607635498 12.141037940979004 15.297439575195312 L12.141037940979004 15.297439575195312"></path></svg>