<svg xmlns="http://www.w3.org/2000/svg" viewBox="0.0 0.0 24.0 24.0" height="200px" width="200px"><path fill="none" stroke="black" stroke-width=".3" stroke-opacity="1.0"  filling="0" d="M23.891704559326172 19.75991439819336 L23.891704559326172 25.30143928527832 C23.510820388793945 25.671419143676758 23.129934310913086 26.041400909423828 22.74905014038086 26.411380767822266 L19.54759407043457 26.411380767822266 L19.54759407043457 25.596702575683594 L22.45221519470215 25.596702575683594 C22.658525466918945 25.37543296813965 22.96674156188965 25.15102767944336 22.96593475341797 24.848499298095703 L20.737680435180664 24.848499298095703 C20.291807174682617 24.760501861572266 19.74009895324707 24.88603973388672 19.400060653686523 24.584508895874023 C19.03514289855957 24.26091766357422 19.06163787841797 23.669645309448242 18.892425537109375 23.21221351623535 L18.892425537109375 21.375137329101562 C19.05228042602539 20.94123649597168 19.024221420288086 20.37819480895996 19.371992111206055 20.07343292236328 C19.722755432128906 19.766048431396484 20.281055450439453 19.864421844482422 20.735586166381836 19.759916305541992 L23.891704559326172 19.75991439819336"></path>
<path fill="none" stroke="black" stroke-width=".3" stroke-opacity="1.0"  filling="0" d="M5.554693222045898 19.760116577148438 L11.423996925354004 19.760116577148438 C12.003212928771973 20.026952743530273 12.516060829162598 20.57476806640625 12.70037841796875 21.18527603149414 L12.70037841796875 24.8485050201416 L11.771077156066895 24.8485050201416 L11.771077156066895 21.442659378051758 C11.4994535446167 21.139915466308594 11.227829933166504 20.83717155456543 10.956206321716309 20.534427642822266 L9.541580200195312 20.534427642822266 L9.541580200195312 24.8485050201416 L8.61012077331543 24.8485050201416 L8.61012077331543 20.534427642822266 L6.483339786529541 20.534427642822266 L6.483339786529541 24.8485050201416 L5.554693222045898 24.8485050201416 L5.554693222045898 19.760116577148438"></path>
<path fill="none" stroke="black" stroke-width=".3" stroke-opacity="1.0"  filling="0" d="M14.56048583984375 19.760116577148438 L18.148473739624023 19.760116577148438 L18.148473739624023 20.534427642822266 L14.888070106506348 20.534427642822266 C14.652953147888184 20.7524471282959 14.207447052001953 20.86879539489746 14.182720184326172 21.18848419189453 C14.159404754638672 21.489931106567383 14.584257125854492 21.640615463256836 14.785025596618652 21.866682052612305 L17.171478271484375 21.866682052612305 C18.800016403198242 22.555217742919922 18.682571411132812 24.21270751953125 17.112201690673828 24.8485050201416 L13.34036922454834 24.8485050201416 L13.34036922454834 24.072628021240234 L16.72331428527832 24.072628021240234 C16.94342613220215 23.84762954711914 17.387374877929688 23.712369918823242 17.383651733398438 23.397632598876953 C17.37964630126953 23.05898094177246 16.932130813598633 22.892724990844727 16.706369400024414 22.640270233154297 L14.495976448059082 22.640270233154297 C12.810603141784668 21.878618240356445 12.88703727722168 20.45301055908203 14.56048583984375 19.760116577148438 L14.56048583984375 19.760116577148438"></path>
<path fill="none" stroke="black" stroke-width=".3" stroke-opacity="1.0"  filling="0" d="M20.888225555419922 20.532855987548828 L20.888225555419922 20.532855987548828 C21.580772399902344 20.538436889648438 22.273365020751953 20.534229278564453 22.96593475341797 20.534229278564453 L22.96593475341797 24.07262420654297 L21.017438888549805 24.07262420654297 C19.308828353881836 23.05130386352539 19.380611419677734 21.72345733642578 20.888225555419922 20.532854080200195 L20.888225555419922 20.532854080200195"></path>
<path fill="none" stroke="black" stroke-width=".3" stroke-opacity="1.0"  filling="0" d="M2.626678466796875 23.773597717285156 L2.626678466796875 23.773597717285156 C2.9957568645477295 23.40452003479004 3.2119579315185547 22.666362762451172 3.7339134216308594 22.666362762451172 C5.354918479919434 22.666362762451172 5.0655341148376465 24.880830764770508 3.7339134216308594 24.880830764770508 C3.211958408355713 24.880830764770508 2.9957568645477295 24.142675399780273 2.626678466796875 23.773597717285156 L2.626678466796875 23.773597717285156"></path></svg>