<svg xmlns="http://www.w3.org/2000/svg" viewBox="0.0 0.0 24.0 24.0" height="200px" width="200px"><path fill="none" stroke="black" stroke-width=".3" stroke-opacity="1.0"  filling="0" d="M12.411781311035156 11.50725269317627 L12.851034164428711 10.070555686950684"></path>
<path fill="none" stroke="black" stroke-width=".3" stroke-opacity="1.0"  filling="0" d="M12.811954498291016 10.19975757598877 L12.811954498291016 10.19975757598877 C12.811942100524902 10.199748039245605 12.811924934387207 10.19974136352539 12.811909675598145 10.199743270874023 L12.811909675598145 10.199743270874023"></path>
<path fill="none" stroke="black" stroke-width=".3" stroke-opacity="1.0"  filling="0" d="M14.084661483764648 11.28897762298584 L14.084661483764648 12.57193660736084 L14.266106605529785 11.730934143066406 L15.141911506652832 12.644919395446777 L15.141911506652832 11.370746612548828 L14.960465431213379 12.205327987670898 L14.084661483764648 11.28897762298584"></path>
<path fill="none" stroke="black" stroke-width=".3" stroke-opacity="1.0"  filling="0" d="M16.274511337280273 11.28897762298584 L16.274511337280273 12.57193660736084 L16.455617904663086 11.730934143066406 L17.33176040649414 12.644919395446777 L17.33176040649414 11.370746612548828 L17.150314331054688 12.205327987670898 L16.274511337280273 11.28897762298584"></path>
<path fill="none" stroke="black" stroke-width=".3" stroke-opacity="1.0"  filling="0" d="M10.131040573120117 11.34709358215332 L10.131040573120117 11.34709358215332 C10.235335350036621 11.37637710571289 10.339630126953125 11.405661582946777 10.443924903869629 11.434945106506348 L10.443924903869629 11.649166107177734 C9.309527397155762 11.190930366516113 9.702818870544434 12.849323272705078 10.443924903869629 12.28608512878418 L10.443924903869629 12.505373001098633 C9.435525894165039 12.777264595031738 9.24138355255127 11.752443313598633 10.131040573120117 11.347433090209961 L10.131040573120117 11.347433090209961"></path>
<path fill="none" stroke="black" stroke-width=".3" stroke-opacity="1.0"  filling="0" d="M10.131040573120117 11.34709358215332 L10.131040573120117 11.34709358215332 C10.235335350036621 11.37637710571289 10.339630126953125 11.405661582946777 10.443924903869629 11.434945106506348 L10.443924903869629 11.649166107177734 C9.309527397155762 11.190930366516113 9.702818870544434 12.849323272705078 10.443924903869629 12.28608512878418 L10.443924903869629 12.505373001098633 C9.435525894165039 12.777264595031738 9.24138355255127 11.752443313598633 10.131040573120117 11.347433090209961 L10.131040573120117 11.347433090209961"></path>
<path fill="none" stroke="black" stroke-width=".3" stroke-opacity="1.0"  filling="0" d="M20.783960342407227 11.34709358215332 L20.783960342407227 11.34709358215332 C20.888139724731445 11.376378059387207 20.992321014404297 11.405661582946777 21.096500396728516 11.434946060180664 L21.096500396728516 11.649166107177734 C19.962648391723633 11.190672874450684 20.35531234741211 12.849373817443848 21.096500396728516 12.28608512878418 L21.096500396728516 12.505373001098633 C20.088218688964844 12.777514457702637 19.894641876220703 11.752286911010742 20.783958435058594 11.347433090209961 L20.783958435058594 11.347433090209961"></path>
<path fill="none" stroke="black" stroke-width=".3" stroke-opacity="1.0"  filling="0" d="M20.783960342407227 11.34709358215332 L20.783960342407227 11.34709358215332 C20.888139724731445 11.376378059387207 20.992321014404297 11.405661582946777 21.096500396728516 11.434946060180664 L21.096500396728516 11.649166107177734 C19.962648391723633 11.190672874450684 20.35531234741211 12.849373817443848 21.096500396728516 12.28608512878418 L21.096500396728516 12.505373001098633 C20.088218688964844 12.777514457702637 19.894641876220703 11.752286911010742 20.783958435058594 11.347433090209961 L20.783958435058594 11.347433090209961"></path>
<path fill="none" stroke="black" stroke-width=".3" stroke-opacity="1.0"  filling="0" d="M5.5604376792907715 11.37040901184082 L5.5604376792907715 12.499966621398926 L5.8662261962890625 12.571599006652832 L5.483737945556641 12.571599006652832 L5.5604376792907715 11.37040901184082"></path>
<path fill="none" stroke="black" stroke-width=".3" stroke-opacity="1.0"  filling="0" d="M8.438899993896484 11.37040901184082 L8.36253833770752 12.571599006652832 L8.438899993896484 11.37040901184082"></path>
<path fill="none" stroke="black" stroke-width=".3" stroke-opacity="1.0"  filling="0" d="M18.462669372558594 11.370746612548828 L18.462669372558594 12.571260452270508 L19.1256046295166 12.571260452270508 L18.643779754638672 12.400964736938477 L18.643779754638672 12.00023078918457 L19.111413955688477 11.829936027526855 L18.643779754638672 11.829936027526855 L18.643779754638672 11.541379928588867 L19.1256046295166 11.541379928588867 L18.462669372558594 11.370746612548828"></path>
<path fill="none" stroke="black" stroke-width=".3" stroke-opacity="1.0"  filling="0" d="M19.1256046295166 11.371084213256836 L18.643779754638672 11.541379928588867 L18.643779754638672 11.829936027526855 L19.111413955688477 12.00023078918457 L18.643779754638672 12.00023078918457 L18.643779754638672 12.400964736938477 L19.1256046295166 12.571260452270508 L18.462669372558594 12.571260452270508 L18.462669372558594 11.370746612548828 L19.12594223022461 11.370746612548828"></path>
<path fill="none" stroke="black" stroke-width=".3" stroke-opacity="1.0"  filling="0" d="M22.042924880981445 11.370746612548828 L22.500425338745117 12.571599006652832 L22.500425338745117 11.54104232788086 L22.775802612304688 11.370746612548828 L22.042924880981445 11.370746612548828"></path>
<path fill="none" stroke="black" stroke-width=".3" stroke-opacity="1.0"  filling="0" d="M12.455029487609863 11.378517150878906 L12.455029487609863 11.378517150878906 C12.93819522857666 11.778194427490234 13.041035652160645 12.83512020111084 12.082340240478516 12.566530227661133 C11.131364822387695 12.300103187561035 11.847794532775879 11.434267044067383 12.455029487609863 11.378517150878906 L12.455029487609863 11.378517150878906"></path>
<path fill="none" stroke="black" stroke-width=".3" stroke-opacity="1.0"  filling="0" d="M12.455029487609863 11.378517150878906 L12.455029487609863 11.378517150878906 C12.93819522857666 11.778194427490234 13.041035652160645 12.83512020111084 12.082340240478516 12.566530227661133 C11.131364822387695 12.300103187561035 11.847794532775879 11.434267044067383 12.455029487609863 11.378517150878906 L12.455029487609863 11.378517150878906"></path>
<path fill="none" stroke="black" stroke-width=".3" stroke-opacity="1.0"  filling="0" d="M7.06910514831543 11.44204044342041 L6.992743015289307 12.571599006652832 L6.992743015289307 11.44204044342041 L6.681886672973633 11.37040901184082 L7.06910514831543 11.44204044342041"></path>
<path fill="none" stroke="black" stroke-width=".3" stroke-opacity="1.0"  filling="0" d="M12.411441802978516 11.51401138305664 L12.411441802978516 11.51401138305664 C14.175033569335938 12.966630935668945 10.134794235229492 11.730628967285156 12.411441802978516 11.51401138305664 L12.411441802978516 11.51401138305664"></path>
<path fill="none" stroke="black" stroke-width=".3" stroke-opacity="1.0"  filling="0" d="M22.775802612304688 11.54104232788086 L22.500425338745117 11.54104232788086 L22.319316864013672 12.571599006652832 L22.319316864013672 11.54104232788086 L22.042924880981445 11.370746612548828 L22.775802612304688 11.540703773498535"></path>
<path fill="none" stroke="black" stroke-width=".3" stroke-opacity="1.0"  filling="0" d="M10.952448844909668 11.599905967712402 L10.952448844909668 11.599905967712402 C10.952463150024414 11.599888801574707 10.952470779418945 11.59986400604248 10.952468872070312 11.599842071533203 L10.952468872070312 11.599842071533203"></path>
<path fill="none" stroke="black" stroke-width=".3" stroke-opacity="1.0"  filling="0" d="M11.739385604858398 11.841086387634277 L11.681943893432617 11.823515892028809"></path>
<path fill="none" stroke="black" stroke-width=".3" stroke-opacity="1.0"  filling="0" d="M4.315998554229736 12.096866607666016 L4.392361164093018 11.37040901184082 L4.392361164093018 12.11916732788086 C4.244562149047852 12.717753410339355 3.7248213291168213 12.717691421508789 3.577037811279297 12.11916732788086 L3.577037811279297 11.37040901184082 L3.6534013748168945 12.096866607666016 C3.7633578777313232 12.632309913635254 4.206028938293457 12.632369995117188 4.315998554229736 12.096866607666016 L4.315998554229736 12.096866607666016"></path>
<path fill="none" stroke="black" stroke-width=".3" stroke-opacity="1.0"  filling="0" d="M12.721624374389648 12.110719680786133 L12.721624374389648 12.110719680786133 C12.423235893249512 12.480109214782715 11.60179615020752 12.563714981079102 11.819464683532715 11.831624984741211 C12.035688400268555 11.10439395904541 12.682859420776367 11.643838882446289 12.721622467041016 12.110719680786133 L12.721622467041016 12.110719680786133"></path>
<path fill="none" stroke="black" stroke-width=".3" stroke-opacity="1.0"  filling="0" d="M13.307520866394043 12.319872856140137 L13.307520866394043 12.319872856140137 C13.307520866394043 12.319872856140137 13.307520866394043 12.31987190246582 13.307520866394043 12.31987190246582 L13.307520866394043 12.31987190246582"></path>
<path fill="none" stroke="black" stroke-width=".3" stroke-opacity="1.0"  filling="0" d="M12.778051376342773 12.158361434936523 L13.438959121704102 12.360418319702148"></path>
<path fill="none" stroke="black" stroke-width=".3" stroke-opacity="1.0"  filling="0" d="M11.67045783996582 13.930582046508789 L12.119171142578125 12.463136672973633"></path>
<path fill="none" stroke="black" stroke-width=".3" stroke-opacity="1.0"  filling="0" d="M2.526884078979492 12.57193660736084 L2.321786880493164 11.577871322631836 L1.8994264602661133 12.611806869506836 L1.4787578582763672 11.577871322631836 L1.2000007629394531 12.571260452270508 L1.458146095275879 11.330876350402832 L1.8994264602661133 12.423604011535645 L2.342060089111328 11.33121395111084 L2.526884078979492 12.571599006652832"></path>
<path fill="none" stroke="black" stroke-width=".3" stroke-opacity="1.0"  filling="0" d="M14.266106605529785 12.57193660736084 L14.084661483764648 11.28897762298584 L14.960465431213379 12.205327987670898 L15.141911506652832 11.370746612548828 L15.141911506652832 12.644919395446777 L14.266106605529785 11.730934143066406 L14.266106605529785 12.571599006652832"></path>
<path fill="none" stroke="black" stroke-width=".3" stroke-opacity="1.0"  filling="0" d="M16.455617904663086 12.57193660736084 L16.274511337280273 11.28897762298584 L17.150314331054688 12.205327987670898 L17.33176040649414 11.370746612548828 L17.33176040649414 12.644919395446777 L16.455617904663086 11.730934143066406 L16.455617904663086 12.571599006652832"></path>
<path fill="none" stroke="black" stroke-width=".3" stroke-opacity="1.0"  filling="0" d="M11.630586624145508 14.061344146728516 L11.630586624145508 14.061344146728516 C11.20797061920166 13.58523178100586 12.231916427612305 14.020135879516602 11.630586624145508 14.061344146728516 L11.630586624145508 14.061344146728516"></path></svg>