<svg xmlns="http://www.w3.org/2000/svg" viewBox="0.0 0.0 24.0 24.0" height="200px" width="200px"><path fill="none" stroke="black" stroke-width=".3" stroke-opacity="1.0"  filling="0" d="M14.132020950317383 9.566581726074219 L14.97258186340332 10.407142639160156 L14.825094223022461 10.555370330810547 L14.132020950317383 9.858466148376465 L13.435184478759766 10.55510139465332 L13.291257858276367 10.411176681518555 L14.132020950317383 9.566581726074219"></path>
<path fill="none" stroke="black" stroke-width=".3" stroke-opacity="1.0"  filling="0" d="M21.112089157104492 9.755143165588379 L21.112089157104492 9.755143165588379 C21.96837615966797 9.85728931427002 22.174711227416992 9.876384735107422 22.561962127685547 10.635231971740723 L21.630985260009766 10.797979354858398 C20.573495864868164 9.323368072509766 19.62825584411621 13.12842082977295 21.7581729888916 12.079928398132324 L21.7581729888916 11.789926528930664 L21.117198944091797 11.789926528930664 L21.117198944091797 11.143911361694336 L22.60263442993164 11.143911361694336 L22.60263442993164 12.466463088989258 C21.840177536010742 12.868422508239746 21.03923797607422 13.230733871459961 20.171030044555664 12.776765823364258 C18.436132431030273 11.869622230529785 19.79865837097168 9.983509063720703 21.112089157104492 9.755143165588379 L21.112089157104492 9.755143165588379"></path>
<path fill="none" stroke="black" stroke-width=".3" stroke-opacity="1.0"  filling="0" d="M17.283653259277344 9.806097984313965 L18.326488494873047 9.806097984313965 L19.496444702148438 12.914102554321289 L18.489303588867188 12.914102554321289 L18.336639404296875 12.4004487991333 L17.242984771728516 12.4004487991333 L17.095428466796875 12.914102554321289 L16.113698959350586 12.914102554321289 L17.283653259277344 9.806097984313965"></path>
<path fill="none" stroke="black" stroke-width=".3" stroke-opacity="1.0"  filling="0" d="M10.761576652526855 9.857860565185547 L10.761576652526855 9.857860565185547 C11.168290138244629 10.237139701843262 11.652230262756348 10.888339042663574 11.416802406311035 11.392166137695312 L11.416802406311035 11.392166137695312 C11.65139389038086 11.894201278686523 11.168210983276367 12.543559074401855 10.761576652526855 12.920018196105957 L8.75979995727539 12.920018196105957 L8.75979995727539 12.125639915466309 L10.766013145446777 12.125639915466309 C10.843809127807617 12.053163528442383 10.843762397766113 11.879191398620605 10.766013145446777 11.806665420532227 L8.759799003601074 11.806665420532227 L8.759799003601074 10.99830436706543 L10.766013145446777 10.99830436706543 C10.843792915344238 10.925811767578125 10.843777656555176 10.751838684082031 10.766013145446777 10.679329872131348 L8.759799003601074 10.679329872131348 L8.759799003601074 9.858869552612305 C9.427058219909668 9.85842514038086 10.094317436218262 9.857976913452148 10.761576652526855 9.857524871826172 L10.761576652526855 9.857524871826172"></path>
<path fill="none" stroke="black" stroke-width=".3" stroke-opacity="1.0"  filling="0" d="M15.105348587036133 10.539438247680664 L15.950211524963379 11.384234428405762 L15.105348587036133 12.229231834411621 L14.264787673950195 11.384234428405762 L15.105348587036133 10.539438247680664"></path>
<path fill="none" stroke="black" stroke-width=".3" stroke-opacity="1.0"  filling="0" d="M13.154459953308105 10.547907829284668 L13.995019912719727 11.392838478088379 L13.154459953308105 12.23776912689209 L12.309596061706543 11.392838478088379 L13.154459953308105 10.547907829284668"></path>
<path fill="none" stroke="black" stroke-width=".3" stroke-opacity="1.0"  filling="0" d="M17.791996002197266 10.614862442016602 L18.137996673583984 11.728888511657715 L17.451309204101562 11.728888511657715 L17.791996002197266 10.614862442016602"></path>
<path fill="none" stroke="black" stroke-width=".3" stroke-opacity="1.0"  filling="0" d="M1.3540725708007812 10.81438159942627 L1.3540725708007812 10.81438159942627 C1.793182611465454 10.37527084350586 2.5155930519104004 9.877033233642578 3.084872245788574 10.125140190124512 L3.084872245788574 10.125140190124512 C3.652099132537842 9.877950668334961 4.372493743896484 10.375263214111328 4.808411121368408 10.81438159942627 L4.808411121368408 12.920019149780273 L3.9125261306762695 12.920019149780273 L3.9125261306762695 10.809676170349121 C3.827693462371826 10.72484302520752 3.637444019317627 10.72484302520752 3.5526113510131836 10.809676170349121 L3.5526113510131836 12.920019149780273 L2.640660285949707 12.920019149780273 L2.640660285949707 10.809676170349121 C2.5558278560638428 10.724875450134277 2.365598201751709 10.724827766418457 2.280813217163086 10.809676170349121 L2.280813217163086 12.920019149780273 L1.355147361755371 12.920019149780273 C1.354925274848938 12.218140602111816 1.3547011613845825 11.516261100769043 1.3544750213623047 10.814382553100586 L1.3544750213623047 10.814382553100586"></path>
<path fill="none" stroke="black" stroke-width=".3" stroke-opacity="1.0"  filling="0" d="M14.103921890258789 11.519285202026367 L14.944416046142578 12.364215850830078 L14.103921890258789 13.204776763916016 L13.259058952331543 12.364215850830078 L14.103921890258789 11.519285202026367"></path>
<path fill="none" stroke="black" stroke-width=".3" stroke-opacity="1.0"  filling="0" d="M8.508720397949219 11.96349811553955 L8.508720397949219 11.96349811553955 C8.069610595703125 12.402607917785645 7.3471999168396 12.900845527648926 6.777921199798584 12.652738571166992 L6.777921199798584 12.652738571166992 C6.210667133331299 12.899917602539062 5.4902472496032715 12.402630805969238 5.054314613342285 11.96349811553955 L5.054314613342285 9.857860565185547 L5.950267791748047 9.857860565185547 L5.950267791748047 11.9682035446167 C6.035131931304932 12.053004264831543 6.225348949432373 12.053035736083984 6.310181617736816 11.9682035446167 L6.310181617736816 9.857860565185547 L7.222134113311768 9.857860565185547 L7.222134113311768 11.9682035446167 C7.306982517242432 12.053020477294922 7.497199535369873 12.053020477294922 7.582047939300537 11.9682035446167 L7.582047939300537 9.857860565185547 L8.507646560668945 9.857860565185547 C8.507868766784668 10.55974006652832 8.508091926574707 11.261618614196777 8.508317947387695 11.96349811553955 L8.508317947387695 11.96349811553955"></path>
<path fill="none" stroke="black" stroke-width=".3" stroke-opacity="1.0"  filling="0" d="M22.428726196289062 13.704044342041016 L22.428726196289062 13.704044342041016 C22.493440628051758 13.71309757232666 22.558155059814453 13.722149848937988 22.62286949157715 13.731203079223633 L22.59786605834961 13.8240385055542 C22.133155822753906 13.723523139953613 22.132049560546875 14.421923637390137 22.537363052368164 14.29977798461914 L22.537363052368164 14.173600196838379 C22.534852981567383 14.138800621032715 22.532344818115234 14.104001998901367 22.529834747314453 14.069202423095703 L22.653995513916016 14.069202423095703 C22.651979446411133 14.104001998901367 22.649961471557617 14.138800621032715 22.647945404052734 14.173600196838379 L22.647945404052734 14.337355613708496 C22.024425506591797 14.562472343444824 22.109760284423828 14.0619535446167 22.428726196289062 13.704044342041016 L22.428726196289062 13.704044342041016"></path>
<path fill="none" stroke="black" stroke-width=".3" stroke-opacity="1.0"  filling="0" d="M5.4422607421875 13.704113006591797 L5.4422607421875 13.704113006591797 C6.078389644622803 14.515669822692871 4.742379188537598 14.571516036987305 5.442260265350342 13.704111099243164 L5.442260265350342 13.704111099243164"></path>
<path fill="none" stroke="black" stroke-width=".3" stroke-opacity="1.0"  filling="0" d="M6.77899694442749 13.704113006591797 L6.77899694442749 13.704113006591797 C6.81997537612915 13.756366729736328 7.510219097137451 14.400763511657715 6.752913951873779 14.433351516723633 C6.509903430938721 14.443808555603027 6.626298427581787 13.89344310760498 6.77899694442749 13.704111099243164 L6.77899694442749 13.704111099243164"></path>
<path fill="none" stroke="black" stroke-width=".3" stroke-opacity="1.0"  filling="0" d="M17.618494033813477 13.72152328491211 L17.618494033813477 13.72152328491211 C17.616477966308594 13.756658554077148 17.614459991455078 13.791793823242188 17.612443923950195 13.826929092407227 L17.612443923950195 14.008432388305664 C17.630191802978516 14.008208274841309 17.647937774658203 14.007984161376953 17.665685653686523 14.007760047912598 L17.754352569580078 14.007086753845215 C17.803739547729492 14.007759094238281 17.853124618530273 14.008431434631348 17.902511596679688 14.009103775024414 L17.902511596679688 13.827601432800293 C17.900495529174805 13.792466163635254 17.898479461669922 13.757329940795898 17.89646339416504 13.72219467163086 L18.024791717529297 13.72219467163086 C18.022550582885742 13.757329940795898 18.02031135559082 13.792466163635254 18.018070220947266 13.827601432800293 L18.018070220947266 14.313759803771973 C18.02031135559082 14.348559379577637 18.022550582885742 14.383358001708984 18.024791717529297 14.418157577514648 L17.89646339416504 14.418157577514648 C17.898479461669922 14.383358001708984 17.900495529174805 14.348559379577637 17.902511596679688 14.313759803771973 L17.902511596679688 14.095687866210938 C17.884069442749023 14.095015525817871 17.865629196166992 14.094343185424805 17.847187042236328 14.093670845031738 L17.801206588745117 14.093670845031738 C17.785924911499023 14.093446731567383 17.770641326904297 14.093222618103027 17.755359649658203 14.092998504638672 L17.755359649658203 14.092998504638672 C17.707719802856445 14.09411907196045 17.66008186340332 14.09523868560791 17.612442016601562 14.096359252929688 L17.612442016601562 14.314433097839355 C17.614459991455078 14.34923267364502 17.61647605895996 14.384031295776367 17.618494033813477 14.418830871582031 L17.490163803100586 14.418830871582031 C17.49217987060547 14.384031295776367 17.49419593811035 14.34923267364502 17.496212005615234 14.314433097839355 L17.496212005615234 13.82827377319336 C17.49419593811035 13.79313850402832 17.49217987060547 13.758002281188965 17.490163803100586 13.722867012023926 L17.618494033813477 13.72152328491211"></path>
<path fill="none" stroke="black" stroke-width=".3" stroke-opacity="1.0"  filling="0" d="M1.5282478332519531 13.72286605834961 L1.695230484008789 14.290433883666992 L2.006206512451172 13.722867012023926 C2.0039589405059814 13.760021209716797 2.0059549808502197 13.797337532043457 2.0075511932373047 13.834525108337402 L2.032625198364258 14.301929473876953 C2.036770820617676 14.340896606445312 2.0409164428710938 14.379863739013672 2.0450620651245117 14.418830871582031 L1.922041893005371 14.418830871582031 C1.923612117767334 14.392768859863281 1.9237784147262573 14.366621017456055 1.9233875274658203 14.34051513671875 L1.9056396484375 13.856372833251953 L1.7397994995117188 14.418830871582031 L1.4736623764038086 13.857515335083008 L1.4559154510498047 14.315441131591797 C1.4551987648010254 14.349908828735352 1.4569755792617798 14.384394645690918 1.4586048126220703 14.418830871582031 L1.3460063934326172 14.418830871582031 C1.352865219116211 14.378774642944336 1.3567622900009155 14.338220596313477 1.359786033630371 14.297694206237793 L1.3858013153076172 13.82612133026123 C1.3871873617172241 13.791730880737305 1.3883311748504639 13.75719165802002 1.3858013153076172 13.722867012023926 L1.5282478332519531 13.72286605834961"></path>
<path fill="none" stroke="black" stroke-width=".3" stroke-opacity="1.0"  filling="0" d="M19.018281936645508 13.72286605834961 L19.018281936645508 13.72286605834961 C19.027984619140625 13.759390830993652 19.037687301635742 13.795915603637695 19.04738998413086 13.832440376281738 L19.19561767578125 14.272686958312988 L19.339473724365234 13.837684631347656 C19.348886489868164 13.79941177368164 19.35829734802246 13.761139869689941 19.36771011352539 13.722867012023926 L19.50128173828125 13.722867012023926 C19.48069190979004 13.767148971557617 19.463207244873047 13.812836647033691 19.445959091186523 13.858524322509766 L19.243549346923828 14.418830871582031 L18.932708740234375 13.859532356262207 C18.912878036499023 13.813977241516113 18.893047332763672 13.76842212677002 18.87321662902832 13.722867012023926 L19.018281936645508 13.72286605834961"></path>
<path fill="none" stroke="black" stroke-width=".3" stroke-opacity="1.0"  filling="0" d="M2.2113037109375 13.722867012023926 L2.348978042602539 13.722867012023926 C2.3538854122161865 13.759033203125 2.358792543411255 13.795199394226074 2.3636999130249023 13.831365585327148 L2.447124481201172 14.254940032958984 L2.575453758239746 13.722867012023926 L2.803877830505371 14.254940032958984 L2.8853540420532227 13.838693618774414 C2.891247034072876 13.800085067749023 2.8971402645111084 13.761475563049316 2.9030332565307617 13.722867012023926 L3.026185989379883 13.722867012023926 C3.013660192489624 13.764948844909668 3.001134157180786 13.80703067779541 2.9886083602905273 13.849112510681152 L2.8539600372314453 14.418830871582031 L2.6202917098999023 13.880438804626465 L2.3876304626464844 14.418830871582031 L2.249958038330078 13.849112510681152 C2.2370731830596924 13.80703067779541 2.2241885662078857 13.764948844909668 2.2113037109375 13.722867012023926 L2.2113037109375 13.722867012023926"></path>
<path fill="none" stroke="black" stroke-width=".3" stroke-opacity="1.0"  filling="0" d="M3.2214698791503906 13.722867012023926 L3.375882148742676 13.722867012023926 C3.655447244644165 13.772270202636719 3.6970646381378174 13.830391883850098 3.50313663482666 14.051522254943848 L3.50313663482666 14.051522254943848 C3.591672897338867 14.140022277832031 3.5206997394561768 14.338264465332031 3.4248876571655273 14.418830871582031 L3.2214698791503906 14.418830871582031 C3.2234866619110107 14.383695602416992 3.2255032062530518 14.348560333251953 3.227519989013672 14.313425064086914 L3.227519989013672 13.827130317687988 C3.2255032062530518 13.792375564575195 3.2234866619110107 13.757621765136719 3.2214698791503906 13.722867012023926 L3.2214698791503906 13.722867012023926"></path>
<path fill="none" stroke="black" stroke-width=".3" stroke-opacity="1.0"  filling="0" d="M4.277884483337402 13.722867012023926 L4.588792324066162 14.290433883666992 L4.89970064163208 13.722867012023926 C4.898200988769531 13.760062217712402 4.900121212005615 13.797333717346191 4.901717185974121 13.834525108337402 L4.926791667938232 14.301929473876953 C4.9309821128845215 14.340896606445312 4.935172080993652 14.379863739013672 4.939362525939941 14.418830871582031 L4.81620979309082 14.418830871582031 C4.817257404327393 14.392745971679688 4.817273139953613 14.366618156433105 4.8168816566467285 14.34051513671875 L4.799201965332031 13.856372833251953 L4.633227825164795 14.418830871582031 L4.367157936096191 13.857515335083008 L4.349545478820801 14.315441131591797 C4.348827838897705 14.349908828735352 4.350605010986328 14.384394645690918 4.352234363555908 14.418830871582031 L4.239433288574219 14.418830871582031 C4.246287822723389 14.378798484802246 4.249895095825195 14.33822250366211 4.2525410652160645 14.297694206237793 L4.278624057769775 13.82612133026123 C4.279317378997803 13.791709899902344 4.279891490936279 13.757262229919434 4.278624057769775 13.722867012023926 L4.278624057769775 13.722867012023926"></path>
<path fill="none" stroke="black" stroke-width=".3" stroke-opacity="1.0"  filling="0" d="M7.284652233123779 13.722867965698242 L7.475566387176514 13.722867965698242 C7.5690813064575195 13.790502548217773 7.64267110824585 13.969219207763672 7.5673933029174805 14.0566987991333 L7.5673933029174805 14.0566987991333 C7.607032775878906 14.100887298583984 7.646671772003174 14.145074844360352 7.6863112449646 14.189263343811035 L7.725972652435303 14.315442085266113 C7.736963748931885 14.350305557250977 7.749627590179443 14.38463306427002 7.762542247772217 14.418830871582031 L7.634212493896484 14.418830871582031 C7.630074977874756 14.39122486114502 7.622692108154297 14.364147186279297 7.614852428436279 14.337355613708496 L7.581509113311768 14.224689483642578 C7.53839635848999 14.182966232299805 7.495284080505371 14.141242980957031 7.452171325683594 14.099519729614258 L7.406325340270996 14.313425064086914 C7.408341884613037 14.348560333251953 7.410358428955078 14.383695602416992 7.412374973297119 14.418830871582031 L7.285121440887451 14.418830871582031 C7.287137985229492 14.383695602416992 7.289154529571533 14.348560333251953 7.291171073913574 14.313425064086914 L7.291171073913574 13.827130317687988 C7.289154529571533 13.792375564575195 7.287137985229492 13.757621765136719 7.285121440887451 13.722867012023926 L7.285121440887451 13.722867012023926"></path>
<path fill="none" stroke="black" stroke-width=".3" stroke-opacity="1.0"  filling="0" d="M7.961388111114502 13.723002433776855 L8.342208862304688 13.810661315917969 C8.313324928283691 13.809316635131836 8.284440994262695 13.807971954345703 8.2555570602417 13.80662727355957 L8.248297691345215 14.012129783630371 C8.272991180419922 14.011009216308594 8.297684669494629 14.009888648986816 8.322378158569336 14.008768081665039 L8.322378158569336 14.099519729614258 C8.295936584472656 14.098175048828125 8.269495010375977 14.096831321716309 8.243053436279297 14.095486640930176 L8.272295951843262 14.332314491271973 C8.300798416137695 14.330521583557129 8.329301834106445 14.328729629516602 8.357804298400879 14.326936721801758 L7.961388111114502 14.418830871582031 C7.963404655456543 14.384031295776367 7.965421199798584 14.34923267364502 7.967437744140625 14.314433097839355 L7.967437744140625 13.82827377319336 C7.965421199798584 13.79313850402832 7.963404655456543 13.758002281188965 7.961388111114502 13.722867012023926 L7.961388111114502 13.722867012023926"></path>
<path fill="none" stroke="black" stroke-width=".3" stroke-opacity="1.0"  filling="0" d="M8.578095436096191 13.722867012023926 L8.998576164245605 14.267443656921387 L8.998576164245605 13.82827377319336 C8.996044158935547 13.79313850402832 8.993512153625488 13.758002281188965 8.99098014831543 13.722867012023926 L9.1015625 13.722867012023926 C9.0995454788208 13.758002281188965 9.097529411315918 13.79313850402832 9.095512390136719 13.82827377319336 L9.095512390136719 14.418830871582031 L8.681349754333496 13.86470890045166 L8.681349754333496 14.314433097839355 C8.683859825134277 14.34923267364502 8.686368942260742 14.384031295776367 8.688879013061523 14.418830871582031 L8.578296661376953 14.418830871582031 C8.580313682556152 14.384031295776367 8.582329750061035 14.34923267364502 8.584346771240234 14.314433097839355 L8.584346771240234 13.82827377319336 C8.582329750061035 13.79313850402832 8.580313682556152 13.758002281188965 8.578296661376953 13.722867012023926 L8.578296661376953 13.722867012023926"></path>
<path fill="none" stroke="black" stroke-width=".3" stroke-opacity="1.0"  filling="0" d="M9.295234680175781 13.722867012023926 L9.432975769042969 13.722867012023926 C9.43781566619873 13.759033203125 9.442656517028809 13.795199394226074 9.44749641418457 13.831365585327148 L9.531054496765137 14.254940032958984 L9.659317016601562 13.722867012023926 L9.887807846069336 14.254940032958984 L9.969215393066406 13.838693618774414 C9.975131034851074 13.800085067749023 9.981047630310059 13.761475563049316 9.986963272094727 13.722867012023926 L10.1100492477417 13.722867012023926 C10.097545623779297 13.764948844909668 10.085041999816895 13.80703067779541 10.072538375854492 13.849112510681152 L9.937889099121094 14.418830871582031 L9.704221725463867 13.880438804626465 L9.471561431884766 14.418830871582031 L9.333820343017578 13.849112510681152 C9.320958137512207 13.80703067779541 9.308095932006836 13.764948844909668 9.295233726501465 13.722867012023926 L9.295233726501465 13.722867012023926"></path>
<path fill="none" stroke="black" stroke-width=".3" stroke-opacity="1.0"  filling="0" d="M10.305330276489258 13.723002433776855 L10.686083793640137 13.810661315917969 C10.657244682312012 13.809316635131836 10.628406524658203 13.807971954345703 10.599567413330078 13.80662727355957 L10.592240333557129 14.012129783630371 C10.616933822631836 14.011009216308594 10.641627311706543 14.009888648986816 10.66632080078125 14.008768081665039 L10.66632080078125 14.099519729614258 C10.639880180358887 14.098175048828125 10.613438606262207 14.096831321716309 10.586997985839844 14.095486640930176 L10.616239547729492 14.332314491271973 C10.64476490020752 14.330521583557129 10.67328929901123 14.328729629516602 10.701814651489258 14.326936721801758 L10.305331230163574 14.418830871582031 C10.307348251342773 14.384031295776367 10.309364318847656 14.34923267364502 10.311381340026855 14.314433097839355 L10.311381340026855 13.82827377319336 C10.309364318847656 13.79313850402832 10.307348251342773 13.758002281188965 10.305331230163574 13.722867012023926 L10.305331230163574 13.722867012023926"></path>
<path fill="none" stroke="black" stroke-width=".3" stroke-opacity="1.0"  filling="0" d="M10.926947593688965 13.722867965698242 L11.1178617477417 13.722867965698242 C11.211395263671875 13.79047679901123 11.28500747680664 13.969254493713379 11.209688186645508 14.0566987991333 L11.209688186645508 14.0566987991333 C11.249327659606934 14.100887298583984 11.28896713256836 14.145074844360352 11.328606605529785 14.189263343811035 L11.368268013000488 14.315442085266113 C11.379257202148438 14.350298881530762 11.391889572143555 14.384628295898438 11.404769897460938 14.418830871582031 L11.27644157409668 14.418830871582031 C11.27171802520752 14.391260147094727 11.264230728149414 14.364192962646484 11.256341934204102 14.337355613708496 L11.22299861907959 14.224689483642578 C11.179885864257812 14.182966232299805 11.136774063110352 14.141242980957031 11.093661308288574 14.099519729614258 L11.047679901123047 14.313425064086914 C11.049696922302246 14.348560333251953 11.051712989807129 14.383695602416992 11.053730010986328 14.418830871582031 L10.926408767700195 14.418830871582031 C10.928425788879395 14.383695602416992 10.930441856384277 14.348560333251953 10.932458877563477 14.313425064086914 L10.932458877563477 13.827130317687988 C10.930441856384277 13.792375564575195 10.928425788879395 13.757621765136719 10.926408767700195 13.722867012023926 L10.926408767700195 13.722867012023926"></path>
<path fill="none" stroke="black" stroke-width=".3" stroke-opacity="1.0"  filling="0" d="M11.602875709533691 13.722867012023926 L11.731139183044434 13.722867012023926 C11.729122161865234 13.758002281188965 11.727105140686035 13.79313850402832 11.725088119506836 13.82827377319336 L11.927497863769531 13.785452842712402 C11.944191932678223 13.764591217041016 11.960885047912598 13.743728637695312 11.977579116821289 13.722867012023926 L12.109001159667969 13.736379623413086 C12.092424392700195 13.753523826599121 12.075850486755371 13.770674705505371 12.058919906616211 13.787469863891602 L11.814629554748535 14.047287940979004 L12.07659912109375 14.336280822753906 C12.102323532104492 14.363797187805176 12.128046989440918 14.391314506530762 12.15377140045166 14.418830871582031 L11.997208595275879 14.418830871582031 C11.978052139282227 14.391948699951172 11.957863807678223 14.36690902709961 11.936708450317383 14.341590881347656 L11.724955558776855 14.09118366241455 L11.724955558776855 14.314433097839355 C11.726971626281738 14.34923267364502 11.728988647460938 14.384031295776367 11.73100471496582 14.418830871582031 L11.602676391601562 14.418830871582031 C11.604692459106445 14.384031295776367 11.606709480285645 14.34923267364502 11.608725547790527 14.314433097839355 L11.608725547790527 13.82827377319336 C11.606709480285645 13.79313850402832 11.604692459106445 13.758002281188965 11.602676391601562 13.722867012023926 L11.602676391601562 13.722867012023926"></path>
<path fill="none" stroke="black" stroke-width=".3" stroke-opacity="1.0"  filling="0" d="M12.316519737243652 13.723002433776855 L12.69734001159668 13.810661315917969 C12.668478965759277 13.809316635131836 12.639617919921875 13.807971954345703 12.610756874084473 13.80662727355957 L12.603361129760742 14.012129783630371 C12.628077507019043 14.011009216308594 12.652792930603027 14.009888648986816 12.677509307861328 14.008768081665039 L12.677509307861328 14.099519729614258 C12.651067733764648 14.098175048828125 12.624627113342285 14.096831321716309 12.598185539245605 14.095486640930176 L12.627429008483887 14.332314491271973 C12.65593147277832 14.330521583557129 12.68443489074707 14.328729629516602 12.712937355041504 14.326936721801758 L12.316521644592285 14.418830871582031 C12.318761825561523 14.384031295776367 12.321002960205078 14.34923267364502 12.323243141174316 14.314433097839355 L12.323243141174316 13.82827377319336 C12.321002960205078 13.79313850402832 12.318761825561523 13.758002281188965 12.316521644592285 13.722867012023926 L12.316521644592285 13.722867012023926"></path>
<path fill="none" stroke="black" stroke-width=".3" stroke-opacity="1.0"  filling="0" d="M13.302820205688477 13.722867012023926 L13.457300186157227 13.722867012023926 C13.736817359924316 13.772295951843262 13.778458595275879 13.830448150634766 13.584486961364746 14.051522254943848 L13.584486961364746 14.051522254943848 C13.673038482666016 14.140000343322754 13.6021146774292 14.33826732635498 13.506305694580078 14.418830871582031 L13.302821159362793 14.418830871582031 C13.304838180541992 14.383695602416992 13.306854248046875 14.348560333251953 13.308871269226074 14.313425064086914 L13.308871269226074 13.827130317687988 C13.306854248046875 13.792375564575195 13.304838180541992 13.757621765136719 13.302821159362793 13.722867012023926 L13.302821159362793 13.722867012023926"></path>
<path fill="none" stroke="black" stroke-width=".3" stroke-opacity="1.0"  filling="0" d="M13.978955268859863 13.722867965698242 L14.169869422912598 13.722867965698242 C14.263384819030762 13.790501594543457 14.336974143981934 13.969219207763672 14.261695861816406 14.0566987991333 L14.261695861816406 14.0566987991333 C14.301335334777832 14.100887298583984 14.340973854064941 14.145074844360352 14.380613327026367 14.189263343811035 L14.420275688171387 14.315442085266113 C14.431262969970703 14.35029125213623 14.443864822387695 14.384622573852539 14.456710815429688 14.418830871582031 L14.328448295593262 14.418830871582031 C14.323726654052734 14.391264915466309 14.31627082824707 14.364197731018066 14.308416366577148 14.337355613708496 L14.275073051452637 14.224689483642578 C14.231938362121582 14.182966232299805 14.188802719116211 14.141242980957031 14.145668029785156 14.099519729614258 L14.099754333496094 14.313425064086914 C14.101995468139648 14.348560333251953 14.104236602783203 14.383695602416992 14.106477737426758 14.418830871582031 L13.979223251342773 14.418830871582031 C13.981239318847656 14.383695602416992 13.983256340026855 14.348560333251953 13.985272407531738 14.313425064086914 L13.985272407531738 13.827130317687988 C13.983256340026855 13.792375564575195 13.981239318847656 13.757621765136719 13.979223251342773 13.722867012023926 L13.979223251342773 13.722867012023926"></path>
<path fill="none" stroke="black" stroke-width=".3" stroke-opacity="1.0"  filling="0" d="M14.655491828918457 13.723002433776855 L15.036311149597168 13.810661315917969 C15.007428169250488 13.809316635131836 14.978544235229492 13.807971954345703 14.949661254882812 13.80662727355957 L14.94233226776123 14.012129783630371 C14.967047691345215 14.011009216308594 14.991764068603516 14.009888648986816 15.0164794921875 14.008768081665039 L15.0164794921875 14.099519729614258 C14.990060806274414 14.098175048828125 14.963642120361328 14.096831321716309 14.937223434448242 14.095486640930176 L14.966262817382812 14.332314491271973 C14.994810104370117 14.330521583557129 15.023358345031738 14.328729629516602 15.051905632019043 14.326936721801758 L14.655489921569824 14.418830871582031 C14.657505989074707 14.384031295776367 14.659523010253906 14.34923267364502 14.661539077758789 14.314433097839355 L14.661539077758789 13.82827377319336 C14.659523010253906 13.79313850402832 14.657505989074707 13.758002281188965 14.655489921569824 13.722867012023926 L14.655489921569824 13.722867012023926"></path>
<path fill="none" stroke="black" stroke-width=".3" stroke-opacity="1.0"  filling="0" d="M15.29155445098877 13.722867012023926 L15.602461814880371 14.290433883666992 L15.913302421569824 13.722867012023926 C15.911056518554688 13.760021209716797 15.913052558898926 13.797337532043457 15.914648056030273 13.834525108337402 L15.939723014831543 14.301929473876953 C15.943890571594238 14.340896606445312 15.94805908203125 14.379863739013672 15.952226638793945 14.418830871582031 L15.829140663146973 14.418830871582031 C15.830710411071777 14.392768859863281 15.830877304077148 14.366621017456055 15.830486297607422 14.34051513671875 L15.812738418579102 13.856372833251953 L15.64689826965332 14.418830871582031 L15.380829811096191 13.857515335083008 L15.363080978393555 14.315441131591797 C15.362366676330566 14.349908828735352 15.364142417907715 14.384394645690918 15.365771293640137 14.418830871582031 L15.253105163574219 14.418830871582031 C15.259960174560547 14.378798484802246 15.263567924499512 14.33822250366211 15.266214370727539 14.297694206237793 L15.292228698730469 13.82612133026123 C15.293267250061035 13.791718482971191 15.294126510620117 13.757232666015625 15.292228698730469 13.722867012023926 L15.292228698730469 13.722867012023926"></path>
<path fill="none" stroke="black" stroke-width=".3" stroke-opacity="1.0"  filling="0" d="M16.192752838134766 13.723002433776855 L16.57357406616211 13.810661315917969 C16.544734954833984 13.809316635131836 16.51589584350586 13.807971954345703 16.487056732177734 13.80662727355957 L16.4797306060791 14.012129783630371 C16.504446029663086 14.011009216308594 16.529159545898438 14.009888648986816 16.553874969482422 14.008768081665039 L16.553874969482422 14.099519729614258 C16.527433395385742 14.098175048828125 16.500993728637695 14.096831321716309 16.474552154541016 14.095486640930176 L16.503662109375 14.332314491271973 C16.53218650817871 14.330521583557129 16.560712814331055 14.328729629516602 16.589237213134766 14.326936721801758 L16.192752838134766 14.418830871582031 C16.19499397277832 14.384031295776367 16.197235107421875 14.34923267364502 16.19947624206543 14.314433097839355 L16.19947624206543 13.82827377319336 C16.197235107421875 13.79313850402832 16.19499397277832 13.758002281188965 16.192752838134766 13.722867012023926 L16.192752838134766 13.722867012023926"></path>
<path fill="none" stroke="black" stroke-width=".3" stroke-opacity="1.0"  filling="0" d="M16.813495635986328 13.722867965698242 L17.004409790039062 13.722867965698242 C17.097925186157227 13.790502548217773 17.1715145111084 13.969219207763672 17.096237182617188 14.0566987991333 L17.096237182617188 14.0566987991333 C17.135875701904297 14.100887298583984 17.17551612854004 14.145074844360352 17.21515464782715 14.189263343811035 L17.25481605529785 14.315442085266113 C17.265804290771484 14.350298881530762 17.2784366607666 14.384628295898438 17.291316986083984 14.418830871582031 L17.163055419921875 14.418830871582031 C17.158334732055664 14.391275405883789 17.150941848754883 14.364206314086914 17.143156051635742 14.337355613708496 L17.10968017578125 14.224689483642578 C17.066545486450195 14.182966232299805 17.023408889770508 14.141242980957031 16.980274200439453 14.099519729614258 L16.93442726135254 14.313425064086914 C16.936668395996094 14.348560333251953 16.93890953063965 14.383695602416992 16.941150665283203 14.418830871582031 L16.81382942199707 14.418830871582031 C16.816070556640625 14.383695602416992 16.81831169128418 14.348560333251953 16.820552825927734 14.313425064086914 L16.820552825927734 13.827130317687988 C16.81831169128418 13.792375564575195 16.816070556640625 13.757621765136719 16.81382942199707 13.722867012023926 L16.81382942199707 13.722867012023926"></path>
<path fill="none" stroke="black" stroke-width=".3" stroke-opacity="1.0"  filling="0" d="M18.47081756591797 13.722867012023926 L18.792146682739258 14.27900505065918 C18.812671661376953 14.325613975524902 18.83319664001465 14.372221946716309 18.853721618652344 14.418830871582031 L18.711811065673828 14.418830871582031 C18.709280014038086 14.406305313110352 18.70674705505371 14.393778800964355 18.70421600341797 14.381253242492676 L18.700857162475586 14.370766639709473 C18.69565773010254 14.353400230407715 18.690458297729492 14.336034774780273 18.685258865356445 14.318668365478516 L18.651647567749023 14.228924751281738 C18.568239212036133 14.226774215698242 18.487993240356445 14.226137161254883 18.404399871826172 14.228923797607422 L18.35647201538086 14.3279447555542 C18.347776412963867 14.358240127563477 18.339082717895508 14.388534545898438 18.330387115478516 14.418829917907715 L18.199907302856445 14.418829917907715 C18.219043731689453 14.376389503479004 18.23818016052246 14.33395004272461 18.25731658935547 14.291509628295898 L18.427391052246094 13.853280067443848 C18.44164276123047 13.809808731079102 18.455894470214844 13.766338348388672 18.47014617919922 13.722867012023926 L18.47014617919922 13.722867012023926"></path>
<path fill="none" stroke="black" stroke-width=".3" stroke-opacity="1.0"  filling="0" d="M19.661073684692383 13.723002433776855 L20.04189682006836 13.810661315917969 C20.013011932373047 13.809316635131836 19.984128952026367 13.807971954345703 19.955244064331055 13.80662727355957 L19.947982788085938 14.012129783630371 C19.972675323486328 14.011009216308594 19.99736976623535 14.009888648986816 20.022062301635742 14.008768081665039 L20.022062301635742 14.099519729614258 C19.995622634887695 14.098175048828125 19.969181060791016 14.096831321716309 19.94274139404297 14.095486640930176 L19.971981048583984 14.332314491271973 C20.000507354736328 14.330521583557129 20.02903175354004 14.328729629516602 20.057558059692383 14.326936721801758 L19.661073684692383 14.418830871582031 C19.6630916595459 14.384031295776367 19.66510772705078 14.34923267364502 19.667125701904297 14.314433097839355 L19.667125701904297 13.82827377319336 C19.66510772705078 13.79313850402832 19.6630916595459 13.758002281188965 19.661073684692383 13.722867012023926 L19.661073684692383 13.722867012023926"></path>
<path fill="none" stroke="black" stroke-width=".3" stroke-opacity="1.0"  filling="0" d="M20.27845573425293 13.722867012023926 L20.698936462402344 14.267443656921387 L20.698936462402344 13.82827377319336 C20.6964054107666 13.79313850402832 20.693872451782227 13.758002281188965 20.691341400146484 13.722867012023926 L20.801921844482422 13.722867012023926 C20.799680709838867 13.758002281188965 20.797441482543945 13.79313850402832 20.79520034790039 13.82827377319336 L20.79520034790039 14.418830871582031 L20.38103485107422 13.86470890045166 L20.38103485107422 14.314433097839355 C20.38356590270996 14.34923267364502 20.386098861694336 14.384031295776367 20.388629913330078 14.418830871582031 L20.27804946899414 14.418830871582031 C20.280065536499023 14.384031295776367 20.28208351135254 14.34923267364502 20.284099578857422 14.314433097839355 L20.284099578857422 13.82827377319336 C20.28208351135254 13.79313850402832 20.280065536499023 13.758002281188965 20.27804946899414 13.722867012023926 L20.27804946899414 13.722867012023926"></path>
<path fill="none" stroke="black" stroke-width=".3" stroke-opacity="1.0"  filling="0" d="M21.610279083251953 13.722867012023926 L21.931608200073242 14.27900505065918 C21.952112197875977 14.325613975524902 21.972614288330078 14.372221946716309 21.993118286132812 14.418830871582031 L21.851280212402344 14.418830871582031 C21.848770141601562 14.406305313110352 21.84626007080078 14.393778800964355 21.84375 14.381253242492676 L21.840389251708984 14.370766639709473 C21.835168838500977 14.353400230407715 21.829946517944336 14.336034774780273 21.824726104736328 14.318668365478516 L21.791048049926758 14.228924751281738 C21.70765495300293 14.22676944732666 21.6274471282959 14.2261381149292 21.543869018554688 14.228923797607422 L21.495872497558594 14.3279447555542 C21.487154006958008 14.358240127563477 21.478437423706055 14.388534545898438 21.46971893310547 14.418829917907715 L21.339305877685547 14.418829917907715 C21.358442306518555 14.376389503479004 21.377580642700195 14.33395004272461 21.396717071533203 14.291509628295898 L21.566791534423828 13.853280067443848 C21.581043243408203 13.809808731079102 21.595294952392578 13.766338348388672 21.609546661376953 13.722867012023926 L21.609546661376953 13.722867012023926"></path>
<path fill="none" stroke="black" stroke-width=".3" stroke-opacity="1.0"  filling="0" d="M5.846609592437744 13.723069190979004 L6.354751110076904 13.80971908569336 C6.324119567871094 13.808598518371582 6.293488502502441 13.807478904724121 6.262856960296631 13.806358337402344 L6.1585259437561035 14.31436538696289 C6.1605424880981445 14.349164962768555 6.162559509277344 14.383964538574219 6.164576053619385 14.418764114379883 L6.036179065704346 14.418764114379883 C6.038195610046387 14.383964538574219 6.040212631225586 14.349164962768555 6.042229175567627 14.31436538696289 L5.937361240386963 13.806358337402344 C5.907110691070557 13.807478904724121 5.87686014175415 13.808598518371582 5.846609592437744 13.80971908569336 L5.846609592437744 13.723069190979004"></path>
<path fill="none" stroke="black" stroke-width=".3" stroke-opacity="1.0"  filling="0" d="M5.430765628814697 13.790696144104004 L5.430765628814697 13.790696144104004 C5.819015979766846 14.3997220993042 5.029721260070801 14.431869506835938 5.430765151977539 13.790696144104004 L5.430765151977539 13.790696144104004"></path>
<path fill="none" stroke="black" stroke-width=".3" stroke-opacity="1.0"  filling="0" d="M6.7675018310546875 13.790696144104004 L6.7675018310546875 13.790696144104004 C7.156035423278809 14.399683952331543 6.36641788482666 14.431931495666504 6.7675018310546875 13.790696144104004 L6.7675018310546875 13.790696144104004"></path>
<path fill="none" stroke="black" stroke-width=".3" stroke-opacity="1.0"  filling="0" d="M7.406190395355225 13.803199768066406 L7.449953079223633 13.803199768066406 C7.509157180786133 13.843111038208008 7.516802787780762 13.970726013183594 7.462457180023193 14.017036437988281 L7.406190395355225 13.803199768066406"></path>
<path fill="none" stroke="black" stroke-width=".3" stroke-opacity="1.0"  filling="0" d="M11.047411918640137 13.803199768066406 L11.091307640075684 13.803199768066406 C11.150503158569336 13.843123435974121 11.1581449508667 13.970712661743164 11.103811264038086 14.017036437988281 L11.047411918640137 13.803199768066406"></path>
<path fill="none" stroke="black" stroke-width=".3" stroke-opacity="1.0"  filling="0" d="M14.100225448608398 13.803199768066406 L14.143986701965332 13.803199768066406 C14.203200340270996 13.843099594116211 14.210904121398926 13.970726013183594 14.1565580368042 14.017036437988281 L14.100225448608398 13.803199768066406"></path>
<path fill="none" stroke="black" stroke-width=".3" stroke-opacity="1.0"  filling="0" d="M16.934831619262695 13.803199768066406 L16.978729248046875 13.803199768066406 C17.037933349609375 13.843111038208008 17.04557991027832 13.970726013183594 16.991233825683594 14.017036437988281 L16.934831619262695 13.803199768066406"></path>
<path fill="none" stroke="black" stroke-width=".3" stroke-opacity="1.0"  filling="0" d="M3.3393125534057617 13.804206848144531 L3.3936290740966797 13.804206848144531 C3.449862003326416 13.845747947692871 3.448005199432373 13.970001220703125 3.3936290740966797 14.013944625854492 L3.3393125534057617 13.804206848144531"></path>
<path fill="none" stroke="black" stroke-width=".3" stroke-opacity="1.0"  filling="0" d="M13.420731544494629 13.804206848144531 L13.474913597106934 13.804206848144531 C13.531166076660156 13.845721244812012 13.529311180114746 13.970027923583984 13.474913597106934 14.013944625854492 L13.420731544494629 13.804206848144531"></path>
<path fill="none" stroke="black" stroke-width=".3" stroke-opacity="1.0"  filling="0" d="M18.52654457092285 13.841852188110352 L18.627716064453125 14.142273902893066 C18.558536529541016 14.13979721069336 18.490320205688477 14.139010429382324 18.421138763427734 14.142273902893066 L18.52654457092285 13.841852188110352"></path>
<path fill="none" stroke="black" stroke-width=".3" stroke-opacity="1.0"  filling="0" d="M21.665878295898438 13.841852188110352 L21.76711654663086 14.142273902893066 C21.697914123535156 14.139799118041992 21.629676818847656 14.139019012451172 21.56047248840332 14.142273902893066 L21.665878295898438 13.841852188110352"></path>
<path fill="none" stroke="black" stroke-width=".3" stroke-opacity="1.0"  filling="0" d="M3.3393125534057617 14.093267440795898 L3.3873090744018555 14.093267440795898 C3.451012372970581 14.141343116760254 3.465273141860962 14.282299041748047 3.402973175048828 14.332179069519043 L3.3393125534057617 14.093267440795898"></path>
<path fill="none" stroke="black" stroke-width=".3" stroke-opacity="1.0"  filling="0" d="M13.420731544494629 14.093267440795898 L13.468729019165039 14.093267440795898 C13.532431602478027 14.141342163085938 13.546635627746582 14.282313346862793 13.484325408935547 14.332179069519043 L13.420731544494629 14.093267440795898"></path></svg>