<svg xmlns="http://www.w3.org/2000/svg" viewBox="0.0 0.0 24.0 24.0" height="200px" width="200px"><path fill="none" stroke="black" stroke-width=".3" stroke-opacity="1.0"  filling="0" d="M6.949920177459717 10.211843490600586 L6.949920177459717 10.211843490600586 C6.688866138458252 10.381325721740723 6.447563171386719 10.581222534179688 6.21660041809082 10.789859771728516 L4.8082804679870605 12.275184631347656 C4.57546854019165 12.453492164611816 4.342656135559082 12.631800651550293 4.109844207763672 12.810108184814453 L3.387324333190918 12.126359939575195 C4.036983013153076 11.434086799621582 4.686702251434326 10.741870880126953 5.336508274078369 10.049736022949219 L5.336508274078369 10.049736022949219 C7.461383819580078 7.916078567504883 9.522147178649902 9.047350883483887 10.33592700958252 10.775784492492676 C11.149706840515137 12.504219055175781 10.716503143310547 14.829814910888672 7.853447914123535 15.08480453491211 C7.135002613067627 15.148791313171387 6.778979301452637 14.925322532653809 6.197268009185791 14.665331840515137 L6.197268009185791 14.665331840515137 C6.3946919441223145 14.487600326538086 6.592115879058838 14.309867858886719 6.789539813995361 14.132136344909668 L7.07833194732666 13.821636199951172 C10.456995964050293 14.355111122131348 10.339469909667969 9.51492691040039 6.949920177459717 10.211843490600586 L6.949920177459717 10.211843490600586"></path>
<path fill="none" stroke="black" stroke-width=".3" stroke-opacity="1.0"  filling="0" d="M19.241615295410156 10.265088081359863 L21.039813995361328 10.265088081359863 C22.851083755493164 10.749082565307617 22.781217575073242 11.133135795593262 21.441682815551758 12.396791458129883 L21.363489151000977 12.400571823120117 C21.410541534423828 12.427787780761719 21.45759391784668 12.45500373840332 21.50464630126953 12.482219696044922 L22.799999237060547 13.735236167907715 L21.799057006835938 13.735236167907715 L19.990703582763672 11.899127960205078 L20.89109992980957 11.899127960205078 C21.16959571838379 11.721755981445312 21.679771423339844 11.693859100341797 21.726587295532227 11.367012023925781 C21.76668930053711 11.08703327178955 21.267803192138672 11.036099433898926 21.03841209411621 10.870643615722656 L20.008846282958984 10.870643615722656 L20.008846282958984 13.735236167907715 L19.241615295410156 13.735236167907715 L19.241615295410156 10.265088081359863"></path>
<path fill="none" stroke="black" stroke-width=".3" stroke-opacity="1.0"  filling="0" d="M7.073796272277832 10.35429573059082 L7.793832302093506 11.032427787780762 C7.50728178024292 11.169203758239746 7.361237049102783 11.349370956420898 7.102740287780762 11.582687377929688 L5.69550085067749 13.071900367736816 C5.457468509674072 13.259783744812012 5.2194366455078125 13.447668075561523 4.9814043045043945 13.635551452636719 L4.260936260223389 12.95720386505127 C4.548633575439453 12.817208290100098 4.687736511230469 12.645303726196289 4.951920986175537 12.406835556030273 L6.358837127685547 10.920108795166016 C6.597157001495361 10.731504440307617 6.835476398468018 10.542900085449219 7.073796272277832 10.35429573059082 L7.073796272277832 10.35429573059082"></path>
<path fill="none" stroke="black" stroke-width=".3" stroke-opacity="1.0"  filling="0" d="M15.382019996643066 12.049680709838867 L15.382019996643066 12.049680709838867 C16.291872024536133 10.241704940795898 16.80653953552246 10.130805015563965 18.775598526000977 10.33150863647461 L18.776676177978516 11.068716049194336 C18.100040435791016 10.942349433898926 17.19192886352539 10.60063648223877 16.537878036499023 11.143871307373047 C16.06610107421875 11.53571605682373 16.05170249938965 12.469559669494629 16.551647186279297 12.851067543029785 C17.256269454956055 13.388765335083008 18.11648941040039 13.065977096557617 18.851627349853516 12.942732810974121 L18.850223541259766 13.657909393310547 C16.955671310424805 13.858624458312988 16.304513931274414 13.766851425170898 15.382019996643066 12.049680709838867 L15.382019996643066 12.049680709838867"></path>
<path fill="none" stroke="black" stroke-width=".3" stroke-opacity="1.0"  filling="0" d="M14.354940414428711 12.38502025604248 L14.354940414428711 12.38502025604248 C14.340503692626953 12.292752265930176 14.326067924499512 12.200484275817871 14.311631202697754 12.108216285705566 L14.311631202697754 10.264764785766602 L15.049921035766602 10.264764785766602 L15.049921035766602 13.81548023223877 L12.686232566833496 11.858196258544922 C12.619128227233887 11.782380104064941 12.552024841308594 11.706563949584961 12.484920501708984 11.63074779510498 L12.484920501708984 11.63074779510498 C12.49741268157959 11.713007926940918 12.509903907775879 11.795268058776855 12.522396087646484 11.877528190612793 L12.521749496459961 13.735343933105469 L11.783029556274414 13.735343933105469 L11.783029556274414 10.198559761047363 L14.125009536743164 12.116532325744629 C14.201653480529785 12.20602798461914 14.27829647064209 12.295524597167969 14.354940414428711 12.38502025604248 L14.354940414428711 12.38502025604248"></path>
<path fill="none" stroke="black" stroke-width=".3" stroke-opacity="1.0"  filling="0" d="M4.286532878875732 13.95415210723877 L4.286532878875732 13.95415210723877 C5.105050086975098 13.786276817321777 5.246311187744141 13.736358642578125 5.828556537628174 13.209924697875977 L7.2372002601623535 11.72492504119873 C7.470012187957764 11.5465087890625 7.702824592590332 11.36809253692627 7.935636520385742 11.189676284790039 L8.658156394958496 11.874073028564453 C8.189038276672363 12.373969078063965 7.198147773742676 13.429666519165039 6.709080219268799 13.95058822631836 L6.709080219268799 13.95058822631836 C4.5833048820495605 16.083118438720703 2.5228679180145264 14.951972961425781 1.709462285041809 13.22380256652832 C0.8960566520690918 11.49563217163086 1.3296823501586914 9.170438766479492 4.192032337188721 8.914873123168945 C4.912205219268799 8.85057258605957 5.265329837799072 9.073211669921875 5.847564697265625 9.333911895751953 L5.847564697265625 9.333911895751953 C5.6504645347595215 9.511967658996582 5.453364849090576 9.690024375915527 5.256264686584473 9.868080139160156 L4.967041015625 10.178580284118652 C3.1652557849884033 9.8939208984375 1.2515789270401 11.741641998291016 2.966205358505249 13.42734146118164 C3.304105281829834 13.759540557861328 3.846423625946045 13.778548240661621 4.286532878875732 13.95415210723877 L4.286532878875732 13.95415210723877"></path></svg>