<svg xmlns="http://www.w3.org/2000/svg" viewBox="0.0 0.0 24.0 24.0" height="200px" width="200px"><path fill="none" stroke="black" stroke-width=".3" stroke-opacity="1.0"  filling="0" d="M1.2843332290649414 10.594449996948242 L8.42811107635498 10.594449996948242 L15.57188892364502 10.594449996948242 L22.715665817260742 10.594449996948242 L22.715665817260742 13.405550003051758 L15.57188892364502 13.405550003051758 L8.42811107635498 13.405550003051758 L1.2843332290649414 13.405550003051758 L1.2843332290649414 10.594449996948242"></path>
<path fill="none" stroke="black" stroke-width=".3" stroke-opacity="1.0"  filling="0" d="M22.255550384521484 10.881241798400879 L22.255550384521484 10.881241798400879 C22.59585189819336 10.936273574829102 22.635286331176758 11.435834884643555 22.255550384521484 11.435834884643555 C21.883697509765625 11.435834884643555 21.923954010009766 10.935296058654785 22.255550384521484 10.881241798400879 L22.255550384521484 10.881241798400879"></path>
<path fill="none" stroke="black" stroke-width=".3" stroke-opacity="1.0"  filling="0" d="M22.14864730834961 10.994004249572754 L22.267976760864258 10.994004249572754 C22.379108428955078 11.022061347961426 22.456825256347656 11.095646858215332 22.327680587768555 11.167250633239746 L22.14864730834961 11.310646057128906 L22.14864730834961 10.994004249572754"></path>
<path fill="none" stroke="black" stroke-width=".3" stroke-opacity="1.0"  filling="0" d="M22.255550384521484 11.036280632019043 L22.255550384521484 11.036280632019043 C22.36250114440918 11.055049896240234 22.361066818237305 11.119006156921387 22.255550384521484 11.137399673461914 L22.255550384521484 11.036280632019043"></path>
<path fill="none" stroke="black" stroke-width=".3" stroke-opacity="1.0"  filling="0" d="M22.50092315673828 11.161468505859375 L22.50092315673828 11.161468505859375 C22.254777908325195 12.372383117675781 22.267807006835938 9.940591812133789 22.50092315673828 11.161468505859375 L22.50092315673828 11.161468505859375"></path>
<path fill="none" stroke="black" stroke-width=".3" stroke-opacity="1.0"  filling="0" d="M16.424535751342773 11.251022338867188 L17.15901756286621 11.597516059875488 C17.23859405517578 11.687044143676758 17.318172454833984 11.776571273803711 17.397748947143555 11.86609935760498 L17.397748947143555 12.743194580078125 L17.015623092651367 12.743194580078125 L17.015623092651367 11.985504150390625 C16.959800720214844 11.98328971862793 16.903980255126953 11.98107624053955 16.84815788269043 11.978861808776855 L16.84815788269043 12.743194580078125 L16.424535751342773 12.743194580078125 L16.424535751342773 11.251022338867188"></path>
<path fill="none" stroke="black" stroke-width=".3" stroke-opacity="1.0"  filling="0" d="M17.576793670654297 11.251022338867188 L17.994632720947266 11.251022338867188 L17.994632720947266 12.743194580078125 L17.576793670654297 12.743194580078125 L17.576793670654297 11.251022338867188"></path>
<path fill="none" stroke="black" stroke-width=".3" stroke-opacity="1.0"  filling="0" d="M12.121272087097168 11.280865669250488 L12.13869857788086 11.1432523727417 C12.343724250793457 11.097667694091797 12.548749923706055 11.052083969116211 12.753775596618652 11.006499290466309 L14.085125923156738 11.799823760986328 L14.085125923156738 12.325346946716309 L12.520825386047363 11.411835670471191 L12.520825386047363 12.743186950683594 L12.962656021118164 12.743186950683594 L12.33015251159668 13.262145042419434 L11.691007614135742 12.743186950683594 L12.121272087097168 12.743186950683594 L12.121272087097168 11.280865669250488"></path>
<path fill="none" stroke="black" stroke-width=".3" stroke-opacity="1.0"  filling="0" d="M18.424057006835938 11.59752368927002 L19.534021377563477 11.59752368927002 L19.534021377563477 11.913383483886719 L18.56744956970215 11.913383483886719 L19.34920883178711 12.038493156433105 C19.42271614074707 12.13218879699707 19.496225357055664 12.225884437561035 19.569732666015625 12.319580078125 L19.57637596130371 12.45055103302002 C19.47882652282715 12.548101425170898 19.381275177001953 12.645651817321777 19.28372573852539 12.743202209472656 L18.149688720703125 12.743202209472656 L18.149688720703125 12.4149169921875 L19.110477447509766 12.433123588562012 L18.424057006835938 12.336928367614746 C18.400299072265625 12.094315528869629 18.376543045043945 11.851701736450195 18.352785110473633 11.609088897705078 L18.424057006835938 11.59752368927002"></path>
<path fill="none" stroke="black" stroke-width=".3" stroke-opacity="1.0"  filling="0" d="M21.294761657714844 11.59752368927002 L21.712520599365234 11.59752368927002 C21.897672653198242 11.687051773071289 22.08282470703125 11.776578903198242 22.267976760864258 11.866106986999512 L22.273757934570312 12.743202209472656 L21.885848999023438 12.743202209472656 L21.802078247070312 11.919167518615723 L21.7183837890625 12.743202209472656 L21.30054473876953 12.743202209472656 L21.294761657714844 11.59752368927002"></path>
<path fill="none" stroke="black" stroke-width=".3" stroke-opacity="1.0"  filling="0" d="M14.837034225463867 11.889386177062988 L15.051774978637695 11.609159469604492 L16.024988174438477 11.597594261169434 C16.0924015045166 11.647319793701172 16.159814834594727 11.697046279907227 16.22722816467285 11.746771812438965 L16.251296997070312 12.325432777404785 L15.34434986114502 12.325432777404785 L15.34434986114502 12.026998519897461 L15.816030502319336 11.913454055786133 L15.249011993408203 11.913454055786133 L15.249011993408203 12.433195114135742 L16.251296997070312 12.433195114135742 L16.251296997070312 12.74327278137207 L15.016063690185547 12.724987030029297 L14.837034225463867 11.889386177062988"></path>
<path fill="none" stroke="black" stroke-width=".3" stroke-opacity="1.0"  filling="0" d="M19.70146369934082 11.889386177062988 L19.91620635986328 11.609159469604492 L20.895200729370117 11.597594261169434 C20.96068572998047 11.647319793701172 21.02617073059082 11.697046279907227 21.091655731201172 11.746771812438965 L21.115726470947266 12.325432777404785 L20.21455955505371 12.325432777404785 L20.21455955505371 12.026998519897461 L20.680458068847656 11.913454055786133 L20.119300842285156 11.913454055786133 L20.119300842285156 12.433195114135742 L21.115726470947266 12.433195114135742 L21.115726470947266 12.74327278137207 L19.964263916015625 12.74327278137207 C19.876663208007812 12.663695335388184 19.789064407348633 12.584118843078613 19.70146369934082 12.504541397094727 L19.70146369934082 11.889386177062988"></path>
<path fill="none" stroke="black" stroke-width=".3" stroke-opacity="1.0"  filling="0" d="M14.639727592468262 12.719141960144043 L14.62230110168457 12.856755256652832 C14.417275428771973 12.902339935302734 14.212249755859375 12.94792366027832 14.007224082946777 12.993508338928223 L12.675872802734375 12.200182914733887 L12.675872802734375 11.674660682678223 L14.234390258789062 12.58817195892334 L14.234390258789062 11.256820678710938 L13.798343658447266 11.256820678710938 L14.430846214294434 10.737861633300781 L15.069992065429688 11.256820678710938 L14.639727592468262 11.256820678710938 L14.639727592468262 12.719141960144043"></path></svg>