<svg xmlns="http://www.w3.org/2000/svg" viewBox="0.0 0.0 24.0 24.0" height="200px" width="200px"><path fill="none" stroke="black" stroke-width=".3" stroke-opacity="1.0"  filling="0" d="M15.994107246398926 7.371102333068848 L16.49044418334961 7.371102333068848 L16.491058349609375 9.087642669677734 L17.731388092041016 9.087642669677734 L17.731388092041016 10.270891189575195 L16.49208641052246 10.270891189575195 L16.49208641052246 11.117354393005371 C16.849111557006836 11.385726928710938 17.430421829223633 11.337085723876953 17.831806182861328 11.14117431640625 L17.831806182861328 12.64024829864502 C16.191553115844727 13.212045669555664 15.435235977172852 13.32908821105957 14.556024551391602 11.72170639038086 L14.530354499816895 10.270891189575195 L13.86029052734375 10.270891189575195 L13.86029052734375 9.474740028381348 L15.994107246398926 7.371102333068848"></path>
<path fill="none" stroke="black" stroke-width=".3" stroke-opacity="1.0"  filling="0" d="M11.726470947265625 7.395949840545654 L13.687586784362793 7.395949840545654 L13.687586784362793 12.905973434448242 L11.75234603881836 12.905973434448242 L11.726470947265625 7.395949840545654"></path>
<path fill="none" stroke="black" stroke-width=".3" stroke-opacity="1.0"  filling="0" d="M21.911128997802734 7.4472880363464355 L21.911128997802734 7.4472880363464355 C23.02054214477539 8.52759075164795 20.801721572875977 8.527593612670898 21.911128997802734 7.4472880363464355 L21.911128997802734 7.4472880363464355"></path>
<path fill="none" stroke="black" stroke-width=".3" stroke-opacity="1.0"  filling="0" d="M21.70331382751465 7.6006855964660645 L21.960002899169922 7.6006855964660645 C22.047054290771484 7.670392036437988 22.0955867767334 7.852086067199707 22.016271591186523 7.930481433868408 L22.170284271240234 8.209144592285156 L21.78032112121582 7.930481433868408 L21.70331382751465 8.209144592285156 L21.70331382751465 7.6006855964660645"></path>
<path fill="none" stroke="black" stroke-width=".3" stroke-opacity="1.0"  filling="0" d="M21.78032112121582 7.686933994293213 L21.936798095703125 7.686933994293213 C21.987672805786133 7.714974880218506 21.939647674560547 7.832538604736328 21.885459899902344 7.8534746170043945 L21.78032112121582 7.686933994293213"></path>
<path fill="none" stroke="black" stroke-width=".3" stroke-opacity="1.0"  filling="0" d="M20.337718963623047 8.411827087402344 L20.337718963623047 8.411827087402344 C20.925506591796875 8.65318489074707 21.698226928710938 8.64451789855957 22.10108184814453 9.135900497436523 C22.513071060180664 9.638425827026367 22.3646183013916 10.408543586730957 22.49638557434082 11.044864654541016 L19.767045974731445 11.044864654541016 C20.568910598754883 11.52072811126709 21.596446990966797 11.639178276062012 22.522260665893555 11.528264045715332 L22.522260665893555 12.494858741760254 C21.28519058227539 13.079249382019043 19.898298263549805 13.53713321685791 18.652931213378906 12.438155174255371 C17.754074096679688 11.644956588745117 17.667327880859375 9.942691802978516 18.54088592529297 9.092087745666504 C18.999727249145508 8.645303726196289 19.7387752532959 8.638580322265625 20.337718963623047 8.411827087402344 L20.337718963623047 8.411827087402344"></path>
<path fill="none" stroke="black" stroke-width=".3" stroke-opacity="1.0"  filling="0" d="M8.972900390625 8.434826850891113 L8.972900390625 8.434826850891113 C9.576935768127441 8.617522239685059 10.313764572143555 8.563191413879395 10.78500747680664 8.982913970947266 C12.512958526611328 10.52194881439209 11.20059871673584 13.013651847839355 9.121370315551758 13.051362991333008 C7.076267719268799 13.088455200195312 5.339339256286621 10.718475341796875 7.161357879638672 9.047907829284668 C7.631237983703613 8.617085456848145 8.36905288696289 8.63918685913086 8.972900390625 8.434826850891113 L8.972900390625 8.434826850891113"></path>
<path fill="none" stroke="black" stroke-width=".3" stroke-opacity="1.0"  filling="0" d="M21.9111328125 8.437907218933105 L21.9111328125 8.437907218933105 C21.72891616821289 8.260140419006348 21.364482879638672 8.159173011779785 21.364482879638672 7.90460729598999 C21.364482879638672 7.649994373321533 21.656517028808594 7.371102333068848 21.911128997802734 7.371102333068848 C22.171934127807617 7.371102333068848 22.483448028564453 7.643801689147949 22.483448028564453 7.90460729598999 C22.483448028564453 8.165366172790527 22.10190200805664 8.260140419006348 21.911128997802734 8.437907218933105 L21.911128997802734 8.437907218933105"></path>
<path fill="none" stroke="black" stroke-width=".3" stroke-opacity="1.0"  filling="0" d="M4.108922481536865 8.532163619995117 L4.108922481536865 8.532163619995117 C4.514288425445557 8.548250198364258 4.99423885345459 8.345551490783691 5.325019836425781 8.580422401428223 C5.787905693054199 8.909093856811523 5.920815944671631 9.546953201293945 6.218713760375977 10.030218124389648 L6.218713760375977 12.905973434448242 L4.356577396392822 12.905973434448242 L4.356577396392822 10.634981155395508 C4.216185092926025 10.465839385986328 4.1549811363220215 10.117399215698242 3.9354000091552734 10.127555847167969 C3.6644656658172607 10.140087127685547 3.5383853912353516 10.49718952178955 3.3398780822753906 10.6820068359375 L3.3398780822753906 12.905973434448242 L1.478769302368164 12.905973434448242 L1.478769302368164 8.555163383483887 L3.3398780822753906 8.555163383483887 L3.3398780822753906 8.870174407958984 C3.596226215362549 8.7575044631958 3.852574348449707 8.6448335647583 4.108922481536865 8.532163619995117 L4.108922481536865 8.532163619995117"></path>
<path fill="none" stroke="black" stroke-width=".3" stroke-opacity="1.0"  filling="0" d="M19.716941833496094 10.3682279586792 L19.716941833496094 10.3682279586792 C19.93214988708496 10.134536743164062 20.044878005981445 9.667155265808105 20.362565994262695 9.667155265808105 C20.674976348876953 9.667155265808105 20.777240753173828 10.134536743164062 20.98457908630371 10.3682279586792 L19.716941833496094 10.3682279586792"></path>
<path fill="none" stroke="black" stroke-width=".3" stroke-opacity="1.0"  filling="0" d="M9.022184371948242 11.456186294555664 L9.022184371948242 11.456186294555664 C8.790547370910645 11.230504035949707 8.338435173034668 11.102348327636719 8.327272415161133 10.779139518737793 C8.315886497497559 10.449478149414062 8.64304256439209 10.029191970825195 8.972900390625 10.029191970825195 C9.313703536987305 10.029191970825195 9.656048774719238 10.438538551330566 9.66781234741211 10.779139518737793 C9.678576469421387 11.090799331665039 9.237393379211426 11.230504035949707 9.022184371948242 11.456186294555664 L9.022184371948242 11.456186294555664"></path>
<path fill="none" stroke="black" stroke-width=".3" stroke-opacity="1.0"  filling="0" d="M1.4777412414550781 13.411345481872559 L8.492511749267578 13.411345481872559 L15.507282257080078 13.411345481872559 L22.522052764892578 13.411345481872559 L22.522052764892578 14.361922264099121 L15.507282257080078 14.361923217773438 L8.492511749267578 14.361923217773438 L1.4777412414550781 14.361922264099121 L1.4777412414550781 13.411345481872559"></path>
<path fill="none" stroke="black" stroke-width=".3" stroke-opacity="1.0"  filling="0" d="M15.176597595214844 14.513267517089844 L15.402278900146484 14.758869171142578 L15.176597595214844 14.513267517089844"></path>
<path fill="none" stroke="black" stroke-width=".3" stroke-opacity="1.0"  filling="0" d="M15.572721481323242 14.513267517089844 L15.803539276123047 14.758869171142578 L15.572721481323242 14.513267517089844"></path>
<path fill="none" stroke="black" stroke-width=".3" stroke-opacity="1.0"  filling="0" d="M17.396663665771484 14.869348526000977 L17.396663665771484 14.869348526000977 C17.523639678955078 14.894401550292969 17.650615692138672 14.919454574584961 17.777591705322266 14.944507598876953 L17.76116180419922 15.180252075195312 C16.544292449951172 14.849674224853516 16.50482177734375 16.605716705322266 17.766294479370117 16.33330535888672 L17.782724380493164 16.568845748901367 C16.076412200927734 16.834774017333984 16.65669059753418 15.588491439819336 17.396663665771484 14.869348526000977 L17.396663665771484 14.869348526000977"></path>
<path fill="none" stroke="black" stroke-width=".3" stroke-opacity="1.0"  filling="0" d="M13.21548080444336 14.899330139160156 L13.456153869628906 14.899330139160156 L13.456153869628906 15.646403312683105 L14.508996963500977 14.899330139160156 L13.706890106201172 15.701436042785645 L14.568960189819336 16.598827362060547 L14.21308422088623 16.598827362060547 L13.455949783325195 15.766737937927246 L13.455949783325195 16.598827362060547 L13.215481758117676 16.598827362060547 L13.21548080444336 14.899330139160156"></path>
<path fill="none" stroke="black" stroke-width=".3" stroke-opacity="1.0"  filling="0" d="M14.83078384399414 14.899330139160156 L15.071455955505371 14.899330139160156 L15.071455955505371 15.862022399902344 C15.210137367248535 16.045812606811523 15.257259368896484 16.413393020629883 15.48750114440918 16.413393020629883 C15.718777656555176 16.413393020629883 15.76828670501709 16.045812606811523 15.908679962158203 15.862022399902344 L15.908679962158203 14.899330139160156 L16.149147033691406 14.899330139160156 L16.149147033691406 15.897136688232422 C15.928598403930664 16.141096115112305 15.816374778747559 16.629013061523438 15.48750114440918 16.629013061523438 C15.159727096557617 16.629013061523438 15.049689292907715 16.141096115112305 14.83078384399414 15.897136688232422 L14.83078384399414 14.899330139160156"></path>
<path fill="none" stroke="black" stroke-width=".3" stroke-opacity="1.0"  filling="0" d="M18.0884952545166 14.899330139160156 L18.328962326049805 14.899330139160156 L18.328962326049805 15.611082077026367 L19.14626693725586 15.611082077026367 L19.14626693725586 14.899330139160156 L19.387142181396484 14.899330139160156 L19.387142181396484 16.598827362060547 L19.14626693725586 16.598827362060547 L19.14626693725586 15.821978569030762 L18.328962326049805 15.821978569030762 L18.328962326049805 16.598827362060547 L18.0884952545166 16.598827362060547 L18.0884952545166 14.899330139160156"></path>
<path fill="none" stroke="black" stroke-width=".3" stroke-opacity="1.0"  filling="0" d="M19.84733772277832 14.899330139160156 L20.799762725830078 14.899330139160156 L20.799762725830078 15.114950180053711 L20.087804794311523 15.114950180053711 L20.087804794311523 15.611082077026367 L20.73548698425293 15.611082077026367 L20.73548698425293 15.821978569030762 L20.087804794311523 15.821978569030762 L20.087804794311523 16.383207321166992 L20.799762725830078 16.383207321166992 L20.799762725830078 16.598827362060547 L19.84733772277832 16.598827362060547 L19.84733772277832 14.899330139160156"></path>
<path fill="none" stroke="black" stroke-width=".3" stroke-opacity="1.0"  filling="0" d="M21.1872615814209 14.899330139160156 L21.518497467041016 14.899330139160156 L22.270496368408203 16.268003463745117 L22.270496368408203 14.899330139160156 L22.509117126464844 14.899330139160156 L22.509117126464844 16.598827362060547 L22.198623657226562 16.598827362060547 L21.428552627563477 15.20017147064209 L21.428552627563477 16.598827362060547 L21.1872615814209 16.598827362060547 L21.1872615814209 14.899330139160156"></path></svg>