<svg xmlns="http://www.w3.org/2000/svg" viewBox="0.0 0.0 24.0 24.0" height="200px" width="200px"><path fill="none" stroke="black" stroke-width=".3" stroke-opacity="1.0"  filling="0" d="M2.082058906555176 10.441911697387695 L3.0674657821655273 10.442689895629883 C3.256986141204834 11.105318069458008 3.4544119834899902 11.765730857849121 3.659285545349121 12.423773765563965 L4.052873134613037 10.442378997802734 L4.669821739196777 10.442378997802734 L3.946831703186035 13.543695449829102 L3.06980037689209 13.543695449829102 C2.851736068725586 12.872941970825195 2.631073236465454 12.203018188476562 2.4061708450317383 11.534526824951172 L1.8853044509887695 13.543695449829102 L1.2934856414794922 13.543695449829102 L2.082058906555176 10.441911697387695"></path>
<path fill="none" stroke="black" stroke-width=".3" stroke-opacity="1.0"  filling="0" d="M9.96461296081543 10.445724487304688 L10.64457893371582 10.445724487304688 L8.476933479309082 13.541749954223633 L7.426253318786621 13.541749954223633 L7.8858137130737305 10.447591781616211 C8.223177909851074 10.447098731994629 8.560541152954102 10.446606636047363 8.897905349731445 10.446113586425781 L8.489069938659668 12.577582359313965 L9.96461296081543 10.445724487304688"></path>
<path fill="none" stroke="black" stroke-width=".3" stroke-opacity="1.0"  filling="0" d="M6.618618011474609 12.079821586608887 L6.618618011474609 12.079821586608887 C6.785886764526367 12.56770133972168 6.953155040740967 13.055582046508789 7.120423793792725 13.543461799621582 L6.118990421295166 13.543461799621582 C5.987586975097656 13.025810241699219 5.856184005737305 12.508159637451172 5.724780559539795 11.990508079528809 L5.724780559539795 11.990508079528809 C6.507281303405762 11.872246742248535 6.568634510040283 11.448257446289062 6.302129745483398 10.821651458740234 L6.007737636566162 10.82943058013916 L5.330804824829102 13.543695449829102 L4.413784503936768 13.543695449829102 L5.133661270141602 10.442378997802734 L6.459751605987549 10.442378997802734 C7.48105525970459 11.1743803024292 7.665069580078125 11.35963249206543 6.618617534637451 12.079977989196777 L6.618617534637451 12.079977989196777"></path>
<path fill="none" stroke="black" stroke-width=".3" stroke-opacity="1.0"  filling="0" d="M10.590974807739258 12.255104064941406 L11.132380485534668 12.255104064941406 C11.6559419631958 12.357401847839355 11.691237449645996 12.541011810302734 11.402033805847168 12.971170425415039 L11.639399528503418 13.539104461669922 L10.891124725341797 13.032008171081543 L10.891124725341797 13.539104461669922 L10.590974807739258 13.539104461669922 L10.590974807739258 12.255104064941406"></path>
<path fill="none" stroke="black" stroke-width=".3" stroke-opacity="1.0"  filling="0" d="M13.990108489990234 12.255104064941406 L14.265517234802246 12.255104064941406 L14.269407272338867 12.718554496765137 C14.602982521057129 12.515929222106934 14.730591773986816 12.542022705078125 14.806922912597656 12.935148239135742 L14.806767463684082 13.539104461669922 L14.531435012817383 13.539104461669922 L14.531435012817383 13.026250839233398 C14.401664733886719 12.74703311920166 14.310481071472168 12.721571922302246 14.265517234802246 13.026250839233398 L14.265517234802246 13.539104461669922 L13.990108489990234 13.539104461669922 L13.990108489990234 12.255104064941406"></path>
<path fill="none" stroke="black" stroke-width=".3" stroke-opacity="1.0"  filling="0" d="M18.997665405273438 12.255104064941406 L19.273073196411133 12.255104064941406 L19.276962280273438 12.718554496765137 C19.61053466796875 12.515931129455566 19.738147735595703 12.542021751403809 19.81447982788086 12.935148239135742 L19.81432342529297 13.539104461669922 L19.538991928100586 13.539104461669922 L19.538991928100586 13.026250839233398 C19.409442901611328 12.746914863586426 19.318035125732422 12.721611976623535 19.273073196411133 13.026250839233398 L19.273073196411133 13.539104461669922 L18.997665405273438 13.539104461669922 L18.997665405273438 12.255104064941406"></path>
<path fill="none" stroke="black" stroke-width=".3" stroke-opacity="1.0"  filling="0" d="M15.425352096557617 12.28739070892334 L15.628485679626465 12.804057121276855 L15.425350189208984 13.183950424194336 C15.469670295715332 13.233975410461426 15.513989448547363 13.284000396728516 15.558309555053711 13.334025382995605 L15.624750137329102 13.54104995727539 C15.296769142150879 13.57738208770752 15.240032196044922 13.545827865600586 15.150017738342285 13.223861694335938 L14.994110107421875 12.58559513092041 L15.425352096557617 12.28739070892334"></path>
<path fill="none" stroke="black" stroke-width=".3" stroke-opacity="1.0"  filling="0" d="M21.561927795410156 12.28739070892334 L21.765216827392578 12.804057121276855 L21.561927795410156 13.183950424194336 C21.60624885559082 13.233975410461426 21.65056800842285 13.284000396728516 21.694889068603516 13.334025382995605 L21.76140594482422 13.54104995727539 C21.433374404907227 13.577351570129395 21.376562118530273 13.54592514038086 21.28652000427246 13.223861694335938 L21.130844116210938 12.58559513092041 L21.561927795410156 12.28739070892334"></path>
<path fill="none" stroke="black" stroke-width=".3" stroke-opacity="1.0"  filling="0" d="M10.891124725341797 12.48305606842041 L11.048824310302734 12.48305606842041 C11.37332534790039 12.524787902832031 11.386846542358398 12.76505184173584 11.056293487548828 12.809735298156738 L10.891124725341797 12.48305606842041"></path>
<path fill="none" stroke="black" stroke-width=".3" stroke-opacity="1.0"  filling="0" d="M12.256815910339355 12.568557739257812 L12.256815910339355 12.568557739257812 C12.467344284057617 12.670400619506836 12.644261360168457 12.883552551269531 12.703149795532227 13.109885215759277 L12.089701652526855 13.157343864440918 C12.169671058654785 13.245590209960938 12.353888511657715 13.289575576782227 12.442988395690918 13.21055793762207 L12.697469711303711 13.229540824890137 C11.938847541809082 13.805120468139648 11.6517333984375 13.233412742614746 12.256815910339355 12.568557739257812 L12.256815910339355 12.568557739257812"></path>
<path fill="none" stroke="black" stroke-width=".3" stroke-opacity="1.0"  filling="0" d="M13.32997989654541 12.568557739257812 L13.32997989654541 12.568557739257812 C13.468618392944336 12.690754890441895 13.607256889343262 12.81295108795166 13.745895385742188 12.935148239135742 L13.48378849029541 12.94845199584961 C13.093524932861328 12.491777420043945 13.0630521774292 13.61298656463623 13.483790397644043 13.166834831237793 L13.745817184448242 13.182004928588867 C13.004609107971191 13.82585334777832 12.700895309448242 13.235150337219238 13.32997989654541 12.568557739257812 L13.32997989654541 12.568557739257812"></path>
<path fill="none" stroke="black" stroke-width=".3" stroke-opacity="1.0"  filling="0" d="M16.23990821838379 12.568557739257812 L16.23990821838379 12.568557739257812 C16.364595413208008 12.65149211883545 16.489282608032227 12.734426498413086 16.613969802856445 12.817360877990723 L16.408889770507812 12.872442245483398 C15.705199241638184 12.386487007141113 16.89874267578125 13.190254211425781 16.524654388427734 13.478343963623047 C16.226165771484375 13.708212852478027 16.039731979370117 13.434937477111816 15.79528522491455 13.276999473571777 L16.032806396484375 13.24284553527832 C16.588808059692383 13.578289985656738 15.653009414672852 13.029205322265625 16.23990821838379 12.568557739257812 L16.23990821838379 12.568557739257812"></path>
<path fill="none" stroke="black" stroke-width=".3" stroke-opacity="1.0"  filling="0" d="M17.25643539428711 12.568557739257812 L17.25643539428711 12.568557739257812 C17.381147384643555 12.65149211883545 17.505861282348633 12.734426498413086 17.630573272705078 12.817360877990723 L17.425336837768555 12.872442245483398 C16.722288131713867 12.386312484741211 17.91490364074707 13.190542221069336 17.541257858276367 13.478343963623047 C17.24277114868164 13.70825481414795 17.056276321411133 13.434926986694336 16.8118896484375 13.276999473571777 L17.04941177368164 13.24284553527832 C17.60524559020996 13.578194618225098 16.669452667236328 13.029269218444824 17.25643539428711 12.568557739257812 L17.25643539428711 12.568557739257812"></path>
<path fill="none" stroke="black" stroke-width=".3" stroke-opacity="1.0"  filling="0" d="M18.337535858154297 12.568557739257812 L18.337535858154297 12.568557739257812 C18.47617530822754 12.690754890441895 18.61481285095215 12.81295108795166 18.75345230102539 12.935148239135742 L18.491344451904297 12.94845199584961 C18.10135269165039 12.491598129272461 18.070449829101562 13.61316204071045 18.491344451904297 13.166834831237793 L18.753374099731445 13.182004928588867 C18.01216697692871 13.825851440429688 17.708450317382812 13.235151290893555 18.337535858154297 12.568557739257812 L18.337535858154297 12.568557739257812"></path>
<path fill="none" stroke="black" stroke-width=".3" stroke-opacity="1.0"  filling="0" d="M20.092998504638672 12.587541580200195 L20.368408203125 12.587541580200195 L20.368408203125 13.187763214111328 C20.51841926574707 13.403274536132812 20.602893829345703 13.327993392944336 20.6267032623291 13.098448753356934 L20.6267032623291 12.587541580200195 L20.902034759521484 12.587541580200195 L20.902034759521484 13.539104461669922 L20.64381980895996 13.37580394744873 C20.305192947387695 13.603075981140137 20.168907165527344 13.609983444213867 20.092998504638672 13.187763214111328 L20.092998504638672 12.587541580200195"></path>
<path fill="none" stroke="black" stroke-width=".3" stroke-opacity="1.0"  filling="0" d="M21.994258880615234 12.587541580200195 L22.687530517578125 12.587541580200195 L22.265779495239258 13.335892677307129 L22.706512451171875 13.539104461669922 L21.958084106445312 13.539104461669922 L22.377967834472656 12.779394149780273 L21.994258880615234 12.587541580200195"></path>
<path fill="none" stroke="black" stroke-width=".3" stroke-opacity="1.0"  filling="0" d="M12.268174171447754 12.748974800109863 L12.268174171447754 12.748974800109863 C12.32136344909668 12.8148193359375 12.374551773071289 12.88066291809082 12.427741050720215 12.946507453918457 L12.089702606201172 12.946507453918457 C12.149192810058594 12.88066291809082 12.208683967590332 12.8148193359375 12.268174171447754 12.748974800109863 L12.268174171447754 12.748974800109863"></path></svg>