<svg xmlns="http://www.w3.org/2000/svg" viewBox="0.0 0.0 24.0 24.0" height="200px" width="200px"><path fill="none" stroke="black" stroke-width=".3" stroke-opacity="1.0"  filling="0" d="M21.063949584960938 8.299806594848633 L21.063949584960938 8.299806594848633 C20.8065185546875 8.649713516235352 20.549087524414062 8.99962043762207 20.291656494140625 9.349527359008789 L18.300518035888672 14.436502456665039 C17.929550170898438 14.831088066101074 17.72920036315918 15.620258331298828 17.18761444091797 15.620258331298828 C16.66338348388672 15.620258331298828 16.497339248657227 14.831088066101074 16.152202606201172 14.436502456665039 L10.268217086791992 14.436502456665039 L12.325724601745605 9.31092643737793 C12.751686096191406 8.77522087097168 13.437744140625 8.412918090820312 14.112748146057129 8.299806594848633 L14.112748146057129 8.299806594848633"></path>
<path fill="none" stroke="black" stroke-width=".3" stroke-opacity="1.0"  filling="0" d="M21.557985305786133 8.35423755645752 L21.557985305786133 8.35423755645752 C21.897987365722656 8.69405460357666 22.23798942565918 9.033870697021484 22.577991485595703 9.373687744140625 L20.537979125976562 9.373687744140625 C20.877981185913086 9.033870697021484 21.21798324584961 8.69405460357666 21.557985305786133 8.35423755645752 L21.557985305786133 8.35423755645752"></path>
<path fill="none" stroke="black" stroke-width=".3" stroke-opacity="1.0"  filling="0" d="M15.44287109375 10.005645751953125 L15.44287109375 10.005645751953125 C17.22208023071289 10.095149040222168 18.196805953979492 11.832719802856445 16.524799346923828 12.958717346191406 L16.439868927001953 12.99682331085205 C15.442673683166504 13.311700820922852 14.628084182739258 13.219818115234375 13.833915710449219 12.613116264343262 L13.775335311889648 12.548849105834961 C13.60797119140625 12.275004386901855 13.480238914489746 11.967053413391113 13.4301118850708 11.650053977966309 L13.70613956451416 10.739885330200195 L14.544647216796875 10.147260665893555 C14.850594520568848 10.061579704284668 15.125334739685059 10.021428108215332 15.442874908447266 10.005644798278809 L15.442874908447266 10.005644798278809"></path>
<path fill="none" stroke="black" stroke-width=".3" stroke-opacity="1.0"  filling="0" d="M3.434584617614746 10.005646705627441 L3.434584617614746 10.005646705627441 C5.213389873504639 10.095039367675781 6.189013957977295 11.83299732208252 4.51669979095459 12.958718299865723 L4.431769371032715 12.996824264526367 C3.4347832202911377 13.311474800109863 2.619823455810547 13.21997356414795 1.8258161544799805 12.613117218017578 L1.7672367095947266 12.548849105834961 C1.5999675989151 12.274947166442871 1.472139835357666 11.96705436706543 1.4220123291015625 11.650054931640625 L1.6980438232421875 10.739886283874512 L2.536362648010254 10.147262573242188 C2.8423027992248535 10.061640739440918 3.1170754432678223 10.021438598632812 3.4345884323120117 10.005646705627441 L3.4345884323120117 10.005646705627441"></path>
<path fill="none" stroke="black" stroke-width=".3" stroke-opacity="1.0"  filling="0" d="M14.372435569763184 10.09030532836914 L14.354804039001465 10.841797828674316 L12.270193099975586 10.841797828674316 L12.265259742736816 11.12521743774414 L13.782079696655273 11.12521743774414 L13.763121604919434 11.83595085144043 L12.269807815551758 11.83595085144043 L12.248006820678711 13.03996753692627 L11.089679718017578 13.03996753692627 L11.089679718017578 10.09030532836914"></path>
<path fill="none" stroke="black" stroke-width=".3" stroke-opacity="1.0"  filling="0" d="M5.060953617095947 10.098444938659668 L7.095514297485352 10.098444938659668 C8.121516227722168 10.126423835754395 9.584388732910156 10.959664344787598 8.168342590332031 11.817922592163086 L8.795849800109863 13.034455299377441 L7.456851959228516 13.034455299377441 L6.818160057067871 11.990442276000977 L6.156909465789795 11.990442276000977 L6.156909465789795 13.028388023376465 L5.060953617095947 13.028388023376465 L5.060953617095947 10.098444938659668"></path>
<path fill="none" stroke="black" stroke-width=".3" stroke-opacity="1.0"  filling="0" d="M17.062328338623047 10.116449356079102 L17.062328338623047 13.047341346740723 L20.07303237915039 13.047341346740723 L18.152217864990234 12.318978309631348 L18.152217864990234 10.116449356079102 L17.062328338623047 10.116449356079102"></path>
<path fill="none" stroke="black" stroke-width=".3" stroke-opacity="1.0"  filling="0" d="M10.539445877075195 10.117131233215332 L11.775691986083984 13.040440559387207 L9.221113204956055 12.67398452758789 L9.071915626525879 13.034564018249512 L7.970839977264404 13.034564018249512 L9.166703224182129 10.117132186889648"></path>
<path fill="none" stroke="black" stroke-width=".3" stroke-opacity="1.0"  filling="0" d="M3.4355392456054688 10.15567398071289 L3.4355392456054688 10.15567398071289 C3.885852813720703 10.289958953857422 4.4179463386535645 10.266985893249512 4.786479949951172 10.558528900146484 C6.237646102905273 11.706531524658203 4.509586334228516 13.014023780822754 3.378856658935547 13.032914161682129 C2.1747632026672363 13.053030014038086 0.7173787355422974 11.620217323303223 2.0815906524658203 10.558979034423828 C2.4532828330993652 10.269834518432617 2.9842238426208496 10.290108680725098 3.435540199279785 10.15567398071289 L3.435540199279785 10.15567398071289"></path>
<path fill="none" stroke="black" stroke-width=".3" stroke-opacity="1.0"  filling="0" d="M15.443439483642578 10.15567398071289 L15.443439483642578 10.15567398071289 C15.893752098083496 10.289958953857422 16.42581558227539 10.267023086547852 16.79437828063965 10.558528900146484 C18.245698928833008 11.70641803741455 16.5181941986084 13.014017105102539 15.387134552001953 13.032914161682129 C14.183053016662598 13.053030967712402 12.725729942321777 11.620283126831055 14.089749336242676 10.558979034423828 C14.461347579956055 10.26984977722168 14.992208480834961 10.290108680725098 15.443438529968262 10.15567398071289 L15.443438529968262 10.15567398071289"></path>
<path fill="none" stroke="black" stroke-width=".3" stroke-opacity="1.0"  filling="0" d="M14.21928596496582 10.240395545959473 L14.208294868469238 10.691783905029297 L12.1229248046875 10.691783905029297 L12.1123046875 11.27511978149414 L13.627798080444336 11.27511978149414 L13.617375373840332 11.686125755310059 L12.122733116149902 11.686125755310059 L12.10112190246582 12.889763832092285 L11.243276596069336 12.889763832092285 L11.243276596069336 10.240395545959473"></path>
<path fill="none" stroke="black" stroke-width=".3" stroke-opacity="1.0"  filling="0" d="M7.094890117645264 10.24837875366211 L7.094890117645264 10.24837875366211 C7.598728179931641 10.532052040100098 8.363372802734375 10.574747085571289 8.606404304504395 11.099398612976074 C8.753756523132324 11.417500495910645 8.071537971496582 11.552745819091797 7.804105281829834 11.7794189453125 L8.519954681396484 12.884474754333496 L7.540968894958496 12.884474754333496 L6.902087688446045 11.840461730957031 L6.007084846496582 11.840461730957031 L6.007084846496582 12.87840747833252 L5.210663318634033 12.87840747833252 L7.094890117645264 10.24837875366211"></path>
<path fill="none" stroke="black" stroke-width=".3" stroke-opacity="1.0"  filling="0" d="M17.211849212646484 10.266275405883789 L17.211849212646484 12.897819519042969 L19.92321014404297 12.897819519042969 L18.00239372253418 12.46861457824707 L18.00239372253418 10.266275405883789 L17.211849212646484 10.266275405883789"></path>
<path fill="none" stroke="black" stroke-width=".3" stroke-opacity="1.0"  filling="0" d="M10.439859390258789 10.266998291015625 L11.549466133117676 12.890772819519043 L10.711146354675293 12.890772819519043 L10.565740585327148 12.529624938964844 L9.12095832824707 12.523553848266602 L8.971948623657227 12.884891510009766 L8.194485664367676 12.884891510009766 L9.267313003540039 10.26699447631836"></path>
<path fill="none" stroke="black" stroke-width=".3" stroke-opacity="1.0"  filling="0" d="M3.478954315185547 10.598909378051758 L3.478954315185547 10.598909378051758 C3.801996946334839 10.916074752807617 4.449441432952881 11.09769344329834 4.448082447052002 11.550405502319336 C4.446725368499756 12.002403259277344 3.925262689590454 12.490921020507812 3.4732675552368164 12.492992401123047 C3.024653434753418 12.495048522949219 2.502601385116577 12.007933616638184 2.503948211669922 11.559316635131836 C2.5053179264068604 11.103124618530273 3.1539523601531982 10.919045448303223 3.478954315185547 10.598909378051758 L3.478954315185547 10.598909378051758"></path>
<path fill="none" stroke="black" stroke-width=".3" stroke-opacity="1.0"  filling="0" d="M15.48685073852539 10.598909378051758 L15.48685073852539 10.598909378051758 C15.809956550598145 10.916074752807617 16.45752716064453 11.097648620605469 16.456167221069336 11.550405502319336 C16.454809188842773 12.002448081970215 15.93320369720459 12.490921020507812 15.48116397857666 12.492992401123047 C15.032549858093262 12.495048522949219 14.510499954223633 12.007932662963867 14.511846542358398 11.559316635131836 C14.513216018676758 11.103124618530273 15.161849021911621 10.919045448303223 15.48685073852539 10.598909378051758 L15.48685073852539 10.598909378051758"></path>
<path fill="none" stroke="black" stroke-width=".3" stroke-opacity="1.0"  filling="0" d="M9.829605102539062 10.698286056518555 L10.403080940246582 12.089038848876953 L9.28835678100586 12.089038848876953"></path>
<path fill="none" stroke="black" stroke-width=".3" stroke-opacity="1.0"  filling="0" d="M7.284468173980713 10.730287551879883 L7.284468173980713 10.730287551879883 C7.2841362953186035 10.955001831054688 7.283804893493652 11.179715156555176 7.283473014831543 11.40442943572998 L6.013862609863281 11.40442943572998 L6.013862609863281 10.730287551879883"></path>
<path fill="none" stroke="black" stroke-width=".3" stroke-opacity="1.0"  filling="0" d="M3.478954315185547 10.748809814453125 L3.5752601623535156 10.75240707397461 C3.683699369430542 10.77983283996582 3.7921383380889893 10.807257652282715 3.9005775451660156 10.834683418273926 L3.9663619995117188 10.870515823364258 C4.034736633300781 10.936677932739258 4.1031107902526855 11.002840995788574 4.171485424041748 11.069003105163574 L4.208453178405762 11.133270263671875 C4.257324695587158 11.315191268920898 4.293478965759277 11.50419807434082 4.289588928222656 11.692529678344727 L4.274801254272461 11.778977394104004 C4.234042167663574 11.871745109558105 4.193282604217529 11.96451187133789 4.152523517608643 12.057279586791992 L4.10740327835083 12.111688613891602 C4.027337551116943 12.165719032287598 3.9472720623016357 12.219748497009277 3.867206573486328 12.273778915405273 L3.7911853790283203 12.300128936767578 C3.6684017181396484 12.314031600952148 3.5456180572509766 12.327933311462402 3.4228343963623047 12.341835975646973 L3.3270959854125977 12.334628105163574 C3.221816301345825 12.303979873657227 3.116536855697632 12.273330688476562 3.0112571716308594 12.242682456970215 L2.948507308959961 12.205337524414062 C2.885188102722168 12.137594223022461 2.821868896484375 12.06985092163086 2.758549690246582 12.002107620239258 L2.72518253326416 11.936324119567871 C2.685265064239502 11.750182151794434 2.657827854156494 11.55800724029541 2.6690683364868164 11.367964744567871 L2.6872682571411133 11.282465934753418 C2.7322614192962646 11.191720962524414 2.777254343032837 11.100975036621094 2.8222475051879883 11.01023006439209 L2.870401382446289 10.957716941833496 C3.0959792137145996 10.82060718536377 3.22127366065979 10.763545989990234 3.4789505004882812 10.748795509338379 L3.4789505004882812 10.748795509338379"></path>
<path fill="none" stroke="black" stroke-width=".3" stroke-opacity="1.0"  filling="0" d="M15.48685073852539 10.748809814453125 L15.583157539367676 10.75240707397461 C15.691722869873047 10.77983283996582 15.800289154052734 10.807257652282715 15.908854484558105 10.834683418273926 L15.974827766418457 10.870515823364258 C16.043075561523438 10.936677932739258 16.111324310302734 11.002840995788574 16.17957305908203 11.069003105163574 L16.216541290283203 11.133270263671875 C16.265209197998047 11.315237045288086 16.301231384277344 11.504203796386719 16.297496795654297 11.692529678344727 L16.282899856567383 11.778977394104004 C16.24213981628418 11.871745109558105 16.20138168334961 11.96451187133789 16.160621643066406 12.057279586791992 L16.115310668945312 12.111688613891602 C16.035245895385742 12.165719032287598 15.955180168151855 12.219748497009277 15.875114440917969 12.273778915405273 L15.799093246459961 12.300128936767578 C15.676435470581055 12.314031600952148 15.553778648376465 12.327933311462402 15.431120872497559 12.341835975646973 L15.335573196411133 12.334628105163574 C15.230040550231934 12.303979873657227 15.12450885772705 12.273330688476562 15.018976211547852 12.242682456970215 L14.956794738769531 12.20533561706543 C14.893411636352539 12.137593269348145 14.830029487609863 12.069849967956543 14.766646385192871 12.002107620239258 L14.733469009399414 11.936323165893555 C14.693344116210938 11.750219345092773 14.66577434539795 11.558003425598145 14.677165985107422 11.367964744567871 L14.695176124572754 11.282464027404785 C14.740169525146484 11.191719055175781 14.785162925720215 11.100975036621094 14.830156326293945 11.01023006439209 L14.878498077392578 10.957715034484863 C15.103998184204102 10.82065486907959 15.229270935058594 10.76356029510498 15.486858367919922 10.748795509338379 L15.486858367919922 10.748795509338379"></path>
<path fill="none" stroke="black" stroke-width=".3" stroke-opacity="1.0"  filling="0" d="M7.281302452087402 10.880074501037598 L7.281302452087402 10.880074501037598 C7.596733093261719 10.998981475830078 7.5768327713012695 11.116087913513184 7.280543804168701 11.25487232208252 L6.163924217224121 11.25487232208252 L6.163924217224121 10.880074501037598"></path>
<path fill="none" stroke="black" stroke-width=".3" stroke-opacity="1.0"  filling="0" d="M9.833642959594727 11.101426124572754 L10.179056167602539 11.938796997070312 L9.507377624511719 11.938796997070312"></path>
<path fill="none" stroke="black" stroke-width=".3" stroke-opacity="1.0"  filling="0" d="M20.884469985961914 12.201855659484863 L20.884469985961914 12.201855659484863 C22.006671905517578 13.323610305786133 19.76259422302246 13.323732376098633 20.884469985961914 12.20185661315918 L20.884469985961914 12.20185661315918"></path>
<path fill="none" stroke="black" stroke-width=".3" stroke-opacity="1.0"  filling="0" d="M20.884469985961914 12.251336097717285 L20.884469985961914 12.251336097717285 C21.890316009521484 13.256291389465332 19.87958526611328 13.256667137145996 20.884469985961914 12.251336097717285 L20.884469985961914 12.251336097717285"></path>
<path fill="none" stroke="black" stroke-width=".3" stroke-opacity="1.0"  filling="0" d="M20.906784057617188 12.38823127746582 L20.906784057617188 12.38823127746582 C21.11288833618164 12.42092227935791 21.130578994750977 12.50819206237793 21.027734756469727 12.678855895996094 L21.027734756469727 12.678855895996094 C21.049598693847656 12.71462345123291 21.07146453857422 12.750391006469727 21.09332847595215 12.786158561706543 L21.099586486816406 12.880757331848145 C21.10843276977539 12.903191566467285 21.117279052734375 12.92562484741211 21.12612533569336 12.94805908203125 L21.035507202148438 12.963983535766602 C21.030515670776367 12.937505722045898 21.025524139404297 12.911027908325195 21.020532608032227 12.884550094604492 L21.01541519165039 12.809287071228027 C20.972759246826172 12.77863883972168 20.930103302001953 12.747989654541016 20.887447357177734 12.717341423034668 L20.683460235595703 12.963983535766602 L20.683460235595703 12.38823127746582"></path>
<path fill="none" stroke="black" stroke-width=".3" stroke-opacity="1.0"  filling="0" d="M20.760238647460938 12.45572280883789 L20.89370346069336 12.45572280883789 C20.946781158447266 12.493287086486816 20.9453125 12.611242294311523 20.89370346069336 12.650798797607422 L20.760238647460938 12.650798797607422"></path>
<path fill="none" stroke="black" stroke-width=".3" stroke-opacity="1.0"  filling="0" d="M15.93559455871582 14.617009162902832 L15.93559455871582 14.617009162902832 C16.187379837036133 14.97793197631836 16.439163208007812 15.33885383605957 16.690948486328125 15.699776649475098 L12.799764633178711 15.699776649475098 L8.908580780029297 15.699776649475098 C8.561635971069336 15.338854789733887 8.214692115783691 14.97793197631836 7.867747783660889 14.617010116577148 L7.867747783660889 14.617010116577148"></path></svg>