<svg xmlns="http://www.w3.org/2000/svg" viewBox="0.0 0.0 24.0 24.0" height="200px" width="200px"><path fill="none" stroke="black" stroke-width=".3" stroke-opacity="1.0"  filling="0" d="M3.2083024978637695 1.2000007629394531 L10.611785888671875 1.2000007629394531 L18.015268325805664 1.2000007629394531 L25.418750762939453 1.2000007629394531 L32.822235107421875 1.2000007629394531 L40.2257194519043 1.2000007629394531 L47.62919998168945 1.2000007629394531 L55.03268051147461 1.2000007629394531 L62.43616485595703 1.2000007629394531 L69.83965301513672 1.2000007629394531 L77.24313354492188 1.2000007629394531 L84.64661407470703 1.2000007629394531 L92.05009460449219 1.2000007629394531 L99.45358276367188 1.2000007629394531 L106.85706329345703 1.2000007629394531 L114.26055145263672 1.2000007629394531 L121.66403198242188 1.2000007629394531 L129.06752014160156 1.2000007629394531 L136.4709930419922 1.2000007629394531 L143.87448120117188 1.2000007629394531 L143.87448120117188 8.40000057220459 L143.87448120117188 15.600000381469727 L143.87448120117188 22.80000114440918 L143.87448120117188 30.0 L143.87448120117188 37.20000076293945 L143.87448120117188 44.400001525878906 L143.87448120117188 51.60000228881836 L143.87448120117188 58.79999923706055 L143.87448120117188 66.0 L143.87448120117188 73.19999694824219 L143.87448120117188 80.4000015258789 L143.87448120117188 87.5999984741211 L143.87448120117188 94.80000305175781 L143.87448120117188 102.0 L143.87448120117188 109.19999694824219 L143.87448120117188 116.4000015258789 L143.87448120117188 123.5999984741211 L143.87448120117188 130.8000030517578 L143.87448120117188 138.0 L143.87448120117188 145.1999969482422 L143.87448120117188 152.39999389648438 L143.87448120117188 159.60000610351562 L143.87448120117188 166.8000030517578 L143.87448120117188 174.0 L136.4709930419922 174.0 L129.06752014160156 174.0 L121.66403198242188 174.0 L114.26055145263672 174.0 L106.85706329345703 174.0 L99.45358276367188 174.0 L92.05009460449219 174.0 L84.64661407470703 174.0 L77.24313354492188 174.0 L69.83965301513672 174.0 L62.43616485595703 174.0 L55.03268051147461 174.0 L47.62919998168945 174.0 L40.2257194519043 174.0 L32.822235107421875 174.0 L25.418750762939453 174.0 L18.015268325805664 174.0 L10.611785888671875 174.0 L3.2083024978637695 174.0 L3.2083024978637695 166.8000030517578 L3.2083024978637695 159.60000610351562 L3.2083024978637695 152.39999389648438 L3.2083024978637695 145.1999969482422 L3.2083024978637695 138.0 L3.2083024978637695 130.8000030517578 L3.2083022594451904 123.5999984741211 L3.2083024978637695 116.4000015258789 L3.2083024978637695 109.19999694824219 L3.2083024978637695 102.0 L3.2083024978637695 94.80000305175781 L3.2083024978637695 87.5999984741211 L3.2083024978637695 80.4000015258789 L3.2083024978637695 73.19999694824219 L3.2083024978637695 66.0 L3.2083024978637695 58.79999923706055 L3.2083022594451904 51.60000228881836 L3.2083024978637695 44.400001525878906 L3.2083024978637695 37.20000076293945 L3.2083024978637695 30.0 L3.2083024978637695 22.80000114440918 L3.2083024978637695 15.600000381469727 L3.2083024978637695 8.40000057220459 L3.2083024978637695 1.2000007629394531"></path>
<path fill="none" stroke="black" stroke-width=".3" stroke-opacity="1.0"  filling="0" d="M13.071316719055176 1.6327896118164062 L13.071316719055176 1.6327896118164062 C13.37295913696289 1.930912733078003 13.674602508544922 2.2290356159210205 13.976244926452637 2.527158737182617 L13.976244926452637 3.990780830383301 C13.674602508544922 4.288839817047119 13.37295913696289 4.586898326873779 13.071316719055176 4.884957313537598 L10.063309669494629 4.884957313537598 L10.063309669494629 9.336485862731934 L13.358840942382812 9.336485862731934 C15.35660171508789 9.4960298538208 17.2355899810791 9.608429908752441 18.906879425048828 10.862534523010254 C20.480907440185547 12.043655395507812 21.344432830810547 14.0674467086792 21.47643280029297 16.14488983154297 C21.60843276977539 18.222333908081055 21.008907318115234 20.35342788696289 19.656835556030273 21.749156951904297 C18.715490341186523 22.720897674560547 17.583078384399414 23.26219940185547 16.369667053222656 23.581289291381836 C15.156255722045898 23.900379180908203 13.86184310913086 23.99725914001465 12.59649658203125 24.080154418945312 L8.355916976928711 24.080154418945312 L4.115338325500488 24.080154418945312 C3.812993049621582 23.7932186126709 3.510647773742676 23.506284713745117 3.2083024978637695 23.219348907470703 L3.2083024978637695 21.374019622802734 C3.511160135269165 21.08708381652832 3.8140180110931396 20.80014991760254 4.116875648498535 20.513214111328125 L5.91118049621582 20.47768783569336 L5.91118049621582 15.268342018127441 L5.91118049621582 10.05899429321289 L5.91118049621582 4.849647521972656 L4.116875648498535 4.884958744049072 C3.8140180110931396 4.586899757385254 3.511160135269165 4.2888407707214355 3.2083024978637695 3.990781784057617 L3.2083024978637695 2.5271596908569336 C3.511160135269165 2.229036569595337 3.8140180110931396 1.9309136867523193 4.116875648498535 1.6327905654907227 L8.594096183776855 1.6327900886535645 L13.071316719055176 1.6327896118164062"></path>
<path fill="none" stroke="black" stroke-width=".3" stroke-opacity="1.0"  filling="0" d="M33.00197982788086 5.375328540802002 L33.00197982788086 9.280818939208984 L32.39779281616211 9.280818939208984 C31.14712905883789 9.157432556152344 29.89069366455078 9.283888816833496 28.844947814941406 8.444530487060547 C27.2657413482666 7.176995277404785 28.02582550048828 4.173332691192627 30.114051818847656 3.949514389038086 C31.38475799560547 3.8133184909820557 32.14742660522461 4.690796852111816 33.00197982788086 5.375328540802002 L33.00197982788086 5.375328540802002"></path>
<path fill="none" stroke="black" stroke-width=".3" stroke-opacity="1.0"  filling="0" d="M104.01403045654297 5.375328540802002 L104.01403045654297 9.280818939208984 L103.41018676757812 9.280818939208984 C102.15962219238281 9.157437324523926 100.90319061279297 9.283906936645508 99.85758209228516 8.444530487060547 C98.2788314819336 7.1771697998046875 99.0385513305664 4.173354625701904 101.12649536132812 3.949514389038086 C102.3968734741211 3.813321828842163 103.15972900390625 4.690959930419922 104.01403045654297 5.375328540802002 L104.01403045654297 5.375328540802002"></path>
<path fill="none" stroke="black" stroke-width=".3" stroke-opacity="1.0"  filling="0" d="M41.942771911621094 5.804276943206787 L41.942771911621094 5.804276943206787 C42.057918548583984 5.122475624084473 42.04589080810547 4.4064788818359375 42.288211822509766 3.758873462677002 C43.08311462402344 1.634481430053711 44.74243927001953 1.0492920875549316 46.501853942871094 1.253880262374878 C48.261268615722656 1.4584684371948242 50.12076950073242 2.452834129333496 51.31602478027344 3.4875526428222656 L51.6196174621582 2.3275575637817383 C51.94379425048828 2.095968246459961 52.267974853515625 1.8643789291381836 52.5921516418457 1.6327896118164062 L53.972293853759766 1.6327896118164062 C54.26266860961914 1.9197171926498413 54.553043365478516 2.2066447734832764 54.84341812133789 2.493572235107422 L54.84341812133789 9.811185836791992 L54.84341812133789 17.128799438476562 C54.553043365478516 17.415735244750977 54.26266860961914 17.702669143676758 53.972293853759766 17.989604949951172 L51.85358810424805 17.989604949951172 C51.56250762939453 17.702669143676758 51.27143096923828 17.415735244750977 50.980350494384766 17.128799438476562 L50.980350494384766 11.51634407043457 L50.980350494384766 5.9038896560668945 C50.006126403808594 5.211994171142578 47.57245635986328 3.2752840518951416 46.29711151123047 4.840481281280518 C45.89183807373047 5.337862491607666 45.96923065185547 6.081059455871582 45.80529022216797 6.701348781585693 L45.80529022216797 11.915074348449707 L45.80529022216797 17.128799438476562 C45.51470184326172 17.415735244750977 45.224117279052734 17.702669143676758 44.933528900146484 17.989604949951172 L42.81605529785156 17.989604949951172 C42.524959564208984 17.702669143676758 42.23386764526367 17.415735244750977 41.942771911621094 17.128799438476562 L41.942771911621094 11.466538429260254 L41.942771911621094 5.804276943206787"></path>
<path fill="none" stroke="black" stroke-width=".3" stroke-opacity="1.0"  filling="0" d="M24.132726669311523 6.275465965270996 L24.132726669311523 6.275465965270996 C24.299287796020508 4.990445613861084 24.221355438232422 4.41275691986084 24.954801559448242 3.299199104309082 C25.996675491333008 1.717369794845581 27.505752563476562 1.1516755819320679 29.056167602539062 1.237977385520935 C30.606582641601562 1.3242791891098022 32.198333740234375 2.06257700920105 33.405555725097656 3.0887317657470703 L33.6412467956543 2.32659912109375 C33.96586608886719 2.0953292846679688 34.290489196777344 1.8640594482421875 34.615108489990234 1.6327896118164062 L35.99273681640625 1.6327896118164062 C36.2839469909668 1.9197168350219727 36.57516098022461 2.206644058227539 36.866371154785156 2.4935712814331055 L36.866371154785156 7.823812961578369 L36.866371154785156 13.154054641723633 C36.794403076171875 13.819869041442871 36.81305694580078 14.50184154510498 36.65047073364258 15.151498794555664 C36.24311828613281 16.77920913696289 35.15949630737305 17.642000198364258 33.83113479614258 18.06563949584961 C32.50277328491211 18.489280700683594 30.929668426513672 18.47376823425293 29.543352127075195 18.34486961364746 C28.304702758789062 18.22970199584961 24.611356735229492 17.923200607299805 25.07352066040039 15.968429565429688 L25.5443115234375 14.943912506103516 C26.447956085205078 14.395766258239746 28.04461097717285 14.94758415222168 29.53273582458496 15.24770450592041 C31.020862579345703 15.54782485961914 32.40045928955078 15.596248626708984 32.869991302490234 14.041313171386719 C33.01649475097656 13.55614185333252 32.957984924316406 13.031523704528809 33.00197982788086 12.526629447937012 L33.00197982788086 11.729204177856445 L31.793411254882812 11.729204177856445 C29.76070785522461 11.593581199645996 27.98094367980957 11.34372615814209 26.641653060913086 10.5709867477417 C25.30236053466797 9.798248291015625 24.403541564941406 8.50262451171875 24.132726669311523 6.275465965270996 L24.132726669311523 6.275465965270996"></path>
<path fill="none" stroke="black" stroke-width=".3" stroke-opacity="1.0"  filling="0" d="M95.14507293701172 6.275465965270996 L95.14507293701172 6.275465965270996 C95.31163787841797 4.9904398918151855 95.23371124267578 4.412750244140625 95.9671859741211 3.299199104309082 C97.00909423828125 1.7173928022384644 98.51815032958984 1.1516990661621094 100.06854248046875 1.2379953861236572 C101.61893463134766 1.324291706085205 103.21066284179688 2.0625782012939453 104.41790008544922 3.0887317657470703 L104.65325164794922 2.32659912109375 C104.97801971435547 2.0953292846679688 105.30278778076172 1.8640594482421875 105.62755584716797 1.6327896118164062 L107.00524139404297 1.6327896118164062 C107.29643249511719 1.9197168350219727 107.58763122558594 2.206644058227539 107.87882232666016 2.4935712814331055 L107.87882232666016 7.823812961578369 L107.87882232666016 13.154054641723633 C107.80685424804688 13.819869041442871 107.82550048828125 14.501842498779297 107.66291046142578 15.151498794555664 C107.25553131103516 16.779258728027344 106.17185974121094 17.642045974731445 104.84343719482422 18.065671920776367 C103.51502227783203 18.48929786682129 101.94186401367188 18.47376251220703 100.5555191040039 18.34486961364746 C99.31717681884766 18.229738235473633 95.62340545654297 17.922977447509766 96.08596801757812 15.968429565429688 L96.55665588378906 14.943912506103516 C97.46016693115234 14.395665168762207 99.05680847167969 14.947515487670898 100.54492950439453 15.24767780303955 C102.0330581665039 15.547840118408203 103.41266632080078 15.5963134765625 103.88211822509766 14.041313171386719 C104.02859497070312 13.556135177612305 103.97006225585938 13.031523704528809 104.01403045654297 12.526629447937012 L104.01403045654297 11.729204177856445 L102.80585479736328 11.729204177856445 C100.77314758300781 11.593582153320312 98.99337005615234 11.343729972839355 97.654052734375 10.570992469787598 C96.31474304199219 9.798254013061523 95.4158935546875 8.502630233764648 95.14507293701172 6.275465965270996 L95.14507293701172 6.275465965270996"></path>
<path fill="none" stroke="black" stroke-width=".3" stroke-opacity="1.0"  filling="0" d="M125.86090087890625 14.015795707702637 L125.86090087890625 14.015795707702637 C125.76285552978516 14.687482833862305 125.78456115722656 15.387939453125 125.5667724609375 16.03085708618164 C124.84379577636719 18.16507339477539 123.13072204589844 18.65856170654297 121.31172180175781 18.384700775146484 C119.49271392822266 18.11083984375 117.5677719116211 17.069631576538086 116.42103576660156 16.134450912475586 L116.21859741210938 17.127864837646484 C115.84928131103516 17.415422439575195 115.47997283935547 17.70298194885254 115.11065673828125 17.99053955078125 L113.80028533935547 17.99053955078125 C113.5092544555664 17.70298194885254 113.21822357177734 17.415422439575195 112.92719268798828 17.127864837646484 L112.92719268798828 9.810718536376953 L112.92719268798828 2.493572235107422 C113.21822357177734 2.2066447734832764 113.5092544555664 1.9197171926498413 113.80028533935547 1.6327896118164062 L115.91840362548828 1.6327896118164062 C116.20893859863281 1.9197170734405518 116.49947357177734 2.2066447734832764 116.79000854492188 2.493572235107422 L116.79000854492188 8.122245788574219 L116.79000854492188 13.750920295715332 C117.76012420654297 14.40688705444336 120.29904174804688 16.294662475585938 121.54086303710938 14.802669525146484 C121.9329833984375 14.33155345916748 121.8453598022461 13.61518669128418 121.99761199951172 13.021445274353027 L121.99761199951172 7.757508754730225 L121.99761199951172 2.493572235107422 C122.28929901123047 2.2066447734832764 122.58098602294922 1.9197170734405518 122.87267303466797 1.6327896118164062 L124.98685455322266 1.6327896118164062 C125.27821350097656 1.9197171926498413 125.56957244873047 2.2066447734832764 125.86093139648438 2.493572235107422 L125.86093139648438 8.254684448242188 L125.86093139648438 14.015795707702637"></path>
<path fill="none" stroke="black" stroke-width=".3" stroke-opacity="1.0"  filling="0" d="M143.87445068359375 14.015795707702637 L143.87445068359375 14.015795707702637 C143.77621459960938 14.687482833862305 143.79783630371094 15.388012886047363 143.57974243164062 16.03085708618164 C142.85586547851562 18.164520263671875 141.14242553710938 18.65839385986328 139.32321166992188 18.384862899780273 C137.50401306152344 18.1113338470459 135.57904052734375 17.07040023803711 134.43212890625 16.134450912475586 L134.22921752929688 17.127864837646484 C133.8612060546875 17.415422439575195 133.4932098388672 17.70298194885254 133.1251983642578 17.99053955078125 L131.8133544921875 17.99053955078125 C131.52232360839844 17.70298194885254 131.23129272460938 17.415422439575195 130.9402618408203 17.127864837646484 L130.9402618408203 9.810718536376953 L130.9402618408203 2.493572235107422 C131.23129272460938 2.2066447734832764 131.52232360839844 1.9197171926498413 131.8133544921875 1.6327896118164062 L133.9314727783203 1.6327896118164062 C134.22250366210938 1.9197171926498413 134.51353454589844 2.2066447734832764 134.8045654296875 2.493572235107422 L134.8045654296875 8.122245788574219 L134.8045654296875 13.750920295715332 C135.7742156982422 14.407865524291992 138.31173706054688 16.29508399963379 139.5529327392578 14.802669525146484 C139.9449462890625 14.331306457519531 139.85842895507812 13.61518669128418 140.01116943359375 13.021445274353027 L140.01116943359375 7.757508754730225 L140.01116943359375 2.493572235107422 C140.30186462402344 2.2066447734832764 140.59255981445312 1.9197170734405518 140.8832550048828 1.6327896118164062 L143.0013885498047 1.6327896118164062 C143.29241943359375 1.9197171926498413 143.5834503173828 2.2066447734832764 143.87448120117188 2.493572235107422 L143.87448120117188 8.254684448242188 L143.87448120117188 14.015795707702637"></path>
<path fill="none" stroke="black" stroke-width=".3" stroke-opacity="1.0"  filling="0" d="M17.11690902709961 16.728466033935547 L17.11690902709961 16.728466033935547 C16.493749618530273 19.59706687927246 15.29903507232666 20.1959171295166 12.460988998413086 20.494985580444336 L10.063308715820312 20.494985580444336 L10.063308715820312 16.62452507019043 L10.063308715820312 12.75406551361084 L12.850611686706543 12.75406551361084 C15.64697551727295 13.107680320739746 16.60139274597168 13.880165100097656 17.11690902709961 16.678743362426758 L17.11690902709961 16.678743362426758"></path>
<path fill="none" stroke="black" stroke-width=".3" stroke-opacity="1.0"  filling="0" d="M87.04454040527344 18.419513702392578 L87.04454040527344 18.419513702392578 C84.93795013427734 18.09541130065918 83.86309051513672 17.532644271850586 82.17498779296875 16.234628677368164 L82.17498779296875 16.234628677368164 C81.01835632324219 17.936172485351562 79.59908294677734 18.480758666992188 78.12445831298828 18.31936264038086 C76.64983367919922 18.1579647064209 75.11985778808594 17.290584564208984 73.74183654785156 16.168201446533203 L73.53941345214844 17.12786293029785 C73.1707534790039 17.414470672607422 72.80209350585938 17.701080322265625 72.43343353271484 17.987688064575195 L71.12158966064453 17.987688064575195 C70.83039093017578 17.701080322265625 70.53919982910156 17.414470672607422 70.24800109863281 17.12786293029785 L70.24800109863281 9.81071662902832 L70.24800109863281 2.4935712814331055 C70.53919982910156 2.20664381980896 70.83039093017578 1.919716238975525 71.12158966064453 1.6327886581420898 L73.23970031738281 1.6327886581420898 C73.53089141845703 1.9197161197662354 73.82209014892578 2.20664381980896 74.11328125 2.4935712814331055 L74.11328125 8.122244834899902 L74.11328125 13.7509183883667 C74.89729309082031 14.308881759643555 77.29645538330078 16.27582550048828 78.36837005615234 14.819648742675781 C78.72505187988281 14.335101127624512 78.61915588378906 13.642725944519043 78.74454498291016 13.054265022277832 L78.74454498291016 7.773918151855469 L78.74454498291016 2.4935712814331055 C79.03704833984375 2.206644058227539 79.32954406738281 1.9197168350219727 79.6220474243164 1.6327896118164062 L81.73673248291016 1.6327896118164062 C82.0284194946289 1.9197168350219727 82.32009887695312 2.206644058227539 82.61178588867188 2.4935712814331055 L82.61178588867188 8.171181678771973 L82.61178588867188 13.84879207611084 C83.41546630859375 14.386432647705078 85.82366180419922 16.240131378173828 86.86994171142578 14.819650650024414 C87.22686004638672 14.335075378417969 87.12228393554688 13.642727851867676 87.24845123291016 13.054265975952148 L87.24845123291016 7.773919105529785 L87.24845123291016 2.493572235107422 C87.53964233398438 2.2066445350646973 87.8308334350586 1.9197171926498413 88.12202453613281 1.6327896118164062 L90.23670959472656 1.6327896118164062 C90.52790069580078 1.9197170734405518 90.81909942626953 2.2066447734832764 91.11029052734375 2.493572235107422 L91.11029052734375 8.287405967712402 L91.11029052734375 14.081239700317383 C90.6884536743164 16.976879119873047 89.98040771484375 17.997472763061523 87.04454803466797 18.419517517089844 L87.04454803466797 18.419517517089844"></path>
<path fill="none" stroke="black" stroke-width=".3" stroke-opacity="1.0"  filling="0" d="M58.92634201049805 24.876646041870117 L58.92634201049805 24.876646041870117 C58.629417419433594 24.589710235595703 58.33249282836914 24.30277442932129 58.03556823730469 24.015838623046875 L58.01050567626953 22.591970443725586 C58.29727554321289 22.305036544799805 58.584049224853516 22.01810073852539 58.870819091796875 21.73116683959961 L60.51628112792969 21.73116683959961 L60.424076080322266 16.521623611450195 L60.331871032714844 11.312078475952148 L60.239662170410156 6.10253381729126 C60.33513641357422 4.5067291259765625 60.1809196472168 2.321103572845459 62.029239654541016 1.5612064599990845 C63.145782470703125 1.1021645069122314 66.9026107788086 0.7876918315887451 66.66328430175781 2.825410842895508 L66.48199462890625 3.9195785522460938 C65.81449890136719 4.529905319213867 64.88874053955078 3.7879652976989746 64.2974853515625 4.467907428741455 C64.05936431884766 4.741745471954346 64.16224670410156 5.180973529815674 64.0946273803711 5.537506580352783 L64.20370483398438 11.696950912475586 L64.31277465820312 17.856393814086914 L64.4218521118164 24.015838623046875 C64.13573455810547 24.30277442932129 63.8496208190918 24.589710235595703 63.563507080078125 24.876646041870117 L58.926353454589844 24.876646041870117"></path>
<path fill="none" stroke="black" stroke-width=".3" stroke-opacity="1.0"  filling="0" d="M3.208494186401367 36.12053680419922 L10.611977577209473 36.12053680419922 L18.015460968017578 36.12053680419922 L25.418943405151367 36.12053680419922 L32.822425842285156 36.12053680419922 L40.225914001464844 36.12053680419922 L47.62939453125 36.12053680419922 L55.03287887573242 36.12053680419922 L62.43635940551758 36.12053680419922 L69.83985137939453 36.12053680419922 L77.24333190917969 36.12053680419922 L84.64681243896484 36.12053680419922 L92.05029296875 36.12053680419922 L99.45378112792969 36.12053680419922 L106.85726165771484 36.12053680419922 L114.26074981689453 36.12053680419922 L121.66423034667969 36.12053680419922 L129.06771850585938 36.12053680419922 L136.47120666503906 36.12053680419922 L143.8746795654297 36.12053680419922 L143.87469482421875 43.37744903564453 L143.8746795654297 50.634361267089844 L143.8746795654297 57.891273498535156 L143.8746795654297 65.14818572998047 L143.8746795654297 72.40510559082031 L143.8746795654297 79.6620101928711 L143.8746795654297 86.91893005371094 L143.8746795654297 94.17583465576172 L143.87469482421875 101.43275451660156 L143.87469482421875 108.68966674804688 L143.8746795654297 115.94657897949219 L143.8746795654297 123.20348358154297 L143.8746795654297 130.4604034423828 L143.8746795654297 137.71731567382812 L143.8746795654297 144.97422790527344 L143.8746795654297 152.23114013671875 L143.8746795654297 159.488037109375 L143.87469482421875 166.74496459960938 L143.8746795654297 174.0018768310547 L136.47120666503906 174.0018768310547 L129.06771850585938 174.00186157226562 L121.66423034667969 174.0018768310547 L114.26074981689453 174.0018768310547 L106.85726165771484 174.00189208984375 L99.45378112792969 174.0018768310547 L92.05029296875 174.0018768310547 L84.64681243896484 174.0018768310547 L77.24333190917969 174.00189208984375 L69.83985137939453 174.00189208984375 L62.43635940551758 174.0018768310547 L55.03287887573242 174.0018768310547 L47.62939453125 174.0018768310547 L40.225914001464844 174.00189208984375 L32.822425842285156 174.0018768310547 L25.418943405151367 174.0018768310547 L18.015460968017578 174.00186157226562 L10.611977577209473 174.0018768310547 L3.208494186401367 174.0018768310547 L3.208494186401367 166.74496459960938 L3.208493947982788 159.488037109375 L3.208494186401367 152.23114013671875 L3.2084944248199463 144.97422790527344 L3.208494186401367 137.71731567382812 L3.208494186401367 130.4604034423828 L3.208494186401367 123.20348358154297 L3.208494186401367 115.94657897949219 L3.208494186401367 108.68966674804688 L3.208494186401367 101.43275451660156 L3.208494186401367 94.17583465576172 L3.208494186401367 86.91893005371094 L3.208494186401367 79.6620101928711 L3.208494186401367 72.40510559082031 L3.2084944248199463 65.14818572998047 L3.208494186401367 57.891273498535156 L3.208493947982788 50.634361267089844 L3.208494186401367 43.37744903564453 L3.208494186401367 36.12053680419922"></path>
<path fill="none" stroke="black" stroke-width=".3" stroke-opacity="1.0"  filling="0" d="M31.068700790405273 56.13438034057617 L37.629310607910156 56.13438415527344 L44.189918518066406 56.13438034057617 L50.75053024291992 56.13438415527344 L57.31114196777344 56.13438415527344 L63.87174987792969 56.13438034057617 L70.43235778808594 56.13438415527344 L76.99296569824219 56.13438034057617 C79.54219818115234 56.814579010009766 80.11901092529297 57.37018585205078 80.81058502197266 59.9176025390625 L80.81058502197266 67.4142837524414 C80.12010955810547 69.96619415283203 79.54718017578125 70.5199966430664 76.99296569824219 71.197021484375 L71.9656982421875 71.197021484375 L66.93843841552734 71.197021484375 L61.91117477416992 71.197021484375 L61.91117477416992 77.09738159179688 L61.91117477416992 82.99773406982422 L61.91117477416992 88.89808654785156 L67.4592514038086 88.89808654785156 L73.00732421875 88.89808654785156 L78.5553970336914 88.89808654785156 C80.85873413085938 88.93946075439453 83.19052124023438 89.05765533447266 85.50849151611328 89.30445098876953 C87.82646179199219 89.5512466430664 90.13062286376953 89.9266357421875 92.37871551513672 90.4823989868164 C94.6268081665039 91.03816223144531 96.81883239746094 91.77429962158203 98.91252899169922 92.7425765991211 C101.0062255859375 93.71086120605469 103.00160217285156 94.91128540039062 104.85638427734375 96.39562225341797 C106.54702758789062 97.74860382080078 108.03800964355469 99.31909942626953 109.3280029296875 101.054443359375 C110.61799621582031 102.78978729248047 111.70699310302734 104.68997192382812 112.59367370605469 106.70235443115234 C113.48035430908203 108.71472930908203 114.16470336914062 110.83928680419922 114.64540100097656 113.02336883544922 C115.1260986328125 115.20745086669922 115.40314483642578 117.4510498046875 115.4751968383789 119.7015151977539 C115.54725646972656 121.95197296142578 115.41432189941406 124.20928955078125 115.0750732421875 126.4207992553711 C114.73582458496094 128.63230895996094 114.19025421142578 130.7980194091797 113.4370346069336 132.86524963378906 C112.68380737304688 134.9324951171875 111.72293853759766 136.9012451171875 110.55308532714844 138.71888732910156 C109.38322448730469 140.53651428222656 108.00439453125 142.2030029296875 106.41523742675781 143.66571044921875 C104.56004333496094 145.37327575683594 102.52669525146484 146.770751953125 100.36790466308594 147.90908813476562 C98.2091064453125 149.04742431640625 95.92486572265625 149.92662048339844 93.5678939819336 150.59765625 C91.21092224121094 151.2686767578125 88.78121948242188 151.7315216064453 86.33149719238281 152.0371551513672 C83.88177490234375 152.34280395507812 81.41203308105469 152.4912109375 78.97499084472656 152.53338623046875 L72.13186645507812 152.53338623046875 L65.28874969482422 152.53338623046875 L58.445621490478516 152.53338623046875 L51.602500915527344 152.53338623046875 L44.759376525878906 152.53338623046875 L37.91625213623047 152.53338623046875 L31.073129653930664 152.53338623046875 C28.582382202148438 151.88121032714844 27.95087432861328 151.37631225585938 27.238265991210938 148.8950958251953 L27.238265991210938 144.43850708007812 L27.238265991210938 139.98193359375 C27.948989868164062 137.50022888183594 28.578022003173828 136.99363708496094 31.06870460510254 136.34019470214844 L36.3145866394043 136.34019470214844 L41.56047058105469 136.34019470214844 L41.56047058105469 129.10206604003906 L41.56047058105469 121.86393737792969 L41.56047058105469 114.62580871582031 L41.56047058105469 107.3876724243164 L41.56047058105469 100.14954376220703 L41.56047058105469 92.91141510009766 L41.56047058105469 85.67327880859375 L41.56047058105469 78.43515014648438 L41.56047058105469 71.197021484375 L36.3145866394043 71.197021484375 L31.06870460510254 71.197021484375 C28.55291175842285 70.51018524169922 27.960092544555664 69.92214965820312 27.238265991210938 67.4142837524414 L27.238265991210938 59.9176025390625 C27.961191177368164 57.414329528808594 28.5579891204834 56.82439041137695 31.06870460510254 56.13438034057617 L31.06870460510254 56.13438034057617"></path>
<path fill="none" stroke="black" stroke-width=".3" stroke-opacity="1.0"  filling="0" d="M75.725830078125 136.3667449951172 L68.81849670410156 136.3667449951172 L61.911163330078125 136.3667449951172 L61.911163330078125 129.94873046875 L61.911163330078125 123.53071594238281 L61.911163330078125 117.11268615722656 L61.911163330078125 110.69467163085938 L61.911163330078125 104.27664947509766 L68.5045394897461 104.27664947509766 L75.09791564941406 104.27664947509766 C76.86617279052734 104.30402374267578 78.69190979003906 104.38631439208984 80.49494934082031 104.61918640136719 C82.29798889160156 104.85205841064453 84.07833099365234 105.23550415039062 85.75579071044922 105.86520385742188 C87.43325805664062 106.4948959350586 89.00784301757812 107.37083435058594 90.39938354492188 108.58869171142578 C92.0439224243164 110.02796936035156 93.29464721679688 111.93538665771484 94.13150787353516 114.06982421875 C94.96836853027344 116.20426177978516 95.391357421875 118.56570434570312 95.38043212890625 120.91304016113281 C95.36949920654297 123.2603759765625 94.92464447021484 125.59358978271484 94.02581024169922 127.67156219482422 C93.1269760131836 129.74952697753906 91.774169921875 131.572265625 89.94731903076172 132.8986053466797 C87.90660095214844 134.3802490234375 85.56794738769531 135.222900390625 83.13111877441406 135.70733642578125 C80.69429016113281 136.1917724609375 78.15928649902344 136.3179931640625 75.725830078125 136.3667449951172 L75.725830078125 136.3667449951172"></path></svg>