<svg xmlns="http://www.w3.org/2000/svg" viewBox="0.0 0.0 24.0 24.0" height="200px" width="200px"><path fill="none" stroke="black" stroke-width=".3" stroke-opacity="1.0"  filling="0" d="M20.788789749145508 4.232441425323486 L20.78879165649414 11.072400093078613 L20.78879165649414 17.9123592376709 L20.788789749145508 24.752315521240234 L13.588790893554688 24.752317428588867 L6.388790607452393 24.752317428588867 L-0.8112096786499023 24.752315521240234 L4.588789939880371 19.622346878051758 L9.988790512084961 14.492378234863281 L15.388790130615234 9.362409591674805 L20.788789749145508 4.232441425323486"></path>
<path fill="none" stroke="black" stroke-width=".3" stroke-opacity="1.0"  filling="0" d="M4.905018329620361 12.680830955505371 L4.905018329620361 12.680830955505371 C5.9220733642578125 13.067229270935059 8.916677474975586 14.568709373474121 6.707789897918701 16.195253372192383 C6.101772308349609 16.641502380371094 5.262950897216797 16.61717987060547 4.540531635284424 16.828144073486328 L3.558987617492676 16.828144073486328 L3.558987617492676 19.40290641784668 L2.1008787155151367 19.40290641784668 L2.1008787155151367 12.680830955505371"></path>
<path fill="none" stroke="black" stroke-width=".3" stroke-opacity="1.0"  filling="0" d="M12.185396194458008 12.787922859191895 L14.112607955932617 12.787922859191895 L15.33418083190918 14.85959529876709 L16.57512092590332 12.787922859191895 L18.502490997314453 12.787922859191895 L16.253812789916992 16.12803077697754 L18.4848690032959 19.4052734375 L16.59766387939453 19.4052734375 L15.33418083190918 17.40484619140625 L13.950685501098633 19.4052734375 L12.0555419921875 19.4052734375 L14.41455078125 16.12803077697754"></path>
<path fill="none" stroke="black" stroke-width=".3" stroke-opacity="1.0"  filling="0" d="M9.131546974182129 14.43191146850586 L9.131546974182129 14.43191146850586 C8.548316955566406 14.695944786071777 7.819263458251953 14.756522178649902 7.381857872009277 15.22401237487793 C5.901515483856201 16.806171417236328 7.061100959777832 19.42578887939453 9.152820587158203 19.562036514282227 C9.662725448608398 19.59524917602539 10.093777656555176 19.163257598876953 10.564255714416504 18.963869094848633 L10.585528373718262 19.405208587646484 L12.049985885620117 19.405208587646484 L10.585528373718262 15.040046691894531 C10.100868225097656 14.837334632873535 9.616207122802734 14.634623527526855 9.131546974182129 14.43191146850586 L9.131546974182129 14.43191146850586"></path>
<path fill="none" stroke="black" stroke-width=".3" stroke-opacity="1.0"  filling="0" d="M3.558987617492676 15.687691688537598 L3.558987617492676 13.821281433105469 L3.8580703735351562 13.821281433105469 C4.2814202308654785 13.845039367675781 4.745854377746582 13.70908260345459 5.128120422363281 13.892556190490723 C7.24396276473999 14.908082962036133 4.497332572937012 15.651809692382812 3.8580703735351562 15.687692642211914 L3.8580703735351562 15.687692642211914"></path>
<path fill="none" stroke="black" stroke-width=".3" stroke-opacity="1.0"  filling="0" d="M10.66982364654541 16.992036819458008 L10.66982364654541 16.992036819458008 C10.202323913574219 18.278242111206055 8.197151184082031 19.048683166503906 8.197151184082031 16.992036819458008 C8.197151184082031 14.945564270019531 10.203495979309082 15.716042518615723 10.66982364654541 16.992036819458008 L10.66982364654541 16.992036819458008"></path>
<path fill="none" stroke="black" stroke-width=".3" stroke-opacity="1.0"  filling="0" d="M14.776317596435547 20.381084442138672 L14.776317596435547 20.381084442138672 C14.492042541503906 20.665239334106445 14.492095947265625 20.096790313720703 14.776317596435547 20.381084442138672 L14.776317596435547 20.381084442138672"></path>
<path fill="none" stroke="black" stroke-width=".3" stroke-opacity="1.0"  filling="0" d="M15.086353302001953 20.381084442138672 L15.086353302001953 20.381084442138672 C14.802078247070312 20.665237426757812 14.802132606506348 20.096792221069336 15.086353302001953 20.381084442138672 L15.086353302001953 20.381084442138672"></path>
<path fill="none" stroke="black" stroke-width=".3" stroke-opacity="1.0"  filling="0" d="M11.496560096740723 20.694612503051758 L11.496560096740723 20.694612503051758 C11.484336853027344 20.682329177856445 11.472112655639648 20.670047760009766 11.45988941192627 20.657764434814453 L11.332096099853516 20.657764434814453 C11.319872856140137 20.670047760009766 11.307649612426758 20.682329177856445 11.295426368713379 20.694612503051758 L11.295426368713379 21.249597549438477 C11.297172546386719 21.32547950744629 11.298918724060059 21.401363372802734 11.300664901733398 21.477245330810547 L11.297176361083984 21.477245330810547 C11.262727737426758 21.392642974853516 11.228279113769531 21.308040618896484 11.193830490112305 21.223438262939453 L10.90475082397461 20.6806583404541 C10.891310691833496 20.67302703857422 10.877869606018066 20.665395736694336 10.864429473876953 20.657764434814453 L10.72092056274414 20.657764434814453 C10.708696365356445 20.670047760009766 10.696473121643066 20.682329177856445 10.684248924255371 20.694612503051758 L10.684248924255371 21.820472717285156 C10.696473121643066 21.832691192626953 10.708696365356445 21.84490966796875 10.72092056274414 21.857128143310547 L10.848713874816895 21.857128143310547 C10.860937118530273 21.84490966796875 10.873161315917969 21.832691192626953 10.885384559631348 21.820472717285156 L10.885384559631348 21.190067291259766 C10.883638381958008 21.125890731811523 10.881892204284668 21.06171226501465 10.880146026611328 20.997535705566406 L10.883638381958008 20.997535705566406 C10.916922569274902 21.0769100189209 10.950207710266113 21.156286239624023 10.983491897583008 21.235660552978516 L11.30416488647461 21.832698822021484 C11.317551612854004 21.84084129333496 11.330939292907715 21.84898567199707 11.34432601928711 21.857128143310547 L11.4598970413208 21.857128143310547 C11.47212028503418 21.84490966796875 11.484344482421875 21.832691192626953 11.496567726135254 21.820472717285156 L11.496567726135254 21.820472717285156"></path>
<path fill="none" stroke="black" stroke-width=".3" stroke-opacity="1.0"  filling="0" d="M18.39596939086914 20.69461441040039 L18.39596939086914 20.69461441040039 C18.383747100830078 20.68233299255371 18.371522903442383 20.6700496673584 18.35930061340332 20.65776824951172 L18.23150634765625 20.65776824951172 C18.219282150268555 20.6700496673584 18.207059860229492 20.68233299255371 18.194835662841797 20.69461441040039 L18.194835662841797 21.249603271484375 C18.19658088684082 21.325483322143555 18.19832420349121 21.401365280151367 18.200069427490234 21.477245330810547 L18.19658088684082 21.477245330810547 C18.162132263183594 21.392642974853516 18.127683639526367 21.308040618896484 18.09323501586914 21.223438262939453 L17.804153442382812 20.6806583404541 C17.790712356567383 20.67302894592285 17.777273178100586 20.66539764404297 17.763832092285156 20.65776824951172 L17.620481491088867 20.65776824951172 C17.608203887939453 20.6700496673584 17.59592628479004 20.682331085205078 17.583648681640625 20.694612503051758 L17.583648681640625 21.820476531982422 C17.59592628479004 21.832693099975586 17.608203887939453 21.844911575317383 17.620481491088867 21.857128143310547 L17.748111724853516 21.857128143310547 C17.76033592224121 21.844911575317383 17.77256202697754 21.832693099975586 17.784786224365234 21.820476531982422 L17.784786224365234 21.190067291259766 C17.783037185668945 21.125890731811523 17.781288146972656 21.061716079711914 17.779539108276367 20.997539520263672 L17.78302764892578 20.997539520263672 C17.81631088256836 21.076913833618164 17.84959602355957 21.15629005432129 17.88287925720215 21.23566436767578 L18.203554153442383 21.832698822021484 C18.216941833496094 21.84084129333496 18.230327606201172 21.84898567199707 18.243715286254883 21.857128143310547 L18.359285354614258 21.857128143310547 C18.371509552001953 21.844911575317383 18.38373374938965 21.832693099975586 18.395957946777344 21.820476531982422 L18.395957946777344 21.820476531982422"></path>
<path fill="none" stroke="black" stroke-width=".3" stroke-opacity="1.0"  filling="0" d="M4.804533958435059 20.694618225097656 L4.804533958435059 20.694618225097656 C4.7923102378845215 20.682334899902344 4.780086517333984 20.67005157470703 4.767862796783447 20.65776824951172 L4.640069961547852 20.65776824951172 C4.6278462409973145 20.67005157470703 4.615622043609619 20.682334899902344 4.603398323059082 20.694618225097656 L4.603398323059082 21.249603271484375 C4.605144500732422 21.325485229492188 4.60689115524292 21.4013671875 4.60863733291626 21.477249145507812 L4.605144023895264 21.477249145507812 C4.570695400238037 21.39264678955078 4.536247253417969 21.30804443359375 4.501798629760742 21.22344207763672 L4.212716579437256 20.6806640625 C4.199275970458984 20.673032760620117 4.185834884643555 20.6653995513916 4.172394275665283 20.65776824951172 L4.028885364532471 20.65776824951172 C4.016662120819092 20.67005157470703 4.004438400268555 20.682334899902344 3.992215156555176 20.694618225097656 L3.992215156555176 21.820476531982422 C4.004438400268555 21.83269500732422 4.016662120819092 21.84491539001465 4.028885364532471 21.857133865356445 L4.156678676605225 21.857133865356445 C4.168902397155762 21.84491539001465 4.181126117706299 21.83269500732422 4.193349838256836 21.820476531982422 L4.193349838256836 21.19007110595703 C4.191603660583496 21.12589454650879 4.189857482910156 21.061717987060547 4.188111305236816 20.997541427612305 L4.1916046142578125 20.997541427612305 C4.224888801574707 21.076915740966797 4.25817346572876 21.15629005432129 4.291457653045654 21.23566436767578 L4.612130641937256 21.83270263671875 C4.625518321990967 21.84084701538086 4.638906478881836 21.848989486694336 4.652294158935547 21.857133865356445 L4.7678632736206055 21.857133865356445 C4.780086994171143 21.84491539001465 4.79231071472168 21.83269500732422 4.804534435272217 21.820476531982422 L4.804534435272217 21.820476531982422"></path>
<path fill="none" stroke="black" stroke-width=".3" stroke-opacity="1.0"  filling="0" d="M15.229862213134766 20.694660186767578 L15.229862213134766 20.694660186767578 C15.217638969421387 20.682382583618164 15.205414772033691 20.670106887817383 15.193191528320312 20.65782928466797 L15.030471801757812 20.65782928466797 C15.018196105957031 20.670106887817383 15.005919456481934 20.682382583618164 14.993643760681152 20.694660186767578 L14.993643760681152 21.451080322265625 C14.919220924377441 21.5500431060791 14.696593284606934 21.5500431060791 14.622171401977539 21.451080322265625 L14.622171401977539 20.694660186767578 C14.609947204589844 20.682382583618164 14.597723960876465 20.670106887817383 14.58549976348877 20.65782928466797 L14.422780990600586 20.65782928466797 C14.41055679321289 20.670106887817383 14.398333549499512 20.682382583618164 14.386109352111816 20.694660186767578 L14.386109352111816 21.451080322265625 C14.581677436828613 21.653207778930664 15.034255981445312 21.653169631958008 15.229862213134766 21.451080322265625 L15.229862213134766 21.451080322265625"></path>
<path fill="none" stroke="black" stroke-width=".3" stroke-opacity="1.0"  filling="0" d="M10.32169246673584 20.69466209411621 L10.32169246673584 20.69466209411621 C10.309415817260742 20.68238639831543 10.297139167785645 20.670108795166016 10.284862518310547 20.657833099365234 L10.122145652770996 20.657833099365234 C10.109922409057617 20.670108795166016 10.097698211669922 20.68238639831543 10.085474967956543 20.69466209411621 L10.085474967956543 21.45108413696289 C10.011052131652832 21.550046920776367 9.788424491882324 21.550046920776367 9.71400260925293 21.45108413696289 L9.71400260925293 20.69466209411621 C9.70177936553955 20.68238639831543 9.689555168151855 20.670108795166016 9.677331924438477 20.657833099365234 L9.51461410522461 20.657833099365234 C9.502337455749512 20.670108795166016 9.49006175994873 20.68238639831543 9.477785110473633 20.69466209411621 L9.477785110473633 21.45108413696289 C9.67342758178711 21.65321159362793 10.126051902770996 21.65321159362793 10.321694374084473 21.45108413696289 L10.321694374084473 21.45108413696289"></path>
<path fill="none" stroke="black" stroke-width=".3" stroke-opacity="1.0"  filling="0" d="M5.802589416503906 20.76102066040039 L5.802589416503906 20.76102066040039 C5.881577014923096 20.524330139160156 5.175127029418945 20.75123405456543 5.088376045227051 20.985191345214844 C5.0204925537109375 21.168264389038086 5.587863445281982 21.51454734802246 5.59796142578125 21.536842346191406 C5.66375732421875 21.682111740112305 5.248106002807617 21.530778884887695 5.130445957183838 21.638427734375 L5.090124130249023 21.754013061523438 C5.013413906097412 21.99972915649414 5.74151086807251 21.76101303100586 5.825288772583008 21.517616271972656 C5.906169414520264 21.282634735107422 5.352144718170166 21.029747009277344 5.315863609313965 20.953630447387695 C5.253359317779541 20.822498321533203 5.637813091278076 20.974868774414062 5.744803428649902 20.876605987548828 L5.744803428649902 20.876605987548828"></path>
<path fill="none" stroke="black" stroke-width=".3" stroke-opacity="1.0"  filling="0" d="M13.925423622131348 20.86780548095703 L14.142431259155273 20.86780548095703 C14.155871391296387 20.858482360839844 14.169312477111816 20.849159240722656 14.18275260925293 20.83983612060547 L14.219584465026855 20.701549530029297 C14.223536491394043 20.682537078857422 14.19878101348877 20.665719985961914 14.181009292602539 20.657894134521484 L13.45981216430664 20.657894134521484 C13.44991683959961 20.667795181274414 13.440022468566895 20.67769432067871 13.430127143859863 20.68759536743164 L13.430127143859863 20.838106155395508 C13.440022468566895 20.848005294799805 13.44991683959961 20.857906341552734 13.45981216430664 20.86780548095703 L13.689203262329102 20.86780548095703 L13.689203262329102 21.820411682128906 C13.7014799118042 21.832630157470703 13.71375560760498 21.844850540161133 13.726032257080078 21.85706901550293 L13.888751983642578 21.85706901550293 C13.900976181030273 21.844850540161133 13.913199424743652 21.832630157470703 13.925423622131348 21.820411682128906 L13.925423622131348 21.820411682128906"></path>
<path fill="none" stroke="black" stroke-width=".3" stroke-opacity="1.0"  filling="0" d="M6.466317653656006 20.867809295654297 L6.683485984802246 20.867809295654297 C6.696927070617676 20.85848617553711 6.710367679595947 20.84916114807129 6.723808765411377 20.8398380279541 L6.76047945022583 20.701553344726562 C6.764550685882568 20.682565689086914 6.739686012268066 20.665699005126953 6.721903324127197 20.657896041870117 L6.000707626342773 20.657896041870117 C5.990812301635742 20.667797088623047 5.980916500091553 20.677698135375977 5.9710211753845215 20.687599182128906 L5.9710211753845215 20.83810806274414 C5.980916500091553 20.84800910949707 5.990812301635742 20.857908248901367 6.000707626342773 20.867809295654297 L6.230100154876709 20.867809295654297 L6.230100154876709 21.820415496826172 C6.242376327514648 21.83263397216797 6.254652976989746 21.844852447509766 6.2669291496276855 21.857070922851562 L6.429647445678711 21.857070922851562 C6.44187068939209 21.844852447509766 6.454094409942627 21.83263397216797 6.466317653656006 21.820415496826172 L6.466317653656006 21.820415496826172"></path>
<path fill="none" stroke="black" stroke-width=".3" stroke-opacity="1.0"  filling="0" d="M8.392729759216309 20.999267578125 L8.392729759216309 20.999267578125 C8.322615623474121 21.058841705322266 8.252500534057617 21.11841583251953 8.18238639831543 21.177989959716797 L8.201754570007324 20.84145736694336 C8.265413284301758 20.894062042236328 8.329071044921875 20.946666717529297 8.392729759216309 20.999271392822266 L8.392729759216309 20.999271392822266"></path>
<path fill="none" stroke="black" stroke-width=".3" stroke-opacity="1.0"  filling="0" d="M16.077571868896484 20.999267578125 L16.077571868896484 20.999267578125 C16.007457733154297 21.058841705322266 15.937345504760742 21.11841583251953 15.867232322692871 21.177989959716797 L15.886598587036133 20.84145736694336 C15.95025634765625 20.894062042236328 16.013914108276367 20.946666717529297 16.077571868896484 20.999271392822266 L16.077571868896484 20.999271392822266"></path>
<path fill="none" stroke="black" stroke-width=".3" stroke-opacity="1.0"  filling="0" d="M12.449366569519043 21.24786376953125 L12.449366569519043 21.24786376953125 C12.358826637268066 21.387990951538086 12.268285751342773 21.528120040893555 12.177745819091797 21.66824722290039 L12.177745819091797 20.846723556518555 C12.268285751342773 20.980436325073242 12.358826637268066 21.114151000976562 12.449366569519043 21.24786376953125 L12.449366569519043 21.24786376953125"></path>
<path fill="none" stroke="black" stroke-width=".3" stroke-opacity="1.0"  filling="0" d="M12.697807312011719 21.251407623291016 L12.697807312011719 21.251407623291016 C12.526199340820312 21.453336715698242 12.354592323303223 21.655263900756836 12.182984352111816 21.857192993164062 L11.915177345275879 21.857192993164062 C11.902953147888184 21.844953536987305 11.890729904174805 21.83271598815918 11.87850570678711 21.820476531982422 L11.87850570678711 20.69466209411621 C11.891311645507812 20.68238639831543 11.904117584228516 20.670108795166016 11.916923522949219 20.657833099365234 L12.188223838806152 20.657833099365234 C12.358084678649902 20.85569190979004 12.527946472167969 21.053552627563477 12.697807312011719 21.25141143798828 L12.697807312011719 21.25141143798828"></path>
<path fill="none" stroke="black" stroke-width=".3" stroke-opacity="1.0"  filling="0" d="M2.403776168823242 21.324831008911133 L2.701430320739746 21.324831008911133 C2.7137067317962646 21.312612533569336 2.725982904434204 21.300392150878906 2.7382593154907227 21.28817367553711 L2.7382593154907227 21.172590255737305 C2.725982904434204 21.160371780395508 2.7137067317962646 21.14815330505371 2.701430320739746 21.135934829711914 L2.4037723541259766 21.135934829711914 L2.4037723541259766 20.84683609008789 L2.7434940338134766 20.84683609008789 C2.756934881210327 20.837474822998047 2.7703754901885986 20.828115463256836 2.783816337585449 20.818754196166992 L2.8169946670532227 20.70161247253418 C2.821049213409424 20.68265724182129 2.796327829360962 20.665748596191406 2.778578758239746 20.657958984375 L2.20438289642334 20.657958984375 C2.1921064853668213 20.670177459716797 2.179830312728882 20.68239402770996 2.1675539016723633 20.694612503051758 L2.1675539016723633 21.820411682128906 C2.179830312728882 21.832651138305664 2.1921064853668213 21.84488868713379 2.20438289642334 21.857128143310547 L2.3688478469848633 21.857128143310547 C2.3804893493652344 21.84488868713379 2.3921308517456055 21.832651138305664 2.4037723541259766 21.820411682128906 L2.4037723541259766 21.820411682128906"></path>
<path fill="none" stroke="black" stroke-width=".3" stroke-opacity="1.0"  filling="0" d="M17.28915786743164 21.70501708984375 L17.28915786743164 21.70501708984375 C17.27688217163086 21.692777633666992 17.264604568481445 21.6805362701416 17.252328872680664 21.668296813964844 L16.877840042114258 21.668296813964844 L16.877840042114258 21.3248291015625 L17.175495147705078 21.3248291015625 C17.18777084350586 21.312589645385742 17.200048446655273 21.300352096557617 17.212324142456055 21.28811264038086 L17.212324142456055 21.172718048095703 C17.200048446655273 21.16043472290039 17.18777084350586 21.14815330505371 17.175495147705078 21.1358699798584 L16.877840042114258 21.1358699798584 L16.877840042114258 20.846773147583008 L17.217403411865234 20.846773147583008 C17.230844497680664 20.83747673034668 17.244285583496094 20.82817840576172 17.257726669311523 20.81888198852539 L17.290904998779297 20.701549530029297 C17.294973373413086 20.682559967041016 17.27010726928711 20.66569709777832 17.252323150634766 20.657894134521484 L16.678287506103516 20.657894134521484 C16.666011810302734 20.67011260986328 16.65373420715332 20.682331085205078 16.64145851135254 20.694549560546875 L16.64145851135254 21.820411682128906 C16.65373420715332 21.832693099975586 16.666011810302734 21.844974517822266 16.678287506103516 21.857255935668945 L17.254070281982422 21.857255935668945 C17.265764236450195 21.844974517822266 17.2774600982666 21.832693099975586 17.289154052734375 21.820411682128906 L17.289154052734375 21.820411682128906"></path>
<path fill="none" stroke="black" stroke-width=".3" stroke-opacity="1.0"  filling="0" d="M3.6978960037231445 21.820415496826172 L3.6978960037231445 21.820415496826172 C3.686201810836792 21.83269691467285 3.6745073795318604 21.84497833251953 3.662813186645508 21.85725975036621 L3.0868730545043945 21.85725975036621 C3.0746490955352783 21.84497833251953 3.062425374984741 21.83269691467285 3.050201416015625 21.820415496826172 L3.050201416015625 20.69455337524414 C3.062425374984741 20.682334899902344 3.0746490955352783 20.670114517211914 3.0868730545043945 20.657896041870117 L3.6610660552978516 20.657896041870117 C3.6788387298583984 20.66572380065918 3.7035961151123047 20.682540893554688 3.699643135070801 20.701553344726562 L3.6663055419921875 20.81888198852539 C3.652864694595337 20.82818031311035 3.6394240856170654 20.83747673034668 3.625983238220215 20.84677505493164 L3.2864198684692383 20.84677505493164 L3.2864198684692383 21.135875701904297 L3.584074020385742 21.135875701904297 C3.5963504314422607 21.148157119750977 3.6086266040802 21.160436630249023 3.6209030151367188 21.172718048095703 L3.6209030151367188 21.28811264038086 C3.6086266040802 21.300352096557617 3.5963504314422607 21.312591552734375 3.584074020385742 21.324831008911133 L3.2864198684692383 21.324831008911133 L3.2864198684692383 21.66830062866211 L3.661067008972168 21.66830062866211 C3.6733434200286865 21.680540084838867 3.685619592666626 21.692781448364258 3.6978960037231445 21.705020904541016 L3.6978960037231445 21.705020904541016"></path>
<path fill="none" stroke="black" stroke-width=".3" stroke-opacity="1.0"  filling="0" d="M7.613278388977051 21.820415496826172 L7.613278388977051 21.820415496826172 C7.601583957672119 21.83269691467285 7.5898895263671875 21.84497833251953 7.578195095062256 21.85725975036621 L7.002253532409668 21.85725975036621 C6.990029811859131 21.84497833251953 6.977806568145752 21.83269691467285 6.965582847595215 21.820415496826172 L6.965582847595215 20.69455337524414 C6.977806568145752 20.682334899902344 6.990029811859131 20.670114517211914 7.002253532409668 20.657896041870117 L7.576451301574707 20.657896041870117 C7.594233989715576 20.665699005126953 7.61909818649292 20.682565689086914 7.615026950836182 20.701553344726562 L7.581689357757568 20.81888198852539 C7.568301677703857 20.82818031311035 7.5549139976501465 20.83747673034668 7.5415263175964355 20.84677505493164 L7.201803684234619 20.84677505493164 L7.201803684234619 21.135875701904297 L7.499457359313965 21.135875701904297 C7.5117340087890625 21.148157119750977 7.524011135101318 21.160436630249023 7.536287784576416 21.172718048095703 L7.536287784576416 21.28811264038086 C7.524011135101318 21.300352096557617 7.5117340087890625 21.312591552734375 7.499457359313965 21.324831008911133 L7.201803684234619 21.324831008911133 L7.201803684234619 21.66830062866211 L7.576450824737549 21.66830062866211 C7.5887274742126465 21.680540084838867 7.601003646850586 21.692781448364258 7.613280296325684 21.705020904541016 L7.613280296325684 21.705020904541016"></path>
<path fill="none" stroke="black" stroke-width=".3" stroke-opacity="1.0"  filling="0" d="M8.690225601196289 21.787120819091797 L8.690225601196289 21.787120819091797 C8.697723388671875 21.805023193359375 8.68591022491455 21.83145523071289 8.669270515441895 21.841445922851562 L8.522269248962402 21.88348388671875 C8.49510383605957 21.88732147216797 8.473822593688965 21.85474967956543 8.457499504089355 21.832698822021484 L8.220964431762695 21.36166000366211 L8.13682746887207 21.820476531982422 C8.124604225158691 21.832693099975586 8.112380027770996 21.844911575317383 8.100156784057617 21.857128143310547 L7.937438488006592 21.857128143310547 C7.925161838531494 21.844911575317383 7.912885665893555 21.832693099975586 7.900609016418457 21.820476531982422 L7.900609016418457 20.694612503051758 C7.912885665893555 20.68239402770996 7.925161838531494 20.670177459716797 7.937438488006592 20.657958984375 L8.220964431762695 20.657958984375 C8.39909553527832 20.805431365966797 8.550789833068848 21.122690200805664 8.429559707641602 21.319622039794922 L8.690226554870605 21.787120819091797"></path>
<path fill="none" stroke="black" stroke-width=".3" stroke-opacity="1.0"  filling="0" d="M16.375228881835938 21.787120819091797 L16.375228881835938 21.787120819091797 C16.382654190063477 21.8050537109375 16.370895385742188 21.831422805786133 16.35427474975586 21.841445922851562 L16.207115173339844 21.88348388671875 C16.179990768432617 21.887313842773438 16.15876007080078 21.854747772216797 16.14250373840332 21.832698822021484 L15.905811309814453 21.36166000366211 L15.821671485900879 21.820476531982422 C15.8094482421875 21.832693099975586 15.797225952148438 21.844911575317383 15.785002708435059 21.857128143310547 L15.622284889221191 21.857128143310547 C15.610060691833496 21.844911575317383 15.597837448120117 21.832693099975586 15.585613250732422 21.820476531982422 L15.585613250732422 20.694612503051758 C15.597837448120117 20.68239402770996 15.610060691833496 20.670177459716797 15.622284889221191 20.657958984375 L15.905811309814453 20.657958984375 C16.083942413330078 20.80543327331543 16.23563575744629 21.122690200805664 16.11440658569336 21.319622039794922 L16.37523078918457 21.787120819091797"></path></svg>