<svg xmlns="http://www.w3.org/2000/svg" viewBox="0.0 0.0 24.0 24.0" height="200px" width="200px"><path fill="none" stroke="black" stroke-width=".3" stroke-opacity="1.0"  filling="0" d="M15.966967582702637 5.4154839515686035 L15.966967582702637 5.4154839515686035 C17.832658767700195 5.616880893707275 19.472145080566406 5.829409599304199 20.904193878173828 7.187032222747803 C22.202743530273438 8.41809368133545 22.83060646057129 10.198275566101074 22.81344223022461 11.97665786743164 C22.796276092529297 13.755041122436523 22.134082794189453 15.531622886657715 20.852516174316406 16.755483627319336 C19.42900276184082 18.114900588989258 17.83663558959961 18.368253707885742 15.971612930297852 18.584516525268555 L11.568000793457031 18.584516525268555 L11.568000793457031 12.898839950561523 C10.285870552062988 14.07780647277832 9.115257263183594 14.174904823303223 7.447741985321045 14.408515930175781 L6.091354846954346 14.408515930175781 L6.091354846954346 18.584516525268555 L3.044130325317383 18.584516525268555 L3.044130325317383 12.0 L3.044130325317383 5.4154839515686035 L7.410581588745117 5.4154839515686035 C7.4121294021606445 5.4154839515686035 7.41367769241333 5.4154839515686035 7.415225505828857 5.4154839515686035 L7.415225505828857 5.4154839515686035 C9.098602294921875 5.4154839515686035 10.222492218017578 5.856365203857422 11.563355445861816 6.7950968742370605 L11.563355445861816 5.4154839515686035 L15.966967582702637 5.4154839515686035"></path>
<path fill="none" stroke="black" stroke-width=".3" stroke-opacity="1.0"  filling="0" d="M6.035613059997559 7.919226169586182 L7.331613540649414 7.919226169586182 C7.396645545959473 7.920774459838867 7.4616780281066895 7.922322750091553 7.526710033416748 7.923871040344238 L7.526710033416748 7.923871040344238 C7.528258323669434 7.923871040344238 7.529806613922119 7.923871040344238 7.531354904174805 7.923871040344238 L6.449032783508301 11.983741760253906 L6.035613059997559 11.983741760253906 L6.035613059997559 7.919226169586182"></path>
<path fill="none" stroke="black" stroke-width=".3" stroke-opacity="1.0"  filling="0" d="M14.554839134216309 8.06787109375 L15.929805755615234 8.06787109375 C16.06458854675293 8.072218894958496 16.199514389038086 8.075697898864746 16.33393669128418 8.086451530456543 L14.554839134216309 14.73367691040039 L14.554839134216309 8.06787109375"></path>
<path fill="none" stroke="black" stroke-width=".3" stroke-opacity="1.0"  filling="0" d="M3.044130325317383 11.705032348632812 L1.2000007629394531 18.584516525268555 L3.044130325317383 18.584516525268555"></path>
<path fill="none" stroke="black" stroke-width=".3" stroke-opacity="1.0"  filling="0" d="M7.29445219039917 11.979096412658691 L6.035613059997559 11.979096412658691 L6.035613059997559 7.919225692749023 L7.331613063812256 7.919225692749023 C9.029192924499512 7.959645748138428 10.860733032226562 9.866971015930176 9.0712251663208 11.41993522644043 C8.602289199829102 11.826885223388672 7.886709690093994 11.792709350585938 7.294451713562012 11.979096412658691 L7.294451713562012 11.979096412658691"></path>
<path fill="none" stroke="black" stroke-width=".3" stroke-opacity="1.0"  filling="0" d="M11.563355445861816 12.898839950561523 L11.563355445861816 12.898839950561523 C11.422974586486816 13.027925491333008 11.293217658996582 13.169967651367188 11.140645980834961 13.28438663482666 L9.719226837158203 18.584516525268555 L11.563355445861816 18.584516525268555"></path>
<path fill="none" stroke="black" stroke-width=".3" stroke-opacity="1.0"  filling="0" d="M15.966967582702637 15.93212890625 L14.554839134216309 15.93212890625 L14.554839134216309 12.0 L14.554839134216309 8.06787109375 L15.929805755615234 8.06787109375 C17.65105628967285 8.123397827148438 18.912656784057617 9.225255966186523 19.440555572509766 10.615053176879883 C19.968456268310547 12.004850387573242 19.762653350830078 13.682586669921875 18.549097061157227 14.889870643615723 C17.643701553344727 15.790586471557617 17.1436767578125 15.70557689666748 15.966968536376953 15.93212890625 L15.966968536376953 15.93212890625"></path></svg>