<svg xmlns="http://www.w3.org/2000/svg" viewBox="0.0 0.0 24.0 24.0" height="200px" width="200px"><path fill="none" stroke="black" stroke-width=".3" stroke-opacity="1.0"  filling="0" d="M5.262192249298096 7.443749904632568 L5.262192249298096 7.443749904632568 C5.422418117523193 7.5486836433410645 5.5299201011657715 7.873237133026123 5.3899359703063965 8.003957748413086 L5.1539387702941895 8.003957748413086 C5.0720391273498535 8.071155548095703 4.990139007568359 8.13835334777832 4.908239364624023 8.205551147460938 L4.908239364624023 8.45610237121582 L5.316277027130127 8.45610237121582 C5.4457879066467285 8.576664924621582 5.4457926750183105 8.86637020111084 5.316277027130127 8.986927032470703 L4.908239364624023 8.986927032470703 L4.908239364624023 10.648164749145508 C4.7748260498046875 10.792617797851562 4.45174503326416 10.792616844177246 4.318331241607666 10.648164749145508 L4.151142597198486 8.986927032470703 C4.020591735839844 8.867491722106934 4.020596504211426 8.575542449951172 4.151142597198486 8.45610237121582 L4.318331241607666 8.156296730041504 C4.632951736450195 7.918781280517578 4.947571754455566 7.681265354156494 5.262192249298096 7.443749904632568 L5.262192249298096 7.443749904632568"></path>
<path fill="none" stroke="black" stroke-width=".3" stroke-opacity="1.0"  filling="0" d="M8.376578330993652 7.4584527015686035 L8.376578330993652 7.4584527015686035 C8.474896430969238 7.56495475769043 8.573214530944824 7.671457290649414 8.67153263092041 7.77795934677124 L8.67153263092041 10.648164749145508 C8.538119316101074 10.792616844177246 8.215038299560547 10.792616844177246 8.081624984741211 10.648164749145508 L8.081624984741211 7.77795934677124 C8.179943084716797 7.671457290649414 8.278260231018066 7.56495475769043 8.376578330993652 7.4584527015686035 L8.376578330993652 7.4584527015686035"></path>
<path fill="none" stroke="black" stroke-width=".3" stroke-opacity="1.0"  filling="0" d="M1.7074737548828125 7.571536064147949 L3.0102453231811523 7.571536064147949 C4.354103088378906 8.77877140045166 3.407430410385132 9.038544654846191 2.017298698425293 9.615962982177734 L2.017298698425293 10.63331413269043 C1.8769145011901855 10.784747123718262 1.5381605625152588 10.784785270690918 1.397817611694336 10.63331413269043 L1.397817611694336 7.836937427520752 C1.501036286354065 7.748470306396484 1.6042550802230835 7.660003185272217 1.7074737548828125 7.571536064147949 L1.7074737548828125 7.571536064147949"></path>
<path fill="none" stroke="black" stroke-width=".3" stroke-opacity="1.0"  filling="0" d="M2.017298698425293 8.102338790893555 L2.734992027282715 8.102338790893555 C2.8791887760162354 8.172770500183105 3.266035795211792 8.186905860900879 3.1675825119018555 8.313634872436523 C2.890871047973633 8.669818878173828 2.400712728500366 8.788666725158691 2.017277717590332 9.026182174682617 L2.017277717590332 8.102338790893555"></path>
<path fill="none" stroke="black" stroke-width=".3" stroke-opacity="1.0"  filling="0" d="M6.028697490692139 8.45610237121582 L6.889026165008545 8.45610237121582 C7.164334774017334 8.734596252441406 7.439643859863281 9.013090133666992 7.71495246887207 9.291584014892578 L7.714951992034912 10.657889366149902 C7.594458103179932 10.792611122131348 7.293538570404053 10.83299446105957 7.174149990081787 10.69729232788086 L7.174149990081787 10.69729232788086 C7.119518756866455 10.71772289276123 5.090300559997559 11.733569145202637 5.551851272583008 10.20572280883789 C5.7095465660095215 9.68371295928955 6.462904453277588 9.606196403503418 6.918431282043457 9.30643367767334 L7.125022888183594 9.30643367767334 C7.059442520141602 9.199931144714355 6.993862152099609 9.093429565429688 6.928281784057617 8.986927032470703 L6.028697490692139 8.986927032470703 C5.898146629333496 8.867491722106934 5.898151397705078 8.575542449951172 6.028697490692139 8.45610237121582 L6.028697490692139 8.45610237121582"></path>
<path fill="none" stroke="black" stroke-width=".3" stroke-opacity="1.0"  filling="0" d="M9.37667465209961 8.45610237121582 L10.581233978271484 8.45610237121582 C11.327373504638672 9.181797981262207 10.220039367675781 9.849223136901855 9.681480407714844 10.422018051147461 L10.703999519348145 10.422018051147461 C10.832442283630371 10.543717384338379 10.83464527130127 10.833511352539062 10.703999519348145 10.95284366607666 L9.317697525024414 10.95284366607666 C8.563248634338379 10.230048179626465 9.655790328979492 9.544480323791504 10.197729110717773 8.986927032470703 L9.37667465209961 8.986927032470703 C9.247234344482422 8.866289138793945 9.245062828063965 8.57436752319336 9.37667465209961 8.45610237121582 L9.37667465209961 8.45610237121582"></path>
<path fill="none" stroke="black" stroke-width=".3" stroke-opacity="1.0"  filling="0" d="M7.154428005218506 9.748726844787598 L7.154428005218506 10.06325626373291 C6.5112128257751465 10.576672554016113 5.380627632141113 10.497699737548828 7.154428005218506 9.748726844787598 L7.154428005218506 9.748726844787598"></path>
<path fill="none" stroke="black" stroke-width=".3" stroke-opacity="1.0"  filling="0" d="M11.994918823242188 9.894844055175781 L11.994918823242188 9.894844055175781 C12.269550323486328 10.304304122924805 12.532387733459473 10.721628189086914 12.792959213256836 11.140176773071289 L12.792959213256836 11.140176773071289 C13.054228782653809 10.716888427734375 13.607904434204102 9.515398979187012 13.747260093688965 9.992908477783203 C13.829632759094238 10.275162696838379 14.217175483703613 12.906614303588867 13.878525733947754 12.726805686950684 C13.605734825134277 12.581965446472168 13.570670127868652 10.414133071899414 13.558112144470215 10.30954647064209 L13.558112144470215 10.30954647064209 C13.303053855895996 10.678272247314453 13.241283416748047 11.415724754333496 12.792938232421875 11.415724754333496 C12.344600677490234 11.415724754333496 12.282849311828613 10.67827320098877 12.027804374694824 10.309547424316406 L12.027804374694824 10.309547424316406 C11.985153198242188 10.625310897827148 11.92764663696289 10.939421653747559 11.89985179901123 11.256837844848633 C11.619889259338379 14.45396900177002 11.658071517944336 11.036478042602539 11.994918823242188 9.894844055175781 L11.994918823242188 9.894844055175781"></path>
<path fill="none" stroke="black" stroke-width=".3" stroke-opacity="1.0"  filling="0" d="M18.401657104492188 9.915305137634277 L18.401657104492188 9.915305137634277 C18.44546127319336 9.968608856201172 18.489267349243164 10.021912574768066 18.533071517944336 10.075216293334961 L18.598865509033203 11.242966651916504 C19.231815338134766 10.964691162109375 20.41440773010254 10.094749450683594 19.20741844177246 11.353898048400879 L19.20741844177246 11.353898048400879 C20.667278289794922 13.770456314086914 19.541494369506836 12.09346866607666 18.570049285888672 11.473184585571289 L18.533071517944336 12.558731079101562 C18.47835350036621 12.625323295593262 18.328142166137695 12.626195907592773 18.274505615234375 12.558731079101562 L18.274505615234375 10.075216293334961 C18.3168888092041 10.021912574768066 18.35927391052246 9.968608856201172 18.401657104492188 9.915305137634277 L18.401657104492188 9.915305137634277"></path>
<path fill="none" stroke="black" stroke-width=".3" stroke-opacity="1.0"  filling="0" d="M20.638586044311523 10.096288681030273 L20.638586044311523 10.096288681030273 C20.682382583618164 10.150957107543945 20.726181030273438 10.2056245803833 20.769977569580078 10.260293006896973 L20.769977569580078 10.638925552368164 L21.21820068359375 10.638925552368164 C21.280546188354492 10.68093490600586 21.279855728149414 10.821444511413574 21.21820068359375 10.864459991455078 L20.769977569580078 10.864459991455078 L20.769977569580078 12.131181716918945 C20.867290496826172 12.246318817138672 20.964603424072266 12.361454963684082 21.06191635131836 12.476592063903809 L21.31278419494629 12.476592063903809 C21.375560760498047 12.520383834838867 21.375530242919922 12.662383079528809 21.31278419494629 12.706218719482422 L21.111190795898438 12.706218719482422 C20.911256790161133 12.485739707946777 20.71132469177246 12.265260696411133 20.511390686035156 12.044781684875488 L20.388011932373047 10.864459991455078 C20.326353073120117 10.82144832611084 20.325664520263672 10.680931091308594 20.388011932373047 10.638925552368164 L20.511390686035156 10.260293006896973 C20.553789138793945 10.2056245803833 20.596187591552734 10.150957107543945 20.638586044311523 10.096288681030273 L20.638586044311523 10.096288681030273"></path>
<path fill="none" stroke="black" stroke-width=".3" stroke-opacity="1.0"  filling="0" d="M17.671833038330078 10.610111236572266 L17.671833038330078 10.610111236572266 C17.822628021240234 10.722007751464844 17.233781814575195 11.398984909057617 17.059165954589844 11.727827072143555 L17.059165954589844 12.55828857421875 C17.005613327026367 12.625821113586426 16.85531234741211 12.625327110290527 16.800600051879883 12.558730125427246 L16.800600051879883 10.786392211914062 C16.854488372802734 10.719127655029297 17.006380081176758 10.718405723571777 17.059165954589844 10.786539077758789 L17.059165954589844 10.876884460449219 C17.26338768005371 10.787960052490234 17.46761131286621 10.69903564453125 17.671833038330078 10.610111236572266 L17.671833038330078 10.610111236572266"></path>
<path fill="none" stroke="black" stroke-width=".3" stroke-opacity="1.0"  filling="0" d="M14.84571647644043 10.63892650604248 L15.524470329284668 10.63892650604248 C15.731371879577637 10.856691360473633 15.938274383544922 11.074455261230469 16.14517593383789 11.292220115661621 L16.14517593383789 12.55875301361084 C16.091489791870117 12.626189231872559 15.941272735595703 12.625381469726562 15.886587142944336 12.55875301361084 L15.886587142944336 12.5381441116333 C15.429898262023926 12.6889066696167 14.308419227600098 12.561808586120605 14.504863739013672 12.122828483581543 C14.72119426727295 11.639410972595215 15.428755760192871 11.604766845703125 15.890701293945312 11.345735549926758 L15.890701293945312 11.345735549926758 C15.899962425231934 11.158468246459961 15.70240306854248 11.019936561584473 15.58617115020752 10.872814178466797 L14.84571647644043 10.872814178466797 C14.782119750976562 10.827717781066895 14.784470558166504 10.687167167663574 14.84571647644043 10.63892650604248 L14.84571647644043 10.63892650604248"></path>
<path fill="none" stroke="black" stroke-width=".3" stroke-opacity="1.0"  filling="0" d="M15.890679359436035 11.551547050476074 L15.890679359436035 12.012022972106934 C15.222930908203125 12.664108276367188 13.932476997375488 12.494274139404297 15.890679359436035 11.551547050476074 L15.890679359436035 11.551547050476074"></path>
<path fill="none" stroke="black" stroke-width=".3" stroke-opacity="1.0"  filling="0" d="M1.2244062423706055 12.15495491027832 L1.2244062423706055 12.15495491027832 C3.185515880584717 13.454394340515137 5.442295074462891 14.066507339477539 7.788244247436523 14.325652122497559 C10.134193420410156 14.584795951843262 12.56931209564209 14.490970611572266 14.887101173400879 14.378531455993652 L14.887101173400879 14.378531455993652 C14.730998039245605 14.988787651062012 14.924734115600586 15.666943550109863 15.170686721801758 16.24684715270996 L15.170686721801758 16.24684715270996 C13.26122760772705 16.42158317565918 11.262699127197266 16.504127502441406 9.300938606262207 16.326736450195312 C7.339178562164307 16.14934730529785 5.414186000823975 15.712020874023438 3.6517984867095947 14.847014427185059 C3.3637566566467285 14.705638885498047 0.46851104497909546 12.967679977416992 1.2244062423706055 12.15495491027832 L1.2244062423706055 12.15495491027832"></path>
<path fill="none" stroke="black" stroke-width=".3" stroke-opacity="1.0"  filling="0" d="M22.77407455444336 12.15628433227539 L22.77407455444336 12.15628433227539 C23.05451202392578 12.438310623168945 22.614307403564453 12.95888900756836 22.386066436767578 13.284603118896484 C21.324321746826172 14.799776077270508 19.289772033691406 15.266651153564453 17.66303825378418 15.791495323181152 L17.66303825378418 15.791495323181152 C17.784944534301758 15.244389533996582 17.637601852416992 14.650672912597656 17.445667266845703 14.124034881591797 L17.445667266845703 14.124034881591797 C19.649890899658203 13.699828147888184 21.030101776123047 13.4716157913208 22.77407455444336 12.15628433227539 L22.77407455444336 12.15628433227539"></path>
<path fill="none" stroke="black" stroke-width=".3" stroke-opacity="1.0"  filling="0" d="M16.25338363647461 13.711146354675293 L16.25338363647461 13.711146354675293 C17.530092239379883 14.240022659301758 18.508102416992188 16.542675018310547 16.25338363647461 16.542686462402344 C13.998608589172363 16.54269790649414 14.976624488830566 14.240006446838379 16.25338363647461 13.711146354675293 L16.25338363647461 13.711146354675293"></path></svg>