<svg xmlns="http://www.w3.org/2000/svg" viewBox="0.0 0.0 24.0 24.0" height="200px" width="200px"><path fill="none" stroke="black" stroke-width=".3" stroke-opacity="1.0"  filling="0" d="M11.114370346069336 9.186114311218262 L11.114370346069336 9.186114311218262 C11.149271965026855 9.215086936950684 11.184173583984375 9.244059562683105 11.219075202941895 9.273032188415527 L11.53722095489502 10.152660369873047 L11.861220359802246 9.273000717163086 C11.943442344665527 9.234816551208496 12.07845687866211 9.284197807312012 12.116640090942383 9.366419792175293 L11.684639930725098 10.549020767211914 L12.663660049438477 13.230660438537598 L13.401300430297852 11.206199645996094 C13.522680282592773 11.0780029296875 13.578001022338867 11.0780029296875 13.699380874633789 11.206199645996094 L14.437019348144531 13.230660438537598 L15.421441078186035 10.534440040588379 C15.57124137878418 10.415390014648438 15.639220237731934 10.44025707244873 15.676860809326172 10.627860069274902 L14.58120059967041 13.627559661865234 C14.463545799255371 13.75173568725586 14.409955978393555 13.75173568725586 14.2923002243042 13.627559661865234 L13.550339698791504 11.590680122375488 L12.808380126953125 13.627559661865234 C12.690633773803711 13.752685546875 12.636687278747559 13.752686500549316 12.518939971923828 13.627559661865234 L11.53991985321045 10.94591999053955 L10.561439514160156 13.627559661865234 C10.443694114685059 13.752683639526367 10.38974380493164 13.752681732177734 10.27199935913086 13.627559661865234 L9.530040740966797 11.590680122375488 L8.788080215454102 13.627559661865234 C8.670333862304688 13.752685546875 8.616387367248535 13.752686500549316 8.498640060424805 13.627559661865234 L7.403520107269287 10.627860069274902 C7.4061713218688965 10.437362670898438 7.534005165100098 10.390604972839355 7.658940315246582 10.534440040588379 L8.643360137939453 13.230660438537598 L9.379919052124023 11.206199645996094 C9.501298904418945 11.077998161315918 9.556618690490723 11.077997207641602 9.677999496459961 11.206199645996094 L10.416719436645508 13.230660438537598 L10.963740348815918 9.367500305175781 C10.977022171020508 9.2900390625 11.040661811828613 9.213384628295898 11.114370346069336 9.186114311218262 L11.114370346069336 9.186114311218262"></path>
<path fill="none" stroke="black" stroke-width=".3" stroke-opacity="1.0"  filling="0" d="M1.3274401426315308 10.426071166992188 L1.3274401426315308 10.426071166992188 C1.3894693851470947 10.454085350036621 1.4424468278884888 10.514201164245605 1.4624404907226562 10.579259872436523 L1.4624404907226562 11.149499893188477 C1.8739204406738281 10.915499687194824 2.225700855255127 10.492904663085938 2.696880340576172 10.447500228881836 C4.662217140197754 10.258112907409668 4.660696983337402 13.919259071350098 2.695261001586914 13.730159759521484 C2.224074602127075 13.684825897216797 1.8723011016845703 13.262160301208496 1.4608211517333984 13.028160095214844 L1.4608211517333984 14.852279663085938 C1.4014654159545898 15.04542350769043 1.2501767873764038 15.04542350769043 1.1908206939697266 14.852279663085938 L1.1908206939697266 12.086939811706543 C1.2026954889297485 11.531574249267578 0.8211838603019714 10.654711723327637 1.3274401426315308 10.426071166992188 L1.3274401426315308 10.426071166992188"></path>
<path fill="none" stroke="black" stroke-width=".3" stroke-opacity="1.0"  filling="0" d="M5.97666072845459 10.444801330566406 L5.97666072845459 10.444801330566406 C6.363755702972412 10.605103492736816 6.841670036315918 10.629465103149414 7.137945652008057 10.925708770751953 C8.155261993408203 11.942913055419922 7.415344715118408 13.72909927368164 5.976840972900391 13.729080200195312 C4.5386810302734375 13.729061126708984 3.7986035346984863 11.94317626953125 4.815481662750244 10.925963401794434 C5.111692428588867 10.629654884338379 5.589601039886475 10.605188369750977 5.97666072845459 10.444801330566406 L5.97666072845459 10.444801330566406"></path>
<path fill="none" stroke="black" stroke-width=".3" stroke-opacity="1.0"  filling="0" d="M17.1033878326416 10.444801330566406 L17.1033878326416 10.444801330566406 C17.490427017211914 10.605237007141113 17.968332290649414 10.62976360321045 18.26450538635254 10.926109313964844 C19.281152725219727 11.943346977233887 18.541378021240234 13.729347229003906 17.10300064086914 13.729080200195312 C15.664619445800781 13.728813171386719 14.924519538879395 11.942717552185059 15.942042350769043 10.925562858581543 C16.23835563659668 10.62935733795166 16.716272354125977 10.60505485534668 17.1033878326416 10.444801330566406 L17.1033878326416 10.444801330566406"></path>
<path fill="none" stroke="black" stroke-width=".3" stroke-opacity="1.0"  filling="0" d="M22.701181411743164 10.453438758850098 L22.701181411743164 10.453438758850098 C22.727460861206055 10.511578559875488 22.753740310668945 10.569719314575195 22.780019760131836 10.627859115600586 L21.684898376464844 13.627559661865234 C21.567245483398438 13.751731872558594 21.513654708862305 13.75173282623291 21.395999908447266 13.627559661865234 L20.656200408935547 11.590680122375488 L19.91423988342285 13.627559661865234 C19.79649543762207 13.752685546875 19.742544174194336 13.752684593200684 19.624799728393555 13.627559661865234 L18.529682159423828 10.627860069274902 C18.537607192993164 10.443154335021973 18.659048080444336 10.398358345031738 18.784381866455078 10.534505844116211 L19.769519805908203 13.230660438537598 L20.507160186767578 11.206199645996094 C20.6285400390625 11.078001976013184 20.68385887145996 11.07800006866455 20.805240631103516 11.206199645996094 L21.542879104614258 13.230660438537598 L22.527299880981445 10.534440040588379 C22.58526039123535 10.507440567016602 22.643220901489258 10.480440139770508 22.701181411743164 10.45344066619873 L22.701181411743164 10.45344066619873"></path>
<path fill="none" stroke="black" stroke-width=".3" stroke-opacity="1.0"  filling="0" d="M2.696880340576172 10.713720321655273 L2.696880340576172 10.713720321655273 C3.4437851905822754 11.057792663574219 3.93402099609375 11.034785270690918 3.93402099609375 12.087480545043945 C3.93402099609375 12.437417030334473 3.4436757564544678 13.769472122192383 2.696880340576172 13.460700035095215 C0.34369540214538574 12.48774528503418 1.7519702911376953 11.689218521118164 2.696880340576172 10.713720321655273 L2.696880340576172 10.713720321655273"></path>
<path fill="none" stroke="black" stroke-width=".3" stroke-opacity="1.0"  filling="0" d="M5.977266788482666 10.716421127319336 L5.977266788482666 10.716421127319336 C7.2132248878479 11.22834587097168 8.159954071044922 13.45976734161377 5.976773262023926 13.457460403442383 C3.7958664894104004 13.455156326293945 4.742184638977051 11.228222846984863 5.977266788482666 10.716421127319336 L5.977266788482666 10.716421127319336"></path>
<path fill="none" stroke="black" stroke-width=".3" stroke-opacity="1.0"  filling="0" d="M17.10342788696289 10.716421127319336 L17.10342788696289 10.716421127319336 C18.339384078979492 11.22834587097168 19.286113739013672 13.459766387939453 17.102933883666992 13.457460403442383 C14.922025680541992 13.455157279968262 15.868345260620117 11.228222846984863 17.10342788696289 10.716421127319336 L17.10342788696289 10.716421127319336"></path></svg>