<svg xmlns="http://www.w3.org/2000/svg" viewBox="0.0 0.0 24.0 24.0" height="200px" width="200px"><path fill="none" stroke="black" stroke-width=".3" stroke-opacity="1.0"  filling="0" d="M19.123859405517578 8.6820707321167 L19.123859405517578 9.4293794631958 L18.292810440063477 9.4293794631958 L18.292810440063477 8.6820707321167"></path>
<path fill="none" stroke="black" stroke-width=".3" stroke-opacity="1.0"  filling="0" d="M20.460845947265625 8.6820707321167 L20.460845947265625 10.973653793334961 L21.354625701904297 9.899046897888184 L22.407960891723633 9.899046897888184 L21.309078216552734 11.078666687011719 L22.507240295410156 13.041595458984375 L21.654644012451172 13.04299259185791 L20.728408813476562 11.708702087402344 L20.46084976196289 11.992627143859863 L20.46084976196289 13.042684555053711 L19.624073028564453 13.042684555053711 L19.624073028564453 8.6820707321167"></path>
<path fill="none" stroke="black" stroke-width=".3" stroke-opacity="1.0"  filling="0" d="M17.41730499267578 8.92316722869873 L17.41730499267578 9.899045944213867 L17.935243606567383 9.899045944213867 L17.935243606567383 10.590720176696777 L17.41730499267578 10.590720176696777 L17.41730499267578 11.825974464416504 C17.595678329467773 12.000986099243164 17.7740535736084 12.17599868774414 17.95242691040039 12.3510103225708 L17.95242691040039 13.042684555053711 L17.423030853271484 13.042684555053711 C17.142105102539062 12.698846817016602 16.861181259155273 12.355009078979492 16.58025550842285 12.011171340942383 L16.58025550842285 10.590720176696777 L16.176048278808594 10.590720176696777 L16.176048278808594 9.899045944213867 L16.58025550842285 9.899045944213867 L16.58025550842285 8.92316722869873"></path>
<path fill="none" stroke="black" stroke-width=".3" stroke-opacity="1.0"  filling="0" d="M3.021078109741211 9.779314994812012 L3.021078109741211 9.779314994812012 C4.90224552154541 10.561366081237793 4.5971455574035645 13.662470817565918 2.342766761779785 12.897048950195312 L2.342766761779785 13.997295379638672 L1.3990764617919922 13.997295379638672 L1.3990764617919922 9.892231941223145 L2.309769630432129 9.892231941223145 L2.309769630432129 10.097871780395508 C2.5079116821289062 9.929845809936523 2.76588773727417 9.828007698059082 3.021078109741211 9.779314994812012 L3.021078109741211 9.779314994812012"></path>
<path fill="none" stroke="black" stroke-width=".3" stroke-opacity="1.0"  filling="0" d="M14.816694259643555 9.781493186950684 L14.816694259643555 9.781493186950684 C16.604328155517578 10.776968955993652 16.37796401977539 13.829554557800293 14.048103332519531 12.789313316345215 L14.048103332519531 13.713635444641113 L13.19959831237793 13.713635444641113 L13.19959831237793 9.899045944213867 L14.013736724853516 9.948410034179688 C14.002372741699219 10.073965072631836 13.991008758544922 10.199519157409668 13.979644775390625 10.325074195861816 L13.979644775390625 10.325074195861816 C14.258661270141602 10.143880844116211 14.537677764892578 9.962686538696289 14.816694259643555 9.781493186950684 L14.816694259643555 9.781493186950684"></path>
<path fill="none" stroke="black" stroke-width=".3" stroke-opacity="1.0"  filling="0" d="M7.949558734893799 9.792441368103027 L7.949558734893799 9.792441368103027 C8.311236381530762 9.940585136413574 8.772499084472656 9.94693374633789 9.034592628479004 10.236872673034668 C9.874427795410156 11.165935516357422 9.446431159973145 13.219572067260742 7.951196193695068 13.133831024169922 C6.670731544494629 13.060405731201172 5.782949447631836 11.40123176574707 6.727629661560059 10.373649597167969 C7.032885551452637 10.041604995727539 7.5422492027282715 9.986177444458008 7.949558734893799 9.792441368103027 L7.949558734893799 9.792441368103027"></path>
<path fill="none" stroke="black" stroke-width=".3" stroke-opacity="1.0"  filling="0" d="M11.436039924621582 9.793781280517578 L11.436039924621582 9.793781280517578 C11.802764892578125 9.947681427001953 12.266668319702148 9.963047981262207 12.536214828491211 10.255481719970703 C13.447509765625 11.244155883789062 12.866927146911621 13.132641792297363 11.41885757446289 13.147711753845215 C9.950721740722656 13.16299057006836 9.40271282196045 11.237311363220215 10.304439544677734 10.255525588989258 C10.58001708984375 9.95548152923584 11.058839797973633 9.947696685791016 11.436039924621582 9.793782234191895 L11.436039924621582 9.793782234191895"></path>
<path fill="none" stroke="black" stroke-width=".3" stroke-opacity="1.0"  filling="0" d="M6.254773139953613 9.802188873291016 L6.254773139953613 9.802188873291016 C6.292141914367676 9.802654266357422 6.3295111656188965 9.803119659423828 6.366879940032959 9.803585052490234 L6.366879940032959 10.800187110900879 C5.54295539855957 10.668095588684082 5.452496528625488 11.244986534118652 5.4476823806762695 11.946808815002441 L5.4476823806762695 13.035869598388672 L4.498530864715576 13.035869598388672 L4.498530864715576 9.89140796661377 L5.412771224975586 9.89140796661377 L5.412771224975586 10.153241157531738 C5.654026508331299 9.96822452545166 5.955298900604248 9.855182647705078 6.254731178283691 9.802495956420898 L6.254731178283691 9.802495956420898"></path>
<path fill="none" stroke="black" stroke-width=".3" stroke-opacity="1.0"  filling="0" d="M19.124099731445312 9.89875316619873 L19.12549591064453 13.041301727294922 L18.49736785888672 13.042698860168457 L18.292810440063477 13.042698860168457 L18.292810440063477 9.899060249328613"></path>
<path fill="none" stroke="black" stroke-width=".3" stroke-opacity="1.0"  filling="0" d="M3.0426244735717773 9.917339324951172 L3.0426244735717773 9.917339324951172 C4.95271635055542 10.029562950134277 4.243122577667236 14.175570487976074 2.211040496826172 12.521516799926758 L2.211040496826172 13.862594604492188 L1.5305376052856445 13.860639572143555 L1.5305376052856445 10.028328895568848 L2.190582275390625 10.028328895568848 L2.2230358123779297 10.383710861206055 C2.4370174407958984 10.153457641601562 2.7382137775421143 9.995674133300781 3.0426244735717773 9.917325019836426 L3.0426244735717773 9.917325019836426"></path>
<path fill="none" stroke="black" stroke-width=".3" stroke-opacity="1.0"  filling="0" d="M3.0426244735717773 9.917325019836426 L3.0426244735717773 9.917325019836426 C4.955125331878662 10.034295082092285 4.240229606628418 14.174232482910156 2.211040496826172 12.521503448486328 L2.211040496826172 13.862314224243164 L1.5305376052856445 13.860639572143555 L1.5305376052856445 10.028314590454102 L2.190582275390625 10.028314590454102 L2.2230358123779297 10.383696556091309 C2.4369266033172607 10.153359413146973 2.738175392150879 9.995511054992676 3.0426244735717773 9.917311668395996 L3.0426244735717773 9.917311668395996"></path>
<path fill="none" stroke="black" stroke-width=".3" stroke-opacity="1.0"  filling="0" d="M7.951195240020752 9.925564765930176 L7.951195240020752 9.925564765930176 C8.316305160522461 10.10335922241211 8.775701522827148 10.156340599060059 9.046524047851562 10.458948135375977 C9.780101776123047 11.2786226272583 9.16830825805664 13.103155136108398 7.951195240020752 13.002927780151367 C6.857682228088379 12.91287899017334 5.925343990325928 11.458413124084473 6.788460731506348 10.513531684875488 C7.081379413604736 10.192864418029785 7.563617706298828 10.121553421020508 7.951196193695068 9.925564765930176 L7.951196193695068 9.925564765930176"></path>
<path fill="none" stroke="black" stroke-width=".3" stroke-opacity="1.0"  filling="0" d="M7.951196193695068 9.925564765930176 L7.951196193695068 9.925564765930176 C8.316306114196777 10.10335922241211 8.775702476501465 10.156340599060059 9.046525001525879 10.458948135375977 C9.780080795288086 11.27859878540039 9.168322563171387 13.103200912475586 7.951196193695068 13.002927780151367 C6.857763290405273 12.912845611572266 5.925333023071289 11.458401679992676 6.788439750671387 10.513531684875488 C7.081362724304199 10.192859649658203 7.563610553741455 10.121553421020508 7.951196193695068 9.925564765930176 L7.951196193695068 9.925564765930176"></path>
<path fill="none" stroke="black" stroke-width=".3" stroke-opacity="1.0"  filling="0" d="M6.236423492431641 9.936456680297852 L6.236423492431641 9.936456680297852 C6.236423492431641 10.168290138244629 6.236423492431641 10.400123596191406 6.236423492431641 10.631957054138184 L6.236423492431641 10.631957054138184 C5.460476398468018 10.573668479919434 5.368093013763428 11.143457412719727 5.315369129180908 11.785659790039062 L5.315369129180908 12.898990631103516 L4.629141330718994 12.898990631103516 L4.629141330718994 10.026192665100098 L5.285918712615967 10.026192665100098 L5.310760974884033 10.486852645874023 C5.596658229827881 10.1108980178833 5.769301891326904 10.013283729553223 6.236731052398682 9.936456680297852 L6.236731052398682 9.936456680297852"></path>
<path fill="none" stroke="black" stroke-width=".3" stroke-opacity="1.0"  filling="0" d="M6.236451625823975 9.936736106872559 L6.236451625823975 9.936736106872559 C6.236451625823975 10.16848087310791 6.236451625823975 10.400226593017578 6.236451625823975 10.63197135925293 L6.236451625823975 10.63197135925293 C5.4606428146362305 10.57362174987793 5.368375301361084 11.143776893615723 5.315676212310791 11.785673141479492 L5.315676212310791 12.899003982543945 L4.629448413848877 12.899003982543945 L4.629448413848877 10.026472091674805 L5.286490440368652 10.026472091674805 L5.311347484588623 10.48686695098877 C5.597316265106201 10.111285209655762 5.769811153411865 10.01331901550293 6.2370381355285645 9.936736106872559 L6.2370381355285645 9.936736106872559"></path>
<path fill="none" stroke="black" stroke-width=".3" stroke-opacity="1.0"  filling="0" d="M2.811065673828125 10.481671333312988 L2.811065673828125 10.481671333312988 C3.0414469242095947 10.808873176574707 3.4893229007720947 11.063313484191895 3.5022096633911133 11.463275909423828 C3.5145013332366943 11.844768524169922 3.255190134048462 12.425065994262695 2.873528480529785 12.420330047607422 C2.4757752418518066 12.41539478302002 2.196019172668457 11.844487190246582 2.1832094192504883 11.44690990447998 C2.170849084854126 11.063284873962402 2.6017801761627197 10.803417205810547 2.811065673828125 10.481671333312988 L2.811065673828125 10.481671333312988"></path>
<path fill="none" stroke="black" stroke-width=".3" stroke-opacity="1.0"  filling="0" d="M2.811065673828125 10.481685638427734 L2.811065673828125 10.481685638427734 C3.0414466857910156 10.808886528015137 3.4893221855163574 11.063326835632324 3.502208709716797 11.463289260864258 C3.514500141143799 11.844782829284668 3.2551894187927246 12.425080299377441 2.8735275268554688 12.420344352722168 C2.4757742881774902 12.415409088134766 2.1960179805755615 11.844500541687012 2.183208465576172 11.44692325592041 C2.1708483695983887 11.063298225402832 2.6017799377441406 10.803431510925293 2.811065673828125 10.481685638427734 L2.811065673828125 10.481685638427734"></path>
<path fill="none" stroke="black" stroke-width=".3" stroke-opacity="1.0"  filling="0" d="M7.934012413024902 10.483068466186523 L7.934012413024902 10.483068466186523 C8.176117897033691 10.80717945098877 8.660327911376953 11.050848007202148 8.660327911376953 11.455400466918945 C8.660327911376953 13.880325317382812 7.2096076011657715 11.624424934387207 7.2096076011657715 11.455400466918945 C7.2096076011657715 11.051228523254395 7.692543983459473 10.80717945098877 7.934012413024902 10.483068466186523 L7.934012413024902 10.483068466186523"></path>
<path fill="none" stroke="black" stroke-width=".3" stroke-opacity="1.0"  filling="0" d="M7.934011459350586 10.483081817626953 L7.934011459350586 10.483081817626953 C8.176116943359375 10.8071928024292 8.660326957702637 11.050861358642578 8.660326957702637 11.455413818359375 C8.660326957702637 11.859966278076172 8.338563919067383 12.427745819091797 7.934011936187744 12.427745819091797 C6.002265930175781 12.427745819091797 7.934011936187744 10.483081817626953 7.934011936187744 10.483081817626953 L7.934011936187744 10.483081817626953"></path>
<path fill="none" stroke="black" stroke-width=".3" stroke-opacity="1.0"  filling="0" d="M11.418855667114258 10.516554832458496 L11.418855667114258 10.516554832458496 C11.648506164550781 10.831574440002441 12.107806205749512 11.071772575378418 12.107806205749512 11.461614608764648 C12.107806205749512 12.062206268310547 10.72990608215332 13.381141662597656 10.72990608215332 11.461614608764648 C10.72990608215332 11.071772575378418 11.18920612335205 10.831574440002441 11.418855667114258 10.516554832458496 L11.418855667114258 10.516554832458496"></path>
<path fill="none" stroke="black" stroke-width=".3" stroke-opacity="1.0"  filling="0" d="M14.605863571166992 10.516554832458496 L14.605863571166992 10.516554832458496 C14.824149131774902 10.835665702819824 15.24668025970459 11.087515830993652 15.260721206665039 11.473888397216797 C15.286840438842773 12.192627906799316 14.084904670715332 13.256082534790039 14.019465446472168 11.455329895019531 C14.00606632232666 11.086616516113281 14.41039752960205 10.829480171203613 14.605863571166992 10.516554832458496 L14.605863571166992 10.516554832458496"></path>
<path fill="none" stroke="black" stroke-width=".3" stroke-opacity="1.0"  filling="0" d="M2.8266220092773438 10.617266654968262 L2.8266220092773438 10.617266654968262 C4.080402851104736 12.618335723876953 1.647276759147644 12.39004898071289 2.8266220092773438 10.617266654968262 L2.8266220092773438 10.617266654968262"></path>
<path fill="none" stroke="black" stroke-width=".3" stroke-opacity="1.0"  filling="0" d="M7.933740139007568 10.621037483215332 L7.933740139007568 10.621037483215332 C7.936234951019287 10.624377250671387 9.57757568359375 12.2932767868042 7.92773962020874 12.292137145996094 C7.370702743530273 12.291751861572266 7.601617336273193 11.068233489990234 7.933740139007568 10.621036529541016 L7.933740139007568 10.621036529541016"></path>
<path fill="none" stroke="black" stroke-width=".3" stroke-opacity="1.0"  filling="0" d="M21.888364791870117 13.842164039611816 L21.888364791870117 13.842164039611816 C22.125885009765625 14.089241981506348 22.60101318359375 14.240668296813965 22.60092544555664 14.58339786529541 C22.60083770751953 14.924607276916504 22.125635147094727 15.07308578491211 21.887989044189453 15.3179292678833 L16.238059997558594 15.3179292678833 L10.588132858276367 15.3179292678833 C10.350550651550293 15.07085132598877 9.875387191772461 14.91946792602539 9.875387191772461 14.576695442199707 C9.875387191772461 14.235529899597168 10.350550651550293 14.087007522583008 10.588132858276367 13.842164039611816 L16.238248825073242 13.842164039611816 L21.888364791870117 13.842164039611816"></path>
<path fill="none" stroke="black" stroke-width=".3" stroke-opacity="1.0"  filling="0" d="M15.826390266418457 14.054563522338867 L15.674473762512207 14.054563522338867"></path>
<path fill="none" stroke="black" stroke-width=".3" stroke-opacity="1.0"  filling="0" d="M16.113317489624023 14.054563522338867 L15.96139907836914 14.054563522338867"></path>
<path fill="none" stroke="black" stroke-width=".3" stroke-opacity="1.0"  filling="0" d="M11.769332885742188 14.195577621459961 L11.769332885742188 14.195577621459961 C11.897249221801758 14.273489952087402 12.025164604187012 14.351401329040527 12.153080940246582 14.429313659667969 L11.97497844696045 14.429313659667969 C11.866122245788574 14.364153861999512 11.507257461547852 14.3200101852417 11.594775199890137 14.411858558654785 C11.748198509216309 14.572872161865234 12.102270126342773 14.524600982666016 12.179537773132324 14.733152389526367 C12.26930046081543 14.97542953491211 11.621284484863281 14.85435676574707 11.40467357635498 14.713519096374512 L11.582502365112305 14.713519096374512 C12.308698654174805 15.175088882446289 11.196616172790527 14.571968078613281 11.769331932067871 14.195577621459961 L11.769331932067871 14.195577621459961"></path>
<path fill="none" stroke="black" stroke-width=".3" stroke-opacity="1.0"  filling="0" d="M14.657957077026367 14.195577621459961 L14.657957077026367 14.195577621459961 C14.794238090515137 14.28139877319336 14.930520057678223 14.367219924926758 15.066801071166992 14.453041076660156 L14.888699531555176 14.453041076660156 C14.290654182434082 14.091602325439453 14.256827354431152 15.133145332336426 14.91624641418457 14.66305160522461 L14.694231986999512 14.66305160522461 L15.080982208251953 14.547691345214844 L14.961248397827148 14.855607986450195 C14.28966999053955 15.117255210876465 14.070182800292969 14.694625854492188 14.657957077026367 14.195577621459961 L14.657957077026367 14.195577621459961"></path>
<path fill="none" stroke="black" stroke-width=".3" stroke-opacity="1.0"  filling="0" d="M18.263080596923828 14.195577621459961 L18.263080596923828 14.195577621459961 C18.390905380249023 14.273489952087402 18.51873207092285 14.351401329040527 18.646556854248047 14.429313659667969 L18.468456268310547 14.429313659667969 C18.359600067138672 14.364154815673828 18.000734329223633 14.3200101852417 18.088253021240234 14.411858558654785 C18.241676330566406 14.572872161865234 18.595746994018555 14.524600982666016 18.673015594482422 14.733152389526367 C18.762779235839844 14.97542953491211 18.114763259887695 14.854355812072754 17.898151397705078 14.713519096374512 L18.076251983642578 14.713519096374512 C18.802165985107422 15.174907684326172 17.689664840698242 14.572134017944336 18.263080596923828 14.195577621459961 L18.263080596923828 14.195577621459961"></path>
<path fill="none" stroke="black" stroke-width=".3" stroke-opacity="1.0"  filling="0" d="M21.089794158935547 14.195577621459961 L21.089794158935547 14.195577621459961 C21.22607421875 14.28139877319336 21.362356185913086 14.367219924926758 21.49863624572754 14.453041076660156 L21.32080841064453 14.453041076660156 C20.722129821777344 14.091639518737793 20.688995361328125 15.133106231689453 21.34835433959961 14.66305160522461 L21.126070022583008 14.66305160522461 L21.513092041015625 14.547691345214844 L21.39335823059082 14.855607986450195 C20.721830368041992 15.117236137390137 20.501800537109375 14.69481086730957 21.089794158935547 14.195577621459961 L21.089794158935547 14.195577621459961"></path>
<path fill="none" stroke="black" stroke-width=".3" stroke-opacity="1.0"  filling="0" d="M11.02964973449707 14.216034889221191 L10.864912986755371 14.951347351074219 L10.864912986755371 14.216034889221191"></path>
<path fill="none" stroke="black" stroke-width=".3" stroke-opacity="1.0"  filling="0" d="M13.227965354919434 14.216034889221191 L12.768664360046387 14.951068878173828 L12.768664360046387 14.331130981445312 L12.474100112915039 14.216034889221191"></path>
<path fill="none" stroke="black" stroke-width=".3" stroke-opacity="1.0"  filling="0" d="M15.674473762512207 14.216034889221191 L15.674473762512207 14.631142616271973 C15.776308059692383 14.736156463623047 16.01115608215332 14.735838890075684 16.113317489624023 14.631142616271973 L16.278053283691406 14.216034889221191 L16.278053283691406 14.635233879089355 C16.085338592529297 14.803910255432129 15.702152252197266 14.804247856140137 15.509734153747559 14.635233879089355 L15.509734153747559 14.216034889221191"></path>
<path fill="none" stroke="black" stroke-width=".3" stroke-opacity="1.0"  filling="0" d="M16.895545959472656 14.216034889221191 L17.36493492126465 14.767786026000977 L17.52339744567871 14.216034889221191 L17.52339744567871 14.951068878173828 L16.864999771118164 14.399040222167969 L16.70653533935547 14.951068878173828 L16.70653533935547 14.216034889221191"></path>
<path fill="none" stroke="black" stroke-width=".3" stroke-opacity="1.0"  filling="0" d="M19.721439361572266 14.216034889221191 L19.262142181396484 14.951068878173828 L19.262142181396484 14.331130981445312 L18.96757698059082 14.216034889221191"></path>
<path fill="none" stroke="black" stroke-width=".3" stroke-opacity="1.0"  filling="0" d="M20.241289138793945 14.216034889221191 L20.076553344726562 14.951347351074219 L20.076553344726562 14.216034889221191"></path>
<path fill="none" stroke="black" stroke-width=".3" stroke-opacity="1.0"  filling="0" d="M21.971572875976562 14.825891494750977 L21.800018310546875 14.825891494750977"></path></svg>