<svg xmlns="http://www.w3.org/2000/svg" viewBox="0.0 0.0 24.0 24.0" height="200px" width="200px"><path fill="none" stroke="black" stroke-width=".3" stroke-opacity="1.0"  filling="0" d="M1.2000007629394531 10.470796585083008 L4.2584075927734375 10.470796585083008 L4.2584075927734375 11.311858177185059 L1.2000007629394531 11.311858177185059"></path>
<path fill="none" stroke="black" stroke-width=".3" stroke-opacity="1.0"  filling="0" d="M6.19858455657959 10.470796585083008 L6.19858455657959 10.470796585083008 C6.635044574737549 10.738407135009766 7.071504592895508 11.006017684936523 7.507964611053467 11.273628234863281 L7.183009147644043 11.273628234863281 C6.627093315124512 10.982176780700684 5.160604953765869 10.632987022399902 5.300177097320557 11.244956016540527 C5.404899597167969 11.704123497009277 7.656996726989746 11.987972259521484 7.593982696533203 12.64035415649414 C7.377978801727295 14.876626014709473 5.041440486907959 12.711553573608398 4.860531330108643 12.59256649017334 L5.185487270355225 12.59256649017334 C5.551858901977539 12.8092041015625 5.859428882598877 13.222794532775879 6.284602642059326 13.242478370666504 C6.655256748199463 13.259637832641602 7.307470798492432 13.054701805114746 7.249911785125732 12.688141822814941 C7.13764762878418 11.973198890686035 4.901210784912109 12.220483779907227 4.956106662750244 11.292742729187012 C4.985438823699951 10.797027587890625 5.784425258636475 10.744778633117676 6.19858455657959 10.470796585083008 L6.19858455657959 10.470796585083008"></path>
<path fill="none" stroke="black" stroke-width=".3" stroke-opacity="1.0"  filling="0" d="M7.918938636779785 10.470796585083008 L9.581947326660156 10.470796585083008 C9.890974044799805 10.763894081115723 10.54344654083252 10.925566673278809 10.509026527404785 11.350088119506836 C10.471545219421387 11.812359809875488 9.795398712158203 11.942654609680176 9.43858528137207 12.238938331604004 L8.234335899353027 12.238938331604004 L8.234335899353027 13.529203414916992 L7.918937683105469 13.529203414916992 L7.918937683105469 10.470796585083008"></path>
<path fill="none" stroke="black" stroke-width=".3" stroke-opacity="1.0"  filling="0" d="M12.41097354888916 10.470796585083008 L12.41097354888916 10.470796585083008 C13.431037902832031 10.704999923706055 15.226837158203125 11.88131046295166 13.746637344360352 13.226946830749512 C12.2059326171875 14.627588272094727 9.367870330810547 12.332115173339844 11.078895568847656 10.776637077331543 C11.415996551513672 10.470181465148926 11.966948509216309 10.57274341583252 12.410974502563477 10.470796585083008 L12.410974502563477 10.470796585083008"></path>
<path fill="none" stroke="black" stroke-width=".3" stroke-opacity="1.0"  filling="0" d="M14.418052673339844 10.470796585083008 L16.100177764892578 10.470796585083008 C16.41557502746582 10.744778633117676 16.88957405090332 10.905500411987305 17.046371459960938 11.292742729187012 C17.14653778076172 11.540122032165527 16.83610725402832 11.78336238861084 16.730974197387695 12.028672218322754 L16.730974197387695 12.028672218322754 C16.83610725402832 12.318583488464355 16.941238403320312 12.608495712280273 17.046371459960938 12.898406982421875 L17.046371459960938 13.529203414916992 L16.730974197387695 13.529203414916992 L16.730974197387695 12.907964706420898 C16.466548919677734 12.669026374816895 16.202123641967773 12.43008804321289 15.937699317932129 12.191149711608887 L14.74300765991211 12.191149711608887 L14.74300765991211 13.529203414916992 L14.427610397338867 13.529203414916992 L14.427610397338867 10.470796585083008"></path>
<path fill="none" stroke="black" stroke-width=".3" stroke-opacity="1.0"  filling="0" d="M17.227964401245117 10.470796585083008 L19.970972061157227 10.470796585083008 L19.970972061157227 10.757521629333496 L18.75716781616211 10.757521629333496 L18.75716781616211 13.529203414916992 L18.441768646240234 13.529203414916992 L18.441768646240234 10.757521629333496 L17.227964401245117 10.757521629333496 L17.227964401245117 10.470796585083008"></path>
<path fill="none" stroke="black" stroke-width=".3" stroke-opacity="1.0"  filling="0" d="M21.34725570678711 10.470796585083008 L21.34725570678711 10.470796585083008 C21.783716201782227 10.738407135009766 22.220178604125977 11.006017684936523 22.656639099121094 11.273628234863281 L22.331684112548828 11.273628234863281 C21.775766372680664 10.982176780700684 20.309276580810547 10.632986068725586 20.448848724365234 11.244956016540527 C20.553571701049805 11.704124450683594 22.805667877197266 11.987968444824219 22.74265480041504 12.64035415649414 C22.526653289794922 14.876626968383789 20.190109252929688 12.71155071258545 20.009204864501953 12.59256649017334 L20.33415985107422 12.59256649017334 C20.700532913208008 12.8092041015625 21.008102416992188 13.222794532775879 21.433277130126953 13.242478370666504 C21.803932189941406 13.259637832641602 22.456146240234375 13.05470085144043 22.39858627319336 12.688141822814941 C22.28632164001465 11.973198890686035 20.049884796142578 12.220481872558594 20.104780197143555 11.292742729187012 C20.134111404418945 10.797027587890625 20.93309783935547 10.744778633117676 21.34725570678711 10.470796585083008 L21.34725570678711 10.470796585083008"></path>
<path fill="none" stroke="black" stroke-width=".3" stroke-opacity="1.0"  filling="0" d="M8.234335899353027 10.757521629333496 L9.524602890014648 10.757521629333496 C9.734868049621582 10.95504379272461 10.169231414794922 11.061929702758789 10.155399322509766 11.350088119506836 C10.140786170959473 11.654531478881836 9.696638107299805 11.751503944396973 9.467257499694824 11.9522123336792 L8.234336853027344 11.9522123336792 L8.234335899353027 10.757521629333496"></path>
<path fill="none" stroke="black" stroke-width=".3" stroke-opacity="1.0"  filling="0" d="M12.410972595214844 10.757521629333496 L12.410972595214844 10.757521629333496 C12.77097225189209 10.830796241760254 13.22265338897705 10.726398468017578 13.490972518920898 10.977344512939453 C14.500699043273926 11.921692848205566 13.474645614624023 13.24071979522705 12.41097354888916 13.242478370666504 C11.34009075164795 13.24424934387207 10.318182945251465 11.924558639526367 11.330972671508789 10.977344512939453 C11.599291801452637 10.726398468017578 12.050972938537598 10.830796241760254 12.410972595214844 10.757521629333496 L12.410972595214844 10.757521629333496"></path>
<path fill="none" stroke="black" stroke-width=".3" stroke-opacity="1.0"  filling="0" d="M14.74300765991211 10.767080307006836 L16.128847122192383 10.767080307006836 C16.323183059692383 10.945487022399902 16.71856117248535 11.038576126098633 16.711856842041016 11.302301406860352 C16.704641342163086 11.586089134216309 16.30406951904297 11.697344779968262 16.100175857543945 11.894866943359375 L14.74300765991211 11.894866943359375 L14.74300765991211 10.767080307006836"></path>
<path fill="none" stroke="black" stroke-width=".3" stroke-opacity="1.0"  filling="0" d="M4.2584075927734375 11.474335670471191 L4.2584075927734375 13.529203414916992 L1.2000007629394531 13.529203414916992 C1.9782912731170654 12.09282112121582 2.712535858154297 11.899885177612305 4.2584075927734375 11.474335670471191 L4.2584075927734375 11.474335670471191"></path></svg>