<svg xmlns="http://www.w3.org/2000/svg" viewBox="0.0 0.0 24.0 24.0" height="200px" width="200px"><path fill="none" stroke="black" stroke-width=".3" stroke-opacity="1.0"  filling="0" d="M5.877273082733154 9.84886360168457 L5.877273082733154 14.110227584838867 L4.868182182312012 14.110227584838867 L4.868182182312012 11.185227394104004 C3.886979341506958 12.165413856506348 2.9072251319885254 13.146981239318848 1.9295454025268555 14.130681991577148 L1.2000007629394531 13.387500762939453 C2.0452077388763428 12.5531587600708 2.8907670974731445 11.719173431396484 3.7363643646240234 10.88522720336914 L1.5477275848388672 10.88522720336914 L1.5477275848388672 9.84886360168457"></path>
<path fill="none" stroke="black" stroke-width=".3" stroke-opacity="1.0"  filling="0" d="M12.961363792419434 10.332954406738281 L12.961363792419434 10.332954406738281 C13.378837585449219 10.750428199768066 12.543889999389648 10.750428199768066 12.961363792419434 10.332954406738281 L12.961363792419434 10.332954406738281"></path>
<path fill="none" stroke="black" stroke-width=".3" stroke-opacity="1.0"  filling="0" d="M14.645454406738281 10.339773178100586 L14.959092140197754 10.339773178100586 L14.959092140197754 10.857954978942871 C15.857751846313477 10.493631362915039 15.879977226257324 12.263216018676758 14.959092140197754 11.914772987365723 L14.645454406738281 11.982954978942871 L14.645454406738281 10.339773178100586"></path>
<path fill="none" stroke="black" stroke-width=".3" stroke-opacity="1.0"  filling="0" d="M11.965909004211426 10.367045402526855 L11.965909004211426 10.367045402526855 C12.159090995788574 10.451136589050293 12.352272987365723 10.535226821899414 12.545454978942871 10.619318008422852 L12.313636779785156 10.844318389892578 C11.00874137878418 10.253422737121582 12.587545394897461 11.427810668945312 12.579545021057129 11.505681991577148 C12.479368209838867 12.480741500854492 11.5901460647583 11.846238136291504 11.324999809265137 11.72386360168457 L11.556818008422852 11.519317626953125 C13.012409210205078 12.174335479736328 11.383151054382324 10.964252471923828 11.393181800842285 10.837499618530273 C11.41267204284668 10.59121036529541 11.774999618530273 10.523863792419434 11.965909004211426 10.367045402526855 L11.965909004211426 10.367045402526855"></path>
<path fill="none" stroke="black" stroke-width=".3" stroke-opacity="1.0"  filling="0" d="M18.906818389892578 10.367045402526855 L18.906818389892578 10.367045402526855 C19.100000381469727 10.451136589050293 19.293180465698242 10.535226821899414 19.48636245727539 10.619318008422852 L19.254545211791992 10.844318389892578 C17.94965171813965 10.253421783447266 19.52845573425293 11.427810668945312 19.52045440673828 11.505681991577148 C19.420278549194336 12.48073959350586 18.53105354309082 11.846238136291504 18.265907287597656 11.72386360168457 L18.497726440429688 11.519317626953125 C19.953317642211914 12.174334526062012 18.324060440063477 10.964255332946777 18.334091186523438 10.837499618530273 C18.35358238220215 10.59121036529541 18.715909957885742 10.523863792419434 18.906818389892578 10.367045402526855 L18.906818389892578 10.367045402526855"></path>
<path fill="none" stroke="black" stroke-width=".3" stroke-opacity="1.0"  filling="0" d="M7.997727870941162 10.387499809265137 L8.659090995788574 10.387499809265137 C8.843182563781738 10.555681228637695 9.217967987060547 10.642784118652344 9.21136474609375 10.892045021057129 C9.204462051391602 11.15261459350586 8.825000762939453 11.242045402526855 8.631818771362305 11.417045593261719 L8.318181991577148 11.417045593261719 L8.318181991577148 11.982954978942871 L7.997727870941162 11.982954978942871 L7.997727870941162 10.387499809265137"></path>
<path fill="none" stroke="black" stroke-width=".3" stroke-opacity="1.0"  filling="0" d="M21.06818199157715 10.387499809265137 L21.668182373046875 10.789772987365723 L21.381820678710938 11.567046165466309 C21.44969940185547 11.654891014099121 21.57825469970703 11.708417892456055 21.688636779785156 11.6965913772583 L21.688636779785156 11.969318389892578 C21.457996368408203 12.00076961517334 21.222625732421875 11.823022842407227 21.06818199157715 11.648863792419434 L21.06818199157715 10.387499809265137"></path>
<path fill="none" stroke="black" stroke-width=".3" stroke-opacity="1.0"  filling="0" d="M22.540908813476562 10.394317626953125 L22.80681800842285 10.394317626953125 L22.80681800842285 11.98977279663086 L22.486364364624023 11.98977279663086 L22.486364364624023 10.728408813476562 L22.152273178100586 10.905681610107422 L22.540908813476562 10.394317626953125"></path>
<path fill="none" stroke="black" stroke-width=".3" stroke-opacity="1.0"  filling="0" d="M8.318181991577148 10.694317817687988 L8.652273178100586 10.694317817687988 C8.753173828125 10.786046028137207 8.753173828125 11.011680603027344 8.652273178100586 11.103408813476562 L8.318181991577148 11.103408813476562 L8.318181991577148 10.694317817687988"></path>
<path fill="none" stroke="black" stroke-width=".3" stroke-opacity="1.0"  filling="0" d="M10.677273750305176 10.755681991577148 L10.677273750305176 10.755681991577148 C11.934467315673828 12.201456069946289 9.430890083312988 12.20716667175293 10.677273750305176 10.755681991577148 L10.677273750305176 10.755681991577148"></path>
<path fill="none" stroke="black" stroke-width=".3" stroke-opacity="1.0"  filling="0" d="M13.895455360412598 10.755681991577148 L13.895455360412598 10.755681991577148 C14.080771446228027 10.986074447631836 14.400001525878906 11.189554214477539 14.400001525878906 11.48522663116455 L13.684091567993164 11.48522663116455 C13.800127029418945 11.591592788696289 13.987940788269043 11.686869621276855 14.134092330932617 11.628408432006836 L14.359092712402344 11.8125 C13.341483116149902 12.2647705078125 13.338956832885742 11.412065505981445 13.895455360412598 10.755681991577148 L13.895455360412598 10.755681991577148"></path>
<path fill="none" stroke="black" stroke-width=".3" stroke-opacity="1.0"  filling="0" d="M16.363637924194336 10.755681991577148 L16.363637924194336 10.755681991577148 C16.548954010009766 10.986074447631836 16.868183135986328 11.189554214477539 16.868183135986328 11.48522663116455 L16.152271270751953 11.48522663116455 C16.268306732177734 11.591592788696289 16.45612144470215 11.686869621276855 16.60227394104004 11.628408432006836 L16.827274322509766 11.8125 C15.809663772583008 12.264771461486816 15.807138442993164 11.412064552307129 16.363637924194336 10.755681991577148 L16.363637924194336 10.755681991577148"></path>
<path fill="none" stroke="black" stroke-width=".3" stroke-opacity="1.0"  filling="0" d="M20.19545555114746 10.755681991577148 L20.19545555114746 10.755681991577148 C20.045454025268555 10.796590805053711 19.89545440673828 10.83750057220459 19.745452880859375 10.878409385681152 L19.868181228637695 11.096590995788574 C20.0306396484375 11.055975914001465 20.24019432067871 11.054144859313965 20.36590576171875 11.164772987365723 L20.36590576171875 11.226137161254883 C19.45464515686035 11.038517951965332 19.548065185546875 12.215693473815918 20.36590576171875 11.90113639831543 L20.679546356201172 11.1784086227417 C20.5181827545166 11.03749942779541 20.35681915283203 10.896591186523438 20.19545555114746 10.755681991577148 L20.19545555114746 10.755681991577148"></path>
<path fill="none" stroke="black" stroke-width=".3" stroke-opacity="1.0"  filling="0" d="M9.872727394104004 10.769318580627441 L9.872727394104004 10.769318580627441 C9.790909767150879 10.803409576416016 9.709091186523438 10.837499618530273 9.627273559570312 10.871590614318848 L9.313636779785156 10.789772987365723 L9.313636779785156 11.982954978942871 L9.627273559570312 11.982954978942871 L9.627273559570312 11.335227966308594 C9.716095924377441 11.2227201461792 9.883159637451172 11.097052574157715 10.015909194946289 11.15113639831543 L10.015909194946289 11.15113639831543 C9.968181610107422 11.023863792419434 9.920454978942871 10.896591186523438 9.872727394104004 10.769318580627441 L9.872727394104004 10.769318580627441"></path>
<path fill="none" stroke="black" stroke-width=".3" stroke-opacity="1.0"  filling="0" d="M17.679546356201172 10.769318580627441 L17.679546356201172 10.769318580627441 C17.827274322509766 10.951136589050293 17.975000381469727 11.132954597473145 18.12272834777832 11.314772605895996 L18.12272834777832 11.98977279663086 L17.809091567993164 11.98977279663086 L17.809091567993164 11.335227966308594 C17.72855567932129 11.225162506103516 17.481828689575195 11.219303131103516 17.399999618530273 11.328409194946289 L17.399999618530273 11.982954978942871 L17.08636474609375 11.982954978942871 L17.08636474609375 10.789772987365723 L17.399999618530273 10.871590614318848 C17.493181228637695 10.837499618530273 17.58636474609375 10.803409576416016 17.679546356201172 10.769318580627441 L17.679546356201172 10.769318580627441"></path>
<path fill="none" stroke="black" stroke-width=".3" stroke-opacity="1.0"  filling="0" d="M12.804546356201172 10.789772987365723 L13.118182182312012 10.789772987365723 L13.118182182312012 11.98977279663086 L12.804546356201172 11.98977279663086 L12.804546356201172 10.789772987365723"></path>
<path fill="none" stroke="black" stroke-width=".3" stroke-opacity="1.0"  filling="0" d="M13.881818771362305 11.035226821899414 L13.881818771362305 11.035226821899414 C13.95227336883545 11.105681419372559 14.022727012634277 11.17613697052002 14.093181610107422 11.246591567993164 L13.684091567993164 11.246591567993164 C13.750000953674316 11.17613697052002 13.815909385681152 11.105681419372559 13.881818771362305 11.035226821899414 L13.881818771362305 11.035226821899414"></path>
<path fill="none" stroke="black" stroke-width=".3" stroke-opacity="1.0"  filling="0" d="M16.350000381469727 11.035226821899414 L16.350000381469727 11.035226821899414 C16.420454025268555 11.105681419372559 16.490909576416016 11.17613697052002 16.561363220214844 11.246591567993164 L16.152271270751953 11.246591567993164 C16.218181610107422 11.17613697052002 16.284090042114258 11.105681419372559 16.350000381469727 11.035226821899414 L16.350000381469727 11.035226821899414"></path>
<path fill="none" stroke="black" stroke-width=".3" stroke-opacity="1.0"  filling="0" d="M15.15000057220459 11.055682182312012 L15.15000057220459 11.055682182312012 C15.30558967590332 11.320181846618652 15.473227500915527 11.856729507446289 14.959092140197754 11.607954978942871 L14.959092140197754 11.157954216003418 C15.022727966308594 11.123863220214844 15.08636474609375 11.089773178100586 15.15000057220459 11.055682182312012 L15.15000057220459 11.055682182312012"></path>
<path fill="none" stroke="black" stroke-width=".3" stroke-opacity="1.0"  filling="0" d="M10.677273750305176 11.0625 L10.677273750305176 11.0625 C11.186756134033203 11.788128852844238 10.177718162536621 11.796222686767578 10.677273750305176 11.0625 L10.677273750305176 11.0625"></path>
<path fill="none" stroke="black" stroke-width=".3" stroke-opacity="1.0"  filling="0" d="M20.147727966308594 11.4375 L20.147727966308594 11.4375 C19.812307357788086 11.71080207824707 20.11419677734375 11.761083602905273 20.365909576416016 11.63522720336914 L20.365909576416016 11.63522720336914 C20.293182373046875 11.569317817687988 20.220455169677734 11.503409385681152 20.147727966308594 11.4375 L20.147727966308594 11.4375"></path>
<path fill="none" stroke="black" stroke-width=".3" stroke-opacity="1.0"  filling="0" d="M22.090909957885742 11.601136207580566 L22.090909957885742 11.601136207580566 C22.572607040405273 12.082839012145996 21.609209060668945 12.082837104797363 22.090909957885742 11.601136207580566 L22.090909957885742 11.601136207580566"></path>
<path fill="none" stroke="black" stroke-width=".3" stroke-opacity="1.0"  filling="0" d="M12.272727012634277 12.453409194946289 L12.272727012634277 12.453409194946289 C12.547045707702637 12.743864059448242 11.987007141113281 12.739129066467285 12.272727012634277 12.453409194946289 L12.272727012634277 12.453409194946289"></path>
<path fill="none" stroke="black" stroke-width=".3" stroke-opacity="1.0"  filling="0" d="M14.686365127563477 12.467045783996582 L14.686365127563477 12.467045783996582 C14.850001335144043 12.523863792419434 15.013638496398926 12.580682754516602 15.177274703979492 12.637500762939453 L15.061365127563477 12.780682563781738 C13.407510757446289 12.142349243164062 16.433183670043945 14.858059883117676 14.140910148620605 13.912500381469727 L14.263636589050293 13.77613639831543 C15.852352142333984 14.507448196411133 14.176985740661621 13.008636474609375 14.181819915771484 12.882954597473145 C14.19019603729248 12.665159225463867 14.518183708190918 12.605682373046875 14.686365127563477 12.467045783996582 L14.686365127563477 12.467045783996582"></path>
<path fill="none" stroke="black" stroke-width=".3" stroke-opacity="1.0"  filling="0" d="M15.531818389892578 12.487500190734863 L15.531818389892578 14.110227584838867 L16.547727584838867 13.9465913772583 L15.715909004211426 13.9465913772583 L15.715909004211426 13.326136589050293 L16.179546356201172 13.162500381469727 L15.715909004211426 13.162500381469727 L15.715909004211426 12.65113639831543 L16.51363754272461 12.487500190734863 L15.531818389892578 12.487500190734863"></path>
<path fill="none" stroke="black" stroke-width=".3" stroke-opacity="1.0"  filling="0" d="M7.990909576416016 12.51477336883545 L7.990909576416016 14.110227584838867 L8.16136360168457 12.862500190734863 C8.193181991577148 12.951136589050293 8.225000381469727 13.039772987365723 8.256818771362305 13.128409385681152 L8.679545402526855 14.157955169677734 L9.109090805053711 13.128409385681152 C9.140909194946289 13.039772987365723 9.172727584838867 12.951136589050293 9.204545974731445 12.862500190734863 L9.204545974731445 14.110227584838867 L9.368182182312012 12.51477336883545 L8.795454978942871 13.469318389892578 C8.756818771362305 13.5715913772583 8.718181610107422 13.673863410949707 8.679545402526855 13.77613639831543 L8.679545402526855 13.77613639831543 C8.640909194946289 13.673863410949707 8.602272987365723 13.5715913772583 8.563636779785156 13.469318389892578 L7.990909576416016 12.51477336883545"></path>
<path fill="none" stroke="black" stroke-width=".3" stroke-opacity="1.0"  filling="0" d="M11.631818771362305 12.51477336883545 L11.63863754272461 13.97386360168457 C10.611054420471191 14.458572387695312 10.66897201538086 12.601459503173828 11.631818771362305 13.053409576416016 L11.631818771362305 12.51477336883545"></path>
<path fill="none" stroke="black" stroke-width=".3" stroke-opacity="1.0"  filling="0" d="M3.872727394104004 12.753408432006836 L3.872727394104004 12.753408432006836 C4.100000381469727 12.980681419372559 4.554545879364014 13.113815307617188 4.554545879364014 13.435227394104004 C4.554545879364014 14.344318389892578 3.1909093856811523 14.344318389892578 3.1909093856811523 13.435227394104004 C3.1909093856811523 13.113815307617188 3.6454546451568604 12.980681419372559 3.872727394104004 12.753408432006836 L3.872727394104004 12.753408432006836"></path>
<path fill="none" stroke="black" stroke-width=".3" stroke-opacity="1.0"  filling="0" d="M10.145454406738281 12.889772415161133 L10.145454406738281 12.889772415161133 C10.322442054748535 13.104151725769043 10.65264892578125 13.302848815917969 10.615909576416016 13.578409194946289 L9.818181991577148 13.578409194946289 C9.969781875610352 13.767135620117188 10.251359939575195 13.959224700927734 10.479546546936035 13.878408432006836 L10.56136417388916 14.001136779785156 C9.525166511535645 14.330086708068848 9.659805297851562 13.495172500610352 10.145454406738281 12.889772415161133 L10.145454406738281 12.889772415161133"></path>
<path fill="none" stroke="black" stroke-width=".3" stroke-opacity="1.0"  filling="0" d="M13.165909767150879 12.889772415161133 L13.165909767150879 12.889772415161133 C13.031819343566895 12.921590805053711 12.897727966308594 12.953409194946289 12.76363754272461 12.985227584838867 L12.825000762939453 13.121590614318848 C13.02209186553955 13.068211555480957 13.268866539001465 13.152615547180176 13.411364555358887 13.298863410949707 L13.411364555358887 13.442045211791992 C12.521774291992188 13.239864349365234 12.500323295593262 14.381155967712402 13.411365509033203 13.967044830322266 L13.58863639831543 13.278409957885742 C13.44772720336914 13.148863792419434 13.306818962097168 13.019318580627441 13.165909767150879 12.889772415161133 L13.165909767150879 12.889772415161133"></path>
<path fill="none" stroke="black" stroke-width=".3" stroke-opacity="1.0"  filling="0" d="M12.17727279663086 12.917045593261719 L12.17727279663086 14.110227584838867 L12.17727279663086 12.917045593261719"></path>
<path fill="none" stroke="black" stroke-width=".3" stroke-opacity="1.0"  filling="0" d="M10.145454406738281 13.039772987365723 L10.145454406738281 13.039772987365723 C10.254545211791992 13.171590805053711 10.36363697052002 13.303409576416016 10.47272777557373 13.435227394104004 L9.825000762939453 13.435227394104004 C9.931818962097168 13.303409576416016 10.038636207580566 13.171590805053711 10.145454406738281 13.039772987365723 L10.145454406738281 13.039772987365723"></path>
<path fill="none" stroke="black" stroke-width=".3" stroke-opacity="1.0"  filling="0" d="M11.31136417388916 13.039772987365723 L11.31136417388916 13.039772987365723 C11.063538551330566 13.454734802246094 10.898538589477539 14.21556568145752 11.631818771362305 13.817046165466309 L11.631818771362305 13.817046165466309 C11.52500057220459 13.557954788208008 11.418182373046875 13.298864364624023 11.31136417388916 13.039772987365723 L11.31136417388916 13.039772987365723"></path>
<path fill="none" stroke="black" stroke-width=".3" stroke-opacity="1.0"  filling="0" d="M13.111364364624023 13.51022720336914 L13.111364364624023 13.51022720336914 C12.626703262329102 13.912139892578125 13.004231452941895 14.032299995422363 13.418182373046875 13.817046165466309 L13.418182373046875 13.817046165466309 C13.315909385681152 13.714773178100586 13.213637351989746 13.612500190734863 13.111364364624023 13.51022720336914 L13.111364364624023 13.51022720336914"></path></svg>