<svg xmlns="http://www.w3.org/2000/svg" viewBox="0.0 0.0 24.0 24.0" height="200px" width="200px"><path fill="none" stroke="black" stroke-width=".3" stroke-opacity="1.0"  filling="0" d="M161.8865203857422 17.01038360595703 L163.24688720703125 17.01038360595703 L163.24688720703125 18.256053924560547 L164.6219482421875 18.256053924560547 C164.7706298828125 18.40502166748047 164.9193115234375 18.553991317749023 165.0679931640625 18.702959060668945 L165.0679931640625 21.52132797241211 C164.9221954345703 21.67015266418457 164.77638244628906 21.8189754486084 164.63058471679688 21.96780014038086 L161.8865203857422 21.96780014038086 L161.8865203857422 17.01038360595703"></path>
<path fill="none" stroke="black" stroke-width=".3" stroke-opacity="1.0"  filling="0" d="M174.6426239013672 17.01038360595703 L176.00233459472656 17.01038360595703 L176.00233459472656 18.254976272583008 L176.4647979736328 18.254976272583008 L176.4647979736328 17.01038360595703 L177.824951171875 21.523271560668945 C177.67735290527344 21.67144775390625 177.52975463867188 21.819623947143555 177.3821563720703 21.96780014038086 L175.085205078125 21.96780014038086 C174.93768310546875 21.819623947143555 174.79014587402344 21.67144775390625 174.6426239013672 21.523271560668945 L174.6426239013672 17.01038360595703"></path>
<path fill="none" stroke="black" stroke-width=".3" stroke-opacity="1.0"  filling="0" d="M167.12107849121094 17.606327056884766 L167.12107849121094 17.606327056884766 C167.04425048828125 17.68351173400879 166.96742248535156 17.76069450378418 166.89059448242188 17.837879180908203 L166.8910369873047 21.96780014038086 L165.52980041503906 21.96780014038086 L165.52980041503906 17.415599822998047 C165.66400146484375 17.280527114868164 165.7982177734375 17.145456314086914 165.9324188232422 17.01038360595703 L168.3112335205078 17.01038360595703 C168.44522094726562 17.145456314086914 168.5792236328125 17.280527114868164 168.7132110595703 17.415599822998047 L168.7132110595703 21.96780014038086 L167.353271484375 21.96780014038086 L167.35220336914062 17.83787727355957 C167.27516174316406 17.76069450378418 167.1981201171875 17.683509826660156 167.12107849121094 17.606327056884766 L167.12107849121094 17.606327056884766"></path>
<path fill="none" stroke="black" stroke-width=".3" stroke-opacity="1.0"  filling="0" d="M176.4647979736328 18.869064331054688 L176.4647979736328 21.151752471923828 C176.35374450683594 21.258668899536133 176.11227416992188 21.256153106689453 176.00233459472656 21.14807891845703 L176.00233459472656 18.869064331054688 L176.4647979736328 18.869064331054688"></path>
<path fill="none" stroke="black" stroke-width=".3" stroke-opacity="1.0"  filling="0" d="M163.70848083496094 21.14138412475586 L163.70848083496094 21.14138412475586 C163.63165283203125 21.220006942749023 163.55484008789062 21.29863166809082 163.47801208496094 21.377254486083984 L163.24688720703125 21.377254486083984 L163.24688720703125 18.86992645263672 L163.47801208496094 18.86992645263672 C163.55484008789062 18.947542190551758 163.63165283203125 19.025157928466797 163.70848083496094 19.102773666381836 L163.70848083496094 21.14138412475586"></path>
<path fill="none" stroke="black" stroke-width=".3" stroke-opacity="1.0"  filling="0" d="M171.6780242919922 21.96780014038086 L169.6182403564453 21.96780014038086 C169.47071838378906 21.819623947143555 169.32318115234375 21.67144775390625 169.1756591796875 21.523271560668945 L169.1756591796875 17.01038360595703 L170.53817749023438 17.01038360595703 L170.53817749023438 21.1500244140625 C170.64784240722656 21.258255004882812 170.88951110839844 21.260454177856445 171.0004119873047 21.153478622436523 L171.0004119873047 17.01038360595703 L172.3571014404297 17.01038360595703 L172.3571014404297 21.153478622436523 C172.46749877929688 21.26056480407715 172.7089080810547 21.257949829101562 172.8184814453125 21.1500244140625 L172.8184814453125 17.01038360595703 L174.18101501464844 17.01038360595703 L174.18101501464844 21.523271560668945 C174.03341674804688 21.67144775390625 173.88580322265625 21.819623947143555 173.7382049560547 21.96780014038086 L171.67799377441406 21.96780014038086"></path></svg>