<svg xmlns="http://www.w3.org/2000/svg" viewBox="0.0 0.0 24.0 24.0" height="200px" width="200px"><path fill="none" stroke="black" stroke-width=".3" stroke-opacity="1.0"  filling="0" d="M22.06113052368164 8.026100158691406 L19.778553009033203 12.01870346069336 L17.495975494384766 16.011306762695312 L14.454126358032227 16.011306762695312 L14.456693649291992 12.350296020507812 L11.769944190979004 12.349225997924805 L11.769944190979004 16.011306762695312 L11.00936222076416 16.011306762695312 L11.00936222076416 12.349225997924805 L7.99088716506958 12.349225997924805 L10.134905815124512 16.011306762695312 L7.3670172691345215 16.011306762695312 L5.176731586456299 12.097088813781738 C6.030264377593994 11.164886474609375 6.465944290161133 10.06838321685791 4.679197788238525 10.06298542022705 L4.679197788238525 16.01810073852539 L2.1520519256591797 16.014461517333984 L2.151784896850586 12.020280838012695 L2.151517868041992 8.026100158691406 C3.4269819259643555 8.026100158691406 4.702446460723877 8.026100158691406 5.97791051864624 8.026100158691406 L5.97791051864624 8.026100158691406 C8.077523231506348 8.816594123840332 8.760782241821289 9.364251136779785 7.9597039222717285 11.584471702575684 L11.009414672851562 11.584471702575684 L11.009414672851562 8.026100158691406 L11.769997596740723 8.026100158691406 L11.769997596740723 11.584471702575684 L14.45423412322998 11.584471702575684 L14.45423412322998 8.026100158691406 L16.981914520263672 8.026100158691406 L16.981914520263672 13.262191772460938 C17.166301727294922 12.787264823913574 17.350688934326172 12.312336921691895 17.535076141357422 11.837409973144531 L19.42011070251465 8.026100158691406 L22.06113052368164 8.026100158691406"></path></svg>