<svg xmlns="http://www.w3.org/2000/svg" viewBox="0.0 0.0 24.0 24.0" height="200px" width="200px"><path fill="none" stroke="black" stroke-width=".3" stroke-opacity="1.0"  filling="0" d="M1.345667839050293 9.872964859008789 L8.448555946350098 9.872964859008789 L15.551444053649902 9.872964859008789 L22.65433120727539 9.872964859008789 L22.65433120727539 14.127035140991211 L15.551444053649902 14.127036094665527 L8.448555946350098 14.127036094665527 L1.345667839050293 14.127035140991211 L1.345667839050293 9.872964859008789"></path>
<path fill="none" stroke="black" stroke-width=".3" stroke-opacity="1.0"  filling="0" d="M21.664321899414062 10.374724388122559 L21.664321899414062 10.374724388122559 C22.960529327392578 11.662836074829102 20.379802703857422 11.66738224029541 21.664321899414062 10.374724388122559 L21.664321899414062 10.374724388122559"></path>
<path fill="none" stroke="black" stroke-width=".3" stroke-opacity="1.0"  filling="0" d="M17.771684646606445 10.467220306396484 L18.41838836669922 10.467220306396484 L18.41838836669922 13.559385299682617 L17.771684646606445 13.559385299682617 L17.771684646606445 10.467220306396484"></path>
<path fill="none" stroke="black" stroke-width=".3" stroke-opacity="1.0"  filling="0" d="M21.664321899414062 10.512571334838867 L21.664321899414062 10.512571334838867 C22.63589859008789 11.476058959960938 20.704425811767578 11.480603218078613 21.664321899414062 10.512571334838867 L21.664321899414062 10.512571334838867"></path>
<path fill="none" stroke="black" stroke-width=".3" stroke-opacity="1.0"  filling="0" d="M21.625585556030273 10.746221542358398 L21.673969268798828 10.746221542358398 C21.704450607299805 10.783794403076172 21.702444076538086 10.852252960205078 21.673969268798828 10.89136791229248 L21.625585556030273 10.746221542358398"></path>
<path fill="none" stroke="black" stroke-width=".3" stroke-opacity="1.0"  filling="0" d="M10.976698875427246 10.872488975524902 L10.976698875427246 10.872488975524902 C10.97672176361084 10.872550964355469 12.073257446289062 13.142394065856934 10.976698875427246 13.142394065856934 C9.88050651550293 13.142394065856934 10.976675987243652 10.872550964355469 10.976698875427246 10.872488975524902 L10.976698875427246 10.872488975524902"></path>
<path fill="none" stroke="black" stroke-width=".3" stroke-opacity="1.0"  filling="0" d="M2.5820093154907227 10.942646980285645 L2.869004249572754 10.942646980285645 C3.0496935844421387 11.165565490722656 3.0376131534576416 11.571310997009277 2.869004249572754 11.80350112915039 L2.5820093154907227 11.80350112915039 L2.5820093154907227 10.942646980285645"></path>
<path fill="none" stroke="black" stroke-width=".3" stroke-opacity="1.0"  filling="0" d="M15.916414260864258 10.942646980285645 L16.250553131103516 10.942646980285645 C16.526968002319336 11.600809097290039 16.516550064086914 12.430695533752441 16.229047775268555 13.084091186523438 L15.916414260864258 13.084091186523438 L15.916414260864258 10.942646980285645"></path>
<path fill="none" stroke="black" stroke-width=".3" stroke-opacity="1.0"  filling="0" d="M21.625585556030273 10.971593856811523 L21.718082427978516 10.665993690490723 C21.777118682861328 10.732025146484375 21.79679298400879 10.85991382598877 21.74330711364746 10.930516242980957 L21.74330711364746 10.931894302368164 C21.805986404418945 10.999776840209961 21.842897415161133 11.095505714416504 21.850276947021484 11.187604904174805 L21.74330711364746 11.187604904174805 C21.734535217285156 11.110147476196289 21.697532653808594 11.036059379577637 21.653705596923828 10.971593856811523 L21.625585556030273 10.971593856811523"></path>
<path fill="none" stroke="black" stroke-width=".3" stroke-opacity="1.0"  filling="0" d="M2.5820093154907227 12.278926849365234 L2.5820093154907227 13.559385299682617 L1.9352350234985352 13.559385299682617 L1.9352350234985352 10.467220306396484 L3.130223274230957 10.467220306396484 C3.371500015258789 10.737030982971191 3.8196094036102295 10.916339874267578 3.854053497314453 11.276653289794922 C3.88421368598938 11.59215259552002 3.471392869949341 11.78199291229248 3.280062675476074 12.034663200378418 L3.280062675476074 12.04321002960205 C3.6515390872955322 12.44580364227295 3.8702471256256104 13.013344764709473 3.9140167236328125 13.559385299682617 L3.280062675476074 13.559385299682617 C3.22760009765625 13.100310325622559 3.008679151535034 12.66117000579834 2.7490787506103516 12.278926849365234 L2.5820093154907227 12.278926849365234"></path>
<path fill="none" stroke="black" stroke-width=".3" stroke-opacity="1.0"  filling="0" d="M20.69457244873047 12.715622901916504 L20.69457244873047 12.715622901916504 C20.36456871032715 13.01401424407959 20.148710250854492 13.63674259185791 19.70456314086914 13.610795974731445 C19.251562118530273 13.584332466125488 19.093536376953125 12.9397611618042 18.788022994995117 12.604244232177734 L19.434661865234375 12.604244232177734 C19.56926727294922 12.803030014038086 20.204906463623047 13.024711608886719 20.128578186035156 12.797096252441406 C19.98429298400879 12.366827011108398 18.703163146972656 11.875106811523438 18.82648468017578 11.285199165344238 C19.27570915222168 9.136358261108398 20.364805221557617 11.01113224029541 20.655975341796875 11.345157623291016 L20.115619659423828 11.345157623291016 C19.998859405517578 11.163252830505371 19.421615600585938 11.000534057617188 19.481801986694336 11.208138465881348 C19.661376953125 11.827555656433105 20.333736419677734 12.181093215942383 20.69457244873047 12.715622901916504 L20.69457244873047 12.715622901916504"></path>
<path fill="none" stroke="black" stroke-width=".3" stroke-opacity="1.0"  filling="0" d="M6.030091762542725 13.559385299682617 L4.308393955230713 13.559385299682617 L4.308393955230713 10.467220306396484 L5.995905876159668 10.467220306396484 L5.995905876159668 10.942646980285645 L4.955167770385742 10.942646980285645 L4.955167770385742 11.704935073852539 L5.914438724517822 11.704935073852539 L5.914438724517822 12.180229187011719 L4.955167770385742 12.180229187011719 L4.955167770385742 13.084091186523438 L6.030091762542725 13.084091186523438 L6.030091762542725 13.559385299682617"></path>
<path fill="none" stroke="black" stroke-width=".3" stroke-opacity="1.0"  filling="0" d="M7.074827671051025 13.559385299682617 L6.445284366607666 13.559385299682617 L6.445284366607666 10.467220306396484 L7.485884189605713 10.467220306396484 L7.978546619415283 12.570056915283203 L8.492436408996582 10.467220306396484 L9.49885082244873 10.467220306396484 L9.49885082244873 13.559385299682617 L8.869307518005371 13.559385299682617 L8.860761642456055 11.173819541931152 L8.265403747558594 13.559385299682617 L7.648680210113525 13.559385299682617 L7.074827671051025 11.173819541931152 L7.074827671051025 13.559385299682617"></path>
<path fill="none" stroke="black" stroke-width=".3" stroke-opacity="1.0"  filling="0" d="M13.060656547546387 13.559385299682617 L12.45675277709961 13.559385299682617 L12.45675277709961 10.467220306396484 L13.330421447753906 10.467220306396484 L14.161356925964355 12.608654975891113 L14.161356925964355 10.467220306396484 L14.765260696411133 10.467220306396484 L14.765260696411133 13.559385299682617 L13.912958145141602 13.559385299682617 L13.060656547546387 11.298013687133789 L13.060656547546387 13.559385299682617"></path>
<path fill="none" stroke="black" stroke-width=".3" stroke-opacity="1.0"  filling="0" d="M15.26963996887207 13.559385299682617 L15.26963996887207 10.467220306396484 L16.348976135253906 10.467220306396484 C17.90628433227539 11.231659889221191 17.61158561706543 12.72403335571289 16.323333740234375 13.559385299682617 L15.26963996887207 13.559385299682617"></path>
<path fill="none" stroke="black" stroke-width=".3" stroke-opacity="1.0"  filling="0" d="M10.976698875427246 13.604873657226562 L10.976698875427246 13.604873657226562 C10.665672302246094 13.439820289611816 10.239107131958008 13.402567863464355 10.043618202209473 13.109712600708008 C9.548606872558594 12.368152618408203 9.75633716583252 10.409875869750977 10.976698875427246 10.409875869750977 C12.197103500366211 10.409875869750977 12.405038833618164 12.368056297302246 11.909899711608887 13.109712600708008 C11.714373588562012 13.402585983276367 11.287765502929688 13.439820289611816 10.976698875427246 13.604873657226562 L10.976698875427246 13.604873657226562"></path></svg>