<svg xmlns="http://www.w3.org/2000/svg" viewBox="0.0 0.0 24.0 24.0" height="200px" width="200px"><path fill="none" stroke="black" stroke-width=".3" stroke-opacity="1.0"  filling="0" d="M1.8113107681274414 1.8114824295043945 L8.603771209716797 1.8114824295043945 L15.396230697631836 1.8114824295043945 L22.188690185546875 1.8114824295043945 L22.188690185546875 8.603828430175781 L22.188690185546875 15.396173477172852 L22.188690185546875 22.188518524169922 L15.396230697631836 22.188518524169922 L8.603771209716797 22.188518524169922 L1.8113107681274414 22.188518524169922 L1.8113107681274414 15.396173477172852 L1.8113107681274414 8.603828430175781 L1.8113107681274414 1.8114824295043945"></path>
<path fill="none" stroke="black" stroke-width=".3" stroke-opacity="1.0"  filling="0" d="M1.9297513961791992 1.929581642150879 L8.643250465393066 1.929581642150879 L15.356749534606934 1.929581642150879 L22.070247650146484 1.929581642150879 L22.070247650146484 8.64307975769043 L22.070247650146484 15.356578826904297 L22.070247650146484 22.07007598876953 L15.356749534606934 22.07007598876953 L8.643250465393066 22.07007598876953 L1.9297513961791992 22.07007598876953 L1.9297513961791992 15.356578826904297 L1.9297513961791992 8.64307975769043 L1.9297513961791992 1.929581642150879"></path>
<path fill="none" stroke="black" stroke-width=".3" stroke-opacity="1.0"  filling="0" d="M2.04819393157959 2.0480222702026367 L8.682845115661621 2.0480222702026367 L15.317497253417969 2.0480222702026367 L21.9521484375 2.0480222702026367 L21.9521484375 8.682787895202637 L21.9521484375 15.317554473876953 L21.9521484375 21.952320098876953 L15.317497253417969 21.952320098876953 L8.682845115661621 21.952320098876953 L2.04819393157959 21.952320098876953 L2.04819393157959 15.317554473876953 L2.04819393157959 8.682787895202637 L2.04819393157959 2.0480222702026367"></path>
<path fill="none" stroke="black" stroke-width=".3" stroke-opacity="1.0"  filling="0" d="M3.2667694091796875 3.3025741577148438 L9.335345268249512 3.3025741577148438 L9.338425636291504 8.484893798828125 C10.441492080688477 6.450740814208984 11.673735618591309 4.832503318786621 13.415748596191406 3.3025741577148438 L20.732749938964844 3.3025741577148438 L20.732749938964844 9.115439414978027 C18.523784637451172 9.630739212036133 16.623750686645508 10.50402545928955 14.971174240112305 11.722661018371582 C13.318596839904785 12.941296577453613 11.913476943969727 14.505280494689941 10.694337844848633 16.401973724365234 L3.2667694091796875 16.401973724365234 L3.2667694091796875 9.852273941040039 L3.2667694091796875 3.3025741577148438"></path>
<path fill="none" stroke="black" stroke-width=".3" stroke-opacity="1.0"  filling="0" d="M12.0894136428833 16.401973724365234 L12.0894136428833 16.401973724365234 C13.268497467041016 14.835458755493164 14.476014137268066 13.565469741821289 15.865435600280762 12.560110092163086 C17.25485610961914 11.554749488830566 18.826183319091797 10.814017295837402 20.732887268066406 10.306014060974121 L20.732887268066406 16.401973724365234 L16.411149978637695 16.401973724365234 L12.0894136428833 16.401973724365234"></path>
<path fill="none" stroke="black" stroke-width=".3" stroke-opacity="1.0"  filling="0" d="M6.096729755401611 18.02753257751465 L7.613189220428467 18.02753257751465 L7.613189220428467 18.329452514648438 L6.536948204040527 18.329452514648438 L6.536948204040527 19.00484275817871 L7.55670690536499 19.00484275817871 L7.55670690536499 19.308475494384766 L6.536948204040527 19.308475494384766 L6.536948204040527 20.069103240966797 L7.642628192901611 20.069103240966797 L7.642628192901611 20.371707916259766 L6.096729755401611 20.371707916259766 L6.096729755401611 18.02753257751465"></path>
<path fill="none" stroke="black" stroke-width=".3" stroke-opacity="1.0"  filling="0" d="M8.779081344604492 18.02753257751465 L9.320967674255371 18.02753257751465 L10.329429626464844 19.752803802490234 L10.329429626464844 18.02753257751465 L10.731992721557617 18.02753257751465 L10.731992721557617 20.371707916259766 L10.240084648132324 20.371707916259766 L9.181644439697266 18.560516357421875 L9.181644439697266 20.371707916259766 L8.779081344604492 20.371707916259766 L8.779081344604492 18.02753257751465"></path>
<path fill="none" stroke="black" stroke-width=".3" stroke-opacity="1.0"  filling="0" d="M15.105250358581543 18.02753257751465 L15.545469284057617 18.02753257751465 L15.545469284057617 20.069103240966797 L16.564542770385742 20.069103240966797 L16.564542770385742 20.371707916259766 L15.105250358581543 20.371707916259766 L15.105250358581543 18.02753257751465"></path>
<path fill="none" stroke="black" stroke-width=".3" stroke-opacity="1.0"  filling="0" d="M18.988170623779297 18.02753257751465 L20.73021697998047 18.02753257751465 L20.73021697998047 18.329452514648438 L20.07878875732422 18.329452514648438 L20.07878875732422 20.371707916259766 L19.639257431030273 20.371707916259766 L19.639257431030273 18.329452514648438 L18.988170623779297 18.329452514648438 L18.988170623779297 18.02753257751465"></path>
<path fill="none" stroke="black" stroke-width=".3" stroke-opacity="1.0"  filling="0" d="M17.585567474365234 18.027667999267578 L18.02544403076172 18.027667999267578 L18.02544403076172 20.371849060058594 L17.585567474365234 20.371849060058594 L17.585567474365234 18.027667999267578"></path>
<path fill="none" stroke="black" stroke-width=".3" stroke-opacity="1.0"  filling="0" d="M3.266632080078125 18.02780532836914 L4.053616523742676 18.02780532836914 C4.332033157348633 18.232738494873047 4.796788215637207 18.309385299682617 4.888866901397705 18.64260482788086 C4.95529317855835 18.88298988342285 4.545181751251221 19.00408935546875 4.3733391761779785 19.184831619262695 L4.3733391761779785 19.19304656982422 C4.527495384216309 19.36625862121582 4.681652069091797 19.539472579956055 4.835808277130127 19.712684631347656 L4.99361515045166 20.371639251708984 L4.546209335327148 20.371639251708984 L4.426056385040283 19.8653564453125 C4.2441725730896 19.698762893676758 4.062288284301758 19.532169342041016 3.880404472351074 19.365575790405273 L3.7071924209594727 20.371639251708984 L3.266632080078125 20.371639251708984 L3.266632080078125 18.02780532836914"></path>
<path fill="none" stroke="black" stroke-width=".3" stroke-opacity="1.0"  filling="0" d="M3.7071924209594727 18.308504104614258 L4.053616523742676 18.308504104614258 C4.243451118469238 18.493144989013672 4.096376895904541 18.930601119995117 3.880404472351074 19.083850860595703 L3.7071924209594727 18.308504104614258"></path>
<path fill="none" stroke="black" stroke-width=".3" stroke-opacity="1.0"  filling="0" d="M12.344300270080566 19.19934844970703 L12.344300270080566 19.19934844970703 C12.53211784362793 18.889894485473633 12.545761108398438 18.270984649658203 12.90775203704834 18.270984649658203 C13.5264310836792 18.270984649658203 13.5264310836792 20.12702178955078 12.90775203704834 20.12702178955078 C12.545957565307617 20.12702178955078 12.53211784362793 19.508573532104492 12.344300270080566 19.19934844970703 L12.344300270080566 19.19934844970703"></path>
<path fill="none" stroke="black" stroke-width=".3" stroke-opacity="1.0"  filling="0" d="M12.90775203704834 20.408748626708984 L12.90775203704834 20.408748626708984 C12.558134078979492 20.005615234375 11.85889720916748 19.732967376708984 11.85889720916748 19.19934844970703 C11.85889720916748 17.213193893432617 13.958319664001465 17.95703125 13.958319664001465 19.19934844970703 C13.958319664001465 19.733341217041016 13.257941246032715 20.005615234375 12.90775203704834 20.408748626708984 L12.90775203704834 20.408748626708984"></path>
<path fill="none" stroke="black" stroke-width=".3" stroke-opacity="1.0"  filling="0" d="M22.070247650146484 21.952320098876953 L22.070247650146484 21.952320098876953"></path></svg>