<svg xmlns="http://www.w3.org/2000/svg" viewBox="0.0 0.0 24.0 24.0" height="200px" width="200px"><path fill="none" stroke="black" stroke-width=".3" stroke-opacity="1.0"  filling="0" d="M116.4609603881836 23.832670211791992 L116.4609603881836 23.832670211791992 C118.85607147216797 23.882543563842773 121.09131622314453 24.135303497314453 123.2207260131836 25.342689514160156 C124.99655151367188 26.349590301513672 126.45234680175781 27.79151725769043 127.59183502197266 29.510822296142578 C128.73133850097656 31.230125427246094 129.55453491210938 33.226806640625 130.06515502929688 35.34321212768555 C130.57577514648438 37.459617614746094 130.77383422851562 39.69575119018555 130.66305541992188 41.893959045410156 C130.55227661132812 44.09217071533203 130.13262939453125 46.2524528503418 129.40789794921875 48.2171630859375 C128.6831512451172 50.1818733215332 127.65328979492188 51.951011657714844 126.3220443725586 53.366920471191406 C125.06903076171875 54.69962692260742 123.59197998046875 55.62411880493164 121.98114013671875 56.21897506713867 C120.37029266357422 56.81383514404297 118.62565612792969 57.07905578613281 116.83744812011719 57.09322738647461 C114.06793212890625 57.11517333984375 111.70838928222656 56.33378601074219 109.76707458496094 54.99774932861328 C107.82575988769531 53.661712646484375 106.30268096923828 51.771026611328125 105.20608520507812 49.57438278198242 C104.10948944091797 47.37773895263672 103.43937683105469 44.87512969970703 103.20401000976562 42.315250396728516 C102.96864318847656 39.75537109375 103.16802215576172 37.13821792602539 103.81039428710938 34.71247482299805 C104.45277404785156 32.2867317199707 105.53814697265625 30.05240249633789 107.07476806640625 28.258174896240234 C108.31019592285156 26.815643310546875 109.73728942871094 25.800830841064453 111.31524658203125 25.100868225097656 C112.89321899414062 24.40090560913086 114.62205505371094 24.015796661376953 116.4609603881836 23.832670211791992 L116.4609603881836 23.832670211791992"></path>
<path fill="none" stroke="black" stroke-width=".3" stroke-opacity="1.0"  filling="0" d="M94.03266906738281 24.61792755126953 L94.02191162109375 30.955936431884766 L94.01116180419922 37.2939453125 L94.00040435791016 43.631954193115234 L93.9896469116211 49.9699592590332 L93.97888946533203 56.30796813964844 L90.12789154052734 56.30796813964844 L87.9334716796875 50.741233825683594 L85.73904418945312 45.17449951171875 C84.87305450439453 42.975345611572266 84.0068359375 40.776268005371094 83.1400375366211 38.577430725097656 C82.25007629394531 36.31983947753906 81.38373565673828 34.05095291137695 80.46812438964844 31.8035831451416 C80.17196655273438 31.07666778564453 80.15160369873047 30.10543441772461 79.51075744628906 29.652191162109375 C79.19483184814453 29.428749084472656 79.21927642822266 30.369129180908203 79.07594299316406 30.728561401367188 C78.91133117675781 31.14134407043457 78.74723052978516 31.554330825805664 78.58328247070312 31.967378616333008 C77.80841827392578 33.9195556640625 77.03685760498047 35.873050689697266 76.2660140991211 37.82681655883789 C75.44121551513672 39.917327880859375 74.6187973022461 42.00877380371094 73.79493713378906 44.099647521972656 C72.97108459472656 46.19052505493164 72.14578247070312 48.28083038330078 71.31523132324219 50.36906814575195 C70.67317962646484 51.98336410522461 70.0305404663086 53.597557067871094 69.37651824951172 55.20705795288086 C69.22974395751953 55.568267822265625 69.31036376953125 56.22157669067383 68.9259033203125 56.28645324707031 C68.27852630615234 56.395694732666016 67.6135482788086 56.3294792175293 66.9573745727539 56.35099411010742 L65.0964126586914 56.340240478515625 L65.0964126586914 49.997928619384766 L65.0964126586914 43.65562057495117 L65.0964126586914 37.31330871582031 L65.0964126586914 30.970996856689453 L65.0964126586914 24.628684997558594 L68.10836791992188 24.628684997558594 L68.1137466430664 31.314144134521484 L68.11912536621094 37.999603271484375 C68.12024688720703 39.44070053100586 68.12113952636719 40.881797790527344 68.12406158447266 42.3228874206543 C68.12698364257812 43.76397705078125 68.13192749023438 45.20506286621094 68.1411361694336 46.64613723754883 C68.14716339111328 47.58878707885742 68.15841674804688 49.03304672241211 68.17713928222656 50.025146484375 C68.18418884277344 50.39860534667969 68.00350952148438 51.44414138793945 68.22669219970703 51.144622802734375 C69.17973327636719 49.86560821533203 69.54747772216797 47.70537567138672 70.11783599853516 46.218074798583984 C70.89710998535156 44.18599319458008 71.67381286621094 42.152923583984375 72.4498291015625 40.119590759277344 C73.22584533691406 38.08625411987305 74.00116729736328 36.05265808105469 74.77769470214844 34.01952362060547 L76.57411193847656 29.32410430908203 L78.37052154541016 24.628684997558594 L80.74781036376953 24.628684997558594 L83.27569580078125 31.244224548339844 L85.8035888671875 37.859764099121094 C86.64366149902344 40.058494567871094 87.46681213378906 42.26634979248047 88.30302429199219 44.46910095214844 C89.13924407958984 46.671852111816406 89.988525390625 48.86949920654297 90.8808822631836 51.04780960083008 L90.8808822631836 51.04780960083008 C90.93800354003906 48.84990692138672 90.95077514648438 46.649417877197266 90.95094299316406 44.44879913330078 C90.95111083984375 42.2481803894043 90.93869018554688 40.04743194580078 90.94541931152344 37.849002838134766 L90.9561767578125 31.265735626220703 L90.96692657470703 24.68246841430664 L94.03266906738281 24.61792755126953"></path>
<path fill="none" stroke="black" stroke-width=".3" stroke-opacity="1.0"  filling="0" d="M164.44781494140625 24.61792755126953 L165.98606872558594 29.827890396118164 L167.52430725097656 35.03784942626953 L169.0625457763672 40.24781036376953 C169.58119201660156 42.01145935058594 170.10369873046875 43.77415466308594 170.62582397460938 45.53701400756836 C171.14794921875 47.29987335205078 171.6697235107422 49.062896728515625 172.1868896484375 50.827205657958984 C172.70404052734375 52.59151077270508 173.21661376953125 54.35710144042969 173.72032165527344 56.125099182128906 L173.7633514404297 56.361751556396484 L172.20358276367188 56.361751556396484 C171.65139770507812 56.3187255859375 171.07997131347656 56.383399963378906 170.54701232910156 56.232669830322266 C170.0875701904297 56.10273361206055 170.2704315185547 55.31865310668945 170.13824462890625 54.85985565185547 C169.8364715576172 53.81238555908203 169.40841674804688 52.302825927734375 169.1235809326172 51.29600524902344 C168.47781372070312 49.013370513916016 167.83705139160156 46.729339599609375 167.1975555419922 44.44495391845703 C166.55807495117188 42.16056442260742 165.91986083984375 39.875816345214844 165.27920532226562 37.59174728393555 C164.72381591796875 35.61170196533203 164.1678924560547 33.63175964355469 163.6034698486328 31.654273986816406 C163.47520446777344 31.204877853393555 163.66781616210938 30.405941009521484 163.2107696533203 30.308364868164062 C162.78546142578125 30.217565536499023 162.93350219726562 31.132875442504883 162.8061981201172 31.548709869384766 C162.22293090820312 33.45387649536133 161.66319274902344 35.3664665222168 161.10279846191406 37.278446197509766 C160.4981689453125 39.34130096435547 159.8968505859375 41.405120849609375 159.29705810546875 43.46938705444336 C158.697265625 45.533653259277344 158.0989990234375 47.598365783691406 157.50047302246094 49.663002014160156 C156.90194702148438 51.727638244628906 156.30319213867188 53.792205810546875 155.702392578125 55.85617446899414 L155.55178833007812 56.361751556396484 L154.5513916015625 56.361751556396484 C154.17848205566406 56.3187255859375 153.79112243652344 56.34409713745117 153.4326629638672 56.232669830322266 C152.7934112548828 56.033966064453125 153.03431701660156 54.95443344116211 152.84298706054688 54.31293869018555 C152.35589599609375 52.679786682128906 151.87564086914062 51.044620513916016 151.3961181640625 49.409244537353516 C150.81069946289062 47.412723541259766 150.22755432128906 45.41553497314453 149.64620971679688 43.41781997680664 C149.06484985351562 41.42010498046875 148.48532104492188 39.42186737060547 147.90713500976562 37.42324447631836 C147.2450408935547 35.134525299072266 146.81675720214844 32.45977020263672 145.76295471191406 30.308364868164062 C145.70799255371094 30.196163177490234 145.68621826171875 30.546192169189453 145.6507110595703 30.665979385375977 C145.55374145507812 30.993175506591797 145.4596710205078 31.321231842041016 145.36553955078125 31.649255752563477 C145.21925354003906 32.15896224975586 145.07423400878906 32.66902542114258 144.92945861816406 33.179161071777344 C144.54852294921875 34.52143096923828 144.06375122070312 36.24250793457031 143.69261169433594 37.562740325927734 C143.0526580810547 39.83917999267578 142.41571044921875 42.116455078125 141.7779998779297 44.393516540527344 C141.14028930664062 46.67058181762695 140.5018310546875 48.94743347167969 139.85887145996094 51.223026275634766 C139.56687927246094 52.256431579589844 139.15223693847656 53.72019577026367 138.84596252441406 54.78819274902344 C138.71278381347656 55.25262451171875 138.8974151611328 56.03102111816406 138.43743896484375 56.17888259887695 C137.77069091796875 56.393211364746094 135.92764282226562 56.428184509277344 135.23187255859375 56.24342346191406 C134.88906860351562 56.15239334106445 135.42189025878906 55.55997085571289 135.5201416015625 55.21916580200195 C135.7538299560547 54.40856170654297 136.08726501464844 53.264747619628906 136.31411743164062 52.48760223388672 C136.75894165039062 50.96370315551758 137.205078125 49.44017791748047 137.65194702148438 47.916873931884766 C138.09881591796875 46.39356994628906 138.54641723632812 44.8704833984375 138.99423217773438 43.34745407104492 C139.4757537841797 41.70974349975586 139.95741271972656 40.07207107543945 140.43902587890625 38.43437957763672 C140.92062377929688 36.79669189453125 141.40216064453125 35.15898132324219 141.88345336914062 33.52119827270508 C142.36474609375 31.8834171295166 142.84576416015625 30.245559692382812 143.32635498046875 28.60757064819336 C143.90028381347656 26.65143394470215 143.65182495117188 24.90924072265625 145.74142456054688 24.65019989013672 L146.97848510742188 24.68246841430664 L148.84481811523438 31.018327713012695 L150.71115112304688 37.35418701171875 C151.19525146484375 38.99979019165039 151.67922973632812 40.64543533325195 152.16514587402344 42.290504455566406 C152.6510467529297 43.935577392578125 153.13890075683594 45.58007049560547 153.63076782226562 47.2233772277832 C153.78041076660156 47.723304748535156 153.93038940429688 48.22312927246094 154.0817108154297 48.72254943847656 C154.21263122558594 49.15468215942383 154.03530883789062 50.015201568603516 154.48684692382812 50.015140533447266 C154.93846130371094 50.015079498291016 154.76107788085938 49.154518127441406 154.89198303222656 48.72229766845703 C155.04330444335938 48.222679138183594 155.1933135986328 47.722660064697266 155.34292602539062 47.222530364990234 C155.83502197265625 45.57763671875 156.3229522705078 43.93151092529297 156.80885314941406 42.284786224365234 C157.2947540283203 40.6380615234375 157.7786102294922 38.99073028564453 158.26254272460938 37.34342575073242 L160.12350463867188 31.01294708251953 L161.98446655273438 24.68246841430664 L164.44781494140625 24.61792755126953"></path>
<path fill="none" stroke="black" stroke-width=".3" stroke-opacity="1.0"  filling="0" d="M15.614341735839844 24.628684997558594 L18.626293182373047 24.628684997558594 L18.626293182373047 31.620716094970703 L18.626293182373047 38.61274719238281 L26.10239028930664 38.60198974609375 L28.404380798339844 35.36414337158203 L30.70637321472168 32.12629318237305 C31.531845092773438 30.963306427001953 32.3582649230957 29.80097198486328 33.18363571166992 28.637893676757812 C34.009002685546875 27.474815368652344 34.83332061767578 26.310993194580078 35.654579162597656 25.145021438598633 L35.998802185058594 24.639442443847656 L37.91354751586914 24.628684997558594 C38.523109436035156 24.67171287536621 39.2669563293457 24.373674392700195 39.74222946166992 24.757770538330078 C40.014713287353516 24.97797966003418 39.338443756103516 25.330427169799805 39.13311767578125 25.61429214477539 C38.68225860595703 26.23760986328125 38.22814178466797 26.85856819152832 37.773704528808594 27.47928237915039 C36.838226318359375 28.757049560546875 35.9007453918457 30.03333282470703 34.96411895751953 31.31024742126465 C34.027496337890625 32.587158203125 33.091732025146484 33.86470031738281 32.15969467163086 35.144989013671875 C31.6401309967041 35.858680725097656 30.833385467529297 36.969051361083984 30.28929901123047 37.73369216918945 C30.0888671875 38.01537322998047 29.467100143432617 38.34132766723633 29.705976486206055 38.59123611450195 C30.20113182067871 39.1092643737793 31.129892349243164 38.763389587402344 31.834007263183594 38.89663314819336 C33.88706588745117 39.28514099121094 35.925514221191406 40.20321273803711 37.239044189453125 41.88590621948242 C38.31231689453125 43.26082229614258 38.84770965576172 45.008304595947266 38.92430114746094 46.73506164550781 C38.97972869873047 47.984710693359375 38.799713134765625 49.31144714355469 38.408363342285156 50.499202728271484 C37.67091369628906 52.73737335205078 36.32945251464844 54.123592376708984 34.66169357299805 54.97968673706055 C32.993934631347656 55.835784912109375 30.9998836517334 56.16175842285156 28.95725440979004 56.27944564819336 C26.91462516784668 56.397132873535156 24.82341766357422 56.30653381347656 22.961353302001953 56.32948303222656 L15.614341735839844 56.39402389526367 L15.614341735839844 50.04095458984375 L15.614341735839844 43.687889099121094 L15.614341735839844 37.33481979370117 L15.614341735839844 30.981752395629883 L15.614341735839844 24.628684997558594"></path>
<path fill="none" stroke="black" stroke-width=".3" stroke-opacity="1.0"  filling="0" d="M49.92908477783203 24.628684997558594 L52.941036224365234 24.628684997558594 L52.941036224365234 30.97745132446289 L52.9410400390625 37.32621765136719 L52.9410400390625 43.674983978271484 L52.941036224365234 50.023746490478516 L52.941036224365234 56.37251281738281 L49.92908477783203 56.340240478515625 L49.92908477783203 49.997928619384766 L49.92908477783203 43.65562057495117 L49.92908477783203 37.31330871582031 L49.92908477783203 30.970996856689453 L49.92908477783203 24.628684997558594"></path>
<path fill="none" stroke="black" stroke-width=".3" stroke-opacity="1.0"  filling="0" d="M174.4087677001953 24.628684997558594 L177.80796813964844 24.628684997558594 L178.13067626953125 25.45697021484375 C178.7288360595703 27.056427001953125 179.32815551757812 28.655410766601562 179.92709350585938 30.254579544067383 L181.4115447998047 34.202392578125 L188.61334228515625 34.175498962402344 L195.8151397705078 34.14860534667969 L197.60079956054688 29.38864517211914 L199.38645935058594 24.628684997558594 L202.78565979003906 24.628684997558594 L202.58126831054688 25.134262084960938 C201.78192138671875 27.137096405029297 200.97596740722656 29.1374568939209 200.1656036376953 31.136144638061523 C199.35523986816406 33.13483428955078 198.54049682617188 35.1318473815918 197.72357177734375 37.12799072265625 C196.90664672851562 39.12413787841797 196.0875701904297 41.119407653808594 195.2685546875 43.11460876464844 C194.4495391845703 45.10980987548828 193.63058471679688 47.104942321777344 192.81394958496094 49.100799560546875 C192.02191162109375 51.036529541015625 191.54827880859375 52.1982421875 190.76608276367188 54.08262252807617 C190.46771240234375 54.80142593383789 190.55873107910156 55.89867401123047 189.85577392578125 56.232669830322266 C189.46841430664062 56.41671371459961 189.00445556640625 56.37079620361328 188.57569885253906 56.361751556396484 C186.80963134765625 56.32448959350586 186.911865234375 55.255699157714844 186.30296325683594 53.769195556640625 C185.54864501953125 51.92767333984375 184.79718017578125 50.08494186401367 184.04544067382812 48.24235916137695 C183.30955505371094 46.438621520996094 182.57412719726562 44.63469696044922 181.8388214111328 42.83072280883789 C181.103515625 41.0267448425293 180.36834716796875 39.22271728515625 179.63296508789062 37.41877365112305 C178.8975830078125 35.614830017089844 178.1619873046875 33.81096649169922 177.42587280273438 32.007328033447266 C176.6897430419922 30.203689575195312 175.95306396484375 28.400272369384766 175.2155303955078 26.597209930419922 L174.4087677001953 24.628684997558594"></path>
<path fill="none" stroke="black" stroke-width=".3" stroke-opacity="1.0"  filling="0" d="M114.91195678710938 26.715538024902344 L114.91195678710938 26.715538024902344 C116.46784210205078 26.5707950592041 118.0814437866211 26.439619064331055 119.61275482177734 26.87689208984375 C121.87712860107422 27.523496627807617 123.55477142333984 28.931617736816406 124.75569915771484 30.744287490844727 C125.95661926269531 32.55695724487305 126.68082427978516 34.77417755126953 127.03832244873047 37.038970947265625 C127.39582061767578 39.303768157958984 127.38661193847656 41.61614227294922 127.12071228027344 43.61912536621094 C126.82147216796875 45.87330627441406 126.09566497802734 48.251441955566406 124.83680725097656 50.200870513916016 C123.57795715332031 52.150299072265625 121.78604125976562 53.671016693115234 119.35457611083984 54.210357666015625 C117.39073181152344 54.645973205566406 115.5625 54.51859664916992 113.94047546386719 53.950599670410156 C112.31845092773438 53.38260269165039 110.90264129638672 52.373985290527344 109.76363372802734 51.0471076965332 C108.62461853027344 49.72023010253906 107.76242065429688 48.075096130371094 107.24761199951172 46.234066009521484 C106.73872375488281 44.41420364379883 106.45531463623047 42.43232727050781 106.44344329833984 40.44619369506836 C106.43157196044922 38.46006393432617 106.69124603271484 36.46967315673828 107.26852416992188 34.632789611816406 C107.84579467773438 32.795902252197266 108.74067687988281 31.112516403198242 109.99922943115234 29.740388870239258 C111.25778198242188 28.36825942993164 112.8800048828125 27.307392120361328 114.91195678710938 26.715538024902344 L114.91195678710938 26.715538024902344"></path>
<path fill="none" stroke="black" stroke-width=".3" stroke-opacity="1.0"  filling="0" d="M188.65098571777344 36.67649459838867 L188.65098571777344 36.67649459838867 C189.6442108154297 36.67666244506836 190.637451171875 36.67283630371094 191.63067626953125 36.676998138427734 C192.2420654296875 36.67955780029297 192.85350036621094 36.683021545410156 193.46473693847656 36.69666290283203 C193.85537719726562 36.705379486083984 194.57064819335938 36.4196662902832 194.6318817138672 36.80557632446289 C194.72518920898438 37.393699645996094 193.52700805664062 39.709327697753906 193.38259887695312 40.08713912963867 C192.9356689453125 41.25639343261719 192.4891357421875 42.42578887939453 192.0410919189453 43.59459686279297 C191.59304809570312 44.763404846191406 191.14346313476562 45.9316291809082 190.6904296875 47.098533630371094 C190.25674438476562 48.21560287475586 189.66140747070312 49.74266815185547 189.20803833007812 50.88739776611328 C189.00990295410156 51.387691497802734 189.10430908203125 52.561683654785156 188.5972137451172 52.38167190551758 C188.2038116455078 52.24201965332031 187.0297088623047 48.438472747802734 186.98805236816406 48.33107376098633 C186.36822509765625 46.73297119140625 185.75067138671875 45.1339111328125 185.13723754882812 43.53326416015625 C184.52381896972656 41.9326171875 183.91455078125 40.33038330078125 183.31130981445312 38.72593688964844 C183.06214904785156 38.06321716308594 182.25384521484375 37.3565673828125 182.5840606689453 36.73027801513672 C182.86383056640625 36.19967269897461 183.78334045410156 36.69646072387695 184.38316345214844 36.6912841796875 C185.94952392578125 36.67776870727539 187.0533905029297 36.67913055419922 188.65098571777344 36.67649459838867 L188.65098571777344 36.67649459838867"></path>
<path fill="none" stroke="black" stroke-width=".3" stroke-opacity="1.0"  filling="0" d="M18.626293182373047 41.280479431152344 L24.467329025268555 41.334266662597656 C25.68134880065918 41.34784698486328 27.214529037475586 41.2164192199707 28.730453491210938 41.24412536621094 C30.24637794494629 41.271827697753906 31.745046615600586 41.45866394042969 32.890045166015625 42.1087646484375 C34.773902893066406 43.178367614746094 35.84341049194336 45.23135757446289 35.951045989990234 47.310302734375 C36.05868148803711 49.38924789428711 35.204444885253906 51.49414825439453 33.240814208984375 52.667572021484375 C32.058162689208984 53.374298095703125 30.612777709960938 53.5858039855957 29.142845153808594 53.62301254272461 C27.672916412353516 53.66021728515625 26.17844009399414 53.523128509521484 24.89760971069336 53.53266906738281 L18.626293182373047 53.57569885253906 L18.626293182373047 47.4280891418457 L18.626293182373047 41.280479431152344"></path></svg>