<svg xmlns="http://www.w3.org/2000/svg" viewBox="0.0 0.0 24.0 24.0" height="200px" width="200px"><path fill="none" stroke="black" stroke-width=".3" stroke-opacity="1.0"  filling="0" d="M21.366233825683594 10.830545425415039 L21.366233825683594 10.830545425415039 C21.828649520874023 10.970928192138672 22.06703758239746 11.238096237182617 21.599063873291016 11.582649230957031 L21.599063873291016 11.582649230957031 C21.797016143798828 11.77536392211914 21.89735984802246 12.0504789352417 22.00737762451172 12.303895950317383 L22.00737762451172 12.303895950317383 C21.861818313598633 12.303895950317383 21.71626091003418 12.303895950317383 21.570701599121094 12.303895950317383 L21.570701599121094 12.303895950317383 C21.472705841064453 12.070684432983398 21.315969467163086 11.793120384216309 21.07012939453125 11.73350715637207 L21.07012939453125 11.73350715637207 C21.07012939453125 11.923636436462402 21.07012939453125 12.11376667022705 21.07012939453125 12.303895950317383 L21.07012939453125 12.303895950317383 C20.9350643157959 12.303895950317383 20.799999237060547 12.303895950317383 20.664934158325195 12.303895950317383 L20.664934158325195 12.303895950317383 C20.664934158325195 11.812987327575684 20.664934158325195 11.322077751159668 20.664934158325195 10.831169128417969 L20.664934158325195 10.831169128417969 C20.898700714111328 10.830961227416992 21.13246726989746 10.830753326416016 21.366233825683594 10.830545425415039 L21.366233825683594 10.830545425415039"></path>
<path fill="none" stroke="black" stroke-width=".3" stroke-opacity="1.0"  filling="0" d="M5.0948567390441895 10.830857276916504 L5.0948567390441895 10.830857276916504 C5.594777584075928 10.998611450195312 5.770114898681641 11.200921058654785 5.3230133056640625 11.582337379455566 L5.3230133056640625 11.582337379455566 C5.518116474151611 11.776701927185059 5.618835926055908 12.049592018127441 5.728208065032959 12.302337646484375 L5.71729850769043 12.303895950317383 C5.575688362121582 12.303895950317383 5.434078216552734 12.303895950317383 5.292468070983887 12.303895950317383 L5.292468070983887 12.303895950317383 C5.195375919342041 12.070466041564941 5.037507057189941 11.795012474060059 4.792207717895508 11.733818054199219 L4.792207717895508 11.733818054199219 C4.792207717895508 11.923844337463379 4.792207717895508 12.113869667053223 4.792207717895508 12.303895950317383 L4.792207717895508 12.303895950317383 C4.659740447998047 12.303895950317383 4.527272701263428 12.303895950317383 4.394805431365967 12.303895950317383 L4.394805431365967 12.303895950317383 C4.394805431365967 11.812987327575684 4.394805431365967 11.322077751159668 4.394805431365967 10.831169128417969 L4.394805431365967 10.831169128417969 C4.628155708312988 10.83106517791748 4.861506462097168 10.830961227416992 5.0948567390441895 10.830857276916504 L5.0948567390441895 10.830857276916504"></path>
<path fill="none" stroke="black" stroke-width=".3" stroke-opacity="1.0"  filling="0" d="M14.104207992553711 10.830857276916504 L14.104207992553711 10.830857276916504 C14.528130531311035 10.951977729797363 14.786391258239746 11.19345474243164 14.373818397521973 11.548051834106445 L14.373818397521973 11.548051834106445 C15.252874374389648 12.210198402404785 13.820308685302734 12.304072380065918 13.449350357055664 12.303895950317383 L13.449350357055664 12.303895950317383 C13.449350357055664 11.812987327575684 13.449350357055664 11.322077751159668 13.449350357055664 10.831169128417969 L13.449350357055664 10.831169128417969 C13.667635917663574 10.83106517791748 13.8859224319458 10.830961227416992 14.104207992553711 10.830857276916504 L14.104207992553711 10.830857276916504"></path>
<path fill="none" stroke="black" stroke-width=".3" stroke-opacity="1.0"  filling="0" d="M17.0041561126709 10.830857276916504 L17.0041561126709 10.830857276916504 C17.436004638671875 10.972089767456055 17.6935977935791 11.262099266052246 17.2198429107666 11.57984447479248 L17.2198429107666 11.57984447479248 C17.40711212158203 11.783424377441406 17.516216278076172 12.049766540527344 17.62472915649414 12.304207801818848 L17.62472915649414 12.304207801818848 C17.47937774658203 12.303999900817871 17.334026336669922 12.303791999816895 17.188674926757812 12.303584098815918 L17.188674926757812 12.303584098815918 C17.091819763183594 12.068875312805176 16.92911148071289 11.796711921691895 16.683116912841797 11.733818054199219 L16.683116912841797 11.733818054199219 C16.683116912841797 11.923844337463379 16.683116912841797 12.113869667053223 16.683116912841797 12.303895950317383 L16.683116912841797 12.303895950317383 C16.550649642944336 12.303895950317383 16.418182373046875 12.303895950317383 16.285715103149414 12.303895950317383 L16.285715103149414 12.303895950317383 C16.285715103149414 11.812987327575684 16.285715103149414 11.322077751159668 16.285715103149414 10.831169128417969 L16.285715103149414 10.831169128417969 C16.525196075439453 10.83106517791748 16.76467514038086 10.830961227416992 17.0041561126709 10.830857276916504 L17.0041561126709 10.830857276916504"></path>
<path fill="none" stroke="black" stroke-width=".3" stroke-opacity="1.0"  filling="0" d="M2.421506881713867 10.831169128417969 L2.421506881713867 10.831169128417969 C3.1863226890563965 12.678312301635742 3.8309240341186523 13.031695365905762 5.71729850769043 12.303895950317383 L5.728208065032959 12.302337646484375 C5.78649377822876 12.437090873718262 5.8447794914245605 12.571844100952148 5.903065204620361 12.706597328186035 L5.903065204620361 12.706597328186035 C3.883469581604004 13.508503913879395 2.4697999954223633 12.952422142028809 2.0013504028320312 10.831480026245117 L2.0013504028320312 10.831480026245117 C2.14140248298645 10.831376075744629 2.2814548015594482 10.831273078918457 2.421506881713867 10.831169128417969 L2.421506881713867 10.831169128417969"></path>
<path fill="none" stroke="black" stroke-width=".3" stroke-opacity="1.0"  filling="0" d="M7.379220962524414 10.831169128417969 L7.379220962524414 10.831169128417969 C7.774026393890381 10.831169128417969 8.168831825256348 10.831169128417969 8.563636779785156 10.831169128417969 L8.563636779785156 10.831169128417969 C8.563532829284668 10.945454597473145 8.56342887878418 11.05974006652832 8.563324928283691 11.174025535583496 L8.563324928283691 11.174025535583496 C8.433558464050293 11.174025535583496 8.303792953491211 11.174025535583496 8.174026489257812 11.174025535583496 L8.174026489257812 11.174025535583496 C8.174026489257812 11.55064868927002 8.174026489257812 11.92727279663086 8.174026489257812 12.303895950317383 L8.174026489257812 12.303895950317383 C8.041559219360352 12.303895950317383 7.909090995788574 12.303895950317383 7.776623249053955 12.303895950317383 L7.776623249053955 12.303895950317383 C7.776623249053955 11.92727279663086 7.776623249053955 11.55064868927002 7.776623249053955 11.174025535583496 L7.776623249053955 11.174025535583496 C7.644155979156494 11.174025535583496 7.511688232421875 11.174025535583496 7.379220962524414 11.174025535583496 L7.379220962524414 11.174025535583496 C7.379220962524414 11.05974006652832 7.379220962524414 10.945454597473145 7.379220962524414 10.831169128417969 L7.379220962524414 10.831169128417969"></path>
<path fill="none" stroke="black" stroke-width=".3" stroke-opacity="1.0"  filling="0" d="M8.812987327575684 10.831169128417969 L8.812987327575684 10.831169128417969 C8.945454597473145 10.831169128417969 9.077921867370605 10.831169128417969 9.210389137268066 10.831169128417969 L9.210389137268066 10.831169128417969 C9.210389137268066 11.02337646484375 9.210389137268066 11.215584754943848 9.210389137268066 11.407792091369629 L9.210389137268066 11.407792091369629 C9.361039161682129 11.407792091369629 9.511688232421875 11.407792091369629 9.662338256835938 11.407792091369629 L9.662338256835938 11.407792091369629 C9.66223430633545 11.215584754943848 9.662129402160645 11.02337646484375 9.662025451660156 10.831169128417969 L9.662025451660156 10.831169128417969 C9.794597625732422 10.831169128417969 9.927168846130371 10.831169128417969 10.059741020202637 10.831169128417969 L10.059741020202637 10.831169128417969 C10.059741020202637 11.322077751159668 10.059741020202637 11.812987327575684 10.059741020202637 12.303895950317383 L10.059741020202637 12.303895950317383 C9.927273750305176 12.303895950317383 9.794805526733398 12.303895950317383 9.662338256835938 12.303895950317383 L9.662338256835938 12.303895950317383 C9.66223430633545 12.101298332214355 9.662129402160645 11.898701667785645 9.662025451660156 11.696104049682617 L9.662025451660156 11.696104049682617 C9.511480331420898 11.696104049682617 9.360934257507324 11.696104049682617 9.210389137268066 11.696104049682617 L9.210389137268066 11.696104049682617 C9.210389137268066 11.898701667785645 9.210389137268066 12.101298332214355 9.210389137268066 12.303895950317383 L9.210389137268066 12.303895950317383 C9.077921867370605 12.303895950317383 8.945454597473145 12.303895950317383 8.812987327575684 12.303895950317383 L8.812987327575684 12.303895950317383 C8.812987327575684 11.812987327575684 8.812987327575684 11.322077751159668 8.812987327575684 10.831169128417969 L8.812987327575684 10.831169128417969"></path>
<path fill="none" stroke="black" stroke-width=".3" stroke-opacity="1.0"  filling="0" d="M10.41038990020752 10.831169128417969 L10.41038990020752 10.831169128417969 C10.755844116210938 10.831169128417969 11.101299285888672 10.831169128417969 11.44675350189209 10.831169128417969 L11.44675350189209 10.831169128417969 C11.44675350189209 10.92727279663086 11.44675350189209 11.02337646484375 11.44675350189209 11.11948013305664 L11.44675350189209 11.11948013305664 C11.233766555786133 11.11948013305664 11.02077865600586 11.11948013305664 10.807791709899902 11.11948013305664 L10.807791709899902 11.11948013305664 C10.807791709899902 11.215583801269531 10.807791709899902 11.311688423156738 10.807791709899902 11.407792091369629 L10.807791709899902 11.407792091369629 C11.007791519165039 11.407792091369629 11.207792282104492 11.407792091369629 11.407792091369629 11.407792091369629 L11.407792091369629 11.407792091369629 C11.407792091369629 11.50389575958252 11.407792091369629 11.600000381469727 11.407792091369629 11.696104049682617 L11.407792091369629 11.696104049682617 C11.207792282104492 11.696208000183105 11.007791519165039 11.696310997009277 10.807791709899902 11.696414947509766 L10.807791709899902 11.696414947509766 C10.807791709899902 11.805298805236816 10.807791709899902 11.91418170928955 10.807791709899902 12.023065567016602 L10.807791709899902 12.023065567016602 C11.028571128845215 12.02316951751709 11.249350547790527 12.023272514343262 11.47012996673584 12.02337646484375 L11.47012996673584 12.02337646484375 C11.470233917236328 12.116883277893066 11.470337867736816 12.210389137268066 11.470441818237305 12.303895950317383 L11.470441818237305 12.303895950317383 C11.117091178894043 12.303895950317383 10.763740539550781 12.303895950317383 10.41038990020752 12.303895950317383 L10.41038990020752 12.303895950317383 C10.41038990020752 11.812987327575684 10.41038990020752 11.322077751159668 10.41038990020752 10.831169128417969 L10.41038990020752 10.831169128417969"></path>
<path fill="none" stroke="black" stroke-width=".3" stroke-opacity="1.0"  filling="0" d="M11.774025917053223 10.831169128417969 L11.774025917053223 10.831169128417969 C11.936311721801758 10.831169128417969 12.098597526550293 10.831169128417969 12.260883331298828 10.831169128417969 L12.260883331298828 10.831169128417969 C12.421091079711914 11.159065246582031 12.581298828125 11.486961364746094 12.741506576538086 11.814857482910156 L12.741506576538086 11.814857482910156 C12.738492965698242 11.486961364746094 12.735480308532715 11.159065246582031 12.732466697692871 10.831169128417969 L12.732466697692871 10.831169128417969 C12.849349975585938 10.831169128417969 12.96623420715332 10.831169128417969 13.083117485046387 10.831169128417969 L13.083117485046387 10.831169128417969 C13.083117485046387 11.322077751159668 13.083117485046387 11.812987327575684 13.083117485046387 12.303895950317383 L13.083117485046387 12.303895950317383 C12.924675941467285 12.303895950317383 12.766233444213867 12.303895950317383 12.607791900634766 12.303895950317383 L12.607791900634766 12.303895950317383 C12.444051742553711 11.973713874816895 12.280311584472656 11.643532752990723 12.116571426391602 11.313350677490234 L12.116571426391602 11.313350677490234 C12.122389793395996 11.643428802490234 12.128207206726074 11.973505973815918 12.134025573730469 12.303584098815918 L12.134025573730469 12.303584098815918 C12.013921737670898 12.303688049316406 11.893817901611328 12.303791999816895 11.773714065551758 12.303895950317383 L11.773714065551758 12.303895950317383 C11.773818016052246 11.812987327575684 11.773921966552734 11.322077751159668 11.774025917053223 10.831169128417969 L11.774025917053223 10.831169128417969"></path>
<path fill="none" stroke="black" stroke-width=".3" stroke-opacity="1.0"  filling="0" d="M14.914285659790039 10.831169128417969 L14.914285659790039 10.831169128417969 C15.259739875793457 10.831169128417969 15.605195045471191 10.831169128417969 15.95064926147461 10.831169128417969 L15.95064926147461 10.831169128417969 C15.95064926147461 10.924675941467285 15.95064926147461 11.018181800842285 15.95064926147461 11.111688613891602 L15.95064926147461 11.111688613891602 C15.737662315368652 11.111688613891602 15.524674415588379 11.111688613891602 15.311687469482422 11.111688613891602 L15.311687469482422 11.111688613891602 C15.311687469482422 11.210390090942383 15.311687469482422 11.309090614318848 15.311687469482422 11.407792091369629 L15.311687469482422 11.407792091369629 C15.51428508758545 11.407792091369629 15.716882705688477 11.407792091369629 15.919480323791504 11.407792091369629 L15.919480323791504 11.407792091369629 C15.919480323791504 11.501298904418945 15.919480323791504 11.594804763793945 15.919480323791504 11.688311576843262 L15.919480323791504 11.688311576843262 C15.716882705688477 11.688311576843262 15.51428508758545 11.688311576843262 15.311687469482422 11.688311576843262 L15.311687469482422 11.688311576843262 C15.311687469482422 11.800000190734863 15.311687469482422 11.911687850952148 15.311687469482422 12.02337646484375 L15.311687469482422 12.02337646484375 C15.532466888427734 12.023272514343262 15.753246307373047 12.02316951751709 15.97402572631836 12.023065567016602 L15.97402572631836 12.023065567016602 C15.97402572631836 12.11667537689209 15.97402572631836 12.210286140441895 15.97402572631836 12.303895950317383 L15.97402572631836 12.303895950317383 C15.620779037475586 12.303895950317383 15.267532348632812 12.303895950317383 14.914285659790039 12.303895950317383 L14.914285659790039 12.303895950317383 C14.914285659790039 11.812987327575684 14.914285659790039 11.322077751159668 14.914285659790039 10.831169128417969 L14.914285659790039 10.831169128417969"></path>
<path fill="none" stroke="black" stroke-width=".3" stroke-opacity="1.0"  filling="0" d="M19.324674606323242 10.831169128417969 L19.324674606323242 10.831169128417969 C19.670129776000977 10.831169128417969 20.015583038330078 10.831169128417969 20.361038208007812 10.831169128417969 L20.361038208007812 10.831169128417969 C20.361038208007812 10.92727279663086 20.361038208007812 11.02337646484375 20.361038208007812 11.11948013305664 L20.361038208007812 11.11948013305664 C20.14805030822754 11.11948013305664 19.9350643157959 11.11948013305664 19.722076416015625 11.11948013305664 L19.722076416015625 11.11948013305664 C19.722076416015625 11.215583801269531 19.722076416015625 11.311688423156738 19.722076416015625 11.407792091369629 L19.722076416015625 11.407792091369629 C19.922077178955078 11.407792091369629 20.12207794189453 11.407792091369629 20.322078704833984 11.407792091369629 L20.322078704833984 11.407792091369629 C20.322078704833984 11.503791809082031 20.322078704833984 11.59979248046875 20.322078704833984 11.695792198181152 L20.322078704833984 11.695792198181152 C20.12207794189453 11.69589614868164 19.922077178955078 11.696000099182129 19.722076416015625 11.696104049682617 L19.722076416015625 11.696104049682617 C19.722076416015625 11.805194854736328 19.722076416015625 11.914285659790039 19.722076416015625 12.02337646484375 L19.722076416015625 12.02337646484375 C19.942855834960938 12.02337646484375 20.16363525390625 12.02337646484375 20.384414672851562 12.02337646484375 L20.384414672851562 12.02337646484375 C20.384414672851562 12.116883277893066 20.384414672851562 12.210389137268066 20.384414672851562 12.303895950317383 L20.384414672851562 12.303895950317383 C20.03116798400879 12.303895950317383 19.677921295166016 12.303895950317383 19.324674606323242 12.303895950317383 L19.324674606323242 12.303895950317383 C19.324674606323242 11.812987327575684 19.324674606323242 11.322077751159668 19.324674606323242 10.831169128417969 L19.324674606323242 10.831169128417969"></path>
<path fill="none" stroke="black" stroke-width=".3" stroke-opacity="1.0"  filling="0" d="M6.347532749176025 10.83740234375 L6.347532749176025 10.83740234375 C6.649247169494629 10.979116439819336 7.088517665863037 10.972430229187012 7.252675533294678 11.262545585632324 C7.8865838050842285 12.38284683227539 5.584343433380127 12.765012741088867 5.789610385894775 11.513766288757324 C5.836923122406006 11.225360870361328 6.161558628082275 11.062856674194336 6.347532749176025 10.83740234375 L6.347532749176025 10.83740234375"></path>
<path fill="none" stroke="black" stroke-width=".3" stroke-opacity="1.0"  filling="0" d="M19.016101837158203 10.934025764465332 L19.016101837158203 10.934025764465332 C18.96540069580078 11.018908500671387 18.91469955444336 11.103792190551758 18.863998413085938 11.188674926757812 L18.863998413085938 11.188674926757812 C18.004680633544922 11.185381889343262 17.822879791259766 11.78923511505127 18.74742889404297 11.999688148498535 L18.74742889404297 11.999688148498535 C18.747636795043945 11.911479949951172 18.74784278869629 11.823272705078125 18.748050689697266 11.735064506530762 L18.748050689697266 11.735064506530762 C18.646648406982422 11.735064506530762 18.545246124267578 11.735064506530762 18.443843841552734 11.735064506530762 L18.443843841552734 11.735064506530762 C18.44394874572754 11.641557693481445 18.44405174255371 11.548051834106445 18.444156646728516 11.454545021057129 L18.444156646728516 11.454545021057129 C18.651948928833008 11.454545021057129 18.859739303588867 11.454545021057129 19.06753158569336 11.454545021057129 L19.06753158569336 11.454545021057129 C19.067426681518555 11.698700904846191 19.067323684692383 11.942856788635254 19.067218780517578 12.187012672424316 L19.067218780517578 12.187012672424316 C18.643360137939453 12.274378776550293 16.676591873168945 11.904693603515625 17.893089294433594 11.035013198852539 C18.19883918762207 10.816431045532227 18.64176368713379 10.96768856048584 19.016101837158203 10.934025764465332 L19.016101837158203 10.934025764465332"></path>
<path fill="none" stroke="black" stroke-width=".3" stroke-opacity="1.0"  filling="0" d="M4.792207717895508 11.110129356384277 L4.792207717895508 11.110129356384277 C5.273612976074219 11.161516189575195 5.27506685256958 11.403541564941406 4.792207717895508 11.455792427062988 L4.792207717895508 11.455792427062988 C4.792207717895508 11.340571403503418 4.792207717895508 11.225350379943848 4.792207717895508 11.110129356384277 L4.792207717895508 11.110129356384277"></path>
<path fill="none" stroke="black" stroke-width=".3" stroke-opacity="1.0"  filling="0" d="M16.683116912841797 11.110441207885742 L16.683116912841797 11.110441207885742 C17.15932846069336 11.151871681213379 17.17767333984375 11.39915943145752 16.683116912841797 11.456104278564453 L16.683116912841797 11.456104278564453 C16.683116912841797 11.340883255004883 16.683116912841797 11.225662231445312 16.683116912841797 11.110441207885742 L16.683116912841797 11.110441207885742"></path>
<path fill="none" stroke="black" stroke-width=".3" stroke-opacity="1.0"  filling="0" d="M21.07012939453125 11.110441207885742 L21.07012939453125 11.110441207885742 C21.54635238647461 11.15683650970459 21.5410213470459 11.407702445983887 21.07012939453125 11.456104278564453 L21.07012939453125 11.456104278564453 C21.07012939453125 11.340883255004883 21.07012939453125 11.225662231445312 21.07012939453125 11.110441207885742 L21.07012939453125 11.110441207885742"></path>
<path fill="none" stroke="black" stroke-width=".3" stroke-opacity="1.0"  filling="0" d="M13.84675407409668 11.119168281555176 L13.84675407409668 11.119168281555176 C14.26651382446289 11.15131664276123 14.279850959777832 11.333991050720215 13.847064971923828 11.409351348876953 L13.847064971923828 11.409351348876953 C13.84696102142334 11.312623977661133 13.846858024597168 11.215895652770996 13.84675407409668 11.119168281555176 L13.84675407409668 11.119168281555176"></path>
<path fill="none" stroke="black" stroke-width=".3" stroke-opacity="1.0"  filling="0" d="M6.420467853546143 11.162493705749512 L6.420467853546143 11.162493705749512 C7.480090141296387 11.486085891723633 6.036894798278809 12.6895751953125 6.420467853546143 11.162493705749512 L6.420467853546143 11.162493705749512"></path>
<path fill="none" stroke="black" stroke-width=".3" stroke-opacity="1.0"  filling="0" d="M13.84675407409668 11.679896354675293 L13.84675407409668 11.679896354675293 C14.30336856842041 11.724689483642578 14.326579093933105 11.945892333984375 13.84675407409668 12.016519546508789 L13.84675407409668 12.016519546508789 C13.84675407409668 11.904312133789062 13.84675407409668 11.79210376739502 13.84675407409668 11.679896354675293 L13.84675407409668 11.679896354675293"></path>
<path fill="none" stroke="black" stroke-width=".3" stroke-opacity="1.0"  filling="0" d="M14.05714225769043 12.607791900634766 L14.05714225769043 12.607791900634766 C14.090909004211426 12.607791900634766 14.124674797058105 12.607791900634766 14.158441543579102 12.607791900634766 L14.158441543579102 12.607791900634766 C14.158441543579102 12.797402381896973 14.158441543579102 12.98701286315918 14.158441543579102 13.176623344421387 L14.158441543579102 13.176623344421387 C14.124674797058105 13.176623344421387 14.090909004211426 13.176623344421387 14.05714225769043 13.176623344421387 L14.05714225769043 13.176623344421387 C14.05714225769043 12.98701286315918 14.05714225769043 12.797402381896973 14.05714225769043 12.607791900634766 L14.05714225769043 12.607791900634766"></path>
<path fill="none" stroke="black" stroke-width=".3" stroke-opacity="1.0"  filling="0" d="M15.545454025268555 12.607791900634766 L15.545454025268555 12.607791900634766 C15.579428672790527 12.607791900634766 15.613402366638184 12.607791900634766 15.647377014160156 12.607791900634766 L15.647377014160156 12.607791900634766 C15.646130561828613 12.678544998168945 15.644883155822754 12.749299049377441 15.643636703491211 12.820052146911621 L15.643636703491211 12.820052146911621 C15.790573120117188 12.813363075256348 15.887299537658691 13.030439376831055 15.903583526611328 13.176623344421387 L15.903583526611328 13.176623344421387 C15.870025634765625 13.176623344421387 15.836466789245605 13.176623344421387 15.802908897399902 13.176623344421387 L15.802908897399902 13.176623344421387 C15.798129081726074 13.066908836364746 15.793350219726562 12.957194328308105 15.788570404052734 12.847479820251465 L15.788570404052734 12.847479820251465 C15.677403450012207 12.891340255737305 15.65349006652832 13.05732536315918 15.646441459655762 13.176623344421387 L15.646441459655762 13.176623344421387 C15.612778663635254 13.176623344421387 15.579116821289062 13.176623344421387 15.545454025268555 13.176623344421387 L15.545454025268555 13.176623344421387 C15.545454025268555 12.98701286315918 15.545454025268555 12.797402381896973 15.545454025268555 12.607791900634766 L15.545454025268555 12.607791900634766"></path>
<path fill="none" stroke="black" stroke-width=".3" stroke-opacity="1.0"  filling="0" d="M16.932466506958008 12.607791900634766 L16.932466506958008 12.607791900634766 C16.966232299804688 12.607791900634766 17.0 12.607791900634766 17.03376579284668 12.607791900634766 L17.03376579284668 12.607791900634766 C17.03376579284668 12.797402381896973 17.03376579284668 12.98701286315918 17.03376579284668 13.176623344421387 L17.03376579284668 13.176623344421387 C17.000102996826172 13.176519393920898 16.966442108154297 13.17641544342041 16.93277931213379 13.176311492919922 L16.93277931213379 13.176311492919922 C16.932674407958984 12.986804962158203 16.932571411132812 12.797298431396484 16.932466506958008 12.607791900634766 L16.932466506958008 12.607791900634766"></path>
<path fill="none" stroke="black" stroke-width=".3" stroke-opacity="1.0"  filling="0" d="M21.646753311157227 12.607791900634766 L21.646753311157227 12.607791900634766 C21.680519104003906 12.607791900634766 21.714284896850586 12.607791900634766 21.748050689697266 12.607791900634766 L21.748050689697266 12.607791900634766 C21.74784278869629 12.71989631652832 21.747634887695312 12.831999778747559 21.747426986694336 12.944104194641113 L21.747426986694336 12.944104194641113 C21.78877830505371 12.891636848449707 21.830127716064453 12.839168548583984 21.871479034423828 12.786701202392578 L21.871479034423828 12.786701202392578 C21.91106414794922 12.786701202392578 21.95064926147461 12.786701202392578 21.990234375 12.786701202392578 L21.990234375 12.786701202392578 C21.941818237304688 12.844779014587402 21.893402099609375 12.902856826782227 21.844985961914062 12.96093463897705 L21.844985961914062 12.96093463897705 C21.900156021118164 13.034804344177246 21.955324172973633 13.108675003051758 22.010494232177734 13.182544708251953 L22.010494232177734 13.182544708251953 C21.96613121032715 13.17724609375 21.92176628112793 13.171947479248047 21.877403259277344 13.166648864746094 L21.877403259277344 13.166648864746094 C21.833974838256836 13.10649299621582 21.790544509887695 13.046337127685547 21.747116088867188 12.986181259155273 L21.747116088867188 12.986181259155273 C21.747426986694336 13.049661636352539 21.747739791870117 13.113142967224121 21.748050689697266 13.176623344421387 L21.748050689697266 13.176623344421387 C21.714284896850586 13.176623344421387 21.680519104003906 13.176623344421387 21.646753311157227 13.176623344421387 L21.646753311157227 13.176623344421387 C21.646753311157227 12.98701286315918 21.646753311157227 12.797402381896973 21.646753311157227 12.607791900634766 L21.646753311157227 12.607791900634766"></path>
<path fill="none" stroke="black" stroke-width=".3" stroke-opacity="1.0"  filling="0" d="M11.742856979370117 12.62337589263916 L11.742856979370117 12.62337589263916 C11.776622772216797 12.623479843139648 11.810389518737793 12.623584747314453 11.844155311584473 12.623688697814941 L11.844155311584473 12.623688697814941 C11.844155311584473 12.654753684997559 11.844155311584473 12.68581771850586 11.844155311584473 12.716882705688477 L11.844155311584473 12.716882705688477 C11.810389518737793 12.716882705688477 11.776622772216797 12.716882705688477 11.742856979370117 12.716882705688477 L11.742856979370117 12.716882705688477 C11.742856979370117 12.685713768005371 11.742856979370117 12.654544830322266 11.742856979370117 12.62337589263916 L11.742856979370117 12.62337589263916"></path>
<path fill="none" stroke="black" stroke-width=".3" stroke-opacity="1.0"  filling="0" d="M18.171428680419922 12.62337589263916 L18.171428680419922 12.62337589263916 C18.171533584594727 12.654440879821777 18.1716365814209 12.685505867004395 18.171741485595703 12.716570854187012 L18.171741485595703 12.716570854187012 C18.137975692749023 12.716778755187988 18.10420799255371 12.716987609863281 18.07044219970703 12.717195510864258 L18.07044219970703 12.717195510864258 C18.070234298706055 12.686026573181152 18.070024490356445 12.654857635498047 18.06981658935547 12.623688697814941 L18.06981658935547 12.623688697814941 C18.103687286376953 12.623584747314453 18.137557983398438 12.623479843139648 18.171428680419922 12.62337589263916 L18.171428680419922 12.62337589263916"></path>
<path fill="none" stroke="black" stroke-width=".3" stroke-opacity="1.0"  filling="0" d="M19.81963539123535 12.666701316833496 L19.81963539123535 12.666701316833496 C19.821401596069336 12.7069091796875 19.823169708251953 12.747117042541504 19.824935913085938 12.787324905395508 L19.824935913085938 12.787324905395508 C19.8555850982666 12.78722095489502 19.886232376098633 12.787117004394531 19.916881561279297 12.787013053894043 L19.916881561279297 12.787013053894043 C19.916881561279297 12.812883377075195 19.916881561279297 12.838752746582031 19.916881561279297 12.864623069763184 L19.916881561279297 12.864623069763184 C19.88550567626953 12.864934921264648 19.854129791259766 12.865246772766113 19.82275390625 12.865558624267578 L19.82275390625 12.865558624267578 C19.827741622924805 12.940882682800293 19.832727432250977 13.016207695007324 19.83771514892578 13.091531753540039 L19.83771514892578 13.091531753540039 C19.87241554260254 13.106285095214844 19.90711784362793 13.121039390563965 19.941818237304688 13.13579273223877 L19.941818237304688 13.13579273223877 C19.826229095458984 13.148874282836914 19.735828399658203 12.980408668518066 19.721763610839844 12.864934921264648 L19.721763610839844 12.864934921264648 C19.695791244506836 12.864934921264648 19.669816970825195 12.864934921264648 19.643844604492188 12.864934921264648 L19.643844604492188 12.864934921264648 C19.644052505493164 12.839168548583984 19.64426040649414 12.813403129577637 19.644468307495117 12.787636756896973 L19.644468307495117 12.787636756896973 C19.664623260498047 12.787428855895996 19.68478012084961 12.78722095489502 19.70493507385254 12.787013053894043 L19.70493507385254 12.787013053894043 C19.743167877197266 12.746909141540527 19.781402587890625 12.706805229187012 19.81963539123535 12.666701316833496 L19.81963539123535 12.666701316833496"></path>
<path fill="none" stroke="black" stroke-width=".3" stroke-opacity="1.0"  filling="0" d="M12.962492942810059 12.667325019836426 L12.962492942810059 12.667325019836426 C12.964155197143555 12.707428932189941 12.965818405151367 12.747532844543457 12.967480659484863 12.787636756896973 L12.967480659484863 12.787636756896973 C12.998233795166016 12.787324905395508 13.028986930847168 12.787013053894043 13.05974006652832 12.786701202392578 L13.05974006652832 12.786701202392578 C13.059636116027832 12.812779426574707 13.059532165527344 12.83885669708252 13.059428215026855 12.864934921264648 L13.059428215026855 12.864934921264648 C13.028155326843262 12.865038871765137 12.996883392333984 12.865142822265625 12.96561050415039 12.865246772766113 L12.96561050415039 12.865246772766113 C12.970597267150879 12.940779685974121 12.975584030151367 13.016311645507812 12.980570793151855 13.09184455871582 L12.980570793151855 13.09184455871582 C13.015168190002441 13.106389999389648 13.049766540527344 13.120935440063477 13.08436393737793 13.135480880737305 L13.08436393737793 13.135480880737305 C12.969432830810547 13.118045806884766 12.868412017822266 12.981108665466309 12.864311218261719 12.864934921264648 L12.864311218261719 12.864934921264648 C12.838544845581055 12.864934921264648 12.812779426574707 12.864934921264648 12.787013053894043 12.864934921264648 L12.787013053894043 12.864934921264648 C12.787013053894043 12.839168548583984 12.787013053894043 12.813403129577637 12.787013053894043 12.787636756896973 L12.787013053894043 12.787636756896973 C12.807376861572266 12.787428855895996 12.827739715576172 12.78722095489502 12.848103523254395 12.787013053894043 L12.848103523254395 12.787013053894043 C12.88623332977295 12.747117042541504 12.924363136291504 12.707221031188965 12.962492942810059 12.667325019836426 L12.962492942810059 12.667325019836426"></path>
<path fill="none" stroke="black" stroke-width=".3" stroke-opacity="1.0"  filling="0" d="M14.625350952148438 12.676363945007324 L14.625350952148438 12.676363945007324 C14.625662803649902 12.713143348693848 14.62597370147705 12.749921798706055 14.626285552978516 12.786701202392578 L14.626285552978516 12.786701202392578 C14.657454490661621 12.786909103393555 14.688623428344727 12.787117004394531 14.719792366027832 12.787324905395508 L14.719792366027832 12.787324905395508 C14.719688415527344 12.81319522857666 14.719584465026855 12.839064598083496 14.719480514526367 12.864934921264648 L14.719480514526367 12.864934921264648 C14.688207626342773 12.865038871765137 14.65693473815918 12.865142822265625 14.625661849975586 12.865246772766113 L14.625661849975586 12.865246772766113 C14.626805305480957 12.942130088806152 14.627947807312012 13.019013404846191 14.629091262817383 13.09589672088623 L14.629091262817383 13.09589672088623 C14.662442207336426 13.10285758972168 14.695792198181152 13.109818458557129 14.729143142700195 13.116779327392578 L14.729143142700195 13.116779327392578 C14.721662521362305 13.141610145568848 14.714181900024414 13.166441917419434 14.706701278686523 13.191272735595703 L14.706701278686523 13.191272735595703 C14.583955764770508 13.169292449951172 14.54401969909668 12.987762451171875 14.524362564086914 12.864623069763184 L14.524362564086914 12.864623069763184 C14.498492240905762 12.86483097076416 14.472622871398926 12.865038871765137 14.446752548217773 12.865246772766113 L14.446752548217773 12.865246772766113 C14.446752548217773 12.839168548583984 14.446752548217773 12.813091278076172 14.446752548217773 12.787013053894043 L14.446752548217773 12.787013053894043 C14.472726821899414 12.786909103393555 14.498701095581055 12.786805152893066 14.524675369262695 12.786701202392578 L14.524675369262695 12.786701202392578 C14.524779319763184 12.760000228881836 14.524884223937988 12.733298301696777 14.524988174438477 12.706597328186035 L14.524988174438477 12.706597328186035 C14.558442115783691 12.69651985168457 14.591897010803223 12.686441421508789 14.625350952148438 12.676363945007324 L14.625350952148438 12.676363945007324"></path>
<path fill="none" stroke="black" stroke-width=".3" stroke-opacity="1.0"  filling="0" d="M21.56540298461914 12.764571189880371 L21.56540298461914 12.764571189880371 C21.570701599121094 12.796570777893066 21.576000213623047 12.828571319580078 21.581298828125 12.860570907592773 L21.581298828125 12.860570907592773 C21.545143127441406 12.873973846435547 21.508987426757812 12.88737678527832 21.47283172607422 12.900779724121094 L21.47283172607422 12.900779724121094 C21.46576690673828 12.992831230163574 21.45870018005371 13.084883689880371 21.451635360717773 13.176935195922852 L21.451635360717773 13.176935195922852 C21.417972564697266 13.176727294921875 21.38431167602539 13.176519393920898 21.350648880004883 13.176311492919922 L21.350648880004883 13.176311492919922 C21.350648880004883 13.046337127685547 21.350648880004883 12.916363716125488 21.350648880004883 12.786389350891113 L21.350648880004883 12.786389350891113 C21.381298065185547 12.787013053894043 21.41194725036621 12.787635803222656 21.442596435546875 12.788259506225586 L21.442596435546875 12.788259506225586 C21.435115814208984 12.812259674072266 21.427635192871094 12.836259841918945 21.420154571533203 12.860260009765625 L21.420154571533203 12.860260009765625 C21.468570709228516 12.828363418579102 21.516986846923828 12.796467781066895 21.56540298461914 12.764571189880371 L21.56540298461914 12.764571189880371"></path>
<path fill="none" stroke="black" stroke-width=".3" stroke-opacity="1.0"  filling="0" d="M11.278129577636719 12.776103973388672 L11.278129577636719 12.776103973388672 C11.312519073486328 12.788779258728027 11.346908569335938 12.801454544067383 11.381298065185547 12.814129829406738 L11.381298065185547 12.814129829406738 C11.73650074005127 12.810467720031738 11.733261108398438 13.151937484741211 11.372882843017578 13.144830703735352 L11.372882843017578 13.144830703735352 C11.374545097351074 13.207376480102539 11.37620735168457 13.26992130279541 11.377869606018066 13.332467079162598 L11.377869606018066 13.332467079162598 C11.343688011169434 13.33236312866211 11.3095064163208 13.332260131835938 11.275324821472168 13.33215618133545 L11.275324821472168 13.33215618133545 C11.276259422302246 13.146805763244629 11.27719497680664 12.961454391479492 11.278129577636719 12.776103973388672 L11.278129577636719 12.776103973388672"></path>
<path fill="none" stroke="black" stroke-width=".3" stroke-opacity="1.0"  filling="0" d="M12.574752807617188 12.777973175048828 L12.574752807617188 12.777973175048828 C12.635428428649902 12.855168342590332 12.696104049682617 12.932363510131836 12.756779670715332 13.00955867767334 L12.756779670715332 13.00955867767334 C12.660882949829102 13.011636734008789 12.564987182617188 13.013714790344238 12.469090461730957 13.015792846679688 L12.469090461730957 13.015792846679688 C12.493610382080078 13.048104286193848 12.518129348754883 13.080415725708008 12.542649269104004 13.112727165222168 L12.542649269104004 13.112727165222168 C12.602909088134766 13.102648735046387 12.663168907165527 13.092571258544922 12.723428726196289 13.08249282836914 L12.723428726196289 13.08249282836914 C12.718856811523438 13.111583709716797 12.714285850524902 13.140674591064453 12.70971393585205 13.16976547241211 L12.70971393585205 13.16976547241211 C12.571931838989258 13.159988403320312 12.536952018737793 12.910828590393066 12.574752807617188 12.777973175048828 L12.574752807617188 12.777973175048828"></path>
<path fill="none" stroke="black" stroke-width=".3" stroke-opacity="1.0"  filling="0" d="M20.831687927246094 12.778909683227539 L20.831687927246094 12.778909683227539 C20.7913761138916 12.911688804626465 20.75106430053711 13.04446792602539 20.710752487182617 13.177247047424316 L20.710752487182617 13.177247047424316 C20.670856475830078 13.176519393920898 20.63096046447754 13.175792694091797 20.591064453125 13.175065040588379 L20.591064453125 13.175065040588379 C20.56280517578125 13.076467514038086 20.534543991088867 12.977869987487793 20.506284713745117 12.8792724609375 L20.506284713745117 12.8792724609375 C20.47781753540039 12.978389739990234 20.449350357055664 13.077506065368652 20.420883178710938 13.176623344421387 L20.420883178710938 13.176623344421387 C20.382234573364258 13.176519393920898 20.343584060668945 13.17641544342041 20.304935455322266 13.176311492919922 L20.304935455322266 13.176311492919922 C20.261714935302734 13.046545028686523 20.21849250793457 12.916779518127441 20.17527198791504 12.787013053894043 L20.17527198791504 12.787013053894043 C20.210908889770508 12.787013053894043 20.246543884277344 12.787013053894043 20.282180786132812 12.787013053894043 L20.282180786132812 12.787013053894043 C20.311168670654297 12.884364128112793 20.34015655517578 12.981714248657227 20.369144439697266 13.079065322875977 L20.369144439697266 13.079065322875977 C20.39563751220703 12.981818199157715 20.422130584716797 12.88457202911377 20.448623657226562 12.787324905395508 L20.448623657226562 12.787324905395508 C20.488000869750977 12.787117004394531 20.527376174926758 12.786909103393555 20.566753387451172 12.786701202392578 L20.566753387451172 12.786701202392578 C20.595428466796875 12.883532524108887 20.624103546142578 12.980363845825195 20.65277862548828 13.077195167541504 L20.65277862548828 13.077195167541504 C20.680727005004883 12.983376502990723 20.70867347717285 12.889558792114258 20.736621856689453 12.795740127563477 L20.736621856689453 12.795740127563477 C20.768310546875 12.790129661560059 20.799999237060547 12.784520149230957 20.831687927246094 12.778909683227539 L20.831687927246094 12.778909683227539"></path>
<path fill="none" stroke="black" stroke-width=".3" stroke-opacity="1.0"  filling="0" d="M14.975065231323242 12.779844284057617 L14.975065231323242 12.779844284057617 C15.02888298034668 12.855792045593262 15.082701683044434 12.931740760803223 15.136519432067871 13.007688522338867 L15.136519432067871 13.007688522338867 C15.036883354187012 13.012259483337402 14.937246322631836 13.016831398010254 14.837610244750977 13.021402359008789 L14.837610244750977 13.021402359008789 C14.926337242126465 13.042078018188477 15.01506519317627 13.062752723693848 15.103792190551758 13.083428382873535 L15.103792190551758 13.083428382873535 C15.096415519714355 13.112935066223145 15.089038848876953 13.142440795898438 15.08166217803955 13.171947479248047 L15.08166217803955 13.171947479248047 C14.946828842163086 13.159090042114258 14.928449630737305 12.907014846801758 14.975065231323242 12.779844284057617 L14.975065231323242 12.779844284057617"></path>
<path fill="none" stroke="black" stroke-width=".3" stroke-opacity="1.0"  filling="0" d="M18.468154907226562 12.780155181884766 L18.468154907226562 12.780155181884766 C18.521142959594727 12.85610294342041 18.574129104614258 12.932051658630371 18.627117156982422 13.007999420166016 L18.627117156982422 13.007999420166016 C18.527896881103516 13.01236343383789 18.42867660522461 13.01672649383545 18.329456329345703 13.021090507507324 L18.329456329345703 13.021090507507324 C18.417766571044922 13.041766166687012 18.506078720092773 13.0624418258667 18.594388961791992 13.083117485046387 L18.594388961791992 13.083117485046387 C18.587221145629883 13.112727165222168 18.58005142211914 13.142337799072266 18.57288360595703 13.171947479248047 L18.57288360595703 13.171947479248047 C18.438369750976562 13.158514022827148 18.420419692993164 12.90662956237793 18.468154907226562 12.780155181884766 L18.468154907226562 12.780155181884766"></path>
<path fill="none" stroke="black" stroke-width=".3" stroke-opacity="1.0"  filling="0" d="M12.200103759765625 12.781402587890625 L12.200103759765625 12.781402587890625 C12.189943313598633 12.911981582641602 12.172871589660645 13.187459945678711 12.049245834350586 13.144207954406738 L12.049245834350586 13.144207954406738 C12.051531791687012 13.206857681274414 12.053816795349121 13.269506454467773 12.056102752685547 13.33215618133545 L12.056102752685547 13.33215618133545 C12.021817207336426 13.332260131835938 11.987532615661621 13.33236312866211 11.9532470703125 13.332467079162598 L11.9532470703125 13.332467079162598 C11.9532470703125 13.150649070739746 11.9532470703125 12.968831062316895 11.9532470703125 12.787013053894043 L11.9532470703125 12.787013053894043 C11.98493480682373 12.787117004394531 12.016623497009277 12.78722095489502 12.048311233520508 12.787324905395508 L12.043013572692871 12.82784366607666 C12.095376968383789 12.812363624572754 12.147740364074707 12.796882629394531 12.200103759765625 12.781402587890625 L12.200103759765625 12.781402587890625"></path>
<path fill="none" stroke="black" stroke-width=".3" stroke-opacity="1.0"  filling="0" d="M17.721349716186523 12.781402587890625 L17.721349716186523 12.781402587890625 C17.774024963378906 12.797091484069824 17.82670021057129 12.812779426574707 17.879375457763672 12.828468322753906 L17.87376594543457 12.787324905395508 C17.905454635620117 12.78722095489502 17.93714141845703 12.787117004394531 17.968830108642578 12.787013053894043 L17.968830108642578 12.787013053894043 C17.95989227294922 12.999032974243164 17.831167221069336 13.269315719604492 17.625974655151367 13.3234281539917 L17.625974655151367 13.3234281539917 C17.625869750976562 13.294857025146484 17.62576675415039 13.26628589630127 17.625661849975586 13.237714767456055 L17.625661849975586 13.237714767456055 C17.719623565673828 13.239182472229004 17.839588165283203 13.217691421508789 17.88935089111328 13.13797378540039 L17.88935089111328 13.13797378540039 C17.758073806762695 13.143401145935059 17.69560432434082 12.91024398803711 17.721349716186523 12.781402587890625 L17.721349716186523 12.781402587890625"></path>
<path fill="none" stroke="black" stroke-width=".3" stroke-opacity="1.0"  filling="0" d="M15.468779563903809 12.784832000732422 L15.468779563903809 12.784832000732422 C15.466181755065918 12.806754112243652 15.463584899902344 12.828675270080566 15.460987091064453 12.850597381591797 L15.460987091064453 12.850597381591797 C15.399564743041992 12.908781051635742 15.412758827209473 13.068168640136719 15.489973068237305 13.102752685546875 L15.489973068237305 13.102752685546875 C15.116971015930176 13.229244232177734 15.150277137756348 12.817381858825684 15.468779563903809 12.784832000732422 L15.468779563903809 12.784832000732422"></path>
<path fill="none" stroke="black" stroke-width=".3" stroke-opacity="1.0"  filling="0" d="M16.094648361206055 12.786077499389648 L16.094648361206055 12.786077499389648 C16.098285675048828 12.797714233398438 16.10192108154297 12.80935001373291 16.105558395385742 12.8209867477417 L16.105558395385742 12.8209867477417 C16.253467559814453 12.815516471862793 16.355928421020508 13.029426574707031 16.371429443359375 13.176623344421387 L16.371429443359375 13.176623344421387 C16.337766647338867 13.176623344421387 16.304105758666992 13.176623344421387 16.270442962646484 13.176623344421387 L16.270442962646484 13.176623344421387 C16.265663146972656 13.067116737365723 16.260883331298828 12.957611083984375 16.256103515625 12.848104476928711 L16.256103515625 12.848104476928711 C16.144906997680664 12.891363143920898 16.12126922607422 13.057531356811523 16.113975524902344 13.176623344421387 L16.113975524902344 13.176623344421387 C16.080312728881836 13.176623344421387 16.046648025512695 13.176623344421387 16.012985229492188 13.176623344421387 L16.012985229492188 13.176623344421387 C16.012985229492188 13.046856880187988 16.012985229492188 12.917091369628906 16.012985229492188 12.787324905395508 L16.012985229492188 12.787324905395508 C16.040206909179688 12.786909103393555 16.067426681518555 12.786493301391602 16.094648361206055 12.786077499389648 L16.094648361206055 12.786077499389648"></path>
<path fill="none" stroke="black" stroke-width=".3" stroke-opacity="1.0"  filling="0" d="M11.742856979370117 12.786701202392578 L11.742856979370117 12.786701202392578 C11.776622772216797 12.786805152893066 11.810389518737793 12.786909103393555 11.844155311584473 12.787013053894043 L11.844155311584473 12.787013053894043 C11.844155311584473 12.916779518127441 11.844155311584473 13.046545028686523 11.844155311584473 13.176311492919922 L11.844155311584473 13.176311492919922 C11.810389518737793 13.17641544342041 11.776622772216797 13.176519393920898 11.742856979370117 13.176623344421387 L11.742856979370117 13.176623344421387 C11.742856979370117 13.046648979187012 11.742856979370117 12.916675567626953 11.742856979370117 12.786701202392578 L11.742856979370117 12.786701202392578"></path>
<path fill="none" stroke="black" stroke-width=".3" stroke-opacity="1.0"  filling="0" d="M18.171428680419922 12.786701202392578 L18.171428680419922 12.786701202392578 C18.171428680419922 12.916675567626953 18.171428680419922 13.046648979187012 18.171428680419922 13.176623344421387 L18.171428680419922 13.176623344421387 C18.137662887573242 13.176623344421387 18.10389518737793 13.176623344421387 18.07012939453125 13.176623344421387 L18.07012939453125 13.176623344421387 C18.07012939453125 13.0467529296875 18.07012939453125 12.91688346862793 18.07012939453125 12.787013053894043 L18.07012939453125 12.787013053894043 C18.10389518737793 12.786909103393555 18.137662887573242 12.786805152893066 18.171428680419922 12.786701202392578 L18.171428680419922 12.786701202392578"></path>
<path fill="none" stroke="black" stroke-width=".3" stroke-opacity="1.0"  filling="0" d="M17.227947235107422 12.798856735229492 L17.227947235107422 12.798856735229492 C17.689754486083984 13.046656608581543 17.230560302734375 13.413496971130371 17.227947235107422 12.798856735229492 L17.227947235107422 12.798856735229492"></path>
<path fill="none" stroke="black" stroke-width=".3" stroke-opacity="1.0"  filling="0" d="M19.291011810302734 12.798856735229492 L19.291011810302734 12.798856735229492 C19.44945526123047 12.82900333404541 19.58313751220703 13.015661239624023 19.593351364135742 13.176623344421387 L19.593351364135742 13.176623344421387 C19.562702178955078 13.176519393920898 19.532052993774414 13.17641544342041 19.50140380859375 13.176311492919922 L19.50140380859375 13.176311492919922 C19.503793716430664 13.162077903747559 19.506181716918945 13.147844314575195 19.50857162475586 13.133610725402832 L19.50857162475586 13.133610725402832 C19.175703048706055 13.195724487304688 19.22182846069336 12.996825218200684 19.51729965209961 12.925090789794922 L19.51729965209961 12.925090789794922 C19.438858032226562 12.909921646118164 19.360416412353516 12.894753456115723 19.28197479248047 12.879584312438965 L19.28197479248047 12.879584312438965 C19.28498649597168 12.852675437927246 19.288000106811523 12.825765609741211 19.291011810302734 12.798856735229492 L19.291011810302734 12.798856735229492"></path>
<path fill="none" stroke="black" stroke-width=".3" stroke-opacity="1.0"  filling="0" d="M13.673142433166504 12.799792289733887 L13.673142433166504 12.799792289733887 C14.137626647949219 13.04575252532959 13.680438995361328 13.41214370727539 13.673142433166504 12.799792289733887 L13.673142433166504 12.799792289733887"></path>
<path fill="none" stroke="black" stroke-width=".3" stroke-opacity="1.0"  filling="0" d="M13.208104133605957 12.80166244506836 L13.208104133605957 12.80166244506836 C13.681403160095215 13.136998176574707 13.20906925201416 13.360501289367676 13.208104133605957 12.80166244506836 L13.208104133605957 12.80166244506836"></path>
<path fill="none" stroke="black" stroke-width=".3" stroke-opacity="1.0"  filling="0" d="M20.96914291381836 12.801974296569824 L20.96914291381836 12.801974296569824 C21.44832420349121 13.039572715759277 20.972280502319336 13.407901763916016 20.96914291381836 12.801974296569824 L20.96914291381836 12.801974296569824"></path>
<path fill="none" stroke="black" stroke-width=".3" stroke-opacity="1.0"  filling="0" d="M16.546907424926758 12.80384349822998 L16.546907424926758 12.80384349822998 C17.03946304321289 13.046586036682129 16.544307708740234 13.396688461303711 16.546907424926758 12.80384349822998 L16.546907424926758 12.80384349822998"></path>
<path fill="none" stroke="black" stroke-width=".3" stroke-opacity="1.0"  filling="0" d="M12.60997486114502 12.845298767089844 L12.60997486114502 12.845298767089844 C12.627532958984375 12.877922058105469 12.645092010498047 12.910545349121094 12.662650108337402 12.943168640136719 L12.662650108337402 12.943168640136719 C12.596467971801758 12.941610336303711 12.53028678894043 12.940052032470703 12.464104652404785 12.938493728637695 L12.464104652404785 12.938493728637695 C12.512727737426758 12.907428741455078 12.561351776123047 12.876363754272461 12.60997486114502 12.845298767089844 L12.60997486114502 12.845298767089844"></path>
<path fill="none" stroke="black" stroke-width=".3" stroke-opacity="1.0"  filling="0" d="M14.978181838989258 12.85589599609375 L14.978181838989258 12.85589599609375 C15.002493858337402 12.883532524108887 15.02680492401123 12.911168098449707 15.051116943359375 12.938804626464844 L15.051116943359375 12.938804626464844 C14.979844093322754 12.938389778137207 14.908571243286133 12.937973976135254 14.837298393249512 12.937559127807617 L14.837298393249512 12.937559127807617 C14.884259223937988 12.910338401794434 14.931221008300781 12.883116722106934 14.978181838989258 12.85589599609375 L14.978181838989258 12.85589599609375"></path>
<path fill="none" stroke="black" stroke-width=".3" stroke-opacity="1.0"  filling="0" d="M18.435426712036133 12.856207847595215 L18.435426712036133 12.856207847595215 C18.47075080871582 12.883740425109863 18.50607681274414 12.911272048950195 18.541400909423828 12.938804626464844 L18.541400909423828 12.938804626464844 C18.4703369140625 12.938285827636719 18.399272918701172 12.937766075134277 18.328208923339844 12.937247276306152 L18.328208923339844 12.937247276306152 C18.363948822021484 12.910234451293945 18.399686813354492 12.883220672607422 18.435426712036133 12.856207847595215 L18.435426712036133 12.856207847595215"></path>
<path fill="none" stroke="black" stroke-width=".3" stroke-opacity="1.0"  filling="0" d="M11.432104110717773 12.859013557434082 L11.432104110717773 12.859013557434082 C11.500260353088379 13.189817428588867 11.500260353088379 13.189817428588867 11.432104110717773 12.859013557434082 L11.432104110717773 12.859013557434082"></path>
<path fill="none" stroke="black" stroke-width=".3" stroke-opacity="1.0"  filling="0" d="M12.111895561218262 12.860570907592773 L12.111895561218262 12.860570907592773 C12.192519187927246 13.18514347076416 12.192519187927246 13.18514347076416 12.111895561218262 12.860570907592773 L12.111895561218262 12.860570907592773"></path>
<path fill="none" stroke="black" stroke-width=".3" stroke-opacity="1.0"  filling="0" d="M17.286544799804688 12.860883712768555 L17.286544799804688 12.860883712768555 C17.473392486572266 13.08574104309082 17.223417282104492 13.204361915588379 17.286544799804688 12.860883712768555 L17.286544799804688 12.860883712768555"></path>
<path fill="none" stroke="black" stroke-width=".3" stroke-opacity="1.0"  filling="0" d="M18.94971466064453 12.861194610595703 L18.94971466064453 12.861194610595703 C18.885610580444336 12.871479988098145 18.82150650024414 12.881766319274902 18.757402420043945 12.892051696777344 L18.757402420043945 12.892051696777344 C18.819795608520508 12.934435844421387 18.733823776245117 13.078957557678223 18.66046905517578 13.096519470214844 L18.66046905517578 13.096519470214844 C18.72955894470215 13.088623046875 18.79865074157715 13.080727577209473 18.867740631103516 13.072831153869629 L18.867740631103516 13.072831153869629 C18.80775260925293 13.026737213134766 18.875654220581055 12.876630783081055 18.94971466064453 12.861194610595703 L18.94971466064453 12.861194610595703"></path>
<path fill="none" stroke="black" stroke-width=".3" stroke-opacity="1.0"  filling="0" d="M13.268571853637695 12.862752914428711 L13.268571853637695 12.862752914428711 C13.341299057006836 13.188570976257324 13.341299057006836 13.188570976257324 13.268571853637695 12.862752914428711 L13.268571853637695 12.862752914428711"></path>
<path fill="none" stroke="black" stroke-width=".3" stroke-opacity="1.0"  filling="0" d="M21.028362274169922 12.863065719604492 L21.028362274169922 12.863065719604492 C21.100261688232422 13.18763542175293 21.100261688232422 13.18763542175293 21.028362274169922 12.863065719604492 L21.028362274169922 12.863065719604492"></path>
<path fill="none" stroke="black" stroke-width=".3" stroke-opacity="1.0"  filling="0" d="M16.607378005981445 12.866805076599121 L16.607378005981445 12.866805076599121 C16.678024291992188 13.186388969421387 16.678024291992188 13.186388969421387 16.607378005981445 12.866805076599121 L16.607378005981445 12.866805076599121"></path>
<path fill="none" stroke="black" stroke-width=".3" stroke-opacity="1.0"  filling="0" d="M17.731948852539062 12.872415542602539 L17.731948852539062 12.872415542602539 C17.792205810546875 13.178701400756836 17.792205810546875 13.178701400756836 17.731948852539062 12.872415542602539 L17.731948852539062 12.872415542602539"></path>
<path fill="none" stroke="black" stroke-width=".3" stroke-opacity="1.0"  filling="0" d="M13.711481094360352 12.873661994934082 L13.711481094360352 12.873661994934082 C13.941899299621582 13.089619636535645 13.683679580688477 13.184239387512207 13.711481094360352 12.873661994934082 L13.711481094360352 12.873661994934082"></path>
<path fill="none" stroke="black" stroke-width=".3" stroke-opacity="1.0"  filling="0" d="M19.511375427246094 12.993661880493164 L19.511375427246094 12.993661880493164 C19.493194580078125 13.028779029846191 19.475011825561523 13.063896179199219 19.456830978393555 13.099013328552246 L19.456830978393555 13.099013328552246 C19.420879364013672 13.08254337310791 19.47342300415039 13.004768371582031 19.511375427246094 12.993661880493164 L19.511375427246094 12.993661880493164"></path></svg>