<svg xmlns="http://www.w3.org/2000/svg" viewBox="0.0 0.0 24.0 24.0" height="200px" width="200px"><path fill="none" stroke="black" stroke-width=".3" stroke-opacity="1.0"  filling="0" d="M59.24289321899414 79.44866943359375 L59.24289321899414 79.44866943359375 C59.327796936035156 79.48551940917969 59.41270446777344 79.5223617553711 59.49760818481445 79.55921173095703 L59.49760818481445 79.55921173095703 C59.34891128540039 80.89764404296875 55.46977233886719 81.53846740722656 57.54155731201172 83.3800048828125 L58.022159576416016 83.3800048828125 C57.14224624633789 81.62022399902344 59.976375579833984 81.55154418945312 60.146427154541016 80.11190795898438 L60.146427154541016 80.11190795898438 C62.502288818359375 80.42935943603516 64.42305755615234 80.94244384765625 65.6685562133789 83.08684539794922 L65.6685562133789 83.08684539794922 C67.5243911743164 83.50607299804688 68.45817565917969 84.77359008789062 68.57405090332031 86.19345092773438 C68.68992614746094 87.61331939697266 67.9878921508789 89.18553161621094 66.57208251953125 90.21417999267578 C65.0430679321289 91.3250732421875 63.081024169921875 91.90485382080078 61.0590705871582 92.0930404663086 C59.03711700439453 92.28123474121094 56.95525360107422 92.07782745361328 55.18659973144531 91.62235260009766 C53.731204986572266 91.24755096435547 52.13523483276367 90.5564956665039 51.19232940673828 89.30928039550781 C50.24518585205078 88.05645751953125 49.905059814453125 86.72676086425781 50.19532012939453 85.61773681640625 C50.48558044433594 84.50871276855469 51.40623092651367 83.62036895751953 52.98063278198242 83.250244140625 L52.98063278198242 83.250244140625 C54.11053466796875 81.57598876953125 54.927486419677734 80.86066436767578 56.95435333251953 80.39271545410156 C57.74162673950195 80.21095275878906 59.121334075927734 80.54273986816406 59.24289321899414 79.44866943359375 L59.24289321899414 79.44866943359375"></path>
<path fill="none" stroke="black" stroke-width=".3" stroke-opacity="1.0"  filling="0" d="M60.473228454589844 80.34740447998047 L60.473228454589844 80.34740447998047 C62.836082458496094 81.37010192871094 59.06134033203125 82.19532012939453 59.036231994628906 83.37519836425781 L58.35377502441406 83.37519836425781 C57.303131103515625 81.73361206054688 60.43685531616211 81.71236419677734 60.473228454589844 80.34740447998047 L60.473228454589844 80.34740447998047"></path>
<path fill="none" stroke="black" stroke-width=".3" stroke-opacity="1.0"  filling="0" d="M61.50172805786133 81.43356323242188 L61.50172805786133 81.43356323242188 C62.300662994384766 82.24480438232422 61.840511322021484 82.86503601074219 60.977867126464844 83.37519836425781 L59.3245964050293 83.37519836425781 C59.61269760131836 82.285400390625 61.0344352722168 82.50833129882812 61.50172805786133 81.43356323242188 L61.50172805786133 81.43356323242188"></path>
<path fill="none" stroke="black" stroke-width=".3" stroke-opacity="1.0"  filling="0" d="M52.51444625854492 82.52471923828125 L52.51444625854492 82.52471923828125 C53.5627326965332 80.8669662475586 55.08953094482422 79.68152618408203 56.77269744873047 79.04536437988281 C58.45586395263672 78.40919494628906 60.29540252685547 78.32229614257812 61.96917724609375 78.86161041259766 C63.64295196533203 79.40092468261719 65.15095520019531 80.56645202636719 66.17106628417969 82.43515014648438 L66.17106628417969 82.43515014648438 C68.74803161621094 83.27417755126953 69.74598693847656 85.28038024902344 69.54701232910156 87.3342056274414 C69.34803771972656 89.38803100585938 67.95214080810547 91.48947143554688 65.74140930175781 92.51896667480469 C63.59477233886719 93.51861572265625 61.00440216064453 94.03607940673828 58.47003936767578 93.92710876464844 C55.93567657470703 93.81813049316406 53.45732116699219 93.08273315429688 51.53470993041992 91.57664489746094 C49.770957946777344 90.19500732421875 48.96091079711914 88.33010864257812 49.11928939819336 86.61157989501953 C49.27766799926758 84.89305114746094 50.40447998046875 83.32089233398438 52.51444625854492 82.52471923828125 L52.51444625854492 82.52471923828125"></path>
<path fill="none" stroke="black" stroke-width=".3" stroke-opacity="1.0"  filling="0" d="M52.76647186279297 82.86172485351562 L52.76647186279297 82.86172485351562 C53.63357162475586 81.11910247802734 55.08483123779297 79.94949340820312 56.73435974121094 79.35578155517578 C58.383888244628906 78.76206970214844 60.231685638427734 78.7442398071289 61.89186477661133 79.30518341064453 C63.55204391479492 79.86611938476562 65.02460479736328 81.00582122802734 65.92366027832031 82.72715759277344 L65.92366027832031 82.72715759277344 C68.67741394042969 83.48715209960938 69.50406646728516 85.4587631225586 69.12544250488281 87.46331024169922 C68.746826171875 89.46784973144531 67.16293334960938 91.50534057617188 65.09562683105469 92.39707946777344 C63.23395538330078 93.20011901855469 61.052337646484375 93.60658264160156 58.88855743408203 93.5615234375 C56.72477340698242 93.5164566040039 54.578826904296875 93.01986694335938 52.78848648071289 92.01680755615234 C51.51351547241211 91.302490234375 50.18075180053711 89.68115234375 49.613582611083984 87.98011016845703 C49.046417236328125 86.27906799316406 49.24484634399414 84.49832153320312 51.032264709472656 83.46517944335938 C51.56217956542969 83.15888214111328 52.18840408325195 83.06287384033203 52.76647186279297 82.86172485351562 L52.76647186279297 82.86172485351562"></path>
<path fill="none" stroke="black" stroke-width=".3" stroke-opacity="1.0"  filling="0" d="M52.572120666503906 83.90867614746094 L54.903045654296875 83.90867614746094 C56.97750473022461 84.77587127685547 56.943058013916016 85.3941650390625 55.893089294433594 87.31614685058594 L56.9648323059082 89.9210205078125 L55.34519958496094 90.2478256225586 L54.13408279418945 86.6048583984375 L54.49934005737305 86.6048583984375 C54.75566101074219 86.3485336303711 55.26943588256836 86.1983871459961 55.26830291748047 85.83589172363281 C55.26716613769531 85.4722671508789 54.75245666503906 85.32324981689453 54.49453353881836 85.06692504882812 L54.11966323852539 85.06692504882812 L54.11966323852539 90.14209747314453 L52.572120666503906 90.14209747314453 L52.572120666503906 83.90867614746094"></path>
<path fill="none" stroke="black" stroke-width=".3" stroke-opacity="1.0"  filling="0" d="M57.14265441894531 83.90867614746094 L58.719032287597656 83.90867614746094 C58.71879196166992 85.2544174194336 58.709716796875 86.60778045654297 58.719032287597656 87.95535278320312 L58.719032287597656 87.95535278320312 C58.98176193237305 88.21807861328125 59.13566589355469 88.74353790283203 59.50722122192383 88.74353790283203 C59.875396728515625 88.74353790283203 60.0230712890625 88.21807861328125 60.28099822998047 87.95535278320312 L60.28099822998047 87.95535278320312 C60.290245056152344 86.60775756835938 60.2812385559082 85.25445556640625 60.28099822998047 83.90867614746094 L61.85736846923828 83.90867614746094 L61.85736846923828 87.95535278320312 C61.62782287597656 88.5121078491211 61.59369659423828 89.19891357421875 61.168731689453125 89.6256103515625 C59.24939727783203 91.55277252197266 57.79206466674805 89.5251693725586 57.14265441894531 87.95535278320312 L57.14265441894531 83.90867614746094"></path>
<path fill="none" stroke="black" stroke-width=".3" stroke-opacity="1.0"  filling="0" d="M62.63594436645508 83.92308807373047 L66.00497436523438 83.92308807373047 L66.00497436523438 85.08615112304688 L64.20271301269531 85.08615112304688 L64.20271301269531 86.45587158203125 L65.97614288330078 86.45587158203125 L65.97614288330078 87.61892700195312 L64.20271301269531 87.61892700195312 L64.20271301269531 90.14209747314453 L62.63594436645508 90.14209747314453 L62.63594436645508 83.92308807373047"></path></svg>