<svg xmlns="http://www.w3.org/2000/svg" viewBox="0.0 0.0 24.0 24.0" height="200px" width="200px"><path fill="none" stroke="black" stroke-width=".3" stroke-opacity="1.0"  filling="0" d="M248.7986297607422 320.50445556640625 L248.7986297607422 320.50445556640625 C249.12493896484375 320.8307800292969 249.712890625 321.0264892578125 249.77755737304688 321.4833984375 C249.8325958251953 321.872314453125 249.3062286376953 322.1118469238281 249.070556640625 322.4260559082031 L249.070556640625 323.10589599609375 L248.52671813964844 323.10589599609375 L248.52671813964844 322.4260559082031 C248.29104614257812 322.1118469238281 247.7646484375 321.872314453125 247.81968688964844 321.4833984375 C247.88433837890625 321.0264587402344 248.47232055664062 320.8307800292969 248.7986297607422 320.50445556640625 L248.7986297607422 320.50445556640625"></path>
<path fill="none" stroke="black" stroke-width=".3" stroke-opacity="1.0"  filling="0" d="M246.68666076660156 323.28717041015625 L250.679443359375 323.28717041015625 L254.6722412109375 323.28717041015625 C253.647705078125 325.6146240234375 253.44818115234375 326.7008056640625 250.91058349609375 327.2029113769531 L249.070556640625 327.2029113769531 L249.070556640625 327.5654602050781 L250.91058349609375 327.5654602050781 C253.44790649414062 328.0679626464844 253.6476593017578 329.1539001464844 254.6722412109375 331.481201171875 L249.070556640625 331.481201171875 L249.070556640625 331.8437805175781 L254.6722412109375 331.8437805175781 C253.6477508544922 334.1712951660156 253.44830322265625 335.2576599121094 250.91058349609375 335.759521484375 L246.91781616210938 335.759521484375 L242.92503356933594 335.759521484375 C243.94949340820312 333.4320068359375 244.1489715576172 332.34564208984375 246.68666076660156 331.8437805175781 L248.5176544189453 331.8437805175781 L248.5176544189453 331.481201171875 L246.68666076660156 331.481201171875 C244.14942932128906 330.97845458984375 243.94967651367188 329.892822265625 242.92503356933594 327.5654602050781 L248.5176544189453 327.5654602050781 L248.5176544189453 327.2029113769531 L242.92503356933594 327.2029113769531 C243.94949340820312 324.8753967285156 244.1489715576172 323.7890319824219 246.68666076660156 323.28717041015625 L246.68666076660156 323.28717041015625"></path>
<path fill="none" stroke="black" stroke-width=".3" stroke-opacity="1.0"  filling="0" d="M251.78074645996094 323.7947692871094 L251.78074645996094 323.7947692871094 C253.28623962402344 325.3002624511719 250.25991821289062 325.2942199707031 251.78074645996094 323.7947692871094 L251.78074645996094 323.7947692871094"></path>
<path fill="none" stroke="black" stroke-width=".3" stroke-opacity="1.0"  filling="0" d="M248.5176544189453 335.9861145019531 L249.070556640625 335.9861145019531 L249.070556640625 337.8896179199219 L248.5176544189453 337.8896179199219 L248.5176544189453 335.9861145019531"></path>
<path fill="none" stroke="black" stroke-width=".3" stroke-opacity="1.0"  filling="0" d="M244.13055419921875 339.1042175292969 L244.13055419921875 339.1042175292969 C244.4961395263672 339.3942565917969 244.8617401123047 339.684326171875 245.22732543945312 339.974365234375 L244.66534423828125 339.974365234375 C244.39195251464844 339.74066162109375 243.5154571533203 339.5946350097656 243.5867156982422 339.9471740722656 C243.79483032226562 340.9768371582031 245.51956176757812 339.492919921875 245.29983520507812 341.1980285644531 C244.99984741210938 343.5260314941406 243.21282958984375 341.3877258300781 242.97035217285156 341.1799011230469 L243.53233337402344 341.1799011230469 C243.82583618164062 341.45477294921875 244.830078125 341.61663818359375 244.73785400390625 341.2252197265625 C244.57083129882812 340.5163879394531 242.85791015625 341.08160400390625 243.0247344970703 339.9653015136719 C243.09378051757812 339.5032653808594 243.76194763183594 339.3912353515625 244.13055419921875 339.1042175292969 L244.13055419921875 339.1042175292969"></path>
<path fill="none" stroke="black" stroke-width=".3" stroke-opacity="1.0"  filling="0" d="M247.07643127441406 339.1042175292969 L247.07643127441406 339.1042175292969 C247.46014404296875 339.427490234375 247.8438720703125 339.75079345703125 248.2275848388672 340.0740661621094 L248.2275848388672 341.41558837890625 C248.23362731933594 341.614990234375 248.2396697998047 341.8144226074219 248.24571228027344 342.0138244628906 L247.89219665527344 342.0138244628906 C247.7446746826172 341.9791259765625 247.7217254638672 341.748046875 247.71092224121094 341.59686279296875 L247.7018585205078 341.59686279296875 C247.40878295898438 341.76605224609375 247.15676879882812 342.1579895019531 246.82261657714844 342.1044616699219 C246.40280151367188 342.0372009277344 245.74609375 341.713623046875 245.83462524414062 341.2977600097656 C245.9537811279297 340.738037109375 246.7531280517578 340.61492919921875 247.21238708496094 340.27349853515625 L247.6927947998047 340.27349853515625 C247.49337768554688 340.013671875 247.4091033935547 339.5853271484375 247.0945587158203 339.4939880371094 C246.87237548828125 339.4294738769531 246.74407958984375 339.7961120605469 246.56883239746094 339.9471740722656 L246.00686645507812 339.9471740722656 C246.36338806152344 339.66619873046875 246.71990966796875 339.38519287109375 247.07643127441406 339.1042175292969 L247.07643127441406 339.1042175292969"></path>
<path fill="none" stroke="black" stroke-width=".3" stroke-opacity="1.0"  filling="0" d="M250.566162109375 339.1042175292969 L250.566162109375 339.1042175292969 C250.91966247558594 339.4244689941406 251.27316284179688 339.7447509765625 251.6266632080078 340.06500244140625 L251.6266632080078 342.0138244628906 L251.09188842773438 342.0138244628906 L251.09188842773438 340.2372131347656 C250.8773651123047 339.99853515625 250.66282653808594 339.7598571777344 250.44830322265625 339.52117919921875 L250.44830322265625 339.52117919921875 C250.07281494140625 339.6726989746094 249.8218231201172 340.0942687988281 249.70504760742188 340.4819641113281 L249.70504760742188 342.0138244628906 L249.17025756835938 342.0138244628906 L249.17025756835938 339.1948547363281 L249.69598388671875 339.1948547363281 L249.70504760742188 339.61181640625 C249.99208068847656 339.442626953125 250.2791290283203 339.2734069824219 250.566162109375 339.1042175292969 L250.566162109375 339.1042175292969"></path>
<path fill="none" stroke="black" stroke-width=".3" stroke-opacity="1.0"  filling="0" d="M253.63893127441406 339.1042175292969 L253.63893127441406 339.1042175292969 C254.02264404296875 339.427490234375 254.40635681152344 339.75079345703125 254.79006958007812 340.0740661621094 L254.79006958007812 341.41558837890625 C254.79913330078125 341.614990234375 254.80819702148438 341.8144226074219 254.8172607421875 342.0138244628906 L254.45468139648438 342.0138244628906 C254.30715942382812 341.9791259765625 254.28421020507812 341.748046875 254.27340698242188 341.59686279296875 L254.26434326171875 341.59686279296875 C253.9712677001953 341.76605224609375 253.71922302246094 342.1582336425781 253.38511657714844 342.1044616699219 C252.9676513671875 342.0372619628906 252.31813049316406 341.7113342285156 252.4061737060547 341.2977600097656 C252.5248260498047 340.74041748046875 253.3186492919922 340.61492919921875 253.77488708496094 340.27349853515625 L254.25527954101562 340.27349853515625 C254.05889892578125 340.013671875 253.97891235351562 339.5848083496094 253.66612243652344 339.4939880371094 C253.4417266845703 339.4288330078125 253.30960083007812 339.7961120605469 253.13133239746094 339.9471740722656 L252.56935119628906 339.9471740722656 C252.92587280273438 339.66619873046875 253.28240966796875 339.38519287109375 253.63893127441406 339.1042175292969 L253.63893127441406 339.1042175292969"></path>
<path fill="none" stroke="black" stroke-width=".3" stroke-opacity="1.0"  filling="0" d="M247.1580047607422 340.6451110839844 L247.6927947998047 340.6451110839844 C247.44805908203125 341.00164794921875 247.35736083984375 341.54736328125 246.95860290527344 341.7146911621094 C246.72206115722656 341.8139343261719 246.349609375 341.4411315917969 246.39662170410156 341.18896484375 C246.4537811279297 340.8823547363281 246.90420532226562 340.8263854980469 247.1580047607422 340.6451110839844 L247.1580047607422 340.6451110839844"></path>
<path fill="none" stroke="black" stroke-width=".3" stroke-opacity="1.0"  filling="0" d="M253.7205047607422 340.6451110839844 L254.25527954101562 340.6451110839844 C254.01055908203125 341.00164794921875 253.91943359375 341.54638671875 253.52110290527344 341.7146911621094 C253.28683471679688 341.8136901855469 252.92153930664062 341.4389953613281 252.96815490722656 341.18896484375 C253.02487182617188 340.884765625 253.4697265625 340.8263854980469 253.7205047607422 340.6451110839844 L253.7205047607422 340.6451110839844"></path></svg>