<svg xmlns="http://www.w3.org/2000/svg" viewBox="0.0 0.0 24.0 24.0" height="200px" width="200px"><path fill="none" stroke="black" stroke-width=".3" stroke-opacity="1.0"  filling="0" d="M10.186090469360352 7.765867233276367 L13.81431770324707 7.765867233276367 L13.81431770324707 11.394094467163086 L10.186090469360352 11.394094467163086 L10.186090469360352 7.765867233276367"></path>
<path fill="none" stroke="black" stroke-width=".3" stroke-opacity="1.0"  filling="0" d="M15.928155899047852 9.691035270690918 L15.928155899047852 9.691035270690918 C15.199007034301758 12.198650360107422 14.618959426879883 12.779401779174805 12.111122131347656 13.508068084716797 L12.111122131347656 13.508068084716797 C12.111122131347656 13.174542427062988 12.111122131347656 12.841017723083496 12.111122131347656 12.507492065429688 L12.111122131347656 12.507492065429688 C13.949180603027344 11.95995044708252 14.380756378173828 11.528787612915039 14.929346084594727 9.691035270690918 L14.929346084594727 9.691035270690918 C15.262282371520996 9.691035270690918 15.595219612121582 9.691035270690918 15.928155899047852 9.691035270690918 L15.928155899047852 9.691035270690918"></path>
<path fill="none" stroke="black" stroke-width=".3" stroke-opacity="1.0"  filling="0" d="M12.111122131347656 9.926193237304688 L12.111122131347656 9.926193237304688 C11.632197380065918 9.926193237304688 11.153273582458496 9.926193237304688 10.674348831176758 9.926193237304688 L10.674348831176758 9.926193237304688 C10.40456771850586 7.824864387512207 12.158418655395508 8.311508178710938 13.247900009155273 9.011795997619629 L13.247900009155273 9.011795997619629 C12.868973731994629 9.011795997619629 12.4900484085083 9.011795997619629 12.111122131347656 9.011795997619629 L11.88928508758545 8.825844764709473 L11.88928508758545 9.233768463134766 C12.368753433227539 9.233768463134766 12.848221778869629 9.233768463134766 13.327690124511719 9.233768463134766 L13.327690124511719 9.233768463134766 C13.587199211120605 11.332071304321289 11.84975528717041 10.853363037109375 10.755090713500977 10.148164749145508 L10.755090713500977 10.148164749145508 C11.133155822753906 10.148164749145508 11.51121997833252 10.148164749145508 11.88928508758545 10.148164749145508 L12.111122131347656 10.334117889404297 L12.111122131347656 9.926193237304688"></path>
<path fill="none" stroke="black" stroke-width=".3" stroke-opacity="1.0"  filling="0" d="M20.222843170166016 14.64620590209961 L20.570688247680664 14.64620590209961 L21.140913009643555 16.24323844909668 L20.085556030273438 15.91673755645752 L19.664447784423828 16.24323844909668 L20.222843170166016 14.64620590209961"></path>
<path fill="none" stroke="black" stroke-width=".3" stroke-opacity="1.0"  filling="0" d="M13.610559463500977 14.691061019897461 L13.563255310058594 14.97732925415039 C12.542586326599121 14.783681869506836 12.301502227783203 16.1025447845459 13.310155868530273 15.961730003356934 L13.310155868530273 15.405643463134766 L13.617764472961426 15.405643463134766 L13.617764472961426 16.16752815246582 C11.9528226852417 16.470203399658203 11.990654945373535 14.445448875427246 13.610559463500977 14.691061019897461 L13.610559463500977 14.691061019897461"></path>
<path fill="none" stroke="black" stroke-width=".3" stroke-opacity="1.0"  filling="0" d="M22.53676986694336 14.691061019897461 L22.48946762084961 14.97732925415039 C21.468801498413086 14.783744812011719 21.227766036987305 16.10251808166504 22.236230850219727 15.961730003356934 L22.236230850219727 15.405643463134766 L22.543838500976562 15.405643463134766 L22.543838500976562 16.16752815246582 C20.878841400146484 16.47021484375 20.916790008544922 14.445510864257812 22.53676986694336 14.691061019897461 L22.53676986694336 14.691061019897461"></path>
<path fill="none" stroke="black" stroke-width=".3" stroke-opacity="1.0"  filling="0" d="M15.755525588989258 14.991602897644043 L15.755525588989258 14.991602897644043 C17.213775634765625 16.455612182617188 14.197295188903809 16.527376174926758 15.755525588989258 14.991602897644043 L15.755525588989258 14.991602897644043"></path>
<path fill="none" stroke="black" stroke-width=".3" stroke-opacity="1.0"  filling="0" d="M11.569307327270508 15.005739212036133 L11.569307327270508 15.005739212036133 C11.765070915222168 15.149681091308594 11.911376953125 15.525890350341797 11.753900527954102 15.710941314697266 L11.753900527954102 15.710941314697266 C11.78462028503418 15.755887985229492 11.815340042114258 15.800834655761719 11.846059799194336 15.845781326293945 L12.11819076538086 16.24323844909668 L11.746695518493652 16.24323844909668 L11.43202018737793 15.763002395629883 L11.43202018737793 16.24323844909668 L11.12685775756836 16.24323844909668 L11.12685775756836 15.012943267822266 C11.274340629577637 15.010541915893555 11.42182445526123 15.008140563964844 11.569307327270508 15.005739212036133 L11.569307327270508 15.005739212036133"></path>
<path fill="none" stroke="black" stroke-width=".3" stroke-opacity="1.0"  filling="0" d="M14.402755737304688 15.005739212036133 L14.402755737304688 15.005739212036133 C14.598490715026855 15.149701118469238 14.744681358337402 15.525898933410645 14.587212562561035 15.710941314697266 L14.587212562561035 15.710941314697266 C14.6179780960083 15.755887985229492 14.64874267578125 15.800834655761719 14.679508209228516 15.845781326293945 L14.951639175415039 16.24323844909668 L14.580143928527832 16.24323844909668 L14.265466690063477 15.763002395629883 L14.265466690063477 16.24323844909668 L13.96017074584961 16.24323844909668 L13.96017074584961 15.012943267822266 C14.107699394226074 15.010541915893555 14.255227088928223 15.008140563964844 14.402755737304688 15.005739212036133 L14.402755737304688 15.005739212036133"></path>
<path fill="none" stroke="black" stroke-width=".3" stroke-opacity="1.0"  filling="0" d="M18.567630767822266 15.005739212036133 L18.567630767822266 15.005739212036133 C18.880369186401367 15.258819580078125 19.55979347229004 15.913368225097656 18.437549591064453 15.862367630004883 L18.437549591064453 16.24323844909668 L18.132251739501953 16.24323844909668 L18.132251739501953 15.012943267822266 C18.27737808227539 15.010541915893555 18.422504425048828 15.008140563964844 18.567630767822266 15.005739212036133 L18.567630767822266 15.005739212036133"></path>
<path fill="none" stroke="black" stroke-width=".3" stroke-opacity="1.0"  filling="0" d="M7.288347244262695 15.012874603271484 L7.5935773849487305 15.012874603271484 L7.5935773849487305 16.24323844909668 L7.288347244262695 16.24323844909668 L7.288347244262695 15.012874603271484"></path>
<path fill="none" stroke="black" stroke-width=".3" stroke-opacity="1.0"  filling="0" d="M8.766715049743652 15.273112297058105 L8.444971084594727 15.273112297058105 L8.444971084594727 16.24323844909668 L8.139673233032227 16.24323844909668 L8.139673233032227 15.273112297058105 L7.817928314208984 15.273112297058105 L7.817928314208984 15.012943267822266 L8.766715049743652 15.012943267822266 L8.766715049743652 15.273112297058105"></path>
<path fill="none" stroke="black" stroke-width=".3" stroke-opacity="1.0"  filling="0" d="M9.804807662963867 15.273112297058105 L9.483062744140625 15.273112297058105 L9.483062744140625 16.24323844909668 L9.177902221679688 16.24323844909668 L9.177902221679688 15.273112297058105 L8.8560209274292 15.273112297058105 L8.8560209274292 15.012943267822266 L9.804807662963867 15.012943267822266 L9.804807662963867 15.273112297058105"></path>
<path fill="none" stroke="black" stroke-width=".3" stroke-opacity="1.0"  filling="0" d="M11.727800369262695 15.391507148742676 L11.727800369262695 15.391507148742676 C11.642897605895996 15.466057777404785 11.54488468170166 15.562342643737793 11.43202018737793 15.55706787109375 L11.43202018737793 15.242391586303711 C11.542287826538086 15.236708641052246 11.639731407165527 15.324911117553711 11.727800369262695 15.391507148742676 L11.727800369262695 15.391507148742676"></path>
<path fill="none" stroke="black" stroke-width=".3" stroke-opacity="1.0"  filling="0" d="M14.561249732971191 15.391507148742676 L14.561249732971191 15.391507148742676 C14.476320266723633 15.466028213500977 14.378332138061523 15.562349319458008 14.265466690063477 15.55706787109375 L14.265466690063477 15.242391586303711 C14.37573528289795 15.236708641052246 14.473179817199707 15.324910163879395 14.561249732971191 15.391507148742676 L14.561249732971191 15.391507148742676"></path>
<path fill="none" stroke="black" stroke-width=".3" stroke-opacity="1.0"  filling="0" d="M18.75222396850586 15.434052467346191 L18.75222396850586 15.434052467346191 C18.660520553588867 15.51391887664795 18.558818817138672 15.627705574035645 18.437549591064453 15.618645668029785 L18.437549591064453 15.251906394958496 C18.5587158203125 15.249180793762207 18.661977767944336 15.353157043457031 18.75222396850586 15.434052467346191 L18.75222396850586 15.434052467346191"></path>
<path fill="none" stroke="black" stroke-width=".3" stroke-opacity="1.0"  filling="0" d="M16.04886245727539 15.630470275878906 L16.04886245727539 15.630470275878906 C15.283289909362793 16.497272491455078 15.300088882446289 14.746503829956055 16.04886245727539 15.630470275878906 L16.04886245727539 15.630470275878906"></path>
<path fill="none" stroke="black" stroke-width=".3" stroke-opacity="1.0"  filling="0" d="M20.608476638793945 15.673015594482422 L20.16371726989746 15.673015594482422 L20.308074951171875 15.266043663024902 C20.333311080932617 15.176918983459473 20.358549118041992 15.08779525756836 20.383785247802734 14.99867057800293 L20.386096954345703 14.99867057800293 C20.410564422607422 15.083852767944336 20.43503189086914 15.169035911560059 20.45949935913086 15.254218101501465 L20.608476638793945 15.673015594482422"></path>
<path fill="none" stroke="black" stroke-width=".3" stroke-opacity="1.0"  filling="0" d="M2.4546985626220703 15.74872875213623 L2.4546985626220703 15.74872875213623 C2.1786699295043945 15.976179122924805 1.8516737222671509 16.272680282592773 1.4963960647583008 16.231412887573242 L1.5152902603149414 15.945145606994629 C3.032135009765625 16.203413009643555 0.33242058753967285 14.44961166381836 2.3528871536254883 14.648515701293945 L2.3363037109375 14.918200492858887 C1.4213521480560303 14.78221607208252 2.002065420150757 15.291335105895996 2.4546985626220703 15.74872875213623 L2.4546985626220703 15.74872875213623"></path>
<path fill="none" stroke="black" stroke-width=".3" stroke-opacity="1.0"  filling="0" d="M17.763473510742188 15.767623901367188 L17.763473510742188 15.767623901367188 C17.478124618530273 16.013206481933594 16.92537498474121 16.04974365234375 16.63485336303711 15.81030559539795 L16.63485336303711 15.012943267822266 L16.940013885498047 15.012943267822266 L16.940013885498047 15.74166202545166 C17.0616512298584 15.866572380065918 17.344566345214844 15.857847213745117 17.462934494018555 15.72983455657959 L17.462934494018555 15.012943267822266 L17.763473510742188 15.012943267822266 L17.763473510742188 15.767623901367188"></path>
<path fill="none" stroke="black" stroke-width=".3" stroke-opacity="1.0"  filling="0" d="M3.5782909393310547 16.210071563720703 L3.5782909393310547 16.210071563720703 C2.429718494415283 16.39592742919922 2.404177665710449 14.881482124328613 3.568775177001953 15.02476978302002 L3.542813301086426 15.292142868041992 C2.833261489868164 15.173880577087402 2.849669933319092 16.088157653808594 3.552191734313965 15.940388679504395 L3.5782909393310547 16.210071563720703"></path>
<path fill="none" stroke="black" stroke-width=".3" stroke-opacity="1.0"  filling="0" d="M4.989917755126953 16.24323844909668 L4.684619903564453 16.24323844909668 L4.684619903564453 15.746417999267578 L4.161698818206787 15.746417999267578 L4.161698818206787 16.24323844909668 L3.8565378189086914 16.24323844909668 L3.8565378189086914 15.012943267822266 L4.161698818206787 15.012943267822266 L4.161698818206787 15.483802795410156 L4.684619903564453 15.483802795410156 L4.684619903564453 15.012943267822266 L4.989917755126953 15.012943267822266 L4.989917755126953 16.24323844909668"></path>
<path fill="none" stroke="black" stroke-width=".3" stroke-opacity="1.0"  filling="0" d="M6.979107856750488 16.24323844909668 L6.654916286468506 16.24323844909668 L6.5721354484558105 15.6516752243042 C6.561079978942871 15.56178092956543 6.550024032592773 15.471885681152344 6.538968563079834 15.381991386413574 L6.536657810211182 15.381991386413574 C6.516132354736328 15.463232040405273 6.495607376098633 15.544472694396973 6.475081920623779 15.625713348388672 L6.276352882385254 16.24323844909668 L5.9593658447265625 16.24323844909668 L5.78184175491333 15.673015594482422 C5.756604194641113 15.577593803405762 5.731367111206055 15.482171058654785 5.706129550933838 15.386749267578125 L5.703818321228027 15.386749267578125 C5.6943488121032715 15.480586051940918 5.684878826141357 15.574422836303711 5.675409317016602 15.668259620666504 L5.6020073890686035 16.24323844909668 L5.29684591293335 16.24323844909668 L5.488505840301514 15.012943267822266 L5.871827125549316 15.012943267822266 L6.072866916656494 15.63753890991211 C6.092576503753662 15.714837074279785 6.11228609085083 15.792136192321777 6.131995677947998 15.869434356689453 L6.1344428062438965 15.869434356689453 C6.1541523933410645 15.793722152709961 6.173861980438232 15.718009948730469 6.1935715675354 15.642297744750977 L6.401815891265869 15.012943267822266 L6.792204856872559 15.012943267822266 L6.979107856750488 16.24323844909668"></path>
<path fill="none" stroke="black" stroke-width=".3" stroke-opacity="1.0"  filling="0" d="M10.790975570678711 16.24323844909668 L10.033848762512207 16.24323844909668 L10.033848762512207 15.012943267822266 L10.790975570678711 15.012943267822266 L10.790975570678711 15.251906394958496 L10.339010238647461 15.251906394958496 L10.769635200500488 15.72983455657959 L10.339010238647461 15.72983455657959 L10.339010238647461 15.999517440795898 L10.790975570678711 15.999517440795898 L10.790975570678711 16.24323844909668"></path></svg>