<svg xmlns="http://www.w3.org/2000/svg" viewBox="0.0 0.0 24.0 24.0" height="200px" width="200px"><path fill="none" stroke="black" stroke-width=".3" stroke-opacity="1.0"  filling="0" d="M15.586589813232422 9.732207298278809 L15.586589813232422 9.732207298278809 C16.438983917236328 10.35389232635498 17.27998924255371 10.625503540039062 17.17917251586914 11.942011833190918 C17.0371036529541 13.79720401763916 15.044981956481934 14.960057258605957 13.468777656555176 13.809049606323242 C13.084148406982422 13.528177261352539 12.914688110351562 13.034258842468262 12.637642860412598 12.64686393737793 L12.637642860412598 12.64686393737793 C15.026437759399414 15.124367713928223 18.03812026977539 12.141592979431152 15.586589813232422 9.732207298278809 L15.586589813232422 9.732207298278809"></path>
<path fill="none" stroke="black" stroke-width=".3" stroke-opacity="1.0"  filling="0" d="M2.8421125411987305 9.850317001342773 L2.8421125411987305 9.850317001342773 C3.29042387008667 10.000177383422852 3.7387351989746094 10.15003776550293 4.187046527862549 10.299898147583008 L3.9660654067993164 10.665658950805664 C3.602844476699829 10.54373836517334 3.256549119949341 10.252120018005371 2.8764028549194336 10.299898147583008 C0.14487552642822266 10.643205642700195 4.434275150299072 11.969701766967773 4.354686737060547 13.081204414367676 C4.227070331573486 14.863449096679688 2.022695541381836 14.041576385498047 1.1999998092651367 13.7708158493042 L1.462890625 13.382194519042969 C1.8731012344360352 13.52697467803955 2.262709379196167 13.87682056427002 2.6935224533081055 13.816535949707031 C3.1060657501220703 13.758808135986328 3.7718558311462402 13.479290008544922 3.695554733276367 13.069774627685547 C3.5586323738098145 12.334898948669434 -0.22657573223114014 11.484295845031738 1.7018733024597168 10.149917602539062 C2.025034189224243 9.926308631896973 2.4620327949523926 9.950183868408203 2.8421125411987305 9.850317001342773 L2.8421125411987305 9.850317001342773"></path>
<path fill="none" stroke="black" stroke-width=".3" stroke-opacity="1.0"  filling="0" d="M6.846431732177734 9.850317001342773 L6.846431732177734 9.850317001342773 C7.362691879272461 9.850317001342773 7.839035987854004 10.135807991027832 8.328524589538574 10.299898147583008 L8.080873489379883 10.650419235229492 C7.702413082122803 10.529768943786621 7.342126369476318 10.266788482666016 6.945491790771484 10.288468360900879 C5.397239685058594 10.37309455871582 4.772342681884766 12.223042488098145 5.790564060211182 13.343562126159668 C6.5579915046691895 14.188091278076172 7.220820903778076 13.748892784118652 8.046584129333496 13.511734962463379 L8.2789945602417 13.862256050109863 C7.824333667755127 13.99687671661377 7.3874406814575195 14.30673599243164 6.915011405944824 14.266117095947266 C5.16782808303833 14.115897178649902 3.63632869720459 12.109488487243652 5.1902055740356445 10.582127571105957 C5.620648384094238 10.159029960632324 6.294356346130371 10.094253540039062 6.846431732177734 9.850317001342773 L6.846431732177734 9.850317001342773"></path>
<path fill="none" stroke="black" stroke-width=".3" stroke-opacity="1.0"  filling="0" d="M14.523597717285156 9.850317001342773 L14.523597717285156 9.850317001342773 C15.1915922164917 10.076861381530762 15.815348625183105 10.543009757995605 16.211429595947266 11.126669883728027 L16.211429595947266 11.126669883728027 C15.759308815002441 10.871399879455566 15.370431900024414 10.423917770385742 14.85506820678711 10.360858917236328 C12.65070915222168 10.091139793395996 13.583608627319336 12.49694538116455 14.024486541748047 13.286944389343262 L14.024486541748047 13.286944389343262 C12.22311782836914 12.043070793151855 12.575998306274414 10.658281326293945 14.523597717285156 9.850317001342773 L14.523597717285156 9.850317001342773"></path>
<path fill="none" stroke="black" stroke-width=".3" stroke-opacity="1.0"  filling="0" d="M8.72476577758789 9.922707557678223 L9.383895874023438 9.922707557678223 L9.383895874023438 11.641021728515625 L11.456541061401367 11.641021728515625 L11.456541061401367 9.922707557678223 L12.111862182617188 9.922707557678223 L12.111862182617188 14.193726539611816 L11.456541061401367 14.193726539611816 L11.456541061401367 12.079172134399414 L9.383895874023438 12.079172134399414 L9.383895874023438 14.193726539611816 L8.72476577758789 14.193726539611816 L8.72476577758789 9.922707557678223"></path>
<path fill="none" stroke="black" stroke-width=".3" stroke-opacity="1.0"  filling="0" d="M17.06106185913086 9.922707557678223 L19.777599334716797 9.922707557678223 L19.777599334716797 10.360858917236328 L18.745086669921875 10.360858917236328 L18.745086669921875 14.193726539611816 L18.085954666137695 14.193726539611816 L18.085954666137695 10.360858917236328 L17.06106185913086 10.360858917236328 L17.06106185913086 9.922707557678223"></path>
<path fill="none" stroke="black" stroke-width=".3" stroke-opacity="1.0"  filling="0" d="M20.08620834350586 9.922707557678223 L22.798934936523438 9.922707557678223 L22.798934936523438 10.360858917236328 L21.770233154296875 10.360858917236328 L21.770233154296875 14.193726539611816 L21.111101150512695 14.193726539611816 L21.111101150512695 10.360858917236328 L20.08620834350586 10.360858917236328 L20.08620834350586 9.922707557678223"></path></svg>