<svg xmlns="http://www.w3.org/2000/svg" viewBox="0.0 0.0 24.0 24.0" height="200px" width="200px"><path fill="none" stroke="black" stroke-width=".3" stroke-opacity="1.0"  filling="0" d="M21.133529663085938 10.372699737548828 L21.133529663085938 10.372699737548828 C21.658143997192383 10.373927116394043 22.182756423950195 10.375153541564941 22.70737075805664 10.376380920410156 L22.70737075805664 10.376380920410156 C22.76266098022461 10.384675025939941 22.779335021972656 10.396142959594727 22.79572868347168 10.450011253356934 L22.79572868347168 10.455533981323242 C22.618282318115234 10.810403823852539 21.270055770874023 11.17121696472168 20.846370697021484 11.615208625793457 L20.748809814453125 11.782716751098633 C20.538625717163086 12.126657485961914 19.541614532470703 12.987796783447266 19.48421287536621 12.471159934997559 L19.48421287536621 12.471159934997559 C19.48186492919922 11.81156063079834 19.481639862060547 11.151947021484375 19.48421287536621 10.492348670959473 L19.48421287536621 10.492348670959473 C19.522254943847656 10.453692436218262 19.5602970123291 10.415037155151367 19.598339080810547 10.376380920410156 L19.598339080810547 10.376380920410156 C20.110069274902344 10.375153541564941 20.62179946899414 10.373927116394043 21.133529663085938 10.372699737548828 L21.133529663085938 10.372699737548828"></path>
<path fill="none" stroke="black" stroke-width=".3" stroke-opacity="1.0"  filling="0" d="M22.70737075805664 11.392477035522461 L22.70737075805664 11.392477035522461 C22.746105194091797 11.392477035522461 22.770580291748047 11.438488960266113 22.79572868347168 11.467948913574219 L22.79572868347168 11.467948913574219 C22.7980899810791 12.136752128601074 22.798280715942383 12.805567741394043 22.79572868347168 13.474370002746582 L22.79572868347168 13.474370002746582 C22.79067039489746 13.53506851196289 22.73882293701172 13.588946342468262 22.677921295166016 13.594018936157227 L22.677921295166016 13.594018936157227 C21.642807006835938 13.596899032592773 20.607683181762695 13.596158027648926 19.572566986083984 13.594018936157227 L19.572566986083984 13.594018936157227 C19.51597023010254 13.585530281066895 19.500328063964844 13.57380485534668 19.48421287536621 13.518548011779785 L19.48421287536621 13.514866828918457 C19.76268768310547 12.957870483398438 20.98004913330078 13.226127624511719 21.46670150756836 12.357032775878906 L21.46670150756836 12.357032775878906 C21.502607345581055 12.298282623291016 21.53376007080078 12.236459732055664 21.567943572998047 12.17663860321045 L21.567943572998047 12.17663860321045 C21.795269012451172 11.775513648986816 22.31646728515625 11.636960983276367 22.70737075805664 11.392477035522461 L22.70737075805664 11.392477035522461"></path>
<path fill="none" stroke="black" stroke-width=".3" stroke-opacity="1.0"  filling="0" d="M11.445638656616211 11.467948913574219 L12.163532257080078 11.467948913574219 L12.163532257080078 13.003137588500977 L13.350818634033203 13.003137588500977 L13.350818634033203 13.599541664123535 L11.445638656616211 13.599541664123535 L11.445638656616211 11.467948913574219"></path>
<path fill="none" stroke="black" stroke-width=".3" stroke-opacity="1.0"  filling="0" d="M2.019136428833008 11.475312232971191 L3.528554916381836 11.477151870727539 L3.528554916381836 12.033060073852539 L2.019136428833008 12.033060073852539 C1.9640400409698486 12.089031219482422 1.9640400409698486 12.212705612182617 2.019136428833008 12.2686767578125 L2.961602210998535 12.264995574951172 C3.300344705581665 12.281763076782227 3.515024185180664 12.664250373840332 3.7476043701171875 12.911099433898926 L3.7476043701171875 12.958959579467773 C3.5091755390167236 13.210553169250488 3.2748961448669434 13.587898254394531 2.928468704223633 13.599541664123535 L1.2994012832641602 13.597701072692871 L1.2994012832641602 13.041792869567871 L2.928468704223633 13.043634414672852 C2.9835565090179443 12.986797332763672 2.9839956760406494 12.862585067749023 2.928468704223633 12.806177139282227 L1.9841623306274414 12.809858322143555 C1.6455461978912354 12.803086280822754 1.4311918020248413 12.411255836486816 1.2000007629394531 12.163753509521484 L1.2000007629394531 12.115893363952637 C1.4387948513031006 11.864646911621094 1.672818899154663 11.489862442016602 2.019136428833008 11.475312232971191 L2.019136428833008 11.475312232971191"></path>
<path fill="none" stroke="black" stroke-width=".3" stroke-opacity="1.0"  filling="0" d="M4.743452548980713 11.477151870727539 L5.914172172546387 11.477151870727539 L5.914172172546387 12.084600448608398 L4.723204135894775 12.084600448608398 C4.684548377990723 12.12325668334961 4.645892143249512 12.161911964416504 4.607236385345459 12.200568199157715 L4.607236385345459 12.87612533569336 C4.645892143249512 12.91478157043457 4.684548377990723 12.953436851501465 4.723204135894775 12.992093086242676 L5.914172172546387 12.992093086242676 L5.914172172546387 13.599541664123535 L4.461816787719727 13.594018936157227 C4.272832870483398 13.354721069335938 4.08384895324707 13.115423202514648 3.894865036010742 12.87612533569336 L3.894865036010742 12.198728561401367 C4.08384895324707 11.960043907165527 4.272832870483398 11.721359252929688 4.461816787719727 11.482674598693848 L4.743452548980713 11.477151870727539"></path>
<path fill="none" stroke="black" stroke-width=".3" stroke-opacity="1.0"  filling="0" d="M6.158992290496826 11.47899341583252 L6.873204708099365 11.47899341583252 L6.873204708099365 12.259472846984863 L7.77333402633667 12.259472846984863 L7.77333402633667 11.47899341583252 L8.489387512207031 11.47899341583252 L8.489387512207031 13.599541664123535 L7.77333402633667 13.599541664123535 L7.77333402633667 12.872444152832031 L6.873204708099365 12.872444152832031 L6.873204708099365 13.599541664123535 L6.158992290496826 13.599541664123535 L6.158992290496826 11.47899341583252"></path>
<path fill="none" stroke="black" stroke-width=".3" stroke-opacity="1.0"  filling="0" d="M13.643499374389648 11.47899341583252 L15.747481346130371 11.47899341583252 L15.747481346130371 12.06987476348877 L14.359551429748535 12.06987476348877 L14.359551429748535 12.311013221740723 L15.747481346130371 12.311013221740723 L15.747481346130371 12.791450500488281 L14.359551429748535 12.791450500488281 L14.359551429748535 13.008660316467285 L15.747481346130371 13.008660316467285 L15.747481346130371 13.599541664123535 L13.643499374389648 13.599541664123535 L13.643499374389648 11.47899341583252"></path>
<path fill="none" stroke="black" stroke-width=".3" stroke-opacity="1.0"  filling="0" d="M16.029115676879883 11.47899341583252 L17.696840286254883 11.484515190124512 C17.895641326904297 11.69006633758545 18.09444236755371 11.89561653137207 18.293243408203125 12.101167678833008 L18.293243408203125 12.226339340209961 C18.12389373779297 12.42882251739502 17.954545974731445 12.631305694580078 17.78519630432129 12.833788871765137 L18.313491821289062 13.599541664123535 L17.479629516601562 13.599541664123535 L16.74517059326172 12.848514556884766 L16.74517059326172 13.599541664123535 L16.029115676879883 13.599541664123535 L16.029115676879883 11.47899341583252"></path>
<path fill="none" stroke="black" stroke-width=".3" stroke-opacity="1.0"  filling="0" d="M8.736047744750977 11.480833053588867 L9.448420524597168 11.480833053588867 L9.448420524597168 12.907418251037598 C9.493825912475586 12.946074485778809 9.539230346679688 12.984729766845703 9.584635734558105 13.023386001586914 L10.341185569763184 13.023386001586914 C10.386590957641602 12.984729766845703 10.43199634552002 12.946074485778809 10.477401733398438 12.907418251037598 L10.477401733398438 11.480833053588867 L11.189773559570312 11.480833053588867 L11.18425178527832 13.054678916931152 C10.903843879699707 13.244890213012695 10.623435020446777 13.435100555419922 10.343027114868164 13.625311851501465 L9.582795143127441 13.625311851501465 C9.303000450134277 13.435100555419922 9.023205757141113 13.244890213012695 8.74341106414795 13.054678916931152 L8.736047744750977 11.480833053588867"></path>
<path fill="none" stroke="black" stroke-width=".3" stroke-opacity="1.0"  filling="0" d="M16.74517059326172 12.01649284362793 L17.472267150878906 12.01649284362793 C17.505401611328125 12.049626350402832 17.53853416442871 12.082759857177734 17.57166862487793 12.115893363952637 L17.57166862487793 12.226339340209961 C17.53853416442871 12.259472846984863 17.505401611328125 12.292606353759766 17.472267150878906 12.325739860534668 L16.74517059326172 12.325739860534668 L16.74517059326172 12.01649284362793"></path></svg>