<svg xmlns="http://www.w3.org/2000/svg" viewBox="0.0 0.0 24.0 24.0" height="200px" width="200px"><path fill="none" stroke="black" stroke-width=".3" stroke-opacity="1.0"  filling="0" d="M16.34953498840332 8.730299949645996 L17.511564254760742 8.730299949645996 L17.511564254760742 15.163122177124023 L16.349533081054688 15.163122177124023 L16.34953498840332 8.730299949645996"></path>
<path fill="none" stroke="black" stroke-width=".3" stroke-opacity="1.0"  filling="0" d="M8.452457427978516 10.239679336547852 L8.452457427978516 10.239679336547852 C8.936763763427734 10.402503967285156 9.577300071716309 10.336451530456543 9.905377388000488 10.72815227508545 C10.388748168945312 11.305261611938477 10.40043830871582 12.150026321411133 10.647969245910645 12.860962867736816 L10.648042678833008 13.086308479309082 L7.358105659484863 13.101734161376953 C7.626521110534668 13.377240180969238 8.8915433883667 15.381141662597656 9.427447319030762 13.696861267089844 L10.518744468688965 13.989324569702148 C9.663393020629883 14.996463775634766 8.746191024780273 15.761750221252441 7.321210861206055 15.028120994567871 C6.217772960662842 14.460033416748047 5.579123497009277 12.202407836914062 6.513787269592285 11.22546672821045 C7.014957427978516 10.701626777648926 7.806233882904053 10.568275451660156 8.452457427978516 10.239679336547852 L8.452457427978516 10.239679336547852"></path>
<path fill="none" stroke="black" stroke-width=".3" stroke-opacity="1.0"  filling="0" d="M13.512680053710938 10.239679336547852 L13.512680053710938 10.239679336547852 C13.997084617614746 10.402503967285156 14.637726783752441 10.336404800415039 14.965893745422363 10.72815227508545 C15.449310302734375 11.305229187011719 15.460983276367188 12.150026321411133 15.708527565002441 12.860962867736816 L15.708664894104004 13.086308479309082 L12.41866397857666 13.101734161376953 C12.692973136901855 13.383289337158203 13.947944641113281 15.377188682556152 14.488006591796875 13.696861267089844 L15.578961372375488 13.989324569702148 C14.723751068115234 14.99665355682373 13.806694984436035 15.761677742004395 12.381682395935059 15.028120994567871 C11.278051376342773 14.460001945495605 10.63929271697998 12.202595710754395 11.574135780334473 11.22546672821045 C12.07528018951416 10.701654434204102 12.866498947143555 10.568275451660156 13.512680053710938 10.239679336547852 L13.512680053710938 10.239679336547852"></path>
<path fill="none" stroke="black" stroke-width=".3" stroke-opacity="1.0"  filling="0" d="M20.408306121826172 10.239679336547852 L20.408306121826172 10.239679336547852 C20.892654418945312 10.402503967285156 21.533248901367188 10.336420059204102 21.861352920532227 10.72815227508545 C22.344715118408203 11.305251121520996 22.3563289642334 12.150026321411133 22.603816986083984 12.860962867736816 L22.60381317138672 13.086308479309082 L19.313945770263672 13.101734161376953 C19.588342666625977 13.383296966552734 20.84356689453125 15.377107620239258 21.38363265991211 13.696861267089844 L22.47492790222168 13.989324569702148 C21.619455337524414 14.9964599609375 20.70237159729004 15.761701583862305 19.277311325073242 15.028120994567871 C18.173681259155273 14.460002899169922 17.53491973876953 12.202595710754395 18.469762802124023 11.22546672821045 C18.97090721130371 10.701654434204102 19.76212501525879 10.568275451660156 20.408306121826172 10.239679336547852 L20.408306121826172 10.239679336547852"></path>
<path fill="none" stroke="black" stroke-width=".3" stroke-opacity="1.0"  filling="0" d="M3.45328426361084 10.256853103637695 L3.45328426361084 10.256853103637695 C4.305169105529785 10.43889331817627 5.123171329498291 11.036766052246094 5.57636022567749 11.780719757080078 L4.401067733764648 11.780719757080078 C4.129183769226074 11.093544960021973 3.18991756439209 10.733333587646484 2.6915206909179688 11.651832580566406 C2.4968576431274414 12.010578155517578 3.3842084407806396 12.107576370239258 3.777033805847168 12.218393325805664 C4.366295337677002 12.384625434875488 5.8164191246032715 12.516911506652832 5.71919059753418 13.627655982971191 C5.488194942474365 16.266569137573242 2.333667278289795 15.20758056640625 1.3961830139160156 13.973509788513184 L2.5272655487060547 13.665403366088867 C2.9234507083892822 13.901754379272461 3.255983352661133 14.337392807006836 3.7158212661743164 14.374456405639648 C4.038906574249268 14.400497436523438 4.682077407836914 14.10588550567627 4.518733024597168 13.825919151306152 C4.152192115783691 13.197681427001953 -0.1431642770767212 12.457991600036621 1.9220625162124634 10.780607223510742 C2.340790033340454 10.440515518188477 2.9428770542144775 10.431437492370605 3.45328426361084 10.256853103637695 L3.45328426361084 10.256853103637695"></path>
<path fill="none" stroke="black" stroke-width=".3" stroke-opacity="1.0"  filling="0" d="M8.434436798095703 11.196645736694336 L8.434436798095703 11.196645736694336 C8.899454116821289 11.366042137145996 9.238030433654785 11.841071128845215 9.431870460510254 12.296441078186035 L7.393130302429199 12.29508113861084 C7.573608875274658 11.823944091796875 7.964862823486328 11.38115119934082 8.434436798095703 11.196645736694336 L8.434436798095703 11.196645736694336"></path>
<path fill="none" stroke="black" stroke-width=".3" stroke-opacity="1.0"  filling="0" d="M13.494651794433594 11.196645736694336 L13.494651794433594 11.196645736694336 C13.959771156311035 11.365985870361328 14.298559188842773 11.8410005569458 14.492430686950684 12.296441078186035 L12.453689575195312 12.29508113861084 C12.634140014648438 11.824018478393555 13.02518081665039 11.381197929382324 13.494651794433594 11.196645736694336 L13.494651794433594 11.196645736694336"></path>
<path fill="none" stroke="black" stroke-width=".3" stroke-opacity="1.0"  filling="0" d="M20.390281677246094 11.196645736694336 L20.390281677246094 11.196645736694336 C20.855329513549805 11.365960121154785 21.194026947021484 11.8410062789917 21.38771629333496 12.296441078186035 L19.34931755065918 12.29508113861084 C19.529767990112305 11.824017524719238 19.92081069946289 11.381197929382324 20.390281677246094 11.196645736694336 L20.390281677246094 11.196645736694336"></path></svg>