<svg xmlns="http://www.w3.org/2000/svg" viewBox="0.0 0.0 24.0 24.0" height="200px" width="200px"><path fill="none" stroke="black" stroke-width=".3" stroke-opacity="1.0"  filling="0" d="M2.473790168762207 9.784475326538086 L3.758467674255371 9.784475326538086 L3.758467674255371 10.764314651489258 L3.039919853210449 10.764314651489258 L2.3322582244873047 11.994556427001953 L3.039919853210449 13.224798202514648 L3.758467674255371 13.224798202514648 L3.758467674255371 14.204636573791504 L2.473790168762207 14.204636573791504 L1.2000007629394531 11.994556427001953 L2.473790168762207 9.784475326538086"></path>
<path fill="none" stroke="black" stroke-width=".3" stroke-opacity="1.0"  filling="0" d="M4.487903594970703 10.764314651489258 L5.620161533355713 10.764314651489258 L6.327823162078857 11.994556427001953 L5.620161533355713 13.224798202514648 L4.487903594970703 13.224798202514648 L5.195565223693848 11.994556427001953 L4.487903594970703 10.764314651489258"></path>
<path fill="none" stroke="black" stroke-width=".3" stroke-opacity="1.0"  filling="0" d="M11.379436492919922 10.764314651489258 L11.67338752746582 10.764314651489258 L11.67338752746582 12.800201416015625 C11.700592994689941 12.909024238586426 11.715435028076172 12.9259672164917 11.825806617736816 12.941734313964844 L11.825806617736816 13.213911056518555 C11.490516662597656 13.151820182800293 11.417078018188477 13.117199897766113 11.379436492919922 12.778428077697754 L11.379436492919922 10.764314651489258"></path>
<path fill="none" stroke="black" stroke-width=".3" stroke-opacity="1.0"  filling="0" d="M17.737499237060547 10.764314651489258 L18.031452178955078 10.764314651489258 L18.031452178955078 11.537299156188965 C18.606441497802734 11.115631103515625 18.938405990600586 11.523600578308105 19.163711547851562 12.070765495300293 L19.163711547851562 12.538911819458008 C18.940954208374023 13.090496063232422 18.612653732299805 13.509482383728027 18.031452178955078 13.083266258239746 L17.737499237060547 13.224799156188965 L17.737499237060547 10.764314651489258"></path>
<path fill="none" stroke="black" stroke-width=".3" stroke-opacity="1.0"  filling="0" d="M8.53790283203125 11.363104820251465 L8.53790283203125 11.363104820251465 C8.823512077331543 11.449451446533203 9.087448120117188 11.68028736114502 9.21290397644043 11.951007843017578 L8.908065795898438 11.951007843017578 C8.598708152770996 11.360413551330566 7.922175407409668 11.878277778625488 8.461694717407227 12.114314079284668 L8.7991943359375 12.201411247253418 C9.881125450134277 12.778441429138184 8.494146347045898 13.921154975891113 7.862903594970703 12.658668518066406 L8.167741775512695 12.658668518066406 C8.496606826782227 13.26580810546875 9.277594566345215 12.810754776000977 8.722984313964844 12.517136573791504 L8.374597549438477 12.43004035949707 C7.688106536865234 12.08679485321045 7.885833263397217 11.575027465820312 8.53790283203125 11.363104820251465 L8.53790283203125 11.363104820251465"></path>
<path fill="none" stroke="black" stroke-width=".3" stroke-opacity="1.0"  filling="0" d="M10.268951416015625 11.363104820251465 L10.268951416015625 11.363104820251465 C10.415164947509766 11.394889831542969 10.562000274658203 11.448812484741211 10.682661056518555 11.537299156188965 L10.97661304473877 11.40665340423584 L10.97661304473877 13.192136764526367 C10.621079444885254 14.072504043579102 9.981487274169922 14.14395809173584 9.539515495300293 13.279233932495117 L9.844355583190918 13.279233932495117 C10.110430717468262 13.770451545715332 10.478899955749512 13.69544792175293 10.682661056518555 13.203023910522461 L10.682661056518555 13.028830528259277 C10.101460456848145 13.455049514770508 9.773158073425293 13.036060333251953 9.550403594970703 12.484476089477539 L9.550403594970703 12.081653594970703 C9.677244186401367 11.767571449279785 9.945515632629395 11.463728904724121 10.268951416015625 11.363104820251465 L10.268951416015625 11.363104820251465"></path>
<path fill="none" stroke="black" stroke-width=".3" stroke-opacity="1.0"  filling="0" d="M13.720161437988281 11.363104820251465 L13.720161437988281 11.363104820251465 C14.025378227233887 11.455379486083984 14.293594360351562 11.71063232421875 14.438711166381836 11.994556427001953 L14.133872032165527 11.994556427001953 C13.86779499053955 11.503339767456055 13.499327659606934 11.578340530395508 13.295565605163574 12.070765495300293 L13.295565605163574 12.560685157775879 C13.499327659606934 13.053112030029297 13.867795944213867 13.128110885620117 14.133872032165527 12.636894226074219 L14.438711166381836 12.636894226074219 C13.996740341186523 13.501620292663574 13.357145309448242 13.430167198181152 13.00161361694336 12.549798011779785 L13.00161361694336 12.081653594970703 C13.128454208374023 11.767571449279785 13.39672565460205 11.463728904724121 13.720161437988281 11.363104820251465 L13.720161437988281 11.363104820251465"></path>
<path fill="none" stroke="black" stroke-width=".3" stroke-opacity="1.0"  filling="0" d="M15.440322875976562 11.363104820251465 L15.440322875976562 11.363104820251465 C15.758857727050781 11.462203979492188 16.026193618774414 11.760197639465332 16.14798355102539 12.070765495300293 L16.14798355102539 13.224799156188965 L15.854031562805176 13.072379112243652 C14.912267684936523 13.6671781539917 14.073437690734863 12.313905715942383 15.854031562805176 12.081653594970703 L15.854031562805176 12.07076644897461 C15.65346622467041 11.586067199707031 15.29806137084961 11.503416061401367 15.02661418914795 11.98366928100586 L14.72177505493164 11.972782135009766 C14.87218952178955 11.697021484375 15.138293266296387 11.4493989944458 15.440322875976562 11.363104820251465 L15.440322875976562 11.363104820251465"></path>
<path fill="none" stroke="black" stroke-width=".3" stroke-opacity="1.0"  filling="0" d="M20.241531372070312 11.363104820251465 L20.241531372070312 11.363104820251465 C20.56252670288086 11.462969779968262 20.83208465576172 11.759916305541992 20.9600830078125 12.070765495300293 L20.9600830078125 12.549798011779785 C20.5835018157959 13.482272148132324 19.89956283569336 13.482276916503906 19.52298355102539 12.549798011779785 L19.52298355102539 12.081653594970703 C19.649824142456055 11.767572402954102 19.9180965423584 11.463729858398438 20.241531372070312 11.363104820251465 L20.241531372070312 11.363104820251465"></path>
<path fill="none" stroke="black" stroke-width=".3" stroke-opacity="1.0"  filling="0" d="M22.081451416015625 11.363104820251465 L22.081451416015625 11.363104820251465 C22.404924392700195 11.463740348815918 22.67670440673828 11.759706497192383 22.81088638305664 12.070765495300293 L22.81088638305664 13.235685348510742 L22.51693344116211 13.235685348510742 L22.51693344116211 12.070765495300293 C22.292938232421875 11.529446601867676 21.891735076904297 11.52944278717041 21.667741775512695 12.070765495300293 L21.667741775512695 13.235685348510742 L21.373790740966797 13.235685348510742 L21.373790740966797 11.40665340423584 L21.667741775512695 11.537299156188965 C21.788402557373047 11.448813438415527 21.935237884521484 11.394889831542969 22.081451416015625 11.363104820251465 L22.081451416015625 11.363104820251465"></path>
<path fill="none" stroke="black" stroke-width=".3" stroke-opacity="1.0"  filling="0" d="M17.291128158569336 11.373991966247559 L17.291128158569336 11.667943000793457 C17.103431701660156 11.737460136413574 16.94306182861328 11.907590866088867 16.866531372070312 12.09253978729248 L16.866531372070312 13.224799156188965 L16.572582244873047 13.224799156188965 L16.572582244873047 11.395766258239746 L16.866531372070312 11.548185348510742 C16.98989486694336 11.457718849182129 17.1413631439209 11.405193328857422 17.291128158569336 11.373991966247559 L17.291128158569336 11.373991966247559"></path>
<path fill="none" stroke="black" stroke-width=".3" stroke-opacity="1.0"  filling="0" d="M10.258065223693848 11.64616870880127 L10.258065223693848 11.64616870880127 C10.445761680603027 11.715686798095703 10.606130599975586 11.885817527770996 10.682661056518555 12.070765495300293 L10.682661056518555 12.484476089477539 C10.458666801452637 13.025795936584473 10.057463645935059 13.025796890258789 9.83346939086914 12.484476089477539 L9.83346939086914 12.070765495300293 C9.90999984741211 11.885817527770996 10.070368766784668 11.715686798095703 10.258065223693848 11.64616870880127 L10.258065223693848 11.64616870880127"></path>
<path fill="none" stroke="black" stroke-width=".3" stroke-opacity="1.0"  filling="0" d="M18.44516372680664 11.64616870880127 L18.44516372680664 11.64616870880127 C18.63286018371582 11.715686798095703 18.793228149414062 11.885817527770996 18.86975860595703 12.070765495300293 L18.86975860595703 12.549798965454102 C18.645763397216797 13.091117858886719 18.24456214904785 13.091120719909668 18.020565032958984 12.549798965454102 L18.020565032958984 12.070765495300293 C18.097095489501953 11.88581657409668 18.25746726989746 11.715685844421387 18.44516372680664 11.64616870880127 L18.44516372680664 11.64616870880127"></path>
<path fill="none" stroke="black" stroke-width=".3" stroke-opacity="1.0"  filling="0" d="M20.241535186767578 11.64616870880127 L20.241535186767578 11.64616870880127 C20.429231643676758 11.715686798095703 20.589599609375 11.885817527770996 20.66613006591797 12.070765495300293 L20.66613006591797 12.549798965454102 C20.442134857177734 13.091118812561035 20.04093360900879 13.091120719909668 19.816936492919922 12.549798965454102 L19.816936492919922 12.070765495300293 C19.89346694946289 11.88581657409668 20.0538387298584 11.715685844421387 20.241535186767578 11.64616870880127 L20.241535186767578 11.64616870880127"></path>
<path fill="none" stroke="black" stroke-width=".3" stroke-opacity="1.0"  filling="0" d="M15.843144416809082 12.364717483520508 L15.843144416809082 12.571572303771973 C15.50999641418457 13.348920822143555 14.297410011291504 12.515521049499512 15.843144416809082 12.364717483520508 L15.843144416809082 12.364717483520508"></path></svg>