<svg xmlns="http://www.w3.org/2000/svg" viewBox="0.0 0.0 24.0 24.0" height="200px" width="200px"><path fill="none" stroke="black" stroke-width=".3" stroke-opacity="1.0"  filling="0" d="M4.206856727600098 9.785311698913574 L4.206856727600098 12.0 L3.300281524658203 12.384843826293945 L3.300281524658203 10.170154571533203 L4.206856727600098 9.785311698913574"></path>
<path fill="none" stroke="black" stroke-width=".3" stroke-opacity="1.0"  filling="0" d="M3.183871269226074 10.219568252563477 L3.183871269226074 12.434701919555664 L2.2772951126098633 13.780431747436523 L2.2772951126098633 11.565743446350098 L3.183871269226074 10.219568252563477"></path>
<path fill="none" stroke="black" stroke-width=".3" stroke-opacity="1.0"  filling="0" d="M20.974607467651367 11.399251937866211 L20.974607467651367 11.399251937866211 C21.058149337768555 11.508910179138184 21.141691207885742 11.618569374084473 21.22523307800293 11.728227615356445 L20.978614807128906 11.889822006225586 C20.90983772277832 11.757905006408691 20.8410587310791 11.625988960266113 20.772281646728516 11.494071960449219 L20.974607467651367 11.399251937866211"></path>
<path fill="none" stroke="black" stroke-width=".3" stroke-opacity="1.0"  filling="0" d="M21.41910171508789 11.407486915588379 L21.740285873413086 11.407486915588379 C21.711647033691406 11.56893253326416 21.68301010131836 11.730379104614258 21.65437126159668 11.891824722290039 L22.57697296142578 11.891824722290039 L21.954856872558594 12.055644989013672 C22.010278701782227 12.154620170593262 22.065702438354492 12.253594398498535 22.121124267578125 12.352569580078125 L22.68692970275879 12.352569580078125 L22.279605865478516 12.514609336853027 C22.435115814208984 12.615883827209473 22.590625762939453 12.717159271240234 22.746135711669922 12.81843376159668 L22.62059783935547 12.986037254333496 C22.492687225341797 12.906427383422852 22.364776611328125 12.82681655883789 22.236865997314453 12.747206687927246 L22.236865997314453 12.747206687927246 C22.18795394897461 13.05389404296875 22.108993530273438 13.493584632873535 21.809288024902344 13.574989318847656 L21.463619232177734 13.4171781539917 C21.865665435791016 13.419190406799316 21.85584259033203 13.363513946533203 21.91901969909668 12.950647354125977 L21.57602310180664 12.950647354125977 C21.309072494506836 13.16477108001709 21.042123794555664 13.378893852233887 20.77517318725586 13.593017578125 L20.710403442382812 13.439881324768066 C20.89603614807129 13.276803016662598 21.0816707611084 13.113724708557129 21.267303466796875 12.95064640045166 L20.9708251953125 12.766348838806152 C20.838239669799805 12.829933166503906 20.705656051635742 12.89351749420166 20.573070526123047 12.957101821899414 L20.467788696289062 12.811086654663086 C20.616769790649414 12.712260246276855 20.765750885009766 12.613434791564941 20.914731979370117 12.514608383178711 L20.53278350830078 12.352569580078125 L21.070537567138672 12.352569580078125 C21.13530921936035 12.253594398498535 21.20008087158203 12.154620170593262 21.26485252380371 12.055644989013672 L20.646743774414062 11.891824722290039 L21.334300994873047 11.891824722290039 C21.362567901611328 11.730379104614258 21.39083480834961 11.56893253326416 21.41910171508789 11.407486915588379 L21.41910171508789 11.407486915588379"></path>
<path fill="none" stroke="black" stroke-width=".3" stroke-opacity="1.0"  filling="0" d="M6.19317626953125 11.490287780761719 L6.19317626953125 11.490287780761719 C6.299934387207031 11.501810073852539 6.471231460571289 11.488863945007324 6.564442157745361 11.565298080444336 L6.563329219818115 11.584884643554688 C6.534450531005859 12.40001106262207 5.838341236114502 11.04917049407959 5.8495097160339355 11.894941329956055 C5.851771831512451 12.066232681274414 6.052504062652588 12.170942306518555 6.154001235961914 12.308942794799805 L6.225227355957031 12.365479469299316 C7.010692119598389 13.635828018188477 5.567246437072754 13.765802383422852 5.595320224761963 13.104228973388672 L5.595320224761963 13.104228973388672 C5.597157955169678 13.081003189086914 6.832268238067627 13.76965045928955 6.099912643432617 12.63302230834961 L5.984838008880615 12.538203239440918 C5.802433490753174 12.232318878173828 5.925280570983887 11.724954605102539 6.19317626953125 11.490287780761719 L6.19317626953125 11.490287780761719"></path>
<path fill="none" stroke="black" stroke-width=".3" stroke-opacity="1.0"  filling="0" d="M18.882339477539062 11.51744270324707 L18.882339477539062 11.730453491210938 L18.173416137695312 11.730453491210938 L18.173416137695312 11.518332481384277 L18.882339477539062 11.51744270324707"></path>
<path fill="none" stroke="black" stroke-width=".3" stroke-opacity="1.0"  filling="0" d="M13.515002250671387 11.518555641174316 L15.245798110961914 11.518555641174316 L15.245798110961914 13.538262367248535 L13.515002250671387 13.538262367248535 L13.515002250671387 11.518555641174316"></path>
<path fill="none" stroke="black" stroke-width=".3" stroke-opacity="1.0"  filling="0" d="M19.027462005615234 11.518555641174316 L20.230518341064453 11.518555641174316 L19.8427791595459 11.730453491210938 L19.8427791595459 12.402427673339844 L20.191566467285156 12.614770889282227 L19.8427791595459 12.614770889282227 L19.8427791595459 13.3239164352417 L20.27792739868164 13.538484573364258 L18.95757293701172 13.538484573364258 L19.106700897216797 12.134217262268066 L19.37380027770996 12.134217262268066 L19.555870056152344 13.3239164352417 L19.555870056152344 11.730453491210938 L19.027462005615234 11.518555641174316"></path>
<path fill="none" stroke="black" stroke-width=".3" stroke-opacity="1.0"  filling="0" d="M10.148676872253418 11.526346206665039 L10.148676872253418 11.526346206665039 C10.38922119140625 11.708953857421875 10.5881929397583 12.10914134979248 10.45361328125 12.379502296447754 L10.45361328125 12.379502296447754 C10.910995483398438 12.966267585754395 10.964519500732422 13.53705883026123 9.968606948852539 13.491074562072754 L9.812132835388184 13.487513542175293 C9.428464889526367 13.501724243164062 9.733260154724121 13.215489387512207 9.744690895080566 12.735410690307617 L9.744690895080566 12.285795211791992 C9.738965034484863 11.719436645507812 9.34365177154541 11.520745277404785 9.83617115020752 11.532801628112793 L9.965492248535156 11.531020164489746 C10.026554107666016 11.529461860656738 10.087615013122559 11.527904510498047 10.148676872253418 11.526346206665039 L10.148676872253418 11.526346206665039"></path>
<path fill="none" stroke="black" stroke-width=".3" stroke-opacity="1.0"  filling="0" d="M8.763996124267578 11.543707847595215 L8.763996124267578 11.543707847595215 C8.788734436035156 11.519073486328125 8.846609115600586 11.545867919921875 8.863489151000977 11.576427459716797 L9.021520614624023 13.144737243652344 C9.34465503692627 13.856876373291016 8.803921699523926 13.40382194519043 8.800498008728027 13.326364517211914 L8.800498008728027 13.326364517211914 C8.764142990112305 12.906872749328613 8.727787971496582 12.487380027770996 8.69143295288086 12.067888259887695 L8.69143295288086 12.067888259887695 C8.500457763671875 12.505187034606934 8.309483528137207 12.942484855651855 8.118508338928223 13.379783630371094 L8.118508338928223 13.379783630371094 C8.086559295654297 13.424077033996582 7.986977577209473 13.415088653564453 7.9549102783203125 13.370881080627441 L7.9549102783203125 13.370881080627441 C7.763786792755127 12.944562911987305 7.572663307189941 12.518244743347168 7.381539821624756 12.091926574707031 L7.381539821624756 12.091926574707031 C7.351417064666748 12.467422485351562 7.321293830871582 12.842917442321777 7.291171073913574 13.218413352966309 L7.291171073913574 13.218413352966309 C7.289585590362549 13.310388565063477 7.317208290100098 13.489950180053711 7.225287437438965 13.486401557922363 L7.165635108947754 13.486401557922363 C6.7972187995910645 13.498747825622559 7.015318393707275 13.4508056640625 7.108877182006836 13.227538108825684 L7.108877182006836 13.227538108825684 C7.167071342468262 12.661032676696777 6.961196422576904 11.152048110961914 7.377756118774414 11.540369033813477 L7.377756118774414 11.540369033813477 C7.613321781158447 12.06299114227295 7.848887920379639 12.585612297058105 8.084453582763672 13.108234405517578 L8.084453582763672 13.108234405517578 C8.310967445373535 12.586725234985352 8.537482261657715 12.065217018127441 8.763996124267578 11.543707847595215 L8.763996124267578 11.543707847595215"></path>
<path fill="none" stroke="black" stroke-width=".3" stroke-opacity="1.0"  filling="0" d="M16.292600631713867 11.609814643859863 L16.292600631713867 12.915700912475586 L16.06356430053711 12.915700912475586 L16.06356430053711 11.671247482299805 C16.139909744262695 11.65077018737793 16.21625518798828 11.630291938781738 16.292600631713867 11.609814643859863 L16.292600631713867 11.609814643859863"></path>
<path fill="none" stroke="black" stroke-width=".3" stroke-opacity="1.0"  filling="0" d="M2.1606626510620117 11.615156173706055 L2.1606626510620117 13.829845428466797 L1.2540864944458008 14.214688301086426 L1.2540864944458008 12.0 L2.1606626510620117 11.615156173706055"></path>
<path fill="none" stroke="black" stroke-width=".3" stroke-opacity="1.0"  filling="0" d="M10.119739532470703 11.635411262512207 L10.119739532470703 11.635411262512207 C10.657845497131348 12.327942848205566 10.021905899047852 12.416648864746094 9.986414909362793 12.342107772827148 L9.986190795898438 11.65744686126709 C10.024688720703125 11.633919715881348 10.074864387512207 11.640085220336914 10.119739532470703 11.635411262512207 L10.119739532470703 11.635411262512207"></path>
<path fill="none" stroke="black" stroke-width=".3" stroke-opacity="1.0"  filling="0" d="M16.509395599365234 11.697957038879395 L16.96880340576172 11.697957038879395 L16.96880340576172 12.915924072265625 L16.509395599365234 12.915924072265625 L16.509395599365234 11.697957038879395"></path>
<path fill="none" stroke="black" stroke-width=".3" stroke-opacity="1.0"  filling="0" d="M13.812817573547363 11.733123779296875 L14.939748764038086 11.733123779296875 L14.939748764038086 12.386624336242676 L13.812817573547363 12.386624336242676 L13.812817573547363 11.733123779296875"></path>
<path fill="none" stroke="black" stroke-width=".3" stroke-opacity="1.0"  filling="0" d="M11.506424903869629 11.785876274108887 L11.506424903869629 11.785876274108887 C11.848770141601562 11.645145416259766 12.212300300598145 11.485615730285645 12.581718444824219 11.50876235961914 L12.591512680053711 11.510320663452148 C12.68713092803955 11.522480010986328 12.800048828125 11.51905632019043 12.871074676513672 11.584217071533203 L12.869071006774902 11.618049621582031 C12.863947868347168 11.712532043457031 12.862859725952148 11.807219505310059 12.862615585327148 11.901841163635254 L12.86306095123291 11.991987228393555 C12.842020988464355 12.03171443939209 12.552657127380371 11.59797477722168 12.22091293334961 11.620498657226562 C11.699299812316895 11.655914306640625 11.479547500610352 11.929007530212402 11.504866600036621 12.475212097167969 C11.570840835571289 13.898435592651367 12.557477951049805 12.971003532409668 12.878640174865723 12.973795890808105 C12.991756439208984 12.97477912902832 12.929217338562012 13.408831596374512 12.801628112792969 13.449453353881836 C11.498373031616211 13.864387512207031 11.16159439086914 12.771368026733398 11.506424903869629 11.785876274108887 L11.506424903869629 11.785876274108887"></path>
<path fill="none" stroke="black" stroke-width=".3" stroke-opacity="1.0"  filling="0" d="M16.572385787963867 11.84018611907959 L16.90625762939453 12.005786895751953 L16.572385787963867 11.84018611907959"></path>
<path fill="none" stroke="black" stroke-width=".3" stroke-opacity="1.0"  filling="0" d="M18.12200164794922 11.847309112548828 L18.92218017578125 11.847309112548828 L18.92218017578125 12.058984756469727 L18.12200164794922 12.058984756469727 L18.12200164794922 11.847309112548828"></path>
<path fill="none" stroke="black" stroke-width=".3" stroke-opacity="1.0"  filling="0" d="M22.104211807250977 11.87246036529541 L21.908782958984375 11.777195930480957 C21.982606887817383 11.658188819885254 22.056428909301758 11.53918170928955 22.130252838134766 11.420174598693848 L22.44297981262207 11.547491073608398 C22.33005714416504 11.655814170837402 22.217134475708008 11.764137268066406 22.104211807250977 11.87246036529541 L22.104211807250977 11.87246036529541"></path>
<path fill="none" stroke="black" stroke-width=".3" stroke-opacity="1.0"  filling="0" d="M21.590045928955078 12.055645942687988 L21.64435577392578 12.055645942687988 C21.699556350708008 12.154620170593262 21.7547550201416 12.253595352172852 21.809955596923828 12.352569580078125 L21.411535263061523 12.352569580078125 C21.471038818359375 12.253595352172852 21.530542373657227 12.154620170593262 21.590045928955078 12.055645942687988 L21.590045928955078 12.055645942687988"></path>
<path fill="none" stroke="black" stroke-width=".3" stroke-opacity="1.0"  filling="0" d="M16.572608947753906 12.129765510559082 L16.906036376953125 12.129765510559082 L16.906036376953125 12.714710235595703 L16.572608947753906 12.714710235595703 L16.572608947753906 12.129765510559082"></path>
<path fill="none" stroke="black" stroke-width=".3" stroke-opacity="1.0"  filling="0" d="M18.173416137695312 12.180736541748047 L18.882339477539062 12.180736541748047 L18.882339477539062 12.395305633544922 L18.173416137695312 12.395305633544922 L18.173416137695312 12.180736541748047"></path>
<path fill="none" stroke="black" stroke-width=".3" stroke-opacity="1.0"  filling="0" d="M16.69502830505371 12.239052772521973 L16.783838272094727 12.605644226074219 L16.69502830505371 12.239052772521973"></path>
<path fill="none" stroke="black" stroke-width=".3" stroke-opacity="1.0"  filling="0" d="M18.173416137695312 12.504816055297852 L18.882339477539062 12.504816055297852 L18.882339477539062 12.719161987304688 L18.173416137695312 12.719161987304688 L18.173416137695312 12.504816055297852"></path>
<path fill="none" stroke="black" stroke-width=".3" stroke-opacity="1.0"  filling="0" d="M21.274200439453125 12.514609336853027 L21.95663833618164 12.514609336853027 C22.044336318969727 12.587912559509277 22.13203239440918 12.661216735839844 22.219730377197266 12.734519958496094 L21.02023696899414 12.734296798706055 C21.104890823364258 12.661067962646484 21.189546585083008 12.587838172912598 21.274200439453125 12.514609336853027 L21.274200439453125 12.514609336853027"></path>
<path fill="none" stroke="black" stroke-width=".3" stroke-opacity="1.0"  filling="0" d="M13.812817573547363 12.60119342803955 L14.939748764038086 12.60119342803955 L14.939748764038086 13.324361801147461 L13.812817573547363 13.324361801147461 L13.812817573547363 12.60119342803955"></path>
<path fill="none" stroke="black" stroke-width=".3" stroke-opacity="1.0"  filling="0" d="M18.173416137695312 12.859610557556152 L18.882339477539062 12.859610557556152 L18.882339477539062 13.538707733154297 L18.173416137695312 13.538707733154297 L18.173416137695312 12.859610557556152"></path>
<path fill="none" stroke="black" stroke-width=".3" stroke-opacity="1.0"  filling="0" d="M18.395998001098633 13.041682243347168 L18.654638290405273 13.041682243347168 L18.654638290405273 13.374887466430664 L18.395998001098633 13.374887466430664 L18.395998001098633 13.041682243347168"></path>
<path fill="none" stroke="black" stroke-width=".3" stroke-opacity="1.0"  filling="0" d="M10.281112670898438 13.382454872131348 L10.281112670898438 13.382454872131348 C10.163066864013672 13.36243724822998 10.037120819091797 13.282774925231934 9.98930835723877 13.173005104064941 L9.98908519744873 13.162544250488281 C9.988195419311523 12.97921085357666 9.9873046875 12.795877456665039 9.986414909362793 12.612544059753418 L9.986414909362793 12.46831226348877 C10.050518035888672 12.469870567321777 10.11462116241455 12.471427917480469 10.17872428894043 12.472986221313477 L10.180505752563477 12.472986221313477 C10.778948783874512 12.682311058044434 10.632760047912598 13.028514862060547 10.281112670898438 13.382454872131348 L10.281112670898438 13.382454872131348"></path>
<path fill="none" stroke="black" stroke-width=".3" stroke-opacity="1.0"  filling="0" d="M17.825077056884766 13.511775016784668 L17.58179473876953 13.599472045898438 C17.36833953857422 13.460803985595703 17.154882431030273 13.322134971618652 16.94142723083496 13.183466911315918 L16.523862838745117 13.186360359191895 C16.292970657348633 13.322432518005371 16.06208038330078 13.458503723144531 15.831188201904297 13.594575881958008 L15.640657424926758 13.494413375854492 C15.816571235656738 13.367171287536621 15.992486000061035 13.239928245544434 16.168399810791016 13.112686157226562 L15.65601634979248 13.112686157226562 L15.809152603149414 11.571307182312012 C15.938694953918457 11.523452758789062 16.0682373046875 11.475597381591797 16.19778060913086 11.427742958068848 L17.185821533203125 11.518777847290039 L17.185821533203125 12.915924072265625 L17.415081024169922 12.915924072265625 L17.239240646362305 11.518777847290039 L17.669713973999023 11.518777847290039 L17.8226261138916 13.112909317016602 L17.304235458374023 13.112909317016602 C17.47784996032715 13.245864868164062 17.65146255493164 13.378819465637207 17.825077056884766 13.511775016784668 L17.825077056884766 13.511775016784668"></path></svg>