<svg xmlns="http://www.w3.org/2000/svg" viewBox="0.0 0.0 24.0 24.0" height="200px" width="200px"><path fill="none" stroke="black" stroke-width=".3" stroke-opacity="1.0"  filling="0" d="M3.4866113662719727 17.802623748779297 L3.4866113662719727 17.802623748779297 C3.7232377529144287 17.845809936523438 3.9598639011383057 17.888994216918945 4.196490287780762 17.932180404663086 L4.168325901031494 18.416744232177734 C3.7919375896453857 18.30477523803711 3.0149106979370117 17.877729415893555 2.9175548553466797 18.81674575805664 C2.8470613956451416 19.496667861938477 6.111651420593262 21.548377990722656 3.295024871826172 21.881847381591797 C3.0013089179992676 21.916622161865234 2.716625928878784 21.75787925720215 2.427426338195801 21.69589614868164 L2.455453872680664 21.183101654052734 C2.7146570682525635 21.265762329101562 2.972470283508301 21.509252548217773 3.2330636978149414 21.43108367919922 C5.32671594619751 20.803068161010742 1.9827299118041992 19.665353775024414 2.3878602981567383 18.827943801879883 C2.6060237884521484 18.376996994018555 3.120361089706421 18.144397735595703 3.4866113662719727 17.802623748779297 L3.4866113662719727 17.802623748779297"></path>
<path fill="none" stroke="black" stroke-width=".3" stroke-opacity="1.0"  filling="0" d="M5.876310348510742 17.85285186767578 L5.876310348510742 17.85285186767578 C7.633518218994141 18.06083869934082 7.34672737121582 19.97089385986328 5.800436496734619 20.17461585998535 L5.484859466552734 20.17461585998535 L5.484859466552734 21.831157684326172 L4.978035926818848 21.831157684326172 L4.978035926818848 17.85305404663086 L5.783470153808594 17.85305404663086 C5.814416885375977 17.852985382080078 5.845363616943359 17.852914810180664 5.876310348510742 17.852846145629883 L5.876310348510742 17.852846145629883"></path>
<path fill="none" stroke="black" stroke-width=".3" stroke-opacity="1.0"  filling="0" d="M11.236982345581055 17.85305404663086 L13.428716659545898 17.85305404663086 L11.73912239074707 21.381206512451172 L13.468145370483398 21.381206512451172 L13.468145370483398 21.831157684326172 L11.180721282958984 21.831157684326172 L11.180721282958984 21.363561630249023 L12.893524169921875 18.281494140625 C12.726369857788086 18.289003372192383 12.559216499328613 18.2965145111084 12.392062187194824 18.30402374267578 L11.236982345581055 18.30402374267578 L11.236982345581055 17.85305404663086"></path>
<path fill="none" stroke="black" stroke-width=".3" stroke-opacity="1.0"  filling="0" d="M16.716554641723633 17.85326385498047 L18.54832649230957 17.85326385498047 L18.54832649230957 18.304031372070312 L17.224328994750977 18.304031372070312 L17.224328994750977 19.554800033569336 L18.480731964111328 19.554800033569336 L18.480731964111328 20.004480361938477 L17.224328994750977 20.004480361938477 L17.224328994750977 21.381210327148438 L18.61042594909668 21.381210327148438 L18.61042594909668 21.83116340637207 L16.716554641723633 21.83116340637207 L16.716554641723633 17.85326385498047"></path>
<path fill="none" stroke="black" stroke-width=".3" stroke-opacity="1.0"  filling="0" d="M7.562375068664551 17.85333251953125 L8.069402694702148 17.85333251953125 L8.069402694702148 21.831098556518555 L7.562375068664551 21.831098556518555 L7.562375068664551 17.85333251953125"></path>
<path fill="none" stroke="black" stroke-width=".3" stroke-opacity="1.0"  filling="0" d="M13.807409286499023 17.85333251953125 L14.315114974975586 17.85333251953125 L14.315114974975586 19.58303451538086 L15.650447845458984 17.85333251953125 L16.253232955932617 17.85333251953125 L14.76017951965332 19.735260009765625 L16.37735939025879 21.831098556518555 L15.734872817993164 21.831098556518555 L14.315114974975586 19.89861297607422 L14.315114974975586 21.831098556518555 L13.807409286499023 21.831098556518555 L13.807409286499023 17.85333251953125"></path>
<path fill="none" stroke="black" stroke-width=".3" stroke-opacity="1.0"  filling="0" d="M19.812807083129883 17.85333251953125 L23.640384674072266 17.85333251953125 L23.640384674072266 21.831098556518555 L19.812807083129883 21.831098556518555 L19.812807083129883 17.85333251953125"></path>
<path fill="none" stroke="black" stroke-width=".3" stroke-opacity="1.0"  filling="0" d="M8.518675804138184 17.85340118408203 L10.86812973022461 17.85340118408203 L10.86812973022461 18.304237365722656 L9.949699401855469 18.304237365722656 L9.949699401855469 21.831100463867188 L9.442670822143555 21.831100463867188 L9.442670822143555 18.304237365722656 L8.518675804138184 18.304237365722656 L8.518675804138184 17.85340118408203"></path>
<path fill="none" stroke="black" stroke-width=".3" stroke-opacity="1.0"  filling="0" d="M21.73613166809082 18.15776824951172 L21.73613166809082 18.15776824951172 C21.793428421020508 18.245349884033203 21.851137161254883 18.34983253479004 21.840373992919922 18.453935623168945 L21.74258041381836 18.44219398498535 C21.771148681640625 18.322025299072266 21.48812484741211 18.281919479370117 21.503215789794922 18.15932846069336 L21.60277557373047 18.173715591430664 C21.560033798217773 18.376848220825195 21.569067001342773 18.376094818115234 21.73613166809082 18.15776824951172 L21.73613166809082 18.15776824951172"></path>
<path fill="none" stroke="black" stroke-width=".3" stroke-opacity="1.0"  filling="0" d="M21.331649780273438 18.22509002685547 L21.331649780273438 18.313247680664062 C20.975330352783203 18.548290252685547 20.261653900146484 18.59151840209961 20.262691497802734 19.01837730407715 C20.26372528076172 19.443294525146484 20.977590560913086 19.477874755859375 21.335041046142578 19.707624435424805 L21.335041046142578 19.79720687866211 C20.89137840270996 19.53759765625 20.005163192749023 19.532411575317383 20.00405502319336 19.01837730407715 C20.00294303894043 18.50286293029785 20.889118194580078 18.489519119262695 21.331649780273438 18.22509002685547 L21.331649780273438 18.22509002685547"></path>
<path fill="none" stroke="black" stroke-width=".3" stroke-opacity="1.0"  filling="0" d="M5.484859466552734 18.28150177001953 L5.636947154998779 18.28150177001953 C7.030112266540527 18.54322052001953 6.713706016540527 19.335689544677734 5.620048522949219 19.752092361450195 L5.484859466552734 18.28150177001953"></path>
<path fill="none" stroke="black" stroke-width=".3" stroke-opacity="1.0"  filling="0" d="M21.496767044067383 18.694791793823242 L21.85000991821289 18.883390426635742 C21.799331665039062 18.943622589111328 21.66683578491211 18.946338653564453 21.613906860351562 18.888072967529297 L21.496767044067383 18.694791793823242"></path>
<path fill="none" stroke="black" stroke-width=".3" stroke-opacity="1.0"  filling="0" d="M21.760698318481445 18.820884704589844 L21.760021209716797 18.848440170288086 C21.745647430419922 18.86664581298828 21.70556640625 18.864208221435547 21.690460205078125 18.846607208251953 L21.760700225830078 18.82088851928711"></path>
<path fill="none" stroke="black" stroke-width=".3" stroke-opacity="1.0"  filling="0" d="M21.497447967529297 19.267852783203125 L21.84939956665039 19.398426055908203 L21.497447967529297 19.267852783203125"></path>
<path fill="none" stroke="black" stroke-width=".3" stroke-opacity="1.0"  filling="0" d="M21.757034301757812 19.61043930053711 L21.853336334228516 19.93816375732422 L21.496767044067383 19.835891723632812 L21.757034301757812 19.61043930053711"></path>
<path fill="none" stroke="black" stroke-width=".3" stroke-opacity="1.0"  filling="0" d="M22.01648712158203 19.776714324951172 L22.01648712158203 19.776714324951172 C22.478790283203125 20.05914878845215 23.403396606445312 20.0822696685791 23.403396606445312 20.624019622802734 C23.403396606445312 21.159469604492188 22.478790283203125 21.164323806762695 22.01648712158203 21.434476852416992 L22.01648712158203 21.33831024169922 C22.388935089111328 21.1002140045166 23.133832931518555 21.066068649291992 23.133832931518555 20.624019622802734 C23.133832931518555 20.176002502441406 22.388935089111328 20.126018524169922 22.01648712158203 19.877017974853516 L22.01648712158203 19.776714324951172"></path>
<path fill="none" stroke="black" stroke-width=".3" stroke-opacity="1.0"  filling="0" d="M21.496829986572266 20.13314437866211 L21.84980010986328 20.139728546142578 L21.850078582763672 20.459239959716797 L21.496835708618164 20.462364196777344 L21.496835708618164 20.13314437866211"></path>
<path fill="none" stroke="black" stroke-width=".3" stroke-opacity="1.0"  filling="0" d="M21.498455047607422 20.660594940185547 L21.84980010986328 20.660736083984375 L21.850078582763672 21.018592834472656 L21.4966983795166 21.04254913330078 L21.498462677001953 20.660598754882812"></path>
<path fill="none" stroke="black" stroke-width=".3" stroke-opacity="1.0"  filling="0" d="M21.84823989868164 21.21940040588379 L21.84823989868164 21.52174186706543 L21.497241973876953 21.525348663330078 L21.497241973876953 21.219409942626953 L21.84823989868164 21.21940040588379"></path>
<path fill="none" stroke="black" stroke-width=".3" stroke-opacity="1.0"  filling="0" d="M7.610966682434082 23.020164489746094 L7.610966682434082 23.020164489746094 C8.628507614135742 24.418237686157227 6.56196403503418 24.473766326904297 7.610966682434082 23.020164489746094 L7.610966682434082 23.020164489746094"></path>
<path fill="none" stroke="black" stroke-width=".3" stroke-opacity="1.0"  filling="0" d="M17.223445892333984 23.020164489746094 L17.223445892333984 23.020164489746094 C17.30056381225586 23.034778594970703 17.377683639526367 23.049392700195312 17.454801559448242 23.064006805419922 L17.454801559448242 23.214736938476562 C16.666057586669922 23.004037857055664 16.70255470275879 24.27574348449707 17.454801559448242 24.0773868560791 L17.454801559448242 24.231643676757812 C16.29311752319336 24.423534393310547 16.88299560546875 23.411230087280273 17.223445892333984 23.020164489746094 L17.223445892333984 23.020164489746094"></path>
<path fill="none" stroke="black" stroke-width=".3" stroke-opacity="1.0"  filling="0" d="M21.88658905029297 23.020164489746094 L21.88658905029297 23.020164489746094 C21.960224151611328 23.033601760864258 22.033859252929688 23.047040939331055 22.107494354248047 23.06047821044922 L22.107494354248047 23.209510803222656 C21.147201538085938 22.951078414916992 22.918453216552734 24.495927810668945 21.555200576782227 24.21582794189453 L21.555200576782227 24.056276321411133 C22.28317642211914 24.302682876586914 21.459272384643555 23.405702590942383 21.88658905029297 23.020164489746094 L21.88658905029297 23.020164489746094"></path>
<path fill="none" stroke="black" stroke-width=".3" stroke-opacity="1.0"  filling="0" d="M23.359893798828125 23.020164489746094 L23.359893798828125 23.020164489746094 C23.43350601196289 23.033601760864258 23.507118225097656 23.047040939331055 23.580730438232422 23.06047821044922 L23.580730438232422 23.209510803222656 C22.620145797729492 22.95108413696289 24.39166259765625 24.49605941772461 23.028505325317383 24.21582794189453 L23.028505325317383 24.056276321411133 C23.756155014038086 24.30264663696289 22.932458877563477 23.405654907226562 23.359893798828125 23.020164489746094 L23.359893798828125 23.020164489746094"></path>
<path fill="none" stroke="black" stroke-width=".3" stroke-opacity="1.0"  filling="0" d="M3.8849172592163086 23.03231430053711 L4.0391764640808105 23.828380584716797 C4.129584312438965 23.95194435119629 4.40808629989624 23.95194435119629 4.4984941482543945 23.828380584716797 L4.4984941482543945 23.03231430053711 L4.6527533531188965 23.805580139160156 C4.548748970031738 24.384645462036133 3.988680124282837 24.384902954101562 3.8849172592163086 23.805580139160156 L3.8849172592163086 23.03231430053711"></path>
<path fill="none" stroke="black" stroke-width=".3" stroke-opacity="1.0"  filling="0" d="M8.94290542602539 23.03231430053711 L9.23737621307373 23.03231430053711 C9.788911819458008 23.229637145996094 9.583843231201172 23.393064498901367 9.200592994689941 23.744230270385742 L8.94290542602539 24.256210327148438 L8.94290542602539 23.03231430053711"></path>
<path fill="none" stroke="black" stroke-width=".3" stroke-opacity="1.0"  filling="0" d="M2.4057083129882812 23.032384872436523 L2.9755115509033203 23.032384872436523 L2.559968948364258 23.165672302246094 L2.559968948364258 23.554750442504883 L2.9563064575195312 23.688106536865234 L2.559968948364258 23.688106536865234 L2.559968948364258 24.122920989990234 L2.9983158111572266 24.256214141845703 L2.4057083129882812 24.256214141845703 L2.4057083129882812 23.032384872436523"></path>
<path fill="none" stroke="black" stroke-width=".3" stroke-opacity="1.0"  filling="0" d="M5.539353847503662 23.032384872436523 L5.853166103363037 23.032384872436523 C6.294585227966309 23.176652908325195 6.239999294281006 23.303874969482422 5.960191249847412 23.642568588256836 L5.960191249847412 23.64603042602539 C6.004575729370117 23.685775756835938 6.048960208892822 23.725521087646484 6.093344688415527 23.76526641845703 L6.265181541442871 24.256145477294922 L5.958291530609131 23.842430114746094 C5.893434524536133 23.795671463012695 5.828577041625977 23.748912811279297 5.7637200355529785 23.7021541595459 L5.539355754852295 24.256145477294922 L5.539355754852295 23.032384872436523"></path>
<path fill="none" stroke="black" stroke-width=".3" stroke-opacity="1.0"  filling="0" d="M10.485162734985352 23.032384872436523 L11.05489730834961 23.032384872436523 L10.639421463012695 23.165605545043945 L10.639421463012695 23.55481719970703 L11.035623550415039 23.688106536865234 L10.639421463012695 23.688106536865234 L10.639421463012695 24.122920989990234 L11.077836036682129 24.256145477294922 L10.485162734985352 24.256145477294922 L10.485162734985352 23.032384872436523"></path>
<path fill="none" stroke="black" stroke-width=".3" stroke-opacity="1.0"  filling="0" d="M13.82912540435791 23.032384872436523 L14.484847068786621 24.042301177978516 L14.632048606872559 23.032384872436523 L14.632048606872559 24.256145477294922 L13.976394653320312 23.25335693359375 L13.82912540435791 24.256145477294922 L13.82912540435791 23.032384872436523"></path>
<path fill="none" stroke="black" stroke-width=".3" stroke-opacity="1.0"  filling="0" d="M18.307334899902344 23.032384872436523 L18.46159553527832 24.122920989990234 L18.86309051513672 24.256145477294922 L18.307334899902344 24.256145477294922 L18.307334899902344 23.032384872436523"></path>
<path fill="none" stroke="black" stroke-width=".3" stroke-opacity="1.0"  filling="0" d="M12.374552726745605 23.032453536987305 L12.942659378051758 24.256214141845703 L12.216695785522461 23.937108993530273 L11.964234352111816 24.256214141845703 L12.374552726745605 23.032453536987305"></path>
<path fill="none" stroke="black" stroke-width=".3" stroke-opacity="1.0"  filling="0" d="M20.125873565673828 23.032453536987305 L20.693979263305664 24.256214141845703 L19.96815299987793 23.937108993530273 L19.71555519104004 24.256214141845703 L20.125873565673828 23.032453536987305"></path>
<path fill="none" stroke="black" stroke-width=".3" stroke-opacity="1.0"  filling="0" d="M7.610966682434082 23.14640235900879 L7.610966682434082 23.14640235900879 C8.25246524810791 24.2430419921875 6.939813613891602 24.295360565185547 7.610966682434082 23.14640235900879 L7.610966682434082 23.14640235900879"></path>
<path fill="none" stroke="black" stroke-width=".3" stroke-opacity="1.0"  filling="0" d="M5.693615436553955 23.15861701965332 L5.816249370574951 23.15861701965332 C5.919756889343262 23.25155258178711 5.913904666900635 23.480321884155273 5.8128557205200195 23.575925827026367 L5.693614959716797 23.15861701965332"></path>
<path fill="none" stroke="black" stroke-width=".3" stroke-opacity="1.0"  filling="0" d="M9.09716510772705 23.1586856842041 L9.18478012084961 23.1586856842041 C9.296862602233887 23.26299476623535 9.296504020690918 23.51705551147461 9.181386947631836 23.618003845214844 L9.097164154052734 23.1586856842041"></path>
<path fill="none" stroke="black" stroke-width=".3" stroke-opacity="1.0"  filling="0" d="M12.451648712158203 23.19370460510254 L12.642827033996582 23.803890228271484 L12.258841514587402 23.803890228271484 L12.451648712158203 23.19370460510254"></path>
<path fill="none" stroke="black" stroke-width=".3" stroke-opacity="1.0"  filling="0" d="M20.203105926513672 23.19370460510254 L20.394149780273438 23.803890228271484 L20.010164260864258 23.803890228271484 L20.203105926513672 23.19370460510254"></path></svg>