<svg xmlns="http://www.w3.org/2000/svg" viewBox="0.0 0.0 24.0 24.0" height="200px" width="200px"><path fill="none" stroke="black" stroke-width=".3" stroke-opacity="1.0"  filling="0" d="M14.074813842773438 10.564277648925781 L14.823423385620117 10.564277648925781 L14.04554271697998 12.83523941040039 C14.041804313659668 12.853606224060059 14.063285827636719 12.868903160095215 14.076544761657715 12.88215160369873 L15.081148147583008 12.882352828979492 L14.897285461425781 13.435722351074219 L13.578398704528809 13.434928894042969 C13.44536304473877 13.30190658569336 13.226282119750977 13.152602195739746 13.261618614196777 12.967819213867188 L14.074813842773438 10.564277648925781"></path>
<path fill="none" stroke="black" stroke-width=".3" stroke-opacity="1.0"  filling="0" d="M16.090290069580078 10.564277648925781 L16.838869094848633 10.564277648925781 L16.061016082763672 12.83523941040039 C16.057283401489258 12.853596687316895 16.07872200012207 12.86889934539795 16.091962814331055 12.88215160369873 L17.0966796875 12.882352828979492 L16.91275978088379 13.435722351074219 L15.59384536743164 13.434928894042969 C15.460827827453613 13.301902770996094 15.241787910461426 13.152592658996582 15.277120590209961 12.967819213867188 L16.090290069580078 10.564277648925781"></path>
<path fill="none" stroke="black" stroke-width=".3" stroke-opacity="1.0"  filling="0" d="M10.749330520629883 11.243042945861816 L10.567028999328613 11.793554306030273 L8.865100860595703 11.792580604553223 C8.850748062133789 11.802804946899414 8.836395263671875 11.813028335571289 8.822042465209961 11.82325267791748 L8.75212287902832 12.019043922424316 C8.748382568359375 12.03738784790039 8.769853591918945 12.05266284942627 8.783098220825195 12.065895080566406 L10.012691497802734 12.06481647491455 C10.145712852478027 12.197864532470703 10.36478328704834 12.347158432006836 10.329472541809082 12.531954765319824 L10.119316101074219 13.15499210357666 C9.98575496673584 13.248568534851074 9.852193832397461 13.342145919799805 9.718632698059082 13.435722351074219 L7.603765964508057 13.43566608428955 L7.7853593826293945 12.884315490722656 L9.526544570922852 12.884315490722656 C9.540915489196777 12.874065399169922 9.55528736114502 12.863815307617188 9.569658279418945 12.853565216064453 L9.63455867767334 12.659732818603516 C9.638684272766113 12.64097785949707 9.617844581604004 12.624307632446289 9.604263305664062 12.610730171203613 L8.356289863586426 12.611419677734375 C8.223252296447754 12.478387832641602 8.004125595092773 12.329063415527344 8.039508819580078 12.144281387329102 L8.039508819580078 12.144281387329102 C8.154145240783691 11.800921440124512 8.350532531738281 11.451828002929688 8.647003173828125 11.244120597839355 L10.749330520629883 11.243042945861816"></path>
<path fill="none" stroke="black" stroke-width=".3" stroke-opacity="1.0"  filling="0" d="M2.184666633605957 11.243814468383789 L7.284433364868164 11.244231224060059 C7.417468547821045 11.377260208129883 7.636544704437256 11.526543617248535 7.601241588592529 11.71133804321289 L7.120001316070557 13.155771255493164 C6.988955020904541 13.249088287353516 6.857908725738525 13.342405319213867 6.72686243057251 13.435722351074219 L1.6270198822021484 13.435269355773926 C1.493994951248169 13.302237510681152 1.2749559879302979 13.152937889099121 1.3102598190307617 12.968149185180664 L1.791468620300293 11.523706436157227 C1.9225345849990845 11.43040943145752 2.053600549697876 11.337111473083496 2.184666633605957 11.243814468383789 L2.184666633605957 11.243814468383789"></path>
<path fill="none" stroke="black" stroke-width=".3" stroke-opacity="1.0"  filling="0" d="M11.055303573608398 11.243814468383789 L13.05217170715332 11.244231224060059 C13.185203552246094 11.377256393432617 13.40429401397705 11.526556968688965 13.368951797485352 11.71133804321289 L12.887739181518555 13.155771255493164 C12.756692886352539 13.249088287353516 12.62564754486084 13.342405319213867 12.494601249694824 13.435722351074219 L10.78935432434082 13.434928894042969 C10.656336784362793 13.30188274383545 10.437252044677734 13.152570724487305 10.472601890563965 12.967785835266113 L10.472601890563965 12.967785835266113 C10.584362983703613 12.63337230682373 10.752205848693848 12.28847885131836 11.02600383758545 12.066311836242676 L12.525007247924805 12.066890716552734 C12.539379119873047 12.056649208068848 12.553750991821289 12.046406745910645 12.568122863769531 12.036165237426758 L12.568122863769531 12.036165237426758 C12.593487739562988 11.958427429199219 12.66049575805664 11.851179122924805 12.602728843688965 11.793304443359375 L10.872122764587402 11.791945457458496 L11.055303573608398 11.243814468383789"></path>
<path fill="none" stroke="black" stroke-width=".3" stroke-opacity="1.0"  filling="0" d="M18.1614990234375 11.243814468383789 L19.866718292236328 11.244617462158203 C19.999731063842773 11.377657890319824 20.21878433227539 11.526948928833008 20.1834716796875 11.711732864379883 L20.1834716796875 11.711732864379883 C20.07172393798828 12.046149253845215 19.90389060974121 12.391046524047852 19.63010025024414 12.61322021484375 L18.13103675842285 12.612641334533691 C18.116674423217773 12.622861862182617 18.102313995361328 12.63308334350586 18.08795166015625 12.643303871154785 L18.08795166015625 12.643303871154785 C18.06258201599121 12.721052169799805 17.995498657226562 12.828357696533203 18.05331802368164 12.88619613647461 L19.783977508544922 12.887579917907715 L19.600797653198242 13.435722351074219 L17.60387420654297 13.435269355773926 C17.470853805541992 13.30223560333252 17.2518253326416 13.152936935424805 17.28712272644043 12.968149185180664 L17.76836395263672 11.523706436157227 C17.8994083404541 11.43040943145752 18.030454635620117 11.337111473083496 18.1614990234375 11.243814468383789 L18.1614990234375 11.243814468383789"></path>
<path fill="none" stroke="black" stroke-width=".3" stroke-opacity="1.0"  filling="0" d="M20.932222366333008 11.245037078857422 L22.713855743408203 11.245309829711914 L22.527610778808594 11.795780181884766 L21.23377227783203 11.795675277709961 C21.219409942626953 11.805914878845215 21.205047607421875 11.816155433654785 21.190685272216797 11.826395034790039 L20.629169464111328 13.435722351074219 L19.902263641357422 13.435722351074219 L20.53902816772461 11.524968147277832 C20.670093536376953 11.431657791137695 20.801156997680664 11.338347434997559 20.932222366333008 11.245037078857422 L20.932222366333008 11.245037078857422"></path>
<path fill="none" stroke="black" stroke-width=".3" stroke-opacity="1.0"  filling="0" d="M4.408648490905762 11.388535499572754 L4.408648490905762 11.388535499572754 C4.923528671264648 11.431119918823242 5.446348667144775 11.416656494140625 5.953288555145264 11.516289710998535 C6.3255205154418945 11.589447975158691 7.311181545257568 11.730772018432617 7.004044532775879 11.9534273147583 L5.993371486663818 11.950194358825684 C5.965420246124268 11.932683944702148 5.960953712463379 11.933895111083984 5.970934867858887 11.904438972473145 L5.970934867858887 11.904438972473145 C6.01721715927124 11.844247817993164 6.063499927520752 11.7840576171875 6.1097822189331055 11.72386646270752 L6.1097822189331055 11.72386646270752 C5.158453941345215 11.734517097473145 4.163283824920654 11.757884979248047 3.2831077575683594 12.119033813476562 L3.2831077575683594 12.119033813476562 C3.5157346725463867 12.20623779296875 3.748361587524414 12.293442726135254 3.9809885025024414 12.380646705627441 L3.9809885025024414 12.380646705627441 C3.9916129112243652 12.395974159240723 3.9853177070617676 12.423747062683105 3.9709997177124023 12.435697555541992 L1.7785720825195312 12.435697555541992 C1.3988301753997803 12.233906745910645 2.4210011959075928 11.831056594848633 2.823051691055298 11.678482055664062 C3.325392246246338 11.487848281860352 3.8801162242889404 11.485184669494629 4.408648490905762 11.388535499572754 L4.408648490905762 11.388535499572754"></path>
<path fill="none" stroke="black" stroke-width=".3" stroke-opacity="1.0"  filling="0" d="M18.3778133392334 11.794439315795898 L19.44816780090332 11.794631958007812 C19.459671020507812 11.808262825012207 19.477405548095703 11.824066162109375 19.473892211914062 11.841552734375 L19.40394401550293 12.037274360656738 C19.38960075378418 12.047521591186523 19.375259399414062 12.057768821716309 19.360916137695312 12.068016052246094 L18.300092697143555 12.068016052246094 C18.28651237487793 12.054411888122559 18.265710830688477 12.03775405883789 18.2697696685791 12.018964767456055 L18.334697723388672 11.825172424316406 C18.349069595336914 11.81492805480957 18.363441467285156 11.804683685302734 18.3778133392334 11.794439315795898 L18.3778133392334 11.794439315795898"></path>
<path fill="none" stroke="black" stroke-width=".3" stroke-opacity="1.0"  filling="0" d="M7.006370544433594 12.216785430908203 L7.006370544433594 12.216785430908203 C7.385927200317383 12.418624877929688 6.364313125610352 12.821414947509766 5.9624223709106445 12.974013328552246 C5.0099711418151855 13.335660934448242 3.814547300338745 13.3294095993042 2.8318822383880615 13.136245727539062 C2.459653615951538 13.06307601928711 1.473981499671936 12.921871185302734 1.7810964584350586 12.699186325073242 L2.791797637939453 12.702482223510742 C2.819720983505249 12.719961166381836 2.8242268562316895 12.71877384185791 2.8142662048339844 12.74820613861084 L2.8142662048339844 12.74820613861084 C2.768051862716675 12.80846118927002 2.721837282180786 12.868715286254883 2.6756229400634766 12.928970336914062 L2.6756229400634766 12.928970336914062 C3.626913070678711 12.91824722290039 4.622036933898926 12.894743919372559 5.502147197723389 12.533531188964844 L5.502147197723389 12.533531188964844 C5.269497394561768 12.446404457092285 5.0368475914001465 12.359277725219727 4.804197788238525 12.272150993347168 L4.804197788238525 12.272150993347168 C4.793566703796387 12.2568359375 4.7998433113098145 12.229063034057617 4.814153671264648 12.217113494873047 L7.006370544433594 12.216785430908203"></path>
<path fill="none" stroke="black" stroke-width=".3" stroke-opacity="1.0"  filling="0" d="M11.295130729675293 12.611532211303711 L12.356009483337402 12.611532211303711 C12.369585037231445 12.625092506408691 12.39043140411377 12.641764640808105 12.386275291442871 12.660496711730957 L12.3213472366333 12.854368209838867 C12.306994438171387 12.864591598510742 12.292641639709473 12.874814987182617 12.278288841247559 12.885038375854492 L11.207879066467285 12.884845733642578 C11.196380615234375 12.871236801147461 11.17863655090332 12.855461120605469 11.18215274810791 12.837995529174805 L11.252099990844727 12.64225959777832 C11.266443252563477 12.632017135620117 11.280787467956543 12.621774673461914 11.295130729675293 12.611532211303711 L11.295130729675293 12.611532211303711"></path>
<path fill="none" stroke="black" stroke-width=".3" stroke-opacity="1.0"  filling="0" d="M6.7392578125 12.997211456298828 L6.7392578125 12.997211456298828 C7.11312198638916 13.366764068603516 6.362821578979492 13.365805625915527 6.7392578125 12.997211456298828 L6.7392578125 12.997211456298828"></path>
<path fill="none" stroke="black" stroke-width=".3" stroke-opacity="1.0"  filling="0" d="M6.7392578125 13.013443946838379 L6.7392578125 13.013443946838379 C7.073584079742432 13.344380378723145 6.40323543548584 13.343746185302734 6.7392578125 13.013443946838379 L6.7392578125 13.013443946838379"></path>
<path fill="none" stroke="black" stroke-width=".3" stroke-opacity="1.0"  filling="0" d="M6.674755573272705 13.064155578613281 L6.753270149230957 13.064155578613281 C6.777083873748779 13.083148002624512 6.80129337310791 13.123401641845703 6.785719871520996 13.149579048156738 L6.785719871520996 13.149579048156738 C6.792546272277832 13.160194396972656 6.799373149871826 13.170809745788574 6.806199550628662 13.181425094604492 L6.807873249053955 13.21161937713623 C6.810605525970459 13.217317581176758 6.813337802886963 13.223016738891602 6.816070079803467 13.228714942932129 L6.787761688232422 13.232470512390137 C6.785521984100342 13.20596981048584 6.7724609375 13.178937911987305 6.753270149230957 13.16052532196045 L6.674755573272705 13.064155578613281"></path>
<path fill="none" stroke="black" stroke-width=".3" stroke-opacity="1.0"  filling="0" d="M6.697844982147217 13.083495140075684 L6.755255222320557 13.083495140075684 C6.769290447235107 13.096484184265137 6.765881061553955 13.12840461730957 6.751256465911865 13.140727043151855 L6.697844982147217 13.083495140075684"></path></svg>