<svg xmlns="http://www.w3.org/2000/svg" viewBox="0.0 0.0 24.0 24.0" height="200px" width="200px"><path fill="none" stroke="black" stroke-width=".3" stroke-opacity="1.0"  filling="0" d="M3.803530693054199 13.685239791870117 L4.091091156005859 13.685239791870117 C4.133692741394043 13.724735260009766 4.176293849945068 13.764230728149414 4.218895435333252 13.803726196289062 L3.7582664489746094 13.75979232788086 L4.099079132080078 13.910228729248047 C4.140793323516846 13.95283031463623 4.182507038116455 13.99543285369873 4.224221229553223 14.038034439086914 L4.224221229553223 14.099274635314941 C4.182507038116455 14.141876220703125 4.140793323516846 14.184477806091309 4.099079132080078 14.227079391479492 L3.7835617065429688 14.227079391479492 C3.740959882736206 14.184477806091309 3.6983578205108643 14.141876220703125 3.6557559967041016 14.099274635314941 L4.143011569976807 14.151195526123047 L3.803530693054199 13.988776206970215 C3.7613728046417236 13.946174621582031 3.719215154647827 13.903573036193848 3.6770572662353516 13.860971450805664 L3.6770572662353516 13.814375877380371 C3.719215154647827 13.771330833435059 3.7613728046417236 13.72828483581543 3.803530693054199 13.685239791870117 L3.803530693054199 13.685239791870117"></path>
<path fill="none" stroke="black" stroke-width=".3" stroke-opacity="1.0"  filling="0" d="M4.890669345855713 13.685239791870117 L5.2660956382751465 13.685239791870117 C5.307809829711914 13.72828483581543 5.349523544311523 13.771330833435059 5.391237735748291 13.814375877380371 L5.391237735748291 14.099274635314941 C5.349523544311523 14.141876220703125 5.307809829711914 14.184477806091309 5.2660956382751465 14.227079391479492 L4.890669345855713 14.227079391479492 C4.848511695861816 14.184477806091309 4.806353569030762 14.141876220703125 4.764195919036865 14.099274635314941 L4.764195919036865 13.814375877380371 C4.806353569030762 13.771330833435059 4.848511695861816 13.72828483581543 4.890669345855713 13.685239791870117 L4.890669345855713 13.685239791870117"></path>
<path fill="none" stroke="black" stroke-width=".3" stroke-opacity="1.0"  filling="0" d="M6.058218002319336 13.685239791870117 L6.361754417419434 13.685239791870117 C6.40391206741333 13.72828483581543 6.446070194244385 13.771330833435059 6.488227844238281 13.814375877380371 L6.022273063659668 13.75979232788086 L6.022273063659668 14.151195526123047 L6.488227844238281 14.099274635314941 C6.446070194244385 14.141876220703125 6.40391206741333 14.184477806091309 6.361754417419434 14.227079391479492 L6.058218002319336 14.227079391479492 C6.0160603523254395 14.184477806091309 5.973902702331543 14.141876220703125 5.9317450523376465 14.099274635314941 L5.9317450523376465 13.814375877380371 C5.973902702331543 13.771330833435059 6.0160603523254395 13.72828483581543 6.058218002319336 13.685239791870117 L6.058218002319336 13.685239791870117"></path>
<path fill="none" stroke="black" stroke-width=".3" stroke-opacity="1.0"  filling="0" d="M6.9997124671936035 13.685239791870117 L7.088910102844238 14.227079391479492 L6.9997124671936035 13.685239791870117"></path>
<path fill="none" stroke="black" stroke-width=".3" stroke-opacity="1.0"  filling="0" d="M7.643795013427734 13.685239791870117 L8.16433334350586 13.685239791870117 L7.732992172241211 13.758460998535156 L7.996589183807373 13.980788230895996 L7.732992172241211 14.15252685546875 L8.168327331542969 14.227079391479492 L7.643795013427734 14.227079391479492 L7.643795013427734 13.685239791870117"></path>
<path fill="none" stroke="black" stroke-width=".3" stroke-opacity="1.0"  filling="0" d="M8.52830982208252 13.685239791870117 L9.115413665771484 13.685239791870117 L8.866458892822266 14.227079391479492 L8.52830982208252 13.685239791870117"></path>
<path fill="none" stroke="black" stroke-width=".3" stroke-opacity="1.0"  filling="0" d="M9.652193069458008 13.685239791870117 L10.050251007080078 14.227079391479492 L9.356644630432129 14.227079391479492 L9.652193069458008 13.685239791870117"></path>
<path fill="none" stroke="black" stroke-width=".3" stroke-opacity="1.0"  filling="0" d="M10.622709274291992 13.685239791870117 L10.910270690917969 13.685239791870117 C10.952872276306152 13.724735260009766 10.99547290802002 13.764230728149414 11.038074493408203 13.803726196289062 L10.577445983886719 13.75979232788086 L10.918258666992188 13.910228729248047 C10.959972381591797 13.95283031463623 11.001686096191406 13.99543285369873 11.043399810791016 14.038034439086914 L11.043399810791016 14.099274635314941 C11.001686096191406 14.141876220703125 10.959972381591797 14.184477806091309 10.918258666992188 14.227079391479492 L10.602740287780762 14.227079391479492 C10.560138702392578 14.184477806091309 10.517537117004395 14.141876220703125 10.474935531616211 14.099274635314941 L10.962190628051758 14.151195526123047 L10.622709274291992 13.988776206970215 C10.580551147460938 13.946174621582031 10.5383939743042 13.903573036193848 10.496235847473145 13.860971450805664 L10.496235847473145 13.814375877380371 C10.5383939743042 13.771330833435059 10.580551147460938 13.72828483581543 10.622709274291992 13.685239791870117 L10.622709274291992 13.685239791870117"></path>
<path fill="none" stroke="black" stroke-width=".3" stroke-opacity="1.0"  filling="0" d="M12.256213188171387 13.685239791870117 L12.776751518249512 13.685239791870117 L12.345410346984863 13.758460998535156 L12.609006881713867 13.980788230895996 L12.345410346984863 14.15252685546875 L12.780745506286621 14.227079391479492 L12.256213188171387 14.227079391479492 L12.256213188171387 13.685239791870117"></path>
<path fill="none" stroke="black" stroke-width=".3" stroke-opacity="1.0"  filling="0" d="M13.269865036010742 13.685239791870117 L13.359061241149902 14.151195526123047 L13.754457473754883 14.151195526123047 L13.84365463256836 13.685239791870117 L13.84365463256836 14.099274635314941 C13.801496505737305 14.141876220703125 13.759339332580566 14.184477806091309 13.717181205749512 14.227079391479492 L13.39633846282959 14.227079391479492 C13.354180335998535 14.184477806091309 13.312023162841797 14.141876220703125 13.269865036010742 14.099274635314941 L13.269865036010742 13.685239791870117"></path>
<path fill="none" stroke="black" stroke-width=".3" stroke-opacity="1.0"  filling="0" d="M14.39880657196045 13.685239791870117 L14.83414077758789 13.685239791870117 C14.872304916381836 13.720297813415527 14.910468101501465 13.755354881286621 14.94863224029541 13.790412902832031 L14.94863224029541 13.911561012268066 C14.910468101501465 13.94661808013916 14.872304916381836 13.98167610168457 14.83414077758789 14.016733169555664 L15.001883506774902 14.227079391479492 L14.48800277709961 14.016733169555664 L14.39880657196045 14.227079391479492 L14.39880657196045 13.685239791870117"></path>
<path fill="none" stroke="black" stroke-width=".3" stroke-opacity="1.0"  filling="0" d="M15.589784622192383 13.685239791870117 L15.965210914611816 13.685239791870117 C16.006925582885742 13.72828483581543 16.048641204833984 13.771330833435059 16.090354919433594 13.814375877380371 L16.090354919433594 14.099274635314941 C16.048641204833984 14.141876220703125 16.006925582885742 14.184477806091309 15.965210914611816 14.227079391479492 L15.589784622192383 14.227079391479492 C15.547626495361328 14.184477806091309 15.50546932220459 14.141876220703125 15.463311195373535 14.099274635314941 L15.463311195373535 13.814375877380371 C15.50546932220459 13.771330833435059 15.547626495361328 13.72828483581543 15.589784622192383 13.685239791870117 L15.589784622192383 13.685239791870117"></path>
<path fill="none" stroke="black" stroke-width=".3" stroke-opacity="1.0"  filling="0" d="M16.639114379882812 13.685239791870117 L17.07444953918457 13.685239791870117 C17.112613677978516 13.720297813415527 17.15077781677246 13.755354881286621 17.188941955566406 13.790412902832031 L17.188941955566406 13.911561012268066 C17.15077781677246 13.94661808013916 17.112613677978516 13.98167610168457 17.07444953918457 14.016733169555664 L16.639114379882812 14.227079391479492 L16.639114379882812 13.685239791870117"></path>
<path fill="none" stroke="black" stroke-width=".3" stroke-opacity="1.0"  filling="0" d="M17.780838012695312 13.685239791870117 L18.178895950317383 14.227079391479492 L17.48529052734375 14.227079391479492 L17.780838012695312 13.685239791870117"></path>
<path fill="none" stroke="black" stroke-width=".3" stroke-opacity="1.0"  filling="0" d="M18.627275466918945 13.685239791870117 L19.147815704345703 13.685239791870117 L18.716474533081055 13.758460998535156 L18.980070114135742 13.980788230895996 L18.716474533081055 14.15252685546875 L19.151809692382812 14.227079391479492 L18.627275466918945 14.227079391479492 L18.627275466918945 13.685239791870117"></path>
<path fill="none" stroke="black" stroke-width=".3" stroke-opacity="1.0"  filling="0" d="M19.829973220825195 13.685239791870117 L20.228031158447266 14.227079391479492 L19.534425735473633 14.227079391479492 L19.829973220825195 13.685239791870117"></path>
<path fill="none" stroke="black" stroke-width=".3" stroke-opacity="1.0"  filling="0" d="M9.6987886428833 13.747811317443848 L9.843899726867676 14.0247220993042 L9.552345275878906 14.0247220993042 L9.6987886428833 13.747811317443848"></path>
<path fill="none" stroke="black" stroke-width=".3" stroke-opacity="1.0"  filling="0" d="M17.82743263244629 13.747811317443848 L17.972543716430664 14.0247220993042 L17.68099021911621 14.0247220993042 L17.82743263244629 13.747811317443848"></path>
<path fill="none" stroke="black" stroke-width=".3" stroke-opacity="1.0"  filling="0" d="M19.876567840576172 13.747811317443848 L20.021678924560547 14.0247220993042 L19.730125427246094 14.0247220993042 L19.876567840576172 13.747811317443848"></path>
<path fill="none" stroke="black" stroke-width=".3" stroke-opacity="1.0"  filling="0" d="M14.48800277709961 13.75579833984375 L14.79952621459961 13.75579833984375 C14.819051742553711 13.774436950683594 14.838578224182129 13.793075561523438 14.85810375213623 13.811714172363281 L14.85810375213623 13.890259742736816 C14.838578224182129 13.90889835357666 14.819051742553711 13.927536010742188 14.79952621459961 13.946174621582031 L14.48800277709961 13.75579833984375"></path>
<path fill="none" stroke="black" stroke-width=".3" stroke-opacity="1.0"  filling="0" d="M16.728313446044922 13.75579833984375 L17.03983497619629 13.75579833984375 C17.05936050415039 13.774880409240723 17.078887939453125 13.793962478637695 17.098413467407227 13.813044548034668 L17.098413467407227 13.88759708404541 C17.078887939453125 13.906679153442383 17.05936050415039 13.925761222839355 17.03983497619629 13.944843292236328 L16.728313446044922 13.75579833984375"></path>
<path fill="none" stroke="black" stroke-width=".3" stroke-opacity="1.0"  filling="0" d="M4.854723930358887 13.75979232788086 L5.3020405769348145 13.75979232788086 L5.3020405769348145 14.151195526123047 L4.854723930358887 14.151195526123047 L4.854723930358887 13.75979232788086"></path>
<path fill="none" stroke="black" stroke-width=".3" stroke-opacity="1.0"  filling="0" d="M15.553841590881348 13.75979232788086 L16.001155853271484 13.75979232788086 L16.001155853271484 14.151195526123047 L15.553841590881348 14.151195526123047 L15.553841590881348 13.75979232788086"></path>
<path fill="none" stroke="black" stroke-width=".3" stroke-opacity="1.0"  filling="0" d="M25.950212478637695 59.009918212890625 L25.950212478637695 59.009918212890625 C27.591957092285156 58.995216369628906 26.712488174438477 61.013641357421875 25.965974807739258 61.34214401245117 C25.321260452270508 61.625850677490234 25.050342559814453 60.62868118286133 25.053237915039062 60.26688003540039 C25.060230255126953 59.393280029296875 25.181198120117188 59.35607147216797 25.950212478637695 59.009918212890625 L25.950212478637695 59.009918212890625"></path>
<path fill="none" stroke="black" stroke-width=".3" stroke-opacity="1.0"  filling="0" d="M10.622169494628906 59.0118408203125 L10.623873710632324 59.0118408203125 C10.806066513061523 59.0369758605957 10.988258361816406 59.06211471557617 11.170451164245605 59.087249755859375 L11.170451164245605 59.087249755859375 C11.169315338134766 59.21015548706055 11.168179512023926 59.33305740356445 11.167043685913086 59.455963134765625 L11.167043685913086 59.455963134765625 C9.038177490234375 58.78336715698242 11.743748664855957 60.61095428466797 11.280790328979492 60.970664978027344 C10.99771785736084 61.190608978271484 10.615625381469727 61.24623107910156 10.26687240600586 61.32915496826172 C10.207446098327637 61.343284606933594 9.967199325561523 61.2706413269043 9.871530532836914 61.243309020996094 L9.889422416687012 60.827945709228516 C10.13609504699707 60.96525192260742 11.085471153259277 61.12416076660156 10.886086463928223 60.734649658203125 C10.588778495788574 60.153839111328125 9.040924072265625 59.207763671875 10.622169494628906 59.0118408203125 L10.622169494628906 59.0118408203125"></path>
<path fill="none" stroke="black" stroke-width=".3" stroke-opacity="1.0"  filling="0" d="M23.322120666503906 59.01993179321289 L23.3227596282959 59.01993179321289 C23.639278411865234 59.16389846801758 24.03658103942871 59.35947036743164 24.1153621673584 59.698150634765625 L24.1153621673584 59.698150634765625 C23.969097137451172 59.69807815551758 23.822832107543945 59.6980094909668 23.67656707763672 59.69793701171875 L23.66208267211914 59.686649322509766 C23.580467224121094 58.84978103637695 22.85420799255371 59.717369079589844 23.03903579711914 60.7640380859375 C23.134029388427734 61.30197525024414 23.872283935546875 60.78114700317383 24.032716751098633 60.859893798828125 L24.03420639038086 61.21114730834961 C22.265777587890625 61.67677307128906 22.002870559692383 59.76101303100586 23.322120666503906 59.01993179321289 L23.322120666503906 59.01993179321289"></path>
<path fill="none" stroke="black" stroke-width=".3" stroke-opacity="1.0"  filling="0" d="M13.967031478881836 59.052101135253906 L13.980876922607422 60.46242141723633 C13.801464080810547 62.10904312133789 12.404126167297363 61.16183853149414 12.403767585754395 59.912864685058594 L12.403767585754395 59.06978225708008 L12.821049690246582 59.06509017944336 C12.821003913879395 59.09502029418945 13.230416297912598 62.296512603759766 13.569984436035156 60.60535430908203 L13.569984436035156 59.064666748046875 L13.967031478881836 59.052101135253906"></path>
<path fill="none" stroke="black" stroke-width=".3" stroke-opacity="1.0"  filling="0" d="M15.203115463256836 59.05465316772461 L15.987835884094238 59.055294036865234 C16.756427764892578 59.35832214355469 16.701435089111328 59.52827072143555 16.213623046875 60.1710319519043 L16.213623046875 60.1710319519043 C16.606861114501953 60.384586334228516 16.6169490814209 60.89422607421875 16.70311737060547 61.295074462890625 L16.283063888549805 61.29740905761719 C16.178123474121094 60.796630859375 16.19015884399414 60.359031677246094 15.604208946228027 60.35592269897461 L15.604421615600586 61.2935791015625 L15.190975189208984 61.29933166503906 L15.203115463256836 59.05465316772461"></path>
<path fill="none" stroke="black" stroke-width=".3" stroke-opacity="1.0"  filling="0" d="M17.563880920410156 59.05465316772461 L19.076236724853516 59.06168746948242 L19.06452178955078 59.37607955932617 L18.520286560058594 59.37607955932617 L18.510700225830078 61.312110900878906 L18.107690811157227 61.30295181274414 L18.107690811157227 59.37607955932617 L17.562604904174805 59.37480163574219 L17.563880920410156 59.05465316772461"></path>
<path fill="none" stroke="black" stroke-width=".3" stroke-opacity="1.0"  filling="0" d="M20.088237762451172 59.05465316772461 L21.41314697265625 59.06168746948242 L21.4044132232666 59.37417221069336 L20.4940185546875 59.37417221069336 L20.4940185546875 59.979957580566406 L21.365432739257812 59.98933792114258 L21.353076934814453 60.302242279052734 L20.4940185546875 60.302242279052734 L20.4940185546875 60.98599624633789 L21.429973602294922 60.98599624633789 L21.429122924804688 61.31147384643555 L20.080781936645508 61.30125045776367 L20.088237762451172 59.05465316772461"></path>
<path fill="none" stroke="black" stroke-width=".3" stroke-opacity="1.0"  filling="0" d="M25.9561767578125 59.31771469116211 L25.9561767578125 59.31771469116211 C26.63326072692871 59.63187026977539 26.614789962768555 60.7374267578125 25.964269638061523 61.04436111450195 L25.951276779174805 61.04436111450195 C25.64658546447754 60.48749542236328 25.08971405029297 59.69950866699219 25.9561767578125 59.31771469116211 L25.9561767578125 59.31771469116211"></path>
<path fill="none" stroke="black" stroke-width=".3" stroke-opacity="1.0"  filling="0" d="M15.605487823486328 59.35499954223633 L15.918182373046875 59.35520553588867 C16.296789169311523 59.82018280029297 16.1800479888916 60.04710006713867 15.605487823486328 60.05366134643555 L15.605487823486328 59.35499954223633"></path></svg>