<svg xmlns="http://www.w3.org/2000/svg" viewBox="0.0 0.0 24.0 24.0" height="200px" width="200px"><path fill="none" stroke="black" stroke-width=".3" stroke-opacity="1.0"  filling="0" d="M5.35481595993042 1.711085319519043 L5.35481595993042 1.711085319519043 C5.7149882316589355 2.0712573528289795 6.435332298278809 2.282241106033325 6.435332298278809 2.7916011810302734 C6.435332298278809 5.227922439575195 4.262312889099121 3.231140375137329 4.262312889099121 2.7916011810302734 C4.262312889099121 2.2794079780578613 4.99064826965332 2.0712573528289795 5.35481595993042 1.711085319519043 L5.35481595993042 1.711085319519043"></path>
<path fill="none" stroke="black" stroke-width=".3" stroke-opacity="1.0"  filling="0" d="M9.088619232177734 1.7951250076293945 L9.088619232177734 1.7951250076293945 C9.420771598815918 2.127283811569214 10.085076332092285 2.32186222076416 10.085076332092285 2.7916011810302734 C10.085076332092285 3.2641782760620117 9.561196327209473 3.8000831604003906 9.088619232177734 3.8000831604003906 C8.613216400146484 3.8000831604003906 8.080137252807617 3.2670042514801025 8.080137252807617 2.7916011810302734 C8.080137252807617 2.3190195560455322 8.752458572387695 2.127283811569214 9.088619232177734 1.7951250076293945 L9.088619232177734 1.7951250076293945"></path>
<path fill="none" stroke="black" stroke-width=".3" stroke-opacity="1.0"  filling="0" d="M12.606280326843262 1.9151830673217773 L12.606280326843262 1.9151830673217773 C12.898426055908203 2.207322359085083 13.482718467712402 2.378448963165283 13.482718467712402 2.7916011810302734 C13.482718467712402 3.2047533988952637 13.019432067871094 3.6680192947387695 12.606280326843262 3.6680192947387695 C12.193137168884277 3.6680192947387695 11.729880332946777 3.204744338989258 11.729880332946777 2.7916011810302734 C11.729880332946777 2.378458023071289 12.314146995544434 2.207322359085083 12.606280326843262 1.9151830673217773 L12.606280326843262 1.9151830673217773"></path>
<path fill="none" stroke="black" stroke-width=".3" stroke-opacity="1.0"  filling="0" d="M15.943875312805176 1.9752111434936523 L15.943875312805176 1.9752111434936523 C16.216005325317383 2.2473411560058594 16.760265350341797 2.4067511558532715 16.760265350341797 2.7916011810302734 C16.760265350341797 3.8801212310791016 15.127485275268555 3.8801212310791016 15.127485275268555 2.7916011810302734 C15.127485275268555 2.4067511558532715 15.671745300292969 2.2473411560058594 15.943875312805176 1.9752111434936523 L15.943875312805176 1.9752111434936523"></path>
<path fill="none" stroke="black" stroke-width=".3" stroke-opacity="1.0"  filling="0" d="M19.10140037536621 2.0952682495117188 L19.10140037536621 2.0952682495117188 C19.333511352539062 2.3273792266845703 19.7977352142334 2.463346242904663 19.7977352142334 2.7916011810302734 C19.7977352142334 3.720045328140259 18.405067443847656 3.720045328140259 18.405067443847656 2.7916011810302734 C18.405067443847656 2.4633467197418213 18.86928939819336 2.3273792266845703 19.10140037536621 2.0952682495117188 L19.10140037536621 2.0952682495117188"></path>
<path fill="none" stroke="black" stroke-width=".3" stroke-opacity="1.0"  filling="0" d="M5.35481595993042 4.628478527069092 L5.35481595993042 4.628478527069092 C5.738999843597412 5.012662410736084 6.507367134094238 5.2377119064331055 6.507367134094238 5.78102970123291 C6.507367134094238 6.324347496032715 5.898133754730225 6.933579921722412 5.35481595993042 6.933579921722412 C4.811498641967773 6.933579921722412 4.202265739440918 6.324347019195557 4.202265739440918 5.78102970123291 C4.202265739440918 5.2377119064331055 4.970632553100586 5.012662410736084 5.35481595993042 4.628478527069092 L5.35481595993042 4.628478527069092"></path>
<path fill="none" stroke="black" stroke-width=".3" stroke-opacity="1.0"  filling="0" d="M9.028571128845215 4.676501750946045 L9.028571128845215 4.676501750946045 C9.412755012512207 5.060685157775879 10.181121826171875 5.2857346534729 10.181121826171875 5.829051971435547 C10.181121826171875 7.365787029266357 7.876020431518555 7.365787029266357 7.876020431518555 5.829051971435547 C7.876020431518555 5.2857346534729 8.644387245178223 5.060685157775879 9.028571128845215 4.676501750946045 L9.028571128845215 4.676501750946045"></path>
<path fill="none" stroke="black" stroke-width=".3" stroke-opacity="1.0"  filling="0" d="M12.642316818237305 4.748536109924316 L12.642316818237305 4.748536109924316 C13.006484031677246 5.1167120933532715 13.734819412231445 5.335210800170898 13.734819412231445 5.853063583374023 C13.734819412231445 6.368078708648682 13.157332420349121 6.94558572769165 12.642316818237305 6.94558572769165 C12.12729263305664 6.94558572769165 11.549775123596191 6.368088245391846 11.549775123596191 5.853063583374023 C11.549775123596191 5.335201740264893 12.278136253356934 5.1167120933532715 12.642316818237305 4.748536109924316 L12.642316818237305 4.748536109924316"></path>
<path fill="none" stroke="black" stroke-width=".3" stroke-opacity="1.0"  filling="0" d="M16.015907287597656 4.988650798797607 L16.015907287597656 4.988650798797607 C16.316057205200195 5.2927961349487305 16.916357040405273 5.473776340484619 16.916357040405273 5.901086807250977 C16.916357040405273 6.328397274017334 16.443218231201172 6.8135223388671875 16.015907287597656 6.8135223388671875 C15.58578109741211 6.8135223388671875 15.103472709655762 6.331212997436523 15.103472709655762 5.901086807250977 C15.103472709655762 5.47096061706543 15.711762428283691 5.2927961349487305 16.015907287597656 4.988650798797607 L16.015907287597656 4.988650798797607"></path>
<path fill="none" stroke="black" stroke-width=".3" stroke-opacity="1.0"  filling="0" d="M19.10140037536621 5.0967020988464355 L19.10140037536621 5.0967020988464355 C19.373531341552734 5.368832111358643 19.91779136657715 5.528242111206055 19.91779136657715 5.913092613220215 C19.91779136657715 6.297942638397217 19.486249923706055 6.729482650756836 19.10140037536621 6.729482650756836 C18.716550827026367 6.729482650756836 18.285011291503906 6.297942161560059 18.285011291503906 5.913092613220215 C18.285011291503906 5.528242588043213 18.82927131652832 5.368832111358643 19.10140037536621 5.0967020988464355 L19.10140037536621 5.0967020988464355"></path>
<path fill="none" stroke="black" stroke-width=".3" stroke-opacity="1.0"  filling="0" d="M5.35481595993042 7.6779351234436035 L5.35481595993042 7.6779351234436035 C6.510295391082764 8.161375045776367 7.406579971313477 10.25916862487793 5.35481595993042 10.25916862487793 C3.2904202938079834 10.25916862487793 4.187460899353027 8.163147926330566 5.35481595993042 7.6779351234436035 L5.35481595993042 7.6779351234436035"></path>
<path fill="none" stroke="black" stroke-width=".3" stroke-opacity="1.0"  filling="0" d="M9.040596008300781 7.858021259307861 L9.040596008300781 7.858021259307861 C10.207869529724121 8.343198776245117 11.104972839355469 10.439254760742188 9.040596008300781 10.439254760742188 C6.976316452026367 10.439254760742188 7.873432159423828 8.343244552612305 9.040596008300781 7.858021259307861 L9.040596008300781 7.858021259307861"></path>
<path fill="none" stroke="black" stroke-width=".3" stroke-opacity="1.0"  filling="0" d="M12.666327476501465 8.026102066040039 L12.666327476501465 8.026102066040039 C13.07851791381836 8.438299179077148 13.902898788452148 8.679763793945312 13.902898788452148 9.262693405151367 C13.902898788452148 9.845623016357422 13.24925708770752 10.499282836914062 12.666327476501465 10.499282836914062 C12.08621597290039 10.499282836914062 11.441742897033691 9.842804908752441 11.441742897033691 9.262693405151367 C11.441742897033691 8.682581901550293 12.258132934570312 8.438299179077148 12.666327476501465 8.026102066040039 L12.666327476501465 8.026102066040039"></path>
<path fill="none" stroke="black" stroke-width=".3" stroke-opacity="1.0"  filling="0" d="M16.051944732666016 8.194181442260742 L16.051944732666016 8.194181442260742 C16.400104522705078 8.54234790802002 17.096426010131836 8.74630355834961 17.096426010131836 9.238680839538574 C17.096426010131836 9.731058120727539 16.544322967529297 10.283180236816406 16.051944732666016 10.283180236816406 C15.559558868408203 10.283180236816406 15.007426261901855 9.731066703796387 15.007426261901855 9.238680839538574 C15.007426261901855 8.746294975280762 15.703771591186523 8.54234790802002 16.051944732666016 8.194181442260742 L16.051944732666016 8.194181442260742"></path>
<path fill="none" stroke="black" stroke-width=".3" stroke-opacity="1.0"  filling="0" d="M19.10140037536621 8.338251113891602 L19.10140037536621 8.338251113891602 C19.40153694152832 8.638394355773926 20.001811981201172 8.814218521118164 20.001811981201172 9.238680839538574 C20.001811981201172 10.531109809875488 18.200952529907227 10.347395896911621 18.200952529907227 9.238680839538574 C18.200952529907227 8.814209938049316 18.801250457763672 8.638394355773926 19.10140037536621 8.338251113891602 L19.10140037536621 8.338251113891602"></path>
<path fill="none" stroke="black" stroke-width=".3" stroke-opacity="1.0"  filling="0" d="M5.35481595993042 11.01552963256836 L5.35481595993042 11.01552963256836 C6.72509765625 11.576301574707031 7.757745742797852 14.028968811035156 5.35481595993042 14.028968811035156 C2.951894760131836 14.028968811035156 3.9845433235168457 11.576305389404297 5.35481595993042 11.01552963256836 L5.35481595993042 11.01552963256836"></path>
<path fill="none" stroke="black" stroke-width=".3" stroke-opacity="1.0"  filling="0" d="M9.136642456054688 11.315672874450684 L9.136642456054688 11.315672874450684 C10.390864372253418 11.838812828063965 11.361231803894043 14.125015258789062 9.136642456054688 14.125015258789062 C6.899269104003906 14.125015258789062 7.870392322540283 11.840531349182129 9.136642456054688 11.315672874450684 L9.136642456054688 11.315672874450684"></path>
<path fill="none" stroke="black" stroke-width=".3" stroke-opacity="1.0"  filling="0" d="M12.690340042114258 11.57979965209961 L12.690340042114258 11.57979965209961 C13.864452362060547 12.060124397277832 14.74924087524414 14.161031723022461 12.690340042114258 14.161031723022461 C10.63143539428711 14.161031723022461 11.516227722167969 12.060124397277832 12.690340042114258 11.57979965209961 L12.690340042114258 11.57979965209961"></path>
<path fill="none" stroke="black" stroke-width=".3" stroke-opacity="1.0"  filling="0" d="M16.015907287597656 11.663839340209961 L16.015907287597656 11.663839340209961 C16.40410041809082 12.052024841308594 17.180484771728516 12.279413223266602 17.180484771728516 12.82839584350586 C17.180484771728516 13.38021469116211 16.567726135253906 14.00495719909668 16.015907287597656 14.00495719909668 C15.46409797668457 14.00495719909668 14.851371765136719 13.380205154418945 14.851371765136719 12.82839584350586 C14.851371765136719 12.279423713684082 15.627728462219238 12.052024841308594 16.015907287597656 11.663839340209961 L16.015907287597656 11.663839340209961"></path>
<path fill="none" stroke="black" stroke-width=".3" stroke-opacity="1.0"  filling="0" d="M19.10140037536621 11.73587417602539 L19.10140037536621 11.73587417602539 C19.453569412231445 12.088042259216309 20.15790557861328 12.294337272644043 20.15790557861328 12.792378425598145 C20.15790557861328 14.201050758361816 18.044897079467773 14.201050758361816 18.044897079467773 12.792378425598145 C18.044897079467773 12.29433822631836 18.74923324584961 12.088042259216309 19.10140037536621 11.73587417602539 L19.10140037536621 11.73587417602539"></path>
<path fill="none" stroke="black" stroke-width=".3" stroke-opacity="1.0"  filling="0" d="M5.35481595993042 14.773324966430664 L5.35481595993042 14.773324966430664 C5.770760536193848 14.94578742980957 6.284250259399414 14.972317695617676 6.602649211883545 15.290712356567383 C7.695603370666504 16.38365364074707 6.900561332702637 18.303010940551758 5.35481595993042 18.303010940551758 C3.808945894241333 18.303010940551758 3.0143442153930664 16.383569717407227 4.107190132141113 15.290712356567383 C4.425539970397949 14.972358703613281 4.938940525054932 14.94578742980957 5.35481595993042 14.773324966430664 L5.35481595993042 14.773324966430664"></path>
<path fill="none" stroke="black" stroke-width=".3" stroke-opacity="1.0"  filling="0" d="M9.388742446899414 15.001434326171875 L9.388742446899414 15.001434326171875 C10.760781288146973 15.574295043945312 11.8239107131958 18.074901580810547 9.388742446899414 18.074901580810547 C6.9408440589904785 18.074901580810547 8.00472354888916 15.576017379760742 9.388742446899414 15.001434326171875 L9.388742446899414 15.001434326171875"></path>
<path fill="none" stroke="black" stroke-width=".3" stroke-opacity="1.0"  filling="0" d="M12.9424409866333 15.241548538208008 L12.9424409866333 15.241548538208008 C14.112689971923828 15.725683212280273 15.007368087768555 17.834787368774414 12.9424409866333 17.834787368774414 C10.877522468566895 17.834787368774414 11.772197723388672 15.725687980651855 12.9424409866333 15.241548538208008 L12.9424409866333 15.241548538208008"></path>
<path fill="none" stroke="black" stroke-width=".3" stroke-opacity="1.0"  filling="0" d="M16.135967254638672 15.38561725616455 L16.135967254638672 15.38561725616455 C16.520151138305664 15.769800186157227 17.288516998291016 15.99484920501709 17.288516998291016 16.538166046142578 C17.288516998291016 17.081483840942383 16.679285049438477 17.690719604492188 16.135967254638672 17.690719604492188 C15.589816093444824 17.690719604492188 14.971428871154785 17.08431625366211 14.971428871154785 16.538166046142578 C14.971428871154785 15.992015838623047 15.747787475585938 15.769800186157227 16.135967254638672 15.38561725616455 L16.135967254638672 15.38561725616455"></path>
<path fill="none" stroke="black" stroke-width=".3" stroke-opacity="1.0"  filling="0" d="M19.10140037536621 15.457651138305664 L19.10140037536621 15.457651138305664 C19.461572647094727 15.817822456359863 20.181915283203125 16.028806686401367 20.181915283203125 16.538166046142578 C20.181915283203125 17.994861602783203 18.020885467529297 17.994861602783203 18.020885467529297 16.538166046142578 C18.020885467529297 16.028806686401367 18.741228103637695 15.817822456359863 19.10140037536621 15.457651138305664 L19.10140037536621 15.457651138305664"></path>
<path fill="none" stroke="black" stroke-width=".3" stroke-opacity="1.0"  filling="0" d="M11.0575590133667 19.25146484375 L11.0575590133667 19.25146484375 C11.281665802001953 19.2874813079834 11.505773544311523 19.323497772216797 11.729880332946777 19.359514236450195 L11.717855453491211 19.623641967773438 C9.42413330078125 19.206594467163086 9.447943687438965 22.358720779418945 11.717855453491211 21.90473175048828 L11.729880332946777 22.15685272216797 C9.337467193603516 22.62679100036621 8.949051856994629 20.07557487487793 11.0575590133667 19.25146484375 L11.0575590133667 19.25146484375"></path>
<path fill="none" stroke="black" stroke-width=".3" stroke-opacity="1.0"  filling="0" d="M3.4819211959838867 19.299488067626953 L3.770059585571289 19.299488067626953 L4.502427577972412 21.90473175048828 L5.25877046585083 19.299488067626953 L5.6069560050964355 19.299488067626953 L6.363297939300537 21.90473175048828 L7.095666885375977 19.299488067626953 L7.371779918670654 19.299488067626953 L6.5193915367126465 22.240890502929688 L6.171206474304199 22.240890502929688 L5.426850318908691 19.623641967773438 L4.67050838470459 22.240890502929688 L4.322323322296143 22.240890502929688 L3.4819211959838867 19.299488067626953"></path>
<path fill="none" stroke="black" stroke-width=".3" stroke-opacity="1.0"  filling="0" d="M8.22420597076416 19.299488067626953 L8.524330139160156 19.299488067626953 L8.524330139160156 22.240890502929688 L8.22420597076416 22.240890502929688 L8.22420597076416 19.299488067626953"></path>
<path fill="none" stroke="black" stroke-width=".3" stroke-opacity="1.0"  filling="0" d="M13.03848648071289 19.299488067626953 L13.326623916625977 19.299488067626953 L13.326623916625977 20.6201171875 L14.647254943847656 19.299488067626953 L15.031438827514648 19.299488067626953 L13.602774620056152 20.680145263671875 L15.151495933532715 22.240890502929688 L14.755325317382812 22.240890502929688 L13.326623916625977 20.76418685913086 L13.326623916625977 22.240890502929688 L13.03848648071289 22.240890502929688 L13.03848648071289 19.299488067626953"></path>
<path fill="none" stroke="black" stroke-width=".3" stroke-opacity="1.0"  filling="0" d="M16.063932418823242 19.299488067626953 L17.504619598388672 19.299488067626953 L17.504619598388672 19.551607131958008 L16.364093780517578 19.551607131958008 L16.364093780517578 20.596107482910156 L17.444610595703125 20.596107482910156 L17.444610595703125 20.848228454589844 L16.364093780517578 20.848228454589844 L16.364093780517578 21.988771438598633 L17.552642822265625 21.988771438598633 L17.552642822265625 22.240890502929688 L16.063932418823242 22.240890502929688 L16.063932418823242 19.299488067626953"></path>
<path fill="none" stroke="black" stroke-width=".3" stroke-opacity="1.0"  filling="0" d="M18.681182861328125 19.299488067626953 L19.43756103515625 19.299488067626953 C19.725698471069336 19.551607131958008 20.248275756835938 19.6767635345459 20.30197525024414 20.05584716796875 C20.346433639526367 20.369705200195312 19.861751556396484 20.512065887451172 19.641639709472656 20.740175247192383 L19.641639709472656 20.752182006835938 C19.76970100402832 20.868236541748047 19.897764205932617 20.984291076660156 20.02582550048828 21.100345611572266 L20.518077850341797 22.240890502929688 L20.205928802490234 22.240890502929688 L19.773723602294922 21.244415283203125 C19.58562660217285 21.11235237121582 19.397531509399414 20.98029136657715 19.209434509277344 20.848228454589844 L18.969318389892578 20.848228454589844 L18.969318389892578 22.240890502929688 L18.681182861328125 22.240890502929688 L18.681182861328125 19.299488067626953"></path>
<path fill="none" stroke="black" stroke-width=".3" stroke-opacity="1.0"  filling="0" d="M18.969318389892578 19.551607131958008 L19.269481658935547 19.551607131958008 C19.513591766357422 19.71968650817871 20.001811981201172 19.75946807861328 20.001811981201172 20.05584716796875 C20.001811981201172 20.35919761657715 19.513591766357422 20.4160213470459 19.269481658935547 20.596107482910156 L18.969318389892578 20.596107482910156 L18.969318389892578 19.551607131958008"></path></svg>