<svg xmlns="http://www.w3.org/2000/svg" viewBox="0.0 0.0 24.0 24.0" height="200px" width="200px"><path fill="none" stroke="black" stroke-width=".3" stroke-opacity="1.0"  filling="0" d="M11.886645317077637 4.688321590423584 L13.309192657470703 4.688321590423584 L13.309192657470703 9.818115234375 L11.936989784240723 9.818115234375 L11.922515869140625 9.408594131469727 C11.558513641357422 9.576251983642578 11.230565071105957 9.93528938293457 10.830510139465332 9.911567687988281 C8.731464385986328 9.787099838256836 8.680839538574219 6.127625465393066 10.852143287658691 5.996021270751953 C11.230570793151855 5.973084449768066 11.532266616821289 6.331231594085693 11.87232780456543 6.498836994171143 L11.886645317077637 4.688321590423584"></path>
<path fill="none" stroke="black" stroke-width=".3" stroke-opacity="1.0"  filling="0" d="M3.693622589111328 4.954124927520752 L3.693622589111328 6.089315891265869 L4.455084323883057 6.089315891265869 L4.455084323883057 6.9658613204956055 L3.693622589111328 6.9658613204956055 L3.693622589111328 8.266244888305664 C3.8916704654693604 8.490283966064453 4.156711101531982 8.760252952575684 4.455084323883057 8.740506172180176 L4.455084323883057 9.818194389343262 C3.645192861557007 9.856388092041016 2.8809590339660645 9.281745910644531 2.27099609375 8.74758529663086 L2.27099609375 6.9658613204956055 L1.6387004852294922 6.9658613204956055 L1.6387004852294922 6.089315891265869 L2.27099609375 6.089315891265869 L2.27099609375 4.954124927520752 L3.693622589111328 4.954124927520752"></path>
<path fill="none" stroke="black" stroke-width=".3" stroke-opacity="1.0"  filling="0" d="M15.958024024963379 5.996021270751953 L15.958024024963379 5.996021270751953 C16.472042083740234 6.1923909187316895 17.103342056274414 6.203848838806152 17.500080108642578 6.58513069152832 C18.825881958007812 7.859283447265625 17.58180809020996 9.911568641662598 15.958024024963379 9.911567687988281 C14.334248542785645 9.911566734313965 13.090409278869629 7.859222412109375 14.416045188903809 6.58513069152832 C14.812750816345215 6.203850269317627 15.44403076171875 6.1923909187316895 15.958024024963379 5.996021270751953 L15.958024024963379 5.996021270751953"></path>
<path fill="none" stroke="black" stroke-width=".3" stroke-opacity="1.0"  filling="0" d="M6.845111846923828 6.9084367752075195 L6.845111846923828 6.9084367752075195 C7.053438663482666 7.116789817810059 7.261765003204346 7.325142860412598 7.470091819763184 7.533495903015137 L6.112284183502197 7.533495903015137 C6.356560230255127 7.325142860412598 6.600835800170898 7.116789817810059 6.845111846923828 6.9084367752075195 L6.845111846923828 6.9084367752075195"></path>
<path fill="none" stroke="black" stroke-width=".3" stroke-opacity="1.0"  filling="0" d="M11.936989784240723 7.950175762176514 L11.936989784240723 7.950175762176514 C11.728636741638184 8.259139060974121 11.684582710266113 8.877065658569336 11.311931610107422 8.877065658569336 C10.696416854858398 8.877065658569336 10.696416854858398 7.03052282333374 11.311931610107422 7.03052282333374 C11.682585716247559 7.03052282333374 11.728636741638184 7.643624782562256 11.936989784240723 7.950175762176514 L11.936989784240723 7.950175762176514"></path>
<path fill="none" stroke="black" stroke-width=".3" stroke-opacity="1.0"  filling="0" d="M16.568687438964844 7.950175762176514 L16.568687438964844 7.950175762176514 C16.36513328552246 8.259139060974121 16.328014373779297 8.877065658569336 15.958024024963379 8.877065658569336 C14.495122909545898 8.877065658569336 15.789159774780273 7.03052282333374 15.958024024963379 7.03052282333374 C16.32600212097168 7.03052282333374 16.36513328552246 7.643624782562256 16.568687438964844 7.950175762176514 L16.568687438964844 7.950175762176514"></path>
<path fill="none" stroke="black" stroke-width=".3" stroke-opacity="1.0"  filling="0" d="M8.83521556854248 8.273481369018555 L6.105047702789307 8.273481369018555 C6.434993267059326 8.603355407714844 7.000924110412598 8.923233032226562 7.427063465118408 8.733268737792969 L8.75623893737793 8.733268737792969 C8.50655460357666 9.030232429504395 8.33778190612793 9.421093940734863 8.007185935974121 9.624160766601562 C7.665202617645264 9.834222793579102 7.237936019897461 9.944625854492188 6.837954044342041 9.911566734313965 C4.724369525909424 9.736873626708984 4.490367889404297 8.25411319732666 5.08833122253418 7.141264915466309 C5.686295032501221 6.028417587280273 7.11622428894043 5.285482406616211 8.330501556396484 6.59044075012207 C8.72950267791748 7.0192389488220215 8.666977882385254 7.712520599365234 8.83521556854248 8.273560523986816 L8.83521556854248 8.273560523986816"></path>
<path fill="none" stroke="black" stroke-width=".3" stroke-opacity="1.0"  filling="0" d="M18.067459106445312 9.818115234375 L19.419208526611328 7.856723785400391 L18.247989654541016 6.089315891265869 L19.814176559448242 6.089315891265869 L20.223857879638672 6.829301834106445 L20.64053726196289 6.089315891265869 L22.163537979125977 6.089315891265869 L20.992557525634766 7.856723785400391 L22.361297607421875 9.818115234375 L20.654773712158203 9.818115234375 L20.202144622802734 8.905620574951172 L19.755258560180664 9.818115234375 L18.067461013793945 9.818115234375"></path>
<path fill="none" stroke="black" stroke-width=".3" stroke-opacity="1.0"  filling="0" d="M17.77435874938965 10.235818862915039 L19.553251266479492 10.235818862915039 L17.42466163635254 14.773749351501465 L15.296072006225586 19.31167984008789 L11.352521896362305 19.31167984008789 L14.563440322875977 14.773748397827148 L17.77435874938965 10.235817909240723"></path></svg>