<svg xmlns="http://www.w3.org/2000/svg" viewBox="0.0 0.0 24.0 24.0" height="200px" width="200px"><path fill="none" stroke="black" stroke-width=".3" stroke-opacity="1.0"  filling="0" d="M12.615594863891602 10.947582244873047 L12.825056076049805 10.947582244873047 C12.859046936035156 10.96242618560791 12.886139869689941 10.999104499816895 12.893253326416016 11.035507202148438 L12.862564086914062 11.205999374389648 C12.84102725982666 11.244585990905762 12.804068565368652 11.277643203735352 12.762704849243164 11.293192863464355 L12.665281295776367 11.293192863464355 C12.461968421936035 11.336528778076172 12.259718894958496 11.489184379577637 12.175484657287598 11.67923355102539 L12.662601470947266 11.701396942138672 C12.696457862854004 11.716461181640625 12.723206520080566 11.753196716308594 12.730313301086426 11.789565086364746 L12.699624061584473 11.96005630493164 C12.67808723449707 11.998641967773438 12.641129493713379 12.031700134277344 12.59976577758789 12.047249794006348 L12.108506202697754 12.047250747680664 L11.947757720947266 12.937213897705078 C11.926399230957031 12.975481033325195 11.890262603759766 13.008675575256348 11.849359512329102 13.024408340454102 L11.545398712158203 13.024408340454102 C11.51179027557373 13.00966739654541 11.484889030456543 12.973294258117676 11.47817611694336 12.937213897705078 L11.705904006958008 11.67898941040039 C11.875792503356934 11.328951835632324 12.239192962646484 11.046119689941406 12.615594863891602 10.947582244873047 L12.615594863891602 10.947582244873047"></path>
<path fill="none" stroke="black" stroke-width=".3" stroke-opacity="1.0"  filling="0" d="M13.18089485168457 10.975591659545898 L13.485098838806152 10.975591659545898 C13.518815040588379 10.990445137023926 13.545413970947266 11.027280807495117 13.552077293395996 11.063516616821289 L13.214749336242676 12.937213897705078 C13.193218231201172 12.975523948669434 13.156901359558105 13.008685111999512 13.115864753723145 13.024408340454102 L12.81190299987793 13.024408340454102 C12.778294563293457 13.00966739654541 12.751394271850586 12.973294258117676 12.744681358337402 12.937213897705078 L13.082252502441406 11.063516616821289 C13.103644371032715 11.025012969970703 13.13978385925293 10.991403579711914 13.18089485168457 10.975591659545898 L13.18089485168457 10.975591659545898"></path>
<path fill="none" stroke="black" stroke-width=".3" stroke-opacity="1.0"  filling="0" d="M1.5609540939331055 10.975835800170898 L1.8636970520019531 10.975835800170898 C1.897355079650879 10.990662574768066 1.9239991903305054 11.027349472045898 1.9306764602661133 11.063517570495605 L1.8576087951660156 11.464171409606934 L2.237560272216797 11.464171409606934 C2.2709226608276367 11.478981971740723 2.2970223426818848 11.515499114990234 2.3038082122802734 11.55136489868164 L2.2728748321533203 11.721856117248535 C2.2515244483947754 11.760258674621582 2.215264320373535 11.793573379516602 2.174234390258789 11.809292793273926 L1.7959880828857422 11.809293746948242 L1.687361717224121 12.415755271911621 C1.7189438343048096 12.710742950439453 1.7936580181121826 12.731607437133789 2.0602493286132812 12.706319808959961 L2.109691619873047 12.706320762634277 C2.1433308124542236 12.7208833694458 2.1712892055511475 12.75594425201416 2.1788625717163086 12.79180908203125 L2.1520700454711914 12.940380096435547 C1.8146628141403198 13.493844985961914 1.2891771793365479 12.506229400634766 1.2192411422729492 12.41015338897705 L1.4620695114135742 11.063516616821289 C1.4835264682769775 11.025042533874512 1.5198172330856323 10.991597175598145 1.5609540939331055 10.975835800170898 L1.5609540939331055 10.975835800170898"></path>
<path fill="none" stroke="black" stroke-width=".3" stroke-opacity="1.0"  filling="0" d="M4.467825889587402 11.428854942321777 L4.467825889587402 11.428854942321777 C4.743664741516113 11.514012336730957 5.0038981437683105 11.770354270935059 5.069904327392578 12.0513916015625 L4.910373210906982 12.935752868652344 C4.889327049255371 12.974262237548828 4.852770805358887 13.007401466369629 4.811731338500977 13.02294635772705 L4.549905776977539 13.02294635772705 C4.5164971351623535 13.00822925567627 4.489573001861572 12.972333908081055 4.482683181762695 12.936483383178711 L4.490720272064209 12.892155647277832 C3.420128107070923 13.221453666687012 3.02303409576416 12.348674774169922 4.150957107543945 12.0509033203125 L4.601296901702881 12.0509033203125 C4.553223133087158 11.59132194519043 4.24269962310791 11.784073829650879 3.9244463443756104 11.925472259521484 L3.7225379943847656 11.925471305847168 C3.448953151702881 11.806008338928223 4.201261043548584 11.563254356384277 4.467825889587402 11.428854942321777 L4.467825889587402 11.428854942321777"></path>
<path fill="none" stroke="black" stroke-width=".3" stroke-opacity="1.0"  filling="0" d="M6.371237754821777 11.428854942321777 L6.371237754821777 11.428854942321777 C6.632756233215332 11.533401489257812 6.8253350257873535 11.835837364196777 6.864687442779541 12.114716529846191 L6.716603755950928 12.934778213500977 C6.695066928863525 12.97336483001709 6.658107757568359 13.00642204284668 6.616744041442871 13.021971702575684 L6.314001560211182 13.02197265625 C6.280638217926025 13.007275581359863 6.2537665367126465 12.97133731842041 6.2470221519470215 12.935508728027344 L6.394863128662109 12.115446090698242 C6.292341709136963 11.938467025756836 5.978882312774658 11.885883331298828 5.796682834625244 11.97881031036377 L5.624000072479248 12.935997009277344 C5.6026411056518555 12.974264144897461 5.56650447845459 13.007457733154297 5.525601863861084 13.02319049835205 L5.221396446228027 13.02319049835205 C5.1878814697265625 13.008359909057617 5.161257266998291 12.972002983093262 5.154418468475342 12.935997009277344 L5.405527114868164 11.54600715637207 C5.426918029785156 11.507503509521484 5.4630584716796875 11.473893165588379 5.504169464111328 11.45808219909668 L5.808860778808594 11.45808219909668 C5.842577934265137 11.47293472290039 5.869175910949707 11.509771347045898 5.875839710235596 11.54600715637207 L5.859764575958252 11.636123657226562 C6.0302557945251465 11.567033767700195 6.200746536254883 11.497944831848145 6.371237754821777 11.428854942321777 L6.371237754821777 11.428854942321777"></path>
<path fill="none" stroke="black" stroke-width=".3" stroke-opacity="1.0"  filling="0" d="M7.866444110870361 11.428854942321777 L7.866444110870361 11.428854942321777 C7.881341934204102 11.438361167907715 8.80567455291748 11.778413772583008 8.412259101867676 11.92741870880127 L8.209861755371094 11.92741870880127 C6.830673694610596 11.194215774536133 8.470651626586914 12.567328453063965 8.445383071899414 12.591360092163086 C8.215856552124023 12.809648513793945 7.931163311004639 13.041574478149414 7.614604473114014 13.05265998840332 C7.458682060241699 13.058120727539062 6.6593170166015625 12.700276374816895 7.042972087860107 12.556044578552246 L7.2436652183532715 12.556044578552246 C7.486841678619385 12.688496589660645 7.713854789733887 12.846976280212402 7.974827766418457 12.59184741973877 C8.004378318786621 12.562958717346191 7.184516906738281 12.246272087097168 7.132114887237549 12.165862083435059 C6.829318046569824 11.701227188110352 7.6031270027160645 11.58303165435791 7.866444110870361 11.428854942321777 L7.866444110870361 11.428854942321777"></path>
<path fill="none" stroke="black" stroke-width=".3" stroke-opacity="1.0"  filling="0" d="M10.221170425415039 11.428854942321777 L10.221170425415039 11.428854942321777 C11.179642677307129 11.77349853515625 11.07824420928955 13.05290412902832 9.928168296813965 13.05290412902832 C8.533007621765137 13.05290412902832 9.539153099060059 11.646503448486328 10.221170425415039 11.428854942321777 L10.221170425415039 11.428854942321777"></path>
<path fill="none" stroke="black" stroke-width=".3" stroke-opacity="1.0"  filling="0" d="M14.514864921569824 11.428854942321777 L14.514864921569824 11.428854942321777 C13.870404243469238 11.647724151611328 12.924344062805176 13.24138069152832 14.22186279296875 13.05290412902832 C14.518095016479492 13.009873390197754 15.239195823669434 12.685625076293945 14.969589233398438 12.555558204650879 L14.767435073852539 12.555558204650879 C14.427285194396973 12.70959758758545 14.124113082885742 12.875465393066406 14.022634506225586 12.415511131286621 L14.022634506225586 12.415511131286621 C14.398172378540039 12.406767845153809 14.966656684875488 12.655253410339355 15.145925521850586 12.325150489807129 L15.161026000976562 12.241609573364258 C15.104104042053223 11.90021800994873 14.837702751159668 11.553610801696777 14.514864921569824 11.428854942321777 L14.514864921569824 11.428854942321777"></path>
<path fill="none" stroke="black" stroke-width=".3" stroke-opacity="1.0"  filling="0" d="M3.5520458221435547 11.431289672851562 L3.5520458221435547 11.431289672851562 C3.5870633125305176 11.44701862335205 3.61490535736084 11.48493480682373 3.6221914291381836 11.522624969482422 L3.5868749618530273 11.721125602722168 C3.5648300647735596 11.761072158813477 3.52670955657959 11.795599937438965 3.48384952545166 11.811243057250977 L3.4787349700927734 11.81124210357666 C3.3017754554748535 11.803939819335938 3.145315170288086 11.934524536132812 2.989912986755371 12.019484519958496 L2.8242931365966797 12.936726570129395 C2.802978992462158 12.975211143493652 2.7667324542999268 13.008668899536133 2.725651741027832 13.024408340454102 L2.4214468002319336 13.024408340454102 C2.387907028198242 13.00963306427002 2.361171245574951 12.973245620727539 2.3544673919677734 12.937213897705078 L2.605576515197754 11.546737670898438 C2.626854658126831 11.508172035217285 2.6630868911743164 11.47457218170166 2.7042179107666016 11.458813667297363 L3.0084228515625 11.458812713623047 C3.041879415512085 11.473616600036621 3.068549871444702 11.5098237991333 3.0754013061523438 11.545762062072754 L3.0595703125 11.631738662719727 C3.1845834255218506 11.566286087036133 3.3072710037231445 11.490309715270996 3.443418502807617 11.453211784362793 L3.5520458221435547 11.431289672851562"></path>
<path fill="none" stroke="black" stroke-width=".3" stroke-opacity="1.0"  filling="0" d="M16.614585876464844 11.458568572998047 L16.909290313720703 11.458568572998047 C16.98096466064453 11.492019653320312 16.962007522583008 11.520767211914062 16.92853355407715 11.584977149963379 L16.36834716796875 12.24087905883789 L16.721996307373047 12.89848804473877 C16.731441497802734 12.94473648071289 16.696699142456055 12.998552322387695 16.657207489013672 13.024408340454102 L16.36810302734375 13.024408340454102 C16.305021286010742 12.982516288757324 16.241941452026367 12.94062328338623 16.17885971069336 12.898731231689453 L15.98401165008545 12.527304649353027 L15.656912803649902 12.897757530212402 C15.579216957092285 12.93964958190918 15.501522064208984 12.981541633605957 15.423826217651367 13.023433685302734 L15.133991241455078 13.023433685302734 C15.056811332702637 13.000860214233398 15.083025932312012 12.9535493850708 15.114262580871582 12.897514343261719 L15.705379486083984 12.23990535736084 L15.38144588470459 11.584245681762695 C15.367444038391113 11.509025573730469 15.374234199523926 11.487789154052734 15.445989608764648 11.458812713623047 L15.740694999694824 11.458812713623047 C15.803695678710938 11.50062370300293 15.866695404052734 11.542434692382812 15.929696083068848 11.584245681762695 L16.08995819091797 11.94446849822998 L16.380281448364258 11.584001541137695 C16.458383560180664 11.542190551757812 16.536483764648438 11.50037956237793 16.614585876464844 11.458568572998047 L16.614585876464844 11.458568572998047"></path>
<path fill="none" stroke="black" stroke-width=".3" stroke-opacity="1.0"  filling="0" d="M10.162471771240234 11.754005432128906 L10.162471771240234 11.754005432128906 C10.564191818237305 11.943708419799805 10.532249450683594 12.727509498596191 9.986623764038086 12.727509498596191 C9.35003662109375 12.727509498596191 9.871063232421875 11.871856689453125 10.162471771240234 11.754005432128906 L10.162471771240234 11.754005432128906"></path>
<path fill="none" stroke="black" stroke-width=".3" stroke-opacity="1.0"  filling="0" d="M14.457141876220703 11.754249572753906 L14.457141876220703 11.754249572753906 C14.54157543182373 11.86661148071289 14.626009941101074 11.978972434997559 14.710443496704102 12.091334342956543 L14.07913875579834 12.091334342956543 C14.205140113830566 11.978972434997559 14.331140518188477 11.86661148071289 14.457141876220703 11.754249572753906 L14.457141876220703 11.754249572753906"></path>
<path fill="none" stroke="black" stroke-width=".3" stroke-opacity="1.0"  filling="0" d="M17.62851905822754 12.00146198272705 L17.62851905822754 12.00146198272705 C18.04796028137207 10.97546672821045 19.19244384765625 9.317164421081543 20.502328872680664 10.793745040893555 C20.86137580871582 11.198484420776367 20.88370132446289 11.806401252746582 21.074386596679688 12.312728881835938 L20.528085708618164 12.313217163085938 C20.39867401123047 11.93773078918457 20.397687911987305 11.488847732543945 20.13985252380371 11.186758041381836 C19.552091598510742 10.498112678527832 18.183101654052734 10.983842849731445 18.183101654052734 12.002192497253418 C18.183101654052734 12.530755043029785 18.92530632019043 12.754951477050781 19.29640769958496 13.131330490112305 L22.799999237060547 13.131330490112305 L22.235919952392578 13.69151496887207 L19.29665184020996 13.69151496887207 C18.56689453125 13.385062217712402 17.92854881286621 12.733983039855957 17.62876319885254 12.00146198272705 L17.62876319885254 12.00146198272705"></path>
<path fill="none" stroke="black" stroke-width=".3" stroke-opacity="1.0"  filling="0" d="M8.823387145996094 12.01997184753418 L8.927385330200195 12.01997184753418 C8.9762544631958 12.039636611938477 9.014065742492676 12.095124244689941 9.020913124084473 12.147354125976562 L9.010196685791016 12.206538200378418 C8.98220443725586 12.262374877929688 8.930682182312012 12.311531066894531 8.87209701538086 12.333189010620117 L8.76712417602539 12.3331880569458 C8.71898078918457 12.312786102294922 8.681642532348633 12.258345603942871 8.674571990966797 12.206538200378418 L8.68504524230957 12.147353172302246 C8.712555885314941 12.091028213500977 8.764305114746094 12.040916442871094 8.823387145996094 12.01997184753418 L8.823387145996094 12.01997184753418"></path>
<path fill="none" stroke="black" stroke-width=".3" stroke-opacity="1.0"  filling="0" d="M11.230476379394531 12.01997184753418 L11.335693359375 12.01997184753418 C11.384410858154297 12.039752960205078 11.421767234802246 12.095235824584961 11.428732872009277 12.147353172302246 L11.417773246765137 12.206538200378418 C11.38963794708252 12.262370109558105 11.338072776794434 12.31151008605957 11.279431343078613 12.333189010620117 L11.173971176147461 12.3331880569458 C11.125916481018066 12.312699317932129 11.088860511779785 12.258279800415039 11.08166217803955 12.206538200378418 L11.092135429382324 12.147353172302246 C11.119645118713379 12.091028213500977 11.171394348144531 12.040916442871094 11.230476379394531 12.01997184753418 L11.230476379394531 12.01997184753418"></path>
<path fill="none" stroke="black" stroke-width=".3" stroke-opacity="1.0"  filling="0" d="M4.124165058135986 12.374836921691895 L4.124165058135986 12.374836921691895 C3.579082489013672 12.542040824890137 4.1063995361328125 12.71692180633545 4.501437187194824 12.597936630249023 L4.124165058135986 12.374836921691895"></path>
<path fill="none" stroke="black" stroke-width=".3" stroke-opacity="1.0"  filling="0" d="M19.29640769958496 12.463249206542969 L22.235919952392578 12.463249206542969 L22.799999237060547 13.023432731628418 L19.29568099975586 13.023432731628418 C18.959081649780273 12.682450294494629 18.285884857177734 12.479618072509766 18.285884857177734 12.000486373901367 C18.285884857177734 11.113861083984375 19.531509399414062 10.622097969055176 20.06824493408203 11.255928993225098 C20.30876922607422 11.53996467590332 20.308069229125977 11.960624694824219 20.427982330322266 12.312973022460938 L19.905303955078125 12.313459396362305 C19.70233917236328 12.054637908935547 19.56780433654785 11.722809791564941 19.29640769958496 11.536994934082031 C19.02054786682129 11.348123550415039 18.62862777709961 12.185914039611816 19.29640769958496 12.462518692016602 L19.29640769958496 12.462518692016602"></path></svg>