<svg xmlns="http://www.w3.org/2000/svg" viewBox="0.0 0.0 24.0 24.0" height="200px" width="200px"><path fill="none" stroke="black" stroke-width=".3" stroke-opacity="1.0"  filling="0" d="M1.2000007629394531 7.688556671142578 L3.2032556533813477 7.688556671142578 L3.2032556533813477 8.126893043518066 L2.142911911010742 8.126893043518066 L2.142911911010742 9.624133110046387 L1.2000007629394531 9.624133110046387 L1.2000007629394531 7.688556671142578"></path>
<path fill="none" stroke="black" stroke-width=".3" stroke-opacity="1.0"  filling="0" d="M1.9305124282836914 7.688556671142578 L2.897616386413574 7.688556671142578 L2.897616386413574 9.186516761779785 L3.602208137512207 9.186516761779785 L3.602208137512207 9.624133110046387 L1.2000007629394531 9.624133110046387 L1.2000732421875 9.184285163879395 L1.9305124282836914 9.186516761779785 L1.9305124282836914 7.688556671142578"></path>
<path fill="none" stroke="black" stroke-width=".3" stroke-opacity="1.0"  filling="0" d="M1.2000007629394531 8.511804580688477 L1.860457420349121 8.511804580688477 C2.0596816539764404 8.824542999267578 2.0683367252349854 9.308249473571777 1.8741369247436523 9.624133110046387 L1.2000007629394531 9.624133110046387 L1.2000007629394531 8.511804580688477"></path>
<path fill="none" stroke="black" stroke-width=".3" stroke-opacity="1.0"  filling="0" d="M1.2000007629394531 8.511804580688477 L1.8424568176269531 8.511804580688477 C2.041982412338257 8.824317932128906 2.0425145626068115 9.311960220336914 1.8424568176269531 9.624133110046387 L1.2000007629394531 9.624133110046387 L1.2000007629394531 8.511804580688477"></path>
<path fill="none" stroke="black" stroke-width=".3" stroke-opacity="1.0"  filling="0" d="M1.2000007629394531 8.866836547851562 L2.2154159545898438 8.866836547851562 L1.2000007629394531 9.624133110046387 L1.2000007629394531 8.866836547851562"></path>
<path fill="none" stroke="black" stroke-width=".3" stroke-opacity="1.0"  filling="0" d="M0.9706087112426758 9.10976505279541 L0.9706087112426758 9.10976505279541 C1.0470727682113647 9.18246078491211 1.1235367059707642 9.255157470703125 1.2000007629394531 9.327853202819824 L1.2000007629394531 9.624133110046387 L1.1153287887573242 9.337212562561035 C1.0514163970947266 9.26490592956543 0.8897465467453003 9.264922142028809 0.8258161544799805 9.337212562561035 L0.7412176132202148 9.624133110046387 L0.7412176132202148 9.327853202819824 C0.8176813125610352 9.255157470703125 0.8941450119018555 9.18246078491211 0.9706087112426758 9.10976505279541 L0.9706087112426758 9.10976505279541"></path>
<path fill="none" stroke="black" stroke-width=".3" stroke-opacity="1.0"  filling="0" d="M1.0256166458129883 9.126397132873535 L1.0256166458129883 9.126397132873535 C1.0857127904891968 9.133885383605957 1.1458088159561157 9.141372680664062 1.2059049606323242 9.148860931396484 L1.2059049606323242 9.411876678466797 L1.1212329864501953 9.19882869720459 C0.6795563697814941 9.158219337463379 0.7855249643325806 9.6381196975708 1.193232536315918 9.550909042358398 L1.2000007629394531 9.624133110046387 C0.6941813230514526 9.69801139831543 0.6625908017158508 9.433714866638184 1.0256166458129883 9.126397132873535 L1.0256166458129883 9.126397132873535"></path>
<path fill="none" stroke="black" stroke-width=".3" stroke-opacity="1.0"  filling="0" d="M1.1153287887573242 9.182196617126465 L1.2829437255859375 9.384300231933594 C1.3648327589035034 9.443883895874023 1.3539083003997803 9.630746841430664 1.2702722549438477 9.68785285949707 L1.1153287887573242 9.182196617126465"></path>
<path fill="none" stroke="black" stroke-width=".3" stroke-opacity="1.0"  filling="0" d="M1.1153287887573242 9.182196617126465 L1.2829437255859375 9.384300231933594 C1.3648327589035034 9.443883895874023 1.3539083003997803 9.630746841430664 1.2702722549438477 9.68785285949707 L1.1153287887573242 9.182196617126465"></path>
<path fill="none" stroke="black" stroke-width=".3" stroke-opacity="1.0"  filling="0" d="M0.2743682861328125 9.18838882446289 L2.298360824584961 9.18838882446289 L2.298360824584961 9.624133110046387 L1.2000007629394531 9.624133110046387 L1.2000007629394531 9.968293190002441 L1.8777360916137695 9.968293190002441 L1.8777360916137695 10.412317276000977 L1.2000007629394531 10.412604331970215 L1.2000007629394531 10.679941177368164 L2.2949047088623047 10.679941177368164 L2.2949047088623047 11.123964309692383 L0.2743682861328125 11.123964309692383 L0.2743682861328125 9.18838882446289"></path>
<path fill="none" stroke="black" stroke-width=".3" stroke-opacity="1.0"  filling="0" d="M1.5521535873413086 9.277812957763672 L1.519968032836914 9.384300231933594 C2.2140865325927734 10.430033683776855 0.37665462493896484 9.299206733703613 1.4421367645263672 9.365509033203125 L1.5521535873413086 9.277812957763672"></path>
<path fill="none" stroke="black" stroke-width=".3" stroke-opacity="1.0"  filling="0" d="M1.2000007629394531 9.448092460632324 L1.283808708190918 9.448092460632324 C1.3308238983154297 9.483426094055176 1.3209182024002075 9.591485023498535 1.2720003128051758 9.624133110046387 L1.2000007629394531 9.448092460632324"></path>
<path fill="none" stroke="black" stroke-width=".3" stroke-opacity="1.0"  filling="0" d="M1.2000007629394531 9.448092460632324 L1.283808708190918 9.448092460632324 C1.3308250904083252 9.483427047729492 1.3208554983139038 9.591496467590332 1.271927833557129 9.624133110046387 L1.2000007629394531 9.448092460632324"></path>
<path fill="none" stroke="black" stroke-width=".3" stroke-opacity="1.0"  filling="0" d="M1.1102886199951172 9.624133110046387 L1.1102886199951172 9.624133110046387 C1.7738399505615234 9.013832092285156 1.773841142654419 10.2344331741333 1.1102886199951172 9.624133110046387 L1.1102886199951172 9.624133110046387"></path>
<path fill="none" stroke="black" stroke-width=".3" stroke-opacity="1.0"  filling="0" d="M1.2000007629394531 9.624133110046387 L8.34331226348877 9.624133110046387 L15.48662281036377 9.624134063720703 L22.629934310913086 9.624133110046387 L29.773244857788086 9.624134063720703 L36.91655731201172 9.624133110046387 L44.05986785888672 9.624133110046387 L44.05986785888672 16.3592529296875 L44.05986785888672 23.09437370300293 L44.05986785888672 29.82949447631836 L44.05986785888672 36.564613342285156 L44.05986785888672 43.29973602294922 L44.05986785888672 50.034854888916016 L44.05986785888672 56.76996994018555 L44.05986785888672 63.50509262084961 L44.05986785888672 70.2402114868164 L36.91655731201172 70.2402114868164 L29.773244857788086 70.2402114868164 L22.629934310913086 70.2402114868164 L15.48662281036377 70.2402114868164 L8.34331226348877 70.2402114868164 L1.2000007629394531 70.2402114868164 L1.2000007629394531 63.50509262084961 L1.2000007629394531 56.76996994018555 L1.2000007629394531 50.034854888916016 L1.2000007629394531 43.29973602294922 L1.2000007629394531 36.564613342285156 L1.2000007629394531 29.82949447631836 L1.2000007629394531 23.09437370300293 L1.2000007629394531 16.3592529296875 L1.2000007629394531 9.624133110046387"></path>
<path fill="none" stroke="black" stroke-width=".3" stroke-opacity="1.0"  filling="0" d="M1.2000007629394531 9.624133110046387 L8.34331226348877 9.624133110046387 L15.48662281036377 9.624134063720703 L22.629934310913086 9.624133110046387 L29.773244857788086 9.624134063720703 L36.91655731201172 9.624133110046387 L44.05986785888672 9.624133110046387 L44.05986785888672 16.3592529296875 L44.05986785888672 23.09437370300293 L44.05986785888672 29.82949447631836 L44.05986785888672 36.564613342285156 L44.05986785888672 43.29973602294922 L44.05986785888672 50.034854888916016 L44.05986785888672 56.76996994018555 L44.05986785888672 63.50509262084961 L44.05986785888672 70.2402114868164 L36.91655731201172 70.2402114868164 L29.773244857788086 70.2402114868164 L22.629934310913086 70.2402114868164 L15.48662281036377 70.2402114868164 L8.34331226348877 70.2402114868164 L1.2000007629394531 70.2402114868164 L1.2000007629394531 63.50509262084961 L1.2000007629394531 56.76996994018555 L1.2000007629394531 50.034854888916016 L1.2000007629394531 43.29973602294922 L1.2000007629394531 36.564613342285156 L1.2000007629394531 29.82949447631836 L1.2000007629394531 23.09437370300293 L1.2000007629394531 16.3592529296875 L1.2000007629394531 9.624133110046387"></path>
<path fill="none" stroke="black" stroke-width=".3" stroke-opacity="1.0"  filling="0" d="M1.2000007629394531 9.624133110046387 L8.34331226348877 9.624133110046387 L15.48662281036377 9.624134063720703 L22.629934310913086 9.624133110046387 L29.773244857788086 9.624134063720703 L36.91655731201172 9.624133110046387 L44.05986785888672 9.624133110046387 L44.05986785888672 16.3592529296875 L44.05986785888672 23.09437370300293 L44.05986785888672 29.82949447631836 L44.05986785888672 36.564613342285156 L44.05986785888672 43.29973602294922 L44.05986785888672 50.034854888916016 L44.05986785888672 56.76996994018555 L44.05986785888672 63.50509262084961 L44.05986785888672 70.2402114868164 L36.91655731201172 70.2402114868164 L29.773244857788086 70.2402114868164 L22.629934310913086 70.2402114868164 L15.48662281036377 70.2402114868164 L8.34331226348877 70.2402114868164 L1.2000007629394531 70.2402114868164 L1.2000007629394531 63.50509262084961 L1.2000007629394531 56.76996994018555 L1.2000007629394531 50.034854888916016 L1.2000007629394531 43.29973602294922 L1.2000007629394531 36.564613342285156 L1.2000007629394531 29.82949447631836 L1.2000007629394531 23.09437370300293 L1.2000007629394531 16.3592529296875 L1.2000007629394531 9.624133110046387"></path>
<path fill="none" stroke="black" stroke-width=".3" stroke-opacity="1.0"  filling="0" d="M1.2000007629394531 9.624133110046387 L8.34331226348877 9.624133110046387 L15.48662281036377 9.624134063720703 L22.629934310913086 9.624133110046387 L29.773244857788086 9.624134063720703 L36.91655731201172 9.624133110046387 L44.05986785888672 9.624133110046387 L44.05986785888672 16.3592529296875 L44.05986785888672 23.09437370300293 L44.05986785888672 29.82949447631836 L44.05986785888672 36.564613342285156 L44.05986785888672 43.29973602294922 L44.05986785888672 50.034854888916016 L44.05986785888672 56.76996994018555 L44.05986785888672 63.50509262084961 L44.05986785888672 70.2402114868164 L36.91655731201172 70.2402114868164 L29.773244857788086 70.2402114868164 L22.629934310913086 70.2402114868164 L15.48662281036377 70.2402114868164 L8.34331226348877 70.2402114868164 L1.2000007629394531 70.2402114868164 L1.2000007629394531 63.50509262084961 L1.2000007629394531 56.76996994018555 L1.2000007629394531 50.034854888916016 L1.2000007629394531 43.29973602294922 L1.2000007629394531 36.564613342285156 L1.2000007629394531 29.82949447631836 L1.2000007629394531 23.09437370300293 L1.2000007629394531 16.3592529296875 L1.2000007629394531 9.624133110046387"></path>
<path fill="none" stroke="black" stroke-width=".3" stroke-opacity="1.0"  filling="0" d="M1.2000007629394531 9.624133110046387 L8.34331226348877 9.624133110046387 L15.48662281036377 9.624134063720703 L22.629934310913086 9.624133110046387 L29.773244857788086 9.624134063720703 L36.91655731201172 9.624133110046387 L44.05986785888672 9.624133110046387 L44.05986785888672 16.3592529296875 L44.05986785888672 23.09437370300293 L44.05986785888672 29.82949447631836 L44.05986785888672 36.564613342285156 L44.05986785888672 43.29973602294922 L44.05986785888672 50.034854888916016 L44.05986785888672 56.76996994018555 L44.05986785888672 63.50509262084961 L44.05986785888672 70.2402114868164 L36.91655731201172 70.2402114868164 L29.773244857788086 70.2402114868164 L22.629934310913086 70.2402114868164 L15.48662281036377 70.2402114868164 L8.34331226348877 70.2402114868164 L1.2000007629394531 70.2402114868164 L1.2000007629394531 63.50509262084961 L1.2000007629394531 56.76996994018555 L1.2000007629394531 50.034854888916016 L1.2000007629394531 43.29973602294922 L1.2000007629394531 36.564613342285156 L1.2000007629394531 29.82949447631836 L1.2000007629394531 23.09437370300293 L1.2000007629394531 16.3592529296875 L1.2000007629394531 9.624133110046387"></path>
<path fill="none" stroke="black" stroke-width=".3" stroke-opacity="1.0"  filling="0" d="M1.2000007629394531 9.624133110046387 L8.34331226348877 9.624133110046387 L15.48662281036377 9.624134063720703 L22.629934310913086 9.624133110046387 L29.773244857788086 9.624134063720703 L36.91655731201172 9.624133110046387 L44.05986785888672 9.624133110046387 L44.05986785888672 16.3592529296875 L44.05986785888672 23.09437370300293 L44.05986785888672 29.82949447631836 L44.05986785888672 36.564613342285156 L44.05986785888672 43.29973602294922 L44.05986785888672 50.034854888916016 L44.05986785888672 56.76996994018555 L44.05986785888672 63.50509262084961 L44.05986785888672 70.2402114868164 L36.91655731201172 70.2402114868164 L29.773244857788086 70.2402114868164 L22.629934310913086 70.2402114868164 L15.48662281036377 70.2402114868164 L8.34331226348877 70.2402114868164 L1.2000007629394531 70.2402114868164 L1.2000007629394531 63.50509262084961 L1.2000007629394531 56.76996994018555 L1.2000007629394531 50.034854888916016 L1.2000007629394531 43.29973602294922 L1.2000007629394531 36.564613342285156 L1.2000007629394531 29.82949447631836 L1.2000007629394531 23.09437370300293 L1.2000007629394531 16.3592529296875 L1.2000007629394531 9.624133110046387"></path>
<path fill="none" stroke="black" stroke-width=".3" stroke-opacity="1.0"  filling="0" d="M1.2000007629394531 9.624133110046387 L8.34331226348877 9.624133110046387 L15.48662281036377 9.624134063720703 L22.629934310913086 9.624133110046387 L29.773244857788086 9.624134063720703 L36.91655731201172 9.624133110046387 L44.05986785888672 9.624133110046387 L44.05986785888672 16.3592529296875 L44.05986785888672 23.09437370300293 L44.05986785888672 29.82949447631836 L44.05986785888672 36.564613342285156 L44.05986785888672 43.29973602294922 L44.05986785888672 50.034854888916016 L44.05986785888672 56.76996994018555 L44.05986785888672 63.50509262084961 L44.05986785888672 70.2402114868164 L36.91655731201172 70.2402114868164 L29.773244857788086 70.2402114868164 L22.629934310913086 70.2402114868164 L15.48662281036377 70.2402114868164 L8.34331226348877 70.2402114868164 L1.2000007629394531 70.2402114868164 L1.2000007629394531 63.50509262084961 L1.2000007629394531 56.76996994018555 L1.2000007629394531 50.034854888916016 L1.2000007629394531 43.29973602294922 L1.2000007629394531 36.564613342285156 L1.2000007629394531 29.82949447631836 L1.2000007629394531 23.09437370300293 L1.2000007629394531 16.3592529296875 L1.2000007629394531 9.624133110046387"></path>
<path fill="none" stroke="black" stroke-width=".3" stroke-opacity="1.0"  filling="0" d="M1.2000007629394531 9.624133110046387 L1.7909040451049805 9.624133110046387 L1.5411367416381836 10.129860877990723 L1.2000007629394531 9.624133110046387"></path>
<path fill="none" stroke="black" stroke-width=".3" stroke-opacity="1.0"  filling="0" d="M1.2000007629394531 9.624133110046387 L1.3354320526123047 9.848700523376465 C1.368456482887268 9.832283973693848 1.401481032371521 9.815868377685547 1.4345054626464844 9.79945182800293 L1.6215600967407227 9.624133110046387 L1.5098161697387695 9.825517654418945 C1.4906402826309204 9.842437744140625 1.4714645147323608 9.859356880187988 1.4522886276245117 9.876276969909668 L1.4522886276245117 9.877717018127441 C1.5186936855316162 9.940473556518555 1.4232432842254639 10.083026885986328 1.344792366027832 10.129860877990723 L1.2000007629394531 9.624133110046387"></path>
<path fill="none" stroke="black" stroke-width=".3" stroke-opacity="1.0"  filling="0" d="M1.2000007629394531 9.624133110046387 L1.2000007629394531 9.624133110046387 C1.6593595743179321 9.15746784210205 1.6593599319458008 10.09079647064209 1.2000007629394531 9.624133110046387 L1.2000007629394531 9.624133110046387"></path>
<path fill="none" stroke="black" stroke-width=".3" stroke-opacity="1.0"  filling="0" d="M1.2000007629394531 9.624133110046387 L1.3354320526123047 9.848700523376465 C1.368456482887268 9.832283973693848 1.401481032371521 9.815868377685547 1.4345054626464844 9.79945182800293 L1.6215600967407227 9.624133110046387 L1.5098161697387695 9.825517654418945 C1.4906402826309204 9.842437744140625 1.4714645147323608 9.859356880187988 1.4522886276245117 9.876276969909668 L1.4522886276245117 9.877717018127441 C1.5187005996704102 9.94048023223877 1.4231854677200317 10.083032608032227 1.3447198867797852 10.129860877990723 L1.2000007629394531 9.624133110046387"></path>
<path fill="none" stroke="black" stroke-width=".3" stroke-opacity="1.0"  filling="0" d="M1.2000007629394531 9.624133110046387 L1.4683446884155273 10.129860877990723 L1.0163288116455078 10.129860877990723 L1.2000007629394531 9.624133110046387"></path>
<path fill="none" stroke="black" stroke-width=".3" stroke-opacity="1.0"  filling="0" d="M1.2000007629394531 9.624133110046387 L1.530984878540039 9.624133110046387 L1.2846717834472656 10.066068649291992 L1.530984878540039 10.129860877990723 L1.2000007629394531 10.129860877990723 L1.2000007629394531 9.624133110046387"></path>
<path fill="none" stroke="black" stroke-width=".3" stroke-opacity="1.0"  filling="0" d="M1.2000007629394531 9.624133110046387 L1.2000007629394531 9.624133110046387 C1.6593595743179321 9.15746784210205 1.6593599319458008 10.09079647064209 1.2000007629394531 9.624133110046387 L1.2000007629394531 9.624133110046387"></path>
<path fill="none" stroke="black" stroke-width=".3" stroke-opacity="1.0"  filling="0" d="M1.2000007629394531 9.624133110046387 L1.2846717834472656 10.061749458312988 L1.564824104309082 9.624133110046387 L1.7621049880981445 10.061749458312988 L1.8467769622802734 9.624133110046387 L1.8467769622802734 10.129860877990723 L1.525080680847168 9.709596633911133 L1.2000007629394531 10.129860877990723 L1.2000007629394531 9.624133110046387"></path>
<path fill="none" stroke="black" stroke-width=".3" stroke-opacity="1.0"  filling="0" d="M1.2000007629394531 9.624133110046387 L1.530984878540039 9.624133110046387 L1.2846717834472656 10.066068649291992 L1.530984878540039 10.129860877990723 L1.2000007629394531 10.129860877990723 L1.2000007629394531 9.624133110046387"></path>
<path fill="none" stroke="black" stroke-width=".3" stroke-opacity="1.0"  filling="0" d="M1.2000007629394531 9.624133110046387 L1.2863283157348633 10.04000473022461 L1.662240982055664 9.624133110046387 L1.662240982055664 10.129860877990723 L1.575840950012207 9.722701072692871 L1.2000007629394531 10.129860877990723 L1.2000007629394531 9.624133110046387"></path>
<path fill="none" stroke="black" stroke-width=".3" stroke-opacity="1.0"  filling="0" d="M1.2000007629394531 9.624133110046387 L1.4683446884155273 10.129860877990723 L1.016256332397461 10.129860877990723 L1.2000007629394531 9.624133110046387"></path>
<path fill="none" stroke="black" stroke-width=".3" stroke-opacity="1.0"  filling="0" d="M1.2000007629394531 9.624133110046387 L1.2846717834472656 10.061749458312988 L1.564824104309082 9.624133110046387 L1.7621049880981445 10.061749458312988 L1.8467769622802734 9.624133110046387 L1.8467769622802734 10.129860877990723 L1.525080680847168 9.709596633911133 L1.2000007629394531 10.129860877990723 L1.2000007629394531 9.624133110046387"></path>
<path fill="none" stroke="black" stroke-width=".3" stroke-opacity="1.0"  filling="0" d="M1.2000007629394531 9.624133110046387 L1.3574647903442383 9.624133110046387 C1.4350162744522095 9.670559883117676 1.513119101524353 9.820595741271973 1.4455204010009766 9.880596160888672 L1.4455204010009766 9.882037162780762 C1.507717251777649 9.943426132202148 1.434432864189148 10.08409595489502 1.3599843978881836 10.129860877990723 L1.2000007629394531 9.624133110046387"></path>
<path fill="none" stroke="black" stroke-width=".3" stroke-opacity="1.0"  filling="0" d="M1.2000007629394531 9.624133110046387 L1.5674161911010742 9.854533195495605 L1.6520166397094727 9.624133110046387 L1.6520166397094727 10.129860877990723 L1.2846717834472656 9.918251991271973 L1.2000007629394531 10.129860877990723 L1.2000007629394531 9.624133110046387"></path>
<path fill="none" stroke="black" stroke-width=".3" stroke-opacity="1.0"  filling="0" d="M1.2846717834472656 9.68353271484375 L1.3481054306030273 9.68353271484375 C1.3977841138839722 9.711620330810547 1.3890093564987183 9.825835227966309 1.3396806716918945 9.854533195495605 L1.2846717834472656 9.68353271484375"></path>
<path fill="none" stroke="black" stroke-width=".3" stroke-opacity="1.0"  filling="0" d="M1.376112937927246 9.811044692993164 L1.6114091873168945 9.811044692993164 L1.4937610626220703 10.061749458312988 L1.376112937927246 9.811044692993164"></path>
<path fill="none" stroke="black" stroke-width=".3" stroke-opacity="1.0"  filling="0" d="M1.2846717834472656 9.912492752075195 L1.3566007614135742 9.912492752075195 C1.4002349376678467 9.939444541931152 1.4093654155731201 10.038749694824219 1.3659601211547852 10.066068649291992 L1.2846717834472656 9.912492752075195"></path>
<path fill="none" stroke="black" stroke-width=".3" stroke-opacity="1.0"  filling="0" d="M1.2846717834472656 9.912492752075195 L1.3566007614135742 9.912492752075195 C1.4002268314361572 9.939455032348633 1.409292459487915 10.038749694824219 1.3658885955810547 10.066068649291992 L1.2846717834472656 9.912492752075195"></path>
<path fill="none" stroke="black" stroke-width=".3" stroke-opacity="1.0"  filling="0" d="M1.2846717834472656 9.913932800292969 L1.3312559127807617 9.913932800292969 C1.378875970840454 9.939440727233887 1.417994737625122 10.03972339630127 1.373520851135254 10.070388793945312 L1.2846717834472656 9.913932800292969"></path>
<path fill="none" stroke="black" stroke-width=".3" stroke-opacity="1.0"  filling="0" d="M6.114431858062744 23.701499938964844 L6.199104309082031 24.20722770690918 L6.114431858062744 23.701499938964844"></path>
<path fill="none" stroke="black" stroke-width=".3" stroke-opacity="1.0"  filling="0" d="M11.789255142211914 23.701499938964844 L11.87392807006836 24.20722770690918 L11.789255142211914 23.701499938964844"></path>
<path fill="none" stroke="black" stroke-width=".3" stroke-opacity="1.0"  filling="0" d="M9.643526077270508 24.628450393676758 L11.667518615722656 24.628450393676758 L11.667015075683594 25.060379028320312 L10.569157600402832 25.060379028320312 L10.569157600402832 25.39128875732422 L11.273749351501465 25.39128875732422 L11.273749351501465 25.861595153808594 L10.569157600402832 25.861595153808594 L10.569157600402832 26.12000274658203 L11.6640625 26.12000274658203 L11.6640625 26.56402587890625 L9.643526077270508 26.56402587890625 L9.643526077270508 24.628450393676758"></path>
<path fill="none" stroke="black" stroke-width=".3" stroke-opacity="1.0"  filling="0" d="M7.405391693115234 24.628498077392578 L8.344847679138184 24.628498077392578 L8.344847679138184 26.564075469970703 L7.405392169952393 26.564075469970703 L7.405391693115234 24.628498077392578"></path>
<path fill="none" stroke="black" stroke-width=".3" stroke-opacity="1.0"  filling="0" d="M11.883072853088379 24.628498077392578 L12.80179214477539 24.628498077392578 L12.80179214477539 26.564075469970703 L11.883072853088379 26.564075469970703 L11.883072853088379 24.628498077392578"></path></svg>