<svg xmlns="http://www.w3.org/2000/svg" viewBox="0.0 0.0 24.0 24.0" height="200px" width="200px"><path fill="none" stroke="black" stroke-width=".3" stroke-opacity="1.0"  filling="0" d="M8.61332893371582 10.016533851623535 L9.223626136779785 10.016533851623535 L9.223626136779785 10.483268737792969 L8.61332893371582 10.483268737792969 L8.61332893371582 10.016533851623535"></path>
<path fill="none" stroke="black" stroke-width=".3" stroke-opacity="1.0"  filling="0" d="M3.5162477493286133 10.591063499450684 L2.7517404556274414 10.591063499450684 L2.7517404556274414 12.580039024353027 L2.0837764739990234 12.580039024353027 L2.0837764739990234 10.591063499450684 L1.3190078735351562 10.591063499450684 L1.3190078735351562 10.016767501831055 L3.5162477493286133 10.016767501831055 L3.5162477493286133 10.591063499450684"></path>
<path fill="none" stroke="black" stroke-width=".3" stroke-opacity="1.0"  filling="0" d="M5.637611389160156 10.662753105163574 L5.637611389160156 10.662753105163574 C5.961955547332764 11.040994644165039 6.286299705505371 11.419236183166504 6.6106438636779785 11.797477722167969 L5.242535591125488 11.797477722167969 C5.428455352783203 11.986550331115723 5.778676509857178 12.150794982910156 6.00730562210083 12.016469955444336 L6.578200817108154 12.016469955444336 C6.252351760864258 12.233702659606934 4.647699356079102 13.739459991455078 4.632396221160889 11.643112182617188 C4.628979682922363 11.17508316040039 5.302539825439453 10.98953914642334 5.637611389160156 10.662753105163574 L5.637611389160156 10.662753105163574"></path>
<path fill="none" stroke="black" stroke-width=".3" stroke-opacity="1.0"  filling="0" d="M11.789775848388672 10.662753105163574 L11.789775848388672 10.662753105163574 C12.0794095993042 10.871017456054688 12.369043350219727 11.079280853271484 12.658677101135254 11.287545204162598 L12.658677101135254 12.102548599243164 C12.682573318481445 12.261712074279785 12.706469535827637 12.420875549316406 12.730365753173828 12.580039024353027 L12.116301536560059 12.580039024353027 C12.104352951049805 12.521431922912598 12.092405319213867 12.462824821472168 12.080456733703613 12.404217720031738 L12.080456733703613 12.404217720031738 C9.461313247680664 13.384441375732422 12.833559036254883 10.253716468811035 11.477380752563477 11.291208267211914 L10.906485557556152 11.291208267211914 C11.088436126708984 10.979011535644531 11.43673324584961 10.739786148071289 11.789775848388672 10.662753105163574 L11.789775848388672 10.662753105163574"></path>
<path fill="none" stroke="black" stroke-width=".3" stroke-opacity="1.0"  filling="0" d="M3.3584794998168945 10.716650009155273 L3.9508285522460938 10.716650009155273 L3.9581546783447266 11.043437004089355 C4.177785396575928 10.901189804077148 4.401331424713135 10.669110298156738 4.661699295043945 10.695196151733398 L4.661699295043945 11.251700401306152 C4.397206783294678 11.211077690124512 4.1618523597717285 11.471851348876953 3.968881607055664 11.65723991394043 L3.968881607055664 12.580039024353027 L3.358478546142578 12.580039024353027 L3.358478546142578 10.71665096282959"></path>
<path fill="none" stroke="black" stroke-width=".3" stroke-opacity="1.0"  filling="0" d="M8.613224029541016 10.716650009155273 L9.223522186279297 10.716650009155273 L9.223522186279297 12.579961776733398 L8.613224029541016 12.579961776733398 L8.613224029541016 10.716650009155273"></path>
<path fill="none" stroke="black" stroke-width=".3" stroke-opacity="1.0"  filling="0" d="M9.550151824951172 10.716650009155273 L10.142499923706055 10.716650009155273 L10.149564743041992 11.043437004089355 C10.36922550201416 10.901236534118652 10.59274673461914 10.669062614440918 10.853109359741211 10.695196151733398 L10.853109359741211 11.251700401306152 C10.588624000549316 11.21103286743164 10.353315353393555 11.471906661987305 10.16029167175293 11.65723991394043 L10.16029167175293 12.580039024353027 L9.550149917602539 12.580039024353027 L9.550149917602539 10.71665096282959"></path>
<path fill="none" stroke="black" stroke-width=".3" stroke-opacity="1.0"  filling="0" d="M6.000242233276367 11.45630168914795 L5.242535591125488 11.45630168914795 C5.424470901489258 11.28111457824707 5.825974941253662 11.27348518371582 6.000242233276367 11.45630168914795 L6.000242233276367 11.45630168914795"></path>
<path fill="none" stroke="black" stroke-width=".3" stroke-opacity="1.0"  filling="0" d="M11.696371078491211 12.256915092468262 L11.696371078491211 12.256915092468262 C11.241148948669434 11.878808975219727 11.668383598327637 11.814687728881836 12.06972885131836 11.707736015319824 L12.06972885131836 11.707736015319824 C11.945276260375977 11.890795707702637 11.820822715759277 12.07385540008545 11.696370124816895 12.256915092468262 L11.696370124816895 12.256915092468262"></path>
<path fill="none" stroke="black" stroke-width=".3" stroke-opacity="1.0"  filling="0" d="M7.881160259246826 12.580039024353027 L7.1773529052734375 12.580039024353027 L6.556223392486572 10.716650009155273 L7.191742420196533 10.716650009155273 L7.53998327255249 11.948182106018066 L7.884821891784668 10.716650009155273 L8.505690574645996 10.716650009155273 L7.881159782409668 12.580039024353027"></path>
<path fill="none" stroke="black" stroke-width=".3" stroke-opacity="1.0"  filling="0" d="M17.205167770385742 13.24538516998291 L17.205167770385742 13.24538516998291 C18.036211013793945 14.4276704788208 16.300697326660156 13.591169357299805 17.205167770385742 13.24538516998291 L17.205167770385742 13.24538516998291"></path>
<path fill="none" stroke="black" stroke-width=".3" stroke-opacity="1.0"  filling="0" d="M12.829001426696777 13.262391090393066 L13.070493698120117 13.262391090393066 C13.350626945495605 13.333975791931152 13.335906028747559 13.416259765625 13.191895484924316 13.651447296142578 L13.3679780960083 13.867560386657715 C13.373559951782227 13.87314224243164 13.379140853881836 13.878724098205566 13.384722709655762 13.884305953979492 L13.384722709655762 13.947622299194336 C13.379140853881836 13.95363998413086 13.373559951782227 13.959657669067383 13.3679780960083 13.965675354003906 L13.232972145080566 13.965675354003906 C13.22356128692627 13.964286804199219 13.213916778564453 13.958677291870117 13.208640098571777 13.950761795043945 L13.071540832519531 13.867560386657715 C13.078255653381348 13.874537467956543 13.084969520568848 13.881514549255371 13.091684341430664 13.8884916305542 L13.091684341430664 13.94448184967041 C13.084969520568848 13.951546669006348 13.078255653381348 13.958610534667969 13.071540832519531 13.965675354003906 L12.829001426696777 13.965675354003906 C12.82202434539795 13.958610534667969 12.815048217773438 13.951546669006348 12.80807113647461 13.94448184967041 L12.80807113647461 13.8884916305542 C12.815048217773438 13.881514549255371 12.82202434539795 13.874537467956543 12.829001426696777 13.867560386657715 L12.829001426696777 13.361553192138672 C12.82202434539795 13.354488372802734 12.815048217773438 13.347424507141113 12.80807113647461 13.340359687805176 L12.80807113647461 13.28332233428955 C12.815048217773438 13.276345252990723 12.82202434539795 13.269368171691895 12.829001426696777 13.262391090393066 L12.829001426696777 13.262391090393066"></path>
<path fill="none" stroke="black" stroke-width=".3" stroke-opacity="1.0"  filling="0" d="M11.814629554748535 13.262392044067383 L12.047749519348145 13.262392044067383 C12.303220748901367 13.32898998260498 12.330499649047852 13.376121520996094 12.182754516601562 13.597550392150879 L12.182754516601562 13.597550392150879 C12.338017463684082 13.801509857177734 12.33258056640625 13.929891586303711 12.056120872497559 13.965675354003906 L11.814629554748535 13.965675354003906 C11.807652473449707 13.958611488342285 11.800675392150879 13.951546669006348 11.79369831085205 13.944482803344727 L11.79369831085205 13.888492584228516 C11.800675392150879 13.881515502929688 11.807652473449707 13.874537467956543 11.814629554748535 13.867560386657715 L11.814629554748535 13.361553192138672 C11.807652473449707 13.35448932647705 11.800675392150879 13.347424507141113 11.79369831085205 13.340360641479492 L11.79369831085205 13.28332233428955 C11.800675392150879 13.276345252990723 11.807652473449707 13.269369125366211 11.814629554748535 13.262392044067383 L11.814629554748535 13.262392044067383"></path>
<path fill="none" stroke="black" stroke-width=".3" stroke-opacity="1.0"  filling="0" d="M19.161176681518555 13.262392044067383 L19.40161895751953 13.262392044067383 C19.75798225402832 13.350337982177734 19.63848114013672 13.45875072479248 19.40685272216797 13.685199737548828 L19.419677734375 13.867561340332031 C19.426652908325195 13.87453842163086 19.433629989624023 13.881515502929688 19.44060516357422 13.888492584228516 L19.44060516357422 13.944482803344727 C19.433629989624023 13.951546669006348 19.426652908325195 13.958611488342285 19.419677734375 13.965675354003906 L19.161176681518555 13.965675354003906 C19.154111862182617 13.958611488342285 19.147048950195312 13.951546669006348 19.139984130859375 13.944482803344727 L19.139984130859375 13.888492584228516 C19.147048950195312 13.881515502929688 19.154111862182617 13.87453842163086 19.161176681518555 13.867561340332031 L19.161176681518555 13.361553192138672 C19.154111862182617 13.35448932647705 19.147048950195312 13.347424507141113 19.139984130859375 13.340360641479492 L19.139984130859375 13.283323287963867 C19.147048950195312 13.276346206665039 19.154111862182617 13.269369125366211 19.161176681518555 13.262392044067383 L19.161176681518555 13.262392044067383"></path>
<path fill="none" stroke="black" stroke-width=".3" stroke-opacity="1.0"  filling="0" d="M11.224373817443848 13.361553192138672 L11.281147956848145 13.867560386657715 C11.288212776184082 13.874537467956543 11.295276641845703 13.881515502929688 11.30234146118164 13.888492584228516 L11.30234146118164 13.944482803344727 C11.295276641845703 13.951546669006348 11.288212776184082 13.958611488342285 11.281147956848145 13.965675354003906 L11.030237197875977 13.965675354003906 C11.023173332214355 13.958611488342285 11.016108512878418 13.951546669006348 11.009044647216797 13.944482803344727 L11.009044647216797 13.888492584228516 C11.016108512878418 13.881515502929688 11.023173332214355 13.874537467956543 11.030237197875977 13.867560386657715 L11.030237197875977 13.361553192138672 C11.023173332214355 13.35448932647705 11.016108512878418 13.347424507141113 11.009044647216797 13.340360641479492 L11.009044647216797 13.28332233428955 C11.016108512878418 13.276345252990723 11.023173332214355 13.269369125366211 11.030237197875977 13.262392044067383 L11.281147956848145 13.262392044067383 C11.288212776184082 13.269369125366211 11.295276641845703 13.276345252990723 11.30234146118164 13.28332233428955 L11.30234146118164 13.340360641479492 C11.295276641845703 13.347424507141113 11.288212776184082 13.35448932647705 11.281147956848145 13.361553192138672 L11.224373817443848 13.361553192138672"></path>
<path fill="none" stroke="black" stroke-width=".3" stroke-opacity="1.0"  filling="0" d="M11.997252464294434 13.364692687988281 L12.047749519348145 13.364692687988281 C12.095406532287598 13.406920433044434 12.085291862487793 13.513598442077637 12.037283897399902 13.555426597595215 L11.997252464294434 13.364692687988281"></path>
<path fill="none" stroke="black" stroke-width=".3" stroke-opacity="1.0"  filling="0" d="M19.351125717163086 13.365739822387695 L19.39429473876953 13.365739822387695 C19.445837020874023 13.410942077636719 19.435489654541016 13.526355743408203 19.38357162475586 13.571125030517578 L19.35112762451172 13.365739822387695"></path>
<path fill="none" stroke="black" stroke-width=".3" stroke-opacity="1.0"  filling="0" d="M20.326248168945312 13.365739822387695 L20.338022232055664 13.439521789550781 C20.3426456451416 13.462284088134766 20.34726905822754 13.48504638671875 20.351892471313477 13.507808685302734 L20.301132202148438 13.509116172790527 C20.30950355529785 13.461323738098145 20.3178768157959 13.413532257080078 20.326248168945312 13.365739822387695 L20.326248168945312 13.365739822387695"></path>
<path fill="none" stroke="black" stroke-width=".3" stroke-opacity="1.0"  filling="0" d="M8.254518508911133 13.372016906738281 L8.429816246032715 13.543913841247559 C8.436793327331543 13.550890922546387 8.443769454956055 13.557868003845215 8.450746536254883 13.564845085144043 L8.450746536254883 13.63234806060791 C8.443769454956055 13.639411926269531 8.436793327331543 13.646475791931152 8.429816246032715 13.653539657592773 L8.391878128051758 13.778865814208984 C8.397459983825684 13.773283958435059 8.403040885925293 13.767702102661133 8.408622741699219 13.762120246887207 L8.478218078613281 13.762120246887207 C8.484235763549805 13.767702102661133 8.490253448486328 13.773283958435059 8.496271133422852 13.778865814208984 L8.496271133422852 13.944482803344727 C8.48920726776123 13.951546669006348 8.482142448425293 13.958611488342285 8.475078582763672 13.965675354003906 L8.06482982635498 13.965675354003906 C8.05776596069336 13.958611488342285 8.050701141357422 13.951546669006348 8.0436372756958 13.944482803344727 L8.0436372756958 13.888492584228516 C8.050701141357422 13.881515502929688 8.05776596069336 13.874537467956543 8.06482982635498 13.867560386657715 L8.06482982635498 13.361553192138672 C8.05776596069336 13.35448932647705 8.050701141357422 13.347424507141113 8.0436372756958 13.340360641479492 L8.0436372756958 13.28332233428955 C8.050701141357422 13.276345252990723 8.05776596069336 13.269369125366211 8.06482982635498 13.262392044067383 L8.475078582763672 13.262392044067383 C8.480660438537598 13.268321990966797 8.486241340637207 13.274252891540527 8.491823196411133 13.280182838439941 L8.491823196411133 13.440567970275879 C8.486241340637207 13.446497917175293 8.480660438537598 13.452428817749023 8.475078582763672 13.458358764648438 L8.404436111450195 13.458358764648438 C8.398767471313477 13.452428817749023 8.393098831176758 13.446497917175293 8.387430191040039 13.440567970275879 L8.254517555236816 13.372017860412598"></path>
<path fill="none" stroke="black" stroke-width=".3" stroke-opacity="1.0"  filling="0" d="M14.033323287963867 13.372016906738281 L14.208359718322754 13.543913841247559 C14.215336799621582 13.550890922546387 14.222312927246094 13.557868003845215 14.229290008544922 13.564845085144043 L14.229290008544922 13.63234806060791 C14.222312927246094 13.639411926269531 14.215336799621582 13.646475791931152 14.208359718322754 13.653539657592773 L14.170422554016113 13.778865814208984 C14.176004409790039 13.773283958435059 14.181586265563965 13.767702102661133 14.18716812133789 13.762120246887207 L14.256763458251953 13.762120246887207 C14.262781143188477 13.767702102661133 14.268798828125 13.773283958435059 14.274816513061523 13.778865814208984 L14.274816513061523 13.944482803344727 C14.267752647399902 13.951546669006348 14.260688781738281 13.958611488342285 14.25362491607666 13.965675354003906 L13.843376159667969 13.965675354003906 C13.83639907836914 13.958611488342285 13.829421997070312 13.951546669006348 13.822444915771484 13.944482803344727 L13.822444915771484 13.888492584228516 C13.829421997070312 13.881515502929688 13.83639907836914 13.874537467956543 13.843376159667969 13.867560386657715 L13.843376159667969 13.361553192138672 C13.83639907836914 13.35448932647705 13.829421997070312 13.347424507141113 13.822444915771484 13.340360641479492 L13.822444915771484 13.28332233428955 C13.829421997070312 13.276345252990723 13.83639907836914 13.269369125366211 13.843376159667969 13.262392044067383 L14.25362491607666 13.262392044067383 C14.259293556213379 13.268321990966797 14.264961242675781 13.274252891540527 14.2706298828125 13.280182838439941 L14.2706298828125 13.440567970275879 C14.264961242675781 13.446497917175293 14.259293556213379 13.452428817749023 14.25362491607666 13.458358764648438 L14.182982444763184 13.458358764648438 C14.177400588989258 13.452428817749023 14.171819686889648 13.446497917175293 14.166237831115723 13.440567970275879 L14.0333251953125 13.372017860412598"></path>
<path fill="none" stroke="black" stroke-width=".3" stroke-opacity="1.0"  filling="0" d="M10.298437118530273 13.372017860412598 L10.473472595214844 13.543914794921875 C10.480536460876465 13.550891876220703 10.487601280212402 13.557868003845215 10.494665145874023 13.564845085144043 L10.494665145874023 13.632349014282227 C10.487601280212402 13.639412879943848 10.480536460876465 13.646477699279785 10.473472595214844 13.653541564941406 L10.366985321044922 13.867560386657715 C10.37405014038086 13.874537467956543 10.38111400604248 13.881515502929688 10.388178825378418 13.888492584228516 L10.388178825378418 13.944482803344727 C10.38111400604248 13.951546669006348 10.37405014038086 13.958611488342285 10.366985321044922 13.965675354003906 L10.108748435974121 13.965675354003906 C10.1016845703125 13.958611488342285 10.094619750976562 13.951546669006348 10.087555885314941 13.944482803344727 L10.087555885314941 13.888492584228516 C10.094619750976562 13.881515502929688 10.1016845703125 13.874537467956543 10.108748435974121 13.867560386657715 L10.108748435974121 13.361553192138672 C10.1016845703125 13.35448932647705 10.094619750976562 13.347424507141113 10.087555885314941 13.340360641479492 L10.087555885314941 13.28332233428955 C10.094619750976562 13.276345252990723 10.1016845703125 13.269369125366211 10.108748435974121 13.262392044067383 L10.518735885620117 13.262392044067383 C10.524404525756836 13.268321990966797 10.530073165893555 13.274252891540527 10.535741806030273 13.280182838439941 L10.535741806030273 13.440567970275879 C10.530073165893555 13.446497917175293 10.524404525756836 13.452428817749023 10.518735885620117 13.458358764648438 L10.448092460632324 13.458358764648438 C10.442510604858398 13.452428817749023 10.436929702758789 13.446497917175293 10.431347846984863 13.440567970275879 L10.29843521118164 13.372017860412598"></path>
<path fill="none" stroke="black" stroke-width=".3" stroke-opacity="1.0"  filling="0" d="M6.311068534851074 13.373064041137695 L6.380664348602295 13.867560386657715 C6.387728214263916 13.874537467956543 6.394792556762695 13.881514549255371 6.401856422424316 13.8884916305542 L6.401856422424316 13.94448184967041 C6.394792556762695 13.951546669006348 6.387728214263916 13.958610534667969 6.380664348602295 13.965675354003906 L6.104371547698975 13.965675354003906 C6.097308158874512 13.958610534667969 6.090244293212891 13.951546669006348 6.083180904388428 13.94448184967041 L6.083180904388428 13.8884916305542 C6.090244293212891 13.881514549255371 6.097308158874512 13.874537467956543 6.104371547698975 13.867560386657715 L6.099141597747803 13.471963882446289 C6.0932111740112305 13.477981567382812 6.0872802734375 13.483999252319336 6.081349849700928 13.49001693725586 L6.021173000335693 13.49001693725586 C6.015155792236328 13.483999252319336 6.009138107299805 13.477981567382812 6.0031208992004395 13.471963882446289 L6.0031208992004395 13.280182838439941 C6.009138107299805 13.274252891540527 6.015155792236328 13.268321990966797 6.021173000335693 13.262392044067383 L6.464911460876465 13.262392044067383 C6.470580577850342 13.268321990966797 6.4762492179870605 13.274252891540527 6.4819183349609375 13.280182838439941 L6.4819183349609375 13.471963882446289 C6.4762492179870605 13.477981567382812 6.470580577850342 13.483999252319336 6.464911460876465 13.49001693725586 L6.403950214385986 13.49001693725586 C6.398281097412109 13.483999252319336 6.392612457275391 13.477981567382812 6.386943340301514 13.471963882446289 L6.311068534851074 13.373064041137695"></path>
<path fill="none" stroke="black" stroke-width=".3" stroke-opacity="1.0"  filling="0" d="M7.145171165466309 13.547054290771484 L7.29404354095459 13.361553192138672 C7.2869791984558105 13.354488372802734 7.2799153327941895 13.347424507141113 7.27285099029541 13.340359687805176 L7.27285099029541 13.28332233428955 C7.2799153327941895 13.276345252990723 7.2869791984558105 13.269368171691895 7.29404354095459 13.262391090393066 L7.533181190490723 13.262391090393066 C7.540245532989502 13.269368171691895 7.547309398651123 13.276345252990723 7.554373741149902 13.28332233428955 L7.554373741149902 13.340359687805176 C7.547309398651123 13.347424507141113 7.540245532989502 13.354488372802734 7.533181190490723 13.361553192138672 L7.533181190490723 13.867560386657715 C7.540245532989502 13.874537467956543 7.547309398651123 13.881514549255371 7.554373741149902 13.8884916305542 L7.554373741149902 13.94448184967041 C7.547309398651123 13.951546669006348 7.540245532989502 13.958610534667969 7.533181190490723 13.965675354003906 L7.2927350997924805 13.965675354003906 C7.285758018493652 13.958610534667969 7.278781414031982 13.951546669006348 7.271804332733154 13.94448184967041 L7.271804332733154 13.8884916305542 C7.278781414031982 13.881514549255371 7.285758018493652 13.874537467956543 7.2927350997924805 13.867560386657715 L7.145171165466309 13.656681060791016 L7.195929050445557 13.867560386657715 C7.20255708694458 13.874537467956543 7.209185600280762 13.881514549255371 7.215813636779785 13.8884916305542 L7.215813636779785 13.94448184967041 C7.209185600280762 13.951546669006348 7.20255708694458 13.958610534667969 7.195929050445557 13.965675354003906 L6.955483436584473 13.965675354003906 C6.9485063552856445 13.958610534667969 6.941529273986816 13.951546669006348 6.934552192687988 13.94448184967041 L6.934552192687988 13.8884916305542 C6.941529273986816 13.881514549255371 6.9485063552856445 13.874537467956543 6.955483436584473 13.867560386657715 L6.955483436584473 13.361553192138672 C6.9485063552856445 13.354488372802734 6.941529273986816 13.347424507141113 6.934552192687988 13.340359687805176 L6.934552192687988 13.28332233428955 C6.941529273986816 13.276345252990723 6.9485063552856445 13.269368171691895 6.955483436584473 13.262391090393066 L7.195929050445557 13.262391090393066 C7.20255708694458 13.269368171691895 7.209185600280762 13.276345252990723 7.215813636779785 13.28332233428955 L7.215813636779785 13.340359687805176 C7.209185600280762 13.347424507141113 7.20255708694458 13.354488372802734 7.195929050445557 13.361553192138672 L7.145171165466309 13.547054290771484"></path>
<path fill="none" stroke="black" stroke-width=".3" stroke-opacity="1.0"  filling="0" d="M22.41124153137207 13.559614181518555 L22.41124153137207 13.559614181518555 C22.426328659057617 13.517839431762695 22.441417694091797 13.47606372833252 22.456504821777344 13.43428897857666 L22.533687591552734 13.277044296264648 C22.538734436035156 13.269474983215332 22.547706604003906 13.263679504394531 22.556713104248047 13.2623929977417 L22.66424560546875 13.2623929977417 C22.669828414916992 13.268322944641113 22.6754093170166 13.274253845214844 22.680992126464844 13.280183792114258 L22.680992126464844 13.343501091003418 C22.6754093170166 13.349518775939941 22.669828414916992 13.355535507202148 22.66424560546875 13.361553192138672 L22.54598617553711 13.867562294006348 C22.553050994873047 13.874539375305176 22.56011390686035 13.881515502929688 22.56717872619629 13.888492584228516 L22.56717872619629 13.944483757019043 C22.56011390686035 13.951547622680664 22.553050994873047 13.958612442016602 22.54598617553711 13.965676307678223 L22.267864227294922 13.965676307678223 C22.260799407958984 13.958612442016602 22.25373649597168 13.951547622680664 22.246671676635742 13.944483757019043 L22.246671676635742 13.888492584228516 C22.25373649597168 13.881515502929688 22.260799407958984 13.874539375305176 22.267864227294922 13.867562294006348 L22.148555755615234 13.361553192138672 C22.14262580871582 13.355535507202148 22.136693954467773 13.349517822265625 22.13076400756836 13.343500137329102 L22.13076400756836 13.280183792114258 C22.136693954467773 13.274253845214844 22.14262580871582 13.268322944641113 22.148555755615234 13.2623929977417 L22.265769958496094 13.2623929977417 C22.272321701049805 13.263328552246094 22.27992820739746 13.26399040222168 22.28460693359375 13.268671989440918 L22.28460693359375 13.268671989440918 C22.28600311279297 13.271811485290527 22.287397384643555 13.274951934814453 22.288793563842773 13.278091430664062 L22.367809295654297 13.44266128540039 C22.37879753112793 13.47109317779541 22.389787673950195 13.499524116516113 22.400775909423828 13.527956008911133 L22.411243438720703 13.559614181518555"></path>
<path fill="none" stroke="black" stroke-width=".3" stroke-opacity="1.0"  filling="0" d="M13.015812873840332 13.573478698730469 L13.058982849121094 13.365738868713379 C13.111109733581543 13.411456108093262 13.100483894348145 13.527580261230469 13.048517227172852 13.573479652404785 L13.015812873840332 13.573479652404785"></path>
<path fill="none" stroke="black" stroke-width=".3" stroke-opacity="1.0"  filling="0" d="M17.093185424804688 13.616649627685547 L17.093185424804688 13.616649627685547 C17.397846221923828 12.885464668273926 17.398456573486328 14.334037780761719 17.093185424804688 13.616649627685547 L17.093185424804688 13.616649627685547"></path>
<path fill="none" stroke="black" stroke-width=".3" stroke-opacity="1.0"  filling="0" d="M11.99725341796875 13.658774375915527 L12.044610023498535 13.658774375915527 C12.096163749694824 13.698895454406738 12.094839096069336 13.815629959106445 12.04251480102539 13.854741096496582 L11.997252464294434 13.658774375915527"></path>
<path fill="none" stroke="black" stroke-width=".3" stroke-opacity="1.0"  filling="0" d="M18.297508239746094 13.661913871765137 L18.297508239746094 13.661913871765137 C18.30793571472168 13.619831085205078 18.320350646972656 13.578263282775879 18.332305908203125 13.536588668823242 L18.420740127563477 13.27913761138916 C18.42527198791504 13.270720481872559 18.434642791748047 13.264238357543945 18.44402313232422 13.262392044067383 L18.62010955810547 13.262392044067383 C18.626039505004883 13.268322944641113 18.631967544555664 13.274252891540527 18.637897491455078 13.280183792114258 L18.637897491455078 13.343500137329102 C18.631967544555664 13.349517822265625 18.626039505004883 13.355535507202148 18.62010955810547 13.361553192138672 L18.64025115966797 13.867561340332031 C18.646183013916016 13.873143196105957 18.652114868164062 13.878724098205566 18.65804672241211 13.884305953979492 L18.65804672241211 13.947622299194336 C18.652114868164062 13.95363998413086 18.646183013916016 13.959657669067383 18.64025115966797 13.965675354003906 L18.411319732666016 13.965675354003906 C18.4053897857666 13.959657669067383 18.399459838867188 13.95363998413086 18.393529891967773 13.947622299194336 L18.393529891967773 13.884305953979492 C18.399459838867188 13.878724098205566 18.4053897857666 13.873143196105957 18.411319732666016 13.867561340332031 L18.4597225189209 13.867561340332031 C18.457977294921875 13.722352027893066 18.456233978271484 13.577142715454102 18.45448875427246 13.431933403015137 L18.45448875427246 13.431933403015137 C18.441144943237305 13.482604026794434 18.42780303955078 13.53327465057373 18.414459228515625 13.583945274353027 L18.345911026000977 13.793779373168945 C18.33814811706543 13.799361228942871 18.330387115478516 13.80494213104248 18.32262420654297 13.810523986816406 L18.264802932739258 13.810523986816406 C18.159582138061523 13.73012638092041 18.178850173950195 13.559806823730469 18.144447326660156 13.431934356689453 L18.144447326660156 13.431934356689453 C18.14165687561035 13.577143669128418 18.13886833190918 13.722352027893066 18.136077880859375 13.867561340332031 L18.183696746826172 13.867561340332031 C18.189626693725586 13.873143196105957 18.195556640625 13.878724098205566 18.201486587524414 13.884305953979492 L18.201486587524414 13.947622299194336 C18.195556640625 13.95363998413086 18.189626693725586 13.959657669067383 18.183696746826172 13.965675354003906 L17.965227127075195 13.965675354003906 C17.95929718017578 13.959657669067383 17.953365325927734 13.95363998413086 17.94743537902832 13.947622299194336 L17.94743537902832 13.884305953979492 C17.953365325927734 13.878724098205566 17.95929718017578 13.873143196105957 17.965227127075195 13.867561340332031 L17.985374450683594 13.361553192138672 C17.979705810546875 13.355535507202148 17.974035263061523 13.349517822265625 17.968366622924805 13.343500137329102 L17.968366622924805 13.280183792114258 C17.974035263061523 13.274252891540527 17.979705810546875 13.268322944641113 17.985374450683594 13.262392044067383 L18.16250228881836 13.262392044067383 C18.170177459716797 13.267973899841309 18.1778507232666 13.273555755615234 18.18552589416504 13.27913761138916 L18.26898956298828 13.537374496459961 C18.27849578857422 13.578887939453125 18.288002014160156 13.620400428771973 18.297508239746094 13.661913871765137 L18.297508239746094 13.661913871765137"></path>
<path fill="none" stroke="black" stroke-width=".3" stroke-opacity="1.0"  filling="0" d="M21.52115249633789 13.743021965026855 L21.520103454589844 13.706130981445312 C21.519405364990234 13.674123764038086 21.518707275390625 13.64211654663086 21.518009185791016 13.610109329223633 L21.465421676635742 13.361553192138672 C21.458356857299805 13.35448932647705 21.4512939453125 13.347424507141113 21.444229125976562 13.340360641479492 L21.444229125976562 13.283323287963867 C21.4512939453125 13.276346206665039 21.458356857299805 13.269370079040527 21.465421676635742 13.2623929977417 L21.687814712524414 13.2623929977417 C21.69487953186035 13.269370079040527 21.701942443847656 13.276346206665039 21.709007263183594 13.283323287963867 L21.709007263183594 13.340360641479492 C21.701942443847656 13.347424507141113 21.69487953186035 13.35448932647705 21.687814712524414 13.361553192138672 L21.634963989257812 13.944483757019043 C21.627986907958984 13.951547622680664 21.621009826660156 13.958612442016602 21.614032745361328 13.965676307678223 L21.546527862548828 13.965676307678223 C21.53841781616211 13.961053848266602 21.530305862426758 13.956432342529297 21.52219581604004 13.951809883117676 L21.333555221557617 13.600690841674805 C21.31279945373535 13.554293632507324 21.292041778564453 13.507896423339844 21.271286010742188 13.461499214172363 L21.273380279541016 13.503623008728027 C21.274076461791992 13.527170181274414 21.2747745513916 13.550718307495117 21.275470733642578 13.574265480041504 L21.328062057495117 13.867562294006348 C21.335126876831055 13.874539375305176 21.34218978881836 13.881515502929688 21.349254608154297 13.888492584228516 L21.349254608154297 13.944483757019043 C21.34218978881836 13.951547622680664 21.335126876831055 13.958612442016602 21.328062057495117 13.965676307678223 L21.105667114257812 13.965676307678223 C21.098604202270508 13.958612442016602 21.09153938293457 13.951547622680664 21.084476470947266 13.944483757019043 L21.084476470947266 13.888492584228516 C21.09153938293457 13.881515502929688 21.098604202270508 13.874539375305176 21.105667114257812 13.867562294006348 L21.105667114257812 13.361553192138672 C21.098604202270508 13.35448932647705 21.09153938293457 13.34742546081543 21.084476470947266 13.340361595153809 L21.084476470947266 13.283324241638184 C21.09153938293457 13.276347160339355 21.098604202270508 13.269370079040527 21.105667114257812 13.2623929977417 L21.263959884643555 13.2623929977417 C21.27172088623047 13.267276763916016 21.279481887817383 13.272160530090332 21.287242889404297 13.277044296264648 L21.45783233642578 13.594411849975586 C21.47893714904785 13.643948554992676 21.500041961669922 13.693486213684082 21.521146774291992 13.743022918701172 L21.521146774291992 13.743022918701172"></path>
<path fill="none" stroke="black" stroke-width=".3" stroke-opacity="1.0"  filling="0" d="M16.350393295288086 13.861282348632812 L16.350393295288086 13.774680137634277 C16.35641098022461 13.769098281860352 16.362430572509766 13.763516426086426 16.36844825744629 13.7579345703125 L16.44432258605957 13.7579345703125 C16.44999122619629 13.763516426086426 16.455659866333008 13.769098281860352 16.461328506469727 13.774680137634277 L16.461328506469727 13.924598693847656 C15.803241729736328 14.142027854919434 15.956452369689941 13.117912292480469 16.452957153320312 13.312888145446777 L16.452957153320312 13.451032638549805 C16.44693946838379 13.45661449432373 16.440919876098633 13.46219539642334 16.43490219116211 13.467777252197266 L16.358766555786133 13.467777252197266 C16.353185653686523 13.46219539642334 16.34760284423828 13.45661449432373 16.342021942138672 13.451032638549805 L16.342021942138672 13.369925498962402 C16.06378173828125 13.328123092651367 16.06422233581543 13.889203071594238 16.350393295288086 13.861282348632812 L16.350393295288086 13.861282348632812"></path>
<path fill="none" stroke="black" stroke-width=".3" stroke-opacity="1.0"  filling="0" d="M20.442420959472656 13.867561340332031 L20.256919860839844 13.867561340332031 C20.262849807739258 13.873143196105957 20.26877784729004 13.878724098205566 20.274707794189453 13.884305953979492 L20.274707794189453 13.947623252868652 C20.26877784729004 13.953640937805176 20.262849807739258 13.9596586227417 20.256919860839844 13.965676307678223 L20.046039581298828 13.965676307678223 C20.04010772705078 13.9596586227417 20.034175872802734 13.953640937805176 20.028244018554688 13.947623252868652 L20.028244018554688 13.884305953979492 C20.034175872802734 13.878724098205566 20.04010772705078 13.873143196105957 20.046039581298828 13.867561340332031 L20.260059356689453 13.280183792114258 C20.264427185058594 13.27144718170166 20.273759841918945 13.264278411865234 20.283344268798828 13.262392044067383 L20.38878631591797 13.262392044067383 C20.396459579467773 13.268322944641113 20.40413475036621 13.274252891540527 20.411808013916016 13.280183792114258 L20.625829696655273 13.867561340332031 C20.631847381591797 13.873143196105957 20.63786506652832 13.878724098205566 20.643882751464844 13.884305953979492 L20.643882751464844 13.947622299194336 C20.63786506652832 13.95363998413086 20.631847381591797 13.959657669067383 20.625829696655273 13.965675354003906 L20.404483795166016 13.965675354003906 C20.398815155029297 13.959657669067383 20.393146514892578 13.95363998413086 20.38747787475586 13.947622299194336 L20.38747787475586 13.884305953979492 C20.393146514892578 13.878724098205566 20.398815155029297 13.873143196105957 20.404483795166016 13.867561340332031 L20.442420959472656 13.867561340332031"></path></svg>