<svg xmlns="http://www.w3.org/2000/svg" viewBox="0.0 0.0 24.0 24.0" height="200px" width="200px"><path fill="none" stroke="black" stroke-width=".3" stroke-opacity="1.0"  filling="0" d="M68.55216217041016 10.109344482421875 L70.4354476928711 10.109344482421875 L70.4354476928711 16.159622192382812 L70.4354476928711 22.20989990234375 L70.4354476928711 28.260177612304688 L70.4354476928711 34.310455322265625 L70.4354476928711 40.36073303222656 L68.55216217041016 40.36073303222656 L68.55216217041016 34.310455322265625 L68.55216217041016 28.260177612304688 L68.55216217041016 22.20989990234375 L68.55216217041016 16.159622192382812 L68.55216217041016 10.109344482421875"></path>
<path fill="none" stroke="black" stroke-width=".3" stroke-opacity="1.0"  filling="0" d="M104.374755859375 18.176177978515625 L104.374755859375 18.176177978515625 C104.19499206542969 16.267166137695312 104.11885833740234 14.299066543579102 102.59941101074219 12.887115478515625 C101.5712661743164 11.931708335876465 100.21930694580078 11.64824104309082 98.9716567993164 11.906957626342773 C97.72401428222656 12.165674209594727 96.58068084716797 12.966574668884277 95.96979522705078 14.179903030395508 C95.2330093383789 15.643291473388672 95.32167053222656 16.54387092590332 95.1712417602539 18.176177978515625 L95.1712417602539 25.571029663085938 L95.1712417602539 32.96588134765625 L95.1712417602539 40.36073303222656 L93.2875747680664 40.36073303222656 L93.28758239746094 32.98011779785156 L93.28758239746094 25.59950065612793 L93.2875747680664 18.218883514404297 C93.47364044189453 16.077123641967773 93.62582397460938 14.057491302490234 95.02650451660156 12.297710418701172 C96.1903076171875 10.835529327392578 97.97456359863281 10.109106063842773 99.75965118408203 10.11143970489502 C101.54473876953125 10.113773345947266 103.33067321777344 10.844863891601562 104.49784851074219 12.297712326049805 C105.91059112548828 14.056231498718262 106.06889343261719 16.071395874023438 106.2584228515625 18.218887329101562 L106.2584228515625 25.599502563476562 L106.2584228515625 32.98011779785156 L106.2584228515625 40.36073303222656 L104.374755859375 40.36073303222656 L104.37476348876953 32.96588134765625 L104.37476348876953 25.571029663085938 L104.374755859375 18.176177978515625"></path>
<path fill="none" stroke="black" stroke-width=".3" stroke-opacity="1.0"  filling="0" d="M41.496334075927734 23.02511215209961 L41.496334075927734 23.02511215209961 C43.307559967041016 23.94205093383789 44.52349853515625 25.053022384643555 45.32609176635742 26.430578231811523 C46.128684997558594 27.808135986328125 46.51793670654297 29.452274322509766 46.675777435302734 31.435548782348633 L46.675777435302734 31.521249771118164 C46.52308654785156 33.22455596923828 46.22526931762695 34.867347717285156 45.53770446777344 36.271724700927734 C44.85013961791992 37.67610168457031 43.7728271484375 38.842071533203125 42.06114959716797 39.591732025146484 C40.4743766784668 40.28668975830078 39.794921875 40.202701568603516 38.07145690917969 40.360877990722656 L34.347412109375 40.360877990722656 L34.347412109375 34.31057357788086 L34.347412109375 28.260265350341797 L34.347412109375 22.209959030151367 L34.347412109375 16.159652709960938 L34.347412109375 10.109344482421875 L36.230682373046875 10.109344482421875 L36.230682373046875 16.26703643798828 L36.230682373046875 22.424728393554688 L37.90005111694336 22.424728393554688 C38.456581115722656 22.467639923095703 39.01311111450195 22.51055145263672 39.56964111328125 22.553462982177734 L42.33453369140625 16.331403732299805 L45.09942626953125 10.109344482421875 L47.325538635253906 10.109344482421875 L44.41093444824219 16.567228317260742 L41.496334075927734 23.02511215209961"></path>
<path fill="none" stroke="black" stroke-width=".3" stroke-opacity="1.0"  filling="0" d="M36.230682373046875 24.098045349121094 L38.07145690917969 24.098045349121094 C40.351253509521484 24.353357315063477 41.92205047607422 25.062076568603516 42.97762680053711 26.26445198059082 C44.033203125 27.466829299926758 44.57356262207031 29.16286277770996 44.79247283935547 31.392805099487305 L44.79247283935547 31.478540420532227 C44.56660461425781 33.733638763427734 44.01114273071289 35.40898132324219 42.939083099365234 36.57859802246094 C41.867027282714844 37.74821090698242 40.27836990356445 38.41209411621094 37.986114501953125 38.64427947998047 L36.230682373046875 38.64427947998047 L36.230682373046875 31.37116241455078 L36.230682373046875 24.098045349121094"></path>
<path fill="none" stroke="black" stroke-width=".3" stroke-opacity="1.0"  filling="0" d="M1.2000007629394531 38.6444206237793 L6.0800251960754395 38.6444206237793 L6.0800251960754395 31.51096534729004 L6.0800251960754395 24.377513885498047 L6.0800251960754395 17.24405860900879 L6.0800251960754395 10.110605239868164 L7.963437080383301 10.110605239868164 L7.963437080383301 17.24405860900879 L7.963437080383301 24.377513885498047 L7.963437080383301 31.51096534729004 L7.963437080383301 38.6444206237793 L12.84360408782959 38.6444206237793 L12.84360408782959 40.360877990722656 L7.021801471710205 40.360877990722656 L1.1999988555908203 40.360877990722656 L1.1999988555908203 38.6444206237793"></path>
<path fill="none" stroke="black" stroke-width=".3" stroke-opacity="1.0"  filling="0" d="M139.9344940185547 40.36073303222656 L138.61819458007812 33.688228607177734 L137.30191040039062 27.015722274780273 L135.98562622070312 20.343217849731445 L134.66934204101562 13.6707124710083 L133.35296630859375 20.343217849731445 L132.03659057617188 27.015722274780273 L130.72021484375 33.688228607177734 L129.40383911132812 40.36073303222656 L127.4344711303711 40.36073303222656 L128.68450927734375 34.310455322265625 L129.93455505371094 28.260177612304688 L131.18458557128906 22.20989990234375 L132.43463134765625 16.159622192382812 L133.68466186523438 10.109344482421875 L135.56796264648438 10.109344482421875 L136.8179931640625 16.159622192382812 L138.06805419921875 22.20989990234375 L139.31808471679688 28.260177612304688 L140.568115234375 34.310455322265625 L141.8181610107422 40.36073303222656 L139.9344940185547 40.36073303222656"></path>
<path fill="none" stroke="black" stroke-width=".3" stroke-opacity="1.0"  filling="0" d="M167.74981689453125 40.36073303222656 L165.86651611328125 40.36073303222656 L164.61656188964844 34.310455322265625 L163.36659240722656 28.260177612304688 L162.1166229248047 22.20989990234375 L160.8666534423828 16.159622192382812 L159.61668395996094 10.109344482421875 L161.49998474121094 10.109344482421875 L162.8163604736328 16.781888961791992 L164.1327362060547 23.45443344116211 L165.44911193847656 30.126977920532227 L166.76548767089844 36.799522399902344 L168.08177185058594 30.126977920532227 L169.3980712890625 23.45443344116211 L170.71435546875 16.781888961791992 L172.0306396484375 10.109344482421875 L174.00001525878906 10.109344482421875 L172.74996948242188 16.159622192382812 L171.49993896484375 22.20989990234375 L170.24990844726562 28.260177612304688 L168.99986267089844 34.310455322265625 L167.74981689453125 40.36073303222656"></path></svg>