<svg xmlns="http://www.w3.org/2000/svg" viewBox="0.0 0.0 24.0 24.0" height="200px" width="200px"><path fill="none" stroke="black" stroke-width=".3" stroke-opacity="1.0"  filling="0" d="M6.096358776092529 9.362548828125 L6.589544773101807 9.362548828125 L6.589544773101807 9.859681129455566 L6.096358776092529 9.859681129455566"></path>
<path fill="none" stroke="black" stroke-width=".3" stroke-opacity="1.0"  filling="0" d="M7.006189346313477 9.362548828125 L7.503321170806885 9.362548828125 L7.503321170806885 9.859681129455566 L7.006189346313477 9.859681129455566"></path>
<path fill="none" stroke="black" stroke-width=".3" stroke-opacity="1.0"  filling="0" d="M15.403779029846191 10.102723121643066 L15.946677207946777 10.102723121643066 L15.946677207946777 13.064210891723633 L15.403779029846191 13.064210891723633"></path>
<path fill="none" stroke="black" stroke-width=".3" stroke-opacity="1.0"  filling="0" d="M2.838958740234375 10.102724075317383 L2.838958740234375 10.557244300842285 L3.794557571411133 10.557244300842285 L3.794557571411133 13.064210891723633 L4.337456703186035 13.064210891723633 L5.292266368865967 10.102724075317383 L2.838958740234375 10.102724075317383"></path>
<path fill="none" stroke="black" stroke-width=".3" stroke-opacity="1.0"  filling="0" d="M8.77219009399414 10.102724075317383 L9.33955192565918 10.102724075317383 C9.836684226989746 10.830010414123535 10.333817481994629 11.557296752929688 10.830949783325195 12.28458309173584 L10.845152854919434 12.28458309173584 C10.835683822631836 12.004979133605957 10.826214790344238 11.725374221801758 10.81674575805664 11.445770263671875 L10.81674575805664 10.102724075317383 L11.359646797180176 10.102724075317383 L11.359646797180176 13.064210891723633 L10.79228401184082 13.064210891723633 L9.82642650604248 11.699858665466309 C9.651246070861816 11.426041603088379 9.476066589355469 11.152225494384766 9.300886154174805 10.878408432006836 L9.28668212890625 10.878408432006836 C9.296152114868164 11.160379409790039 9.305621147155762 11.442351341247559 9.315091133117676 11.724322319030762 L9.315091133117676 13.064210891723633 L8.77219009399414 13.064210891723633 L8.77219009399414 10.102724075317383"></path>
<path fill="none" stroke="black" stroke-width=".3" stroke-opacity="1.0"  filling="0" d="M12.089560508728027 10.102724075317383 L12.653766632080078 10.102724075317383 C13.150898933410645 10.830010414123535 13.648032188415527 11.557296752929688 14.145164489746094 12.28458309173584 L14.159366607666016 12.28458309173584 C14.149897575378418 12.004979133605957 14.14042854309082 11.725374221801758 14.130959510803223 11.445770263671875 L14.130959510803223 10.102724075317383 L14.673860549926758 10.102724075317383 L14.673860549926758 13.064210891723633 L14.10649585723877 13.064210891723633 L13.139850616455078 11.699858665466309 C12.964934349060059 11.426041603088379 12.790017127990723 11.152225494384766 12.615100860595703 10.878408432006836 L12.600896835327148 10.878408432006836 C12.610365867614746 11.160379409790039 12.61983585357666 11.442351341247559 12.629304885864258 11.724322319030762 L12.629304885864258 13.064210891723633 L12.089560508728027 13.064210891723633 L12.089560508728027 10.102724075317383"></path>
<path fill="none" stroke="black" stroke-width=".3" stroke-opacity="1.0"  filling="0" d="M16.672649383544922 10.102724075317383 L16.672649383544922 13.064210891723633 L18.671436309814453 13.064210891723633 L18.671436309814453 12.608901023864746 L17.21554946899414 12.608901023864746 L18.396831512451172 11.777192115783691 L18.396831512451172 11.322671890258789 L17.215547561645508 11.322671890258789 L17.215547561645508 10.557244300842285 L18.590946197509766 10.557244300842285 L18.590946197509766 10.102724075317383 L16.672649383544922 10.102724075317383"></path>
<path fill="none" stroke="black" stroke-width=".3" stroke-opacity="1.0"  filling="0" d="M7.67613410949707 11.583073616027832 L7.67613410949707 11.583073616027832 C7.491446018218994 12.884568214416504 5.909342288970947 13.030974388122559 5.909342288970947 11.583073616027832 C5.909342288970947 10.13530158996582 7.491183757781982 10.281900405883789 7.67613410949707 11.583073616027832 L7.67613410949707 11.583073616027832"></path>
<path fill="none" stroke="black" stroke-width=".3" stroke-opacity="1.0"  filling="0" d="M8.236393928527832 11.583073616027832 L8.236393928527832 11.583073616027832 C7.947915554046631 13.45937728881836 5.349081039428711 13.670644760131836 5.349081039428711 11.583073616027832 C5.349081039428711 9.496747970581055 7.947817325592041 9.708518981933594 8.236393928527832 11.583073616027832 L8.236393928527832 11.583073616027832"></path>
<path fill="none" stroke="black" stroke-width=".3" stroke-opacity="1.0"  filling="0" d="M20.603939056396484 12.21435260772705 L20.603939056396484 12.21435260772705 C20.40557289123535 11.575139999389648 19.41793441772461 11.960895538330078 19.137006759643555 11.325827598571777 C18.565393447875977 10.033634185791016 20.283889770507812 10.002427101135254 21.015850067138672 10.21556568145752 L21.015850067138672 10.6771879196167 C20.766666412353516 10.603504180908203 19.205883026123047 10.280688285827637 19.665699005126953 11.082785606384277 C20.02071762084961 11.70207691192627 21.713298797607422 11.275079727172852 21.072660446166992 12.605745315551758 C20.72319793701172 13.331610679626465 19.643831253051758 13.140375137329102 19.055721282958984 12.937166213989258 L19.055721282958984 12.481857299804688 C19.558439254760742 12.6444730758667 20.41271209716797 12.90125560760498 20.60393524169922 12.21435260772705 L20.60393524169922 12.21435260772705"></path>
<path fill="none" stroke="black" stroke-width=".3" stroke-opacity="1.0"  filling="0" d="M22.799999237060547 13.487168312072754 L22.799999237060547 13.487168312072754 C20.51367950439453 14.472429275512695 18.13504981994629 14.720743179321289 15.718526840209961 14.680442810058594 C13.302002906799316 14.640142440795898 10.847585678100586 14.311225891113281 8.409692764282227 14.14202880859375 C5.971798896789551 13.972830772399902 3.550429344177246 13.963350296020508 1.2000007629394531 14.561920166015625 L1.2000007629394531 14.561920166015625 C3.515448808670044 13.707021713256836 5.908292293548584 13.549057960510254 8.329319953918457 13.63625431060791 C10.750347137451172 13.723450660705566 13.19955825805664 14.055808067321777 15.627741813659668 14.181551933288574 C18.055925369262695 14.307294845581055 20.46308135986328 14.226425170898438 22.799999237060547 13.487168312072754 L22.799999237060547 13.487168312072754"></path></svg>