<svg xmlns="http://www.w3.org/2000/svg" viewBox="0.0 0.0 24.0 24.0" height="200px" width="200px"><path fill="none" stroke="black" stroke-width=".3" stroke-opacity="1.0"  filling="0" d="M4.423235893249512 5.9221882820129395 L4.423235893249512 5.9221882820129395 C3.8899710178375244 6.346515655517578 3.5426952838897705 7.008128643035889 3.348461151123047 7.661349773406982 L4.423235893249512 5.9221882820129395"></path>
<path fill="none" stroke="black" stroke-width=".3" stroke-opacity="1.0"  filling="0" d="M4.792259216308594 5.9221882820129395 L4.792259216308594 7.661349773406982 C5.035688877105713 7.275484085083008 5.522548675537109 6.959988117218018 5.522548675537109 6.503753185272217 C5.522548675537109 6.192565441131592 5.035688877105713 6.1160430908203125 4.792259216308594 5.9221882820129395 L4.792259216308594 5.9221882820129395"></path>
<path fill="none" stroke="black" stroke-width=".3" stroke-opacity="1.0"  filling="0" d="M13.322603225708008 8.029646873474121 L13.322603225708008 8.029646873474121 C15.037266731262207 8.032398223876953 18.009143829345703 7.67452335357666 17.561817169189453 10.4061279296875 C17.496387481689453 10.805680274963379 17.123498916625977 11.086986541748047 16.904338836669922 11.42741584777832 L16.904338836669922 11.42741584777832 C18.168903350830078 13.322166442871094 17.46671485900879 13.9107666015625 15.580646514892578 14.82264518737793 L13.322603225708008 14.82264518737793 C13.131983757019043 14.633477210998535 12.941364288330078 14.444308280944824 12.750744819641113 14.25514030456543 L12.750744819641113 8.597877502441406 C12.941364288330078 8.408467292785645 13.131983757019043 8.219057083129883 13.322603225708008 8.029646873474121 L13.322603225708008 8.029646873474121"></path>
<path fill="none" stroke="black" stroke-width=".3" stroke-opacity="1.0"  filling="0" d="M8.886343955993652 8.033275604248047 L11.484381675720215 8.033275604248047 C11.675484657287598 8.222806930541992 11.866588592529297 8.412337303161621 12.05769157409668 8.601868629455566 L12.05769157409668 8.747010231018066 C11.866829872131348 8.93726634979248 11.675968170166016 9.127523422241211 11.485106468200684 9.317779541015625 L9.707120895385742 9.317779541015625 L9.707120895385742 10.758312225341797 L11.376251220703125 10.758312225341797 C11.566990852355957 10.948448181152344 11.757731437683105 11.138583183288574 11.948471069335938 11.328719139099121 L11.948471069335938 11.46950626373291 C11.757731437683105 11.660004615783691 11.566990852355957 11.850502967834473 11.376251220703125 12.041001319885254 L9.707120895385742 12.041001319885254 L9.707120895385742 13.535961151123047 L11.59214973449707 13.535961151123047 C11.783011436462402 13.725854873657227 11.973872184753418 13.915749549865723 12.16473388671875 14.105643272399902 L12.16473388671875 14.246431350708008 C11.973872184753418 14.436929702758789 11.783011436462402 14.62742805480957 11.59214973449707 14.817926406860352 L8.886343955993652 14.817926406860352 C8.697418212890625 14.62742805480957 8.508491516113281 14.436929702758789 8.319565773010254 14.246431350708008 L8.319565773010254 8.60186767578125 C8.508491516113281 8.412337303161621 8.697418212890625 8.222805976867676 8.886343955993652 8.033275604248047 L8.886343955993652 8.033275604248047"></path>
<path fill="none" stroke="black" stroke-width=".3" stroke-opacity="1.0"  filling="0" d="M18.97551155090332 8.033275604248047 L21.57318878173828 8.033275604248047 C21.76453399658203 8.222806930541992 21.95587921142578 8.412337303161621 22.14722442626953 8.601868629455566 L22.14722442626953 8.747010231018066 C21.956241607666016 8.93726634979248 21.7652587890625 9.127523422241211 21.574275970458984 9.317779541015625 L19.796289443969727 9.317779541015625 L19.796289443969727 10.758312225341797 L20.786518096923828 10.758312225341797 C20.977258682250977 10.948448181152344 21.168001174926758 11.138583183288574 21.358741760253906 11.328719139099121 L21.358741760253906 11.46950626373291 C21.168001174926758 11.660004615783691 20.977258682250977 11.850502967834473 20.786518096923828 12.041001319885254 L19.796289443969727 12.041001319885254 L19.796289443969727 13.535961151123047 L21.681316375732422 13.535961151123047 C21.872299194335938 13.725854873657227 22.06328010559082 13.915749549865723 22.254262924194336 14.105643272399902 L22.254262924194336 14.246431350708008 C22.06328010559082 14.436929702758789 21.872299194335938 14.62742805480957 21.681316375732422 14.817926406860352 L18.97551155090332 14.817926406860352 C18.786584854125977 14.62742805480957 18.597660064697266 14.436929702758789 18.408733367919922 14.246431350708008 L18.408733367919922 8.60186767578125 C18.597660064697266 8.412337303161621 18.786584854125977 8.222805976867676 18.97551155090332 8.033275604248047 L18.97551155090332 8.033275604248047"></path>
<path fill="none" stroke="black" stroke-width=".3" stroke-opacity="1.0"  filling="0" d="M4.423235893249512 8.033638000488281 L4.423235893249512 9.780782699584961 C3.888272285461426 9.354850769042969 3.541074752807617 8.689659118652344 3.3480987548828125 8.033638000488281 L3.3480987548828125 8.033638000488281"></path>
<path fill="none" stroke="black" stroke-width=".3" stroke-opacity="1.0"  filling="0" d="M5.868122100830078 8.033638000488281 L5.868122100830078 8.033638000488281 C5.674639701843262 8.689641952514648 5.3272705078125 9.354707717895508 4.792259216308594 9.780782699584961 L4.792259216308594 8.033638000488281"></path>
<path fill="none" stroke="black" stroke-width=".3" stroke-opacity="1.0"  filling="0" d="M6.076401233673096 8.034727096557617 L6.076401233673096 8.034727096557617 C7.575554847717285 8.034727096557617 7.519876003265381 9.163752555847168 7.519110202789307 10.343796730041504 C7.518343925476074 11.524903297424316 7.246556758880615 12.975951194763184 6.571812629699707 13.919041633605957 C5.897068500518799 14.86213207244873 4.819367408752441 15.297264099121094 3.2067737579345703 14.446539878845215 C2.0196003913879395 13.820245742797852 2.103245973587036 13.443745613098145 1.6978368759155273 12.322577476501465 L1.6978368759155273 8.889612197875977 C2.079955577850342 8.48238754272461 2.581024646759033 8.036178588867188 3.1394567489624023 8.036178588867188 L3.1394567489624023 8.036178588867188 C3.2923998832702637 9.713306427001953 3.160285472869873 11.441431045532227 3.5982861518859863 13.0675630569458 C4.047331809997559 14.734702110290527 5.89699125289917 12.505086898803711 6.076401233673096 12.145503997802734 L6.076401233673096 8.034727096557617"></path>
<path fill="none" stroke="black" stroke-width=".3" stroke-opacity="1.0"  filling="0" d="M21.57651710510254 8.234760284423828 L21.57651710510254 8.234760284423828 C23.39041519165039 8.988561630249023 19.76103973388672 8.98481273651123 21.57651710510254 8.234760284423828 L21.57651710510254 8.234760284423828"></path>
<path fill="none" stroke="black" stroke-width=".3" stroke-opacity="1.0"  filling="0" d="M21.576087951660156 8.29133415222168 L21.576087951660156 8.29133415222168 C23.17885398864746 8.958518028259277 19.988279342651367 8.952301979064941 21.576087951660156 8.29133415222168 L21.576087951660156 8.29133415222168"></path>
<path fill="none" stroke="black" stroke-width=".3" stroke-opacity="1.0"  filling="0" d="M21.490455627441406 8.472330093383789 L21.558307647705078 8.472330093383789 C21.710262298583984 8.498703956604004 21.721328735351562 8.614407539367676 21.563026428222656 8.635614395141602 L21.490455627441406 8.472330093383789"></path>
<path fill="none" stroke="black" stroke-width=".3" stroke-opacity="1.0"  filling="0" d="M21.75461196899414 8.8065185546875 L21.75461196899414 8.77349853515625 C21.737876892089844 8.725539207458496 21.697179794311523 8.685014724731445 21.65301513671875 8.659923553466797 L21.65301513671875 8.659923553466797 C21.858781814575195 8.590194702148438 21.721952438354492 8.438529968261719 21.568832397460938 8.41826343536377 L21.552143096923828 8.692581176757812 C21.610076904296875 8.701842308044434 21.660850524902344 8.755871772766113 21.68313217163086 8.81014633178711 L21.75352668762207 8.869292259216309"></path>
<path fill="none" stroke="black" stroke-width=".3" stroke-opacity="1.0"  filling="0" d="M14.139751434326172 9.319957733154297 L14.139751434326172 9.319957733154297 C15.443703651428223 9.319957733154297 16.8501033782959 9.436602592468262 15.397405624389648 10.756134986877441 L14.139751434326172 10.754683494567871 L14.139751434326172 9.319957733154297"></path>
<path fill="none" stroke="black" stroke-width=".3" stroke-opacity="1.0"  filling="0" d="M14.139751434326172 12.036285400390625 L14.139751434326172 12.036285400390625 C15.495317459106445 12.036285400390625 16.819843292236328 12.186585426330566 15.396679878234863 13.533060073852539 L14.139751434326172 13.531970977783203 L14.139751434326172 12.036285400390625"></path>
<path fill="none" stroke="black" stroke-width=".3" stroke-opacity="1.0"  filling="0" d="M18.126068115234375 15.458727836608887 L18.126068115234375 15.458727836608887 C18.60612678527832 15.619600296020508 18.768903732299805 15.960330963134766 18.31801986694336 16.27841567993164 L18.31801986694336 16.27841567993164 C19.813499450683594 17.251182556152344 16.413183212280273 17.22907829284668 17.92577362060547 16.27841567993164 L17.92577362060547 16.27841567993164 C17.453100204467773 15.958501815795898 17.634511947631836 15.616066932678223 18.126068115234375 15.458727836608887 L18.126068115234375 15.458727836608887"></path>
<path fill="none" stroke="black" stroke-width=".3" stroke-opacity="1.0"  filling="0" d="M3.413412094116211 15.459453582763672 L3.413412094116211 15.459453582763672 C3.126671552658081 15.581818580627441 2.888098955154419 15.857708930969238 2.784585952758789 16.15178108215332 L2.784585952758789 16.45440101623535 C3.008409023284912 17.081106185913086 3.42256498336792 17.396888732910156 4.003414154052734 16.912322998046875 L3.4239349365234375 16.4471435546875 L3.867342948913574 16.4471435546875 L3.867342948913574 16.8695068359375 C3.391538143157959 17.246091842651367 3.082282304763794 16.940876007080078 2.919205665588379 16.45331382751465 L2.919205665588379 16.148151397705078 C3.099569082260132 15.600807189941406 3.590026617050171 15.305047035217285 3.867342948913574 15.968899726867676 L3.9939794540405273 15.962007522583008 C3.893754720687866 15.72649097442627 3.656315326690674 15.540145874023438 3.413412094116211 15.459453582763672 L3.413412094116211 15.459453582763672"></path>
<path fill="none" stroke="black" stroke-width=".3" stroke-opacity="1.0"  filling="0" d="M20.690000534057617 15.459579467773438 L20.690000534057617 15.459579467773438 C20.44718360900879 15.565070152282715 20.255521774291992 15.813227653503418 20.177288055419922 16.066146850585938 L20.177288055419922 16.551645278930664 C20.64900779724121 18.076358795166016 22.007770538330078 16.032079696655273 20.690000534057617 15.459579467773438 L20.690000534057617 15.459579467773438"></path>
<path fill="none" stroke="black" stroke-width=".3" stroke-opacity="1.0"  filling="0" d="M19.36485481262207 15.461629867553711 L19.36485481262207 15.461629867553711 C19.608055114746094 15.56021785736084 19.804744720458984 15.801225662231445 19.88772964477539 16.050182342529297 L19.88772964477539 16.587568283081055 C19.715219497680664 17.07404136657715 19.510311126708984 17.24706268310547 19.010347366333008 17.08867073059082 L19.035383224487305 16.979814529418945 C19.440305709838867 17.123559951782227 19.615373611450195 16.989126205444336 19.74549102783203 16.587932586669922 L19.74549102783203 16.34772300720215 C19.11147689819336 16.961650848388672 18.458377838134766 15.8685302734375 19.36485481262207 15.461630821228027 L19.36485481262207 15.461630821228027"></path>
<path fill="none" stroke="black" stroke-width=".3" stroke-opacity="1.0"  filling="0" d="M16.403602600097656 15.53783130645752 L16.796207427978516 15.600241661071777 L16.932279586791992 17.134389877319336 L16.403602600097656 15.53783130645752"></path>
<path fill="none" stroke="black" stroke-width=".3" stroke-opacity="1.0"  filling="0" d="M20.68909454345703 15.573923110961914 L20.68909454345703 15.573923110961914 C20.506240844726562 15.65687370300293 20.36676025390625 15.850237846374512 20.311542510986328 16.043285369873047 L20.311542510986328 16.57196617126465 C20.662382125854492 17.786399841308594 21.73932456970215 16.050352096557617 20.68909454345703 15.573923110961914 L20.68909454345703 15.573923110961914"></path>
<path fill="none" stroke="black" stroke-width=".3" stroke-opacity="1.0"  filling="0" d="M19.368122100830078 15.574115753173828 L19.368122100830078 15.574115753173828 C19.5485897064209 15.654109001159668 19.68499183654785 15.844457626342773 19.741863250732422 16.033489227294922 L19.741863250732422 16.190967559814453 C18.998851776123047 16.682531356811523 18.75834083557129 15.873497009277344 19.368120193481445 15.574115753173828 L19.368120193481445 15.574115753173828"></path>
<path fill="none" stroke="black" stroke-width=".3" stroke-opacity="1.0"  filling="0" d="M18.126432418823242 15.575565338134766 L18.126432418823242 15.575565338134766 C19.663944244384766 16.151546478271484 16.548124313354492 16.106117248535156 18.126432418823242 15.575565338134766 L18.126432418823242 15.575565338134766"></path>
<path fill="none" stroke="black" stroke-width=".3" stroke-opacity="1.0"  filling="0" d="M15.274397850036621 15.593347549438477 L15.54436206817627 16.018613815307617 L15.274397850036621 16.018613815307617 L15.274397850036621 16.816892623901367 C15.320276260375977 16.9965763092041 15.355809211730957 17.05743980407715 15.537467002868652 17.02517318725586 L15.55778694152832 17.12604522705078 C15.283061027526855 17.216148376464844 15.206849098205566 17.06692123413086 15.136514663696289 16.816532135009766 L14.924606323242188 15.907218933105469 L15.136514663696289 15.592986106872559"></path>
<path fill="none" stroke="black" stroke-width=".3" stroke-opacity="1.0"  filling="0" d="M4.85067892074585 15.884357452392578 L4.85067892074585 15.884357452392578 C5.068112850189209 15.975715637207031 5.24701452255249 16.190675735473633 5.31803560256958 16.41557502746582 L4.463876247406006 16.557451248168945 C4.5962395668029785 16.992172241210938 4.816259860992432 17.167783737182617 5.225870132446289 16.9083309173584 L5.283563613891602 17.001222610473633 C4.786210536956787 17.332433700561523 4.500943183898926 17.06131935119629 4.327805042266846 16.556724548339844 L4.327805042266846 16.494314193725586 C4.414755344390869 16.241024017333984 4.60761833190918 15.996773719787598 4.85067892074585 15.884356498718262 L4.85067892074585 15.884356498718262"></path>
<path fill="none" stroke="black" stroke-width=".3" stroke-opacity="1.0"  filling="0" d="M14.290699005126953 15.88471794128418 L14.290699005126953 15.88471794128418 C14.471696853637695 15.942234992980957 14.654740333557129 16.069957733154297 14.73410701751709 16.242494583129883 L14.606019973754883 16.249385833740234 C14.507554054260254 16.049985885620117 14.007328987121582 15.814180374145508 13.992795944213867 16.214553833007812 C13.97929573059082 16.586469650268555 14.757964134216309 16.35175895690918 14.746445655822754 16.812175750732422 C14.731545448303223 17.40777015686035 13.980752944946289 17.11943817138672 13.8273344039917 16.79693603515625 L13.954334259033203 16.790040969848633 C14.061668395996094 16.980022430419922 14.601154327392578 17.24592399597168 14.614727973937988 16.820158004760742 C14.6255464553833 16.48081398010254 13.119635581970215 16.249195098876953 14.290699005126953 15.884716987609863 L14.290699005126953 15.884716987609863"></path>
<path fill="none" stroke="black" stroke-width=".3" stroke-opacity="1.0"  filling="0" d="M13.13791275024414 15.884718894958496 L13.13791275024414 15.884718894958496 C13.3553466796875 15.976078033447266 13.534246444702148 16.1910400390625 13.605267524719238 16.415939331054688 L12.751470565795898 16.557815551757812 C12.88383960723877 16.992536544799805 13.103854179382324 17.168140411376953 13.513465881347656 16.9086971282959 L13.571159362792969 17.0015869140625 C13.073928833007812 17.33271598815918 12.788741111755371 17.060853958129883 12.615763664245605 16.556724548339844 L12.615763664245605 16.494314193725586 C12.70263385772705 16.241260528564453 12.895071983337402 15.997018814086914 13.13791275024414 15.884718894958496 L13.13791275024414 15.884718894958496"></path>
<path fill="none" stroke="black" stroke-width=".3" stroke-opacity="1.0"  filling="0" d="M8.883079528808594 15.88508129119873 L8.883079528808594 15.88508129119873 C8.703740119934082 15.942668914794922 8.52047348022461 16.063785552978516 8.437858581542969 16.23305892944336 L8.56594467163086 16.239953994750977 C8.73688793182373 15.898067474365234 9.058564186096191 15.94381046295166 9.195134162902832 16.281679153442383 L8.89360237121582 16.4344425201416 C7.961730003356934 16.68842315673828 8.607793807983398 17.471559524536133 9.194046020507812 16.928287506103516 L9.194046020507812 16.928287506103516 C9.198526382446289 16.99734878540039 9.207489013671875 17.066162109375 9.219083786010742 17.134389877319336 L9.219083786010742 17.134389877319336 C9.282170295715332 17.0699462890625 9.335308074951172 16.97770881652832 9.330118179321289 16.887676239013672 L9.330117225646973 16.28421974182129 C9.253669738769531 16.099660873413086 9.073469161987305 15.945562362670898 8.883079528808594 15.885080337524414 L8.883079528808594 15.885080337524414"></path>
<path fill="none" stroke="black" stroke-width=".3" stroke-opacity="1.0"  filling="0" d="M7.678402900695801 15.885082244873047 L7.678402900695801 15.885082244873047 C7.885049819946289 15.973821640014648 8.032076835632324 16.20206069946289 8.090605735778809 16.419204711914062 L7.952721118927002 17.134389877319336 L7.952721118927002 16.416664123535156 C7.843173980712891 15.980944633483887 7.301034927368164 15.820022583007812 7.301034927368164 16.398521423339844 L7.301034927368164 17.134389877319336 L7.163875579833984 16.416664123535156 C7.054679870605469 15.987224578857422 6.7725138664245605 15.845969200134277 6.514003276824951 16.26970863342285 L6.512551784515381 16.109325408935547 C6.789152145385742 15.818037986755371 7.04807186126709 15.816442489624023 7.272368907928467 16.15831184387207 L7.272368907928467 16.15831184387207 C7.373372554779053 16.03020477294922 7.521842002868652 15.930929183959961 7.678402900695801 15.885083198547363 L7.678402900695801 15.885083198547363"></path>
<path fill="none" stroke="black" stroke-width=".3" stroke-opacity="1.0"  filling="0" d="M10.220561981201172 15.885083198547363 L10.220561981201172 15.885083198547363 C10.420686721801758 15.96541976928711 10.571450233459473 16.179285049438477 10.628409385681152 16.38727378845215 L10.628409385681152 17.134389877319336 L10.49270248413086 16.38836097717285 C10.377697944641113 15.952720642089844 10.089208602905273 15.87716007232666 9.827226638793945 16.266801834106445 L9.823598861694336 16.12093734741211 C9.927730560302734 16.007596969604492 10.071612358093262 15.923859596252441 10.220561981201172 15.88508415222168 L10.220561981201172 15.88508415222168"></path>
<path fill="none" stroke="black" stroke-width=".3" stroke-opacity="1.0"  filling="0" d="M6.082569599151611 15.885446548461914 L6.082569599151611 15.885446548461914 C5.9453935623168945 15.926342964172363 5.8166422843933105 16.014371871948242 5.726609230041504 16.125654220581055 L5.728059768676758 16.28784942626953 C5.800251007080078 16.16604232788086 5.921860218048096 16.063682556152344 6.055717945098877 16.01752471923828 L6.152237415313721 16.024417877197266 C6.143852233886719 15.973281860351562 6.134206771850586 15.889781951904297 6.082569599151611 15.885446548461914 L6.082569599151611 15.885446548461914"></path>
<path fill="none" stroke="black" stroke-width=".3" stroke-opacity="1.0"  filling="0" d="M11.752896308898926 15.906126976013184 L11.382058143615723 16.94715690612793 L10.84430980682373 15.906852722167969 L11.253609657287598 17.283161163330078 C11.168486595153809 17.43467903137207 11.11406421661377 17.52043914794922 10.93393325805664 17.499420166015625 L10.917967796325684 17.612632751464844 C11.161728858947754 17.666000366210938 11.258956909179688 17.52142333984375 11.371172904968262 17.329242706298828 L11.752896308898926 15.906126976013184"></path>
<path fill="none" stroke="black" stroke-width=".3" stroke-opacity="1.0"  filling="0" d="M13.137910842895508 16.000469207763672 L13.137910842895508 16.000469207763672 C13.290999412536621 16.06659507751465 13.418290138244629 16.216745376586914 13.468833923339844 16.375661849975586 L12.762720108032227 16.397069931030273 C12.832408905029297 16.228958129882812 12.971083641052246 16.073177337646484 13.137910842895508 16.000469207763672 L13.137910842895508 16.000469207763672"></path>
<path fill="none" stroke="black" stroke-width=".3" stroke-opacity="1.0"  filling="0" d="M4.850316047668457 16.000469207763672 L4.850316047668457 16.000469207763672 C5.003514289855957 16.066545486450195 5.131033897399902 16.216670989990234 5.181602954864502 16.37566375732422 L4.475487232208252 16.397069931030273 C4.545176029205322 16.228960037231445 4.6838507652282715 16.073177337646484 4.850678443908691 16.000471115112305 L4.850678443908691 16.000471115112305"></path>
<path fill="none" stroke="black" stroke-width=".3" stroke-opacity="1.0"  filling="0" d="M18.126432418823242 16.33611297607422 L18.126432418823242 16.33611297607422 C19.83949851989746 16.954904556274414 16.376115798950195 16.931209564208984 18.126432418823242 16.33611297607422 L18.126432418823242 16.33611297607422"></path>
<path fill="none" stroke="black" stroke-width=".3" stroke-opacity="1.0"  filling="0" d="M8.892513275146484 16.539308547973633 L9.194046020507812 16.774076461791992 C8.759254455566406 17.30943489074707 8.170683860778809 16.747329711914062 8.8925142288208 16.539308547973633 L8.8925142288208 16.539308547973633"></path>
<path fill="none" stroke="black" stroke-width=".3" stroke-opacity="1.0"  filling="0" d="M15.820131301879883 16.9486083984375 L15.975433349609375 17.134389877319336 L15.820131301879883 16.9486083984375"></path></svg>