<svg xmlns="http://www.w3.org/2000/svg" viewBox="0.0 0.0 24.0 24.0" height="200px" width="200px"><path fill="none" stroke="black" stroke-width=".3" stroke-opacity="1.0"  filling="0" d="M1.2000007629394531 10.380383491516113 L7.6280293464660645 10.380383491516113 L14.056057929992676 10.380383491516113 L20.484085083007812 10.380383491516113 L26.9121150970459 10.380383491516113 L26.9121150970459 17.653236389160156 L26.91211700439453 24.926090240478516 L26.91211700439453 32.198944091796875 L26.9121150970459 39.47179412841797 L26.9121150970459 46.74464797973633 L20.484085083007812 46.74464797973633 L14.056057929992676 46.74464797973633 L7.6280293464660645 46.74464797973633 L1.2000007629394531 46.74464797973633 L1.2000007629394531 39.47179412841797 L1.2000007629394531 32.198944091796875 L1.2000007629394531 24.926090240478516 L1.2000007629394531 17.653236389160156 L1.2000007629394531 10.380383491516113"></path>
<path fill="none" stroke="black" stroke-width=".3" stroke-opacity="1.0"  filling="0" d="M7.225642204284668 53.47043991088867 L7.225642204284668 53.47043991088867 C7.376331806182861 53.806671142578125 6.832685947418213 55.858280181884766 6.003048896789551 55.78594207763672 C5.2217793464660645 55.71781921386719 5.122573375701904 51.59885025024414 5.941822528839111 54.38120651245117 L6.18629789352417 55.152748107910156 C6.199183940887451 55.20314025878906 6.212069511413574 55.25353240966797 6.2249555587768555 55.303924560546875 L6.2249555587768555 55.303924560546875 C6.386871337890625 54.7294807434082 6.587023735046387 54.16331100463867 6.7608795166015625 53.59194564819336 L6.761311054229736 53.59194564819336 C6.806188106536865 53.40386962890625 7.073641300201416 53.475547790527344 7.225640773773193 53.47044372558594 L7.225640773773193 53.47044372558594"></path>
<path fill="none" stroke="black" stroke-width=".3" stroke-opacity="1.0"  filling="0" d="M2.9188671112060547 53.587799072265625 L2.9188671112060547 53.587799072265625 C3.0366411209106445 53.544498443603516 3.1544151306152344 53.501197814941406 3.272189140319824 53.4578971862793 L3.272189140319824 53.4578971862793 C3.1544151306152344 53.501197814941406 3.0366411209106445 53.544498443603516 2.9188671112060547 53.587799072265625 L2.9188671112060547 53.587799072265625"></path>
<path fill="none" stroke="black" stroke-width=".3" stroke-opacity="1.0"  filling="0" d="M7.439392566680908 53.650245666503906 L7.439392566680908 53.650245666503906 C7.717104911804199 53.552486419677734 7.990311622619629 53.86430740356445 7.58322811126709 54.05485916137695 C7.315399169921875 54.18022537231445 7.418606281280518 53.70296859741211 7.439393997192383 53.650245666503906 L7.439393997192383 53.650245666503906"></path>
<path fill="none" stroke="black" stroke-width=".3" stroke-opacity="1.0"  filling="0" d="M14.302988052368164 53.65031051635742 L14.302988052368164 53.65031051635742 C15.17310619354248 53.344017028808594 13.933483123779297 54.58748245239258 14.302986145019531 53.65031051635742 L14.302986145019531 53.65031051635742"></path>
<path fill="none" stroke="black" stroke-width=".3" stroke-opacity="1.0"  filling="0" d="M20.69458770751953 53.65031051635742 L20.69458770751953 53.65031051635742 C21.564706802368164 53.34401321411133 20.325075149536133 54.58748245239258 20.694583892822266 53.65031051635742 L20.694583892822266 53.65031051635742"></path>
<path fill="none" stroke="black" stroke-width=".3" stroke-opacity="1.0"  filling="0" d="M3.893549919128418 53.67341613769531 L3.893549919128418 53.67341613769531 C4.120820045471191 53.878334045410156 4.348089694976807 54.083251953125 4.57535982131958 54.288169860839844 L4.575899600982666 54.719242095947266 C4.3888444900512695 55.174888610839844 3.989429235458374 55.578128814697266 3.53493595123291 55.767974853515625 L2.492460250854492 55.7693977355957 L2.491056442260742 54.722713470458984 C2.6783900260925293 54.26728820800781 3.0769288539886475 53.8631591796875 3.531588554382324 53.673973083496094 L3.892902374267578 53.6734504699707"></path>
<path fill="none" stroke="black" stroke-width=".3" stroke-opacity="1.0"  filling="0" d="M9.769966125488281 54.185035705566406 L9.769966125488281 54.185035705566406 C9.914525985717773 54.23965835571289 10.068354606628418 54.31271743774414 10.158167839050293 54.438472747802734 L10.158167839050293 54.438472747802734 C10.602346420288086 53.94820022583008 10.872694969177246 54.232906341552734 11.04482364654541 54.679168701171875 L11.04482364654541 55.046531677246094 C11.046716690063477 55.31659698486328 10.829100608825684 55.983489990234375 10.67033576965332 55.765010833740234 L10.67033576965332 55.765010833740234 C10.67747974395752 55.52888870239258 10.680449485778809 55.29264450073242 10.682106018066406 55.05642318725586 L10.682106018066406 54.809356689453125 C10.491205215454102 54.46451187133789 10.306167602539062 54.38621520996094 10.202980995178223 54.84747314453125 L10.202980995178223 54.86949920654297 C10.203009605407715 54.870765686035156 10.203039169311523 54.872032165527344 10.203067779541016 54.87329864501953 L10.202980995178223 55.04661178588867 C10.204873085021973 55.31663513183594 9.986276626586914 55.98407745361328 9.828493118286133 55.76494216918945 L9.828493118286133 55.76494216918945 C9.835551261901855 55.5288200378418 9.838500022888184 55.29257583618164 9.840155601501465 55.05635452270508 L9.840155601501465 54.809288024902344 C9.642447471618652 54.40916061401367 9.461174011230469 54.44511032104492 9.349692344665527 54.875911712646484 L9.34375286102295 55.075897216796875 C9.35290813446045 55.85395431518555 8.968465805053711 56.08667755126953 8.980928421020508 55.12773132324219 L8.980928421020508 54.79287338256836 C8.971817970275879 54.608280181884766 8.941532135009766 54.42402267456055 8.948857307434082 54.239349365234375 C8.959728240966797 53.96526336669922 9.523905754089355 54.30625915527344 9.769966125488281 54.185035705566406 L9.769966125488281 54.185035705566406"></path>
<path fill="none" stroke="black" stroke-width=".3" stroke-opacity="1.0"  filling="0" d="M17.37179183959961 54.195404052734375 L17.37179183959961 54.195404052734375 C17.658870697021484 54.42605209350586 17.52338409423828 54.93952941894531 17.74087905883789 55.236698150634766 C17.824848175048828 55.3514289855957 17.87995719909668 54.920143127441406 18.022071838378906 54.91598892211914 L18.072608947753906 54.91598892211914 C18.227874755859375 55.03281784057617 17.823856353759766 55.39442825317383 17.91657066345215 55.45417404174805 C18.752233505249023 55.99267578125 17.015647888183594 55.734275817871094 16.919340133666992 55.645301818847656 C16.590038299560547 55.341068267822266 17.093433380126953 54.28369140625 17.37179183959961 54.195404052734375 L17.37179183959961 54.195404052734375"></path>
<path fill="none" stroke="black" stroke-width=".3" stroke-opacity="1.0"  filling="0" d="M13.984192848205566 54.23031997680664 L13.984192848205566 54.23031997680664 C14.235087394714355 54.57792663574219 13.482569694519043 54.564422607421875 13.456586837768555 55.013099670410156 L13.456586837768555 55.191810607910156 C13.465733528137207 55.864906311035156 13.084593772888184 56.0599365234375 13.09676456451416 55.227657318115234 L13.09676456451416 54.77250289916992 C13.089232444763184 54.597347259521484 13.081843376159668 54.42209243774414 13.06728458404541 54.247379302978516 L13.06728458404541 54.247379302978516 C13.317185401916504 54.07133483886719 13.687307357788086 54.15743637084961 13.984175682067871 54.230316162109375 L13.984175682067871 54.230316162109375"></path>
<path fill="none" stroke="black" stroke-width=".3" stroke-opacity="1.0"  filling="0" d="M2.305431365966797 54.33954620361328 L2.305431365966797 54.33954620361328 C2.286822557449341 54.45696258544922 2.268213987350464 54.57437515258789 2.249605178833008 54.69179153442383 L1.8881816864013672 54.69243621826172 C1.6609119176864624 54.487518310546875 1.433642029762268 54.28260040283203 1.2063722610473633 54.07768249511719 L1.2058324813842773 53.64650344848633 C1.3928860425949097 53.190853118896484 1.7923014163970947 52.7876091003418 2.2467966079711914 52.5977668762207 L3.2891645431518555 52.59646987915039 L3.2903528213500977 53.455047607421875 C2.854283094406128 53.52253341674805 2.6314682960510254 54.04220199584961 2.305431365966797 54.339542388916016 L2.305431365966797 54.339542388916016"></path>
<path fill="none" stroke="black" stroke-width=".3" stroke-opacity="1.0"  filling="0" d="M1.2000007629394531 54.408294677734375 L1.2000007629394531 54.408294677734375 C1.200252890586853 54.4093017578125 1.2005048990249634 54.41031265258789 1.2007570266723633 54.411319732666016 L1.2007570266723633 54.411319732666016 C1.2005048990249634 54.41031265258789 1.200252890586853 54.4093017578125 1.2000007629394531 54.408294677734375 L1.2000007629394531 54.408294677734375"></path>
<path fill="none" stroke="black" stroke-width=".3" stroke-opacity="1.0"  filling="0" d="M22.05890464782715 54.47882843017578 L22.05890464782715 54.47882843017578 C22.064125061035156 54.48191833496094 22.5294246673584 54.68086624145508 22.35413360595703 54.83161163330078 L22.248310089111328 54.83161163330078 C22.115686416625977 54.83366012573242 21.983015060424805 54.83359146118164 21.85038948059082 54.83161163330078 L21.744564056396484 54.83161163330078 C21.584665298461914 54.67171096801758 22.048206329345703 54.484893798828125 22.05890464782715 54.47882843017578 L22.05890464782715 54.47882843017578"></path>
<path fill="none" stroke="black" stroke-width=".3" stroke-opacity="1.0"  filling="0" d="M12.074373245239258 54.50416946411133 L12.074373245239258 54.50416946411133 C12.513434410095215 54.7490119934082 12.408968925476074 55.70417404174805 12.093703269958496 55.50734329223633 C11.404266357421875 55.076904296875 11.758564949035645 54.92644119262695 12.074374198913574 54.50416946411133 L12.074374198913574 54.50416946411133"></path>
<path fill="none" stroke="black" stroke-width=".3" stroke-opacity="1.0"  filling="0" d="M17.321256637573242 54.73584747314453 L17.321256637573242 54.73584747314453 C16.83819580078125 54.66782760620117 17.898174285888672 54.061920166015625 17.32125473022461 54.735843658447266 L17.32125473022461 54.735843658447266"></path>
<path fill="none" stroke="black" stroke-width=".3" stroke-opacity="1.0"  filling="0" d="M22.732833862304688 55.094879150390625 L22.732833862304688 55.094879150390625 C22.54351806640625 55.09164810180664 22.354175567626953 55.089969635009766 22.164838790893555 55.08840560913086 L21.88591766357422 55.08840560913086 C21.840959548950195 55.089412689208984 21.796003341674805 55.09041976928711 21.75104522705078 55.091426849365234 L21.75104522705078 55.091426849365234 C21.40070915222168 55.3262825012207 22.709856033325195 55.24755096435547 22.75356674194336 55.56266403198242 L22.75356674194336 55.56266403198242 C21.97039794921875 56.310997009277344 20.774959564208984 55.233646392822266 21.610015869140625 54.35701370239258 C22.168834686279297 53.77037048339844 23.14252471923828 54.83997344970703 22.732831954956055 55.09487533569336 L22.732831954956055 55.09487533569336"></path>
<path fill="none" stroke="black" stroke-width=".3" stroke-opacity="1.0"  filling="0" d="M20.191207885742188 55.341670989990234 L20.191207885742188 55.341670989990234 C20.593448638916016 56.16543197631836 19.17379379272461 55.8468017578125 18.90684700012207 55.54252243041992 C17.84903907775879 54.336788177490234 19.17341423034668 53.35796356201172 20.303939819335938 53.64049530029297 L20.303939819335938 53.64049530029297 C20.270339965820312 53.76473617553711 20.20431137084961 53.88352966308594 20.11766815185547 53.97869873046875 L20.11766815185547 53.97869873046875 C19.318206787109375 53.72644805908203 18.62212562561035 54.39913558959961 19.219026565551758 55.230018615722656 C19.409339904785156 55.49493408203125 19.872699737548828 55.271297454833984 20.191207885742188 55.341670989990234 L20.191207885742188 55.341670989990234"></path>
<path fill="none" stroke="black" stroke-width=".3" stroke-opacity="1.0"  filling="0" d="M17.558496475219727 55.42780685424805 L17.558496475219727 55.42780685424805 C17.62515640258789 55.5936393737793 17.121967315673828 55.154422760009766 17.22471809387207 55.008182525634766 C17.327470779418945 54.8619384765625 17.45615577697754 55.28129196166992 17.558496475219727 55.427825927734375 L17.558496475219727 55.427825927734375"></path>
<path fill="none" stroke="black" stroke-width=".3" stroke-opacity="1.0"  filling="0" d="M16.17703628540039 55.752479553222656 L16.17703628540039 55.752479553222656 C16.11408233642578 55.77513122558594 15.884491920471191 55.83731460571289 15.840234756469727 55.77601623535156 L15.840234756469727 55.77601623535156 C15.847381591796875 55.53989791870117 15.850349426269531 55.303653717041016 15.852005958557129 55.06743240356445 L15.852005958557129 54.82036209106445 C15.639525413513184 54.436546325683594 15.458210945129395 54.442962646484375 15.342967987060547 54.88698959350586 L15.337028503417969 55.086978912353516 C15.346416473388672 55.869529724121094 14.961653709411621 56.09476852416992 14.974311828613281 55.139041900634766 L14.974311828613281 54.8040771484375 C14.938070297241211 54.07413864135742 15.954668045043945 54.01613235473633 16.2147216796875 54.690372467041016 L16.2147216796875 55.05773162841797 C16.21622657775879 55.27219772338867 16.26124382019043 55.54473876953125 16.17703628540039 55.75250244140625 L16.17703628540039 55.75250244140625"></path>
<path fill="none" stroke="black" stroke-width=".3" stroke-opacity="1.0"  filling="0" d="M8.42738151550293 55.779945373535156 L8.42738151550293 55.779945373535156 C7.9220685958862305 55.766395568847656 8.161425590515137 55.32639694213867 8.166707992553711 54.82234191894531 L8.166707992553711 54.47624969482422 C8.154279708862305 53.40235137939453 8.596498489379883 53.27744674682617 8.582014083862305 54.471500396728516 L8.582014083862305 54.831947326660156 C8.58414363861084 55.03207015991211 8.716720581054688 55.64801025390625 8.42738151550293 55.779937744140625 L8.42738151550293 55.779937744140625"></path>
<path fill="none" stroke="black" stroke-width=".3" stroke-opacity="1.0"  filling="0" d="M7.634185791015625 55.780250549316406 L7.634185791015625 55.780250549316406 C7.219359397888184 55.77153778076172 7.390823841094971 55.55303192138672 7.39683723449707 55.105045318603516 L7.39683723449707 54.86100387573242 C7.385804653167725 54.12781524658203 7.788450241088867 53.991756439208984 7.774997234344482 54.85765075683594 L7.774997234344482 55.111846923828125 C7.777725696563721 55.31208801269531 7.883108615875244 55.692344665527344 7.634185791015625 55.7802619934082 L7.634185791015625 55.7802619934082"></path>
<path fill="none" stroke="black" stroke-width=".3" stroke-opacity="1.0"  filling="0" d="M14.488569259643555 55.78044128417969 L14.488569259643555 55.78044128417969 C14.091096878051758 55.771697998046875 14.255349159240723 55.56337356567383 14.26115608215332 55.133419036865234 L14.26115608215332 54.8995246887207 C14.250995635986328 54.11792755126953 14.635909080505371 53.9832763671875 14.623440742492676 54.89632797241211 L14.623440742492676 55.13994216918945 C14.62612247467041 55.3319091796875 14.727232933044434 55.696250915527344 14.488569259643555 55.78049850463867 L14.488569259643555 55.78049850463867"></path>
<path fill="none" stroke="black" stroke-width=".3" stroke-opacity="1.0"  filling="0" d="M20.880165100097656 55.78044128417969 L20.880165100097656 55.78044128417969 C20.48269271850586 55.771697998046875 20.646944046020508 55.56336975097656 20.652751922607422 55.133419036865234 L20.652751922607422 54.8995246887207 C20.642593383789062 54.1179313659668 21.02750587463379 53.983272552490234 21.015037536621094 54.89632797241211 L21.015037536621094 55.13994216918945 C21.017719268798828 55.3318977355957 21.11882781982422 55.696250915527344 20.880165100097656 55.78049850463867 L20.880165100097656 55.78049850463867"></path>
<path fill="none" stroke="black" stroke-width=".3" stroke-opacity="1.0"  filling="0" d="M12.064871788024902 55.81941604614258 L12.064871788024902 55.81941604614258 C11.29223346710205 55.5161018371582 10.879674911499023 54.22764587402344 12.106553077697754 54.1956672668457 C13.38189697265625 54.16242599487305 12.754743576049805 55.52998733520508 12.064871788024902 55.81941604614258 L12.064871788024902 55.81941604614258"></path></svg>