<svg xmlns="http://www.w3.org/2000/svg" viewBox="0.0 0.0 24.0 24.0" height="200px" width="200px"><path fill="none" stroke="black" stroke-width=".3" stroke-opacity="1.0"  filling="0" d="M1.2000007629394531 8.256000518798828 L8.40000057220459 8.256000518798828 L15.600000381469727 8.256000518798828 L22.799999237060547 8.256000518798828 L22.799999237060547 15.743999481201172 L15.600000381469727 15.744000434875488 L8.40000057220459 15.744000434875488 L1.2000007629394531 15.743999481201172 L1.2000007629394531 8.256000518798828"></path>
<path fill="none" stroke="black" stroke-width=".3" stroke-opacity="1.0"  filling="0" d="M7.625279903411865 8.751720428466797 L7.625279903411865 8.751720428466797 C8.218147277832031 8.899775505065918 9.240056991577148 8.912825584411621 9.535439491271973 9.675479888916016 C10.114043235778809 11.169390678405762 9.39310073852539 13.451007843017578 7.282560348510742 12.851400375366211 C4.697111129760742 12.116869926452637 5.584102630615234 9.224178314208984 7.625279903411865 8.751720428466797 L7.625279903411865 8.751720428466797"></path>
<path fill="none" stroke="black" stroke-width=".3" stroke-opacity="1.0"  filling="0" d="M3.675360679626465 8.838479995727539 L3.675360679626465 8.838479995727539 C3.675720453262329 8.88479995727539 3.6760804653167725 8.931119918823242 3.6764402389526367 8.977439880371094 L3.6764402389526367 8.977439880371094 C2.5367541313171387 9.15849494934082 3.850368022918701 10.90381908416748 4.118520736694336 11.536320686340332 L4.118520736694336 11.536320686340332 C4.428725242614746 10.75063419342041 4.891384124755859 9.930272102355957 4.949760437011719 9.080400466918945 L4.949760437011719 9.080400466918945 C4.79364013671875 9.046680450439453 4.6375203132629395 9.012960433959961 4.481400012969971 8.979240417480469 L4.481400012969971 8.979240417480469 C4.482360363006592 8.932320594787598 4.483320236206055 8.88539981842041 4.484280586242676 8.838479995727539 L4.484280586242676 8.838479995727539 C4.8975605964660645 8.838720321655273 5.310840129852295 8.838959693908691 5.724120140075684 8.839200019836426 L5.724120140075684 8.839200019836426 C5.72376012802124 8.884440422058105 5.723400115966797 8.929679870605469 5.7230401039123535 8.974920272827148 L5.7230401039123535 8.974920272827148 C4.605179309844971 9.502424240112305 4.270013809204102 11.800699234008789 3.8388004302978516 12.899640083312988 L3.8388004302978516 12.899640083312988 C3.7850406169891357 12.897239685058594 3.731280565261841 12.894840240478516 3.677520751953125 12.892439842224121 L3.677520751953125 12.892439842224121 C3.2685000896453857 11.920844078063965 2.7553389072418213 9.468603134155273 1.7176799774169922 8.972040176391602 L1.7176799774169922 8.972040176391602 C1.7202001810073853 8.928000450134277 1.7227205038070679 8.883959770202637 1.725240707397461 8.839920043945312 L1.725240707397461 8.839920043945312 C2.3752808570861816 8.83944034576416 3.025320529937744 8.838959693908691 3.675360679626465 8.838479995727539 L3.675360679626465 8.838479995727539"></path>
<path fill="none" stroke="black" stroke-width=".3" stroke-opacity="1.0"  filling="0" d="M10.176599502563477 8.838479995727539 L10.176599502563477 8.838479995727539 C11.0770263671875 8.83871841430664 11.311973571777344 8.83884334564209 12.212400436401367 8.839559555053711 L12.212400436401367 8.839559555053711 C12.219120025634766 8.885519981384277 12.22584056854248 8.931479454040527 12.232560157775879 8.977439880371094 L12.232560157775879 8.977439880371094 C11.164472579956055 9.2127685546875 10.763051986694336 13.74020767211914 13.030679702758789 12.346320152282715 C13.32910442352295 12.162881851196289 13.417080879211426 11.761919975280762 13.610280990600586 11.469719886779785 L13.610280990600586 11.469719886779785 C13.670400619506836 11.468159675598145 13.73051929473877 11.466599464416504 13.79063892364502 11.465039253234863 L13.79063892364502 11.465039253234863 C13.71083927154541 11.9045991897583 13.631038665771484 12.344160079956055 13.551239013671875 12.783720016479492 L13.551239013671875 12.783720016479492 C12.420598983764648 12.784170150756836 11.289958953857422 12.78381061553955 10.159319877624512 12.78264045715332 L10.159319877624512 12.78264045715332 C10.161959648132324 12.731760025024414 10.164600372314453 12.680880546569824 10.167240142822266 12.630000114440918 L10.167240142822266 12.630000114440918 C11.123027801513672 12.381952285766602 11.150653839111328 9.225375175476074 10.173720359802246 8.9824800491333 L10.173720359802246 8.9824800491333 C10.17467975616455 8.934479713439941 10.175640106201172 8.886480331420898 10.176599502563477 8.838479995727539 L10.176599502563477 8.838479995727539"></path>
<path fill="none" stroke="black" stroke-width=".3" stroke-opacity="1.0"  filling="0" d="M18.696359634399414 8.839200019836426 L18.696359634399414 8.839200019836426 C19.819679260253906 8.839019775390625 20.9429988861084 8.839380264282227 22.06631851196289 8.840279579162598 L22.06631851196289 8.840279579162598 C22.065359115600586 9.228599548339844 22.06439781188965 9.61691951751709 22.063438415527344 10.005239486694336 L22.063438415527344 10.005239486694336 C22.013158798217773 10.008480072021484 21.962879180908203 10.011719703674316 21.912599563598633 10.014960289001465 L21.912599563598633 10.014960289001465 C21.487356185913086 9.109448432922363 21.225461959838867 8.994915962219238 20.22995948791504 9.07211971282959 L20.22995948791504 9.07211971282959 C20.043909072875977 9.57325267791748 20.157426834106445 10.139564514160156 20.15688133239746 10.67411994934082 L20.15688133239746 10.67411994934082 C20.574234008789062 10.57470417022705 20.93183708190918 10.200006484985352 21.110877990722656 9.81011962890625 L21.110877990722656 9.81011962890625 C21.155637741088867 9.808919906616211 21.20039939880371 9.807719230651855 21.245159149169922 9.806519508361816 L21.245159149169922 9.806519508361816 C21.24444007873535 10.461119651794434 21.24371910095215 11.115720748901367 21.243000030517578 11.770320892333984 L21.243000030517578 11.770320892333984 C21.19692039489746 11.770920753479004 21.15083885192871 11.771519660949707 21.104759216308594 11.772119522094727 L21.104759216308594 11.772119522094727 C20.9487361907959 11.361995697021484 20.57598304748535 10.980154991149902 20.15328025817871 10.86240005493164 L20.15328025817871 10.86240005493164 C20.145362854003906 12.753727912902832 20.92989730834961 13.309881210327148 22.174318313598633 11.57628059387207 L22.174318313598633 11.57628059387207 C22.226518630981445 11.576760292053223 22.278717041015625 11.577239990234375 22.330917358398438 11.577719688415527 L22.330917358398438 11.577719688415527 C22.25423812866211 11.979120254516602 22.177560806274414 12.38051986694336 22.100881576538086 12.781920433044434 L22.100881576538086 12.781920433044434 C20.9576416015625 12.781919479370117 19.81439971923828 12.782279968261719 18.671159744262695 12.782999992370605 L18.671159744262695 12.782999992370605 C18.672119140625 12.732239723205566 18.673080444335938 12.681480407714844 18.674039840698242 12.630720138549805 L18.674039840698242 12.630720138549805 C19.651742935180664 12.377542495727539 19.677236557006836 9.158273696899414 18.680160522460938 8.97383975982666 L18.680160522460938 8.97383975982666 C18.68556022644043 8.928959846496582 18.690959930419922 8.884079933166504 18.696359634399414 8.839200019836426 L18.696359634399414 8.839200019836426"></path>
<path fill="none" stroke="black" stroke-width=".3" stroke-opacity="1.0"  filling="0" d="M14.058480262756348 8.839920043945312 L14.058480262756348 8.839920043945312 C14.721480369567871 8.840279579162598 15.384479522705078 8.8406400680542 16.0474796295166 8.840999603271484 L16.0474796295166 8.840999603271484 C16.048919677734375 8.887680053710938 16.05035972595215 8.93436050415039 16.051799774169922 8.981040954589844 L16.051799774169922 8.981040954589844 C15.196184158325195 9.211512565612793 15.536044120788574 9.780673027038574 15.521879196166992 10.74612045288086 L15.521879196166992 10.74612045288086 C16.03530502319336 10.295516967773438 17.73902702331543 9.164579391479492 16.506120681762695 8.983920097351074 L16.506120681762695 8.983920097351074 C16.506959915161133 8.935919761657715 16.507801055908203 8.887920379638672 16.50864028930664 8.839920043945312 L16.50864028930664 8.839920043945312 C17.07360076904297 8.84004020690918 17.638559341430664 8.84015941619873 18.203519821166992 8.840279579162598 L18.203519821166992 8.840279579162598 C18.205678939819336 8.88659954071045 18.207839965820312 8.932920455932617 18.209999084472656 8.979240417480469 L18.209999084472656 8.979240417480469 C16.50246810913086 9.674514770507812 16.00743293762207 9.930334091186523 17.163660049438477 11.369144439697266 C17.45891571044922 11.736560821533203 17.84547233581543 12.482748985290527 18.385679244995117 12.649800300598145 L18.385679244995117 12.649800300598145 C18.38399887084961 12.692999839782715 18.382320404052734 12.736200332641602 18.380640029907227 12.779399871826172 L18.380640029907227 12.779399871826172 C17.72171974182129 12.780839920043945 17.06279945373535 12.782279968261719 16.403879165649414 12.783720016479492 L16.403879165649414 12.783720016479492 C16.407958984375 12.734160423278809 16.412038803100586 12.684599876403809 16.416118621826172 12.635040283203125 L16.416118621826172 12.635040283203125 C16.56839942932129 12.616800308227539 16.720678329467773 12.598560333251953 16.87295913696289 12.580320358276367 L16.87295913696289 12.580320358276367 C16.563919067382812 11.979894638061523 16.09578514099121 11.474560737609863 15.67199993133545 10.948800086975098 L15.67199993133545 10.948800086975098 C15.620519638061523 10.994999885559082 15.569039344787598 11.041200637817383 15.517559051513672 11.087400436401367 L15.517559051513672 11.087400436401367 C15.517802238464355 11.846511840820312 15.251532554626465 12.465560913085938 16.02947998046875 12.631440162658691 L16.02947998046875 12.631440162658691 C16.030080795288086 12.681719779968262 16.03067970275879 12.732000350952148 16.031280517578125 12.782279968261719 L16.031280517578125 12.782279968261719 C15.371520042419434 12.782879829406738 14.711760520935059 12.783479690551758 14.052000045776367 12.784079551696777 L14.052000045776367 12.784079551696777 C14.052000045776367 12.73427963256836 14.052000045776367 12.684479713439941 14.052000045776367 12.634679794311523 L14.052000045776367 12.634679794311523 C15.001502990722656 12.401238441467285 15.023714065551758 9.24856948852539 14.058480262756348 8.990039825439453 L14.058480262756348 8.990039825439453 C14.058480262756348 8.9399995803833 14.058480262756348 8.889960289001465 14.058480262756348 8.839920043945312 L14.058480262756348 8.839920043945312"></path>
<path fill="none" stroke="black" stroke-width=".3" stroke-opacity="1.0"  filling="0" d="M7.553640365600586 8.970240592956543 L7.553640365600586 8.970240592956543 C8.74649429321289 9.22376537322998 9.633890151977539 11.714611053466797 8.344560623168945 12.481679916381836 C6.364150524139404 13.659897804260254 6.398709297180176 9.73753833770752 7.553640365600586 8.970240592956543 L7.553640365600586 8.970240592956543"></path>
<path fill="none" stroke="black" stroke-width=".3" stroke-opacity="1.0"  filling="0" d="M21.71820068359375 13.902600288391113 L21.71820068359375 13.902600288391113 C21.71820068359375 13.937640190124512 21.71820068359375 13.972681045532227 21.71820068359375 14.007720947265625 L21.71820068359375 14.007720947265625 C21.53736114501953 14.008560180664062 21.35651969909668 14.009400367736816 21.17568016052246 14.010239601135254 L21.17568016052246 14.010239601135254 C21.17568016052246 14.11139965057373 21.17568016052246 14.212559700012207 21.17568016052246 14.313719749450684 L21.17568016052246 14.313719749450684 C21.344039916992188 14.31383991241455 21.512399673461914 14.313959121704102 21.68075942993164 14.314079284667969 L21.68075942993164 14.314079284667969 C21.681360244750977 14.345399856567383 21.68195915222168 14.37671947479248 21.682559967041016 14.408040046691895 L21.682559967041016 14.408040046691895 C21.51323890686035 14.4127197265625 21.34391975402832 14.417400360107422 21.174598693847656 14.422080039978027 L21.174598693847656 14.422080039978027 C21.17483901977539 14.53223991394043 21.175079345703125 14.642399787902832 21.17531967163086 14.752559661865234 L21.17531967163086 14.752559661865234 C21.356279373168945 14.752079963684082 21.537240982055664 14.751599311828613 21.71820068359375 14.751119613647461 L21.71820068359375 14.751119613647461 C21.717960357666016 14.789759635925293 21.71772003173828 14.828400611877441 21.717479705810547 14.867040634155273 L21.717479705810547 14.867040634155273 C21.49751853942871 14.864399909973145 21.277559280395508 14.861760139465332 21.057598114013672 14.859119415283203 L21.057598114013672 14.859119415283203 C21.059398651123047 14.540879249572754 21.061199188232422 14.222639083862305 21.062999725341797 13.904398918151855 L21.062999725341797 13.904398918151855 C21.281400680541992 13.903799057006836 21.499799728393555 13.903200149536133 21.71820068359375 13.902600288391113 L21.71820068359375 13.902600288391113"></path>
<path fill="none" stroke="black" stroke-width=".3" stroke-opacity="1.0"  filling="0" d="M19.037281036376953 13.904398918151855 L19.037281036376953 13.904398918151855 C19.739627838134766 13.913206100463867 20.06020164489746 14.349848747253418 19.157520294189453 14.466719627380371 L19.157520294189453 14.466719627380371 C19.157039642333984 14.602680206298828 19.15656089782715 14.738639831542969 19.15608024597168 14.874600410461426 L19.15608024597168 14.874600410461426 C19.116479873657227 14.862360000610352 19.076881408691406 14.850120544433594 19.037281036376953 14.83788013458252 L19.037281036376953 14.83788013458252 C19.037281036376953 14.52672004699707 19.037281036376953 14.215559005737305 19.037281036376953 13.904398918151855 L19.037281036376953 13.904398918151855"></path>
<path fill="none" stroke="black" stroke-width=".3" stroke-opacity="1.0"  filling="0" d="M8.123520851135254 13.904759407043457 L8.123520851135254 13.904759407043457 C8.17020034790039 13.906919479370117 8.216880798339844 13.909079551696777 8.26356029510498 13.911239624023438 L8.26356029510498 13.911239624023438 C8.43120002746582 14.172239303588867 8.59883975982666 14.433239936828613 8.7664794921875 14.694239616394043 L8.7664794921875 14.694239616394043 C8.767799377441406 14.432159423828125 8.769120216369629 14.170080184936523 8.770440101623535 13.907999992370605 L8.770440101623535 13.907999992370605 C8.810879707336426 13.907999992370605 8.851320266723633 13.907999992370605 8.891759872436523 13.907999992370605 L8.891759872436523 13.907999992370605 C8.889840126037598 14.20691967010498 8.941561698913574 14.511042594909668 8.88599967956543 14.804759979248047 C8.826337814331055 15.12015438079834 8.42236042022705 14.353127479553223 8.247360229492188 14.084039688110352 L8.247360229492188 14.084039688110352 C8.24507999420166 14.343719482421875 8.24280071258545 14.603400230407715 8.240520477294922 14.863080024719238 L8.240520477294922 14.863080024719238 C8.200079917907715 14.862959861755371 8.159640312194824 14.86284065246582 8.119199752807617 14.862720489501953 L8.119199752807617 14.862720489501953 C8.12063980102539 14.543399810791016 8.12208080291748 14.224080085754395 8.123520851135254 13.904759407043457 L8.123520851135254 13.904759407043457"></path>
<path fill="none" stroke="black" stroke-width=".3" stroke-opacity="1.0"  filling="0" d="M4.0836005210876465 13.905119895935059 L4.0836005210876465 13.905119895935059 C4.129080295562744 13.907159805297852 4.174560546875 13.909199714660645 4.220040321350098 13.911239624023438 L4.220040321350098 13.911239624023438 C4.376880168914795 14.156159400939941 4.533720016479492 14.401080131530762 4.6905598640441895 14.645999908447266 L4.73520040512085 14.645999908447266 C4.734240531921387 14.399760246276855 4.733280181884766 14.153519630432129 4.732320308685303 13.907279968261719 L4.732320308685303 13.907279968261719 C4.769520282745361 13.9066801071167 4.80672025680542 13.906079292297363 4.8439202308654785 13.905479431152344 L4.8439202308654785 13.905479431152344 C4.842840194702148 14.225399017333984 4.841760635375977 14.545319557189941 4.8406805992126465 14.865239143371582 L4.8406805992126465 14.865239143371582 C4.5138444900512695 14.783904075622559 4.378774166107178 14.37088680267334 4.191600322723389 14.090880393981934 L4.191600322723389 14.090880393981934 C4.190520286560059 14.348640441894531 4.1894402503967285 14.606399536132812 4.188360214233398 14.86415958404541 L4.188360214233398 14.86415958404541 C4.152840614318848 14.86415958404541 4.117320537567139 14.86415958404541 4.081800937652588 14.86415958404541 L4.081800937652588 14.86415958404541 C4.082400798797607 14.544479370117188 4.083000659942627 14.224800109863281 4.0836005210876465 13.905119895935059 L4.0836005210876465 13.905119895935059"></path>
<path fill="none" stroke="black" stroke-width=".3" stroke-opacity="1.0"  filling="0" d="M7.069080352783203 13.906200408935547 L7.069080352783203 13.906200408935547 C7.3760457038879395 13.910897254943848 8.048150062561035 13.908912658691406 7.667399883270264 14.391839981079102 L7.667399883270264 14.391839981079102 C7.719239711761475 14.55072021484375 7.771080017089844 14.709599494934082 7.822919845581055 14.86847972869873 L7.822919845581055 14.86847972869873 C7.780320167541504 14.86631965637207 7.737720012664795 14.864160537719727 7.695120334625244 14.862000465393066 L7.695120334625244 14.862000465393066 C7.679880142211914 14.750280380249023 7.664640426635742 14.63856029510498 7.649400234222412 14.526840209960938 L7.649400234222412 14.526840209960938 C7.62168025970459 14.499839782714844 7.593959808349609 14.472840309143066 7.566239833831787 14.445839881896973 L7.566239833831787 14.445839881896973 C7.442039966583252 14.444880485534668 7.317840099334717 14.443920135498047 7.193640232086182 14.442960739135742 L7.193640232086182 14.442960739135742 C7.189680099487305 14.584680557250977 7.185720443725586 14.726400375366211 7.181760311126709 14.868120193481445 L7.181760311126709 14.868120193481445 C7.144440174102783 14.866559982299805 7.107120513916016 14.864999771118164 7.06980037689209 14.863439559936523 L7.06980037689209 14.863439559936523 C7.069560527801514 14.544360160827637 7.069320201873779 14.225279808044434 7.069080352783203 13.906200408935547 L7.069080352783203 13.906200408935547"></path>
<path fill="none" stroke="black" stroke-width=".3" stroke-opacity="1.0"  filling="0" d="M13.589759826660156 13.906200408935547 L13.589759826660156 13.906200408935547 C13.631279945373535 13.906320571899414 13.672799110412598 13.906440734863281 13.714319229125977 13.906560897827148 L13.714319229125977 13.906560897827148 C13.887839317321777 14.168760299682617 14.061359405517578 14.430960655212402 14.234879493713379 14.693160057067871 L14.234879493713379 14.693160057067871 C14.23523998260498 14.430960655212402 14.235599517822266 14.168760299682617 14.235960006713867 13.906560897827148 L14.235960006713867 13.906560897827148 C14.273880004882812 13.907999992370605 14.311800003051758 13.909440040588379 14.349720001220703 13.910879135131836 L14.349720001220703 13.910879135131836 C14.345160484313965 14.228759765625 14.34060001373291 14.546639442443848 14.336040496826172 14.864520072937012 L14.336040496826172 14.864520072937012 C14.293439865112305 14.863679885864258 14.250840187072754 14.86284065246582 14.208239555358887 14.862000465393066 L14.208239555358887 14.862000465393066 C14.0377197265625 14.604000091552734 13.867199897766113 14.345999717712402 13.696680068969727 14.08799934387207 L13.696680068969727 14.08799934387207 C13.694640159606934 14.347799301147461 13.692599296569824 14.607599258422852 13.690559387207031 14.867399215698242 L13.690559387207031 14.867399215698242 C13.655999183654785 14.86691951751709 13.621439933776855 14.866438865661621 13.58687973022461 14.865959167480469 L13.58687973022461 14.865959167480469 C13.58784008026123 14.546039581298828 13.588799476623535 14.226119995117188 13.589759826660156 13.906200408935547 L13.589759826660156 13.906200408935547"></path>
<path fill="none" stroke="black" stroke-width=".3" stroke-opacity="1.0"  filling="0" d="M12.623520851135254 13.907279968261719 L12.623520851135254 13.907279968261719 C12.845760345458984 13.908360481262207 13.067999839782715 13.909440040588379 13.290239334106445 13.910520553588867 L13.290239334106445 13.910520553588867 C13.289159774780273 13.942920684814453 13.288080215454102 13.975320816040039 13.28700065612793 14.007720947265625 L13.28700065612793 14.007720947265625 C13.106400489807129 14.008440971374512 12.925800323486328 14.009160041809082 12.745200157165527 14.009880065917969 L12.745200157165527 14.009880065917969 C12.745440483093262 14.111639976501465 12.74567985534668 14.213399887084961 12.745920181274414 14.315159797668457 L12.745920181274414 14.315159797668457 C12.913920402526855 14.315159797668457 13.08191967010498 14.315159797668457 13.249919891357422 14.315159797668457 L13.249919891357422 14.315159797668457 C13.25160026550293 14.345760345458984 13.253279685974121 14.376359939575195 13.254960060119629 14.406960487365723 L13.254960060119629 14.406960487365723 C13.084919929504395 14.410679817199707 12.914880752563477 14.414400100708008 12.744840621948242 14.418119430541992 L12.744840621948242 14.418119430541992 C12.743760108947754 14.531039237976074 12.742680549621582 14.643959999084473 12.741600036621094 14.756879806518555 L12.741600036621094 14.756879806518555 C12.923999786376953 14.756999969482422 13.106399536132812 14.757119178771973 13.288799285888672 14.75723934173584 L13.288799285888672 14.75723934173584 C13.288559913635254 14.793839454650879 13.28831958770752 14.830440521240234 13.288080215454102 14.867040634155273 L13.288080215454102 14.867040634155273 C13.066080093383789 14.865480422973633 12.844079971313477 14.863920211791992 12.622079849243164 14.862360000610352 L12.622079849243164 14.862360000610352 C12.622560501098633 14.543999671936035 12.623040199279785 14.225640296936035 12.623520851135254 13.907279968261719 L12.623520851135254 13.907279968261719"></path>
<path fill="none" stroke="black" stroke-width=".3" stroke-opacity="1.0"  filling="0" d="M10.203960418701172 13.90764045715332 L10.203960418701172 13.90764045715332 C10.246320724487305 13.908120155334473 10.288680076599121 13.908599853515625 10.331040382385254 13.909079551696777 L10.331040382385254 13.909079551696777 C10.330320358276367 14.044679641723633 10.32960033416748 14.180279731750488 10.328880310058594 14.315879821777344 L10.328880310058594 14.315879821777344 C10.496040344238281 14.31659984588623 10.663200378417969 14.317319869995117 10.830360412597656 14.318039894104004 L10.830360412597656 14.318039894104004 C10.832880020141602 14.181360244750977 10.835400581359863 14.044679641723633 10.837920188903809 13.907999992370605 L10.837920188903809 13.907999992370605 C10.87716007232666 13.907999992370605 10.916399955749512 13.907999992370605 10.955639839172363 13.907999992370605 L10.955639839172363 13.907999992370605 C10.954679489135742 14.229720115661621 10.953720092773438 14.55143928527832 10.952759742736816 14.873159408569336 L10.952759742736816 14.873159408569336 C10.910759925842285 14.866199493408203 10.868759155273438 14.85923957824707 10.826759338378906 14.852279663085938 L10.826759338378906 14.852279663085938 C10.826519966125488 14.70479965209961 10.826279640197754 14.557319641113281 10.826040267944336 14.409839630126953 L10.826040267944336 14.409839630126953 C10.661160469055176 14.41427993774414 10.4962797164917 14.418719291687012 10.331399917602539 14.4231595993042 L10.331399917602539 14.4231595993042 C10.3302001953125 14.566679954528809 10.329000473022461 14.710199356079102 10.327800750732422 14.853719711303711 L10.327800750732422 14.853719711303711 C10.286280632019043 14.859959602355957 10.244760513305664 14.86620044708252 10.203240394592285 14.872440338134766 L10.203240394592285 14.872440338134766 C10.20348072052002 14.550840377807617 10.203720092773438 14.229240417480469 10.203960418701172 13.90764045715332 L10.203960418701172 13.90764045715332"></path>
<path fill="none" stroke="black" stroke-width=".3" stroke-opacity="1.0"  filling="0" d="M12.27791976928711 13.90764045715332 L12.27791976928711 13.90764045715332 C12.27575969696045 14.226240158081055 12.273600578308105 14.544839859008789 12.271440505981445 14.863439559936523 L12.271440505981445 14.863439559936523 C12.231480598449707 14.862479209899902 12.191519737243652 14.861519813537598 12.151559829711914 14.860559463500977 L12.151559829711914 14.860559463500977 C12.151559829711914 14.598359107971191 12.151559829711914 14.336159706115723 12.151559829711914 14.073959350585938 L12.151559829711914 14.073959350585938 C12.044520378112793 14.338679313659668 11.937479972839355 14.603400230407715 11.830440521240234 14.868120193481445 L11.830440521240234 14.868120193481445 C11.572869300842285 14.724844932556152 11.544196128845215 14.35046100616455 11.440199851989746 14.07468032836914 L11.440199851989746 14.07468032836914 C11.433239936828613 14.338080406188965 11.42628002166748 14.601479530334473 11.419320106506348 14.864879608154297 L11.419320106506348 14.864879608154297 C11.385359764099121 14.865119934082031 11.351400375366211 14.86535930633545 11.317440032958984 14.865599632263184 L11.317440032958984 14.865599632263184 C11.318280220031738 14.54640007019043 11.319119453430176 14.22719955444336 11.31995964050293 13.907999992370605 L11.31995964050293 13.907999992370605 C11.376480102539062 13.907999992370605 11.432999610900879 13.907999992370605 11.489520072937012 13.907999992370605 L11.489520072937012 13.907999992370605 C11.587440490722656 14.17632007598877 11.685359954833984 14.444640159606934 11.783280372619629 14.712960243225098 L11.783280372619629 14.712960243225098 C11.88744068145752 14.444640159606934 11.991600036621094 14.17632007598877 12.095760345458984 13.907999992370605 L12.095760345458984 13.907999992370605 C12.156479835510254 13.907879829406738 12.21720027923584 13.907760620117188 12.27791976928711 13.90764045715332 L12.27791976928711 13.90764045715332"></path>
<path fill="none" stroke="black" stroke-width=".3" stroke-opacity="1.0"  filling="0" d="M18.69059944152832 13.90764045715332 L18.69059944152832 13.90764045715332 C18.6798095703125 15.125837326049805 17.917011260986328 15.093807220458984 17.918399810791016 13.907999992370605 L17.918399810791016 13.907999992370605 C17.96027946472168 13.907999992370605 18.002161026000977 13.907999992370605 18.04404067993164 13.907999992370605 L18.04404067993164 13.907999992370605 C18.0492000579834 14.891226768493652 18.553150177001953 14.903059959411621 18.563520431518555 13.907999992370605 L18.563520431518555 13.907999992370605 C18.605880737304688 13.907879829406738 18.648239135742188 13.907760620117188 18.69059944152832 13.90764045715332 L18.69059944152832 13.90764045715332"></path>
<path fill="none" stroke="black" stroke-width=".3" stroke-opacity="1.0"  filling="0" d="M2.9665212631225586 13.907999992370605 L2.9665212631225586 13.907999992370605 C3.0092411041259766 13.907999992370605 3.0519609451293945 13.907999992370605 3.0946807861328125 13.907999992370605 L3.0946807861328125 13.907999992370605 C3.0926387310028076 14.827905654907227 3.5976381301879883 14.917264938354492 3.61776065826416 13.907999992370605 L3.61776065826416 13.907999992370605 C3.6586806774139404 13.907999992370605 3.6996004581451416 13.907999992370605 3.740520477294922 13.907999992370605 L3.740520477294922 13.907999992370605 C3.7335638999938965 15.093375205993652 2.9691786766052246 15.109917640686035 2.9665212631225586 13.907999992370605 L2.9665212631225586 13.907999992370605"></path>
<path fill="none" stroke="black" stroke-width=".3" stroke-opacity="1.0"  filling="0" d="M5.86776065826416 13.907999992370605 L5.86776065826416 13.907999992370605 C5.861160755157471 13.941840171813965 5.854560375213623 13.975680351257324 5.847960472106934 14.009520530700684 L5.847960472106934 14.009520530700684 C5.745360374450684 14.00964069366455 5.642760276794434 14.009759902954102 5.540160179138184 14.009880065917969 L5.540160179138184 14.009880065917969 C5.535840034484863 14.291159629821777 5.531520366668701 14.572440147399902 5.527200222015381 14.853719711303711 L5.527200222015381 14.853719711303711 C5.490360260009766 14.859359741210938 5.45352029800415 14.864999771118164 5.416680335998535 14.87063980102539 L5.416680335998535 14.87063980102539 C5.417280197143555 14.583479881286621 5.417880535125732 14.296319961547852 5.418480396270752 14.009160041809082 L5.418480396270752 14.009160041809082 C5.308560371398926 14.007960319519043 5.198639869689941 14.006759643554688 5.088719844818115 14.005559921264648 L5.088719844818115 14.005559921264648 C5.089560031890869 13.973639488220215 5.090399742126465 13.941720008850098 5.091239929199219 13.909799575805664 L5.091239929199219 13.909799575805664 C5.3500800132751465 13.909199714660645 5.608920574188232 13.908599853515625 5.86776065826416 13.907999992370605 L5.86776065826416 13.907999992370605"></path>
<path fill="none" stroke="black" stroke-width=".3" stroke-opacity="1.0"  filling="0" d="M6.104640483856201 13.907999992370605 L6.104640483856201 13.907999992370605 C6.326760292053223 13.907999992370605 6.548880577087402 13.907999992370605 6.771000385284424 13.907999992370605 L6.771000385284424 13.907999992370605 C6.769920349121094 13.942679405212402 6.768840312957764 13.977359771728516 6.767760276794434 14.012039184570312 L6.767760276794434 14.012039184570312 C6.588840484619141 14.011679649353027 6.4099202156066895 14.011319160461426 6.2310004234313965 14.01095962524414 L6.2310004234313965 14.01095962524414 C6.2308807373046875 14.112360000610352 6.23076057434082 14.213759422302246 6.230640888214111 14.315159797668457 L6.230640888214111 14.315159797668457 C6.396360874176025 14.315400123596191 6.562080383300781 14.31563949584961 6.727800369262695 14.315879821777344 L6.727800369262695 14.315879821777344 C6.730200290679932 14.347199440002441 6.732600212097168 14.378520011901855 6.735000133514404 14.409839630126953 L6.735000133514404 14.409839630126953 C6.566880226135254 14.410319328308105 6.398760795593262 14.410799980163574 6.230640888214111 14.411279678344727 L6.230640888214111 14.411279678344727 C6.229440689086914 14.524799346923828 6.228240489959717 14.638319969177246 6.2270402908325195 14.751839637756348 L6.2270402908325195 14.751839637756348 C7.128185749053955 14.764044761657715 6.657956123352051 14.863048553466797 6.101400375366211 14.862720489501953 L6.101400375366211 14.862720489501953 C6.102480411529541 14.544480323791504 6.103560447692871 14.226240158081055 6.104640483856201 13.907999992370605 L6.104640483856201 13.907999992370605"></path>
<path fill="none" stroke="black" stroke-width=".3" stroke-opacity="1.0"  filling="0" d="M9.238080024719238 13.907999992370605 L9.238080024719238 13.907999992370605 C9.460320472717285 13.90824031829834 9.682559967041016 13.908479690551758 9.904800415039062 13.908720016479492 L9.904800415039062 13.908720016479492 C9.904080390930176 13.94279956817627 9.903360366821289 13.976880073547363 9.902640342712402 14.01095962524414 L9.902640342712402 14.01095962524414 C9.722400665283203 14.010839462280273 9.542160034179688 14.010720252990723 9.361920356750488 14.010600090026855 L9.361920356750488 14.010600090026855 C9.362160682678223 14.112480163574219 9.36240005493164 14.214360237121582 9.362640380859375 14.316240310668945 L9.362640380859375 14.316240310668945 C9.529680252075195 14.315999984741211 9.696720123291016 14.315759658813477 9.863759994506836 14.315519332885742 L9.863759994506836 14.315519332885742 C9.864239692687988 14.347919464111328 9.864720344543457 14.38032054901123 9.86520004272461 14.412720680236816 L9.86520004272461 14.412720680236816 C9.70032024383545 14.414040565490723 9.535440444946289 14.415359497070312 9.370560646057129 14.416679382324219 L9.370560646057129 14.416679382324219 C9.367080688476562 14.529359817504883 9.36359977722168 14.642040252685547 9.360119819641113 14.754720687866211 L9.360119819641113 14.754720687866211 C9.542160034179688 14.758320808410645 9.724200248718262 14.761919975280762 9.906240463256836 14.765520095825195 L9.906240463256836 14.765520095825195 C9.90432071685791 14.799479484558105 9.902400016784668 14.833439826965332 9.900480270385742 14.867399215698242 L9.900480270385742 14.867399215698242 C9.678600311279297 14.865118980407715 9.456720352172852 14.862839698791504 9.234840393066406 14.860559463500977 L9.234840393066406 14.860559463500977 C9.235919952392578 14.543039321899414 9.237000465393066 14.225520133972168 9.238080024719238 13.907999992370605 L9.238080024719238 13.907999992370605"></path>
<path fill="none" stroke="black" stroke-width=".3" stroke-opacity="1.0"  filling="0" d="M16.865760803222656 13.907999992370605 L16.865760803222656 13.907999992370605 C17.25131607055664 13.908551216125488 17.672060012817383 13.845516204833984 17.550840377807617 14.344319343566895 L17.550840377807617 14.344319343566895 C17.518680572509766 14.355359077453613 17.486520767211914 14.366399765014648 17.454360961914062 14.377439498901367 L17.454360961914062 14.377439498901367 C17.568960189819336 14.507598876953125 17.592456817626953 14.699801445007324 17.6177978515625 14.871358871459961 L17.6177978515625 14.871358871459961 C17.572917938232422 14.863558769226074 17.528039932250977 14.855759620666504 17.4831600189209 14.847959518432617 L17.4831600189209 14.847959518432617 C17.44269371032715 14.639324188232422 17.202791213989258 14.460729598999023 16.99104118347168 14.44260025024414 L16.99104118347168 14.44260025024414 C16.98948097229004 14.583359718322754 16.9879207611084 14.724120140075684 16.986360549926758 14.864879608154297 L16.986360549926758 14.864879608154297 C16.9454402923584 14.864999771118164 16.90452003479004 14.865118980407715 16.86359977722168 14.865239143371582 L16.86359977722168 14.865239143371582 C16.864320755004883 14.546159744262695 16.865039825439453 14.227079391479492 16.865760803222656 13.907999992370605 L16.865760803222656 13.907999992370605"></path>
<path fill="none" stroke="black" stroke-width=".3" stroke-opacity="1.0"  filling="0" d="M20.04779815673828 13.907999992370605 L20.04779815673828 13.907999992370605 C20.71786880493164 13.914542198181152 21.02937889099121 14.337797164916992 20.16588020324707 14.46780014038086 L20.16588020324707 14.46780014038086 C20.163360595703125 14.598360061645508 20.16084098815918 14.728919982910156 20.158321380615234 14.859479904174805 L20.158321380615234 14.859479904174805 C20.120161056518555 14.85863971710205 20.081998825073242 14.857800483703613 20.043838500976562 14.85696029663086 L20.043838500976562 14.85696029663086 C20.04515838623047 14.540639877319336 20.046478271484375 14.224320411682129 20.04779815673828 13.907999992370605 L20.04779815673828 13.907999992370605"></path>
<path fill="none" stroke="black" stroke-width=".3" stroke-opacity="1.0"  filling="0" d="M15.262680053710938 13.95479965209961 L15.262680053710938 13.95479965209961 C15.30132007598877 14.029319763183594 15.339959144592285 14.103839874267578 15.378599166870117 14.178359985351562 L15.378599166870117 14.178359985351562 C15.336479187011719 14.182439804077148 15.29435920715332 14.186519622802734 15.252239227294922 14.19059944152832 L15.252239227294922 14.19059944152832 C15.248279571533203 14.157119750976562 15.244319915771484 14.123640060424805 15.240360260009766 14.090160369873047 L15.240360260009766 14.090160369873047 C15.089568138122559 14.056330680847168 14.853551864624023 14.085521697998047 14.798280715942383 14.229840278625488 L14.798280715942383 14.229840278625488 C15.74071979522705 14.530710220336914 15.209911346435547 15.146674156188965 14.628360748291016 14.552040100097656 L14.628360748291016 14.552040100097656 C14.663040161132812 14.549880027770996 14.69771957397461 14.547719955444336 14.732398986816406 14.545559883117676 L14.732398986816406 14.545559883117676 C14.91989803314209 14.817108154296875 15.455642700195312 14.729801177978516 15.250439643859863 14.505239486694336 C14.943671226501465 14.169529914855957 14.119694709777832 14.008450508117676 15.262680053710938 13.95479965209961 L15.262680053710938 13.95479965209961"></path>
<path fill="none" stroke="black" stroke-width=".3" stroke-opacity="1.0"  filling="0" d="M16.420440673828125 13.987560272216797 L16.420440673828125 13.987560272216797 C16.456920623779297 14.055119514465332 16.493398666381836 14.122679710388184 16.529878616333008 14.190238952636719 L16.529878616333008 14.190238952636719 C16.49135971069336 14.190958976745605 16.452838897705078 14.191679954528809 16.41431999206543 14.192399978637695 L16.41431999206543 14.192399978637695 C15.429837226867676 13.295352935791016 16.015304565429688 15.582027435302734 16.43556022644043 14.48147964477539 L16.43556022644043 14.48147964477539 C16.326480865478516 14.473079681396484 16.21739959716797 14.464679718017578 16.108320236206055 14.456279754638672 L16.108320236206055 14.456279754638672 C16.113359451293945 14.422679901123047 16.11840057373047 14.389080047607422 16.12343978881836 14.355480194091797 L16.12343978881836 14.355480194091797 C16.25868034362793 14.355239868164062 16.393918991088867 14.354999542236328 16.529159545898438 14.354759216308594 L16.529159545898438 14.354759216308594 C16.525678634643555 14.533679008483887 16.522199630737305 14.712599754333496 16.518718719482422 14.891519546508789 L16.518718719482422 14.891519546508789 C16.487878799438477 14.844839096069336 16.45703887939453 14.7981595993042 16.426198959350586 14.751479148864746 L16.426198959350586 14.751479148864746 C15.460193634033203 14.838312149047852 15.448198318481445 14.178942680358887 16.420440673828125 13.987560272216797 L16.420440673828125 13.987560272216797"></path>
<path fill="none" stroke="black" stroke-width=".3" stroke-opacity="1.0"  filling="0" d="M19.15715980529785 14.005919456481934 L19.15715980529785 14.005919456481934 C19.303199768066406 14.020919799804688 19.449241638183594 14.035920143127441 19.59528160095215 14.050920486450195 L19.59528160095215 14.050920486450195 C19.61016082763672 14.100480079650879 19.62504005432129 14.150040626525879 19.63991928100586 14.199600219726562 L19.63991928100586 14.199600219726562 C19.549814224243164 14.343179702758789 19.32681655883789 14.352008819580078 19.157520294189453 14.360520362854004 L19.157520294189453 14.360520362854004 C19.157400131225586 14.24232006072998 19.15727996826172 14.124119758605957 19.15715980529785 14.005919456481934 L19.15715980529785 14.005919456481934"></path>
<path fill="none" stroke="black" stroke-width=".3" stroke-opacity="1.0"  filling="0" d="M16.990320205688477 14.006999969482422 L16.990320205688477 14.006999969482422 C17.126399993896484 14.008440017700195 17.262479782104492 14.009880065917969 17.3985595703125 14.011320114135742 L17.3985595703125 14.011320114135742 C17.415287017822266 14.186306953430176 17.16810417175293 14.331063270568848 16.993200302124023 14.348640441894531 L16.993200302124023 14.348640441894531 C16.99224090576172 14.234760284423828 16.99127960205078 14.120880126953125 16.990320205688477 14.006999969482422 L16.990320205688477 14.006999969482422"></path>
<path fill="none" stroke="black" stroke-width=".3" stroke-opacity="1.0"  filling="0" d="M7.191840648651123 14.007360458374023 L7.191840648651123 14.007360458374023 C7.330200672149658 14.009039878845215 7.468560218811035 14.010720252990723 7.60692024230957 14.012399673461914 L7.60692024230957 14.012399673461914 C7.620840072631836 14.110440254211426 7.63476037979126 14.208479881286621 7.648680210113525 14.306520462036133 L7.648680210113525 14.306520462036133 C7.497000217437744 14.320799827575684 7.345320224761963 14.33508014678955 7.193640232086182 14.349359512329102 L7.193640232086182 14.349359512329102 C7.193040370941162 14.235360145568848 7.192440509796143 14.121359825134277 7.191840648651123 14.007360458374023 L7.191840648651123 14.007360458374023"></path>
<path fill="none" stroke="black" stroke-width=".3" stroke-opacity="1.0"  filling="0" d="M20.16588020324707 14.010239601135254 L20.16588020324707 14.010239601135254 C20.313119888305664 14.0235595703125 20.460359573364258 14.036879539489746 20.60759925842285 14.050199508666992 L20.60759925842285 14.050199508666992 C20.578935623168945 14.227248191833496 20.344696044921875 14.348923683166504 20.16551971435547 14.35692024230957 L20.16551971435547 14.35692024230957 C20.165639877319336 14.24135971069336 20.165760040283203 14.125800132751465 20.16588020324707 14.010239601135254 L20.16588020324707 14.010239601135254"></path></svg>