<svg xmlns="http://www.w3.org/2000/svg" viewBox="0.0 0.0 24.0 24.0" height="200px" width="200px"><path fill="none" stroke="black" stroke-width=".3" stroke-opacity="1.0"  filling="0" d="M3.3790483474731445 8.674285888671875 L4.064762592315674 8.674285888671875 L4.605714797973633 11.516190528869629 C4.641270637512207 11.714285850524902 4.676826000213623 11.912381172180176 4.712381839752197 12.11047649383545 L4.712381839752197 12.11047649383545 C4.753016948699951 11.914920806884766 4.793651580810547 11.719366073608398 4.834286689758301 11.523810386657715 L5.558095932006836 8.674285888671875 L6.137143611907959 8.674285888671875 L6.868571758270264 11.592381477355957 C6.904127597808838 11.765079498291016 6.939682960510254 11.93777847290039 6.975238800048828 12.11047649383545 L6.975238800048828 12.11047649383545 C7.0057148933410645 11.9352388381958 7.036190509796143 11.760000228881836 7.066666603088379 11.584762573242188 L7.615238666534424 8.674285888671875 L8.270476341247559 8.674285888671875 L7.348572254180908 13.184762001037598 L6.662858009338379 13.184762001037598 L5.961905479431152 10.274285316467285 C5.918730735778809 10.073650360107422 5.875556468963623 9.873016357421875 5.832381725311279 9.672381401062012 L5.832381725311279 9.672381401062012 C5.7892069816589355 9.873016357421875 5.74603271484375 10.073650360107422 5.702857971191406 10.274285316467285 L4.971428871154785 13.184762001037598 L4.300952911376953 13.184762001037598 L3.3790483474731445 8.674285888671875"></path>
<path fill="none" stroke="black" stroke-width=".3" stroke-opacity="1.0"  filling="0" d="M15.577142715454102 8.674285888671875 L16.255237579345703 8.674285888671875 L16.255237579345703 13.184762001037598 L15.577142715454102 13.184762001037598 L15.577142715454102 8.674285888671875"></path>
<path fill="none" stroke="black" stroke-width=".3" stroke-opacity="1.0"  filling="0" d="M19.935237884521484 10.929523468017578 L19.935237884521484 10.929523468017578 C19.721742630004883 11.630758285522461 19.11069107055664 12.266047477722168 18.426666259765625 12.529523849487305 L17.87047576904297 12.529523849487305 L17.87047576904297 9.329524040222168 L18.426666259765625 9.329524040222168 C19.111255645751953 9.591527938842773 19.722225189208984 10.228142738342285 19.935237884521484 10.929523468017578 L19.935237884521484 10.929523468017578"></path>
<path fill="none" stroke="black" stroke-width=".3" stroke-opacity="1.0"  filling="0" d="M20.628570556640625 10.929523468017578 L20.628570556640625 10.929523468017578 C20.40920639038086 11.50253963470459 20.399112701416016 12.209551811218262 19.970476150512695 12.648571014404297 C19.58991050720215 13.038354873657227 18.941268920898438 13.00603199005127 18.426666259765625 13.184762001037598 L17.200000762939453 13.184762001037598 L17.200000762939453 8.674285888671875 L18.434284210205078 8.674285888671875 C18.951427459716797 8.85111141204834 19.604581832885742 8.813043594360352 19.985713958740234 9.204761505126953 C20.41358184814453 9.644513130187988 20.41428565979004 10.354602813720703 20.628570556640625 10.929523468017578 L20.628570556640625 10.929523468017578"></path>
<path fill="none" stroke="black" stroke-width=".3" stroke-opacity="1.0"  filling="0" d="M10.670476913452148 11.180952072143555 L9.1009521484375 11.180952072143555 C9.357460021972656 10.89650821685791 9.487455368041992 10.327619552612305 9.870475769042969 10.327619552612305 C10.26037311553955 10.327619552612305 10.403809547424316 10.89650821685791 10.670476913452148 11.180952072143555 L10.670476913452148 11.180952072143555"></path>
<path fill="none" stroke="black" stroke-width=".3" stroke-opacity="1.0"  filling="0" d="M11.34095287322998 11.424761772155762 L11.34095287322998 11.424761772155762 C11.333333969116211 11.523809432983398 11.325715065002441 11.622857093811035 11.318096160888672 11.721904754638672 L9.085715293884277 11.721904754638672 C9.472949028015137 12.143712997436523 10.132513999938965 12.580893516540527 10.670476913452148 12.384761810302734 L11.066666603088379 12.81142807006836 C10.678094863891602 12.95872974395752 10.316493034362793 13.256759643554688 9.900952339172363 13.25333309173584 C6.9578776359558105 13.229063034057617 9.018434524536133 7.897311210632324 10.988572120666504 10.236190795898438 C11.254796028137207 10.552242279052734 11.223492622375488 11.028571128845215 11.34095287322998 11.424761772155762 L11.34095287322998 11.424761772155762"></path>
<path fill="none" stroke="black" stroke-width=".3" stroke-opacity="1.0"  filling="0" d="M14.807619094848633 11.546667098999023 L14.807619094848633 11.546667098999023 C14.356159210205078 12.996481895446777 14.10289192199707 13.539575576782227 12.620951652526855 12.864762306213379 L12.620951652526855 13.177143096923828 L11.965713500976562 13.177143096923828 L11.965713500976562 8.826666831970215 L12.620951652526855 8.483810424804688 L12.620951652526855 10.129524230957031 C14.179351806640625 9.43093204498291 14.39074420928955 10.010757446289062 14.807619094848633 11.546667098999023 L14.807619094848633 11.546667098999023"></path>
<path fill="none" stroke="black" stroke-width=".3" stroke-opacity="1.0"  filling="0" d="M14.144761085510254 11.561904907226562 L14.144761085510254 11.561904907226562 C13.900951385498047 11.920000076293945 13.813460350036621 12.470137596130371 13.41333293914795 12.636190414428711 C13.13400650024414 12.752110481262207 12.885078430175781 12.34158706665039 12.620951652526855 12.19428539276123 L12.620951652526855 10.769524574279785 C12.877459526062012 10.624762535095215 13.129157066345215 10.199352264404297 13.39047622680664 10.335238456726074 C13.816346168518066 10.556690216064453 13.893332481384277 11.153016090393066 14.144761085510254 11.561904907226562 L14.144761085510254 11.561904907226562"></path>
<path fill="none" stroke="black" stroke-width=".3" stroke-opacity="1.0"  filling="0" d="M10.845714569091797 14.29714298248291 L10.74666690826416 15.19619083404541 C10.140642166137695 15.477557182312012 10.176908493041992 14.384652137756348 10.746665954589844 14.647619247436523 L10.845714569091797 14.29714298248291"></path>
<path fill="none" stroke="black" stroke-width=".3" stroke-opacity="1.0"  filling="0" d="M12.636190414428711 14.29714298248291 L12.64380931854248 15.120000839233398 C12.681456565856934 15.166014671325684 12.753498077392578 15.194320678710938 12.81142807006836 15.180952072143555 L12.803808212280273 15.272380828857422 C12.705373764038086 15.289751052856445 12.602191925048828 15.211129188537598 12.537141799926758 15.135237693786621 L12.636190414428711 14.29714298248291"></path>
<path fill="none" stroke="black" stroke-width=".3" stroke-opacity="1.0"  filling="0" d="M13.443809509277344 14.29714298248291 L13.451428413391113 15.120000839233398 C13.489075660705566 15.166014671325684 13.561117172241211 15.194320678710938 13.619047164916992 15.180952072143555 L13.611428260803223 15.272380828857422 C13.512993812561035 15.289751052856445 13.409811973571777 15.211129188537598 13.344761848449707 15.135237693786621 L13.443809509277344 14.29714298248291"></path>
<path fill="none" stroke="black" stroke-width=".3" stroke-opacity="1.0"  filling="0" d="M3.836191177368164 14.335238456726074 L4.110476970672607 14.60952377319336 C4.146032333374023 14.678094863891602 4.1815876960754395 14.74666690826416 4.2171430587768555 14.815237998962402 L4.2171430587768555 14.815237998962402 C4.2526984214782715 14.74666690826416 4.288254261016846 14.678094863891602 4.323809623718262 14.60952377319336 L4.598095417022705 14.335238456726074 L4.163809299468994 15.279999732971191 L3.836191177368164 14.335238456726074"></path>
<path fill="none" stroke="black" stroke-width=".3" stroke-opacity="1.0"  filling="0" d="M6.9295244216918945 14.335238456726074 L7.592381477355957 14.335238456726074 L7.318095684051514 14.434286117553711 L7.318095684051514 15.287618637084961 L7.211428642272949 14.434286117553711 L6.9295244216918945 14.335238456726074"></path>
<path fill="none" stroke="black" stroke-width=".3" stroke-opacity="1.0"  filling="0" d="M9.984761238098145 14.335238456726074 L10.091428756713867 15.287618637084961 L9.984761238098145 14.335238456726074"></path>
<path fill="none" stroke="black" stroke-width=".3" stroke-opacity="1.0"  filling="0" d="M13.123809814453125 14.373332977294922 L13.123809814453125 14.373332977294922 C12.95267391204834 14.544471740722656 12.95812702178955 14.189241409301758 13.123809814453125 14.373332977294922 L13.123809814453125 14.373332977294922"></path>
<path fill="none" stroke="black" stroke-width=".3" stroke-opacity="1.0"  filling="0" d="M6.388571739196777 14.563810348510742 L6.388571739196777 14.563810348510742 C6.426666736602783 14.568889617919922 6.464762210845947 14.573967933654785 6.502857208251953 14.579047203063965 L6.472381114959717 14.685714721679688 C6.370752811431885 14.656678199768066 6.27476692199707 14.782564163208008 6.2133331298828125 14.868572235107422 L6.2133331298828125 14.670475959777832 C6.2717461585998535 14.634921073913574 6.330158710479736 14.599365234375 6.388571739196777 14.563810348510742 L6.388571739196777 14.563810348510742"></path>
<path fill="none" stroke="black" stroke-width=".3" stroke-opacity="1.0"  filling="0" d="M7.912381172180176 14.563810348510742 L7.912381172180176 14.563810348510742 C7.950476169586182 14.568889617919922 7.988571643829346 14.573967933654785 8.026666641235352 14.579047203063965 L7.996190547943115 14.685714721679688 C7.894562244415283 14.656678199768066 7.798576354980469 14.782565116882324 7.737142562866211 14.868572235107422 L7.737142562866211 14.670475959777832 C7.795555591583252 14.634921073913574 7.853968143463135 14.599365234375 7.912381172180176 14.563810348510742 L7.912381172180176 14.563810348510742"></path>
<path fill="none" stroke="black" stroke-width=".3" stroke-opacity="1.0"  filling="0" d="M12.0647611618042 14.563810348510742 L12.0647611618042 14.563810348510742 C12.148571014404297 14.660317420959473 12.232379913330078 14.75682544708252 12.316189765930176 14.85333251953125 L12.316189765930176 15.287618637084961 L12.20952320098877 14.868572235107422 C12.140450477600098 14.777521133422852 11.937682151794434 14.779029846191406 11.866665840148926 14.868572235107422 L11.866665840148926 14.662857055664062 C11.932697296142578 14.629841804504395 11.998729705810547 14.59682559967041 12.0647611618042 14.563810348510742 L12.0647611618042 14.563810348510742"></path>
<path fill="none" stroke="black" stroke-width=".3" stroke-opacity="1.0"  filling="0" d="M16.64380645751953 14.563810348510742 L16.64380645751953 14.563810348510742 C16.7098388671875 14.604445457458496 16.77587127685547 14.645079612731934 16.841903686523438 14.685714721679688 L16.841903686523438 14.685714721679688 C16.98075294494629 14.606372833251953 17.190338134765625 14.729416847229004 17.291427612304688 14.85333251953125 L17.291427612304688 15.287618637084961 L17.184764862060547 14.868572235107422 C17.125648498535156 14.782853126525879 16.933454513549805 14.784235000610352 16.87238121032715 14.868572235107422 L16.773332595825195 15.287618637084961 L16.773332595825195 14.868572235107422 C16.714216232299805 14.782854080200195 16.522024154663086 14.784235954284668 16.460952758789062 14.868572235107422 L16.46095085144043 14.662857055664062 C16.521902084350586 14.629841804504395 16.582855224609375 14.59682559967041 16.64380645751953 14.563810348510742 L16.64380645751953 14.563810348510742"></path>
<path fill="none" stroke="black" stroke-width=".3" stroke-opacity="1.0"  filling="0" d="M18.472381591796875 14.563810348510742 L18.472381591796875 14.563810348510742 C18.556190490722656 14.640000343322754 18.639999389648438 14.716191291809082 18.72380828857422 14.792381286621094 L18.617141723632812 15.211427688598633 C18.07686424255371 15.453622817993164 18.087141036987305 14.776209831237793 18.617141723632812 14.891427993774414 L18.617141723632812 14.807619094848633 C18.534597396850586 14.720948219299316 18.389541625976562 14.668680191040039 18.27428436279297 14.70095157623291 L18.236190795898438 14.617142677307129 C18.31492042541504 14.599365234375 18.393651962280273 14.581587791442871 18.472381591796875 14.563810348510742 L18.472381591796875 14.563810348510742"></path>
<path fill="none" stroke="black" stroke-width=".3" stroke-opacity="1.0"  filling="0" d="M19.226665496826172 14.563810348510742 L19.226665496826172 14.563810348510742 C19.310474395751953 14.660317420959473 19.394285202026367 14.75682544708252 19.47809410095215 14.85333251953125 L19.47809410095215 15.287618637084961 L19.371427536010742 14.868572235107422 C19.30235481262207 14.777522087097168 19.099586486816406 14.779029846191406 19.0285701751709 14.868572235107422 L19.0285701751709 14.662857055664062 C19.094602584838867 14.629841804504395 19.160633087158203 14.59682559967041 19.226665496826172 14.563810348510742 L19.226665496826172 14.563810348510742"></path>
<path fill="none" stroke="black" stroke-width=".3" stroke-opacity="1.0"  filling="0" d="M13.718094825744629 14.571428298950195 L14.022857666015625 15.165714263916016 L14.327619552612305 14.579047203063965 L13.969524383544922 15.531428337097168 L13.718094825744629 14.571428298950195"></path>
<path fill="none" stroke="black" stroke-width=".3" stroke-opacity="1.0"  filling="0" d="M19.59238052368164 14.571428298950195 L19.897140502929688 15.165714263916016 L20.201904296875 14.579047203063965 L19.843809127807617 15.531428337097168 L19.59238052368164 14.571428298950195"></path>
<path fill="none" stroke="black" stroke-width=".3" stroke-opacity="1.0"  filling="0" d="M5.367619037628174 14.579047203063965 L5.4666666984558105 14.99809455871582 C5.535739421844482 15.089144706726074 5.7385077476501465 15.087636947631836 5.809524059295654 14.99809455871582 L5.817142963409424 15.203808784484863 C5.671585559844971 15.27658748626709 5.4743242263793945 15.136204719543457 5.367619037628174 15.01333236694336 L5.367619037628174 14.579047203063965"></path>
<path fill="none" stroke="black" stroke-width=".3" stroke-opacity="1.0"  filling="0" d="M8.171428680419922 14.579047203063965 L8.270476341247559 14.99809455871582 C8.33954906463623 15.089144706726074 8.542316436767578 15.087636947631836 8.613332748413086 14.99809455871582 L8.620952606201172 15.203808784484863 C8.475395202636719 15.27658748626709 8.278133392333984 15.136204719543457 8.171428680419922 15.01333236694336 L8.171428680419922 14.579047203063965"></path>
<path fill="none" stroke="black" stroke-width=".3" stroke-opacity="1.0"  filling="0" d="M13.001904487609863 14.579047203063965 L13.1009521484375 15.287618637084961 L13.001904487609863 14.579047203063965"></path>
<path fill="none" stroke="black" stroke-width=".3" stroke-opacity="1.0"  filling="0" d="M10.548572540283203 14.655237197875977 L10.548572540283203 14.655237197875977 C10.612064361572266 14.69079303741455 10.675556182861328 14.726348876953125 10.73904800415039 14.7619047164917 L10.73904800415039 15.112380027770996 C10.308110237121582 15.363761901855469 10.400715827941895 14.899519920349121 10.548572540283203 14.655237197875977 L10.548572540283203 14.655237197875977"></path>
<path fill="none" stroke="black" stroke-width=".3" stroke-opacity="1.0"  filling="0" d="M9.367619514465332 14.883810043334961 L8.986666679382324 14.883810043334961 C9.066381454467773 14.784963607788086 9.287904739379883 14.784963607788086 9.367619514465332 14.883810043334961 L9.367619514465332 14.883810043334961"></path>
<path fill="none" stroke="black" stroke-width=".3" stroke-opacity="1.0"  filling="0" d="M11.500951766967773 14.883810043334961 L11.119998931884766 14.883810043334961 C11.199713706970215 14.784963607788086 11.421236991882324 14.784963607788086 11.500951766967773 14.883810043334961 L11.500951766967773 14.883810043334961"></path>
<path fill="none" stroke="black" stroke-width=".3" stroke-opacity="1.0"  filling="0" d="M9.459047317504883 14.90666675567627 L9.459047317504883 14.90666675567627 C9.453968048095703 14.921904563903809 9.44888973236084 14.937143325805664 9.44381046295166 14.952381134033203 L8.971428871154785 14.952381134033203 C9.061444282531738 15.066631317138672 9.230170249938965 15.182817459106445 9.367619514465332 15.135238647460938 L9.413333892822266 15.21142864227295 C8.722333908081055 15.441762924194336 8.784627914428711 14.090265274047852 9.459047317504883 14.90666675567627 L9.459047317504883 14.90666675567627"></path>
<path fill="none" stroke="black" stroke-width=".3" stroke-opacity="1.0"  filling="0" d="M11.59238052368164 14.90666675567627 L11.59238052368164 14.90666675567627 C11.587301254272461 14.921904563903809 11.582221031188965 14.937143325805664 11.577141761779785 14.952381134033203 L11.104761123657227 14.952381134033203 C11.19477653503418 15.066632270812988 11.363502502441406 15.182817459106445 11.500951766967773 15.135238647460938 L11.546667098999023 15.21142864227295 C10.855667114257812 15.441762924194336 10.917961120605469 14.090264320373535 11.59238052368164 14.90666675567627 L11.59238052368164 14.90666675567627"></path>
<path fill="none" stroke="black" stroke-width=".3" stroke-opacity="1.0"  filling="0" d="M17.961904525756836 14.921904563903809 L17.961904525756836 14.921904563903809 C17.89133071899414 15.038504600524902 17.715106964111328 15.171355247497559 17.596189498901367 15.104762077331543 L17.596189498901367 14.75428581237793 C17.713191986083984 14.688764572143555 17.889707565307617 14.808899879455566 17.961904525756836 14.921904563903809 L17.961904525756836 14.921904563903809"></path>
<path fill="none" stroke="black" stroke-width=".3" stroke-opacity="1.0"  filling="0" d="M18.06095314025879 14.921904563903809 L18.06095314025879 14.921904563903809 C17.956907272338867 15.073513984680176 17.76314353942871 15.296103477478027 17.596189498901367 15.219049453735352 L17.596189498901367 14.662857055664062 C17.757057189941406 14.588170051574707 17.959035873413086 14.776750564575195 18.06095314025879 14.921904563903809 L18.06095314025879 14.921904563903809"></path>
<path fill="none" stroke="black" stroke-width=".3" stroke-opacity="1.0"  filling="0" d="M5.0933332443237305 14.929523468017578 L5.0933332443237305 14.929523468017578 C4.5858964920043945 15.624900817871094 4.585896015167236 14.234148025512695 5.0933332443237305 14.929523468017578 L5.0933332443237305 14.929523468017578"></path>
<path fill="none" stroke="black" stroke-width=".3" stroke-opacity="1.0"  filling="0" d="M5.192381381988525 14.929523468017578 L5.192381381988525 14.929523468017578 C4.439019680023193 15.848258972167969 4.4542341232299805 14.043749809265137 5.192381381988525 14.929523468017578 L5.192381381988525 14.929523468017578"></path>
<path fill="none" stroke="black" stroke-width=".3" stroke-opacity="1.0"  filling="0" d="M16.095237731933594 14.929523468017578 L16.095237731933594 14.929523468017578 C15.587801933288574 15.624902725219727 15.587801933288574 14.234146118164062 16.095237731933594 14.929523468017578 L16.095237731933594 14.929523468017578"></path>
<path fill="none" stroke="black" stroke-width=".3" stroke-opacity="1.0"  filling="0" d="M16.194284439086914 14.929523468017578 L16.194284439086914 14.929523468017578 C15.440921783447266 15.848259925842285 15.456141471862793 14.04374885559082 16.194284439086914 14.929523468017578 L16.194284439086914 14.929523468017578"></path>
<path fill="none" stroke="black" stroke-width=".3" stroke-opacity="1.0"  filling="0" d="M18.441905975341797 14.929523468017578 L18.441905975341797 14.929523468017578 C18.502857208251953 14.942221641540527 18.56380844116211 14.954919815063477 18.624759674072266 14.967617988586426 L18.624759674072266 15.112380027770996 C18.376028060913086 15.241353988647461 18.15053939819336 15.167911529541016 18.441905975341797 14.929523468017578 L18.441905975341797 14.929523468017578"></path>
<path fill="none" stroke="black" stroke-width=".3" stroke-opacity="1.0"  filling="0" d="M15.470476150512695 15.14285659790039 L15.470476150512695 15.14285659790039 C14.59093189239502 15.582627296447754 14.613672256469727 14.055407524108887 15.46285629272461 14.479999542236328 L15.379047393798828 14.540952682495117 C14.756417274475098 14.197434425354004 14.7327299118042 15.423349380493164 15.394286155700684 15.081904411315918 L15.470476150512695 15.14285659790039"></path></svg>