<svg xmlns="http://www.w3.org/2000/svg" viewBox="0.0 0.0 24.0 24.0" height="200px" width="200px"><path fill="none" stroke="black" stroke-width=".3" stroke-opacity="1.0"  filling="0" d="M-0.090179443359375 6.772540092468262 L0.03029155731201172 6.772540092468262 C0.10962168872356415 6.850963592529297 0.18895180523395538 6.929387092590332 0.2682819366455078 7.007810592651367 L0.2682819366455078 7.415376663208008 C0.2526254653930664 7.456206798553467 0.236968994140625 7.497037410736084 0.2213125228881836 7.537867546081543 L-0.046357154846191406 7.85670280456543 C-0.053544044494628906 7.876412391662598 -0.060730934143066406 7.896121978759766 -0.0679178237915039 7.915831565856934 L-0.0679178237915039 8.170137405395508 C-0.05684630200266838 8.181079864501953 -0.04577477648854256 8.192022323608398 -0.03470325469970703 8.202964782714844 L-0.025185585021972656 8.202964782714844 C-0.014113426208496094 8.192022323608398 -0.0030412673950195312 8.181079864501953 0.008030891418457031 8.170137405395508 L0.2682819366455078 7.863346099853516 L0.2682819366455078 8.190339088439941 C0.18893876671791077 8.26877498626709 0.10959561914205551 8.347211837768555 0.030252456665039062 8.425647735595703 L-0.090179443359375 8.425647735595703 C-0.2551805078983307 8.262478828430176 -0.3078508675098419 7.988107204437256 -0.2846975326538086 7.7572102546691895 L-0.013724327087402344 7.434412479400635 C-0.0064725871197879314 7.414664268493652 0.0007791514508426189 7.39491605758667 0.008030891418457031 7.3751678466796875 L0.008030891418457031 7.02808952331543 C-0.0030282335355877876 7.017121315002441 -0.014087359420955181 7.006152629852295 -0.025146484375 6.995184421539307 L-0.034664154052734375 6.995184421539307 C-0.04574871063232422 7.006152629852295 -0.05683326721191406 7.017121315002441 -0.0679178237915039 7.02808952331543 L-0.06788063049316406 7.431732177734375 L-0.32812976837158203 7.431732177734375 L-0.32812976837158203 7.007810592651367 C-0.24881300330162048 6.929387092590332 -0.16949620842933655 6.850963592529297 -0.090179443359375 6.772540092468262 L-0.090179443359375 6.772540092468262"></path>
<path fill="none" stroke="black" stroke-width=".3" stroke-opacity="1.0"  filling="0" d="M-1.8960027694702148 6.795228004455566 L-1.6124820709228516 6.795228004455566 L-1.5141944885253906 7.502359390258789 L-1.4159049987792969 6.795228004455566 L-1.1324224472045898 6.795228004455566 L-0.9395771026611328 8.404436111450195 L-1.2870807647705078 7.516151428222656 L-1.3888273239135742 8.404436111450195 L-1.6395606994628906 8.404436111450195 L-1.7413053512573242 7.516151428222656 L-1.8215293884277344 8.404436111450195 L-2.088810920715332 8.404436111450195 L-1.8960027694702148 6.795228004455566"></path>
<path fill="none" stroke="black" stroke-width=".3" stroke-opacity="1.0"  filling="0" d="M-0.40248680114746094 6.795228004455566 L-0.8976192474365234 6.795228004455566 L-0.40248680114746094 8.404436111450195 L-0.6207809448242188 7.020397663116455 L-0.40248680114746094 6.795228004455566"></path>
<path fill="none" stroke="black" stroke-width=".3" stroke-opacity="1.0"  filling="0" d="M0.45017337799072266 6.795228004455566 L0.7270126342773438 6.795228004455566 L0.872502326965332 8.404436111450195 L0.3046445846557617 8.404436111450195 L0.45017337799072266 6.795228004455566"></path>
<path fill="none" stroke="black" stroke-width=".3" stroke-opacity="1.0"  filling="0" d="M0.923161506652832 6.795228004455566 L1.2000007629394531 6.795228004455566 L1.4183320999145508 8.404436111450195 L0.923161506652832 8.404436111450195 L0.923161506652832 6.795228004455566"></path>
<path fill="none" stroke="black" stroke-width=".3" stroke-opacity="1.0"  filling="0" d="M1.3719854354858398 6.795228004455566 L1.828073501586914 7.18333101272583 L2.108098030090332 6.795228004455566 L1.9273719787597656 8.404436111450195 L1.5526723861694336 8.404436111450195 L1.3719854354858398 6.795228004455566"></path>
<path fill="none" stroke="black" stroke-width=".3" stroke-opacity="1.0"  filling="0" d="M1.6720561981201172 7.408577919006348 L1.7400026321411133 8.17060375213623"></path></svg>