<svg xmlns="http://www.w3.org/2000/svg" viewBox="0.0 0.0 24.0 24.0" height="200px" width="200px"><path fill="none" stroke="black" stroke-width=".3" stroke-opacity="1.0"  filling="0" d="M11.943284034729004 10.54233169555664 L13.4752197265625 10.542684555053711 L13.111774444580078 11.120686531066895 L12.026031494140625 11.120333671569824 C10.934556007385254 11.842657089233398 13.327932357788086 11.319546699523926 12.917418479919434 12.76523208618164 L12.917418479919434 12.76523208618164 C12.667298316955566 13.230073928833008 12.373499870300293 13.37670612335205 11.85953426361084 13.45572566986084 L10.32795238494873 13.455018043518066 L10.492094993591309 12.870595932006836 C10.895304679870605 12.870595932006836 12.434232711791992 13.169454574584961 12.063019752502441 12.287117004394531 L11.310155868530273 12.286527633666992 C10.620430946350098 12.008212089538574 10.695725440979004 11.900846481323242 10.885398864746094 11.23288345336914 L10.885398864746094 11.23288345336914 C11.135653495788574 10.767788887023926 11.429056167602539 10.62147045135498 11.943284034729004 10.54233169555664 L11.943284034729004 10.54233169555664"></path>
<path fill="none" stroke="black" stroke-width=".3" stroke-opacity="1.0"  filling="0" d="M6.887558460235596 10.543922424316406 L6.050945281982422 13.456903457641602 L7.747200012207031 10.544334411621094 L6.887558460235596 10.543922424316406"></path>
<path fill="none" stroke="black" stroke-width=".3" stroke-opacity="1.0"  filling="0" d="M8.232324600219727 10.543980598449707 L10.675141334533691 10.54427433013916 L8.927412033081055 11.122218132019043 L8.758970260620117 11.705638885498047 L10.343500137329102 11.705638885498047 L10.174764633178711 12.288471221923828 L8.59182357788086 12.289413452148438 L8.425738334655762 12.873187065124512 L10.008913040161133 12.872186660766602 L9.842473983764648 13.457609176635742 L7.394826889038086 13.457609176635742 L8.232324600219727 10.543980598449707"></path>
<path fill="none" stroke="black" stroke-width=".3" stroke-opacity="1.0"  filling="0" d="M19.612445831298828 10.543980598449707 L17.168685913085938 10.543980598449707 L16.332073211669922 13.45666790008545 L18.780366897583008 13.457374572753906 L18.946218490600586 12.87230396270752 L17.364280700683594 12.87230396270752 L17.53272247314453 12.288530349731445 L19.114953994750977 12.288530349731445 L19.283689498901367 11.705404281616211 L17.698806762695312 11.705404281616211 L17.865009307861328 11.12162971496582 L19.452131271362305 11.12162971496582"></path>
<path fill="none" stroke="black" stroke-width=".3" stroke-opacity="1.0"  filling="0" d="M16.678674697875977 10.54427433013916 L15.80707836151123 10.544687271118164 L15.472196578979492 11.706050872802734 L14.50424575805664 11.705403327941895 L14.836122512817383 10.544628143310547 L13.96711540222168 10.544628143310547 L13.134153366088867 13.456314086914062 L14.000864028930664 13.457609176635742 L14.335390090942383 12.288471221923828 L15.30793571472168 12.288471221923828 L14.976646423339844 13.45666790008545 L16.678674697875977 10.54427433013916"></path>
<path fill="none" stroke="black" stroke-width=".3" stroke-opacity="1.0"  filling="0" d="M20.958803176879883 10.544628143310547 L20.104402542114258 10.544981956481934 L19.467445373535156 12.76711654663086 C19.449567794799805 13.257966995239258 19.66836166381836 13.379719734191895 20.128726959228516 13.45766830444336 L21.100624084472656 13.45766830444336 C21.614198684692383 13.378044128417969 21.908552169799805 13.231654167175293 22.15850830078125 12.76711654663086 L21.942363739013672 10.544922828674316 L21.34339141845703 12.61392879486084 C21.250713348388672 12.74327564239502 21.096439361572266 12.834100723266602 20.941957473754883 12.872245788574219 L20.611553192138672 12.872598648071289 C20.496286392211914 12.838945388793945 20.377544403076172 12.732889175415039 20.360774993896484 12.613987922668457 L20.958803176879883 10.544628143310547"></path>
<path fill="none" stroke="black" stroke-width=".3" stroke-opacity="1.0"  filling="0" d="M5.759646415710449 12.76711654663086 L5.759646415710449 12.76711654663086 C5.50959587097168 13.231409072875977 5.215301990509033 13.37813949584961 4.7018208503723145 13.457315444946289 L1.8913183212280273 13.45766830444336 C1.4327419996261597 13.380037307739258 1.2085912227630615 13.257244110107422 1.2264442443847656 12.76711654663086 L1.8669939041137695 10.545276641845703 L2.721040725708008 10.544981956481934 L2.12042236328125 12.619464874267578 C2.137176275253296 12.738300323486328 2.260324001312256 12.842283248901367 2.3764429092407227 12.872598648071289 L3.0244712829589844 12.872186660766602 L3.69747257232666 10.544628143310547 L4.566773414611816 10.544922828674316 L3.890533447265625 12.872245788574219 L4.54144811630249 12.872245788574219 C4.695302486419678 12.837337493896484 4.849835395812988 12.747806549072266 4.941585540771484 12.619464874267578 L5.543499946594238 10.545217514038086 L6.403789520263672 10.544628143310547 L5.759646892547607 12.76711654663086"></path></svg>