<svg xmlns="http://www.w3.org/2000/svg" viewBox="0.0 0.0 24.0 24.0" height="200px" width="200px"><path fill="none" stroke="black" stroke-width=".3" stroke-opacity="1.0"  filling="0" d="M13.625168800354004 9.865656852722168 L14.346501350402832 9.866460800170898 L14.346501350402832 13.63776683807373 L16.450761795043945 13.63776683807373 L18.95861053466797 9.866460800170898 L19.832792282104492 9.866460800170898 L22.671939849853516 14.134166717529297 L21.87405776977539 14.134166717529297 L19.39432144165039 10.39975357055664 L16.91834831237793 14.133161544799805 L13.625168800354004 14.133161544799805 L13.625168800354004 9.865656852722168"></path>
<path fill="none" stroke="black" stroke-width=".3" stroke-opacity="1.0"  filling="0" d="M5.189472675323486 9.866559982299805 L6.181114196777344 9.866559982299805 L7.775373935699463 13.600972175598145 L9.333992958068848 9.866559982299805 L10.042525291442871 9.866559982299805 L8.27107048034668 14.134316444396973 L7.279428958892822 14.134316444396973 L5.685169696807861 10.399904251098633 L4.091158866882324 14.134316444396973 L3.099264144897461 14.134316444396973 L1.3280611038208008 9.866560935974121 L2.0365915298461914 9.866560935974121 L3.5952138900756836 13.600972175598145 L5.189472675323486 9.866559982299805"></path>
<path fill="none" stroke="black" stroke-width=".3" stroke-opacity="1.0"  filling="0" d="M11.246779441833496 9.866586685180664 L11.95531177520752 9.866586685180664 L11.95531177520752 14.134343147277832 L11.246779441833496 14.134343147277832 L11.246779441833496 9.866586685180664"></path></svg>