<svg xmlns="http://www.w3.org/2000/svg" viewBox="0.0 0.0 24.0 24.0" height="200px" width="200px"><path fill="none" stroke="black" stroke-width=".3" stroke-opacity="1.0"  filling="0" d="M10.439936637878418 18.745351791381836 L10.439936637878418 18.745351791381836 C10.719520568847656 19.024930953979492 10.160456657409668 19.02496910095215 10.439936637878418 18.745351791381836 L10.439936637878418 18.745351791381836"></path>
<path fill="none" stroke="black" stroke-width=".3" stroke-opacity="1.0"  filling="0" d="M10.768427848815918 18.762157440185547 L10.801713943481445 19.597763061523438 C10.82020378112793 19.621362686157227 10.838692665100098 19.644960403442383 10.857182502746582 19.668560028076172 L10.788918495178223 19.834178924560547 C10.727193832397461 19.759397506713867 10.6654691696167 19.684616088867188 10.603744506835938 19.609834671020508 L10.768427848815918 18.762157440185547"></path>
<path fill="none" stroke="black" stroke-width=".3" stroke-opacity="1.0"  filling="0" d="M11.437387466430664 19.040674209594727 L11.437387466430664 19.040674209594727 C13.028459548950195 19.721757888793945 9.515030860900879 19.750431060791016 11.437387466430664 19.040674209594727 L11.437387466430664 19.040674209594727"></path>
<path fill="none" stroke="black" stroke-width=".3" stroke-opacity="1.0"  filling="0" d="M10.30639934539795 19.049213409423828 L10.30639934539795 19.049213409423828 C10.36844539642334 19.12371253967285 10.430492401123047 19.198213577270508 10.492538452148438 19.27271270751953 L10.384801864624023 19.834632873535156 L10.294629096984863 19.285629272460938 C10.276029586791992 19.262130737304688 10.257429122924805 19.238632202148438 10.238829612731934 19.215133666992188 L9.896306991577148 19.834148406982422 L9.656872749328613 19.341821670532227 L9.226139068603516 19.834148406982422 L9.14354133605957 19.04969596862793 L9.377663612365723 19.53447914123535 L9.784345626831055 19.04969596862793 L9.851190567016602 19.53447914123535 L10.30639934539795 19.049213409423828"></path>
<path fill="none" stroke="black" stroke-width=".3" stroke-opacity="1.0"  filling="0" d="M11.403104782104492 19.21682357788086 L11.403104782104492 19.21682357788086 C12.298483848571777 19.581153869628906 10.31908130645752 19.603588104248047 11.403104782104492 19.21682357788086 L11.403104782104492 19.21682357788086"></path></svg>