<svg xmlns="http://www.w3.org/2000/svg" viewBox="0.0 0.0 24.0 24.0" height="200px" width="200px"><path fill="none" stroke="black" stroke-width=".3" stroke-opacity="1.0"  filling="0" d="M1.400160789489746 8.66398811340332 L3.913240432739258 8.66398811340332 L4.465210914611816 9.216185569763184 L3.107999801635742 10.573394775390625 L3.107999801635742 12.884794235229492 L1.400160789489746 11.177068710327148 L1.400160789489746 8.66398811340332"></path>
<path fill="none" stroke="black" stroke-width=".3" stroke-opacity="1.0"  filling="0" d="M5.503975868225098 8.664102554321289 L8.016942024230957 8.664102554321289 L8.016942024230957 11.177068710327148 L7.464858531951904 11.729036331176758 L5.965091228485107 10.229384422302246 L5.965091228485107 13.22891902923584 L3.913240432739258 15.280882835388184 L1.400160789489746 15.280882835388184 L1.400160789489746 12.767803192138672 L1.952357292175293 12.215720176696777 L3.4521255493164062 13.715486526489258 L3.4521255493164062 10.715951919555664 L5.503975868225098 8.664102554321289"></path>
<path fill="none" stroke="black" stroke-width=".3" stroke-opacity="1.0"  filling="0" d="M6.3091020584106445 11.060077667236328 L8.016942024230957 12.767803192138672 L8.016942024230957 15.280882835388184 L5.503975868225098 15.280882835388184 L4.951892375946045 14.728686332702637 L6.3091020584106445 13.371476173400879 L6.3091020584106445 11.060077667236328"></path>
<path fill="none" stroke="black" stroke-width=".3" stroke-opacity="1.0"  filling="0" d="M21.272531509399414 11.928093910217285 L21.272531509399414 11.928093910217285 C21.27443504333496 11.928093910217285 21.276336669921875 11.928093910217285 21.278240203857422 11.928093910217285 L21.278240203857422 11.928093910217285 C22.24293327331543 11.928093910217285 22.407556533813477 12.33790111541748 22.58066177368164 12.89769172668457 L21.82940673828125 12.89769172668457 C21.200838088989258 11.43287467956543 20.66625213623047 13.815938949584961 20.743961334228516 14.261178970336914 C20.883522033691406 15.060800552368164 21.882484436035156 14.660974502563477 21.882484436035156 13.962024688720703 L21.319671630859375 13.962024688720703 L21.319671630859375 13.35663890838623 L22.599834442138672 13.356639862060547 L22.599834442138672 13.812732696533203 C22.413209915161133 14.459080696105957 21.90227699279785 15.090716361999512 21.27583885192871 15.33601188659668 L21.272415161132812 15.33601188659668 C20.62006187438965 15.088113784790039 20.14810562133789 14.375404357910156 19.962800979614258 13.702589988708496 L19.962800979614258 13.630797386169434 C19.962800979614258 12.214092254638672 20.229089736938477 12.332786560058594 21.272531509399414 11.928093910217285 L21.272531509399414 11.928093910217285"></path>
<path fill="none" stroke="black" stroke-width=".3" stroke-opacity="1.0"  filling="0" d="M10.365436553955078 11.972264289855957 L10.882479667663574 11.972264289855957 L11.451683044433594 13.941707611083984 L11.938251495361328 11.972379684448242 L12.659258842468262 11.972379684448242 L11.772751808166504 15.280998229980469 L11.200580596923828 15.280998229980469 L10.624072074890137 13.378554344177246 L10.048019409179688 15.280998229980469 L9.474478721618652 15.280998229980469 L8.592195510864258 11.972378730773926 L9.314115524291992 11.972378730773926 L9.796460151672363 13.940567016601562 L10.365436553955078 11.972264289855957"></path>
<path fill="none" stroke="black" stroke-width=".3" stroke-opacity="1.0"  filling="0" d="M13.057256698608398 11.972264289855957 L13.758859634399414 11.972264289855957 L13.758859634399414 15.280997276306152 L13.057256698608398 15.280997276306152 L13.057256698608398 11.972264289855957"></path>
<path fill="none" stroke="black" stroke-width=".3" stroke-opacity="1.0"  filling="0" d="M19.14421272277832 12.23341178894043 L19.14421272277832 12.23341178894043 C19.25652503967285 12.521228790283203 19.36883544921875 12.80904483795166 19.48114776611328 13.096861839294434 L19.48114776611328 15.27985668182373 L18.784564971923828 15.27985668182373 L18.74130630493164 15.015056610107422 C18.42366600036621 15.141666412353516 16.30023765563965 15.53084659576416 16.900266647338867 14.294278144836426 C17.106517791748047 13.869227409362793 17.604114532470703 13.663858413696289 17.956039428710938 13.348649024963379 L18.770523071289062 13.148794174194336 C18.503982543945312 12.399426460266113 18.172712326049805 12.555376052856445 17.49834632873535 12.819735527038574 L17.027185440063477 12.352684020996094 C17.69063949584961 12.109763145446777 18.465192794799805 12.035416603088379 19.143409729003906 12.23341178894043 L19.143409729003906 12.23341178894043"></path>
<path fill="none" stroke="black" stroke-width=".3" stroke-opacity="1.0"  filling="0" d="M15.68549919128418 13.323653221130371 L15.68549919128418 13.323653221130371 C17.20939064025879 13.944174766540527 16.407819747924805 14.44124698638916 15.349478721618652 15.320261001586914 L15.341489791870117 15.320261001586914 C14.941286087036133 15.172452926635742 14.541081428527832 15.02464485168457 14.140877723693848 14.876836776733398 L14.596857070922852 14.412981986999512 C15.183755874633789 14.624406814575195 16.600263595581055 14.370596885681152 15.541802406311035 13.952550888061523 L15.147001266479492 13.898107528686523 C14.505074501037598 13.62151050567627 13.142752647399902 11.942588806152344 15.425610542297363 11.942588806152344 L15.425610542297363 11.942588806152344 C15.78160572052002 12.07205867767334 16.137601852416992 12.201529502868652 16.49359703063965 12.330999374389648 L16.050743103027344 12.769858360290527 C15.503589630126953 12.587120056152344 14.375868797302246 12.87921142578125 15.302001953125 13.269552230834961 L15.686074256896973 13.32468032836914"></path>
<path fill="none" stroke="black" stroke-width=".3" stroke-opacity="1.0"  filling="0" d="M18.07828140258789 13.882699966430664 L18.770753860473633 14.074222564697266 C18.66908836364746 14.381040573120117 18.381298065185547 14.640510559082031 18.07828140258789 14.752998352050781 L18.074859619140625 14.752998352050781 C17.440282821655273 14.530364036560059 17.40829849243164 14.07563304901123 18.07828140258789 13.882699966430664 L18.07828140258789 13.882699966430664"></path></svg>