<svg xmlns="http://www.w3.org/2000/svg" viewBox="0.0 0.0 24.0 24.0" height="200px" width="200px"><path fill="none" stroke="black" stroke-width=".3" stroke-opacity="1.0"  filling="0" d="M2.667365074157715 10.406635284423828 L3.2501649856567383 11.39496898651123 C3.372054100036621 11.600760459899902 3.493943214416504 11.806551933288574 3.6158323287963867 12.012343406677246 L3.8780479431152344 11.24312973022461 C3.963932514190674 10.96546459197998 4.049817085266113 10.687799453735352 4.135701656341553 10.410134315490723 L5.066071510314941 10.4085054397583 L5.8892927169799805 11.853743553161621 C5.728302955627441 12.337824821472168 5.5673136711120605 12.821905136108398 5.4063239097595215 13.305986404418945 L5.4063239097595215 13.305986404418945 C5.155649185180664 12.887425422668457 4.904973983764648 12.468863487243652 4.654299259185791 12.050302505493164 L4.647374153137207 12.050302505493164 C4.484076976776123 12.543588638305664 4.320779800415039 13.036874771118164 4.157482624053955 13.530160903930664 L3.1613264083862305 13.588241577148438 L1.2956018447875977 10.4085054397583 L2.667365074157715 10.406635284423828"></path>
<path fill="none" stroke="black" stroke-width=".3" stroke-opacity="1.0"  filling="0" d="M7.82704496383667 10.410778999328613 L6.806858539581299 13.593364715576172 L5.539525985717773 13.593364715576172 L6.550426483154297 10.412407875061035 L7.82704496383667 10.410778999328613"></path>
<path fill="none" stroke="black" stroke-width=".3" stroke-opacity="1.0"  filling="0" d="M8.22412109375 10.410802841186523 L8.694788932800293 10.410802841186523 L8.888742446899414 11.371850967407227 L9.07609748840332 10.410802841186523 L9.49886703491211 10.410802841186523 L9.68630313873291 11.38480281829834 L9.880256652832031 10.410802841186523 L10.353042602539062 10.410802841186523 L9.917238235473633 11.966580390930176 L9.450969696044922 11.966580390930176 L9.278765678405762 11.01880931854248 L9.115360260009766 11.966580390930176 L8.646892547607422 11.966580390930176 L8.22412109375 10.410802841186523"></path>
<path fill="none" stroke="black" stroke-width=".3" stroke-opacity="1.0"  filling="0" d="M19.350337982177734 10.807449340820312 L19.350337982177734 10.807449340820312 C19.529029846191406 10.954889297485352 19.70772361755371 11.10232925415039 19.886415481567383 11.24976921081543 L19.88642120361328 11.713920593261719 C19.903852462768555 11.798149108886719 19.92128562927246 11.882376670837402 19.938716888427734 11.966605186462402 L19.49851417541504 11.966605186462402 C19.49346351623535 11.931035041809082 19.48841094970703 11.895463943481445 19.483360290527344 11.859893798828125 L19.478878021240234 11.859893798828125 C17.898691177368164 12.44640827178955 19.86980438232422 10.676194190979004 19.16958236694336 11.177923202514648 L18.76864242553711 11.177923202514648 C18.962541580200195 11.054431915283203 19.15643882751465 10.930940628051758 19.350337982177734 10.807449340820312 L19.350337982177734 10.807449340820312"></path>
<path fill="none" stroke="black" stroke-width=".3" stroke-opacity="1.0"  filling="0" d="M16.497570037841797 10.807456970214844 L16.497570037841797 10.807456970214844 C16.539684295654297 10.813267707824707 16.581796646118164 10.819077491760254 16.623910903930664 10.824888229370117 L16.623910903930664 11.206114768981934 C16.448453903198242 11.177013397216797 16.30046272277832 11.378694534301758 16.192424774169922 11.519974708557129 L16.192424774169922 11.966612815856934 L15.761100769042969 11.966612815856934 L15.761096954345703 10.835722923278809 L16.179391860961914 11.016641616821289 C16.285451889038086 10.946913719177246 16.391510009765625 10.877184867858887 16.497570037841797 10.807456970214844 L16.497570037841797 10.807456970214844"></path>
<path fill="none" stroke="black" stroke-width=".3" stroke-opacity="1.0"  filling="0" d="M17.517303466796875 10.807456970214844 L17.517303466796875 10.807456970214844 C17.61899185180664 10.866270065307617 17.720680236816406 10.92508316040039 17.822368621826172 10.983896255493164 L17.822368621826172 10.983896255493164 C18.06513214111328 10.872868537902832 18.406166076660156 11.003262519836426 18.595979690551758 11.190963745117188 L18.595979690551758 11.966612815856934 L18.164575576782227 11.966612815856934 L18.164575576782227 11.354369163513184 C18.109634399414062 11.275763511657715 17.93293571472168 11.276564598083496 17.87686538696289 11.354369163513184 L17.87686538696289 11.966612815856934 L17.44546127319336 11.966612815856934 L17.44546127319336 11.354369163513184 C17.390518188476562 11.275762557983398 17.21381950378418 11.27656364440918 17.157747268676758 11.354369163513184 L17.157747268676758 11.966612815856934 L16.72626304626465 11.966612815856934 L16.72626495361328 10.835722923278809 L17.146831512451172 10.986095428466797 C17.270322799682617 10.926548957824707 17.39381217956543 10.867003440856934 17.517303466796875 10.807456970214844 L17.517303466796875 10.807456970214844"></path>
<path fill="none" stroke="black" stroke-width=".3" stroke-opacity="1.0"  filling="0" d="M20.904117584228516 10.807456970214844 L20.904117584228516 10.807456970214844 C21.03336524963379 10.93529224395752 21.16261100769043 11.063128471374512 21.291858673095703 11.190963745117188 L21.291858673095703 11.966612815856934 L20.86053466796875 11.966612815856934 L20.86053466796875 11.373920440673828 C20.80430793762207 11.285715103149414 20.611597061157227 11.287520408630371 20.5467586517334 11.369603157043457 L20.5467586517334 11.966612815856934 L20.11527442932129 11.966612815856934 L20.115270614624023 10.835722923278809 L20.53584098815918 10.979578971862793 C20.658599853515625 10.922204971313477 20.78135871887207 10.86483097076416 20.904117584228516 10.807456970214844 L20.904117584228516 10.807456970214844"></path>
<path fill="none" stroke="black" stroke-width=".3" stroke-opacity="1.0"  filling="0" d="M22.31648826599121 10.807456970214844 L22.31648826599121 10.807456970214844 C22.445791244506836 10.93529224395752 22.575092315673828 11.063128471374512 22.704395294189453 11.190963745117188 L22.704395294189453 11.966612815856934 L22.272907257080078 11.966612815856934 L22.272907257080078 11.373920440673828 C22.216703414916992 11.285699844360352 22.02398681640625 11.287534713745117 21.959129333496094 11.369603157043457 L21.959129333496094 11.966612815856934 L21.527645111083984 11.966612815856934 L21.527637481689453 10.835722923278809 L21.948211669921875 10.979578971862793 C22.07097053527832 10.922204971313477 22.193729400634766 10.86483097076416 22.31648826599121 10.807456970214844 L22.31648826599121 10.807456970214844"></path>
<path fill="none" stroke="black" stroke-width=".3" stroke-opacity="1.0"  filling="0" d="M12.532955169677734 10.807473182678223 L12.532955169677734 10.807473182678223 C12.898993492126465 11.269242286682129 13.159582138061523 12.306962966918945 12.216978073120117 11.842486381530762 L12.212578773498535 12.332622528076172 L11.781174659729004 12.332622528076172 L11.781169891357422 10.835739135742188 L12.20166301727295 10.959882736206055 C12.312093734741211 10.909079551696777 12.422524452209473 10.8582763671875 12.532955169677734 10.807473182678223 L12.532955169677734 10.807473182678223"></path>
<path fill="none" stroke="black" stroke-width=".3" stroke-opacity="1.0"  filling="0" d="M13.836369514465332 10.807473182678223 L13.836369514465332 10.807473182678223 C14.202409744262695 11.269244194030762 14.462996482849121 12.306962966918945 13.520392417907715 11.842486381530762 L13.51607894897461 12.332622528076172 L13.084593772888184 12.332622528076172 L13.084588050842285 10.835739135742188 L13.505158424377441 10.959882736206055 C13.615562438964844 10.909079551696777 13.72596549987793 10.8582763671875 13.836369514465332 10.807473182678223 L13.836369514465332 10.807473182678223"></path>
<path fill="none" stroke="black" stroke-width=".3" stroke-opacity="1.0"  filling="0" d="M15.002518653869629 10.807473182678223 L15.002518653869629 10.807473182678223 C15.216781616210938 11.037702560424805 15.431045532226562 11.267931938171387 15.645308494567871 11.498161315917969 L14.817282676696777 11.498161315917969 C14.917339324951172 11.598217010498047 15.088990211486816 11.6952486038208 15.218222618103027 11.637618064880371 L15.621359825134277 11.637618064880371 C14.679115295410156 12.21639347076416 14.132701873779297 11.67717170715332 15.002518653869629 10.807473182678223 L15.002518653869629 10.807473182678223"></path>
<path fill="none" stroke="black" stroke-width=".3" stroke-opacity="1.0"  filling="0" d="M10.368780136108398 10.835731506347656 L10.800185203552246 10.835731506347656 L10.800185203552246 11.428423881530762 C10.856412887573242 11.516629219055176 11.04910945892334 11.51489543914795 11.11396312713623 11.432823181152344 L11.11396312713623 10.835731506347656 L11.545448303222656 10.835731506347656 L11.54544734954834 11.966621398925781 L11.124876976013184 11.82276439666748 C10.887823104858398 11.933609962463379 10.554855346679688 11.795465469360352 10.368780136108398 11.611461639404297 L10.368780136108398 10.835731506347656"></path>
<path fill="none" stroke="black" stroke-width=".3" stroke-opacity="1.0"  filling="0" d="M15.04178237915039 11.0841064453125 L15.04178237915039 11.0841064453125 C15.10496711730957 11.147317886352539 15.16815185546875 11.210530281066895 15.23133659362793 11.273741722106934 L14.819482803344727 11.273741722106934 C14.893582344055176 11.210530281066895 14.967682838439941 11.147317886352539 15.04178237915039 11.0841064453125 L15.04178237915039 11.0841064453125"></path>
<path fill="none" stroke="black" stroke-width=".3" stroke-opacity="1.0"  filling="0" d="M12.197345733642578 11.402283668518066 L12.197345733642578 11.402283668518066 C12.671086311340332 10.699718475341797 12.671756744384766 12.100339889526367 12.197345733642578 11.402283668518066 L12.197345733642578 11.402283668518066"></path>
<path fill="none" stroke="black" stroke-width=".3" stroke-opacity="1.0"  filling="0" d="M13.500764846801758 11.402283668518066 L13.500764846801758 11.402283668518066 C13.974570274353027 10.699921607971191 13.975239753723145 12.100135803222656 13.500764846801758 11.402283668518066 L13.500764846801758 11.402283668518066"></path>
<path fill="none" stroke="black" stroke-width=".3" stroke-opacity="1.0"  filling="0" d="M19.472360610961914 11.458954811096191 L19.472360610961914 11.563547134399414 C19.14460563659668 11.883476257324219 19.106626510620117 11.576249122619629 19.472360610961914 11.458954811096191 L19.472360610961914 11.458954811096191"></path></svg>