<svg xmlns="http://www.w3.org/2000/svg" viewBox="0.0 0.0 24.0 24.0" height="200px" width="200px"><path fill="none" stroke="black" stroke-width=".3" stroke-opacity="1.0"  filling="0" d="M1.203312873840332 9.951458930969238 L4.510199546813965 9.951458930969238 L4.510199546813965 13.256871223449707 L1.203312873840332 13.256871223449707 L1.203312873840332 9.951458930969238"></path>
<path fill="none" stroke="black" stroke-width=".3" stroke-opacity="1.0"  filling="0" d="M20.5882568359375 11.355184555053711 L20.914535522460938 11.355184555053711 L20.914535522460938 11.808300018310547 C21.30148696899414 11.547511100769043 21.513093948364258 11.762628555297852 21.61748504638672 12.165205955505371 L21.61748504638672 12.861299514770508 L21.29118537902832 12.861299514770508 L21.29118537902832 12.22861385345459 C21.21031379699707 11.893006324768066 20.99074935913086 11.912174224853516 20.914535522460938 12.239624977111816 L20.914535522460938 12.861321449279785 L20.5882568359375 12.861321449279785 L20.5882568359375 11.355184555053711"></path>
<path fill="none" stroke="black" stroke-width=".3" stroke-opacity="1.0"  filling="0" d="M9.009771347045898 11.355290412902832 L9.583478927612305 11.714179992675781 L9.336112976074219 12.487096786499023 C9.388907432556152 12.660322189331055 9.434758186340332 12.63980484008789 9.60545825958252 12.602922439575195 L9.60545825958252 12.845964431762695 C9.290926933288574 12.930329322814941 9.127203941345215 12.882865905761719 9.009772300720215 12.563477516174316 L9.009771347045898 11.355290412902832"></path>
<path fill="none" stroke="black" stroke-width=".3" stroke-opacity="1.0"  filling="0" d="M9.806207656860352 11.355290412902832 L10.37995719909668 11.714179992675781 L10.132506370544434 12.487096786499023 C10.185420036315918 12.660292625427246 10.231117248535156 12.639805793762207 10.401873588562012 12.602922439575195 L10.401873588562012 12.845964431762695 C10.08735179901123 12.930295944213867 9.923579216003418 12.88292407989502 9.806207656860352 12.563477516174316 L9.806207656860352 11.355290412902832"></path>
<path fill="none" stroke="black" stroke-width=".3" stroke-opacity="1.0"  filling="0" d="M7.124011039733887 11.587322235107422 L7.124011039733887 11.587322235107422 C6.304813385009766 11.276700019836426 7.9273576736450195 11.264608383178711 7.124011039733887 11.587322235107422 L7.124011039733887 11.587322235107422"></path>
<path fill="none" stroke="black" stroke-width=".3" stroke-opacity="1.0"  filling="0" d="M7.68900728225708 11.587322235107422 L7.68900728225708 11.587322235107422 C6.869811534881592 11.276893615722656 8.492165565490723 11.264416694641113 7.68900728225708 11.587322235107422 L7.68900728225708 11.587322235107422"></path>
<path fill="none" stroke="black" stroke-width=".3" stroke-opacity="1.0"  filling="0" d="M18.002607345581055 11.587322235107422 L18.002607345581055 11.587322235107422 C17.181747436523438 11.27696704864502 18.807857513427734 11.265000343322754 18.002607345581055 11.587322235107422 L18.002607345581055 11.587322235107422"></path>
<path fill="none" stroke="black" stroke-width=".3" stroke-opacity="1.0"  filling="0" d="M17.074865341186523 11.68787670135498 L17.074865341186523 11.68787670135498 C17.160991668701172 11.722217559814453 17.247116088867188 11.75655746459961 17.333242416381836 11.790898323059082 L17.628849029541016 11.714179992675781 L17.628849029541016 12.784561157226562 C17.57457160949707 13.373095512390137 17.132680892944336 13.394365310668945 16.650075912475586 13.183000564575195 L16.757295608520508 12.946666717529297 C16.995569229125977 13.053905487060547 17.236167907714844 13.161381721496582 17.31136703491211 12.845986366271973 L17.31136703491211 12.778127670288086 C16.63334846496582 13.209609031677246 16.28428840637207 11.860919952392578 17.074865341186523 11.68787670135498 L17.074865341186523 11.68787670135498"></path>
<path fill="none" stroke="black" stroke-width=".3" stroke-opacity="1.0"  filling="0" d="M11.038419723510742 11.687897682189941 L11.038419723510742 11.687897682189941 C11.405938148498535 11.841107368469238 11.56453800201416 11.938650131225586 11.522395133972168 12.38192367553711 L10.823812484741211 12.38192367553711 C10.915889739990234 12.642810821533203 11.081295013427734 12.671111106872559 11.288106918334961 12.495702743530273 L11.485164642333984 12.708074569702148 C10.548352241516113 13.327742576599121 10.083337783813477 11.87431526184082 11.038419723510742 11.687897682189941 L11.038419723510742 11.687897682189941"></path>
<path fill="none" stroke="black" stroke-width=".3" stroke-opacity="1.0"  filling="0" d="M15.210848808288574 11.687897682189941 L15.210848808288574 11.687897682189941 C15.577695846557617 11.840827941894531 15.737975120544434 11.93886947631836 15.694696426391602 12.38192367553711 L14.996198654174805 12.38192367553711 C15.088336944580078 12.642618179321289 15.253705024719238 12.671292304992676 15.46044921875 12.495702743530273 L15.6575927734375 12.708074569702148 C14.720561981201172 13.327638626098633 14.25594711303711 11.874258995056152 15.210848808288574 11.687897682189941 L15.210848808288574 11.687897682189941"></path>
<path fill="none" stroke="black" stroke-width=".3" stroke-opacity="1.0"  filling="0" d="M22.312881469726562 11.687897682189941 L22.312881469726562 11.687897682189941 C22.67967987060547 11.840843200683594 22.839902877807617 11.938931465148926 22.796646118164062 12.38192367553711 L22.098146438598633 12.38192367553711 C22.19012451171875 12.642793655395508 22.35564422607422 12.671164512634277 22.5623779296875 12.495702743530273 L22.759456634521484 12.708074569702148 C21.822641372680664 13.327750205993652 21.3577880859375 11.874210357666016 22.312881469726562 11.687897682189941 L22.312881469726562 11.687897682189941"></path>
<path fill="none" stroke="black" stroke-width=".3" stroke-opacity="1.0"  filling="0" d="M8.655776977539062 11.687981605529785 L8.655776977539062 11.687981605529785 C8.698382377624512 11.69056510925293 8.741050720214844 11.694952011108398 8.782907485961914 11.703315734863281 L8.782907485961914 12.009745597839355 C8.56861400604248 11.95693588256836 8.443533897399902 11.986440658569336 8.408345222473145 12.222054481506348 L8.408345222473145 12.861215591430664 L8.090821266174316 12.861215591430664 L8.090821266174316 11.714264869689941 L8.395203590393066 11.825892448425293 C8.468607902526855 11.760552406311035 8.560739517211914 11.712990760803223 8.655776977539062 11.687981605529785 L8.655776977539062 11.687981605529785"></path>
<path fill="none" stroke="black" stroke-width=".3" stroke-opacity="1.0"  filling="0" d="M12.272529602050781 11.687981605529785 L12.272529602050781 11.687981605529785 C12.3768949508667 11.740519523620605 12.4812593460083 11.79305648803711 12.585624694824219 11.84559440612793 L12.585624694824219 11.84559440612793 C12.902088165283203 11.545869827270508 13.293498992919922 11.69487476348877 13.341243743896484 12.121373176574707 L13.341243743896484 12.861299514770508 L13.02585220336914 12.861299514770508 L13.02585220336914 12.211233139038086 C12.956093788146973 11.912308692932129 12.74819564819336 11.904319763183594 12.677614212036133 12.20673942565918 L12.677614212036133 12.861321449279785 L12.351273536682129 12.861321449279785 L12.351273536682129 12.202436447143555 C12.28087043762207 11.902449607849121 12.074118614196777 11.918136596679688 12.003119468688965 12.208996772766113 L12.003119468688965 12.86134147644043 L11.676904678344727 12.86134147644043 L11.676904678344727 11.714264869689941 L11.981245994567871 11.817180633544922 C12.066999435424805 11.754504203796387 12.168601989746094 11.709916114807129 12.272529602050781 11.687981605529785 L12.272529602050781 11.687981605529785"></path>
<path fill="none" stroke="black" stroke-width=".3" stroke-opacity="1.0"  filling="0" d="M16.414098739624023 11.687981605529785 L16.414098739624023 11.687981605529785 C16.45671272277832 11.69056510925293 16.499387741088867 11.694950103759766 16.54125213623047 11.703315734863281 L16.54125213623047 12.009745597839355 C16.326934814453125 11.956878662109375 16.20193099975586 11.986482620239258 16.1667537689209 12.222054481506348 L16.1667537689209 12.861215591430664 L15.84929370880127 12.861215591430664 L15.84929370880127 11.714264869689941 L16.153675079345703 11.825892448425293 C16.227027893066406 11.760560989379883 16.319107055664062 11.712992668151855 16.414098739624023 11.687981605529785 L16.414098739624023 11.687981605529785"></path>
<path fill="none" stroke="black" stroke-width=".3" stroke-opacity="1.0"  filling="0" d="M19.97592544555664 11.68800163269043 L19.97592544555664 11.68800163269043 C20.187397003173828 11.716373443603516 20.30621337890625 11.777628898620605 20.449016571044922 11.935347557067871 L20.243267059326172 12.134472846984863 C19.68630027770996 11.502157211303711 19.569215774536133 13.076149940490723 20.251956939697266 12.454169273376465 L20.44249725341797 12.651058197021484 C19.65901756286621 13.444677352905273 18.873870849609375 11.892868041992188 19.97592544555664 11.68800163269043 L19.97592544555664 11.68800163269043"></path>
<path fill="none" stroke="black" stroke-width=".3" stroke-opacity="1.0"  filling="0" d="M1.3836002349853516 11.713905334472656 L1.7278928756713867 11.713905334472656 L1.8857154846191406 12.47785758972168 L2.0561532974243164 11.713905334472656 L2.3546085357666016 11.713905334472656 L2.528273582458496 12.476339340209961 L2.6870040893554688 11.713905334472656 L3.0288286209106445 11.713905334472656 L3.1866941452026367 12.47785758972168 L3.357131004333496 11.713905334472656 L3.655545234680176 11.713905334472656 L3.829294204711914 12.476339340209961 L3.987179756164551 11.713905334472656 L4.329721927642822 11.713905334472656 L4.05191707611084 12.828056335449219 L3.6745500564575195 12.828056335449219 L3.503986358642578 12.078363418579102 L3.341480255126953 12.828056335449219 L3.11147403717041 12.726490020751953 C3.1327924728393555 12.666688919067383 3.154110908508301 12.606888771057129 3.175429344177246 12.547087669372559 L3.0688228607177734 12.547087669372559 C3.056349039077759 12.579002380371094 3.0438754558563232 12.610918045043945 3.0314016342163086 12.64283275604248 L2.924098014831543 12.521162986755371 C3.1746456623077393 12.031262397766113 2.549492835998535 12.180856704711914 2.7519731521606445 12.503317832946777 L2.7519731521606445 12.503317832946777 C2.694732904434204 12.604464530944824 2.5825209617614746 12.719897270202637 2.625051498413086 12.828056335449219 L2.3736143112182617 12.828056335449219 L2.2030935287475586 12.078363418579102 L2.0404176712036133 12.828056335449219 L1.661489486694336 12.828056335449219 L1.3836002349853516 11.713905334472656"></path>
<path fill="none" stroke="black" stroke-width=".3" stroke-opacity="1.0"  filling="0" d="M1.3836002349853516 11.713905334472656 L1.727829933166504 11.713905334472656 L1.8856744766235352 12.47794246673584 L2.0561532974243164 11.713905334472656 L2.3546085357666016 11.713905334472656 L2.528315544128418 12.476339340209961 L2.6870040893554688 11.713905334472656 L3.0287656784057617 11.713905334472656 L3.186652183532715 12.47794246673584 L3.3570899963378906 11.713905334472656 L3.6555871963500977 11.713905334472656 L3.829251289367676 12.476339340209961 L3.987179756164551 11.713905334472656 L4.3296589851379395 11.713905334472656 L4.05191707611084 12.828056335449219 L3.6745500564575195 12.828056335449219 L3.5039443969726562 12.078363418579102 L3.341437339782715 12.828056335449219 L3.111515998840332 12.726490020751953 C3.1328067779541016 12.666688919067383 3.154097557067871 12.606888771057129 3.1753883361816406 12.547087669372559 L3.0688228607177734 12.547087669372559 C3.056363105773926 12.579002380371094 3.043903350830078 12.610918045043945 3.0314435958862305 12.64283275604248 L2.924077033996582 12.521079063415527 C3.1745383739471436 12.03129768371582 2.549375057220459 12.180930137634277 2.751951217651367 12.503233909606934 L2.751951217651367 12.503233909606934 C2.694697618484497 12.604415893554688 2.5824427604675293 12.719883918762207 2.624988555908203 12.82807731628418 L2.373551368713379 12.82807731628418 L2.203113555908203 12.078384399414062 L2.040395736694336 12.82807731628418 L1.661489486694336 12.82807731628418 L1.3836002349853516 11.713905334472656"></path>
<path fill="none" stroke="black" stroke-width=".3" stroke-opacity="1.0"  filling="0" d="M5.235487937927246 11.714263916015625 L5.559550762176514 11.714263916015625 L5.708515167236328 12.386225700378418 L5.866169452667236 11.714263916015625 L6.14644193649292 11.714263916015625 L6.3084845542907715 12.386225700378418 L6.455212593078613 11.714263916015625 L6.774972438812256 11.714263916015625 L6.448673248291016 12.861321449279785 L6.168421745300293 12.861321449279785 L5.997583389282227 12.134578704833984 C5.942811012268066 12.376821517944336 5.888058662414551 12.61906909942627 5.83332633972168 12.861321449279785 L5.548708915710449 12.861321449279785 L5.235487937927246 11.714263916015625"></path>
<path fill="none" stroke="black" stroke-width=".3" stroke-opacity="1.0"  filling="0" d="M6.889721393585205 11.714264869689941 L7.224795818328857 11.714264869689941 L7.224795818328857 12.377535820007324 C7.250906944274902 12.692151069641113 7.516433238983154 12.688071250915527 7.583874702453613 12.373169898986816 L7.583874702453613 11.714264869689941 L7.910216808319092 11.714264869689941 L7.910216808319092 12.414745330810547 C7.708227634429932 12.978751182556152 6.982969760894775 13.111459732055664 6.889721393585205 12.43008041381836 L6.889721393585205 11.714264869689941"></path>
<path fill="none" stroke="black" stroke-width=".3" stroke-opacity="1.0"  filling="0" d="M17.836135864257812 11.714432716369629 L18.162729263305664 11.714432716369629 L18.162729263305664 12.862207412719727 L17.836135864257812 12.862207412719727 L17.836135864257812 11.714432716369629"></path>
<path fill="none" stroke="black" stroke-width=".3" stroke-opacity="1.0"  filling="0" d="M11.020828247070312 11.948446273803711 L11.020828247070312 11.948446273803711 C11.108343124389648 11.984152793884277 11.18345832824707 12.066847801208496 11.213540077209473 12.156452178955078 L10.823769569396973 12.156452178955078 C10.852523803710938 12.027185440063477 10.888696670532227 11.97563648223877 11.020828247070312 11.948446273803711 L11.020828247070312 11.948446273803711"></path>
<path fill="none" stroke="black" stroke-width=".3" stroke-opacity="1.0"  filling="0" d="M15.193277359008789 11.948446273803711 L15.193277359008789 11.948446273803711 C15.28077507019043 11.984170913696289 15.3558349609375 12.06686782836914 15.385948181152344 12.156452178955078 L14.996199607849121 12.156452178955078 C15.024883270263672 12.027177810668945 15.061186790466309 11.975607872009277 15.193277359008789 11.948446273803711 L15.193277359008789 11.948446273803711"></path>
<path fill="none" stroke="black" stroke-width=".3" stroke-opacity="1.0"  filling="0" d="M22.29522705078125 11.948446273803711 L22.29522705078125 11.948446273803711 C22.38272476196289 11.984170913696289 22.45778465270996 12.066868782043457 22.487895965576172 12.156452178955078 L22.098148345947266 12.156452178955078 C22.126834869384766 12.027175903320312 22.163131713867188 11.975608825683594 22.29522705078125 11.948446273803711 L22.29522705078125 11.948446273803711"></path>
<path fill="none" stroke="black" stroke-width=".3" stroke-opacity="1.0"  filling="0" d="M17.131877899169922 11.961524963378906 L17.131877899169922 11.961524963378906 C17.194990158081055 11.976119995117188 17.256359100341797 12.001813888549805 17.311363220214844 12.036027908325195 L17.311344146728516 12.526330947875977 C16.95704460144043 12.745169639587402 16.804492950439453 12.129072189331055 17.131877899169922 11.961524963378906 L17.131877899169922 11.961524963378906"></path>
<path fill="none" stroke="black" stroke-width=".3" stroke-opacity="1.0"  filling="0" d="M14.230812072753906 12.27685546875 L14.230812072753906 12.27685546875 C14.178696632385254 12.537276268005371 14.100262641906738 12.705398559570312 13.845280647277832 12.524200439453125 L13.845280647277832 12.042567253112793 C14.089264869689941 11.88145637512207 14.173730850219727 12.027535438537598 14.230812072753906 12.27685546875 L14.230812072753906 12.27685546875"></path>
<path fill="none" stroke="black" stroke-width=".3" stroke-opacity="1.0"  filling="0" d="M14.552680969238281 12.287697792053223 L14.552680969238281 12.287697792053223 C14.500662803649902 12.692744255065918 14.252333641052246 13.067776679992676 13.823554992675781 12.778148651123047 L13.525794982910156 12.861342430114746 L13.525794982910156 11.355290412902832 L13.84532356262207 11.355290412902832 L13.84532356262207 11.775604248046875 C14.294949531555176 11.52783203125 14.500929832458496 11.876935958862305 14.552680969238281 12.287697792053223 L14.552680969238281 12.287697792053223"></path>
<path fill="none" stroke="black" stroke-width=".3" stroke-opacity="1.0"  filling="0" d="M2.7853641510009766 12.357011795043945 L2.7853641510009766 12.357011795043945 C2.901467800140381 12.202105522155762 2.9330339431762695 12.319393157958984 2.8525257110595703 12.452482223510742 L2.8525257110595703 12.452482223510742 C2.8301384449005127 12.420659065246582 2.807751417160034 12.388834953308105 2.7853641510009766 12.357011795043945 L2.7853641510009766 12.357011795043945"></path>
<path fill="none" stroke="black" stroke-width=".3" stroke-opacity="1.0"  filling="0" d="M2.852505683898926 12.452566146850586 L2.852505683898926 12.452566146850586 C2.717963933944702 12.261026382446289 2.9974660873413086 12.213069915771484 2.852505683898926 12.452566146850586 L2.852505683898926 12.452566146850586"></path>
<path fill="none" stroke="black" stroke-width=".3" stroke-opacity="1.0"  filling="0" d="M19.28504180908203 12.513274192810059 L19.28504180908203 12.513274192810059 C19.191762924194336 12.995317459106445 18.67746925354004 12.936432838439941 18.32590675354004 12.749608039855957 L18.43097686767578 12.504477500915527 C19.527482986450195 12.992291450500488 18.321596145629883 12.226628303527832 18.35647201538086 12.051342010498047 C18.453794479370117 11.562201499938965 18.943878173828125 11.665738105773926 19.269704818725586 11.825849533081055 L19.131710052490234 12.051342010498047 C18.26711654663086 11.665879249572754 19.23702621459961 12.289719581604004 19.28504180908203 12.513274192810059 L19.28504180908203 12.513274192810059"></path>
<path fill="none" stroke="black" stroke-width=".3" stroke-opacity="1.0"  filling="0" d="M2.8221092224121094 12.586616516113281 L2.9698495864868164 12.754079818725586 C2.9299542903900146 12.780046463012695 2.890058755874634 12.806012153625488 2.850163459777832 12.831978797912598 L2.850163459777832 12.831978797912598 C2.7861392498016357 12.780233383178711 2.7804477214813232 12.657615661621094 2.8221092224121094 12.586616516113281 L2.8221092224121094 12.586616516113281"></path>
<path fill="none" stroke="black" stroke-width=".3" stroke-opacity="1.0"  filling="0" d="M2.733494758605957 12.737690925598145 L2.733494758605957 12.737690925598145 C2.763032913208008 12.687333106994629 2.7925710678100586 12.636974334716797 2.8221092224121094 12.586616516113281 L2.9698715209960938 12.754101753234863 C2.929976224899292 12.780068397521973 2.890080690383911 12.806034088134766 2.8501853942871094 12.832000732421875 L2.8501853942871094 12.832000732421875 C2.811288595199585 12.80056381225586 2.7723915576934814 12.76912784576416 2.733494758605957 12.737690925598145 L2.733494758605957 12.737690925598145"></path>
<path fill="none" stroke="black" stroke-width=".3" stroke-opacity="1.0"  filling="0" d="M10.674342155456543 13.333905220031738 L10.892072677612305 13.785669326782227 C10.901318550109863 13.830135345458984 10.910565376281738 13.874601364135742 10.919811248779297 13.9190673828125 L10.920845031738281 13.9190673828125 C10.93009090423584 13.876338005065918 10.939337730407715 13.833609580993652 10.948583602905273 13.79088020324707 L11.1837797164917 13.333905220031738 L11.316247940063477 13.794825553894043 C11.325479507446289 13.835592269897461 11.334712028503418 13.876358985900879 11.34394359588623 13.917125701904297 L11.344978332519531 13.917125701904297 C11.352867126464844 13.879473686218262 11.360755920410156 13.841821670532227 11.368644714355469 13.804169654846191 L11.582197189331055 13.3339262008667 L11.399503707885742 14.0269193649292 L11.150933265686035 13.560895919799805 C11.142369270324707 13.520852088928223 11.133806228637695 13.480809211730957 11.125242233276367 13.440765380859375 L11.124250411987305 13.440765380859375 C11.116044998168945 13.480422019958496 11.107839584350586 13.520078659057617 11.099634170532227 13.559735298156738 L10.857246398925781 14.0269193649292 L10.674342155456543 13.333905220031738"></path>
<path fill="none" stroke="black" stroke-width=".3" stroke-opacity="1.0"  filling="0" d="M5.527340888977051 13.40783977508545 L5.527340888977051 13.40783977508545 C5.6748456954956055 13.532474517822266 5.757791042327881 13.703495025634766 5.4616546630859375 13.681931495666504 L5.4616546630859375 13.408829689025879 C5.483550071716309 13.408499717712402 5.50544548034668 13.408169746398926 5.527340888977051 13.40783977508545 L5.527340888977051 13.40783977508545"></path>
<path fill="none" stroke="black" stroke-width=".3" stroke-opacity="1.0"  filling="0" d="M11.774211883544922 13.409906387329102 L11.774211883544922 13.409906387329102 C11.643213272094727 13.281148910522461 11.903458595275879 13.280460357666016 11.774211883544922 13.409906387329102 L11.774211883544922 13.409906387329102"></path>
<path fill="none" stroke="black" stroke-width=".3" stroke-opacity="1.0"  filling="0" d="M11.971417427062988 13.409906387329102 L11.971417427062988 13.409906387329102 C11.840328216552734 13.281157493591309 12.10068130493164 13.280440330505371 11.971417427062988 13.409906387329102 L11.971417427062988 13.409906387329102"></path>
<path fill="none" stroke="black" stroke-width=".3" stroke-opacity="1.0"  filling="0" d="M6.04791259765625 13.506304740905762 L6.04791259765625 13.506304740905762 C6.110905647277832 13.563145637512207 6.173898220062256 13.619985580444336 6.236891269683838 13.676826477050781 L6.236891269683838 13.880085945129395 C6.2375664710998535 13.929037094116211 6.238241195678711 13.977989196777344 6.238916397094727 14.02694034576416 L6.149627208709717 14.02694034576416 C6.151342868804932 13.993049621582031 6.153059005737305 13.959159851074219 6.1547746658325195 13.92526912689209 L6.152706623077393 13.92526912689209 C5.884106159210205 14.096729278564453 5.704024314880371 13.98918342590332 6.144501686096191 13.72713565826416 L6.144501686096191 13.689125061035156 C6.078920364379883 13.625409126281738 5.9666361808776855 13.59835433959961 5.878425121307373 13.62242603302002 L5.869185447692871 13.54323959350586 C5.928761005401611 13.530927658081055 5.98833703994751 13.518616676330566 6.04791259765625 13.506304740905762 L6.04791259765625 13.506304740905762"></path>
<path fill="none" stroke="black" stroke-width=".3" stroke-opacity="1.0"  filling="0" d="M7.438413143157959 13.506325721740723 L7.438413143157959 13.506325721740723 C7.48978328704834 13.560748100280762 7.541153907775879 13.615169525146484 7.59252405166626 13.669591903686523 L7.59252405166626 14.02694034576416 L7.499985694885254 13.69735050201416 C7.449977397918701 13.632019996643066 7.316513538360596 13.715127944946289 7.267974853515625 13.781557083129883 L7.264874458312988 13.516641616821289 C7.262125015258789 13.552233695983887 7.259376049041748 13.587824821472168 7.256626605987549 13.623416900634766 L7.2587361335754395 13.624408721923828 C7.318628311157227 13.585047721862793 7.378520965576172 13.545686721801758 7.438413143157959 13.506325721740723 L7.438413143157959 13.506325721740723"></path>
<path fill="none" stroke="black" stroke-width=".3" stroke-opacity="1.0"  filling="0" d="M10.175220489501953 13.506325721740723 L10.175220489501953 13.506325721740723 C10.2265625 13.560748100280762 10.277905464172363 13.615169525146484 10.32924747467041 13.669591903686523 L10.32924747467041 14.02694034576416 L10.236837387084961 13.69735050201416 C10.186817169189453 13.632003784179688 10.053327560424805 13.71512222290039 10.004762649536133 13.781557083129883 L10.001619338989258 13.516641616821289 C9.99891185760498 13.552233695983887 9.99620532989502 13.587824821472168 9.993497848510742 13.623416900634766 L9.995481491088867 13.624408721923828 C10.055394172668457 13.585047721862793 10.115307807922363 13.545686721801758 10.175220489501953 13.506325721740723 L10.175220489501953 13.506325721740723"></path>
<path fill="none" stroke="black" stroke-width=".3" stroke-opacity="1.0"  filling="0" d="M13.861964225769043 13.506325721740723 L13.861964225769043 13.506325721740723 C13.913370132446289 13.560748100280762 13.964775085449219 13.615169525146484 14.016180992126465 13.669591903686523 L14.016180992126465 14.02694034576416 L13.923727989196777 13.69735050201416 C13.873700141906738 13.631994247436523 13.740193367004395 13.715118408203125 13.691612243652344 13.781557083129883 L13.688552856445312 13.516641616821289 C13.685803413391113 13.552233695983887 13.68305492401123 13.587824821472168 13.680305480957031 13.623416900634766 L13.68228816986084 13.624408721923828 C13.742179870605469 13.585047721862793 13.802072525024414 13.545686721801758 13.861964225769043 13.506325721740723 L13.861964225769043 13.506325721740723"></path>
<path fill="none" stroke="black" stroke-width=".3" stroke-opacity="1.0"  filling="0" d="M6.668343544006348 13.50744342803955 L6.6641669273376465 13.597745895385742 C6.611123085021973 13.672361373901367 6.558079719543457 13.746977806091309 6.505035877227783 13.821593284606934 L6.501935005187988 13.516597747802734 C6.498152256011963 13.556971549987793 6.4943695068359375 13.597345352172852 6.490586757659912 13.63771915435791 L6.492696285247803 13.63771915435791 C6.551245212554932 13.594293594360352 6.609794616699219 13.55086898803711 6.668343544006348 13.50744342803955 L6.668343544006348 13.50744342803955"></path>
<path fill="none" stroke="black" stroke-width=".3" stroke-opacity="1.0"  filling="0" d="M8.543493270874023 13.50744342803955 L8.539401054382324 13.597745895385742 C8.486343383789062 13.672361373901367 8.4332857131958 13.746977806091309 8.380228042602539 13.821593284606934 L8.377126693725586 13.516597747802734 C8.37336540222168 13.556971549987793 8.369603157043457 13.597345352172852 8.36584186553955 13.63771915435791 L8.367952346801758 13.63771915435791 C8.42646598815918 13.594293594360352 8.484979629516602 13.55086898803711 8.543493270874023 13.50744342803955 L8.543493270874023 13.50744342803955"></path>
<path fill="none" stroke="black" stroke-width=".3" stroke-opacity="1.0"  filling="0" d="M14.445441246032715 13.50744342803955 L14.441306114196777 13.597745895385742 C14.388290405273438 13.672361373901367 14.335275650024414 13.746977806091309 14.282259941101074 13.821593284606934 L14.279032707214355 13.516597747802734 C14.275263786315918 13.556971549987793 14.27149486541748 13.597345352172852 14.267725944519043 13.63771915435791 L14.269899368286133 13.63771915435791 C14.328413009643555 13.594293594360352 14.386927604675293 13.55086898803711 14.445441246032715 13.50744342803955 L14.445441246032715 13.50744342803955"></path>
<path fill="none" stroke="black" stroke-width=".3" stroke-opacity="1.0"  filling="0" d="M9.180293083190918 13.516597747802734 L9.084758758544922 14.0269193649292 L8.797208786010742 13.516619682312012 L9.008737564086914 13.82064437866211 C9.018671989440918 13.852798461914062 9.028607368469238 13.8849515914917 9.038541793823242 13.917105674743652 L9.040567398071289 13.917105674743652 C9.050158500671387 13.885929107666016 9.059748649597168 13.854752540588379 9.069339752197266 13.823575973510742 L9.180293083190918 13.516597747802734"></path>
<path fill="none" stroke="black" stroke-width=".3" stroke-opacity="1.0"  filling="0" d="M11.669440269470215 13.51659870147705 L11.760839462280273 13.84616756439209 C11.81106185913086 13.911779403686523 11.945015907287598 13.828532218933105 11.993988037109375 13.761981964111328 L11.996013641357422 14.026898384094238 C11.998748779296875 13.991312980651855 12.001483917236328 13.955728530883789 12.004219055175781 13.920143127441406 L12.002193450927734 13.919046401977539 C11.908638000488281 13.980502128601074 11.745984077453613 13.955556869506836 11.669440269470215 13.873884201049805 L11.669440269470215 13.51659870147705"></path>
<path fill="none" stroke="black" stroke-width=".3" stroke-opacity="1.0"  filling="0" d="M7.944726467132568 13.575154304504395 L7.944726467132568 13.575154304504395 C7.9827375411987305 13.616927146911621 8.020748138427734 13.658699035644531 8.058759689331055 13.700471878051758 L7.820505619049072 13.700471878051758 C7.861912727355957 13.658699035644531 7.903319358825684 13.616927146911621 7.944726467132568 13.575154304504395 L7.944726467132568 13.575154304504395"></path>
<path fill="none" stroke="black" stroke-width=".3" stroke-opacity="1.0"  filling="0" d="M13.25617504119873 13.575154304504395 L13.25617504119873 13.575154304504395 C13.294185638427734 13.616927146911621 13.332197189331055 13.658699035644531 13.370207786560059 13.700471878051758 L13.131912231445312 13.700471878051758 C13.173333168029785 13.658699035644531 13.214754104614258 13.616927146911621 13.25617504119873 13.575154304504395 L13.25617504119873 13.575154304504395"></path>
<path fill="none" stroke="black" stroke-width=".3" stroke-opacity="1.0"  filling="0" d="M9.545658111572266 13.584372520446777 L9.545658111572266 13.584372520446777 C9.876704216003418 14.013917922973633 9.211356163024902 14.009151458740234 9.545658111572266 13.584372520446777 L9.545658111572266 13.584372520446777"></path>
<path fill="none" stroke="black" stroke-width=".3" stroke-opacity="1.0"  filling="0" d="M14.734846115112305 13.584372520446777 L14.734846115112305 13.584372520446777 C15.0658540725708 14.013801574707031 14.400867462158203 14.009236335754395 14.734846115112305 13.584372520446777 L14.734846115112305 13.584372520446777"></path>
<path fill="none" stroke="black" stroke-width=".3" stroke-opacity="1.0"  filling="0" d="M5.517068386077881 13.76404857635498 L5.517068386077881 13.76404857635498 C5.498597145080566 13.763360023498535 5.480125904083252 13.762670516967773 5.4616546630859375 13.761981964111328 L5.367112636566162 13.333905220031738 C5.794562816619873 13.32380485534668 5.846639156341553 13.480019569396973 5.517068386077881 13.76404857635498 L5.517068386077881 13.76404857635498"></path>
<path fill="none" stroke="black" stroke-width=".3" stroke-opacity="1.0"  filling="0" d="M8.150158882141113 13.766117095947266 L7.816370964050293 13.766117095947266 C7.89081335067749 13.856149673461914 8.012290954589844 13.953715324401855 8.126533508300781 13.929296493530273 L8.134781837463379 14.004328727722168 C7.219472408294678 14.17272663116455 8.19812297821045 13.069950103759766 8.150158882141113 13.766117095947266 L8.150158882141113 13.766117095947266"></path>
<path fill="none" stroke="black" stroke-width=".3" stroke-opacity="1.0"  filling="0" d="M13.461564064025879 13.766117095947266 L13.12788200378418 13.766117095947266 C13.20230484008789 13.85615062713623 13.323773384094238 13.953712463378906 13.438003540039062 13.929296493530273 L13.446187019348145 14.004328727722168 C12.530295372009277 14.172874450683594 13.510516166687012 13.070040702819824 13.461564064025879 13.766117095947266 L13.461564064025879 13.766117095947266"></path>
<path fill="none" stroke="black" stroke-width=".3" stroke-opacity="1.0"  filling="0" d="M6.144522666931152 13.791746139526367 L6.144522666931152 13.801068305969238 C5.966504096984863 14.009221076965332 5.817180156707764 13.943833351135254 6.144522666931152 13.791746139526367 L6.144522666931152 13.791746139526367"></path>
<path fill="none" stroke="black" stroke-width=".3" stroke-opacity="1.0"  filling="0" d="M6.951632976531982 14.035082817077637 L6.951632976531982 14.035082817077637 C6.906091690063477 13.984099388122559 6.860550880432129 13.933115005493164 6.815009593963623 13.882131576538086 L6.815009593963623 13.351370811462402 L7.050225734710693 13.516619682312012 L6.90744161605835 13.849309921264648 C6.9399614334106445 13.89688491821289 6.993095874786377 13.954341888427734 7.050225734710693 13.946784019470215 L7.050225734710693 14.024788856506348 C7.017361640930176 14.028220176696777 6.9844970703125 14.031651496887207 6.951632976531982 14.035082817077637 L6.951632976531982 14.035082817077637"></path>
<path fill="none" stroke="black" stroke-width=".3" stroke-opacity="1.0"  filling="0" d="M12.853622436523438 14.035082817077637 L12.853622436523438 14.035082817077637 C12.808053016662598 13.984099388122559 12.762482643127441 13.933115005493164 12.716913223266602 13.882131576538086 L12.716913223266602 13.351370811462402 L12.95217227935791 13.516619682312012 L12.809430122375488 13.849309921264648 C12.841930389404297 13.89688491821289 12.895052909851074 13.954339981079102 12.952171325683594 13.946784019470215 L12.952171325683594 14.024788856506348 C12.91932201385498 14.028220176696777 12.88647174835205 14.031651496887207 12.853622436523438 14.035082817077637 L12.853622436523438 14.035082817077637"></path>
<path fill="none" stroke="black" stroke-width=".3" stroke-opacity="1.0"  filling="0" d="M15.258605003356934 14.035082817077637 L15.258605003356934 14.035082817077637 C15.213119506835938 13.984099388122559 15.167634963989258 13.933115005493164 15.122149467468262 13.882131576538086 L15.122149467468262 13.351370811462402 L15.357239723205566 13.516619682312012 L15.214497566223145 13.849309921264648 C15.246991157531738 13.896888732910156 15.300121307373047 13.954338073730469 15.357239723205566 13.946784019470215 L15.357239723205566 14.024788856506348 C15.324361801147461 14.028220176696777 15.291482925415039 14.031651496887207 15.258605003356934 14.035082817077637 L15.258605003356934 14.035082817077637"></path>
<path fill="none" stroke="black" stroke-width=".3" stroke-opacity="1.0"  filling="0" d="M9.534393310546875 14.036052703857422 L9.534393310546875 14.036052703857422 C9.004199028015137 13.435171127319336 10.112204551696777 13.403739929199219 9.534393310546875 14.036052703857422 L9.534393310546875 14.036052703857422"></path>
<path fill="none" stroke="black" stroke-width=".3" stroke-opacity="1.0"  filling="0" d="M12.340073585510254 14.036052703857422 L12.340073585510254 14.036052703857422 C12.304122924804688 14.033000946044922 12.268172264099121 14.029950141906738 12.232221603393555 14.026898384094238 L12.235280990600586 13.944696426391602 C12.405423164367676 13.971135139465332 12.354703903198242 13.499551773071289 12.525931358337402 13.51767349243164 L12.523863792419434 13.594686508178711 C12.138300895690918 13.532726287841797 12.69868278503418 13.769134521484375 12.340073585510254 14.036052703857422 L12.340073585510254 14.036052703857422"></path>
<path fill="none" stroke="black" stroke-width=".3" stroke-opacity="1.0"  filling="0" d="M14.723645210266113 14.036052703857422 L14.723645210266113 14.036052703857422 C14.19353199005127 13.435155868530273 15.301321983337402 13.403776168823242 14.723645210266113 14.036052703857422 L14.723645210266113 14.036052703857422"></path></svg>