<svg xmlns="http://www.w3.org/2000/svg" viewBox="0.0 0.0 24.0 24.0" height="200px" width="200px"><path fill="none" stroke="black" stroke-width=".3" stroke-opacity="1.0"  filling="0" d="M14.926233291625977 7.8099684715271 L15.61648941040039 7.8099684715271 L18.051450729370117 14.332290649414062 L17.03797149658203 14.332290649414062 L16.366273880004883 12.412849426269531 L13.875465393066406 12.412849426269531 L13.175844192504883 14.332290649414062 L12.267374992370605 14.332290649414062 L14.926233291625977 7.8099684715271"></path>
<path fill="none" stroke="black" stroke-width=".3" stroke-opacity="1.0"  filling="0" d="M18.424503326416016 7.8099684715271 L20.448955535888672 7.8099684715271 C22.37920570373535 8.364272117614746 22.681482315063477 9.783796310424805 20.81281280517578 10.80091381072998 L20.81281280517578 10.819474220275879 C21.99635887145996 11.240257263183594 23.565933227539062 12.427002906799316 21.91244888305664 13.795369148254395 C21.466833114624023 14.164145469665527 20.812379837036133 14.153316497802734 20.262344360351562 14.332290649414062 L18.424503326416016 14.332290649414062 L18.424503326416016 7.8099684715271"></path>
<path fill="none" stroke="black" stroke-width=".3" stroke-opacity="1.0"  filling="0" d="M12.845765113830566 8.46209716796875 L10.532201766967773 8.46209716796875 L10.531365394592285 10.940366744995117 L12.565682411193848 10.940366744995117 L12.565682411193848 11.594003677368164 L10.531365394592285 11.594003677368164 L10.532201766967773 14.332121849060059 L9.627243041992188 14.332121849060059 L9.627243041992188 7.80996561050415 L12.845765113830566 7.80996561050415 L12.845765113830566 8.46209716796875"></path>
<path fill="none" stroke="black" stroke-width=".3" stroke-opacity="1.0"  filling="0" d="M19.329463958740234 8.462267875671387 L20.094465255737305 8.462267875671387 C21.54079818725586 9.601503372192383 21.479013442993164 10.012290954589844 19.777259826660156 10.605274200439453 L19.329463958740234 10.605274200439453 L19.329463958740234 8.462267875671387"></path>
<path fill="none" stroke="black" stroke-width=".3" stroke-opacity="1.0"  filling="0" d="M4.722042083740234 10.468828201293945 L2.0498056411743164 7.799768447875977 L3.2682886123657227 7.799768447875977 L4.722042083740234 9.28579330444336 L6.1757941246032715 7.799768447875977 L7.394110679626465 7.799768447875977 L4.722042083740234 10.468828201293945"></path>
<path fill="none" stroke="black" stroke-width=".3" stroke-opacity="1.0"  filling="0" d="M4.124250888824463 11.06611442565918 L1.4520149230957031 13.735007286071777 L1.4520149230957031 12.518196105957031 L2.9397106170654297 11.06611442565918 L1.4520149230957031 9.614033699035645 L1.4520149230957031 8.397222518920898 L4.124250888824463 11.06611442565918"></path>
<path fill="none" stroke="black" stroke-width=".3" stroke-opacity="1.0"  filling="0" d="M5.31999397277832 11.06611442565918 L7.99222993850708 8.397222518920898 L7.99222993850708 9.614202499389648 L6.504532814025879 11.06611442565918 L7.99222993850708 12.518196105957031 L7.99222993850708 13.734840393066406 L5.31999397277832 11.06611442565918"></path>
<path fill="none" stroke="black" stroke-width=".3" stroke-opacity="1.0"  filling="0" d="M4.722042083740234 11.663233757019043 L7.394277095794678 14.332292556762695 L6.1757941246032715 14.332292556762695 L4.722042083740234 12.846267700195312 L3.2682886123657227 14.332292556762695 L2.0499725341796875 14.332292556762695 L4.722042083740234 11.663233757019043"></path>
<path fill="none" stroke="black" stroke-width=".3" stroke-opacity="1.0"  filling="0" d="M16.15174102783203 11.760550498962402 L14.127455711364746 11.760550498962402 C14.483416557312012 10.77051830291748 14.8273286819458 9.776117324829102 15.162839889526367 8.778969764709473 L15.181568145751953 8.778969764709473 C15.496232032775879 9.775627136230469 15.818521499633789 10.769942283630371 16.15174102783203 11.760550498962402 L16.15174102783203 11.760550498962402"></path>
<path fill="none" stroke="black" stroke-width=".3" stroke-opacity="1.0"  filling="0" d="M19.329463958740234 13.680158615112305 L19.329463958740234 11.257573127746582 L20.057174682617188 11.257573127746582 C21.830768585205078 11.731751441955566 22.04804229736328 13.109264373779297 20.206329345703125 13.680158615112305 L19.329463958740234 13.680158615112305"></path>
<path fill="none" stroke="black" stroke-width=".3" stroke-opacity="1.0"  filling="0" d="M12.092134475708008 15.253637313842773 L12.092134475708008 15.253637313842773 C12.513100624084473 15.425374984741211 12.82050609588623 16.200231552124023 12.087118148803711 16.200231552124023 C11.3489990234375 16.200231552124023 11.66439437866211 15.420517921447754 12.092134475708008 15.253637313842773 L12.092134475708008 15.253637313842773"></path>
<path fill="none" stroke="black" stroke-width=".3" stroke-opacity="1.0"  filling="0" d="M2.6711692810058594 15.268853187561035 L2.7984180450439453 16.184345245361328 L2.6711692810058594 15.268853187561035"></path>
<path fill="none" stroke="black" stroke-width=".3" stroke-opacity="1.0"  filling="0" d="M6.747997283935547 15.268853187561035 L6.875246047973633 16.184345245361328 L6.747997283935547 15.268853187561035"></path>
<path fill="none" stroke="black" stroke-width=".3" stroke-opacity="1.0"  filling="0" d="M9.355522155761719 15.268853187561035 L9.781915664672852 16.184345245361328 L9.193157196044922 15.916303634643555 L8.979625701904297 16.184345245361328 L9.355522155761719 15.268853187561035"></path>
<path fill="none" stroke="black" stroke-width=".3" stroke-opacity="1.0"  filling="0" d="M15.636725425720215 15.268853187561035 L15.850255966186523 15.268853187561035 C16.22209930419922 15.35047721862793 16.191913604736328 15.459110260009766 16.011281967163086 15.771162033081055 L16.238861083984375 16.16193962097168 L15.763806343078613 15.805273056030273 L15.636725425720215 16.184345245361328 L15.636725425720215 15.268853187561035"></path>
<path fill="none" stroke="black" stroke-width=".3" stroke-opacity="1.0"  filling="0" d="M20.49042510986328 15.268853187561035 L20.703956604003906 15.268853187561035 C21.075725555419922 15.350461959838867 21.04540252685547 15.459131240844727 20.86498260498047 15.771162033081055 L21.092559814453125 16.16193962097168 L20.61750602722168 15.805273056030273 L20.49042510986328 16.184345245361328 L20.49042510986328 15.268853187561035"></path>
<path fill="none" stroke="black" stroke-width=".3" stroke-opacity="1.0"  filling="0" d="M4.585594177246094 15.268855094909668 L4.8158464431762695 15.268855094909668 C5.522693634033203 15.325101852416992 5.51350212097168 16.0587158203125 4.806817054748535 16.18434715270996 L4.585594177246094 16.18434715270996 L4.585594177246094 15.268855094909668"></path>
<path fill="none" stroke="black" stroke-width=".3" stroke-opacity="1.0"  filling="0" d="M14.647825241088867 15.268855094909668 L14.87807846069336 15.268855094909668 C15.58492660522461 15.325102806091309 15.575730323791504 16.0587158203125 14.869047164916992 16.18434715270996 L14.647825241088867 16.18434715270996 L14.647825241088867 15.268855094909668"></path>
<path fill="none" stroke="black" stroke-width=".3" stroke-opacity="1.0"  filling="0" d="M16.962055206298828 15.274539947509766 L16.523622512817383 16.18434715270996 L16.2475528717041 15.283402442932129 L16.59836769104004 15.711301803588867 L16.962055206298828 15.274539947509766"></path>
<path fill="none" stroke="black" stroke-width=".3" stroke-opacity="1.0"  filling="0" d="M11.475786209106445 15.360820770263672 L11.147212028503418 15.360820770263672 L11.46876335144043 15.76748275756836 L11.147212028503418 15.76748275756836 L11.019963264465332 16.184345245361328 L11.019963264465332 15.268853187561035 L11.475786209106445 15.360820770263672"></path>
<path fill="none" stroke="black" stroke-width=".3" stroke-opacity="1.0"  filling="0" d="M21.857559204101562 15.360820770263672 L21.564769744873047 15.360820770263672 L21.436180114746094 16.184345245361328 L21.436180114746094 15.360820770263672 L21.144062042236328 15.268853187561035 L21.857559204101562 15.360820770263672"></path>
<path fill="none" stroke="black" stroke-width=".3" stroke-opacity="1.0"  filling="0" d="M16.0291748046875 15.518000602722168 L16.0291748046875 15.518000602722168 C15.99770450592041 15.607505798339844 15.911233901977539 15.681839942932129 15.821495056152344 15.712636947631836 L15.846409797668457 15.360820770263672 C15.925334930419922 15.375899314880371 15.996548652648926 15.444570541381836 16.0291748046875 15.518000602722168 L16.0291748046875 15.518000602722168"></path>
<path fill="none" stroke="black" stroke-width=".3" stroke-opacity="1.0"  filling="0" d="M20.88287353515625 15.518000602722168 L20.88287353515625 15.518000602722168 C20.851402282714844 15.607504844665527 20.764934539794922 15.681839942932129 20.675195693969727 15.712636947631836 L20.700111389160156 15.360820770263672 C20.779035568237305 15.375899314880371 20.850248336791992 15.444570541381836 20.88287353515625 15.518000602722168 L20.88287353515625 15.518000602722168"></path>
<path fill="none" stroke="black" stroke-width=".3" stroke-opacity="1.0"  filling="0" d="M19.630279541015625 15.522851943969727 L19.630279541015625 15.522851943969727 C19.5667781829834 15.664496421813965 19.423877716064453 15.77640438079834 19.276790618896484 15.826009750366211 L19.276790618896484 15.74390697479248 C19.544496536254883 15.671639442443848 19.563451766967773 15.40735912322998 19.273109436035156 15.360821723937988 L19.27545166015625 15.268855094909668 C19.418424606323242 15.295613288879395 19.56231117248535 15.394251823425293 19.630279541015625 15.522851943969727 L19.630279541015625 15.522851943969727"></path>
<path fill="none" stroke="black" stroke-width=".3" stroke-opacity="1.0"  filling="0" d="M5.23889684677124 15.712472915649414 L5.23889684677124 15.712472915649414 C5.167398452758789 15.890586853027344 4.998093605041504 16.07723617553711 4.806817054748535 16.093048095703125 L4.81317138671875 15.360821723937988 C4.996363162994385 15.378674507141113 5.142556190490723 15.555641174316406 5.23889684677124 15.712472915649414 L5.23889684677124 15.712472915649414"></path>
<path fill="none" stroke="black" stroke-width=".3" stroke-opacity="1.0"  filling="0" d="M15.301127433776855 15.712472915649414 L15.301127433776855 15.712472915649414 C15.229629516601562 15.89058780670166 15.060323715209961 16.07723617553711 14.869047164916992 16.093048095703125 L14.875401496887207 15.360821723937988 C15.058592796325684 15.378674507141113 15.204787254333496 15.55564022064209 15.301127433776855 15.712472915649414 L15.301127433776855 15.712472915649414"></path>
<path fill="none" stroke="black" stroke-width=".3" stroke-opacity="1.0"  filling="0" d="M5.510283470153809 15.727518081665039 L5.834845066070557 15.82517147064209 L5.510283470153809 15.727518081665039"></path>
<path fill="none" stroke="black" stroke-width=".3" stroke-opacity="1.0"  filling="0" d="M12.405492782592773 15.729023933410645 L12.405492782592773 15.729023933410645 C11.876769065856934 17.376392364501953 11.882002830505371 14.072134017944336 12.405492782592773 15.729023933410645 L12.405492782592773 15.729023933410645"></path>
<path fill="none" stroke="black" stroke-width=".3" stroke-opacity="1.0"  filling="0" d="M13.437533378601074 15.787883758544922 L13.437533378601074 15.787883758544922 C13.396344184875488 16.31232261657715 12.744784355163574 16.30510139465332 12.729218482971191 15.77768325805664 L12.85579776763916 15.268853187561035 L12.85579776763916 15.780024528503418 C12.873477935791016 16.185077667236328 13.271477699279785 16.191932678222656 13.319314002990723 15.77768325805664 L13.437533378601074 15.268853187561035 L13.437533378601074 15.787883758544922"></path>
<path fill="none" stroke="black" stroke-width=".3" stroke-opacity="1.0"  filling="0" d="M9.519224166870117 15.825004577636719 L9.22710132598877 15.825004577636719 L9.379097938537598 15.431049346923828 L9.519224166870117 15.825004577636719"></path>
<path fill="none" stroke="black" stroke-width=".3" stroke-opacity="1.0"  filling="0" d="M6.545501708984375 15.95309066772461 L6.545501708984375 15.95309066772461 C6.405322074890137 16.2493953704834 6.280184745788574 16.210790634155273 5.986841678619385 16.113447189331055 L6.046871185302734 16.02850341796875 C6.9618988037109375 16.388322830200195 5.380455017089844 14.919594764709473 6.535468578338623 15.335906028747559 L6.46574068069458 15.410482406616211 C5.845544815063477 15.159466743469238 6.5047831535339355 15.803013801574707 6.545501708984375 15.95309066772461 L6.545501708984375 15.95309066772461"></path>
<path fill="none" stroke="black" stroke-width=".3" stroke-opacity="1.0"  filling="0" d="M22.52808380126953 15.95309066772461 L22.52808380126953 15.95309066772461 C22.387903213500977 16.2493953704834 22.262767791748047 16.210790634155273 21.969425201416016 16.113447189331055 L22.029457092285156 16.02850341796875 C22.944480895996094 16.388322830200195 21.363037109375 14.919594764709473 22.51805305480957 15.335906028747559 L22.448158264160156 15.410482406616211 C21.828121185302734 15.159271240234375 22.487424850463867 15.803218841552734 22.52808380126953 15.95309066772461 L22.52808380126953 15.95309066772461"></path>
<path fill="none" stroke="black" stroke-width=".3" stroke-opacity="1.0"  filling="0" d="M7.885214805603027 16.137022018432617 L7.885214805603027 16.137022018432617 C6.830760955810547 16.339866638183594 6.915037155151367 15.055436134338379 7.878693580627441 15.340919494628906 L7.825017929077148 15.417001724243164 C7.063117504119873 15.185587882995605 7.051828384399414 16.211360931396484 7.7567949295043945 16.075822830200195 L7.885214805603027 15.766143798828125 L7.885214805603027 16.137022018432617"></path>
<path fill="none" stroke="black" stroke-width=".3" stroke-opacity="1.0"  filling="0" d="M3.7391605377197266 16.172977447509766 L3.3306589126586914 15.772500991821289 L2.9689760208129883 16.172977447509766 L3.2661142349243164 15.687724113464355 L2.995060920715332 15.287248611450195 L3.342196464538574 15.589402198791504 L3.6548852920532227 15.274539947509766 L3.4035634994506836 15.672842979431152 L3.7391605377197266 16.172977447509766"></path>
<path fill="none" stroke="black" stroke-width=".3" stroke-opacity="1.0"  filling="0" d="M18.917949676513672 16.172977447509766 L18.50944709777832 15.772500991821289 L18.147764205932617 16.172977447509766 L18.444902420043945 15.687724113464355 L18.17384910583496 15.287248611450195 L18.520984649658203 15.589402198791504 L18.83367156982422 15.274539947509766 L18.582351684570312 15.672842979431152 L18.917949676513672 16.172977447509766"></path>
<path fill="none" stroke="black" stroke-width=".3" stroke-opacity="1.0"  filling="0" d="M2.4272069931030273 16.184345245361328 L2.299955368041992 15.651937484741211 C2.3025195598602295 15.575298309326172 2.3050835132598877 15.498659133911133 2.307647705078125 15.422019958496094 L2.307647705078125 15.422019958496094 C2.2788314819335938 15.489519119262695 2.2500152587890625 15.55701732635498 2.2211990356445312 15.624516487121582 L1.8889455795288086 16.184345245361328 L1.6300992965698242 15.624516487121582 C1.6029552221298218 15.55701732635498 1.5758110284805298 15.489519119262695 1.5486669540405273 15.422019958496094 L1.5486669540405273 15.422019958496094 C1.5512866973876953 15.498659133911133 1.5539064407348633 15.575298309326172 1.5565261840820312 15.651937484741211 L1.5565261840820312 16.184345245361328 L1.4530210494995117 15.268853187561035 L1.931920051574707 16.015962600708008 L2.4272069931030273 15.268853187561035 L2.4272069931030273 16.184345245361328"></path>
<path fill="none" stroke="black" stroke-width=".3" stroke-opacity="1.0"  filling="0" d="M4.420387268066406 16.184345245361328 L3.908212661743164 16.184345245361328 L3.908212661743164 15.268853187561035 L4.3640360832214355 15.268853187561035 L4.03546142578125 15.360820770263672 L4.35701322555542 15.750260353088379 L4.03546142578125 15.750260353088379 L4.03546142578125 16.093048095703125 L4.420387268066406 16.184345245361328"></path>
<path fill="none" stroke="black" stroke-width=".3" stroke-opacity="1.0"  filling="0" d="M8.850370407104492 16.184345245361328 L8.217132568359375 15.471683502197266 L8.113460540771484 16.184345245361328 L8.113460540771484 15.268853187561035 L8.745695114135742 15.98586368560791 L8.850370407104492 15.268853187561035 L8.850370407104492 16.184345245361328"></path>
<path fill="none" stroke="black" stroke-width=".3" stroke-opacity="1.0"  filling="0" d="M10.422677993774414 16.184345245361328 L9.91451644897461 16.184345245361328 L9.91451644897461 15.268853187561035 L10.041765213012695 16.093048095703125 L10.422677993774414 16.184345245361328"></path>
<path fill="none" stroke="black" stroke-width=".3" stroke-opacity="1.0"  filling="0" d="M14.403692245483398 16.184345245361328 L13.770455360412598 15.471683502197266 L13.66678237915039 16.184345245361328 L13.66678237915039 15.268853187561035 L14.299016952514648 15.98586368560791 L14.403692245483398 15.268853187561035 L14.403692245483398 16.184345245361328"></path>
<path fill="none" stroke="black" stroke-width=".3" stroke-opacity="1.0"  filling="0" d="M18.055965423583984 16.184345245361328 L17.543790817260742 16.184345245361328 L17.543790817260742 15.268853187561035 L17.99961280822754 15.268853187561035 L17.671039581298828 15.360820770263672 L17.992589950561523 15.750260353088379 L17.671039581298828 15.750260353088379 L17.671039581298828 16.093048095703125 L18.055965423583984 16.184345245361328"></path>
<path fill="none" stroke="black" stroke-width=".3" stroke-opacity="1.0"  filling="0" d="M20.32521629333496 16.184345245361328 L19.81304359436035 16.184345245361328 L19.81304359436035 15.268853187561035 L20.268863677978516 15.268853187561035 L19.940292358398438 15.360820770263672 L20.2618408203125 15.750260353088379 L19.940292358398438 15.750260353088379 L19.940292358398438 16.093048095703125 L20.32521629333496 16.184345245361328"></path></svg>