<svg xmlns="http://www.w3.org/2000/svg" viewBox="0.0 0.0 24.0 24.0" height="200px" width="200px"><path fill="none" stroke="black" stroke-width=".3" stroke-opacity="1.0"  filling="0" d="M11.927205085754395 9.942514419555664 L11.927205085754395 9.942514419555664 C11.955306053161621 9.97523307800293 11.983406066894531 10.007951736450195 12.011507034301758 10.040670394897461 L12.011507034301758 12.91089916229248 C12.06920337677002 12.962174415588379 12.126900672912598 13.013450622558594 12.18459701538086 13.064725875854492 L12.184807777404785 13.064725875854492 C12.206664085388184 13.065254211425781 12.228519439697266 13.065781593322754 12.250375747680664 13.066309928894043 L12.25393295288086 13.065993309020996 C12.275745391845703 13.087409973144531 12.29755687713623 13.10882568359375 12.319369316101074 13.130242347717285 L12.320108413696289 13.134200096130371 C12.346054077148438 13.262544631958008 12.19858455657959 13.405009269714355 12.072084426879883 13.438821792602539 L12.071714401245117 13.438848495483398 C11.903550148010254 13.265978813171387 11.735384941101074 13.093108177185059 11.567220687866211 12.920238494873047 L11.567220687866211 10.101462364196777 C11.596288681030273 10.070371627807617 11.625356674194336 10.03927993774414 11.654424667358398 10.00818920135498 L11.927205085754395 9.942514419555664"></path>
<path fill="none" stroke="black" stroke-width=".3" stroke-opacity="1.0"  filling="0" d="M21.543384552001953 10.80461311340332 L21.543384552001953 10.80461311340332 C22.577800750732422 11.25119686126709 23.543474197387695 13.453516960144043 21.543384552001953 13.45280647277832 C19.53172492980957 13.452092170715332 20.525218963623047 11.256010055541992 21.543384552001953 10.80461311340332 L21.543384552001953 10.80461311340332"></path>
<path fill="none" stroke="black" stroke-width=".3" stroke-opacity="1.0"  filling="0" d="M10.775891304016113 10.930741310119629 L10.775891304016113 10.930741310119629 C10.8634033203125 11.130084037780762 10.950916290283203 11.329427719116211 11.03842830657959 11.528770446777344 L11.03842830657959 12.868896484375 C9.721516609191895 14.504924774169922 7.776925086975098 11.752934455871582 10.589609146118164 11.773736000061035 L10.589609146118164 11.547347068786621 C10.311971664428711 10.97551441192627 9.816768646240234 11.230178833007812 9.242094039916992 11.316207885742188 L9.170062065124512 11.33309555053711 C9.161090850830078 11.334590911865234 9.152119636535645 11.336085319519043 9.143148422241211 11.337580680847168 L9.143043518066406 11.337580680847168 C9.115294456481934 11.316384315490723 9.087545394897461 11.295187950134277 9.059796333312988 11.273991584777832 L9.015996932983398 11.043111801147461 C9.383401870727539 10.574396133422852 10.296449661254883 10.844289779663086 10.775917053222656 10.930708885192871 L10.775917053222656 10.930708885192871"></path>
<path fill="none" stroke="black" stroke-width=".3" stroke-opacity="1.0"  filling="0" d="M18.962581634521484 11.174142837524414 L18.962581634521484 11.174142837524414 C19.160078048706055 11.199296951293945 19.357574462890625 11.224452018737793 19.555070877075195 11.249606132507324 L19.554834365844727 13.003854751586914 C19.3590087890625 13.030328750610352 19.163183212280273 13.056801795959473 18.967357635498047 13.08327579498291 L18.966934204101562 13.08327579498291 C18.73038673400879 12.765900611877441 18.258195877075195 12.526979446411133 18.257293701171875 12.131150245666504 C18.256389617919922 11.734877586364746 18.72748565673828 11.493144989013672 18.962581634521484 11.174142837524414 L18.962581634521484 11.174142837524414"></path>
<path fill="none" stroke="black" stroke-width=".3" stroke-opacity="1.0"  filling="0" d="M14.774923324584961 11.528765678405762 L14.774923324584961 12.868891716003418 C13.458028793334961 14.504892349243164 11.513442039489746 11.752960205078125 14.326104164123535 11.773730278015137 L14.326104164123535 11.547342300415039 C14.04869270324707 10.97545051574707 13.553263664245605 11.230195045471191 12.97872257232666 11.316203117370605 L12.906557083129883 11.333090782165527 C12.865422248840332 11.339945793151855 12.829447746276855 11.299281120300293 12.796292304992676 11.27398681640625 L12.752518653869629 11.043106079101562 C13.390563011169434 10.230624198913574 14.50538158416748 10.914627075195312 14.77497673034668 11.52873420715332 L14.77497673034668 11.52873420715332"></path>
<path fill="none" stroke="black" stroke-width=".3" stroke-opacity="1.0"  filling="0" d="M10.591930389404297 12.144579887390137 L10.591930389404297 13.000661849975586 C10.398374557495117 13.029773712158203 10.204817771911621 13.058886528015137 10.011261940002441 13.087998390197754 L10.011051177978516 13.087998390197754 C9.793193817138672 12.934038162231445 9.428775787353516 12.883182525634766 9.357479095458984 12.626117706298828 C9.304985046386719 12.436844825744629 9.629075050354004 12.34229564666748 9.764872550964355 12.200385093688965 L9.780571937561035 12.196955680847168 C10.051024436950684 12.179496765136719 10.321477890014648 12.162038803100586 10.591930389404297 12.144579887390137 L10.591930389404297 12.144579887390137"></path>
<path fill="none" stroke="black" stroke-width=".3" stroke-opacity="1.0"  filling="0" d="M14.328292846679688 12.144606590270996 L14.328292846679688 13.000687599182129 C14.134754180908203 13.029799461364746 13.941216468811035 13.05891227722168 13.74767780303955 13.088024139404297 L13.747466087341309 13.088024139404297 C13.529608726501465 12.934063911437988 13.165191650390625 12.883209228515625 13.093894958496094 12.626144409179688 C13.041400909423828 12.436871528625488 13.365490913391113 12.34232234954834 13.501288414001465 12.200411796569824 L13.517120361328125 12.196982383728027 C13.787528991699219 12.179523468017578 14.057937622070312 12.162065505981445 14.328346252441406 12.144606590270996 L14.328346252441406 12.144606590270996"></path>
<path fill="none" stroke="black" stroke-width=".3" stroke-opacity="1.0"  filling="0" d="M21.543384552001953 13.078658103942871 L21.543384552001953 13.078658103942871 C21.32090950012207 12.762866020202637 20.875961303710938 12.517572402954102 20.875961303710938 12.131282806396484 C20.875961303710938 11.74362564086914 21.15572738647461 11.179008483886719 21.543384552001953 11.178893089294434 C21.930932998657227 11.178777694702148 22.2108097076416 11.743337631225586 22.2108097076416 12.13088607788086 C22.2108097076416 12.51728343963623 21.765859603881836 12.762734413146973 21.543384552001953 13.078658103942871 L21.543384552001953 13.078658103942871"></path>
<path fill="none" stroke="black" stroke-width=".3" stroke-opacity="1.0"  filling="0" d="M19.67525863647461 13.358477592468262 L19.64807891845703 13.365337371826172 C19.41654396057129 13.39449405670166 19.18501091003418 13.423649787902832 18.953475952148438 13.45280647277832 L18.952739715576172 13.45280647277832 C17.141786575317383 12.778557777404785 17.549375534057617 10.647942543029785 19.555782318115234 10.876513481140137 L19.55483055114746 10.101568222045898 C19.586360931396484 10.070257186889648 19.61789321899414 10.038946151733398 19.649423599243164 10.007635116577148 L19.919218063354492 9.942461967468262 C19.945823669433594 9.975180625915527 19.972429275512695 10.007898330688477 19.999034881591797 10.040616989135742 L19.999034881591797 12.952930450439453 C19.891117095947266 13.088112831115723 19.783199310302734 13.223295211791992 19.675281524658203 13.358477592468262 L19.675281524658203 13.358477592468262"></path>
<path fill="none" stroke="black" stroke-width=".3" stroke-opacity="1.0"  filling="0" d="M8.451870918273926 13.392118453979492 L6.615431308746338 13.392118453979492 C6.579546928405762 13.356234550476074 6.5436625480651855 13.32034969329834 6.507778167724609 13.284465789794922 L6.507778167724609 13.060319900512695 C6.524488925933838 13.019862174987793 6.541199684143066 12.979403495788574 6.557910442352295 12.938945770263672 L8.019674301147461 11.239579200744629 L6.587462902069092 11.239579200744629 C6.551534175872803 11.203694343566895 6.515605926513672 11.167810440063477 6.479677200317383 11.131925582885742 L6.479677200317383 10.97308349609375 C6.515605926513672 10.937199592590332 6.551534175872803 10.901314735412598 6.587462902069092 10.86543083190918 L8.4425048828125 10.86543083190918 C8.478388786315918 10.901315689086914 8.514273643493652 10.937199592590332 8.55015754699707 10.973084449768066 L8.55015754699707 11.201847076416016 C8.534677505493164 11.239623069763184 8.519197463989258 11.277398109436035 8.503717422485352 11.315174102783203 L7.038392543792725 13.01797103881836 L8.451870918273926 13.01797103881836 C8.487754821777344 13.053854942321777 8.523639678955078 13.089739799499512 8.559523582458496 13.12562370300293 L8.559523582458496 13.284333229064941 C8.523639678955078 13.32026195526123 8.487754821777344 13.35619068145752 8.451870918273926 13.392119407653809 L8.451870918273926 13.392119407653809"></path>
<path fill="none" stroke="black" stroke-width=".3" stroke-opacity="1.0"  filling="0" d="M17.255435943603516 13.392119407653809 L17.02667236328125 13.392119407653809 C16.99074363708496 13.356234550476074 16.954814910888672 13.320350646972656 16.918886184692383 13.284465789794922 L16.918886184692383 11.556735038757324 C16.609533309936523 11.2689847946167 16.09565544128418 11.23963451385498 15.677574157714844 11.300530433654785 L15.677574157714844 13.284333229064941 C15.643228530883789 13.32026195526123 15.608882904052734 13.35619068145752 15.57453727722168 13.392119407653809 L15.341024398803711 13.392119407653809 C15.305139541625977 13.356234550476074 15.269255638122559 13.320350646972656 15.233370780944824 13.284465789794922 L15.233370780944824 11.346704483032227 C15.941877365112305 10.327986717224121 16.621522903442383 10.888299942016602 17.363086700439453 11.514649391174316 L17.363086700439453 13.284333229064941 C17.32720184326172 13.32026195526123 17.291316986083984 13.35619068145752 17.25543212890625 13.392119407653809 L17.25543212890625 13.392119407653809"></path>
<path fill="none" stroke="black" stroke-width=".3" stroke-opacity="1.0"  filling="0" d="M2.176788330078125 14.104119300842285 L2.176788330078125 14.104119300842285 C1.2941973209381104 13.910725593566895 1.4395835399627686 12.674930572509766 1.3262481689453125 12.001184463500977 L1.3262481689453125 11.998809814453125 C1.3934204578399658 11.599457740783691 1.3544518947601318 10.39665412902832 1.8883934020996094 9.95893669128418 C2.4338173866271973 9.51180648803711 3.2751307487487793 10.245668411254883 3.935917854309082 10.492191314697266 L3.9380292892456055 10.493246078491211 C4.481903076171875 10.942300796508789 5.423540115356445 11.294696807861328 5.423540115356445 11.99999713897705 C5.423540115356445 12.70529842376709 4.481875419616699 13.057661056518555 3.9380292892456055 13.506749153137207 L3.935917854309082 13.507941246032715 C3.3558194637298584 13.724310874938965 2.7935752868652344 14.050237655639648 2.176788330078125 14.104125022888184 L2.176788330078125 14.104125022888184"></path></svg>