<svg xmlns="http://www.w3.org/2000/svg" viewBox="0.0 0.0 24.0 24.0" height="200px" width="200px"><path fill="none" stroke="black" stroke-width=".3" stroke-opacity="1.0"  filling="0" d="M11.797110557556152 7.895107269287109 L11.98082160949707 7.840906143188477 C14.44803524017334 7.338776588439941 16.864116668701172 7.223416805267334 19.375635147094727 7.13845157623291 L19.970401763916016 7.127893924713135 L19.07297134399414 7.668457508087158 C16.6812686920166 7.565086364746094 14.36271858215332 7.619489669799805 11.98082160949707 7.862730503082275 L11.797110557556152 7.895107269287109"></path>
<path fill="none" stroke="black" stroke-width=".3" stroke-opacity="1.0"  filling="0" d="M11.797110557556152 8.489876747131348 L11.98082160949707 8.435676574707031 C14.449281692504883 7.949139595031738 16.865171432495117 7.82394552230835 19.375635147094727 7.743776321411133 L19.970401763916016 7.733224868774414 L19.07297134399414 8.273794174194336 C16.681045532226562 8.170576095581055 14.362574577331543 8.219114303588867 11.98082160949707 8.468052864074707 L11.797110557556152 8.489876747131348"></path>
<path fill="none" stroke="black" stroke-width=".3" stroke-opacity="1.0"  filling="0" d="M20.078092575073242 9.138833999633789 L20.12173080444336 9.138833999633789 C20.17569351196289 9.200069427490234 20.229656219482422 9.261305809020996 20.283618927001953 9.322541236877441 L20.013336181640625 9.571015357971191 L20.078092575073242 9.138833999633789"></path>
<path fill="none" stroke="black" stroke-width=".3" stroke-opacity="1.0"  filling="0" d="M20.26250648498535 10.241090774536133 L20.26250648498535 11.874055862426758 C20.26954460144043 11.935296058654785 20.276580810546875 11.996537208557129 20.283618927001953 12.057777404785156 L19.786693572998047 12.209108352661133 L19.840187072753906 10.446622848510742 C19.966413497924805 10.378111839294434 20.092639923095703 10.309601783752441 20.2188663482666 10.241090774536133 L20.26250648498535 10.241090774536133"></path>
<path fill="none" stroke="black" stroke-width=".3" stroke-opacity="1.0"  filling="0" d="M12.305301666259766 10.338926315307617 L12.489009857177734 10.381869316101074 C12.539453506469727 10.450380325317383 12.589897155761719 10.518890380859375 12.640340805053711 10.587401390075684 L12.62907886505127 10.749283790588379 C12.611248016357422 10.76382827758789 12.593417167663574 10.778373718261719 12.575586318969727 10.79291820526123 L11.894243240356445 10.79291820526123 L12.305301666259766 10.338926315307617"></path>
<path fill="none" stroke="black" stroke-width=".3" stroke-opacity="1.0"  filling="0" d="M17.818683624267578 10.338926315307617 L18.056591033935547 10.424797058105469 C18.074657440185547 10.442864418029785 18.092721939086914 10.460930824279785 18.110788345336914 10.478998184204102 L18.132606506347656 10.760540962219238 C18.107267379760742 10.771333694458008 18.08193016052246 10.782125473022461 18.056591033935547 10.79291820526123 L17.451265335083008 10.652153015136719 C17.469331741333008 10.616019248962402 17.487396240234375 10.579885482788086 17.505462646484375 10.54375171661377 L17.526578903198242 10.511375427246094 C17.551918029785156 10.486273765563965 17.577259063720703 10.461172103881836 17.602598190307617 10.436070442199707 L17.818683624267578 10.338926315307617"></path>
<path fill="none" stroke="black" stroke-width=".3" stroke-opacity="1.0"  filling="0" d="M14.045961380004883 10.41424560546875 L14.121274948120117 10.41424560546875 C14.207850456237793 10.453897476196289 14.294425964355469 10.493548393249512 14.381001472473145 10.53320026397705 L14.445758819580078 10.609211921691895 C14.503475189208984 10.9407320022583 14.561192512512207 11.272252082824707 14.618908882141113 11.603772163391113 L14.57526969909668 11.75510311126709 C14.398833274841309 11.881095886230469 14.222397804260254 12.007089614868164 14.045961380004883 12.133082389831543 L13.991764068603516 12.111964225769043 C13.941320419311523 12.054250717163086 13.890876770019531 11.996537208557129 13.840433120727539 11.938823699951172 L13.81861400604248 11.884622573852539 C13.80054759979248 11.747601509094238 13.782482147216797 11.610580444335938 13.764415740966797 11.473559379577637 L13.764415740966797 10.576128005981445 L14.045961380004883 10.41424560546875"></path>
<path fill="none" stroke="black" stroke-width=".3" stroke-opacity="1.0"  filling="0" d="M15.959067344665527 10.41424560546875 L16.02382469177246 10.41424560546875 C16.11039924621582 10.453897476196289 16.196975708007812 10.493548393249512 16.283550262451172 10.53320026397705 L16.370128631591797 10.64158821105957 C16.424091339111328 10.774856567382812 16.47805404663086 10.908123970031738 16.53201675415039 11.04139232635498 L16.54327964782715 11.127969741821289 C16.539525985717773 11.275777816772461 16.535770416259766 11.42358684539795 16.53201675415039 11.571394920349121 L16.4785213470459 11.787492752075195 C16.410011291503906 11.881105422973633 16.341503143310547 11.974717140197754 16.272993087768555 12.068329811096191 L16.229352951049805 12.100706100463867 C16.14653205871582 12.115250587463379 16.063711166381836 12.129796028137207 15.980890274047852 12.144340515136719 L15.894314765930176 12.111964225769043 C15.843871116638184 12.054250717163086 15.793427467346191 11.996537208557129 15.7429838180542 11.938823699951172 L15.73242473602295 11.884622573852539 C15.714359283447266 11.747601509094238 15.696292877197266 11.610580444335938 15.678227424621582 11.473559379577637 L15.667669296264648 10.576128005981445 L15.959067344665527 10.41424560546875"></path>
<path fill="none" stroke="black" stroke-width=".3" stroke-opacity="1.0"  filling="0" d="M12.94300365447998 10.911871910095215 L11.872425079345703 10.998449325561523 C11.868906021118164 11.117168426513672 11.865386009216309 11.235886573791504 11.86186695098877 11.354605674743652 L11.872425079345703 11.430630683898926 C11.969793319702148 11.58923625946045 12.067160606384277 11.747841835021973 12.164528846740723 11.906447410583496 L12.305301666259766 11.971199989318848 C12.362784385681152 11.978469848632812 12.420266151428223 11.985739707946777 12.47774887084961 11.993009567260742 L12.521389961242676 11.981752395629883 C12.564559936523438 11.970959663391113 12.607730865478516 11.96016788482666 12.650900840759277 11.94937515258789 L12.705097198486328 11.916998863220215 C12.791672706604004 11.812589645385742 12.87824821472168 11.708181381225586 12.964823722839355 11.603772163391113 L13.02957820892334 11.636162757873535 C12.73703384399414 11.838521003723145 12.491643905639648 12.348767280578613 12.151946067810059 12.24323844909668 C11.774508476257324 12.125986099243164 11.785408973693848 11.542895317077637 11.602140426635742 11.192723274230957 L11.61340045928955 11.0308256149292 C11.89799690246582 10.771333694458008 12.182594299316406 10.5118408203125 12.467190742492676 10.252348899841309 L13.007760047912598 10.749283790588379 C13.007760047912598 10.781660079956055 13.007760047912598 10.81403636932373 13.007760047912598 10.846412658691406 L12.94300365447998 10.911871910095215"></path>
<path fill="none" stroke="black" stroke-width=".3" stroke-opacity="1.0"  filling="0" d="M18.467647552490234 10.911871910095215 L17.397066116333008 10.96536636352539 C17.501707077026367 11.282577514648438 17.60634994506836 11.599787712097168 17.71099090576172 11.916998863220215 L17.818683624267578 11.971199989318848 C17.876399993896484 11.978469848632812 17.93411636352539 11.985739707946777 17.991832733154297 11.993009567260742 L18.034767150878906 11.981752395629883 C18.07817268371582 11.970959663391113 18.121580123901367 11.96016788482666 18.16498565673828 11.94937515258789 L18.218477249145508 11.916998863220215 C18.3050537109375 11.812589645385742 18.39162826538086 11.708181381225586 18.47820472717285 11.603772163391113 L18.554224014282227 11.636162757873535 C18.25587272644043 11.837994575500488 18.003385543823242 12.34780502319336 17.65917205810547 12.241659164428711 C17.28294563293457 12.125640869140625 17.29720687866211 11.54236888885498 17.11622428894043 11.192723274230957 L17.126781463623047 11.0308256149292 C17.41161346435547 10.771333694458008 17.696443557739258 10.5118408203125 17.98127555847168 10.252348899841309 L18.067148208618164 10.273467063903809 C18.17906379699707 10.349252700805664 18.290977478027344 10.425037384033203 18.40289306640625 10.500823020935059 L18.467647552490234 10.911871910095215"></path>
<path fill="none" stroke="black" stroke-width=".3" stroke-opacity="1.0"  filling="0" d="M19.299617767333984 11.874055862426758 L19.299617767333984 11.94937515258789 C19.3068904876709 11.98902702331543 19.314163208007812 12.028677940368652 19.321435928344727 12.068329811096191 L18.867443084716797 12.122529983520508 C18.907094955444336 12.108216285705566 18.946744918823242 12.093901634216309 18.98639678955078 12.079587936401367 L19.018774032592773 12.035953521728516 C19.022293090820312 11.960403442382812 19.02581214904785 11.88485336303711 19.02933120727539 11.809303283691406 L19.02933120727539 9.679403305053711 C19.022293090820312 9.628959655761719 19.015254974365234 9.578516006469727 19.008216857910156 9.528072357177734 L18.921640396118164 9.333106994628906 C18.964811325073242 9.31503963470459 19.007980346679688 9.29697322845459 19.051151275634766 9.278905868530273 L19.105350494384766 9.246530532836914 C19.15227508544922 9.217671394348145 19.199199676513672 9.188811302185059 19.246124267578125 9.159952163696289 L19.299617767333984 11.874055862426758"></path>
<path fill="none" stroke="black" stroke-width=".3" stroke-opacity="1.0"  filling="0" d="M20.748878479003906 12.122529983520508 L20.835453033447266 10.436070442199707 C20.878623962402344 10.414481163024902 20.92179298400879 10.392891883850098 20.964963912963867 10.371302604675293 L21.00790023803711 10.349493026733398 C21.0583438873291 10.320633888244629 21.108789443969727 10.29177474975586 21.15923309326172 10.26291561126709 L21.267627716064453 10.500823020935059 C21.50905418395996 10.446857452392578 21.750478744506836 10.392891883850098 21.991905212402344 10.338926315307617 L22.046100616455078 10.403679847717285 C22.089271545410156 10.526155471801758 22.132442474365234 10.648632049560547 22.175613403320312 10.77110767364502 L22.391700744628906 12.209108352661133 L21.753997802734375 12.209108352661133 L21.92715072631836 10.857685089111328 C21.912837982177734 10.792692184448242 21.89852523803711 10.72769832611084 21.884212493896484 10.662705421447754 L21.87295150756836 10.61977767944336 C21.84784698486328 10.58012580871582 21.822742462158203 10.540474891662598 21.797637939453125 10.500823020935059 L21.69980239868164 10.457880973815918 C21.656631469726562 10.450611114501953 21.613460540771484 10.443340301513672 21.570289611816406 10.436070442199707 L21.516094207763672 10.446622848510742 C21.454856872558594 10.482756614685059 21.393619537353516 10.518891334533691 21.332382202148438 10.555025100708008 L21.397136688232422 12.209108352661133 L20.748878479003906 12.122529983520508"></path>
<path fill="none" stroke="black" stroke-width=".3" stroke-opacity="1.0"  filling="0" d="M9.213217735290527 12.209108352661133 L10.823663711547852 9.268354415893555 C10.780492782592773 9.268354415893555 10.737322807312012 9.268354415893555 10.694151878356934 9.268354415893555 L10.661775588989258 9.25778865814209 C10.492378234863281 9.261310577392578 10.322979927062988 9.264832496643066 10.153582572937012 9.268354415893555 L10.067007064819336 9.290164947509766 C10.016563415527344 9.31175422668457 9.966119766235352 9.333342552185059 9.91567611694336 9.354931831359863 L9.872740745544434 9.387309074401855 C9.793438911437988 9.495466232299805 9.714136123657227 9.603622436523438 9.634834289550781 9.711779594421387 L9.36454963684082 10.035558700561523 L9.591195106506348 9.171211242675781 L11.331855773925781 9.171211242675781 L9.68832778930664 12.111964225769043 L10.131763458251953 12.111964225769043 C10.261509895324707 12.108211517333984 10.391256332397461 12.104458808898926 10.521002769470215 12.100706100463867 L10.62939739227295 12.079587936401367 C10.70142650604248 12.06152057647705 10.773454666137695 12.04345417022705 10.845483779907227 12.025386810302734 L10.867302894592285 12.003576278686523 C11.011361122131348 11.769421577453613 11.15541934967041 11.535265922546387 11.299477577209473 11.301111221313477 L11.158703804016113 12.209108352661133 L9.213217735290527 12.209108352661133"></path>
<path fill="none" stroke="black" stroke-width=".3" stroke-opacity="1.0"  filling="0" d="M13.764415740966797 12.814430236816406 L13.796791076660156 13.008688926696777 C13.858028411865234 13.030508995056152 13.919264793395996 13.052329063415527 13.980502128601074 13.074149131774902 L13.472310066223145 13.008688926696777 C13.479583740234375 12.969273567199707 13.486858367919922 12.92985725402832 13.494132041931152 12.89044189453125 L13.494132041931152 10.825308799743652 C13.454480171203613 10.72793960571289 13.41482925415039 10.630569458007812 13.375177383422852 10.53320026397705 L13.353357315063477 10.446622848510742 C13.479584693908691 10.378111839294434 13.60581111907959 10.309601783752441 13.732038497924805 10.241090774536133 L13.81861400604248 10.41424560546875 C14.18626594543457 10.662945747375488 14.553918838500977 10.911646842956543 14.921570777893066 11.160346984863281 L14.921570777893066 11.32222843170166 C14.78103256225586 11.59626579284668 14.640494346618652 11.8703031539917 14.499956130981445 12.144340515136719 L14.391559600830078 12.197835922241211 C14.287153244018555 12.219655990600586 14.182745933532715 12.241475105285645 14.078339576721191 12.26329517364502 L13.764415740966797 12.187284469604492 L13.764415740966797 12.814430236816406"></path>
<path fill="none" stroke="black" stroke-width=".3" stroke-opacity="1.0"  filling="0" d="M15.667669296264648 12.814430236816406 L15.926692008972168 13.149467468261719 L15.212972640991211 13.149467468261719 L15.288989067077637 10.436070442199707 C15.332159042358398 10.41800308227539 15.37532901763916 10.39993667602539 15.418498992919922 10.381869316101074 L15.472697257995605 10.349493026733398 C15.519621849060059 10.320633888244629 15.566547393798828 10.29177474975586 15.613471984863281 10.26291561126709 L15.73242473602295 10.41424560546875 C16.099842071533203 10.662945747375488 16.467260360717773 10.911646842956543 16.834678649902344 11.160346984863281 L16.834678649902344 11.32222843170166 C16.69062042236328 11.59626579284668 16.54656219482422 11.8703031539917 16.402503967285156 12.144340515136719 L15.667669296264648 12.187284469604492 L15.667669296264648 12.814430236816406"></path>
<path fill="none" stroke="black" stroke-width=".3" stroke-opacity="1.0"  filling="0" d="M17.829946517944336 13.53870677947998 L18.780868530273438 14.262982368469238 L17.137340545654297 14.241865158081055 C15.667417526245117 14.198760986328125 13.876334190368652 14.17254638671875 12.040287971496582 14.007726669311523 C10.204241752624512 13.842906951904297 8.32323169708252 13.539482116699219 6.673453330993652 12.94195556640625 C5.023674964904785 12.344430923461914 3.605128765106201 11.452804565429688 2.694009780883789 10.111583709716797 L2.694009780883789 9.668145179748535 C3.6035428047180176 8.326181411743164 5.02181339263916 7.434426307678223 6.671844482421875 6.837045669555664 C8.32187557220459 6.2396650314331055 10.203666687011719 5.936657905578613 12.040242195129395 5.772189140319824 C13.876816749572754 5.607720851898193 15.668174743652344 5.581790924072266 17.137340545654297 5.538564682006836 L18.780868530273438 5.516744136810303 L17.829946517944336 6.241023063659668 L16.30537223815918 6.251581192016602 C14.29235553741455 6.3074188232421875 11.631929397583008 6.31413459777832 9.1359281539917 6.736057758331299 C6.639926910400391 7.157980918884277 4.308351039886475 7.99511194229126 2.9530344009399414 9.711779594421387 L2.9530344009399414 10.068641662597656 C4.310744285583496 11.7854642868042 6.641602516174316 12.6206636428833 9.136646270751953 13.041496276855469 C11.63169002532959 13.462329864501953 14.290919303894043 13.468796730041504 16.30537223815918 13.528154373168945 L17.829946517944336 13.53870677947998"></path>
<path fill="none" stroke="black" stroke-width=".3" stroke-opacity="1.0"  filling="0" d="M17.829946517944336 14.40376091003418 L18.780868530273438 15.117469787597656 L17.137340545654297 15.095660209655762 C15.67047119140625 15.052956581115723 13.878518104553223 15.027400970458984 12.040582656860352 14.863106727600098 C10.202648162841797 14.698812484741211 8.318731307983398 14.39577865600586 6.667934894561768 13.798118591308594 C5.017138481140137 13.200457572937012 3.5994627475738525 12.3081693649292 2.694009780883789 10.96536636352539 L2.7587671279907227 10.295291900634766 C3.8343939781188965 9.027013778686523 4.813462734222412 8.552691459655762 6.359041213989258 7.971118450164795 L7.39654016494751 7.657199382781982 C8.878400802612305 7.309732437133789 10.351582527160645 7.04489278793335 11.833951950073242 6.845281600952148 C13.31632137298584 6.645670413970947 14.807878494262695 6.511287212371826 16.326486587524414 6.424732208251953 L18.780868530273438 6.3705339431762695 L17.829946517944336 7.095516681671143 L16.30537223815918 7.116631507873535 C14.293222427368164 7.1631059646606445 11.633001327514648 7.1684417724609375 9.136886596679688 7.590609073638916 C6.640771865844727 8.012776374816895 4.308762550354004 8.851775169372559 2.9530344009399414 10.565576553344727 L2.9530344009399414 10.922438621520996 C4.307670593261719 12.63861083984375 6.639542579650879 13.476547241210938 9.13586139678955 13.898909568786621 C11.632181167602539 14.321271896362305 14.292947769165039 14.328060150146484 16.30537223815918 14.381936073303223 L17.829946517944336 14.40376091003418"></path>
<path fill="none" stroke="black" stroke-width=".3" stroke-opacity="1.0"  filling="0" d="M9.26590347290039 15.461359024047852 L9.302504539489746 16.42424964904785 C9.31297779083252 16.535974502563477 9.308523178100586 16.543188095092773 9.417939186096191 16.559391021728516 L9.063189506530762 16.559391021728516 C9.167107582092285 16.546401977539062 9.157297134399414 16.530500411987305 9.170177459716797 16.42424964904785 L9.170177459716797 15.765433311462402 C9.165807723999023 15.647483825683594 9.194306373596191 15.549202919006348 9.063189506530762 15.576796531677246 L9.26590347290039 15.461359024047852"></path>
<path fill="none" stroke="black" stroke-width=".3" stroke-opacity="1.0"  filling="0" d="M9.689554214477539 15.461359024047852 L9.689554214477539 15.461359024047852 C10.025546073913574 15.620528221130371 9.345746994018555 15.608722686767578 9.689554214477539 15.461359024047852 L9.689554214477539 15.461359024047852"></path>
<path fill="none" stroke="black" stroke-width=".3" stroke-opacity="1.0"  filling="0" d="M15.50482177734375 15.461359024047852 L15.541423797607422 15.990670204162598 C15.792936325073242 15.769940376281738 15.943792343139648 15.830390930175781 15.96937370300293 16.168033599853516 L15.96937370300293 16.42424964904785 C15.982604026794434 16.53338623046875 15.971187591552734 16.542570114135742 16.07636260986328 16.559391021728516 L15.738506317138672 16.559391021728516 C15.83584976196289 16.539913177490234 15.837047576904297 16.521440505981445 15.837047576904297 16.42424964904785 L15.837047576904297 16.168033599853516 C15.819829940795898 15.927017211914062 15.72990608215332 15.879791259765625 15.541423797607422 16.041339874267578 L15.541423797607422 16.42424964904785 C15.54678726196289 16.48324966430664 15.59825325012207 16.55071258544922 15.65685749053955 16.559391021728516 L15.299293518066406 16.559391021728516 C15.356364250183105 16.548816680908203 15.401897430419922 16.481843948364258 15.409096717834473 16.42424964904785 L15.409096717834473 15.768245697021484 C15.404699325561523 15.647335052490234 15.433586120605469 15.54853343963623 15.299293518066406 15.576796531677246 L15.50482177734375 15.461359024047852"></path>
<path fill="none" stroke="black" stroke-width=".3" stroke-opacity="1.0"  filling="0" d="M16.32509422302246 15.461359024047852 L16.32509422302246 15.461359024047852 C16.66108512878418 15.620525360107422 15.981287956237793 15.608722686767578 16.32509422302246 15.461359024047852 L16.32509422302246 15.461359024047852"></path>
<path fill="none" stroke="black" stroke-width=".3" stroke-opacity="1.0"  filling="0" d="M19.74428367614746 15.461359024047852 L19.7808837890625 15.990670204162598 C20.032398223876953 15.769940376281738 20.183250427246094 15.830391883850098 20.20883560180664 16.168033599853516 L20.20883560180664 16.42424964904785 C20.222064971923828 16.533390045166016 20.210647583007812 16.542570114135742 20.315824508666992 16.559391021728516 L19.97796630859375 16.559391021728516 C20.075315475463867 16.539913177490234 20.076507568359375 16.52144432067871 20.076507568359375 16.42424964904785 L20.076507568359375 16.168033599853516 C20.05929183959961 15.927014350891113 19.9693660736084 15.879793167114258 19.7808837890625 16.041339874267578 L19.7808837890625 16.42424964904785 C19.78624725341797 16.48324966430664 19.83771514892578 16.55071258544922 19.896320343017578 16.559391021728516 L19.538753509521484 16.559391021728516 C19.5958251953125 16.548816680908203 19.641357421875 16.481843948364258 19.648557662963867 16.42424964904785 L19.648557662963867 15.768245697021484 C19.644161224365234 15.647334098815918 19.673044204711914 15.548534393310547 19.538753509521484 15.576796531677246 L19.74428367614746 15.461359024047852"></path>
<path fill="none" stroke="black" stroke-width=".3" stroke-opacity="1.0"  filling="0" d="M21.376384735107422 15.461359024047852 L21.376384735107422 15.461359024047852 C21.71237564086914 15.62053108215332 21.03257942199707 15.608722686767578 21.376384735107422 15.461359024047852 L21.376384735107422 15.461359024047852"></path>
<path fill="none" stroke="black" stroke-width=".3" stroke-opacity="1.0"  filling="0" d="M21.81975555419922 15.461359024047852 L21.856353759765625 16.18492889404297 L22.04217529296875 16.01601219177246 C22.099105834960938 15.956706047058105 22.156938552856445 15.9191255569458 22.059066772460938 15.886492729187012 L22.374401092529297 15.886492729187012 C22.302690505981445 15.901206970214844 22.232593536376953 15.930359840393066 22.17168426513672 15.970965385437012 L22.17168426513672 16.379201889038086 C22.25443458557129 16.47760772705078 22.286251068115234 16.543798446655273 22.411001205444336 16.559391021728516 L22.059066772460938 16.559391021728516 C22.13100814819336 16.545005798339844 22.11539077758789 16.530315399169922 22.078777313232422 16.469295501708984 L21.856353759765625 16.18492889404297 L21.856353759765625 16.42424964904785 C21.861774444580078 16.483861923217773 21.915063858032227 16.553232192993164 21.9746036529541 16.559391021728516 L21.605777740478516 16.559391021728516 C21.66469383239746 16.54922866821289 21.7178897857666 16.48617172241211 21.726844787597656 16.427061080932617 L21.726844787597656 15.768245697021484 C21.7227725982666 15.656346321105957 21.75151252746582 15.545828819274902 21.619857788085938 15.576796531677246 L21.81975555419922 15.461359024047852"></path>
<path fill="none" stroke="black" stroke-width=".3" stroke-opacity="1.0"  filling="0" d="M17.04718589782715 15.464171409606934 L17.04718589782715 15.464171409606934 C17.468610763549805 15.612454414367676 16.893672943115234 15.473230361938477 16.87544059753418 15.810481071472168 L16.87544059753418 16.39609718322754 C16.88656997680664 16.458690643310547 16.916702270507812 16.53181266784668 16.973983764648438 16.559391021728516 L16.63894271850586 16.559391021728516 C16.741065979003906 16.535064697265625 16.731782913208008 16.500913619995117 16.743114471435547 16.39609718322754 L16.743114471435547 15.813292503356934 C16.786388397216797 15.582505226135254 16.821231842041016 15.530412673950195 17.04718589782715 15.464171409606934 L17.04718589782715 15.464171409606934"></path>
<path fill="none" stroke="black" stroke-width=".3" stroke-opacity="1.0"  filling="0" d="M17.58818817138672 15.464171409606934 L17.58818817138672 15.464171409606934 C18.009618759155273 15.612454414367676 17.434675216674805 15.473230361938477 17.41644287109375 15.810481071472168 L17.41644287109375 16.39609718322754 C17.427570343017578 16.458690643310547 17.457704544067383 16.53181266784668 17.514986038208008 16.559391021728516 L17.17994499206543 16.559391021728516 C17.282068252563477 16.535064697265625 17.27278709411621 16.50091552734375 17.28411865234375 16.39609718322754 L17.28411865234375 15.813292503356934 C17.327392578125 15.58250617980957 17.362232208251953 15.530412673950195 17.58818817138672 15.464171409606934 L17.58818817138672 15.464171409606934"></path>
<path fill="none" stroke="black" stroke-width=".3" stroke-opacity="1.0"  filling="0" d="M1.707244873046875 15.514854431152344 L2.5012054443359375 15.514854431152344 L1.7973394393920898 16.522790908813477 L2.236551284790039 16.522790908813477 C2.345062732696533 16.491226196289062 2.4357218742370605 16.396705627441406 2.4899444580078125 16.29755401611328 L2.4646053314208984 16.58754539489746 L1.5889949798583984 16.58754539489746 L2.27878475189209 15.576796531677246 L1.935297966003418 15.576796531677246 C1.7662763595581055 15.603681564331055 1.7623977661132812 15.617048263549805 1.7156925201416016 15.782328605651855 L1.707244873046875 15.514854431152344"></path>
<path fill="none" stroke="black" stroke-width=".3" stroke-opacity="1.0"  filling="0" d="M2.5949106216430664 15.514854431152344 L3.0791683197021484 15.543006896972656 C2.9950411319732666 15.554746627807617 2.9068479537963867 15.638620376586914 2.8989791870117188 15.723197937011719 L2.8989791870117188 16.39609718322754 C2.909644365310669 16.464340209960938 2.996180295944214 16.515275955200195 3.065092086791992 16.519968032836914 L3.1439266204833984 16.519968032836914 C3.3636364936828613 16.498371124267578 3.3831911087036133 16.483840942382812 3.490227699279785 16.291919708251953 L3.425471305847168 16.58754539489746 L2.6343259811401367 16.559391021728516 C2.694153308868408 16.53123664855957 2.737593412399292 16.4615535736084 2.7469444274902344 16.39609718322754 L2.7469444274902344 15.7034912109375 C2.7368996143341064 15.638916015625 2.695742607116699 15.565342903137207 2.6343259811401367 15.543006896972656 L2.5949106216430664 15.514854431152344"></path>
<path fill="none" stroke="black" stroke-width=".3" stroke-opacity="1.0"  filling="0" d="M3.61490535736084 15.514854431152344 L4.490512847900391 15.514854431152344 L4.47361946105957 15.765433311462402 C4.43820858001709 15.631647109985352 4.412257671356201 15.611000061035156 4.27653694152832 15.582418441772461 L4.124501705169678 16.401718139648438 C4.136153221130371 16.465805053710938 4.1787214279174805 16.53713035583496 4.239936828613281 16.559391021728516 L3.859848976135254 16.559391021728516 C3.9189400672912598 16.5333194732666 3.963115692138672 16.46562385559082 3.9724674224853516 16.401718139648438 L3.8457727432250977 15.582418441772461 C3.6937761306762695 15.594419479370117 3.6745920181274414 15.619213104248047 3.6317968368530273 15.765433311462402 L3.61490535736084 15.514854431152344"></path>
<path fill="none" stroke="black" stroke-width=".3" stroke-opacity="1.0"  filling="0" d="M5.093532562255859 15.514854431152344 L5.8874945640563965 15.514854431152344 L5.183627605438232 16.522790908813477 L5.622840404510498 16.522790908813477 C5.731351375579834 16.491226196289062 5.822010040283203 16.396705627441406 5.876232624053955 16.29755401611328 L5.850894927978516 16.58754539489746 L4.975283622741699 16.58754539489746 L5.665072917938232 15.576796531677246 L5.321586608886719 15.576796531677246 C5.1525654792785645 15.603681564331055 5.148685455322266 15.617048263549805 5.101980209350586 15.782328605651855 L5.093532562255859 15.514854431152344"></path>
<path fill="none" stroke="black" stroke-width=".3" stroke-opacity="1.0"  filling="0" d="M11.161255836486816 15.514854431152344 L11.645516395568848 15.543006896972656 C11.561388969421387 15.554746627807617 11.473194122314453 15.638620376586914 11.465327262878418 15.723197937011719 L11.465327262878418 16.39609718322754 C11.47598934173584 16.464340209960938 11.56252670288086 16.515275955200195 11.631437301635742 16.519968032836914 L11.710269927978516 16.519968032836914 C11.929981231689453 16.498371124267578 11.94953441619873 16.483840942382812 12.056573867797852 16.291919708251953 L11.991815567016602 16.58754539489746 L11.200672149658203 16.559391021728516 C11.260499954223633 16.53123664855957 11.303939819335938 16.4615535736084 11.3132905960083 16.39609718322754 L11.3132905960083 15.7034912109375 C11.303245544433594 15.638916015625 11.262088775634766 15.565342903137207 11.200672149658203 15.543006896972656 L11.161255836486816 15.514854431152344"></path>
<path fill="none" stroke="black" stroke-width=".3" stroke-opacity="1.0"  filling="0" d="M13.277433395385742 15.60213851928711 L13.277433395385742 15.60213851928711 C13.273679733276367 15.671586036682129 13.269926071166992 15.741033554077148 13.266172409057617 15.810481071472168 L13.266172409057617 16.39609718322754 C13.277299880981445 16.458690643310547 13.3074312210083 16.531810760498047 13.36471176147461 16.559391021728516 L13.029672622680664 16.559391021728516 C13.131794929504395 16.535064697265625 13.122512817382812 16.500913619995117 13.133844375610352 16.39609718322754 L13.133844375610352 15.813292503356934 C13.224930763244629 15.327497482299805 13.66257095336914 15.594267845153809 13.615288734436035 15.641549110412598 C13.49882698059082 15.758007049560547 13.419685363769531 15.361396789550781 13.277433395385742 15.60213851928711 L13.277433395385742 15.60213851928711"></path>
<path fill="none" stroke="black" stroke-width=".3" stroke-opacity="1.0"  filling="0" d="M13.708634376525879 15.624653816223145 L13.733973503112793 16.387649536132812 C13.758866310119629 16.508546829223633 13.809050559997559 16.547649383544922 13.894453048706055 16.44395637512207 L13.925424575805664 16.44395637512207 C13.797235488891602 16.631662368774414 13.637102127075195 16.652740478515625 13.601645469665527 16.404544830322266 L13.48902702331543 15.892127990722656 C13.601259231567383 15.816093444824219 13.651897430419922 15.747579574584961 13.708634376525879 15.624653816223145 L13.708634376525879 15.624653816223145"></path>
<path fill="none" stroke="black" stroke-width=".3" stroke-opacity="1.0"  filling="0" d="M17.858901977539062 15.624653816223145 L17.88424301147461 16.387649536132812 C17.909133911132812 16.508543014526367 17.959320068359375 16.547653198242188 18.044721603393555 16.44395637512207 L18.075693130493164 16.44395637512207 C17.9475040435791 16.631662368774414 17.787370681762695 16.652740478515625 17.751914978027344 16.404544830322266 L17.63929557800293 15.892127990722656 C17.75152587890625 15.816094398498535 17.802165985107422 15.747579574584961 17.858901977539062 15.624653816223145 L17.858901977539062 15.624653816223145"></path>
<path fill="none" stroke="black" stroke-width=".3" stroke-opacity="1.0"  filling="0" d="M6.341576099395752 15.83863353729248 L6.341576099395752 15.83863353729248 C6.46695613861084 15.889845848083496 6.573485374450684 16.00717544555664 6.620306491851807 16.134260177612305 L6.119154453277588 16.134260177612305 C6.210432052612305 16.427654266357422 6.387728691101074 16.62108039855957 6.597782135009766 16.306001663208008 L6.620306491851807 16.32289695739746 C6.300053119659424 16.991649627685547 5.645527362823486 16.14159393310547 6.341576099395752 15.83863353729248 L6.341576099395752 15.83863353729248"></path>
<path fill="none" stroke="black" stroke-width=".3" stroke-opacity="1.0"  filling="0" d="M8.67440414428711 15.83863353729248 L8.67440414428711 15.83863353729248 C8.799784660339355 15.889845848083496 8.906314849853516 16.00717544555664 8.953136444091797 16.134260177612305 L8.451982498168945 16.134260177612305 C8.543262481689453 16.427654266357422 8.72055721282959 16.62108039855957 8.930612564086914 16.306001663208008 L8.953136444091797 16.32289695739746 C8.632875442504883 16.991647720336914 7.978362083435059 16.1415958404541 8.67440414428711 15.83863353729248 L8.67440414428711 15.83863353729248"></path>
<path fill="none" stroke="black" stroke-width=".3" stroke-opacity="1.0"  filling="0" d="M18.4683837890625 15.83863353729248 L18.4683837890625 15.83863353729248 C18.59376335144043 15.889845848083496 18.700294494628906 16.00717544555664 18.747114181518555 16.134260177612305 L18.245962142944336 16.134260177612305 C18.33724021911621 16.427654266357422 18.514535903930664 16.621078491210938 18.724590301513672 16.306001663208008 L18.747114181518555 16.32289695739746 C18.42686653137207 16.991649627685547 17.772335052490234 16.1415958404541 18.4683837890625 15.83863353729248 L18.4683837890625 15.83863353729248"></path>
<path fill="none" stroke="black" stroke-width=".3" stroke-opacity="1.0"  filling="0" d="M7.152682781219482 15.841444969177246 L7.152682781219482 15.841444969177246 C7.622267723083496 16.058197021484375 7.348700046539307 16.82633399963379 6.919001579284668 16.545307159423828 L6.919001579284668 16.76773452758789 C6.924595832824707 16.82928466796875 6.981975555419922 16.895191192626953 7.042881488800049 16.905689239501953 L6.682501792907715 16.905689239501953 C6.7407684326171875 16.892738342285156 6.7843918800354 16.821571350097656 6.78948974609375 16.762100219726562 L6.78948974609375 16.07512664794922 C6.780266761779785 15.979828834533691 6.778426647186279 15.935806274414062 6.676870822906494 15.959692001342773 L6.919001579284668 16.013187408447266 C6.981657028198242 15.939573287963867 7.060766220092773 15.871378898620605 7.152682781219482 15.841444969177246 L7.152682781219482 15.841444969177246"></path>
<path fill="none" stroke="black" stroke-width=".3" stroke-opacity="1.0"  filling="0" d="M7.964509963989258 15.841444969177246 L7.964509963989258 15.841444969177246 C8.434094429016113 16.058197021484375 8.160526275634766 16.826332092285156 7.730827808380127 16.545307159423828 L7.730827808380127 16.76773452758789 C7.736422538757324 16.82928466796875 7.793801784515381 16.895191192626953 7.854707717895508 16.905689239501953 L7.494328498840332 16.905689239501953 C7.552595138549805 16.892738342285156 7.596218585968018 16.821571350097656 7.601316928863525 16.762100219726562 L7.601316928863525 16.07512664794922 C7.592093467712402 15.979828834533691 7.5902533531188965 15.935805320739746 7.488698482513428 15.959692001342773 L7.730827808380127 16.013187408447266 C7.793483257293701 15.939573287963867 7.872592926025391 15.871378898620605 7.964509963989258 15.841444969177246 L7.964509963989258 15.841444969177246"></path>
<path fill="none" stroke="black" stroke-width=".3" stroke-opacity="1.0"  filling="0" d="M9.720524787902832 15.841444969177246 L9.754310607910156 16.42424964904785 C9.76442813873291 16.532169342041016 9.759140968322754 16.5426025390625 9.864112854003906 16.559391021728516 L9.512181282043457 16.559391021728516 C9.618448257446289 16.546640396118164 9.608843803405762 16.53264808654785 9.62198257446289 16.42424964904785 L9.62198257446289 16.14270782470703 C9.61748218536377 16.021177291870117 9.644957542419434 15.928938865661621 9.512181282043457 15.956880569458008 L9.720524787902832 15.841444969177246"></path>
<path fill="none" stroke="black" stroke-width=".3" stroke-opacity="1.0"  filling="0" d="M10.132917404174805 15.841444969177246 L10.166702270507812 15.99348258972168 C10.427129745483398 15.8299560546875 10.558509826660156 15.776909828186035 10.597469329833984 16.114540100097656 L10.597469329833984 16.42424964904785 C10.61075496673584 16.533859252929688 10.601618766784668 16.54249382019043 10.707271575927734 16.559391021728516 L10.363784790039062 16.559391021728516 C10.460830688476562 16.53997230529785 10.46422004699707 16.521398544311523 10.467957496643066 16.42424964904785 L10.467957496643066 16.125812530517578 C10.420833587646484 15.885475158691406 10.377650260925293 15.92485523223877 10.166702270507812 16.041339874267578 L10.166702270507812 16.42424964904785 C10.177350044250488 16.537803649902344 10.173328399658203 16.5434513092041 10.284951210021973 16.559391021728516 L9.941465377807617 16.559391021728516 C9.993232727050781 16.540220260620117 10.027190208435059 16.478538513183594 10.037190437316895 16.42424964904785 L10.037190437316895 16.15396499633789 C10.030937194824219 16.03721809387207 10.061575889587402 15.927072525024414 9.927388191223145 15.956880569458008 L10.132917404174805 15.841444969177246"></path>
<path fill="none" stroke="black" stroke-width=".3" stroke-opacity="1.0"  filling="0" d="M14.222378730773926 15.841444969177246 L14.222378730773926 15.841444969177246 C14.276942253112793 15.85029411315918 14.378951072692871 15.897994041442871 14.416645050048828 15.841444969177246 L14.416645050048828 16.08921241760254 C14.264179229736328 15.767324447631836 13.957489967346191 15.949203491210938 14.222378730773926 16.125812530517578 L14.337813377380371 16.182119369506836 C14.723831176757812 16.683258056640625 14.246009826660156 16.450231552124023 14.03374195098877 16.598804473876953 L14.03374195098877 16.33977699279785 C14.37920093536377 17.04262351989746 14.036873817443848 15.914323806762695 14.222378730773926 15.841444969177246 L14.222378730773926 15.841444969177246"></path>
<path fill="none" stroke="black" stroke-width=".3" stroke-opacity="1.0"  filling="0" d="M14.958372116088867 15.841444969177246 L14.958372116088867 15.841444969177246 C15.58562183380127 16.04376792907715 14.738764762878418 15.8805570602417 14.738764762878418 16.156776428222656 C14.738764762878418 16.517868041992188 15.038837432861328 16.55364990234375 15.200502395629883 16.300365447998047 L15.22302532196045 16.31162452697754 C14.870323181152344 16.991230010986328 14.278291702270508 16.13849449157715 14.958372116088867 15.841444969177246 L14.958372116088867 15.841444969177246"></path>
<path fill="none" stroke="black" stroke-width=".3" stroke-opacity="1.0"  filling="0" d="M16.356067657470703 15.841444969177246 L16.389850616455078 16.42424964904785 C16.399967193603516 16.532169342041016 16.394681930541992 16.5426025390625 16.49965476989746 16.559391021728516 L16.147722244262695 16.559391021728516 C16.253986358642578 16.546640396118164 16.244382858276367 16.53264617919922 16.257524490356445 16.42424964904785 L16.257524490356445 16.14270782470703 C16.253023147583008 16.021181106567383 16.28049659729004 15.928937911987305 16.147722244262695 15.956880569458008 L16.356067657470703 15.841444969177246"></path>
<path fill="none" stroke="black" stroke-width=".3" stroke-opacity="1.0"  filling="0" d="M19.197830200195312 15.841444969177246 L19.197830200195312 15.841444969177246 C19.825082778930664 16.04376792907715 18.978225708007812 15.8805570602417 18.978225708007812 16.156776428222656 C18.978225708007812 16.517866134643555 19.278297424316406 16.55364990234375 19.439960479736328 16.300365447998047 L19.46248435974121 16.31162452697754 C19.109786987304688 16.991230010986328 18.51775550842285 16.138498306274414 19.197830200195312 15.841444969177246 L19.197830200195312 15.841444969177246"></path>
<path fill="none" stroke="black" stroke-width=".3" stroke-opacity="1.0"  filling="0" d="M20.55611801147461 15.841444969177246 L20.589900970458984 15.99348258972168 C20.85032844543457 15.8299560546875 20.98171043395996 15.776908874511719 21.02066993713379 16.114540100097656 L21.02066993713379 16.42424964904785 C21.033958435058594 16.533857345581055 21.02482032775879 16.54249382019043 21.130470275878906 16.559391021728516 L20.786985397338867 16.559391021728516 C20.884031295776367 16.53997230529785 20.887422561645508 16.521398544311523 20.891159057617188 16.42424964904785 L20.891159057617188 16.125812530517578 C20.844032287597656 15.885475158691406 20.80084991455078 15.924856185913086 20.589900970458984 16.041339874267578 L20.589900970458984 16.42424964904785 C20.60055160522461 16.537805557250977 20.596529006958008 16.5434513092041 20.708152770996094 16.559391021728516 L20.36466407775879 16.559391021728516 C20.416431427001953 16.540218353271484 20.450389862060547 16.478540420532227 20.460391998291016 16.42424964904785 L20.460391998291016 16.15396499633789 C20.454137802124023 16.037214279174805 20.48477554321289 15.927074432373047 20.350587844848633 15.956880569458008 L20.55611801147461 15.841444969177246"></path>
<path fill="none" stroke="black" stroke-width=".3" stroke-opacity="1.0"  filling="0" d="M21.40735626220703 15.841444969177246 L21.441139221191406 16.42424964904785 C21.45125961303711 16.532167434692383 21.44597053527832 16.5426025390625 21.55094337463379 16.559391021728516 L21.19900894165039 16.559391021728516 C21.30527687072754 16.546640396118164 21.295673370361328 16.532649993896484 21.308815002441406 16.42424964904785 L21.308815002441406 16.14270782470703 C21.30431365966797 16.02117347717285 21.331787109375 15.928940773010254 21.19900894165039 15.956880569458008 L21.40735626220703 15.841444969177246"></path>
<path fill="none" stroke="black" stroke-width=".3" stroke-opacity="1.0"  filling="0" d="M12.122119903564453 15.861149787902832 L12.375510215759277 15.861149787902832 L12.375510215759277 16.348224639892578 C12.429930686950684 16.561372756958008 12.5233736038208 16.531465530395508 12.673949241638184 16.410165786743164 L12.673949241638184 15.999117851257324 C12.660432815551758 15.94842529296875 12.609503746032715 15.904484748840332 12.558516502380371 15.892127990722656 L12.80627727508545 15.861149787902832 L12.80627727508545 16.300365447998047 C12.810591697692871 16.41900062561035 12.780133247375488 16.527603149414062 12.9160795211792 16.4918155670166 L12.673949241638184 16.45521354675293 C12.44973087310791 16.657470703125 12.278380393981934 16.65416717529297 12.243185043334961 16.325708389282227 L12.243185043334961 16.001928329467773 C12.227606773376465 15.904563903808594 12.220378875732422 15.903047561645508 12.122119903564453 15.892127990722656 L12.122119903564453 15.861149787902832"></path>
<path fill="none" stroke="black" stroke-width=".3" stroke-opacity="1.0"  filling="0" d="M6.299344062805176 15.894938468933105 L6.299344062805176 15.894938468933105 C6.4180779457092285 15.931793212890625 6.436196804046631 15.967806816101074 6.457009792327881 16.08921241760254 L6.119154453277588 16.08921241760254 C6.153355598449707 16.00777816772461 6.218555450439453 15.93063735961914 6.299344062805176 15.894938468933105 L6.299344062805176 15.894938468933105"></path>
<path fill="none" stroke="black" stroke-width=".3" stroke-opacity="1.0"  filling="0" d="M8.632171630859375 15.894938468933105 L8.632171630859375 15.894938468933105 C8.75090503692627 15.931794166564941 8.769026756286621 15.967805862426758 8.789837837219238 16.08921241760254 L8.451982498168945 16.08921241760254 C8.486183166503906 16.00777816772461 8.551383018493652 15.93063735961914 8.632171630859375 15.894938468933105 L8.632171630859375 15.894938468933105"></path>
<path fill="none" stroke="black" stroke-width=".3" stroke-opacity="1.0"  filling="0" d="M18.426151275634766 15.894938468933105 L18.426151275634766 15.894938468933105 C18.544885635375977 15.931793212890625 18.563005447387695 15.967804908752441 18.583818435668945 16.08921241760254 L18.245962142944336 16.08921241760254 C18.28016471862793 16.00777816772461 18.34536361694336 15.93063735961914 18.426151275634766 15.894938468933105 L18.426151275634766 15.894938468933105"></path>
<path fill="none" stroke="black" stroke-width=".3" stroke-opacity="1.0"  filling="0" d="M7.0907440185546875 15.956880569458008 L7.0907440185546875 15.956880569458008 C7.611124515533447 16.21710205078125 6.958433151245117 16.870323181152344 6.919001579284668 16.331344604492188 L6.919001579284668 16.061059951782227 C6.968478202819824 16.015945434570312 7.025382041931152 15.971407890319824 7.0907440185546875 15.956880569458008 L7.0907440185546875 15.956880569458008"></path>
<path fill="none" stroke="black" stroke-width=".3" stroke-opacity="1.0"  filling="0" d="M7.902570724487305 15.956880569458008 L7.902570724487305 15.956880569458008 C8.42294692993164 16.217100143432617 7.770263671875 16.870325088500977 7.730827808380127 16.331344604492188 L7.730827808380127 16.061059951782227 C7.780304908752441 16.015945434570312 7.8372087478637695 15.971407890319824 7.902570724487305 15.956880569458008 L7.902570724487305 15.956880569458008"></path>
<path fill="none" stroke="black" stroke-width=".3" stroke-opacity="1.0"  filling="0" d="M11.34841537475586 17.331727981567383 L11.385017395019531 17.858213424682617 C12.081195831298828 17.40571403503418 11.971485137939453 18.769868850708008 11.252691268920898 18.387527465820312 L11.252691268920898 17.63580322265625 C11.24824047088623 17.515615463256836 11.27611255645752 17.419126510620117 11.142888069152832 17.447166442871094 L11.34841537475586 17.331727981567383"></path>
<path fill="none" stroke="black" stroke-width=".3" stroke-opacity="1.0"  filling="0" d="M9.329834938049316 17.359880447387695 L9.329834938049316 17.359880447387695 C9.438633918762207 17.37133026123047 9.63489818572998 17.495193481445312 9.670503616333008 17.359880447387695 L9.701475143432617 17.697744369506836 C9.086952209472656 16.62621307373047 8.533064842224121 18.835073471069336 9.577595710754395 18.367820739746094 L9.577595710754395 18.058124542236328 C9.56338882446289 17.926712036132812 9.564934730529785 17.923290252685547 9.436822891235352 17.903261184692383 L9.83380126953125 17.903261184692383 C9.777896881103516 17.92935562133789 9.741377830505371 17.997079849243164 9.732444763183594 18.058124542236328 L9.732444763183594 18.387527465820312 C8.852604866027832 18.731216430664062 8.348939895629883 17.597702026367188 9.329834938049316 17.359880447387695 L9.329834938049316 17.359880447387695"></path>
<path fill="none" stroke="black" stroke-width=".3" stroke-opacity="1.0"  filling="0" d="M14.123723983764648 17.359880447387695 L14.123723983764648 17.359880447387695 C14.469329833984375 17.487876892089844 14.309229850769043 17.679691314697266 14.075860977172852 17.83850860595703 L14.075860977172852 17.83850860595703 C14.146247863769531 17.947376251220703 14.216633796691895 18.056245803833008 14.287020683288574 18.16511344909668 L14.287020683288574 18.16511344909668 C14.353378295898438 18.031042098999023 14.519490242004395 17.88010025024414 14.351774215698242 17.796287536621094 L14.684000968933105 17.796287536621094 C14.502362251281738 17.851776123046875 14.424569129943848 18.060630798339844 14.32362174987793 18.212970733642578 L14.32362174987793 18.212970733642578 C14.46079158782959 18.34079360961914 14.58824634552002 18.436922073364258 14.706524848937988 18.243934631347656 L14.737494468688965 18.263641357421875 C14.58043098449707 18.536209106445312 14.440499305725098 18.51952362060547 14.213818550109863 18.328407287597656 L14.213818550109863 18.328407287597656 C13.711213111877441 18.671436309814453 13.3818359375 18.2576904296875 13.91256332397461 17.858213424682617 L13.91256332397461 17.858213424682617 C13.813657760620117 17.608346939086914 13.844170570373535 17.448623657226562 14.123723983764648 17.359880447387695 L14.123723983764648 17.359880447387695"></path>
<path fill="none" stroke="black" stroke-width=".3" stroke-opacity="1.0"  filling="0" d="M15.800357818603516 17.359880447387695 L15.800357818603516 17.359880447387695 C15.92977237701416 17.39183235168457 16.078556060791016 17.497007369995117 16.143844604492188 17.359880447387695 L16.171998977661133 17.72589683532715 C15.432741165161133 16.483959197998047 15.143749237060547 19.244064331054688 16.197338104248047 18.190441131591797 L16.21986198425293 18.20733642578125 C15.529431343078613 18.96990394592285 14.759847640991211 17.635934829711914 15.800357818603516 17.359880447387695 L15.800357818603516 17.359880447387695"></path>
<path fill="none" stroke="black" stroke-width=".3" stroke-opacity="1.0"  filling="0" d="M19.289873123168945 17.359880447387695 L19.289873123168945 17.359880447387695 C19.398672103881836 17.37133026123047 19.594938278198242 17.495193481445312 19.630542755126953 17.359880447387695 L19.661514282226562 17.697744369506836 C19.046985626220703 16.626211166381836 18.49310874938965 18.83507537841797 19.537633895874023 18.367820739746094 L19.537633895874023 18.058124542236328 C19.523426055908203 17.92671012878418 19.524972915649414 17.923290252685547 19.396862030029297 17.903261184692383 L19.793842315673828 17.903261184692383 C19.737937927246094 17.92935562133789 19.701416015625 17.997079849243164 19.692481994628906 18.058124542236328 L19.692481994628906 18.387527465820312 C18.812644958496094 18.731216430664062 18.308977127075195 17.597700119018555 19.289873123168945 17.359880447387695 L19.289873123168945 17.359880447387695"></path>
<path fill="none" stroke="black" stroke-width=".3" stroke-opacity="1.0"  filling="0" d="M11.971993446350098 17.385223388671875 L12.391497611999512 17.413375854492188 C12.279571533203125 17.440242767333984 12.285652160644531 17.455617904663086 12.2760648727417 17.57386016845703 L12.2760648727417 17.883556365966797 L12.777216911315918 17.883556365966797 L12.777216911315918 17.57386016845703 C12.76439094543457 17.45201301574707 12.773416519165039 17.444631576538086 12.661783218383789 17.413375854492188 L13.044685363769531 17.413375854492188 C12.931084632873535 17.43959617614746 12.938940048217773 17.454357147216797 12.929250717163086 17.57386016845703 L12.929250717163086 18.26646614074707 C12.93436336517334 18.332927703857422 12.980318069458008 18.412433624267578 13.044685363769531 18.42976188659668 L12.661783218383789 18.42976188659668 C12.723422050476074 18.40438461303711 12.766744613647461 18.33229637145996 12.777216911315918 18.26646614074707 L12.777216911315918 17.939876556396484 L12.2760648727417 17.939876556396484 L12.2760648727417 18.26646614074707 C12.288771629333496 18.390361785888672 12.278532981872559 18.398134231567383 12.391497611999512 18.42976188659668 L12.00859546661377 18.42976188659668 C12.070487976074219 18.40500831604004 12.115023612976074 18.3325138092041 12.124029159545898 18.26646614074707 L12.124029159545898 17.57386016845703 C12.118844032287598 17.508169174194336 12.072225570678711 17.430505752563477 12.00859546661377 17.413375854492188 L11.971993446350098 17.385223388671875"></path>
<path fill="none" stroke="black" stroke-width=".3" stroke-opacity="1.0"  filling="0" d="M17.523582458496094 17.385223388671875 L17.943084716796875 17.413375854492188 C17.83115577697754 17.440242767333984 17.837238311767578 17.45561408996582 17.827651977539062 17.57386016845703 L17.827651977539062 17.903261184692383 C17.93709945678711 17.802236557006836 18.4207763671875 17.476520538330078 18.16832160949707 17.413375854492188 L18.539962768554688 17.413375854492188 C18.36539649963379 17.43614959716797 18.2603759765625 17.58110237121582 18.142982482910156 17.70055389404297 L17.979686737060547 17.861038208007812 L18.376667022705078 18.255207061767578 C18.466703414916992 18.329721450805664 18.568195343017578 18.39825439453125 18.68073844909668 18.42976188659668 L18.16832160949707 18.42976188659668 C18.28095054626465 18.40629005432129 18.26496696472168 18.366262435913086 18.19929313659668 18.288982391357422 L17.827651977539062 17.92298126220703 L17.827651977539062 18.26646614074707 C17.84035873413086 18.390361785888672 17.830121994018555 18.398134231567383 17.943084716796875 18.42976188659668 L17.560184478759766 18.42976188659668 C17.621822357177734 18.40438461303711 17.665143966674805 18.33229637145996 17.675617218017578 18.26646614074707 L17.675617218017578 17.57386016845703 C17.668718338012695 17.50832748413086 17.62381362915039 17.430505752563477 17.560184478759766 17.413375854492188 L17.523582458496094 17.385223388671875"></path>
<path fill="none" stroke="black" stroke-width=".3" stroke-opacity="1.0"  filling="0" d="M14.1209077835083 17.416187286376953 L14.1209077835083 17.416187286376953 C14.353897094726562 17.52143096923828 14.192742347717285 17.68185043334961 14.04770565032959 17.787839889526367 L14.04770565032959 17.787839889526367 C13.982394218444824 17.61595916748047 13.930262565612793 17.503799438476562 14.1209077835083 17.416187286376953 L14.1209077835083 17.416187286376953"></path>
<path fill="none" stroke="black" stroke-width=".3" stroke-opacity="1.0"  filling="0" d="M10.105082511901855 17.711814880371094 L10.141683578491211 17.866661071777344 C10.299600601196289 17.708751678466797 10.442693710327148 17.64021110534668 10.575265884399414 17.866661071777344 L10.575265884399414 17.866661071777344 C10.787801742553711 17.67582893371582 10.981719970703125 17.655803680419922 11.020109176635742 17.982097625732422 L11.020109176635742 18.294620513916016 C11.02536392211914 18.35242462158203 11.072545051574707 18.42093849182129 11.129912376403809 18.42976188659668 L10.786425590515137 18.42976188659668 C10.884757995605469 18.403289794921875 10.88404655456543 18.39549446105957 10.88778305053711 18.294620513916016 L10.88778305053711 17.982097625732422 C10.847755432128906 17.761938095092773 10.731439590454102 17.78899383544922 10.58089828491211 17.906085968017578 L10.58089828491211 18.294620513916016 C10.586316108703613 18.354232788085938 10.639890670776367 18.42129898071289 10.699146270751953 18.42976188659668 L10.333137512207031 18.42976188659668 C10.441072463989258 18.41114616394043 10.444705963134766 18.402875900268555 10.448569297790527 18.294620513916016 L10.448569297790527 17.982097625732422 C10.404239654541016 17.760438919067383 10.295624732971191 17.786354064941406 10.141683578491211 17.906085968017578 L10.141683578491211 18.294620513916016 C10.14704704284668 18.353620529174805 10.198470115661621 18.421384811401367 10.257118225097656 18.42976188659668 L9.899554252624512 18.42976188659668 C10.00394058227539 18.41306495666504 9.995987892150879 18.401575088500977 10.009357452392578 18.294620513916016 L10.009357452392578 18.015886306762695 C10.00490951538086 17.893579483032227 10.03341007232666 17.7990779876709 9.899554252624512 17.827251434326172 L10.105082511901855 17.711814880371094"></path>
<path fill="none" stroke="black" stroke-width=".3" stroke-opacity="1.0"  filling="0" d="M16.680679321289062 17.711814880371094 L16.680679321289062 17.711814880371094 C18.39453125 18.514053344726562 14.995326042175293 18.181602478027344 16.680679321289062 17.711814880371094 L16.680679321289062 17.711814880371094"></path>
<path fill="none" stroke="black" stroke-width=".3" stroke-opacity="1.0"  filling="0" d="M16.65534210205078 17.762496948242188 L16.65534210205078 17.762496948242188 C18.04738998413086 18.499404907226562 15.444326400756836 18.125850677490234 16.65534210205078 17.762496948242188 L16.65534210205078 17.762496948242188"></path>
<path fill="none" stroke="black" stroke-width=".3" stroke-opacity="1.0"  filling="0" d="M11.548315048217773 17.824440002441406 L11.548315048217773 17.824440002441406 C11.87573528289795 18.001235961914062 11.736014366149902 18.596668243408203 11.385017395019531 18.342477798461914 L11.385017395019531 17.908897399902344 C11.432373046875 17.8700008392334 11.488636016845703 17.838363647460938 11.548315048217773 17.824440002441406 L11.548315048217773 17.824440002441406"></path>
<path fill="none" stroke="black" stroke-width=".3" stroke-opacity="1.0"  filling="0" d="M13.937902450561523 17.91170883178711 L13.937902450561523 17.91170883178711 C14.006877899169922 18.040771484375 14.087448120117188 18.16362762451172 14.171585083007812 18.28335952758789 L14.171585083007812 18.28335952758789 C13.818530082702637 18.51872444152832 13.622422218322754 18.177717208862305 13.937902450561523 17.91170883178711 L13.937902450561523 17.91170883178711"></path></svg>