<svg xmlns="http://www.w3.org/2000/svg" viewBox="0.0 0.0 24.0 24.0" height="200px" width="200px"><path fill="none" stroke="black" stroke-width=".3" stroke-opacity="1.0"  filling="0" d="M21.185997009277344 10.04545783996582 L21.185997009277344 10.60568618774414 L21.486854553222656 10.825799942016602 L19.920854568481445 11.747486114501953 L20.784854888916016 12.406285285949707 L19.76828384399414 13.842857360839844 L22.644855499267578 13.842857360839844 L20.70857048034668 11.793856620788574 L22.277997970581055 10.871228218078613 L21.185997009277344 10.04545783996582"></path>
<path fill="none" stroke="black" stroke-width=".3" stroke-opacity="1.0"  filling="0" d="M21.18600082397461 10.04554271697998 L21.18600082397461 10.605772018432617 L21.18600082397461 10.04554271697998"></path>
<path fill="none" stroke="black" stroke-width=".3" stroke-opacity="1.0"  filling="0" d="M21.18600082397461 10.04554271697998 L22.27800178527832 10.871399879455566 L21.18600082397461 10.04554271697998"></path>
<path fill="none" stroke="black" stroke-width=".3" stroke-opacity="1.0"  filling="0" d="M21.20142936706543 10.075199127197266 L22.252286911010742 10.869942665100098 L20.802000045776367 11.722028732299805 L20.802000045776367 11.246143341064453 L21.513427734375 10.82725715637207 L21.200572967529297 10.598485946655273 L21.20142936706543 10.075199127197266"></path>
<path fill="none" stroke="black" stroke-width=".3" stroke-opacity="1.0"  filling="0" d="M21.200572967529297 10.598400115966797 L21.486858367919922 10.825971603393555 L21.200572967529297 10.598400115966797"></path>
<path fill="none" stroke="black" stroke-width=".3" stroke-opacity="1.0"  filling="0" d="M21.513427734375 10.82725715637207 L19.946571350097656 11.749114036560059 L21.486858367919922 10.825971603393555"></path>
<path fill="none" stroke="black" stroke-width=".3" stroke-opacity="1.0"  filling="0" d="M22.252286911010742 10.869771003723145 L20.682857513427734 11.792485237121582"></path>
<path fill="none" stroke="black" stroke-width=".3" stroke-opacity="1.0"  filling="0" d="M19.946571350097656 11.749114036560059 L20.80457305908203 12.40328598022461 L19.946571350097656 11.749114036560059"></path>
<path fill="none" stroke="black" stroke-width=".3" stroke-opacity="1.0"  filling="0" d="M20.682857513427734 11.792485237121582 L21.04199981689453 12.066171646118164 L20.682857513427734 11.792485237121582"></path>
<path fill="none" stroke="black" stroke-width=".3" stroke-opacity="1.0"  filling="0" d="M21.20828628540039 11.810657501220703 L21.04199981689453 12.066085815429688 L21.20828628540039 11.810657501220703"></path>
<path fill="none" stroke="black" stroke-width=".3" stroke-opacity="1.0"  filling="0" d="M21.20828628540039 11.810657501220703 L22.64485740661621 13.842857360839844 L21.20828628540039 11.810657501220703"></path>
<path fill="none" stroke="black" stroke-width=".3" stroke-opacity="1.0"  filling="0" d="M21.208202362060547 11.835428237915039 L22.61734390258789 13.82845687866211 L20.186485290527344 13.828885078430176 L20.80457305908203 11.88531494140625 L21.04199981689453 12.066085815429688 L21.208202362060547 11.835428237915039"></path>
<path fill="none" stroke="black" stroke-width=".3" stroke-opacity="1.0"  filling="0" d="M18.44742774963379 12.046371459960938 L18.44742774963379 12.046371459960938 C18.674856185913086 12.093828201293945 18.902284622192383 12.14128589630127 19.12971305847168 12.188742637634277 L19.12971305847168 12.566572189331055 C17.62446403503418 12.19444751739502 17.612384796142578 13.643128395080566 18.733715057373047 13.400400161743164 L18.483428955078125 12.88131332397461 L19.16657066345215 12.88131332397461 L19.16657066345215 13.588885307312012 C17.781108856201172 14.330068588256836 16.617008209228516 12.650538444519043 18.447429656982422 12.046370506286621 L18.447429656982422 12.046370506286621"></path>
<path fill="none" stroke="black" stroke-width=".3" stroke-opacity="1.0"  filling="0" d="M16.476852416992188 12.046371459960938 L16.476852416992188 12.046371459960938 C16.704280853271484 12.093829154968262 16.931711196899414 12.14128589630127 17.15913963317871 12.188743591308594 L17.15913963317871 12.566572189331055 C15.653887748718262 12.194449424743652 15.641815185546875 13.643131256103516 16.763141632080078 13.400400161743164 L16.512855529785156 12.881314277648926 L17.19514274597168 12.881314277648926 L17.19514274597168 13.588886260986328 C15.81220817565918 14.332777976989746 14.646053314208984 12.650662422180176 16.476856231689453 12.046371459960938 L16.476856231689453 12.046371459960938"></path>
<path fill="none" stroke="black" stroke-width=".3" stroke-opacity="1.0"  filling="0" d="M13.996285438537598 12.065056800842285 L15.255428314208984 12.065056800842285 L15.255428314208984 12.382200241088867 L14.427427291870117 12.382200241088867 L14.427427291870117 12.773313522338867 L15.216856956481934 12.773313522338867 L15.216856956481934 13.090372085571289 L14.427427291870117 13.090372085571289 L14.427427291870117 13.478742599487305 L15.272571563720703 13.478742599487305 L15.272571563720703 13.795970916748047 L13.996285438537598 13.795970916748047 L13.996285438537598 12.065056800842285"></path>
<path fill="none" stroke="black" stroke-width=".3" stroke-opacity="1.0"  filling="0" d="M4.158512115478516 12.068572998046875 L5.417654037475586 12.068572998046875 L5.417654037475586 12.38571548461914 L4.589653968811035 12.38571548461914 L4.589653968811035 12.776829719543457 L5.379082679748535 12.776829719543457 L5.379082679748535 13.093972206115723 L4.589653968811035 13.093972206115723 L4.589653968811035 13.482343673706055 L5.434797286987305 13.79948616027832 L4.158512115478516 13.79948616027832 L4.158512115478516 12.068572998046875"></path>
<path fill="none" stroke="black" stroke-width=".3" stroke-opacity="1.0"  filling="0" d="M3.051083564758301 12.068657875061035 L2.1073684692382812 13.482343673706055 L3.051083564758301 13.482343673706055 L3.051083564758301 13.799571990966797 L1.3710832595825195 13.799571990966797 L2.322511672973633 12.385801315307617 L1.437082290649414 12.385801315307617 L1.437082290649414 12.068657875061035"></path>
<path fill="none" stroke="black" stroke-width=".3" stroke-opacity="1.0"  filling="0" d="M3.823369026184082 12.068657875061035 L3.823369026184082 13.799571990966797 L3.391368865966797 13.799571990966797 L3.823369026184082 12.068657875061035"></path>
<path fill="none" stroke="black" stroke-width=".3" stroke-opacity="1.0"  filling="0" d="M7.490225315093994 12.068657875061035 L7.490225315093994 13.799571990966797 L7.059082508087158 13.799571990966797 L7.059082508087158 13.099543571472168 L6.196796894073486 13.099543571472168 L6.196796894073486 13.799571990966797 L5.765653610229492 13.799571990966797 L5.765653610229492 12.068658828735352 L6.196796894073486 12.068658828735352 L6.196796894073486 12.774944305419922 L7.059082508087158 12.774944305419922 L7.059082508087158 12.068657875061035"></path>
<path fill="none" stroke="black" stroke-width=".3" stroke-opacity="1.0"  filling="0" d="M7.836511135101318 12.068657875061035 L8.267654418945312 12.068657875061035 L8.267654418945312 13.482343673706055 L9.155654907226562 13.799657821655273 L7.836511135101318 13.799571990966797 L7.836511135101318 12.068657875061035"></path>
<path fill="none" stroke="black" stroke-width=".3" stroke-opacity="1.0"  filling="0" d="M11.356282234191895 12.068657875061035 L12.125139236450195 13.799657821655273 L10.757140159606934 13.420801162719727 L10.614852905273438 13.799657821655273 L10.158853530883789 13.799657821655273 L10.8565673828125 12.068657875061035"></path>
<path fill="none" stroke="black" stroke-width=".3" stroke-opacity="1.0"  filling="0" d="M12.310281753540039 12.068743705749512 L13.05856704711914 12.068743705749512 C13.616926193237305 12.239662170410156 13.74078369140625 12.343183517456055 13.395424842834473 12.847457885742188 L13.395424842834473 12.847457885742188 C14.00427532196045 13.217347145080566 13.741606712341309 13.616711616516113 13.152854919433594 13.799657821655273 L12.310282707214355 13.799657821655273 L12.310281753540039 12.068743705749512"></path>
<path fill="none" stroke="black" stroke-width=".3" stroke-opacity="1.0"  filling="0" d="M12.966854095458984 12.385801315307617 L12.966854095458984 12.385801315307617 C13.244844436645508 12.474465370178223 13.243258476257324 12.665858268737793 12.966854095458984 12.756343841552734 L12.741425514221191 12.385801315307617"></path>
<path fill="none" stroke="black" stroke-width=".3" stroke-opacity="1.0"  filling="0" d="M20.80457305908203 12.403371810913086 L19.76828384399414 13.842857360839844 L20.80457305908203 12.403371810913086"></path>
<path fill="none" stroke="black" stroke-width=".3" stroke-opacity="1.0"  filling="0" d="M11.1119966506958 12.482486724853516 L10.882282257080078 13.09774398803711 L11.1119966506958 12.482486724853516"></path>
<path fill="none" stroke="black" stroke-width=".3" stroke-opacity="1.0"  filling="0" d="M10.008853912353516 12.774858474731445 L10.008853912353516 13.09774398803711 L9.346796989440918 13.09774398803711 L10.008853912353516 12.774858474731445"></path>
<path fill="none" stroke="black" stroke-width=".3" stroke-opacity="1.0"  filling="0" d="M21.666858673095703 12.786857604980469 L21.666858673095703 12.786857604980469 C23.207002639770508 13.721402168273926 20.39991569519043 14.138447761535645 21.666858673095703 12.786857604980469 L21.666858673095703 12.786857604980469"></path>
<path fill="none" stroke="black" stroke-width=".3" stroke-opacity="1.0"  filling="0" d="M13.043996810913086 13.07340145111084 L13.043996810913086 13.07340145111084 C13.428277969360352 13.17890739440918 13.3325834274292 13.41528034210205 12.983997344970703 13.482343673706055 L12.741425514221191 13.482343673706055 L12.741425514221191 13.07340145111084"></path>
<path fill="none" stroke="black" stroke-width=".3" stroke-opacity="1.0"  filling="0" d="M19.795713424682617 13.82845687866211 L22.617427825927734 13.82845687866211 L19.795713424682617 13.82845687866211"></path></svg>