<?xml version="1.0" encoding="iso-8859-1"?><!-- Generator: Adobe Illustrator 22.1.0, SVG Export Plug-In . SVG Version: 6.00 Build 0)  --><svg id="Ebene_1" style="enable-background:new 0 0 447.5 234.7;" version="1.1" viewBox="0 0 447.5 234.7" x="0px" xml:space="preserve" xmlns="http://www.w3.org/2000/svg" xmlns:xlink="http://www.w3.org/1999/xlink" y="0px">
	

	<style type="text/css">
	.st0{fill:#234691;}
	.st1{fill:#283B87;}
</style>
	

	<g>
		
	
		
		
	
		<path animation_id="1" class="st1" d="M372,227.7v-16.3c0-3.1,1.9-5.5,5.2-5.5c3.4,0,4.9,2.3,4.9,5.3v16.5h7.5v-16.3c0-3,1.9-5.5,5.2-5.5   c3.5,0,4.9,2.3,4.9,5.3v16.5h7.3v-18c0-7.5-4.9-10.6-10.1-10.6c-3.7,0-6.6,1.2-8.8,4.6c-1.4-3-4.5-4.6-8.3-4.6   c-3.1,0-6.6,1.5-8.1,4.2v-3.4h-7.2v27.8H372z M343.9,199.1c-8.3,0-14.6,6.2-14.6,14.8c0,8.5,6.3,14.8,14.6,14.8   c8.3,0,14.6-6.2,14.6-14.8C358.5,205.2,352.2,199.1,343.9,199.1 M343.9,221.8c-3.7,0-7.1-2.7-7.1-7.9c0-5.3,3.4-7.9,7.1-7.9   c3.7,0,7.1,2.7,7.1,7.9S347.6,221.8,343.9,221.8 M313.1,206c3.7,0,5.5,2.4,6.2,4.7l6.7-2.3c-1.2-4.7-5.5-9.4-13.1-9.4   c-8.1,0-14.4,6.2-14.4,14.8c0,8.5,6.4,14.8,14.6,14.8c7.4,0,11.8-4.7,13-9.4l-6.6-2.2c-0.6,2.2-2.5,4.7-6.4,4.7   c-3.8,0-7.1-2.8-7.1-7.9C306,208.8,309.2,206,313.1,206 M283.6,223c0,2.8,2.3,5.1,5.1,5.1c2.9,0,5.2-2.3,5.2-5.1   c0-2.8-2.3-5.1-5.2-5.1C285.9,217.8,283.6,220.2,283.6,223 M255.6,220c0.3,3.2,3.2,8.6,11.6,8.6c7.3,0,10.8-4.6,10.8-9.2   c0-4.1-2.8-7.4-8.3-8.5l-4-0.8c-1.5-0.3-2.5-1.1-2.5-2.5c0-1.6,1.6-2.8,3.6-2.8c3.2,0,4.4,2.1,4.6,3.7l6.3-1.4c-0.3-3-3-8-10.9-8   c-6,0-10.4,4.1-10.4,9.1c0,3.9,2.4,7.1,7.8,8.3l3.7,0.8c2.2,0.5,3,1.5,3,2.7c0,1.5-1.2,2.8-3.7,2.8c-3.3,0-4.9-2-5.1-4.2L255.6,220   z M249.9,186.8h-7.5v40.9h7.5V186.8z M229.8,217.9c-0.9,2.5-2.8,4.2-6.3,4.2c-3.7,0-6.8-2.7-7-6.3h19.9c0-0.1,0.1-1.2,0.1-2.3   c0-8.9-5.1-14.4-13.7-14.4c-7.1,0-13.7,5.8-13.7,14.6c0,9.4,6.7,14.9,14.4,14.9c6.8,0,11.3-4,12.7-8.8L229.8,217.9z M216.6,210.7   c0.2-2.5,2.3-5.5,6.2-5.5c4.3,0,6.1,2.7,6.2,5.5H216.6z M199.4,191.6h-6.8v3.9c0,2.5-1.4,4.4-4.3,4.4h-1.4v6.7h5v13   c0,5.4,3.4,8.6,8.8,8.6c2.2,0,3.6-0.4,4.2-0.7v-6.2c-0.4,0.1-1.4,0.2-2.3,0.2c-2.1,0-3.3-0.8-3.3-3.2v-11.7h5.6v-6.7h-5.6V191.6z    M161.7,220c0.3,3.2,3.2,8.6,11.6,8.6c7.3,0,10.8-4.6,10.8-9.2c0-4.1-2.8-7.4-8.3-8.5l-4-0.8c-1.5-0.3-2.5-1.1-2.5-2.5   c0-1.6,1.6-2.8,3.6-2.8c3.2,0,4.4,2.1,4.6,3.7l6.3-1.4c-0.3-3-3-8-10.9-8c-6,0-10.4,4.1-10.4,9.1c0,3.9,2.4,7.1,7.8,8.3l3.7,0.8   c2.2,0.5,3,1.5,3,2.7c0,1.5-1.2,2.8-3.7,2.8c-3.3,0-4.9-2-5.1-4.2L161.7,220z M143.5,199.1c-8.3,0-14.6,6.2-14.6,14.8   c0,8.5,6.3,14.8,14.6,14.8c8.3,0,14.6-6.2,14.6-14.8C158.1,205.2,151.8,199.1,143.5,199.1 M143.5,221.8c-3.7,0-7.1-2.7-7.1-7.9   c0-5.3,3.4-7.9,7.1-7.9c3.7,0,7.1,2.7,7.1,7.9S147.2,221.8,143.5,221.8 M105.5,211.4c0.2-3.1,2-5.4,5.2-5.4c3.6,0,5.2,2.4,5.2,5.5   v16.2h7.5v-17.5c0-6.1-3.3-11-10.3-11c-2.7,0-5.7,0.9-7.5,3.1v-15.4H98v40.9h7.5V211.4z M77.5,199.1c-8.3,0-14.6,6.2-14.6,14.8   c0,8.5,6.3,14.8,14.6,14.8c8.3,0,14.6-6.2,14.6-14.8C92.1,205.2,85.8,199.1,77.5,199.1 M77.5,221.8c-3.7,0-7.1-2.7-7.1-7.9   c0-5.3,3.4-7.9,7.1-7.9c3.7,0,7.1,2.7,7.1,7.9S81.1,221.8,77.5,221.8 M44,222.9c-2.4,0-3.6-1.6-3.6-3.2c0-2.2,1.5-3.2,3.5-3.5   l6.3-1v1.2C50.1,221.4,47.2,222.9,44,222.9 M32.9,220.2c0,4.4,3.6,8.4,9.6,8.4c4.1,0,6.8-1.9,8.2-4.1c0,1.1,0.1,2.6,0.3,3.3h6.9   c-0.2-1-0.3-2.9-0.3-4.4v-13.7c0-5.6-3.3-10.6-12.1-10.6c-7.5,0-11.5,4.8-11.9,9.2l6.7,1.4c0.2-2.4,2-4.5,5.3-4.5   c3.2,0,4.7,1.6,4.7,3.6c0,1-0.5,1.8-2.1,2l-6.8,1C36.6,212.4,32.9,215.2,32.9,220.2" stroke="black"/>
		

	</g>
	

</svg>