<?xml version="1.0" encoding="iso-8859-1"?><!-- Generator: Adobe Illustrator 16.0.0, SVG Export Plug-In . SVG Version: 6.00 Build 0)  --><!DOCTYPE svg  PUBLIC '-//W3C//DTD SVG 1.1//EN'  'http://www.w3.org/Graphics/SVG/1.1/DTD/svg11.dtd'><svg enable-background="new 0 0 160 28" height="28px" id="Logo" version="1.1" viewBox="0 0 160 28" width="160px" x="0px" xml:space="preserve" xmlns="http://www.w3.org/2000/svg" xmlns:xlink="http://www.w3.org/1999/xlink" y="0px">
	

	<g id="Text">
		
	
		
		
	
		
		
	
		
		
	
		
		
	
		
		
	
		
		
	
		
		

	</g>
	

	<path animation_id="7" d="M5.295,25.651c0,0.209-0.176,0.359-0.352,0.359H2.428c-0.205,0-0.381-0.15-0.381-0.359V2.695  c0-0.15,0.176-0.33,0.381-0.33h2.516c0.176,0,0.352,0.18,0.352,0.33V25.651z M11.878,25.651c0,0.209-0.176,0.359-0.352,0.359H9.011  c-0.205,0-0.38-0.15-0.38-0.359V2.695c0-0.15,0.175-0.33,0.38-0.33h2.516c0.176,0,0.352,0.18,0.352,0.33V25.651z M18.461,25.651  c0,0.209-0.175,0.359-0.352,0.359h-2.516c-0.205,0-0.38-0.15-0.38-0.359V2.695c0-0.15,0.175-0.33,0.38-0.33h2.516  c0.177,0,0.352,0.18,0.352,0.33V25.651z M25.073,25.651c0,0.209-0.176,0.359-0.351,0.359h-2.516c-0.205,0-0.381-0.15-0.381-0.359  V2.695c0-0.15,0.176-0.33,0.381-0.33h2.516c0.175,0,0.351,0.18,0.351,0.33V25.651z M50.966,2.334c0.204,0,0.351,0.182,0.351,0.361  v2.588c0,0.211-0.146,0.391-0.351,0.391H28.642c-0.146,0-0.321-0.18-0.321-0.391V2.695c0-0.18,0.176-0.361,0.321-0.361H50.966z   M50.966,9.134c0.204,0,0.351,0.181,0.351,0.361v2.587c0,0.21-0.146,0.391-0.351,0.391H28.642c-0.146,0-0.321-0.181-0.321-0.391  V9.495c0-0.181,0.176-0.361,0.321-0.361H50.966z M50.966,15.903c0.204,0,0.351,0.18,0.351,0.361v2.586  c0,0.213-0.146,0.393-0.351,0.393H28.642c-0.146,0-0.321-0.18-0.321-0.393v-2.586c0-0.182,0.176-0.361,0.321-0.361H50.966z   M50.966,22.67c0.204,0,0.351,0.182,0.351,0.361v2.588c0,0.211-0.146,0.391-0.351,0.391H28.642c-0.146,0-0.321-0.18-0.321-0.391  v-2.588c0-0.18,0.176-0.361,0.321-0.361H50.966z" id="Icon" stroke="black"/>
	

</svg>