<?xml version="1.0" encoding="iso-8859-1"?><!-- Generator: Adobe Illustrator 16.0.0, SVG Export Plug-In . SVG Version: 6.00 Build 0)  --><!DOCTYPE svg  PUBLIC '-//W3C//DTD SVG 1.1//EN'  'http://www.w3.org/Graphics/SVG/1.1/DTD/svg11.dtd'><svg enable-background="new 0 0 160 28" height="28px" id="Logo" version="1.1" viewBox="0 0 160 28" width="160px" x="0px" xml:space="preserve" xmlns="http://www.w3.org/2000/svg" xmlns:xlink="http://www.w3.org/1999/xlink" y="0px">
	

	<g id="Text">
		
	
		<path animation_id="0" d="M149.451,12.995c0.9-0.96,2.234-1.469,3.54-1.469c3.977,0,4.962,2.699,4.962,6.148v7.977   c0,0.211-0.145,0.359-0.348,0.359h-2.495c-0.203,0-0.378-0.148-0.378-0.359v-7.646c0-2.07-0.261-3.479-2.495-3.479   c-2.814,0-2.814,2.697-2.814,5.008v6.117c0,0.211-0.175,0.359-0.377,0.359h-2.496c-0.204,0-0.377-0.148-0.377-0.359V12.275   c0-0.15,0.173-0.33,0.377-0.33h2.496c0.202,0,0.377,0.18,0.377,0.33L149.451,12.995z" id="n" stroke="black"/>
		
	
		
		
	
		
		
	
		
		
	
		
		
	
		
		
	
		
		

	</g>
	

	
	

</svg>