<?xml version="1.0" encoding="iso-8859-1"?><!-- Generator: Adobe Illustrator 16.0.0, SVG Export Plug-In . SVG Version: 6.00 Build 0)  --><!DOCTYPE svg  PUBLIC '-//W3C//DTD SVG 1.1//EN'  'http://www.w3.org/Graphics/SVG/1.1/DTD/svg11.dtd'><svg enable-background="new 0 0 160 28" height="28px" id="Logo" version="1.1" viewBox="0 0 160 28" width="160px" x="0px" xml:space="preserve" xmlns="http://www.w3.org/2000/svg" xmlns:xlink="http://www.w3.org/1999/xlink" y="0px">
	

	<g id="Text">
		
	
		
		
	
		
		
	
		
		
	
		
		
	
		
		
	
		<path animation_id="5" d="M84.121,2.317c0-0.149,0.174-0.329,0.377-0.329h2.525c0.203,0,0.376,0.18,0.376,0.329v10.678   c1.075-1.2,2.467-1.92,4.15-1.92c3.976,0,6.442,3.48,6.442,7.378c0,4.02-2.322,7.559-6.559,7.559c-1.538,0-3.019-0.781-4.063-1.891   v1.08c0,0.209-0.173,0.359-0.376,0.359h-2.496c-0.203,0-0.377-0.15-0.377-0.359V2.317z M94.8,18.514c0-2.4-1.394-4.439-3.86-4.439   c-2.321,0-3.714,2.16-3.714,4.439c0,2.34,1.334,4.527,3.714,4.527C93.435,23.042,94.8,20.973,94.8,18.514" id="b" stroke="black"/>
		
	
		
		

	</g>
	

	
	

</svg>