<?xml version="1.0" encoding="iso-8859-1"?><!-- Created with Inkscape (http://www.inkscape.org/) --><svg height="73.300003" id="svg3849" inkscape:version="0.47 r22583" sodipodi:docname="New document 3" version="1.1" width="310.82999" xmlns="http://www.w3.org/2000/svg" xmlns:cc="http://creativecommons.org/ns#" xmlns:dc="http://purl.org/dc/elements/1.1/" xmlns:inkscape="http://www.inkscape.org/namespaces/inkscape" xmlns:rdf="http://www.w3.org/1999/02/22-rdf-syntax-ns#" xmlns:sodipodi="http://sodipodi.sourceforge.net/DTD/sodipodi-0.dtd" xmlns:svg="http://www.w3.org/2000/svg">
	
  
	<defs id="defs3851">
		
    
		<inkscape:perspective id="perspective3857" inkscape:persp3d-origin="372.04724 : 350.78739 : 1" inkscape:vp_x="0 : 526.18109 : 1" inkscape:vp_y="0 : 1000 : 0" inkscape:vp_z="744.09448 : 526.18109 : 1" sodipodi:type="inkscape:persp3d"/>
		
    
		<inkscape:perspective id="perspective3820" inkscape:persp3d-origin="0.5 : 0.33333333 : 1" inkscape:vp_x="0 : 0.5 : 1" inkscape:vp_y="0 : 1000 : 0" inkscape:vp_z="1 : 0.5 : 1" sodipodi:type="inkscape:persp3d"/>
		
    
		<clipPath clipPathUnits="userSpaceOnUse" id="clipPath822">
			
      
			
			
    
		</clipPath>
		
  
	</defs>
	
  
	<sodipodi:namedview bordercolor="#666666" borderopacity="1.0" id="base" inkscape:current-layer="layer1" inkscape:cx="155.71429" inkscape:cy="34.285714" inkscape:document-units="px" inkscape:pageopacity="0.0" inkscape:pageshadow="2" inkscape:window-height="678" inkscape:window-maximized="1" inkscape:window-width="1024" inkscape:window-x="-4" inkscape:window-y="-4" inkscape:zoom="2.7176471" pagecolor="#ffffff" showgrid="false"/>
	
  
	<metadata id="metadata3854">
		
    
		<rdf:RDF>
			
      
			<cc:Work rdf:about="">
				
        
				<dc:format>image/svg+xml</dc:format>
				
        
				<dc:type rdf:resource="http://purl.org/dc/dcmitype/StillImage"/>
				
        
				<dc:title/>
				
      
			</cc:Work>
			
    
		</rdf:RDF>
		
  
	</metadata>
	
  
	<g id="layer1" inkscape:groupmode="layer" inkscape:label="Layer 1" transform="translate(-94.158749,-391.85555)">
		
    
		<g id="g818" transform="matrix(1.25,0,0,-1.25,-6.3968102,1511.1612)">
			
      
			<g clip-path="url(#clipPath822)" id="g820">
				
        
				
				
        
				<g id="g832" transform="matrix(1.0786591,0,0,-1.0585022,21.157593,58.806427)">
					
          
					<g id="g834" transform="translate(117.484,-780.3909)">
						
            
						<path animation_id="1" d="m 0,0 6.336,0 0.504,11.304 -4.896,0 0,-1.944 -1.944,0 -2.088,0 -1.152,1.944 -1.008,0 -4.104,0 L -4.248,4.68 -1.44,0 0,0 z m 0,6.624 1.728,0 0,-3.816 L 0,5.904 -0.432,6.624 0,6.624 z m 7.704,9.864 0,0.36 -0.72,2.736 -6.192,-0.072 c -0.288,0 -0.576,0.072 -0.792,0.216 -0.72,0.36 -1.08,1.224 -1.368,2.088 l 1.368,0 5.544,0 -0.864,2.664 -4.68,0 -2.232,0 -0.936,3.384 -1.08,0 -4.032,0 3.096,-10.224 c 0.216,-0.576 0.504,-0.936 0.936,-1.08 0.144,0 0.288,-0.072 0.432,-0.072 l 3.816,0 7.704,0 z M 21.888,0 l 0.576,0 -0.576,1.8 -0.432,1.584 -5.832,0 c -0.576,0 -0.648,0.144 -0.792,0.648 0,0.072 0,0.144 -0.072,0.288 -0.144,0.72 -0.576,2.448 -0.72,3.168 -0.072,0.648 0.648,0.648 0.648,0.648 l 0.072,3.168 0,-3.168 5.328,0 -1.152,3.168 -4.176,0 -5.472,0 c -0.792,0 -1.44,-1.008 -1.152,-1.944 L 10.728,1.008 C 10.944,0.288 11.304,0 12.096,0 l 2.664,0 7.128,0 z m -7.128,16.488 5.112,0 0.432,11.376 -4.896,0 0,-2.016 -0.648,0 -3.384,0 -1.44,2.016 -2.232,0 -2.592,0 2.592,-4.32 4.392,-7.056 2.664,0 z m 0,6.624 0.432,0 0,-3.816 -0.432,0.792 -1.656,3.024 1.656,0 z m 23.832,-6.624 0.288,0 -0.288,0.792 -3.096,10.584 -0.144,-11.376 0,11.376 -4.536,0 0,-0.576 1.152,-3.744 -1.152,0 -3.24,0 -1.296,4.32 -3.024,0 -1.368,0 -0.504,0 0.504,-1.728 1.368,-4.248 1.656,-5.328 4.752,-0.072 -1.152,3.96 2.304,0 2.088,0 1.152,-3.96 1.296,0 3.24,0 z m 0.432,-15.696 -0.432,0.36 -3.24,2.52 -2.664,2.016 2.664,3.456 1.656,2.16 -1.656,0 -4.032,0 -0.504,-0.576 -3.456,-4.104 -1.368,4.68 -2.736,0 -1.368,0 -0.504,0 L 21.888,9.576 23.256,5.112 24.768,0 29.232,0 27.936,4.104 30.816,2.232 34.2,0 l 1.152,0 3.24,0 0.432,0 1.08,0 -1.08,0.792 z m 7.776,20.592 1.944,0 c 0.936,0 1.44,-2.088 0.647,-2.088 l -2.591,0 -1.153,0 -0.647,2.088 1.8,0 z m 8.136,-3.456 c 0,0.072 0,0.216 -0.072,0.288 l -1.08,4.392 -0.072,0.216 c -0.432,1.44 -2.52,1.152 -3.456,1.152 l 3.024,3.888 -5.832,0 -0.648,-0.936 -2.376,-3.456 -1.296,4.392 -4.104,0 -0.432,0 -0.216,0 0.216,-0.792 0.432,-1.368 2.808,-9.144 4.968,0 6.839,-0.072 c 0.72,0.072 1.225,0.432 1.297,1.152 l 0,0.288 z M 53.784,0 l 0.288,0 -0.288,1.08 -0.577,1.728 -6.407,0 -0.576,0 c -0.792,0 -1.152,1.728 -0.504,1.728 l 1.08,0 5.256,0 -0.72,2.376 -4.536,0 -1.872,0 c -0.72,0 -1.152,1.656 -0.288,1.656 l 2.16,0 4.752,0 -0.793,2.736 -3.959,0 -6.624,0 c -0.504,0 -0.864,-0.144 -1.152,-0.432 -0.288,-0.36 -0.36,-0.864 -0.216,-1.512 L 39.024,8.496 41.112,1.008 C 41.4,0.072 41.688,0 42.84,0 l 3.96,0 6.984,0 z m 7.343,4.824 2.737,0 c 0.936,0 1.44,-2.016 0.648,-2.016 l -3.385,0 -0.719,2.016 0.719,0 z m 8.712,-4.32 c 0.217,0.288 0.217,0.72 0.144,1.224 l -0.144,0.504 -0.503,2.016 -0.505,2.016 c -0.432,1.368 -2.088,1.224 -3.312,1.224 l 0,0.216 2.88,3.6 -2.88,0 -2.952,0 -1.44,-1.8 -1.511,-2.016 -1.152,3.816 -3.528,0 -1.152,0 -0.36,0 0.36,-1.08 1.152,-3.816 1.943,-6.408 4.248,0 4.392,0 3.24,0 c 0.217,0 0.432,0 0.577,0.072 0.215,0.144 0.36,0.288 0.503,0.432 m 0.72,17.568 -0.36,1.224 -0.36,0.216 -0.503,0.288 -3.817,2.448 -4.392,2.736 4.392,0.072 2.952,0 -0.935,2.808 -2.017,0 -4.392,0 -6.191,0 0.791,-2.808 5.4,-3.6 3.169,-2.16 -3.169,0 -3.671,0 0.864,-2.808 2.807,0 4.392,0 3.817,0 0.503,0 0.72,0 0.505,0 -0.505,1.584 z m 14.76,-0.432 -0.504,1.656 -7.056,0 c -0.288,0 -0.503,0.216 -0.648,0.432 -0.287,0.504 -0.287,1.152 0,1.296 l 6.408,0 -0.648,2.376 -5.76,0 -0.648,0 c -0.72,0 -1.152,1.656 -0.287,1.656 l 0.935,0 5.976,0 -0.791,2.808 -5.185,0 -5.4,0 c -0.432,0 -0.864,-0.144 -1.152,-0.36 -0.36,-0.36 -0.576,-0.864 -0.432,-1.512 l 0.432,-1.44 2.088,-7.056 c 0.289,-1.08 0.937,-1.008 1.729,-0.936 l 2.735,0 8.208,-0.072 0.288,0 -0.288,1.152 z m 5.832,-14.328 -2.376,7.992 -3.456,0 -1.152,0 1.152,-3.816 0.504,-1.728 -0.504,0.504 -5.4,5.04 -2.808,-4.032 -1.008,-1.512 -1.656,5.544 -3.888,0 -0.72,0 -0.216,0 0.216,-0.576 0.72,-2.448 2.448,-8.28 4.104,0 0.865,0 4.175,4.104 3.168,-2.376 2.232,-1.728 3.6,0 1.08,0 -1.08,3.312 z m 10.44,13.176 -2.232,7.632 -0.576,1.944 c -0.36,1.296 -0.792,1.8 -1.944,1.8 l -5.688,0 -5.04,0 c -0.36,0 -0.648,-0.144 -0.792,-0.36 -0.504,-0.576 -0.36,-1.8 -0.144,-2.448 l 0.144,-0.576 2.376,-7.92 3.456,0 1.368,-0.072 -1.368,4.68 -0.72,2.52 c -0.216,0.648 0.288,0.792 0.72,0.792 l 2.304,0 c 0.504,0 1.081,-0.144 1.152,-0.792 l 2.232,-7.128 2.52,0 2.232,-0.072 z m -2.232,-9.864 0.936,0 -0.072,-3.816 -0.864,1.512 -1.296,2.304 1.296,0 z M 101.591,0 l 3.312,0 0.432,11.304 -3.744,0 -1.08,0 -0.072,-1.872 -1.08,0 -2.952,0 -1.44,1.944 -3.816,-0.072 -1.008,0 1.008,-1.656 5.976,-9.648 2.232,0 2.232,0 z m 16.632,16.56 -0.864,2.952 -2.304,0 -4.536,0 -1.224,0 c -0.504,0 -0.72,0.504 -0.864,1.008 l -0.792,3.24 c -0.144,0.576 0.288,0.72 0.72,0.72 l 2.16,0 0.504,0 0.864,-2.664 3.168,0 1.656,0 -1.656,5.256 -0.216,0.792 -4.32,0 -7.992,0 c -0.576,0 -0.864,-0.432 -0.936,-0.936 l 0,-0.504 c 0.072,-0.144 0.072,-0.288 0.144,-0.432 l 2.448,-8.352 c 0.216,-0.792 0.432,-1.08 1.224,-1.08 l 5.112,0 4.536,0 3.168,0 z m 6.48,-15.408 -2.808,10.152 -3.672,0 -0.576,0 -2.592,-2.88 -2.088,-2.448 -1.728,5.328 -0.72,0 -4.176,0 3.456,-11.304 0.72,0 4.392,0 0.144,0.216 3.168,3.672 0.936,1.08 1.656,-4.968 3.888,0 0.288,0 -0.288,1.152 z m 2.952,19.656 1.656,0 c 0.792,0 0.864,-1.872 0,-1.872 l -1.656,0 -1.872,0 -0.504,1.872 2.376,0 z m 0,4.248 0.504,0 c 0.576,0 0.864,-1.656 0,-1.872 l -0.504,0 -2.952,-0.072 -0.72,1.944 0.72,0 2.952,0 z m 6.912,-4.392 c -0.576,1.08 -1.44,1.152 -1.44,1.152 0.576,0.576 0.792,1.44 0.576,3.024 -0.288,1.296 -1.08,3.024 -3.312,3.024 l -2.736,0 -2.952,0 -6.48,0 3.384,-11.376 3.096,0.072 2.952,0 5.976,0 c 0.36,0 0.648,0.144 0.936,0.432 0.288,0.36 0.504,0.864 0.432,1.512 0,1.008 -0.216,1.656 -0.432,2.16 m 0,-18.576 2.664,3.024 1.584,-5.112 4.176,0 -3.096,11.304 -4.536,0 -0.792,-1.008 -3.6,-4.32 -1.8,5.328 -1.512,0 -2.952,0 -0.36,0 0.36,-1.008 2.952,-9.648 0.144,-0.648 4.824,0 1.944,2.088 z m 25.992,21.6 2.232,-7.128 4.824,-0.072 -2.88,9.576 c -0.36,1.296 -0.792,1.8 -2.016,1.8 l -10.656,0 c -1.296,0 -1.224,-1.872 -0.936,-2.808 l 2.52,-8.496 4.824,-0.072 -2.088,7.2 c -0.216,0.648 0.288,0.936 0.72,0.936 l 2.52,0 c 0.432,0 0.864,-0.288 0.936,-0.936 m -17.424,-7.2 5.688,0 0.432,11.376 -4.896,0 0,-2.016 -1.224,0 -2.808,0 -1.44,2.016 -4.32,0 -0.504,0 0.504,-0.792 6.48,-10.584 2.088,0 z m 0,6.624 1.008,0 0,-3.816 -1.008,1.944 -1.08,1.872 1.08,0 z" id="path836" stroke="black" style="fill:#b1b3b4;fill-opacity:1;fill-rule:nonzero;"/>
						
          
					</g>
					
        
				</g>
				
        
				<g id="g838" transform="matrix(1.0786591,0,0,-1.0585022,21.157593,58.806427)">
					
          
					<g id="g840" transform="translate(113.236,-763.8311)">
						
            
						
						
          
					</g>
					
        
				</g>
				
        
				<g id="g844" transform="matrix(1.0786591,0,0,-1.0585022,21.157593,58.806427)">
					
          
					<g id="g846" transform="translate(89.2191,-759.0348)">
						
            
						
						
          
					</g>
					
        
				</g>
				
        
				<g id="g850" transform="matrix(1.0786591,0,0,-1.0585022,21.157593,58.806427)">
					
          
					<g id="g852" transform="translate(117.484,-696.3908)">
						
            
						
						
          
					</g>
					
        
				</g>
				
        
				<g id="g856" transform="matrix(1.0786591,0,0,-1.0585022,21.157593,58.806427)">
					
          
					<g id="g858" transform="translate(113.236,-679.8311)">
						
            
						
						
          
					</g>
					
        
				</g>
				
        
				<g id="g862" transform="matrix(1.0786591,0,0,-1.0585022,21.157593,58.806427)">
					
          
					<g id="g864" transform="translate(89.2191,-675.0348)">
						
            
						
						
          
					</g>
					
        
				</g>
				
      
			</g>
			
    
		</g>
		
  
	</g>
	

</svg>