<?xml version="1.0" encoding="iso-8859-1"?><!-- Created with Inkscape (http://www.inkscape.org/) --><svg height="73.300003" id="svg3849" inkscape:version="0.47 r22583" sodipodi:docname="New document 3" version="1.1" width="310.82999" xmlns="http://www.w3.org/2000/svg" xmlns:cc="http://creativecommons.org/ns#" xmlns:dc="http://purl.org/dc/elements/1.1/" xmlns:inkscape="http://www.inkscape.org/namespaces/inkscape" xmlns:rdf="http://www.w3.org/1999/02/22-rdf-syntax-ns#" xmlns:sodipodi="http://sodipodi.sourceforge.net/DTD/sodipodi-0.dtd" xmlns:svg="http://www.w3.org/2000/svg">
	
  
	<defs id="defs3851">
		
    
		<inkscape:perspective id="perspective3857" inkscape:persp3d-origin="372.04724 : 350.78739 : 1" inkscape:vp_x="0 : 526.18109 : 1" inkscape:vp_y="0 : 1000 : 0" inkscape:vp_z="744.09448 : 526.18109 : 1" sodipodi:type="inkscape:persp3d"/>
		
    
		<inkscape:perspective id="perspective3820" inkscape:persp3d-origin="0.5 : 0.33333333 : 1" inkscape:vp_x="0 : 0.5 : 1" inkscape:vp_y="0 : 1000 : 0" inkscape:vp_z="1 : 0.5 : 1" sodipodi:type="inkscape:persp3d"/>
		
    
		<clipPath clipPathUnits="userSpaceOnUse" id="clipPath822">
			
      
			
			
    
		</clipPath>
		
  
	</defs>
	
  
	<sodipodi:namedview bordercolor="#666666" borderopacity="1.0" id="base" inkscape:current-layer="layer1" inkscape:cx="155.71429" inkscape:cy="34.285714" inkscape:document-units="px" inkscape:pageopacity="0.0" inkscape:pageshadow="2" inkscape:window-height="678" inkscape:window-maximized="1" inkscape:window-width="1024" inkscape:window-x="-4" inkscape:window-y="-4" inkscape:zoom="2.7176471" pagecolor="#ffffff" showgrid="false"/>
	
  
	<metadata id="metadata3854">
		
    
		<rdf:RDF>
			
      
			<cc:Work rdf:about="">
				
        
				<dc:format>image/svg+xml</dc:format>
				
        
				<dc:type rdf:resource="http://purl.org/dc/dcmitype/StillImage"/>
				
        
				<dc:title/>
				
      
			</cc:Work>
			
    
		</rdf:RDF>
		
  
	</metadata>
	
  
	<g id="layer1" inkscape:groupmode="layer" inkscape:label="Layer 1" transform="translate(-94.158749,-391.85555)">
		
    
		<g id="g818" transform="matrix(1.25,0,0,-1.25,-6.3968102,1511.1612)">
			
      
			<g clip-path="url(#clipPath822)" id="g820">
				
        
				
				
        
				<g id="g832" transform="matrix(1.0786591,0,0,-1.0585022,21.157593,58.806427)">
					
          
					<g id="g834" transform="translate(117.484,-780.3909)">
						
            
						
						
          
					</g>
					
        
				</g>
				
        
				<g id="g838" transform="matrix(1.0786591,0,0,-1.0585022,21.157593,58.806427)">
					
          
					<g id="g840" transform="translate(113.236,-763.8311)">
						
            
						
						
          
					</g>
					
        
				</g>
				
        
				<g id="g844" transform="matrix(1.0786591,0,0,-1.0585022,21.157593,58.806427)">
					
          
					<g id="g846" transform="translate(89.2191,-759.0348)">
						
            
						
						
          
					</g>
					
        
				</g>
				
        
				<g id="g850" transform="matrix(1.0786591,0,0,-1.0585022,21.157593,58.806427)">
					
          
					<g id="g852" transform="translate(117.484,-696.3908)">
						
            
						
						
          
					</g>
					
        
				</g>
				
        
				<g id="g856" transform="matrix(1.0786591,0,0,-1.0585022,21.157593,58.806427)">
					
          
					<g id="g858" transform="translate(113.236,-679.8311)">
						
            
						
						
          
					</g>
					
        
				</g>
				
        
				<g id="g862" transform="matrix(1.0786591,0,0,-1.0585022,21.157593,58.806427)">
					
          
					<g id="g864" transform="translate(89.2191,-675.0348)">
						
            
						<path animation_id="6" d="m 0,0 -12.213,-0.055 -1.033,1.79 1.1,2.225 10.112,0.113 -1.859,3.22 -6.662,-0.029 3.251,6.488 -2.36,4.363 -6.13,-11.968 -8.607,14.909 38.007,-0.002 -0.035,-49.794 -9.258,0.061 -7.575,13.12 5.099,9.623 -5.363,-0.075 -1.22,-2.295 -2.647,-0.097 -2.823,4.89 L 1.878,-3.528 0,0 z m -12.213,-0.055 -2.033,-0.06 1,1.85 1.033,-1.79 z m -3.581,6.202 -2.219,-4.143 -10.949,18.963 4.561,0.089 8.607,-14.909 z m 0.948,-9.63 4.63,-0.03 2.823,-4.89 -4.629,0.03 -2.824,4.89 z m 19.159,-25.196 -7.575,13.12 -2.219,-4.144 5.164,-8.945 4.63,-0.031 z m -13.994,16.252 1.446,-2.505 1.389,2.551 -2.835,-0.046 z m -8.332,14.431 -2.88,-5.479 6.047,-0.008 2.824,-4.89 -2.34,-0.078 -1.258,2.454 -5.313,0.113 11.109,-20.62 0.684,-0.082 3.659,6.883 5.164,-8.945 -32.832,0.127 -0.015,49.606 4.202,-0.118 10.949,-18.963 z m 9.778,-16.936 -1.446,2.505 -2.528,-0.029 2.704,-4.959 1.27,2.483 z m -24.794,-13.52 z" id="path866" stroke="black" style="fill:#e20015;fill-opacity:1;fill-rule:nonzero;"/>
						
          
					</g>
					
        
				</g>
				
      
			</g>
			
    
		</g>
		
  
	</g>
	

</svg>