<?xml version="1.0" encoding="iso-8859-1"?><!DOCTYPE svg  PUBLIC '-//W3C//DTD SVG 1.1//EN'  'http://www.w3.org/Graphics/SVG/1.1/DTD/svg11.dtd'><!-- Creator: CorelDRAW X6 --><svg height="2.90278in" style="shape-rendering:geometricPrecision; text-rendering:geometricPrecision; image-rendering:optimizeQuality; fill-rule:evenodd; clip-rule:evenodd" version="1.1" viewBox="0 0 8389 2903" width="8.38889in" xml:space="preserve" xmlns="http://www.w3.org/2000/svg" xmlns:xlink="http://www.w3.org/1999/xlink">
	
 
	<defs>
		
  
		<style type="text/css">
			
   
<![CDATA[
    .fil0 {fill:#00A1CF;fill-rule:nonzero}
   ]]>			
  
		</style>
		
 
	</defs>
	
 
	<g id="Layer_x0020_1">
		
  
		<metadata id="CorelCorpID_0Corel-Layer"/>
		
  
		
		
  
		
		
  
		
		
  
		
		
  
		
		
  
		
		
  
		
		
  
		
		
  
		
		
  
		
		
  
		
		
  
		
		
  
		
		
  
		
		
  
		
		
  
		
		
  
		
		
  
		
		
  
		
		
  
		
		
  
		
		
  
		
		
  
		
		
  
		
		
  
		
		
  
		
		
  
		
		
  
		
		
  
		
		
  
		
		
  
		
		
  
		
		
  
		<path animation_id="27" class="fil0" d="M7525 2688c0,32 4,55 12,68 8,13 24,19 49,19 25,0 41,-6 49,-19 8,-13 11,-35 11,-68 0,-32 -4,-54 -13,-67 -9,-12 -24,-18 -47,-18 -23,0 -39,6 -48,18 -9,12 -13,34 -13,67zm-34 1c0,-40 7,-69 22,-87 14,-18 39,-27 73,-27 34,0 58,9 73,27 14,18 21,47 21,87 0,40 -7,69 -20,88 -14,18 -38,27 -74,27 -36,0 -60,-9 -74,-27 -14,-18 -20,-47 -20,-88z" stroke="black"/>
		
  
		
		
  
		
		
 
	</g>
	

</svg>