<?xml version="1.0" encoding="iso-8859-1"?><!DOCTYPE svg  PUBLIC '-//W3C//DTD SVG 1.1//EN'  'http://www.w3.org/Graphics/SVG/1.1/DTD/svg11.dtd'><!-- Creator: CorelDRAW X6 --><svg height="2.90278in" style="shape-rendering:geometricPrecision; text-rendering:geometricPrecision; image-rendering:optimizeQuality; fill-rule:evenodd; clip-rule:evenodd" version="1.1" viewBox="0 0 8389 2903" width="8.38889in" xml:space="preserve" xmlns="http://www.w3.org/2000/svg" xmlns:xlink="http://www.w3.org/1999/xlink">
	
 
	<defs>
		
  
		<style type="text/css">
			
   
<![CDATA[
    .fil0 {fill:#00A1CF;fill-rule:nonzero}
   ]]>			
  
		</style>
		
 
	</defs>
	
 
	<g id="Layer_x0020_1">
		
  
		<metadata id="CorelCorpID_0Corel-Layer"/>
		
  
		
		
  
		
		
  
		
		
  
		
		
  
		
		
  
		
		
  
		
		
  
		
		
  
		
		
  
		<path animation_id="7" class="fil0" d="M2649 1123c0,-98 -50,-184 -125,-235 30,45 48,99 48,157 0,0 0,1134 0,1143 0,8 -4,14 -12,14 -9,0 -505,0 -513,0 -9,0 -12,-3 -12,-12 0,-9 0,-1112 0,-1112 0,0 -2,-125 -107,-126 -119,-2 -119,126 -119,126 0,0 0,1105 0,1112 0,8 -3,12 -12,12 -9,0 -972,0 -972,0 -157,0 -284,-127 -284,-284l0 -336c0,-243 44,-434 285,-565 86,-53 195,-66 230,-69 7,-1 11,2 11,8 0,6 0,910 0,910 0,65 46,118 102,118 57,0 103,-53 103,-118l0 -1284c0,-65 -46,-118 -103,-118 -57,0 -102,53 -102,118 0,0 0,219 0,223 0,6 -2,9 -9,9 -6,0 -502,0 -509,0 -6,0 -8,-3 -8,-8 0,-46 0,-257 0,-264 0,-147 128,-267 284,-267l700 0c157,0 284,120 284,267 0,5 0,219 0,219l480 0c68,0 131,24 180,64 -172,-472 -625,-813 -1161,-828l-72 0c-685,19 -1235,570 -1235,1248 0,689 569,1248 1271,1248 264,0 509,-79 713,-215l653 0 0 0c9,0 12,-6 12,-14 0,-9 0,-1143 0,-1143z" stroke="black"/>
		
  
		
		
  
		
		
  
		
		
  
		
		
  
		
		
  
		
		
  
		
		
  
		
		
  
		
		
  
		
		
  
		
		
  
		
		
  
		
		
  
		
		
  
		
		
  
		
		
  
		
		
  
		
		
  
		
		
  
		
		
  
		
		
  
		
		
  
		
		
  
		
		
  
		
		
 
	</g>
	

</svg>