<?xml version="1.0" encoding="iso-8859-1"?><!DOCTYPE svg  PUBLIC '-//W3C//DTD SVG 1.1//EN'  'http://www.w3.org/Graphics/SVG/1.1/DTD/svg11.dtd'><!-- Creator: CorelDRAW X6 --><svg height="2.90278in" style="shape-rendering:geometricPrecision; text-rendering:geometricPrecision; image-rendering:optimizeQuality; fill-rule:evenodd; clip-rule:evenodd" version="1.1" viewBox="0 0 8389 2903" width="8.38889in" xml:space="preserve" xmlns="http://www.w3.org/2000/svg" xmlns:xlink="http://www.w3.org/1999/xlink">
	
 
	<defs>
		
  
		<style type="text/css">
			
   
<![CDATA[
    .fil0 {fill:#00A1CF;fill-rule:nonzero}
   ]]>			
  
		</style>
		
 
	</defs>
	
 
	<g id="Layer_x0020_1">
		
  
		<metadata id="CorelCorpID_0Corel-Layer"/>
		
  
		
		
  
		
		
  
		
		
  
		
		
  
		
		
  
		
		
  
		
		
  
		
		
  
		
		
  
		
		
  
		
		
  
		
		
  
		
		
  
		
		
  
		
		
  
		
		
  
		
		
  
		
		
  
		
		
  
		
		
  
		
		
  
		
		
  
		
		
  
		
		
  
		
		
  
		
		
  
		
		
  
		
		
  
		
		
  
		
		
  
		
		
  
		
		
  
		
		
  
		<path animation_id="28" class="fil0" d="M7760 2650c0,17 4,30 12,37 8,7 21,11 39,11 18,0 31,-4 38,-11 8,-7 11,-20 11,-37 0,-17 -4,-30 -11,-37 -8,-7 -20,-11 -38,-11 -18,0 -31,4 -39,11 -8,7 -12,20 -12,37zm-3 184c0,16 4,26 13,32 9,6 25,9 48,9 23,0 40,-3 50,-10 10,-6 15,-17 15,-32 0,-15 -4,-25 -11,-29 -7,-4 -22,-7 -43,-7l-48 -2c-10,7 -16,13 -20,19 -3,5 -5,12 -5,20zm62 69c-35,0 -60,-5 -74,-14 -14,-10 -21,-27 -21,-52 0,-12 3,-22 8,-29 5,-7 14,-16 27,-25 -8,-6 -12,-16 -12,-30 0,-5 4,-14 11,-28l4 -7c-23,-11 -35,-33 -35,-66 0,-50 27,-75 82,-75 14,0 27,1 39,4l7 1 65 -2 0 28 -42 -1c10,10 15,24 15,44 0,28 -7,47 -20,58 -14,11 -35,17 -65,17 -8,0 -15,-1 -22,-2 -5,13 -8,21 -8,25 0,9 3,15 8,17 6,2 22,3 51,3 28,0 48,4 61,13 12,9 19,26 19,52 0,47 -33,70 -98,70z" stroke="black"/>
		
  
		
		
 
	</g>
	

</svg>