<?xml version="1.0" encoding="iso-8859-1"?><!DOCTYPE svg  PUBLIC '-//W3C//DTD SVG 1.1//EN'  'http://www.w3.org/Graphics/SVG/1.1/DTD/svg11.dtd'><!-- Creator: CorelDRAW X6 --><svg height="2.90278in" style="shape-rendering:geometricPrecision; text-rendering:geometricPrecision; image-rendering:optimizeQuality; fill-rule:evenodd; clip-rule:evenodd" version="1.1" viewBox="0 0 8389 2903" width="8.38889in" xml:space="preserve" xmlns="http://www.w3.org/2000/svg" xmlns:xlink="http://www.w3.org/1999/xlink">
	
 
	<defs>
		
  
		<style type="text/css">
			
   
<![CDATA[
    .fil0 {fill:#00A1CF;fill-rule:nonzero}
   ]]>			
  
		</style>
		
 
	</defs>
	
 
	<g id="Layer_x0020_1">
		
  
		<metadata id="CorelCorpID_0Corel-Layer"/>
		
  
		
		
  
		
		
  
		<path animation_id="2" class="fil0" d="M4576 1551c-43,50 -68,93 -74,127 -7,34 -10,83 -10,147 0,73 3,120 9,142 6,21 18,32 35,32 17,0 28,-8 33,-25 5,-17 8,-61 8,-132l0 -291zm-85 -194l-250 0 0 -95c0,-109 8,-194 23,-253 16,-59 47,-112 94,-157 47,-45 108,-68 184,-68 90,0 158,26 204,77 46,52 73,115 83,190 9,75 14,229 14,463l0 710 -260 0 0 -126c-16,51 -37,88 -63,114 -26,25 -57,38 -92,38 -47,0 -90,-21 -129,-63 -39,-42 -58,-135 -58,-278l0 -116c0,-106 10,-178 31,-216 21,-38 72,-83 154,-134 88,-55 135,-93 141,-112 6,-19 9,-58 9,-117 0,-74 -3,-122 -10,-144 -7,-22 -18,-34 -34,-34 -18,0 -29,9 -34,28 -4,19 -7,68 -7,147l0 148z" stroke="black"/>
		
  
		
		
  
		
		
  
		
		
  
		
		
  
		
		
  
		
		
  
		
		
  
		
		
  
		
		
  
		
		
  
		
		
  
		
		
  
		
		
  
		
		
  
		
		
  
		
		
  
		
		
  
		
		
  
		
		
  
		
		
  
		
		
  
		
		
  
		
		
  
		
		
  
		
		
  
		
		
  
		
		
  
		
		
  
		
		
  
		
		
  
		
		
  
		
		
 
	</g>
	

</svg>