<?xml version="1.0" encoding="iso-8859-1"?><!DOCTYPE svg  PUBLIC '-//W3C//DTD SVG 1.1//EN'  'http://www.w3.org/Graphics/SVG/1.1/DTD/svg11.dtd'><!-- Creator: CorelDRAW X6 --><svg height="2.90278in" style="shape-rendering:geometricPrecision; text-rendering:geometricPrecision; image-rendering:optimizeQuality; fill-rule:evenodd; clip-rule:evenodd" version="1.1" viewBox="0 0 8389 2903" width="8.38889in" xml:space="preserve" xmlns="http://www.w3.org/2000/svg" xmlns:xlink="http://www.w3.org/1999/xlink">
	
 
	<defs>
		
  
		<style type="text/css">
			
   
<![CDATA[
    .fil0 {fill:#00A1CF;fill-rule:nonzero}
   ]]>			
  
		</style>
		
 
	</defs>
	
 
	<g id="Layer_x0020_1">
		
  
		<metadata id="CorelCorpID_0Corel-Layer"/>
		
  
		
		
  
		
		
  
		
		
  
		
		
  
		
		
  
		
		
  
		
		
  
		
		
  
		
		
  
		
		
  
		
		
  
		
		
  
		<path animation_id="9" class="fil0" d="M3412 2604c-9,0 -18,1 -28,4 -10,3 -18,6 -24,9l-8 4 0 148c21,3 37,5 48,5 24,0 40,-7 50,-20 10,-14 14,-36 14,-66 0,-31 -4,-52 -13,-65 -9,-13 -21,-19 -38,-19zm-94 293l0 -318 33 0 0 16c22,-14 44,-20 66,-20 28,0 48,9 61,27 13,18 19,47 19,88 0,41 -7,70 -22,88 -15,18 -39,27 -74,27 -18,0 -34,-2 -49,-5l0 98 -33 0z" stroke="black"/>
		
  
		
		
  
		
		
  
		
		
  
		
		
  
		
		
  
		
		
  
		
		
  
		
		
  
		
		
  
		
		
  
		
		
  
		
		
  
		
		
  
		
		
  
		
		
  
		
		
  
		
		
  
		
		
  
		
		
  
		
		
  
		
		
  
		
		
 
	</g>
	

</svg>