<?xml version="1.0" encoding="iso-8859-1"?><!DOCTYPE svg  PUBLIC '-//W3C//DTD SVG 1.1//EN'  'http://www.w3.org/Graphics/SVG/1.1/DTD/svg11.dtd'><!-- Creator: CorelDRAW X6 --><svg height="2.90278in" style="shape-rendering:geometricPrecision; text-rendering:geometricPrecision; image-rendering:optimizeQuality; fill-rule:evenodd; clip-rule:evenodd" version="1.1" viewBox="0 0 8389 2903" width="8.38889in" xml:space="preserve" xmlns="http://www.w3.org/2000/svg" xmlns:xlink="http://www.w3.org/1999/xlink">
	
 
	<defs>
		
  
		<style type="text/css">
			
   
<![CDATA[
    .fil0 {fill:#00A1CF;fill-rule:nonzero}
   ]]>			
  
		</style>
		
 
	</defs>
	
 
	<g id="Layer_x0020_1">
		
  
		<metadata id="CorelCorpID_0Corel-Layer"/>
		
  
		
		
  
		<path animation_id="1" class="fil0" d="M3903 1165c0,-52 -3,-87 -8,-104 -5,-18 -16,-27 -33,-27 -16,0 -27,8 -32,24 -6,16 -8,52 -8,107l0 693c0,58 3,95 8,113 5,18 15,27 30,27 17,0 29,-10 34,-30 6,-20 9,-70 9,-149l0 -654zm267 -667l0 1726 -267 0 0 -103c-26,43 -52,75 -81,96 -28,21 -58,32 -89,32 -41,0 -77,-18 -108,-53 -30,-35 -50,-76 -58,-122 -9,-46 -13,-122 -13,-226l0 -662c0,-109 4,-186 13,-231 9,-45 28,-85 59,-120 31,-34 68,-52 110,-52 33,0 63,10 91,29 28,19 53,48 75,87l0 -401 267 0z" stroke="black"/>
		
  
		
		
  
		
		
  
		
		
  
		
		
  
		
		
  
		
		
  
		
		
  
		
		
  
		
		
  
		
		
  
		
		
  
		
		
  
		
		
  
		
		
  
		
		
  
		
		
  
		
		
  
		
		
  
		
		
  
		
		
  
		
		
  
		
		
  
		
		
  
		
		
  
		
		
  
		
		
  
		
		
  
		
		
  
		
		
  
		
		
  
		
		
  
		
		
  
		
		
 
	</g>
	

</svg>