<?xml version="1.0" encoding="iso-8859-1"?><!DOCTYPE svg  PUBLIC '-//W3C//DTD SVG 1.1//EN'  'http://www.w3.org/Graphics/SVG/1.1/DTD/svg11.dtd'><!-- Creator: CorelDRAW X6 --><svg height="2.90278in" style="shape-rendering:geometricPrecision; text-rendering:geometricPrecision; image-rendering:optimizeQuality; fill-rule:evenodd; clip-rule:evenodd" version="1.1" viewBox="0 0 8389 2903" width="8.38889in" xml:space="preserve" xmlns="http://www.w3.org/2000/svg" xmlns:xlink="http://www.w3.org/1999/xlink">
	
 
	<defs>
		
  
		<style type="text/css">
			
   
<![CDATA[
    .fil0 {fill:#00A1CF;fill-rule:nonzero}
   ]]>			
  
		</style>
		
 
	</defs>
	
 
	<g id="Layer_x0020_1">
		
  
		<metadata id="CorelCorpID_0Corel-Layer"/>
		
  
		
		
  
		
		
  
		
		
  
		
		
  
		
		
  
		
		
  
		
		
  
		
		
  
		<path animation_id="6" class="fil0" d="M8287 586l17 0c11,0 19,-2 19,-14 0,-11 -11,-12 -20,-12l-17 0 0 26zm106 12l0 -7c-2,-52 -44,-84 -90,-84 -48,0 -91,34 -91,88 0,54 43,88 91,88 47,0 89,-33 90,-85zm-126 -53l37 0c25,0 39,8 39,29 0,18 -11,25 -26,26l26 43 -21 0 -24 -42 -12 0 0 42 -20 0 0 -99zm35 119c37,0 66,-29 66,-70 0,-40 -30,-69 -66,-69 -37,0 -66,29 -66,69 0,40 29,70 66,70z" stroke="black"/>
		
  
		
		
  
		
		
  
		
		
  
		
		
  
		
		
  
		
		
  
		
		
  
		
		
  
		
		
  
		
		
  
		
		
  
		
		
  
		
		
  
		
		
  
		
		
  
		
		
  
		
		
  
		
		
  
		
		
  
		
		
  
		
		
  
		
		
  
		
		
  
		
		
  
		
		
  
		
		
 
	</g>
	

</svg>