<?xml version="1.0" encoding="iso-8859-1"?><!-- Generator: Adobe Illustrator 19.2.1, SVG Export Plug-In . SVG Version: 6.00 Build 0)  --><svg id="Ebene_1" style="enable-background:new 0 0 841.9 595.3;" version="1.1" viewBox="0 0 841.9 595.3" x="0px" xml:space="preserve" xmlns="http://www.w3.org/2000/svg" xmlns:xlink="http://www.w3.org/1999/xlink" y="0px">
	

	<style type="text/css">
	.st0{fill:none;}
	.st1{fill:#F8C05A;}
	.st2{fill:#FFFFFF;}
	.st3{fill:url(#SVGID_1_);}
	.st4{fill:#A8A8A7;}
	.st5{fill:#E40521;}
	.st6{fill:#A8A8A7;stroke:#A8A8A7;stroke-width:0.2961;}
	.st7{fill:#14387F;}
</style>
	

	<pattern height="69" id="Punktmuster" patternUnits="userSpaceOnUse" style="overflow:visible;" viewBox="2.1 -70.9 69 69" width="69" y="595.3">
		
	
		<g>
			
		
			
			
		
			
			
		
			<g>
				
			
				
				
			
				
				
			
				
				
			
				
				
			
				
				
			
				
				
			
				
				
			
				
				
			
				
				
		
			</g>
			
		
			<g>
				
			
				
				
		
			</g>
			
		
			
			
		
			<g>
				
			
				<g>
					
				
					
					
				
					
					
				
					
					
				
					
					
				
					
					
				
					
					
				
					
					
				
					
					
				
					
					
				
					
					
			
				</g>
				
			
				<g>
					
				
					
					
				
					
					
				
					
					
				
					
					
				
					
					
				
					
					
				
					
					
				
					
					
				
					
					
				
					
					
			
				</g>
				
			
				<g>
					
				
					
					
				
					
					
				
					
					
				
					
					
				
					
					
				
					
					
				
					
					
				
					
					
				
					
					
				
					
					
			
				</g>
				
			
				<g>
					
				
					
					
				
					
					
				
					
					
				
					
					
				
					
					
				
					
					
				
					
					
				
					
					
				
					
					
				
					
					
			
				</g>
				
			
				<g>
					
				
					
					
				
					
					
				
					
					
				
					
					
				
					
					
				
					
					
				
					
					
				
					
					
				
					
					
				
					
					
			
				</g>
				
			
				<g>
					
				
					
					
				
					
					
				
					
					
				
					
					
				
					
					
				
					
					
				
					
					
				
					
					
				
					
					
				
					
					
			
				</g>
				
			
				<g>
					
				
					
					
				
					
					
				
					
					
				
					
					
				
					
					
				
					
					
				
					
					
				
					
					
				
					
					
				
					
					
			
				</g>
				
			
				<g>
					
				
					
					
				
					
					
				
					
					
				
					
					
				
					
					
				
					
					
				
					
					
				
					
					
				
					
					
				
					
					
			
				</g>
				
		
			</g>
			
		
			<g>
				
			
				
				
			
				
				
			
				
				
			
				
				
			
				
				
			
				
				
			
				
				
			
				
				
			
				
				
			
				
				
		
			</g>
			
	
		</g>
		

	</pattern>
	

	<g>
		
	
		<linearGradient gradientUnits="userSpaceOnUse" id="SVGID_1_" x1="430.8518" x2="430.8518" y1="311.4673" y2="156.4479">
			
		
			<stop offset="5.618000e-003" style="stop-color:#71CBF4"/>
			
		
			<stop offset="0.25" style="stop-color:#30BAED"/>
			
		
			<stop offset="0.55" style="stop-color:#008BCE"/>
			
		
			<stop offset="0.9" style="stop-color:#1F5EA9"/>
			
	
		</linearGradient>
		
	
		
		
	
		<g>
			
		
			
			
		
			
			
		
			
			
		
			
			
	
		</g>
		
	
		
		
	
		<g>
			
		
			
			
		
			
			
		
			
			
		
			
			
		
			
			
		
			
			
		
			
			
		
			
			
		
			
			
		
			
			
		
			
			
		
			
			
	
		</g>
		
	
		<g>
			
		
			
			
		
			
			
		
			
			
		
			
			
		
			<path animation_id="123" class="st7" d="M377,339.9c4.7-4,8.8-5.1,12.2-5.1c3.5,0,5.3,1.7,6.2,2.7c0.4,0.4,1,1,1.5,2.8c0.4,1.7,0.8,4.6,0.8,9.9v43.7    c0,1,0.1,1.2,0.3,1.5c0.3,0.3,0.8,0.6,0.9,1.3l0,0.1c0,0.4-0.4,0.7-0.7,0.8c-0.3,0.1-0.6,0.1-0.9,0.1c-0.5,0-3.7-0.1-6.2-0.1    c-2.5,0-5.7,0.1-6.2,0.1c-0.3,0-0.6,0-0.9-0.1c-0.3-0.1-0.6-0.4-0.6-0.8l0-0.1c0.1-0.7,0.6-1,0.9-1.3c0.2-0.3,0.3-0.5,0.3-1.5    v-44.9c0-2.2-0.5-4.6-1.7-4.7c-0.2,0-0.4-0.1-0.5-0.1c-1.3,0-3,1-5.1,3.3c-2.3,2.5-6.3,8.1-6.3,20.9c0,14.4,0,24.8,0,25.5    c0,1,0.1,1.2,0.3,1.5c0.3,0.3,0.8,0.6,0.9,1.3l0,0.1c0,0.4-0.4,0.7-0.7,0.8c-0.3,0.1-0.6,0.1-0.9,0.1c-0.5,0-3.7-0.1-6.2-0.1    c-2.5,0-5.7,0.1-6.2,0.1c-0.3,0-0.6,0-0.9-0.1c-0.3-0.1-0.6-0.4-0.7-0.8c0,0,0,0,0-0.1l0,0c0.1-0.7,0.6-1,0.9-1.3    c0.2-0.3,0.3-0.5,0.3-1.5c0-1,0-23.4,0-25.4c0-7.8,0.2-25.2,0.8-31.8c0.8-8.8,3.4-16.2,8.4-21.7c5.1-5.6,12.7-8.6,17.8-8.6    c2.6,0,4.5,0.8,5.8,2.1c1.3,1.3,1.9,3,1.9,4.6c0,3.3-2.5,6.2-4.8,7.5c-1,0.5-1.8,0.8-2.4,0.8c-0.9,0-1.5-0.4-1.7-0.8    c-0.2-0.3-0.8-0.8-0.8-2.8c0-1.1-0.2-2.5-0.8-3.5c-0.6-1-1.4-1.8-3.1-1.8c0,0,0,0-0.1,0l0,0c-3.3,0-5.2,3.1-6.3,7    c-1.2,3.8-1.5,11-1.5,14.7c0,2.8,0,10,0,13.3C371.8,345.6,373.8,342.6,377,339.9z M357.2,396.7L357.2,396.7L357.2,396.7    L357.2,396.7z" stroke="black"/>
			
		
			
			
		
			
			
		
			
			
		
			
			
		
			
			
		
			
			
		
			
			
	
		</g>
		

	</g>
	

</svg>