<?xml version="1.0" encoding="iso-8859-1"?><!-- Generator: Adobe Illustrator 19.2.1, SVG Export Plug-In . SVG Version: 6.00 Build 0)  --><svg id="Ebene_1" style="enable-background:new 0 0 841.9 595.3;" version="1.1" viewBox="0 0 841.9 595.3" x="0px" xml:space="preserve" xmlns="http://www.w3.org/2000/svg" xmlns:xlink="http://www.w3.org/1999/xlink" y="0px">
	

	<style type="text/css">
	.st0{fill:none;}
	.st1{fill:#F8C05A;}
	.st2{fill:#FFFFFF;}
	.st3{fill:url(#SVGID_1_);}
	.st4{fill:#A8A8A7;}
	.st5{fill:#E40521;}
	.st6{fill:#A8A8A7;stroke:#A8A8A7;stroke-width:0.2961;}
	.st7{fill:#14387F;}
</style>
	

	<pattern height="69" id="Punktmuster" patternUnits="userSpaceOnUse" style="overflow:visible;" viewBox="2.1 -70.9 69 69" width="69" y="595.3">
		
	
		<g>
			
		
			
			
		
			
			
		
			<g>
				
			
				
				
			
				
				
			
				
				
			
				
				
			
				
				
			
				
				
			
				
				
			
				
				
			
				
				
		
			</g>
			
		
			<g>
				
			
				
				
		
			</g>
			
		
			
			
		
			<g>
				
			
				<g>
					
				
					
					
				
					
					
				
					
					
				
					
					
				
					
					
				
					
					
				
					
					
				
					
					
				
					
					
				
					
					
			
				</g>
				
			
				<g>
					
				
					
					
				
					
					
				
					
					
				
					
					
				
					
					
				
					
					
				
					
					
				
					
					
				
					
					
				
					
					
			
				</g>
				
			
				<g>
					
				
					
					
				
					
					
				
					
					
				
					
					
				
					
					
				
					
					
				
					
					
				
					
					
				
					
					
				
					
					
			
				</g>
				
			
				<g>
					
				
					
					
				
					
					
				
					
					
				
					
					
				
					
					
				
					
					
				
					
					
				
					
					
				
					
					
				
					
					
			
				</g>
				
			
				<g>
					
				
					
					
				
					
					
				
					
					
				
					
					
				
					
					
				
					
					
				
					
					
				
					
					
				
					
					
				
					
					
			
				</g>
				
			
				<g>
					
				
					
					
				
					
					
				
					
					
				
					
					
				
					
					
				
					
					
				
					
					
				
					
					
				
					
					
				
					
					
			
				</g>
				
			
				<g>
					
				
					
					
				
					
					
				
					
					
				
					
					
				
					
					
				
					
					
				
					
					
				
					
					
				
					
					
				
					
					
			
				</g>
				
			
				<g>
					
				
					
					
				
					
					
				
					
					
				
					
					
				
					
					
				
					
					
				
					
					
				
					
					
				
					
					
				
					
					
			
				</g>
				
		
			</g>
			
		
			<g>
				
			
				
				
			
				
				
			
				
				
			
				
				
			
				
				
			
				
				
			
				
				
			
				
				
			
				
				
			
				
				
		
			</g>
			
	
		</g>
		

	</pattern>
	

	<g>
		
	
		<linearGradient gradientUnits="userSpaceOnUse" id="SVGID_1_" x1="430.8518" x2="430.8518" y1="311.4673" y2="156.4479">
			
		
			<stop offset="5.618000e-003" style="stop-color:#71CBF4"/>
			
		
			<stop offset="0.25" style="stop-color:#30BAED"/>
			
		
			<stop offset="0.55" style="stop-color:#008BCE"/>
			
		
			<stop offset="0.9" style="stop-color:#1F5EA9"/>
			
	
		</linearGradient>
		
	
		
		
	
		<g>
			
		
			
			
		
			
			
		
			
			
		
			
			
	
		</g>
		
	
		
		
	
		<g>
			
		
			
			
		
			
			
		
			
			
		
			
			
		
			
			
		
			<path animation_id="112" class="st6" d="M424.4,417.5c1,0.3,1.8,0.8,2.6,1.4c0.7,0.6,1.3,1.4,1.7,2.4c0.4,1,0.6,2.1,0.6,3.3c0,0.8-0.1,1.6-0.4,2.4    c-0.2,0.8-0.6,1.4-1.1,2.1c-0.5,0.6-1,1.2-1.7,1.6c-0.7,0.5-1.4,0.9-2.3,1.2c0.5,0.3,1,0.6,1.6,0.9c0.5,0.3,1,0.6,1.5,0.9    c0.5,0.3,0.9,0.6,1.4,0.8c0.4,0.2,0.8,0.4,1.1,0.6c-0.5,0.1-1,0.2-1.4,0.4c-0.5,0.2-1,0.4-1.6,0.7c-0.5-0.4-0.9-0.7-1.3-1    c-0.4-0.3-0.8-0.6-1.2-0.9c-0.4-0.3-0.8-0.6-1.3-0.9c-0.5-0.3-1.1-0.7-1.8-1.2c-1,0-2-0.1-3-0.4c-0.9-0.3-1.8-0.7-2.5-1.3    c-0.7-0.6-1.3-1.4-1.7-2.4c-0.4-1-0.6-2.1-0.6-3.4c0-1,0.2-2,0.6-3c0.4-0.9,0.9-1.7,1.6-2.4c0.7-0.7,1.6-1.2,2.6-1.6    c1-0.4,2.1-0.6,3.4-0.6C422.3,417,423.4,417.2,424.4,417.5z M425.4,421.7c-0.2-0.7-0.5-1.3-0.9-1.9c-0.4-0.5-0.9-0.9-1.5-1.2    c-0.6-0.3-1.2-0.4-1.9-0.4c-0.7,0-1.4,0.2-1.9,0.5c-0.6,0.3-1.1,0.8-1.5,1.4c-0.4,0.6-0.7,1.3-0.9,2.1c-0.2,0.8-0.3,1.7-0.3,2.6    c0,1.1,0.1,2.1,0.4,2.9c0.2,0.8,0.6,1.4,1,1.9c0.4,0.5,0.9,0.8,1.4,1c0.5,0.2,1.1,0.3,1.7,0.3c0.6,0,1.2-0.1,1.8-0.4    c0.6-0.3,1.1-0.7,1.5-1.2c0.4-0.6,0.8-1.3,1-2.1c0.3-0.9,0.4-1.9,0.4-3C425.8,423.3,425.7,422.4,425.4,421.7z" stroke="black"/>
			
		
			
			
		
			
			
		
			
			
		
			
			
		
			
			
		
			
			
	
		</g>
		
	
		<g>
			
		
			
			
		
			
			
		
			
			
		
			
			
		
			
			
		
			
			
		
			
			
		
			
			
		
			
			
		
			
			
		
			
			
		
			
			
	
		</g>
		

	</g>
	

</svg>