<?xml version="1.0" encoding="iso-8859-1"?><!-- Generator: Adobe Illustrator 19.2.1, SVG Export Plug-In . SVG Version: 6.00 Build 0)  --><svg id="Ebene_1" style="enable-background:new 0 0 841.9 595.3;" version="1.1" viewBox="0 0 841.9 595.3" x="0px" xml:space="preserve" xmlns="http://www.w3.org/2000/svg" xmlns:xlink="http://www.w3.org/1999/xlink" y="0px">
	

	<style type="text/css">
	.st0{fill:none;}
	.st1{fill:#F8C05A;}
	.st2{fill:#FFFFFF;}
	.st3{fill:url(#SVGID_1_);}
	.st4{fill:#A8A8A7;}
	.st5{fill:#E40521;}
	.st6{fill:#A8A8A7;stroke:#A8A8A7;stroke-width:0.2961;}
	.st7{fill:#14387F;}
</style>
	

	<pattern height="69" id="Punktmuster" patternUnits="userSpaceOnUse" style="overflow:visible;" viewBox="2.1 -70.9 69 69" width="69" y="595.3">
		
	
		<g>
			
		
			
			
		
			
			
		
			<g>
				
			
				
				
			
				
				
			
				
				
			
				
				
			
				
				
			
				
				
			
				
				
			
				
				
			
				
				
		
			</g>
			
		
			<g>
				
			
				
				
		
			</g>
			
		
			
			
		
			<g>
				
			
				<g>
					
				
					
					
				
					
					
				
					
					
				
					
					
				
					
					
				
					
					
				
					
					
				
					
					
				
					
					
				
					
					
			
				</g>
				
			
				<g>
					
				
					
					
				
					
					
				
					
					
				
					
					
				
					
					
				
					
					
				
					
					
				
					
					
				
					
					
				
					
					
			
				</g>
				
			
				<g>
					
				
					
					
				
					
					
				
					
					
				
					
					
				
					
					
				
					
					
				
					
					
				
					
					
				
					
					
				
					
					
			
				</g>
				
			
				<g>
					
				
					
					
				
					
					
				
					
					
				
					
					
				
					
					
				
					
					
				
					
					
				
					
					
				
					
					
				
					
					
			
				</g>
				
			
				<g>
					
				
					
					
				
					
					
				
					
					
				
					
					
				
					
					
				
					
					
				
					
					
				
					
					
				
					
					
				
					
					
			
				</g>
				
			
				<g>
					
				
					
					
				
					
					
				
					
					
				
					
					
				
					
					
				
					
					
				
					
					
				
					
					
				
					
					
				
					
					
			
				</g>
				
			
				<g>
					
				
					
					
				
					
					
				
					
					
				
					
					
				
					
					
				
					
					
				
					
					
				
					
					
				
					
					
				
					
					
			
				</g>
				
			
				<g>
					
				
					
					
				
					
					
				
					
					
				
					
					
				
					
					
				
					
					
				
					
					
				
					
					
				
					
					
				
					
					
			
				</g>
				
		
			</g>
			
		
			<g>
				
			
				
				
			
				
				
			
				
				
			
				
				
			
				
				
			
				
				
			
				
				
			
				
				
			
				
				
			
				
				
		
			</g>
			
	
		</g>
		

	</pattern>
	

	<g>
		
	
		<linearGradient gradientUnits="userSpaceOnUse" id="SVGID_1_" x1="430.8518" x2="430.8518" y1="311.4673" y2="156.4479">
			
		
			<stop offset="5.618000e-003" style="stop-color:#71CBF4"/>
			
		
			<stop offset="0.25" style="stop-color:#30BAED"/>
			
		
			<stop offset="0.55" style="stop-color:#008BCE"/>
			
		
			<stop offset="0.9" style="stop-color:#1F5EA9"/>
			
	
		</linearGradient>
		
	
		
		
	
		<g>
			
		
			
			
		
			
			
		
			
			
		
			
			
	
		</g>
		
	
		<path animation_id="106" class="st5" d="M430.9,305.2l-0.3-0.1c-3.6-0.9-7.4-3.1-10.8-6.2c-6-5.5-7.1-10.6-7.1-18v-18.5l0.8-0.2   c1.1-0.2,10.7-2.1,17.3-2.1c6.7,0,16.3,1.9,17.3,2.1l0.8,0.2V281c0,7.2-1.2,12.4-7.1,18c-3.4,3.1-7.2,5.3-10.7,6.2L430.9,305.2   L430.9,305.2z M430.1,273.3c2.3,2.5,2.2,4.6,4.3,7.1c1.3,1.5,2.8,2.4,4.5,3.2c1.7,0.9,4,2,5.5,3.7c0.5,0.6,0.9,1.2,1.1,1.5   c0.4-1.5,0.7-3.1,0.7-4.8c-0.3-0.5-0.9-1.2-1.9-1.9c-2-1.5-4.3-1.9-6.6-4c-2.4-2.2-1.2-3.7-5.5-8.1c-3.4-3.4-6.9-3.7-8.2-5.9   c-0.1-0.2-0.2-0.4-0.3-0.6c-1.3,0.2-2.6,0.3-3.8,0.5c0.1,0.8,0.5,2,1.7,3.2C423.6,269.4,427.3,270,430.1,273.3z M419.5,273.1   c2.5,1.6,4.9,2.4,6.9,5.1c1.6,2.2,1.5,3.8,3.4,6.1c1.6,1.9,3.1,2.6,5,3.5c1.9,1,3.5,1.7,5.3,3.5c1.2,1.2,1.9,2.5,2.2,3.4   c0.1-0.1,0.2-0.2,0.3-0.3c0.1-0.1,0.2-0.2,0.3-0.3c0.1-0.2,0.3-0.4,0.5-0.6c0.1-0.1,0.1-0.2,0.2-0.3c0.1-0.2,0.3-0.4,0.4-0.7   c0-0.1,0.1-0.1,0.1-0.2c0.1-0.2,0.2-0.4,0.3-0.6c0-0.1,0.1-0.3,0.2-0.4c0,0,0-0.1,0-0.1c-0.1-0.3-0.5-1-1.1-1.9   c-0.9-1.2-2-2.2-4.2-3.3c-2-1.1-3.6-1.3-6.1-3.9c-2.5-2.6-1.9-4.3-4.3-7.2c-2.6-3.2-6.6-4-8.6-6.4c-1.6-1.8-2-3.5-2-4.3   c-1,0.1-2,0.4-2.7,0.5c0,0.7,0,3.4,0,3.4S416.5,271.3,419.5,273.1z M422.1,282.2c1.6,2.2,1.5,3.9,3.5,6.2c1.5,1.9,3.1,2.5,4.9,3.5   c1.9,1,3.6,1.7,5.3,3.5c1.2,1.3,1.8,2.5,2.1,3.4c0.7-0.6,1.5-1.1,2.2-1.9c0.2-0.2,0.3-0.3,0.5-0.5c-0.1-0.2-0.1-0.4-0.2-0.7   c-0.2-0.7-0.4-1.1-1.3-2.3c-0.9-1.2-2-2.1-4.2-3.3c-2.1-1-3.6-1.3-6.1-3.8c-2.5-2.7-1.8-4.4-4.4-7.3c-2.6-2.9-6.2-3.4-8.6-6.3   c-0.1-0.2-0.3-0.4-0.5-0.5v5.1C417.8,279.7,420.2,279.7,422.1,282.2z" stroke="black"/>
		
	
		<g>
			
		
			
			
		
			
			
		
			
			
		
			
			
		
			
			
		
			
			
		
			
			
		
			
			
		
			
			
		
			
			
		
			
			
		
			
			
	
		</g>
		
	
		<g>
			
		
			
			
		
			
			
		
			
			
		
			
			
		
			
			
		
			
			
		
			
			
		
			
			
		
			
			
		
			
			
		
			
			
		
			
			
	
		</g>
		

	</g>
	

</svg>