<?xml version="1.0" encoding="iso-8859-1"?><!-- Generator: Adobe Illustrator 19.2.1, SVG Export Plug-In . SVG Version: 6.00 Build 0)  --><svg id="Ebene_1" style="enable-background:new 0 0 841.9 595.3;" version="1.1" viewBox="0 0 841.9 595.3" x="0px" xml:space="preserve" xmlns="http://www.w3.org/2000/svg" xmlns:xlink="http://www.w3.org/1999/xlink" y="0px">
	

	<style type="text/css">
	.st0{fill:none;}
	.st1{fill:#F8C05A;}
	.st2{fill:#FFFFFF;}
	.st3{fill:url(#SVGID_1_);}
	.st4{fill:#A8A8A7;}
	.st5{fill:#E40521;}
	.st6{fill:#A8A8A7;stroke:#A8A8A7;stroke-width:0.2961;}
	.st7{fill:#14387F;}
</style>
	

	<pattern height="69" id="Punktmuster" patternUnits="userSpaceOnUse" style="overflow:visible;" viewBox="2.1 -70.9 69 69" width="69" y="595.3">
		
	
		<g>
			
		
			
			
		
			
			
		
			<g>
				
			
				
				
			
				
				
			
				
				
			
				
				
			
				
				
			
				
				
			
				
				
			
				
				
			
				
				
		
			</g>
			
		
			<g>
				
			
				
				
		
			</g>
			
		
			
			
		
			<g>
				
			
				<g>
					
				
					
					
				
					
					
				
					
					
				
					
					
				
					
					
				
					
					
				
					
					
				
					
					
				
					
					
				
					
					
			
				</g>
				
			
				<g>
					
				
					
					
				
					
					
				
					
					
				
					
					
				
					
					
				
					
					
				
					
					
				
					
					
				
					
					
				
					
					
			
				</g>
				
			
				<g>
					
				
					
					
				
					
					
				
					
					
				
					
					
				
					
					
				
					
					
				
					
					
				
					
					
				
					
					
				
					
					
			
				</g>
				
			
				<g>
					
				
					
					
				
					
					
				
					
					
				
					
					
				
					
					
				
					
					
				
					
					
				
					
					
				
					
					
				
					
					
			
				</g>
				
			
				<g>
					
				
					
					
				
					
					
				
					
					
				
					
					
				
					
					
				
					
					
				
					
					
				
					
					
				
					
					
				
					
					
			
				</g>
				
			
				<g>
					
				
					
					
				
					
					
				
					
					
				
					
					
				
					
					
				
					
					
				
					
					
				
					
					
				
					
					
				
					
					
			
				</g>
				
			
				<g>
					
				
					
					
				
					
					
				
					
					
				
					
					
				
					
					
				
					
					
				
					
					
				
					
					
				
					
					
				
					
					
			
				</g>
				
			
				<g>
					
				
					
					
				
					
					
				
					
					
				
					
					
				
					
					
				
					
					
				
					
					
				
					
					
				
					
					
				
					
					
			
				</g>
				
		
			</g>
			
		
			<g>
				
			
				
				
			
				
				
			
				
				
			
				
				
			
				
				
			
				
				
			
				
				
			
				
				
			
				
				
			
				
				
		
			</g>
			
	
		</g>
		

	</pattern>
	

	<g>
		
	
		<linearGradient gradientUnits="userSpaceOnUse" id="SVGID_1_" x1="430.8518" x2="430.8518" y1="311.4673" y2="156.4479">
			
		
			<stop offset="5.618000e-003" style="stop-color:#71CBF4"/>
			
		
			<stop offset="0.25" style="stop-color:#30BAED"/>
			
		
			<stop offset="0.55" style="stop-color:#008BCE"/>
			
		
			<stop offset="0.9" style="stop-color:#1F5EA9"/>
			
	
		</linearGradient>
		
	
		
		
	
		<g>
			
		
			
			
		
			
			
		
			
			
		
			
			
	
		</g>
		
	
		
		
	
		<g>
			
		
			
			
		
			
			
		
			
			
		
			
			
		
			
			
		
			
			
		
			
			
		
			
			
		
			
			
		
			
			
		
			
			
		
			
			
	
		</g>
		
	
		<g>
			
		
			
			
		
			
			
		
			
			
		
			
			
		
			
			
		
			
			
		
			
			
		
			
			
		
			
			
		
			<path animation_id="128" class="st7" d="M572.6,335.9v11.6c1.1-1.8,3.2-4.9,6.4-7.6c4.7-4,8.6-5.1,12-5.1c3.5,0,5.3,1.7,6.2,2.7c0.4,0.4,1,1,1.5,2.8    c0.4,1.7,0.8,4.6,0.8,9.9v43.7c0,1,0.1,1.2,0.2,1.5c0.3,0.4,0.8,0.6,0.9,1.3l0,0.1c0,0.4-0.3,0.7-0.6,0.8    c-0.3,0.1-0.6,0.1-0.9,0.1c-0.5,0-3.7-0.1-6.2-0.1c-2.5,0-5.7,0.1-6.2,0.1c-0.3,0-0.6,0-0.9-0.1c-0.3-0.1-0.6-0.4-0.6-0.8l0-0.1    c0.1-0.7,0.6-1,0.9-1.3c0.2-0.3,0.3-0.5,0.3-1.5v-44.9c0-2.2-0.5-4.6-1.7-4.7c-0.2,0-0.4-0.1-0.6-0.1c-1.3,0-3,1-5.1,3.3    c-2.3,2.5-6.2,8.1-6.3,20.9v25.5c0,1,0.1,1.2,0.3,1.5c0.3,0.3,0.8,0.6,0.9,1.2l0,0.2c0,0.4-0.4,0.7-0.7,0.8    c-0.3,0.1-0.6,0.1-0.9,0.1c-0.5,0-3.7-0.1-6.2-0.1c-2.5,0-5.7,0.1-6.2,0.1c-0.3,0-0.6,0-0.9-0.1c-0.3-0.1-0.6-0.4-0.6-0.8l0-0.1    c0.1-0.7,0.6-1,0.9-1.3c0.2-0.3,0.3-0.5,0.3-1.5l0-50.4c0-2-0.2-2-0.6-2.2c-0.2-0.1-0.5-0.2-0.7-0.3c-0.2-0.1-0.5-0.3-0.6-0.7    l0-0.2c0-0.3,0.2-0.6,0.5-0.8c0.3-0.1,0.6-0.3,1.2-0.5c2.4-0.8,11.2-3.5,11.8-3.8c0.3-0.1,0.5-0.1,0.8-0.1c0.2,0,0.5,0.1,0.7,0.3    C572.5,335.3,572.6,335.6,572.6,335.9z M599.7,396.7C599.7,396.7,599.7,396.7,599.7,396.7L599.7,396.7L599.7,396.7L599.7,396.7    L599.7,396.7z" stroke="black"/>
			
		
			
			
		
			
			
	
		</g>
		

	</g>
	

</svg>