<?xml version="1.0" encoding="iso-8859-1"?><!-- Generator: Adobe Illustrator 19.2.1, SVG Export Plug-In . SVG Version: 6.00 Build 0)  --><svg id="Ebene_1" style="enable-background:new 0 0 841.9 595.3;" version="1.1" viewBox="0 0 841.9 595.3" x="0px" xml:space="preserve" xmlns="http://www.w3.org/2000/svg" xmlns:xlink="http://www.w3.org/1999/xlink" y="0px">
	

	<style type="text/css">
	.st0{fill:none;}
	.st1{fill:#F8C05A;}
	.st2{fill:#FFFFFF;}
	.st3{fill:url(#SVGID_1_);}
	.st4{fill:#A8A8A7;}
	.st5{fill:#E40521;}
	.st6{fill:#A8A8A7;stroke:#A8A8A7;stroke-width:0.2961;}
	.st7{fill:#14387F;}
</style>
	

	<pattern height="69" id="Punktmuster" patternUnits="userSpaceOnUse" style="overflow:visible;" viewBox="2.1 -70.9 69 69" width="69" y="595.3">
		
	
		<g>
			
		
			
			
		
			
			
		
			<g>
				
			
				
				
			
				
				
			
				
				
			
				
				
			
				
				
			
				
				
			
				
				
			
				
				
			
				
				
		
			</g>
			
		
			<g>
				
			
				
				
		
			</g>
			
		
			
			
		
			<g>
				
			
				<g>
					
				
					
					
				
					
					
				
					
					
				
					
					
				
					
					
				
					
					
				
					
					
				
					
					
				
					
					
				
					
					
			
				</g>
				
			
				<g>
					
				
					
					
				
					
					
				
					
					
				
					
					
				
					
					
				
					
					
				
					
					
				
					
					
				
					
					
				
					
					
			
				</g>
				
			
				<g>
					
				
					
					
				
					
					
				
					
					
				
					
					
				
					
					
				
					
					
				
					
					
				
					
					
				
					
					
				
					
					
			
				</g>
				
			
				<g>
					
				
					
					
				
					
					
				
					
					
				
					
					
				
					
					
				
					
					
				
					
					
				
					
					
				
					
					
				
					
					
			
				</g>
				
			
				<g>
					
				
					
					
				
					
					
				
					
					
				
					
					
				
					
					
				
					
					
				
					
					
				
					
					
				
					
					
				
					
					
			
				</g>
				
			
				<g>
					
				
					
					
				
					
					
				
					
					
				
					
					
				
					
					
				
					
					
				
					
					
				
					
					
				
					
					
				
					
					
			
				</g>
				
			
				<g>
					
				
					
					
				
					
					
				
					
					
				
					
					
				
					
					
				
					
					
				
					
					
				
					
					
				
					
					
				
					
					
			
				</g>
				
			
				<g>
					
				
					
					
				
					
					
				
					
					
				
					
					
				
					
					
				
					
					
				
					
					
				
					
					
				
					
					
				
					
					
			
				</g>
				
		
			</g>
			
		
			<g>
				
			
				
				
			
				
				
			
				
				
			
				
				
			
				
				
			
				
				
			
				
				
			
				
				
			
				
				
			
				
				
		
			</g>
			
	
		</g>
		

	</pattern>
	

	<g>
		
	
		<linearGradient gradientUnits="userSpaceOnUse" id="SVGID_1_" x1="430.8518" x2="430.8518" y1="311.4673" y2="156.4479">
			
		
			<stop offset="5.618000e-003" style="stop-color:#71CBF4"/>
			
		
			<stop offset="0.25" style="stop-color:#30BAED"/>
			
		
			<stop offset="0.55" style="stop-color:#008BCE"/>
			
		
			<stop offset="0.9" style="stop-color:#1F5EA9"/>
			
	
		</linearGradient>
		
	
		
		
	
		<g>
			
		
			
			
		
			
			
		
			
			
		
			
			
	
		</g>
		
	
		
		
	
		<g>
			
		
			
			
		
			
			
		
			
			
		
			
			
		
			
			
		
			
			
		
			
			
		
			
			
		
			
			
		
			
			
		
			
			
		
			
			
	
		</g>
		
	
		<g>
			
		
			<path animation_id="119" class="st7" d="M202.7,313.1c-0.1-0.1-0.1-0.2-0.1-0.4c0-0.3,0.2-0.6,0.5-0.8c0.3-0.2,0.7-0.4,1.2-0.6    c2-0.9,6.2-2.5,10.5-4.3c0.5-0.2,0.9-0.4,1.3-0.4c0.6,0,1.1,0.5,1.2,1.2c1.6,7.1,10.8,45.5,17.2,72.8c1.4,6,2.4,8.5,3.6,9.9    c0.4,0.5,0.7,0.7,0.8,1.3c0,0.4-0.3,0.6-0.6,0.8c-0.8,0.4-3.1,1.4-6.5,3c-3.4,1.6-5.6,2.8-5.9,3c-0.3,0.1-0.5,0.2-0.8,0.2    c-0.2,0-0.5-0.1-0.7-0.3c-0.2-0.2-0.3-0.5-0.3-0.7l0-0.5c0-1.3-0.4-4-1.3-7.3c-1.2-4.6-2.6-10.2-3.9-15.5c-2.2,0-15.5,0-26.5,0    c-0.8,1.4-1.6,2.9-2.5,4.4c-11,18.6-18.6,23.8-20.4,24.8c-2,1.1-3.3,1.2-4.7,1.2c-0.1,0-0.1,0-0.2,0c-1.9,0-4.1-0.1-4.9-0.2    c-0.7-0.2-1.2-0.4-1.3-1.1c0-0.2,0.2-0.5,0.4-0.6c0.4-0.2,3.2-1.7,7-4.6l0,0c3.2-2.4,9.4-7,18.4-21l0,0c0.6-0.9,1.2-1.9,1.8-3l0,0    c-4.6,0-8,0-8.7,0l0,0c-0.3,0-0.6,0-0.9-0.1l0,0c-0.3-0.1-0.6-0.4-0.6-0.8l0,0c0-0.3,0.1-0.6,0.3-0.9l0,0c0.6-0.9,3-6.5,4.1-8.3    l0,0c0.3-0.4,0.8-0.4,1.1-0.4l0,0c0.5,0,4.9,0,10.4,0l0,0c2.9-5.7,5.8-12,8.6-18.7l0,0c6.2-14.6,6.5-20.5,6.5-21.4l0,0    c0-0.1,0-0.1,0-0.1l0,0c-0.3-1.9-1.7-7.5-1.9-8.4c-0.2-0.8-0.6-1.4-1-1.5C203.7,313.8,203,313.8,202.7,313.1z M204.7,348.6    c-2.2,5.3-4.4,10.3-6.8,15.4h18.7c-2.2-9.5-5.9-24.2-7.2-29.4C208.9,337.1,207.6,341.7,204.7,348.6z" stroke="black"/>
			
		
			
			
		
			
			
		
			
			
		
			
			
		
			
			
		
			
			
		
			
			
		
			
			
		
			
			
		
			
			
		
			
			
	
		</g>
		

	</g>
	

</svg>