<?xml version="1.0" encoding="iso-8859-1"?><!-- Generator: Adobe Illustrator 19.2.1, SVG Export Plug-In . SVG Version: 6.00 Build 0)  --><svg id="Ebene_1" style="enable-background:new 0 0 841.9 595.3;" version="1.1" viewBox="0 0 841.9 595.3" x="0px" xml:space="preserve" xmlns="http://www.w3.org/2000/svg" xmlns:xlink="http://www.w3.org/1999/xlink" y="0px">
	

	<style type="text/css">
	.st0{fill:none;}
	.st1{fill:#F8C05A;}
	.st2{fill:#FFFFFF;}
	.st3{fill:url(#SVGID_1_);}
	.st4{fill:#A8A8A7;}
	.st5{fill:#E40521;}
	.st6{fill:#A8A8A7;stroke:#A8A8A7;stroke-width:0.2961;}
	.st7{fill:#14387F;}
</style>
	

	<pattern height="69" id="Punktmuster" patternUnits="userSpaceOnUse" style="overflow:visible;" viewBox="2.1 -70.9 69 69" width="69" y="595.3">
		
	
		<g>
			
		
			
			
		
			
			
		
			<g>
				
			
				
				
			
				
				
			
				
				
			
				
				
			
				
				
			
				
				
			
				
				
			
				
				
			
				
				
		
			</g>
			
		
			<g>
				
			
				
				
		
			</g>
			
		
			
			
		
			<g>
				
			
				<g>
					
				
					
					
				
					
					
				
					
					
				
					
					
				
					
					
				
					
					
				
					
					
				
					
					
				
					
					
				
					
					
			
				</g>
				
			
				<g>
					
				
					
					
				
					
					
				
					
					
				
					
					
				
					
					
				
					
					
				
					
					
				
					
					
				
					
					
				
					
					
			
				</g>
				
			
				<g>
					
				
					
					
				
					
					
				
					
					
				
					
					
				
					
					
				
					
					
				
					
					
				
					
					
				
					
					
				
					
					
			
				</g>
				
			
				<g>
					
				
					
					
				
					
					
				
					
					
				
					
					
				
					
					
				
					
					
				
					
					
				
					
					
				
					
					
				
					
					
			
				</g>
				
			
				<g>
					
				
					
					
				
					
					
				
					
					
				
					
					
				
					
					
				
					
					
				
					
					
				
					
					
				
					
					
				
					
					
			
				</g>
				
			
				<g>
					
				
					
					
				
					
					
				
					
					
				
					
					
				
					
					
				
					
					
				
					
					
				
					
					
				
					
					
				
					
					
			
				</g>
				
			
				<g>
					
				
					
					
				
					
					
				
					
					
				
					
					
				
					
					
				
					
					
				
					
					
				
					
					
				
					
					
				
					
					
			
				</g>
				
			
				<g>
					
				
					
					
				
					
					
				
					
					
				
					
					
				
					
					
				
					
					
				
					
					
				
					
					
				
					
					
				
					
					
			
				</g>
				
		
			</g>
			
		
			<g>
				
			
				
				
			
				
				
			
				
				
			
				
				
			
				
				
			
				
				
			
				
				
			
				
				
			
				
				
			
				
				
		
			</g>
			
	
		</g>
		

	</pattern>
	

	<g>
		
	
		<linearGradient gradientUnits="userSpaceOnUse" id="SVGID_1_" x1="430.8518" x2="430.8518" y1="311.4673" y2="156.4479">
			
		
			<stop offset="5.618000e-003" style="stop-color:#71CBF4"/>
			
		
			<stop offset="0.25" style="stop-color:#30BAED"/>
			
		
			<stop offset="0.55" style="stop-color:#008BCE"/>
			
		
			<stop offset="0.9" style="stop-color:#1F5EA9"/>
			
	
		</linearGradient>
		
	
		
		
	
		<g>
			
		
			
			
		
			
			
		
			
			
		
			
			
	
		</g>
		
	
		
		
	
		<g>
			
		
			
			
		
			
			
		
			
			
		
			
			
		
			
			
		
			
			
		
			
			
		
			
			
		
			
			
		
			
			
		
			
			
		
			
			
	
		</g>
		
	
		<g>
			
		
			
			
		
			
			
		
			<path animation_id="121" class="st7" d="M487.4,362.6h1.9l8.6-19.6c-1.7,0-6.2,0-9.2,0c-3.6,0-5.7,1.3-6.9,2c-0.3,0.2-0.6,0.3-0.9,0.3    c-0.2,0-0.5-0.1-0.7-0.2c-0.2-0.2-0.3-0.4-0.3-0.7c0-0.2,0-0.4,0.1-0.5c0.4-0.8,2.6-6.2,2.7-6.7c0.3-0.5,0.8-0.5,1.3-0.5    c0.5,0,1.2,0,2.2,0h27.7l-11.4,26h2.3c3.9,0,5-0.1,5.7-0.2c0,0,0.1,0,0.1,0c0.1,0,0.3,0,0.4,0.1c0.1,0.1,0.2,0.3,0.2,0.4    c0,0.1,0,0.1,0,0.2l0,0.1c0,0.1-1.5,3.9-1.8,4.8c-0.1,0.3-0.5,0.5-0.7,0.4c-0.1,0-0.1,0-0.2,0c-0.6,0-1.8-0.2-5.6-0.2h-3.3    l-9.1,20.8c1.5,0,4.3,0,7,0c1.6,0,3.1,0,4.2,0c4.3,0,7.2-2.9,8.2-3.6c0.4-0.3,0.8-0.4,1.2-0.4c0.2,0,0.5,0.1,0.7,0.3    c0.2,0.2,0.3,0.5,0.3,0.7c0,0.2,0,0.4-0.1,0.6c-0.3,1-3.5,10.1-3.6,10.4c-0.1,0.5-0.5,0.5-0.8,0.5c-0.3,0.1-0.6,0.1-1,0.1    c-0.5,0-1,0-1.3,0c-0.8,0-27.2,0-27.8,0c-0.8,0-1.4,0-1.8,0c-0.1,0-0.2,0-0.3,0c-0.2,0-0.5,0-0.8-0.3c-0.1-0.1-0.2-0.3-0.2-0.5    c0-0.5,0.2-0.7,0.5-1.4c3.9-8.8,7.9-18,11.8-26.9h-1.3c-3.9,0-5,0.1-5.6,0.2c-0.1,0-0.1,0-0.1,0c-0.2,0-0.3,0-0.5-0.2    c-0.2-0.1-0.2-0.3-0.2-0.5c0,0,0-0.1,0-0.2c0.1-0.2,1.5-3.9,1.9-4.8c0.1-0.2,0.4-0.4,0.6-0.4c0.1,0,0.2,0,0.2,0    C482.3,362.5,483.6,362.6,487.4,362.6z" stroke="black"/>
			
		
			
			
		
			
			
		
			
			
		
			
			
		
			
			
		
			
			
		
			
			
		
			
			
		
			
			
	
		</g>
		

	</g>
	

</svg>