<?xml version="1.0" encoding="iso-8859-1"?><!-- Generator: Adobe Illustrator 16.0.0, SVG Export Plug-In . SVG Version: 6.00 Build 0)  --><!DOCTYPE svg  PUBLIC '-//W3C//DTD SVG 1.1//EN'  'http://www.w3.org/Graphics/SVG/1.1/DTD/svg11.dtd'><svg enable-background="new 0 0 1156 380" height="380px" id="Ebene_1" version="1.1" viewBox="0 0 1156 380" width="1156px" x="0px" xml:space="preserve" xmlns="http://www.w3.org/2000/svg" xmlns:xlink="http://www.w3.org/1999/xlink" y="0px">
	

	<g>
		
	
		<g>
			
		
			<g>
				
			
				<defs>
					
				
					
					
			
				</defs>
				
			
				<clipPath id="SVGID_2_">
					
				
					<use overflow="visible" xlink:href="#SVGID_1_"/>
					
			
				</clipPath>
				
			
				
				
		
			</g>
			
	
		</g>
		
	
		
		
	
		
		
	
		
		
	
		<path animation_id="3" d="M632.27,131.875h29.71c-0.351-15.645-4.792-26.203-37.378-26.203H583.18   c-37.4,0-39.004,13.485-39.004,30.991c0,23.777,5.066,29.126,49.698,29.126c38.211,0,41.694,0.535,41.694,8.953   c0,7.476-6.424,8.158-12.7,8.158h-36.342c-7.967,0-12.059,1.678-12.688-6.379h-29.793v1.971c0,20.972,10.811,26.047,37.805,26.047   h35.946c39.411,0,48.225-4.259,48.225-30.326c0-28.181-10.688-30.997-56.788-30.873c-31.786,0.139-35.395-0.124-35.395-8.55   c0-5.202,4.529-7.474,11.217-7.474h32.859C629.63,127.315,631.866,127.375,632.27,131.875" fill="#FFFFFF" stroke="black"/>
		
	
		
		
	
		<g>
			
		
			<g>
				
			
				<defs>
					
				
					
					
			
				</defs>
				
			
				<clipPath id="SVGID_4_">
					
				
					<use overflow="visible" xlink:href="#SVGID_3_"/>
					
			
				</clipPath>
				
			
				
				
		
			</g>
			
		
			<g>
				
			
				<defs>
					
				
					
					
			
				</defs>
				
			
				<clipPath id="SVGID_6_">
					
				
					<use overflow="visible" xlink:href="#SVGID_5_"/>
					
			
				</clipPath>
				
			
				
				
		
			</g>
			
	
		</g>
		
	
		
		
	
		
		
	
		
		
	
		
		
	
		
		
	
		
		
	
		
		
	
		
		
	
		
		
	
		
		
	
		
		
	
		
		
	
		
		
	
		
		
	
		
		
	
		
		
	
		
		
	
		
		
	
		
		
	
		
		
	
		
		
	
		
		
	
		
		
	
		
		
	
		
		
	
		
		
	
		
		
	
		
		
	
		
		
	
		
		
	
		
		

	</g>
	

</svg>