<?xml version="1.0" encoding="iso-8859-1"?><!-- Generator: Adobe Illustrator 16.0.0, SVG Export Plug-In . SVG Version: 6.00 Build 0)  --><!DOCTYPE svg  PUBLIC '-//W3C//DTD SVG 1.1//EN'  'http://www.w3.org/Graphics/SVG/1.1/DTD/svg11.dtd'><svg enable-background="new 0 0 1156 380" height="380px" id="Ebene_1" version="1.1" viewBox="0 0 1156 380" width="1156px" x="0px" xml:space="preserve" xmlns="http://www.w3.org/2000/svg" xmlns:xlink="http://www.w3.org/1999/xlink" y="0px">
	

	<g>
		
	
		<g>
			
		
			<g>
				
			
				<defs>
					
				
					
					
			
				</defs>
				
			
				<clipPath id="SVGID_2_">
					
				
					<use overflow="visible" xlink:href="#SVGID_1_"/>
					
			
				</clipPath>
				
			
				
				
		
			</g>
			
	
		</g>
		
	
		
		
	
		
		
	
		
		
	
		
		
	
		
		
	
		<g>
			
		
			<g>
				
			
				<defs>
					
				
					
					
			
				</defs>
				
			
				<clipPath id="SVGID_4_">
					
				
					<use overflow="visible" xlink:href="#SVGID_3_"/>
					
			
				</clipPath>
				
			
				
				
		
			</g>
			
		
			<g>
				
			
				<defs>
					
				
					
					
			
				</defs>
				
			
				<clipPath id="SVGID_6_">
					
				
					<use overflow="visible" xlink:href="#SVGID_5_"/>
					
			
				</clipPath>
				
			
				
				
		
			</g>
			
	
		</g>
		
	
		
		
	
		
		
	
		
		
	
		
		
	
		
		
	
		
		
	
		
		
	
		
		
	
		
		
	
		
		
	
		
		
	
		
		
	
		
		
	
		
		
	
		
		
	
		
		
	
		
		
	
		
		
	
		
		
	
		
		
	
		
		
	
		
		
	
		
		
	
		
		
	
		
		
	
		
		
	
		
		
	
		
		
	
		
		
	
		<path animation_id="34" d="M784.171,361.641v-15.852c0-4.552-2.082-6.854-5.373-6.854c-3.192,0-5.458,2.356-5.458,6.427v16.279h-3.193   v-15.852c0-4.552-2.104-6.854-5.39-6.854c-3.287,0-5.459,2.356-5.459,6.854v15.852h-3.197v-25.736h3.197v2.814   c1.559-2.086,3.734-3.132,6.184-3.132c3.014,0,5.369,1.468,6.703,4.287c1.681-2.818,4.128-4.287,7.188-4.287   c2.354,0,4.308,0.882,5.642,2.407c1.562,1.771,2.355,4.182,2.355,7.159v16.487H784.171L784.171,361.641z" fill="#575756" stroke="black"/>
		
	
		
		

	</g>
	

</svg>