<?xml version="1.0" encoding="iso-8859-1"?><!-- Generator: Adobe Illustrator 16.0.0, SVG Export Plug-In . SVG Version: 6.00 Build 0)  --><!DOCTYPE svg  PUBLIC '-//W3C//DTD SVG 1.1//EN'  'http://www.w3.org/Graphics/SVG/1.1/DTD/svg11.dtd'><svg enable-background="new 0 0 1156 380" height="380px" id="Ebene_1" version="1.1" viewBox="0 0 1156 380" width="1156px" x="0px" xml:space="preserve" xmlns="http://www.w3.org/2000/svg" xmlns:xlink="http://www.w3.org/1999/xlink" y="0px">
	

	<g>
		
	
		<g>
			
		
			<g>
				
			
				<defs>
					
				
					
					
			
				</defs>
				
			
				<clipPath id="SVGID_2_">
					
				
					<use overflow="visible" xlink:href="#SVGID_1_"/>
					
			
				</clipPath>
				
			
				
				
		
			</g>
			
	
		</g>
		
	
		
		
	
		
		
	
		
		
	
		
		
	
		
		
	
		<g>
			
		
			<g>
				
			
				<defs>
					
				
					
					
			
				</defs>
				
			
				<clipPath id="SVGID_4_">
					
				
					<use overflow="visible" xlink:href="#SVGID_3_"/>
					
			
				</clipPath>
				
			
				
				
		
			</g>
			
		
			<g>
				
			
				<defs>
					
				
					
					
			
				</defs>
				
			
				<clipPath id="SVGID_6_">
					
				
					<use overflow="visible" xlink:href="#SVGID_5_"/>
					
			
				</clipPath>
				
			
				
				
		
			</g>
			
	
		</g>
		
	
		
		
	
		
		
	
		
		
	
		
		
	
		
		
	
		
		
	
		
		
	
		
		
	
		
		
	
		
		
	
		
		
	
		
		
	
		
		
	
		
		
	
		
		
	
		
		
	
		
		
	
		
		
	
		
		
	
		
		
	
		
		
	
		
		
	
		
		
	
		
		
	
		
		
	
		
		
	
		
		
	
		
		
	
		<path animation_id="33" d="M745.255,342.654c-0.845-2.355-2.79-3.876-5.101-3.876s-4.279,1.521-5.117,3.876   c-0.48,1.409-0.569,2.196-0.66,4.287h11.536C745.826,344.85,745.747,344.063,745.255,342.654L745.255,342.654z M734.38,349.755   c0,5.649,2.266,8.892,6.434,8.892c2.534,0,3.991-0.883,5.731-2.922l2.177,2.25c-2.222,2.619-4.263,3.966-7.997,3.966   c-5.775,0-9.542-4.073-9.542-13.18c0-8.306,3.421-13.175,8.973-13.175c5.626,0,8.97,4.816,8.97,12.451v1.717L734.38,349.755   L734.38,349.755z" fill="#575756" stroke="black"/>
		
	
		
		
	
		
		

	</g>
	

</svg>