<?xml version="1.0" encoding="iso-8859-1"?><!-- Generator: Adobe Illustrator 16.0.0, SVG Export Plug-In . SVG Version: 6.00 Build 0)  --><!DOCTYPE svg  PUBLIC '-//W3C//DTD SVG 1.1//EN'  'http://www.w3.org/Graphics/SVG/1.1/DTD/svg11.dtd'><svg enable-background="new 0 0 1156 380" height="380px" id="Ebene_1" version="1.1" viewBox="0 0 1156 380" width="1156px" x="0px" xml:space="preserve" xmlns="http://www.w3.org/2000/svg" xmlns:xlink="http://www.w3.org/1999/xlink" y="0px">
	

	<g>
		
	
		<g>
			
		
			<g>
				
			
				<defs>
					
				
					
					
			
				</defs>
				
			
				<clipPath id="SVGID_2_">
					
				
					<use overflow="visible" xlink:href="#SVGID_1_"/>
					
			
				</clipPath>
				
			
				
				
		
			</g>
			
	
		</g>
		
	
		
		
	
		
		
	
		
		
	
		
		
	
		
		
	
		<g>
			
		
			<g>
				
			
				<defs>
					
				
					
					
			
				</defs>
				
			
				<clipPath id="SVGID_4_">
					
				
					<use overflow="visible" xlink:href="#SVGID_3_"/>
					
			
				</clipPath>
				
			
				
				
		
			</g>
			
		
			<g>
				
			
				<defs>
					
				
					
					
			
				</defs>
				
			
				<clipPath id="SVGID_6_">
					
				
					<use overflow="visible" xlink:href="#SVGID_5_"/>
					
			
				</clipPath>
				
			
				
				
		
			</g>
			
	
		</g>
		
	
		
		
	
		
		
	
		
		
	
		
		
	
		
		
	
		
		
	
		
		
	
		
		
	
		
		
	
		
		
	
		
		
	
		
		
	
		
		
	
		
		
	
		
		
	
		
		
	
		
		
	
		
		
	
		
		
	
		
		
	
		
		
	
		
		
	
		
		
	
		
		
	
		
		
	
		
		
	
		<path animation_id="31" d="M701.928,361.943c-3.689,0-6.569-0.993-8.973-3.702l2.131-2.515c1.734,2.145,4.08,2.974,6.797,2.974   c3.6,0,5.82-1.505,5.82-4.552c0-2.249-1.11-3.489-3.645-3.754l-3.599-0.37c-4.263-0.422-6.529-2.662-6.529-6.911   c0-4.693,3.377-7.525,8.041-7.525c3.108,0,5.915,0.882,7.863,2.778l-2.087,2.444c-1.558-1.398-3.555-2.032-5.82-2.032   c-3.193,0-4.89,1.627-4.89,4.229c0,2.196,1.062,3.507,3.823,3.774l3.512,0.37c3.812,0.406,6.439,2.145,6.439,6.944   C710.813,359.074,707.207,361.943,701.928,361.943L701.928,361.943z" fill="#575756" stroke="black"/>
		
	
		
		
	
		
		
	
		
		
	
		
		

	</g>
	

</svg>