<?xml version="1.0" encoding="iso-8859-1"?><!-- Generator: Adobe Illustrator 16.0.0, SVG Export Plug-In . SVG Version: 6.00 Build 0)  --><!DOCTYPE svg  PUBLIC '-//W3C//DTD SVG 1.1//EN'  'http://www.w3.org/Graphics/SVG/1.1/DTD/svg11.dtd'><svg enable-background="new 0 0 1156 380" height="380px" id="Ebene_1" version="1.1" viewBox="0 0 1156 380" width="1156px" x="0px" xml:space="preserve" xmlns="http://www.w3.org/2000/svg" xmlns:xlink="http://www.w3.org/1999/xlink" y="0px">
	

	<g>
		
	
		<g>
			
		
			<g>
				
			
				<defs>
					
				
					
					
			
				</defs>
				
			
				<clipPath id="SVGID_2_">
					
				
					<use overflow="visible" xlink:href="#SVGID_1_"/>
					
			
				</clipPath>
				
			
				
				
		
			</g>
			
	
		</g>
		
	
		
		
	
		
		
	
		
		
	
		
		
	
		
		
	
		<g>
			
		
			<g>
				
			
				<defs>
					
				
					
					
			
				</defs>
				
			
				<clipPath id="SVGID_4_">
					
				
					<use overflow="visible" xlink:href="#SVGID_3_"/>
					
			
				</clipPath>
				
			
				
				
		
			</g>
			
		
			<g>
				
			
				<defs>
					
				
					
					
			
				</defs>
				
			
				<clipPath id="SVGID_6_">
					
				
					<use overflow="visible" xlink:href="#SVGID_5_"/>
					
			
				</clipPath>
				
			
				
				
		
			</g>
			
	
		</g>
		
	
		
		
	
		
		
	
		
		
	
		
		
	
		
		
	
		
		
	
		
		
	
		
		
	
		
		
	
		
		
	
		
		
	
		
		
	
		
		
	
		
		
	
		
		
	
		
		
	
		<path animation_id="21" d="M466.847,342.654c-0.846-2.355-2.796-3.876-5.109-3.876c-2.31,0-4.271,1.521-5.11,3.876   c-0.489,1.409-0.58,2.196-0.667,4.287h11.545C467.425,344.85,467.334,344.063,466.847,342.654L466.847,342.654z M455.963,349.755   c0,5.649,2.268,8.892,6.445,8.892c2.525,0,3.988-0.883,5.723-2.922l2.175,2.25c-2.221,2.619-4.259,3.966-7.986,3.966   c-5.78,0-9.551-4.073-9.551-13.18c0-8.306,3.421-13.175,8.972-13.175c5.642,0,8.975,4.816,8.975,12.451v1.717L455.963,349.755   L455.963,349.755z" fill="#575756" stroke="black"/>
		
	
		
		
	
		
		
	
		
		
	
		
		
	
		
		
	
		
		
	
		
		
	
		
		
	
		
		
	
		
		
	
		
		
	
		
		
	
		
		
	
		
		

	</g>
	

</svg>