<?xml version="1.0" encoding="iso-8859-1"?><!-- Generator: Adobe Illustrator 16.0.0, SVG Export Plug-In . SVG Version: 6.00 Build 0)  --><!DOCTYPE svg  PUBLIC '-//W3C//DTD SVG 1.1//EN'  'http://www.w3.org/Graphics/SVG/1.1/DTD/svg11.dtd'><svg enable-background="new 0 0 1156 380" height="380px" id="Ebene_1" version="1.1" viewBox="0 0 1156 380" width="1156px" x="0px" xml:space="preserve" xmlns="http://www.w3.org/2000/svg" xmlns:xlink="http://www.w3.org/1999/xlink" y="0px">
	

	<g>
		
	
		<g>
			
		
			<g>
				
			
				<defs>
					
				
					
					
			
				</defs>
				
			
				<clipPath id="SVGID_2_">
					
				
					<use overflow="visible" xlink:href="#SVGID_1_"/>
					
			
				</clipPath>
				
			
				
				
		
			</g>
			
	
		</g>
		
	
		
		
	
		
		
	
		
		
	
		
		
	
		<path animation_id="4" d="M815.002,169.531v-28.852c0-28.331-15.892-34.998-42.612-34.998h-47.591   c-26.716,0-42.608,6.666-42.608,34.998v28.852c0,28.331,15.893,35.008,42.608,35.008h47.591   C799.111,204.539,815.002,197.863,815.002,169.531 M784.549,160.303c0,14.034-2.952,19.377-16.97,19.377h-37.963   c-14.017,0-16.971-5.342-16.971-19.377v-10.41c0-12.03,2.953-19.369,18.589-19.369h34.737c15.624,0,18.577,7.338,18.577,19.369   V160.303L784.549,160.303z" fill="#FFFFFF" stroke="black"/>
		
	
		<g>
			
		
			<g>
				
			
				<defs>
					
				
					
					
			
				</defs>
				
			
				<clipPath id="SVGID_4_">
					
				
					<use overflow="visible" xlink:href="#SVGID_3_"/>
					
			
				</clipPath>
				
			
				
				
		
			</g>
			
		
			<g>
				
			
				<defs>
					
				
					
					
			
				</defs>
				
			
				<clipPath id="SVGID_6_">
					
				
					<use overflow="visible" xlink:href="#SVGID_5_"/>
					
			
				</clipPath>
				
			
				
				
		
			</g>
			
	
		</g>
		
	
		
		
	
		
		
	
		
		
	
		
		
	
		
		
	
		
		
	
		
		
	
		
		
	
		
		
	
		
		
	
		
		
	
		
		
	
		
		
	
		
		
	
		
		
	
		
		
	
		
		
	
		
		
	
		
		
	
		
		
	
		
		
	
		
		
	
		
		
	
		
		
	
		
		
	
		
		
	
		
		
	
		
		
	
		
		
	
		
		
	
		
		

	</g>
	

</svg>