<?xml version="1.0" encoding="iso-8859-1"?><svg height="306" viewBox="0 0 470.00031 306.00001" width="470.00034" xmlns="http://www.w3.org/2000/svg">
	
  
	<g transform="translate(-202.45769 -102.01989)">
		
    
		
		
    
		
		
    
		<g fill="#000">
			
      
			
			
      
			
			
      
			
			
      
			
			
      
			
			
      
			
			
      
			
			
      
			
			
      
			
			
      
			
			
      
			<path animation_id="12" d="m613.32121 266.90377c-.10578.75409-.54254 1.07484-1.29663 1.07484h-5.17969c-.64831 0-.86669-.20815-.86669-.75068v-.32416l5.07732-29.03082c.10237-.64831.21497-1.29663.21497-1.94494 0-5.39465-4.10144-9.49609-10.14782-9.49609-6.14875 0-11.97675 5.1831-13.05841 11.44103l-5.06708 29.03082c-.1126.75409-.54254 1.07484-1.29322 1.07484h-5.18651c-.64831 0-.85987-.20815-.85987-.75068v-.32416l7.98791-45.54235c.10578-.7575.5323-1.08166 1.29322-1.08166h3.99225c.6449 0 .86328.21497.86328.7575v.32416l-.76092 4.31641v.32415c0 .53913.32416.86328.76092.86328.75409 0 2.26568-1.72997 5.39806-3.99566 2.37147-1.72656 5.17969-2.58984 8.41444-2.58984 8.96038 0 15.10912 5.72222 15.10912 14.24926 0 1.07483-.1126 2.15649-.32415 3.34393z" stroke="black"/>
			
      
			
			
    
		</g>
		
  
	</g>
	

</svg>