<?xml version="1.0" encoding="iso-8859-1"?><svg height="306" viewBox="0 0 470.00031 306.00001" width="470.00034" xmlns="http://www.w3.org/2000/svg">
	
  
	<g transform="translate(-202.45769 -102.01989)">
		
    
		
		
    
		
		
    
		<g fill="#000">
			
      
			
			
      
			
			
      
			
			
      
			
			
      
			
			
      
			
			
      
			<path animation_id="8" d="m460.39657 235.92733c0-5.39124-4.10485-9.49951-10.14782-9.49951-6.14875 0-11.98016 5.1831-13.055 11.44104l-2.15991 12.41009c-.10577.64832-.21496 1.29663-.21496 1.94153 0 5.50726 4.09802 9.6087 10.03863 9.6087 6.15216 0 12.08252-5.39807 13.1676-11.55023l2.15308-12.40668c.1126-.6449.21838-1.29663.21838-1.94494m2.04731 30.97576c-.10578.75409-.53571 1.07825-1.29322 1.07825h-3.99225c-.6449 0-.86669-.21838-.86669-.76092v-.32416l.76091-4.63715v-.32415c0-.54254-.32074-.8667-.76091-.8667-.75068 0-2.58984 1.94153-6.36713 4.75317-1.82892 1.39899-4.53137 2.15991-7.65693 2.15991-8.74541 0-14.78838-5.72223-14.78838-14.24926 0-1.07825.10578-2.26569.32416-3.45313l2.15991-12.41009c1.72656-10.2536 10.79272-17.59319 20.82794-17.59319 2.69562 0 4.74975.53912 5.72222 1.29662 3.34052 2.48748 4.85212 5.50726 6.04297 5.50726.42993 0 .85646-.42993.96906-1.18744l.75409-4.53137c.10578-.7575.54254-1.08166 1.29322-1.08166h3.99907c.64831 0 .85987.21497.85987.7575v.32416z" stroke="black"/>
			
      
			
			
      
			
			
      
			
			
      
			
			
      
			
			
    
		</g>
		
  
	</g>
	

</svg>