<?xml version="1.0" encoding="iso-8859-1"?><svg height="306" viewBox="0 0 470.00031 306.00001" width="470.00034" xmlns="http://www.w3.org/2000/svg">
	
  
	<g transform="translate(-202.45769 -102.01989)">
		
    
		
		
    
		
		
    
		<g fill="#000">
			
      
			
			
      
			
			
      
			
			
      
			
			
      
			
			
      
			
			
      
			
			
      
			
			
      
			<path animation_id="10" d="m537.88135 266.90377c-.10237.75409-.53571 1.07484-1.29322 1.07484h-5.17968c-.64832 0-.8667-.20815-.8667-.75068v-.32416l5.07391-29.03082c.11261-.64831.21838-1.29663.21838-1.94494 0-5.39465-4.10144-9.49609-10.14782-9.49609-6.14874 0-11.97674 5.1831-13.05499 11.44103l-5.07391 29.03082c-.10578.75409-.53913 1.07484-1.29322 1.07484h-5.17969c-.64831 0-.86669-.20815-.86669-.75068v-.32416l7.98791-45.54235c.10578-.7575.54254-1.08166 1.29663-1.08166h3.98884c.64831 0 .86669.21497.86669.7575v.32416l-.75409 4.31641v.32415c0 .53913.32415.86328.75409.86328.75409 0 2.26569-1.72997 5.39807-3.99566 2.36805-1.72656 5.17627-2.58984 8.41443-2.58984 8.96038 0 15.10913 5.72222 15.10913 14.24926 0 1.07483-.10578 2.15649-.32416 3.34393z" stroke="black"/>
			
      
			
			
      
			
			
      
			
			
    
		</g>
		
  
	</g>
	

</svg>