<?xml version="1.0" encoding="iso-8859-1"?><svg height="306" viewBox="0 0 470.00031 306.00001" width="470.00034" xmlns="http://www.w3.org/2000/svg">
	
  
	<g transform="translate(-202.45769 -102.01989)">
		
    
		
		
    
		
		
    
		<g fill="#000">
			
      
			
			
      
			
			
      
			
			
      
			
			
      
			
			
      
			
			
      
			
			
      
			
			
      
			
			
      
			
			
      
			
			
      
			<path animation_id="13" d="m662.41768 235.92733c0-5.39124-4.09461-9.49609-10.141-9.49609-6.14874 0-11.97674 5.1831-13.06182 11.44103l-2.15308 12.4101c-.1126.64831-.21497 1.29662-.21497 1.94153 0 5.50384 4.10144 9.60528 10.03522 9.60528 6.14533 0 12.08594-5.39466 13.16419-11.54681l2.1599-12.4101c.10578-.6449.21156-1.29663.21156-1.94494m.76092 38.42113c-2.05755 11.65259-10.47198 18.88641-22.23035 18.88641-9.17535 0-15.10913-4.96813-15.10913-9.4995 0-.42653.21838-.5323.8667-.85646l4.85553-2.26569c.21155-.11601.42652-.11601.5323-.11601.32415 0 .44017.22179.76091.54254 2.58985 3.45653 4.313 6.04638 9.16853 6.04638 6.58209 0 12.51928-5.29229 13.59753-11.54682l2.26569-13.16759v-.32416c0-.54254-.21156-.86669-.64832-.86669-.96906 0-3.12555 2.48406-7.76953 5.50384-.96906.64831-3.23474 1.29663-5.93037 1.29663-7.98791 0-14.03429-5.828-14.03429-14.24585 0-1.18744.11602-2.26569.32416-3.45312l2.15991-12.4101c1.72656-10.25018 10.78931-17.59319 20.83135-17.59319 2.69562 0 4.74293.53912 5.7154 1.29663 3.34735 2.48406 4.85894 5.50384 6.04297 5.50384.43676 0 .86669-.42993.97247-1.18744l.7575-4.53137c.10578-.7575.53572-1.08166 1.29663-1.08166h3.98884c.64831 0 .86669.21497.86669.7575v.32416z" stroke="black"/>
			
    
		</g>
		
  
	</g>
	

</svg>