<?xml version="1.0" encoding="iso-8859-1"?><!-- Created with Inkscape (http://www.inkscape.org/) --><svg height="153.24893" id="svg39820" version="1.0" width="591.97833" xmlns="http://www.w3.org/2000/svg" xmlns:svg="http://www.w3.org/2000/svg">
	
  
	<defs id="defs39822">
		
    
		<clipPath id="clp5">
			
      
			
			
    
		</clipPath>
		
  
	</defs>
	
  
	<g id="layer1" transform="translate(-104.3378,-135.8517)">
		
    
		<g id="g39870">
			
      
			
			
      
			
			
      
			
			
      
			
			
      
			<path animation_id="5" d="M 345.73874,222.17719 L 345.73874,236.28151 C 341.67019,240.35007 336.92354,242.65558 332.85498,242.65558 C 328.78643,242.65558 326.75215,240.68912 326.75215,235.39999 C 326.75215,229.5684 328.10834,227.33069 332.85498,225.49984 C 336.24545,224.07585 339.63591,223.19433 345.73874,222.17719 M 315.90267,205.29268 L 317.93695,204.47897 C 323.36169,202.30907 326.75215,201.49536 330.82071,200.74946 C 332.85498,200.47822 335.56735,200.20699 336.92354,200.20699 C 343.70447,200.20699 345.73874,202.44469 345.73874,208.68314 L 345.73874,210.44618 C 336.24545,212.0058 333.53308,212.54827 328.10834,213.70103 C 325.39596,214.37912 322.68359,215.26064 319.97122,216.4134 C 311.15602,219.93948 307.08746,226.72041 307.08746,237.36646 C 307.08746,250.72489 312.5122,257.09896 324.71787,257.09896 C 329.46452,257.09896 334.21117,256.01401 337.60163,253.84411 C 340.9921,252.2845 342.34828,251.47079 346.41684,247.74128 L 346.41684,249.91118 C 346.41684,254.31878 348.45111,256.42087 352.51967,256.42087 L 372.86245,256.42087 L 372.86245,249.16527 L 372.18436,249.16527 C 368.1158,249.16527 366.08152,247.33442 366.08152,243.67272 L 366.08152,209.02219 C 366.08152,190.98493 359.97869,184.88209 342.34828,184.88209 C 336.24545,184.88209 330.82071,185.56019 325.39596,186.84856 C 319.97122,188.13694 317.25885,189.08627 311.15602,192.2733" id="path37635" stroke="black" style="fill:#004a93;fill-opacity:1;fill-rule:evenodd;"/>
			
      
			
			
      
			<g clip-path="url(#clp5)" id="g37643" style="fill:#143861;fill-opacity:1;fill-rule:evenodd;stroke:none" transform="matrix(6.780926,0,0,-6.780926,-9776.146,5300.883)">
				
        
				
				
        
				
				
      
			</g>
			
    
		</g>
		
  
	</g>
	

</svg>