<?xml version="1.0" encoding="iso-8859-1"?><!-- Created with Inkscape (http://www.inkscape.org/) --><svg height="153.24893" id="svg39820" version="1.0" width="591.97833" xmlns="http://www.w3.org/2000/svg" xmlns:svg="http://www.w3.org/2000/svg">
	
  
	<defs id="defs39822">
		
    
		<clipPath id="clp5">
			
      
			
			
    
		</clipPath>
		
  
	</defs>
	
  
	<g id="layer1" transform="translate(-104.3378,-135.8517)">
		
    
		<g id="g39870">
			
      
			
			
      
			
			
      
			
			
      
			
			
      
			
			
      
			<path animation_id="6" d="M 404.7328,256.42087 L 404.7328,208.54753 C 409.47945,204.13992 412.86991,202.44469 417.61656,202.44469 C 422.36321,202.44469 423.7194,204.47897 423.7194,211.66675 L 423.7194,256.42087 L 444.74027,256.42087 L 444.74027,208.27629 C 444.74027,198.37614 443.38408,194.10415 440.67171,190.37464 C 437.28125,186.71294 433.21269,185.01771 427.10986,185.01771 C 418.97275,185.01771 412.86991,188.00132 403.37662,196.20624 L 403.37662,192.40892 C 403.37662,188.00132 401.34234,185.83142 397.27378,185.83142 L 376.931,185.83142 L 376.931,193.49387 L 377.6091,193.49387 C 381.67765,193.49387 383.71193,195.1891 383.71193,199.05423 L 383.71193,256.42087" id="path37637" stroke="black" style="fill:#004a93;fill-opacity:1;fill-rule:evenodd;"/>
			
      
			<g clip-path="url(#clp5)" id="g37643" style="fill:#143861;fill-opacity:1;fill-rule:evenodd;stroke:none" transform="matrix(6.780926,0,0,-6.780926,-9776.146,5300.883)">
				
        
				
				
        
				
				
      
			</g>
			
    
		</g>
		
  
	</g>
	

</svg>