<?xml version="1.0" encoding="iso-8859-1"?><!-- Created with Inkscape (http://www.inkscape.org/) --><svg height="153.24893" id="svg39820" version="1.0" width="591.97833" xmlns="http://www.w3.org/2000/svg" xmlns:svg="http://www.w3.org/2000/svg">
	
  
	<defs id="defs39822">
		
    
		<clipPath id="clp5">
			
      
			
			
    
		</clipPath>
		
  
	</defs>
	
  
	<g id="layer1" transform="translate(-104.3378,-135.8517)">
		
    
		<g id="g39870">
			
      
			
			
      
			
			
      
			
			
      
			
			
      
			
			
      
			
			
      
			<g clip-path="url(#clp5)" id="g37643" style="fill:#143861;fill-opacity:1;fill-rule:evenodd;stroke:none" transform="matrix(6.780926,0,0,-6.780926,-9776.146,5300.883)">
				
        
				
				
        
				<path animation_id="8" d="M 1534.6,744.49 L 1534.6,756.27 C 1534.6,757.22 1534.2,757.53 1533.3,757.53 L 1530.6,757.53 L 1530.6,756.23 L 1530.9,756.23 C 1531.4,756.23 1531.6,756.04 1531.6,755.46 L 1531.6,744.49 L 1534.6,744.49 z M 1536.2,744.49 L 1539.1,744.49 L 1539.1,753.38 C 1539.1,754.28 1538.7,754.64 1537.8,754.64 L 1536.2,754.64 L 1536.2,744.49 z M 1530,744.49 L 1530,754.64 L 1528.4,754.64 C 1527.5,754.64 1527.1,754.28 1527.1,753.38 L 1527.1,744.49 L 1530,744.49 z M 1542.5,750.41 C 1542.5,744.9 1538.5,740.88 1533.1,740.88 C 1527.7,740.88 1523.7,744.9 1523.7,750.41 C 1523.7,755.92 1527.7,759.94 1533.1,759.94 C 1538.5,759.94 1542.5,755.92 1542.5,750.41 M 1544.4,750.41 C 1544.4,756.86 1539.6,761.7 1533.1,761.7 C 1526.7,761.7 1521.8,756.86 1521.8,750.41 C 1521.8,743.94 1526.7,739.1 1533.1,739.1 C 1539.6,739.1 1544.4,743.94 1544.4,750.41" id="path37647" stroke="black" style="fill:#004a93;fill-opacity:1;fill-rule:evenodd;"/>
				
      
			</g>
			
    
		</g>
		
  
	</g>
	

</svg>