<?xml version="1.0" encoding="iso-8859-1"?><svg height="143.16" id="svg2" version="1.1" viewBox="0 0 826.14667 143.16" width="826.14667" xml:space="preserve" xmlns="http://www.w3.org/2000/svg" xmlns:cc="http://creativecommons.org/ns#" xmlns:dc="http://purl.org/dc/elements/1.1/" xmlns:rdf="http://www.w3.org/1999/02/22-rdf-syntax-ns#" xmlns:svg="http://www.w3.org/2000/svg">
	<metadata id="metadata8">
		<rdf:RDF>
			<cc:Work rdf:about="">
				<dc:format>image/svg+xml</dc:format>
				<dc:type rdf:resource="http://purl.org/dc/dcmitype/StillImage"/>
			</cc:Work>
		</rdf:RDF>
	</metadata>
	<defs id="defs6"/>
	<g id="g10" transform="matrix(1.3333333,0,0,-1.3333333,0,143.16)">
		<g id="g12" transform="scale(0.1)">
			
			
			
			<path animation_id="3" d="m 1839.84,309.637 v 240.062 c 0,23.871 -3.06,46.141 -9.16,66.797 -6.1,20.649 -16.01,38.555 -29.75,53.727 -13.73,15.16 -31.29,26.945 -52.65,35.34 -21.37,8.375 -47.01,12.582 -76.9,12.582 h -244.27 c -25.71,0 -46.56,-22.04 -46.56,-49.231 0,-27.184 20.85,-49.223 46.56,-49.223 0.62,0 243.35,-0.285 243.35,-0.285 26.85,0 45.93,-6.773 57.22,-20.336 11.29,-13.55 16.94,-30.34 16.94,-50.336 v -38.718 h -229.81 c -29.91,0 -55.25,-3.387 -75.99,-10.164 -20.76,-6.774 -37.54,-16.457 -50.35,-29.032 -12.83,-12.593 -22.13,-27.929 -27.93,-45.992 -5.81,-18.07 -8.7,-38.719 -8.7,-61.945 0,-48.403 12.66,-86.496 38,-114.231 25.32,-27.757 66.67,-41.629 124.06,-41.629 h 226.15 c 20.14,0 36.76,1.934 49.9,5.809 13.11,3.875 23.34,9.832 30.66,17.914 7.33,8.055 12.37,18.539 15.11,31.453 2.75,12.906 4.12,28.715 4.12,47.438 m -95.22,23.238 c 0,-17.43 -8.85,-26.145 -26.55,-26.145 h -203.26 c -24.42,0 -41.81,5.641 -52.18,16.946 -10.39,11.277 -15.57,26.281 -15.57,45.015 0,18.707 5.18,33.391 15.57,44.039 10.37,10.653 28.38,15.973 54.01,15.973 h 227.98 v -95.828" id="path20" stroke="black" style="fill:#231f20;fill-opacity:1;fill-rule:nonzero;"/>
			
			
		</g>
	</g>
</svg>