<?xml version="1.0" encoding="iso-8859-1"?><svg height="143.16" id="svg2" version="1.1" viewBox="0 0 826.14667 143.16" width="826.14667" xml:space="preserve" xmlns="http://www.w3.org/2000/svg" xmlns:cc="http://creativecommons.org/ns#" xmlns:dc="http://purl.org/dc/elements/1.1/" xmlns:rdf="http://www.w3.org/1999/02/22-rdf-syntax-ns#" xmlns:svg="http://www.w3.org/2000/svg">
	<metadata id="metadata8">
		<rdf:RDF>
			<cc:Work rdf:about="">
				<dc:format>image/svg+xml</dc:format>
				<dc:type rdf:resource="http://purl.org/dc/dcmitype/StillImage"/>
			</cc:Work>
		</rdf:RDF>
	</metadata>
	<defs id="defs6"/>
	<g id="g10" transform="matrix(1.3333333,0,0,-1.3333333,0,143.16)">
		<g id="g12" transform="scale(0.1)">
			
			
			<path animation_id="2" d="m 6158.59,452.422 c 25.02,25.48 37.54,61.789 37.54,108.902 0,49.684 -12.82,88.235 -38.45,115.68 -25.64,27.422 -67.15,41.137 -124.52,41.137 h -156.57 c -30.53,0 -56.3,-4.207 -77.37,-12.582 -21.05,-8.399 -38.45,-20.18 -52.18,-35.332 -13.74,-15.172 -23.66,-33.086 -29.75,-53.723 -6.12,-20.668 -9.16,-42.926 -9.16,-66.797 V 375.465 c 0,-24.535 3.04,-46.949 9.16,-67.277 6.09,-20.333 16.01,-38.09 29.75,-53.243 13.73,-15.172 31.13,-26.957 52.18,-35.332 21.07,-8.394 46.84,-12.586 77.37,-12.586 h 248.72 v 0.028 c 26.1,0 47.25,22.363 47.25,49.953 0,27.586 -21.15,49.949 -47.25,49.949 -0.37,0 -248.72,-0.223 -248.72,-0.223 -26.86,0 -45.93,6.61 -57.21,19.848 -11.31,13.219 -16.95,30.156 -16.95,50.813 v 36.789 h 229.82 c 59.19,0 101.3,12.738 126.34,38.238 m -57.68,103.094 c 0,-18.723 -5.35,-33.563 -16.03,-44.528 -10.67,-10.98 -29.15,-16.461 -55.39,-16.461 h -227.06 v 54.211 c 0,19.996 5.64,36.789 16.95,50.34 11.28,13.551 30.35,20.324 57.21,20.324 h 155.66 c 23.8,0 41.19,-5.808 52.18,-17.425 10.99,-11.61 16.48,-27.102 16.48,-46.461" id="path18" stroke="black" style="fill:#231f20;fill-opacity:1;fill-rule:nonzero;"/>
			
			
			
		</g>
	</g>
</svg>