<?xml version="1.0" encoding="iso-8859-1"?><!-- Generator: Adobe Illustrator 14.0.0, SVG Export Plug-In . SVG Version: 6.00 Build 43363)  --><!DOCTYPE svg  PUBLIC '-//W3C//DTD SVG 1.1//EN'  'http://www.w3.org/Graphics/SVG/1.1/DTD/svg11.dtd'><svg enable-background="new 0 0 1024 301" height="301px" id="Ebene_1" version="1.1" viewBox="0 0 1024 301" width="1024px" x="0px" xml:space="preserve" xmlns="http://www.w3.org/2000/svg" xmlns:xlink="http://www.w3.org/1999/xlink" y="0px">
	

	
	

	<g>
		
	
		<defs>
			
		
			
			
	
		</defs>
		
	
		<clipPath id="SVGID_2_">
			
		
			<use overflow="visible" xlink:href="#SVGID_1_"/>
			
	
		</clipPath>
		
	
		<g clip-path="url(#SVGID_2_)">
			
		
			
			
		
			
			
		
			
			
		
			
			
		
			
			
		
			
			
		
			
			
		
			
			
		
			
			
		
			
			
		
			
			
		
			
			
		
			
			
		
			
			
		
			
			
		
			
			
		
			
			
		
			
			
		
			
			
		
			
			
		
			
			
		
			
			
		
			
			
		
			
			
		
			
			
		
			
			
		
			
			
		
			
			
		
			
			
		
			
			
		
			
			
	
		</g>
		

	</g>
	

	<g>
		
	
		
		

	</g>
	

	<g>
		
	
		<defs>
			
		
			<path animation_id="33" d="M298.743,212.263c17.193,0.415,34.713,2.643,41.705,3.152c28.83,3.033,61.228,9.622,94.768,14.48    c45.462,6.576,322.905,56.689,434.624,40.929c81.147-11.458,121.732-35.833,146.226-80.519c4.705-8.923,6.66-13.13,8.366-19.493    c0.568,3.235-2.678,13.983-5.522,22.515c-17.514,52.554-66.666,93.886-157.482,103.863    c-99.502,10.913-213.745-1.576-332.018-17.621C469.882,271.5,414.55,261.996,364.58,254.78    c-23.077-3.342-45.064-6.186-65.837-8.212V212.263" id="SVGID_3_" stroke="black"/>
			
	
		</defs>
		
	
		<clipPath id="SVGID_4_">
			
		
			<use overflow="visible" xlink:href="#SVGID_3_"/>
			
	
		</clipPath>
		
	
		
		<linearGradient gradientTransform="matrix(59.811 0 0 -59.811 -12435.918 27215.6172)" gradientUnits="userSpaceOnUse" id="SVGID_5_" x1="212.9146" x2="225.0571" y1="451.0234" y2="451.0234">
			
		
			<stop offset="0" style="stop-color:#FFFFFF"/>
			
		
			<stop offset="0.0109" style="stop-color:#FFFFFF"/>
			
		
			<stop offset="0.2623" style="stop-color:#9EC448"/>
			
		
			<stop offset="0.6" style="stop-color:#009B32"/>
			
		
			<stop offset="0.8962" style="stop-color:#009B32"/>
			
		
			<stop offset="1" style="stop-color:#009B32"/>
			
	
		</linearGradient>
		
	
		
		

	</g>
	

	
	

</svg>