<?xml version="1.0" encoding="iso-8859-1"?><!-- Generator: Adobe Illustrator 14.0.0, SVG Export Plug-In . SVG Version: 6.00 Build 43363)  --><!DOCTYPE svg  PUBLIC '-//W3C//DTD SVG 1.1//EN'  'http://www.w3.org/Graphics/SVG/1.1/DTD/svg11.dtd'><svg enable-background="new 0 0 1024 301" height="301px" id="Ebene_1" version="1.1" viewBox="0 0 1024 301" width="1024px" x="0px" xml:space="preserve" xmlns="http://www.w3.org/2000/svg" xmlns:xlink="http://www.w3.org/1999/xlink" y="0px">
	

	
	

	<g>
		
	
		<defs>
			
		
			
			
	
		</defs>
		
	
		<clipPath id="SVGID_2_">
			
		
			<use overflow="visible" xlink:href="#SVGID_1_"/>
			
	
		</clipPath>
		
	
		<g clip-path="url(#SVGID_2_)">
			
		
			
			
		
			
			
		
			
			
		
			
			
		
			
			
		
			
			
		
			
			
		
			
			
		
			
			
		
			
			
		
			
			
		
			<path animation_id="13" clip-rule="evenodd" d="M513.999,163.845l0.313,0.143    c2.613,0.178,5.392,5.226,4.396,9.089c-3.715,14.374-13.432,22.432-25.82,28.392c-12.935,6.896-29.405,11.21-46.753,10.108    c-30.508-1.908-49.206-9.444-62.419-23.83c13.272,10.795,30.697,17.324,56.968,18.972c17.354,1.09,34.038-3.78,46.973-10.653    c12.389-5.984,22.426-16.27,26.122-30.655C513.88,165.03,513.951,164.2,513.999,163.845" fill="#A60B16" fill-rule="evenodd" stroke="black"/>
			
		
			
			
		
			
			
		
			
			
		
			
			
		
			
			
		
			
			
		
			
			
		
			
			
		
			
			
		
			
			
		
			
			
		
			
			
		
			
			
		
			
			
		
			
			
		
			
			
		
			
			
		
			
			
		
			
			
	
		</g>
		

	</g>
	

	<g>
		
	
		
		

	</g>
	

	<g>
		
	
		<defs>
			
		
			
			
	
		</defs>
		
	
		<clipPath id="SVGID_4_">
			
		
			<use overflow="visible" xlink:href="#SVGID_3_"/>
			
	
		</clipPath>
		
	
		
		<linearGradient gradientTransform="matrix(59.811 0 0 -59.811 -12435.918 27215.6172)" gradientUnits="userSpaceOnUse" id="SVGID_5_" x1="212.9146" x2="225.0571" y1="451.0234" y2="451.0234">
			
		
			<stop offset="0" style="stop-color:#FFFFFF"/>
			
		
			<stop offset="0.0109" style="stop-color:#FFFFFF"/>
			
		
			<stop offset="0.2623" style="stop-color:#9EC448"/>
			
		
			<stop offset="0.6" style="stop-color:#009B32"/>
			
		
			<stop offset="0.8962" style="stop-color:#009B32"/>
			
		
			<stop offset="1" style="stop-color:#009B32"/>
			
	
		</linearGradient>
		
	
		
		

	</g>
	

	
	

</svg>