<?xml version="1.0" encoding="iso-8859-1"?><!-- Generator: Adobe Illustrator 14.0.0, SVG Export Plug-In . SVG Version: 6.00 Build 43363)  --><!DOCTYPE svg  PUBLIC '-//W3C//DTD SVG 1.1//EN'  'http://www.w3.org/Graphics/SVG/1.1/DTD/svg11.dtd'><svg enable-background="new 0 0 1024 301" height="301px" id="Ebene_1" version="1.1" viewBox="0 0 1024 301" width="1024px" x="0px" xml:space="preserve" xmlns="http://www.w3.org/2000/svg" xmlns:xlink="http://www.w3.org/1999/xlink" y="0px">
	

	
	

	<g>
		
	
		<defs>
			
		
			
			
	
		</defs>
		
	
		<clipPath id="SVGID_2_">
			
		
			<use overflow="visible" xlink:href="#SVGID_1_"/>
			
	
		</clipPath>
		
	
		<g clip-path="url(#SVGID_2_)">
			
		
			<path animation_id="2" clip-rule="evenodd" d="M16.601,193.849c-14.747-12.68-20.482-26.401-20.482-49.105    c0-42.588,28.937-78.362,71.927-80.969c20.749-1.245,33.02,1.919,45.361,12.774l1.066-4.788c0,0,0.568-6.588,5.06-6.766    l46.244-2.808c2.388-0.143,5.48,5.226,5.303,7.738l0.462,2.002l-46.262,2.737c-3.068,0.189-4.378,3.33-5.202,6.861l-0.912,4.681    C106.813,75.352,91.71,71.785,70.949,73.041c-42.99,2.607-66.062,34.495-66.062,77.083C4.887,169.64,6.635,180.802,16.601,193.849    " fill="#EB6A39" fill-rule="evenodd" stroke="black"/>
			
		
			
			
		
			
			
		
			
			
		
			
			
		
			
			
		
			
			
		
			
			
		
			
			
		
			
			
		
			
			
		
			
			
		
			
			
		
			
			
		
			
			
		
			
			
		
			
			
		
			
			
		
			
			
		
			
			
		
			
			
		
			
			
		
			
			
		
			
			
		
			
			
		
			
			
		
			
			
		
			
			
		
			
			
		
			
			
		
			
			
	
		</g>
		

	</g>
	

	<g>
		
	
		
		

	</g>
	

	<g>
		
	
		<defs>
			
		
			
			
	
		</defs>
		
	
		<clipPath id="SVGID_4_">
			
		
			<use overflow="visible" xlink:href="#SVGID_3_"/>
			
	
		</clipPath>
		
	
		
		<linearGradient gradientTransform="matrix(59.811 0 0 -59.811 -12435.918 27215.6172)" gradientUnits="userSpaceOnUse" id="SVGID_5_" x1="212.9146" x2="225.0571" y1="451.0234" y2="451.0234">
			
		
			<stop offset="0" style="stop-color:#FFFFFF"/>
			
		
			<stop offset="0.0109" style="stop-color:#FFFFFF"/>
			
		
			<stop offset="0.2623" style="stop-color:#9EC448"/>
			
		
			<stop offset="0.6" style="stop-color:#009B32"/>
			
		
			<stop offset="0.8962" style="stop-color:#009B32"/>
			
		
			<stop offset="1" style="stop-color:#009B32"/>
			
	
		</linearGradient>
		
	
		
		

	</g>
	

	
	

</svg>