<?xml version="1.0" encoding="iso-8859-1"?><!-- Generator: Adobe Illustrator 14.0.0, SVG Export Plug-In . SVG Version: 6.00 Build 43363)  --><!DOCTYPE svg  PUBLIC '-//W3C//DTD SVG 1.1//EN'  'http://www.w3.org/Graphics/SVG/1.1/DTD/svg11.dtd'><svg enable-background="new 0 0 1024 301" height="301px" id="Ebene_1" version="1.1" viewBox="0 0 1024 301" width="1024px" x="0px" xml:space="preserve" xmlns="http://www.w3.org/2000/svg" xmlns:xlink="http://www.w3.org/1999/xlink" y="0px">
	

	
	

	<g>
		
	
		<defs>
			
		
			
			
	
		</defs>
		
	
		<clipPath id="SVGID_2_">
			
		
			<use overflow="visible" xlink:href="#SVGID_1_"/>
			
	
		</clipPath>
		
	
		<g clip-path="url(#SVGID_2_)">
			
		
			
			
		
			
			
		
			
			
		
			
			
		
			
			
		
			<path animation_id="7" clip-rule="evenodd" d="M238.558,254.259l-46.9,1.635    c-2.536,0.189-3.869-4.325-3.869-4.325l5.143-4.123l39.667-1.387c2.488-0.095,4.491-2.181,4.491-4.669l0.58-55.859    c12.04,8.212,25.287,10.83,41.753,10.262c47.34-1.647,69.096-37.042,69.096-77.438c0-18.853-5.173-37.125-16.287-50.136    c15.238,12.987,22.241,34.139,22.241,56.097c0,40.396-21.756,75.779-69.102,77.426c-16.465,0.581-29.707-2.038-41.752-10.25    l-0.587,55.86C243.031,249.827,241.028,254.176,238.558,254.259" fill="#A60B16" fill-rule="evenodd" stroke="black"/>
			
		
			
			
		
			
			
		
			
			
		
			
			
		
			
			
		
			
			
		
			
			
		
			
			
		
			
			
		
			
			
		
			
			
		
			
			
		
			
			
		
			
			
		
			
			
		
			
			
		
			
			
		
			
			
		
			
			
		
			
			
		
			
			
		
			
			
		
			
			
		
			
			
		
			
			
	
		</g>
		

	</g>
	

	<g>
		
	
		
		

	</g>
	

	<g>
		
	
		<defs>
			
		
			
			
	
		</defs>
		
	
		<clipPath id="SVGID_4_">
			
		
			<use overflow="visible" xlink:href="#SVGID_3_"/>
			
	
		</clipPath>
		
	
		
		<linearGradient gradientTransform="matrix(59.811 0 0 -59.811 -12435.918 27215.6172)" gradientUnits="userSpaceOnUse" id="SVGID_5_" x1="212.9146" x2="225.0571" y1="451.0234" y2="451.0234">
			
		
			<stop offset="0" style="stop-color:#FFFFFF"/>
			
		
			<stop offset="0.0109" style="stop-color:#FFFFFF"/>
			
		
			<stop offset="0.2623" style="stop-color:#9EC448"/>
			
		
			<stop offset="0.6" style="stop-color:#009B32"/>
			
		
			<stop offset="0.8962" style="stop-color:#009B32"/>
			
		
			<stop offset="1" style="stop-color:#009B32"/>
			
	
		</linearGradient>
		
	
		
		

	</g>
	

	
	

</svg>