<?xml version="1.0" encoding="iso-8859-1"?><!-- Generator: Adobe Illustrator 14.0.0, SVG Export Plug-In . SVG Version: 6.00 Build 43363)  --><!DOCTYPE svg  PUBLIC '-//W3C//DTD SVG 1.1//EN'  'http://www.w3.org/Graphics/SVG/1.1/DTD/svg11.dtd'><svg enable-background="new 0 0 1024 301" height="301px" id="Ebene_1" version="1.1" viewBox="0 0 1024 301" width="1024px" x="0px" xml:space="preserve" xmlns="http://www.w3.org/2000/svg" xmlns:xlink="http://www.w3.org/1999/xlink" y="0px">
	

	
	

	<g>
		
	
		<defs>
			
		
			
			
	
		</defs>
		
	
		<clipPath id="SVGID_2_">
			
		
			<use overflow="visible" xlink:href="#SVGID_1_"/>
			
	
		</clipPath>
		
	
		<g clip-path="url(#SVGID_2_)">
			
		
			
			
		
			
			
		
			
			
		
			
			
		
			
			
		
			
			
		
			
			
		
			
			
		
			
			
		
			
			
		
			
			
		
			
			
		
			
			
		
			<path animation_id="15" clip-rule="evenodd" d="M598.914,39.956c1.932-0.249,5.326,0.711,5.616,2.157    l-5.314,4.882l-39.104,7.963c-3.437,0.664-5.125,1.671-5.125,4.159l0.064,25.086l-22.78-2.583    c-2.447-0.249-4.485,1.493-4.485,3.969l-0.012,22.669l-4.248-0.854c-0.925-0.912-1.505-2.18-1.505-3.507V79.831    c0-2.477,2.038-4.669,4.503-4.42l22.473,2.583l-0.077-23.616c0-2.477,1.908-4.479,5.427-5.178L598.914,39.956" fill="#EB6A39" fill-rule="evenodd" stroke="black"/>
			
		
			
			
		
			
			
		
			
			
		
			
			
		
			
			
		
			
			
		
			
			
		
			
			
		
			
			
		
			
			
		
			
			
		
			
			
		
			
			
		
			
			
		
			
			
		
			
			
		
			
			
	
		</g>
		

	</g>
	

	<g>
		
	
		
		

	</g>
	

	<g>
		
	
		<defs>
			
		
			
			
	
		</defs>
		
	
		<clipPath id="SVGID_4_">
			
		
			<use overflow="visible" xlink:href="#SVGID_3_"/>
			
	
		</clipPath>
		
	
		
		<linearGradient gradientTransform="matrix(59.811 0 0 -59.811 -12435.918 27215.6172)" gradientUnits="userSpaceOnUse" id="SVGID_5_" x1="212.9146" x2="225.0571" y1="451.0234" y2="451.0234">
			
		
			<stop offset="0" style="stop-color:#FFFFFF"/>
			
		
			<stop offset="0.0109" style="stop-color:#FFFFFF"/>
			
		
			<stop offset="0.2623" style="stop-color:#9EC448"/>
			
		
			<stop offset="0.6" style="stop-color:#009B32"/>
			
		
			<stop offset="0.8962" style="stop-color:#009B32"/>
			
		
			<stop offset="1" style="stop-color:#009B32"/>
			
	
		</linearGradient>
		
	
		
		

	</g>
	

	
	

</svg>