<?xml version="1.0" encoding="iso-8859-1"?><!-- Generator: Adobe Illustrator 16.2.0, SVG Export Plug-In . SVG Version: 6.00 Build 0)  --><!DOCTYPE svg  PUBLIC '-//W3C//DTD SVG 1.1//EN'  'http://www.w3.org/Graphics/SVG/1.1/DTD/svg11.dtd'><svg enable-background="new -40.001 -29.107 200 157.214" height="157.214px" id="Ebene_1" version="1.1" viewBox="-40.001 -29.107 200 157.214" width="200px" x="0px" xml:space="preserve" xmlns="http://www.w3.org/2000/svg" xmlns:xlink="http://www.w3.org/1999/xlink" y="0px">
	

	<g>
		
	
		
		
	
		
		
	
		
		
	
		
		
	
		<path animation_id="1" d="M40.054,39.655c0,3.118-2.873,4.432-7.131,4.432v3.115c3.768-0.165,7.131-0.41,12.05-0.41c4.925,0,8.288,0.245,12.062,0.41   v-3.115c-8.037,0-9.599-1.316-9.599-4.925V25.465c0-10.995,5.334-13.452,8.207-13.452c2.457,0,3.854,1.804,4.344,4.021h3.118   c-0.165-1.889-0.41-3.611-0.41-5.335s0.245-3.443,0.41-5.002l-1.477-1.396C53.426,5.53,49.162,11.19,47.601,15.949h-0.165   c0-2.627,0-4.679,0.575-10.252l-2.052-1.396C42.684,7.088,37.511,8.4,32.923,8.4v3.118c6.065,0,7.131,0.33,7.131,7.547V39.655   L40.054,39.655z" stroke="black"/>
		
	
		
		
	
		
		
	
		
		
	
		
		
	
		
		
	
		
		
	
		
		
	
		
		
	
		
		
	
		
		

	</g>
	

</svg>