<?xml version="1.0" encoding="iso-8859-1"?><!-- Generator: Adobe Illustrator 16.2.0, SVG Export Plug-In . SVG Version: 6.00 Build 0)  --><!DOCTYPE svg  PUBLIC '-//W3C//DTD SVG 1.1//EN'  'http://www.w3.org/Graphics/SVG/1.1/DTD/svg11.dtd'><svg enable-background="new -40.001 -29.107 200 157.214" height="157.214px" id="Ebene_1" version="1.1" viewBox="-40.001 -29.107 200 157.214" width="200px" x="0px" xml:space="preserve" xmlns="http://www.w3.org/2000/svg" xmlns:xlink="http://www.w3.org/1999/xlink" y="0px">
	

	<g>
		
	
		
		
	
		
		
	
		
		
	
		
		
	
		
		
	
		
		
	
		
		
	
		
		
	
		
		
	
		
		
	
		<path animation_id="6" d="M55.896,96.166c-0.686-2.907-2.828-4.997-6.346-4.997c-4.084,0-6.201,2.225-6.201,5.775   c0,5.771,8.804,5.823,8.804,9.714c0,1.546-1.062,2.457-2.433,2.457c-1.169,0-2.603-0.883-3.056-3.365l-3.891,0.823   c1.061,4.059,3.551,5.803,6.749,5.803c4.141,0,6.573-2.342,6.573-5.886c0-6.458-8.803-6.69-8.803-9.799   c0-1.406,0.771-2.257,2.172-2.257c1.371,0,2.227,0.823,2.882,2.768L55.896,96.166L55.896,96.166z" fill="#FFAF00" stroke="black"/>
		
	
		
		
	
		
		
	
		
		
	
		
		

	</g>
	

</svg>