<?xml version="1.0" encoding="iso-8859-1"?><!-- Generator: Adobe Illustrator 16.2.0, SVG Export Plug-In . SVG Version: 6.00 Build 0)  --><!DOCTYPE svg  PUBLIC '-//W3C//DTD SVG 1.1//EN'  'http://www.w3.org/Graphics/SVG/1.1/DTD/svg11.dtd'><svg enable-background="new -40.001 -29.107 200 157.214" height="157.214px" id="Ebene_1" version="1.1" viewBox="-40.001 -29.107 200 157.214" width="200px" x="0px" xml:space="preserve" xmlns="http://www.w3.org/2000/svg" xmlns:xlink="http://www.w3.org/1999/xlink" y="0px">
	

	<g>
		
	
		
		
	
		
		
	
		
		
	
		
		
	
		
		
	
		
		
	
		
		
	
		
		
	
		
		
	
		
		
	
		
		
	
		<path animation_id="7" d="M64.271,105.455c0,5.089,2.688,6.916,6.516,6.916s6.516-1.827,6.516-6.916v-7.372   c0-5.087-2.688-6.914-6.516-6.914s-6.516,1.827-6.516,6.914V105.455L64.271,105.455z M68.214,97.567   c0-2.287,1.001-2.912,2.572-2.912c1.569,0,2.567,0.625,2.567,2.912v8.402c0,2.29-0.998,2.913-2.567,2.913   c-1.571,0-2.572-0.623-2.572-2.913V97.567L68.214,97.567z" fill="#FFAF00" stroke="black"/>
		
	
		
		
	
		
		
	
		
		

	</g>
	

</svg>