<?xml version="1.0" encoding="iso-8859-1"?><!-- Generator: Adobe Illustrator 16.2.0, SVG Export Plug-In . SVG Version: 6.00 Build 0)  --><!DOCTYPE svg  PUBLIC '-//W3C//DTD SVG 1.1//EN'  'http://www.w3.org/Graphics/SVG/1.1/DTD/svg11.dtd'><svg enable-background="new -40.001 -29.107 200 157.214" height="157.214px" id="Ebene_1" version="1.1" viewBox="-40.001 -29.107 200 157.214" width="200px" x="0px" xml:space="preserve" xmlns="http://www.w3.org/2000/svg" xmlns:xlink="http://www.w3.org/1999/xlink" y="0px">
	

	<g>
		
	
		
		
	
		
		
	
		
		
	
		
		
	
		
		
	
		
		
	
		<path animation_id="3" d="M99.24,27.349c0,11.321,5.908,20.833,19.853,20.833c15.75,0,21.9-12.961,21.9-21.159c0-14.603-7.545-22.723-18.782-22.723   C109.987,4.301,99.24,11.765,99.24,27.349L99.24,27.349z M132.632,28.092c0,12.631-6.646,16.568-11.896,16.568   c-8.37,0-13.127-6.23-13.127-19.766c0-11.898,5.25-17.063,12.637-17.063C127.462,7.829,132.632,14.966,132.632,28.092   L132.632,28.092z" stroke="black"/>
		
	
		
		
	
		
		
	
		
		
	
		
		
	
		
		
	
		
		
	
		
		
	
		
		

	</g>
	

</svg>