<?xml version="1.0" encoding="iso-8859-1"?><!-- Created with Inkscape (http://www.inkscape.org/) by Marsupilami --><svg height="409" id="svg2458" version="1.0" viewBox="0 0 182.76227 72.926392" width="1024" xmlns="http://www.w3.org/2000/svg" xmlns:svg="http://www.w3.org/2000/svg">
	
  
	<defs id="defs2460"/>
	
  
	<g id="layer1" transform="translate(-508.06898,-89.39)">
		
    
		<path animation_id="0" d="M 105.53125,0 C 103.99,0 101.06125,0.41874992 92.40625,6.0625 C 92.40625,6.0625 43.886249,34.284999 34.09375,40.0625 L 67.65625,40.0625 L 97.65625,22.5625 L 97.65625,40.0625 L 115.59375,40.0625 L 115.59375,9.5 C 115.59375,2.40375 110.2725,1.5571752e-17 105.53125,0 z M 118.4375,0.03125 L 118.4375,29.125 L 131.1875,40.0625 L 156.0625,40.0625 L 139.25,26.0625 C 146.21625,22.8025 147.93751,17.945 147.9375,13.4375 C 147.9375,6.39125 142.2,0.012499999 134.6875,0.03125 L 118.4375,0.03125 z M 162.21875,0.03125 C 154.7225,0.0125 148.96875,6.3987502 148.96875,13.34375 C 148.96875,26.1175 159.8125,24.181251 159.8125,33.53125 C 159.8125,35.65125 158.67249,37.777499 157.125,40.0625 L 179.75,40.0625 C 182.17,35.78375 182.75,34.8475 182.75,31.375 C 182.75,19.6375 170.47624,20.54375 170.21875,16.8125 C 170.1575,15.91375 171.17749,15.25 172.90625,15.25 L 178.1875,15.25 L 178.1875,0.03125 L 162.21875,0.03125 z " id="path4030" stroke="black" style="fill:#fff200;fill-opacity:1;fill-rule:nonzero;" transform="translate(508.06898,89.39)"/>
		
    
		
		
  
	</g>
	

</svg>