<?xml version="1.0" encoding="iso-8859-1"?><svg height="339.98pt" id="svg2" inkscape:version="0.92.3 (2405546, 2018-03-11)" sodipodi:docname="Arte_Logo_2017.svg" version="1.1" viewBox="0 0 82.630707 339.98166" width="82.631pt" xmlns="http://www.w3.org/2000/svg" xmlns:cc="http://creativecommons.org/ns#" xmlns:dc="http://purl.org/dc/elements/1.1/" xmlns:inkscape="http://www.inkscape.org/namespaces/inkscape" xmlns:rdf="http://www.w3.org/1999/02/22-rdf-syntax-ns#" xmlns:sodipodi="http://sodipodi.sourceforge.net/DTD/sodipodi-0.dtd" xmlns:svg="http://www.w3.org/2000/svg">
	
  
	<defs id="defs11"/>
	
  
	<sodipodi:namedview bordercolor="#666666" borderopacity="1" gridtolerance="10" guidetolerance="10" id="namedview9" inkscape:current-layer="svg2" inkscape:cx="-64.911687" inkscape:cy="236.25186" inkscape:pageopacity="0" inkscape:pageshadow="2" inkscape:window-height="996" inkscape:window-maximized="1" inkscape:window-width="1920" inkscape:window-x="-8" inkscape:window-y="-8" inkscape:zoom="1.4725325" objecttolerance="10" pagecolor="#ffffff" showgrid="false"/>
	
  
	<metadata id="metadata18">
		
    
		<rdf:RDF>
			
      
			<cc:Work rdf:about="">
				
        
				<dc:format>image/svg+xml</dc:format>
				
        
				<dc:type rdf:resource="http://purl.org/dc/dcmitype/StillImage"/>
				
        
				<dc:title/>
				
      
			</cc:Work>
			
    
		</rdf:RDF>
		
  
	</metadata>
	
  
	
	
  
	
	
  
	
	
  
	<path animation_id="3" d="m 16.66,67.25 c -4.12,-13.17 -4.49,-27.78 0.18,-40.86 2.46,-7.62 7.36,-14.42 13.95,-19 9.9,-6.96 22.67,-8.24 34.42,-6.93 0.03,19.72 0.03,39.45 0,59.17 5.59,0.06 11.19,0.02 16.79,0.03 -0.09,8.36 0.18,16.73 -0.12,25.07 C 80.26,86.89 77.7,88 75.41,89.26 65.18,94.91 52.59,95.65 41.49,92.33 29.55,89.09 20.19,78.94 16.66,67.25 m 18.87,-14.2 c 1.67,5.1 7.1,7.92 12.27,7.68 0.11,-9.24 -0.23,-18.46 -0.23,-27.69 -3.01,0.74 -6.29,1.2 -8.65,3.41 -4.92,3.88 -4.99,11.07 -3.39,16.6 z" id="path12" inkscape:connector-curvature="0" stroke="black" style="fill:#fa481c"/>
	

</svg>