<?xml version="1.0" encoding="iso-8859-1"?><!-- Created with Inkscape (http://www.inkscape.org/) --><svg height="194.8819" id="svg2" inkscape:version="0.48.2 r9819" sodipodi:docname="AVAG Logo 2011_lang.pdf" version="1.1" width="992.12601" xml:space="preserve" xmlns="http://www.w3.org/2000/svg" xmlns:cc="http://creativecommons.org/ns#" xmlns:dc="http://purl.org/dc/elements/1.1/" xmlns:inkscape="http://www.inkscape.org/namespaces/inkscape" xmlns:rdf="http://www.w3.org/1999/02/22-rdf-syntax-ns#" xmlns:sodipodi="http://sodipodi.sourceforge.net/DTD/sodipodi-0.dtd" xmlns:svg="http://www.w3.org/2000/svg">
	<metadata id="metadata8">
		<rdf:RDF>
			<cc:Work rdf:about="">
				<dc:format>image/svg+xml</dc:format>
				<dc:type rdf:resource="http://purl.org/dc/dcmitype/StillImage"/>
				<dc:title/>
			</cc:Work>
		</rdf:RDF>
	</metadata>
	<defs id="defs6">
		<clipPath clipPathUnits="userSpaceOnUse" id="clipPath16">
			
		</clipPath>
		<clipPath clipPathUnits="userSpaceOnUse" id="clipPath24">
			
		</clipPath>
	</defs>
	<sodipodi:namedview bordercolor="#666666" borderopacity="1" gridtolerance="10" guidetolerance="10" id="namedview4" inkscape:current-layer="g10" inkscape:cx="496.06302" inkscape:cy="97.440948" inkscape:pageopacity="0" inkscape:pageshadow="2" inkscape:window-height="672" inkscape:window-maximized="0" inkscape:window-width="948" inkscape:window-x="2051" inkscape:window-y="186" inkscape:zoom="0.3870476" objecttolerance="10" pagecolor="#ffffff" showgrid="false"/>
	<g id="g10" inkscape:groupmode="layer" inkscape:label="AVAG Logo 2011_lang" transform="matrix(1.25,0,0,-1.25,0,194.8819)">
		<g id="g12">
			<g clip-path="url(#clipPath16)" id="g14">
				<g id="g20" transform="matrix(1,0,0,-1,397.20079,77.83464)">
					<g clip-path="url(#clipPath24)" id="g22">
						<g id="g28" transform="matrix(1,0,0,-1,-395.5,80)">
							
							
							
							
							
							
							
							
							
							
							
							
							
							
							
							
							
							
							<path animation_id="20" d="m 109.99814,16.13821 c 0,-1.72711 0.15533,-3.0617 0.46658,-4.00363 0.3107,-0.94195 0.78607,-1.75039 1.42639,-2.42563 0.64005,-0.67492 1.56388,-1.23251 2.77115,-1.67187 1.207,-0.43967 2.37769,-0.65961 3.51154,-0.65961 2.41427,0 4.42602,0.6908 6.03555,2.07239 1.6098,1.38162 2.41455,3.12436 2.41455,5.22824 0,3.13992 -2.04861,5.26733 -6.14581,6.39749 l -5.48673,1.60953 c -5.15789,1.50717 -7.73687,4.31744 -7.73687,8.43082 0,2.73172 0.96038,4.92178 2.88086,6.5704 1.92044,1.64838 4.69131,2.47266 8.31259,2.47266 1.71948,0 3.14618,-0.15702 4.28,-0.47113 1.13415,-0.31406 2.22238,-0.88697 3.26467,-1.71918 1.04261,-0.83197 1.8017,-1.7504 2.27738,-2.75528 0.47565,-1.00461 0.71319,-2.41769 0.71319,-4.23892 l -3.45684,0 c 0,1.44452 -0.1463,2.51999 -0.43912,3.22638 -0.29251,0.70639 -0.92349,1.49923 -1.89295,2.37854 -0.96917,0.87903 -2.56988,1.31869 -4.80105,1.31869 -2.34113,0 -4.21567,-0.5729 -5.62421,-1.71924 -1.40826,-1.14602 -2.11267,-2.67672 -2.11267,-4.5921 0,-1.66424 0.45752,-2.9985 1.37198,-4.00339 0.91443,-1.00488 2.4324,-1.82122 4.55414,-2.44912 l 5.92612,-1.78977 c 2.5971,-0.75375 4.49911,-1.82129 5.70642,-3.20288 1.20727,-1.38162 1.81076,-3.17142 1.81076,-5.36938 0,-2.92026 -1.07914,-5.24384 -3.23743,-6.97068 -2.15802,-1.72717 -5.08453,-2.5906 -8.77921,-2.5906 -3.51184,0 -6.01766,0.58108 -7.51718,1.74273 -1.49984,1.16193 -2.45083,2.26093 -2.85309,3.297 -0.40249,1.03635 -0.66781,1.97037 -0.79595,2.80234 -0.12787,0.83224 -0.1919,1.86063 -0.1919,3.0852 l 3.34714,0 z" id="path66" stroke="black" style="fill:#918f90;fill-opacity:1;fill-rule:nonzero;"/>
							
							
							
							
							
							
							
							
							
							
							
							
							
							
							
						</g>
					</g>
				</g>
			</g>
		</g>
	</g>
</svg>