<?xml version="1.0" encoding="iso-8859-1"?><!-- Created with Inkscape (http://www.inkscape.org/) --><svg height="194.8819" id="svg2" inkscape:version="0.48.2 r9819" sodipodi:docname="AVAG Logo 2011_lang.pdf" version="1.1" width="992.12601" xml:space="preserve" xmlns="http://www.w3.org/2000/svg" xmlns:cc="http://creativecommons.org/ns#" xmlns:dc="http://purl.org/dc/elements/1.1/" xmlns:inkscape="http://www.inkscape.org/namespaces/inkscape" xmlns:rdf="http://www.w3.org/1999/02/22-rdf-syntax-ns#" xmlns:sodipodi="http://sodipodi.sourceforge.net/DTD/sodipodi-0.dtd" xmlns:svg="http://www.w3.org/2000/svg">
	<metadata id="metadata8">
		<rdf:RDF>
			<cc:Work rdf:about="">
				<dc:format>image/svg+xml</dc:format>
				<dc:type rdf:resource="http://purl.org/dc/dcmitype/StillImage"/>
				<dc:title/>
			</cc:Work>
		</rdf:RDF>
	</metadata>
	<defs id="defs6">
		<clipPath clipPathUnits="userSpaceOnUse" id="clipPath16">
			
		</clipPath>
		<clipPath clipPathUnits="userSpaceOnUse" id="clipPath24">
			
		</clipPath>
	</defs>
	<sodipodi:namedview bordercolor="#666666" borderopacity="1" gridtolerance="10" guidetolerance="10" id="namedview4" inkscape:current-layer="g10" inkscape:cx="496.06302" inkscape:cy="97.440948" inkscape:pageopacity="0" inkscape:pageshadow="2" inkscape:window-height="672" inkscape:window-maximized="0" inkscape:window-width="948" inkscape:window-x="2051" inkscape:window-y="186" inkscape:zoom="0.3870476" objecttolerance="10" pagecolor="#ffffff" showgrid="false"/>
	<g id="g10" inkscape:groupmode="layer" inkscape:label="AVAG Logo 2011_lang" transform="matrix(1.25,0,0,-1.25,0,194.8819)">
		<g id="g12">
			<g clip-path="url(#clipPath16)" id="g14">
				<g id="g20" transform="matrix(1,0,0,-1,397.20079,77.83464)">
					<g clip-path="url(#clipPath24)" id="g22">
						<g id="g28" transform="matrix(1,0,0,-1,-395.5,80)">
							
							
							
							
							
							
							
							
							
							
							
							
							<path animation_id="14" d="m 547.39551,95.07657 c 0,-1.51511 -0.1164,-3.02994 -0.69873,-3.61273 -1.51532,-1.51487 -4.89478,-2.68045 -7.45844,-2.68045 -9.43963,0 -14.33404,8.27404 -14.33404,17.0141 0,8.39056 4.54486,15.9653 13.28552,15.9653 3.729,0 6.64215,-2.09763 8.04071,-4.07877 0.69904,-0.93231 1.16498,-1.86438 1.16498,-3.729 l 0,-18.87845 z m 6.99206,46.72999 c 0,4.31151 0.23297,9.08959 0.34973,12.00332 -0.23297,0.34922 -0.58276,0.58223 -0.932,0.58223 -3.49597,-1.86434 -8.04108,-3.26296 -10.3714,-4.07821 -0.46661,-0.23329 -0.46661,-1.63162 0,-1.86491 l 0.93176,-0.58281 c 2.91345,-1.74811 3.02985,-2.33035 3.02985,-8.04074 l 0,-14.56699 c 0,-0.699 -0.1164,-1.2818 -0.58264,-1.2818 -1.04865,0.23301 -3.26276,0.81607 -6.5257,0.81607 -13.05188,0 -23.30676,-8.74005 -23.30676,-22.14169 0,-10.1384 7.1087,-18.41217 17.82928,-18.41217 4.66162,0 7.92462,1.51486 12.11988,4.42804 l 0.46594,0 c 0.11657,-0.46603 0.11657,-1.63135 0.11657,-3.02997 l 0,-1.63104 c 0,-0.46631 0.46631,-0.8161 1.04883,-0.8161 2.68073,1.04907 8.62354,2.56393 12.70264,3.14645 0.81549,0.46628 0.81549,2.91373 0.11621,3.02994 -1.51483,-0.46628 -3.14648,-0.93231 -4.19531,-0.93231 -2.68012,0 -2.79688,3.61276 -2.79688,11.1875 l 0,42.18519 z" id="path54" stroke="black" style="fill:#918f90;fill-opacity:1;fill-rule:evenodd;"/>
							
							
							
							
							
							
							
							
							
							
							
							
							
							
							
							
							
							
							
							
							
						</g>
					</g>
				</g>
			</g>
		</g>
	</g>
</svg>