<?xml version="1.0" encoding="iso-8859-1"?><!-- Created with Inkscape (http://www.inkscape.org/) --><svg height="194.8819" id="svg2" inkscape:version="0.48.2 r9819" sodipodi:docname="AVAG Logo 2011_lang.pdf" version="1.1" width="992.12601" xml:space="preserve" xmlns="http://www.w3.org/2000/svg" xmlns:cc="http://creativecommons.org/ns#" xmlns:dc="http://purl.org/dc/elements/1.1/" xmlns:inkscape="http://www.inkscape.org/namespaces/inkscape" xmlns:rdf="http://www.w3.org/1999/02/22-rdf-syntax-ns#" xmlns:sodipodi="http://sodipodi.sourceforge.net/DTD/sodipodi-0.dtd" xmlns:svg="http://www.w3.org/2000/svg">
	<metadata id="metadata8">
		<rdf:RDF>
			<cc:Work rdf:about="">
				<dc:format>image/svg+xml</dc:format>
				<dc:type rdf:resource="http://purl.org/dc/dcmitype/StillImage"/>
				<dc:title/>
			</cc:Work>
		</rdf:RDF>
	</metadata>
	<defs id="defs6">
		<clipPath clipPathUnits="userSpaceOnUse" id="clipPath16">
			
		</clipPath>
		<clipPath clipPathUnits="userSpaceOnUse" id="clipPath24">
			
		</clipPath>
	</defs>
	<sodipodi:namedview bordercolor="#666666" borderopacity="1" gridtolerance="10" guidetolerance="10" id="namedview4" inkscape:current-layer="g10" inkscape:cx="496.06302" inkscape:cy="97.440948" inkscape:pageopacity="0" inkscape:pageshadow="2" inkscape:window-height="672" inkscape:window-maximized="0" inkscape:window-width="948" inkscape:window-x="2051" inkscape:window-y="186" inkscape:zoom="0.3870476" objecttolerance="10" pagecolor="#ffffff" showgrid="false"/>
	<g id="g10" inkscape:groupmode="layer" inkscape:label="AVAG Logo 2011_lang" transform="matrix(1.25,0,0,-1.25,0,194.8819)">
		<g id="g12">
			<g clip-path="url(#clipPath16)" id="g14">
				<g id="g20" transform="matrix(1,0,0,-1,397.20079,77.83464)">
					<g clip-path="url(#clipPath24)" id="g22">
						<g id="g28" transform="matrix(1,0,0,-1,-395.5,80)">
							
							
							
							
							
							
							
							
							
							
							
							<path animation_id="13" d="m 505.44312,96.24164 c 0,-6.87546 0.23333,-7.92426 3.72955,-8.39057 l 2.21387,-0.233 c 0.69928,-0.46631 0.46597,-2.09738 -0.11652,-2.44687 -3.26267,0.23273 -6.05994,0.34949 -9.32288,0.34949 -3.49597,0 -6.40942,-0.11676 -9.20608,-0.34949 -0.69904,0.34949 -0.93201,1.98056 -0.23297,2.44687 l 2.21414,0.233 c 3.61249,0.46631 3.61249,1.51511 3.61249,8.39057 l 0,43.5838 c 0,5.71039 0,6.29263 -2.91349,8.04074 l -1.04858,0.58281 c -0.46622,0.23329 -0.46622,1.63162 0,1.86491 2.44748,0.81525 6.992,2.21387 10.37115,4.07821 0.46628,0 0.81611,-0.23301 1.04911,-0.58223 -0.11646,-2.91373 -0.34979,-7.69181 -0.34979,-12.00332 l 0,-45.56492 z" id="path52" stroke="black" style="fill:#918f90;fill-opacity:1;fill-rule:evenodd;"/>
							
							
							
							
							
							
							
							
							
							
							
							
							
							
							
							
							
							
							
							
							
							
						</g>
					</g>
				</g>
			</g>
		</g>
	</g>
</svg>