<?xml version="1.0" encoding="iso-8859-1"?><!-- Created with Inkscape (http://www.inkscape.org/) --><svg height="194.8819" id="svg2" inkscape:version="0.48.2 r9819" sodipodi:docname="AVAG Logo 2011_lang.pdf" version="1.1" width="992.12601" xml:space="preserve" xmlns="http://www.w3.org/2000/svg" xmlns:cc="http://creativecommons.org/ns#" xmlns:dc="http://purl.org/dc/elements/1.1/" xmlns:inkscape="http://www.inkscape.org/namespaces/inkscape" xmlns:rdf="http://www.w3.org/1999/02/22-rdf-syntax-ns#" xmlns:sodipodi="http://sodipodi.sourceforge.net/DTD/sodipodi-0.dtd" xmlns:svg="http://www.w3.org/2000/svg">
	<metadata id="metadata8">
		<rdf:RDF>
			<cc:Work rdf:about="">
				<dc:format>image/svg+xml</dc:format>
				<dc:type rdf:resource="http://purl.org/dc/dcmitype/StillImage"/>
				<dc:title/>
			</cc:Work>
		</rdf:RDF>
	</metadata>
	<defs id="defs6">
		<clipPath clipPathUnits="userSpaceOnUse" id="clipPath16">
			
		</clipPath>
		<clipPath clipPathUnits="userSpaceOnUse" id="clipPath24">
			
		</clipPath>
	</defs>
	<sodipodi:namedview bordercolor="#666666" borderopacity="1" gridtolerance="10" guidetolerance="10" id="namedview4" inkscape:current-layer="g10" inkscape:cx="496.06302" inkscape:cy="97.440948" inkscape:pageopacity="0" inkscape:pageshadow="2" inkscape:window-height="672" inkscape:window-maximized="0" inkscape:window-width="948" inkscape:window-x="2051" inkscape:window-y="186" inkscape:zoom="0.3870476" objecttolerance="10" pagecolor="#ffffff" showgrid="false"/>
	<g id="g10" inkscape:groupmode="layer" inkscape:label="AVAG Logo 2011_lang" transform="matrix(1.25,0,0,-1.25,0,194.8819)">
		<g id="g12">
			<g clip-path="url(#clipPath16)" id="g14">
				<g id="g20" transform="matrix(1,0,0,-1,397.20079,77.83464)">
					<g clip-path="url(#clipPath24)" id="g22">
						<g id="g28" transform="matrix(1,0,0,-1,-395.5,80)">
							
							
							
							
							
							<path animation_id="7" d="m 229.72308,133.18329 c 1.04909,2.79666 1.98113,5.12704 2.33065,5.59332 l 0.11679,0 c 0.58224,-1.04852 1.51483,-3.72894 2.21386,-6.05963 l 5.24408,-15.61578 c 0.81554,-2.56336 0.6996,-3.02964 -2.09791,-3.02964 l -11.88623,0 c -2.67987,0 -2.79697,0.11649 -1.98085,2.33033 l 6.05961,16.7814 z m 17.24741,-38.45651 c 0.69902,-2.33094 1.16502,-4.07877 1.16502,-5.12757 0,-0.93231 -1.28209,-1.51513 -3.26294,-1.74814 l -2.79695,-0.233 c -0.69903,-0.46631 -0.58252,-1.98114 0.11649,-2.44687 2.79696,0.11621 6.52594,0.34949 11.071,0.34949 4.31178,0 7.69096,-0.11676 11.65324,-0.34949 0.46628,0.46573 0.69931,1.98056 0,2.44687 l -2.56363,0.233 c -4.19531,0.46631 -5.3609,1.98114 -8.15759,10.25519 l -13.16805,38.68949 c -1.51512,4.19528 -3.03024,8.62329 -4.31176,12.93536 -0.23329,0.58279 -0.8161,0.81581 -1.39833,0.81581 -1.04883,-1.28184 -2.68076,-3.03024 -5.0111,-3.61276 0.23299,-1.63136 -0.3498,-3.37946 -1.63162,-6.87544 l -9.90567,-25.98716 c -3.96199,-10.72149 -6.64214,-17.01413 -8.39,-21.44241 -1.39889,-3.49625 -3.49625,-4.54507 -5.8266,-4.77808 l -3.14674,-0.233 c -0.58254,-0.46631 -0.34924,-1.98114 0.233,-2.44687 2.56393,0.11621 6.05991,0.34949 9.20665,0.34949 4.54451,-0.11676 7.45767,-0.11676 10.02133,-0.34949 0.81609,0.46573 0.81609,1.98056 0.11676,2.44687 l -3.14673,0.233 c -2.33036,0.23301 -2.79664,0.81583 -2.79664,1.98114 0,1.04908 0.69931,3.61274 2.09791,8.04105 l 3.37947,10.13864 c 0.69928,1.98059 1.28182,2.33066 3.72896,2.33066 l 14.4502,0 c 2.91343,0 3.37945,-0.35007 3.96226,-2.44772 l 4.31206,-13.16806 z" id="path40" stroke="black" style="fill:#a52e84;fill-opacity:1;fill-rule:evenodd;"/>
							
							
							
							
							
							
							
							
							
							
							
							
							
							
							
							
							
							
							
							
							
							
							
							
							
							
							
							
						</g>
					</g>
				</g>
			</g>
		</g>
	</g>
</svg>