<?xml version="1.0" encoding="iso-8859-1"?><!-- Created with Inkscape (http://www.inkscape.org/) --><svg height="194.8819" id="svg2" inkscape:version="0.48.2 r9819" sodipodi:docname="AVAG Logo 2011_lang.pdf" version="1.1" width="992.12601" xml:space="preserve" xmlns="http://www.w3.org/2000/svg" xmlns:cc="http://creativecommons.org/ns#" xmlns:dc="http://purl.org/dc/elements/1.1/" xmlns:inkscape="http://www.inkscape.org/namespaces/inkscape" xmlns:rdf="http://www.w3.org/1999/02/22-rdf-syntax-ns#" xmlns:sodipodi="http://sodipodi.sourceforge.net/DTD/sodipodi-0.dtd" xmlns:svg="http://www.w3.org/2000/svg">
	<metadata id="metadata8">
		<rdf:RDF>
			<cc:Work rdf:about="">
				<dc:format>image/svg+xml</dc:format>
				<dc:type rdf:resource="http://purl.org/dc/dcmitype/StillImage"/>
				<dc:title/>
			</cc:Work>
		</rdf:RDF>
	</metadata>
	<defs id="defs6">
		<clipPath clipPathUnits="userSpaceOnUse" id="clipPath16">
			
		</clipPath>
		<clipPath clipPathUnits="userSpaceOnUse" id="clipPath24">
			
		</clipPath>
	</defs>
	<sodipodi:namedview bordercolor="#666666" borderopacity="1" gridtolerance="10" guidetolerance="10" id="namedview4" inkscape:current-layer="g10" inkscape:cx="496.06302" inkscape:cy="97.440948" inkscape:pageopacity="0" inkscape:pageshadow="2" inkscape:window-height="672" inkscape:window-maximized="0" inkscape:window-width="948" inkscape:window-x="2051" inkscape:window-y="186" inkscape:zoom="0.3870476" objecttolerance="10" pagecolor="#ffffff" showgrid="false"/>
	<g id="g10" inkscape:groupmode="layer" inkscape:label="AVAG Logo 2011_lang" transform="matrix(1.25,0,0,-1.25,0,194.8819)">
		<g id="g12">
			<g clip-path="url(#clipPath16)" id="g14">
				<g id="g20" transform="matrix(1,0,0,-1,397.20079,77.83464)">
					<g clip-path="url(#clipPath24)" id="g22">
						<g id="g28" transform="matrix(1,0,0,-1,-395.5,80)">
							
							
							
							
							
							
							
							
							
							<path animation_id="11" d="m 392.17181,116.63519 c -4.5448,0 -4.77783,-0.11648 -4.77783,-3.02993 l 0,-13.63468 c 0,-10.13837 0.46634,-11.53671 5.82636,-12.11951 l 2.79721,-0.233 c 0.58282,-0.46631 0.46603,-2.09738 -0.11652,-2.44687 -5.24408,0.23273 -8.50705,0.34949 -12.23627,0.34949 -4.19528,0 -9.08963,-0.23328 -12.81826,-0.34949 -0.58313,0.34949 -0.69962,1.86435 -0.11679,2.44687 l 3.14645,0.233 c 5.47711,0.93232 5.59332,1.98114 5.59332,12.11951 l 0,34.61072 c 0,10.13872 -0.58224,11.77003 -5.59332,12.12013 l -4.19556,0.23273 c -0.58224,0.34952 -0.34924,2.09765 0.233,2.33092 4.66153,0 9.55588,-0.23327 13.75116,-0.23327 3.72922,0 6.99219,0.11649 11.18778,0.23327 0.58224,-0.23327 0.69903,-1.9814 0.11618,-2.33092 l -1.74838,-0.23273 c -5.59333,-0.58336 -5.82636,-1.98141 -5.82636,-12.12013 l 0,-10.95389 c 0,-3.02966 0.23303,-3.14676 4.77783,-3.14676 l 27.50226,0 c 4.66162,0 4.89463,0.1171 4.89463,3.14676 l 0,10.95389 c 0,10.13872 -0.23301,11.53677 -5.94339,12.12013 l -1.74814,0.23273 c -0.5828,0.34952 -0.46604,2.09765 0.11651,2.33092 4.42856,-0.11678 7.69153,-0.23327 11.65323,-0.23327 3.72949,0 6.99249,0.11649 11.4205,0.23327 0.5828,-0.23327 0.69931,-1.9814 0.11679,-2.33092 l -1.98144,-0.23273 c -5.59332,-0.58336 -5.82636,-1.98141 -5.82636,-12.12013 l 0,-34.61072 c 0,-10.13837 0.23304,-11.4202 5.82636,-12.11951 l 2.33093,-0.233 c 0.58252,-0.46631 0.34979,-2.09738 -0.23327,-2.44687 -4.66102,0.23273 -7.92402,0.34949 -11.65351,0.34949 -3.9617,0 -7.34146,-0.11676 -11.65323,-0.34949 -0.58255,0.34949 -0.69931,1.86435 -0.11651,2.44687 l 1.74814,0.233 c 5.94339,0.81583 5.71038,1.98114 5.94339,12.11951 l 0,13.63468 c 0,2.91345 -0.23301,3.02993 -4.89463,3.02993 l -27.50226,0 z" id="path48" stroke="black" style="fill:#918f90;fill-opacity:1;fill-rule:evenodd;"/>
							
							
							
							
							
							
							
							
							
							
							
							
							
							
							
							
							
							
							
							
							
							
							
							
						</g>
					</g>
				</g>
			</g>
		</g>
	</g>
</svg>