<?xml version="1.0" encoding="iso-8859-1"?><!-- Created with Inkscape (http://www.inkscape.org/) --><svg height="194.8819" id="svg2" inkscape:version="0.48.2 r9819" sodipodi:docname="AVAG Logo 2011_lang.pdf" version="1.1" width="992.12601" xml:space="preserve" xmlns="http://www.w3.org/2000/svg" xmlns:cc="http://creativecommons.org/ns#" xmlns:dc="http://purl.org/dc/elements/1.1/" xmlns:inkscape="http://www.inkscape.org/namespaces/inkscape" xmlns:rdf="http://www.w3.org/1999/02/22-rdf-syntax-ns#" xmlns:sodipodi="http://sodipodi.sourceforge.net/DTD/sodipodi-0.dtd" xmlns:svg="http://www.w3.org/2000/svg">
	<metadata id="metadata8">
		<rdf:RDF>
			<cc:Work rdf:about="">
				<dc:format>image/svg+xml</dc:format>
				<dc:type rdf:resource="http://purl.org/dc/dcmitype/StillImage"/>
				<dc:title/>
			</cc:Work>
		</rdf:RDF>
	</metadata>
	<defs id="defs6">
		<clipPath clipPathUnits="userSpaceOnUse" id="clipPath16">
			
		</clipPath>
		<clipPath clipPathUnits="userSpaceOnUse" id="clipPath24">
			
		</clipPath>
	</defs>
	<sodipodi:namedview bordercolor="#666666" borderopacity="1" gridtolerance="10" guidetolerance="10" id="namedview4" inkscape:current-layer="g10" inkscape:cx="496.06302" inkscape:cy="97.440948" inkscape:pageopacity="0" inkscape:pageshadow="2" inkscape:window-height="672" inkscape:window-maximized="0" inkscape:window-width="948" inkscape:window-x="2051" inkscape:window-y="186" inkscape:zoom="0.3870476" objecttolerance="10" pagecolor="#ffffff" showgrid="false"/>
	<g id="g10" inkscape:groupmode="layer" inkscape:label="AVAG Logo 2011_lang" transform="matrix(1.25,0,0,-1.25,0,194.8819)">
		<g id="g12">
			<g clip-path="url(#clipPath16)" id="g14">
				<g id="g20" transform="matrix(1,0,0,-1,397.20079,77.83464)">
					<g clip-path="url(#clipPath24)" id="g22">
						<g id="g28" transform="matrix(1,0,0,-1,-395.5,80)">
							
							
							
							
							
							
							
							
							
							
							
							
							
							<path animation_id="15" d="m 572.21741,113.13922 c 0,3.72901 0,4.19528 -2.68012,5.94339 l -0.8161,0.58255 c -0.349,0.34952 -0.349,1.39859 0.1167,1.74783 2.21423,0.81583 7.69104,3.26297 9.9054,4.66184 0.46637,0 0.81616,-0.11707 0.93243,-0.58304 -0.23334,-3.26297 -0.3493,-7.92429 -0.3493,-11.88653 l 0,-17.36362 c 0,-6.87546 0.11596,-7.92426 3.61193,-8.39057 l 1.98145,-0.233 c 0.69928,-0.46631 0.466,-2.09738 -0.11682,-2.44687 -2.91321,0.23273 -5.70984,0.34949 -9.0893,0.34949 -3.37976,0 -6.2929,-0.11676 -8.97363,-0.34949 -0.69903,0.34949 -0.93201,1.98056 -0.23273,2.44687 l 1.9809,0.233 c 3.61273,0.46631 3.72919,1.51511 3.72919,8.39057 l 0,16.89758 z m 7.80804,31.23099 c 0,-3.37918 -2.44739,-4.89426 -5.01105,-4.89426 -3.03027,0 -4.89465,2.09732 -4.89465,4.66127 0,3.14646 2.33069,5.12786 5.12763,5.12786 2.9132,0 4.77807,-2.21444 4.77807,-4.89487 z" id="path56" stroke="black" style="fill:#918f90;fill-opacity:1;fill-rule:evenodd;"/>
							
							
							
							
							
							
							
							
							
							
							
							
							
							
							
							
							
							
							
							
						</g>
					</g>
				</g>
			</g>
		</g>
	</g>
</svg>