<?xml version="1.0" encoding="iso-8859-1"?><!-- Created with Inkscape (http://www.inkscape.org/) --><svg height="194.8819" id="svg2" inkscape:version="0.48.2 r9819" sodipodi:docname="AVAG Logo 2011_lang.pdf" version="1.1" width="992.12601" xml:space="preserve" xmlns="http://www.w3.org/2000/svg" xmlns:cc="http://creativecommons.org/ns#" xmlns:dc="http://purl.org/dc/elements/1.1/" xmlns:inkscape="http://www.inkscape.org/namespaces/inkscape" xmlns:rdf="http://www.w3.org/1999/02/22-rdf-syntax-ns#" xmlns:sodipodi="http://sodipodi.sourceforge.net/DTD/sodipodi-0.dtd" xmlns:svg="http://www.w3.org/2000/svg">
	<metadata id="metadata8">
		<rdf:RDF>
			<cc:Work rdf:about="">
				<dc:format>image/svg+xml</dc:format>
				<dc:type rdf:resource="http://purl.org/dc/dcmitype/StillImage"/>
				<dc:title/>
			</cc:Work>
		</rdf:RDF>
	</metadata>
	<defs id="defs6">
		<clipPath clipPathUnits="userSpaceOnUse" id="clipPath16">
			
		</clipPath>
		<clipPath clipPathUnits="userSpaceOnUse" id="clipPath24">
			
		</clipPath>
	</defs>
	<sodipodi:namedview bordercolor="#666666" borderopacity="1" gridtolerance="10" guidetolerance="10" id="namedview4" inkscape:current-layer="g10" inkscape:cx="496.06302" inkscape:cy="97.440948" inkscape:pageopacity="0" inkscape:pageshadow="2" inkscape:window-height="672" inkscape:window-maximized="0" inkscape:window-width="948" inkscape:window-x="2051" inkscape:window-y="186" inkscape:zoom="0.3870476" objecttolerance="10" pagecolor="#ffffff" showgrid="false"/>
	<g id="g10" inkscape:groupmode="layer" inkscape:label="AVAG Logo 2011_lang" transform="matrix(1.25,0,0,-1.25,0,194.8819)">
		<g id="g12">
			<g clip-path="url(#clipPath16)" id="g14">
				<g id="g20" transform="matrix(1,0,0,-1,397.20079,77.83464)">
					<g clip-path="url(#clipPath24)" id="g22">
						<g id="g28" transform="matrix(1,0,0,-1,-395.5,80)">
							
							
							
							
							
							
							
							
							
							
							
							
							
							
							
							
							
							
							
							
							
							
							
							
							
							
							
							
							
							<path animation_id="31" d="m 501.6073,34.2244 c 0.62189,1.19311 1.73734,2.50412 3.34717,3.93277 1.60943,1.42868 4.13348,2.143 7.57214,2.143 3.40186,0 5.92584,-0.71432 7.57221,-2.143 1.64581,-1.42865 2.77966,-2.78672 3.40155,-4.07392 0.62194,-1.28753 1.11602,-2.92819 1.48169,-4.92209 0.36566,-1.99392 0.54852,-4.1213 0.54852,-6.38195 0,-2.2609 -0.18286,-4.39597 -0.54852,-6.40574 -0.36567,-2.00946 -0.86884,-3.66574 -1.50916,-4.96884 -0.63977,-1.30307 -1.7558,-2.65323 -3.34686,-4.05069 -1.59137,-1.39718 -4.12445,-2.09594 -7.59943,-2.09594 -1.82922,0 -3.3837,0.2041 -4.66388,0.6123 -1.28036,0.40817 -2.48764,1.1069 -3.62176,2.09592 -1.13385,0.98929 -2.21274,2.52792 -3.23719,4.61593 -1.02447,2.08802 -1.5364,5.48703 -1.5364,10.19706 0,2.26065 0.18286,4.38012 0.54849,6.35842 0.36597,1.97831 0.89636,3.67368 1.59143,5.08677 z m 1.37195,-11.44519 c 0,-10.26764 3.21902,-15.40174 9.6568,-15.40174 6.29205,0 9.43768,5.1341 9.43768,15.40174 0,10.2677 -3.18249,15.40148 -9.54712,15.40148 -6.3649,0 -9.54736,-5.13378 -9.54736,-15.40148 z" id="path88" stroke="black" style="fill:#918f90;fill-opacity:1;fill-rule:nonzero;"/>
							
							
							
							
						</g>
					</g>
				</g>
			</g>
		</g>
	</g>
</svg>