<?xml version="1.0" encoding="iso-8859-1"?><!-- Created with Inkscape (http://www.inkscape.org/) --><svg height="194.8819" id="svg2" inkscape:version="0.48.2 r9819" sodipodi:docname="AVAG Logo 2011_lang.pdf" version="1.1" width="992.12601" xml:space="preserve" xmlns="http://www.w3.org/2000/svg" xmlns:cc="http://creativecommons.org/ns#" xmlns:dc="http://purl.org/dc/elements/1.1/" xmlns:inkscape="http://www.inkscape.org/namespaces/inkscape" xmlns:rdf="http://www.w3.org/1999/02/22-rdf-syntax-ns#" xmlns:sodipodi="http://sodipodi.sourceforge.net/DTD/sodipodi-0.dtd" xmlns:svg="http://www.w3.org/2000/svg">
	<metadata id="metadata8">
		<rdf:RDF>
			<cc:Work rdf:about="">
				<dc:format>image/svg+xml</dc:format>
				<dc:type rdf:resource="http://purl.org/dc/dcmitype/StillImage"/>
				<dc:title/>
			</cc:Work>
		</rdf:RDF>
	</metadata>
	<defs id="defs6">
		<clipPath clipPathUnits="userSpaceOnUse" id="clipPath16">
			
		</clipPath>
		<clipPath clipPathUnits="userSpaceOnUse" id="clipPath24">
			
		</clipPath>
	</defs>
	<sodipodi:namedview bordercolor="#666666" borderopacity="1" gridtolerance="10" guidetolerance="10" id="namedview4" inkscape:current-layer="g10" inkscape:cx="496.06302" inkscape:cy="97.440948" inkscape:pageopacity="0" inkscape:pageshadow="2" inkscape:window-height="672" inkscape:window-maximized="0" inkscape:window-width="948" inkscape:window-x="2051" inkscape:window-y="186" inkscape:zoom="0.3870476" objecttolerance="10" pagecolor="#ffffff" showgrid="false"/>
	<g id="g10" inkscape:groupmode="layer" inkscape:label="AVAG Logo 2011_lang" transform="matrix(1.25,0,0,-1.25,0,194.8819)">
		<g id="g12">
			<g clip-path="url(#clipPath16)" id="g14">
				<g id="g20" transform="matrix(1,0,0,-1,397.20079,77.83464)">
					<g clip-path="url(#clipPath24)" id="g22">
						<g id="g28" transform="matrix(1,0,0,-1,-395.5,80)">
							
							
							
							
							
							
							<path animation_id="8" d="m 324.81525,95.30957 c 0,-3.84573 0.58252,-6.0596 2.33032,-6.75919 0.23334,-0.34951 0.23334,-0.81582 -0.11618,-1.16561 -1.16532,0 -2.91345,-0.34922 -4.77808,-0.81525 -5.12732,-1.39832 -12.00302,-2.56363 -17.24713,-2.56363 -11.4202,0 -21.90839,3.14587 -29.36636,10.72089 -5.71039,5.70983 -8.85684,13.28512 -8.85684,21.79193 0,8.15725 2.68014,16.43158 8.74005,22.72421 6.4097,6.75919 15.9653,11.304 30.53198,11.304 5.47711,0 10.6044,-1.04881 12.2363,-1.39862 1.74786,-0.3495 4.77807,-1.04883 5.94314,-0.8158 0,-3.14648 0.5828,-8.15727 1.39832,-13.98417 -0.233,-0.81583 -1.98114,-0.93204 -2.56339,-0.34949 -2.68069,10.37137 -9.90564,13.63434 -19.81103,13.63434 -18.64603,0 -26.80301,-13.28485 -26.80301,-27.73474 0,-18.41248 9.5556,-32.86289 28.90063,-32.86289 5.94312,0 9.55588,1.16532 10.60443,2.79666 0.46598,0.69959 0.93204,2.44773 0.93204,5.47736 l 0,3.84549 c 0,8.04077 -0.23303,8.62387 -6.29263,9.32288 l -4.19501,0.46603 c -0.81582,0.34952 -0.69903,2.0979 0,2.44714 2.79666,-0.2333 8.04077,-0.2333 13.75086,-0.2333 3.72897,0 6.99191,0 10.25518,0.2333 0.58225,-0.34924 0.69931,-1.86438 0,-2.44714 l -1.5151,-0.11652 c -3.96228,-0.58279 -4.07849,-3.26297 -4.07849,-8.15753 l 0,-5.36035 z" id="path42" stroke="black" style="fill:none;stroke:#ffffff;stroke-opacity:1;stroke-width:0.85039;stroke-linecap:butt;stroke-linejoin:miter;stroke-miterlimit:22.92558;stroke-dasharray:none"/>
							
							
							
							
							
							
							
							
							
							
							
							
							
							
							
							
							
							
							
							
							
							
							
							
							
							
							
						</g>
					</g>
				</g>
			</g>
		</g>
	</g>
</svg>