<?xml version="1.0" encoding="iso-8859-1"?><svg viewBox="0 0 2873.29 1037.68" xmlns="http://www.w3.org/2000/svg">
	<defs>
		<style>.cls-1{fill:#010101;}</style>
	</defs>
	<title>Element 1</title>
	<g data-name="Ebene 2" id="Ebene_2">
		<g id="BASFw_wh100db_4c">
			
			
			
			
			
			
			
			
			
			
			
			
			
			
			
			
			
			
			<path animation_id="15" class="cls-1" d="M2468.07,966.08a47.37,47.37,0,0,0,15.68-15.39c4-6.29,6-14.36,6-24,0-7.47-1.49-13.86-4.42-19A40,40,0,0,0,2473.64,895a62.81,62.81,0,0,0-16.68-8.21,190.31,190.31,0,0,0-19.51-5.3c-6.26-1.46-12.51-2.86-18.8-4.23a112.57,112.57,0,0,1-17.05-5,39.91,39.91,0,0,1-12.62-7.68,16,16,0,0,1-5.13-12.09,16.78,16.78,0,0,1,3.31-10.71,22.94,22.94,0,0,1,8.45-6.48A41,41,0,0,1,2407,831.9a67.57,67.57,0,0,1,25.39.5,40.7,40.7,0,0,1,12,4.6,27.45,27.45,0,0,1,9,8.57,28.21,28.21,0,0,1,4.15,12.65h24.92c-.69-9.29-2.75-17.13-6.1-23.36a41.41,41.41,0,0,0-14-15.31,57.65,57.65,0,0,0-20.22-8,128.09,128.09,0,0,0-25.21-2.35,89.25,89.25,0,0,0-21.24,2.64,64.74,64.74,0,0,0-19.19,8.05,45.19,45.19,0,0,0-13.84,14c-3.53,5.67-5.33,12.59-5.33,20.53,0,10.19,2.56,18.2,7.63,23.84a51.31,51.31,0,0,0,19.27,13.44,131.17,131.17,0,0,0,25.37,7.47c9.08,1.74,17.68,3.74,25.58,6a66.59,66.59,0,0,1,19.82,8.71c5.44,3.72,8.21,9.22,8.21,16.37,0,5.2-1.32,9.53-4,12.91a24.44,24.44,0,0,1-9.87,7.63,49.72,49.72,0,0,1-12.91,3.51,86.91,86.91,0,0,1-29.25-.64,44.64,44.64,0,0,1-14-5.29,29.58,29.58,0,0,1-10.19-10,30.83,30.83,0,0,1-4.16-14.49H2354c.47,9.49,2.56,17.62,6.12,24.27a46.21,46.21,0,0,0,14.78,16.63,62.56,62.56,0,0,0,21.31,9.08c15.4,3.59,32.82,3.75,49.91.48a65.91,65.91,0,0,0,22-8.18" stroke="black"/>
			
			
			
			
		</g>
	</g>
</svg>