<?xml version="1.0" encoding="iso-8859-1"?><svg viewBox="0 0 2873.29 1037.68" xmlns="http://www.w3.org/2000/svg">
	<defs>
		<style>.cls-1{fill:#010101;}</style>
	</defs>
	<title>Element 1</title>
	<g data-name="Ebene 2" id="Ebene_2">
		<g id="BASFw_wh100db_4c">
			
			
			
			
			
			
			
			
			
			
			
			
			
			
			
			
			<path animation_id="13" class="cls-1" d="M2236,819.94a44.89,44.89,0,0,0-16.59-8.15,84.46,84.46,0,0,0-21.87-2.64,60.12,60.12,0,0,0-28.89,7.11,56.35,56.35,0,0,0-21.13,20l-1,1.57-.6-1.73c-3.22-9.76-8.89-16.75-16.78-20.82a58.5,58.5,0,0,0-26.88-6.17c-22.35,0-40.67,9.16-52.53,27.19l-.26.39h-1V812.92h-23.36V973.15h24.92v-100a39.68,39.68,0,0,1,2.38-12,46.81,46.81,0,0,1,7.65-13.89,46,46,0,0,1,13.75-11.51c5.61-3.19,12.44-4.8,20.3-4.8,6.14,0,11.27.91,15.23,2.75a23.09,23.09,0,0,1,9.59,7.81,31.45,31.45,0,0,1,5,11.72,69.76,69.76,0,0,1,1.41,14.6V973.15h24.95v-100c0-12.68,3.85-23,11.5-30.64s18.3-11.54,31.63-11.54c6.54,0,12,1,16.15,2.88a24.34,24.34,0,0,1,9.93,8,29.77,29.77,0,0,1,4.8,11.77,74.88,74.88,0,0,1,1.29,14.26V973.15h24.92V855.3c0-8.2-1.29-15.29-3.84-21.14A37.19,37.19,0,0,0,2236,819.94" stroke="black"/>
			
			
			
			
			
			
		</g>
	</g>
</svg>