<?xml version="1.0" encoding="iso-8859-1"?><svg viewBox="0 0 2873.29 1037.68" xmlns="http://www.w3.org/2000/svg">
	<defs>
		<style>.cls-1{fill:#010101;}</style>
	</defs>
	<title>Element 1</title>
	<g data-name="Ebene 2" id="Ebene_2">
		<g id="BASFw_wh100db_4c">
			
			
			
			
			
			
			
			
			
			
			
			<path animation_id="8" class="cls-1" d="M1112.28,950.08c-.73-2.93-1.09-7.51-1.09-14V852.81c0-9.19-1.76-16.74-5.23-22.45A36.66,36.66,0,0,0,1092.19,817a57.16,57.16,0,0,0-19.27-6.32c-16-2.31-32.51-2.14-47.15,1.22a62.64,62.64,0,0,0-21.33,9.14,47,47,0,0,0-14.77,16.44c-3.57,6.6-5.63,14.71-6.1,24.13h24.91c.79-11.72,5-19.88,12.59-24.18s17.25-6.52,28.62-6.52a88.8,88.8,0,0,1,12.81.95,35.15,35.15,0,0,1,11.89,3.85,23.52,23.52,0,0,1,8.77,8.43c2.27,3.68,3.42,8.59,3.42,14.57,0,5.22-1.57,9.31-4.68,12.06a29.44,29.44,0,0,1-12.25,6.12,115.9,115.9,0,0,1-17.5,3.2c-6.48.68-13.46,1.79-20.76,3.24-6.83,1.24-13.58,2.83-20.14,4.7A55.32,55.32,0,0,0,994,896.24a40.39,40.39,0,0,0-12.13,14c-3.05,5.69-4.61,13.18-4.61,22.15,0,8,1.41,14.86,4.16,20.48a37.13,37.13,0,0,0,11.34,13.76,46.06,46.06,0,0,0,16.75,7.7,86.93,86.93,0,0,0,20.47,2.3,84.15,84.15,0,0,0,31.17-5.7,63.44,63.44,0,0,0,25.18-18.69l1.51-1.85v2.38c0,8.47,2,14.65,5.84,18.32s9.24,5.54,15.86,5.54c7.7,0,13.85-1.23,18.27-3.69v-19a25.27,25.27,0,0,1-7.29,1.24c-4.64,0-7.38-1.66-8.22-5m-26-32.42a31.25,31.25,0,0,1-2.88,12.38,37,37,0,0,1-9,12.2,48.57,48.57,0,0,1-15.61,9.24c-6.35,2.4-14,3.64-22.87,3.64a54.82,54.82,0,0,1-11.93-1.27,29.19,29.19,0,0,1-10.31-4.19,23.26,23.26,0,0,1-7.16-7.63,22.74,22.74,0,0,1-2.79-11.56c0-6.81,1.59-12.33,4.73-16.32a30.07,30.07,0,0,1,12.09-9.18,66.66,66.66,0,0,1,16.5-4.62c5.72-.9,11.79-1.73,18-2.51,6-.73,11.69-1.69,17-2.8a32.8,32.8,0,0,0,12.81-5.33l1.37-1.06Z" stroke="black"/>
			
			
			
			
			
			
			
			
			
			
			
		</g>
	</g>
</svg>