<?xml version="1.0" encoding="iso-8859-1"?><svg viewBox="0 0 2873.29 1037.68" xmlns="http://www.w3.org/2000/svg">
	<defs>
		<style>.cls-1{fill:#010101;}</style>
	</defs>
	<title>Element 1</title>
	<g data-name="Ebene 2" id="Ebene_2">
		<g id="BASFw_wh100db_4c">
			
			
			
			
			
			
			
			
			
			
			<path animation_id="7" class="cls-1" d="M936.25,840.4A70.62,70.62,0,0,0,913.65,818c-9.33-5.83-21.24-8.81-35.41-8.81a73.4,73.4,0,0,0-30.19,6.2,71.64,71.64,0,0,0-23.83,17.34A80.35,80.35,0,0,0,808.56,859,96.93,96.93,0,0,0,803,892.56a130.37,130.37,0,0,0,5.42,33.89,74,74,0,0,0,14.43,26.64,65.2,65.2,0,0,0,23.66,17.31c9.35,4.12,20.57,6.23,33.31,6.23,18.1,0,33.33-4.62,45.24-13.63,11.65-8.86,19.37-22.13,23-39.5H923.4C921,934,916.16,941.92,909,947.15s-16.82,8-28.24,8c-8.88,0-16.68-1.46-23.22-4.43a46,46,0,0,1-16.26-12,46.65,46.65,0,0,1-9.25-17.2A65.61,65.61,0,0,1,829.44,901l0-.84H950.7a129.27,129.27,0,0,0-2.65-30,89.69,89.69,0,0,0-11.8-29.8m-106.87,38,.06-.92a57.4,57.4,0,0,1,4.15-18,48.44,48.44,0,0,1,9.58-14.83,43.94,43.94,0,0,1,14.53-10,47.3,47.3,0,0,1,19-3.68,46.43,46.43,0,0,1,18.65,3.68A47.14,47.14,0,0,1,910,844.52a46,46,0,0,1,9.89,14.82,56.39,56.39,0,0,1,4.29,18.13l.07.92Z" stroke="black"/>
			
			
			
			
			
			
			
			
			
			
			
			
		</g>
	</g>
</svg>