<?xml version="1.0" encoding="iso-8859-1"?><svg viewBox="0 0 2873.29 1037.68" xmlns="http://www.w3.org/2000/svg">
	<defs>
		<style>.cls-1{fill:#010101;}</style>
	</defs>
	<title>Element 1</title>
	<g data-name="Ebene 2" id="Ebene_2">
		<g id="BASFw_wh100db_4c">
			
			
			
			
			
			
			
			
			
			
			
			
			<path animation_id="9" class="cls-1" d="M1373.47,840.4A70.56,70.56,0,0,0,1350.86,818c-9.34-5.83-21.26-8.81-35.42-8.81a73.4,73.4,0,0,0-30.19,6.2,71.48,71.48,0,0,0-23.84,17.34A80.15,80.15,0,0,0,1245.76,859a97.41,97.41,0,0,0-5.57,33.52,128.75,128.75,0,0,0,5.42,33.89A73.83,73.83,0,0,0,1260,953.09a65.79,65.79,0,0,0,23.66,17.31c9.36,4.12,20.58,6.23,33.33,6.23,18.1,0,33.3-4.62,45.2-13.63,11.64-8.86,19.39-22.13,23-39.5h-24.58c-2.4,10.48-7.26,18.42-14.44,23.65s-16.8,8-28.23,8c-8.86,0-16.67-1.46-23.23-4.43a46.08,46.08,0,0,1-16.26-12,46.7,46.7,0,0,1-9.25-17.2,65.12,65.12,0,0,1-2.53-20.46v-.84h121.24a129.5,129.5,0,0,0-2.68-30,90.32,90.32,0,0,0-11.77-29.8m-106.31,38,.06-.92a55.47,55.47,0,0,1,4.15-18,47.52,47.52,0,0,1,9.55-14.83,44.05,44.05,0,0,1,14.54-10,47.34,47.34,0,0,1,19-3.68,46.12,46.12,0,0,1,43.23,28.39,55.87,55.87,0,0,1,4.31,18.13l.06.92Z" stroke="black"/>
			
			
			
			
			
			
			
			
			
			
		</g>
	</g>
</svg>