<?xml version="1.0" encoding="iso-8859-1"?><svg viewBox="0 0 2873.29 1037.68" xmlns="http://www.w3.org/2000/svg">
	<defs>
		<style>.cls-1{fill:#010101;}</style>
	</defs>
	<title>Element 1</title>
	<g data-name="Ebene 2" id="Ebene_2">
		<g id="BASFw_wh100db_4c">
			
			
			
			
			
			
			
			
			
			
			
			
			
			
			
			<path animation_id="12" class="cls-1" d="M1978.65,840.4a70.32,70.32,0,0,0-22.6-22.44c-9.33-5.83-21.25-8.81-35.42-8.81a73.41,73.41,0,0,0-30.2,6.2,71.78,71.78,0,0,0-23.84,17.34A81,81,0,0,0,1850.94,859a96.94,96.94,0,0,0-5.57,33.52,129.74,129.74,0,0,0,5.41,33.89,74.07,74.07,0,0,0,14.44,26.64,65.48,65.48,0,0,0,23.65,17.31c9.35,4.12,20.59,6.23,33.32,6.23,18.1,0,33.28-4.62,45.21-13.63,11.64-8.86,19.38-22.11,23-39.5h-24.56c-2.39,10.48-7.25,18.42-14.46,23.65s-16.81,8-28.21,8c-8.87,0-16.69-1.46-23.23-4.43a45.9,45.9,0,0,1-16.26-12,46.45,46.45,0,0,1-9.24-17.2,64.16,64.16,0,0,1-2.56-20.46l0-.84h121.24a129,129,0,0,0-2.69-30,89.89,89.89,0,0,0-11.77-29.8m-106.88,38,.08-.92a56.25,56.25,0,0,1,4.14-18,47.48,47.48,0,0,1,9.56-14.83,44.36,44.36,0,0,1,14.54-10,47.08,47.08,0,0,1,19-3.68,46.37,46.37,0,0,1,33.31,13.57,46.82,46.82,0,0,1,9.93,14.82,56.89,56.89,0,0,1,4.27,18.13l.08.92Z" stroke="black"/>
			
			
			
			
			
			
			
		</g>
	</g>
</svg>