<?xml version="1.0" encoding="iso-8859-1"?><svg viewBox="0 0 2873.29 1037.68" xmlns="http://www.w3.org/2000/svg">
	<defs>
		<style>.cls-1{fill:#010101;}</style>
	</defs>
	<title>Element 1</title>
	<g data-name="Ebene 2" id="Ebene_2">
		<g id="BASFw_wh100db_4c">
			
			
			
			
			
			
			
			
			
			
			
			
			
			
			<path animation_id="11" class="cls-1" d="M1799.81,825.49a42.79,42.79,0,0,0-16.89-12c-7-2.87-15.82-4.34-26.3-4.34a74.48,74.48,0,0,0-14.73,1.57,64.32,64.32,0,0,0-14.51,4.79,49,49,0,0,0-12.46,8.31c-3.65,3.33-7.42,7.5-9.45,12.38l-.2.53h-1.2V751.21h-24.92V973.15h24.92V882.56a66.68,66.68,0,0,1,3-20.49,47.31,47.31,0,0,1,9.09-16.42,41.28,41.28,0,0,1,15.18-10.9c6.05-2.53,13.28-3.8,21.49-3.8,10.4,0,18.74,3,24.73,9s9,14.17,9,24.41V973.15h25V867.54a101,101,0,0,0-2.64-23.79,44.31,44.31,0,0,0-9.08-18.26" stroke="black"/>
			
			
			
			
			
			
			
			
		</g>
	</g>
</svg>