<?xml version="1.0" encoding="iso-8859-1"?><svg viewBox="0 0 2873.29 1037.68" xmlns="http://www.w3.org/2000/svg">
	<defs>
		<style>.cls-1{fill:#010101;}</style>
	</defs>
	<title>Element 1</title>
	<g data-name="Ebene 2" id="Ebene_2">
		<g id="BASFw_wh100db_4c">
			
			
			
			
			
			
			
			<path animation_id="4" class="cls-1" d="M412.05,840.4A70.72,70.72,0,0,0,389.45,818c-9.34-5.83-21.24-8.81-35.41-8.81a73.48,73.48,0,0,0-30.2,6.2A71.6,71.6,0,0,0,300,832.69,80.37,80.37,0,0,0,284.35,859a96.93,96.93,0,0,0-5.59,33.52,130.36,130.36,0,0,0,5.43,33.89,73.88,73.88,0,0,0,14.42,26.64,65.23,65.23,0,0,0,23.67,17.31c9.35,4.12,20.57,6.23,33.3,6.23,18.11,0,33.34-4.62,45.24-13.63,11.66-8.86,19.37-22.13,23-39.5H399.2c-2.38,10.48-7.25,18.42-14.43,23.65s-16.81,8-28.23,8c-8.88,0-16.68-1.46-23.23-4.43a46.08,46.08,0,0,1-16.26-12,46.65,46.65,0,0,1-9.25-17.2A65.31,65.31,0,0,1,305.24,901l0-.84H426.51a130.4,130.4,0,0,0-2.66-30,89.91,89.91,0,0,0-11.8-29.8m-106.87,38,.06-.92a57.12,57.12,0,0,1,4.14-18A48.84,48.84,0,0,1,319,844.68a43.94,43.94,0,0,1,14.53-10,47.29,47.29,0,0,1,19-3.68,46.51,46.51,0,0,1,18.66,3.68,47.38,47.38,0,0,1,14.69,9.89,46.14,46.14,0,0,1,9.88,14.82A55.87,55.87,0,0,1,400,877.47l.07.92Z" stroke="black"/>
			
			
			
			
			
			
			
			
			
			
			
			
			
			
			
		</g>
	</g>
</svg>