<?xml version="1.0" encoding="iso-8859-1"?><svg viewBox="0 0 2873.29 1037.68" xmlns="http://www.w3.org/2000/svg">
	<defs>
		<style>.cls-1{fill:#010101;}</style>
	</defs>
	<title>Element 1</title>
	<g data-name="Ebene 2" id="Ebene_2">
		<g id="BASFw_wh100db_4c">
			
			
			
			
			
			
			
			
			<path animation_id="5" class="cls-1" d="M613.55,955.12c-8.48,0-15.89-1.7-22-5.11a43.24,43.24,0,0,1-15-13.55,60.3,60.3,0,0,1-8.43-19.25,91.48,91.48,0,0,1-2.68-22.14,112.47,112.47,0,0,1,2.52-23.84,60.85,60.85,0,0,1,8.43-20.51,44.17,44.17,0,0,1,15.79-14.36c6.6-3.59,14.85-5.41,24.53-5.41,11.44,0,20.69,2.9,27.51,8.66,6.62,5.59,11.1,13.55,13.3,23.61h25.9a62.36,62.36,0,0,0-7.31-23.61,54.45,54.45,0,0,0-15-17.13,62.32,62.32,0,0,0-21-10.06,97.6,97.6,0,0,0-25.62-3.27c-12.55,0-23.7,2.24-33.14,6.68a66,66,0,0,0-23.66,18.24,78.57,78.57,0,0,0-14.12,27.24,119.39,119.39,0,0,0-4.65,33.76,108.34,108.34,0,0,0,4.81,33.1A72.27,72.27,0,0,0,558,954a62.83,62.83,0,0,0,23.49,16.71c9.33,3.91,20.25,5.86,32.4,5.86,20.35,0,36.65-5.38,48.45-16.05,11.61-10.48,19-25.58,22-44.85H658.78c-1.79,12.33-6.43,22-13.8,28.88-7.58,7-18.13,10.56-31.43,10.56" stroke="black"/>
			
			
			
			
			
			
			
			
			
			
			
			
			
			
		</g>
	</g>
</svg>