<?xml version="1.0" encoding="iso-8859-1"?><svg viewBox="0 0 2873.29 1037.68" xmlns="http://www.w3.org/2000/svg">
	<defs>
		<style>.cls-1{fill:#010101;}</style>
	</defs>
	<title>Element 1</title>
	<g data-name="Ebene 2" id="Ebene_2">
		<g id="BASFw_wh100db_4c">
			
			
			
			
			
			
			
			
			
			
			
			
			
			<path animation_id="10" class="cls-1" d="M1575.31,955.12c-8.46,0-15.87-1.7-22-5.11a43.36,43.36,0,0,1-15-13.55,60.38,60.38,0,0,1-8.45-19.25,92.67,92.67,0,0,1-2.66-22.14,110.77,110.77,0,0,1,2.53-23.84,60.54,60.54,0,0,1,8.4-20.48,44.43,44.43,0,0,1,15.81-14.39c6.57-3.59,14.83-5.41,24.55-5.41,11.4,0,20.67,2.9,27.48,8.66,6.67,5.59,11.13,13.55,13.3,23.61h25.92a62.68,62.68,0,0,0-7.31-23.64,54.72,54.72,0,0,0-15-17.1,63.06,63.06,0,0,0-21-10.06,97.79,97.79,0,0,0-25.63-3.27c-12.54,0-23.71,2.24-33.13,6.68a65.63,65.63,0,0,0-23.65,18.24,78.07,78.07,0,0,0-14.12,27.24,119.81,119.81,0,0,0-4.65,33.76,108.88,108.88,0,0,0,4.8,33.1A72.93,72.93,0,0,0,1519.71,954a63.35,63.35,0,0,0,23.5,16.71c9.37,3.91,20.27,5.86,32.38,5.86,20.41,0,36.7-5.38,48.5-16.05,11.56-10.45,19-25.55,22-44.85h-25.49c-1.77,12.33-6.39,22-13.81,28.88-7.52,7-18.1,10.56-31.43,10.56" stroke="black"/>
			
			
			
			
			
			
			
			
			
		</g>
	</g>
</svg>