<?xml version="1.0" encoding="iso-8859-1"?><svg viewBox="0 0 2873.29 1037.68" xmlns="http://www.w3.org/2000/svg">
	<defs>
		<style>.cls-1{fill:#010101;}</style>
	</defs>
	<title>Element 1</title>
	<g data-name="Ebene 2" id="Ebene_2">
		<g id="BASFw_wh100db_4c">
			
			
			
			
			<path animation_id="3" class="cls-1" d="M2279,168.27h158.12C2437.16,81,2371.48,0,2215.66,0c-170.92,0-223.84,94.33-223.84,163.37,0,111.32,136.23,140.92,140.46,142.24,20.35,6.41,104.91,29.06,126,36.61,18.3,6.53,35.8,21.18,35.8,40.75,0,30-35.8,44.49-65.6,44.49-19.14,0-83.44-6.34-83.44-74.5H1981.71c0,90.52,62.27,191.82,237,191.82,192.8,0,233.14-115,233.14-176.16,0-49.91-28.27-105.27-93.52-131.63-39.26-15.85-104.32-29.74-137-39.28-16.47-4.83-71.35-15.94-71.35-49.43,0-42.9,70.72-37.35,60.4-37.35C2242.32,110.93,2279,128.92,2279,168.27Z" stroke="black"/>
			
			
			
			
			
			
			
			
			
			
			
			
			
			
			
			
			
			
		</g>
	</g>
</svg>