<?xml version="1.0" encoding="iso-8859-1"?><svg data-name="Ebene 1" id="Ebene_1" viewBox="0 0 169.75 71.2" xmlns="http://www.w3.org/2000/svg">
	<title>Zeichenfläche 1 Kopie1</title>
	

	
	

	
	

	<path animation_id="1" d="M122.77,36.26q1-1.2,1.77-2.16a17.19,17.19,0,0,0,1.15-1.74,8.45,8.45,0,0,0,.64-1.41,4.22,4.22,0,0,0,.2-1.24,2.68,2.68,0,0,0-.84-2,3.5,3.5,0,0,0-2.55-.83,4.57,4.57,0,0,0-2.39.54,4.32,4.32,0,0,0-1.41,1.41,3.32,3.32,0,0,1-1,1.08,2,2,0,0,1-1.17.28,2.31,2.31,0,0,1-1.55-.56,2.18,2.18,0,0,1-.63-1.7,3.64,3.64,0,0,1,.56-1.84,6.15,6.15,0,0,1,1.64-1.81,9.53,9.53,0,0,1,2.6-1.38,10.22,10.22,0,0,1,3.44-.54,10.1,10.1,0,0,1,3.24.49A7.35,7.35,0,0,1,129,24.29a6.67,6.67,0,0,1,1.67,2.28,7.16,7.16,0,0,1,.61,3,7.23,7.23,0,0,1-.3,2.09,10.82,10.82,0,0,1-.87,2,17.61,17.61,0,0,1-1.41,2.11c-.57.73-1.21,1.52-1.94,2.37l-5.16,6.18h8.06a2.36,2.36,0,0,1,1.69.6,2.27,2.27,0,0,1,0,3.16,2.36,2.36,0,0,1-1.69.6H117.2a3.63,3.63,0,0,1-.76-.09,2.49,2.49,0,0,1-.79-.34,1.88,1.88,0,0,1-.62-.66,2.07,2.07,0,0,1-.24-1.05,2.72,2.72,0,0,1,.22-1.06,3.87,3.87,0,0,1,.57-.94Z" stroke="black" style="fill:#006d92"/>
	

	
	

	
	

	
	

</svg>