<?xml version="1.0" encoding="iso-8859-1"?><svg data-name="Ebene 1" id="Ebene_1" viewBox="0 0 169.75 71.2" xmlns="http://www.w3.org/2000/svg">
	<title>Zeichenfläche 1 Kopie1</title>
	

	
	

	
	

	
	

	<path animation_id="2" d="M145.37,39.69v-9l-6,9Zm5.84,0a2.47,2.47,0,0,1,1.64.56,2,2,0,0,1,.66,1.62,2,2,0,0,1-.66,1.58,2.43,2.43,0,0,1-1.64.57h-1.28v2.44a2.21,2.21,0,0,1-.62,1.66,2.27,2.27,0,0,1-1.64.6,2.35,2.35,0,0,1-1.64-.6,2.13,2.13,0,0,1-.66-1.66V44h-9.15a2.4,2.4,0,0,1-1.63-.57,2,2,0,0,1-.66-1.58,3.47,3.47,0,0,1,.11-.75,2.5,2.5,0,0,1,.42-.87l10.95-16.07a3.64,3.64,0,0,1,1-1.11,2.11,2.11,0,0,1,1.18-.32,2.34,2.34,0,0,1,1.66.62,2.2,2.2,0,0,1,.68,1.71V39.69Z" stroke="black" style="fill:#006d92"/>
	

	
	

	
	

</svg>