<?xml version="1.0" encoding="iso-8859-1"?><svg height="120" viewBox="0 0 76 76" width="120" xmlns="http://www.w3.org/2000/svg" xmlns:xlink="http://www.w3.org/1999/xlink">
	

	<style type="text/css">
	.st0{fill:#10384F;}
	.st1{fill:#89D329;}
	.st2{fill:#00BCFF;}
</style>
	

	<g id="Bayer_Cross_1_">
		
	
		
		
	
		<path animation_id="1" class="st1" d="M76.1,35.6C74.9,15.8,58.4,0,38.2,0C18,0,1.5,15.8,0.3,35.6c0,0.8,0.1,1.6,0.2,2.4c0.8,6.6,3.3,12.7,7.1,17.8   c6.9,9.4,18,15.5,30.6,15.5c-17.6,0-32-13.7-33.2-30.9c-0.1-0.8-0.1-1.6-0.1-2.4c0-0.8,0-1.6,0.1-2.4C6.2,18.4,20.6,4.7,38.2,4.7   c12.6,0,23.7,6.1,30.6,15.5c3.8,5.1,6.3,11.2,7.1,17.8c0.1,0.8,0.2,1.6,0.2,2.3c0-0.8,0.1-1.6,0.1-2.4   C76.2,37.2,76.2,36.4,76.1,35.6" stroke="black"/>
		
	
		
		

	</g>
	

</svg>