<?xml version="1.0" encoding="iso-8859-1"?><svg height="120" viewBox="0 0 76 76" width="120" xmlns="http://www.w3.org/2000/svg" xmlns:xlink="http://www.w3.org/1999/xlink">
	

	<style type="text/css">
	.st0{fill:#10384F;}
	.st1{fill:#89D329;}
	.st2{fill:#00BCFF;}
</style>
	

	<g id="Bayer_Cross_1_">
		
	
		
		
	
		
		
	
		<path animation_id="2" class="st2" d="M0.3,40.4C1.5,60.2,18,76,38.2,76c20.2,0,36.7-15.8,37.9-35.6c0-0.8-0.1-1.6-0.2-2.4   c-0.8-6.6-3.3-12.7-7.1-17.8c-6.9-9.4-18-15.5-30.6-15.5c17.6,0,32,13.7,33.2,30.9c0.1,0.8,0.1,1.6,0.1,2.4c0,0.8,0,1.6-0.1,2.4   c-1.2,17.3-15.6,30.9-33.2,30.9c-12.6,0-23.7-6.1-30.6-15.5C3.8,50.7,1.3,44.6,0.5,38c-0.1-0.8-0.2-1.6-0.2-2.3   c0,0.8-0.1,1.6-0.1,2.4C0.2,38.8,0.2,39.6,0.3,40.4" stroke="black"/>
		

	</g>
	

</svg>