<?xml version="1.0" encoding="iso-8859-1"?><!-- Created with Inkscape (http://www.inkscape.org/) --><svg height="230" id="svg3511" version="1.1" width="1024" xmlns="http://www.w3.org/2000/svg" xmlns:cc="http://creativecommons.org/ns#" xmlns:dc="http://purl.org/dc/elements/1.1/" xmlns:rdf="http://www.w3.org/1999/02/22-rdf-syntax-ns#" xmlns:svg="http://www.w3.org/2000/svg">
	
  
	<defs id="defs3513">
		
    
		<clipPath id="clipPath3141">
			
      
			
			
    
		</clipPath>
		
  
	</defs>
	
  
	<metadata id="metadata3516">
		
    
		<rdf:RDF>
			
      
			<cc:Work rdf:about="">
				
        
				<dc:format>image/svg+xml</dc:format>
				
        
				<dc:type rdf:resource="http://purl.org/dc/dcmitype/StillImage"/>
				
        
				<dc:title/>
				
      
			</cc:Work>
			
    
		</rdf:RDF>
		
  
	</metadata>
	
  
	<g id="layer1" transform="translate(0,-538)">
		
    
		<g id="g3805" transform="matrix(1.9428845,0,0,1.9428845,-507.10145,145.50712)">
			
      
			<g id="g3145" transform="matrix(2.5,0,0,-2.5,559.36112,204.94838)">
				
        
				<path animation_id="1" d="m 0,0 -1.692,-6.192 -0.537,0.654 c -1.592,1.95 -4.881,2.642 -7.222,2.642 -4.688,0 -7.484,-2.168 -7.484,-5.798 0,-3.832 3.161,-6.572 7.867,-6.813 l 0.493,-0.024 -0.857,-4.643 -0.452,-0.397 -0.312,-0.049 c -8.09,-1.061 -14.19,-6.576 -14.19,-12.826 0,-5.609 3.081,-8.953 8.247,-8.953 10.076,0 15.807,11.218 17.897,21.907 l -4.866,0 0.889,4.98 15.242,0 -0.753,-4.98 -4.769,0 C 5.444,-31.962 0.592,-40.537 -5.969,-45.178 l 89.985,0 0,-0.003 6.144,0 L 90.16,0 0,0 z" id="path3147" stroke="black" style="fill:#005aa7;fill-opacity:1;fill-rule:nonzero;"/>
				
      
			</g>
			
      
			<g id="g3149" transform="matrix(2.5,0,0,-2.5,478.38862,290.86263)">
				
        
				
				
      
			</g>
			
      
			<g id="g3153" transform="matrix(2.5,0,0,-2.5,442.23362,264.32363)">
				
        
				
				
      
			</g>
			
      
			<g id="g3157" transform="matrix(2.5,0,0,-2.5,713.92362,265.04813)">
				
        
				
				
      
			</g>
			
      
			<g id="g3161" transform="matrix(2.5,0,0,-2.5,713.92362,265.04813)">
				
        
				
				
      
			</g>
			
      
			<g id="g3165" transform="matrix(2.5,0,0,-2.5,488.59737,317.89288)">
				
        
				
				
      
			</g>
			
    
		</g>
		
  
	</g>
	

</svg>