<?xml version="1.0" encoding="iso-8859-1"?><!-- Created with Inkscape (http://www.inkscape.org/) --><svg height="230" id="svg3511" version="1.1" width="1024" xmlns="http://www.w3.org/2000/svg" xmlns:cc="http://creativecommons.org/ns#" xmlns:dc="http://purl.org/dc/elements/1.1/" xmlns:rdf="http://www.w3.org/1999/02/22-rdf-syntax-ns#" xmlns:svg="http://www.w3.org/2000/svg">
	
  
	<defs id="defs3513">
		
    
		<clipPath id="clipPath3141">
			
      
			
			
    
		</clipPath>
		
  
	</defs>
	
  
	<metadata id="metadata3516">
		
    
		<rdf:RDF>
			
      
			<cc:Work rdf:about="">
				
        
				<dc:format>image/svg+xml</dc:format>
				
        
				<dc:type rdf:resource="http://purl.org/dc/dcmitype/StillImage"/>
				
        
				<dc:title/>
				
      
			</cc:Work>
			
    
		</rdf:RDF>
		
  
	</metadata>
	
  
	<g id="layer1" transform="translate(0,-538)">
		
    
		<g id="g3805" transform="matrix(1.9428845,0,0,1.9428845,-507.10145,145.50712)">
			
      
			<g id="g3145" transform="matrix(2.5,0,0,-2.5,559.36112,204.94838)">
				
        
				
				
      
			</g>
			
      
			<g id="g3149" transform="matrix(2.5,0,0,-2.5,478.38862,290.86263)">
				
        
				<path animation_id="2" d="m 0,0 c 0,7.35 5.373,13.62 13.98,16.616 -3.392,1.674 -5.612,4.807 -5.612,8.627 0,3.596 2.159,6.855 5.46,9.123 l -99.014,0 0,-45.178 89.269,0 C 1.481,-8.248 0,-4.537 0,0" id="path3151" stroke="black" style="fill:#00a2e3;fill-opacity:1;fill-rule:nonzero;"/>
				
      
			</g>
			
      
			<g id="g3153" transform="matrix(2.5,0,0,-2.5,442.23362,264.32363)">
				
        
				
				
      
			</g>
			
      
			<g id="g3157" transform="matrix(2.5,0,0,-2.5,713.92362,265.04813)">
				
        
				
				
      
			</g>
			
      
			<g id="g3161" transform="matrix(2.5,0,0,-2.5,713.92362,265.04813)">
				
        
				
				
      
			</g>
			
      
			<g id="g3165" transform="matrix(2.5,0,0,-2.5,488.59737,317.89288)">
				
        
				
				
      
			</g>
			
    
		</g>
		
  
	</g>
	

</svg>