<?xml version="1.0" encoding="iso-8859-1"?><!-- Converted by misc2svg (http://www.network-science.de/tools/misc2svg/) --><svg height="61.049999" id="svg2" inkscape:version="0.48.2 r9819" sodipodi:docname="misc2svg_20111207_175719_cff595832b.svg" version="1.1" viewBox="0 0 120.552 48.84" width="150.69" xmlns="http://www.w3.org/2000/svg" xmlns:cc="http://creativecommons.org/ns#" xmlns:dc="http://purl.org/dc/elements/1.1/" xmlns:inkscape="http://www.inkscape.org/namespaces/inkscape" xmlns:rdf="http://www.w3.org/1999/02/22-rdf-syntax-ns#" xmlns:sodipodi="http://sodipodi.sourceforge.net/DTD/sodipodi-0.dtd" xmlns:svg="http://www.w3.org/2000/svg">
	
  
	<metadata id="metadata4747">
		
    
		<rdf:RDF>
			
      
			<cc:Work rdf:about="">
				
        
				<dc:format>image/svg+xml</dc:format>
				
        
				<dc:type rdf:resource="http://purl.org/dc/dcmitype/StillImage"/>
				
        
				<dc:title/>
				
      
			</cc:Work>
			
    
		</rdf:RDF>
		
  
	</metadata>
	
  
	<defs id="defs4745"/>
	
  
	<sodipodi:namedview bordercolor="#666666" borderopacity="1" fit-margin-bottom="0" fit-margin-left="0" fit-margin-right="0" fit-margin-top="0" gridtolerance="10" guidetolerance="10" id="namedview4743" inkscape:current-layer="misc2svg" inkscape:cx="97.511266" inkscape:cy="43.741012" inkscape:pageopacity="0" inkscape:pageshadow="2" inkscape:window-height="962" inkscape:window-maximized="1" inkscape:window-width="1280" inkscape:window-x="-8" inkscape:window-y="-8" inkscape:zoom="5.7375119" objecttolerance="10" pagecolor="#ffffff" showgrid="false"/>
	
  
	<g id="misc2svg" transform="translate(-535.28751,-589.18992)">
		
    
		<g id="g7781" transform="translate(3.9999983,-4.0000036)">
			
      
			
			
      
			
			
      
			
			
      
			
			
      
			
			
      
			
			
      
			
			
      
			
			
      
			
			
      
			
			
      
			
			
      
			
			
      
			
			
      
			<path animation_id="13" d="m 613.86173,627.07228 c -0.27344,1.5625 -0.22656,2.74219 0.14453,3.54688 0.3711,0.8125 1.04297,1.35937 2.00391,1.64062 0.96875,0.28907 2.21484,0.42188 3.73436,0.40625 2.66408,0.0352 4.60548,-0.29687 5.8008,-1.00781 1.19531,-0.71484 1.95312,-2.00781 2.25,-3.89453 l 0.1914,-1.04297 -5.54688,0.082 -0.15624,0.84766 c -0.0937,0.51953 -0.27736,0.86719 -0.55469,1.03906 -0.28125,0.17969 -0.67969,0.26172 -1.20313,0.25 -0.66406,0.0156 -1.08594,-0.0625 -1.25782,-0.24219 -0.17186,-0.17968 -0.20702,-0.5039 -0.10546,-0.96875 l 0.54687,-3.02734 8.68359,-0.18359 1.0547,-5.71094 c 0.19922,-0.97656 0.17969,-1.84375 -0.0703,-2.58985 -0.25,-0.7539 -0.86719,-1.32421 -1.85157,-1.71875 -0.97656,-0.39062 -2.44921,-0.54296 -4.41406,-0.44921 -1.53906,0.0547 -2.85937,0.2539 -3.94922,0.60156 -1.08984,0.33594 -1.96093,0.92969 -2.63672,1.77344 -0.66796,0.84765 -1.14062,2.05859 -1.42187,3.6289 l -1.2422,7.01953 z m 6.92188,-8.34375 c 0.0508,-0.36328 0.19531,-0.63671 0.42577,-0.82031 0.23438,-0.17969 0.65235,-0.27734 1.26173,-0.30078 0.60156,-0.0234 0.99218,0.043 1.17186,0.20703 0.17188,0.16406 0.21876,0.4336 0.13282,0.8086 l -0.48438,2.67578 -2.98437,0.0859 0.47657,-2.65625" id="path31" inkscape:connector-curvature="0" stroke="black" style="fill:#f05417;fill-opacity:1;fill-rule:evenodd;"/>
			
    
		</g>
		
  
	</g>
	

</svg>