<?xml version="1.0" encoding="iso-8859-1"?><!-- Converted by misc2svg (http://www.network-science.de/tools/misc2svg/) --><svg height="61.049999" id="svg2" inkscape:version="0.48.2 r9819" sodipodi:docname="misc2svg_20111207_175719_cff595832b.svg" version="1.1" viewBox="0 0 120.552 48.84" width="150.69" xmlns="http://www.w3.org/2000/svg" xmlns:cc="http://creativecommons.org/ns#" xmlns:dc="http://purl.org/dc/elements/1.1/" xmlns:inkscape="http://www.inkscape.org/namespaces/inkscape" xmlns:rdf="http://www.w3.org/1999/02/22-rdf-syntax-ns#" xmlns:sodipodi="http://sodipodi.sourceforge.net/DTD/sodipodi-0.dtd" xmlns:svg="http://www.w3.org/2000/svg">
	
  
	<metadata id="metadata4747">
		
    
		<rdf:RDF>
			
      
			<cc:Work rdf:about="">
				
        
				<dc:format>image/svg+xml</dc:format>
				
        
				<dc:type rdf:resource="http://purl.org/dc/dcmitype/StillImage"/>
				
        
				<dc:title/>
				
      
			</cc:Work>
			
    
		</rdf:RDF>
		
  
	</metadata>
	
  
	<defs id="defs4745"/>
	
  
	<sodipodi:namedview bordercolor="#666666" borderopacity="1" fit-margin-bottom="0" fit-margin-left="0" fit-margin-right="0" fit-margin-top="0" gridtolerance="10" guidetolerance="10" id="namedview4743" inkscape:current-layer="misc2svg" inkscape:cx="97.511266" inkscape:cy="43.741012" inkscape:pageopacity="0" inkscape:pageshadow="2" inkscape:window-height="962" inkscape:window-maximized="1" inkscape:window-width="1280" inkscape:window-x="-8" inkscape:window-y="-8" inkscape:zoom="5.7375119" objecttolerance="10" pagecolor="#ffffff" showgrid="false"/>
	
  
	<g id="misc2svg" transform="translate(-535.28751,-589.18992)">
		
    
		<g id="g7781" transform="translate(3.9999983,-4.0000036)">
			
      
			
			
      
			
			
      
			
			
      
			
			
      
			
			
      
			
			
      
			
			
      
			
			
      
			
			
      
			<path animation_id="9" d="m 574.36955,627.65041 c -0.21875,1.39062 -0.17969,2.44141 0.10937,3.16406 0.30078,0.71875 0.82812,1.20703 1.59375,1.46094 0.76562,0.25391 1.75,0.37109 2.95312,0.35547 2.10157,0.0352 3.62891,-0.26172 4.57032,-0.89453 0.94531,-0.62891 1.53515,-1.78125 1.77343,-3.44922 l 0.15235,-0.92578 -4.3711,0.0664 -0.12109,0.75 c -0.0742,0.46484 -0.22266,0.77343 -0.44141,0.92968 -0.21875,0.15235 -0.53515,0.23047 -0.94531,0.21875 -0.52734,0.0117 -0.85937,-0.0625 -0.99609,-0.21875 -0.13672,-0.16015 -0.16016,-0.44921 -0.082,-0.85937 l 0.43359,-2.69141 6.83984,-0.14843 0.82422,-5.05469 c 0.16016,-0.86719 0.14453,-1.63281 -0.0508,-2.30078 -0.19531,-0.66407 -0.67969,-1.17188 -1.45312,-1.52735 -0.76953,-0.35156 -1.9336,-0.49218 -3.48047,-0.42187 -1.21485,0.043 -2.25,0.21484 -3.11328,0.51172 -0.85938,0.30078 -1.55469,0.82031 -2.08594,1.57422 -0.52734,0.74609 -0.90625,1.82031 -1.125,3.21875 l -0.98437,6.24218 z m 5.47265,-7.39844 c 0.043,-0.32422 0.15625,-0.57031 0.33594,-0.72656 0.1875,-0.16016 0.51953,-0.25 0.99219,-0.26172 0.48437,-0.0195 0.79296,0.0391 0.92578,0.18359 0.14062,0.14844 0.17187,0.38672 0.10937,0.71875 l -0.38672,2.37891 -2.35156,0.0664 0.375,-2.35937" id="path23" inkscape:connector-curvature="0" stroke="black" style="fill:#3a54a6;fill-opacity:1;fill-rule:evenodd;"/>
			
      
			
			
      
			
			
      
			
			
      
			
			
    
		</g>
		
  
	</g>
	

</svg>