<?xml version="1.0" encoding="iso-8859-1"?><!-- Converted by misc2svg (http://www.network-science.de/tools/misc2svg/) --><svg height="61.049999" id="svg2" inkscape:version="0.48.2 r9819" sodipodi:docname="misc2svg_20111207_175719_cff595832b.svg" version="1.1" viewBox="0 0 120.552 48.84" width="150.69" xmlns="http://www.w3.org/2000/svg" xmlns:cc="http://creativecommons.org/ns#" xmlns:dc="http://purl.org/dc/elements/1.1/" xmlns:inkscape="http://www.inkscape.org/namespaces/inkscape" xmlns:rdf="http://www.w3.org/1999/02/22-rdf-syntax-ns#" xmlns:sodipodi="http://sodipodi.sourceforge.net/DTD/sodipodi-0.dtd" xmlns:svg="http://www.w3.org/2000/svg">
	
  
	<metadata id="metadata4747">
		
    
		<rdf:RDF>
			
      
			<cc:Work rdf:about="">
				
        
				<dc:format>image/svg+xml</dc:format>
				
        
				<dc:type rdf:resource="http://purl.org/dc/dcmitype/StillImage"/>
				
        
				<dc:title/>
				
      
			</cc:Work>
			
    
		</rdf:RDF>
		
  
	</metadata>
	
  
	<defs id="defs4745"/>
	
  
	<sodipodi:namedview bordercolor="#666666" borderopacity="1" fit-margin-bottom="0" fit-margin-left="0" fit-margin-right="0" fit-margin-top="0" gridtolerance="10" guidetolerance="10" id="namedview4743" inkscape:current-layer="misc2svg" inkscape:cx="97.511266" inkscape:cy="43.741012" inkscape:pageopacity="0" inkscape:pageshadow="2" inkscape:window-height="962" inkscape:window-maximized="1" inkscape:window-width="1280" inkscape:window-x="-8" inkscape:window-y="-8" inkscape:zoom="5.7375119" objecttolerance="10" pagecolor="#ffffff" showgrid="false"/>
	
  
	<g id="misc2svg" transform="translate(-535.28751,-589.18992)">
		
    
		<g id="g7781" transform="translate(3.9999983,-4.0000036)">
			
      
			
			
      
			
			
      
			
			
      
			
			
      
			
			
      
			
			
      
			
			
      
			
			
      
			<path animation_id="8" d="m 568.47892,621.04103 c 0.0469,-0.33203 0.15625,-0.57031 0.33203,-0.71875 0.17188,-0.14843 0.44141,-0.22656 0.79688,-0.23437 0.36328,-0.0156 0.60547,0.043 0.73828,0.17578 0.13281,0.13672 0.17187,0.37109 0.11719,0.70313 l -1.15625,7.42578 c -0.0469,0.32812 -0.15625,0.5664 -0.33594,0.71093 -0.17188,0.14063 -0.4375,0.20704 -0.79297,0.20704 -0.35156,0.004 -0.59766,-0.0586 -0.73047,-0.19532 -0.12891,-0.13672 -0.16406,-0.37109 -0.10937,-0.69922 l 1.14062,-7.375 z m -5.04687,7.75391 c -0.17969,1.03906 -0.10157,1.91016 0.23437,2.60547 0.33594,0.71094 1.09766,1.07422 2.28125,1.10156 0.57422,0 1.10547,-0.11719 1.58984,-0.35156 0.48438,-0.24219 0.91797,-0.59766 1.30079,-1.06641 l 0.0508,0 -0.42969,2.75 c -0.0586,0.39844 -0.17969,0.67188 -0.35938,0.82032 -0.1875,0.14062 -0.45703,0.20703 -0.80859,0.19531 -0.35547,0 -0.59766,-0.0547 -0.74219,-0.16797 -0.14062,-0.10938 -0.1875,-0.28906 -0.14843,-0.52734 l 0.0469,-0.33204 -3.36719,-0.0156 -0.125,0.80469 c -0.17968,1.00391 -0.0156,1.8086 0.48047,2.42188 0.4961,0.61328 1.4961,0.9414 2.9961,0.98437 1.77343,0.0742 3.15625,-0.1875 4.13671,-0.77734 0.98829,-0.58985 1.61719,-1.7461 1.88672,-3.47657 l 2.6875,-17.09374 -3.75,0.18359 -0.22265,1.44141 -0.0547,0.004 c -0.31642,-0.62889 -0.71095,-1.05467 -1.1836,-1.26561 -0.47657,-0.22266 -1.08985,-0.30469 -1.85157,-0.25781 -0.91797,0.0508 -1.67187,0.42578 -2.25781,1.1289 -0.58984,0.70313 -0.98437,1.71485 -1.19141,3.03516 l -1.19921,7.85547" id="path21" inkscape:connector-curvature="0" stroke="black" style="fill:#3a54a6;fill-opacity:1;fill-rule:evenodd;"/>
			
      
			
			
      
			
			
      
			
			
      
			
			
      
			
			
    
		</g>
		
  
	</g>
	

</svg>