<?xml version="1.0" encoding="iso-8859-1"?><!-- Converted by misc2svg (http://www.network-science.de/tools/misc2svg/) --><svg height="61.049999" id="svg2" inkscape:version="0.48.2 r9819" sodipodi:docname="misc2svg_20111207_175719_cff595832b.svg" version="1.1" viewBox="0 0 120.552 48.84" width="150.69" xmlns="http://www.w3.org/2000/svg" xmlns:cc="http://creativecommons.org/ns#" xmlns:dc="http://purl.org/dc/elements/1.1/" xmlns:inkscape="http://www.inkscape.org/namespaces/inkscape" xmlns:rdf="http://www.w3.org/1999/02/22-rdf-syntax-ns#" xmlns:sodipodi="http://sodipodi.sourceforge.net/DTD/sodipodi-0.dtd" xmlns:svg="http://www.w3.org/2000/svg">
	
  
	<metadata id="metadata4747">
		
    
		<rdf:RDF>
			
      
			<cc:Work rdf:about="">
				
        
				<dc:format>image/svg+xml</dc:format>
				
        
				<dc:type rdf:resource="http://purl.org/dc/dcmitype/StillImage"/>
				
        
				<dc:title/>
				
      
			</cc:Work>
			
    
		</rdf:RDF>
		
  
	</metadata>
	
  
	<defs id="defs4745"/>
	
  
	<sodipodi:namedview bordercolor="#666666" borderopacity="1" fit-margin-bottom="0" fit-margin-left="0" fit-margin-right="0" fit-margin-top="0" gridtolerance="10" guidetolerance="10" id="namedview4743" inkscape:current-layer="misc2svg" inkscape:cx="97.511266" inkscape:cy="43.741012" inkscape:pageopacity="0" inkscape:pageshadow="2" inkscape:window-height="962" inkscape:window-maximized="1" inkscape:window-width="1280" inkscape:window-x="-8" inkscape:window-y="-8" inkscape:zoom="5.7375119" objecttolerance="10" pagecolor="#ffffff" showgrid="false"/>
	
  
	<g id="misc2svg" transform="translate(-535.28751,-589.18992)">
		
    
		<g id="g7781" transform="translate(3.9999983,-4.0000036)">
			
      
			
			
      
			
			
      
			
			
      
			
			
      
			
			
      
			
			
      
			
			
      
			
			
      
			
			
      
			
			
      
			<path animation_id="10" d="m 585.7172,632.38478 4.43359,0 2.01172,-12.10156 c 0.0586,-0.33594 0.1836,-0.57031 0.37891,-0.70703 0.19141,-0.13672 0.42578,-0.20703 0.69531,-0.21094 0.25391,-0.0156 0.46094,0.0195 0.62891,0.10547 0.16015,0.0859 0.22265,0.25781 0.1914,0.51563 l -0.41406,2.48828 3.88281,-0.11328 0.77344,-4.57422 c 0.15235,-1.02344 0.008,-1.69141 -0.41406,-2.01563 -0.42969,-0.32422 -1.06641,-0.44531 -1.91016,-0.3789 -0.875,0.0273 -1.5664,0.19531 -2.08203,0.49218 -0.51172,0.29688 -0.97656,0.82813 -1.39062,1.59375 l -0.0586,0 0.27344,-1.66406 -4.32031,0.21094 -2.67969,16.35937" id="path25" inkscape:connector-curvature="0" stroke="black" style="fill:#3a54a6;fill-opacity:1;fill-rule:nonzero;"/>
			
      
			
			
      
			
			
      
			
			
    
		</g>
		
  
	</g>
	

</svg>