<?xml version="1.0" encoding="iso-8859-1"?><!-- Created with Inkscape (http://www.inkscape.org/) --><svg height="178.937" id="svg3462" version="1.1" width="892.91339" xmlns="http://www.w3.org/2000/svg" xmlns:cc="http://creativecommons.org/ns#" xmlns:dc="http://purl.org/dc/elements/1.1/" xmlns:rdf="http://www.w3.org/1999/02/22-rdf-syntax-ns#" xmlns:svg="http://www.w3.org/2000/svg">
	
  
	<defs id="defs3464"/>
	
  
	<metadata id="metadata3467">
		
    
		<rdf:RDF>
			
      
			<cc:Work rdf:about="">
				
        
				<dc:format>image/svg+xml</dc:format>
				
        
				<dc:type rdf:resource="http://purl.org/dc/dcmitype/StillImage"/>
				
        
				<dc:title/>
				
      
			</cc:Work>
			
    
		</rdf:RDF>
		
  
	</metadata>
	
  
	<g id="layer1" transform="translate(-24.033972,-489.2717)">
		
    
		<g id="g3539" transform="matrix(5.4225232,0,0,5.4225232,-102.74751,-2958.7089)">
			
      
			<g id="g3065" transform="matrix(1.25,0,0,-1.25,87.413226,651.44228)">
				
        
				<path animation_id="0" d="m 0,0 -2.593,-5.048 4.889,0 C 1.79,-6.132 0.482,-7.95 -2.831,-8.057 -9.476,-7.889 -7.982,2.626 2.261,2.659 3.011,2.658 3.872,2.66 4.726,2.66 L 7.389,7.813 C 6.86,7.816 5.168,7.812 4.005,7.813 -11.94,7.831 -12.458,-2.081 -12.568,-3.266 -12.621,-4.363 -12.76,-13.025 -2.947,-13.413 -1.616,-13.36 8.08,-13.95 9.935,0 L 0,0 z" id="path3067" stroke="black" style="fill:#004494;fill-opacity:1;fill-rule:nonzero;"/>
				
      
			</g>
			
      
			<g id="g3069" transform="matrix(1.25,0,0,-1.25,24.033976,667.85508)">
				
        
				
				
      
			</g>
			
      
			<g id="g3073" transform="matrix(1.25,0,0,-1.25,28.800846,664.80578)">
				
        
				
				
      
			</g>
			
      
			<g id="g3077" transform="matrix(1.25,0,0,-1.25,51.080096,667.92108)">
				
        
				
				
      
			</g>
			
      
			<g id="g3081" transform="matrix(1.25,0,0,-1.25,120.46898,647.78458)">
				
        
				
				
      
			</g>
			
      
			<g id="g3085" transform="matrix(1.25,0,0,-1.25,57.532856,664.23808)">
				
        
				
				
      
			</g>
			
      
			<g id="g3089" transform="matrix(1.25,0,0,-1.25,85.952726,654.28978)">
				
        
				
				
      
			</g>
			
      
			<g id="g3093" transform="matrix(1.25,0,0,-1.25,122.79435,654.40618)">
				
        
				
				
      
			</g>
			
      
			<g id="g3097" transform="matrix(1.25,0,0,-1.25,131.4126,650.46848)">
				
        
				
				
      
			</g>
			
      
			<g id="g3101" transform="matrix(1.25,0,0,-1.25,150.75635,644.87948)">
				
        
				
				
      
			</g>
			
      
			<g id="g3105" transform="matrix(1.25,0,0,-1.25,149.44098,654.40618)">
				
        
				
				
      
			</g>
			
      
			<g id="g3109" transform="matrix(1.25,0,0,-1.25,161.5181,644.82228)">
				
        
				
				
      
			</g>
			
      
			<g id="g3113" transform="matrix(1.25,0,0,-1.25,162.37573,645.40098)">
				
        
				
				
      
			</g>
			
      
			<g id="g3117" transform="matrix(1.25,0,0,-1.25,166.69923,654.40618)">
				
        
				
				
      
			</g>
			
      
			<g id="g3121" transform="matrix(1.25,0,0,-1.25,180.98536,644.89318)">
				
        
				
				
      
			</g>
			
      
			<g id="g3125" transform="matrix(1.25,0,0,-1.25,187.3946,644.82228)">
				
        
				
				
      
			</g>
			
    
		</g>
		
  
	</g>
	

</svg>