<?xml version="1.0" encoding="iso-8859-1"?><!-- Created with Inkscape (http://www.inkscape.org/) --><svg height="178.937" id="svg3462" version="1.1" width="892.91339" xmlns="http://www.w3.org/2000/svg" xmlns:cc="http://creativecommons.org/ns#" xmlns:dc="http://purl.org/dc/elements/1.1/" xmlns:rdf="http://www.w3.org/1999/02/22-rdf-syntax-ns#" xmlns:svg="http://www.w3.org/2000/svg">
	
  
	<defs id="defs3464"/>
	
  
	<metadata id="metadata3467">
		
    
		<rdf:RDF>
			
      
			<cc:Work rdf:about="">
				
        
				<dc:format>image/svg+xml</dc:format>
				
        
				<dc:type rdf:resource="http://purl.org/dc/dcmitype/StillImage"/>
				
        
				<dc:title/>
				
      
			</cc:Work>
			
    
		</rdf:RDF>
		
  
	</metadata>
	
  
	<g id="layer1" transform="translate(-24.033972,-489.2717)">
		
    
		<g id="g3539" transform="matrix(5.4225232,0,0,5.4225232,-102.74751,-2958.7089)">
			
      
			<g id="g3065" transform="matrix(1.25,0,0,-1.25,87.413226,651.44228)">
				
        
				
				
      
			</g>
			
      
			<g id="g3069" transform="matrix(1.25,0,0,-1.25,24.033976,667.85508)">
				
        
				
				
      
			</g>
			
      
			<g id="g3073" transform="matrix(1.25,0,0,-1.25,28.800846,664.80578)">
				
        
				<path animation_id="2" d="m 0,0 7.139,16.224 6.179,0 c 3.372,-0.011 4.006,-2.88 3.814,-4.087 C 17.091,11.877 16.585,9.187 13.58,8.27 14.673,7.931 16.167,6.455 15.905,4.546 15.795,3.74 15.068,0.126 9.447,0 L 0,0 z m 4.348,8.48 c 0.849,0.004 5.587,-0.041 7.337,0.01 3.505,0.098 4.633,2.843 4.679,2.966 1.093,2.827 -1.616,4.191 -2.488,4.191 L 7.522,15.637 4.348,8.48 z M 4.122,7.912 0.872,0.505 9.557,0.524 c 4.558,0.158 5.511,2.783 5.65,3.405 0.762,3.325 -1.97,3.983 -2.924,4.002 L 4.122,7.912 z" id="path3075" stroke="black" style="fill:#ffffff;fill-opacity:1;fill-rule:evenodd;"/>
				
      
			</g>
			
      
			<g id="g3077" transform="matrix(1.25,0,0,-1.25,51.080096,667.92108)">
				
        
				
				
      
			</g>
			
      
			<g id="g3081" transform="matrix(1.25,0,0,-1.25,120.46898,647.78458)">
				
        
				
				
      
			</g>
			
      
			<g id="g3085" transform="matrix(1.25,0,0,-1.25,57.532856,664.23808)">
				
        
				
				
      
			</g>
			
      
			<g id="g3089" transform="matrix(1.25,0,0,-1.25,85.952726,654.28978)">
				
        
				
				
      
			</g>
			
      
			<g id="g3093" transform="matrix(1.25,0,0,-1.25,122.79435,654.40618)">
				
        
				
				
      
			</g>
			
      
			<g id="g3097" transform="matrix(1.25,0,0,-1.25,131.4126,650.46848)">
				
        
				
				
      
			</g>
			
      
			<g id="g3101" transform="matrix(1.25,0,0,-1.25,150.75635,644.87948)">
				
        
				
				
      
			</g>
			
      
			<g id="g3105" transform="matrix(1.25,0,0,-1.25,149.44098,654.40618)">
				
        
				
				
      
			</g>
			
      
			<g id="g3109" transform="matrix(1.25,0,0,-1.25,161.5181,644.82228)">
				
        
				
				
      
			</g>
			
      
			<g id="g3113" transform="matrix(1.25,0,0,-1.25,162.37573,645.40098)">
				
        
				
				
      
			</g>
			
      
			<g id="g3117" transform="matrix(1.25,0,0,-1.25,166.69923,654.40618)">
				
        
				
				
      
			</g>
			
      
			<g id="g3121" transform="matrix(1.25,0,0,-1.25,180.98536,644.89318)">
				
        
				
				
      
			</g>
			
      
			<g id="g3125" transform="matrix(1.25,0,0,-1.25,187.3946,644.82228)">
				
        
				
				
      
			</g>
			
    
		</g>
		
  
	</g>
	

</svg>