<?xml version="1.0" encoding="iso-8859-1"?><!-- Created with Inkscape (http://www.inkscape.org/) --><svg height="768" id="svg4024" version="1.1" width="830" xmlns="http://www.w3.org/2000/svg" xmlns:cc="http://creativecommons.org/ns#" xmlns:dc="http://purl.org/dc/elements/1.1/" xmlns:rdf="http://www.w3.org/1999/02/22-rdf-syntax-ns#" xmlns:svg="http://www.w3.org/2000/svg">
	
  
	<defs id="defs4026">
		
    
		<clipPath id="clipPath3887">
			
      
			
			
    
		</clipPath>
		
  
	</defs>
	
  
	<metadata id="metadata4029">
		
    
		<rdf:RDF>
			
      
			<cc:Work rdf:about="">
				
        
				<dc:format>image/svg+xml</dc:format>
				
        
				<dc:type rdf:resource="http://purl.org/dc/dcmitype/StillImage"/>
				
        
				<dc:title/>
				
      
			</cc:Work>
			
    
		</rdf:RDF>
		
  
	</metadata>
	
  
	<g id="layer1">
		
    
		<g id="g4681" transform="matrix(1.2221,0,0,1.2221,-138.8334,-61.288582)">
			
      
			<g id="g3891" style="fill:#004475;fill-opacity:1" transform="matrix(6.25,0,0,-6.25,199.20013,62.931225)">
				
        
				
				
      
			</g>
			
      
			
			
      
			<g id="g3899" transform="matrix(6.25,0,0,-6.25,214.27263,364.26623)">
				
        
				
				
      
			</g>
			
      
			
			
      
			<g id="g3905" transform="matrix(6.25,0,0,-6.25,297.98144,356.80191)">
				
        
				
				
      
			</g>
			
      
			<g id="g3909" transform="matrix(6.25,0,0,-6.25,359.98138,390.25004)">
				
        
				
				
      
			</g>
			
      
			<g id="g3913" transform="matrix(6.25,0,0,-6.25,455.932,390.25004)">
				
        
				<path animation_id="7" d="m 0,0 0,7.697 c 0,2.676 -1.543,3.334 -2.942,3.334 -1.729,0 -2.614,-0.823 -3.149,-1.502 -0.515,1.173 -1.605,1.502 -2.593,1.502 -1.647,0 -2.408,-0.823 -2.923,-1.523 l -0.062,1.194 -2.388,0 0,-10.702 2.573,0 0,6.319 c 0,1.254 0.68,2.366 1.853,2.366 0.987,0 1.317,-0.576 1.317,-1.441 l 0,-7.244 2.572,0 0,6.319 c 0,1.254 0.68,2.366 1.853,2.366 0.987,0 1.317,-0.576 1.317,-1.441 L -2.572,0 0,0 z" id="path3915" stroke="black" style="fill:#ffffff;fill-opacity:1;fill-rule:nonzero;"/>
				
      
			</g>
			
      
			<g id="g3917" transform="matrix(6.25,0,0,-6.25,603.07081,297.63623)">
				
        
				
				
      
			</g>
			
      
			<g id="g3921" transform="matrix(6.25,0,0,-6.25,651.03262,356.80191)">
				
        
				
				
      
			</g>
			
      
			<g id="g3925" transform="matrix(6.25,0,0,-6.25,707.25763,335.06747)">
				
        
				
				
      
			</g>
			
      
			<g id="g3929" transform="matrix(6.25,0,0,-6.25,763.3345,335.06747)">
				
        
				
				
      
			</g>
			
      
			<g id="g3933" transform="matrix(6.25,0,0,-6.25,539.35269,359.13741)">
				
        
				
				
      
			</g>
			
    
		</g>
		
  
	</g>
	

</svg>