<?xml version="1.0" encoding="iso-8859-1"?><!-- Created with Inkscape (http://www.inkscape.org/) --><svg height="768" id="svg4024" version="1.1" width="830" xmlns="http://www.w3.org/2000/svg" xmlns:cc="http://creativecommons.org/ns#" xmlns:dc="http://purl.org/dc/elements/1.1/" xmlns:rdf="http://www.w3.org/1999/02/22-rdf-syntax-ns#" xmlns:svg="http://www.w3.org/2000/svg">
	
  
	<defs id="defs4026">
		
    
		<clipPath id="clipPath3887">
			
      
			
			
    
		</clipPath>
		
  
	</defs>
	
  
	<metadata id="metadata4029">
		
    
		<rdf:RDF>
			
      
			<cc:Work rdf:about="">
				
        
				<dc:format>image/svg+xml</dc:format>
				
        
				<dc:type rdf:resource="http://purl.org/dc/dcmitype/StillImage"/>
				
        
				<dc:title/>
				
      
			</cc:Work>
			
    
		</rdf:RDF>
		
  
	</metadata>
	
  
	<g id="layer1">
		
    
		<g id="g4681" transform="matrix(1.2221,0,0,1.2221,-138.8334,-61.288582)">
			
      
			<g id="g3891" style="fill:#004475;fill-opacity:1" transform="matrix(6.25,0,0,-6.25,199.20013,62.931225)">
				
        
				
				
      
			</g>
			
      
			
			
      
			<g id="g3899" transform="matrix(6.25,0,0,-6.25,214.27263,364.26623)">
				
        
				
				
      
			</g>
			
      
			
			
      
			<g id="g3905" transform="matrix(6.25,0,0,-6.25,297.98144,356.80191)">
				
        
				<path animation_id="5" d="M 0,0 C 0,1.111 -0.124,2.16 -0.432,3.045 -0.988,4.63 -2.202,5.68 -4.549,5.68 -6.915,5.68 -8.13,4.63 -8.706,3.045 -9.015,2.16 -9.138,1.13 -9.138,0 c 0,-1.133 0.123,-2.183 0.432,-3.067 0.576,-1.565 1.811,-2.615 4.157,-2.615 2.326,0 3.54,1.05 4.117,2.615 C -0.124,-2.183 0,-1.133 0,0 m -2.614,0 c 0,-2.717 -0.679,-3.479 -1.935,-3.479 -0.802,0 -1.379,0.309 -1.688,1.173 -0.185,0.535 -0.288,1.276 -0.288,2.306 0,1.029 0.103,1.79 0.288,2.325 0.309,0.865 0.886,1.153 1.688,1.153 0.782,0 1.338,-0.288 1.647,-1.173 C -2.717,1.769 -2.614,1.029 -2.614,0" id="path3907" stroke="black" style="fill:#ffffff;fill-opacity:1;fill-rule:evenodd;"/>
				
      
			</g>
			
      
			<g id="g3909" transform="matrix(6.25,0,0,-6.25,359.98138,390.25004)">
				
        
				
				
      
			</g>
			
      
			<g id="g3913" transform="matrix(6.25,0,0,-6.25,455.932,390.25004)">
				
        
				
				
      
			</g>
			
      
			<g id="g3917" transform="matrix(6.25,0,0,-6.25,603.07081,297.63623)">
				
        
				
				
      
			</g>
			
      
			<g id="g3921" transform="matrix(6.25,0,0,-6.25,651.03262,356.80191)">
				
        
				
				
      
			</g>
			
      
			<g id="g3925" transform="matrix(6.25,0,0,-6.25,707.25763,335.06747)">
				
        
				
				
      
			</g>
			
      
			<g id="g3929" transform="matrix(6.25,0,0,-6.25,763.3345,335.06747)">
				
        
				
				
      
			</g>
			
      
			<g id="g3933" transform="matrix(6.25,0,0,-6.25,539.35269,359.13741)">
				
        
				
				
      
			</g>
			
    
		</g>
		
  
	</g>
	

</svg>