<?xml version="1.0" encoding="iso-8859-1"?><!-- Created with Inkscape (http://www.inkscape.org/) --><svg height="768" id="svg4024" version="1.1" width="830" xmlns="http://www.w3.org/2000/svg" xmlns:cc="http://creativecommons.org/ns#" xmlns:dc="http://purl.org/dc/elements/1.1/" xmlns:rdf="http://www.w3.org/1999/02/22-rdf-syntax-ns#" xmlns:svg="http://www.w3.org/2000/svg">
	
  
	<defs id="defs4026">
		
    
		<clipPath id="clipPath3887">
			
      
			
			
    
		</clipPath>
		
  
	</defs>
	
  
	<metadata id="metadata4029">
		
    
		<rdf:RDF>
			
      
			<cc:Work rdf:about="">
				
        
				<dc:format>image/svg+xml</dc:format>
				
        
				<dc:type rdf:resource="http://purl.org/dc/dcmitype/StillImage"/>
				
        
				<dc:title/>
				
      
			</cc:Work>
			
    
		</rdf:RDF>
		
  
	</metadata>
	
  
	<g id="layer1">
		
    
		<g id="g4681" transform="matrix(1.2221,0,0,1.2221,-138.8334,-61.288582)">
			
      
			<g id="g3891" style="fill:#004475;fill-opacity:1" transform="matrix(6.25,0,0,-6.25,199.20013,62.931225)">
				
        
				
				
      
			</g>
			
      
			
			
      
			<g id="g3899" transform="matrix(6.25,0,0,-6.25,214.27263,364.26623)">
				
        
				
				
      
			</g>
			
      
			
			
      
			<g id="g3905" transform="matrix(6.25,0,0,-6.25,297.98144,356.80191)">
				
        
				
				
      
			</g>
			
      
			<g id="g3909" transform="matrix(6.25,0,0,-6.25,359.98138,390.25004)">
				
        
				
				
      
			</g>
			
      
			<g id="g3913" transform="matrix(6.25,0,0,-6.25,455.932,390.25004)">
				
        
				
				
      
			</g>
			
      
			<g id="g3917" transform="matrix(6.25,0,0,-6.25,603.07081,297.63623)">
				
        
				
				
      
			</g>
			
      
			<g id="g3921" transform="matrix(6.25,0,0,-6.25,651.03262,356.80191)">
				
        
				
				
      
			</g>
			
      
			<g id="g3925" transform="matrix(6.25,0,0,-6.25,707.25763,335.06747)">
				
        
				<path animation_id="10" d="m 0,0 c -0.556,1.482 -1.977,2.202 -3.952,2.202 -2.1,0 -3.171,-0.843 -3.623,-1.708 -0.288,-0.535 -0.39,-1.173 -0.39,-1.688 0,-0.493 0.144,-1.276 0.575,-1.811 0.248,-0.309 0.638,-0.617 1.194,-0.885 0.329,-0.165 0.7,-0.309 1.112,-0.453 1.645,-0.535 2.532,-0.639 2.532,-1.585 0,-0.782 -0.742,-1.07 -1.688,-1.07 -1.071,0 -1.667,0.576 -2.079,1.235 L -8.48,-6.689 c 0.267,-0.7 0.823,-1.379 1.523,-1.79 0.721,-0.413 1.482,-0.68 2.84,-0.68 1.688,0 2.861,0.638 3.356,1.235 0.288,0.371 0.718,0.968 0.718,2.099 0,0.782 -0.184,1.38 -0.43,1.792 -0.331,0.534 -0.988,1.11 -2.573,1.543 -1.544,0.411 -2.49,0.76 -2.49,1.502 0,0.371 0.123,0.638 0.369,0.823 0.288,0.226 0.7,0.329 1.256,0.329 1.092,0 1.584,-0.535 1.832,-1.111 L 0,0 z" id="path3927" stroke="black" style="fill:#ffffff;fill-opacity:1;fill-rule:nonzero;"/>
				
      
			</g>
			
      
			<g id="g3929" transform="matrix(6.25,0,0,-6.25,763.3345,335.06747)">
				
        
				
				
      
			</g>
			
      
			<g id="g3933" transform="matrix(6.25,0,0,-6.25,539.35269,359.13741)">
				
        
				
				
      
			</g>
			
    
		</g>
		
  
	</g>
	

</svg>