<?xml version="1.0" encoding="iso-8859-1"?><!-- Created with Inkscape (http://www.inkscape.org/) --><svg height="238.85031" id="svg2649" version="1.0" width="708.66144" xmlns="http://www.w3.org/2000/svg" xmlns:svg="http://www.w3.org/2000/svg">
	
  
	<defs id="defs2651">
		
    
		<clipPath id="clp6">
			

			
			


		</clipPath>
		
    
		<clipPath id="clp5">
			

			
			


		</clipPath>
		
    
		<clipPath id="clp4">
			

			
			


		</clipPath>
		
  
	</defs>
	
  
	<g id="layer1" transform="translate(-191.28347,84.322414)">
		
    
		<g id="q2" transform="matrix(7.7310346,0,0,-7.7310346,-213.32409,6316.5297)">
			

			<clipPath id="clipPath2664">
				

				
				


			</clipPath>
			


			<g clip-path="url(#clp4)" id="g2528">
				

				<clipPath id="clipPath2669">
					

					
					


				</clipPath>
				


				<g clip-path="url(#clp5)" id="g2533">
					

					<clipPath id="clipPath2674">
						

						
						


					</clipPath>
					


					<g clip-path="url(#clp6)" id="g2538">
						

						
						


						
						


						
						


						
						


						
						


						<path animation_id="11" d="M 144,806.26 C 144,805.69 144,805.52 143.69,805.34 C 142.9,804.86 141.48,804.53 140.15,804.53 C 136.28,804.53 134.9,807.95 134.9,812.47 C 134.9,816.63 136.34,820.13 140.19,820.13 C 142.2,820.13 143.82,819.1 143.82,818.8 C 143.82,818.66 143.78,818.64 143.71,818.51 L 143.39,817.9 C 143.3,817.77 143.3,817.59 143.12,817.59 C 142.88,817.59 141.99,818.66 140.23,818.66 C 137.83,818.66 136.87,816.39 136.87,812.69 C 136.87,808.65 137.81,806 140.19,806 C 141.2,806 141.79,806.22 142.2,806.41 L 142.2,811.01 L 140.45,811.01 C 140.28,811.01 140.19,811.1 140.19,811.27 L 140.19,812.17 C 140.19,812.34 140.28,812.43 140.45,812.43 L 143.73,812.43 C 143.91,812.43 144,812.34 144,812.17 L 144,806.26" id="path2550" stroke="black" style="fill:#7f7f7f;fill-rule:nonzero;;stroke-width:0.105;stroke-linecap:butt;stroke-linejoin:miter;stroke-miterlimit:4;stroke-dasharray:none"/>
						


						
						


						
						


						
						


					</g>
					


				</g>
				


			</g>
			


		</g>
		
  
	</g>
	

</svg>