<?xml version="1.0" encoding="iso-8859-1"?><!-- Created with Inkscape (http://www.inkscape.org/) --><svg height="238.85031" id="svg2649" version="1.0" width="708.66144" xmlns="http://www.w3.org/2000/svg" xmlns:svg="http://www.w3.org/2000/svg">
	
  
	<defs id="defs2651">
		
    
		<clipPath id="clp6">
			

			
			


		</clipPath>
		
    
		<clipPath id="clp5">
			

			
			


		</clipPath>
		
    
		<clipPath id="clp4">
			

			
			


		</clipPath>
		
  
	</defs>
	
  
	<g id="layer1" transform="translate(-191.28347,84.322414)">
		
    
		<g id="q2" transform="matrix(7.7310346,0,0,-7.7310346,-213.32409,6316.5297)">
			

			<clipPath id="clipPath2664">
				

				
				


			</clipPath>
			


			<g clip-path="url(#clp4)" id="g2528">
				

				<clipPath id="clipPath2669">
					

					
					


				</clipPath>
				


				<g clip-path="url(#clp5)" id="g2533">
					

					<clipPath id="clipPath2674">
						

						
						


					</clipPath>
					


					<g clip-path="url(#clp6)" id="g2538">
						

						
						


						
						


						
						


						
						


						
						


						
						


						
						


						<path animation_id="13" d="M 84.934,812.79 C 84.937,812.69 84.942,812.6 84.942,812.5 C 84.942,806.87 80.379,802.31 74.752,802.31 C 69.124,802.31 64.562,806.87 64.562,812.5 C 64.562,818.12 69.124,822.69 74.752,822.69 C 77.517,822.69 80.023,821.58 81.859,819.79 C 82.04,819.81 82.219,819.82 82.395,819.82 C 83.652,819.82 85.914,819.82 88.299,819.82 C 85.695,824.63 80.605,827.89 74.752,827.89 C 66.249,827.89 59.355,821 59.355,812.5 C 59.355,803.99 66.249,797.1 74.752,797.1 C 83.255,797.1 90.148,803.99 90.148,812.5 C 90.148,812.6 90.146,812.69 90.144,812.79 C 88.319,812.79 86.445,812.79 84.934,812.79 z " id="path2554" stroke="black" style="fill:#ec1b24;fill-rule:nonzero;stroke:#ec1b24;stroke-width:0.105;stroke-linecap:butt;stroke-linejoin:miter;stroke-miterlimit:4;stroke-dasharray:none"/>
						


						
						


					</g>
					


				</g>
				


			</g>
			


		</g>
		
  
	</g>
	

</svg>