<?xml version="1.0" encoding="iso-8859-1"?><!-- Created with Inkscape (http://www.inkscape.org/) --><svg height="238.85031" id="svg2649" version="1.0" width="708.66144" xmlns="http://www.w3.org/2000/svg" xmlns:svg="http://www.w3.org/2000/svg">
	
  
	<defs id="defs2651">
		
    
		<clipPath id="clp6">
			

			
			


		</clipPath>
		
    
		<clipPath id="clp5">
			

			
			


		</clipPath>
		
    
		<clipPath id="clp4">
			

			
			


		</clipPath>
		
  
	</defs>
	
  
	<g id="layer1" transform="translate(-191.28347,84.322414)">
		
    
		<g id="q2" transform="matrix(7.7310346,0,0,-7.7310346,-213.32409,6316.5297)">
			

			<clipPath id="clipPath2664">
				

				
				


			</clipPath>
			


			<g clip-path="url(#clp4)" id="g2528">
				

				<clipPath id="clipPath2669">
					

					
					


				</clipPath>
				


				<g clip-path="url(#clp5)" id="g2533">
					

					<clipPath id="clipPath2674">
						

						
						


					</clipPath>
					


					<g clip-path="url(#clp6)" id="g2538">
						

						
						


						
						


						
						


						
						


						<path animation_id="10" d="M 133.59,805.34 C 133.63,805.19 133.67,805.08 133.7,804.97 C 133.7,804.86 133.61,804.84 133.39,804.84 L 132.03,804.84 C 131.77,804.84 131.68,804.93 131.64,805.08 L 130.41,809.3 L 125.93,809.3 L 124.82,805.08 C 124.77,804.93 124.68,804.84 124.42,804.84 L 123.07,804.84 C 122.85,804.84 122.76,804.86 122.76,804.97 C 122.78,805.08 122.8,805.19 122.87,805.34 L 127.24,819.58 C 127.31,819.8 127.33,819.82 127.57,819.82 L 128.86,819.82 C 129.04,819.82 129.1,819.82 129.19,819.58 L 133.59,805.34 z M 128.69,815.67 C 128.49,816.35 128.29,817.13 128.18,817.75 L 128.14,817.75 C 128.05,817.22 127.83,816.26 127.68,815.67 L 126.35,810.83 L 130,810.83 L 128.69,815.67" id="path2548" stroke="black" style="fill:#7f7f7f;fill-rule:nonzero;;stroke-width:0.105;stroke-linecap:butt;stroke-linejoin:miter;stroke-miterlimit:4;stroke-dasharray:none"/>
						


						
						


						
						


						
						


						
						


					</g>
					


				</g>
				


			</g>
			


		</g>
		
  
	</g>
	

</svg>