<?xml version="1.0" encoding="iso-8859-1"?><!-- Created with Inkscape (http://www.inkscape.org/) --><svg height="238.85031" id="svg2649" version="1.0" width="708.66144" xmlns="http://www.w3.org/2000/svg" xmlns:svg="http://www.w3.org/2000/svg">
	
  
	<defs id="defs2651">
		
    
		<clipPath id="clp6">
			

			
			


		</clipPath>
		
    
		<clipPath id="clp5">
			

			
			


		</clipPath>
		
    
		<clipPath id="clp4">
			

			
			


		</clipPath>
		
  
	</defs>
	
  
	<g id="layer1" transform="translate(-191.28347,84.322414)">
		
    
		<g id="q2" transform="matrix(7.7310346,0,0,-7.7310346,-213.32409,6316.5297)">
			

			<clipPath id="clipPath2664">
				

				
				


			</clipPath>
			


			<g clip-path="url(#clp4)" id="g2528">
				

				<clipPath id="clipPath2669">
					

					
					


				</clipPath>
				


				<g clip-path="url(#clp5)" id="g2533">
					

					<clipPath id="clipPath2674">
						

						
						


					</clipPath>
					


					<g clip-path="url(#clp6)" id="g2538">
						

						
						


						
						


						
						


						<path animation_id="9" d="M 120.7,817.09 C 120.64,816.96 120.55,816.87 120.46,816.87 C 120.33,816.87 118.97,817.83 117.4,817.83 C 116.39,817.83 115.34,817.44 115.34,816.13 C 115.34,814.46 117.9,814.16 119.83,812.74 C 120.94,811.9 121.71,810.75 121.71,809.08 C 121.71,806.3 119.74,804.47 116.98,804.47 C 114.75,804.47 112.41,805.43 112.41,805.8 C 112.41,805.87 112.43,805.95 112.52,806.13 L 113.02,807.57 C 113.09,807.71 113.18,807.79 113.27,807.79 C 113.4,807.79 115.02,806.83 116.9,806.83 C 118.12,806.83 118.87,807.49 118.87,808.84 C 118.87,810.79 116.63,810.99 114.4,812.34 C 113.24,813.04 112.5,813.92 112.5,815.73 C 112.5,818.88 114.77,820.2 117.31,820.2 C 119.39,820.2 121.53,819.23 121.53,818.86 C 121.53,818.8 121.51,818.71 121.43,818.53 L 120.7,817.09" id="path2546" stroke="black" style="fill:#000000;fill-rule:nonzero;;stroke-width:0.105;stroke-linecap:butt;stroke-linejoin:miter;stroke-miterlimit:4;stroke-dasharray:none"/>
						


						
						


						
						


						
						


						
						


						
						


					</g>
					


				</g>
				


			</g>
			


		</g>
		
  
	</g>
	

</svg>