<?xml version="1.0" encoding="iso-8859-1"?><!-- Created with Inkscape (http://www.inkscape.org/) --><svg height="232.90953" id="svg2" version="1.1" width="900" xml:space="preserve" xmlns="http://www.w3.org/2000/svg" xmlns:cc="http://creativecommons.org/ns#" xmlns:dc="http://purl.org/dc/elements/1.1/" xmlns:rdf="http://www.w3.org/1999/02/22-rdf-syntax-ns#" xmlns:svg="http://www.w3.org/2000/svg">
	<metadata id="metadata8">
		<rdf:RDF>
			<cc:Work rdf:about="">
				<dc:format>image/svg+xml</dc:format>
				<dc:type rdf:resource="http://purl.org/dc/dcmitype/StillImage"/>
				<dc:title/>
			</cc:Work>
		</rdf:RDF>
	</metadata>
	<defs id="defs6">
		<clipPath id="clipPath16">
			
		</clipPath>
		<clipPath id="clipPath38">
			
		</clipPath>
		<clipPath id="clipPath110">
			
		</clipPath>
		<clipPath id="clipPath124">
			
		</clipPath>
		<clipPath id="clipPath140">
			
		</clipPath>
		<clipPath id="clipPath152">
			
		</clipPath>
	</defs>
	<g id="g10" transform="matrix(1.25,0,0,-1.25,-452.39427,1171.6892)">
		<g id="g3160" transform="matrix(3.6872656,0,0,3.6872656,-1026.3081,-2071.9455)">
			
			<g id="g3156">
				<path animation_id="7" d="m 417.9481,790.58659 c 4.441,1.536 7.616,5.077 7.616,10.333 0,1.319 -0.668,4.516 -3.086,6.578 -1.597,1.361 -3.905,2.968 -11.355,3.149 -1.538,0.038 -6.219,-0.13 -6.219,-0.13 l 0,-0.267 c 1.322,-1.012 2.744,-2.684 3.426,-4.616 0.713,0.025 1.789,0.081 2.85,0.025 2.993,-0.161 4.296,-0.719 5.645,-1.779 1.355,-1.064 2.081,-2.891 2.075,-4.549 -0.01,-2.262 -1.081,-4.602 -4.349,-5.934 -2.642,-1.077 -5.841,-1.314 -5.841,-1.314 l -0.002,-0.825 c 0,0 1.915,-0.915 3.829,-3.445 1.647,-2.178 11.211,-16.258 11.211,-16.258 l 7.903,0 c 0,0 -12.77,17.792 -13.703,19.032" id="path158" stroke="black" style="fill:#0089cc;fill-opacity:1;fill-rule:nonzero;"/>
				
			</g>
		</g>
	</g>
</svg>