<?xml version="1.0" encoding="iso-8859-1"?><!-- Created with Inkscape (http://www.inkscape.org/) --><svg height="232.90953" id="svg2" version="1.1" width="900" xml:space="preserve" xmlns="http://www.w3.org/2000/svg" xmlns:cc="http://creativecommons.org/ns#" xmlns:dc="http://purl.org/dc/elements/1.1/" xmlns:rdf="http://www.w3.org/1999/02/22-rdf-syntax-ns#" xmlns:svg="http://www.w3.org/2000/svg">
	<metadata id="metadata8">
		<rdf:RDF>
			<cc:Work rdf:about="">
				<dc:format>image/svg+xml</dc:format>
				<dc:type rdf:resource="http://purl.org/dc/dcmitype/StillImage"/>
				<dc:title/>
			</cc:Work>
		</rdf:RDF>
	</metadata>
	<defs id="defs6">
		<clipPath id="clipPath16">
			
		</clipPath>
		<clipPath id="clipPath38">
			
		</clipPath>
		<clipPath id="clipPath110">
			
		</clipPath>
		<clipPath id="clipPath124">
			
		</clipPath>
		<clipPath id="clipPath140">
			
		</clipPath>
		<clipPath id="clipPath152">
			
		</clipPath>
	</defs>
	<g id="g10" transform="matrix(1.25,0,0,-1.25,-452.39427,1171.6892)">
		<g id="g3160" transform="matrix(3.6872656,0,0,3.6872656,-1026.3081,-2071.9455)">
			
			<g id="g3156">
				
				<path animation_id="8" d="m 392.6684,776.9863 -4.422,0 0,28.705 c 0.058,0 1.983,0.026 3.182,0.026 4.939,0 7.679,-2.556 7.758,-6.063 0.047,-2.128 -0.584,-4.172 -2.754,-5.674 -1.772,-1.227 -4.244,-1.594 -4.244,-1.594 l 0,-0.923 c 0,0 3.423,-0.512 5.161,-1.324 3.236,-1.511 4.199,-3.858 4.222,-6.895 0.036,-4.798 -4.6,-6.258 -8.903,-6.258 m 7.907,15.583 c 3.037,1.795 4.985,4.435 4.985,8.37 0,4.208 -2.496,9.769 -12.956,9.769 -5.064,0 -10.689,-0.189 -10.689,-0.189 l 0,-38.965 8.924,0 c 11.354,0 17.355,4.185 17.355,12.101 0,4.715 -2.957,7.832 -7.619,8.914" id="path162" stroke="black" style="fill:#0089cc;fill-opacity:1;fill-rule:nonzero;"/>
			</g>
		</g>
	</g>
</svg>