<?xml version="1.0" encoding="iso-8859-1"?><!-- Created with Inkscape (http://www.inkscape.org/) --><svg height="232.90953" id="svg2" version="1.1" width="900" xml:space="preserve" xmlns="http://www.w3.org/2000/svg" xmlns:cc="http://creativecommons.org/ns#" xmlns:dc="http://purl.org/dc/elements/1.1/" xmlns:rdf="http://www.w3.org/1999/02/22-rdf-syntax-ns#" xmlns:svg="http://www.w3.org/2000/svg">
	<metadata id="metadata8">
		<rdf:RDF>
			<cc:Work rdf:about="">
				<dc:format>image/svg+xml</dc:format>
				<dc:type rdf:resource="http://purl.org/dc/dcmitype/StillImage"/>
				<dc:title/>
			</cc:Work>
		</rdf:RDF>
	</metadata>
	<defs id="defs6">
		<clipPath id="clipPath16">
			
		</clipPath>
		<clipPath id="clipPath38">
			
		</clipPath>
		<clipPath id="clipPath110">
			
		</clipPath>
		<clipPath id="clipPath124">
			
		</clipPath>
		<clipPath id="clipPath140">
			
		</clipPath>
		<clipPath id="clipPath152">
			
		</clipPath>
	</defs>
	<g id="g10" transform="matrix(1.25,0,0,-1.25,-452.39427,1171.6892)">
		<g id="g3160" transform="matrix(3.6872656,0,0,3.6872656,-1026.3081,-2071.9455)">
			<path animation_id="6" d="m 560.7269,782.49271 c 0,-3.619 -2.497,-7.187 -6.219,-7.187 -2.14,0 -3.466,1.478 -3.466,3.415 0,2.396 2.09,4.486 9.685,4.486 l 0,-0.714 z m 5.607,-10.959 c -0.102,2.141 -0.153,4.74 -0.153,6.932 l 0,10.501 c 0,5.046 -2.141,8.41 -9.838,8.41 -3.262,0 -6.677,-0.714 -9.226,-1.682 l 1.071,-4.384 c 2.039,1.071 4.893,1.835 7.238,1.835 3.976,0 5.301,-1.682 5.301,-4.791 l 0,-1.478 c -9.277,0 -14.935,-3.11 -14.935,-8.819 0,-4.128 2.753,-7.034 7.085,-7.034 4.027,0 7.187,2.243 8.411,5.25 l 0.051,-0.051 c -0.204,-1.376 -0.255,-3.058 -0.255,-4.689 l 5.25,0 z m -25.639,25.333 -5.454,0 0,-25.333 5.454,0 0,25.333 z m 0.765,7.901 c 0,1.886 -1.58,3.415 -3.466,3.415 -1.937,0 -3.517,-1.529 -3.517,-3.415 0,-1.937 1.58,-3.415 3.517,-3.415 1.886,0 3.466,1.529 3.466,3.415 m -18.452,-20.134 c 0,-4.333 -2.242,-9.124 -6.269,-9.124 -3.466,0 -5.046,2.854 -5.046,7.952 0,6.83 2.956,9.48 7.289,9.48 1.325,0 2.65,-0.153 4.026,-0.458 l 0,-7.85 z m 5.404,-13.1 0,37.21 -5.404,0 0,-11.673 c -1.376,0.102 -2.599,0.204 -3.822,0.204 -8.207,0 -13.253,-5.607 -13.253,-14.323 0,-7.34 3.109,-11.928 9.328,-11.928 3.925,0 6.881,2.141 8.257,5.25 l 0.102,0 c -0.254,-1.427 -0.357,-3.415 -0.357,-4.74 l 5.149,0 z m -32.52,16.005 -10.755,0 c 0.458,3.568 2.599,5.811 5.658,5.811 3.211,0 5.199,-2.192 5.097,-5.811 m 5.454,-1.121 c 0,6.015 -3.109,10.959 -10.347,10.959 -7.391,0 -11.571,-5.709 -11.571,-13.355 0,-8.92 4.332,-12.998 12.131,-12.998 3.16,0 6.321,0.561 8.971,1.631 l -0.713,4.282 c -2.294,-1.02 -4.843,-1.529 -7.289,-1.529 -5.047,0 -7.646,2.6 -7.493,8.359 l 16.158,0 c 0.102,1.071 0.153,1.937 0.153,2.651 m -27.066,-14.884 0,17.483 c 0,5.709 -2.701,8.36 -7.544,8.36 -4.587,0 -7.391,-3.058 -8.461,-5.454 -0.408,2.243 -2.039,5.454 -7.034,5.454 -3.925,0 -7.086,-2.192 -8.564,-5.556 l -0.102,0.051 c 0.255,1.529 0.357,3.619 0.357,4.995 l -5.199,0 0,-25.333 5.454,0 0,12.08 c 0,5.353 3.007,9.226 6.473,9.226 3.059,0 3.671,-2.242 3.671,-5.148 l 0,-16.158 5.352,0 0,12.08 c 0,5.607 3.262,9.226 6.524,9.226 2.905,0 3.67,-2.038 3.67,-5.148 l 0,-16.158 5.403,0 z" id="path146" stroke="black" style="fill:#024682;fill-opacity:1;fill-rule:nonzero;"/>
			<g id="g3156">
				
				
			</g>
		</g>
	</g>
</svg>