<?xml version="1.0" encoding="iso-8859-1"?><!-- Generator: Adobe Illustrator 15.1.0, SVG Export Plug-In . SVG Version: 6.00 Build 0)  --><!DOCTYPE svg  PUBLIC '-//W3C//DTD SVG 1.1//EN'  'http://www.w3.org/Graphics/SVG/1.1/DTD/svg11.dtd'><svg enable-background="new 9.167 110.167 316 106" height="106px" id="Ebene_1" version="1.1" viewBox="9.167 110.167 316 106" width="316px" x="0px" xml:space="preserve" xmlns="http://www.w3.org/2000/svg" xmlns:xlink="http://www.w3.org/1999/xlink" y="0px">
	

	<g>
		
	
		<g>
			
		
			<defs>
				
			
				
				
		
			</defs>
			
		
			<clipPath id="SVGID_2_">
				
			
				<use overflow="visible" xlink:href="#SVGID_1_"/>
				
		
			</clipPath>
			
		
			
			
	
		</g>
		
	
		<g>
			
		
			<defs>
				
			
				
				
		
			</defs>
			
		
			<clipPath id="SVGID_4_">
				
			
				<use overflow="visible" xlink:href="#SVGID_3_"/>
				
		
			</clipPath>
			
		
			
			
	
		</g>
		
	
		<g>
			
		
			<defs>
				
			
				
				
		
			</defs>
			
		
			<clipPath id="SVGID_6_">
				
			
				<use overflow="visible" xlink:href="#SVGID_5_"/>
				
		
			</clipPath>
			
		
			
			
	
		</g>
		
	
		<g>
			
		
			<defs>
				
			
				
				
		
			</defs>
			
		
			<clipPath id="SVGID_8_">
				
			
				<use overflow="visible" xlink:href="#SVGID_7_"/>
				
		
			</clipPath>
			
		
			
			
	
		</g>
		
	
		<g>
			
		
			<defs>
				
			
				
				
		
			</defs>
			
		
			<clipPath id="SVGID_10_">
				
			
				<use overflow="visible" xlink:href="#SVGID_9_"/>
				
		
			</clipPath>
			
		
			
			
	
		</g>
		
	
		<g>
			
		
			<defs>
				
			
				
				
		
			</defs>
			
		
			<clipPath id="SVGID_12_">
				
			
				<use overflow="visible" xlink:href="#SVGID_11_"/>
				
		
			</clipPath>
			
		
			<path animation_id="5" clip-path="url(#SVGID_12_)" d="M276.706,149.401h-22.771c-0.63,0-1.197,0.264-1.701,0.793    c-0.44,0.477-0.662,0.874-0.662,1.189v1.113c0,0.634,0.38,1.11,1.136,1.428c0.756,0.318,1.573,0.479,2.457,0.479h10.582    c2.959,0,5.571,1.084,7.84,3.255c2.016,1.958,3.022,3.969,3.022,6.033l-0.094,7.701c0,2.858-1.104,5.135-3.308,6.827    c-2.203,1.693-5.037,2.541-8.504,2.541h-25.793v-10.639h21.824c1.387,0,2.27-0.106,2.646-0.316    c0.313-0.159,0.473-0.479,0.473-0.954v-0.873v-0.794c0-0.424-0.221-0.873-0.662-1.35c-0.377-0.529-0.882-0.795-1.511-0.795    h-10.771c-2.834,0-5.511-0.926-8.029-2.777c-2.457-1.905-3.687-3.971-3.687-6.192v-7.86c0-2.54,1.104-4.737,3.308-6.59    c2.269-1.906,5.229-2.857,8.881-2.857h25.227L276.706,149.401z" fill="#0069B4" stroke="black"/>
			
	
		</g>
		

	</g>
	

	<g>
		
	
		<g>
			
		
			
			
	
		</g>
		
	
		<g>
			
		
			
			
	
		</g>
		
	
		<g>
			
		
			
			
	
		</g>
		
	
		<g>
			
		
			
			
	
		</g>
		
	
		<g>
			
		
			
			
	
		</g>
		
	
		<g>
			
		
			
			
	
		</g>
		
	
		<g>
			
		
			
			
	
		</g>
		
	
		<g>
			
		
			
			
	
		</g>
		
	
		<g>
			
		
			
			
	
		</g>
		
	
		<g>
			
		
			
			
	
		</g>
		
	
		<g>
			
		
			
			
	
		</g>
		
	
		<g>
			
		
			
			
	
		</g>
		
	
		<g>
			
		
			
			
	
		</g>
		
	
		<g>
			
		
			
			
	
		</g>
		
	
		<g>
			
		
			
			
	
		</g>
		
	
		<g>
			
		
			
			
	
		</g>
		
	
		<g>
			
		
			
			
	
		</g>
		
	
		<g>
			
		
			
			
	
		</g>
		
	
		<g>
			
		
			
			
	
		</g>
		
	
		<g>
			
		
			
			
	
		</g>
		
	
		<g>
			
		
			
			
	
		</g>
		

	</g>
	

</svg>