<?xml version="1.0" encoding="iso-8859-1"?><!-- Generator: Adobe Illustrator 15.1.0, SVG Export Plug-In . SVG Version: 6.00 Build 0)  --><!DOCTYPE svg  PUBLIC '-//W3C//DTD SVG 1.1//EN'  'http://www.w3.org/Graphics/SVG/1.1/DTD/svg11.dtd'><svg enable-background="new 9.167 110.167 316 106" height="106px" id="Ebene_1" version="1.1" viewBox="9.167 110.167 316 106" width="316px" x="0px" xml:space="preserve" xmlns="http://www.w3.org/2000/svg" xmlns:xlink="http://www.w3.org/1999/xlink" y="0px">
	

	<g>
		
	
		<g>
			
		
			<defs>
				
			
				
				
		
			</defs>
			
		
			<clipPath id="SVGID_2_">
				
			
				<use overflow="visible" xlink:href="#SVGID_1_"/>
				
		
			</clipPath>
			
		
			
			
	
		</g>
		
	
		<g>
			
		
			<defs>
				
			
				
				
		
			</defs>
			
		
			<clipPath id="SVGID_4_">
				
			
				<use overflow="visible" xlink:href="#SVGID_3_"/>
				
		
			</clipPath>
			
		
			
			
	
		</g>
		
	
		<g>
			
		
			<defs>
				
			
				
				
		
			</defs>
			
		
			<clipPath id="SVGID_6_">
				
			
				<use overflow="visible" xlink:href="#SVGID_5_"/>
				
		
			</clipPath>
			
		
			
			
	
		</g>
		
	
		<g>
			
		
			<defs>
				
			
				
				
		
			</defs>
			
		
			<clipPath id="SVGID_8_">
				
			
				<use overflow="visible" xlink:href="#SVGID_7_"/>
				
		
			</clipPath>
			
		
			
			
	
		</g>
		
	
		<g>
			
		
			<defs>
				
			
				
				
		
			</defs>
			
		
			<clipPath id="SVGID_10_">
				
			
				<use overflow="visible" xlink:href="#SVGID_9_"/>
				
		
			</clipPath>
			
		
			
			
	
		</g>
		
	
		<g>
			
		
			<defs>
				
			
				
				
		
			</defs>
			
		
			<clipPath id="SVGID_12_">
				
			
				<use overflow="visible" xlink:href="#SVGID_11_"/>
				
		
			</clipPath>
			
		
			
			
	
		</g>
		

	</g>
	

	<g>
		
	
		<g>
			
		
			
			
	
		</g>
		
	
		<g>
			
		
			
			
	
		</g>
		
	
		<g>
			
		
			
			
	
		</g>
		
	
		<g>
			
		
			
			
	
		</g>
		
	
		<g>
			
		
			
			
	
		</g>
		
	
		<g>
			
		
			
			
	
		</g>
		
	
		<g>
			
		
			
			
	
		</g>
		
	
		<g>
			
		
			
			
	
		</g>
		
	
		<g>
			
		
			
			
	
		</g>
		
	
		<g>
			
		
			
			
	
		</g>
		
	
		<g>
			
		
			
			
	
		</g>
		
	
		<g>
			
		
			
			
	
		</g>
		
	
		<g>
			
		
			
			
	
		</g>
		
	
		<g>
			
		
			
			
	
		</g>
		
	
		<g>
			
		
			
			
	
		</g>
		
	
		<g>
			
		
			
			
	
		</g>
		
	
		<g>
			
		
			
			
	
		</g>
		
	
		<g>
			
		
			<path animation_id="23" d="M75.294,203.038c0.032,0.512,0.207,0.95,0.526,1.317c0.319,0.367,0.838,0.551,1.557,0.551    c0.702,0,1.408-0.072,2.119-0.216c0.71-0.145,1.433-0.375,2.167-0.694v3.112c-0.319,0.16-0.67,0.292-1.054,0.396    c-0.383,0.104-0.766,0.184-1.149,0.239s-0.754,0.096-1.113,0.12c-0.359,0.023-0.683,0.035-0.97,0.035    c-1.022,0-1.88-0.155-2.574-0.467c-0.694-0.312-1.249-0.746-1.664-1.306c-0.415-0.559-0.714-1.229-0.897-2.011    c-0.184-0.782-0.275-1.645-0.275-2.586c0-0.942,0.091-1.804,0.275-2.586c0.183-0.782,0.482-1.452,0.897-2.012    s0.97-0.993,1.664-1.306c0.694-0.312,1.552-0.467,2.574-0.467c1.085,0,1.947,0.176,2.585,0.526c0.639,0.352,1.129,0.817,1.473,1.4    c0.343,0.582,0.566,1.258,0.67,2.022c0.104,0.767,0.156,1.572,0.156,2.419v1.508h-6.967V203.038z M75.868,198.729    c-0.303,0.383-0.502,0.861-0.598,1.437h3.735c-0.016-0.271-0.048-0.525-0.096-0.766c-0.048-0.24-0.132-0.451-0.251-0.635    c-0.119-0.185-0.284-0.331-0.491-0.443c-0.208-0.111-0.471-0.167-0.79-0.167C76.674,198.154,76.171,198.346,75.868,198.729z" fill="#0069B4" stroke="black"/>
			
	
		</g>
		
	
		<g>
			
		
			
			
	
		</g>
		
	
		<g>
			
		
			
			
	
		</g>
		
	
		<g>
			
		
			
			
	
		</g>
		

	</g>
	

</svg>