<?xml version="1.0" encoding="iso-8859-1"?><!-- Generator: Adobe Illustrator 15.1.0, SVG Export Plug-In . SVG Version: 6.00 Build 0)  --><!DOCTYPE svg  PUBLIC '-//W3C//DTD SVG 1.1//EN'  'http://www.w3.org/Graphics/SVG/1.1/DTD/svg11.dtd'><svg enable-background="new 9.167 110.167 316 106" height="106px" id="Ebene_1" version="1.1" viewBox="9.167 110.167 316 106" width="316px" x="0px" xml:space="preserve" xmlns="http://www.w3.org/2000/svg" xmlns:xlink="http://www.w3.org/1999/xlink" y="0px">
	

	<g>
		
	
		<g>
			
		
			<defs>
				
			
				
				
		
			</defs>
			
		
			<clipPath id="SVGID_2_">
				
			
				<use overflow="visible" xlink:href="#SVGID_1_"/>
				
		
			</clipPath>
			
		
			
			
	
		</g>
		
	
		<g>
			
		
			<defs>
				
			
				
				
		
			</defs>
			
		
			<clipPath id="SVGID_4_">
				
			
				<use overflow="visible" xlink:href="#SVGID_3_"/>
				
		
			</clipPath>
			
		
			
			
	
		</g>
		
	
		<g>
			
		
			<defs>
				
			
				
				
		
			</defs>
			
		
			<clipPath id="SVGID_6_">
				
			
				<use overflow="visible" xlink:href="#SVGID_5_"/>
				
		
			</clipPath>
			
		
			
			
	
		</g>
		
	
		<g>
			
		
			<defs>
				
			
				
				
		
			</defs>
			
		
			<clipPath id="SVGID_8_">
				
			
				<use overflow="visible" xlink:href="#SVGID_7_"/>
				
		
			</clipPath>
			
		
			
			
	
		</g>
		
	
		<g>
			
		
			<defs>
				
			
				
				
		
			</defs>
			
		
			<clipPath id="SVGID_10_">
				
			
				<use overflow="visible" xlink:href="#SVGID_9_"/>
				
		
			</clipPath>
			
		
			
			
	
		</g>
		
	
		<g>
			
		
			<defs>
				
			
				
				
		
			</defs>
			
		
			<clipPath id="SVGID_12_">
				
			
				<use overflow="visible" xlink:href="#SVGID_11_"/>
				
		
			</clipPath>
			
		
			
			
	
		</g>
		

	</g>
	

	<g>
		
	
		<g>
			
		
			
			
	
		</g>
		
	
		<g>
			
		
			
			
	
		</g>
		
	
		<g>
			
		
			
			
	
		</g>
		
	
		<g>
			
		
			<path animation_id="9" d="M269.566,199.399c0-0.415-0.123-0.728-0.371-0.936c-0.248-0.207-0.657-0.311-1.231-0.311    c-0.607,0-1.297,0.071-2.071,0.215c-0.774,0.145-1.489,0.328-2.144,0.551v-3.041c0.703-0.303,1.44-0.498,2.215-0.586    c0.773-0.088,1.439-0.132,2-0.132c0.94,0,1.719,0.104,2.334,0.312c0.613,0.207,1.102,0.503,1.461,0.886s0.609,0.846,0.754,1.389    c0.144,0.543,0.215,1.143,0.215,1.796v7.974H270.5l-0.191-0.359c-0.432,0.224-0.91,0.403-1.438,0.539    c-0.526,0.136-1.004,0.203-1.437,0.203c-0.861,0-1.58-0.119-2.154-0.358c-0.575-0.239-1.038-0.555-1.389-0.945    c-0.353-0.392-0.604-0.847-0.754-1.364c-0.152-0.52-0.229-1.059-0.229-1.616c0-0.527,0.08-1.021,0.24-1.484    c0.158-0.463,0.414-0.878,0.766-1.244c0.353-0.367,0.818-0.672,1.4-0.91c0.583-0.239,1.289-0.383,2.119-0.432L269.566,199.399z     M267.508,202.32c-0.559,0.048-0.934,0.199-1.125,0.455c-0.191,0.255-0.288,0.534-0.288,0.838c0,0.144,0.017,0.291,0.048,0.442    s0.096,0.292,0.191,0.419c0.096,0.128,0.235,0.23,0.42,0.312c0.183,0.08,0.426,0.12,0.729,0.12c0.335,0,0.706-0.064,1.114-0.192    c0.405-0.127,0.729-0.255,0.969-0.383v-2.179L267.508,202.32z" fill="#0069B4" stroke="black"/>
			
	
		</g>
		
	
		<g>
			
		
			
			
	
		</g>
		
	
		<g>
			
		
			
			
	
		</g>
		
	
		<g>
			
		
			
			
	
		</g>
		
	
		<g>
			
		
			
			
	
		</g>
		
	
		<g>
			
		
			
			
	
		</g>
		
	
		<g>
			
		
			
			
	
		</g>
		
	
		<g>
			
		
			
			
	
		</g>
		
	
		<g>
			
		
			
			
	
		</g>
		
	
		<g>
			
		
			
			
	
		</g>
		
	
		<g>
			
		
			
			
	
		</g>
		
	
		<g>
			
		
			
			
	
		</g>
		
	
		<g>
			
		
			
			
	
		</g>
		
	
		<g>
			
		
			
			
	
		</g>
		
	
		<g>
			
		
			
			
	
		</g>
		
	
		<g>
			
		
			
			
	
		</g>
		
	
		<g>
			
		
			
			
	
		</g>
		
	
		<g>
			
		
			
			
	
		</g>
		

	</g>
	

</svg>