<?xml version="1.0" encoding="iso-8859-1"?><!-- Generator: Adobe Illustrator 15.1.0, SVG Export Plug-In . SVG Version: 6.00 Build 0)  --><!DOCTYPE svg  PUBLIC '-//W3C//DTD SVG 1.1//EN'  'http://www.w3.org/Graphics/SVG/1.1/DTD/svg11.dtd'><svg enable-background="new 9.167 110.167 316 106" height="106px" id="Ebene_1" version="1.1" viewBox="9.167 110.167 316 106" width="316px" x="0px" xml:space="preserve" xmlns="http://www.w3.org/2000/svg" xmlns:xlink="http://www.w3.org/1999/xlink" y="0px">
	

	<g>
		
	
		<g>
			
		
			<defs>
				
			
				
				
		
			</defs>
			
		
			<clipPath id="SVGID_2_">
				
			
				<use overflow="visible" xlink:href="#SVGID_1_"/>
				
		
			</clipPath>
			
		
			
			
	
		</g>
		
	
		<g>
			
		
			<defs>
				
			
				
				
		
			</defs>
			
		
			<clipPath id="SVGID_4_">
				
			
				<use overflow="visible" xlink:href="#SVGID_3_"/>
				
		
			</clipPath>
			
		
			
			
	
		</g>
		
	
		<g>
			
		
			<defs>
				
			
				
				
		
			</defs>
			
		
			<clipPath id="SVGID_6_">
				
			
				<use overflow="visible" xlink:href="#SVGID_5_"/>
				
		
			</clipPath>
			
		
			
			
	
		</g>
		
	
		<g>
			
		
			<defs>
				
			
				
				
		
			</defs>
			
		
			<clipPath id="SVGID_8_">
				
			
				<use overflow="visible" xlink:href="#SVGID_7_"/>
				
		
			</clipPath>
			
		
			
			
	
		</g>
		
	
		<g>
			
		
			<defs>
				
			
				
				
		
			</defs>
			
		
			<clipPath id="SVGID_10_">
				
			
				<use overflow="visible" xlink:href="#SVGID_9_"/>
				
		
			</clipPath>
			
		
			
			
	
		</g>
		
	
		<g>
			
		
			<defs>
				
			
				
				
		
			</defs>
			
		
			<clipPath id="SVGID_12_">
				
			
				<use overflow="visible" xlink:href="#SVGID_11_"/>
				
		
			</clipPath>
			
		
			
			
	
		</g>
		

	</g>
	

	<g>
		
	
		<g>
			
		
			
			
	
		</g>
		
	
		<g>
			
		
			<path animation_id="7" d="M291.165,203.038c0.03,0.512,0.207,0.95,0.524,1.317c0.319,0.367,0.839,0.551,1.558,0.551    c0.703,0,1.407-0.072,2.118-0.216c0.71-0.145,1.433-0.375,2.167-0.694v3.112c-0.318,0.16-0.671,0.292-1.054,0.396    c-0.383,0.104-0.767,0.184-1.147,0.239c-0.385,0.056-0.756,0.096-1.113,0.12c-0.359,0.023-0.684,0.035-0.971,0.035    c-1.021,0-1.879-0.155-2.574-0.467c-0.693-0.312-1.248-0.746-1.664-1.306c-0.414-0.559-0.715-1.229-0.896-2.011    c-0.186-0.782-0.275-1.645-0.275-2.586c0-0.942,0.092-1.804,0.275-2.586s0.482-1.452,0.896-2.012    c0.416-0.56,0.971-0.993,1.664-1.306c0.695-0.312,1.553-0.467,2.574-0.467c1.086,0,1.946,0.176,2.586,0.526    c0.639,0.352,1.129,0.817,1.473,1.4c0.344,0.582,0.566,1.258,0.67,2.022c0.104,0.767,0.156,1.572,0.156,2.419v1.508h-6.967    V203.038z M291.738,198.729c-0.304,0.383-0.503,0.861-0.599,1.437h3.734c-0.017-0.271-0.049-0.525-0.096-0.766    c-0.049-0.24-0.133-0.451-0.252-0.635c-0.119-0.185-0.283-0.331-0.49-0.443c-0.207-0.111-0.472-0.167-0.791-0.167    C292.543,198.154,292.042,198.346,291.738,198.729z" fill="#0069B4" stroke="black"/>
			
	
		</g>
		
	
		<g>
			
		
			
			
	
		</g>
		
	
		<g>
			
		
			
			
	
		</g>
		
	
		<g>
			
		
			
			
	
		</g>
		
	
		<g>
			
		
			
			
	
		</g>
		
	
		<g>
			
		
			
			
	
		</g>
		
	
		<g>
			
		
			
			
	
		</g>
		
	
		<g>
			
		
			
			
	
		</g>
		
	
		<g>
			
		
			
			
	
		</g>
		
	
		<g>
			
		
			
			
	
		</g>
		
	
		<g>
			
		
			
			
	
		</g>
		
	
		<g>
			
		
			
			
	
		</g>
		
	
		<g>
			
		
			
			
	
		</g>
		
	
		<g>
			
		
			
			
	
		</g>
		
	
		<g>
			
		
			
			
	
		</g>
		
	
		<g>
			
		
			
			
	
		</g>
		
	
		<g>
			
		
			
			
	
		</g>
		
	
		<g>
			
		
			
			
	
		</g>
		
	
		<g>
			
		
			
			
	
		</g>
		
	
		<g>
			
		
			
			
	
		</g>
		

	</g>
	

</svg>