<?xml version="1.0" encoding="iso-8859-1"?><!-- Created with Inkscape (http://www.inkscape.org/) --><svg height="40.927921" id="svg2676" version="1.0" width="157.0528" xmlns="http://www.w3.org/2000/svg" xmlns:svg="http://www.w3.org/2000/svg">
	
  
	<defs id="defs2678"/>
	
  
	<g id="layer1" transform="translate(-270.28885,-516.8347)">
		
    
		
		
    
		
		
    
		
		
    
		
		
    
		
		
    
		
		
    
		
		
    
		
		
    
		<path animation_id="8" d="M 352.46966,534.91396 C 352.73091,533.24146 354.07591,531.91896 356.17341,531.91896 C 358.22966,531.91896 359.61216,533.24146 359.83716,534.91396 L 352.46966,534.91396 M 356.27716,528.84396 C 350.43466,528.84396 346.23091,531.60146 346.23091,536.90771 C 346.23091,541.90521 350.93341,544.48021 356.20716,544.48021 C 360.19716,544.48021 363.91841,542.97896 365.45091,539.71146 L 359.85216,539.71146 C 359.12341,540.97146 357.72716,541.29021 356.27716,541.29021 C 353.99841,541.29021 352.58466,540.08271 352.37091,537.90771 L 366.03841,537.90771 C 366.60966,533.82646 363.82966,528.84396 356.27716,528.84396" id="path143" stroke="black" style="fill:#ffffff;fill-opacity:1;fill-rule:nonzero;"/>
		
    
		
		
  
	</g>
	

</svg>