<?xml version="1.0" encoding="iso-8859-1"?><!-- Created with Inkscape (http://www.inkscape.org/) --><svg height="40.927921" id="svg2676" version="1.0" width="157.0528" xmlns="http://www.w3.org/2000/svg" xmlns:svg="http://www.w3.org/2000/svg">
	
  
	<defs id="defs2678"/>
	
  
	<g id="layer1" transform="translate(-270.28885,-516.8347)">
		
    
		
		
    
		
		
    
		<path animation_id="2" d="M 402.51091,539.16646 C 403.49716,543.21771 407.47716,544.44146 412.58091,544.44146 C 416.57466,544.44146 420.81591,542.97896 420.81591,539.06396 C 420.81591,533.14146 408.66716,535.39021 408.66716,532.94146 C 408.66716,531.98771 410.51591,531.73896 411.42716,531.73896 C 412.19966,531.77021 413.46591,531.98771 413.83966,532.25896 C 414.22591,532.58146 414.69216,532.87021 414.75841,533.48396 L 420.14216,533.48396 C 419.18216,530.42396 415.74466,528.75396 411.66341,528.75396 C 406.72841,528.75396 402.84841,530.31646 402.84841,533.99396 C 402.84841,539.59896 414.96216,537.43021 414.96216,540.05146 C 414.96216,541.16146 413.03841,541.43021 411.83216,541.37896 C 411.01466,541.34396 409.96091,541.20771 409.17841,540.66646 C 408.70341,540.42771 408.22841,539.75271 408.12466,539.16646 L 402.51091,539.16646" id="path121" stroke="black" style="fill:#ffffff;fill-opacity:1;fill-rule:nonzero;"/>
		
    
		
		
    
		
		
    
		
		
    
		
		
    
		
		
    
		
		
    
		
		
  
	</g>
	

</svg>