<?xml version="1.0" encoding="iso-8859-1"?><!-- Created with Inkscape (http://www.inkscape.org/) --><svg height="40.927921" id="svg2676" version="1.0" width="157.0528" xmlns="http://www.w3.org/2000/svg" xmlns:svg="http://www.w3.org/2000/svg">
	
  
	<defs id="defs2678"/>
	
  
	<g id="layer1" transform="translate(-270.28885,-516.8347)">
		
    
		
		
    
		
		
    
		
		
    
		
		
    
		
		
    
		
		
    
		
		
    
		<path animation_id="7" d="M 333.74841,540.78396 C 331.35841,540.78396 329.42091,538.91146 329.42091,536.60146 C 329.42091,534.29021 331.35841,532.41771 333.74841,532.41771 C 336.13841,532.41771 338.07466,534.29021 338.07466,536.60146 C 338.07466,538.91146 336.13841,540.78396 333.74841,540.78396 M 337.79841,523.94396 L 337.79841,530.54771 C 336.36466,529.23146 334.14341,528.86146 332.16091,528.86146 C 326.18341,528.95646 323.35341,533.46146 323.35341,536.86396 C 323.35341,541.62021 328.51591,544.40646 332.24216,544.40646 C 334.69966,544.40646 336.87841,543.67271 337.90341,542.17021 L 337.96966,542.17021 L 337.96966,543.88521 L 343.54341,543.88521 L 343.54341,523.94396 L 337.79841,523.94396" id="path139" stroke="black" style="fill:#ffffff;fill-opacity:1;fill-rule:nonzero;"/>
		
    
		
		
    
		
		
  
	</g>
	

</svg>