<?xml version="1.0" encoding="iso-8859-1"?><!-- Created with Inkscape (http://www.inkscape.org/) --><svg height="40.927921" id="svg2676" version="1.0" width="157.0528" xmlns="http://www.w3.org/2000/svg" xmlns:svg="http://www.w3.org/2000/svg">
	
  
	<defs id="defs2678"/>
	
  
	<g id="layer1" transform="translate(-270.28885,-516.8347)">
		
    
		
		
    
		
		
    
		
		
    
		
		
    
		
		
    
		
		
    
		
		
    
		
		
    
		
		
    
		<path animation_id="9" d="M 288.91841,540.11646 L 284.04341,540.11646 L 284.04341,535.41771 L 290.31716,535.41771 C 292.58091,535.41771 293.47716,536.20271 293.47716,537.90146 C 293.47716,539.43646 292.54716,540.11646 288.91841,540.11646 M 284.04341,527.72646 L 289.86466,527.72646 C 292.35716,527.72646 292.99216,528.46271 292.99216,529.59646 C 292.99216,530.84521 292.35716,531.85396 289.86466,531.85396 L 284.04341,531.85396 L 284.04341,527.72646 z M 295.32841,533.29646 C 295.27841,533.30396 295.23341,533.32021 295.18216,533.33021 L 295.20966,533.27396 C 295.25091,533.27896 295.28716,533.29146 295.32841,533.29646 C 297.92966,532.82521 299.58841,531.07646 299.40216,528.54271 C 299.26716,526.68771 298.41591,523.71521 290.69091,523.88146 L 278.07216,523.88146 L 278.07216,543.95021 L 292.29091,543.92396 C 297.87216,543.99146 300.25341,541.06646 300.26591,538.16271 C 300.27716,535.67771 298.36091,533.71021 295.32841,533.29646" id="path147" stroke="black" style="fill:#ffffff;fill-opacity:1;fill-rule:nonzero;"/>
		
  
	</g>
	

</svg>