<?xml version="1.0" encoding="iso-8859-1"?><!-- Generator: Adobe Illustrator 15.0.2, SVG Export Plug-In . SVG Version: 6.00 Build 0)  --><!DOCTYPE svg  PUBLIC '-//W3C//DTD SVG 1.1//EN'  'http://www.w3.org/Graphics/SVG/1.1/DTD/svg11.dtd'><svg enable-background="new 0 0 1015 375.4" height="375.4px" id="Ebene_1" version="1.1" viewBox="0 0 1015 375.4" width="1015px" x="0px" xml:space="preserve" xmlns="http://www.w3.org/2000/svg" xmlns:xlink="http://www.w3.org/1999/xlink" y="0px">
	

	<g>
		
	
		
		
	
		
		
	
		
		
	
		
		
	
		
		
	
		
		
	
		
		
	
		
		
	
		
		
	
		
		
	
		
		
	
		
		
	
		
		
	
		
		
	
		
		
	
		
		
	
		
		
	
		
		
	
		
		
	
		
		
	
		
		
	
		
		
	
		
		
	
		
		
	
		
		
	
		
		
	
		
		
	
		
		
	
		
		
	
		<path animation_id="17" d="M968.244,362.605c5.764,11.338,17.105,12.602,24.447,12.602c5.635,0,22.738-0.504,22.738-14.881   c0-9.816-8.801-11.719-13.996-12.662c-2.088-0.445-11.209-1.969-13.049-2.35c-3.355-0.758-5.953-1.518-5.953-4.43   c0-4.246,5.064-5.195,10.01-5.195c2.148,0,6.014,0.256,8.992,1.707c2.658,1.334,3.547,2.984,3.926,3.678l10.641-2.662   c-0.889-1.453-2.848-4.746-7.414-7.219c-4.615-2.533-9.621-3.482-16.145-3.482c-7.092,0-15.326,1.584-19.063,7.6   c-1.139,1.838-1.777,4.115-1.777,6.334c0,10.129,10.389,12.094,14.506,12.857c2.088,0.379,11.27,1.773,13.107,2.154   c2.408,0.438,5.506,1.203,5.506,4.43c0,5.445-8.543,5.889-11.27,5.889c-6.074,0-12.469-1.646-15.006-7.027L968.244,362.605   L968.244,362.605z" fill="#798890" stroke="black"/>
		

	</g>
	

</svg>