<?xml version="1.0" encoding="iso-8859-1"?><!-- Generator: Adobe Illustrator 15.0.2, SVG Export Plug-In . SVG Version: 6.00 Build 0)  --><!DOCTYPE svg  PUBLIC '-//W3C//DTD SVG 1.1//EN'  'http://www.w3.org/Graphics/SVG/1.1/DTD/svg11.dtd'><svg enable-background="new 0 0 1015 375.4" height="375.4px" id="Ebene_1" version="1.1" viewBox="0 0 1015 375.4" width="1015px" x="0px" xml:space="preserve" xmlns="http://www.w3.org/2000/svg" xmlns:xlink="http://www.w3.org/1999/xlink" y="0px">
	

	<g>
		
	
		
		
	
		
		
	
		
		
	
		
		
	
		
		
	
		
		
	
		
		
	
		
		
	
		
		
	
		
		
	
		
		
	
		
		
	
		
		
	
		
		
	
		
		
	
		
		
	
		
		
	
		
		
	
		
		
	
		
		
	
		
		
	
		
		
	
		
		
	
		
		
	
		
		
	
		
		
	
		
		
	
		
		
	
		<path animation_id="16" d="M902.664,373.814h10.57v-31.471c-0.129-1.713-0.189-2.094-0.379-3.992c0.51,1.834,0.629,2.344,1.328,4.053   l13.367,31.41h10.191l13.367-32.041c0.631-1.588,0.82-2.092,1.26-3.422c-0.25,1.709-0.439,2.848-0.439,4.176v31.287h10.58v-44.709   h-16.025l-11.65,27.863c-1.268,3.104-1.648,4.242-2.098,6.146c-0.629-2.535-1.068-3.738-2.277-6.654l-11.648-27.355h-16.146   V373.814L902.664,373.814z" fill="#798890" stroke="black"/>
		
	
		
		

	</g>
	

</svg>