<?xml version="1.0" encoding="iso-8859-1"?><!-- Generator: Adobe Illustrator 15.0.2, SVG Export Plug-In . SVG Version: 6.00 Build 0)  --><!DOCTYPE svg  PUBLIC '-//W3C//DTD SVG 1.1//EN'  'http://www.w3.org/Graphics/SVG/1.1/DTD/svg11.dtd'><svg enable-background="new 0 0 1015 375.4" height="375.4px" id="Ebene_1" version="1.1" viewBox="0 0 1015 375.4" width="1015px" x="0px" xml:space="preserve" xmlns="http://www.w3.org/2000/svg" xmlns:xlink="http://www.w3.org/1999/xlink" y="0px">
	

	<g>
		
	
		<path animation_id="0" d="M283.79,118.156h46.047v156.1H283.79v-14.971c-4.496,5.086-7.193,8.078-15.556,12.258   c-9.271,4.797-24.732,7.178-34.898,7.178s-28.999-1.488-39.769-16.438c-8.047-11.355-9.556-20.623-9.556-46.049v-98.078h46.337   v96.875c0,6.889,0,13.768,3.582,18.553c2.698,3.576,10.391,8.547,21.615,8.547c2.692,0,10.905-0.795,17.779-4.686   c9.871-5.975,10.156-13.748,10.465-22.105V118.156L283.79,118.156z" fill="#90B0D0" stroke="black"/>
		
	
		
		
	
		
		
	
		
		
	
		
		
	
		
		
	
		
		
	
		
		
	
		
		
	
		
		
	
		
		
	
		
		
	
		
		
	
		
		
	
		
		
	
		
		
	
		
		
	
		
		
	
		
		
	
		
		
	
		
		
	
		
		
	
		
		
	
		
		
	
		
		
	
		
		
	
		
		
	
		
		
	
		
		
	
		
		

	</g>
	

</svg>