<?xml version="1.0" encoding="iso-8859-1"?><!-- Generator: Adobe Illustrator 15.0.2, SVG Export Plug-In . SVG Version: 6.00 Build 0)  --><!DOCTYPE svg  PUBLIC '-//W3C//DTD SVG 1.1//EN'  'http://www.w3.org/Graphics/SVG/1.1/DTD/svg11.dtd'><svg enable-background="new 0 0 1015 375.4" height="375.4px" id="Ebene_1" version="1.1" viewBox="0 0 1015 375.4" width="1015px" x="0px" xml:space="preserve" xmlns="http://www.w3.org/2000/svg" xmlns:xlink="http://www.w3.org/1999/xlink" y="0px">
	

	<g>
		
	
		
		
	
		
		
	
		
		
	
		
		
	
		
		
	
		
		
	
		
		
	
		
		
	
		
		
	
		
		
	
		
		
	
		
		
	
		
		
	
		
		
	
		
		
	
		
		
	
		
		
	
		
		
	
		
		
	
		
		
	
		
		
	
		<path animation_id="12" clip-rule="evenodd" d="M554.156,327.711c-14.688,0.635-25.707,8.422-25.707,23.814   c0,13.932,9.561,23.748,27.615,23.748c18.043,0,27.295-10.006,27.295-24.258c0-7.473-2.979-12.414-4.816-14.627   C572.969,329.611,562.967,327.332,554.156,327.711L554.156,327.711z M555.424,335.754c8.932-0.314,16.465,5.824,16.465,15.83   c0,8.617-5.574,15.707-16.014,15.707c-8.684,0-11.98-4.621-13.049-6.141c-0.83-1.078-2.857-3.926-2.857-9.377   C539.969,340.949,547.951,336.01,555.424,335.754L555.424,335.754z" fill="#798890" fill-rule="evenodd" stroke="black"/>
		
	
		
		
	
		
		
	
		
		
	
		
		
	
		
		
	
		
		
	
		
		
	
		
		

	</g>
	

</svg>