<?xml version="1.0" encoding="iso-8859-1"?><svg height="58.999996" viewBox="0 0 536.95769 58.999996" width="536.9577" xmlns="http://www.w3.org/2000/svg">
	
  
	<g transform="matrix(1.3333333 0 0 -1.3333333 0 58.999971)">
		
    
		
		
    
		<path animation_id="1" d="m333.83364 17.753249.50648 26.28858 3.02582.009-.57563-26.22877c-.0392-2.67259-1.25033-5.08913-3.16974-7.18983-1.91941-2.09322-4.5677-3.89862-7.5524-5.38257-5.9638-2.96413-13.35174-4.66114001-19.15107-4.73964001-.0935 0-.1869-.001-.28035-.001-5.65356-.0187-12.57426 1.70821001-18.09512 4.93775001-2.80342 1.64092-5.27042 3.68181-7.02162 6.0965-1.75121 2.41466-2.78661 5.21621-2.73054 8.35418l.43921 23.95613 3.06132.0168-.53825-23.95613c-.0336-2.04276.53078-3.90609 1.52693-5.59749 1.00175-1.69138 2.43523-3.20337 4.12476-4.51537 6.0666-4.68918 13.28633-6.20116 19.40152-6.1806 1.41852.006 2.77912.0916 4.05187.24109 3.90984.45603 9.64002 1.94184 14.41516 4.3397 2.39225 1.19987 4.51351 2.61279 6.05165 4.22382 1.53254 1.60915 2.45766 3.38839 2.51 5.32836" stroke="black"/>
		
    
		
		
    
		
		
    
		
		
    
		
		
  
	</g>
	

</svg>