<?xml version="1.0" encoding="iso-8859-1"?><svg height="58.999996" viewBox="0 0 536.95769 58.999996" width="536.9577" xmlns="http://www.w3.org/2000/svg">
	
  
	<g transform="matrix(1.3333333 0 0 -1.3333333 0 58.999971)">
		
    
		
		
    
		
		
    
		
		
    
		<path animation_id="3" d="m19.810909 3.011009 27.46975.10472-.0524-2.96040001-27.3165-.15513c-3.90423-.0133-7.0777.58311-9.68674 1.68392001-2.6258801 1.11015-4.6667601 2.72305-6.2086401 4.70227-3.08001999 3.95655-4.13971999 9.35407-4.00514999 15.04687.11033 6.51888 1.55682999 11.91079 4.86673999 15.68231 1.66336 1.8839 3.7734 3.34916 6.3917901 4.34157 2.61838 1.00175 5.73018 1.5288 9.40079 1.55682l27.20997.0879-.0524-2.92303-27.21558-.10472c-2.92863-.0168-5.54142-.3495-7.79724-1.12698-2.25581-.77001-4.1714801-1.97547-5.7264401-3.73415-1.86335-2.10817-3.19589-5.70963-3.8033-9.72972-.59807-4.00515-.47471-8.36353.51022-11.92761.73822-2.67634 1.87642-4.88542 3.85002-6.73568 3.2239301-3.02395 6.9132201-3.75284 12.1649601-3.80892" stroke="black"/>
		
    
		
		
    
		
		
  
	</g>
	

</svg>