<?xml version="1.0" encoding="iso-8859-1"?><svg height="58.999996" viewBox="0 0 536.95769 58.999996" width="536.9577" xmlns="http://www.w3.org/2000/svg">
	
  
	<g transform="matrix(1.3333333 0 0 -1.3333333 0 58.999971)">
		
    
		
		
    
		
		
    
		<path animation_id="2" d="m269.49652 32.838989c.98306-2.00164 1.52692-4.13223 1.51384-6.23292-.001-2.20537-.59245-4.40511-1.63532-6.46656-1.05035-2.06144-2.56046-3.99019-4.42753-5.6386-3.73042-3.29868-8.89992-5.52086-14.67869-5.54703l-22.11897-.11593-.1495-8.16356001-3.0333-.009.27846 11.09405001 25.07563.12523c4.27242.0299 8.14486 1.426 11.17816 3.58837 3.20525 2.29133 5.0798 5.0125 5.88531 7.79723.80552 2.78661.54947 5.66478-.57563 8.26448-1.12323 2.60904-3.11553 4.94149-5.77131 6.6198-2.63894 1.67271-5.94324 2.68941-9.69608 2.67633l-38.10591-.11771-.79057-40.08887001-3.0333-.0118.82982 43.02124001 41.11117.13452c5.5433.0187 10.44741-2.18293 13.9685-5.42182 1.76616-1.62223 3.19216-3.50614 4.17522-5.50778" stroke="black"/>
		
    
		
		
    
		
		
    
		
		
  
	</g>
	

</svg>