<?xml version="1.0" encoding="iso-8859-1"?><!-- Created with Inkscape (http://www.inkscape.org/) --><svg height="585.53149" id="svg1906" version="1.0" width="581.10236" xmlns="http://www.w3.org/2000/svg" xmlns:svg="http://www.w3.org/2000/svg">
	
  
	<defs id="defs1908"/>
	
  
	<g id="g3549" transform="matrix(2.740703,0,0,2.740703,7.086653,8.865505)">
		
    
		
		
    
		<path animation_id="1" d="M 25.58281,62.9849 C 15.71515,62.9849 14.98422,72.72464 14.98422,72.72464 L 10.59859,72.72464 L 10.59859,58.29593 L 46.41453,58.29593 C 46.41453,58.29593 46.41453,69.44639 35.81594,81.28027 C 35.81594,81.28027 25.94828,92.98258 25.58281,98.09548 L 31.43031,98.09548 C 39.8361,98.09548 40.56703,88.36305 40.56703,88.36305 L 45.31813,88.36305 L 45.31813,102.821 L 8.77125,102.821 C 8.77125,102.821 7.67484,91.8679 20.10078,78.55752 C 20.10078,78.55752 28.14109,69.83744 29.96844,62.95201 L 25.58281,62.9849" id="path54" stroke="black" style="fill:white;fill-rule:evenodd;"/>
		
    
		
		
    
		
		
    
		
		
    
		
		
  
	</g>
	

</svg>