<?xml version="1.0" encoding="iso-8859-1"?><!-- Created with Inkscape (http://www.inkscape.org/) --><svg height="585.53149" id="svg1906" version="1.0" width="581.10236" xmlns="http://www.w3.org/2000/svg" xmlns:svg="http://www.w3.org/2000/svg">
	
  
	<defs id="defs1908"/>
	
  
	<g id="g3549" transform="matrix(2.740703,0,0,2.740703,7.086653,8.865505)">
		
    
		
		
    
		
		
    
		
		
    
		<path animation_id="3" d="M 88.07798,102.821 L 88.07798,88.36305 L 83.32688,88.36305 C 83.32688,88.36305 82.23048,98.09548 73.82469,98.09548 L 69.0736,98.09548 L 69.0736,82.92122 L 70.90094,82.92122 C 72.72829,82.92122 74.55563,84.52563 74.55563,86.52474 L 74.55563,88.33016 L 79.30673,88.33016 L 79.30673,72.75753 L 74.55563,72.75753 L 74.55563,74.55929 C 74.55563,76.55841 72.72829,78.16647 70.90094,78.16647 L 69.0736,78.16647 L 69.0736,62.9849 L 73.82469,62.9849 C 82.23048,62.9849 83.32688,72.72464 83.32688,72.72464 L 88.07798,72.72464 L 88.07798,58.25939 L 50.43469,58.25939 L 50.43469,63.01413 L 51.5311,63.01413 C 53.35844,63.01413 54.82032,64.6222 54.82032,66.59207 L 54.82032,94.49196 C 54.82032,96.45818 53.35844,98.06625 51.5311,98.06625 L 50.43469,98.06625 L 50.43469,102.7881 L 88.07798,102.821" id="path58" stroke="black" style="fill:white;fill-rule:evenodd;"/>
		
    
		
		
    
		
		
  
	</g>
	

</svg>