<?xml version="1.0" encoding="iso-8859-1"?><!-- Created with Inkscape (http://www.inkscape.org/) --><svg height="216.14172" id="svg16559" version="1.1" width="892.91339" xmlns="http://www.w3.org/2000/svg" xmlns:cc="http://creativecommons.org/ns#" xmlns:dc="http://purl.org/dc/elements/1.1/" xmlns:rdf="http://www.w3.org/1999/02/22-rdf-syntax-ns#" xmlns:svg="http://www.w3.org/2000/svg">
	
  
	<defs id="defs16561">
		
    
		<clipPath id="clipPath16081">
			
      
			
			
    
		</clipPath>
		
    
		<clipPath id="clipPath16045">
			
      
			
			
    
		</clipPath>
		
  
	</defs>
	
  
	<metadata id="metadata16564">
		
    
		<rdf:RDF>
			
      
			<cc:Work rdf:about="">
				
        
				<dc:format>image/svg+xml</dc:format>
				
        
				<dc:type rdf:resource="http://purl.org/dc/dcmitype/StillImage"/>
				
        
				<dc:title/>
				
      
			</cc:Work>
			
    
		</rdf:RDF>
		
  
	</metadata>
	
  
	<g id="layer1" transform="translate(-93.588722,-329.38969)">
		
    
		<g id="g16624" transform="matrix(4.8077143,0,0,4.8077143,-352.81582,-2080.7757)">
			
      
			<g id="g16041" transform="matrix(1.25,0,0,-1.25,-159.75765,707.56269)">
				
        
				<g clip-path="url(#clipPath16045)" id="g16043">
					
          
					<g id="g16049" transform="translate(333.7716,154.9309)">
						
            
						
						
          
					</g>
					
          
					<g id="g16053" transform="translate(215.7651,155.154)">
						
            
						<path animation_id="3" d="m 0,0 c -1.323,1.334 -3.998,2.196 -5.925,2.196 -3.654,0 -6.328,-2.641 -6.328,-5.909 0,-3.06 2.042,-4.341 4.832,-5.387 1.697,-0.602 3.768,-1.177 3.768,-3.217 0,-1.516 -1.065,-2.85 -2.79,-2.85 -1.813,0 -3.337,1.36 -3.912,2.877 l -2.733,-2.432 c 1.496,-2.275 3.682,-3.844 6.674,-3.844 4.429,0 7.133,2.798 7.133,6.746 0,6.616 -8.601,5.23 -8.601,8.551 0,1.282 1.295,2.223 2.647,2.223 1.409,0 2.445,-0.628 3.25,-1.621 L 0,0" id="path16055" stroke="black" style="fill:#918f90;fill-opacity:1;fill-rule:nonzero;"/>
						
          
					</g>
					
          
					<g id="g16057" transform="translate(232.8997,156.1998)">
						
            
						
						
          
					</g>
					
          
					<g id="g16061" transform="translate(239.6176,149.0611)">
						
            
						
						
          
					</g>
					
          
					<g id="g16065" transform="translate(258.7113,156.8275)">
						
            
						
						
          
					</g>
					
          
					<g id="g16069" transform="translate(277.5421,153.4803)">
						
            
						
						
          
					</g>
					
          
					<g id="g16073" transform="translate(280.0618,137.1107)">
						
            
						
						
          
					</g>
					
        
				</g>
				
      
			</g>
			
      
			<g id="g16077" transform="matrix(1.25,0,0,-1.25,-159.75765,707.56269)">
				
        
				<g clip-path="url(#clipPath16081)" id="g16079">
					
          
					<g id="g16085" transform="translate(305.8846,148.5119)">
						
            
						
						
          
					</g>
					
          
					<g id="g16089" transform="translate(342.7137,139.1042)">
						
            
						
						
          
					</g>
					
        
				</g>
				
      
			</g>
			
    
		</g>
		
  
	</g>
	

</svg>