<?xml version="1.0" encoding="iso-8859-1"?><!-- Created with Inkscape (http://www.inkscape.org/) --><svg height="216.14172" id="svg16559" version="1.1" width="892.91339" xmlns="http://www.w3.org/2000/svg" xmlns:cc="http://creativecommons.org/ns#" xmlns:dc="http://purl.org/dc/elements/1.1/" xmlns:rdf="http://www.w3.org/1999/02/22-rdf-syntax-ns#" xmlns:svg="http://www.w3.org/2000/svg">
	
  
	<defs id="defs16561">
		
    
		<clipPath id="clipPath16081">
			
      
			
			
    
		</clipPath>
		
    
		<clipPath id="clipPath16045">
			
      
			
			
    
		</clipPath>
		
  
	</defs>
	
  
	<metadata id="metadata16564">
		
    
		<rdf:RDF>
			
      
			<cc:Work rdf:about="">
				
        
				<dc:format>image/svg+xml</dc:format>
				
        
				<dc:type rdf:resource="http://purl.org/dc/dcmitype/StillImage"/>
				
        
				<dc:title/>
				
      
			</cc:Work>
			
    
		</rdf:RDF>
		
  
	</metadata>
	
  
	<g id="layer1" transform="translate(-93.588722,-329.38969)">
		
    
		<g id="g16624" transform="matrix(4.8077143,0,0,4.8077143,-352.81582,-2080.7757)">
			
      
			<g id="g16041" transform="matrix(1.25,0,0,-1.25,-159.75765,707.56269)">
				
        
				<g clip-path="url(#clipPath16045)" id="g16043">
					
          
					<g id="g16049" transform="translate(333.7716,154.9309)">
						
            
						
						
          
					</g>
					
          
					<g id="g16053" transform="translate(215.7651,155.154)">
						
            
						
						
          
					</g>
					
          
					<g id="g16057" transform="translate(232.8997,156.1998)">
						
            
						<path animation_id="4" d="m 0,0 c -1.467,0.732 -3.135,1.151 -4.832,1.151 -6.357,0 -10.701,-4.942 -10.701,-10.539 0,-5.439 4.516,-10.224 10.614,-10.224 1.755,0 3.337,0.497 4.919,1.177 l 0,4.576 c -1.179,-1.229 -2.992,-2.092 -4.803,-2.092 -3.942,0 -6.358,3.321 -6.358,6.642 0,3.399 2.331,6.799 6.386,6.799 1.812,0 3.596,-0.785 4.775,-2.092 L 0,0" id="path16059" stroke="black" style="fill:#918f90;fill-opacity:1;fill-rule:nonzero;"/>
						
          
					</g>
					
          
					<g id="g16061" transform="translate(239.6176,149.0611)">
						
            
						
						
          
					</g>
					
          
					<g id="g16065" transform="translate(258.7113,156.8275)">
						
            
						
						
          
					</g>
					
          
					<g id="g16069" transform="translate(277.5421,153.4803)">
						
            
						
						
          
					</g>
					
          
					<g id="g16073" transform="translate(280.0618,137.1107)">
						
            
						
						
          
					</g>
					
        
				</g>
				
      
			</g>
			
      
			<g id="g16077" transform="matrix(1.25,0,0,-1.25,-159.75765,707.56269)">
				
        
				<g clip-path="url(#clipPath16081)" id="g16079">
					
          
					<g id="g16085" transform="translate(305.8846,148.5119)">
						
            
						
						
          
					</g>
					
          
					<g id="g16089" transform="translate(342.7137,139.1042)">
						
            
						
						
          
					</g>
					
        
				</g>
				
      
			</g>
			
    
		</g>
		
  
	</g>
	

</svg>