<?xml version="1.0" encoding="iso-8859-1"?><!-- Created with Inkscape (http://www.inkscape.org/) --><svg height="263.48032" id="svg3110" version="1.0" width="892.62988" xml:space="preserve" xmlns="http://www.w3.org/2000/svg" xmlns:svg="http://www.w3.org/2000/svg">
	<defs id="defs3113">
		<clipPath id="clipPath3125">
			
		</clipPath>
		<clipPath id="clipPath3133">
			
		</clipPath>
		<clipPath id="clipPath3141">
			
		</clipPath>
		<clipPath id="clipPath3149">
			
		</clipPath>
		<clipPath id="clipPath3157">
			
		</clipPath>
		<clipPath id="clipPath3165">
			
		</clipPath>
	</defs>
	<g id="g3119" transform="matrix(1.25,0,0,-1.25,-2.0235093,1109.9052)">
		<g id="g3399">
			<g id="g3173" transform="matrix(4.0066081,0,0,-4.0066081,-1480.7999,-2332.0927)">
				
				
				
				
				<path animation_id="10" d="M 433.18652,-758.9502 C 433.18652,-758.9502 433.18652,-767.81592 433.18652,-767.81592 C 433.18652,-770.37451 435.25974,-772.44824 437.81836,-772.44824 C 437.81836,-772.44824 451.87695,-772.44824 451.87695,-772.44824 C 451.87695,-772.44824 451.87695,-767.97559 451.87695,-767.97559 C 451.87695,-767.97559 438.53711,-767.97559 438.53711,-767.97559 C 438.05078,-767.97559 437.65918,-767.58252 437.65918,-767.09717 C 437.65918,-767.09717 437.65918,-759.46924 437.65918,-759.46924 C 437.65918,-758.9834 438.05078,-758.55078 438.53711,-758.55078 C 438.53711,-758.55078 451.87695,-758.55078 451.87695,-758.55078 C 451.87695,-758.55078 451.87695,-754.07813 451.87695,-754.07813 C 451.87695,-754.07813 437.89844,-754.07813 437.89844,-754.07813 C 435.33984,-754.07813 433.20508,-756.11084 433.20508,-758.6709 C 433.20508,-758.6709 433.18652,-758.9502 433.18652,-758.9502 z" id="path3183" stroke="black" style="fill:#283366;fill-opacity:1;fill-rule:nonzero;"/>
				
				
				
				
				<g id="g3193" transform="matrix(1.00719,0,0,-1.00719,65.61014,-141.98929)">
					
					

					
					

				</g>
			</g>
		</g>
	</g>
</svg>