<?xml version="1.0" encoding="iso-8859-1"?><!-- Created with Inkscape (http://www.inkscape.org/) --><svg height="263.48032" id="svg3110" version="1.0" width="892.62988" xml:space="preserve" xmlns="http://www.w3.org/2000/svg" xmlns:svg="http://www.w3.org/2000/svg">
	<defs id="defs3113">
		<clipPath id="clipPath3125">
			
		</clipPath>
		<clipPath id="clipPath3133">
			
		</clipPath>
		<clipPath id="clipPath3141">
			
		</clipPath>
		<clipPath id="clipPath3149">
			
		</clipPath>
		<clipPath id="clipPath3157">
			
		</clipPath>
		<clipPath id="clipPath3165">
			
		</clipPath>
	</defs>
	<g id="g3119" transform="matrix(1.25,0,0,-1.25,-2.0235093,1109.9052)">
		<g id="g3399">
			<g id="g3173" transform="matrix(4.0066081,0,0,-4.0066081,-1480.7999,-2332.0927)">
				
				
				
				
				
				
				
				<path animation_id="13" d="M 479.6113,-767.97559 C 479.6113,-767.97559 479.6113,-754.07813 479.6113,-754.07813 C 479.6113,-754.07813 475.13867,-754.07813 475.13867,-754.07813 C 475.13867,-754.07813 475.13867,-772.44824 475.13867,-772.44824 C 475.13867,-772.44824 488.03903,-772.44824 488.03903,-772.44824 C 488.03903,-772.44824 493.19135,-772.44824 493.19135,-772.44824 C 495.75,-772.44824 497.82422,-770.37451 497.82422,-767.81592 C 497.82422,-767.81592 497.82422,-754.07813 497.82422,-754.07813 C 497.82422,-754.07813 493.2695,-754.07813 493.2695,-754.07813 C 493.2695,-754.07813 493.2695,-767.09717 493.2695,-767.09717 C 493.2695,-767.58252 492.87695,-767.97559 492.39255,-767.97559 C 492.39255,-767.97559 488.71875,-767.97559 488.71875,-767.97559 C 488.71875,-767.97559 488.71875,-754.07813 488.71875,-754.07813 C 488.71875,-754.07813 484.16599,-754.07813 484.16599,-754.07813 C 484.16599,-754.07813 484.16599,-767.97559 484.16599,-767.97559 C 484.16599,-767.97559 479.6113,-767.97559 479.6113,-767.97559 z" id="path3189" stroke="black" style="fill:#283366;fill-opacity:1;fill-rule:nonzero;"/>
				
				<g id="g3193" transform="matrix(1.00719,0,0,-1.00719,65.61014,-141.98929)">
					
					

					
					

				</g>
			</g>
		</g>
	</g>
</svg>