<?xml version="1.0" encoding="iso-8859-1"?><!-- Created with Inkscape (http://www.inkscape.org/) --><svg height="263.48032" id="svg3110" version="1.0" width="892.62988" xml:space="preserve" xmlns="http://www.w3.org/2000/svg" xmlns:svg="http://www.w3.org/2000/svg">
	<defs id="defs3113">
		<clipPath id="clipPath3125">
			
		</clipPath>
		<clipPath id="clipPath3133">
			
		</clipPath>
		<clipPath id="clipPath3141">
			
		</clipPath>
		<clipPath id="clipPath3149">
			
		</clipPath>
		<clipPath id="clipPath3157">
			
		</clipPath>
		<clipPath id="clipPath3165">
			
		</clipPath>
	</defs>
	<g id="g3119" transform="matrix(1.25,0,0,-1.25,-2.0235093,1109.9052)">
		<g id="g3399">
			<g id="g3173" transform="matrix(4.0066081,0,0,-4.0066081,-1480.7999,-2332.0927)">
				
				
				
				
				
				<path animation_id="11" d="M 499.89063,-758.9502 C 499.89063,-758.9502 499.89063,-767.81592 499.89063,-767.81592 C 499.89063,-770.37451 501.96478,-772.44824 504.52344,-772.44824 C 504.52344,-772.44824 519.539,-772.44824 519.539,-772.44824 C 519.539,-772.44824 519.539,-767.97559 519.539,-767.97559 C 519.539,-767.97559 505.24219,-767.97559 505.24219,-767.97559 C 504.75775,-767.97559 504.36328,-767.58252 504.36328,-767.09717 C 504.36328,-767.09717 504.36328,-759.46924 504.36328,-759.46924 C 504.36328,-758.9834 504.75775,-758.55078 505.24219,-758.55078 C 505.24219,-758.55078 519.539,-758.55078 519.539,-758.55078 C 519.539,-758.55078 519.539,-754.07813 519.539,-754.07813 C 519.539,-754.07813 504.60156,-754.07813 504.60156,-754.07813 C 502.04492,-754.07813 499.91016,-756.11084 499.91016,-758.6709 C 499.91016,-758.6709 499.89063,-758.9502 499.89063,-758.9502 z" id="path3185" stroke="black" style="fill:#283366;fill-opacity:1;fill-rule:nonzero;"/>
				
				
				
				<g id="g3193" transform="matrix(1.00719,0,0,-1.00719,65.61014,-141.98929)">
					
					

					
					

				</g>
			</g>
		</g>
	</g>
</svg>