<?xml version="1.0" encoding="iso-8859-1"?><!-- Created with Inkscape (http://www.inkscape.org/) --><svg height="263.48032" id="svg3110" version="1.0" width="892.62988" xml:space="preserve" xmlns="http://www.w3.org/2000/svg" xmlns:svg="http://www.w3.org/2000/svg">
	<defs id="defs3113">
		<clipPath id="clipPath3125">
			
		</clipPath>
		<clipPath id="clipPath3133">
			
		</clipPath>
		<clipPath id="clipPath3141">
			
		</clipPath>
		<clipPath id="clipPath3149">
			
		</clipPath>
		<clipPath id="clipPath3157">
			
		</clipPath>
		<clipPath id="clipPath3165">
			
		</clipPath>
	</defs>
	<g id="g3119" transform="matrix(1.25,0,0,-1.25,-2.0235093,1109.9052)">
		<g id="g3399">
			<g id="g3173" transform="matrix(4.0066081,0,0,-4.0066081,-1480.7999,-2332.0927)">
				
				
				<path animation_id="8" d="M 453.42575,-758.9502 C 453.42575,-758.9502 453.42575,-767.81592 453.42575,-767.81592 C 453.42575,-770.37451 455.49799,-772.44824 458.05463,-772.44824 C 458.05463,-772.44824 473.07227,-772.44824 473.07227,-772.44824 C 473.07227,-772.44824 473.07227,-767.97559 473.07227,-767.97559 C 473.07227,-767.97559 458.77539,-767.97559 458.77539,-767.97559 C 458.28903,-767.97559 457.89844,-767.58252 457.89844,-767.09717 C 457.89844,-767.09717 457.89844,-759.46924 457.89844,-759.46924 C 457.89844,-758.9834 458.28903,-758.55078 458.77539,-758.55078 C 458.77539,-758.55078 473.07227,-758.55078 473.07227,-758.55078 C 473.07227,-758.55078 473.07227,-754.07813 473.07227,-754.07813 C 473.07227,-754.07813 458.13672,-754.07813 458.13672,-754.07813 C 455.57806,-754.07813 453.44336,-756.11084 453.44336,-758.6709 C 453.44336,-758.6709 453.42575,-758.9502 453.42575,-758.9502 z" id="path3179" stroke="black" style="fill:#283366;fill-opacity:1;fill-rule:nonzero;"/>
				
				
				
				
				
				
				<g id="g3193" transform="matrix(1.00719,0,0,-1.00719,65.61014,-141.98929)">
					
					

					
					

				</g>
			</g>
		</g>
	</g>
</svg>