<?xml version="1.0" encoding="iso-8859-1"?><svg id="Ebene_1" style="enable-background:new 0 0 354 82.4;" version="1.1" viewBox="0 0 354 82.4" x="0px" xml:space="preserve" xmlns="http://www.w3.org/2000/svg" xmlns:xlink="http://www.w3.org/1999/xlink" y="0px">
	

	<style type="text/css">
	.st0{fill:none;}
	.st1{fill:#767A7D;}
	.st2{fill:#8B0728;}
</style>
	

	
	

	
	

	
	

	
	

	<path animation_id="3" class="st1" d="M352.5,70.4h-1.2v6.2c0,0.3,0,0.8,0,1.5c0,0.7,0.1,1.1,0.1,1.3h-0.1l-5.9-9h-1.4v10.8h1.2V75  c0-0.9,0-1.9-0.1-2.9h0.1l5.9,9h1.4V70.4z M332.5,72.4c0.6-0.8,1.5-1.1,2.7-1.1c1.2,0,2.1,0.4,2.7,1.1c0.6,0.7,0.9,1.8,0.9,3.3  c0,1.5-0.3,2.6-0.9,3.3c-0.6,0.8-1.5,1.1-2.7,1.1c-1.2,0-2.1-0.4-2.7-1.1c-0.6-0.8-0.9-1.9-0.9-3.3  C331.6,74.3,331.9,73.2,332.5,72.4 M338.9,71.7c-0.9-1-2.1-1.5-3.6-1.5c-1.6,0-2.8,0.5-3.7,1.4c-0.9,1-1.3,2.3-1.3,4.1  c0,1.8,0.4,3.1,1.3,4.1c0.9,1,2.1,1.5,3.7,1.5c1.5,0,2.8-0.5,3.6-1.5c0.9-1,1.3-2.3,1.3-4.1C340.2,74,339.7,72.6,338.9,71.7   M326.3,70.4H325v10.8h1.3V70.4z M320.7,76.5c-0.4-0.5-1.2-0.9-2.3-1.3c-0.7-0.2-1.2-0.5-1.5-0.7c-0.3-0.2-0.6-0.4-0.7-0.7  c-0.1-0.2-0.2-0.5-0.2-0.9c0-0.5,0.2-0.9,0.6-1.2c0.4-0.3,0.9-0.4,1.6-0.4c0.8,0,1.7,0.2,2.6,0.6l0.4-1.1c-0.9-0.4-1.9-0.6-2.9-0.6  c-1,0-1.9,0.2-2.5,0.7c-0.6,0.5-0.9,1.1-0.9,2c0,0.8,0.2,1.4,0.6,1.9c0.4,0.5,1.1,0.9,2.1,1.3c0.7,0.3,1.3,0.5,1.6,0.7  c0.4,0.2,0.6,0.4,0.8,0.7c0.1,0.2,0.2,0.5,0.2,0.9c0,0.6-0.2,1-0.6,1.3c-0.4,0.3-1,0.5-1.9,0.5c-0.5,0-1-0.1-1.5-0.2  c-0.5-0.1-1-0.3-1.4-0.4v1.2c0.7,0.3,1.7,0.5,2.9,0.5c1.2,0,2.1-0.3,2.8-0.8c0.7-0.5,1-1.3,1-2.2C321.4,77.5,321.1,76.9,320.7,76.5   M310.8,70.4h-1.2v6.2c0,0.3,0,0.8,0,1.5c0,0.7,0.1,1.1,0.1,1.3h-0.1l-5.9-9h-1.4v10.8h1.2V75c0-0.9,0-1.9-0.1-2.9h0.1l5.9,9h1.4  V70.4z M298.6,80h-4.7v-4h4.5v-1.1h-4.5v-3.5h4.7v-1.1h-6v10.8h6V80z M283.2,81.1l3.7-9.5h0.1c-0.1,0.9-0.1,1.8-0.1,2.6v6.9h1.2  V70.4h-1.9l-3.4,8.9h-0.1l-3.4-8.9h-1.9v10.8h1.2v-6.8c0-1,0-1.9-0.1-2.7h0.1l3.6,9.5H283.2z M273,70.4h-1.3v10.8h1.3V70.4z   M265.4,78.9c-0.8,0.7-1.9,1.1-3.4,1.1h-1.5v-8.6h1.8c1.4,0,2.4,0.4,3.1,1.1c0.7,0.7,1.1,1.8,1.1,3.2  C266.5,77.1,266.1,78.2,265.4,78.9 M266.4,71.7c-0.9-0.9-2.2-1.4-3.9-1.4h-3.3v10.8h3c1.8,0,3.2-0.5,4.2-1.4c1-0.9,1.4-2.3,1.4-4.1  C267.8,74,267.3,72.7,266.4,71.7 M245,71.5h1.6c0.9,0,1.6,0.2,2,0.5c0.4,0.3,0.6,0.8,0.6,1.5c0,0.7-0.2,1.2-0.6,1.6  c-0.4,0.4-1.1,0.5-1.9,0.5H245V71.5z M247.2,76.6l2.6,4.5h1.5l-2.9-4.8c1.4-0.5,2.2-1.5,2.2-2.9c0-1-0.3-1.8-0.9-2.3  c-0.6-0.5-1.6-0.8-2.9-0.8h-3v10.8h1.3v-4.5H247.2z M239.9,80h-4.7v-4h4.5v-1.1h-4.5v-3.5h4.7v-1.1h-6v10.8h6V80z M228.3,70.4v7  c0,0.9-0.2,1.6-0.7,2.1c-0.5,0.5-1.2,0.7-2.1,0.7c-1,0-1.7-0.2-2.2-0.7c-0.5-0.5-0.7-1.2-0.7-2.1v-7h-1.3v6.9c0,1.2,0.4,2.2,1.1,2.9  c0.7,0.7,1.7,1.1,3,1.1c1.3,0,2.3-0.4,3.1-1.1c0.7-0.7,1.1-1.7,1.1-2.9v-7H228.3z M217.6,80h-4.7v-4h4.5v-1.1h-4.5v-3.5h4.7v-1.1h-6  v10.8h6V80z M207.1,70.4H206v6.2c0,0.3,0,0.8,0,1.5c0,0.7,0.1,1.1,0.1,1.3H206l-5.9-9h-1.4v10.8h1.2V75c0-0.9,0-1.9-0.1-2.9h0.1  l5.9,9h1.4V70.4z M189.6,70.4h-1.2v6.2c0,0.3,0,0.8,0,1.5c0,0.7,0.1,1.1,0.1,1.3h-0.1l-5.9-9h-1.4v10.8h1.2V75c0-0.9,0-1.9-0.1-2.9  h0.1l5.9,9h1.4V70.4z M177.4,80h-4.7v-4h4.5v-1.1h-4.5v-3.5h4.7v-1.1h-6v10.8h6V80z M166.9,70.4h-1.3v10.8h1.3V70.4z M162.2,81.1V80  h-4.7v-9.6h-1.3v10.8H162.2z M151.8,70.4h-1.3v10.8h1.3V70.4z M142.6,76c0.9,0,1.6,0.2,2.1,0.5c0.4,0.3,0.7,0.8,0.7,1.5  c0,0.7-0.2,1.2-0.7,1.6c-0.4,0.3-1.1,0.5-2,0.5h-2.2v-4H142.6z M140.4,71.4h1.8c0.9,0,1.6,0.1,2.1,0.4c0.4,0.3,0.6,0.7,0.6,1.3  c0,0.7-0.2,1.1-0.6,1.4c-0.4,0.3-1,0.4-1.9,0.4h-2.1V71.4z M139.2,81.1h3.8c1.2,0,2.1-0.3,2.7-0.8c0.7-0.5,1-1.3,1-2.3  c0-1.4-0.8-2.3-2.5-2.6v-0.1c0.7-0.1,1.2-0.4,1.6-0.8c0.4-0.4,0.5-0.9,0.5-1.6c0-0.9-0.3-1.6-1-2c-0.6-0.4-1.7-0.6-3.1-0.6h-3V81.1z   M127.6,72.4c0.6-0.8,1.5-1.1,2.7-1.1c1.2,0,2.1,0.4,2.7,1.1c0.6,0.7,0.9,1.8,0.9,3.3c0,1.5-0.3,2.6-0.9,3.3  c-0.6,0.8-1.5,1.1-2.7,1.1c-1.2,0-2.1-0.4-2.7-1.1c-0.6-0.8-0.9-1.9-0.9-3.3C126.6,74.3,126.9,73.2,127.6,72.4 M133.9,71.7  c-0.9-1-2.1-1.5-3.6-1.5c-1.6,0-2.8,0.5-3.7,1.4c-0.9,1-1.3,2.3-1.3,4.1c0,1.8,0.4,3.1,1.3,4.1c0.9,1,2.1,1.5,3.7,1.5  c1.6,0,2.8-0.5,3.6-1.5c0.9-1,1.3-2.3,1.3-4.1C135.2,74,134.8,72.6,133.9,71.7 M116.4,81.1l3.7-9.5h0.1c-0.1,0.9-0.1,1.8-0.1,2.6  v6.9h1.3V70.4h-1.9l-3.4,8.9H116l-3.4-8.9h-1.9v10.8h1.2v-6.8c0-1,0-1.9-0.1-2.7h0.1l3.7,9.5H116.4z M101.3,81.1l3.7-9.5h0.1  c-0.1,0.9-0.1,1.8-0.1,2.6v6.9h1.3V70.4h-1.9l-3.4,8.9h-0.1l-3.4-8.9h-1.9v10.8h1.2v-6.8c0-1,0-1.9-0.1-2.7h0.1l3.7,9.5H101.3z   M91.1,70.4h-1.3v10.8h1.3V70.4z" stroke="black"/>
	

</svg>