<?xml version="1.0" encoding="iso-8859-1"?><svg id="Ebene_1" style="enable-background:new 0 0 354 82.4;" version="1.1" viewBox="0 0 354 82.4" x="0px" xml:space="preserve" xmlns="http://www.w3.org/2000/svg" xmlns:xlink="http://www.w3.org/1999/xlink" y="0px">
	

	<style type="text/css">
	.st0{fill:none;}
	.st1{fill:#767A7D;}
	.st2{fill:#8B0728;}
</style>
	

	
	

	
	

	
	

	<path animation_id="2" class="st1" d="M69.5,34.5c0,0,0.2-0.2,0-0.4L54.9,19.8l-6.5-6.4c0,0-0.2-0.2-0.4,0L40.3,21l-8,7.9c0,0-0.2,0.2,0,0.4l6.2,6.2  c0,0,0.2,0.2,0.4,0l7.8-7.7c0,0,0.2-0.2,0.5,0l6.3,6.2c0,0,0.2,0.2,0,0.4l-8,7.9c0,0-0.2,0.2,0,0.4l7.5,7.4c0,0,0.2,0.2,0.4,0  L69.5,34.5z M36.9,17.6c0,0,0.2,0.2,0.4,0l7.5-7.4c0,0,0.2-0.2,0-0.4L35,0.1c0,0-0.2-0.2-0.4,0L18.6,15.8c0,0-0.2,0.2,0,0.4l7.5,7.4  c0,0,0.2,0.2,0.4,0l8-7.8c0,0,0.2-0.2,0.4,0L36.9,17.6z" stroke="black"/>
	

	
	

</svg>