<?xml version="1.0" encoding="iso-8859-1"?><!-- Created with Inkscape (http://www.inkscape.org/) --><svg height="220" id="svg2716" inkscape:output_extension="org.inkscape.output.svg.inkscape" inkscape:version="0.46" sodipodi:docname="Logo_Citipost.svg" sodipodi:version="0.32" version="1.0" width="530" xmlns="http://www.w3.org/2000/svg" xmlns:cc="http://creativecommons.org/ns#" xmlns:dc="http://purl.org/dc/elements/1.1/" xmlns:inkscape="http://www.inkscape.org/namespaces/inkscape" xmlns:rdf="http://www.w3.org/1999/02/22-rdf-syntax-ns#" xmlns:sodipodi="http://sodipodi.sourceforge.net/DTD/sodipodi-0.dtd" xmlns:svg="http://www.w3.org/2000/svg">
	
  
	<defs id="defs2718">
		
    
		<clipPath clipPathUnits="userSpaceOnUse" id="clipPath2452">
			
      
			
			
    
		</clipPath>
		
    
		<clipPath clipPathUnits="userSpaceOnUse" id="clipPath2446">
			
      
			
			
    
		</clipPath>
		
    
		<clipPath clipPathUnits="userSpaceOnUse" id="clipPath2440">
			
      
			
			
    
		</clipPath>
		
    
		<clipPath clipPathUnits="userSpaceOnUse" id="clipPath2434">
			
      
			
			
    
		</clipPath>
		
    
		<inkscape:perspective id="perspective2724" inkscape:persp3d-origin="372.04724 : 350.78739 : 1" inkscape:vp_x="0 : 526.18109 : 1" inkscape:vp_y="0 : 1000 : 0" inkscape:vp_z="744.09448 : 526.18109 : 1" sodipodi:type="inkscape:persp3d"/>
		
  
	</defs>
	
  
	<sodipodi:namedview bordercolor="#666666" borderopacity="1.0" id="base" inkscape:current-layer="layer1" inkscape:cx="350" inkscape:cy="520" inkscape:document-units="px" inkscape:pageopacity="0.0" inkscape:pageshadow="2" inkscape:zoom="0.35" pagecolor="#ffffff" showgrid="false"/>
	
  
	<metadata id="metadata2721">
		
    
		<rdf:RDF>
			
      
			<cc:Work rdf:about="">
				
        
				<dc:format>image/svg+xml</dc:format>
				
        
				<dc:type rdf:resource="http://purl.org/dc/dcmitype/StillImage"/>
				
      
			</cc:Work>
			
    
		</rdf:RDF>
		
  
	</metadata>
	
  
	<g id="layer1" inkscape:groupmode="layer" inkscape:label="Ebene 1" transform="translate(-116.98386,-203.60812)">
		
    
		<g id="g2430" transform="matrix(2.914292,0,0,-2.914292,-737.43063,1942.559)">
			
      
			<g clip-path="url(#clipPath2434)" id="g2432">
				
        
				<g clip-path="url(#clipPath2440)" id="g2438">
					
          
					<g clip-path="url(#clipPath2446)" id="g2444">
						
            
						<g clip-path="url(#clipPath2452)" id="g2450">
							
              
							
							
              
							
							
              
							
							
              
							
							
              
							
							
              
							<path animation_id="9" d="M 396.922,547.822 C 396.027,545.363 394.977,543.416 393.771,541.981 C 392.566,540.547 391.344,539.496 390.106,538.828 C 389.698,538.563 388.931,538.232 387.805,537.833 C 386.679,537.435 385.146,537.215 383.208,537.175 C 381.927,537.162 380.675,537.316 379.449,537.635 C 378.224,537.955 377.162,538.513 376.262,539.311 C 375.444,539.997 374.81,540.934 374.364,542.123 C 373.916,543.313 373.769,544.88 373.922,546.823 C 374.057,548.283 374.392,549.816 374.927,551.418 C 375.462,553.021 376.138,554.51 376.955,555.885 C 378.107,557.768 379.384,559.19 380.787,560.151 C 382.191,561.112 383.596,561.757 385.005,562.082 C 386.414,562.408 387.704,562.559 388.872,562.535 C 390.463,562.559 391.998,562.297 393.479,561.748 C 394.96,561.199 396.144,560.219 397.032,558.809 C 397.921,557.398 398.272,555.413 398.086,552.852 C 397.921,551.158 397.533,549.482 396.922,547.822 z M 391.297,550.475 C 391.572,551.451 391.761,552.428 391.863,553.404 C 391.993,554.754 391.824,555.845 391.358,556.677 C 390.81,557.438 390.201,557.906 389.529,558.082 C 388.858,558.257 388.412,558.328 388.191,558.297 C 386.758,558.253 385.536,557.744 384.527,556.771 C 383.518,555.797 382.695,554.622 382.06,553.245 C 381.424,551.868 380.949,550.552 380.635,549.299 C 380.32,548.045 380.142,547.116 380.097,546.513 C 380.026,545.628 380.054,544.916 380.181,544.376 C 380.308,543.836 380.49,543.4 380.726,543.067 C 381.135,542.491 381.611,542.092 382.154,541.869 C 382.698,541.647 383.234,541.54 383.763,541.551 C 385.237,541.595 386.475,542.107 387.478,543.083 C 388.48,544.06 389.289,545.232 389.904,546.599 C 390.519,547.966 390.983,549.258 391.297,550.475" id="path2466" stroke="black" style="fill:#00b9f1;fill-opacity:1;fill-rule:evenodd;"/>
							
              
							
							
              
							
							
              
							
							
              
							
							
              
							
							
              
							
							
              
							
							
              
							
							
              
							
							
              
							
							
              
							
							
              
							
							
              
							
							
              
							
							
              
							
							
              
							
							
              
							
							
              
							
							
              
							
							
              
							
							
              
							
							
              
							
							
              
							
							
              
							
							
              
							
							
              
							
							
              
							
							
            
						</g>
						
          
					</g>
					
        
				</g>
				
      
			</g>
			
    
		</g>
		
  
	</g>
	

</svg>