<?xml version="1.0" encoding="iso-8859-1"?><!-- Created with Inkscape (http://www.inkscape.org/) --><svg height="220" id="svg2716" inkscape:output_extension="org.inkscape.output.svg.inkscape" inkscape:version="0.46" sodipodi:docname="Logo_Citipost.svg" sodipodi:version="0.32" version="1.0" width="530" xmlns="http://www.w3.org/2000/svg" xmlns:cc="http://creativecommons.org/ns#" xmlns:dc="http://purl.org/dc/elements/1.1/" xmlns:inkscape="http://www.inkscape.org/namespaces/inkscape" xmlns:rdf="http://www.w3.org/1999/02/22-rdf-syntax-ns#" xmlns:sodipodi="http://sodipodi.sourceforge.net/DTD/sodipodi-0.dtd" xmlns:svg="http://www.w3.org/2000/svg">
	
  
	<defs id="defs2718">
		
    
		<clipPath clipPathUnits="userSpaceOnUse" id="clipPath2452">
			
      
			
			
    
		</clipPath>
		
    
		<clipPath clipPathUnits="userSpaceOnUse" id="clipPath2446">
			
      
			
			
    
		</clipPath>
		
    
		<clipPath clipPathUnits="userSpaceOnUse" id="clipPath2440">
			
      
			
			
    
		</clipPath>
		
    
		<clipPath clipPathUnits="userSpaceOnUse" id="clipPath2434">
			
      
			
			
    
		</clipPath>
		
    
		<inkscape:perspective id="perspective2724" inkscape:persp3d-origin="372.04724 : 350.78739 : 1" inkscape:vp_x="0 : 526.18109 : 1" inkscape:vp_y="0 : 1000 : 0" inkscape:vp_z="744.09448 : 526.18109 : 1" sodipodi:type="inkscape:persp3d"/>
		
  
	</defs>
	
  
	<sodipodi:namedview bordercolor="#666666" borderopacity="1.0" id="base" inkscape:current-layer="layer1" inkscape:cx="350" inkscape:cy="520" inkscape:document-units="px" inkscape:pageopacity="0.0" inkscape:pageshadow="2" inkscape:zoom="0.35" pagecolor="#ffffff" showgrid="false"/>
	
  
	<metadata id="metadata2721">
		
    
		<rdf:RDF>
			
      
			<cc:Work rdf:about="">
				
        
				<dc:format>image/svg+xml</dc:format>
				
        
				<dc:type rdf:resource="http://purl.org/dc/dcmitype/StillImage"/>
				
      
			</cc:Work>
			
    
		</rdf:RDF>
		
  
	</metadata>
	
  
	<g id="layer1" inkscape:groupmode="layer" inkscape:label="Ebene 1" transform="translate(-116.98386,-203.60812)">
		
    
		<g id="g2430" transform="matrix(2.914292,0,0,-2.914292,-737.43063,1942.559)">
			
      
			<g clip-path="url(#clipPath2434)" id="g2432">
				
        
				<g clip-path="url(#clipPath2440)" id="g2438">
					
          
					<g clip-path="url(#clipPath2446)" id="g2444">
						
            
						<g clip-path="url(#clipPath2452)" id="g2450">
							
              
							
							
              
							
							
              
							
							
              
							
							
              
							
							
              
							
							
              
							<path animation_id="10" d="M 395.995,539.156 L 395.956,539.501 L 397.508,543.843 L 397.862,543.946 C 398.05,543.692 398.246,543.458 398.451,543.244 C 398.655,543.029 398.947,542.804 399.326,542.568 C 400.146,542.084 400.91,541.776 401.618,541.642 C 402.327,541.507 402.862,541.448 403.227,541.465 C 404.495,541.477 405.56,541.763 406.42,542.322 C 407.28,542.882 407.765,543.641 407.877,544.601 C 407.92,545.427 407.657,546.099 407.089,546.616 C 406.519,547.133 405.825,547.598 405.005,548.012 L 403.922,548.632 C 403.334,548.966 402.729,549.378 402.109,549.868 C 401.488,550.357 400.979,550.988 400.582,551.761 C 400.185,552.534 400.028,553.513 400.111,554.697 C 400.163,555.405 400.365,556.202 400.717,557.087 C 401.069,557.972 401.62,558.83 402.372,559.659 C 403.399,560.714 404.593,561.463 405.954,561.907 C 407.315,562.351 408.72,562.566 410.171,562.553 C 412.03,562.508 413.537,562.262 414.689,561.812 C 415.841,561.363 416.646,560.978 417.103,560.658 L 417.22,560.417 L 415.568,556.11 L 415.214,556.006 C 415.041,556.253 414.88,556.448 414.732,556.592 C 414.584,556.735 414.385,556.896 414.136,557.074 C 413.007,557.884 411.722,558.297 410.283,558.315 C 409.166,558.297 408.264,558.03 407.577,557.514 C 406.889,556.997 406.504,556.334 406.42,555.524 C 406.361,554.807 406.586,554.207 407.099,553.723 C 407.61,553.24 408.378,552.725 409.401,552.182 L 410.192,551.768 C 410.784,551.432 411.411,551.005 412.073,550.485 C 412.736,549.966 413.286,549.301 413.723,548.491 C 414.162,547.68 414.34,546.671 414.258,545.462 C 414.142,544.058 413.675,542.727 412.857,541.471 C 412.039,540.215 410.843,539.188 409.269,538.392 C 407.696,537.595 405.716,537.184 403.332,537.158 C 401.569,537.158 399.882,537.433 398.27,537.985 C 397.734,538.172 397.298,538.358 396.963,538.545 C 396.628,538.732 396.306,538.935 395.995,539.156" id="path2468" stroke="black" style="fill:#00b9f1;fill-opacity:1;fill-rule:nonzero;"/>
							
              
							
							
              
							
							
              
							
							
              
							
							
              
							
							
              
							
							
              
							
							
              
							
							
              
							
							
              
							
							
              
							
							
              
							
							
              
							
							
              
							
							
              
							
							
              
							
							
              
							
							
              
							
							
              
							
							
              
							
							
              
							
							
              
							
							
              
							
							
              
							
							
              
							
							
              
							
							
            
						</g>
						
          
					</g>
					
        
				</g>
				
      
			</g>
			
    
		</g>
		
  
	</g>
	

</svg>