<?xml version="1.0" encoding="iso-8859-1"?><svg height="40" style="enable-background:new 0 0 1000 250;" version="1.1" viewBox="0 0 1000 250" width="170" x="0px" xml:space="preserve" xmlns="http://www.w3.org/2000/svg" xmlns:xlink="http://www.w3.org/1999/xlink" y="0px">
	<g id="BoundingBox">
		 
		
	</g>
	<g id="C_x5F_NRAD">
		 
		
		 
		
		 
		
		 
		
	</g>
	<g id="C_-_ueberfuellt_-_spart_aus">
		 
		<path animation_id="3" d="M181.875,88.066l32.08,0.015l6.836-31.177l-57.061-0.005c-50.107,0-77.402,31.841-77.402,90.542  c0,33.76,14.4,45.459,56.275,45.459h47.641l7.368-32.793h-27.719c-3.257,0-8.897-0.322-11.7-0.498  c-0.117-0.029-0.341-0.088-0.341-0.088c-2.115-0.156-3.34-0.371-5.459-0.82c-1.045-0.225-1.817-0.352-2.754-0.605  c-1.377-0.391-2.202-0.625-2.979-0.889c-7.91-2.578-11.557-8.398-11.689-20.264C135.244,105.391,152.031,88.066,181.875,88.066z" stroke="black" style="fill:#FFE600;"/>
	</g>
	<g id="O_-_geteilt_-_spart_aus">
		 
		
	</g>
</svg>