<?xml version="1.0" encoding="iso-8859-1"?><svg height="40" style="enable-background:new 0 0 1000 250;" version="1.1" viewBox="0 0 1000 250" width="170" x="0px" xml:space="preserve" xmlns="http://www.w3.org/2000/svg" xmlns:xlink="http://www.w3.org/1999/xlink" y="0px">
	<g id="BoundingBox">
		 
		
	</g>
	<g id="C_x5F_NRAD">
		 
		
		 
		
		 
		
		 
		<path animation_id="2" d="M633.75,175.762l-20.273-25.83  c31.211-6.719,47.656-24.366,47.656-51.597c0-29.546-17.188-41.436-60.371-41.436h-89.746L480.371,192.9h52.715l22.812-101.084  h33.457c14.961,0,22.813,4.6,22.813,13.233c0,12.275-7.109,18.408-21.699,18.408h-36.817l25.235,43.545  c14.765,25.137,16.074,25.898,45.625,25.898h52.656l0,0l16.465-24.355h55.527l-5.43,24.355h52.735l30.644-136.001h-63.554  c-44.688,0-46.367,0.962-75.352,42.012L633.75,175.762z M755.078,135.342h-40.371l15.703-23.96  c11.211-17.461,14.57-19.566,30.84-19.566h3.555L755.078,135.342L755.078,135.342z" stroke="black" style="fill-rule:evenodd;clip-rule:evenodd;fill:#0098DD;"/>
	</g>
	<g id="C_-_ueberfuellt_-_spart_aus">
		 
		
	</g>
	<g id="O_-_geteilt_-_spart_aus">
		 
		
	</g>
</svg>