<?xml version="1.0" encoding="iso-8859-1"?><!-- Created with Inkscape (http://www.inkscape.org/) --><svg height="283.11023" id="svg5479" version="1.1" width="715.74799" xmlns="http://www.w3.org/2000/svg" xmlns:cc="http://creativecommons.org/ns#" xmlns:dc="http://purl.org/dc/elements/1.1/" xmlns:rdf="http://www.w3.org/1999/02/22-rdf-syntax-ns#" xmlns:svg="http://www.w3.org/2000/svg">
	
  
	<defs id="defs5481"/>
	
  
	<metadata id="metadata5484">
		
    
		<rdf:RDF>
			
      
			<cc:Work rdf:about="">
				
        
				<dc:format>image/svg+xml</dc:format>
				
        
				<dc:type rdf:resource="http://purl.org/dc/dcmitype/StillImage"/>
				
        
				<dc:title/>
				
      
			</cc:Work>
			
    
		</rdf:RDF>
		
  
	</metadata>
	
  
	<g id="layer1" transform="translate(-21.391424,-316.21053)">
		
    
		<g id="g5504" transform="matrix(7.5101946,0,0,7.5101946,-1659.2156,-6008.0133)">
			
      
			
			
      
			
			
      
			<path animation_id="2" d="m 316.72981,860.35799 c -1.29125,-1.2975 -3.03375,-2.00875 -4.91,-2.00875 l -18.995,0 -0.0863,0 0,5.16375 19.08125,0 c 0.82875,0.015 1.4925,0.615 1.4925,1.3375 l 0.0137,7.91375 c -0.0137,0.73125 -0.685,1.3325 -1.51125,1.3325 l -22.13875,0 0,5.17875 22.14375,0 c 3.74375,-0.0213 6.78875,-2.9375 6.78875,-6.51125 l 0,-7.91375 c 0.005,-1.67625 -0.66,-3.27125 -1.87875,-4.4925" id="path3166" stroke="black" style="fill:#373638;fill-opacity:1;fill-rule:nonzero;"/>
			
      
			
			
      
			
			
      
			
			
    
		</g>
		
  
	</g>
	

</svg>