<?xml version="1.0" encoding="iso-8859-1"?><!-- Created with Inkscape (http://www.inkscape.org/) --><svg height="203.79207" id="svg2" version="1.1" width="588.32782" xmlns="http://www.w3.org/2000/svg" xmlns:cc="http://creativecommons.org/ns#" xmlns:dc="http://purl.org/dc/elements/1.1/" xmlns:rdf="http://www.w3.org/1999/02/22-rdf-syntax-ns#" xmlns:svg="http://www.w3.org/2000/svg">
	
  
	<defs id="defs4"/>
	
  
	<g id="layer1" transform="translate(-100.8361,-736.89472)">
		
    
		<g id="g3115" transform="matrix(2.0684511,0,0,-2.0684511,100.19905,940.99921)">
			
      
			<g id="g3117" transform="scale(0.114792,0.114792)">
				
        
				
				
        
				
				
        
				
				
        
				
				
        
				
				
        
				
				
        
				
				
        
				
				
        
				<path animation_id="8" d="m 1726.52,420.434 c 0,45.246 21.89,67.132 67.13,67.132 l 181.69,0 c 45.25,0 67.13,-21.886 67.13,-67.132 l 0,-95.34 c 0,-45.246 -21.88,-67.133 -67.13,-67.133 l -181.69,0 c -45.24,0 -67.13,21.887 -67.13,67.133 l 0,95.34 z m 75.7,22.187 c -15.66,0 -23.09,-7.433 -23.09,-23.094 l 0,-93.527 c 0,-15.66 7.43,-23.094 23.09,-23.094 l 164.55,0 c 15.66,0 23.09,7.434 23.09,23.094 l 0,93.527 c 0,15.661 -7.43,23.094 -23.09,23.094 l -164.55,0" id="path3135" stroke="black" style="fill:#545f6a;fill-opacity:1;fill-rule:evenodd;"/>
				
        
				
				
        
				
				
        
				
				
        
				
				
      
			</g>
			
    
		</g>
		
  
	</g>
	

</svg>