<?xml version="1.0" encoding="iso-8859-1"?><!-- Created with Inkscape (http://www.inkscape.org/) --><svg height="203.79207" id="svg2" version="1.1" width="588.32782" xmlns="http://www.w3.org/2000/svg" xmlns:cc="http://creativecommons.org/ns#" xmlns:dc="http://purl.org/dc/elements/1.1/" xmlns:rdf="http://www.w3.org/1999/02/22-rdf-syntax-ns#" xmlns:svg="http://www.w3.org/2000/svg">
	
  
	<defs id="defs4"/>
	
  
	<g id="layer1" transform="translate(-100.8361,-736.89472)">
		
    
		<g id="g3115" transform="matrix(2.0684511,0,0,-2.0684511,100.19905,940.99921)">
			
      
			<g id="g3117" transform="scale(0.114792,0.114792)">
				
        
				
				
        
				
				
        
				
				
        
				
				
        
				
				
        
				
				
        
				
				
        
				
				
        
				
				
        
				
				
        
				
				
        
				<path animation_id="11" d="m 263.086,487.566 0,83.055 52.609,-0.004 0,-312.656 -241.6716,0 c -45.2421,0 -67.12887,21.891 -67.12887,67.133 l 0,95.34 c 0,45.246 21.88677,67.132 67.12887,67.132 l 189.0626,0 z m 0,-184.66 0,139.715 -180.4883,0 c -15.6602,0 -23.0938,-7.433 -23.0938,-23.094 l 0,-93.527 c 0,-15.66 7.4336,-23.094 23.0938,-23.094 l 180.4883,0" id="path3141" stroke="black" style="fill:#545f6a;fill-opacity:1;fill-rule:evenodd;"/>
				
        
				
				
      
			</g>
			
    
		</g>
		
  
	</g>
	

</svg>