<?xml version="1.0" encoding="iso-8859-1"?><!-- Created with Inkscape (http://www.inkscape.org/) --><svg height="203.79207" id="svg2" version="1.1" width="588.32782" xmlns="http://www.w3.org/2000/svg" xmlns:cc="http://creativecommons.org/ns#" xmlns:dc="http://purl.org/dc/elements/1.1/" xmlns:rdf="http://www.w3.org/1999/02/22-rdf-syntax-ns#" xmlns:svg="http://www.w3.org/2000/svg">
	
  
	<defs id="defs4"/>
	
  
	<g id="layer1" transform="translate(-100.8361,-736.89472)">
		
    
		<g id="g3115" transform="matrix(2.0684511,0,0,-2.0684511,100.19905,940.99921)">
			
      
			<g id="g3117" transform="scale(0.114792,0.114792)">
				
        
				
				
        
				
				
        
				
				
        
				
				
        
				
				
        
				
				
        
				
				
        
				
				
        
				
				
        
				<path animation_id="9" d="m 433.809,325.172 c 0,-15.66 7.433,-23.094 23.093,-23.094 l 181.235,0 0,58.231 -181.235,0 c -15.66,0 -23.093,-7.438 -23.093,-23.098 l 0,-12.039 z m 14.519,-67.211 c -45.242,0 -67.129,21.887 -67.129,67.133 l 0,12.195 c 0,45.246 21.887,67.133 67.129,67.133 l 189.809,0 0,15.933 c 0,15.661 -7.434,23.094 -23.094,23.094 l -183.496,0 -0.008,44.117 192.078,0 c 45.242,0 67.133,-21.886 67.133,-67.132 l 0,-162.473 -242.422,0" id="path3137" stroke="black" style="fill:#545f6a;fill-opacity:1;fill-rule:evenodd;"/>
				
        
				
				
        
				
				
        
				
				
      
			</g>
			
    
		</g>
		
  
	</g>
	

</svg>