<?xml version="1.0" encoding="iso-8859-1"?><svg height="192.54414" id="svg3212" version="1.1" width="599.68622" xmlns="http://www.w3.org/2000/svg" xmlns:svg="http://www.w3.org/2000/svg">
	
  
	<defs id="defs3214"/>
	
  
	<g id="layer1" transform="translate(11.27167,-427.51856)">
		
    
		
		
    
		
		
    
		<path animation_id="2" d="m 25.865922,460.35828 0,120.75436 44.358746,0 c 36.801332,-0.28915 47.973162,-26.03036 47.973162,-60.9522 0,-40.22517 -16.75775,-59.80216 -47.973162,-59.80216 l -44.358746,0 z m 105.146658,0 0,120.75436 46.82312,0 c 21.75222,0 42.38725,-10.40294 42.38725,-34.99412 0,-15.06226 -10.02179,-24.07858 -24.80804,-28.25816 10.58038,-5.30334 20.37216,-13.57049 20.37216,-25.30092 0,-22.63939 -12.51902,-32.20116 -35.65129,-32.20116 l -49.1232,0 z m 28.75104,18.72925 8.05029,0 c 9.4632,0 18.40067,3.00982 18.40067,14.45766 0,10.34381 -6.96597,14.62196 -16.42917,14.62196 l -10.02179,0 0,-29.07962 z m -104.818075,0.32858 5.914499,0 c 26.155231,0 28.586748,18.90011 28.586748,43.20871 0,26.54953 -8.773174,38.93712 -24.150873,38.93712 l -10.350374,0 0,-82.14583 z m 104.818075,51.09471 10.51467,0 c 11.43469,0 19.22212,2.82581 19.22212,15.11483 0,12.57817 -9.0689,15.93629 -19.38642,15.93629 l -10.35037,0 0,-31.05112 z" id="path62" stroke="black" style="fill:#ed1c24;fill-opacity:1;fill-rule:nonzero;"/>
		
    
		
		
  
	</g>
	

</svg>