<?xml version="1.0" encoding="iso-8859-1"?><!-- Created with Inkscape (http://www.inkscape.org/) --><svg height="65" id="svg2660" inkscape:output_extension="org.inkscape.output.svg.inkscape" inkscape:version="0.46" sodipodi:docname="DB.svg" sodipodi:version="0.32" version="1.0" width="370" xmlns="http://www.w3.org/2000/svg" xmlns:cc="http://creativecommons.org/ns#" xmlns:dc="http://purl.org/dc/elements/1.1/" xmlns:inkscape="http://www.inkscape.org/namespaces/inkscape" xmlns:rdf="http://www.w3.org/1999/02/22-rdf-syntax-ns#" xmlns:sodipodi="http://sodipodi.sourceforge.net/DTD/sodipodi-0.dtd" xmlns:svg="http://www.w3.org/2000/svg">
	
  
	<defs id="defs2662">
		
    
		<clipPath clipPathUnits="userSpaceOnUse" id="clipPath2432">
			
      
			
			
    
		</clipPath>
		
    
		<clipPath clipPathUnits="userSpaceOnUse" id="clipPath2480">
			
      
			
			
    
		</clipPath>
		
    
		<inkscape:perspective id="perspective2668" inkscape:persp3d-origin="372.04724 : 350.78739 : 1" inkscape:vp_x="0 : 526.18109 : 1" inkscape:vp_y="0 : 1000 : 0" inkscape:vp_z="744.09448 : 526.18109 : 1" sodipodi:type="inkscape:persp3d"/>
		
  
	</defs>
	
  
	<sodipodi:namedview bordercolor="#666666" borderopacity="1.0" gridtolerance="10000" guidetolerance="10" id="base" inkscape:current-layer="layer1" inkscape:cx="66.356283" inkscape:cy="63.261356" inkscape:document-units="px" inkscape:pageopacity="0.0" inkscape:pageshadow="2" inkscape:window-height="838" inkscape:window-width="1280" inkscape:window-x="-8" inkscape:window-y="-8" inkscape:zoom="1.4" objecttolerance="10" pagecolor="#ffffff" showgrid="false"/>
	
  
	<metadata id="metadata2665">
		
    
		<rdf:RDF>
			
      
			<cc:Work rdf:about="">
				
        
				<dc:format>image/svg+xml</dc:format>
				
        
				<dc:type rdf:resource="http://purl.org/dc/dcmitype/StillImage"/>
				
      
			</cc:Work>
			
    
		</rdf:RDF>
		
  
	</metadata>
	
  
	<g id="layer1" inkscape:groupmode="layer" inkscape:label="Layer 1" transform="translate(-45.315482,-306.34158)">
		
    
		<g id="g2723" transform="matrix(1.7085441,0,0,1.7085441,15.527082,-229.0139)">
			
      
			<g clip-path="url(#clipPath2432)" id="g2430" transform="matrix(1.25,0,0,-1.25,-486.74334,1342.2987)">
				
        
				<g id="g2436" transform="translate(441.8902,822.4804)">
					
          
					
					
        
				</g>
				
        
				<g id="g2440" transform="translate(442.9886,797.6008)">
					
          
					
					
        
				</g>
				
        
				<g id="g2444" transform="translate(436.0031,804.0316)">
					
          
					
					
        
				</g>
				
        
				<g id="g2448" transform="translate(420.2326,807.642)">
					
          
					
					
        
				</g>
				
        
				<g id="g2452" transform="translate(463.3661,808.1006)">
					
          
					<path animation_id="6" d="M 0,0 C 0.003,-0.001 -0.26,0.11 -0.26,0.11 C -1.936,0.828 -2.003,0.854 -2.399,1.135 C -2.949,1.521 -3.132,1.819 -3.132,2.32 C -3.132,3.204 -2.394,3.655 -0.933,3.655 C 0.358,3.655 1.302,3.435 2.803,2.776 L 3.038,2.675 L 3.038,6.048 L 2.927,6.09 C 1.485,6.611 0.278,6.836 -1.107,6.836 C -4.831,6.836 -6.965,5.048 -6.965,1.932 C -6.965,-0.416 -5.901,-1.763 -3.17,-2.873 C -0.266,-4.078 0.009,-4.38 0.009,-5.26 C 0.009,-6.286 -0.858,-6.81 -2.563,-6.81 C -4.036,-6.81 -5.149,-6.518 -6.811,-5.698 L -7.054,-5.578 L -7.054,-8.952 L -6.957,-8.999 C -5.412,-9.704 -4.065,-9.99 -2.302,-9.99 C 1.771,-9.99 4.016,-8.202 4.016,-4.956 C 4.016,-2.496 3.001,-1.245 0,0" id="path2454" stroke="black" style="fill:#000000;fill-opacity:1;fill-rule:nonzero;"/>
					
        
				</g>
				
        
				<g id="g2456" transform="translate(480.8019,802.0853)">
					
          
					
					
        
				</g>
				
        
				<g id="g2460" transform="translate(493.2924,814.5656)">
					
          
					
					
        
				</g>
				
        
				<g id="g2464" transform="translate(504.7097,801.7065)">
					
          
					
					
        
				</g>
				
        
				<g id="g2468" transform="translate(524.7971,814.5656)">
					
          
					
					
        
				</g>
				
        
				<g id="g2472" transform="translate(539.1285,806.9666)">
					
          
					
					
        
				</g>
				
      
			</g>
			
      
			<g id="g2476" transform="matrix(1.25,0,0,-1.25,-486.74334,1342.2987)">
				
        
				<g clip-path="url(#clipPath2480)" id="g2478">
					
          
					<g id="g2484" transform="translate(551.4013,801.7065)">
						
            
						
						
          
					</g>
					
          
					<g id="g2488" transform="translate(565.4608,811.4522)">
						
            
						
						
          
					</g>
					
        
				</g>
				
      
			</g>
			
    
		</g>
		
  
	</g>
	

</svg>