<?xml version="1.0" encoding="iso-8859-1"?><svg height="105" viewBox="0 0 353.98544 105" width="353.98544" xmlns="http://www.w3.org/2000/svg" xmlns:xlink="http://www.w3.org/1999/xlink">
	
  
	<clipPath id="a">
		
    
		
		
  
	</clipPath>
	
  
	<g fill="#4f4f51">
		
    
		<g clip-path="url(#a)" transform="matrix(3.14738765465 0 0 -3.14738765465 -1384.61797638455 2535.31108257555)">
			
      
			
			
      
			
			
      
			<path animation_id="3" d="m0 0h2.445c2.594 0 5.336-.519 5.336-3.891 0-3.001-2.927-3.594-5.336-3.594h-2.445zm0 10.227h2.001c2.372 0 5.002-.222 5.002-3.223 0-2.669-2.705-3.15-4.891-3.15h-2.112zm-5.188-21.788h9.042c3.261 0 9.115.963 9.115 7.485 0 3.186-2.408 5.558-5.929 5.892v.074c3.076.556 5.151 2.705 5.151 5.781 0 5.669-5.002 6.632-8.337 6.632h-9.042z" stroke="black" transform="translate(513.6138 787.0597)"/>
			
    
		</g>
		
    
		
		
  
	</g>
	

</svg>