<?xml version="1.0" encoding="iso-8859-1"?><!-- Created with Inkscape (http://www.inkscape.org/) --><svg height="685" id="svg4178" version="1.1" width="685" xmlns="http://www.w3.org/2000/svg" xmlns:cc="http://creativecommons.org/ns#" xmlns:dc="http://purl.org/dc/elements/1.1/" xmlns:rdf="http://www.w3.org/1999/02/22-rdf-syntax-ns#" xmlns:svg="http://www.w3.org/2000/svg">
	
  
	<defs id="defs4180">
		
    
		<clipPath id="clipPath3043">
			
      
			
			
    
		</clipPath>
		
    
		<clipPath id="clipPath3055">
			
      
			
			
    
		</clipPath>
		
    
		<clipPath id="clipPath3065">
			
      
			
			
    
		</clipPath>
		
  
	</defs>
	
  
	<metadata id="metadata4183">
		
    
		<rdf:RDF>
			
      
			<cc:Work rdf:about="">
				
        
				<dc:format>image/svg+xml</dc:format>
				
        
				<dc:type rdf:resource="http://purl.org/dc/dcmitype/StillImage"/>
				
        
				<dc:title/>
				
      
			</cc:Work>
			
    
		</rdf:RDF>
		
  
	</metadata>
	
  
	<g id="layer1" transform="translate(0,-83)">
		
    
		<g id="g4089" transform="matrix(3.75,0,0,-3.75,-159.87413,2835.0683)">
			
      
			<g id="g3039">
				
        
				<g clip-path="url(#clipPath3043)" id="g3041">
					
          
					<g id="g3047" transform="translate(43.4646,642.4164)">
						
            
						
						
          
					</g>
					
        
				</g>
				
      
			</g>
			
      
			<g id="g3051">
				
        
				<g clip-path="url(#clipPath3055)" id="g3053">
					
          
					
					
        
				</g>
				
      
			</g>
			
      
			<g id="g3061">
				
        
				<g clip-path="url(#clipPath3065)" id="g3063">
					
          
					
					
          
					<g id="g3071" transform="translate(186.034,642.8002)">
						
            
						
						
          
					</g>
					
          
					<g id="g3075" transform="translate(175.1771,659.0289)">
						
            
						
						
          
					</g>
					
          
					<g id="g3079" transform="translate(144.2487,659.0289)">
						
            
						
						
          
					</g>
					
          
					<g id="g3083" transform="translate(114.3687,647.9113)">
						
            
						
						
          
					</g>
					
          
					<g id="g3087" transform="translate(66.6674,649.5751)">
						
            
						
						
          
					</g>
					
          
					<g id="g3091" transform="translate(208.0478,615.1422)">
						
            
						
						
          
					</g>
					
          
					<g id="g3095" transform="translate(190.1828,610.9183)">
						
            
						
						
          
					</g>
					
          
					<g id="g3099" transform="translate(144.5539,615.1422)">
						
            
						
						
          
					</g>
					
          
					
					
          
					<g id="g3105" transform="translate(176.9915,609.9992)">
						
            
						
						
          
					</g>
					
          
					<g id="g3109" transform="translate(157.4761,615.1422)">
						
            
						
						
          
					</g>
					
          
					<g id="g3113" transform="translate(121.5422,615.2555)">
						
            
						<path animation_id="17" d="m 0,0 c 3.729,0 4.73,-0.878 4.73,-4.118 l 0,-1.952 c 0,-3.239 -1.001,-4.118 -4.73,-4.118 l -1.778,0 c -3.729,0 -4.73,0.879 -4.73,4.118 l 0,1.952 c 0,3.24 1.001,4.118 4.73,4.118 L 0,0 z m 3.47,-6.07 0,1.952 c 0,2.381 -0.742,3.025 -3.47,3.025 l -1.778,0 c -2.728,0 -3.452,-0.644 -3.452,-3.025 l 0,-1.952 c 0,-2.361 0.724,-3.005 3.452,-3.005 l 1.778,0 c 2.728,0 3.47,0.644 3.47,3.005" id="path3115" stroke="black" style="fill:#563938;fill-opacity:1;fill-rule:nonzero;"/>
						
          
					</g>
					
          
					<g id="g3117" transform="translate(99.9384,612.4592)">
						
            
						
						
          
					</g>
					
        
				</g>
				
      
			</g>
			
    
		</g>
		
  
	</g>
	

</svg>