<?xml version="1.0" encoding="iso-8859-1"?><svg height="50" viewBox="0 0 240 48.17" width="240" xmlns="http://www.w3.org/2000/svg">
	
  
	<title>accumotive-logo-final</title>
	
  
	
	
  
	
	
  
	
	
  
	
	
  
	<g style="isolation: isolate">
		
    
		
		
    
		
		
    
		
		
    
		
		
    
		
		
    
		
		
    
		
		
    
		<path animation_id="8" d="M102.36,42.36a4,4,0,0,1,.13,1c0,.09,0,.23,0,.41.46-1.11,1-1.61,1.71-1.61a1.76,1.76,0,0,1,.79.21v1a1.9,1.9,0,0,0-.88-.27,1.48,1.48,0,0,0-1.27,1,4.47,4.47,0,0,0-.3,1.9v3h-1V44.65a12.27,12.27,0,0,0-.11-2.29Z" stroke="black" style="fill: #666" transform="translate(0 -1)"/>
		
    
		
		
    
		
		
    
		
		
    
		
		
    
		
		
    
		
		
    
		
		
    
		
		
    
		
		
    
		
		
    
		
		
    
		
		
    
		
		
    
		
		
    
		
		
    
		
		
    
		
		
    
		
		
  
	</g>
	

</svg>