<?xml version="1.0" encoding="iso-8859-1"?><svg height="50" viewBox="0 0 240 48.17" width="240" xmlns="http://www.w3.org/2000/svg">
	
  
	<title>accumotive-logo-final</title>
	
  
	
	
  
	
	
  
	
	
  
	
	
  
	<g style="isolation: isolate">
		
    
		
		
    
		
		
    
		
		
    
		
		
    
		
		
    
		
		
    
		
		
    
		
		
    
		
		
    
		
		
    
		
		
    
		
		
    
		
		
    
		
		
    
		
		
    
		
		
    
		
		
    
		
		
    
		<path animation_id="19" d="M185.83,44.1c.14-1.25,1-1.92,2.48-1.92a2.1,2.1,0,0,1,2.13,1.09,4,4,0,0,1,.15,1.49v2.49a4.32,4.32,0,0,0,.19,1.75h-.94a3.85,3.85,0,0,1-.16-.89,2,2,0,0,1-1.94,1.06,1.92,1.92,0,0,1-2.15-1.92,2.09,2.09,0,0,1,1.54-2,13,13,0,0,1,2.5-.59v-.28c0-1-.38-1.37-1.36-1.37s-1.33.34-1.47,1.08Zm3.8,1.3c-2.24.39-3,.87-3,1.78a1.17,1.17,0,0,0,1.29,1.16,1.64,1.64,0,0,0,1.49-.82,3.27,3.27,0,0,0,.25-1.46Z" stroke="black" style="fill: #666" transform="translate(0 -1)"/>
		
    
		
		
    
		
		
    
		
		
    
		
		
    
		
		
    
		
		
    
		
		
  
	</g>
	

</svg>