<?xml version="1.0" encoding="iso-8859-1"?><svg height="50" viewBox="0 0 240 48.17" width="240" xmlns="http://www.w3.org/2000/svg">
	
  
	<title>accumotive-logo-final</title>
	
  
	
	
  
	
	
  
	
	
  
	
	
  
	<g style="isolation: isolate">
		
    
		
		
    
		
		
    
		
		
    
		
		
    
		
		
    
		
		
    
		
		
    
		
		
    
		
		
    
		
		
    
		
		
    
		
		
    
		
		
    
		
		
    
		
		
    
		
		
    
		
		
    
		
		
    
		
		
    
		
		
    
		
		
    
		
		
    
		
		
    
		
		
    
		
		
    
		<path animation_id="26" d="M238.82,44.37V48.2a5.09,5.09,0,0,1-3.08,1c-2.52,0-4-1.82-4-4.86s1.51-4.82,3.89-4.82a2.89,2.89,0,0,1,3.1,2.75h-1a2,2,0,0,0-2.12-1.82c-1.72,0-2.77,1.47-2.77,3.9s1.06,3.93,2.93,3.93a4.08,4.08,0,0,0,2.11-.62V45.26l-1.89,0v-.91Z" stroke="black" style="fill: #666" transform="translate(0 -1)"/>
		
  
	</g>
	

</svg>