<?xml version="1.0" encoding="iso-8859-1"?><svg height="50" viewBox="0 0 240 48.17" width="240" xmlns="http://www.w3.org/2000/svg">
	
  
	<title>accumotive-logo-final</title>
	
  
	
	
  
	
	
  
	
	
  
	
	
  
	<g style="isolation: isolate">
		
    
		
		
    
		
		
    
		
		
    
		
		
    
		
		
    
		
		
    
		
		
    
		
		
    
		
		
    
		
		
    
		
		
    
		
		
    
		
		
    
		
		
    
		<path animation_id="15" d="M160.26,47a8.51,8.51,0,0,0,.12,2h-1a2.53,2.53,0,0,1-.1-.71,2.27,2.27,0,0,1,0-.24,2,2,0,0,1-1.87,1.12c-1.62,0-2.67-1.34-2.67-3.43s1.05-3.56,2.61-3.56a2,2,0,0,1,1.88,1.12V39.62h1ZM155.8,45.7c0,1.61.67,2.62,1.74,2.62s1.75-1,1.75-2.64S158.62,43,157.57,43,155.8,44,155.8,45.7Z" stroke="black" style="fill: #666" transform="translate(0 -1)"/>
		
    
		
		
    
		
		
    
		
		
    
		
		
    
		
		
    
		
		
    
		
		
    
		
		
    
		
		
    
		
		
    
		
		
  
	</g>
	

</svg>