<?xml version="1.0" encoding="iso-8859-1"?><svg height="50" viewBox="0 0 240 48.17" width="240" xmlns="http://www.w3.org/2000/svg">
	
  
	<title>accumotive-logo-final</title>
	
  
	
	
  
	
	
  
	
	
  
	
	
  
	<g style="isolation: isolate">
		
    
		
		
    
		
		
    
		
		
    
		
		
    
		
		
    
		
		
    
		
		
    
		
		
    
		
		
    
		
		
    
		
		
    
		
		
    
		
		
    
		
		
    
		
		
    
		
		
    
		
		
    
		<path animation_id="18" d="M178.85,39.66a6.16,6.16,0,0,1,3.28.53,4.61,4.61,0,0,1,2.11,4.13A4.49,4.49,0,0,1,182,48.5c-.77.4-1.39.5-3.31.5h-1.35V39.66Zm.26,8.43a4.08,4.08,0,0,0,2.55-.47,3.68,3.68,0,0,0,1.47-3.3A3.57,3.57,0,0,0,181.49,41c-.6-.32-1-.38-2.64-.38h-.42v7.52Z" stroke="black" style="fill: #666" transform="translate(0 -1)"/>
		
    
		
		
    
		
		
    
		
		
    
		
		
    
		
		
    
		
		
    
		
		
    
		
		
  
	</g>
	

</svg>