<?xml version="1.0" encoding="iso-8859-1"?><svg height="50" viewBox="0 0 240 48.17" width="240" xmlns="http://www.w3.org/2000/svg">
	
  
	<title>accumotive-logo-final</title>
	
  
	
	
  
	
	
  
	
	
  
	
	
  
	<g style="isolation: isolate">
		
    
		
		
    
		
		
    
		
		
    
		
		
    
		
		
    
		
		
    
		<path animation_id="7" d="M95.34,45.85c0,1.61.71,2.48,1.92,2.48a1.57,1.57,0,0,0,1.54-1l.91.11a2.43,2.43,0,0,1-2.47,1.74c-1.78,0-2.91-1.33-2.91-3.42s1.12-3.57,2.86-3.57,2.69,1.33,2.69,3.39a1.83,1.83,0,0,1,0,.28Zm3.51-.77c-.11-1.34-.71-2.07-1.71-2.07s-1.58.71-1.78,2.07Z" stroke="black" style="fill: #666" transform="translate(0 -1)"/>
		
    
		
		
    
		
		
    
		
		
    
		
		
    
		
		
    
		
		
    
		
		
    
		
		
    
		
		
    
		
		
    
		
		
    
		
		
    
		
		
    
		
		
    
		
		
    
		
		
    
		
		
    
		
		
    
		
		
  
	</g>
	

</svg>