<?xml version="1.0" encoding="iso-8859-1"?><svg height="50" viewBox="0 0 240 48.17" width="240" xmlns="http://www.w3.org/2000/svg">
	
  
	<title>accumotive-logo-final</title>
	
  
	
	
  
	
	
  
	
	
  
	
	
  
	<g style="isolation: isolate">
		
    
		
		
    
		
		
    
		
		
    
		
		
    
		
		
    
		
		
    
		
		
    
		
		
    
		
		
    
		
		
    
		
		
    
		
		
    
		
		
    
		
		
    
		
		
    
		
		
    
		
		
    
		
		
    
		
		
    
		
		
    
		
		
    
		
		
    
		
		
    
		<path animation_id="24" d="M217.18,42.36a4.51,4.51,0,0,1,.12,1c0,.09,0,.23,0,.41.46-1.11,1-1.61,1.71-1.61a1.8,1.8,0,0,1,.8.21v1a1.93,1.93,0,0,0-.88-.27,1.49,1.49,0,0,0-1.28,1,4.5,4.5,0,0,0-.29,1.9v3h-1V44.65a11.41,11.41,0,0,0-.11-2.29Z" stroke="black" style="fill: #666" transform="translate(0 -1)"/>
		
    
		
		
    
		
		
  
	</g>
	

</svg>