<?xml version="1.0" encoding="iso-8859-1"?><!DOCTYPE svg  PUBLIC '-//W3C//DTD SVG 1.1//EN'  'http://www.w3.org/Graphics/SVG/1.1/DTD/svg11.dtd'><!-- Creator: CorelDRAW --><svg height="49.9999mm" style="shape-rendering:geometricPrecision; text-rendering:geometricPrecision; image-rendering:optimizeQuality; fill-rule:evenodd; clip-rule:evenodd" viewBox="0 0 14.1041 14.104" width="50mm" xml:space="preserve" xmlns="http://www.w3.org/2000/svg" xmlns:xlink="http://www.w3.org/1999/xlink">
	
 
	<defs>
		
  
		<style type="text/css">
			
   
<![CDATA[
    .fil2 {fill:white}
    .fil0 {fill:#002156;fill-rule:nonzero}
    .fil1 {fill:white;fill-rule:nonzero}
   ]]>			
  
		</style>
		
 
	</defs>
	
 
	<g id="Ebene_x0020_1">
		
  
		<metadata id="CorelCorpID_0Corel-Layer"/>
		
  
		<g id="_153970080">
			
   
			
			
   
			
			
   
			
			
   
			
			
   
			
			
   
			
			
   
			
			
   
			
			
   
			
			
   
			
			
   
			
			
   
			
			
   
			
			
   
			
			
   
			
			
   
			
			
   
			
			
   
			
			
   
			
			
   
			
			
   
			<path animation_id="16" class="fil1" d="M12.9556 6.5049l-0.119969 0c-0.0124398,-0.102311 -0.0652736,-0.150152 -0.17128,-0.150152 -0.095287,0 -0.160673,0.0512823 -0.160673,0.12547 0,0.0687996 0.0353166,0.095428 0.19599,0.14121 0.150124,0.045951 0.199516,0.0707459 0.234833,0.121803 0.0230178,0.0352601 0.0351755,0.0794058 0.0351755,0.128911 0,0.160871 -0.116415,0.261433 -0.303547,0.261433 -0.201293,0 -0.316072,-0.100562 -0.316072,-0.279091l0 -0.00166428 0.119997 0c0.0106062,0.119997 0.0741873,0.178332 0.194297,0.178332 0.109504,0 0.178303,-0.0583344 0.178303,-0.148262 0,-0.0830447 -0.0211279,-0.0972051 -0.240079,-0.164256 -0.16245,-0.0512541 -0.224226,-0.112945 -0.224226,-0.229727 0,-0.141182 0.116528,-0.236497 0.287779,-0.236497 0.178162,0 0.280784,0.0900685 0.289472,0.252491z" id="_153970008" stroke="black"/>
			
  
		</g>
		
 
	</g>
	

</svg>