<?xml version="1.0" encoding="iso-8859-1"?><!DOCTYPE svg  PUBLIC '-//W3C//DTD SVG 1.1//EN'  'http://www.w3.org/Graphics/SVG/1.1/DTD/svg11.dtd'><!-- Creator: CorelDRAW --><svg height="49.9999mm" style="shape-rendering:geometricPrecision; text-rendering:geometricPrecision; image-rendering:optimizeQuality; fill-rule:evenodd; clip-rule:evenodd" viewBox="0 0 14.1041 14.104" width="50mm" xml:space="preserve" xmlns="http://www.w3.org/2000/svg" xmlns:xlink="http://www.w3.org/1999/xlink">
	
 
	<defs>
		
  
		<style type="text/css">
			
   
<![CDATA[
    .fil2 {fill:white}
    .fil0 {fill:#002156;fill-rule:nonzero}
    .fil1 {fill:white;fill-rule:nonzero}
   ]]>			
  
		</style>
		
 
	</defs>
	
 
	<g id="Ebene_x0020_1">
		
  
		<metadata id="CorelCorpID_0Corel-Layer"/>
		
  
		<g id="_153970080">
			
   
			
			
   
			
			
   
			
			
   
			
			
   
			
			
   
			
			
   
			
			
   
			
			
   
			
			
   
			
			
   
			
			
   
			
			
   
			<path animation_id="8" class="fil1" d="M5.59463 6.5049l-0.12011 0c-0.0122987,-0.102311 -0.0652454,-0.150152 -0.17128,-0.150152 -0.0953998,0 -0.160673,0.0512823 -0.160673,0.12547 0,0.0687996 0.0354576,0.095428 0.195962,0.14121 0.15018,0.045951 0.199544,0.0707459 0.234974,0.121803 0.022905,0.0352601 0.0352037,0.0794058 0.0352037,0.128911 0,0.160871 -0.116528,0.261433 -0.30366,0.261433 -0.201237,0 -0.316072,-0.100562 -0.316072,-0.279091l0 -0.00166428 0.120082 0c0.0106345,0.119997 0.0740745,0.178332 0.194185,0.178332 0.109476,0 0.178303,-0.0583344 0.178303,-0.148262 0,-0.0830447 -0.0209868,-0.0972051 -0.240107,-0.164256 -0.162535,-0.0512541 -0.224198,-0.112945 -0.224198,-0.229727 0,-0.141182 0.116528,-0.236497 0.287807,-0.236497 0.178275,0 0.280727,0.0900685 0.289584,0.252491z" id="_68289896" stroke="black"/>
			
   
			
			
   
			
			
   
			
			
   
			
			
   
			
			
   
			
			
   
			
			
   
			
			
  
		</g>
		
 
	</g>
	

</svg>