<?xml version="1.0" encoding="iso-8859-1"?><!DOCTYPE svg  PUBLIC '-//W3C//DTD SVG 1.1//EN'  'http://www.w3.org/Graphics/SVG/1.1/DTD/svg11.dtd'><!-- Creator: CorelDRAW --><svg height="49.9999mm" style="shape-rendering:geometricPrecision; text-rendering:geometricPrecision; image-rendering:optimizeQuality; fill-rule:evenodd; clip-rule:evenodd" viewBox="0 0 14.1041 14.104" width="50mm" xml:space="preserve" xmlns="http://www.w3.org/2000/svg" xmlns:xlink="http://www.w3.org/1999/xlink">
	
 
	<defs>
		
  
		<style type="text/css">
			
   
<![CDATA[
    .fil2 {fill:white}
    .fil0 {fill:#002156;fill-rule:nonzero}
    .fil1 {fill:white;fill-rule:nonzero}
   ]]>			
  
		</style>
		
 
	</defs>
	
 
	<g id="Ebene_x0020_1">
		
  
		<metadata id="CorelCorpID_0Corel-Layer"/>
		
  
		<g id="_153970080">
			
   
			
			
   
			
			
   
			
			
   
			
			
   
			
			
   
			
			
   
			
			
   
			
			
   
			
			
   
			
			
   
			
			
   
			
			
   
			
			
   
			
			
   
			<path animation_id="10" class="fil1" d="M7.89545 6.49438l0.0829883 0c0.14482,0 0.183578,-0.00369526 0.238443,-0.0230178 0.0847936,-0.029957 0.132352,-0.104229 0.132352,-0.204791 0,-0.0900403 -0.0407889,-0.158981 -0.111253,-0.189023 -0.0566419,-0.0245693 -0.0934817,-0.0282927 -0.261433,-0.0282927l-0.0810983 0 0 0.445124zm-0.130716 -0.559733l0.206681 0c0.18355,0 0.250826,0.0086881 0.328342,0.0369808 0.118305,0.0458946 0.188938,0.157204 0.188938,0.296608 0,0.155427 -0.0812111,0.261461 -0.241885,0.319654l0.310684 0.524276 -0.158727 0 -0.298696 -0.503063 -0.204622 0 0 0.503063 -0.130716 0 0 -1.17752z" id="_68149416" stroke="black"/>
			
   
			
			
   
			
			
   
			
			
   
			
			
   
			
			
   
			
			
  
		</g>
		
 
	</g>
	

</svg>