<?xml version="1.0" encoding="iso-8859-1"?><!DOCTYPE svg  PUBLIC '-//W3C//DTD SVG 1.1//EN'  'http://www.w3.org/Graphics/SVG/1.1/DTD/svg11.dtd'><!-- Creator: CorelDRAW --><svg height="49.9999mm" style="shape-rendering:geometricPrecision; text-rendering:geometricPrecision; image-rendering:optimizeQuality; fill-rule:evenodd; clip-rule:evenodd" viewBox="0 0 14.1041 14.104" width="50mm" xml:space="preserve" xmlns="http://www.w3.org/2000/svg" xmlns:xlink="http://www.w3.org/1999/xlink">
	
 
	<defs>
		
  
		<style type="text/css">
			
   
<![CDATA[
    .fil2 {fill:white}
    .fil0 {fill:#002156;fill-rule:nonzero}
    .fil1 {fill:white;fill-rule:nonzero}
   ]]>			
  
		</style>
		
 
	</defs>
	
 
	<g id="Ebene_x0020_1">
		
  
		<metadata id="CorelCorpID_0Corel-Layer"/>
		
  
		<g id="_153970080">
			
   
			
			
   
			
			
   
			
			
   
			
			
   
			<path animation_id="3" class="fil2" d="M4.18287 4.81704c0,-0.138389 0.000253873,-0.646417 0.000253873,-0.647686 0,-0.109504 0.0880093,-0.198275 0.196723,-0.198275 0.112043,0 0.456887,0.000366705 0.568817,0.000366705 0.10846,0 0.197457,0.0900685 0.197457,0.199685l0 0.649407c0,0.109589 -0.0915353,0.197993 -0.200165,0.197993 -0.100759,0.000253873 -0.45982,0 -0.564585,0 -0.108573,0 -0.1985,-0.0920995 -0.1985,-0.201491zm1.44688 0.00617758c0,0.30366 -0.244028,0.549466 -0.545009,0.549466 -0.202619,0 -0.629041,-0.000253873 -0.839727,0 -0.300981,0 -0.544106,-0.248401 -0.544106,-0.551892l0 -0.654287 -0.000902659 0c0,-0.303491 0.244028,-0.54972 0.545009,-0.54972l0.839727 0c0.300981,0 0.545009,0.246229 0.545009,0.54972l0 0.656713z" id="_68226024" stroke="black"/>
			
   
			
			
   
			
			
   
			
			
   
			
			
   
			
			
   
			
			
   
			
			
   
			
			
   
			
			
   
			
			
   
			
			
   
			
			
   
			
			
   
			
			
   
			
			
   
			
			
  
		</g>
		
 
	</g>
	

</svg>