<?xml version="1.0" encoding="iso-8859-1"?><!DOCTYPE svg  PUBLIC '-//W3C//DTD SVG 1.1//EN'  'http://www.w3.org/Graphics/SVG/1.1/DTD/svg11.dtd'><!-- Creator: CorelDRAW --><svg height="49.9999mm" style="shape-rendering:geometricPrecision; text-rendering:geometricPrecision; image-rendering:optimizeQuality; fill-rule:evenodd; clip-rule:evenodd" viewBox="0 0 14.1041 14.104" width="50mm" xml:space="preserve" xmlns="http://www.w3.org/2000/svg" xmlns:xlink="http://www.w3.org/1999/xlink">
	
 
	<defs>
		
  
		<style type="text/css">
			
   
<![CDATA[
    .fil2 {fill:white}
    .fil0 {fill:#002156;fill-rule:nonzero}
    .fil1 {fill:white;fill-rule:nonzero}
   ]]>			
  
		</style>
		
 
	</defs>
	
 
	<g id="Ebene_x0020_1">
		
  
		<metadata id="CorelCorpID_0Corel-Layer"/>
		
  
		<g id="_153970080">
			
   
			
			
   
			
			
   
			
			
   
			
			
   
			
			
   
			
			
   
			
			
   
			
			
   
			
			
   
			
			
   
			
			
   
			
			
   
			
			
   
			
			
   
			
			
   
			
			
   
			
			
   
			
			
   
			
			
   
			<path animation_id="15" class="fil1" d="M12.0162 6.27551l0.199544 0 -0.00177711 0.100647 -0.199431 0 -0.0090548 0.423629 0 0.0831293c0,0.109391 0.0194354,0.137768 0.0937638,0.137768 0.0370937,0 0.079293,-0.00894197 0.121887,-0.0283774l-0.00191815 0.109476c-0.0529748,0.0194636 -0.095428,0.0281235 -0.148403,0.0281235 -0.137627,0 -0.194156,-0.056529 -0.194156,-0.199516 0,-0.0209586 0.00180532,-0.0441457 0.00180532,-0.0688278 0.00163607,-0.0263464 0.00163607,-0.0475589 0.00163607,-0.0653582l0.0107755 -0.420047 -0.125329 0 0.00160786 -0.100647 0.127049 0 0.00547237 -0.242026 0.119997 0 -0.0034696 0.242026z" id="_68149664" stroke="black"/>
			
   
			
			
  
		</g>
		
 
	</g>
	

</svg>