<?xml version="1.0" encoding="iso-8859-1"?><!DOCTYPE svg  PUBLIC '-//W3C//DTD SVG 1.1//EN'  'http://www.w3.org/Graphics/SVG/1.1/DTD/svg11.dtd'><!-- Creator: CorelDRAW --><svg height="49.9999mm" style="shape-rendering:geometricPrecision; text-rendering:geometricPrecision; image-rendering:optimizeQuality; fill-rule:evenodd; clip-rule:evenodd" viewBox="0 0 14.1041 14.104" width="50mm" xml:space="preserve" xmlns="http://www.w3.org/2000/svg" xmlns:xlink="http://www.w3.org/1999/xlink">
	
 
	<defs>
		
  
		<style type="text/css">
			
   
<![CDATA[
    .fil2 {fill:white}
    .fil0 {fill:#002156;fill-rule:nonzero}
    .fil1 {fill:white;fill-rule:nonzero}
   ]]>			
  
		</style>
		
 
	</defs>
	
 
	<g id="Ebene_x0020_1">
		
  
		<metadata id="CorelCorpID_0Corel-Layer"/>
		
  
		<g id="_153970080">
			
   
			
			
   
			
			
   
			
			
   
			
			
   
			
			
   
			
			
   
			<path animation_id="4" class="fil2" d="M2.77119 5.01142l-1.00635 0.00126936 0 -1.51353 1.00381 0 0.00318752 0.00126936c0.108855,0 0.196836,0.0887709 0.196836,0.198247 0.000141041,0.233591 0.000394914,0.883873 0,1.11115 0,0.109871 -0.0888555,0.201603 -0.197485,0.201603zm0.155934 0.354661c-0.432064,-0.000394914 -1.65985,-0.00191815 -1.65985,-0.00191815l0 -2.09882 -0.00115653 -0.130491c-0.000676995,-0.000366705 1.21882,0.00155145 1.66202,0.000789827 0.294859,0 0.531469,0.239797 0.531469,0.536941 0.000507746,0.264282 0.00191815,0.890615 0.00217202,1.15642 0,0.297398 -0.239938,0.537082 -0.534656,0.537082z" id="_68286288" stroke="black"/>
			
   
			
			
   
			
			
   
			
			
   
			
			
   
			
			
   
			
			
   
			
			
   
			
			
   
			
			
   
			
			
   
			
			
   
			
			
   
			
			
   
			
			
  
		</g>
		
 
	</g>
	

</svg>