<?xml version="1.0" encoding="iso-8859-1"?><!DOCTYPE svg  PUBLIC '-//W3C//DTD SVG 1.1//EN'  'http://www.w3.org/Graphics/SVG/1.1/DTD/svg11.dtd'><!-- Creator: CorelDRAW --><svg height="49.9999mm" style="shape-rendering:geometricPrecision; text-rendering:geometricPrecision; image-rendering:optimizeQuality; fill-rule:evenodd; clip-rule:evenodd" viewBox="0 0 14.1041 14.104" width="50mm" xml:space="preserve" xmlns="http://www.w3.org/2000/svg" xmlns:xlink="http://www.w3.org/1999/xlink">
	
 
	<defs>
		
  
		<style type="text/css">
			
   
<![CDATA[
    .fil2 {fill:white}
    .fil0 {fill:#002156;fill-rule:nonzero}
    .fil1 {fill:white;fill-rule:nonzero}
   ]]>			
  
		</style>
		
 
	</defs>
	
 
	<g id="Ebene_x0020_1">
		
  
		<metadata id="CorelCorpID_0Corel-Layer"/>
		
  
		<g id="_153970080">
			
   
			
			
   
			
			
   
			
			
   
			
			
   
			
			
   
			
			
   
			
			
   
			
			
   
			
			
   
			
			
   
			
			
   
			
			
   
			
			
   
			
			
   
			
			
   
			
			
   
			<path animation_id="12" class="fil1" d="M10.1209 6.5049l-0.120138 0c-0.0123834,-0.102311 -0.06533,-0.150152 -0.171223,-0.150152 -0.0954562,0 -0.160814,0.0512823 -0.160814,0.12547 0,0.0687996 0.0354576,0.095428 0.196075,0.14121 0.150067,0.045951 0.199572,0.0707459 0.234748,0.121803 0.0231306,0.0352601 0.0354012,0.0794058 0.0354012,0.128911 0,0.160871 -0.116528,0.261433 -0.30366,0.261433 -0.201321,0 -0.316044,-0.100562 -0.316044,-0.279091l0 -0.00166428 0.119856 0c0.0107473,0.119997 0.0743002,0.178332 0.194438,0.178332 0.109589,0 0.178275,-0.0583344 0.178275,-0.148262 0,-0.0830447 -0.0210997,-0.0972051 -0.24022,-0.164256 -0.162422,-0.0512541 -0.224198,-0.112945 -0.224198,-0.229727 0,-0.141182 0.116528,-0.236497 0.287892,-0.236497 0.178332,0 0.280642,0.0900685 0.289613,0.252491z" id="_154170032" stroke="black"/>
			
   
			
			
   
			
			
   
			
			
   
			
			
  
		</g>
		
 
	</g>
	

</svg>