<?xml version="1.0" encoding="iso-8859-1"?><!DOCTYPE svg  PUBLIC '-//W3C//DTD SVG 1.1//EN'  'http://www.w3.org/Graphics/SVG/1.1/DTD/svg11.dtd'><!-- Creator: CorelDRAW --><svg height="49.9999mm" style="shape-rendering:geometricPrecision; text-rendering:geometricPrecision; image-rendering:optimizeQuality; fill-rule:evenodd; clip-rule:evenodd" viewBox="0 0 14.1041 14.104" width="50mm" xml:space="preserve" xmlns="http://www.w3.org/2000/svg" xmlns:xlink="http://www.w3.org/1999/xlink">
	
 
	<defs>
		
  
		<style type="text/css">
			
   
<![CDATA[
    .fil2 {fill:white}
    .fil0 {fill:#002156;fill-rule:nonzero}
    .fil1 {fill:white;fill-rule:nonzero}
   ]]>			
  
		</style>
		
 
	</defs>
	
 
	<g id="Ebene_x0020_1">
		
  
		<metadata id="CorelCorpID_0Corel-Layer"/>
		
  
		<g id="_153970080">
			
   
			
			
   
			
			
   
			
			
   
			<path animation_id="2" class="fil2" d="M5.89205 5.23187l0.000902659 0.141576c-0.000253873,0.000253873 0.467493,-0.000761619 0.47068,-0.000507746l-0.000253873 -0.141069c-0.00177711,-0.00987284 0.00166428,-1.06677 0.00166428,-1.06677 0,-0.109335 0.0918456,-0.194015 0.200701,-0.194015l0.464672 0.000874451c0.108488,0 0.198641,0.086881 0.198641,0.196469l-0.00101549 0.152211 0.500609 0.000169249 0 -0.166823c0,-0.297257 -0.242364,-0.537195 -0.537336,-0.537195 -0.0100703,-0.00155145 -0.655528,0 -0.645514,0 -0.0795751,0 -0.652848,-0.0644837 -0.652848,0.524163l-0.000902659 1.09092z" id="_67742200" stroke="black"/>
			
   
			
			
   
			
			
   
			
			
   
			
			
   
			
			
   
			
			
   
			
			
   
			
			
   
			
			
   
			
			
   
			
			
   
			
			
   
			
			
   
			
			
   
			
			
   
			
			
   
			
			
  
		</g>
		
 
	</g>
	

</svg>