<?xml version="1.0" encoding="iso-8859-1"?><!DOCTYPE svg  PUBLIC '-//W3C//DTD SVG 1.1//EN'  'http://www.w3.org/Graphics/SVG/1.1/DTD/svg11.dtd'><!-- Creator: CorelDRAW --><svg height="49.9999mm" style="shape-rendering:geometricPrecision; text-rendering:geometricPrecision; image-rendering:optimizeQuality; fill-rule:evenodd; clip-rule:evenodd" viewBox="0 0 14.1041 14.104" width="50mm" xml:space="preserve" xmlns="http://www.w3.org/2000/svg" xmlns:xlink="http://www.w3.org/1999/xlink">
	
 
	<defs>
		
  
		<style type="text/css">
			
   
<![CDATA[
    .fil2 {fill:white}
    .fil0 {fill:#002156;fill-rule:nonzero}
    .fil1 {fill:white;fill-rule:nonzero}
   ]]>			
  
		</style>
		
 
	</defs>
	
 
	<g id="Ebene_x0020_1">
		
  
		<metadata id="CorelCorpID_0Corel-Layer"/>
		
  
		<g id="_153970080">
			
   
			
			
   
			
			
   
			
			
   
			
			
   
			
			
   
			
			
   
			
			
   
			
			
   
			
			
   
			
			
   
			
			
   
			
			
   
			
			
   
			
			
   
			
			
   
			<path animation_id="11" class="fil1" d="M9.2291 6.61785c-0.0141887,-0.169474 -0.0900121,-0.261179 -0.215369,-0.261179 -0.121887,0 -0.199572,0.0900403 -0.224254,0.261179l0.439623 0zm0.127162 0.0972051l-0.570227 0c0.00510567,0.204791 0.0899274,0.312489 0.241772,0.312489 0.0916764,0 0.146428,-0.0353166 0.19441,-0.127134l0.11461 0.0140476c-0.0513105,0.14482 -0.157204,0.219121 -0.310825,0.219121 -0.224226,0 -0.367241,-0.16781 -0.367241,-0.430935 0,-0.27359 0.141351,-0.45023 0.360189,-0.45023 0.204932,0 0.338977,0.167697 0.338977,0.427466 0,0.00693919 0,0.0193226 -0.00166428,0.0351755z" id="_67237168" stroke="black"/>
			
   
			
			
   
			
			
   
			
			
   
			
			
   
			
			
  
		</g>
		
 
	</g>
	

</svg>