<?xml version="1.0" encoding="iso-8859-1"?><!DOCTYPE svg  PUBLIC '-//W3C//DTD SVG 1.1//EN'  'http://www.w3.org/Graphics/SVG/1.1/DTD/svg11.dtd'><!-- Creator: CorelDRAW --><svg height="49.9999mm" style="shape-rendering:geometricPrecision; text-rendering:geometricPrecision; image-rendering:optimizeQuality; fill-rule:evenodd; clip-rule:evenodd" viewBox="0 0 14.1041 14.104" width="50mm" xml:space="preserve" xmlns="http://www.w3.org/2000/svg" xmlns:xlink="http://www.w3.org/1999/xlink">
	
 
	<defs>
		
  
		<style type="text/css">
			
   
<![CDATA[
    .fil2 {fill:white}
    .fil0 {fill:#002156;fill-rule:nonzero}
    .fil1 {fill:white;fill-rule:nonzero}
   ]]>			
  
		</style>
		
 
	</defs>
	
 
	<g id="Ebene_x0020_1">
		
  
		<metadata id="CorelCorpID_0Corel-Layer"/>
		
  
		<g id="_153970080">
			
   
			
			
   
			<path animation_id="0" class="fil1" d="M12.3469 5.37274c0,0 -0.789347,0.00115653 -0.799192,0.000648786 -0.294944,0 -0.531074,-0.2429 -0.531074,-0.540185l0.00166428 -1.69246c-0.00115653,-0.000648786 0.473501,-0.00129757 0.475419,0 0.00166428,0.000507746 0.00191815,0.475814 0.00191815,0.475814l1.27692 0 0 0.354576 -1.27461 0c-0.00180532,0 0,0.847654 0,0.847654 0,0.109617 0.0846807,0.199008 0.193141,0.199008l0.516744 0c0.108601,0 0.198106,-0.0901531 0.198106,-0.199911l0.000564162 -0.132776 0.476971 0 0.000761619 0.149418c0,0.297116 -0.242392,0.538211 -0.537336,0.538211z" id="_154632104" stroke="black"/>
			
   
			
			
   
			
			
   
			
			
   
			
			
   
			
			
   
			
			
   
			
			
   
			
			
   
			
			
   
			
			
   
			
			
   
			
			
   
			
			
   
			
			
   
			
			
   
			
			
   
			
			
   
			
			
   
			
			
  
		</g>
		
 
	</g>
	

</svg>