<?xml version="1.0" encoding="iso-8859-1"?><!DOCTYPE svg  PUBLIC '-//W3C//DTD SVG 1.1//EN'  'http://www.w3.org/Graphics/SVG/1.1/DTD/svg11.dtd'><!-- Creator: CorelDRAW --><svg height="49.9999mm" style="shape-rendering:geometricPrecision; text-rendering:geometricPrecision; image-rendering:optimizeQuality; fill-rule:evenodd; clip-rule:evenodd" viewBox="0 0 14.1041 14.104" width="50mm" xml:space="preserve" xmlns="http://www.w3.org/2000/svg" xmlns:xlink="http://www.w3.org/1999/xlink">
	
 
	<defs>
		
  
		<style type="text/css">
			
   
<![CDATA[
    .fil2 {fill:white}
    .fil0 {fill:#002156;fill-rule:nonzero}
    .fil1 {fill:white;fill-rule:nonzero}
   ]]>			
  
		</style>
		
 
	</defs>
	
 
	<g id="Ebene_x0020_1">
		
  
		<metadata id="CorelCorpID_0Corel-Layer"/>
		
  
		<g id="_153970080">
			
   
			
			
   
			
			
   
			
			
   
			
			
   
			
			
   
			
			
   
			
			
   
			
			
   
			
			
   
			
			
   
			
			
   
			
			
   
			
			
   
			<path animation_id="9" class="fil1" d="M6.53751 6.3866c0.104229,-0.0810983 0.146569,-0.144792 0.146569,-0.220616 0,-0.0688278 -0.0513105,-0.116697 -0.12547,-0.116697 -0.0757106,0 -0.134186,0.0513105 -0.134186,0.120392 0,0.0544981 0.0125244,0.0827344 0.0936509,0.190461 0.00369526,0.00702382 0.0106062,0.0159658 0.0194354,0.0264592zm-0.0247103 0.160758c-0.14121,0.104144 -0.18544,0.16592 -0.18544,0.263125 0,0.119969 0.100647,0.208232 0.23661,0.208232 0.0865707,0 0.162422,-0.0369526 0.220757,-0.107699l-0.271926 -0.363659zm0.383207 0.022905l0.105809 0 0 0.0388708c0,0.128826 -0.0210997,0.215425 -0.0759926,0.300219l0.150265 0.202873 -0.142987 0 -0.0812111 -0.11114c-0.081324,0.0864296 -0.16781,0.121859 -0.29328,0.121859 -0.213507,0 -0.356607,-0.126993 -0.356607,-0.316156 0,-0.132381 0.0599704,-0.220672 0.238387,-0.35483l-0.0247949 -0.031847c-0.0901531,-0.118333 -0.111281,-0.165892 -0.111281,-0.241743 0,-0.134299 0.106034,-0.229614 0.257991,-0.229614 0.142874,0 0.236384,0.0864861 0.236384,0.220926 0,0.109335 -0.0510567,0.192238 -0.192379,0.305325l0.247244 0.335479c0.031847,-0.0618886 0.0424532,-0.120223 0.0424532,-0.24022z" id="_154164736" stroke="black"/>
			
   
			
			
   
			
			
   
			
			
   
			
			
   
			
			
   
			
			
   
			
			
  
		</g>
		
 
	</g>
	

</svg>