<?xml version="1.0" encoding="iso-8859-1"?><!DOCTYPE svg  PUBLIC '-//W3C//DTD SVG 1.1//EN'  'http://www.w3.org/Graphics/SVG/1.1/DTD/svg11.dtd'><!-- Creator: CorelDRAW --><svg height="49.9999mm" style="shape-rendering:geometricPrecision; text-rendering:geometricPrecision; image-rendering:optimizeQuality; fill-rule:evenodd; clip-rule:evenodd" viewBox="0 0 14.1041 14.104" width="50mm" xml:space="preserve" xmlns="http://www.w3.org/2000/svg" xmlns:xlink="http://www.w3.org/1999/xlink">
	
 
	<defs>
		
  
		<style type="text/css">
			
   
<![CDATA[
    .fil2 {fill:white}
    .fil0 {fill:#002156;fill-rule:nonzero}
    .fil1 {fill:white;fill-rule:nonzero}
   ]]>			
  
		</style>
		
 
	</defs>
	
 
	<g id="Ebene_x0020_1">
		
  
		<metadata id="CorelCorpID_0Corel-Layer"/>
		
  
		<g id="_153970080">
			
   
			
			
   
			
			
   
			
			
   
			
			
   
			
			
   
			
			
   
			
			
   
			
			
   
			
			
   
			
			
   
			
			
   
			
			
   
			
			
   
			
			
   
			
			
   
			
			
   
			
			
   
			
			
   
			<path animation_id="14" class="fil1" d="M11.2175 6.27551l0.118192 0c0.0106345,0.0423404 0.015853,0.0864579 0.015853,0.12877 0,0.0124398 -0.00177711,0.0282927 -0.00344139,0.0513105 0.0598576,-0.139546 0.127134,-0.203127 0.217174,-0.203127 0.0317341,0 0.0670507,0.00871631 0.102367,0.0264874l0 0.123552c-0.0564162,-0.0263464 -0.0794622,-0.0335112 -0.111168,-0.0335112 -0.0671635,0 -0.125357,0.0459228 -0.162592,0.128939 -0.0264592,0.0581933 -0.0369526,0.128798 -0.0369526,0.240079l0 0.374124 -0.12547 0 0 -0.605374c0,-0.134299 -0.00166428,-0.155398 -0.013963,-0.23125z" id="_154166592" stroke="black"/>
			
   
			
			
   
			
			
  
		</g>
		
 
	</g>
	

</svg>