<?xml version="1.0" encoding="iso-8859-1"?><!DOCTYPE svg  PUBLIC '-//W3C//DTD SVG 1.1//EN'  'http://www.w3.org/Graphics/SVG/1.1/DTD/svg11.dtd'><!-- Creator: CorelDRAW --><svg height="49.9999mm" style="shape-rendering:geometricPrecision; text-rendering:geometricPrecision; image-rendering:optimizeQuality; fill-rule:evenodd; clip-rule:evenodd" viewBox="0 0 14.1041 14.104" width="50mm" xml:space="preserve" xmlns="http://www.w3.org/2000/svg" xmlns:xlink="http://www.w3.org/1999/xlink">
	
 
	<defs>
		
  
		<style type="text/css">
			
   
<![CDATA[
    .fil2 {fill:white}
    .fil0 {fill:#002156;fill-rule:nonzero}
    .fil1 {fill:white;fill-rule:nonzero}
   ]]>			
  
		</style>
		
 
	</defs>
	
 
	<g id="Ebene_x0020_1">
		
  
		<metadata id="CorelCorpID_0Corel-Layer"/>
		
  
		<g id="_153970080">
			
   
			
			
   
			
			
   
			
			
   
			
			
   
			
			
   
			
			
   
			
			
   
			
			
   
			
			
   
			
			
   
			<path animation_id="7" class="fil1" d="M4.3126 6.61785c-0.0140758,-0.169474 -0.0899274,-0.261179 -0.215284,-0.261179 -0.121915,0 -0.199375,0.0900403 -0.224226,0.261179l0.439511 0zm0.127275 0.0972051l-0.570368 0c0.00524671,0.204791 0.0900685,0.312489 0.242026,0.312489 0.0916764,0 0.146428,-0.0353166 0.194156,-0.127134l0.114751 0.0140476c-0.0511977,0.14482 -0.157119,0.219121 -0.310684,0.219121 -0.224367,0 -0.367382,-0.16781 -0.367382,-0.430935 0,-0.27359 0.14121,-0.45023 0.36033,-0.45023 0.204791,0 0.338949,0.167697 0.338949,0.427466 0,0.00693919 0,0.0193226 -0.00177711,0.0351755z" id="_68146752" stroke="black"/>
			
   
			
			
   
			
			
   
			
			
   
			
			
   
			
			
   
			
			
   
			
			
   
			
			
   
			
			
   
			
			
  
		</g>
		
 
	</g>
	

</svg>