<?xml version="1.0" encoding="iso-8859-1"?><!DOCTYPE svg  PUBLIC '-//W3C//DTD SVG 1.0//EN'  'http://www.w3.org/TR/2001/REC-SVG-20010904/DTD/ svg10.dtd'><!-- Created with Inkscape (http://www.inkscape.org/) --><svg height="350" id="svg2" style="overflow:visible" version="1.0" viewBox="0 0 500.008 325.981" width="550" xml:space="preserve" xmlns="http://www.w3.org/2000/svg" xmlns:svg="http://www.w3.org/2000/svg">
	<defs id="defs26"/>
	
	
	<path animation_id="2" d="M 196.76161,106.67806 C 177.00476,106.67806 169.41169,121.01241 168.09697,139.81877 C 167.95088,141.88949 167.88948,144.00149 167.88947,146.16234 C 167.88946,152.0909 168.4202,157.7214 169.60875,162.73269 L 186.23839,162.73269 C 185.35147,158.1103 185.2009,152.38994 185.20089,146.19198 C 185.20088,144.00172 185.21393,141.86485 185.28982,139.81877 C 185.72805,127.53477 187.90195,118.41663 196.76161,118.41663 C 204.93638,118.41663 207.63579,127.53951 208.23339,139.81877 C 208.333,141.86009 208.35196,144.00172 208.35196,146.19198 C 208.35197,152.38994 208.02423,158.12928 206.98839,162.73269 C 205.46973,169.54438 202.44165,173.96734 196.76161,173.96733 C 190.44412,173.96733 187.54553,169.56335 186.23839,162.73269 L 169.60875,162.76234 C 172.79501,176.26714 180.7962,185.61696 196.76161,185.61697 C 212.63046,185.61697 220.69898,176.28211 223.91446,162.76234 C 223.91672,162.75281 223.9122,162.74222 223.91446,162.73269 C 225.11076,157.69908 225.66339,152.08002 225.66339,146.16234 C 225.6634,144.00054 225.56948,141.87528 225.42624,139.81877 C 224.09636,121.02662 216.416,106.67806 196.76161,106.67806 z M 316.0148,108.42699 L 316.0148,139.81877 L 316.0148,162.73269 L 316.0148,183.57162 L 330.92515,183.57162 L 330.92515,166.64555 L 333.91908,162.73269 L 336.20158,159.73877 L 337.74301,162.73269 L 348.59229,183.57162 L 364.95514,183.57162 L 353.57229,162.73269 L 345.77622,148.44484 L 352.09014,139.81877 L 362.49479,125.5902 L 346.10229,125.5902 L 336.11265,139.81877 L 330.92515,147.22948 L 330.92515,139.81877 L 330.92515,108.42699 L 316.0148,108.42699 z M 64.228423,108.81235 L 64.228423,139.81877 L 64.228423,162.73269 L 64.228423,183.57162 L 90.106632,183.57162 C 106.32435,183.57162 113.88375,176.98023 116.69627,162.73269 L 99.295915,162.73269 C 97.548647,168.45163 94.065733,170.61769 87.468418,170.61769 L 80.324491,170.61769 L 80.324491,162.73269 L 80.324491,139.81877 L 80.324491,120.90663 L 87.142347,120.90663 C 97.980719,120.90663 100.39033,127.32514 100.8077,139.81877 L 117.97091,139.81877 C 117.25379,120.86157 112.08194,108.81235 91.144131,108.81235 L 64.228423,108.81235 z M 117.97091,139.81877 L 100.8077,139.84841 C 100.86177,141.51599 100.86699,143.29552 100.86699,145.18413 C 100.86698,153.0601 100.51103,158.75723 99.295915,162.73269 L 116.69627,162.70305 C 117.67329,157.77806 118.05984,151.951 118.05984,145.15448 C 118.05984,143.33416 118.03351,141.54708 117.97091,139.81877 z M 288.18016,113.40699 L 288.18016,124.90842 L 280.62123,124.90842 L 280.62123,135.04627 L 288.18016,135.04627 L 288.18016,139.81877 L 288.18016,162.73269 L 288.18016,168.24626 C 288.18016,180.01139 290.34338,183.57163 301.99373,183.57162 C 305.42945,183.57162 308.44282,183.22303 311.68694,182.91947 L 311.68694,172.57412 C 310.69758,172.68321 309.51541,172.78163 308.3373,172.78162 C 304.0194,172.78162 303.06086,170.94186 303.06087,166.43805 L 303.06087,162.73269 L 303.06087,139.81877 L 303.06087,135.04627 L 311.68694,135.04627 L 311.68694,124.90842 L 303.06087,124.90842 L 303.06087,113.40699 L 288.18016,113.40699 z M 254.74302,122.32949 C 250.89468,122.35605 247.44496,123.06937 244.33838,124.58234 C 241.26123,126.06401 238.59075,128.21181 236.36446,131.01484 C 234.41705,133.46499 232.84951,136.40297 231.68088,139.81877 C 231.51584,140.31202 231.36216,140.82307 231.2066,141.33055 C 230.02848,145.34205 229.39839,149.74414 229.39839,154.58091 C 229.39839,157.47404 229.61798,160.20002 230.05053,162.73269 C 230.56276,165.76338 231.38967,168.54008 232.51088,171.06233 C 234.57213,175.73594 237.55942,179.29475 241.43338,181.82269 C 245.34055,184.35063 249.91076,185.61697 255.18767,185.61697 C 259.72089,185.61697 263.76772,184.76824 267.31159,183.03805 C 270.85735,181.30501 273.67722,178.84915 275.81909,175.68662 C 278.01883,172.49942 279.31813,168.9003 279.7023,164.74841 L 264.08052,164.74841 C 263.44877,167.35603 262.31735,169.37221 260.67159,170.85483 C 259.02298,172.36401 257.11255,173.1077 254.86159,173.10769 C 251.92102,173.10769 249.49719,171.83802 247.5991,169.25412 C 246.28153,167.47176 245.41194,165.30237 245.02017,162.73269 C 244.84469,161.62191 244.78302,160.42956 244.78302,159.17555 L 244.78302,158.52341 L 280.23587,158.52341 L 280.23587,156.12234 C 280.23586,150.48781 279.71012,145.69872 278.6648,141.68627 C 278.50497,141.06846 278.32256,140.45688 278.13123,139.84841 C 278.12831,139.83951 278.13414,139.82767 278.13123,139.81877 C 277.06652,136.57018 275.56668,133.64151 273.62552,131.07413 C 272.22826,129.23105 270.53222,127.65168 268.52695,126.33127 C 266.55106,125.01181 264.36558,124.00158 262.00552,123.36699 C 259.69669,122.68117 257.26906,122.32949 254.74302,122.32949 z M 387.00942,122.32949 C 383.19141,122.35605 379.6817,123.06937 376.57514,124.58234 C 373.49797,126.06401 370.85785,128.21181 368.60121,131.01484 C 366.65379,133.46499 365.08629,136.40297 363.91764,139.81877 C 363.75448,140.31202 363.59513,140.82307 363.44336,141.33055 C 362.26048,145.34205 361.69443,149.74414 361.69443,154.58091 C 361.69442,157.47404 361.88912,160.20002 362.31693,162.73269 C 362.82441,165.76338 363.65607,168.54008 364.77729,171.06233 C 366.83758,175.73594 369.79808,179.29475 373.67014,181.82269 C 377.60387,184.35063 382.20562,185.61697 387.45407,185.61697 C 392.01385,185.61697 396.03412,184.76824 399.57799,183.03805 C 403.09814,181.30501 405.96758,178.84915 408.11513,175.68662 C 410.31108,172.49942 411.55583,168.9003 411.93906,164.74841 L 396.34692,164.74841 C 395.71517,167.35603 394.58661,169.37221 392.93799,170.85483 C 391.28558,172.36401 389.35146,173.1077 387.12799,173.10769 C 384.19217,173.10769 381.76098,171.83802 379.89514,169.25412 C 378.57093,167.47176 377.69067,165.30237 377.28657,162.73269 C 377.11107,161.62191 377.01979,160.42956 377.01978,159.17555 L 377.01978,158.52341 L 412.53192,158.52341 L 412.53192,156.12234 C 412.53193,150.48781 412.00782,145.69872 410.9312,141.68627 C 410.77139,141.06846 410.58882,140.45688 410.39763,139.84841 C 410.39479,139.83951 410.4005,139.82767 410.39763,139.81877 C 409.35268,136.57018 407.82803,133.64151 405.86228,131.07413 C 404.49065,129.23105 402.79649,127.65168 400.76371,126.33127 C 398.78689,125.01181 396.60614,124.00158 394.24228,123.36699 C 391.93727,122.68117 389.53642,122.32949 387.00942,122.32949 z M 152.08983,124.07842 C 145.9592,124.07842 141.7727,127.72188 138.75055,133.32699 L 138.5134,133.32699 L 138.5134,125.5902 L 124.28484,125.5902 L 124.28484,139.81877 L 143.96769,139.78913 C 145.8487,138.74379 148.05817,138.30698 150.16304,138.30698 C 151.6779,138.30697 153.28005,138.40824 154.78733,138.51448 L 154.78733,124.28592 C 153.94025,124.17683 152.9701,124.07842 152.08983,124.07842 z M 124.28484,139.81877 L 124.28484,162.73269 L 124.28484,183.57162 L 139.16555,183.57162 L 139.16555,162.73269 L 139.16555,148.74127 C 139.16554,144.14258 141.22062,141.32321 143.96769,139.81877 L 124.28484,139.81877 z M 445.46513,124.07842 C 439.34211,124.07842 435.14798,127.72188 432.12584,133.32699 L 431.8887,133.32699 L 431.8887,125.5902 L 417.66013,125.5902 L 417.66013,139.81877 L 437.34298,139.78913 C 439.22306,138.74379 441.42587,138.30698 443.53834,138.30698 C 445.05037,138.30697 446.65059,138.40824 448.16262,138.51448 L 448.16262,124.28592 C 447.30607,124.17683 446.353,124.07842 445.46513,124.07842 z M 417.66013,139.81877 L 417.66013,162.73269 L 417.66013,183.57162 L 432.57049,183.57162 L 432.57049,162.73269 L 432.57049,148.74127 C 432.57049,144.14258 434.59591,141.32321 437.34298,139.81877 L 417.66013,139.81877 z M 254.95052,134.27556 C 257.64353,134.27555 259.75575,135.2974 261.32374,137.38806 C 261.85208,138.07861 262.30906,138.89202 262.71695,139.81877 C 263.54409,141.66089 264.11396,143.93438 264.46588,146.66627 L 244.87195,146.66627 C 245.17551,143.96852 245.78306,141.68082 246.70981,139.81877 C 247.12814,138.96789 247.63515,138.20975 248.19195,137.53627 C 249.94872,135.36593 252.2082,134.27555 254.95052,134.27556 z M 387.18728,134.27556 C 389.87931,134.27555 392.02286,135.2974 393.56049,137.38806 C 394.08792,138.07861 394.56977,138.89202 394.98335,139.81877 C 395.80957,141.66089 396.40408,143.93438 396.73228,146.66627 L 377.168,146.66627 C 377.45161,143.96852 378.05135,141.68082 378.97621,139.81877 C 379.39452,138.96789 379.88234,138.20975 380.42871,137.53627 C 382.21486,135.36593 384.46961,134.27555 387.18728,134.27556 z M 144.23447,170.79555 L 144.23447,183.57162 L 157.01054,183.57162 L 157.01054,170.79555 L 144.23447,170.79555 z" id="Dr. Oetker" stroke="black" style="fill:#17469d;fill-opacity:1"/>
	
</svg>