<?xml version="1.0" encoding="iso-8859-1"?><!-- Created with Inkscape (http://www.inkscape.org/) --><svg height="289.13385" id="svg3930" version="1.1" width="715.74799" xmlns="http://www.w3.org/2000/svg" xmlns:cc="http://creativecommons.org/ns#" xmlns:dc="http://purl.org/dc/elements/1.1/" xmlns:rdf="http://www.w3.org/1999/02/22-rdf-syntax-ns#" xmlns:svg="http://www.w3.org/2000/svg">
	
  
	<defs id="defs3932"/>
	
  
	<metadata id="metadata3935">
		
    
		<rdf:RDF>
			
      
			<cc:Work rdf:about="">
				
        
				<dc:format>image/svg+xml</dc:format>
				
        
				<dc:type rdf:resource="http://purl.org/dc/dcmitype/StillImage"/>
				
        
				<dc:title/>
				
      
			</cc:Work>
			
    
		</rdf:RDF>
		
  
	</metadata>
	
  
	<g id="layer1" transform="translate(-7.3095557,-400.63937)">
		
    
		<g id="g3963" transform="matrix(2.2114657,0,0,2.2114657,-939.08115,-471.76757)">
			
      
			
			
      
			
			
      
			
			
      
			
			
      
			
			
      
			
			
      
			
			
      
			
			
      
			
			
      
			<path animation_id="9" d="m 749.99825,484.99668 -14.47875,10.52875 -39.5925,-2.03875 42.64625,-2.9425 -42.64625,-2.03875 42.64625,-2.6025 -42.64625,-2.3775 42.64625,-2.7175 -42.64625,-2.26375 42.64625,-2.83125 -42.64625,-2.15125 42.64625,-2.60375 -42.64625,-2.3775 42.64625,-2.71625 -42.64625,-2.26375 42.64625,-2.49125 -42.64625,-2.3775 42.64625,-2.60375 -42.64625,-2.7175 42.64625,-2.0375 -42.64625,-2.94375 42.64625,-2.0375 -42.64625,-2.7175 42.64625,-2.26375 -42.64625,-2.60375 42.64625,-2.49125 -37.4425,-2.60375 37.4425,-2.26375 -31.335,-2.15125 1.81125,-1.35875 29.52375,-1.47125 -25,-1.69875 2.82875,-2.0375 22.17125,-1.3575 -18.55125,-1.24625 3.95875,-2.94375 14.5925,-0.79125 -12.44375,-0.79375 4.75125,-3.39625 7.6925,-0.67875 -6.4475,-0.34 17.8725,-12.7925 0,86.60625 z m -15.15875,10.98125 -5.995,4.415 -32.9175,-1.925 38.9125,-2.49 z m -7.9175,5.8875 -4.41125,3.17 -26.58375,-1.8125 30.995,-1.3575 z m -7.01375,5.09375 -3.62,2.60375 -20.36125,-1.35875 23.98125,-1.245 z m -7.3525,5.32125 -2.715,1.92375 -13.91375,-1.01875 16.62875,-0.905 z m -7.46625,5.43375 -1.58375,1.1325 -7.57875,-0.4525 9.1625,-0.68 z m -7.24,5.32125 -1.9225,0.34 1.13125,0.22625 0.79125,-0.56625" id="path3808" stroke="black" style="fill:#015dab;fill-opacity:1;fill-rule:evenodd;"/>
			
    
		</g>
		
  
	</g>
	

</svg>