<?xml version="1.0" encoding="iso-8859-1"?><!-- Created with Inkscape (http://www.inkscape.org/) --><svg height="289.13385" id="svg3930" version="1.1" width="715.74799" xmlns="http://www.w3.org/2000/svg" xmlns:cc="http://creativecommons.org/ns#" xmlns:dc="http://purl.org/dc/elements/1.1/" xmlns:rdf="http://www.w3.org/1999/02/22-rdf-syntax-ns#" xmlns:svg="http://www.w3.org/2000/svg">
	
  
	<defs id="defs3932"/>
	
  
	<metadata id="metadata3935">
		
    
		<rdf:RDF>
			
      
			<cc:Work rdf:about="">
				
        
				<dc:format>image/svg+xml</dc:format>
				
        
				<dc:type rdf:resource="http://purl.org/dc/dcmitype/StillImage"/>
				
        
				<dc:title/>
				
      
			</cc:Work>
			
    
		</rdf:RDF>
		
  
	</metadata>
	
  
	<g id="layer1" transform="translate(-7.3095557,-400.63937)">
		
    
		<g id="g3963" transform="matrix(2.2114657,0,0,2.2114657,-939.08115,-471.76757)">
			
      
			<path animation_id="0" d="m 444.24325,498.33293 c -4.82375,0 -6.78625,4.2625 -6.78625,9.7025 0,5.43875 2.13125,10.71125 6.44875,10.71125 4.99125,0 7.1225,-5.38375 7.1225,-10.9925 0,-4.87875 -2.29875,-9.42125 -6.785,-9.42125 z m 6.785,24.2275 0,-4.0375 c -1.9625,2.355 -4.87875,4.71 -9.2525,4.71 -7.3475,0 -12.22625,-6.05625 -12.22625,-15.03 0,-7.29 5.27125,-14.35625 12.78625,-14.35625 3.64625,0 6.89875,1.4575 8.58125,3.925 l 0.11125,-12.33 7.45875,-5.3125 0,42.43125 -7.45875,0" id="path3790" stroke="black" style="fill:#211e1f;fill-opacity:1;fill-rule:evenodd;"/>
			
      
			
			
      
			
			
      
			
			
      
			
			
      
			
			
      
			
			
      
			
			
      
			
			
      
			
			
    
		</g>
		
  
	</g>
	

</svg>