<?xml version="1.0" encoding="iso-8859-1"?><!-- Created with Inkscape (http://www.inkscape.org/) --><svg height="289.13385" id="svg3930" version="1.1" width="715.74799" xmlns="http://www.w3.org/2000/svg" xmlns:cc="http://creativecommons.org/ns#" xmlns:dc="http://purl.org/dc/elements/1.1/" xmlns:rdf="http://www.w3.org/1999/02/22-rdf-syntax-ns#" xmlns:svg="http://www.w3.org/2000/svg">
	
  
	<defs id="defs3932"/>
	
  
	<metadata id="metadata3935">
		
    
		<rdf:RDF>
			
      
			<cc:Work rdf:about="">
				
        
				<dc:format>image/svg+xml</dc:format>
				
        
				<dc:type rdf:resource="http://purl.org/dc/dcmitype/StillImage"/>
				
        
				<dc:title/>
				
      
			</cc:Work>
			
    
		</rdf:RDF>
		
  
	</metadata>
	
  
	<g id="layer1" transform="translate(-7.3095557,-400.63937)">
		
    
		<g id="g3963" transform="matrix(2.2114657,0,0,2.2114657,-939.08115,-471.76757)">
			
      
			
			
      
			
			
      
			
			
      
			
			
      
			<path animation_id="4" d="m 553.45575,484.24293 c 4.2625,0 6.39375,4.82375 6.39375,9.64625 0,4.935 -1.6825,10.7675 -6.67375,10.7675 -4.0375,0 -6.89875,-3.98125 -6.89875,-9.87 0,-6.45 2.46875,-10.54375 7.17875,-10.54375 z m -7.17875,-3.81375 -7.45875,0 0,42.0625 7.45875,0 0,-17.4975 c 2.075,2.4675 4.9925,4.14875 8.4125,4.14875 8.02,0 13.0675,-7.9075 13.0675,-15.31 0,-6.16875 -3.58875,-14.07625 -12.39375,-14.07625 -3.365,0 -7.01125,1.6825 -8.97375,4.5425 l -0.1125,0 0,-3.87" id="path3798" stroke="black" style="fill:#211e1f;fill-opacity:1;fill-rule:evenodd;"/>
			
      
			
			
      
			
			
      
			
			
      
			
			
      
			
			
    
		</g>
		
  
	</g>
	

</svg>