<?xml version="1.0" encoding="iso-8859-1"?><!-- Created with Inkscape (http://www.inkscape.org/) --><svg height="289.13385" id="svg3930" version="1.1" width="715.74799" xmlns="http://www.w3.org/2000/svg" xmlns:cc="http://creativecommons.org/ns#" xmlns:dc="http://purl.org/dc/elements/1.1/" xmlns:rdf="http://www.w3.org/1999/02/22-rdf-syntax-ns#" xmlns:svg="http://www.w3.org/2000/svg">
	
  
	<defs id="defs3932"/>
	
  
	<metadata id="metadata3935">
		
    
		<rdf:RDF>
			
      
			<cc:Work rdf:about="">
				
        
				<dc:format>image/svg+xml</dc:format>
				
        
				<dc:type rdf:resource="http://purl.org/dc/dcmitype/StillImage"/>
				
        
				<dc:title/>
				
      
			</cc:Work>
			
    
		</rdf:RDF>
		
  
	</metadata>
	
  
	<g id="layer1" transform="translate(-7.3095557,-400.63937)">
		
    
		<g id="g3963" transform="matrix(2.2114657,0,0,2.2114657,-939.08115,-471.76757)">
			
      
			
			
      
			
			
      
			
			
      
			
			
      
			
			
      
			<path animation_id="5" d="m 586.91325,509.14293 c 8.805,0 14.75,-6.33625 14.75,-15.03 0,-9.085 -7.17875,-14.35625 -14.75,-14.35625 -7.515,0 -14.6925,5.27125 -14.6925,14.35625 0,8.69375 5.94375,15.03 14.6925,15.03 z m 0,-4.14875 c -5.3275,0 -6.785,-5.945 -6.785,-10.88125 0,-4.65375 1.6825,-10.20625 6.785,-10.20625 5.21625,0 6.8425,5.5525 6.8425,10.20625 0,4.93625 -1.4025,10.88125 -6.8425,10.88125" id="path3800" stroke="black" style="fill:#211e1f;fill-opacity:1;fill-rule:evenodd;"/>
			
      
			
			
      
			
			
      
			
			
      
			
			
    
		</g>
		
  
	</g>
	

</svg>