<?xml version="1.0" encoding="iso-8859-1"?><!-- Created with Inkscape (http://www.inkscape.org/) --><svg height="128.69023" id="svg2834" version="1.0" width="618.36877" xmlns="http://www.w3.org/2000/svg" xmlns:svg="http://www.w3.org/2000/svg">
	
  
	<defs id="defs2836">
		
    
		<clipPath id="clipPath211">
			
      
			
			
    
		</clipPath>
		
  
	</defs>
	
  
	<g id="layer1" transform="translate(-230.81563,-428.47574)">
		
    
		<g id="g207" style="fill:#e83419;fill-opacity:1" transform="matrix(3.2427109,0,0,-3.2427109,150.33576,3075.5428)">
			
      
			<g clip-path="url(#clipPath211)" id="g209" style="fill:#e83419;fill-opacity:1">
				
        
				<g id="g215" style="fill:#e83419;fill-opacity:1" transform="translate(124.0317,800.2524)">
					
          
					
					
        
				</g>
				
        
				<g id="g219" style="fill:#e83419;fill-opacity:1" transform="translate(148.2844,781.9259)">
					
          
					
					
        
				</g>
				
        
				<g id="g223" style="fill:#e83419;fill-opacity:1" transform="translate(166.5361,785.9389)">
					
          
					
					
        
				</g>
				
        
				<g id="g227" style="fill:#e83419;fill-opacity:1" transform="translate(167.7493,782.7662)">
					
          
					
					
        
				</g>
				
        
				<g id="g231" style="fill:#e83419;fill-opacity:1" transform="translate(182.3232,785.9389)">
					
          
					<path animation_id="5" d="M 0,0 L 0,0.377 C 0,2.916 -1.286,4.425 -3.43,4.425 C -5.814,4.425 -7.306,2.761 -7.306,0.103 C -7.306,-2.504 -5.745,-4.219 -3.396,-4.219 C -2.23,-4.219 -1.2,-3.893 -0.343,-3.258 L -0.652,-2.349 C -1.526,-2.847 -2.281,-3.053 -3.224,-3.053 C -4.253,-3.053 -4.991,-2.727 -5.471,-2.041 C -5.882,-1.475 -6.002,-1.063 -6.037,0 L 0,0 z M -1.303,0.892 L -6.002,0.892 C -5.797,2.538 -4.905,3.464 -3.498,3.464 C -2.126,3.464 -1.406,2.607 -1.303,0.892" id="path233" stroke="black" style="fill:#e83419;fill-opacity:1;fill-rule:evenodd;"/>
					
        
				</g>
				
        
				<g id="g235" style="fill:#e83419;fill-opacity:1" transform="translate(184.1194,781.9259)">
					
          
					
					
        
				</g>
				
        
				<g id="g239" style="fill:#e83419;fill-opacity:1" transform="translate(148.2844,799.5834)">
					
          
					
					
        
				</g>
				
        
				<g id="g243" style="fill:#e83419;fill-opacity:1" transform="translate(166.5361,803.5964)">
					
          
					
					
        
				</g>
				
        
				<g id="g247" style="fill:#e83419;fill-opacity:1" transform="translate(167.7493,800.4237)">
					
          
					
					
        
				</g>
				
        
				<g id="g251" style="fill:#e83419;fill-opacity:1" transform="translate(174.7429,806.6663)">
					
          
					
					
        
				</g>
				
        
				<g id="g255" style="fill:#e83419;fill-opacity:1" transform="translate(182.6179,799.5834)">
					
          
					
					
        
				</g>
				
        
				<g id="g259" style="fill:#e83419;fill-opacity:1" transform="translate(187.7739,806.0146)">
					
          
					
					
        
				</g>
				
        
				<g id="g263" style="fill:#e83419;fill-opacity:1" transform="translate(196.1558,799.5834)">
					
          
					
					
        
				</g>
				
        
				<g id="g267" style="fill:#e83419;fill-opacity:1" transform="translate(206.8235,803.5964)">
					
          
					
					
        
				</g>
				
        
				<g id="g271" style="fill:#e83419;fill-opacity:1" transform="translate(208.6197,799.5834)">
					
          
					
					
        
				</g>
				
        
				
				
      
			</g>
			
    
		</g>
		
  
	</g>
	

</svg>