<?xml version="1.0" encoding="iso-8859-1"?><!-- Created with Inkscape (http://www.inkscape.org/) --><svg height="209.20743" id="svg2760" version="1.0" width="772.06458" xmlns="http://www.w3.org/2000/svg" xmlns:svg="http://www.w3.org/2000/svg">
	
  
	<defs id="defs2762">
		
    
		<clipPath id="clipPath273">
			
      
			
			
    
		</clipPath>
		
    
		<clipPath id="clipPath267">
			
      
			
			
    
		</clipPath>
		
    
		<clipPath id="clipPath261">
			
      
			
			
    
		</clipPath>
		
  
	</defs>
	
  
	<g id="layer1" transform="translate(300.318,-366.32989)">
		
    
		
		
    
		
		
    
		
		
    
		<path animation_id="6" d="M 341.24857,473.38363 L 349.71704,473.38363 L 349.5088,497.02766 L 349.5088,498.37255 C 349.5088,505.70003 350.23331,509.31388 352.19424,512.20756 C 354.36342,515.20102 358.28529,517.05784 362.62365,517.05784 C 366.2375,517.05784 369.33508,516.23355 372.74069,514.27262 L 372.74069,508.28569 C 370.67563,509.418 369.85134,509.62624 367.57805,510.03838 C 366.4414,510.24662 365.40887,510.35074 364.27656,510.35074 C 361.487,510.35074 359.31782,509.418 358.38941,507.86921 C 357.25276,506.21629 356.94474,503.63931 356.94474,496.92788 L 356.94474,473.38363 L 373.46519,473.38363 L 373.46519,467.18846 L 356.94474,467.18846 L 357.56513,453.04108 L 350.43721,453.97383 L 349.82116,467.18846 L 341.24857,467.18846 L 341.24857,473.38363" id="path283" stroke="black" style="fill:#ef402f;fill-opacity:1;fill-rule:nonzero;"/>
		
    
		
		
    
		
		
    
		
		
  
	</g>
	

</svg>