<?xml version="1.0" encoding="iso-8859-1"?><!-- Created with Inkscape (http://www.inkscape.org/) --><svg height="128.69023" id="svg2834" version="1.0" width="618.36877" xmlns="http://www.w3.org/2000/svg" xmlns:svg="http://www.w3.org/2000/svg">
	
  
	<defs id="defs2836">
		
    
		<clipPath id="clipPath211">
			
      
			
			
    
		</clipPath>
		
  
	</defs>
	
  
	<g id="layer1" transform="translate(-230.81563,-428.47574)">
		
    
		<g id="g207" style="fill:#e83419;fill-opacity:1" transform="matrix(3.2427109,0,0,-3.2427109,150.33576,3075.5428)">
			
      
			<g clip-path="url(#clipPath211)" id="g209" style="fill:#e83419;fill-opacity:1">
				
        
				<g id="g215" style="fill:#e83419;fill-opacity:1" transform="translate(124.0317,800.2524)">
					
          
					
					
        
				</g>
				
        
				<g id="g219" style="fill:#e83419;fill-opacity:1" transform="translate(148.2844,781.9259)">
					
          
					
					
        
				</g>
				
        
				<g id="g223" style="fill:#e83419;fill-opacity:1" transform="translate(166.5361,785.9389)">
					
          
					
					
        
				</g>
				
        
				<g id="g227" style="fill:#e83419;fill-opacity:1" transform="translate(167.7493,782.7662)">
					
          
					
					
        
				</g>
				
        
				<g id="g231" style="fill:#e83419;fill-opacity:1" transform="translate(182.3232,785.9389)">
					
          
					
					
        
				</g>
				
        
				<g id="g235" style="fill:#e83419;fill-opacity:1" transform="translate(184.1194,781.9259)">
					
          
					
					
        
				</g>
				
        
				<g id="g239" style="fill:#e83419;fill-opacity:1" transform="translate(148.2844,799.5834)">
					
          
					
					
        
				</g>
				
        
				<g id="g243" style="fill:#e83419;fill-opacity:1" transform="translate(166.5361,803.5964)">
					
          
					
					
        
				</g>
				
        
				<g id="g247" style="fill:#e83419;fill-opacity:1" transform="translate(167.7493,800.4237)">
					
          
					
					
        
				</g>
				
        
				<g id="g251" style="fill:#e83419;fill-opacity:1" transform="translate(174.7429,806.6663)">
					
          
					<path animation_id="10" d="M 0,0 L 1.406,0 L 1.372,-3.927 L 1.372,-4.15 C 1.372,-5.368 1.492,-5.968 1.818,-6.448 C 2.178,-6.946 2.83,-7.254 3.55,-7.254 C 4.15,-7.254 4.665,-7.117 5.231,-6.791 L 5.231,-5.797 C 4.888,-5.985 4.751,-6.02 4.373,-6.088 C 4.185,-6.122 4.013,-6.14 3.825,-6.14 C 3.361,-6.14 3.001,-5.985 2.847,-5.728 C 2.658,-5.454 2.607,-5.025 2.607,-3.91 L 2.607,0 L 5.351,0 L 5.351,1.029 L 2.607,1.029 L 2.71,3.379 L 1.526,3.224 L 1.424,1.029 L 0,1.029 L 0,0 z" id="path253" stroke="black" style="fill:#e83419;fill-opacity:1;fill-rule:nonzero;"/>
					
        
				</g>
				
        
				<g id="g255" style="fill:#e83419;fill-opacity:1" transform="translate(182.6179,799.5834)">
					
          
					
					
        
				</g>
				
        
				<g id="g259" style="fill:#e83419;fill-opacity:1" transform="translate(187.7739,806.0146)">
					
          
					
					
        
				</g>
				
        
				<g id="g263" style="fill:#e83419;fill-opacity:1" transform="translate(196.1558,799.5834)">
					
          
					
					
        
				</g>
				
        
				<g id="g267" style="fill:#e83419;fill-opacity:1" transform="translate(206.8235,803.5964)">
					
          
					
					
        
				</g>
				
        
				<g id="g271" style="fill:#e83419;fill-opacity:1" transform="translate(208.6197,799.5834)">
					
          
					
					
        
				</g>
				
        
				
				
      
			</g>
			
    
		</g>
		
  
	</g>
	

</svg>