<?xml version="1.0" encoding="iso-8859-1"?><!-- Created with Inkscape (http://www.inkscape.org/) --><svg height="128.69023" id="svg2834" version="1.0" width="618.36877" xmlns="http://www.w3.org/2000/svg" xmlns:svg="http://www.w3.org/2000/svg">
	
  
	<defs id="defs2836">
		
    
		<clipPath id="clipPath211">
			
      
			
			
    
		</clipPath>
		
  
	</defs>
	
  
	<g id="layer1" transform="translate(-230.81563,-428.47574)">
		
    
		<g id="g207" style="fill:#e83419;fill-opacity:1" transform="matrix(3.2427109,0,0,-3.2427109,150.33576,3075.5428)">
			
      
			<g clip-path="url(#clipPath211)" id="g209" style="fill:#e83419;fill-opacity:1">
				
        
				<g id="g215" style="fill:#e83419;fill-opacity:1" transform="translate(124.0317,800.2524)">
					
          
					
					
        
				</g>
				
        
				<g id="g219" style="fill:#e83419;fill-opacity:1" transform="translate(148.2844,781.9259)">
					
          
					
					
        
				</g>
				
        
				<g id="g223" style="fill:#e83419;fill-opacity:1" transform="translate(166.5361,785.9389)">
					
          
					
					
        
				</g>
				
        
				<g id="g227" style="fill:#e83419;fill-opacity:1" transform="translate(167.7493,782.7662)">
					
          
					
					
        
				</g>
				
        
				<g id="g231" style="fill:#e83419;fill-opacity:1" transform="translate(182.3232,785.9389)">
					
          
					
					
        
				</g>
				
        
				<g id="g235" style="fill:#e83419;fill-opacity:1" transform="translate(184.1194,781.9259)">
					
          
					
					
        
				</g>
				
        
				<g id="g239" style="fill:#e83419;fill-opacity:1" transform="translate(148.2844,799.5834)">
					
          
					
					
        
				</g>
				
        
				<g id="g243" style="fill:#e83419;fill-opacity:1" transform="translate(166.5361,803.5964)">
					
          
					
					
        
				</g>
				
        
				<g id="g247" style="fill:#e83419;fill-opacity:1" transform="translate(167.7493,800.4237)">
					
          
					
					
        
				</g>
				
        
				<g id="g251" style="fill:#e83419;fill-opacity:1" transform="translate(174.7429,806.6663)">
					
          
					
					
        
				</g>
				
        
				<g id="g255" style="fill:#e83419;fill-opacity:1" transform="translate(182.6179,799.5834)">
					
          
					
					
        
				</g>
				
        
				<g id="g259" style="fill:#e83419;fill-opacity:1" transform="translate(187.7739,806.0146)">
					
          
					
					
        
				</g>
				
        
				<g id="g263" style="fill:#e83419;fill-opacity:1" transform="translate(196.1558,799.5834)">
					
          
					
					
        
				</g>
				
        
				<g id="g267" style="fill:#e83419;fill-opacity:1" transform="translate(206.8235,803.5964)">
					
          
					
					
        
				</g>
				
        
				<g id="g271" style="fill:#e83419;fill-opacity:1" transform="translate(208.6197,799.5834)">
					
          
					<path animation_id="15" d="M 0,0 L 1.166,0 L 1.166,5.488 C 2.144,6.654 3.156,7.255 4.219,7.255 C 5.231,7.255 5.694,6.723 5.694,5.574 L 5.694,5.128 L 5.694,0 L 6.894,0 L 6.894,5.094 L 6.894,5.677 C 6.894,6.157 6.826,6.586 6.723,6.963 C 6.62,7.289 6.431,7.58 6.174,7.803 C 5.762,8.181 5.197,8.352 4.545,8.352 C 4.048,8.352 3.516,8.249 3.019,8.061 C 2.247,7.735 1.886,7.478 1.166,6.689 L 1.166,8.284 L 0,8.026 L 0,0 z" id="path273" stroke="black" style="fill:#e83419;fill-opacity:1;fill-rule:nonzero;"/>
					
        
				</g>
				
        
				
				
      
			</g>
			
    
		</g>
		
  
	</g>
	

</svg>