<?xml version="1.0" encoding="iso-8859-1"?><!-- Created with Inkscape (http://www.inkscape.org/) --><svg height="128.69023" id="svg2834" version="1.0" width="618.36877" xmlns="http://www.w3.org/2000/svg" xmlns:svg="http://www.w3.org/2000/svg">
	
  
	<defs id="defs2836">
		
    
		<clipPath id="clipPath211">
			
      
			
			
    
		</clipPath>
		
  
	</defs>
	
  
	<g id="layer1" transform="translate(-230.81563,-428.47574)">
		
    
		<g id="g207" style="fill:#e83419;fill-opacity:1" transform="matrix(3.2427109,0,0,-3.2427109,150.33576,3075.5428)">
			
      
			<g clip-path="url(#clipPath211)" id="g209" style="fill:#e83419;fill-opacity:1">
				
        
				<g id="g215" style="fill:#e83419;fill-opacity:1" transform="translate(124.0317,800.2524)">
					
          
					
					
        
				</g>
				
        
				<g id="g219" style="fill:#e83419;fill-opacity:1" transform="translate(148.2844,781.9259)">
					
          
					
					
        
				</g>
				
        
				<g id="g223" style="fill:#e83419;fill-opacity:1" transform="translate(166.5361,785.9389)">
					
          
					
					
        
				</g>
				
        
				<g id="g227" style="fill:#e83419;fill-opacity:1" transform="translate(167.7493,782.7662)">
					
          
					
					
        
				</g>
				
        
				<g id="g231" style="fill:#e83419;fill-opacity:1" transform="translate(182.3232,785.9389)">
					
          
					
					
        
				</g>
				
        
				<g id="g235" style="fill:#e83419;fill-opacity:1" transform="translate(184.1194,781.9259)">
					
          
					
					
        
				</g>
				
        
				<g id="g239" style="fill:#e83419;fill-opacity:1" transform="translate(148.2844,799.5834)">
					
          
					
					
        
				</g>
				
        
				<g id="g243" style="fill:#e83419;fill-opacity:1" transform="translate(166.5361,803.5964)">
					
          
					
					
        
				</g>
				
        
				<g id="g247" style="fill:#e83419;fill-opacity:1" transform="translate(167.7493,800.4237)">
					
          
					<path animation_id="9" d="M 0,0 C 0.755,-0.652 1.818,-1.029 2.95,-1.029 C 4.768,-1.029 6.003,0 6.003,1.526 C 6.003,2.367 5.608,3.087 4.939,3.447 C 4.63,3.619 4.27,3.756 3.876,3.859 C 3.67,3.91 3.361,3.979 2.933,4.082 C 1.715,4.39 1.303,4.699 1.303,5.334 C 1.303,6.071 1.938,6.517 2.95,6.517 C 3.807,6.517 4.442,6.294 5.385,5.659 L 5.728,6.603 C 5.145,7.066 4.888,7.203 4.305,7.392 C 3.893,7.512 3.447,7.58 3.001,7.58 C 1.235,7.58 0.103,6.688 0.103,5.282 C 0.103,4.51 0.446,3.876 1.081,3.516 C 1.509,3.276 1.938,3.138 2.898,2.898 C 4.305,2.573 4.751,2.23 4.751,1.441 C 4.751,0.583 4.048,0.052 2.933,0.052 C 1.989,0.052 1.218,0.326 0.36,0.978 L 0,0 z" id="path249" stroke="black" style="fill:#e83419;fill-opacity:1;fill-rule:nonzero;"/>
					
        
				</g>
				
        
				<g id="g251" style="fill:#e83419;fill-opacity:1" transform="translate(174.7429,806.6663)">
					
          
					
					
        
				</g>
				
        
				<g id="g255" style="fill:#e83419;fill-opacity:1" transform="translate(182.6179,799.5834)">
					
          
					
					
        
				</g>
				
        
				<g id="g259" style="fill:#e83419;fill-opacity:1" transform="translate(187.7739,806.0146)">
					
          
					
					
        
				</g>
				
        
				<g id="g263" style="fill:#e83419;fill-opacity:1" transform="translate(196.1558,799.5834)">
					
          
					
					
        
				</g>
				
        
				<g id="g267" style="fill:#e83419;fill-opacity:1" transform="translate(206.8235,803.5964)">
					
          
					
					
        
				</g>
				
        
				<g id="g271" style="fill:#e83419;fill-opacity:1" transform="translate(208.6197,799.5834)">
					
          
					
					
        
				</g>
				
        
				
				
      
			</g>
			
    
		</g>
		
  
	</g>
	

</svg>