<?xml version="1.0" encoding="iso-8859-1"?><!-- Created with Inkscape (http://www.inkscape.org/) --><svg height="209.20743" id="svg2760" version="1.0" width="772.06458" xmlns="http://www.w3.org/2000/svg" xmlns:svg="http://www.w3.org/2000/svg">
	
  
	<defs id="defs2762">
		
    
		<clipPath id="clipPath273">
			
      
			
			
    
		</clipPath>
		
    
		<clipPath id="clipPath267">
			
      
			
			
    
		</clipPath>
		
    
		<clipPath id="clipPath261">
			
      
			
			
    
		</clipPath>
		
  
	</defs>
	
  
	<g id="layer1" transform="translate(300.318,-366.32989)">
		
    
		
		
    
		
		
    
		
		
    
		
		
    
		<path animation_id="7" d="M 376.58013,473.38363 L 385.0486,473.38363 L 384.84036,497.02766 L 384.84036,498.37255 C 384.84036,505.70003 385.56486,509.31388 387.5258,512.20756 C 389.69064,515.20102 393.61685,517.05784 397.9552,517.05784 C 401.56905,517.05784 404.66664,516.23355 408.07225,514.27262 L 408.07225,508.28569 C 406.00719,509.418 405.1829,509.62624 402.9096,510.03838 C 401.77296,510.24662 400.74043,510.35074 399.60378,510.35074 C 396.81856,510.35074 394.64938,509.418 393.72097,507.86921 C 392.58432,506.21629 392.2763,503.63931 392.2763,496.92788 L 392.2763,473.38363 L 408.79241,473.38363 L 408.79241,467.18846 L 392.2763,467.18846 L 392.89234,453.04108 L 385.76877,453.97383 L 385.14838,467.18846 L 376.58013,467.18846 L 376.58013,473.38363" id="path285" stroke="black" style="fill:#ef402f;fill-opacity:1;fill-rule:nonzero;"/>
		
    
		
		
    
		
		
  
	</g>
	

</svg>