<?xml version="1.0" encoding="iso-8859-1"?><!-- Created with Inkscape (http://www.inkscape.org/) --><svg height="147.04724" id="svg8270" version="1.1" width="892.91339" xmlns="http://www.w3.org/2000/svg" xmlns:cc="http://creativecommons.org/ns#" xmlns:dc="http://purl.org/dc/elements/1.1/" xmlns:rdf="http://www.w3.org/1999/02/22-rdf-syntax-ns#" xmlns:svg="http://www.w3.org/2000/svg">
	
  
	<defs id="defs8272">
		
    
		<clipPath id="clipPath8189">
			
      
			
			
    
		</clipPath>
		
    
		<clipPath id="clipPath8177">
			
      
			
			
    
		</clipPath>
		
  
	</defs>
	
  
	<metadata id="metadata8275">
		
    
		<rdf:RDF>
			
      
			<cc:Work rdf:about="">
				
        
				<dc:format>image/svg+xml</dc:format>
				
        
				<dc:type rdf:resource="http://purl.org/dc/dcmitype/StillImage"/>
				
        
				<dc:title/>
				
      
			</cc:Work>
			
    
		</rdf:RDF>
		
  
	</metadata>
	
  
	<g id="layer1" transform="translate(24.559136,-146.68169)">
		
    
		<g id="g8319" transform="matrix(2.8923906,0,0,2.8923906,463.21741,-170.90184)">
			
      
			<g id="g8173" transform="matrix(1.25,0,0,-1.25,-299.90515,1050.8576)">
				
        
				<g clip-path="url(#clipPath8177)" id="g8175">
					
          
					<g id="g8181" transform="translate(147.8619,751.8898)">
						
            
						
						
          
					</g>
					
        
				</g>
				
      
			</g>
			
      
			<g id="g8185" transform="matrix(1.25,0,0,-1.25,-299.90515,1050.8576)">
				
        
				<g clip-path="url(#clipPath8189)" id="g8187">
					
          
					<g id="g8193" transform="translate(171.5302,745.2483)">
						
            
						<path animation_id="3" d="m 0,0 0.001,0.824 c -3.947,0.212 -7.974,-0.178 -11.708,-1.144 -3.703,-1.167 -7.596,-3.596 -9.306,-7.48 -1.804,-4.177 -1.044,-9.617 1.995,-12.919 4.653,-5.245 11.49,-5.342 18.042,-5.633 0.332,0.014 0.662,0.032 0.99,0.055 l 0,0.903 c -0.742,-0.042 -1.485,-0.067 -2.224,-0.084 -5.887,0.096 -12.061,2.332 -14.623,8.256 -0.095,0.584 -0.761,1.263 -0.095,1.748 l 16.942,0.176 0,0.85 -2.129,0.043 -14.624,0.097 -0.76,0.388 c -0.664,1.943 -0.19,4.177 0.475,6.022 2.469,6.119 8.927,7.771 14.814,7.965 C -1.481,0.051 -0.742,0.032 0,0" id="path8195" stroke="black" style="fill:#b5cbab;fill-opacity:1;fill-rule:nonzero;"/>
						
          
					</g>
					
        
				</g>
				
      
			</g>
			
      
			<g id="g8205" transform="matrix(1.25,0,0,-1.25,-164.99377,110.99583)">
				
        
				
				
      
			</g>
			
      
			<g id="g8209" transform="matrix(1.25,0,0,-1.25,-157.82853,127.39433)">
				
        
				
				
      
			</g>
			
      
			<g id="g8213" transform="matrix(1.25,0,0,-1.25,138.84485,127.68908)">
				
        
				
				
      
			</g>
			
    
		</g>
		
  
	</g>
	

</svg>