<?xml version="1.0" encoding="iso-8859-1"?><!-- Created with Inkscape (http://www.inkscape.org/) --><svg height="147.04724" id="svg8270" version="1.1" width="892.91339" xmlns="http://www.w3.org/2000/svg" xmlns:cc="http://creativecommons.org/ns#" xmlns:dc="http://purl.org/dc/elements/1.1/" xmlns:rdf="http://www.w3.org/1999/02/22-rdf-syntax-ns#" xmlns:svg="http://www.w3.org/2000/svg">
	
  
	<defs id="defs8272">
		
    
		<clipPath id="clipPath8189">
			
      
			
			
    
		</clipPath>
		
    
		<clipPath id="clipPath8177">
			
      
			
			
    
		</clipPath>
		
  
	</defs>
	
  
	<metadata id="metadata8275">
		
    
		<rdf:RDF>
			
      
			<cc:Work rdf:about="">
				
        
				<dc:format>image/svg+xml</dc:format>
				
        
				<dc:type rdf:resource="http://purl.org/dc/dcmitype/StillImage"/>
				
        
				<dc:title/>
				
      
			</cc:Work>
			
    
		</rdf:RDF>
		
  
	</metadata>
	
  
	<g id="layer1" transform="translate(24.559136,-146.68169)">
		
    
		<g id="g8319" transform="matrix(2.8923906,0,0,2.8923906,463.21741,-170.90184)">
			
      
			<g id="g8173" transform="matrix(1.25,0,0,-1.25,-299.90515,1050.8576)">
				
        
				<g clip-path="url(#clipPath8177)" id="g8175">
					
          
					<g id="g8181" transform="translate(147.8619,751.8898)">
						
            
						
						
          
					</g>
					
        
				</g>
				
      
			</g>
			
      
			<g id="g8185" transform="matrix(1.25,0,0,-1.25,-299.90515,1050.8576)">
				
        
				<g clip-path="url(#clipPath8189)" id="g8187">
					
          
					<g id="g8193" transform="translate(171.5302,745.2483)">
						
            
						
						
          
					</g>
					
        
				</g>
				
      
			</g>
			
      
			<g id="g8205" transform="matrix(1.25,0,0,-1.25,-164.99377,110.99583)">
				
        
				
				
      
			</g>
			
      
			<g id="g8209" transform="matrix(1.25,0,0,-1.25,-157.82853,127.39433)">
				
        
				<path animation_id="5" d="m 0,0 c 0,1.111 -0.634,1.804 -1.816,1.804 l -1.633,0 c -0.131,0 -0.244,-0.115 -0.244,-0.249 l 0,-5.528 c 0,-0.133 0.113,-0.248 0.244,-0.248 l 0.686,0 c 0.13,0 0.243,0.115 0.243,0.248 l 0,2.16 0.713,0 C -0.765,-1.813 0,-1.102 0,0 m -1.156,0 c 0,-0.471 -0.278,-0.791 -0.738,-0.791 l -0.626,0 0,1.573 0.626,0 c 0.486,0 0.738,-0.284 0.738,-0.782 m 5.875,-3.973 0,5.528 c 0,0.134 -0.113,0.249 -0.243,0.249 l -0.687,0 c -0.13,0 -0.243,-0.115 -0.243,-0.249 l 0,-2.07 -1.503,0 0,2.07 c 0,0.134 -0.113,0.249 -0.244,0.249 l -0.686,0 C 0.983,1.804 0.87,1.689 0.87,1.555 l 0,-5.528 c 0,-0.133 0.113,-0.248 0.243,-0.248 l 0.686,0 c 0.131,0 0.244,0.115 0.244,0.248 l 0,2.444 1.503,0 0,-2.444 c 0,-0.133 0.113,-0.248 0.243,-0.248 l 0.687,0 c 0.13,0 0.243,0.115 0.243,0.248 M 10.254,-3.91 8.63,1.582 C 8.586,1.715 8.456,1.804 8.326,1.804 l -1,0 C 7.196,1.804 7.057,1.715 7.022,1.582 L 5.51,-3.91 c -0.043,-0.16 0.026,-0.311 0.2,-0.311 l 0.721,0 c 0.148,0 0.27,0.088 0.305,0.222 l 0.26,1.111 1.694,0 0.279,-1.111 c 0.034,-0.142 0.156,-0.222 0.304,-0.222 l 0.782,0 c 0.173,0 0.243,0.151 0.199,0.311 m -1.824,2.088 -1.191,0 0.452,2.08 C 7.752,0.533 7.804,0.951 7.822,1.2 7.848,0.96 7.891,0.524 7.952,0.258 l 0.478,-2.08 z m 6.704,-2.053 c -0.148,0.382 -0.565,1.475 -0.773,1.92 -0.174,0.364 -0.487,0.622 -0.791,0.711 0.721,0.16 1.156,0.675 1.156,1.457 0,0.64 -0.313,1.591 -1.825,1.591 l -1.59,0 c -0.13,0 -0.243,-0.115 -0.243,-0.24 l 0,-5.546 c 0,-0.124 0.113,-0.239 0.243,-0.239 l 0.686,0 c 0.131,0 0.244,0.115 0.244,0.239 l 0,2.338 0.226,0 c 0.816,0 1.094,-1.502 1.355,-2.293 0.078,-0.222 0.209,-0.284 0.382,-0.284 l 0.756,0 c 0.235,0 0.252,0.142 0.174,0.346 m -1.599,3.937 c 0,-0.444 -0.269,-0.817 -0.764,-0.817 l -0.53,0 0,1.528 0.617,0 c 0.486,0 0.677,-0.4 0.677,-0.711 m 7.938,-4.035 -0.46,5.528 c -0.009,0.134 -0.148,0.249 -0.278,0.249 l -0.965,0 c -0.13,0 -0.278,-0.089 -0.304,-0.222 L 18.78,-1.76 C 18.736,-1.973 18.693,-2.568 18.667,-2.871 18.641,-2.56 18.597,-2 18.554,-1.76 l -0.66,3.342 C 17.868,1.715 17.72,1.804 17.589,1.804 l -0.99,0 c -0.13,0 -0.269,-0.115 -0.278,-0.249 l -0.469,-5.528 c -0.009,-0.133 0.078,-0.248 0.208,-0.248 l 0.695,0 c 0.131,0 0.27,0.115 0.278,0.248 l 0.131,3.635 c 0.008,0.205 -0.018,1.093 -0.018,1.271 0.052,-0.338 0.131,-1.004 0.192,-1.271 l 0.642,-3.021 c 0.027,-0.134 0.174,-0.223 0.305,-0.223 l 0.729,0 c 0.131,0 0.278,0.089 0.305,0.223 l 0.677,3.021 c 0.07,0.294 0.139,0.933 0.183,1.271 0,-0.24 -0.018,-1.084 -0.009,-1.271 l 0.113,-3.635 c 0,-0.133 0.148,-0.248 0.278,-0.248 l 0.704,0 c 0.13,0 0.217,0.115 0.208,0.248 m 5.41,0.063 -1.625,5.492 c -0.043,0.133 -0.174,0.222 -0.304,0.222 l -0.999,0 c -0.131,0 -0.27,-0.089 -0.304,-0.222 L 22.139,-3.91 c -0.044,-0.16 0.026,-0.311 0.2,-0.311 l 0.721,0 c 0.148,0 0.269,0.088 0.304,0.222 l 0.261,1.111 1.694,0 0.278,-1.111 c 0.035,-0.142 0.156,-0.222 0.304,-0.222 l 0.782,0 c 0.174,0 0.243,0.151 0.2,0.311 m -1.825,2.088 -1.19,0 0.452,2.08 c 0.061,0.275 0.113,0.693 0.13,0.942 0.026,-0.24 0.07,-0.676 0.13,-0.942 l 0.478,-2.08 z m -26.865,-10.16 -0.713,0 0,-2.159 c 0,-0.133 -0.113,-0.249 -0.243,-0.249 l -0.686,0 c -0.131,0 -0.244,0.116 -0.244,0.249 l 0,5.528 c 0,0.133 0.113,0.249 0.244,0.249 l 1.633,0 c 1.182,0 1.816,-0.694 1.816,-1.805 0,-1.102 -0.765,-1.813 -1.807,-1.813 m -0.087,2.596 -0.626,0 0,-1.573 0.626,0 c 0.46,0 0.738,0.319 0.738,0.79 0,0.498 -0.252,0.783 -0.738,0.783 m 6.656,-5.004 -0.756,0 c -0.173,0 -0.304,0.062 -0.382,0.284 -0.261,0.791 -0.539,2.293 -1.355,2.293 l -0.226,0 0,-2.337 c 0,-0.124 -0.113,-0.24 -0.244,-0.24 l -0.686,0 c -0.13,0 -0.243,0.116 -0.243,0.24 l 0,5.546 c 0,0.124 0.113,0.24 0.243,0.24 l 1.59,0 c 1.512,0 1.825,-0.951 1.825,-1.591 0,-0.782 -0.435,-1.298 -1.156,-1.458 0.304,-0.089 0.617,-0.346 0.791,-0.711 0.208,-0.444 0.625,-1.537 0.773,-1.919 0.078,-0.205 0.061,-0.347 -0.174,-0.347 m -2.102,4.995 -0.617,0 0,-1.529 0.53,0 c 0.495,0 0.764,0.373 0.764,0.818 0,0.311 -0.191,0.711 -0.677,0.711 m 4.824,-4.995 -1.712,0 c -0.13,0 -0.235,0.107 -0.235,0.24 l 0,0.435 c 0,0.134 0.105,0.24 0.235,0.24 l 0.269,0 0,4.195 -0.269,0 c -0.13,0 -0.235,0.107 -0.235,0.24 l 0,0.436 c 0,0.133 0.105,0.24 0.235,0.24 l 1.712,0 c 0.13,0 0.234,-0.107 0.234,-0.24 l 0,-0.436 c 0,-0.133 -0.104,-0.24 -0.234,-0.24 l -0.27,0 0,-4.195 0.27,0 c 0.13,0 0.234,-0.106 0.234,-0.24 l 0,-0.435 c 0,-0.133 -0.104,-0.24 -0.234,-0.24 m 3.841,0.222 c -0.035,-0.133 -0.174,-0.222 -0.304,-0.222 l -0.843,0 c -0.13,0 -0.269,0.089 -0.304,0.222 l -1.573,5.493 c -0.043,0.16 0.026,0.311 0.2,0.311 l 0.773,0 c 0.165,0 0.27,-0.089 0.313,-0.258 l 0.869,-3.706 c 0.087,-0.356 0.13,-0.862 0.165,-1.378 0.044,0.516 0.096,1.013 0.183,1.378 l 0.842,3.688 c 0.044,0.187 0.139,0.276 0.322,0.276 l 0.686,0 c 0.174,0 0.244,-0.151 0.2,-0.311 l -1.529,-5.493 z m 6.072,-0.222 -0.782,0 c -0.147,0 -0.269,0.08 -0.304,0.222 l -0.278,1.111 -1.694,0 -0.261,-1.111 c -0.034,-0.133 -0.156,-0.222 -0.304,-0.222 l -0.721,0 c -0.174,0 -0.243,0.151 -0.2,0.311 l 1.512,5.492 c 0.035,0.134 0.174,0.223 0.304,0.223 l 0.999,0 c 0.131,0 0.261,-0.089 0.304,-0.223 l 1.625,-5.492 c 0.044,-0.16 -0.026,-0.311 -0.2,-0.311 m -2.102,4.479 c -0.061,0.267 -0.105,0.702 -0.131,0.942 -0.017,-0.249 -0.069,-0.666 -0.13,-0.942 l -0.452,-2.079 1.191,0 -0.478,2.079 z m 5.818,0.462 -1.13,0 0,-4.692 c 0,-0.133 -0.113,-0.249 -0.243,-0.249 l -0.687,0 c -0.13,0 -0.243,0.116 -0.243,0.249 l 0,4.692 -1.129,0 c -0.131,0 -0.244,0.116 -0.244,0.249 l 0,0.587 c 0,0.133 0.113,0.249 0.244,0.249 l 3.432,0 c 0.13,0 0.243,-0.116 0.243,-0.249 l 0,-0.587 c 0,-0.133 -0.113,-0.249 -0.243,-0.249" id="path8211" stroke="black" style="fill:#ffffff;fill-opacity:1;fill-rule:nonzero;"/>
				
      
			</g>
			
      
			<g id="g8213" transform="matrix(1.25,0,0,-1.25,138.84485,127.68908)">
				
        
				
				
      
			</g>
			
    
		</g>
		
  
	</g>
	

</svg>