<?xml version="1.0" encoding="iso-8859-1"?><!-- Created with Inkscape (http://www.inkscape.org/) --><svg height="147.04724" id="svg8270" version="1.1" width="892.91339" xmlns="http://www.w3.org/2000/svg" xmlns:cc="http://creativecommons.org/ns#" xmlns:dc="http://purl.org/dc/elements/1.1/" xmlns:rdf="http://www.w3.org/1999/02/22-rdf-syntax-ns#" xmlns:svg="http://www.w3.org/2000/svg">
	
  
	<defs id="defs8272">
		
    
		<clipPath id="clipPath8189">
			
      
			
			
    
		</clipPath>
		
    
		<clipPath id="clipPath8177">
			
      
			
			
    
		</clipPath>
		
  
	</defs>
	
  
	<metadata id="metadata8275">
		
    
		<rdf:RDF>
			
      
			<cc:Work rdf:about="">
				
        
				<dc:format>image/svg+xml</dc:format>
				
        
				<dc:type rdf:resource="http://purl.org/dc/dcmitype/StillImage"/>
				
        
				<dc:title/>
				
      
			</cc:Work>
			
    
		</rdf:RDF>
		
  
	</metadata>
	
  
	<g id="layer1" transform="translate(24.559136,-146.68169)">
		
    
		<g id="g8319" transform="matrix(2.8923906,0,0,2.8923906,463.21741,-170.90184)">
			
      
			<g id="g8173" transform="matrix(1.25,0,0,-1.25,-299.90515,1050.8576)">
				
        
				<g clip-path="url(#clipPath8177)" id="g8175">
					
          
					<g id="g8181" transform="translate(147.8619,751.8898)">
						
            
						
						
          
					</g>
					
        
				</g>
				
      
			</g>
			
      
			<g id="g8185" transform="matrix(1.25,0,0,-1.25,-299.90515,1050.8576)">
				
        
				<g clip-path="url(#clipPath8189)" id="g8187">
					
          
					<g id="g8193" transform="translate(171.5302,745.2483)">
						
            
						
						
          
					</g>
					
        
				</g>
				
      
			</g>
			
      
			<g id="g8205" transform="matrix(1.25,0,0,-1.25,-164.99377,110.99583)">
				
        
				
				
      
			</g>
			
      
			<g id="g8209" transform="matrix(1.25,0,0,-1.25,-157.82853,127.39433)">
				
        
				
				
      
			</g>
			
      
			<g id="g8213" transform="matrix(1.25,0,0,-1.25,138.84485,127.68908)">
				
        
				<path animation_id="6" d="m 0,0 c 0,1.431 -1.139,2.596 -2.538,2.596 -1.4,0 -2.539,-1.165 -2.539,-2.596 0,-1.431 1.139,-2.596 2.539,-2.596 C -1.139,-2.596 0,-1.431 0,0 m -1.237,-4.76 -4.686,0 c -0.488,0 -0.879,-0.4 -0.879,-0.899 l 0,-1.465 c 0,-0.499 0.391,-0.899 0.879,-0.899 l 1.334,0 0,-12.05 c 0,-0.499 0.391,-0.898 0.879,-0.898 l 2.473,0 c 0.488,0 0.879,0.399 0.879,0.898 l 0,14.414 c 0,0.499 -0.391,0.899 -0.879,0.899 m -7.169,-7.89 c 0,2.597 -0.423,5.127 -1.953,6.692 -0.65,0.665 -1.855,1.431 -3.287,1.431 -1.692,0 -2.798,-0.799 -3.514,-1.698 l 0,8.023 c 0,0.499 -0.391,0.898 -0.879,0.898 l -2.473,0 c -0.488,0 -0.879,-0.399 -0.879,-0.898 l 0,-21.871 c 0,-0.499 0.391,-0.898 0.879,-0.898 l 1.692,0 c 0.488,0 0.944,0.366 1.074,0.898 l 0.26,1.199 c 0.554,-1.199 2.116,-2.33 3.71,-2.33 2.701,0 5.37,1.364 5.37,8.554 m -4.393,-0.233 c 0,-3.528 -0.912,-4.493 -2.409,-4.493 -1.334,0 -2.115,1.265 -2.115,4.493 0,3.296 0.749,4.694 2.115,4.694 1.79,0 2.409,-1.431 2.409,-4.694 m -11.651,0.067 c 0,5.027 -2.311,8.289 -6.607,8.289 -4.295,0 -6.638,-3.229 -6.638,-8.289 0,-5.226 2.245,-8.388 6.638,-8.388 4.394,0 6.607,3.362 6.607,8.388 m -4.198,0.033 c 0,-3.828 -1.172,-4.693 -2.441,-4.693 -1.237,0 -2.408,0.865 -2.408,4.693 0,3.729 1.139,4.627 2.408,4.627 1.269,0 2.441,-0.898 2.441,-4.627 m -17.43,0.133 c 0,3.03 1.171,4.394 3.254,4.394 0.716,0 1.106,-0.166 1.562,-0.299 0.618,-0.167 0.911,0.133 1.041,0.532 l 0.586,1.898 c 0.098,0.366 0,0.799 -0.586,1.032 -0.911,0.366 -1.952,0.566 -2.929,0.566 -4.848,0 -7.289,-3.595 -7.289,-8.123 0,-5.958 2.701,-8.554 6.964,-8.554 1.204,0 2.441,0.166 3.482,0.565 0.521,0.2 0.619,0.533 0.521,0.999 l -0.358,1.964 c -0.098,0.466 -0.358,0.732 -0.911,0.566 -0.619,-0.2 -1.432,-0.266 -2.018,-0.266 -2.408,0 -3.319,1.398 -3.319,4.726 m -7.671,-8.321 c 0.586,0 0.847,0.332 0.749,0.898 l -0.163,0.966 c -0.163,0.898 -0.13,1.831 -0.13,2.53 l 0,5.259 c 0,2.896 -0.195,6.791 -6.216,6.791 -1.399,0 -3.352,-0.366 -4.426,-0.732 -0.521,-0.167 -0.683,-0.5 -0.553,-1.066 l 0.456,-1.864 c 0.097,-0.466 0.488,-0.732 1.073,-0.533 0.814,0.267 2.116,0.566 3.255,0.566 1.855,0 2.18,-0.632 2.18,-2.363 l -2.636,-0.2 c -4.003,-0.299 -5.467,-2.43 -5.467,-5.293 0,-3.162 1.301,-5.192 4.296,-5.192 1.985,0 3.612,0.765 4.426,1.964 l 0.13,-0.799 c 0.097,-0.6 0.358,-0.932 0.911,-0.932 l 2.115,0 z m -3.775,5.492 c 0,-1.065 -1.041,-2.164 -2.506,-2.164 -0.553,0 -1.399,0.433 -1.399,1.631 0,2.231 1.432,2.564 3.905,2.564 l 0,-2.031 z m -11.249,1.786 0,15.161 c 0,0.602 -0.28,0.906 -0.836,0.906 l -2.76,-0.033 c -0.707,-0.004 -0.806,-0.588 -0.815,-0.845 -0.009,-0.257 0,-15.824 0,-15.824 0,-1.904 0,-3.375 -1.829,-3.375 -2.189,0 -1.993,2.44 -1.993,3.242 0,0.367 -0.284,0.467 -0.545,0.467 l -2.851,0 c -0.196,0 -0.524,-0.162 -0.524,-0.563 0,-2.807 0.882,-6.754 5.88,-6.754 5.194,0 6.273,3.508 6.273,7.618 m -15.3,0.875 c 0.463,0 0.833,0.379 0.833,0.852 l 0,1.324 c 0,0.473 -0.37,0.852 -0.833,0.852 l -4.069,0 0,4.478 c 0,0.473 -0.37,0.851 -0.833,0.851 l -1.418,0 c -0.463,0 -0.833,-0.378 -0.833,-0.851 l 0,-4.478 -4.069,0 c -0.463,0 -0.833,-0.379 -0.833,-0.852 l 0,-1.324 c 0,-0.473 0.37,-0.852 0.833,-0.852 l 4.069,0 0,-4.604 c 0,-0.473 0.37,-0.851 0.833,-0.851 l 1.418,0 c 0.463,0 0.833,0.378 0.833,0.851 l 0,4.604 4.069,0 z m -15.778,-7.92 c 0.423,0.133 0.618,0.466 0.553,0.898 l -0.391,2.098 c -0.097,0.532 -0.423,0.732 -0.943,0.599 -0.228,-0.067 -0.651,-0.1 -0.944,-0.1 -0.586,0 -0.977,0.399 -0.977,1.298 l 0,7.922 1.986,0 c 0.488,0 0.878,0.4 0.878,0.899 l 0,1.465 c 0,0.499 -0.39,0.899 -0.878,0.899 l -1.986,0 0,4.261 c 0,0.799 -0.325,1.231 -1.073,1.065 L -106.002,0 c -0.619,-0.133 -0.781,-0.699 -0.781,-1.332 l 0,-3.428 -1.66,0 c -0.488,0 -0.879,-0.4 -0.879,-0.899 l 0,-1.465 c 0,-0.499 0.391,-0.899 0.879,-0.899 l 1.66,0 0,-9.054 c 0,-2.53 1.074,-4.127 3.775,-4.127 1.139,0 2.376,0.199 3.157,0.466 m -11.413,12.216 0.683,2.397 c 0.13,0.499 0,0.965 -0.748,1.332 -0.358,0.166 -0.912,0.266 -1.66,0.266 -1.725,0 -2.799,-0.899 -3.645,-2.131 l -0.26,0.999 c -0.131,0.533 -0.586,0.899 -1.074,0.899 l -1.758,0 c -0.488,0 -0.878,-0.4 -0.878,-0.899 l 0,-14.414 c 0,-0.499 0.39,-0.898 0.878,-0.898 l 2.474,0 c 0.488,0 0.878,0.399 0.878,0.898 l 0,6.858 c 0,3.462 0.651,4.76 1.888,4.76 0.683,0 1.302,-0.766 2.245,-0.766 0.293,0 0.814,0.167 0.977,0.699 m -13.467,-5.426 c 0.488,0 0.879,0.4 0.879,0.899 0,5.426 -1.985,8.522 -6.281,8.522 -4.003,0 -6.379,-3.462 -6.379,-8.289 0,-5.692 2.669,-8.388 6.867,-8.388 2.115,0 3.482,0.266 4.947,0.932 0.39,0.166 0.683,0.499 0.52,0.998 l -0.651,1.931 c -0.13,0.433 -0.357,0.732 -0.911,0.533 -0.878,-0.333 -1.79,-0.633 -3.059,-0.633 -2.668,0 -3.124,1.365 -3.287,3.495 l 7.355,0 z m -3.352,2.763 -4.003,0 c 0.13,1.665 0.521,3.263 2.05,3.263 1.53,0 1.855,-1.532 1.953,-3.263 m -10.782,-1.465 c 0,2.597 -0.423,5.127 -1.952,6.692 -0.651,0.665 -1.855,1.431 -3.287,1.431 -1.692,0 -2.799,-0.799 -3.515,-1.698 l 0,8.023 c 0,0.499 -0.39,0.898 -0.879,0.898 l -2.473,0 c -0.488,0 -0.879,-0.399 -0.879,-0.898 l 0,-21.871 c 0,-0.499 0.391,-0.898 0.879,-0.898 l 1.692,0 c 0.489,0 0.944,0.366 1.074,0.898 l 0.261,1.199 c 0.553,-1.199 2.115,-2.33 3.71,-2.33 2.701,0 5.369,1.364 5.369,8.554 m -4.393,-0.233 c 0,-3.528 -0.911,-4.493 -2.408,-4.493 -1.335,0 -2.116,1.265 -2.116,4.493 0,3.296 0.749,4.694 2.116,4.694 1.79,0 2.408,-1.431 2.408,-4.694 m -12.585,-8.088 c 0.488,0 0.911,0.432 0.911,0.932 l 0,2.13 c 0,0.499 -0.423,0.932 -0.911,0.932 l -7.094,0 0,6.092 6.053,0 c 0.488,0 0.911,0.433 0.911,0.932 l 0,1.797 c 0,0.5 -0.423,0.933 -0.911,0.933 l -6.053,0 0,4.993 6.801,0 c 0.489,0 0.912,0.432 0.912,0.932 l 0,1.964 c 0,0.499 -0.423,0.932 -0.912,0.932 l -10.284,0 c -0.488,0 -0.911,-0.433 -0.911,-0.932 l 0,-20.705 c 0,-0.5 0.423,-0.932 0.911,-0.932 l 10.577,0 z" id="path8215" stroke="black" style="fill:#00853a;fill-opacity:1;fill-rule:nonzero;"/>
				
      
			</g>
			
    
		</g>
		
  
	</g>
	

</svg>