<?xml version="1.0" encoding="iso-8859-1"?><!-- Created with Inkscape (http://www.inkscape.org/) --><svg height="147.04724" id="svg8270" version="1.1" width="892.91339" xmlns="http://www.w3.org/2000/svg" xmlns:cc="http://creativecommons.org/ns#" xmlns:dc="http://purl.org/dc/elements/1.1/" xmlns:rdf="http://www.w3.org/1999/02/22-rdf-syntax-ns#" xmlns:svg="http://www.w3.org/2000/svg">
	
  
	<defs id="defs8272">
		
    
		<clipPath id="clipPath8189">
			
      
			<path animation_id="0" d="m 147.862,751.89 c 0,0 -1.896,0 -1.896,-1.939 l 0,0 0,-34.882 c 0,0 0,-1.937 1.896,-1.937 l 0,0 21.787,0 c 0,0 1.895,0 1.895,1.937 l 0,0 0,34.882 c 0,0 0,1.939 -1.895,1.939 l 0,0 -21.787,0 z" id="path8191" stroke="black"/>
			
    
		</clipPath>
		
    
		<clipPath id="clipPath8177">
			
      
			
			
    
		</clipPath>
		
  
	</defs>
	
  
	<metadata id="metadata8275">
		
    
		<rdf:RDF>
			
      
			<cc:Work rdf:about="">
				
        
				<dc:format>image/svg+xml</dc:format>
				
        
				<dc:type rdf:resource="http://purl.org/dc/dcmitype/StillImage"/>
				
        
				<dc:title/>
				
      
			</cc:Work>
			
    
		</rdf:RDF>
		
  
	</metadata>
	
  
	<g id="layer1" transform="translate(24.559136,-146.68169)">
		
    
		<g id="g8319" transform="matrix(2.8923906,0,0,2.8923906,463.21741,-170.90184)">
			
      
			<g id="g8173" transform="matrix(1.25,0,0,-1.25,-299.90515,1050.8576)">
				
        
				<g clip-path="url(#clipPath8177)" id="g8175">
					
          
					<g id="g8181" transform="translate(147.8619,751.8898)">
						
            
						
						
          
					</g>
					
        
				</g>
				
      
			</g>
			
      
			<g id="g8185" transform="matrix(1.25,0,0,-1.25,-299.90515,1050.8576)">
				
        
				<g clip-path="url(#clipPath8189)" id="g8187">
					
          
					<g id="g8193" transform="translate(171.5302,745.2483)">
						
            
						
						
          
					</g>
					
        
				</g>
				
      
			</g>
			
      
			<g id="g8205" transform="matrix(1.25,0,0,-1.25,-164.99377,110.99583)">
				
        
				
				
      
			</g>
			
      
			<g id="g8209" transform="matrix(1.25,0,0,-1.25,-157.82853,127.39433)">
				
        
				
				
      
			</g>
			
      
			<g id="g8213" transform="matrix(1.25,0,0,-1.25,138.84485,127.68908)">
				
        
				
				
      
			</g>
			
    
		</g>
		
  
	</g>
	

</svg>