<?xml version="1.0" encoding="iso-8859-1"?><!-- Created with Inkscape (http://www.inkscape.org/) --><svg height="180" id="svg2" inkscape:version="0.47 r22583" sodipodi:docname="Eckes Logo.svg" version="1.1" width="625" xml:space="preserve" xmlns="http://www.w3.org/2000/svg" xmlns:cc="http://creativecommons.org/ns#" xmlns:dc="http://purl.org/dc/elements/1.1/" xmlns:inkscape="http://www.inkscape.org/namespaces/inkscape" xmlns:rdf="http://www.w3.org/1999/02/22-rdf-syntax-ns#" xmlns:sodipodi="http://sodipodi.sourceforge.net/DTD/sodipodi-0.dtd" xmlns:svg="http://www.w3.org/2000/svg">
	<metadata id="metadata8">
		<rdf:RDF>
			<cc:Work rdf:about="">
				<dc:format>image/svg+xml</dc:format>
				<dc:type rdf:resource="http://purl.org/dc/dcmitype/StillImage"/>
				<dc:title/>
			</cc:Work>
		</rdf:RDF>
	</metadata>
	<defs id="defs6">
		<inkscape:perspective id="perspective10" inkscape:persp3d-origin="0.5 : 0.33333333 : 1" inkscape:vp_x="0 : 0.5 : 1" inkscape:vp_y="0 : 1000 : 0" inkscape:vp_z="1 : 0.5 : 1" sodipodi:type="inkscape:persp3d"/>
		<clipPath clipPathUnits="userSpaceOnUse" id="clipPath20">
			
		</clipPath>
	</defs>
	<sodipodi:namedview bordercolor="#666666" borderopacity="1" gridtolerance="10" guidetolerance="10" id="namedview4" inkscape:current-layer="g3071" inkscape:cx="312.5" inkscape:cy="90" inkscape:guide-bbox="true" inkscape:pageopacity="0" inkscape:pageshadow="2" inkscape:window-height="749" inkscape:window-maximized="1" inkscape:window-width="1024" inkscape:window-x="-4" inkscape:window-y="-4" inkscape:zoom="1.0453867" objecttolerance="10" pagecolor="#ffffff" showgrid="false" showguides="true"/>
	<g id="g12" inkscape:groupmode="layer" inkscape:label="Eckes Logo" transform="matrix(1.25,0,0,-1.25,-54.9913,622.96909)">
		<g id="g3071" transform="translate(-169.47034,101.6822)">
			<g id="g2885" transform="matrix(2.1214242,0,0,2.1214242,-508.38585,-491.14508)">
				<g id="g2863" transform="translate(340.72457,310.3983)">
					
					
					
					
					
					
					
					<path animation_id="8" d="m 185.189,64.7648 c 0,0 -9.5,0 -11.334,0 -1.834,0 -1.583,1.5418 -1.583,1.5418 0,0 0,8.0832 0,9.75 0,1.6672 1.5,1.4582 1.5,1.4582 0,0 6.333,0 7.625,0 1.292,0 2,-0.666 2.333,-1 0.333,-0.3339 1.709,-2.5832 1.709,-2.5832 l 0,15.8332 c 0,0 -0.5,-1.5414 -1.709,-2.6664 -1.209,-1.125 -2.333,-1 -2.333,-1 0,0 -6.25,0 -7.708,0 -1.459,0 -1.292,1.125 -1.292,1.125 0,0 0,5.75 0,7.2918 0,1.5418 1.5,1.2914 1.5,1.2914 0,0 5.917,-0.0414 9.333,-0.0414 3.416,0 5.584,-2.625 5.584,-2.625 l -1.584,11.4578 -34.166,0 c 2.5,-1.75 2.166,-3.083 2.166,-3.083 0,0 0.098,-41.0802 0.041,-41.6673 -0.375,-3.9161 -2.249,-4.6661 -2.249,-4.6661 l 35.75,0 c 0,0 1.625,10.625 1.917,13.1672 -2.25,-3.5832 -5.5,-3.584 -5.5,-3.584" id="path106" stroke="black" style="fill:#206342;fill-opacity:1;fill-rule:nonzero;"/>
					
					
					
					
					
					
				</g>
				
			</g>
		</g>
	</g>
</svg>