<?xml version="1.0" encoding="iso-8859-1"?><!-- Created with Inkscape (http://www.inkscape.org/) --><svg height="180" id="svg2" inkscape:version="0.47 r22583" sodipodi:docname="Eckes Logo.svg" version="1.1" width="625" xml:space="preserve" xmlns="http://www.w3.org/2000/svg" xmlns:cc="http://creativecommons.org/ns#" xmlns:dc="http://purl.org/dc/elements/1.1/" xmlns:inkscape="http://www.inkscape.org/namespaces/inkscape" xmlns:rdf="http://www.w3.org/1999/02/22-rdf-syntax-ns#" xmlns:sodipodi="http://sodipodi.sourceforge.net/DTD/sodipodi-0.dtd" xmlns:svg="http://www.w3.org/2000/svg">
	<metadata id="metadata8">
		<rdf:RDF>
			<cc:Work rdf:about="">
				<dc:format>image/svg+xml</dc:format>
				<dc:type rdf:resource="http://purl.org/dc/dcmitype/StillImage"/>
				<dc:title/>
			</cc:Work>
		</rdf:RDF>
	</metadata>
	<defs id="defs6">
		<inkscape:perspective id="perspective10" inkscape:persp3d-origin="0.5 : 0.33333333 : 1" inkscape:vp_x="0 : 0.5 : 1" inkscape:vp_y="0 : 1000 : 0" inkscape:vp_z="1 : 0.5 : 1" sodipodi:type="inkscape:persp3d"/>
		<clipPath clipPathUnits="userSpaceOnUse" id="clipPath20">
			
		</clipPath>
	</defs>
	<sodipodi:namedview bordercolor="#666666" borderopacity="1" gridtolerance="10" guidetolerance="10" id="namedview4" inkscape:current-layer="g3071" inkscape:cx="312.5" inkscape:cy="90" inkscape:guide-bbox="true" inkscape:pageopacity="0" inkscape:pageshadow="2" inkscape:window-height="749" inkscape:window-maximized="1" inkscape:window-width="1024" inkscape:window-x="-4" inkscape:window-y="-4" inkscape:zoom="1.0453867" objecttolerance="10" pagecolor="#ffffff" showgrid="false" showguides="true"/>
	<g id="g12" inkscape:groupmode="layer" inkscape:label="Eckes Logo" transform="matrix(1.25,0,0,-1.25,-54.9913,622.96909)">
		<g id="g3071" transform="translate(-169.47034,101.6822)">
			<g id="g2885" transform="matrix(2.1214242,0,0,2.1214242,-508.38585,-491.14508)">
				<g id="g2863" transform="translate(340.72457,310.3983)">
					
					<path animation_id="2" d="m 32.7922,62.9309 c 0,0 -8.541,0 -11.666,0 -3.125,0 -3.334,2.9589 -3.334,2.9589 l 0,10.0829 c 0,3.2921 3.084,3.2921 3.084,3.2921 0,0 7.041,0 8.166,0 1.125,0 2,-0.5839 2,-0.5839 0,0 0.041,5.8336 0,6.3336 -0.459,-0.5422 -1.959,-0.6668 -1.959,-0.6668 0,0 -6,-0.0414 -8.375,-0.0414 -2.375,0 -2.707,2.5 -2.707,2.5 0,0 0,4.3332 0,7.6664 0,3.3336 3.332,3.0836 3.332,3.0836 0,0 7.709,0 9.418,0 1.7078,0 3.125,-0.7086 3.125,-0.7086 l -0.834,6.0003 -28.91798,0 c 0.20703,-1.542 0.16797,-2.042 0.16797,-2.042 0,0 0,-38.4162 0,-40.4583 0,-2.0418 -0.625,-3.4168 -0.625,-3.4168 l 30.91681,0 c 0,0 1,6.0839 1.1672,7.0839 -0.834,-0.8332 -2.959,-1.0839 -2.959,-1.0839" id="path94" stroke="black" style="fill:#0a9168;fill-opacity:1;fill-rule:nonzero;"/>
					
					
					
					
					
					
					
					
					
					
					
					
				</g>
				
			</g>
		</g>
	</g>
</svg>