<?xml version="1.0" encoding="iso-8859-1"?><!-- Created with Inkscape (http://www.inkscape.org/) --><svg height="180" id="svg2" inkscape:version="0.47 r22583" sodipodi:docname="Eckes Logo.svg" version="1.1" width="625" xml:space="preserve" xmlns="http://www.w3.org/2000/svg" xmlns:cc="http://creativecommons.org/ns#" xmlns:dc="http://purl.org/dc/elements/1.1/" xmlns:inkscape="http://www.inkscape.org/namespaces/inkscape" xmlns:rdf="http://www.w3.org/1999/02/22-rdf-syntax-ns#" xmlns:sodipodi="http://sodipodi.sourceforge.net/DTD/sodipodi-0.dtd" xmlns:svg="http://www.w3.org/2000/svg">
	<metadata id="metadata8">
		<rdf:RDF>
			<cc:Work rdf:about="">
				<dc:format>image/svg+xml</dc:format>
				<dc:type rdf:resource="http://purl.org/dc/dcmitype/StillImage"/>
				<dc:title/>
			</cc:Work>
		</rdf:RDF>
	</metadata>
	<defs id="defs6">
		<inkscape:perspective id="perspective10" inkscape:persp3d-origin="0.5 : 0.33333333 : 1" inkscape:vp_x="0 : 0.5 : 1" inkscape:vp_y="0 : 1000 : 0" inkscape:vp_z="1 : 0.5 : 1" sodipodi:type="inkscape:persp3d"/>
		<clipPath clipPathUnits="userSpaceOnUse" id="clipPath20">
			
		</clipPath>
	</defs>
	<sodipodi:namedview bordercolor="#666666" borderopacity="1" gridtolerance="10" guidetolerance="10" id="namedview4" inkscape:current-layer="g3071" inkscape:cx="312.5" inkscape:cy="90" inkscape:guide-bbox="true" inkscape:pageopacity="0" inkscape:pageshadow="2" inkscape:window-height="749" inkscape:window-maximized="1" inkscape:window-width="1024" inkscape:window-x="-4" inkscape:window-y="-4" inkscape:zoom="1.0453867" objecttolerance="10" pagecolor="#ffffff" showgrid="false" showguides="true"/>
	<g id="g12" inkscape:groupmode="layer" inkscape:label="Eckes Logo" transform="matrix(1.25,0,0,-1.25,-54.9913,622.96909)">
		<g id="g3071" transform="translate(-169.47034,101.6822)">
			<g id="g2885" transform="matrix(2.1214242,0,0,2.1214242,-508.38585,-491.14508)">
				<g id="g2863" transform="translate(340.72457,310.3983)">
					
					
					
					
					
					
					<path animation_id="7" d="m 124.475,55.1184 25.567,0 c -2.062,1.4375 -4.75,4.5625 -4.75,4.5625 l -16.75,25.875 c 0,0 13.501,13.9984 14.188,14.6251 1.438,1.312 5.471,4.5 5.471,4.5 l -20.409,0 c 0,0 0.5,-0.5 1.125,-1.25 1.563,-1.813 0.687,-2.266 0.438,-2.563 -3.938,-4.6871 -17.063,-19.4996 -17.063,-19.4996 0,0 13,-21.25 13.563,-22.1875 0.562,-0.9375 0.562,-1.8125 0.187,-2.3125 -0.803,-1.3008 -1.3,-1.6633 -1.567,-1.75" id="path104" stroke="black" style="fill:#206342;fill-opacity:1;fill-rule:nonzero;"/>
					
					
					
					
					
					
					
				</g>
				
			</g>
		</g>
	</g>
</svg>