<?xml version="1.0" encoding="iso-8859-1"?><!-- Created with Inkscape (http://www.inkscape.org/) --><svg height="180" id="svg2" inkscape:version="0.47 r22583" sodipodi:docname="Eckes Logo.svg" version="1.1" width="625" xml:space="preserve" xmlns="http://www.w3.org/2000/svg" xmlns:cc="http://creativecommons.org/ns#" xmlns:dc="http://purl.org/dc/elements/1.1/" xmlns:inkscape="http://www.inkscape.org/namespaces/inkscape" xmlns:rdf="http://www.w3.org/1999/02/22-rdf-syntax-ns#" xmlns:sodipodi="http://sodipodi.sourceforge.net/DTD/sodipodi-0.dtd" xmlns:svg="http://www.w3.org/2000/svg">
	<metadata id="metadata8">
		<rdf:RDF>
			<cc:Work rdf:about="">
				<dc:format>image/svg+xml</dc:format>
				<dc:type rdf:resource="http://purl.org/dc/dcmitype/StillImage"/>
				<dc:title/>
			</cc:Work>
		</rdf:RDF>
	</metadata>
	<defs id="defs6">
		<inkscape:perspective id="perspective10" inkscape:persp3d-origin="0.5 : 0.33333333 : 1" inkscape:vp_x="0 : 0.5 : 1" inkscape:vp_y="0 : 1000 : 0" inkscape:vp_z="1 : 0.5 : 1" sodipodi:type="inkscape:persp3d"/>
		<clipPath clipPathUnits="userSpaceOnUse" id="clipPath20">
			
		</clipPath>
	</defs>
	<sodipodi:namedview bordercolor="#666666" borderopacity="1" gridtolerance="10" guidetolerance="10" id="namedview4" inkscape:current-layer="g3071" inkscape:cx="312.5" inkscape:cy="90" inkscape:guide-bbox="true" inkscape:pageopacity="0" inkscape:pageshadow="2" inkscape:window-height="749" inkscape:window-maximized="1" inkscape:window-width="1024" inkscape:window-x="-4" inkscape:window-y="-4" inkscape:zoom="1.0453867" objecttolerance="10" pagecolor="#ffffff" showgrid="false" showguides="true"/>
	<g id="g12" inkscape:groupmode="layer" inkscape:label="Eckes Logo" transform="matrix(1.25,0,0,-1.25,-54.9913,622.96909)">
		<g id="g3071" transform="translate(-169.47034,101.6822)">
			<g id="g2885" transform="matrix(2.1214242,0,0,2.1214242,-508.38585,-491.14508)">
				<g id="g2863" transform="translate(340.72457,310.3983)">
					
					
					
					
					
					
					
					
					
					
					
					
					
					<path animation_id="14" d="m 228.354,93.6809 c 0,0 -3.374,4.75 -9.624,5.25 -6.25,0.5 -8.813,-1.0625 -10,-2.6875 -1.188,-1.625 -1.188,-5.375 3.624,-7.4375 4.813,-2.0625 12.563,-5.0625 16.75,-8.4375 4.188,-3.375 3.325,-10.5039 3.25,-11.25 -0.124,-1.25 -1.5,-10.8125 -14.687,-13.625 -8.813,-0.6875 -17.592,2.1472 -18.75,2.4375 -0.25,0.0625 -1.937,0.5 -2.313,0.125 0.126,0.9375 1.188,10.9375 1.188,10.9375 0,0 4.562,-6.125 11.375,-7.5 6.813,-1.375 11.063,1.1875 11.75,5.0625 0.687,3.875 -0.75,6.75 -5.875,8.75 -5.125,2 -13.375,5.1875 -15.75,7.8125 -2.375,2.625 -3.625,6.6875 -2.938,9.625 0.688,2.9375 1.063,6.6875 7.126,9.9376 6.062,3.25 16.874,1.187 19.25,0.125 0.714,-0.32 3.874,-1.375 4.75,-1.625 0.874,-0.25 2,-0.188 2,-0.188 l -1.126,-7.3121" id="path118" stroke="black" style="fill:#0a9168;fill-opacity:1;fill-rule:nonzero;"/>
				</g>
				
			</g>
		</g>
	</g>
</svg>