<?xml version="1.0" encoding="iso-8859-1"?><!-- Created with Inkscape (http://www.inkscape.org/) --><svg height="180" id="svg2" inkscape:version="0.47 r22583" sodipodi:docname="Eckes Logo.svg" version="1.1" width="625" xml:space="preserve" xmlns="http://www.w3.org/2000/svg" xmlns:cc="http://creativecommons.org/ns#" xmlns:dc="http://purl.org/dc/elements/1.1/" xmlns:inkscape="http://www.inkscape.org/namespaces/inkscape" xmlns:rdf="http://www.w3.org/1999/02/22-rdf-syntax-ns#" xmlns:sodipodi="http://sodipodi.sourceforge.net/DTD/sodipodi-0.dtd" xmlns:svg="http://www.w3.org/2000/svg">
	<metadata id="metadata8">
		<rdf:RDF>
			<cc:Work rdf:about="">
				<dc:format>image/svg+xml</dc:format>
				<dc:type rdf:resource="http://purl.org/dc/dcmitype/StillImage"/>
				<dc:title/>
			</cc:Work>
		</rdf:RDF>
	</metadata>
	<defs id="defs6">
		<inkscape:perspective id="perspective10" inkscape:persp3d-origin="0.5 : 0.33333333 : 1" inkscape:vp_x="0 : 0.5 : 1" inkscape:vp_y="0 : 1000 : 0" inkscape:vp_z="1 : 0.5 : 1" sodipodi:type="inkscape:persp3d"/>
		<clipPath clipPathUnits="userSpaceOnUse" id="clipPath20">
			
		</clipPath>
	</defs>
	<sodipodi:namedview bordercolor="#666666" borderopacity="1" gridtolerance="10" guidetolerance="10" id="namedview4" inkscape:current-layer="g3071" inkscape:cx="312.5" inkscape:cy="90" inkscape:guide-bbox="true" inkscape:pageopacity="0" inkscape:pageshadow="2" inkscape:window-height="749" inkscape:window-maximized="1" inkscape:window-width="1024" inkscape:window-x="-4" inkscape:window-y="-4" inkscape:zoom="1.0453867" objecttolerance="10" pagecolor="#ffffff" showgrid="false" showguides="true"/>
	<g id="g12" inkscape:groupmode="layer" inkscape:label="Eckes Logo" transform="matrix(1.25,0,0,-1.25,-54.9913,622.96909)">
		<g id="g3071" transform="translate(-169.47034,101.6822)">
			<g id="g2885" transform="matrix(2.1214242,0,0,2.1214242,-508.38585,-491.14508)">
				<g id="g2863" transform="translate(340.72457,310.3983)">
					
					
					
					
					
					
					
					
					<path animation_id="9" d="m 227.604,83.6809 c -1.562,0.875 -11.062,5.625 -14.312,6.6875 -3.25,1.0625 -3.688,3.625 -3.188,4.4375 0.5,0.8125 2.063,3.0625 8.438,2.3125 6.375,-0.75 9.648,-5.6262 10.73,-8.5004 0.233,1.455 2.52,15.75 2.52,15.75 -0.312,-0.25 -1.688,-1.625 -2.625,-1.625 -0.937,0 -1.875,0.375 -3.125,0.813 -1.25,0.437 -5.625,2.625 -13.5,2.75 -7.875,0.125 -17,-3.875 -18.124,-13.2501 -1.126,-9.375 5.874,-13.125 7.499,-13.9375 1.625,-0.8125 6.625,-3.4375 12.25,-5.375 5.625,-1.9375 4.937,-5.875 4.937,-6.25 0,-0.375 0.25,-3.6875 -5.374,-4.4375 -5.626,-0.75 -13.543,3.3222 -17.022,11.2859 -0.699,-6.1309 -2.29,-20.0984 -2.29,-20.0984 0,0 1.436,1.8125 2.062,2.0625 0.624,0.25 3.937,-0.4375 6.25,-1.125 2.312,-0.6875 11,-2.1875 15.124,-1.5 4.126,0.6875 14.438,4.0625 16.188,14.5625 1.75,10.5 -4.875,14.5625 -6.438,15.4375" id="path108" stroke="black" style="fill:#206342;fill-opacity:1;fill-rule:nonzero;"/>
					
					
					
					
					
				</g>
				
			</g>
		</g>
	</g>
</svg>