<?xml version="1.0" encoding="iso-8859-1"?><!-- Created with Inkscape (http://www.inkscape.org/) --><svg height="98.660004" id="svg2403" inkscape:output_extension="org.inkscape.output.svg.inkscape" inkscape:version="0.46" sodipodi:docname="Ecovis Logo.svg" sodipodi:version="0.32" version="1.0" width="372.42999" xml:space="preserve" xmlns="http://www.w3.org/2000/svg" xmlns:cc="http://creativecommons.org/ns#" xmlns:dc="http://purl.org/dc/elements/1.1/" xmlns:inkscape="http://www.inkscape.org/namespaces/inkscape" xmlns:rdf="http://www.w3.org/1999/02/22-rdf-syntax-ns#" xmlns:sodipodi="http://sodipodi.sourceforge.net/DTD/sodipodi-0.dtd" xmlns:svg="http://www.w3.org/2000/svg">
	<metadata id="metadata2408">
		<rdf:RDF>
			<cc:Work rdf:about="">
				<dc:format>image/svg+xml</dc:format>
				<dc:type rdf:resource="http://purl.org/dc/dcmitype/StillImage"/>
			</cc:Work>
		</rdf:RDF>
	</metadata>
	<defs id="defs2406">
		<inkscape:perspective id="perspective2410" inkscape:persp3d-origin="372.04724 : 350.78739 : 1" inkscape:vp_x="0 : 526.18109 : 1" inkscape:vp_y="0 : 1000 : 0" inkscape:vp_z="744.09448 : 526.18109 : 1" sodipodi:type="inkscape:persp3d"/>
	</defs>
	<sodipodi:namedview bordercolor="#666666" borderopacity="1.0" gridtolerance="10.0" guidetolerance="10.0" id="base" inkscape:current-layer="g2412" inkscape:cx="106.82988" inkscape:cy="-27.953125" inkscape:pageopacity="0.0" inkscape:pageshadow="2" inkscape:window-height="974" inkscape:window-width="1280" inkscape:window-x="-8" inkscape:window-y="-8" inkscape:zoom="1" objecttolerance="10.0" pagecolor="#ffffff" showgrid="false"/>
	<g id="g2412" inkscape:groupmode="layer" inkscape:label="ecovis_coaching" transform="matrix(1.25,0,0,-1.25,88.283325,670.02079)">
		
		
		
		<path animation_id="3" d="M 106.04811,515.41569 C 95.655999,515.41569 87.042992,506.90136 87.042992,496.50927 C 87.042992,485.73114 95.559817,477.60035 106.04811,477.60035 C 116.53766,477.60035 125.05447,485.73114 125.05447,496.50927 C 125.05447,506.90136 116.4402,515.41569 106.04811,515.41569 L 106.04811,515.41569 M 106.04811,481.83315 C 98.205951,481.83315 91.566896,488.23234 91.566896,496.50927 C 91.566896,504.49762 97.533782,511.18414 106.04811,511.18414 C 114.56492,511.18414 120.52933,504.49762 120.52933,496.50927 C 120.52933,488.23234 113.89154,481.83315 106.04811,481.83315 L 106.04811,481.83315 z" id="path2504" stroke="black" style="fill:#848282;fill-opacity:1;fill-rule:evenodd;"/>
		
		
		
		
		
		
		
		
		
	</g>
</svg>