<?xml version="1.0" encoding="iso-8859-1"?><!-- Created with Inkscape (http://www.inkscape.org/) --><svg height="98.660004" id="svg2403" inkscape:output_extension="org.inkscape.output.svg.inkscape" inkscape:version="0.46" sodipodi:docname="Ecovis Logo.svg" sodipodi:version="0.32" version="1.0" width="372.42999" xml:space="preserve" xmlns="http://www.w3.org/2000/svg" xmlns:cc="http://creativecommons.org/ns#" xmlns:dc="http://purl.org/dc/elements/1.1/" xmlns:inkscape="http://www.inkscape.org/namespaces/inkscape" xmlns:rdf="http://www.w3.org/1999/02/22-rdf-syntax-ns#" xmlns:sodipodi="http://sodipodi.sourceforge.net/DTD/sodipodi-0.dtd" xmlns:svg="http://www.w3.org/2000/svg">
	<metadata id="metadata2408">
		<rdf:RDF>
			<cc:Work rdf:about="">
				<dc:format>image/svg+xml</dc:format>
				<dc:type rdf:resource="http://purl.org/dc/dcmitype/StillImage"/>
			</cc:Work>
		</rdf:RDF>
	</metadata>
	<defs id="defs2406">
		<inkscape:perspective id="perspective2410" inkscape:persp3d-origin="372.04724 : 350.78739 : 1" inkscape:vp_x="0 : 526.18109 : 1" inkscape:vp_y="0 : 1000 : 0" inkscape:vp_z="744.09448 : 526.18109 : 1" sodipodi:type="inkscape:persp3d"/>
	</defs>
	<sodipodi:namedview bordercolor="#666666" borderopacity="1.0" gridtolerance="10.0" guidetolerance="10.0" id="base" inkscape:current-layer="g2412" inkscape:cx="106.82988" inkscape:cy="-27.953125" inkscape:pageopacity="0.0" inkscape:pageshadow="2" inkscape:window-height="974" inkscape:window-width="1280" inkscape:window-x="-8" inkscape:window-y="-8" inkscape:zoom="1" objecttolerance="10.0" pagecolor="#ffffff" showgrid="false"/>
	<g id="g2412" inkscape:groupmode="layer" inkscape:label="ecovis_coaching" transform="matrix(1.25,0,0,-1.25,88.283325,670.02079)">
		
		
		
		
		
		
		<path animation_id="6" d="M 205.51886,509.93228 C 203.54614,513.44546 200.22538,515.41569 196.18373,515.41569 C 190.70033,515.41569 185.50303,511.90627 185.50303,506.03681 C 185.50303,500.98443 189.25483,498.62568 193.39516,496.8466 L 195.89511,495.78588 C 199.02099,494.48782 202.15188,492.80495 202.15188,488.90823 C 202.15188,485.10521 199.35959,481.83315 195.46411,481.83315 C 191.56738,481.83315 188.39028,484.72041 188.44025,488.71332 L 183.86764,487.75008 C 184.63848,481.92937 189.20734,477.60035 195.0768,477.60035 C 201.57467,477.60035 206.67329,482.31541 206.67329,488.90823 C 206.67329,494.97008 202.82652,497.80734 197.67669,499.8263 L 195.0768,500.83826 C 192.81673,501.70658 190.02694,503.19579 190.02694,506.03681 C 190.02694,509.21018 193.20153,511.18414 196.09004,511.18414 C 198.8336,511.18414 200.56394,510.02975 201.9095,507.76717 L 205.51886,509.93228 L 205.51886,509.93228 z" id="path2510" stroke="black" style="fill:#848282;fill-opacity:1;fill-rule:nonzero;"/>
		
		
		
		
		
		
	</g>
</svg>