<?xml version="1.0" encoding="iso-8859-1"?><!-- Created with Inkscape (http://www.inkscape.org/) --><svg height="98.660004" id="svg2403" inkscape:output_extension="org.inkscape.output.svg.inkscape" inkscape:version="0.46" sodipodi:docname="Ecovis Logo.svg" sodipodi:version="0.32" version="1.0" width="372.42999" xml:space="preserve" xmlns="http://www.w3.org/2000/svg" xmlns:cc="http://creativecommons.org/ns#" xmlns:dc="http://purl.org/dc/elements/1.1/" xmlns:inkscape="http://www.inkscape.org/namespaces/inkscape" xmlns:rdf="http://www.w3.org/1999/02/22-rdf-syntax-ns#" xmlns:sodipodi="http://sodipodi.sourceforge.net/DTD/sodipodi-0.dtd" xmlns:svg="http://www.w3.org/2000/svg">
	<metadata id="metadata2408">
		<rdf:RDF>
			<cc:Work rdf:about="">
				<dc:format>image/svg+xml</dc:format>
				<dc:type rdf:resource="http://purl.org/dc/dcmitype/StillImage"/>
			</cc:Work>
		</rdf:RDF>
	</metadata>
	<defs id="defs2406">
		<inkscape:perspective id="perspective2410" inkscape:persp3d-origin="372.04724 : 350.78739 : 1" inkscape:vp_x="0 : 526.18109 : 1" inkscape:vp_y="0 : 1000 : 0" inkscape:vp_z="744.09448 : 526.18109 : 1" sodipodi:type="inkscape:persp3d"/>
	</defs>
	<sodipodi:namedview bordercolor="#666666" borderopacity="1.0" gridtolerance="10.0" guidetolerance="10.0" id="base" inkscape:current-layer="g2412" inkscape:cx="106.82988" inkscape:cy="-27.953125" inkscape:pageopacity="0.0" inkscape:pageshadow="2" inkscape:window-height="974" inkscape:window-width="1280" inkscape:window-x="-8" inkscape:window-y="-8" inkscape:zoom="1" objecttolerance="10.0" pagecolor="#ffffff" showgrid="false"/>
	<g id="g2412" inkscape:groupmode="layer" inkscape:label="ecovis_coaching" transform="matrix(1.25,0,0,-1.25,88.283325,670.02079)">
		
		
		<path animation_id="2" d="M 79.39822,512.96321 C 76.65589,514.64734 73.43258,515.41569 70.256737,515.41569 C 59.574773,515.41569 50.964274,507.04628 50.964274,496.31687 C 50.964274,485.82857 59.52732,477.60035 69.871939,477.60035 C 73.047781,477.60035 76.609682,478.51113 79.39822,480.15278 L 79.39822,485.49001 C 76.705864,483.08376 73.288916,481.7357 69.728247,481.7357 C 61.646195,481.7357 55.485671,488.51968 55.485671,496.46056 C 55.485671,504.49762 61.692431,511.2816 69.824443,511.2816 C 73.24142,511.2816 76.80206,510.02975 79.39822,507.71844 L 79.39822,512.96321 L 79.39822,512.96321 z" id="path2502" stroke="black" style="fill:#848282;fill-opacity:1;fill-rule:nonzero;"/>
		
		
		
		
		
		
		
		
		
		
	</g>
</svg>