<?xml version="1.0" encoding="iso-8859-1"?><!-- Created with Inkscape (http://www.inkscape.org/) --><svg height="98.660004" id="svg2403" inkscape:output_extension="org.inkscape.output.svg.inkscape" inkscape:version="0.46" sodipodi:docname="Ecovis Logo.svg" sodipodi:version="0.32" version="1.0" width="372.42999" xml:space="preserve" xmlns="http://www.w3.org/2000/svg" xmlns:cc="http://creativecommons.org/ns#" xmlns:dc="http://purl.org/dc/elements/1.1/" xmlns:inkscape="http://www.inkscape.org/namespaces/inkscape" xmlns:rdf="http://www.w3.org/1999/02/22-rdf-syntax-ns#" xmlns:sodipodi="http://sodipodi.sourceforge.net/DTD/sodipodi-0.dtd" xmlns:svg="http://www.w3.org/2000/svg">
	<metadata id="metadata2408">
		<rdf:RDF>
			<cc:Work rdf:about="">
				<dc:format>image/svg+xml</dc:format>
				<dc:type rdf:resource="http://purl.org/dc/dcmitype/StillImage"/>
			</cc:Work>
		</rdf:RDF>
	</metadata>
	<defs id="defs2406">
		<inkscape:perspective id="perspective2410" inkscape:persp3d-origin="372.04724 : 350.78739 : 1" inkscape:vp_x="0 : 526.18109 : 1" inkscape:vp_y="0 : 1000 : 0" inkscape:vp_z="744.09448 : 526.18109 : 1" sodipodi:type="inkscape:persp3d"/>
	</defs>
	<sodipodi:namedview bordercolor="#666666" borderopacity="1.0" gridtolerance="10.0" guidetolerance="10.0" id="base" inkscape:current-layer="g2412" inkscape:cx="106.82988" inkscape:cy="-27.953125" inkscape:pageopacity="0.0" inkscape:pageshadow="2" inkscape:window-height="974" inkscape:window-width="1280" inkscape:window-x="-8" inkscape:window-y="-8" inkscape:zoom="1" objecttolerance="10.0" pagecolor="#ffffff" showgrid="false"/>
	<g id="g2412" inkscape:groupmode="layer" inkscape:label="ecovis_coaching" transform="matrix(1.25,0,0,-1.25,88.283325,670.02079)">
		<path animation_id="0" d="M 218.4534,504.66253 C 221.6155,504.66253 224.1167,507.16124 224.1167,510.30711 C 224.1167,513.45296 221.6155,515.95166 218.4534,515.95166 C 215.29504,515.95166 212.79385,513.45296 212.79385,510.30711 C 212.79385,507.16124 215.29504,504.66253 218.4534,504.66253 L 218.4534,504.66253 M 218.4534,515.0334 C 221.04205,515.0334 223.19469,512.98071 223.19469,510.30711 C 223.19469,507.65097 221.04205,505.58331 218.4534,505.58331 C 215.86973,505.58331 213.71335,507.65097 213.71335,510.30711 C 213.71335,512.98071 215.86973,515.0334 218.4534,515.0334 L 218.4534,515.0334 M 219.43163,510.01974 C 220.28121,510.04847 221.12574,510.5095 221.12574,511.75884 C 221.12574,513.09314 220.09379,513.44048 218.94688,513.44048 L 216.27203,513.44048 L 216.27203,507.09252 L 217.19156,507.09252 L 217.19156,510.01974 L 218.36969,510.01974 L 219.99384,507.09252 L 221.04205,507.09252 L 219.43163,510.01974 L 219.43163,510.01974 M 218.77198,512.51969 C 219.53284,512.51969 220.20875,512.46347 220.20875,511.65889 C 220.20875,510.79684 219.0281,510.93927 218.16853,510.93927 L 217.19156,510.93927 L 217.19156,512.51969 L 218.77198,512.51969 L 218.77198,512.51969 z" id="path2498" stroke="black" style="fill:#848282;fill-opacity:1;fill-rule:evenodd;"/>
		
		
		
		
		
		
		
		
		
		
		
		
	</g>
</svg>