<?xml version="1.0" encoding="iso-8859-1"?><svg height="264.55042" id="svg5266" version="1.1" width="659.49127" xmlns="http://www.w3.org/2000/svg" xmlns:svg="http://www.w3.org/2000/svg">
	
  
	<defs id="defs5268"/>
	
  
	<g id="layer1" transform="translate(-58.8258,-485.80127)">
		
    
		<path animation_id="0" d="m 92.870226,728.27828 3.487521,-0.79936 c 23.632633,-5.5117 46.794673,-10.06933 90.978543,-10.06933 34.17899,0 90.97853,6.83967 173.64117,20.90579 43.0364,7.32959 89.23155,11.03629 137.30262,11.03629 127.34932,0 184.9031,-30.61412 212.5583,-45.32488 l 6.47867,-3.43595 0,-179.70082 -13.69223,6.43998 c -4.42225,2.0822 -10.50769,4.40937 -17.50207,6.77521 0,-13.24743 0,-47.30394 0,-47.30394 l -13.69223,6.43999 c -25.73417,12.11285 -87.64573,30.13708 -152.66447,30.13708 -71.89709,0 -128.42588,-4.78326 -177.92806,-15.05887 -63.32977,-13.13784 -112.17441,-18.50127 -168.6065,-18.50127 -18.13383,0 -85.718251,10.12735 -109.144596,25.79218 l -4.261094,2.84933 0,186.92728 c 0,0 6.749417,-3.93233 13.90496,-6.98149 6.955704,-2.96536 16.16766,-5.44079 19.139466,-5.94362 l 0,35.8164" id="path1834" stroke="black" style="fill:#ffffff;fill-opacity:1;fill-rule:nonzero;"/>
		
    
		
		
    
		
		
    
		
		
  
	</g>
	

</svg>