<?xml version="1.0" encoding="iso-8859-1"?><svg height="264.55042" id="svg5266" version="1.1" width="659.49127" xmlns="http://www.w3.org/2000/svg" xmlns:svg="http://www.w3.org/2000/svg">
	
  
	<defs id="defs5268"/>
	
  
	<g id="layer1" transform="translate(-58.8258,-485.80127)">
		
    
		
		
    
		<path animation_id="1" d="m 707.79004,536.09561 c -5.11119,2.40447 -12.75569,5.27153 -21.75671,8.2192 l 0,132.79657 c -37.00899,21.48596 -104.45159,35.45539 -170.83053,35.45539 -84.8222,0 -128.23894,-6.90413 -170.83053,-14.34332 -62.16942,-10.8558 -121.94721,-17.08305 -159.71043,-17.08305 -26.45385,0 -58.23147,3.22497 -82.03089,7.89688 l 0,28.20315 c 20.97026,-4.54473 45.77614,-9.50849 84.77062,-9.50849 42.48846,0 112.98023,10.52058 175.18188,21.11208 47.95503,8.15474 94.01481,10.95894 135.69746,10.95894 127.13014,0 183.169,-30.96868 209.50913,-44.96389 l 0,-158.74346 z" id="path1838" stroke="black" style="fill:#004394;fill-opacity:1;fill-rule:nonzero;"/>
		
    
		
		
    
		
		
  
	</g>
	

</svg>