<?xml version="1.0" encoding="iso-8859-1"?><!-- Generator: Adobe Illustrator 16.0.0, SVG Export Plug-In . SVG Version: 6.00 Build 0)  --><!DOCTYPE svg  PUBLIC '-//W3C//DTD SVG 1.1//EN'  'http://www.w3.org/Graphics/SVG/1.1/DTD/svg11.dtd'><svg enable-background="new 0 0 793.7 102.05" height="102.05px" id="Ebene_1" version="1.1" viewBox="0 0 793.7 102.05" width="793.7px" x="0px" xml:space="preserve" xmlns="http://www.w3.org/2000/svg" xmlns:xlink="http://www.w3.org/1999/xlink" y="0px">
	

	<g>
		
	
		<g>
			
		
			<defs>
				
			
				
				
		
			</defs>
			
		
			<clipPath id="SVGID_2_">
				
			
				<use overflow="visible" xlink:href="#SVGID_1_"/>
				
		
			</clipPath>
			
		
			<path animation_id="0" clip-path="url(#SVGID_2_)" d="M706.008,98.531H724.6V30.616l38.872,67.916h19.948V2.816h-18.599v66.727    L726.924,2.816h-20.916V98.531z M612.38,98.531h18.585V30.616l38.879,67.916h19.936V2.816h-18.586v66.727L633.295,2.816H612.38    V98.531z M510.116,98.531h20.87l6.474-19.675h35.157l6.299,19.675h21.638l-33.78-95.715H544.2L510.116,98.531z M555.279,24.701    l12.065,37.647h-24.462L555.279,24.701z M312.415,98.531H331V30.616l38.872,67.916h19.949V2.816h-18.592v66.727l-37.9-66.727    h-20.914V98.531z M296.183,2.803h-70.021v95.714h69.999V81.31h-50.502V58.972h46.376V42.02h-46.376V19.752h50.525V2.803z     M132.426,68.972c0,9.948,3.598,17.78,10.799,23.469c7.209,5.7,17.092,8.546,29.667,8.546c12.306,0,21.828-2.896,28.572-8.677    c6.75-5.778,10.121-13.038,10.121-21.779c0-8.533-2.848-15.04-8.54-19.549c-3.662-2.896-9.168-5.215-16.518-6.948l-16.75-3.962    c-6.472-1.512-10.693-2.832-12.687-3.955c-3.101-1.688-4.649-4.247-4.649-7.669c0-3.721,1.567-6.624,4.715-8.694    c3.145-2.085,7.347-3.123,12.62-3.123c4.734,0,8.697,0.804,11.883,2.402c4.779,2.428,7.347,6.519,7.708,12.272h19.17    c-0.354-10.169-4.124-17.93-11.312-23.28c-7.195-5.345-15.877-8.02-26.066-8.02c-12.194,0-21.445,2.844-27.735,8.506    c-6.298,5.676-9.441,12.793-9.441,21.365c0,9.397,3.21,16.299,9.646,20.715c3.804,2.643,10.778,5.08,20.941,7.341l10.338,2.272    c6.046,1.299,10.468,2.794,13.255,4.481c2.785,1.727,4.181,4.183,4.181,7.338c0,5.416-2.847,9.105-8.532,11.104    c-2.998,1.039-6.9,1.558-11.708,1.558c-8.026,0-13.694-1.973-16.999-5.908c-1.809-2.169-3.019-5.442-3.637-9.806H132.426z     M118.438,2.803H98.613v95.714h19.825V2.803z M82.356,2.803h-70.02v95.714h70.026V81.31H31.831V58.972h46.382V42.02H31.831V19.752    h50.525V2.803z" fill="#D20A11" stroke="black"/>
			
	
		</g>
		
	
		
		

	</g>
	

</svg>