<?xml version="1.0" encoding="iso-8859-1"?><!-- Generator: Adobe Illustrator 19.1.0, SVG Export Plug-In . SVG Version: 6.00 Build 0)  --><!DOCTYPE svg  PUBLIC '-//W3C//DTD SVG 1.1//EN'  'http://www.w3.org/Graphics/SVG/1.1/DTD/svg11.dtd'><svg id="Ebene_1" style="enable-background:new 0 0 1000 1000;" version="1.1" viewBox="0 0 1000 1000" x="0px" xml:space="preserve" xmlns="http://www.w3.org/2000/svg" xmlns:xlink="http://www.w3.org/1999/xlink" y="0px">
	

	<g id="elitepartner_x5F_logo">
		
	
		
		
	
		<g>
			
		
			
			
		
			
			
		
			
			
		
			
			
		
			
			
		
			
			
		
			
			
		
			
			
		
			
			
		
			
			
		
			<path animation_id="11" d="M850.756,566.511v8.73h-54.318c0.486,21.098,6.926,28.13,28.799,28.13    c8.142,0,15.19-1.212,21.508-2.91l1.58,10.791c-6.562,2.061-15.432,3.759-25.397,3.759c-29.528,0-40.951-12.61-40.951-44.014    v-0.364c0-29.222,9.114-43.53,35.847-43.53C842.007,527.226,850.756,541.17,850.756,566.511 M796.438,565.905h40.465v-0.849    c0-16.733-4.253-26.19-18.957-26.19C801.907,538.866,797.046,547.96,796.438,565.905" stroke="black" style="fill:#FFFFFF;"/>
			
		
			
			
		
			
			
		
			
			
		
			
			
	
		</g>
		

	</g>
	

</svg>