<?xml version="1.0" encoding="iso-8859-1"?><svg height="175" id="Ebene_1" version="1.1" viewBox="0 0 947.59998 174.99999" width="947.59998" x="0px" xml:space="preserve" xmlns="http://www.w3.org/2000/svg" xmlns:cc="http://creativecommons.org/ns#" xmlns:dc="http://purl.org/dc/elements/1.1/" xmlns:rdf="http://www.w3.org/1999/02/22-rdf-syntax-ns#" xmlns:svg="http://www.w3.org/2000/svg" y="0px">
	<metadata id="metadata199">
		<rdf:RDF>
			<cc:Work rdf:about="">
				<dc:format>image/svg+xml</dc:format>
				<dc:type rdf:resource="http://purl.org/dc/dcmitype/StillImage"/>
				<dc:title/>
			</cc:Work>
		</rdf:RDF>
	</metadata>
	<defs id="defs197"/>
	<style id="style3" type="text/css">
	.st0{fill:#244788;}
	.st1{fill:#5FAA31;}
</style>
	<g id="g5" transform="translate(-121.5,-292.6)">
		
		
	</g>
	<g id="g11" transform="translate(-121.5,-292.6)">
		
		
	</g>
	<g id="g17" transform="translate(-121.5,-292.6)">
		
		
	</g>
	<g id="g23" transform="translate(-121.5,-292.6)">
		
		
	</g>
	<g id="g29" transform="translate(-121.5,-292.6)">
		
		
	</g>
	<g id="g35" transform="translate(-121.5,-292.6)">
		
		
	</g>
	<g id="g41" transform="translate(-121.5,-292.6)">
		
		
	</g>
	<g id="g47" transform="translate(-121.5,-292.6)">
		
		
	</g>
	<g id="g53" transform="translate(-121.5,-292.6)">
		
		
	</g>
	<g id="g59" transform="translate(-121.5,-292.6)">
		
		
	</g>
	<g id="g65" transform="translate(-121.5,-292.6)">
		
		
	</g>
	<g id="g71" transform="translate(-121.5,-292.6)">
		
		
	</g>
	<g id="g77" transform="translate(-121.5,-292.6)">
		<g id="g79">
			
			
		</g>
		<g id="g85">
			
			
		</g>
		<g id="g91">
			
			
		</g>
		<g id="g97">
			
			
		</g>
		<g id="g103">
			
			
		</g>
		<g id="g109">
			
			
		</g>
		<g id="g115">
			
			
		</g>
		<g id="g121">
			
			
		</g>
		<g id="g127">
			
			
		</g>
		<g id="g133">
			
			
		</g>
		<g id="g139">
			
			
		</g>
		<g id="g145">
			
			
		</g>
		<g id="g151">
			
			
		</g>
		<g id="g157">
			
			
		</g>
		<g id="g163">
			
			
		</g>
		<g id="g169">
			
			<path animation_id="55" class="st0" d="m 679.4,455.2 c -9.5,0 -14.9,-6 -14.9,-16.6 0,-9.6 4.4,-14.9 12.3,-14.9 4.9,0 10.8,2.1 10.8,12.2 l 0,0.5 -17.1,0 c 0.1,4.1 1.2,14.8 10.7,14.8 2.1,0 3.1,-0.3 4.3,-0.6 0.3,-0.1 0.6,-0.2 0.9,-0.2 l 0.6,-0.2 0,3.6 -0.8,0.2 c -2,0.7 -3.6,1.2 -6.8,1.2 z m -2.5,-30.5 c -9.3,0 -11.3,7.5 -11.3,13.9 0,9.9 5.1,15.6 13.9,15.6 3.1,0 4.5,-0.4 6.7,-1 l 0,0 0,-1.6 c -0.1,0 -0.2,0 -0.3,0.1 -1.3,0.3 -2.3,0.6 -4.6,0.6 -8.6,0 -11.7,-8.4 -11.7,-16.3 l 0,-0.5 17.1,0 c -0.2,-7.2 -3.5,-10.8 -9.8,-10.8 z m 6.1,9.1 -13.2,0 0,-0.5 c 0,-1.8 1.2,-7.1 6.8,-7.1 4.1,0 6.4,2.5 6.4,7.1 l 0,0.5 z m -12.2,-1 11.2,0 c -0.1,-3.7 -2,-5.6 -5.4,-5.6 -4.4,0 -5.6,3.7 -5.8,5.6 z" id="path173" stroke="black" style="fill:#244788"/>
		</g>
		<g id="g175">
			
			
		</g>
		<g id="g181">
			
			
		</g>
		<g id="g187">
			
			
		</g>
	</g>
	
</svg>