<?xml version="1.0" encoding="iso-8859-1"?><svg height="175" id="Ebene_1" version="1.1" viewBox="0 0 947.59998 174.99999" width="947.59998" x="0px" xml:space="preserve" xmlns="http://www.w3.org/2000/svg" xmlns:cc="http://creativecommons.org/ns#" xmlns:dc="http://purl.org/dc/elements/1.1/" xmlns:rdf="http://www.w3.org/1999/02/22-rdf-syntax-ns#" xmlns:svg="http://www.w3.org/2000/svg" y="0px">
	<metadata id="metadata199">
		<rdf:RDF>
			<cc:Work rdf:about="">
				<dc:format>image/svg+xml</dc:format>
				<dc:type rdf:resource="http://purl.org/dc/dcmitype/StillImage"/>
				<dc:title/>
			</cc:Work>
		</rdf:RDF>
	</metadata>
	<defs id="defs197"/>
	<style id="style3" type="text/css">
	.st0{fill:#244788;}
	.st1{fill:#5FAA31;}
</style>
	<g id="g5" transform="translate(-121.5,-292.6)">
		
		
	</g>
	<g id="g11" transform="translate(-121.5,-292.6)">
		
		
	</g>
	<g id="g17" transform="translate(-121.5,-292.6)">
		
		
	</g>
	<g id="g23" transform="translate(-121.5,-292.6)">
		
		
	</g>
	<g id="g29" transform="translate(-121.5,-292.6)">
		
		
	</g>
	<g id="g35" transform="translate(-121.5,-292.6)">
		
		
	</g>
	<g id="g41" transform="translate(-121.5,-292.6)">
		
		
	</g>
	<g id="g47" transform="translate(-121.5,-292.6)">
		
		<path animation_id="15" class="st1" d="m 706.8,390.3 c -21.7,0 -33.7,-15.3 -33.7,-43 0,-26 10.5,-39.1 31.1,-39.1 17.2,0 26.5,7.7 27.7,22.8 l 0.1,0.9 -16.1,0 0,-0.9 c 0,-9.7 -3.8,-14.5 -11.6,-14.5 -14.4,0 -16.3,16.4 -16.3,30.7 0,23.6 6.4,34.6 20.2,34.6 3.8,0 7.4,-1.3 9.7,-3.5 l 0,-26.6 -15.5,0 0,-9.1 29.5,0 0,39.7 -0.4,0.2 c -5,3.2 -12.4,7.8 -24.7,7.8 z m -2.6,-80.5 c -19.6,0 -29.5,12.6 -29.5,37.5 0,15.5 4.2,41.4 32.1,41.4 11.5,0 18.7,-4.2 23.5,-7.1 l 0,-37.2 -26.3,0 0,5.9 15.5,0 0,28.8 -0.2,0.2 c -2.6,2.6 -6.8,4.2 -11.1,4.2 -19.6,0 -21.8,-20.7 -21.8,-36.2 0,-8.8 0,-32.3 17.9,-32.3 8.6,0 13,5.1 13.2,15.3 l 12.8,0 c -1.5,-13.8 -10,-20.5 -26.1,-20.5 z" id="path51" stroke="black" style="fill:#5faa31"/>
	</g>
	<g id="g53" transform="translate(-121.5,-292.6)">
		
		
	</g>
	<g id="g59" transform="translate(-121.5,-292.6)">
		
		
	</g>
	<g id="g65" transform="translate(-121.5,-292.6)">
		
		
	</g>
	<g id="g71" transform="translate(-121.5,-292.6)">
		
		
	</g>
	<g id="g77" transform="translate(-121.5,-292.6)">
		<g id="g79">
			
			
		</g>
		<g id="g85">
			
			
		</g>
		<g id="g91">
			
			
		</g>
		<g id="g97">
			
			
		</g>
		<g id="g103">
			
			
		</g>
		<g id="g109">
			
			
		</g>
		<g id="g115">
			
			
		</g>
		<g id="g121">
			
			
		</g>
		<g id="g127">
			
			
		</g>
		<g id="g133">
			
			
		</g>
		<g id="g139">
			
			
		</g>
		<g id="g145">
			
			
		</g>
		<g id="g151">
			
			
		</g>
		<g id="g157">
			
			
		</g>
		<g id="g163">
			
			
		</g>
		<g id="g169">
			
			
		</g>
		<g id="g175">
			
			
		</g>
		<g id="g181">
			
			
		</g>
		<g id="g187">
			
			
		</g>
	</g>
	
</svg>