<?xml version="1.0" encoding="iso-8859-1"?><svg height="175" id="Ebene_1" version="1.1" viewBox="0 0 947.59998 174.99999" width="947.59998" x="0px" xml:space="preserve" xmlns="http://www.w3.org/2000/svg" xmlns:cc="http://creativecommons.org/ns#" xmlns:dc="http://purl.org/dc/elements/1.1/" xmlns:rdf="http://www.w3.org/1999/02/22-rdf-syntax-ns#" xmlns:svg="http://www.w3.org/2000/svg" y="0px">
	<metadata id="metadata199">
		<rdf:RDF>
			<cc:Work rdf:about="">
				<dc:format>image/svg+xml</dc:format>
				<dc:type rdf:resource="http://purl.org/dc/dcmitype/StillImage"/>
				<dc:title/>
			</cc:Work>
		</rdf:RDF>
	</metadata>
	<defs id="defs197"/>
	<style id="style3" type="text/css">
	.st0{fill:#244788;}
	.st1{fill:#5FAA31;}
</style>
	<g id="g5" transform="translate(-121.5,-292.6)">
		
		
	</g>
	<g id="g11" transform="translate(-121.5,-292.6)">
		
		
	</g>
	<g id="g17" transform="translate(-121.5,-292.6)">
		
		
	</g>
	<g id="g23" transform="translate(-121.5,-292.6)">
		
		
	</g>
	<g id="g29" transform="translate(-121.5,-292.6)">
		
		
	</g>
	<g id="g35" transform="translate(-121.5,-292.6)">
		
		
	</g>
	<g id="g41" transform="translate(-121.5,-292.6)">
		
		
	</g>
	<g id="g47" transform="translate(-121.5,-292.6)">
		
		
	</g>
	<g id="g53" transform="translate(-121.5,-292.6)">
		
		
	</g>
	<g id="g59" transform="translate(-121.5,-292.6)">
		
		
	</g>
	<g id="g65" transform="translate(-121.5,-292.6)">
		
		
	</g>
	<g id="g71" transform="translate(-121.5,-292.6)">
		
		
	</g>
	<g id="g77" transform="translate(-121.5,-292.6)">
		<g id="g79">
			
			
		</g>
		<g id="g85">
			
			
		</g>
		<g id="g91">
			
			
		</g>
		<g id="g97">
			
			
		</g>
		<g id="g103">
			
			
		</g>
		<g id="g109">
			
			
		</g>
		<g id="g115">
			
			
		</g>
		<g id="g121">
			
			
		</g>
		<g id="g127">
			<path animation_id="40" class="st0" d="m 422.1,446.9 -0.1,0 c -2.8,6 -4.7,7.8 -10.5,7.8 -4.8,0 -7,-5.2 -7,-9 l 0,-20.8 4.5,0 0,18.8 c 0,3.1 1.3,7.2 5.2,7.2 5.3,0 7.7,-8 7.7,-13.6 l 0,-12.5 4.5,0 0,29.2 -4.4,0 0,-7.1 z" id="path129" stroke="black" style="fill:#244788"/>
			
		</g>
		<g id="g133">
			
			
		</g>
		<g id="g139">
			
			
		</g>
		<g id="g145">
			
			
		</g>
		<g id="g151">
			
			
		</g>
		<g id="g157">
			
			
		</g>
		<g id="g163">
			
			
		</g>
		<g id="g169">
			
			
		</g>
		<g id="g175">
			
			
		</g>
		<g id="g181">
			
			
		</g>
		<g id="g187">
			
			
		</g>
	</g>
	
</svg>