<?xml version="1.0" encoding="iso-8859-1"?><svg height="175" id="Ebene_1" version="1.1" viewBox="0 0 947.59998 174.99999" width="947.59998" x="0px" xml:space="preserve" xmlns="http://www.w3.org/2000/svg" xmlns:cc="http://creativecommons.org/ns#" xmlns:dc="http://purl.org/dc/elements/1.1/" xmlns:rdf="http://www.w3.org/1999/02/22-rdf-syntax-ns#" xmlns:svg="http://www.w3.org/2000/svg" y="0px">
	<metadata id="metadata199">
		<rdf:RDF>
			<cc:Work rdf:about="">
				<dc:format>image/svg+xml</dc:format>
				<dc:type rdf:resource="http://purl.org/dc/dcmitype/StillImage"/>
				<dc:title/>
			</cc:Work>
		</rdf:RDF>
	</metadata>
	<defs id="defs197"/>
	<style id="style3" type="text/css">
	.st0{fill:#244788;}
	.st1{fill:#5FAA31;}
</style>
	<g id="g5" transform="translate(-121.5,-292.6)">
		
		
	</g>
	<g id="g11" transform="translate(-121.5,-292.6)">
		
		
	</g>
	<g id="g17" transform="translate(-121.5,-292.6)">
		
		
	</g>
	<g id="g23" transform="translate(-121.5,-292.6)">
		
		
	</g>
	<g id="g29" transform="translate(-121.5,-292.6)">
		
		
	</g>
	<g id="g35" transform="translate(-121.5,-292.6)">
		
		
	</g>
	<g id="g41" transform="translate(-121.5,-292.6)">
		
		
	</g>
	<g id="g47" transform="translate(-121.5,-292.6)">
		
		
	</g>
	<g id="g53" transform="translate(-121.5,-292.6)">
		
		
	</g>
	<g id="g59" transform="translate(-121.5,-292.6)">
		
		
	</g>
	<g id="g65" transform="translate(-121.5,-292.6)">
		
		
	</g>
	<g id="g71" transform="translate(-121.5,-292.6)">
		
		
	</g>
	<g id="g77" transform="translate(-121.5,-292.6)">
		<g id="g79">
			
			
		</g>
		<g id="g85">
			
			
		</g>
		<g id="g91">
			
			
		</g>
		<g id="g97">
			
			
		</g>
		<g id="g103">
			
			
		</g>
		<g id="g109">
			
			
		</g>
		<g id="g115">
			
			
		</g>
		<g id="g121">
			
			<path animation_id="39" class="st0" d="m 388.6,455.2 c -3.5,0 -5.9,-0.7 -7.4,-2.2 -1.3,-1.3 -1.9,-3.1 -1.8,-5.6 l 0,-19.1 -5.1,0 0,-3.8 5.1,0 0,-6.6 5.5,-3.4 0,10 8,0 0,3.8 -8,0 0,16.7 c 0,2.3 0,4.1 1.1,5.2 0.7,0.7 1.8,1.1 3.4,1.1 1.4,0 2.1,-0.2 2.6,-0.3 l 0.7,-0.2 0,4.2 -0.4,0.1 c -1.5,0.1 -2.4,0.1 -3.7,0.1 z m -13.3,-28 5.1,0 0,20.1 c 0,2.2 0.5,3.9 1.5,4.9 1.3,1.3 3.4,1.9 6.6,1.9 1.1,0 1.9,0 3.1,-0.2 l 0,-2 c -0.5,0.1 -1.2,0.2 -2.3,0.2 -1.9,0 -3.2,-0.4 -4.1,-1.4 -1.5,-1.5 -1.4,-3.9 -1.4,-5.9 l 0,-17.7 8,0 0,-1.8 -8,0 0,-9.2 -3.5,2.1 0,7.1 -5.1,0 0,1.9 z" id="path125" stroke="black" style="fill:#244788"/>
		</g>
		<g id="g127">
			
			
		</g>
		<g id="g133">
			
			
		</g>
		<g id="g139">
			
			
		</g>
		<g id="g145">
			
			
		</g>
		<g id="g151">
			
			
		</g>
		<g id="g157">
			
			
		</g>
		<g id="g163">
			
			
		</g>
		<g id="g169">
			
			
		</g>
		<g id="g175">
			
			
		</g>
		<g id="g181">
			
			
		</g>
		<g id="g187">
			
			
		</g>
	</g>
	
</svg>