<?xml version="1.0" encoding="iso-8859-1"?><svg height="175" id="Ebene_1" version="1.1" viewBox="0 0 947.59998 174.99999" width="947.59998" x="0px" xml:space="preserve" xmlns="http://www.w3.org/2000/svg" xmlns:cc="http://creativecommons.org/ns#" xmlns:dc="http://purl.org/dc/elements/1.1/" xmlns:rdf="http://www.w3.org/1999/02/22-rdf-syntax-ns#" xmlns:svg="http://www.w3.org/2000/svg" y="0px">
	<metadata id="metadata199">
		<rdf:RDF>
			<cc:Work rdf:about="">
				<dc:format>image/svg+xml</dc:format>
				<dc:type rdf:resource="http://purl.org/dc/dcmitype/StillImage"/>
				<dc:title/>
			</cc:Work>
		</rdf:RDF>
	</metadata>
	<defs id="defs197"/>
	<style id="style3" type="text/css">
	.st0{fill:#244788;}
	.st1{fill:#5FAA31;}
</style>
	<g id="g5" transform="translate(-121.5,-292.6)">
		
		
	</g>
	<g id="g11" transform="translate(-121.5,-292.6)">
		
		
	</g>
	<g id="g17" transform="translate(-121.5,-292.6)">
		
		
	</g>
	<g id="g23" transform="translate(-121.5,-292.6)">
		
		
	</g>
	<g id="g29" transform="translate(-121.5,-292.6)">
		
		
	</g>
	<g id="g35" transform="translate(-121.5,-292.6)">
		
		
	</g>
	<g id="g41" transform="translate(-121.5,-292.6)">
		
		
	</g>
	<g id="g47" transform="translate(-121.5,-292.6)">
		
		
	</g>
	<g id="g53" transform="translate(-121.5,-292.6)">
		
		
	</g>
	<g id="g59" transform="translate(-121.5,-292.6)">
		
		
	</g>
	<g id="g65" transform="translate(-121.5,-292.6)">
		
		
	</g>
	<g id="g71" transform="translate(-121.5,-292.6)">
		
		<path animation_id="23" class="st1" d="m 1008.5,389 -14,0 0,-79.6 16.8,0 c 16.1,0 31,2.7 31,22.3 0,22.7 -20.9,22.9 -31,23 l -2.8,0 0,34.3 z m -12.4,-1.6 10.8,0 0,-34.4 4.4,0 c 10.3,-0.1 29.4,-0.3 29.4,-21.4 0,-17.2 -11.7,-20.7 -29.4,-20.7 l -15.3,0 0,76.5 z m 15.3,-40.2 -4.4,0 0,-30.3 4.4,0 c 11.5,0 18.5,2.5 18.5,14.8 0,14.3 -9.2,15.5 -18.5,15.5 z m -2.9,-1.6 2.8,0 c 9.3,0 17,-1 17,-13.9 0,-11.1 -6,-13.2 -17,-13.2 l -2.8,0 0,27.1 z" id="path75" stroke="black" style="fill:#5faa31"/>
	</g>
	<g id="g77" transform="translate(-121.5,-292.6)">
		<g id="g79">
			
			
		</g>
		<g id="g85">
			
			
		</g>
		<g id="g91">
			
			
		</g>
		<g id="g97">
			
			
		</g>
		<g id="g103">
			
			
		</g>
		<g id="g109">
			
			
		</g>
		<g id="g115">
			
			
		</g>
		<g id="g121">
			
			
		</g>
		<g id="g127">
			
			
		</g>
		<g id="g133">
			
			
		</g>
		<g id="g139">
			
			
		</g>
		<g id="g145">
			
			
		</g>
		<g id="g151">
			
			
		</g>
		<g id="g157">
			
			
		</g>
		<g id="g163">
			
			
		</g>
		<g id="g169">
			
			
		</g>
		<g id="g175">
			
			
		</g>
		<g id="g181">
			
			
		</g>
		<g id="g187">
			
			
		</g>
	</g>
	
</svg>