<?xml version="1.0" encoding="iso-8859-1"?><svg height="175" id="Ebene_1" version="1.1" viewBox="0 0 947.59998 174.99999" width="947.59998" x="0px" xml:space="preserve" xmlns="http://www.w3.org/2000/svg" xmlns:cc="http://creativecommons.org/ns#" xmlns:dc="http://purl.org/dc/elements/1.1/" xmlns:rdf="http://www.w3.org/1999/02/22-rdf-syntax-ns#" xmlns:svg="http://www.w3.org/2000/svg" y="0px">
	<metadata id="metadata199">
		<rdf:RDF>
			<cc:Work rdf:about="">
				<dc:format>image/svg+xml</dc:format>
				<dc:type rdf:resource="http://purl.org/dc/dcmitype/StillImage"/>
				<dc:title/>
			</cc:Work>
		</rdf:RDF>
	</metadata>
	<defs id="defs197"/>
	<style id="style3" type="text/css">
	.st0{fill:#244788;}
	.st1{fill:#5FAA31;}
</style>
	<g id="g5" transform="translate(-121.5,-292.6)">
		
		
	</g>
	<g id="g11" transform="translate(-121.5,-292.6)">
		
		
	</g>
	<g id="g17" transform="translate(-121.5,-292.6)">
		
		
	</g>
	<g id="g23" transform="translate(-121.5,-292.6)">
		
		
	</g>
	<g id="g29" transform="translate(-121.5,-292.6)">
		
		
	</g>
	<g id="g35" transform="translate(-121.5,-292.6)">
		
		
	</g>
	<g id="g41" transform="translate(-121.5,-292.6)">
		
		
	</g>
	<g id="g47" transform="translate(-121.5,-292.6)">
		
		
	</g>
	<g id="g53" transform="translate(-121.5,-292.6)">
		
		
	</g>
	<g id="g59" transform="translate(-121.5,-292.6)">
		
		
	</g>
	<g id="g65" transform="translate(-121.5,-292.6)">
		
		
	</g>
	<g id="g71" transform="translate(-121.5,-292.6)">
		
		
	</g>
	<g id="g77" transform="translate(-121.5,-292.6)">
		<g id="g79">
			
			
		</g>
		<g id="g85">
			
			
		</g>
		<g id="g91">
			
			
		</g>
		<g id="g97">
			
			
		</g>
		<g id="g103">
			
			<path animation_id="33" class="st0" d="m 254,467.6 c -3.5,0 -6.2,-0.6 -7.7,-1.1 l -0.3,-0.1 0,-6.2 0.7,0.4 c 2.6,1.5 5.1,2.7 8.3,2.7 5,0 7.5,-3.1 7.5,-9.4 l 0,-3.6 c -1.1,1.9 -3.4,4.2 -7.5,4.2 -6.8,0 -11,-6 -11,-15.7 0,-9.3 4.2,-15.1 10.8,-15.1 4.4,0 6.5,2.6 7.6,4.7 l 0,-4 5.5,0 0,29.8 c 0,9 -4.5,13.4 -13.9,13.4 z m -7.1,-1.9 c 1.5,0.5 3.9,1 7.1,1 8.8,0 12.9,-3.9 12.9,-12.4 l 0,-28.8 -3.5,0 0,5.5 -0.8,0 -0.3,-0.4 c -0.8,-2 -2.4,-5.7 -7.5,-5.7 -6.2,0 -9.8,5.3 -9.8,14.1 0,3.4 0.7,14.7 10,14.7 5,0 7,-4 7.3,-5.5 l 0.1,-0.4 0.9,0 0.1,0.5 0,5.8 c 0,8.6 -4.6,10.3 -8.5,10.3 -3.1,0 -5.5,-1.1 -8,-2.4 l 0,3.7 z m 9,-14.1 c -5.1,0 -6.9,-6.7 -6.9,-12.5 0,-5.7 1.8,-12.4 6.8,-12.4 5.2,0 7.6,6.4 7.6,12.4 0,6 -2.4,12.5 -7.5,12.5 z m -0.1,-23.9 c -4.3,0 -5.8,6.2 -5.8,11.4 0,4.3 1.2,11.5 5.9,11.5 4.8,0 6.5,-6.9 6.5,-11.5 0,-5.5 -2.1,-11.4 -6.6,-11.4 z" id="path107" stroke="black" style="fill:#244788"/>
		</g>
		<g id="g109">
			
			
		</g>
		<g id="g115">
			
			
		</g>
		<g id="g121">
			
			
		</g>
		<g id="g127">
			
			
		</g>
		<g id="g133">
			
			
		</g>
		<g id="g139">
			
			
		</g>
		<g id="g145">
			
			
		</g>
		<g id="g151">
			
			
		</g>
		<g id="g157">
			
			
		</g>
		<g id="g163">
			
			
		</g>
		<g id="g169">
			
			
		</g>
		<g id="g175">
			
			
		</g>
		<g id="g181">
			
			
		</g>
		<g id="g187">
			
			
		</g>
	</g>
	
</svg>