<?xml version="1.0" encoding="iso-8859-1"?><svg height="175" id="Ebene_1" version="1.1" viewBox="0 0 947.59998 174.99999" width="947.59998" x="0px" xml:space="preserve" xmlns="http://www.w3.org/2000/svg" xmlns:cc="http://creativecommons.org/ns#" xmlns:dc="http://purl.org/dc/elements/1.1/" xmlns:rdf="http://www.w3.org/1999/02/22-rdf-syntax-ns#" xmlns:svg="http://www.w3.org/2000/svg" y="0px">
	<metadata id="metadata199">
		<rdf:RDF>
			<cc:Work rdf:about="">
				<dc:format>image/svg+xml</dc:format>
				<dc:type rdf:resource="http://purl.org/dc/dcmitype/StillImage"/>
				<dc:title/>
			</cc:Work>
		</rdf:RDF>
	</metadata>
	<defs id="defs197"/>
	<style id="style3" type="text/css">
	.st0{fill:#244788;}
	.st1{fill:#5FAA31;}
</style>
	<g id="g5" transform="translate(-121.5,-292.6)">
		
		
	</g>
	<g id="g11" transform="translate(-121.5,-292.6)">
		
		
	</g>
	<g id="g17" transform="translate(-121.5,-292.6)">
		
		<path animation_id="5" class="st0" d="m 310.2,390.3 c -8.6,0 -17.3,-2 -20.1,-3 l -0.5,-0.2 0,-14 1.2,0.7 c 5.3,3.1 13.4,6.8 21.3,6.8 4.9,0 13.2,-1.4 13.2,-10.5 0,-7.8 -7.7,-11.9 -15.8,-16.3 -9.8,-5.3 -20.9,-11.2 -20.9,-24.8 0,-13 9.8,-20.8 26.3,-20.8 7.1,0 14.6,1.4 17.8,2 l 0.9,0.2 0,12.8 -1.2,-0.7 c -1,-0.5 -9.6,-5.2 -18.9,-5.2 -6.6,0 -11,3.6 -11,9 0,6.9 7.1,10.7 15.2,15 10.1,5.4 21.5,11.5 21.5,25.4 0.1,15 -10.5,23.6 -29,23.6 z m -19,-4.3 c 3.1,1 11.2,2.7 19,2.7 10.3,0 27.6,-2.9 27.6,-22 0,-12.9 -10.5,-18.5 -20.7,-24 -8.3,-4.4 -16.1,-8.6 -16.1,-16.4 0,-6.3 5.2,-10.6 12.6,-10.6 8.1,0 15.6,3.3 18.5,4.8 l 0,-8.8 c -3.4,-0.6 -10.5,-1.9 -17.2,-1.9 -15.7,0 -24.8,7 -24.8,19.2 0,12.6 10.2,18.1 20.1,23.4 8.6,4.6 16.7,8.9 16.7,17.7 0,7.7 -5.4,12.1 -14.8,12.1 -7.7,0 -15.4,-3.3 -20.9,-6.3 l 0,10.1 z" id="path21" stroke="black" style="fill:#244788"/>
	</g>
	<g id="g23" transform="translate(-121.5,-292.6)">
		
		
	</g>
	<g id="g29" transform="translate(-121.5,-292.6)">
		
		
	</g>
	<g id="g35" transform="translate(-121.5,-292.6)">
		
		
	</g>
	<g id="g41" transform="translate(-121.5,-292.6)">
		
		
	</g>
	<g id="g47" transform="translate(-121.5,-292.6)">
		
		
	</g>
	<g id="g53" transform="translate(-121.5,-292.6)">
		
		
	</g>
	<g id="g59" transform="translate(-121.5,-292.6)">
		
		
	</g>
	<g id="g65" transform="translate(-121.5,-292.6)">
		
		
	</g>
	<g id="g71" transform="translate(-121.5,-292.6)">
		
		
	</g>
	<g id="g77" transform="translate(-121.5,-292.6)">
		<g id="g79">
			
			
		</g>
		<g id="g85">
			
			
		</g>
		<g id="g91">
			
			
		</g>
		<g id="g97">
			
			
		</g>
		<g id="g103">
			
			
		</g>
		<g id="g109">
			
			
		</g>
		<g id="g115">
			
			
		</g>
		<g id="g121">
			
			
		</g>
		<g id="g127">
			
			
		</g>
		<g id="g133">
			
			
		</g>
		<g id="g139">
			
			
		</g>
		<g id="g145">
			
			
		</g>
		<g id="g151">
			
			
		</g>
		<g id="g157">
			
			
		</g>
		<g id="g163">
			
			
		</g>
		<g id="g169">
			
			
		</g>
		<g id="g175">
			
			
		</g>
		<g id="g181">
			
			
		</g>
		<g id="g187">
			
			
		</g>
	</g>
	
</svg>