<?xml version="1.0" encoding="iso-8859-1"?><!-- Created with Inkscape (http://www.inkscape.org/) --><svg height="126.25" id="svg4136" inkscape:version="0.91 r13725" sodipodi:docname="emt-logo.svg" version="1.1" viewBox="0 0 137.5 126.25" width="137.5" xmlns="http://www.w3.org/2000/svg" xmlns:cc="http://creativecommons.org/ns#" xmlns:dc="http://purl.org/dc/elements/1.1/" xmlns:inkscape="http://www.inkscape.org/namespaces/inkscape" xmlns:rdf="http://www.w3.org/1999/02/22-rdf-syntax-ns#" xmlns:sodipodi="http://sodipodi.sourceforge.net/DTD/sodipodi-0.dtd" xmlns:svg="http://www.w3.org/2000/svg">
	
  
	<metadata id="metadata4142">
		
    
		<rdf:RDF>
			
      
			<cc:Work rdf:about="">
				
        
				<dc:format>image/svg+xml</dc:format>
				
        
				<dc:type rdf:resource="http://purl.org/dc/dcmitype/StillImage"/>
				
        
				<dc:title/>
				
      
			</cc:Work>
			
    
		</rdf:RDF>
		
  
	</metadata>
	
  
	<defs id="defs4140"/>
	
  
	<sodipodi:namedview bordercolor="#666666" borderopacity="1" gridtolerance="10" guidetolerance="10" id="namedview4138" inkscape:current-layer="svg4136" inkscape:cx="49.180883" inkscape:cy="46.537191" inkscape:pageopacity="0" inkscape:pageshadow="2" inkscape:window-height="705" inkscape:window-maximized="1" inkscape:window-width="1366" inkscape:window-x="-8" inkscape:window-y="-8" inkscape:zoom="4" objecttolerance="10" pagecolor="#ffffff" showgrid="false"/>
	
  
	<g id="layer1" inkscape:groupmode="layer" inkscape:label="vector"/>
	
  
	<g id="g4699" inkscape:groupmode="layer" inkscape:label="vector Kopie"/>
	
  
	
	
  
	<path animation_id="1" d="m 13.455,55.25 28.2075,0 -1.4995,10 -14.663,0 -2.7,18 13.56,0 -1.425,9.5 -13.56,0 -3.03,20.2 17.945,0 8.655,-57.7 15.4025,0 4.04,30.6 13.3825,-30.6 48.48,0 -1.5,10 -9.25,0 -8.655,57.7 -13.5,0 8.655,-57.7 -9.3325,0 -8.6555,57.7 -13.02,0 4.5055,-30.03 -11.11,30.03 -8.08,0 -3.2825,-30.03 -4.5045,30.03 -45.2205,0 z" id="path4701" inkscape:connector-curvature="0" sodipodi:nodetypes="cccccccccccccccccccccccccccccc" stroke="black" style="fill:#ffffff;fill-opacity:1;fill-rule:evenodd;;stroke-width:1px;stroke-linecap:butt;stroke-linejoin:miter;stroke-opacity:1"/>
	

</svg>