<?xml version="1.0" encoding="iso-8859-1"?><!-- Generator: Adobe Illustrator 14.0.0, SVG Export Plug-In . SVG Version: 6.00 Build 43363)  --><!DOCTYPE svg  PUBLIC '-//W3C//DTD SVG 1.1//EN'  'http://www.w3.org/Graphics/SVG/1.1/DTD/svg11.dtd'><svg enable-background="new 0 0 1024 521" height="521px" id="Ebene_1" version="1.1" viewBox="0 0 1024 521" width="1024px" x="0px" xml:space="preserve" xmlns="http://www.w3.org/2000/svg" xmlns:xlink="http://www.w3.org/1999/xlink" y="0px">
	

	
	

	
	

	<path animation_id="1" d="M287.815,238.288c-0.146,1.654-0.457,3.765-0.758,5.272h-19.948h-20.551c3.628-14.611,10.737-23.95,20.551-26.061  c1.371-0.302,2.869-0.448,4.395-0.448C282.991,217.052,288.272,226.546,287.815,238.288z M274.685,178.49  c-2.422,0-5.008,0.155-7.575,0.448c-28.875,3.765-65.445,29.223-68.616,95.499c0,0.311,0,0.457,0,0.603v10.546  c1.499,33.143,17.837,58.445,56.079,58.445c4.514,0,8.599-0.293,12.537-0.75c40.964-5.729,50.34-39.311,53.52-48.96h-43.853  c-1.654,3.473-4.815,7.237-9.667,9.348c-2.413,1.206-5.437,1.801-8.763,1.801c-14.355,0-17.983-14.009-17.243-30.722h26.006h59.258  c2.559-9.641,3.162-18.824,3.628-27.268c0-0.155,0-0.301,0-0.456v-9.339C328.031,195.368,299.466,178.49,274.685,178.49z" stroke="black"/>
	

	
	

	
	

	
	

	
	

	
	

	
	

</svg>