<?xml version="1.0" encoding="iso-8859-1"?><!-- Created with Inkscape (http://www.inkscape.org/) --><svg height="800" id="svg2969" inkscape:version="0.92.2 (5c3e80d, 2017-08-06)" sodipodi:docname="Eugen Bauer GmbH.svg" version="1.1" viewBox="0 0 211.66666 211.66667" width="800" xmlns="http://www.w3.org/2000/svg" xmlns:cc="http://creativecommons.org/ns#" xmlns:dc="http://purl.org/dc/elements/1.1/" xmlns:inkscape="http://www.inkscape.org/namespaces/inkscape" xmlns:rdf="http://www.w3.org/1999/02/22-rdf-syntax-ns#" xmlns:sodipodi="http://sodipodi.sourceforge.net/DTD/sodipodi-0.dtd" xmlns:svg="http://www.w3.org/2000/svg">
	
  
	<defs id="defs2963"/>
	
  
	<sodipodi:namedview bordercolor="#666666" borderopacity="1.0" id="base" inkscape:current-layer="layer1" inkscape:cx="372.11889" inkscape:cy="458.89442" inkscape:document-units="mm" inkscape:pageopacity="0.0" inkscape:pageshadow="2" inkscape:window-height="878" inkscape:window-maximized="1" inkscape:window-width="1532" inkscape:window-x="60" inkscape:window-y="-8" inkscape:zoom="0.35355339" pagecolor="#ffffff" showgrid="false" units="px"/>
	
  
	<metadata id="metadata2966">
		
    
		<rdf:RDF>
			
      
			<cc:Work rdf:about="">
				
        
				<dc:format>image/svg+xml</dc:format>
				
        
				<dc:type rdf:resource="http://purl.org/dc/dcmitype/StillImage"/>
				
        
				<dc:title/>
				
      
			</cc:Work>
			
    
		</rdf:RDF>
		
  
	</metadata>
	
  
	<g id="layer1" inkscape:groupmode="layer" inkscape:label="Ebene 1" transform="translate(0,-85.333307)">
		
    
		
		
    
		<path animation_id="0" d="m 87.657308,138.85836 c -7.832526,0.14644 -14.601046,3.20876 -19.302317,8.1456 -5.014734,5.26603 -7.702175,12.4861 -7.836153,20.20817 -0.160425,9.23809 4.439915,16.53758 11.097974,21.24948 v 3.69781 c -6.658059,4.7119 -11.258311,12.01139 -11.097974,21.24953 0.134197,7.72206 2.821419,14.94213 7.836153,20.20812 5.014689,5.266 12.382332,8.40036 20.883525,8.13655 11.903984,-0.36937 20.456544,-9.60717 25.850874,-19.95061 5.39434,-10.34346 8.12982,-22.30017 8.12982,-31.49586 0,-10.98192 -3.73851,-25.98682 -11.59949,-37.27416 3.20124,-3.00296 6.77661,-4.80046 10.62588,-4.91988 6.16275,-0.19102 10.65377,1.86932 13.89001,5.26775 3.23622,3.39842 5.18492,8.31051 5.28352,13.99392 0.13158,7.58375 -3.01313,12.3669 -8.5883,15.23177 l -2.50967,1.28755 v 2.82592 10.00691 l 2.50967,1.28983 c 5.57521,2.86491 8.71997,7.64578 8.5883,15.22953 -0.0984,5.68337 -2.0473,10.58645 -5.28352,13.98488 -3.23624,3.39843 -7.72726,5.46799 -13.89001,5.27679 -1.22959,-0.0393 -2.42985,-0.25921 -3.60069,-0.62347 l -5.92963,7.60802 c 2.82121,1.33332 5.89235,2.15729 9.23893,2.26111 8.50119,0.26358 15.86884,-2.87055 20.88353,-8.13655 5.01473,-5.26599 7.70213,-12.48606 7.83615,-20.20812 0.16043,-9.23814 -4.43992,-16.53763 -11.09797,-21.24953 v -3.69781 c 6.65805,-4.7119 11.25826,-12.01139 11.09797,-21.24948 -0.1342,-7.72207 -2.82142,-14.94214 -7.83615,-20.20817 -4.70127,-4.93684 -11.46979,-7.99934 -19.30232,-8.1456 -0.52214,-0.009 -1.04989,-0.009 -1.58121,0.009 -11.90399,0.36937 -20.45654,9.60944 -25.850874,19.95289 -5.394333,10.34345 -8.12754,22.29116 -8.12754,31.48685 0,9.1957 2.733207,21.1524 8.12754,31.49586 1.037558,1.98948 2.207958,3.92249 3.483225,5.77152 -3.201411,3.01109 -6.777088,4.81388 -10.630383,4.93343 -6.162753,0.19103 -10.662817,-1.87836 -13.899067,-5.27679 -3.236206,-3.39842 -5.184906,-8.30151 -5.283565,-13.98488 -0.131575,-7.58375 3.013142,-12.36462 8.588356,-15.22953 l 2.509619,-1.28983 v -12.83283 l -2.509619,-1.28755 c -5.575214,-2.86487 -8.719931,-7.64801 -8.588356,-15.23177 0.09879,-5.68341 2.047359,-10.5955 5.283565,-13.99392 3.23625,-3.39842 7.736314,-5.45898 13.899067,-5.26774 0.901263,0.0263 1.765633,0.14774 2.61125,0.34314 l 6.015486,-7.72093 c -0.77948,-0.33091 -1.572904,-0.63606 -2.394436,-0.88548 -1.892967,-0.57469 -3.890537,-0.91871 -5.949962,-0.98261 -0.531324,-0.0175 -1.059064,-0.0175 -1.581208,-0.009 z m 17.913092,21.97686 c 5.29275,9.15894 8.40083,21.59609 8.40083,29.47193 0,7.23205 -2.49082,18.39699 -7.08618,27.20845 -0.41483,0.79508 -0.84732,1.55761 -1.28755,2.30408 -0.44136,-0.74582 -0.8749,-1.50843 -1.28987,-2.30408 -4.595352,-8.81146 -7.086131,-19.9764 -7.086131,-27.20845 0,-7.23209 2.490779,-18.39931 7.086131,-27.21073 0.40697,-0.77991 0.83128,-1.52814 1.26277,-2.2612 z" id="path3525-9" inkscape:connector-curvature="0" stroke="black" style="color:#000000;font-style:normal;font-variant:normal;font-weight:normal;font-stretch:normal;font-size:medium;line-height:normal;font-family:sans-serif;font-variant-ligatures:normal;font-variant-position:normal;font-variant-caps:normal;font-variant-numeric:normal;font-variant-alternates:normal;font-feature-settings:normal;text-indent:0;text-align:start;text-decoration:none;text-decoration-line:none;text-decoration-style:solid;text-decoration-color:#000000;letter-spacing:normal;word-spacing:normal;text-transform:none;writing-mode:lr-tb;direction:ltr;text-orientation:mixed;dominant-baseline:auto;baseline-shift:baseline;text-anchor:start;white-space:normal;shape-padding:0;clip-rule:nonzero;display:inline;overflow:visible;visibility:visible;opacity:1;isolation:auto;mix-blend-mode:normal;color-interpolation:sRGB;color-interpolation-filters:linearRGB;solid-color:#000000;solid-opacity:1;vector-effect:none;fill:#ffffff;fill-opacity:1;fill-rule:evenodd;;stroke-width:9.25246429;stroke-linecap:butt;stroke-linejoin:miter;stroke-miterlimit:4;stroke-dasharray:none;stroke-dashoffset:0;stroke-opacity:1;color-rendering:auto;image-rendering:auto;shape-rendering:auto;text-rendering:auto;enable-background:accumulate"/>
		
    
		
		
  
	</g>
	

</svg>