<?xml version="1.0" encoding="iso-8859-1"?><!-- Generator: Adobe Illustrator 16.0.0, SVG Export Plug-In . SVG Version: 6.00 Build 0)  --><!DOCTYPE svg  PUBLIC '-//W3C//DTD SVG 1.1//EN'  'http://www.w3.org/Graphics/SVG/1.1/DTD/svg11.dtd'><svg enable-background="new 0 0 221 89" height="89px" version="1.1" viewBox="0 0 221 89" width="221px" x="0px" xml:space="preserve" xmlns="http://www.w3.org/2000/svg" xmlns:xlink="http://www.w3.org/1999/xlink" y="0px">
	

	<g id="EWR">
		
	
		<g>
			
		
			
			
		
			
			
		
			
			
	
		</g>
		

	</g>
	

	<g id="welle">
		
	
		<g>
			
		
			
			
		
			
			
		
			
			
		
			
			
		
			
			
		
			
			
		
			
			
		
			
			
		
			
			
		
			
			
		
			
			
		
			
			
		
			
			
		
			
			
		
			
			
		
			
			
		
			
			
		
			
			
	
		</g>
		

	</g>
	

	<g id="claim">
		
	
		<g>
			
		
			
			
		
			
			
		
			
			
		
			
			
		
			
			
		
			
			
		
			<path animation_id="25" d="M62.755,57.745c0.139,1.644,0.936,2.449,2.295,2.449c0.854,0,1.471-0.202,1.862-0.417l0.323,0.782    c-0.462,0.269-1.264,0.497-2.284,0.497c-1.972,0-3.363-1.198-3.363-3.78c0-2.462,1.265-3.742,3.041-3.742    c1.807,0,2.898,1.13,2.872,3.553L62.755,57.745z M64.587,54.302c-1.093,0-1.906,0.846-1.876,2.81l3.612-0.524    C66.323,54.951,65.668,54.302,64.587,54.302z" fill="#254F9B" stroke="black"/>
			
		
			
			
		
			
			
		
			
			
		
			
			
		
			
			
		
			
			
		
			
			
		
			
			
		
			
			
		
			
			
		
			
			
		
			
			
		
			
			
	
		</g>
		

	</g>
	

</svg>