<?xml version="1.0" encoding="iso-8859-1"?><!-- Generator: Adobe Illustrator 16.0.0, SVG Export Plug-In . SVG Version: 6.00 Build 0)  --><!DOCTYPE svg  PUBLIC '-//W3C//DTD SVG 1.1//EN'  'http://www.w3.org/Graphics/SVG/1.1/DTD/svg11.dtd'><svg enable-background="new 0 0 221 89" height="89px" version="1.1" viewBox="0 0 221 89" width="221px" x="0px" xml:space="preserve" xmlns="http://www.w3.org/2000/svg" xmlns:xlink="http://www.w3.org/1999/xlink" y="0px">
	

	<g id="EWR">
		
	
		<g>
			
		
			
			
		
			
			
		
			
			
	
		</g>
		

	</g>
	

	<g id="welle">
		
	
		<g>
			
		
			
			
		
			
			
		
			
			
		
			
			
		
			
			
		
			
			
		
			
			
		
			
			
		
			
			
		
			
			
		
			
			
		
			
			
		
			
			
		
			
			
		
			
			
		
			
			
		
			
			
		
			
			
	
		</g>
		

	</g>
	

	<g id="claim">
		
	
		<g>
			
		
			
			
		
			
			
		
			
			
		
			
			
		
			
			
		
			
			
		
			
			
		
			
			
		
			
			
		
			
			
		
			
			
		
			
			
		
			
			
		
			
			
		
			
			
		
			<path animation_id="34" d="M143.996,60.922h-1.14l-1.622-6.459c-0.141-0.551-0.209-1.034-0.209-1.034h-0.029    c0,0-0.039,0.469-0.182,1.034l-1.636,6.459h-1.134l-2.26-9.257h1.333l1.387,6.686c0.113,0.538,0.168,1.064,0.168,1.064h0.027    c0,0,0.068-0.526,0.211-1.064l1.665-6.686h0.981l1.65,6.686c0.129,0.5,0.197,1.064,0.197,1.064h0.025c0,0,0.059-0.564,0.17-1.064    l1.46-6.686h1.19L143.996,60.922z" fill="#254F9B" stroke="black"/>
			
		
			
			
		
			
			
		
			
			
		
			
			
	
		</g>
		

	</g>
	

</svg>