<?xml version="1.0" encoding="iso-8859-1"?><!-- Generator: Adobe Illustrator 16.0.0, SVG Export Plug-In . SVG Version: 6.00 Build 0)  --><!DOCTYPE svg  PUBLIC '-//W3C//DTD SVG 1.1//EN'  'http://www.w3.org/Graphics/SVG/1.1/DTD/svg11.dtd'><svg enable-background="new 0 0 221 89" height="89px" version="1.1" viewBox="0 0 221 89" width="221px" x="0px" xml:space="preserve" xmlns="http://www.w3.org/2000/svg" xmlns:xlink="http://www.w3.org/1999/xlink" y="0px">
	

	<g id="EWR">
		
	
		<g>
			
		
			
			
		
			
			
		
			
			
	
		</g>
		

	</g>
	

	<g id="welle">
		
	
		<g>
			
		
			
			
		
			
			
		
			
			
		
			
			
		
			
			
		
			
			
		
			
			
		
			
			
		
			
			
		
			
			
		
			
			
		
			
			
		
			
			
		
			
			
		
			
			
		
			
			
		
			
			
		
			
			
	
		</g>
		

	</g>
	

	<g id="claim">
		
	
		<g>
			
		
			
			
		
			
			
		
			<path animation_id="21" d="M40.38,57.745c0.14,1.644,0.938,2.449,2.297,2.449c0.854,0,1.471-0.202,1.864-0.417l0.321,0.782    c-0.463,0.269-1.261,0.497-2.284,0.497c-1.973,0-3.358-1.198-3.358-3.78c0-2.462,1.26-3.742,3.04-3.742    c1.806,0,2.896,1.13,2.869,3.553L40.38,57.745z M42.214,54.302c-1.092,0-1.904,0.846-1.875,2.81l3.612-0.524    C43.951,54.951,43.293,54.302,42.214,54.302z" fill="#254F9B" stroke="black"/>
			
		
			
			
		
			
			
		
			
			
		
			
			
		
			
			
		
			
			
		
			
			
		
			
			
		
			
			
		
			
			
		
			
			
		
			
			
		
			
			
		
			
			
		
			
			
		
			
			
		
			
			
	
		</g>
		

	</g>
	

</svg>