<?xml version="1.0" encoding="iso-8859-1"?><!-- Generator: Adobe Illustrator 16.0.0, SVG Export Plug-In . SVG Version: 6.00 Build 0)  --><!DOCTYPE svg  PUBLIC '-//W3C//DTD SVG 1.1//EN'  'http://www.w3.org/Graphics/SVG/1.1/DTD/svg11.dtd'><svg enable-background="new 0 0 221 89" height="89px" version="1.1" viewBox="0 0 221 89" width="221px" x="0px" xml:space="preserve" xmlns="http://www.w3.org/2000/svg" xmlns:xlink="http://www.w3.org/1999/xlink" y="0px">
	

	<g id="EWR">
		
	
		<g>
			
		
			
			
		
			
			
		
			
			
	
		</g>
		

	</g>
	

	<g id="welle">
		
	
		<g>
			
		
			
			
		
			
			
		
			
			
		
			
			
		
			
			
		
			
			
		
			
			
		
			
			
		
			
			
		
			
			
		
			
			
		
			
			
		
			
			
		
			
			
		
			
			
		
			
			
		
			
			
		
			
			
	
		</g>
		

	</g>
	

	<g id="claim">
		
	
		<g>
			
		
			
			
		
			
			
		
			
			
		
			
			
		
			
			
		
			
			
		
			
			
		
			<path animation_id="26" d="M75.549,61.056c-1.961,0-2.87-0.819-2.87-2.138c0-1.926,1.876-2.49,4.214-2.72v-0.444    c0-1.117-0.698-1.439-1.666-1.439c-0.729,0-1.4,0.254-1.821,0.457l-0.293-0.7c0.433-0.228,1.275-0.538,2.31-0.538    c1.401,0,2.635,0.579,2.635,2.357v4.655C77.48,60.854,76.6,61.056,75.549,61.056z M76.893,56.804    c-1.904,0.229-3.04,0.619-3.04,2.085c0,1.053,0.672,1.481,1.795,1.481c0.474,0,0.937-0.081,1.245-0.24V56.804z" fill="#254F9B" stroke="black"/>
			
		
			
			
		
			
			
		
			
			
		
			
			
		
			
			
		
			
			
		
			
			
		
			
			
		
			
			
		
			
			
		
			
			
		
			
			
	
		</g>
		

	</g>
	

</svg>