<?xml version="1.0" encoding="iso-8859-1"?><!-- Generator: Adobe Illustrator 16.0.0, SVG Export Plug-In . SVG Version: 6.00 Build 0)  --><!DOCTYPE svg  PUBLIC '-//W3C//DTD SVG 1.1//EN'  'http://www.w3.org/Graphics/SVG/1.1/DTD/svg11.dtd'><svg enable-background="new 0 0 221 89" height="89px" version="1.1" viewBox="0 0 221 89" width="221px" x="0px" xml:space="preserve" xmlns="http://www.w3.org/2000/svg" xmlns:xlink="http://www.w3.org/1999/xlink" y="0px">
	

	<g id="EWR">
		
	
		<g>
			
		
			
			
		
			
			
		
			<path animation_id="0" d="M192.207,11.064h6.655c5.425,0,7.048,1.683,7.048,4.588c0,4.135-3.62,4.588-6.272,4.588h-7.431V11.064z     M178.003,46.206h14.204V30.123h7.565c5.613,0,6.004,4.589,6.392,8.979c0.194,2.392,0.455,4.778,1.162,7.104h14.215    c-1.292-2.132-1.358-7.618-1.552-9.884c-0.515-5.744-2.909-10.009-6.786-11.495c4.717-1.749,6.912-6.783,6.912-11.569    c0-8.716-6.973-13.176-15.048-13.176h-27.064V46.206z" fill="#254F9B" stroke="black"/>
			
	
		</g>
		

	</g>
	

	<g id="welle">
		
	
		<g>
			
		
			
			
		
			
			
		
			
			
		
			
			
		
			
			
		
			
			
		
			
			
		
			
			
		
			
			
		
			
			
		
			
			
		
			
			
		
			
			
		
			
			
		
			
			
		
			
			
		
			
			
		
			
			
	
		</g>
		

	</g>
	

	<g id="claim">
		
	
		<g>
			
		
			
			
		
			
			
		
			
			
		
			
			
		
			
			
		
			
			
		
			
			
		
			
			
		
			
			
		
			
			
		
			
			
		
			
			
		
			
			
		
			
			
		
			
			
		
			
			
		
			
			
		
			
			
		
			
			
		
			
			
	
		</g>
		

	</g>
	

</svg>