<?xml version="1.0" encoding="iso-8859-1"?><!-- Generator: Adobe Illustrator 16.0.0, SVG Export Plug-In . SVG Version: 6.00 Build 0)  --><!DOCTYPE svg  PUBLIC '-//W3C//DTD SVG 1.1//EN'  'http://www.w3.org/Graphics/SVG/1.1/DTD/svg11.dtd'><svg enable-background="new 0 0 221 89" height="89px" version="1.1" viewBox="0 0 221 89" width="221px" x="0px" xml:space="preserve" xmlns="http://www.w3.org/2000/svg" xmlns:xlink="http://www.w3.org/1999/xlink" y="0px">
	

	<g id="EWR">
		
	
		<g>
			
		
			
			
		
			
			
		
			
			
	
		</g>
		

	</g>
	

	<g id="welle">
		
	
		<g>
			
		
			
			
		
			
			
		
			
			
		
			
			
		
			
			
		
			
			
		
			
			
		
			
			
		
			
			
		
			
			
		
			
			
		
			
			
		
			
			
		
			
			
		
			
			
		
			
			
		
			
			
		
			
			
	
		</g>
		

	</g>
	

	<g id="claim">
		
	
		<g>
			
		
			
			
		
			
			
		
			
			
		
			
			
		
			<path animation_id="23" d="M53.626,63.962c-0.996,0-1.835-0.203-2.341-0.496l0.38-0.797c0.42,0.231,1.077,0.433,1.749,0.433    c1.386,0,1.92-0.81,1.92-1.898v-0.509c-0.337,0.186-0.854,0.309-1.514,0.309c-1.807,0-2.97-1.375-2.97-3.582    c0-2.299,1.163-3.889,3.432-3.889c1.051,0,1.806,0.241,2.238,0.511v7.024C56.521,62.9,55.429,63.962,53.626,63.962z     M55.334,54.449c-0.281-0.147-0.645-0.203-1.081-0.203c-1.526,0-2.184,1.228-2.184,3.136c0,1.87,0.631,2.918,2.072,2.918    c0.479,0,0.896-0.12,1.192-0.293V54.449z" fill="#254F9B" stroke="black"/>
			
		
			
			
		
			
			
		
			
			
		
			
			
		
			
			
		
			
			
		
			
			
		
			
			
		
			
			
		
			
			
		
			
			
		
			
			
		
			
			
		
			
			
		
			
			
	
		</g>
		

	</g>
	

</svg>