<?xml version="1.0" encoding="iso-8859-1"?><!-- Generator: Adobe Illustrator 16.0.0, SVG Export Plug-In . SVG Version: 6.00 Build 0)  --><!DOCTYPE svg  PUBLIC '-//W3C//DTD SVG 1.1//EN'  'http://www.w3.org/Graphics/SVG/1.1/DTD/svg11.dtd'><svg enable-background="new 0 0 221 89" height="89px" version="1.1" viewBox="0 0 221 89" width="221px" x="0px" xml:space="preserve" xmlns="http://www.w3.org/2000/svg" xmlns:xlink="http://www.w3.org/1999/xlink" y="0px">
	

	<g id="EWR">
		
	
		<g>
			
		
			
			
		
			
			
		
			
			
	
		</g>
		

	</g>
	

	<g id="welle">
		
	
		<g>
			
		
			
			
		
			
			
		
			
			
		
			
			
		
			
			
		
			
			
		
			
			
		
			
			
		
			
			
		
			
			
		
			
			
		
			
			
		
			
			
		
			
			
		
			
			
		
			
			
		
			
			
		
			
			
	
		</g>
		

	</g>
	

	<g id="claim">
		
	
		<g>
			
		
			
			
		
			
			
		
			
			
		
			
			
		
			
			
		
			
			
		
			
			
		
			
			
		
			
			
		
			
			
		
			
			
		
			
			
		
			
			
		
			
			
		
			
			
		
			
			
		
			
			
		
			
			
		
			<path animation_id="37" d="M162.861,57.745c0.139,1.644,0.936,2.449,2.298,2.449c0.854,0,1.468-0.202,1.86-0.417l0.322,0.782    c-0.463,0.269-1.261,0.497-2.28,0.497c-1.978,0-3.36-1.198-3.36-3.78c0-2.462,1.258-3.742,3.038-3.742    c1.808,0,2.899,1.13,2.868,3.553L162.861,57.745z M164.694,54.302c-1.091,0-1.903,0.846-1.874,2.81l3.613-0.524    C166.434,54.951,165.774,54.302,164.694,54.302z" fill="#254F9B" stroke="black"/>
			
		
			
			
	
		</g>
		

	</g>
	

</svg>