<?xml version="1.0" encoding="iso-8859-1"?><!-- Created with Inkscape (http://www.inkscape.org/) --><svg height="26.505831mm" id="svg8" inkscape:version="0.92.0 r15299" sodipodi:docname="experian.svg" version="1.1" viewBox="0 0 79.84584 26.505831" width="79.84584mm" xmlns="http://www.w3.org/2000/svg" xmlns:cc="http://creativecommons.org/ns#" xmlns:dc="http://purl.org/dc/elements/1.1/" xmlns:inkscape="http://www.inkscape.org/namespaces/inkscape" xmlns:rdf="http://www.w3.org/1999/02/22-rdf-syntax-ns#" xmlns:sodipodi="http://sodipodi.sourceforge.net/DTD/sodipodi-0.dtd" xmlns:svg="http://www.w3.org/2000/svg">
	
  
	<defs id="defs2"/>
	
  
	<sodipodi:namedview bordercolor="#666666" borderopacity="1.0" fit-margin-bottom="0" fit-margin-left="0" fit-margin-right="0" fit-margin-top="0" id="base" inkscape:current-layer="layer1" inkscape:cx="149.00001" inkscape:cy="48.199994" inkscape:document-units="mm" inkscape:pageopacity="0.0" inkscape:pageshadow="2" inkscape:window-height="744" inkscape:window-maximized="1" inkscape:window-width="1280" inkscape:window-x="-4" inkscape:window-y="-4" inkscape:zoom="3.010067" pagecolor="#ffffff" showgrid="false" units="mm"/>
	
  
	<metadata id="metadata5">
		
    
		<rdf:RDF>
			
      
			<cc:Work rdf:about="">
				
        
				<dc:format>image/svg+xml</dc:format>
				
        
				<dc:type rdf:resource="http://purl.org/dc/dcmitype/StillImage"/>
				
        
				<dc:title/>
				
      
			</cc:Work>
			
    
		</rdf:RDF>
		
  
	</metadata>
	
  
	<g id="layer1" inkscape:groupmode="layer" inkscape:label="Layer 1" transform="translate(122.91408,-181.93624)">
		
    
		<g id="g135" transform="translate(0.50000173,-0.49999809)">
			
      
			
			
      
			
			
      
			
			
      
			
			
      
			
			
      
			
			
      
			
			
      
			
			
      
			
			
      
			
			
      
			
			
      
			
			
      
			
			
      
			<path animation_id="13" class="st4" d="m -76.929492,196.69457 c -0.02646,-2.38125 -2.169584,-4.39208 -4.656667,-4.39208 -2.619375,0 -4.683125,2.0902 -4.683125,4.65666 0,2.61938 2.090208,4.68313 4.683125,4.68313 1.243542,0 2.407708,-0.47625 3.254375,-1.32292 0.15875,-0.13229 0.264583,-0.37042 0.264583,-0.58208 0,-0.42334 -0.370416,-0.76729 -0.767291,-0.76729 -0.238125,0 -0.449792,0.13229 -0.608542,0.3175 -0.529167,0.55562 -1.296458,0.8202 -2.116667,0.8202 -1.561041,0 -2.831041,-1.05833 -3.095625,-2.54 h 6.985 c 0,0 0,0 0.02646,0 h 0.02646 c 0.02646,0 0.05292,0 0.05292,0 0,0 0.02646,0 0.02646,0 0.3175,-0.13229 0.608542,-0.47625 0.608542,-0.87312 z m -4.656667,-2.8575 c 1.402292,0 2.566458,0.89958 2.963333,2.16958 h -5.953125 c 0.396875,-1.27 1.561042,-2.16958 2.989792,-2.16958 z" id="path38" inkscape:connector-curvature="0" stroke="black" style="fill:#26478d;stroke-width:0.26458332"/>
			
      
			
			
      
			
			
    
		</g>
		
  
	</g>
	
  
	<style id="style10" type="text/css">.st0{fill:#406EB3;}.st1{fill:#632678;}.st2{fill:#982881;}.st3{fill:#BA2F7D;}.st4{fill:#26478D;}.st5{fill:none;}</style>
	

</svg>