<?xml version="1.0" encoding="iso-8859-1"?><!-- Created with Inkscape (http://www.inkscape.org/) --><svg height="26.505831mm" id="svg8" inkscape:version="0.92.0 r15299" sodipodi:docname="experian.svg" version="1.1" viewBox="0 0 79.84584 26.505831" width="79.84584mm" xmlns="http://www.w3.org/2000/svg" xmlns:cc="http://creativecommons.org/ns#" xmlns:dc="http://purl.org/dc/elements/1.1/" xmlns:inkscape="http://www.inkscape.org/namespaces/inkscape" xmlns:rdf="http://www.w3.org/1999/02/22-rdf-syntax-ns#" xmlns:sodipodi="http://sodipodi.sourceforge.net/DTD/sodipodi-0.dtd" xmlns:svg="http://www.w3.org/2000/svg">
	
  
	<defs id="defs2"/>
	
  
	<sodipodi:namedview bordercolor="#666666" borderopacity="1.0" fit-margin-bottom="0" fit-margin-left="0" fit-margin-right="0" fit-margin-top="0" id="base" inkscape:current-layer="layer1" inkscape:cx="149.00001" inkscape:cy="48.199994" inkscape:document-units="mm" inkscape:pageopacity="0.0" inkscape:pageshadow="2" inkscape:window-height="744" inkscape:window-maximized="1" inkscape:window-width="1280" inkscape:window-x="-4" inkscape:window-y="-4" inkscape:zoom="3.010067" pagecolor="#ffffff" showgrid="false" units="mm"/>
	
  
	<metadata id="metadata5">
		
    
		<rdf:RDF>
			
      
			<cc:Work rdf:about="">
				
        
				<dc:format>image/svg+xml</dc:format>
				
        
				<dc:type rdf:resource="http://purl.org/dc/dcmitype/StillImage"/>
				
        
				<dc:title/>
				
      
			</cc:Work>
			
    
		</rdf:RDF>
		
  
	</metadata>
	
  
	<g id="layer1" inkscape:groupmode="layer" inkscape:label="Layer 1" transform="translate(122.91408,-181.93624)">
		
    
		<g id="g135" transform="translate(0.50000173,-0.49999809)">
			
      
			
			
      
			
			
      
			
			
      
			
			
      
			
			
      
			
			
      
			<path animation_id="6" class="st4" d="m -102.91158,201.21894 c -0.13229,0.21167 -0.37041,0.3175 -0.635,0.3175 -0.13229,0 -0.3175,-0.0265 -0.42333,-0.10583 -0.21167,-0.13229 -0.34396,-0.39687 -0.34396,-0.66146 0,-0.13229 0.0265,-0.26458 0.10584,-0.37041 l 2.16958,-3.41313 -2.16958,-3.41312 c -0.0794,-0.10584 -0.10584,-0.26459 -0.10584,-0.37042 0,-0.26458 0.13229,-0.52917 0.37042,-0.66146 0.13229,-0.0794 0.26458,-0.10583 0.39687,-0.10583 0.26459,0 0.50271,0.10583 0.66146,0.3175 l 1.77271,2.80458 1.799168,-2.80458 c 0.132292,-0.21167 0.396875,-0.3175 0.661458,-0.3175 0.132292,0 0.264584,0.0265 0.396875,0.10583 0.238125,0.13229 0.370417,0.39688 0.370417,0.66146 0,0.13229 -0.02646,0.26458 -0.105833,0.37042 l -2.169585,3.41312 2.169585,3.41313 c 0.07937,0.10583 0.105833,0.23812 0.105833,0.37041 0,0.26459 -0.132292,0.55563 -0.343958,0.66146 -0.132292,0.0794 -0.291042,0.10583 -0.423334,0.10583 -0.264583,0 -0.47625,-0.10583 -0.635,-0.3175 l -1.799166,-2.77812 z" id="path24" inkscape:connector-curvature="0" stroke="black" style="fill:#26478d;stroke-width:0.26458332"/>
			
      
			
			
      
			
			
      
			
			
      
			
			
      
			
			
      
			
			
      
			
			
      
			
			
      
			
			
    
		</g>
		
  
	</g>
	
  
	<style id="style10" type="text/css">.st0{fill:#406EB3;}.st1{fill:#632678;}.st2{fill:#982881;}.st3{fill:#BA2F7D;}.st4{fill:#26478D;}.st5{fill:none;}</style>
	

</svg>