<?xml version="1.0" encoding="iso-8859-1"?><svg height="165.83957" id="svg3382" version="1.1" width="551.89105" xmlns="http://www.w3.org/2000/svg" xmlns:svg="http://www.w3.org/2000/svg">
	
  
	<defs id="defs3384"/>
	
  
	<g id="layer1" transform="translate(-74.05448,-449.4424)">
		
    
		<path animation_id="0" d="m 362.80772,532.36183 c 0,-5.08315 -4.13073,-9.2103 -9.2103,-9.2103 l -20.17563,0 0,-20.17563 c 0,-5.08314 -4.12002,-9.20317 -9.20316,-9.20317 -5.09029,0 -9.21388,4.12003 -9.21388,9.20317 l 0,20.17563 -20.17204,0 c -5.09028,0 -9.21031,4.12715 -9.21031,9.2103 0,5.09028 4.12003,9.2103 9.21031,9.2103 l 20.17204,0 0,20.17562 c 0,5.09028 4.12359,9.2103 9.21388,9.2103 5.08314,0 9.20316,-4.12002 9.20316,-9.2103 l 0,-20.17562 20.17563,0 c 5.07957,0 9.2103,-4.12002 9.2103,-9.2103 M 258.24725,490.91262 c -2.71101,4.29838 -1.41257,9.98794 2.88581,12.69894 4.30551,2.71101 9.99506,1.41971 12.70607,-2.8858 10.97602,-17.45034 29.81755,-27.86276 50.37842,-27.86276 20.56087,0 39.38813,10.41242 50.37842,27.86276 2.71101,4.30551 8.39342,5.59681 12.69893,2.8858 4.29839,-2.711 5.59682,-8.40056 2.87868,-12.69894 -14.37193,-22.83312 -39.02785,-36.47022 -65.95603,-36.47022 -26.93532,0 -51.59125,13.6371 -65.9703,36.47022 m 116.34837,73.09312 c -10.99029,17.44321 -29.82112,27.8592 -50.37842,27.8592 -20.56087,0 -39.39526,-10.41599 -50.37842,-27.8592 -2.71101,-4.30551 -8.40056,-5.59681 -12.70607,-2.8858 -4.29838,2.70744 -5.59682,8.397 -2.8858,12.69894 14.37905,22.83313 39.03497,36.46309 65.97029,36.46309 26.92104,0 51.58411,-13.62996 65.95603,-36.46309 2.71814,-4.30194 1.41971,-9.9915 -2.87868,-12.69894 -4.29837,-2.71101 -9.98792,-1.41971 -12.69893,2.8858" id="path74" stroke="black" style="fill:#f18800;fill-opacity:1;fill-rule:nonzero;"/>
		
    
		
		
  
	</g>
	

</svg>