<?xml version="1.0" encoding="iso-8859-1"?><svg height="203.34462" id="svg3992" version="1.1" width="765.14874" xmlns="http://www.w3.org/2000/svg" xmlns:svg="http://www.w3.org/2000/svg">
	
  
	<defs id="defs3994"/>
	
  
	<g id="layer1" transform="translate(-5.9970536,-402.11844)">
		
    
		
		
    
		
		
    
		
		
    
		
		
    
		<path animation_id="4" d="m 720.27592,447.34638 c 3.21784,-0.10258 3.96291,-1.43615 3.96291,-3.12065 0,-1.63592 -0.74507,-2.47817 -3.46619,-2.47817 l -4.10868,0 0,5.59882 3.61196,0 z m -3.61196,3.4176 0,9.45375 -3.41761,0 0,-21.88237 7.07817,0 c 4.01149,0 8.17417,1.09061 8.17417,6.04154 0,2.52136 -1.53873,4.50281 -4.45962,5.09671 l 0,0.10258 c 3.01807,0.5885 3.36901,1.92746 3.71455,4.30305 0.29694,2.07864 0.5453,4.35704 1.28497,6.33849 l -4.35164,0 c -0.24835,-1.23638 -0.59929,-2.62394 -0.73967,-3.90892 -0.25375,-1.88427 -0.25375,-3.61736 -1.24178,-4.65938 -0.84225,-0.88545 -1.98145,-0.78826 -3.16925,-0.88545 l -2.87229,0 z m 19.25843,-1.24178 c 0,-8.41713 -6.82981,-15.29552 -15.29553,-15.29552 -8.51431,0 -15.3981,6.87839 -15.3981,15.29552 0,8.51431 6.88379,15.39811 15.3981,15.39811 8.46572,0 15.29553,-6.8838 15.29553,-15.39811 z m -33.95466,0 c 0,-10.24741 8.30914,-18.56195 18.65913,-18.56195 10.296,0 18.56196,8.31454 18.56196,18.56195 0,10.34459 -8.26596,18.66454 -18.56196,18.66454 -10.34999,0 -18.65913,-8.31995 -18.65913,-18.66454" id="path150" stroke="black" style="fill:#ffffff;fill-opacity:1;fill-rule:nonzero;"/>
		
    
		
		
    
		
		
  
	</g>
	

</svg>