<?xml version="1.0" encoding="iso-8859-1"?><!-- Created with Inkscape (http://www.inkscape.org/) --><svg height="80.995766mm" id="svg403" inkscape:version="0.92.4 (5da689c313, 2019-01-14)" sodipodi:docname="Faurecia.svg" version="1.1" viewBox="0 0 250 80.995766" width="250mm" xmlns="http://www.w3.org/2000/svg" xmlns:cc="http://creativecommons.org/ns#" xmlns:dc="http://purl.org/dc/elements/1.1/" xmlns:inkscape="http://www.inkscape.org/namespaces/inkscape" xmlns:rdf="http://www.w3.org/1999/02/22-rdf-syntax-ns#" xmlns:sodipodi="http://sodipodi.sourceforge.net/DTD/sodipodi-0.dtd" xmlns:svg="http://www.w3.org/2000/svg">
	
  
	<defs id="defs397"/>
	
  
	<sodipodi:namedview bordercolor="#666666" borderopacity="1.0" fit-margin-bottom="0" fit-margin-left="0" fit-margin-right="0" fit-margin-top="0" id="base" inkscape:current-layer="layer1" inkscape:cx="536.05939" inkscape:cy="125.97648" inkscape:document-units="mm" inkscape:pagecheckerboard="true" inkscape:pageopacity="0.0" inkscape:pageshadow="2" inkscape:window-height="1001" inkscape:window-maximized="1" inkscape:window-width="1920" inkscape:window-x="-9" inkscape:window-y="-9" inkscape:zoom="1.4" pagecolor="#ffffff" showgrid="false"/>
	
  
	<metadata id="metadata400">
		
    
		<rdf:RDF>
			
      
			<cc:Work rdf:about="">
				
        
				<dc:format>image/svg+xml</dc:format>
				
        
				<dc:type rdf:resource="http://purl.org/dc/dcmitype/StillImage"/>
				
        
				<dc:title/>
				
      
			</cc:Work>
			
    
		</rdf:RDF>
		
  
	</metadata>
	
  
	<g id="layer1" inkscape:groupmode="layer" inkscape:label="Calque 1" transform="translate(4.8635125,-140.44849)">
		
    
		<g id="g632">
			
      
			
			
      
			
			
      
			<g id="g592">
				
        
				<g id="g538">
					
          
					<g id="g168" transform="matrix(1.76388,0,0,-1.76388,33.636696,199.45573)">
						
            
						
						
          
					</g>
					
          
					<g id="g172" transform="matrix(1.76388,0,0,-1.76388,40.648102,205.19891)">
						
            
						
						
          
					</g>
					
          
					<g id="g176" transform="matrix(1.76388,0,0,-1.76388,55.653446,214.27761)">
						
            
						
						
          
					</g>
					
          
					<g id="g180" transform="matrix(1.76388,0,0,-1.76388,69.261781,205.19891)">
						
            
						
						
          
					</g>
					
          
					<g id="g184" transform="matrix(1.76388,0,0,-1.76388,85.690577,199.45573)">
						
            
						
						
          
					</g>
					
          
					<g id="g188" transform="matrix(1.76388,0,0,-1.76388,92.701982,205.19891)">
						
            
						
						
          
					</g>
					
          
					<g id="g192" transform="matrix(1.76388,0,0,-1.76388,101.08394,199.45573)">
						
            
						
						
          
					</g>
					
          
					<g id="g196" transform="matrix(1.76388,0,0,-1.76388,108.09536,205.19891)">
						
            
						
						
          
					</g>
					
          
					<g id="g200" transform="matrix(1.76388,0,0,-1.76388,122.94545,219.08947)">
						
            
						<path animation_id="10" d="m 0,0 0.953,1.085 c 0.689,-0.631 1.57,-1.115 2.772,-1.115 1.393,0 2.552,0.661 2.552,2.479 0,0.161 0,0.44 0.015,0.601 H 6.262 C 5.749,2.449 4.737,1.863 3.593,1.863 c -2.2,0 -3.666,1.613 -3.666,3.768 0,2.156 1.554,3.755 3.695,3.755 1.188,0 2.068,-0.455 2.581,-1.1 h 0.015 v 0.865 h 1.393 c -0.014,-0.411 0,-0.645 0,-1.07 V 2.376 C 7.611,-0.308 5.719,-1.335 3.607,-1.335 2.259,-1.335 0.983,-0.88 0,0 m 6.277,5.602 c 0,1.437 -0.939,2.522 -2.449,2.522 -1.467,0 -2.376,-1.114 -2.376,-2.522 0,-1.393 0.909,-2.478 2.376,-2.478 1.495,0 2.449,1.114 2.449,2.478" id="path202" inkscape:connector-curvature="0" stroke="black" style="fill:#243a8d;fill-opacity:1;fill-rule:nonzero;"/>
						
          
					</g>
					
        
				</g>
				
        
				<g id="g555">
					
          
					<g id="g204" transform="matrix(1.76388,0,0,-1.76388,146.74727,205.19891)">
						
            
						
						
          
					</g>
					
          
					<g id="g208" transform="matrix(1.76388,0,0,-1.76388,170.44676,209.80264)">
						
            
						
						
          
					</g>
					
          
					<g id="g212" transform="matrix(1.76388,0,0,-1.76388,190.21103,214.84734)">
						
            
						
						
          
					</g>
					
          
					<g id="g216" transform="matrix(1.76388,0,0,-1.76388,204.20742,199.45573)">
						
            
						
						
          
					</g>
					
          
					
					
          
					<g id="g222" transform="matrix(1.76388,0,0,-1.76388,217.35185,199.45573)">
						
            
						
						
          
					</g>
					
          
					<g id="g226" transform="matrix(1.76388,0,0,-1.76388,225.00886,205.19891)">
						
            
						
						
          
					</g>
					
          
					<g id="g230" transform="matrix(1.76388,0,0,-1.76388,237.1955,216.60592)">
						
            
						
						
          
					</g>
					
        
				</g>
				
      
			</g>
			
    
		</g>
		
  
	</g>
	

</svg>