<?xml version="1.0" encoding="iso-8859-1"?><!-- Created with Inkscape (http://www.inkscape.org/) --><svg height="80.995766mm" id="svg403" inkscape:version="0.92.4 (5da689c313, 2019-01-14)" sodipodi:docname="Faurecia.svg" version="1.1" viewBox="0 0 250 80.995766" width="250mm" xmlns="http://www.w3.org/2000/svg" xmlns:cc="http://creativecommons.org/ns#" xmlns:dc="http://purl.org/dc/elements/1.1/" xmlns:inkscape="http://www.inkscape.org/namespaces/inkscape" xmlns:rdf="http://www.w3.org/1999/02/22-rdf-syntax-ns#" xmlns:sodipodi="http://sodipodi.sourceforge.net/DTD/sodipodi-0.dtd" xmlns:svg="http://www.w3.org/2000/svg">
	
  
	<defs id="defs397"/>
	
  
	<sodipodi:namedview bordercolor="#666666" borderopacity="1.0" fit-margin-bottom="0" fit-margin-left="0" fit-margin-right="0" fit-margin-top="0" id="base" inkscape:current-layer="layer1" inkscape:cx="536.05939" inkscape:cy="125.97648" inkscape:document-units="mm" inkscape:pagecheckerboard="true" inkscape:pageopacity="0.0" inkscape:pageshadow="2" inkscape:window-height="1001" inkscape:window-maximized="1" inkscape:window-width="1920" inkscape:window-x="-9" inkscape:window-y="-9" inkscape:zoom="1.4" pagecolor="#ffffff" showgrid="false"/>
	
  
	<metadata id="metadata400">
		
    
		<rdf:RDF>
			
      
			<cc:Work rdf:about="">
				
        
				<dc:format>image/svg+xml</dc:format>
				
        
				<dc:type rdf:resource="http://purl.org/dc/dcmitype/StillImage"/>
				
        
				<dc:title/>
				
      
			</cc:Work>
			
    
		</rdf:RDF>
		
  
	</metadata>
	
  
	<g id="layer1" inkscape:groupmode="layer" inkscape:label="Calque 1" transform="translate(4.8635125,-140.44849)">
		
    
		<g id="g632">
			
      
			<path animation_id="0" d="m 40.314746,170.40284 c 0,-5.2546 3.136179,-8.22144 7.628781,-8.22144 4.321506,0 7.88278,3.21908 7.88278,7.79811 0,5.2546 -3.561274,8.47544 -7.88278,8.47544 -4.492602,0 -7.628781,-3.39018 -7.628781,-8.05211 m 180.284414,0 c 0,-5.2546 3.13618,-8.22144 7.62878,-8.22144 4.32327,0 7.88278,3.21908 7.88278,7.88278 0,5.16993 -3.55951,8.39077 -7.88278,8.39077 -4.4926,0 -7.62878,-3.39018 -7.62878,-8.05211 m -75.18186,-8.39078 c 3.05151,0 4.57727,1.35643 5.2546,2.96509 l -12.46005,4.2386 c 0.0847,-4.40794 2.88218,-7.20369 7.20545,-7.20369 m -45.17649,9.40854 v -15.4269 h -8.053881 v 14.49381 c 0,4.40793 -1.608659,7.54411 -6.185927,7.54411 -4.577269,0 -6.187691,-3.13618 -6.187691,-7.54411 V 155.9937 h -8.052112 v 15.4269 c 0,8.13678 4.831267,13.89937 14.239803,13.89937 9.408536,0 14.239808,-5.76259 14.239808,-13.89937 m 97.47377,13.13738 h 8.05211 V 155.9937 h -8.05211 z m -89.67566,-16.10423 v 16.10423 h 8.05211 v -15.51156 c 0,-4.49084 2.45709,-6.27236 9.91653,-6.01836 v -7.45945 c -12.62938,-0.93133 -17.96864,3.81527 -17.96864,12.88514 m 50.51576,13.30671 -3.39018,-5.76259 c -2.03375,1.52399 -4.32327,2.54175 -7.96745,2.54175 -3.39017,0 -6.18769,-1.10243 -7.71344,-3.39018 l 19.83483,-6.27236 c -0.76376,-8.7312 -5.6797,-13.56247 -13.81647,-13.56247 -8.73121,0 -14.66314,6.01836 -14.66314,14.9189 0,9.2392 6.52636,15.08646 16.35822,15.08646 4.91594,0 8.73121,-1.26999 11.35763,-3.55951 m 22.54591,-19.07107 c 2.79752,0 4.40794,0.762 6.18769,1.94909 l 3.47485,-6.10302 c -2.62642,-2.11842 -5.93193,-3.22085 -10.33987,-3.22085 -8.39254,0 -15.34223,5.59503 -15.34223,15.00356 0,9.40854 6.78036,15.0018 15.76556,15.0018 4.49261,0 7.62878,-1.01599 10.25697,-3.39017 l -3.55951,-5.84903 c -1.69686,1.27176 -3.30728,2.12018 -6.1877,2.12018 -4.66193,0 -8.13854,-2.96684 -8.13854,-7.71344 0,-4.91594 3.47661,-7.79812 7.88278,-7.79812 M 55.910973,184.55798 h 7.544115 V 155.9937 h -7.544115 v 2.71285 c -2.203086,-2.37418 -5.169932,-3.47661 -9.154537,-3.47661 -8.475444,0 -14.663135,6.10303 -14.663135,15.08823 0,8.98521 6.103025,15.0018 14.663135,15.0018 3.899938,0 6.951451,-1.10066 9.154537,-3.47484 z m 180.284407,0 h 7.54412 V 155.9937 h -7.54412 v 2.96685 c -2.37241,-2.54351 -5.59326,-3.73061 -9.15277,-3.73061 -8.47721,0 -14.6649,6.10303 -14.6649,15.08823 0,8.98521 6.10303,15.0018 14.6649,15.0018 3.55951,0 6.78036,-1.18709 9.15277,-3.81351 z m -38.4808,-33.73421 h 8.05211 v -7.79811 h -8.05211 z M 28.618458,163.70715 v -7.71345 h -12.88338 v -1.52575 c 0,-5.08527 3.134415,-7.37478 13.306711,-6.18769 v -7.45945 C 14.547987,138.95639 7.682966,144.21099 7.682966,153.95995 v 30.59803 h 8.052112 v -20.85083" id="path164" inkscape:connector-curvature="0" stroke="black" style="fill:#243a8d;fill-opacity:1;fill-rule:nonzero;;stroke-width:1.76388001"/>
			
      
			
			
      
			<g id="g592">
				
        
				<g id="g538">
					
          
					<g id="g168" transform="matrix(1.76388,0,0,-1.76388,33.636696,199.45573)">
						
            
						
						
          
					</g>
					
          
					<g id="g172" transform="matrix(1.76388,0,0,-1.76388,40.648102,205.19891)">
						
            
						
						
          
					</g>
					
          
					<g id="g176" transform="matrix(1.76388,0,0,-1.76388,55.653446,214.27761)">
						
            
						
						
          
					</g>
					
          
					<g id="g180" transform="matrix(1.76388,0,0,-1.76388,69.261781,205.19891)">
						
            
						
						
          
					</g>
					
          
					<g id="g184" transform="matrix(1.76388,0,0,-1.76388,85.690577,199.45573)">
						
            
						
						
          
					</g>
					
          
					<g id="g188" transform="matrix(1.76388,0,0,-1.76388,92.701982,205.19891)">
						
            
						
						
          
					</g>
					
          
					<g id="g192" transform="matrix(1.76388,0,0,-1.76388,101.08394,199.45573)">
						
            
						
						
          
					</g>
					
          
					<g id="g196" transform="matrix(1.76388,0,0,-1.76388,108.09536,205.19891)">
						
            
						
						
          
					</g>
					
          
					<g id="g200" transform="matrix(1.76388,0,0,-1.76388,122.94545,219.08947)">
						
            
						
						
          
					</g>
					
        
				</g>
				
        
				<g id="g555">
					
          
					<g id="g204" transform="matrix(1.76388,0,0,-1.76388,146.74727,205.19891)">
						
            
						
						
          
					</g>
					
          
					<g id="g208" transform="matrix(1.76388,0,0,-1.76388,170.44676,209.80264)">
						
            
						
						
          
					</g>
					
          
					<g id="g212" transform="matrix(1.76388,0,0,-1.76388,190.21103,214.84734)">
						
            
						
						
          
					</g>
					
          
					<g id="g216" transform="matrix(1.76388,0,0,-1.76388,204.20742,199.45573)">
						
            
						
						
          
					</g>
					
          
					
					
          
					<g id="g222" transform="matrix(1.76388,0,0,-1.76388,217.35185,199.45573)">
						
            
						
						
          
					</g>
					
          
					<g id="g226" transform="matrix(1.76388,0,0,-1.76388,225.00886,205.19891)">
						
            
						
						
          
					</g>
					
          
					<g id="g230" transform="matrix(1.76388,0,0,-1.76388,237.1955,216.60592)">
						
            
						
						
          
					</g>
					
        
				</g>
				
      
			</g>
			
    
		</g>
		
  
	</g>
	

</svg>