<?xml version="1.0" encoding="iso-8859-1"?><!-- Created with Inkscape (http://www.inkscape.org/) --><svg height="80.995766mm" id="svg403" inkscape:version="0.92.4 (5da689c313, 2019-01-14)" sodipodi:docname="Faurecia.svg" version="1.1" viewBox="0 0 250 80.995766" width="250mm" xmlns="http://www.w3.org/2000/svg" xmlns:cc="http://creativecommons.org/ns#" xmlns:dc="http://purl.org/dc/elements/1.1/" xmlns:inkscape="http://www.inkscape.org/namespaces/inkscape" xmlns:rdf="http://www.w3.org/1999/02/22-rdf-syntax-ns#" xmlns:sodipodi="http://sodipodi.sourceforge.net/DTD/sodipodi-0.dtd" xmlns:svg="http://www.w3.org/2000/svg">
	
  
	<defs id="defs397"/>
	
  
	<sodipodi:namedview bordercolor="#666666" borderopacity="1.0" fit-margin-bottom="0" fit-margin-left="0" fit-margin-right="0" fit-margin-top="0" id="base" inkscape:current-layer="layer1" inkscape:cx="536.05939" inkscape:cy="125.97648" inkscape:document-units="mm" inkscape:pagecheckerboard="true" inkscape:pageopacity="0.0" inkscape:pageshadow="2" inkscape:window-height="1001" inkscape:window-maximized="1" inkscape:window-width="1920" inkscape:window-x="-9" inkscape:window-y="-9" inkscape:zoom="1.4" pagecolor="#ffffff" showgrid="false"/>
	
  
	<metadata id="metadata400">
		
    
		<rdf:RDF>
			
      
			<cc:Work rdf:about="">
				
        
				<dc:format>image/svg+xml</dc:format>
				
        
				<dc:type rdf:resource="http://purl.org/dc/dcmitype/StillImage"/>
				
        
				<dc:title/>
				
      
			</cc:Work>
			
    
		</rdf:RDF>
		
  
	</metadata>
	
  
	<g id="layer1" inkscape:groupmode="layer" inkscape:label="Calque 1" transform="translate(4.8635125,-140.44849)">
		
    
		<g id="g632">
			
      
			
			
      
			
			
      
			<g id="g592">
				
        
				<g id="g538">
					
          
					<g id="g168" transform="matrix(1.76388,0,0,-1.76388,33.636696,199.45573)">
						
            
						
						
          
					</g>
					
          
					<g id="g172" transform="matrix(1.76388,0,0,-1.76388,40.648102,205.19891)">
						
            
						
						
          
					</g>
					
          
					<g id="g176" transform="matrix(1.76388,0,0,-1.76388,55.653446,214.27761)">
						
            
						
						
          
					</g>
					
          
					<g id="g180" transform="matrix(1.76388,0,0,-1.76388,69.261781,205.19891)">
						
            
						<path animation_id="5" d="M 0,0 C 0,0.44 0,0.851 -0.015,1.276 H 1.467 C 1.467,0.968 1.452,0.631 1.452,0.293 h 0.029 c 0.499,0.69 1.423,1.218 2.596,1.218 2.273,0 3.754,-1.716 3.754,-4.121 0,-2.376 -1.584,-4.078 -3.783,-4.078 -1.217,0 -2.083,0.499 -2.611,1.159 0.015,-0.337 0.03,-1.143 0.03,-1.892 V -9.063 H 0 Z m 6.292,-2.552 c 0,1.599 -0.924,2.787 -2.464,2.787 -1.54,0 -2.464,-1.203 -2.464,-2.787 0,-1.657 0.909,-2.86 2.464,-2.86 1.54,0 2.464,1.203 2.464,2.86" id="path182" inkscape:connector-curvature="0" stroke="black" style="fill:#243a8d;fill-opacity:1;fill-rule:nonzero;"/>
						
          
					</g>
					
          
					<g id="g184" transform="matrix(1.76388,0,0,-1.76388,85.690577,199.45573)">
						
            
						
						
          
					</g>
					
          
					<g id="g188" transform="matrix(1.76388,0,0,-1.76388,92.701982,205.19891)">
						
            
						
						
          
					</g>
					
          
					<g id="g192" transform="matrix(1.76388,0,0,-1.76388,101.08394,199.45573)">
						
            
						
						
          
					</g>
					
          
					<g id="g196" transform="matrix(1.76388,0,0,-1.76388,108.09536,205.19891)">
						
            
						
						
          
					</g>
					
          
					<g id="g200" transform="matrix(1.76388,0,0,-1.76388,122.94545,219.08947)">
						
            
						
						
          
					</g>
					
        
				</g>
				
        
				<g id="g555">
					
          
					<g id="g204" transform="matrix(1.76388,0,0,-1.76388,146.74727,205.19891)">
						
            
						
						
          
					</g>
					
          
					<g id="g208" transform="matrix(1.76388,0,0,-1.76388,170.44676,209.80264)">
						
            
						
						
          
					</g>
					
          
					<g id="g212" transform="matrix(1.76388,0,0,-1.76388,190.21103,214.84734)">
						
            
						
						
          
					</g>
					
          
					<g id="g216" transform="matrix(1.76388,0,0,-1.76388,204.20742,199.45573)">
						
            
						
						
          
					</g>
					
          
					
					
          
					<g id="g222" transform="matrix(1.76388,0,0,-1.76388,217.35185,199.45573)">
						
            
						
						
          
					</g>
					
          
					<g id="g226" transform="matrix(1.76388,0,0,-1.76388,225.00886,205.19891)">
						
            
						
						
          
					</g>
					
          
					<g id="g230" transform="matrix(1.76388,0,0,-1.76388,237.1955,216.60592)">
						
            
						
						
          
					</g>
					
        
				</g>
				
      
			</g>
			
    
		</g>
		
  
	</g>
	

</svg>