<?xml version="1.0" encoding="iso-8859-1"?><!-- Created with Inkscape (http://www.inkscape.org/) by Marsupilami --><svg height="768" id="svg3890" style="display:inline" version="1.0" viewBox="0 0 72 72" width="768" xmlns="http://www.w3.org/2000/svg" xmlns:svg="http://www.w3.org/2000/svg">
	
  
	<defs id="defs3892"/>
	
  
	<g id="layer5" style="display:inline" transform="translate(1.2816317,1.2816317)">
		
    
		
		
    
		
		
    
		
		
    
		<path animation_id="3" d="M 34.65625,16.5 C 27.545001,16.5 21.3875,20.5775 18.40625,26.53125 L 21.125,31.1875 L 21.84375,22.71875 L 25.875,29.625 L 26.5625,21.1875 L 30.625,28.09375 L 31.34375,19.65625 L 35.375,26.5625 L 36.09375,18.09375 L 40.125,25.03125 L 40.75,17.53125 C 38.846249,16.855 36.7925,16.5 34.65625,16.5 z M 40.125,25.03125 L 39.40625,33.5 L 43.4375,40.375 L 44.125,31.9375 L 40.125,25.03125 z M 39.40625,33.5 L 35.375,26.59375 L 34.65625,35.03125 L 30.625,28.125 L 29.90625,36.5625 L 25.875,29.6875 L 25.15625,38.125 L 29.1875,45.03125 L 29.875,36.5625 L 33.9375,43.5 L 34.65625,35.0625 L 38.6875,41.9375 L 39.40625,33.5 z M 33.9375,43.5 L 33.21875,51.96875 L 29.1875,45.0625 L 28.625,51.78125 C 30.515001,52.446252 32.53875,52.8125 34.65625,52.8125 C 41.606251,52.8125 47.63625,48.92125 50.6875,43.1875 L 48.1875,38.84375 L 47.46875,47.3125 L 43.4375,40.40625 L 42.71875,48.875 L 38.6875,41.96875 L 37.96875,50.4375 L 33.9375,43.5 z M 48.1875,38.84375 L 48.875,30.375 L 44.875,23.5 L 44.15625,31.9375 L 48.1875,38.84375 z M 25.15625,38.125 L 21.125,31.21875 L 20.4375,39.6875 L 24.4375,46.5625 L 25.15625,38.125 z M 41.59375,17.875 L 44.875,23.46875 L 45.15625,19.84375 C 44.05125,19.05875 42.86375,18.4 41.59375,17.875 z M 49.4375,24.09375 L 48.90625,30.40625 L 52.6875,36.875 C 52.77624,36.146249 52.8125,35.4075 52.8125,34.65625 C 52.812501,30.72 51.565,27.06875 49.4375,24.09375 z M 16.5625,33.0625 C 16.517499,33.58375 16.5,34.1225 16.5,34.65625 C 16.500001,38.61875 17.7825,42.29625 19.9375,45.28125 L 20.40625,39.65625 L 16.5625,33.0625 z M 24.4375,46.59375 L 24.1875,49.5 C 25.097499,50.142501 26.07125,50.68625 27.09375,51.15625 L 24.4375,46.59375 z" id="path5000" stroke="black" style="fill:#2e6abd;fill-opacity:1;fill-rule:nonzero;;display:inline"/>
		
  
	</g>
	

</svg>