<?xml version="1.0" encoding="iso-8859-1"?><!-- Created with Inkscape (http://www.inkscape.org/) --><svg height="239.17322" id="svg11878" version="1.1" width="715.74799" xmlns="http://www.w3.org/2000/svg" xmlns:cc="http://creativecommons.org/ns#" xmlns:dc="http://purl.org/dc/elements/1.1/" xmlns:rdf="http://www.w3.org/1999/02/22-rdf-syntax-ns#" xmlns:svg="http://www.w3.org/2000/svg">
	
  
	<defs id="defs11880">
		
    
		<clipPath id="clipPath10082">
			
      
			
			
    
		</clipPath>
		
    
		<clipPath id="clipPath10070">
			
      
			
			
    
		</clipPath>
		
    
		<clipPath id="clipPath10058">
			
      
			
			
    
		</clipPath>
		
  
	</defs>
	
  
	<metadata id="metadata11883">
		
    
		<rdf:RDF>
			
      
			<cc:Work rdf:about="">
				
        
				<dc:format>image/svg+xml</dc:format>
				
        
				<dc:type rdf:resource="http://purl.org/dc/dcmitype/StillImage"/>
				
        
				<dc:title/>
				
      
			</cc:Work>
			
    
		</rdf:RDF>
		
  
	</metadata>
	
  
	<g id="layer1" transform="translate(-52.115416,-384.03019)">
		
    
		<g id="g11927" transform="matrix(5.973901,0,0,5.973901,-5478.5701,-4025.0546)">
			
      
			
			
      
			<g id="g10054" transform="matrix(1.25,0,0,-1.25,325.05616,803.64269)">
				
        
				<g clip-path="url(#clipPath10058)" id="g10056">
					
          
					
					
        
				</g>
				
      
			</g>
			
      
			<path animation_id="5" d="m 997.41866,761.86769 -17.085,10e-4 -1.72875,8.155 17.19375,0.002 c 10e-4,0.0288 -1.56875,7.46375 -1.56875,7.46375 l -31.86125,-0.009 8.11875,-38.24 31.72379,0 -1.6225,7.51615 -17.04754,-0.02 -1.645,7.635 17.135,-10e-4 c 0,0 -1.5675,7.49625 -1.6125,7.49625" id="path10064" stroke="black" style="fill:#ce0039;fill-opacity:1;fill-rule:nonzero;"/>
			
      
			<g id="g10066" transform="matrix(1.25,0,0,-1.25,325.05616,803.64269)">
				
        
				<g clip-path="url(#clipPath10070)" id="g10068">
					
          
					
					
        
				</g>
				
      
			</g>
			
      
			
			
      
			<g id="g10078" transform="matrix(1.25,0,0,-1.25,325.05616,803.64269)">
				
        
				<g clip-path="url(#clipPath10082)" id="g10080">
					
          
					
					
        
				</g>
				
      
			</g>
			
    
		</g>
		
  
	</g>
	

</svg>