<?xml version="1.0" encoding="iso-8859-1"?><svg height="246.991" id="svg7594" version="1.1" viewBox="0 0 533.49201 246.99101" width="533.492" xmlns="http://www.w3.org/2000/svg" xmlns:cc="http://creativecommons.org/ns#" xmlns:dc="http://purl.org/dc/elements/1.1/" xmlns:rdf="http://www.w3.org/1999/02/22-rdf-syntax-ns#" xmlns:svg="http://www.w3.org/2000/svg">
	
  
	<defs id="defs7596">
		
    
		<clipPath clipPathUnits="userSpaceOnUse" id="clipPath6914">
			
      
			
			
    
		</clipPath>
		
    
		<clipPath clipPathUnits="userSpaceOnUse" id="clipPath6926">
			
      
			
			
    
		</clipPath>
		
    
		<clipPath clipPathUnits="userSpaceOnUse" id="clipPath6934">
			
      
			
			
    
		</clipPath>
		
  
	</defs>
	
  
	<metadata id="metadata7599">
		
    
		<rdf:RDF>
			
      
			<cc:Work rdf:about="">
				
        
				<dc:format>image/svg+xml</dc:format>
				
        
				<dc:type rdf:resource="http://purl.org/dc/dcmitype/StillImage"/>
				
        
				<dc:title/>
				
      
			</cc:Work>
			
    
		</rdf:RDF>
		
  
	</metadata>
	
  
	<g id="layer1" transform="translate(0,-805.37116)">
		
    
		<g id="g6908" transform="matrix(7.5,0,0,-7.5,0.9985,1051.3622)">
			
      
			<g id="g6910">
				
        
				<g clip-path="url(#clipPath6914)" id="g6912">
					
          
					<g id="g6918"/>
					
          
					<g id="g6920">
						
            
						<g id="g6922">
							
              
							<g clip-path="url(#clipPath6926)" id="g6924">
								
                
								<g id="g6930">
									
                  
									<g clip-path="url(#clipPath6934)" id="g6932">
										
                    
										<g id="g6938" transform="translate(70.661,7.9304)">
											
                      
											
											
                    
										</g>
										
                    
										<g id="g6942" transform="translate(5.1752,2.9099)">
											
                      
											
											
                    
										</g>
										
                    
										<g id="g6946" transform="translate(9.7851,1.1003)">
											
                      
											
											
                    
										</g>
										
                    
										<g id="g6950" transform="translate(17.9804,0.9645)">
											
                      
											
											
                    
										</g>
										
                    
										
										
                    
										<g id="g6956" transform="translate(22.7802,0.6296)">
											
                      
											
											
                    
										</g>
										
                    
										<g id="g6960" transform="translate(29.3056,0.0046)">
											
                      
											
											
                    
										</g>
										
                    
										<g id="g6964" transform="translate(35.5458,4.7897)">
											
                      
											
											
                    
										</g>
										
                    
										<g id="g6968" transform="translate(39.0155,0.8698)">
											
                      
											
											
                    
										</g>
										
                    
										<g id="g6972" transform="translate(42.8603,0.6452)">
											
                      
											
											
                    
										</g>
										
                    
										<g id="g6976" transform="translate(47.5653,3.2155)">
											
                      
											
											
                    
										</g>
										
                    
										<g id="g6980" transform="translate(52.3554,3.195)">
											
                      
											
											
                    
										</g>
										
                    
										<g id="g6984" transform="translate(57.3759,0.6452)">
											
                      
											
											
                    
										</g>
										
                    
										<g id="g6988" transform="translate(61.5155,5.6804)">
											
                      
											
											
                    
										</g>
										
                    
										<g id="g6992" transform="translate(67.7108,3.2155)">
											
                      
											
											
                    
										</g>
										
                    
										<g id="g6996" transform="translate(0.0351,32.4406)">
											
                      
											
											
                    
										</g>
										
                    
										
										
                    
										<g id="g7002" transform="translate(15.4652,30.5954)">
											
                      
											
											
                    
										</g>
										
                    
										<g id="g7006" transform="translate(24.5854,30.3703)">
											
                      
											
											
                    
										</g>
										
                    
										<g id="g7010" transform="translate(27.2655,32.4406)">
											
                      
											
											
                    
										</g>
										
                    
										<g id="g7014" transform="translate(36.3505,32.4406)">
											
                      
											
											
                    
										</g>
										
                    
										<g id="g7018" transform="translate(43.1806,32.4406)">
											
                      
											
											
                    
										</g>
										
                    
										<g id="g7022" transform="translate(15.4652,19.3454)">
											
                      
											
											
                    
										</g>
										
                    
										<g id="g7026" transform="translate(24.5756,19.1252)">
											
                      
											<path animation_id="26" d="M 0,0 C -0.235,0.315 -0.535,0.545 -0.91,0.69 -1.285,0.835 -1.65,0.905 -2.005,0.905 -2.46,0.905 -2.88,0.82 -3.25,0.655 -3.625,0.49 -3.945,0.26 -4.215,-0.03 c -0.27,-0.29 -0.48,-0.63 -0.625,-1.02 -0.145,-0.39 -0.22,-0.81 -0.22,-1.265 0,-0.479 0.07,-0.92 0.21,-1.315 0.14,-0.395 0.345,-0.74 0.605,-1.025 0.26,-0.285 0.575,-0.505 0.94,-0.665 0.365,-0.155 0.775,-0.235 1.235,-0.235 0.475,0 0.895,0.095 1.26,0.28 0.365,0.185 0.66,0.43 0.885,0.74 l 1.26,-0.88 C 0.945,-5.905 0.465,-6.28 -0.1,-6.55 c -0.565,-0.27 -1.225,-0.405 -1.985,-0.405 -0.69,0 -1.325,0.115 -1.9,0.34 -0.58,0.23 -1.075,0.545 -1.49,0.955 -0.415,0.41 -0.74,0.9 -0.975,1.465 -0.235,0.565 -0.35,1.195 -0.35,1.88 0,0.705 0.125,1.34 0.37,1.905 0.245,0.565 0.58,1.05 1.01,1.445 0.43,0.395 0.935,0.705 1.515,0.92 0.58,0.215 1.215,0.325 1.895,0.325 0.285,0 0.58,-0.025 0.885,-0.08 C -0.82,2.145 -0.52,2.065 -0.24,1.95 0.045,1.84 0.31,1.7 0.56,1.535 0.81,1.37 1.02,1.17 1.195,0.94 L 0,0 Z" id="path7028" stroke="black" style="fill:#006826;fill-opacity:1;fill-rule:nonzero;"/>
											
                    
										</g>
										
                    
										<g id="g7030" transform="translate(27.2655,21.1852)">
											
                      
											
											
                    
										</g>
										
                    
										<g id="g7034" transform="translate(36.3505,21.1852)">
											
                      
											
											
                    
										</g>
										
                    
										
										
                    
										<g id="g7040" transform="translate(46.7909,21.1852)">
											
                      
											
											
                    
										</g>
										
                    
										<g id="g7044" transform="translate(54.5858,21.1852)">
											
                      
											
											
                    
										</g>
										
                    
										<g id="g7048" transform="translate(63.9159,13.8102)">
											
                      
											
											
                    
										</g>
										
                    
										<g id="g7052" transform="translate(58.5556,30.5256)">
											
                      
											
											
                    
										</g>
										
                  
									</g>
									
                
								</g>
								
              
							</g>
							
            
						</g>
						
          
					</g>
					
        
				</g>
				
      
			</g>
			
    
		</g>
		
  
	</g>
	

</svg>