<?xml version="1.0" encoding="iso-8859-1"?><svg height="246.991" id="svg7594" version="1.1" viewBox="0 0 533.49201 246.99101" width="533.492" xmlns="http://www.w3.org/2000/svg" xmlns:cc="http://creativecommons.org/ns#" xmlns:dc="http://purl.org/dc/elements/1.1/" xmlns:rdf="http://www.w3.org/1999/02/22-rdf-syntax-ns#" xmlns:svg="http://www.w3.org/2000/svg">
	
  
	<defs id="defs7596">
		
    
		<clipPath clipPathUnits="userSpaceOnUse" id="clipPath6914">
			
      
			
			
    
		</clipPath>
		
    
		<clipPath clipPathUnits="userSpaceOnUse" id="clipPath6926">
			
      
			
			
    
		</clipPath>
		
    
		<clipPath clipPathUnits="userSpaceOnUse" id="clipPath6934">
			
      
			
			
    
		</clipPath>
		
  
	</defs>
	
  
	<metadata id="metadata7599">
		
    
		<rdf:RDF>
			
      
			<cc:Work rdf:about="">
				
        
				<dc:format>image/svg+xml</dc:format>
				
        
				<dc:type rdf:resource="http://purl.org/dc/dcmitype/StillImage"/>
				
        
				<dc:title/>
				
      
			</cc:Work>
			
    
		</rdf:RDF>
		
  
	</metadata>
	
  
	<g id="layer1" transform="translate(0,-805.37116)">
		
    
		<g id="g6908" transform="matrix(7.5,0,0,-7.5,0.9985,1051.3622)">
			
      
			<g id="g6910">
				
        
				<g clip-path="url(#clipPath6914)" id="g6912">
					
          
					<g id="g6918"/>
					
          
					<g id="g6920">
						
            
						<g id="g6922">
							
              
							<g clip-path="url(#clipPath6926)" id="g6924">
								
                
								<g id="g6930">
									
                  
									<g clip-path="url(#clipPath6934)" id="g6932">
										
                    
										<g id="g6938" transform="translate(70.661,7.9304)">
											
                      
											
											
                    
										</g>
										
                    
										<g id="g6942" transform="translate(5.1752,2.9099)">
											
                      
											<path animation_id="4" d="M 0,0 C 0,0.325 -0.05,0.63 -0.155,0.92 -0.26,1.21 -0.41,1.471 -0.61,1.69 -0.81,1.91 -1.05,2.085 -1.335,2.215 -1.62,2.346 -1.94,2.41 -2.295,2.41 -2.65,2.41 -2.97,2.346 -3.255,2.215 -3.54,2.085 -3.78,1.91 -3.98,1.69 -4.18,1.471 -4.33,1.215 -4.435,0.92 -4.54,0.63 -4.59,0.32 -4.59,0 c 0,-0.325 0.05,-0.63 0.155,-0.92 0.105,-0.29 0.255,-0.545 0.455,-0.765 0.2,-0.22 0.44,-0.395 0.725,-0.525 0.285,-0.13 0.605,-0.195 0.96,-0.195 0.355,0 0.675,0.065 0.96,0.195 0.285,0.13 0.525,0.305 0.725,0.525 0.2,0.22 0.35,0.475 0.455,0.765 C -0.05,-0.63 0,-0.325 0,0 m 0.595,0 c 0,-0.42 -0.075,-0.81 -0.22,-1.165 -0.145,-0.355 -0.35,-0.66 -0.605,-0.92 -0.255,-0.26 -0.565,-0.46 -0.915,-0.604 -0.35,-0.146 -0.735,-0.221 -1.145,-0.221 -0.41,0 -0.795,0.075 -1.145,0.221 -0.35,0.144 -0.655,0.349 -0.915,0.604 -0.26,0.255 -0.46,0.565 -0.605,0.92 -0.145,0.355 -0.22,0.745 -0.22,1.165 0,0.42 0.075,0.811 0.22,1.165 0.145,0.356 0.35,0.66 0.605,0.92 0.255,0.261 0.565,0.46 0.915,0.605 0.35,0.145 0.735,0.22 1.145,0.22 0.41,0 0.795,-0.075 1.145,-0.22 C -0.795,2.545 -0.49,2.34 -0.23,2.085 0.03,1.83 0.23,1.521 0.375,1.165 0.52,0.811 0.595,0.425 0.595,0" id="path6944" stroke="black" style="fill:#848483;fill-opacity:1;fill-rule:nonzero;"/>
											
                    
										</g>
										
                    
										<g id="g6946" transform="translate(9.7851,1.1003)">
											
                      
											
											
                    
										</g>
										
                    
										<g id="g6950" transform="translate(17.9804,0.9645)">
											
                      
											
											
                    
										</g>
										
                    
										
										
                    
										<g id="g6956" transform="translate(22.7802,0.6296)">
											
                      
											
											
                    
										</g>
										
                    
										<g id="g6960" transform="translate(29.3056,0.0046)">
											
                      
											
											
                    
										</g>
										
                    
										<g id="g6964" transform="translate(35.5458,4.7897)">
											
                      
											
											
                    
										</g>
										
                    
										<g id="g6968" transform="translate(39.0155,0.8698)">
											
                      
											
											
                    
										</g>
										
                    
										<g id="g6972" transform="translate(42.8603,0.6452)">
											
                      
											
											
                    
										</g>
										
                    
										<g id="g6976" transform="translate(47.5653,3.2155)">
											
                      
											
											
                    
										</g>
										
                    
										<g id="g6980" transform="translate(52.3554,3.195)">
											
                      
											
											
                    
										</g>
										
                    
										<g id="g6984" transform="translate(57.3759,0.6452)">
											
                      
											
											
                    
										</g>
										
                    
										<g id="g6988" transform="translate(61.5155,5.6804)">
											
                      
											
											
                    
										</g>
										
                    
										<g id="g6992" transform="translate(67.7108,3.2155)">
											
                      
											
											
                    
										</g>
										
                    
										<g id="g6996" transform="translate(0.0351,32.4406)">
											
                      
											
											
                    
										</g>
										
                    
										
										
                    
										<g id="g7002" transform="translate(15.4652,30.5954)">
											
                      
											
											
                    
										</g>
										
                    
										<g id="g7006" transform="translate(24.5854,30.3703)">
											
                      
											
											
                    
										</g>
										
                    
										<g id="g7010" transform="translate(27.2655,32.4406)">
											
                      
											
											
                    
										</g>
										
                    
										<g id="g7014" transform="translate(36.3505,32.4406)">
											
                      
											
											
                    
										</g>
										
                    
										<g id="g7018" transform="translate(43.1806,32.4406)">
											
                      
											
											
                    
										</g>
										
                    
										<g id="g7022" transform="translate(15.4652,19.3454)">
											
                      
											
											
                    
										</g>
										
                    
										<g id="g7026" transform="translate(24.5756,19.1252)">
											
                      
											
											
                    
										</g>
										
                    
										<g id="g7030" transform="translate(27.2655,21.1852)">
											
                      
											
											
                    
										</g>
										
                    
										<g id="g7034" transform="translate(36.3505,21.1852)">
											
                      
											
											
                    
										</g>
										
                    
										
										
                    
										<g id="g7040" transform="translate(46.7909,21.1852)">
											
                      
											
											
                    
										</g>
										
                    
										<g id="g7044" transform="translate(54.5858,21.1852)">
											
                      
											
											
                    
										</g>
										
                    
										<g id="g7048" transform="translate(63.9159,13.8102)">
											
                      
											
											
                    
										</g>
										
                    
										<g id="g7052" transform="translate(58.5556,30.5256)">
											
                      
											
											
                    
										</g>
										
                  
									</g>
									
                
								</g>
								
              
							</g>
							
            
						</g>
						
          
					</g>
					
        
				</g>
				
      
			</g>
			
    
		</g>
		
  
	</g>
	

</svg>