<?xml version="1.0" encoding="iso-8859-1"?><svg height="246.991" id="svg7594" version="1.1" viewBox="0 0 533.49201 246.99101" width="533.492" xmlns="http://www.w3.org/2000/svg" xmlns:cc="http://creativecommons.org/ns#" xmlns:dc="http://purl.org/dc/elements/1.1/" xmlns:rdf="http://www.w3.org/1999/02/22-rdf-syntax-ns#" xmlns:svg="http://www.w3.org/2000/svg">
	
  
	<defs id="defs7596">
		
    
		<clipPath clipPathUnits="userSpaceOnUse" id="clipPath6914">
			
      
			
			
    
		</clipPath>
		
    
		<clipPath clipPathUnits="userSpaceOnUse" id="clipPath6926">
			
      
			
			
    
		</clipPath>
		
    
		<clipPath clipPathUnits="userSpaceOnUse" id="clipPath6934">
			
      
			
			
    
		</clipPath>
		
  
	</defs>
	
  
	<metadata id="metadata7599">
		
    
		<rdf:RDF>
			
      
			<cc:Work rdf:about="">
				
        
				<dc:format>image/svg+xml</dc:format>
				
        
				<dc:type rdf:resource="http://purl.org/dc/dcmitype/StillImage"/>
				
        
				<dc:title/>
				
      
			</cc:Work>
			
    
		</rdf:RDF>
		
  
	</metadata>
	
  
	<g id="layer1" transform="translate(0,-805.37116)">
		
    
		<g id="g6908" transform="matrix(7.5,0,0,-7.5,0.9985,1051.3622)">
			
      
			<g id="g6910">
				
        
				<g clip-path="url(#clipPath6914)" id="g6912">
					
          
					<g id="g6918"/>
					
          
					<g id="g6920">
						
            
						<g id="g6922">
							
              
							<g clip-path="url(#clipPath6926)" id="g6924">
								
                
								<g id="g6930">
									
                  
									<g clip-path="url(#clipPath6934)" id="g6932">
										
                    
										<g id="g6938" transform="translate(70.661,7.9304)">
											
                      
											
											
                    
										</g>
										
                    
										<g id="g6942" transform="translate(5.1752,2.9099)">
											
                      
											
											
                    
										</g>
										
                    
										<g id="g6946" transform="translate(9.7851,1.1003)">
											
                      
											
											
                    
										</g>
										
                    
										<g id="g6950" transform="translate(17.9804,0.9645)">
											
                      
											
											
                    
										</g>
										
                    
										
										
                    
										<g id="g6956" transform="translate(22.7802,0.6296)">
											
                      
											<path animation_id="8" d="M 0,0 1.045,0 C 1.25,0 1.44,0.021 1.625,0.061 1.81,0.101 1.97,0.16 2.11,0.25 c 0.14,0.085 0.25,0.2 0.33,0.335 0.085,0.141 0.125,0.306 0.125,0.495 0,0.365 -0.125,0.636 -0.37,0.816 -0.25,0.179 -0.6,0.269 -1.05,0.269 l -1.15,0 L -0.005,0 0,0 Z m 0,2.625 1.135,0 c 0.135,0 0.27,0.016 0.41,0.046 C 1.685,2.7 1.81,2.756 1.925,2.83 2.04,2.905 2.13,3.006 2.205,3.131 2.275,3.256 2.31,3.41 2.31,3.591 2.31,3.766 2.275,3.915 2.205,4.04 2.135,4.16 2.04,4.266 1.92,4.341 1.8,4.421 1.66,4.476 1.5,4.511 1.34,4.546 1.165,4.561 0.985,4.561 l -0.975,0 0,-1.936 -0.01,0 z m -0.565,2.426 1.65,0 C 1.295,5.051 1.505,5.03 1.72,4.985 1.935,4.94 2.125,4.865 2.295,4.761 2.465,4.655 2.6,4.511 2.71,4.325 2.815,4.146 2.87,3.915 2.87,3.636 2.87,3.346 2.78,3.091 2.605,2.875 2.425,2.66 2.19,2.516 1.89,2.45 l 0,-0.014 C 2.25,2.396 2.545,2.256 2.785,2.016 3.02,1.78 3.14,1.455 3.14,1.051 3.14,0.82 3.09,0.61 2.995,0.421 2.9,0.23 2.76,0.07 2.585,-0.064 2.41,-0.199 2.19,-0.3 1.94,-0.375 1.685,-0.449 1.4,-0.484 1.08,-0.484 l -1.64,0 0,5.535 -0.005,0 z" id="path6958" stroke="black" style="fill:#848483;fill-opacity:1;fill-rule:nonzero;"/>
											
                    
										</g>
										
                    
										<g id="g6960" transform="translate(29.3056,0.0046)">
											
                      
											
											
                    
										</g>
										
                    
										<g id="g6964" transform="translate(35.5458,4.7897)">
											
                      
											
											
                    
										</g>
										
                    
										<g id="g6968" transform="translate(39.0155,0.8698)">
											
                      
											
											
                    
										</g>
										
                    
										<g id="g6972" transform="translate(42.8603,0.6452)">
											
                      
											
											
                    
										</g>
										
                    
										<g id="g6976" transform="translate(47.5653,3.2155)">
											
                      
											
											
                    
										</g>
										
                    
										<g id="g6980" transform="translate(52.3554,3.195)">
											
                      
											
											
                    
										</g>
										
                    
										<g id="g6984" transform="translate(57.3759,0.6452)">
											
                      
											
											
                    
										</g>
										
                    
										<g id="g6988" transform="translate(61.5155,5.6804)">
											
                      
											
											
                    
										</g>
										
                    
										<g id="g6992" transform="translate(67.7108,3.2155)">
											
                      
											
											
                    
										</g>
										
                    
										<g id="g6996" transform="translate(0.0351,32.4406)">
											
                      
											
											
                    
										</g>
										
                    
										
										
                    
										<g id="g7002" transform="translate(15.4652,30.5954)">
											
                      
											
											
                    
										</g>
										
                    
										<g id="g7006" transform="translate(24.5854,30.3703)">
											
                      
											
											
                    
										</g>
										
                    
										<g id="g7010" transform="translate(27.2655,32.4406)">
											
                      
											
											
                    
										</g>
										
                    
										<g id="g7014" transform="translate(36.3505,32.4406)">
											
                      
											
											
                    
										</g>
										
                    
										<g id="g7018" transform="translate(43.1806,32.4406)">
											
                      
											
											
                    
										</g>
										
                    
										<g id="g7022" transform="translate(15.4652,19.3454)">
											
                      
											
											
                    
										</g>
										
                    
										<g id="g7026" transform="translate(24.5756,19.1252)">
											
                      
											
											
                    
										</g>
										
                    
										<g id="g7030" transform="translate(27.2655,21.1852)">
											
                      
											
											
                    
										</g>
										
                    
										<g id="g7034" transform="translate(36.3505,21.1852)">
											
                      
											
											
                    
										</g>
										
                    
										
										
                    
										<g id="g7040" transform="translate(46.7909,21.1852)">
											
                      
											
											
                    
										</g>
										
                    
										<g id="g7044" transform="translate(54.5858,21.1852)">
											
                      
											
											
                    
										</g>
										
                    
										<g id="g7048" transform="translate(63.9159,13.8102)">
											
                      
											
											
                    
										</g>
										
                    
										<g id="g7052" transform="translate(58.5556,30.5256)">
											
                      
											
											
                    
										</g>
										
                  
									</g>
									
                
								</g>
								
              
							</g>
							
            
						</g>
						
          
					</g>
					
        
				</g>
				
      
			</g>
			
    
		</g>
		
  
	</g>
	

</svg>