<?xml version="1.0" encoding="iso-8859-1"?><svg height="279.89999" id="svg3836" version="1.1" viewBox="0 0 1587.402 279.89999" width="1587.402" xml:space="preserve" xmlns="http://www.w3.org/2000/svg" xmlns:cc="http://creativecommons.org/ns#" xmlns:dc="http://purl.org/dc/elements/1.1/" xmlns:rdf="http://www.w3.org/1999/02/22-rdf-syntax-ns#" xmlns:svg="http://www.w3.org/2000/svg">
	<metadata id="metadata3842">
		<rdf:RDF>
			<cc:Work rdf:about="">
				<dc:format>image/svg+xml</dc:format>
				<dc:type rdf:resource="http://purl.org/dc/dcmitype/StillImage"/>
				<dc:title/>
			</cc:Work>
		</rdf:RDF>
	</metadata>
	<defs id="defs3840">
		<clipPath clipPathUnits="userSpaceOnUse" id="clipPath3850">
			
		</clipPath>
		<clipPath clipPathUnits="userSpaceOnUse" id="clipPath3864">
			
		</clipPath>
		<clipPath clipPathUnits="userSpaceOnUse" id="clipPath3888">
			
		</clipPath>
		<clipPath clipPathUnits="userSpaceOnUse" id="clipPath3916">
			
		</clipPath>
		<clipPath clipPathUnits="userSpaceOnUse" id="clipPath3976">
			
		</clipPath>
	</defs>
	<g id="g3844" transform="matrix(1.25,0,0,-1.25,-175.06937,979.82362)">
		<g id="g3920" transform="matrix(8,0,0,8,152.6811,630.0749)">
			
		</g>
		<g id="g3924" transform="matrix(8,0,0,8,149.0075,630.0749)">
			
		</g>
		<g id="g3928" transform="translate(295.9606,63.6757)">
			<path animation_id="7" d="m 0,0 -0.119,-0.037 c -0.086,-0.018 -0.205,-0.027 -0.358,-0.027 -0.172,0 -0.294,0.009 -0.367,0.027 -0.049,0.013 -0.086,0.024 -0.11,0.037 l 0,0.863 0.11,0.027 c 0.036,0.012 0.085,0.022 0.146,0.028 0.062,0.006 0.135,0.009 0.221,0.009 0.079,0 0.148,-0.003 0.207,-0.009 0.058,-0.006 0.108,-0.016 0.151,-0.028 L 0,0.863 0,0 Z m -94.253,6.544 0.05,-0.17 c 0.015,-0.058 0.023,-0.121 0.023,-0.188 0,-0.141 -0.024,-0.276 -0.073,-0.404 l -2.791,0 0,-2.129 2.331,0 0.051,-0.175 c 0.015,-0.061 0.023,-0.125 0.023,-0.192 0,-0.129 -0.025,-0.257 -0.074,-0.386 l -2.331,0 0,-2.202 2.882,0 0.051,-0.179 c 0.015,-0.058 0.022,-0.121 0.022,-0.188 0,-0.129 -0.024,-0.261 -0.073,-0.395 l -3.818,0 0,6.608 3.727,0 z m 2.918,-2.368 c -0.086,0.146 -0.161,0.292 -0.225,0.436 l -0.17,0.381 c -0.055,0.128 -0.104,0.251 -0.146,0.367 l -0.01,-0.423 c 0.013,-0.134 0.021,-0.296 0.028,-0.486 0.006,-0.189 0.009,-0.4 0.009,-0.633 l 0,-3.818 -0.11,-0.037 c -0.074,-0.018 -0.184,-0.027 -0.33,-0.027 -0.153,0 -0.261,0.009 -0.322,0.027 -0.043,0.013 -0.076,0.024 -0.1,0.037 l 0,6.48 0.137,0.027 c 0.049,0.012 0.109,0.021 0.179,0.028 0.07,0.006 0.151,0.009 0.243,0.009 0.092,0 0.171,-0.003 0.238,-0.009 0.068,-0.007 0.126,-0.016 0.175,-0.028 l 0.137,-0.027 2.286,-4.14 c 0.085,-0.153 0.162,-0.301 0.229,-0.445 l 0.175,-0.39 0.165,-0.385 -0.009,0.45 c -0.019,0.275 -0.028,0.636 -0.028,1.082 l 0,3.828 0.11,0.027 c 0.038,0.012 0.081,0.021 0.134,0.028 0.051,0.006 0.117,0.009 0.197,0.009 0.073,0 0.138,-0.003 0.192,-0.009 0.056,-0.007 0.098,-0.016 0.129,-0.028 l 0.101,-0.027 0,-6.48 -0.138,-0.037 c -0.092,-0.018 -0.226,-0.027 -0.404,-0.027 -0.189,0 -0.33,0.009 -0.422,0.027 L -89.022,0 -91.335,4.176 Z m 9.196,2.368 0.037,-0.11 c 0.012,-0.037 0.021,-0.08 0.027,-0.129 0.006,-0.049 0.009,-0.101 0.009,-0.156 0,-0.062 -0.003,-0.116 -0.009,-0.165 -0.006,-0.049 -0.015,-0.092 -0.027,-0.129 l -0.037,-0.119 -1.707,0 0,-5.736 -0.119,-0.037 c -0.086,-0.018 -0.202,-0.027 -0.35,-0.027 -0.164,0 -0.284,0.009 -0.357,0.027 l -0.11,0.037 0,5.736 -1.753,0 -0.037,0.11 c -0.012,0.037 -0.021,0.078 -0.028,0.124 -0.005,0.046 -0.009,0.102 -0.009,0.17 0,0.055 0.004,0.107 0.009,0.156 0.007,0.049 0.016,0.092 0.028,0.128 l 0.037,0.12 4.396,0 z m 1.111,-1.79 c 0,0.281 0.045,0.538 0.137,0.771 0.092,0.232 0.231,0.431 0.418,0.596 0.186,0.166 0.42,0.293 0.702,0.381 0.281,0.089 0.608,0.133 0.981,0.133 0.276,0 0.524,-0.013 0.744,-0.041 0.22,-0.027 0.41,-0.056 0.569,-0.087 0.184,-0.037 0.346,-0.08 0.487,-0.129 0,-0.134 -0.022,-0.267 -0.064,-0.399 -0.044,-0.132 -0.108,-0.243 -0.194,-0.335 -0.122,0.037 -0.26,0.071 -0.412,0.101 -0.129,0.024 -0.279,0.047 -0.45,0.069 -0.171,0.022 -0.355,0.032 -0.551,0.032 -0.489,0 -0.852,-0.09 -1.087,-0.271 -0.236,-0.18 -0.353,-0.439 -0.353,-0.775 0,-0.178 0.045,-0.324 0.137,-0.441 0.092,-0.116 0.212,-0.216 0.363,-0.298 0.15,-0.083 0.324,-0.154 0.523,-0.216 l 0.619,-0.192 c 0.214,-0.074 0.424,-0.158 0.629,-0.253 0.204,-0.095 0.388,-0.212 0.55,-0.353 0.163,-0.141 0.293,-0.315 0.391,-0.523 0.097,-0.208 0.146,-0.462 0.146,-0.762 0,-0.618 -0.194,-1.092 -0.582,-1.423 -0.389,-0.33 -0.963,-0.495 -1.721,-0.495 -0.306,0 -0.582,0.02 -0.826,0.059 -0.245,0.04 -0.453,0.084 -0.624,0.134 -0.202,0.055 -0.38,0.119 -0.532,0.193 -0.007,0.121 0.011,0.25 0.054,0.385 0.043,0.134 0.098,0.254 0.166,0.358 0.17,-0.055 0.352,-0.104 0.541,-0.147 0.159,-0.037 0.341,-0.069 0.546,-0.096 0.205,-0.028 0.414,-0.042 0.629,-0.042 0.93,0 1.395,0.349 1.395,1.047 0,0.164 -0.031,0.304 -0.092,0.417 -0.061,0.114 -0.144,0.211 -0.248,0.294 -0.104,0.082 -0.226,0.153 -0.367,0.211 -0.141,0.058 -0.29,0.111 -0.449,0.161 l -0.744,0.243 c -0.257,0.082 -0.491,0.191 -0.702,0.325 -0.211,0.135 -0.385,0.31 -0.524,0.524 -0.137,0.214 -0.205,0.495 -0.205,0.844 M -74.403,0 -74.522,-0.037 c -0.073,-0.018 -0.187,-0.027 -0.339,-0.027 -0.171,0 -0.294,0.009 -0.367,0.027 L -75.339,0 l 0,6.544 2.396,0 c 0.299,0 0.572,-0.049 0.816,-0.147 0.245,-0.098 0.453,-0.236 0.624,-0.413 0.172,-0.178 0.303,-0.391 0.395,-0.638 0.092,-0.248 0.138,-0.522 0.138,-0.822 0,-0.299 -0.046,-0.571 -0.138,-0.816 -0.092,-0.245 -0.223,-0.456 -0.395,-0.633 -0.171,-0.178 -0.379,-0.316 -0.624,-0.414 -0.244,-0.097 -0.517,-0.147 -0.816,-0.147 l -1.46,0 0,-2.514 z m 1.34,3.295 c 0.368,0 0.646,0.108 0.835,0.325 0.19,0.217 0.285,0.519 0.285,0.904 0,0.392 -0.095,0.697 -0.285,0.914 -0.189,0.217 -0.467,0.325 -0.835,0.325 l -1.34,0 0,-2.468 1.34,0 z m 4.755,3.185 0.155,0.027 c 0.049,0.012 0.106,0.021 0.17,0.028 0.064,0.006 0.139,0.009 0.225,0.009 0.086,0 0.162,-0.003 0.229,-0.009 0.068,-0.007 0.126,-0.016 0.175,-0.028 L -67.207,6.48 -64.903,0 -65.032,-0.037 c -0.086,-0.018 -0.211,-0.027 -0.376,-0.027 -0.16,0 -0.276,0.009 -0.349,0.027 l -0.11,0.037 -0.569,1.615 -2.717,0 L -69.731,0 -69.85,-0.037 c -0.074,-0.018 -0.184,-0.027 -0.331,-0.027 -0.141,0 -0.247,0.009 -0.321,0.027 l -0.11,0.037 2.304,6.48 z m 0.504,-0.955 -0.064,-0.239 -0.073,-0.261 -0.101,-0.326 -0.845,-2.322 2.184,0 -0.835,2.322 -0.11,0.331 -0.073,0.256 c -0.024,0.086 -0.043,0.166 -0.055,0.239 l -0.028,0 z m 5.543,-1.349 c -0.085,0.146 -0.16,0.292 -0.225,0.436 l -0.17,0.381 c -0.054,0.128 -0.103,0.251 -0.146,0.367 l -0.009,-0.423 c 0.012,-0.134 0.021,-0.296 0.027,-0.486 0.006,-0.189 0.009,-0.4 0.009,-0.633 l 0,-3.818 -0.11,-0.037 c -0.073,-0.018 -0.184,-0.027 -0.33,-0.027 -0.153,0 -0.26,0.009 -0.321,0.027 -0.043,0.013 -0.077,0.024 -0.101,0.037 l 0,6.48 0.137,0.027 c 0.049,0.012 0.109,0.021 0.179,0.028 0.071,0.006 0.152,0.009 0.244,0.009 0.091,0 0.171,-0.003 0.238,-0.009 0.068,-0.007 0.125,-0.016 0.174,-0.028 l 0.138,-0.027 2.285,-4.14 c 0.086,-0.153 0.163,-0.301 0.23,-0.445 l 0.174,-0.39 0.165,-0.385 -0.009,0.45 c -0.018,0.275 -0.027,0.636 -0.027,1.082 l 0,3.828 0.11,0.027 c 0.037,0.012 0.081,0.021 0.133,0.028 0.052,0.006 0.118,0.009 0.198,0.009 0.073,0 0.137,-0.003 0.192,-0.009 0.055,-0.007 0.098,-0.016 0.129,-0.028 l 0.101,-0.027 0,-6.48 -0.138,-0.037 c -0.092,-0.018 -0.226,-0.027 -0.404,-0.027 -0.19,0 -0.33,0.009 -0.422,0.027 L -59.948,0 -62.261,4.176 Z m 6.608,0 c -0.086,0.146 -0.16,0.292 -0.224,0.436 l -0.17,0.381 c -0.056,0.128 -0.105,0.251 -0.147,0.367 l -0.009,-0.423 c 0.012,-0.134 0.021,-0.296 0.027,-0.486 0.006,-0.189 0.009,-0.4 0.009,-0.633 l 0,-3.818 -0.11,-0.037 c -0.073,-0.018 -0.183,-0.027 -0.33,-0.027 -0.153,0 -0.26,0.009 -0.322,0.027 -0.043,0.013 -0.076,0.024 -0.101,0.037 l 0,6.48 0.139,0.027 c 0.048,0.012 0.108,0.021 0.179,0.028 0.069,0.006 0.151,0.009 0.243,0.009 0.091,0 0.171,-0.003 0.238,-0.009 0.067,-0.007 0.125,-0.016 0.175,-0.028 l 0.137,-0.027 2.286,-4.14 c 0.085,-0.153 0.161,-0.301 0.229,-0.445 l 0.175,-0.39 0.164,-0.385 -0.009,0.45 c -0.018,0.275 -0.027,0.636 -0.027,1.082 l 0,3.828 0.11,0.027 c 0.036,0.012 0.081,0.021 0.133,0.028 0.052,0.006 0.118,0.009 0.197,0.009 0.074,0 0.138,-0.003 0.193,-0.009 0.055,-0.007 0.098,-0.016 0.128,-0.028 l 0.101,-0.027 0,-6.48 -0.137,-0.037 c -0.092,-0.018 -0.227,-0.027 -0.404,-0.027 -0.19,0 -0.33,0.009 -0.422,0.027 L -53.34,0 -55.653,4.176 Z m 9.187,2.368 0.036,-0.11 c 0.013,-0.037 0.022,-0.08 0.028,-0.129 0.006,-0.049 0.009,-0.101 0.009,-0.156 0,-0.062 -0.003,-0.116 -0.009,-0.165 -0.006,-0.049 -0.015,-0.092 -0.028,-0.129 l -0.036,-0.119 -1.707,0 0,-5.736 -0.12,-0.037 c -0.085,-0.018 -0.202,-0.027 -0.348,-0.027 -0.166,0 -0.284,0.009 -0.358,0.027 l -0.11,0.037 0,5.736 -1.753,0 -0.037,0.11 c -0.012,0.037 -0.021,0.078 -0.027,0.124 -0.006,0.046 -0.009,0.102 -0.009,0.17 0,0.055 0.003,0.107 0.009,0.156 0.006,0.049 0.015,0.092 0.027,0.128 l 0.037,0.12 4.396,0 z m 5.369,-0.064 0.156,0.027 c 0.049,0.012 0.105,0.021 0.17,0.028 0.064,0.006 0.139,0.009 0.225,0.009 0.085,0 0.161,-0.003 0.229,-0.009 0.067,-0.007 0.126,-0.016 0.174,-0.028 L -39.996,6.48 -37.692,0 -37.821,-0.037 c -0.085,-0.018 -0.211,-0.027 -0.376,-0.027 -0.159,0 -0.275,0.009 -0.349,0.027 l -0.11,0.037 -0.569,1.615 -2.717,0 -0.577,-1.615 -0.12,-0.037 c -0.073,-0.018 -0.183,-0.027 -0.331,-0.027 -0.14,0 -0.247,0.009 -0.321,0.027 l -0.11,0.037 2.304,6.48 z m 0.504,-0.955 -0.064,-0.239 -0.073,-0.261 -0.1,-0.326 -0.845,-2.322 2.184,0 -0.835,2.322 -0.11,0.331 -0.074,0.256 c -0.025,0.086 -0.043,0.166 -0.055,0.239 l -0.028,0 z m 6.627,1.019 c 0.294,0 0.553,-0.046 0.78,-0.138 0.226,-0.092 0.414,-0.219 0.564,-0.381 0.15,-0.162 0.263,-0.353 0.34,-0.573 0.076,-0.221 0.115,-0.462 0.115,-0.725 0,-0.19 -0.023,-0.36 -0.069,-0.51 -0.046,-0.15 -0.104,-0.281 -0.175,-0.394 -0.069,-0.114 -0.15,-0.21 -0.238,-0.29 -0.089,-0.079 -0.173,-0.147 -0.252,-0.202 0.098,-0.049 0.201,-0.114 0.312,-0.197 0.109,-0.082 0.211,-0.185 0.303,-0.307 0.091,-0.123 0.166,-0.268 0.224,-0.436 0.058,-0.169 0.087,-0.366 0.087,-0.592 0,-0.275 -0.043,-0.528 -0.128,-0.757 -0.086,-0.23 -0.213,-0.427 -0.381,-0.593 -0.168,-0.165 -0.373,-0.292 -0.615,-0.38 -0.242,-0.089 -0.518,-0.133 -0.831,-0.133 l -2.496,0 0,6.608 2.46,0 z m -0.202,-2.91 c 0.373,0 0.641,0.103 0.803,0.308 0.162,0.205 0.243,0.466 0.243,0.785 0,0.324 -0.081,0.587 -0.243,0.789 -0.162,0.201 -0.433,0.303 -0.812,0.303 l -1.313,0 0,-2.185 1.322,0 z m 0.064,-2.973 c 0.417,0 0.715,0.099 0.895,0.298 0.181,0.199 0.271,0.479 0.271,0.84 0,0.385 -0.095,0.671 -0.284,0.858 -0.191,0.187 -0.487,0.28 -0.891,0.28 l -1.377,0 0,-2.276 1.386,0 z m 7.36,5.819 0.12,0.027 c 0.043,0.012 0.091,0.021 0.146,0.028 0.055,0.006 0.123,0.009 0.203,0.009 0.073,0 0.139,-0.003 0.196,-0.009 0.059,-0.007 0.109,-0.016 0.152,-0.028 l 0.119,-0.027 0,-6.48 -0.119,-0.037 c -0.073,-0.018 -0.186,-0.027 -0.34,-0.027 -0.171,0 -0.293,0.009 -0.366,0.027 L -26.744,0 l 0,2.918 -2.753,0 0,-2.918 -0.119,-0.037 c -0.086,-0.018 -0.202,-0.027 -0.349,-0.027 -0.165,0 -0.284,0.009 -0.358,0.027 l -0.11,0.037 0,6.48 0.119,0.027 c 0.037,0.012 0.083,0.021 0.138,0.028 0.055,0.006 0.122,0.009 0.202,0.009 0.08,0 0.148,-0.003 0.207,-0.009 0.058,-0.007 0.108,-0.016 0.151,-0.028 l 0.119,-0.027 0,-2.754 2.753,0 0,2.754 z m 6.489,0.064 0.051,-0.17 c 0.015,-0.058 0.023,-0.121 0.023,-0.188 0,-0.141 -0.025,-0.276 -0.074,-0.404 l -2.79,0 0,-2.129 2.331,0 0.051,-0.175 c 0.015,-0.061 0.023,-0.125 0.023,-0.192 0,-0.129 -0.025,-0.257 -0.074,-0.386 l -2.331,0 0,-2.202 2.882,0 0.05,-0.179 c 0.015,-0.058 0.024,-0.121 0.024,-0.188 0,-0.129 -0.026,-0.261 -0.074,-0.395 l -3.818,0 0,6.608 3.726,0 z m 4.01,0 c 0.294,0 0.554,-0.046 0.781,-0.138 0.226,-0.092 0.415,-0.219 0.564,-0.381 0.15,-0.162 0.263,-0.353 0.34,-0.573 0.076,-0.221 0.114,-0.462 0.114,-0.725 0,-0.19 -0.022,-0.36 -0.069,-0.51 -0.045,-0.15 -0.103,-0.281 -0.174,-0.394 -0.07,-0.114 -0.15,-0.21 -0.239,-0.29 -0.088,-0.079 -0.172,-0.147 -0.252,-0.202 0.098,-0.049 0.202,-0.114 0.312,-0.197 0.11,-0.082 0.211,-0.185 0.303,-0.307 0.092,-0.123 0.167,-0.268 0.225,-0.436 0.059,-0.169 0.087,-0.366 0.087,-0.592 0,-0.275 -0.043,-0.528 -0.128,-0.757 -0.086,-0.23 -0.213,-0.427 -0.381,-0.593 -0.168,-0.165 -0.373,-0.292 -0.615,-0.38 -0.242,-0.089 -0.519,-0.133 -0.831,-0.133 l -2.496,0 0,6.608 2.459,0 z m -0.202,-2.91 c 0.374,0 0.642,0.103 0.804,0.308 0.162,0.205 0.243,0.466 0.243,0.785 0,0.324 -0.081,0.587 -0.243,0.789 -0.162,0.201 -0.433,0.303 -0.813,0.303 l -1.312,0 0,-2.185 1.321,0 z m 0.065,-2.973 c 0.416,0 0.714,0.099 0.895,0.298 0.18,0.199 0.27,0.479 0.27,0.84 0,0.385 -0.094,0.671 -0.284,0.858 -0.19,0.187 -0.486,0.28 -0.89,0.28 l -1.377,0 0,-2.276 1.386,0 z m 7.397,5.883 0.051,-0.17 c 0.015,-0.058 0.022,-0.121 0.022,-0.188 0,-0.141 -0.024,-0.276 -0.073,-0.404 l -2.79,0 0,-2.129 2.331,0 0.051,-0.175 C -9.378,3.417 -9.37,3.353 -9.37,3.286 -9.37,3.157 -9.396,3.029 -9.444,2.9 l -2.331,0 0,-2.202 2.882,0 0.051,-0.179 C -8.828,0.461 -8.82,0.398 -8.82,0.331 -8.82,0.202 -8.844,0.07 -8.893,-0.064 l -3.818,0 0,6.608 3.726,0 z M -6.066,4.176 C -6.152,4.322 -6.227,4.468 -6.291,4.612 L -6.462,4.993 C -6.516,5.121 -6.565,5.244 -6.608,5.36 L -6.617,4.937 c 0.012,-0.134 0.021,-0.296 0.027,-0.486 0.006,-0.189 0.01,-0.4 0.01,-0.633 L -6.58,0 -6.69,-0.037 c -0.074,-0.018 -0.184,-0.027 -0.331,-0.027 -0.153,0 -0.26,0.009 -0.321,0.027 -0.043,0.013 -0.077,0.024 -0.101,0.037 l 0,6.48 0.138,0.027 c 0.049,0.012 0.108,0.021 0.178,0.028 0.071,0.006 0.152,0.009 0.244,0.009 0.092,0 0.171,-0.003 0.238,-0.009 0.067,-0.007 0.126,-0.016 0.175,-0.028 L -6.333,6.48 -4.048,2.34 c 0.086,-0.153 0.163,-0.301 0.23,-0.445 l 0.175,-0.39 0.165,-0.385 -0.01,0.45 c -0.018,0.275 -0.027,0.636 -0.027,1.082 l 0,3.828 0.11,0.027 c 0.037,0.012 0.081,0.021 0.133,0.028 0.052,0.006 0.118,0.009 0.197,0.009 0.074,0 0.138,-0.003 0.193,-0.009 0.056,-0.007 0.098,-0.016 0.129,-0.028 L -2.652,6.48 -2.652,0 -2.79,-0.037 c -0.092,-0.018 -0.227,-0.027 -0.404,-0.027 -0.189,0 -0.33,0.009 -0.422,0.027 L -3.754,0 -6.066,4.176 Z" id="path3930" stroke="black" style="fill:#ffffff;fill-opacity:1;fill-rule:nonzero;"/>
		</g>
	</g>
</svg>