<?xml version="1.0" encoding="iso-8859-1"?><svg height="279.89999" id="svg3836" version="1.1" viewBox="0 0 1587.402 279.89999" width="1587.402" xml:space="preserve" xmlns="http://www.w3.org/2000/svg" xmlns:cc="http://creativecommons.org/ns#" xmlns:dc="http://purl.org/dc/elements/1.1/" xmlns:rdf="http://www.w3.org/1999/02/22-rdf-syntax-ns#" xmlns:svg="http://www.w3.org/2000/svg">
	<metadata id="metadata3842">
		<rdf:RDF>
			<cc:Work rdf:about="">
				<dc:format>image/svg+xml</dc:format>
				<dc:type rdf:resource="http://purl.org/dc/dcmitype/StillImage"/>
				<dc:title/>
			</cc:Work>
		</rdf:RDF>
	</metadata>
	<defs id="defs3840">
		<clipPath clipPathUnits="userSpaceOnUse" id="clipPath3850">
			
		</clipPath>
		<clipPath clipPathUnits="userSpaceOnUse" id="clipPath3864">
			
		</clipPath>
		<clipPath clipPathUnits="userSpaceOnUse" id="clipPath3888">
			
		</clipPath>
		<clipPath clipPathUnits="userSpaceOnUse" id="clipPath3916">
			
		</clipPath>
		<clipPath clipPathUnits="userSpaceOnUse" id="clipPath3976">
			
		</clipPath>
	</defs>
	<g id="g3844" transform="matrix(1.25,0,0,-1.25,-175.06937,979.82362)">
		<g id="g3920" transform="matrix(8,0,0,8,152.6811,630.0749)">
			<path animation_id="5" d="m 0,0 c -0.078,-0.128 -0.154,-0.253 -0.231,-0.376 0,0 -0.103,0.151 -0.228,0.374 L 0,0 Z m 13.014,0 c 0.305,-0.868 0.563,-1.549 0.727,-1.87 0.766,-1.492 2.548,-1.332 3.445,-0.382 0.366,0.387 0.969,1.192 1.701,2.259 L 25.405,0 c -2.07,-5.137 -7.105,-8.767 -12.988,-8.767 -3.435,0 -6.579,1.239 -9.014,3.292 l -2.094,0 c 0.75,1.352 1.85,3.355 3.007,5.469 L 13.014,0 Z m 24.068,0 -0.858,-2.27 2.347,0 -0.849,2.27 1.482,0 c 0.931,-2.422 2.213,-5.766 2.213,-5.797 0,-0.073 -0.049,-0.121 -0.122,-0.121 l -1.277,0 c -0.048,0 -0.097,0.048 -0.121,0.121 l -0.876,2.311 -3.259,0 -0.852,-2.311 C 34.886,-5.87 34.837,-5.918 34.789,-5.918 l -1.277,0 c -0.073,0 -0.122,0.048 -0.122,0.121 0,0.032 1.293,3.406 2.212,5.802 L 37.082,0 Z m 7.302,0 0,-5.797 c 0,-0.073 -0.048,-0.121 -0.121,-0.121 l -1.217,0 c -0.072,0 -0.121,0.048 -0.121,0.121 l 0,5.797 1.459,0 z m 3.989,0 0,-0.932 1.217,0 c 1.383,0 1.649,0.419 1.694,0.931 L 52.747,0 c -0.037,-0.926 -0.333,-1.628 -1.516,-1.966 0.329,-0.316 0.584,-0.717 0.73,-1.034 0.717,-1.568 1.156,-2.797 1.156,-2.797 0,-0.073 -0.049,-0.121 -0.122,-0.121 l -1.338,0 c -0.048,0 -0.086,0.048 -0.122,0.121 l -1.094,2.676 c -0.134,0.329 -0.596,0.973 -1.217,0.973 l -0.851,0 0,-3.649 c 0,-0.073 -0.048,-0.121 -0.121,-0.121 l -1.217,0 c -0.072,0 -0.122,0.048 -0.122,0.121 l 0,5.797 1.46,0 z m 8.161,0 0,-1.418 1.217,0 c 1.58,0 1.702,0.778 1.702,1.398 0,0.008 0,0.016 0,0.024 L 60.913,0 l 0,-0.02 c 0,-1.277 -0.366,-2.615 -3.162,-2.615 l -1.217,0 0,-3.162 c 0,-0.073 -0.049,-0.121 -0.121,-0.121 l -1.217,0 c -0.073,0 -0.122,0.048 -0.122,0.121 l 0,5.797 1.46,0 z m 7.507,0 c -0.161,-0.488 -0.222,-1.06 -0.222,-1.662 0,-1.703 0.487,-3.162 2.371,-3.162 1.886,0 2.372,1.459 2.372,3.162 0,0.602 -0.061,1.174 -0.222,1.661 L 69.903,0 c 0.126,-0.509 0.18,-1.072 0.18,-1.662 0,-2.419 -0.913,-4.378 -3.893,-4.378 -2.979,0 -3.891,1.959 -3.891,4.378 0,0.59 0.054,1.152 0.179,1.666 L 64.041,0 Z m 9.593,0 0,-0.932 1.216,0 c 1.384,0 1.65,0.419 1.694,0.931 L 78.007,0 c -0.037,-0.926 -0.333,-1.628 -1.515,-1.966 0.328,-0.316 0.584,-0.717 0.73,-1.034 0.717,-1.568 1.154,-2.797 1.154,-2.797 0,-0.073 -0.048,-0.121 -0.121,-0.121 l -1.338,0 c -0.048,0 -0.085,0.048 -0.121,0.121 l -1.095,2.676 c -0.133,0.329 -0.596,0.973 -1.216,0.973 l -0.851,0 0,-3.649 c 0,-0.073 -0.049,-0.121 -0.122,-0.121 l -1.216,0 c -0.074,0 -0.122,0.048 -0.122,0.121 l 0,5.797 1.46,0 z m 9.778,0 0,-5.797 c 0,-0.073 -0.049,-0.121 -0.122,-0.121 l -1.216,0 c -0.073,0 -0.121,0.048 -0.121,0.121 l 0,5.797 1.459,0 z m 8.938,0 0,-5.797 c 0,-0.073 -0.048,-0.121 -0.121,-0.121 l -1.216,0 c -0.073,0 -0.122,0.048 -0.122,0.121 l 0,5.797 1.459,0 z m 1.918,0 1.731,-3.607 0.244,-0.852 0,4.459 1.459,0 0,-5.797 c 0,-0.073 -0.049,-0.121 -0.122,-0.121 l -1.945,0 c -0.061,0 -0.086,0.048 -0.123,0.121 L 92.731,0 94.268,0 Z m 7.326,0 0,-2.635 c 0,-1.338 0.243,-2.188 1.824,-2.188 1.581,0 1.824,0.85 1.824,2.188 l 0,2.635 1.46,0 0,-2.756 c 0,-2.432 -1.217,-3.285 -3.284,-3.285 -2.067,0 -3.284,0.853 -3.284,3.285 l 0,2.756 1.46,0 z m 9.012,0 0,-0.932 1.216,0 c 1.383,0 1.65,0.419 1.695,0.931 L 114.98,0 c -0.038,-0.926 -0.334,-1.628 -1.517,-1.966 0.329,-0.316 0.585,-0.717 0.731,-1.034 0.717,-1.568 1.154,-2.797 1.154,-2.797 0,-0.073 -0.048,-0.121 -0.121,-0.121 l -1.337,0 c -0.05,0 -0.087,0.048 -0.122,0.121 l -1.095,2.676 c -0.134,0.329 -0.596,0.973 -1.216,0.973 l -0.851,0 0,-3.649 c 0,-0.073 -0.049,-0.121 -0.122,-0.121 l -1.216,0 c -0.074,0 -0.123,0.048 -0.123,0.121 l 0,5.797 1.461,0 z m 8.161,0 0,-5.797 c 0,-0.073 -0.049,-0.121 -0.123,-0.121 l -1.216,0 c -0.073,0 -0.122,0.048 -0.122,0.121 l 0,5.797 1.461,0 z m 1.916,0 1.732,-3.607 0.243,-0.852 0,4.459 1.459,0 0,-5.797 c 0,-0.073 -0.048,-0.121 -0.121,-0.121 l -1.946,0 c -0.061,0 -0.085,0.048 -0.122,0.121 L 119.146,0 l 1.537,0 z m 7.424,0 0,-0.932 1.215,0 c 1.246,0 1.606,0.399 1.685,0.931 L 132.479,0 c -0.047,-0.727 -0.402,-1.212 -0.966,-1.54 0.692,-0.365 1.215,-0.949 1.215,-1.825 0,-1.459 -0.365,-2.553 -3.406,-2.553 l -2.554,0 c -0.072,0 -0.121,0.048 -0.121,0.121 l 0,5.797 1.46,0 z m 8.208,0 0,-0.932 3.528,0 c 0.073,0 0.121,-0.049 0.121,-0.121 l 0,-0.974 c 0,-0.073 -0.048,-0.121 -0.121,-0.121 l -3.528,0 0,-2.554 3.893,0 c 0.072,0 0.121,-0.049 0.121,-0.122 0,-0.048 -0.121,-0.973 -0.121,-0.973 -0.012,-0.073 -0.049,-0.121 -0.122,-0.121 l -5.108,0 c -0.073,0 -0.122,0.048 -0.122,0.121 l 0,5.797 1.459,0 z m 7.626,0 0,-0.932 1.216,0 c 1.384,0 1.65,0.419 1.694,0.931 L 148.314,0 c -0.037,-0.926 -0.333,-1.628 -1.515,-1.966 0.328,-0.316 0.584,-0.717 0.73,-1.034 0.717,-1.568 1.155,-2.797 1.155,-2.797 0,-0.073 -0.049,-0.121 -0.121,-0.121 l -1.338,0 c -0.048,0 -0.085,0.048 -0.122,0.121 l -1.095,2.676 c -0.133,0.329 -0.595,0.973 -1.216,0.973 l -0.851,0 0,-3.649 c 0,-0.073 -0.048,-0.121 -0.122,-0.121 l -1.215,0 c -0.074,0 -0.122,0.048 -0.122,0.121 l 0,5.797 1.459,0 z m 8.056,0 c -0.199,-0.54 -0.248,-1.15 -0.248,-1.662 0,-1.277 0.305,-3.162 2.493,-3.162 0.852,0 1.46,0.085 1.46,0.085 l 0,2.591 -1.946,0 c -0.073,0 -0.122,0.048 -0.122,0.121 0,0.049 0.122,0.974 0.122,0.974 0.012,0.072 0.049,0.121 0.122,0.121 l 3.161,0 c 0.074,0 0.123,-0.049 0.123,-0.121 l 0,-4.501 c 0,-0.06 -0.049,-0.109 -0.123,-0.121 0,0 -1.095,-0.365 -2.797,-0.365 -3.648,0 -4.013,2.627 -4.013,4.378 0,0.507 0.031,1.088 0.163,1.657 L 151.997,0 Z m -22.675,-2.148 -1.215,0 0,-2.554 1.215,0 c 1.704,0 1.946,0.547 1.946,1.216 0,0.669 -0.242,1.338 -1.946,1.338" id="path3922" stroke="black" style="fill:#153a75;fill-opacity:1;fill-rule:nonzero;"/>
		</g>
		<g id="g3924" transform="matrix(8,0,0,8,149.0075,630.0749)">
			
		</g>
		<g id="g3928" transform="translate(295.9606,63.6757)">
			
		</g>
	</g>
</svg>