<?xml version="1.0" encoding="iso-8859-1"?><svg height="167" viewBox="0 0 786.99376 167" width="786.99377" xmlns="http://www.w3.org/2000/svg">
	
  
	
	
  
	
	
  
	<g fill="#646363">
		
    
		
		
    
		<path animation_id="3" d="m0 0c0-.12-.097-.217-.217-.217l-9.603-.005c-.12 0-.217.097-.217.217v15.182c0 .12.097.217.217.217h9.603c.12 0 .217-.097.217-.217zm3.077 18.522c-.889.866-2.02 1.304-3.364 1.304h-10.637-1.329-2.216v-24.481h2.359 1.186 10.785c2.863 0 4.572 1.747 4.572 4.674v15.182c0 1.327-.456 2.444-1.356 3.321" stroke="black" transform="matrix(5.10790840564 0 0 -5.10790840564 420.80788181314 101.40628097318)"/>
		
    
		
		
    
		
		
    
		
		
    
		
		
    
		
		
  
	</g>
	

</svg>