<?xml version="1.0" encoding="iso-8859-1"?><svg height="167" viewBox="0 0 786.99376 167" width="786.99377" xmlns="http://www.w3.org/2000/svg">
	
  
	
	
  
	
	
  
	<g fill="#646363">
		
    
		
		
    
		
		
    
		<path animation_id="4" d="m0 0h-2.661c-.491 0-.888-.398-.888-.89v-18.962c0-.12-.097-.217-.217-.217l-11.656.008h.018c-.12 0-.217.097-.217.217l-.001 18.954c0 .492-.398.89-.889.89h-2.661c-.491 0-.889-.398-.889-.89v-18.839c0-2.993 1.785-4.779 4.775-4.779h11.695c2.805 0 4.481 1.75 4.481 4.681v18.937c0 .492-.398.89-.89.89" stroke="black" transform="matrix(5.10790840564 0 0 -5.10790840564 621.92397011857 .00000084167)"/>
		
    
		
		
    
		
		
    
		
		
    
		
		
  
	</g>
	

</svg>