<?xml version="1.0" encoding="iso-8859-1"?><svg height="167" viewBox="0 0 786.99376 167" width="786.99377" xmlns="http://www.w3.org/2000/svg">
	
  
	
	
  
	
	
  
	<g fill="#646363">
		
    
		
		
    
		
		
    
		
		
    
		
		
    
		
		
    
		
		
    
		<path animation_id="8" d="m0 0v-.009zm10.315 4.433h-5.743c-.781-.002-1.473-.341-2.072-.824-.816.533-1.867.824-3.147.824h-5.743c-2.728 0-4.393-1.726-4.569-4.735-.001-.017-.002-.034-.002-.052l-.001-18.788c0-.235.094-.461.26-.627.167-.167.393-.26.628-.26l2.674-.02h.029c.23 0 .451.089.618.249.172.167.27.398.27.639v18.944c0 .12.097.217.217.217h6.049c.12 0 .217-.097.217-.217v-18.944c0-.241.097-.472.27-.639.166-.16.388-.249.618-.249h.029l1.322.01 1.257-.009.003-.001h.029.004.03.028c.23 0 .452.089.619.249.172.167.27.398.27.639v18.944c0 .12.097.217.217.217h6.049c.12 0 .217-.097.217-.217v-.241-18.703c0-.241.097-.472.27-.639.166-.16.388-.249.618-.249h.029 2.469.112.029c.23 0 .452.089.619.249.172.167.27.398.27.639v18.728c0 3.093-1.846 4.866-5.063 4.866" stroke="black" transform="matrix(5.10790840564 0 0 -5.10790840564 708.44438128889 22.77565360561)"/>
		
  
	</g>
	

</svg>