<?xml version="1.0" encoding="iso-8859-1"?><svg height="167" viewBox="0 0 786.99376 167" width="786.99377" xmlns="http://www.w3.org/2000/svg">
	
  
	
	
  
	
	
  
	<g fill="#646363">
		
    
		<path animation_id="2" d="m0 0h-9.438c-2.728 0-4.393-1.726-4.569-4.735-.001-.017-.002-.034-.002-.052l-.001-18.808c0-.235.094-.461.26-.627.167-.167.393-.26.628-.26h3.545v19.832c0 .12.097.217.216.217h9.774c.12 0 .217-.097.217-.217v-19.832h3.515.029c.23 0 .452.089.619.249.172.167.27.398.27.639v18.728c0 3.093-1.846 4.866-5.063 4.866" stroke="black" transform="matrix(5.10790840564 0 0 -5.10790840564 294.81671162958 .13229417169)"/>
		
    
		
		
    
		
		
    
		
		
    
		
		
    
		
		
    
		
		
  
	</g>
	

</svg>