<?xml version="1.0" encoding="iso-8859-1"?><svg height="129" viewBox="0 0 904.99676 129" width="904.99677" xmlns="http://www.w3.org/2000/svg">
	
  
	<g fill="#f39d00">
		
    
		
		
    
		
		
    
		
		
    
		
		
    
		
		
    
		<path animation_id="5" d="m0 0v6.57c0 .81-.019 1.512-.057 2.108-.038.594-.108 1.126-.209 1.595-.101.468-.234.892-.399 1.272s-.373.772-.626 1.177c-.735 1.139-1.728 2.044-2.981 2.715-1.254.671-2.577 1.007-3.969 1.007-1.139 0-2.222-.222-3.247-.665s-1.918-1.044-2.677-1.804c-.76-.759-1.361-1.646-1.804-2.658-.443-1.013-.665-2.089-.665-3.228s.222-2.209.665-3.209 1.031-1.88 1.766-2.639c.734-.76 1.595-1.362 2.582-1.804.988-.443 2.038-.665 3.152-.665 1.671 0 3.253.57 4.747 1.709v-1.481zm-3.57 7.975c0-.659-.12-1.26-.361-1.804-.24-.545-.569-1.025-.987-1.443s-.911-.741-1.481-.968c-.57-.228-1.171-.342-1.804-.342-.659 0-1.279.12-1.861.361-.582.24-1.082.569-1.5.987s-.747.911-.987 1.481c-.241.57-.361 1.183-.361 1.842 0 .658.12 1.278.361 1.861.24.582.575 1.082 1.006 1.5.43.418.937.746 1.519.987s1.202.361 1.861.361c.658 0 1.266-.12 1.823-.361s1.044-.582 1.462-1.025.741-.956.968-1.538c.228-.583.342-1.215.342-1.899" stroke="black" transform="matrix(5.37345506566 0 0 -5.37345506566 904.99676437508 127.77484936396)"/>
		
    
		
		
    
		
		
    
		
		
  
	</g>
	

</svg>