<?xml version="1.0" encoding="iso-8859-1"?><svg height="40" width="226" xmlns="http://www.w3.org/2000/svg">
	<defs>
		<linearGradient gradientTransform="scale(21.58076) rotate(45 .118 1.34)" gradientUnits="userSpaceOnUse" id="a" x2="1">
			<stop offset="0" stop-color="#1a468e"/>
			<stop offset=".06" stop-color="#1a468e"/>
			<stop offset=".64" stop-color="#36aee8"/>
			<stop offset="1" stop-color="#36aee8"/>
		</linearGradient>
		<linearGradient gradientTransform="rotate(45 -.388 29.444) scale(17.00398)" gradientUnits="userSpaceOnUse" id="b" x2="1">
			<stop offset="0" stop-color="#1a468e"/>
			<stop offset=".06" stop-color="#1a468e"/>
			<stop offset=".64" stop-color="#36aee8"/>
			<stop offset="1" stop-color="#36aee8"/>
		</linearGradient>
		<linearGradient gradientTransform="scale(42.32537) rotate(45 .22 .206)" gradientUnits="userSpaceOnUse" id="c" x2="1">
			<stop offset="0" stop-color="#b2dcf5"/>
			<stop offset=".27" stop-color="#36aee8"/>
			<stop offset=".28" stop-color="#36aee8"/>
			<stop offset=".54" stop-color="#1a468d"/>
			<stop offset=".56" stop-color="#1a468d"/>
			<stop offset="1" stop-color="#1a468d"/>
		</linearGradient>
	</defs>
	
	
	
	
	<path animation_id="4" d="M81.34 29.42c-1.23 0-2.3.45-3.05 1.2-.77.8-1.2 1.9-1.2 3.17 0 1.33.48 2.48 1.32 3.26.75.68 1.74 1.05 2.92 1.05 1.2 0 2.24-.4 3-1.13.8-.78 1.25-1.9 1.25-3.2 0-1.2-.4-2.25-1.08-3.02-.75-.84-1.87-1.33-3.18-1.33zm43.5 0c-2.7 0-4.52 1.82-4.52 4.44 0 2.47 1.7 4.25 4.24 4.25 1.3 0 2.4-.4 2.96-.7v-3.58h-1.15v2.97c-.3.17-.8.3-1.52.3-2.04 0-3.3-1.32-3.3-3.37 0-1.9 1.14-3.3 3.32-3.3.97 0 1.8.35 2.38.64V29.9c-.48-.2-1.35-.48-2.4-.48zm18.1 0c-1.23 0-2.3.45-3.05 1.2-.77.8-1.2 1.9-1.2 3.17 0 1.33.48 2.48 1.32 3.26.74.68 1.74 1.05 2.9 1.05 1.22 0 2.26-.4 3.02-1.13.78-.78 1.25-1.9 1.25-3.2 0-1.2-.4-2.25-1.08-3.02-.75-.84-1.87-1.33-3.2-1.33zm10.05 0c-2.72 0-4.54 1.82-4.54 4.44 0 2.47 1.7 4.25 4.25 4.25 1.3 0 2.4-.4 2.96-.7v-3.58h-1.15v2.97c-.3.17-.8.3-1.5.3-2.05 0-3.3-1.32-3.3-3.37 0-1.9 1.14-3.3 3.32-3.3.96 0 1.8.35 2.37.64V29.9c-.5-.2-1.35-.48-2.4-.48zm-56.46.04l-3.26 8.52h1.13l.8-2.2h3.3l.87 2.2h1.22l-3.32-8.52zm-41.25.03v8.48h1.13v-8.5zm3.35 0v8.48h1.15V32.3c0-.43 0-.78-.04-1.06h.03c.17.34.4.67.86 1.27L64.82 38h1.07v-8.5h-1.16v5.53c0 .43 0 .8.03 1.1h-.03c-.17-.33-.4-.66-.93-1.34l-3.97-5.27zm9.46 0v8.48h1.15V32.3c0-.43 0-.78-.04-1.06h.04c.18.34.4.67.88 1.27L74.27 38h1.07v-8.5H74.2v5.53c0 .43 0 .8.02 1.1h-.03c-.17-.33-.42-.66-.94-1.34l-3.98-5.27zm18.03 0l3.4 8.52h.72l3.66-8.53h-1.18l-2.24 5.38-.52 1.36h-.02c-.16-.45-.32-.92-.5-1.38l-2.07-5.37zm14.24 0v1h2.44V38h1.17V30.5h2.37l.35-1zm7.6 0v8.48h1.14v-8.5zm3.36 0v8.48h1.15V32.3c0-.43 0-.78-.04-1.06h.03c.18.34.4.67.87 1.27L117.5 38h1.07v-8.5h-1.15v5.53c0 .43 0 .8.03 1.1h-.03c-.17-.33-.4-.66-.93-1.34l-4-5.27zm20.83 0v1h2.44V38h1.16V30.5h2.37l.35-1zm25.6 0v8.48h4.37v-1h-3.22v-2.84h2.8v-1h-2.8V30.5h2.83l.38-1zm5.47 0v1h2.44V38h1.16V30.5h2.37l.35-1zm7.6 0v8.48h1.14v-3.8h4.48v3.8h1.15v-8.5h-1.15v3.68h-4.48V29.5zm9 0v8.48h4.37v-1h-3.23v-2.84h2.8v-1h-2.8V30.5h2.83l.37-1zm6.24 0v8.48h1.14v-3.52h.87c.34.08 1.08 1.35 2.43 3.52h1.35c-1.36-2.17-2.3-3.72-2.6-3.88.85-.33 1.63-1.1 1.63-2.28 0-1.3-.8-2.33-2.88-2.33zm-104.73.95c1.93 0 3.02 1.4 3.02 3.33 0 2.04-1.2 3.33-3.02 3.33-1.84 0-3.02-1.28-3.02-3.32s1.18-3.33 3.02-3.33zm61.6 0c1.93 0 3 1.4 3 3.33 0 2.04-1.18 3.33-3 3.33-1.84 0-3.03-1.28-3.03-3.32s1.2-3.33 3.03-3.33zm44.27.06h.82c1.22 0 1.66.67 1.66 1.45 0 .85-.7 1.56-1.63 1.56h-.84zm-90.3.65c.06.28.17.63.32 1.06l.9 2.57h-2.5l.93-2.58c.16-.42.26-.74.34-1.05z" fill="#1a468e" stroke="black"/>
</svg>