<?xml version="1.0" encoding="iso-8859-1"?><svg height="40" width="226" xmlns="http://www.w3.org/2000/svg">
	<defs>
		<linearGradient gradientTransform="scale(21.58076) rotate(45 .118 1.34)" gradientUnits="userSpaceOnUse" id="a" x2="1">
			<stop offset="0" stop-color="#1a468e"/>
			<stop offset=".06" stop-color="#1a468e"/>
			<stop offset=".64" stop-color="#36aee8"/>
			<stop offset="1" stop-color="#36aee8"/>
		</linearGradient>
		<linearGradient gradientTransform="rotate(45 -.388 29.444) scale(17.00398)" gradientUnits="userSpaceOnUse" id="b" x2="1">
			<stop offset="0" stop-color="#1a468e"/>
			<stop offset=".06" stop-color="#1a468e"/>
			<stop offset=".64" stop-color="#36aee8"/>
			<stop offset="1" stop-color="#36aee8"/>
		</linearGradient>
		<linearGradient gradientTransform="scale(42.32537) rotate(45 .22 .206)" gradientUnits="userSpaceOnUse" id="c" x2="1">
			<stop offset="0" stop-color="#b2dcf5"/>
			<stop offset=".27" stop-color="#36aee8"/>
			<stop offset=".28" stop-color="#36aee8"/>
			<stop offset=".54" stop-color="#1a468d"/>
			<stop offset=".56" stop-color="#1a468d"/>
			<stop offset="1" stop-color="#1a468d"/>
		</linearGradient>
	</defs>
	<path animation_id="0" d="M73.34 2.17H68.7c-.73 0-1.02.5-1.02 1.2v15.88c0 .53.7.6 1.8.6s1.8-.07 1.8-.6V12.6h1.14c1.8 0 2.4 1.52 2.94 2.8L77 19.25c.23.56.87.6 1.86.6 1.38 0 1.98-.07 1.98-.53 0-.18-.1-.5-.43-1.24L79 14.76c-.74-1.74-1.13-2.37-2.5-3.15 2.6-.84 3.42-2.57 3.42-4.55 0-2.87-1.7-4.88-6.58-4.88m-.42 2.8c1.94 0 3.25.45 3.25 2.36 0 2.12-1.6 2.62-3.04 2.62H71.3v-5zm47.5.03c3.42 0 5.57 1.62 5.57 6 0 4.25-2.02 6.02-5.52 6.02h-1.88V5zm.2-2.83h-4.56c-.7 0-1.06.5-1.06 1.2v15.38c0 .74.35 1.1 1.06 1.1h4.28c7.03 0 9.37-3.64 9.37-8.9 0-5.2-2.3-8.78-9.08-8.78m50.1 9.93c2.6 0 3.43.85 3.43 2.45 0 2.08-1.48 2.57-2.93 2.57h-2.5V12.1zm-.1-9.93h-4.5c-.7 0-1.02.42-1.02 1.2v15.38c0 .74.32 1.1 1.03 1.1h4.74c5.05 0 7.04-2.4 7.04-5.27 0-2.76-1.84-4-3.53-4.24 1.24-.53 2.5-1.52 2.5-3.68 0-2.83-2.15-4.5-6.25-4.5m-.18 2.77c1.84 0 2.8.5 2.8 2.15 0 1.8-1.13 2.34-2.62 2.34h-1.9v-4.5zm48.23-3.04c-4.7 0-9.2 2.67-9.2 9.18 0 4.84 2.52 9.05 9.1 9.05 1.98 0 3.46-.4 4.63-.8 1.06-.4 1.1-.54 1.1-1.46V12.1c0-.67-.57-.74-1.77-.74-1 0-1.8 0-1.8.7v4.64c-.53.32-1.24.46-2.06.46-4.1 0-5.5-3.32-5.5-6.26 0-4.07 2.68-6.08 5.8-6.08 2.1 0 3.5.92 4.16 1.3.28.18.46.25.56.25.35 0 .53-.5.53-1.5 0-.62.03-1.04-.4-1.46-.7-.74-2.6-1.5-5.16-1.5M63.7 12.77c.66 0 .73-.4.73-1.45 0-1.07-.07-1.45-.74-1.45h-5.24V5.14H64c.68 0 .75-.4.75-1.5 0-1.08-.07-1.47-.74-1.47h-7.98c-.82 0-1.17.42-1.17 1.2v15.88c0 .53.7.6 1.8.6s1.8-.07 1.8-.6v-6.47zm29.62 4.24h-6.2v-5h5.17c.67 0 .74-.38.74-1.37 0-.98-.07-1.37-.75-1.37h-5.17V5h6.15c.68 0 .75-.4.75-1.42s-.07-1.4-.75-1.4h-8.7c-.74 0-1.05.52-1.05 1.2v15.37c0 .74.35 1.1 1.06 1.1h8.72c.67 0 .74-.4.74-1.42s-.07-1.4-.74-1.4m49.4 0h-6.2v-5h5.18c.67 0 .74-.4.74-1.38 0-.98-.07-1.37-.74-1.37h-5.17V5h6.16c.66 0 .73-.4.73-1.42s-.07-1.4-.74-1.4h-8.72c-.74 0-1.06.52-1.06 1.2v15.37c0 .74.36 1.1 1.06 1.1h8.74c.67 0 .74-.4.74-1.42s-.07-1.4-.74-1.4m47.95 0h-6.2v-5h5.17c.68 0 .75-.4.75-1.38 0-.98-.08-1.37-.76-1.37h-5.16V5h6.15c.68 0 .75-.4.75-1.42s-.07-1.4-.75-1.4h-8.7c-.74 0-1.05.52-1.05 1.2v15.37c0 .74.35 1.1 1.06 1.1h8.73c.67 0 .74-.4.74-1.42s-.06-1.4-.73-1.4M111.25 2.76c0-.53-.7-.6-1.8-.6s-1.8.07-1.8.6v10.25c0 2.1-.82 4.17-3.6 4.17-2.8 0-3.66-2.1-3.66-4.18V2.77c0-.53-.72-.6-1.8-.6-1.1 0-1.8.07-1.8.6v10.6c0 5.06 3.28 6.76 7.24 6.76 3.92 0 7.2-1.7 7.2-6.76zm38.47 16.48l-.03-11.18-.08-1.98.74 1.7.78 1.55 4.42 8.3c.53 1.03 1.06 2.2 2.62 2.2h1.55c.64 0 1.34-.32 1.34-1.3V2.76c0-.53-.7-.6-1.62-.6-.92 0-1.63.07-1.63.6 0 8.8 0 9.54.04 10.22.06 1.86-.04.2.06 1.93h-.03l-.5-1.06L152.22 4c-.67-1.3-1.06-1.83-2.5-1.83h-1.95c-.85 0-1.3.56-1.3 1.3v15.78c0 .53.7.6 1.6.6.94 0 1.64-.07 1.64-.6m50.5-17.08h-4.63c-.76 0-1.04.5-1.04 1.2v15.88c0 .53.7.6 1.8.6s1.8-.07 1.8-.6V12.6h1.07c1.87 0 2.47 1.52 3 2.8l1.63 3.85c.24.56.88.6 1.88.6 1.38 0 1.97-.07 1.97-.53 0-.18-.1-.5-.4-1.24l-1.42-3.32c-.75-1.74-1.14-2.37-2.52-3.15 2.62-.84 3.43-2.57 3.43-4.55 0-2.87-1.7-4.88-6.58-4.88m-.43 2.8c1.94 0 3.24.45 3.24 2.36 0 2.12-1.6 2.62-3.04 2.62h-1.83v-5z" fill="#1a468e" stroke="black"/>
	
	
	
	
</svg>