<?xml version="1.0" encoding="iso-8859-1"?><svg height="307" viewBox="0 0 769.02063 307" width="769.02063" xmlns="http://www.w3.org/2000/svg">
	
  
	<g transform="matrix(1.3333333 0 0 -1.3333333 .000063 306.99996)">
		
    
		
		
    
		
		
    
		<g fill="#4dc2a9">
			
      
			<path animation_id="2" d="m197.73174 16.912071c.98537-.104827 1.90086-.160735 2.74647-.160735 1.78206 0 3.11686.335446 3.99042 1.013328.87355.670893 1.30684 1.775072 1.30684 3.305547 0 1.495532-.4263 2.606699-1.2719 3.319523-.8526.705836-2.13149 1.069236-3.8227 1.069236-.98537 0-1.96376-.08386-2.94913-.251585zm197.27754-2.313184c1.85194 0 3.21469.405331 4.07427 1.229971.85959.817651 1.29287 2.159437 1.29287 4.032347 0 1.879899-.44027 3.263616-1.32781 4.123198-.87356.873559-2.25029 1.306844-4.10223 1.306844-.90151 0-1.6982-.06988-2.39705-.209654v-10.314983c.71283-.111815 1.53048-.167723 2.45995-.167723zm-81.53449 0c1.86592 0 3.2147.405331 4.08127 1.229971.85958.817651 1.29286 2.159437 1.29286 4.032347 0 1.879899-.44726 3.263616-1.32082 4.123198-.88753.873559-2.25028 1.306844-4.10922 1.306844-.90151 0-1.70518-.06988-2.40403-.209654v-10.314983c.71981-.111815 1.53047-.167723 2.45994-.167723zm-62.60272-.552089h6.37349l-3.20072 11.978238zm116.35105-7.9109491c1.9987 0 3.52219.726801 4.54949 2.1804029 1.0343 1.4536019 1.55144 3.8226932 1.55144 7.1002862 0 3.396397-.51714 5.842361-1.55144 7.330906-1.0273 1.495532-2.55079 2.23631-4.54949 2.23631-2.01268 0-3.53617-.726801-4.57745-2.180403-1.03429-1.453602-1.55144-3.822693-1.55144-7.100286 0-3.410373.51016-5.8633266 1.53746-7.3378939 1.02032-1.4815558 2.55079-2.2293222 4.59143-2.2293222zm-98.97771-5.72355737h-7.35886l-2.00569 7.48465197h-9.62313l-1.98472-7.48465197h-7.28898l8.57486 30.30899747h11.12564zm-70.51367 0h-7.37983v29.64509247c3.13084.698847 6.26167 1.04827 9.37853 1.04827 4.37479 0 7.64539-.831628 9.83977-2.480907 2.1804-1.649279 3.27759-4.15814 3.27759-7.533571 0-2.089553-.47521-3.878601-1.42565-5.34618-.95742-1.474567-2.2992-2.6067-4.0603-3.403385l7.84107-11.92931947h-8.07169l-6.82074 10.62247547c-.41931 0-.9714.01398-1.65627.04193-.41232.02097-.71981.03494-.92248.03494zm92.91172 23.87261547h-8.78451v-23.87261547h-7.51261v23.87261547h-8.77053v6.436382h25.06765zm101.90587-23.87261547h-7.49862v29.72895347c3.17276.64294 6.23371.964409 9.17586.964409 4.52853 0 7.88998-.908501 10.11231-2.711526 2.21535-1.817003 3.32652-4.633356 3.32652-8.470027 0-3.647981-1.0902-6.415416-3.25663-8.309291-2.17341-1.8868872-5.32522-2.8303307-9.48336-2.8303307-.3634 0-.88054.013977-1.53746.034942l-.83862.020965zm-81.53448 0h-7.48465v29.72895347c3.16577.64294 6.22672.964409 9.16887.964409 4.51455 0 7.88998-.908501 10.11232-2.711526 2.21534-1.817003 3.32651-4.633356 3.32651-8.470027 0-3.647981-1.08321-6.415416-3.25663-8.309291-2.17341-1.8868872-5.3322-2.8303307-9.49034-2.8303307-.3634 0-.87356.013977-1.53048.034942l-.8456.020965zm39.67355 24.09624647h-13.32702v-5.52788h11.19553v-6.184797h-11.19553v-6.1847961h13.52968v-6.19877337h-20.93047v30.30899747h20.72781zm-112.00422 0h-13.32702v-5.52788h11.20252v-6.184797h-11.20252v-6.1847961h13.54366v-6.19877337h-20.93746v30.30899747h20.72082zm216.38401 0h-13.32701v-5.52788h11.20252v-6.184797h-11.20252v-6.1847961h13.54366v-6.19877337h-20.93746v30.30899747h20.72081zm-36.07448-17.673842h12.56527v-6.42240447h-20.0639v30.30899747h7.49863zm-256.49784 15.779967c.7268 1.830979 1.75411 3.361454 3.12385 4.598413 2.87226 2.6067 7.05136 3.913544 12.55828 3.913544 2.35511 0 4.54949-.251585 6.56916-.761743v-6.219739c-2.08955.475216-4.02536.712824-5.79344.712824-2.32716 0-4.20007-.307493-5.62572-.929467s-2.48091-1.621325-3.15879-2.998054c-.68487-1.383717-1.0273-3.221685-1.0273-5.513903 0-3.221685.68487-5.5558342 2.06858-7.0024476 1.38372-1.4466135 3.47327-2.1734144 6.28963-2.1734144.50317 0 .87356.00699 1.12514.020965v8.889335h6.93955v-14.48011106c-2.64863-.43328518-5.09459-.64992777-7.35187-.64992777-5.65367 0-9.8817 1.26491323-12.68407 3.80871643-1.34179 1.2090055-2.36909 2.7394805-3.06794 4.5774483l2.90021 7.1492051zm204.72725-22.61469124c-2.82334 0-5.26232.55907765-7.32392 1.67723294-2.06859 1.1181553-3.66895 2.8373191-4.80807 5.1574913-1.13213 2.3271607-1.69121 5.234364-1.69121 8.721611 0 3.501224.55908 6.401439 1.69121 8.7286 1.13912 2.327161 2.73948 4.039336 4.80807 5.157491 2.0616 1.125144 4.50058 1.684222 7.32392 1.684222 2.80936 0 5.24135-.559078 7.30994-1.684222 2.05461-1.118155 3.65497-2.83033 4.7871-5.157491s1.6982-5.227376 1.6982-8.7286c0-3.487247-.56607-6.3944503-1.6982-8.721611-1.13213-2.3201722-2.73249-4.039336-4.7871-5.1574913-2.06859-1.11815529-4.50058-1.67723294-7.30994-1.67723294" stroke="black"/>
			
      
			
			
    
		</g>
		
  
	</g>
	

</svg>