<?xml version="1.0" encoding="iso-8859-1"?><svg height="307" viewBox="0 0 769.02063 307" width="769.02063" xmlns="http://www.w3.org/2000/svg">
	
  
	<g transform="matrix(1.3333333 0 0 -1.3333333 .000063 306.99996)">
		
    
		<path animation_id="0" d="m288.42811 129.04208c-.60101 6.44337-2.80936 11.24445-6.63206 14.38926-3.82968 3.1518-8.88933 4.72421-15.18594 4.72421-6.29662 0-11.51002-1.61434-15.62622-4.83602-4.1232-3.22169-6.86268-7.98084-8.21146-14.27745zm126.16286-2.69755-16.41592 48.35323-16.4229-48.35323zm60.72282-65.670656h-38.68118l-11.6987 35.082122h-53.74833l-11.92233-35.082122h-38.0033l59.37404 166.423436h35.53638zm101.45163 131.788576h-45.20842v-131.788576h-36.43089v131.788576h-45.42506v34.63486h127.06437zm-523.366563-5.41606c3.508212 6.93256 7.862029 13.16628 13.054463 18.68018 7.351871 7.79913 16.122401 13.87211 26.31858 18.21894 10.18919 4.34683 21.51051 6.45036 33.95698 6.29661 18.14207 0 33.81022-4.26995 47.00445-12.81685 13.48775-8.70065 22.56577-19.9451 27.20612-33.73335l-32.83184-13.2711c-3.29856 8.69365-8.58184 15.14401-15.85684 19.34408-7.26801 4.19308-15.62622 6.29661-25.07463 6.29661-7.19812 0-13.68342-1.27889-19.44891-3.82269-5.77947-2.55079-10.650432-6.14985-14.619884-10.79719-3.976439-4.64733-7.051366-10.27305-9.224781-16.87016-2.173414-6.59712-3.256627-13.942-3.256627-22.03465 0-16.34603 4.123198-28.82744 12.369593-37.44423 8.246399-8.62377 19.190339-12.935656 32.831839-12.935656 4.94783 0 9.74891.601008 14.39625 1.803025 4.64733 1.195028 8.80547 3.074927 12.4814 5.61873 3.66895 2.550791 6.82075 5.849351 9.44143 9.895671 2.62067 4.04633 4.38876 8.84741 5.28328 14.39625v3.36845h-44.29991v31.93731h78.26388v-98.502496h-31.25943l-2.02666 14.843511c-4.79409-5.84935-11.3912-10.196179-19.79135-13.047475-8.39315-2.844307-17.31743-4.269955-26.75885-4.269955-11.54495-.153746-22.153452 1.949783-31.825495 6.296612s-17.918438 10.342936-24.739186 17.988323c-4.682275 5.25533-8.651726 11.174565-11.887388 17.74373l17.764692 43.76879zm188.472063-81.61835c.90151-6.296613 3.71088-10.909003 8.43508-13.830184 4.72421-2.928169 10.23113-4.38876 16.52774-4.38876 11.24445 0 19.19034 4.500575 23.83767 13.494734l28.7925-11.244446c-3.89957-9.895674-10.57356-17.652877-20.02197-23.278596-9.44142-5.61873-20.23861-8.435084-32.37758-8.435084-8.40014 0-16.12241 1.425648-23.16678 4.276944-7.04438 2.851296-13.11736 6.897621-18.21895 12.145962-5.09459 5.241353-9.06404 11.503023-11.91534 18.778021-2.85129 7.268009-4.26995 15.332709-4.26995 24.173119 0 9.00115 1.41866 17.12874 4.26995 24.40374 2.8513 7.26801 6.77882 13.52968 11.80353 18.77802s11.09769 9.29467 18.21894 12.14596c7.12125 2.84431 14.95533 4.26996 23.50223 4.26996s16.26217-1.42565 23.15979-4.26996c6.89762-2.85129 12.82384-6.89762 17.76469-12.14596 4.94784-5.24834 8.77752-11.54495 11.47507-18.88984 2.69755-7.34488 4.04632-15.52139 4.04632-24.51555v-11.46808" fill="#2056ae" stroke="black"/>
		
    
		
		
    
		<g fill="#4dc2a9">
			
      
			
			
      
			
			
    
		</g>
		
  
	</g>
	

</svg>