<?xml version="1.0" encoding="iso-8859-1"?><!DOCTYPE svg  PUBLIC '-//W3C//DTD SVG 1.1//EN'  'http://www.w3.org/Graphics/SVG/1.1/DTD/svg11.dtd'><svg height="141.73" id="svg50616" version="1.1" width="340.16" xmlns="http://www.w3.org/2000/svg" xmlns:svg="http://www.w3.org/2000/svg">
	
  
	<defs id="defs50618"/>
	
  
	
	
  
	<path animation_id="1" d="M 303.45801,106.575 V 96.179996 h 2.091 v 1.109 c 0.698,-0.821 1.641,-1.23 2.748,-1.23 1.62,0 3.464,1.251 3.464,3.607 V 106.575 h -2.09 v -6.191 c 0,-1.415004 -0.883,-2.234004 -2.052,-2.234004 -1.188,0 -2.07,0.819 -2.07,2.234004 v 6.191 h -2.091 m -9.49,-6.13 h 4.387 c -0.062,-1.579004 -0.964,-2.419004 -2.193,-2.419004 -1.229,0 -2.153,0.84 -2.194,2.419004 z m 6.477,1.723 h -6.478 c 0,1.7 1.045,2.562 2.48,2.562 0.799,0 1.66,-0.368 2.275,-1.005 l 1.517,1.292 c -1.025,1.188 -2.357,1.681 -3.752,1.681 -2.131,0 -4.611,-1.024 -4.611,-5.288 0,-4.039004 2.274,-5.351004 4.284,-5.351004 2.296,0 4.284,1.701 4.284,4.387004 v 1.722 z m -26.21,4.407 V 96.179996 h 2.092 v 1.109 c 0.696,-0.821 1.64,-1.23 2.746,-1.23 1.457,0 2.194,0.595 2.933,1.353 0.861,-0.943 1.866,-1.353 3.279,-1.353 1.62,0 3.466,1.251 3.466,3.607 V 106.575 h -2.092 v -6.191 c 0,-1.415004 -0.882,-2.234004 -2.05,-2.234004 -1.188,0 -2.071,0.819 -2.071,2.234004 v 6.191 h -2.09 v -6.191 c 0,-1.415004 -0.882,-2.234004 -2.051,-2.234004 -1.189,0 -2.07,0.819 -2.07,2.234004 v 6.191 h -2.092 z m -9.613,-6.13 h 4.387 c -0.062,-1.579004 -0.964,-2.419004 -2.193,-2.419004 -1.231,0 -2.154,0.84 -2.194,2.419004 z m 6.477,1.723 h -6.477 c 0,1.7 1.045,2.562 2.479,2.562 0.8,0 1.661,-0.368 2.276,-1.005 l 1.517,1.292 c -1.024,1.188 -2.356,1.681 -3.751,1.681 -2.132,0 -4.612,-1.024 -4.612,-5.288 0,-4.039004 2.275,-5.351004 4.284,-5.351004 2.295,0 4.283,1.701 4.283,4.387004 v 1.722 z m -17.783,-0.78 c 0,1.661 0.04,1.949 0.409,2.42 0.287,0.368 0.819,0.8 1.661,0.8 0.82,0 1.353,-0.432 1.64,-0.8 0.369,-0.471 0.41,-0.759 0.41,-2.42 0,-1.682004 -0.041,-1.968004 -0.41,-2.438004 -0.287,-0.369 -0.819,-0.8 -1.64,-0.8 -0.842,0 -1.374,0.431 -1.661,0.8 -0.369,0.47 -0.409,0.756 -0.409,2.438004 z m 4.121,5.167 v -1.065 c -0.656,0.715 -1.619,1.208 -2.686,1.208 -1.353,0 -2.276,-0.676 -2.747,-1.27 -0.594,-0.779 -0.779,-1.169 -0.779,-4.04 0,-2.890004 0.186,-3.279004 0.779,-4.059004 0.471,-0.594 1.395,-1.271 2.747,-1.271 1.066,0 1.907,0.409 2.686,1.23 v -1.108 h 2.091 V 106.33 c 0,3.137 -2.132,4.57 -4.511,4.57 -1.331,0 -2.685,-0.697 -3.606,-1.742 l 1.619,-1.292 c 0.511,0.513 1.229,0.942 2.028,0.942 1.395,10e-4 2.379,-0.797 2.379,-2.253 z m -11.459,-3.629 v -0.758 h -2.502 c -1.229,0 -1.803,0.492 -1.803,1.249 0,0.697 0.553,1.312 1.968,1.312 1.742,0 2.337,-0.184 2.337,-1.803 z m 0,3.649 v -0.923 c -0.472,0.718 -1.189,1.045 -2.604,1.045 -2.317,0 -3.67,-1.373 -3.67,-3.177 0,-1.661 1.147,-3.075 3.383,-3.075 h 2.891 v -1.086004 c 0,-0.983 -0.636,-1.333 -2.132,-1.333 -1.087,0 -1.6,0.205 -1.969,0.8 l -1.641,-1.251 c 0.801,-1.107 1.948,-1.517 3.507,-1.517 2.562,0 4.325,0.86 4.325,3.423 V 106.575 h -2.09 z m -17.277,0 V 96.179996 h 2.091 v 1.109 c 0.697,-0.821 1.639,-1.23 2.746,-1.23 1.62,0 3.465,1.251 3.465,3.607 V 106.575 h -2.091 v -6.191 c 0,-1.415004 -0.881,-2.234004 -2.049,-2.234004 -1.19,0 -2.071,0.819 -2.071,2.234004 v 6.191 h -2.091 z m -5.616,-3.649 v -0.758 h -2.502 c -1.23,0 -1.804,0.492 -1.804,1.249 0,0.697 0.553,1.312 1.968,1.312 1.743,0 2.338,-0.184 2.338,-1.803 z m 0,3.649 v -0.923 c -0.473,0.718 -1.19,1.045 -2.604,1.045 -2.316,0 -3.669,-1.373 -3.669,-3.177 0,-1.661 1.147,-3.075 3.383,-3.075 h 2.891 v -1.086004 c 0,-0.983 -0.636,-1.333 -2.133,-1.333 -1.087,0 -1.6,0.205 -1.968,0.8 l -1.64,-1.251 c 0.8,-1.107 1.947,-1.517 3.505,-1.517 2.562,0 4.326,0.86 4.326,3.423 V 106.575 h -2.091 z m -21.624,0 V 91.978996 h 2.091 l 4.183,9.512004 4.101,-9.512004 h 2.091 V 106.576 h -2.215 v -9.103004 l -3.096,7.012004 h -1.844 l -3.056,-7.012004 -0.04,9.103004 h -2.215 z m -13.602,-0.41 -3.731,-9.985004 h 2.214 l 2.46,7.279004 2.501,-7.279004 h 2.215 l -4.47,12.548004 c -0.574,1.6 -1.661,2.051 -2.932,2.051 h -0.696 v -1.97 h 0.614 c 0.533,0 1.045,-0.286 1.251,-0.9 l 0.574,-1.744 z m -8.624,-9.985004 v -3.155 h 2.092 v 3.155 h 1.517 v 1.601 h -1.517 V 103.829 c 0,0.574 0.224,0.779 0.738,0.779 h 0.778 v 1.968 h -1.087 c -1.455,0 -2.521,-0.923 -2.521,-2.562 v -6.234004 h -1.046 v -1.6 h 1.046 z m -3.708,-2.111 h -2.09 v -2.091 h 2.09 v 2.091 z m 0,12.506004 h -2.09 V 96.179996 h 2.09 V 106.575 z m -8.257,-2.521 V 91.978996 h 2.091 V 103.89 c 0,0.472 0.267,0.718 0.78,0.718 h 0.717 v 1.968 h -0.922 c -1.517,-10e-4 -2.666,-0.657 -2.666,-2.522 z m -3.584,-9.985004 h -2.091 v -2.091 h 2.091 v 2.091 z m 0,12.506004 h -2.091 V 96.179996 h 2.091 V 106.575 z m -5.959,-3.054 1.537,1.373 c -0.901,1.045 -2.153,1.804 -3.731,1.804 -2.399,0 -4.715,-1.516 -4.715,-5.31 0,-3.812004 2.316,-5.329004 4.715,-5.329004 1.578,0 2.83,0.758 3.731,1.804 l -1.537,1.373 c -0.513,-0.636 -1.251,-1.086 -2.112,-1.086 -1.701,0 -2.706,0.964 -2.706,3.238004 0,2.256 1.005,3.22 2.706,3.22 0.861,-0.001 1.599,-0.452 2.112,-1.087 z m -11.726,-0.595 v -0.758 h -2.501 c -1.23,0 -1.805,0.492 -1.805,1.249 0,0.697 0.554,1.312 1.969,1.312 1.742,0 2.337,-0.184 2.337,-1.803 z m 0,3.649 v -0.923 c -0.471,0.718 -1.189,1.045 -2.604,1.045 -2.316,0 -3.669,-1.373 -3.669,-3.177 0,-1.661 1.147,-3.075 3.382,-3.075 h 2.891 v -1.086004 c 0,-0.983 -0.635,-1.333 -2.132,-1.333 -1.086,0 -1.599,0.205 -1.968,0.8 l -1.64,-1.251 c 0.799,-1.107 1.948,-1.517 3.505,-1.517 2.563,0 4.326,0.86 4.326,3.423 V 106.575 h -2.091 z m -16.6,0 V 91.978996 h 9.328 v 2.091 h -7.114 v 4.307 h 6.068 V 100.344 h -6.068 v 6.232 h -2.214 z m 186.004,-10.395004 v -3.155 h 2.091 v 3.155 h 1.517 v 1.601 h -1.517 V 103.829 c 0,0.574 0.226,0.779 0.738,0.779 h 0.778 v 1.968 h -1.086 c -1.455,0 -2.521,-0.923 -2.521,-2.562 v -6.234004 h -1.046 v -1.6 h 1.046 z" id="path50608" stroke="black" style="fill:#869199;"/>
	

</svg>