<?xml version="1.0" encoding="iso-8859-1"?><!DOCTYPE svg  PUBLIC '-//W3C//DTD SVG 1.1//EN'  'http://www.w3.org/Graphics/SVG/1.1/DTD/svg11.dtd'><svg height="141.73" id="svg50616" version="1.1" width="340.16" xmlns="http://www.w3.org/2000/svg" xmlns:svg="http://www.w3.org/2000/svg">
	
  
	<defs id="defs50618"/>
	
  
	<path animation_id="0" d="m 273.22901,72.691996 v -24.055 h 6.485 v 4.535 c 1.679,-3.387 4.235,-5.082 7.667,-5.082 0.409,0 0.812,0.043 1.206,0.131 v 5.784 c -0.921,-0.335 -1.774,-0.503 -2.563,-0.504 -2.586,0 -4.688,1.308 -6.31,3.921 v 15.271 h -6.485 m -19.848,-14.395 h 8.632 c 0,-4.104 -1.322,-6.155 -3.966,-6.156 -2.688,0 -4.243,2.053 -4.666,6.156 z m 15.008,13.583 c -3.082,0.905 -6.003,1.358 -8.765,1.358 -4.016,0 -7.185,-1.138 -9.507,-3.418 -2.323,-2.277 -3.483,-5.389 -3.483,-9.332 0,-3.725 1.058,-6.719 3.176,-8.983 2.133,-2.278 4.944,-3.417 8.435,-3.417 3.52,0 6.09,1.11 7.712,3.33 1.621,2.22 2.433,5.733 2.433,10.538 h -14.921 c 0.438,4.586 2.958,6.879 7.56,6.879 2.175,0 4.629,-0.504 7.361,-1.512 v 4.557 z m -32.636,0.811 v -4.535 c -2.104,3.389 -4.835,5.082 -8.194,5.082 -2.146,0 -3.841,-0.679 -5.082,-2.037 -1.241,-1.358 -1.862,-3.213 -1.862,-5.564 v -17.001 h 6.484 v 15.401 c 0,2.731 0.913,4.097 2.739,4.097 2.043,0 4.016,-1.452 5.915,-4.359 v -15.139 h 6.485 v 24.056 h -6.485 z m -27.274,-6.068 v -4.886 h -1.533 c -4.193,0 -6.288,1.314 -6.288,3.943 0,0.891 0.299,1.643 0.898,2.257 0.613,0.599 1.364,0.897 2.256,0.897 1.52,10e-4 3.075,-0.736 4.667,-2.211 z m 0,3.483 c -2.163,2.088 -4.478,3.132 -6.945,3.132 -2.104,0 -3.812,-0.641 -5.126,-1.927 -1.314,-1.286 -1.972,-2.951 -1.972,-4.996 0,-2.657 1.058,-4.702 3.176,-6.134 2.132,-1.446 5.179,-2.169 9.137,-2.169 h 1.73 v -2.191 c 0,-2.498 -1.425,-3.747 -4.272,-3.747 -2.527,0 -5.082,0.716 -7.668,2.147 v -4.469 c 2.937,-1.11 5.842,-1.665 8.72,-1.665 6.294,0 9.442,2.505 9.442,7.514 v 10.647 c 0,1.884 0.606,2.826 1.818,2.826 0.219,0 0.504,-0.028 0.854,-0.087 l 0.153,3.636 c -1.373,0.408 -2.586,0.613 -3.637,0.613 -2.657,0 -4.368,-1.044 -5.127,-3.132 h -0.283 z m -34.031,-3.703 c 1.578,1.753 3.257,2.629 5.04,2.629 1.591,0 2.862,-0.767 3.812,-2.3 0.949,-1.548 1.424,-3.607 1.425,-6.179 0,-4.921 -1.587,-7.382 -4.755,-7.383 -1.914,0 -3.753,1.234 -5.521,3.703 v 9.53 z m -6.483,6.288 v -34.593 h 6.483 v 15.073 c 1.666,-3.387 4.287,-5.082 7.866,-5.082 2.892,0 5.162,1.059 6.812,3.176 1.666,2.118 2.497,5.032 2.497,8.741 0,4.018 -0.935,7.23 -2.804,9.64 -1.868,2.396 -4.367,3.593 -7.491,3.593 -2.688,0 -4.982,-0.992 -6.881,-2.979 l -1.204,2.432 h -5.278 z m -27.401,0 v -24.055 h 6.485 v 4.535 c 2.117,-3.387 4.848,-5.082 8.193,-5.082 2.147,0 3.841,0.679 5.083,2.038 1.241,1.358 1.861,3.213 1.861,5.564 v 17.001 h -6.484 v -15.402 c 0,-2.731 -0.906,-4.096 -2.717,-4.097 -2.059,0 -4.039,1.453 -5.937,4.36 v 15.139 h -6.484 z m -19.986,-14.394 h 8.632 c 0,-4.104 -1.322,-6.155 -3.966,-6.156 -2.688,0 -4.243,2.053 -4.666,6.156 z m 15.007,13.583 c -3.083,0.905 -6.003,1.358 -8.764,1.358 -4.017,0 -7.186,-1.138 -9.508,-3.418 -2.322,-2.277 -3.483,-5.389 -3.483,-9.332 0,-3.725 1.058,-6.719 3.177,-8.983 2.131,-2.278 4.944,-3.417 8.435,-3.417 3.519,0 6.089,1.11 7.711,3.33 1.621,2.22 2.432,5.733 2.432,10.538 h -14.92 c 0.438,4.586 2.958,6.879 7.559,6.879 2.176,0 4.63,-0.504 7.361,-1.512 v 4.557 z m -32.321,-8.15 v -8.872 c -1.563,-1.767 -3.199,-2.65 -4.907004,-2.651 -1.637,0 -2.936,0.745 -3.9,2.234 -0.963,1.49 -1.446,3.491 -1.446,6.003 0,4.703 1.512,7.055 4.535,7.055 2.088,0 3.994004,-1.256 5.718004,-3.769 z m -14.963004,16.431 0.526,-4.709 c 2.672,1.226 5.221,1.839 7.646,1.839 2.395,0 4.125004,-0.511 5.192004,-1.532 1.066,-1.023 1.599,-2.681 1.599,-4.974 v -3.286 c -1.577,3.461 -4.185004,5.192 -7.821004,5.192 -2.863,0 -5.134,-1.065 -6.813,-3.198 -1.681,-2.147 -2.52,-5.047 -2.52,-8.698 0,-3.841 0.942,-6.916 2.826,-9.223 1.884,-2.323 4.388,-3.484 7.515,-3.484 2.453,0 4.724004,0.993 6.813004,2.979 l 0.679,-2.432 h 5.827 v 18.359 c 0,3.666 -0.226,6.309 -0.679,7.932 -0.438,1.62 -1.3,3 -2.585,4.141 -2.163,1.868 -5.208,2.802 -9.136004,2.804 -2.789,0 -5.812,-0.57 -9.069,-1.71 z m -20.797,-21.864 h 8.632 c 0,-4.104 -1.322,-6.155 -3.966,-6.156 -2.688,0 -4.243,2.053 -4.666,6.156 z m 15.007,13.583 c -3.083,0.905 -6.003,1.358 -8.764,1.358 -4.017,0 -7.186,-1.138 -9.508,-3.418 -2.323,-2.277 -3.484,-5.389 -3.484,-9.332 0,-3.725 1.059,-6.719 3.177,-8.983 2.132,-2.278 4.944,-3.417 8.435,-3.417 3.52,0 6.09,1.11 7.712,3.33 1.621,2.22 2.432,5.733 2.432,10.538 h -14.92 c 0.438,4.586 2.958,6.879 7.559,6.879 2.176,0 4.629,-0.504 7.361,-1.512 v 4.557 z m -25.964,0.045 c -4.061,1.052 -7.566,1.576 -10.516,1.576 -5.594,0 -9.896,-1.467 -12.904,-4.402 -2.995,-2.95 -4.491,-7.171 -4.491,-12.664 0,-5.447 1.497,-9.639 4.491,-12.575 3.008,-2.936 7.288,-4.404 12.838,-4.404 3.549,0 7.069,0.417 10.56,1.249 v 5.28 c -4.046,-1.387 -7.369,-2.081 -9.968,-2.081 -3.434,0 -6.084,1.095 -7.953,3.286 -1.869,2.19 -2.804,5.294 -2.804,9.312 0,3.885 1,6.938 3.001,9.157 2,2.206 4.761,3.309 8.282,3.309 0.773,0 1.679,-0.109 2.716,-0.329 v -7.752 h -6.667 v -4.554 h 13.387 l 0.028,15.592 z" id="path50606" stroke="black" style="fill:#008abe;fill-rule:evenodd;"/>
	
  
	
	

</svg>