<?xml version="1.0" encoding="iso-8859-1"?><!-- Created with Inkscape (http://www.inkscape.org/) --><svg height="500" id="svg3460" inkscape:version="0.48.1 " sodipodi:docname="Neues Dokument 2" version="1.1" width="606.77966" xmlns="http://www.w3.org/2000/svg" xmlns:cc="http://creativecommons.org/ns#" xmlns:dc="http://purl.org/dc/elements/1.1/" xmlns:inkscape="http://www.inkscape.org/namespaces/inkscape" xmlns:rdf="http://www.w3.org/1999/02/22-rdf-syntax-ns#" xmlns:sodipodi="http://sodipodi.sourceforge.net/DTD/sodipodi-0.dtd" xmlns:svg="http://www.w3.org/2000/svg">
	
  
	<defs id="defs3462"/>
	
  
	<sodipodi:namedview bordercolor="#666666" borderopacity="1.0" fit-margin-bottom="0" fit-margin-left="0" fit-margin-right="0" fit-margin-top="0" id="base" inkscape:current-layer="layer1" inkscape:cx="303.38983" inkscape:cy="250" inkscape:document-units="px" inkscape:pageopacity="0.0" inkscape:pageshadow="2" inkscape:window-height="990" inkscape:window-maximized="1" inkscape:window-width="1680" inkscape:window-x="-4" inkscape:window-y="-4" inkscape:zoom="1.546" pagecolor="#ffffff" showgrid="false"/>
	
  
	<metadata id="metadata3465">
		
    
		<rdf:RDF>
			
      
			<cc:Work rdf:about="">
				
        
				<dc:format>image/svg+xml</dc:format>
				
        
				<dc:type rdf:resource="http://purl.org/dc/dcmitype/StillImage"/>
				
        
				<dc:title/>
				
      
			</cc:Work>
			
    
		</rdf:RDF>
		
  
	</metadata>
	
  
	<g id="layer1" inkscape:groupmode="layer" inkscape:label="Ebene 1" transform="translate(-44.767334,67.89687)">
		
    
		<path animation_id="0" d="m 210.03027,117.50615 -31.4312,0 0,35.8402 -0.99557,0 c -3.69778,-13.79566 -19.91124,-40.96019 -57.31578,-40.96019 -54.613581,0 -75.520386,57.45803 -75.520386,115.91163 0,54.32912 16.782312,108.08938 74.524816,108.08938 37.97347,0 53.76022,-27.16459 58.31135,-41.81355 l 0.99557,0 0,38.54239 c 0,39.1113 -9.67119,72.6759 -66.70255,72.6759 -30.008993,0 -51.769081,-11.52006 -55.040216,-12.80008 l 0,31.71572 c 7.395552,1.42217 25.457861,7.39558 59.733566,7.39558 63.43141,0 93.4404,-33.13795 93.4404,-95.2893 l 0,-219.30768 z M 80.891958,228.72444 c 0,-46.93354 12.515608,-90.16932 45.795742,-90.16932 37.54683,0 51.91137,50.20471 51.91137,84.19596 0,36.83571 -14.79118,87.46707 -52.76473,87.46707 -37.54683,0 -44.942382,-47.92911 -44.942382,-81.49371 z m 0,0" id="path15" inkscape:connector-curvature="0" stroke="black" style="fill:#7a7578;fill-opacity:1;fill-rule:nonzero;"/>
		
    
		
		
    
		
		
    
		
		
  
	</g>
	

</svg>