<?xml version="1.0" encoding="iso-8859-1"?><!-- Created with Inkscape (http://www.inkscape.org/) --><svg height="500" id="svg3460" inkscape:version="0.48.1 " sodipodi:docname="Neues Dokument 2" version="1.1" width="606.77966" xmlns="http://www.w3.org/2000/svg" xmlns:cc="http://creativecommons.org/ns#" xmlns:dc="http://purl.org/dc/elements/1.1/" xmlns:inkscape="http://www.inkscape.org/namespaces/inkscape" xmlns:rdf="http://www.w3.org/1999/02/22-rdf-syntax-ns#" xmlns:sodipodi="http://sodipodi.sourceforge.net/DTD/sodipodi-0.dtd" xmlns:svg="http://www.w3.org/2000/svg">
	
  
	<defs id="defs3462"/>
	
  
	<sodipodi:namedview bordercolor="#666666" borderopacity="1.0" fit-margin-bottom="0" fit-margin-left="0" fit-margin-right="0" fit-margin-top="0" id="base" inkscape:current-layer="layer1" inkscape:cx="303.38983" inkscape:cy="250" inkscape:document-units="px" inkscape:pageopacity="0.0" inkscape:pageshadow="2" inkscape:window-height="990" inkscape:window-maximized="1" inkscape:window-width="1680" inkscape:window-x="-4" inkscape:window-y="-4" inkscape:zoom="1.546" pagecolor="#ffffff" showgrid="false"/>
	
  
	<metadata id="metadata3465">
		
    
		<rdf:RDF>
			
      
			<cc:Work rdf:about="">
				
        
				<dc:format>image/svg+xml</dc:format>
				
        
				<dc:type rdf:resource="http://purl.org/dc/dcmitype/StillImage"/>
				
        
				<dc:title/>
				
      
			</cc:Work>
			
    
		</rdf:RDF>
		
  
	</metadata>
	
  
	<g id="layer1" inkscape:groupmode="layer" inkscape:label="Ebene 1" transform="translate(-44.767334,67.89687)">
		
    
		
		
    
		<path animation_id="1" d="m 305.34808,19.08794 -31.43128,0 0,227.12991 c 0,28.58682 3.69777,95.28931 82.34708,95.28931 63.00472,0 88.46257,-49.20908 88.46257,-112.35606 0,-56.46246 -18.06233,-116.76494 -78.64924,-116.76494 -37.54684,0 -54.61358,25.74231 -59.73357,41.38684 l -0.99557,0 0,-134.68506 z m 0,216.60543 c 0,-43.23578 15.36003,-97.13825 54.61358,-97.13825 36.55128,0 48.64025,47.92911 48.64025,89.74267 0,43.66243 -13.93791,86.89815 -53.19139,86.89815 -46.36467,0 -50.06244,-54.18692 -50.06244,-79.50257 z m 0,0" id="path17" inkscape:connector-curvature="0" stroke="black" style="fill:#7a7578;fill-opacity:1;fill-rule:nonzero;"/>
		
    
		
		
    
		
		
  
	</g>
	

</svg>