<?xml version="1.0" encoding="iso-8859-1"?><!-- Generator: Adobe Illustrator 23.0.1, SVG Export Plug-In . SVG Version: 6.00 Build 0)  --><svg id="Ebene_1" style="enable-background:new 0 0 513.52 74.2;" version="1.1" viewBox="0 0 513.52 74.2" x="0px" xml:space="preserve" xmlns="http://www.w3.org/2000/svg" xmlns:xlink="http://www.w3.org/1999/xlink" y="0px">
	

	<g>
		
	
		<g>
			
		
			
			
		
			<path animation_id="0" d="M253.05,34.61c0,0,11.85-2.59,10.65-16.91c-1.2-14.32-13.35-16.97-21.24-17.45l-23.28-0.14V9.6h21.87    c0,0,12.52-0.56,11.57,10.85c-0.96,11.41-9.74,11.01-14.6,11.49h-18.67v9.58h24.1c0,0,15.4-0.48,15.16,11.17    c-0.24,11.65-10.69,11.57-15.72,11.73H219.1v9.79h26.42h0.01h0.04c1.16-0.01,19.86-0.37,23.59-15.58    C273.02,42.91,258.34,34.97,253.05,34.61z" stroke="black"/>
			
		
			
			
		
			
			
		
			
			
		
			
			
		
			
			
		
			
			
		
			
			
		
			
			
	
		</g>
		

	</g>
	

</svg>