<?xml version="1.0" encoding="iso-8859-1"?><!-- Generator: Adobe Illustrator 23.0.1, SVG Export Plug-In . SVG Version: 6.00 Build 0)  --><svg id="Ebene_1" style="enable-background:new 0 0 513.52 74.2;" version="1.1" viewBox="0 0 513.52 74.2" x="0px" xml:space="preserve" xmlns="http://www.w3.org/2000/svg" xmlns:xlink="http://www.w3.org/1999/xlink" y="0px">
	

	<g>
		
	
		<g>
			
		
			
			
		
			
			
		
			
			
		
			
			
		
			
			
		
			
			
		
			
			
		
			
			
		
			
			
		
			<path animation_id="2" d="M375.2,38.76c0,0,13.3-2.89,15.52-9.33c2.23-6.44,3.19-17.93-3.61-24.01c-6.8-6.08-18.72-5.3-18.72-5.3h-24.43l0.06,73.78    h10.53V41.05c0,0,8.42-0.84,13.06,3.49c0,0,2.23,2.05,2.83,3.07c0.6,1.02,17.45,26.35,17.45,26.35h12.94l-18.96-28.22    C381.88,45.74,377.43,39.6,375.2,38.76z M363.16,32.21h-8.56V9.09l12.6,0.04c10.66-0.63,17.49,3.45,15.22,14.43    C380.74,31.67,364.88,32.44,363.16,32.21z" stroke="black"/>
			
	
		</g>
		

	</g>
	

</svg>