<?xml version="1.0" encoding="iso-8859-1"?><!-- Generator: Adobe Illustrator 18.1.1, SVG Export Plug-In . SVG Version: 6.00 Build 0)  --><!DOCTYPE svg  PUBLIC '-//W3C//DTD SVG 1.1//EN'  'http://www.w3.org/Graphics/SVG/1.1/DTD/svg11.dtd'><svg enable-background="new 0 0 841.9 595.3" id="Ebene_1" version="1.1" viewBox="0 0 841.9 595.3" x="0px" xml:space="preserve" xmlns="http://www.w3.org/2000/svg" xmlns:xlink="http://www.w3.org/1999/xlink" y="0px">
	

	<g>
		
	
		<g>
			
		
			
			
		
			
			
		
			
			
	
		</g>
		
	
		<g>
			
		
			
			
		
			
			
		
			
			
		
			
			
		
			
			
	
		</g>
		
	
		<g>
			
		
			
			
		
			
			
		
			
			
		
			<path animation_id="5" d="M357.3,288.7c4.8-1.2,11.9-1.9,19.5-1.9c12.4,0,21.1,2.9,27.4,8.8c8.5,7.6,12.9,20.6,12.9,39.8    c0,19.9-5.1,34.1-13.8,41.7c-6.7,6.3-16.4,9.5-30,9.5c-6.1,0-12.1-0.6-16-1.2V288.7z M376.5,370.7c1,0.3,2.3,0.3,3.4,0.3    c9.2,0,17.3-9.1,17.3-36.3c0-20.2-5.3-32.5-16.8-32.5c-1.3,0-2.6,0-3.8,0.4V370.7z" fill="#FFFFFF" stroke="black"/>
			
		
			
			
		
			
			
		
			
			
		
			
			
		
			
			
	
		</g>
		
	
		<g>
			
		
			
			
		
			
			
		
			<g>
				
			
				
				
			
				
				
			
				
				
			
				
				
			
				
				
			
				
				
			
				
				
				
			
				
				
			
				
				
			
				
				
				
			
				
				
			
				
				
			
				
				
			
				
				
			
				
				
		
			</g>
			
		
			
			
			
		
			
			
			
		
			
			
			
		
			
			
			
		
			<g>
				
			
				<g>
					
				
					
					
				
					
					
				
					
					
				
					
					
				
					
					
				
					
					
				
					
					
				
					
					
				
					
					
				
					
					
				
					
					
				
					
					
				
					
					
				
					
					
				
					
					
				
					
					
				
					
					
			
				</g>
				
			
				<g>
					
				
					
					
				
					
					
			
				</g>
				
			
				<g>
					
				
					
					
				
					
					
			
				</g>
				
		
			</g>
			
	
		</g>
		

	</g>
	

</svg>