<?xml version="1.0" encoding="iso-8859-1"?><!-- Generator: Adobe Illustrator 18.1.1, SVG Export Plug-In . SVG Version: 6.00 Build 0)  --><!DOCTYPE svg  PUBLIC '-//W3C//DTD SVG 1.1//EN'  'http://www.w3.org/Graphics/SVG/1.1/DTD/svg11.dtd'><svg enable-background="new 0 0 841.9 595.3" id="Ebene_1" version="1.1" viewBox="0 0 841.9 595.3" x="0px" xml:space="preserve" xmlns="http://www.w3.org/2000/svg" xmlns:xlink="http://www.w3.org/1999/xlink" y="0px">
	

	<g>
		
	
		<g>
			
		
			
			
		
			
			
		
			
			
	
		</g>
		
	
		<g>
			
		
			
			
		
			
			
		
			
			
		
			
			
		
			
			
	
		</g>
		
	
		<g>
			
		
			<path animation_id="2" d="M216.9,383.3c-4.2,1.8-13.2,3.5-20.3,3.5c-11.4,0-20.1-3.2-26.5-9.8c-8.5-8.2-13-22.8-12.7-39.8    c0.4-35.9,20.8-50.8,42-50.8c7.5,0,12.9,1.5,16,2.9l-3.2,16.5c-2.9-1.5-6.6-2.2-11.3-2.2c-13.2,0-23.6,8.9-23.6,34.5    c0,23.7,9.2,32.3,18.3,32.3c1.8,0,3.1-0.1,3.8-0.4v-23.9h-8.9v-15.7h26.5V383.3z" fill="#FFFFFF" stroke="black"/>
			
		
			
			
		
			
			
		
			
			
		
			
			
		
			
			
		
			
			
		
			
			
		
			
			
	
		</g>
		
	
		<g>
			
		
			
			
		
			
			
		
			<g>
				
			
				
				
			
				
				
			
				
				
			
				
				
			
				
				
			
				
				
			
				
				
				
			
				
				
			
				
				
			
				
				
				
			
				
				
			
				
				
			
				
				
			
				
				
			
				
				
		
			</g>
			
		
			
			
			
		
			
			
			
		
			
			
			
		
			
			
			
		
			<g>
				
			
				<g>
					
				
					
					
				
					
					
				
					
					
				
					
					
				
					
					
				
					
					
				
					
					
				
					
					
				
					
					
				
					
					
				
					
					
				
					
					
				
					
					
				
					
					
				
					
					
				
					
					
				
					
					
			
				</g>
				
			
				<g>
					
				
					
					
				
					
					
			
				</g>
				
			
				<g>
					
				
					
					
				
					
					
			
				</g>
				
		
			</g>
			
	
		</g>
		

	</g>
	

</svg>