<?xml version="1.0" encoding="iso-8859-1"?><!-- Generator: Adobe Illustrator 18.1.1, SVG Export Plug-In . SVG Version: 6.00 Build 0)  --><!DOCTYPE svg  PUBLIC '-//W3C//DTD SVG 1.1//EN'  'http://www.w3.org/Graphics/SVG/1.1/DTD/svg11.dtd'><svg enable-background="new 0 0 841.9 595.3" id="Ebene_1" version="1.1" viewBox="0 0 841.9 595.3" x="0px" xml:space="preserve" xmlns="http://www.w3.org/2000/svg" xmlns:xlink="http://www.w3.org/1999/xlink" y="0px">
	

	<g>
		
	
		<g>
			
		
			
			
		
			
			
		
			
			
	
		</g>
		
	
		<g>
			
		
			
			
		
			
			
		
			
			
		
			
			
		
			
			
	
		</g>
		
	
		<g>
			
		
			
			
		
			
			
		
			
			
		
			
			
		
			
			
		
			
			
		
			
			
		
			
			
		
			
			
	
		</g>
		
	
		<g>
			
		
			
			
		
			
			
		
			<g>
				
			
				
				
			
				
				
			
				
				
			
				
				
			
				
				
			
				
				
			
				
				
				
			
				
				
			
				
				
			
				
				
				
			
				
				
			
				
				
			
				
				
			
				
				
			
				
				
		
			</g>
			
		
			
			
			
		
			
			
			
		
			
			
			
		
			
			
			
		
			<g>
				
			
				<g>
					
				
					
					
				
					
					
				
					<path animation_id="19" d="M309.8,421c-2.1-1.2-4.3-1.8-6.7-1.8c-3.5,0-5.3,0.7-5.3,2.1c0,0.8,0.7,1.4,2,1.6      c1.8,0.2,3.6,0.4,5.4,0.5c2.6,0.3,4.4,0.8,5.5,1.5c1.2,0.8,1.8,2.1,1.8,3.8c0,1.9-0.8,3.3-2.3,4.4c-1.5,1-3.7,1.5-6.6,1.5      c-4.1,0-7.3-1-9.8-3.1l1.7-2.4c2.2,1.7,4.9,2.5,8,2.5c1.8,0,3.2-0.3,4.1-0.8c1-0.5,1.5-1.2,1.5-2c0-0.9-0.6-1.6-1.8-2      c-0.7-0.2-1.7-0.4-3.1-0.4c-2.2-0.1-3.5-0.2-4-0.3c-2-0.2-3.4-0.7-4.3-1.4c-0.9-0.7-1.4-1.8-1.4-3.2c0-1.7,0.7-3,2.2-4      c1.5-1,3.6-1.5,6.2-1.5c3.6,0,6.5,0.9,8.7,2.6L309.8,421z" fill="#FFFFFF" stroke="black"/>
					
				
					
					
				
					
					
				
					
					
				
					
					
				
					
					
				
					
					
				
					
					
				
					
					
				
					
					
				
					
					
				
					
					
				
					
					
				
					
					
				
					
					
			
				</g>
				
			
				<g>
					
				
					
					
				
					
					
			
				</g>
				
			
				<g>
					
				
					
					
				
					
					
			
				</g>
				
		
			</g>
			
	
		</g>
		

	</g>
	

</svg>