<?xml version="1.0" encoding="iso-8859-1"?><!-- Generator: Adobe Illustrator 18.1.1, SVG Export Plug-In . SVG Version: 6.00 Build 0)  --><!DOCTYPE svg  PUBLIC '-//W3C//DTD SVG 1.1//EN'  'http://www.w3.org/Graphics/SVG/1.1/DTD/svg11.dtd'><svg enable-background="new 0 0 841.9 595.3" id="Ebene_1" version="1.1" viewBox="0 0 841.9 595.3" x="0px" xml:space="preserve" xmlns="http://www.w3.org/2000/svg" xmlns:xlink="http://www.w3.org/1999/xlink" y="0px">
	

	<g>
		
	
		<g>
			
		
			
			
		
			
			
		
			
			
	
		</g>
		
	
		<g>
			
		
			
			
		
			
			
		
			
			
		
			
			
		
			
			
	
		</g>
		
	
		<g>
			
		
			
			
		
			
			
		
			
			
		
			
			
		
			<path animation_id="6" d="M427,366.3c4,2.2,10.8,3.8,16.2,3.8c8.9,0,13.5-4.7,13.5-11.1c0-7.2-4.4-10.7-12.7-16.1    c-13.5-8.2-18.6-18.6-18.6-27.5c0-15.8,10.5-29,31-29c6.6,0,12.7,1.8,15.5,3.5l-3.1,16.5c-2.8-1.8-7-3.4-12.4-3.4    c-8.2,0-12.2,5-12.2,10.2c0,5.9,2.9,8.9,13.5,15.4c13.2,7.9,17.9,17.9,17.9,28.3c0,18-13.3,29.9-32.5,29.9c-7.9,0-15.5-2-18.9-4    L427,366.3z" fill="#FFFFFF" stroke="black"/>
			
		
			
			
		
			
			
		
			
			
		
			
			
	
		</g>
		
	
		<g>
			
		
			
			
		
			
			
		
			<g>
				
			
				
				
			
				
				
			
				
				
			
				
				
			
				
				
			
				
				
			
				
				
				
			
				
				
			
				
				
			
				
				
				
			
				
				
			
				
				
			
				
				
			
				
				
			
				
				
		
			</g>
			
		
			
			
			
		
			
			
			
		
			
			
			
		
			
			
			
		
			<g>
				
			
				<g>
					
				
					
					
				
					
					
				
					
					
				
					
					
				
					
					
				
					
					
				
					
					
				
					
					
				
					
					
				
					
					
				
					
					
				
					
					
				
					
					
				
					
					
				
					
					
				
					
					
				
					
					
			
				</g>
				
			
				<g>
					
				
					
					
				
					
					
			
				</g>
				
			
				<g>
					
				
					
					
				
					
					
			
				</g>
				
		
			</g>
			
	
		</g>
		

	</g>
	

</svg>