<?xml version="1.0" encoding="iso-8859-1"?><!-- Generator: Adobe Illustrator 13.0.2, SVG Export Plug-In . SVG Version: 6.00 Build 14948)  --><!DOCTYPE svg  PUBLIC '-//W3C//DTD SVG 1.1//EN'  'http://www.w3.org/Graphics/SVG/1.1/DTD/svg11.dtd'><svg enable-background="new 0 0 319.574 233.561" height="233.561px" id="Ebene_1" version="1.1" viewBox="0 0 319.574 233.561" width="319.574px" x="0px" xml:space="preserve" xmlns="http://www.w3.org/2000/svg" xmlns:xlink="http://www.w3.org/1999/xlink" y="0px">
	

	<pattern height="69" id="Unnamed_Pattern" overflow="visible" patternUnits="userSpaceOnUse" viewBox="2.125 -70.896 69 69" width="69" x="-255.415" y="400.622">
		
	
		<g>
			
		
			
			
		
			
			
		
			<g>
				
			
				
				
			
				
				
			
				
				
			
				
				
			
				
				
			
				
				
			
				
				
			
				
				
			
				
				
		
			</g>
			
		
			<g>
				
			
				
				
		
			</g>
			
		
			
			
		
			<g>
				
			
				<g>
					
				
					
					
				
					
					
				
					
					
				
					
					
				
					
					
				
					
					
				
					
					
				
					
					
				
					
					
				
					
					
			
				</g>
				
			
				<g>
					
				
					
					
				
					
					
				
					
					
				
					
					
				
					
					
				
					
					
				
					
					
				
					
					
				
					
					
				
					
					
			
				</g>
				
			
				<g>
					
				
					
					
				
					
					
				
					
					
				
					
					
				
					
					
				
					
					
				
					
					
				
					
					
				
					
					
				
					
					
			
				</g>
				
			
				<g>
					
				
					
					
				
					
					
				
					
					
				
					
					
				
					
					
				
					
					
				
					
					
				
					
					
				
					
					
				
					
					
			
				</g>
				
			
				<g>
					
				
					
					
				
					
					
				
					
					
				
					
					
				
					
					
				
					
					
				
					
					
				
					
					
				
					
					
				
					
					
			
				</g>
				
			
				<g>
					
				
					
					
				
					
					
				
					
					
				
					
					
				
					
					
				
					
					
				
					
					
				
					
					
				
					
					
				
					
					
			
				</g>
				
			
				<g>
					
				
					
					
				
					
					
				
					
					
				
					
					
				
					
					
				
					
					
				
					
					
				
					
					
				
					
					
				
					
					
			
				</g>
				
			
				<g>
					
				
					
					
				
					
					
				
					
					
				
					
					
				
					
					
				
					
					
				
					
					
				
					
					
				
					
					
				
					
					
			
				</g>
				
		
			</g>
			
		
			<g>
				
			
				
				
			
				
				
			
				
				
			
				
				
			
				
				
			
				
				
			
				
				
			
				
				
			
				
				
			
				
				
		
			</g>
			
	
		</g>
		

	</pattern>
	

	
	

	
	

	
	

	
	

	
	

	
	

	
	

	
	

	
	

	
	

	
	

	
	

	
	

	
	

	
	

	
	

	
	

	
	

	
	

	<path animation_id="120" d="M47.565,60.141c0.207-0.125,0.207-0.217,0.321-0.327c0.08-0.097,0.155-0.254,0.236-0.337  c0.261-0.281,0.124-0.313,0.264-0.751c0.896-2.973,0.129-6.646,1.129-10.527c0.389-1.567,1.014-5.028,1.678-6.504  c0.354-0.778,1.229-1.747,1.43-2.701c0.777-3.193-1.65-7.106-2.26-7.282c-0.649-0.834-6.834,0.369-10.832,1.442  c-2.455,0.688-2.502-0.363-7.022,0.688c-2.169,0.488-3.88,0.908-4.337,3.13c-0.287,1.221,0.424,4.825,0.989,4.978  c2.04,0.632,3.056-0.608,5.779-1.064c1.696-0.272,2.672-0.061,4.326-0.456c0.809-0.199,2.299-0.932,3.528-0.559  c0.636,0.198,0.958,1.102,0.652,1.835c-0.281,0.668-0.817,1.47-1.396,1.839c-0.864,0.566-2.366,1.636-3.345,1.881  c-0.759,0.202-1.537-0.083-2.278,0.11c-0.378,0.097-1.29,0.622-1.769,0.695c-2.068,0.268-5.2,0.198-6.886-0.165  c-0.658-0.147-1.662-0.627-2.247-0.788c-2.191-0.512-5.083-1.6-5.634-3.623c-1.062-3.978,6.478-11.739,8.409-13.681  c2.056-2.069,4.077-3.978,6.585-5.591c0.968-0.622,1.958-1.973,3.17-2.286c0.581-0.143,0.956,0.028,1.21,0.106  c2.145,0.678,3.133,4.692,3.634,4.84c1.691,0.512,3.039-0.608,3.444-1.447c0.506-1.125,0.319-3.222-0.052-4.352  c-0.525-1.53-2.532-3.715-3.918-4.369c-0.499-0.235-1.056-0.254-1.609-0.41c-0.79-0.254-1.964-0.936-3.275-0.447  c-3.067,1.115-4.715,2.937-6.949,4.664c-0.838,0.65-1.725,1.222-2.533,1.913c-2.614,2.166-6.373,6.112-8.182,9.057  c-1.187,1.923-2.767,2.96-3.455,5.531c-0.127,0.466-0.739,1.079-0.869,1.59c-0.155,0.604,0.046,1.005-0.107,1.609  c-0.263,1.078-0.697,2.89-0.278,4.323c0.101,0.327,0.482,0.553,0.576,0.88c0.19,0.591,0.243,1.125,0.445,1.696  c0.158,0.378,0.579,0.659,0.729,0.908c0.874,1.327,1.273,2.079,2.606,2.886c1.691,0.995,4.282,1.719,6.349,2.175  c0.508,0.111,1.087-0.133,1.585-0.036c0.161,0.051,0.542,0.479,0.686,0.507c0.857,0.193,2.048-0.01,2.951-0.037  c5.099-0.078,7.983-0.912,11.146-2.715c0.296,1.954-0.099,4.816-0.161,6.826c-0.031,1.144,0.116,1.895,0.109,3.093  c0.176,0.729,2.291,0.839,2.901,1.286C45.89,60.813,47.334,60.288,47.565,60.141L47.565,60.141z" fill="#FFFFFF" stroke="black"/>
	

	<g>
		
	
		
		
	
		
		
	
		
		
	
		
		
	
		
		
	
		
		
	
		
		
	
		
		
	
		
		
	
		
		
	
		
		
	
		
		
	
		
		
	
		
		
	
		
		
	
		
		
	
		
		
	
		
		
	
		
		
	
		
		
	
		
		
	
		
		
	
		
		
	
		
		
	
		
		
	
		
		
	
		
		
	
		
		
	
		
		
	
		
		
	
		
		
	
		
		
	
		
		
	
		
		
	
		
		
	
		
		
	
		
		

	</g>
	

</svg>