<?xml version="1.0" encoding="iso-8859-1"?><!-- Generator: Adobe Illustrator 13.0.2, SVG Export Plug-In . SVG Version: 6.00 Build 14948)  --><!DOCTYPE svg  PUBLIC '-//W3C//DTD SVG 1.1//EN'  'http://www.w3.org/Graphics/SVG/1.1/DTD/svg11.dtd'><svg enable-background="new 0 0 319.574 233.561" height="233.561px" id="Ebene_1" version="1.1" viewBox="0 0 319.574 233.561" width="319.574px" x="0px" xml:space="preserve" xmlns="http://www.w3.org/2000/svg" xmlns:xlink="http://www.w3.org/1999/xlink" y="0px">
	

	<pattern height="69" id="Unnamed_Pattern" overflow="visible" patternUnits="userSpaceOnUse" viewBox="2.125 -70.896 69 69" width="69" x="-255.415" y="400.622">
		
	
		<g>
			
		
			
			
		
			
			
		
			<g>
				
			
				
				
			
				
				
			
				
				
			
				
				
			
				
				
			
				
				
			
				
				
			
				
				
			
				
				
		
			</g>
			
		
			<g>
				
			
				
				
		
			</g>
			
		
			
			
		
			<g>
				
			
				<g>
					
				
					
					
				
					
					
				
					
					
				
					
					
				
					
					
				
					
					
				
					
					
				
					
					
				
					
					
				
					
					
			
				</g>
				
			
				<g>
					
				
					
					
				
					
					
				
					
					
				
					
					
				
					
					
				
					
					
				
					
					
				
					
					
				
					
					
				
					
					
			
				</g>
				
			
				<g>
					
				
					
					
				
					
					
				
					
					
				
					
					
				
					
					
				
					
					
				
					
					
				
					
					
				
					
					
				
					
					
			
				</g>
				
			
				<g>
					
				
					
					
				
					
					
				
					
					
				
					
					
				
					
					
				
					
					
				
					
					
				
					
					
				
					
					
				
					
					
			
				</g>
				
			
				<g>
					
				
					
					
				
					
					
				
					
					
				
					
					
				
					
					
				
					
					
				
					
					
				
					
					
				
					
					
				
					
					
			
				</g>
				
			
				<g>
					
				
					
					
				
					
					
				
					
					
				
					
					
				
					
					
				
					
					
				
					
					
				
					
					
				
					
					
				
					
					
			
				</g>
				
			
				<g>
					
				
					
					
				
					
					
				
					
					
				
					
					
				
					
					
				
					
					
				
					
					
				
					
					
				
					
					
				
					
					
			
				</g>
				
			
				<g>
					
				
					
					
				
					
					
				
					
					
				
					
					
				
					
					
				
					
					
				
					
					
				
					
					
				
					
					
				
					
					
			
				</g>
				
		
			</g>
			
		
			<g>
				
			
				
				
			
				
				
			
				
				
			
				
				
			
				
				
			
				
				
			
				
				
			
				
				
			
				
				
			
				
				
		
			</g>
			
	
		</g>
		

	</pattern>
	

	
	

	
	

	
	

	
	

	
	

	
	

	
	

	
	

	
	

	
	

	
	

	
	

	
	

	
	

	
	

	
	

	<path animation_id="117" d="M225.387,15.174c-0.752,0.239-2.13,1.936-2.562,2.683c-0.379,0.645-1.321,1.221-1.678,1.861  c-0.789,1.447-1.701,2.794-2.473,4.19c-1.675,3.097-2.563,6.53-4.414,9.545c-0.64,1.052-2.156,1.111-2.492,2.545  c-0.467,1.866-0.482,3.867-1.188,5.535c-1.02,2.425-2.565,3.323-3.206,6.513c-0.551,2.655,0.874,3.729,2.492,4.213  c1.411,0.429,2.102-1.318,2.408-2.014c0.767-1.844,2.517-7.075,4.212-7.647c2.066-0.691,3.298-0.363,5.686-1.271  c0.702-0.244,3.732-0.056,5.528-0.323c-0.028,1.227-0.3,7.121-0.272,8.73c0.03,3.019,0.871,5.808,2.035,6.199  c0.893,0.336,1.713,0.06,2.496,0.143c0.125-0.198,0.105-0.327,0.232-0.507c0.088-0.069,0.205-0.064,0.256-0.171  c0.143-0.193,0.074-0.346,0.174-0.641c0.573-1.7,0.73-4.821,0.29-6.78c-0.632-2.802-0.046-5.886-0.054-8.393  c1.644-0.591,1.904-1.015,2.13-2.969c0.06-0.373,0.138-1.571,0.138-1.622c0-0.102-0.022-0.623-0.022-0.623  c0.051-0.097-0.017-0.69-0.046-0.751c-0.258-0.553-1.051-0.226-1.94-0.212c0.161-1.276,0.042-3.798-0.245-5.374  c-0.317-1.774,0.047-2.683-0.465-4.199c-0.12-0.387,0.004-0.815-0.392-1.525c-0.203-0.438-0.198-0.959-0.323-1.383  c-0.221-0.83-1.102-1.457-1.424-2.157C229.493,17.017,228.8,14.04,225.387,15.174L225.387,15.174z M225.497,23.571  c0.885-0.226,1.405,0.406,1.94,1.383c0.392,0.742,0.139,6.577,0.156,8.177c-1.945,0.239-4.825,0.244-7.197,0.188  c-0.062-0.599,0.869-2.12,1.865-4.111c0.534-1.051,0.746-2.175,1.242-3.144C224.221,24.737,225.168,23.668,225.497,23.571  L225.497,23.571z" fill="#FFFFFF" stroke="black"/>
	

	
	

	
	

	
	

	<g>
		
	
		
		
	
		
		
	
		
		
	
		
		
	
		
		
	
		
		
	
		
		
	
		
		
	
		
		
	
		
		
	
		
		
	
		
		
	
		
		
	
		
		
	
		
		
	
		
		
	
		
		
	
		
		
	
		
		
	
		
		
	
		
		
	
		
		
	
		
		
	
		
		
	
		
		
	
		
		
	
		
		
	
		
		
	
		
		
	
		
		
	
		
		
	
		
		
	
		
		
	
		
		
	
		
		
	
		
		
	
		
		

	</g>
	

</svg>