<?xml version="1.0" encoding="iso-8859-1"?><!-- Generator: Adobe Illustrator 13.0.2, SVG Export Plug-In . SVG Version: 6.00 Build 14948)  --><!DOCTYPE svg  PUBLIC '-//W3C//DTD SVG 1.1//EN'  'http://www.w3.org/Graphics/SVG/1.1/DTD/svg11.dtd'><svg enable-background="new 0 0 319.574 233.561" height="233.561px" id="Ebene_1" version="1.1" viewBox="0 0 319.574 233.561" width="319.574px" x="0px" xml:space="preserve" xmlns="http://www.w3.org/2000/svg" xmlns:xlink="http://www.w3.org/1999/xlink" y="0px">
	

	<pattern height="69" id="Unnamed_Pattern" overflow="visible" patternUnits="userSpaceOnUse" viewBox="2.125 -70.896 69 69" width="69" x="-255.415" y="400.622">
		
	
		<g>
			
		
			
			
		
			
			
		
			<g>
				
			
				
				
			
				
				
			
				
				
			
				
				
			
				
				
			
				
				
			
				
				
			
				
				
			
				
				
		
			</g>
			
		
			<g>
				
			
				
				
		
			</g>
			
		
			
			
		
			<g>
				
			
				<g>
					
				
					
					
				
					
					
				
					
					
				
					
					
				
					
					
				
					
					
				
					
					
				
					
					
				
					
					
				
					
					
			
				</g>
				
			
				<g>
					
				
					
					
				
					
					
				
					
					
				
					
					
				
					
					
				
					
					
				
					
					
				
					
					
				
					
					
				
					
					
			
				</g>
				
			
				<g>
					
				
					
					
				
					
					
				
					
					
				
					
					
				
					
					
				
					
					
				
					
					
				
					
					
				
					
					
				
					
					
			
				</g>
				
			
				<g>
					
				
					
					
				
					
					
				
					
					
				
					
					
				
					
					
				
					
					
				
					
					
				
					
					
				
					
					
				
					
					
			
				</g>
				
			
				<g>
					
				
					
					
				
					
					
				
					
					
				
					
					
				
					
					
				
					
					
				
					
					
				
					
					
				
					
					
				
					
					
			
				</g>
				
			
				<g>
					
				
					
					
				
					
					
				
					
					
				
					
					
				
					
					
				
					
					
				
					
					
				
					
					
				
					
					
				
					
					
			
				</g>
				
			
				<g>
					
				
					
					
				
					
					
				
					
					
				
					
					
				
					
					
				
					
					
				
					
					
				
					
					
				
					
					
				
					
					
			
				</g>
				
			
				<g>
					
				
					
					
				
					
					
				
					
					
				
					
					
				
					
					
				
					
					
				
					
					
				
					
					
				
					
					
				
					
					
			
				</g>
				
		
			</g>
			
		
			<g>
				
			
				
				
			
				
				
			
				
				
			
				
				
			
				
				
			
				
				
			
				
				
			
				
				
			
				
				
			
				
				
		
			</g>
			
	
		</g>
		

	</pattern>
	

	
	

	
	

	
	

	
	

	
	

	
	

	
	

	
	

	
	

	
	

	
	

	
	

	
	

	
	

	
	

	<path animation_id="116" d="M171.713,16.271c-2.061,0.336-3.965-0.051-6.134,0.466c-2.644,0.604-5.534,1.249-7.613,2.576  c-0.583,0.351-0.669,1.922-0.669,1.922c-0.354,6.282,6.386,0.715,8.803,2.152c0.133,0.069,0.503,0.452,0.579,0.567  c0.078,0.105,0.139,0.429,0.172,0.512c0.474,1.424,0.305,4.729-0.174,5.816c-0.26,0.637-0.585-0.055-0.749,0.678  c-0.876,0.152-2.427,0.392-3.026,0.88c-0.48,0.396-0.965,2.079-1.053,2.738c-0.417,3.259,2.079,3.821,2.533,4.144  c0.445,0.332,0.638-0.512,1.89-0.193c0.019,1.056-0.058,1.498,0.039,2.18c0.15,1.051-0.114,2.83-0.37,4.089  c-0.362,1.664-1.176,6.181-0.507,7.582c0.285,0.595,0.968,0.276,2.12,1.06c0.429,0.305,1.259,0.803,2.272,0.479  c0.773-0.253,0.865-1.585,1.078-2.507c0.334-1.581-0.157-4.047,0.123-5.974c0.314-2.102,0.873-7.177,0.955-7.716  c0.302-0.383,2.279-0.664,3.689-1.037c0.484-0.124,1.035-0.6,1.426-0.719c0.807-0.277,1.45-0.245,2.141-0.535  c0.886-0.396,1.826-1.139,2.559-1.71c2.109-1.641,4.232-2.654,4.594-3.181c0.425-0.599,0.477-1.322,1.037-2.051  c1.912-2.332-0.34-6.771-2.25-9.08c-0.254-0.327-0.49-0.802-0.905-0.903c-0.655-0.207-0.854-0.078-1.329-0.373  c-0.329-0.189-0.883-0.788-1.236-0.89c-0.636-0.208-1.84-0.161-2.496-0.318C177.852,16.653,173.383,16.017,171.713,16.271  L171.713,16.271z M171.829,22.737c1.497-0.342,2.961-0.097,4.646-0.125c1.676-0.014,3.564,0.074,4.698,1.254  c2.487,2.659-5.14,6.246-8.091,6.43c-1.289,0.093-1.033-0.631-0.945-1.483c0-0.093-0.26-1.655-0.524-2.623  c-0.314-1.102-0.05-1.724-0.05-1.724C171.6,23.936,171.051,22.912,171.829,22.737L171.829,22.737z" fill="#FFFFFF" stroke="black"/>
	

	
	

	
	

	
	

	
	

	<g>
		
	
		
		
	
		
		
	
		
		
	
		
		
	
		
		
	
		
		
	
		
		
	
		
		
	
		
		
	
		
		
	
		
		
	
		
		
	
		
		
	
		
		
	
		
		
	
		
		
	
		
		
	
		
		
	
		
		
	
		
		
	
		
		
	
		
		
	
		
		
	
		
		
	
		
		
	
		
		
	
		
		
	
		
		
	
		
		
	
		
		
	
		
		
	
		
		
	
		
		
	
		
		
	
		
		
	
		
		
	
		
		

	</g>
	

</svg>