<?xml version="1.0" encoding="iso-8859-1"?><!-- Generator: Adobe Illustrator 13.0.2, SVG Export Plug-In . SVG Version: 6.00 Build 14948)  --><!DOCTYPE svg  PUBLIC '-//W3C//DTD SVG 1.1//EN'  'http://www.w3.org/Graphics/SVG/1.1/DTD/svg11.dtd'><svg enable-background="new 0 0 319.574 233.561" height="233.561px" id="Ebene_1" version="1.1" viewBox="0 0 319.574 233.561" width="319.574px" x="0px" xml:space="preserve" xmlns="http://www.w3.org/2000/svg" xmlns:xlink="http://www.w3.org/1999/xlink" y="0px">
	

	<pattern height="69" id="Unnamed_Pattern" overflow="visible" patternUnits="userSpaceOnUse" viewBox="2.125 -70.896 69 69" width="69" x="-255.415" y="400.622">
		
	
		<g>
			
		
			
			
		
			
			
		
			<g>
				
			
				
				
			
				
				
			
				
				
			
				
				
			
				
				
			
				
				
			
				
				
			
				
				
			
				
				
		
			</g>
			
		
			<g>
				
			
				
				
		
			</g>
			
		
			
			
		
			<g>
				
			
				<g>
					
				
					
					
				
					
					
				
					
					
				
					
					
				
					
					
				
					
					
				
					
					
				
					
					
				
					
					
				
					
					
			
				</g>
				
			
				<g>
					
				
					
					
				
					
					
				
					
					
				
					
					
				
					
					
				
					
					
				
					
					
				
					
					
				
					
					
				
					
					
			
				</g>
				
			
				<g>
					
				
					
					
				
					
					
				
					
					
				
					
					
				
					
					
				
					
					
				
					
					
				
					
					
				
					
					
				
					
					
			
				</g>
				
			
				<g>
					
				
					
					
				
					
					
				
					
					
				
					
					
				
					
					
				
					
					
				
					
					
				
					
					
				
					
					
				
					
					
			
				</g>
				
			
				<g>
					
				
					
					
				
					
					
				
					
					
				
					
					
				
					
					
				
					
					
				
					
					
				
					
					
				
					
					
				
					
					
			
				</g>
				
			
				<g>
					
				
					
					
				
					
					
				
					
					
				
					
					
				
					
					
				
					
					
				
					
					
				
					
					
				
					
					
				
					
					
			
				</g>
				
			
				<g>
					
				
					
					
				
					
					
				
					
					
				
					
					
				
					
					
				
					
					
				
					
					
				
					
					
				
					
					
				
					
					
			
				</g>
				
			
				<g>
					
				
					
					
				
					
					
				
					
					
				
					
					
				
					
					
				
					
					
				
					
					
				
					
					
				
					
					
				
					
					
			
				</g>
				
		
			</g>
			
		
			<g>
				
			
				
				
			
				
				
			
				
				
			
				
				
			
				
				
			
				
				
			
				
				
			
				
				
			
				
				
			
				
				
		
			</g>
			
	
		</g>
		

	</pattern>
	

	
	

	
	

	
	

	
	

	
	

	
	

	
	

	
	

	
	

	
	

	
	

	<path animation_id="112" d="M211.431,18.847c-2.378,0.554-4.675,0.724-7.106,1.733c-1.591,0.668-3.446,0.834-5.1,1.222  c-2.398,0.59-4.676,0.281-6.462,1.346c-0.787,0.475-1.515,4.369-2.31,5.264c-2.479,2.945-2.46,4.388-2.825,5.02  c-0.177,0.317-1.003-0.193-3.439,6.84c-1.64,4.766-0.823,11.702,7.653,13.495c2.645,0.591,7.162,0.706,9.296-0.654  c1.767-1.139,3.36-2.604,2.352-5.683c-0.196-0.622-0.177-1.369-0.675-1.659c-1.391-0.724-3.467,0.641-4.436,1.11  c-2.067,0.981-4.312,1.447-7.518-0.092c-2.182-1.037-3.338-2.628-0.934-4.107c0.277-0.166,0.786-0.663,1.145-0.774  c1.229-0.377,2.95,0,4.383-0.346c1.121-0.263,1.394-0.622,3.111-0.461c1.208,0.139,2.5-0.488,4.203-0.599  c2.116-0.129,2.24-0.327,2.611-0.512c1.205-0.613,0.995,0.378,2.756-0.479c0.789-0.405,0.66-2.752,0.254-3.484  c-0.379-0.705-0.393-2.466-1.199-2.729c-0.832-0.258-1.061,0.4-1.418,0.595c-1.154,0.695-2.959,1.115-5.16,1.419  c-2.349,0.364-4.109,0.83-6.812,0.24c2.159,0.534-2.165-0.102-1.281-1.6c0.613-1.102,1.665-2.498,2.527-3.42  c1.791-1.991,18.947-4.052,19.776-4.862c0.646-0.452,0.199-2.227,0.073-2.808c-0.127-0.451-0.346-1.747-0.43-2.027  c-0.057-0.313-0.918-0.779-0.918-0.978C213.529,18.925,213.529,18.335,211.431,18.847L211.431,18.847z" fill="#FFFFFF" stroke="black"/>
	

	
	

	
	

	
	

	
	

	
	

	
	

	
	

	
	

	<g>
		
	
		
		
	
		
		
	
		
		
	
		
		
	
		
		
	
		
		
	
		
		
	
		
		
	
		
		
	
		
		
	
		
		
	
		
		
	
		
		
	
		
		
	
		
		
	
		
		
	
		
		
	
		
		
	
		
		
	
		
		
	
		
		
	
		
		
	
		
		
	
		
		
	
		
		
	
		
		
	
		
		
	
		
		
	
		
		
	
		
		
	
		
		
	
		
		
	
		
		
	
		
		
	
		
		
	
		
		
	
		
		

	</g>
	

</svg>