<?xml version="1.0" encoding="iso-8859-1"?><!-- Generator: Adobe Illustrator 13.0.2, SVG Export Plug-In . SVG Version: 6.00 Build 14948)  --><!DOCTYPE svg  PUBLIC '-//W3C//DTD SVG 1.1//EN'  'http://www.w3.org/Graphics/SVG/1.1/DTD/svg11.dtd'><svg enable-background="new 0 0 319.574 233.561" height="233.561px" id="Ebene_1" version="1.1" viewBox="0 0 319.574 233.561" width="319.574px" x="0px" xml:space="preserve" xmlns="http://www.w3.org/2000/svg" xmlns:xlink="http://www.w3.org/1999/xlink" y="0px">
	

	<pattern height="69" id="Unnamed_Pattern" overflow="visible" patternUnits="userSpaceOnUse" viewBox="2.125 -70.896 69 69" width="69" x="-255.415" y="400.622">
		
	
		<g>
			
		
			
			
		
			
			
		
			<g>
				
			
				
				
			
				
				
			
				
				
			
				
				
			
				
				
			
				
				
			
				
				
			
				
				
			
				
				
		
			</g>
			
		
			<g>
				
			
				
				
		
			</g>
			
		
			
			
		
			<g>
				
			
				<g>
					
				
					
					
				
					
					
				
					
					
				
					
					
				
					
					
				
					
					
				
					
					
				
					
					
				
					
					
				
					
					
			
				</g>
				
			
				<g>
					
				
					
					
				
					
					
				
					
					
				
					
					
				
					
					
				
					
					
				
					
					
				
					
					
				
					
					
				
					
					
			
				</g>
				
			
				<g>
					
				
					
					
				
					
					
				
					
					
				
					
					
				
					
					
				
					
					
				
					
					
				
					
					
				
					
					
				
					
					
			
				</g>
				
			
				<g>
					
				
					
					
				
					
					
				
					
					
				
					
					
				
					
					
				
					
					
				
					
					
				
					
					
				
					
					
				
					
					
			
				</g>
				
			
				<g>
					
				
					
					
				
					
					
				
					
					
				
					
					
				
					
					
				
					
					
				
					
					
				
					
					
				
					
					
				
					
					
			
				</g>
				
			
				<g>
					
				
					
					
				
					
					
				
					
					
				
					
					
				
					
					
				
					
					
				
					
					
				
					
					
				
					
					
				
					
					
			
				</g>
				
			
				<g>
					
				
					
					
				
					
					
				
					
					
				
					
					
				
					
					
				
					
					
				
					
					
				
					
					
				
					
					
				
					
					
			
				</g>
				
			
				<g>
					
				
					
					
				
					
					
				
					
					
				
					
					
				
					
					
				
					
					
				
					
					
				
					
					
				
					
					
				
					
					
			
				</g>
				
		
			</g>
			
		
			<g>
				
			
				
				
			
				
				
			
				
				
			
				
				
			
				
				
			
				
				
			
				
				
			
				
				
			
				
				
			
				
				
		
			</g>
			
	
		</g>
		

	</pattern>
	

	
	

	
	

	
	

	
	

	
	

	
	

	
	

	
	

	
	

	
	

	
	

	
	

	
	

	
	

	<path animation_id="115" d="M135.204,16.935c-3.034,0.778-0.843,7.208-1.238,9.836c-0.446,3.147-0.306,6.144-0.954,9.163  c-0.803,3.65-1.656,7.314-2.561,11.136c-0.875,3.622,0.861,4.452,3.506,5.023c0.354,0.074,0.983,0.447,1.461,0.027  c1.216-1.064,0.719-5.088,1.05-6.715c0.415-1.766,1.273-7.163,2.339-8.241c0.583-0.571,1.193-1.144,1.965-0.393  c1.896,1.771,3.188,4.292,4.438,6.693c0.584,1.115,1.992,1.751,2.31,2.973c0.486,1.881,0.691,6.435,2.028,7.228  c0.521,0.295,1.096,0.06,1.849,0.212c0.353,0.083,1.306,0.465,2.017,0.235c0.858-0.286,1.433-2.928,1.641-3.845  c0.729-3.235-0.525-6.015,0.024-8.983c0.02-0.138,0.072-0.981,0.101-1.102c0.229-0.986-0.236-2.11-0.029-3.078  c0.494-2.227,0.183-5.946,0.57-8.929c0.238-1.895-0.279-3.318,0.102-5.098c0.313-1.539,0.075-3.517-0.522-4.974  c-0.583-1.354-3.889-1.138-4.254,0.374c-0.255,1.027,0.453,1.649,0.191,2.756c-0.21,0.922-0.369,3.314-0.511,6.043  c-0.258,4.752-0.595,10.324-2.529,9.494c-0.906-0.405-1.729-1.539-2.134-2.521c-0.326-0.747-1.174-1.305-1.573-1.95  c-1.5-2.258-3.366-3.572-4.135-6.696c-0.96-3.941,1.656-7.27-2.378-8.472C137.455,16.994,136.095,16.704,135.204,16.935  L135.204,16.935z" fill="#FFFFFF" stroke="black"/>
	

	
	

	
	

	
	

	
	

	
	

	<g>
		
	
		
		
	
		
		
	
		
		
	
		
		
	
		
		
	
		
		
	
		
		
	
		
		
	
		
		
	
		
		
	
		
		
	
		
		
	
		
		
	
		
		
	
		
		
	
		
		
	
		
		
	
		
		
	
		
		
	
		
		
	
		
		
	
		
		
	
		
		
	
		
		
	
		
		
	
		
		
	
		
		
	
		
		
	
		
		
	
		
		
	
		
		
	
		
		
	
		
		
	
		
		
	
		
		
	
		
		
	
		
		

	</g>
	

</svg>