<?xml version="1.0" encoding="iso-8859-1"?><!-- Generator: Adobe Illustrator 13.0.2, SVG Export Plug-In . SVG Version: 6.00 Build 14948)  --><!DOCTYPE svg  PUBLIC '-//W3C//DTD SVG 1.1//EN'  'http://www.w3.org/Graphics/SVG/1.1/DTD/svg11.dtd'><svg enable-background="new 0 0 319.574 233.561" height="233.561px" id="Ebene_1" version="1.1" viewBox="0 0 319.574 233.561" width="319.574px" x="0px" xml:space="preserve" xmlns="http://www.w3.org/2000/svg" xmlns:xlink="http://www.w3.org/1999/xlink" y="0px">
	

	<pattern height="69" id="Unnamed_Pattern" overflow="visible" patternUnits="userSpaceOnUse" viewBox="2.125 -70.896 69 69" width="69" x="-255.415" y="400.622">
		
	
		<g>
			
		
			
			
		
			
			
		
			<g>
				
			
				
				
			
				
				
			
				
				
			
				
				
			
				
				
			
				
				
			
				
				
			
				
				
			
				
				
		
			</g>
			
		
			<g>
				
			
				
				
		
			</g>
			
		
			
			
		
			<g>
				
			
				<g>
					
				
					
					
				
					
					
				
					
					
				
					
					
				
					
					
				
					
					
				
					
					
				
					
					
				
					
					
				
					
					
			
				</g>
				
			
				<g>
					
				
					
					
				
					
					
				
					
					
				
					
					
				
					
					
				
					
					
				
					
					
				
					
					
				
					
					
				
					
					
			
				</g>
				
			
				<g>
					
				
					
					
				
					
					
				
					
					
				
					
					
				
					
					
				
					
					
				
					
					
				
					
					
				
					
					
				
					
					
			
				</g>
				
			
				<g>
					
				
					
					
				
					
					
				
					
					
				
					
					
				
					
					
				
					
					
				
					
					
				
					
					
				
					
					
				
					
					
			
				</g>
				
			
				<g>
					
				
					
					
				
					
					
				
					
					
				
					
					
				
					
					
				
					
					
				
					
					
				
					
					
				
					
					
				
					
					
			
				</g>
				
			
				<g>
					
				
					
					
				
					
					
				
					
					
				
					
					
				
					
					
				
					
					
				
					
					
				
					
					
				
					
					
				
					
					
			
				</g>
				
			
				<g>
					
				
					
					
				
					
					
				
					
					
				
					
					
				
					
					
				
					
					
				
					
					
				
					
					
				
					
					
				
					
					
			
				</g>
				
			
				<g>
					
				
					
					
				
					
					
				
					
					
				
					
					
				
					
					
				
					
					
				
					
					
				
					
					
				
					
					
				
					
					
			
				</g>
				
		
			</g>
			
		
			<g>
				
			
				
				
			
				
				
			
				
				
			
				
				
			
				
				
			
				
				
			
				
				
			
				
				
			
				
				
			
				
				
		
			</g>
			
	
		</g>
		

	</pattern>
	

	
	

	
	

	
	

	
	

	
	

	
	

	
	

	
	

	
	

	
	

	
	

	
	

	
	

	<path animation_id="114" d="M299.543,15.851c0.688-0.161-0.857,0.171-2.729,0.696c-0.451,0.11-2.605,0.705-3.484,0.576  c-0.359-0.056-0.732,0.544-1.442,0.388c-0.3-0.042-2.353,0.396-4.521,0.622c-3.181,0.332-4.849,0.654-7.472,1.369  c-0.659,0.165-1.825-0.01-2.475,0.156c-2.384,0.571-4.024,0.383-5.748,1.503c-2.222,1.41-1.964,3.793-2.067,6.264  c-0.027,0.774-1.644,3.313-2.097,4.729c-0.906,2.808-3.068,9.887-1.818,13.598c0.102,0.253,0.497,0.631,0.654,0.824  c1.117,1.711,1.903,2.287,3.82,3.218c1.355,0.636,5.045,1.913,7.633,1.521c0.137-0.031,0.867-0.4,1.015-0.424  c0.765-0.188,1.398,0.106,2.181-0.156c1.078-0.401,3.631-0.512,4.818-1.249c1.676-1.074,1.827-5.572-0.371-6.181  c-0.729-0.176-1.314,0.239-2.973,0.502c-3.471,0.512-5.951,1.83-10.108,0.193c-0.774-0.295-1.581-1.097-1.274-2.222  c0.774-2.949,10.426-0.866,13.115-1.405c1.994-0.42,3.199-0.061,4.223-1.3c0.35-0.456,0.436-1.102,0.594-1.849  c0.203-0.895,1.084-0.396,0.189-2.457c-0.285-0.645-1.878-3.102-2.393-3.254c-1.256-0.373-2.15,0.567-2.807,0.729  c-0.691,0.18-1.71-0.11-2.779-0.037c-1.576,0.088-3.229,0.438-3.621,0.102c-0.426-0.346-2.2,0.521-3.182,0.014  c-1.31-0.668,0.094-2.876,0.327-3.591c1.23-3.825,4.913-2.954,8.817-4.01c5.115-1.429,6.844-0.138,9.921-0.871  c0.993-0.253,2.132-0.014,3.113-0.263c1.015-0.244,4.036-0.576,4.497-0.475c0.702,0.134,1.773,0.056,2.122-0.185  c0.41-0.23,0.331-1.258,0.286-1.654c-0.217-2.148-0.816-2.899-1.697-4.208C301.263,16.238,301.288,15.44,299.543,15.851  L299.543,15.851z" fill="#FFFFFF" stroke="black"/>
	

	
	

	
	

	
	

	
	

	
	

	
	

	<g>
		
	
		
		
	
		
		
	
		
		
	
		
		
	
		
		
	
		
		
	
		
		
	
		
		
	
		
		
	
		
		
	
		
		
	
		
		
	
		
		
	
		
		
	
		
		
	
		
		
	
		
		
	
		
		
	
		
		
	
		
		
	
		
		
	
		
		
	
		
		
	
		
		
	
		
		
	
		
		
	
		
		
	
		
		
	
		
		
	
		
		
	
		
		
	
		
		
	
		
		
	
		
		
	
		
		
	
		
		
	
		
		

	</g>
	

</svg>