<?xml version="1.0" encoding="iso-8859-1"?><!-- Generator: Adobe Illustrator 13.0.2, SVG Export Plug-In . SVG Version: 6.00 Build 14948)  --><!DOCTYPE svg  PUBLIC '-//W3C//DTD SVG 1.1//EN'  'http://www.w3.org/Graphics/SVG/1.1/DTD/svg11.dtd'><svg enable-background="new 0 0 319.574 233.561" height="233.561px" id="Ebene_1" version="1.1" viewBox="0 0 319.574 233.561" width="319.574px" x="0px" xml:space="preserve" xmlns="http://www.w3.org/2000/svg" xmlns:xlink="http://www.w3.org/1999/xlink" y="0px">
	

	<pattern height="69" id="Unnamed_Pattern" overflow="visible" patternUnits="userSpaceOnUse" viewBox="2.125 -70.896 69 69" width="69" x="-255.415" y="400.622">
		
	
		<g>
			
		
			
			
		
			
			
		
			<g>
				
			
				
				
			
				
				
			
				
				
			
				
				
			
				
				
			
				
				
			
				
				
			
				
				
			
				
				
		
			</g>
			
		
			<g>
				
			
				
				
		
			</g>
			
		
			
			
		
			<g>
				
			
				<g>
					
				
					
					
				
					
					
				
					
					
				
					
					
				
					
					
				
					
					
				
					
					
				
					
					
				
					
					
				
					
					
			
				</g>
				
			
				<g>
					
				
					
					
				
					
					
				
					
					
				
					
					
				
					
					
				
					
					
				
					
					
				
					
					
				
					
					
				
					
					
			
				</g>
				
			
				<g>
					
				
					
					
				
					
					
				
					
					
				
					
					
				
					
					
				
					
					
				
					
					
				
					
					
				
					
					
				
					
					
			
				</g>
				
			
				<g>
					
				
					
					
				
					
					
				
					
					
				
					
					
				
					
					
				
					
					
				
					
					
				
					
					
				
					
					
				
					
					
			
				</g>
				
			
				<g>
					
				
					
					
				
					
					
				
					
					
				
					
					
				
					
					
				
					
					
				
					
					
				
					
					
				
					
					
				
					
					
			
				</g>
				
			
				<g>
					
				
					
					
				
					
					
				
					
					
				
					
					
				
					
					
				
					
					
				
					
					
				
					
					
				
					
					
				
					
					
			
				</g>
				
			
				<g>
					
				
					
					
				
					
					
				
					
					
				
					
					
				
					
					
				
					
					
				
					
					
				
					
					
				
					
					
				
					
					
			
				</g>
				
			
				<g>
					
				
					
					
				
					
					
				
					
					
				
					
					
				
					
					
				
					
					
				
					
					
				
					
					
				
					
					
				
					
					
			
				</g>
				
		
			</g>
			
		
			<g>
				
			
				
				
			
				
				
			
				
				
			
				
				
			
				
				
			
				
				
			
				
				
			
				
				
			
				
				
			
				
				
		
			</g>
			
	
		</g>
		

	</pattern>
	

	
	

	
	

	
	

	
	

	
	

	
	

	<path animation_id="107" d="M251.889,137.593c-3.698,1.226-8.803,1.663-12.422,1.663c-2.9,0-6.436-0.267-9.269-1.051  c-10.917-2.968-13.356-13.44-13.356-28.545c0-25.746,7.309-30.466,22.625-30.466c4.479,0,9.044,0.263,11.635,0.612  c3.3,0.438,4.01,1.218,4.01,3.052v2.973c0,3.144-0.473,4.19-2.987,4.19c-1.89,0-7.384-0.696-11.081-0.696  c-2.512,0-6.596,0.258-8.562,1.222c-4.637,2.268-4.789,9.162-4.789,19.197c0,9.868,0.467,17.552,7.305,18.943  c1.41,0.263,3.611,0.438,6.047,0.438c0.872,0,2.043-0.175,3.697-0.521v-16.233h-7.393c-3.223,0-3.374-2.277-3.374-4.107v-1.221  c0-1.835,0.151-4.107,3.374-4.107h14.541c2.75,0,3.377,1.747,3.377,3.669v26.452C255.266,135.67,254.322,136.809,251.889,137.593z" fill="#85B129" stroke="black"/>
	

	
	

	
	

	
	

	
	

	
	

	
	

	
	

	
	

	
	

	
	

	
	

	
	

	
	

	<g>
		
	
		
		
	
		
		
	
		
		
	
		
		
	
		
		
	
		
		
	
		
		
	
		
		
	
		
		
	
		
		
	
		
		
	
		
		
	
		
		
	
		
		
	
		
		
	
		
		
	
		
		
	
		
		
	
		
		
	
		
		
	
		
		
	
		
		
	
		
		
	
		
		
	
		
		
	
		
		
	
		
		
	
		
		
	
		
		
	
		
		
	
		
		
	
		
		
	
		
		
	
		
		
	
		
		
	
		
		
	
		
		

	</g>
	

</svg>