<?xml version="1.0" encoding="iso-8859-1"?><!-- Generator: Adobe Illustrator 13.0.2, SVG Export Plug-In . SVG Version: 6.00 Build 14948)  --><!DOCTYPE svg  PUBLIC '-//W3C//DTD SVG 1.1//EN'  'http://www.w3.org/Graphics/SVG/1.1/DTD/svg11.dtd'><svg enable-background="new 0 0 319.574 233.561" height="233.561px" id="Ebene_1" version="1.1" viewBox="0 0 319.574 233.561" width="319.574px" x="0px" xml:space="preserve" xmlns="http://www.w3.org/2000/svg" xmlns:xlink="http://www.w3.org/1999/xlink" y="0px">
	

	<pattern height="69" id="Unnamed_Pattern" overflow="visible" patternUnits="userSpaceOnUse" viewBox="2.125 -70.896 69 69" width="69" x="-255.415" y="400.622">
		
	
		<g>
			
		
			
			
		
			
			
		
			<g>
				
			
				
				
			
				
				
			
				
				
			
				
				
			
				
				
			
				
				
			
				
				
			
				
				
			
				
				
		
			</g>
			
		
			<g>
				
			
				
				
		
			</g>
			
		
			
			
		
			<g>
				
			
				<g>
					
				
					
					
				
					
					
				
					
					
				
					
					
				
					
					
				
					
					
				
					
					
				
					
					
				
					
					
				
					
					
			
				</g>
				
			
				<g>
					
				
					
					
				
					
					
				
					
					
				
					
					
				
					
					
				
					
					
				
					
					
				
					
					
				
					
					
				
					
					
			
				</g>
				
			
				<g>
					
				
					
					
				
					
					
				
					
					
				
					
					
				
					
					
				
					
					
				
					
					
				
					
					
				
					
					
				
					
					
			
				</g>
				
			
				<g>
					
				
					
					
				
					
					
				
					
					
				
					
					
				
					
					
				
					
					
				
					
					
				
					
					
				
					
					
				
					
					
			
				</g>
				
			
				<g>
					
				
					
					
				
					
					
				
					
					
				
					
					
				
					
					
				
					
					
				
					
					
				
					
					
				
					
					
				
					
					
			
				</g>
				
			
				<g>
					
				
					
					
				
					
					
				
					
					
				
					
					
				
					
					
				
					
					
				
					
					
				
					
					
				
					
					
				
					
					
			
				</g>
				
			
				<g>
					
				
					
					
				
					
					
				
					
					
				
					
					
				
					
					
				
					
					
				
					
					
				
					
					
				
					
					
				
					
					
			
				</g>
				
			
				<g>
					
				
					
					
				
					
					
				
					
					
				
					
					
				
					
					
				
					
					
				
					
					
				
					
					
				
					
					
				
					
					
			
				</g>
				
		
			</g>
			
		
			<g>
				
			
				
				
			
				
				
			
				
				
			
				
				
			
				
				
			
				
				
			
				
				
			
				
				
			
				
				
			
				
				
		
			</g>
			
	
		</g>
		

	</pattern>
	

	
	

	
	

	
	

	
	

	
	

	
	

	
	

	
	

	
	

	
	

	
	

	
	

	
	

	
	

	
	

	
	

	
	

	
	

	<path animation_id="119" d="M64.389,15.206c-1.467,0.239-5.291,1-5.538,1.719c-0.154,0.378-0.23,1.286-0.471,2.208  c-0.252,1.069-0.816,1.585-0.542,2.562c0.696,2.457,2.61,2.259,1.921,4.586c-0.443,1.503-1.315,5.918-2.787,6.656  c-0.709,0.378-1.748,0.17-2.094,0.442c-0.286,0.442-0.631,3.572,0.146,5.103c0.248,0.475,1.129,0.954,1.279,1.387  c0.252,0.742,0.014,2.43-0.092,2.793c-1.106,4.389-1.693,9.325,2.371,10.261c0.453,0.102,1.26,0.202,1.413-0.019  c2.591-3.66-0.748-6.352,0.885-10.163c0.794-1.825,1.27-2.023,2.563-1.41c1.865,0.885,4.667,3.396,5.507,3.978  c3.121,2.166,4.509,6.729,8.245,5.623c0.959-0.3,3.421-2.789,3.004-4.513c-0.075-0.3-0.377-1-0.522-1.341  c-0.82-1.623-2.993-2.144-4.759-3.342c-0.625-0.452-1.202-1.181-1.832-1.632c-0.647-0.488-1.256-1.185-1.732-1.834  c-0.157-0.157-0.147-0.508-0.016-0.835c0.182-0.415,0.962-0.908,1.238-1.281c1.323-1.774,2.723-3.72,3.338-6.19  c1.451-5.89-1.625-11.721-4.615-13.569c-0.756-0.461-1.565-0.687-2.472-0.963C67.848,15.15,66.077,14.888,64.389,15.206  L64.389,15.206z M66.176,21.271c2.14-0.737,4.431,2.185,4.748,3.098c0.325,0.917,0.063,2.102-0.143,2.927  c-0.305,1.318-2.01,2.576-3.061,3.286c-0.666,0.415-1.052,1.581-1.907,1.756c-3.892,0.839-1.078-5.752-0.931-6.476  c0.235-1.047-0.363-2.328-0.029-3.323C64.904,22.313,65.944,21.336,66.176,21.271L66.176,21.271z" fill="#FFFFFF" stroke="black"/>
	

	
	

	<g>
		
	
		
		
	
		
		
	
		
		
	
		
		
	
		
		
	
		
		
	
		
		
	
		
		
	
		
		
	
		
		
	
		
		
	
		
		
	
		
		
	
		
		
	
		
		
	
		
		
	
		
		
	
		
		
	
		
		
	
		
		
	
		
		
	
		
		
	
		
		
	
		
		
	
		
		
	
		
		
	
		
		
	
		
		
	
		
		
	
		
		
	
		
		
	
		
		
	
		
		
	
		
		
	
		
		
	
		
		
	
		
		

	</g>
	

</svg>