<?xml version="1.0" encoding="iso-8859-1"?><!-- Generator: Adobe Illustrator 13.0.2, SVG Export Plug-In . SVG Version: 6.00 Build 14948)  --><!DOCTYPE svg  PUBLIC '-//W3C//DTD SVG 1.1//EN'  'http://www.w3.org/Graphics/SVG/1.1/DTD/svg11.dtd'><svg enable-background="new 0 0 319.574 233.561" height="233.561px" id="Ebene_1" version="1.1" viewBox="0 0 319.574 233.561" width="319.574px" x="0px" xml:space="preserve" xmlns="http://www.w3.org/2000/svg" xmlns:xlink="http://www.w3.org/1999/xlink" y="0px">
	

	<pattern height="69" id="Unnamed_Pattern" overflow="visible" patternUnits="userSpaceOnUse" viewBox="2.125 -70.896 69 69" width="69" x="-255.415" y="400.622">
		
	
		<g>
			
		
			
			
		
			
			
		
			<g>
				
			
				
				
			
				
				
			
				
				
			
				
				
			
				
				
			
				
				
			
				
				
			
				
				
			
				
				
		
			</g>
			
		
			<g>
				
			
				
				
		
			</g>
			
		
			
			
		
			<g>
				
			
				<g>
					
				
					
					
				
					
					
				
					
					
				
					
					
				
					
					
				
					
					
				
					
					
				
					
					
				
					
					
				
					
					
			
				</g>
				
			
				<g>
					
				
					
					
				
					
					
				
					
					
				
					
					
				
					
					
				
					
					
				
					
					
				
					
					
				
					
					
				
					
					
			
				</g>
				
			
				<g>
					
				
					
					
				
					
					
				
					
					
				
					
					
				
					
					
				
					
					
				
					
					
				
					
					
				
					
					
				
					
					
			
				</g>
				
			
				<g>
					
				
					
					
				
					
					
				
					
					
				
					
					
				
					
					
				
					
					
				
					
					
				
					
					
				
					
					
				
					
					
			
				</g>
				
			
				<g>
					
				
					
					
				
					
					
				
					
					
				
					
					
				
					
					
				
					
					
				
					
					
				
					
					
				
					
					
				
					
					
			
				</g>
				
			
				<g>
					
				
					
					
				
					
					
				
					
					
				
					
					
				
					
					
				
					
					
				
					
					
				
					
					
				
					
					
				
					
					
			
				</g>
				
			
				<g>
					
				
					
					
				
					
					
				
					
					
				
					
					
				
					
					
				
					
					
				
					
					
				
					
					
				
					
					
				
					
					
			
				</g>
				
			
				<g>
					
				
					
					
				
					
					
				
					
					
				
					
					
				
					
					
				
					
					
				
					
					
				
					
					
				
					
					
				
					
					
			
				</g>
				
		
			</g>
			
		
			<g>
				
			
				
				
			
				
				
			
				
				
			
				
				
			
				
				
			
				
				
			
				
				
			
				
				
			
				
				
			
				
				
		
			</g>
			
	
		</g>
		

	</pattern>
	

	
	

	
	

	
	

	
	

	
	

	
	

	
	

	
	

	
	

	
	

	
	

	
	

	
	

	
	

	
	

	
	

	
	

	<path animation_id="118" d="M99.844,16.271c-1.692,0.419-3.262,0.959-4.899,1.346c-1.038,0.249-1.948,0.24-3.066,0.53  c-0.522,0.143-1.688,0.797-2.218,0.949c-0.908,0.212-1.111,0.088-2.124,0.359c-0.321,0.088-1.116,0.447-1.444,0.517  c-1.084,0.29-2.221,0.387-2.96,1.027c-1.639,1.494-1.655,4.121-0.557,6.356c0.496,0.996,1.957,0.683,1.62,2.779  c-0.545,3.443-2.121,4.743-2.564,6.563c-0.311,1.249-0.362,2.415-0.439,3.674c-0.17,3.171,0.242,6.125,2.198,8.499  c0.85,1.064,6.168,3.037,7.91,3.43c2.418,0.507,4.17-0.393,5.888-0.683c0.509-0.475,1.113-1.166,1.267-1.641  c0.795-2.517-0.72-6.099-1.283-6.301c-1.639,0.014-1.949,1.041-3.181,1.332c-2.908,0.687-6.154-0.834-7.36-2.088  c-0.487-0.503-0.547-1.59-0.264-2.203c0.218-0.521,1.112-1.544,1.644-1.71c0.959-0.318,1.587-0.042,2.605-0.291  c1.279-0.322,3.031-0.783,4.193-1.06c1.064-0.258,2.395,0.415,3.785,0.073c1.343-0.313,3.87-0.626,4.325-1.046  c0.302-0.406,0.183-1.932,0.013-2.53c-0.35-1.401-0.661-3.176-1.978-3.567c-1.809-0.554-4.647,0.99-7.629,1.479  c-2.778,0.429-4.927,0.046-4.152-2.499c0.342-1.105,0.364-1.705,1.049-2.396c1.236-1.221,3.562-1.668,5.989-2.152  c0.86-0.171,1.819-0.53,2.652-0.678c1.118-0.198,2.124-0.198,3.064-0.438c0.501-0.129,1.488-0.447,2.604-0.636  c1.025-0.198,2.218-0.268,2.554-0.535c0.754-0.654-1.469-4.955-1.742-5.43c-0.059-0.105-0.059-0.083-0.102-0.18  C104.824,15.92,101.667,15.828,99.844,16.271L99.844,16.271z" fill="#FFFFFF" stroke="black"/>
	

	
	

	
	

	<g>
		
	
		
		
	
		
		
	
		
		
	
		
		
	
		
		
	
		
		
	
		
		
	
		
		
	
		
		
	
		
		
	
		
		
	
		
		
	
		
		
	
		
		
	
		
		
	
		
		
	
		
		
	
		
		
	
		
		
	
		
		
	
		
		
	
		
		
	
		
		
	
		
		
	
		
		
	
		
		
	
		
		
	
		
		
	
		
		
	
		
		
	
		
		
	
		
		
	
		
		
	
		
		
	
		
		
	
		
		
	
		
		

	</g>
	

</svg>