<?xml version="1.0" encoding="iso-8859-1"?><!DOCTYPE svg  PUBLIC '-//W3C//DTD SVG 1.0//EN'  'http://www.w3.org/TR/2001/REC-SVG-20010904/DTD/svg10.dtd'><!-- Creator: CorelDRAW --><svg height="200px" style="shape-rendering:geometricPrecision; text-rendering:geometricPrecision; image-rendering:optimizeQuality; fill-rule:evenodd" viewBox="0 0 800 200" width="800px" xml:space="preserve" xmlns="http://www.w3.org/2000/svg" xmlns:odm="http://product.corel.com/CGS/11/cddns/">
	
 
	<defs>
		
  
		<style type="text/css">
			
   
<![CDATA[
    .fil0 {fill:#D92A28}
   ]]>			
  
		</style>
		
 
	</defs>
	
 
	<g id="Ebene 1">
		
  
		<g>
			
   
			
			
   
			
			
   
			
			
   
			
			
   
			
			
   
			
			
   
			<path animation_id="6" class="fil0" d="M566 86l2 47 0 0 6 -9 23 -42 56 0 0 1 -25 98c-14,0 -28,0 -41,0l1 -5 11 -43 0 0 -3 3 -28 44 -1 1 -22 0 0 -2 -5 -48 0 0 -2 8 -11 42 -1 0 -40 0 17 -68 8 -31 1 0 53 0 1 4z" stroke="black"/>
			
   
			
			
   
			
			
  
		</g>
		
 
	</g>
	

</svg>