<?xml version="1.0" encoding="iso-8859-1"?><!DOCTYPE svg  PUBLIC '-//W3C//DTD SVG 1.0//EN'  'http://www.w3.org/TR/2001/REC-SVG-20010904/DTD/svg10.dtd'><!-- Creator: CorelDRAW --><svg height="200px" style="shape-rendering:geometricPrecision; text-rendering:geometricPrecision; image-rendering:optimizeQuality; fill-rule:evenodd" viewBox="0 0 800 200" width="800px" xml:space="preserve" xmlns="http://www.w3.org/2000/svg" xmlns:odm="http://product.corel.com/CGS/11/cddns/">
	
 
	<defs>
		
  
		<style type="text/css">
			
   
<![CDATA[
    .fil0 {fill:#D92A28}
   ]]>			
  
		</style>
		
 
	</defs>
	
 
	<g id="Ebene 1">
		
  
		<g>
			
   
			
			
   
			
			
   
			
			
   
			
			
   
			
			
   
			
			
   
			
			
   
			
			
   
			<path animation_id="8" class="fil0" d="M263 93c-3,-8 -12,-10 -20,-11l-82 0 0 0 -25 99c13,0 27,0 41,0l1 -1c3,-10 5,-21 9,-32 7,11 13,22 20,33l47 0c-8,-14 -18,-27 -26,-40l10 -1c9,-1 18,-6 22,-15 4,-9 8,-21 3,-32zm-40 26c-1,4 -2,8 -6,10 -8,2 -18,1 -26,1 1,-7 3,-13 5,-20 8,0 17,-1 24,1 3,1 4,5 3,8z" stroke="black"/>
			
  
		</g>
		
 
	</g>
	

</svg>