<?xml version="1.0" encoding="iso-8859-1"?><!DOCTYPE svg  PUBLIC '-//W3C//DTD SVG 1.0//EN'  'http://www.w3.org/TR/2001/REC-SVG-20010904/DTD/svg10.dtd'><!-- Creator: CorelDRAW --><svg height="200px" style="shape-rendering:geometricPrecision; text-rendering:geometricPrecision; image-rendering:optimizeQuality; fill-rule:evenodd" viewBox="0 0 800 200" width="800px" xml:space="preserve" xmlns="http://www.w3.org/2000/svg" xmlns:odm="http://product.corel.com/CGS/11/cddns/">
	
 
	<defs>
		
  
		<style type="text/css">
			
   
<![CDATA[
    .fil0 {fill:#D92A28}
   ]]>			
  
		</style>
		
 
	</defs>
	
 
	<g id="Ebene 1">
		
  
		<g>
			
   
			
			
   
			
			
   
			
			
   
			
			
   
			
			
   
			
			
   
			
			
   
			<path animation_id="7" class="fil0" d="M771 83c-3,10 -5,21 -8,31l-56 0c-1,3 -2,6 -3,10l1 0 55 0 0 1 -5 20 -56 1c-1,2 -2,6 -3,9l1 0 5 1 50 0c-1,8 -4,16 -6,25l0 0 -97 0 -1 -1 22 -86c1,-4 2,-8 3,-12l98 0 0 1z" stroke="black"/>
			
   
			
			
  
		</g>
		
 
	</g>
	

</svg>