<?xml version="1.0" encoding="iso-8859-1"?><svg height="94.391731" id="svg2" inkscape:version="0.91 r13725" sodipodi:docname="Grohe.svg" version="1.1" viewBox="0 0 122.80306 94.391731" width="122.80306" xml:space="preserve" xmlns="http://www.w3.org/2000/svg" xmlns:cc="http://creativecommons.org/ns#" xmlns:dc="http://purl.org/dc/elements/1.1/" xmlns:inkscape="http://www.inkscape.org/namespaces/inkscape" xmlns:rdf="http://www.w3.org/1999/02/22-rdf-syntax-ns#" xmlns:sodipodi="http://sodipodi.sourceforge.net/DTD/sodipodi-0.dtd" xmlns:svg="http://www.w3.org/2000/svg">
	<sodipodi:namedview bordercolor="#666666" borderopacity="1" fit-margin-bottom="0" fit-margin-left="0" fit-margin-right="0" fit-margin-top="0" gridtolerance="10" guidetolerance="10" id="namedview16" inkscape:current-layer="svg2" inkscape:cx="51.413098" inkscape:cy="61.458232" inkscape:pageopacity="0" inkscape:pageshadow="2" inkscape:window-height="480" inkscape:window-maximized="0" inkscape:window-width="640" inkscape:window-x="0" inkscape:window-y="25" inkscape:zoom="2.3859934" objecttolerance="10" pagecolor="#ffffff" showgrid="false"/>
	<metadata id="metadata8">
		<rdf:RDF>
			<cc:Work rdf:about="">
				<dc:format>image/svg+xml</dc:format>
				<dc:type rdf:resource="http://purl.org/dc/dcmitype/StillImage"/>
				<dc:title/>
			</cc:Work>
		</rdf:RDF>
	</metadata>
	<defs id="defs6"/>
	<g id="g10" transform="matrix(1.3333333,0,0,-1.3333333,0,94.391731)">
		<g id="g12" transform="scale(0.1,0.1)">
			
			
			
			
			
			
			
			
			<path animation_id="8" d="m 424.004,437.84 c 0,25.64 17.34,43.515 42.219,43.515 24.89,0 42.23,-17.89 42.23,-43.523 0,-25.57 -17.394,-43.492 -42.23,-43.492 -24.828,0 -42.231,17.93 -42.219,43.5 z m -34.156,0 c 0,-38.582 32.324,-66.887 76.375,-66.887 44.07,0 76.39,28.313 76.39,66.887 0,38.668 -32.261,66.933 -76.39,66.933 -44.118,0 -76.375,-28.265 -76.375,-66.933 l 0,0" id="path30" inkscape:connector-curvature="0" stroke="black" style="fill:#ffffff;fill-opacity:1;fill-rule:evenodd;"/>
		</g>
	</g>
</svg>