<?xml version="1.0" encoding="iso-8859-1"?><svg height="94.391731" id="svg2" inkscape:version="0.91 r13725" sodipodi:docname="Grohe.svg" version="1.1" viewBox="0 0 122.80306 94.391731" width="122.80306" xml:space="preserve" xmlns="http://www.w3.org/2000/svg" xmlns:cc="http://creativecommons.org/ns#" xmlns:dc="http://purl.org/dc/elements/1.1/" xmlns:inkscape="http://www.inkscape.org/namespaces/inkscape" xmlns:rdf="http://www.w3.org/1999/02/22-rdf-syntax-ns#" xmlns:sodipodi="http://sodipodi.sourceforge.net/DTD/sodipodi-0.dtd" xmlns:svg="http://www.w3.org/2000/svg">
	<sodipodi:namedview bordercolor="#666666" borderopacity="1" fit-margin-bottom="0" fit-margin-left="0" fit-margin-right="0" fit-margin-top="0" gridtolerance="10" guidetolerance="10" id="namedview16" inkscape:current-layer="svg2" inkscape:cx="51.413098" inkscape:cy="61.458232" inkscape:pageopacity="0" inkscape:pageshadow="2" inkscape:window-height="480" inkscape:window-maximized="0" inkscape:window-width="640" inkscape:window-x="0" inkscape:window-y="25" inkscape:zoom="2.3859934" objecttolerance="10" pagecolor="#ffffff" showgrid="false"/>
	<metadata id="metadata8">
		<rdf:RDF>
			<cc:Work rdf:about="">
				<dc:format>image/svg+xml</dc:format>
				<dc:type rdf:resource="http://purl.org/dc/dcmitype/StillImage"/>
				<dc:title/>
			</cc:Work>
		</rdf:RDF>
	</metadata>
	<defs id="defs6"/>
	<g id="g10" transform="matrix(1.3333333,0,0,-1.3333333,0,94.391731)">
		<g id="g12" transform="scale(0.1,0.1)">
			
			<path animation_id="1" d="m 795.684,317.305 c -11.52,-1.875 -17.954,-2.555 -24.274,-2.555 -15.133,0 -36.781,4.406 -59.472,12.09 l -34.008,11.527 c -18.008,6.094 -44.785,11.11 -59.496,11.11 -14.582,0 -41.457,-5.028 -59.391,-11.11 L 525.027,326.84 c -22.672,-7.684 -44.343,-12.09 -59.476,-12.09 -15.141,0 -36.813,4.406 -59.496,12.09 l -34.008,11.527 c -17.961,6.082 -44.817,11.11 -59.418,11.11 -14.668,-0.008 -41.5,-5.016 -59.469,-11.11 L 219.148,326.84 c -22.695,-7.684 -44.343,-12.09 -59.476,-12.09 -6.313,0 -12.746,0.68 -24.266,2.555 l 1.407,-2.367 c 3.269,-5.45 4.996,-7.809 9.402,-12.887 5.969,-0.821 8.355,-1 13.137,-1 15.175,0 39.964,4.75 59.796,11.429 l 34.012,11.489 c 23.078,7.785 44.238,12.094 59.469,12.094 12.867,0 35.355,-4.129 50.961,-9.36 l 42.465,-14.223 c 20.05,-6.699 44.633,-11.429 59.508,-11.429 14.882,0 39.449,4.738 59.464,11.429 l 42.473,14.223 c 15.602,5.231 38.113,9.36 50.973,9.36 15.254,-0.012 36.363,-4.309 59.457,-12.094 l 34.008,-11.489 c 19.82,-6.679 44.621,-11.429 59.777,-11.429 4.765,0 7.172,0.179 13.203,1 4.746,5.629 6.18,7.597 9.352,12.887 l 1.414,2.367 0,0" id="path16" inkscape:connector-curvature="0" stroke="black" style="fill:#ffffff;fill-opacity:1;fill-rule:nonzero;"/>
			
			
			
			
			
			
			
		</g>
	</g>
</svg>