<?xml version="1.0" encoding="iso-8859-1"?><svg height="94.391731" id="svg2" inkscape:version="0.91 r13725" sodipodi:docname="Grohe.svg" version="1.1" viewBox="0 0 122.80306 94.391731" width="122.80306" xml:space="preserve" xmlns="http://www.w3.org/2000/svg" xmlns:cc="http://creativecommons.org/ns#" xmlns:dc="http://purl.org/dc/elements/1.1/" xmlns:inkscape="http://www.inkscape.org/namespaces/inkscape" xmlns:rdf="http://www.w3.org/1999/02/22-rdf-syntax-ns#" xmlns:sodipodi="http://sodipodi.sourceforge.net/DTD/sodipodi-0.dtd" xmlns:svg="http://www.w3.org/2000/svg">
	<sodipodi:namedview bordercolor="#666666" borderopacity="1" fit-margin-bottom="0" fit-margin-left="0" fit-margin-right="0" fit-margin-top="0" gridtolerance="10" guidetolerance="10" id="namedview16" inkscape:current-layer="svg2" inkscape:cx="51.413098" inkscape:cy="61.458232" inkscape:pageopacity="0" inkscape:pageshadow="2" inkscape:window-height="480" inkscape:window-maximized="0" inkscape:window-width="640" inkscape:window-x="0" inkscape:window-y="25" inkscape:zoom="2.3859934" objecttolerance="10" pagecolor="#ffffff" showgrid="false"/>
	<metadata id="metadata8">
		<rdf:RDF>
			<cc:Work rdf:about="">
				<dc:format>image/svg+xml</dc:format>
				<dc:type rdf:resource="http://purl.org/dc/dcmitype/StillImage"/>
				<dc:title/>
			</cc:Work>
		</rdf:RDF>
	</metadata>
	<defs id="defs6"/>
	<g id="g10" transform="matrix(1.3333333,0,0,-1.3333333,0,94.391731)">
		<g id="g12" transform="scale(0.1,0.1)">
			
			
			
			
			<path animation_id="4" d="m 203.941,438.133 0,-37.231 c -8.496,-3.562 -16.988,-5.347 -25.449,-5.347 -21.812,0 -37.144,16.847 -37.144,40.816 0,25.82 18.324,43.82 44.621,43.82 14.707,0 29.265,-4.097 46.918,-13.199 l 0,24.75 c -22.555,9.219 -33.688,11.848 -50.352,11.848 -46.047,0 -75.457,-26.047 -75.457,-66.828 0,-38.797 28.535,-64.598 71.442,-64.598 19.125,0 41.808,6.145 58.339,15.809 l 0,50.16 -32.918,0 0,0" id="path22" inkscape:connector-curvature="0" stroke="black" style="fill:#ffffff;fill-opacity:1;fill-rule:nonzero;"/>
			
			
			
			
		</g>
	</g>
</svg>