<?xml version="1.0" encoding="iso-8859-1"?><svg height="94.391731" id="svg2" inkscape:version="0.91 r13725" sodipodi:docname="Grohe.svg" version="1.1" viewBox="0 0 122.80306 94.391731" width="122.80306" xml:space="preserve" xmlns="http://www.w3.org/2000/svg" xmlns:cc="http://creativecommons.org/ns#" xmlns:dc="http://purl.org/dc/elements/1.1/" xmlns:inkscape="http://www.inkscape.org/namespaces/inkscape" xmlns:rdf="http://www.w3.org/1999/02/22-rdf-syntax-ns#" xmlns:sodipodi="http://sodipodi.sourceforge.net/DTD/sodipodi-0.dtd" xmlns:svg="http://www.w3.org/2000/svg">
	<sodipodi:namedview bordercolor="#666666" borderopacity="1" fit-margin-bottom="0" fit-margin-left="0" fit-margin-right="0" fit-margin-top="0" gridtolerance="10" guidetolerance="10" id="namedview16" inkscape:current-layer="svg2" inkscape:cx="51.413098" inkscape:cy="61.458232" inkscape:pageopacity="0" inkscape:pageshadow="2" inkscape:window-height="480" inkscape:window-maximized="0" inkscape:window-width="640" inkscape:window-x="0" inkscape:window-y="25" inkscape:zoom="2.3859934" objecttolerance="10" pagecolor="#ffffff" showgrid="false"/>
	<metadata id="metadata8">
		<rdf:RDF>
			<cc:Work rdf:about="">
				<dc:format>image/svg+xml</dc:format>
				<dc:type rdf:resource="http://purl.org/dc/dcmitype/StillImage"/>
				<dc:title/>
			</cc:Work>
		</rdf:RDF>
	</metadata>
	<defs id="defs6"/>
	<g id="g10" transform="matrix(1.3333333,0,0,-1.3333333,0,94.391731)">
		<g id="g12" transform="scale(0.1,0.1)">
			
			
			
			<path animation_id="3" d="m 689.547,237.242 -3.117,1.133 -8.5,2.836 c -24.668,7.441 -44.41,11.148 -59.489,11.148 -12.625,0 -33.992,-3.632 -50.941,-8.648 l -8.457,-2.5 c -4.293,-1.418 -7.156,-2.356 -8.551,-2.836 l -8.5,-2.93 -8.457,-2.879 -8.508,-2.89 c -25.812,-8.352 -44.203,-12.09 -59.476,-12.09 -13.164,0 -32.676,3.602 -50.996,9.402 l -8.5,2.688 -8.496,2.89 -8.465,2.879 -8.504,2.93 -8.543,2.836 c -24.637,7.441 -44.43,11.148 -59.418,11.148 -12.707,-0.011 -34.043,-3.625 -51.024,-8.648 l -8.445,-2.5 c -6.027,-1.945 -7.269,-2.379 -11.629,-3.969 l 17.102,-8.875 3.832,1.164 c 19.937,6.16 37.109,9.371 50.207,9.371 11.016,0 28.242,-2.808 42.41,-6.902 l 8.508,-2.469 8.457,-2.738 8.543,-2.824 8.504,-2.938 8.465,-2.871 8.496,-2.84 c 25.527,-7.832 44.316,-11.437 59.508,-11.429 13.035,0.011 32.953,3.476 50.968,8.882 l 8.496,2.547 8.508,2.84 8.457,2.871 8.5,2.938 8.551,2.824 8.457,2.738 c 21.695,6.442 37.68,9.371 50.973,9.36 13.097,0 30.238,-3.207 50.16,-9.36 l 3.824,-1.164 17.09,8.875 0,0" id="path20" inkscape:connector-curvature="0" stroke="black" style="fill:#ffffff;fill-opacity:1;fill-rule:nonzero;"/>
			
			
			
			
			
		</g>
	</g>
</svg>