<?xml version="1.0" encoding="iso-8859-1"?><!-- Created with Inkscape (http://www.inkscape.org/) --><svg height="71.999977" id="svg14098" inkscape:version="0.92.3 (2405546, 2018-03-11)" sodipodi:docname="von.svg" version="1.1" viewBox="0 0 554.98287 71.999975" width="554.98285" xmlns="http://www.w3.org/2000/svg" xmlns:cc="http://creativecommons.org/ns#" xmlns:dc="http://purl.org/dc/elements/1.1/" xmlns:inkscape="http://www.inkscape.org/namespaces/inkscape" xmlns:rdf="http://www.w3.org/1999/02/22-rdf-syntax-ns#" xmlns:sodipodi="http://sodipodi.sourceforge.net/DTD/sodipodi-0.dtd" xmlns:svg="http://www.w3.org/2000/svg">
	
  
	<defs id="defs14092">
		
    
		<clipPath clipPathUnits="userSpaceOnUse" id="clipPath7818">
			
      
			
			
    
		</clipPath>
		
    
		<clipPath clipPathUnits="userSpaceOnUse" id="clipPath7762">
			
      
			
			
    
		</clipPath>
		
  
	</defs>
	
  
	<sodipodi:namedview bordercolor="#666666" borderopacity="1.0" fit-margin-bottom="0" fit-margin-left="0" fit-margin-right="0" fit-margin-top="0" id="base" inkscape:current-layer="layer1" inkscape:cx="68.926449" inkscape:cy="-2.5508938" inkscape:document-units="px" inkscape:pageopacity="0.0" inkscape:pageshadow="2" inkscape:window-height="745" inkscape:window-maximized="1" inkscape:window-width="1213" inkscape:window-x="67" inkscape:window-y="27" inkscape:zoom="1.979899" pagecolor="#ffffff" showgrid="false" units="px"/>
	
  
	<metadata id="metadata14095">
		
    
		<rdf:RDF>
			
      
			<cc:Work rdf:about="">
				
        
				<dc:format>image/svg+xml</dc:format>
				
        
				<dc:type rdf:resource="http://purl.org/dc/dcmitype/StillImage"/>
				
        
				<dc:title/>
				
      
			</cc:Work>
			
    
		</rdf:RDF>
		
  
	</metadata>
	
  
	<g id="layer1" inkscape:groupmode="layer" inkscape:label="Layer 1" transform="translate(13.302732,-233.41775)">
		
    
		
		
    
		
		
    
		
		
    
		
		
    
		
		
    
		
		
    
		<path animation_id="8" d="m 184.03507,233.55111 c -4.43321,-0.45075 -8.93204,0.23394 -12.84704,2.164 -2.43536,0.98456 -4.93787,2.59673 -6.77185,4.39699 -0.003,0.003 -0.006,0.003 -0.009,0.004 -2.68287,2.3476 -4.32339,5.23648 -5.63349,8.44041 l -0.009,0.0154 -0.004,0.0155 c -0.81361,2.38053 -0.87652,4.79987 -1.27587,7.03701 l -0.009,0.052 -0.004,0.052 c -0.0646,2.3652 -0.1306,4.77706 0.16192,7.28233 l 0.009,0.0688 0.0236,0.0687 c 0.33772,1.04463 0.53315,2.16945 0.81457,3.31731 h -0.0734 l 0.30424,0.95191 c 1.42938,4.44265 3.77173,8.03708 6.87007,11.36011 l -0.12757,-0.19108 c 0.45116,0.96898 0.92354,1.14871 1.31515,1.40818 l -8.06745,15.21254 -0.15213,0.83908 v 0.0611 c -0.001,1.10649 0.19578,2.14703 0.49071,2.99819 0.28756,0.82979 0.61276,1.46358 1.17283,1.88448 1.14551,1.01209 2.77828,1.30472 4.20055,0.76062 0.91748,-0.2586 1.67764,-0.81268 2.14441,-1.52608 0.47625,-0.72752 0.67369,-1.66209 0.28957,-2.49772 l -0.0337,-0.0764 -0.0457,-0.0611 c -0.29116,-0.3893 -0.64759,-0.59334 -1.02069,-0.80493 -0.37312,-0.21201 -0.67533,-0.37764 -1.0698,-0.45172 l -0.11286,-0.0157 -0.11285,0.0157 c -0.70661,0.087 -1.14858,-0.35875 -1.05996,-0.84438 0.18714,-1.05364 0.87437,-1.90274 1.94812,-1.9728 0.48654,0.0865 1.01902,0.18603 1.49672,0.30896 0.52467,0.13487 0.98155,0.31677 1.14827,0.43633 l 0.0647,0.052 0.0734,0.0245 c 1.23868,0.53201 1.48953,0.88306 2.71853,1.76637 1.79114,2.00375 3.55674,3.98667 4.90232,6.18313 l 0.0132,0.0245 0.0184,0.0245 c 0.50682,0.68234 1.03539,1.7765 1.03539,1.7765 l 0.45637,0.97163 10.5799,-11.33079 11.99317,10.76155 8.51396,-14.15238 -5.17707,-4.83863 -0.0458,-1.39348 0.11777,-48.08576 -5.68748,2.64022 c -0.0404,-0.0157 -0.0642,-0.0341 -0.14717,-0.084 -0.25666,-0.16129 -0.63956,-0.46262 -1.21207,-0.56942 l 0.28951,0.1229 c -3.64677,-2.58954 -8.01773,-4.17582 -12.45937,-4.62763 z m -0.14222,1.47214 c 4.19447,0.42684 8.33252,1.91078 11.75761,4.34274 l 0.13244,0.0922 0.15706,0.0245 c 0.12769,0.0245 0.38806,0.17658 0.70174,0.37305 0.15679,0.097 0.32628,0.2092 0.57406,0.2844 0.24794,0.0764 0.64696,0.0764 0.95204,-0.11785 l -0.0868,0.0522 3.70991,-1.72736 -0.11287,45.82311 0.0649,2.02183 4.75991,4.45101 -6.99765,11.62988 -11.74781,-10.54059 -10.14804,10.87911 c -0.2065,-0.39082 -0.28278,-0.59918 -0.6232,-1.06953 l -0.009,-0.0157 c -1.44796,-2.35535 -3.28335,-4.41461 -5.089,-6.43413 l -0.0552,-0.061 -0.0691,-0.0518 c -1.20766,-0.85847 -1.65107,-1.31976 -2.96885,-1.90408 -0.46613,-0.3235 -1.01063,-0.50186 -1.59484,-0.65218 -0.59847,-0.15376 -1.22873,-0.26477 -1.75188,-0.35867 l -0.0778,-0.0155 -0.0822,0.004 c -1.84702,0.0914 -3.0457,1.61036 -3.32711,3.18498 -0.27324,1.49772 1.14992,2.73888 2.67444,2.54671 l -0.22569,-0.004 c -0.0401,-0.007 0.33145,0.12208 0.61827,0.28437 0.24259,0.13745 0.41842,0.29194 0.48583,0.34833 0.10188,0.28011 0.0817,0.63181 -0.1718,1.02067 -0.27162,0.41476 -0.76324,0.79743 -1.34454,0.95199 l -0.0394,0.008 -0.0401,0.0155 c -0.90997,0.35792 -2.0359,0.15891 -2.76273,-0.49492 l -0.034,-0.0245 -0.0281,-0.0245 c -0.0571,-0.0437 -0.43215,-0.52867 -0.6723,-1.22181 -0.23779,-0.68646 -0.40535,-1.57582 -0.40729,-2.49291 l 0.0822,-0.44654 8.52867,-16.08574 -0.65263,-0.33897 c 0,0 -0.788,-0.42693 -1.19246,-1.2955 l -0.05,-0.10275 -0.0777,-0.084 c -2.99195,-3.20923 -5.19328,-6.59509 -6.55111,-10.81553 -0.42277,-1.31085 -0.5575,-2.6653 -1.02067,-4.15135 -0.27244,-2.34923 -0.21506,-4.66109 -0.15214,-7.00266 0.4137,-2.34919 0.49992,-4.65322 1.2072,-6.7375 1.26901,-3.09885 2.78934,-5.75405 5.26052,-7.90556 l 0.0187,-0.0152 0.0131,-0.0156 c 1.67575,-1.64703 4.0812,-3.20258 6.33035,-4.10737 l 0.0236,-0.008 0.0235,-0.0155 c 3.64072,-1.80019 7.89184,-2.42913 12.08642,-2.00222 z" id="path7790" inkscape:connector-curvature="0" stroke="black" style="color:#000000;font-style:normal;font-variant:normal;font-weight:normal;font-stretch:normal;font-size:medium;line-height:normal;font-family:sans-serif;font-variant-ligatures:normal;font-variant-position:normal;font-variant-caps:normal;font-variant-numeric:normal;font-variant-alternates:normal;font-feature-settings:normal;text-indent:0;text-align:start;text-decoration:none;text-decoration-line:none;text-decoration-style:solid;text-decoration-color:#000000;letter-spacing:normal;word-spacing:normal;text-transform:none;writing-mode:lr-tb;direction:ltr;text-orientation:mixed;dominant-baseline:auto;baseline-shift:baseline;text-anchor:start;white-space:normal;shape-padding:0;clip-rule:nonzero;display:inline;overflow:visible;visibility:visible;opacity:1;isolation:auto;mix-blend-mode:normal;color-interpolation:sRGB;color-interpolation-filters:linearRGB;solid-color:#000000;solid-opacity:1;vector-effect:none;fill:#ffffff;fill-opacity:1;fill-rule:nonzero;;stroke-width:1.45723951;stroke-linecap:butt;stroke-linejoin:miter;stroke-miterlimit:4;stroke-dasharray:none;stroke-dashoffset:0;stroke-opacity:1;color-rendering:auto;image-rendering:auto;shape-rendering:auto;text-rendering:auto;enable-background:accumulate"/>
		
    
		
		
    
		
		
    
		
		
    
		
		
    
		
		
    
		
		
    
		
		
    
		
		
    
		
		
    
		
		
    
		
		
    
		
		
    
		
		
    
		
		
    
		
		
  
	</g>
	

</svg>