<?xml version="1.0" encoding="iso-8859-1"?><!-- Created with Inkscape (http://www.inkscape.org/) --><svg height="71.999977" id="svg14098" inkscape:version="0.92.3 (2405546, 2018-03-11)" sodipodi:docname="von.svg" version="1.1" viewBox="0 0 554.98287 71.999975" width="554.98285" xmlns="http://www.w3.org/2000/svg" xmlns:cc="http://creativecommons.org/ns#" xmlns:dc="http://purl.org/dc/elements/1.1/" xmlns:inkscape="http://www.inkscape.org/namespaces/inkscape" xmlns:rdf="http://www.w3.org/1999/02/22-rdf-syntax-ns#" xmlns:sodipodi="http://sodipodi.sourceforge.net/DTD/sodipodi-0.dtd" xmlns:svg="http://www.w3.org/2000/svg">
	
  
	<defs id="defs14092">
		
    
		<clipPath clipPathUnits="userSpaceOnUse" id="clipPath7818">
			
      
			
			
    
		</clipPath>
		
    
		<clipPath clipPathUnits="userSpaceOnUse" id="clipPath7762">
			
      
			
			
    
		</clipPath>
		
  
	</defs>
	
  
	<sodipodi:namedview bordercolor="#666666" borderopacity="1.0" fit-margin-bottom="0" fit-margin-left="0" fit-margin-right="0" fit-margin-top="0" id="base" inkscape:current-layer="layer1" inkscape:cx="68.926449" inkscape:cy="-2.5508938" inkscape:document-units="px" inkscape:pageopacity="0.0" inkscape:pageshadow="2" inkscape:window-height="745" inkscape:window-maximized="1" inkscape:window-width="1213" inkscape:window-x="67" inkscape:window-y="27" inkscape:zoom="1.979899" pagecolor="#ffffff" showgrid="false" units="px"/>
	
  
	<metadata id="metadata14095">
		
    
		<rdf:RDF>
			
      
			<cc:Work rdf:about="">
				
        
				<dc:format>image/svg+xml</dc:format>
				
        
				<dc:type rdf:resource="http://purl.org/dc/dcmitype/StillImage"/>
				
        
				<dc:title/>
				
      
			</cc:Work>
			
    
		</rdf:RDF>
		
  
	</metadata>
	
  
	<g id="layer1" inkscape:groupmode="layer" inkscape:label="Layer 1" transform="translate(13.302732,-233.41775)">
		
    
		
		
    
		
		
    
		
		
    
		
		
    
		
		
    
		
		
    
		
		
    
		
		
    
		
		
    
		
		
    
		
		
    
		
		
    
		
		
    
		
		
    
		
		
    
		
		
    
		
		
    
		
		
    
		
		
    
		<path animation_id="21" d="m 478.54019,252.57149 -0.5937,0.51989 c 0,0 -3.85801,3.37442 -7.98402,6.33515 -4.50319,3.20962 -10.45229,6.20749 -10.45229,6.20749 l -0.55449,0.28004 0.18641,0.58917 c 0.19064,0.60298 0.54345,1.00944 0.87837,1.698 0.33444,0.68722 0.66408,1.5886 0.77041,2.86571 1.7e-4,0.003 -1.7e-4,0.003 0,0.004 l -0.33374,17.93561 v 0.0245 c 0.074,1.40881 -0.2702,2.38434 -0.61828,3.01786 -0.34808,0.63354 -0.65267,0.87839 -0.65267,0.87839 l -0.87839,0.72137 1.02069,0.49533 20.58569,10.01086 7.8564,-12.21917 -9.31387,-4.38694 15.80113,-21.31203 -0.79,-0.38241 c 0,0 -3.23809,-1.58192 -7.26269,-4.98573 h -0.004 c -2.76968,-2.52022 -5.49328,-5.37631 -7.18906,-7.66015 z m -0.18635,2.05595 c 1.79394,2.30979 4.25138,4.94205 6.88484,7.33636 l 0.009,0.008 0.009,0.008 c 3.76348,3.18386 6.30001,4.41115 6.86027,4.69604 l -15.88952,21.42983 9.41203,4.44089 -6.25182,9.73114 -18.63254,-9.06369 c 0.15828,-0.19986 0.1972,-0.16398 0.36315,-0.46624 0.46175,-0.84024 0.88433,-2.11153 0.79496,-3.79824 l 0.33367,-17.96504 -0.004,-0.0442 c -0.12211,-1.47634 -0.52076,-2.58053 -0.91276,-3.38606 -0.2621,-0.53867 -0.38473,-0.73594 -0.53491,-1.00113 0.64533,-0.32687 5.64324,-2.83471 10.01559,-5.95234 h 0.004 c 3.91637,-2.81042 7.0599,-5.56681 7.53747,-5.98189 z" id="path7850" inkscape:connector-curvature="0" stroke="black" style="color:#000000;font-style:normal;font-variant:normal;font-weight:normal;font-stretch:normal;font-size:medium;line-height:normal;font-family:sans-serif;font-variant-ligatures:normal;font-variant-position:normal;font-variant-caps:normal;font-variant-numeric:normal;font-variant-alternates:normal;font-feature-settings:normal;text-indent:0;text-align:start;text-decoration:none;text-decoration-line:none;text-decoration-style:solid;text-decoration-color:#000000;letter-spacing:normal;word-spacing:normal;text-transform:none;writing-mode:lr-tb;direction:ltr;text-orientation:mixed;dominant-baseline:auto;baseline-shift:baseline;text-anchor:start;white-space:normal;shape-padding:0;clip-rule:nonzero;display:inline;overflow:visible;visibility:visible;opacity:1;isolation:auto;mix-blend-mode:normal;color-interpolation:sRGB;color-interpolation-filters:linearRGB;solid-color:#000000;solid-opacity:1;vector-effect:none;fill:#ffffff;fill-opacity:1;fill-rule:nonzero;;stroke-width:1.45723951;stroke-linecap:butt;stroke-linejoin:miter;stroke-miterlimit:4;stroke-dasharray:none;stroke-dashoffset:0;stroke-opacity:1;color-rendering:auto;image-rendering:auto;shape-rendering:auto;text-rendering:auto;enable-background:accumulate"/>
		
    
		
		
    
		
		
  
	</g>
	

</svg>