<?xml version="1.0" encoding="iso-8859-1"?><!-- Created with Inkscape (http://www.inkscape.org/) --><svg height="71.999977" id="svg14098" inkscape:version="0.92.3 (2405546, 2018-03-11)" sodipodi:docname="von.svg" version="1.1" viewBox="0 0 554.98287 71.999975" width="554.98285" xmlns="http://www.w3.org/2000/svg" xmlns:cc="http://creativecommons.org/ns#" xmlns:dc="http://purl.org/dc/elements/1.1/" xmlns:inkscape="http://www.inkscape.org/namespaces/inkscape" xmlns:rdf="http://www.w3.org/1999/02/22-rdf-syntax-ns#" xmlns:sodipodi="http://sodipodi.sourceforge.net/DTD/sodipodi-0.dtd" xmlns:svg="http://www.w3.org/2000/svg">
	
  
	<defs id="defs14092">
		
    
		<clipPath clipPathUnits="userSpaceOnUse" id="clipPath7818">
			
      
			
			
    
		</clipPath>
		
    
		<clipPath clipPathUnits="userSpaceOnUse" id="clipPath7762">
			
      
			
			
    
		</clipPath>
		
  
	</defs>
	
  
	<sodipodi:namedview bordercolor="#666666" borderopacity="1.0" fit-margin-bottom="0" fit-margin-left="0" fit-margin-right="0" fit-margin-top="0" id="base" inkscape:current-layer="layer1" inkscape:cx="68.926449" inkscape:cy="-2.5508938" inkscape:document-units="px" inkscape:pageopacity="0.0" inkscape:pageshadow="2" inkscape:window-height="745" inkscape:window-maximized="1" inkscape:window-width="1213" inkscape:window-x="67" inkscape:window-y="27" inkscape:zoom="1.979899" pagecolor="#ffffff" showgrid="false" units="px"/>
	
  
	<metadata id="metadata14095">
		
    
		<rdf:RDF>
			
      
			<cc:Work rdf:about="">
				
        
				<dc:format>image/svg+xml</dc:format>
				
        
				<dc:type rdf:resource="http://purl.org/dc/dcmitype/StillImage"/>
				
        
				<dc:title/>
				
      
			</cc:Work>
			
    
		</rdf:RDF>
		
  
	</metadata>
	
  
	<g id="layer1" inkscape:groupmode="layer" inkscape:label="Layer 1" transform="translate(13.302732,-233.41775)">
		
    
		
		
    
		
		
    
		
		
    
		<path animation_id="5" d="m 62.272932,252.31139 -0.529976,1.31501 c -0.05438,-0.0324 -0.108699,-0.0764 -0.107959,-0.0764 0.0012,10e-4 -0.16266,-0.24254 -0.161926,-0.24088 7.18e-4,0.001 -0.05405,-0.25695 -0.05396,-0.25517 4e-5,0.003 0.0071,-0.12981 0.01972,-0.17688 0.01167,-0.052 0.02709,-0.084 0.03921,-0.11265 0.02444,-0.061 0.04462,-0.0839 0.05878,-0.10295 0.05672,-0.0764 0.03603,-0.0442 -0.0046,-0.008 -0.08168,0.0687 -0.271457,0.21176 -0.52507,0.3877 -0.50723,0.35177 -1.290958,0.85459 -2.242592,1.41818 -1.90326,1.12717 -4.487549,2.51314 -6.992745,3.56272 -6.256501,2.61214 -11.28163,4.41625 -11.28163,4.41625 l -0.397482,0.14252 -0.07345,0.41248 c -0.03925,0.21421 -0.01702,0.20921 -0.01465,0.29965 0.0022,0.088 0.0066,0.20075 0.01465,0.33389 0.01472,0.2655 0.03856,0.61813 0.06877,1.05007 0.05992,0.86409 0.14626,2.02867 0.230639,3.31725 0.168756,2.57724 0.332115,5.66531 0.299339,7.8223 -0.09346,2.51898 -0.318033,6.29987 -0.515257,9.40699 -0.09888,1.55601 -0.192504,2.94184 -0.255175,3.92075 -0.03123,0.48926 -0.05392,0.87594 -0.06876,1.13364 -0.0066,0.12894 -0.01228,0.22104 -0.01473,0.28943 -10e-4,0.0326 -0.0024,0.0519 0,0.11775 6.93e-4,0.0155 0.0085,0.091 0.0087,0.0919 9.5e-5,5.7e-4 0.05382,0.18099 0.05391,0.1818 7.3e-5,1.6e-4 0.319394,0.13165 0.588865,0.24606 l -0.211002,0.11257 c 0,0 5.342738,2.316 10.844893,5.6777 4.510427,2.82407 9.573931,6.79646 9.573931,6.79646 l 0.397478,0.30914 19.089001,-11.46321 -0.318868,-18.83393 v -0.004 -0.0154 c 0.07288,-4.32079 0.956901,-9.22054 0.956901,-9.22054 l 0.08358,-0.48067 -18.308727,-11.66443 -0.0046,0.004 c -0.03296,-0.0244 -0.07281,-0.0525 -0.07344,-0.0525 -0.0018,-7e-4 -0.123413,-0.0519 -0.171752,-0.061 z m -0.04924,1.63887 17.032858,10.85472 c -0.08659,0.48766 -0.854601,4.7123 -0.922548,8.98036 v 0.008 l 0.304245,18.02876 -17.528485,10.52621 c -0.410252,-0.32111 -4.874845,-3.82952 -9.294223,-6.59547 h -0.0046 l -0.0045,-0.004 c -5.373884,-3.28327 -10.143042,-5.34127 -10.565197,-5.52564 0.01457,-0.2475 0.03634,-0.55745 0.0639,-0.98631 0.06258,-0.97666 0.151377,-2.36798 0.250264,-3.92567 0.197757,-3.11561 0.425742,-6.90325 0.520164,-9.45636 v -0.008 -0.004 c 0.03438,-2.2515 -0.134655,-5.3546 -0.304243,-7.94452 -0.08494,-1.29514 -0.170909,-2.45781 -0.230634,-3.31742 -0.02802,-0.40138 -0.04458,-0.72054 -0.05877,-0.96657 0.419471,-0.15114 4.834862,-1.73348 10.849798,-4.24492 2.596823,-1.08778 5.229188,-2.50083 7.179223,-3.65584 0.975028,-0.57713 1.773716,-1.08879 2.326016,-1.47212 0.165021,-0.1144 0.266202,-0.19643 0.387668,-0.28947 z" id="path7778" inkscape:connector-curvature="0" stroke="black" style="color:#000000;font-style:normal;font-variant:normal;font-weight:normal;font-stretch:normal;font-size:medium;line-height:normal;font-family:sans-serif;font-variant-ligatures:normal;font-variant-position:normal;font-variant-caps:normal;font-variant-numeric:normal;font-variant-alternates:normal;font-feature-settings:normal;text-indent:0;text-align:start;text-decoration:none;text-decoration-line:none;text-decoration-style:solid;text-decoration-color:#000000;letter-spacing:normal;word-spacing:normal;text-transform:none;writing-mode:lr-tb;direction:ltr;text-orientation:mixed;dominant-baseline:auto;baseline-shift:baseline;text-anchor:start;white-space:normal;shape-padding:0;clip-rule:nonzero;display:inline;overflow:visible;visibility:visible;opacity:1;isolation:auto;mix-blend-mode:normal;color-interpolation:sRGB;color-interpolation-filters:linearRGB;solid-color:#000000;solid-opacity:1;vector-effect:none;fill:#ffffff;fill-opacity:1;fill-rule:nonzero;;stroke-width:1.45723951;stroke-linecap:butt;stroke-linejoin:miter;stroke-miterlimit:4;stroke-dasharray:none;stroke-dashoffset:0;stroke-opacity:1;color-rendering:auto;image-rendering:auto;shape-rendering:auto;text-rendering:auto;enable-background:accumulate"/>
		
    
		
		
    
		
		
    
		
		
    
		
		
    
		
		
    
		
		
    
		
		
    
		
		
    
		
		
    
		
		
    
		
		
    
		
		
    
		
		
    
		
		
    
		
		
    
		
		
    
		
		
    
		
		
  
	</g>
	

</svg>