<?xml version="1.0" encoding="iso-8859-1"?><!-- Created with Inkscape (http://www.inkscape.org/) --><svg height="71.999977" id="svg14098" inkscape:version="0.92.3 (2405546, 2018-03-11)" sodipodi:docname="von.svg" version="1.1" viewBox="0 0 554.98287 71.999975" width="554.98285" xmlns="http://www.w3.org/2000/svg" xmlns:cc="http://creativecommons.org/ns#" xmlns:dc="http://purl.org/dc/elements/1.1/" xmlns:inkscape="http://www.inkscape.org/namespaces/inkscape" xmlns:rdf="http://www.w3.org/1999/02/22-rdf-syntax-ns#" xmlns:sodipodi="http://sodipodi.sourceforge.net/DTD/sodipodi-0.dtd" xmlns:svg="http://www.w3.org/2000/svg">
	
  
	<defs id="defs14092">
		
    
		<clipPath clipPathUnits="userSpaceOnUse" id="clipPath7818">
			
      
			
			
    
		</clipPath>
		
    
		<clipPath clipPathUnits="userSpaceOnUse" id="clipPath7762">
			
      
			
			
    
		</clipPath>
		
  
	</defs>
	
  
	<sodipodi:namedview bordercolor="#666666" borderopacity="1.0" fit-margin-bottom="0" fit-margin-left="0" fit-margin-right="0" fit-margin-top="0" id="base" inkscape:current-layer="layer1" inkscape:cx="68.926449" inkscape:cy="-2.5508938" inkscape:document-units="px" inkscape:pageopacity="0.0" inkscape:pageshadow="2" inkscape:window-height="745" inkscape:window-maximized="1" inkscape:window-width="1213" inkscape:window-x="67" inkscape:window-y="27" inkscape:zoom="1.979899" pagecolor="#ffffff" showgrid="false" units="px"/>
	
  
	<metadata id="metadata14095">
		
    
		<rdf:RDF>
			
      
			<cc:Work rdf:about="">
				
        
				<dc:format>image/svg+xml</dc:format>
				
        
				<dc:type rdf:resource="http://purl.org/dc/dcmitype/StillImage"/>
				
        
				<dc:title/>
				
      
			</cc:Work>
			
    
		</rdf:RDF>
		
  
	</metadata>
	
  
	<g id="layer1" inkscape:groupmode="layer" inkscape:label="Layer 1" transform="translate(13.302732,-233.41775)">
		
    
		
		
    
		
		
    
		
		
    
		
		
    
		
		
    
		
		
    
		
		
    
		
		
    
		
		
    
		
		
    
		
		
    
		
		
    
		
		
    
		
		
    
		
		
    
		
		
    
		
		
    
		
		
    
		<path animation_id="20" d="m 425.32173,241.85895 -6.71304,14.98172 6.8014,5.35375 -9.44636,4.16134 0.34833,0.68718 c 0,0 1.24929,2.46862 1.02073,5.60887 v 0.0157 l -0.15704,14.98652 v 0.0156 c 0.0458,1.40563 -0.82931,2.81166 -0.82931,2.81166 l -0.50545,0.76087 0.85877,0.31917 c 7.03659,2.61623 12.73789,6.64642 18.58847,12.10105 l 0.49558,0.46107 0.49568,-0.45583 c 0,0 4.33058,-3.95455 8.10177,-6.99762 4.47909,-2.88618 8.90166,-5.48149 8.90166,-5.48149 l 0.36311,-0.21086 -0.009,-22.85759 z m 0.50051,2.44881 26.35649,24.45261 0.009,21.39532 c -0.33469,0.19627 -4.28642,2.51064 -8.64154,5.3194 l -0.0328,0.0245 -0.0275,0.0245 c -3.61315,2.91334 -7.25682,6.24682 -7.71408,6.66382 -5.59054,-5.1405 -11.21386,-9.06624 -17.97509,-11.68871 0.29807,-0.50982 0.88853,-1.29693 0.83916,-2.87083 l 0.15218,-14.87354 v -0.004 c 0.20784,-2.8728 -0.54729,-4.82319 -0.90293,-5.6434 l 10.33455,-4.56369 -0.95197,-0.74619 -6.86026,-5.39773 z" id="path7846" inkscape:connector-curvature="0" stroke="black" style="color:#000000;font-style:normal;font-variant:normal;font-weight:normal;font-stretch:normal;font-size:medium;line-height:normal;font-family:sans-serif;font-variant-ligatures:normal;font-variant-position:normal;font-variant-caps:normal;font-variant-numeric:normal;font-variant-alternates:normal;font-feature-settings:normal;text-indent:0;text-align:start;text-decoration:none;text-decoration-line:none;text-decoration-style:solid;text-decoration-color:#000000;letter-spacing:normal;word-spacing:normal;text-transform:none;writing-mode:lr-tb;direction:ltr;text-orientation:mixed;dominant-baseline:auto;baseline-shift:baseline;text-anchor:start;white-space:normal;shape-padding:0;clip-rule:nonzero;display:inline;overflow:visible;visibility:visible;opacity:1;isolation:auto;mix-blend-mode:normal;color-interpolation:sRGB;color-interpolation-filters:linearRGB;solid-color:#000000;solid-opacity:1;vector-effect:none;fill:#ffffff;fill-opacity:1;fill-rule:nonzero;;stroke-width:1.45723951;stroke-linecap:butt;stroke-linejoin:miter;stroke-miterlimit:4;stroke-dasharray:none;stroke-dashoffset:0;stroke-opacity:1;color-rendering:auto;image-rendering:auto;shape-rendering:auto;text-rendering:auto;enable-background:accumulate"/>
		
    
		
		
    
		
		
    
		
		
  
	</g>
	

</svg>