<?xml version="1.0" encoding="iso-8859-1"?><!-- Created with Inkscape (http://www.inkscape.org/) --><svg height="71.999977" id="svg14098" inkscape:version="0.92.3 (2405546, 2018-03-11)" sodipodi:docname="von.svg" version="1.1" viewBox="0 0 554.98287 71.999975" width="554.98285" xmlns="http://www.w3.org/2000/svg" xmlns:cc="http://creativecommons.org/ns#" xmlns:dc="http://purl.org/dc/elements/1.1/" xmlns:inkscape="http://www.inkscape.org/namespaces/inkscape" xmlns:rdf="http://www.w3.org/1999/02/22-rdf-syntax-ns#" xmlns:sodipodi="http://sodipodi.sourceforge.net/DTD/sodipodi-0.dtd" xmlns:svg="http://www.w3.org/2000/svg">
	
  
	<defs id="defs14092">
		
    
		<clipPath clipPathUnits="userSpaceOnUse" id="clipPath7818">
			
      
			
			
    
		</clipPath>
		
    
		<clipPath clipPathUnits="userSpaceOnUse" id="clipPath7762">
			
      
			
			
    
		</clipPath>
		
  
	</defs>
	
  
	<sodipodi:namedview bordercolor="#666666" borderopacity="1.0" fit-margin-bottom="0" fit-margin-left="0" fit-margin-right="0" fit-margin-top="0" id="base" inkscape:current-layer="layer1" inkscape:cx="68.926449" inkscape:cy="-2.5508938" inkscape:document-units="px" inkscape:pageopacity="0.0" inkscape:pageshadow="2" inkscape:window-height="745" inkscape:window-maximized="1" inkscape:window-width="1213" inkscape:window-x="67" inkscape:window-y="27" inkscape:zoom="1.979899" pagecolor="#ffffff" showgrid="false" units="px"/>
	
  
	<metadata id="metadata14095">
		
    
		<rdf:RDF>
			
      
			<cc:Work rdf:about="">
				
        
				<dc:format>image/svg+xml</dc:format>
				
        
				<dc:type rdf:resource="http://purl.org/dc/dcmitype/StillImage"/>
				
        
				<dc:title/>
				
      
			</cc:Work>
			
    
		</rdf:RDF>
		
  
	</metadata>
	
  
	<g id="layer1" inkscape:groupmode="layer" inkscape:label="Layer 1" transform="translate(13.302732,-233.41775)">
		
    
		
		
    
		
		
    
		
		
    
		
		
    
		
		
    
		
		
    
		
		
    
		
		
    
		
		
    
		
		
    
		<path animation_id="12" d="m 256.62719,240.92661 -1.36916,0.80448 c 0,0 -4.90279,2.87225 -7.55216,4.03865 -2.25856,0.89953 -6.81111,2.11966 -6.81111,2.11966 l -0.53979,0.14262 -0.33373,40.67588 v 0.0158 c 0.0205,0.63882 -0.16201,1.24862 -0.34344,1.72241 l -0.29941,-0.2697 -0.22568,1.30518 c -0.006,0.0442 -0.0157,0.0954 -0.0129,0.17691 10e-4,0.044 0.004,0.0839 0.0186,0.14674 0.007,0.0337 0.0326,0.10723 0.0326,0.10856 3.6e-4,7.7e-4 0.0687,0.12733 0.0695,0.12733 4.6e-4,6.6e-4 0.0642,0.0523 0.1227,0.10833 0.0778,0.0688 0.15614,0.14676 0.15705,0.14676 2e-5,0 0.004,-1.1e-4 0.004,0 l 0.79008,0.71648 0.0182,0.0155 c 2.1711,1.71876 3.63807,3.31442 4.64216,4.21542 l 0.0329,0.0245 0.0275,0.0245 c 2.38333,1.69451 6.64434,6.55123 6.64434,6.55123 l 0.66734,0.77012 7.6405,-13.10233 -5.23596,-4.49991 0.20619,-35.04226 -0.004,-0.0324 c -0.20812,-2.5349 0.81167,-6.41576 1.36426,-9.44148 z m -1.91869,2.74819 c -0.56094,2.69867 -1.39375,5.80635 -1.18267,8.37638 l -0.21098,35.62633 4.82866,4.14654 -6.04565,10.36897 c -0.70926,-0.81453 -3.7139,-4.32748 -6.19286,-6.08991 l 0.0687,0.0518 c -0.88531,-0.79389 -2.4516,-2.482 -4.71584,-4.27418 l 0.0397,0.0244 -0.46623,-0.42191 c 0.0512,-0.10004 0.0987,-0.16647 0.15214,-0.28941 0.26584,-0.62749 0.52907,-1.52316 0.49566,-2.52716 l 0.32384,-39.54212 c 0.6064,-0.16143 4.20155,-1.10973 6.4677,-2.01683 l 0.0129,-0.004 0.008,-0.004 c 2.36973,-1.04326 5.22244,-2.73763 6.41373,-3.43018 z" id="path7806" inkscape:connector-curvature="0" stroke="black" style="color:#000000;font-style:normal;font-variant:normal;font-weight:normal;font-stretch:normal;font-size:medium;line-height:normal;font-family:sans-serif;font-variant-ligatures:normal;font-variant-position:normal;font-variant-caps:normal;font-variant-numeric:normal;font-variant-alternates:normal;font-feature-settings:normal;text-indent:0;text-align:start;text-decoration:none;text-decoration-line:none;text-decoration-style:solid;text-decoration-color:#000000;letter-spacing:normal;word-spacing:normal;text-transform:none;writing-mode:lr-tb;direction:ltr;text-orientation:mixed;dominant-baseline:auto;baseline-shift:baseline;text-anchor:start;white-space:normal;shape-padding:0;clip-rule:nonzero;display:inline;overflow:visible;visibility:visible;opacity:1;isolation:auto;mix-blend-mode:normal;color-interpolation:sRGB;color-interpolation-filters:linearRGB;solid-color:#000000;solid-opacity:1;vector-effect:none;fill:#ffffff;fill-opacity:1;fill-rule:nonzero;;stroke-width:1.45723951;stroke-linecap:butt;stroke-linejoin:miter;stroke-miterlimit:4;stroke-dasharray:none;stroke-dashoffset:0;stroke-opacity:1;color-rendering:auto;image-rendering:auto;shape-rendering:auto;text-rendering:auto;enable-background:accumulate"/>
		
    
		
		
    
		
		
    
		
		
    
		
		
    
		
		
    
		
		
    
		
		
    
		
		
    
		
		
    
		
		
    
		
		
  
	</g>
	

</svg>