<?xml version="1.0" encoding="iso-8859-1"?><!-- Created with Inkscape (http://www.inkscape.org/) --><svg height="71.999977" id="svg14098" inkscape:version="0.92.3 (2405546, 2018-03-11)" sodipodi:docname="von.svg" version="1.1" viewBox="0 0 554.98287 71.999975" width="554.98285" xmlns="http://www.w3.org/2000/svg" xmlns:cc="http://creativecommons.org/ns#" xmlns:dc="http://purl.org/dc/elements/1.1/" xmlns:inkscape="http://www.inkscape.org/namespaces/inkscape" xmlns:rdf="http://www.w3.org/1999/02/22-rdf-syntax-ns#" xmlns:sodipodi="http://sodipodi.sourceforge.net/DTD/sodipodi-0.dtd" xmlns:svg="http://www.w3.org/2000/svg">
	
  
	<defs id="defs14092">
		
    
		<clipPath clipPathUnits="userSpaceOnUse" id="clipPath7818">
			
      
			
			
    
		</clipPath>
		
    
		<clipPath clipPathUnits="userSpaceOnUse" id="clipPath7762">
			
      
			
			
    
		</clipPath>
		
  
	</defs>
	
  
	<sodipodi:namedview bordercolor="#666666" borderopacity="1.0" fit-margin-bottom="0" fit-margin-left="0" fit-margin-right="0" fit-margin-top="0" id="base" inkscape:current-layer="layer1" inkscape:cx="68.926449" inkscape:cy="-2.5508938" inkscape:document-units="px" inkscape:pageopacity="0.0" inkscape:pageshadow="2" inkscape:window-height="745" inkscape:window-maximized="1" inkscape:window-width="1213" inkscape:window-x="67" inkscape:window-y="27" inkscape:zoom="1.979899" pagecolor="#ffffff" showgrid="false" units="px"/>
	
  
	<metadata id="metadata14095">
		
    
		<rdf:RDF>
			
      
			<cc:Work rdf:about="">
				
        
				<dc:format>image/svg+xml</dc:format>
				
        
				<dc:type rdf:resource="http://purl.org/dc/dcmitype/StillImage"/>
				
        
				<dc:title/>
				
      
			</cc:Work>
			
    
		</rdf:RDF>
		
  
	</metadata>
	
  
	<g id="layer1" inkscape:groupmode="layer" inkscape:label="Layer 1" transform="translate(13.302732,-233.41775)">
		
    
		
		
    
		
		
    
		
		
    
		
		
    
		
		
    
		
		
    
		
		
    
		
		
    
		
		
    
		<path animation_id="11" d="m 230.63863,241.32396 -1.52113,0.77016 c 0,0 -3.98327,2.01047 -6.40393,3.28301 -3.46694,1.68612 -7.99873,2.89526 -7.99873,2.89526 l -0.5349,0.14253 -0.004,0.55412 -0.20611,39.33624 c -0.0214,0.0875 -0.19867,0.43203 -0.39258,0.74114 -0.0981,0.15878 -0.20065,0.29362 -0.28457,0.53005 -0.0433,0.11883 -0.108,0.28279 -0.0236,0.56948 0.0824,0.28692 0.42976,0.53551 0.64285,0.57463 l -0.28956,-0.12292 c 2.53662,1.79778 4.38656,3.49018 6.63947,5.2656 l 0.004,0.004 c 2.77062,2.15044 6.75229,6.26668 6.75229,6.26668 l 0.68702,0.71609 5.86903,-10.73199 0.85383,-1.10407 -5.93766,-5.00052 0.19628,-32.99093 v -0.004 c -0.0472,-3.65858 0.59008,-7.21876 1.45736,-10.0598 z m -2.10507,2.70893 c -0.71005,2.7146 -1.34649,5.70995 -1.30535,8.99983 l -0.19636,33.65352 5.3882,4.54394 -0.0695,0.0872 -5.00052,9.14206 c -0.68735,-0.70759 -3.54919,-3.69209 -6.18789,-5.74115 l -0.004,-0.004 c -2.07153,-1.63267 -3.91753,-3.26565 -6.30079,-4.99545 0.18644,-0.28618 0.45652,-0.63686 0.55455,-1.17288 l 0.008,-0.0611 0.20613,-39.00238 c 0.53956,-0.14518 4.31109,-1.13748 7.74354,-2.8119 l 0.008,-0.004 0.008,-0.004 c 1.93022,-1.01471 4.06284,-2.08426 5.14268,-2.63024 z" id="path7802" inkscape:connector-curvature="0" stroke="black" style="color:#000000;font-style:normal;font-variant:normal;font-weight:normal;font-stretch:normal;font-size:medium;line-height:normal;font-family:sans-serif;font-variant-ligatures:normal;font-variant-position:normal;font-variant-caps:normal;font-variant-numeric:normal;font-variant-alternates:normal;font-feature-settings:normal;text-indent:0;text-align:start;text-decoration:none;text-decoration-line:none;text-decoration-style:solid;text-decoration-color:#000000;letter-spacing:normal;word-spacing:normal;text-transform:none;writing-mode:lr-tb;direction:ltr;text-orientation:mixed;dominant-baseline:auto;baseline-shift:baseline;text-anchor:start;white-space:normal;shape-padding:0;clip-rule:nonzero;display:inline;overflow:visible;visibility:visible;opacity:1;isolation:auto;mix-blend-mode:normal;color-interpolation:sRGB;color-interpolation-filters:linearRGB;solid-color:#000000;solid-opacity:1;vector-effect:none;fill:#ffffff;fill-opacity:1;fill-rule:nonzero;;stroke-width:1.45723951;stroke-linecap:butt;stroke-linejoin:miter;stroke-miterlimit:4;stroke-dasharray:none;stroke-dashoffset:0;stroke-opacity:1;color-rendering:auto;image-rendering:auto;shape-rendering:auto;text-rendering:auto;enable-background:accumulate"/>
		
    
		
		
    
		
		
    
		
		
    
		
		
    
		
		
    
		
		
    
		
		
    
		
		
    
		
		
    
		
		
    
		
		
    
		
		
  
	</g>
	

</svg>