<?xml version="1.0" encoding="iso-8859-1"?><!-- Created with Inkscape (http://www.inkscape.org/) --><svg height="71.999977" id="svg14098" inkscape:version="0.92.3 (2405546, 2018-03-11)" sodipodi:docname="von.svg" version="1.1" viewBox="0 0 554.98287 71.999975" width="554.98285" xmlns="http://www.w3.org/2000/svg" xmlns:cc="http://creativecommons.org/ns#" xmlns:dc="http://purl.org/dc/elements/1.1/" xmlns:inkscape="http://www.inkscape.org/namespaces/inkscape" xmlns:rdf="http://www.w3.org/1999/02/22-rdf-syntax-ns#" xmlns:sodipodi="http://sodipodi.sourceforge.net/DTD/sodipodi-0.dtd" xmlns:svg="http://www.w3.org/2000/svg">
	
  
	<defs id="defs14092">
		
    
		<clipPath clipPathUnits="userSpaceOnUse" id="clipPath7818">
			
      
			
			
    
		</clipPath>
		
    
		<clipPath clipPathUnits="userSpaceOnUse" id="clipPath7762">
			
      
			
			
    
		</clipPath>
		
  
	</defs>
	
  
	<sodipodi:namedview bordercolor="#666666" borderopacity="1.0" fit-margin-bottom="0" fit-margin-left="0" fit-margin-right="0" fit-margin-top="0" id="base" inkscape:current-layer="layer1" inkscape:cx="68.926449" inkscape:cy="-2.5508938" inkscape:document-units="px" inkscape:pageopacity="0.0" inkscape:pageshadow="2" inkscape:window-height="745" inkscape:window-maximized="1" inkscape:window-width="1213" inkscape:window-x="67" inkscape:window-y="27" inkscape:zoom="1.979899" pagecolor="#ffffff" showgrid="false" units="px"/>
	
  
	<metadata id="metadata14095">
		
    
		<rdf:RDF>
			
      
			<cc:Work rdf:about="">
				
        
				<dc:format>image/svg+xml</dc:format>
				
        
				<dc:type rdf:resource="http://purl.org/dc/dcmitype/StillImage"/>
				
        
				<dc:title/>
				
      
			</cc:Work>
			
    
		</rdf:RDF>
		
  
	</metadata>
	
  
	<g id="layer1" inkscape:groupmode="layer" inkscape:label="Layer 1" transform="translate(13.302732,-233.41775)">
		
    
		<path animation_id="2" d="m 348.50696,264.23714 10.82044,6.37523 -0.2143,19.35943 -10.59263,-5.65465 z m -294.422713,-0.74697 11.410017,7.15893 -0.519249,18.97429 -11.168813,-6.4455 z m -13.349656,-0.36535 c -0.06015,0.3286 0.680039,8.29107 0.613037,12.69977 -0.187596,5.07522 -0.921238,15.16189 -0.854236,14.82033 0,0 5.376716,2.33479 10.934318,5.72495 4.562671,2.86086 9.647936,6.84725 9.647936,6.84725 L 79.373207,292.2227 79.061673,273.79448 c 0.07355,-4.41872 0.964791,-9.36997 0.964791,-9.36997 L 62.127546,253.02466 c 0.355092,0.0688 -4.978069,3.53083 -10.080082,5.67149 -6.271164,2.6196 -11.312871,4.42867 -11.312871,4.42867 m -46.8661687,30.67557 c 0,0 6.14385122,2.13738 9.4134322,4.09028 3.9831196,2.08398 8.8305355,5.33678 8.8305355,5.33678 l 19.597367,-14.16704 c 0,0 -1.155747,-5.64817 -1.370141,-14.53577 0.304847,-5.73494 1.25959,-13.04483 1.25959,-13.04483 l -13.03811,-8.14366 -9.3330331,9.54728 7.4871971,4.75387 -0.234504,23.44651 c 0.05702,-0.33487 -8.9511321,-4.6733 -9.2425837,-5.07199 l 0.3483591,-24.1065 -10.8137245,-8.41515 -8.9879829,11.65451 6.9009444,3.96318 c 0,0 0.043541,5.79544 -0.1440394,10.86062 0.043536,5.80551 -0.6163735,13.5138 -0.6733239,13.83191 m 95.4609309,-24.62881 -0.190951,29.23184 14.043103,4.58266 0.0329,-36.42433 8.35484,5.94619 -0.0544,22.4551 9.76522,8.22408 7.75182,-10.85053 -4.09033,-3.46386 0.35178,-24.10322 c -0.0583,0.33128 -4.67656,-2.20749 -6.90094,-3.96957 -2.92452,-1.89268 -7.31308,-5.7452 -7.31308,-5.7452 l -7.57091,7.82869 -11.098477,-8.82032 -6.535802,12.10022 z m 70.071462,-1.96643 c 1.3936,4.33129 3.67155,7.81878 6.70995,11.08485 0.51928,1.11549 1.52095,1.63505 1.52095,1.63505 l -8.23764,15.53372 -0.12052,0.66352 c -0.006,2.0333 0.74697,3.8758 1.3902,4.33126 0.93801,0.85151 2.33825,1.09897 3.51414,0.63355 1.52423,-0.40198 2.51916,-1.92607 1.99993,-3.04514 -0.28809,-0.38487 -1.28308,-0.90786 -1.63812,-0.97463 -1.11556,0.14089 -2.05025,-0.7037 -1.86597,-1.69514 0.23118,-1.31998 1.17582,-2.51588 2.64317,-2.58948 1.04513,0.18783 2.45215,0.44211 3.09199,0.89761 1.34666,0.58314 1.64148,0.98177 2.93121,1.89628 1.80907,2.02335 3.62468,4.05351 5.0183,6.34461 0.57954,0.77704 1.10885,1.90303 1.10885,1.90303 l 10.33128,-11.07169 11.86902,10.65269 7.75849,-12.89041 -4.97132,-4.64658 -0.0546,-1.71192 0.11737,-46.95003 -4.75029,2.20794 c -0.41542,0.26791 -0.99492,-0.51576 -1.69846,-0.64652 -7.06849,-5.02139 -17.02792,-6.14051 -24.58883,-2.40177 -2.34498,0.94786 -4.80723,2.5391 -6.56929,4.26785 -2.58622,2.25453 -4.17409,5.03509 -5.46717,8.19403 -0.76709,2.24451 -0.8375,4.62306 -1.24951,6.93104 -0.0646,2.36182 -0.12397,4.73696 0.16078,7.17245 0.4623,1.44374 0.57951,2.83063 1.04518,4.27464 m 21.16516,15.39623 c -4.27455,-2.4721 -8.48879,-3.23941 -8.48879,-3.23941 l 14.71638,-31.37575 0.99497,0.51564 0.0703,41.88156 c 0,0 -1.7956,-4.0703 -7.29289,-7.78227 M 165.594,273.09145 c -2.5661,-3.86232 -3.14899,-8.73651 -2.7202,-13.08162 0.46232,-0.60605 0.58625,-1.26634 0.70685,-1.91608 0.35507,-1.97977 1.35002,-3.50426 2.70339,-4.96475 3.88266,-5.42355 10.56584,-8.30111 16.76666,-6.49551 0.35176,0.061 0.9916,0.51562 0.9916,0.51562 l -15.17875,29.93544 c 0,0 -2.16746,-2.09032 -3.26955,-3.9933 m 49.30494,-24.11969 -0.20773,39.44941 c -0.12066,0.65987 -1.00164,1.5208 -0.65328,1.58444 2.57614,1.81916 4.44209,3.52757 6.66987,5.28615 2.86079,2.22127 6.83391,6.34149 6.83391,6.34149 l 5.41355,-9.91572 0.46894,-0.59956 -5.66809,-4.76348 0.19434,-33.32892 c -0.045,-3.74874 0.60294,-7.37343 1.49074,-10.28114 0,0 -3.98313,2.00999 -6.39512,3.27624 -3.56776,1.74197 -8.14716,2.95132 -8.14716,2.95132 m 24.96738,42.63503 0.93793,0.84786 c 2.21443,1.75545 3.73197,3.3937 4.67325,4.24463 2.57617,1.82902 6.7737,6.66637 6.7737,6.66637 l 6.82051,-11.69815 -5.02827,-4.32156 0.20429,-35.35226 c -0.22782,-2.77378 0.83423,-6.65978 1.3768,-9.63118 0,0 -4.88089,2.86772 -7.62451,4.07708 -2.355,0.94127 -6.9244,2.15388 -6.9244,2.15388 l -0.32832,40.10594 c 0.0587,1.71527 -0.93799,3.23601 -0.881,2.90764 m 26.40785,-23.83145 -0.11085,22.78982 c 0.0511,1.70511 -1.59122,2.78038 -1.23944,2.83736 3.80557,1.02183 5.79211,2.07031 8.77692,3.6281 3.62469,2.0133 8.23759,6.58917 8.23759,6.58917 l 6.35493,-11.1084 -8.3046,-6.26119 0.12739,-24.82323 -11.00135,-7.43686 -6.40516,11.44345 z m 23.07467,24.9271 c 0,0 5.44363,2.00329 9.65122,4.80042 4.56274,2.87441 8.12373,7.2559 7.77195,7.1925 l 0.88107,-0.86434 c 9.39336,-9.86895 17.78505,-14.14031 17.83532,-14.47519 -0.22442,-0.72666 -0.6935,-2.17087 -0.56953,-4.87087 l 0.0929,-14.61586 c -0.16761,-3.09537 -0.048,-5.79236 1.48741,-8.24108 l -13.52386,-7.55426 -9.61106,9.16572 8.8205,5.32957 -0.11386,22.78999 -10.17051,-5.91929 0.34502,-24.10325 -11.3397,-7.49044 -10.33127,9.02132 8.70988,5.99996 z m 44.67862,-0.43884 c -0.061,0.32444 5.45377,1.99976 10.35813,4.92441 4.62299,2.54265 9.23924,7.11871 9.30286,6.78695 9.15217,-10.59946 18.94748,-14.61922 19.00444,-14.94762 l 0.2178,-17.31939 c 0,-2.03998 0.41538,-4.35146 0.83753,-6.65969 0,0 -6.20416,-3.84567 -10.12027,-6.24783 -2.27464,-1.43033 -6.9512,-5.67824 -6.9512,-5.67824 -9.21577,6.84409 -13.95604,7.00162 -20.64597,9.89262 l -1.57779,0.73691 c 0,0 0.99157,4.59952 1.0854,12.09652 -0.19778,9.15239 -0.50592,12.85056 -1.51085,16.41518 m 10.14707,-50.25312 c -3.22263,-0.23819 -5.92611,2.67664 -6.17069,6.03652 0.10736,3.4171 2.92125,5.96634 6.1439,6.21089 3.26959,-0.0839 6.32814,-2.93455 6.21754,-6.36161 -0.16759,-3.09536 -2.90772,-5.97287 -6.19075,-5.8858 m 23.59725,-0.16385 c -3.27963,0.0896 -5.98302,2.99811 -6.16727,6.03656 0.1138,3.42371 2.85756,6.30141 6.1405,6.21432 3.21594,0.23821 6.27446,-2.61968 6.16056,-6.04353 -0.11064,-3.41351 -2.56607,-5.90277 -6.13379,-6.20735 m 15.98277,26.03246 -0.23114,21.3998 c -0.003,4.08696 -1.82576,6.14052 -1.82576,6.14052 l 12.92422,6.75344 8.46207,-10.72316 -5.96298,-3.12896 0.16074,-21.06449 9.93941,7.23905 7.81551,-11.18206 -11.74841,-9.2695 -5.75862,7.8122 -9.46698,-7.8423 -7.93613,11.84887 z m 56.57102,24.17024 -9.35312,-6.46545 0.0554,-20.408 9.28283,8.82361 z m -13.51042,-29.674 -9.84894,4.34472 c 0,0 1.33996,2.6264 1.09542,5.99326 l -0.15402,14.94078 c 0.055,1.70867 -0.94807,3.23619 -0.94807,3.23619 7.14216,2.65646 12.93761,6.75687 18.83026,12.25095 0,0 4.34825,-3.97987 8.15715,-7.04518 4.51579,-2.91775 8.97125,-5.52753 8.97125,-5.52753 l -0.009,-22.11992 -27.33247,-25.35922 -6.06681,13.53397 z m 32.83982,31.11772 19.99934,9.7316 7.05837,-10.97106 -9.36648,-4.41864 15.8085,-21.31909 c 0,0 -3.33319,-1.61818 -7.4202,-5.0819 -2.8073,-2.54931 -5.55761,-5.43387 -7.30965,-7.78876 0,0 -3.86919,3.38677 -8.02986,6.37494 -4.57943,3.26295 -10.5558,6.27449 -10.5558,6.27449 0.22439,0.71977 1.45726,1.96328 1.68171,4.72332 l -0.33161,17.98275 c 0.16756,3.09213 -1.53425,4.49235 -1.53425,4.49235 m 14.98777,-24.86677 7.0651,7.05509 -7.16558,9.601 z m 25.94221,0.93472 -0.13398,28.90696 13.6981,4.51573 0.0857,-36.74605 9.1789,7.44052 -0.345,22.06965 9.87571,7.56402 7.75857,-10.85725 -4.09365,-3.45388 0.23437,-23.45318 c 0,0 -3.97309,-2.07364 -7.48386,-4.74679 -2.86088,-2.22438 -7.18569,-6.40519 -7.18569,-6.40519 -0.81738,0.52948 -5.92946,6.75028 -8.2175,9.40681 l -9.58091,-9.21256 -7.53411,11.57428" id="path7766" inkscape:connector-curvature="0" stroke="black" style="fill:#e31836;fill-opacity:1;fill-rule:evenodd;;stroke-width:3.34997725"/>
		
    
		
		
    
		
		
    
		
		
    
		
		
    
		
		
    
		
		
    
		
		
    
		
		
    
		
		
    
		
		
    
		
		
    
		
		
    
		
		
    
		
		
    
		
		
    
		
		
    
		
		
    
		
		
    
		
		
    
		
		
    
		
		
  
	</g>
	

</svg>