<?xml version="1.0" encoding="iso-8859-1"?><!-- Created with Inkscape (http://www.inkscape.org/) --><svg height="392.95276" id="svg3217" version="1.1" width="715.74799" xmlns="http://www.w3.org/2000/svg" xmlns:cc="http://creativecommons.org/ns#" xmlns:dc="http://purl.org/dc/elements/1.1/" xmlns:rdf="http://www.w3.org/1999/02/22-rdf-syntax-ns#" xmlns:svg="http://www.w3.org/2000/svg">
	
  
	<defs id="defs3219"/>
	
  
	<metadata id="metadata3222">
		
    
		<rdf:RDF>
			
      
			<cc:Work rdf:about="">
				
        
				<dc:format>image/svg+xml</dc:format>
				
        
				<dc:type rdf:resource="http://purl.org/dc/dcmitype/StillImage"/>
				
        
				<dc:title/>
				
      
			</cc:Work>
			
    
		</rdf:RDF>
		
  
	</metadata>
	
  
	<g id="layer1" transform="translate(-10.641081,-197.68781)">
		
    
		<g id="g3246" transform="matrix(4.3859596,0,0,4.3859596,-4105.1637,-2103.6619)">
			
      
			
			
      
			
			
      
			
			
      
			
			
      
			
			
      
			<path animation_id="5" d="m 1055.855,557.17441 0,-13.86 c 0,-1.89875 0.1438,-3.84625 -0.665,-5.64875 -1.2325,-2.80125 -4.2237,-4.035 -7.7825,-4.035 -3.2775,0 -5.2237,0.80625 -6.9812,2.42 -1.375,-1.56625 -3.5125,-2.42 -6.0763,-2.42 -2.895,0 -4.9362,1.04375 -6.3125,2.42 l 0,-2.04125 -4.6525,0 0,23.165 5.3638,0 0,-10.585 c 0,-3.4175 -0.5688,-8.2125 4.605,-8.2125 3.7512,0 3.6075,1.94625 3.6075,4.8425 l 0,13.955 5.3175,0 0,-10.68 c 0,-3.4175 -0.5225,-8.1175 4.6537,-8.1175 3.7487,0 3.56,1.94625 3.56,4.8425 l 0,13.955 5.3625,0" id="path3193" stroke="black" style="fill:#ed1639;fill-opacity:1;fill-rule:nonzero;"/>
			
      
			
			
      
			
			
    
		</g>
		
  
	</g>
	

</svg>