<?xml version="1.0" encoding="iso-8859-1"?><!-- Created with Inkscape (http://www.inkscape.org/) --><svg height="392.95276" id="svg3217" version="1.1" width="715.74799" xmlns="http://www.w3.org/2000/svg" xmlns:cc="http://creativecommons.org/ns#" xmlns:dc="http://purl.org/dc/elements/1.1/" xmlns:rdf="http://www.w3.org/1999/02/22-rdf-syntax-ns#" xmlns:svg="http://www.w3.org/2000/svg">
	
  
	<defs id="defs3219"/>
	
  
	<metadata id="metadata3222">
		
    
		<rdf:RDF>
			
      
			<cc:Work rdf:about="">
				
        
				<dc:format>image/svg+xml</dc:format>
				
        
				<dc:type rdf:resource="http://purl.org/dc/dcmitype/StillImage"/>
				
        
				<dc:title/>
				
      
			</cc:Work>
			
    
		</rdf:RDF>
		
  
	</metadata>
	
  
	<g id="layer1" transform="translate(-10.641081,-197.68781)">
		
    
		<g id="g3246" transform="matrix(4.3859596,0,0,4.3859596,-4105.1637,-2103.6619)">
			
      
			
			
      
			
			
      
			
			
      
			
			
      
			
			
      
			
			
      
			
			
      
			<path animation_id="7" d="m 1098.685,606.69191 c 0,0.83125 -0.4875,1.24625 -1.4613,1.24625 -0.5325,0 -0.9049,-0.105 -1.1162,-0.31625 -0.21,-0.21 -0.315,-0.5475 -0.315,-1.015 l 0,-4.9325 4.0275,0 0,-1.89625 -4.0275,0 0,-3.62625 -2.275,0 0,3.62625 -1.5787,0 0,1.89625 1.5787,0 0,4.93625 c 0,2.125 1.1962,3.1875 3.5875,3.1875 2.455,0 3.6825,-1.035 3.6825,-3.10625 l -2.1025,0 z m -9.0612,-6.385 c -0.6188,-0.435 -1.5825,-0.6625 -2.8925,-0.68875 -1.4551,-0.0275 -2.5375,0.15375 -3.2488,0.54125 -0.8612,0.45875 -1.2987,1.26 -1.3113,2.405 -0.027,1.3325 0.4238,2.20625 1.3513,2.61875 0.4738,0.21875 1.4913,0.36625 3.05,0.445 0.6913,0.0462 1.135,0.115 1.3325,0.20625 0.3238,0.1775 0.4725,0.5275 0.445,1.04625 -0.014,0.395 -0.1612,0.67 -0.445,0.8275 -0.335,0.205 -0.96,0.2925 -1.8737,0.26625 -0.7838,-0.0275 -1.31,-0.13625 -1.5813,-0.33 -0.27,-0.19375 -0.4038,-0.515 -0.4038,-0.9625 l -2.1024,0 c 0,1.14625 0.3712,1.9625 1.1162,2.45125 0.6438,0.41625 1.6413,0.63875 2.99,0.665 1.4413,0.0262 2.5275,-0.1675 3.2575,-0.58375 0.8625,-0.4725 1.3,-1.2825 1.3138,-2.4275 0.025,-1.38875 -0.4488,-2.28375 -1.4225,-2.68375 -0.4275,-0.1775 -1.4763,-0.32 -3.1488,-0.425 -0.6188,-0.0388 -1.0162,-0.10875 -1.195,-0.2075 -0.295,-0.1425 -0.43,-0.46625 -0.405,-0.96625 0.014,-0.375 0.1563,-0.6375 0.425,-0.79 0.3487,-0.2025 0.9788,-0.28875 1.885,-0.25625 0.5938,0.0275 1.0113,0.0925 1.255,0.19625 0.3738,0.1925 0.5625,0.55125 0.5625,1.0775 l 2.1025,0 c 0,-1.11875 -0.3525,-1.92625 -1.0562,-2.425 z m -9.6963,3.945 c 0,-1.53625 -0.1425,-2.5775 -0.425,-3.13125 -0.5112,-1.015 -1.6475,-1.52125 -3.4025,-1.52125 -1.1837,0 -2.13,0.31625 -2.8412,0.94625 l 0,-0.77875 -1.9788,0 0,9.86875 2.2738,0 0,-4.59625 c 0,-1.21125 0.076,-1.99375 0.2275,-2.34125 0.2837,-0.71875 0.9687,-1.07875 2.06,-1.07875 0.8862,0 1.4325,0.23125 1.635,0.69375 0.105,0.23625 0.1575,0.945 0.1575,2.1225 l 0,5.2 2.2937,0 0,-5.38375 z m -17.6237,-0.5375 c 0,-0.77 0.1137,-1.3025 0.345,-1.59875 0.3225,-0.41375 0.9399,-0.62 1.855,-0.62 0.9737,0 1.615,0.1925 1.9237,0.58125 0.21,0.28125 0.3163,0.82875 0.3163,1.6375 l -4.44,0 z m 6.0637,-2.4 c -0.62,-1.13125 -1.9062,-1.69625 -3.86,-1.69625 -1.8175,0 -3.065,0.49875 -3.7425,1.4975 -0.5275,0.765 -0.79,2.00375 -0.79,3.72 0,1.63875 0.2687,2.82125 0.8088,3.55125 0.6899,0.94125 1.9487,1.41125 3.7775,1.41125 2.8875,0 4.33,-1.035 4.33,-3.10625 l -2.1475,0 c -0.013,0.82 -0.7138,1.2275 -2.1013,1.2275 -0.9387,0 -1.5775,-0.18125 -1.9112,-0.54125 -0.31,-0.32875 -0.4638,-0.92875 -0.4638,-1.805 l 6.7513,0 c 0,-2.07 -0.2175,-3.49 -0.6513,-4.25875 z m -10.6575,-1.54125 -2.2744,0 0,9.86175 2.2744,0 0,-9.86175 z m -1.1462,-3.7675 c -0.8363,0 -1.255,0.4125 -1.255,1.23625 0,0.8375 0.4187,1.25625 1.255,1.25625 0.8362,0 1.255,-0.41875 1.255,-1.25625 0,-0.82375 -0.4188,-1.23625 -1.255,-1.23625 z m -6.4388,11.14125 c -0.345,0.39625 -1.015,0.59375 -2.0062,0.59375 -0.8338,0 -1.3875,-0.2075 -1.6575,-0.62375 -0.2688,-0.415 -0.4038,-1.2125 -0.4038,-2.39125 0,-1.1725 0.135,-1.96875 0.4038,-2.3875 0.27,-0.4175 0.8237,-0.6275 1.6575,-0.6275 0.9912,0 1.6612,0.2 2.0062,0.5975 0.345,0.4 0.5188,1.205 0.5188,2.4175 0,1.22 -0.1738,2.02625 -0.5188,2.42125 z m 2.7563,-11.59125 -2.275,0 0,4.94625 c -0.5801,-0.58875 -1.5788,-0.88375 -3,-0.88375 -1.5076,0 -2.5575,0.48 -3.15,1.44 -0.4613,0.7625 -0.6913,1.985 -0.6913,3.67 0,1.60375 0.1838,2.7475 0.5538,3.4325 0.5924,1.09125 1.7625,1.6375 3.5137,1.6375 1.2825,0 2.28,-0.31625 2.9913,-0.94625 l 0,0.79 2.0575,0 0,-14.08625 z m -17.8038,8.15875 c 0,-0.77 0.115,-1.3025 0.345,-1.59875 0.3225,-0.41375 0.9413,-0.62 1.855,-0.62 0.9738,0 1.615,0.1925 1.9238,0.58125 0.2112,0.28125 0.3162,0.82875 0.3162,1.6375 l -4.44,0 z m 6.0638,-2.4 c -0.62,-1.13125 -1.9063,-1.69625 -3.8613,-1.69625 -1.8163,0 -3.0637,0.49875 -3.7412,1.4975 -0.5275,0.765 -0.7913,2.00375 -0.7913,3.72 0,1.63875 0.27,2.82125 0.81,3.55125 0.69,0.94125 1.9488,1.41125 3.7775,1.41125 2.8875,0 4.3313,-1.035 4.3313,-3.10625 l -2.1488,0 c -0.014,0.82 -0.7137,1.2275 -2.1,1.2275 -0.94,0 -1.5775,-0.18125 -1.9137,-0.54125 -0.3088,-0.32875 -0.4625,-0.92875 -0.4625,-1.805 l 6.75,0 c 0,-2.07 -0.2163,-3.49 -0.65,-4.25875 z m -13.4163,5.8325 c -0.3437,0.39625 -1.0125,0.59375 -2.0062,0.59375 -0.835,0 -1.3863,-0.2075 -1.6563,-0.62375 -0.2687,-0.415 -0.4038,-1.2125 -0.4038,-2.39125 0,-1.1725 0.1351,-1.96875 0.4038,-2.3875 0.27,-0.4175 0.8213,-0.6275 1.6563,-0.6275 0.9937,0 1.6625,0.2 2.0062,0.5975 0.3463,0.4 0.5188,1.205 0.5188,2.4175 0,1.22 -0.1725,2.02625 -0.5188,2.42125 z m 2.7575,-11.59125 -2.275,0 0,4.94625 c -0.58,-0.58875 -1.5788,-0.88375 -3,-0.88375 -1.5087,0 -2.5575,0.48 -3.15,1.44 -0.4613,0.7625 -0.69,1.985 -0.69,3.67 0,1.60375 0.1837,2.7475 0.5512,3.4325 0.5926,1.09125 1.7638,1.6375 3.5138,1.6375 1.2838,0 2.2812,-0.31625 2.9925,-0.94625 l 0,0.79 2.0575,0 0,-14.08625 z m -11.2375,8.69625 c 0,-1.53625 -0.1413,-2.5775 -0.4238,-3.13125 -0.5125,-1.015 -1.6475,-1.52125 -3.4025,-1.52125 -1.1837,0 -2.13,0.31625 -2.8412,0.94625 l 0,-0.77875 -1.9788,0 0,9.86875 2.2738,0 0,-4.59625 c 0,-1.21125 0.076,-1.99375 0.2275,-2.34125 0.2825,-0.71875 0.9688,-1.07875 2.0587,-1.07875 0.8863,0 1.4325,0.23125 1.6363,0.69375 0.105,0.23625 0.1575,0.945 0.1575,2.1225 l 0,5.2 2.2925,0 0,-5.38375 z m -17.6238,-0.5375 c 0,-0.77 0.115,-1.3025 0.3463,-1.59875 0.3225,-0.41375 0.94,-0.62 1.855,-0.62 0.9737,0 1.615,0.1925 1.9237,0.58125 0.21,0.28125 0.3163,0.82875 0.3163,1.6375 l -4.4413,0 z m 6.0638,-2.4 c -0.6188,-1.13125 -1.905,-1.69625 -3.86,-1.69625 -1.8175,0 -3.0637,0.49875 -3.7425,1.4975 -0.52625,0.765 -0.79,2.00375 -0.79,3.72 0,1.63875 0.27,2.82125 0.81,3.55125 0.69,0.94125 1.95,1.41125 3.7775,1.41125 2.8875,0 4.33,-1.035 4.33,-3.10625 l -2.1475,0 c -0.014,0.82 -0.7138,1.2275 -2.1,1.2275 -0.94,0 -1.5788,-0.18125 -1.9137,-0.54125 -0.3088,-0.32875 -0.4626,-0.92875 -0.4626,-1.805 l 6.75,0 c 0,-2.07 -0.2162,-3.49 -0.6512,-4.25875 z m -13.06625,5.79 c -0.2825,0.44875 -0.835,0.6725 -1.6575,0.6725 -0.97875,0 -1.64125,-0.20375 -1.9875,-0.60875 -0.345,-0.405 -0.5175,-1.2225 -0.5175,-2.455 0,-1.22625 0.1725,-2.04625 0.5175,-2.46625 0.34625,-0.4175 1.00875,-0.6275 1.9875,-0.6275 0.8225,0 1.37125,0.22 1.6475,0.65875 0.27625,0.43625 0.415,1.25 0.415,2.435 0,1.1925 -0.135,1.98875 -0.405,2.39125 z m 2.02625,-6.1025 c -0.58,-0.90875 -1.685,-1.37625 -3.3175,-1.4025 -1.3025,-0.0138 -2.32625,0.30125 -3.07,0.94625 l 0,-0.77875 -2.0575,0 0,13.73125 2.275,0 0,-4.5725 c 0.5525,0.5825 1.4175,0.8725 2.595,0.8725 1.71125,0 2.89625,-0.54625 3.555,-1.64 0.46,-0.76375 0.69,-1.91125 0.69,-3.43875 0,-1.7675 -0.2225,-3.00625 -0.67,-3.7175 z m -11.67125,-0.695 c -0.61875,-0.435 -1.58375,-0.6625 -2.8925,-0.68875 -1.455,-0.0275 -2.5375,0.15375 -3.2475,0.54125 -0.8625,0.45875 -1.3,1.26 -1.31375,2.405 -0.0263,1.3325 0.425,2.20625 1.3525,2.61875 0.47375,0.21875 1.49125,0.36625 3.05,0.445 0.69125,0.0462 1.13625,0.115 1.33375,0.20625 0.3225,0.1775 0.47,0.5275 0.44375,1.04625 -0.0125,0.395 -0.16125,0.67 -0.44375,0.8275 -0.33625,0.205 -0.96125,0.2925 -1.87625,0.26625 -0.7825,-0.0275 -1.31,-0.13625 -1.57875,-0.33 -0.27,-0.19375 -0.405,-0.515 -0.405,-0.9625 l -2.1025,0 c 0,1.14625 0.37125,1.9625 1.115,2.45125 0.645,0.41625 1.6425,0.63875 2.99125,0.665 1.44125,0.0262 2.5275,-0.1675 3.2575,-0.58375 0.8625,-0.4725 1.3,-1.2825 1.3125,-2.4275 0.0263,-1.38875 -0.4475,-2.28375 -1.42125,-2.68375 -0.4275,-0.1775 -1.4775,-0.32 -3.14875,-0.425 -0.61875,-0.0388 -1.01625,-0.10875 -1.195,-0.2075 -0.295,-0.1425 -0.43125,-0.46625 -0.40375,-0.96625 0.0125,-0.375 0.15375,-0.6375 0.42375,-0.79 0.34875,-0.2025 0.9775,-0.28875 1.88625,-0.25625 0.5925,0.0275 1.01,0.0925 1.25375,0.19625 0.375,0.1925 0.5625,0.55125 0.5625,1.0775 l 2.1025,0 c 0,-1.11875 -0.3525,-1.92625 -1.05625,-2.425 z m -11.0575,6.385 c 0,0.83125 -0.4875,1.24625 -1.46125,1.24625 -0.5325,0 -0.905,-0.105 -1.115,-0.31625 -0.21125,-0.21 -0.31625,-0.5475 -0.31625,-1.015 l 0,-4.9325 4.0275,0 0,-1.89625 -4.0275,0 0,-3.62625 -2.275,0 0,3.62625 -1.57875,0 0,1.89625 1.57875,0 0,4.93625 c 0,2.125 1.19625,3.1875 3.5875,3.1875 2.455,0 3.6825,-1.035 3.6825,-3.10625 l -2.1025,0 z m -8.38875,-6.91375 -2.275,0 0,4.57625 c 0,1.21625 -0.075,1.99875 -0.2275,2.34625 -0.28375,0.71875 -0.97375,1.07625 -2.06875,1.07625 -0.89125,0 -1.43875,-0.23 -1.6425,-0.69125 -0.10625,-0.24375 -0.15875,-0.95 -0.15875,-2.12 l 0,-5.1875 -2.275,0 0,5.37 c 0,1.54 0.1425,2.58625 0.425,3.13875 0.51375,1.0075 1.64625,1.51125 3.39875,1.51125 1.185,0 2.13625,-0.31625 2.85375,-0.95125 l 0,0.78875 1.97,0 0,-9.8575 z m -11.03625,-4.2225 -2.27425,0 0,14.08 2.27425,0 0,-14.08 z m -7.97625,11.72375 c -0.31,0.14 -1.1525,0.2075 -2.52875,0.2075 l -2.40875,0 0,-3.7 2.40875,0 c 1.09375,0 1.8275,0.0325 2.2025,0.0987 0.24375,0.06 0.46,0.16625 0.65125,0.325 0.27,0.24375 0.405,0.73125 0.405,1.46125 0,0.8625 -0.24375,1.3975 -0.73,1.6075 z m -0.32625,-5.745 c -0.3225,0.10625 -1.04375,0.16 -2.1625,0.16 l -2.44875,0 0,-3.4125 2.31125,0 c 1.25,0 2.03625,0.0525 2.36,0.15625 0.59125,0.2175 0.88875,0.73125 0.88875,1.54 0,0.82125 -0.31625,1.34 -0.94875,1.55625 z m 2.08,1.1425 c 0.86,-0.3625 1.2775,-1.40625 1.25125,-3.13 -0.0263,-1.58 -0.61875,-2.59 -1.7775,-3.03125 -0.61875,-0.2425 -1.85875,-0.36375 -3.72125,-0.36375 l -4.80875,0 0,13.48375 4.9225,0 c 1.21625,0 2.00625,-0.025 2.3675,-0.0725 0.875,-0.125 1.58125,-0.435 2.12125,-0.93 0.6575,-0.61125 0.98625,-1.6125 0.98625,-3.0025 0,-1.54875 -0.4475,-2.5325 -1.34125,-2.95375" id="path3197" stroke="black" style="fill:#ed1639;fill-opacity:1;fill-rule:nonzero;"/>
			
    
		</g>
		
  
	</g>
	

</svg>