<?xml version="1.0" encoding="iso-8859-1"?><!-- Created with Inkscape (http://www.inkscape.org/) --><svg height="392.95276" id="svg3217" version="1.1" width="715.74799" xmlns="http://www.w3.org/2000/svg" xmlns:cc="http://creativecommons.org/ns#" xmlns:dc="http://purl.org/dc/elements/1.1/" xmlns:rdf="http://www.w3.org/1999/02/22-rdf-syntax-ns#" xmlns:svg="http://www.w3.org/2000/svg">
	
  
	<defs id="defs3219"/>
	
  
	<metadata id="metadata3222">
		
    
		<rdf:RDF>
			
      
			<cc:Work rdf:about="">
				
        
				<dc:format>image/svg+xml</dc:format>
				
        
				<dc:type rdf:resource="http://purl.org/dc/dcmitype/StillImage"/>
				
        
				<dc:title/>
				
      
			</cc:Work>
			
    
		</rdf:RDF>
		
  
	</metadata>
	
  
	<g id="layer1" transform="translate(-10.641081,-197.68781)">
		
    
		<g id="g3246" transform="matrix(4.3859596,0,0,4.3859596,-4105.1637,-2103.6619)">
			
      
			
			
      
			
			
      
			
			
      
			
			
      
			<path animation_id="4" d="m 1012.19,543.26691 -10.4437,0 c 0,-3.08625 0.4749,-5.2225 5.1749,-5.2225 4.9838,0 5.2688,1.89875 5.2688,5.2225 z m 5.3175,4.36625 c 0,-8.07 -0.475,-14.0025 -10.5863,-14.0025 -9.3037,0 -10.6337,5.315 -10.6337,12.24625 0,6.74125 1.47125,11.67875 10.7763,11.67875 4.3674,0 10.1587,-1.09125 10.1587,-7.31125 l -5.0325,0 c -0.048,2.61125 -2.99,2.89625 -4.9375,2.89625 -4.6038,0 -5.6,-1.5675 -5.6,-5.5075 l 15.855,0" id="path3191" stroke="black" style="fill:#ed1639;fill-opacity:1;fill-rule:nonzero;"/>
			
      
			
			
      
			
			
      
			
			
    
		</g>
		
  
	</g>
	

</svg>