<?xml version="1.0" encoding="iso-8859-1"?><!-- Created with Inkscape (http://www.inkscape.org/) --><svg height="392.95276" id="svg3217" version="1.1" width="715.74799" xmlns="http://www.w3.org/2000/svg" xmlns:cc="http://creativecommons.org/ns#" xmlns:dc="http://purl.org/dc/elements/1.1/" xmlns:rdf="http://www.w3.org/1999/02/22-rdf-syntax-ns#" xmlns:svg="http://www.w3.org/2000/svg">
	
  
	<defs id="defs3219"/>
	
  
	<metadata id="metadata3222">
		
    
		<rdf:RDF>
			
      
			<cc:Work rdf:about="">
				
        
				<dc:format>image/svg+xml</dc:format>
				
        
				<dc:type rdf:resource="http://purl.org/dc/dcmitype/StillImage"/>
				
        
				<dc:title/>
				
      
			</cc:Work>
			
    
		</rdf:RDF>
		
  
	</metadata>
	
  
	<g id="layer1" transform="translate(-10.641081,-197.68781)">
		
    
		<g id="g3246" transform="matrix(4.3859596,0,0,4.3859596,-4105.1637,-2103.6619)">
			
      
			
			
      
			
			
      
			
			
      
			<path animation_id="3" d="m 985.38875,547.01691 c 0,4.035 -0.52125,6.12375 -6.02875,6.12375 -3.655,0 -4.51,-1.0925 -4.51,-3.085 0,-2.47 1.045,-3.03875 4.32,-3.03875 l 6.21875,0 z m 5.12625,10.1575 0,-15.095 c 0,-5.98125 -3.60625,-8.44875 -9.82625,-8.44875 -5.36375,0 -10.5375,1.18625 -10.5375,7.12 l 5.22125,0 c 0,-2.46875 2.9425,-2.56375 5.03125,-2.56375 4.7,0 4.89,1.37625 4.89,4.4625 l -5.93375,0 c -4.9375,0 -9.87375,0.76 -9.87375,7.5 0,5.64875 3.5125,7.40625 9.02,7.40625 3.3225,0 5.74375,-0.9975 7.215,-2.27875 l 0,1.8975 4.79375,0" id="path3189" stroke="black" style="fill:#ed1639;fill-opacity:1;fill-rule:nonzero;"/>
			
      
			
			
      
			
			
      
			
			
      
			
			
    
		</g>
		
  
	</g>
	

</svg>