<?xml version="1.0" encoding="iso-8859-1"?><!-- Generator: Adobe Illustrator 13.0.2, SVG Export Plug-In . SVG Version: 6.00 Build 14948)  --><!DOCTYPE svg  PUBLIC '-//W3C//DTD SVG 1.0//EN'  'http://www.w3.org/TR/2001/REC-SVG-20010904/DTD/svg10.dtd'><svg enable-background="new 0 0 284 74" height="74px" version="1.0" viewBox="0 0 284 74" width="284px" x="0px" xml:space="preserve" xmlns="http://www.w3.org/2000/svg" xmlns:xlink="http://www.w3.org/1999/xlink" y="0px">
	

	<g id="BoundingBox">
		
	
		
		

	</g>
	

	<g id="Logo">
		
	
		
		
	
		<path animation_id="1" d="M70.27344,37.09277l-0.1543-0.15625V21.271H70.0415c0,0-0.08154,0.58057-0.19287,0.85986l-4.68164,14   c-0.23096,0.625-0.46094,0.96191-1.25391,0.96191h-2.43164c-0.73389,0-0.92725-0.15625-1.23584-0.89941l-4.87646-14.27002   c-0.1167-0.27197-0.19385-0.58447-0.23145-0.86035h-0.07764v15.87354l-0.1543,0.15625h-4.52637l-0.1543-0.15625V12.88818   l0.1543-0.15723h7.28418c0.46191,0,0.88818,0.2749,1.07959,0.7832l4.77881,14.3584c0.15332-0.7041,0.35986-1.18799,0.54639-1.67432   l4.12256-12.68408c0.27051-0.62598,0.84912-0.7832,1.23535-0.7832h7.21436l0.15479,0.15723v24.04834l-0.15479,0.15625H70.27344z    M105.74756,28.17676c0,6.68701,4.12012,9.6582,10.29492,9.6582c6.17432,0,10.19189-2.81543,10.19189-9.6582V12.88818   l-0.15332-0.15771h-4.86377l-0.1543,0.15771v15.44678c0,3.51758-1.19971,5.27832-4.13281,5.27832   c-2.93359,0-4.19727-1.76074-4.19727-5.27832V12.88818l-0.15381-0.15771h-6.67871l-0.15283,0.15771V28.17676z M41.25391,63.87598   c0,6.68652,4.12012,9.6582,10.29492,9.6582c6.17432,0,10.19189-2.81543,10.19189-9.6582V48.58691l-0.15332-0.15723h-4.86377   l-0.15381,0.15723V64.0332c0,3.51855-1.20068,5.27832-4.1333,5.27832c-2.93359,0-4.19775-1.75977-4.19775-5.27832V48.58691   l-0.15332-0.15723h-6.67822l-0.15332,0.15723V63.87598z M173.80469,36.93652v-12.5127l-0.1543-0.15723h-6.36719l-0.15625,0.15723   v8.75732h-0.65625c-4.24414,0-6.13672-2.38379-6.13672-7.97803v-0.34717c0-5.5918,2.625-8.52637,6.91016-8.52637   c2.08398,0,3.82031,0.27588,6.0957,1.05713l0.15625-0.15723v-3.91016l-0.15625-0.15527   c-2.12109-0.74414-4.2832-1.05566-6.55859-1.05566c-9.07031,0-13.73828,4.81104-13.73828,12.74756v0.34717   c0,8.0957,4.9375,12.20117,12.96484,12.20117c2.81836,0,5.0957-0.15625,7.64258-0.31152L173.80469,36.93652z M178.58203,37.09326   h17.44531l0.1543-0.15674v-4.18311l-0.1543-0.1582h-10.61328v-5.7085h8.99219l0.1543-0.15723v-4.06445l-0.1543-0.15771h-8.99219   v-5.396h9.72461l0.1543-0.15576v-4.06689l-0.1543-0.15771h-16.55664l-0.1543,0.15771v24.04785L178.58203,37.09326z    M21.22656,37.09277l0.1543-0.15625V12.88818l-0.1543-0.15723H14.5498L14.396,12.88818v9.61865H6.98486v-9.61865l-0.15381-0.15723   H0.15479L0,12.88818v24.04834l0.15479,0.15625h6.67627l0.15381-0.15625v-9.77686H14.396v9.77686l0.15381,0.15625H21.22656z    M34.92529,20.12158c0.11621-0.31299,0.19287-0.58594,0.23242-0.86035h0.07715l3.04736,10.20752h-6.36816L34.92529,20.12158z    M39.55713,12.73047h-7.17822l-0.15576,0.15771l-8.02686,24.04785v0.15723h5.28809l1.00244-3.13086h9.14746l0.92529,3.13086   h7.25439v-0.15723l-8.104-24.04785L39.55713,12.73047z M6.83105,72.79004l0.15332-0.15723v-9.14844h8.06689l0.1543-0.15723   v-4.06641l-0.1543-0.15625H6.98438v-6.29492h9.30225l0.15381-0.15625v-4.06738l-0.15381-0.15625H0.1543L0,48.58594v24.04688   l0.1543,0.15723H6.83105z M20.22266,72.79102h17.44141l0.15576-0.1582v-4.18457l-0.15576-0.15527H27.05225v-5.70801h8.99219   l0.15381-0.1582v-4.06543l-0.15381-0.15723h-8.99219v-5.39453h9.72461l0.15527-0.15625v-4.06738l-0.15527-0.15625h-16.5542   l-0.15625,0.15625v24.04688L20.22266,72.79102z M66.40137,72.79102h17.44385l0.1543-0.1582v-4.18457l-0.1543-0.15527h-10.6123   v-5.70801h8.99121l0.15479-0.1582v-4.06543l-0.15479-0.15723h-8.99121v-5.39453h9.72412l0.15479-0.15625v-4.06738l-0.15479-0.15625   H66.40137l-0.15381,0.15625v24.04688L66.40137,72.79102z M118.45068,72.79004l0.15527-0.15723V62.8584   c0.65576,0,0.96582,0.46875,1.27393,0.97754l5.55566,8.9541h7.25781v-0.15723l-7.21924-11.18262   c-0.38428-0.62598-0.65527-1.05566-1.07861-1.48633l8.72021-11.37793l-0.11426-0.15625h-6.05908l-8.33643,10.86816V48.58594   l-0.15527-0.15625h-6.67578l-0.1543,0.15625v24.04688l0.1543,0.15723H118.45068z M145.05859,55.81836   c0.11523-0.31152,0.19531-0.58496,0.23242-0.8584h0.07617l3.05078,10.20508h-6.36963L145.05859,55.81836z M149.69141,48.42969   h-7.18018l-0.15332,0.15625l-8.02734,24.04688v0.15723h5.28662l1.00342-3.12988h9.14697l0.92578,3.12988h7.25586v-0.15723   l-8.10352-24.04688L149.69141,48.42969z M160.14062,68.40918v3.9502l0.1543,0.15625   c2.43164,0.4707,4.43945,0.58691,6.56055,0.58691c6.36719,0,10.45898-2.22949,10.45898-7.74316   c0-7.66406-10.65234-6.99805-10.65234-10.98438c0-1.60449,1.00391-2.46582,3.47461-2.46582   c2.19922,0,4.12891,0.46875,5.67383,1.09473l0.1543-0.15625v-3.94824l-0.1543-0.15723   c-1.50586-0.54883-3.70508-1.05664-6.29102-1.05664c-6.52344,0-9.99609,2.89355-9.99609,7.74316   c0,8.32715,10.3418,6.72461,10.3418,10.79102c0,1.76074-1.15625,2.66113-3.78125,2.66113   c-2.23828,0-3.9375-0.31543-5.78906-0.62793L160.14062,68.40918z M180.36133,68.40918v3.9502l0.1543,0.15625   c2.43164,0.4707,4.43945,0.58691,6.56055,0.58691c6.36719,0,10.45898-2.22949,10.45898-7.74316   c0-7.66406-10.65234-6.99805-10.65234-10.98438c0-1.60449,1.00391-2.46582,3.47461-2.46582   c2.20117,0,4.13086,0.46875,5.67383,1.09473l0.1543-0.15625v-3.94824l-0.1543-0.15723   c-1.50586-0.54883-3.96094-1.05664-6.54883-1.05664c-6.52148,0-9.73828,2.89355-9.73828,7.74316   c0,8.32715,10.3457,6.72461,10.3457,10.79102c0,1.76074-1.16211,2.66113-3.7832,2.66113   c-2.24023,0-3.93945-0.31543-5.79102-0.62793L180.36133,68.40918z M201.31641,72.79102h17.44336l0.15625-0.1582v-4.18457   l-0.15625-0.15527h-10.61133v-5.70801h8.99023l0.15625-0.1582v-4.06543l-0.15625-0.15723h-8.99023v-5.39453h9.72461   l0.15234-0.15625v-4.06738l-0.15234-0.15625h-16.55664l-0.1543,0.15625v24.04688L201.31641,72.79102z M91.46973,26.57471   c2.62354,0,3.78076,0.8999,3.78076,3.20557v0.31201c0,2.3457-1.15723,3.20654-3.78076,3.20654H88.8833v-6.72412H91.46973z    M90.77539,16.32959c2.62305,0,3.74268,0.8999,3.74268,3.08789v0.31396c0,2.18848-1.11963,3.20605-3.74268,3.20605H88.8833   v-6.60791H90.77539z M92.04834,37.09277c6.36865,0,10.34326-1.48633,10.34326-6.68701v-0.31348   c0-2.7749-1.50537-4.72998-4.39893-5.74609c2.35352-1.1748,3.31689-3.05078,3.31689-5.24072v-0.4292   c0-4.4585-3.31689-6.09326-11.03662-6.09326c-3.35742,0-5.96826,0.07129-8.22021,0.14746l-0.15332,0.15771v24.04883   l0.15332,0.15576H92.04834z M139.26904,16.48682c2.81836,0,3.78271,1.44385,3.78271,4.30029v0.66455   c0,2.93213-1.00293,4.45703-3.78271,4.45703h-1.54199v-9.42188H139.26904z M137.57227,37.09277l0.15479-0.15625v-7.35205h1.31152   c0.65527,0,0.96484,0.27441,1.42725,1.21289l3.0498,6.29541h7.09961v-0.15625l-3.93555-7.31299   c-0.38672-0.7041-0.77148-1.32959-1.23438-1.83838c3.04883-1.17285,4.55273-3.71436,4.55273-6.60693v-0.66455   c0-6.53076-5.28711-7.93018-11.03613-7.93018c-3.28174,0-5.78857-0.00781-8.06689,0.14746l-0.15381,0.15674v24.04883   l0.15381,0.15625H137.57227z M208.41211,16.48682c2.81836,0,3.7832,1.44385,3.7832,4.30029v0.66455   c0,2.93213-1.00391,4.45703-3.7832,4.45703h-1.54297v-9.42188H208.41211z M206.71484,37.09277l0.1543-0.15625v-7.35205h1.3125   c0.6543,0,0.96484,0.27441,1.42578,1.21289l3.05078,6.29541h7.09961v-0.15625l-3.93555-7.31299   c-0.38672-0.7041-0.77148-1.32959-1.23438-1.83838c3.04883-1.17285,4.55273-3.71436,4.55273-6.60693v-0.66455   c0-6.53076-5.28711-7.93018-11.03516-7.93018c-3.2832,0-5.78906-0.00781-8.06641,0.14746l-0.15625,0.15674v24.04883   l0.15625,0.15625H206.71484z M96.55566,52.18359c2.81885,0,3.78271,1.44434,3.78271,4.30176v0.66406   c0,2.93164-1.00293,4.45703-3.78271,4.45703h-1.54199v-9.42285H96.55566z M94.85889,72.79102l0.15479-0.15723v-7.35156h1.31201   c0.65479,0,0.96436,0.27441,1.42676,1.21191l3.04932,6.29688h7.10107v-0.15723l-3.93604-7.3125   c-0.38721-0.7041-0.77148-1.33008-1.23486-1.83887c3.04883-1.17285,4.55273-3.71387,4.55273-6.60645v-0.66504   c0-6.53027-5.28662-7.92969-11.03613-7.92969c-3.28174,0-5.78857-0.00781-8.06641,0.14746l-0.15479,0.15723v24.04785   l0.15479,0.15723H94.85889z" fill="#CD282D" stroke="black"/>
		

	</g>
	

</svg>