<?xml version="1.0" encoding="iso-8859-1"?><!-- Creator: CorelDRAW --><svg height="195" id="svg3024" inkscape:version="0.48.0 r9654" sodipodi:docname="HannoverRe.svg" style="fill-rule:evenodd" version="1.1" viewBox="0 0 11111.11 2166.6668" width="1000" xml:space="preserve" xmlns="http://www.w3.org/2000/svg" xmlns:cc="http://creativecommons.org/ns#" xmlns:dc="http://purl.org/dc/elements/1.1/" xmlns:inkscape="http://www.inkscape.org/namespaces/inkscape" xmlns:rdf="http://www.w3.org/1999/02/22-rdf-syntax-ns#" xmlns:sodipodi="http://sodipodi.sourceforge.net/DTD/sodipodi-0.dtd" xmlns:svg="http://www.w3.org/2000/svg">
	<metadata id="metadata3061">
		<rdf:RDF>
			<cc:Work rdf:about="">
				<dc:format>image/svg+xml</dc:format>
				<dc:type rdf:resource="http://purl.org/dc/dcmitype/StillImage"/>
			</cc:Work>
		</rdf:RDF>
	</metadata>
	<sodipodi:namedview bordercolor="#666666" borderopacity="1" fit-margin-bottom="0" fit-margin-left="0" fit-margin-right="0" fit-margin-top="0" gridtolerance="10" guidetolerance="10" id="namedview3059" inkscape:current-layer="svg3024" inkscape:cx="319.70888" inkscape:cy="-314.79756" inkscape:pageopacity="0" inkscape:pageshadow="2" inkscape:window-height="998" inkscape:window-maximized="1" inkscape:window-width="1600" inkscape:window-x="-4" inkscape:window-y="-4" inkscape:zoom="0.24991425" objecttolerance="10" pagecolor="#ffffff" showgrid="false"/>
	
 
	<defs id="defs3026">
		
  
		<style id="style3028" type="text/css">
   
    .fil0 {fill:#1F1A17}
    .fil1 {fill:#174489}
   
  </style>
		
 
	</defs>
	
 
	<g id="Ebene_x0020_1" transform="matrix(1.6617947,0,0,1.6617947,-966.39889,-1736.3893)">
		
  
		<g id="g3031">
			
   
			
			
   
			
			
   
			
			
   
			
			
   
			
			
   
			
			
   
			
			
   
			
			
   
			
			
   
			<path animation_id="9" class="fil1" d="m 6807.69,2057.35 c -40.7441,57.0472 -89.6417,97.7953 -156.874,97.7953 -77.4213,0 -128.354,-61.122 -132.429,-156.878 l 466.555,0 10.185,-79.4567 c 28.5236,-260.783 -71.3071,-427.846 -258.744,-427.846 -201.697,0 -383.02,167.063 -411.543,427.846 -28.5236,260.78 112.055,429.882 313.752,429.882 105.941,0 217.996,-59.0827 295.417,-162.988 l -126.319,-128.354 z m -270.969,-230.22 c 14.2638,-79.4567 71.3071,-154.839 160.953,-154.839 71.3071,0 116.13,71.3071 105.941,154.839 l -266.894,0 z" id="path3051" inkscape:connector-curvature="0" stroke="black" style="fill:#174489"/>
			
   
			<g id="g3053">
				
    
				
				
   
			</g>
			
   
			
			
  
		</g>
		
 
	</g>
	

</svg>