<?xml version="1.0" encoding="iso-8859-1"?><!-- Creator: CorelDRAW --><svg height="195" id="svg3024" inkscape:version="0.48.0 r9654" sodipodi:docname="HannoverRe.svg" style="fill-rule:evenodd" version="1.1" viewBox="0 0 11111.11 2166.6668" width="1000" xml:space="preserve" xmlns="http://www.w3.org/2000/svg" xmlns:cc="http://creativecommons.org/ns#" xmlns:dc="http://purl.org/dc/elements/1.1/" xmlns:inkscape="http://www.inkscape.org/namespaces/inkscape" xmlns:rdf="http://www.w3.org/1999/02/22-rdf-syntax-ns#" xmlns:sodipodi="http://sodipodi.sourceforge.net/DTD/sodipodi-0.dtd" xmlns:svg="http://www.w3.org/2000/svg">
	<metadata id="metadata3061">
		<rdf:RDF>
			<cc:Work rdf:about="">
				<dc:format>image/svg+xml</dc:format>
				<dc:type rdf:resource="http://purl.org/dc/dcmitype/StillImage"/>
			</cc:Work>
		</rdf:RDF>
	</metadata>
	<sodipodi:namedview bordercolor="#666666" borderopacity="1" fit-margin-bottom="0" fit-margin-left="0" fit-margin-right="0" fit-margin-top="0" gridtolerance="10" guidetolerance="10" id="namedview3059" inkscape:current-layer="svg3024" inkscape:cx="319.70888" inkscape:cy="-314.79756" inkscape:pageopacity="0" inkscape:pageshadow="2" inkscape:window-height="998" inkscape:window-maximized="1" inkscape:window-width="1600" inkscape:window-x="-4" inkscape:window-y="-4" inkscape:zoom="0.24991425" objecttolerance="10" pagecolor="#ffffff" showgrid="false"/>
	
 
	<defs id="defs3026">
		
  
		<style id="style3028" type="text/css">
   
    .fil0 {fill:#1F1A17}
    .fil1 {fill:#174489}
   
  </style>
		
 
	</defs>
	
 
	<g id="Ebene_x0020_1" transform="matrix(1.6617947,0,0,1.6617947,-966.39889,-1736.3893)">
		
  
		<g id="g3031">
			
   
			
			
   
			<path animation_id="1" class="fil0" d="m 1801.91,1810.83 c 22.4094,-195.587 -65.1969,-279.118 -215.961,-279.118 -79.4567,0 -181.323,38.7087 -248.555,107.98 l 38.7087,69.2677 c 63.1575,-59.0827 128.354,-87.6063 199.661,-87.6063 99.8307,0 169.098,55.0118 154.839,189.476 l -6.1102,46.8583 -93.7205,0 c -122.24,0 -346.35,22.4134 -372.835,258.744 -20.374,165.028 85.5669,232.26 191.512,232.26 105.941,0 179.287,-48.8976 234.295,-146.689 l 4.0748,0 c -6.1142,42.7835 -8.1496,87.6063 -6.1142,126.315 l 75.3819,0 c 0,-89.6417 6.1142,-175.213 24.4488,-325.976 l 20.374,-191.512 z m -85.5669,126.315 -6.1142,52.9724 c -14.2598,128.354 -75.3819,266.894 -246.52,266.894 -67.2323,0 -136.504,-48.8976 -126.315,-144.654 16.2992,-132.429 154.839,-175.213 289.303,-175.213 l 89.6457,0 z" id="path3035" inkscape:connector-curvature="0" stroke="black" style="fill:#1f1a17"/>
			
   
			
			
   
			
			
   
			
			
   
			
			
   
			
			
   
			
			
   
			
			
   
			
			
   
			<g id="g3053">
				
    
				
				
   
			</g>
			
   
			
			
  
		</g>
		
 
	</g>
	

</svg>