<?xml version="1.0" encoding="iso-8859-1"?><!-- Creator: CorelDRAW --><svg height="195" id="svg3024" inkscape:version="0.48.0 r9654" sodipodi:docname="HannoverRe.svg" style="fill-rule:evenodd" version="1.1" viewBox="0 0 11111.11 2166.6668" width="1000" xml:space="preserve" xmlns="http://www.w3.org/2000/svg" xmlns:cc="http://creativecommons.org/ns#" xmlns:dc="http://purl.org/dc/elements/1.1/" xmlns:inkscape="http://www.inkscape.org/namespaces/inkscape" xmlns:rdf="http://www.w3.org/1999/02/22-rdf-syntax-ns#" xmlns:sodipodi="http://sodipodi.sourceforge.net/DTD/sodipodi-0.dtd" xmlns:svg="http://www.w3.org/2000/svg">
	<metadata id="metadata3061">
		<rdf:RDF>
			<cc:Work rdf:about="">
				<dc:format>image/svg+xml</dc:format>
				<dc:type rdf:resource="http://purl.org/dc/dcmitype/StillImage"/>
			</cc:Work>
		</rdf:RDF>
	</metadata>
	<sodipodi:namedview bordercolor="#666666" borderopacity="1" fit-margin-bottom="0" fit-margin-left="0" fit-margin-right="0" fit-margin-top="0" gridtolerance="10" guidetolerance="10" id="namedview3059" inkscape:current-layer="svg3024" inkscape:cx="319.70888" inkscape:cy="-314.79756" inkscape:pageopacity="0" inkscape:pageshadow="2" inkscape:window-height="998" inkscape:window-maximized="1" inkscape:window-width="1600" inkscape:window-x="-4" inkscape:window-y="-4" inkscape:zoom="0.24991425" objecttolerance="10" pagecolor="#ffffff" showgrid="false"/>
	
 
	<defs id="defs3026">
		
  
		<style id="style3028" type="text/css">
   
    .fil0 {fill:#1F1A17}
    .fil1 {fill:#174489}
   
  </style>
		
 
	</defs>
	
 
	<g id="Ebene_x0020_1" transform="matrix(1.6617947,0,0,1.6617947,-966.39889,-1736.3893)">
		
  
		<g id="g3031">
			
   
			
			
   
			
			
   
			
			
   
			
			
   
			
			
   
			
			
   
			
			
   
			
			
   
			
			
   
			
			
   
			<g id="g3053">
				
    
				<path animation_id="10" class="fil0" d="m 6997.55,1380.95 0,-0.028 11.4567,0 0,0.028 -11.4567,0 z m 0,-0.028 c 0.01,-37.1929 14.9055,-71.2244 39.1024,-95.9449 l 8.1417,8.0552 c -22.1457,22.626 -35.7835,53.7953 -35.7874,87.8898 l -11.4567,0 z m 39.1024,-95.9449 c 24.185,-24.7087 57.689,-40.1339 94.9252,-40.1496 l 0,11.4567 c -34.0157,0.012 -64.6496,14.1299 -86.7835,36.748 l -8.1417,-8.0551 z m 94.9252,-40.1496 0.055,0 0,11.4567 -0.055,0 0,-11.4567 z m 0.055,0 0.032,0 0,11.4567 -0.032,0 0,-11.4567 z m 0.032,0 c 38.2638,0.01 72.2913,15.437 96.748,40.1654 l -8.1417,8.0552 c -22.3858,-22.6339 -53.5512,-36.7598 -88.6063,-36.7638 l 0,-11.4567 z m 96.748,40.1654 c 24.4409,24.7126 39.3228,58.7165 39.3386,95.8976 l -11.4567,0 c -0.012,-34.063 -13.6417,-65.2126 -36.0236,-87.8425 l 8.1417,-8.0551 z m 39.3386,95.8976 0,0.059 -11.4567,0 0,-0.059 11.4567,0 z m 0,0.059 0,0.028 -11.4567,0 0,-0.028 11.4567,0 z m 0,0.028 c -0.01,37.1969 -14.9016,71.2244 -39.3583,95.9449 l -8.1417,-8.0552 c 22.3976,-22.6378 36.0394,-53.811 36.0433,-87.8898 l 11.4567,0 z m -39.3583,95.9449 c -24.4488,24.7087 -58.4606,40.1299 -96.7008,40.1457 l 0,-11.4567 c 35.0315,-0.012 66.1811,-14.1299 88.5591,-36.7441 l 8.1417,8.0551 z m -96.7008,40.1457 -0.059,0 0,-11.4567 0.059,0 0,11.4567 z m -0.059,0 -0.028,0 0,-11.4567 0.028,0 0,11.4567 z m -0.028,0 c -37.2835,-0.01 -70.8268,-15.437 -95.0157,-40.1654 l 8.2362,-8.0552 c 22.1417,22.6339 52.7795,36.7598 86.7795,36.7638 l 0,11.4567 z m -86.8268,-48.2205 0.047,0 -4.1181,4.0275 4.0709,-4.0275 z m -8.1417,8.0551 c -24.1811,-24.7165 -39.0709,-58.7244 -39.0866,-95.8937 l 11.4567,0 c 0.012,34.0709 13.6417,65.2205 35.7717,87.8386 l -8.1418,8.0551 z m -39.0866,-95.8937 0,-0.059 11.4567,0 0,0.059 -11.4567,0 z" id="path3055" inkscape:connector-curvature="0" stroke="black" style="fill:#1f1a17"/>
				
   
			</g>
			
   
			
			
  
		</g>
		
 
	</g>
	

</svg>