<?xml version="1.0" encoding="iso-8859-1"?><svg enable-background="new 0 0 841.889 595.275" viewBox="0 0 634.36501 83.460995" width="634.36" xmlns="http://www.w3.org/2000/svg">
	
 
	
	
 
	<g fill="#d51317">
		
  
		
		
  
		
		
  
		
		
  
		<path animation_id="4" d="m238.81 45.686c-.345-1.781-1.478-2.852-2.964-3.491-1.478-.642-3.299-.928-5.31-.928-4.522 0-6.525 1.07-6.525 2.922 0 7.699 36.05 2.925 36.05 21.595 0 11.907-12.1 17.677-29.335 17.677-16.556 0-27.35-7.913-27.784-17.18h19.675c.435 1.855 1.657 3.206 3.398 4.063 1.65.854 3.826 1.279 5.827 1.279 5.147 0 8.538-1.354 8.538-3.775 0-7.769-36.05-2.422-36.05-22.03 0-10.899 11.499-16.388 27.17-16.388 17.417 0 25.338 7.269 26.824 16.249h-19.511" stroke="black"/>
		
  
		
		
  
		
		
  
		
		
  
		
		
  
		
		
  
		
		
 
	</g>
	

</svg>