<?xml version="1.0" encoding="iso-8859-1"?><svg viewBox="0 0 344 81" xmlns="http://www.w3.org/2000/svg">
	
  
	<path animation_id="0" d="M57.3 15.4c11.1 0 19.9 12.2 19.9 23.1 0 3.5-.9 7.2-2.6 10.6L63.9 38.5H53.4v10.7L64.2 60c-2.1 1-4.5 1.6-6.9 1.6H36.9C25.8 61.7 17 49.4 17 38.5c0-10.9 8.7-23.1 19.9-23.1h20.4zM95.9 70l-8.6-8.5c4.3-6.2 7-14 7-23C94.3 15.2 76.6 0 58.2 0H36.1C17.7 0 0 15.2 0 38.5S17.7 77 36.1 77h22.2c6.3 0 12.5-1.8 18-5.1l9.1 9H96V70z" fill="#009ee3" stroke="black"/>
	
  
	
	

</svg>