<?xml version="1.0" encoding="iso-8859-1"?><svg viewBox="0 0 344 81" xmlns="http://www.w3.org/2000/svg">
	
  
	
	
  
	<path animation_id="1" d="M110.3 37.4c0 22.6 17.2 37.4 35 37.4h12.3v-15h-11.5c-10.8 0-19.3-11.9-19.3-22.4 0-10.6 8.5-22.4 19.3-22.4h11.5V0h-12.3c-17.8 0-35 14.7-35 37.4M161.1 37.4c0 18.4 11 37.4 36.5 37.4h8.2v-15h-9.5c-12 0-17.7-8.3-19-15.5h28.5V30.4h-28.5c1.3-7.2 7-15.5 19-15.5h9.5V0h-8.2c-25.5 0-36.5 19-36.5 37.4M230.5 50.2V0h-15.7v52.3c0 16.4 8.1 22.4 19.9 22.4h15.6v-15h-11.8c-5.2.1-8-2.7-8-9.5M272.2 50.2V0h-15.7v52.3c0 16.4 8.1 22.4 19.9 22.4H292v-15h-11.8c-5.2.1-8-2.7-8-9.5M312.8 20.6c0-3.1 1.7-5.7 5.5-5.7h21.2V0h-24.8c-8.4 0-18.4 7-18.4 20.9 0 18.8 31.2 25.6 31.2 33.5 0 3.2-2.1 5.3-4.9 5.3h-22.7v15H323c16.3 0 21-11.5 21-21.9 0-15.6-31.2-24.7-31.2-32.2" fill="#000" stroke="black"/>
	

</svg>