<?xml version="1.0" encoding="iso-8859-1"?><!-- Created with Inkscape (http://www.inkscape.org/) --><svg height="290.90552" id="svg3872" version="1.1" width="892.91339" xmlns="http://www.w3.org/2000/svg" xmlns:cc="http://creativecommons.org/ns#" xmlns:dc="http://purl.org/dc/elements/1.1/" xmlns:rdf="http://www.w3.org/1999/02/22-rdf-syntax-ns#" xmlns:svg="http://www.w3.org/2000/svg">
	
  
	<defs id="defs3874"/>
	
  
	<metadata id="metadata3877">
		
    
		<rdf:RDF>
			
      
			<cc:Work rdf:about="">
				
        
				<dc:format>image/svg+xml</dc:format>
				
        
				<dc:type rdf:resource="http://purl.org/dc/dcmitype/StillImage"/>
				
        
				<dc:title/>
				
      
			</cc:Work>
			
    
		</rdf:RDF>
		
  
	</metadata>
	
  
	<g id="layer1" transform="translate(51.476153,-261.47641)">
		
    
		<g id="g3927" transform="matrix(6.2038924,0,0,6.2038924,-1714.3429,-1335.9527)">
			
      
			<g id="g3411" transform="matrix(1.25,0,0,-1.25,402.28407,303.6403)">
				
        
				
				
      
			</g>
			
      
			<g id="g3415" transform="matrix(1.25,0,0,-1.25,322.48656,303.6398)">
				
        
				
				
      
			</g>
			
      
			<g id="g3419" transform="matrix(1.25,0,0,-1.25,336.06206,303.6398)">
				
        
				
				
      
			</g>
			
      
			<g id="g3423" transform="matrix(1.25,0,0,-1.25,343.77718,303.6398)">
				
        
				
				
      
			</g>
			
      
			<g id="g3427" transform="matrix(1.25,0,0,-1.25,355.33043,303.6398)">
				
        
				<path animation_id="4" d="m 0,0 2.111,0 0,3.133 0.443,0 c 0.783,0 1.055,-0.341 1.487,-1.703 L 4.495,0 6.696,0 5.925,2.157 C 5.527,3.122 5.482,3.723 4.801,3.905 l 0,0.022 c 1.022,0.239 1.521,0.943 1.521,1.998 0,1.362 -1.146,1.998 -2.554,1.998 L 0,7.923 0,0 z m 2.111,6.425 0.556,0 c 0.806,0 1.544,-0.137 1.544,-0.874 0,-0.897 -0.863,-0.92 -1.544,-0.92 l -0.556,0 0,1.794 z" id="path3429" stroke="black" style="fill:#db0031;fill-opacity:1;fill-rule:evenodd;"/>
				
      
			</g>
			
      
			<g id="g3431" transform="matrix(1.25,0,0,-1.25,364.75781,303.6398)">
				
        
				
				
      
			</g>
			
      
			<g id="g3435" transform="matrix(1.25,0,0,-1.25,385.5888,293.73692)">
				
        
				
				
      
			</g>
			
      
			<g id="g3439" transform="matrix(1.25,0,0,-1.25,388.3243,303.6398)">
				
        
				
				
      
			</g>
			
      
			
			
      
			<g id="g3445" transform="matrix(1.25,0,0,-1.25,390.8203,276.73342)">
				
        
				
				
      
			</g>
			
      
			<g id="g3449" transform="matrix(1.25,0,0,-1.25,390.8203,276.73342)">
				
        
				
				
      
			</g>
			
    
		</g>
		
  
	</g>
	

</svg>