<?xml version="1.0" encoding="iso-8859-1"?><!-- Created with Inkscape (http://www.inkscape.org/) --><svg height="290.90552" id="svg3872" version="1.1" width="892.91339" xmlns="http://www.w3.org/2000/svg" xmlns:cc="http://creativecommons.org/ns#" xmlns:dc="http://purl.org/dc/elements/1.1/" xmlns:rdf="http://www.w3.org/1999/02/22-rdf-syntax-ns#" xmlns:svg="http://www.w3.org/2000/svg">
	
  
	<defs id="defs3874"/>
	
  
	<metadata id="metadata3877">
		
    
		<rdf:RDF>
			
      
			<cc:Work rdf:about="">
				
        
				<dc:format>image/svg+xml</dc:format>
				
        
				<dc:type rdf:resource="http://purl.org/dc/dcmitype/StillImage"/>
				
        
				<dc:title/>
				
      
			</cc:Work>
			
    
		</rdf:RDF>
		
  
	</metadata>
	
  
	<g id="layer1" transform="translate(51.476153,-261.47641)">
		
    
		<g id="g3927" transform="matrix(6.2038924,0,0,6.2038924,-1714.3429,-1335.9527)">
			
      
			<g id="g3411" transform="matrix(1.25,0,0,-1.25,402.28407,303.6403)">
				
        
				<path animation_id="0" d="m 0,0 2.111,0 0,3.598 0.023,0 L 4.597,0 7.287,0 4.132,4.234 7.06,7.923 l -2.543,0 -2.383,-3.235 -0.023,0 0,3.235 L 0,7.923 0,0 z" id="path3413" stroke="black" style="fill:#db0031;fill-opacity:1;fill-rule:nonzero;"/>
				
      
			</g>
			
      
			<g id="g3415" transform="matrix(1.25,0,0,-1.25,322.48656,303.6398)">
				
        
				
				
      
			</g>
			
      
			<g id="g3419" transform="matrix(1.25,0,0,-1.25,336.06206,303.6398)">
				
        
				
				
      
			</g>
			
      
			<g id="g3423" transform="matrix(1.25,0,0,-1.25,343.77718,303.6398)">
				
        
				
				
      
			</g>
			
      
			<g id="g3427" transform="matrix(1.25,0,0,-1.25,355.33043,303.6398)">
				
        
				
				
      
			</g>
			
      
			<g id="g3431" transform="matrix(1.25,0,0,-1.25,364.75781,303.6398)">
				
        
				
				
      
			</g>
			
      
			<g id="g3435" transform="matrix(1.25,0,0,-1.25,385.5888,293.73692)">
				
        
				
				
      
			</g>
			
      
			<g id="g3439" transform="matrix(1.25,0,0,-1.25,388.3243,303.6398)">
				
        
				
				
      
			</g>
			
      
			
			
      
			<g id="g3445" transform="matrix(1.25,0,0,-1.25,390.8203,276.73342)">
				
        
				
				
      
			</g>
			
      
			<g id="g3449" transform="matrix(1.25,0,0,-1.25,390.8203,276.73342)">
				
        
				
				
      
			</g>
			
    
		</g>
		
  
	</g>
	

</svg>