<?xml version="1.0" encoding="iso-8859-1"?><!-- Generator: Adobe Illustrator 14.0.0, SVG Export Plug-In . SVG Version: 6.00 Build 43363)  --><!DOCTYPE svg  PUBLIC '-//W3C//DTD SVG 1.1//EN'  'http://www.w3.org/Graphics/SVG/1.1/DTD/svg11.dtd'><svg enable-background="new 0 0 340 69" id="Layer_1" version="1.1" viewBox="0 0 340 69" x="0px" xml:space="preserve" xmlns="http://www.w3.org/2000/svg" xmlns:xlink="http://www.w3.org/1999/xlink" y="0px">
	

	<g>
		
	
		
		
	
		
		
	
		
		
	
		
		
	
		
		
	
		
		
	
		
		
	
		
		
	
		
		
	
		
		
	
		
		
	
		
		
	
		
		
	
		
		
	
		
		
	
		
		
	
		
		
	
		
		
	
		
		
	
		
		
	
		
		
	
		
		
	
		
		
	
		
		
	
		
		
	
		
		
	
		
		
	
		
		
	
		
		
	
		
		
	
		
		
	
		
		
	
		<path animation_id="30" d="M280.468,55.094c0.467-0.143,3.199-0.976,3.199-0.976l0.424,0.129c1.129,1.354,2.389,2.613,3.746,3.742   l0.125,0.44c0,0-0.895,2.642-1.057,3.117c1.043,0.786,2.139,1.521,3.271,2.177c1.145,0.664,2.336,1.256,3.549,1.773   c0.33-0.365,2.213-2.432,2.213-2.432l0.434-0.107c1.65,0.609,3.369,1.066,5.107,1.361l0.324,0.319c0,0,0.541,2.737,0.639,3.229   c1.289,0.156,2.604,0.243,3.916,0.243c1.324,0,2.652-0.089,3.955-0.247c0.109-0.479,0.74-3.256,0.74-3.256l0.322-0.309   c1.729-0.303,3.445-0.771,5.1-1.387l0.441,0.111c0,0,1.828,2.098,2.158,2.479c1.195-0.514,2.377-1.1,3.512-1.76   c1.148-0.663,2.252-1.405,3.299-2.198c-0.154-0.472-0.992-3.058-0.992-3.058l0.123-0.434c1.348-1.132,2.602-2.396,3.725-3.762   l0.439-0.125c0,0,2.629,0.898,3.102,1.061c0.781-1.048,1.467-2.07,2.119-3.209h0.92c-0.717,1.252-1.699,2.789-2.566,3.931   l-0.447,0.137c0,0-2.711-0.925-3.137-1.071c-1.049,1.248-2.201,2.413-3.438,3.469c0.139,0.422,1.006,3.093,1.006,3.093   l-0.137,0.444c-1.141,0.877-2.355,1.691-3.615,2.422c-1.246,0.723-2.547,1.37-3.863,1.921l-0.457-0.105   c0,0-1.885-2.163-2.182-2.503c-1.531,0.555-3.111,0.984-4.707,1.278c-0.098,0.43-0.746,3.293-0.746,3.293l-0.34,0.31   c-1.426,0.188-2.883,0.281-4.334,0.281c-1.443,0-2.891-0.094-4.305-0.277l-0.34-0.321c0,0-0.557-2.819-0.645-3.264   c-1.602-0.29-3.182-0.71-4.711-1.257c-0.299,0.326-2.238,2.458-2.238,2.458l-0.451,0.101c-1.33-0.556-2.639-1.207-3.893-1.935   c-1.244-0.72-2.451-1.528-3.59-2.401l-0.135-0.45c0,0,0.922-2.722,1.066-3.15c-1.246-1.056-2.406-2.214-3.459-3.457   c-0.416,0.127-3.234,0.985-3.234,0.985l-0.436-0.141c-0.875-1.154-1.781-2.531-2.502-3.789h0.949   C279.095,53.167,279.675,54.033,280.468,55.094" fill="#A0ACD4" stroke="black"/>
		
	
		
		
	
		
		

	</g>
	

</svg>