<?xml version="1.0" encoding="iso-8859-1"?><!-- Generator: Adobe Illustrator 14.0.0, SVG Export Plug-In . SVG Version: 6.00 Build 43363)  --><!DOCTYPE svg  PUBLIC '-//W3C//DTD SVG 1.1//EN'  'http://www.w3.org/Graphics/SVG/1.1/DTD/svg11.dtd'><svg enable-background="new 0 0 340 69" id="Layer_1" version="1.1" viewBox="0 0 340 69" x="0px" xml:space="preserve" xmlns="http://www.w3.org/2000/svg" xmlns:xlink="http://www.w3.org/1999/xlink" y="0px">
	

	<g>
		
	
		
		
	
		
		
	
		
		
	
		<path animation_id="3" d="M106.136,38.625c-0.021-2.156-1.02-3.358-1.5-3.938c0,0-0.213-0.283-0.215-0.286   c0.014,0.003,0.194-0.213,0.194-0.213c0.486-0.519,1.497-1.597,1.521-3.995c0.016-1.609-0.689-2.66-1.286-3.262   c-0.749-0.755-1.598-1.081-1.862-1.08L92.184,25.85c-0.33,0-0.598,0.27-0.598,0.597v15.924c0,0.329,0.268,0.6,0.598,0.6   l10.804-0.016c0.605-0.002,1.311-0.348,1.883-0.928c0.817-0.828,1.267-2.012,1.267-3.346   C106.137,38.664,106.137,38.644,106.136,38.625 M99.854,39.843c-0.74,0.645-1.92,0.594-2.256,0.562V36.16   c0.347-0.027,1.521-0.065,2.254,0.576c0.413,0.361,0.622,0.884,0.622,1.557C100.475,38.964,100.266,39.49,99.854,39.843z    M99.854,32.263c-0.74,0.645-1.92,0.59-2.256,0.562v-4.244c0.346-0.027,1.52-0.067,2.254,0.574   c0.413,0.361,0.622,0.886,0.622,1.558C100.475,31.385,100.266,31.907,99.854,32.263z" fill="#004B93" stroke="black"/>
		
	
		
		
	
		
		
	
		
		
	
		
		
	
		
		
	
		
		
	
		
		
	
		
		
	
		
		
	
		
		
	
		
		
	
		
		
	
		
		
	
		
		
	
		
		
	
		
		
	
		
		
	
		
		
	
		
		
	
		
		
	
		
		
	
		
		
	
		
		
	
		
		
	
		
		
	
		
		
	
		
		
	
		
		
	
		
		
	
		
		
	
		
		

	</g>
	

</svg>