<?xml version="1.0" encoding="iso-8859-1"?><!-- Generator: Adobe Illustrator 14.0.0, SVG Export Plug-In . SVG Version: 6.00 Build 43363)  --><!DOCTYPE svg  PUBLIC '-//W3C//DTD SVG 1.1//EN'  'http://www.w3.org/Graphics/SVG/1.1/DTD/svg11.dtd'><svg enable-background="new 0 0 340 69" id="Layer_1" version="1.1" viewBox="0 0 340 69" x="0px" xml:space="preserve" xmlns="http://www.w3.org/2000/svg" xmlns:xlink="http://www.w3.org/1999/xlink" y="0px">
	

	<g>
		
	
		
		
	
		
		
	
		
		
	
		
		
	
		
		
	
		
		
	
		
		
	
		
		
	
		
		
	
		
		
	
		
		
	
		
		
	
		<path animation_id="12" d="M24.417,40.892c-0.228,0-0.414-0.185-0.414-0.414l0.003-0.215l-0.003-4.066   c0-0.229,0.186-0.412,0.413-0.412l2.879-0.01c0.314,0,0.578-0.271,0.578-0.596v-1.331c0-0.302-0.281-0.586-0.578-0.586   l-2.925-0.007c-0.147-0.004-0.365-0.16-0.364-0.4v-3.857c0-0.229,0.185-0.414,0.414-0.414l0.018,0.002l6.144-0.002   c0.006,0,0.01,0.002,0.014,0.002c0.329,0,0.593-0.253,0.626-0.576l0.013-0.012l-0.007-1.415c0-0.327-0.27-0.596-0.6-0.596H18.594   c-0.33,0-0.598,0.269-0.598,0.596v15.925c0,0.33,0.268,0.6,0.598,0.6h12.033c0.33,0,0.6-0.27,0.6-0.6l0.004-1.074   c0-0.283-0.284-0.541-0.595-0.541H24.417" fill="#004B93" stroke="black"/>
		
	
		
		
	
		
		
	
		
		
	
		
		
	
		
		
	
		
		
	
		
		
	
		
		
	
		
		
	
		
		
	
		
		
	
		
		
	
		
		
	
		
		
	
		
		
	
		
		
	
		
		
	
		
		
	
		
		
	
		
		
	
		
		
	
		
		

	</g>
	

</svg>