<?xml version="1.0" encoding="iso-8859-1"?><!-- Generator: Adobe Illustrator 14.0.0, SVG Export Plug-In . SVG Version: 6.00 Build 43363)  --><!DOCTYPE svg  PUBLIC '-//W3C//DTD SVG 1.1//EN'  'http://www.w3.org/Graphics/SVG/1.1/DTD/svg11.dtd'><svg enable-background="new 0 0 340 69" id="Layer_1" version="1.1" viewBox="0 0 340 69" x="0px" xml:space="preserve" xmlns="http://www.w3.org/2000/svg" xmlns:xlink="http://www.w3.org/1999/xlink" y="0px">
	

	<g>
		
	
		
		
	
		
		
	
		
		
	
		
		
	
		
		
	
		
		
	
		
		
	
		
		
	
		
		
	
		
		
	
		
		
	
		
		
	
		
		
	
		
		
	
		
		
	
		
		
	
		
		
	
		
		
	
		
		
	
		
		
	
		<path animation_id="20" d="M240.456,60.756l0.082,1.152l0.521,0.069l0.082,0.617h-2.594l0.084-0.617l0.52-0.069l0.082-1.152v-5.487   l-0.082-1.141l-0.52-0.082l-0.084-0.604l1.908-0.082v0.686l-0.082,0.659h0.082c0.562-0.905,1.426-1.413,2.359-1.413   c1.51,0,2.482,1.289,2.482,3.307c0,2.236-1.111,3.705-2.826,3.705c-0.795,0-1.453-0.302-2.016-0.92h-0.082l0.082,0.769V60.756    M240.456,58.699c0.59,0.521,1.221,0.768,1.879,0.768c1.043,0,1.674-0.987,1.674-2.62c0-1.701-0.562-2.634-1.592-2.634   c-0.754,0-1.357,0.343-1.961,1.097V58.699z" fill="#004B93" stroke="black"/>
		
	
		
		
	
		
		
	
		
		
	
		
		
	
		
		
	
		
		
	
		
		
	
		
		
	
		
		
	
		
		
	
		
		
	
		
		
	
		
		
	
		
		

	</g>
	

</svg>