<?xml version="1.0" encoding="iso-8859-1"?><!-- Generator: Adobe Illustrator 14.0.0, SVG Export Plug-In . SVG Version: 6.00 Build 43363)  --><!DOCTYPE svg  PUBLIC '-//W3C//DTD SVG 1.1//EN'  'http://www.w3.org/Graphics/SVG/1.1/DTD/svg11.dtd'><svg enable-background="new 0 0 340 69" id="Layer_1" version="1.1" viewBox="0 0 340 69" x="0px" xml:space="preserve" xmlns="http://www.w3.org/2000/svg" xmlns:xlink="http://www.w3.org/1999/xlink" y="0px">
	

	<g>
		
	
		
		
	
		
		
	
		
		
	
		
		
	
		
		
	
		<path animation_id="5" d="M217.927,25.831c-0.168,0.01-3.926,0.314-3.926,8.664c0,8.358,3.764,8.454,3.926,8.454h10.027   c0.33,0,0.598-0.268,0.598-0.597l0.008-8.451c-0.006-0.334-0.279-0.604-0.615-0.604l-4.676,0.004c-0.316,0-0.604,0.293-0.604,0.615   l-0.002,5.865c-0.008,0.533-0.631,0.929-1.189,0.929c-0.57,0-1.211-0.382-1.217-0.929l0.006-1.893l-0.006-6.299   c0.244-2.316,2.102-3.166,2.479-3.173l5.227-0.107c0.365-0.007,0.584-0.201,0.592-0.519c0-0.001-0.002-1.364-0.002-1.364   c0-0.327-0.268-0.596-0.598-0.596H217.927" fill="#004B93" stroke="black"/>
		
	
		
		
	
		
		
	
		
		
	
		
		
	
		
		
	
		
		
	
		
		
	
		
		
	
		
		
	
		
		
	
		
		
	
		
		
	
		
		
	
		
		
	
		
		
	
		
		
	
		
		
	
		
		
	
		
		
	
		
		
	
		
		
	
		
		
	
		
		
	
		
		
	
		
		
	
		
		
	
		
		
	
		
		
	
		
		

	</g>
	

</svg>