<?xml version="1.0" encoding="iso-8859-1"?><!-- Generator: Adobe Illustrator 14.0.0, SVG Export Plug-In . SVG Version: 6.00 Build 43363)  --><!DOCTYPE svg  PUBLIC '-//W3C//DTD SVG 1.1//EN'  'http://www.w3.org/Graphics/SVG/1.1/DTD/svg11.dtd'><svg enable-background="new 0 0 340 69" id="Layer_1" version="1.1" viewBox="0 0 340 69" x="0px" xml:space="preserve" xmlns="http://www.w3.org/2000/svg" xmlns:xlink="http://www.w3.org/1999/xlink" y="0px">
	

	<g>
		
	
		
		
	
		
		
	
		
		
	
		
		
	
		
		
	
		
		
	
		
		
	
		
		
	
		
		
	
		
		
	
		
		
	
		
		
	
		
		
	
		
		
	
		
		
	
		
		
	
		<path animation_id="16" d="M115.08,40.752c-0.229,0-0.412-0.185-0.412-0.413l0.002-0.215l-0.004-4.065   c0-0.229,0.186-0.413,0.413-0.413l2.878-0.01c0.315,0,0.58-0.271,0.58-0.596v-1.332c0-0.301-0.282-0.585-0.58-0.585l-2.924-0.007   c-0.148-0.004-0.364-0.161-0.363-0.399l-0.001-3.859c0-0.229,0.185-0.414,0.413-0.414l0.019,0.003l6.145-0.003   c0.005,0,0.008,0.003,0.013,0.003c0.33,0,0.593-0.254,0.625-0.576l0.015-0.012l-0.009-1.416c0-0.326-0.269-0.596-0.6-0.596h-12.032   c-0.329,0-0.598,0.27-0.598,0.597v15.923c0,0.33,0.269,0.6,0.598,0.6h12.032c0.331,0,0.6-0.27,0.6-0.6l0.005-1.073   c0-0.284-0.284-0.541-0.595-0.541H115.08" fill="#004B93" stroke="black"/>
		
	
		
		
	
		
		
	
		
		
	
		
		
	
		
		
	
		
		
	
		
		
	
		
		
	
		
		
	
		
		
	
		
		
	
		
		
	
		
		
	
		
		
	
		
		
	
		
		
	
		
		
	
		
		

	</g>
	

</svg>