<?xml version="1.0" encoding="iso-8859-1"?><!-- Generator: Adobe Illustrator 14.0.0, SVG Export Plug-In . SVG Version: 6.00 Build 43363)  --><!DOCTYPE svg  PUBLIC '-//W3C//DTD SVG 1.1//EN'  'http://www.w3.org/Graphics/SVG/1.1/DTD/svg11.dtd'><svg enable-background="new 0 0 340 69" id="Layer_1" version="1.1" viewBox="0 0 340 69" x="0px" xml:space="preserve" xmlns="http://www.w3.org/2000/svg" xmlns:xlink="http://www.w3.org/1999/xlink" y="0px">
	

	<g>
		
	
		
		
	
		
		
	
		
		
	
		
		
	
		
		
	
		
		
	
		
		
	
		
		
	
		
		
	
		
		
	
		
		
	
		
		
	
		
		
	
		
		
	
		
		
	
		
		
	
		
		
	
		
		
	
		
		
	
		
		
	
		
		
	
		
		
	
		<path animation_id="22" d="M260.78,59.851c-0.893,0.343-1.414,0.453-2.141,0.453c-1.963,0-3.32-1.469-3.32-3.582   c0-2.003,1.232-3.43,2.963-3.43c0.809,0,1.441,0.302,1.895,0.892c0.438,0.562,0.604,1.194,0.604,2.224v0.232h-4.158   c0.027,1.029,0.164,1.537,0.508,1.989c0.412,0.536,1.029,0.837,1.688,0.837c0.645,0,1.332-0.191,1.963-0.535V59.851    M259.476,56.037v-0.151c0-1.345-0.412-1.989-1.262-1.989c-0.879,0-1.428,0.797-1.51,2.141H259.476z" fill="#004B93" stroke="black"/>
		
	
		
		
	
		
		
	
		
		
	
		
		
	
		
		
	
		
		
	
		
		
	
		
		
	
		
		
	
		
		
	
		
		
	
		
		

	</g>
	

</svg>