<?xml version="1.0" encoding="iso-8859-1"?><!-- Generator: Adobe Illustrator 14.0.0, SVG Export Plug-In . SVG Version: 6.00 Build 43363)  --><!DOCTYPE svg  PUBLIC '-//W3C//DTD SVG 1.1//EN'  'http://www.w3.org/Graphics/SVG/1.1/DTD/svg11.dtd'><svg enable-background="new 0 0 340 69" id="Layer_1" version="1.1" viewBox="0 0 340 69" x="0px" xml:space="preserve" xmlns="http://www.w3.org/2000/svg" xmlns:xlink="http://www.w3.org/1999/xlink" y="0px">
	

	<g>
		
	
		
		
	
		
		
	
		
		
	
		
		
	
		
		
	
		
		
	
		
		
	
		
		
	
		
		
	
		
		
	
		
		
	
		
		
	
		
		
	
		
		
	
		
		
	
		
		
	
		
		
	
		
		
	
		
		
	
		
		
	
		
		
	
		
		
	
		
		
	
		
		
	
		
		
	
		
		
	
		<path animation_id="24" d="M305.78,59.386c-0.084,0.066-0.186,0.113-0.303,0.145s-0.236,0.046-0.359,0.046   c-0.152,0-0.27-0.013-0.357-0.038c-0.084-0.025-0.152-0.047-0.201-0.072h-0.092v0.697c0.041,0.012,0.129,0.024,0.266,0.039   c0.135,0.014,0.262,0.021,0.379,0.021c0.328,0,0.615-0.047,0.863-0.143c0.246-0.092,0.455-0.232,0.621-0.42   c0.154-0.172,0.268-0.387,0.344-0.64c0.078-0.253,0.113-0.528,0.113-0.821c0-0.302-0.035-0.557-0.107-0.766   c-0.072-0.21-0.18-0.382-0.324-0.517c-0.123-0.118-0.27-0.207-0.438-0.264c-0.17-0.058-0.363-0.087-0.584-0.087   c-0.424,0-0.768,0.119-1.029,0.355c-0.262,0.238-0.393,0.545-0.393,0.921c0,0.231,0.039,0.423,0.117,0.574   c0.076,0.153,0.18,0.274,0.311,0.368c0.1,0.068,0.209,0.117,0.328,0.148c0.121,0.033,0.246,0.05,0.377,0.05   c0.176,0,0.32-0.022,0.438-0.063s0.242-0.101,0.379-0.182c-0.02,0.15-0.059,0.278-0.119,0.385   C305.948,59.229,305.874,59.316,305.78,59.386 M305.942,58.341c-0.082,0.018-0.16,0.027-0.23,0.027c-0.088,0-0.17-0.01-0.242-0.025   c-0.074-0.018-0.139-0.049-0.193-0.09c-0.059-0.044-0.104-0.102-0.137-0.177c-0.031-0.075-0.049-0.167-0.049-0.276   c0-0.114,0.016-0.211,0.045-0.292c0.031-0.082,0.07-0.147,0.119-0.199c0.051-0.051,0.105-0.087,0.16-0.108   c0.057-0.021,0.113-0.031,0.176-0.031c0.066,0,0.129,0.01,0.188,0.033c0.061,0.021,0.111,0.057,0.156,0.106   c0.064,0.067,0.117,0.164,0.152,0.288c0.037,0.121,0.057,0.28,0.057,0.471c0,0.064-0.004,0.113-0.006,0.145   c0,0.032-0.002,0.058-0.002,0.074C306.089,58.306,306.026,58.324,305.942,58.341z" fill="#A0ACD4" stroke="black"/>
		
	
		
		
	
		
		
	
		
		
	
		
		
	
		
		
	
		
		
	
		
		
	
		
		

	</g>
	

</svg>