<?xml version="1.0" encoding="iso-8859-1"?><!-- Generator: Adobe Illustrator 14.0.0, SVG Export Plug-In . SVG Version: 6.00 Build 43363)  --><!DOCTYPE svg  PUBLIC '-//W3C//DTD SVG 1.1//EN'  'http://www.w3.org/Graphics/SVG/1.1/DTD/svg11.dtd'><svg enable-background="new 0 0 340 69" id="Layer_1" version="1.1" viewBox="0 0 340 69" x="0px" xml:space="preserve" xmlns="http://www.w3.org/2000/svg" xmlns:xlink="http://www.w3.org/1999/xlink" y="0px">
	

	<g>
		
	
		
		
	
		
		
	
		
		
	
		
		
	
		
		
	
		
		
	
		
		
	
		<path animation_id="7" d="M147.263,25.878c-0.035,0-3.465,0.257-3.498,4.39c-0.017,2.335,1.707,4.248,3.095,5.786   c0.919,1.017,1.712,1.896,1.699,2.579c-0.025,1.45-0.539,2.185-1.527,2.183c-0.517,0-1.5-0.443-2.15-0.736l-0.778-0.3   c-0.329,0-0.575,0.333-0.575,0.63l0.004,1.957l0.146,0.369c0.181,0.183,0.518,0.277,1.007,0.279l5.466-0.081   c0.786-0.007,1.681-0.441,2.391-1.163c0.699-0.711,1.525-2.008,1.505-4.146c-0.02-2.514-2.133-4.911-3.532-6.498   c-0.546-0.619-1.018-1.156-1.095-1.417c-0.241-0.848,0.18-1.172,0.639-1.435c0.253-0.144,1.375,0.086,2.044,0.22l0.854,0.144   c0.393-0.02,0.658-0.277,0.673-0.662c0,0.003,0.005-1.531,0.005-1.531c0-0.329-0.266-0.601-0.595-0.601L147.263,25.878" fill="#004B93" stroke="black"/>
		
	
		
		
	
		
		
	
		
		
	
		
		
	
		
		
	
		
		
	
		
		
	
		
		
	
		
		
	
		
		
	
		
		
	
		
		
	
		
		
	
		
		
	
		
		
	
		
		
	
		
		
	
		
		
	
		
		
	
		
		
	
		
		
	
		
		
	
		
		
	
		
		
	
		
		
	
		
		
	
		
		

	</g>
	

</svg>