<?xml version="1.0" encoding="iso-8859-1"?><!-- Generator: Adobe Illustrator 14.0.0, SVG Export Plug-In . SVG Version: 6.00 Build 43363)  --><!DOCTYPE svg  PUBLIC '-//W3C//DTD SVG 1.1//EN'  'http://www.w3.org/Graphics/SVG/1.1/DTD/svg11.dtd'><svg enable-background="new 0 0 340 69" id="Layer_1" version="1.1" viewBox="0 0 340 69" x="0px" xml:space="preserve" xmlns="http://www.w3.org/2000/svg" xmlns:xlink="http://www.w3.org/1999/xlink" y="0px">
	

	<g>
		
	
		
		
	
		
		
	
		
		
	
		
		
	
		
		
	
		
		
	
		
		
	
		
		
	
		
		
	
		
		
	
		
		
	
		
		
	
		
		
	
		
		
	
		
		
	
		
		
	
		
		
	
		<path animation_id="17" d="M222.12,59.919c-1.305,0.344-2.072,0.467-2.951,0.467c-1.357,0-2.387-0.412-3.17-1.262   c-0.822-0.893-1.248-2.113-1.248-3.568c0-1.441,0.426-2.73,1.193-3.58c0.729-0.783,1.797-1.209,3.115-1.209   c1.016,0,2.045,0.15,3.143,0.467l-0.082,1.592l-0.604-0.068l-0.084-0.687c-0.891-0.507-1.508-0.7-2.223-0.7   c-0.92,0-1.756,0.412-2.264,1.098c-0.562,0.797-0.904,1.99-0.904,3.184c0,2.471,1.398,4.09,3.553,4.09   c0.438,0,0.727-0.041,1.303-0.191v-2.334l-0.686-0.082l-0.082-0.604h2.676l-0.084,0.604l-0.52,0.082l-0.082,1.139V59.919" fill="#004B93" stroke="black"/>
		
	
		
		
	
		
		
	
		
		
	
		
		
	
		
		
	
		
		
	
		
		
	
		
		
	
		
		
	
		
		
	
		
		
	
		
		
	
		
		
	
		
		
	
		
		
	
		
		
	
		
		

	</g>
	

</svg>