<?xml version="1.0" encoding="iso-8859-1"?><!-- Generator: Adobe Illustrator 14.0.0, SVG Export Plug-In . SVG Version: 6.00 Build 43363)  --><!DOCTYPE svg  PUBLIC '-//W3C//DTD SVG 1.1//EN'  'http://www.w3.org/Graphics/SVG/1.1/DTD/svg11.dtd'><svg enable-background="new 0 0 340 69" id="Layer_1" version="1.1" viewBox="0 0 340 69" x="0px" xml:space="preserve" xmlns="http://www.w3.org/2000/svg" xmlns:xlink="http://www.w3.org/1999/xlink" y="0px">
	

	<g>
		
	
		
		
	
		
		
	
		
		
	
		
		
	
		
		
	
		
		
	
		
		
	
		
		
	
		
		
	
		
		
	
		
		
	
		
		
	
		
		
	
		<path animation_id="13" d="M63.782,40.742c-0.229,0-0.414-0.185-0.414-0.414l0.004-0.213l-0.004-4.068   c0-0.227,0.185-0.412,0.413-0.412l2.877-0.01c0.315,0,0.581-0.271,0.581-0.596v-1.33c0-0.303-0.282-0.586-0.581-0.586l-2.923-0.007   c-0.147-0.005-0.366-0.161-0.363-0.401l-0.001-3.857c0-0.229,0.184-0.413,0.414-0.413l0.017,0.002l6.145-0.002   c0.005,0,0.009,0.002,0.012,0.002c0.332,0,0.594-0.255,0.627-0.577l0.013-0.012l-0.007-1.415c0-0.326-0.269-0.597-0.6-0.597H57.959   c-0.33,0-0.6,0.271-0.6,0.597v15.925c0,0.329,0.27,0.6,0.6,0.6h12.032c0.331,0,0.6-0.271,0.6-0.6l0.004-1.074   c0-0.283-0.283-0.541-0.595-0.541H63.782" fill="#004B93" stroke="black"/>
		
	
		
		
	
		
		
	
		
		
	
		
		
	
		
		
	
		
		
	
		
		
	
		
		
	
		
		
	
		
		
	
		
		
	
		
		
	
		
		
	
		
		
	
		
		
	
		
		
	
		
		
	
		
		
	
		
		
	
		
		
	
		
		

	</g>
	

</svg>