<?xml version="1.0" encoding="iso-8859-1"?><!-- Generator: Adobe Illustrator 14.0.0, SVG Export Plug-In . SVG Version: 6.00 Build 43363)  --><!DOCTYPE svg  PUBLIC '-//W3C//DTD SVG 1.1//EN'  'http://www.w3.org/Graphics/SVG/1.1/DTD/svg11.dtd'><svg enable-background="new 0 0 340 69" id="Layer_1" version="1.1" viewBox="0 0 340 69" x="0px" xml:space="preserve" xmlns="http://www.w3.org/2000/svg" xmlns:xlink="http://www.w3.org/1999/xlink" y="0px">
	

	<g>
		
	
		
		
	
		
		
	
		
		
	
		
		
	
		
		
	
		
		
	
		
		
	
		
		
	
		
		
	
		
		
	
		
		
	
		<path animation_id="11" d="M198.209,26.443v15.924c0,0.328,0.267,0.596,0.597,0.596l1.751,0.004c0.298,0,0.56-0.278,0.56-0.596v-8.108   c0.423,0.696,5.277,8.642,5.277,8.642c0.023,0.037,0.062,0.059,0.107,0.059l4.371,0.006c0.329,0,0.597-0.27,0.597-0.6V26.446   c0-0.329-0.268-0.597-0.597-0.597l-1.775,0.009c-0.285,0.019-0.523,0.284-0.531,0.592c0,0-0.003,6.325-0.003,8.074   c-0.425-0.741-4.945-8.61-4.945-8.61c-0.022-0.04-0.063-0.064-0.109-0.064l-4.702-0.005   C198.476,25.844,198.209,26.115,198.209,26.443" fill="#004B93" stroke="black"/>
		
	
		
		
	
		
		
	
		
		
	
		
		
	
		
		
	
		
		
	
		
		
	
		
		
	
		
		
	
		
		
	
		
		
	
		
		
	
		
		
	
		
		
	
		
		
	
		
		
	
		
		
	
		
		
	
		
		
	
		
		
	
		
		
	
		
		
	
		
		

	</g>
	

</svg>