<?xml version="1.0" encoding="iso-8859-1"?><!-- Generator: Adobe Illustrator 14.0.0, SVG Export Plug-In . SVG Version: 6.00 Build 43363)  --><!DOCTYPE svg  PUBLIC '-//W3C//DTD SVG 1.1//EN'  'http://www.w3.org/Graphics/SVG/1.1/DTD/svg11.dtd'><svg enable-background="new 0 0 340 69" id="Layer_1" version="1.1" viewBox="0 0 340 69" x="0px" xml:space="preserve" xmlns="http://www.w3.org/2000/svg" xmlns:xlink="http://www.w3.org/1999/xlink" y="0px">
	

	<g>
		
	
		
		
	
		
		
	
		
		
	
		
		
	
		
		
	
		
		
	
		
		
	
		
		
	
		
		
	
		
		
	
		
		
	
		
		
	
		
		
	
		
		
	
		
		
	
		
		
	
		
		
	
		
		
	
		
		
	
		<path animation_id="19" d="M234.952,59.55l0.082-0.66h-0.082c-0.576,0.878-1.496,1.414-2.414,1.414c-1.154,0-1.854-0.811-1.854-2.127   v-2.908l-0.082-1.141l-0.521-0.082l-0.082-0.604l1.988-0.082l-0.082,1.908v2.715c0,1.043,0.275,1.4,1.057,1.4   c0.672,0,1.318-0.343,1.99-1.057v-3.059l-0.082-1.141l-0.521-0.082l-0.082-0.604l1.988-0.082l-0.082,1.908v3.059l0.082,1.139   l0.521,0.084l0.082,0.603l-1.906,0.082V59.55" fill="#004B93" stroke="black"/>
		
	
		
		
	
		
		
	
		
		
	
		
		
	
		
		
	
		
		
	
		
		
	
		
		
	
		
		
	
		
		
	
		
		
	
		
		
	
		
		
	
		
		
	
		
		

	</g>
	

</svg>