<?xml version="1.0" encoding="iso-8859-1"?><!-- Created with Inkscape (http://www.inkscape.org/) --><svg height="14.061204" id="svg3426" inkscape:output_extension="org.inkscape.output.svg.inkscape" inkscape:version="0.46" sodipodi:docname="HellermannTyton-Logo.svg" sodipodi:version="0.32" version="1.0" width="112.06375" xmlns="http://www.w3.org/2000/svg" xmlns:cc="http://creativecommons.org/ns#" xmlns:dc="http://purl.org/dc/elements/1.1/" xmlns:inkscape="http://www.inkscape.org/namespaces/inkscape" xmlns:rdf="http://www.w3.org/1999/02/22-rdf-syntax-ns#" xmlns:sodipodi="http://sodipodi.sourceforge.net/DTD/sodipodi-0.dtd" xmlns:svg="http://www.w3.org/2000/svg">
	
  
	<defs id="defs3428">
		
    
		<clipPath clipPathUnits="userSpaceOnUse" id="clipPath63">
			
      
			
			
    
		</clipPath>
		
    
		<clipPath clipPathUnits="userSpaceOnUse" id="clipPath57">
			
      
			
			
    
		</clipPath>
		
    
		<clipPath clipPathUnits="userSpaceOnUse" id="clipPath51">
			
      
			
			
    
		</clipPath>
		
    
		<inkscape:perspective id="perspective3434" inkscape:persp3d-origin="372.04724 : 350.78739 : 1" inkscape:vp_x="0 : 526.18109 : 1" inkscape:vp_y="0 : 1000 : 0" inkscape:vp_z="744.09448 : 526.18109 : 1" sodipodi:type="inkscape:persp3d"/>
		
  
	</defs>
	
  
	<sodipodi:namedview bordercolor="#666666" borderopacity="1.0" id="base" inkscape:current-layer="layer1" inkscape:cx="56.03187" inkscape:cy="7.0306022" inkscape:document-units="px" inkscape:pageopacity="0.0" inkscape:pageshadow="2" inkscape:window-height="667" inkscape:window-width="640" inkscape:window-x="22" inkscape:window-y="29" inkscape:zoom="5.0506966" pagecolor="#ffffff" showgrid="false"/>
	
  
	<metadata id="metadata3431">
		
    
		<rdf:RDF>
			
      
			<cc:Work rdf:about="">
				
        
				<dc:format>image/svg+xml</dc:format>
				
        
				<dc:type rdf:resource="http://purl.org/dc/dcmitype/StillImage"/>
				
      
			</cc:Work>
			
    
		</rdf:RDF>
		
  
	</metadata>
	
  
	<g id="layer1" inkscape:groupmode="layer" inkscape:label="Ebene 1" transform="translate(-255.3967,-496.76015)">
		
    
		<g id="g47" transform="matrix(0,-1.25,-1.25,0,499.35607,591.24265)">
			
      
			<g clip-path="url(#clipPath51)" id="g49">
				
        
				<g clip-path="url(#clipPath57)" id="g55">
					
          
					<g clip-path="url(#clipPath63)" id="g61">
						
            
						
						
            
						
						
            
						
						
            
						
						
            
						
						
            
						
						
            
						
						
            
						
						
            
						
						
            
						
						
            
						
						
            
						
						
            
						
						
            
						<path animation_id="16" d="M 71.484,147.959 C 73.088,147.959 73.37,149.637 73.37,150.556 C 73.37,151.891 73.088,153.275 71.092,153.471 L 71.092,151.817 C 71.471,151.768 71.998,151.621 71.998,150.764 C 71.998,150.323 71.961,149.637 71.239,149.637 C 70.871,149.637 70.761,149.968 70.725,150.237 L 70.492,151.78 C 70.333,152.87 69.683,153.679 68.41,153.679 C 67.062,153.679 66.511,152.674 66.511,151.695 C 66.511,150.531 67.05,149.98 67.454,149.588 C 67.087,149.552 66.989,149.527 66.683,149.429 L 66.683,147.798 C 66.683,147.798 67.185,147.959 67.957,147.959 L 71.484,147.959 z M 69.022,149.637 C 68.226,149.637 67.736,150.409 67.736,151.168 C 67.736,151.499 67.92,151.964 68.52,151.964 C 69.23,151.964 69.389,151.437 69.5,150.801 C 69.61,150.09 69.72,149.809 69.855,149.637 L 69.022,149.637" id="path93" stroke="black" style="fill:#005aaa;fill-opacity:1;fill-rule:nonzero;"/>
						
            
						
						
            
						
						
            
						
						
            
						
						
            
						
						
          
					</g>
					
        
				</g>
				
      
			</g>
			
    
		</g>
		
  
	</g>
	

</svg>