<?xml version="1.0" encoding="iso-8859-1"?><!-- Generator: Adobe Illustrator 15.0.0, SVG Export Plug-In . SVG Version: 6.00 Build 0)  --><!DOCTYPE svg  PUBLIC '-//W3C//DTD SVG 1.1//EN'  'http://www.w3.org/Graphics/SVG/1.1/DTD/svg11.dtd' [
	<!ENTITY st0 "fill:#E3191C;">
	<!ENTITY st1 "fill:#FFFFFF;">
]><svg height="344.808px" id="Ebene_1" style="enable-background:new 0 0 344.807 344.808;" version="1.1" viewBox="0 0 344.807 344.808" width="344.807px" x="0px" xml:space="preserve" xmlns="http://www.w3.org/2000/svg" xmlns:xlink="http://www.w3.org/1999/xlink" y="0px">
	

	
	

	<path animation_id="1" d="M70.688,213.872c0,0.762,0.615,1.38,1.377,1.38h11.725c0.762,0,1.377-0.618,1.377-1.38v-76.548  c0-0.762-0.615-1.377-1.377-1.377H72.064c-0.762,0-1.377,0.615-1.377,1.377v27.93c0,0.762-0.621,1.38-1.383,1.38H39.656  c-0.762,0-1.383-0.618-1.383-1.38v-27.93c0-0.762-0.615-1.377-1.377-1.377H25.172c-0.762,0-1.377,0.615-1.377,1.377v76.548  c0,0.762,0.615,1.38,1.377,1.38h11.725c0.762,0,1.377-0.618,1.377-1.38v-32.757c0-0.762,0.621-1.383,1.383-1.383h29.648  c0.762,0,1.383,0.621,1.383,1.383V213.872z" stroke="black" style="fill:#FFFFFF;"/>
	

	
	

	
	

	
	

</svg>