<?xml version="1.0" encoding="iso-8859-1"?><!-- Generator: Adobe Illustrator 15.0.0, SVG Export Plug-In . SVG Version: 6.00 Build 0)  --><!DOCTYPE svg  PUBLIC '-//W3C//DTD SVG 1.1//EN'  'http://www.w3.org/Graphics/SVG/1.1/DTD/svg11.dtd' [
	<!ENTITY st0 "fill:#E3191C;">
	<!ENTITY st1 "fill:#FFFFFF;">
]><svg height="344.808px" id="Ebene_1" style="enable-background:new 0 0 344.807 344.808;" version="1.1" viewBox="0 0 344.807 344.808" width="344.807px" x="0px" xml:space="preserve" xmlns="http://www.w3.org/2000/svg" xmlns:xlink="http://www.w3.org/1999/xlink" y="0px">
	

	
	

	
	

	
	

	
	

	<path animation_id="4" d="M203.262,213.872c-0.762,0-1.605-0.618-1.887-1.38l-19.444-52.797c-0.261-0.715-0.419-0.678-0.419,0.081  v54.097c0,0.762-0.615,1.38-1.377,1.38H168.41c-0.762,0-1.383-0.618-1.383-1.38v-76.548c0-0.762,0.621-1.377,1.383-1.377h17.232  c0.762,0,1.605,0.615,1.887,1.377l19.002,52.135c0.161,0.434,0.275,0.56,0.463,0.56c0.19,0,0.305-0.126,0.463-0.56l19.002-52.135  c0.281-0.762,1.128-1.377,1.89-1.377h17.235c0.762,0,1.377,0.615,1.377,1.377v76.548c0,0.762-0.615,1.38-1.377,1.38h-11.725  c-0.762,0-1.38-0.618-1.38-1.38v-54.097c0-0.759-0.158-0.795-0.419-0.081l-19.441,52.797c-0.284,0.762-1.131,1.38-1.893,1.38  H203.262z" stroke="black" style="fill:#FFFFFF;"/>
	

</svg>