<?xml version="1.0" encoding="iso-8859-1"?><!-- Generator: Adobe Illustrator 16.0.3, SVG Export Plug-In . SVG Version: 6.00 Build 0)  --><!DOCTYPE svg  PUBLIC '-//W3C//DTD SVG 1.1//EN'  'http://www.w3.org/Graphics/SVG/1.1/DTD/svg11.dtd'><svg enable-background="new 0 0 396.85 396.851" height="396.851px" id="Ebene_1" version="1.1" viewBox="0 0 396.85 396.851" width="396.85px" x="0px" xml:space="preserve" xmlns="http://www.w3.org/2000/svg" xmlns:xlink="http://www.w3.org/1999/xlink" y="0px">
	

	<g display="none">
		
	
		
		
	
		
		
	
		
		
	
		
		
	
		
		
	
		
		
	
		
		
	
		
		
	
		
		
	
		
		
	
		
		
	
		
		

	</g>
	

	<g>
		
	
		
		

	</g>
	

	<g>
		
	
		<path animation_id="13" d="M368.475,289.044c-6.299-5.67-88.8-83.466-88.8-83.466c-3.402-3.208-3.42-8.478-0.038-11.708   c0,0,84.967-81.177,89.759-85.73c4.621-4.392,0.834-8-3.333-6.667c-5.629,1.801-120.821,31.905-120.821,31.905   c-4.525,1.182-9.275-1.531-10.557-6.029c0,0-30.447-106.927-31.956-112.542s-5.772-4.875-7.333,0.333   c-1.693,5.649-31.704,112.229-31.704,112.229c-1.268,4.502-6.011,7.231-10.54,6.065c0,0-107.07-27.57-115.089-29.128   c-6-1.166-7.333,2.834-3.547,6.701c5.126,5.235,83.478,82.868,83.478,82.868c3.323,3.292,3.349,8.705,0.058,12.029   c0,0-78.558,79.353-83.868,84.365c-4.455,4.204-3.569,9.313,3.988,7.259s113.648-30.902,113.648-30.902   c4.513-1.228,9.286,1.439,10.606,5.927c0,0,30.594,103.991,32.303,111.254c1.333,5.668,6.333,6.001,8,0.334   c2.077-7.062,31.663-111.757,31.663-111.757c1.271-4.501,6.023-7.248,10.559-6.104c0,0,111.308,28.065,119.389,29.736   C371.396,297.474,373.396,293.474,368.475,289.044z M235.865,250.592c-4.538-1.131-9.289,1.627-10.557,6.129l-24.18,85.821   c-1.268,4.502-3.38,4.513-4.693,0.023l-25.125-85.902c-1.313-4.489-6.08-7.158-10.593-5.931l-86.225,23.446   c-4.513,1.228-5.508-0.482-2.211-3.801l64.15-64.548c3.297-3.317,3.279-8.728-0.041-12.022l-63.24-62.77   c-3.32-3.295-2.326-5.05,2.207-3.899l86.874,22.042c4.534,1.15,9.278-1.593,10.544-6.095l23.843-84.823   c1.266-4.502,3.358-4.509,4.65-0.014l24.424,84.943c1.292,4.495,6.05,7.197,10.572,6.004l90.039-23.744   c4.522-1.193,5.459,0.479,2.081,3.714l-67.639,64.784c-3.378,3.235-3.354,8.503,0.054,11.707l67.844,63.781   c3.407,3.204,2.482,4.899-2.056,3.769L235.865,250.592z" fill="#004A93" stroke="black"/>
		

	</g>
	

	
	

	
	

	<g>
</g>
	

	<g>
</g>
	

	<g>
</g>
	

	<g>
</g>
	

	<g>
</g>
	

	<g>
</g>
	

</svg>