<?xml version="1.0" encoding="iso-8859-1"?><svg viewBox="0 0 181.42 22.24" xmlns="http://www.w3.org/2000/svg">
	<defs>
		<style>.cls-1{fill:#d50c2d;}</style>
	</defs>
	<title>Element 1</title>
	<g data-name="Ebene 2" id="Ebene_2">
		<g data-name="Logo Pur" id="Logo_Pur">
			<g id="Logo">
				<g id="HETZNER">
					
					
					
					
					
					<path animation_id="5" class="cls-1" d="M47.91,17.52H31.41V13.35H44.6c.7,0,1-.29,1-1V9.92c0-.7-.28-1-1-1H31.41V4.76h16.5c.7,0,1-.29,1-1V1c0-.7-.29-1-1-1H27.33c-.7,0-1,.29-1,1V21.24c0,.7.29,1,1,1H47.91c.7,0,1-.29,1-1V18.51C48.9,17.81,48.61,17.52,47.91,17.52Z" stroke="black"/>
					
				</g>
			</g>
		</g>
	</g>
</svg>