<?xml version="1.0" encoding="iso-8859-1"?><svg viewBox="0 0 181.42 22.24" xmlns="http://www.w3.org/2000/svg">
	<defs>
		<style>.cls-1{fill:#d50c2d;}</style>
	</defs>
	<title>Element 1</title>
	<g data-name="Ebene 2" id="Ebene_2">
		<g data-name="Logo Pur" id="Logo_Pur">
			<g id="Logo">
				<g id="HETZNER">
					
					
					
					
					
					
					<path animation_id="6" class="cls-1" d="M21.63,0H18.52c-.7,0-1,.29-1,1V8.87H5.13V1c0-.7-.29-1-1-1H1C.29,0,0,.29,0,1V21.25c0,.71.29,1,1,1H4.13c.7,0,1-.28,1-1v-8h12.4v8c0,.7.29,1,1,1h3.11c.7,0,1-.29,1-1V1C22.62.32,22.33,0,21.63,0Z" stroke="black"/>
				</g>
			</g>
		</g>
	</g>
</svg>