<?xml version="1.0" encoding="iso-8859-1"?><svg viewBox="0 0 181.42 22.24" xmlns="http://www.w3.org/2000/svg">
	<defs>
		<style>.cls-1{fill:#d50c2d;}</style>
	</defs>
	<title>Element 1</title>
	<g data-name="Ebene 2" id="Ebene_2">
		<g data-name="Logo Pur" id="Logo_Pur">
			<g id="Logo">
				<g id="HETZNER">
					
					
					
					<path animation_id="3" class="cls-1" d="M100.47,17.39l-14.25,0L100.5,4.84a2.57,2.57,0,0,0,1-1.84V1c0-.7-.3-1-1-1H79.83c-.7,0-1,.29-1,1V3.77c0,.7.29,1,1,1H93.08L79.79,17.24a2.62,2.62,0,0,0-1,1.84v2.17c0,.7.29,1,1,1l20.65,0c.7,0,1-.29,1-1V18.38C101.46,17.68,101.17,17.39,100.47,17.39Z" stroke="black"/>
					
					
					
				</g>
			</g>
		</g>
	</g>
</svg>