<?xml version="1.0" encoding="iso-8859-1"?><svg viewBox="0 0 181.42 22.24" xmlns="http://www.w3.org/2000/svg">
	<defs>
		<style>.cls-1{fill:#d50c2d;}</style>
	</defs>
	<title>Element 1</title>
	<g data-name="Ebene 2" id="Ebene_2">
		<g data-name="Logo Pur" id="Logo_Pur">
			<g id="Logo">
				<g id="HETZNER">
					
					
					<path animation_id="2" class="cls-1" d="M127.73,7.3a7.25,7.25,0,0,0-1.13-4A6.61,6.61,0,0,0,121.24,0L106.08,0c-.71,0-1,.29-1,1V21.22c0,.7.29,1,1,1h3.26c.7,0,1-.28,1-1V4.73l8.78,0c1.87,0,3.69,1.24,3.69,3.11V21.24c0,.7.29,1,1,1h2.95c.71,0,1-.29,1-1Z" stroke="black"/>
					
					
					
					
				</g>
			</g>
		</g>
	</g>
</svg>