<?xml version="1.0" encoding="iso-8859-1"?><svg viewBox="0 0 181.42 22.24" xmlns="http://www.w3.org/2000/svg">
	<defs>
		<style>.cls-1{fill:#d50c2d;}</style>
	</defs>
	<title>Element 1</title>
	<g data-name="Ebene 2" id="Ebene_2">
		<g data-name="Logo Pur" id="Logo_Pur">
			<g id="Logo">
				<g id="HETZNER">
					<path animation_id="0" class="cls-1" d="M174.05,14.12a10.22,10.22,0,0,0,4.53-2l0,0a6.15,6.15,0,0,0,1.68-4.78,7.71,7.71,0,0,0-1.14-4.06A6.47,6.47,0,0,0,173.84.09l-1.09,0L170.2,0,158.66,0c-.7,0-1,.29-1,1V21.22c0,.7.29,1,1,1h3c.7,0,1-.29,1-1v-6.7h3.67a3.48,3.48,0,0,1,2.17.91l5.82,5.85a3.08,3.08,0,0,0,2,.92h4.47c.7,0,.87-.41.38-.91Zm-.76-4.3H162.64V4.72h10.65a2.13,2.13,0,0,1,1.87,2.15v.79A2.14,2.14,0,0,1,173.29,9.82Z" stroke="black"/>
					
					
					
					
					
					
				</g>
			</g>
		</g>
	</g>
</svg>