<?xml version="1.0" encoding="iso-8859-1"?><svg height="121px" version="1.1" viewBox="0 0 828 121" width="828px" xmlns="http://www.w3.org/2000/svg" xmlns:xlink="http://www.w3.org/1999/xlink">
	<g fill="none" fill-rule="evenodd" id="Page-1" stroke="none" stroke-width="0.75">
		<g fill-rule="nonzero" id="logo-H+K-horizontal-(red-RGB)">
			
			
			
			
			
			
			
			
			
			
			
			
			
			
			
			
			
			
			
			
			<path animation_id="6" d="M458.615,76.322 C457.939,69.991 453.82,67.347 447.734,67.347 C442.755,67.347 437.899,69.13 437.899,74.847 C437.899,85.665 465.991,78.047 465.991,95.316 C465.991,104.659 456.832,108.409 448.841,108.409 C439.005,108.409 430.707,103.553 430.707,92.919 L436.239,92.919 C436.239,100.295 442.387,103.492 449.025,103.492 C454.312,103.492 460.151,101.832 460.151,95.5 C460.151,83.453 432.06,91.382 432.06,75.277 C432.06,66.425 439.928,62.43 447.98,62.43 C456.955,62.43 463.839,66.671 464.147,76.322 L458.615,76.322 Z" fill="#231F20" id="Path" stroke="black"/>
			
			
			
			
			
			
			
			
			
		</g>
	</g>
</svg>