<?xml version="1.0" encoding="iso-8859-1"?><svg height="121px" version="1.1" viewBox="0 0 828 121" width="828px" xmlns="http://www.w3.org/2000/svg" xmlns:xlink="http://www.w3.org/1999/xlink">
	<g fill="none" fill-rule="evenodd" id="Page-1" stroke="none" stroke-width="0.75">
		<g fill-rule="nonzero" id="logo-H+K-horizontal-(red-RGB)">
			
			
			
			
			
			
			
			
			
			
			
			
			
			
			
			
			
			
			
			
			
			
			
			<path animation_id="9" d="M546.889,107.241 C545.737644,107.855933 544.443281,108.153118 543.139,108.102 C540.434,108.102 538.713,106.627 538.713,103.184 C535.942404,106.461399 531.814025,108.276306 527.526,108.102 C521.748,108.102 517.015,105.582 517.015,99.189 C517.015,91.997 522.362,90.399 527.772,89.415 C533.488,88.247 538.467,88.739 538.467,84.743 C538.467,80.133 534.656,79.457 531.399,79.457 C526.973,79.457 523.715,80.809 523.469,85.481 L518.244,85.481 C518.551,77.613 524.575,74.847 531.706,74.847 C537.423,74.847 543.631,76.138 543.631,83.575 L543.631,99.926 C543.631,102.385 543.631,103.492 545.291,103.492 C545.837173,103.473766 546.37709,103.369832 546.891,103.184 L546.889,107.241 Z M538.406,90.952 C534.349,93.964 522.547,91.013 522.547,98.82 C522.547,102.262 525.497,103.492 528.694,103.492 C535.578,103.492 538.406,99.25 538.406,96.3 L538.406,90.952 Z" fill="#231F20" id="Shape" stroke="black"/>
			
			
			
			
			
			
		</g>
	</g>
</svg>