<?xml version="1.0" encoding="iso-8859-1"?><!-- Created with Inkscape (http://www.inkscape.org/) --><svg height="273.331" version="1.0" width="894.189" xmlns="http://www.w3.org/2000/svg" xmlns:cc="http://creativecommons.org/ns#" xmlns:dc="http://purl.org/dc/elements/1.1/" xmlns:rdf="http://www.w3.org/1999/02/22-rdf-syntax-ns#">
	

 
	<metadata>
		

  
		<rdf:RDF>
			

   
			<cc:Work rdf:about="">
				

    
				<dc:format>image/svg+xml</dc:format>
				

    
				<dc:type rdf:resource="http://purl.org/dc/dcmitype/StillImage"/>
				

    
				<dc:title/>
				

   
			</cc:Work>
			

  
		</rdf:RDF>
		

 
	</metadata>
	

 
	
	

 
	<path animation_id="1" d="M350.188,52.5c-15.712,0-27.032,9.7189-27.032,23,0,11.7487,4.349,17.6083,19.188,25.781,15.711,8.429,19.217,10.739,31.437,18.657,8.729-6.641,12.211-8.929,21.813-13.782,6.11-3.575,11.35-5.874,13.968-7.406,4.365-2.5541,7.851-5.3726,10.469-8.4375,2.619-4.0865,4.375-9.449,4.375-14.8125,0-13.5365-10.473-23-25.312-23-9.602,0-14.838,2.8258-25.313,12.5312-8.728-9.9608-13.992-12.5312-23.593-12.5312zm-32.282,73.312v136.907h110.844v-136.907h-110.844z" fill="#00acef" fill-rule="nonzero" stroke="black"/>
	

 
	
	

 
	
	


</svg>