<?xml version="1.0" encoding="iso-8859-1"?><!-- Generator: Adobe Illustrator 14.0.0, SVG Export Plug-In . SVG Version: 6.00 Build 43363)  --><!DOCTYPE svg  PUBLIC '-//W3C//DTD SVG 1.1//EN'  'http://www.w3.org/Graphics/SVG/1.1/DTD/svg11.dtd'><svg enable-background="new 233.811 316.512 131.425 201.609" height="201.609px" id="Ebene_1" version="1.1" viewBox="233.811 316.512 131.425 201.609" width="131.425px" x="0px" xml:space="preserve" xmlns="http://www.w3.org/2000/svg" xmlns:xlink="http://www.w3.org/1999/xlink" y="0px">
	

	<g>
		
	
		
		
	
		
		
	
		<g>
			
		
			<g>
				
			
				<g>
					
				
					
					
				
					
					
			
				</g>
				
			
				
				
			
				
				
			
				
				
			
				
				
			
				
				
			
				
				
			
				
				
			
				
				
			
				
				
			
				
				
			
				
				
			
				
				
			
				
				
			
				
				
			
				
				
			
				
				
			
				
				
			
				<path animation_id="1" d="M343.004,427.958h-0.031c0.006,0.057,0.021,0.113,0.021,0.172c0,1.303-1.344,2.359-3.002,2.359     c-1.655,0-3.002-1.057-3.002-2.359c0-0.059,0.019-0.115,0.023-0.172h-0.023v-88.089H337c-0.003-0.021-0.011-0.043-0.011-0.064     c0-1.304,1.347-2.36,3.002-2.36c1.658,0,3.002,1.057,3.002,2.36c0,0.021-0.008,0.043-0.008,0.064h0.019V427.958L343.004,427.958z     " fill="#FFFFFF" stroke="black"/>
				
			
				
				
			
				
				
			
				<g>
					
				
					
					
				
					
					
			
				</g>
				
			
				
				
			
				
				
		
			</g>
			
		
			
			
		
			
			
		
			
			
		
			
			
	
		</g>
		

	</g>
	

</svg>