<?xml version="1.0" encoding="iso-8859-1"?><!-- Created with Inkscape (http://www.inkscape.org/) --><svg height="26.030001" id="svg12828" inkscape:version="0.48.1 " sodipodi:docname="Neues Dokument 7" version="1.1" width="83.279999" xmlns="http://www.w3.org/2000/svg" xmlns:cc="http://creativecommons.org/ns#" xmlns:dc="http://purl.org/dc/elements/1.1/" xmlns:inkscape="http://www.inkscape.org/namespaces/inkscape" xmlns:rdf="http://www.w3.org/1999/02/22-rdf-syntax-ns#" xmlns:sodipodi="http://sodipodi.sourceforge.net/DTD/sodipodi-0.dtd" xmlns:svg="http://www.w3.org/2000/svg">
	
  
	<defs id="defs12830">
		
    
		<clipPath clipPathUnits="userSpaceOnUse" id="clipPath6506">
			
      
			
			
    
		</clipPath>
		
  
	</defs>
	
  
	<sodipodi:namedview bordercolor="#666666" borderopacity="1.0" fit-margin-bottom="0" fit-margin-left="0" fit-margin-right="0" fit-margin-top="0" id="base" inkscape:current-layer="g6504" inkscape:cx="31.712697" inkscape:cy="3.6891644" inkscape:document-units="px" inkscape:pageopacity="0.0" inkscape:pageshadow="2" inkscape:window-height="678" inkscape:window-maximized="1" inkscape:window-width="1024" inkscape:window-x="-4" inkscape:window-y="-4" inkscape:zoom="7.9447266" pagecolor="#ffffff" showgrid="false"/>
	
  
	<metadata id="metadata12833">
		
    
		<rdf:RDF>
			
      
			<cc:Work rdf:about="">
				
        
				<dc:format>image/svg+xml</dc:format>
				
        
				<dc:type rdf:resource="http://purl.org/dc/dcmitype/StillImage"/>
				
        
				<dc:title/>
				
      
			</cc:Work>
			
    
		</rdf:RDF>
		
  
	</metadata>
	
  
	<g id="layer1" inkscape:groupmode="layer" inkscape:label="Ebene 1" transform="translate(-310.43164,-513.00323)">
		
    
		<g id="g6502" transform="matrix(1.25,0,0,-1.25,-946.05148,575.67623)">
			
      
			<g clip-path="url(#clipPath6506)" id="g6504">
				
        
				<g id="g6514" transform="translate(1014.8868,45.3326)">
					
          
					
					
        
				</g>
				
        
				<g id="g6518" transform="translate(1014.8868,45.3326)">
					
          
					
					
        
				</g>
				
        
				<g id="g6522" transform="translate(1045.4436,44.4116)">
					
          
					
					
        
				</g>
				
        
				<g id="g6526" transform="translate(1056.5127,40.0121)">
					
          
					
					
        
				</g>
				
        
				<g id="g6530" transform="translate(1063.9751,41.796)">
					
          
					<path animation_id="5" d="m 0,0 c 0,-1.824 0.815,-2.901 2.279,-2.901 1.43,0 2.191,1.044 2.191,2.867 C 4.47,1.787 3.709,2.85 2.33,2.85 0.869,2.85 0,1.76 0,0 M 0.192,2.269 0.347,2.254 c 0.134,0.64 0.315,0.919 0.804,1.324 0.555,0.47 1.263,0.692 2.185,0.692 2.372,0 3.698,-1.53 3.698,-4.27 0,-2.79 -1.36,-4.321 -3.768,-4.321 -1.413,0 -2.349,0.559 -2.785,1.665 l -0.151,-0.028 0,-3.075 1.352,0 0,-1.351 -4.781,0 0,1.351 1.212,0 0,8.384 -1.212,0 0,1.35 3.291,0 0,-1.706 z" id="path6532" inkscape:connector-curvature="0" stroke="black" style="fill:#2d2c2e;fill-opacity:1;fill-rule:nonzero;"/>
					
        
				</g>
				
        
				<g id="g6534" transform="translate(1018.8736,40.412)">
					
          
					
					
        
				</g>
				
        
				<g id="g6538" transform="translate(1018.8736,40.412)">
					
          
					
					
        
				</g>
				
        
				<g id="g6542" transform="translate(1030.9385,40.412)">
					
          
					
					
        
				</g>
				
        
				<g id="g6546" transform="translate(1038.7848,40.412)">
					
          
					
					
        
				</g>
				
        
				<g id="g6550" transform="translate(1014.8868,47.9112)">
					
          
					
					
        
				</g>
				
      
			</g>
			
    
		</g>
		
  
	</g>
	

</svg>