<?xml version="1.0" encoding="iso-8859-1"?><!-- Created with Inkscape (http://www.inkscape.org/) --><svg height="289.13385" id="svg15818" version="1.1" width="715.74799" xmlns="http://www.w3.org/2000/svg" xmlns:cc="http://creativecommons.org/ns#" xmlns:dc="http://purl.org/dc/elements/1.1/" xmlns:rdf="http://www.w3.org/1999/02/22-rdf-syntax-ns#" xmlns:svg="http://www.w3.org/2000/svg">
	
  
	<defs id="defs15820"/>
	
  
	<metadata id="metadata15823">
		
    
		<rdf:RDF>
			
      
			<cc:Work rdf:about="">
				
        
				<dc:format>image/svg+xml</dc:format>
				
        
				<dc:type rdf:resource="http://purl.org/dc/dcmitype/StillImage"/>
				
        
				<dc:title/>
				
      
			</cc:Work>
			
    
		</rdf:RDF>
		
  
	</metadata>
	
  
	<g id="layer1" transform="translate(-19.638666,-426.18737)">
		
    
		<g id="g15893" transform="matrix(7.1112654,0,0,7.1112654,-2373.3117,-3319.3669)">
			
      
			
			
      
			
			
      
			
			
      
			
			
      
			
			
      
			
			
      
			
			
      
			
			
      
			
			
      
			<path animation_id="9" d="m 415.52012,555.54701 c -0.57617,0.47852 -1.4209,0.72266 -2.51465,0.72266 -1.10351,0 -1.93847,-0.24414 -2.51465,-0.72266 -0.78125,-0.58593 -1.17187,-1.42578 -1.17187,-2.52929 0,-1.12305 0.39062,-1.96778 1.17187,-2.53418 0.57618,-0.47364 1.41114,-0.71289 2.51465,-0.71289 1.09375,0 1.93848,0.23925 2.51465,0.71289 0.77636,0.5664 1.16699,1.41113 1.16699,2.53418 0,1.10351 -0.39063,1.94336 -1.16699,2.52929 z m -1.00586,-0.93261 c 0.38086,-0.3711 0.5664,-0.90332 0.5664,-1.59668 0,-0.69336 -0.18554,-1.22071 -0.5664,-1.5918 -0.36621,-0.38086 -0.87891,-0.57129 -1.50879,-0.57129 -0.63965,0 -1.1377,0.19043 -1.52344,0.56152 -0.38575,0.3711 -0.57128,0.90821 -0.57128,1.60157 0,0.69336 0.18553,1.22558 0.57128,1.59668 0.38574,0.38086 0.88379,0.56152 1.52344,0.56152 0.62988,0 1.14258,-0.18066 1.50879,-0.56152" id="path14517" stroke="black" style="fill:#ffffff;fill-opacity:1;fill-rule:evenodd;"/>
			
      
			
			
      
			
			
      
			
			
      
			
			
      
			
			
      
			
			
      
			
			
      
			
			
      
			
			
      
			
			
      
			
			
      
			
			
      
			
			
      
			
			
      
			
			
      
			
			
      
			
			
      
			
			
      
			
			
      
			
			
      
			
			
    
		</g>
		
  
	</g>
	

</svg>