<?xml version="1.0" encoding="iso-8859-1"?><!-- Created with Inkscape (http://www.inkscape.org/) --><svg height="289.13385" id="svg15818" version="1.1" width="715.74799" xmlns="http://www.w3.org/2000/svg" xmlns:cc="http://creativecommons.org/ns#" xmlns:dc="http://purl.org/dc/elements/1.1/" xmlns:rdf="http://www.w3.org/1999/02/22-rdf-syntax-ns#" xmlns:svg="http://www.w3.org/2000/svg">
	
  
	<defs id="defs15820"/>
	
  
	<metadata id="metadata15823">
		
    
		<rdf:RDF>
			
      
			<cc:Work rdf:about="">
				
        
				<dc:format>image/svg+xml</dc:format>
				
        
				<dc:type rdf:resource="http://purl.org/dc/dcmitype/StillImage"/>
				
        
				<dc:title/>
				
      
			</cc:Work>
			
    
		</rdf:RDF>
		
  
	</metadata>
	
  
	<g id="layer1" transform="translate(-19.638666,-426.18737)">
		
    
		<g id="g15893" transform="matrix(7.1112654,0,0,7.1112654,-2373.3117,-3319.3669)">
			
      
			
			
      
			
			
      
			
			
      
			
			
      
			
			
      
			
			
      
			
			
      
			
			
      
			
			
      
			
			
      
			
			
      
			
			
      
			
			
      
			
			
      
			
			
      
			
			
      
			
			
      
			
			
      
			
			
      
			
			
      
			
			
      
			
			
      
			
			
      
			<path animation_id="23" d="m 412.47812,564.0724 c 0.14649,0.24415 0.21973,0.56153 0.21973,0.97657 0,0.39062 -0.0733,0.73242 -0.21973,0.95215 -0.1709,0.24414 -0.39062,0.36621 -0.65917,0.36621 -0.26855,0 -0.48829,-0.12208 -0.63477,-0.3418 -0.1709,-0.24414 -0.24415,-0.58594 -0.24415,-0.97656 0,-0.41504 0.0733,-0.75684 0.24415,-0.97657 0.14648,-0.24414 0.36622,-0.36621 0.63477,-0.36621 0.26855,0 0.48827,0.12208 0.65917,0.36621 z m -1.70897,-0.36621 c -0.24415,0.31739 -0.36622,0.75684 -0.36622,1.34278 0,0.56152 0.122,1.00097 0.36622,1.31836 0.26855,0.31738 0.61035,0.48828 1.0498,0.48828 0.43945,0 0.78125,-0.1709 1.0498,-0.48828 0.24415,-0.31739 0.39062,-0.75684 0.39062,-1.31836 0,-0.58594 -0.14647,-1.02539 -0.39062,-1.34278 -0.26855,-0.31738 -0.61035,-0.46386 -1.0498,-0.46386 -0.43945,0 -0.78125,0.14648 -1.0498,0.46386 z m 0,0" id="path14545" stroke="black" style="fill:#211e1e;fill-opacity:1;fill-rule:nonzero;"/>
			
      
			
			
      
			
			
      
			
			
      
			
			
      
			
			
      
			
			
      
			
			
    
		</g>
		
  
	</g>
	

</svg>