<?xml version="1.0" encoding="iso-8859-1"?><!-- Created with Inkscape (http://www.inkscape.org/) --><svg height="289.13385" id="svg15818" version="1.1" width="715.74799" xmlns="http://www.w3.org/2000/svg" xmlns:cc="http://creativecommons.org/ns#" xmlns:dc="http://purl.org/dc/elements/1.1/" xmlns:rdf="http://www.w3.org/1999/02/22-rdf-syntax-ns#" xmlns:svg="http://www.w3.org/2000/svg">
	
  
	<defs id="defs15820"/>
	
  
	<metadata id="metadata15823">
		
    
		<rdf:RDF>
			
      
			<cc:Work rdf:about="">
				
        
				<dc:format>image/svg+xml</dc:format>
				
        
				<dc:type rdf:resource="http://purl.org/dc/dcmitype/StillImage"/>
				
        
				<dc:title/>
				
      
			</cc:Work>
			
    
		</rdf:RDF>
		
  
	</metadata>
	
  
	<g id="layer1" transform="translate(-19.638666,-426.18737)">
		
    
		<g id="g15893" transform="matrix(7.1112654,0,0,7.1112654,-2373.3117,-3319.3669)">
			
      
			
			
      
			
			
      
			
			
      
			
			
      
			
			
      
			
			
      
			
			
      
			
			
      
			
			
      
			
			
      
			
			
      
			
			
      
			
			
      
			
			
      
			
			
      
			
			
      
			
			
      
			
			
      
			
			
      
			
			
      
			
			
      
			<path animation_id="21" d="m 401.90196,564.19448 0,-1.17188 0.46386,0 c 0.21973,0 0.36621,0.0488 0.46386,0.12208 0.0976,0.0977 0.14649,0.24414 0.14649,0.46386 0,0.21973 -0.0489,0.36621 -0.14649,0.46387 -0.0976,0.0732 -0.24413,0.12207 -0.46386,0.12207 l -0.46386,0 z m 0.29296,0.83007 c 0.1709,0 0.31739,0.0488 0.41504,0.12208 0.12212,0.0732 0.21972,0.24414 0.31739,0.46386 l 0.51268,1.14747 1.12305,0 -0.56152,-1.29395 c -0.122,-0.26855 -0.24414,-0.46387 -0.36621,-0.61035 -0.0976,-0.12208 -0.24414,-0.19531 -0.39063,-0.24414 0.26856,-0.0977 0.46388,-0.24414 0.61036,-0.43945 0.122,-0.19532 0.19532,-0.43946 0.19532,-0.73243 0,-0.43945 -0.12213,-0.75683 -0.39063,-0.97656 -0.24415,-0.19531 -0.65919,-0.29297 -1.1963,-0.29297 l -1.63574,0 0,4.58985 1.07423,0 0,-1.7334 0.29296,0 z m 0,0" id="path14541" stroke="black" style="fill:#00abee;fill-opacity:1;fill-rule:nonzero;"/>
			
      
			
			
      
			
			
      
			
			
      
			
			
      
			
			
      
			
			
      
			
			
      
			
			
      
			
			
    
		</g>
		
  
	</g>
	

</svg>