<?xml version="1.0" encoding="iso-8859-1"?><!-- Created with Inkscape (http://www.inkscape.org/) --><svg height="289.13385" id="svg15818" version="1.1" width="715.74799" xmlns="http://www.w3.org/2000/svg" xmlns:cc="http://creativecommons.org/ns#" xmlns:dc="http://purl.org/dc/elements/1.1/" xmlns:rdf="http://www.w3.org/1999/02/22-rdf-syntax-ns#" xmlns:svg="http://www.w3.org/2000/svg">
	
  
	<defs id="defs15820"/>
	
  
	<metadata id="metadata15823">
		
    
		<rdf:RDF>
			
      
			<cc:Work rdf:about="">
				
        
				<dc:format>image/svg+xml</dc:format>
				
        
				<dc:type rdf:resource="http://purl.org/dc/dcmitype/StillImage"/>
				
        
				<dc:title/>
				
      
			</cc:Work>
			
    
		</rdf:RDF>
		
  
	</metadata>
	
  
	<g id="layer1" transform="translate(-19.638666,-426.18737)">
		
    
		<g id="g15893" transform="matrix(7.1112654,0,0,7.1112654,-2373.3117,-3319.3669)">
			
      
			
			
      
			
			
      
			
			
      
			
			
      
			
			
      
			
			
      
			
			
      
			
			
      
			
			
      
			
			
      
			
			
      
			
			
      
			
			
      
			
			
      
			<path animation_id="14" d="m 371.53086,562.14369 c -0.24414,-0.0488 -0.48828,-0.0488 -0.70801,-0.0488 -0.51269,0 -0.8789,0.12208 -1.14745,0.36622 -0.26857,0.24414 -0.39063,0.58593 -0.39063,1.0498 0,0.36621 0.0733,0.65918 0.26855,0.85449 0.19531,0.21973 0.5127,0.39063 0.90333,0.48828 l 0.41503,0.0977 c 0.26855,0.0488 0.43945,0.12208 0.51269,0.19531 0.0733,0.0977 0.12213,0.19532 0.12213,0.3418 0,0.1709 -0.0489,0.29297 -0.19532,0.36621 -0.12212,0.0977 -0.29297,0.14649 -0.5127,0.14649 -0.24413,0 -0.46386,-0.0488 -0.708,-0.12208 -0.26856,-0.0732 -0.5127,-0.19531 -0.78125,-0.36621 l 0,1.00098 c 0.26855,0.12207 0.5371,0.19531 0.80567,0.24414 0.24413,0.0732 0.51268,0.0977 0.78125,0.0977 0.56152,0 0.97656,-0.14649 1.24511,-0.39063 0.26856,-0.24414 0.39062,-0.61035 0.39062,-1.12304 0,-0.39063 -0.0976,-0.6836 -0.29296,-0.87891 -0.19531,-0.21973 -0.5127,-0.36621 -0.97656,-0.48828 l -0.46388,-0.0977 c -0.21972,-0.0488 -0.36621,-0.0976 -0.43945,-0.1709 -0.0733,-0.0732 -0.12212,-0.1709 -0.12212,-0.29297 0,-0.14648 0.0732,-0.26855 0.1709,-0.34179 0.14649,-0.0977 0.31739,-0.12208 0.58594,-0.12208 0.19531,0 0.39062,0.0244 0.61035,0.0732 0.21973,0.0732 0.43946,0.14648 0.65918,0.26855 l 0,-0.97656 c -0.26856,-0.0732 -0.5127,-0.14648 -0.73242,-0.1709 z m 0,0" id="path14527" stroke="black" style="fill:#211e1e;fill-opacity:1;fill-rule:nonzero;"/>
			
      
			
			
      
			
			
      
			
			
      
			
			
      
			
			
      
			
			
      
			
			
      
			
			
      
			
			
      
			
			
      
			
			
      
			
			
      
			
			
      
			
			
      
			
			
      
			
			
    
		</g>
		
  
	</g>
	

</svg>