<?xml version="1.0" encoding="iso-8859-1"?><!-- Created with Inkscape (http://www.inkscape.org/) --><svg height="289.13385" id="svg15818" version="1.1" width="715.74799" xmlns="http://www.w3.org/2000/svg" xmlns:cc="http://creativecommons.org/ns#" xmlns:dc="http://purl.org/dc/elements/1.1/" xmlns:rdf="http://www.w3.org/1999/02/22-rdf-syntax-ns#" xmlns:svg="http://www.w3.org/2000/svg">
	
  
	<defs id="defs15820"/>
	
  
	<metadata id="metadata15823">
		
    
		<rdf:RDF>
			
      
			<cc:Work rdf:about="">
				
        
				<dc:format>image/svg+xml</dc:format>
				
        
				<dc:type rdf:resource="http://purl.org/dc/dcmitype/StillImage"/>
				
        
				<dc:title/>
				
      
			</cc:Work>
			
    
		</rdf:RDF>
		
  
	</metadata>
	
  
	<g id="layer1" transform="translate(-19.638666,-426.18737)">
		
    
		<g id="g15893" transform="matrix(7.1112654,0,0,7.1112654,-2373.3117,-3319.3669)">
			
      
			
			
      
			
			
      
			
			
      
			
			
      
			
			
      
			
			
      
			
			
      
			
			
      
			
			
      
			
			
      
			
			
      
			
			
      
			
			
      
			
			
      
			
			
      
			
			
      
			
			
      
			
			
      
			
			
      
			
			
      
			
			
      
			
			
      
			<path animation_id="22" d="m 408.89902,562.14369 c -0.19531,-0.0488 -0.39062,-0.0488 -0.58594,-0.0488 -0.46386,0 -0.80566,0.0977 -1.07421,0.3418 -0.24415,0.24414 -0.39062,0.53711 -0.39062,0.95215 0,0.3418 0.0976,0.63477 0.29296,0.83008 0.19531,0.19531 0.48829,0.3418 0.90332,0.43945 l 0.3418,0.0732 c 0.29297,0.0488 0.48828,0.14649 0.61035,0.26856 0.122,0.12207 0.19532,0.31738 0.19532,0.53711 0,0.26855 -0.0976,0.46386 -0.26857,0.58593 -0.1709,0.14649 -0.41503,0.21973 -0.73241,0.21973 -0.21974,0 -0.43946,-0.0488 -0.65919,-0.0977 -0.19531,-0.0977 -0.43945,-0.19531 -0.65917,-0.3418 l 0,0.65918 c 0.24414,0.0977 0.46386,0.1709 0.68359,0.21973 0.21972,0.0488 0.43946,0.0732 0.63477,0.0732 0.51269,0 0.90331,-0.12208 1.17188,-0.36621 0.26855,-0.21973 0.39062,-0.56153 0.39062,-1.00098 0,-0.36621 -0.0976,-0.65918 -0.29297,-0.87891 -0.19532,-0.24414 -0.48828,-0.39062 -0.90333,-0.48828 l -0.34179,-0.0732 c -0.31738,-0.0488 -0.5127,-0.14648 -0.63477,-0.24414 -0.0976,-0.0977 -0.17089,-0.26855 -0.17089,-0.46386 0,-0.24415 0.0976,-0.41504 0.26855,-0.56153 0.14649,-0.12207 0.39063,-0.19531 0.68359,-0.19531 0.1709,0 0.36621,0.0244 0.56152,0.0977 0.1709,0.0488 0.39063,0.12207 0.58594,0.24414 l 0,-0.61035 c -0.19531,-0.0732 -0.41504,-0.14649 -0.61035,-0.1709 z m 0,0" id="path14543" stroke="black" style="fill:#211e1e;fill-opacity:1;fill-rule:nonzero;"/>
			
      
			
			
      
			
			
      
			
			
      
			
			
      
			
			
      
			
			
      
			
			
      
			
			
    
		</g>
		
  
	</g>
	

</svg>