<?xml version="1.0" encoding="iso-8859-1"?><!-- Created with Inkscape (http://www.inkscape.org/) --><svg height="289.13385" id="svg15818" version="1.1" width="715.74799" xmlns="http://www.w3.org/2000/svg" xmlns:cc="http://creativecommons.org/ns#" xmlns:dc="http://purl.org/dc/elements/1.1/" xmlns:rdf="http://www.w3.org/1999/02/22-rdf-syntax-ns#" xmlns:svg="http://www.w3.org/2000/svg">
	
  
	<defs id="defs15820"/>
	
  
	<metadata id="metadata15823">
		
    
		<rdf:RDF>
			
      
			<cc:Work rdf:about="">
				
        
				<dc:format>image/svg+xml</dc:format>
				
        
				<dc:type rdf:resource="http://purl.org/dc/dcmitype/StillImage"/>
				
        
				<dc:title/>
				
      
			</cc:Work>
			
    
		</rdf:RDF>
		
  
	</metadata>
	
  
	<g id="layer1" transform="translate(-19.638666,-426.18737)">
		
    
		<g id="g15893" transform="matrix(7.1112654,0,0,7.1112654,-2373.3117,-3319.3669)">
			
      
			
			
      
			
			
      
			
			
      
			
			
      
			
			
      
			
			
      
			
			
      
			
			
      
			
			
      
			
			
      
			
			
      
			
			
      
			
			
      
			
			
      
			
			
      
			
			
      
			
			
      
			
			
      
			
			
      
			
			
      
			
			
      
			
			
      
			
			
      
			
			
      
			
			
      
			
			
      
			
			
      
			
			
      
			
			
      
			<path animation_id="29" d="m 428.83555,563.58412 c -0.1709,-0.24414 -0.43945,-0.34179 -0.80567,-0.34179 -0.19531,0 -0.39062,0.0488 -0.56152,0.14648 -0.1709,0.0976 -0.31739,0.24414 -0.43945,0.46387 l 0,-0.53711 -0.5127,0 0,3.44238 0.5127,0 0,-1.95312 c 0,-0.3418 0.0976,-0.58594 0.24414,-0.78125 0.1709,-0.19532 0.36621,-0.29297 0.65917,-0.29297 0.21974,0 0.39063,0.0732 0.5127,0.24414 0.0976,0.14648 0.1709,0.39062 0.1709,0.73242 l 0,2.05078 0.5127,0 0,-2.07519 c 0,-0.48828 -0.0976,-0.83008 -0.29297,-1.09864 z m 0,0" id="path14557" stroke="black" style="fill:#211e1e;fill-opacity:1;fill-rule:nonzero;"/>
			
      
			
			
    
		</g>
		
  
	</g>
	

</svg>