<?xml version="1.0" encoding="iso-8859-1"?><!-- Generator: Adobe Illustrator 16.0.4, SVG Export Plug-In . SVG Version: 6.00 Build 0)  --><!DOCTYPE svg  PUBLIC '-//W3C//DTD SVG 1.1//EN'  'http://www.w3.org/Graphics/SVG/1.1/DTD/svg11.dtd'><svg enable-background="new 0 0 283.453 56.693" height="56.693px" version="1.1" viewBox="0 0 283.453 56.693" width="283.453px" x="0px" xml:space="preserve" xmlns="http://www.w3.org/2000/svg" xmlns:xlink="http://www.w3.org/1999/xlink" y="0px">
	

	<g id="Boundingbox">
</g>
	

	<g id="Logo">
		
	
		<g>
			
		
			<g>
				
			
				<g>
					
				
					<g>
						
					
						
						
					
						
						
					
						
						
				
					</g>
					
				
					
					
				
					<g>
						
					
						
						
					
						
						
					
						
						
					
						
						
					
						
						
					
						
						
				
					</g>
					
			
				</g>
				
		
			</g>
			
		
			<g>
				
			
				
				
			
				<g>
					
				
					
					
				
					
					
				
					
					
			
				</g>
				
			
				<g>
					
				
					<path animation_id="13" d="M33.922,9.523l-2.204,5.356v1.83c-0.88-0.346-2.032-0.733-2.58-0.911l-0.689-3.286l-8.296-1.822L18.434,14.5      c-1.107,0.105-3.045,0.44-3.053,0.44l0.002-2.865l-0.697-0.479c0,0,0.365-0.404,0.457-0.576      c0.232-0.435,0.241-0.867,0.241-1.077c0-1.694-2.012-2.541-2.012-2.541l-0.263-0.886V6.209c0.36-0.266,0.919-0.482,1.733-0.493      c1.481-0.014,1.536,0.302,2.625,0.487c2.109,0.36,3.302-1.282,3.302-1.282s-2.131,0.761-3.258,0.142      c-0.88-0.487-1.603-1.138-2.97-1.122c-1.226,0.017-1.816,0.582-1.816,0.582v1.999l-0.269,0.88c0,0-2.015,0.847-2.015,2.541      c0,0.21,0.008,0.643,0.241,1.077c0.091,0.171,0.459,0.576,0.459,0.576l-0.7,0.479l-0.003,4.227      c-0.839,0.346-1.741,0.789-2.378,1.11v-1.365l0.532-0.866v-2.652l-0.914-0.05L5.957,8.202l-1.655,4.283l-0.914,0.053v2.649      l0.542,0.867v5.664h1.124v-5.985l-0.545-0.869v-1.268l0.579-0.036l0.889-2.301l0.922,2.298l0.57,0.033v1.273l-0.532,0.872v3.546      c0.147-0.086,2.361-1.351,4.626-2.209l0.002-4.551c0,0,0.465-0.333,0.604-0.496c0.097-0.125,0.083-0.21,0.083-0.454      c0-0.279-0.141-0.44-0.379-0.667c-0.271-0.282-0.359-0.592-0.359-0.966c0-1.013,1.4-1.686,1.4-1.686s1.393,0.672,1.393,1.686      c0,0.374-0.086,0.684-0.357,0.966c-0.238,0.227-0.379,0.388-0.379,0.667c0,0.244-0.014,0.33,0.083,0.454      c0.138,0.163,0.604,0.496,0.604,0.496l-0.003,3.773c0,0,2.198-0.493,4.93-0.733l1.617-3.577l6.696,1.467l0.673,3.219      c1.193,0.34,3.504,1.141,4.675,1.658v-3.225l1.088-2.655l1.11,2.655v6.608h1.121v-6.837L33.922,9.523z" stroke="black"/>
					
				
					
					
			
				</g>
				
			
				
				
		
			</g>
			
	
		</g>
		

	</g>
	

</svg>