<?xml version="1.0" encoding="iso-8859-1"?><!-- Generator: Adobe Illustrator 16.0.4, SVG Export Plug-In . SVG Version: 6.00 Build 0)  --><!DOCTYPE svg  PUBLIC '-//W3C//DTD SVG 1.1//EN'  'http://www.w3.org/Graphics/SVG/1.1/DTD/svg11.dtd'><svg enable-background="new 0 0 283.453 56.693" height="56.693px" version="1.1" viewBox="0 0 283.453 56.693" width="283.453px" x="0px" xml:space="preserve" xmlns="http://www.w3.org/2000/svg" xmlns:xlink="http://www.w3.org/1999/xlink" y="0px">
	

	<g id="Boundingbox">
</g>
	

	<g id="Logo">
		
	
		<g>
			
		
			<g>
				
			
				<g>
					
				
					<g>
						
					
						
						
					
						
						
					
						
						
				
					</g>
					
				
					
					
				
					<g>
						
					
						
						
					
						
						
					
						
						
					
						
						
					
						
						
					
						
						
				
					</g>
					
			
				</g>
				
		
			</g>
			
		
			<g>
				
			
				
				
			
				<g>
					
				
					
					
				
					
					
				
					<path animation_id="12" d="M33.504,27.489l2.12-2.292c0.149-0.146,0.349-0.332,0.618-0.39l0.418-0.072v-1.52h-4.078v1.545l0.564,0.047l-3.12,3.294      v-2.874c0-0.274,0.127-0.421,0.371-0.435l0.398-0.033v-1.545h-4.401v1.578l0.872,0.061v7.045c0,0.279-0.127,0.423-0.371,0.438      l-0.501,0.066v1.53h4.224v-1.563l-0.592-0.048v-1.348l1.564-1.603l1.312,2.547c0.114,0.213,0.114,0.37-0.146,0.418l-0.501,0.066      v1.53h4.853v-1.58l-1.138-0.131L33.504,27.489z" stroke="black"/>
					
			
				</g>
				
			
				<g>
					
				
					
					
				
					
					
			
				</g>
				
			
				
				
		
			</g>
			
	
		</g>
		

	</g>
	

</svg>