<?xml version="1.0" encoding="iso-8859-1"?><!-- Generator: Adobe Illustrator 16.0.4, SVG Export Plug-In . SVG Version: 6.00 Build 0)  --><!DOCTYPE svg  PUBLIC '-//W3C//DTD SVG 1.1//EN'  'http://www.w3.org/Graphics/SVG/1.1/DTD/svg11.dtd'><svg enable-background="new 0 0 283.453 56.693" height="56.693px" version="1.1" viewBox="0 0 283.453 56.693" width="283.453px" x="0px" xml:space="preserve" xmlns="http://www.w3.org/2000/svg" xmlns:xlink="http://www.w3.org/1999/xlink" y="0px">
	

	<g id="Boundingbox">
</g>
	

	<g id="Logo">
		
	
		<g>
			
		
			<g>
				
			
				<g>
					
				
					<g>
						
					
						
						
					
						
						
					
						
						
				
					</g>
					
				
					
					
				
					<g>
						
					
						
						
					
						
						
					
						
						
					
						
						
					
						
						
					
						
						
				
					</g>
					
			
				</g>
				
		
			</g>
			
		
			<g>
				
			
				<path animation_id="9" d="M19.992,56.561l-0.51-0.261c-1.182-0.603-5.356-2.843-9.517-6.469     c-4.481-3.908-9.824-10.256-9.824-18.312c0-1.057-0.008-22.436-0.014-25.55V5.285l0.606-0.318     c7.217-3.817,18.06-4.839,19.261-4.839c2.035,0,12.382,1.262,19.148,4.839l0.606,0.318v0.684c0,1.966-0.006,11.223-0.011,18.041     l-0.003,7.51c0,8.184-5.312,14.525-9.769,18.403c-4.108,3.58-8.28,5.789-9.462,6.381L19.992,56.561z" fill="#FDD319" stroke="black"/>
				
			
				<g>
					
				
					
					
				
					
					
				
					
					
			
				</g>
				
			
				<g>
					
				
					
					
				
					
					
			
				</g>
				
			
				
				
		
			</g>
			
	
		</g>
		

	</g>
	

</svg>