<?xml version="1.0" encoding="iso-8859-1"?><!-- Generator: Adobe Illustrator 16.0.4, SVG Export Plug-In . SVG Version: 6.00 Build 0)  --><!DOCTYPE svg  PUBLIC '-//W3C//DTD SVG 1.1//EN'  'http://www.w3.org/Graphics/SVG/1.1/DTD/svg11.dtd'><svg enable-background="new 0 0 283.453 56.693" height="56.693px" version="1.1" viewBox="0 0 283.453 56.693" width="283.453px" x="0px" xml:space="preserve" xmlns="http://www.w3.org/2000/svg" xmlns:xlink="http://www.w3.org/1999/xlink" y="0px">
	

	<g id="Boundingbox">
</g>
	

	<g id="Logo">
		
	
		<g>
			
		
			<g>
				
			
				<g>
					
				
					<g>
						
					
						<path animation_id="0" d="M52.776,19.076l-1.94-0.15v-3.593H61.16v3.518l-1.168,0.111c-0.62,0.114-0.88,0.222-0.88,1.069v5.088h7.95V19.04       l-1.794-0.149v-3.557h10.11v3.485l-1.097,0.108c-0.697,0.114-0.88,0.258-0.88,1.135V35.96l1.904,0.148v3.594H65.013v-3.521       l1.173-0.105c0.687-0.115,0.875-0.296,0.875-1.174v-5.314h-7.95v6.411l1.904,0.147v3.557H50.797V36.22l1.096-0.111       c0.7-0.11,0.883-0.29,0.883-1.174V19.076z" stroke="black"/>
						
					
						
						
					
						
						
				
					</g>
					
				
					
					
				
					<g>
						
					
						
						
					
						
						
					
						
						
					
						
						
					
						
						
					
						
						
				
					</g>
					
			
				</g>
				
		
			</g>
			
		
			<g>
				
			
				
				
			
				<g>
					
				
					
					
				
					
					
				
					
					
			
				</g>
				
			
				<g>
					
				
					
					
				
					
					
			
				</g>
				
			
				
				
		
			</g>
			
	
		</g>
		

	</g>
	

</svg>