<?xml version="1.0" encoding="iso-8859-1"?><!-- Generator: Adobe Illustrator 16.0.4, SVG Export Plug-In . SVG Version: 6.00 Build 0)  --><!DOCTYPE svg  PUBLIC '-//W3C//DTD SVG 1.1//EN'  'http://www.w3.org/Graphics/SVG/1.1/DTD/svg11.dtd'><svg enable-background="new 0 0 283.453 56.693" height="56.693px" version="1.1" viewBox="0 0 283.453 56.693" width="283.453px" x="0px" xml:space="preserve" xmlns="http://www.w3.org/2000/svg" xmlns:xlink="http://www.w3.org/1999/xlink" y="0px">
	

	<g id="Boundingbox">
</g>
	

	<g id="Logo">
		
	
		<g>
			
		
			<g>
				
			
				<g>
					
				
					<g>
						
					
						
						
					
						
						
					
						
						
				
					</g>
					
				
					
					
				
					<g>
						
					
						
						
					
						
						
					
						
						
					
						
						
					
						
						
					
						
						
				
					</g>
					
			
				</g>
				
		
			</g>
			
		
			<g>
				
			
				
				
			
				<g>
					
				
					<path animation_id="10" d="M3.939,24.856l-0.855-0.063v-1.578h4.548v1.545l-0.515,0.047c-0.277,0.05-0.391,0.1-0.391,0.468v2.242h3.499v-2.677      l-0.789-0.063v-1.562h4.451v1.531l-0.484,0.047c-0.305,0.047-0.385,0.113-0.385,0.498v6.998l0.836,0.064v1.583H9.323v-1.55      l0.518-0.05c0.305-0.048,0.385-0.13,0.385-0.513v-2.339H6.727v2.821l0.836,0.063v1.566H3.067v-1.533l0.485-0.05      c0.307-0.047,0.387-0.131,0.387-0.516V24.856z" stroke="black"/>
					
				
					
					
				
					
					
			
				</g>
				
			
				<g>
					
				
					
					
				
					
					
			
				</g>
				
			
				
				
		
			</g>
			
	
		</g>
		

	</g>
	

</svg>