<?xml version="1.0" encoding="iso-8859-1"?><!-- Generator: Adobe Illustrator 16.0.4, SVG Export Plug-In . SVG Version: 6.00 Build 0)  --><!DOCTYPE svg  PUBLIC '-//W3C//DTD SVG 1.1//EN'  'http://www.w3.org/Graphics/SVG/1.1/DTD/svg11.dtd'><svg enable-background="new 0 0 283.453 56.693" height="56.693px" version="1.1" viewBox="0 0 283.453 56.693" width="283.453px" x="0px" xml:space="preserve" xmlns="http://www.w3.org/2000/svg" xmlns:xlink="http://www.w3.org/1999/xlink" y="0px">
	

	<g id="Boundingbox">
</g>
	

	<g id="Logo">
		
	
		<g>
			
		
			<g>
				
			
				<g>
					
				
					<g>
						
					
						
						
					
						
						
					
						
						
				
					</g>
					
				
					
					
				
					<g>
						
					
						
						
					
						
						
					
						
						
					
						
						
					
						
						
					
						
						
				
					</g>
					
			
				</g>
				
		
			</g>
			
		
			<g>
				
			
				
				
			
				<g>
					
				
					
					
				
					<path animation_id="11" d="M24.681,30.628c0,2.178-1.932,3.516-4.448,3.516c-2.821,0-4.509-1.144-4.509-3.74v-5.547l-0.858-0.063v-1.578h4.548      v1.545l-0.529,0.047c-0.274,0.05-0.388,0.1-0.388,0.468v5.223c0,1.291,0.897,1.664,1.913,1.664c0.969,0,1.741-0.501,1.741-1.598      v-5.724l-0.761-0.063v-1.562h4.18v1.531l-0.484,0.047c-0.304,0.047-0.404,0.113-0.404,0.481V30.628z" stroke="black"/>
					
				
					
					
			
				</g>
				
			
				<g>
					
				
					
					
				
					
					
			
				</g>
				
			
				
				
		
			</g>
			
	
		</g>
		

	</g>
	

</svg>