<?xml version="1.0" encoding="iso-8859-1"?><!-- Generator: Adobe Illustrator 16.0.4, SVG Export Plug-In . SVG Version: 6.00 Build 0)  --><!DOCTYPE svg  PUBLIC '-//W3C//DTD SVG 1.1//EN'  'http://www.w3.org/Graphics/SVG/1.1/DTD/svg11.dtd'><svg enable-background="new 0 0 283.453 56.693" height="56.693px" version="1.1" viewBox="0 0 283.453 56.693" width="283.453px" x="0px" xml:space="preserve" xmlns="http://www.w3.org/2000/svg" xmlns:xlink="http://www.w3.org/1999/xlink" y="0px">
	

	<g id="Boundingbox">
</g>
	

	<g id="Logo">
		
	
		<g>
			
		
			<g>
				
			
				<g>
					
				
					<g>
						
					
						
						
					
						
						
					
						
						
				
					</g>
					
				
					
					
				
					<g>
						
					
						
						
					
						
						
					
						
						
					
						
						
					
						
						
					
						
						
				
					</g>
					
			
				</g>
				
		
			</g>
			
		
			<g>
				
			
				
				
			
				<g>
					
				
					
					
				
					
					
				
					
					
			
				</g>
				
			
				<g>
					
				
					
					
				
					
					
			
				</g>
				
			
				<path animation_id="15" d="M38.6,31.519c0,7.749-5.094,13.819-9.379,17.551c-4.047,3.524-8.149,5.681-9.224,6.221     c-1.077-0.548-5.207-2.758-9.288-6.312c-4.304-3.754-9.434-9.83-9.434-17.46c0-1.06-0.011-22.438-0.014-25.55     c7.015-3.709,17.545-4.706,18.732-4.706c1.747,0,12.039,1.229,18.619,4.706C38.614,9.08,38.6,30.459,38.6,31.519L38.6,31.519z      M19.995,0.003C14.799,0.141,5.146,2.256,0,5.213c0,0.96,0.014,25.165,0.014,26.306c0,3.597,1.046,7.154,3.117,10.584     c1.633,2.718,3.917,5.359,6.776,7.848c4.845,4.222,9.614,6.519,9.813,6.613l0.271,0.13l0.271-0.127     c0.199-0.092,4.944-2.331,9.764-6.53c2.846-2.467,5.113-5.107,6.746-7.838c2.051-3.438,3.092-7.031,3.092-10.68     c0-1.141,0.014-25.904,0.014-26.306C34.583,2.084,24.521,0.141,19.995,0.003z" stroke="black"/>
				
		
			</g>
			
	
		</g>
		

	</g>
	

</svg>