<?xml version="1.0" encoding="iso-8859-1"?><!-- Generator: Adobe Illustrator 16.0.4, SVG Export Plug-In . SVG Version: 6.00 Build 0)  --><!DOCTYPE svg  PUBLIC '-//W3C//DTD SVG 1.1//EN'  'http://www.w3.org/Graphics/SVG/1.1/DTD/svg11.dtd'><svg enable-background="new 0 0 283.453 56.693" height="56.693px" version="1.1" viewBox="0 0 283.453 56.693" width="283.453px" x="0px" xml:space="preserve" xmlns="http://www.w3.org/2000/svg" xmlns:xlink="http://www.w3.org/1999/xlink" y="0px">
	

	<g id="Boundingbox">
</g>
	

	<g id="Logo">
		
	
		<g>
			
		
			<g>
				
			
				<g>
					
				
					<g>
						
					
						
						
					
						
						
					
						
						
				
					</g>
					
				
					
					
				
					<g>
						
					
						
						
					
						<path animation_id="4" d="M153.967,19.693c-3.664,0-5.902,2.453-5.902,7.588c0,4.512,1.711,7.897,6.053,7.956       c1.445,0.016,2.596-0.197,2.596-0.197l0.193-3.394h4.43v7.188c-1.955,0.731-4.656,1.315-7.584,1.315       c-7.631,0-11.953-4.252-11.953-12.465c0-9.642,5.934-12.867,11.803-12.867c2.896,0,5.752,0.62,7.623,1.539v6.146l-4.428,0.601       l-0.195-2.165c0-0.548-0.033-0.841-0.508-0.988C155.395,19.765,154.555,19.693,153.967,19.693L153.967,19.693z" stroke="black"/>
						
					
						
						
					
						
						
					
						
						
					
						
						
				
					</g>
					
			
				</g>
				
		
			</g>
			
		
			<g>
				
			
				
				
			
				<g>
					
				
					
					
				
					
					
				
					
					
			
				</g>
				
			
				<g>
					
				
					
					
				
					
					
			
				</g>
				
			
				
				
		
			</g>
			
	
		</g>
		

	</g>
	

</svg>