<?xml version="1.0" encoding="iso-8859-1"?><!-- Generator: Adobe Illustrator 16.0.4, SVG Export Plug-In . SVG Version: 6.00 Build 0)  --><!DOCTYPE svg  PUBLIC '-//W3C//DTD SVG 1.1//EN'  'http://www.w3.org/Graphics/SVG/1.1/DTD/svg11.dtd'><svg enable-background="new 0 0 283.453 56.693" height="56.693px" version="1.1" viewBox="0 0 283.453 56.693" width="283.453px" x="0px" xml:space="preserve" xmlns="http://www.w3.org/2000/svg" xmlns:xlink="http://www.w3.org/1999/xlink" y="0px">
	

	<g id="Boundingbox">
</g>
	

	<g id="Logo">
		
	
		<g>
			
		
			<g>
				
			
				<g>
					
				
					<g>
						
					
						
						
					
						
						
					
						
						
				
					</g>
					
				
					
					
				
					<g>
						
					
						
						
					
						
						
					
						
						
					
						
						
					
						<path animation_id="7" d="M232.84,32.175c0,4.953-3.998,7.995-9.711,7.995c-6.424,0-9.756-2.6-9.756-8.507V19.051l-1.938-0.147v-3.59h10.336       v3.519l-1.25,0.111c-0.621,0.108-0.875,0.218-0.875,1.062v11.879c0,2.931,1.572,3.772,3.881,3.772       c2.203,0,3.555-1.132,3.555-3.626V19.015l-1.723-0.149v-3.552h9.5v3.482l-1.107,0.108c-0.691,0.111-0.912,0.257-0.912,1.102       V32.175z" stroke="black"/>
						
					
						
						
				
					</g>
					
			
				</g>
				
		
			</g>
			
		
			<g>
				
			
				
				
			
				<g>
					
				
					
					
				
					
					
				
					
					
			
				</g>
				
			
				<g>
					
				
					
					
				
					
					
			
				</g>
				
			
				
				
		
			</g>
			
	
		</g>
		

	</g>
	

</svg>