<?xml version="1.0" encoding="iso-8859-1"?><!-- Generator: Adobe Illustrator 16.0.4, SVG Export Plug-In . SVG Version: 6.00 Build 0)  --><!DOCTYPE svg  PUBLIC '-//W3C//DTD SVG 1.1//EN'  'http://www.w3.org/Graphics/SVG/1.1/DTD/svg11.dtd'><svg enable-background="new 0 0 283.453 56.693" height="56.693px" version="1.1" viewBox="0 0 283.453 56.693" width="283.453px" x="0px" xml:space="preserve" xmlns="http://www.w3.org/2000/svg" xmlns:xlink="http://www.w3.org/1999/xlink" y="0px">
	

	<g id="Boundingbox">
</g>
	

	<g id="Logo">
		
	
		<g>
			
		
			<g>
				
			
				<g>
					
				
					<g>
						
					
						
						
					
						
						
					
						
						
				
					</g>
					
				
					
					
				
					<g>
						
					
						
						
					
						
						
					
						
						
					
						<path animation_id="6" d="M196.742,34.972h2.275c2.674,0,3.625-1.083,3.625-3.137c0-2.055-1.244-3.17-3.559-3.17h-2.342V34.972z M196.742,24.707       h1.688c2.305,0,3.301-1.174,3.301-3.076c0-1.949-1.174-2.715-3.189-2.715h-1.799V24.707z M199.896,15.314       c4.441,0,8.244,1.315,8.244,5.833c0,2.671-1.5,4.54-3.697,5.42c2.967,0.623,4.904,2.713,4.904,5.647       c0,4.878-3.477,7.477-9.926,7.477h-10.963v-3.479l1.186-0.114c0.697-0.108,0.842-0.294,0.842-1.171V19.054l-1.994-0.149v-3.59       H199.896z" stroke="black"/>
						
					
						
						
					
						
						
				
					</g>
					
			
				</g>
				
		
			</g>
			
		
			<g>
				
			
				
				
			
				<g>
					
				
					
					
				
					
					
				
					
					
			
				</g>
				
			
				<g>
					
				
					
					
				
					
					
			
				</g>
				
			
				
				
		
			</g>
			
	
		</g>
		

	</g>
	

</svg>