<?xml version="1.0" encoding="iso-8859-1"?><!-- Generator: Adobe Illustrator 16.0.4, SVG Export Plug-In . SVG Version: 6.00 Build 0)  --><!DOCTYPE svg  PUBLIC '-//W3C//DTD SVG 1.1//EN'  'http://www.w3.org/Graphics/SVG/1.1/DTD/svg11.dtd'><svg enable-background="new 0 0 283.453 56.693" height="56.693px" version="1.1" viewBox="0 0 283.453 56.693" width="283.453px" x="0px" xml:space="preserve" xmlns="http://www.w3.org/2000/svg" xmlns:xlink="http://www.w3.org/1999/xlink" y="0px">
	

	<g id="Boundingbox">
</g>
	

	<g id="Logo">
		
	
		<g>
			
		
			<g>
				
			
				<g>
					
				
					<g>
						
					
						
						
					
						
						
					
						
						
				
					</g>
					
				
					
					
				
					<g>
						
					
						
						
					
						
						
					
						
						
					
						
						
					
						
						
					
						<path animation_id="8" d="M275.803,34.968v-3.982l-2.238-0.146v-3.558h9.9v3.485l-0.953,0.11c-0.619,0.108-0.879,0.332-0.879,1.024v6.482       c-2.016,0.983-5.355,1.747-8.98,1.747c-7.037,0-11.479-4.104-11.479-12.573c0-9.456,6.053-12.723,12.354-12.723       c3.084,0,6.09,0.695,7.811,1.578v6.115l-4.523,0.501l-0.094-2.068c0-0.551-0.076-0.847-0.553-0.991       c-0.693-0.147-1.572-0.219-2.414-0.219c-4.324,0-6.318,3.078-6.318,7.59c0,5.091,1.734,8.025,5.398,8.025       C273.826,35.367,274.922,35.301,275.803,34.968L275.803,34.968z" stroke="black"/>
						
				
					</g>
					
			
				</g>
				
		
			</g>
			
		
			<g>
				
			
				
				
			
				<g>
					
				
					
					
				
					
					
				
					
					
			
				</g>
				
			
				<g>
					
				
					
					
				
					
					
			
				</g>
				
			
				
				
		
			</g>
			
	
		</g>
		

	</g>
	

</svg>