<?xml version="1.0" encoding="iso-8859-1"?><!-- Created with Inkscape (http://www.inkscape.org/) --><svg height="152" id="svg2" version="1.0" viewBox="-0.424 -0.928 543 152" width="543" xml:space="preserve" xmlns="http://www.w3.org/2000/svg" xmlns:svg="http://www.w3.org/2000/svg">
	
	
	<defs id="defs4">
	</defs>
	
	
	<g id="g6">
		
		
		
		
		
		
		
		
		
		
		
		<path animation_id="3" d="M 222.8,72.769 L 222.827,134.949 C 222.827,142.92 229.875,149.592 237.846,149.592 C 245.824,149.592 253.863,142.982 254.129,135.524 L 254.129,73.555 C 254.129,69.009 256.597,65.892 261.136,65.892 C 265.675,65.892 267.801,69.194 267.801,73.74 L 267.835,135.523 C 268.122,142.885 274.972,149.673 282.942,149.673 C 290.92,149.673 299.116,143.028 299.184,135.523 L 299.184,59.274 C 299.184,59.274 299.102,37.324 275.012,37.324 C 275.012,37.324 257.861,36.784 252.624,51.782 C 252.624,51.782 252.323,51.153 251.66,49.902 C 248.543,43.21 242.869,37.324 230.687,37.324 C 230.687,37.324 215.921,36.015 210.377,49.861 C 210.377,49.861 209.646,48.077 208.989,46.829 C 207.044,41.152 201.011,36.63 194.681,36.63 C 185.329,36.63 179.598,43.862 179.598,51.837 L 179.598,135.523 C 179.598,143.507 186.94,149.591 194.914,149.591 C 202.895,149.591 210.049,142.345 210.322,135.523 L 210.322,73.616 C 210.459,69.296 211.983,65.898 216.522,65.898 C 221.061,65.898 222.869,69.453 222.8,72.769" id="path14" stroke="black" style="fill:#17469d"/>
		
		
		
		
		
		
		
	
	</g>
	

</svg>