<?xml version="1.0" encoding="iso-8859-1"?><!-- Created with Inkscape (http://www.inkscape.org/) --><svg height="152" id="svg2" version="1.0" viewBox="-0.424 -0.928 543 152" width="543" xml:space="preserve" xmlns="http://www.w3.org/2000/svg" xmlns:svg="http://www.w3.org/2000/svg">
	
	
	<defs id="defs4">
	</defs>
	
	
	<g id="g6">
		
		
		
		
		
		
		
		
		
		
		
		
		
		
		
		
		
		<path animation_id="5" d="M 52.097,60.409 L 34.197,60.409 L 34.057,17.633 C 34.057,7.16 25.868,0.099 16.656,0.099 C 7.434,0.099 0,8.415 0,17.633 L 0,132.487 C 0,141.702 7.113,149.611 16.331,149.611 C 25.553,149.611 34.077,142.454 34.077,132.61 L 34.077,86.194 L 52.097,86.194 L 52.073,132.61 C 52.073,141.825 59.565,149.611 68.783,149.611 C 78.001,149.611 85.975,142.085 85.975,132.487 L 85.975,17.633 C 85.976,7.386 78.001,0 68.783,0 C 59.565,0 52.097,7.554 52.097,17.633 L 52.097,60.409" id="path18" stroke="black" style="fill:#17469d"/>
		
	
	</g>
	

</svg>