<?xml version="1.0" encoding="iso-8859-1"?><!-- Generator: Adobe Illustrator 13.0.0, SVG Export Plug-In . SVG Version: 6.00 Build 14948)  --><!DOCTYPE svg  PUBLIC '-//W3C//DTD SVG 1.1//EN'  'http://www.w3.org/Graphics/SVG/1.1/DTD/svg11.dtd'><svg enable-background="new 0 0 1504 112.898" height="112.898px" id="Ebene_1" version="1.1" viewBox="0 0 1504 112.898" width="1504px" x="0px" xml:space="preserve" xmlns="http://www.w3.org/2000/svg" xmlns:xlink="http://www.w3.org/1999/xlink" y="0px">
	

	<g>
		
	
		
		
	
		
		
	
		<path animation_id="2" clip-rule="evenodd" d="M249.636,85.056l-27.417,0.008V27.844l27.417-0.003l1.193,0.04   c4.608,0,8.344,3.736,8.344,8.344v1.152V75.52v1.19c0,4.61-3.736,8.346-8.344,8.346H249.636L249.636,85.056z M279.43,81.46   c0,8.559-6.938,15.495-15.496,15.495l-2.341,0.021h-59.662l-0.003-79.71l-33.379,47.669l0.005,32.041h-21.457V65.056   l-33.396-47.668l0.019,79.589H93.456V62.408H56.472v34.568H36.189l0.007-81.055h20.276V50.49l36.983,0.014V15.921h43.484   l20.886,30.974l20.843-30.974h82.924l2.374,0.023c8.558,0,15.496,6.938,15.496,15.496l0.011,2.36v45.295L279.43,81.46L279.43,81.46   z" fill="#FFFFFF" fill-rule="evenodd" stroke="black"/>
		
	
		
		
	
		
		
	
		
		
	
		
		
	
		
		
	
		
		
	
		
		
	
		
		
	
		
		
	
		
		
	
		
		
	
		
		
	
		
		
	
		
		
	
		
		

	</g>
	

</svg>