<?xml version="1.0" encoding="iso-8859-1"?><!-- Generator: Adobe Illustrator 13.0.0, SVG Export Plug-In . SVG Version: 6.00 Build 14948)  --><!DOCTYPE svg  PUBLIC '-//W3C//DTD SVG 1.1//EN'  'http://www.w3.org/Graphics/SVG/1.1/DTD/svg11.dtd'><svg enable-background="new 0 0 1504 112.898" height="112.898px" id="Ebene_1" version="1.1" viewBox="0 0 1504 112.898" width="1504px" x="0px" xml:space="preserve" xmlns="http://www.w3.org/2000/svg" xmlns:xlink="http://www.w3.org/1999/xlink" y="0px">
	

	<g>
		
	
		
		
	
		
		
	
		
		
	
		
		
	
		
		
	
		
		
	
		
		
	
		
		
	
		
		
	
		
		
	
		
		
	
		
		
	
		
		
	
		
		
	
		
		
	
		<path animation_id="9" clip-rule="evenodd" d="M1178.199,15.848h47.836c9.268,0,16.78,7.513,16.78,16.781v47.833   c0,9.271-7.513,16.78-16.78,16.78h-47.836c-9.268,0-16.78-7.51-16.78-16.78V32.628C1161.418,23.36,1168.931,15.848,1178.199,15.848   L1178.199,15.848z M1190.527,27.688h23.18c4.633,0,8.389,3.757,8.389,8.392v40.934c0,4.633-3.756,8.392-8.389,8.392h-23.18   c-4.633,0-8.392-3.759-8.392-8.392V36.079C1182.135,31.445,1185.894,27.688,1190.527,27.688L1190.527,27.688z" fill="#E2001A" fill-rule="evenodd" stroke="black"/>
		
	
		
		
	
		
		

	</g>
	

</svg>