<?xml version="1.0" encoding="iso-8859-1"?><!-- Generator: Adobe Illustrator 13.0.0, SVG Export Plug-In . SVG Version: 6.00 Build 14948)  --><!DOCTYPE svg  PUBLIC '-//W3C//DTD SVG 1.1//EN'  'http://www.w3.org/Graphics/SVG/1.1/DTD/svg11.dtd'><svg enable-background="new 0 0 1504 112.898" height="112.898px" id="Ebene_1" version="1.1" viewBox="0 0 1504 112.898" width="1504px" x="0px" xml:space="preserve" xmlns="http://www.w3.org/2000/svg" xmlns:xlink="http://www.w3.org/1999/xlink" y="0px">
	

	<g>
		
	
		
		
	
		
		
	
		
		
	
		
		
	
		
		
	
		
		
	
		
		
	
		
		
	
		
		
	
		
		
	
		
		
	
		
		
	
		
		
	
		
		
	
		<path animation_id="8" clip-rule="evenodd" d="M797.671,15.995h63.631c9.266,0,16.781,7.513,16.781,16.781   v11.677c0,9.267-7.516,16.779-16.781,16.779h-6.9l25.914,36.013l-23.93,0.038l-26.21-36.086h-10.636l0.082,36.045l-22.114,0.041   V15.995C797.508,15.995,797.557,15.995,797.671,15.995L797.671,15.995z M819.872,26.537h29.595c4.632,0,8.392,3.758,8.392,8.39   v6.324c0,4.634-3.76,8.39-8.392,8.39h-29.674L819.872,26.537L819.872,26.537z" fill="#E2001A" fill-rule="evenodd" stroke="black"/>
		
	
		
		
	
		
		
	
		
		

	</g>
	

</svg>