<?xml version="1.0" encoding="iso-8859-1"?><!-- Generator: Adobe Illustrator 13.0.0, SVG Export Plug-In . SVG Version: 6.00 Build 14948)  --><!DOCTYPE svg  PUBLIC '-//W3C//DTD SVG 1.1//EN'  'http://www.w3.org/Graphics/SVG/1.1/DTD/svg11.dtd'><svg enable-background="new 0 0 1504 112.898" height="112.898px" id="Ebene_1" version="1.1" viewBox="0 0 1504 112.898" width="1504px" x="0px" xml:space="preserve" xmlns="http://www.w3.org/2000/svg" xmlns:xlink="http://www.w3.org/1999/xlink" y="0px">
	

	<g>
		
	
		
		
	
		
		
	
		
		
	
		<path animation_id="3" clip-rule="evenodd" d="M390.281,75.52V37.377l0.027-1.232   c0-4.608,3.737-8.264,8.345-8.264l1.165-0.04h17.881l1.201,0.04c4.608,0,8.344,3.736,8.344,8.344l-0.01-0.025l20.266-0.001v-2.398   l-0.018-2.401c0-8.558-6.938-15.498-15.496-15.498l-2.367,0.019h-41.721l-2.383,0.055c-8.558,0-15.497,6.938-15.497,15.498   l-0.001,2.327v45.295l-0.032,2.397c0,8.558,6.938,15.494,15.497,15.494l2.416-0.011h41.721l0,0l2.367,0.011   c8.558,0,15.496-6.937,15.496-15.494l0.018-2.397v-2.366h-20.266l0.01-0.02c0,4.61-3.736,8.346-8.344,8.346h-1.201h-17.881h-1.173   c-4.609,0-8.345-3.735-8.345-8.346L390.281,75.52L390.281,75.52z" fill="#FFFFFF" fill-rule="evenodd" stroke="black"/>
		
	
		
		
	
		
		
	
		
		
	
		
		
	
		
		
	
		
		
	
		
		
	
		
		
	
		
		
	
		
		
	
		
		
	
		
		
	
		
		
	
		
		

	</g>
	

</svg>