<?xml version="1.0" encoding="iso-8859-1"?><!-- Created with Inkscape (http://www.inkscape.org/) --><svg height="285.04852" id="svg2" version="1.1" width="743.34967" xml:space="preserve" xmlns="http://www.w3.org/2000/svg" xmlns:cc="http://creativecommons.org/ns#" xmlns:dc="http://purl.org/dc/elements/1.1/" xmlns:rdf="http://www.w3.org/1999/02/22-rdf-syntax-ns#" xmlns:svg="http://www.w3.org/2000/svg">
	
   
	<defs id="defs6">
		<clipPath id="clipPath4017-4">
			<path animation_id="0" d="m 260.65,344.465 0,-32.461 85.021,0 0,32.461" id="path4019-0" stroke="black"/>
		</clipPath>
	</defs>
	<g id="g10" transform="matrix(1.25,0,0,-1.25,-91.48228,488.18178)">
		<g id="g3917" transform="translate(123.41502,-123.38199)">
			<g id="g3997" transform="matrix(4.2787535,0,0,4.2787535,68.847561,395.30936)">
				
			</g>
			<g id="g4001" transform="matrix(4.2787535,0,0,4.2787535,107.74999,462.25473)"/>
			<g id="g4005" transform="matrix(4.2787535,0,0,4.2787535,224.88082,439.71426)"/>
			<g id="g4009" transform="matrix(4.2787535,0,0,4.2787535,308.42776,449.74794)"/>
			<g id="g4013" transform="matrix(4.2787535,0,0,4.2787535,-1050.0423,-1004.5234)">
				<g clip-path="url(#clipPath4017-4)" id="g4015">
					<g id="g4021" transform="translate(338.775,333.249)"/>
				</g>
			</g>
			<g id="g4025" transform="matrix(4.2787535,0,0,4.2787535,422.50361,365.40943)"/>
			<g id="g4029" transform="matrix(4.2787535,0,0,4.2787535,346.5429,376.87221)"/>
			<g id="g4037" transform="matrix(4.2787535,0,0,4.2787535,248.4482,330.93979)"/>
			<g id="g4041" transform="matrix(4.2787535,0,0,4.2787535,231.62842,365.18693)"/>
			<g id="g4045" transform="matrix(4.2787535,0,0,4.2787535,293.82438,366.01273)"/>
			<g id="g4049" transform="matrix(4.2787535,0,0,4.2787535,76.989986,354.11352)"/>
			<g id="g4053" transform="matrix(4.2787535,0,0,4.2787535,76.989986,354.11352)"/>
			<g id="g4057" transform="matrix(4.2787535,0,0,4.2787535,159.89939,348.89344)"/>
		</g>
	</g>
</svg>