<?xml version="1.0" encoding="iso-8859-1"?><svg height="103.99886" viewBox="0 0 430.00001 103.99887" width="430" xmlns="http://www.w3.org/2000/svg">
	
  
	<g fill="#15463a">
		
    
		<g stroke-width="2.189911">
			
      
			
			
      
			
			
      
			
			
      
			
			
      
			
			
      
			
			
      
			
			
      
			
			
    
		</g>
		
    
		
		
    
		
		
    
		<path animation_id="10" d="m397.79828 68.018632c-7.2267 0-13.75264-5.781365-13.86213-19.840593 12.28539-.416083 25.20586-1.445341 26.97969-1.751929s2.3651-1.248249 2.3651-3.306766a16.008249 16.008249 0 0 0 -15.50456-15.70166 20.979346 20.979346 0 0 0 -15.17608 7.620889 26.629317 26.629317 0 0 0 -6.81062 18.088665c0 11.672225 7.44569 22.008604 20.14718 22.008604 3.19726 0 10.33636-1.861424 16.8404-10.029792l-1.66433-2.189911a20.453767 20.453767 0 0 1 -13.31465 5.102493zm-2.49651-36.790503c5.69377 0 9.19763 4.971097 9.08815 10.336379 0 1.445341-.61319 2.058517-2.47461 2.058517-6.00036.19709-11.67223.306587-17.51929.306587 1.62054-8.36546 6.15365-12.701483 10.90575-12.701483z" stroke="black" stroke-width="2.189911"/>
		
    
		
		
    
		
		
  
	</g>
	

</svg>