<?xml version="1.0" encoding="iso-8859-1"?><svg height="103.99886" viewBox="0 0 430.00001 103.99887" width="430" xmlns="http://www.w3.org/2000/svg">
	
  
	<g fill="#15463a">
		
    
		<g stroke-width="2.189911">
			
      
			
			
      
			
			
      
			
			
      
			
			
      
			<path animation_id="4" d="m21.286904 0v79.296672c0 8.759644-1.029258 13.752641-2.387003 15.811157a6.0879523 6.0879523 0 0 1 -5.474776 3.000178 12.2635 12.2635 0 0 1 -8.3654601-3.94184 1.8395251 1.8395251 0 0 0 -2.8687833-.197092 5.9346585 5.9346585 0 0 0 -1.88332334 2.387002 3.3505636 3.3505636 0 0 0 .52557862 3.613354 11.584628 11.584628 0 0 0 8.16836762 3.613359 21.899109 21.899109 0 0 0 11.3656365-5.474783 25.05258 25.05258 0 0 0 7.949378-12.197803 28.468841 28.468841 0 0 0 1.116853-7.839883v-78.070321z" stroke="black"/>
			
      
			
			
      
			
			
      
			
			
    
		</g>
		
    
		
		
    
		
		
    
		
		
    
		
		
    
		
		
  
	</g>
	

</svg>