<?xml version="1.0" encoding="iso-8859-1"?><!-- Created with Inkscape (http://www.inkscape.org/) --><svg height="63" version="1.0" width="180" xmlns="http://www.w3.org/2000/svg" xmlns:svg="http://www.w3.org/2000/svg">
	
  
	<path animation_id="0" d="M 178.10899,31.06308 C 178.19199,14.48105 165.4625,0.98984 148.63632,0.91171 L 30.16952,0.91171 L 27.02989,1.13144 L 24.11485,1.58554 L 21.20469,2.25449 L 18.50937,3.26035 L 15.93614,4.4957 L 13.57774,6.06308 L 11.3414,7.74765 C 4.66172,13.12363 0.73105,22.55234 0.91172,31.06308 C 0.84336,48.1041 12.9918,61.11191 30.16952,61.09725 L 148.74864,61.20957 L 151.77598,60.98008 L 154.80332,60.53574 L 157.60117,59.86679 L 160.28672,58.86093 L 162.86973,57.62558 L 165.33555,56.16562 L 167.57676,54.37363 C 174.32969,48.59726 178.275,39.95468 178.10899,31.06308" stroke="black" style="fill:#00478f;fill-opacity:1;fill-rule:evenodd;"/>
	
  
	
	
  
	
	
  
	
	
  
	
	
  
	
	

</svg>