<?xml version="1.0" encoding="iso-8859-1"?><!-- Created with Inkscape (http://www.inkscape.org/) --><svg height="63" version="1.0" width="180" xmlns="http://www.w3.org/2000/svg" xmlns:svg="http://www.w3.org/2000/svg">
	
  
	
	
  
	<path animation_id="1" d="M 175.19882,31.06308 C 175.16465,16.19003 163.71934,3.92929 148.63632,3.93906 L 30.16952,3.82187 L 27.47422,3.93906 L 24.78379,4.38339 L 22.21055,5.05722 L 19.85215,5.95078 L 17.49864,7.18613 L 15.37461,8.5289 L 13.2457,10.09628 C 7.35215,15.34531 3.62656,23.10898 3.82676,31.06308 C 3.66562,46.10703 14.94004,58.28475 30.16952,58.40683 L 148.63632,58.40683 L 151.33164,58.18222 L 154.01719,57.84531 L 156.47812,57.17148 L 158.94882,56.16562 L 161.30235,55.04257 L 163.54355,53.6998 L 165.55527,52.13242 C 171.66367,47.00058 175.18906,38.99765 175.19882,31.06308" stroke="black" style="fill:#ffffff;fill-opacity:1;fill-rule:evenodd;"/>
	
  
	
	
  
	
	
  
	
	
  
	
	

</svg>