<?xml version="1.0" encoding="iso-8859-1"?><!-- Created with Inkscape (http://www.inkscape.org/) --><svg height="105.775" id="svg2" inkscape:version="0.47 r22583" sodipodi:docname="JH_Logo_claim_4c_vektor.pdf" version="1.1" width="283.4375" xml:space="preserve" xmlns="http://www.w3.org/2000/svg" xmlns:cc="http://creativecommons.org/ns#" xmlns:dc="http://purl.org/dc/elements/1.1/" xmlns:inkscape="http://www.inkscape.org/namespaces/inkscape" xmlns:rdf="http://www.w3.org/1999/02/22-rdf-syntax-ns#" xmlns:sodipodi="http://sodipodi.sourceforge.net/DTD/sodipodi-0.dtd" xmlns:svg="http://www.w3.org/2000/svg">
	<metadata id="metadata8">
		<rdf:RDF>
			<cc:Work rdf:about="">
				<dc:format>image/svg+xml</dc:format>
				<dc:type rdf:resource="http://purl.org/dc/dcmitype/StillImage"/>
				<dc:title/>
			</cc:Work>
		</rdf:RDF>
	</metadata>
	<defs id="defs6">
		<inkscape:perspective id="perspective10" inkscape:persp3d-origin="0.5 : 0.33333333 : 1" inkscape:vp_x="0 : 0.5 : 1" inkscape:vp_y="0 : 1000 : 0" inkscape:vp_z="1 : 0.5 : 1" sodipodi:type="inkscape:persp3d"/>
		<clipPath clipPathUnits="userSpaceOnUse" id="clipPath20">
			
		</clipPath>
	</defs>
	<sodipodi:namedview bordercolor="#666666" borderopacity="1" gridtolerance="10" guidetolerance="10" id="namedview4" inkscape:current-layer="g12" inkscape:cx="141.71875" inkscape:cy="52.887501" inkscape:pageopacity="0" inkscape:pageshadow="2" inkscape:window-height="483" inkscape:window-maximized="0" inkscape:window-width="640" inkscape:window-x="309" inkscape:window-y="61" inkscape:zoom="1.9051819" objecttolerance="10" pagecolor="#ffffff" showgrid="false"/>
	<g id="g12" inkscape:groupmode="layer" inkscape:label="JH_Logo_claim_4c_vektor" transform="matrix(1.25,0,0,-1.25,0,105.775)">
		<g id="g14" transform="scale(0.24,0.24)">
			<g id="g16">
				<g clip-path="url(#clipPath20)" id="g18">
					
					
					
					
					
					<path animation_id="6" d="m 400.836,119.496 58.328,0 0,-24.8046 c 0,-28.9609 -20.144,-30.3008 -51.219,-30.3008 -38.98,0 -53.968,5.8008 -53.968,36.5704 l 0,33.418 c 0,30.769 14.988,36.672 53.968,36.672 27.321,0 51.219,-1.442 51.219,-23.098 l 0,-12.57 -21.152,0 0,6.203 c 0,13.035 -1.91,14.578 -30.067,14.578 -30.3,0 -32.715,-1.844 -32.715,-22.289 l 0,-32.312 c 0,-20.5435 2.415,-22.356 32.715,-22.356 14.481,0 21.157,0.1993 24.809,2.1133 3.348,1.707 5.258,5.5625 5.258,16.0899 l 0,7.3048 -37.176,0 0,14.781" id="path34" stroke="black" style="fill:#4c4d5a;fill-opacity:1;fill-rule:evenodd;"/>
					
					
					
					
					
					
					
					
					
					
					
					
					
					
					
					
					
					
					
					
				</g>
			</g>
		</g>
	</g>
</svg>