<?xml version="1.0" encoding="iso-8859-1"?><!-- Created with Inkscape (http://www.inkscape.org/) --><svg height="105.775" id="svg2" inkscape:version="0.47 r22583" sodipodi:docname="JH_Logo_claim_4c_vektor.pdf" version="1.1" width="283.4375" xml:space="preserve" xmlns="http://www.w3.org/2000/svg" xmlns:cc="http://creativecommons.org/ns#" xmlns:dc="http://purl.org/dc/elements/1.1/" xmlns:inkscape="http://www.inkscape.org/namespaces/inkscape" xmlns:rdf="http://www.w3.org/1999/02/22-rdf-syntax-ns#" xmlns:sodipodi="http://sodipodi.sourceforge.net/DTD/sodipodi-0.dtd" xmlns:svg="http://www.w3.org/2000/svg">
	<metadata id="metadata8">
		<rdf:RDF>
			<cc:Work rdf:about="">
				<dc:format>image/svg+xml</dc:format>
				<dc:type rdf:resource="http://purl.org/dc/dcmitype/StillImage"/>
				<dc:title/>
			</cc:Work>
		</rdf:RDF>
	</metadata>
	<defs id="defs6">
		<inkscape:perspective id="perspective10" inkscape:persp3d-origin="0.5 : 0.33333333 : 1" inkscape:vp_x="0 : 0.5 : 1" inkscape:vp_y="0 : 1000 : 0" inkscape:vp_z="1 : 0.5 : 1" sodipodi:type="inkscape:persp3d"/>
		<clipPath clipPathUnits="userSpaceOnUse" id="clipPath20">
			
		</clipPath>
	</defs>
	<sodipodi:namedview bordercolor="#666666" borderopacity="1" gridtolerance="10" guidetolerance="10" id="namedview4" inkscape:current-layer="g12" inkscape:cx="141.71875" inkscape:cy="52.887501" inkscape:pageopacity="0" inkscape:pageshadow="2" inkscape:window-height="483" inkscape:window-maximized="0" inkscape:window-width="640" inkscape:window-x="309" inkscape:window-y="61" inkscape:zoom="1.9051819" objecttolerance="10" pagecolor="#ffffff" showgrid="false"/>
	<g id="g12" inkscape:groupmode="layer" inkscape:label="JH_Logo_claim_4c_vektor" transform="matrix(1.25,0,0,-1.25,0,105.775)">
		<g id="g14" transform="scale(0.24,0.24)">
			<g id="g16">
				<g clip-path="url(#clipPath20)" id="g18">
					
					<path animation_id="2" d="m 848.992,101.809 20.184,0 0,-8.2817 c 0,-12.7695 2.008,-14.2773 27.715,-14.2773 25.343,0 26.644,0 26.644,17.0938 0,3.0507 0.106,5.4652 -0.301,7.5082 -4.656,5.664 -10.222,6.972 -24.601,7.777 l -14.481,0.84 c -26.843,1.504 -33.519,8.98 -33.519,28.758 0,26.011 13.176,29.765 46.687,29.765 36.637,0 46.696,-5.945 46.696,-33.101 l -20.278,-0.016 0,4.762 c 0,10.922 -3.855,13.574 -26.418,13.574 -25.136,0 -25.437,-1.844 -25.437,-14.984 0,-12.266 1.441,-13.977 26.449,-15.219 36.734,-1.707 46.461,-5.16 46.461,-31.0744 0,-25.2031 -14.082,-30.5664 -47.695,-30.5664 -33.633,0 -48.106,5.0625 -48.106,27.1172 l 0,10.3246" id="path26" stroke="black" style="fill:#4c4d5a;fill-opacity:1;fill-rule:evenodd;"/>
					
					
					
					
					
					
					
					
					
					
					
					
					
					
					
					
					
					
					
					
					
					
					
					
				</g>
			</g>
		</g>
	</g>
</svg>