<?xml version="1.0" encoding="iso-8859-1"?><!-- Created with Inkscape (http://www.inkscape.org/) --><svg height="105.775" id="svg2" inkscape:version="0.47 r22583" sodipodi:docname="JH_Logo_claim_4c_vektor.pdf" version="1.1" width="283.4375" xml:space="preserve" xmlns="http://www.w3.org/2000/svg" xmlns:cc="http://creativecommons.org/ns#" xmlns:dc="http://purl.org/dc/elements/1.1/" xmlns:inkscape="http://www.inkscape.org/namespaces/inkscape" xmlns:rdf="http://www.w3.org/1999/02/22-rdf-syntax-ns#" xmlns:sodipodi="http://sodipodi.sourceforge.net/DTD/sodipodi-0.dtd" xmlns:svg="http://www.w3.org/2000/svg">
	<metadata id="metadata8">
		<rdf:RDF>
			<cc:Work rdf:about="">
				<dc:format>image/svg+xml</dc:format>
				<dc:type rdf:resource="http://purl.org/dc/dcmitype/StillImage"/>
				<dc:title/>
			</cc:Work>
		</rdf:RDF>
	</metadata>
	<defs id="defs6">
		<inkscape:perspective id="perspective10" inkscape:persp3d-origin="0.5 : 0.33333333 : 1" inkscape:vp_x="0 : 0.5 : 1" inkscape:vp_y="0 : 1000 : 0" inkscape:vp_z="1 : 0.5 : 1" sodipodi:type="inkscape:persp3d"/>
		<clipPath clipPathUnits="userSpaceOnUse" id="clipPath20">
			
		</clipPath>
	</defs>
	<sodipodi:namedview bordercolor="#666666" borderopacity="1" gridtolerance="10" guidetolerance="10" id="namedview4" inkscape:current-layer="g12" inkscape:cx="141.71875" inkscape:cy="52.887501" inkscape:pageopacity="0" inkscape:pageshadow="2" inkscape:window-height="483" inkscape:window-maximized="0" inkscape:window-width="640" inkscape:window-x="309" inkscape:window-y="61" inkscape:zoom="1.9051819" objecttolerance="10" pagecolor="#ffffff" showgrid="false"/>
	<g id="g12" inkscape:groupmode="layer" inkscape:label="JH_Logo_claim_4c_vektor" transform="matrix(1.25,0,0,-1.25,0,105.775)">
		<g id="g14" transform="scale(0.24,0.24)">
			<g id="g16">
				<g clip-path="url(#clipPath20)" id="g18">
					
					
					
					
					
					
					
					
					
					
					
					
					
					
					
					
					
					
					
					
					
					
					
					<path animation_id="24" d="m 661.598,7.41016 c 0,3.77344 0.82,4.62114 4.523,5.08204 l 0,0.0664 c -4,0.5234 -4.23,3.1484 -4.23,4.6875 l 0,1.5391 c 0,3.9687 2.199,5.4804 7.285,5.4804 l 11.601,0 c 5.086,0 7.286,-1.5117 7.286,-5.4804 l 0,-1.5391 c 0,-1.5391 -0.235,-4.1641 -4.004,-4.6875 l 0,-0.0664 c 2.363,-0.3945 4.296,-1.4141 4.296,-4.62111 l 0,-2.33203 C 688.355,1.44141 686.16,0 681.438,0 l -12.926,0 c -4.715,0 -6.914,1.44141 -6.914,5.53906 l 0,1.8711 z m 16.461,-4.78907 c 6.726,0 7.277,0.6211 7.277,4.49219 0,3.83592 -1.215,4.03512 -6.328,4.03512 l -8.067,0 c -5.113,0 -6.328,-0.1992 -6.328,-4.03512 0,-3.87109 0.559,-4.49219 7.282,-4.49219 l 6.164,0 z m 0.789,11.14841 c 5.175,0 6.195,0.2969 6.195,4.0703 0,3.0157 -0.785,3.8008 -5.441,3.8008 l -9.247,0 c -4.66,0 -5.445,-0.7851 -5.445,-3.8008 0,-3.7734 1.016,-4.0703 6.195,-4.0703 l 7.743,0" id="path70" stroke="black" style="fill:#4c4d5a;fill-opacity:1;fill-rule:nonzero;"/>
					
					
				</g>
			</g>
		</g>
	</g>
</svg>