<?xml version="1.0" encoding="iso-8859-1"?><!-- Created with Inkscape (http://www.inkscape.org/) --><svg height="105.775" id="svg2" inkscape:version="0.47 r22583" sodipodi:docname="JH_Logo_claim_4c_vektor.pdf" version="1.1" width="283.4375" xml:space="preserve" xmlns="http://www.w3.org/2000/svg" xmlns:cc="http://creativecommons.org/ns#" xmlns:dc="http://purl.org/dc/elements/1.1/" xmlns:inkscape="http://www.inkscape.org/namespaces/inkscape" xmlns:rdf="http://www.w3.org/1999/02/22-rdf-syntax-ns#" xmlns:sodipodi="http://sodipodi.sourceforge.net/DTD/sodipodi-0.dtd" xmlns:svg="http://www.w3.org/2000/svg">
	<metadata id="metadata8">
		<rdf:RDF>
			<cc:Work rdf:about="">
				<dc:format>image/svg+xml</dc:format>
				<dc:type rdf:resource="http://purl.org/dc/dcmitype/StillImage"/>
				<dc:title/>
			</cc:Work>
		</rdf:RDF>
	</metadata>
	<defs id="defs6">
		<inkscape:perspective id="perspective10" inkscape:persp3d-origin="0.5 : 0.33333333 : 1" inkscape:vp_x="0 : 0.5 : 1" inkscape:vp_y="0 : 1000 : 0" inkscape:vp_z="1 : 0.5 : 1" sodipodi:type="inkscape:persp3d"/>
		<clipPath clipPathUnits="userSpaceOnUse" id="clipPath20">
			
		</clipPath>
	</defs>
	<sodipodi:namedview bordercolor="#666666" borderopacity="1" gridtolerance="10" guidetolerance="10" id="namedview4" inkscape:current-layer="g12" inkscape:cx="141.71875" inkscape:cy="52.887501" inkscape:pageopacity="0" inkscape:pageshadow="2" inkscape:window-height="483" inkscape:window-maximized="0" inkscape:window-width="640" inkscape:window-x="309" inkscape:window-y="61" inkscape:zoom="1.9051819" objecttolerance="10" pagecolor="#ffffff" showgrid="false"/>
	<g id="g12" inkscape:groupmode="layer" inkscape:label="JH_Logo_claim_4c_vektor" transform="matrix(1.25,0,0,-1.25,0,105.775)">
		<g id="g14" transform="scale(0.24,0.24)">
			<g id="g16">
				<g clip-path="url(#clipPath20)" id="g18">
					
					
					
					
					
					
					
					
					
					
					
					
					
					
					
					
					
					<path animation_id="18" d="M 466.883,5.99609 C 466.883,0.816406 471.012,0 475.703,0 l 8.922,0 c 4.75,0 9.543,0.421875 9.543,6.26172 l 0,1.54297 c 0,4.03121 -2.625,5.83591 -8.891,5.83591 l -9.507,0 c -5.02,0 -5.903,0.9492 -5.903,3.7696 0,3.9023 2.196,4.2304 8.391,4.2304 l 3.414,0 c 8.426,0 8.82,-0.6875 8.883,-4.4609 l 3.019,0 0,0.8203 c 0,4.2305 -2,6.2656 -9.969,6.2656 l -6.921,0 c -6.621,0 -9.836,-1.2148 -9.836,-6.625 0,-6.2968 3.215,-6.8867 13.019,-6.8867 l 6.098,0 c 4,0 5.18,-0.75781 5.18,-3.73827 0,-3.41016 -1.375,-4.39454 -6.028,-4.39454 l -9.972,0 c -4,0 -5.25,1.11329 -5.25,3.44141 l 0,1.67188 -3.012,0 0,-1.73829" id="path58" stroke="black" style="fill:#4c4d5a;fill-opacity:1;fill-rule:nonzero;"/>
					
					
					
					
					
					
					
					
				</g>
			</g>
		</g>
	</g>
</svg>