<?xml version="1.0" encoding="iso-8859-1"?><!-- Created with Inkscape (http://www.inkscape.org/) --><svg height="105.775" id="svg2" inkscape:version="0.47 r22583" sodipodi:docname="JH_Logo_claim_4c_vektor.pdf" version="1.1" width="283.4375" xml:space="preserve" xmlns="http://www.w3.org/2000/svg" xmlns:cc="http://creativecommons.org/ns#" xmlns:dc="http://purl.org/dc/elements/1.1/" xmlns:inkscape="http://www.inkscape.org/namespaces/inkscape" xmlns:rdf="http://www.w3.org/1999/02/22-rdf-syntax-ns#" xmlns:sodipodi="http://sodipodi.sourceforge.net/DTD/sodipodi-0.dtd" xmlns:svg="http://www.w3.org/2000/svg">
	<metadata id="metadata8">
		<rdf:RDF>
			<cc:Work rdf:about="">
				<dc:format>image/svg+xml</dc:format>
				<dc:type rdf:resource="http://purl.org/dc/dcmitype/StillImage"/>
				<dc:title/>
			</cc:Work>
		</rdf:RDF>
	</metadata>
	<defs id="defs6">
		<inkscape:perspective id="perspective10" inkscape:persp3d-origin="0.5 : 0.33333333 : 1" inkscape:vp_x="0 : 0.5 : 1" inkscape:vp_y="0 : 1000 : 0" inkscape:vp_z="1 : 0.5 : 1" sodipodi:type="inkscape:persp3d"/>
		<clipPath clipPathUnits="userSpaceOnUse" id="clipPath20">
			
		</clipPath>
	</defs>
	<sodipodi:namedview bordercolor="#666666" borderopacity="1" gridtolerance="10" guidetolerance="10" id="namedview4" inkscape:current-layer="g12" inkscape:cx="141.71875" inkscape:cy="52.887501" inkscape:pageopacity="0" inkscape:pageshadow="2" inkscape:window-height="483" inkscape:window-maximized="0" inkscape:window-width="640" inkscape:window-x="309" inkscape:window-y="61" inkscape:zoom="1.9051819" objecttolerance="10" pagecolor="#ffffff" showgrid="false"/>
	<g id="g12" inkscape:groupmode="layer" inkscape:label="JH_Logo_claim_4c_vektor" transform="matrix(1.25,0,0,-1.25,0,105.775)">
		<g id="g14" transform="scale(0.24,0.24)">
			<g id="g16">
				<g clip-path="url(#clipPath20)" id="g18">
					
					
					
					
					
					
					
					
					
					
					
					
					
					
					
					
					
					
					
					
					<path animation_id="21" d="m 554.992,15.3789 c 0,6 2.035,8.8867 8.461,8.8867 l 12.297,0 c 5.836,0 7.441,-2.7226 7.441,-5.9062 l 0,-2.0313 -2.82,0 0,1.0821 c 0,4.0351 -2.492,4.2304 -5.441,4.2304 l -11.145,0 c -3.09,0 -5.578,-0.9179 -5.578,-5.0508 l 0,-8.91792 c 0,-4.13282 2.488,-5.05079 5.578,-5.05079 l 11.242,0 c 4.332,0 5.578,0.91797 5.578,4.13282 l 0,1.47265 3.012,0 0,-1.60547 C 583.617,2.32813 582.242,0 575.586,0 l -12.133,0 c -6.426,0 -8.461,2.88672 -8.461,8.88281 l 0,6.49609" id="path64" stroke="black" style="fill:#4c4d5a;fill-opacity:1;fill-rule:nonzero;"/>
					
					
					
					
					
				</g>
			</g>
		</g>
	</g>
</svg>