<?xml version="1.0" encoding="iso-8859-1"?><!-- Created with Inkscape (http://www.inkscape.org/) --><svg height="105.775" id="svg2" inkscape:version="0.47 r22583" sodipodi:docname="JH_Logo_claim_4c_vektor.pdf" version="1.1" width="283.4375" xml:space="preserve" xmlns="http://www.w3.org/2000/svg" xmlns:cc="http://creativecommons.org/ns#" xmlns:dc="http://purl.org/dc/elements/1.1/" xmlns:inkscape="http://www.inkscape.org/namespaces/inkscape" xmlns:rdf="http://www.w3.org/1999/02/22-rdf-syntax-ns#" xmlns:sodipodi="http://sodipodi.sourceforge.net/DTD/sodipodi-0.dtd" xmlns:svg="http://www.w3.org/2000/svg">
	<metadata id="metadata8">
		<rdf:RDF>
			<cc:Work rdf:about="">
				<dc:format>image/svg+xml</dc:format>
				<dc:type rdf:resource="http://purl.org/dc/dcmitype/StillImage"/>
				<dc:title/>
			</cc:Work>
		</rdf:RDF>
	</metadata>
	<defs id="defs6">
		<inkscape:perspective id="perspective10" inkscape:persp3d-origin="0.5 : 0.33333333 : 1" inkscape:vp_x="0 : 0.5 : 1" inkscape:vp_y="0 : 1000 : 0" inkscape:vp_z="1 : 0.5 : 1" sodipodi:type="inkscape:persp3d"/>
		<clipPath clipPathUnits="userSpaceOnUse" id="clipPath20">
			
		</clipPath>
	</defs>
	<sodipodi:namedview bordercolor="#666666" borderopacity="1" gridtolerance="10" guidetolerance="10" id="namedview4" inkscape:current-layer="g12" inkscape:cx="141.71875" inkscape:cy="52.887501" inkscape:pageopacity="0" inkscape:pageshadow="2" inkscape:window-height="483" inkscape:window-maximized="0" inkscape:window-width="640" inkscape:window-x="309" inkscape:window-y="61" inkscape:zoom="1.9051819" objecttolerance="10" pagecolor="#ffffff" showgrid="false"/>
	<g id="g12" inkscape:groupmode="layer" inkscape:label="JH_Logo_claim_4c_vektor" transform="matrix(1.25,0,0,-1.25,0,105.775)">
		<g id="g14" transform="scale(0.24,0.24)">
			<g id="g16">
				<g clip-path="url(#clipPath20)" id="g18">
					
					
					
					
					
					
					
					
					
					
					
					<path animation_id="12" d="m 253.34,24.0039 18.984,0 c 6.856,0 7.938,-2.2617 7.938,-6.7226 l 0,-1.9375 c 0,-3.3438 -1.903,-4.2657 -4.364,-4.4922 l 0,-0.0625 c 3.282,-0.5938 4.067,-2.29691 4.067,-4.46097 l 0,-6.066411 -3.016,0 0,5.210941 c 0,3.70703 -1.804,4.16797 -4.722,4.16797 l -15.672,0 0,-9.378911 -3.215,0 0,23.742181 z m 18.625,-11.7383 c 3.574,0 5.082,0.9453 5.082,3.4414 l 0,2.1641 c 0,2.6523 -1.149,3.5078 -5.871,3.5078 l -14.621,0 0,-9.1133 15.41,0" id="path46" stroke="black" style="fill:#4c4d5a;fill-opacity:1;fill-rule:nonzero;"/>
					
					
					
					
					
					
					
					
					
					
					
					
					
					
				</g>
			</g>
		</g>
	</g>
</svg>