<?xml version="1.0" encoding="iso-8859-1"?><!-- Created with Inkscape (http://www.inkscape.org/) --><svg height="358.22833" id="svg16924" version="1.1" width="538.58264" xmlns="http://www.w3.org/2000/svg" xmlns:cc="http://creativecommons.org/ns#" xmlns:dc="http://purl.org/dc/elements/1.1/" xmlns:rdf="http://www.w3.org/1999/02/22-rdf-syntax-ns#" xmlns:svg="http://www.w3.org/2000/svg">
	
  
	<defs id="defs16926">
		
    
		<clipPath id="clipPath16893">
			
      
			
			
    
		</clipPath>
		
  
	</defs>
	
  
	<metadata id="metadata16929">
		
    
		<rdf:RDF>
			
      
			<cc:Work rdf:about="">
				
        
				<dc:format>image/svg+xml</dc:format>
				
        
				<dc:type rdf:resource="http://purl.org/dc/dcmitype/StillImage"/>
				
        
				<dc:title/>
				
      
			</cc:Work>
			
    
		</rdf:RDF>
		
  
	</metadata>
	
  
	<g id="layer1" transform="translate(-95.918169,-358.17861)">
		
    
		<g id="g16955" transform="matrix(3.4482224,0,0,3.4482224,-888.80964,-1081.298)">
			
      
			
			
      
			<g id="g16889" transform="matrix(1.25,0,0,-1.25,-251.20819,1424.7886)">
				
        
				<g clip-path="url(#clipPath16893)" id="g16891">
					
          
					
					
        
				</g>
				
      
			</g>
			
      
			
			
      
			
			
      
			<path animation_id="5" d="m 374.31556,465.88243 8.5075,12.21375 c -1.5825,1.73625 -3.695,3.29375 -6.51125,3.29375 -3.9325,0 -7.10125,-2.99375 -7.10125,-6.82625 0,-3.1725 1.4675,-5.6275 3.8725,-7.6025 l 1.2325,-1.07875 z m 1.81875,-7.30375 -0.93875,-1.2575 c -1.17375,-1.61625 -2.46375,-3.7725 -2.46375,-5.9275 0,-2.81375 2.23,-3.7125 3.93125,-3.7125 2.5225,0 3.99,1.4375 3.99,4.0125 0,2.33375 -1.58375,4.07125 -3.05125,5.5075 l -1.4675,1.3775 z m 2.875,3.95125 2.17125,-1.61625 c 2.9925,-2.335 5.105,-4.96875 5.105,-8.98125 0,-7.125 -6.1025,-8.68125 -9.2125,-8.68125 -5.6325,0 -9.97375,3.05375 -9.97375,9.16 0,2.33625 1.23125,4.67 2.69875,7.005 l 1.58375,2.395 -2.64,2.035 c -3.57875,2.81625 -5.8675,6.46625 -5.8675,11.19625 0,4.55125 2.64,11.79625 12.32125,11.79625 4.7525,0 7.80375,-1.91625 10.5625,-4.49125 l 2.5225,3.6525 7.1,0 -5.6925,-8.1425 c 2.81625,-4.19125 3.58,-9.28 3.58,-11.615 l 0,-0.54 -5.28125,0 0,0.83875 c 0,2.335 -0.645,4.85 -1.6425,6.52625 l -7.335,-10.5375 z" id="path16903" stroke="black" style="fill:#a4c300;fill-opacity:1;fill-rule:nonzero;"/>
			
    
		</g>
		
  
	</g>
	

</svg>