<?xml version="1.0" encoding="iso-8859-1"?><!-- Created with Inkscape (http://www.inkscape.org/) --><svg height="358.22833" id="svg16924" version="1.1" width="538.58264" xmlns="http://www.w3.org/2000/svg" xmlns:cc="http://creativecommons.org/ns#" xmlns:dc="http://purl.org/dc/elements/1.1/" xmlns:rdf="http://www.w3.org/1999/02/22-rdf-syntax-ns#" xmlns:svg="http://www.w3.org/2000/svg">
	
  
	<defs id="defs16926">
		
    
		<clipPath id="clipPath16893">
			
      
			
			
    
		</clipPath>
		
  
	</defs>
	
  
	<metadata id="metadata16929">
		
    
		<rdf:RDF>
			
      
			<cc:Work rdf:about="">
				
        
				<dc:format>image/svg+xml</dc:format>
				
        
				<dc:type rdf:resource="http://purl.org/dc/dcmitype/StillImage"/>
				
        
				<dc:title/>
				
      
			</cc:Work>
			
    
		</rdf:RDF>
		
  
	</metadata>
	
  
	<g id="layer1" transform="translate(-95.918169,-358.17861)">
		
    
		<g id="g16955" transform="matrix(3.4482224,0,0,3.4482224,-888.80964,-1081.298)">
			
      
			
			
      
			<g id="g16889" transform="matrix(1.25,0,0,-1.25,-251.20819,1424.7886)">
				
        
				<g clip-path="url(#clipPath16893)" id="g16891">
					
          
					
					
        
				</g>
				
      
			</g>
			
      
			<path animation_id="3" d="m 353.79806,486.09743 6.95125,0 -9.4125,-23.87125 9.4125,-19.195 -6.64375,0 -8.9825,18.765 0,-18.765 -6.7675,0 0,43.06625 6.7675,0 0,-13.2275 2.0925,-3.9375 6.5825,17.165 z m 54.56875,-43.06625 -9.4125,0 0,43.06625 5.90625,0 0,-30.45375 5.045,30.45375 6.3975,0 4.675,-30.88375 0,30.88375 6.39875,0 0,-43.06625 -9.4125,0 -4.615,30.57625 -4.9825,-30.57625 z" id="path16899" stroke="black" style="fill:#a4c300;fill-opacity:1;fill-rule:nonzero;"/>
			
      
			
			
      
			
			
    
		</g>
		
  
	</g>
	

</svg>