<?xml version="1.0" encoding="iso-8859-1"?><svg height="97.83007" id="svg4632" version="1.1" viewBox="0 0 528.6504 97.830072" width="528.65039" xmlns="http://www.w3.org/2000/svg" xmlns:svg="http://www.w3.org/2000/svg">
	
  
	<defs id="defs4634"/>
	
  
	<g id="layer1" transform="translate(-112.81766,-306.30431)">
		
    
		
		
    
		<path animation_id="1" d="m 159.58914,311.30437 -25.79101,0.0156 -15.98047,87.80079 25.82617,-0.0215 7.33984,-40.37305 c 0.007,0.19453 27.82586,40.38805 27.81836,40.37305 0.007,0 28.78352,0.007 28.79102,0 0,0 -31.50719,-43.70312 -31.49219,-43.70312 0,0 47.36946,-44.09118 47.37696,-44.07618 l -30.81836,0.0156 -40.11133,38.7793 7.04101,-38.81055 z m 366.80079,20.86914 c -5.28134,-0.10475 -10.84781,1.77293 -13.50391,5.87305 0.0599,0 -26.60547,41.43554 -26.60547,41.43554 l 17.77734,0 4.88477,-7.77343 26.04492,0.0449 2.55859,7.72851 15.0918,0 c 0,0 -14.36533,-41.28515 -14.45508,-41.28515 -1.5151,-3.83077 -6.51163,-5.91869 -11.79296,-6.02344 z m -184.56836,0.0293 c -5.28227,-0.10569 -10.84993,1.76885 -13.50977,5.86523 0.0673,0 -26.58398,41.41406 -26.58398,41.41406 l 17.71679,0 5.00586,-7.66992 26.01367,0.0156 2.55274,7.65429 15.50195,0 c 0,0 -14.81455,-41.25586 -14.9043,-41.25586 -1.5151,-3.83076 -6.51069,-5.91775 -11.79296,-6.02343 z m 105.77539,1.54882 -20.39649,33.09961 -8.93359,-33.05468 -22.34961,0 -8.08008,45.68554 16.20703,0 5.93164,-32.98828 8.29102,32.98828 16.04101,0 20.98633,-33.16015 -6.02929,33.16015 16.45312,0 8.13281,-45.66992 -26.2539,-0.0606 z m 143.5,0.0234 c -9.73404,0 -10.84129,1.45211 -12.50977,11.11133 -1.42157,7.63909 -3.32124,18.72606 -4.71289,26.23047 0,0 -2.08143,8.30469 9.0293,8.30469 0.11971,0 37.30664,0.0156 37.30664,0.0156 6.79362,0 8.77603,-2.6786 10.6914,-13.70703 0.67339,-3.91307 1.57068,-10.66947 1.62305,-10.96875 0.38906,-2.74589 -2.39459,-2.99219 -3.45703,-2.99219 -1.73581,0.008 -27.57063,0.0231 -27.57813,0.0156 0.0225,0.007 -1.63086,8.26758 -1.63086,8.26758 1e-5,0.10475 14.2386,0.10342 14.2461,0.0137 1.34675,0.0598 1.63764,0.11959 0.59766,4.68359 -0.89037,4.33206 -1.72047,4.8711 -3.30665,4.8711 l -18.05468,-0.008 c -2.40923,0.0299 -2.8946,0.15872 -2.49805,-1.99609 0.36661,-2.03509 0.54642,-4.6175 2.30469,-13.33399 1.78064,-8.82872 1.64593,-8.58067 1.81054,-9.47851 0.31424,-1.55625 0.17235,-1.94531 2.34961,-1.94531 -0.007,-0.0449 37.47657,-0.11225 37.47657,0 l 1.68359,-9.0625 -45.37109,-0.0215 z m -352.91993,0.0195 -8.41796,45.64649 16.58007,0.0371 3.65235,-20.18555 19.19922,20.18555 22.08593,0 -24.28711,-22.82032 30.71485,-22.86328 -22.88867,0 -23.66407,19.05469 3.4336,-19.05469 -16.40821,0 z m 287.81055,9.02539 5.69336,18.68946 -16.45312,0 10.75976,-18.68946 z m -184.56055,0.0293 5.68555,18.68359 -16.45312,0 10.76757,-18.68359 z m -113.64648,47.54492 -1.60742,8.74024 398.76562,-0.008 1.54102,-8.69531 -398.69922,-0.0371 z" id="path94" stroke="black" style="fill:#1d1d1b;fill-opacity:1;fill-rule:nonzero;"/>
		
  
	</g>
	

</svg>