<?xml version="1.0" encoding="iso-8859-1"?><!-- Created with Inkscape (http://www.inkscape.org/) --><svg height="283.121" version="1.0" width="566.929" xmlns="http://www.w3.org/2000/svg" xmlns:svg="http://www.w3.org/2000/svg">
	
  
	
	
  
	<path animation_id="1" d="M 555.639,67.885 L 555.639,93.831 L 521.633,68.018 L 515.377,67.846 L 515.377,109.172 L 526.671,109.172 L 526.671,83.399 L 560.626,109.172 L 566.929,109.172 L 566.929,67.884 L 555.639,67.884 L 555.639,67.885 z M 485.505,98.212 C 480.979,100.859 475.079,102.233 467.743,102.233 C 460.43,102.233 454.572,100.86 450.061,98.212 C 445.535,95.519 443.57,92.429 443.545,88.581 C 443.569,84.791 445.534,81.709 450.061,79.019 C 454.572,76.368 460.439,74.991 467.743,74.991 C 475.039,74.991 480.922,76.38 485.48,79.054 C 490.059,81.77 492.036,84.839 492.06,88.581 C 492.036,92.428 490.059,95.514 485.505,98.212 M 493.253,72.786 C 486.558,68.79 478.032,66.839 467.743,66.839 C 457.525,66.839 449.037,68.79 442.353,72.786 C 435.681,76.736 432.059,82.119 432.08,88.545 C 432.059,94.986 435.705,100.383 442.417,104.375 C 449.141,108.412 457.613,110.393 467.743,110.393 C 477.944,110.393 486.457,108.43 493.184,104.408 C 499.9,100.446 503.558,95.033 503.534,88.546 C 503.559,82.119 499.933,76.736 493.253,72.786 M 408.683,109.173 L 420.15,109.173 L 420.15,67.704 L 408.683,67.704 L 408.683,109.173 z M 375.564,84.098 L 346.829,84.098 L 346.829,76.215 L 375.564,76.215 C 378.57,76.211 380.731,76.659 381.972,77.356 C 383.197,78.085 383.613,78.793 383.653,80.122 C 383.613,81.491 383.188,82.211 381.964,82.949 C 380.731,83.65 378.57,84.102 375.564,84.098 M 390.753,88.291 C 393.566,86.138 395.144,83.31 395.127,80.13 C 395.159,76.324 393.158,73.131 389.616,71.098 C 386.07,69.025 381.344,68.062 375.436,68.058 L 335.371,68.058 L 335.371,109.174 L 346.829,109.174 L 346.829,92.253 L 369.457,92.253 L 385.462,109.174 L 398.434,109.174 L 382.469,91.835 C 385.71,91.204 388.483,90.031 390.753,88.291 M 307.291,97.536 C 303.758,99.807 298.739,101.015 292.215,101.015 L 277.19,101.015 L 277.19,76.043 L 292.215,76.047 C 298.459,76.047 303.405,77.298 307.088,79.679 L 307.088,79.675 C 310.793,82.118 312.414,84.92 312.446,88.564 C 312.414,92.409 310.825,95.236 307.291,97.536 M 314.855,73.494 C 308.936,69.724 301.292,67.886 291.983,67.886 L 265.726,67.886 L 265.726,109.174 L 291.983,109.174 C 301.484,109.174 309.18,107.409 315.007,103.761 C 320.83,100.152 323.944,94.967 323.911,88.696 C 323.944,82.445 320.759,77.232 314.855,73.494 M 237.613,93.836 L 203.581,68.02 L 197.332,67.848 L 197.332,109.174 L 208.63,109.174 L 208.63,83.401 L 242.592,109.174 L 248.908,109.174 L 248.908,67.886 L 237.613,67.886 L 237.613,93.836 L 237.613,93.836 z M 141.066,91.384 L 169.832,91.384 L 169.832,83.223 L 141.071,83.223 L 141.071,76.043 L 184.951,76.043 L 184.951,67.885 L 129.595,67.885 L 129.595,109.173 L 187.393,109.173 L 187.393,101.015 L 141.066,101.015 L 141.066,91.384 z M 121.674,68.057 L 105.039,68.057 L 76.958,84.228 L 76.958,68.057 L 65.496,68.057 L 65.496,109.173 L 76.958,109.173 L 76.958,94.055 L 87.239,88.138 L 110.232,109.173 L 123.861,109.173 L 95.596,83.301 L 121.674,68.057 z M 30.606,65.254 C 39.683,27.272 166.602,20.08 313.747,49.049 C 314.344,49.165 314.916,49.279 315.512,49.405 C 151.811,6.197 17.652,5.277 6.123,44.598 C 1.066,61.856 23.471,85.47 61.363,108.641 C 40.418,93.805 27.569,77.995 30.606,65.254 M 514.976,121.924 C 534.659,134.723 542.499,145.965 539.65,156.951 C 537.308,165.912 526.603,172.884 509.433,177.778 C 458.925,190.089 361.449,184.177 256.87,163.182 C 208.117,153.397 166.541,142.867 128.584,128.959 C 165.57,143.875 204.577,155.953 250.198,168.137 C 403.595,209.127 539.894,214.066 560.865,179.239 C 571.264,159.557 550.58,141.931 514.976,121.924" stroke="black" style="fill:#000000;"/>
	
  
	
	

</svg>