<?xml version="1.0" encoding="iso-8859-1"?><!-- Generator: Adobe Illustrator 16.0.0, SVG Export Plug-In . SVG Version: 6.00 Build 0)  --><!DOCTYPE svg  PUBLIC '-//W3C//DTD SVG 1.1//EN'  'http://www.w3.org/Graphics/SVG/1.1/DTD/svg11.dtd'><svg enable-background="new 0 0 177.17 34.02" height="34.02px" id="Ebene_1" version="1.1" viewBox="0 0 177.17 34.02" width="177.17px" x="0px" xml:space="preserve" xmlns="http://www.w3.org/2000/svg" xmlns:xlink="http://www.w3.org/1999/xlink" y="0px">
	

	<g>
		
	
		<g>
			
		
			<defs>
				
			
				
				
		
			</defs>
			
		
			<clipPath id="SVGID_2_">
				
			
				<use overflow="visible" xlink:href="#SVGID_1_"/>
				
		
			</clipPath>
			
		
			<path animation_id="0" clip-path="url(#SVGID_2_)" d="M32.454,2.18h-6.405v16.291h6.405v-6.908l4.211,6.908h7.648l-6.143-8.659L43.79,2.18h-7.294    l-3.993,6.395L32.454,2.18z M162.853,18.467h6.409v-5.81h7.65v-3.92h-7.65V6.098h7.891v-3.92h-14.3V18.467z M146.905,18.469h6.405    v-5.812h7.652v-3.92h-7.652V6.098h7.891v-3.92h-14.296V18.469z M133.592,10.325c0-1.518,0.189-4.507,2.557-4.507    c2.438,0,2.606,2.989,2.632,4.507c-0.025,1.749-0.1,4.504-2.632,4.504C133.854,14.829,133.592,12.074,133.592,10.325     M145.474,10.322c0-5.46-3.491-8.425-9.329-8.425c-5.83,0-9.248,2.965-9.248,8.428c0.002,5.555,3.418,8.425,9.252,8.425    S145.474,15.88,145.474,10.322 M118.842,7.802h-4.281V2.18h-6.409v16.289h6.409v-5.858h4.281v5.858h6.407V2.178l-6.407,0.001    V7.802z M99.359,7.802H95.08V2.18h-6.409v16.289h6.409v-5.858h4.279v5.858h6.411L105.767,2.18h-6.407V7.802z M87.026,13.778    c-1.172,0.397-2.297,0.631-3.466,0.631c-2.653,0-4.568-1.424-4.568-4.225c0-2.66,2.058-4.085,4.783-4.085    c1.076,0,2.151,0.279,3.204,0.607V2.412c-1.721-0.304-2.773-0.513-4.543-0.513c-5.355,0-9.994,2.731-9.994,8.193    c0,5.811,4.447,8.658,9.995,8.658c1.625,0,3.396-0.328,4.592-0.654L87.026,13.778z M60.493,5.82h1.769    c1.291,0,2.511,0.208,2.511,1.68c0,1.657-1.292,1.798-2.606,1.798h-1.674V5.82z M54.372,18.469h6.408v-5.529h1.434    c0.789,0,1.437,0.093,1.818,0.839c0.524,0.981,0.597,3.527,0.886,4.69h6.67c-0.67-1.585-0.599-4.106-1.579-5.833    c-0.597-0.861-1.434-1.518-2.821-1.75c2.393-0.606,3.992-1.866,3.992-4.366c0-3.128-2.462-4.34-6.455-4.34H54.372V18.469z     M45.769,2.18v16.291l6.41-0.002L52.176,2.18H45.769z" stroke="black"/>
			
		
			
			
		
			
			
		
			
			
	
		</g>
		

	</g>
	

	<g>
		
	
		<defs>
			
		
			
			
	
		</defs>
		
	
		<clipPath id="SVGID_4_">
			
		
			<use overflow="visible" xlink:href="#SVGID_3_"/>
			
	
		</clipPath>
		

	</g>
	

	<g>
		
	
		<defs>
			
		
			
			
	
		</defs>
		
	
		<clipPath id="SVGID_6_">
			
		
			<use overflow="visible" xlink:href="#SVGID_5_"/>
			
	
		</clipPath>
		
	
		
		

	</g>
	

</svg>