<?xml version="1.0" encoding="iso-8859-1"?><svg height="304.03448" id="svg3362" version="1.1" width="593.5" xmlns="http://www.w3.org/2000/svg" xmlns:svg="http://www.w3.org/2000/svg">
	
  
	<defs id="defs3364"/>
	
  
	<g id="layer1" transform="translate(-53.25,-380.34494)">
		
    
		
		
    
		<path animation_id="1" d="m 266.76517,573.98555 -29.7386,0 -43.54308,38.27745 0,-78.77094 -20.2747,0 0,141.27233 20.2747,0 0,-36.3613 11.08527,-9.73836 35.43625,46.09966 26.50095,0 -46.11999,-60.0058 m 375.84689,60.0058 20.2747,0 0,-141.27233 -20.2747,0 0,141.27233 z m -60.22435,-82.52704 c 12.11704,0 22.71438,6.50071 28.57975,16.16791 l -57.1595,0 c 5.86538,-9.6672 16.46271,-16.16791 28.57975,-16.16791 m 53.5864,36.4782 0.0152,-0.71157 c 0.0356,-0.78273 0.10675,-1.55022 0.10675,-2.3431 0,-29.60645 -24.09685,-53.69823 -53.70838,-53.69823 -29.61154,0 -53.70839,24.09178 -53.70839,53.69823 0,29.6217 24.09685,53.70838 53.70839,53.70838 20.22896,0 37.86576,-11.24791 47.0247,-27.80718 l -17.47924,-10.29747 c -5.61634,10.59225 -16.74734,17.82995 -29.54546,17.82995 -17.403,0 -31.72592,-13.37246 -33.27613,-30.37901 l 66.53193,0 m -177.8318,-3.04451 c 0,-18.43478 14.99891,-33.4286 33.43368,-33.4286 18.43479,0 33.4286,14.99382 33.4286,33.4286 0,18.43477 -14.99381,33.43369 -33.4286,33.43369 -18.43477,0 -33.43368,-14.99892 -33.43368,-33.43369 m -19.5123,49.09334 20.2747,0 0,-6.5617 c 9.06236,6.9734 20.37127,11.17675 32.67128,11.17675 29.61662,0 53.70332,-24.09178 53.70332,-53.70839 0,-29.61154 -24.0867,-53.70331 -53.70332,-53.70331 -12.30001,0 -23.60892,4.1932 -32.67128,11.17676 l 0,-49.65244 -20.2747,0 m -65.67297,125.61268 c -18.43477,0 -33.43369,-14.99892 -33.43369,-33.43369 0,-18.4297 14.99892,-33.4286 33.43369,-33.4286 18.43478,0 33.43369,14.9989 33.43369,33.4286 0,18.43477 -14.99891,33.43369 -33.43369,33.43369 m 52.95108,-84.69733 -20.27979,0 0,8.73709 c -9.06236,-6.98356 -20.37126,-11.17676 -32.67129,-11.17676 -29.61661,0 -53.70839,24.09177 -53.70839,53.70331 0,29.61661 24.09178,53.70839 53.70839,53.70839 12.30003,0 23.60893,-4.20335 32.67129,-11.17675 l 0,6.5617 20.27979,0" id="path114" stroke="black" style="fill:#9d9d9d;fill-opacity:1;fill-rule:nonzero;"/>
		
  
	</g>
	

</svg>