<?xml version="1.0" encoding="iso-8859-1"?><!-- Generator: Adobe Illustrator 22.1.0, SVG Export Plug-In . SVG Version: 6.00 Build 0)  --><svg id="Ebene_1" style="enable-background:new 0 0 545 174.9;" version="1.1" viewBox="0 0 545 174.9" x="0px" xml:space="preserve" xmlns="http://www.w3.org/2000/svg" xmlns:xlink="http://www.w3.org/1999/xlink" y="0px">
	

	<style type="text/css">
	.st0{fill:#181715;}
	.st1{fill:#27529C;}
</style>
	

	<g>
		
	
		
		
	
		
		
	
		
		
	
		
		
	
		
		
	
		
		
	
		
		
	
		
		
	
		<g>
			
		
			
			
		
			
			
		
			
			
		
			
			
		
			
			
		
			
			
		
			
			
		
			
			
		
			
			
		
			
			
		
			
			
		
			
			
		
			<path animation_id="14" class="st1" d="M441.9,152.5c-0.1,0.5-0.2,1.4-0.2,2c0,2.7,1,3.4,3.9,3.4c1.8,0,3.8-0.4,5.5-1.1l0.1,3.3    c-2.1,0.8-4.5,1.3-7,1.3c-4.7,0-6.7-2.1-6.7-6.5c0-7.8,4.5-13.8,10.8-13.8c4.5,0,6,2.3,6,4.6C454.4,149.9,450,152.2,441.9,152.5z     M447.9,144.1c-2.8,0-4.7,2.5-5.5,5.5c5.3-0.2,7.8-1.3,7.8-3.5C450.3,144.8,449.4,144.1,447.9,144.1z" stroke="black"/>
			
		
			
			
		
			
			
		
			
			
		
			
			
		
			
			
	
		</g>
		

	</g>
	

</svg>