<?xml version="1.0" encoding="iso-8859-1"?><!-- Generator: Adobe Illustrator 22.1.0, SVG Export Plug-In . SVG Version: 6.00 Build 0)  --><svg id="Ebene_1" style="enable-background:new 0 0 545 174.9;" version="1.1" viewBox="0 0 545 174.9" x="0px" xml:space="preserve" xmlns="http://www.w3.org/2000/svg" xmlns:xlink="http://www.w3.org/1999/xlink" y="0px">
	

	<style type="text/css">
	.st0{fill:#181715;}
	.st1{fill:#27529C;}
</style>
	

	<g>
		
	
		
		
	
		
		
	
		
		
	
		
		
	
		
		
	
		
		
	
		
		
	
		
		
	
		<g>
			
		
			
			
		
			
			
		
			
			
		
			
			
		
			
			
		
			
			
		
			
			
		
			
			
		
			
			
		
			
			
		
			
			
		
			<path animation_id="13" class="st1" d="M431.8,153.8c-0.2,1-1.1,6-1.3,7.1h-4c0.3-1.6,1-3.9,2-7.1l-0.1,0c-1.5,2.9-4.3,7.6-8.7,7.6    c-2.9,0-4.4-1.9-4.4-6c0-7.3,3.8-14.2,12.4-14.2c0.8,0,1.5,0,2.4,0.2l1.7-9h4.2L431.8,153.8z M427,144.3c-5.2,0-7.4,5.7-7.4,10.2    c0,2.2,0.7,3.2,1.8,3.2c3.3,0,7-7.2,7.9-11.6l0.3-1.4C428.8,144.4,428,144.3,427,144.3z" stroke="black"/>
			
		
			
			
		
			
			
		
			
			
		
			
			
		
			
			
		
			
			
	
		</g>
		

	</g>
	

</svg>