<?xml version="1.0" encoding="iso-8859-1"?><!-- Generator: Adobe Illustrator 22.1.0, SVG Export Plug-In . SVG Version: 6.00 Build 0)  --><svg id="Ebene_1" style="enable-background:new 0 0 545 174.9;" version="1.1" viewBox="0 0 545 174.9" x="0px" xml:space="preserve" xmlns="http://www.w3.org/2000/svg" xmlns:xlink="http://www.w3.org/1999/xlink" y="0px">
	

	<style type="text/css">
	.st0{fill:#181715;}
	.st1{fill:#27529C;}
</style>
	

	<g>
		
	
		
		
	
		
		
	
		
		
	
		
		
	
		
		
	
		
		
	
		
		
	
		
		
	
		<g>
			
		
			<path animation_id="2" class="st1" d="M158.1,144.6c-0.9-0.3-1.8-0.4-2.8-0.4c-2.3,0-3.5,1-3.5,2.5c0,2.8,5.5,3.8,5.5,8.1c0,3.3-2.9,6.5-8.6,6.5    c-1.3,0-2.4-0.1-3.3-0.3l0.7-3.6c1,0.4,2,0.5,3.1,0.5c2.3,0,3.8-0.9,3.8-2.7c0-2.9-5.5-3.4-5.5-8.1c0-3.4,2.7-6.1,8-6.1    c1.3,0,2.4,0.1,3.3,0.3L158.1,144.6z" stroke="black"/>
			
		
			
			
		
			
			
		
			
			
		
			
			
		
			
			
		
			
			
		
			
			
		
			
			
		
			
			
		
			
			
		
			
			
		
			
			
		
			
			
		
			
			
		
			
			
		
			
			
		
			
			
	
		</g>
		

	</g>
	

</svg>