<?xml version="1.0" encoding="iso-8859-1"?><svg viewBox="0 0 1576 615.1" xmlns="http://www.w3.org/2000/svg" xmlns:xlink="http://www.w3.org/1999/xlink">
	
  
	<defs>
		
    
		<path animation_id="0" d="M13.7 454.1c.1 0 .3-.1.4-.1.7-.2.6-.2 0 0-.4.1-.7.3-1 .4l-.7.3c-3 1.7-4.6 5.3-3.5 8.7.2.6.5 1.2.9 1.7.3.4.6.7.8 1.1.4.4.7.8 1.2 1.2.3.2.1.1-.4-.1 4.1 5.6 9.3 10.4 15.5 14l221 127c8 4.6 17 6.9 25.9 6.9 8.9 0 17.9-2.4 25.9-7.1l209.8-122.6c1.2-.9 2.2-2.2 2.7-3.8 1.2-4-1.1-8.2-5.2-9.3-.6-.2-.7-.2 0 0 .5.1 1.4.4 2.5.7L272 330.3 13.7 454.1zm521.4-250c-.8.3-1.5.7-2.2 1.2-.2.2-.2.1.1-.2l-212.8 102 213.3 100.8c-.6-.6-.8-.9-.5-.6 1.3 1 2.9 1.6 4.7 1.6 3.2 0 6-2 7.1-4.9V208.5c-1.1-2.8-3.9-4.8-7.1-4.8-1 0-1.8.1-2.6.4M.3 176.8c-.1 1.3-.3 2.7-.3 4l1 255.6c0 1.1.2 2.3.2 3.4 1.2 2.6 3.9 4.3 6.9 4.3 1.8 0 3.4-.6 4.7-1.6.3-.2.1 0-.4.5l221.8-135.5L11.5 173.6c.5.5.6.7.3.4-1.3-1-2.9-1.6-4.7-1.6-3 .1-5.6 1.8-6.8 4.4M245.8 7.1L25.7 135.7c-7.5 4.4-13.5 10.6-17.9 17.8-.8 3 .3 6.1 2.7 7.9l261.4 123.1 235.5-143.9c-.6.2-1 .3-1.4.4-.1 0-.2.1-.2.1-.8.2-.6.2.2-.1 3.9-1.3 6.1-5.4 4.9-9.3-.5-1.6-1.5-2.8-2.7-3.8L297.6 6.9c-8-4.6-17-6.9-25.9-6.9-9 0-17.9 2.4-25.9 7.1" id="a" stroke="black"/>
		
  
	</defs>
	
  
	<linearGradient gradientUnits="userSpaceOnUse" id="b" x1="525.265" x2="-66.549" y1="307.552" y2="307.552">
		
    
		<stop offset="0" stop-color="#0e86c8"/>
		
    
		<stop offset="1" stop-color="#38bde4"/>
		
  
	</linearGradient>
	
  
	<use fill="url(#b)" overflow="visible" xlink:href="#a"/>
	
  
	<clipPath id="c">
		
    
		<use overflow="visible" xlink:href="#a"/>
		
  
	</clipPath>
	
  
	<linearGradient gradientUnits="userSpaceOnUse" id="d" x1="525.965" x2="-66.639" y1="307.555" y2="307.555">
		
    
		<stop offset="0" stop-color="#0e86c8"/>
		
    
		<stop offset="1" stop-color="#38bde4"/>
		
  
	</linearGradient>
	
  
	
	
  
	<g>
		
    
		
		
  
	</g>
	

</svg>