<?xml version="1.0" encoding="iso-8859-1"?><!-- Generator: Adobe Illustrator 16.0.0, SVG Export Plug-In . SVG Version: 6.00 Build 0)  --><!DOCTYPE svg  PUBLIC '-//W3C//DTD SVG 1.1//EN'  'http://www.w3.org/Graphics/SVG/1.1/DTD/svg11.dtd'><svg enable-background="new 0 0 1004 425" height="425px" id="Ebene_1" version="1.1" viewBox="0 0 1004 425" width="1004px" x="0px" xml:space="preserve" xmlns="http://www.w3.org/2000/svg" xmlns:xlink="http://www.w3.org/1999/xlink" y="0px">
	

	
	

	
	

	
	

	
	

	
	

	
	

	
	

	<g>
		
	
		
		
	
		
		
	
		<path animation_id="9" d="M632.182,325.902c7.339-13.828,15.664-23.417,21.305-23.417c2.395,0,4.799,1.691,6.069,3.665   c0.987,1.691,0.987,4.094-0.139,5.924c-0.995,1.699-2.403,3.244-3.812,4.231c-1.132,0.85-2.265,0.711-3.106,0   c-1.554-1.546-3.107-2.395-4.653-2.395c-1.698,0-3.947,1.553-7.199,6.068c-3.1,4.369-7.478,11.004-10.156,17.355   c-2.12,9.451-3.813,18.198-5.647,27.511c-2.962,0.565-6.772,1.553-10.018,2.541l-0.986-0.988   c3.527-15.098,7.621-32.453,10.3-47.407c0.842-4.798,0.704-6.205-0.283-6.205c-1.271,0-5.923,2.961-10.017,6.764l-1.975-3.244   c7.197-7.897,15.947-13.82,19.751-13.82c3.665,0,3.811,6.489,1.691,16.361l-1.546,7.056H632.182z" fill="#BA6C2F" stroke="black"/>
		
	
		
		
	
		
		
	
		
		
	
		
		

	</g>
	

</svg>