<?xml version="1.0" encoding="iso-8859-1"?><!-- Generator: Adobe Illustrator 16.0.0, SVG Export Plug-In . SVG Version: 6.00 Build 0)  --><!DOCTYPE svg  PUBLIC '-//W3C//DTD SVG 1.1//EN'  'http://www.w3.org/Graphics/SVG/1.1/DTD/svg11.dtd'><svg enable-background="new 0 0 1004 425" height="425px" id="Ebene_1" version="1.1" viewBox="0 0 1004 425" width="1004px" x="0px" xml:space="preserve" xmlns="http://www.w3.org/2000/svg" xmlns:xlink="http://www.w3.org/1999/xlink" y="0px">
	

	
	

	
	

	
	

	
	

	
	

	
	

	
	

	<g>
		
	
		
		
	
		
		
	
		
		
	
		
		
	
		
		
	
		
		
	
		<path animation_id="13" d="M970.295,274.263c-0.421,2.54-1.691,13.261-2.679,21.588l-4.094,0.283c0-5.364-0.283-9.597-1.829-12.421   c-1.416-3.244-3.246-4.652-13.691-4.652h-11.005c-4.798,0-5.08,0.422-6.067,5.785l-6.069,30.473h13.69   c11.709,0,12.696-0.986,16.087-10.3h4.085l-5.355,26.814h-4.094c0.282-10.018,0.282-11.012-11.992-11.012h-13.407l-4.652,24.693   c-1.555,8.181-1.409,11.855,0.566,13.545c2.112,1.692,6.344,1.976,14.248,1.976c10.584,0,14.671-1.125,18.627-4.799   c3.382-3.244,6.626-8.464,9.589-13.545l3.956,1.416c-1.555,3.804-6.919,17.349-9.03,21.725h-66.034l0.85-3.81   c11.563-0.987,12.695-1.691,14.808-13.116l11.287-57.854c2.121-11.287,1.416-11.992-10.153-12.979l1.124-3.811H970.295z" fill="#BA6C2F" stroke="black"/>
		

	</g>
	

</svg>