<?xml version="1.0" encoding="iso-8859-1"?><!-- Generator: Adobe Illustrator 16.0.0, SVG Export Plug-In . SVG Version: 6.00 Build 0)  --><!DOCTYPE svg  PUBLIC '-//W3C//DTD SVG 1.1//EN'  'http://www.w3.org/Graphics/SVG/1.1/DTD/svg11.dtd'><svg enable-background="new 0 0 1004 425" height="425px" id="Ebene_1" version="1.1" viewBox="0 0 1004 425" width="1004px" x="0px" xml:space="preserve" xmlns="http://www.w3.org/2000/svg" xmlns:xlink="http://www.w3.org/1999/xlink" y="0px">
	

	
	

	
	

	
	

	
	

	
	

	
	

	<path animation_id="6" d="M416.069,218.949c0.245-3.803,0.368-7.66,0.368-11.868c0-108.774-88.743-196.946-198.217-196.946  c-109.478,0-198.224,88.172-198.224,196.946c0,3.268-0.008,6.52,0.172,9.757c-0.077,16.629,34.291-0.337,33.877-10.592  c0.452-89.718,73.767-162.302,164.174-162.302c90.683,0,164.178,73.036,164.178,163.137c0,5.624-0.313,10.545-0.697,15.542  C380.798,235.625,414.902,232.318,416.069,218.949" fill="#0080C9" stroke="black"/>
	

	<g>
		
	
		
		
	
		
		
	
		
		
	
		
		
	
		
		
	
		
		
	
		
		

	</g>
	

</svg>