<?xml version="1.0" encoding="iso-8859-1"?><!-- Generator: Adobe Illustrator 16.0.0, SVG Export Plug-In . SVG Version: 6.00 Build 0)  --><!DOCTYPE svg  PUBLIC '-//W3C//DTD SVG 1.1//EN'  'http://www.w3.org/Graphics/SVG/1.1/DTD/svg11.dtd'><svg enable-background="new 0 0 1004 425" height="425px" id="Ebene_1" version="1.1" viewBox="0 0 1004 425" width="1004px" x="0px" xml:space="preserve" xmlns="http://www.w3.org/2000/svg" xmlns:xlink="http://www.w3.org/1999/xlink" y="0px">
	

	
	

	
	

	
	

	
	

	
	

	
	

	
	

	<g>
		
	
		
		
	
		
		
	
		
		
	
		
		
	
		<path animation_id="11" d="M755.748,325.902c7.331-13.828,15.655-23.417,21.305-23.417c2.395,0,4.79,1.691,6.061,3.665   c0.993,1.691,0.993,4.094-0.138,5.924c-0.987,1.699-2.403,3.244-3.812,4.231c-1.134,0.85-2.258,0.711-3.106,0   c-1.546-1.546-3.1-2.395-4.654-2.395c-1.69,0-3.947,1.553-7.193,6.068c-3.105,4.369-7.483,11.004-10.161,17.355   c-2.113,9.451-3.811,18.198-5.641,27.511c-2.961,0.565-6.772,1.553-10.018,2.541l-0.995-0.988   c3.537-15.098,7.623-32.453,10.302-47.407c0.85-4.798,0.711-6.205-0.276-6.205c-1.271,0-5.924,2.961-10.025,6.764l-1.973-3.244   c7.2-7.897,15.947-13.82,19.759-13.82c3.665,0,3.811,6.489,1.691,16.361l-1.554,7.056H755.748z" fill="#BA6C2F" stroke="black"/>
		
	
		
		
	
		
		

	</g>
	

</svg>