<?xml version="1.0" encoding="iso-8859-1"?><!-- Generator: Adobe Illustrator 16.0.0, SVG Export Plug-In . SVG Version: 6.00 Build 0)  --><!DOCTYPE svg  PUBLIC '-//W3C//DTD SVG 1.1//EN'  'http://www.w3.org/Graphics/SVG/1.1/DTD/svg11.dtd'><svg enable-background="new 0 0 1004 425" height="425px" id="Ebene_1" version="1.1" viewBox="0 0 1004 425" width="1004px" x="0px" xml:space="preserve" xmlns="http://www.w3.org/2000/svg" xmlns:xlink="http://www.w3.org/1999/xlink" y="0px">
	

	
	

	
	

	
	

	
	

	
	

	
	

	
	

	<g>
		
	
		<path animation_id="7" d="M533.889,365.832h-33.297l0.987-3.81c9.733-0.987,10.3-2.542,9.455-8.602   c-0.85-5.931-2.12-12.703-3.527-20.885h-29.49c-2.398,4.517-6.631,12.696-9.737,19.186c-4.09,8.464-3.104,9.459,7.622,10.301   l-0.85,3.81h-30.335l0.987-3.81c8.751-1.126,10.158-1.837,16.79-13.545l42.33-75.202l4.373-1.125l3.953,25.107   c2.819,18.061,5.922,35.699,9.029,52.49c1.691,10.162,2.679,11.287,12.695,12.274L533.889,365.832z M501.013,290.211h-0.278   c-7.057,12.833-13.546,24.549-19.615,36.395h25.537L501.013,290.211z" fill="#BA6C2F" stroke="black"/>
		
	
		
		
	
		
		
	
		
		
	
		
		
	
		
		
	
		
		

	</g>
	

</svg>