<?xml version="1.0" encoding="iso-8859-1"?><!-- Generator: Adobe Illustrator 16.0.0, SVG Export Plug-In . SVG Version: 6.00 Build 0)  --><!DOCTYPE svg  PUBLIC '-//W3C//DTD SVG 1.1//EN'  'http://www.w3.org/Graphics/SVG/1.1/DTD/svg11.dtd'><svg enable-background="new 0 0 1004 425" height="425px" id="Ebene_1" version="1.1" viewBox="0 0 1004 425" width="1004px" x="0px" xml:space="preserve" xmlns="http://www.w3.org/2000/svg" xmlns:xlink="http://www.w3.org/1999/xlink" y="0px">
	

	<path animation_id="0" d="M961.257,123.462h-74.91v33.885h28.269v35.415c-4.417,2.053-10.639,3.085-17.12,3.085  c-35.254,0-60.401-21.305-60.401-56.468c0-41.837,32.157-58.007,71.284-58.007c11.41,0,29.041,2.824,44.071,11.548l3.88-39.005  c-17.625-6.673-42.764-7.966-54.678-7.966c-66.363,0-114.314,25.927-114.314,93.43c0,67.756,55.711,91.876,103.937,91.876  c16.599,0,39.411-0.505,69.983-8.211V123.462z M681.052,228.179h48.218V84.448h44.6V49.04H636.476v35.408h44.576V228.179z   M462.808,228.179h48.215v-81.361h0.517l56.258,81.361h61.423l-72.067-95.725l66.864-83.414h-58.049l-54.429,73.143h-0.517V49.04  h-48.215V228.179z" fill="#0080C9" stroke="black"/>
	

	
	

	
	

	
	

	
	

	
	

	
	

	<g>
		
	
		
		
	
		
		
	
		
		
	
		
		
	
		
		
	
		
		
	
		
		

	</g>
	

</svg>