<?xml version="1.0" encoding="iso-8859-1"?><!-- Created with Inkscape (http://www.inkscape.org/) --><svg height="280" id="svg2" version="1.0" width="500" xmlns="http://www.w3.org/2000/svg" xmlns:svg="http://www.w3.org/2000/svg">
	
  
	<defs id="defs4"/>
	
  
	
	
  
	<g id="g2578" transform="matrix(0.5,0,0,0.5,35.33839,-320.72622)">
		
    
		
		
    
		
		
    
		
		
    
		
		
    
		
		
    
		
		
    
		
		
    
		
		
    
		
		
    
		
		
    
		<path animation_id="6" d="M 583.24259,1176.6968 L 583.12107,1176.7867 L 582.99954,1176.8742 L 582.75649,1177.0412 L 582.51343,1177.1985 L 582.3051,1177.3462 L 582.07941,1177.4848 L 581.88844,1177.6143 L 581.68011,1177.7351 L 581.50649,1177.8475 L 581.31552,1177.9518 L 581.15927,1178.0485 L 580.98566,1178.1376 L 580.82942,1178.2195 L 580.69053,1178.2945 L 580.55164,1178.3629 L 580.41275,1178.4251 L 580.29122,1178.4813 L 580.15234,1178.5317 L 580.04817,1178.5768 L 579.92664,1178.6167 L 579.82248,1178.6518 L 579.71831,1178.6823 L 579.61415,1178.7087 L 579.52734,1178.7313 L 579.44054,1178.7501 L 579.33637,1178.7657 L 579.24956,1178.778 L 579.09332,1178.7952 L 578.93707,1178.8037 L 578.78082,1178.806 C 577.56555,1178.806 576.83639,1178.0735 576.83639,1176.2086 L 576.83639,1159.146 C 576.83639,1150.9395 570.41282,1147.7728 560.98579,1147.7728 C 555.04833,1147.7728 549.61434,1149.3127 544.7359,1152.3231 L 544.7359,1161.9064 C 548.48587,1158.0887 553.83306,1155.653 558.55525,1155.653 C 563.67675,1155.653 565.29132,1158.4134 565.04827,1161.9064 C 549.37128,1166.7814 542.79146,1168.573 542.79146,1177.5039 C 542.79146,1182.217 547.25324,1186.6862 553.26015,1186.6862 C 557.32262,1186.6862 561.0726,1185.5537 565.62118,1182.4613 C 566.43715,1185.4722 568.29477,1186.6862 572.201,1186.6862 C 575.3607,1186.6862 579.99609,1185.2214 583.24259,1183.275 L 583.24259,1176.6968 z M 565.04827,1176.8528 L 564.68369,1177.1799 L 564.30174,1177.4893 L 563.9198,1177.7804 L 563.5205,1178.0532 L 563.1212,1178.3068 L 562.72189,1178.5409 L 562.30523,1178.7549 L 561.88856,1178.9483 L 561.68023,1179.0372 L 561.4719,1179.1209 L 561.26357,1179.1992 L 561.05524,1179.2719 L 560.8469,1179.3393 L 560.63857,1179.4011 L 560.43024,1179.4573 L 560.22191,1179.5079 L 560.01358,1179.5527 L 559.80525,1179.5917 L 559.59691,1179.6249 L 559.38858,1179.6521 L 559.16289,1179.6735 L 558.97192,1179.6888 L 558.76359,1179.698 L 558.55525,1179.7011 C 556.43721,1179.7011 554.73583,1177.9108 554.73583,1175.7202 C 554.73583,1171.9836 558.06914,1170.356 565.04827,1167.8404 L 565.04827,1176.8528 z" id="path2436" stroke="black"/>
		
    
		
		
    
		
		
    
		
		
    
		
		
    
		
		
    
		
		
    
		
		
    
		
		
    
		
		
  
	</g>
	

</svg>