<?xml version="1.0" encoding="iso-8859-1"?><!-- Created with Inkscape (http://www.inkscape.org/) --><svg height="280" id="svg2" version="1.0" width="500" xmlns="http://www.w3.org/2000/svg" xmlns:svg="http://www.w3.org/2000/svg">
	
  
	<defs id="defs4"/>
	
  
	
	
  
	<g id="g2578" transform="matrix(0.5,0,0,0.5,35.33839,-320.72622)">
		
    
		
		
    
		
		
    
		
		
    
		
		
    
		
		
    
		
		
    
		
		
    
		
		
    
		
		
    
		
		
    
		
		
    
		
		
    
		
		
    
		<path animation_id="9" d="M 772.84208,1167.271 L 772.84208,1166.6026 L 772.80735,1165.9498 L 772.70319,1164.6807 L 772.54694,1163.4654 L 772.32125,1162.3022 L 772.02611,1161.1911 L 771.67889,1160.1304 L 771.29695,1159.1182 L 770.84556,1158.1564 L 770.35945,1157.2415 L 769.8039,1156.3752 L 769.23099,1155.554 L 768.60599,1154.7797 L 767.94627,1154.0506 L 767.25183,1153.3665 L 766.52267,1152.7259 L 765.75879,1152.1287 L 764.97754,1151.5714 L 764.17894,1151.0575 L 763.34561,1150.5836 L 762.49492,1150.1495 L 761.62687,1149.7554 L 760.74146,1149.3978 L 759.85605,1149.0784 L 758.95328,1148.7971 L 758.0505,1148.5506 L 757.14773,1148.3405 L 756.24496,1148.1634 L 755.34219,1148.0211 L 754.43942,1147.9117 L 753.554,1147.8336 L 752.66859,1147.7884 L 751.80054,1147.7728 C 740.75895,1147.7728 730.5854,1154.4325 730.5854,1167.1894 C 730.5854,1178.9686 739.52632,1186.6862 751.80054,1186.6862 C 760.08174,1186.6862 772.84208,1182.1358 772.84208,1167.271 z M 760.25535,1166.9446 L 760.23799,1167.7033 L 760.22063,1168.4411 L 760.16855,1169.1564 L 760.11646,1169.8491 L 760.02966,1170.5202 L 759.94285,1171.1692 L 759.83869,1171.7958 L 759.6998,1172.3999 L 759.56091,1172.9812 L 759.40466,1173.5397 L 759.23105,1174.0749 L 759.04008,1174.5871 L 758.81439,1175.0758 L 758.58869,1175.541 L 758.363,1175.9825 L 758.10259,1176.4002 L 757.82481,1176.7938 L 757.52967,1177.1631 L 757.21718,1177.5081 L 756.90468,1177.8285 L 756.55746,1178.1244 L 756.21024,1178.3952 L 755.84566,1178.6412 L 755.44635,1178.8619 L 755.04705,1179.0572 L 754.63039,1179.2271 L 754.19636,1179.3712 L 753.74498,1179.4896 L 753.27623,1179.5818 L 752.80748,1179.648 L 752.30401,1179.6877 L 751.80054,1179.7011 C 747.32141,1179.7011 743.18949,1176.8528 743.18949,1167.1894 C 743.18949,1158.7398 746.67905,1154.7589 751.80054,1154.7589 C 757.73801,1154.7589 760.25535,1159.6339 760.25535,1166.9446 z" id="path2448" stroke="black"/>
		
    
		
		
    
		
		
    
		
		
    
		
		
    
		
		
    
		
		
  
	</g>
	

</svg>