<?xml version="1.0" encoding="iso-8859-1"?><!-- Created with Inkscape (http://www.inkscape.org/) --><svg height="280" id="svg2" version="1.0" width="500" xmlns="http://www.w3.org/2000/svg" xmlns:svg="http://www.w3.org/2000/svg">
	
  
	<defs id="defs4"/>
	
  
	
	
  
	<g id="g2578" transform="matrix(0.5,0,0,0.5,35.33839,-320.72622)">
		
    
		
		
    
		<path animation_id="0" d="M 73.797939,1185.9538 L 85.577377,1185.9538 L 85.577377,1148.4985 L 73.797939,1148.4985 L 73.797939,1185.9538 z M 79.643388,1129.8146 L 79.310056,1129.8233 L 78.981933,1129.8493 L 78.657283,1129.891 L 78.33784,1129.9483 L 78.023606,1130.0212 L 77.716317,1130.108 L 77.415971,1130.2104 L 77.120834,1130.3285 L 76.832642,1130.4587 L 76.553129,1130.6028 L 76.280562,1130.759 L 76.016675,1130.9292 L 75.761468,1131.1115 L 75.516678,1131.3042 L 75.280568,1131.509 L 75.054875,1131.7243 L 74.839599,1131.95 L 74.634739,1132.1861 L 74.442032,1132.4326 L 74.259741,1132.6879 L 74.089604,1132.9517 L 73.933355,1133.2243 L 73.789258,1133.5038 L 73.659051,1133.792 L 73.542732,1134.0871 L 73.440302,1134.3892 L 73.351761,1134.6965 L 73.278845,1135.0108 L 73.221554,1135.3302 L 73.179887,1135.6566 L 73.155582,1135.9847 L 73.146901,1136.3198 C 73.146901,1139.8927 76.068758,1142.8163 79.643388,1142.8163 C 83.218017,1142.8163 86.146818,1139.8927 86.146818,1136.3198 C 86.146818,1132.7382 83.218017,1129.8146 79.643388,1129.8146 z" id="polygon2412" stroke="black"/>
		
    
		
		
    
		
		
    
		
		
    
		
		
    
		
		
    
		
		
    
		
		
    
		
		
    
		
		
    
		
		
    
		
		
    
		
		
    
		
		
    
		
		
    
		
		
    
		
		
    
		
		
    
		
		
  
	</g>
	

</svg>