<?xml version="1.0" encoding="iso-8859-1"?><!-- Created with Inkscape (http://www.inkscape.org/) --><svg height="280" id="svg2" version="1.0" width="500" xmlns="http://www.w3.org/2000/svg" xmlns:svg="http://www.w3.org/2000/svg">
	
  
	<defs id="defs4"/>
	
  
	
	
  
	<g id="g2578" transform="matrix(0.5,0,0,0.5,35.33839,-320.72622)">
		
    
		
		
    
		
		
    
		
		
    
		
		
    
		
		
    
		
		
    
		
		
    
		
		
    
		
		
    
		
		
    
		
		
    
		
		
    
		
		
    
		
		
    
		
		
    
		<path animation_id="11" d="M 862.4422,1130.5472 L 850.67144,1130.5472 L 850.67144,1150.127 C 847.49438,1148.5871 844.33467,1147.7728 840.91456,1147.7728 C 830.18546,1147.7728 822.72023,1155.7346 822.72023,1167.1894 C 822.72023,1178.399 830.18546,1186.6862 840.2722,1186.6862 C 844.24787,1186.6862 847.33813,1185.6283 850.67144,1182.9495 L 850.67144,1185.9538 L 862.4422,1185.9538 L 862.4422,1130.5472 z M 850.67144,1175.7202 L 850.44575,1175.9218 L 850.22005,1176.1159 L 849.99436,1176.3025 L 849.76867,1176.4818 L 849.54297,1176.6537 L 849.33464,1176.8185 L 849.10895,1176.9761 L 848.90062,1177.1265 L 848.69229,1177.27 L 848.46659,1177.4067 L 848.25826,1177.5363 L 848.04993,1177.6593 L 847.8416,1177.7754 L 847.63326,1177.885 L 847.40757,1177.9881 L 847.19924,1178.0846 L 846.99091,1178.1747 L 846.78257,1178.2584 L 846.57424,1178.3358 L 846.34855,1178.4072 L 846.14022,1178.4723 L 845.93189,1178.5315 L 845.70619,1178.5846 L 845.49786,1178.6318 L 845.27217,1178.6733 L 845.04647,1178.7089 L 844.82078,1178.7388 L 844.59509,1178.7633 L 844.3694,1178.782 L 844.1437,1178.7954 L 843.91801,1178.8034 L 843.67496,1178.806 C 838.15416,1178.806 834.6646,1174.2555 834.6646,1167.4324 C 834.6646,1159.9602 838.15416,1155.653 844.09162,1155.653 C 846.1923,1155.653 848.9527,1156.6235 850.67144,1157.8439 L 850.67144,1175.7202 z" id="path2454" stroke="black"/>
		
    
		
		
    
		
		
    
		
		
    
		
		
  
	</g>
	

</svg>