<?xml version="1.0" encoding="iso-8859-1"?><!-- Created with Inkscape (http://www.inkscape.org/) --><svg height="280" id="svg2" version="1.0" width="500" xmlns="http://www.w3.org/2000/svg" xmlns:svg="http://www.w3.org/2000/svg">
	
  
	<defs id="defs4"/>
	
  
	
	
  
	<g id="g2578" transform="matrix(0.5,0,0,0.5,35.33839,-320.72622)">
		
    
		
		
    
		
		
    
		
		
    
		
		
    
		
		
    
		
		
    
		
		
    
		
		
    
		
		
    
		
		
    
		
		
    
		
		
    
		<path animation_id="8" d="M 672.4955,1130.5472 L 672.4955,1185.9538 L 699.47449,1185.9538 C 715.63758,1185.9538 719.0577,1176.0457 719.0577,1169.705 C 719.0577,1163.2085 715.15147,1157.5176 707.26958,1155.4898 C 711.90497,1153.212 714.83898,1149.068 714.83898,1144.443 C 714.83898,1138.2659 709.54387,1130.5472 696.47104,1130.5472 L 672.4955,1130.5472 z M 686.31485,1140.7 L 693.53703,1140.7 C 698.58908,1140.7 700.60296,1143.7103 700.60296,1146.5523 C 700.60296,1149.4759 698.58908,1152.561 693.53703,1152.561 L 686.31485,1152.561 L 686.31485,1140.7 z M 686.31485,1162.7206 L 695.98493,1162.7206 C 700.86337,1162.7206 704.42237,1164.9168 704.42237,1168.9793 C 704.42237,1173.7671 701.74878,1175.8016 694.10994,1175.8016 L 686.31485,1175.8016 L 686.31485,1162.7206 z" id="path2442" stroke="black"/>
		
    
		
		
    
		
		
    
		
		
    
		
		
    
		
		
    
		
		
    
		
		
  
	</g>
	

</svg>