<?xml version="1.0" encoding="iso-8859-1"?><!-- Created with Inkscape (http://www.inkscape.org/) --><svg height="280" id="svg2" version="1.0" width="500" xmlns="http://www.w3.org/2000/svg" xmlns:svg="http://www.w3.org/2000/svg">
	
  
	<defs id="defs4"/>
	
  
	
	
  
	<g id="g2578" transform="matrix(0.5,0,0,0.5,35.33839,-320.72622)">
		
    
		
		
    
		
		
    
		
		
    
		
		
    
		
		
    
		
		
    
		<path animation_id="2" d="M 263.97381,1148.4985 L 252.20305,1148.4985 L 252.20305,1185.9538 L 263.97381,1185.9538 L 263.97381,1160.8474 C 266.82101,1157.4377 269.91127,1155.653 273.00153,1155.653 C 276.49109,1155.653 280.1369,1157.6807 280.1369,1163.7779 L 280.1369,1185.9538 L 291.92502,1185.9538 L 291.92502,1161.988 C 294.61597,1157.8439 297.77567,1155.653 301.17843,1155.653 C 305.48396,1155.653 308.08811,1158.6582 308.08811,1164.0227 L 308.08811,1185.9538 L 319.87622,1185.9538 L 319.87622,1161.9064 C 319.87622,1153.3752 313.78251,1147.7728 305.2409,1147.7728 C 299.6333,1147.7728 295.32777,1150.127 290.46669,1155.7346 C 287.86254,1150.37 283.47021,1147.7728 276.97719,1147.7728 C 274.6161,1147.7728 272.42861,1148.1808 270.22377,1149.068 C 268.12308,1150.0454 266.00504,1151.4291 263.97381,1153.2936 L 263.97381,1148.4985 z" id="path2426" stroke="black"/>
		
    
		
		
    
		
		
    
		
		
    
		
		
    
		
		
    
		
		
    
		
		
    
		
		
    
		
		
    
		
		
    
		
		
    
		
		
    
		
		
  
	</g>
	

</svg>