<?xml version="1.0" encoding="iso-8859-1"?><!-- Created with Inkscape (http://www.inkscape.org/) --><svg height="93.249619" id="svg2" version="1.1" width="91.867622" xml:space="preserve" xmlns="http://www.w3.org/2000/svg" xmlns:cc="http://creativecommons.org/ns#" xmlns:dc="http://purl.org/dc/elements/1.1/" xmlns:rdf="http://www.w3.org/1999/02/22-rdf-syntax-ns#" xmlns:svg="http://www.w3.org/2000/svg">
	<metadata id="metadata8">
		<rdf:RDF>
			<cc:Work rdf:about="">
				<dc:format>image/svg+xml</dc:format>
				<dc:type rdf:resource="http://purl.org/dc/dcmitype/StillImage"/>
				<dc:title/>
			</cc:Work>
		</rdf:RDF>
	</metadata>
	<defs id="defs6">
		<clipPath id="clipPath156">
			
		</clipPath>
		<clipPath id="clipPath180">
			
		</clipPath>
		<clipPath id="clipPath196">
			
		</clipPath>
		<clipPath id="clipPath372">
			
		</clipPath>
		<clipPath id="clipPath380">
			
		</clipPath>
		<linearGradient gradientTransform="matrix(0,99.212601,99.212601,0,-1.53e-5,244.48817)" gradientUnits="userSpaceOnUse" id="linearGradient384" spreadMethod="pad" x1="0" x2="1" y1="0" y2="0">
			<stop id="stop386" offset="0" style="stop-color:#ffffff;stop-opacity:0"/>
			<stop id="stop388" offset="0.25" style="stop-color:#ffffff;stop-opacity:1"/>
			<stop id="stop390" offset="1" style="stop-color:#ffffff;stop-opacity:0"/>
		</linearGradient>
		<mask id="mask392">
			<g id="g394">
				<g clip-path="url(#clipPath380)" id="g396">
					<g id="g398">
						<g id="g400">
							
						</g>
					</g>
				</g>
			</g>
		</mask>
		<clipPath id="clipPath408">
			
		</clipPath>
		<clipPath id="clipPath412">
			
		</clipPath>
		<clipPath id="clipPath196-6">
			
		</clipPath>
		<clipPath id="clipPath180-7">
			
		</clipPath>
		<clipPath id="clipPath156-5">
			
		</clipPath>
	</defs>
	<g id="g10" transform="matrix(1.25,0,0,-1.25,-49.99625,420.68289)">
		<g id="g3777">
			
			
			
			
			
			
			
			
			
			
			
			<g id="g136" transform="translate(65.92851,335.16371)">
				
			</g>
			<g id="g140" transform="translate(90.68681,333.81431)">
				
			</g>
			<g id="g144" transform="translate(69.45661,312.88041)">
				
			</g>
			<g id="g148" transform="translate(56.86101,317.54271)">
				
			</g>
			<g id="g152" transform="translate(-399.7217,0.640616)">
				<g clip-path="url(#clipPath156-5)" id="g154">
					<g id="g160" transform="translate(482.0932,315.2665)">
						
					</g>
					<g id="g164" transform="translate(494.7063,315.4353)">
						
					</g>
					<g id="g168" transform="translate(465.254,284.715)">
						<path animation_id="28" d="M 0,0 C 0,0 0.062,0.437 0.292,0.796 0.687,1.412 1.21,1.618 1.21,1.618 1.507,1.671 1.804,1.587 2.055,1.386 2.133,1.323 2.192,1.277 2.234,1.248 L 2.611,0.881 c 0,0 0.014,-0.029 0.059,-0.084 L 2.757,0.659 c 0.077,-0.167 0.199,-0.308 0.24,-0.423 0,0 0.058,-0.033 0.157,-0.522 0.063,-0.31 0.355,-2.396 0.355,-2.396 l 6.711,0 0,10.977 -10.986,0 0,-10.977 0.959,0 C 0.161,-2.351 0.13,-1.991 0.095,-1.578 L 0,0 z" id="path170" stroke="black" style="fill:#17b19b;fill-opacity:1;fill-rule:nonzero;"/>
					</g>
					<g id="g172" transform="translate(485.0811,287.1098)">
						
					</g>
				</g>
			</g>
			<g id="g176" transform="translate(-399.7217,0.640616)">
				<g clip-path="url(#clipPath180-7)" id="g178">
					<g id="g184" transform="translate(491.7548,283.9011)">
						
					</g>
					<g id="g188" transform="translate(475.9309,267.5906)">
						
					</g>
				</g>
			</g>
			<g id="g192" transform="translate(-399.7217,0.640616)">
				<g clip-path="url(#clipPath196-6)" id="g194">
					<g id="g200" transform="translate(480.0818,265.4373)">
						
					</g>
					<g id="g204" transform="translate(486.8507,267.5397)">
						
					</g>
					<g id="g208" transform="translate(498.305,274.0423)">
						
					</g>
					<g id="g212" transform="translate(505.9099,270.9005)">
						
					</g>
					<g id="g216" transform="translate(513.2128,272.3299)">
						
					</g>
					<g id="g220" transform="translate(441.6317,277.9431)">
						
					</g>
					<g id="g224" transform="translate(452.0433,271.5805)">
						
					</g>
					<g id="g228" transform="translate(460.6548,275.1421)">
						
					</g>
					<g id="g232" transform="translate(478.2491,275.6546)">
						
					</g>
					<g id="g236" transform="translate(483.0357,277.3394)">
						
					</g>
					<g id="g240" transform="translate(493.3966,280.0663)">
						
					</g>
					<g id="g244" transform="translate(502.246,281.0208)">
						
					</g>
					<g id="g248" transform="translate(512.3834,284.2634)">
						
					</g>
				</g>
			</g>
		</g>
	</g>
</svg>