<?xml version="1.0" encoding="iso-8859-1"?><!-- Created with Inkscape (http://www.inkscape.org/) --><svg height="93.249619" id="svg2" version="1.1" width="91.867622" xml:space="preserve" xmlns="http://www.w3.org/2000/svg" xmlns:cc="http://creativecommons.org/ns#" xmlns:dc="http://purl.org/dc/elements/1.1/" xmlns:rdf="http://www.w3.org/1999/02/22-rdf-syntax-ns#" xmlns:svg="http://www.w3.org/2000/svg">
	<metadata id="metadata8">
		<rdf:RDF>
			<cc:Work rdf:about="">
				<dc:format>image/svg+xml</dc:format>
				<dc:type rdf:resource="http://purl.org/dc/dcmitype/StillImage"/>
				<dc:title/>
			</cc:Work>
		</rdf:RDF>
	</metadata>
	<defs id="defs6">
		<clipPath id="clipPath156">
			
		</clipPath>
		<clipPath id="clipPath180">
			
		</clipPath>
		<clipPath id="clipPath196">
			
		</clipPath>
		<clipPath id="clipPath372">
			
		</clipPath>
		<clipPath id="clipPath380">
			
		</clipPath>
		<linearGradient gradientTransform="matrix(0,99.212601,99.212601,0,-1.53e-5,244.48817)" gradientUnits="userSpaceOnUse" id="linearGradient384" spreadMethod="pad" x1="0" x2="1" y1="0" y2="0">
			<stop id="stop386" offset="0" style="stop-color:#ffffff;stop-opacity:0"/>
			<stop id="stop388" offset="0.25" style="stop-color:#ffffff;stop-opacity:1"/>
			<stop id="stop390" offset="1" style="stop-color:#ffffff;stop-opacity:0"/>
		</linearGradient>
		<mask id="mask392">
			<g id="g394">
				<g clip-path="url(#clipPath380)" id="g396">
					<g id="g398">
						<g id="g400">
							
						</g>
					</g>
				</g>
			</g>
		</mask>
		<clipPath id="clipPath408">
			
		</clipPath>
		<clipPath id="clipPath412">
			
		</clipPath>
		<clipPath id="clipPath196-6">
			
		</clipPath>
		<clipPath id="clipPath180-7">
			
		</clipPath>
		<clipPath id="clipPath156-5">
			
		</clipPath>
	</defs>
	<g id="g10" transform="matrix(1.25,0,0,-1.25,-49.99625,420.68289)">
		<g id="g3777">
			
			
			
			
			
			
			
			
			
			
			
			<g id="g136" transform="translate(65.92851,335.16371)">
				
			</g>
			<g id="g140" transform="translate(90.68681,333.81431)">
				
			</g>
			<g id="g144" transform="translate(69.45661,312.88041)">
				
			</g>
			<g id="g148" transform="translate(56.86101,317.54271)">
				
			</g>
			<g id="g152" transform="translate(-399.7217,0.640616)">
				<g clip-path="url(#clipPath156-5)" id="g154">
					<g id="g160" transform="translate(482.0932,315.2665)">
						
					</g>
					<g id="g164" transform="translate(494.7063,315.4353)">
						
					</g>
					<g id="g168" transform="translate(465.254,284.715)">
						
					</g>
					<g id="g172" transform="translate(485.0811,287.1098)">
						
					</g>
				</g>
			</g>
			<g id="g176" transform="translate(-399.7217,0.640616)">
				<g clip-path="url(#clipPath180-7)" id="g178">
					<g id="g184" transform="translate(491.7548,283.9011)">
						
					</g>
					<g id="g188" transform="translate(475.9309,267.5906)">
						
					</g>
				</g>
			</g>
			<g id="g192" transform="translate(-399.7217,0.640616)">
				<g clip-path="url(#clipPath196-6)" id="g194">
					<g id="g200" transform="translate(480.0818,265.4373)">
						
					</g>
					<g id="g204" transform="translate(486.8507,267.5397)">
						
					</g>
					<g id="g208" transform="translate(498.305,274.0423)">
						
					</g>
					<g id="g212" transform="translate(505.9099,270.9005)">
						
					</g>
					<g id="g216" transform="translate(513.2128,272.3299)">
						
					</g>
					<g id="g220" transform="translate(441.6317,277.9431)">
						
					</g>
					<g id="g224" transform="translate(452.0433,271.5805)">
						
					</g>
					<g id="g228" transform="translate(460.6548,275.1421)">
						<path animation_id="39" d="m 0,0 c -0.02,-0.004 -0.07,-0.043 -0.149,-0.119 0.009,-0.054 0.01,-0.096 0.003,-0.125 L 0.005,-0.386 C -0.166,-0.489 -0.34,-0.612 -0.517,-0.755 l -1.195,0.125 c -0.197,-0.052 -0.457,-0.147 -0.781,-0.289 -0.36,-0.249 -0.7,-0.463 -1.022,-0.642 -0.581,-0.45 -1.105,-0.885 -1.574,-1.304 -0.618,-0.546 -0.941,-1.271 -0.967,-2.172 0.006,-0.032 0.065,-0.246 0.177,-0.641 l 0.047,-0.27 c -0.023,-0.105 -0.038,-0.191 -0.043,-0.259 -0.003,-0.029 -0.002,-0.057 0.003,-0.084 0.012,-0.071 0.049,-0.123 0.109,-0.157 l -0.519,-0.63 -0.123,-0.021 c -0.093,0.05 -0.222,0.142 -0.389,0.276 l -0.159,-0.062 c -0.071,0.094 -0.168,0.222 -0.289,0.386 -0.066,0.134 -0.131,0.251 -0.195,0.353 l -0.165,0.508 -0.125,0.71 c -10e-4,0.005 -10e-4,0.037 -10e-4,0.093 10e-4,0.055 0,0.089 -0.002,0.1 l -0.133,0.758 c -0.04,0.224 -0.045,0.612 -0.017,1.166 0.031,0.707 0.139,1.076 0.322,1.108 l 0.184,0.033 0.258,-0.216 0.092,0.017 c 0.106,0.018 0.435,0.36 0.986,1.023 0.404,0.335 1.013,0.848 1.828,1.542 0.033,0.005 0.222,0.154 0.565,0.444 0.093,0.022 0.275,0.102 0.545,0.239 l 0.425,0.201 0.618,0.109 c 0.432,0.076 1.003,-0.218 1.713,-0.883 0.026,-0.03 0.052,-0.092 0.077,-0.189 0.129,-0.134 0.205,-0.266 0.228,-0.397 L 0,0 z" id="path230" stroke="black" style="fill:#244ba6;fill-opacity:1;fill-rule:nonzero;"/>
					</g>
					<g id="g232" transform="translate(478.2491,275.6546)">
						
					</g>
					<g id="g236" transform="translate(483.0357,277.3394)">
						
					</g>
					<g id="g240" transform="translate(493.3966,280.0663)">
						
					</g>
					<g id="g244" transform="translate(502.246,281.0208)">
						
					</g>
					<g id="g248" transform="translate(512.3834,284.2634)">
						
					</g>
				</g>
			</g>
		</g>
	</g>
</svg>