<?xml version="1.0" encoding="iso-8859-1"?><!-- Created with Inkscape (http://www.inkscape.org/) --><svg height="93.249619" id="svg2" version="1.1" width="91.867622" xml:space="preserve" xmlns="http://www.w3.org/2000/svg" xmlns:cc="http://creativecommons.org/ns#" xmlns:dc="http://purl.org/dc/elements/1.1/" xmlns:rdf="http://www.w3.org/1999/02/22-rdf-syntax-ns#" xmlns:svg="http://www.w3.org/2000/svg">
	<metadata id="metadata8">
		<rdf:RDF>
			<cc:Work rdf:about="">
				<dc:format>image/svg+xml</dc:format>
				<dc:type rdf:resource="http://purl.org/dc/dcmitype/StillImage"/>
				<dc:title/>
			</cc:Work>
		</rdf:RDF>
	</metadata>
	<defs id="defs6">
		<clipPath id="clipPath156">
			
		</clipPath>
		<clipPath id="clipPath180">
			
		</clipPath>
		<clipPath id="clipPath196">
			
		</clipPath>
		<clipPath id="clipPath372">
			
		</clipPath>
		<clipPath id="clipPath380">
			
		</clipPath>
		<linearGradient gradientTransform="matrix(0,99.212601,99.212601,0,-1.53e-5,244.48817)" gradientUnits="userSpaceOnUse" id="linearGradient384" spreadMethod="pad" x1="0" x2="1" y1="0" y2="0">
			<stop id="stop386" offset="0" style="stop-color:#ffffff;stop-opacity:0"/>
			<stop id="stop388" offset="0.25" style="stop-color:#ffffff;stop-opacity:1"/>
			<stop id="stop390" offset="1" style="stop-color:#ffffff;stop-opacity:0"/>
		</linearGradient>
		<mask id="mask392">
			<g id="g394">
				<g clip-path="url(#clipPath380)" id="g396">
					<g id="g398">
						<g id="g400">
							
						</g>
					</g>
				</g>
			</g>
		</mask>
		<clipPath id="clipPath408">
			
		</clipPath>
		<clipPath id="clipPath412">
			
		</clipPath>
		<clipPath id="clipPath196-6">
			
		</clipPath>
		<clipPath id="clipPath180-7">
			
		</clipPath>
		<clipPath id="clipPath156-5">
			
		</clipPath>
	</defs>
	<g id="g10" transform="matrix(1.25,0,0,-1.25,-49.99625,420.68289)">
		<g id="g3777">
			
			
			
			
			
			
			
			
			
			
			
			<g id="g136" transform="translate(65.92851,335.16371)">
				
			</g>
			<g id="g140" transform="translate(90.68681,333.81431)">
				
			</g>
			<g id="g144" transform="translate(69.45661,312.88041)">
				
			</g>
			<g id="g148" transform="translate(56.86101,317.54271)">
				
			</g>
			<g id="g152" transform="translate(-399.7217,0.640616)">
				<g clip-path="url(#clipPath156-5)" id="g154">
					<g id="g160" transform="translate(482.0932,315.2665)">
						
					</g>
					<g id="g164" transform="translate(494.7063,315.4353)">
						
					</g>
					<g id="g168" transform="translate(465.254,284.715)">
						
					</g>
					<g id="g172" transform="translate(485.0811,287.1098)">
						
					</g>
				</g>
			</g>
			<g id="g176" transform="translate(-399.7217,0.640616)">
				<g clip-path="url(#clipPath180-7)" id="g178">
					<g id="g184" transform="translate(491.7548,283.9011)">
						
					</g>
					<g id="g188" transform="translate(475.9309,267.5906)">
						
					</g>
				</g>
			</g>
			<g id="g192" transform="translate(-399.7217,0.640616)">
				<g clip-path="url(#clipPath196-6)" id="g194">
					<g id="g200" transform="translate(480.0818,265.4373)">
						
					</g>
					<g id="g204" transform="translate(486.8507,267.5397)">
						
					</g>
					<g id="g208" transform="translate(498.305,274.0423)">
						<path animation_id="34" d="M 0,0 C -0.003,0.017 -0.021,0.04 -0.055,0.069 -0.048,0.036 -0.03,0.012 0,0 M 0.438,-2.629 C 0.389,-2.351 0.28,-2.025 0.111,-1.651 0.013,-1.434 -0.145,-1.217 -0.364,-1 c -0.219,0.218 -0.418,0.354 -0.596,0.411 -0.093,0.081 -0.24,0.155 -0.442,0.221 -0.187,0.058 -0.325,0.099 -0.413,0.122 -0.133,0.008 -0.314,0.03 -0.542,0.067 l -0.999,-0.15 C -3.364,-0.33 -3.371,-0.331 -3.377,-0.332 -3.491,-0.352 -3.706,-0.438 -4.021,-0.588 -4.036,-0.612 -4.065,-0.636 -4.105,-0.66 l -0.098,-0.018 c -0.008,0.016 -0.019,0.037 -0.032,0.063 -0.005,-0.001 -0.026,0.001 -0.06,0.005 -0.032,0.005 -0.05,0.007 -0.055,0.006 l -0.566,-0.462 -0.609,-0.959 c 0.009,-0.023 0.02,-0.046 0.033,-0.068 l -0.277,-0.196 c -0.028,0.03 -0.074,0.047 -0.139,0.049 -0.024,-0.148 -0.05,-0.24 -0.077,-0.276 -0.043,-0.123 -0.088,-0.327 -0.136,-0.613 -0.004,-0.298 -0.005,-0.502 -0.006,-0.611 -0.003,-0.088 -0.008,-0.132 -0.01,-0.133 -0.003,0 -0.005,0.005 -0.007,0.015 L -6.08,-4.22 c 0.002,-0.01 0,-0.03 -0.006,-0.059 -0.008,-0.036 -0.011,-0.06 -0.009,-0.07 0.015,-0.084 0.059,-0.217 0.133,-0.397 0.008,-0.044 0.015,-0.102 0.023,-0.175 0.457,-1.019 1.013,-1.804 1.668,-2.354 0.237,-0.2 0.619,-0.396 1.146,-0.586 0.388,-0.023 0.628,-0.026 0.72,-0.01 0.395,0.069 0.821,0.306 1.28,0.709 0.611,0.539 1.06,1.224 1.348,2.057 0.288,0.831 0.359,1.657 0.215,2.476 m 0.727,0.265 C 1.165,-2.378 1.161,-2.421 1.154,-2.493 1.157,-2.51 1.16,-2.525 1.162,-2.538 1.212,-2.82 1.232,-3.236 1.222,-3.784 1.198,-3.995 1.149,-4.314 1.075,-4.74 1.081,-4.816 1.046,-4.981 0.974,-5.236 0.882,-5.796 0.598,-6.5 0.123,-7.352 0.121,-7.373 0.114,-7.404 0.102,-7.445 0.072,-7.464 0.026,-7.507 -0.035,-7.574 -0.03,-7.601 -0.013,-7.631 0.019,-7.665 l -0.058,-0.01 -0.175,-0.272 c -0.035,-0.006 -0.059,-0.01 -0.073,-0.013 -0.525,-0.692 -1.192,-1.167 -1.998,-1.425 -0.022,-0.003 -0.048,-0.024 -0.077,-0.061 -0.042,-0.007 -0.093,-0.02 -0.158,-0.038 l -0.1,-0.028 c -0.008,-10e-4 -0.019,-0.003 -0.032,-0.006 -0.196,-0.034 -0.612,0.022 -1.246,0.17 -0.414,0.235 -0.788,0.5 -1.124,0.795 l -0.018,0.107 c -0.073,0.078 -0.176,0.203 -0.31,0.376 -0.711,0.74 -1.194,1.682 -1.449,2.825 l -0.095,0.419 c -0.003,0.021 -0.007,0.041 -0.011,0.061 -0.019,0.109 -0.026,0.23 -0.022,0.364 -0.048,0.591 -0.026,1.264 0.065,2.019 0.002,0.032 0.042,0.167 0.118,0.405 0.135,0.71 0.428,1.345 0.879,1.905 0.018,0.038 0.068,0.101 0.151,0.19 0.069,0.054 0.136,0.087 0.201,0.098 0.061,0.084 0.172,0.158 0.331,0.221 0.022,0.021 0.054,0.054 0.097,0.096 0.07,0.019 0.136,0.056 0.2,0.109 0.063,0.022 0.222,0.083 0.476,0.184 0.186,0.074 0.291,0.114 0.315,0.118 l 0.551,0.097 0.482,-0.04 0.335,0.059 c 0.006,0 0.015,0.011 0.03,0.031 0.015,0.02 0.025,0.03 0.03,0.032 0.224,0 0.348,0.003 0.373,0.007 0.014,-0.018 0.037,-0.046 0.069,-0.082 l 0.102,0.039 c 0.036,-0.014 0.085,-0.04 0.144,-0.075 l 0.113,0.047 0.42,-0.089 C -1.449,0.959 -1.458,0.94 -1.473,0.913 c 0.042,-0.049 0.098,-0.067 0.166,-0.055 0.04,0.007 0.083,0.02 0.127,0.038 L -0.89,0.731 C -0.948,0.756 -0.977,0.771 -0.977,0.774 -0.994,0.771 -1.007,0.749 -1.016,0.709 L -0.323,0.28 c 0.003,0 0.006,0.001 0.009,0.001 0.006,10e-4 0.011,0.007 0.017,0.019 L -0.784,0.677 C -0.457,0.538 -0.16,0.324 0.108,0.035 0.19,-0.052 0.371,-0.307 0.65,-0.731 c 0.017,-0.046 0.04,-0.12 0.068,-0.22 0.08,-0.101 0.133,-0.227 0.159,-0.376 0.035,-0.057 0.064,-0.148 0.087,-0.274 0.056,-0.067 0.09,-0.129 0.099,-0.187 l 0.102,-0.576 z" id="path210" stroke="black" style="fill:#17b19b;fill-opacity:1;fill-rule:nonzero;"/>
					</g>
					<g id="g212" transform="translate(505.9099,270.9005)">
						
					</g>
					<g id="g216" transform="translate(513.2128,272.3299)">
						
					</g>
					<g id="g220" transform="translate(441.6317,277.9431)">
						
					</g>
					<g id="g224" transform="translate(452.0433,271.5805)">
						
					</g>
					<g id="g228" transform="translate(460.6548,275.1421)">
						
					</g>
					<g id="g232" transform="translate(478.2491,275.6546)">
						
					</g>
					<g id="g236" transform="translate(483.0357,277.3394)">
						
					</g>
					<g id="g240" transform="translate(493.3966,280.0663)">
						
					</g>
					<g id="g244" transform="translate(502.246,281.0208)">
						
					</g>
					<g id="g248" transform="translate(512.3834,284.2634)">
						
					</g>
				</g>
			</g>
		</g>
	</g>
</svg>