<?xml version="1.0" encoding="iso-8859-1"?><!-- Created with Inkscape (http://www.inkscape.org/) --><svg height="93.249619" id="svg2" version="1.1" width="91.867622" xml:space="preserve" xmlns="http://www.w3.org/2000/svg" xmlns:cc="http://creativecommons.org/ns#" xmlns:dc="http://purl.org/dc/elements/1.1/" xmlns:rdf="http://www.w3.org/1999/02/22-rdf-syntax-ns#" xmlns:svg="http://www.w3.org/2000/svg">
	<metadata id="metadata8">
		<rdf:RDF>
			<cc:Work rdf:about="">
				<dc:format>image/svg+xml</dc:format>
				<dc:type rdf:resource="http://purl.org/dc/dcmitype/StillImage"/>
				<dc:title/>
			</cc:Work>
		</rdf:RDF>
	</metadata>
	<defs id="defs6">
		<clipPath id="clipPath156">
			
		</clipPath>
		<clipPath id="clipPath180">
			
		</clipPath>
		<clipPath id="clipPath196">
			
		</clipPath>
		<clipPath id="clipPath372">
			
		</clipPath>
		<clipPath id="clipPath380">
			
		</clipPath>
		<linearGradient gradientTransform="matrix(0,99.212601,99.212601,0,-1.53e-5,244.48817)" gradientUnits="userSpaceOnUse" id="linearGradient384" spreadMethod="pad" x1="0" x2="1" y1="0" y2="0">
			<stop id="stop386" offset="0" style="stop-color:#ffffff;stop-opacity:0"/>
			<stop id="stop388" offset="0.25" style="stop-color:#ffffff;stop-opacity:1"/>
			<stop id="stop390" offset="1" style="stop-color:#ffffff;stop-opacity:0"/>
		</linearGradient>
		<mask id="mask392">
			<g id="g394">
				<g clip-path="url(#clipPath380)" id="g396">
					<g id="g398">
						<g id="g400">
							
						</g>
					</g>
				</g>
			</g>
		</mask>
		<clipPath id="clipPath408">
			
		</clipPath>
		<clipPath id="clipPath412">
			
		</clipPath>
		<clipPath id="clipPath196-6">
			
		</clipPath>
		<clipPath id="clipPath180-7">
			
		</clipPath>
		<clipPath id="clipPath156-5">
			
		</clipPath>
	</defs>
	<g id="g10" transform="matrix(1.25,0,0,-1.25,-49.99625,420.68289)">
		<g id="g3777">
			
			
			
			
			
			
			
			
			
			
			
			<g id="g136" transform="translate(65.92851,335.16371)">
				
			</g>
			<g id="g140" transform="translate(90.68681,333.81431)">
				
			</g>
			<g id="g144" transform="translate(69.45661,312.88041)">
				
			</g>
			<g id="g148" transform="translate(56.86101,317.54271)">
				
			</g>
			<g id="g152" transform="translate(-399.7217,0.640616)">
				<g clip-path="url(#clipPath156-5)" id="g154">
					<g id="g160" transform="translate(482.0932,315.2665)">
						
					</g>
					<g id="g164" transform="translate(494.7063,315.4353)">
						
					</g>
					<g id="g168" transform="translate(465.254,284.715)">
						
					</g>
					<g id="g172" transform="translate(485.0811,287.1098)">
						
					</g>
				</g>
			</g>
			<g id="g176" transform="translate(-399.7217,0.640616)">
				<g clip-path="url(#clipPath180-7)" id="g178">
					<g id="g184" transform="translate(491.7548,283.9011)">
						
					</g>
					<g id="g188" transform="translate(475.9309,267.5906)">
						
					</g>
				</g>
			</g>
			<g id="g192" transform="translate(-399.7217,0.640616)">
				<g clip-path="url(#clipPath196-6)" id="g194">
					<g id="g200" transform="translate(480.0818,265.4373)">
						
					</g>
					<g id="g204" transform="translate(486.8507,267.5397)">
						
					</g>
					<g id="g208" transform="translate(498.305,274.0423)">
						
					</g>
					<g id="g212" transform="translate(505.9099,270.9005)">
						
					</g>
					<g id="g216" transform="translate(513.2128,272.3299)">
						<path animation_id="36" d="m 0,0 -0.138,-0.024 c -0.014,-0.052 -0.017,-0.095 -0.011,-0.129 0.002,-0.01 0.005,-0.019 0.009,-0.029 -0.047,-0.054 -0.084,-0.084 -0.114,-0.089 -0.11,-0.208 -0.179,-0.315 -0.209,-0.32 L -0.814,-0.654 -1.161,-0.83 c -0.037,0.007 -0.079,0.007 -0.126,-0.001 l -0.5,-0.215 c -0.002,0 -0.022,0 -0.057,0.001 -0.035,10e-4 -0.059,0 -0.073,-0.002 -0.041,-0.008 -0.145,-0.044 -0.314,-0.108 -0.105,-0.036 -0.264,-0.096 -0.477,-0.179 -0.097,-0.038 -0.218,-0.131 -0.362,-0.279 0.038,-0.964 0.064,-1.487 0.079,-1.569 l 0.07,-0.397 c 0.003,-0.021 0.003,-0.143 -0.003,-0.368 -0.003,-0.232 -10e-4,-0.372 0.007,-0.42 -0.094,-0.072 -0.233,-0.19 -0.417,-0.352 -0.007,0.006 -0.064,0.04 -0.174,0.101 -0.106,0.062 -0.169,0.091 -0.187,0.088 -0.144,0.181 -0.256,0.412 -0.332,0.693 -0.022,0.07 -0.079,0.292 -0.173,0.668 l -0.063,0.835 -0.055,0.311 -0.037,0.041 -0.09,-0.016 -0.915,-0.413 c -0.006,-10e-4 -0.011,-0.002 -0.016,-0.003 -0.027,-0.005 -0.057,0.002 -0.088,0.021 l -0.729,-0.323 c -0.05,0.03 -0.141,0.072 -0.27,0.126 -0.067,0.027 -0.134,0.097 -0.202,0.211 -0.038,0.06 -0.087,0.137 -0.146,0.232 -0.078,0.288 -0.12,0.431 -0.126,0.43 l 0.001,-0.006 c -0.018,0.103 -0.005,0.22 0.039,0.355 0.039,0.122 0.088,0.189 0.145,0.198 0.002,10e-4 0.007,0.002 0.012,0.003 l 1.466,0.39 0.924,0.457 c -0.042,0.623 -0.1,1.555 -0.173,2.797 0.038,0.514 0.08,0.946 0.125,1.294 0.079,0.171 0.168,0.312 0.267,0.42 0.037,-0.008 0.216,-0.1 0.536,-0.279 0.12,-0.375 0.181,-0.562 0.183,-0.561 l 0.135,-2.815 0.07,-0.397 0.575,0.102 0.004,0 c 0.011,-0.001 0.028,0.016 0.05,0.051 l 0.118,0.021 c 0.008,0.001 0.033,0.002 0.074,0.002 0.04,0 0.066,0.001 0.077,0.003 0.006,0.001 0.048,0.021 0.128,0.059 0.08,0.039 0.125,0.059 0.132,0.061 0.03,0.005 0.075,-0.004 0.136,-0.029 0.078,0.049 0.278,0.102 0.602,0.159 10e-4,-0.004 0.204,-0.008 0.608,-0.014 0.11,-0.05 0.256,-0.102 0.435,-0.154 0.002,-0.01 0.004,-0.021 0.006,-0.031 0.008,-0.044 0.004,-0.082 -0.01,-0.112 0.03,-0.09 0.083,-0.167 0.16,-0.235 0.007,0.002 0.014,0.003 0.02,0.004 C -0.058,0.035 -0.027,0.027 0,0" id="path218" stroke="black" style="fill:#17b19b;fill-opacity:1;fill-rule:nonzero;"/>
					</g>
					<g id="g220" transform="translate(441.6317,277.9431)">
						
					</g>
					<g id="g224" transform="translate(452.0433,271.5805)">
						
					</g>
					<g id="g228" transform="translate(460.6548,275.1421)">
						
					</g>
					<g id="g232" transform="translate(478.2491,275.6546)">
						
					</g>
					<g id="g236" transform="translate(483.0357,277.3394)">
						
					</g>
					<g id="g240" transform="translate(493.3966,280.0663)">
						
					</g>
					<g id="g244" transform="translate(502.246,281.0208)">
						
					</g>
					<g id="g248" transform="translate(512.3834,284.2634)">
						
					</g>
				</g>
			</g>
		</g>
	</g>
</svg>