<?xml version="1.0" encoding="iso-8859-1"?><!-- Created with Inkscape (http://www.inkscape.org/) --><svg height="93.249619" id="svg2" version="1.1" width="91.867622" xml:space="preserve" xmlns="http://www.w3.org/2000/svg" xmlns:cc="http://creativecommons.org/ns#" xmlns:dc="http://purl.org/dc/elements/1.1/" xmlns:rdf="http://www.w3.org/1999/02/22-rdf-syntax-ns#" xmlns:svg="http://www.w3.org/2000/svg">
	<metadata id="metadata8">
		<rdf:RDF>
			<cc:Work rdf:about="">
				<dc:format>image/svg+xml</dc:format>
				<dc:type rdf:resource="http://purl.org/dc/dcmitype/StillImage"/>
				<dc:title/>
			</cc:Work>
		</rdf:RDF>
	</metadata>
	<defs id="defs6">
		<clipPath id="clipPath156">
			
		</clipPath>
		<clipPath id="clipPath180">
			
		</clipPath>
		<clipPath id="clipPath196">
			
		</clipPath>
		<clipPath id="clipPath372">
			
		</clipPath>
		<clipPath id="clipPath380">
			
		</clipPath>
		<linearGradient gradientTransform="matrix(0,99.212601,99.212601,0,-1.53e-5,244.48817)" gradientUnits="userSpaceOnUse" id="linearGradient384" spreadMethod="pad" x1="0" x2="1" y1="0" y2="0">
			<stop id="stop386" offset="0" style="stop-color:#ffffff;stop-opacity:0"/>
			<stop id="stop388" offset="0.25" style="stop-color:#ffffff;stop-opacity:1"/>
			<stop id="stop390" offset="1" style="stop-color:#ffffff;stop-opacity:0"/>
		</linearGradient>
		<mask id="mask392">
			<g id="g394">
				<g clip-path="url(#clipPath380)" id="g396">
					<g id="g398">
						<g id="g400">
							
						</g>
					</g>
				</g>
			</g>
		</mask>
		<clipPath id="clipPath408">
			
		</clipPath>
		<clipPath id="clipPath412">
			
		</clipPath>
		<clipPath id="clipPath196-6">
			
		</clipPath>
		<clipPath id="clipPath180-7">
			
		</clipPath>
		<clipPath id="clipPath156-5">
			
		</clipPath>
	</defs>
	<g id="g10" transform="matrix(1.25,0,0,-1.25,-49.99625,420.68289)">
		<g id="g3777">
			
			
			
			
			
			
			
			
			
			
			
			<g id="g136" transform="translate(65.92851,335.16371)">
				
			</g>
			<g id="g140" transform="translate(90.68681,333.81431)">
				
			</g>
			<g id="g144" transform="translate(69.45661,312.88041)">
				
			</g>
			<g id="g148" transform="translate(56.86101,317.54271)">
				
			</g>
			<g id="g152" transform="translate(-399.7217,0.640616)">
				<g clip-path="url(#clipPath156-5)" id="g154">
					<g id="g160" transform="translate(482.0932,315.2665)">
						
					</g>
					<g id="g164" transform="translate(494.7063,315.4353)">
						
					</g>
					<g id="g168" transform="translate(465.254,284.715)">
						
					</g>
					<g id="g172" transform="translate(485.0811,287.1098)">
						
					</g>
				</g>
			</g>
			<g id="g176" transform="translate(-399.7217,0.640616)">
				<g clip-path="url(#clipPath180-7)" id="g178">
					<g id="g184" transform="translate(491.7548,283.9011)">
						
					</g>
					<g id="g188" transform="translate(475.9309,267.5906)">
						
					</g>
				</g>
			</g>
			<g id="g192" transform="translate(-399.7217,0.640616)">
				<g clip-path="url(#clipPath196-6)" id="g194">
					<g id="g200" transform="translate(480.0818,265.4373)">
						
					</g>
					<g id="g204" transform="translate(486.8507,267.5397)">
						
					</g>
					<g id="g208" transform="translate(498.305,274.0423)">
						
					</g>
					<g id="g212" transform="translate(505.9099,270.9005)">
						
					</g>
					<g id="g216" transform="translate(513.2128,272.3299)">
						
					</g>
					<g id="g220" transform="translate(441.6317,277.9431)">
						
					</g>
					<g id="g224" transform="translate(452.0433,271.5805)">
						
					</g>
					<g id="g228" transform="translate(460.6548,275.1421)">
						
					</g>
					<g id="g232" transform="translate(478.2491,275.6546)">
						
					</g>
					<g id="g236" transform="translate(483.0357,277.3394)">
						
					</g>
					<g id="g240" transform="translate(493.3966,280.0663)">
						<path animation_id="42" d="M 0,0 -0.023,0.13 C -0.14,0.267 -0.305,0.397 -0.521,0.521 -1.003,0.678 -1.538,0.723 -2.128,0.659 -2.225,0.681 -2.284,0.69 -2.303,0.686 l -0.007,0 -1.228,-0.293 C -3.739,0.341 -4.1,0.132 -4.62,-0.235 l 0.048,-0.269 c 0.002,-0.011 0.019,-0.05 0.051,-0.117 0.034,-0.067 0.051,-0.106 0.053,-0.117 l 0.156,-0.889 0.625,-2.143 c 0.012,0.024 0.033,0.039 0.061,0.044 10e-4,0.045 0.013,0.103 0.039,0.175 0.285,0.314 0.764,0.721 1.437,1.221 0.65,0.485 1.051,0.835 1.202,1.053 C -0.804,-1.213 -0.488,-0.787 0,0 M 2.042,0.36 C 2.059,0.267 1.993,-0.182 1.844,-0.987 1.741,-1.111 1.683,-1.276 1.673,-1.479 1.289,-2.164 0.788,-2.799 0.167,-3.385 0.06,-3.488 -0.474,-3.944 -1.433,-4.752 -1.575,-4.805 -1.79,-4.921 -2.078,-5.101 c -0.287,-0.18 -0.435,-0.27 -0.444,-0.272 -0.008,-10e-4 -0.05,-0.003 -0.128,-0.005 -0.078,-0.003 -0.124,-0.006 -0.141,-0.008 -0.152,0.146 -0.287,0.209 -0.405,0.189 -0.029,-0.005 -0.056,-0.01 -0.079,-0.014 -0.033,0.067 -0.102,0.158 -0.206,0.275 C -3.513,-5.088 -3.554,-5.269 -3.6,-5.479 -3.659,-5.528 -3.727,-5.56 -3.804,-5.573 -3.825,-5.577 -3.846,-5.578 -3.867,-5.576 L -3.966,-5.77 -4.063,-5.787 c -0.025,-0.005 -0.153,0.048 -0.387,0.158 -0.105,-0.052 -0.165,-0.079 -0.181,-0.082 -0.255,0.202 -0.396,0.381 -0.424,0.539 -0.127,0.151 -0.233,0.382 -0.318,0.692 -0.096,0.141 -0.168,0.294 -0.219,0.458 -0.023,0.086 -0.069,0.243 -0.14,0.471 -0.069,0.229 -0.114,0.35 -0.133,0.364 l 0.007,-0.041 -0.153,0.873 c -0.086,0.27 -0.138,0.458 -0.157,0.561 -0.004,0.027 -0.006,0.049 -0.005,0.066 -0.025,0.069 -0.044,0.144 -0.059,0.225 -0.017,0.103 -0.026,0.206 -0.023,0.307 -0.062,0.096 -0.217,0.186 -0.463,0.272 -0.193,0.213 -0.316,0.468 -0.369,0.767 -0.035,0.201 -0.015,0.446 0.06,0.734 0.069,0.281 0.162,0.488 0.282,0.621 l -0.693,4.175 c -0.036,0.28 -0.109,0.864 -0.22,1.753 -0.063,0.499 -0.04,0.948 0.071,1.349 0.019,0.037 0.056,0.108 0.113,0.214 0.142,0.126 0.236,0.192 0.281,0.2 0.016,0.003 0.062,-0.002 0.138,-0.017 0.077,-0.015 0.116,-0.022 0.12,-0.021 0.079,-0.138 0.219,-0.332 0.419,-0.582 0.093,-0.197 0.204,-0.455 0.332,-0.774 0,-0.028 0.003,-0.058 0.009,-0.091 0.017,-0.092 0.044,-0.208 0.081,-0.347 0.039,-0.156 0.09,-0.357 0.15,-0.605 l 0.823,-3.95 c 0.013,-0.031 0.041,-0.054 0.082,-0.069 0.025,0.021 0.169,0.069 0.428,0.142 l 1.253,0.373 1.247,0.186 c 0.045,0.008 0.216,0.021 0.511,0.04 0.358,-0.027 0.664,-0.06 0.919,-0.099 C -0.622,3.052 -0.528,3.007 -0.399,2.94 -0.038,2.897 0.363,2.673 0.804,2.269 1.2,1.902 1.482,1.534 1.648,1.165 1.893,0.608 2.025,0.332 2.041,0.334 2.045,0.335 2.045,0.344 2.042,0.36" id="path242" stroke="black" style="fill:#244ba6;fill-opacity:1;fill-rule:nonzero;"/>
					</g>
					<g id="g244" transform="translate(502.246,281.0208)">
						
					</g>
					<g id="g248" transform="translate(512.3834,284.2634)">
						
					</g>
				</g>
			</g>
		</g>
	</g>
</svg>