<?xml version="1.0" encoding="iso-8859-1"?><!-- Generator: Adobe Illustrator 23.0.1, SVG Export Plug-In . SVG Version: 6.00 Build 0)  --><svg id="Ebene_1" style="enable-background:new 0 0 610.06 311.81;" version="1.1" viewBox="0 0 610.06 311.81" x="0px" xml:space="preserve" xmlns="http://www.w3.org/2000/svg" xmlns:xlink="http://www.w3.org/1999/xlink" y="0px">
	

	<style type="text/css">
	.st0{fill:#4D595B;}
	.st1{fill:#FFCD00;}
	.st2{fill:#FFFFFF;}
	.st3{clip-path:url(#SVGID_2_);fill:#FFFFFF;}
</style>
	

	<g>
		
	
		
		
	
		
		
	
		
		
	
		
		
	
		<path animation_id="3" class="st1" d="M366.42,174.3l-2.77-3.03c-0.1-0.12-0.25-0.18-0.41-0.19c-0.16-0.02-0.32,0.04-0.43,0.14l-2.73,2.27   c-0.83-0.47-1.55-1.11-2.16-1.93c-0.69-0.94-1.19-2.04-1.45-3.14v-9.06c0-0.09-0.03-0.17-0.08-0.25v-49.43   c0-0.13-0.05-0.26-0.14-0.36l-13.8-15.81c-0.11-0.13-0.27-0.2-0.45-0.21c-0.16,0.02-0.34,0.07-0.46,0.19   c-5.44,5.68-9.84,10.15-13.09,13.28c-2.83,2.72-5.39,5.02-7.64,6.85c-0.05-4.89-0.96-9.03-2.7-12.32c-1.8-3.39-4.74-6.33-8.75-8.72   c-0.25-0.15-0.58-0.1-0.77,0.11l-14.83,16.2c-0.19,0.21-0.2,0.52-0.01,0.73l2.77,3.22c0.11,0.12,0.26,0.2,0.42,0.21   c0.16,0.02,0.33-0.04,0.45-0.15l2.53-2.26c0.92,0.9,1.62,1.91,2.09,3.03c0.54,1.3,0.81,2.91,0.81,4.77v51.83l-5.05,6   c-0.18,0.22-0.17,0.53,0.03,0.74l13.58,13.86c0.11,0.11,0.27,0.18,0.44,0.18c0,0,0,0,0.01,0c0.17,0,0.33-0.07,0.44-0.19L325.4,177   c0.18-0.19,0.21-0.48,0.05-0.7l-4.63-6.59v-46.7l10.89-9.5l6.77,7.22v44.76c0,6.94,0.83,12.3,2.46,15.94   c1.65,3.66,4.55,6.87,8.61,9.52c0.1,0.07,0.22,0.1,0.34,0.1c0.16,0,0.31-0.06,0.43-0.17l16.08-15.81   C366.61,174.85,366.62,174.52,366.42,174.3z" stroke="black"/>
		
	
		
		
	
		
		
	
		
		
	
		
		
	
		
		
	
		
		
	
		
		
	
		
		
	
		
		
	
		
		
	
		
		
	
		
		
	
		
		
	
		
		
	
		
		
	
		
		
	
		
		
	
		
		
	
		
		
	
		<g>
			
		
			<defs>
				
			
				
				
		
			</defs>
			
		
			<clipPath id="SVGID_2_">
				
			
				<use style="overflow:visible;" xlink:href="#SVGID_1_"/>
				
		
			</clipPath>
			
		
			
			
	
		</g>
		

	</g>
	

</svg>