<?xml version="1.0" encoding="iso-8859-1"?><!-- Generator: Adobe Illustrator 23.0.1, SVG Export Plug-In . SVG Version: 6.00 Build 0)  --><svg id="Ebene_1" style="enable-background:new 0 0 610.06 311.81;" version="1.1" viewBox="0 0 610.06 311.81" x="0px" xml:space="preserve" xmlns="http://www.w3.org/2000/svg" xmlns:xlink="http://www.w3.org/1999/xlink" y="0px">
	

	<style type="text/css">
	.st0{fill:#4D595B;}
	.st1{fill:#FFCD00;}
	.st2{fill:#FFFFFF;}
	.st3{clip-path:url(#SVGID_2_);fill:#FFFFFF;}
</style>
	

	<g>
		
	
		
		
	
		
		
	
		
		
	
		<path animation_id="2" class="st1" d="M248.08,97.59h-17V69.25c0-0.25-0.17-0.46-0.41-0.54c-0.24-0.07-0.52,0.01-0.67,0.21l-26.71,34.85   c-0.07,0.1-0.11,0.21-0.11,0.33v3.61c0,0.31,0.27,0.57,0.6,0.57h8.78v50.78c0,3.83-0.4,6.88-1.18,9.09   c-0.76,2.17-2.04,4.02-3.81,5.51c-0.16,0.13-0.23,0.33-0.19,0.53c0.04,0.2,0.19,0.36,0.39,0.42c3.92,1.34,7.76,3.34,11.42,5.93   c3.66,2.59,7.37,5.99,11.02,10.11c0.11,0.13,0.28,0.2,0.46,0.2l0,0c0.18,0,0.34-0.07,0.46-0.2c3.2-3.63,6.11-6.86,8.66-9.6   c2.56-2.77,4.99-5.34,7.23-7.65c0.2-0.2,0.21-0.51,0.04-0.73l-2.5-3.12c-0.1-0.13-0.26-0.21-0.43-0.22   c-0.17-0.02-0.34,0.04-0.46,0.16l-4.4,4.01l-8.17-7.65v-57.76h17c0.33,0,0.6-0.25,0.6-0.57v-9.35   C248.68,97.85,248.41,97.59,248.08,97.59z" stroke="black"/>
		
	
		
		
	
		
		
	
		
		
	
		
		
	
		
		
	
		
		
	
		
		
	
		
		
	
		
		
	
		
		
	
		
		
	
		
		
	
		
		
	
		
		
	
		
		
	
		
		
	
		
		
	
		
		
	
		
		
	
		
		
	
		<g>
			
		
			<defs>
				
			
				
				
		
			</defs>
			
		
			<clipPath id="SVGID_2_">
				
			
				<use style="overflow:visible;" xlink:href="#SVGID_1_"/>
				
		
			</clipPath>
			
		
			
			
	
		</g>
		

	</g>
	

</svg>