<?xml version="1.0" encoding="iso-8859-1"?><!-- Generator: Adobe Illustrator 23.0.1, SVG Export Plug-In . SVG Version: 6.00 Build 0)  --><svg id="Ebene_1" style="enable-background:new 0 0 610.06 311.81;" version="1.1" viewBox="0 0 610.06 311.81" x="0px" xml:space="preserve" xmlns="http://www.w3.org/2000/svg" xmlns:xlink="http://www.w3.org/1999/xlink" y="0px">
	

	<style type="text/css">
	.st0{fill:#4D595B;}
	.st1{fill:#FFCD00;}
	.st2{fill:#FFFFFF;}
	.st3{clip-path:url(#SVGID_2_);fill:#FFFFFF;}
</style>
	

	<g>
		
	
		
		
	
		
		
	
		<path animation_id="1" class="st1" d="M286.66,171.27c-0.11-0.12-0.25-0.18-0.41-0.19c-0.16-0.02-0.31,0.04-0.44,0.14l-2.73,2.27   c-0.93-0.51-1.68-1.16-2.24-1.92c-0.64-0.88-1.1-1.97-1.37-3.14v-55.16l4.44-5.61c0.17-0.22,0.16-0.52-0.03-0.72l-13.67-14.25   c-0.11-0.11-0.27-0.18-0.43-0.18c-0.17,0-0.32,0.06-0.44,0.17l-13.76,13.18c-0.21,0.2-0.23,0.51-0.06,0.73l5.16,6.68v52.23   c0,7.21,0.87,12.72,2.6,16.39c1.74,3.7,4.72,6.76,8.86,9.09c0.09,0.05,0.2,0.08,0.31,0.08c0.16,0,0.31-0.06,0.42-0.17l16.53-15.81   c0.22-0.21,0.23-0.55,0.03-0.77L286.66,171.27z" stroke="black"/>
		
	
		
		
	
		
		
	
		
		
	
		
		
	
		
		
	
		
		
	
		
		
	
		
		
	
		
		
	
		
		
	
		
		
	
		
		
	
		
		
	
		
		
	
		
		
	
		
		
	
		
		
	
		
		
	
		
		
	
		
		
	
		
		
	
		<g>
			
		
			<defs>
				
			
				
				
		
			</defs>
			
		
			<clipPath id="SVGID_2_">
				
			
				<use style="overflow:visible;" xlink:href="#SVGID_1_"/>
				
		
			</clipPath>
			
		
			
			
	
		</g>
		

	</g>
	

</svg>