<?xml version="1.0" encoding="iso-8859-1"?><!-- Generator: Adobe Illustrator 14.0.0, SVG Export Plug-In . SVG Version: 6.00 Build 43363)  --><!DOCTYPE svg  PUBLIC '-//W3C//DTD SVG 1.1//EN'  'http://www.w3.org/Graphics/SVG/1.1/DTD/svg11.dtd'><svg enable-background="new 0 0 1024 210" height="210px" id="Ebene_1" version="1.1" viewBox="0 0 1024 210" width="1024px" x="0px" xml:space="preserve" xmlns="http://www.w3.org/2000/svg" xmlns:xlink="http://www.w3.org/1999/xlink" y="0px">
	

	
	

	
	

	
	

	
	

	
	

	
	

	<path animation_id="6" d="M675.943,94.399c-13.309,0-21.854,1.242-27.336,3.998c-11.169,5.257-18.06,18.272-18.06,33.782  c0,12.266,4.517,22.773,12.602,29.271c7.602,6.014,14.02,7.268,37.558,7.268h62.276V95.401c0-19.268-2.135-28.025-8.796-36.288  c-7.601-9.5-16.389-12.259-40.648-12.259h-56.815v22.271h54.2c13.313,0,18.313,1.753,21.878,7.008  c2.854,4.25,3.318,7.755,3.318,18.267H675.943z M716.12,116.67v29.77h-37.791c-14.504,0-20.207-4-20.207-14.504  c0-6.766,2.854-11.766,7.612-13.77c2.851-1.248,5.458-1.496,12.595-1.496H716.12z" fill="#00340D" stroke="black"/>
	

	
	

	
	

</svg>