<?xml version="1.0" encoding="iso-8859-1"?><!-- Generator: Adobe Illustrator 23.0.1, SVG Export Plug-In . SVG Version: 6.00 Build 0)  --><svg id="Ebene_1" style="enable-background:new 0 0 610.06 311.81;" version="1.1" viewBox="0 0 610.06 311.81" x="0px" xml:space="preserve" xmlns="http://www.w3.org/2000/svg" xmlns:xlink="http://www.w3.org/1999/xlink" y="0px">
	

	<style type="text/css">
	.st0{fill:#4D595B;}
	.st1{fill:#FFCD00;}
	.st2{fill:#FFFFFF;}
	.st3{clip-path:url(#SVGID_2_);fill:#FFFFFF;}
</style>
	

	<g>
		
	
		
		
	
		
		
	
		
		
	
		
		
	
		
		
	
		
		
	
		
		
	
		
		
	
		
		
	
		
		
	
		
		
	
		
		
	
		
		
	
		
		
	
		
		
	
		
		
	
		
		
	
		
		
	
		
		
	
		
		
	
		
		
	
		
		
	
		<path animation_id="21" class="st1" d="M198.04,64.31l-3.98-2.03c-0.28-0.14-0.62-0.06-0.79,0.19l-4.59,7c-5.96-2.53-0.15-0.06-33.83-12.84   l-1.05-0.38l-0.01,0.03c0,0-0.01,0-0.01,0l0.01-0.03c-0.23-0.1-0.58,0.06-0.75,0.23l-0.07,0.1c-3.95,4.46-8.25,8.5-12.8,11.99   c-4.74,3.64-9.85,6.83-15.17,9.48c-0.2,0.1-0.32,0.29-0.32,0.5l-0.03,47.15c0,0.19,0.1,0.37,0.27,0.47l26.65,16.78   c0.13,0.08,0.3,0.12,0.45,0.08c0.16-0.03,0.3-0.12,0.38-0.25l11.34-17.13l11.24,7.29v38.38c-6.72-4.28-14.25-6.46-22.41-6.46   c-7.85,0-18.82,2.07-34.08,11.91c-0.36,0.23-0.6,0.39-0.69,0.44c-0.1,0.05-0.18,0.12-0.23,0.21l-7.84,12.39   c-0.16,0.25-0.09,0.57,0.16,0.75l2.67,1.9c0.23,0.17,0.57,0.15,0.78-0.05c2.64-2.51,8.64-8.36,21.96-8.36   c6.16,0,12.63,1.3,19.25,3.85c3.6,1.39,7.18,3.43,10.66,6.05c0.11,0.08,0.24,0.12,0.37,0.12c0.03,0,0.05,0,0.08,0   c0.16-0.02,0.31-0.1,0.4-0.23c2.15-2.8,13.58-16.89,27.39-18.8c0.3-0.04,0.51-0.28,0.51-0.56l-0.01-52.86   c0-0.18-0.09-0.35-0.24-0.45l-24.12-17.23c-0.13-0.1-0.31-0.14-0.47-0.1c-0.17,0.03-0.31,0.13-0.4,0.26l-11.66,18.4l-12.51-7.92   v-39.8c19.97-0.48,27.86,2.68,30.59,6.83c2.84,4.31,1.38,8.28,1.36,8.32c-0.09,0.25,0,0.54,0.25,0.68l3.38,2.02   c0.14,0.08,0.29,0.11,0.46,0.07c0.15-0.03,0.29-0.13,0.37-0.26l17.33-27.33c0.08-0.13,0.11-0.29,0.06-0.44   C198.3,64.51,198.19,64.38,198.04,64.31z" stroke="black"/>
		
	
		
		
	
		<g>
			
		
			<defs>
				
			
				
				
		
			</defs>
			
		
			<clipPath id="SVGID_2_">
				
			
				<use style="overflow:visible;" xlink:href="#SVGID_1_"/>
				
		
			</clipPath>
			
		
			
			
	
		</g>
		

	</g>
	

</svg>