<?xml version="1.0" encoding="iso-8859-1"?><!-- Generator: Adobe Illustrator 23.0.1, SVG Export Plug-In . SVG Version: 6.00 Build 0)  --><svg id="Ebene_1" style="enable-background:new 0 0 610.06 311.81;" version="1.1" viewBox="0 0 610.06 311.81" x="0px" xml:space="preserve" xmlns="http://www.w3.org/2000/svg" xmlns:xlink="http://www.w3.org/1999/xlink" y="0px">
	

	<style type="text/css">
	.st0{fill:#4D595B;}
	.st1{fill:#FFCD00;}
	.st2{fill:#FFFFFF;}
	.st3{clip-path:url(#SVGID_2_);fill:#FFFFFF;}
</style>
	

	<g>
		
	
		
		
	
		
		
	
		
		
	
		
		
	
		
		
	
		
		
	
		<path animation_id="5" class="st1" d="M524.2,113.62c2.73,0.79,5.52,1.2,8.31,1.2c1.14,0,2.55-0.1,4.19-0.3c1.62-0.2,3.43-0.49,5.43-0.89   c0,0,2.44-0.59,3.69-0.94c1.25-0.35,3.03-0.95,3.03-0.95c0.13-0.04,0.24-0.13,0.31-0.24l6.02-9.53c0.73-1.1,1.42-2.21,2.09-3.39   c0.08-0.14,0.09-0.3,0.04-0.45c-0.05-0.15-0.16-0.27-0.31-0.34l-3.52-1.55c-0.15-0.06-0.31-0.07-0.46-0.01   c-0.15,0.05-0.27,0.16-0.33,0.3c-0.39,0.85-1,1.59-1.81,2.19c-1.58,1.18-3.75,1.78-6.46,1.78c-3.08,0-6.57-0.69-10.38-2.06   c-3.83-1.38-7.93-3.41-12.17-6.04c-0.25-0.16-0.6-0.11-0.79,0.12c-3,3.53-6.32,6.7-9.87,9.43c-3.55,2.72-7.37,5.08-11.38,7.01   c-0.2,0.1-0.33,0.29-0.33,0.5v32.01c0,0.19,0.1,0.37,0.27,0.47l20.78,13.21c0.14,0.09,0.31,0.12,0.46,0.09   c0.16-0.03,0.3-0.12,0.38-0.26l8.91-13.49l9.14,5.85v24.77c-2.69-1.73-5.36-3.09-7.95-4.03c-4.89-1.78-9.69-1.98-14.59-1   c-1.97,0.4-4.01,1.04-6.06,1.89c-0.09,0.04-2.13,0.89-3.76,1.75c-1.62,0.86-3.6,2.12-3.68,2.18c-0.08,0.05-0.13,0.11-0.18,0.18   l-8.2,13.1c-0.15,0.24-0.09,0.55,0.14,0.73l3.31,2.54c0.2,0.15,0.47,0.17,0.69,0.04c3.04-1.79,5.98-3.13,8.72-3.99   c5.62-1.76,11.35-1.76,16.74,0.33c2.79,1.08,5.57,2.73,8.24,4.89c0.11,0.09,0.25,0.14,0.39,0.14c0.16,0,0.32-0.06,0.44-0.18   c3.58-3.66,7.23-6.74,10.85-9.15c3.6-2.4,7.27-4.27,10.9-5.55c0.23-0.08,0.39-0.29,0.39-0.53v-37.77c0-0.18-0.09-0.35-0.24-0.45   l-19.86-14.12c-0.14-0.1-0.31-0.14-0.47-0.11c-0.17,0.03-0.31,0.13-0.4,0.26l-9.12,14.39l-8.87-5.65v-21.53   C519.31,111.86,521.78,112.91,524.2,113.62z" stroke="black"/>
		
	
		
		
	
		
		
	
		
		
	
		
		
	
		
		
	
		
		
	
		
		
	
		
		
	
		
		
	
		
		
	
		
		
	
		
		
	
		
		
	
		
		
	
		
		
	
		
		
	
		
		
	
		<g>
			
		
			<defs>
				
			
				
				
		
			</defs>
			
		
			<clipPath id="SVGID_2_">
				
			
				<use style="overflow:visible;" xlink:href="#SVGID_1_"/>
				
		
			</clipPath>
			
		
			
			
	
		</g>
		

	</g>
	

</svg>