<?xml version="1.0" encoding="iso-8859-1"?><!-- Generator: Adobe Illustrator 23.0.1, SVG Export Plug-In . SVG Version: 6.00 Build 0)  --><svg id="Ebene_1" style="enable-background:new 0 0 610.06 311.81;" version="1.1" viewBox="0 0 610.06 311.81" x="0px" xml:space="preserve" xmlns="http://www.w3.org/2000/svg" xmlns:xlink="http://www.w3.org/1999/xlink" y="0px">
	

	<style type="text/css">
	.st0{fill:#4D595B;}
	.st1{fill:#FFCD00;}
	.st2{fill:#FFFFFF;}
	.st3{clip-path:url(#SVGID_2_);fill:#FFFFFF;}
</style>
	

	<g>
		
	
		
		
	
		
		
	
		
		
	
		
		
	
		
		
	
		
		
	
		
		
	
		
		
	
		
		
	
		
		
	
		
		
	
		
		
	
		
		
	
		
		
	
		
		
	
		
		
	
		<path animation_id="15" class="st1" d="M68.75,78.14c-0.08-0.07-0.18-0.09-0.28-0.07l-2.8,0.49c-0.11,0.02-0.21,0.1-0.25,0.2L60.3,90.72   c-0.02,0.04-0.03,0.09-0.03,0.14l-0.05,13.07c0,0.1,0.04,0.2,0.12,0.27c0.08,0.07,0.18,0.09,0.28,0.07l2.8-0.49   c0.12-0.02,0.21-0.1,0.26-0.2l5.12-11.96c0.02-0.05,0.03-0.1,0.03-0.14l0.05-13.07C68.87,78.3,68.83,78.2,68.75,78.14z" stroke="black"/>
		
	
		
		
	
		
		
	
		
		
	
		
		
	
		
		
	
		
		
	
		
		
	
		<g>
			
		
			<defs>
				
			
				
				
		
			</defs>
			
		
			<clipPath id="SVGID_2_">
				
			
				<use style="overflow:visible;" xlink:href="#SVGID_1_"/>
				
		
			</clipPath>
			
		
			
			
	
		</g>
		

	</g>
	

</svg>