<?xml version="1.0" encoding="iso-8859-1"?><!-- Generator: Adobe Illustrator 23.0.1, SVG Export Plug-In . SVG Version: 6.00 Build 0)  --><svg id="Ebene_1" style="enable-background:new 0 0 610.06 311.81;" version="1.1" viewBox="0 0 610.06 311.81" x="0px" xml:space="preserve" xmlns="http://www.w3.org/2000/svg" xmlns:xlink="http://www.w3.org/1999/xlink" y="0px">
	

	<style type="text/css">
	.st0{fill:#4D595B;}
	.st1{fill:#FFCD00;}
	.st2{fill:#FFFFFF;}
	.st3{clip-path:url(#SVGID_2_);fill:#FFFFFF;}
</style>
	

	<g>
		
	
		
		
	
		
		
	
		
		
	
		
		
	
		
		
	
		
		
	
		
		
	
		
		
	
		
		
	
		
		
	
		
		
	
		
		
	
		
		
	
		
		
	
		
		
	
		
		
	
		
		
	
		
		
	
		
		
	
		
		
	
		
		
	
		
		
	
		
		
	
		<path animation_id="22" class="st2" d="M546.86,255.02l7.29-8.91c1.03-1.27,1.65-2.91,1.65-4.56c0-3.85-3.23-6.64-7-6.64c-4.03,0-6.58,2.65-7.02,6.58   h2.76c0.15-2.23,2-4.06,4.26-4.06c2.29,0,4.35,1.91,4.35,4.23c0,1.47-1.06,2.85-1.97,3.97l-9.7,11.91h14.32v-2.53H546.86z    M536.64,237.91v-2.53h-8.88l-3.41,11.38h0.53c0.97-1.23,2.59-1.97,4.15-1.97c2.85,0,5.29,2.41,5.29,5.26   c0,2.97-2.35,5.44-5.35,5.44c-1.97,0-4.23-1.41-4.91-3.29l-2.06,1.94c1.29,2.44,4.03,3.88,6.76,3.88c4.56,0,8.2-3.2,8.2-7.88   c0-4.09-2.82-7.76-7.11-7.76l-1.56,0.09l1.38-4.56H536.64z M510.56,237.26c2,0,3.76,1.7,3.76,3.82c0,1.76-1.91,3.76-3.76,3.76   c-1.85,0-3.76-2-3.76-3.76C506.8,238.96,508.56,237.26,510.56,237.26 M503.62,251.37c0,4.11,3.17,6.64,6.94,6.64   c3.76,0,6.94-2.53,6.94-6.64c0-2.38-1.2-4.53-3.5-5.32c1.82-1.03,2.91-2.79,2.91-4.97c0-3.62-2.82-6.17-6.35-6.17   c-3.53,0-6.35,2.56-6.35,6.17c0,2.18,1.09,3.94,2.91,4.97C504.83,246.85,503.62,248.99,503.62,251.37 M510.56,247.2   c2.24,0,4.29,1.83,4.29,4.18c0,2.23-2.11,4.17-4.29,4.17c-2.17,0-4.29-1.94-4.29-4.17C506.27,249.02,508.33,247.2,510.56,247.2    M493.42,237.91v19.64h2.65v-22.17h-4.97l-1.53,2.53H493.42z M470.08,237.91h5.27v-2.53h-13.29v2.53h5.26v19.64h2.76V237.91z    M457.92,235.38h-2.76v22.17h2.76V235.38z M437.87,257.55h11.91v-2.53h-9.14v-8.38h8.88v-2.53h-8.88v-6.2h9.14v-2.53h-11.91V257.55   z M432.08,238.26c-1.2-2.15-3.23-3.35-5.7-3.35c-3.35,0-6.53,2.15-6.53,5.73c0,3.09,2.29,4.53,4.82,5.62l1.53,0.65   c1.91,0.79,3.82,1.82,3.82,4.2c0,2.32-1.71,4.32-4.09,4.32c-2.38,0-4.32-1.76-4.29-4.2l-2.79,0.59c0.47,3.56,3.26,6.2,6.85,6.2   c3.97,0,7.09-2.88,7.09-6.91c0-3.7-2.35-5.44-5.5-6.67l-1.59-0.62c-1.38-0.53-3.08-1.44-3.08-3.17c0-1.94,1.94-3.15,3.7-3.15   c1.68,0,2.73,0.71,3.56,2.09L432.08,238.26z M403.27,235.38h-2.76v22.17h2.76V235.38z M383.22,257.55h11.91v-2.53h-9.14v-8.38h8.88   v-2.53h-8.88v-6.2h9.14v-2.53h-11.91V257.55z M367.96,237.85h0.73c2.73,0,6.03,0.5,6.03,3.97c0,3.53-3.06,4.06-5.88,4.06h-0.88   V237.85z M371.99,247.9c3.2-0.38,5.32-3.03,5.32-6.2c0-2.12-1.06-4.21-2.91-5.29c-1.76-1-3.88-1.03-5.85-1.03h-3.35v22.17h2.76   v-9.38h1.15l6.53,9.38h3.35L371.99,247.9z M347.83,257.55h11.91v-2.53h-9.14v-8.38h8.88v-2.53h-8.88v-6.2h9.14v-2.53h-11.91V257.55   z M330.9,244.99v-9.61h-2.76v22.17h2.76v-9.26l1.12-1.06l8.35,10.32h3.73l-10.14-12.2l9.97-9.97h-3.62L330.9,244.99z    M322.78,236.41c-1.67-1.03-3.64-1.5-5.58-1.5c-6.53,0-11.79,5.11-11.79,11.67c0,6.41,5.23,11.44,11.55,11.44   c1.94,0,4.12-0.56,5.82-1.56v-3.26c-1.64,1.47-3.73,2.29-5.91,2.29c-4.94,0-8.7-4.15-8.7-9c0-4.91,3.8-9.05,8.76-9.05   c2.09,0,4.26,0.76,5.85,2.17V236.41z M295.27,229.47c-1,0-1.79,0.79-1.79,1.76c0,1,0.79,1.79,1.79,1.79c0.97,0,1.76-0.8,1.76-1.79   C297.03,230.27,296.24,229.47,295.27,229.47 M289.07,229.47c-1,0-1.79,0.79-1.79,1.76c0,1,0.79,1.79,1.79,1.79   c0.97,0,1.76-0.8,1.76-1.79C290.83,230.27,290.04,229.47,289.07,229.47 M296.09,249.46h-7.88l3.94-8.97L296.09,249.46z    M297.24,251.99l2.53,5.55h2.97l-10.58-23.1l-10.58,23.1h2.97l2.53-5.55H297.24z M265.9,257.55h5.17c3.91,0,7.7-1.76,7.7-6.2   c0-2.59-1.82-5.14-4.44-5.62v-0.06c1.5-0.71,2.38-2.59,2.38-4.2c0-5-3.94-6.09-8.11-6.09h-2.71V257.55z M268.67,247.4h1.7   c2.47,0,5.65,0.65,5.65,3.76c0,3.15-2.68,3.91-5.23,3.91h-2.12V247.4z M268.67,237.85h0.76c2.59,0,4.7,0.53,4.7,3.64   c0,3.18-2.15,3.71-4.76,3.71h-0.71V237.85z M247.06,237.91h0.97c5.64,0,10.52,2.09,10.52,8.55c0,6.44-4.88,8.56-10.52,8.56h-0.97   V237.91z M244.3,257.55h4.5c7,0,12.52-3.65,12.52-11.2c0-7.38-5.64-10.96-12.43-10.96h-4.59V257.55z M219.13,257.55h2.76v-16.52   l16.64,17.43v-23.08h-2.76v16.38l-16.64-17.43V257.55z M208.84,249.46h-7.88l3.94-8.97L208.84,249.46z M209.99,251.99l2.53,5.55   h2.97l-10.58-23.1l-10.58,23.1h2.97l2.53-5.55H209.99z M186.06,235.38h-2.76v22.17h9.49v-2.53h-6.73V235.38z M155.38,257.55h11.91   v-2.53h-9.14v-8.38h8.88v-2.53h-8.88v-6.2h9.14v-2.53h-11.91V257.55z M149.17,235.38h-2.76v22.17h2.76V235.38z M127.42,237.91h0.97   c5.64,0,10.52,2.09,10.52,8.55c0,6.44-4.88,8.56-10.52,8.56h-0.97V237.91z M124.66,257.55h4.5c7,0,12.52-3.65,12.52-11.2   c0-7.38-5.64-10.96-12.43-10.96h-4.58V257.55z" stroke="black"/>
		
	
		<g>
			
		
			<defs>
				
			
				
				
		
			</defs>
			
		
			<clipPath id="SVGID_2_">
				
			
				<use style="overflow:visible;" xlink:href="#SVGID_1_"/>
				
		
			</clipPath>
			
		
			
			
	
		</g>
		

	</g>
	

</svg>