<?xml version="1.0" encoding="iso-8859-1"?><!-- Generator: Adobe Illustrator 23.0.1, SVG Export Plug-In . SVG Version: 6.00 Build 0)  --><svg id="Ebene_1" style="enable-background:new 0 0 610.06 311.81;" version="1.1" viewBox="0 0 610.06 311.81" x="0px" xml:space="preserve" xmlns="http://www.w3.org/2000/svg" xmlns:xlink="http://www.w3.org/1999/xlink" y="0px">
	

	<style type="text/css">
	.st0{fill:#4D595B;}
	.st1{fill:#FFCD00;}
	.st2{fill:#FFFFFF;}
	.st3{clip-path:url(#SVGID_2_);fill:#FFFFFF;}
</style>
	

	<g>
		
	
		
		
	
		
		
	
		
		
	
		
		
	
		
		
	
		
		
	
		
		
	
		
		
	
		
		
	
		
		
	
		
		
	
		
		
	
		
		
	
		
		
	
		
		
	
		
		
	
		
		
	
		<path animation_id="16" class="st1" d="M39.85,83.24c0.05-0.09,0.14-0.15,0.24-0.17l2.8-0.49c0.11-0.02,0.23,0.02,0.31,0.1l8.9,9.49   c0.03,0.04,0.06,0.08,0.07,0.12l4.51,12.26c0.04,0.1,0.03,0.2-0.02,0.29c-0.05,0.09-0.14,0.15-0.24,0.17l-2.8,0.5   c-0.12,0.02-0.23-0.02-0.31-0.1l-8.9-9.48c-0.04-0.04-0.06-0.09-0.07-0.12l-4.52-12.27C39.79,83.43,39.8,83.32,39.85,83.24z" stroke="black"/>
		
	
		
		
	
		
		
	
		
		
	
		
		
	
		
		
	
		
		
	
		<g>
			
		
			<defs>
				
			
				
				
		
			</defs>
			
		
			<clipPath id="SVGID_2_">
				
			
				<use style="overflow:visible;" xlink:href="#SVGID_1_"/>
				
		
			</clipPath>
			
		
			
			
	
		</g>
		

	</g>
	

</svg>