<?xml version="1.0" encoding="iso-8859-1"?><!-- Generator: Adobe Illustrator 24.3.0, SVG Export Plug-In . SVG Version: 6.00 Build 0)  --><svg id="Ebene_1" style="enable-background:new 0 0 2991.04 800;" version="1.1" viewBox="0 0 2991.04 800" x="0px" xml:space="preserve" xmlns="http://www.w3.org/2000/svg" xmlns:xlink="http://www.w3.org/1999/xlink" y="0px">
	

	<style type="text/css">
	.st0{fill:#4A4A49;}
</style>
	

	<g>
		
	
		
		
	
		
		
	
		
		
	
		
		
	
		
		
	
		
		
	
		<path animation_id="6" class="st0" d="M2467.09,351.67c0.6,2.3-0.26,4.27-0.66,6.26c-4.28,21.26-8.64,42.51-12.97,63.76   c-0.19,0.92-0.32,1.85-0.55,2.75c-0.57,2.25-1.14,2.75-3.46,2.88c-1.68,0.09-3.37,0.05-5.05,0.05c-20.21,0-40.41,0-60.62,0.01   c-6.57,0-6.28-0.28-7.59,6.15c-6.02,29.5-12.06,58.99-18.13,88.47c-0.69,3.34-0.81,6.71-0.51,10.05c0.5,5.54,3.1,9.94,7.86,12.93   c3.88,2.44,8.19,3.59,12.72,4.01c8.46,0.77,16.81-0.04,25.1-1.71c6.98-1.41,13.78-3.44,20.48-5.85c0.88-0.32,1.76-0.63,2.66-0.89   c2.16-0.64,2.91-0.07,2.52,2.03c-0.98,5.33-2.02,10.65-3.07,15.98c-2.63,13.39-5.27,26.79-7.91,40.18   c-0.18,0.92-0.48,1.82-0.58,2.74c-0.23,2.06-1.45,3.33-3.11,4.39c-6.96,4.44-14.19,8.34-21.87,11.37   c-12.97,5.12-26.5,7.83-40.34,9.21c-9.51,0.95-19.04,1.22-28.58,1.03c-10.89-0.21-21.64-1.53-32.13-4.54   c-8.89-2.55-17.16-6.4-24.35-12.34c-11.05-9.14-16.96-21.15-19.45-35.04c-1.93-10.77-1.68-21.59-0.59-32.42   c1.07-10.63,3.43-21.04,5.55-31.48c5.28-26.02,10.66-52.02,16-78.03c0.08-0.37,0.14-0.73,0.21-1.1c0.86-4.95,0.79-5.11-4.2-5.11   c-18.52-0.03-37.04-0.01-55.57-0.02c-1.87,0-3.74-0.03-5.6-0.16c-1.33-0.09-1.95-0.94-1.82-2.29c0.09-0.93,0.27-1.85,0.48-2.76   c4.89-21.9,9.8-43.79,14.7-65.69c0.25-1.1,0.49-2.19,0.76-3.28c0.31-1.21,1.11-1.95,2.36-2.03c1.68-0.1,3.36-0.13,5.05-0.13   c17.96-0.01,35.92,0.02,53.88-0.02c6.9-0.02,6.64,0.82,8.28-6.72c7.02-32.15,14.06-64.3,21.22-96.42c1.71-7.67,0.22-7.34,8.91-7.34   c30.5-0.01,60.99-0.01,91.49,0.01c1.87,0,3.74,0.05,5.6,0.2c1.3,0.11,1.94,0.97,1.82,2.33c-0.12,1.3-0.34,2.6-0.59,3.88   c-6.48,32.46-12.97,64.92-19.45,97.38c-0.29,1.47-0.55,2.94-0.74,4.43c-0.17,1.33,0.47,2.09,1.9,2.18c1.68,0.1,3.36,0.1,5.05,0.1   c19.46,0.01,38.91-0.01,58.37,0.02C2462.78,351.04,2465.06,350.68,2467.09,351.67z" stroke="black"/>
		
	
		
		
	
		
		
	
		
		
	
		
		
	
		
		
	
		
		

	</g>
	

	
	

</svg>