<?xml version="1.0" encoding="iso-8859-1"?><!-- Generator: Adobe Illustrator 24.3.0, SVG Export Plug-In . SVG Version: 6.00 Build 0)  --><svg id="Ebene_1" style="enable-background:new 0 0 2991.04 800;" version="1.1" viewBox="0 0 2991.04 800" x="0px" xml:space="preserve" xmlns="http://www.w3.org/2000/svg" xmlns:xlink="http://www.w3.org/1999/xlink" y="0px">
	

	<style type="text/css">
	.st0{fill:#4A4A49;}
</style>
	

	<g>
		
	
		
		
	
		
		
	
		<path animation_id="2" class="st0" d="M1108.17,542.14c17.78,0,35.55,0,53.33,0c1.5,0,2.99,0.03,4.49,0.05c1.22,0.01,2.14,0.48,2.64,1.67   c0.43,1.03,0.95,2.03,1.42,3.05c3.48,7.67,9.23,13.04,16.79,16.6c6.33,2.98,13.05,4.61,19.93,5.51c10.98,1.43,21.99,1.5,33.04,0.56   c8.03-0.68,15.99-1.68,23.79-3.75c6-1.59,11.75-3.77,17.05-7.03c3.7-2.28,6.95-5.08,9.54-8.58c2.87-3.87,4.44-8.16,4.29-13.07   c-0.1-3.57-1.43-6.5-3.91-9.02c-2.14-2.17-4.72-3.66-7.45-4.93c-5.14-2.39-10.61-3.62-16.15-4.58c-7.38-1.27-14.81-1.97-22.3-2.42   c-18.13-1.09-36.27-1.13-54.41-0.85c-16.7,0.26-33.28-0.66-49.6-4.52c-13.36-3.16-26.2-7.64-38.08-14.65   c-7.46-4.4-14.27-9.61-19.83-16.32c-10.59-12.78-13.69-27.13-8.99-43.08c3.34-11.34,9.56-21.08,17.17-29.97   c12.21-14.27,27.03-25.24,43.62-33.86c17.03-8.85,35.13-14.79,53.72-19.32c20.4-4.98,41.1-7.94,62.06-9.31   c13.27-0.87,26.54-1.12,39.81-0.48c18.75,0.91,37.21,3.69,55.11,9.57c18.73,6.15,35.76,15.28,50.11,28.96   c10.42,9.93,18.62,21.44,23.87,34.93c0.41,1.05,0.81,2.1,1.15,3.16c1.05,3.34,0.6,4.01-2.81,4.16c-1.49,0.06-2.99,0.03-4.49,0.03   c-31.81,0-63.62,0-95.43,0c-1.12,0-2.25-0.09-3.37,0.01c-2.79,0.26-4.44-0.82-5.53-3.52c-2.96-7.37-8.61-12.03-15.83-15.01   c-5.24-2.16-10.72-3.36-16.28-4.08c-22.43-2.88-44.42-1.12-65.83,6.48c-5.3,1.88-10.45,4.09-15.27,7.02   c-3.38,2.05-6.5,4.42-9.08,7.44c-5.02,5.89-4.7,13.2,0.84,18.63c2.44,2.39,5.4,3.99,8.54,5.28c5.04,2.09,10.34,3.27,15.68,4.23   c10.14,1.83,20.41,2.61,30.66,3.33c18.47,1.31,36.97,2.13,55.42,3.69c21.25,1.79,42.41,4.38,63.11,9.86   c8.33,2.21,16.5,4.87,24.29,8.6c6.79,3.25,13.08,7.22,18.37,12.68c6.55,6.77,10.02,14.73,10.1,24.2   c0.26,30.95-11.95,55.83-36.31,74.8c-12.83,10-27.28,16.97-42.52,22.38c-16.45,5.84-33.39,9.67-50.62,12.29   c-18.51,2.82-37.14,4.31-55.85,4.99c-11.6,0.42-23.18,0.73-34.77,0.34c-23.61-0.79-47.01-3.14-69.83-9.73   c-11.55-3.33-22.65-7.72-33.11-13.67c-9.84-5.59-18.68-12.46-25.99-21.14c-8.99-10.68-15.03-22.74-16.69-36.76   c-0.09-0.74-0.22-1.48-0.24-2.23c-0.05-1.65,0.64-2.49,2.23-2.59c1.68-0.1,3.37-0.09,5.05-0.09   C1072.62,542.14,1090.4,542.14,1108.17,542.14z" stroke="black"/>
		
	
		
		
	
		
		
	
		
		
	
		
		
	
		
		
	
		
		
	
		
		
	
		
		
	
		
		
	
		
		

	</g>
	

	
	

</svg>