<?xml version="1.0" encoding="iso-8859-1"?><!-- Generator: Adobe Illustrator 24.3.0, SVG Export Plug-In . SVG Version: 6.00 Build 0)  --><svg id="Ebene_1" style="enable-background:new 0 0 2991.04 800;" version="1.1" viewBox="0 0 2991.04 800" x="0px" xml:space="preserve" xmlns="http://www.w3.org/2000/svg" xmlns:xlink="http://www.w3.org/1999/xlink" y="0px">
	

	<style type="text/css">
	.st0{fill:#4A4A49;}
</style>
	

	<g>
		
	
		
		
	
		
		
	
		
		
	
		
		
	
		
		
	
		
		
	
		
		
	
		
		
	
		
		
	
		
		
	
		
		
	
		
		
	
		<path animation_id="12" class="st0" d="M870,467.47c-0.5-32.17-12.71-59.25-35.83-81.44c-12.85-12.34-27.9-21.32-44.37-27.97   c-27.52-11.12-56.35-14.72-85.76-14.37c-14.96,0.18-29.87,1.55-44.65,4.13c-23.01,4.02-45.07,10.91-65.83,21.67   c-23.94,12.41-44.55,28.94-60.54,50.78c-21.1,28.83-31.34,60.98-28.43,96.9c1.92,23.75,10.91,44.51,26.82,62.25   c10.5,11.7,23.05,20.71,36.94,27.97c18.42,9.63,38.07,15.5,58.47,18.98c8.29,1.41,16.67,2.32,25,3.45   c2.48,1.42,5.41-0.39,7.88,1.09c10.85,0,21.71,0,32.56,0c2.08-1.44,4.67,0.3,6.75-1.1c6.83-1.1,13.7-2,20.49-3.33   c33.75-6.58,64.63-19.83,92.34-40.25c14.86-10.95,27.98-23.68,38.31-39.09c1.11-1.65,3.41-3.35,2.54-5.29   c-0.96-2.14-3.69-0.68-5.61-1.03c-0.36-0.07-0.75-0.01-1.12-0.01c-33.13,0-66.25,0-99.38,0c-1.12,0-2.25,0.09-3.37-0.01   c-2.66-0.25-4.54,0.66-6.14,2.94c-3.6,5.14-8.51,8.88-13.87,12.08c-7.14,4.27-14.88,7.03-22.96,8.78   c-13.44,2.91-27.02,3.74-40.71,2.23c-6.54-0.72-12.87-2.38-18.91-5.03c-12.58-5.52-21.51-14.68-26.93-27.27   c-3.68-8.54-5.23-17.53-5.55-26.77c-0.08-2.44,0.2-4.86,0.94-7.21c0.38-1.21,1.18-1.9,2.43-1.94c2.06-0.07,4.12-0.09,6.17-0.09   c80.29,0,160.57,0,240.86-0.01c2.06,0,4.12-0.04,6.17-0.1c1.28-0.04,2.11-0.81,2.39-1.99c0.53-2.18,0.98-4.38,1.38-6.59   C869.85,482.44,870.11,474.96,870,467.47z M757.38,448.43c-0.09,0.74-0.26,1.47-0.48,2.18c-0.36,1.18-1.18,1.91-2.42,1.98   c-1.86,0.1-3.73,0.15-5.6,0.15c-20.56,0.01-41.12,0.01-61.69,0.01c-20.75,0-41.5,0.01-62.25,0c-7.31,0-7.45-0.12-5.16-7.18   c5.85-18.05,17.45-31.14,34.67-39.05c14.4-6.62,29.73-8.59,45.42-7.69c9.53,0.55,18.92,2.2,28.05,5.14c3.56,1.15,7,2.58,10.39,4.15   c6.95,3.2,11.73,8.52,15.1,15.22C757.41,431.26,758.43,439.69,757.38,448.43z" stroke="black"/>
		

	</g>
	

	
	

</svg>