<?xml version="1.0" encoding="iso-8859-1"?><!-- Generator: Adobe Illustrator 24.3.0, SVG Export Plug-In . SVG Version: 6.00 Build 0)  --><svg id="Ebene_1" style="enable-background:new 0 0 2991.04 800;" version="1.1" viewBox="0 0 2991.04 800" x="0px" xml:space="preserve" xmlns="http://www.w3.org/2000/svg" xmlns:xlink="http://www.w3.org/1999/xlink" y="0px">
	

	<style type="text/css">
	.st0{fill:#4A4A49;}
</style>
	

	<g>
		
	
		
		
	
		
		
	
		
		
	
		
		
	
		
		
	
		
		
	
		
		
	
		
		
	
		
		
	
		<path animation_id="9" class="st0" d="M2059.87,621.19c-15.9,0-31.8,0-47.69,0c-1.68,0-3.37,0.04-5.05-0.05c-2.82-0.15-3.23-0.64-2.66-3.47   c2.88-14.1,5.81-28.2,8.73-42.29c6.65-32.03,13.29-64.06,19.95-96.09c6.13-29.47,12.28-58.92,18.42-88.39   c2.82-13.54,5.52-27.11,8.46-40.63c1.59-7.34,0.45-6.92,8.23-5.08c8.91,2.11,17.76,4.5,26.91,5.43c3.53,0.36,7.08,0.68,10.62,0.75   c18,0.38,35.88-0.81,53.52-4.62c3.84-0.83,7.64-1.8,11.47-2.65c1.8-0.4,2.53,0.26,2.2,1.99c-0.7,3.67-1.46,7.33-2.22,10.99   c-8.54,40.99-17.07,81.99-25.63,122.98c-8.37,40.07-16.77,80.14-25.16,120.21c-1.19,5.67-2.32,11.36-3.58,17.01   c-0.82,3.66-1.02,3.8-4.9,3.87c-4.49,0.08-8.98,0.03-13.47,0.03C2085.3,621.19,2072.58,621.19,2059.87,621.19z" stroke="black"/>
		
	
		
		
	
		
		
	
		
		

	</g>
	

	
	

</svg>