<?xml version="1.0" encoding="iso-8859-1"?><!-- Generator: Adobe Illustrator 24.3.0, SVG Export Plug-In . SVG Version: 6.00 Build 0)  --><svg id="Ebene_1" style="enable-background:new 0 0 2991.04 800;" version="1.1" viewBox="0 0 2991.04 800" x="0px" xml:space="preserve" xmlns="http://www.w3.org/2000/svg" xmlns:xlink="http://www.w3.org/1999/xlink" y="0px">
	

	<style type="text/css">
	.st0{fill:#4A4A49;}
</style>
	

	<g>
		
	
		
		
	
		
		
	
		
		
	
		
		
	
		
		
	
		
		
	
		
		
	
		
		
	
		
		
	
		
		
	
		<path animation_id="10" class="st0" d="M2140.29,238.96c16.28,0,32.56,0,48.84,0.01c1.68,0,3.36,0.06,5.04,0.14c1.1,0.06,1.69,0.73,1.68,1.81   c-0.01,0.93-0.09,1.87-0.28,2.78c-3.5,16.65-7.12,33.28-10.46,49.97c-0.63,3.13-2.06,4.93-4.78,6.29   c-9.1,4.55-18.62,7.77-28.59,9.72c-12.54,2.45-25.22,3.43-37.96,3.1c-13.54-0.35-26.78-2.69-39.56-7.31   c-2.97-1.07-3.25-1.5-2.63-4.52c2.63-12.82,5.32-25.64,7.98-38.45c1.37-6.59,2.71-13.19,4.12-19.77c0.74-3.47,0.99-3.69,4.4-3.74   c4.3-0.07,8.61-0.02,12.91-0.03C2114.1,238.96,2127.2,238.96,2140.29,238.96z" stroke="black"/>
		
	
		
		
	
		
		

	</g>
	

	
	

</svg>