<?xml version="1.0" encoding="iso-8859-1"?><!-- Created with Inkscape (http://www.inkscape.org/) --><svg height="226.77165" id="svg7377" version="1.1" width="715.74799" xmlns="http://www.w3.org/2000/svg" xmlns:cc="http://creativecommons.org/ns#" xmlns:dc="http://purl.org/dc/elements/1.1/" xmlns:rdf="http://www.w3.org/1999/02/22-rdf-syntax-ns#" xmlns:svg="http://www.w3.org/2000/svg">
	
  
	<defs id="defs7379">
		
    
		<clipPath id="clipPath7093">
			
      
			
			
    
		</clipPath>
		
  
	</defs>
	
  
	<metadata id="metadata7382">
		
    
		<rdf:RDF>
			
      
			<cc:Work rdf:about="">
				
        
				<dc:format>image/svg+xml</dc:format>
				
        
				<dc:type rdf:resource="http://purl.org/dc/dcmitype/StillImage"/>
				
        
				<dc:title/>
				
      
			</cc:Work>
			
    
		</rdf:RDF>
		
  
	</metadata>
	
  
	<g id="layer1" transform="translate(-15.139867,-455.14564)">
		
    
		<g id="g7089" transform="matrix(6.5406166,0,0,-6.5406166,-7022.5156,968.6314)">
			
      
			<g clip-path="url(#clipPath7093)" id="g7091">
				
        
				<g id="g7097" transform="translate(1115.7754,58.060593)">
					
          
					
					
        
				</g>
				
        
				<g id="g7101" transform="translate(1130.501,70.181396)">
					
          
					
					
        
				</g>
				
        
				<g id="g7105" transform="translate(1158.356,51.702698)">
					
          
					
					
        
				</g>
				
        
				<g id="g7109" transform="translate(1181.5422,53.211594)">
					
          
					<path animation_id="4" d="m 0,0 c -1.646,0 -3.796,-2.241 -7.319,-2.241 -4.573,0 -5.717,2.471 -5.717,3.98 l 12.9,0 c 2.287,0 3.476,0.594 3.476,3.11 0,6.221 -4.529,12.121 -11.573,12.121 -7.319,0 -12.487,-6.037 -12.487,-12.899 0,-7.181 4.803,-12.898 12.487,-12.898 5.397,0 11.207,2.287 11.207,5.763 C 2.974,-1.235 1.601,0 0,0 m -8.416,10.933 c 2.79,0 4.62,-2.7 4.62,-4.301 l -9.24,0 c 0,1.601 1.83,4.301 4.62,4.301" id="path7111" stroke="black" style="fill:#2056ae;fill-opacity:1;fill-rule:nonzero;"/>
					
        
				</g>
				
      
			</g>
			
    
		</g>
		
  
	</g>
	

</svg>