<?xml version="1.0" encoding="iso-8859-1"?><!-- Created with Inkscape (http://www.inkscape.org/) --><svg height="226.77165" id="svg7377" version="1.1" width="715.74799" xmlns="http://www.w3.org/2000/svg" xmlns:cc="http://creativecommons.org/ns#" xmlns:dc="http://purl.org/dc/elements/1.1/" xmlns:rdf="http://www.w3.org/1999/02/22-rdf-syntax-ns#" xmlns:svg="http://www.w3.org/2000/svg">
	
  
	<defs id="defs7379">
		
    
		<clipPath id="clipPath7093">
			
      
			
			
    
		</clipPath>
		
  
	</defs>
	
  
	<metadata id="metadata7382">
		
    
		<rdf:RDF>
			
      
			<cc:Work rdf:about="">
				
        
				<dc:format>image/svg+xml</dc:format>
				
        
				<dc:type rdf:resource="http://purl.org/dc/dcmitype/StillImage"/>
				
        
				<dc:title/>
				
      
			</cc:Work>
			
    
		</rdf:RDF>
		
  
	</metadata>
	
  
	<g id="layer1" transform="translate(-15.139867,-455.14564)">
		
    
		<g id="g7089" transform="matrix(6.5406166,0,0,-6.5406166,-7022.5156,968.6314)">
			
      
			<g clip-path="url(#clipPath7093)" id="g7091">
				
        
				<g id="g7097" transform="translate(1115.7754,58.060593)">
					
          
					
					
        
				</g>
				
        
				<g id="g7101" transform="translate(1130.501,70.181396)">
					
          
					<path animation_id="2" d="m 0,0 c -3.064,0 -4.985,-0.961 -6.129,-2.744 -0.458,1.052 -1.647,2.287 -3.568,2.287 -2.103,0 -3.567,-1.646 -3.567,-3.705 l 0,-17.473 c 0,-2.058 1.464,-3.705 3.567,-3.705 2.105,0 3.568,1.647 3.568,3.705 l 0,11.297 c 0,2.471 1.464,4.301 3.934,4.301 2.47,0 3.934,-1.83 3.934,-4.301 l 0,-11.297 c 0,-2.058 1.464,-3.705 3.568,-3.705 2.103,0 3.567,1.647 3.567,3.705 l 0,13.22 C 8.874,-2.561 4.94,0 0,0" id="path7103" stroke="black" style="fill:#2056ae;fill-opacity:1;fill-rule:nonzero;"/>
					
        
				</g>
				
        
				<g id="g7105" transform="translate(1158.356,51.702698)">
					
          
					
					
        
				</g>
				
        
				<g id="g7109" transform="translate(1181.5422,53.211594)">
					
          
					
					
        
				</g>
				
      
			</g>
			
    
		</g>
		
  
	</g>
	

</svg>