<?xml version="1.0" encoding="iso-8859-1"?><!-- Created with Inkscape (http://www.inkscape.org/) --><svg height="226.77165" id="svg7377" version="1.1" width="715.74799" xmlns="http://www.w3.org/2000/svg" xmlns:cc="http://creativecommons.org/ns#" xmlns:dc="http://purl.org/dc/elements/1.1/" xmlns:rdf="http://www.w3.org/1999/02/22-rdf-syntax-ns#" xmlns:svg="http://www.w3.org/2000/svg">
	
  
	<defs id="defs7379">
		
    
		<clipPath id="clipPath7093">
			
      
			
			
    
		</clipPath>
		
  
	</defs>
	
  
	<metadata id="metadata7382">
		
    
		<rdf:RDF>
			
      
			<cc:Work rdf:about="">
				
        
				<dc:format>image/svg+xml</dc:format>
				
        
				<dc:type rdf:resource="http://purl.org/dc/dcmitype/StillImage"/>
				
        
				<dc:title/>
				
      
			</cc:Work>
			
    
		</rdf:RDF>
		
  
	</metadata>
	
  
	<g id="layer1" transform="translate(-15.139867,-455.14564)">
		
    
		<g id="g7089" transform="matrix(6.5406166,0,0,-6.5406166,-7022.5156,968.6314)">
			
      
			<g clip-path="url(#clipPath7093)" id="g7091">
				
        
				<g id="g7097" transform="translate(1115.7754,58.060593)">
					
          
					<path animation_id="1" d="m 0,0 c 0,6.221 -4.529,12.121 -11.573,12.121 -7.318,0 -12.487,-6.037 -12.487,-12.899 0,-1.92 0.346,-3.733 0.997,-5.363 -0.256,0.038 -0.525,0.057 -0.809,0.057 l -7.959,0 0,22.047 c 0,2.608 -1.554,3.935 -3.704,3.935 -2.15,0 -3.706,-1.327 -3.706,-3.935 l 0,-25.203 c 0,-2.379 1.784,-3.704 3.706,-3.704 l 11.663,0 c 1.992,0 3.28,1.002 3.615,2.576 2.136,-2.061 5.095,-3.308 8.684,-3.308 5.397,0 11.206,2.287 11.206,5.763 0,1.829 -1.372,3.064 -2.973,3.064 -1.647,0 -3.797,-2.241 -7.318,-2.241 -4.574,0 -5.718,2.47 -5.718,3.98 l 12.899,0 C -1.19,-3.11 0,-2.516 0,0 m -16.376,1.783 c 0,1.601 1.83,4.301 4.62,4.301 2.79,0 4.619,-2.7 4.619,-4.301 l -9.239,0 z" id="path7099" stroke="black" style="fill:#2056ae;fill-opacity:1;fill-rule:nonzero;"/>
					
        
				</g>
				
        
				<g id="g7101" transform="translate(1130.501,70.181396)">
					
          
					
					
        
				</g>
				
        
				<g id="g7105" transform="translate(1158.356,51.702698)">
					
          
					
					
        
				</g>
				
        
				<g id="g7109" transform="translate(1181.5422,53.211594)">
					
          
					
					
        
				</g>
				
      
			</g>
			
    
		</g>
		
  
	</g>
	

</svg>