<?xml version="1.0" encoding="iso-8859-1"?><!-- Created with Inkscape (http://www.inkscape.org/) --><svg height="226.77165" id="svg7377" version="1.1" width="715.74799" xmlns="http://www.w3.org/2000/svg" xmlns:cc="http://creativecommons.org/ns#" xmlns:dc="http://purl.org/dc/elements/1.1/" xmlns:rdf="http://www.w3.org/1999/02/22-rdf-syntax-ns#" xmlns:svg="http://www.w3.org/2000/svg">
	
  
	<defs id="defs7379">
		
    
		<clipPath id="clipPath7093">
			
      
			
			
    
		</clipPath>
		
  
	</defs>
	
  
	<metadata id="metadata7382">
		
    
		<rdf:RDF>
			
      
			<cc:Work rdf:about="">
				
        
				<dc:format>image/svg+xml</dc:format>
				
        
				<dc:type rdf:resource="http://purl.org/dc/dcmitype/StillImage"/>
				
        
				<dc:title/>
				
      
			</cc:Work>
			
    
		</rdf:RDF>
		
  
	</metadata>
	
  
	<g id="layer1" transform="translate(-15.139867,-455.14564)">
		
    
		<g id="g7089" transform="matrix(6.5406166,0,0,-6.5406166,-7022.5156,968.6314)">
			
      
			<g clip-path="url(#clipPath7093)" id="g7091">
				
        
				<g id="g7097" transform="translate(1115.7754,58.060593)">
					
          
					
					
        
				</g>
				
        
				<g id="g7101" transform="translate(1130.501,70.181396)">
					
          
					
					
        
				</g>
				
        
				<g id="g7105" transform="translate(1158.356,51.702698)">
					
          
					<path animation_id="3" d="M 0,0 -7.548,0 2.24,13.127 c 0.596,0.823 0.916,1.419 0.916,2.059 0,0.641 -0.184,1.234 -0.64,1.691 -0.687,0.687 -1.373,0.87 -2.7,0.87 l -13.722,0 c -2.287,0 -3.751,-1.006 -3.751,-3.294 0,-2.286 1.464,-3.293 3.751,-3.293 l 6.267,0 -9.148,-12.578 c -1.052,-1.464 -1.098,-2.105 -1.098,-2.653 0,-0.458 0.137,-1.419 1.051,-2.013 0.641,-0.366 1.053,-0.503 2.38,-0.503 l 14.454,0 c 2.287,0 3.75,1.007 3.75,3.294 C 3.75,-1.006 2.287,0 0,0" id="path7107" stroke="black" style="fill:#2056ae;fill-opacity:1;fill-rule:nonzero;"/>
					
        
				</g>
				
        
				<g id="g7109" transform="translate(1181.5422,53.211594)">
					
          
					
					
        
				</g>
				
      
			</g>
			
    
		</g>
		
  
	</g>
	

</svg>