<?xml version="1.0" encoding="iso-8859-1"?><!-- Created with Inkscape (http://www.inkscape.org/) by Marsupilami --><svg height="270" id="svg6476" version="1.0" viewBox="0 0 228.715 60.346249" width="1024" xmlns="http://www.w3.org/2000/svg" xmlns:svg="http://www.w3.org/2000/svg">
	
  
	<defs id="defs6478"/>
	
  
	<g id="layer1" transform="translate(-125.6425,-207.90334)">
		
    
		
		
    
		<path animation_id="1" d="M 176.84375,0 C 173.2875,1.6175 160.0625,9.6462502 160.0625,28.53125 C 160.0625,33.835 161.855,47.665 176.84375,55.75 L 176.84375,53.9375 C 170.57125,50.1225 167.34374,45.528749 167.34375,27.9375 C 167.34375,8.21125 171.4775,5.3725 176.84375,1.75 L 176.84375,0 z M 205.15625,0 L 205.15625,1.75 C 210.52375,5.3725 214.65624,8.2112495 214.65625,27.9375 C 214.65625,45.52875 211.43,50.1225 205.15625,53.9375 L 205.15625,55.75 C 220.14625,47.665 221.9375,33.835 221.9375,28.53125 C 221.9375,9.64625 208.71375,1.6175 205.15625,0 z" id="path2468" stroke="black" style="fill:#ed192d;fill-opacity:1;fill-rule:nonzero;" transform="translate(125.6425,207.90334)"/>
		
  
	</g>
	

</svg>