<?xml version="1.0" encoding="iso-8859-1"?><!-- Generator: Adobe Illustrator 24.2.3, SVG Export Plug-In . SVG Version: 6.00 Build 0)  --><svg id="Ebene_1" style="enable-background:new 0 0 2767 740.4;" version="1.1" viewBox="0 0 2767 740.4" x="0px" xml:space="preserve" xmlns="http://www.w3.org/2000/svg" xmlns:xlink="http://www.w3.org/1999/xlink" y="0px">
	

	<style type="text/css">
	.st0{fill:#FCBC67;}
	.st1{fill-rule:evenodd;clip-rule:evenodd;}
</style>
	

	
	

	
	

	
	

	
	

	
	

	
	

	
	

	
	

	
	

	
	

	<path animation_id="9" d="M2535.6,320.3c0-11.9-38.5-27.1-67.5-27.1c-67.9,0-109.8,49.4-109.8,130.1c0,76.4,37.5,120.6,102.2,120.6  c32.3,0,68.9-13.8,68.9-25.6c0-1.9,0-1.9-1.4-5.7l-11.4-29c-0.9-1.9-2.4-3.3-3.8-3.3c-1.4,0-3.3,0.9-5.2,2.4  c-13.8,9-25.7,13.3-39,13.3c-32.8,0-47.5-23.3-47.5-75c0-55.1,14.7-79.8,47.1-79.8c14.3,0,22.8,3.3,40.4,16.1  c1.9,1.4,3.3,1.9,4.8,1.9c1.4,0,3.3-1.4,4.3-3.3l16.6-30.4C2535.2,323.6,2535.6,321.7,2535.6,320.3z" stroke="black"/>
	

	
	

</svg>