<?xml version="1.0" encoding="iso-8859-1"?><!-- Generator: Adobe Illustrator 24.2.3, SVG Export Plug-In . SVG Version: 6.00 Build 0)  --><svg id="Ebene_1" style="enable-background:new 0 0 2767 740.4;" version="1.1" viewBox="0 0 2767 740.4" x="0px" xml:space="preserve" xmlns="http://www.w3.org/2000/svg" xmlns:xlink="http://www.w3.org/1999/xlink" y="0px">
	

	<style type="text/css">
	.st0{fill:#FCBC67;}
	.st1{fill-rule:evenodd;clip-rule:evenodd;}
</style>
	

	
	

	
	

	
	

	
	

	
	

	
	

	<path animation_id="5" d="M1869,525.4c0-1.4,0-1.9-0.9-5.2l-7.6-33.2c-0.9-2.9-2.4-4.8-4.8-4.8c-1.4,0-2.9,0.5-4.3,0.9c-17.6,7.1-21.9,8.1-31.4,8.1  c-14.3,0-17.6-5.2-17.6-30.4V345.5h47.1c5.7,0,7.1-1.4,8.6-7.1l6.2-28c0.5-1.4,0.5-2.8,0.5-4.3c0-3.8-1.9-4.8-8.1-4.8h-54.2v-66.9  c0-5.7-1.4-7.6-4.8-7.6h-4.3l-43.7,6.2c-6.6,1-7.6,1.9-7.6,8.5v59.8h-32.8c-7.1,0-8.1,0.9-8.1,8.1v28c0,7.1,0.9,8.1,8.1,8.1h32.8  v123.9c0,26.6,2.4,38.5,10.5,50.3c10.9,16.1,29,24.2,53.7,24.2c15.7,0,31.8-2.8,48-8.1C1866.1,532.1,1869,530.2,1869,525.4z" stroke="black"/>
	

	
	

	
	

	
	

	
	

	
	

</svg>