<?xml version="1.0" encoding="iso-8859-1"?><!-- Generator: Adobe Illustrator 24.2.3, SVG Export Plug-In . SVG Version: 6.00 Build 0)  --><svg id="Ebene_1" style="enable-background:new 0 0 2767 740.4;" version="1.1" viewBox="0 0 2767 740.4" x="0px" xml:space="preserve" xmlns="http://www.w3.org/2000/svg" xmlns:xlink="http://www.w3.org/1999/xlink" y="0px">
	

	<style type="text/css">
	.st0{fill:#FCBC67;}
	.st1{fill-rule:evenodd;clip-rule:evenodd;}
</style>
	

	
	

	
	

	
	

	
	

	
	

	
	

	
	

	
	

	
	

	
	

	
	

	<path animation_id="10" d="M2761,515.4c0-1.4-0.9-3.8-2.9-5.7l-87.4-105.4l77.9-75c2.4-2.4,3.3-4.3,3.3-5.7c0-1.9-1.4-3.8-3.8-5.7l-25.7-20.4  c-3.8-3.3-3.8-3.3-5.7-3.3c-1.9,0-1.9,0-5.7,3.8l-92.2,92.6V200.2c0-5.7-1.4-8.1-4.8-8.1l-4.3,0.5l-44.2,9c-6.6,1.4-7.1,2.4-7.1,8.5  v317.6c0,7.1,0.9,8.1,8.1,8.1h44.2c7.1,0,8.1-0.9,8.1-8.1V425.7l88.9,113.9c2.4,3.3,3.8,4.3,6.2,4.3c1.4,0,1.4,0,4.8-1.9l37.5-20.9  C2759.6,519.2,2761,517.3,2761,515.4z" stroke="black"/>
	

</svg>