<?xml version="1.0" encoding="iso-8859-1"?><!-- Generator: Adobe Illustrator 24.2.3, SVG Export Plug-In . SVG Version: 6.00 Build 0)  --><svg id="Ebene_1" style="enable-background:new 0 0 2767 740.4;" version="1.1" viewBox="0 0 2767 740.4" x="0px" xml:space="preserve" xmlns="http://www.w3.org/2000/svg" xmlns:xlink="http://www.w3.org/1999/xlink" y="0px">
	

	<style type="text/css">
	.st0{fill:#FCBC67;}
	.st1{fill-rule:evenodd;clip-rule:evenodd;}
</style>
	

	
	

	
	

	
	

	
	

	
	

	
	

	
	

	
	

	
	

	<path animation_id="8" d="M2337.5,231.5c0-20.9-17.1-38.5-38-38.5c-21.4,0-39,17.1-39,38c0,21.8,17.1,38.9,38.5,38.9  C2320.4,270,2337.5,252.9,2337.5,231.5z M2330.9,527.8V309.4c0-7.1-0.9-8.1-8.1-8.1h-88.4c-7.1,0-8.1,0.9-8.1,8.1v28  c0,7.1,1,8.1,8.1,8.1h36.1v182.3c0,7.1,0.9,8.1,8.1,8.1h44.2C2329.9,535.9,2330.9,534.9,2330.9,527.8z" stroke="black"/>
	

	
	

	
	

</svg>