<?xml version="1.0" encoding="iso-8859-1"?><!-- Created with Inkscape (http://www.inkscape.org/) --><svg height="305" id="svg3117" version="1.1" width="1024" xmlns="http://www.w3.org/2000/svg" xmlns:cc="http://creativecommons.org/ns#" xmlns:dc="http://purl.org/dc/elements/1.1/" xmlns:rdf="http://www.w3.org/1999/02/22-rdf-syntax-ns#" xmlns:svg="http://www.w3.org/2000/svg">
	
  
	<defs id="defs3119">
		
    
		<clipPath id="clipPath3009">
			
      
			
			
    
		</clipPath>
		
  
	</defs>
	
  
	<metadata id="metadata3122">
		
    
		<rdf:RDF>
			
      
			<cc:Work rdf:about="">
				
        
				<dc:format>image/svg+xml</dc:format>
				
        
				<dc:type rdf:resource="http://purl.org/dc/dcmitype/StillImage"/>
				
        
				<dc:title/>
				
      
			</cc:Work>
			
    
		</rdf:RDF>
		
  
	</metadata>
	
  
	<g id="layer1" transform="translate(0,-463)">
		
    
		<g id="g3005" transform="matrix(6.4723951,0,0,-6.4723951,-1456.9295,5539.4777)">
			
      
			<g clip-path="url(#clipPath3009)" id="g3007">
				
        
				<g id="g3013" transform="translate(232.3363,738.1826)">
					
          
					
					
        
				</g>
				
        
				<g id="g3017" transform="translate(242.4159,756.2349)">
					
          
					
					
        
				</g>
				
        
				<g id="g3021" transform="translate(279.5456,755.3217)">
					
          
					
					
        
				</g>
				
        
				<g id="g3025" transform="translate(306.4809,770.5307)">
					
          
					<path animation_id="4" d="m 0,0 c 0,3.74 -1.131,6.741 -3.393,9.003 -2.263,2.263 -5.324,3.211 -9.184,3.211 -0.966,0 -3.324,0.133 -7.077,0 l 0,-26.52 5.882,-0.009 C -4.59,-14.315 0,-9.53 0,0 m -4.887,-0.29 c 0,-3.099 -0.672,-5.513 -2.016,-7.238 -1.346,-1.726 -3.207,-2.478 -5.584,-2.478 l -2.461,0 0,18.095 c 0,0 1.646,-0.001 2.153,-0.001 5.272,0 7.908,-2.707 7.908,-8.378" id="path3027" stroke="black" style="fill:#000000;fill-opacity:1;fill-rule:nonzero;"/>
					
        
				</g>
				
        
				<g id="g3029" transform="translate(356.0064,778.5659)">
					
          
					
					
        
				</g>
				
        
				<g id="g3033" transform="translate(378.0735,770.9096)">
					
          
					
					
        
				</g>
				
        
				<g id="g3037" transform="translate(331.781,755.3217)">
					
          
					
					
        
				</g>
				
        
				
				
        
				
				
      
			</g>
			
    
		</g>
		
  
	</g>
	

</svg>