<?xml version="1.0" encoding="iso-8859-1"?><!-- Created with Inkscape (http://www.inkscape.org/) --><svg height="305" id="svg3117" version="1.1" width="1024" xmlns="http://www.w3.org/2000/svg" xmlns:cc="http://creativecommons.org/ns#" xmlns:dc="http://purl.org/dc/elements/1.1/" xmlns:rdf="http://www.w3.org/1999/02/22-rdf-syntax-ns#" xmlns:svg="http://www.w3.org/2000/svg">
	
  
	<defs id="defs3119">
		
    
		<clipPath id="clipPath3009">
			
      
			
			
    
		</clipPath>
		
  
	</defs>
	
  
	<metadata id="metadata3122">
		
    
		<rdf:RDF>
			
      
			<cc:Work rdf:about="">
				
        
				<dc:format>image/svg+xml</dc:format>
				
        
				<dc:type rdf:resource="http://purl.org/dc/dcmitype/StillImage"/>
				
        
				<dc:title/>
				
      
			</cc:Work>
			
    
		</rdf:RDF>
		
  
	</metadata>
	
  
	<g id="layer1" transform="translate(0,-463)">
		
    
		<g id="g3005" transform="matrix(6.4723951,0,0,-6.4723951,-1456.9295,5539.4777)">
			
      
			<g clip-path="url(#clipPath3009)" id="g3007">
				
        
				<g id="g3013" transform="translate(232.3363,738.1826)">
					
          
					
					
        
				</g>
				
        
				<g id="g3017" transform="translate(242.4159,756.2349)">
					
          
					
					
        
				</g>
				
        
				<g id="g3021" transform="translate(279.5456,755.3217)">
					
          
					
					
        
				</g>
				
        
				<g id="g3025" transform="translate(306.4809,770.5307)">
					
          
					
					
        
				</g>
				
        
				<g id="g3029" transform="translate(356.0064,778.5659)">
					
          
					
					
        
				</g>
				
        
				<g id="g3033" transform="translate(378.0735,770.9096)">
					
          
					<path animation_id="6" d="m 0,0 c 0.928,1.291 1.393,2.722 1.393,4.288 0,5.213 -3.999,7.606 -10.731,7.606 -1.086,0 -3.656,-0.059 -3.656,-0.059 l -3.059,0 0,-26.51 4.886,0 0,11.073 c 0.028,0 0.05,0 0.078,-0.001 l 9.612,-11.072 6.028,0 -10.2,11.387 c 0.804,0.142 1.613,0.326 2.138,0.557 C -2.12,-2.123 -0.93,-1.291 0,0 M -3.494,4.344 C -3.494,2.739 -3.948,1.66 -4.859,1.105 -5.771,0.549 -7.21,0.381 -9.176,0.381 l -1.991,0 0,7.365 1.593,0 c 2.1,0 3.638,-0.152 4.615,-0.669 0.977,-0.519 1.465,-1.431 1.465,-2.733" id="path3035" stroke="black" style="fill:#000000;fill-opacity:1;fill-rule:nonzero;"/>
					
        
				</g>
				
        
				<g id="g3037" transform="translate(331.781,755.3217)">
					
          
					
					
        
				</g>
				
        
				
				
        
				
				
      
			</g>
			
    
		</g>
		
  
	</g>
	

</svg>