<?xml version="1.0" encoding="iso-8859-1"?><!-- Generator: Adobe Illustrator 15.0.0, SVG Export Plug-In . SVG Version: 6.00 Build 0)  --><!DOCTYPE svg  PUBLIC '-//W3C//DTD SVG 1.1//EN'  'http://www.w3.org/Graphics/SVG/1.1/DTD/svg11.dtd'><svg enable-background="new 0 0 595.275 147.401" height="147.401px" version="1.1" viewBox="-148.81875 -36.85025 892.9124999999999 221.10150000000002" width="595.275px" x="0px" xml:space="preserve" xmlns="http://www.w3.org/2000/svg" xmlns:xlink="http://www.w3.org/1999/xlink" y="0px">
	
	
	

	
	
	<g id="Hintergrund">
</g>
	
	
	

	
	
	<g display="none" id="Hilfslinien">
</g>
	
	
	

	
	
	<g id="Vordergrund">
		
		
		
	
		
		
		<g>
			
			
			
		
			
			
			<g>
				
				
				
			
				
				
				
				
				
				
			
				
				
				
				
				
				
			
				
				
				
				
				
				
			
				
				
				
				
				
				
			
				
				
				
				
				
				
			
				
				
				
				
				
				
			
				
				
				
				
				
				
			
				
				
				
				
				
				
			
				
				
				
				
				
				
			
				
				
				
				
				
				
			
				
				
				
				
				
				
		
			
			
			</g>
			
			
			
		
			
			
			<g>
				
				
				
			
				
				
				
				
				
				
			
				
				
				<polyline animation_id="12" clip-rule="evenodd" fill="#9D9D9C" fill-rule="evenodd" points="43.75,96.189 44.404,95.738 45.057,95.288      45.599,94.601 46.078,94.087 46.445,93.335 46.868,92.701 47.236,91.948 47.66,91.315 48.201,90.628 48.625,89.995      50.036,89.628 51.376,89.729 52.655,90.003 53.809,90.627 54.899,91.426 55.873,92.278 56.783,93.307 57.692,94.333      58.666,95.188 59.521,96.096 59.854,96.811 60.07,97.581 60.167,98.407 60.036,99.05 61.287,100.499 62.774,101.839      64.323,103.004 65.992,104.115 67.722,105.051 69.688,105.876 71.543,106.463 73.398,107.05 75.433,107.408 77.414,107.646      78.04,108.371 78.782,109.041 79.651,109.362 80.576,109.803 81.388,110.004 82.437,110.096 83.369,110.243 84.417,110.334      85.292,110.362 86.168,110.39 86.994,110.004 87.759,109.793 88.522,109.582 89.398,109.608 90.218,109.518 91.03,109.72      91.906,109.746 92.718,109.948 93.532,110.15 94.344,110.352 95.345,110.031 96.345,109.71 97.401,109.508 98.401,109.187      99.401,108.865 100.458,108.663 101.458,108.342 102.513,108.14 103.569,107.938 104.625,107.736 105.937,106.543      107.305,105.47 108.847,104.46 110.445,103.57 112.043,102.681 113.64,101.79 115.182,100.78 116.605,99.826 117.974,98.753      119.286,97.56 120.183,96.706 121.078,95.853 121.975,94.999 122.697,94.081 123.536,93.108 124.376,92.137 125.043,91.099      125.591,90.118 126.029,88.896 126.293,87.612 127.022,86.401 127.34,85.236 127.312,83.942 127.048,82.758 126.728,81.456      126.345,80.327 126.026,79.024 125.934,77.904 126.254,76.739 126.983,75.528 126.94,74.821 127.072,74.179 128.656,73.876      128.747,74.996 129.012,76.18 129.393,77.308 129.658,78.491 130.041,79.62 130.423,80.749 130.924,81.822 131.48,83.016      131.98,84.089 132.481,85.162 132.114,85.914 132.038,86.676 132.08,87.382 132.295,88.153 132.628,88.869 132.844,89.64      133.178,90.355 133.338,91.007 133.262,91.769 133.186,92.53 132.922,93.814 132.659,95.1 132.396,96.384 132.076,97.55      131.812,98.834 131.723,100.183 131.577,101.412 131.55,102.586 131.578,103.881 131.606,105.174 130.94,106.212      130.391,107.192 129.781,108.349 129.289,109.45 128.795,110.552 128.358,111.771 127.865,112.873 127.199,113.91      126.476,114.827 125.698,115.626 124.691,116.24 123.629,116.736 122.566,117.231 121.386,117.782 120.323,118.277      119.315,118.893 118.426,119.452 117.475,120.187 116.697,120.984 116.149,121.967 114.773,123.334 113.288,124.463      111.627,125.527 109.856,126.354 108.03,127.06 106.258,127.886 104.432,128.593 102.604,129.3 100.89,130.244 99.229,131.309      96.763,131.878 94.415,132.392 92.074,132.612 89.615,132.888 87.162,132.87 84.767,132.971 82.375,132.778 79.868,132.641      77.479,132.447 75.215,132.161 73.632,131.87 72.232,131.603 71.198,131.311 69.863,130.916 68.648,130.467 67.376,129.898      66.16,129.448 64.889,128.88 63.618,128.311 62.697,127.938 62.15,127.11 61.735,126.43 59.128,125.467 56.648,124.154      54.404,122.732 52.159,121.311 50.158,119.485 48.274,117.604 46.572,115.494 45.104,113.273 43.818,110.823 42.714,108.145      42.106,101.603 43.75,96.189    " stroke="black"/>
				
				
				
			
				
				
				
				
				
				
		
			
			
			</g>
			
			
			
	
		
		
		</g>
		
		
		

	
	
	</g>
	
	
	



</svg>