<?xml version="1.0" encoding="iso-8859-1"?><!-- Generator: Adobe Illustrator 15.0.0, SVG Export Plug-In . SVG Version: 6.00 Build 0)  --><!DOCTYPE svg  PUBLIC '-//W3C//DTD SVG 1.1//EN'  'http://www.w3.org/Graphics/SVG/1.1/DTD/svg11.dtd'><svg enable-background="new 0 0 595.275 255.118" height="255.118px" version="1.1" viewBox="-148.81875 -63.7795 892.9124999999999 382.677" width="595.275px" x="0px" xml:space="preserve" xmlns="http://www.w3.org/2000/svg" xmlns:xlink="http://www.w3.org/1999/xlink" y="0px">
	
	
	

	
	
	<g id="Hintergrund">
</g>
	
	
	

	
	
	<g id="Hilfslinien_anzeigen">
</g>
	
	
	

	
	
	<g id="Vordergrund">
		
		
		
	
		
		
		
		
		
		
	
		
		
		<g>
			
			
			
		
			
			
			
			
			
			
		
			
			
			
			
			
			
		
			
			
			
			
			
			
		
			
			
			
			
			
			
		
			
			
			
			
			
			
		
			
			
			
			
			
			
		
			
			
			
			
			
			
		
			
			
			<path animation_id="8" d="M499.239,227.814c-17.602,0-22.002-7.501-22.002-20.702V175.31c0-0.8,0.5-1.1,1.301-1.3l5.4-1.3h0.3    c0.7,0,0.899,0.7,0.899,1.3v33.902c0,9.4,3.301,13.601,14.102,13.601c13.001,0,14.001-6.4,14.001-13.901V175.31    c0-0.8,0.6-1.1,1.3-1.3l5.4-1.3h0.3c0.7,0,1,0.7,1,1.3v32.902C521.24,216.813,519.84,227.814,499.239,227.814z" fill="#004F9F" stroke="black"/>
			
			
			
		
			
			
			
			
			
			
	
		
		
		</g>
		
		
		

	
	
	</g>
	
	
	



</svg>