<?xml version="1.0" encoding="iso-8859-1"?><!-- Generator: Adobe Illustrator 15.0.0, SVG Export Plug-In . SVG Version: 6.00 Build 0)  --><!DOCTYPE svg  PUBLIC '-//W3C//DTD SVG 1.1//EN'  'http://www.w3.org/Graphics/SVG/1.1/DTD/svg11.dtd'><svg enable-background="new 0 0 595.275 147.401" height="147.401px" version="1.1" viewBox="-148.81875 -36.85025 892.9124999999999 221.10150000000002" width="595.275px" x="0px" xml:space="preserve" xmlns="http://www.w3.org/2000/svg" xmlns:xlink="http://www.w3.org/1999/xlink" y="0px">
	
	
	

	
	
	<g id="Hintergrund">
</g>
	
	
	

	
	
	<g display="none" id="Hilfslinien">
</g>
	
	
	

	
	
	<g id="Vordergrund">
		
		
		
	
		
		
		<g>
			
			
			
		
			
			
			<g>
				
				
				
			
				
				
				
				
				
				
			
				
				
				
				
				
				
			
				
				
				
				
				
				
			
				
				
				
				
				
				
			
				
				
				
				
				
				
			
				
				
				
				
				
				
			
				
				
				
				
				
				
			
				
				
				
				
				
				
			
				
				
				
				
				
				
			
				
				
				
				
				
				
			
				
				
				
				
				
				
		
			
			
			</g>
			
			
			
		
			
			
			<g>
				
				
				
			
				
				
				<polyline animation_id="11" clip-rule="evenodd" fill="#9D9D9C" fill-rule="evenodd" points="16.273,54.836 17.535,48.293 19.021,47.164      20.216,46.026 21.473,44.714 22.557,43.338 23.583,41.842 24.438,40.282 25.292,38.723 26.32,37.227 27.174,35.667      28.201,34.171 29.806,32.987 31.354,31.685 32.903,30.381 34.333,29.133 35.827,27.711 37.375,26.408 38.979,25.224      40.584,24.04 42.188,22.856 44.021,21.856 46.078,21.333 48.189,20.929 50.183,20.58 52.295,20.177 54.352,19.653 56.344,19.304      58.401,18.781 60.52,18.084 62.52,17.441 64.583,16.624 65.694,16.542 66.806,16.459 67.743,16.312 68.8,16.11 69.973,15.854      70.974,15.532 71.974,15.211 73.03,15.009 74.148,14.633 75.205,14.431 76.893,14.66 78.462,14.944 80.207,15.293 81.777,15.577      83.465,15.807 85.097,15.917 86.73,16.026 88.37,15.844 90.009,15.659 91.6,15.062 94.239,14.558 95.969,15.494 97.762,16.255      99.555,17.017 101.409,17.604 103.146,18.246 105.001,18.833 106.975,19.364 108.831,19.953 110.567,20.594 112.478,21.301      113.979,22.054 115.479,22.806 116.98,23.558 118.419,24.483 119.738,25.466 121.06,26.448 122.261,27.485 123.402,28.696      124.541,29.906 125.445,31.229 126.689,32.972 128.052,34.659 129.539,35.999 131.199,37.402 132.922,38.633 134.527,39.917      136.251,41.146 138.029,42.494 139.518,43.834 141.059,45.294 142.088,46.266 143.367,46.541 144.583,46.99 145.861,47.266      147.021,47.596 148.3,47.871 149.522,48.027 150.689,48.063 151.975,48.046 153.205,47.907 154.323,47.531 155.899,47.522      155.365,47.916 154.885,48.431 154.699,48.953 154.393,49.531 154.261,50.174 154.303,50.88 154.289,51.468 154.332,52.174      154.2,52.816 154.187,53.403 153.874,54.275 153.679,55.092 153.367,55.964 153.055,56.835 152.687,57.588 152.319,58.34      152.006,59.212 151.583,59.846 151.215,60.598 150.729,61.404 144.542,66.324 143.931,67.48 143.146,68.572 142.479,69.608      141.75,70.82 141.083,71.856 140.299,72.948 139.57,74.16 138.904,75.196 138.12,76.289 137.508,77.444 137.432,78.206      137.183,78.903 136.3,79.171 135.73,78.564 135.508,78.087 135.285,77.61 135,77.308 134.597,77.06 134.166,75.519      133.909,74.041 133.596,72.444 133.282,70.848 133.024,69.37 132.711,67.773 132.217,66.407 131.668,64.921 130.826,63.426      129.806,62.159 129.422,61.029 129.096,60.021 128.712,58.893 128.269,57.938 127.886,56.81 127.322,55.91 126.76,55.012      125.961,54.223 125.161,53.433 124.181,52.873 122.868,51.599 121.318,50.433 119.644,49.616 117.795,48.735 116.002,47.975      114.211,47.213 112.361,46.332 110.687,45.516 109.138,44.351 107.824,43.075 107.074,42.699 106.149,42.259 105.281,41.938      104.413,41.616 103.371,41.231 102.502,40.91 101.633,40.589 100.709,40.148 99.959,39.771 99.152,39.276 96.25,38.599      93.457,38.158 90.601,37.892 87.745,37.626 84.946,37.479 82.139,37.627 79.277,37.654 76.407,37.976 73.657,38.242      70.788,38.562 69.676,38.646 68.558,39.022 67.558,39.344 66.614,39.784 65.55,40.279 64.606,40.72 63.661,41.16 62.598,41.656      61.598,41.978 60.425,42.234 59.771,42.684 58.945,43.069 58.292,43.519 57.465,43.904 56.813,44.354 56.042,44.858      55.39,45.309 54.792,45.877 54.139,46.327 53.542,46.896 52.868,48.227 52.021,49.492 51.001,50.694 49.985,51.604      48.854,52.567 47.605,53.586 46.244,54.365 44.999,55.091 43.465,55.806 42.047,56.467 41.089,57.495 40.304,58.587      39.458,59.853 38.729,61.063 38,62.275 37.271,63.486 36.542,64.698 35.639,65.845 34.681,66.873 33.667,67.781 33.826,68.433      34.167,68.854 34.681,69.341 35.196,69.827 36.113,70.562 36.085,71.736 35.412,73.066 34.739,74.396 33.954,75.488      32.997,76.516 31.982,77.425 30.795,78.269 29.552,78.994 28.308,79.719 27.065,80.443 25.647,81.104 25.925,81.701      26.496,82.307 25.1,82.087 23.938,81.757 22.786,81.133 21.694,80.334 20.722,79.48 19.867,78.572 18.957,77.545 18.165,76.463      17.31,75.554 16.518,74.472 15.676,72.976 15.009,71.544 14.577,70.002 14.32,68.525 14.297,66.938 14.277,65.351 14.429,63.828      14.463,62.359 14.56,60.717 14.712,59.194 16.273,54.836    " stroke="black"/>
				
				
				
			
				
				
				
				
				
				
			
				
				
				
				
				
				
		
			
			
			</g>
			
			
			
	
		
		
		</g>
		
		
		

	
	
	</g>
	
	
	



</svg>