<?xml version="1.0" encoding="iso-8859-1"?><!-- Generator: Adobe Illustrator 15.0.0, SVG Export Plug-In . SVG Version: 6.00 Build 0)  --><!DOCTYPE svg  PUBLIC '-//W3C//DTD SVG 1.1//EN'  'http://www.w3.org/Graphics/SVG/1.1/DTD/svg11.dtd'><svg enable-background="new 0 0 595.276 260.787" height="260.787px" id="Ebene_1" version="1.1" viewBox="-148.819 -65.19675 892.914 391.18049999999994" width="595.276px" x="0px" xml:space="preserve" xmlns="http://www.w3.org/2000/svg" xmlns:xlink="http://www.w3.org/1999/xlink" y="0px">
	
	
	

	
	
	<g>
		
		
		
	
		
		
		<g>
			
			
			
		
			
			
			
			
			
			
		
			
			
			
			
			
			
		
			
			
			
			
			
			
		
			
			
			
			
			
			
		
			
			
			
			
			
			
		
			
			
			
			
			
			
		
			
			
			
			
			
			
		
			
			
			
			
			
			
		
			
			
			<g>
				
				
				
			
				
				
				
				
				
				
			
				
				
				<path animation_id="1" d="M183.621,98.533l-5.973,21.523h-19.533l25.506-83.857h24.883l26.129,83.857h-20.529l-6.47-21.523H183.621     z M175.658,23.01c0-4.852,3.732-8.584,8.585-8.584c4.604,0,8.212,3.607,8.212,8.584c0,4.604-3.484,8.461-8.337,8.461     C179.391,31.471,175.658,27.613,175.658,23.01z M204.896,84.348l-5.226-17.791c-1.493-4.977-2.986-11.197-4.23-16.174h-0.249     c-1.244,4.977-2.487,11.322-3.856,16.174l-4.977,17.791H204.896z M201.537,23.01c0-4.852,3.608-8.584,8.461-8.584     c4.728,0,8.335,3.607,8.335,8.584c0,4.604-3.483,8.461-8.46,8.461C205.021,31.471,201.537,27.613,201.537,23.01z" fill="#1B3E90" stroke="black"/>
				
				
				
			
				
				
				
				
				
				
			
				
				
				
				
				
				
			
				
				
				
				
				
				
		
			
			
			</g>
			
			
			
	
		
		
		</g>
		
		
		

	
	
	</g>
	
	
	



</svg>