<?xml version="1.0" encoding="iso-8859-1"?><!-- Generator: Adobe Illustrator 15.0.0, SVG Export Plug-In . SVG Version: 6.00 Build 0)  --><!DOCTYPE svg  PUBLIC '-//W3C//DTD SVG 1.1//EN'  'http://www.w3.org/Graphics/SVG/1.1/DTD/svg11.dtd'><svg enable-background="new 0 0 595.275 320.315" height="320.315px" version="1.1" viewBox="-148.81875 -80.07875 892.9124999999999 480.47249999999997" width="595.275px" x="0px" xml:space="preserve" xmlns="http://www.w3.org/2000/svg" xmlns:xlink="http://www.w3.org/1999/xlink" y="0px">
	
	
	

	
	
	<g id="Hintergrund">
</g>
	
	
	

	
	
	<g display="none" id="Hilfslinien">
</g>
	
	
	

	
	
	<g id="Vordergrund">
		
		
		
	
		
		
		<g>
			
			
			
		
			
			
			<g>
				
				
				
			
				
				
				
				
				
				
			
				
				
				
				
				
				
			
				
				
				
				
				
				
			
				
				
				
				
				
				
			
				
				
				
				
				
				
			
				
				
				
				
				
				
			
				
				
				
				
				
				
			
				
				
				<path animation_id="7" d="M420.883,246.985c3.622,4.24,5.212,9.188,5.212,16.518c0,7.773-1.766,13.074-5.654,17.49     c-3.443,3.887-7.949,6.271-14.928,6.271c-12.277,0-20.316-9.186-20.316-23.407s8.126-23.673,20.316-23.673     C411.961,240.185,416.997,242.394,420.883,246.985z M399.595,253.522c-0.794,2.385-1.235,5.564-1.235,10.07     c0,5.211,0.528,9.098,1.5,11.395c1.061,2.473,3.711,3.709,6.008,3.709c5.123,0,7.331-4.593,7.331-15.281     c0-6.094-0.794-10.068-2.385-12.102c-1.147-1.501-3.004-2.384-5.123-2.384C402.863,248.93,400.566,250.696,399.595,253.522z" fill="#9D9D9C" stroke="black"/>
				
				
				
			
				
				
				
				
				
				
			
				
				
				
				
				
				
			
				
				
				
				
				
				
		
			
			
			</g>
			
			
			
		
			
			
			<g>
				
				
				
			
				
				
				
				
				
				
				
			
				
				
				
				
				
				
				
		
			
			
			</g>
			
			
			
	
		
		
		</g>
		
		
		

	
	
	</g>
	
	
	



</svg>