<?xml version="1.0" encoding="iso-8859-1"?><!-- Generator: Adobe Illustrator 15.0.0, SVG Export Plug-In . SVG Version: 6.00 Build 0)  --><!DOCTYPE svg  PUBLIC '-//W3C//DTD SVG 1.1//EN'  'http://www.w3.org/Graphics/SVG/1.1/DTD/svg11.dtd'><svg enable-background="new 0 0 595.275 255.118" height="255.118px" version="1.1" viewBox="-148.81875 -63.7795 892.9124999999999 382.677" width="595.275px" x="0px" xml:space="preserve" xmlns="http://www.w3.org/2000/svg" xmlns:xlink="http://www.w3.org/1999/xlink" y="0px">
	
	
	

	
	
	<g id="Hintergrund">
</g>
	
	
	

	
	
	<g id="Hilfslinien_anzeigen">
</g>
	
	
	

	
	
	<g id="Vordergrund">
		
		
		
	
		
		
		
		
		
		
	
		
		
		<g>
			
			
			
		
			
			
			
			
			
			
		
			
			
			
			
			
			
		
			
			
			
			
			
			
		
			
			
			
			
			
			
		
			
			
			<path animation_id="5" d="M334.944,226.414c-2.9,0.6-7.701,1.4-13.001,1.4c-8.601,0-22.901-0.301-22.901-16.502    c0-13.4,7.4-14.101,17.301-15.7l18.901-3.101v-4.7c0-3.2-0.1-5.801-3.601-7.101c-1.899-0.8-4.7-1.2-9.101-1.2    c-7.7,0-14.4,1.9-18.501,2.9c-0.2,0-0.399,0.1-0.6,0.1c-0.4,0-0.801-0.199-1-0.8l-0.9-4.5v-0.2c0-0.8,0.7-1.1,1-1.2    c3.2-1.2,11.801-3.1,20.901-3.1c7.101,0,11.701,1,14.601,2.6c5.101,2.7,5.2,7.4,5.2,12.101v28.702    C343.244,223.113,341.845,224.713,334.944,226.414z M335.344,198.812l-18.4,3.1c-4.801,0.9-9.701,1.101-9.701,9.001    c0,10,8.2,10.7,14.801,10.7c4.4,0,9.101-0.6,13.301-2V198.812z" fill="#004F9F" stroke="black"/>
			
			
			
		
			
			
			
			
			
			
		
			
			
			
			
			
			
		
			
			
			
			
			
			
		
			
			
			
			
			
			
	
		
		
		</g>
		
		
		

	
	
	</g>
	
	
	



</svg>