<?xml version="1.0" encoding="iso-8859-1"?><!-- Generator: Adobe Illustrator 15.0.0, SVG Export Plug-In . SVG Version: 6.00 Build 0)  --><!DOCTYPE svg  PUBLIC '-//W3C//DTD SVG 1.1//EN'  'http://www.w3.org/Graphics/SVG/1.1/DTD/svg11.dtd'><svg enable-background="new 0 0 595.275 340.157" height="340.157px" version="1.1" viewBox="-148.81875 -85.03925 892.9124999999999 510.2355" width="595.275px" x="0px" xml:space="preserve" xmlns="http://www.w3.org/2000/svg" xmlns:xlink="http://www.w3.org/1999/xlink" y="0px">
	
	
	

	
	
	<g id="Hintergrund">
</g>
	
	
	

	
	
	<g display="none" id="Hilfslinien">
</g>
	
	
	

	
	
	<g id="Vordergrund">
		
		
		
	
		
		
		<g>
			
			
			
		
			
			
			
			
			
			
			
		
			
			
			
			
			
			
			
		
			
			
			<g>
				
				
				
			
				
				
				
				
				
				
			
				
				
				
				
				
				
			
				
				
				
				
				
				
			
				
				
				
				
				
				
			
				
				
				
				
				
				
			
				
				
				
				
				
				
			
				
				
				
				
				
				
			
				
				
				
				
				
				
			
				
				
				
				
				
				
			
				
				
				<path animation_id="9" d="M515.698,304.435c0.088,0.441,0.177,0.441,0.177,0.707c0,1.238-4.688,2.477-8.932,2.477     c-10.876,0-10.876-8.932-10.876-17.066v-45.096c0-1.326,0.619-1.326,1.682-1.592l7.427-1.503c0.266,0,1.061-0.266,1.238-0.266     c0.706,0,0.884,0.354,0.884,1.856v48.191c0,2.83,0,5.305,2.476,5.305c1.769,0,2.918-0.795,3.448-0.795     c0.354,0,0.619,0.177,0.708,0.53L515.698,304.435z" fill="#9D9D9C" stroke="black"/>
				
				
				
			
				
				
				
				
				
				
		
			
			
			</g>
			
			
			
	
		
		
		</g>
		
		
		

	
	
	</g>
	
	
	



</svg>