<?xml version="1.0" encoding="iso-8859-1"?><!-- Generator: Adobe Illustrator 15.0.0, SVG Export Plug-In . SVG Version: 6.00 Build 0)  --><!DOCTYPE svg  PUBLIC '-//W3C//DTD SVG 1.1//EN'  'http://www.w3.org/Graphics/SVG/1.1/DTD/svg11.dtd'><svg enable-background="new 0 0 595.275 147.401" height="147.401px" version="1.1" viewBox="-148.81875 -36.85025 892.9124999999999 221.10150000000002" width="595.275px" x="0px" xml:space="preserve" xmlns="http://www.w3.org/2000/svg" xmlns:xlink="http://www.w3.org/1999/xlink" y="0px">
	
	
	

	
	
	<g id="Hintergrund">
</g>
	
	
	

	
	
	<g display="none" id="Hilfslinien">
</g>
	
	
	

	
	
	<g id="Vordergrund">
		
		
		
	
		
		
		<g>
			
			
			
		
			
			
			<g>
				
				
				
			
				
				
				
				
				
				
			
				
				
				
				
				
				
			
				
				
				
				
				
				
			
				
				
				
				
				
				
			
				
				
				
				
				
				
			
				
				
				
				
				
				
			
				
				
				
				
				
				
			
				
				
				
				
				
				
			
				
				
				
				
				
				
			
				
				
				<path animation_id="9" d="M540.794,50.534v27.658c0,6.1,0.069,6.931,0.623,7.901c0.347,0.624,1.11,0.971,1.872,0.971     c0.347,0,0.554,0,1.039-0.139l1.595,5.546c-1.595,0.624-3.535,0.971-5.545,0.971c-3.951,0-7.14-1.872-8.249-4.853     c-0.693-1.803-0.832-2.912-0.832-7.973V54.139c0-4.645-0.138-7.486-0.484-10.675l9.496-2.149     C540.655,43.256,540.794,45.543,540.794,50.534z" fill="#164194" stroke="black"/>
				
				
				
			
				
				
				
				
				
				
		
			
			
			</g>
			
			
			
		
			
			
			<g>
				
				
				
			
				
				
				
				
				
				
			
				
				
				
				
				
				
			
				
				
				
				
				
				
		
			
			
			</g>
			
			
			
	
		
		
		</g>
		
		
		

	
	
	</g>
	
	
	



</svg>