<?xml version="1.0" encoding="iso-8859-1"?><!-- Generator: Adobe Illustrator 15.0.0, SVG Export Plug-In . SVG Version: 6.00 Build 0)  --><!DOCTYPE svg  PUBLIC '-//W3C//DTD SVG 1.1//EN'  'http://www.w3.org/Graphics/SVG/1.1/DTD/svg11.dtd'><svg enable-background="new 0 0 595.276 291.969" height="291.969px" id="Ebene_1" version="1.1" viewBox="-148.819 -72.99225 892.914 437.95349999999996" width="595.276px" x="0px" xml:space="preserve" xmlns="http://www.w3.org/2000/svg" xmlns:xlink="http://www.w3.org/1999/xlink" y="0px">
	
	
	

	
	
	
	
	
	

	
	
	
	
	
	

	
	
	
	
	
	

	
	
	
	
	
	

	
	
	
	
	
	

	
	
	<g>
		
		
		
	
		
		
		
		
		
		
	
		
		
		
		
		
		
	
		
		
		
		
		
		
	
		
		
		
		
		
		
	
		
		
		
		
		
		
	
		
		
		
		
		
		
	
		
		
		
		
		
		
	
		
		
		
		
		
		
	
		
		
		
		
		
		
	
		
		
		
		
		
		
	
		
		
		
		
		
		
	
		
		
		
		
		
		
	
		
		
		
		
		
		

	
	
	</g>
	
	
	

	
	
	<g>
		
		
		
	
		
		
		<path animation_id="18" d="M427.616,278.75c3.271,0,3.972-0.701,3.972-4.346v-20.096c0-3.645-0.701-4.346-3.972-4.346v-1.168h12.431v1.168   c-2.711,0-3.318,0.701-3.318,4.346v9.348h0.093l7.945-10.328c0.654-0.842,1.542-1.963,1.542-2.523c0-0.562-0.935-0.842-2.804-0.842   v-1.168h11.356v1.168c-3.459,0-4.954,1.215-7.29,4.205l-6.402,8.225l8.551,12.152c1.31,1.916,3.46,4.205,6.73,4.205v1.168h-13.412   v-1.168c1.448,0,2.617-0.232,2.617-1.168c0-0.607-0.562-1.402-1.356-2.523l-7.478-10.795h-0.093v10.141   c0,3.645,0.607,4.346,3.318,4.346v1.168h-12.431V278.75z" stroke="black"/>
		
		
		
	
		
		
		
		
		
		
	
		
		
		
		
		
		
	
		
		
		
		
		
		
	
		
		
		
		
		
		

	
	
	</g>
	
	
	



</svg>