<?xml version="1.0" encoding="iso-8859-1"?><!-- Generator: Adobe Illustrator 15.0.0, SVG Export Plug-In . SVG Version: 6.00 Build 0)  --><!DOCTYPE svg  PUBLIC '-//W3C//DTD SVG 1.1//EN'  'http://www.w3.org/Graphics/SVG/1.1/DTD/svg11.dtd'><svg enable-background="new 0 0 595.275 235.275" height="235.275px" version="1.1" viewBox="-148.81875 -58.81875 892.9124999999999 352.9125" width="595.275px" x="0px" xml:space="preserve" xmlns="http://www.w3.org/2000/svg" xmlns:xlink="http://www.w3.org/1999/xlink" y="0px">
	
	
	

	
	
	<g id="Hintergrund">
</g>
	
	
	

	
	
	<g display="none" id="Hilfslinien">
</g>
	
	
	

	
	
	<g id="Vordergrund">
		
		
		
	
		
		
		<g>
			
			
			
		
			
			
			<g>
				
				
				
			
				
				
				<path animation_id="0" d="M25.413,149.805c0.477,1.716,0.763,3.052,0.858,4.577c2.192-2.67,7.056-4.577,12.015-4.577     c3.433,0,6.96,1.144,9.631,2.956c5.244,3.527,9.058,9.821,9.058,21.072c0,10.488-1.716,15.828-6.77,21.264     c-3.338,3.528-7.724,5.53-13.063,5.53c-3.815,0-7.438-0.954-10.203-2.573c0.19,1.143,0.19,2.573,0.19,4.004v15.256l-12.3,3.242     v-56.449c0-6.389-0.095-8.199-0.763-12.3L25.413,149.805z M34.28,190.52c6.293,0,8.773-4.29,8.773-15.446     c0-4.673-0.381-8.392-1.239-10.775c-0.955-2.67-2.957-4.1-6.102-4.1c-3.148,0-6.199,1.335-8.487,3.718v23.743     C28.94,189.089,31.707,190.52,34.28,190.52z" fill="#9D9D9C" stroke="black"/>
				
				
				
			
				
				
				
				
				
				
			
				
				
				
				
				
				
			
				
				
				
				
				
				
			
				
				
				
				
				
				
			
				
				
				
				
				
				
			
				
				
				
				
				
				
			
				
				
				
				
				
				
			
				
				
				
				
				
				
			
				
				
				
				
				
				
			
				
				
				
				
				
				
		
			
			
			</g>
			
			
			
		
			
			
			
			
			
			
			
		
			
			
			
			
			
			
			
	
		
		
		</g>
		
		
		

	
	
	</g>
	
	
	



</svg>