<?xml version="1.0" encoding="iso-8859-1"?><!-- Generator: Adobe Illustrator 15.0.0, SVG Export Plug-In . SVG Version: 6.00 Build 0)  --><!DOCTYPE svg  PUBLIC '-//W3C//DTD SVG 1.1//EN'  'http://www.w3.org/Graphics/SVG/1.1/DTD/svg11.dtd'><svg enable-background="new 0 0 595.275 138.897" height="138.897px" version="1.1" viewBox="-148.81875 -34.72425 892.9124999999999 208.3455" width="595.275px" x="0px" xml:space="preserve" xmlns="http://www.w3.org/2000/svg" xmlns:xlink="http://www.w3.org/1999/xlink" y="0px">
	
	
	

	
	
	<g id="Hintergrund">
</g>
	
	
	

	
	
	<g display="none" id="Hilfslinien">
</g>
	
	
	

	
	
	<g id="Vordergrund">
		
		
		
	
		
		
		<g>
			
			
			
		
			
			
			<path animation_id="0" clip-rule="evenodd" d="M29.685,115.029V70.915c0-3.332,1.599-6.264,4.797-6.264    c2.932,0,5.065,3.599,6.397,6.396l23.591,48.38c1.065,2.532,2.799,4.532,5.598,4.532c2.666,0,5.063-2.133,5.063-4.799v-92.36    c0-7.464-5.063-9.463-8.129-9.463c-2.932,0-8.13,1.332-8.13,9.463v50.912c0,1.865-0.667,3.731-2.399,3.731    c-1.2,0-2.932-0.267-3.731-2L25.687,22.402c-1.199-2.932-3.199-5.331-6.397-5.331c-3.332,0-5.464,2.266-5.464,5.598v92.36    c0,8.13,5.065,9.464,7.997,9.464C24.887,124.493,29.685,122.493,29.685,115.029z" fill="#225CAC" fill-rule="evenodd" stroke="black"/>
			
			
			
		
			
			
			
			
			
			
		
			
			
			
			
			
			
		
			
			
			
			
			
			
		
			
			
			
			
			
			
		
			
			
			
			
			
			
		
			
			
			
			
			
			
	
		
		
		</g>
		
		
		

	
	
	</g>
	
	
	



</svg>