<?xml version="1.0" encoding="iso-8859-1"?><!-- Generator: Adobe Illustrator 15.0.0, SVG Export Plug-In . SVG Version: 6.00 Build 0)  --><!DOCTYPE svg  PUBLIC '-//W3C//DTD SVG 1.1//EN'  'http://www.w3.org/Graphics/SVG/1.1/DTD/svg11.dtd'><svg enable-background="new 0 0 595.276 189.921" height="189.921px" id="Ebene_1" version="1.1" viewBox="-148.819 -47.48025 892.914 284.88149999999996" width="595.276px" x="0px" xml:space="preserve" xmlns="http://www.w3.org/2000/svg" xmlns:xlink="http://www.w3.org/1999/xlink" y="0px">
	
	
	

	
	
	<g>
		
		
		
	
		
		
		<g>
			
			
			
		
			
			
			
			
			
			
		
			
			
			
			
			
			
		
			
			
			
			
			
			
		
			
			
			
			
			
			
		
			
			
			
			
			
			
		
			
			
			
			
			
			
		
			
			
			
			
			
			
		
			
			
			
			
			
			
		
			
			
			
			
			
			
		
			
			
			<g>
				
				
				
			
				
				
				<path animation_id="9" d="M14.173,163.312c3.903,0,4.673-0.817,4.673-5.063V134.84c0-4.245-0.77-5.062-4.673-5.062v-1.36h15.395v1.36     c-3.904,0-4.674,0.817-4.674,5.062v9.691h14.625v-9.691c0-4.245-0.825-5.062-4.674-5.062v-1.36h15.395v1.36     c-3.903,0-4.673,0.817-4.673,5.062v23.409c0,4.246,0.77,5.063,4.673,5.063v1.36H34.845v-1.36c3.849,0,4.674-0.817,4.674-5.063     v-11.214H24.894v11.214c0,4.246,0.77,5.063,4.674,5.063v1.36H14.173V163.312z" stroke="black"/>
				
				
				
			
				
				
				
				
				
				
			
				
				
				
				
				
				
			
				
				
				
				
				
				
			
				
				
				
				
				
				
			
				
				
				
				
				
				
			
				
				
				
				
				
				
			
				
				
				
				
				
				
			
				
				
				
				
				
				
			
				
				
				
				
				
				
			
				
				
				
				
				
				
			
				
				
				
				
				
				
			
				
				
				
				
				
				
			
				
				
				
				
				
				
			
				
				
				
				
				
				
			
				
				
				
				
				
				
			
				
				
				
				
				
				
			
				
				
				
				
				
				
		
			
			
			</g>
			
			
			
	
		
		
		</g>
		
		
		

	
	
	</g>
	
	
	



</svg>