<?xml version="1.0" encoding="iso-8859-1"?><!-- Generator: Adobe Illustrator 15.0.0, SVG Export Plug-In . SVG Version: 6.00 Build 0)  --><!DOCTYPE svg  PUBLIC '-//W3C//DTD SVG 1.1//EN'  'http://www.w3.org/Graphics/SVG/1.1/DTD/svg11.dtd'><svg enable-background="new 0 0 595.275 235.275" height="235.275px" version="1.1" viewBox="-148.81875 -58.81875 892.9124999999999 352.9125" width="595.275px" x="0px" xml:space="preserve" xmlns="http://www.w3.org/2000/svg" xmlns:xlink="http://www.w3.org/1999/xlink" y="0px">
	
	
	

	
	
	<g id="Hintergrund">
</g>
	
	
	

	
	
	<g display="none" id="Hilfslinien">
</g>
	
	
	

	
	
	<g id="Vordergrund">
		
		
		
	
		
		
		<g>
			
			
			
		
			
			
			<g>
				
				
				
			
				
				
				
				
				
				
			
				
				
				
				
				
				
			
				
				
				
				
				
				
			
				
				
				
				
				
				
			
				
				
				
				
				
				
			
				
				
				
				
				
				
			
				
				
				
				
				
				
			
				
				
				
				
				
				
			
				
				
				
				
				
				
			
				
				
				
				
				
				
			
				
				
				<path animation_id="10" d="M580.638,194.144c-5.626,4.577-11.537,6.77-18.402,6.77c-14.017,0-23.074-9.916-23.074-25.268     c0-8.773,1.811-14.59,6.103-19.357c4.004-4.481,8.866-6.578,15.351-6.578c5.626,0,10.966,1.906,14.111,5.148     c4.482,4.577,6.484,11.156,6.484,21.359c0,1.049,0,2.098,0,2.955h-28.224v0.381c0,7.533,3.719,11.824,10.298,11.824     c4.386,0,8.487-1.621,12.396-4.863L580.638,194.144z M567.956,169.828v-0.571c0-3.623-0.381-5.531-1.525-7.342     c-1.238-1.908-3.051-2.861-5.626-2.861c-4.863,0-7.628,3.814-7.628,10.584v0.19H567.956z" fill="#9D9D9C" stroke="black"/>
				
				
				
		
			
			
			</g>
			
			
			
		
			
			
			
			
			
			
			
		
			
			
			
			
			
			
			
	
		
		
		</g>
		
		
		

	
	
	</g>
	
	
	



</svg>