<?xml version="1.0" encoding="iso-8859-1"?><!-- Generator: Adobe Illustrator 15.0.0, SVG Export Plug-In . SVG Version: 6.00 Build 0)  --><!DOCTYPE svg  PUBLIC '-//W3C//DTD SVG 1.1//EN'  'http://www.w3.org/Graphics/SVG/1.1/DTD/svg11.dtd'><svg enable-background="new 0 0 595.275 138.897" height="138.897px" version="1.1" viewBox="-148.81875 -34.72425 892.9124999999999 208.3455" width="595.275px" x="0px" xml:space="preserve" xmlns="http://www.w3.org/2000/svg" xmlns:xlink="http://www.w3.org/1999/xlink" y="0px">
	
	
	

	
	
	<g id="Hintergrund">
</g>
	
	
	

	
	
	<g display="none" id="Hilfslinien">
</g>
	
	
	

	
	
	<g id="Vordergrund">
		
		
		
	
		
		
		<g>
			
			
			
		
			
			
			
			
			
			
		
			
			
			<path animation_id="1" clip-rule="evenodd" d="M102.817,118.362c0,2.932,2.666,5.598,5.598,5.598h49.312    c3.198,0,6.397-2.133,6.397-5.332c0-3.331-3.332-5.331-6.663-5.331h-38.784V80.512c0-5.198,3.065-8.53,10.662-9.863l19.858-3.465    c2.266-0.267,4.798-1.333,4.798-3.731c0-2.399-2.666-3.466-5.064-3.466h-24.657c-3.599,0-5.598-2.932-5.598-6.664V33.864    c0-2.799-3.332-5.331-4.799-5.864h41.717c3.331,0,6.531-2.266,6.397-5.598c-0.132-3.198-3.199-5.064-6.397-5.064h-47.18    c-3.466,0-5.598,2.133-5.598,5.331V118.362z" fill="#225CAC" fill-rule="evenodd" stroke="black"/>
			
			
			
		
			
			
			
			
			
			
		
			
			
			
			
			
			
		
			
			
			
			
			
			
		
			
			
			
			
			
			
		
			
			
			
			
			
			
	
		
		
		</g>
		
		
		

	
	
	</g>
	
	
	



</svg>