<?xml version="1.0" encoding="iso-8859-1"?><!-- Generator: Adobe Illustrator 15.0.0, SVG Export Plug-In . SVG Version: 6.00 Build 0)  --><!DOCTYPE svg  PUBLIC '-//W3C//DTD SVG 1.1//EN'  'http://www.w3.org/Graphics/SVG/1.1/DTD/svg11.dtd'><svg enable-background="new 0 0 595.275 158.74" height="158.74px" version="1.1" viewBox="-148.81875 -39.685 892.9124999999999 238.11" width="595.275px" x="0px" xml:space="preserve" xmlns="http://www.w3.org/2000/svg" xmlns:xlink="http://www.w3.org/1999/xlink" y="0px">
	
	
	

	
	
	<g id="Hintergrund">
</g>
	
	
	

	
	
	<g display="none" id="Hilfslinien">
</g>
	
	
	

	
	
	<g id="Vordergrund">
		
		
		
	
		
		
		<g>
			
			
			
		
			
			
			
			
			
			
		
			
			
			
			
			
			
		
			
			
			
			
			
			
		
			
			
			
			
			
			
		
			
			
			
			
			
			
		
			
			
			
			
			
			
		
			
			
			
			
			
			
			
		
			
			
			
			
			
			
			
		
			
			
			
			
			
			
		
			
			
			
			
			
			
			
		
			
			
			
			
			
			
		
			
			
			<path animation_id="8" clip-rule="evenodd" d="M217.456,74.938c-7.621-1.317-11.52,3.43-11.864,12.409    c0,7.515,0,11.86,0,18.862h-6.685c0-10.565,0-20.395,0-31.741c-2.255-0.647-3.879-0.703-6.296-0.848v-3.91    c2.204-0.374,3.307-0.515,6.296-0.66c2.116,0,4.097,0,6.169,0c0.071,2.49,0.113,3.867,0.512,6.279    c1.28-2.921,3.543-5.506,7.244-6.504c0.748-0.203,3.519-0.744,4.629-0.432L217.456,74.938z" fill="#9D9D9C" fill-rule="evenodd" stroke="black"/>
			
			
			
		
			
			
			
			
			
			
		
			
			
			
			
			
			
	
		
		
		</g>
		
		
		

	
	
	</g>
	
	
	



</svg>