<?xml version="1.0" encoding="iso-8859-1"?><!-- Generator: Adobe Illustrator 15.0.0, SVG Export Plug-In . SVG Version: 6.00 Build 0)  --><!DOCTYPE svg  PUBLIC '-//W3C//DTD SVG 1.1//EN'  'http://www.w3.org/Graphics/SVG/1.1/DTD/svg11.dtd'><svg enable-background="new 0 0 595.275 340.157" height="340.157px" version="1.1" viewBox="-148.81875 -85.03925 892.9124999999999 510.2355" width="595.275px" x="0px" xml:space="preserve" xmlns="http://www.w3.org/2000/svg" xmlns:xlink="http://www.w3.org/1999/xlink" y="0px">
	
	
	

	
	
	<g id="Hintergrund">
</g>
	
	
	

	
	
	<g display="none" id="Hilfslinien">
</g>
	
	
	

	
	
	<g id="Vordergrund">
		
		
		
	
		
		
		<g>
			
			
			
		
			
			
			
			
			
			
			
		
			
			
			
			<polygon animation_id="11" clip-rule="evenodd" fill="#164194" fill-rule="evenodd" points="    14.213,112.366 35.198,119.062 52.611,128.243 82.403,144.909 96.074,151.099 112.942,157.833 135.796,164.021 153.208,168.511     160.147,171.505 165.475,175.022 190.709,183.812 222.611,188.928 243.877,192.922 270.698,195.319 282.917,198.837     297.839,199.637 322.369,200.547 351.958,203.573 377.26,198.302 397.665,194.358 429.703,188.372 476.157,176.944     493.774,167.015 504.452,162.524 524.314,137.224 532.546,128.243 552.405,95.459 561.587,87.773 581.062,80.081 518.782,91.72     494.612,99.858 477.176,107.572 459.698,114.521 430.584,127.782 405.147,135.587 383.584,141.892 360.73,145.144 337.23,147.745     323.118,146.405 310.193,145.657 291.831,142.663 278.158,138.72 262.241,135.728 229.457,131.985 211.093,128.243 176.063,124.3     160.147,119.062 139.538,114.37 106.753,107.634 79.409,105.39 51.115,103.69 38.939,100.697 29.01,97.704   " stroke="black" stroke-miterlimit="3.8637" stroke-width="0"/>
			
			
			
		
			
			
			<g>
				
				
				
			
				
				
				
				
				
				
			
				
				
				
				
				
				
			
				
				
				
				
				
				
			
				
				
				
				
				
				
			
				
				
				
				
				
				
			
				
				
				
				
				
				
			
				
				
				
				
				
				
			
				
				
				
				
				
				
			
				
				
				
				
				
				
			
				
				
				
				
				
				
			
				
				
				
				
				
				
		
			
			
			</g>
			
			
			
	
		
		
		</g>
		
		
		

	
	
	</g>
	
	
	



</svg>