<?xml version="1.0" encoding="iso-8859-1"?><!-- Generator: Adobe Illustrator 15.0.0, SVG Export Plug-In . SVG Version: 6.00 Build 0)  --><!DOCTYPE svg  PUBLIC '-//W3C//DTD SVG 1.1//EN'  'http://www.w3.org/Graphics/SVG/1.1/DTD/svg11.dtd'><svg enable-background="new 0 0 595.275 184.252" height="184.252px" version="1.1" viewBox="-148.81875 -46.063 892.9124999999999 276.37800000000004" width="595.275px" x="0px" xml:space="preserve" xmlns="http://www.w3.org/2000/svg" xmlns:xlink="http://www.w3.org/1999/xlink" y="0px">
	
	
	

	
	
	<g id="Hintergrund">
</g>
	
	
	

	
	
	<g display="none" id="Hilfslinien">
</g>
	
	
	

	
	
	<g id="Vordergrund">
		
		
		
	
		
		
		<g>
			
			
			
		
			
			
			
			
			
			
		
			
			
			<g>
				
				
				
			
				
				
				
				
				
				
			
				
				
				
				
				
				
			
				
				
				
				
				
				
		
			
			
			</g>
			
			
			
		
			
			
			
			
			
			
		
			
			
			
			
			
			
			
		
			
			
			
			
			
			
		
			
			
			<path animation_id="4" clip-rule="evenodd" d="M222.207,104.027c-7.362-1.273-11.128,3.312-11.46,11.984    c0,7.258,0,11.457,0,18.219h-6.457c0-10.204,0-19.697,0-30.658c-2.178-0.625-3.748-0.68-6.081-0.818v-3.777    c2.128-0.36,3.192-0.497,6.081-0.639c2.044,0,3.958,0,5.958,0c0.069,2.407,0.11,3.736,0.494,6.066    c1.237-2.821,3.424-5.318,6.998-6.282c0.723-0.195,3.398-0.718,4.472-0.416L222.207,104.027z" fill="#9D9D9C" fill-rule="evenodd" stroke="black"/>
			
			
			
		
			
			
			
			
			
			
		
			
			
			
			
			
			
		
			
			
			
			
			
			
		
			
			
			
			
			
			
		
			
			
			
			
			
			
		
			
			
			
			
			
			
		
			
			
			
			
			
			
		
			
			
			
			
			
			
	
		
		
		</g>
		
		
		

	
	
	</g>
	
	
	



</svg>