<?xml version="1.0" encoding="iso-8859-1"?><!-- Generator: Adobe Illustrator 15.0.0, SVG Export Plug-In . SVG Version: 6.00 Build 0)  --><!DOCTYPE svg  PUBLIC '-//W3C//DTD SVG 1.1//EN'  'http://www.w3.org/Graphics/SVG/1.1/DTD/svg11.dtd'><svg enable-background="new 0 0 595.275 127.559" height="127.559px" version="1.1" viewBox="-148.81875 -31.88975 892.9124999999999 191.3385" width="595.275px" x="0px" xml:space="preserve" xmlns="http://www.w3.org/2000/svg" xmlns:xlink="http://www.w3.org/1999/xlink" y="0px">
	
	
	

	
	
	<g id="Hintergrund">
</g>
	
	
	

	
	
	<g display="none" id="Hilfslinien">
</g>
	
	
	

	
	
	<g id="Vordergrund">
		
		
		
	
		
		
		<g>
			
			
			
		
			
			
			
			
			
			
		
			
			
			
			
			
			
		
			
			
			<path animation_id="2" clip-rule="evenodd" d="M220.455,53.199v40.973l3.59,6.008h5.13l3.738-6.156V21.374    c0-1.71,0.622-3.188,1.87-4.436c1.246-1.245,2.725-1.868,4.433-1.868c1.662,0,3.104,0.61,4.326,1.833    c1.22,1.222,1.83,2.663,1.83,4.323v74.77c0,0.929-0.512,2.224-1.537,3.884l-5.717,9.457c-1.172,2.102-2.956,3.152-5.349,3.152    h-11.58c-3.664,0-6.008-1.661-7.034-4.981c-1.125,3.32-3.372,4.981-6.743,4.981h-10.847c-3.128,0-5.375-1.149-6.743-3.445    l-5.277-8.871c-0.978-1.611-1.466-3.004-1.466-4.177V21.374c0-1.71,0.623-3.188,1.868-4.436c1.246-1.245,2.723-1.868,4.431-1.868    c1.612,0,3.018,0.623,4.214,1.868c1.197,1.247,1.795,2.726,1.795,4.436v72.942l3.593,5.863h5.28l3.886-6.156V53.199    c0-1.711,0.599-3.164,1.795-4.361c1.197-1.197,2.651-1.795,4.36-1.795c1.708,0,3.162,0.598,4.358,1.795    C219.856,50.035,220.455,51.488,220.455,53.199z" fill="#225CAC" fill-rule="evenodd" stroke="black"/>
			
			
			
		
			
			
			
			
			
			
		
			
			
			
			
			
			
		
			
			
			
			
			
			
		
			
			
			
			
			
			
	
		
		
		</g>
		
		
		

	
	
	</g>
	
	
	

	
	
	<g id="Foreground">
</g>
	
	
	



</svg>