<?xml version="1.0" encoding="iso-8859-1"?><!-- Generator: Adobe Illustrator 15.0.0, SVG Export Plug-In . SVG Version: 6.00 Build 0)  --><!DOCTYPE svg  PUBLIC '-//W3C//DTD SVG 1.1//EN'  'http://www.w3.org/Graphics/SVG/1.1/DTD/svg11.dtd'><svg enable-background="new 0 0 595.275 141.732" height="141.732px" version="1.1" viewBox="-148.81875 -35.433 892.9124999999999 212.598" width="595.275px" x="0px" xml:space="preserve" xmlns="http://www.w3.org/2000/svg" xmlns:xlink="http://www.w3.org/1999/xlink" y="0px">
	
	
	

	
	
	<g id="Hintergrund">
</g>
	
	
	

	
	
	<g display="none" id="Hilfslinien">
</g>
	
	
	

	
	
	<g id="Vordergrund">
		
		
		
	
		
		
		<g>
			
			
			
		
			
			
			
			
			
			
			
		
			
			
			
			
			
			
			
		
			
			
			
			
			
			
			
	
		
		
		</g>
		
		
		
	
		
		
		
		
		
		
	
		
		
		
		
		
		
		
	
		
		
		
		
		
		
	
		
		
		
		
		
		
	
		
		
		
		
		
		
	
		
		
		
		
		
		
	
		
		
		<path animation_id="5" clip-rule="evenodd" d="M513.663,52.008c-5.535,0-8.54,2.613-11.452,6.983l-0.3,0.233   l0.189-6.637c-2.06,0-3.949,0-6.116,0c-2.443,0.074-4.112,0.273-6.152,0.638l-0.002,3.773c2.145,0.106,4.054,0.241,6.252,0.816   v48.389c2.229,0,4.321,0,6.51,0l-0.018-17.514l0.288-0.091c5.196,0.62,12.782,0.225,17.132-2.979   C530.409,77.946,530.153,52.008,513.663,52.008z M512.732,83.074c-2.501,0.834-7.722,0.767-10.143-0.319   c-0.044-3.867,0-7.699-0.037-11.629c-0.025-2.566,0.45-5.154,1.613-7.479c1.793-3.585,8.648-9.365,12.663-4.749   C522.311,65.202,521.617,80.112,512.732,83.074z" fill="#9D9D9C" fill-rule="evenodd" stroke="black"/>
		
		
		
	
		
		
		
		
		
		
	
		
		
		
		
		
		
	
		
		
		
		
		
		
	
		
		
		
		
		
		
	
		
		
		
		
		
		

	
	
	</g>
	
	
	



</svg>