<?xml version="1.0" encoding="iso-8859-1"?><!-- Generator: Adobe Illustrator 15.0.0, SVG Export Plug-In . SVG Version: 6.00 Build 0)  --><!DOCTYPE svg  PUBLIC '-//W3C//DTD SVG 1.1//EN'  'http://www.w3.org/Graphics/SVG/1.1/DTD/svg11.dtd'><svg enable-background="new 0 0 595.276 206.929" height="206.929px" id="Ebene_1" version="1.1" viewBox="-148.819 -51.73225 892.914 310.3935" width="595.276px" x="0px" xml:space="preserve" xmlns="http://www.w3.org/2000/svg" xmlns:xlink="http://www.w3.org/1999/xlink" y="0px">
	
	
	

	
	
	<g>
		
		
		
	
		
		
		<g>
			
			
			
		
			
			
			<g>
				
				
				
			
				
				
				
				
				
				
			
				
				
				<path animation_id="1" d="M278.545,35.921l27.497,87.506h-18.833l-6.152-20.715h-25.611l-6.152,20.715h-18.33l28.626-87.506     H278.545z M265.489,23.616c0,5.273-4.395,9.668-9.668,9.668c-5.147,0-9.541-4.395-9.541-9.668s4.52-9.668,9.793-9.668     C261.22,13.948,265.489,18.343,265.489,23.616z M276.789,88.149c0,0-2.888-9.166-4.771-17.578     c-0.879-4.018-3.515-15.441-3.515-15.441s-2.511,10.295-4.144,16.822c-1.633,6.277-2.762,10.42-4.646,16.197H276.789z      M282.312,33.284c-5.273,0-9.541-4.395-9.541-9.668s4.394-9.668,9.792-9.668c5.147,0,9.416,4.395,9.416,9.668     S287.585,33.284,282.312,33.284z" fill="#1B3E90" stroke="black"/>
				
				
				
			
				
				
				
				
				
				
			
				
				
				
				
				
				
			
				
				
				
				
				
				
		
			
			
			</g>
			
			
			
		
			
			
			
			
			
			
		
			
			
			
			
			
			
		
			
			
			
			
			
			
		
			
			
			
			
			
			
	
		
		
		</g>
		
		
		

	
	
	</g>
	
	
	



</svg>