<?xml version="1.0" encoding="iso-8859-1"?><!-- Generator: Adobe Illustrator 15.0.0, SVG Export Plug-In . SVG Version: 6.00 Build 0)  --><!DOCTYPE svg  PUBLIC '-//W3C//DTD SVG 1.1//EN'  'http://www.w3.org/Graphics/SVG/1.1/DTD/svg11.dtd'><svg enable-background="new 0 0 595.275 320.315" height="320.315px" version="1.1" viewBox="-148.81875 -80.07875 892.9124999999999 480.47249999999997" width="595.275px" x="0px" xml:space="preserve" xmlns="http://www.w3.org/2000/svg" xmlns:xlink="http://www.w3.org/1999/xlink" y="0px">
	
	
	

	
	
	<g id="Hintergrund">
</g>
	
	
	

	
	
	<g display="none" id="Hilfslinien">
</g>
	
	
	

	
	
	<g id="Vordergrund">
		
		
		
	
		
		
		<g>
			
			
			
		
			
			
			<g>
				
				
				
			
				
				
				
				
				
				
			
				
				
				
				
				
				
			
				
				
				
				
				
				
		
			
			
			</g>
			
			
			
		
			
			
			<g>
				
				
				
			
				
				
				<path animation_id="0" d="M25.979,231.078c0.505,1.814,0.807,3.226,0.908,4.839c2.318-2.822,7.459-4.839,12.701-4.839     c3.629,0,7.357,1.21,10.18,3.125c5.543,3.729,9.577,10.382,9.577,22.276c0,11.086-1.815,16.73-7.157,22.477     c-3.528,3.729-8.165,5.846-13.809,5.846c-4.032,0-7.862-1.008-10.785-2.721c0.201,1.209,0.201,2.721,0.201,4.233v16.127     l-13.002,3.428v-59.671c0-6.754-0.101-8.67-0.807-13.004L25.979,231.078z M35.353,274.118c6.654,0,9.274-4.536,9.274-16.328     c0-4.939-0.403-8.871-1.311-11.392c-1.007-2.821-3.124-4.333-6.451-4.333c-3.325,0-6.551,1.41-8.97,3.93v25.099     C29.709,272.606,32.632,274.118,35.353,274.118z" fill="#164194" stroke="black"/>
				
				
				
			
				
				
				
				
				
				
			
				
				
				
				
				
				
			
				
				
				
				
				
				
			
				
				
				
				
				
				
			
				
				
				
				
				
				
			
				
				
				
				
				
				
			
				
				
				
				
				
				
			
				
				
				
				
				
				
			
				
				
				
				
				
				
			
				
				
				
				
				
				
		
			
			
			</g>
			
			
			
	
		
		
		</g>
		
		
		

	
	
	</g>
	
	
	



</svg>