<?xml version="1.0" encoding="iso-8859-1"?><!-- Generator: Adobe Illustrator 15.0.0, SVG Export Plug-In . SVG Version: 6.00 Build 0)  --><!DOCTYPE svg  PUBLIC '-//W3C//DTD SVG 1.1//EN'  'http://www.w3.org/Graphics/SVG/1.1/DTD/svg11.dtd'><svg enable-background="new 0 0 595.275 121.89" height="121.89px" version="1.1" viewBox="-148.81875 -30.4725 892.9124999999999 182.835" width="595.275px" x="0px" xml:space="preserve" xmlns="http://www.w3.org/2000/svg" xmlns:xlink="http://www.w3.org/1999/xlink" y="0px">
	
	
	

	
	
	<g id="Hintergrund">
</g>
	
	
	

	
	
	<g display="none" id="Hilfslinien">
</g>
	
	
	

	
	
	<g id="Vordergrund">
		
		
		
	
		
		
		<g>
			
			
			
		
			
			
			
			
			
			
		
			
			
			
			
			
			
		
			
			
			
			
			
			
		
			
			
			
			
			
			
		
			
			
			
			
			
			
		
			
			
			<path animation_id="5" d="M502.907,16.432c0,2.518,0,13.116,0,15.5c-4.106,0-48.222,0-52.197,0c0,2.65,0,17.752,0,20.534    c4.107,0,38.155,0,41.731,0c0,2.253,0,13.514,0,15.5c-4.637,0-37.756,0-41.731,0c0,3.312,0,17.886,0,21.329    c4.107,0,48.091,0,51.8,0c0,3.048,0,12.719,0,15.5c-3.709,0-64.385,0-67.696,0c0-4.769,0-83.063,0-88.363    C439.98,16.432,499.198,16.432,502.907,16.432z" fill="#225CAC" stroke="black"/>
			
			
			
		
			
			
			
			
			
			
	
		
		
		</g>
		
		
		

	
	
	</g>
	
	
	



</svg>