<?xml version="1.0" encoding="iso-8859-1"?><!-- Generator: Adobe Illustrator 15.0.0, SVG Export Plug-In . SVG Version: 6.00 Build 0)  --><!DOCTYPE svg  PUBLIC '-//W3C//DTD SVG 1.1//EN'  'http://www.w3.org/Graphics/SVG/1.1/DTD/svg11.dtd'><svg enable-background="new 0 0 595.275 215.433" height="215.433px" version="1.1" viewBox="-148.81875 -53.85825 892.9124999999999 323.1495" width="595.275px" x="0px" xml:space="preserve" xmlns="http://www.w3.org/2000/svg" xmlns:xlink="http://www.w3.org/1999/xlink" y="0px">
	
	
	

	
	
	<g id="Hintergrund">
</g>
	
	
	

	
	
	<g display="none" id="Hilfslinien">
</g>
	
	
	

	
	
	<g id="Vordergrund">
		
		
		
	
		
		
		<g>
			
			
			
		
			
			
			<g>
				
				
				
			
				
				
				
				
				
				
				
			
				
				
				
				<polygon animation_id="12" clip-rule="evenodd" fill="#164194" fill-rule="evenodd" points="     217.64,66.077 221.147,66.501 223.904,66.218 226.799,65.794 228.376,66.077 230.995,66.077 232.236,66.077 234.364,66.077      235.606,66.359 237.949,66.642 239.052,66.642 241.319,66.847 243.938,66.988 246.894,66.705 248.273,65.794 249.514,65.652      252.132,65.652 256.053,65.652 265.688,66.359 277.665,66.642 279.871,66.359 281.387,65.794 282.49,65.229 285.308,64.663      292.951,64.663 301.146,64.805 305.066,65.229 309.126,65.229 310.366,65.794 311.745,65.229 314.088,64.521 318.147,64.239      323.31,64.38 326.755,63.956 332.055,63.532 338.318,63.532 340.173,64.805 339.422,67.694 338.182,69.391 337.491,71.512      337.078,73.554 337.491,74.825 338.044,75.956 338.869,77.369 339.56,79.49 338.595,82.663 328.057,85.206 324.135,85.206      319.25,84.642 316.355,84.642 311.883,84.358 306.996,83.651 304.791,83.793 295.708,85.065 295.57,84.218 290.332,84.076      283.179,83.369 276.502,84.076 272.365,84.782 264.998,86.542 259.975,86.825 254.951,87.39 249.238,87.813 244.903,87.106      239.741,85.977 236.434,86.825 234.917,86.825 232.787,86.825 230.444,86.118 229.065,85.631 226.937,85.489 224.869,85.977      222.388,85.489 220.534,85.206 218.19,84.358 216.95,85.489 216.675,83.369 216.812,80.118 217.088,77.935 216.537,74.401      216.399,72.218 216.675,70.239 217.088,68.118 217.64,67.271    " stroke="black" stroke-miterlimit="3.8637" stroke-width="0"/>
				
				
				
			
				
				
				
				
				
				
				
		
			
			
			</g>
			
			
			
		
			
			
			<g>
				
				
				
			
				
				
				
				
				
				
			
				
				
				
				
				
				
			
				
				
				
				
				
				
			
				
				
				
				
				
				
			
				
				
				
				
				
				
		
			
			
			</g>
			
			
			
		
			
			
			<g>
				
				
				
			
				
				
				
				
				
				
			
				
				
				
				
				
				
			
				
				
				
				
				
				
			
				
				
				
				
				
				
			
				
				
				
				
				
				
			
				
				
				
				
				
				
		
			
			
			</g>
			
			
			
	
		
		
		</g>
		
		
		

	
	
	</g>
	
	
	



</svg>