<?xml version="1.0" encoding="iso-8859-1"?><!-- Generator: Adobe Illustrator 15.0.0, SVG Export Plug-In . SVG Version: 6.00 Build 0)  --><!DOCTYPE svg  PUBLIC '-//W3C//DTD SVG 1.1//EN'  'http://www.w3.org/Graphics/SVG/1.1/DTD/svg11.dtd'><svg enable-background="new 0 0 595.275 184.252" height="184.252px" version="1.1" viewBox="-148.81875 -46.063 892.9124999999999 276.37800000000004" width="595.275px" x="0px" xml:space="preserve" xmlns="http://www.w3.org/2000/svg" xmlns:xlink="http://www.w3.org/1999/xlink" y="0px">
	
	
	

	
	
	<g id="Hintergrund">
</g>
	
	
	

	
	
	<g display="none" id="Hilfslinien">
</g>
	
	
	

	
	
	<g id="Vordergrund">
		
		
		
	
		
		
		<g>
			
			
			
		
			
			
			
			
			
			
		
			
			
			<g>
				
				
				
			
				
				
				
				
				
				
			
				
				
				
				
				
				
			
				
				
				
				
				
				
		
			
			
			</g>
			
			
			
		
			
			
			
			
			
			
		
			
			
			
			
			
			
			
		
			
			
			
			
			
			
		
			
			
			
			
			
			
		
			
			
			
			
			
			
		
			
			
			
			
			
			
		
			
			
			<path animation_id="7" clip-rule="evenodd" d="M513.877,97.758c-5.542,0-8.55,2.617-11.465,6.99l-0.299,0.233    l0.188-6.642c-2.061,0-3.952,0-6.122,0c-2.445,0.072-4.116,0.273-6.157,0.639l-0.004,3.775c2.147,0.107,4.059,0.242,6.261,0.818    v48.434c2.229,0,4.324,0,6.516,0l-0.019-17.531l0.289-0.091c5.2,0.621,12.794,0.226,17.147-2.981    C530.639,123.721,530.383,97.758,513.877,97.758z M512.943,128.854c-2.503,0.836-7.728,0.768-10.152-0.318    c-0.043-3.871,0-7.707-0.038-11.641c-0.023-2.568,0.452-5.158,1.617-7.486c1.794-3.588,8.655-9.373,12.675-4.754    C522.531,110.965,521.838,125.891,512.943,128.854z" fill="#9D9D9C" fill-rule="evenodd" stroke="black"/>
			
			
			
		
			
			
			
			
			
			
		
			
			
			
			
			
			
		
			
			
			
			
			
			
		
			
			
			
			
			
			
		
			
			
			
			
			
			
	
		
		
		</g>
		
		
		

	
	
	</g>
	
	
	



</svg>