<?xml version="1.0" encoding="iso-8859-1"?><!-- Generator: Adobe Illustrator 15.0.0, SVG Export Plug-In . SVG Version: 6.00 Build 0)  --><!DOCTYPE svg  PUBLIC '-//W3C//DTD SVG 1.1//EN'  'http://www.w3.org/Graphics/SVG/1.1/DTD/svg11.dtd'><svg enable-background="new 0 0 595.276 206.929" height="206.929px" id="Ebene_1" version="1.1" viewBox="-148.819 -51.73225 892.914 310.3935" width="595.276px" x="0px" xml:space="preserve" xmlns="http://www.w3.org/2000/svg" xmlns:xlink="http://www.w3.org/1999/xlink" y="0px">
	
	
	

	
	
	<g>
		
		
		
	
		
		
		<g>
			
			
			
		
			
			
			<g>
				
				
				
			
				
				
				
				
				
				
			
				
				
				
				
				
				
			
				
				
				
				
				
				
			
				
				
				
				
				
				
			
				
				
				<path animation_id="4" d="M550.343,36.171c15.442,0,25.611,10.295,25.611,25.613c0,13.057-8.662,23.854-19.459,24.104     c1.757,1.381,2.51,2.135,3.641,3.643c5.021,6.277,20.966,33.896,20.966,33.896h-20.716c-3.39-5.773-4.771-8.16-8.161-14.312     c-8.662-15.693-11.298-19.961-14.438-21.342c-0.879-0.377-1.633-0.629-2.762-0.754v36.408h-17.199V36.171H550.343z      M535.025,73.835h5.901c7.533,0,10.797-0.752,13.183-2.887c2.134-2.01,3.389-5.148,3.389-8.789c0-5.398-2.134-9.164-6.276-10.672     c-2.009-0.752-5.649-1.256-9.92-1.256h-6.276V73.835z" fill="#1B3E90" stroke="black"/>
				
				
				
		
			
			
			</g>
			
			
			
		
			
			
			
			
			
			
		
			
			
			
			
			
			
		
			
			
			
			
			
			
		
			
			
			
			
			
			
	
		
		
		</g>
		
		
		

	
	
	</g>
	
	
	



</svg>