<?xml version="1.0" encoding="iso-8859-1"?><!-- Generator: Adobe Illustrator 15.0.0, SVG Export Plug-In . SVG Version: 6.00 Build 0)  --><!DOCTYPE svg  PUBLIC '-//W3C//DTD SVG 1.1//EN'  'http://www.w3.org/Graphics/SVG/1.1/DTD/svg11.dtd'><svg enable-background="new 0 0 595.275 158.74" height="158.74px" version="1.1" viewBox="-148.81875 -39.685 892.9124999999999 238.11" width="595.275px" x="0px" xml:space="preserve" xmlns="http://www.w3.org/2000/svg" xmlns:xlink="http://www.w3.org/1999/xlink" y="0px">
	
	
	

	
	
	<g id="Hintergrund">
</g>
	
	
	

	
	
	<g display="none" id="Hilfslinien">
</g>
	
	
	

	
	
	<g id="Vordergrund">
		
		
		
	
		
		
		<g>
			
			
			
		
			
			
			
			
			
			
		
			
			
			
			
			
			
		
			
			
			
			
			
			
		
			
			
			
			
			
			
		
			
			
			
			
			
			
		
			
			
			
			
			
			
		
			
			
			
			
			
			
			
		
			
			
			
			
			
			
			
		
			
			
			
			
			
			
		
			
			
			
			
			
			
			
		
			
			
			
			
			
			
		
			
			
			
			
			
			
		
			
			
			
			
			
			
		
			
			
			<path animation_id="10" clip-rule="evenodd" d="M277.663,75.727c2.447-3.941,6.205-7.031,10.961-7.367    c10.574-0.748,12.239,3.433,12.227,14.062c0.038,1.619,0.023,3.28,0.023,4.926c0,6.276,0,12.459,0,18.862h-6.646l-0.016-26.783    c0.016-3.085-1.644-5.535-4.811-5.297c-4.479,0.339-6.936,1.399-9.379,5.031c-0.992,1.475-1.895,3.259-1.895,8.187    c-0.032,6.599-0.003,14.892,0,18.862c-2.22,0-3.898,0-6.657,0c-0.005-2.695,0-11.335,0-18.862c0-5.347,0-6.995,0-7.713    c0-3.681-3.111-5.667-6.431-5.505c-6.882,0.339-10.027,5.369-10.027,13.218c0,9.102,0,11.728,0,18.862h-6.663V74.469    c-2.327-0.707-4.275-0.882-6.449-1.033v-3.725c2.167-0.359,3.311-0.564,6.449-0.66c2.356,0,4.082,0,6.165,0    c0.074,1.629,0.121,3.299,0.684,5.015c2.492-2.136,5.086-4.438,8.321-5.361C268.813,67.193,276.33,69.808,277.663,75.727z" fill="#9D9D9C" fill-rule="evenodd" stroke="black"/>
			
			
			
	
		
		
		</g>
		
		
		

	
	
	</g>
	
	
	



</svg>