<?xml version="1.0" encoding="iso-8859-1"?><!-- Generator: Adobe Illustrator 15.0.0, SVG Export Plug-In . SVG Version: 6.00 Build 0)  --><!DOCTYPE svg  PUBLIC '-//W3C//DTD SVG 1.1//EN'  'http://www.w3.org/Graphics/SVG/1.1/DTD/svg11.dtd'><svg enable-background="new 0 0 595.276 291.969" height="291.969px" id="Ebene_1" version="1.1" viewBox="-148.819 -72.99225 892.914 437.95349999999996" width="595.276px" x="0px" xml:space="preserve" xmlns="http://www.w3.org/2000/svg" xmlns:xlink="http://www.w3.org/1999/xlink" y="0px">
	
	
	

	
	
	
	
	
	

	
	
	
	
	
	

	
	
	
	
	
	

	
	
	
	
	
	

	
	
	
	
	
	

	
	
	<g>
		
		
		
	
		
		
		
		
		
		
	
		
		
		
		
		
		
	
		
		
		
		
		
		
	
		
		
		
		
		
		
	
		
		
		
		
		
		
	
		
		
		<path animation_id="10" d="M201.662,278.547c-2.524,0.84-5.225,1.814-10.892,1.814c-10.051,0-12.485-8.324-12.485-15.143   c0-9.119,2.567-15.23,12.485-15.23c4.161,0,7.35,0.621,9.386,1.285l0.266,6.996h-1.284c-0.708-2.215-2.214-6.154-8.19-6.154   c-6.686,0-7.438,7.127-7.438,12.971c0,7.748,1.904,13.15,9.254,13.15c1.372,0,2.745-0.354,4.029-0.709v-8.943   c0-3.453-0.576-4.117-3.498-4.117v-1.107h11.865v1.107c-2.922,0-3.497,0.664-3.497,4.117V278.547z" stroke="black"/>
		
		
		
	
		
		
		
		
		
		
	
		
		
		
		
		
		
	
		
		
		
		
		
		
	
		
		
		
		
		
		
	
		
		
		
		
		
		
	
		
		
		
		
		
		
	
		
		
		
		
		
		

	
	
	</g>
	
	
	

	
	
	<g>
		
		
		
	
		
		
		
		
		
		
	
		
		
		
		
		
		
	
		
		
		
		
		
		
	
		
		
		
		
		
		
	
		
		
		
		
		
		

	
	
	</g>
	
	
	



</svg>