<?xml version="1.0" encoding="iso-8859-1"?><!-- Generator: Adobe Illustrator 15.0.0, SVG Export Plug-In . SVG Version: 6.00 Build 0)  --><!DOCTYPE svg  PUBLIC '-//W3C//DTD SVG 1.1//EN'  'http://www.w3.org/Graphics/SVG/1.1/DTD/svg11.dtd'><svg enable-background="new 0 0 595.275 121.89" height="121.89px" version="1.1" viewBox="-148.81875 -30.4725 892.9124999999999 182.835" width="595.275px" x="0px" xml:space="preserve" xmlns="http://www.w3.org/2000/svg" xmlns:xlink="http://www.w3.org/1999/xlink" y="0px">
	
	
	

	
	
	<g id="Hintergrund">
</g>
	
	
	

	
	
	<g display="none" id="Hilfslinien">
</g>
	
	
	

	
	
	<g id="Vordergrund">
		
		
		
	
		
		
		<g>
			
			
			
		
			
			
			
			
			
			
		
			
			
			
			
			
			
		
			
			
			<path animation_id="2" clip-rule="evenodd" d="M446.734,105.211h51.037l0.927-5.121h-4.09    c-1.657-0.004-2.271-0.009-11.438-0.009l-25,0.009c0.06-2.924,0.007-0.009,0.007-7.638V61.541h16.706    c11.18,0,12.064,0.012,12.891,0.005h3.027v-5.133h-3.027c-1.351-0.004-1.974-0.002-12.891-0.002h-16.706V30.498    c-0.002-7.742,0.002-6.645-0.007-8.68l21.843-0.001c10.918,0,11.039,0.002,12.099,0.001h4.072l-0.649-5.131l-48.8-0.004v2.249    c-0.011,2.698-0.001,4.068-0.001,11.565V105.211z" fill="#225CAC" fill-rule="evenodd" stroke="black"/>
			
			
			
		
			
			
			
			
			
			
		
			
			
			
			
			
			
		
			
			
			
			
			
			
		
			
			
			
			
			
			
	
		
		
		</g>
		
		
		

	
	
	</g>
	
	
	



</svg>