<?xml version="1.0" encoding="iso-8859-1"?><!-- Generator: Adobe Illustrator 15.0.0, SVG Export Plug-In . SVG Version: 6.00 Build 0)  --><!DOCTYPE svg  PUBLIC '-//W3C//DTD SVG 1.1//EN'  'http://www.w3.org/Graphics/SVG/1.1/DTD/svg11.dtd'><svg enable-background="new 0 0 595.275 184.252" height="184.252px" version="1.1" viewBox="-148.81875 -46.063 892.9124999999999 276.37800000000004" width="595.275px" x="0px" xml:space="preserve" xmlns="http://www.w3.org/2000/svg" xmlns:xlink="http://www.w3.org/1999/xlink" y="0px">
	
	
	

	
	
	<g id="Hintergrund">
</g>
	
	
	

	
	
	<g display="none" id="Hilfslinien">
</g>
	
	
	

	
	
	<g id="Vordergrund">
		
		
		
	
		
		
		<g>
			
			
			
		
			
			
			
			
			
			
		
			
			
			<g>
				
				
				
			
				
				
				
				
				
				
			
				
				
				
				
				
				
			
				
				
				<polyline animation_id="15" clip-rule="evenodd" fill="#164194" fill-rule="evenodd" points="80.487,17.314 80.263,18.221 80.038,19.127      80.487,19.808 80.937,20.261 81.611,20.713 82.06,21.167 82.958,21.619 83.632,21.847 84.307,22.073 84.981,22.299 83.857,22.98      82.958,23.886 83.184,25.02 83.857,25.926 84.756,26.832 85.655,27.512 86.555,28.418 87.004,29.098 87.453,30.23 87.229,31.591      88.127,32.497 88.802,33.402 87.903,33.856 87.453,34.764 87.229,35.67 87.004,36.575 85.879,37.256 84.981,38.162      83.857,39.068 82.958,39.975 82.06,40.881 80.937,41.561 79.159,44.287 78.022,46.344 77.217,47.691 76.482,48.332      75.579,48.703 74.743,48.77 73.841,48.736 72.905,48.703 71.5,48.669 70.179,48.787 68.714,49.092 67.412,49.299 65.655,49.719      64.306,49.945 63.182,49.266 62.059,48.358 60.936,47.68 60.037,46.772 58.914,45.867 58.014,44.96 57.115,44.053 56.216,42.921      55.317,41.787 54.643,40.654 54.419,39.975 54.194,39.068 54.194,38.389 53.969,37.482 53.969,35.896 54.419,34.311      54.194,32.724 53.969,31.138 53.969,29.551 53.969,27.738 54.194,26.152 54.419,24.566 55.093,23.207 55.767,21.847      56.89,20.713 58.238,19.808 59.587,20.486 60.936,19.808 61.385,19.127 62.059,18.447 62.508,17.994 63.182,17.541      64.081,17.088 65.205,16.408 66.329,15.955 67.228,15.502 68.351,15.049 69.925,14.596 71.273,14.596 72.621,15.049      73.969,15.729 74.644,15.955 75.543,16.182 76.442,16.408 77.116,16.635 78.015,16.861 78.913,16.861 79.587,17.088      80.487,17.314    " stroke="black"/>
				
				
				
		
			
			
			</g>
			
			
			
		
			
			
			
			
			
			
		
			
			
			
			
			
			
			
		
			
			
			
			
			
			
		
			
			
			
			
			
			
		
			
			
			
			
			
			
		
			
			
			
			
			
			
		
			
			
			
			
			
			
		
			
			
			
			
			
			
		
			
			
			
			
			
			
		
			
			
			
			
			
			
		
			
			
			
			
			
			
		
			
			
			
			
			
			
	
		
		
		</g>
		
		
		

	
	
	</g>
	
	
	



</svg>