<?xml version="1.0" encoding="iso-8859-1"?><!-- Generator: Adobe Illustrator 15.0.0, SVG Export Plug-In . SVG Version: 6.00 Build 0)  --><!DOCTYPE svg  PUBLIC '-//W3C//DTD SVG 1.1//EN'  'http://www.w3.org/Graphics/SVG/1.1/DTD/svg11.dtd'><svg enable-background="new 0 0 595.275 138.897" height="138.897px" version="1.1" viewBox="-148.81875 -34.72425 892.9124999999999 208.3455" width="595.275px" x="0px" xml:space="preserve" xmlns="http://www.w3.org/2000/svg" xmlns:xlink="http://www.w3.org/1999/xlink" y="0px">
	
	
	

	
	
	<g id="Hintergrund">
</g>
	
	
	

	
	
	<g display="none" id="Hilfslinien">
</g>
	
	
	

	
	
	<g id="Vordergrund">
		
		
		
	
		
		
		<g>
			
			
			
		
			
			
			
			
			
			
		
			
			
			
			
			
			
		
			
			
			
			
			
			
		
			
			
			
			
			
			
		
			
			
			<path animation_id="4" clip-rule="evenodd" d="M450.478,118.362c0,2.932,2.654,5.598,5.574,5.598h49.115    c3.187,0,6.373-2.133,6.373-5.332c0-3.331-3.319-5.331-6.638-5.331h-38.629V80.512c0-5.198,3.054-8.53,10.62-9.862l19.778-3.466    c2.258-0.267,4.778-1.333,4.778-3.731c0-2.399-2.654-3.465-5.043-3.465h-24.559c-3.584,0-5.575-2.933-5.575-6.665V33.864    c0-2.799-3.318-5.331-4.779-5.864h41.55c3.319,0,6.504-2.266,6.371-5.598c-0.133-3.198-3.186-5.064-6.371-5.064h-46.992    c-3.451,0-5.574,2.133-5.574,5.331V118.362z" fill="#225CAC" fill-rule="evenodd" stroke="black"/>
			
			
			
		
			
			
			
			
			
			
		
			
			
			
			
			
			
	
		
		
		</g>
		
		
		

	
	
	</g>
	
	
	



</svg>