<?xml version="1.0" encoding="iso-8859-1"?><!-- Generator: Adobe Illustrator 15.0.0, SVG Export Plug-In . SVG Version: 6.00 Build 0)  --><!DOCTYPE svg  PUBLIC '-//W3C//DTD SVG 1.1//EN'  'http://www.w3.org/Graphics/SVG/1.1/DTD/svg11.dtd'><svg enable-background="new 0 0 595.275 340.157" height="340.157px" version="1.1" viewBox="-148.81875 -85.03925 892.9124999999999 510.2355" width="595.275px" x="0px" xml:space="preserve" xmlns="http://www.w3.org/2000/svg" xmlns:xlink="http://www.w3.org/1999/xlink" y="0px">
	
	
	

	
	
	<g id="Hintergrund">
</g>
	
	
	

	
	
	<g display="none" id="Hilfslinien">
</g>
	
	
	

	
	
	<g id="Vordergrund">
		
		
		
	
		
		
		<g>
			
			
			
		
			
			
			
			
			
			
			
		
			
			
			
			
			
			
			
		
			
			
			<g>
				
				
				
			
				
				
				
				
				
				
			
				
				
				
				
				
				
			
				
				
				
				
				
				
			
				
				
				<path animation_id="3" d="M207.926,304.876c0,0.973-0.177,1.238-1.239,1.238h-8.754c-1.06,0-1.237-0.266-1.237-1.238v-27.234     c0-3.359-0.354-7.428-3.713-7.428c-3.715,0-6.633,2.564-7.782,3.626v31.036c0,0.973-0.177,1.238-1.237,1.238h-8.755     c-1.062,0-1.237-0.266-1.237-1.238v-27.234c0-3.359-0.354-7.428-3.714-7.428c-3.713,0-6.631,2.564-7.781,3.626v31.036     c0,0.973-0.177,1.238-1.239,1.238h-8.753c-1.061,0-1.238-0.266-1.238-1.238v-26.703c0-12.469-1.68-11.761-1.68-13.795     c0-0.441,0.354-0.795,0.973-0.973l6.72-2.211c0.53-0.176,0.973-0.264,1.327-0.264c1.149,0,1.857,1.945,2.829,6.101     c2.653-2.3,6.543-6.101,13.529-6.101c3.802,0,7.958,2.387,9.02,6.101c2.651-2.3,6.454-6.101,13.705-6.101     c8.312,0,10.258,6.277,10.258,13.971V304.876z" fill="#9D9D9C" stroke="black"/>
				
				
				
			
				
				
				
				
				
				
			
				
				
				
				
				
				
			
				
				
				
				
				
				
			
				
				
				
				
				
				
			
				
				
				
				
				
				
			
				
				
				
				
				
				
			
				
				
				
				
				
				
		
			
			
			</g>
			
			
			
	
		
		
		</g>
		
		
		

	
	
	</g>
	
	
	



</svg>