<?xml version="1.0" encoding="iso-8859-1"?><!-- Generator: Adobe Illustrator 15.0.0, SVG Export Plug-In . SVG Version: 6.00 Build 0)  --><!DOCTYPE svg  PUBLIC '-//W3C//DTD SVG 1.1//EN'  'http://www.w3.org/Graphics/SVG/1.1/DTD/svg11.dtd'><svg enable-background="new 0 0 595.275 201.26" height="201.26px" version="1.1" viewBox="-148.81875 -50.315 892.9124999999999 301.89" width="595.275px" x="0px" xml:space="preserve" xmlns="http://www.w3.org/2000/svg" xmlns:xlink="http://www.w3.org/1999/xlink" y="0px">
	
	
	

	
	
	<g id="Hintergrund">
</g>
	
	
	

	
	
	<g display="none" id="Hilfslinien">
</g>
	
	
	

	
	
	<g id="Vordergrund">
		
		
		
	
		
		
		<g>
			
			
			
		
			
			
			
			
			
			
		
			
			
			<g>
				
				
				
			
				
				
				<path animation_id="1" d="M38.392,84.184c0.901,1.402,1.502,5.908,1.302,8.211c3.806-4.004,9.814-7.609,16.123-7.609     c8.711,0,13.718,6.51,13.718,16.924c0,9.312-4.005,22.73-10.213,28.939c-4.607,4.605-10.815,7.61-17.425,7.61     c-4.006,0-8.21-0.7-10.415-2.003c0.1,0.902-0.299,2.504-0.5,3.506l-3.405,16.021l-13.618,3.404l12.216-57.379     c1.203-5.708,0.801-9.713-0.199-12.718L38.392,84.184z M40.996,128.246c4.305,0,6.609-2.004,8.21-4.406     c3.806-5.709,5.908-16.023,5.908-21.73c0-4.105-1.301-6.109-4.706-6.109c-3.305,0-7.711,2.304-11.517,8.111l-4.706,21.931     C34.987,127.144,38.292,128.246,40.996,128.246z" fill="#9D9D9C" stroke="black"/>
				
				
				
			
				
				
				
				
				
				
			
				
				
				
				
				
				
			
				
				
				
				
				
				
			
				
				
				
				
				
				
			
				
				
				
				
				
				
			
				
				
				
				
				
				
			
				
				
				
				
				
				
			
				
				
				
				
				
				
			
				
				
				
				
				
				
			
				
				
				
				
				
				
		
			
			
			</g>
			
			
			
	
		
		
		</g>
		
		
		

	
	
	</g>
	
	
	



</svg>