<?xml version="1.0" encoding="iso-8859-1"?><!-- Generator: Adobe Illustrator 15.0.0, SVG Export Plug-In . SVG Version: 6.00 Build 0)  --><!DOCTYPE svg  PUBLIC '-//W3C//DTD SVG 1.1//EN'  'http://www.w3.org/Graphics/SVG/1.1/DTD/svg11.dtd'><svg enable-background="new 0 0 595.275 147.401" height="147.401px" version="1.1" viewBox="-148.81875 -36.85025 892.9124999999999 221.10150000000002" width="595.275px" x="0px" xml:space="preserve" xmlns="http://www.w3.org/2000/svg" xmlns:xlink="http://www.w3.org/1999/xlink" y="0px">
	
	
	

	
	
	<g id="Hintergrund">
</g>
	
	
	

	
	
	<g display="none" id="Hilfslinien">
</g>
	
	
	

	
	
	<g id="Vordergrund">
		
		
		
	
		
		
		<g>
			
			
			
		
			
			
			<g>
				
				
				
			
				
				
				
				
				
				
			
				
				
				
				
				
				
			
				
				
				
				
				
				
			
				
				
				<path animation_id="3" d="M282.709,56.495c0.625,0.971,0.901,1.802,1.248,3.604c2.426-2.356,5.408-3.604,8.666-3.604     c2.91,0,5.336,0.971,7.209,2.912c0.485,0.484,0.97,1.108,1.386,1.732c3.258-3.327,6.17-4.645,10.051-4.645     c2.774,0,5.407,0.832,7.001,2.219c2.011,1.732,2.635,3.812,2.635,8.664v25.231h-9.011V69.181c0-4.229-0.486-5.061-2.912-5.061     c-1.733,0-4.159,1.179-6.17,2.98v25.509h-8.803V69.527c0-4.437-0.624-5.476-3.188-5.476c-1.733,0-4.09,0.9-6.1,2.702v25.855     h-9.08V67.863c0-5.13-0.347-7.348-1.317-9.08L282.709,56.495z" fill="#164194" stroke="black"/>
				
				
				
			
				
				
				
				
				
				
			
				
				
				
				
				
				
			
				
				
				
				
				
				
			
				
				
				
				
				
				
			
				
				
				
				
				
				
			
				
				
				
				
				
				
			
				
				
				
				
				
				
		
			
			
			</g>
			
			
			
		
			
			
			<g>
				
				
				
			
				
				
				
				
				
				
			
				
				
				
				
				
				
			
				
				
				
				
				
				
		
			
			
			</g>
			
			
			
	
		
		
		</g>
		
		
		

	
	
	</g>
	
	
	



</svg>