<?xml version="1.0" encoding="iso-8859-1"?><!-- Generator: Adobe Illustrator 15.0.0, SVG Export Plug-In . SVG Version: 6.00 Build 0)  --><!DOCTYPE svg  PUBLIC '-//W3C//DTD SVG 1.1//EN'  'http://www.w3.org/Graphics/SVG/1.1/DTD/svg11.dtd'><svg enable-background="new 0 0 595.275 206.929" height="206.929px" version="1.1" viewBox="-148.81875 -51.73225 892.9124999999999 310.3935" width="595.275px" x="0px" xml:space="preserve" xmlns="http://www.w3.org/2000/svg" xmlns:xlink="http://www.w3.org/1999/xlink" y="0px">
	
	
	

	
	
	<g id="Hintergrund">
</g>
	
	
	

	
	
	<g display="none" id="Hilfslinien">
</g>
	
	
	

	
	
	<g id="Vordergrund">
		
		
		
	
		
		
		<g>
			
			
			
		
			
			
			<g>
				
				
				
			
				
				
				
				
				
				
			
				
				
				
				
				
				
			
				
				
				
				
				
				
			
				
				
				
				
				
				
			
				
				
				
				
				
				
		
			
			
			</g>
			
			
			
		
			
			
			<g>
				
				
				
			
				
				
				
				
				
				
			
				
				
				
				
				
				
			
				
				
				
				
				
				
			
				
				
				
				
				
				
			
				
				
				
				
				
				
			
				
				
				
				
				
				
			
				
				
				
				
				
				
			
				
				
				
				
				
				
			
				
				
				
				
				
				
			
				
				
				
				
				
				
			
				
				
				
				
				
				
			
				
				
				
				
				
				
			
				
				
				
				
				
				
			
				
				
				
				
				
				
			
				
				
				
				
				
				
			
				
				
				
				
				
				
			
				
				
				
				
				
				
			
				
				
				
				
				
				
			
				
				
				<path animation_id="23" d="M578.18,186.973c0,1.301-3.654,2.415-6.193,2.415c-5.451,0-8.3-3.53-8.3-11.024c0-7.339,2.817-11.241,8.361-11.241     c2.787,0,5.76,1.363,5.76,1.889c0,0.094-0.031,0.217-0.154,0.465l-1.022,2.045c-0.093,0.186-0.217,0.309-0.34,0.309     c-0.186,0-1.92-1.363-4.027-1.363c-3.156,0-4.18,2.943-4.18,7.681c0,4.831,0.805,7.897,4.149,7.897     c1.146,0,1.951-0.372,2.231-0.496v-4.49h-2.323c-0.528,0-0.65-0.093-0.65-0.65v-2.044c0-0.557,0.122-0.65,0.65-0.65h5.388     c0.526,0,0.65,0.094,0.65,0.65V186.973z" stroke="black"/>
				
				
				
		
			
			
			</g>
			
			
			
		
			
			
			
			
			
			
			
		
			
			
			
			
			
			
			
		
			
			
			
			
			
			
			
		
			
			
			
			
			
			
			
		
			
			
			
			
			
			
			
	
		
		
		</g>
		
		
		

	
	
	</g>
	
	
	



</svg>