<?xml version="1.0" encoding="iso-8859-1"?><!-- Generator: Adobe Illustrator 15.0.0, SVG Export Plug-In . SVG Version: 6.00 Build 0)  --><!DOCTYPE svg  PUBLIC '-//W3C//DTD SVG 1.1//EN'  'http://www.w3.org/Graphics/SVG/1.1/DTD/svg11.dtd'><svg enable-background="new 0 0 595.275 340.157" height="340.157px" version="1.1" viewBox="-148.81875 -85.03925 892.9124999999999 510.2355" width="595.275px" x="0px" xml:space="preserve" xmlns="http://www.w3.org/2000/svg" xmlns:xlink="http://www.w3.org/1999/xlink" y="0px">
	
	
	

	
	
	<g id="Hintergrund">
</g>
	
	
	

	
	
	<g display="none" id="Hilfslinien">
</g>
	
	
	

	
	
	<g id="Vordergrund">
		
		
		
	
		
		
		<g>
			
			
			
		
			
			
			
			
			
			
			
		
			
			
			
			
			
			
			
		
			
			
			<g>
				
				
				
			
				
				
				
				
				
				
			
				
				
				
				
				
				
			
				
				
				
				
				
				
			
				
				
				
				
				
				
			
				
				
				<path animation_id="4" d="M257.083,301.428c0.177,0.265,0.265,0.619,0.265,0.973c0,2.3-8.842,5.218-15.826,5.218     c-11.672,0-19.808-6.633-19.808-22.902c0-14.059,7.516-23.785,19.366-23.785c15.031,0,17.684,13.439,17.684,24.139     c0,1.68-0.354,2.211-2.034,2.211h-23.786c0,4.951,1.415,11.053,9.727,11.053c6.366,0,9.992-2.918,11.229-2.918     c0.442,0,0.797,0.354,0.974,0.707L257.083,301.428z M246.827,279.057c0-3.626-0.265-9.903-6.366-9.903     c-6.898,0-7.25,7.428-7.516,9.903H246.827z" fill="#9D9D9C" stroke="black"/>
				
				
				
			
				
				
				
				
				
				
			
				
				
				
				
				
				
			
				
				
				
				
				
				
			
				
				
				
				
				
				
			
				
				
				
				
				
				
			
				
				
				
				
				
				
		
			
			
			</g>
			
			
			
	
		
		
		</g>
		
		
		

	
	
	</g>
	
	
	



</svg>