<?xml version="1.0" encoding="iso-8859-1"?><!-- Generator: Adobe Illustrator 15.0.0, SVG Export Plug-In . SVG Version: 6.00 Build 0)  --><!DOCTYPE svg  PUBLIC '-//W3C//DTD SVG 1.1//EN'  'http://www.w3.org/Graphics/SVG/1.1/DTD/svg11.dtd'><svg enable-background="new 0 0 595.275 320.315" height="320.315px" version="1.1" viewBox="-148.81875 -80.07875 892.9124999999999 480.47249999999997" width="595.275px" x="0px" xml:space="preserve" xmlns="http://www.w3.org/2000/svg" xmlns:xlink="http://www.w3.org/1999/xlink" y="0px">
	
	
	

	
	
	<g id="Hintergrund">
</g>
	
	
	

	
	
	<g display="none" id="Hilfslinien">
</g>
	
	
	

	
	
	<g id="Vordergrund">
		
		
		
	
		
		
		<g>
			
			
			
		
			
			
			<g>
				
				
				
			
				
				
				
				
				
				
			
				
				
				<polyline animation_id="12" clip-rule="evenodd" fill="#9D9D9C" fill-rule="evenodd" points="235.927,137.052 236.906,136.377 237.885,135.702      238.697,134.671 239.416,133.899 239.968,132.771 240.604,131.821 241.155,130.692 241.79,129.745 242.602,128.712      243.238,127.763 245.352,127.212 247.363,127.362 249.28,127.776 251.009,128.712 252.646,129.908 254.104,131.188      255.47,132.729 256.834,134.271 258.294,135.55 259.576,136.911 260.076,137.985 260.4,139.14 260.546,140.379 260.349,141.343      262.224,143.517 264.455,145.525 266.779,147.272 269.28,148.938 271.875,150.341 274.823,151.579 277.604,152.46      280.387,153.339 283.439,153.876 286.409,154.233 287.347,155.321 288.462,156.325 289.765,156.808 291.15,157.468      292.37,157.77 293.943,157.907 295.339,158.128 296.912,158.265 298.224,158.306 299.538,158.347 300.776,157.769      301.923,157.452 303.069,157.136 304.381,157.177 305.61,157.04 306.83,157.342 308.143,157.384 309.361,157.687 310.58,157.989      311.8,158.291 313.3,157.81 314.8,157.327 316.384,157.024 317.884,156.543 319.384,156.062 320.966,155.759 322.466,155.276      324.05,154.974 325.633,154.671 327.218,154.368 329.186,152.579 331.236,150.97 333.548,149.456 335.945,148.12      338.341,146.786 340.736,145.451 343.048,143.937 345.184,142.506 347.236,140.896 349.204,139.107 350.547,137.827      351.891,136.548 353.234,135.269 354.316,133.892 355.577,132.433 356.836,130.975 357.837,129.419 358.659,127.946      359.314,126.117 359.709,124.19 360.804,122.374 361.282,120.626 361.238,118.687 360.843,116.911 360.362,114.957      359.789,113.265 359.309,111.312 359.173,109.634 359.651,107.885 360.745,106.069 360.682,105.009 360.879,104.046      363.254,103.592 363.391,105.271 363.787,107.046 364.36,108.737 364.757,110.513 365.331,112.205 365.904,113.897      366.656,115.507 367.489,117.296 368.239,118.905 368.991,120.517 368.439,121.645 368.325,122.786 368.388,123.846      368.711,125.001 369.212,126.075 369.535,127.231 370.036,128.304 370.276,129.28 370.161,130.423 370.047,131.565      369.651,133.491 369.257,135.418 368.862,137.345 368.384,139.092 367.988,141.019 367.853,143.042 367.635,144.886      367.595,146.646 367.638,148.587 367.68,150.526 366.679,152.081 365.856,153.554 364.941,155.288 364.202,156.938      363.463,158.591 362.808,160.42 362.068,162.071 361.068,163.626 359.985,165.003 358.819,166.2 357.308,167.122      355.715,167.864 354.121,168.608 352.35,169.435 350.758,170.177 349.246,171.099 347.914,171.938 346.486,173.038      345.32,174.236 344.498,175.709 342.437,177.759 340.206,179.452 337.718,181.048 335.062,182.286 332.321,183.347      329.666,184.585 326.927,185.645 324.187,186.704 321.613,188.122 319.125,189.719 315.427,190.571 311.905,191.343      308.395,191.673 304.707,192.086 301.029,192.059 297.436,192.21 293.852,191.921 290.09,191.716 286.506,191.427      283.114,190.997 280.74,190.562 278.64,190.16 277.087,189.722 275.087,189.13 273.263,188.456 271.357,187.603 269.534,186.929      267.627,186.075 265.72,185.222 264.34,184.665 263.521,183.422 262.896,182.401 258.988,180.958 255.269,178.989      251.903,176.856 248.536,174.726 245.535,171.987 242.711,169.165 240.157,166.001 237.957,162.673 236.029,158.998      234.371,154.979 233.461,145.169 235.927,137.052    " stroke="black"/>
				
				
				
			
				
				
				
				
				
				
		
			
			
			</g>
			
			
			
		
			
			
			<g>
				
				
				
			
				
				
				
				
				
				
			
				
				
				
				
				
				
			
				
				
				
				
				
				
			
				
				
				
				
				
				
			
				
				
				
				
				
				
			
				
				
				
				
				
				
			
				
				
				
				
				
				
			
				
				
				
				
				
				
			
				
				
				
				
				
				
			
				
				
				
				
				
				
			
				
				
				
				
				
				
		
			
			
			</g>
			
			
			
	
		
		
		</g>
		
		
		

	
	
	</g>
	
	
	



</svg>