<?xml version="1.0" encoding="iso-8859-1"?><!-- Generator: Adobe Illustrator 15.0.0, SVG Export Plug-In . SVG Version: 6.00 Build 0)  --><!DOCTYPE svg  PUBLIC '-//W3C//DTD SVG 1.1//EN'  'http://www.w3.org/Graphics/SVG/1.1/DTD/svg11.dtd'><svg enable-background="new 0 0 595.275 637.795" height="637.795px" version="1.1" viewBox="-148.81875 -159.44875 892.9124999999999 956.6924999999999" width="595.275px" x="0px" xml:space="preserve" xmlns="http://www.w3.org/2000/svg" xmlns:xlink="http://www.w3.org/1999/xlink" y="0px">
	
	
	

	
	
	<g id="Hintergrund">
</g>
	
	
	

	
	
	<g display="none" id="Hilfslinien">
</g>
	
	
	

	
	
	<g id="Vordergrund">
		
		
		
	
		
		
		<g>
			
			
			
		
			
			
			<g>
				
				
				
			
				
				
				
				
				
				
			
				
				
				
				
				
				
			
				
				
				<path animation_id="2" d="M124.684,251.817c0,1.203-0.218,1.531-1.531,1.531h-10.834c-1.313,0-1.533-0.328-1.533-1.531v-42.354     h-8.426c-1.313,0-1.533-0.328-1.533-1.532v-7.113c0-1.204,0.219-1.532,1.533-1.532h20.794c1.313,0,1.531,0.328,1.531,1.532     V251.817z M117.679,192.173c-5.034,0-9.083-4.05-9.083-9.084s4.049-8.975,9.083-8.975c4.925,0,8.974,3.94,8.974,8.975     S122.604,192.173,117.679,192.173z" fill="#9D9D9C" stroke="black"/>
				
				
				
			
				
				
				
				
				
				
			
				
				
				
				
				
				
			
				
				
				
				
				
				
			
				
				
				
				
				
				
			
				
				
				
				
				
				
			
				
				
				
				
				
				
			
				
				
				
				
				
				
			
				
				
				
				
				
				
		
			
			
			</g>
			
			
			
		
			
			
			<g>
				
				
				
			
				
				
				
				
				
				
				
			
				
				
				
				
				
				
				
		
			
			
			</g>
			
			
			
	
		
		
		</g>
		
		
		

	
	
	</g>
	
	
	



</svg>