<?xml version="1.0" encoding="iso-8859-1"?><!-- Generator: Adobe Illustrator 15.0.0, SVG Export Plug-In . SVG Version: 6.00 Build 0)  --><!DOCTYPE svg  PUBLIC '-//W3C//DTD SVG 1.1//EN'  'http://www.w3.org/Graphics/SVG/1.1/DTD/svg11.dtd'><svg enable-background="new 0 0 595.275 119.055" height="119.055px" version="1.1" viewBox="-148.81875 -29.76375 892.9124999999999 178.5825" width="595.275px" x="0px" xml:space="preserve" xmlns="http://www.w3.org/2000/svg" xmlns:xlink="http://www.w3.org/1999/xlink" y="0px">
	
	
	

	
	
	<g id="Hintergrund">
</g>
	
	
	

	
	
	<g display="none" id="Hilfslinien">
</g>
	
	
	

	
	
	<g id="Vordergrund">
		
		
		
	
		
		
		<g>
			
			
			
		
			
			
			
			
			
			
		
			
			
			
			
			
			
			
		
			
			
			
			
			
			
		
			
			
			<path animation_id="2" clip-rule="evenodd" d="M92.54,40.448c-8.73-1.509-13.194,3.93-13.59,14.216    c0,8.607,0,13.585,0,21.605h-7.656c0-12.103,0-23.361,0-36.359c-2.583-0.741-4.445-0.806-7.212-0.971v-4.479    c2.524-0.429,3.786-0.59,7.212-0.757c2.424,0,4.692,0,7.066,0c0.081,2.853,0.13,4.43,0.585,7.193    c1.465-3.346,4.06-6.307,8.297-7.45c0.857-0.232,4.03-0.853,5.303-0.494L92.54,40.448z" fill="#9D9D9C" fill-rule="evenodd" stroke="black"/>
			
			
			
		
			
			
			
			
			
			
		
			
			
			
			
			
			
		
			
			
			
			
			
			
		
			
			
			
			
			
			
		
			
			
			
			
			
			
		
			
			
			
			
			
			
		
			
			
			
			
			
			
		
			
			
			<g>
				
				
				
			
				
				
				
				
				
				
				
			
				
				
				
				
				
				
				
		
			
			
			</g>
			
			
			
	
		
		
		</g>
		
		
		

	
	
	</g>
	
	
	



</svg>