<?xml version="1.0" encoding="iso-8859-1"?><!-- Generator: Adobe Illustrator 15.0.0, SVG Export Plug-In . SVG Version: 6.00 Build 0)  --><!DOCTYPE svg  PUBLIC '-//W3C//DTD SVG 1.1//EN'  'http://www.w3.org/Graphics/SVG/1.1/DTD/svg11.dtd'><svg enable-background="new 0 0 595.276 297.638" height="297.638px" id="Ebene_1" version="1.1" viewBox="-148.819 -74.4095 892.914 446.457" width="595.276px" x="0px" xml:space="preserve" xmlns="http://www.w3.org/2000/svg" xmlns:xlink="http://www.w3.org/1999/xlink" y="0px">
	
	
	

	
	
	<g>
		
		
		
	
		
		
		
		
		
		
	
		
		
		
		
		
		
	
		
		
		
		
		
		
	
		
		
		
		
		
		
	
		
		
		<path animation_id="4" d="M521.663,36.531c5.722-0.934,14.13-1.635,23.706-1.635c11.677,0,19.852,1.752,25.457,6.189   c4.788,3.736,7.356,9.342,7.356,16.582c0,9.926-7.123,16.815-13.896,19.268v0.351c5.488,2.219,8.525,7.356,10.51,14.597   c2.452,8.992,4.787,19.269,6.307,22.305h-18.217c-1.169-2.336-3.154-8.642-5.373-18.334c-2.218-9.926-5.604-12.495-12.962-12.612   h-5.255v30.946h-17.633V36.531z M539.296,70.396h7.007c8.876,0,14.131-4.438,14.131-11.327c0-7.124-4.905-10.86-13.08-10.86   c-4.32,0-6.772,0.233-8.058,0.584V70.396z" fill="#EE7518" stroke="black"/>
		
		
		

	
	
	</g>
	
	
	

	
	
	
	
	
	

	
	
	
	
	
	



</svg>