<?xml version="1.0" encoding="iso-8859-1"?><!-- Generator: Adobe Illustrator 15.0.0, SVG Export Plug-In . SVG Version: 6.00 Build 0)  --><!DOCTYPE svg  PUBLIC '-//W3C//DTD SVG 1.1//EN'  'http://www.w3.org/Graphics/SVG/1.1/DTD/svg11.dtd'><svg enable-background="new 0 0 595.275 255.118" height="255.118px" version="1.1" viewBox="-148.81875 -63.7795 892.9124999999999 382.677" width="595.275px" x="0px" xml:space="preserve" xmlns="http://www.w3.org/2000/svg" xmlns:xlink="http://www.w3.org/1999/xlink" y="0px">
	
	
	

	
	
	<g id="Hintergrund">
</g>
	
	
	

	
	
	<g id="Hilfslinien_anzeigen">
</g>
	
	
	

	
	
	<g id="Vordergrund">
		
		
		
	
		
		
		<g>
			
			
			
		
			
			
			
			
			
			
		
			
			
			
			
			
			
		
			
			
			
			
			
			
		
			
			
			
			
			
			
		
			
			
			
			
			
			
		
			
			
			
			
			
			
		
			
			
			
			
			
			
		
			
			
			
			
			
			
		
			
			
			
			
			
			
		
			
			
			
			
			
			
		
			
			
			
			
			
			
		
			
			
			
			
			
			
	
		
		
		</g>
		
		
		
	
		
		
		<g>
			
			
			
		
			
			
			
			
			
			
		
			
			
			
			
			
			
		
			
			
			<path animation_id="14" d="M187.456,226.792v-43.456c0-6.048-2.911-11.536-11.647-11.536c-5.04,0-8.96,1.681-12.432,5.376v49.616    h-9.856v-43.904c0-6.72-4.479-11.199-13.216-11.199c-4.928,0-7.616,0.672-10.864,2.016v53.088h-9.855v-57.232    c5.487-2.688,11.312-4.256,20.943-4.256c9.296,0,14.896,2.801,18.48,7.28c4.144-4.368,10.304-7.28,18.704-7.28    c14.447,0,19.6,9.408,19.6,17.809v43.68H187.456z" fill="#706F6F" stroke="black"/>
			
			
			
		
			
			
			
			
			
			
		
			
			
			
			
			
			
		
			
			
			
			
			
			
		
			
			
			
			
			
			
		
			
			
			
			
			
			
		
			
			
			
			
			
			
	
		
		
		</g>
		
		
		

	
	
	</g>
	
	
	



</svg>