<?xml version="1.0" encoding="iso-8859-1"?><!-- Generator: Adobe Illustrator 15.0.0, SVG Export Plug-In . SVG Version: 6.00 Build 0)  --><!DOCTYPE svg  PUBLIC '-//W3C//DTD SVG 1.1//EN'  'http://www.w3.org/Graphics/SVG/1.1/DTD/svg11.dtd'><svg enable-background="new 0 0 595.275 158.74" height="158.74px" version="1.1" viewBox="-148.81875 -39.685 892.9124999999999 238.11" width="595.275px" x="0px" xml:space="preserve" xmlns="http://www.w3.org/2000/svg" xmlns:xlink="http://www.w3.org/1999/xlink" y="0px">
	
	
	

	
	
	<g id="Hintergrund">
</g>
	
	
	

	
	
	<g display="none" id="Hilfslinien">
</g>
	
	
	

	
	
	<g id="Vordergrund">
		
		
		
	
		
		
		<g>
			
			
			
		
			
			
			<path animation_id="0" clip-rule="evenodd" d="M388.527,68.45c-5.735,0-8.849,2.708-11.867,7.235l-0.312,0.242    l0.195-6.877c-2.133,0-4.09,0-6.339,0c-2.531,0.076-4.261,0.283-6.373,0.661l-0.002,3.91c2.222,0.11,4.2,0.249,6.479,0.847v50.143    c2.309,0,4.477,0,6.743,0l-0.018-18.148l0.3-0.095c5.384,0.644,13.246,0.233,17.753-3.087    C405.879,95.328,405.615,68.45,388.527,68.45z M387.562,100.644c-2.592,0.864-8.001,0.794-10.511-0.332    c-0.046-4.007,0-7.978-0.038-12.05c-0.026-2.659,0.467-5.341,1.672-7.752c1.856-3.714,8.962-9.704,13.122-4.921    C397.489,82.122,396.769,97.574,387.562,100.644z" fill="#9D9D9C" fill-rule="evenodd" stroke="black"/>
			
			
			
		
			
			
			
			
			
			
		
			
			
			
			
			
			
		
			
			
			
			
			
			
		
			
			
			
			
			
			
		
			
			
			
			
			
			
		
			
			
			
			
			
			
			
		
			
			
			
			
			
			
			
		
			
			
			
			
			
			
		
			
			
			
			
			
			
			
		
			
			
			
			
			
			
		
			
			
			
			
			
			
		
			
			
			
			
			
			
		
			
			
			
			
			
			
	
		
		
		</g>
		
		
		

	
	
	</g>
	
	
	



</svg>