<?xml version="1.0" encoding="iso-8859-1"?><!-- Generator: Adobe Illustrator 15.0.0, SVG Export Plug-In . SVG Version: 6.00 Build 0)  --><!DOCTYPE svg  PUBLIC '-//W3C//DTD SVG 1.1//EN'  'http://www.w3.org/Graphics/SVG/1.1/DTD/svg11.dtd'><svg enable-background="new 0 0 595.275 637.795" height="637.795px" version="1.1" viewBox="-148.81875 -159.44875 892.9124999999999 956.6924999999999" width="595.275px" x="0px" xml:space="preserve" xmlns="http://www.w3.org/2000/svg" xmlns:xlink="http://www.w3.org/1999/xlink" y="0px">
	
	
	

	
	
	<g id="Hintergrund">
</g>
	
	
	

	
	
	<g display="none" id="Hilfslinien">
</g>
	
	
	

	
	
	<g id="Vordergrund">
		
		
		
	
		
		
		<g>
			
			
			
		
			
			
			<g>
				
				
				
			
				
				
				
				
				
				
			
				
				
				<path animation_id="1" d="M81.021,251.817c0,1.203-0.218,1.531-1.532,1.531H68.655c-1.314,0-1.534-0.328-1.534-1.531v-33.051     c0-12.039-2.845-14.009-2.845-16.525c0-0.438,0.438-0.766,0.985-0.984l8.318-3.393c0.437-0.11,0.985-0.438,1.422-0.438     c1.313,0,3.503,4.925,4.049,8.646c2.079-2.517,6.128-8.646,13.571-8.646c3.174,0,6.348,1.095,6.348,2.517     c0,0.438-0.11,0.876-0.22,1.096l-3.393,9.191c-0.11,0.329-0.437,0.985-0.875,0.985c-0.656,0-2.626-1.203-5.144-1.203     c-3.392,0-6.895,3.72-8.317,5.253V251.817z" fill="#9D9D9C" stroke="black"/>
				
				
				
			
				
				
				
				
				
				
			
				
				
				
				
				
				
			
				
				
				
				
				
				
			
				
				
				
				
				
				
			
				
				
				
				
				
				
			
				
				
				
				
				
				
			
				
				
				
				
				
				
			
				
				
				
				
				
				
			
				
				
				
				
				
				
		
			
			
			</g>
			
			
			
		
			
			
			<g>
				
				
				
			
				
				
				
				
				
				
				
			
				
				
				
				
				
				
				
		
			
			
			</g>
			
			
			
	
		
		
		</g>
		
		
		

	
	
	</g>
	
	
	



</svg>