<?xml version="1.0" encoding="iso-8859-1"?><!-- Generator: Adobe Illustrator 15.0.0, SVG Export Plug-In . SVG Version: 6.00 Build 0)  --><!DOCTYPE svg  PUBLIC '-//W3C//DTD SVG 1.1//EN'  'http://www.w3.org/Graphics/SVG/1.1/DTD/svg11.dtd'><svg enable-background="new 0 0 595.275 317.48" height="317.48px" version="1.1" viewBox="-148.81875 -79.37 892.9124999999999 476.22" width="595.275px" x="0px" xml:space="preserve" xmlns="http://www.w3.org/2000/svg" xmlns:xlink="http://www.w3.org/1999/xlink" y="0px">
	
	
	

	
	
	<g id="Hintergrund">
</g>
	
	
	

	
	
	<g display="none" id="Hilfslinien">
</g>
	
	
	

	
	
	<g id="Vordergrund">
		
		
		
	
		
		
		<g>
			
			
			
		
			
			
			<g>
				
				
				
			
				
				
				
				
				
				
				
			
				
				
				
				
				
				
				
			
				
				
				
				
				
				
				
		
			
			
			</g>
			
			
			
		
			
			
			<g>
				
				
				
			
				
				
				
				
				
				
			
				
				
				
				
				
				
			
				
				
				
				
				
				
				
			
				
				
				
				
				
				
			
				
				
				
				
				
				
			
				
				
				
				
				
				
			
				
				
				
				
				
				
			
				
				
				
				
				
				
			
				
				
				
				
				
				
			
				
				
				
				
				
				
			
				
				
				
				
				
				
			
				
				
				
				
				
				
			
				
				
				
				
				
				
			
				
				
				
				
				
				
			
				
				
				
				
				
				
			
				
				
				
				
				
				
			
				
				
				
				
				
				
			
				
				
				
				
				
				
			
				
				
				<path animation_id="17" clip-rule="evenodd" d="M180.207,239.995c3.148-5.071,7.985-9.046,14.103-9.479     c13.605-0.962,15.749,4.418,15.731,18.094c0.051,2.085,0.033,4.222,0.033,6.339c0,8.075,0,16.03,0,24.27h-8.554l-0.021-34.461     c0.021-3.971-2.114-7.123-6.189-6.815c-5.763,0.434-8.926,1.801-12.068,6.474c-1.276,1.897-2.437,4.193-2.437,10.533     c-0.041,8.49-0.005,19.16,0,24.27c-2.856,0-5.017,0-8.566,0c-0.005-3.468,0-14.585,0-24.27c0-6.88,0-8.999,0-9.925     c0-4.734-4.004-7.291-8.273-7.082c-8.855,0.434-12.902,6.908-12.902,17.007c0,11.71,0,15.089,0,24.27h-8.574v-40.843     c-2.994-0.908-5.501-1.133-8.298-1.328v-4.792c2.79-0.463,4.26-0.726,8.298-0.85c3.032,0,5.252,0,7.932,0     c0.097,2.096,0.157,4.245,0.881,6.452c3.206-2.748,6.543-5.711,10.704-6.898C168.821,229.015,178.491,232.379,180.207,239.995z" fill="#9D9D9C" fill-rule="evenodd" stroke="black"/>
				
				
				
		
			
			
			</g>
			
			
			
	
		
		
		</g>
		
		
		

	
	
	</g>
	
	
	



</svg>