<?xml version="1.0" encoding="iso-8859-1"?><!-- Generator: Adobe Illustrator 15.0.0, SVG Export Plug-In . SVG Version: 6.00 Build 0)  --><!DOCTYPE svg  PUBLIC '-//W3C//DTD SVG 1.1//EN'  'http://www.w3.org/Graphics/SVG/1.1/DTD/svg11.dtd'><svg enable-background="new 0 0 595.276 291.969" height="291.969px" id="Ebene_1" version="1.1" viewBox="-148.819 -72.99225 892.914 437.95349999999996" width="595.276px" x="0px" xml:space="preserve" xmlns="http://www.w3.org/2000/svg" xmlns:xlink="http://www.w3.org/1999/xlink" y="0px">
	
	
	

	
	
	
	
	
	

	
	
	
	
	
	

	
	
	
	
	
	

	
	
	
	
	
	

	
	
	
	
	
	

	
	
	<g>
		
		
		
	
		
		
		
		
		
		
	
		
		
		
		
		
		
	
		
		
		
		
		
		
	
		
		
		
		
		
		
	
		
		
		
		
		
		
	
		
		
		
		
		
		
	
		
		
		
		
		
		
	
		
		
		
		
		
		
	
		
		
		
		
		
		
	
		
		
		
		
		
		
	
		
		
		
		
		
		
	
		
		
		
		
		
		
	
		
		
		
		
		
		

	
	
	</g>
	
	
	

	
	
	<g>
		
		
		
	
		
		
		
		
		
		
	
		
		
		
		
		
		
	
		
		
		
		
		
		
	
		
		
		<path animation_id="21" d="M526.376,278.75c3.271,0,3.973-0.701,3.973-4.346v-20.096c0-3.645-0.701-4.346-3.973-4.346v-1.168h13.226   c5.935,0,10.748,2.102,10.748,8.553c0,8.316-7.384,8.785-13.132,8.785h-1.729v8.271c0,3.645,0.701,4.346,3.973,4.346v1.168h-13.085   V278.75z M535.488,263.982h1.636c3.973,0,7.898-0.279,7.898-6.635c0-5.516-2.663-6.404-6.683-6.404   c-2.477,0-2.852,0.561-2.852,3.365V263.982z" stroke="black"/>
		
		
		
	
		
		
		
		
		
		

	
	
	</g>
	
	
	



</svg>