<?xml version="1.0" encoding="iso-8859-1"?><!-- Generator: Adobe Illustrator 15.0.0, SVG Export Plug-In . SVG Version: 6.00 Build 0)  --><!DOCTYPE svg  PUBLIC '-//W3C//DTD SVG 1.1//EN'  'http://www.w3.org/Graphics/SVG/1.1/DTD/svg11.dtd'><svg enable-background="new 0 0 595.275 121.89" height="121.89px" version="1.1" viewBox="-148.81875 -30.4725 892.9124999999999 182.835" width="595.275px" x="0px" xml:space="preserve" xmlns="http://www.w3.org/2000/svg" xmlns:xlink="http://www.w3.org/1999/xlink" y="0px">
	
	
	

	
	
	<g id="Hintergrund">
</g>
	
	
	

	
	
	<g display="none" id="Hilfslinien">
</g>
	
	
	

	
	
	<g id="Vordergrund">
		
		
		
	
		
		
		<g>
			
			
			
		
			
			
			
			
			
			
		
			
			
			
			
			
			
		
			
			
			
			
			
			
		
			
			
			
			
			
			
		
			
			
			<path animation_id="4" d="M399.903,67.087c3.92,0,5.227-4.443,5.227-10.454v-32.15c0-5.488,2.092-8.363,7.318-8.363    c7.058,0,8.627,1.829,8.627,10.716v68.48c0,5.49-2.092,8.364-9.934,8.364c-6.795,0-10.193-1.829-12.284-5.488l-23.264-39.207    c-1.045-1.829-3.659-5.75-6.795-5.75c-4.705,0-5.49,4.443-5.49,8.887v33.194c0,5.49-2.091,8.104-8.102,8.104    c-5.751,0-7.841-1.568-7.841-10.455V24.482c0-8.363,4.704-8.363,9.931-8.363c11.502,0,8.888-1.046,32.673,40.252    C395.72,66.564,397.289,67.087,399.903,67.087z" fill="#225CAC" stroke="black"/>
			
			
			
		
			
			
			
			
			
			
		
			
			
			
			
			
			
	
		
		
		</g>
		
		
		

	
	
	</g>
	
	
	



</svg>