<?xml version="1.0" encoding="iso-8859-1"?><!-- Generator: Adobe Illustrator 15.0.0, SVG Export Plug-In . SVG Version: 6.00 Build 0)  --><!DOCTYPE svg  PUBLIC '-//W3C//DTD SVG 1.1//EN'  'http://www.w3.org/Graphics/SVG/1.1/DTD/svg11.dtd'><svg enable-background="new 0 0 595.275 340.157" height="340.157px" version="1.1" viewBox="-148.81875 -85.03925 892.9124999999999 510.2355" width="595.275px" x="0px" xml:space="preserve" xmlns="http://www.w3.org/2000/svg" xmlns:xlink="http://www.w3.org/1999/xlink" y="0px">
	
	
	

	
	
	<g id="Hintergrund">
</g>
	
	
	

	
	
	<g display="none" id="Hilfslinien">
</g>
	
	
	

	
	
	<g id="Vordergrund">
		
		
		
	
		
		
		<g>
			
			
			
		
			
			
			
			
			
			
			
		
			
			
			
			
			
			
			
		
			
			
			<g>
				
				
				
			
				
				
				
				
				
				
			
				
				
				<path animation_id="1" d="M96.255,304.876c0,0.973-0.177,1.238-1.239,1.238h-8.752c-1.062,0-1.239-0.266-1.239-1.238v-26.703     c0-9.727-2.298-11.318-2.298-13.353c0-0.354,0.354-0.618,0.796-0.796l6.719-2.74c0.354-0.09,0.796-0.354,1.149-0.354     c1.062,0,2.83,3.979,3.272,6.984c1.679-2.033,4.952-6.984,10.963-6.984c2.565,0,5.129,0.884,5.129,2.033     c0,0.354-0.088,0.707-0.177,0.885l-2.741,7.427c-0.088,0.266-0.353,0.796-0.708,0.796c-0.53,0-2.122-0.973-4.155-0.973     c-2.741,0-5.571,3.006-6.721,4.244V304.876z" fill="#9D9D9C" stroke="black"/>
				
				
				
			
				
				
				
				
				
				
			
				
				
				
				
				
				
			
				
				
				
				
				
				
			
				
				
				
				
				
				
			
				
				
				
				
				
				
			
				
				
				
				
				
				
			
				
				
				
				
				
				
			
				
				
				
				
				
				
			
				
				
				
				
				
				
		
			
			
			</g>
			
			
			
	
		
		
		</g>
		
		
		

	
	
	</g>
	
	
	



</svg>