<?xml version="1.0" encoding="iso-8859-1"?><!-- Generator: Adobe Illustrator 15.0.0, SVG Export Plug-In . SVG Version: 6.00 Build 0)  --><!DOCTYPE svg  PUBLIC '-//W3C//DTD SVG 1.1//EN'  'http://www.w3.org/Graphics/SVG/1.1/DTD/svg11.dtd'><svg enable-background="new 0 0 595.276 206.929" height="206.929px" id="Ebene_1" version="1.1" viewBox="-148.819 -51.73225 892.914 310.3935" width="595.276px" x="0px" xml:space="preserve" xmlns="http://www.w3.org/2000/svg" xmlns:xlink="http://www.w3.org/1999/xlink" y="0px">
	
	
	

	
	
	<g>
		
		
		
	
		
		
		<g>
			
			
			
		
			
			
			<g>
				
				
				
			
				
				
				
				
				
				
			
				
				
				
				
				
				
			
				
				
				<path animation_id="2" d="M402.536,113.216c-5.663,1.928-16.388,4.578-27.112,4.578c-14.821,0-25.546-3.734-33.017-10.846     c-7.351-7.107-11.447-17.713-11.447-29.643c0.12-26.992,19.761-42.416,46.393-42.416c10.483,0,18.557,2.049,22.532,3.857     l-3.855,14.82c-4.459-2.049-9.881-3.494-18.797-3.494c-15.304,0-26.993,8.557-26.993,26.27c0,16.869,10.604,26.631,25.667,26.631     c4.097,0,7.471-0.482,8.917-1.086V84.776h-12.532V70.438h30.245V113.216z" fill="#1B3E90" stroke="black"/>
				
				
				
			
				
				
				
				
				
				
			
				
				
				
				
				
				
		
			
			
			</g>
			
			
			
		
			
			
			
			
			
			
		
			
			
			
			
			
			
		
			
			
			
			
			
			
		
			
			
			
			
			
			
	
		
		
		</g>
		
		
		

	
	
	</g>
	
	
	



</svg>