<?xml version="1.0" encoding="iso-8859-1"?><!-- Generator: Adobe Illustrator 15.0.0, SVG Export Plug-In . SVG Version: 6.00 Build 0)  --><!DOCTYPE svg  PUBLIC '-//W3C//DTD SVG 1.1//EN'  'http://www.w3.org/Graphics/SVG/1.1/DTD/svg11.dtd'><svg enable-background="new 0 0 595.276 206.929" height="206.929px" id="Ebene_1" version="1.1" viewBox="-148.819 -51.73225 892.914 310.3935" width="595.276px" x="0px" xml:space="preserve" xmlns="http://www.w3.org/2000/svg" xmlns:xlink="http://www.w3.org/1999/xlink" y="0px">
	
	
	

	
	
	<g>
		
		
		
	
		
		
		<g>
			
			
			
		
			
			
			<g>
				
				
				
			
				
				
				
				
				
				
			
				
				
				<path animation_id="1" d="M263.608,96.104l-5.784,20.846h-18.918l24.702-81.217h24.101l25.305,81.217H293.13l-6.266-20.846H263.608     z M255.896,22.96c0-4.699,3.615-8.314,8.314-8.314c4.458,0,7.953,3.496,7.953,8.314c0,4.459-3.374,8.195-8.074,8.195     C259.511,31.155,255.896,27.419,255.896,22.96z M284.213,82.368l-5.062-17.232c-1.445-4.82-2.892-10.846-4.097-15.666h-0.24     c-1.205,4.82-2.41,10.967-3.736,15.666l-4.819,17.232H284.213z M280.959,22.96c0-4.699,3.495-8.314,8.194-8.314     c4.579,0,8.073,3.496,8.073,8.314c0,4.459-3.374,8.195-8.193,8.195C284.333,31.155,280.959,27.419,280.959,22.96z" fill="#1B3E90" stroke="black"/>
				
				
				
			
				
				
				
				
				
				
			
				
				
				
				
				
				
			
				
				
				
				
				
				
		
			
			
			</g>
			
			
			
		
			
			
			
			
			
			
		
			
			
			
			
			
			
		
			
			
			
			
			
			
		
			
			
			
			
			
			
	
		
		
		</g>
		
		
		

	
	
	</g>
	
	
	



</svg>