<?xml version="1.0" encoding="iso-8859-1"?><!-- Generator: Adobe Illustrator 15.0.0, SVG Export Plug-In . SVG Version: 6.00 Build 0)  --><!DOCTYPE svg  PUBLIC '-//W3C//DTD SVG 1.1//EN'  'http://www.w3.org/Graphics/SVG/1.1/DTD/svg11.dtd'><svg enable-background="new 0 0 595.275 595.275" height="595.275px" version="1.1" viewBox="-148.81875 -148.81875 892.9124999999999 892.9124999999999" width="595.275px" x="0px" xml:space="preserve" xmlns="http://www.w3.org/2000/svg" xmlns:xlink="http://www.w3.org/1999/xlink" y="0px">
	
	
	

	
	
	<g id="Hintergrund">
</g>
	
	
	

	
	
	<g display="none" id="Hilfslinien">
</g>
	
	
	

	
	
	<g id="Vordergrund">
		
		
		
	
		
		
		<g>
			
			
			
		
			
			
			<g>
				
				
				
			
				
				
				<g>
					
					
					
				
					
					
					
					
					
					
				
					
					
					
					
					
					
				
					
					
					
					
					
					
				
					
					
					
					
					
					
				
					
					
					
					
					
					
			
				
				
				</g>
				
				
				
			
				
				
				<g>
					
					
					
				
					
					
					
					
					
					
				
					
					
					
					
					
					
				
					
					
					
					
					
					
				
					
					
					
					
					
					
				
					
					
					
					
					
					
				
					
					
					
					
					
					
				
					
					
					
					
					
					
				
					
					
					
					
					
					
				
					
					
					
					
					
					
				
					
					
					
					
					
					
				
					
					
					
					
					
					
				
					
					
					
					
					
					
				
					
					
					
					
					
					
				
					
					
					
					
					
					
				
					
					
					
					
					
					
				
					
					
					
					
					
					
				
					
					
					
					
					
					
				
					
					
					
					
					
					
				
					
					
					
					
					
					
			
				
				
				</g>
				
				
				
		
			
			
			</g>
			
			
			
		
			
			
			
			
			
			
			
		
			
			
			
			
			
			
			
		
			
			
			<g>
				
				
				
			
				
				
				
				<polygon animation_id="26" clip-rule="evenodd" fill="#EC6608" fill-rule="evenodd" points="     108.429,176.337 142.327,175.613 177.256,170.547 193.48,170.547 211.877,169.101 234.199,167.654 233.476,170.547      257.877,169.213 289.64,164.689 306.216,160.981 331.95,164.227 378.785,164.689 431.275,163.729 457.382,162.371      484.973,163.299 497.378,164.227 514.88,166.432 514.155,161.558 506.648,158.199 492.39,157.272 472.568,152.637      453.289,151.12 426.627,145.331 383.013,137.789 349.839,132 321.729,129.83 294.036,129.83 260.138,132.723 233.476,134.895      219.42,136.342 199.563,140.695 173.331,147.502 139.365,162.246 122.972,168.562 110.163,172.443 107.581,173.189    " stroke="black" stroke-miterlimit="3.8637" stroke-width="0"/>
				
				
				
			
				
				
				
				
				
				
				
		
			
			
			</g>
			
			
			
		
			
			
			
			
			
			
			
		
			
			
			
			
			
			
			
	
		
		
		</g>
		
		
		

	
	
	</g>
	
	
	



</svg>