<?xml version="1.0" encoding="iso-8859-1"?><!-- Generator: Adobe Illustrator 15.0.0, SVG Export Plug-In . SVG Version: 6.00 Build 0)  --><!DOCTYPE svg  PUBLIC '-//W3C//DTD SVG 1.1//EN'  'http://www.w3.org/Graphics/SVG/1.1/DTD/svg11.dtd'><svg enable-background="new 0 0 595.276 206.929" height="206.929px" id="Ebene_1" version="1.1" viewBox="-148.819 -51.73225 892.914 310.3935" width="595.276px" x="0px" xml:space="preserve" xmlns="http://www.w3.org/2000/svg" xmlns:xlink="http://www.w3.org/1999/xlink" y="0px">
	
	
	

	
	
	<g>
		
		
		
	
		
		
		<g>
			
			
			
		
			
			
			<g>
				
				
				
			
				
				
				
				
				
				
			
				
				
				
				
				
				
			
				
				
				
				
				
				
			
				
				
				
				
				
				
			
				
				
				<path animation_id="4" d="M519.768,36.819c5.904-0.965,14.581-1.688,24.462-1.688c12.05,0,20.485,1.807,26.269,6.385     c4.941,3.857,7.592,9.641,7.592,17.113c0,10.242-7.351,17.352-14.34,19.881v0.361c5.663,2.291,8.797,7.592,10.845,15.062     c2.53,9.279,4.94,19.883,6.508,23.016h-18.798c-1.206-2.41-3.255-8.916-5.544-18.918c-2.288-10.242-5.784-12.895-13.375-13.014     h-5.423v31.932h-18.195V36.819z M537.963,71.763h7.23c9.158,0,14.581-4.578,14.581-11.688c0-7.352-5.062-11.207-13.497-11.207     c-4.458,0-6.988,0.24-8.314,0.602V71.763z" fill="#1B3E90" stroke="black"/>
				
				
				
		
			
			
			</g>
			
			
			
		
			
			
			
			
			
			
		
			
			
			
			
			
			
		
			
			
			
			
			
			
		
			
			
			
			
			
			
	
		
		
		</g>
		
		
		

	
	
	</g>
	
	
	



</svg>