<?xml version="1.0" encoding="iso-8859-1"?><!-- Generator: Adobe Illustrator 15.0.0, SVG Export Plug-In . SVG Version: 6.00 Build 0)  --><!DOCTYPE svg  PUBLIC '-//W3C//DTD SVG 1.1//EN'  'http://www.w3.org/Graphics/SVG/1.1/DTD/svg11.dtd'><svg enable-background="new 0 0 595.275 317.48" height="317.48px" version="1.1" viewBox="-148.81875 -79.37 892.9124999999999 476.22" width="595.275px" x="0px" xml:space="preserve" xmlns="http://www.w3.org/2000/svg" xmlns:xlink="http://www.w3.org/1999/xlink" y="0px">
	
	
	

	
	
	<g id="Hintergrund">
</g>
	
	
	

	
	
	<g display="none" id="Hilfslinien">
</g>
	
	
	

	
	
	<g id="Vordergrund">
		
		
		
	
		
		
		<g>
			
			
			
		
			
			
			<g>
				
				
				
			
				
				
				
				
				
				
				
			
				
				
				
				<polygon animation_id="20" clip-rule="evenodd" fill="#9D9D9C" fill-rule="evenodd" points="     386.16,21.6 382.467,27.549 382.263,36.639 381.898,44.162 379.424,49.993 371.581,48.322 366.059,44.162 359.957,41.954      352.024,40.701 343.073,40.283 336.026,40.021 326.929,38.512 319.086,36.424 309.36,33.514 299.159,33.916 287.518,34.867      287.883,33.514 277.959,34.867 270.283,35.588 262.397,35.881 255.247,36.005 249.987,36.005 237.992,37.259 230.15,39.866      222.957,42.373 214.744,40.701 209.116,29.638 214.375,27.967 218.156,25.359 221.479,21.6 225.63,17.738 229.78,16.485      236.147,16.485 237.188,14.584 248.141,15.231 254.877,16.485 264.655,18.574 275.91,17.32 285.32,18.156 293.902,19.41      303.68,18.992 316.781,18.156 324.56,16.695 331.449,15.231 338.554,16.067 345.658,16.067 355.068,15.231 364.019,15.65      373.059,18.574 379.794,21.181    " stroke="black" stroke-miterlimit="3.8637" stroke-width="0"/>
				
				
				
			
				
				
				
				
				
				
				
		
			
			
			</g>
			
			
			
		
			
			
			<g>
				
				
				
			
				
				
				
				
				
				
			
				
				
				
				
				
				
			
				
				
				
				
				
				
				
			
				
				
				
				
				
				
			
				
				
				
				
				
				
			
				
				
				
				
				
				
			
				
				
				
				
				
				
			
				
				
				
				
				
				
			
				
				
				
				
				
				
			
				
				
				
				
				
				
			
				
				
				
				
				
				
			
				
				
				
				
				
				
			
				
				
				
				
				
				
			
				
				
				
				
				
				
			
				
				
				
				
				
				
			
				
				
				
				
				
				
			
				
				
				
				
				
				
			
				
				
				
				
				
				
			
				
				
				
				
				
				
		
			
			
			</g>
			
			
			
	
		
		
		</g>
		
		
		

	
	
	</g>
	
	
	



</svg>