<?xml version="1.0" encoding="iso-8859-1"?><!-- Generator: Adobe Illustrator 15.0.0, SVG Export Plug-In . SVG Version: 6.00 Build 0)  --><!DOCTYPE svg  PUBLIC '-//W3C//DTD SVG 1.1//EN'  'http://www.w3.org/Graphics/SVG/1.1/DTD/svg11.dtd'><svg enable-background="new 0 0 595.275 637.795" height="637.795px" version="1.1" viewBox="-148.81875 -159.44875 892.9124999999999 956.6924999999999" width="595.275px" x="0px" xml:space="preserve" xmlns="http://www.w3.org/2000/svg" xmlns:xlink="http://www.w3.org/1999/xlink" y="0px">
	
	
	

	
	
	<g id="Hintergrund">
</g>
	
	
	

	
	
	<g display="none" id="Hilfslinien">
</g>
	
	
	

	
	
	<g id="Vordergrund">
		
		
		
	
		
		
		<g>
			
			
			
		
			
			
			<g>
				
				
				
			
				
				
				
				
				
				
			
				
				
				
				
				
				
			
				
				
				
				
				
				
			
				
				
				
				
				
				
			
				
				
				
				
				
				
			
				
				
				
				
				
				
			
				
				
				
				
				
				
			
				
				
				
				
				
				
			
				
				
				<path animation_id="8" d="M466.104,272.392c0,1.533-0.766,1.752-2.079,1.971l-9.194,1.859c-0.328,0.11-1.313,0.329-1.86,0.329     s-0.765-0.438-0.765-2.299v-55.485c0-15.432-2.08-14.557-2.08-17.073c0-0.547,0.438-0.985,1.204-1.204l8.317-2.735     c0.657-0.218,1.204-0.328,1.642-0.328c1.423,0,2.188,2.079,3.393,5.69c2.408-2.298,6.677-5.69,14.008-5.69     c12.148,0,18.934,9.521,18.934,27.907c0,19.152-5.911,29.877-20.138,29.877c-6.347,0-9.083-1.641-11.381-2.846V272.392z      M466.104,242.187c1.97,1.094,3.72,2.079,7.989,2.079c7.66,0,9.63-5.472,9.63-18.386c0-11.272-2.079-17.51-8.864-17.51     c-4.596,0-7.224,2.734-8.755,4.158V242.187z" fill="#9D9D9C" stroke="black"/>
				
				
				
			
				
				
				
				
				
				
			
				
				
				
				
				
				
		
			
			
			</g>
			
			
			
		
			
			
			<g>
				
				
				
			
				
				
				
				
				
				
				
			
				
				
				
				
				
				
				
		
			
			
			</g>
			
			
			
	
		
		
		</g>
		
		
		

	
	
	</g>
	
	
	



</svg>