<?xml version="1.0" encoding="iso-8859-1"?><!-- Generator: Adobe Illustrator 15.0.0, SVG Export Plug-In . SVG Version: 6.00 Build 0)  --><!DOCTYPE svg  PUBLIC '-//W3C//DTD SVG 1.1//EN'  'http://www.w3.org/Graphics/SVG/1.1/DTD/svg11.dtd'><svg enable-background="new 0 0 595.275 595.275" height="595.275px" version="1.1" viewBox="-148.81875 -148.81875 892.9124999999999 892.9124999999999" width="595.275px" x="0px" xml:space="preserve" xmlns="http://www.w3.org/2000/svg" xmlns:xlink="http://www.w3.org/1999/xlink" y="0px">
	
	
	

	
	
	<g id="Hintergrund">
</g>
	
	
	

	
	
	<g display="none" id="Hilfslinien">
</g>
	
	
	

	
	
	<g id="Vordergrund">
		
		
		
	
		
		
		<g>
			
			
			
		
			
			
			<g>
				
				
				
			
				
				
				<g>
					
					
					
				
					
					
					
					
					
					
				
					
					
					
					
					
					
				
					
					
					
					
					
					
				
					
					
					
					
					
					
				
					
					
					
					
					
					
			
				
				
				</g>
				
				
				
			
				
				
				<g>
					
					
					
				
					
					
					
					
					
					
				
					
					
					
					
					
					
				
					
					
					
					
					
					
				
					
					
					
					
					
					
				
					
					
					
					
					
					
				
					
					
					
					
					
					
				
					
					
					
					
					
					
				
					
					
					<path animation_id="12" d="M266.531,553.273c0.166-0.827,0.413-0.827,0.62-0.827c0.247,0,0.454,0.042,0.62,0.083l3.099,0.619      c0.33,0.084,0.785,0.165,0.785,0.414c0,0.206-0.124,0.619-0.207,0.908l-6.033,26.28c-0.165,0.578-0.288,0.744-0.909,0.744      h-3.554c-0.744,0-0.785-0.125-0.907-0.744l-2.728-13.885c-0.373-1.858-0.744-4.421-0.951-7.148h-0.083      c-0.207,2.77-0.577,5.248-1.033,7.148l-3.346,13.885c-0.166,0.619-0.166,0.744-0.91,0.744h-3.554      c-0.619,0-0.785-0.166-0.908-0.744l-5.373-26.32c-0.041-0.289-0.165-0.662-0.165-0.91c0-0.247,0.455-0.33,0.785-0.413      l3.223-0.578c0.166-0.041,0.373-0.083,0.62-0.083c0.207,0,0.455,0,0.62,0.827l2.48,13.388c0.412,2.272,0.744,5.7,0.907,7.809      h0.083c0.248-2.355,0.827-5.702,1.321-7.809l2.934-12.604c0.208-0.867,0.25-1.239,1.241-1.239h2.809      c0.663,0,0.704,0.372,0.91,1.239l2.934,12.604c0.496,2.106,0.907,5.453,1.157,7.809h0.082c0.165-2.108,0.538-5.536,0.951-7.809      L266.531,553.273z" stroke="black"/>
					
					
					
				
					
					
					
					
					
					
				
					
					
					
					
					
					
				
					
					
					
					
					
					
				
					
					
					
					
					
					
				
					
					
					
					
					
					
				
					
					
					
					
					
					
				
					
					
					
					
					
					
				
					
					
					
					
					
					
				
					
					
					
					
					
					
				
					
					
					
					
					
					
				
					
					
					
					
					
					
			
				
				
				</g>
				
				
				
		
			
			
			</g>
			
			
			
		
			
			
			
			
			
			
			
		
			
			
			
			
			
			
			
		
			
			
			<g>
				
				
				
			
				
				
				
				
				
				
				
			
				
				
				
				
				
				
				
		
			
			
			</g>
			
			
			
		
			
			
			
			
			
			
			
		
			
			
			
			
			
			
			
	
		
		
		</g>
		
		
		

	
	
	</g>
	
	
	



</svg>