<?xml version="1.0" encoding="iso-8859-1"?><!-- Generator: Adobe Illustrator 15.0.0, SVG Export Plug-In . SVG Version: 6.00 Build 0)  --><!DOCTYPE svg  PUBLIC '-//W3C//DTD SVG 1.1//EN'  'http://www.w3.org/Graphics/SVG/1.1/DTD/svg11.dtd'><svg enable-background="new 0 0 595.275 595.275" height="595.275px" version="1.1" viewBox="-148.81875 -148.81875 892.9124999999999 892.9124999999999" width="595.275px" x="0px" xml:space="preserve" xmlns="http://www.w3.org/2000/svg" xmlns:xlink="http://www.w3.org/1999/xlink" y="0px">
	
	
	

	
	
	<g id="Hintergrund">
</g>
	
	
	

	
	
	<g display="none" id="Hilfslinien">
</g>
	
	
	

	
	
	<g id="Vordergrund">
		
		
		
	
		
		
		<g>
			
			
			
		
			
			
			<g>
				
				
				
			
				
				
				<g>
					
					
					
				
					
					
					
					
					
					
				
					
					
					<path animation_id="1" d="M211.202,522.945c0,3.111-0.519,3.629-3.457,3.629h-56.853c-2.937,0-3.629-0.518-3.629-3.629V411.832      c0-3.111,0.692-3.63,3.629-3.63h56.681c3.455,0,4.318,0.347,4.318,1.901c0,0.864-0.172,1.21-0.517,2.42l-3.284,11.578      c-0.692,2.592-2.593,2.765-3.975,2.765h-33.523v28.512h29.375c3.111,0,3.629,0.52,3.629,3.629v11.405      c0,3.111-0.69,3.629-3.629,3.629h-29.375v33.87h36.98c3.11,0,3.628,0.519,3.628,3.629V522.945z" stroke="black"/>
					
					
					
				
					
					
					
					
					
					
				
					
					
					
					
					
					
				
					
					
					
					
					
					
			
				
				
				</g>
				
				
				
			
				
				
				<g>
					
					
					
				
					
					
					
					
					
					
				
					
					
					
					
					
					
				
					
					
					
					
					
					
				
					
					
					
					
					
					
				
					
					
					
					
					
					
				
					
					
					
					
					
					
				
					
					
					
					
					
					
				
					
					
					
					
					
					
				
					
					
					
					
					
					
				
					
					
					
					
					
					
				
					
					
					
					
					
					
				
					
					
					
					
					
					
				
					
					
					
					
					
					
				
					
					
					
					
					
					
				
					
					
					
					
					
					
				
					
					
					
					
					
					
				
					
					
					
					
					
					
				
					
					
					
					
					
					
				
					
					
					
					
					
					
			
				
				
				</g>
				
				
				
		
			
			
			</g>
			
			
			
		
			
			
			
			
			
			
			
		
			
			
			
			
			
			
			
		
			
			
			<g>
				
				
				
			
				
				
				
				
				
				
				
			
				
				
				
				
				
				
				
		
			
			
			</g>
			
			
			
		
			
			
			
			
			
			
			
		
			
			
			
			
			
			
			
	
		
		
		</g>
		
		
		

	
	
	</g>
	
	
	



</svg>