<?xml version="1.0" encoding="iso-8859-1"?><!-- Generator: Adobe Illustrator 15.0.0, SVG Export Plug-In . SVG Version: 6.00 Build 0)  --><!DOCTYPE svg  PUBLIC '-//W3C//DTD SVG 1.1//EN'  'http://www.w3.org/Graphics/SVG/1.1/DTD/svg11.dtd'><svg enable-background="new 0 0 595.275 138.897" height="138.897px" version="1.1" viewBox="-148.81875 -34.72425 892.9124999999999 208.3455" width="595.275px" x="0px" xml:space="preserve" xmlns="http://www.w3.org/2000/svg" xmlns:xlink="http://www.w3.org/1999/xlink" y="0px">
	
	
	

	
	
	<g id="Hintergrund">
</g>
	
	
	

	
	
	<g display="none" id="Hilfslinien">
</g>
	
	
	

	
	
	<g id="Vordergrund">
		
		
		
	
		
		
		<g>
			
			
			
		
			
			
			
			
			
			
		
			
			
			
			
			
			
		
			
			
			<path animation_id="2" clip-rule="evenodd" d="M179.939,28l22.257,88.762c0.8,3.599,2.267,7.198,5.998,7.198    c2.932,0,4.398-2.799,5.73-7.464l18.659-66.105c0.267-1.065,1.199-2.133,2.266-2.133c0.933,0,1.599,1.333,1.865,2.399    l19.858,66.104c1.067,3.466,2.533,7.997,5.598,7.997c3.732,0,5.064-4.531,6.132-8.263l25.588-94.627    c0.401-1.732,0.401-4.531-2.131-4.531c-1.6,0-2.399,1.732-2.932,3.466L269.37,78.512c-0.4,1.333-1.467,2.933-2.932,2.933    c-1.6,0-2.933-1.733-3.465-3.731l-16.527-57.442c-0.533-2.266-2.399-6.132-7.064-6.132c-3.998,0-5.997,4.398-6.53,6.132    l-15.06,58.641c-0.399,1.333-2.266,3.732-4.398,3.732c-2.133,0-3.465-2.532-3.998-4.531L195.8,24.935    c-1.065-4.664-3.864-7.463-7.997-7.463C181.54,17.472,178.741,23.069,179.939,28z" fill="#225CAC" fill-rule="evenodd" stroke="black"/>
			
			
			
		
			
			
			
			
			
			
		
			
			
			
			
			
			
		
			
			
			
			
			
			
		
			
			
			
			
			
			
	
		
		
		</g>
		
		
		

	
	
	</g>
	
	
	



</svg>