<?xml version="1.0" encoding="iso-8859-1"?><!-- Generator: Adobe Illustrator 15.0.0, SVG Export Plug-In . SVG Version: 6.00 Build 0)  --><!DOCTYPE svg  PUBLIC '-//W3C//DTD SVG 1.1//EN'  'http://www.w3.org/Graphics/SVG/1.1/DTD/svg11.dtd'><svg enable-background="new 0 0 595.275 141.732" height="141.732px" version="1.1" viewBox="-148.81875 -35.433 892.9124999999999 212.598" width="595.275px" x="0px" xml:space="preserve" xmlns="http://www.w3.org/2000/svg" xmlns:xlink="http://www.w3.org/1999/xlink" y="0px">
	
	
	

	
	
	<g id="Hintergrund">
</g>
	
	
	

	
	
	<g display="none" id="Hilfslinien">
</g>
	
	
	

	
	
	<g id="Vordergrund">
		
		
		
	
		
		
		<g>
			
			
			
		
			
			
			
			
			
			
			
		
			
			
			
			
			
			
			
		
			
			
			
			
			
			
			
	
		
		
		</g>
		
		
		
	
		
		
		
		
		
		
	
		
		
		
		
		
		
		
	
		
		
		
		
		
		
	
		
		
		
		
		
		
	
		
		
		
		
		
		
	
		
		
		<path animation_id="4" clip-rule="evenodd" d="M394.992,52.008c-5.535,0-8.54,2.613-11.454,6.982l-0.299,0.232   l0.19-6.635c-2.06,0-3.949,0-6.119,0c-2.441,0.073-4.111,0.273-6.149,0.638l-0.003,3.772c2.145,0.107,4.054,0.241,6.253,0.817   v48.389c2.228,0,4.321,0,6.508,0l-0.017-17.515l0.289-0.09c5.194,0.62,12.782,0.224,17.132-2.98   C411.737,77.946,411.48,52.007,394.992,52.008z M394.06,83.074c-2.501,0.834-7.72,0.767-10.142-0.319   c-0.044-3.867,0-7.699-0.038-11.629c-0.024-2.567,0.451-5.154,1.614-7.48c1.792-3.584,8.649-9.364,12.663-4.748   C403.638,65.201,402.946,80.112,394.06,83.074z" fill="#9D9D9C" fill-rule="evenodd" stroke="black"/>
		
		
		
	
		
		
		
		
		
		
	
		
		
		
		
		
		
	
		
		
		
		
		
		
	
		
		
		
		
		
		
	
		
		
		
		
		
		
	
		
		
		
		
		
		

	
	
	</g>
	
	
	



</svg>