<?xml version="1.0" encoding="iso-8859-1"?><!-- Generator: Adobe Illustrator 15.0.0, SVG Export Plug-In . SVG Version: 6.00 Build 0)  --><!DOCTYPE svg  PUBLIC '-//W3C//DTD SVG 1.1//EN'  'http://www.w3.org/Graphics/SVG/1.1/DTD/svg11.dtd'><svg enable-background="new 0 0 595.276 260.787" height="260.787px" id="Ebene_1" version="1.1" viewBox="-148.819 -65.19675 892.914 391.18049999999994" width="595.276px" x="0px" xml:space="preserve" xmlns="http://www.w3.org/2000/svg" xmlns:xlink="http://www.w3.org/1999/xlink" y="0px">
	
	
	

	
	
	<g>
		
		
		
	
		
		
		<g>
			
			
			
		
			
			
			
			
			
			
		
			
			
			
			
			
			
		
			
			
			
			
			
			
		
			
			
			
			
			
			
		
			
			
			
			
			
			
		
			
			
			
			
			
			
		
			
			
			
			
			
			
		
			
			
			
			
			
			
		
			
			
			<g>
				
				
				
			
				
				
				
				
				
				
			
				
				
				
				
				
				
			
				
				
				<path animation_id="2" d="M327.07,116.199c-5.848,1.99-16.92,4.729-27.993,4.729c-15.304,0-26.377-3.857-34.091-11.197     c-7.59-7.342-11.82-18.291-11.82-30.607c0.125-27.869,20.405-43.795,47.9-43.795c10.825,0,19.162,2.115,23.267,3.98l-3.98,15.305     c-4.604-2.115-10.202-3.609-19.41-3.609c-15.801,0-27.869,8.834-27.869,27.123c0,17.42,10.949,27.498,26.502,27.498     c4.229,0,7.713-0.498,9.206-1.121V86.838h-12.939V72.031h31.229V116.199z" fill="#1B3E90" stroke="black"/>
				
				
				
			
				
				
				
				
				
				
			
				
				
				
				
				
				
		
			
			
			</g>
			
			
			
	
		
		
		</g>
		
		
		

	
	
	</g>
	
	
	



</svg>