<?xml version="1.0" encoding="iso-8859-1"?><!-- Generator: Adobe Illustrator 15.0.0, SVG Export Plug-In . SVG Version: 6.00 Build 0)  --><!DOCTYPE svg  PUBLIC '-//W3C//DTD SVG 1.1//EN'  'http://www.w3.org/Graphics/SVG/1.1/DTD/svg11.dtd'><svg enable-background="new 0 0 595.275 204.095" height="204.095px" version="1.1" viewBox="-148.81875 -51.02375 892.9124999999999 306.1425" width="595.275px" x="0px" xml:space="preserve" xmlns="http://www.w3.org/2000/svg" xmlns:xlink="http://www.w3.org/1999/xlink" y="0px">
	
	
	

	
	
	<g id="Hintergrund">
</g>
	
	
	

	
	
	<g display="none" id="Hilfslinien">
</g>
	
	
	

	
	
	<g id="Vordergrund">
		
		
		
	
		
		
		<g>
			
			
			
		
			
			
			
			
			
			
		
			
			
			
			
			
			
		
			
			
			
			
			
			
		
			
			
			
			
			
			
		
			
			
			
			
			
			
		
			
			
			<g>
				
				
				
			
				
				
				
				
				
				
			
				
				
				
				
				
				
		
			
			
			</g>
			
			
			
		
			
			
			<path animation_id="2" clip-rule="evenodd" d="M421.116,20.722c0.906,0.721,1.211,1.004,1.741,1.496l1.307,1.27    c1.269,1.361,2.385,2.764,3.617,4.732c1.183,1.895,2.303,4.416,2.989,6.59c0.32,1.02,1.152,4.068,1.324,6.738    c0.094,1.286,0.058,1.002,0.109,2.041v143.505h-21.92V43.589c0-4.093-3.216-7.309-7.307-7.309c-4.093,0-7.306,3.216-7.306,7.309    v143.505H373.75V43.589c0-16.368,12.586-29.287,29.228-29.229C410.229,14.386,416.286,16.767,421.116,20.722z" fill="#225CAC" fill-rule="evenodd" stroke="black"/>
			
			
			
		
			
			
			
			
			
			
	
		
		
		</g>
		
		
		

	
	
	</g>
	
	
	



</svg>