<?xml version="1.0" encoding="iso-8859-1"?><!-- Generator: Adobe Illustrator 15.0.0, SVG Export Plug-In . SVG Version: 6.00 Build 0)  --><!DOCTYPE svg  PUBLIC '-//W3C//DTD SVG 1.1//EN'  'http://www.w3.org/Graphics/SVG/1.1/DTD/svg11.dtd'><svg enable-background="new 0 0 595.275 215.433" height="215.433px" version="1.1" viewBox="-148.81875 -53.85825 892.9124999999999 323.1495" width="595.275px" x="0px" xml:space="preserve" xmlns="http://www.w3.org/2000/svg" xmlns:xlink="http://www.w3.org/1999/xlink" y="0px">
	
	
	

	
	
	<g id="Hintergrund">
</g>
	
	
	

	
	
	<g display="none" id="Hilfslinien">
</g>
	
	
	

	
	
	<g id="Vordergrund">
		
		
		
	
		
		
		<g>
			
			
			
		
			
			
			<g>
				
				
				
			
				
				
				
				<polygon animation_id="11" clip-rule="evenodd" fill="#164194" fill-rule="evenodd" points="     260.97,21.345 262.445,19.701 264.004,18.304 265.51,17.483 266.328,17.4 267.887,16.632 270.705,15.235 272.017,14.495      274.477,14.084 276.855,14.002 279.262,14.167 281.887,14.825 285.442,15.728 288.393,16.796 289.816,17.729 290.473,18.551      291.128,19.126 291.867,19.536 292.933,20.276 293.753,21.263 294.654,22.659 295.393,24.251 296.16,26.715 296.816,28.03      297.8,29.757 298.374,31.265 298.456,32.743 298.374,34.223 297.719,35.126 297.391,35.948 297.308,37.786 297.391,39.511      297.226,41.976 296.406,44.224 295.639,45.128 294.654,46.032 293.342,47.511 292.195,48.937 289.57,50.663 286.508,51.32      284.294,51.896 281.558,53.128 280.902,53.292 277.786,54.36 275.624,54.36 273.984,54.114 271.936,53.292 270.265,52.718      268.79,52.389 267.724,51.731 266.166,50.171 264.525,49.595 263.594,49.02 262.61,48.004 262.118,47.1 261.626,45.95      261.134,45.046 260.478,44.307 259.986,43.648 259.658,43.073 259.412,42.47 258.509,41.483 258.071,40.825 257.988,40.086      258.071,39.429 257.825,38.771 257.579,37.703 257.579,36.554 257.825,35.455 257.825,33.812 257.66,32.825 257.414,31.593      257.333,30.442 257.333,28.934 257.66,27.373 258.263,26.14 258.92,25.071 259.658,23.317 259.903,22.495 260.396,21.839    " stroke="black" stroke-miterlimit="3.8637" stroke-width="0"/>
				
				
				
			
				
				
				
				
				
				
				
			
				
				
				
				
				
				
				
		
			
			
			</g>
			
			
			
		
			
			
			<g>
				
				
				
			
				
				
				
				
				
				
			
				
				
				
				
				
				
			
				
				
				
				
				
				
			
				
				
				
				
				
				
			
				
				
				
				
				
				
		
			
			
			</g>
			
			
			
		
			
			
			<g>
				
				
				
			
				
				
				
				
				
				
			
				
				
				
				
				
				
			
				
				
				
				
				
				
			
				
				
				
				
				
				
			
				
				
				
				
				
				
			
				
				
				
				
				
				
		
			
			
			</g>
			
			
			
	
		
		
		</g>
		
		
		

	
	
	</g>
	
	
	



</svg>