<?xml version="1.0" encoding="iso-8859-1"?><!-- Generator: Adobe Illustrator 15.0.0, SVG Export Plug-In . SVG Version: 6.00 Build 0)  --><!DOCTYPE svg  PUBLIC '-//W3C//DTD SVG 1.1//EN'  'http://www.w3.org/Graphics/SVG/1.1/DTD/svg11.dtd'><svg enable-background="new 0 0 595.275 340.157" height="340.157px" version="1.1" viewBox="-148.81875 -85.03925 892.9124999999999 510.2355" width="595.275px" x="0px" xml:space="preserve" xmlns="http://www.w3.org/2000/svg" xmlns:xlink="http://www.w3.org/1999/xlink" y="0px">
	
	
	

	
	
	<g id="Hintergrund">
</g>
	
	
	

	
	
	<g display="none" id="Hilfslinien">
</g>
	
	
	

	
	
	<g id="Vordergrund">
		
		
		
	
		
		
		<g>
			
			
			
		
			
			
			
			
			
			
			
		
			
			
			
			
			
			
			
		
			
			
			<g>
				
				
				
			
				
				
				
				
				
				
			
				
				
				
				
				
				
			
				
				
				
				
				
				
			
				
				
				
				
				
				
			
				
				
				
				
				
				
			
				
				
				
				
				
				
			
				
				
				
				
				
				
			
				
				
				
				
				
				
			
				
				
				<path animation_id="8" d="M456.371,321.5c0,1.238-0.618,1.414-1.679,1.591l-7.429,1.504c-0.265,0.088-1.061,0.266-1.504,0.266     c-0.441,0-0.617-0.354-0.617-1.857v-44.83c0-12.469-1.682-11.761-1.682-13.795c0-0.441,0.354-0.795,0.975-0.973l6.719-2.211     c0.531-0.176,0.975-0.264,1.326-0.264c1.149,0,1.769,1.68,2.741,4.597c1.946-1.856,5.394-4.597,11.318-4.597     c9.815,0,15.298,7.692,15.298,22.547c0,15.475-4.774,24.141-16.271,24.141c-5.128,0-7.34-1.326-9.196-2.299V321.5z      M456.371,297.095c1.592,0.885,3.008,1.68,6.456,1.68c6.188,0,7.78-4.42,7.78-14.854c0-9.108-1.679-14.147-7.161-14.147     c-3.715,0-5.836,2.21-7.075,3.359V297.095z" fill="#9D9D9C" stroke="black"/>
				
				
				
			
				
				
				
				
				
				
			
				
				
				
				
				
				
		
			
			
			</g>
			
			
			
	
		
		
		</g>
		
		
		

	
	
	</g>
	
	
	



</svg>