<?xml version="1.0" encoding="iso-8859-1"?><!-- Generator: Adobe Illustrator 15.0.0, SVG Export Plug-In . SVG Version: 6.00 Build 0)  --><!DOCTYPE svg  PUBLIC '-//W3C//DTD SVG 1.1//EN'  'http://www.w3.org/Graphics/SVG/1.1/DTD/svg11.dtd'><svg enable-background="new 0 0 595.275 215.433" height="215.433px" version="1.1" viewBox="-148.81875 -53.85825 892.9124999999999 323.1495" width="595.275px" x="0px" xml:space="preserve" xmlns="http://www.w3.org/2000/svg" xmlns:xlink="http://www.w3.org/1999/xlink" y="0px">
	
	
	

	
	
	<g id="Hintergrund">
</g>
	
	
	

	
	
	<g display="none" id="Hilfslinien">
</g>
	
	
	

	
	
	<g id="Vordergrund">
		
		
		
	
		
		
		<g>
			
			
			
		
			
			
			<g>
				
				
				
			
				
				
				
				
				
				
				
			
				
				
				
				
				
				
				
			
				
				
				
				
				
				
				
		
			
			
			</g>
			
			
			
		
			
			
			<g>
				
				
				
			
				
				
				
				
				
				
			
				
				
				
				
				
				
			
				
				
				
				
				
				
			
				
				
				
				
				
				
			
				
				
				
				
				
				
		
			
			
			</g>
			
			
			
		
			
			
			<g>
				
				
				
			
				
				
				
				
				
				
			
				
				
				
				
				
				
			
				
				
				
				
				
				
			
				
				
				<path animation_id="8" d="M486.497,101.105c0.409,1.471,0.654,2.614,0.735,3.923c1.88-2.288,6.048-3.923,10.298-3.923     c2.942,0,5.965,0.98,8.254,2.532c4.495,3.024,7.764,8.418,7.764,18.062c0,8.988-1.472,13.565-5.802,18.224     c-2.86,3.022-6.621,4.739-11.197,4.739c-3.269,0-6.373-0.816-8.744-2.205c0.164,0.979,0.164,2.205,0.164,3.432v13.075     l-10.542,2.778v-48.38c0-5.476-0.083-7.028-0.654-10.542L486.497,101.105z M494.097,136.001c5.396,0,7.52-3.678,7.52-13.238     c0-4.006-0.328-7.192-1.062-9.236c-0.817-2.287-2.534-3.514-5.23-3.514c-2.697,0-5.312,1.145-7.272,3.188v20.349     C489.521,134.775,491.891,136.001,494.097,136.001z" fill="#9D9D9C" stroke="black"/>
				
				
				
			
				
				
				
				
				
				
			
				
				
				
				
				
				
		
			
			
			</g>
			
			
			
	
		
		
		</g>
		
		
		

	
	
	</g>
	
	
	



</svg>