<?xml version="1.0" encoding="iso-8859-1"?><!-- Generator: Adobe Illustrator 15.0.0, SVG Export Plug-In . SVG Version: 6.00 Build 0)  --><!DOCTYPE svg  PUBLIC '-//W3C//DTD SVG 1.1//EN'  'http://www.w3.org/Graphics/SVG/1.1/DTD/svg11.dtd'><svg enable-background="new 0 0 595.275 147.402" height="147.402px" version="1.1" viewBox="-148.81875 -36.8505 892.9124999999999 221.10299999999998" width="595.275px" x="0px" xml:space="preserve" xmlns="http://www.w3.org/2000/svg" xmlns:xlink="http://www.w3.org/1999/xlink" y="0px">
	
	
	

	
	
	<g id="Hintergrund">
</g>
	
	
	

	
	
	<g display="none" id="Hilfslinien">
</g>
	
	
	

	
	
	<g id="Vordergrund">
		
		
		
	
		
		
		<g>
			
			
			
		
			
			
			<g>
				
				
				
			
				
				
				
				
				
				
			
				
				
				
				
				
				
			
				
				
				
				
				
				
			
				
				
				
				
				
				
			
				
				
				
				
				
				
		
			
			
			</g>
			
			
			
		
			
			
			<g>
				
				
				
			
				
				
				
				
				
				
			
				
				
				
				
				
				
			
				
				
				
				
				
				
		
			
			
			</g>
			
			
			
		
			
			
			<g>
				
				
				
			
				
				
				
				
				
				
			
				
				
				
				
				
				
			
				
				
				
				
				
				
			
				
				
				
				
				
				
			
				
				
				
				
				
				
			
				
				
				<path animation_id="10" d="M580.551,87.711c-4.468,3.635-9.164,5.377-14.616,5.377c-11.134,0-18.329-7.877-18.329-20.07     c0-6.968,1.438-11.587,4.847-15.374c3.182-3.56,7.045-5.226,12.194-5.226c4.468,0,8.709,1.515,11.21,4.09     c3.559,3.635,5.149,8.861,5.149,16.965c0,0.833,0,1.666,0,2.348h-22.418v0.303c0,5.982,2.953,9.391,8.178,9.391     c3.484,0,6.742-1.287,9.846-3.861L580.551,87.711z M570.479,68.398v-0.455c0-2.878-0.303-4.393-1.212-5.831     c-0.983-1.515-2.425-2.272-4.468-2.272c-3.863,0-6.06,3.029-6.06,8.406v0.152H570.479z" fill="#9D9D9C" stroke="black"/>
				
				
				
		
			
			
			</g>
			
			
			
	
		
		
		</g>
		
		
		

	
	
	</g>
	
	
	



</svg>