<?xml version="1.0" encoding="iso-8859-1"?><!-- Generator: Adobe Illustrator 15.0.0, SVG Export Plug-In . SVG Version: 6.00 Build 0)  --><!DOCTYPE svg  PUBLIC '-//W3C//DTD SVG 1.1//EN'  'http://www.w3.org/Graphics/SVG/1.1/DTD/svg11.dtd'><svg enable-background="new 0 0 595.275 320.315" height="320.315px" version="1.1" viewBox="-148.81875 -80.07875 892.9124999999999 480.47249999999997" width="595.275px" x="0px" xml:space="preserve" xmlns="http://www.w3.org/2000/svg" xmlns:xlink="http://www.w3.org/1999/xlink" y="0px">
	
	
	

	
	
	<g id="Hintergrund">
</g>
	
	
	

	
	
	<g display="none" id="Hilfslinien">
</g>
	
	
	

	
	
	<g id="Vordergrund">
		
		
		
	
		
		
		<g>
			
			
			
		
			
			
			<g>
				
				
				
			
				
				
				
				
				
				
			
				
				
				
				
				
				
			
				
				
				
				
				
				
			
				
				
				
				
				
				
			
				
				
				
				
				
				
			
				
				
				
				
				
				
			
				
				
				
				
				
				
			
				
				
				
				
				
				
			
				
				
				
				
				
				
			
				
				
				
				
				
				
			
				
				
				
				
				
				
		
			
			
			</g>
			
			
			
		
			
			
			<g>
				
				
				
			
				
				
				
				<polygon animation_id="12" clip-rule="evenodd" fill="#9D9D9C" fill-rule="evenodd" points="     580.771,105.702 559.808,99.013 542.411,89.841 512.652,73.192 498.994,67.011 482.145,60.282 459.313,54.101 441.919,49.614      434.987,46.626 429.666,43.11 404.457,34.331 372.59,29.22 351.344,25.229 324.552,22.835 312.344,19.32 297.437,18.522      272.932,17.612 243.374,14.589 218.099,19.854 197.713,23.795 165.709,29.774 119.302,41.19 101.704,51.11 91.037,55.596      71.197,80.87 62.973,89.841 43.133,122.592 33.96,130.269 14.505,137.954 76.722,126.327 100.867,118.197 118.284,110.491      135.745,103.55 164.83,90.302 190.24,82.506 211.78,76.206 234.61,72.958 258.087,70.36 272.185,71.697 285.096,72.444      303.44,75.436 317.099,79.376 332.999,82.366 365.749,86.103 384.095,89.841 419.089,93.781 434.987,99.013 455.575,103.701      488.326,110.429 515.643,112.671 543.906,114.368 556.07,117.358 565.99,120.349    " stroke="black" stroke-miterlimit="3.8637" stroke-width="0"/>
				
				
				
			
				
				
				
				
				
				
				
		
			
			
			</g>
			
			
			
	
		
		
		</g>
		
		
		

	
	
	</g>
	
	
	



</svg>