<?xml version="1.0" encoding="iso-8859-1"?><!-- Generator: Adobe Illustrator 15.0.0, SVG Export Plug-In . SVG Version: 6.00 Build 0)  --><!DOCTYPE svg  PUBLIC '-//W3C//DTD SVG 1.1//EN'  'http://www.w3.org/Graphics/SVG/1.1/DTD/svg11.dtd'><svg enable-background="new 0 0 595.275 204.095" height="204.095px" version="1.1" viewBox="-148.81875 -51.02375 892.9124999999999 306.1425" width="595.275px" x="0px" xml:space="preserve" xmlns="http://www.w3.org/2000/svg" xmlns:xlink="http://www.w3.org/1999/xlink" y="0px">
	
	
	

	
	
	<g id="Hintergrund">
</g>
	
	
	

	
	
	<g display="none" id="Hilfslinien">
</g>
	
	
	

	
	
	<g id="Vordergrund">
		
		
		
	
		
		
		<g>
			
			
			
		
			
			
			
			
			
			
		
			
			
			
			
			
			
		
			
			
			
			
			
			
		
			
			
			
			
			
			
		
			
			
			<path animation_id="1" clip-rule="evenodd" d="M61.278,20.722c0.909,0.721,1.212,1.004,1.742,1.496l1.306,1.27    c1.269,1.361,2.385,2.764,3.616,4.732c1.186,1.895,2.304,4.416,2.989,6.59c0.323,1.02,1.155,4.068,1.326,6.738    c0.094,1.286,0.057,1.002,0.111,2.041v143.505H50.447V43.589c0-4.093-3.216-7.309-7.306-7.309c-4.094,0-7.308,3.216-7.308,7.309    v143.505H13.912V43.589c0-16.368,12.586-29.287,29.229-29.229C50.39,14.386,56.449,16.767,61.278,20.722z" fill="#225CAC" fill-rule="evenodd" stroke="black"/>
			
			
			
		
			
			
			<g>
				
				
				
			
				
				
				
				
				
				
			
				
				
				
				
				
				
		
			
			
			</g>
			
			
			
		
			
			
			
			
			
			
		
			
			
			
			
			
			
	
		
		
		</g>
		
		
		

	
	
	</g>
	
	
	



</svg>