<?xml version="1.0" encoding="iso-8859-1"?><!-- Generator: Adobe Illustrator 15.0.0, SVG Export Plug-In . SVG Version: 6.00 Build 0)  --><!DOCTYPE svg  PUBLIC '-//W3C//DTD SVG 1.1//EN'  'http://www.w3.org/Graphics/SVG/1.1/DTD/svg11.dtd'><svg enable-background="new 0 0 595.275 119.055" height="119.055px" version="1.1" viewBox="-148.81875 -29.76375 892.9124999999999 178.5825" width="595.275px" x="0px" xml:space="preserve" xmlns="http://www.w3.org/2000/svg" xmlns:xlink="http://www.w3.org/1999/xlink" y="0px">
	
	
	

	
	
	<g id="Hintergrund">
</g>
	
	
	

	
	
	<g display="none" id="Hilfslinien">
</g>
	
	
	

	
	
	<g id="Vordergrund">
		
		
		
	
		
		
		<g>
			
			
			
		
			
			
			
			
			
			
		
			
			
			<path animation_id="1" d="M117.237,28.354c0-7.498-1.841-9.997-13.284-11.575v-2.236h62.084l0.659,16.048h-4.078    c-1.315-6.84-1.185-10.918-12.102-10.918h-13.812c-7.497,0-8.024,1.578-8.024,8.682v25.913h16.705    c10.918,0,11.839-4.735,12.892-10.918h3.025v27.229h-3.025c-1.317-7.629-1.711-11.181-12.892-11.181h-16.705v30.911    c0,7.629,1.185,7.629,10.786,7.629h14.207c8.945,0,9.602-2.762,11.444-12.759h4.077l-0.921,17.889h-51.037V28.354z" fill="#225CAC" stroke="black"/>
			
			
			
		
			
			
			
			
			
			
		
			
			
			
			
			
			
		
			
			
			
			
			
			
		
			
			
			
			
			
			
		
			
			
			
			
			
			
	
		
		
		</g>
		
		
		

	
	
	</g>
	
	
	



</svg>