<?xml version="1.0" encoding="iso-8859-1"?><!-- Generator: Adobe Illustrator 15.0.0, SVG Export Plug-In . SVG Version: 6.00 Build 0)  --><!DOCTYPE svg  PUBLIC '-//W3C//DTD SVG 1.1//EN'  'http://www.w3.org/Graphics/SVG/1.1/DTD/svg11.dtd'><svg enable-background="new 0 0 595.275 637.795" height="637.795px" version="1.1" viewBox="-148.81875 -159.44875 892.9124999999999 956.6924999999999" width="595.275px" x="0px" xml:space="preserve" xmlns="http://www.w3.org/2000/svg" xmlns:xlink="http://www.w3.org/1999/xlink" y="0px">
	
	
	

	
	
	<g id="Hintergrund">
</g>
	
	
	

	
	
	<g display="none" id="Hilfslinien">
</g>
	
	
	

	
	
	<g id="Vordergrund">
		
		
		
	
		
		
		<g>
			
			
			
		
			
			
			<g>
				
				
				
			
				
				
				
				
				
				
			
				
				
				
				
				
				
			
				
				
				
				
				
				
			
				
				
				<path animation_id="3" d="M207.199,251.817c0,1.203-0.22,1.531-1.531,1.531h-10.836c-1.312,0-1.532-0.328-1.532-1.531v-33.708     c0-4.158-0.438-9.192-4.596-9.192c-4.597,0-8.208,3.174-9.631,4.486v38.414c0,1.203-0.22,1.531-1.532,1.531h-10.836     c-1.312,0-1.531-0.328-1.531-1.531v-33.708c0-4.158-0.438-9.192-4.596-9.192c-4.597,0-8.208,3.174-9.631,4.486v38.414     c0,1.203-0.22,1.531-1.532,1.531h-10.834c-1.314,0-1.534-0.328-1.534-1.531v-33.051c0-15.432-2.079-14.557-2.079-17.073     c0-0.547,0.438-0.985,1.204-1.204l8.318-2.735c0.656-0.218,1.203-0.328,1.641-0.328c1.423,0,2.299,2.407,3.502,7.552     c3.282-2.846,8.098-7.552,16.745-7.552c4.705,0,9.849,2.955,11.163,7.552c3.282-2.846,7.989-7.552,16.963-7.552     c10.286,0,12.694,7.771,12.694,17.292V251.817z" fill="#9D9D9C" stroke="black"/>
				
				
				
			
				
				
				
				
				
				
			
				
				
				
				
				
				
			
				
				
				
				
				
				
			
				
				
				
				
				
				
			
				
				
				
				
				
				
			
				
				
				
				
				
				
			
				
				
				
				
				
				
		
			
			
			</g>
			
			
			
		
			
			
			<g>
				
				
				
			
				
				
				
				
				
				
				
			
				
				
				
				
				
				
				
		
			
			
			</g>
			
			
			
	
		
		
		</g>
		
		
		

	
	
	</g>
	
	
	



</svg>