<?xml version="1.0" encoding="iso-8859-1"?><!-- Generator: Adobe Illustrator 15.0.0, SVG Export Plug-In . SVG Version: 6.00 Build 0)  --><!DOCTYPE svg  PUBLIC '-//W3C//DTD SVG 1.1//EN'  'http://www.w3.org/Graphics/SVG/1.1/DTD/svg11.dtd'><svg enable-background="new 0 0 595.275 184.252" height="184.252px" version="1.1" viewBox="-148.81875 -46.063 892.9124999999999 276.37800000000004" width="595.275px" x="0px" xml:space="preserve" xmlns="http://www.w3.org/2000/svg" xmlns:xlink="http://www.w3.org/1999/xlink" y="0px">
	
	
	

	
	
	<g id="Hintergrund">
</g>
	
	
	

	
	
	<g display="none" id="Hilfslinien">
</g>
	
	
	

	
	
	<g id="Vordergrund">
		
		
		
	
		
		
		<g>
			
			
			
		
			
			
			
			
			
			
		
			
			
			<g>
				
				
				
			
				
				
				
				
				
				
			
				
				
				
				
				
				
			
				
				
				
				
				
				
		
			
			
			</g>
			
			
			
		
			
			
			
			
			
			
		
			
			
			
			
			
			
			
		
			
			
			
			
			
			
		
			
			
			
			
			
			
		
			
			
			
			
			
			
		
			
			
			
			
			
			
		
			
			
			
			
			
			
		
			
			
			
			
			
			
		
			
			
			
			
			
			
		
			
			
			
			
			
			
		
			
			
			
			
			
			
		
			
			
			<path animation_id="12" clip-rule="evenodd" d="M280.365,104.787c2.362-3.807,5.994-6.791,10.588-7.115    c10.215-0.723,11.822,3.316,11.811,13.582c0.038,1.564,0.024,3.169,0.024,4.758c0,6.062,0,12.035,0,18.219h-6.422l-0.016-25.868    c0.016-2.98-1.586-5.347-4.646-5.116c-4.326,0.326-6.701,1.352-9.06,4.858c-0.959,1.425-1.831,3.147-1.831,7.907    c-0.029,6.374-0.003,14.384,0,18.219c-2.143,0-3.766,0-6.43,0c-0.004-2.604,0-10.947,0-18.219c0-5.164,0-6.756,0-7.449    c0-3.555-3.006-5.475-6.212-5.316c-6.648,0.326-9.686,5.186-9.686,12.766c0,8.791,0,11.328,0,18.219h-6.438v-30.658    c-2.246-0.682-4.129-0.852-6.229-0.998v-3.598c2.094-0.348,3.198-0.545,6.229-0.639c2.277,0,3.944,0,5.957,0    c0.072,1.574,0.117,3.188,0.661,4.846c2.406-2.063,4.912-4.288,8.037-5.18C271.816,96.545,279.077,99.07,280.365,104.787z" fill="#9D9D9C" fill-rule="evenodd" stroke="black"/>
			
			
			
	
		
		
		</g>
		
		
		

	
	
	</g>
	
	
	



</svg>