<?xml version="1.0" encoding="iso-8859-1"?><!-- Generator: Adobe Illustrator 15.0.0, SVG Export Plug-In . SVG Version: 6.00 Build 0)  --><!DOCTYPE svg  PUBLIC '-//W3C//DTD SVG 1.1//EN'  'http://www.w3.org/Graphics/SVG/1.1/DTD/svg11.dtd'><svg enable-background="new 0 0 595.275 147.402" height="147.402px" version="1.1" viewBox="-148.81875 -36.8505 892.9124999999999 221.10299999999998" width="595.275px" x="0px" xml:space="preserve" xmlns="http://www.w3.org/2000/svg" xmlns:xlink="http://www.w3.org/1999/xlink" y="0px">
	
	
	

	
	
	<g id="Hintergrund">
</g>
	
	
	

	
	
	<g display="none" id="Hilfslinien">
</g>
	
	
	

	
	
	<g id="Vordergrund">
		
		
		
	
		
		
		<g>
			
			
			
		
			
			
			<g>
				
				
				
			
				
				
				
				
				
				
			
				
				
				
				
				
				
			
				
				
				
				
				
				
			
				
				
				<path animation_id="3" d="M114.614,52.569c0.681,1.061,0.984,1.969,1.363,3.938c2.65-2.575,5.906-3.938,9.467-3.938     c3.181,0,5.832,1.061,7.876,3.181c0.53,0.53,1.062,1.212,1.515,1.894c3.56-3.635,6.74-5.074,10.982-5.074     c3.029,0,5.907,0.909,7.649,2.424c2.195,1.893,2.877,4.165,2.877,9.467v27.567h-9.846V66.429c0-4.62-0.53-5.528-3.181-5.528     c-1.894,0-4.544,1.287-6.74,3.257v27.87h-9.618v-25.22c0-4.847-0.682-5.982-3.484-5.982c-1.893,0-4.468,0.983-6.664,2.953v28.249     h-9.921V64.99c0-5.605-0.379-8.028-1.439-9.922L114.614,52.569z" fill="#9D9D9C" stroke="black"/>
				
				
				
			
				
				
				
				
				
				
		
			
			
			</g>
			
			
			
		
			
			
			<g>
				
				
				
			
				
				
				
				
				
				
			
				
				
				
				
				
				
			
				
				
				
				
				
				
		
			
			
			</g>
			
			
			
		
			
			
			<g>
				
				
				
			
				
				
				
				
				
				
			
				
				
				
				
				
				
			
				
				
				
				
				
				
			
				
				
				
				
				
				
			
				
				
				
				
				
				
			
				
				
				
				
				
				
		
			
			
			</g>
			
			
			
	
		
		
		</g>
		
		
		

	
	
	</g>
	
	
	



</svg>