<?xml version="1.0" encoding="iso-8859-1"?><!-- Generator: Adobe Illustrator 15.0.0, SVG Export Plug-In . SVG Version: 6.00 Build 0)  --><!DOCTYPE svg  PUBLIC '-//W3C//DTD SVG 1.1//EN'  'http://www.w3.org/Graphics/SVG/1.1/DTD/svg11.dtd'><svg enable-background="new 0 0 595.276 189.921" height="189.921px" id="Ebene_1" version="1.1" viewBox="-148.819 -47.48025 892.914 284.88149999999996" width="595.276px" x="0px" xml:space="preserve" xmlns="http://www.w3.org/2000/svg" xmlns:xlink="http://www.w3.org/1999/xlink" y="0px">
	
	
	

	
	
	<g>
		
		
		
	
		
		
		<g>
			
			
			
		
			
			
			
			
			
			
		
			
			
			
			
			
			
		
			
			
			
			
			
			
		
			
			
			
			
			
			
		
			
			
			
			
			
			
		
			
			
			
			
			
			
		
			
			
			
			
			
			
		
			
			
			
			
			
			
		
			
			
			
			
			
			
		
			
			
			<g>
				
				
				
			
				
				
				
				
				
				
			
				
				
				
				
				
				
			
				
				
				
				
				
				
			
				
				
				
				
				
				
			
				
				
				
				
				
				
			
				
				
				
				
				
				
			
				
				
				
				
				
				
			
				
				
				
				
				
				
			
				
				
				
				
				
				
			
				
				
				
				
				
				
			
				
				
				
				
				
				
			
				
				
				
				
				
				
			
				
				
				
				
				
				
			
				
				
				<path animation_id="22" d="M422.876,163.312c3.85,0,4.674-0.817,4.674-5.063V134.84c0-4.245-0.824-5.062-4.674-5.062v-1.36h14.625v1.36     c-3.189,0-3.902,0.817-3.902,5.062v10.889h0.109l9.346-12.031c0.77-0.979,1.814-2.286,1.814-2.939s-1.1-0.98-3.299-0.98v-1.36     h13.359v1.36c-4.068,0-5.828,1.416-8.576,4.9l-7.533,9.581l10.062,14.153c1.539,2.232,4.068,4.9,7.918,4.9v1.36h-15.779v-1.36     c1.703,0,3.078-0.273,3.078-1.361c0-0.708-0.66-1.634-1.596-2.94l-8.795-12.574h-0.109v11.812c0,4.246,0.713,5.063,3.902,5.063     v1.36h-14.625V163.312z" stroke="black"/>
				
				
				
			
				
				
				
				
				
				
			
				
				
				
				
				
				
			
				
				
				
				
				
				
			
				
				
				
				
				
				
		
			
			
			</g>
			
			
			
	
		
		
		</g>
		
		
		

	
	
	</g>
	
	
	



</svg>