<?xml version="1.0" encoding="iso-8859-1"?><!-- Generator: Adobe Illustrator 15.0.0, SVG Export Plug-In . SVG Version: 6.00 Build 0)  --><!DOCTYPE svg  PUBLIC '-//W3C//DTD SVG 1.1//EN'  'http://www.w3.org/Graphics/SVG/1.1/DTD/svg11.dtd'><svg enable-background="new 0 0 595.276 297.638" height="297.638px" id="Ebene_1" version="1.1" viewBox="-148.819 -74.4095 892.914 446.457" width="595.276px" x="0px" xml:space="preserve" xmlns="http://www.w3.org/2000/svg" xmlns:xlink="http://www.w3.org/1999/xlink" y="0px">
	
	
	

	
	
	<g>
		
		
		
	
		
		
		
		
		
		
	
		
		
		<path animation_id="1" d="M273.421,93.985l-5.605,20.202h-18.333l23.938-78.707h23.355l24.523,78.707h-19.269l-6.072-20.202H273.421z    M265.948,23.103c0-4.555,3.504-8.058,8.058-8.058c4.321,0,7.708,3.387,7.708,8.058c0,4.32-3.271,7.94-7.825,7.94   C269.452,31.043,265.948,27.423,265.948,23.103z M293.39,80.673l-4.904-16.699c-1.401-4.671-2.803-10.51-3.971-15.181h-0.233   c-1.168,4.671-2.335,10.626-3.62,15.181l-4.671,16.699H293.39z M290.237,23.103c0-4.555,3.387-8.058,7.942-8.058   c4.438,0,7.823,3.387,7.823,8.058c0,4.32-3.269,7.94-7.94,7.94C293.507,31.043,290.237,27.423,290.237,23.103z" fill="#EE7518" stroke="black"/>
		
		
		
	
		
		
		
		
		
		
	
		
		
		
		
		
		
	
		
		
		
		
		
		

	
	
	</g>
	
	
	

	
	
	
	
	
	

	
	
	
	
	
	



</svg>