<?xml version="1.0" encoding="iso-8859-1"?><!-- Generator: Adobe Illustrator 15.0.0, SVG Export Plug-In . SVG Version: 6.00 Build 0)  --><!DOCTYPE svg  PUBLIC '-//W3C//DTD SVG 1.1//EN'  'http://www.w3.org/Graphics/SVG/1.1/DTD/svg11.dtd'><svg enable-background="new 0 0 595.275 215.433" height="215.433px" version="1.1" viewBox="-148.81875 -53.85825 892.9124999999999 323.1495" width="595.275px" x="0px" xml:space="preserve" xmlns="http://www.w3.org/2000/svg" xmlns:xlink="http://www.w3.org/1999/xlink" y="0px">
	
	
	

	
	
	<g id="Hintergrund">
</g>
	
	
	

	
	
	<g display="none" id="Hilfslinien">
</g>
	
	
	

	
	
	<g id="Vordergrund">
		
		
		
	
		
		
		<g>
			
			
			
		
			
			
			<g>
				
				
				
			
				
				
				
				
				
				
				
			
				
				
				
				
				
				
				
			
				
				
				
				
				
				
				
		
			
			
			</g>
			
			
			
		
			
			
			<g>
				
				
				
			
				
				
				
				
				
				
			
				
				
				
				
				
				
			
				
				
				
				
				
				
			
				
				
				<path animation_id="3" d="M122.586,101.188c0.735,1.144,1.062,2.124,1.471,4.249c2.861-2.779,6.374-4.249,10.215-4.249     c3.432,0,6.293,1.144,8.499,3.432c0.572,0.572,1.144,1.308,1.634,2.043c3.842-3.922,7.273-5.475,11.851-5.475     c3.269,0,6.375,0.979,8.254,2.615c2.37,2.043,3.106,4.494,3.106,10.214v29.747h-10.625v-27.622c0-4.984-0.572-5.966-3.432-5.966     c-2.043,0-4.904,1.389-7.273,3.514v30.074h-10.378v-27.213c0-5.23-0.735-6.456-3.759-6.456c-2.043,0-4.822,1.062-7.191,3.187     v30.482h-10.705V114.59c0-6.047-0.41-8.662-1.554-10.705L122.586,101.188z" fill="#9D9D9C" stroke="black"/>
				
				
				
			
				
				
				
				
				
				
		
			
			
			</g>
			
			
			
		
			
			
			<g>
				
				
				
			
				
				
				
				
				
				
			
				
				
				
				
				
				
			
				
				
				
				
				
				
			
				
				
				
				
				
				
			
				
				
				
				
				
				
			
				
				
				
				
				
				
		
			
			
			</g>
			
			
			
	
		
		
		</g>
		
		
		

	
	
	</g>
	
	
	



</svg>