<?xml version="1.0" encoding="iso-8859-1"?><!-- Generator: Adobe Illustrator 15.0.0, SVG Export Plug-In . SVG Version: 6.00 Build 0)  --><!DOCTYPE svg  PUBLIC '-//W3C//DTD SVG 1.1//EN'  'http://www.w3.org/Graphics/SVG/1.1/DTD/svg11.dtd'><svg enable-background="new 0 0 595.275 141.732" height="141.732px" version="1.1" viewBox="-148.81875 -35.433 892.9124999999999 212.598" width="595.275px" x="0px" xml:space="preserve" xmlns="http://www.w3.org/2000/svg" xmlns:xlink="http://www.w3.org/1999/xlink" y="0px">
	
	
	

	
	
	<g id="Hintergrund">
</g>
	
	
	

	
	
	<g display="none" id="Hilfslinien">
</g>
	
	
	

	
	
	<g id="Vordergrund">
		
		
		
	
		
		
		<g>
			
			
			
		
			
			
			
			
			
			
			
		
			
			
			
			
			
			
			
		
			
			
			
			
			
			
			
	
		
		
		</g>
		
		
		
	
		
		
		
		
		
		
	
		
		
		
		
		
		
		
	
		
		
		
		
		
		
	
		
		
		
		
		
		
	
		
		
		
		
		
		
	
		
		
		
		
		
		
	
		
		
		
		
		
		
	
		
		
		
		
		
		
	
		
		
		
		
		
		
	
		
		
		
		
		
		
	
		
		
		
		
		
		
	
		
		
		<path animation_id="10" clip-rule="evenodd" d="M280.382,59.03c2.361-3.804,5.989-6.784,10.578-7.109   c10.204-0.722,11.811,3.312,11.799,13.57c0.038,1.562,0.024,3.165,0.024,4.753c0,6.056,0,12.023,0,18.201h-6.415l-0.017-25.844   c0.017-2.979-1.584-5.342-4.642-5.111c-4.323,0.325-6.694,1.35-9.051,4.854c-0.958,1.423-1.829,3.145-1.829,7.899   c-0.029,6.367-0.002,14.37,0,18.201c-2.141,0-3.762,0-6.424,0c-0.004-2.601,0-10.938,0-18.201c0-5.159,0-6.75,0-7.442   c0-3.552-3.003-5.47-6.206-5.312c-6.641,0.325-9.676,5.181-9.676,12.754c0,8.783,0,11.316,0,18.201h-6.431v-30.63   c-2.245-0.681-4.125-0.851-6.223-0.997v-3.593c2.092-0.348,3.195-0.545,6.223-0.639c2.275,0,3.94,0,5.951,0   c0.072,1.572,0.117,3.185,0.66,4.84c2.404-2.061,4.908-4.283,8.029-5.174C271.842,50.795,279.095,53.318,280.382,59.03z" fill="#9D9D9C" fill-rule="evenodd" stroke="black"/>
		
		
		

	
	
	</g>
	
	
	



</svg>