<?xml version="1.0" encoding="iso-8859-1"?><!-- Generator: Adobe Illustrator 15.0.0, SVG Export Plug-In . SVG Version: 6.00 Build 0)  --><!DOCTYPE svg  PUBLIC '-//W3C//DTD SVG 1.1//EN'  'http://www.w3.org/Graphics/SVG/1.1/DTD/svg11.dtd'><svg enable-background="new 0 0 595.275 155.905" height="155.905px" version="1.1" viewBox="-148.81875 -38.97625 892.9124999999999 233.85750000000002" width="595.275px" x="0px" xml:space="preserve" xmlns="http://www.w3.org/2000/svg" xmlns:xlink="http://www.w3.org/1999/xlink" y="0px">
	
	
	

	
	
	<g id="Hintergrund">
</g>
	
	
	

	
	
	<g display="none" id="Hilfslinien">
</g>
	
	
	

	
	
	<g id="Vordergrund">
		
		
		
	
		
		
		<g>
			
			
			
		
			
			
			<g>
				
				
				
			
				
				
				
				
				
				
			
				
				
				
				
				
				
			
				
				
				
				
				
				
			
				
				
				
				
				
				
			
				
				
				
				
				
				
		
			
			
			</g>
			
			
			
		
			
			
			<g>
				
				
				
			
				
				
				
				
				
				
			
				
				
				
				
				
				
			
				
				
				<path animation_id="7" d="M450.776,113.875c0,12.012-4.133,21.04-11.858,25.248c-3.215,1.76-6.198,2.448-10.636,2.448     c-8.032,0-13.236-2.219-17.291-7.498c-4.054-5.203-6.119-11.936-6.119-19.739c0-11.477,4.359-20.657,12.011-24.865     c3.137-1.684,7.039-2.601,11.018-2.601C442.054,86.868,450.776,97.196,450.776,113.875z M419.484,99.798     c-1.837,3.442-2.679,8.11-2.679,14.536c0,9.181,1.531,14.919,4.744,17.215c1.684,1.224,3.826,1.836,6.351,1.836     c7.421,0,10.558-5.662,10.558-19.203c0-5.433-0.46-9.335-1.378-12.319c-0.841-2.677-3.671-6.732-9.333-6.732     C424.151,95.13,421.014,96.966,419.484,99.798z" fill="#9D9D9C" stroke="black"/>
				
				
				
			
				
				
				
				
				
				
			
				
				
				
				
				
				
			
				
				
				
				
				
				
		
			
			
			</g>
			
			
			
		
			
			
			
			
			
			
			
	
		
		
		</g>
		
		
		

	
	
	</g>
	
	
	



</svg>