<?xml version="1.0" encoding="iso-8859-1"?><!-- Generator: Adobe Illustrator 15.0.0, SVG Export Plug-In . SVG Version: 6.00 Build 0)  --><!DOCTYPE svg  PUBLIC '-//W3C//DTD SVG 1.1//EN'  'http://www.w3.org/Graphics/SVG/1.1/DTD/svg11.dtd'><svg enable-background="new 0 0 595.275 184.252" height="184.252px" version="1.1" viewBox="-148.81875 -46.063 892.9124999999999 276.37800000000004" width="595.275px" x="0px" xml:space="preserve" xmlns="http://www.w3.org/2000/svg" xmlns:xlink="http://www.w3.org/1999/xlink" y="0px">
	
	
	

	
	
	<g id="Hintergrund">
</g>
	
	
	

	
	
	<g display="none" id="Hilfslinien">
</g>
	
	
	

	
	
	<g id="Vordergrund">
		
		
		
	
		
		
		<g>
			
			
			
		
			
			
			
			
			
			
		
			
			
			<g>
				
				
				
			
				
				
				<path animation_id="1" clip-rule="evenodd" d="M61.982,93.293h-0.644c-0.21,0.275-0.403,0.563-0.552,0.888     c-0.442,0.945,0.078,1.937-0.078,2.915c-0.083,0.502-0.342,0.93-0.651,1.318l-0.298,0.362c-0.394,0.477-0.746,0.952-0.716,1.675     c0.017,0.65,0.304,1.281,0.078,1.926c-0.547,1.473-2.492-0.547-2.934,3.557c-0.122,1.082,0.361,2.125-0.081,3.185     c-0.089,0.212-0.226,0.378-0.382,0.524l-0.073,0.182l0.255,1.245l0.724,0.301l0.857,0.05l0.899,0.228l0.451,0.905v0.908     l0.225,0.679l0.674,0.681l0.674,0.452l0.564,1.375l-0.115,1.798l-0.225,0.906l-0.674,0.453l-0.674-0.227H58.61l0.451,3.172     l0.225,2.947v3.172v3.172v2.945l-0.225,3.173v3.173l-0.225,2.945v3.172v2.947l-0.675,1.132v1.813v1.812l-0.225,2.04l-0.225,2.04     v2.039v1.812l0.449,1.812l0.449,1.586l1.125,1.586l1.573,1.133l1.348,0.453h1.35h1.123l1.124-0.453l1.348-0.453l1.124-0.453     l1.125-0.452l1.348-0.228l0.899-0.453l1.124-0.68l0.9-0.68l1.124-0.68l0.674-0.68l0.898-0.906l0.45-0.906l0.449-1.134     l0.674-0.906l0.449-0.906l0.225-0.906v-1.133v-1.134v-1.133v-0.906l0.225-1.133v-2.945l-0.225-2.72l-0.225-2.946l-0.225-2.719     l-0.224-2.719v-2.945l-0.225-2.721l-0.225-2.945v-2.945v-2.945l-0.225-1.36l-0.449-1.587l-0.225-1.359l-0.449-1.359l-0.45-1.359     l-0.449-1.359l-0.449-1.586l-0.225-1.359l-0.449-1.361l-0.45-1.358v-1.134v-0.906l0.225-1.133l0.45-0.906l0.224-0.906l0.45-0.68     l0.674-0.907l0.674-0.679h1.124l0.899,0.453l0.674,0.453l0.9,0.68l0.898,0.453l0.899,0.453l0.898,0.227l1.124-0.227l1.125,0.453     l0.674,0.68l0.674,0.68l0.674,0.906l0.45,0.906l0.674,0.906l0.674,0.906l0.674,0.68l1.124,2.267l1.125,2.492l0.899,2.493     l0.674,2.492l0.674,2.492l0.674,2.494l0.224,2.719l0.225,2.719v2.719l-0.225,2.72v1.813l-0.224,1.586l-0.225,1.812l-0.45,1.812     l-0.674,1.587l-0.674,1.586l-0.899,1.586l-1.125,1.134l-1.573,1.133l-1.572,0.68l-0.899,0.906l-0.45,1.133l-0.224,1.359     l-0.45,1.133l0.899,0.228l1.124,0.453h0.898l0.899-0.681l0.898-1.359l0.9-1.133l0.674-1.359l0.674-1.587l0.449-1.358l0.674-1.36     l0.449-1.586l0.45-1.36l0.449-1.586l0.45-1.359v-1.586v-1.812l0.225-0.907l0.226-0.679l0.224-0.681l0.675-0.453l0.674,0.227     l0.449,0.68l-0.225,2.493l-0.45,2.492l-0.225,2.492l-0.674,2.493l-0.449,2.493l-0.9,2.266l-0.898,2.266l-1.348,2.266l-1.349,2.04     l-1.798,1.813l-0.949,0.102l-0.848,0.352v1.359l-0.225,1.133l-0.674,0.906l-1.124,0.453l0.674,0.906h0.898l1.28,0.141     l0.967,0.312h1.574l1.797-0.226l1.573-0.228l1.573-0.453l1.349-0.453l1.572-0.68l1.349-0.68l1.348-0.906l1.35-0.906l1.348-0.906     l1.797-1.812l1.349-1.814l1.124-2.039l1.124-2.266l0.674-2.039l0.675-2.267l0.674-2.265l0.449-2.268l0.451-2.492l0.449-2.266     l0.225-3.627v-3.625v-3.626v-3.625l-0.225-3.626l-0.225-3.625l-0.675-3.399l-0.899-3.399l-1.123-3.398l-1.573-2.945l-0.224-0.906     l-0.45-1.134l-0.225-0.905l-0.225-1.134l-1.798-1.586l-1.797-1.813l-2.022-1.586l-1.799-1.586l-2.022-1.587l-1.797-1.358     l-2.023-1.361l-2.022-1.133L90.522,87.4l-2.247-0.906l-2.247-0.227l-2.023-0.227h-2.022H79.96l-1.797,0.227l-2.022,0.227     l-1.797,0.227l-2.023,0.453l-1.797,0.453l-2.023,0.453l-0.674,1.133l-0.899,0.906l-0.674,0.228L65.353,90.8l-0.674,0.452     l-0.45,0.682l-0.674,0.68l-0.675,0.453L61.982,93.293z" fill="#164194" fill-rule="evenodd" stroke="black"/>
				
				
				
			
				
				
				
				
				
				
			
				
				
				
				
				
				
		
			
			
			</g>
			
			
			
		
			
			
			
			
			
			
		
			
			
			
			
			
			
			
		
			
			
			
			
			
			
		
			
			
			
			
			
			
		
			
			
			
			
			
			
		
			
			
			
			
			
			
		
			
			
			
			
			
			
		
			
			
			
			
			
			
		
			
			
			
			
			
			
		
			
			
			
			
			
			
		
			
			
			
			
			
			
		
			
			
			
			
			
			
	
		
		
		</g>
		
		
		

	
	
	</g>
	
	
	



</svg>