<?xml version="1.0" encoding="iso-8859-1"?><!-- Generator: Adobe Illustrator 15.0.0, SVG Export Plug-In . SVG Version: 6.00 Build 0)  --><!DOCTYPE svg  PUBLIC '-//W3C//DTD SVG 1.1//EN'  'http://www.w3.org/Graphics/SVG/1.1/DTD/svg11.dtd'><svg enable-background="new 0 0 595.275 201.26" height="201.26px" version="1.1" viewBox="-148.81875 -50.315 892.9124999999999 301.89" width="595.275px" x="0px" xml:space="preserve" xmlns="http://www.w3.org/2000/svg" xmlns:xlink="http://www.w3.org/1999/xlink" y="0px">
	
	
	

	
	
	<g id="Hintergrund">
</g>
	
	
	

	
	
	<g display="none" id="Hilfslinien">
</g>
	
	
	

	
	
	<g id="Vordergrund">
		
		
		
	
		
		
		<g>
			
			
			
		
			
			
			
			
			
			
		
			
			
			<g>
				
				
				
			
				
				
				
				
				
				
			
				
				
				
				
				
				
			
				
				
				
				
				
				
			
				
				
				
				
				
				
			
				
				
				
				
				
				
			
				
				
				
				
				
				
			
				
				
				
				
				
				
			
				
				
				
				
				
				
			
				
				
				
				
				
				
			
				
				
				
				
				
				
			
				
				
				<path animation_id="11" d="M575.009,131.55c-6.91,4.807-13.619,7.011-20.83,7.011c-12.217,0-19.426-6.41-19.426-18.827     c0-10.614,4.707-21.53,11.516-28.14c5.107-4.906,10.814-6.809,17.624-6.809c10.114,0,17.425,4.006,17.425,14.02     c0,9.713-8.914,17.625-25.937,17.625c-3.504,0-6.107-0.701-6.107-0.701s-0.501,3.304-0.501,4.605     c0,5.809,3.005,8.211,8.611,8.211c4.605,0,9.413-2.002,14.22-5.406L575.009,131.55z M555.28,107.016     c5.81,0,12.518-2.002,12.518-7.109c0-3.104-1.401-5.308-5.407-5.308c-5.107,0-8.912,3.005-10.915,11.917     C551.476,106.516,553.479,107.016,555.28,107.016z" fill="#9D9D9C" stroke="black"/>
				
				
				
		
			
			
			</g>
			
			
			
	
		
		
		</g>
		
		
		

	
	
	</g>
	
	
	



</svg>