<?xml version="1.0" encoding="iso-8859-1"?><!-- Generator: Adobe Illustrator 15.0.0, SVG Export Plug-In . SVG Version: 6.00 Build 0)  --><!DOCTYPE svg  PUBLIC '-//W3C//DTD SVG 1.1//EN'  'http://www.w3.org/Graphics/SVG/1.1/DTD/svg11.dtd'><svg enable-background="new 0 0 595.275 184.252" height="184.252px" version="1.1" viewBox="-148.81875 -46.063 892.9124999999999 276.37800000000004" width="595.275px" x="0px" xml:space="preserve" xmlns="http://www.w3.org/2000/svg" xmlns:xlink="http://www.w3.org/1999/xlink" y="0px">
	
	
	

	
	
	<g id="Hintergrund">
</g>
	
	
	

	
	
	<g display="none" id="Hilfslinien">
</g>
	
	
	

	
	
	<g id="Vordergrund">
		
		
		
	
		
		
		<g>
			
			
			
		
			
			
			
			
			
			
		
			
			
			<g>
				
				
				
			
				
				
				
				
				
				
			
				
				
				
				
				
				
			
				
				
				
				
				
				
		
			
			
			</g>
			
			
			
		
			
			
			
			
			
			
		
			
			
			
			
			
			
			
		
			
			
			
			
			
			
		
			
			
			
			
			
			
		
			
			
			
			
			
			
		
			
			
			<path animation_id="6" clip-rule="evenodd" d="M395.088,97.758c-5.541,0-8.548,2.616-11.465,6.99l-0.3,0.232    l0.19-6.641c-2.062,0-3.952,0-6.123,0c-2.445,0.072-4.117,0.273-6.157,0.637l-0.003,3.777c2.146,0.107,4.058,0.24,6.26,0.818    v48.432c2.229,0,4.324,0,6.514,0l-0.017-17.529l0.289-0.092c5.199,0.622,12.795,0.227,17.149-2.98    C411.85,123.721,411.594,97.758,395.088,97.758z M394.155,128.854c-2.504,0.836-7.729,0.768-10.152-0.318    c-0.044-3.871,0-7.707-0.037-11.641c-0.025-2.568,0.451-5.158,1.615-7.487c1.794-3.587,8.657-9.373,12.675-4.753    C403.743,110.965,403.05,125.891,394.155,128.854z" fill="#9D9D9C" fill-rule="evenodd" stroke="black"/>
			
			
			
		
			
			
			
			
			
			
		
			
			
			
			
			
			
		
			
			
			
			
			
			
		
			
			
			
			
			
			
		
			
			
			
			
			
			
		
			
			
			
			
			
			
	
		
		
		</g>
		
		
		

	
	
	</g>
	
	
	



</svg>