<?xml version="1.0" encoding="iso-8859-1"?><!-- Generator: Adobe Illustrator 15.0.0, SVG Export Plug-In . SVG Version: 6.00 Build 0)  --><!DOCTYPE svg  PUBLIC '-//W3C//DTD SVG 1.1//EN'  'http://www.w3.org/Graphics/SVG/1.1/DTD/svg11.dtd'><svg enable-background="new 0 0 595.275 243.78" height="243.78px" version="1.1" viewBox="-148.81875 -60.945 892.9124999999999 365.67" width="595.275px" x="0px" xml:space="preserve" xmlns="http://www.w3.org/2000/svg" xmlns:xlink="http://www.w3.org/1999/xlink" y="0px">
	
	
	

	
	
	<g id="Hintergrund">
</g>
	
	
	

	
	
	<g display="none" id="Hilfslinien">
</g>
	
	
	

	
	
	<g id="Vordergrund">
		
		
		
	
		
		
		<g>
			
			
			
		
			
			
			<g>
				
				
				
			
				
				
				
				
				
				
				
			
				
				
				
				
				
				
				
			
				
				
				
				
				
				
				
		
			
			
			</g>
			
			
			
		
			
			
			<g>
				
				
				
			
				
				
				
				
				
				
			
				
				
				
				
				
				
			
				
				
				
				
				
				
			
				
				
				<path animation_id="3" d="M282.708,77.561c0.624,0.971,0.901,1.803,1.248,3.605c2.426-2.357,5.408-3.605,8.666-3.605     c2.91,0,5.336,0.971,7.209,2.912c0.485,0.484,0.97,1.109,1.386,1.732c3.258-3.326,6.169-4.645,10.051-4.645     c2.773,0,5.407,0.832,7.001,2.219c2.011,1.733,2.635,3.812,2.635,8.664v25.232h-9.011v-23.43c0-4.229-0.486-5.061-2.912-5.061     c-1.733,0-4.159,1.179-6.17,2.98v25.51h-8.804V90.592c0-4.436-0.623-5.475-3.188-5.475c-1.733,0-4.09,0.9-6.1,2.703v25.855     h-9.081V88.93c0-5.13-0.346-7.348-1.317-9.081L282.708,77.561z" fill="#9D9D9C" stroke="black"/>
				
				
				
			
				
				
				
				
				
				
			
				
				
				
				
				
				
			
				
				
				
				
				
				
			
				
				
				
				
				
				
			
				
				
				
				
				
				
			
				
				
				
				
				
				
			
				
				
				
				
				
				
		
			
			
			</g>
			
			
			
	
		
		
		</g>
		
		
		

	
	
	</g>
	
	
	



</svg>