<?xml version="1.0" encoding="iso-8859-1"?><!-- Generator: Adobe Illustrator 15.0.0, SVG Export Plug-In . SVG Version: 6.00 Build 0)  --><!DOCTYPE svg  PUBLIC '-//W3C//DTD SVG 1.1//EN'  'http://www.w3.org/Graphics/SVG/1.1/DTD/svg11.dtd'><svg enable-background="new 0 0 595.275 198.425" height="198.425px" version="1.1" viewBox="-148.81875 -49.60625 892.9124999999999 297.63750000000005" width="595.275px" x="0px" xml:space="preserve" xmlns="http://www.w3.org/2000/svg" xmlns:xlink="http://www.w3.org/1999/xlink" y="0px">
	
	
	

	
	
	<g id="Hintergrund">
</g>
	
	
	

	
	
	<g display="none" id="Hilfslinien">
</g>
	
	
	

	
	
	<g id="Vordergrund">
		
		
		
	
		
		
		<g>
			
			
			
		
			
			
			
			
			
			
			
		
			
			
			
			
			
			
			
		
			
			
			<g>
				
				
				
			
				
				
				<g>
					
					
					
				
					
					
					
					
					
					
				
					
					
					
					
					
					
				
					
					
					
					
					
					
				
					
					
					
					
					
					
				
					
					
					
					
					
					
			
				
				
				</g>
				
				
				
			
				
				
				<g>
					
					
					
				
					
					
					
					
					
					
				
					
					
					
					
					
					
				
					
					
					
					
					
					
				
					
					
					
					
					
					
				
					
					
					
					
					
					
				
					
					
					
					
					
					
				
					
					
					
					
					
					
				
					
					
					
					
					
					
				
					
					
					
					
					
					
				
					
					
					
					
					
					
				
					
					
					
					
					
					
				
					
					
					
					
					
					
				
					
					
					
					
					
					
				
					
					
					
					
					
					
				
					
					
					
					
					
					
				
					
					
					
					
					
					
				
					
					
					
					
					
					
				
					
					
					<path animation_id="22" d="M559.456,182.678c0,0.541-0.09,0.631-0.632,0.631h-1.982c-0.421,0-0.511-0.061-0.691-0.421l-5.498-10.244      c-0.901-1.683-1.412-2.734-1.712-4.086h-0.06c0,0.391,0.09,1.922,0.09,3.305v10.815c0,0.541-0.12,0.631-0.631,0.631h-2.192      c-0.513,0-0.632-0.09-0.632-0.631V163.36c0-0.541,0.119-0.631,0.632-0.631h2.463c0.451,0,0.51,0.06,0.691,0.39l4.956,9.313      c0.841,1.593,1.412,3.124,1.771,4.356h0.062c0-0.962-0.09-3.064-0.09-3.905v-9.523c0-0.541,0.118-0.631,0.631-0.631h2.192      c0.511,0,0.632,0.09,0.632,0.631V182.678z" stroke="black"/>
					
					
					
				
					
					
					
					
					
					
			
				
				
				</g>
				
				
				
		
			
			
			</g>
			
			
			
		
			
			
			
			
			
			
		
			
			
			
			
			
			
		
			
			
			
			
			
			
			
	
		
		
		</g>
		
		
		

	
	
	</g>
	
	
	



</svg>