<?xml version="1.0" encoding="iso-8859-1"?><!-- Generator: Adobe Illustrator 15.0.0, SVG Export Plug-In . SVG Version: 6.00 Build 0)  --><!DOCTYPE svg  PUBLIC '-//W3C//DTD SVG 1.1//EN'  'http://www.w3.org/Graphics/SVG/1.1/DTD/svg11.dtd'><svg enable-background="new 0 0 595.275 637.795" height="637.795px" version="1.1" viewBox="-148.81875 -159.44875 892.9124999999999 956.6924999999999" width="595.275px" x="0px" xml:space="preserve" xmlns="http://www.w3.org/2000/svg" xmlns:xlink="http://www.w3.org/1999/xlink" y="0px">
	
	
	

	
	
	<g id="Hintergrund">
</g>
	
	
	

	
	
	<g display="none" id="Hilfslinien">
</g>
	
	
	

	
	
	<g id="Vordergrund">
		
		
		
	
		
		
		<g>
			
			
			
		
			
			
			<g>
				
				
				
			
				
				
				
				
				
				
			
				
				
				
				
				
				
			
				
				
				
				
				
				
			
				
				
				
				
				
				
			
				
				
				
				
				
				
			
				
				
				
				
				
				
			
				
				
				<path animation_id="6" d="M386.113,247.55c0.22,0.328,0.327,0.766,0.327,1.203c0,2.846-10.943,6.457-19.589,6.457     c-14.446,0-24.514-8.207-24.514-28.345c0-17.401,9.301-29.439,23.968-29.439c18.604,0,21.888,16.636,21.888,29.878     c0,2.078-0.439,2.735-2.519,2.735h-29.438c0,6.128,1.751,13.679,12.039,13.679c7.879,0,12.365-3.611,13.897-3.611     c0.547,0,0.985,0.438,1.205,0.877L386.113,247.55z M373.417,219.86c0-4.486-0.327-12.258-7.879-12.258     c-8.536,0-8.975,9.193-9.302,12.258H373.417z" fill="#9D9D9C" stroke="black"/>
				
				
				
			
				
				
				
				
				
				
			
				
				
				
				
				
				
			
				
				
				
				
				
				
			
				
				
				
				
				
				
		
			
			
			</g>
			
			
			
		
			
			
			<g>
				
				
				
			
				
				
				
				
				
				
				
			
				
				
				
				
				
				
				
		
			
			
			</g>
			
			
			
	
		
		
		</g>
		
		
		

	
	
	</g>
	
	
	



</svg>