<?xml version="1.0" encoding="iso-8859-1"?><!-- Generator: Adobe Illustrator 15.0.0, SVG Export Plug-In . SVG Version: 6.00 Build 0)  --><!DOCTYPE svg  PUBLIC '-//W3C//DTD SVG 1.1//EN'  'http://www.w3.org/Graphics/SVG/1.1/DTD/svg11.dtd'><svg enable-background="new 0 0 595.275 198.425" height="198.425px" version="1.1" viewBox="-148.81875 -49.60625 892.9124999999999 297.63750000000005" width="595.275px" x="0px" xml:space="preserve" xmlns="http://www.w3.org/2000/svg" xmlns:xlink="http://www.w3.org/1999/xlink" y="0px">
	
	
	

	
	
	<g id="Hintergrund">
</g>
	
	
	

	
	
	<g display="none" id="Hilfslinien">
</g>
	
	
	

	
	
	<g id="Vordergrund">
		
		
		
	
		
		
		<g>
			
			
			
		
			
			
			
			
			
			
			
		
			
			
			
			
			
			
			
		
			
			
			<g>
				
				
				
			
				
				
				<g>
					
					
					
				
					
					
					
					
					
					
				
					
					
					
					
					
					
				
					
					
					
					
					
					
				
					
					
					
					
					
					
				
					
					
					
					
					
					
			
				
				
				</g>
				
				
				
			
				
				
				<g>
					
					
					
				
					
					
					
					
					
					
				
					
					
					
					
					
					
				
					
					
					
					
					
					
				
					
					
					
					
					
					
				
					
					
					
					
					
					
				
					
					
					<path animation_id="10" d="M348.096,182.678c0,0.541-0.09,0.631-0.601,0.631h-9.884c-0.512,0-0.631-0.09-0.631-0.631V163.36      c0-0.541,0.119-0.631,0.631-0.631h9.854c0.601,0,0.752,0.06,0.752,0.329c0,0.15-0.031,0.211-0.09,0.421l-0.572,2.014      c-0.12,0.45-0.451,0.48-0.69,0.48h-5.829v4.957h5.108c0.54,0,0.631,0.09,0.631,0.632v1.982c0,0.54-0.121,0.631-0.631,0.631      h-5.108v5.889h6.43c0.541,0,0.631,0.09,0.631,0.63V182.678z" stroke="black"/>
					
					
					
				
					
					
					
					
					
					
				
					
					
					
					
					
					
				
					
					
					
					
					
					
				
					
					
					
					
					
					
				
					
					
					
					
					
					
				
					
					
					
					
					
					
				
					
					
					
					
					
					
				
					
					
					
					
					
					
				
					
					
					
					
					
					
				
					
					
					
					
					
					
				
					
					
					
					
					
					
				
					
					
					
					
					
					
				
					
					
					
					
					
					
			
				
				
				</g>
				
				
				
		
			
			
			</g>
			
			
			
		
			
			
			
			
			
			
		
			
			
			
			
			
			
		
			
			
			
			
			
			
			
	
		
		
		</g>
		
		
		

	
	
	</g>
	
	
	



</svg>