<?xml version="1.0" encoding="iso-8859-1"?><!-- Generator: Adobe Illustrator 15.0.0, SVG Export Plug-In . SVG Version: 6.00 Build 0)  --><!DOCTYPE svg  PUBLIC '-//W3C//DTD SVG 1.1//EN'  'http://www.w3.org/Graphics/SVG/1.1/DTD/svg11.dtd'><svg enable-background="new 0 0 595.275 184.252" height="184.252px" version="1.1" viewBox="-148.81875 -46.063 892.9124999999999 276.37800000000004" width="595.275px" x="0px" xml:space="preserve" xmlns="http://www.w3.org/2000/svg" xmlns:xlink="http://www.w3.org/1999/xlink" y="0px">
	
	
	

	
	
	<g id="Hintergrund">
</g>
	
	
	

	
	
	<g display="none" id="Hilfslinien">
</g>
	
	
	

	
	
	<g id="Vordergrund">
		
		
		
	
		
		
		<g>
			
			
			
		
			
			
			
			
			
			
		
			
			
			<g>
				
				
				
			
				
				
				
				
				
				
			
				
				
				<polyline animation_id="14" clip-rule="evenodd" fill="#164194" fill-rule="evenodd" points="123.979,58.389 124.877,59.295 125.777,59.748      126.676,59.975 127.799,60.201 128.923,60.428 130.045,60.654 130.944,61.107 131.619,62.014 132.293,62.24 133.192,62.693      133.642,63.146 134.316,63.826 134.99,64.279 135.664,64.959 136.338,65.186 137.238,65.413 137.238,67.226 137.013,68.131      137.463,69.039 138.137,69.945 138.137,71.078 137.912,72.211 137.688,73.344 137.013,74.023 136.563,74.93 136.113,76.062      135.664,76.97 135.214,78.103 134.541,79.009 133.642,79.689 132.519,79.915 130.944,79.462 130.045,79.915 129.147,79.915      128.248,79.915 127.35,79.689 126.451,79.462 125.552,79.235 124.428,79.235 123.529,79.235 122.405,78.782 121.282,78.329      120.158,77.875 119.034,77.196 117.911,76.742 116.338,76.289 114.99,76.289 113.416,76.517 112.068,77.423 110.495,77.196      108.696,76.97 107.124,76.742 105.551,76.289 103.979,75.836 102.404,75.609 100.607,75.384 99.033,75.156 97.46,75.384      95.663,75.609 92.741,75.836 89.595,75.836 86.448,75.836 83.303,75.836 80.156,75.609 77.01,75.609 74.089,75.836      70.942,76.517 68.246,77.196 65.549,78.557 64.2,78.557 62.853,78.782 61.729,79.235 60.605,79.462 59.256,79.915 58.133,80.143      57.01,80.369 55.66,80.369 54.537,80.369 53.638,80.596 52.739,81.049 52.065,81.955 51.392,82.635 50.717,83.541 50.043,84.221      49.369,84.9 47.57,85.581 45.773,86.486 43.975,87.393 41.953,88.3 40.38,89.433 38.582,90.564 37.008,91.926 35.661,93.512      34.537,95.098 33.637,96.91 33.413,97.59 32.963,98.271 32.514,98.949 32.289,99.629 31.84,100.31 31.39,100.99 30.716,101.443      30.042,101.896 28.694,101.896 27.569,101.669 26.221,101.443 25.098,100.99 23.75,100.31 22.85,99.629 21.727,98.723      20.603,97.816 19.705,96.91 18.806,95.777 18.581,94.418 17.907,93.285 17.233,92.151 16.333,91.246 15.435,90.112      14.536,88.753 14.086,87.393 14.086,85.807 14.76,83.994 14.311,82.635 14.536,81.275 15.21,80.596 15.884,79.915 16.783,79.462      17.458,78.782 18.132,78.329 18.806,77.648 19.705,76.97 20.379,76.289 21.278,76.289 22.176,76.289 23.075,75.836 23.75,75.384      24.424,74.93 25.098,74.25 25.772,73.797 26.671,73.57 28.694,72.664 30.716,71.758 32.514,70.625 34.537,69.265 36.334,68.131      38.132,66.773 40.155,65.64 42.177,64.733 44.199,64.053 46.448,63.6 48.245,62.467 50.043,61.561 51.841,60.881 53.638,60.201      55.66,59.748 57.684,59.295 59.706,58.842 61.729,58.615 63.751,58.389 65.773,57.936 67.123,58.389 68.471,58.389      69.819,58.161 70.942,57.709 72.066,57.256 73.415,56.803 74.539,56.349 75.886,56.349 77.234,55.67 78.584,55.442      79.932,55.442 81.28,55.67 82.629,55.895 84.202,55.895 85.55,55.895 86.898,55.442 88.472,55.442 90.045,55.442 91.393,55.215      92.966,55.215 94.314,54.988 95.888,54.988 97.235,54.988 98.809,54.988 100.157,55.215 101.73,55.67 103.979,55.67      106.225,55.67 108.472,55.895 110.72,56.122 112.967,56.349 115.215,56.803 117.461,57.256 119.708,57.481 121.731,57.936      123.979,58.389    " stroke="black"/>
				
				
				
			
				
				
				
				
				
				
		
			
			
			</g>
			
			
			
		
			
			
			
			
			
			
		
			
			
			
			
			
			
			
		
			
			
			
			
			
			
		
			
			
			
			
			
			
		
			
			
			
			
			
			
		
			
			
			
			
			
			
		
			
			
			
			
			
			
		
			
			
			
			
			
			
		
			
			
			
			
			
			
		
			
			
			
			
			
			
		
			
			
			
			
			
			
		
			
			
			
			
			
			
	
		
		
		</g>
		
		
		

	
	
	</g>
	
	
	



</svg>