<?xml version="1.0" encoding="iso-8859-1"?><!-- Generator: Adobe Illustrator 15.0.0, SVG Export Plug-In . SVG Version: 6.00 Build 0)  --><!DOCTYPE svg  PUBLIC '-//W3C//DTD SVG 1.1//EN'  'http://www.w3.org/Graphics/SVG/1.1/DTD/svg11.dtd'><svg enable-background="new 0 0 595.275 243.78" height="243.78px" version="1.1" viewBox="-148.81875 -60.945 892.9124999999999 365.67" width="595.275px" x="0px" xml:space="preserve" xmlns="http://www.w3.org/2000/svg" xmlns:xlink="http://www.w3.org/1999/xlink" y="0px">
	
	
	

	
	
	<g id="Hintergrund">
</g>
	
	
	

	
	
	<g display="none" id="Hilfslinien">
</g>
	
	
	

	
	
	<g id="Vordergrund">
		
		
		
	
		
		
		<g>
			
			
			
		
			
			
			<g>
				
				
				
			
				
				
				
				
				
				
				
			
				
				
				
				
				
				
				
			
				
				
				
				
				
				
				
		
			
			
			</g>
			
			
			
		
			
			
			<g>
				
				
				
			
				
				
				
				
				
				
			
				
				
				
				
				
				
			
				
				
				
				
				
				
			
				
				
				
				
				
				
			
				
				
				
				
				
				
			
				
				
				
				
				
				
			
				
				
				
				
				
				
			
				
				
				
				
				
				
			
				
				
				
				
				
				
			
				
				
				
				
				
				
			
				
				
				<path animation_id="10" d="M580.582,109.725c-4.09,3.327-8.388,4.922-13.379,4.922c-10.188,0-16.773-7.209-16.773-18.369     c0-6.377,1.316-10.605,4.437-14.072c2.91-3.258,6.446-4.782,11.159-4.782c4.09,0,7.973,1.386,10.26,3.743     c3.258,3.327,4.713,8.109,4.713,15.527c0,0.762,0,1.524,0,2.148H560.48v0.277c0,5.477,2.702,8.596,7.485,8.596     c3.189,0,6.17-1.18,9.012-3.535L580.582,109.725z M571.363,92.049v-0.416c0-2.635-0.277-4.021-1.109-5.338     c-0.9-1.386-2.219-2.079-4.09-2.079c-3.535,0-5.545,2.772-5.545,7.694v0.139H571.363z" fill="#9D9D9C" stroke="black"/>
				
				
				
		
			
			
			</g>
			
			
			
	
		
		
		</g>
		
		
		

	
	
	</g>
	
	
	



</svg>