<?xml version="1.0" encoding="iso-8859-1"?><!-- Generator: Adobe Illustrator 15.0.0, SVG Export Plug-In . SVG Version: 6.00 Build 0)  --><!DOCTYPE svg  PUBLIC '-//W3C//DTD SVG 1.1//EN'  'http://www.w3.org/Graphics/SVG/1.1/DTD/svg11.dtd'><svg enable-background="new 0 0 595.275 119.055" height="119.055px" version="1.1" viewBox="-148.81875 -29.76375 892.9124999999999 178.5825" width="595.275px" x="0px" xml:space="preserve" xmlns="http://www.w3.org/2000/svg" xmlns:xlink="http://www.w3.org/1999/xlink" y="0px">
	
	
	

	
	
	<g id="Hintergrund">
</g>
	
	
	

	
	
	<g display="none" id="Hilfslinien">
</g>
	
	
	

	
	
	<g id="Vordergrund">
		
		
		
	
		
		
		<g>
			
			
			
		
			
			
			
			
			
			
		
			
			
			
			
			
			
			
		
			
			
			
			
			
			
		
			
			
			
			
			
			
		
			
			
			<path animation_id="3" clip-rule="evenodd" d="M161.507,41.352c2.804-4.516,7.109-8.054,12.555-8.438    c12.113-0.856,14.021,3.932,14.006,16.107c0.045,1.854,0.028,3.757,0.028,5.644c0,7.188,0,14.271,0,21.605h-7.614l-0.018-30.679    c0.018-3.535-1.882-6.341-5.51-6.067c-5.13,0.387-7.946,1.603-10.744,5.762c-1.136,1.69-2.17,3.733-2.17,9.379    c-0.036,7.558-0.004,17.057,0,21.605c-2.542,0-4.465,0-7.626,0c-0.005-3.088,0-12.984,0-21.605c0-6.125,0-8.014,0-8.836    c0-4.216-3.564-6.491-7.365-6.305c-7.883,0.387-11.486,6.149-11.486,15.141c0,10.424,0,13.433,0,21.605h-7.634V39.91    c-2.664-0.809-4.896-1.01-7.386-1.183v-4.267c2.483-0.412,3.792-0.646,7.386-0.757c2.701,0,4.677,0,7.063,0    c0.085,1.866,0.138,3.779,0.783,5.744c2.855-2.446,5.825-5.084,9.531-6.142C151.371,31.576,159.98,34.571,161.507,41.352z" fill="#9D9D9C" fill-rule="evenodd" stroke="black"/>
			
			
			
		
			
			
			
			
			
			
		
			
			
			
			
			
			
		
			
			
			
			
			
			
		
			
			
			
			
			
			
		
			
			
			
			
			
			
		
			
			
			
			
			
			
		
			
			
			<g>
				
				
				
			
				
				
				
				
				
				
				
			
				
				
				
				
				
				
				
		
			
			
			</g>
			
			
			
	
		
		
		</g>
		
		
		

	
	
	</g>
	
	
	



</svg>