<?xml version="1.0" encoding="iso-8859-1"?><!-- Generator: Adobe Illustrator 15.0.0, SVG Export Plug-In . SVG Version: 6.00 Build 0)  --><!DOCTYPE svg  PUBLIC '-//W3C//DTD SVG 1.1//EN'  'http://www.w3.org/Graphics/SVG/1.1/DTD/svg11.dtd'><svg enable-background="new 0 0 595.276 291.969" height="291.969px" id="Ebene_1" version="1.1" viewBox="-148.819 -72.99225 892.914 437.95349999999996" width="595.276px" x="0px" xml:space="preserve" xmlns="http://www.w3.org/2000/svg" xmlns:xlink="http://www.w3.org/1999/xlink" y="0px">
	
	
	

	
	
	
	
	
	

	
	
	
	
	
	

	
	
	
	
	
	

	
	
	
	
	
	

	
	
	
	
	
	

	
	
	<g>
		
		
		
	
		
		
		
		
		
		
	
		
		
		
		
		
		
	
		
		
		
		
		
		
	
		
		
		
		
		
		
	
		
		
		
		
		
		
	
		
		
		
		
		
		
	
		
		
		
		
		
		
	
		
		
		
		
		
		
	
		
		
		<path animation_id="13" d="M266.003,278.812c3.143,0,3.763-0.664,3.763-4.119v-19.037c0-3.453-0.62-4.117-3.763-4.117v-1.107h11.467   c8.412,0,14.479,2.303,14.479,14.654c0,12.797-5.934,14.832-14.479,14.832h-11.467V278.812z M274.636,274.693   c0,2.215,0.134,3.189,2.834,3.189c7.615,0,9.254-3.941,9.254-12.797c0-8.146-0.93-12.617-9.254-12.617   c-2.347,0-2.834,0.443-2.834,3.188V274.693z" stroke="black"/>
		
		
		
	
		
		
		
		
		
		
	
		
		
		
		
		
		
	
		
		
		
		
		
		
	
		
		
		
		
		
		

	
	
	</g>
	
	
	

	
	
	<g>
		
		
		
	
		
		
		
		
		
		
	
		
		
		
		
		
		
	
		
		
		
		
		
		
	
		
		
		
		
		
		
	
		
		
		
		
		
		

	
	
	</g>
	
	
	



</svg>