<?xml version="1.0" encoding="iso-8859-1"?><!-- Generator: Adobe Illustrator 15.0.0, SVG Export Plug-In . SVG Version: 6.00 Build 0)  --><!DOCTYPE svg  PUBLIC '-//W3C//DTD SVG 1.1//EN'  'http://www.w3.org/Graphics/SVG/1.1/DTD/svg11.dtd'><svg enable-background="new 0 0 595.275 127.559" height="127.559px" version="1.1" viewBox="-148.81875 -31.88975 892.9124999999999 191.3385" width="595.275px" x="0px" xml:space="preserve" xmlns="http://www.w3.org/2000/svg" xmlns:xlink="http://www.w3.org/1999/xlink" y="0px">
	
	
	

	
	
	<g id="Hintergrund">
</g>
	
	
	

	
	
	<g display="none" id="Hilfslinien">
</g>
	
	
	

	
	
	<g id="Vordergrund">
		
		
		
	
		
		
		<g>
			
			
			
		
			
			
			
			
			
			
		
			
			
			
			
			
			
		
			
			
			
			
			
			
		
			
			
			
			
			
			
		
			
			
			
			
			
			
		
			
			
			<path animation_id="5" clip-rule="evenodd" d="M496.84,27.529h-43.533V57.55h18.761    c1.662,0,3.104,0.611,4.326,1.832c1.221,1.221,1.831,2.663,1.831,4.325c0,1.759-0.598,3.249-1.796,4.471    c-1.197,1.221-2.65,1.832-4.361,1.832h-18.761v30.17h43.679c1.662,0,3.104,0.599,4.326,1.795c1.22,1.198,1.829,2.651,1.829,4.359    c0,1.709-0.621,3.163-1.867,4.359c-1.246,1.197-2.725,1.796-4.434,1.796h-55.841V15.07h55.841c1.709,0,3.188,0.623,4.434,1.868    c1.246,1.247,1.867,2.725,1.867,4.434c0,1.662-0.621,3.104-1.867,4.325C500.027,26.918,498.549,27.529,496.84,27.529z" fill="#225CAC" fill-rule="evenodd" stroke="black"/>
			
			
			
		
			
			
			
			
			
			
	
		
		
		</g>
		
		
		

	
	
	</g>
	
	
	

	
	
	<g id="Foreground">
</g>
	
	
	



</svg>