<?xml version="1.0" encoding="iso-8859-1"?><!-- Generator: Adobe Illustrator 15.0.0, SVG Export Plug-In . SVG Version: 6.00 Build 0)  --><!DOCTYPE svg  PUBLIC '-//W3C//DTD SVG 1.1//EN'  'http://www.w3.org/Graphics/SVG/1.1/DTD/svg11.dtd'><svg enable-background="new 0 0 595.275 147.402" height="147.402px" version="1.1" viewBox="-148.81875 -36.8505 892.9124999999999 221.10299999999998" width="595.275px" x="0px" xml:space="preserve" xmlns="http://www.w3.org/2000/svg" xmlns:xlink="http://www.w3.org/1999/xlink" y="0px">
	
	
	

	
	
	<g id="Hintergrund">
</g>
	
	
	

	
	
	<g display="none" id="Hilfslinien">
</g>
	
	
	

	
	
	<g id="Vordergrund">
		
		
		
	
		
		
		<g>
			
			
			
		
			
			
			<g>
				
				
				
			
				
				
				
				
				
				
			
				
				
				
				
				
				
			
				
				
				
				
				
				
			
				
				
				
				
				
				
			
				
				
				
				
				
				
		
			
			
			</g>
			
			
			
		
			
			
			<g>
				
				
				
			
				
				
				
				
				
				
			
				
				
				
				
				
				
			
				
				
				<polyline animation_id="13" clip-rule="evenodd" fill="#164194" fill-rule="evenodd" points="261.769,72.284 261.283,71.919 260.707,71.382      260.262,70.783 259.924,70.163 259.722,69.642 259.475,69.006 259.337,68.374 259.22,67.761 259.121,66.945 259.143,66.075      259.337,65.269 259.649,64.408 260.018,63.665 260.332,62.803 260.645,61.942 260.839,61.136 261.668,60.754 262.495,60.374      263.379,60.111 264.265,59.848 265.335,59.068 266.353,58.171 267.423,57.392 268.495,56.612 269.567,55.832 270.695,55.171      271.879,54.627 273.174,54.319 274.579,54.245 275.924,54.346 276.446,54.535 277.03,54.554 277.616,54.572 278.263,54.418      278.792,54.317 279.259,54.39 279.781,54.581 280.186,54.825 282.052,55.115 283.98,55.233 285.908,55.351 287.837,55.469      289.765,55.587 291.75,55.821 293.616,56.111 295.594,56.637 297.564,57.453 299.473,58.441 300.392,59.166 301.373,59.719      302.411,60.39 303.393,60.942 304.375,61.495 305.476,61.993 306.458,62.546 307.558,63.045 308.658,63.544 309.759,64.041      309.751,64.332 309.919,64.686 310.621,64.648 311.213,64.377 311.805,64.104 312.342,63.715 312.877,63.325 313.412,62.937      314.004,62.663 314.596,62.392 314.396,63.488 313.901,64.576 313.413,65.374 312.689,66.281 312.085,67.133 311.131,67.857      310.352,68.646 309.517,69.317 308.682,69.987 307.901,70.775 306.989,72.2 306.022,73.504 304.999,74.692 303.858,75.935      302.662,77.058 301.464,78.182 300.211,79.188 298.958,80.195 297.588,81.255 296.335,82.261 294.929,82.334 293.459,82.578      292.163,82.887 290.75,83.25 289.394,83.73 288.036,84.211 286.56,84.745 285.203,85.227 283.782,85.878 282.426,86.359      280.308,86.758 278.254,86.984 276.034,86.858 273.875,86.559 271.724,85.97 269.635,85.209 267.727,84.221 265.763,83.115      264.079,81.803 262.552,80.288 261.993,79.552 261.555,78.737 261.264,77.867 261.165,77.052 261.13,76.365 261.138,75.773      261.27,75.139 261.401,74.504 261.502,73.744 261.562,73.075    " stroke="black"/>
				
				
				
		
			
			
			</g>
			
			
			
		
			
			
			<g>
				
				
				
			
				
				
				
				
				
				
			
				
				
				
				
				
				
			
				
				
				
				
				
				
			
				
				
				
				
				
				
			
				
				
				
				
				
				
			
				
				
				
				
				
				
		
			
			
			</g>
			
			
			
	
		
		
		</g>
		
		
		

	
	
	</g>
	
	
	



</svg>