<?xml version="1.0" encoding="iso-8859-1"?><!-- Generator: Adobe Illustrator 15.0.0, SVG Export Plug-In . SVG Version: 6.00 Build 0)  --><!DOCTYPE svg  PUBLIC '-//W3C//DTD SVG 1.1//EN'  'http://www.w3.org/Graphics/SVG/1.1/DTD/svg11.dtd'><svg enable-background="new 0 0 595.275 637.795" height="637.795px" version="1.1" viewBox="-148.81875 -159.44875 892.9124999999999 956.6924999999999" width="595.275px" x="0px" xml:space="preserve" xmlns="http://www.w3.org/2000/svg" xmlns:xlink="http://www.w3.org/1999/xlink" y="0px">
	
	
	

	
	
	<g id="Hintergrund">
</g>
	
	
	

	
	
	<g display="none" id="Hilfslinien">
</g>
	
	
	

	
	
	<g id="Vordergrund">
		
		
		
	
		
		
		<g>
			
			
			
		
			
			
			<g>
				
				
				
			
				
				
				
				
				
				
			
				
				
				
				
				
				
			
				
				
				
				
				
				
			
				
				
				
				
				
				
			
				
				
				
				
				
				
			
				
				
				
				
				
				
			
				
				
				
				
				
				
			
				
				
				
				
				
				
			
				
				
				
				
				
				
			
				
				
				<path animation_id="9" d="M531.871,251.271c0.108,0.547,0.219,0.547,0.219,0.875c0,1.531-5.801,3.064-11.055,3.064     c-13.46,0-13.46-11.054-13.46-21.122v-55.814c0-1.642,0.767-1.642,2.08-1.97l9.193-1.861c0.326,0,1.312-0.328,1.53-0.328     c0.876,0,1.096,0.438,1.096,2.299v59.646c0,3.501,0,6.565,3.064,6.565c2.188,0,3.61-0.985,4.268-0.985     c0.438,0,0.767,0.22,0.876,0.657L531.871,251.271z" fill="#9D9D9C" stroke="black"/>
				
				
				
			
				
				
				
				
				
				
		
			
			
			</g>
			
			
			
		
			
			
			<g>
				
				
				
			
				
				
				
				
				
				
				
			
				
				
				
				
				
				
				
		
			
			
			</g>
			
			
			
	
		
		
		</g>
		
		
		

	
	
	</g>
	
	
	



</svg>