<?xml version="1.0" encoding="iso-8859-1"?><!-- Generator: Adobe Illustrator 15.0.0, SVG Export Plug-In . SVG Version: 6.00 Build 0)  --><!DOCTYPE svg  PUBLIC '-//W3C//DTD SVG 1.1//EN'  'http://www.w3.org/Graphics/SVG/1.1/DTD/svg11.dtd'><svg enable-background="new 0 0 595.275 320.315" height="320.315px" version="1.1" viewBox="-148.81875 -80.07875 892.9124999999999 480.47249999999997" width="595.275px" x="0px" xml:space="preserve" xmlns="http://www.w3.org/2000/svg" xmlns:xlink="http://www.w3.org/1999/xlink" y="0px">
	
	
	

	
	
	<g id="Hintergrund">
</g>
	
	
	

	
	
	<g display="none" id="Hilfslinien">
</g>
	
	
	

	
	
	<g id="Vordergrund">
		
		
		
	
		
		
		<g>
			
			
			
		
			
			
			<g>
				
				
				
			
				
				
				
				
				
				
			
				
				
				
				
				
				
			
				
				
				
				
				
				
		
			
			
			</g>
			
			
			
		
			
			
			<g>
				
				
				
			
				
				
				
				
				
				
			
				
				
				
				
				
				
			
				
				
				
				
				
				
			
				
				
				<path animation_id="3" d="M147.545,231.179c0.906,1.411,1.31,2.621,1.813,5.241c3.528-3.427,7.864-5.241,12.6-5.241     c4.234,0,7.762,1.411,10.484,4.232c0.705,0.707,1.411,1.613,2.016,2.521c4.737-4.837,8.97-6.753,14.615-6.753     c4.031,0,7.861,1.21,10.18,3.225c2.923,2.521,3.83,5.545,3.83,12.6v36.691H189.98v-34.07c0-6.148-0.707-7.357-4.234-7.357     c-2.52,0-6.047,1.713-8.97,4.334v37.094h-12.801v-33.566c0-6.45-0.907-7.963-4.637-7.963c-2.52,0-5.946,1.311-8.869,3.932v37.598     h-13.205v-35.985c0-7.458-0.505-10.685-1.916-13.204L147.545,231.179z" fill="#164194" stroke="black"/>
				
				
				
			
				
				
				
				
				
				
			
				
				
				
				
				
				
			
				
				
				
				
				
				
			
				
				
				
				
				
				
			
				
				
				
				
				
				
			
				
				
				
				
				
				
			
				
				
				
				
				
				
		
			
			
			</g>
			
			
			
	
		
		
		</g>
		
		
		

	
	
	</g>
	
	
	



</svg>