<?xml version="1.0" encoding="iso-8859-1"?><!-- Generator: Adobe Illustrator 15.0.0, SVG Export Plug-In . SVG Version: 6.00 Build 0)  --><!DOCTYPE svg  PUBLIC '-//W3C//DTD SVG 1.1//EN'  'http://www.w3.org/Graphics/SVG/1.1/DTD/svg11.dtd'><svg enable-background="new 0 0 595.275 184.252" height="184.252px" version="1.1" viewBox="-148.81875 -46.063 892.9124999999999 276.37800000000004" width="595.275px" x="0px" xml:space="preserve" xmlns="http://www.w3.org/2000/svg" xmlns:xlink="http://www.w3.org/1999/xlink" y="0px">
	
	
	

	
	
	<g id="Hintergrund">
</g>
	
	
	

	
	
	<g display="none" id="Hilfslinien">
</g>
	
	
	

	
	
	<g id="Vordergrund">
		
		
		
	
		
		
		<g>
			
			
			
		
			
			
			
			
			
			
		
			
			
			<g>
				
				
				
			
				
				
				
				
				
				
			
				
				
				
				
				
				
			
				
				
				
				
				
				
		
			
			
			</g>
			
			
			
		
			
			
			<path animation_id="2" clip-rule="evenodd" d="M179.718,97.76c-5.54,0-8.548,2.615-11.464,6.989l-0.3,0.233    l0.189-6.643c-2.06,0-3.951,0-6.123,0c-2.445,0.072-4.116,0.273-6.156,0.639l-0.003,3.777c2.147,0.105,4.056,0.24,6.259,0.817    v48.433c2.23,0,4.325,0,6.514,0l-0.017-17.53l0.288-0.091c5.2,0.621,12.795,0.225,17.149-2.982    C196.481,123.722,196.225,97.76,179.718,97.76z M178.786,128.855c-2.504,0.834-7.728,0.766-10.152-0.32    c-0.045-3.871,0-7.706-0.038-11.64c-0.024-2.569,0.451-5.159,1.615-7.486c1.794-3.589,8.657-9.374,12.675-4.753    C188.374,110.966,187.681,125.891,178.786,128.855z" fill="#9D9D9C" fill-rule="evenodd" stroke="black"/>
			
			
			
		
			
			
			
			
			
			
			
		
			
			
			
			
			
			
		
			
			
			
			
			
			
		
			
			
			
			
			
			
		
			
			
			
			
			
			
		
			
			
			
			
			
			
		
			
			
			
			
			
			
		
			
			
			
			
			
			
		
			
			
			
			
			
			
		
			
			
			
			
			
			
		
			
			
			
			
			
			
	
		
		
		</g>
		
		
		

	
	
	</g>
	
	
	



</svg>