<?xml version="1.0" encoding="iso-8859-1"?><!-- Generator: Adobe Illustrator 15.0.0, SVG Export Plug-In . SVG Version: 6.00 Build 0)  --><!DOCTYPE svg  PUBLIC '-//W3C//DTD SVG 1.1//EN'  'http://www.w3.org/Graphics/SVG/1.1/DTD/svg11.dtd'><svg enable-background="new 0 0 595.275 320.315" height="320.315px" version="1.1" viewBox="-148.81875 -80.07875 892.9124999999999 480.47249999999997" width="595.275px" x="0px" xml:space="preserve" xmlns="http://www.w3.org/2000/svg" xmlns:xlink="http://www.w3.org/1999/xlink" y="0px">
	
	
	

	
	
	<g id="Hintergrund">
</g>
	
	
	

	
	
	<g display="none" id="Hilfslinien">
</g>
	
	
	

	
	
	<g id="Vordergrund">
		
		
		
	
		
		
		<g>
			
			
			
		
			
			
			<g>
				
				
				
			
				
				
				<polyline animation_id="11" clip-rule="evenodd" fill="#9D9D9C" fill-rule="evenodd" points="194.721,75.037 196.614,65.226 198.843,63.533      200.634,61.827 202.519,59.858 204.143,57.796 205.684,55.552 206.964,53.214 208.245,50.874 209.786,48.631 211.067,46.292      212.608,44.049 215.014,42.273 217.336,40.319 219.659,38.365 221.804,36.493 224.043,34.36 226.366,32.407 228.772,30.632      231.177,28.856 233.583,27.081 236.333,25.581 239.417,24.797 242.583,24.191 245.574,23.668 248.74,23.062 251.824,22.278      254.813,21.755 257.896,20.97 261.074,19.925 264.074,18.961 267.168,17.735 268.835,17.612 270.502,17.487 271.908,17.268      273.491,16.964 275.252,16.579 276.752,16.097 278.252,15.616 279.836,15.313 281.513,14.749 283.096,14.446 285.627,14.79      287.982,15.216 290.598,15.739 292.953,16.165 295.484,16.509 297.932,16.675 300.381,16.839 302.839,16.563 305.298,16.288      307.683,15.394 311.643,14.637 314.236,16.04 316.925,17.182 319.612,18.324 322.396,19.204 325,20.167 327.782,21.048      330.741,21.845 333.522,22.726 336.128,23.688 338.992,24.749 341.244,25.876 343.494,27.005 345.745,28.132 347.902,29.522      349.882,30.995 351.862,32.467 353.665,34.021 355.374,35.838 357.083,37.654 358.439,39.636 360.305,42.249 362.347,44.782      364.578,46.79 367.067,48.896 369.651,50.739 372.06,52.665 374.645,54.509 377.312,56.532 379.541,58.54 381.856,60.728      383.397,62.187 385.315,62.6 387.139,63.273 389.057,63.686 390.796,64.181 392.713,64.594 394.546,64.827 396.297,64.882      398.225,64.854 400.067,64.648 401.746,64.083 404.11,64.069 403.308,64.661 402.589,65.433 402.31,66.216 401.851,67.083      401.653,68.047 401.717,69.106 401.694,69.987 401.758,71.047 401.561,72.01 401.54,72.891 401.071,74.198 400.779,75.422      400.312,76.729 399.844,78.036 399.292,79.165 398.741,80.294 398.272,81.601 397.636,82.55 397.085,83.679 396.355,84.89      387.076,92.266 386.161,93.999 384.984,95.638 383.983,97.192 382.891,99.008 381.892,100.563 380.715,102.2 379.622,104.017      378.622,105.572 377.445,107.21 376.529,108.943 376.415,110.085 376.041,111.131 374.718,111.53 373.862,110.622      373.529,109.907 373.195,109.191 372.77,108.737 372.164,108.366 371.518,106.054 371.131,103.839 370.662,101.444      370.191,99.05 369.806,96.835 369.335,94.44 368.595,92.392 367.771,90.161 366.51,87.919 364.978,86.021 364.403,84.327      363.913,82.813 363.34,81.122 362.673,79.69 362.099,77.997 361.255,76.649 360.41,75.302 359.213,74.118 358.014,72.935      356.544,72.096 354.574,70.184 352.251,68.436 349.739,67.212 346.967,65.891 344.279,64.748 341.591,63.606 338.819,62.286      336.308,61.062 333.983,59.313 332.015,57.401 330.889,56.837 329.503,56.177 328.201,55.696 326.899,55.214 325.335,54.636      324.033,54.155 322.73,53.673 321.344,53.013 320.22,52.448 319.01,51.706 314.655,50.688 310.467,50.028 306.185,49.63      301.903,49.23 297.705,49.011 293.497,49.23 289.204,49.272 284.901,49.755 280.775,50.153 276.473,50.636 274.807,50.759      273.129,51.323 271.629,51.806 270.212,52.466 268.62,53.209 267.203,53.869 265.786,54.53 264.191,55.272 262.692,55.755      260.932,56.141 259.953,56.815 258.712,57.392 257.734,58.066 256.494,58.645 255.515,59.319 254.359,60.077 253.38,60.751      252.485,61.604 251.505,62.278 250.61,63.131 249.6,65.126 248.33,67.025 246.798,68.828 245.279,70.19 243.581,71.636      241.706,73.163 239.665,74.333 237.8,75.42 235.498,76.493 233.373,77.484 231.936,79.026 230.76,80.663 229.489,82.562      228.396,84.378 227.303,86.194 226.208,88.011 225.116,89.827 223.762,91.547 222.325,93.089 220.804,94.45 221.044,95.429      221.555,96.062 222.326,96.79 223.098,97.52 224.473,98.62 224.432,100.382 223.422,102.376 222.413,104.372 221.236,106.009      219.799,107.55 218.279,108.913 216.497,110.179 214.634,111.266 212.769,112.354 210.904,113.44 208.779,114.432      209.196,115.325 210.051,116.233 207.957,115.903 206.217,115.409 204.487,114.474 202.851,113.276 201.392,111.996      200.11,110.634 198.744,109.093 197.556,107.47 196.275,106.107 195.085,104.483 193.825,102.241 192.824,100.095      192.177,97.782 191.791,95.567 191.759,93.187 191.726,90.808 191.956,88.522 192.006,86.32 192.151,83.858 192.38,81.573      194.721,75.037    " stroke="black"/>
				
				
				
			
				
				
				
				
				
				
			
				
				
				
				
				
				
		
			
			
			</g>
			
			
			
		
			
			
			<g>
				
				
				
			
				
				
				
				
				
				
			
				
				
				
				
				
				
			
				
				
				
				
				
				
			
				
				
				
				
				
				
			
				
				
				
				
				
				
			
				
				
				
				
				
				
			
				
				
				
				
				
				
			
				
				
				
				
				
				
			
				
				
				
				
				
				
			
				
				
				
				
				
				
			
				
				
				
				
				
				
		
			
			
			</g>
			
			
			
	
		
		
		</g>
		
		
		

	
	
	</g>
	
	
	



</svg>