<?xml version="1.0" encoding="iso-8859-1"?><!-- Generator: Adobe Illustrator 15.0.0, SVG Export Plug-In . SVG Version: 6.00 Build 0)  --><!DOCTYPE svg  PUBLIC '-//W3C//DTD SVG 1.1//EN'  'http://www.w3.org/Graphics/SVG/1.1/DTD/svg11.dtd'><svg enable-background="new 0 0 595.276 325.984" height="325.984px" id="Ebene_1" version="1.1" viewBox="-148.819 -81.496 892.914 488.976" width="595.276px" x="0px" xml:space="preserve" xmlns="http://www.w3.org/2000/svg" xmlns:xlink="http://www.w3.org/1999/xlink" y="0px">
	
	
	

	
	
	<g>
		
		
		
	
		
		
		
		
		
		
	
		
		
		
		
		
		
	
		
		
		<path animation_id="2" d="M326.51,207.269c0,12.75-2.625,21.873-8.999,27.625c-6.25,5.623-15.125,7.373-23.499,7.373   c-7.751,0-16-1.75-21.25-4.875l3.374-11.623c3.875,2.25,10.375,4.625,17.749,4.625c10.001,0,17.5-5.25,17.5-18.375v-5.25h-0.249   c-3.499,5.375-9.625,9-17.75,9c-15.124,0-25.874-12.5-25.874-29.748c0-20,12.999-32.125,27.624-32.125   c9.376,0,14.749,4.5,17.625,9.5h0.249l0.626-8.125h13.374c-0.249,4.125-0.5,9.125-0.5,17.5V207.269z M311.136,179.646   c0-1.5-0.125-2.875-0.501-4.125c-1.624-5.625-5.999-9.875-12.499-9.875c-8.625,0-15,7.5-15,19.873   c0,10.375,5.25,18.75,14.875,18.75c5.751,0,10.75-3.75,12.5-9.375c0.5-1.5,0.625-3.625,0.625-5.375V179.646z" fill="#1B3E90" stroke="black"/>
		
		
		
	
		
		
		
		
		
		
	
		
		
		
		
		
		

	
	
	</g>
	
	
	

	
	
	
	
	
	

	
	
	
	
	
	

	
	
	
	
	
	

	
	
	
	
	
	

	
	
	
	
	
	

	
	
	
	
	
	

	
	
	
	
	
	

	
	
	
	
	
	



</svg>