<?xml version="1.0" encoding="iso-8859-1"?><!-- Generator: Adobe Illustrator 15.0.0, SVG Export Plug-In . SVG Version: 6.00 Build 0)  --><!DOCTYPE svg  PUBLIC '-//W3C//DTD SVG 1.1//EN'  'http://www.w3.org/Graphics/SVG/1.1/DTD/svg11.dtd'><svg enable-background="new 0 0 595.275 121.89" height="121.89px" version="1.1" viewBox="-148.81875 -30.4725 892.9124999999999 182.835" width="595.275px" x="0px" xml:space="preserve" xmlns="http://www.w3.org/2000/svg" xmlns:xlink="http://www.w3.org/1999/xlink" y="0px">
	
	
	

	
	
	<g id="Hintergrund">
</g>
	
	
	

	
	
	<g display="none" id="Hilfslinien">
</g>
	
	
	

	
	
	<g id="Vordergrund">
		
		
		
	
		
		
		<g>
			
			
			
		
			
			
			
			
			
			
		
			
			
			
			
			
			
		
			
			
			
			
			
			
		
			
			
			
			
			
			
		
			
			
			
			
			
			
		
			
			
			<path animation_id="5" d="M498.441,22.261c0,4.444-2.614,6.796-7.842,6.796h-26.66c-5.75,0-10.193,3.397-10.193,10.194    c0,6.534,3.397,10.716,10.193,10.716h23.785c5.228,0,7.842,2.353,7.842,7.057c0,4.444-2.614,6.797-7.842,6.797h-23.785    c-7.057,0-10.455,3.921-10.455,12.023v3.659c0,7.058,4.183,10.454,11.24,10.454h29.797c5.227,0,7.84,2.353,7.84,7.058    c0,4.443-3.397,6.797-9.932,6.797h-49.923c-5.489,0-8.104-2.615-8.104-9.149V23.699c0-5.49,2.614-8.495,7.581-8.495H490.6    C495.827,15.204,498.441,17.556,498.441,22.261z" fill="#225CAC" stroke="black"/>
			
			
			
		
			
			
			
			
			
			
	
		
		
		</g>
		
		
		

	
	
	</g>
	
	
	



</svg>