<?xml version="1.0" encoding="iso-8859-1"?><!-- Generator: Adobe Illustrator 15.0.0, SVG Export Plug-In . SVG Version: 6.00 Build 0)  --><!DOCTYPE svg  PUBLIC '-//W3C//DTD SVG 1.1//EN'  'http://www.w3.org/Graphics/SVG/1.1/DTD/svg11.dtd'><svg enable-background="new 0 0 595.275 158.74" height="158.74px" version="1.1" viewBox="-148.81875 -39.685 892.9124999999999 238.11" width="595.275px" x="0px" xml:space="preserve" xmlns="http://www.w3.org/2000/svg" xmlns:xlink="http://www.w3.org/1999/xlink" y="0px">
	
	
	

	
	
	<g id="Hintergrund">
</g>
	
	
	

	
	
	<g display="none" id="Hilfslinien">
</g>
	
	
	

	
	
	<g id="Vordergrund">
		
		
		
	
		
		
		<g>
			
			
			
		
			
			
			
			
			
			
		
			
			
			<path animation_id="1" clip-rule="evenodd" d="M511.503,68.45c-5.735,0-8.85,2.708-11.868,7.236l-0.311,0.242    l0.197-6.877c-2.135,0-4.091,0-6.34,0c-2.531,0.075-4.262,0.283-6.374,0.66l-0.002,3.91c2.222,0.11,4.2,0.249,6.48,0.847v50.143    c2.308,0,4.477,0,6.743,0l-0.018-18.148l0.299-0.095c5.385,0.644,13.246,0.233,17.755-3.087    C528.856,95.329,528.591,68.45,511.503,68.45z M510.538,100.644c-2.593,0.864-8,0.794-10.51-0.331    c-0.047-4.008,0-7.978-0.039-12.051c-0.025-2.659,0.468-5.341,1.672-7.752c1.857-3.714,8.962-9.703,13.122-4.92    C520.464,82.122,519.746,97.574,510.538,100.644z" fill="#9D9D9C" fill-rule="evenodd" stroke="black"/>
			
			
			
		
			
			
			
			
			
			
		
			
			
			
			
			
			
		
			
			
			
			
			
			
		
			
			
			
			
			
			
		
			
			
			
			
			
			
			
		
			
			
			
			
			
			
			
		
			
			
			
			
			
			
		
			
			
			
			
			
			
			
		
			
			
			
			
			
			
		
			
			
			
			
			
			
		
			
			
			
			
			
			
		
			
			
			
			
			
			
	
		
		
		</g>
		
		
		

	
	
	</g>
	
	
	



</svg>