<?xml version="1.0" encoding="iso-8859-1"?><!-- Generator: Adobe Illustrator 15.0.0, SVG Export Plug-In . SVG Version: 6.00 Build 0)  --><!DOCTYPE svg  PUBLIC '-//W3C//DTD SVG 1.1//EN'  'http://www.w3.org/Graphics/SVG/1.1/DTD/svg11.dtd'><svg enable-background="new 0 0 595.275 255.118" height="255.118px" version="1.1" viewBox="-148.81875 -63.7795 892.9124999999999 382.677" width="595.275px" x="0px" xml:space="preserve" xmlns="http://www.w3.org/2000/svg" xmlns:xlink="http://www.w3.org/1999/xlink" y="0px">
	
	
	

	
	
	<g id="Hintergrund">
</g>
	
	
	

	
	
	<g id="Hilfslinien_anzeigen">
</g>
	
	
	

	
	
	<g id="Vordergrund">
		
		
		
	
		
		
		
		
		
		
	
		
		
		<g>
			
			
			
		
			
			
			<path animation_id="1" d="M53.246,223.914c0,0.899-0.699,1.1-1,1.3c-2.5,1.1-9.5,2.601-15.4,2.601    c-18.701,0-23.602-8.801-23.602-27.502c0-18.802,4.9-27.602,23.602-27.602c5.9,0,12.9,1.5,15.4,2.6c0.301,0.2,1,0.4,1,1.301    c0,0.199-0.1,0.399-0.1,0.5l-0.7,3.399c-0.2,0.801-0.5,1.2-1.2,1.2c-0.1,0-0.3-0.1-0.6-0.1c-2.101-0.601-8.101-2.4-13.401-2.4    c-12,0-15.801,5.101-15.801,21.001c0,16.001,3.801,21.102,15.801,21.102c5.301,0,11.301-1.6,13.401-2.2c0.3,0,0.5-0.1,0.6-0.1    c0.7,0,1,0.399,1.2,1.2l0.7,3.2C53.146,223.613,53.246,223.713,53.246,223.914z" fill="#004F9F" stroke="black"/>
			
			
			
		
			
			
			
			
			
			
		
			
			
			
			
			
			
		
			
			
			
			
			
			
		
			
			
			
			
			
			
		
			
			
			
			
			
			
		
			
			
			
			
			
			
		
			
			
			
			
			
			
		
			
			
			
			
			
			
	
		
		
		</g>
		
		
		

	
	
	</g>
	
	
	



</svg>