<?xml version="1.0" encoding="iso-8859-1"?><!-- Generator: Adobe Illustrator 15.0.0, SVG Export Plug-In . SVG Version: 6.00 Build 0)  --><!DOCTYPE svg  PUBLIC '-//W3C//DTD SVG 1.1//EN'  'http://www.w3.org/Graphics/SVG/1.1/DTD/svg11.dtd'><svg enable-background="new 0 0 595.275 141.732" height="141.732px" version="1.1" viewBox="-148.81875 -35.433 892.9124999999999 212.598" width="595.275px" x="0px" xml:space="preserve" xmlns="http://www.w3.org/2000/svg" xmlns:xlink="http://www.w3.org/1999/xlink" y="0px">
	
	
	

	
	
	<g id="Hintergrund">
</g>
	
	
	

	
	
	<g display="none" id="Hilfslinien">
</g>
	
	
	

	
	
	<g id="Vordergrund">
		
		
		
	
		
		
		<g>
			
			
			
		
			
			
			
			<polygon animation_id="12" clip-rule="evenodd" fill="#164194" fill-rule="evenodd" points="    110.512,58.183 109.408,58.845 108.144,60.171 107.091,61.108 107.042,63.318 107.091,65.581 106.619,67.128 105.355,68.949     104.935,70.054 104.302,72.759 104.092,73.916 102.989,75.021 101.725,76.568 101.514,78.39 101.514,79.272 102.778,79.937     101.725,81.757 100.882,84.241 100.2,85.125 97.884,87.998 97.2,89.598 96.358,91.419 95.095,92.524 93.569,93.188 91.464,94.071     90.78,95.229 90.148,96.113 88.464,97.713 86.939,97.934 83.729,97.713 81.413,98.154 79.466,98.817 78.202,99.038 75.625,98.597     74.1,99.48 72.204,99.923 70.047,99.701 67.68,98.597 65.574,97.934 63.206,97.492 61.681,97.217 60.629,97.217 58.472,96.555     57.208,97.217 54.84,95.45 53.367,93.849 52.945,92.524 51.21,91.64 49.735,90.977 48.631,90.261 47.578,89.155 46.526,87.83     45.001,85.788 43.947,85.346 42.212,84.241 41.158,81.979 39.685,79.495 39.212,78.169 39.001,75.685 39.001,73.421 39.001,70.77     39.894,69.391 39.212,65.36 39.685,63.813 40.526,61.771 41.581,59.066 43.315,57.078 45.211,55.698 46.736,53.709 48,51.226     49.054,49.404 50.999,47.637 53.367,46.258 55.262,45.815 57.629,44.711 59.997,43.111 62.997,42.227 65.574,42.448     68.311,42.669 70.047,42.227 72.415,42.227 74.993,42.669 77.941,44.048 78.834,45.815 79.677,47.416 81.834,48.521 84.15,50.342     85.886,51.226 88.042,52.552 89.096,54.373 89.728,56.582 89.938,58.183 90.78,60.171 91.464,62.213 91.464,64.696 90.832,66.243     90.359,68.064 89.938,70.549 90.148,72.538 89.728,74.579 89.096,77.284 88.675,78.61 87.361,80.157 85.254,81.979 83.309,83.304     82.466,84.683 81.413,86.451 78.413,85.788 76.467,85.346 74.731,85.346 73.047,86.01 70.259,86.23 68.995,85.567 66.626,85.567     65.574,85.567 63.417,86.01 61.47,85.788 59.786,84.241 57.84,83.083 56.365,81.979 55.472,80.157 54.63,78.61 53.367,77.011     52.945,74.801 53.577,73.2 54.208,71.212 54.419,68.286 54.419,66.465 55.472,64.477 56.997,61.771 58.261,60.445 60.208,58.403     61.47,58.183 62.997,58.845 64.681,57.519 66.417,56.361 69.626,55.698 73.889,55.698 75.835,57.078 76.677,59.066 78.413,60.666     78.625,62.655 78.834,64.918 80.098,67.128 79.677,69.391 78.625,70.054 75.835,70.274 75.835,68.728 73.047,68.286     73.047,66.907 73.679,64.477 73.468,62.876 71.783,61.992 68.783,62.876 68.102,65.802 66.206,66.687 65.102,68.728     64.259,70.991 64.681,73.2 64.681,75.021 65.102,77.947 66.626,79.715 67.68,80.157 70.468,81.095 73.047,80.157 74.993,79.053     76.045,78.61 77.52,78.39 79.045,78.61 81.152,77.727 82.255,77.506 83.097,75.685 83.94,72.979 84.622,70.274 85.465,68.064     84.833,65.802 83.729,64.034 83.519,61.992 83.519,59.066 83.729,57.519 82.886,55.698 81.413,54.373 79.677,53.215     77.309,52.109 74.993,51.446 72.625,51.667 69.836,50.12 67.891,49.404 66.417,49.404 64.259,50.068 62.786,50.562 60.629,51.005     58.682,50.784 56.365,52.109 54.84,54.373 53.577,56.582 51.842,57.298 50.999,58.845 50.367,61.108 48.842,62.876 47.79,64.477     46.947,66.687 46.736,68.064 47.158,70.274 47.158,72.759 46.736,75.242 46.314,77.284 46.314,79.053 48.421,80.157     48.421,81.757 49.054,84.02 50.367,85.346 51.842,86.23 53.577,86.893 55.472,88.272 57.84,89.155 61.47,90.756 62.997,92.082     66.417,92.524 69.626,91.861 73.047,92.303 75.625,92.966 77.992,92.745 80.729,91.198 82.466,90.756 84.622,90.04 87.15,89.155     88.886,88.272 90.78,86.01 91.464,84.02 92.728,82.42 94.673,80.599 95.305,78.169 94.884,75.685 96.148,72.759 96.989,69.17     96.779,65.581 96.568,62.213 96.989,58.845 97.2,56.803 97.672,54.594 96.358,54.151 95.937,51.226 96.148,47.195 92.938,44.933     91.252,43.332 89.307,42.006 87.15,40.459 84.622,39.964 81.152,38.859 79.888,37.312 77.52,36.597 73.257,35.713 70.259,34.607     68.573,35.492 65.995,36.375 62.575,36.154 61.05,36.649 59.576,37.312 57.84,38.196 55.944,37.976 55.733,39.743 54.419,40.68     51.842,41.122 50.156,41.785 48.631,43.111 47.578,43.827 45.842,44.933 43.947,45.374 40.737,46.7 39.894,47.637 38.792,48.742     37.738,50.562 36.003,51.667 34.107,52.552 31.951,56.361 31.951,57.519 32.583,59.95 31.528,61.329 30.476,63.098 29.372,65.581     29.162,67.181 28.53,70.77 28.53,73.2 28.951,77.284 30.687,80.157 31.108,83.525 32.792,87.114 33.686,89.155 35.371,91.861     37.317,92.082 39.685,94.071 41.158,95.891 42.633,97.492 43.105,96.555 44.579,99.038 46.947,101.522 49.946,103.511     52.473,103.511 54.84,105.111 57.208,105.774 60.84,106.658 63.206,106.438 66.626,106.658 69.206,106.879 72.625,107.595     75.835,108.259 80.94,108.259 83.519,108.037 86.097,107.321 89.518,107.374 92.095,106.216 95.937,104.67 99.146,102.849     101.725,101.743 102.146,99.26 104.935,97.217 106.619,95.671 106.619,94.124 106.83,92.966 107.091,91.419 108.355,88.714     109.198,86.673 109.408,83.746 108.987,81.095 109.198,80.378 110.933,77.284 111.144,74.138 110.933,71.874 111.987,69.833     111.987,66.687 112.408,64.477 111.564,62.213 111.987,59.95 113.25,56.582 113.511,54.373 110.933,55.698   " stroke="black" stroke-miterlimit="3.8637" stroke-width="0"/>
			
			
			
		
			
			
			
			
			
			
			
		
			
			
			
			
			
			
			
	
		
		
		</g>
		
		
		
	
		
		
		
		
		
		
	
		
		
		
		
		
		
		
	
		
		
		
		
		
		
	
		
		
		
		
		
		
	
		
		
		
		
		
		
	
		
		
		
		
		
		
	
		
		
		
		
		
		
	
		
		
		
		
		
		
	
		
		
		
		
		
		
	
		
		
		
		
		
		
	
		
		
		
		
		
		
	
		
		
		
		
		
		

	
	
	</g>
	
	
	



</svg>