<?xml version="1.0" encoding="iso-8859-1"?><!-- Generator: Adobe Illustrator 15.0.0, SVG Export Plug-In . SVG Version: 6.00 Build 0)  --><!DOCTYPE svg  PUBLIC '-//W3C//DTD SVG 1.1//EN'  'http://www.w3.org/Graphics/SVG/1.1/DTD/svg11.dtd'><svg enable-background="new 0 0 595.275 155.905" height="155.905px" version="1.1" viewBox="-148.81875 -38.97625 892.9124999999999 233.85750000000002" width="595.275px" x="0px" xml:space="preserve" xmlns="http://www.w3.org/2000/svg" xmlns:xlink="http://www.w3.org/1999/xlink" y="0px">
	
	
	

	
	
	<g id="Hintergrund">
</g>
	
	
	

	
	
	<g display="none" id="Hilfslinien">
</g>
	
	
	

	
	
	<g id="Vordergrund">
		
		
		
	
		
		
		<g>
			
			
			
		
			
			
			<g>
				
				
				
			
				
				
				
				
				
				
			
				
				
				
				
				
				
			
				
				
				
				
				
				
			
				
				
				<path animation_id="3" d="M157.278,87.557l6.962,26.625c0.995,3.824,1.378,5.661,1.837,8.416c0.459-2.755,1.071-5.509,1.912-8.646     l7.192-26.396H188.8l4.744,53.173h-10.481l-1.99-28.385c-0.229-3.366-0.382-6.044-0.382-8.875     c-0.613,3.061-1.072,4.973-1.99,8.187l-8.416,29.073h-9.104l-7.574-27.925c-0.688-2.603-1.607-6.352-2.143-9.411     c0,3.137-0.152,6.273-0.382,9.563l-1.836,27.772H138.61l4.973-53.173H157.278z" fill="#9D9D9C" stroke="black"/>
				
				
				
			
				
				
				
				
				
				
		
			
			
			</g>
			
			
			
		
			
			
			<g>
				
				
				
			
				
				
				
				
				
				
			
				
				
				
				
				
				
			
				
				
				
				
				
				
			
				
				
				
				
				
				
			
				
				
				
				
				
				
			
				
				
				
				
				
				
		
			
			
			</g>
			
			
			
		
			
			
			
			
			
			
			
	
		
		
		</g>
		
		
		

	
	
	</g>
	
	
	



</svg>