<?xml version="1.0" encoding="iso-8859-1"?><!-- Generator: Adobe Illustrator 15.0.0, SVG Export Plug-In . SVG Version: 6.00 Build 0)  --><!DOCTYPE svg  PUBLIC '-//W3C//DTD SVG 1.1//EN'  'http://www.w3.org/Graphics/SVG/1.1/DTD/svg11.dtd'><svg enable-background="new 0 0 595.275 255.118" height="255.118px" version="1.1" viewBox="-148.81875 -63.7795 892.9124999999999 382.677" width="595.275px" x="0px" xml:space="preserve" xmlns="http://www.w3.org/2000/svg" xmlns:xlink="http://www.w3.org/1999/xlink" y="0px">
	
	
	

	
	
	<g id="Hintergrund">
</g>
	
	
	

	
	
	<g id="Hilfslinien_anzeigen">
</g>
	
	
	

	
	
	<g id="Vordergrund">
		
		
		
	
		
		
		
		
		
		
	
		
		
		<g>
			
			
			
		
			
			
			
			
			
			
		
			
			
			
			
			
			
		
			
			
			<path animation_id="3" d="M213.849,226.513h-4.9c-1,0-1.601-0.6-1.601-1.5v-37.002c0-6.601-2.399-8.9-9.4-8.9    c-9.301,0-18.801,2.8-18.801,2.8v43.103c0,1-0.4,1.5-1.4,1.5h-4.9c-0.899,0-1.5-0.6-1.5-1.5v-37.002c0-6.601-2.5-8.9-9.501-8.9    c-9.3,0-18.7,2.8-18.7,2.8v43.103c0,0.9-0.501,1.5-1.4,1.5h-5c-0.9,0-1.501-0.6-1.501-1.5v-41.502c0-4.001,0.2-5.801,5.201-7.501    c5.2-1.8,15.2-3.3,21.601-3.3c6.301,0,10.801,1.2,13.602,3.8c5.6-2.2,16.4-3.8,22.501-3.8c11.9,0,17.201,3.7,17.201,14.4v37.902    C215.349,225.914,214.748,226.513,213.849,226.513z" fill="#004F9F" stroke="black"/>
			
			
			
		
			
			
			
			
			
			
		
			
			
			
			
			
			
		
			
			
			
			
			
			
		
			
			
			
			
			
			
		
			
			
			
			
			
			
		
			
			
			
			
			
			
	
		
		
		</g>
		
		
		

	
	
	</g>
	
	
	



</svg>