<?xml version="1.0" encoding="iso-8859-1"?><!-- Generator: Adobe Illustrator 15.0.0, SVG Export Plug-In . SVG Version: 6.00 Build 0)  --><!DOCTYPE svg  PUBLIC '-//W3C//DTD SVG 1.1//EN'  'http://www.w3.org/Graphics/SVG/1.1/DTD/svg11.dtd'><svg enable-background="new 0 0 595.275 637.795" height="637.795px" version="1.1" viewBox="-148.81875 -159.44875 892.9124999999999 956.6924999999999" width="595.275px" x="0px" xml:space="preserve" xmlns="http://www.w3.org/2000/svg" xmlns:xlink="http://www.w3.org/1999/xlink" y="0px">
	
	
	

	
	
	<g id="Hintergrund">
</g>
	
	
	

	
	
	<g display="none" id="Hilfslinien">
</g>
	
	
	

	
	
	<g id="Vordergrund">
		
		
		
	
		
		
		<g>
			
			
			
		
			
			
			<g>
				
				
				
			
				
				
				
				
				
				
			
				
				
				
				
				
				
			
				
				
				
				
				
				
			
				
				
				
				
				
				
			
				
				
				
				
				
				
			
				
				
				
				
				
				
			
				
				
				
				
				
				
			
				
				
				
				
				
				
			
				
				
				
				
				
				
			
				
				
				
				
				
				
			
				
				
				
				
				
				
		
			
			
			</g>
			
			
			
		
			
			
			<g>
				
				
				
			
				
				
				
				<polygon animation_id="11" clip-rule="evenodd" fill="#164194" fill-rule="evenodd" points="     262.571,23.968 267.603,22.626 271.35,19.942 272.356,18.265 277.054,17.259 280.745,16.192 284.828,15.188 287.846,14.853      292.544,15.188 296.488,16.923 300.317,17.929 302.33,15.858 306.356,15.858 311.446,16.192 319.162,18.265 323.245,21.284      329.619,22.962 332.975,25.981 337.059,29 343.096,30.399 345.109,32.749 349.192,36.438 351.205,40.8 351.542,42.536      353.554,48.574 356.237,53.271 358.25,58.36 358.979,62.388 361.327,66.413 363.005,71.839 363.341,75.864 363.005,80.618      361.664,82.297 359.65,82.968 358.979,86.323 359.986,89.342 359.65,92.755 358.979,95.438 359.314,99.464 359.65,102.148      358.979,104.22 357.916,108.581 355.566,111.265 353.218,112.271 350.87,114.283 349.864,117.696 347.85,120.046      346.509,120.046 342.426,122.729 344.438,125.077 342.761,127.761 336.052,133.188 331.296,134.864 328.277,134.864      323.917,134.528 321.232,136.869 317.821,136.869 313.123,139.226 311.782,140.233 306.691,142.974 304.008,144.315      300.653,144.987 294.222,145.323 290.531,145.658 286.505,145.658 282.422,143.645 279.402,141.632 275.041,140.903      272.022,140.567 268.274,138.89 263.913,133.858 259.216,132.181 254.797,131.174 252.113,129.497 247.751,125.077      247.751,123.063 246.745,119.71 241.991,115.962 238.972,111.6 237.629,107.575 232.875,102.483 232.875,99.129 233.547,96.444      230.863,91.019 231.198,84.31 232.541,77.878 231.869,76.199 230.191,71.167 230.528,64.735 231.535,56.013 232.875,54.671      235.282,51.258 236.958,52.601 238.972,50.251 239.308,46.562 240.65,43.877 242.998,41.136 246.411,38.452 247.082,34.761      250.436,31.07 254.797,26.316 259.216,26.316    " stroke="black" stroke-miterlimit="3.8637" stroke-width="0"/>
				
				
				
			
				
				
				
				
				
				
				
		
			
			
			</g>
			
			
			
	
		
		
		</g>
		
		
		

	
	
	</g>
	
	
	



</svg>