<?xml version="1.0" encoding="iso-8859-1"?><!-- Generator: Adobe Illustrator 15.0.0, SVG Export Plug-In . SVG Version: 6.00 Build 0)  --><!DOCTYPE svg  PUBLIC '-//W3C//DTD SVG 1.1//EN'  'http://www.w3.org/Graphics/SVG/1.1/DTD/svg11.dtd'><svg enable-background="new 0 0 595.275 595.275" height="595.275px" version="1.1" viewBox="-148.81875 -148.81875 892.9124999999999 892.9124999999999" width="595.275px" x="0px" xml:space="preserve" xmlns="http://www.w3.org/2000/svg" xmlns:xlink="http://www.w3.org/1999/xlink" y="0px">
	
	
	

	
	
	<g id="Hintergrund">
</g>
	
	
	

	
	
	<g display="none" id="Hilfslinien">
</g>
	
	
	

	
	
	<g id="Vordergrund">
		
		
		
	
		
		
		<g>
			
			
			
		
			
			
			<g>
				
				
				
			
				
				
				<g>
					
					
					
				
					
					
					
					
					
					
				
					
					
					
					
					
					
				
					
					
					
					
					
					
				
					
					
					
					
					
					
				
					
					
					
					
					
					
			
				
				
				</g>
				
				
				
			
				
				
				<g>
					
					
					
				
					
					
					
					
					
					
				
					
					
					
					
					
					
				
					
					
					
					
					
					
				
					
					
					
					
					
					
				
					
					
					
					
					
					
				
					
					
					
					
					
					
				
					
					
					
					
					
					
				
					
					
					
					
					
					
				
					
					
					
					
					
					
				
					
					
					
					
					
					
				
					
					
					
					
					
					
				
					
					
					
					
					
					
				
					
					
					
					
					
					
				
					
					
					
					
					
					
				
					
					
					
					
					
					
				
					
					
					
					
					
					
				
					
					
					
					
					
					
				
					
					
					
					
					
					
				
					
					
					
					
					
					
			
				
				
				</g>
				
				
				
		
			
			
			</g>
			
			
			
		
			
			
			
			<polygon animation_id="24" clip-rule="evenodd" fill="#76B82A" fill-rule="evenodd" points="    18.786,362.089 32.117,359.732 57.364,350.882 76.005,349.82 113.166,346.988 115.291,348.404 137.705,343.215 161.303,341.091     188.333,334.635 220.988,333.438 263.378,335.834 309.513,334.036 331.233,332.09 372.427,328.495 394.294,329.693     440.28,332.689 460.951,337.631 496.749,337.032 524.611,337.631 548.877,339.43 564.604,341.826 574.793,344.385     577.737,335.033 581.06,323.102 576.537,314.164 576.139,308.572 565.803,303.63 548.877,300.634 535.546,300.634 508.283,295.84     476.679,294.642 451.215,292.096 436.485,292.297 416.163,293.441 415.564,292.096 405.828,291.497 383.959,292.695     350.105,292.096 335.576,289.699 310.112,289.699 284.047,287.303 273.714,286.104 257.385,286.703 257.185,289.1     242.457,291.497 216.792,290.898 183.391,290.898 167.063,293.295 132.162,301.45 114.229,301.805 93.937,301.805 67.629,307.703     51.466,312.304 40.259,316.552 29.285,319.383 20.555,318.676 17.015,319.738 16.423,327.496 14.216,344.385   " stroke="black" stroke-miterlimit="3.8637" stroke-width="0"/>
			
			
			
		
			
			
			
			
			
			
			
		
			
			
			<g>
				
				
				
			
				
				
				
				
				
				
				
			
				
				
				
				
				
				
				
		
			
			
			</g>
			
			
			
		
			
			
			
			
			
			
			
		
			
			
			
			
			
			
			
	
		
		
		</g>
		
		
		

	
	
	</g>
	
	
	



</svg>