<?xml version="1.0" encoding="iso-8859-1"?><!-- Generator: Adobe Illustrator 15.0.0, SVG Export Plug-In . SVG Version: 6.00 Build 0)  --><!DOCTYPE svg  PUBLIC '-//W3C//DTD SVG 1.1//EN'  'http://www.w3.org/Graphics/SVG/1.1/DTD/svg11.dtd'><svg enable-background="new 0 0 595.275 320.315" height="320.315px" version="1.1" viewBox="-148.81875 -80.07875 892.9124999999999 480.47249999999997" width="595.275px" x="0px" xml:space="preserve" xmlns="http://www.w3.org/2000/svg" xmlns:xlink="http://www.w3.org/1999/xlink" y="0px">
	
	
	

	
	
	<g id="Hintergrund">
</g>
	
	
	

	
	
	<g display="none" id="Hilfslinien">
</g>
	
	
	

	
	
	<g id="Vordergrund">
		
		
		
	
		
		
		<g>
			
			
			
		
			
			
			<g>
				
				
				
			
				
				
				
				
				
				
			
				
				
				
				
				
				
			
				
				
				
				
				
				
			
				
				
				
				
				
				
			
				
				
				<path animation_id="4" d="M257.929,281.259c-5.211,4.24-10.689,6.271-17.049,6.271c-12.984,0-21.375-9.186-21.375-23.408     c0-8.127,1.678-13.516,5.653-17.932c3.709-4.15,8.214-6.095,14.222-6.095c5.211,0,10.157,1.767,13.072,4.771     c4.152,4.24,6.007,10.334,6.007,19.786c0,0.972,0,1.942,0,2.739h-26.147v0.352c0,6.979,3.446,10.953,9.54,10.953     c4.063,0,7.862-1.5,11.484-4.504L257.929,281.259z M246.18,258.733v-0.529c0-3.357-0.354-5.123-1.414-6.803     c-1.148-1.766-2.826-2.648-5.211-2.648c-4.505,0-7.067,3.532-7.067,9.805v0.176H246.18z" fill="#9D9D9C" stroke="black"/>
				
				
				
			
				
				
				
				
				
				
			
				
				
				
				
				
				
			
				
				
				
				
				
				
			
				
				
				
				
				
				
			
				
				
				
				
				
				
			
				
				
				
				
				
				
		
			
			
			</g>
			
			
			
		
			
			
			<g>
				
				
				
			
				
				
				
				
				
				
				
			
				
				
				
				
				
				
				
		
			
			
			</g>
			
			
			
	
		
		
		</g>
		
		
		

	
	
	</g>
	
	
	



</svg>