<?xml version="1.0" encoding="iso-8859-1"?><!-- Generator: Adobe Illustrator 15.0.0, SVG Export Plug-In . SVG Version: 6.00 Build 0)  --><!DOCTYPE svg  PUBLIC '-//W3C//DTD SVG 1.1//EN'  'http://www.w3.org/Graphics/SVG/1.1/DTD/svg11.dtd'><svg enable-background="new 0 0 595.275 320.315" height="320.315px" version="1.1" viewBox="-148.81875 -80.07875 892.9124999999999 480.47249999999997" width="595.275px" x="0px" xml:space="preserve" xmlns="http://www.w3.org/2000/svg" xmlns:xlink="http://www.w3.org/1999/xlink" y="0px">
	
	
	

	
	
	<g id="Hintergrund">
</g>
	
	
	

	
	
	<g display="none" id="Hilfslinien">
</g>
	
	
	

	
	
	<g id="Vordergrund">
		
		
		
	
		
		
		<g>
			
			
			
		
			
			
			<g>
				
				
				
			
				
				
				
				
				
				
			
				
				
				
				
				
				
			
				
				
				
				
				
				
			
				
				
				
				
				
				
			
				
				
				
				
				
				
			
				
				
				<path animation_id="5" d="M295.638,240.185c0.442,1.59,0.706,2.826,0.796,4.24c2.032-2.475,6.537-4.24,11.129-4.24     c3.181,0,6.448,1.061,8.922,2.738c4.858,3.268,8.391,9.098,8.391,19.521c0,9.716-1.59,14.663-6.271,19.697     c-3.092,3.269-7.155,5.123-12.102,5.123c-3.533,0-6.89-0.883-9.453-2.385c0.177,1.061,0.177,2.385,0.177,3.71v14.134     l-11.394,3.003v-52.293c0-5.918-0.089-7.597-0.707-11.394L295.638,240.185z M303.854,277.902c5.83,0,8.126-3.975,8.126-14.31     c0-4.328-0.353-7.773-1.147-9.982c-0.884-2.473-2.739-3.798-5.653-3.798c-2.915,0-5.741,1.237-7.861,3.445v21.993     C298.908,276.577,301.469,277.902,303.854,277.902z" fill="#9D9D9C" stroke="black"/>
				
				
				
			
				
				
				
				
				
				
			
				
				
				
				
				
				
			
				
				
				
				
				
				
			
				
				
				
				
				
				
			
				
				
				
				
				
				
		
			
			
			</g>
			
			
			
		
			
			
			<g>
				
				
				
			
				
				
				
				
				
				
				
			
				
				
				
				
				
				
				
		
			
			
			</g>
			
			
			
	
		
		
		</g>
		
		
		

	
	
	</g>
	
	
	



</svg>