<?xml version="1.0" encoding="iso-8859-1"?><!-- Generator: Adobe Illustrator 15.0.0, SVG Export Plug-In . SVG Version: 6.00 Build 0)  --><!DOCTYPE svg  PUBLIC '-//W3C//DTD SVG 1.1//EN'  'http://www.w3.org/Graphics/SVG/1.1/DTD/svg11.dtd'><svg enable-background="new 0 0 595.275 141.732" height="141.732px" version="1.1" viewBox="-148.81875 -35.433 892.9124999999999 212.598" width="595.275px" x="0px" xml:space="preserve" xmlns="http://www.w3.org/2000/svg" xmlns:xlink="http://www.w3.org/1999/xlink" y="0px">
	
	
	

	
	
	<g id="Hintergrund">
</g>
	
	
	

	
	
	<g display="none" id="Hilfslinien">
</g>
	
	
	

	
	
	<g id="Vordergrund">
		
		
		
	
		
		
		<g>
			
			
			
		
			
			
			
			
			
			
			
		
			
			
			
			
			
			
			
		
			
			
			
			
			
			
			
	
		
		
		</g>
		
		
		
	
		
		
		<path animation_id="0" clip-rule="evenodd" d="M179.834,52.009c-5.535,0-8.539,2.613-11.452,6.982l-0.3,0.233   l0.188-6.637c-2.058,0-3.947,0-6.116,0c-2.442,0.074-4.112,0.273-6.151,0.639l-0.002,3.772c2.145,0.107,4.053,0.241,6.253,0.818   v48.387c2.228,0,4.321,0,6.508,0l-0.017-17.514l0.288-0.091c5.196,0.62,12.783,0.226,17.132-2.979   C196.581,77.946,196.325,52.008,179.834,52.009z M178.904,83.076c-2.502,0.833-7.721,0.765-10.142-0.321   c-0.045-3.867,0-7.698-0.038-11.628c-0.024-2.566,0.451-5.154,1.614-7.48c1.792-3.584,8.648-9.365,12.663-4.749   C188.482,65.202,187.79,80.113,178.904,83.076z" fill="#9D9D9C" fill-rule="evenodd" stroke="black"/>
		
		
		
	
		
		
		
		
		
		
		
	
		
		
		
		
		
		
	
		
		
		
		
		
		
	
		
		
		
		
		
		
	
		
		
		
		
		
		
	
		
		
		
		
		
		
	
		
		
		
		
		
		
	
		
		
		
		
		
		
	
		
		
		
		
		
		
	
		
		
		
		
		
		
	
		
		
		
		
		
		

	
	
	</g>
	
	
	



</svg>