<?xml version="1.0" encoding="iso-8859-1"?><!-- Generator: Adobe Illustrator 15.0.0, SVG Export Plug-In . SVG Version: 6.00 Build 0)  --><!DOCTYPE svg  PUBLIC '-//W3C//DTD SVG 1.1//EN'  'http://www.w3.org/Graphics/SVG/1.1/DTD/svg11.dtd'><svg enable-background="new 0 0 595.275 147.401" height="147.401px" version="1.1" viewBox="-148.81875 -36.85025 892.9124999999999 221.10150000000002" width="595.275px" x="0px" xml:space="preserve" xmlns="http://www.w3.org/2000/svg" xmlns:xlink="http://www.w3.org/1999/xlink" y="0px">
	
	
	

	
	
	<g id="Hintergrund">
</g>
	
	
	

	
	
	<g display="none" id="Hilfslinien">
</g>
	
	
	

	
	
	<g id="Vordergrund">
		
		
		
	
		
		
		<g>
			
			
			
		
			
			
			<g>
				
				
				
			
				
				
				
				
				
				
			
				
				
				
				
				
				
			
				
				
				
				
				
				
			
				
				
				
				
				
				
			
				
				
				
				
				
				
			
				
				
				
				
				
				
			
				
				
				
				
				
				
			
				
				
				<path animation_id="7" d="M480.898,61.764c2.843,3.327,4.091,7.209,4.091,12.962c0,6.1-1.387,10.26-4.437,13.726     c-2.703,3.05-6.239,4.921-11.715,4.921c-9.635,0-15.942-7.209-15.942-18.369c0-11.159,6.377-18.577,15.942-18.577     C473.897,56.426,477.85,58.159,480.898,61.764z M464.193,66.894c-0.623,1.871-0.97,4.367-0.97,7.901     c0,4.09,0.416,7.14,1.178,8.942c0.832,1.94,2.912,2.911,4.714,2.911c4.021,0,5.753-3.604,5.753-11.992     c0-4.782-0.623-7.902-1.87-9.496c-0.901-1.179-2.357-1.872-4.021-1.872C466.759,63.288,464.956,64.675,464.193,66.894z" fill="#164194" stroke="black"/>
				
				
				
			
				
				
				
				
				
				
			
				
				
				
				
				
				
			
				
				
				
				
				
				
		
			
			
			</g>
			
			
			
		
			
			
			<g>
				
				
				
			
				
				
				
				
				
				
			
				
				
				
				
				
				
			
				
				
				
				
				
				
		
			
			
			</g>
			
			
			
	
		
		
		</g>
		
		
		

	
	
	</g>
	
	
	



</svg>