<?xml version="1.0" encoding="iso-8859-1"?><!-- Generator: Adobe Illustrator 15.0.0, SVG Export Plug-In . SVG Version: 6.00 Build 0)  --><!DOCTYPE svg  PUBLIC '-//W3C//DTD SVG 1.1//EN'  'http://www.w3.org/Graphics/SVG/1.1/DTD/svg11.dtd'><svg enable-background="new 0 0 595.275 141.732" height="141.732px" version="1.1" viewBox="-148.81875 -35.433 892.9124999999999 212.598" width="595.275px" x="0px" xml:space="preserve" xmlns="http://www.w3.org/2000/svg" xmlns:xlink="http://www.w3.org/1999/xlink" y="0px">
	
	
	

	
	
	<g id="Hintergrund">
</g>
	
	
	

	
	
	<g display="none" id="Hilfslinien">
</g>
	
	
	

	
	
	<g id="Vordergrund">
		
		
		
	
		
		
		<g>
			
			
			
		
			
			
			
			
			
			
			
		
			
			
			
			<polygon animation_id="13" clip-rule="evenodd" fill="#9D9D9C" fill-rule="evenodd" points="    127.675,18.701 125.311,22.51 125.181,28.328 124.947,33.143 123.364,36.874 118.345,35.804 114.809,33.143 110.905,31.729     105.828,30.927 100.099,30.66 95.589,30.492 89.767,29.525 84.747,28.188 78.523,26.327 71.995,26.584 64.543,27.193     64.777,26.327 58.426,27.193 53.513,27.654 48.465,27.842 43.89,27.922 40.524,27.922 32.847,28.724 27.827,30.393 23.224,31.996     17.968,30.927 14.366,23.846 17.732,22.776 20.152,21.108 22.278,18.701 24.935,16.23 27.591,15.429 31.665,15.429 32.333,14.212     39.342,14.626 43.653,15.429 49.911,16.766 57.114,15.964 63.137,16.499 68.628,17.3 74.887,17.033 83.272,16.499 88.25,15.562     92.659,14.626 97.207,15.161 101.753,15.161 107.776,14.626 113.504,14.894 119.29,16.766 123.6,18.434   " stroke="black" stroke-miterlimit="3.8637" stroke-width="0"/>
			
			
			
		
			
			
			
			
			
			
			
	
		
		
		</g>
		
		
		
	
		
		
		
		
		
		
	
		
		
		
		
		
		
		
	
		
		
		
		
		
		
	
		
		
		
		
		
		
	
		
		
		
		
		
		
	
		
		
		
		
		
		
	
		
		
		
		
		
		
	
		
		
		
		
		
		
	
		
		
		
		
		
		
	
		
		
		
		
		
		
	
		
		
		
		
		
		
	
		
		
		
		
		
		

	
	
	</g>
	
	
	



</svg>