<?xml version="1.0" encoding="iso-8859-1"?><!-- Generator: Adobe Illustrator 15.0.0, SVG Export Plug-In . SVG Version: 6.00 Build 0)  --><!DOCTYPE svg  PUBLIC '-//W3C//DTD SVG 1.1//EN'  'http://www.w3.org/Graphics/SVG/1.1/DTD/svg11.dtd'><svg enable-background="new 0 0 595.276 325.984" height="325.984px" id="Ebene_1" version="1.1" viewBox="-148.819 -81.496 892.914 488.976" width="595.276px" x="0px" xml:space="preserve" xmlns="http://www.w3.org/2000/svg" xmlns:xlink="http://www.w3.org/1999/xlink" y="0px">
	
	
	

	
	
	<g>
		
		
		
	
		
		
		
		
		
		
	
		
		
		
		
		
		
	
		
		
		
		
		
		
	
		
		
		<path animation_id="3" d="M366.637,190.021c0.375,10.998,8.875,15.748,18.749,15.748c7.125,0,12.126-1.125,16.874-2.75l2.25,10.5   c-5.249,2.25-12.498,3.875-21.248,3.875c-19.75,0-31.375-12.125-31.375-30.75c0-16.873,10.25-32.748,29.75-32.748   c19.748,0,26.248,16.25,26.248,29.623c0,2.877-0.25,5.125-0.499,6.502H366.637z M393.386,179.271   c0.124-5.625-2.375-14.875-12.624-14.875c-9.5,0-13.499,8.625-14.125,14.875H393.386z" fill="#1B3E90" stroke="black"/>
		
		
		
	
		
		
		
		
		
		

	
	
	</g>
	
	
	

	
	
	
	
	
	

	
	
	
	
	
	

	
	
	
	
	
	

	
	
	
	
	
	

	
	
	
	
	
	

	
	
	
	
	
	

	
	
	
	
	
	

	
	
	
	
	
	



</svg>