<?xml version="1.0" encoding="iso-8859-1"?><!-- Generator: Adobe Illustrator 15.0.0, SVG Export Plug-In . SVG Version: 6.00 Build 0)  --><!DOCTYPE svg  PUBLIC '-//W3C//DTD SVG 1.1//EN'  'http://www.w3.org/Graphics/SVG/1.1/DTD/svg11.dtd'><svg enable-background="new 0 0 595.275 255.118" height="255.118px" version="1.1" viewBox="-148.81875 -63.7795 892.9124999999999 382.677" width="595.275px" x="0px" xml:space="preserve" xmlns="http://www.w3.org/2000/svg" xmlns:xlink="http://www.w3.org/1999/xlink" y="0px">
	
	
	

	
	
	<g id="Hintergrund">
</g>
	
	
	

	
	
	<g id="Hilfslinien_anzeigen">
</g>
	
	
	

	
	
	<g id="Vordergrund">
		
		
		
	
		
		
		<g>
			
			
			
		
			
			
			
			
			
			
		
			
			
			
			
			
			
		
			
			
			<path animation_id="2" clip-rule="evenodd" d="M497.611,34.781c4.305,1.773,3.518,9.019,3.518,12.565    c-2.593,0.648-5.674,1.924-8.041,0l-1.006,2.011l-2.01,0.502c-1.094-0.893-2.495-1.554-3.809-2.038l-0.422,1.125l0.712,1.416    c-8.684,1.914-15.128,9.555-19.603,16.587c-1.773,2.786-4.9,6.68-2.01,10.052h2.01l2.011-1.508    c1.442,1.402,5.517,2.008,7.539,2.513l1.005-1.508v-2.01c-0.876-1.052-3.467-3.405-5.025-3.016l1.005-2.011    c0.858,0.926,2.726,1.977,4.021,2.011l1.006-1.508v-1.508c-0.812-0.975-1.886-1.923-3.016-2.513l0.502-2.011    c1.731-1.483,2.793-3.542,4.523-5.026c-0.127,5.457,9.791,11.835,13.068,15.581c-6.239,1.04-23.955,5.448-28.648,9.047    c-2.488-1.361-8.947-4.501-11.561-4.523c1.021-4.023,3.332-7.833,5.026-11.56c5.768-12.689,14.492-27.484,28.146-33.173    c3.159-1.316,6.69-1.53,10.052-2.01" fill="#FFFFFF" fill-rule="evenodd" stroke="black"/>
			
			
			
		
			
			
			
			
			
			
		
			
			
			
			
			
			
		
			
			
			
			
			
			
		
			
			
			
			
			
			
		
			
			
			
			
			
			
		
			
			
			
			
			
			
		
			
			
			
			
			
			
		
			
			
			
			
			
			
		
			
			
			
			
			
			
	
		
		
		</g>
		
		
		
	
		
		
		<g>
			
			
			
		
			
			
			
			
			
			
		
			
			
			
			
			
			
		
			
			
			
			
			
			
		
			
			
			
			
			
			
		
			
			
			
			
			
			
		
			
			
			
			
			
			
		
			
			
			
			
			
			
		
			
			
			
			
			
			
		
			
			
			
			
			
			
	
		
		
		</g>
		
		
		

	
	
	</g>
	
	
	



</svg>