<?xml version="1.0" encoding="iso-8859-1"?><!-- Generator: Adobe Illustrator 15.0.0, SVG Export Plug-In . SVG Version: 6.00 Build 0)  --><!DOCTYPE svg  PUBLIC '-//W3C//DTD SVG 1.1//EN'  'http://www.w3.org/Graphics/SVG/1.1/DTD/svg11.dtd'><svg enable-background="new 0 0 595.275 320.315" height="320.315px" version="1.1" viewBox="-148.81875 -80.07875 892.9124999999999 480.47249999999997" width="595.275px" x="0px" xml:space="preserve" xmlns="http://www.w3.org/2000/svg" xmlns:xlink="http://www.w3.org/1999/xlink" y="0px">
	
	
	

	
	
	<g id="Hintergrund">
</g>
	
	
	

	
	
	<g display="none" id="Hilfslinien">
</g>
	
	
	

	
	
	<g id="Vordergrund">
		
		
		
	
		
		
		<g>
			
			
			
		
			
			
			<g>
				
				
				
			
				
				
				
				
				
				
			
				
				
				
				
				
				
			
				
				
				
				
				
				
		
			
			
			</g>
			
			
			
		
			
			
			<g>
				
				
				
			
				
				
				
				
				
				
			
				
				
				
				
				
				
			
				
				
				
				
				
				
			
				
				
				
				
				
				
			
				
				
				
				
				
				
			
				
				
				
				
				
				
			
				
				
				
				
				
				
			
				
				
				<path animation_id="7" d="M435.734,238.839c4.134,4.839,5.947,10.482,5.947,18.85c0,8.87-2.016,14.918-6.45,19.957     c-3.932,4.436-9.072,7.156-17.035,7.156c-14.011,0-23.183-10.482-23.183-26.71c0-16.229,9.272-27.014,23.183-27.014     C425.554,231.078,431.3,233.599,435.734,238.839z M411.442,246.298c-0.907,2.723-1.411,6.351-1.411,11.492     c0,5.946,0.605,10.381,1.714,13.002c1.21,2.822,4.234,4.232,6.854,4.232c5.847,0,8.365-5.24,8.365-17.438     c0-6.955-0.907-11.49-2.721-13.809c-1.31-1.713-3.428-2.722-5.847-2.722C415.172,241.057,412.551,243.073,411.442,246.298z" fill="#164194" stroke="black"/>
				
				
				
			
				
				
				
				
				
				
			
				
				
				
				
				
				
			
				
				
				
				
				
				
		
			
			
			</g>
			
			
			
	
		
		
		</g>
		
		
		

	
	
	</g>
	
	
	



</svg>