<?xml version="1.0" encoding="iso-8859-1"?><!-- Generator: Adobe Illustrator 15.0.0, SVG Export Plug-In . SVG Version: 6.00 Build 0)  --><!DOCTYPE svg  PUBLIC '-//W3C//DTD SVG 1.1//EN'  'http://www.w3.org/Graphics/SVG/1.1/DTD/svg11.dtd'><svg enable-background="new 0 0 595.275 201.26" height="201.26px" version="1.1" viewBox="-148.81875 -50.315 892.9124999999999 301.89" width="595.275px" x="0px" xml:space="preserve" xmlns="http://www.w3.org/2000/svg" xmlns:xlink="http://www.w3.org/1999/xlink" y="0px">
	
	
	

	
	
	<g id="Hintergrund">
</g>
	
	
	

	
	
	<g display="none" id="Hilfslinien">
</g>
	
	
	

	
	
	<g id="Vordergrund">
		
		
		
	
		
		
		<g>
			
			
			
		
			
			
			
			
			
			
		
			
			
			<g>
				
				
				
			
				
				
				
				
				
				
			
				
				
				
				
				
				
			
				
				
				
				
				
				
			
				
				
				<path animation_id="4" d="M155.547,84.184c0.702,1.604,1.402,5.508,1.203,8.211c5.006-5.105,10.714-7.609,16.422-7.609     c5.208,0,8.913,2.303,9.413,7.609c5.507-5.506,11.116-7.609,16.524-7.609c5.707,0,10.314,3.004,10.314,10.615     c0,2.002-0.301,4.406-0.802,6.709l-7.41,35.049h-13.017l7.209-33.848c0.4-1.902,0.601-3.305,0.601-4.406     c0-2.203-0.9-2.904-3.304-2.904c-3.504,0-7.611,3.004-10.615,7.711l-7.109,33.447h-12.718l7.11-33.347     c0.5-2.202,0.701-3.806,0.701-5.007c0-2.104-0.901-2.805-3.205-2.805c-3.505,0-7.209,2.805-10.815,7.711l-7.11,33.447H135.82     l7.51-35.049c1.002-4.607,0.602-10.516-0.2-13.019L155.547,84.184z" fill="#9D9D9C" stroke="black"/>
				
				
				
			
				
				
				
				
				
				
			
				
				
				
				
				
				
			
				
				
				
				
				
				
			
				
				
				
				
				
				
			
				
				
				
				
				
				
			
				
				
				
				
				
				
			
				
				
				
				
				
				
		
			
			
			</g>
			
			
			
	
		
		
		</g>
		
		
		

	
	
	</g>
	
	
	



</svg>