<?xml version="1.0" encoding="iso-8859-1"?><!-- Generator: Adobe Illustrator 15.0.0, SVG Export Plug-In . SVG Version: 6.00 Build 0)  --><!DOCTYPE svg  PUBLIC '-//W3C//DTD SVG 1.1//EN'  'http://www.w3.org/Graphics/SVG/1.1/DTD/svg11.dtd'><svg enable-background="new 0 0 595.275 147.401" height="147.401px" version="1.1" viewBox="-148.81875 -36.85025 892.9124999999999 221.10150000000002" width="595.275px" x="0px" xml:space="preserve" xmlns="http://www.w3.org/2000/svg" xmlns:xlink="http://www.w3.org/1999/xlink" y="0px">
	
	
	

	
	
	<g id="Hintergrund">
</g>
	
	
	

	
	
	<g display="none" id="Hilfslinien">
</g>
	
	
	

	
	
	<g id="Vordergrund">
		
		
		
	
		
		
		<g>
			
			
			
		
			
			
			<g>
				
				
				
			
				
				
				
				
				
				
			
				
				
				
				
				
				
			
				
				
				
				
				
				
			
				
				
				
				
				
				
			
				
				
				
				
				
				
			
				
				
				
				
				
				
			
				
				
				
				
				
				
			
				
				
				
				
				
				
			
				
				
				
				
				
				
			
				
				
				
				
				
				
			
				
				
				
				
				
				
		
			
			
			</g>
			
			
			
		
			
			
			<g>
				
				
				
			
				
				
				
				
				
				
			
				
				
				
				
				
				
			
				
				
				<polyline animation_id="13" clip-rule="evenodd" fill="#164194" fill-rule="evenodd" points="65.061,72.267 64.577,71.896 64.002,71.352      63.559,70.747 63.221,70.118 63.019,69.591 62.774,68.947 62.636,68.307 62.518,67.688 62.42,66.861 62.441,65.98 62.635,65.164      62.947,64.292 63.315,63.54 63.628,62.668 63.94,61.796 64.134,60.979 64.961,60.595 65.787,60.209 66.67,59.942 67.552,59.677      68.622,58.888 69.635,57.979 70.705,57.189 71.773,56.401 72.843,55.611 73.969,54.941 75.15,54.391 76.441,54.079      77.845,54.005 79.186,54.106 79.707,54.299 80.29,54.317 80.874,54.336 81.52,54.18 82.048,54.078 82.514,54.151 83.034,54.344      83.437,54.592 85.3,54.886 87.224,55.005 89.148,55.124 91.073,55.243 92.998,55.362 94.977,55.601 96.838,55.895 98.812,56.427      100.778,57.252 102.683,58.252 103.6,58.985 104.58,59.545 105.615,60.225 106.594,60.784 107.574,61.344 108.672,61.849      109.652,62.408 110.75,62.912 111.848,63.417 112.946,63.922 112.938,64.215 113.105,64.573 113.807,64.537 114.397,64.261      114.988,63.986 115.522,63.592 116.057,63.197 116.592,62.802 117.182,62.526 117.772,62.251 117.571,63.362 117.079,64.463      116.593,65.271 115.871,66.188 115.267,67.051 114.315,67.785 113.537,68.583 112.705,69.262 111.87,69.941 111.093,70.739      110.183,72.18 109.218,73.501 108.197,74.704 107.059,75.961 105.863,77.099 104.67,78.235 103.419,79.255 102.169,80.273      100.802,81.347 99.551,82.366 98.147,82.439 96.682,82.687 95.391,82.999 93.981,83.366 92.625,83.853 91.27,84.339      89.798,84.88 88.444,85.366 87.026,86.027 85.672,86.515 83.562,86.918 81.512,87.147 79.296,87.02 77.142,86.717 74.995,86.121      72.911,85.35 71.006,84.35 69.047,83.23 67.367,81.901 65.843,80.368 65.286,79.623 64.848,78.798 64.557,77.918 64.46,77.092      64.424,76.396 64.432,75.798 64.563,75.156 64.695,74.514 64.795,73.743 64.855,73.066    " stroke="black"/>
				
				
				
		
			
			
			</g>
			
			
			
	
		
		
		</g>
		
		
		

	
	
	</g>
	
	
	



</svg>