<?xml version="1.0" encoding="iso-8859-1"?><!-- Generator: Adobe Illustrator 15.0.0, SVG Export Plug-In . SVG Version: 6.00 Build 0)  --><!DOCTYPE svg  PUBLIC '-//W3C//DTD SVG 1.1//EN'  'http://www.w3.org/Graphics/SVG/1.1/DTD/svg11.dtd'><svg enable-background="new 0 0 595.275 127.559" height="127.559px" version="1.1" viewBox="-148.81875 -31.88975 892.9124999999999 191.3385" width="595.275px" x="0px" xml:space="preserve" xmlns="http://www.w3.org/2000/svg" xmlns:xlink="http://www.w3.org/1999/xlink" y="0px">
	
	
	

	
	
	<g id="Hintergrund">
</g>
	
	
	

	
	
	<g display="none" id="Hilfslinien">
</g>
	
	
	

	
	
	<g id="Vordergrund">
		
		
		
	
		
		
		<g>
			
			
			
		
			
			
			
			
			
			
		
			
			
			
			
			
			
		
			
			
			
			
			
			
		
			
			
			
			
			
			
		
			
			
			
			
			
			
		
			
			
			
			
			
			
		
			
			
			<path animation_id="6" clip-rule="evenodd" d="M518.751,31.725V15.07h62.293v16.692    c0,1.7-0.61,3.147-1.832,4.338c-1.22,1.19-2.663,1.786-4.325,1.786c-1.709,0-3.185-0.604-4.433-1.812    c-1.245-1.208-1.868-2.632-1.868-4.274v-4.421h-12.46v78.941c0,1.714-0.61,3.171-1.831,4.369c-1.221,1.199-2.662,1.8-4.325,1.8    c-1.759,0-3.248-0.601-4.471-1.8c-1.221-1.198-1.831-2.655-1.831-4.369V27.379h-12.609v4.334c0,1.716-0.599,3.173-1.795,4.373    c-1.197,1.2-2.65,1.801-4.359,1.801s-3.162-0.6-4.359-1.798C519.35,34.891,518.751,33.436,518.751,31.725z" fill="#225CAC" fill-rule="evenodd" stroke="black"/>
			
			
			
	
		
		
		</g>
		
		
		

	
	
	</g>
	
	
	

	
	
	<g id="Foreground">
</g>
	
	
	



</svg>