<?xml version="1.0" encoding="iso-8859-1"?><!-- Generator: Adobe Illustrator 15.0.0, SVG Export Plug-In . SVG Version: 6.00 Build 0)  --><!DOCTYPE svg  PUBLIC '-//W3C//DTD SVG 1.1//EN'  'http://www.w3.org/Graphics/SVG/1.1/DTD/svg11.dtd'><svg enable-background="new 0 0 595.275 320.315" height="320.315px" version="1.1" viewBox="-148.81875 -80.07875 892.9124999999999 480.47249999999997" width="595.275px" x="0px" xml:space="preserve" xmlns="http://www.w3.org/2000/svg" xmlns:xlink="http://www.w3.org/1999/xlink" y="0px">
	
	
	

	
	
	<g id="Hintergrund">
</g>
	
	
	

	
	
	<g display="none" id="Hilfslinien">
</g>
	
	
	

	
	
	<g id="Vordergrund">
		
		
		
	
		
		
		<g>
			
			
			
		
			
			
			<g>
				
				
				
			
				
				
				
				
				
				
			
				
				
				
				
				
				
			
				
				
				
				
				
				
		
			
			
			</g>
			
			
			
		
			
			
			<g>
				
				
				
			
				
				
				
				
				
				
			
				
				
				
				
				
				
			
				
				
				
				
				
				
			
				
				
				
				
				
				
			
				
				
				<path animation_id="4" d="M258.828,277.948c-5.946,4.838-12.196,7.156-19.453,7.156c-14.818,0-24.393-10.482-24.393-26.711     c0-9.273,1.915-15.422,6.451-20.462c4.234-4.737,9.374-6.954,16.229-6.954c5.946,0,11.591,2.016,14.917,5.442     c4.738,4.839,6.854,11.794,6.854,22.578c0,1.109,0,2.218,0,3.125h-29.835v0.403c0,7.963,3.932,12.498,10.886,12.498     c4.637,0,8.97-1.713,13.104-5.141L258.828,277.948z M245.423,252.245v-0.604c0-3.83-0.402-5.847-1.612-7.761     c-1.311-2.017-3.226-3.024-5.947-3.024c-5.141,0-8.064,4.032-8.064,11.188v0.201H245.423z" fill="#164194" stroke="black"/>
				
				
				
			
				
				
				
				
				
				
			
				
				
				
				
				
				
			
				
				
				
				
				
				
			
				
				
				
				
				
				
			
				
				
				
				
				
				
			
				
				
				
				
				
				
		
			
			
			</g>
			
			
			
	
		
		
		</g>
		
		
		

	
	
	</g>
	
	
	



</svg>