<?xml version="1.0" encoding="iso-8859-1"?><!-- Generator: Adobe Illustrator 15.0.0, SVG Export Plug-In . SVG Version: 6.00 Build 0)  --><!DOCTYPE svg  PUBLIC '-//W3C//DTD SVG 1.1//EN'  'http://www.w3.org/Graphics/SVG/1.1/DTD/svg11.dtd'><svg enable-background="new 0 0 595.275 235.275" height="235.275px" version="1.1" viewBox="-148.81875 -58.81875 892.9124999999999 352.9125" width="595.275px" x="0px" xml:space="preserve" xmlns="http://www.w3.org/2000/svg" xmlns:xlink="http://www.w3.org/1999/xlink" y="0px">
	
	
	

	
	
	<g id="Hintergrund">
</g>
	
	
	

	
	
	<g display="none" id="Hilfslinien">
</g>
	
	
	

	
	
	<g id="Vordergrund">
		
		
		
	
		
		
		<g>
			
			
			
		
			
			
			<g>
				
				
				
			
				
				
				
				
				
				
			
				
				
				
				
				
				
			
				
				
				
				
				
				
			
				
				
				
				
				
				
			
				
				
				
				
				
				
			
				
				
				<path animation_id="5" d="M295.921,149.805c0.477,1.716,0.763,3.052,0.858,4.577c2.194-2.67,7.056-4.577,12.015-4.577     c3.434,0,6.961,1.144,9.631,2.956c5.243,3.527,9.058,9.821,9.058,21.072c0,10.488-1.716,15.828-6.77,21.264     c-3.338,3.528-7.723,5.53-13.063,5.53c-3.814,0-7.437-0.954-10.203-2.573c0.191,1.143,0.191,2.573,0.191,4.004v15.256     l-12.3,3.242v-56.449c0-6.389-0.095-8.199-0.763-12.3L295.921,149.805z M304.789,190.52c6.293,0,8.773-4.29,8.773-15.446     c0-4.673-0.382-8.392-1.24-10.775c-0.954-2.67-2.956-4.1-6.103-4.1s-6.197,1.335-8.488,3.718v23.743     C299.449,189.089,302.215,190.52,304.789,190.52z" fill="#9D9D9C" stroke="black"/>
				
				
				
			
				
				
				
				
				
				
			
				
				
				
				
				
				
			
				
				
				
				
				
				
			
				
				
				
				
				
				
			
				
				
				
				
				
				
		
			
			
			</g>
			
			
			
		
			
			
			
			
			
			
			
		
			
			
			
			
			
			
			
	
		
		
		</g>
		
		
		

	
	
	</g>
	
	
	



</svg>