<?xml version="1.0" encoding="iso-8859-1"?><!-- Generator: Adobe Illustrator 15.0.0, SVG Export Plug-In . SVG Version: 6.00 Build 0)  --><!DOCTYPE svg  PUBLIC '-//W3C//DTD SVG 1.1//EN'  'http://www.w3.org/Graphics/SVG/1.1/DTD/svg11.dtd'><svg enable-background="new 0 0 595.275 235.275" height="235.275px" version="1.1" viewBox="-148.81875 -58.81875 892.9124999999999 352.9125" width="595.275px" x="0px" xml:space="preserve" xmlns="http://www.w3.org/2000/svg" xmlns:xlink="http://www.w3.org/1999/xlink" y="0px">
	
	
	

	
	
	<g id="Hintergrund">
</g>
	
	
	

	
	
	<g display="none" id="Hilfslinien">
</g>
	
	
	

	
	
	<g id="Vordergrund">
		
		
		
	
		
		
		<g>
			
			
			
		
			
			
			<g>
				
				
				
			
				
				
				
				
				
				
			
				
				
				
				
				
				
			
				
				
				
				
				
				
			
				
				
				<path animation_id="3" d="M146.604,149.899c0.858,1.335,1.24,2.48,1.716,4.959c3.338-3.242,7.438-4.959,11.919-4.959     c4.005,0,7.342,1.335,9.917,4.005c0.667,0.667,1.334,1.526,1.907,2.384c4.482-4.576,8.485-6.389,13.826-6.389     c3.814,0,7.438,1.145,9.631,3.052c2.765,2.384,3.623,5.244,3.623,11.919v34.708h-12.396v-32.229c0-5.815-0.667-6.961-4.004-6.961     c-2.384,0-5.721,1.622-8.487,4.101v35.09h-12.109v-31.752c0-6.103-0.858-7.533-4.385-7.533c-2.385,0-5.626,1.24-8.392,3.719     v35.566h-12.491v-34.04c0-7.057-0.477-10.107-1.812-12.491L146.604,149.899z" fill="#9D9D9C" stroke="black"/>
				
				
				
			
				
				
				
				
				
				
			
				
				
				
				
				
				
			
				
				
				
				
				
				
			
				
				
				
				
				
				
			
				
				
				
				
				
				
			
				
				
				
				
				
				
			
				
				
				
				
				
				
		
			
			
			</g>
			
			
			
		
			
			
			
			
			
			
			
		
			
			
			
			
			
			
			
	
		
		
		</g>
		
		
		

	
	
	</g>
	
	
	



</svg>