<?xml version="1.0" encoding="iso-8859-1"?><!-- Generator: Adobe Illustrator 15.0.0, SVG Export Plug-In . SVG Version: 6.00 Build 0)  --><!DOCTYPE svg  PUBLIC '-//W3C//DTD SVG 1.1//EN'  'http://www.w3.org/Graphics/SVG/1.1/DTD/svg11.dtd'><svg enable-background="new 0 0 595.275 320.315" height="320.315px" version="1.1" viewBox="-148.81875 -80.07875 892.9124999999999 480.47249999999997" width="595.275px" x="0px" xml:space="preserve" xmlns="http://www.w3.org/2000/svg" xmlns:xlink="http://www.w3.org/1999/xlink" y="0px">
	
	
	

	
	
	<g id="Hintergrund">
</g>
	
	
	

	
	
	<g display="none" id="Hilfslinien">
</g>
	
	
	

	
	
	<g id="Vordergrund">
		
		
		
	
		
		
		<g>
			
			
			
		
			
			
			<g>
				
				
				
			
				
				
				
				
				
				
			
				
				
				
				
				
				
			
				
				
				
				
				
				
			
				
				
				<path animation_id="3" d="M157.324,240.272c0.794,1.237,1.148,2.297,1.59,4.594c3.091-3.004,6.889-4.594,11.04-4.594     c3.711,0,6.803,1.237,9.188,3.71c0.618,0.618,1.237,1.413,1.767,2.208c4.151-4.24,7.862-5.918,12.809-5.918     c3.532,0,6.889,1.061,8.92,2.826c2.562,2.209,3.357,4.859,3.357,11.043v32.152h-11.483v-29.856c0-5.388-0.619-6.448-3.709-6.448     c-2.208,0-5.3,1.502-7.861,3.799v32.506h-11.219v-29.415c0-5.653-0.794-6.978-4.064-6.978c-2.207,0-5.211,1.148-7.772,3.445     v32.947h-11.571v-31.535c0-6.537-0.442-9.363-1.679-11.571L157.324,240.272z" fill="#9D9D9C" stroke="black"/>
				
				
				
			
				
				
				
				
				
				
			
				
				
				
				
				
				
			
				
				
				
				
				
				
			
				
				
				
				
				
				
			
				
				
				
				
				
				
			
				
				
				
				
				
				
			
				
				
				
				
				
				
		
			
			
			</g>
			
			
			
		
			
			
			<g>
				
				
				
			
				
				
				
				
				
				
				
			
				
				
				
				
				
				
				
		
			
			
			</g>
			
			
			
	
		
		
		</g>
		
		
		

	
	
	</g>
	
	
	



</svg>