<?xml version="1.0" encoding="iso-8859-1"?><!-- Generator: Adobe Illustrator 15.0.0, SVG Export Plug-In . SVG Version: 6.00 Build 0)  --><!DOCTYPE svg  PUBLIC '-//W3C//DTD SVG 1.1//EN'  'http://www.w3.org/Graphics/SVG/1.1/DTD/svg11.dtd'><svg enable-background="new 0 0 595.275 141.732" height="141.732px" version="1.1" viewBox="-148.81875 -35.433 892.9124999999999 212.598" width="595.275px" x="0px" xml:space="preserve" xmlns="http://www.w3.org/2000/svg" xmlns:xlink="http://www.w3.org/1999/xlink" y="0px">
	
	
	

	
	
	<g id="Hintergrund">
</g>
	
	
	

	
	
	<g display="none" id="Hilfslinien">
</g>
	
	
	

	
	
	<g id="Vordergrund">
		
		
		
	
		
		
		<g>
			
			
			
		
			
			
			
			
			
			
			
		
			
			
			
			
			
			
			
		
			
			
			
			<polygon animation_id="14" clip-rule="evenodd" fill="#9D9D9C" fill-rule="evenodd" points="    16.292,110.966 22.427,111.184 30.076,112.276 35.977,113.587 40.661,114.824 43.336,114.294 47.366,114.73 57.822,116.041     68.042,118.06 76.86,118.06 80.891,117.404 85.856,117.404 91.812,117.842 96.311,117.186 98.471,116.041 102.268,114.513     105.831,114.076 112.534,112.007 116.815,110.342 120.436,109.521 122.763,107.649 126.172,103.726 127.675,108.947     125.982,113.15 125.515,116.697 126.506,118.715 123.411,120.951 116.987,120.951 112.957,122.044 109.159,122.262     103.671,123.354 100.342,124.062 98.471,124.717 94.429,125.444 88.457,125.239 88.669,126.061 81.403,126.882 77.358,127.521     73.526,127.521 66.918,126.061 63.721,125.444 61.581,125.444 58.383,125.444 52.858,125.034 48.79,123.779 45.262,123.136     40.708,122.262 36.445,122.262 31.713,122.262 27.215,120.515 22.951,120.025 20.323,119.151 17.695,118.278 14.366,114.949   " stroke="black" stroke-miterlimit="3.8637" stroke-width="0"/>
			
			
			
	
		
		
		</g>
		
		
		
	
		
		
		
		
		
		
	
		
		
		
		
		
		
		
	
		
		
		
		
		
		
	
		
		
		
		
		
		
	
		
		
		
		
		
		
	
		
		
		
		
		
		
	
		
		
		
		
		
		
	
		
		
		
		
		
		
	
		
		
		
		
		
		
	
		
		
		
		
		
		
	
		
		
		
		
		
		
	
		
		
		
		
		
		

	
	
	</g>
	
	
	



</svg>