<?xml version="1.0" encoding="iso-8859-1"?><!-- Generator: Adobe Illustrator 15.0.0, SVG Export Plug-In . SVG Version: 6.00 Build 0)  --><!DOCTYPE svg  PUBLIC '-//W3C//DTD SVG 1.1//EN'  'http://www.w3.org/Graphics/SVG/1.1/DTD/svg11.dtd'><svg enable-background="new 0 0 595.275 147.401" height="147.401px" version="1.1" viewBox="-148.81875 -36.85025 892.9124999999999 221.10150000000002" width="595.275px" x="0px" xml:space="preserve" xmlns="http://www.w3.org/2000/svg" xmlns:xlink="http://www.w3.org/1999/xlink" y="0px">
	
	
	

	
	
	<g id="Hintergrund">
</g>
	
	
	

	
	
	<g display="none" id="Hilfslinien">
</g>
	
	
	

	
	
	<g id="Vordergrund">
		
		
		
	
		
		
		<g>
			
			
			
		
			
			
			<g>
				
				
				
			
				
				
				
				
				
				
			
				
				
				
				
				
				
			
				
				
				
				
				
				
			
				
				
				
				
				
				
			
				
				
				
				
				
				
			
				
				
				<path animation_id="5" d="M388.148,56.426c0.347,1.248,0.554,2.219,0.623,3.327c1.595-1.94,5.129-3.327,8.735-3.327     c2.495,0,5.06,0.832,7.001,2.149c3.812,2.564,6.585,7.139,6.585,15.319c0,7.625-1.248,11.506-4.922,15.457     c-2.427,2.564-5.614,4.021-9.496,4.021c-2.774,0-5.407-0.692-7.417-1.871c0.139,0.831,0.139,1.871,0.139,2.911v11.091     l-8.942,2.356V66.824c0-4.645-0.069-5.962-0.555-8.942L388.148,56.426z M394.596,86.025c4.573,0,6.377-3.12,6.377-11.23     c0-3.396-0.277-6.1-0.901-7.833c-0.693-1.94-2.15-2.98-4.437-2.98c-2.288,0-4.506,0.971-6.169,2.704v17.26     C390.713,84.985,392.723,86.025,394.596,86.025z" fill="#164194" stroke="black"/>
				
				
				
			
				
				
				
				
				
				
			
				
				
				
				
				
				
			
				
				
				
				
				
				
			
				
				
				
				
				
				
			
				
				
				
				
				
				
		
			
			
			</g>
			
			
			
		
			
			
			<g>
				
				
				
			
				
				
				
				
				
				
			
				
				
				
				
				
				
			
				
				
				
				
				
				
		
			
			
			</g>
			
			
			
	
		
		
		</g>
		
		
		

	
	
	</g>
	
	
	



</svg>