<?xml version="1.0" encoding="iso-8859-1"?><!-- Generator: Adobe Illustrator 15.0.0, SVG Export Plug-In . SVG Version: 6.00 Build 0)  --><!DOCTYPE svg  PUBLIC '-//W3C//DTD SVG 1.1//EN'  'http://www.w3.org/Graphics/SVG/1.1/DTD/svg11.dtd'><svg enable-background="new 0 0 595.276 291.969" height="291.969px" id="Ebene_1" version="1.1" viewBox="-148.819 -72.99225 892.914 437.95349999999996" width="595.276px" x="0px" xml:space="preserve" xmlns="http://www.w3.org/2000/svg" xmlns:xlink="http://www.w3.org/1999/xlink" y="0px">
	
	
	

	
	
	
	
	
	

	
	
	
	
	
	

	
	
	
	
	
	

	
	
	
	
	
	

	
	
	
	
	
	

	
	
	<g>
		
		
		
	
		
		
		
		
		
		
	
		
		
		
		
		
		
	
		
		
		
		
		
		
	
		
		
		
		
		
		
	
		
		
		
		
		
		
	
		
		
		
		
		
		
	
		
		
		
		
		
		
	
		
		
		
		
		
		
	
		
		
		
		
		
		
	
		
		
		
		
		
		
	
		
		
		
		
		
		
	
		
		
		
		
		
		
	
		
		
		<path animation_id="17" d="M383.033,278.812c3.144,0,3.764-0.664,3.764-4.119v-19.037c0-3.453-0.62-4.117-3.764-4.117v-1.107h11.423   c5.269,0,11.335,1.549,11.335,7.438c0,5.623-3.144,6.908-6.687,7.66l5.269,9.342c1.594,2.789,2.259,3.941,4.562,3.941v1.105h-6.775   l-7.792-13.725h-2.701v8.5c0,3.455,0.62,4.119,3.764,4.119v1.105h-12.396V278.812z M391.666,264.156h2.701   c3.984,0,6.376-1.682,6.376-5.711c0-4.738-2.746-5.977-6.287-5.977c-2.523,0-2.79,0.664-2.79,3.188V264.156z" stroke="black"/>
		
		
		

	
	
	</g>
	
	
	

	
	
	<g>
		
		
		
	
		
		
		
		
		
		
	
		
		
		
		
		
		
	
		
		
		
		
		
		
	
		
		
		
		
		
		
	
		
		
		
		
		
		

	
	
	</g>
	
	
	



</svg>