<?xml version="1.0" encoding="iso-8859-1"?><!-- Generator: Adobe Illustrator 15.0.0, SVG Export Plug-In . SVG Version: 6.00 Build 0)  --><!DOCTYPE svg  PUBLIC '-//W3C//DTD SVG 1.1//EN'  'http://www.w3.org/Graphics/SVG/1.1/DTD/svg11.dtd'><svg enable-background="new 0 0 595.275 215.433" height="215.433px" version="1.1" viewBox="-148.81875 -53.85825 892.9124999999999 323.1495" width="595.275px" x="0px" xml:space="preserve" xmlns="http://www.w3.org/2000/svg" xmlns:xlink="http://www.w3.org/1999/xlink" y="0px">
	
	
	

	
	
	<g id="Hintergrund">
</g>
	
	
	

	
	
	<g display="none" id="Hilfslinien">
</g>
	
	
	

	
	
	<g id="Vordergrund">
		
		
		
	
		
		
		<g>
			
			
			
		
			
			
			<g>
				
				
				
			
				
				
				
				
				
				
				
			
				
				
				
				
				
				
				
			
				
				
				
				
				
				
				
		
			
			
			</g>
			
			
			
		
			
			
			<g>
				
				
				
			
				
				
				
				
				
				
			
				
				
				
				
				
				
			
				
				
				
				
				
				
			
				
				
				
				
				
				
			
				
				
				<path animation_id="4" d="M212.802,139.106c-4.822,3.924-9.889,5.803-15.772,5.803c-12.014,0-19.777-8.499-19.777-21.656     c0-7.519,1.553-12.504,5.23-16.59c3.432-3.841,7.6-5.639,13.157-5.639c4.822,0,9.398,1.634,12.096,4.413     c3.841,3.923,5.556,9.562,5.556,18.306c0,0.898,0,1.798,0,2.533h-24.189v0.326c0,6.457,3.187,10.135,8.825,10.135     c3.76,0,7.273-1.389,10.625-4.168L212.802,139.106z M201.932,118.268v-0.49c0-3.105-0.327-4.739-1.307-6.293     c-1.062-1.634-2.614-2.451-4.822-2.451c-4.168,0-6.538,3.269-6.538,9.071v0.163H201.932z" fill="#9D9D9C" stroke="black"/>
				
				
				
		
			
			
			</g>
			
			
			
		
			
			
			<g>
				
				
				
			
				
				
				
				
				
				
			
				
				
				
				
				
				
			
				
				
				
				
				
				
			
				
				
				
				
				
				
			
				
				
				
				
				
				
			
				
				
				
				
				
				
		
			
			
			</g>
			
			
			
	
		
		
		</g>
		
		
		

	
	
	</g>
	
	
	



</svg>