<?xml version="1.0" encoding="iso-8859-1"?><!-- Generator: Adobe Illustrator 15.0.0, SVG Export Plug-In . SVG Version: 6.00 Build 0)  --><!DOCTYPE svg  PUBLIC '-//W3C//DTD SVG 1.1//EN'  'http://www.w3.org/Graphics/SVG/1.1/DTD/svg11.dtd'><svg enable-background="new 0 0 595.275 119.055" height="119.055px" version="1.1" viewBox="-148.81875 -29.76375 892.9124999999999 178.5825" width="595.275px" x="0px" xml:space="preserve" xmlns="http://www.w3.org/2000/svg" xmlns:xlink="http://www.w3.org/1999/xlink" y="0px">
	
	
	

	
	
	<g id="Hintergrund">
</g>
	
	
	

	
	
	<g display="none" id="Hilfslinien">
</g>
	
	
	

	
	
	<g id="Vordergrund">
		
		
		
	
		
		
		<g>
			
			
			
		
			
			
			
			
			
			
		
			
			
			
			
			
			
			
		
			
			
			
			
			
			
		
			
			
			
			
			
			
		
			
			
			
			
			
			
		
			
			
			
			
			
			
		
			
			
			<path animation_id="5" clip-rule="evenodd" d="M501.586,33.016c-6.57,0-10.136,3.103-13.594,8.289l-0.357,0.277    l0.227-7.878c-2.445,0-4.687,0-7.262,0c-2.9,0.087-4.882,0.325-7.302,0.757l-0.003,4.479c2.546,0.126,4.812,0.285,7.423,0.971    v57.437c2.645,0,5.129,0,7.727,0l-0.022-20.789l0.343-0.108c6.167,0.736,15.174,0.268,20.338-3.536    C521.464,63.806,521.159,33.016,501.586,33.016z M500.48,69.893c-2.97,0.99-9.166,0.909-12.04-0.379    c-0.052-4.591,0-9.139-0.043-13.804c-0.029-3.047,0.535-6.118,1.915-8.879c2.127-4.255,10.266-11.116,15.032-5.637    C511.85,48.677,511.028,66.377,500.48,69.893z" fill="#9D9D9C" fill-rule="evenodd" stroke="black"/>
			
			
			
		
			
			
			
			
			
			
		
			
			
			
			
			
			
		
			
			
			
			
			
			
		
			
			
			
			
			
			
		
			
			
			<g>
				
				
				
			
				
				
				
				
				
				
				
			
				
				
				
				
				
				
				
		
			
			
			</g>
			
			
			
	
		
		
		</g>
		
		
		

	
	
	</g>
	
	
	



</svg>