<?xml version="1.0" encoding="iso-8859-1"?><!-- Generator: Adobe Illustrator 15.0.0, SVG Export Plug-In . SVG Version: 6.00 Build 0)  --><!DOCTYPE svg  PUBLIC '-//W3C//DTD SVG 1.1//EN'  'http://www.w3.org/Graphics/SVG/1.1/DTD/svg11.dtd'><svg enable-background="new 0 0 595.275 255.118" height="255.118px" version="1.1" viewBox="-148.81875 -63.7795 892.9124999999999 382.677" width="595.275px" x="0px" xml:space="preserve" xmlns="http://www.w3.org/2000/svg" xmlns:xlink="http://www.w3.org/1999/xlink" y="0px">
	
	
	

	
	
	<g id="Hintergrund">
</g>
	
	
	

	
	
	<g id="Hilfslinien_anzeigen">
</g>
	
	
	

	
	
	<g id="Vordergrund">
		
		
		
	
		
		
		
		
		
		
	
		
		
		<g>
			
			
			
		
			
			
			
			
			
			
		
			
			
			
			
			
			
		
			
			
			
			
			
			
		
			
			
			<path animation_id="4" d="M258.745,227.814c-6.001,0-11.601-0.9-15.201-1.9l1.101,5.9v13.101c0,0.8-0.501,1.1-1.2,1.3l-5.4,1.301    h-0.301c-0.699,0-1-0.7-1-1.301V183.71c0-4.1,0.2-5.9,5.201-7.7c5.2-1.9,12.9-3.3,19.4-3.3c18.002,0,20.901,11.2,20.901,27.602    C282.246,219.713,276.946,227.814,258.745,227.814z M259.245,179.21c-6.001,0-14.601,2.4-14.601,2.4v38.103    c0,0,5.5,1.899,14,1.899c11.501,0,15.401-5.3,15.401-21.101C274.046,181.51,268.945,179.21,259.245,179.21z" fill="#004F9F" stroke="black"/>
			
			
			
		
			
			
			
			
			
			
		
			
			
			
			
			
			
		
			
			
			
			
			
			
		
			
			
			
			
			
			
		
			
			
			
			
			
			
	
		
		
		</g>
		
		
		

	
	
	</g>
	
	
	



</svg>