<?xml version="1.0" encoding="iso-8859-1"?><!-- Generator: Adobe Illustrator 15.0.0, SVG Export Plug-In . SVG Version: 6.00 Build 0)  --><!DOCTYPE svg  PUBLIC '-//W3C//DTD SVG 1.1//EN'  'http://www.w3.org/Graphics/SVG/1.1/DTD/svg11.dtd'><svg enable-background="new 0 0 595.275 595.275" height="595.275px" version="1.1" viewBox="-148.81875 -148.81875 892.9124999999999 892.9124999999999" width="595.275px" x="0px" xml:space="preserve" xmlns="http://www.w3.org/2000/svg" xmlns:xlink="http://www.w3.org/1999/xlink" y="0px">
	
	
	

	
	
	<g id="Hintergrund">
</g>
	
	
	

	
	
	<g display="none" id="Hilfslinien">
</g>
	
	
	

	
	
	<g id="Vordergrund">
		
		
		
	
		
		
		<g>
			
			
			
		
			
			
			<g>
				
				
				
			
				
				
				<g>
					
					
					
				
					
					
					
					
					
					
				
					
					
					
					
					
					
				
					
					
					
					
					
					
				
					
					
					
					
					
					
				
					
					
					
					
					
					
			
				
				
				</g>
				
				
				
			
				
				
				<g>
					
					
					
				
					
					
					
					
					
					
				
					
					
					
					
					
					
				
					
					
					
					
					
					
				
					
					
					
					
					
					
				
					
					
					
					
					
					
				
					
					
					
					
					
					
				
					
					
					
					
					
					
				
					
					
					
					
					
					
				
					
					
					
					
					
					
				
					
					
					
					
					
					
				
					
					
					
					
					
					
				
					
					
					
					
					
					
				
					
					
					
					
					
					
				
					
					
					<path animation_id="18" d="M419.441,580.255c0,0.744-0.125,0.867-0.868,0.867h-2.726c-0.579,0-0.704-0.082-0.951-0.578l-7.562-14.09      c-1.238-2.314-1.94-3.761-2.354-5.619h-0.083c0,0.537,0.123,2.644,0.123,4.545v14.875c0,0.744-0.163,0.867-0.866,0.867h-3.016      c-0.703,0-0.869-0.123-0.869-0.867v-26.568c0-0.744,0.166-0.868,0.869-0.868h3.388c0.62,0,0.702,0.082,0.95,0.537l6.818,12.809      c1.156,2.191,1.94,4.298,2.437,5.991h0.084c0-1.322-0.124-4.213-0.124-5.37v-13.099c0-0.744,0.164-0.868,0.867-0.868h3.016      c0.702,0,0.868,0.124,0.868,0.868V580.255z" stroke="black"/>
					
					
					
				
					
					
					
					
					
					
				
					
					
					
					
					
					
				
					
					
					
					
					
					
				
					
					
					
					
					
					
				
					
					
					
					
					
					
			
				
				
				</g>
				
				
				
		
			
			
			</g>
			
			
			
		
			
			
			
			
			
			
			
		
			
			
			
			
			
			
			
		
			
			
			<g>
				
				
				
			
				
				
				
				
				
				
				
			
				
				
				
				
				
				
				
		
			
			
			</g>
			
			
			
		
			
			
			
			
			
			
			
		
			
			
			
			
			
			
			
	
		
		
		</g>
		
		
		

	
	
	</g>
	
	
	



</svg>