<?xml version="1.0" encoding="iso-8859-1"?><!-- Generator: Adobe Illustrator 15.0.0, SVG Export Plug-In . SVG Version: 6.00 Build 0)  --><!DOCTYPE svg  PUBLIC '-//W3C//DTD SVG 1.1//EN'  'http://www.w3.org/Graphics/SVG/1.1/DTD/svg11.dtd'><svg enable-background="new 0 0 595.275 147.402" height="147.402px" version="1.1" viewBox="-148.81875 -36.8505 892.9124999999999 221.10299999999998" width="595.275px" x="0px" xml:space="preserve" xmlns="http://www.w3.org/2000/svg" xmlns:xlink="http://www.w3.org/1999/xlink" y="0px">
	
	
	

	
	
	<g id="Hintergrund">
</g>
	
	
	

	
	
	<g display="none" id="Hilfslinien">
</g>
	
	
	

	
	
	<g id="Vordergrund">
		
		
		
	
		
		
		<g>
			
			
			
		
			
			
			<g>
				
				
				
			
				
				
				<path animation_id="0" d="M23.281,52.494c0.379,1.362,0.606,2.423,0.683,3.634c1.742-2.119,5.604-3.634,9.542-3.634     c2.727,0,5.529,0.908,7.649,2.347c4.166,2.803,7.195,7.801,7.195,16.738c0,8.331-1.363,12.572-5.378,16.889     c-2.65,2.803-6.134,4.393-10.375,4.393c-3.029,0-5.908-0.757-8.104-2.045c0.151,0.908,0.151,2.045,0.151,3.182v12.117     l-9.77,2.575V63.854c0-5.075-0.076-6.514-0.606-9.771L23.281,52.494z M30.325,84.833c4.999,0,6.968-3.408,6.968-12.27     c0-3.711-0.303-6.665-0.985-8.558c-0.756-2.121-2.347-3.257-4.847-3.257c-2.499,0-4.923,1.06-6.739,2.953v18.858     C26.085,83.696,28.28,84.833,30.325,84.833z" fill="#9D9D9C" stroke="black"/>
				
				
				
			
				
				
				
				
				
				
			
				
				
				
				
				
				
			
				
				
				
				
				
				
			
				
				
				
				
				
				
		
			
			
			</g>
			
			
			
		
			
			
			<g>
				
				
				
			
				
				
				
				
				
				
			
				
				
				
				
				
				
			
				
				
				
				
				
				
		
			
			
			</g>
			
			
			
		
			
			
			<g>
				
				
				
			
				
				
				
				
				
				
			
				
				
				
				
				
				
			
				
				
				
				
				
				
			
				
				
				
				
				
				
			
				
				
				
				
				
				
			
				
				
				
				
				
				
		
			
			
			</g>
			
			
			
	
		
		
		</g>
		
		
		

	
	
	</g>
	
	
	



</svg>