<?xml version="1.0" encoding="iso-8859-1"?><!-- Generator: Adobe Illustrator 15.0.0, SVG Export Plug-In . SVG Version: 6.00 Build 0)  --><!DOCTYPE svg  PUBLIC '-//W3C//DTD SVG 1.1//EN'  'http://www.w3.org/Graphics/SVG/1.1/DTD/svg11.dtd'><svg enable-background="new 0 0 595.275 127.559" height="127.559px" version="1.1" viewBox="-148.81875 -31.88975 892.9124999999999 191.3385" width="595.275px" x="0px" xml:space="preserve" xmlns="http://www.w3.org/2000/svg" xmlns:xlink="http://www.w3.org/1999/xlink" y="0px">
	
	
	

	
	
	<g id="Hintergrund">
</g>
	
	
	

	
	
	<g display="none" id="Hilfslinien">
</g>
	
	
	

	
	
	<g id="Vordergrund">
		
		
		
	
		
		
		<g>
			
			
			
		
			
			
			<path animation_id="0" clip-rule="evenodd" d="M76.376,21.374v91.115H59.891L26.54,36.835v69.497    c0,1.709-0.598,3.163-1.795,4.36c-1.197,1.198-2.649,1.797-4.358,1.797c-1.71,0-3.162-0.599-4.359-1.796    c-1.197-1.196-1.795-2.65-1.795-4.361V15.07h16.401l33.283,75.503V21.374c0-1.71,0.624-3.188,1.87-4.436    c1.246-1.245,2.725-1.868,4.433-1.868c1.711,0,3.165,0.61,4.361,1.833C75.777,18.125,76.376,19.615,76.376,21.374z" fill="#225CAC" fill-rule="evenodd" stroke="black"/>
			
			
			
		
			
			
			
			
			
			
		
			
			
			
			
			
			
		
			
			
			
			
			
			
		
			
			
			
			
			
			
		
			
			
			
			
			
			
		
			
			
			
			
			
			
	
		
		
		</g>
		
		
		

	
	
	</g>
	
	
	

	
	
	<g id="Foreground">
</g>
	
	
	



</svg>