<?xml version="1.0" encoding="iso-8859-1"?><!-- Generator: Adobe Illustrator 15.0.0, SVG Export Plug-In . SVG Version: 6.00 Build 0)  --><!DOCTYPE svg  PUBLIC '-//W3C//DTD SVG 1.1//EN'  'http://www.w3.org/Graphics/SVG/1.1/DTD/svg11.dtd'><svg enable-background="new 0 0 595.275 119.055" height="119.055px" version="1.1" viewBox="-148.81875 -29.76375 892.9124999999999 178.5825" width="595.275px" x="0px" xml:space="preserve" xmlns="http://www.w3.org/2000/svg" xmlns:xlink="http://www.w3.org/1999/xlink" y="0px">
	
	
	

	
	
	<g id="Hintergrund">
</g>
	
	
	

	
	
	<g display="none" id="Hilfslinien">
</g>
	
	
	

	
	
	<g id="Vordergrund">
		
		
		
	
		
		
		<g>
			
			
			
		
			
			
			
			
			
			
		
			
			
			
			
			
			
			
		
			
			
			
			
			
			
		
			
			
			
			
			
			
		
			
			
			
			
			
			
		
			
			
			
			
			
			
		
			
			
			
			
			
			
		
			
			
			
			
			
			
		
			
			
			
			
			
			
		
			
			
			
			
			
			
		
			
			
			
			
			
			
		
			
			
			<g>
				
				
				
			
				
				
				
				<polygon animation_id="11" clip-rule="evenodd" fill="#164194" fill-rule="evenodd" points="     220.098,75.767 221.774,76.271 223.451,76.271 224.801,76.744 226.897,77.255 228.945,77.255 230.762,76.744 232.53,76.836      234.347,76.836 237.094,77.675 238.956,77.535 241.099,77.255 243.613,76.976 243.845,76.271 245.103,75.626 247.06,75.347      248.967,73.811 251.063,71.762 252.272,69.666 252.832,67.06 252.272,66.081 252.272,64.731 253.112,62.496 253.251,60.448      252.272,58.911 252.133,57.374 253.251,56.815 253.112,55.326 252.272,51.183 251.762,49.021 251.854,47.179 250.504,46.061      248.688,42.196 247.338,40.567 245.801,38.729 244.404,36.284 242.775,35.865 240.818,34.463 238.956,32.866 236.256,32.866      232.67,32.279 228.387,32.866 225.499,32.866 223.172,32.42 220.936,33.707 218.608,33.707 215.722,34.463 212.788,36.423      213.487,37.074 212.369,38.191 210.181,39.525 208.503,39.525 207.805,40.707 207.573,41.917 206.455,43.174 205.059,44.292      203.29,46.479 203.01,47.877 202.312,49.785 200.773,52.021 199.564,54.665 199.285,56.584 200.076,56.955 199.564,58.772      198.586,61.798 198.866,63.754 197.609,67.199 197.748,70.644 198.167,73.251 199.006,76.271 199.564,79.91 200.773,83.774      202.591,85.543 203.94,86.242 203.709,86.939 204.359,88.617 205.059,89.687 206.734,90.804 208.783,92.481 209.761,94.25      211.298,95.228 213.487,95.786 215.024,96.765 216.512,98.114 219.168,98.812 220.936,99.651 223.312,100.489 226.059,101.419      227.736,101.28 229.923,101.699 231.46,102.677 232.95,103.236 236.395,103.795 238.956,105.005 242.495,104.864      243.752,104.354 245.661,103.935 249.386,103.655 251.762,102.537 254.789,101.979 256.836,101.838 259.491,101.979 263.217,101      264.147,99.931 266.802,98.394 268.571,97.348 269.409,96.206 271.366,95.367 274.252,94.25 276.161,92.992 277.837,92.341      278.256,91.225 279.885,89.826 281.701,87.778 283.1,85.962 286.405,84.054 287.662,82.237 288.173,80.608 289.291,78.513      290.269,77.255 291.526,75.486 292.597,72.32 293.575,72.832 294.692,70.365 295.252,67.479 295.903,65.661 296.042,63.194      296.881,62.077 298.139,57.653 298.697,54.069 298.837,51.323 298.278,47.598 298.837,44.292 299.396,39.525 300.326,37.354      300.467,35.026 300.188,33.707 299.257,32.866 298.418,34.463 296.741,35.726 295.903,37.772 295.531,39.912 295.112,42.476      293.575,45.223 293.157,48.017 293.016,50.764 291.898,53.79 291.387,56.584 290.688,59.33 291.667,59.33 291.108,61.239      289.291,64.964 288.312,66.36 287.243,69.107 286.125,71.062 283.378,73.53 281.143,75.347 278.256,78.792 276.3,81.119      274.112,81.399 272.295,82.377 269.828,83.355 267.641,84.473 265.684,86.242 264.706,86.939 262.099,89.128 260.142,89.128      257.535,89.128 255.347,89.966 253.81,91.084 250.784,93.132 247.618,93.551 244.684,93.551 242.495,92.202 240.399,92.202      238.072,92.341 236.116,93.132 232.95,92.062 231.46,90.525 230.063,89.547 227.736,89.128 225.499,88.757 224.102,88.338      223.032,87.22 220.377,86.521 217.491,84.844 216.792,83.355 215.954,81.679 215.303,79.77 214.604,79.351 214.045,77.954      212.788,77.675 212.788,76.271 212.508,72.972 213.067,71.343 213.487,69.107 213.207,65.661 212.788,63.894 212.369,60.959      212.648,58.353 213.346,56.584 215.443,55.605 215.722,53.929 216.233,51.881 216.093,49.925 216.931,48.296 218.469,46.619      219.726,45.223 221.355,44.013 223.032,43.873 224.661,43.174 227.177,42.895 229.503,43.733 231.46,45.223 234.766,45.362      237.233,45.642 239.98,46.76 241.237,47.877 241.937,50.065 242.495,52.301 243.845,53.79 242.914,57.515 242.636,59.61      241.518,61.798 240.959,64.312 240.959,66.641 239.469,69.107 237.793,70.365 235.836,70.505 233.788,70.784 232.53,70.225      230.622,70.365 228.805,71.343 226.478,72.32 223.963,71.343 222.473,71.622 221.216,72.972 220.936,74.229 219.958,74.648         " stroke="black" stroke-miterlimit="3.8637" stroke-width="0"/>
				
				
				
			
				
				
				
				
				
				
				
		
			
			
			</g>
			
			
			
	
		
		
		</g>
		
		
		

	
	
	</g>
	
	
	



</svg>