<?xml version="1.0" encoding="iso-8859-1"?><!-- Generator: Adobe Illustrator 15.0.0, SVG Export Plug-In . SVG Version: 6.00 Build 0)  --><!DOCTYPE svg  PUBLIC '-//W3C//DTD SVG 1.1//EN'  'http://www.w3.org/Graphics/SVG/1.1/DTD/svg11.dtd'><svg enable-background="new 0 0 595.276 189.921" height="189.921px" id="Ebene_1" version="1.1" viewBox="-148.819 -47.48025 892.914 284.88149999999996" width="595.276px" x="0px" xml:space="preserve" xmlns="http://www.w3.org/2000/svg" xmlns:xlink="http://www.w3.org/1999/xlink" y="0px">
	
	
	

	
	
	<g>
		
		
		
	
		
		
		<g>
			
			
			
		
			
			
			
			
			
			
		
			
			
			
			
			
			
		
			
			
			
			
			
			
		
			
			
			
			
			
			
		
			
			
			
			
			
			
		
			
			
			
			
			
			
		
			
			
			
			
			
			
		
			
			
			
			
			
			
		
			
			
			
			
			
			
		
			
			
			<g>
				
				
				
			
				
				
				
				
				
				
			
				
				
				
				
				
				
			
				
				
				
				
				
				
			
				
				
				
				
				
				
			
				
				
				
				
				
				
			
				
				
				
				
				
				
			
				
				
				
				
				
				
			
				
				
				
				
				
				
			
				
				
				
				
				
				
			
				
				
				
				
				
				
			
				
				
				
				
				
				
			
				
				
				
				
				
				
			
				
				
				
				
				
				
			
				
				
				
				
				
				
			
				
				
				<path animation_id="23" d="M460.7,163.475c3.189,0,4.123-0.979,4.123-4.735v-12.794c0-3.864-1.979-4.354-4.123-4.354v-1.197l9.678-1.307v6.424     h0.109c1.264-2.232,3.793-6.424,9.016-6.424c5.609,0,6.652,3.103,6.652,7.24v12.412c0,3.756,0.936,4.735,4.123,4.735v1.198     h-13.799v-1.198c3.189,0,4.123-0.979,4.123-4.735v-8.003c0-6.587-0.824-8.328-3.518-8.328c-3.189,0-6.707,5.661-6.707,9.036     v7.295c0,3.756,0.934,4.735,4.123,4.735v1.198H460.7V163.475z" stroke="black"/>
				
				
				
			
				
				
				
				
				
				
			
				
				
				
				
				
				
			
				
				
				
				
				
				
		
			
			
			</g>
			
			
			
	
		
		
		</g>
		
		
		

	
	
	</g>
	
	
	



</svg>