<?xml version="1.0" encoding="iso-8859-1"?><!-- Generator: Adobe Illustrator 15.0.0, SVG Export Plug-In . SVG Version: 6.00 Build 0)  --><!DOCTYPE svg  PUBLIC '-//W3C//DTD SVG 1.1//EN'  'http://www.w3.org/Graphics/SVG/1.1/DTD/svg11.dtd'><svg enable-background="new 0 0 595.275 320.315" height="320.315px" version="1.1" viewBox="-148.81875 -80.07875 892.9124999999999 480.47249999999997" width="595.275px" x="0px" xml:space="preserve" xmlns="http://www.w3.org/2000/svg" xmlns:xlink="http://www.w3.org/1999/xlink" y="0px">
	
	
	

	
	
	<g id="Hintergrund">
</g>
	
	
	

	
	
	<g display="none" id="Hilfslinien">
</g>
	
	
	

	
	
	<g id="Vordergrund">
		
		
		
	
		
		
		<g>
			
			
			
		
			
			
			<g>
				
				
				
			
				
				
				
				
				
				
			
				
				
				
				
				
				
			
				
				
				
				
				
				
			
				
				
				
				
				
				
			
				
				
				
				
				
				
			
				
				
				
				
				
				
			
				
				
				
				
				
				
			
				
				
				
				
				
				
			
				
				
				<path animation_id="8" d="M449.411,240.185c0.441,1.59,0.706,2.826,0.796,4.24c2.031-2.475,6.536-4.24,11.13-4.24     c3.179,0,6.446,1.061,8.92,2.738c4.858,3.268,8.393,9.098,8.393,19.521c0,9.716-1.591,14.663-6.271,19.697     c-3.092,3.269-7.155,5.123-12.103,5.123c-3.532,0-6.89-0.883-9.451-2.385c0.177,1.061,0.177,2.385,0.177,3.71v14.134     l-11.394,3.003v-52.293c0-5.918-0.09-7.597-0.707-11.394L449.411,240.185z M457.625,277.902c5.831,0,8.128-3.975,8.128-14.31     c0-4.328-0.354-7.773-1.148-9.982c-0.884-2.473-2.739-3.798-5.654-3.798s-5.741,1.237-7.86,3.445v21.993     C452.681,276.577,455.241,277.902,457.625,277.902z" fill="#9D9D9C" stroke="black"/>
				
				
				
			
				
				
				
				
				
				
			
				
				
				
				
				
				
		
			
			
			</g>
			
			
			
		
			
			
			<g>
				
				
				
			
				
				
				
				
				
				
				
			
				
				
				
				
				
				
				
		
			
			
			</g>
			
			
			
	
		
		
		</g>
		
		
		

	
	
	</g>
	
	
	



</svg>