<?xml version="1.0" encoding="iso-8859-1"?><!-- Generator: Adobe Illustrator 15.0.0, SVG Export Plug-In . SVG Version: 6.00 Build 0)  --><!DOCTYPE svg  PUBLIC '-//W3C//DTD SVG 1.1//EN'  'http://www.w3.org/Graphics/SVG/1.1/DTD/svg11.dtd'><svg enable-background="new 0 0 595.275 198.425" height="198.425px" version="1.1" viewBox="-148.81875 -49.60625 892.9124999999999 297.63750000000005" width="595.275px" x="0px" xml:space="preserve" xmlns="http://www.w3.org/2000/svg" xmlns:xlink="http://www.w3.org/1999/xlink" y="0px">
	
	
	

	
	
	<g id="Hintergrund">
</g>
	
	
	

	
	
	<g display="none" id="Hilfslinien">
</g>
	
	
	

	
	
	<g id="Vordergrund">
		
		
		
	
		
		
		<g>
			
			
			
		
			
			
			
			
			
			
			
		
			
			
			
			
			
			
			
		
			
			
			<g>
				
				
				
			
				
				
				<g>
					
					
					
				
					
					
					
					
					
					
				
					
					
					
					
					
					
				
					
					
					<path animation_id="2" d="M428.374,94.142c-0.252,0.629-0.88,1.132-1.005,1.132c-0.378,0-6.534-3.267-14.576-3.267      c-4.773,0-8.292,1.759-8.292,6.03c0,6.785,11.309,6.282,20.229,12.188c4.899,3.267,8.417,8.042,8.417,15.329      c0,11.56-8.167,20.229-21.485,20.229c-9.297,0-23.621-4.774-23.621-8.166c0-0.378,0.504-1.132,0.629-1.635l2.764-7.161      c0.253-0.628,0.503-1.131,1.006-1.131c0.502,0,10.177,5.528,17.968,5.528c4.146,0,7.663-1.759,7.663-6.282      c0-7.288-12.312-7.288-20.605-12.815c-3.769-2.513-7.413-6.911-7.413-14.198c0-11.434,8.67-20.479,22.239-20.479      c7.664,0,19.602,3.267,19.602,6.156c0,0.377-0.377,1.131-0.629,1.634L428.374,94.142z" stroke="black"/>
					
					
					
				
					
					
					
					
					
					
				
					
					
					
					
					
					
			
				
				
				</g>
				
				
				
			
				
				
				<g>
					
					
					
				
					
					
					
					
					
					
				
					
					
					
					
					
					
				
					
					
					
					
					
					
				
					
					
					
					
					
					
				
					
					
					
					
					
					
				
					
					
					
					
					
					
				
					
					
					
					
					
					
				
					
					
					
					
					
					
				
					
					
					
					
					
					
				
					
					
					
					
					
					
				
					
					
					
					
					
					
				
					
					
					
					
					
					
				
					
					
					
					
					
					
				
					
					
					
					
					
					
				
					
					
					
					
					
					
				
					
					
					
					
					
					
				
					
					
					
					
					
					
				
					
					
					
					
					
					
				
					
					
					
					
					
					
			
				
				
				</g>
				
				
				
		
			
			
			</g>
			
			
			
		
			
			
			
			
			
			
		
			
			
			
			
			
			
		
			
			
			
			
			
			
			
	
		
		
		</g>
		
		
		

	
	
	</g>
	
	
	



</svg>