<?xml version="1.0" encoding="iso-8859-1"?><!-- Generator: Adobe Illustrator 22.1.0, SVG Export Plug-In . SVG Version: 6.00 Build 0)  --><svg id="Ebene_1" style="enable-background:new 0 0 300 173;" version="1.1" viewBox="0 0 300 173" x="0px" xml:space="preserve" xmlns="http://www.w3.org/2000/svg" xmlns:xlink="http://www.w3.org/1999/xlink" y="0px">
	

	<style type="text/css">
	.st0{fill:#F9423A;}
	.st1{fill:#222221;}
</style>
	

	<g>
		
	
		
		
	
		
		

	</g>
	

	<g>
		
	
		
		
	
		
		
	
		
		
	
		
		
	
		
		
	
		
		
	
		
		
	
		
		
	
		
		
	
		<path animation_id="9" class="st1" d="M184.4,101.8c0.1,1.2,1,2.3,2.7,2.3c1.3,0,2-0.7,2-1.6c0-0.7-0.5-1.3-1.6-1.5l-2-0.4c-2.4-0.5-3.6-2.1-3.6-3.9   c0-2.4,2.2-4.3,5-4.3c3.8,0,5,2.4,5.2,3.8l-2.7,0.8c-0.1-0.8-0.7-2-2.5-2c-1.1,0-1.9,0.7-1.9,1.6c0,0.7,0.5,1.2,1.4,1.4l2.1,0.4   c2.5,0.6,3.9,2.1,3.9,4.1c0,2-1.7,4.3-5.1,4.3c-3.9,0-5.4-2.5-5.6-4.1L184.4,101.8z" stroke="black"/>
		
	
		
		
	
		
		
	
		
		
	
		
		
	
		
		
	
		
		
	
		
		
	
		
		
	
		
		
	
		
		
	
		
		
	
		
		

	</g>
	

</svg>