<?xml version="1.0" encoding="iso-8859-1"?><!-- Generator: Adobe Illustrator 22.1.0, SVG Export Plug-In . SVG Version: 6.00 Build 0)  --><svg id="Ebene_1" style="enable-background:new 0 0 300 173;" version="1.1" viewBox="0 0 300 173" x="0px" xml:space="preserve" xmlns="http://www.w3.org/2000/svg" xmlns:xlink="http://www.w3.org/1999/xlink" y="0px">
	

	<style type="text/css">
	.st0{fill:#F9423A;}
	.st1{fill:#222221;}
</style>
	

	<g>
		
	
		
		
	
		
		

	</g>
	

	<g>
		
	
		
		
	
		
		
	
		<path animation_id="2" class="st1" d="M185.2,75.3c0,1.2,0.1,2.2,0.1,2.5h-3.1c-0.1-0.3-0.1-1.2-0.1-1.7c-0.6,1.1-2.1,2.1-4,2.1   c-3.9,0-6.5-3-6.5-7.1c0-3.9,2.6-7.1,6.4-7.1c2.4,0,3.5,1.1,4,1.9v-8.1h3.1V75.3z M178.5,75.3c2.1,0,3.6-1.7,3.6-4.3   c0-2.6-1.4-4.2-3.5-4.2c-2.1,0-3.7,1.6-3.7,4.2C174.9,73.6,176.3,75.3,178.5,75.3z" stroke="black"/>
		
	
		
		
	
		
		
	
		
		
	
		
		
	
		
		
	
		
		
	
		
		
	
		
		
	
		
		
	
		
		
	
		
		
	
		
		
	
		
		
	
		
		
	
		
		
	
		
		
	
		
		
	
		
		
	
		
		

	</g>
	

</svg>