<?xml version="1.0" encoding="iso-8859-1"?><!-- Generator: Adobe Illustrator 22.1.0, SVG Export Plug-In . SVG Version: 6.00 Build 0)  --><svg id="Ebene_1" style="enable-background:new 0 0 300 173;" version="1.1" viewBox="0 0 300 173" x="0px" xml:space="preserve" xmlns="http://www.w3.org/2000/svg" xmlns:xlink="http://www.w3.org/1999/xlink" y="0px">
	

	<style type="text/css">
	.st0{fill:#F9423A;}
	.st1{fill:#222221;}
</style>
	

	<g>
		
	
		
		
	
		
		

	</g>
	

	<g>
		
	
		
		
	
		
		
	
		
		
	
		
		
	
		
		
	
		<path animation_id="5" class="st1" d="M222.6,77.8c0.2,1.7,1.5,2.9,3.4,2.9c2.5,0,3.8-1.3,3.8-4v-1.4c-0.6,1.1-1.9,2-3.9,2c-3.6,0-6.2-2.8-6.2-6.6   c0-3.6,2.5-6.6,6.2-6.6c2.1,0,3.4,0.9,4,2v-1.7h3.1v12.2c0,3.6-1.9,7-6.9,7c-3.6,0-6.1-2.2-6.4-4.9L222.6,77.8z M229.9,70.6   c0-2.3-1.5-3.8-3.5-3.8c-2.1,0-3.5,1.5-3.5,3.8c0,2.4,1.4,3.8,3.5,3.8C228.5,74.4,229.9,72.9,229.9,70.6z" stroke="black"/>
		
	
		
		
	
		
		
	
		
		
	
		
		
	
		
		
	
		
		
	
		
		
	
		
		
	
		
		
	
		
		
	
		
		
	
		
		
	
		
		
	
		
		
	
		
		
	
		
		

	</g>
	

</svg>