<?xml version="1.0" encoding="iso-8859-1"?><!-- Created with Inkscape (http://www.inkscape.org/) --><svg height="287.00787" id="svg2351" version="1.0" width="814.96063" xmlns="http://www.w3.org/2000/svg" xmlns:svg="http://www.w3.org/2000/svg">
	
  
	<defs id="defs2353"/>
	
  
	<g id="layer1" transform="translate(19.900137,-423.57538)">
		
    
		<g id="g2364" transform="translate(17.716528,17.792832)">
			
      
			
			
      
			
			
      
			
			
      
			<path animation_id="3" d="M 718.93614,515.89763 L 713.32354,515.89763 L 713.32354,510.59262 L 719.40384,510.59262 C 720.57314,510.59262 722.59984,510.79375 722.59984,513.2074 C 722.59984,515.5205 720.72904,515.89763 718.93614,515.89763 z M 724.93844,522.48488 L 724.78254,519.66896 C 724.70464,517.50673 723.69124,517.10444 722.67784,516.72731 C 723.76914,516.14905 725.09434,515.2942 725.09434,512.98111 C 725.09434,509.6875 722.13214,508.78238 719.16994,508.78238 L 710.90694,508.78238 L 710.90694,524.39568 L 713.32354,524.39568 L 713.32354,517.70786 L 719.16994,517.70786 C 722.13214,517.70786 722.44394,519.2164 722.44394,520.49865 C 722.44394,521.0769 722.52194,523.4403 722.83374,524.39568 L 725.87384,524.39568 L 725.87384,524.04368 C 725.09434,523.66656 724.93844,523.36486 724.93844,522.48488" id="path49" stroke="black" style="fill:#ffffff;fill-rule:nonzero;"/>
			
      
			
			
    
		</g>
		
  
	</g>
	

</svg>