<?xml version="1.0" encoding="iso-8859-1"?><svg height="25" id="svg2" inkscape:version="0.48.4 r9939" sodipodi:docname="makro.svg" version="1.1" viewBox="0 0 100 25" width="100" xml:space="preserve" xmlns="http://www.w3.org/2000/svg" xmlns:cc="http://creativecommons.org/ns#" xmlns:dc="http://purl.org/dc/elements/1.1/" xmlns:inkscape="http://www.inkscape.org/namespaces/inkscape" xmlns:rdf="http://www.w3.org/1999/02/22-rdf-syntax-ns#" xmlns:sodipodi="http://sodipodi.sourceforge.net/DTD/sodipodi-0.dtd" xmlns:svg="http://www.w3.org/2000/svg">
	<title id="title2995">Makro logo</title>
	<sodipodi:namedview bordercolor="#666666" borderopacity="1" gridtolerance="10" guidetolerance="10" id="namedview18" inkscape:current-layer="svg2" inkscape:cx="102.7357" inkscape:cy="33.469457" inkscape:pageopacity="0" inkscape:pageshadow="2" inkscape:showpageshadow="false" inkscape:window-height="844" inkscape:window-maximized="1" inkscape:window-width="1600" inkscape:window-x="-4" inkscape:window-y="-4" inkscape:zoom="6.0555201" objecttolerance="10" pagecolor="#ffffff" showgrid="false"/>
	<metadata id="metadata8">
		<rdf:RDF>
			<cc:Work rdf:about="">
				<dc:format>image/svg+xml</dc:format>
				<dc:type rdf:resource="http://purl.org/dc/dcmitype/StillImage"/>
				<dc:title>Makro logo</dc:title>
			</cc:Work>
		</rdf:RDF>
	</metadata>
	<defs id="defs6"/>
	<g id="g10" transform="matrix(0.59318965,0,0,-0.59104512,-7.0350977,69.601135)">
		<g id="g12" transform="scale(0.1,0.1)">
			<g id="g16">
				
			</g>
			<g id="g20">
				
			</g>
			<path animation_id="2" d="m 1764.34,841.57 c 0,-12.972 -2.95,-22.73 -8.86,-29.308 -5.91,-6.551 -14.7,-9.828 -26.36,-9.828 -11.82,0 -20.68,3.277 -26.6,9.828 -5.91,6.578 -8.87,16.336 -8.87,29.308 l 1.08,101.887 -124.91,-124.906 c -9.17,-9.188 -18.17,-13.992 -26.98,-14.457 -8.82,-0.465 -17.36,3.433 -25.61,11.668 -8.35,8.363 -12.3,16.957 -11.84,25.761 0.46,8.832 5.28,17.821 14.45,27.008 l 115.71,115.699 -93.94,0 c -12.97,0 -22.73,2.954 -29.3,8.872 -6.56,5.91 -9.85,14.698 -9.85,26.348 0,11.82 3.29,20.69 9.85,26.6 5.35,4.83 12.85,7.68 22.47,8.57 l 2.59,0.28 3.43,0.01 128.63,0.01 52.09,-0.02 c 42.4,0 42.4,-42.41 42.4,-42.41 l 0.42,-170.92 0,0" id="path24" inkscape:connector-curvature="0" stroke="black" style="fill:#ed1c24;fill-opacity:1;fill-rule:nonzero;"/>
			
			
			
			
			
		</g>
	</g>
</svg>