<?xml version="1.0" encoding="iso-8859-1"?><svg height="25" id="svg2" inkscape:version="0.48.4 r9939" sodipodi:docname="makro.svg" version="1.1" viewBox="0 0 100 25" width="100" xml:space="preserve" xmlns="http://www.w3.org/2000/svg" xmlns:cc="http://creativecommons.org/ns#" xmlns:dc="http://purl.org/dc/elements/1.1/" xmlns:inkscape="http://www.inkscape.org/namespaces/inkscape" xmlns:rdf="http://www.w3.org/1999/02/22-rdf-syntax-ns#" xmlns:sodipodi="http://sodipodi.sourceforge.net/DTD/sodipodi-0.dtd" xmlns:svg="http://www.w3.org/2000/svg">
	<title id="title2995">Makro logo</title>
	<sodipodi:namedview bordercolor="#666666" borderopacity="1" gridtolerance="10" guidetolerance="10" id="namedview18" inkscape:current-layer="svg2" inkscape:cx="102.7357" inkscape:cy="33.469457" inkscape:pageopacity="0" inkscape:pageshadow="2" inkscape:showpageshadow="false" inkscape:window-height="844" inkscape:window-maximized="1" inkscape:window-width="1600" inkscape:window-x="-4" inkscape:window-y="-4" inkscape:zoom="6.0555201" objecttolerance="10" pagecolor="#ffffff" showgrid="false"/>
	<metadata id="metadata8">
		<rdf:RDF>
			<cc:Work rdf:about="">
				<dc:format>image/svg+xml</dc:format>
				<dc:type rdf:resource="http://purl.org/dc/dcmitype/StillImage"/>
				<dc:title>Makro logo</dc:title>
			</cc:Work>
		</rdf:RDF>
	</metadata>
	<defs id="defs6"/>
	<g id="g10" transform="matrix(0.59318965,0,0,-0.59104512,-7.0350977,69.601135)">
		<g id="g12" transform="scale(0.1,0.1)">
			<g id="g16">
				
			</g>
			<g id="g20">
				
			</g>
			
			
			
			
			
			<path animation_id="7" d="m 1329.36,998.668 c -18.63,0 -32.97,-6.625 -43.04,-19.871 -10.07,-13.25 -15.11,-32.063 -15.11,-56.434 0,-24.527 5.04,-43.449 15.11,-56.777 10.07,-13.324 24.41,-19.965 43.04,-19.965 18.32,0 32.52,6.641 42.59,19.965 10.07,13.328 15.11,32.25 15.11,56.777 0,24.371 -5.04,43.184 -15.11,56.434 -10.07,13.246 -24.27,19.871 -42.59,19.871 l 0,0 z m 0.01,55.822 c 38.76,0 69.31,-11.74 91.64,-35.22 22.34,-23.473 33.51,-55.735 33.51,-96.774 0,-41.215 -11.17,-73.555 -33.51,-97.019 -22.33,-23.489 -52.88,-35.219 -91.64,-35.219 -38.91,0 -69.5,11.73 -91.76,35.219 -22.25,23.464 -33.39,55.804 -33.39,97.019 0,41.039 11.14,73.301 33.39,96.774 22.26,23.48 52.85,35.22 91.76,35.22 l 0,0" id="path34" inkscape:connector-curvature="0" stroke="black" style="fill:#ed1c24;fill-opacity:1;fill-rule:evenodd;"/>
		</g>
	</g>
</svg>