<?xml version="1.0" encoding="iso-8859-1"?><svg height="25" id="svg2" inkscape:version="0.48.4 r9939" sodipodi:docname="makro.svg" version="1.1" viewBox="0 0 100 25" width="100" xml:space="preserve" xmlns="http://www.w3.org/2000/svg" xmlns:cc="http://creativecommons.org/ns#" xmlns:dc="http://purl.org/dc/elements/1.1/" xmlns:inkscape="http://www.inkscape.org/namespaces/inkscape" xmlns:rdf="http://www.w3.org/1999/02/22-rdf-syntax-ns#" xmlns:sodipodi="http://sodipodi.sourceforge.net/DTD/sodipodi-0.dtd" xmlns:svg="http://www.w3.org/2000/svg">
	<title id="title2995">Makro logo</title>
	<sodipodi:namedview bordercolor="#666666" borderopacity="1" gridtolerance="10" guidetolerance="10" id="namedview18" inkscape:current-layer="svg2" inkscape:cx="102.7357" inkscape:cy="33.469457" inkscape:pageopacity="0" inkscape:pageshadow="2" inkscape:showpageshadow="false" inkscape:window-height="844" inkscape:window-maximized="1" inkscape:window-width="1600" inkscape:window-x="-4" inkscape:window-y="-4" inkscape:zoom="6.0555201" objecttolerance="10" pagecolor="#ffffff" showgrid="false"/>
	<metadata id="metadata8">
		<rdf:RDF>
			<cc:Work rdf:about="">
				<dc:format>image/svg+xml</dc:format>
				<dc:type rdf:resource="http://purl.org/dc/dcmitype/StillImage"/>
				<dc:title>Makro logo</dc:title>
			</cc:Work>
		</rdf:RDF>
	</metadata>
	<defs id="defs6"/>
	<g id="g10" transform="matrix(0.59318965,0,0,-0.59104512,-7.0350977,69.601135)">
		<g id="g12" transform="scale(0.1,0.1)">
			<g id="g16">
				
			</g>
			<g id="g20">
				
			</g>
			
			<path animation_id="3" d="m 363.414,1018.34 c 8.484,11.82 18.629,20.73 30.438,26.71 11.808,5.99 25.054,8.98 39.742,8.98 24.984,0 44.703,-7.23 59.16,-21.7 14.469,-14.45 21.695,-34.182 21.695,-59.174 l 0,-142.101 c 0,-12.285 -2.683,-21.469 -8.058,-27.512 -5.371,-6.066 -13.504,-9.098 -24.395,-9.098 -10.59,0 -18.687,3.098 -24.281,9.317 -5.602,6.222 -8.391,15.316 -8.391,27.293 l 0,128.683 c 0,11.825 -3.226,21.035 -9.66,27.633 -6.437,6.586 -15.418,9.887 -26.926,9.887 -12.879,0 -23.105,-4.168 -30.683,-12.508 -7.567,-8.332 -11.356,-19.773 -11.356,-34.32 l 0,-119.375 c 0,-12.133 -2.734,-21.27 -8.195,-27.403 -5.465,-6.156 -13.586,-9.207 -24.363,-9.207 -10.782,0 -18.828,3.032 -24.137,9.098 -5.316,6.043 -7.969,15.227 -7.969,27.512 l 0,128.25 c 0,11.972 -3.109,21.215 -9.32,27.726 -6.211,6.52 -15.07,9.774 -26.578,9.774 -12.871,0 -23.059,-4.164 -30.551,-12.496 -7.496,-8.336 -11.242,-19.778 -11.242,-34.321 l 0,-118.933 c 0,-12.133 -2.727,-21.27 -8.172,-27.403 -5.445,-6.156 -13.621,-9.207 -24.512,-9.207 -10.738,0 -18.828,3.051 -24.281,9.207 -5.445,6.133 -8.168,15.27 -8.168,27.403 l 0,182.075 c 0,11.94 2.684,21.12 8.055,27.54 5.375,6.42 13.05,9.63 23.035,9.63 9.383,0 16.719,-2.64 22.012,-7.93 5.292,-5.29 8.472,-13.15 9.535,-23.58 8.789,11.83 18.871,20.74 30.238,26.73 11.371,5.98 24.18,8.97 38.43,8.97 15.617,0 28.953,-2.91 40.023,-8.75 11.066,-5.83 20.691,-14.97 28.875,-27.4 l 0,0" id="path26" inkscape:connector-curvature="0" stroke="black" style="fill:#ed1c24;fill-opacity:1;fill-rule:nonzero;"/>
			
			
			
			
		</g>
	</g>
</svg>