<?xml version="1.0" encoding="iso-8859-1"?><!DOCTYPE svg  PUBLIC '-//W3C//DTD SVG 1.1//EN'  'http://www.w3.org/Graphics/SVG/1.1/DTD/svg11.dtd' [
<!ENTITY ns_svg "http://www.w3.org/2000/svg">
<!ENTITY ns_xlink "http://www.w3.org/1999/xlink">
]><svg enable-background="new 0 0 356.749 52.348" height="52.348" id="Layer_1" overflow="visible" version="1.1" viewBox="0 0 356.749 52.348" width="356.749" xml:space="preserve" xmlns="http://www.w3.org/2000/svg" xmlns:xlink="http://www.w3.org/1999/xlink">
	

	<g>
		

		
		

		
		

		
		

		
		

		
		

		
		

		
		

		
		

		
		

		
		

		
		

		
		

		
		

		
		

		
		

		<path animation_id="15" clip-rule="evenodd" d="M338.559,14.257l0.321,0.32l7.169,10.271l3.425,4.601l0.535-0.107V15.541 l0.106-1.284c2.032-0.107,4.278,0,6.419,0l0.214,0.213v4.388c0,0.213-0.106,0.963,0,1.178v5.028v13.802v0.106l-0.106,1.713 c-0.643,0-1.177-0.108-1.712,0l-5.029-0.106c-1.604-2.033-2.889-4.175-4.492-6.207l-4.815-6.741l-0.857-1.176 c-0.32-0.108-0.535,0-0.535,0.213c-0.214,0.429,0,1.069-0.106,1.284l0.106,0.429l-0.106,4.921v7.063l-0.107,0.212l-6.419,0.002 l-0.106-2.141V32.98c0-0.427,0.106-1.391-0.107-1.926l0.107-1.07V14.47l0.214-0.32C334.6,14.15,336.848,14.043,338.559,14.257 L338.559,14.257z" fill-rule="evenodd" stroke="black"/>
		

		
		

		
		

		
		

		
		

		
		

		
		

	</g>
	

</svg>