<?xml version="1.0" encoding="iso-8859-1"?><!DOCTYPE svg  PUBLIC '-//W3C//DTD SVG 1.1//EN'  'http://www.w3.org/Graphics/SVG/1.1/DTD/svg11.dtd' [
<!ENTITY ns_svg "http://www.w3.org/2000/svg">
<!ENTITY ns_xlink "http://www.w3.org/1999/xlink">
]><svg enable-background="new 0 0 356.749 52.348" height="52.348" id="Layer_1" overflow="visible" version="1.1" viewBox="0 0 356.749 52.348" width="356.749" xml:space="preserve" xmlns="http://www.w3.org/2000/svg" xmlns:xlink="http://www.w3.org/1999/xlink">
	

	<g>
		

		
		

		
		

		
		

		
		

		
		

		
		

		
		

		<path animation_id="7" clip-rule="evenodd" d="M87.979,13.4c0.428,0.322,0.535,0.964,0.75,1.284l0.962,2.568l4.173,10.591 l1.071,2.57c0.106,0.106,0.322,0.106,0.428,0l2.354-5.458l1.391-3.423l3.211-8.024l2.245-0.107h6.313l0.215,0.107v5.136 l-0.107,1.069v4.709h-0.106c0.106,0.962,0.106,2.245,0.106,3.208l-0.108,5.031l0.001,6.954l-2.142,0.106h-4.387 c0-1.391,0.107-2.783,0-4.066v-5.027v-4.924c-0.107-0.214,0-0.534-0.32-0.533l-0.214-0.001l-4.494,10.485 c-0.642,1.283-1.071,2.676-1.605,3.957c-1.712,0.109-3.423,0.107-5.136,0.109L86.482,25.17c-0.107-0.215-0.428-0.429-0.428-0.106 l-0.107,9.629c0,1.282,0.107,3.104-0.107,4.388v0.642c-2.353-0.109-4.386,0.107-6.526-0.215V29.342 c0.322-0.106-0.213-0.32,0.107-0.427l-0.107-2.354l0.107-9.737c0-1.176-0.107-2.353,0.107-3.424H87.979L87.979,13.4z" fill-rule="evenodd" stroke="black"/>
		

		
		

		
		

		
		

		
		

		
		

		
		

		
		

		
		

		
		

		
		

		
		

		
		

		
		

		
		

	</g>
	

</svg>