<?xml version="1.0" encoding="iso-8859-1"?><!DOCTYPE svg  PUBLIC '-//W3C//DTD SVG 1.1//EN'  'http://www.w3.org/Graphics/SVG/1.1/DTD/svg11.dtd' [
<!ENTITY ns_svg "http://www.w3.org/2000/svg">
<!ENTITY ns_xlink "http://www.w3.org/1999/xlink">
]><svg enable-background="new 0 0 356.749 52.348" height="52.348" id="Layer_1" overflow="visible" version="1.1" viewBox="0 0 356.749 52.348" width="356.749" xml:space="preserve" xmlns="http://www.w3.org/2000/svg" xmlns:xlink="http://www.w3.org/1999/xlink">
	

	<g>
		

		
		

		
		

		
		

		
		

		
		

		
		

		
		

		
		

		
		

		
		

		
		

		
		

		
		

		
		

		
		

		
		

		
		

		
		

		
		

		
		

		
		

		<path animation_id="21" clip-rule="evenodd" d="M50.639,27.096l0.429,0.32c-0.32,6.313-2.675,11.129-6.099,15.193 c-0.321,0.107-0.214,0.322-0.535,0.536c-2.782,2.994-6.205,5.242-10.272,6.525c-0.107-0.214-0.535,0-0.535,0.32 c-4.386,1.179-10.805,1.499-14.871-0.32c-0.107-0.64,0.214-1.39,0.535-1.925c0.856-2.033,1.819-4.065,2.781-5.992l2.997-6.312 c0.642-0.214,0.856,0.856,1.176,1.282l1.926,3.318l4.173,6.74c0.428,0.749,0.962,1.713,1.391,2.462 c0.535-0.214,0.428-1.073,0.749-1.499l4.173-8.666c1.497-3.531,3.102-7.062,4.814-10.487 C44.434,26.239,48.072,27.096,50.639,27.096L50.639,27.096z" fill="#FFFFFF" fill-rule="evenodd" stroke="black"/>
		

	</g>
	

</svg>