<?xml version="1.0" encoding="iso-8859-1"?><!DOCTYPE svg  PUBLIC '-//W3C//DTD SVG 1.1//EN'  'http://www.w3.org/Graphics/SVG/1.1/DTD/svg11.dtd' [
<!ENTITY ns_svg "http://www.w3.org/2000/svg">
<!ENTITY ns_xlink "http://www.w3.org/1999/xlink">
]><svg enable-background="new 0 0 356.749 52.348" height="52.348" id="Layer_1" overflow="visible" version="1.1" viewBox="0 0 356.749 52.348" width="356.749" xml:space="preserve" xmlns="http://www.w3.org/2000/svg" xmlns:xlink="http://www.w3.org/1999/xlink">
	

	<g>
		

		
		

		
		

		
		

		
		

		
		

		
		

		
		

		
		

		
		

		
		

		<path animation_id="10" clip-rule="evenodd" d="M174.324,13.508c0.75-0.001,1.177,0.641,1.712,0.105l0.643,0.109l2.567,3.744 l3.104,4.28c1.71,2.461,3.423,4.708,5.026,7.061h0.535c0-0.535,0-1.283,0-1.71l0.108-4.923v-7.062 c0.214-0.428-0.105-1.069,0.214-1.499l5.992,0.001c0,0.321,0.643-0.107,0.534,0.321v1.177v5.243h-0.106l0.106,4.493 c0,1.713,0,4.066-0.106,5.671c0,0.749,0,1.284,0,2.247v5.671c0,0.32,0,1.069,0,1.605h-5.029c-0.641,0-1.391,0.107-1.926-0.107 l-2.46-3.532c-0.964-1.283-1.928-2.567-2.782-3.956l-4.814-6.528c-0.642-0.321-0.535,0.429-0.535,0.962v12.841 c-0.321,0.321-0.964,0.319-1.284,0.214c-1.392-0.214-2.674,0.105-4.386,0.107l-0.749-0.107l-0.108-2.14V20.035 c0-0.965,0-2.356,0-3.211c0.108-0.963,0.108-2.14,0.108-3.209C171.755,13.508,173.362,13.615,174.324,13.508L174.324,13.508z" fill-rule="evenodd" stroke="black"/>
		

		
		

		
		

		
		

		
		

		
		

		
		

		
		

		
		

		
		

		
		

		
		

	</g>
	

</svg>