<?xml version="1.0" encoding="iso-8859-1"?><!DOCTYPE svg  PUBLIC '-//W3C//DTD SVG 1.1//EN'  'http://www.w3.org/Graphics/SVG/1.1/DTD/svg11.dtd' [
<!ENTITY ns_svg "http://www.w3.org/2000/svg">
<!ENTITY ns_xlink "http://www.w3.org/1999/xlink">
]><svg enable-background="new 0 0 356.749 52.348" height="52.348" id="Layer_1" overflow="visible" version="1.1" viewBox="0 0 356.749 52.348" width="356.749" xml:space="preserve" xmlns="http://www.w3.org/2000/svg" xmlns:xlink="http://www.w3.org/1999/xlink">
	

	<g>
		

		
		

		
		

		
		

		
		

		
		

		
		

		
		

		
		

		
		

		
		

		
		

		
		

		<path animation_id="12" clip-rule="evenodd" d="M250.181,13.936l2.462,5.885l2.782,7.276c0.643,1.283,0.855,2.888,1.819,3.958 c0.429-0.106,0.429-0.749,0.643-1.177c0.854-1.82,1.604-3.853,2.353-5.671l2.354-5.884c0.534-1.499,1.283-2.89,1.818-4.387h8.56 l0.106,0.107c0,1.498,0.108,3.102,0,4.493v6.206c-0.214,0.214,0.215,0.429-0.106,0.536l0.106,0.32l-0.106,4.387 c0.106,2.248-0.107,4.602,0,6.74c-0.107,0.643-0.107,1.606-0.107,2.355c0,0.214,0,0.749,0,1.176c-0.427,0-0.964,0-1.39,0h-5.029 l-0.106-1.176V25.813c0-0.215-0.32-0.216-0.32-0.108l-0.749,1.392l-4.389,10.271c-0.535,0.964-0.749,1.927-1.284,2.889h-4.813 c-0.216-0.213-0.323-0.641-0.43-0.962l-2.353-5.35c-1.072-2.89-2.248-5.673-3.531-8.561c-0.857-0.214-0.214,1.178-0.535,1.497 l0.106,0.108l-0.106,5.029c0.106,0.962-0.214,2.032,0,2.888l-0.107,5.137c-0.535,0.213-1.284,0.107-1.713,0.107l-0.321,0.105 l-4.386-0.107l-0.213-0.107c0.104-1.925-0.002-3.316,0.104-5.135V14.257h0.108l0.001-0.428h8.561L250.181,13.936L250.181,13.936z" fill-rule="evenodd" stroke="black"/>
		

		
		

		
		

		
		

		
		

		
		

		
		

		
		

		
		

		
		

	</g>
	

</svg>