<?xml version="1.0" encoding="iso-8859-1"?><!DOCTYPE svg  PUBLIC '-//W3C//DTD SVG 1.1//EN'  'http://www.w3.org/Graphics/SVG/1.1/DTD/svg11.dtd' [
<!ENTITY ns_svg "http://www.w3.org/2000/svg">
<!ENTITY ns_xlink "http://www.w3.org/1999/xlink">
]><svg enable-background="new 0 0 356.749 52.348" height="52.348" id="Layer_1" overflow="visible" version="1.1" viewBox="0 0 356.749 52.348" width="356.749" xml:space="preserve" xmlns="http://www.w3.org/2000/svg" xmlns:xlink="http://www.w3.org/1999/xlink">
	

	<g>
		

		
		

		
		

		
		

		
		

		
		

		
		

		
		

		
		

		<path animation_id="8" clip-rule="evenodd" d="M125.75,13.508c1.498,0,2.995,0,4.493,0l0.963,2.675l2.997,7.918l2.245,6.099 l0.322,0.855l1.711,4.601c0.642,1.283,0.855,2.676,1.499,4.066h-0.215h-6.847c-0.537-1.284-0.964-2.676-1.605-3.958l-0.214-0.215 h-9.523c-0.962,1.176-1.177,2.782-1.819,4.171l-6.955,0.002c-0.107-0.75,0.429-1.07,0.536-1.713l2.247-6.205l0.429-1.069 l1.604-4.173l0.75-2.248l4.173-10.806c0.534,0.214,0.75-0.214,1.177,0C124.358,13.508,125.214,13.508,125.75,13.508L125.75,13.508z " fill-rule="evenodd" stroke="black"/>
		

		
		

		
		

		
		

		
		

		
		

		
		

		
		

		
		

		
		

		
		

		
		

		
		

		
		

	</g>
	

</svg>