<?xml version="1.0" encoding="iso-8859-1"?><!DOCTYPE svg  PUBLIC '-//W3C//DTD SVG 1.1//EN'  'http://www.w3.org/Graphics/SVG/1.1/DTD/svg11.dtd' [
<!ENTITY ns_svg "http://www.w3.org/2000/svg">
<!ENTITY ns_xlink "http://www.w3.org/1999/xlink">
]><svg enable-background="new 0 0 356.749 52.348" height="52.348" id="Layer_1" overflow="visible" version="1.1" viewBox="0 0 356.749 52.348" width="356.749" xml:space="preserve" xmlns="http://www.w3.org/2000/svg" xmlns:xlink="http://www.w3.org/1999/xlink">
	

	<g>
		

		
		

		
		

		
		

		
		

		
		

		
		

		<path animation_id="6" clip-rule="evenodd" d="M236.167,15.219c0.106,1.713,0.214,3.961-0.108,5.671 c-2.354-1.177-5.671-2.674-8.772-1.283c-0.644,0.32-0.964,0.962-0.964,1.712c0.106,1.178,0.964,1.817,1.819,2.247 c4.065,1.069,8.561,2.247,9.521,6.634c0.321,0.963,0.107,2.248,0.107,3.208c-0.429,3.211-2.246,5.673-5.135,6.636 c-4.067,1.39-9.63,0.533-12.626-1.605v-6.205c0.429-0.429,0.428,0.215,0.749,0.215c2.032,1.71,5.135,3.53,8.451,2.139 c0.535-0.429,1.07-0.856,1.07-1.819c0.214-0.748-0.213-1.283-0.642-1.712c-1.711-1.499-4.709-1.07-6.419-2.354 c-2.567-1.284-3.959-3.959-3.959-7.168c0.107-2.14,0.536-3.852,1.498-5.35c0.963-1.176,2.247-1.819,3.531-2.353 C228.356,12.651,232.958,13.722,236.167,15.219L236.167,15.219z" fill-rule="evenodd" stroke="black"/>
		

		
		

		
		

		
		

		
		

		
		

		
		

		
		

		
		

		
		

		
		

		
		

		
		

		
		

		
		

		
		

	</g>
	

</svg>