<?xml version="1.0" encoding="iso-8859-1"?><!DOCTYPE svg  PUBLIC '-//W3C//DTD SVG 1.1//EN'  'http://www.w3.org/Graphics/SVG/1.1/DTD/svg11.dtd' [
<!ENTITY ns_svg "http://www.w3.org/2000/svg">
<!ENTITY ns_xlink "http://www.w3.org/1999/xlink">
]><svg enable-background="new 0 0 356.749 52.348" height="52.348" id="Layer_1" overflow="visible" version="1.1" viewBox="0 0 356.749 52.348" width="356.749" xml:space="preserve" xmlns="http://www.w3.org/2000/svg" xmlns:xlink="http://www.w3.org/1999/xlink">
	

	<g>
		

		
		

		
		

		
		

		
		

		
		

		
		

		
		

		
		

		
		

		<path animation_id="9" clip-rule="evenodd" d="M143.617,13.508c1.283,0.107,2.781,0,4.173,0l0.963,1.284l2.461,3.531 c2.567,3.422,5.136,7.062,7.597,10.484l0.428-0.106c0-1.07,0.215-2.033,0-2.994c0.215-3.21,0.107-6.421,0.107-9.417 c-0.107-0.428,0.107-1.283-0.107-1.819l0.107-0.855l2.14-0.107h4.493c0.106,0.428-0.106,1.284,0.106,1.711 c-0.106,3.423-0.106,7.061,0,10.7v13.803l-0.213,0.214h-6.634c-0.215-0.429-0.535-0.855-0.856-1.284l-3.102-4.28 c-2.141-2.888-4.174-5.778-6.206-8.559h-0.535l-0.108,13.909l-0.104,0.214h-6.42l-0.108-0.214V13.615 c0.428-0.107,1.177-0.001,1.499-0.107H143.617L143.617,13.508z" fill-rule="evenodd" stroke="black"/>
		

		
		

		
		

		
		

		
		

		
		

		
		

		
		

		
		

		
		

		
		

		
		

		
		

	</g>
	

</svg>