<?xml version="1.0" encoding="iso-8859-1"?><!DOCTYPE svg  PUBLIC '-//W3C//DTD SVG 1.1//EN'  'http://www.w3.org/Graphics/SVG/1.1/DTD/svg11.dtd' [
<!ENTITY ns_svg "http://www.w3.org/2000/svg">
<!ENTITY ns_xlink "http://www.w3.org/1999/xlink">
]><svg enable-background="new 0 0 356.749 52.348" height="52.348" id="Layer_1" overflow="visible" version="1.1" viewBox="0 0 356.749 52.348" width="356.749" xml:space="preserve" xmlns="http://www.w3.org/2000/svg" xmlns:xlink="http://www.w3.org/1999/xlink">
	

	<g>
		

		
		

		
		

		
		

		
		

		
		

		
		

		
		

		
		

		
		

		
		

		
		

		<path animation_id="11" clip-rule="evenodd" d="M210.059,13.829h5.993c0.215,0.106,0.105,0.855,0.106,1.069 c0.108,1.392,0.108,3.103,0,4.494h-9.736c-0.643,0.428-0.215,0.963-0.429,1.604c0.107,1.07-0.106,2.032,0.214,2.997l0.322,0.213 c1.177-0.106,2.245,0,3.315,0c0.429,0.106,1.071,0.106,1.499,0h4.601l0.214,0.106c0.213,1.605-0.214,3.21,0,4.922l-2.14,0.106 h-7.383c-0.214-0.32-0.429,0-0.643,0.107v4.495c0.107,0.748,1.393,0.213,1.927,0.427c0.641,0,1.176,0,1.818,0l6.206,0.108 c0.322,0.32,0.107,1.069,0.214,1.391c-0.214,1.389-0.001,2.888-0.106,4.173c-1.178,0.213-2.674,0.107-3.745,0.107l-5.027-0.107 h-7.063l-0.854-0.002v-5.135V30.52c0.213-0.535-0.214-1.178,0-1.819c-0.214-0.32,0.213-0.857,0-1.177 c-0.107-0.213,0.105-0.213,0-0.428c0.106-0.856,0-1.392,0-2.461c0-0.534,0-1.926,0-2.567c0-0.643,0-1.712,0-2.462v-5.776 l0.213-0.107h9.309L210.059,13.829L210.059,13.829z" fill-rule="evenodd" stroke="black"/>
		

		
		

		
		

		
		

		
		

		
		

		
		

		
		

		
		

		
		

		
		

	</g>
	

</svg>