<?xml version="1.0" encoding="iso-8859-1"?><!-- Created with Inkscape (http://www.inkscape.org/) --><svg height="240" id="svg3261" version="1.1" width="904" xmlns="http://www.w3.org/2000/svg" xmlns:cc="http://creativecommons.org/ns#" xmlns:dc="http://purl.org/dc/elements/1.1/" xmlns:rdf="http://www.w3.org/1999/02/22-rdf-syntax-ns#" xmlns:svg="http://www.w3.org/2000/svg">
	
  
	<defs id="defs3263">
		
    
		<clipPath id="clipPath3057">
			
      
			
			
    
		</clipPath>
		
  
	</defs>
	
  
	<metadata id="metadata3266">
		
    
		<rdf:RDF>
			
      
			<cc:Work rdf:about="">
				
        
				<dc:format>image/svg+xml</dc:format>
				
        
				<dc:type rdf:resource="http://purl.org/dc/dcmitype/StillImage"/>
				
        
				<dc:title/>
				
      
			</cc:Work>
			
    
		</rdf:RDF>
		
  
	</metadata>
	
  
	<g id="layer1" transform="translate(0,-528)">
		
    
		<g id="g3053" transform="matrix(5.625,0,0,-5.625,-2224.9409,4948.5091)">
			
      
			<g clip-path="url(#clipPath3057)" id="g3055">
				
        
				<g id="g3061" transform="translate(409.5382,778.4027)">
					
          
					
					
        
				</g>
				
        
				<g id="g3065" transform="translate(465.0842,780.4062)">
					
          
					
					
        
				</g>
				
        
				<g id="g3069" transform="translate(494.1202,784.82)">
					
          
					
					
        
				</g>
				
        
				<g id="g3073" transform="translate(445.9208,780.4062)">
					
          
					
					
        
				</g>
				
        
				<g id="g3077" transform="translate(550.1879,768.1526)">
					
          
					
					
        
				</g>
				
        
				<g id="g3081" transform="translate(524.2308,780.4062)">
					
          
					
					
        
				</g>
				
        
				<g id="g3085" transform="translate(438.7775,773.4944)">
					
          
					
					
        
				</g>
				
        
				<g id="g3089" transform="translate(473.4467,771.9851)">
					
          
					
					
        
				</g>
				
        
				<g id="g3093" transform="translate(517.1171,773.4944)">
					
          
					
					
        
				</g>
				
        
				<g id="g3097" transform="translate(481.9446,746.7435)">
					
          
					
					
        
				</g>
				
        
				<g id="g3101" transform="translate(489.5405,751.941)">
					
          
					
					
        
				</g>
				
        
				<g id="g3105" transform="translate(496.0802,752.769)">
					
          
					
					
        
				</g>
				
        
				<g id="g3109" transform="translate(506.7751,746.6572)">
					
          
					
					
        
				</g>
				
        
				<g id="g3113" transform="translate(513.8271,745.3009)">
					
          
					
					
        
				</g>
				
        
				<g id="g3117" transform="translate(520.5813,746.6572)">
					
          
					
					
        
				</g>
				
        
				<g id="g3121" transform="translate(527.3909,746.7435)">
					
          
					
					
        
				</g>
				
        
				<g id="g3125" transform="translate(534.1451,751.941)">
					
          
					
					
        
				</g>
				
        
				<g id="g3129" transform="translate(546.5378,746.7435)">
					
          
					
					
        
				</g>
				
        
				<g id="g3133" transform="translate(552.578,746.6572)">
					
          
					<path animation_id="19" d="m 0,0 c -1.186,0 -2.186,0.2 -3.042,1.042 l 0.957,0.957 C -1.5,1.4 -0.715,1.242 0,1.242 c 0.885,0 1.585,0.314 1.585,1 0,0.486 -0.272,0.8 -0.972,0.857 l -1.156,0.1 c -1.357,0.114 -2.142,0.728 -2.142,1.998 0,1.415 1.214,2.214 2.728,2.214 1.084,0 2.013,-0.228 2.684,-0.814 L 1.813,5.669 c -0.457,0.386 -1.1,0.528 -1.785,0.528 -0.871,0 -1.313,-0.385 -1.313,-0.927 0,-0.429 0.228,-0.757 0.999,-0.829 l 1.142,-0.1 C 2.213,4.227 3.012,3.584 3.012,2.299 3.012,0.785 1.727,0 0,0" id="path3135" stroke="black" style="fill:#00507a;fill-opacity:1;fill-rule:nonzero;"/>
					
        
				</g>
				
      
			</g>
			
    
		</g>
		
  
	</g>
	

</svg>