<?xml version="1.0" encoding="iso-8859-1"?><!-- Created with Inkscape (http://www.inkscape.org/) --><svg height="100" id="svg2" version="1.0" width="660" xml:space="preserve" xmlns="http://www.w3.org/2000/svg" xmlns:svg="http://www.w3.org/2000/svg">
	<defs id="defs5"/>
	<g id="g11" transform="matrix(1.25,0,0,-1.25,-59.506375,297.83427)">
		
		
		
		
		<path animation_id="4" d="M 556.84716,164.19843 L 569.28185,164.19843 L 569.28185,234.13231 L 553.82846,232.89965 L 553.82846,214.55353 C 549.955,217.56323 544.86685,219.1603 539.95867,219.1603 C 525.73795,219.1603 517.71659,209.3664 517.71659,191.20924 C 517.71659,172.1838 525.08111,163.25819 540.16111,163.25819 C 546.85533,163.25819 551.75002,165.42211 555.33106,169.08414 L 556.84716,164.19843 z M 553.82846,178.87803 C 552.9692,177.56438 550.15295,174.64916 544.21003,174.64916 C 536.09419,174.64916 533.65134,178.41015 533.65134,190.6469 C 533.65134,202.22231 536.29664,206.46468 544.30451,206.46468 C 548.73132,206.46468 551.8445,205.04306 553.82846,203.07258 L 553.82846,178.87803 z" id="path67" stroke="black" style="fill:#868d91;fill-opacity:1;fill-rule:nonzero;"/>
		
		
		
		
	</g>
</svg>