<?xml version="1.0" encoding="iso-8859-1"?><!-- Created with Inkscape (http://www.inkscape.org/) --><svg height="240" id="svg3261" version="1.1" width="904" xmlns="http://www.w3.org/2000/svg" xmlns:cc="http://creativecommons.org/ns#" xmlns:dc="http://purl.org/dc/elements/1.1/" xmlns:rdf="http://www.w3.org/1999/02/22-rdf-syntax-ns#" xmlns:svg="http://www.w3.org/2000/svg">
	
  
	<defs id="defs3263">
		
    
		<clipPath id="clipPath3057">
			
      
			
			
    
		</clipPath>
		
  
	</defs>
	
  
	<metadata id="metadata3266">
		
    
		<rdf:RDF>
			
      
			<cc:Work rdf:about="">
				
        
				<dc:format>image/svg+xml</dc:format>
				
        
				<dc:type rdf:resource="http://purl.org/dc/dcmitype/StillImage"/>
				
        
				<dc:title/>
				
      
			</cc:Work>
			
    
		</rdf:RDF>
		
  
	</metadata>
	
  
	<g id="layer1" transform="translate(0,-528)">
		
    
		<g id="g3053" transform="matrix(5.625,0,0,-5.625,-2224.9409,4948.5091)">
			
      
			<g clip-path="url(#clipPath3057)" id="g3055">
				
        
				<g id="g3061" transform="translate(409.5382,778.4027)">
					
          
					
					
        
				</g>
				
        
				<g id="g3065" transform="translate(465.0842,780.4062)">
					
          
					
					
        
				</g>
				
        
				<g id="g3069" transform="translate(494.1202,784.82)">
					
          
					
					
        
				</g>
				
        
				<g id="g3073" transform="translate(445.9208,780.4062)">
					
          
					
					
        
				</g>
				
        
				<g id="g3077" transform="translate(550.1879,768.1526)">
					
          
					
					
        
				</g>
				
        
				<g id="g3081" transform="translate(524.2308,780.4062)">
					
          
					
					
        
				</g>
				
        
				<g id="g3085" transform="translate(438.7775,773.4944)">
					
          
					
					
        
				</g>
				
        
				<g id="g3089" transform="translate(473.4467,771.9851)">
					
          
					
					
        
				</g>
				
        
				<g id="g3093" transform="translate(517.1171,773.4944)">
					
          
					
					
        
				</g>
				
        
				<g id="g3097" transform="translate(481.9446,746.7435)">
					
          
					
					
        
				</g>
				
        
				<g id="g3101" transform="translate(489.5405,751.941)">
					
          
					
					
        
				</g>
				
        
				<g id="g3105" transform="translate(496.0802,752.769)">
					
          
					
					
        
				</g>
				
        
				<g id="g3109" transform="translate(506.7751,746.6572)">
					
          
					
					
        
				</g>
				
        
				<g id="g3113" transform="translate(513.8271,745.3009)">
					
          
					
					
        
				</g>
				
        
				<g id="g3117" transform="translate(520.5813,746.6572)">
					
          
					
					
        
				</g>
				
        
				<g id="g3121" transform="translate(527.3909,746.7435)">
					
          
					
					
        
				</g>
				
        
				<g id="g3125" transform="translate(534.1451,751.941)">
					
          
					<path animation_id="17" d="M 0,0 C -0.229,0.543 -0.743,0.913 -1.427,0.913 -2.113,0.913 -2.642,0.543 -2.87,0 -3.013,-0.329 -3.042,-0.542 -3.056,-0.985 l 3.256,0 C 0.186,-0.542 0.143,-0.329 0,0 m -3.056,-1.999 c 0,-1.243 0.657,-2.028 1.842,-2.028 0.814,0 1.242,0.228 1.756,0.742 l 0.929,-0.87 c -0.743,-0.743 -1.443,-1.129 -2.714,-1.129 -1.813,0 -3.255,0.957 -3.255,3.713 0,2.342 1.213,3.698 3.071,3.698 1.941,0 3.068,-1.428 3.068,-3.484 l 0,-0.642 -4.697,0 z" id="path3127" stroke="black" style="fill:#00507a;fill-opacity:1;fill-rule:nonzero;"/>
					
        
				</g>
				
        
				<g id="g3129" transform="translate(546.5378,746.7435)">
					
          
					
					
        
				</g>
				
        
				<g id="g3133" transform="translate(552.578,746.6572)">
					
          
					
					
        
				</g>
				
      
			</g>
			
    
		</g>
		
  
	</g>
	

</svg>