<?xml version="1.0" encoding="iso-8859-1"?><!-- Created with Inkscape (http://www.inkscape.org/) --><svg height="100" id="svg2" version="1.0" width="660" xml:space="preserve" xmlns="http://www.w3.org/2000/svg" xmlns:svg="http://www.w3.org/2000/svg">
	<defs id="defs5"/>
	<g id="g11" transform="matrix(1.25,0,0,-1.25,-59.506375,297.83427)">
		
		
		
		
		
		
		
		<path animation_id="7" d="M 319.67302,191.30282 C 319.67302,199.01826 325.88587,205.42006 333.61481,205.42006 C 341.35275,205.42006 347.5656,199.01826 347.5656,191.30282 C 347.5656,183.58738 341.35275,177.18557 333.61481,177.18557 C 325.88587,177.18557 319.67302,183.58738 319.67302,191.30282 M 304.67853,191.30282 C 304.67853,175.30959 317.58108,162.40252 333.61481,162.40252 C 349.64404,162.40252 362.54661,175.30959 362.54661,191.30282 C 362.54661,207.29606 349.64404,220.19412 333.61481,220.19412 C 317.58108,220.19412 304.67853,207.29606 304.67853,191.30282" id="path79" stroke="black" style="fill:#005078;fill-opacity:1;fill-rule:nonzero;"/>
		
	</g>
</svg>