<?xml version="1.0" encoding="iso-8859-1"?><svg height="706.63" id="svg3336" version="1.1" viewBox="0 0 5399.1299 706.63" width="5399.1299" xml:space="preserve" xmlns="http://www.w3.org/2000/svg" xmlns:cc="http://creativecommons.org/ns#" xmlns:dc="http://purl.org/dc/elements/1.1/" xmlns:rdf="http://www.w3.org/1999/02/22-rdf-syntax-ns#" xmlns:svg="http://www.w3.org/2000/svg">
	<metadata id="metadata3342">
		<rdf:RDF>
			<cc:Work rdf:about="">
				<dc:format>image/svg+xml</dc:format>
				<dc:type rdf:resource="http://purl.org/dc/dcmitype/StillImage"/>
				<dc:title/>
			</cc:Work>
		</rdf:RDF>
	</metadata>
	<defs id="defs3340">
		<clipPath clipPathUnits="userSpaceOnUse" id="clipPath3350">
			
		</clipPath>
		<clipPath clipPathUnits="userSpaceOnUse" id="clipPath3356">
			
		</clipPath>
		<clipPath clipPathUnits="userSpaceOnUse" id="clipPath3368">
			
		</clipPath>
		<clipPath clipPathUnits="userSpaceOnUse" id="clipPath3576">
			
		</clipPath>
	</defs>
	<g id="g3344" transform="matrix(1.25,0,0,-1.25,-35.4325,1574.995)">
		<g id="g3424" transform="matrix(8,0,0,8,1280.586,1251.668)">
			
		</g>
		<g id="g3428" transform="matrix(8,0,0,8,1280.586,1251.668)">
			
		</g>
		
		<g id="g3434" transform="matrix(8,0,0,8,1926.898,1028.044)">
			
		</g>
		<g id="g3438" transform="matrix(8,0,0,8,28.346,708.596)">
			
		</g>
		<g id="g3442" transform="matrix(8,0,0,8,28.346,708.596)">
			
		</g>
		<g id="g3446" transform="matrix(8,0,0,8,2199.89,933.22)">
			
		</g>
		<g id="g3450" transform="matrix(8,0,0,8,2199.89,933.22)">
			
		</g>
		<g id="g3454" transform="matrix(8,0,0,8,2602.994,708.596)">
			
		</g>
		<g id="g3458" transform="matrix(8,0,0,8,3586.658,976.396)">
			
		</g>
		<g id="g3462" transform="matrix(8,0,0,8,3586.658,976.396)">
			<path animation_id="14" d="M 0,0 C -0.106,19.29 17.646,33.094 40.664,35.403 23.946,32.226 11.309,17.536 11.309,-0.104 c 0,-16.904 11.602,-31.097 27.277,-35.05 C 16.588,-32.213 -0.103,-18.533 0,0 Z M 53.992,35.45 C 77.219,33.296 95.124,19.512 95.124,0 c 0,-18.658 -16.837,-32.396 -39.037,-35.213 15.793,3.871 27.511,18.12 27.511,35.109 0,17.729 -12.766,32.478 -29.606,35.554" id="path3464" stroke="black" style="fill:#b00931;fill-opacity:1;fill-rule:nonzero;"/>
		</g>
		<g id="g3466" transform="matrix(8,0,0,8,3695.026,1008.044)">
			
		</g>
		<g id="g3470" transform="matrix(8,0,0,8,3695.026,1008.044)">
			
		</g>
		<g id="g3474" transform="matrix(8,0,0,8,3752.89,976.852)">
			
		</g>
		<g id="g3478" transform="matrix(8,0,0,8,3752.89,976.852)">
			
		</g>
		<g id="g3482" transform="matrix(8,0,0,8,3890.81,975.86)">
			
		</g>
	</g>
</svg>