<?xml version="1.0" encoding="iso-8859-1"?><svg height="706.63" id="svg3336" version="1.1" viewBox="0 0 5399.1299 706.63" width="5399.1299" xml:space="preserve" xmlns="http://www.w3.org/2000/svg" xmlns:cc="http://creativecommons.org/ns#" xmlns:dc="http://purl.org/dc/elements/1.1/" xmlns:rdf="http://www.w3.org/1999/02/22-rdf-syntax-ns#" xmlns:svg="http://www.w3.org/2000/svg">
	<metadata id="metadata3342">
		<rdf:RDF>
			<cc:Work rdf:about="">
				<dc:format>image/svg+xml</dc:format>
				<dc:type rdf:resource="http://purl.org/dc/dcmitype/StillImage"/>
				<dc:title/>
			</cc:Work>
		</rdf:RDF>
	</metadata>
	<defs id="defs3340">
		<clipPath clipPathUnits="userSpaceOnUse" id="clipPath3350">
			
		</clipPath>
		<clipPath clipPathUnits="userSpaceOnUse" id="clipPath3356">
			
		</clipPath>
		<clipPath clipPathUnits="userSpaceOnUse" id="clipPath3368">
			
		</clipPath>
		<clipPath clipPathUnits="userSpaceOnUse" id="clipPath3576">
			
		</clipPath>
	</defs>
	<g id="g3344" transform="matrix(1.25,0,0,-1.25,-35.4325,1574.995)">
		<g id="g3424" transform="matrix(8,0,0,8,1280.586,1251.668)">
			
		</g>
		<g id="g3428" transform="matrix(8,0,0,8,1280.586,1251.668)">
			
		</g>
		
		<g id="g3434" transform="matrix(8,0,0,8,1926.898,1028.044)">
			
		</g>
		<g id="g3438" transform="matrix(8,0,0,8,28.346,708.596)">
			
		</g>
		<g id="g3442" transform="matrix(8,0,0,8,28.346,708.596)">
			
		</g>
		<g id="g3446" transform="matrix(8,0,0,8,2199.89,933.22)">
			
		</g>
		<g id="g3450" transform="matrix(8,0,0,8,2199.89,933.22)">
			
		</g>
		<g id="g3454" transform="matrix(8,0,0,8,2602.994,708.596)">
			
		</g>
		<g id="g3458" transform="matrix(8,0,0,8,3586.658,976.396)">
			
		</g>
		<g id="g3462" transform="matrix(8,0,0,8,3586.658,976.396)">
			
		</g>
		<g id="g3466" transform="matrix(8,0,0,8,3695.026,1008.044)">
			
		</g>
		<g id="g3470" transform="matrix(8,0,0,8,3695.026,1008.044)">
			
		</g>
		<g id="g3474" transform="matrix(8,0,0,8,3752.89,976.852)">
			
		</g>
		<g id="g3478" transform="matrix(8,0,0,8,3752.89,976.852)">
			<path animation_id="18" d="M 0,0 C 0,9.208 9.509,14.496 22.015,15.515 15.314,13.5 10.435,7.286 10.435,-0.069 c 0,-7.123 4.577,-13.177 10.95,-15.382 C 9.191,-14.258 0,-8.807 0,0 Z M 31.482,15.49 C 43.821,14.423 53.164,9.218 53.164,0 c 0,-8.814 -9.024,-14.181 -21.052,-15.421 6.33,2.23 10.866,8.26 10.866,15.352 0,7.325 -4.84,13.519 -11.496,15.559" id="path3480" stroke="black" style="fill:#b00931;fill-opacity:1;fill-rule:nonzero;"/>
		</g>
		<g id="g3482" transform="matrix(8,0,0,8,3890.81,975.86)">
			
		</g>
	</g>
</svg>