<?xml version="1.0" encoding="iso-8859-1"?><svg height="706.63" id="svg3336" version="1.1" viewBox="0 0 5399.1299 706.63" width="5399.1299" xml:space="preserve" xmlns="http://www.w3.org/2000/svg" xmlns:cc="http://creativecommons.org/ns#" xmlns:dc="http://purl.org/dc/elements/1.1/" xmlns:rdf="http://www.w3.org/1999/02/22-rdf-syntax-ns#" xmlns:svg="http://www.w3.org/2000/svg">
	<metadata id="metadata3342">
		<rdf:RDF>
			<cc:Work rdf:about="">
				<dc:format>image/svg+xml</dc:format>
				<dc:type rdf:resource="http://purl.org/dc/dcmitype/StillImage"/>
				<dc:title/>
			</cc:Work>
		</rdf:RDF>
	</metadata>
	<defs id="defs3340">
		<clipPath clipPathUnits="userSpaceOnUse" id="clipPath3350">
			
		</clipPath>
		<clipPath clipPathUnits="userSpaceOnUse" id="clipPath3356">
			
		</clipPath>
		<clipPath clipPathUnits="userSpaceOnUse" id="clipPath3368">
			<path animation_id="2" d="m 0.029999,793.701 595.246001,0 0,-793.671 -595.246001,0 0,793.671 z" id="path3370" stroke="black"/>
		</clipPath>
		<clipPath clipPathUnits="userSpaceOnUse" id="clipPath3576">
			
		</clipPath>
	</defs>
	<g id="g3344" transform="matrix(1.25,0,0,-1.25,-35.4325,1574.995)">
		<g id="g3424" transform="matrix(8,0,0,8,1280.586,1251.668)">
			
		</g>
		<g id="g3428" transform="matrix(8,0,0,8,1280.586,1251.668)">
			
		</g>
		
		<g id="g3434" transform="matrix(8,0,0,8,1926.898,1028.044)">
			
		</g>
		<g id="g3438" transform="matrix(8,0,0,8,28.346,708.596)">
			
		</g>
		<g id="g3442" transform="matrix(8,0,0,8,28.346,708.596)">
			
		</g>
		<g id="g3446" transform="matrix(8,0,0,8,2199.89,933.22)">
			
		</g>
		<g id="g3450" transform="matrix(8,0,0,8,2199.89,933.22)">
			
		</g>
		<g id="g3454" transform="matrix(8,0,0,8,2602.994,708.596)">
			
		</g>
		<g id="g3458" transform="matrix(8,0,0,8,3586.658,976.396)">
			
		</g>
		<g id="g3462" transform="matrix(8,0,0,8,3586.658,976.396)">
			
		</g>
		<g id="g3466" transform="matrix(8,0,0,8,3695.026,1008.044)">
			
		</g>
		<g id="g3470" transform="matrix(8,0,0,8,3695.026,1008.044)">
			
		</g>
		<g id="g3474" transform="matrix(8,0,0,8,3752.89,976.852)">
			
		</g>
		<g id="g3478" transform="matrix(8,0,0,8,3752.89,976.852)">
			
		</g>
		<g id="g3482" transform="matrix(8,0,0,8,3890.81,975.86)">
			
		</g>
	</g>
</svg>