<?xml version="1.0" encoding="iso-8859-1"?><!-- Generator: Adobe Illustrator 16.0.3, SVG Export Plug-In . SVG Version: 6.00 Build 0)  --><!DOCTYPE svg  PUBLIC '-//W3C//DTD SVG 1.1//EN'  'http://www.w3.org/Graphics/SVG/1.1/DTD/svg11.dtd'><svg enable-background="new 0 0 566.93 425.2" height="425.2px" id="Ebene_1" version="1.1" viewBox="0 0 566.93 425.2" width="566.93px" x="0px" xml:space="preserve" xmlns="http://www.w3.org/2000/svg" xmlns:xlink="http://www.w3.org/1999/xlink" y="0px">
	

	<g>
		
	
		<g>
			
		
			<g>
				
			
				
				
		
			</g>
			
		
			
			
		
			
			
		
			
			
		
			<path animation_id="2" d="M218.143,384.189h-23.208v-48.812h23.208c10.744,0,17.156,5.469,17.156,14.631    c0,3.738-1.627,6.812-4.638,8.859c4.147,2.41,6.035,7.299,6.035,10.488C236.696,379.061,230.282,384.189,218.143,384.189     M205.846,373.744h12.297c1.266,0,7.576-0.213,7.576-4.451c0-3.383-4.48-5.254-7.576-5.254h-12.297V373.744z M205.846,354.062    h12.297c4.103,0,6.182-1.295,6.182-3.854c0-1.588-1.292-4.586-6.182-4.586h-12.297V354.062z" fill="#58585A" stroke="black"/>
			
		
			
			
	
		</g>
		
	
		<g>
			
		
			
			
		
			
			
		
			
			
		
			
			
		
			
			
		
			
			
		
			
			
		
			
			
	
		</g>
		

	</g>
	

	<g>
		
	
		
		
	
		
		
	
		
		
	
		
		
	
		
		

	</g>
	

</svg>