<?xml version="1.0" encoding="iso-8859-1"?><!-- Generator: Adobe Illustrator 16.0.3, SVG Export Plug-In . SVG Version: 6.00 Build 0)  --><!DOCTYPE svg  PUBLIC '-//W3C//DTD SVG 1.1//EN'  'http://www.w3.org/Graphics/SVG/1.1/DTD/svg11.dtd'><svg enable-background="new 0 0 566.93 425.2" height="425.2px" id="Ebene_1" version="1.1" viewBox="0 0 566.93 425.2" width="566.93px" x="0px" xml:space="preserve" xmlns="http://www.w3.org/2000/svg" xmlns:xlink="http://www.w3.org/1999/xlink" y="0px">
	

	<g>
		
	
		<g>
			
		
			<g>
				
			
				
				
		
			</g>
			
		
			
			
		
			
			
		
			
			
		
			
			
		
			
			
	
		</g>
		
	
		<g>
			
		
			
			
		
			
			
		
			
			
		
			
			
		
			
			
		
			
			
		
			
			
		
			
			
	
		</g>
		

	</g>
	

	<g>
		
	
		
		
	
		
		
	
		<path animation_id="13" d="M253.611,181.381c24.033-4.691,50.104-8.152,64.346,0.566c20.977-38.905,20.943-75.401-4.677-104.882   c-2.104-2.351-3.076-3.817-6.853-4.98l-22.807-7.301c-0.084-8.315-0.07-9.882-0.09-11.867c5.711-0.16,6.609-0.833,6.609-0.833   l1.676-13.314c0,0-2.684-1.343-11.059-1.343c-7.59,0-10.566,1.343-10.566,1.343l1.888,13.314c0,0,1.614,0.634,6.375,0.816   c-0.024,2.637,0.295,5.142,0.244,10.275l-36.144-9.86c-2.846-0.983-4.11,2.02-2.803,3.488   c37.883,38.758,37.359,84.024,13.816,124.676" fill="#A5082F" stroke="black"/>
		
	
		
		
	
		
		

	</g>
	

</svg>