<?xml version="1.0" encoding="iso-8859-1"?><!-- Generator: Adobe Illustrator 16.0.3, SVG Export Plug-In . SVG Version: 6.00 Build 0)  --><!DOCTYPE svg  PUBLIC '-//W3C//DTD SVG 1.1//EN'  'http://www.w3.org/Graphics/SVG/1.1/DTD/svg11.dtd'><svg enable-background="new 0 0 566.93 425.2" height="425.2px" id="Ebene_1" version="1.1" viewBox="0 0 566.93 425.2" width="566.93px" x="0px" xml:space="preserve" xmlns="http://www.w3.org/2000/svg" xmlns:xlink="http://www.w3.org/1999/xlink" y="0px">
	

	<g>
		
	
		<g>
			
		
			<g>
				
			
				
				
		
			</g>
			
		
			
			
		
			
			
		
			
			
		
			
			
		
			<path animation_id="3" d="M147.342,385.382c-8.049,0-17.445-3.73-17.445-14.246c0-5.1,3.211-9.672,9.551-13.607    c-2.852-3.117-5.018-5.779-5.018-10.402c0-9.381,7.855-12.723,15.207-12.723c8.66,0,14.256,4.875,14.256,12.426    c0,5.883-3.398,9.1-7.64,12.238l5.134,5.48l5.67-5.895l7.461,7.516l-6.047,6.166l9.177,9.7l0.008,2.149h-12.9l-3.616-4.105    C157.382,383.69,152.977,385.382,147.342,385.382 M146.68,364.327c-2.748,1.764-5.414,3.91-4.802,6.93    c0.685,3.402,4.175,3.768,5.646,3.768c2.121,0,4.217-0.922,6.388-2.818L146.68,364.327z M149.501,343.892    c-2.178,0-3.589,1.424-3.589,3.635c0,1.797,1.824,3.447,3.29,4.773c1.955-1.186,4.002-2.771,4.002-4.809    C153.204,345.304,151.75,343.892,149.501,343.892" fill="#58585A" stroke="black"/>
			
	
		</g>
		
	
		<g>
			
		
			
			
		
			
			
		
			
			
		
			
			
		
			
			
		
			
			
		
			
			
		
			
			
	
		</g>
		

	</g>
	

	<g>
		
	
		
		
	
		
		
	
		
		
	
		
		
	
		
		

	</g>
	

</svg>