<?xml version="1.0" encoding="iso-8859-1"?><!-- Created with Inkscape (http://www.inkscape.org/) --><svg height="510" id="svg3428" inkscape:version="0.48.1 " sodipodi:docname="Neues Dokument 3" version="1.1" width="818.85999" xmlns="http://www.w3.org/2000/svg" xmlns:cc="http://creativecommons.org/ns#" xmlns:dc="http://purl.org/dc/elements/1.1/" xmlns:inkscape="http://www.inkscape.org/namespaces/inkscape" xmlns:rdf="http://www.w3.org/1999/02/22-rdf-syntax-ns#" xmlns:sodipodi="http://sodipodi.sourceforge.net/DTD/sodipodi-0.dtd" xmlns:svg="http://www.w3.org/2000/svg">
	
  
	<defs id="defs3430"/>
	
  
	<sodipodi:namedview bordercolor="#666666" borderopacity="1.0" fit-margin-bottom="0" fit-margin-left="0" fit-margin-right="0" fit-margin-top="0" id="base" inkscape:current-layer="layer1" inkscape:cx="409.42998" inkscape:cy="280.87322" inkscape:document-units="px" inkscape:pageopacity="0.0" inkscape:pageshadow="2" inkscape:window-height="990" inkscape:window-maximized="1" inkscape:window-width="1680" inkscape:window-x="-4" inkscape:window-y="-4" inkscape:zoom="1.546" pagecolor="#ffffff" showgrid="false"/>
	
  
	<metadata id="metadata3433">
		
    
		<rdf:RDF>
			
      
			<cc:Work rdf:about="">
				
        
				<dc:format>image/svg+xml</dc:format>
				
        
				<dc:type rdf:resource="http://purl.org/dc/dcmitype/StillImage"/>
				
        
				<dc:title/>
				
      
			</cc:Work>
			
    
		</rdf:RDF>
		
  
	</metadata>
	
  
	<g id="layer1" inkscape:groupmode="layer" inkscape:label="Ebene 1" transform="translate(-487.31143,-55.50406)">
		
    
		<g id="g230" transform="matrix(23.778951,0,0,-23.778951,864.25939,414.92932)">
			
      
			
			
    
		</g>
		
    
		<g id="g234" transform="matrix(23.778951,0,0,-23.778951,1221.1101,407.32006)">
			
      
			<path animation_id="1" d="m 0,0 0,-1.775 0.358,0 0,1.243 0.706,-1.243 0.38,0 0,1.775 -0.355,0 0,-1.22 L 0.397,0 0,0" id="path236" inkscape:connector-curvature="0" stroke="black" style="fill:#001f45;fill-opacity:1;fill-rule:nonzero;"/>
			
    
		</g>
		
    
		<g id="g238" transform="matrix(23.778951,0,0,-23.778951,1196.1422,417.35478)">
			
      
			
			
    
		</g>
		
    
		<g id="g242" transform="matrix(23.778951,0,0,-23.778951,1144.1139,407.32006)">
			
      
			
			
    
		</g>
		
    
		<g id="g246" transform="matrix(23.778951,0,0,-23.778951,1099.9563,407.32006)">
			
      
			
			
    
		</g>
		
    
		<g id="g250" transform="matrix(23.778951,0,0,-23.778951,1093.2031,421.46853)">
			
      
			
			
    
		</g>
		
    
		<g id="g254" transform="matrix(23.778951,0,0,-23.778951,1015.3508,419.23331)">
			
      
			
			
    
		</g>
		
    
		<g id="g258" transform="matrix(23.778951,0,0,-23.778951,976.59115,407.36762)">
			
      
			
			
    
		</g>
		
    
		<g id="g262" transform="matrix(23.778951,0,0,-23.778951,937.47478,407.36762)">
			
      
			
			
    
		</g>
		
    
		<g id="g266" transform="matrix(23.778951,0,0,-23.778951,898.38218,407.36762)">
			
      
			
			
    
		</g>
		
    
		<g id="g270" transform="matrix(23.778951,0,0,-23.778951,1274.1609,414.90554)">
			
      
			
			
    
		</g>
		
    
		<g id="g274" transform="matrix(23.778951,0,0,-23.778951,766.0761,407.93831)">
			
      
			
			
    
		</g>
		
    
		<g id="g278" transform="matrix(23.778951,0,0,-23.778951,631.5348,407.93831)">
			
      
			
			
    
		</g>
		
    
		<g id="g282" transform="matrix(23.778951,0,0,-23.778951,535.75318,435.30788)">
			
      
			
			
    
		</g>
		
    
		<g id="g286" transform="matrix(23.778951,0,0,-23.778951,1181.8273,234.23308)">
			
      
			
			
    
		</g>
		
    
		<g id="g290" transform="matrix(23.778951,0,0,-23.778951,961.0635,261.53131)">
			
      
			
			
    
		</g>
		
    
		<g id="g294" transform="matrix(23.778951,0,0,-23.778951,1087.5913,261.53131)">
			
      
			
			
    
		</g>
		
    
		<g id="g298" transform="matrix(23.778951,0,0,-23.778951,788.00029,234.2093)">
			
      
			
			
    
		</g>
		
    
		<g id="g302" transform="matrix(23.778951,0,0,-23.778951,682.16018,261.53131)">
			
      
			
			
    
		</g>
		
    
		<g id="g306" transform="matrix(23.778951,0,0,-23.778951,492.30904,311.51467)">
			
      
			
			
    
		</g>
		
    
		<g id="g310" transform="matrix(23.778951,0,0,-23.778951,1172.601,60.50406)">
			
      
			
			
    
		</g>
		
    
		<g id="g314" transform="matrix(23.778951,0,0,-23.778951,1034.3502,60.50406)">
			
      
			
			
    
		</g>
		
    
		
		
    
		<g id="g320" transform="matrix(23.778951,0,0,-23.778951,851.75166,87.826075)">
			
      
			
			
    
		</g>
		
    
		<g id="g324" transform="matrix(23.778951,0,0,-23.778951,681.51815,60.50406)">
			
      
			
			
    
		</g>
		
    
		<g id="g328" transform="matrix(23.778951,0,0,-23.778951,503.50893,60.50406)">
			
      
			
			
    
		</g>
		
  
	</g>
	

</svg>