<?xml version="1.0" encoding="iso-8859-1"?><svg height="85.558006" id="svg6228" version="1.1" viewBox="0 0 533.49604 85.558008" width="533.49603" xmlns="http://www.w3.org/2000/svg" xmlns:cc="http://creativecommons.org/ns#" xmlns:dc="http://purl.org/dc/elements/1.1/" xmlns:rdf="http://www.w3.org/1999/02/22-rdf-syntax-ns#" xmlns:svg="http://www.w3.org/2000/svg">
	
  
	<defs id="defs6230"/>
	
  
	<metadata id="metadata6233">
		
    
		<rdf:RDF>
			
      
			<cc:Work rdf:about="">
				
        
				<dc:format>image/svg+xml</dc:format>
				
        
				<dc:type rdf:resource="http://purl.org/dc/dcmitype/StillImage"/>
				
        
				<dc:title/>
				
      
			</cc:Work>
			
    
		</rdf:RDF>
		
  
	</metadata>
	
  
	<g id="layer1" transform="translate(-72.664861,-423.74813)">
		
    
		
		
    
		
		
    
		<path animation_id="2" d="m 322.95278,485.60622 0,0 -23.79313,0 c -3.37911,0 -6.51437,-0.80077 -9.64964,-2.08894 -2.36885,-1.04449 -6.27051,-4.45645 -7.59429,-5.74462 -2.09017,-2.36748 -3.90164,-5.22238 -4.94673,-8.35581 -1.32378,-3.13342 -2.09018,-6.54538 -2.09018,-9.9225 0,-4.17792 1.28895,-7.58986 3.90166,-9.92252 0.27869,-0.27853 1.32377,-1.04448 2.36887,-1.84523 1.28893,-0.76596 2.61271,-1.04449 3.65779,-1.2882 1.28893,-0.27853 2.85656,-0.52224 4.4242,-0.52224 1.84631,0 3.41395,0.24371 4.70289,0.52224 2.61272,0.52224 5.50411,1.56671 8.11683,3.13343 3.65781,2.33266 7.55947,5.98831 10.17219,9.40028 l -24.80339,0 c -1.56763,0 -2.36887,0.76595 -2.36887,2.08894 0,2.61119 0.52255,4.1779 1.56763,6.26685 1.04508,2.08895 5.74798,9.40027 15.43244,9.40027 l 23.23575,0 c 3.9365,0 6.79306,-1.04446 8.3607,-3.13341 1.56763,-2.36748 2.09018,-4.17791 2.09018,-7.06762 0,-4.70013 -1.28895,-9.40027 -3.90166,-14.34412 -2.36887,-4.97867 -5.74798,-9.43509 -10.20701,-13.61299 -4.18035,-4.17791 -9.12709,-7.31132 -14.63122,-9.92251 -5.74796,-2.61119 -11.7398,-3.89939 -17.76646,-3.89939 l -34.244,0 c -0.7664,0 -1.56761,0.76595 -1.56761,1.81044 l 0,33.70171 c 0,6.5454 1.04508,12.53371 3.65779,18.03462 2.36887,5.7446 5.78282,10.68845 9.96316,14.86636 4.18035,4.1779 9.12709,7.58984 14.6312,10.20103 5.74798,2.33266 11.7398,3.65567 18.01033,3.65567 l 34.24398,0 c 1.0451,0 1.8115,-0.80077 1.8115,-1.56672 l 0,-7.06762 c 0,-3.89936 -1.28895,-7.03279 -3.37911,-9.40027 -2.36887,-2.08895 -5.50413,-3.37713 -9.40579,-3.37713 z" id="path4264" stroke="black" style="fill:#007bbc;fill-opacity:1;fill-rule:nonzero;"/>
		
    
		
		
    
		
		
  
	</g>
	

</svg>