<?xml version="1.0" encoding="iso-8859-1"?><svg height="85.558006" id="svg6228" version="1.1" viewBox="0 0 533.49604 85.558008" width="533.49603" xmlns="http://www.w3.org/2000/svg" xmlns:cc="http://creativecommons.org/ns#" xmlns:dc="http://purl.org/dc/elements/1.1/" xmlns:rdf="http://www.w3.org/1999/02/22-rdf-syntax-ns#" xmlns:svg="http://www.w3.org/2000/svg">
	
  
	<defs id="defs6230"/>
	
  
	<metadata id="metadata6233">
		
    
		<rdf:RDF>
			
      
			<cc:Work rdf:about="">
				
        
				<dc:format>image/svg+xml</dc:format>
				
        
				<dc:type rdf:resource="http://purl.org/dc/dcmitype/StillImage"/>
				
        
				<dc:title/>
				
      
			</cc:Work>
			
    
		</rdf:RDF>
		
  
	</metadata>
	
  
	<g id="layer1" transform="translate(-72.664861,-423.74813)">
		
    
		<path animation_id="0" d="m 528.86962,507.01796 0,0 c 5.46928,0 9.92833,-2.36747 13.30744,-5.74462 0.27868,-0.27853 2.61271,-2.36747 5.50411,-5.50091 1.81148,-1.5667 3.90166,-2.85488 6.51437,-3.13341 0.52255,0 1.56764,0 1.84632,0 0.7664,0 1.81148,0 2.61271,0 2.85658,0.52224 5.4693,1.323 7.83816,2.36748 l 22.99189,9.40027 c 0,0 5.74798,2.61119 10.45086,2.61119 l 3.41395,0 c 1.0451,0 1.81149,-0.80077 1.81149,-1.84525 l 0,-8.5995 c 0,-5.74463 -3.37911,-11.24552 -9.12708,-13.8567 l -5.22543,-2.08895 c -4.18035,-1.56673 -8.6394,-4.42161 -10.97342,-6.78909 0,0 -4.70288,-5.46609 0.76639,-10.68847 l 20.3792,-20.64578 c 2.61271,-2.88972 4.18034,-6.54538 4.18034,-10.20105 0,0 0,-1.56671 -0.52255,-2.8549 -0.24384,-1.04447 -1.04508,-2.08895 -1.56763,-2.61119 -1.28893,-1.323 -3.13526,-2.08895 -5.22543,-2.08895 l -3.37911,0 c -5.22542,0 -9.92832,2.33266 -13.34227,5.74462 -0.24384,0.24371 -13.58612,13.57817 -17.24393,17.23385 l -18.5677,18.80054 0,-29.76754 c 0,-6.54538 -5.46927,-12.01147 -12.26233,-12.01147 l -5.22545,0 c -1.32376,0 -3.41395,0 -4.18034,0.52224 -0.80122,0.24371 -0.80122,1.2882 -0.80122,2.08895 l 0,77.81339 c 0,1.04448 0.80122,1.84525 1.84632,1.84525 l 4.18034,0 z" id="path4244" stroke="black" style="fill:#007bbc;fill-opacity:1;fill-rule:nonzero;"/>
		
    
		
		
    
		
		
    
		
		
    
		
		
  
	</g>
	

</svg>