<?xml version="1.0" encoding="iso-8859-1"?><svg height="85.558006" id="svg6228" version="1.1" viewBox="0 0 533.49604 85.558008" width="533.49603" xmlns="http://www.w3.org/2000/svg" xmlns:cc="http://creativecommons.org/ns#" xmlns:dc="http://purl.org/dc/elements/1.1/" xmlns:rdf="http://www.w3.org/1999/02/22-rdf-syntax-ns#" xmlns:svg="http://www.w3.org/2000/svg">
	
  
	<defs id="defs6230"/>
	
  
	<metadata id="metadata6233">
		
    
		<rdf:RDF>
			
      
			<cc:Work rdf:about="">
				
        
				<dc:format>image/svg+xml</dc:format>
				
        
				<dc:type rdf:resource="http://purl.org/dc/dcmitype/StillImage"/>
				
        
				<dc:title/>
				
      
			</cc:Work>
			
    
		</rdf:RDF>
		
  
	</metadata>
	
  
	<g id="layer1" transform="translate(-72.664861,-423.74813)">
		
    
		
		
    
		
		
    
		
		
    
		<path animation_id="3" d="m 245.86026,436.7596 0,0 c 0,-6.54538 -5.50413,-12.01147 -12.29719,-12.01147 l -12.78488,0 c -0.52255,0 -1.0451,0.24371 -1.56764,0.52224 l -25.8833,24.30146 c -8.60454,8.35579 -20.62305,12.77742 -33.68661,12.77742 -13.62096,0 -25.88331,-4.94385 -34.76655,-13.8219 0,0 -18.81155,-17.79089 -19.09023,-18.0346 -3.65782,-3.41196 -8.604558,-5.74462 -14.352535,-5.74462 l -15.432435,0 c -1.288928,0 -2.334029,1.04448 -2.334029,2.33266 l 0,67.92571 c 0,6.78908 5.469293,12.01146 12.018505,12.01146 l 4.702877,0 3.37911,0 c 1.323786,0 2.368867,-1.04448 2.368867,-2.36747 l 0,-24.02293 c 0,-6.51058 5.22543,-11.73294 11.21727,-11.73294 11.77462,0 19.85663,9.92252 27.45092,16.7116 9.12709,8.07727 16.19883,15.91083 24.83823,15.91083 8.88322,0 15.92014,-7.83356 25.08207,-15.91083 7.55945,-6.78908 15.67628,-16.7116 27.17223,-16.7116 6.27051,0 11.49596,5.22236 11.49596,11.48923 l 0,14.62265 c 0,6.78908 5.46927,12.01146 12.01849,12.01146 l 5.22542,0 c 1.56763,0 2.85658,0 2.85658,0 l 0,0 c 1.32377,0 2.36887,-1.04448 2.36887,-2.36747 l 0,-67.89089 z" id="path4274" stroke="black" style="fill:#007bbc;fill-opacity:1;fill-rule:nonzero;"/>
		
    
		
		
  
	</g>
	

</svg>