<?xml version="1.0" encoding="iso-8859-1"?><svg height="360" viewBox="0 0 121 121" width="360" xmlns="http://www.w3.org/2000/svg">
	

	
	

	<path animation_id="0" d="m26.14 17.3l30.55 26.7-22.79 63.5 55.49-72.64h5.3c1.07 4.28 11.36-8.29 7.59-8.29h-6.56l2.02-2.65h-15.56c-1.51 0-3.26 1.31-4.03 2.7l-2.04 3.66c-.19.33-.22.27-.7.14l-49.27-13.12zm62.1 9.27h3.4l-1.67 2.19h-3.4l1.67-2.19zm5.81 2.19h5.56c1.84 0 .24 1.54-.44 2.15.28.21.63.13.93-.01-.82.94-2.82 1.77-4.86 1.77h-4.18l2.98-3.91z" stroke="black"/>
	

</svg>