<?xml version="1.0" encoding="iso-8859-1"?><svg height="35" width="150" xmlns="http://www.w3.org/2000/svg">
	<defs>
		<clipPath>
			
		</clipPath>
	</defs>
	<g transform="translate(0 -1017.36)">
		<g fill="#d51f25">
			
			
			
			
			
			
			
			
		</g>
		
		<g fill="#fff">
			
			
			
			
			
			
			<path animation_id="16" d="m 118.69 1046.63 l 0.665 1.953 c 0.06 0.181 0.1 0.342 0.1 0.443 0 0.181 -0.1 0.263 -0.442 0.342 v 0.342 h 2.859 v -0.342 c -0.444 -0.08 -0.524 -0.181 -0.826 -1.046 l -2.899 -8.475 c -0.06 -0.161 -0.08 -0.342 -0.08 -0.442 0 -0.243 0.1 -0.342 0.442 -0.362 v -0.343 h -3.644 v 0.343 c 0.343 0.04 0.444 0.12 0.444 0.281 0 0.101 0 0.101 -0.121 0.524 l -2.757 8.475 c -0.263 0.785 -0.382 0.946 -0.866 1.046 v 0.342 h 2.839 v -0.342 c -0.343 -0.08 -0.484 -0.201 -0.464 -0.422 0 -0.081 0.04 -0.241 0.081 -0.402 l 0.604 -1.912 h 4.066 z m -0.504 -1.429 h -3.1 l 1.51 -4.691 l 1.59 4.691 z" stroke="black"/>
			
			
		</g>
		
	</g>
</svg>