<?xml version="1.0" encoding="iso-8859-1"?><svg height="35" width="150" xmlns="http://www.w3.org/2000/svg">
	<defs>
		<clipPath>
			
		</clipPath>
	</defs>
	<g transform="translate(0 -1017.36)">
		<g fill="#d51f25">
			
			
			
			
			<path animation_id="5" d="m 61.19 1019.47 c -0.141 0.464 -0.303 0.624 -0.704 0.624 h -6.966 v 0.342 c 0.464 0.101 0.625 0.261 0.625 0.564 v 9.159 c 0 0.342 -0.161 0.504 -0.625 0.605 v 0.341 h 7.328 c 0.383 0 0.584 0.181 0.705 0.625 h 0.321 v -2.678 h -0.321 c -0.121 0.563 -0.303 0.704 -0.825 0.704 h -4.831 v -3.622 h 3.16 c 0.403 0 0.584 0.16 0.705 0.604 h 0.321 v -2.678 h -0.321 c -0.121 0.483 -0.303 0.644 -0.705 0.644 h -3.16 v -3.261 h 4.59 c 0.381 0 0.563 0.181 0.704 0.665 h 0.322 v -2.638 h -0.322 z" stroke="black"/>
			
			
			
		</g>
		
		<g fill="#fff">
			
			
			
			
			
			
			
			
			
		</g>
		
	</g>
</svg>