<?xml version="1.0" encoding="iso-8859-1"?><svg height="35" width="150" xmlns="http://www.w3.org/2000/svg">
	<defs>
		<clipPath>
			
		</clipPath>
	</defs>
	<g transform="translate(0 -1017.36)">
		<g fill="#d51f25">
			
			
			
			
			
			
			
			
		</g>
		
		<g fill="#fff">
			<path animation_id="10" d="m 44.666 1045.82 l 0.946 2.777 c 0.04 0.141 0.08 0.342 0.08 0.422 -0.02 0.182 -0.14 0.283 -0.443 0.342 v 0.342 h 3.16 v -0.342 c -0.483 -0.1 -0.624 -0.261 -0.825 -0.805 l -3.845 -11.233 c -0.04 -0.121 -0.08 -0.241 -0.08 -0.362 0 -0.201 0.12 -0.322 0.443 -0.342 v -0.342 h -3.785 v 0.342 c 0.322 0.02 0.444 0.101 0.444 0.303 0 0.08 -0.02 0.181 -0.081 0.402 l -3.523 11.09 c -0.221 0.665 -0.362 0.846 -0.845 0.946 v 0.342 h 3.04 v -0.342 c -0.343 -0.08 -0.444 -0.16 -0.444 -0.362 0 -0.1 0.02 -0.241 0.101 -0.443 l 0.805 -2.737 h 4.851 z m -0.504 -1.61 h -3.865 l 1.852 -6.06 l 2.01 6.06 z" stroke="black"/>
			
			
			
			
			
			
			
			
		</g>
		
	</g>
</svg>