<?xml version="1.0" encoding="iso-8859-1"?><svg height="35" width="150" xmlns="http://www.w3.org/2000/svg">
	<defs>
		<clipPath>
			
		</clipPath>
	</defs>
	<g transform="translate(0 -1017.36)">
		<g fill="#d51f25">
			
			
			
			
			
			
			
			
		</g>
		
		<g fill="#fff">
			
			
			
			
			<path animation_id="14" d="m 92.66 1045.04 h 2.195 l 2.032 3.523 c 0.201 0.362 0.201 0.382 0.201 0.504 0 0.201 -0.141 0.281 -0.463 0.301 v 0.342 h 3.02 v -0.342 c -0.463 -0.08 -0.463 -0.08 -0.845 -0.684 l -2.215 -3.785 c 1.631 -0.644 2.335 -1.55 2.335 -3.04 0 -2.033 -1.449 -3.16 -4.065 -3.16 h -4.57 v 0.342 c 0.463 0.121 0.624 0.281 0.624 0.644 v 8.999 c 0 0.382 -0.161 0.564 -0.624 0.684 v 0.342 h 2.999 v -0.342 c -0.442 -0.1 -0.624 -0.301 -0.624 -0.684 v -3.644 z m 0 -1.429 v -3.564 h 2.195 c 1.63 0 2.335 0.544 2.335 1.831 0 1.209 -0.705 1.733 -2.335 1.733 h -2.195 z" stroke="black"/>
			
			
			
			
		</g>
		
	</g>
</svg>