<?xml version="1.0" encoding="iso-8859-1"?><svg height="35" width="150" xmlns="http://www.w3.org/2000/svg">
	<defs>
		<clipPath>
			
		</clipPath>
	</defs>
	<g transform="translate(0 -1017.36)">
		<g fill="#d51f25">
			
			
			
			
			
			
			
			
		</g>
		
		<g fill="#fff">
			
			
			
			<path animation_id="13" d="m 86.62 1038.07 c -0.14 0.464 -0.302 0.624 -0.704 0.624 h -6.966 v 0.342 c 0.464 0.101 0.625 0.263 0.625 0.564 v 9.16 c 0 0.341 -0.161 0.503 -0.625 0.604 v 0.341 h 7.328 c 0.382 0 0.584 0.181 0.705 0.625 h 0.321 v -2.678 h -0.321 c -0.121 0.564 -0.302 0.704 -0.825 0.704 h -4.831 v -3.622 h 3.16 c 0.403 0 0.584 0.161 0.705 0.604 h 0.321 v -2.678 h -0.321 c -0.121 0.483 -0.302 0.644 -0.705 0.644 h -3.16 v -3.261 h 4.59 c 0.381 0 0.564 0.181 0.704 0.665 h 0.323 v -2.638 h -0.323 z" stroke="black"/>
			
			
			
			
			
		</g>
		
	</g>
</svg>