<?xml version="1.0" encoding="iso-8859-1"?><!DOCTYPE svg  PUBLIC '-//W3C//DTD SVG 1.0//EN'  'http://www.w3.org/TR/2001/REC-SVG-20010904/DTD/svg10.dtd'><!-- Created with Inkscape (http://www.inkscape.org/) --><svg height="250" id="svg2" version="1.0" width="800" xmlns="http://www.w3.org/2000/svg" xmlns:svg="http://www.w3.org/2000/svg">
	
  
	<defs id="defs4"/>
	
  
	
	
  
	<path animation_id="1" d="M 728.55276,85.924691 L 728.55276,70.636744 L 735.04961,70.636744 C 736.68338,70.636758 737.87047,70.774063 738.61089,71.048662 C 739.35127,71.32329 739.94397,71.81168 740.38891,72.513842 C 740.83385,73.216033 741.05629,74.019013 741.05634,74.922792 C 741.05629,76.069916 740.71915,77.017157 740.04478,77.764512 C 739.37041,78.511886 738.36232,78.982901 737.02056,79.177552 C 737.68794,79.566883 738.23895,79.994446 738.67347,80.46024 C 739.10795,80.926043 739.69366,81.75336 740.43061,82.942186 L 742.29728,85.924691 L 738.60569,85.924691 L 736.37401,82.598053 C 735.58142,81.409222 735.03914,80.660122 734.74718,80.350743 C 734.45517,80.041374 734.1458,79.829334 733.81907,79.714616 C 733.4923,79.599908 732.97437,79.542551 732.26524,79.542547 L 731.63951,79.542547 L 731.63951,85.924691 L 728.55276,85.924691 z M 731.63951,77.102312 L 733.92335,77.102312 C 735.40415,77.102322 736.32878,77.039754 736.69726,76.914603 C 737.06574,76.789472 737.35428,76.573955 737.56284,76.268048 C 737.7714,75.96216 737.87568,75.579785 737.87568,75.120929 C 737.87568,74.606476 737.73837,74.191082 737.46376,73.874742 C 737.18915,73.558426 736.80154,73.358553 736.30101,73.27511 C 736.0507,73.240365 735.29987,73.222985 734.04846,73.22297 L 731.63951,73.22297 L 731.63951,77.102312 z" id="text3299" stroke="black" style="font-size:4.42996883px;font-style:normal;font-variant:normal;font-weight:bold;font-stretch:normal;text-align:start;line-height:100%;writing-mode:lr-tb;text-anchor:start;fill:#e80004;fill-opacity:1;;stroke-width:1px;stroke-linecap:butt;stroke-linejoin:miter;stroke-opacity:1;font-family:Arial;-inkscape-font-specification:Arial Bold"/>
	
  
	
	
  
	
	

</svg>