<?xml version="1.0" encoding="iso-8859-1"?><!DOCTYPE svg  PUBLIC '-//W3C//DTD SVG 1.0//EN'  'http://www.w3.org/TR/2001/REC-SVG-20010904/DTD/svg10.dtd'><!-- Created with Inkscape (http://www.inkscape.org/) --><svg height="250" id="svg2" version="1.0" width="800" xmlns="http://www.w3.org/2000/svg" xmlns:svg="http://www.w3.org/2000/svg">
	
  
	<defs id="defs4"/>
	
  
	<path animation_id="0" d="M 526.47438,35.528833 L 526.47438,136.47025 C 526.47438,158.97524 545.09928,177.60008 567.60424,177.60011 L 583.42342,177.60011 L 583.42342,143.85253 L 567.60424,143.85253 C 563.21166,143.85253 560.22196,140.86281 560.22196,136.47025 L 560.22196,97.148297 L 583.42342,97.148297 L 583.42342,63.400718 L 560.22196,63.400718 L 560.22196,35.528833 L 526.47438,35.528833 z M 343.42388,60.839518 C 311.02004,60.839518 284.36557,87.493896 284.36562,119.89778 C 284.36562,152.30163 311.02004,178.95604 343.42388,178.95604 C 375.82773,178.95604 402.48219,152.30164 402.48215,119.89778 C 402.48215,87.49393 375.82773,60.839518 343.42388,60.839518 z M 653.93176,60.839518 C 621.52781,60.839518 594.87344,87.493896 594.87349,119.89778 C 594.87339,152.30163 621.52791,178.95604 653.93176,178.95604 C 659.52788,178.95604 664.92951,178.07082 670.05225,176.5455 L 670.05225,139.33277 C 665.68184,142.98082 660.16411,145.20846 653.93176,145.20846 C 639.78737,145.20846 628.62107,134.04207 628.62107,119.89778 C 628.62097,105.75352 639.78747,94.587097 653.93176,94.587097 C 667.86869,94.587097 678.92169,105.44588 679.24244,119.29514 L 679.24244,119.4458 L 679.24244,178.95604 L 712.99002,178.95604 L 712.99002,121.85634 L 712.99002,119.89778 C 712.99002,87.49393 686.3356,60.839518 653.93176,60.839518 z M 164.29053,61.140835 C 138.6711,61.140835 117.43563,82.225629 117.43563,107.84507 L 117.43563,178.80538 L 151.18321,178.80538 L 151.18321,107.84507 C 151.18321,100.33804 156.78352,94.888415 164.29053,94.888415 L 166.24909,94.888415 C 173.13244,94.888415 178.3759,99.488745 179.20575,106.03717 C 179.18256,106.63319 179.05509,107.24384 179.05509,107.84507 L 179.05509,178.80538 L 213.10399,178.80538 L 213.10399,107.84507 C 213.10399,107.24384 212.97652,106.63319 212.95333,106.03717 C 213.78318,99.488735 219.02664,94.888415 225.90999,94.888415 L 227.86855,94.888415 C 235.37556,94.888415 240.97587,100.33806 240.97587,107.84507 L 240.97587,178.80538 L 274.72345,178.80538 L 274.72345,107.84507 C 274.72345,82.225634 253.48798,61.140835 227.86855,61.140835 L 225.90999,61.140835 C 214.62543,61.140835 204.22293,65.221135 196.07954,71.988272 C 187.93615,65.221135 177.53365,61.140835 166.24909,61.140835 L 164.29053,61.140835 z M 462.44437,61.140835 C 436.82494,61.140835 415.74012,82.225629 415.74012,107.84507 L 415.74012,178.80538 L 449.4877,178.80538 L 449.4877,107.84507 C 449.4877,100.33804 454.93737,94.888415 462.44437,94.888415 L 464.5536,94.888415 C 472.06075,94.888415 477.51026,100.33806 477.51026,107.84507 L 477.51026,178.80538 L 511.25784,178.80538 L 511.25784,107.84507 C 511.25784,82.225634 490.17307,61.140835 464.5536,61.140835 L 462.44437,61.140835 z M 343.42388,94.587097 C 357.56817,94.587097 368.73457,105.75349 368.73457,119.89778 C 368.73457,134.04206 357.56817,145.20846 343.42388,145.20846 C 329.2796,145.20846 318.1132,134.04207 318.1132,119.89778 C 318.1132,105.75352 329.2796,94.587097 343.42388,94.587097 z" id="rect3214" stroke="black" style="opacity:1;fill:#e80004;fill-opacity:1;fill-rule:nonzero;;stroke-width:7;stroke-linecap:butt;stroke-linejoin:miter;stroke-miterlimit:4;stroke-dasharray:none;stroke-dashoffset:0;stroke-opacity:1"/>
	
  
	
	
  
	
	
  
	
	

</svg>