<?xml version="1.0" encoding="iso-8859-1"?><!-- Created with Inkscape (http://www.inkscape.org/) --><svg height="413.85825" id="svg2" version="1.0" width="814.96063" xmlns="http://www.w3.org/2000/svg" xmlns:svg="http://www.w3.org/2000/svg">
	
  
	<defs id="defs4"/>
	
  
	<g id="layer1" transform="translate(-660.42785,183.26761)">
		
    
		<g id="g20717" transform="translate(17.717241,17.654926)">
			
      
			<path animation_id="0" d="M 199.46875,-180.75 C 94.589552,-180.74999 9.5625,-95.73363 9.5625,9.15625 C 9.5624996,60.290399 29.78766,106.70448 62.65625,140.84375 C 63.248848,141.52185 64.1812,141.24248 63.375,140.0625 C 44.292411,110.45093 33.21875,75.188467 33.21875,37.34375 C 33.21875,-67.546135 118.2456,-152.5625 223.125,-152.5625 C 272.9723,-152.56249 318.34112,-133.3484 352.21875,-101.9375 C 352.76844,-101.30213 353.6652,-101.85756 352.875,-102.78125 C 318.32977,-150.0391 262.49345,-180.75 199.46875,-180.75 z M 201.6875,-117.5 C 153.43121,-114.67553 107.09855,-89.78794 78.65625,-46.1875 C 31.046011,26.794934 51.61129,124.54601 124.59375,172.15625 C 156.99245,193.28906 194.29875,200.98184 229.90625,196.625 C 232.62386,196.18718 235.32,195.70619 238,195.15625 C 238.84921,195.03346 239.1597,194.08842 237.75,194.09375 C 209.25989,193.50643 180.59185,185.20657 154.96875,168.5 C 81.986355,120.88977 61.3898,23.14402 109,-49.84375 C 131.4677,-84.287362 165.1308,-107.06552 202.0625,-116.5 C 202.8847,-116.67086 203.0224,-117.58543 201.6875,-117.5 z M 119.21875,-14.96875 C 119.01524,-14.907306 118.7435,-14.660026 118.53125,-14.1875 C 99.57685,26.070564 100.97755,74.858451 126.53125,115.25 C 166.27145,178.08248 249.4124,196.808 312.25,157.0625 C 318.2033,153.29831 323.7902,149.14658 328.9375,144.65625 C 348.41499,127.66672 362.02315,105.87704 369.15625,82.21875 C 369.45014,81.305732 368.73855,80.849074 368.15625,81.90625 C 365.05426,87.416371 361.55415,92.740194 357.65625,97.8125 C 348.26981,110.03408 336.62435,120.84347 322.84375,129.5625 C 260.00576,169.308 176.83925,150.58783 137.09375,87.75 C 117.17295,56.259013 111.94255,19.64885 119.59375,-14.03125 C 119.77731,-14.678631 119.55794,-15.071156 119.21875,-14.96875 z " id="path19808" stroke="black" style="fill:#004576;fill-rule:nonzero;" transform="translate(650.86535,-2.5176142)"/>
			
      
			
			
      
			
			
      
			
			
      
			
			
      
			
			
      
			
			
      
			
			
      
			
			
      
			
			
      
			
			
      
			
			
      
			
			
      
			
			
      
			
			
    
		</g>
		
  
	</g>
	

</svg>