<?xml version="1.0" encoding="iso-8859-1"?><!-- Created with Inkscape (http://www.inkscape.org/) --><svg height="413.85825" id="svg2" version="1.0" width="814.96063" xmlns="http://www.w3.org/2000/svg" xmlns:svg="http://www.w3.org/2000/svg">
	
  
	<defs id="defs4"/>
	
  
	<g id="layer1" transform="translate(-660.42785,183.26761)">
		
    
		<g id="g20717" transform="translate(17.717241,17.654926)">
			
      
			
			
      
			
			
      
			
			
      
			
			
      
			
			
      
			<path animation_id="5" d="M 1111.0712,107.08308 C 1112.4325,103.20677 1114.4722,101.43413 1117.4674,101.43413 C 1120.6019,101.43413 1122.4383,103.75137 1121.8937,107.08308 L 1111.0712,107.08308 z M 1130.3993,112.39565 C 1132.5778,102.52334 1127.3399,95.1071 1117.6703,95.1071 C 1108.348,95.1071 1100.9266,102.66217 1100.9266,112.12334 C 1100.9266,121.24281 1106.9171,127.16405 1116.309,127.16405 C 1119.5127,127.16405 1123.2554,126.34715 1127.0674,124.92156 L 1128.6962,117.22768 C 1123.6612,119.26728 1120.1214,120.35649 1117.2645,120.35649 C 1112.8383,120.35649 1109.7098,117.43057 1110.1848,112.39565 L 1130.3993,112.39565 z " id="path19836" stroke="black" style="fill:#99b4c8;fill-rule:nonzero;"/>
			
      
			
			
      
			
			
      
			
			
      
			
			
      
			
			
      
			
			
      
			
			
      
			
			
      
			
			
    
		</g>
		
  
	</g>
	

</svg>