<?xml version="1.0" encoding="iso-8859-1"?><!-- Created with Inkscape (http://www.inkscape.org/) --><svg height="413.85825" id="svg2" version="1.0" width="814.96063" xmlns="http://www.w3.org/2000/svg" xmlns:svg="http://www.w3.org/2000/svg">
	
  
	<defs id="defs4"/>
	
  
	<g id="layer1" transform="translate(-660.42785,183.26761)">
		
    
		<g id="g20717" transform="translate(17.717241,17.654926)">
			
      
			
			
      
			
			
      
			
			
      
			
			
      
			
			
      
			
			
      
			
			
      
			
			
      
			
			
      
			
			
      
			
			
      
			
			
      
			
			
      
			
			
      
			<path animation_id="14" d="M 1439.2065,105.17696 C 1435.8695,103.47907 1431.8542,102.59276 1430.2899,102.59276 C 1429.0619,102.59276 1428.2447,103.13736 1428.2447,103.95426 C 1428.2447,107.35538 1438.523,109.94492 1438.523,117.43057 C 1438.523,123.07952 1433.7602,127.09465 1426.953,127.09465 C 1423.2739,127.09465 1420.1454,126.27774 1416.2638,124.30755 L 1417.5559,117.43057 C 1420.1454,118.38096 1423.071,119.60899 1425.997,119.60899 C 1427.8338,119.60899 1428.9922,118.93091 1428.9922,117.90577 C 1428.9922,114.57407 1418.6447,111.23702 1418.6447,105.11289 C 1418.6447,99.19164 1423.4127,95.1071 1430.2203,95.1071 C 1433.4881,95.1071 1436.4141,95.924012 1439.954,97.894201 L 1439.2065,105.17696 z " id="path19872" stroke="black" style="fill:#99b4c8;fill-rule:nonzero;"/>
			
    
		</g>
		
  
	</g>
	

</svg>