<?xml version="1.0" encoding="iso-8859-1"?><!-- Created with Inkscape (http://www.inkscape.org/) --><svg height="413.85825" id="svg2" version="1.0" width="814.96063" xmlns="http://www.w3.org/2000/svg" xmlns:svg="http://www.w3.org/2000/svg">
	
  
	<defs id="defs4"/>
	
  
	<g id="layer1" transform="translate(-660.42785,183.26761)">
		
    
		<g id="g20717" transform="translate(17.717241,17.654926)">
			
      
			
			
      
			
			
      
			
			
      
			
			
      
			
			
      
			
			
      
			
			
      
			
			
      
			
			
      
			
			
      
			<path animation_id="10" d="M 1313.0182,106.26617 C 1313.0182,109.46973 1311.993,112.94025 1307.9781,112.94025 C 1305.3242,112.94025 1303.6903,111.37051 1303.6903,108.64748 C 1303.6903,104.22657 1305.463,101.84526 1308.7308,101.84526 C 1311.3843,101.84526 1313.0182,103.54314 1313.0182,106.26617 M 1326.2221,95.651707 L 1308.9337,95.651707 C 1300.1505,95.651707 1295.2492,101.63703 1295.2492,107.29131 C 1295.2492,111.16761 1296.9523,114.02946 1300.6259,116.20788 C 1298.5166,116.75249 1297.6998,117.08886 1296.6802,117.77229 C 1295.2492,118.72268 1294.368,120.35649 1294.368,121.92624 C 1294.368,124.16873 1296.066,126.41656 1298.6503,127.63925 C 1293.4817,129.27307 1291.031,131.59031 1291.031,134.58564 C 1291.031,137.98675 1293.8875,142.21011 1305.7356,142.21011 C 1318.3256,142.21011 1321.6571,137.23925 1321.6571,132.13491 C 1321.6571,120.35649 1303.0073,123.82702 1303.0073,120.29242 C 1303.0073,118.99498 1304.1658,118.65327 1308.592,118.65327 C 1317.4393,118.65327 1321.5238,112.87084 1321.5238,107.35538 C 1321.5238,105.58808 1321.2513,104.36005 1320.3649,102.45393 L 1325.3357,102.45393 L 1326.2221,95.651707 z M 1304.7104,129.4813 C 1310.2259,130.70399 1313.0823,131.0457 1313.0823,133.35761 C 1313.0823,135.46662 1311.0426,136.28352 1305.8688,136.28352 C 1301.1009,136.28352 1299.0612,135.26373 1299.0612,133.0853 C 1299.0612,131.38742 1300.4922,130.0259 1304.7104,129.4813" id="path19856" stroke="black" style="fill:#99b4c8;fill-rule:nonzero;"/>
			
      
			
			
      
			
			
      
			
			
      
			
			
    
		</g>
		
  
	</g>
	

</svg>