<?xml version="1.0" encoding="iso-8859-1"?><!-- Created with Inkscape (http://www.inkscape.org/) --><svg height="78.360001" id="svg10209" inkscape:version="0.48.1 " sodipodi:docname="Neues Dokument 3" version="1.1" width="304.54999" xmlns="http://www.w3.org/2000/svg" xmlns:cc="http://creativecommons.org/ns#" xmlns:dc="http://purl.org/dc/elements/1.1/" xmlns:inkscape="http://www.inkscape.org/namespaces/inkscape" xmlns:rdf="http://www.w3.org/1999/02/22-rdf-syntax-ns#" xmlns:sodipodi="http://sodipodi.sourceforge.net/DTD/sodipodi-0.dtd" xmlns:svg="http://www.w3.org/2000/svg">
	
  
	<defs id="defs10211"/>
	
  
	<sodipodi:namedview bordercolor="#666666" borderopacity="1.0" fit-margin-bottom="0" fit-margin-left="0" fit-margin-right="0" fit-margin-top="0" id="base" inkscape:current-layer="layer1" inkscape:cx="152.27499" inkscape:cy="39.180001" inkscape:document-units="px" inkscape:pageopacity="0.0" inkscape:pageshadow="2" inkscape:window-height="678" inkscape:window-maximized="1" inkscape:window-width="1024" inkscape:window-x="-4" inkscape:window-y="-4" inkscape:zoom="2.9548952" pagecolor="#ffffff" showgrid="false"/>
	
  
	<metadata id="metadata10214">
		
    
		<rdf:RDF>
			
      
			<cc:Work rdf:about="">
				
        
				<dc:format>image/svg+xml</dc:format>
				
        
				<dc:type rdf:resource="http://purl.org/dc/dcmitype/StillImage"/>
				
        
				<dc:title/>
				
      
			</cc:Work>
			
    
		</rdf:RDF>
		
  
	</metadata>
	
  
	<g id="layer1" inkscape:groupmode="layer" inkscape:label="Ebene 1" transform="translate(-37.285149,-327.8941)">
		
    
		<g id="g6740" transform="matrix(1.25,0,0,-1.25,251.65074,333.5447)">
			
      
			
			
    
		</g>
		
    
		<g id="g6744" transform="matrix(1.25,0,0,-1.25,311.98204,328.9797)">
			
      
			
			
    
		</g>
		
    
		<g id="g6748" transform="matrix(1.25,0,0,-1.25,311.98204,405.0222)">
			
      
			
			
    
		</g>
		
    
		<g id="g6752" transform="matrix(1.25,0,0,-1.25,162.22204,405.231)">
			
      
			<path animation_id="3" d="m 0,0 10.195,0 0,9.042 14.784,0 0,6.05 -14.784,0 0,3.948 14.784,0 0,0.844 0.005,0 0,5.206 L 0,25.09 0,0 z m -44.985,42.984 c 0.063,0.765 0.19,1.529 0.509,2.228 0.192,0.637 0.574,1.274 1.02,1.848 0.447,0.509 0.956,1.019 1.529,1.4 0.446,0.255 0.956,0.51 1.465,0.701 0.701,0.255 1.402,0.382 2.167,0.382 0.828,0 1.721,-0.191 2.485,-0.509 0.637,-0.255 1.211,-0.638 1.72,-1.082 0.573,-0.446 1.02,-1.019 1.403,-1.593 0.255,-0.51 0.509,-1.019 0.7,-1.528 0.255,-0.7 0.319,-1.465 0.319,-2.229 0,-0.892 -0.128,-1.719 -0.446,-2.547 -0.255,-0.701 -0.638,-1.274 -1.084,-1.847 -0.446,-0.509 -0.956,-1.019 -1.528,-1.401 -0.447,-0.319 -0.957,-0.574 -1.466,-0.764 -0.573,-0.192 -1.211,-0.319 -1.785,-0.319 l -0.7,0 c -0.191,0 -0.383,0.064 -0.638,0.064 -0.509,0.063 -1.019,0.255 -1.529,0.445 -0.637,0.255 -1.21,0.638 -1.72,1.083 -0.574,0.446 -1.02,1.019 -1.402,1.592 -0.255,0.446 -0.51,1.019 -0.7,1.529 -0.192,0.573 -0.319,1.21 -0.319,1.846 l 0,0.701 z m -10.514,-2.675 c 0.127,-0.573 0.318,-1.146 0.574,-1.656 0.509,-1.209 1.209,-2.356 2.166,-3.311 0.892,-1.082 2.04,-1.974 3.249,-2.738 1.402,-0.891 2.995,-1.592 4.588,-2.101 1.338,-0.383 2.676,-0.701 4.015,-0.828 0.573,-0.064 1.146,-0.128 1.719,-0.128 l 1.721,0 c 1.784,0.064 3.505,0.319 5.225,0.829 1.466,0.382 2.931,0.955 4.269,1.718 1.402,0.765 2.677,1.784 3.824,2.929 1.018,1.02 1.911,2.293 2.485,3.63 0.572,1.338 0.892,2.802 0.892,4.204 0,0.892 -0.127,1.783 -0.32,2.61 -0.191,0.573 -0.382,1.083 -0.572,1.657 -0.51,1.209 -1.275,2.292 -2.167,3.311 -0.955,1.019 -2.103,1.974 -3.314,2.675 -1.401,0.955 -2.994,1.656 -4.587,2.165 -1.338,0.382 -2.677,0.637 -4.014,0.828 -0.574,0.064 -1.147,0.064 -1.721,0.127 l -1.721,0 c -1.592,-0.063 -3.121,-0.318 -4.651,-0.701 -1.529,-0.382 -2.994,-0.891 -4.396,-1.655 -1.466,-0.701 -2.74,-1.656 -3.887,-2.803 -1.084,-1.018 -2.039,-2.228 -2.675,-3.565 -0.575,-1.274 -0.957,-2.611 -1.021,-3.948 0,-0.255 0,-0.447 -0.064,-0.701 0.064,-0.191 0.064,-0.446 0.064,-0.637 0,-0.637 0.128,-1.273 0.319,-1.911 m -33.134,3.057 5.735,-13.246 9.366,0 5.671,12.673 0,-12.673 10.705,0 0,25.027 -15.483,0 -5.48,-12.354 -5.162,12.354 -15.801,0 0,-25.027 10.449,0 0,13.246 z m 68.243,-35.024 3.249,6.94 2.677,-6.94 -5.926,0 z m 10.242,12.606 -1.768,4.142 -11.15,0 L -33.261,0 l 9.621,0 0.765,1.72 10.959,0 0.765,-1.72 9.94,0 -8.937,20.947 0,0.001 z m -12.344,40.122 -10.132,0 0,-3.3116 10.132,0 0,3.3116 z m 76.59,-25.346 0,19.423 -10.259,0 0,-25.027 22.62,0 0,5.604 -12.361,0 z m -12.68,-5.604 0,5.604 -17.141,0 0,3.567 17.141,0 0,6.303 -17.141,0 0,3.185 17.141,0 0,6.368 -27.462,0 0.062,-25.027 27.4,0 z m -85.257,30.95 -10.132,0 0,-3.3116 10.132,0 0,3.3116 z M 3.313,46.359 C 3.25,46.104 3.122,45.912 2.995,45.722 2.931,45.594 2.803,45.531 2.676,45.404 2.421,45.212 2.039,45.212 1.721,45.212 l -10.513,0 0,3.375 11.022,0 c 0.064,0 0.191,-0.063 0.256,-0.063 0.127,-0.064 0.19,-0.128 0.254,-0.191 0.191,-0.064 0.255,-0.191 0.382,-0.381 0.128,-0.191 0.191,-0.446 0.191,-0.7 0.064,-0.319 0.064,-0.639 0,-0.893 m 0,-9.616 C 3.25,36.552 3.122,36.361 2.995,36.17 2.931,36.043 2.803,35.915 2.676,35.851 2.486,35.724 2.294,35.66 2.102,35.66 l -10.894,-0.064 0,3.439 11.022,0 c 0.064,-0.063 0.191,-0.063 0.256,-0.063 0.127,-0.064 0.19,-0.127 0.254,-0.191 0.191,-0.128 0.255,-0.255 0.382,-0.382 0.128,-0.255 0.191,-0.51 0.191,-0.764 0.064,-0.255 0.064,-0.574 0,-0.892 m 5.225,-6.495 c 0.255,0.064 0.575,0.192 0.83,0.318 0.382,0.192 0.763,0.382 1.082,0.701 0.445,0.319 0.829,0.7 1.084,1.146 0.382,0.51 0.637,1.019 0.764,1.593 0.127,0.445 0.255,0.891 0.255,1.399 l 0,1.083 c 0,0.064 0,0.191 -0.064,0.255 0,0.573 -0.191,1.082 -0.446,1.592 -0.19,0.446 -0.446,0.892 -0.7,1.274 -0.382,0.446 -0.702,0.892 -1.148,1.338 -0.255,0.318 -0.572,0.572 -0.956,0.891 -0.126,0.128 -0.318,0.255 -0.51,0.382 l 0,0.063 0.064,0 c 0.128,0.064 0.255,0.128 0.383,0.192 0.319,0.191 0.637,0.382 0.955,0.636 0.446,0.383 0.83,0.765 1.212,1.211 0.383,0.445 0.7,0.954 0.891,1.527 0.382,0.828 0.509,1.657 0.509,2.547 0,0.701 -0.064,1.402 -0.254,2.103 -0.191,0.509 -0.382,1.018 -0.636,1.464 -0.256,0.574 -0.638,1.147 -1.148,1.592 -0.447,0.446 -0.955,0.828 -1.529,1.083 -0.765,0.319 -1.529,0.383 -2.359,0.509 l -26.06,0 0,-25.027 27.017,0 c 0.255,0 0.51,0.064 0.764,0.128 M -44.221,15.983 c -0.063,-0.255 -0.127,-0.573 -0.318,-0.827 -0.127,-0.127 -0.256,-0.255 -0.383,-0.318 -0.192,-0.128 -0.446,-0.128 -0.701,-0.128 l -9.366,0 0,4.33 9.748,0 c 0.064,0 0.192,-0.063 0.256,-0.063 0.063,-0.064 0.127,-0.064 0.19,-0.127 0.193,-0.128 0.319,-0.32 0.383,-0.511 0.191,-0.318 0.255,-0.7 0.318,-1.082 0,-0.383 0,-0.828 -0.127,-1.274 m 9.007,4.968 -0.001,0 c -0.359,0.64 -0.804,1.219 -1.296,1.655 -0.702,0.637 -1.466,1.148 -2.294,1.529 -0.638,0.319 -1.338,0.574 -2.039,0.763 -0.319,0.064 -0.701,0.129 -1.083,0.192 l -23.449,0 0,-25.09 10.387,0 0,9.424 8.474,-9.424 11.278,0 -7.072,9.042 0,0.064 0.191,0 c 0.382,0.064 0.764,0.19 1.147,0.254 0.765,0.255 1.465,0.511 2.166,0.893 0.828,0.382 1.529,0.828 2.167,1.4 0.636,0.51 1.146,1.211 1.529,1.912 0.319,0.509 0.51,1.145 0.637,1.717 0.127,0.382 0.191,0.765 0.191,1.083 l 0,1.274 c -0.064,1.019 -0.318,2.102 -0.765,2.993 -0.053,0.107 -0.11,0.214 -0.168,0.319 m 89.563,4.162 -27.981,0 0,-6.266 8.805,0 0,-18.847 10.387,0 0,18.847 8.789,0 0,0.193 0.003,0 0,6.05 -0.003,0" id="path6754" inkscape:connector-curvature="0" stroke="black" style="fill:#231f20;fill-opacity:1;fill-rule:evenodd;"/>
			
    
		</g>
		
    
		<g id="g6756" transform="matrix(1.25,0,0,-1.25,78.568242,373.9072)">
			
      
			
			
    
		</g>
		
  
	</g>
	

</svg>