<?xml version="1.0" encoding="iso-8859-1"?><!-- Created with Inkscape (http://www.inkscape.org/) --><svg height="78.360001" id="svg10209" inkscape:version="0.48.1 " sodipodi:docname="Neues Dokument 3" version="1.1" width="304.54999" xmlns="http://www.w3.org/2000/svg" xmlns:cc="http://creativecommons.org/ns#" xmlns:dc="http://purl.org/dc/elements/1.1/" xmlns:inkscape="http://www.inkscape.org/namespaces/inkscape" xmlns:rdf="http://www.w3.org/1999/02/22-rdf-syntax-ns#" xmlns:sodipodi="http://sodipodi.sourceforge.net/DTD/sodipodi-0.dtd" xmlns:svg="http://www.w3.org/2000/svg">
	
  
	<defs id="defs10211"/>
	
  
	<sodipodi:namedview bordercolor="#666666" borderopacity="1.0" fit-margin-bottom="0" fit-margin-left="0" fit-margin-right="0" fit-margin-top="0" id="base" inkscape:current-layer="layer1" inkscape:cx="152.27499" inkscape:cy="39.180001" inkscape:document-units="px" inkscape:pageopacity="0.0" inkscape:pageshadow="2" inkscape:window-height="678" inkscape:window-maximized="1" inkscape:window-width="1024" inkscape:window-x="-4" inkscape:window-y="-4" inkscape:zoom="2.9548952" pagecolor="#ffffff" showgrid="false"/>
	
  
	<metadata id="metadata10214">
		
    
		<rdf:RDF>
			
      
			<cc:Work rdf:about="">
				
        
				<dc:format>image/svg+xml</dc:format>
				
        
				<dc:type rdf:resource="http://purl.org/dc/dcmitype/StillImage"/>
				
        
				<dc:title/>
				
      
			</cc:Work>
			
    
		</rdf:RDF>
		
  
	</metadata>
	
  
	<g id="layer1" inkscape:groupmode="layer" inkscape:label="Ebene 1" transform="translate(-37.285149,-327.8941)">
		
    
		<g id="g6740" transform="matrix(1.25,0,0,-1.25,251.65074,333.5447)">
			
      
			<path animation_id="0" d="M 0,0 0,0.182 C 0.031,0.609 0.122,1.005 0.274,1.4 0.395,1.765 0.579,2.07 0.822,2.374 1.065,2.648 1.341,2.891 1.645,3.104 1.887,3.256 2.162,3.378 2.437,3.47 2.74,3.591 3.047,3.652 3.381,3.652 l 18.421,0 C 22.23,3.621 22.686,3.561 23.113,3.409 23.479,3.287 23.843,3.074 24.147,2.83 24.422,2.648 24.665,2.405 24.847,2.1 25.031,1.856 25.153,1.583 25.275,1.309 25.396,0.944 25.458,0.548 25.458,0.182 25.458,0.121 25.427,0.061 25.427,0 l 0,-53.53 c 0,-0.061 0,-0.122 0.031,-0.213 0,-0.365 -0.062,-0.76 -0.183,-1.095 -0.122,-0.305 -0.244,-0.578 -0.428,-0.822 -0.182,-0.274 -0.425,-0.518 -0.7,-0.732 -0.304,-0.242 -0.668,-0.424 -1.034,-0.547 -0.427,-0.152 -0.883,-0.243 -1.311,-0.243 -0.09,0 -0.15,-0.031 -0.211,-0.031 l -18.027,0 c -0.062,0 -0.122,0.031 -0.183,0.031 -0.334,0 -0.641,0.06 -0.944,0.152 -0.275,0.091 -0.55,0.214 -0.792,0.396 -0.304,0.182 -0.58,0.426 -0.823,0.7 -0.243,0.304 -0.427,0.638 -0.548,0.973 -0.152,0.396 -0.243,0.822 -0.274,1.218 l 0,0.213" id="path6742" inkscape:connector-curvature="0" stroke="black" style="fill:#ed1c24;fill-opacity:1;fill-rule:nonzero;"/>
			
    
		</g>
		
    
		<g id="g6744" transform="matrix(1.25,0,0,-1.25,311.98204,328.9797)">
			
      
			
			
    
		</g>
		
    
		<g id="g6748" transform="matrix(1.25,0,0,-1.25,311.98204,405.0222)">
			
      
			
			
    
		</g>
		
    
		<g id="g6752" transform="matrix(1.25,0,0,-1.25,162.22204,405.231)">
			
      
			
			
    
		</g>
		
    
		<g id="g6756" transform="matrix(1.25,0,0,-1.25,78.568242,373.9072)">
			
      
			
			
    
		</g>
		
  
	</g>
	

</svg>