<?xml version="1.0" encoding="iso-8859-1"?><!-- Created with Inkscape (http://www.inkscape.org/) --><svg height="78.360001" id="svg10209" inkscape:version="0.48.1 " sodipodi:docname="Neues Dokument 3" version="1.1" width="304.54999" xmlns="http://www.w3.org/2000/svg" xmlns:cc="http://creativecommons.org/ns#" xmlns:dc="http://purl.org/dc/elements/1.1/" xmlns:inkscape="http://www.inkscape.org/namespaces/inkscape" xmlns:rdf="http://www.w3.org/1999/02/22-rdf-syntax-ns#" xmlns:sodipodi="http://sodipodi.sourceforge.net/DTD/sodipodi-0.dtd" xmlns:svg="http://www.w3.org/2000/svg">
	
  
	<defs id="defs10211"/>
	
  
	<sodipodi:namedview bordercolor="#666666" borderopacity="1.0" fit-margin-bottom="0" fit-margin-left="0" fit-margin-right="0" fit-margin-top="0" id="base" inkscape:current-layer="layer1" inkscape:cx="152.27499" inkscape:cy="39.180001" inkscape:document-units="px" inkscape:pageopacity="0.0" inkscape:pageshadow="2" inkscape:window-height="678" inkscape:window-maximized="1" inkscape:window-width="1024" inkscape:window-x="-4" inkscape:window-y="-4" inkscape:zoom="2.9548952" pagecolor="#ffffff" showgrid="false"/>
	
  
	<metadata id="metadata10214">
		
    
		<rdf:RDF>
			
      
			<cc:Work rdf:about="">
				
        
				<dc:format>image/svg+xml</dc:format>
				
        
				<dc:type rdf:resource="http://purl.org/dc/dcmitype/StillImage"/>
				
        
				<dc:title/>
				
      
			</cc:Work>
			
    
		</rdf:RDF>
		
  
	</metadata>
	
  
	<g id="layer1" inkscape:groupmode="layer" inkscape:label="Ebene 1" transform="translate(-37.285149,-327.8941)">
		
    
		<g id="g6740" transform="matrix(1.25,0,0,-1.25,251.65074,333.5447)">
			
      
			
			
    
		</g>
		
    
		<g id="g6744" transform="matrix(1.25,0,0,-1.25,311.98204,328.9797)">
			
      
			<path animation_id="1" d="m 0,0 20.463,0 c 0.364,-0.031 0.761,-0.121 1.096,-0.304 0.334,-0.153 0.609,-0.396 0.822,-0.67 0.244,-0.244 0.425,-0.547 0.517,-0.883 0.124,-0.304 0.184,-0.639 0.184,-1.004 -0.031,-0.182 -0.06,-0.365 -0.091,-0.548 -0.062,-0.213 -0.154,-0.426 -0.275,-0.639 -0.031,-0.03 -0.061,-0.091 -0.122,-0.152 L 6.638,-26.993 C 6.607,-27.024 6.577,-27.084 6.516,-27.145 6.273,-27.48 5.968,-27.815 5.664,-28.12 5.36,-28.393 5.055,-28.636 4.719,-28.819 4.384,-29.033 4.02,-29.216 3.654,-29.337 3.35,-29.458 3.045,-29.55 2.71,-29.611 2.345,-29.672 1.979,-29.733 1.614,-29.733 l -21.65,0 c -0.274,0.03 -0.58,0.122 -0.853,0.244 -0.214,0.121 -0.427,0.273 -0.579,0.456 -0.183,0.183 -0.304,0.366 -0.396,0.579 -0.092,0.213 -0.151,0.457 -0.151,0.7 -0.031,0.213 0,0.426 0.059,0.609 0.031,0.243 0.122,0.456 0.275,0.67 0.03,0.029 0.061,0.06 0.061,0.121 l 16.504,23.462 c 0.03,0.062 0.061,0.122 0.122,0.183 0.244,0.335 0.518,0.67 0.823,0.974 0.304,0.304 0.608,0.548 0.912,0.761 0.337,0.244 0.67,0.426 1.036,0.578 0.304,0.122 0.608,0.214 0.944,0.275 C -0.944,-0.031 -0.578,0 -0.212,0" id="path6746" inkscape:connector-curvature="0" stroke="black" style="fill:#f8981d;fill-opacity:1;fill-rule:nonzero;"/>
			
    
		</g>
		
    
		<g id="g6748" transform="matrix(1.25,0,0,-1.25,311.98204,405.0222)">
			
      
			
			
    
		</g>
		
    
		<g id="g6752" transform="matrix(1.25,0,0,-1.25,162.22204,405.231)">
			
      
			
			
    
		</g>
		
    
		<g id="g6756" transform="matrix(1.25,0,0,-1.25,78.568242,373.9072)">
			
      
			
			
    
		</g>
		
  
	</g>
	

</svg>