<?xml version="1.0" encoding="iso-8859-1"?><!-- Created with Inkscape (http://www.inkscape.org/) --><svg height="78.360001" id="svg10209" inkscape:version="0.48.1 " sodipodi:docname="Neues Dokument 3" version="1.1" width="304.54999" xmlns="http://www.w3.org/2000/svg" xmlns:cc="http://creativecommons.org/ns#" xmlns:dc="http://purl.org/dc/elements/1.1/" xmlns:inkscape="http://www.inkscape.org/namespaces/inkscape" xmlns:rdf="http://www.w3.org/1999/02/22-rdf-syntax-ns#" xmlns:sodipodi="http://sodipodi.sourceforge.net/DTD/sodipodi-0.dtd" xmlns:svg="http://www.w3.org/2000/svg">
	
  
	<defs id="defs10211"/>
	
  
	<sodipodi:namedview bordercolor="#666666" borderopacity="1.0" fit-margin-bottom="0" fit-margin-left="0" fit-margin-right="0" fit-margin-top="0" id="base" inkscape:current-layer="layer1" inkscape:cx="152.27499" inkscape:cy="39.180001" inkscape:document-units="px" inkscape:pageopacity="0.0" inkscape:pageshadow="2" inkscape:window-height="678" inkscape:window-maximized="1" inkscape:window-width="1024" inkscape:window-x="-4" inkscape:window-y="-4" inkscape:zoom="2.9548952" pagecolor="#ffffff" showgrid="false"/>
	
  
	<metadata id="metadata10214">
		
    
		<rdf:RDF>
			
      
			<cc:Work rdf:about="">
				
        
				<dc:format>image/svg+xml</dc:format>
				
        
				<dc:type rdf:resource="http://purl.org/dc/dcmitype/StillImage"/>
				
        
				<dc:title/>
				
      
			</cc:Work>
			
    
		</rdf:RDF>
		
  
	</metadata>
	
  
	<g id="layer1" inkscape:groupmode="layer" inkscape:label="Ebene 1" transform="translate(-37.285149,-327.8941)">
		
    
		<g id="g6740" transform="matrix(1.25,0,0,-1.25,251.65074,333.5447)">
			
      
			
			
    
		</g>
		
    
		<g id="g6744" transform="matrix(1.25,0,0,-1.25,311.98204,328.9797)">
			
      
			
			
    
		</g>
		
    
		<g id="g6748" transform="matrix(1.25,0,0,-1.25,311.98204,405.0222)">
			
      
			<path animation_id="2" d="M 0,0 -0.212,0 C -0.578,0 -0.944,0.06 -1.279,0.121 -1.615,0.183 -1.919,0.274 -2.223,0.395 -2.589,0.547 -2.922,0.73 -3.259,0.974 -3.563,1.186 -3.867,1.46 -4.171,1.734 -4.476,2.039 -4.75,2.373 -4.994,2.739 -5.055,2.77 -5.086,2.83 -5.116,2.891 L -21.62,26.355 c 0,0.059 -0.031,0.09 -0.061,0.121 -0.122,0.213 -0.244,0.426 -0.275,0.67 -0.059,0.183 -0.09,0.395 -0.059,0.608 0,0.243 0.059,0.486 0.151,0.7 0.092,0.212 0.213,0.426 0.396,0.578 0.152,0.183 0.365,0.335 0.579,0.456 0.273,0.123 0.579,0.213 0.853,0.244 l 21.65,0 c 0.365,0 0.731,-0.061 1.096,-0.121 C 3.045,29.55 3.35,29.458 3.654,29.337 4.02,29.215 4.384,29.032 4.719,28.82 5.055,28.637 5.36,28.392 5.664,28.119 5.968,27.814 6.273,27.481 6.516,27.146 6.577,27.085 6.607,27.054 6.638,26.993 L 22.594,4.199 c 0.061,-0.06 0.091,-0.122 0.122,-0.151 0.121,-0.213 0.213,-0.396 0.275,-0.609 0.031,-0.213 0.06,-0.396 0.091,-0.578 0,-0.336 -0.06,-0.7 -0.184,-1.005 C 22.806,1.522 22.625,1.216 22.381,0.974 22.168,0.7 21.893,0.487 21.559,0.304 21.224,0.121 20.827,0 20.463,0 l -0.214,0" id="path6750" inkscape:connector-curvature="0" stroke="black" style="fill:#ed1c24;fill-opacity:1;fill-rule:nonzero;"/>
			
    
		</g>
		
    
		<g id="g6752" transform="matrix(1.25,0,0,-1.25,162.22204,405.231)">
			
      
			
			
    
		</g>
		
    
		<g id="g6756" transform="matrix(1.25,0,0,-1.25,78.568242,373.9072)">
			
      
			
			
    
		</g>
		
  
	</g>
	

</svg>