<?xml version="1.0" encoding="iso-8859-1"?><!-- Created with Inkscape (http://www.inkscape.org/) --><svg height="140" id="svg6634" version="1.0" width="710" xmlns="http://www.w3.org/2000/svg" xmlns:svg="http://www.w3.org/2000/svg">
	
  
	<defs id="defs6636"/>
	
  
	<g id="logo+schrift" transform="translate(-13.571427,-96.075092)">
		
    
		<g id="logo">
			
      
			
			
      
			
			
      
			
			
    
		</g>
		
    
		<g id="schrift">
			
      
			
			
      
			
			
      
			
			
      
			
			
      
			
			
      
			<path animation_id="8" d="M 651.25376,182.82951 C 651.25376,187.05917 650.80708,195.67184 649.6152,199.44885 C 647.97687,204.73717 641.12406,204.73717 641.12406,211.08363 C 641.12406,221.50937 661.38345,221.20712 668.23377,221.20712 C 684.61897,221.20712 697.7295,220.45221 697.7295,210.933 C 697.7295,201.86669 686.40791,205.9472 685.51456,199.29846 C 684.76934,193.55626 684.32142,187.2098 684.32142,182.67764 C 684.32142,179.9578 683.57746,169.83431 687.74796,169.83431 C 691.62216,169.83431 694.30199,178.44674 703.98499,178.44674 C 713.81839,178.44674 722.30977,170.43858 722.30977,160.3151 C 722.30977,150.343 715.75326,142.78898 705.77395,142.78898 C 692.96194,142.78898 690.72879,154.72453 687.15313,154.72453 C 684.61897,154.72453 684.76934,151.24978 684.61897,149.43647 C 684.02414,144.29879 683.875,142.78898 678.21408,142.78898 C 676.87404,142.78898 642.01743,146.1121 642.01743,158.04889 C 642.01743,167.26609 651.25376,158.95568 651.25376,173.76295 L 651.25376,182.82951 L 651.25376,182.82951 z " id="r" stroke="black" style="fill:#f16426;fill-rule:nonzero;"/>
			
    
		</g>
		
  
	</g>
	

</svg>