<?xml version="1.0" encoding="iso-8859-1"?><!-- Created with Inkscape (http://www.inkscape.org/) --><svg height="140" id="svg6634" version="1.0" width="710" xmlns="http://www.w3.org/2000/svg" xmlns:svg="http://www.w3.org/2000/svg">
	
  
	<defs id="defs6636"/>
	
  
	<g id="logo+schrift" transform="translate(-13.571427,-96.075092)">
		
    
		<g id="logo">
			
      
			
			
      
			
			
      
			
			
    
		</g>
		
    
		<g id="schrift">
			
      
			
			
      
			
			
      
			
			
      
			
			
      
			<path animation_id="7" d="M 626.10079,184.79321 C 630.8671,184.79321 635.3334,183.43379 635.3334,173.46069 C 635.3334,162.12841 624.16121,142.33509 598.83945,142.33509 C 576.49357,142.33509 556.98188,159.25793 556.98188,182.52725 C 556.98188,202.01832 570.83291,221.66001 597.64757,221.66001 C 611.05439,221.66001 632.05651,213.19921 632.05651,201.56442 C 632.05651,198.69394 629.37768,194.01016 626.24869,194.01016 C 623.12094,194.01016 617.60966,200.80827 606.43598,200.80827 C 599.43527,200.80827 589.75225,194.46404 589.75225,186.90754 C 589.75225,184.33932 592.13604,184.79321 593.77461,184.79321 L 626.10079,184.79321 L 626.10079,184.79321 M 597.94485,170.2882 C 594.07189,170.2882 589.00705,171.49699 589.00705,166.05581 C 589.00705,161.22164 593.02939,156.0852 597.94485,156.0852 C 603.45763,156.0852 606.73475,160.3151 606.73475,165.75479 C 606.73475,171.19473 601.9672,170.2882 597.94485,170.2882 L 597.94485,170.2882 z " id="e" stroke="black" style="fill:#f16426;fill-rule:evenodd;"/>
			
      
			
			
    
		</g>
		
  
	</g>
	

</svg>