<?xml version="1.0" encoding="iso-8859-1"?><!-- Created with Inkscape (http://www.inkscape.org/) --><svg height="140" id="svg6634" version="1.0" width="710" xmlns="http://www.w3.org/2000/svg" xmlns:svg="http://www.w3.org/2000/svg">
	
  
	<defs id="defs6636"/>
	
  
	<g id="logo+schrift" transform="translate(-13.571427,-96.075092)">
		
    
		<g id="logo">
			
      
			
			
      
			
			
      
			
			
    
		</g>
		
    
		<g id="schrift">
			
      
			<path animation_id="3" d="M 236.54727,196.73025 C 245.48508,217.12784 246.67572,216.82558 249.05951,217.12784 C 253.82582,217.73113 259.1892,200.50602 262.46634,193.55626 C 266.04176,185.85161 270.80807,172.55416 275.42625,172.55416 C 280.64048,172.55416 277.66088,198.54232 277.06481,201.11054 C 276.02231,205.9472 269.3189,206.85249 269.3189,212.14079 C 269.3189,221.81164 289.72644,221.20712 295.83378,221.20712 C 302.3878,221.20712 322.79534,221.66001 322.79534,211.53752 C 322.79534,204.73717 313.85877,207.15474 313.4121,196.12573 C 312.81603,182.07337 311.92267,165.45278 311.92267,163.18657 C 311.92267,156.38746 312.96542,138.55784 314.15731,134.32693 C 315.64649,129.18926 322.34866,127.98171 322.34866,121.93725 C 322.34866,112.41804 307.45265,111.96416 300.89863,111.96416 C 281.2363,111.96416 281.08716,116.49732 273.49038,130.70032 C 268.127,140.67217 262.01966,158.95568 257.40149,157.89726 C 250.84722,156.38746 241.61212,131.60808 236.39814,122.6934 C 231.92911,114.98626 232.22764,111.96416 214.79746,111.96416 C 202.88131,111.96416 189.0278,114.08097 189.0278,122.6934 C 189.0278,128.887 197.51892,129.94541 199.00835,133.11814 C 200.64667,136.59289 201.24274,141.27669 201.24274,150.343 C 201.24274,172.25189 199.9027,186.30302 198.7108,198.99621 C 197.51892,211.38589 188.58112,204.28426 188.58112,212.89694 C 188.58112,220.75322 202.13734,221.20712 207.35132,221.20712 C 213.16014,221.20712 229.09864,220.90386 229.09864,212.29367 C 229.09864,204.13265 219.56502,211.6879 219.56502,195.52022 C 219.56502,190.53417 218.07585,170.59046 222.69277,170.59046 C 225.37508,170.59046 227.01365,175.12237 227.90676,177.08732 L 236.54727,196.73025 L 236.54727,196.73025 z " id="M" stroke="black" style="fill:#f16426;fill-rule:nonzero;"/>
			
      
			
			
      
			
			
      
			
			
      
			
			
      
			
			
    
		</g>
		
  
	</g>
	

</svg>