<?xml version="1.0" encoding="iso-8859-1"?><!-- Created with Inkscape (http://www.inkscape.org/) --><svg height="140" id="svg6634" version="1.0" width="710" xmlns="http://www.w3.org/2000/svg" xmlns:svg="http://www.w3.org/2000/svg">
	
  
	<defs id="defs6636"/>
	
  
	<g id="logo+schrift" transform="translate(-13.571427,-96.075092)">
		
    
		<g id="logo">
			
      
			
			
      
			
			
      
			
			
    
		</g>
		
    
		<g id="schrift">
			
      
			
			
      
			<path animation_id="4" d="M 361.375,110.75 C 353.77823,110.75 338.4375,112.55325 338.4375,123.28125 C 338.4375,130.68489 346.63579,133.28125 352.59375,133.28125 C 360.04115,133.28124 377.3125,130.56247 377.3125,120.4375 C 377.31249,112.43058 367.33321,110.75 361.375,110.75 z M 406.8125,110.75 C 399.21474,110.75 383.875,112.55325 383.875,123.28125 C 383.87501,130.68489 392.07429,133.28125 398.03125,133.28125 C 405.47988,133.28124 422.75,130.56247 422.75,120.4375 C 422.75001,112.43058 412.77071,110.75 406.8125,110.75 z M 367.78125,142.78125 C 366.58959,142.78124 329.0625,143.23542 329.0625,152.90625 C 329.06251,162.28975 338.1432,153.89493 339.21875,172.125 C 339.2866,173.26941 339.34375,174.50837 339.34375,175.875 C 339.34374,198.5388 336.94741,221.21875 365.25,221.21875 C 378.35931,221.21875 384.32372,212.15625 387.75,212.15625 C 393.70946,212.15625 386.12277,221.21875 397.59375,221.21875 C 405.7851,221.21875 432.15625,218.33661 432.15625,208.0625 C 432.15626,200.80925 423.9375,205.03382 423.9375,195.96875 L 423.9375,172.125 L 423.9375,165.59375 C 423.93751,160.75707 424.25,156.08542 424.25,151.25 C 424.25,145.96193 422.01963,142.78125 416.65625,142.78125 C 410.99534,142.78124 381.0625,144.30406 381.0625,153.21875 C 381.0625,159.56546 388.33961,156.97723 389.53125,164.53125 C 389.87975,166.79844 390.03061,169.45362 390.09375,172.125 C 390.16532,175.15084 390.125,178.22898 390.125,180.875 C 390.125,188.12801 391.63176,202.3125 380.90625,202.3125 C 372.86155,202.3125 372.40625,192.95045 372.40625,186.90625 L 372.40625,172.125 L 372.40625,148.53125 C 372.40624,144.75401 371.95298,142.78125 367.78125,142.78125 z " id="ue" stroke="black" style="fill:#f16426;fill-rule:evenodd;"/>
			
      
			
			
      
			
			
      
			
			
      
			
			
    
		</g>
		
  
	</g>
	

</svg>