<?xml version="1.0" encoding="iso-8859-1"?><!-- Created with Inkscape (http://www.inkscape.org/) --><svg height="140" id="svg6634" version="1.0" width="710" xmlns="http://www.w3.org/2000/svg" xmlns:svg="http://www.w3.org/2000/svg">
	
  
	<defs id="defs6636"/>
	
  
	<g id="logo+schrift" transform="translate(-13.571427,-96.075092)">
		
    
		<g id="logo">
			
      
			
			
      
			
			
      
			
			
    
		</g>
		
    
		<g id="schrift">
			
      
			
			
      
			
			
      
			<path animation_id="5" d="M 482.67707,163.18657 C 482.67707,141.57894 484.61418,124.95936 484.61418,121.48336 C 484.61418,116.95145 483.42229,113.62708 478.35744,113.62708 C 476.27219,113.62708 437.54262,116.79957 437.54262,129.94541 C 437.54262,138.55784 446.33227,134.62796 448.56666,145.81108 C 449.9067,152.60921 449.60916,163.94148 449.60916,169.83431 C 449.60916,177.23919 449.60916,196.12573 447.67231,202.32057 C 445.88559,207.91089 439.47971,205.9472 439.47971,211.23526 C 439.47971,221.96202 460.33492,221.20712 467.03834,221.20712 C 473.44422,221.20712 491.61612,221.96202 491.61612,211.83978 C 491.61612,205.49331 484.91146,208.06153 483.27289,202.62284 C 482.52893,200.205 482.67707,195.21795 482.67707,192.49786 L 482.67707,163.18657 L 482.67707,163.18657 z " id="l1" stroke="black" style="fill:#f16426;fill-rule:nonzero;"/>
			
      
			
			
      
			
			
      
			
			
    
		</g>
		
  
	</g>
	

</svg>