<?xml version="1.0" encoding="iso-8859-1"?><!-- Created with Inkscape (http://www.inkscape.org/) --><svg height="283.46457" id="svg3581" version="1.0" width="921.25983" xmlns="http://www.w3.org/2000/svg" xmlns:svg="http://www.w3.org/2000/svg">
	
  
	<defs id="defs3583">
  
  
 
   
   
   
   
   
   
   
   
  </defs>
	
  
	<g id="layer1">
		
    
		
		
    
		<path animation_id="1" d="M 334.52425,82.865377 L 427.24869,82.865377 L 427.24869,98.448841 L 359.05066,98.448841 L 359.05066,128.88833 L 421.33846,128.88833 L 421.33846,144.39632 L 359.05066,144.39632 L 359.05066,178.70014 L 427.24869,178.70014 L 427.24869,193.9927 L 334.52425,193.9927 L 334.52425,82.865377 z M 484.03727,98.448841 L 511.34696,98.448841 C 529.93975,98.448841 538.74629,105.62085 538.35298,112.84884 C 538.35298,126.57703 516.64952,130.08065 504.30924,130.08065 L 484.03727,130.08065 L 484.03727,98.448841 z M 459.12676,82.865377 L 509.22416,82.865377 C 537.60605,82.865377 561.66511,88.78766 564.61208,109.35762 C 564.61208,116.19408 567.91798,131.05577 532.49341,139.11325 C 541.69113,139.46864 544.25011,145.6262 544.25011,145.6262 L 578.49121,193.9927 L 550.10967,193.9927 L 527.42401,159.83415 C 527.42401,159.83415 519.40444,145.6262 510.16881,145.6262 L 484.03727,145.6262 L 484.03727,193.9927 L 459.12676,193.9927 L 459.12676,82.865377 L 459.12676,82.865377 z M 719.62113,132.23923 L 719.62644,190.37604 C 710.62467,193.79711 693.79857,195.84939 667.18018,195.84939 C 634.47263,195.84939 602.58924,186.061 589.25967,164.74376 C 583.41818,155.40786 581.4357,147.72207 581.4357,137.73951 C 581.4357,121.06435 589.2416,107.47045 606.28845,96.225416 C 617.84247,88.599156 642.88585,80.577463 670.2905,80.577463 C 689.07924,80.577463 706.73483,82.865377 718.05534,86.627306 L 716.13026,103.8538 C 691.044,93.077542 667.18018,93.869471 645.43739,98.779077 C 626.55333,103.0477 608.25144,118.15707 608.25144,137.9351 C 608.25144,163.37002 633.42026,175.4697 648.58703,178.70014 C 664.82247,182.1662 682.82636,181.56986 695.56739,178.70014 L 695.56739,146.93723 L 660.14814,146.93723 L 660.14814,132.23356 L 719.62113,132.23923 z M 754.45538,193.9927 L 778.55695,193.9927 L 778.55695,82.857936 L 754.45538,82.857936 L 754.45538,193.9927 z M 810.81168,82.865377 L 903.54356,82.865377 L 903.54356,98.448841 L 835.35262,98.448841 L 835.35262,128.88833 L 897.64041,128.88833 L 897.64041,144.39632 L 835.35262,144.39632 L 835.35262,178.70014 L 903.54356,178.70014 L 903.54356,193.9927 L 810.81168,193.9927 L 810.81168,82.865377 z M 130.92335,10.646048 L 130.92335,28.782819 C 108.72098,32.015378 63.678466,50.030259 46.821891,77.828211 C 39.155592,90.479235 36.279136,98.087778 33.524215,112.19687 C 27.454884,143.29364 37.040238,169.07687 50.02008,191.74447 C 64.349922,216.77368 108.72098,243.08273 130.59488,248.49336 L 130.6126,272.81852 C 102.42311,268.46025 53.117639,242.69687 33.524215,207.30278 C 13.42268,170.99663 13.214687,134.20364 28.805238,101.75652 C 36.038191,86.70455 57.380592,53.51581 74.625158,39.857425 C 89.644882,27.960417 111.98898,15.327465 130.92335,10.646048 z " id="_90493320" stroke="black" style="fill:#828282;fill-opacity:1;fill-rule:evenodd"/>
		
  
	</g>
	

</svg>