<?xml version="1.0" encoding="iso-8859-1"?><!DOCTYPE svg  PUBLIC '-//W3C//DTD SVG 1.1//EN'  'http://www.w3.org/Graphics/SVG/1.1/DTD/svg11.dtd'><svg enable-background="new 0 0 200 57.418" height="57.418px" id="Layer_1" version="1.1" viewBox="0 0 200 57.418" width="200px" x="0px" xml:space="preserve" xmlns="http://www.w3.org/2000/svg" xmlns:xlink="http://www.w3.org/1999/xlink" y="0px">
	

	
	

	
	

	
	

	<path animation_id="3" d="M54.387,13.471l6.667,6.279c-0.182,0.081-0.392,0.181-0.639,0.305c-0.386,0.201-0.846,0.47-1.397,0.852c-1.099,0.755-2.531,1.961-4.363,3.938l-13.03,13.789c-2.233,2.36-4.502,4.23-6.612,5.219l-6.671-6.281c0.182-0.085,0.392-0.179,0.635-0.309c0.386-0.197,0.846-0.47,1.397-0.846c1.096-0.762,2.532-1.961,4.366-3.941l13.027-13.766C50.001,16.353,52.274,14.46,54.387,13.471" stroke="black"/>
	

	
	

	
	

</svg>