<?xml version="1.0" encoding="iso-8859-1"?><!DOCTYPE svg  PUBLIC '-//W3C//DTD SVG 1.1//EN'  'http://www.w3.org/Graphics/SVG/1.1/DTD/svg11.dtd'><svg enable-background="new 0 0 200 57.418" height="57.418px" id="Layer_1" version="1.1" viewBox="0 0 200 57.418" width="200px" x="0px" xml:space="preserve" xmlns="http://www.w3.org/2000/svg" xmlns:xlink="http://www.w3.org/1999/xlink" y="0px">
	

	
	

	
	

	
	

	
	

	<path animation_id="4" d="M28.579,46.803c2.947,0,5.656-0.584,7.494-1.537c0.84-0.438,2.039-1.192,3.07-1.996c1.027-0.801,2.483-2.049,3.714-3.358l13.043-13.75c3.29-3.465,5.267-4.535,6.467-4.956l6.69,6.337C67.661,29.036,51.01,46.77,51.01,46.77c-1.135,1.226-2.331,2.409-3.144,3.154c-0.781,0.72-2.117,1.793-2.807,2.298c-3.916,2.869-9.147,5.196-16.191,5.196C12.907,57.418,0,44.427,0,29.468C0,10.911,14.499,0.143,27.704,0.143c4.048-0.12,7.296,0.561,9.864,1.433c2.373,0.807,4.165,1.783,5.465,2.447c-1.537,0.985-3.024,2.328-5.475,4.946l-2.678,2.875c-0.616-0.237-3.348-1.19-6.855-1.083c-8.473,0.25-17.74,7.118-17.406,18.385C10.93,39.681,19.614,46.803,28.579,46.803" stroke="black"/>
	

	
	

</svg>