<?xml version="1.0" encoding="iso-8859-1"?><svg height="168.78505" id="svg3117" version="1.1" width="636.79877" xmlns="http://www.w3.org/2000/svg" xmlns:svg="http://www.w3.org/2000/svg">
	
  
	<defs id="defs3119"/>
	
  
	<g id="layer1" transform="translate(-31.600625,-447.96966)">
		
    
		<path animation_id="0" d="m 604.56313,520.02841 0,-65.24625 13.17375,0 0,28.97375 26.61375,-28.97375 17.71375,0 -24.5675,25.41375 25.9025,39.8325 -17.045,0 -17.93625,-30.62 -10.68125,10.90375 0,19.71625 -13.17375,0 m -62.01625,0 0,-65.24625 48.3775,0 0,11.0375 -35.20375,0 0,14.465 32.75625,0 0,10.9925 -32.75625,0 0,17.75875 36.45,0 0,10.9925 -49.62375,0 m -64.99625,0 0,-65.24625 13.17375,0 0,25.68 25.81375,0 0,-25.68 13.17374,0 0,65.24625 -13.17374,0 0,-28.52875 -25.81376,0 0,28.52875 -13.17374,0 m -23.33875,-23.905 12.77375,4.09 c -1.95875,7.19 -5.215,12.53125 -9.76875,16.02125 -4.55501,3.49 -10.33376,5.235 -17.335,5.235 -8.66375,0 -15.78501,-2.98875 -21.36375,-8.965 -5.57875,-5.9775 -8.36625,-14.14875 -8.36625,-24.51625 0,-10.965 2.80375,-19.48125 8.41125,-25.54875 5.6075,-6.06625 12.97875,-9.1 22.11875,-9.1 7.9825,0 14.465,2.38125 19.45,7.145 2.96499,2.81625 5.19,6.86125 6.675,12.135 l -13.04,3.145 c -0.7725,-3.415 -2.38125,-6.11125 -4.82875,-8.08875 -2.4475,-1.9775 -5.42375,-2.96625 -8.92375,-2.96625 -4.83625,0 -8.76,1.7525 -11.77125,5.2575 -3.01126,3.50625 -4.5175,9.18375 -4.5175,17.0325 0,8.33 1.48375,14.2625 4.45125,17.7975 2.965,3.535 6.82375,5.3025 11.57125,5.3025 3.5,0 6.5125,-1.1225 9.035,-3.37 2.52,-2.2475 4.33125,-5.7825 5.42875,-10.60625 m -105.095,2.66375 12.8175,-1.265 c 0.77125,4.3675 2.33625,7.57625 4.695,9.62375 2.35875,2.05 5.54125,3.0725 9.54625,3.0725 4.24374,0 7.44,-0.91 9.59125,-2.73375 2.15125,-1.8225 3.22625,-3.9525 3.22625,-6.3925 0,-1.56625 -0.4525,-2.89875 -1.35625,-3.99875 -0.905,-1.1 -2.4875,-2.05625 -4.74,-2.87 -1.54375,-0.5425 -5.05875,-1.50625 -10.54875,-2.89125 -7.06125,-1.7775 -12.01625,-3.96125 -14.865,-6.5525 -4.005,-3.64375 -6.0075,-8.0875 -6.0075,-13.32875 0,-3.37375 0.94125,-6.53 2.82625,-9.46625 1.88375,-2.9375 4.59875,-5.17375 8.14375,-6.71 3.54625,-1.53625 7.82625,-2.305 12.84,-2.305 8.18875,0 14.35375,1.82375 18.4925,5.4675 4.13875,3.645 6.3125,8.51 6.52,14.595 l -13.17375,0.5875 c -0.56375,-3.40375 -1.7725,-5.8525 -3.6275,-7.3425 -1.85375,-1.49125 -4.63625,-2.2375 -8.345,-2.2375 -3.8275,0 -6.825,0.79875 -8.99001,2.395 -1.39625,1.02375 -2.09125,2.395 -2.09125,4.1125 0,1.56625 0.65125,2.9075 1.9575,4.02125 1.6625,1.41625 5.6975,2.89125 12.10625,4.4275 6.40875,1.53625 11.14875,3.125 14.22,4.7675 3.07,1.6425 5.47375,3.88625 7.21,6.7325 1.735,2.84625 2.6025,6.36375 2.6025,10.55 0,3.79625 -1.04,7.35 -3.115,10.66375 -2.07625,3.315 -5.01375,5.7775 -8.8125,7.3875 -3.79875,1.61125 -8.52999,2.4175 -14.1975,2.4175 -8.24874,0 -14.58249,-1.935 -19.00375,-5.80625 -4.4225,-3.87 -7.06125,-9.51125 -7.92125,-16.92125 m -35.35,21.24125 0,-54.20875 -19.36,0 0,-11.0375 51.85,0 0,11.0375 -19.31625,0 0,54.20875 -13.17375,0 m -74.6975,0 0,-65.24625 48.3775,0 0,11.0375 -35.20375,0 0,14.465 32.75625,0 0,10.9925 -32.75625,0 0,17.75875 36.45,0 0,10.9925 -49.62375,0 m -75.32125,0 0,-65.24625 19.715,0 11.83875,44.50625 11.705,-44.50625 19.76125,0 0,65.24625 -12.23875,0 0,-51.36 -12.95125,51.36 -12.685,0 -12.90625,-51.36 0,51.36 -12.23875,0 m -62.06625,0 0,-65.24625 48.3775,0 0,11.0375 -35.20375,0 0,14.465 32.75625,0 0,10.9925 -32.75625,0 0,17.75875 36.45,0 0,10.9925 -49.62375,0 m -63.828495,0 0,-65.24625 12.8175,0 26.70375,43.57125 0,-43.57125 12.23875,0 0,65.24625 -13.2175,0 -26.30375,-42.5475 0,42.5475 -12.23875,0" id="path50" stroke="black" style="fill:#000000;fill-opacity:1;fill-rule:nonzero;"/>
		
    
		
		
  
	</g>
	

</svg>