<?xml version="1.0" encoding="iso-8859-1"?><svg height="168.78505" id="svg3117" version="1.1" width="636.79877" xmlns="http://www.w3.org/2000/svg" xmlns:svg="http://www.w3.org/2000/svg">
	
  
	<defs id="defs3119"/>
	
  
	<g id="layer1" transform="translate(-31.600625,-447.96966)">
		
    
		
		
    
		<path animation_id="1" d="m 314.01688,576.49966 16.82875,0 c 5.565,0 9.5175,-1.03625 11.855,-3.10875 2.33875,-2.07125 3.50875,-4.9875 3.50875,-8.74625 0,-2.72375 -0.68875,-5.055 -2.065,-6.99375 -1.37625,-1.93875 -3.19,-3.21875 -5.44,-3.84125 -1.45,-0.38375 -4.12875,-0.57625 -8.03625,-0.57625 l -16.65125,0 0,23.26625 z m -8.61375,34.145 0,-65.09375 24.555,0 c 4.32125,0 7.6225,0.2075 9.90125,0.6225 3.1975,0.5325 5.87625,1.5475 8.03625,3.04125 2.16125,1.495 3.9,3.59 5.2175,6.2825 1.3175,2.69375 1.97625,5.655 1.97625,8.88125 0,5.535 -1.76126,10.21875 -5.28375,14.0525 -3.5225,3.83375 -9.8875,5.75 -19.09251,5.75 l -16.69625,0 0,26.46375 -8.61375,0 m -20.65249,-65.09375 8.61375,0 0,37.60875 c 0,6.5425 -0.74,11.7375 -2.22,15.585 -1.48,3.84875 -4.15125,6.97875 -8.015,9.39125 -3.8625,2.41375 -8.9325,3.61875 -15.20751,3.61875 -6.09749,0 -11.08624,-1.05125 -14.96374,-3.1525 -3.8775,-2.10125 -6.645,-5.14375 -8.3025,-9.125 -1.65875,-3.98 -2.48751,-9.42 -2.48751,-16.3175 l 0,-37.60875 8.615,0 0,37.565 c 0,5.65375 0.52501,9.82 1.57625,12.49875 1.05,2.68 2.85625,4.74375 5.41625,6.19375 2.56125,1.45125 5.69125,2.17625 9.39125,2.17625 6.33501,0 10.84875,-1.43625 13.54251,-4.3075 2.69374,-2.87 4.04125,-8.39125 4.04125,-16.56125 l 0,-37.565 m -104.885,33.52375 c 0,7.845 2.11,14.025 6.32749,18.5375 4.21875,4.515 9.51,6.7725 15.87375,6.7725 6.4825,0 11.81875,-2.28 16.0075,-6.83875 4.18875,-4.5575 6.2825,-11.02625 6.2825,-19.40375 0,-5.29875 -0.895,-9.92375 -2.68625,-13.875 -1.79125,-3.9525 -4.41,-7.01625 -7.85874,-9.19125 -3.44875,-2.17625 -7.31875,-3.26375 -11.61125,-3.26375 -6.0975,0 -11.345,2.09375 -15.74125,6.2825 -4.39501,4.19 -6.59375,11.1825 -6.59375,20.98 z m -8.88,-0.1325 c 0,-10.805 2.90125,-19.26375 8.7025,-25.37625 5.8025,-6.1125 13.29124,-9.16875 22.4675,-9.16875 6.00999,0 11.42625,1.43625 16.25125,4.30625 4.82499,2.87125 8.50374,6.87625 11.03374,12.01125 2.53125,5.13625 3.79751,10.96 3.79751,17.4725 0,6.60125 -1.3325,12.50625 -3.99625,17.71625 -2.665,5.21 -6.43875,9.15375 -11.3225,11.8325 -4.885,2.68 -10.15375,4.01875 -15.8075,4.01875 -6.1275,0 -11.60375,-1.48 -16.42875,-4.44 -4.825,-2.96 -8.48125,-7 -10.9675,-12.12125 -2.48626,-5.12125 -3.73,-10.53875 -3.73,-16.25125 m -52.00125,-4.6625 18.51625,0 c 3.93625,0 7.015,-0.40625 9.235,-1.22125 2.22,-0.81375 3.9075,-2.115 5.0625,-3.9075 1.15375,-1.79 1.73125,-3.73625 1.73125,-5.83875 0,-3.07875 -1.11751,-5.61 -3.3525,-7.5925 -2.235,-1.9825 -5.76501,-2.975 -10.59,-2.975 l -20.6025,0 0,21.535 z m -8.61375,36.365 0,-65.09375 28.86125,0 c 5.80125,0 10.2125,0.585 13.23125,1.75375 3.02,1.17 5.4325,3.235 7.2375,6.195 1.80625,2.96 2.70874,6.23125 2.70874,9.8125 0,4.6175 -1.495,8.51 -4.48374,11.6775 -2.99,3.16875 -8.03625,4.95 -13.85375,6.03875 0.0275,-0.005 23.66625,29.61625 23.66625,29.61625 l -10.83375,0 -23.13375,-28.90625 c 0,0 -2.575,0 -4.79625,0 l -9.99,0 0,28.90625 -8.61375,0 m -41.135005,-28.5625 0,-7.6375 27.57375,-0.0437 0,27.18625 c -4.2325,3.37375 -8.59875,5.9125 -13.09875,7.615 -4.49875,1.70125 -9.1175,2.5525 -13.85375,2.5525 -6.39375,0 -12.2025,-1.36875 -17.4275,-4.1075 -5.225,-2.73755 -9.16875,-6.6963 -11.83375,-11.87755 -2.66375,-5.17875 -3.995,-10.9675 -3.995,-17.36125 0,-6.33375 1.32375,-12.2475 3.97375,-17.73875 2.64875,-5.49 6.46,-9.56875 11.43375,-12.2325 4.9725,-2.66375 10.7,-3.99625 17.18375,-3.99625 4.70625,0 8.96125,0.7625 12.765,2.28625 3.80375,1.52625 6.78625,3.64875 8.9475,6.3725 1.865,2.35125 3.415,5.3 4.4375,8.90625 0.01625,0.0538 -7.775,2.3275 -7.78625,2.28875 -0.705,-2.62125 -1.925,-4.6425 -3.135,-6.2225 -1.45,-1.89375 -3.5225,-3.41125 -6.21625,-4.55125 -2.69375,-1.13875 -5.6825,-1.70875 -8.96875,-1.70875 -3.9375,0 -7.34125,0.59875 -10.2125,1.7975 -2.87125,1.19875 -5.1875,2.775 -6.94875,4.72875 -1.76125,1.95375 -3.13,4.10125 -4.1075,6.43875 -1.6575,4.02625 -2.48625,8.3925 -2.48625,13.09875 0,5.8025 0.99875,10.65625 2.9975,14.56375 1.9975,3.9075 4.90625,6.80875 8.725,8.7025 3.81875,1.895 7.87375,2.8425 12.16625,2.8425 3.72875,0 7.37,-0.7175 10.9225,-2.15375 3.5525,-1.43625 6.24625,-2.9675 8.08125,-4.595 l 0,-15.15375 -19.1375,0" id="path86" stroke="black" style="fill:#878787;fill-opacity:1;fill-rule:nonzero;"/>
		
  
	</g>
	

</svg>