<?xml version="1.0" encoding="iso-8859-1"?><!DOCTYPE svg  PUBLIC '-//W3C//DTD SVG 1.0//EN'  'http://www.w3.org/TR/2001/REC-SVG-20010904/DTD/svg10.dtd'><!-- Created with Inkscape (http://www.inkscape.org/) by Steadfast--><svg height="238" id="svg2386" version="1.0" width="900" xmlns="http://www.w3.org/2000/svg" xmlns:svg="http://www.w3.org/2000/svg">
	
  
	<defs id="defs2388"/>
	
  
	<g id="layer1">
		
    
		<path animation_id="0" d="M 357.37688,227.61164 C 327.45411,225.58272 303.19374,217.12047 283.47414,201.83366 C 274.77817,195.09246 265.14468,184.13874 259.53382,174.61243 C 258.22088,172.38329 256.44637,170.24742 256.20134,169.86607 L 256.20134,223.025 L 172.15195,223.025 L 171.94372,161.6611 C 171.72795,98.074025 171.6368,94.997175 169.74261,87.354155 C 166.35608,73.414835 153.94746,68.006925 140.86952,67.999875 C 125.64352,67.600245 114.21137,73.790835 107.50135,87.916425 C 104.7162,95.589445 104.88101,91.327565 104.71217,160.04322 L 104.55743,223.025 L 20.10264,223.025 C 18.87164,165.20153 21.38774,107.25085 19.07809,49.449515 C 18.11033,40.081065 16.2302,32.380085 12.21289,21.329805 L 9.9999996,15.242905 L 92.13236,15.578875 L 94.22269,19.875785 C 95.44759,22.393725 96.63319,25.721125 97.08638,27.912765 C 97.51173,29.969805 98.00567,31.652835 98.18404,31.652835 C 98.36241,31.652835 101.17517,29.864765 104.43463,27.679335 C 117.15061,19.153425 129.95324,14.347525 146.41654,11.919995 C 155.12672,10.635675 176.92334,10.770735 185.87229,12.164475 C 206.32846,15.350405 222.57336,22.324615 235.15079,33.320565 C 244.41193,41.417205 251.06167,53.867475 253.95023,68.518625 L 254.97575,73.720195 L 257.14146,69.620055 C 261.35194,61.648705 266.31466,54.870815 273.05961,47.879685 C 293.31941,26.880455 321.02872,14.629685 356.97214,10.780495 C 365.52483,9.8645952 387.3085,9.9912352 396.0324,11.007585 C 414.29304,13.134965 429.17645,17.424995 442.80447,24.489255 C 453.57069,30.070055 461.62043,36.034455 470.02699,44.659585 C 477.8955,52.732645 484.90915,62.796305 489.42688,72.495815 L 490.96483,75.797865 L 490.98869,66.090575 C 491.0387,45.745525 489.95588,34.444125 486.8256,22.638925 L 484.90804,15.011775 L 567.91914,15.705155 L 568.99517,19.172035 C 570.68747,24.624755 571.91369,31.409245 572.27767,37.334215 L 572.61252,42.784485 L 575.605,38.729075 C 585.51341,25.301205 597.62865,16.975845 612.82841,13.149925 C 620.21824,11.289835 626.87023,10.690045 636.98646,10.971685 C 645.38086,11.205375 650.87186,11.957515 660.67145,14.215955 L 663.21388,14.801875 C 663.20981,23.030995 663.20991,31.289685 663.21388,39.511115 C 663.3214,39.511115 665.45497,38.360335 667.41538,36.953815 C 698.94819,14.330065 744.00266,5.0913352 786.86614,12.459635 C 810.46874,16.516965 832.63782,25.681005 849.50122,38.351115 C 878.66777,60.265065 893.05503,93.402425 889.45686,130.37883 C 886.98455,155.78542 875.17569,178.34487 855.55131,195.15132 C 829.67497,217.31201 792.62085,229.07293 752.19727,227.95575 C 725.7678,227.22531 703.42612,221.74609 682.88481,210.95709 C 666.01707,202.2377 651.73548,189.49142 640.97204,173.91619 C 622.09965,145.47532 619.58685,107.25216 634.49451,75.383655 C 635.6714,72.867695 636.63437,70.752885 636.63437,70.684085 C 628.21727,67.803715 619.21631,67.874555 610.61117,69.723995 C 605.35329,71.312725 602.03054,73.014965 597.45022,76.466325 C 586.42779,84.772005 580.01987,96.898975 577.28616,114.627 C 575.86381,123.85063 575.62635,132.87275 575.62182,177.83991 L 575.62182,223.025 L 491.25628,223.025 L 491.25628,172.50438 L 488.79461,176.66318 C 485.02495,183.03197 480.70257,188.54444 475.0943,194.13574 C 455.08538,214.08416 426.61853,225.11409 388.63638,227.63522 C 380.72083,228.16063 365.30193,228.149 357.37688,227.61164 z M 419.44342,157.94113 L 491.48736,159.23428 L 491.48736,135.65945 L 409.8461,135.65945 L 328.20484,135.65945 L 328.53664,138.77965 C 328.71913,140.49575 329.34634,143.78818 329.93045,146.09615 C 333.93891,161.93472 345.96234,171.73804 365.06155,174.74031 C 386.65483,176.76656 404.61312,175.74495 419.44342,157.94113 z M 779.96777,170.09202 C 793.85548,161.44166 802.3553,145.12568 803.95534,124.04627 C 805.11531,108.76466 801.2042,92.550755 793.65495,81.344885 C 791.18699,77.681495 785.87456,72.192105 782.70587,70.031115 C 771.49992,62.265065 757.69834,61.341565 744.66414,64.151035 C 724.54205,70.359495 712.253,89.239625 711.20766,115.5515 C 710.43982,134.87747 715.79311,151.28095 726.48711,162.37057 C 733.17219,169.30297 739.19788,172.66983 748.55149,174.69907 C 759.27573,176.40479 770.29165,175.12628 779.96777,170.09202 z M 412.68725,89.805925 C 413.40901,89.083675 410.73229,79.934075 408.62288,75.913025 C 406.43888,71.749785 400.97926,66.833965 395.71802,64.293525 C 380.31113,56.854195 357.14079,58.268735 344.2987,67.432655 C 337.71107,72.133495 332.58894,79.589305 329.87438,88.428785 L 329.26046,90.427935 L 370.81309,90.277795 C 393.66704,90.195225 412.51041,89.982875 412.68725,89.805925 z" id="path2384" stroke="black" style="fill:#000000"/>
		
  
	</g>
	

</svg>