<?xml version="1.0" encoding="iso-8859-1"?><svg height="256.96875" id="svg3882" version="1.1" width="611.07391" xmlns="http://www.w3.org/2000/svg" xmlns:svg="http://www.w3.org/2000/svg">
	
  
	<defs id="defs3884"/>
	
  
	<g id="layer1" transform="translate(-71.605912,-386.73495)">
		
    
		<path animation_id="0" d="m 554.21105,386.73495 c -41.9869,0 -79.27238,20.14338 -102.71876,51.28125 l 8.53126,7.15625 c 21.39139,-28.71105 55.62557,-47.3125 94.1875,-47.3125 64.82002,0 117.34375,52.5615 117.34375,117.375 0,7.80894 -0.76395,15.43414 -2.21875,22.8125 l 11.34375,0 c 1.32432,-7.40446 2,-15.02966 2,-22.8125 0,-70.96541 -57.49683,-128.5 -128.46875,-128.5 z m -136.40626,39.4375 c -0.0717,1.50046 -0.125,2.27249 -0.125,3.375 -0.92637,61.05582 -1.15471,97.80651 0,156.78125 0,0.42405 0.0364,1.41222 0.0625,2.3125 l 2.25,0 34.93751,0 2.09375,0 c 0,0 -0.0312,-1.03826 -0.0312,-2.0625 l 0,-70.78125 c 0,0 54.57834,50.17835 89.5,76.3125 1.0177,0.73719 1.6801,1.20547 2.75,1.96875 0.0131,-1.67007 0.0312,-2.58644 0.0312,-4.25 0.69151,-48.10616 0.92636,-115.08877 0,-160.1875 0,-1.14166 -0.0113,-1.67357 -0.0312,-2.75 l -39.28125,0 0,77.125 c 0,0 -56.64985,-52.50385 -89.71876,-76.09375 -0.6589,-0.46971 -1.36108,-1.03239 -2.4375,-1.75 z m 146.59376,0.6875 c -0.007,0.5219 0,161.78125 0,161.78125 l 95.25,0 c 8.2656,-11.84714 14.59227,-25.14395 18.5,-39.4375 l -72.125,1.09375 0,-123.4375 -41.625,0 z M 457.6798,600.0787 c 23.55075,26.76045 58.08024,43.625 96.53125,43.625 38.45101,0 72.94923,-16.86455 96.5,-43.625 l -15.40625,0 c -21.07825,20.14536 -49.6362,32.5 -81.09375,32.5 -31.45755,0 -60.02203,-12.35464 -81.09375,-32.5 l -15.4375,0 z" id="path194" stroke="black" style="fill:#0b63a2;fill-opacity:1;fill-rule:nonzero;"/>
		
    
		
		
  
	</g>
	

</svg>