<?xml version="1.0" encoding="iso-8859-1"?><!-- Generator: Adobe Illustrator 14.0.0, SVG Export Plug-In . SVG Version: 6.00 Build 43363)  --><!DOCTYPE svg  PUBLIC '-//W3C//DTD SVG 1.1//EN'  'http://www.w3.org/Graphics/SVG/1.1/DTD/svg11.dtd'><svg enable-background="new 0 0 1024 216" height="216px" id="Ebene_1" version="1.1" viewBox="0 0 1024 216" width="1024px" x="0px" xml:space="preserve" xmlns="http://www.w3.org/2000/svg" xmlns:xlink="http://www.w3.org/1999/xlink" y="0px">
	

	
	

	
	

	
	

	
	

	
	

	
	

	
	

	<path animation_id="6" d="M533.268,72.642c0.283,11.71-5.859,28.253-20.638,28.253c-15.507,0-21.949-15.369-21.949-27.808  c0-13.904,7.171-28.092,22.091-28.092C527.699,44.995,533.551,59.183,533.268,72.642 M476.923,110.251h13.172V99.714h0.287  c3.662,5.56,12.151,12.301,25.469,12.301c22.532,0,32.042-19.901,32.042-40.393c0-20.047-10.529-37.755-32.191-37.755  c-13.018,0-20.487,5.13-24.729,12.002h-0.292V0.506h-13.758V110.251z" stroke="black"/>
	

	
	

	
	

	
	

	
	

	
	

	
	

	
	

	
	

	
	

	
	

	
	

	
	

	
	

	
	

	
	

	
	

	
	

	
	

	
	

</svg>