<?xml version="1.0" encoding="iso-8859-1"?><!-- Generator: Adobe Illustrator 14.0.0, SVG Export Plug-In . SVG Version: 6.00 Build 43363)  --><!DOCTYPE svg  PUBLIC '-//W3C//DTD SVG 1.1//EN'  'http://www.w3.org/Graphics/SVG/1.1/DTD/svg11.dtd'><svg enable-background="new 0 0 1024 216" height="216px" id="Ebene_1" version="1.1" viewBox="0 0 1024 216" width="1024px" x="0px" xml:space="preserve" xmlns="http://www.w3.org/2000/svg" xmlns:xlink="http://www.w3.org/1999/xlink" y="0px">
	

	
	

	
	

	
	

	
	

	
	

	
	

	
	

	
	

	
	

	
	

	
	

	
	

	
	

	
	

	
	

	
	

	<path animation_id="11" d="M226.527,179.688h5.253v-14.372c0-5.308,2.128-10.568,7.5-10.568c4.249,0,5.089,4.418,5.089,7.938v17.003h5.253v-14.372  c0-5.308,2.121-10.568,7.493-10.568c4.248,0,5.088,4.418,5.088,7.938v17.003h5.254v-18.283c0-6.212-2.623-10.905-9.894-10.905  c-2.577,0-6.879,1.449-8.835,5.537c-1.507-3.858-4.815-5.537-8.113-5.537c-4.191,0-7.044,1.511-9.054,4.808h-0.111v-4.133h-4.923  V179.688z" stroke="black"/>
	

	
	

	
	

	
	

	
	

	
	

	
	

	
	

	
	

	
	

	
	

</svg>