<?xml version="1.0" encoding="iso-8859-1"?><!-- Generator: Adobe Illustrator 14.0.0, SVG Export Plug-In . SVG Version: 6.00 Build 43363)  --><!DOCTYPE svg  PUBLIC '-//W3C//DTD SVG 1.1//EN'  'http://www.w3.org/Graphics/SVG/1.1/DTD/svg11.dtd'><svg enable-background="new 0 0 1024 245" height="245px" id="Ebene_1" version="1.1" viewBox="0 0 1024 245" width="1024px" x="0px" xml:space="preserve" xmlns="http://www.w3.org/2000/svg" xmlns:xlink="http://www.w3.org/1999/xlink" y="0px">
	

	<g>
		
	
		
		
	
		
		
	
		
		
	
		
		
	
		
		
	
		
		
	
		
		
	
		
		
	
		
		
	
		
		
	
		
		
	
		
		
	
		
		
	
		
		
	
		
		
	
		
		

	</g>
	

	<g>
		
	
		
		
	
		<path animation_id="14" d="M43.95,226.44H8.934c-0.882,7.684,2.876,13.123,11.074,13.123c5.287,0,11.349-2.234,14.132-7.615h7.747   c-3.616,9.996-14.318,12.682-22.584,12.682c-13.71,0-19.934-7.526-17.415-19.375c2.896-13.632,12.632-20.859,26.186-20.859   c13.265,0,19.051,7.148,16.356,19.811L43.95,226.44 M37.286,221.379c1.686-8.648-4.023-11.922-10.432-11.922   c-7.526,0-13.671,3.655-16.538,11.922H37.286z" fill="#B52735" stroke="black"/>
		

	</g>
	

	<g>
		
	
		
		
	
		
		
	
		
		
	
		
		
	
		
		
	
		
		
	
		
		

	</g>
	

</svg>