<?xml version="1.0" encoding="iso-8859-1"?><!-- Generator: Adobe Illustrator 14.0.0, SVG Export Plug-In . SVG Version: 6.00 Build 43363)  --><!DOCTYPE svg  PUBLIC '-//W3C//DTD SVG 1.1//EN'  'http://www.w3.org/Graphics/SVG/1.1/DTD/svg11.dtd'><svg enable-background="new 0 0 1024 245" height="245px" id="Ebene_1" version="1.1" viewBox="0 0 1024 245" width="1024px" x="0px" xml:space="preserve" xmlns="http://www.w3.org/2000/svg" xmlns:xlink="http://www.w3.org/1999/xlink" y="0px">
	

	<g>
		
	
		
		
	
		
		
	
		
		
	
		
		
	
		
		
	
		
		
	
		<path animation_id="4" d="M768.057,66.833c8.928-26.497,34.908-30.283,62.24-30.283c32.419,0,55.655,5.265,50.334,30.283   l-9.575,45.098c-1.607,7.573-1.509,11.025,0.187,16.136h-34.889c-0.588-2.636-0.422-5.762-0.059-8.232   c-12.064,9.545-26.882,11.853-44.493,11.853c-28.479,0-41.66-9.224-37.701-27.82c4.303-20.245,19.336-27.487,44.698-29.126   l35.223-2.303c9.202-0.664,11.094-2.641,12.073-7.252c1.333-6.245-4.714-9.543-20.021-9.543c-12.838,0-19.865,3.624-23.118,11.189   H768.057 M842.576,86.421c-2.813,0.823-7.262,1.646-13.867,2.47l-24.128,2.8c-7.252,0.823-10.81,3.619-11.956,9.05   c-1.47,6.917,3.939,10.859,13.328,10.859c20.071,0,32.88-7.566,35.467-19.745L842.576,86.421z" fill="#B52735" stroke="black"/>
		
	
		
		
	
		
		
	
		
		
	
		
		
	
		
		
	
		
		
	
		
		
	
		
		
	
		
		

	</g>
	

	<g>
		
	
		
		
	
		
		

	</g>
	

	<g>
		
	
		
		
	
		
		
	
		
		
	
		
		
	
		
		
	
		
		
	
		
		

	</g>
	

</svg>