<?xml version="1.0" encoding="iso-8859-1"?><!-- Generator: Adobe Illustrator 14.0.0, SVG Export Plug-In . SVG Version: 6.00 Build 43363)  --><!DOCTYPE svg  PUBLIC '-//W3C//DTD SVG 1.1//EN'  'http://www.w3.org/Graphics/SVG/1.1/DTD/svg11.dtd'><svg enable-background="new 0 0 1024 245" height="245px" id="Ebene_1" version="1.1" viewBox="0 0 1024 245" width="1024px" x="0px" xml:space="preserve" xmlns="http://www.w3.org/2000/svg" xmlns:xlink="http://www.w3.org/1999/xlink" y="0px">
	

	<g>
		
	
		
		
	
		
		
	
		
		
	
		
		
	
		
		
	
		
		
	
		
		
	
		<path animation_id="5" d="M991.431,38.856h33.909l-17.248,81.14c-6.331,29.798-25.618,42.298-68.405,42.298   c-35.222,0-56.352-5.92-54.725-30.606h38.505c-0.059,8.061,8.801,10.53,19.003,10.53c19.591,0,27.47-6.914,30.938-23.207   l1.323-6.25c-9.408,7.892-24.628,11.354-38.122,11.354c-37.858,0-48.707-19.422-43.532-43.785   c5.008-23.533,26.254-43.777,62.143-43.777c15.465,0,28.293,3.955,33.468,13.657h0.333L991.431,38.856 M950.996,102.057   c19.757,0,28.038-9.543,30.458-20.904c2.666-12.507-3.479-21.56-21.423-21.56c-17.61,0-27.715,9.547-30.185,21.234   C927.328,92.673,933.395,102.057,950.996,102.057" fill="#B52735" stroke="black"/>
		
	
		
		
	
		
		
	
		
		
	
		
		
	
		
		
	
		
		
	
		
		
	
		
		

	</g>
	

	<g>
		
	
		
		
	
		
		

	</g>
	

	<g>
		
	
		
		
	
		
		
	
		
		
	
		
		
	
		
		
	
		
		
	
		
		

	</g>
	

</svg>