<?xml version="1.0" encoding="iso-8859-1"?><!-- Generator: Adobe Illustrator 14.0.0, SVG Export Plug-In . SVG Version: 6.00 Build 43363)  --><!DOCTYPE svg  PUBLIC '-//W3C//DTD SVG 1.1//EN'  'http://www.w3.org/Graphics/SVG/1.1/DTD/svg11.dtd'><svg enable-background="new 0 0 1024 245" height="245px" id="Ebene_1" version="1.1" viewBox="0 0 1024 245" width="1024px" x="0px" xml:space="preserve" xmlns="http://www.w3.org/2000/svg" xmlns:xlink="http://www.w3.org/1999/xlink" y="0px">
	

	<g>
		
	
		
		
	
		
		
	
		
		
	
		
		
	
		
		
	
		
		
	
		
		
	
		
		
	
		
		
	
		
		
	
		
		
	
		
		
	
		
		
	
		
		
	
		
		
	
		
		

	</g>
	

	<g>
		
	
		
		
	
		
		

	</g>
	

	<g>
		
	
		
		
	
		
		
	
		
		
	
		<path animation_id="17" d="M201.027,215.567c2.773-8.864,12.877-11.177,21.001-11.177c10.349,0,17.116,3.949,15.132,13.265   l-3.911,18.399c-0.598,2.832-1.014,5.149-1.22,7.164h-6.855c0.142-1.729,0.446-3.509,0.809-5.224h-0.147   c-5.434,5.591-10.422,6.635-17.729,6.635c-9.462,0-14.837-5.219-13.343-12.221c1.676-7.904,8.511-11.996,21.849-12.368   c5.547-0.146,9.35-0.146,12.775-0.146l0.22-1.044c1.524-7.159-2.475-9.394-9.702-9.394c-5.14,0-9.893,2.019-11.133,6.11H201.027    M228.311,224.956c-2.46,0-6.037,0-11.672,0.23c-7.664,0.284-12.922,1.558-14.078,6.997c-0.794,3.724,1.485,7.38,8.561,7.38   c9.021,0,14.911-3.881,16.827-12.893L228.311,224.956z" fill="#B52735" stroke="black"/>
		
	
		
		
	
		
		
	
		
		

	</g>
	

</svg>