<?xml version="1.0" encoding="iso-8859-1"?><!-- Generator: Adobe Illustrator 14.0.0, SVG Export Plug-In . SVG Version: 6.00 Build 43363)  --><!DOCTYPE svg  PUBLIC '-//W3C//DTD SVG 1.1//EN'  'http://www.w3.org/Graphics/SVG/1.1/DTD/svg11.dtd'><svg enable-background="new 0 0 1024 245" height="245px" id="Ebene_1" version="1.1" viewBox="0 0 1024 245" width="1024px" x="0px" xml:space="preserve" xmlns="http://www.w3.org/2000/svg" xmlns:xlink="http://www.w3.org/1999/xlink" y="0px">
	

	<g>
		
	
		
		
	
		
		
	
		
		
	
		
		
	
		
		
	
		
		
	
		
		
	
		
		
	
		
		
	
		
		
	
		
		
	
		
		
	
		
		
	
		
		
	
		
		
	
		
		

	</g>
	

	<g>
		
	
		
		
	
		
		

	</g>
	

	<g>
		
	
		
		
	
		
		
	
		<path animation_id="16" d="M187.468,226.44h-35.016c-0.892,7.684,2.872,13.123,11.064,13.123c5.292,0,11.354-2.234,14.132-7.615h7.752   c-3.611,9.996-14.318,12.682-22.584,12.682c-13.715,0-19.934-7.526-17.415-19.375c2.896-13.632,12.632-20.859,26.19-20.859   c13.26,0,19.042,7.148,16.347,19.811L187.468,226.44 M180.794,221.379c1.69-8.648-4.023-11.922-10.432-11.922   c-7.522,0-13.662,3.655-16.538,11.922H180.794z" fill="#B52735" stroke="black"/>
		
	
		
		
	
		
		
	
		
		
	
		
		

	</g>
	

</svg>