<?xml version="1.0" encoding="iso-8859-1"?><!-- Generator: Adobe Illustrator 14.0.0, SVG Export Plug-In . SVG Version: 6.00 Build 43363)  --><!DOCTYPE svg  PUBLIC '-//W3C//DTD SVG 1.1//EN'  'http://www.w3.org/Graphics/SVG/1.1/DTD/svg11.dtd'><svg enable-background="new 0 0 1024 245" height="245px" id="Ebene_1" version="1.1" viewBox="0 0 1024 245" width="1024px" x="0px" xml:space="preserve" xmlns="http://www.w3.org/2000/svg" xmlns:xlink="http://www.w3.org/1999/xlink" y="0px">
	

	<g>
		
	
		
		
	
		<path animation_id="1" d="M264.551,101.564c-7.423,14.813-27.636,30.118-65.651,30.118c-40.166,0-59.286-15.305-52.255-48.388   c6.718-31.605,34.737-48.06,71.767-48.06c38.187,0,58.355,16.626,50.446,53.815l-0.563,2.639H180.74   c-0.637,11.522,5.802,19.912,23.746,19.912c11.192,0,17.968-4.768,23.197-10.036H264.551 M236.268,73.58   c0.127-9.874-5.498-18.262-21.957-18.262c-16.459,0-25.652,8.389-29.724,18.262H236.268z" stroke="black"/>
		
	
		
		
	
		
		
	
		
		
	
		
		
	
		
		
	
		
		
	
		
		
	
		
		
	
		
		
	
		
		
	
		
		
	
		
		
	
		
		
	
		
		

	</g>
	

	<g>
		
	
		
		
	
		
		

	</g>
	

	<g>
		
	
		
		
	
		
		
	
		
		
	
		
		
	
		
		
	
		
		
	
		
		

	</g>
	

</svg>