<?xml version="1.0" encoding="iso-8859-1"?><!-- Generator: Adobe Illustrator 14.0.0, SVG Export Plug-In . SVG Version: 6.00 Build 43363)  --><!DOCTYPE svg  PUBLIC '-//W3C//DTD SVG 1.1//EN'  'http://www.w3.org/Graphics/SVG/1.1/DTD/svg11.dtd'><svg enable-background="new 0 0 1024 245" height="245px" id="Ebene_1" version="1.1" viewBox="0 0 1024 245" width="1024px" x="0px" xml:space="preserve" xmlns="http://www.w3.org/2000/svg" xmlns:xlink="http://www.w3.org/1999/xlink" y="0px">
	

	<g>
		
	
		
		
	
		
		
	
		
		
	
		
		
	
		<path animation_id="3" d="M572.788,100.247c-0.206,3.291,0.549,5.927,3.332,7.578c2.734,1.806,7.302,2.793,14.877,2.793   c7.732,0,16.278-1.48,17.64-7.896c1.01-4.778-2.165-6.093-10.505-7.081l-30.313-3.788c-19.885-2.464-28.714-9.709-25.49-24.853   c5.146-24.189,27.489-31.762,60.898-31.762c23.706,0,52.754,4.275,49.334,29.626h-39.171c0.479-3.791-1.471-6.258-4.646-7.573   c-3.136-1.485-7.645-1.977-12.094-1.977c-10.035,0-16.454,2.303-17.748,8.396c-0.588,2.798,1.186,5.268,9.869,6.255l29.42,3.293   c23.462,2.634,33.742,10.036,30.027,27.487c-4.469,21.063-26.646,30.943-63.681,30.943c-24.697,0-57.155-4.444-52.245-31.441   H572.788" stroke="black"/>
		
	
		
		
	
		
		
	
		
		
	
		
		
	
		
		
	
		
		
	
		
		
	
		
		
	
		
		
	
		
		
	
		
		

	</g>
	

	<g>
		
	
		
		
	
		
		

	</g>
	

	<g>
		
	
		
		
	
		
		
	
		
		
	
		
		
	
		
		
	
		
		
	
		
		

	</g>
	

</svg>