<?xml version="1.0" encoding="iso-8859-1"?><!-- Generator: Adobe Illustrator 14.0.0, SVG Export Plug-In . SVG Version: 6.00 Build 43363)  --><!DOCTYPE svg  PUBLIC '-//W3C//DTD SVG 1.1//EN'  'http://www.w3.org/Graphics/SVG/1.1/DTD/svg11.dtd'><svg enable-background="new 0 0 1024 245" height="245px" id="Ebene_1" version="1.1" viewBox="0 0 1024 245" width="1024px" x="0px" xml:space="preserve" xmlns="http://www.w3.org/2000/svg" xmlns:xlink="http://www.w3.org/1999/xlink" y="0px">
	

	<g>
		
	
		
		
	
		
		
	
		
		
	
		
		
	
		
		
	
		
		
	
		
		
	
		
		
	
		
		
	
		
		
	
		
		
	
		
		
	
		
		
	
		
		
	
		
		
	
		
		

	</g>
	

	<g>
		
	
		<path animation_id="13" d="M746.045,232.556c-0.44,5.214,3.959,7.008,10.584,7.008c8.203,0,12.76-2.539,13.603-6.483   c1.853-8.717-29.812-2.082-26.646-16.988c1.755-8.267,10.319-11.696,20.669-11.696c7.742,0,17.326,1.936,15.817,11.104h-7.086   c-0.039-4.699-3.92-6.042-9.506-6.042c-6.557,0-11.652,2.239-12.388,5.669c-0.549,2.612,1.48,4.249,6.851,5.287l11.878,2.304   c6.723,1.353,9.447,4.253,8.262,9.839c-1.695,7.968-9.192,12.074-23.344,12.074c-9.986,0-17.769-3.356-16.436-12.074H746.045" fill="#B52735" stroke="black"/>
		
	
		
		

	</g>
	

	<g>
		
	
		
		
	
		
		
	
		
		
	
		
		
	
		
		
	
		
		
	
		
		

	</g>
	

</svg>