<?xml version="1.0" encoding="iso-8859-1"?><!-- Created with Inkscape (http://www.inkscape.org/) --><svg height="310" id="svg3336" version="1.1" width="1024" xmlns="http://www.w3.org/2000/svg" xmlns:cc="http://creativecommons.org/ns#" xmlns:dc="http://purl.org/dc/elements/1.1/" xmlns:rdf="http://www.w3.org/1999/02/22-rdf-syntax-ns#" xmlns:svg="http://www.w3.org/2000/svg">
	
  
	<defs id="defs3338">
		
    
		<clipPath id="clipPath3053">
			
      
			
			
    
		</clipPath>
		
  
	</defs>
	
  
	<metadata id="metadata3341">
		
    
		<rdf:RDF>
			
      
			<cc:Work rdf:about="">
				
        
				<dc:format>image/svg+xml</dc:format>
				
        
				<dc:type rdf:resource="http://purl.org/dc/dcmitype/StillImage"/>
				
        
				<dc:title/>
				
      
			</cc:Work>
			
    
		</rdf:RDF>
		
  
	</metadata>
	
  
	<g id="layer1" transform="translate(0,-458)">
		
    
		<g id="g3049" transform="matrix(7.6429451,0,0,-7.6429451,-1190.7796,1022.5192)">
			
      
			<g clip-path="url(#clipPath3053)" id="g3051">
				
        
				<g id="g3057" transform="translate(275.3616,35.46)">
					
          
					
					
        
				</g>
				
        
				<g id="g3061" transform="translate(275.3616,35.46)">
					
          
					
					
        
				</g>
				
        
				
				
        
				
				
        
				
				
        
				<g id="g3071" transform="translate(224.2927,46.5838)">
					
          
					
					
        
				</g>
				
        
				<g id="g3075" transform="translate(245.9378,46.5838)">
					
          
					
					
        
				</g>
				
        
				<g id="g3079" transform="translate(263.4672,55.8355)">
					
          
					<path animation_id="8" d="m 0,0 c 0,-1.98 -1.18,-3.579 -3.122,-3.579 l -2.589,0 1.104,5.254 2.513,0 C -0.457,1.675 0,0.952 0,0 m 0.152,11.688 c 1.333,0 1.904,-0.494 1.904,-1.446 0,-1.866 -1.294,-3.16 -2.817,-3.16 l -2.704,0 0.99,4.606 2.627,0 z M -2.97,-9.252 c 8.871,0 10.737,6.244 10.737,9.138 0,2.551 -1.599,4.454 -3.693,5.025 3.921,1.181 5.254,4.798 5.254,7.235 0,3.121 -2.323,5.139 -5.673,5.139 l -11.765,0 -5.635,-26.537 10.775,0 z" id="path3081" stroke="black" style="fill:#004699;fill-opacity:1;fill-rule:evenodd;"/>
					
        
				</g>
				
        
				<g id="g3083" transform="translate(202.1667,41.9676)">
					
          
					
					
        
				</g>
				
        
				<g id="g3087" transform="translate(187.0584,37.0258)">
					
          
					
					
        
				</g>
				
        
				<g id="g3091" transform="translate(191.0497,38.6806)">
					
          
					
					
        
				</g>
				
        
				<g id="g3095" transform="translate(196.905,37.0955)">
					
          
					
					
        
				</g>
				
        
				<g id="g3099" transform="translate(200.2773,40.1957)">
					
          
					
					
        
				</g>
				
        
				<g id="g3103" transform="translate(202.4472,40.1637)">
					
          
					
					
        
				</g>
				
        
				<g id="g3107" transform="translate(205.0245,38.6806)">
					
          
					
					
        
				</g>
				
        
				<g id="g3111" transform="translate(210.3877,36.9321)">
					
          
					
					
        
				</g>
				
        
				<g id="g3115" transform="translate(214.9167,38.462)">
					
          
					
					
        
				</g>
				
        
				<g id="g3119" transform="translate(219.4312,37.5018)">
					
          
					
					
        
				</g>
				
        
				<g id="g3123" transform="translate(222.4693,38.6806)">
					
          
					
					
        
				</g>
				
        
				<g id="g3127" transform="translate(227.7076,38.462)">
					
          
					
					
        
				</g>
				
        
				<g id="g3131" transform="translate(230.651,38.6806)">
					
          
					
					
        
				</g>
				
        
				<g id="g3135" transform="translate(235.9754,36.9705)">
					
          
					
					
        
				</g>
				
        
				<g id="g3139" transform="translate(238.8026,36.9705)">
					
          
					
					
        
				</g>
				
        
				<g id="g3143" transform="translate(241.542,38.462)">
					
          
					
					
        
				</g>
				
        
				<g id="g3147" transform="translate(245.3996,40.2652)">
					
          
					
					
        
				</g>
				
        
				<g id="g3151" transform="translate(249.8036,40.2652)">
					
          
					
					
        
				</g>
				
        
				<g id="g3155" transform="translate(254.5039,37.3527)">
					
          
					
					
        
				</g>
				
        
				<g id="g3159" transform="translate(258.3519,42.0137)">
					
          
					
					
        
				</g>
				
        
				<g id="g3163" transform="translate(262.743,36.783)">
					
          
					
					
        
				</g>
				
      
			</g>
			
    
		</g>
		
  
	</g>
	

</svg>