<?xml version="1.0" encoding="iso-8859-1"?><!-- Created with Inkscape (http://www.inkscape.org/) --><svg height="310" id="svg3336" version="1.1" width="1024" xmlns="http://www.w3.org/2000/svg" xmlns:cc="http://creativecommons.org/ns#" xmlns:dc="http://purl.org/dc/elements/1.1/" xmlns:rdf="http://www.w3.org/1999/02/22-rdf-syntax-ns#" xmlns:svg="http://www.w3.org/2000/svg">
	
  
	<defs id="defs3338">
		
    
		<clipPath id="clipPath3053">
			
      
			
			
    
		</clipPath>
		
  
	</defs>
	
  
	<metadata id="metadata3341">
		
    
		<rdf:RDF>
			
      
			<cc:Work rdf:about="">
				
        
				<dc:format>image/svg+xml</dc:format>
				
        
				<dc:type rdf:resource="http://purl.org/dc/dcmitype/StillImage"/>
				
        
				<dc:title/>
				
      
			</cc:Work>
			
    
		</rdf:RDF>
		
  
	</metadata>
	
  
	<g id="layer1" transform="translate(0,-458)">
		
    
		<g id="g3049" transform="matrix(7.6429451,0,0,-7.6429451,-1190.7796,1022.5192)">
			
      
			<g clip-path="url(#clipPath3053)" id="g3051">
				
        
				<g id="g3057" transform="translate(275.3616,35.46)">
					
          
					
					
        
				</g>
				
        
				<g id="g3061" transform="translate(275.3616,35.46)">
					
          
					
					
        
				</g>
				
        
				
				
        
				
				
        
				
				
        
				<g id="g3071" transform="translate(224.2927,46.5838)">
					
          
					
					
        
				</g>
				
        
				<g id="g3075" transform="translate(245.9378,46.5838)">
					
          
					
					
        
				</g>
				
        
				<g id="g3079" transform="translate(263.4672,55.8355)">
					
          
					
					
        
				</g>
				
        
				<g id="g3083" transform="translate(202.1667,41.9676)">
					
          
					
					
        
				</g>
				
        
				<g id="g3087" transform="translate(187.0584,37.0258)">
					
          
					
					
        
				</g>
				
        
				<g id="g3091" transform="translate(191.0497,38.6806)">
					
          
					
					
        
				</g>
				
        
				<g id="g3095" transform="translate(196.905,37.0955)">
					
          
					
					
        
				</g>
				
        
				<g id="g3099" transform="translate(200.2773,40.1957)">
					
          
					
					
        
				</g>
				
        
				<g id="g3103" transform="translate(202.4472,40.1637)">
					
          
					
					
        
				</g>
				
        
				<g id="g3107" transform="translate(205.0245,38.6806)">
					
          
					
					
        
				</g>
				
        
				<g id="g3111" transform="translate(210.3877,36.9321)">
					
          
					
					
        
				</g>
				
        
				<g id="g3115" transform="translate(214.9167,38.462)">
					
          
					
					
        
				</g>
				
        
				<g id="g3119" transform="translate(219.4312,37.5018)">
					
          
					
					
        
				</g>
				
        
				<g id="g3123" transform="translate(222.4693,38.6806)">
					
          
					
					
        
				</g>
				
        
				<g id="g3127" transform="translate(227.7076,38.462)">
					
          
					
					
        
				</g>
				
        
				<g id="g3131" transform="translate(230.651,38.6806)">
					
          
					
					
        
				</g>
				
        
				<g id="g3135" transform="translate(235.9754,36.9705)">
					
          
					
					
        
				</g>
				
        
				<g id="g3139" transform="translate(238.8026,36.9705)">
					
          
					<path animation_id="23" d="m 0,0 c -0.009,0.031 -0.023,0.046 -0.055,0.046 -0.008,0 -0.032,-0.007 -0.055,-0.015 -0.126,-0.063 -0.234,-0.095 -0.336,-0.095 -0.226,0 -0.319,0.142 -0.328,0.494 l 0,0.203 0,0.289 0,4.037 c 0,0.07 -0.016,0.085 -0.055,0.085 l -0.03,0 C -0.869,5.036 -0.876,5.036 -0.876,5.036 L -1.266,4.942 C -1.312,4.934 -1.353,4.896 -1.353,4.849 l 0,-3.913 0,-0.366 c 0.01,-0.844 0.197,-1.1 0.813,-1.1 0.203,0 0.406,0.046 0.593,0.124 0.04,0.022 0.055,0.039 0.055,0.062 0,0.008 -0.008,0.032 -0.015,0.063 L 0,0 z" id="path3141" stroke="black" style="fill:#ffffff;fill-opacity:1;fill-rule:nonzero;"/>
					
        
				</g>
				
        
				<g id="g3143" transform="translate(241.542,38.462)">
					
          
					
					
        
				</g>
				
        
				<g id="g3147" transform="translate(245.3996,40.2652)">
					
          
					
					
        
				</g>
				
        
				<g id="g3151" transform="translate(249.8036,40.2652)">
					
          
					
					
        
				</g>
				
        
				<g id="g3155" transform="translate(254.5039,37.3527)">
					
          
					
					
        
				</g>
				
        
				<g id="g3159" transform="translate(258.3519,42.0137)">
					
          
					
					
        
				</g>
				
        
				<g id="g3163" transform="translate(262.743,36.783)">
					
          
					
					
        
				</g>
				
      
			</g>
			
    
		</g>
		
  
	</g>
	

</svg>