<?xml version="1.0" encoding="iso-8859-1"?><!-- Created with Inkscape (http://www.inkscape.org/) --><svg height="310" id="svg3336" version="1.1" width="1024" xmlns="http://www.w3.org/2000/svg" xmlns:cc="http://creativecommons.org/ns#" xmlns:dc="http://purl.org/dc/elements/1.1/" xmlns:rdf="http://www.w3.org/1999/02/22-rdf-syntax-ns#" xmlns:svg="http://www.w3.org/2000/svg">
	
  
	<defs id="defs3338">
		
    
		<clipPath id="clipPath3053">
			
      
			
			
    
		</clipPath>
		
  
	</defs>
	
  
	<metadata id="metadata3341">
		
    
		<rdf:RDF>
			
      
			<cc:Work rdf:about="">
				
        
				<dc:format>image/svg+xml</dc:format>
				
        
				<dc:type rdf:resource="http://purl.org/dc/dcmitype/StillImage"/>
				
        
				<dc:title/>
				
      
			</cc:Work>
			
    
		</rdf:RDF>
		
  
	</metadata>
	
  
	<g id="layer1" transform="translate(0,-458)">
		
    
		<g id="g3049" transform="matrix(7.6429451,0,0,-7.6429451,-1190.7796,1022.5192)">
			
      
			<g clip-path="url(#clipPath3053)" id="g3051">
				
        
				<g id="g3057" transform="translate(275.3616,35.46)">
					
          
					<path animation_id="1" d="m 0,0 -7.682,0.04 c -0.125,0.001 -0.226,0.103 -0.225,0.228 0,0.125 0.101,0.226 0.226,0.226 l 0.001,0 7.676,-0.041 c 6.522,0.158 10.634,1.875 12.216,5.105 2.267,4.631 -0.594,12.414 -8.506,23.131 -0.074,0.101 -0.053,0.243 0.048,0.317 0.1,0.075 0.242,0.053 0.317,-0.047 8.02,-10.865 10.896,-18.805 8.548,-23.6 C 10.957,1.965 6.711,0.162 0,0" id="path3059" stroke="black" style="fill:#7b7b7a;fill-opacity:1;fill-rule:nonzero;"/>
					
        
				</g>
				
        
				<g id="g3061" transform="translate(275.3616,35.46)">
					
          
					
					
        
				</g>
				
        
				
				
        
				
				
        
				
				
        
				<g id="g3071" transform="translate(224.2927,46.5838)">
					
          
					
					
        
				</g>
				
        
				<g id="g3075" transform="translate(245.9378,46.5838)">
					
          
					
					
        
				</g>
				
        
				<g id="g3079" transform="translate(263.4672,55.8355)">
					
          
					
					
        
				</g>
				
        
				<g id="g3083" transform="translate(202.1667,41.9676)">
					
          
					
					
        
				</g>
				
        
				<g id="g3087" transform="translate(187.0584,37.0258)">
					
          
					
					
        
				</g>
				
        
				<g id="g3091" transform="translate(191.0497,38.6806)">
					
          
					
					
        
				</g>
				
        
				<g id="g3095" transform="translate(196.905,37.0955)">
					
          
					
					
        
				</g>
				
        
				<g id="g3099" transform="translate(200.2773,40.1957)">
					
          
					
					
        
				</g>
				
        
				<g id="g3103" transform="translate(202.4472,40.1637)">
					
          
					
					
        
				</g>
				
        
				<g id="g3107" transform="translate(205.0245,38.6806)">
					
          
					
					
        
				</g>
				
        
				<g id="g3111" transform="translate(210.3877,36.9321)">
					
          
					
					
        
				</g>
				
        
				<g id="g3115" transform="translate(214.9167,38.462)">
					
          
					
					
        
				</g>
				
        
				<g id="g3119" transform="translate(219.4312,37.5018)">
					
          
					
					
        
				</g>
				
        
				<g id="g3123" transform="translate(222.4693,38.6806)">
					
          
					
					
        
				</g>
				
        
				<g id="g3127" transform="translate(227.7076,38.462)">
					
          
					
					
        
				</g>
				
        
				<g id="g3131" transform="translate(230.651,38.6806)">
					
          
					
					
        
				</g>
				
        
				<g id="g3135" transform="translate(235.9754,36.9705)">
					
          
					
					
        
				</g>
				
        
				<g id="g3139" transform="translate(238.8026,36.9705)">
					
          
					
					
        
				</g>
				
        
				<g id="g3143" transform="translate(241.542,38.462)">
					
          
					
					
        
				</g>
				
        
				<g id="g3147" transform="translate(245.3996,40.2652)">
					
          
					
					
        
				</g>
				
        
				<g id="g3151" transform="translate(249.8036,40.2652)">
					
          
					
					
        
				</g>
				
        
				<g id="g3155" transform="translate(254.5039,37.3527)">
					
          
					
					
        
				</g>
				
        
				<g id="g3159" transform="translate(258.3519,42.0137)">
					
          
					
					
        
				</g>
				
        
				<g id="g3163" transform="translate(262.743,36.783)">
					
          
					
					
        
				</g>
				
      
			</g>
			
    
		</g>
		
  
	</g>
	

</svg>