<?xml version="1.0" encoding="iso-8859-1"?><!-- Created with Inkscape (http://www.inkscape.org/) --><svg height="310" id="svg3336" version="1.1" width="1024" xmlns="http://www.w3.org/2000/svg" xmlns:cc="http://creativecommons.org/ns#" xmlns:dc="http://purl.org/dc/elements/1.1/" xmlns:rdf="http://www.w3.org/1999/02/22-rdf-syntax-ns#" xmlns:svg="http://www.w3.org/2000/svg">
	
  
	<defs id="defs3338">
		
    
		<clipPath id="clipPath3053">
			
      
			
			
    
		</clipPath>
		
  
	</defs>
	
  
	<metadata id="metadata3341">
		
    
		<rdf:RDF>
			
      
			<cc:Work rdf:about="">
				
        
				<dc:format>image/svg+xml</dc:format>
				
        
				<dc:type rdf:resource="http://purl.org/dc/dcmitype/StillImage"/>
				
        
				<dc:title/>
				
      
			</cc:Work>
			
    
		</rdf:RDF>
		
  
	</metadata>
	
  
	<g id="layer1" transform="translate(0,-458)">
		
    
		<g id="g3049" transform="matrix(7.6429451,0,0,-7.6429451,-1190.7796,1022.5192)">
			
      
			<g clip-path="url(#clipPath3053)" id="g3051">
				
        
				<g id="g3057" transform="translate(275.3616,35.46)">
					
          
					
					
        
				</g>
				
        
				<g id="g3061" transform="translate(275.3616,35.46)">
					
          
					
					
        
				</g>
				
        
				
				
        
				
				
        
				
				
        
				<g id="g3071" transform="translate(224.2927,46.5838)">
					
          
					
					
        
				</g>
				
        
				<g id="g3075" transform="translate(245.9378,46.5838)">
					
          
					
					
        
				</g>
				
        
				<g id="g3079" transform="translate(263.4672,55.8355)">
					
          
					
					
        
				</g>
				
        
				<g id="g3083" transform="translate(202.1667,41.9676)">
					
          
					
					
        
				</g>
				
        
				<g id="g3087" transform="translate(187.0584,37.0258)">
					
          
					
					
        
				</g>
				
        
				<g id="g3091" transform="translate(191.0497,38.6806)">
					
          
					
					
        
				</g>
				
        
				<g id="g3095" transform="translate(196.905,37.0955)">
					
          
					
					
        
				</g>
				
        
				<g id="g3099" transform="translate(200.2773,40.1957)">
					
          
					<path animation_id="13" d="m 0,0 c -0.101,0.047 -0.218,0.07 -0.327,0.07 -0.298,0 -0.469,-0.109 -0.859,-0.532 l -0.087,-0.101 c -0.023,0.156 -0.047,0.211 -0.094,0.336 -0.07,0.188 -0.148,0.297 -0.195,0.297 -0.015,0 -0.047,-0.008 -0.062,-0.016 l -0.312,-0.203 c -0.032,-0.015 -0.047,-0.039 -0.047,-0.063 0,-0.023 0.008,-0.038 0.032,-0.077 0.155,-0.29 0.186,-0.422 0.186,-1.023 l 0,-2.28 c 0,-0.071 0.009,-0.085 0.087,-0.085 l 0.398,0 c 0.07,0 0.085,0.006 0.085,0.085 l 0,2.514 c 0.375,0.445 0.556,0.577 0.751,0.577 0.069,0 0.101,0 0.234,-0.046 0.007,-0.008 0.015,-0.008 0.022,-0.008 0.017,0 0.032,0.008 0.04,0.031 l 0.187,0.414 c 0.008,0.023 0.015,0.047 0.015,0.055 C 0.054,-0.032 0.031,-0.016 0,0" id="path3101" stroke="black" style="fill:#ffffff;fill-opacity:1;fill-rule:nonzero;"/>
					
        
				</g>
				
        
				<g id="g3103" transform="translate(202.4472,40.1637)">
					
          
					
					
        
				</g>
				
        
				<g id="g3107" transform="translate(205.0245,38.6806)">
					
          
					
					
        
				</g>
				
        
				<g id="g3111" transform="translate(210.3877,36.9321)">
					
          
					
					
        
				</g>
				
        
				<g id="g3115" transform="translate(214.9167,38.462)">
					
          
					
					
        
				</g>
				
        
				<g id="g3119" transform="translate(219.4312,37.5018)">
					
          
					
					
        
				</g>
				
        
				<g id="g3123" transform="translate(222.4693,38.6806)">
					
          
					
					
        
				</g>
				
        
				<g id="g3127" transform="translate(227.7076,38.462)">
					
          
					
					
        
				</g>
				
        
				<g id="g3131" transform="translate(230.651,38.6806)">
					
          
					
					
        
				</g>
				
        
				<g id="g3135" transform="translate(235.9754,36.9705)">
					
          
					
					
        
				</g>
				
        
				<g id="g3139" transform="translate(238.8026,36.9705)">
					
          
					
					
        
				</g>
				
        
				<g id="g3143" transform="translate(241.542,38.462)">
					
          
					
					
        
				</g>
				
        
				<g id="g3147" transform="translate(245.3996,40.2652)">
					
          
					
					
        
				</g>
				
        
				<g id="g3151" transform="translate(249.8036,40.2652)">
					
          
					
					
        
				</g>
				
        
				<g id="g3155" transform="translate(254.5039,37.3527)">
					
          
					
					
        
				</g>
				
        
				<g id="g3159" transform="translate(258.3519,42.0137)">
					
          
					
					
        
				</g>
				
        
				<g id="g3163" transform="translate(262.743,36.783)">
					
          
					
					
        
				</g>
				
      
			</g>
			
    
		</g>
		
  
	</g>
	

</svg>