<?xml version="1.0" encoding="iso-8859-1"?><!DOCTYPE svg  PUBLIC '-//W3C//DTD SVG 1.0//EN'  'http://www.w3.org/TR/2001/REC-SVG-20010904/DTD/svg10.dtd'><!-- Created with Inkscape (http://www.inkscape.org/) --><svg height="300" id="svg2" version="1.0" width="800" xmlns="http://www.w3.org/2000/svg" xmlns:svg="http://www.w3.org/2000/svg">
	
  
	<defs id="defs4"/>
	
  
	
	
  
	
	
  
	
	
  
	<path animation_id="1" d="M 105.53588,255.86793 L 90.879795,255.86793 L 90.879795,260.85003 C 90.879795,263.90897 88.424576,266.38838 85.365624,266.38838 L 54.142837,266.38838 C 51.083884,266.38838 48.628666,263.90898 48.628666,260.85003 L 48.628666,235.6493 C 48.628666,232.59034 51.083884,230.13513 54.142837,230.13513 L 85.365624,230.13513 C 88.424576,230.13513 90.879795,232.59034 90.879795,235.6493 L 90.879795,240.65558 L 105.53588,240.65558 L 105.53588,236.6167 C 105.53588,226.6877 97.543824,218.67145 87.614825,218.67145 L 51.869451,218.67145 C 41.940452,218.67145 33.948386,226.6877 33.948394,236.6167 L 33.948394,259.90681 C 33.948394,269.83581 41.940444,277.82787 51.869451,277.82787 L 87.614825,277.82787 C 97.543824,277.82787 105.53588,269.83581 105.53588,259.90681 L 105.53588,255.86793 z M 300.12463,218.67145 L 270.76581,260.14866 L 241.407,218.67145 L 223.14735,218.67145 L 223.14735,277.82787 L 237.94855,277.82787 L 237.94855,238.16453 L 266.0031,277.82787 L 274.70969,277.82787 L 303.03028,238.16453 L 303.03028,277.82787 L 317.68636,277.82787 L 317.68636,218.67145 L 300.12463,218.67145 z M 185.63151,260.85003 C 185.63151,263.90897 183.17629,266.38838 180.11734,266.38838 L 143.90379,266.38838 C 140.84483,266.38838 138.38962,263.90898 138.38962,260.85003 L 138.38962,235.6493 C 138.38962,232.59034 140.84483,230.13513 143.90379,230.13513 L 180.11734,230.13513 C 183.17629,230.13513 185.63151,232.59034 185.63151,235.6493 L 185.63151,260.85003 z M 200.2876,236.6167 C 200.2876,226.6877 192.29554,218.67145 182.36654,218.67145 L 141.6304,218.67145 C 131.7014,218.67145 123.70934,226.6877 123.70934,236.6167 L 123.70934,259.90681 C 123.70934,269.83581 131.70139,277.82787 141.6304,277.82787 L 182.36654,277.82787 C 192.29554,277.82787 200.2876,269.83581 200.2876,259.90681 L 200.2876,236.6167 z M 504.60781,218.68225 L 489.94587,218.68225 L 489.94587,260.8589 C 489.94587,263.91785 487.48324,266.38047 484.42428,266.38047 L 454.53028,266.38047 C 451.47132,266.38047 449.00869,263.91785 449.00869,260.8589 L 449.00869,218.68225 L 434.34675,218.68225 L 434.34675,259.90939 C 434.34675,269.83839 442.34014,277.83177 452.26913,277.83177 L 486.68543,277.83177 C 496.61442,277.83177 504.60781,269.83839 504.60781,259.90939 L 504.60781,218.68225 z M 519.3155,218.68225 L 588.11179,218.68225 L 588.11179,231.99503 L 562.50862,231.99503 C 562.50862,231.99503 563.09496,277.83177 562.50862,277.83177 C 561.92229,277.83177 546.28678,277.83177 546.28678,277.83177 L 546.28678,231.99503 L 519.3155,231.99503 L 519.3155,218.68225 z M 606.09264,218.68225 L 665.50761,218.68225 L 665.50761,232.19048 L 620.36005,232.19048 L 620.36005,243.72167 L 665.50761,243.72167 L 665.50761,254.86198 L 620.36005,254.86198 L 620.36005,266.58862 L 665.50761,266.58862 L 665.50761,277.83177 L 606.09264,277.83177 L 606.09264,218.68225 z M 346.56666,218.67145 L 396.59499,218.67145 C 406.39501,218.67145 414.28456,226.56101 414.28456,236.36102 L 414.28456,238.84862 C 414.28456,248.64864 406.39501,256.53819 396.59499,256.53819 L 361.07764,256.53819 L 361.07764,277.82787 L 346.56666,277.82787 L 346.56666,218.67145 z M 361.07764,230.27038 L 395.26223,230.27038 C 398.37523,230.27038 400.88136,232.77652 400.88136,235.88951 L 400.88136,240.07631 C 400.88136,243.18931 398.37523,245.69544 395.26223,245.69544 L 361.07764,245.69544 L 361.07764,230.27038 z M 690.49754,218.67145 L 690.49754,277.82787 L 705.00852,277.82787 L 705.00852,256.5451 L 730.33018,256.5451 L 748.27539,277.82787 L 765.34997,277.82787 L 747.84009,257.14973 C 747.0966,256.27171 747.48265,255.31069 750.5488,253.44943 C 755.34575,250.53751 758.21542,244.91613 758.21544,238.84171 L 758.21544,236.35066 C 758.21544,226.55064 750.33625,218.67145 740.53623,218.67145 L 690.49754,218.67145 z M 705.00852,230.28024 L 739.20606,230.28024 C 742.31908,230.28024 744.81697,232.77815 744.81697,235.89115 L 744.81697,240.07515 C 744.81699,243.18815 742.31906,245.68606 739.20606,245.68606 L 705.00852,245.68606 L 705.00852,230.28024 z" id="path3399" stroke="black" style="fill:#000000;fill-opacity:1;fill-rule:evenodd;;stroke-width:1;stroke-linecap:square;stroke-linejoin:round;stroke-miterlimit:4;stroke-dashoffset:0;stroke-opacity:1"/>
	

</svg>