<?xml version="1.0" encoding="iso-8859-1"?><!DOCTYPE svg  PUBLIC '-//W3C//DTD SVG 1.0//EN'  'http://www.w3.org/TR/2001/REC-SVG-20010904/DTD/svg10.dtd'><!-- Created with Inkscape (http://www.inkscape.org/) --><svg height="300" id="svg2" version="1.0" width="800" xmlns="http://www.w3.org/2000/svg" xmlns:svg="http://www.w3.org/2000/svg">
	
  
	<defs id="defs4"/>
	
  
	
	
  
	
	
  
	<path animation_id="0" d="M 35.206012,78.132641 L 35.206012,147.93044 L 60.068153,147.93044 L 60.068153,105.48583 L 95.450753,147.93044 L 130.56732,147.93044 L 130.56732,78.132641 L 105.8261,78.132641 L 105.8261,120.43214 L 69.742137,78.132641 L 35.206012,78.132641 z M 159.17813,78.132641 L 159.17813,147.93044 L 185.70903,147.93044 L 185.70903,78.132641 L 159.17813,78.132641 z M 205.17792,78.132641 L 237.24718,113.03154 L 203.1222,147.93044 L 235.04635,147.93044 L 256.5226,124.30173 L 278.02303,147.93044 L 309.65696,147.93044 L 277.32166,113.03154 L 309.12489,78.132641 L 278.02303,78.132641 L 256.5226,100.2377 L 235.04635,78.132641 L 205.17792,78.132641 z M 323.75679,78.132641 L 323.75679,147.93044 L 395.75542,147.93044 C 408.38827,147.93044 418.56183,138.43404 418.56184,125.8012 L 418.56184,101.2051 C 418.56184,88.572258 408.38826,78.132641 395.75542,78.132641 L 323.75679,78.132641 z M 466.81084,78.132641 C 454.17798,78.132641 444.00442,88.572258 444.00442,101.2051 L 444.00442,125.8012 C 444.00441,138.43404 454.17799,148.60762 466.81084,148.60762 L 516.82534,148.60762 C 529.45818,148.60762 539.63176,138.43404 539.63175,125.8012 L 539.63175,101.2051 C 539.63175,88.572258 529.45819,78.132641 516.82534,78.132641 L 466.81084,78.132641 z M 568.17001,78.132641 L 568.17001,148.60762 L 593.39492,148.60762 L 593.39492,130.37216 L 618.18451,130.37216 L 634.82376,148.60762 L 662.80576,148.60762 L 643.67546,126.69605 C 642.62983,125.49985 642.56856,124.931 643.14339,124.59195 C 666.22211,110.97976 659.07324,78.132641 631.89738,78.132641 L 568.17001,78.132641 z M 685.82985,78.132641 L 685.82985,148.60762 L 711.05476,148.60762 L 711.05476,126.26072 L 756.59504,126.26072 L 756.59504,110.83071 L 711.05476,110.83071 L 711.05476,96.755058 L 756.59504,96.755058 L 756.59504,78.132641 L 685.82985,78.132641 z M 348.81241,95.497448 L 387.43579,95.497448 C 391.08665,95.497448 394.03829,98.424888 394.03829,102.07576 L 394.03829,124.93054 C 394.03828,128.58141 391.08665,131.53304 387.43579,131.53304 L 348.81241,131.53304 L 348.81241,95.497448 z M 474.16306,95.497448 L 508.50571,95.497448 C 512.15656,95.497448 515.08402,98.424888 515.08402,102.07576 L 515.08402,124.93054 C 515.08403,128.58141 512.15656,131.53304 508.50571,131.53304 L 474.16306,131.53304 C 470.51221,131.53304 467.58475,128.58141 467.58475,124.93054 L 467.58475,102.07576 C 467.58475,98.424888 470.51222,95.497448 474.16306,95.497448 z M 593.39492,96.368098 L 625.89951,96.368098 C 629.55037,96.368098 632.47782,99.295548 632.47782,102.94641 L 632.47782,107.6383 C 632.47785,111.28916 629.55037,114.24079 625.89951,114.24079 L 593.39492,114.24079 L 593.39492,96.368098 z" id="path2413" stroke="black" style="fill:#000000;fill-rule:evenodd;;stroke-width:1px;stroke-linecap:butt;stroke-linejoin:miter;stroke-opacity:1"/>
	
  
	
	

</svg>