<?xml version="1.0" encoding="iso-8859-1"?><!-- Created with Inkscape (http://www.inkscape.org/) --><svg height="519.72424" id="svg2" inkscape:version="0.48.0 r9654" sodipodi:docname="Lloyd Automarke Logo.svg" version="1.1" width="599.54279" xmlns="http://www.w3.org/2000/svg" xmlns:cc="http://creativecommons.org/ns#" xmlns:dc="http://purl.org/dc/elements/1.1/" xmlns:inkscape="http://www.inkscape.org/namespaces/inkscape" xmlns:rdf="http://www.w3.org/1999/02/22-rdf-syntax-ns#" xmlns:sodipodi="http://sodipodi.sourceforge.net/DTD/sodipodi-0.dtd" xmlns:svg="http://www.w3.org/2000/svg" xmlns:xlink="http://www.w3.org/1999/xlink">
	
  
	<defs id="defs4">
		
    
		<linearGradient id="linearGradient3921">
			
      
			<stop id="stop3923" offset="0" style="stop-color:#b4b4b4;stop-opacity:1;"/>
			
      
			<stop id="stop3935" offset="0.24719921" style="stop-color:#dbdbdb;stop-opacity:1;"/>
			
      
			<stop id="stop3933" offset="0.32051244" style="stop-color:#b4b4b4;stop-opacity:1;"/>
			
      
			<stop id="stop3931" offset="0.49536699" style="stop-color:#d9d9d9;stop-opacity:1;"/>
			
      
			<stop id="stop3929" offset="0.63659227" style="stop-color:#b4b4b4;stop-opacity:1;"/>
			
      
			<stop id="stop3925" offset="1" style="stop-color:#e6e6e6;stop-opacity:1;"/>
			
    
		</linearGradient>
		
    
		<filter color-interpolation-filters="sRGB" id="filter3917" inkscape:collect="always">
			
      
			<feGaussianBlur id="feGaussianBlur3919" inkscape:collect="always" stdDeviation="1.9671095"/>
			
    
		</filter>
		
    
		<linearGradient gradientUnits="userSpaceOnUse" id="linearGradient3927" inkscape:collect="always" x1="694.34363" x2="1033.0946" xlink:href="#linearGradient3921" y1="445.32013" y2="708.80511"/>
		
    
		<linearGradient gradientUnits="userSpaceOnUse" id="linearGradient3950" inkscape:collect="always" x1="694.34363" x2="1033.0946" xlink:href="#linearGradient3921" y1="445.32013" y2="708.80511"/>
		
  
	</defs>
	
  
	<sodipodi:namedview bordercolor="#666666" borderopacity="1.0" fit-margin-bottom="5" fit-margin-left="5" fit-margin-right="5" fit-margin-top="5" id="base" inkscape:current-layer="layer1" inkscape:cx="299.77139" inkscape:cy="259.86212" inkscape:document-units="px" inkscape:guide-bbox="true" inkscape:object-nodes="true" inkscape:object-paths="true" inkscape:pageopacity="0.0" inkscape:pageshadow="2" inkscape:snap-center="true" inkscape:snap-global="false" inkscape:snap-intersection-paths="true" inkscape:snap-midpoints="true" inkscape:snap-object-midpoints="true" inkscape:snap-smooth-nodes="true" inkscape:window-height="749" inkscape:window-maximized="1" inkscape:window-width="1024" inkscape:window-x="-4" inkscape:window-y="-4" inkscape:zoom="0.71972684" pagecolor="#ffffff" showgrid="false" showguides="true"/>
	
  
	<metadata id="metadata7">
		
    
		<rdf:RDF>
			
      
			<cc:Work rdf:about="">
				
        
				<dc:format>image/svg+xml</dc:format>
				
        
				<dc:type rdf:resource="http://purl.org/dc/dcmitype/StillImage"/>
				
        
				<dc:title/>
				
      
			</cc:Work>
			
    
		</rdf:RDF>
		
  
	</metadata>
	
  
	<g id="layer1" inkscape:groupmode="layer" inkscape:label="Ebene 1" transform="translate(-70.346907,-197.34762)">
		
    
		
		
    
		
		
    
		<g id="g3937" transform="matrix(1.3111878,0,0,1.3111878,-683.74888,-181.01091)">
			
      
			
			
      
			<g id="g3131" style="fill:#000000;filter:url(#filter3917)" transform="translate(2.5933224,0)">
				
        
				
				
        
				
				
        
				<g id="g3137" style="fill:#000000" transform="translate(-40.338422,0.50744)">
					
          
					<path animation_id="5" d="m 895.84375,571.25 0.0625,78.5625 c 0,0 10.90605,-0.13678 17.25,0 24.9362,0.53763 39.02687,-20.21553 38.6875,-39.28125 C 951.50438,591.46554 938.25394,571.25 907.40625,571.25 z m 14.71875,16.5625 c 12.71823,0.0738 25.22624,9.37759 25.22624,22.71875 0,13.34117 -9.98203,25.42633 -25.31999,25.09375 0.17948,-14.49905 0.117,-31.5485 0.125,-46.71875 -0.0117,-0.36382 -0.0195,-0.72988 -0.0312,-1.09375 z m -77.17876,61.9982 17.99521,0 41.61391,-78.57551 -18.55756,0 -13.95506,26.47666 -14.16244,-26.47666 -20.24461,0 25.14949,44.03528 z m -41.29532,-78.62586 c -21.84994,0 -39.5625,17.71256 -39.5625,39.5625 0,21.84994 17.71256,39.5625 39.5625,39.5625 21.84994,0 39.5625,-17.71256 39.5625,-39.5625 0,-21.84994 -17.71256,-39.5625 -39.5625,-39.5625 z m 0,14.40625 c 13.88448,0 25.15625,11.27177 25.15625,25.15625 0,13.88448 -11.27177,25.125 -25.15625,25.125 -13.88448,0 -25.125,-11.24052 -25.125,-25.125 0,-13.88448 11.24052,-25.15625 25.125,-25.15625 z M 722.03656,571.25 l 0,63.78125 0,14.78125 14.78125,0 19.125,0 0,-14.78125 -19.125,0 0,-63.78125 -14.78125,0 z m -46.01064,0 0,63.78125 0,14.78125 14.78125,0 19.125,0 0,-14.78125 -19.125,0 0,-63.78125 -14.78125,0 z" id="path3139" inkscape:connector-curvature="0" stroke="black" style="fill:#000000;fill-opacity:1;" transform="translate(39.34375,-0.50744)"/>
					
        
				</g>
				
      
			</g>
			
      
			<g id="g3125">
				
        
				
				
        
				
				
        
				<g id="g3083" transform="translate(-40.338422,0.50744)">
					
          
					
					
        
				</g>
				
      
			</g>
			
    
		</g>
		
  
	</g>
	

</svg>