<?xml version="1.0" encoding="iso-8859-1"?><!-- Created with Inkscape (http://www.inkscape.org/) --><svg height="411.73227" id="svg2" version="1.0" width="956.69287" xmlns="http://www.w3.org/2000/svg" xmlns:svg="http://www.w3.org/2000/svg">
	
  
	<defs id="defs4"/>
	
  
	<g id="layer1" transform="translate(-76.689603,22.325873)">
		
    
		<g id="g2602" transform="matrix(7.9565017,0,0,7.9565017,-498.05828,-2179.9541)">
			
      
			
			
      
			
			
      
			
			
      
			<path animation_id="3" d="M 152.00502,279.8258 L 149.16176,279.8258 C 149.61061,280.62368 149.95963,281.77097 149.86019,283.01809 C 149.51078,287.40719 147.31642,289.15308 144.47354,291.09825 L 141.82994,292.84414 L 148.01485,296.43498 C 150.10938,297.6821 151.80536,299.62727 151.80536,301.87193 C 151.80536,306.31095 145.91994,309.50324 140.18388,309.50324 C 135.64503,309.50324 131.25593,307.25857 131.25593,302.86947 C 131.25593,298.8793 135.59512,297.0835 138.83732,295.48735 L 137.29109,294.53973 L 137.44045,292.49473 L 140.08405,290.84867 C 137.88969,289.90105 135.09635,287.40719 135.29562,283.41703 C 135.49528,279.2272 138.68757,275.63597 143.02676,275.63597 C 144.37371,275.63597 145.22151,275.98499 146.06969,276.48377 L 152.25421,276.48377 L 152.00502,279.8258 z M 144.97231,299.27824 L 141.78003,297.23325 C 139.83447,298.23079 135.64503,300.42515 135.64503,302.76964 C 135.64503,305.11413 137.93961,306.1612 140.13397,306.1612 C 143.72519,306.21112 147.16706,304.51553 147.16706,302.17104 C 147.16706,300.97383 146.16952,300.07612 144.97231,299.27824 z M 142.92732,278.77834 C 140.88193,278.77834 139.68511,280.87326 139.58528,283.31719 C 139.48545,285.7116 140.38316,287.85605 142.22888,287.85605 C 144.27388,287.85605 145.37125,285.51194 145.47109,282.81842 C 145.57092,280.52385 144.67282,278.77834 142.92732,278.77834" id="path2428" stroke="black" style="fill:#676a6a;fill-opacity:1;fill-rule:nonzero;"/>
			
      
			
			
      
			
			
    
		</g>
		
  
	</g>
	

</svg>