<?xml version="1.0" encoding="iso-8859-1"?><!-- Created with Inkscape (http://www.inkscape.org/) --><svg height="411.73227" id="svg2" version="1.0" width="956.69287" xmlns="http://www.w3.org/2000/svg" xmlns:svg="http://www.w3.org/2000/svg">
	
  
	<defs id="defs4"/>
	
  
	<g id="layer1" transform="translate(-76.689603,22.325873)">
		
    
		<g id="g2602" transform="matrix(7.9565017,0,0,7.9565017,-498.05828,-2179.9541)">
			
      
			<path animation_id="0" d="M 84.769763,296.73439 C 78.933875,296.73439 76.6896,291.74668 76.6896,286.90834 C 76.6896,282.02046 80.330356,275.63589 86.465351,275.63589 C 91.403529,275.63589 94.346238,280.17513 94.346238,284.66406 C 94.346238,290.8985 90.405988,296.73439 84.769763,296.73439 z M 86.066412,279.07775 C 82.225994,279.07775 81.128621,284.4644 81.128621,287.60677 C 81.128621,290.00079 82.026331,293.14316 84.719847,293.14316 C 88.061495,293.14316 89.657638,288.65423 89.657638,285.41202 C 89.657638,282.4194 89.059423,279.07775 86.066412,279.07775" id="path2416" stroke="black" style="fill:#676a6a;fill-opacity:1;fill-rule:nonzero;"/>
			
      
			
			
      
			
			
      
			
			
      
			
			
      
			
			
    
		</g>
		
  
	</g>
	

</svg>