<?xml version="1.0" encoding="iso-8859-1"?><!-- Created with Inkscape (http://www.inkscape.org/) --><svg height="411.73227" id="svg2" version="1.0" width="956.69287" xmlns="http://www.w3.org/2000/svg" xmlns:svg="http://www.w3.org/2000/svg">
	
  
	<defs id="defs4"/>
	
  
	<g id="layer1" transform="translate(-76.689603,22.325873)">
		
    
		<g id="g2602" transform="matrix(7.9565017,0,0,7.9565017,-498.05828,-2179.9541)">
			
      
			
			
      
			
			
      
			<path animation_id="2" d="M 129.4102,296.13583 L 125.37012,296.13583 L 125.6197,293.64198 C 124.92126,294.68943 123.07554,296.43494 120.93071,296.43494 C 116.89102,296.43494 114.99538,293.24265 114.99538,288.35478 C 114.99538,282.21978 119.58415,275.63593 125.91881,275.63593 C 128.51249,275.63593 129.4102,276.08478 131.15609,276.7333 L 129.4102,296.13583 z M 125.76906,279.12732 C 121.92864,279.02788 119.38487,284.11542 119.38487,288.25494 C 119.38487,290.49961 119.83373,292.74427 121.62915,292.74427 C 123.47487,292.74427 125.17046,290.39977 125.81897,289.35232 L 126.7666,279.27707 C 126.56694,279.22716 126.11808,279.17724 125.76906,279.12732" id="path2424" stroke="black" style="fill:#676a6a;fill-opacity:1;fill-rule:nonzero;"/>
			
      
			
			
      
			
			
      
			
			
    
		</g>
		
  
	</g>
	

</svg>