<?xml version="1.0" encoding="iso-8859-1"?><!-- Created with Inkscape (http://www.inkscape.org/) --><svg height="150" id="svg4297" version="1.1" width="1024" xmlns="http://www.w3.org/2000/svg" xmlns:cc="http://creativecommons.org/ns#" xmlns:dc="http://purl.org/dc/elements/1.1/" xmlns:rdf="http://www.w3.org/1999/02/22-rdf-syntax-ns#" xmlns:svg="http://www.w3.org/2000/svg">
	
  
	<defs id="defs4299"/>
	
  
	<metadata id="metadata4302">
		
    
		<rdf:RDF>
			
      
			<cc:Work rdf:about="">
				
        
				<dc:format>image/svg+xml</dc:format>
				
        
				<dc:type rdf:resource="http://purl.org/dc/dcmitype/StillImage"/>
				
        
				<dc:title/>
				
      
			</cc:Work>
			
    
		</rdf:RDF>
		
  
	</metadata>
	
  
	<g id="layer1" transform="translate(0,-618)">
		
    
		<g id="g4266" transform="matrix(13.9755,0,0,-13.9755,-1469.4395,6849.6627)">
			
      
			
			
      
			
			
      
			
			
      
			
			
      
			<path animation_id="4" d="m 149.925,439.214 2.019,0 c 0.027,-0.449 0.169,-0.764 0.428,-0.944 0.258,-0.181 0.604,-0.268 1.037,-0.261 0.318,-0.003 0.6,0.057 0.847,0.18 0.247,0.124 0.377,0.328 0.391,0.612 -0.007,0.224 -0.116,0.399 -0.329,0.527 -0.212,0.128 -0.486,0.235 -0.822,0.321 -0.337,0.087 -0.695,0.181 -1.074,0.281 -0.377,0.101 -0.737,0.235 -1.08,0.404 -0.344,0.168 -0.626,0.399 -0.847,0.69 -0.22,0.292 -0.334,0.673 -0.342,1.142 0.012,0.562 0.177,1.016 0.496,1.363 0.318,0.347 0.718,0.599 1.198,0.758 0.479,0.158 0.968,0.237 1.465,0.234 0.523,0.002 1.019,-0.084 1.487,-0.259 0.469,-0.174 0.852,-0.445 1.15,-0.813 0.298,-0.369 0.454,-0.843 0.467,-1.424 l -2.019,0 c 0.007,0.233 -0.051,0.419 -0.171,0.555 -0.121,0.137 -0.278,0.235 -0.471,0.293 -0.193,0.058 -0.395,0.087 -0.606,0.085 -0.231,0.005 -0.448,-0.042 -0.651,-0.139 -0.204,-0.098 -0.312,-0.272 -0.326,-0.523 0.007,-0.194 0.117,-0.348 0.332,-0.46 0.214,-0.112 0.491,-0.208 0.831,-0.288 0.339,-0.081 0.701,-0.171 1.084,-0.272 0.38,-0.101 0.739,-0.237 1.079,-0.408 0.34,-0.172 0.618,-0.404 0.834,-0.696 0.215,-0.292 0.327,-0.669 0.334,-1.132 -0.01,-0.65 -0.176,-1.166 -0.497,-1.545 -0.321,-0.38 -0.736,-0.651 -1.246,-0.813 -0.511,-0.162 -1.055,-0.24 -1.633,-0.236 -0.602,-0.003 -1.155,0.09 -1.661,0.276 -0.506,0.187 -0.913,0.484 -1.222,0.891 -0.309,0.408 -0.47,0.941 -0.482,1.601" id="path3175" stroke="black" style="fill:#231f20;fill-opacity:1;fill-rule:nonzero;"/>
			
      
			
			
      
			
			
      
			
			
      
			
			
    
		</g>
		
  
	</g>
	

</svg>