<?xml version="1.0" encoding="iso-8859-1"?><!-- Created with Inkscape (http://www.inkscape.org/) --><svg height="150" id="svg4297" version="1.1" width="1024" xmlns="http://www.w3.org/2000/svg" xmlns:cc="http://creativecommons.org/ns#" xmlns:dc="http://purl.org/dc/elements/1.1/" xmlns:rdf="http://www.w3.org/1999/02/22-rdf-syntax-ns#" xmlns:svg="http://www.w3.org/2000/svg">
	
  
	<defs id="defs4299"/>
	
  
	<metadata id="metadata4302">
		
    
		<rdf:RDF>
			
      
			<cc:Work rdf:about="">
				
        
				<dc:format>image/svg+xml</dc:format>
				
        
				<dc:type rdf:resource="http://purl.org/dc/dcmitype/StillImage"/>
				
        
				<dc:title/>
				
      
			</cc:Work>
			
    
		</rdf:RDF>
		
  
	</metadata>
	
  
	<g id="layer1" transform="translate(0,-618)">
		
    
		<g id="g4266" transform="matrix(13.9755,0,0,-13.9755,-1469.4395,6849.6627)">
			
      
			
			
      
			
			
      
			
			
      
			
			
      
			
			
      
			
			
      
			
			
      
			<path animation_id="7" d="m 171.036,436.608 0,7.75 3.95,0 c 0.465,0.002 0.902,-0.071 1.312,-0.218 0.41,-0.148 0.744,-0.382 1.002,-0.703 0.259,-0.322 0.392,-0.742 0.4,-1.261 0,-0.427 -0.101,-0.815 -0.303,-1.166 -0.202,-0.351 -0.506,-0.61 -0.913,-0.776 l 0,-0.022 c 0.273,-0.071 0.488,-0.205 0.645,-0.404 0.158,-0.199 0.273,-0.427 0.346,-0.686 0.073,-0.259 0.119,-0.514 0.138,-0.766 0.006,-0.119 0.017,-0.297 0.034,-0.535 0.017,-0.238 0.047,-0.473 0.092,-0.706 0.044,-0.233 0.111,-0.402 0.2,-0.507 l -1.997,0 c -0.058,0.094 -0.101,0.223 -0.132,0.389 -0.03,0.165 -0.053,0.329 -0.066,0.489 -0.014,0.161 -0.024,0.281 -0.03,0.36 -0.014,0.265 -0.049,0.518 -0.107,0.758 -0.058,0.24 -0.165,0.436 -0.322,0.589 -0.156,0.153 -0.39,0.232 -0.7,0.237 l -1.531,0 0,-2.822 -2.018,0 z m 2.018,6.133 0,-1.748 1.694,0 c 0.615,0.011 0.926,0.315 0.933,0.912 -0.007,0.287 -0.107,0.498 -0.299,0.634 -0.191,0.135 -0.432,0.203 -0.721,0.202 l -1.607,0" id="path3181" stroke="black" style="fill:#231f20;fill-opacity:1;fill-rule:evenodd;"/>
			
      
			
			
    
		</g>
		
  
	</g>
	

</svg>