<?xml version="1.0" encoding="iso-8859-1"?><!-- Created with Inkscape (http://www.inkscape.org/) --><!-- http://investors.orbotech.com/phoenix.zhtml?c=71865&p=irol-reportsannual --><svg height="61.209" version="1.0" width="300" xmlns="http://www.w3.org/2000/svg" xmlns:svg="http://www.w3.org/2000/svg">
	
  
	<path animation_id="0" d="M 63.733,-5.68434e-14 C 53.339,-5.68434e-14 43.392,5.202 36.649,13.12 L 10.6,15.06 C 9.698,15.128 8.985,15.202 8.985,15.835 C 8.985,16.464 9.694,16.536 10.6,16.611 L 45.181,19.391 C 46.927,19.529 48.789,18.311 49.382,16.675 L 49.771,15.577 C 59.048,15.575 69.538,15.573 71.359,15.577 C 74.722,15.591 76.494,19.083 75.884,21.718 C 75.274,24.363 71.512,36.459 70.455,39.427 C 68.755,44.133 65.888,44.863 61.664,45.051 C 60.338,45.113 49.182,45.134 40.592,45.115 L 40.85,44.34 C 41.165,43.479 41.117,42.685 40.656,42.077 C 40.203,41.491 39.421,41.173 38.523,41.237 L 1.617,44.081 C 0.707,44.145 0,44.168 0,44.792 C 0,45.421 0.707,45.487 1.617,45.568 L 31.22,47.959 C 35.512,55.941 43.928,61.209 54.361,61.209 C 71.251,61.211 87.058,47.454 89.651,30.572 C 92.218,13.674 80.617,-5.68434e-14 63.733,-5.68434e-14 z M 214.982,12.41 L 213.689,21.846 L 210.974,21.846 L 209.939,28.763 L 212.525,28.763 L 209.875,45.051 L 218.279,45.051 L 220.734,28.763 L 225.324,28.763 L 226.422,21.846 L 221.638,21.846 L 222.933,12.41 L 214.982,12.41 z M 154.933,12.474 L 149.698,45.179 L 158.036,45.179 L 158.878,41.82 L 158.942,41.82 C 159.736,44.11 160.898,46.149 164.888,46.149 C 172.725,46.149 177.47,40.914 178.719,33.869 C 179.994,26.682 175.675,21.265 169.542,21.265 C 166.688,21.265 163.864,21.869 161.591,24.045 L 163.596,12.733 L 154.933,12.474 z M 278.196,12.538 L 272.313,45.051 L 280.847,45.051 L 282.98,33.286 C 283.499,30.32 285.191,28.051 288.02,28.051 C 290.631,28.051 291.398,30.537 290.995,32.835 L 288.796,45.051 L 297.523,45.051 L 299.719,31.478 C 300.851,25.128 298.586,21.523 292.48,21.523 C 289.396,21.523 286.407,22.479 284.142,24.82 L 286.469,12.538 L 278.196,12.538 z M 116.604,21.201 C 108.951,21.726 103.1,26.21 101.673,33.869 C 100.161,41.901 105.584,46.021 113.566,46.021 C 121.556,46.021 128.439,41.961 130.049,33.352 C 131.428,26.043 126.944,21.201 118.156,21.201 C 117.63,21.201 117.115,21.165 116.604,21.201 z M 194.944,21.201 C 187.293,21.726 181.446,26.212 180.014,33.869 C 178.517,41.901 183.917,46.021 191.907,46.021 C 199.883,46.021 206.847,41.961 208.454,33.352 C 209.82,26.045 205.267,21.201 196.495,21.201 C 195.97,21.201 195.455,21.165 194.944,21.201 z M 240.448,21.329 C 233.02,21.329 226.462,26.21 225.13,33.803 C 223.754,41.582 228.708,45.601 236.117,45.827 C 243.116,46.048 247.733,43.938 250.339,38.201 L 242.388,38.201 C 241.495,39.566 238.998,40.592 237.54,40.592 C 235.12,40.592 233.047,37.907 233.531,35.162 L 251.048,35.162 C 252.651,26.765 249.013,21.329 240.448,21.329 z M 151.121,21.459 C 147.537,21.459 143.009,23.004 141.102,26.63 L 140.972,26.63 L 141.814,21.976 L 133.476,21.976 L 129.662,45.115 L 138.13,45.115 L 139.487,37.295 C 140.264,33.094 140.548,29.021 147.243,29.021 C 147.874,29.021 149.291,29.458 149.893,29.538 C 149.893,29.538 151.512,21.459 151.121,21.459 z M 268.177,21.459 C 260.528,21.459 254.192,26.028 252.794,33.934 C 251.419,41.758 256.376,45.957 263.847,45.957 C 266.038,45.955 268.205,45.665 270.181,44.987 L 270.828,38.457 C 269.192,39.34 266.586,39.752 264.946,39.752 C 262.244,39.752 261.037,37.673 261.649,34.192 C 262.145,31.447 263.496,28.568 266.95,28.568 C 267.968,28.568 271.308,28.283 272.249,29.991 L 273.155,22.171 C 271.637,21.699 269.935,21.459 268.177,21.459 z M 44.47,21.91 L 7.628,24.756 C 6.718,24.822 6.013,24.831 6.011,25.466 C 6.011,26.096 6.712,26.154 7.628,26.241 L 42.143,29.021 C 43.884,29.166 45.806,27.937 46.41,26.307 L 46.861,25.013 C 47.175,24.144 47.066,23.354 46.604,22.752 C 46.153,22.162 45.372,21.844 44.47,21.91 z M 239.931,26.63 C 242.103,26.63 244.44,28.521 244.068,30.637 L 234.954,30.637 C 235.397,28.159 237.196,26.63 239.931,26.63 z M 117.057,28.376 C 121.045,28.376 121.583,31.257 121,33.739 C 120.396,36.258 118.513,39.169 114.472,39.169 C 110.443,39.169 110.008,36.021 110.594,33.547 C 111.158,31.152 113.318,28.376 117.057,28.376 z M 166.181,28.376 C 170.152,28.376 170.767,31.257 170.19,33.739 C 169.588,36.258 167.72,39.169 163.66,39.169 C 159.637,39.169 159.194,36.021 159.781,33.547 C 160.356,31.147 162.433,28.376 166.181,28.376 z M 195.397,28.376 C 199.376,28.376 199.984,31.261 199.403,33.739 C 198.805,36.258 196.921,39.169 192.875,39.169 C 188.842,39.169 188.408,36.016 188.997,33.547 C 189.56,31.147 191.647,28.376 195.397,28.376 z M 41.498,31.607 L 4.59,34.387 C 3.673,34.457 2.974,34.523 2.974,35.162 C 2.974,35.795 3.669,35.853 4.59,35.938 L 39.171,38.718 C 40.906,38.848 42.765,37.576 43.372,35.938 L 43.824,34.709 C 44.141,33.851 44.085,33.046 43.63,32.446 C 43.194,31.859 42.41,31.532 41.498,31.607 z" stroke="black" style="fill:#264ca3;fill-opacity:1;fill-rule:nonzero;"/>
	

</svg>