<?xml version="1.0" encoding="iso-8859-1"?><!DOCTYPE svg  PUBLIC '-//W3C//DTD SVG 1.1//EN'  'http://www.w3.org/Graphics/SVG/1.1/DTD/svg11.dtd'><!-- Creator: CorelDRAW --><svg clip-rule="evenodd" fill-rule="evenodd" height="1425px" image-rendering="optimizeQuality" shape-rendering="geometricPrecision" text-rendering="geometricPrecision" viewBox="0 0 3411.03 1501.78" width="3236px" xml:space="preserve" xmlns="http://www.w3.org/2000/svg" xmlns:xlink="http://www.w3.org/1999/xlink">
	
 
	<g id="Ebene_x0020_1">
		
  
		<metadata id="CorelCorpID_0Corel-Layer"/>
		
  
		<path animation_id="0" d="M88.5511 1025.62c0,106.79 42.187,209.636 114.699,284.781 72.5274,73.8397 175.373,117.353 279.532,117.353 106.791,0 204.372,-40.8598 279.511,-117.353 73.8596,-75.1445 114.721,-175.352 114.721,-284.781 0,-108.117 -39.555,-205.7 -114.721,-282.17 -42.802,-43.5752 -94.4576,-76.4991 -150.872,-96.4882 6.31734,-15.7099 9.78354,-32.8691 9.78354,-50.835 0.00622521,-5.14825 -0.280134,-10.2342 -0.841648,-15.2393 73.8608,21.6102 141.048,60.9597 197.318,116.41 90.9851,89.6716 138.442,203.06 138.442,328.322 0,94.922 -27.6872,184.595 -80.416,261.067 -89.6716,130.525 -232.073,205.671 -392.925,205.671 -126.588,0 -247.887,-48.7633 -334.899,-135.797 -89.6729,-89.653 -138.464,-207.012 -138.464,-333.58 0,-121.311 50.1167,-238.65 138.464,-325.683 57.9106,-56.236 126.506,-95.9068 201.364,-117.312 -0.622521,5.29143 -0.943742,10.6775 -0.943742,16.1407 0,17.5352 3.30185,34.2909 9.33159,49.6933 -56.871,19.6605 -109.498,52.7425 -154.385,97.6299 -73.8384,73.8384 -114.699,174.053 -114.699,282.17z" fill="#002E4F" stroke="black"/>
		
  
		
		
  
		
		
  
		
		
  
		
		
  
		
		
  
		
		
  
		
		
  
		
		
  
		
		
  
		
		
  
		
		
  
		
		
 
	</g>
	

</svg>