<?xml version="1.0" encoding="iso-8859-1"?><!-- Created with Inkscape (http://www.inkscape.org/) --><svg height="36.700001" id="svg9879" inkscape:version="0.48.1 " sodipodi:docname="Neues Dokument 3" version="1.1" width="196.7" xmlns="http://www.w3.org/2000/svg" xmlns:cc="http://creativecommons.org/ns#" xmlns:dc="http://purl.org/dc/elements/1.1/" xmlns:inkscape="http://www.inkscape.org/namespaces/inkscape" xmlns:rdf="http://www.w3.org/1999/02/22-rdf-syntax-ns#" xmlns:sodipodi="http://sodipodi.sourceforge.net/DTD/sodipodi-0.dtd" xmlns:svg="http://www.w3.org/2000/svg">
	
  
	<defs id="defs9881">
		
    
		<clipPath clipPathUnits="userSpaceOnUse" id="clipPath3970">
			
      
			
			
    
		</clipPath>
		
  
	</defs>
	
  
	<sodipodi:namedview bordercolor="#666666" borderopacity="1.0" fit-margin-bottom="0" fit-margin-left="0" fit-margin-right="0" fit-margin-top="0" id="base" inkscape:current-layer="layer1" inkscape:cx="98.350003" inkscape:cy="18.349996" inkscape:document-units="px" inkscape:pageopacity="0.0" inkscape:pageshadow="2" inkscape:window-height="990" inkscape:window-maximized="1" inkscape:window-width="1680" inkscape:window-x="-4" inkscape:window-y="-4" inkscape:zoom="8.0855628" pagecolor="#ffffff" showgrid="false"/>
	
  
	<metadata id="metadata9884">
		
    
		<rdf:RDF>
			
      
			<cc:Work rdf:about="">
				
        
				<dc:format>image/svg+xml</dc:format>
				
        
				<dc:type rdf:resource="http://purl.org/dc/dcmitype/StillImage"/>
				
        
				<dc:title/>
				
      
			</cc:Work>
			
    
		</rdf:RDF>
		
  
	</metadata>
	
  
	<g id="layer1" inkscape:groupmode="layer" inkscape:label="Ebene 1" transform="translate(-42.691285,-474.86516)">
		
    
		<g id="g3962" transform="matrix(1.25,0,0,-1.25,175.27955,509.02654)">
			
      
			<path animation_id="1" d="m 0,0 8.044,0 4.438,16.287 3.947,-16.319 8.104,0 -7.593,25.266 -8.637,0 L 0,0 z m -42.034,0 8.044,0 4.438,16.287 3.948,-16.319 8.104,0 -7.595,25.266 -8.636,0 L -42.034,0 z m -44.524,0 8.044,0 4.438,16.287 3.947,-16.319 8.104,0 -7.593,25.266 -8.637,0 L -86.558,0 z" id="path3964" inkscape:connector-curvature="0" stroke="black" style="fill:#e2001a;fill-opacity:1;fill-rule:evenodd;"/>
			
    
		</g>
		
    
		<g id="g3966" transform="matrix(1.25,0,0,-1.25,-120.81769,569.37054)">
			
      
			<g clip-path="url(#clipPath3970)" id="g3968">
				
        
				<g id="g3974" transform="translate(282.0573,70.6423)">
					
          
					
					
        
				</g>
				
      
			</g>
			
    
		</g>
		
  
	</g>
	

</svg>