<?xml version="1.0" encoding="iso-8859-1"?><svg height="439.625" id="svg2" version="1.1" viewBox="0 0 357.875 439.625" width="357.875" xml:space="preserve" xmlns="http://www.w3.org/2000/svg" xmlns:cc="http://creativecommons.org/ns#" xmlns:dc="http://purl.org/dc/elements/1.1/" xmlns:rdf="http://www.w3.org/1999/02/22-rdf-syntax-ns#" xmlns:svg="http://www.w3.org/2000/svg">
	<metadata id="metadata8">
		<rdf:RDF>
			<cc:Work rdf:about="">
				<dc:format>image/svg+xml</dc:format>
				<dc:type rdf:resource="http://purl.org/dc/dcmitype/StillImage"/>
			</cc:Work>
		</rdf:RDF>
	</metadata>
	<defs id="defs6">
		<clipPath clipPathUnits="userSpaceOnUse" id="clipPath18">
			
		</clipPath>
	</defs>
	<g id="g10" transform="matrix(1.25,0,0,-1.25,0,439.625)">
		<g id="g12" transform="scale(0.1,0.1)">
			<g id="g14">
				<g clip-path="url(#clipPath18)" id="g16">
					
					
					<path animation_id="3" d="m 2496.35,260.84 0,-234.5119 c 0,-12.1093 -8.16,-17.51951 -17.79,-17.51951 l -43.03,0 c -9.61,0 -17.81,5.41021 -17.81,17.51951 l 0,214.2739 c 0,36.41 -12.25,45.199 -37.62,45.199 -25.25,0 -48.52,-12.832 -68.37,-30.352 l 0,-229.1209 c 0,-12.1093 -8.15,-17.51951 -17.74,-17.51951 l -43.11,0 c -9.53,0 -17.77,5.41021 -17.77,17.51951 l 0,297.8519 c 0,12.172 8.24,17.558 17.77,17.558 l 26.67,0 c 12.33,0 20.54,-6.738 22.55,-17.558 l 4.12,-20.219 c 28.05,27.641 60.9,46.508 103.93,46.508 55.43,0 88.2,-25.61 88.2,-89.629" id="path26" stroke="black" style="fill:#990d33;fill-opacity:1;fill-rule:nonzero;"/>
					
					
					
					
					
					
					
				</g>
			</g>
		</g>
	</g>
</svg>