<?xml version="1.0" encoding="iso-8859-1"?><svg height="439.625" id="svg2" version="1.1" viewBox="0 0 357.875 439.625" width="357.875" xml:space="preserve" xmlns="http://www.w3.org/2000/svg" xmlns:cc="http://creativecommons.org/ns#" xmlns:dc="http://purl.org/dc/elements/1.1/" xmlns:rdf="http://www.w3.org/1999/02/22-rdf-syntax-ns#" xmlns:svg="http://www.w3.org/2000/svg">
	<metadata id="metadata8">
		<rdf:RDF>
			<cc:Work rdf:about="">
				<dc:format>image/svg+xml</dc:format>
				<dc:type rdf:resource="http://purl.org/dc/dcmitype/StillImage"/>
			</cc:Work>
		</rdf:RDF>
	</metadata>
	<defs id="defs6">
		<clipPath clipPathUnits="userSpaceOnUse" id="clipPath18">
			
		</clipPath>
	</defs>
	<g id="g10" transform="matrix(1.25,0,0,-1.25,0,439.625)">
		<g id="g12" transform="scale(0.1,0.1)">
			<g id="g14">
				<g clip-path="url(#clipPath18)" id="g16">
					<path animation_id="1" d="M 18.4922,8.80859 C 8.91016,8.80859 0,16.9102 0,27.0117 L 0,56.8008 C 0,66.9297 8.91016,75 18.4922,75 l 36.5195,-0.7187 0,318.0777 -36.5195,0.723 C 8.21094,393.082 0,401.191 0,410.602 l 0,37.558 c 0,9.442 8.16797,17.52 18.4609,17.52 l 172.6171,0 c 110.133,0 179.781,-47.539 179.781,-147.301 0,-92.328 -49.296,-152.777 -164.265,-152.777 l -67.074,0 0,-90.602 61.222,0 c 10.219,0 18.418,-8.0703 18.418,-18.1992 l 0,-29.7891 c 0,-10.1015 -8.199,-18.20311 -18.418,-18.20311 l -182.2498,0 z M 283.082,316.051 c 0,58.75 -46.262,76.66 -94.762,76.66 l -48.8,0 0,-157.551 56.73,0 c 47.859,0 86.832,21.481 86.832,79.879" id="path22" stroke="black" style="fill:#990d33;fill-opacity:1;fill-rule:nonzero;"/>
					
					
					
					
					
					
					
					
					
				</g>
			</g>
		</g>
	</g>
</svg>