<?xml version="1.0" encoding="iso-8859-1"?><svg height="439.625" id="svg2" version="1.1" viewBox="0 0 357.875 439.625" width="357.875" xml:space="preserve" xmlns="http://www.w3.org/2000/svg" xmlns:cc="http://creativecommons.org/ns#" xmlns:dc="http://purl.org/dc/elements/1.1/" xmlns:rdf="http://www.w3.org/1999/02/22-rdf-syntax-ns#" xmlns:svg="http://www.w3.org/2000/svg">
	<metadata id="metadata8">
		<rdf:RDF>
			<cc:Work rdf:about="">
				<dc:format>image/svg+xml</dc:format>
				<dc:type rdf:resource="http://purl.org/dc/dcmitype/StillImage"/>
			</cc:Work>
		</rdf:RDF>
	</metadata>
	<defs id="defs6">
		<clipPath clipPathUnits="userSpaceOnUse" id="clipPath18">
			
		</clipPath>
	</defs>
	<g id="g10" transform="matrix(1.25,0,0,-1.25,0,439.625)">
		<g id="g12" transform="scale(0.1,0.1)">
			<g id="g14">
				<g clip-path="url(#clipPath18)" id="g16">
					
					
					
					<path animation_id="4" d="m 1706.32,350.469 c 49.97,0 82.75,-24.957 82.75,-88.297 l 0,-235.8439 c 0,-12.1093 -8.21,-17.51951 -17.78,-17.51951 l -43.04,0 c -9.57,0 -17.78,5.41021 -17.78,17.51951 l 0,214.9419 c 0,36.441 -9.61,44.531 -32.8,44.531 -20.52,0 -42.42,-12.172 -61.57,-28.36 l 0,-231.1129 c 0,-12.1093 -8.24,-17.51951 -17.81,-17.51951 l -43.04,0 c -9.58,0 -17.86,5.41021 -17.86,17.51951 l 0,214.9419 c 0,36.441 -9.49,44.531 -32.78,44.531 -21.2,0 -41.71,-13.5 -61.48,-30.352 l 0,-229.1209 c 0,-12.1093 -8.28,-17.51951 -17.78,-17.51951 l -43.11,0 c -9.61,0 -17.78,5.41021 -17.78,17.51951 l 0,297.8519 c 0,12.129 8.17,17.5 17.78,17.5 l 26.7,0 c 12.25,0 20.49,-6.719 22.51,-17.5 l 4.12,-19.532 c 28.69,26.954 58.15,45.821 97.74,45.821 34.87,0 60.86,-13.457 73.9,-44.469 30.1,26.949 60.85,44.469 99.11,44.469" id="path28" stroke="black" style="fill:#990d33;fill-opacity:1;fill-rule:nonzero;"/>
					
					
					
					
					
					
				</g>
			</g>
		</g>
	</g>
</svg>