<?xml version="1.0" encoding="iso-8859-1"?><svg data-name="Ebene 1" height="1040.5" id="Ebene_1" inkscape:export-filename="C:\Users\sbisk\Pictures\PCC_SE_Logo.png" inkscape:export-xdpi="96" inkscape:export-ydpi="96" inkscape:version="0.92.2 (5c3e80d, 2017-08-06)" sodipodi:docname="PCC_SE_Logo.svg" version="1.1" viewBox="0 0 2519.99 1040.5" width="2519.99" xmlns="http://www.w3.org/2000/svg" xmlns:cc="http://creativecommons.org/ns#" xmlns:dc="http://purl.org/dc/elements/1.1/" xmlns:inkscape="http://www.inkscape.org/namespaces/inkscape" xmlns:rdf="http://www.w3.org/1999/02/22-rdf-syntax-ns#" xmlns:sodipodi="http://sodipodi.sourceforge.net/DTD/sodipodi-0.dtd" xmlns:svg="http://www.w3.org/2000/svg">
	
  
	<metadata id="metadata29">
		
    
		<rdf:RDF>
			
      
			<cc:Work rdf:about="">
				
        
				<dc:format>image/svg+xml</dc:format>
				
        
				<dc:type rdf:resource="http://purl.org/dc/dcmitype/StillImage"/>
				
        
				<dc:title>PCC_SE_rgb_2000px</dc:title>
				
      
			</cc:Work>
			
    
		</rdf:RDF>
		
  
	</metadata>
	
  
	<sodipodi:namedview bordercolor="#666666" borderopacity="1" fit-margin-bottom="260" fit-margin-left="260" fit-margin-right="260" fit-margin-top="260" gridtolerance="10" guidetolerance="10" id="namedview27" inkscape:current-layer="Ebene_1" inkscape:cx="749.6586" inkscape:cy="520.245" inkscape:pagecheckerboard="false" inkscape:pageopacity="0" inkscape:pageshadow="2" inkscape:window-height="705" inkscape:window-maximized="1" inkscape:window-width="1366" inkscape:window-x="-8" inkscape:window-y="-8" inkscape:zoom="0.42815316" objecttolerance="10" pagecolor="#ffffff" showgrid="false">
		
    
		<inkscape:grid id="grid31" originx="259.99" originy="260.00001" type="xygrid"/>
		
  
	</sodipodi:namedview>
	
  
	<defs id="defs12">
		
    
		<style id="style10">.cls-1{fill:#f60;fill-rule:evenodd;}.cls-2{fill:#012a7b;}</style>
		
  
	</defs>
	
  
	<title id="title14">PCC_SE_rgb_2000px</title>
	
  
	
	
  
	
	
  
	
	
  
	<path animation_id="3" class="cls-2" d="m 2074.28,775.92 a 102.85,102.85 0 0 0 30.23,4.58 c 22.44,0 44.42,-7.33 44.42,-33.43 0,-36.64 -47.86,-25.65 -47.86,-42.13 0,-8.93 11.22,-9.39 18.09,-9.39 a 55,55 0 0 1 22.67,4.58 l 1.6,-20.84 a 85.9,85.9 0 0 0 -26.1,-3.89 c -20.38,0 -44.2,6.87 -44.2,31.14 0,36.87 48.09,25 48.09,44 0,8 -8.24,9.85 -16.72,9.85 a 60.54,60.54 0 0 1 -27.94,-6.64 l -2.29,22.21 z m 94.34,2.75 h 73 v -19.24 h -46 v -22.9 h 42.13 V 717.3 h -42.13 v -20.84 h 44.46 v -19.22 h -71.44 z" id="path22" inkscape:connector-curvature="0" stroke="black" style="fill:#012a7b"/>
	
  
	
	

</svg>