<?xml version="1.0" encoding="iso-8859-1"?><svg height="243.87097" id="_x31_00_x__x_164_mm" inkscape:version="1.0 (4035a4fb49, 2020-05-01)" sodipodi:docname="PD Logo 01.2021.svg" version="1.1" viewBox="0 0 400.00001 243.87097" width="400" x="0px" xml:space="preserve" xmlns="http://www.w3.org/2000/svg" xmlns:cc="http://creativecommons.org/ns#" xmlns:dc="http://purl.org/dc/elements/1.1/" xmlns:inkscape="http://www.inkscape.org/namespaces/inkscape" xmlns:rdf="http://www.w3.org/1999/02/22-rdf-syntax-ns#" xmlns:sodipodi="http://sodipodi.sourceforge.net/DTD/sodipodi-0.dtd" xmlns:svg="http://www.w3.org/2000/svg" y="0px">
	<metadata id="metadata15">
		<rdf:RDF>
			<cc:Work rdf:about="">
				<dc:format>image/svg+xml</dc:format>
				<dc:type rdf:resource="http://purl.org/dc/dcmitype/StillImage"/>
				<dc:title/>
			</cc:Work>
		</rdf:RDF>
	</metadata>
	<defs id="defs13"/>
	<sodipodi:namedview bordercolor="#666666" borderopacity="1" fit-margin-bottom="0" fit-margin-left="0" fit-margin-right="0" fit-margin-top="0" gridtolerance="10" guidetolerance="10" id="namedview11" inkscape:current-layer="_x31_00_x__x_164_mm" inkscape:cx="232.45" inkscape:cy="141.75" inkscape:pageopacity="0" inkscape:pageshadow="2" inkscape:window-height="837" inkscape:window-maximized="1" inkscape:window-width="1600" inkscape:window-x="-8" inkscape:window-y="-8" inkscape:zoom="1.9810712" objecttolerance="10" pagecolor="#ffffff" showgrid="false"/>
	

	<style id="style2" type="text/css">
	.st0{fill:#FFD100;}
	.st1{fill:#03878A;}
</style>
	

	<path animation_id="0" class="st0" d="M 280.25806,49.462366 247.31183,172.55914 V 49.11828 h 25.46236 c 1.80646,0 3.52689,0.08602 5.33334,0.172043 0.68817,0.08602 1.37634,0.08602 2.15053,0.172043 z M 117.16129,46.451613 c -1.2043,-0.08602 -2.4086,-0.08602 -3.6129,-0.08602 H 89.548387 v 75.268817 h 7.483871 0.172043 L 117.24731,46.451613 c 0,0 -0.086,0 -0.086,0 z M 34.150538,116.47312 0,243.87097 h 34.150538 z m 157.763442,22.10753 c -2.32258,2.4086 -4.81721,4.73118 -7.48387,6.88172 -0.086,0.086 -0.25807,0.17204 -0.34409,0.25806 l -26.32258,98.15054 h 34.15054 z" id="path4" stroke="black" style="stroke-width:0.860215"/>
	
	

</svg>