<?xml version="1.0" encoding="iso-8859-1"?><!-- Created with Inkscape (http://www.inkscape.org/) --><svg height="389.20743" id="svg2612" version="1.0" width="726.35028" xmlns="http://www.w3.org/2000/svg" xmlns:svg="http://www.w3.org/2000/svg">
	
  
	<defs id="defs2614"/>
	
  
	<g id="layer1" transform="translate(286.03229,-197.75846)">
		
    
		
		
    
		
		
    
		<path animation_id="2" d="M -96.507763,237.43525 C -54.269699,242.9665 -30.922973,267.07909 -29.999072,309.16519 C -29.999072,309.62714 -29.999072,309.93106 -29.999072,310.39301 L -29.999072,313.77254 C -30.461022,353.39694 -51.34604,377.97148 -96.507763,383.19273 L -96.507763,335.73342 C -84.83136,333.5817 -76.230575,327.59458 -76.382532,310.08302 C -76.382532,292.72949 -84.83136,287.97018 -96.507763,286.74237 L -96.507763,237.43525 z M -169.9214,236.20743 L -115.85497,236.20743 C -109.10199,236.35939 -102.64684,236.66938 -96.507763,237.43525 L -96.507763,286.74237 C -102.64684,286.12238 -109.55786,286.43238 -116.77887,286.43238 L -116.77887,336.80927 C -109.7159,336.80927 -102.64684,336.80927 -96.507763,335.73342 L -96.507763,383.19273 C -102.80488,383.96468 -109.55786,384.26859 -116.77887,384.26859 L -116.77887,463.36543 L -169.9214,463.36543 L -169.9214,236.20743" id="path67" stroke="black" style="fill:#ed1639;fill-opacity:1;fill-rule:nonzero;"/>
		
    
		
		
    
		
		
    
		
		
  
	</g>
	

</svg>