<?xml version="1.0" encoding="iso-8859-1"?><!-- Created with Inkscape (http://www.inkscape.org/) --><svg height="389.20743" id="svg2612" version="1.0" width="726.35028" xmlns="http://www.w3.org/2000/svg" xmlns:svg="http://www.w3.org/2000/svg">
	
  
	<defs id="defs2614"/>
	
  
	<g id="layer1" transform="translate(286.03229,-197.75846)">
		
    
		
		
    
		<path animation_id="1" d="M 398.1134,233.17436 C 400.34413,233.04064 402.05213,232.77928 403.10367,232.12282 C 404.28286,231.33872 404.9454,230.01973 404.9454,228.18409 C 404.9454,226.34236 404.28286,224.89573 402.96995,224.11163 C 401.91841,223.45517 400.21041,223.06008 398.1134,222.92636 L 398.1134,219.90545 C 401.79076,220.03917 404.54423,220.69563 406.51968,221.87482 C 408.35532,223.19381 409.40687,225.16317 409.40687,227.92272 C 409.40687,229.89209 408.75041,231.60009 407.57122,233.04064 C 406.25223,234.35963 404.67795,235.14373 402.57486,235.53882 L 409.01785,248.80774 L 404.0215,248.80774 L 398.1134,236.329 L 398.1134,233.17436 z M 398.1134,259.83984 C 400.87294,259.70612 403.62641,259.04966 406.25223,257.87047 C 409.40687,256.55756 412.16636,254.71584 414.53087,252.35138 C 416.89532,249.98693 418.73705,247.3611 419.91624,244.34019 C 421.1015,241.44692 421.75188,238.16464 421.75188,234.74864 C 421.75188,231.33872 421.1015,228.18409 419.91624,225.16317 C 418.60332,222.00854 416.89532,219.38272 414.53087,217.01826 C 412.16636,214.6538 409.54059,212.81208 406.51968,211.63289 C 403.76013,210.44762 401.00058,209.92489 398.1134,209.79117 L 398.1134,212.55071 C 400.6055,212.68444 403.10367,213.20717 405.33441,214.13107 C 408.09395,215.31026 410.45841,216.88454 412.69522,219.12135 C 414.66459,221.09072 416.23887,223.45517 417.41806,226.21472 C 418.4696,228.96819 418.99841,231.86145 418.99841,234.88237 C 418.99841,237.90328 418.4696,240.79047 417.41806,243.42237 C 416.36651,246.04819 414.79223,248.41265 412.69522,250.38201 C 410.45841,252.4851 407.96018,254.1931 405.20676,255.37229 C 402.96995,256.29012 400.47177,256.81893 398.1134,256.94657 L 398.1134,259.83984 z M 396.66676,222.92636 L 391.28139,222.92636 L 391.28139,233.17436 L 396.66676,233.17436 C 397.19557,233.17436 397.58458,233.17436 398.1134,233.17436 L 398.1134,236.329 L 397.97967,236.06155 L 391.28139,236.06155 L 391.28139,248.80774 L 386.81385,248.80774 L 386.81385,219.90545 L 397.45694,219.90545 C 397.58458,219.90545 397.85203,219.90545 398.1134,219.90545 L 398.1134,222.92636 C 397.58458,222.92636 397.06185,222.92636 396.66676,222.92636 z M 398.1134,209.79117 L 398.1134,212.55071 C 397.58458,212.55071 397.19557,212.55071 396.66676,212.55071 C 393.77957,212.55071 390.8863,213.07953 388.26043,214.13107 C 385.63466,215.17654 383.2702,216.88454 381.16711,218.8539 C 378.9303,221.09072 377.35602,223.58282 376.17683,226.34236 C 374.99157,228.96819 374.46883,231.86145 374.46883,234.74864 C 374.46883,237.76955 374.99157,240.5291 376.17683,243.28865 C 377.22838,245.91447 378.9303,248.27892 381.03339,250.51574 C 383.13648,252.61275 385.50094,254.1931 388.26043,255.37229 C 390.8863,256.42384 393.77957,257.08029 396.66676,257.08029 C 397.19557,257.08029 397.58458,257.08029 398.1134,256.94657 L 398.1134,259.83984 C 397.58458,259.83984 397.19557,259.83984 396.66676,259.83984 C 393.38448,259.83984 390.1022,259.18338 387.07521,257.87047 C 384.06038,256.68521 381.42848,254.84956 379.06402,252.35138 C 376.69957,249.98693 374.86392,247.3611 373.55101,244.34019 C 372.36574,241.31928 371.70929,238.037 371.70929,234.74864 C 371.70929,231.46636 372.36574,228.31781 373.68473,225.16317 C 374.86392,222.14226 376.83329,219.38272 379.19775,216.88454 C 381.42848,214.52008 384.18802,212.81208 387.07521,211.49917 C 390.1022,210.31998 393.25076,209.66352 396.66676,209.66352 C 397.19557,209.66352 397.58458,209.66352 398.1134,209.79117" id="path65" stroke="black" style="fill:#fbbd09;fill-opacity:1;fill-rule:nonzero;"/>
		
    
		
		
    
		
		
    
		
		
    
		
		
  
	</g>
	

</svg>