<?xml version="1.0" encoding="iso-8859-1"?><!-- Created with Inkscape (http://www.inkscape.org/) --><svg height="51" version="1.0" width="282" xmlns="http://www.w3.org/2000/svg" xmlns:svg="http://www.w3.org/2000/svg">
	
  
	
	
  
	
	
  
	
	
  
	
	
  
	
	
  
	
	
  
	
	
  
	
	
  
	
	
  
	
	
  
	
	
  
	<path animation_id="11" d="M 117.17774,49.492193 L 104.94141,49.663091 L 101.95313,38.295904 L 87.96875,38.295904 L 84.8877,49.492193 L 72.74415,49.492193 L 88.583988,0.05371625 L 101.24513,0.05371625 L 117.17774,49.492193 z M 98.706063,27.05567 L 91.215825,27.05567 L 94.912113,13.330084 L 98.706063,27.05567 z M 186.167,5e-06 L 186.167,11.166998 L 172.23634,11.166998 L 172.23634,20.58106 L 184.95117,20.58106 L 184.95117,31.733404 L 172.23634,31.557623 L 172.23634,49.52149 L 159.85353,49.52149 L 159.85353,5e-06 L 186.167,5e-06 z M 150.38086,5e-06 L 150.38086,11.166998 L 136.43555,11.166998 L 136.43555,20.58106 L 149.1504,20.58106 L 149.1504,31.733404 L 136.43555,31.557623 L 136.43555,49.52149 L 124.05274,49.52149 L 124.05274,5e-06 L 150.38086,5e-06 z M 69.365238,5e-06 L 69.365238,11.166998 L 55.419925,11.166998 L 55.419925,20.58106 L 68.149425,20.58106 L 68.149425,31.733404 L 55.419925,31.557623 L 55.419925,49.52149 L 43.02735,49.52149 L 43.02735,5e-06 L 69.365238,5e-06 z" stroke="black" style="fill:#b5192b;fill-opacity:1;fill-rule:evenodd;"/>
	
  
	
	
  
	
	

</svg>