<?xml version="1.0" encoding="iso-8859-1"?><!-- Created with Inkscape (http://www.inkscape.org/) --><svg height="51" version="1.0" width="282" xmlns="http://www.w3.org/2000/svg" xmlns:svg="http://www.w3.org/2000/svg">
	
  
	
	
  
	
	
  
	
	
  
	
	
  
	
	
  
	
	
  
	
	
  
	
	
  
	<path animation_id="8" d="M 269.24805,46.728521 C 269.24805,43.969732 273.1543,44.311529 275.00978,44.238286 C 275.15625,46.533209 274.59474,48.901373 271.73829,48.901373 C 270.39551,48.901373 269.24805,48.193365 269.24805,46.728521 z M 275.00978,43.041998 C 273.42286,43.139654 271.51856,42.919928 270.05371,43.554693 C 268.73536,44.091803 267.83204,45.239263 267.83204,46.728521 C 267.83204,48.852545 269.46777,50.097661 271.49415,50.097661 C 272.9834,50.097661 274.44825,49.24317 274.93652,48.315435 L 274.98536,48.16895 L 275.03419,48.16895 L 275.08301,49.780279 L 276.42579,49.780279 C 276.40137,49.047857 276.30371,48.16895 276.32812,47.314459 L 276.32812,42.114263 C 276.37696,39.5752 274.86329,38.476568 272.42188,38.476568 C 270.32228,38.476568 268.6377,39.33106 268.32033,41.577154 L 269.71193,41.577154 C 269.88283,40.087896 271.03027,39.672857 272.42188,39.672857 C 273.95996,39.672857 274.8877,40.23438 275.00978,42.041021 L 275.00978,43.041998 z" stroke="black" style="fill:#b5192b;fill-opacity:1;fill-rule:nonzero;"/>
	
  
	
	
  
	
	
  
	
	
  
	
	
  
	
	

</svg>