<?xml version="1.0" encoding="iso-8859-1"?><!-- Created with Inkscape (http://www.inkscape.org/) --><svg height="51" version="1.0" width="282" xmlns="http://www.w3.org/2000/svg" xmlns:svg="http://www.w3.org/2000/svg">
	
  
	
	
  
	
	
  
	
	
  
	
	
  
	
	
  
	
	
  
	
	
  
	
	
  
	
	
  
	
	
  
	<path animation_id="10" d="M 197.02637,10.937505 C 199.93165,10.937505 202.29981,8.5449275 202.29981,5.61524 C 202.29981,2.73438 199.93165,0.3418025 197.02637,0.3418025 C 194.09669,0.3418025 191.72853,2.73438 191.72853,5.61524 C 191.72853,8.5449275 194.09669,10.937505 197.02637,10.937505 z M 197.02637,10.083013 C 194.43849,10.083013 192.5586,8.227545 192.5586,5.61524 C 192.5586,3.0517625 194.43849,1.196295 197.02637,1.196295 C 199.58985,1.196295 201.44532,3.0517625 201.44532,5.61524 C 201.44532,8.227545 199.58985,10.083013 197.02637,10.083013 z M 195.80568,5.9326225 L 197.09961,5.9326225 L 198.8086,8.61817 L 199.6875,8.61817 L 197.88086,5.9326225 C 198.93068,5.85938 199.76075,5.4199275 199.76075,4.2480525 C 199.76075,3.1738338 199.22364,2.5634825 197.63673,2.5634825 L 195.04884,2.5634825 L 195.04884,8.61817 L 195.80568,8.61817 L 195.80568,5.9326225 z M 195.80568,5.224615 L 195.80568,3.27149 L 197.46583,3.27149 C 198.19825,3.27149 198.90625,3.39356 198.90625,4.2236375 C 198.90625,5.3710988 197.73438,5.224615 196.87989,5.224615 L 195.80568,5.224615 z" stroke="black" style="fill:#b5192b;fill-opacity:1;fill-rule:nonzero;"/>
	
  
	
	
  
	
	
  
	
	

</svg>