<?xml version="1.0" encoding="iso-8859-1"?><!-- Generator: Adobe Illustrator 14.0.0, SVG Export Plug-In . SVG Version: 6.00 Build 43363)  --><!DOCTYPE svg  PUBLIC '-//W3C//DTD SVG 1.1//EN'  'http://www.w3.org/Graphics/SVG/1.1/DTD/svg11.dtd'><svg enable-background="new 0 0 1024 432" height="432px" id="Ebene_1" version="1.1" viewBox="0 0 1024 432" width="1024px" x="0px" xml:space="preserve" xmlns="http://www.w3.org/2000/svg" xmlns:xlink="http://www.w3.org/1999/xlink" y="0px">
	

	
	

	
	

	
	

	
	

	
	

	<path animation_id="5" clip-rule="evenodd" d="M282.284,124.184c0,13.279-13.517,21.205-26.566,21.205  c-13.983,0-21.442-6.295-21.442-15.845c0-10.951,15.614-20.271,48.008-20.271V124.184z M308.857,87.601  c0-28.657-14.451-39.608-39.155-39.608h-40.786c-7.696,0-13.753,3.967-13.753,12.583c0,8.623,6.058,12.582,13.753,12.582h42.647  c6.294,0,9.327,3.262,9.327,15.147h-9.794c-27.27,0-64.786,9.083-64.786,42.633c0,22.369,17.246,36.813,40.786,36.813  c16.074,0,28.664-4.189,36.123-13.509c0.697,8.853,4.196,13.509,11.885,13.509c10.254,0,13.753-5.82,13.753-15.377V87.601z" fill="#888580" fill-rule="evenodd" stroke="black"/>
	

	
	

	
	

	
	

	
	

	
	

	
	

	
	

</svg>