<?xml version="1.0" encoding="iso-8859-1"?><!-- Generator: Adobe Illustrator 14.0.0, SVG Export Plug-In . SVG Version: 6.00 Build 43363)  --><!DOCTYPE svg  PUBLIC '-//W3C//DTD SVG 1.1//EN'  'http://www.w3.org/Graphics/SVG/1.1/DTD/svg11.dtd'><svg enable-background="new 0 0 1024 432" height="432px" id="Ebene_1" version="1.1" viewBox="0 0 1024 432" width="1024px" x="0px" xml:space="preserve" xmlns="http://www.w3.org/2000/svg" xmlns:xlink="http://www.w3.org/1999/xlink" y="0px">
	

	
	

	
	

	
	

	
	

	
	

	
	

	
	

	
	

	<path animation_id="8" clip-rule="evenodd" d="M585.866,135.86c7.796,46.197,8.386,79.531,8.773,100.198  c0.194,8.773-0.194,14.398,6.417,14.398c4.282,0,6.424-2.521,6.424-7.58c0-25.336-1.753-51.852-4.477-73.294  c-3.306-25.926-5.253-42.101-8.17-48.733c-1.56-3.485-2.925-4.649-7.409-4.649c-7.804,0-8.579,8.163-15.212,22.391  c-6.826,14.616-14.623,26.702-22.62,36.647c-8.968-11.504-16.578-23.591-22.815-36.647c-6.826-14.623-7.214-22.391-15.018-22.391  c-10.132,0-10.52,13.617-15.579,52.8c-3.306,25.143-4.671,50.292-4.671,70.757c0,7.021,0.97,10.699,6.618,10.699  c6.417,0,6.223-5.432,6.417-14.398c0.589-40.155,3.708-73.884,8.774-100.198c15.995,35.282,30.229,52.441,36.273,52.441  C555.837,188.302,569.482,171.142,585.866,135.86z" fill="#888580" fill-rule="evenodd" stroke="black"/>
	

	
	

	
	

	
	

	
	

</svg>