<?xml version="1.0" encoding="iso-8859-1"?><!-- Generator: Adobe Illustrator 14.0.0, SVG Export Plug-In . SVG Version: 6.00 Build 43363)  --><!DOCTYPE svg  PUBLIC '-//W3C//DTD SVG 1.1//EN'  'http://www.w3.org/Graphics/SVG/1.1/DTD/svg11.dtd'><svg enable-background="new 0 0 1024 432" height="432px" id="Ebene_1" version="1.1" viewBox="0 0 1024 432" width="1024px" x="0px" xml:space="preserve" xmlns="http://www.w3.org/2000/svg" xmlns:xlink="http://www.w3.org/1999/xlink" y="0px">
	

	
	

	
	

	
	

	
	

	
	

	
	

	
	

	
	

	
	

	<path animation_id="9" clip-rule="evenodd" d="M696.447,194.74v21.83c0,17.346-6.245,25.143-25.747,25.143  c-18.531,0-28.089-7.215-28.089-21.055C642.611,203.119,659.973,195.717,696.447,194.74z M696.253,241.512v0.977  c0,4.865,2.529,7.582,6.223,7.582c3.895,0,6.036-2.523,6.036-7.582v-60.043c0-21.442-6.036-30.971-29.426-30.971h-32.178  c-4.879,0-7.408,1.947-7.408,5.835c0,3.305,2.529,5.253,7.408,5.253h35.103c10.729,0,14.63,5.842,14.63,18.518  c0,1.365-0.193,2.537-0.193,3.902c-43.689,0.582-65.699,13.25-65.699,36.84c0,18.332,12.841,29.412,36.051,29.412  C679.481,251.234,688.449,248.906,696.253,241.512z" fill="#888580" fill-rule="evenodd" stroke="black"/>
	

	
	

	
	

	
	

</svg>