<?xml version="1.0" encoding="iso-8859-1"?><!-- Generator: Adobe Illustrator 14.0.0, SVG Export Plug-In . SVG Version: 6.00 Build 43363)  --><!DOCTYPE svg  PUBLIC '-//W3C//DTD SVG 1.1//EN'  'http://www.w3.org/Graphics/SVG/1.1/DTD/svg11.dtd'><svg enable-background="new 0 0 1024 432" height="432px" id="Ebene_1" version="1.1" viewBox="0 0 1024 432" width="1024px" x="0px" xml:space="preserve" xmlns="http://www.w3.org/2000/svg" xmlns:xlink="http://www.w3.org/1999/xlink" y="0px">
	

	
	

	
	

	
	

	
	

	
	

	
	

	
	

	
	

	
	

	
	

	
	

	
	

	<path animation_id="12" clip-rule="evenodd" d="M915.503,133.525v17.95h-5.849c-5.073,0-7.797,1.947-7.797,5.253  c0,3.5,2.529,5.439,7.797,5.439h5.849v55.956c0,24.164,5.06,31.357,28.435,31.357h9.557c5.26,0,7.797-1.939,7.797-5.447  c0-3.305-2.73-5.439-7.797-5.439h-11.893c-11.116,0-13.84-5.072-13.84-16.375v-60.052h21.249c5.065,0,7.796-2.134,7.796-5.439  c0-3.507-2.536-5.253-7.796-5.253h-21.249v-17.95c0-5.066-2.335-7.775-6.229-7.775C917.645,125.75,915.503,128.459,915.503,133.525z  " fill="#888580" fill-rule="evenodd" stroke="black"/>
	

</svg>