<?xml version="1.0" encoding="iso-8859-1"?><!-- Generator: Adobe Illustrator 14.0.0, SVG Export Plug-In . SVG Version: 6.00 Build 43363)  --><!DOCTYPE svg  PUBLIC '-//W3C//DTD SVG 1.1//EN'  'http://www.w3.org/Graphics/SVG/1.1/DTD/svg11.dtd'><svg enable-background="new 0 0 1024 432" height="432px" id="Ebene_1" version="1.1" viewBox="0 0 1024 432" width="1024px" x="0px" xml:space="preserve" xmlns="http://www.w3.org/2000/svg" xmlns:xlink="http://www.w3.org/1999/xlink" y="0px">
	

	
	

	
	

	
	

	
	

	<path animation_id="4" clip-rule="evenodd" d="M147.832,151.913c0,8.386,4.426,15.14,13.983,15.14  c9.55,0,13.983-6.754,13.983-15.14V73.158h19.344c7.459,0,13.517-3.959,13.517-12.582c0-8.616-6.058-12.583-13.517-12.583h-19.344  V36.115c0-6.762,2.565-9.557,11.648-9.557h11.188c7.926,0,14.22-4.189,14.22-13.279C212.855,1.861,203.996,0,192.578,0  c-26.336,0-44.746,5.59-44.746,33.78v14.213h-7.926c-7.688,0-13.753,3.967-13.753,12.583c0,8.623,6.065,12.582,13.753,12.582h7.926  V151.913z" fill="#888580" fill-rule="evenodd" stroke="black"/>
	

	
	

	
	

	
	

	
	

	
	

	
	

	
	

	
	

</svg>