<?xml version="1.0" encoding="iso-8859-1"?><!-- Created with Inkscape (http://www.inkscape.org/) --><svg height="75" id="svg2" version="1.0" viewBox="0 -0.256 511 75" width="511" xml:space="preserve" xmlns="http://www.w3.org/2000/svg" xmlns:svg="http://www.w3.org/2000/svg">
	
	
	<defs id="defs4">
	</defs>
	
	
	<g id="g6">
		
		
		
		
		
		
		
		
		
		
		
		
		
		
		
		
		
		<path animation_id="4" d="M 293.73,22.49 L 294.272,22.219 C 297.796,19.509 300.503,17.883 305.112,17.883 C 317.575,17.883 324.079,28.179 324.079,39.561 C 324.079,50.669 317.575,60.697 305.654,60.697 C 301.588,60.697 296.44,59.341 293.73,56.089 L 293.73,74.244 L 285.061,74.244 L 285.061,18.696 L 293.73,18.696 L 293.73,22.49 L 293.73,22.49 z M 293.73,39.29 C 293.73,46.605 296.44,53.651 304.57,53.651 C 312.697,53.651 315.41,46.878 315.41,39.832 C 315.41,32.517 313.512,25.2 304.57,25.2 C 296.44,25.2 293.73,32.244 293.73,39.29 L 293.73,39.29 z " id="path18" stroke="black" style="fill-rule:evenodd"/>
		
		
		
		
		
		
		
		
		
		
	
	</g>
	

</svg>