<?xml version="1.0" encoding="iso-8859-1"?><!-- Created with Inkscape (http://www.inkscape.org/) --><svg height="75" id="svg2" version="1.0" viewBox="0 -0.256 511 75" width="511" xml:space="preserve" xmlns="http://www.w3.org/2000/svg" xmlns:svg="http://www.w3.org/2000/svg">
	
	
	<defs id="defs4">
	</defs>
	
	
	<g id="g6">
		
		
		
		
		
		
		
		
		
		
		
		<path animation_id="2" d="M 178.298,41.187 C 178.027,48.501 182.903,53.651 190.491,53.651 C 192.93,53.651 196.182,53.381 196.995,50.941 L 205.394,50.941 C 205.123,58.798 196.453,60.697 189.949,60.697 C 176.943,60.697 169.898,52.567 169.898,39.832 C 169.898,27.368 175.858,17.883 188.865,17.883 C 201.872,17.883 207.02,26.555 207.02,38.477 L 207.02,41.187 L 178.298,41.187 L 178.298,41.187 z M 198.35,33.87 C 198.35,28.452 194.285,25.2 188.865,25.2 C 183.716,25.2 178.84,28.452 178.298,33.87 L 198.35,33.87 L 198.35,33.87 z " id="path14" stroke="black" style="fill-rule:evenodd"/>
		
		
		
		
		
		
		
		
		
		
		
		
		
		
		
		
	
	</g>
	

</svg>