<?xml version="1.0" encoding="iso-8859-1"?><!-- Created with Inkscape (http://www.inkscape.org/) --><svg height="75" id="svg2" version="1.0" viewBox="0 -0.256 511 75" width="511" xml:space="preserve" xmlns="http://www.w3.org/2000/svg" xmlns:svg="http://www.w3.org/2000/svg">
	
	
	<defs id="defs4">
	</defs>
	
	
	<g id="g6">
		
		
		
		
		
		
		
		
		
		
		
		
		
		
		
		
		
		
		
		
		<path animation_id="5" d="M 374.209,56.089 C 370.957,59.071 366.621,60.697 362.285,60.697 C 354.158,60.697 347.382,56.361 347.382,47.962 C 347.382,37.393 357.41,34.141 366.352,34.141 L 374.209,34.141 L 374.209,32.516 C 374.209,27.909 373.397,24.386 366.352,24.386 C 362.016,24.386 357.68,25.199 357.68,29.264 L 349.281,29.264 C 349.823,20.05 358.492,17.882 366.08,17.882 C 378.004,17.882 382.609,22.218 382.609,34.411 L 382.609,60.154 L 374.21,60.154 L 374.21,56.089 L 374.209,56.089 z M 365.268,40.645 C 360.66,40.645 355.785,42.271 355.785,47.689 C 355.785,52.025 358.764,54.462 363.1,54.462 C 370.415,54.462 374.209,48.773 374.209,41.999 L 374.209,40.644 L 365.268,40.644 L 365.268,40.645 z " id="path20" stroke="black" style="fill-rule:evenodd"/>
		
		
		
		
		
		
		
	
	</g>
	

</svg>