<?xml version="1.0" encoding="iso-8859-1"?><!-- Created with Inkscape (http://www.inkscape.org/) --><svg height="75" id="svg2" version="1.0" viewBox="0 -0.256 511 75" width="511" xml:space="preserve" xmlns="http://www.w3.org/2000/svg" xmlns:svg="http://www.w3.org/2000/svg">
	
	
	<defs id="defs4">
	</defs>
	
	
	<g id="g6">
		
		
		<path animation_id="0" d="M 8.399,22.49 L 8.941,22.219 C 12.464,19.509 15.174,17.883 20.05,17.883 C 32.243,17.883 38.747,28.179 38.747,39.561 C 38.747,50.669 32.516,60.697 20.321,60.697 C 16.529,60.697 11.109,59.341 8.399,56.089 L 8.399,74.244 L 0,74.244 L 0,18.696 L 8.399,18.696 L 8.399,22.49 L 8.399,22.49 z M 8.399,39.29 C 8.399,46.605 11.109,53.651 19.508,53.651 C 27.638,53.651 30.348,46.878 30.348,39.832 C 30.348,32.517 28.18,25.2 19.508,25.2 C 11.109,25.2 8.399,32.244 8.399,39.29 L 8.399,39.29 z " id="path8" stroke="black" style="fill-rule:evenodd"/>
		
		
		
		
		
		
		
		
		
		
		
		
		
		
		
		
		
		
		
		
		
		
		
		
		
	
	</g>
	

</svg>