<?xml version="1.0" encoding="iso-8859-1"?><!-- Created with Inkscape (http://www.inkscape.org/) --><svg height="86.805603" id="svg3023" inkscape:version="0.48.4 r9939" sodipodi:docname="Neues Dokument 4" version="1.1" width="763.65302" xmlns="http://www.w3.org/2000/svg" xmlns:cc="http://creativecommons.org/ns#" xmlns:dc="http://purl.org/dc/elements/1.1/" xmlns:inkscape="http://www.inkscape.org/namespaces/inkscape" xmlns:rdf="http://www.w3.org/1999/02/22-rdf-syntax-ns#" xmlns:sodipodi="http://sodipodi.sourceforge.net/DTD/sodipodi-0.dtd" xmlns:svg="http://www.w3.org/2000/svg">
	
  
	<defs id="defs3025"/>
	
  
	<sodipodi:namedview bordercolor="#666666" borderopacity="1.0" fit-margin-bottom="0" fit-margin-left="0" fit-margin-right="0" fit-margin-top="0" id="base" inkscape:current-layer="layer1" inkscape:cx="374.68366" inkscape:cy="-75.872966" inkscape:document-units="px" inkscape:pageopacity="0.0" inkscape:pageshadow="2" inkscape:window-height="453" inkscape:window-maximized="0" inkscape:window-width="505" inkscape:window-x="156" inkscape:window-y="156" inkscape:zoom="0.35" pagecolor="#ffffff" showgrid="false"/>
	
  
	<metadata id="metadata3028">
		
    
		<rdf:RDF>
			
      
			<cc:Work rdf:about="">
				
        
				<dc:format>image/svg+xml</dc:format>
				
        
				<dc:type rdf:resource="http://purl.org/dc/dcmitype/StillImage"/>
				
        
				<dc:title/>
				
      
			</cc:Work>
			
    
		</rdf:RDF>
		
  
	</metadata>
	
  
	<g id="layer1" inkscape:groupmode="layer" inkscape:label="Ebene 1" transform="translate(24.683661,-369.68361)">
		
    
		<g id="g2995" transform="matrix(4.8225337,0,0,-4.8225337,-16.118841,379.63732)">
			
      
			<path animation_id="0" d="m 0,0 7.224,0 c 2.04,0 3.48,-0.744 3.48,-3.312 0,-1.992 -0.864,-3.36 -3.84,-3.36 L 0,-6.672 0,0 z m -1.776,-15.504 1.776,0 0,7.2 6.672,0 c 3.816,0 5.952,1.752 5.952,4.992 0,3.624 -2.52,4.944 -5.16,4.944 l -9.24,0 0,-17.136 z M 13.8,-6.936 c 0,-6.048 4.44,-9 9.312,-9 4.872,0 9.312,2.952 9.312,9 0,6.048 -4.44,9 -9.312,9 -4.872,0 -9.312,-2.952 -9.312,-9 z m 1.92,0 c 0,5.16 3.624,7.368 7.392,7.368 3.768,0 7.392,-2.208 7.392,-7.368 0,-5.16 -3.624,-7.368 -7.392,-7.368 -3.768,0 -7.392,2.208 -7.392,7.368 z m 18.408,-8.568 1.776,0 0,7.536 6.888,0 c 2.952,0 4.104,-1.008 4.152,-4.032 0.024,-1.872 0.144,-3.144 0.456,-3.504 l 1.92,0 c -0.408,0.384 -0.552,2.472 -0.6,3.552 -0.12,2.808 -0.624,4.368 -3.048,4.752 l 0,0.048 c 2.232,0.504 3.36,2.328 3.36,4.152 0,3.6 -2.664,4.632 -5.568,4.632 l -9.336,0 0,-17.136 z M 35.904,0 l 7.68,0 c 1.632,0 3.528,-0.48 3.528,-3 0,-2.616 -1.752,-3.336 -3.696,-3.336 l -7.512,0 0,6.336 z m 28.871,-3.264 c -0.119,4.08 -3.648,5.328 -7.151,5.328 -3.312,0 -6.769,-1.224 -6.769,-4.968 0,-2.76 2.184,-3.912 6.264,-4.56 3.12,-0.504 6.24,-0.816 6.24,-3.432 0,-2.712 -2.664,-3.408 -5.232,-3.408 -3.288,0 -5.688,0.864 -6,4.464 l -1.775,0 c 0.263,-4.608 3.431,-6.096 7.775,-6.096 3.336,0 7.152,1.152 7.152,5.352 0,3.288 -3.12,4.008 -6.24,4.536 -4.176,0.696 -6.264,1.224 -6.264,3.456 0,1.944 2.088,3.024 4.849,3.024 2.759,0 5.135,-0.768 5.375,-3.696 l 1.776,0 z m 17.377,-5.712 c -0.601,-3.264 -2.617,-5.328 -6.697,-5.328 -5.207,0 -7.2,3.552 -7.2,7.368 0,4.992 2.952,7.368 7.2,7.368 3.096,0 6.024,-1.32 6.552,-4.584 l 1.776,0 c -0.528,4.512 -4.584,6.216 -8.328,6.216 -6.696,0 -9.12,-5.088 -9.12,-9 0,-5.496 3.552,-9 9.12,-9 4.921,0 8.088,3.12 8.472,6.96 l -1.775,0 z m 3.504,-6.528 1.776,0 0,8.256 12.384,0 0,-8.256 1.776,0 0,17.136 -1.776,0 0,-7.248 -12.384,0 0,7.248 -1.776,0 0,-17.136 z m 18.071,0 13.823,0 0,1.632 -12.048,0 0,6.432 11.424,0 0,1.632 -11.424,0 0,5.808 11.856,0 0,1.632 -13.631,0 0,-17.136 z m 36.815,12.24 c -0.12,4.08 -3.648,5.328 -7.152,5.328 -3.312,0 -6.768,-1.224 -6.768,-4.968 0,-2.76 2.185,-3.912 6.265,-4.56 3.119,-0.504 6.239,-0.816 6.239,-3.432 0,-2.712 -2.663,-3.408 -5.232,-3.408 -3.287,0 -5.688,0.864 -6,4.464 l -1.776,0 c 0.265,-4.608 3.432,-6.096 7.776,-6.096 3.336,0 7.153,1.152 7.153,5.352 0,3.288 -3.121,4.008 -6.24,4.536 -4.177,0.696 -6.265,1.224 -6.265,3.456 0,1.944 2.088,3.024 4.848,3.024 2.76,0 5.137,-0.768 5.376,-3.696 l 1.776,0 z m 2.208,-12.24 13.825,0 0,1.632 -12.048,0 0,6.432 11.424,0 0,1.632 -11.424,0 0,5.808 11.856,0 0,1.632 -13.633,0 0,-17.136" id="path2997" inkscape:connector-curvature="0" stroke="black" style="fill:#231f20;fill-opacity:1;fill-rule:nonzero;"/>
			
    
		</g>
		
  
	</g>
	

</svg>