<?xml version="1.0" encoding="iso-8859-1"?><svg viewBox="0 0 400 107.5" xmlns="http://www.w3.org/2000/svg">
	<defs>
		<style>.cls-1{fill:#000;}</style>
	</defs>
	
	
	
	
	<path animation_id="4" class="cls-1" d="M-.17,55.36h0v51.21a2.52,2.52,0,1,0,5,0V72.79c5,7.85,13.4,13,22.86,13,15.4,0,27.88-13.61,27.88-30.4S43.12,25,27.72,25c-9.46,0-17.82,5.13-22.86,13V27.44a2.52,2.52,0,1,0-5,0ZM27.72,29.93c12.63,0,22.91,11.41,22.91,25.44S40.35,80.8,27.72,80.8c-12.08,0-22-10.43-22.86-23.6,0-.6-.06-1.22-.06-1.83s0-1.24.06-1.84C5.71,40.36,15.64,29.93,27.72,29.93Z" stroke="black" transform="translate(0.17 -1.6)"/>
</svg>