<?xml version="1.0" encoding="iso-8859-1"?><svg viewBox="0 0 400 107.5" xmlns="http://www.w3.org/2000/svg">
	<defs>
		<style>.cls-1{fill:#000;}</style>
	</defs>
	
	<path animation_id="1" class="cls-1" d="M398.17,25.11a2.52,2.52,0,0,0-3.22,1.5L376.72,76.54,363.06,39.05a2.94,2.94,0,0,0-5.52,0L343.88,76.54,325.64,26.61a2.51,2.51,0,1,0-4.72,1.73L341.2,83.89h0a2.85,2.85,0,0,0,5.36,0L360.3,46.17,374,83.89a2.85,2.85,0,0,0,5.35,0h0l20.28-55.55A2.51,2.51,0,0,0,398.17,25.11Z" stroke="black" transform="translate(0.17 -1.6)"/>
	
	
	
</svg>