<?xml version="1.0" encoding="iso-8859-1"?><svg id="Layer_1" inkscape:version="1.0beta2 (2b71d25, 2019-12-03)" sodipodi:docname="PR7S1_MediaSE.svg" style="enable-background:new 0 0 316.8 63.1;" version="1.1" viewBox="0 0 316.8 63.1" x="0px" xml:space="preserve" xmlns="http://www.w3.org/2000/svg" xmlns:cc="http://creativecommons.org/ns#" xmlns:dc="http://purl.org/dc/elements/1.1/" xmlns:inkscape="http://www.inkscape.org/namespaces/inkscape" xmlns:rdf="http://www.w3.org/1999/02/22-rdf-syntax-ns#" xmlns:sodipodi="http://sodipodi.sourceforge.net/DTD/sodipodi-0.dtd" xmlns:svg="http://www.w3.org/2000/svg" y="0px">
	<metadata id="metadata81954">
		<rdf:RDF>
			<cc:Work rdf:about="">
				<dc:format>image/svg+xml</dc:format>
				<dc:type rdf:resource="http://purl.org/dc/dcmitype/StillImage"/>
			</cc:Work>
		</rdf:RDF>
	</metadata>
	<defs id="defs81952">
	
	

		
		
	</defs>
	<sodipodi:namedview bordercolor="#666666" borderopacity="1" gridtolerance="10" guidetolerance="10" id="namedview81950" inkscape:current-layer="Layer_1" inkscape:cx="158.39999" inkscape:cy="31.549999" inkscape:document-rotation="0" inkscape:pageopacity="0" inkscape:pageshadow="2" inkscape:window-height="900" inkscape:window-maximized="0" inkscape:window-width="1440" inkscape:window-x="0" inkscape:window-y="0" inkscape:zoom="3.8869" objecttolerance="10" pagecolor="#ffffff" showgrid="false"/>
	

	<style id="style81889" type="text/css">
	.st0{fill:#FF0033;}
</style>
	

	<g id="g81895">
		
			
		
		
			
		
		
		
	</g>
	<g id="g81935" style="fill:#000000">
		
			
		<path animation_id="2" class="st0" d="m 281.1,26.2 c -0.5,0.8 -1.7,1.6 -3.2,1.6 -2,0 -2.7,-1.1 -2.7,-2.3 0,-1.4 0.9,-2.2 2.7,-2.2 1.6,0 2.4,0.2 3.2,0.7 z m 4.6,5.1 V 19.5 c 0,-3.9 -2.9,-6.2 -7.1,-6.2 -2.8,0 -4.5,0.6 -6.6,1.8 l 1.8,3.2 c 1.6,-0.9 2.7,-1.2 4.8,-1.2 1.7,0 2.5,1 2.5,2.2 v 0.9 c -0.7,-0.4 -1.8,-0.7 -3.4,-0.7 -4,0 -7.1,1.9 -7.1,5.8 0,4.2 3.3,6.3 6.6,6.3 1.6,0 3.1,-0.7 3.9,-1.5 v 1.2 z" id="path81897" inkscape:connector-curvature="0" stroke="black" style="fill:#000000"/>
		
			
		
		
			
		
		
			
		
		
			
		
		
			
		
		
			
		
		
			
		
		
			
		
		
			
		
		
			
		
		
			
		
		
			
		
		
			
		
		
			
		
		
			
		
		
			
		
		
			
		
		
			
		
		
		
	</g>
	<g id="g81945" style="fill:#000000">
		
		
		<g id="g81943" style="fill:#000000">
			
			
			
			
			
			
			
		
		</g>
		
	
	</g>
	

</svg>