<?xml version="1.0" encoding="iso-8859-1"?><!DOCTYPE svg  PUBLIC '-//W3C//DTD SVG 1.0//EN'  'http://www.w3.org/TR/2001/REC-SVG-20010904/DTD/svg10.dtd'><!-- Created with Inkscape (http://www.inkscape.org/) by Steadfast--><svg height="273" id="svg3406" version="1.0" width="900" xmlns="http://www.w3.org/2000/svg" xmlns:svg="http://www.w3.org/2000/svg">
	
  
	<defs id="defs3408"/>
	
  
	<g id="layer1">
		
    
		<g id="g3453" transform="matrix(4.5005881,0,0,4.5005881,-810.16467,-690.66646)">
			
      
			
			
      
			
			
      
			
			
      
			
			
      
			
			
      
			
			
      
			
			
      
			
			
      
			
			
      
			
			
      
			
			
      
			
			
      
			
			
      
			
			
      
			<path animation_id="14" d="M 292.82125,204.6395 C 292.56875,204.79075 292.24625,204.87575 291.79,204.87575 C 291.04625,204.87575 290.5725,204.47075 290.5725,203.52325 C 289.7775,204.45325 288.7125,204.87575 287.49375,204.87575 C 285.905,204.87575 284.6025,204.16575 284.6025,202.4245 C 284.6025,200.4445 286.07375,200.022 287.5625,199.7345 C 289.1525,199.43075 290.505,199.532 290.505,198.4495 C 290.505,197.19825 289.47375,196.99575 288.56,196.99575 C 287.3425,196.99575 286.44625,197.367 286.37875,198.652 L 284.94125,198.652 C 285.025,196.487 286.7,195.72575 288.64375,195.72575 C 290.2175,195.72575 291.925,196.082 291.925,198.12825 L 291.925,202.627 C 291.925,203.30325 291.925,203.607 292.3825,203.607 C 292.50125,203.607 292.63625,203.59075 292.82125,203.52325 L 292.82125,204.6395 z M 290.4875,200.157 C 289.93,200.56325 288.8475,200.58075 287.88375,200.7495 C 286.93625,200.91825 286.125,201.257 286.125,202.32325 C 286.125,203.2695 286.93625,203.607 287.81625,203.607 C 289.71,203.607 290.4875,202.4245 290.4875,201.6295 L 290.4875,200.157 z" id="path409" stroke="black" style="fill:#00519e;fill-opacity:1;fill-rule:nonzero;"/>
			
      
			
			
      
			
			
      
			
			
      
			
			
      
			
			
      
			
			
      
			
			
      
			
			
      
			
			
      
			
			
      
			
			
      
			
			
      
			
			
      
			
			
      
			
			
      
			
			
      
			
			
      
			
			
      
			
			
      
			
			
      
			
			
      
			
			
    
		</g>
		
  
	</g>
	

</svg>