<?xml version="1.0" encoding="iso-8859-1"?><!DOCTYPE svg  PUBLIC '-//W3C//DTD SVG 1.0//EN'  'http://www.w3.org/TR/2001/REC-SVG-20010904/DTD/svg10.dtd'><!-- Created with Inkscape (http://www.inkscape.org/) by Steadfast--><svg height="273" id="svg3406" version="1.0" width="900" xmlns="http://www.w3.org/2000/svg" xmlns:svg="http://www.w3.org/2000/svg">
	
  
	<defs id="defs3408"/>
	
  
	<g id="layer1">
		
    
		<g id="g3453" transform="matrix(4.5005881,0,0,4.5005881,-810.16467,-690.66646)">
			
      
			
			
      
			
			
      
			
			
      
			
			
      
			
			
      
			
			
      
			
			
      
			
			
      
			
			
      
			
			
      
			
			
      
			
			
      
			
			
      
			
			
      
			
			
      
			
			
      
			<path animation_id="16" d="M 313.76,196.167 C 313.57375,194.4495 312.42875,193.70825 310.7775,193.70825 C 309.43,193.70825 308.0825,194.19575 308.0825,195.762 C 308.0825,197.2445 310.0025,197.46325 311.94,197.902 C 313.86,198.3395 315.78,199.01325 315.78,201.372 C 315.78,203.932 313.27125,204.9595 311.08125,204.9595 C 308.38625,204.9595 306.1125,203.64575 306.1125,200.7145 L 307.62875,200.7145 C 307.62875,202.73575 309.3125,203.612 311.13125,203.612 C 312.58,203.612 314.18,203.157 314.18,201.422 C 314.18,199.77075 312.26,199.48575 310.34,199.0645 C 308.42,198.64325 306.4825,198.087 306.4825,195.88075 C 306.4825,193.43825 308.655,192.36075 310.845,192.36075 C 313.30375,192.36075 315.17375,193.52325 315.275,196.167 L 313.76,196.167 z" id="path413" stroke="black" style="fill:#00519e;fill-opacity:1;fill-rule:nonzero;"/>
			
      
			
			
      
			
			
      
			
			
      
			
			
      
			
			
      
			
			
      
			
			
      
			
			
      
			
			
      
			
			
      
			
			
      
			
			
      
			
			
      
			
			
      
			
			
      
			
			
      
			
			
      
			
			
      
			
			
      
			
			
    
		</g>
		
  
	</g>
	

</svg>