<?xml version="1.0" encoding="iso-8859-1"?><!DOCTYPE svg  PUBLIC '-//W3C//DTD SVG 1.0//EN'  'http://www.w3.org/TR/2001/REC-SVG-20010904/DTD/svg10.dtd'><!-- Created with Inkscape (http://www.inkscape.org/) by Steadfast--><svg height="273" id="svg3406" version="1.0" width="900" xmlns="http://www.w3.org/2000/svg" xmlns:svg="http://www.w3.org/2000/svg">
	
  
	<defs id="defs3408"/>
	
  
	<g id="layer1">
		
    
		<g id="g3453" transform="matrix(4.5005881,0,0,4.5005881,-810.16467,-690.66646)">
			
      
			
			
      
			
			
      
			
			
      
			
			
      
			
			
      
			
			
      
			
			
      
			
			
      
			
			
      
			
			
      
			
			
      
			
			
      
			
			
      
			
			
      
			
			
      
			
			
      
			
			
      
			
			
      
			
			
      
			
			
      
			<path animation_id="20" d="M 352.315,201.91075 C 351.92625,203.83075 350.545,204.87575 348.59125,204.87575 C 345.8125,204.87575 344.49875,202.9545 344.415,200.29325 C 344.415,197.68325 346.1325,195.762 348.5075,195.762 C 351.59,195.762 352.53375,198.64325 352.44875,200.74825 L 345.93,200.74825 C 345.88,202.2645 346.73875,203.612 348.6425,203.612 C 349.82125,203.612 350.64625,203.0395 350.89875,201.91075 L 352.315,201.91075 z M 350.9325,199.48575 C 350.86625,198.12075 349.83875,197.02575 348.42375,197.02575 C 346.92375,197.02575 346.03125,198.1545 345.93,199.48575 L 350.9325,199.48575 z" id="path421" stroke="black" style="fill:#00519e;fill-opacity:1;fill-rule:nonzero;"/>
			
      
			
			
      
			
			
      
			
			
      
			
			
      
			
			
      
			
			
      
			
			
      
			
			
      
			
			
      
			
			
      
			
			
      
			
			
      
			
			
      
			
			
      
			
			
      
			
			
    
		</g>
		
  
	</g>
	

</svg>