<?xml version="1.0" encoding="iso-8859-1"?><!DOCTYPE svg  PUBLIC '-//W3C//DTD SVG 1.0//EN'  'http://www.w3.org/TR/2001/REC-SVG-20010904/DTD/svg10.dtd'><!-- Created with Inkscape (http://www.inkscape.org/) by Steadfast--><svg height="273" id="svg3406" version="1.0" width="900" xmlns="http://www.w3.org/2000/svg" xmlns:svg="http://www.w3.org/2000/svg">
	
  
	<defs id="defs3408"/>
	
  
	<g id="layer1">
		
    
		<g id="g3453" transform="matrix(4.5005881,0,0,4.5005881,-810.16467,-690.66646)">
			
      
			
			
      
			
			
      
			
			
      
			
			
      
			
			
      
			
			
      
			
			
      
			<path animation_id="7" d="M 327.4575,169.97325 C 327.4575,177.37075 331.84125,184.232 340.4975,184.232 C 349.15125,184.232 353.5375,177.37075 353.5375,169.97325 C 353.5375,162.577 349.15125,155.712 340.4975,155.712 C 331.84125,155.712 327.4575,162.577 327.4575,169.97325 M 331.0775,169.97325 C 331.0775,164.482 333.86125,158.76325 340.4975,158.76325 C 347.13,158.76325 349.9125,164.482 349.9125,169.97325 C 349.9125,175.4645 347.13,181.1845 340.4975,181.1845 C 333.86125,181.1845 331.0775,175.4645 331.0775,169.97325" id="path395" stroke="black" style="fill:#00519e;fill-opacity:1;fill-rule:evenodd;"/>
			
      
			
			
      
			
			
      
			
			
      
			
			
      
			
			
      
			
			
      
			
			
      
			
			
      
			
			
      
			
			
      
			
			
      
			
			
      
			
			
      
			
			
      
			
			
      
			
			
      
			
			
      
			
			
      
			
			
      
			
			
      
			
			
      
			
			
      
			
			
      
			
			
      
			
			
      
			
			
      
			
			
      
			
			
      
			
			
    
		</g>
		
  
	</g>
	

</svg>