<?xml version="1.0" encoding="iso-8859-1"?><!DOCTYPE svg  PUBLIC '-//W3C//DTD SVG 1.0//EN'  'http://www.w3.org/TR/2001/REC-SVG-20010904/DTD/svg10.dtd'><!-- Created with Inkscape (http://www.inkscape.org/) by Steadfast--><svg height="273" id="svg3406" version="1.0" width="900" xmlns="http://www.w3.org/2000/svg" xmlns:svg="http://www.w3.org/2000/svg">
	
  
	<defs id="defs3408"/>
	
  
	<g id="layer1">
		
    
		<g id="g3453" transform="matrix(4.5005881,0,0,4.5005881,-810.16467,-690.66646)">
			
      
			
			
      
			
			
      
			
			
      
			
			
      
			
			
      
			
			
      
			
			
      
			
			
      
			
			
      
			
			
      
			
			
      
			
			
      
			
			
      
			
			
      
			
			
      
			
			
      
			
			
      
			
			
      
			
			
      
			
			
      
			
			
      
			
			
      
			
			
      
			
			
      
			
			
      
			
			
      
			
			
      
			
			
      
			
			
      
			
			
      
			
			
      
			
			
      
			
			
      
			
			
      
			
			
      
			
			
      
			<path animation_id="36" d="M 371.8025,201.92825 C 371.8525,203.207 372.965,203.612 374.14375,203.612 C 375.03625,203.612 376.24875,203.4095 376.24875,202.31575 C 376.24875,201.20325 374.83375,201.01825 373.4025,200.69825 C 371.9875,200.37825 370.555,199.90575 370.555,198.23825 C 370.555,196.487 372.29125,195.762 373.80625,195.762 C 375.72625,195.762 377.25875,196.3695 377.3775,198.492 L 375.94625,198.492 C 375.845,197.3795 374.8675,197.02575 373.925,197.02575 C 373.06625,197.02575 372.07125,197.262 372.07125,198.13825 C 372.07125,199.1645 373.5875,199.33325 374.91875,199.65325 C 376.35,199.97325 377.765,200.44575 377.765,202.1295 C 377.765,204.202 375.8275,204.87575 374.06,204.87575 C 372.10625,204.87575 370.455,204.08325 370.37125,201.92825 L 371.8025,201.92825 z" id="path453" stroke="black" style="fill:#00519e;fill-opacity:1;fill-rule:nonzero;"/>
			
    
		</g>
		
  
	</g>
	

</svg>