<?xml version="1.0" encoding="iso-8859-1"?><!DOCTYPE svg  PUBLIC '-//W3C//DTD SVG 1.0//EN'  'http://www.w3.org/TR/2001/REC-SVG-20010904/DTD/svg10.dtd'><!-- Created with Inkscape (http://www.inkscape.org/) by Steadfast--><svg height="273" id="svg3406" version="1.0" width="900" xmlns="http://www.w3.org/2000/svg" xmlns:svg="http://www.w3.org/2000/svg">
	
  
	<defs id="defs3408"/>
	
  
	<g id="layer1">
		
    
		<g id="g3453" transform="matrix(4.5005881,0,0,4.5005881,-810.16467,-690.66646)">
			
      
			
			
      
			
			
      
			
			
      
			
			
      
			
			
      
			
			
      
			
			
      
			
			
      
			
			
      
			
			
      
			
			
      
			
			
      
			
			
      
			
			
      
			
			
      
			
			
      
			
			
      
			
			
      
			
			
      
			
			
      
			
			
      
			
			
      
			
			
      
			
			
      
			
			
      
			<path animation_id="25" d="M 266.0675,204.67325 L 264.63,204.67325 L 264.63,203.4895 L 264.595,203.4895 C 264.1225,204.45325 263.00625,204.87575 261.805,204.87575 C 259.11625,204.87575 257.78,202.7445 257.78,200.27575 C 257.78,197.807 259.09875,195.72575 261.77125,195.72575 C 262.6675,195.72575 263.9525,196.0645 264.595,197.097 L 264.63,197.097 L 264.63,192.597 L 266.0675,192.597 L 266.0675,204.67325 z M 262.0075,203.607 C 263.93625,203.607 264.68,201.9495 264.68,200.3095 C 264.68,198.5845 263.9025,196.99575 261.92375,196.99575 C 259.96125,196.99575 259.3025,198.6695 259.3025,200.37825 C 259.3025,202.01825 260.1475,203.607 262.0075,203.607" id="path431" stroke="black" style="fill:#00519e;fill-opacity:1;fill-rule:nonzero;"/>
			
      
			
			
      
			
			
      
			
			
      
			
			
      
			
			
      
			
			
      
			
			
      
			
			
      
			
			
      
			
			
      
			
			
    
		</g>
		
  
	</g>
	

</svg>