<?xml version="1.0" encoding="iso-8859-1"?><!DOCTYPE svg  PUBLIC '-//W3C//DTD SVG 1.0//EN'  'http://www.w3.org/TR/2001/REC-SVG-20010904/DTD/svg10.dtd'><!-- Created with Inkscape (http://www.inkscape.org/) by Steadfast--><svg height="273" id="svg3406" version="1.0" width="900" xmlns="http://www.w3.org/2000/svg" xmlns:svg="http://www.w3.org/2000/svg">
	
  
	<defs id="defs3408"/>
	
  
	<g id="layer1">
		
    
		<g id="g3453" transform="matrix(4.5005881,0,0,4.5005881,-810.16467,-690.66646)">
			
      
			
			
      
			
			
      
			
			
      
			
			
      
			
			
      
			<path animation_id="5" d="M 317.5975,164.3295 C 317.3675,158.34325 313.13625,155.712 307.5675,155.712 C 302.61125,155.712 297.6875,158.15325 297.6875,163.68075 C 297.6875,168.677 302.07875,169.93575 306.4225,170.8895 C 310.76875,171.842 315.11875,172.49075 315.11875,176.227 C 315.11875,180.1545 311.49375,181.1845 308.21375,181.1845 C 304.0975,181.1845 300.285,179.20075 300.285,174.62325 L 296.85125,174.62325 C 296.85125,181.2595 302.00125,184.232 308.09875,184.232 C 313.06,184.232 318.73875,181.9095 318.73875,176.11325 C 318.73875,170.77325 314.39375,169.24825 310.04375,168.25825 C 305.6625,167.26575 301.31375,166.76825 301.31375,163.4145 C 301.31375,159.86825 304.36375,158.76325 307.41375,158.76325 C 311.15,158.76325 313.74625,160.44075 314.16625,164.3295 L 317.5975,164.3295 z" id="path391" stroke="black" style="fill:#00519e;fill-opacity:1;fill-rule:nonzero;"/>
			
      
			
			
      
			
			
      
			
			
      
			
			
      
			
			
      
			
			
      
			
			
      
			
			
      
			
			
      
			
			
      
			
			
      
			
			
      
			
			
      
			
			
      
			
			
      
			
			
      
			
			
      
			
			
      
			
			
      
			
			
      
			
			
      
			
			
      
			
			
      
			
			
      
			
			
      
			
			
      
			
			
      
			
			
      
			
			
      
			
			
      
			
			
    
		</g>
		
  
	</g>
	

</svg>