<?xml version="1.0" encoding="iso-8859-1"?><!-- Generator: Adobe Illustrator 14.0.0, SVG Export Plug-In . SVG Version: 6.00 Build 43363)  --><!DOCTYPE svg  PUBLIC '-//W3C//DTD SVG 1.1//EN'  'http://www.w3.org/Graphics/SVG/1.1/DTD/svg11.dtd'><svg enable-background="new 0 0 65.197 65.197" height="65.197px" id="Ebene_1" version="1.1" viewBox="0 0 65.197 65.197" width="65.197px" x="0px" xml:space="preserve" xmlns="http://www.w3.org/2000/svg" xmlns:xlink="http://www.w3.org/1999/xlink" y="0px">
	

	<g>
		
	
		
		
	
		<g>
			
		
			<path animation_id="0" d="M24.153,14.459c-0.005-2.72-2.198-4.911-4.903-4.911c-2.708,0-4.903,2.195-4.903,4.903    s2.195,4.903,4.903,4.903C21.955,19.354,24.148,17.164,24.153,14.459L24.153,14.459z M25.423,8.576v11.727h-1.27v-2.099    c-1.129,1.473-2.906,2.421-4.903,2.421c-3.41,0-6.174-2.764-6.174-6.174c0-3.409,2.764-6.173,6.174-6.173    c1.997,0,3.774,0.949,4.903,2.421V8.576H25.423L25.423,8.576z" fill="#FFFFFF" stroke="black"/>
			
		
			
			
		
			
			
		
			
			
		
			
			
	
		</g>
		

	</g>
	

</svg>