<?xml version="1.0" encoding="iso-8859-1"?><svg height="99.424858" id="svg5019" version="1.1" viewBox="0 0 812.5716 99.42486" width="812.57159" xmlns="http://www.w3.org/2000/svg" xmlns:svg="http://www.w3.org/2000/svg">
	
  
	<defs id="defs5021"/>
	
  
	<g id="layer1" transform="translate(32.000091,-268.36406)">
		
    
		
		
    
		<path animation_id="1" d="m 748.301,305.09392 26.89892,0 0,9.61424 -14.51665,20.41955 14.88825,0 0,8.7948 -27.71359,0 0,-9.69048 14.83108,-20.34332 -14.38801,0 0,-8.79479 z m -30.40111,0 6.70805,0 0,-7.97535 11.48184,-3.6494 0,11.62475 7.59896,0 0,8.27549 -7.59896,0 0,17.80399 c 0,3.80186 1.71512,4.84522 3.94478,4.84522 1.64843,0 2.6775,-0.29537 3.8781,-0.81945 l 0,8.27074 c -1.2006,0.4526 -4.4117,1.04336 -8.19926,1.04336 -6.1173,0 -11.4056,-2.97765 -11.4056,-11.4723 l 0,-19.67156 -6.40791,0 0,-8.27549 z m -5.13205,30.70413 c 0,3.7304 0.0668,6.11252 0.29539,8.12303 l -10.72432,0 c -0.16198,-1.7199 -0.31445,-3.87333 -0.31445,-6.4889 l -0.13816,0 c -1.79611,4.25447 -4.77376,7.07967 -10.96252,7.07967 -8.56611,0 -11.40083,-6.25545 -11.40083,-14.00688 l 0,-25.41247 11.77244,0 0,23.92126 c 0,4.84524 2.16297,6.11252 4.54986,6.11252 3.80186,0 5.14538,-3.2778 5.14538,-8.27072 l 0,-21.76306 11.77721,0 0,30.70555 z m -27.42299,-46.35609 8.7948,0 0,9.39032 -8.7948,0 0,-9.39032 z m 12.81105,0 8.7948,0 0,9.39032 -8.7948,0 0,-9.39032 z m -60.06186,-1.41451 11.76291,0 0,22.80643 0.16199,0 c 1.32922,-4.32117 5.65516,-6.33645 9.90486,-6.33645 8.57087,0 11.40084,6.26023 11.40084,14.00688 l 0,25.41724 -11.77245,0 0,-23.92603 c 0,-4.84524 -2.16297,-6.10776 -4.54033,-6.10776 -3.80662,0 -5.15491,3.2778 -5.15491,8.27072 l 0,21.76307 -11.76291,0 0,-55.8941 z m -5.66469,54.84978 c -3.43503,0.89092 -6.93197,1.6389 -10.65761,1.6389 -14.97879,0 -18.33281,-12.52043 -18.33281,-19.6001 0,-11.9249 6.85574,-20.41478 19.22372,-20.41478 3.8781,0 5.96008,0.96715 9.39033,1.85806 l -0.59077,8.86625 c -2.16297,-0.81945 -4.3974,-1.6389 -6.86051,-1.6389 -8.94249,0 -8.94249,9.8334 -8.94249,11.32937 0,8.1945 5.06915,10.8053 9.54755,10.8053 2.45358,0 4.69278,-0.89091 6.84622,-1.71512 l 0.37637,8.87102 z m -36.06389,-28.01852 c -3.1444,-1.27205 -6.04106,-2.0915 -9.47131,-2.0915 -3.05389,0 -4.3974,1.4912 -4.3974,2.83472 0,2.38213 1.71989,3.20634 8.12304,5.58845 4.02578,1.49122 8.1278,4.02103 8.1278,11.32462 0,8.64233 -6.47938,12.00112 -14.31655,12.00112 -3.42074,0 -8.63758,-0.37161 -12.73959,-1.86281 l 0.30014,-9.09018 c 2.82996,1.71037 6.40791,2.6775 9.68571,2.6775 5.51222,0 5.89337,-1.92951 5.89337,-3.64941 0,-1.71036 -3.06341,-2.45835 -8.13257,-4.54509 -4.10201,-1.71988 -8.12303,-4.98816 -8.12303,-11.9249 0,-4.17347 2.98718,-11.61998 14.54047,-11.61998 4.84047,0 8.85673,0.89091 10.80531,1.5579 l -0.29539,8.79956 z m -43.08067,5.13729 c 0,-4.84524 -2.16296,-6.10777 -4.54985,-6.10777 -3.79234,0 -5.13587,3.2778 -5.13587,8.27073 l 0,21.76307 -11.77243,0 0,-30.70555 c 0,-3.72565 -0.0762,-6.10776 -0.30491,-8.12303 l 10.73383,0 c 0.14769,1.71036 0.30015,3.87808 0.30015,6.47936 l 0.14769,0 c 1.7866,-4.24494 4.76901,-7.0749 10.95776,-7.0749 8.57088,0 11.4056,6.26022 11.4056,14.00687 l 0,25.41725 -11.78197,0 0,-23.92603 z m -41.73335,12.29651 -16.31278,0 -3.58271,11.62951 -11.77244,0 17.28944,-52.02077 13.41135,0 16.68914,52.02077 -12.5109,0 -3.2111,-11.62951 z m -7.74667,-30.40064 -0.14768,0 -6.18875,21.61061 11.70574,0 -5.36931,-21.61061 z" id="path60" stroke="black" style="fill:#1d1d1b;fill-opacity:1;fill-rule:nonzero;"/>
		
  
	</g>
	

</svg>