<?xml version="1.0" encoding="iso-8859-1"?><svg height="99.424858" id="svg5019" version="1.1" viewBox="0 0 812.5716 99.42486" width="812.57159" xmlns="http://www.w3.org/2000/svg" xmlns:svg="http://www.w3.org/2000/svg">
	
  
	<defs id="defs5021"/>
	
  
	<g id="layer1" transform="translate(32.000091,-268.36406)">
		
    
		<path animation_id="0" d="m 32.557719,301.80183 c -1.162475,1.78183 -3.306385,3.57319 -6.350736,5.3693 2.239193,0.79564 4.473623,2.50123 6.622298,5.1835 1.519793,1.87235 2.229665,4.73567 2.229665,8.67093 l 0,22.00127 -27.9899307,0 0,-25.93653 -6.16969501,0 0,25.93653 -27.89941129,0 0,-69.66277 44.088311,0 c 5.631336,0 10.01444,1.7866 13.325589,5.45506 3.215865,3.57319 4.911935,7.95629 4.740422,13.14455 -0.185805,4.20206 -1.076718,7.50845 -2.596512,9.83816 m -25.3981827,-15.11695 -6.079175,0 0,15.20272 6.079175,0 0,-15.20272 z m 63.7646367,56.34195 -0.09529,-7.06537 c -3.658938,5.27402 -9.033005,7.861 -16.093614,7.861 -11.715275,0 -17.527653,-6.34596 -17.346612,-19.03791 0.09052,-10.0192 6.708056,-15.20747 19.762083,-15.47903 l 12.701473,-0.26204 0,-10.19547 -5.545579,0 0,6.52701 -24.859823,0 0,-2.41547 c 0,-4.37834 2.23443,-8.04205 6.793811,-11.09117 5.278782,-3.56841 12.515668,-5.45028 21.815471,-5.54081 7.961056,-0.0905 14.402316,1.70084 19.409536,5.27401 5.3693,3.84952 8.14209,9.21405 8.14209,16.18414 l 0,35.24111 -24.683551,0 z m -1.071955,-25.66497 -5.817141,0 0,12.07259 5.817141,0 0,-12.07259 z m 110.883012,-12.61096 0,38.27593 -26.56066,0 0,-40.87245 -23.15899,60.63454 -25.93178,0 7.42269,-20.03365 -20.300441,-53.38811 25.569701,0 7.69425,28.17097 7.96105,-28.17097 20.83404,0 0,-16.0031 26.47013,0 0,16.0031 8.94725,0 0,15.38374 -8.94725,0 z m 43.64047,38.27593 0,-38.27593 -5.54081,0 0,38.27593 -26.65119,0 0,-69.66277 26.65119,0 0,19.58105 c 1.51502,-1.52456 3.83997,-2.85855 6.97008,-3.93528 3.1301,-1.07671 6.26498,-1.60555 9.39033,-1.60555 4.38786,0 8.13732,1.42928 11.26742,4.1973 3.13012,2.86808 4.74043,6.3555 4.74043,10.5528 l 0,40.87245 -26.82745,0 z m 89.06754,-24.77406 -32.99717,0 0,12.78723 5.6361,0 0,-7.78478 27.09903,0 c -0.0952,0.90044 -0.27156,1.88664 -0.54313,3.04435 -1.61031,5.90766 -4.56414,10.286 -8.76145,13.05403 -4.74041,3.13487 -11.62951,4.56891 -20.65774,4.46886 -9.39033,-0.081 -16.27943,-1.60555 -20.65777,-4.64038 -6.44126,-4.3831 -9.65712,-12.4299 -9.65712,-24.14995 0,-11.98206 3.04435,-20.11463 9.20929,-24.32146 4.29257,-2.95382 11.35795,-4.3831 21.19611,-4.3831 11.62476,0 19.76209,2.77279 24.49774,8.40889 3.66847,4.28782 5.63611,11.0864 5.81714,20.29567 0,0.9862 -0.0905,2.05817 -0.18103,3.22064 m -27.45158,-19.40476 -5.54559,0 0,10.37651 5.54559,0 0,-10.37651 z m 80.83969,40.50559 c -4.29259,3.04436 -11.35796,4.46886 -21.19613,4.46886 -9.92392,0 -16.98452,-1.51503 -21.19134,-4.46886 -5.99343,-4.19729 -9.03302,-12.23934 -9.03302,-24.32147 0,-11.88678 3.03959,-19.93358 9.03302,-24.2357 4.20682,-2.94907 11.26742,-4.46886 21.19134,-4.46886 9.92393,0 16.99407,1.60555 21.19613,4.56415 6.08394,4.28781 9.12353,12.25363 9.12353,24.14041 0,11.90109 -3.03959,20.02889 -9.12353,24.32147 m -18.42334,-40.50559 -5.54557,0 0,32.19199 5.54557,0 0,-32.19199 z m 61.97805,44.17882 0,-38.27593 -5.46459,0 0,38.27593 -26.28433,0 0,-54.81738 25.30766,0 0.0905,5.00722 c 3.48266,-3.75899 8.8472,-5.72662 16.08885,-5.81239 4.38786,-0.0953 8.31837,1.42928 11.90107,4.4641 3.75423,3.23017 5.63611,7.07014 5.63611,11.539 l 0,39.61945 -27.27529,0 z" id="path28" stroke="black" style="fill:#dd052b;fill-opacity:1;fill-rule:nonzero;"/>
		
    
		
		
  
	</g>
	

</svg>