<?xml version="1.0" encoding="iso-8859-1"?><!-- Created with Inkscape (http://www.inkscape.org/) --><svg height="140" id="svg2" version="1.0" viewBox="-0.822 -0.582 693 140" width="693" xml:space="preserve" xmlns="http://www.w3.org/2000/svg" xmlns:svg="http://www.w3.org/2000/svg">
	
	
	<defs id="defs4">
	</defs>
	
	
	<g id="g6">
		
		
		
		
		
		
		 
		
			
		
		 
		
		
		
		
		
		
		
		
		
		
		
		
		
		
		
		
		
		
		
		
		
		
		<path animation_id="8" d="M 658.429,35.869 L 659.332,35.869 C 662.008,35.869 661.822,37.553 661.822,39.538 C 661.822,40.625 661.726,41.755 662.193,42.77 L 665.609,42.77 C 665.281,42.08 665.213,38.939 665.213,37.877 C 665.213,34.879 662.953,34.693 662.193,34.599 L 662.193,34.554 C 664.454,34.183 665.281,32.594 665.281,30.468 C 665.281,27.628 663.763,26.11 661.383,26.11 L 654.947,26.11 L 654.947,42.77 L 658.428,42.77 L 658.428,35.869 M 658.429,28.669 L 659.979,28.669 C 661.083,28.669 661.754,29.27 661.754,30.863 C 661.754,31.924 661.363,33.31 659.979,33.31 L 658.429,33.31 L 658.429,28.669 z " id="path28" stroke="black" style="fill:#ffffff;fill-rule:evenodd"/>
		
	
	</g>
	

</svg>