<?xml version="1.0" encoding="iso-8859-1"?><!DOCTYPE svg  PUBLIC '-//W3C//DTD SVG 1.1//EN'  'http://www.w3.org/Graphics/SVG/1.1/DTD/svg11.dtd'><svg height="100%" style="fill-rule:evenodd;clip-rule:evenodd;stroke-linejoin:round;stroke-miterlimit:1.41421;" version="1.1" viewBox="0 0 225 65" width="100%" xml:space="preserve" xmlns="http://www.w3.org/2000/svg" xmlns:xlink="http://www.w3.org/1999/xlink">
	
	
	
	
	<path animation_id="4" d="M35.08,38.357l-1.79,0c-0.346,0 -0.56,-0.193 -0.56,-0.647l0,-12.146c0,-1.639 0.603,-2.459 2.394,-2.459l1.638,0c2.115,0 3.561,0.195 4.381,0.519c1.639,0.668 2.2,2.179 2.2,4.034c0,1.856 -0.626,3.408 -2.438,4.163l2.935,5.308c0.129,0.236 0.3,0.518 0.3,0.776c0,0.217 -0.15,0.367 -0.322,0.388c-0.194,0.044 -1.705,0.108 -2.158,0.108c-0.388,0 -0.604,-0.194 -0.755,-0.496l-2.826,-5.544c-0.366,0.021 -0.755,0.021 -1.186,0.021l-1.187,0l0,5.328c-0.001,0.432 -0.26,0.647 -0.626,0.647ZM36.978,30.008c0.928,0 1.683,-0.085 2.18,-0.259c0.69,-0.258 1.121,-0.969 1.121,-1.94c0,-1.144 -0.346,-1.768 -1.08,-2.028c-0.431,-0.152 -1.1,-0.195 -1.941,-0.195l-0.842,0c-0.518,0 -0.712,0.238 -0.712,0.713l0,3.71l1.274,0l0,-0.001l0,0ZM48.8,38.357l-1.81,0c-0.346,0 -0.561,-0.193 -0.561,-0.647l0,-13.979c0,-0.388 0.173,-0.647 0.582,-0.647l1.856,0c0.409,0 0.539,0.238 0.539,0.626l0,5.436l5.911,0l0,-5.415c0,-0.388 0.173,-0.647 0.605,-0.647l1.833,0c0.41,0 0.539,0.238 0.539,0.626l0,14c0,0.411 -0.236,0.647 -0.604,0.647l-1.791,0c-0.345,0 -0.582,-0.193 -0.582,-0.647l0,-5.954l-5.911,0l0,5.954c-0.001,0.411 -0.238,0.647 -0.606,0.647ZM64.14,38.336c-1.51,0 -2.308,-0.604 -2.308,-2.308l0,-10.55c0,-1.618 0.734,-2.373 2.308,-2.373l6.47,0c0.411,0 0.605,0.13 0.605,0.583l0,1.51c0,0.367 -0.194,0.497 -0.605,0.497l-5.112,0c-0.452,0 -0.69,0.237 -0.69,0.798l0,2.653l5.264,0c0.388,0 0.603,0.129 0.603,0.581l0,1.511c0,0.367 -0.214,0.517 -0.603,0.517l-5.264,0l0,3.15c0,0.582 0.216,0.842 0.819,0.842l5.352,0c0.387,0 0.603,0.107 0.603,0.582l0,1.488c0,0.368 -0.195,0.519 -0.603,0.519l-6.839,0l0,0ZM76.796,38.357l-1.812,0c-0.346,0 -0.56,-0.193 -0.56,-0.647l0,-13.979c0,-0.388 0.172,-0.647 0.582,-0.647l1.855,0c0.41,0 0.54,0.238 0.54,0.626l0,14c0,0.411 -0.237,0.647 -0.605,0.647ZM83.405,38.357l-1.726,0c-0.346,0 -0.561,-0.193 -0.561,-0.647l0,-12.662c0,-1.36 0.538,-2.029 1.984,-2.029l0.82,0c1.229,0 1.511,0.539 1.941,1.445c3.473,7.119 4.099,8.565 4.768,10.183c-0.065,-1.963 -0.065,-3.84 -0.065,-10.766c0,-0.474 0.216,-0.798 0.648,-0.798l1.618,0c0.432,0 0.581,0.303 0.581,0.734l0,12.988c0,1.423 -0.797,1.682 -1.681,1.682l-0.669,0c-1.252,0 -1.618,-0.431 -2.222,-1.661c-3.862,-7.896 -4.206,-8.716 -4.876,-10.312c0.022,1.488 0.043,2.955 0.043,11.196c0.001,0.411 -0.237,0.647 -0.603,0.647ZM99.474,38.357l-1.833,0c-0.346,0 -0.518,-0.236 -0.518,-0.647l0,-12.512c0,-1.122 0.279,-2.179 2.114,-2.179l0.648,0c1.509,0 1.617,0.388 2.35,2.243c1.488,3.817 1.921,4.964 2.351,6.278c0.475,-1.358 0.821,-2.416 2.31,-6.321c0.603,-1.596 0.819,-2.201 2.459,-2.201l0.733,0c1.749,0 1.856,0.862 1.856,2.179l0,12.448c0,0.518 -0.215,0.712 -0.605,0.712l-1.813,0c-0.345,0 -0.56,-0.194 -0.56,-0.691c0,-7.766 0.021,-9.491 0.086,-11.627c-0.54,1.768 -0.97,3.039 -2.977,8.327c-0.345,0.905 -0.581,1.271 -1.336,1.271l-0.347,0c-0.711,0 -1.034,-0.345 -1.337,-1.186c-1.919,-5.178 -2.415,-6.515 -3.063,-8.412c0.065,2.136 0.065,3.99 0.065,11.692c0,0.346 -0.151,0.626 -0.583,0.626ZM117.79,38.336c-1.51,0 -2.307,-0.604 -2.307,-2.308l0,-10.55c0,-1.618 0.733,-2.373 2.307,-2.373l6.472,0c0.409,0 0.603,0.13 0.603,0.583l0,1.51c0,0.367 -0.194,0.497 -0.603,0.497l-5.113,0c-0.453,0 -0.691,0.237 -0.691,0.798l0,2.653l5.265,0c0.388,0 0.604,0.129 0.604,0.581l0,1.511c0,0.367 -0.216,0.517 -0.604,0.517l-5.265,0l0,3.15c0,0.582 0.215,0.842 0.82,0.842l5.35,0c0.387,0 0.605,0.107 0.605,0.582l0,1.488c0,0.368 -0.195,0.519 -0.605,0.519l-6.838,0l0,0ZM132.935,38.357l-1.832,0c-0.347,0 -0.583,-0.214 -0.583,-0.647l0,-12.015l-2.793,0c-0.408,0 -0.604,-0.13 -0.604,-0.497l0,-1.51c0,-0.453 0.196,-0.583 0.604,-0.583l9.304,0c0.41,0 0.605,0.147 0.458,0.583l-0.531,1.51c-0.113,0.362 -0.306,0.497 -0.717,0.497l-2.702,0l0,12.015c0,0.432 -0.258,0.647 -0.604,0.647ZM139.547,37.667c-0.171,0.519 -0.3,0.733 -0.734,0.733c-0.43,0 -1.854,-0.043 -2.134,-0.108c-0.238,-0.064 -0.302,-0.258 -0.302,-0.431c0,-0.194 0.064,-0.454 0.15,-0.691l4.229,-12.297c0.43,-1.25 0.754,-1.855 2.308,-1.855l0.69,0c1.446,0 1.662,0.562 2.072,1.79l4.142,12.318c0.086,0.237 0.151,0.474 0.151,0.712c0,0.172 -0.086,0.366 -0.282,0.453c-0.258,0.107 -1.509,0.107 -2.135,0.107c-0.43,0 -0.583,-0.214 -0.754,-0.733l-1.1,-3.257l-5.243,0l-1.058,3.259ZM145.179,31.886c-1.187,-3.797 -1.555,-5.005 -1.899,-6.279c-0.346,1.252 -0.733,2.503 -1.941,6.279l3.84,0ZM154.241,38.336c-1.467,0 -2.263,-0.649 -2.263,-2.201l0,-12.404c0,-0.388 0.172,-0.647 0.58,-0.647l1.855,0c0.411,0 0.54,0.238 0.54,0.626l0,11.239c0,0.517 0.216,0.798 0.798,0.798l4.325,0c0.387,0 0.603,0.107 0.603,0.582l0,1.488c0,0.368 -0.216,0.519 -0.603,0.519l-5.835,0l0,0ZM164.563,38.336c-1.468,0 -2.266,-0.649 -2.266,-2.201l0,-12.404c0,-0.388 0.172,-0.647 0.582,-0.647l1.856,0c0.41,0 0.539,0.238 0.539,0.626l0,11.239c0,0.517 0.216,0.798 0.796,0.798l4.326,0c0.389,0 0.604,0.107 0.604,0.582l0,1.488c0,0.368 -0.215,0.519 -0.604,0.519l-5.833,0l0,0Z" id="RHEINMETALL_1_" stroke="black" style="fill:#3e3d40;fill-rule:nonzero;"/>
</svg>