<?xml version="1.0" encoding="iso-8859-1"?><!DOCTYPE svg  PUBLIC '-//W3C//DTD SVG 20010904//EN'  'http://www.w3.org/TR/2001/REC-SVG-20010904/DTD/svg10.dtd'><svg height="592.000000pt" preserveAspectRatio="xMidYMid meet" version="1.0" viewBox="0 0 2008.000000 592.000000" width="2008.000000pt" xmlns="http://www.w3.org/2000/svg">
	


	<g fill="#000000" stroke="none" transform="translate(0.000000,592.000000) scale(0.100000,-0.100000)">
		

		
		

		
		

		
		

		
		

		<path animation_id="4" d="M12460 4409 c0 -7 192 -663 426 -1458 234 -795 427 -1454 430 -1464 5 -16 17 -17 121 -15 l115 3 347 1178 c190 647 348 1177 351 1177 3 0 161 -530 351 -1178 l346 -1177 114 -3 115 -3 429 1453 c235 799 430 1463 433 1476 l4 22 -145 0 c-104 0 -147 -4 -154 -12 -5 -7 -159 -551 -343 -1208 -183 -657 -336 -1198 -339 -1202 -4 -5 -159 517 -345 1160 -187 642 -345 1188 -353 1215 l-14 47 -93 0 c-63 0 -97 -4 -104 -12 -8 -11 -354 -1192 -654 -2235 -29 -101 -55 -179 -59 -175 -4 4 -156 543 -339 1197 -183 655 -337 1198 -342 1208 -8 15 -26 17 -153 17 -103 0 -145 -3 -145 -11z" stroke="black"/>
		

		
		

	</g>
	

</svg>