<?xml version="1.0" encoding="iso-8859-1"?><!DOCTYPE svg  PUBLIC '-//W3C//DTD SVG 20010904//EN'  'http://www.w3.org/TR/2001/REC-SVG-20010904/DTD/svg10.dtd'><svg height="592.000000pt" preserveAspectRatio="xMidYMid meet" version="1.0" viewBox="0 0 2008.000000 592.000000" width="2008.000000pt" xmlns="http://www.w3.org/2000/svg">
	


	<g fill="#000000" stroke="none" transform="translate(0.000000,592.000000) scale(0.100000,-0.100000)">
		

		
		

		
		

		
		

		<path animation_id="3" d="M5940 2944 l0 -1474 140 0 140 0 1 1243 c0 760 4 1234 10 1222 5 -11 69 -177 142 -370 74 -192 284 -743 467 -1222 l334 -873 110 0 111 0 470 1230 c258 676 471 1228 472 1226 2 -1 4 -554 6 -1227 l2 -1224 143 -3 142 -3 -2 1473 -3 1473 -179 0 -179 0 -408 -1035 c-224 -569 -445 -1129 -490 -1243 -45 -115 -85 -205 -89 -200 -3 4 -224 562 -490 1238 -266 677 -489 1233 -494 1238 -6 4 -89 7 -183 6 l-173 -1 0 -1474z" stroke="black"/>
		

		
		

		
		

	</g>
	

</svg>