<?xml version="1.0" encoding="iso-8859-1"?><!DOCTYPE svg  PUBLIC '-//W3C//DTD SVG 20010904//EN'  'http://www.w3.org/TR/2001/REC-SVG-20010904/DTD/svg10.dtd'><svg height="592.000000pt" preserveAspectRatio="xMidYMid meet" version="1.0" viewBox="0 0 2008.000000 592.000000" width="2008.000000pt" xmlns="http://www.w3.org/2000/svg">
	


	<g fill="#000000" stroke="none" transform="translate(0.000000,592.000000) scale(0.100000,-0.100000)">
		

		
		

		
		

		
		

		
		

		
		

		<path animation_id="5" d="M17301 4403 c-12 -24 -64 -151 -711 -1738 -186 -456 -372 -912 -413 -1012 l-75 -183 158 0 158 0 30 77 c16 43 91 243 167 446 l138 367 669 -2 670 -3 166 -443 166 -442 158 0 158 0 -19 47 c-10 27 -159 392 -331 813 -172 421 -431 1058 -577 1415 -146 358 -270 656 -275 663 -7 8 -44 12 -119 12 -93 0 -110 -2 -118 -17z m402 -1070 c151 -395 277 -724 279 -731 2 -10 -106 -13 -556 -12 -308 0 -562 2 -564 5 -5 5 551 1454 559 1455 3 0 130 -323 282 -717z" stroke="black"/>
		

	</g>
	

</svg>