<?xml version="1.0" encoding="iso-8859-1"?><!DOCTYPE svg  PUBLIC '-//W3C//DTD SVG 20010904//EN'  'http://www.w3.org/TR/2001/REC-SVG-20010904/DTD/svg10.dtd'><svg height="592.000000pt" preserveAspectRatio="xMidYMid meet" version="1.0" viewBox="0 0 2008.000000 592.000000" width="2008.000000pt" xmlns="http://www.w3.org/2000/svg">
	


	<g fill="#000000" stroke="none" transform="translate(0.000000,592.000000) scale(0.100000,-0.100000)">
		

		<path animation_id="0" d="M10610 4483 c-139 -15 -320 -70 -439 -134 -367 -197 -611 -614 -670 -1144 -24 -224 -8 -553 39 -767 136 -624 585 -1022 1175 -1042 173 -6 327 16 476 70 261 94 491 308 631 589 178 355 245 855 172 1288 -125 740 -576 1156 -1244 1145 -58 0 -121 -3 -140 -5z m374 -263 c70 -15 187 -64 253 -106 375 -239 563 -858 457 -1499 -83 -501 -325 -832 -686 -936 -105 -30 -325 -38 -437 -15 -420 85 -678 422 -765 996 -8 56 -14 170 -14 280 -1 398 89 718 268 960 119 160 287 273 468 316 130 31 320 33 456 4z" stroke="black"/>
		

		
		

		
		

		
		

		
		

		
		

	</g>
	

</svg>