<?xml version="1.0" encoding="iso-8859-1"?><svg id="Layer_1" style="enable-background:new 0 0 836.8 153.1" version="1.0" viewBox="0 0 836.8 153.1" x="0px" xml:space="preserve" xmlns="http://www.w3.org/2000/svg" xmlns:xlink="http://www.w3.org/1999/xlink" y="0px">
	<g>
		
		
		
		
		
		
		
		
		
		
		
		<path animation_id="8" d="M818.3,47.3c0-1.3,0.2-2.5,0.7-3.7c0.5-1.1,1.2-2.1,2-2.9c0.8-0.8,1.8-1.5,2.9-1.9c1.1-0.5,2.3-0.7,3.6-0.7 c1.2,0,2.4,0.2,3.6,0.7c1.1,0.5,2.1,1.1,2.9,1.9c0.8,0.8,1.5,1.8,2,2.9c0.5,1.1,0.7,2.3,0.7,3.6c0,1.3-0.2,2.5-0.7,3.7 c-0.5,1.1-1.2,2.1-2,2.9c-0.8,0.8-1.8,1.5-2.9,1.9c-1.1,0.5-2.3,0.7-3.6,0.7c-1.3,0-2.5-0.2-3.6-0.7c-1.1-0.5-2.1-1.1-2.9-1.9 c-0.8-0.8-1.5-1.8-2-2.9C818.6,49.8,818.3,48.6,818.3,47.3z M819.8,47.3c0,1.1,0.2,2.1,0.6,3.1c0.4,0.9,1,1.8,1.7,2.5 c0.7,0.7,1.5,1.2,2.5,1.6c0.9,0.4,1.9,0.6,3,0.6s2.1-0.2,3-0.6c0.9-0.4,1.8-1,2.5-1.7c0.7-0.7,1.3-1.5,1.7-2.5c0.4-1,0.6-2,0.6-3.1 c0-1.1-0.2-2.1-0.6-3.1c-0.4-1-1-1.8-1.7-2.5s-1.5-1.2-2.5-1.6c-0.9-0.4-1.9-0.6-3-0.6s-2.1,0.2-3,0.6c-0.9,0.4-1.8,1-2.5,1.6 c-0.7,0.7-1.3,1.5-1.7,2.5C820,45.1,819.8,46.2,819.8,47.3z M824.1,42h3.9c1.3,0,2.2,0.2,2.8,0.7c0.6,0.5,0.9,1.3,0.9,2.3 c0,1-0.3,1.6-0.8,2.1c-0.5,0.4-1.2,0.7-2,0.8l3.1,4.7h-1.6l-2.9-4.5h-1.9v4.5h-1.5V42z M825.6,46.7h1.8c0.4,0,0.7,0,1.1,0 c0.3,0,0.7-0.1,0.9-0.2s0.5-0.3,0.6-0.5c0.2-0.2,0.2-0.6,0.2-1c0-0.4-0.1-0.7-0.2-0.9c-0.1-0.2-0.3-0.4-0.6-0.5 c-0.2-0.1-0.5-0.2-0.8-0.2c-0.3,0-0.6,0-0.8,0h-2.3V46.7z" fill="#D20014" stroke="black"/>
	</g>
</svg>