<?xml version="1.0" encoding="iso-8859-1"?><svg id="Layer_1" style="enable-background:new 0 0 836.8 153.1" version="1.0" viewBox="0 0 836.8 153.1" x="0px" xml:space="preserve" xmlns="http://www.w3.org/2000/svg" xmlns:xlink="http://www.w3.org/1999/xlink" y="0px">
	<g>
		
		<path animation_id="1" d="M258,76.1c0-6.1,1.1-11.7,3.2-16.6s5.1-9.1,8.9-12.6s8.3-6.1,13.5-8c5.2-1.9,10.8-2.8,16.9-2.8 c6.1,0,11.7,0.9,16.9,2.8c5.2,1.9,9.7,4.5,13.5,8c3.8,3.5,6.8,7.7,9,12.6s3.2,10.5,3.2,16.6c0,6.1-1.1,11.7-3.2,16.8 c-2.2,5-5.2,9.3-9,12.9c-3.8,3.6-8.3,6.3-13.5,8.3c-5.2,1.9-10.8,2.9-16.9,2.9c-6.1,0-11.7-1-16.9-2.9c-5.2-1.9-9.7-4.7-13.5-8.3 c-3.8-3.6-6.8-7.9-8.9-12.9C259.1,87.8,258,82.2,258,76.1z M285.4,76.1c0,2.5,0.4,4.8,1.1,6.9c0.8,2.1,1.8,3.9,3.1,5.4 c1.3,1.5,2.9,2.7,4.8,3.5c1.9,0.8,3.9,1.2,6.1,1.2c2.2,0,4.2-0.4,6-1.2c1.8-0.8,3.4-2,4.8-3.5c1.4-1.5,2.4-3.3,3.2-5.4 c0.8-2.1,1.1-4.4,1.1-6.9c0-2.4-0.4-4.7-1.1-6.8c-0.8-2.1-1.8-3.8-3.2-5.2c-1.4-1.4-3-2.5-4.8-3.3c-1.8-0.8-3.8-1.2-6-1.2 c-2.2,0-4.2,0.4-6.1,1.2c-1.9,0.8-3.5,1.9-4.8,3.3c-1.3,1.4-2.4,3.1-3.1,5.2C285.8,71.4,285.4,73.6,285.4,76.1z" fill="#D20014" stroke="black"/>
		
		
		
		
		
		
		
		
		
		
	</g>
</svg>