<?xml version="1.0" encoding="iso-8859-1"?><svg id="Layer_1" style="enable-background:new 0 0 836.8 153.1" version="1.0" viewBox="0 0 836.8 153.1" x="0px" xml:space="preserve" xmlns="http://www.w3.org/2000/svg" xmlns:xlink="http://www.w3.org/1999/xlink" y="0px">
	<g>
		<path animation_id="0" d="M191.3,38.3h33c3.7,0,7.5,0.4,11.2,1.1c3.7,0.8,7,2.1,9.9,4c2.9,1.9,5.3,4.5,7.1,7.7c1.8,3.2,2.7,7.2,2.7,12.1 c0,4.7-1.2,8.8-3.5,12.4c-2.3,3.6-5.6,6.3-9.9,8.3l19.4,31h-29.6L217,87.4h-0.8v27.3h-25V38.3z M216.1,70.6h5 c0.9,0,1.8-0.1,2.8-0.2c1-0.1,2-0.4,2.9-0.9c0.9-0.5,1.6-1.1,2.3-1.9c0.6-0.8,0.9-1.9,0.9-3.3c0-1.4-0.3-2.4-0.8-3.2 c-0.5-0.8-1.1-1.4-1.9-1.8c-0.8-0.4-1.6-0.6-2.6-0.8c-0.9-0.1-1.8-0.2-2.6-0.2h-6.1V70.6z" fill="#D20014" stroke="black"/>
		
		
		
		
		
		
		
		
		
		
		
	</g>
</svg>