<?xml version="1.0" encoding="iso-8859-1"?><!-- Created with Inkscape (http://www.inkscape.org/) --><svg height="86.330872" id="svg2" version="1.1" width="329.96237" xml:space="preserve" xmlns="http://www.w3.org/2000/svg" xmlns:cc="http://creativecommons.org/ns#" xmlns:dc="http://purl.org/dc/elements/1.1/" xmlns:rdf="http://www.w3.org/1999/02/22-rdf-syntax-ns#" xmlns:svg="http://www.w3.org/2000/svg">
	<metadata id="metadata8">
		<rdf:RDF>
			<cc:Work rdf:about="">
				<dc:format>image/svg+xml</dc:format>
				<dc:type rdf:resource="http://purl.org/dc/dcmitype/StillImage"/>
				<dc:title/>
			</cc:Work>
		</rdf:RDF>
	</metadata>
	<defs id="defs6">
		<clipPath id="clipPath16">
			
		</clipPath>
		<clipPath id="clipPath30">
			
		</clipPath>
		<clipPath id="clipPath30-1">
			
		</clipPath>
	</defs>
	<g id="g10" transform="matrix(1.25,0,0,-1.25,-226.88442,376.79555)">
		<g id="g26" style="fill:#000000" transform="translate(4.5164352,39.94054)">
			<g clip-path="url(#clipPath30-1)" id="g28" style="fill:#000000">
				<g id="g34" style="fill:#000000" transform="translate(348.9904,203.6768)">
					<path animation_id="3" d="M 0,0 -0.439,0 C -0.844,-0.297 -1.516,-0.734 -2.232,-1.202 -2.935,-1.657 -3.67,-2.078 -4.279,-2.391 l 0.251,-0.452 c 0.703,0.327 1.484,0.704 2.124,1.001 l 0,-7.859 c 0,-0.826 -0.766,-0.844 -1.454,-0.844 l -0.343,0 0,-0.464 c 0.953,0 1.891,0.059 2.843,0.043 0.872,0 1.748,-0.043 2.622,-0.043 l 0,0.464 -0.358,0 c -0.752,0 -1.406,0 -1.406,0.859 L 0,0 z m 5.449,-8.702 c 0,-1.733 1.748,-2.543 3.263,-2.543 1.766,0 3.389,1.216 3.389,3.122 0,1.468 -1.061,2.438 -2.311,2.969 1.047,0.486 2.124,1.376 2.124,2.641 C 11.914,-0.841 10.494,0 9.01,0 7.666,0 5.697,-0.732 5.697,-3.013 c 0,-1.374 0.688,-2.188 1.687,-2.826 L 7.603,-5.981 C 6.339,-6.497 5.449,-7.215 5.449,-8.702 m 1.278,0.142 c 0,0.955 0.439,1.892 1.251,2.376 1.11,-0.674 2.469,-1.236 2.469,-2.766 0,-0.984 -0.657,-1.733 -1.671,-1.733 -1.251,0 -2.049,0.888 -2.049,2.123 m 0.468,6.281 c 0,0.876 0.72,1.719 1.626,1.719 1.142,0 1.813,-0.984 1.813,-2.063 0,-0.905 -0.468,-1.797 -1.219,-2.31 -1.111,0.56 -2.22,1.233 -2.22,2.654 m 9.374,-3.671 c 0.344,0.093 0.827,0.203 1.343,0.203 1.11,0 1.938,-0.939 1.938,-2.454 0,-1.327 -0.904,-2.482 -2.282,-2.482 -0.779,0 -1.469,0.437 -1.703,1.216 -0.124,0.015 -0.436,-0.031 -0.654,-0.123 -0.078,-0.033 -0.172,-0.096 -0.172,-0.156 0,-0.127 0.016,-0.439 0.111,-0.642 0.279,-0.67 1.28,-0.857 1.997,-0.857 2.142,0 4.607,1.592 4.607,3.952 0,1.733 -1.34,2.529 -2.918,2.42 l 0,0.031 c 1.217,0.609 2.247,1.345 2.247,2.861 C 21.083,-0.747 19.836,0 18.726,0 17.43,0 16.288,-0.857 15.523,-1.856 l 0.312,-0.328 c 0.486,0.516 1.142,0.939 1.875,0.939 0.968,0 1.626,-0.691 1.626,-1.643 0,-1.345 -1.58,-2.188 -2.859,-2.594 l 0.092,-0.468 z m 13.357,1.169 c -0.359,-0.233 -0.608,-0.404 -1.125,-0.404 -1.297,0 -2.047,1.485 -2.047,2.703 0,1.015 0.485,1.922 1.609,1.922 1.641,0 2.125,-2.578 2.125,-3.751 0,-3.388 -2.422,-5.763 -5.592,-6.512 l 0.219,-0.422 c 3.421,0.515 7.277,3.297 7.277,7.059 0,2.172 -1.278,4.186 -3.653,4.186 -1.938,0 -3.733,-1.403 -3.733,-3.452 0,-1.546 0.872,-2.98 2.654,-2.98 0.985,0 1.924,0.606 2.314,1.262 l -0.048,0.389 z" id="path36" stroke="black" style="fill:#000000;fill-opacity:1;fill-rule:nonzero;"/>
				</g>
				<g id="g38" style="fill:#000000" transform="translate(192.8381,238.0454)">
					
				</g>
				<g id="g42" style="fill:#000000" transform="translate(224.6044,239.1549)">
					
				</g>
				<g id="g46" style="fill:#000000" transform="translate(303.3527,260.1504)">
					
				</g>
				<g id="g50" style="fill:#000000" transform="translate(350.6509,246.9977)">
					
				</g>
				<g id="g54" style="fill:#000000" transform="translate(402.3023,260.1504)">
					
				</g>
				<g id="g58" style="fill:#000000" transform="translate(417.9858,260.1504)">
					
				</g>
				<g id="g62" style="fill:#000000" transform="translate(325.7692,203.1901)">
					
				</g>
				<g id="g66" style="fill:#000000" transform="translate(310.7132,192.6611)">
					
				</g>
				<g id="g70" style="fill:#000000" transform="translate(298.3777,197.7316)">
					
				</g>
				<g id="g74" style="fill:#000000" transform="translate(291.7059,195.3422)">
					
				</g>
				<g id="g78" style="fill:#000000" transform="translate(269.0464,203.1901)">
					
				</g>
				<g id="g82" style="fill:#000000" transform="translate(252.3546,196.188)">
					
				</g>
				<g id="g86" style="fill:#000000" transform="translate(257.8543,205.0646)">
					
				</g>
				<g id="g90" style="fill:#000000" transform="translate(254.5898,205.0646)">
					
				</g>
				<g id="g94" style="fill:#000000" transform="translate(236.8125,203.1901)">
					
				</g>
			</g>
		</g>
	</g>
</svg>