<?xml version="1.0" encoding="iso-8859-1"?><!-- Created with Inkscape (http://www.inkscape.org/) --><svg height="86.330872" id="svg2" version="1.1" width="329.96237" xml:space="preserve" xmlns="http://www.w3.org/2000/svg" xmlns:cc="http://creativecommons.org/ns#" xmlns:dc="http://purl.org/dc/elements/1.1/" xmlns:rdf="http://www.w3.org/1999/02/22-rdf-syntax-ns#" xmlns:svg="http://www.w3.org/2000/svg">
	<metadata id="metadata8">
		<rdf:RDF>
			<cc:Work rdf:about="">
				<dc:format>image/svg+xml</dc:format>
				<dc:type rdf:resource="http://purl.org/dc/dcmitype/StillImage"/>
				<dc:title/>
			</cc:Work>
		</rdf:RDF>
	</metadata>
	<defs id="defs6">
		<clipPath id="clipPath16">
			
		</clipPath>
		<clipPath id="clipPath30">
			
		</clipPath>
		<clipPath id="clipPath30-1">
			
		</clipPath>
	</defs>
	<g id="g10" transform="matrix(1.25,0,0,-1.25,-226.88442,376.79555)">
		<g id="g26" style="fill:#000000" transform="translate(4.5164352,39.94054)">
			<g clip-path="url(#clipPath30-1)" id="g28" style="fill:#000000">
				<g id="g34" style="fill:#000000" transform="translate(348.9904,203.6768)">
					
				</g>
				<g id="g38" style="fill:#000000" transform="translate(192.8381,238.0454)">
					
				</g>
				<g id="g42" style="fill:#000000" transform="translate(224.6044,239.1549)">
					
				</g>
				<g id="g46" style="fill:#000000" transform="translate(303.3527,260.1504)">
					
				</g>
				<g id="g50" style="fill:#000000" transform="translate(350.6509,246.9977)">
					
				</g>
				<g id="g54" style="fill:#000000" transform="translate(402.3023,260.1504)">
					
				</g>
				<g id="g58" style="fill:#000000" transform="translate(417.9858,260.1504)">
					
				</g>
				<g id="g62" style="fill:#000000" transform="translate(325.7692,203.1901)">
					
				</g>
				<g id="g66" style="fill:#000000" transform="translate(310.7132,192.6611)">
					
				</g>
				<g id="g70" style="fill:#000000" transform="translate(298.3777,197.7316)">
					
				</g>
				<g id="g74" style="fill:#000000" transform="translate(291.7059,195.3422)">
					
				</g>
				<g id="g78" style="fill:#000000" transform="translate(269.0464,203.1901)">
					<path animation_id="14" d="M 0,0 C -0.477,0 -0.935,-0.056 -1.41,-0.056 -2.012,-0.056 -2.63,0 -3.232,0 l 0,-0.448 0.207,0 c 0.712,0 1.441,-0.516 1.441,-1.359 l 0,-6.356 c 0,-1.21 -0.333,-1.92 -1.425,-1.92 l -0.223,0 0,-0.446 c 0.713,0 1.442,0.055 2.154,0.055 0.681,0 1.363,-0.055 2.044,-0.055 l 0,0.446 -0.27,0 c -1.219,0 -1.489,0.456 -1.489,1.771 l 0,6.216 8.163,-8.662 0.601,0 c -0.079,0.466 -0.095,0.995 -0.095,1.524 l 0,6.866 c 0,1.798 0.744,1.92 1.41,1.92 l 0.238,0 0,0.448 C 8.873,0 8.226,-0.056 7.575,-0.056 6.832,-0.056 6.103,0 5.357,0 l 0,-0.448 0.35,0 c 0.476,0 1.379,-0.182 1.379,-1.419 l 0,-5.661 L 7.053,-7.561 0,0 z" id="path80" stroke="black" style="fill:#000000;fill-opacity:1;fill-rule:nonzero;"/>
				</g>
				<g id="g82" style="fill:#000000" transform="translate(252.3546,196.188)">
					
				</g>
				<g id="g86" style="fill:#000000" transform="translate(257.8543,205.0646)">
					
				</g>
				<g id="g90" style="fill:#000000" transform="translate(254.5898,205.0646)">
					
				</g>
				<g id="g94" style="fill:#000000" transform="translate(236.8125,203.1901)">
					
				</g>
			</g>
		</g>
	</g>
</svg>