<?xml version="1.0" encoding="iso-8859-1"?><!-- Created with Inkscape (http://www.inkscape.org/) --><svg height="86.330872" id="svg2" version="1.1" width="329.96237" xml:space="preserve" xmlns="http://www.w3.org/2000/svg" xmlns:cc="http://creativecommons.org/ns#" xmlns:dc="http://purl.org/dc/elements/1.1/" xmlns:rdf="http://www.w3.org/1999/02/22-rdf-syntax-ns#" xmlns:svg="http://www.w3.org/2000/svg">
	<metadata id="metadata8">
		<rdf:RDF>
			<cc:Work rdf:about="">
				<dc:format>image/svg+xml</dc:format>
				<dc:type rdf:resource="http://purl.org/dc/dcmitype/StillImage"/>
				<dc:title/>
			</cc:Work>
		</rdf:RDF>
	</metadata>
	<defs id="defs6">
		<clipPath id="clipPath16">
			
		</clipPath>
		<clipPath id="clipPath30">
			
		</clipPath>
		<clipPath id="clipPath30-1">
			
		</clipPath>
	</defs>
	<g id="g10" transform="matrix(1.25,0,0,-1.25,-226.88442,376.79555)">
		<g id="g26" style="fill:#000000" transform="translate(4.5164352,39.94054)">
			<g clip-path="url(#clipPath30-1)" id="g28" style="fill:#000000">
				<g id="g34" style="fill:#000000" transform="translate(348.9904,203.6768)">
					
				</g>
				<g id="g38" style="fill:#000000" transform="translate(192.8381,238.0454)">
					
				</g>
				<g id="g42" style="fill:#000000" transform="translate(224.6044,239.1549)">
					
				</g>
				<g id="g46" style="fill:#000000" transform="translate(303.3527,260.1504)">
					
				</g>
				<g id="g50" style="fill:#000000" transform="translate(350.6509,246.9977)">
					
				</g>
				<g id="g54" style="fill:#000000" transform="translate(402.3023,260.1504)">
					
				</g>
				<g id="g58" style="fill:#000000" transform="translate(417.9858,260.1504)">
					
				</g>
				<g id="g62" style="fill:#000000" transform="translate(325.7692,203.1901)">
					
				</g>
				<g id="g66" style="fill:#000000" transform="translate(310.7132,192.6611)">
					
				</g>
				<g id="g70" style="fill:#000000" transform="translate(298.3777,197.7316)">
					
				</g>
				<g id="g74" style="fill:#000000" transform="translate(291.7059,195.3422)">
					
				</g>
				<g id="g78" style="fill:#000000" transform="translate(269.0464,203.1901)">
					
				</g>
				<g id="g82" style="fill:#000000" transform="translate(252.3546,196.188)">
					
				</g>
				<g id="g86" style="fill:#000000" transform="translate(257.8543,205.0646)">
					
				</g>
				<g id="g90" style="fill:#000000" transform="translate(254.5898,205.0646)">
					
				</g>
				<g id="g94" style="fill:#000000" transform="translate(236.8125,203.1901)">
					<path animation_id="18" d="M 0,0 C -0.476,0 -0.951,-0.056 -1.425,-0.056 -2.075,-0.056 -2.708,0 -3.358,0 l 0,-0.448 0.206,0 c 0.698,0 1.378,-0.29 1.378,-1.133 0,-0.604 -0.062,-1.587 -0.189,-2.658 L -2.44,-8.434 c -0.143,-1.09 -0.19,-1.603 -1.442,-1.649 l -0.221,0 0,-0.446 c 0.618,0.027 1.251,0.055 1.87,0.055 0.712,0 1.441,-0.028 2.153,-0.055 l 0,0.446 -0.19,0 c -0.443,0.016 -0.776,0.032 -1.014,0.167 -0.205,0.138 -0.332,0.376 -0.332,0.863 l 0.538,6.624 0.032,0 3.836,-8.329 0.381,0 4.041,8.496 0.032,0 0.444,-6.372 c 0.016,-0.391 0.016,-0.557 0.016,-0.739 0,-0.66 -0.539,-0.66 -1.363,-0.71 l 0,-0.446 c 0.871,0.027 1.743,0.055 2.614,0.055 0.761,0 1.536,-0.028 2.281,-0.055 l 0,0.446 c -0.95,0.032 -1.347,0.094 -1.411,0.847 l -0.601,6.914 c -0.032,0.332 -0.095,0.787 -0.079,1.177 0.032,0.666 0.998,0.697 1.473,0.697 l 0.143,0 0,0.448 C 10.206,0 9.637,-0.056 9.081,-0.056 8.512,-0.056 7.941,0 7.467,0 L 3.71,-7.893 0,0 z" id="path96" stroke="black" style="fill:#000000;fill-opacity:1;fill-rule:nonzero;"/>
				</g>
			</g>
		</g>
	</g>
</svg>