<?xml version="1.0" encoding="iso-8859-1"?><!-- Created with Inkscape (http://www.inkscape.org/) --><svg height="86.330872" id="svg2" version="1.1" width="329.96237" xml:space="preserve" xmlns="http://www.w3.org/2000/svg" xmlns:cc="http://creativecommons.org/ns#" xmlns:dc="http://purl.org/dc/elements/1.1/" xmlns:rdf="http://www.w3.org/1999/02/22-rdf-syntax-ns#" xmlns:svg="http://www.w3.org/2000/svg">
	<metadata id="metadata8">
		<rdf:RDF>
			<cc:Work rdf:about="">
				<dc:format>image/svg+xml</dc:format>
				<dc:type rdf:resource="http://purl.org/dc/dcmitype/StillImage"/>
				<dc:title/>
			</cc:Work>
		</rdf:RDF>
	</metadata>
	<defs id="defs6">
		<clipPath id="clipPath16">
			
		</clipPath>
		<clipPath id="clipPath30">
			
		</clipPath>
		<clipPath id="clipPath30-1">
			
		</clipPath>
	</defs>
	<g id="g10" transform="matrix(1.25,0,0,-1.25,-226.88442,376.79555)">
		<g id="g26" style="fill:#000000" transform="translate(4.5164352,39.94054)">
			<g clip-path="url(#clipPath30-1)" id="g28" style="fill:#000000">
				<g id="g34" style="fill:#000000" transform="translate(348.9904,203.6768)">
					
				</g>
				<g id="g38" style="fill:#000000" transform="translate(192.8381,238.0454)">
					
				</g>
				<g id="g42" style="fill:#000000" transform="translate(224.6044,239.1549)">
					
				</g>
				<g id="g46" style="fill:#000000" transform="translate(303.3527,260.1504)">
					
				</g>
				<g id="g50" style="fill:#000000" transform="translate(350.6509,246.9977)">
					<path animation_id="7" d="m 0,0 c -2.854,5.627 -8.004,8.795 -14.737,8.795 -9.112,0 -15.847,-6.339 -15.847,-16.638 0,-10.301 6.735,-16.636 15.847,-16.636 6.891,0 12.041,3.406 14.657,8.952 l 5.625,-2.617 c -3.883,-7.685 -11.805,-12.042 -20.282,-12.042 -11.17,0 -22.501,7.844 -22.501,22.343 0,14.498 11.725,22.341 22.501,22.341 7.922,0 16.32,-3.723 20.362,-11.724 L 0,0 z" id="path52" stroke="black" style="fill:#000000;fill-opacity:1;fill-rule:nonzero;"/>
				</g>
				<g id="g54" style="fill:#000000" transform="translate(402.3023,260.1504)">
					
				</g>
				<g id="g58" style="fill:#000000" transform="translate(417.9858,260.1504)">
					
				</g>
				<g id="g62" style="fill:#000000" transform="translate(325.7692,203.1901)">
					
				</g>
				<g id="g66" style="fill:#000000" transform="translate(310.7132,192.6611)">
					
				</g>
				<g id="g70" style="fill:#000000" transform="translate(298.3777,197.7316)">
					
				</g>
				<g id="g74" style="fill:#000000" transform="translate(291.7059,195.3422)">
					
				</g>
				<g id="g78" style="fill:#000000" transform="translate(269.0464,203.1901)">
					
				</g>
				<g id="g82" style="fill:#000000" transform="translate(252.3546,196.188)">
					
				</g>
				<g id="g86" style="fill:#000000" transform="translate(257.8543,205.0646)">
					
				</g>
				<g id="g90" style="fill:#000000" transform="translate(254.5898,205.0646)">
					
				</g>
				<g id="g94" style="fill:#000000" transform="translate(236.8125,203.1901)">
					
				</g>
			</g>
		</g>
	</g>
</svg>