<?xml version="1.0" encoding="iso-8859-1"?><svg height="121pt" id="svg4152" inkscape:version="0.91 r13725" sodipodi:docname="Rothenberger_Gruppe.svg" version="1.1" viewBox="0 0 693 121" width="693pt" xmlns="http://www.w3.org/2000/svg" xmlns:cc="http://creativecommons.org/ns#" xmlns:dc="http://purl.org/dc/elements/1.1/" xmlns:inkscape="http://www.inkscape.org/namespaces/inkscape" xmlns:rdf="http://www.w3.org/1999/02/22-rdf-syntax-ns#" xmlns:sodipodi="http://sodipodi.sourceforge.net/DTD/sodipodi-0.dtd" xmlns:svg="http://www.w3.org/2000/svg">
	
  
	<metadata id="metadata4278">
		
    
		<rdf:RDF>
			
      
			<cc:Work rdf:about="">
				
        
				<dc:format>image/svg+xml</dc:format>
				
        
				<dc:type rdf:resource="http://purl.org/dc/dcmitype/StillImage"/>
				
      
			</cc:Work>
			
    
		</rdf:RDF>
		
  
	</metadata>
	
  
	<defs id="defs4276"/>
	
  
	<sodipodi:namedview bordercolor="#666666" borderopacity="1" gridtolerance="10" guidetolerance="10" id="namedview4274" inkscape:current-layer="svg4152" inkscape:cx="645.7128" inkscape:cy="199.52647" inkscape:pageopacity="0" inkscape:pageshadow="2" inkscape:window-height="1017" inkscape:window-maximized="1" inkscape:window-width="1920" inkscape:window-x="-8" inkscape:window-y="-8" inkscape:zoom="0.57139942" objecttolerance="10" pagecolor="#ffffff" showgrid="false"/>
	
  
	
	
  
	<path animation_id="1" d=" M 102.50 23.00 C 109.99 23.00 117.47 23.00 124.96 22.99 C 129.73 23.01 134.98 23.94 138.43 27.51 C 141.79 30.73 141.97 36.07 140.38 40.19 C 139.01 43.72 135.56 45.64 132.28 47.10 C 134.48 48.35 136.52 49.99 137.56 52.36 C 140.42 58.17 142.69 64.26 145.28 70.20 L 144.93 70.25 C 140.39 70.32 135.85 70.21 131.30 70.25 C 129.20 64.91 128.04 59.05 124.67 54.31 C 122.49 51.34 118.44 52.08 115.25 51.96 C 115.25 58.06 115.25 64.15 115.25 70.25 C 111.00 70.25 106.75 70.24 102.50 70.25 C 102.51 54.50 102.50 38.75 102.50 23.00 Z" fill="#1f1d22" id="path4158" stroke="black"/>
	
  
	
	
  
	
	
  
	
	
  
	
	
  
	
	
  
	
	
  
	
	
  
	
	
  
	
	
  
	
	
  
	
	
  
	
	
  
	
	
  
	
	
  
	
	
  
	
	
  
	
	
  
	
	
  
	
	
  
	
	
  
	
	
  
	
	
  
	
	
  
	
	
  
	
	
  
	
	
  
	
	
  
	
	
  
	
	
  
	
	
  
	
	
  
	
	
  
	
	
  
	
	
  
	
	
  
	
	
  
	
	
  
	
	
  
	
	
  
	
	
  
	
	
  
	
	
  
	
	
  
	
	
  
	
	
  
	
	
  
	
	
  
	
	
  
	
	
  
	
	
  
	
	
  
	
	
  
	
	
  
	
	
  
	
	
  
	
	
  
	
	

</svg>