<?xml version="1.0" encoding="iso-8859-1"?><svg height="121pt" id="svg4152" inkscape:version="0.91 r13725" sodipodi:docname="Rothenberger_Gruppe.svg" version="1.1" viewBox="0 0 693 121" width="693pt" xmlns="http://www.w3.org/2000/svg" xmlns:cc="http://creativecommons.org/ns#" xmlns:dc="http://purl.org/dc/elements/1.1/" xmlns:inkscape="http://www.inkscape.org/namespaces/inkscape" xmlns:rdf="http://www.w3.org/1999/02/22-rdf-syntax-ns#" xmlns:sodipodi="http://sodipodi.sourceforge.net/DTD/sodipodi-0.dtd" xmlns:svg="http://www.w3.org/2000/svg">
	
  
	<metadata id="metadata4278">
		
    
		<rdf:RDF>
			
      
			<cc:Work rdf:about="">
				
        
				<dc:format>image/svg+xml</dc:format>
				
        
				<dc:type rdf:resource="http://purl.org/dc/dcmitype/StillImage"/>
				
      
			</cc:Work>
			
    
		</rdf:RDF>
		
  
	</metadata>
	
  
	<defs id="defs4276"/>
	
  
	<sodipodi:namedview bordercolor="#666666" borderopacity="1" gridtolerance="10" guidetolerance="10" id="namedview4274" inkscape:current-layer="svg4152" inkscape:cx="645.7128" inkscape:cy="199.52647" inkscape:pageopacity="0" inkscape:pageshadow="2" inkscape:window-height="1017" inkscape:window-maximized="1" inkscape:window-width="1920" inkscape:window-x="-8" inkscape:window-y="-8" inkscape:zoom="0.57139942" objecttolerance="10" pagecolor="#ffffff" showgrid="false"/>
	
  
	
	
  
	
	
  
	
	
  
	
	
  
	
	
  
	
	
  
	
	
  
	
	
  
	<path animation_id="8" d=" M 440.00 23.00 C 451.08 23.00 462.17 23.00 473.25 23.00 C 473.24 26.00 473.24 29.00 473.25 32.00 C 466.41 32.00 459.58 32.00 452.75 32.00 C 452.74 35.17 452.74 38.33 452.75 41.50 C 459.25 41.51 465.75 41.50 472.25 41.50 C 472.25 44.50 472.25 47.50 472.25 50.50 C 465.75 50.50 459.25 50.49 452.75 50.50 C 452.75 54.08 452.75 57.67 452.75 61.25 C 459.83 61.25 466.91 61.26 474.00 61.24 C 474.00 64.25 474.00 67.25 474.00 70.25 C 462.67 70.24 451.33 70.25 440.00 70.25 C 440.00 54.50 440.00 38.75 440.00 23.00 Z" fill="#1f1d22" id="path4172" stroke="black"/>
	
  
	
	
  
	
	
  
	
	
  
	
	
  
	
	
  
	
	
  
	
	
  
	
	
  
	
	
  
	
	
  
	
	
  
	
	
  
	
	
  
	
	
  
	
	
  
	
	
  
	
	
  
	
	
  
	
	
  
	
	
  
	
	
  
	
	
  
	
	
  
	
	
  
	
	
  
	
	
  
	
	
  
	
	
  
	
	
  
	
	
  
	
	
  
	
	
  
	
	
  
	
	
  
	
	
  
	
	
  
	
	
  
	
	
  
	
	
  
	
	
  
	
	
  
	
	
  
	
	
  
	
	
  
	
	
  
	
	
  
	
	
  
	
	
  
	
	
  
	
	

</svg>