<?xml version="1.0" encoding="iso-8859-1"?><!-- Created with Inkscape (http://www.inkscape.org/) --><svg height="203" id="svg2" version="1.0" viewBox="-0.963 -0.503 437 203" width="437" xml:space="preserve" xmlns="http://www.w3.org/2000/svg" xmlns:svg="http://www.w3.org/2000/svg">
	
	
	<defs id="defs4">
	</defs>
	
	
	<g id="g6">
		
		
		<g id="g8">
			
			
			<g id="g10">
				
				
				<path animation_id="0" d="M 4.346,85.674 L 32.051,85.674 L 32.051,57.969 L 57.427,57.969 C 64.414,57.969 68.716,60.298 68.716,73.335 C 68.716,77.173 68.838,82.065 70.347,85.674 L 100.728,85.674 C 97.237,81.485 96.773,76.245 95.489,59.834 C 94.796,50.869 90.718,46.68 85.479,44.937 L 85.479,44.703 C 92.93,42.843 98.75,36.788 98.75,25.724 C 98.75,11.876 91.299,2.565 70.933,2.565 L 4.346,2.565 L 4.346,85.674 M 32.051,21.187 L 58.706,21.187 C 65.459,21.187 69.067,24.678 69.067,30.152 C 69.067,35.855 65.459,39.346 58.706,39.346 L 32.051,39.346 L 32.051,21.187 z " id="path12" stroke="black" style="fill:#131c39;fill-rule:evenodd"/>
				
			
			</g>
			
		
		</g>
		
		
		<g id="g14">
			
			
			<g id="g16">
				
				
				
				
			
			</g>
			
		
		</g>
		
		
		<g id="g20">
			
			
			
			
		
		</g>
		
		
		<g id="g24">
			
			
			
			
		
		</g>
		
		
		<g id="g28">
			
			
			<g id="g30">
				
				
				
				
			
			</g>
			
		
		</g>
		
		
		<g id="g34">
			
			
			<g id="g36">
				
				
				
				
			
			</g>
			
		
		</g>
		
		
		<g id="g40">
			
			
			<g id="g42">
				
				
				
				
			
			</g>
			
		
		</g>
		
		
		<g id="g46">
			
			
			
			
		
		</g>
		
	
	</g>
	

</svg>