<?xml version="1.0" encoding="iso-8859-1"?><svg height="121pt" id="svg4152" inkscape:version="0.91 r13725" sodipodi:docname="Rothenberger_Gruppe.svg" version="1.1" viewBox="0 0 693 121" width="693pt" xmlns="http://www.w3.org/2000/svg" xmlns:cc="http://creativecommons.org/ns#" xmlns:dc="http://purl.org/dc/elements/1.1/" xmlns:inkscape="http://www.inkscape.org/namespaces/inkscape" xmlns:rdf="http://www.w3.org/1999/02/22-rdf-syntax-ns#" xmlns:sodipodi="http://sodipodi.sourceforge.net/DTD/sodipodi-0.dtd" xmlns:svg="http://www.w3.org/2000/svg">
	
  
	<metadata id="metadata4278">
		
    
		<rdf:RDF>
			
      
			<cc:Work rdf:about="">
				
        
				<dc:format>image/svg+xml</dc:format>
				
        
				<dc:type rdf:resource="http://purl.org/dc/dcmitype/StillImage"/>
				
      
			</cc:Work>
			
    
		</rdf:RDF>
		
  
	</metadata>
	
  
	<defs id="defs4276"/>
	
  
	<sodipodi:namedview bordercolor="#666666" borderopacity="1" gridtolerance="10" guidetolerance="10" id="namedview4274" inkscape:current-layer="svg4152" inkscape:cx="645.7128" inkscape:cy="199.52647" inkscape:pageopacity="0" inkscape:pageshadow="2" inkscape:window-height="1017" inkscape:window-maximized="1" inkscape:window-width="1920" inkscape:window-x="-8" inkscape:window-y="-8" inkscape:zoom="0.57139942" objecttolerance="10" pagecolor="#ffffff" showgrid="false"/>
	
  
	
	
  
	
	
  
	
	
  
	
	
  
	
	
  
	
	
  
	<path animation_id="6" d=" M 339.25 23.00 C 344.45 23.00 349.66 23.00 354.87 23.00 C 360.07 33.49 365.16 44.03 370.29 54.56 C 369.81 44.04 370.06 33.52 370.00 23.00 C 373.75 23.00 377.50 23.00 381.25 23.00 C 381.24 38.75 381.25 54.50 381.25 70.25 C 376.16 70.25 371.08 70.24 366.00 70.25 C 360.75 59.65 355.30 49.16 350.24 38.47 C 350.50 49.06 350.32 59.66 350.80 70.24 C 346.95 70.25 343.10 70.25 339.24 70.25 C 339.26 54.50 339.25 38.75 339.25 23.00 Z" fill="#1f1d22" id="path4168" stroke="black"/>
	
  
	
	
  
	
	
  
	
	
  
	
	
  
	
	
  
	
	
  
	
	
  
	
	
  
	
	
  
	
	
  
	
	
  
	
	
  
	
	
  
	
	
  
	
	
  
	
	
  
	
	
  
	
	
  
	
	
  
	
	
  
	
	
  
	
	
  
	
	
  
	
	
  
	
	
  
	
	
  
	
	
  
	
	
  
	
	
  
	
	
  
	
	
  
	
	
  
	
	
  
	
	
  
	
	
  
	
	
  
	
	
  
	
	
  
	
	
  
	
	
  
	
	
  
	
	
  
	
	
  
	
	
  
	
	
  
	
	
  
	
	
  
	
	
  
	
	
  
	
	
  
	
	
  
	
	

</svg>