<?xml version="1.0" encoding="iso-8859-1"?><!-- Created with Inkscape (http://www.inkscape.org/) --><svg height="203" id="svg2" version="1.0" viewBox="-0.963 -0.503 437 203" width="437" xml:space="preserve" xmlns="http://www.w3.org/2000/svg" xmlns:svg="http://www.w3.org/2000/svg">
	
	
	<defs id="defs4">
	</defs>
	
	
	<g id="g6">
		
		
		<g id="g8">
			
			
			<g id="g10">
				
				
				
				
			
			</g>
			
		
		</g>
		
		
		<g id="g14">
			
			
			<g id="g16">
				
				
				
				
			
			</g>
			
		
		</g>
		
		
		<g id="g20">
			
			
			
			
		
		</g>
		
		
		<g id="g24">
			
			
			
			
		
		</g>
		
		
		<g id="g28">
			
			
			<g id="g30">
				
				
				<path animation_id="2" d="M 38.154,135.249 C 38.154,131.182 41.689,129.316 46.338,129.316 C 50.869,129.316 53.638,131.875 53.638,135.483 C 53.638,138.857 50.645,142.006 44.785,144.331 C 41.689,141.655 38.154,138.047 38.154,135.249 M 105.166,199.741 L 83.818,179.721 C 89.687,174.013 93.003,169.706 97.207,162.602 L 84.707,153.408 C 81.064,158.764 76.191,165.049 71.992,168.31 L 56.728,153.642 C 66.464,150.849 74.199,145.493 74.199,135.136 C 74.199,122.792 63.144,115.815 44.345,115.815 C 28.09,115.815 14.711,122.216 14.711,136.186 C 14.711,143.168 19.237,147.939 22.558,150.966 C 9.844,153.994 0,161.094 0,175.645 C 0,189.615 10.176,202.3 34.395,202.3 C 49.322,202.3 59.161,197.993 66.465,192.871 L 73.545,199.741 L 105.166,199.741 z M 54.854,181.465 C 51.641,184.024 46.006,186.006 41.026,186.006 C 30.635,186.006 25.44,179.722 25.44,172.964 C 25.44,168.897 28.536,163.418 33.956,161.445 L 54.854,181.465 z " id="path32" stroke="black" style="fill:#131c39;fill-rule:evenodd"/>
				
			
			</g>
			
		
		</g>
		
		
		<g id="g34">
			
			
			<g id="g36">
				
				
				
				
			
			</g>
			
		
		</g>
		
		
		<g id="g40">
			
			
			<g id="g42">
				
				
				
				
			
			</g>
			
		
		</g>
		
		
		<g id="g46">
			
			
			
			
		
		</g>
		
	
	</g>
	

</svg>