<?xml version="1.0" encoding="iso-8859-1"?><!-- Created with Inkscape (http://www.inkscape.org/) --><svg height="203" id="svg2" version="1.0" viewBox="-0.963 -0.503 437 203" width="437" xml:space="preserve" xmlns="http://www.w3.org/2000/svg" xmlns:svg="http://www.w3.org/2000/svg">
	
	
	<defs id="defs4">
	</defs>
	
	
	<g id="g6">
		
		
		<g id="g8">
			
			
			<g id="g10">
				
				
				
				
			
			</g>
			
		
		</g>
		
		
		<g id="g14">
			
			
			<g id="g16">
				
				
				
				
			
			</g>
			
		
		</g>
		
		
		<g id="g20">
			
			
			
			
		
		</g>
		
		
		<g id="g24">
			
			
			
			
		
		</g>
		
		
		<g id="g28">
			
			
			<g id="g30">
				
				
				
				
			
			</g>
			
		
		</g>
		
		
		<g id="g34">
			
			
			<g id="g36">
				
				
				<path animation_id="3" d="M 118.994,199.741 L 146.699,199.741 L 146.699,172.036 L 172.07,172.036 C 179.057,172.036 183.359,174.365 183.359,187.397 C 183.359,191.24 183.476,196.127 184.99,199.741 L 215.371,199.741 C 211.885,195.552 211.416,190.307 210.137,173.901 C 209.434,164.936 205.362,160.747 200.122,158.999 L 200.122,158.765 C 207.568,156.905 213.393,150.85 213.393,139.79 C 213.393,125.937 205.942,116.631 185.571,116.631 L 118.994,116.631 L 118.994,199.741 M 146.699,135.249 L 173.349,135.249 C 180.102,135.249 183.71,138.745 183.71,144.214 C 183.71,149.922 180.102,153.408 173.349,153.408 L 146.699,153.408 L 146.699,135.249 z " id="path38" stroke="black" style="fill:#131c39;fill-rule:evenodd"/>
				
			
			</g>
			
		
		</g>
		
		
		<g id="g40">
			
			
			<g id="g42">
				
				
				
				
			
			</g>
			
		
		</g>
		
		
		<g id="g46">
			
			
			
			
		
		</g>
		
	
	</g>
	

</svg>