<?xml version="1.0" encoding="iso-8859-1"?><svg height="121pt" id="svg4152" inkscape:version="0.91 r13725" sodipodi:docname="Rothenberger_Gruppe.svg" version="1.1" viewBox="0 0 693 121" width="693pt" xmlns="http://www.w3.org/2000/svg" xmlns:cc="http://creativecommons.org/ns#" xmlns:dc="http://purl.org/dc/elements/1.1/" xmlns:inkscape="http://www.inkscape.org/namespaces/inkscape" xmlns:rdf="http://www.w3.org/1999/02/22-rdf-syntax-ns#" xmlns:sodipodi="http://sodipodi.sourceforge.net/DTD/sodipodi-0.dtd" xmlns:svg="http://www.w3.org/2000/svg">
	
  
	<metadata id="metadata4278">
		
    
		<rdf:RDF>
			
      
			<cc:Work rdf:about="">
				
        
				<dc:format>image/svg+xml</dc:format>
				
        
				<dc:type rdf:resource="http://purl.org/dc/dcmitype/StillImage"/>
				
      
			</cc:Work>
			
    
		</rdf:RDF>
		
  
	</metadata>
	
  
	<defs id="defs4276"/>
	
  
	<sodipodi:namedview bordercolor="#666666" borderopacity="1" gridtolerance="10" guidetolerance="10" id="namedview4274" inkscape:current-layer="svg4152" inkscape:cx="645.7128" inkscape:cy="199.52647" inkscape:pageopacity="0" inkscape:pageshadow="2" inkscape:window-height="1017" inkscape:window-maximized="1" inkscape:window-width="1920" inkscape:window-x="-8" inkscape:window-y="-8" inkscape:zoom="0.57139942" objecttolerance="10" pagecolor="#ffffff" showgrid="false"/>
	
  
	
	
  
	
	
  
	
	
  
	
	
  
	
	
  
	<path animation_id="5" d=" M 295.50 23.00 C 306.58 23.00 317.66 23.00 328.75 23.00 C 328.75 26.08 328.74 29.17 328.75 32.25 C 321.92 32.25 315.08 32.25 308.25 32.25 C 308.24 35.33 308.24 38.42 308.25 41.50 C 314.66 41.50 321.08 41.50 327.50 41.50 C 327.50 44.58 327.50 47.67 327.50 50.75 C 321.08 50.75 314.66 50.74 308.25 50.76 C 308.25 54.25 308.25 57.75 308.25 61.24 C 315.33 61.26 322.41 61.25 329.50 61.25 C 329.50 64.25 329.50 67.25 329.51 70.25 C 318.17 70.24 306.83 70.25 295.50 70.25 C 295.50 54.50 295.51 38.75 295.50 23.00 Z" fill="#1f1d22" id="path4166" stroke="black"/>
	
  
	
	
  
	
	
  
	
	
  
	
	
  
	
	
  
	
	
  
	
	
  
	
	
  
	
	
  
	
	
  
	
	
  
	
	
  
	
	
  
	
	
  
	
	
  
	
	
  
	
	
  
	
	
  
	
	
  
	
	
  
	
	
  
	
	
  
	
	
  
	
	
  
	
	
  
	
	
  
	
	
  
	
	
  
	
	
  
	
	
  
	
	
  
	
	
  
	
	
  
	
	
  
	
	
  
	
	
  
	
	
  
	
	
  
	
	
  
	
	
  
	
	
  
	
	
  
	
	
  
	
	
  
	
	
  
	
	
  
	
	
  
	
	
  
	
	
  
	
	
  
	
	
  
	
	
  
	
	

</svg>