<?xml version="1.0" encoding="iso-8859-1"?><svg height="121pt" id="svg4152" inkscape:version="0.91 r13725" sodipodi:docname="Rothenberger_Gruppe.svg" version="1.1" viewBox="0 0 693 121" width="693pt" xmlns="http://www.w3.org/2000/svg" xmlns:cc="http://creativecommons.org/ns#" xmlns:dc="http://purl.org/dc/elements/1.1/" xmlns:inkscape="http://www.inkscape.org/namespaces/inkscape" xmlns:rdf="http://www.w3.org/1999/02/22-rdf-syntax-ns#" xmlns:sodipodi="http://sodipodi.sourceforge.net/DTD/sodipodi-0.dtd" xmlns:svg="http://www.w3.org/2000/svg">
	
  
	<metadata id="metadata4278">
		
    
		<rdf:RDF>
			
      
			<cc:Work rdf:about="">
				
        
				<dc:format>image/svg+xml</dc:format>
				
        
				<dc:type rdf:resource="http://purl.org/dc/dcmitype/StillImage"/>
				
      
			</cc:Work>
			
    
		</rdf:RDF>
		
  
	</metadata>
	
  
	<defs id="defs4276"/>
	
  
	<sodipodi:namedview bordercolor="#666666" borderopacity="1" gridtolerance="10" guidetolerance="10" id="namedview4274" inkscape:current-layer="svg4152" inkscape:cx="645.7128" inkscape:cy="199.52647" inkscape:pageopacity="0" inkscape:pageshadow="2" inkscape:window-height="1017" inkscape:window-maximized="1" inkscape:window-width="1920" inkscape:window-x="-8" inkscape:window-y="-8" inkscape:zoom="0.57139942" objecttolerance="10" pagecolor="#ffffff" showgrid="false"/>
	
  
	
	
  
	
	
  
	
	
  
	
	
  
	
	
  
	
	
  
	
	
  
	
	
  
	
	
  
	
	
  
	<path animation_id="10" d=" M 535.57 29.54 C 545.13 20.47 560.32 20.75 571.60 26.30 C 569.99 29.03 568.33 31.74 566.72 34.47 C 561.00 32.01 554.02 31.04 548.45 34.40 C 540.92 38.39 538.46 49.48 543.87 56.14 C 548.33 61.71 556.54 62.96 562.98 60.49 C 563.00 57.66 562.99 54.83 563.00 52.00 C 559.74 52.00 556.49 52.00 553.24 52.00 C 553.24 49.00 553.24 46.00 553.25 43.00 C 559.91 43.00 566.58 43.00 573.25 43.00 C 573.25 50.83 573.25 58.67 573.24 66.50 C 566.61 70.49 558.65 71.76 551.02 71.08 C 542.06 70.20 533.33 64.60 530.00 56.04 C 526.66 47.15 528.46 36.12 535.57 29.54 Z" fill="#1f1d22" id="path4176" stroke="black"/>
	
  
	
	
  
	
	
  
	
	
  
	
	
  
	
	
  
	
	
  
	
	
  
	
	
  
	
	
  
	
	
  
	
	
  
	
	
  
	
	
  
	
	
  
	
	
  
	
	
  
	
	
  
	
	
  
	
	
  
	
	
  
	
	
  
	
	
  
	
	
  
	
	
  
	
	
  
	
	
  
	
	
  
	
	
  
	
	
  
	
	
  
	
	
  
	
	
  
	
	
  
	
	
  
	
	
  
	
	
  
	
	
  
	
	
  
	
	
  
	
	
  
	
	
  
	
	
  
	
	
  
	
	
  
	
	
  
	
	
  
	
	
  
	
	

</svg>