<?xml version="1.0" encoding="iso-8859-1"?><!DOCTYPE svg  PUBLIC '-//W3C//DTD SVG 1.0//EN'  'http://www.w3.org/TR/2001/REC-SVG-20010904/DTD/svg10.dtd'><!-- Created with Inkscape (http://www.inkscape.org/) by Steadfast--><svg height="215" id="svg2678" version="1.0" width="900" xmlns="http://www.w3.org/2000/svg" xmlns:svg="http://www.w3.org/2000/svg">
	
  
	<defs id="defs2680"/>
	
  
	<g id="layer1">
		
    
		<g id="g2707" transform="matrix(4.1392457,0,0,4.1392457,-833.16617,-546.81735)">
			
      
			<path animation_id="0" d="M 206.65419,146.26466 L 206.65419,169.88716 L 209.60669,169.88716 L 209.60669,175.79216 L 245.03919,175.79216 L 245.03919,169.88716 L 250.94544,169.88716 L 250.94544,175.79216 L 286.37794,175.79216 L 286.37794,169.88716 L 292.28419,169.88716 L 292.28419,175.79216 L 327.71669,175.79216 L 327.71669,169.88716 L 330.66919,169.88716 L 330.66919,146.26466 L 327.71669,146.26466 L 327.71669,140.35966 L 292.28419,140.35966 L 292.28419,146.26466 L 286.37794,146.26466 L 286.37794,140.35966 L 250.94544,140.35966 L 250.94544,146.26466 L 245.03919,146.26466 L 245.03919,140.35966 L 209.60669,140.35966 L 209.60669,146.26466 L 206.65419,146.26466 z" id="path163" stroke="black" style="fill:#004b88;fill-opacity:1;fill-rule:nonzero;stroke:#004b88;stroke-width:0.45875001;stroke-linecap:butt;stroke-linejoin:miter;stroke-miterlimit:4;stroke-dasharray:none;stroke-opacity:1"/>
			
      
			
			
      
			
			
      
			
			
      
			
			
      
			
			
      
			
			
      
			
			
      
			
			
      
			
			
      
			
			
      
			
			
      
			
			
      
			
			
      
			
			
      
			
			
      
			
			
      
			
			
      
			
			
    
		</g>
		
  
	</g>
	

</svg>