<?xml version="1.0" encoding="iso-8859-1"?><!DOCTYPE svg  PUBLIC '-//W3C//DTD SVG 1.0//EN'  'http://www.w3.org/TR/2001/REC-SVG-20010904/DTD/svg10.dtd'><!-- Created with Inkscape (http://www.inkscape.org/) by Steadfast--><svg height="215" id="svg2678" version="1.0" width="900" xmlns="http://www.w3.org/2000/svg" xmlns:svg="http://www.w3.org/2000/svg">
	
  
	<defs id="defs2680"/>
	
  
	<g id="layer1">
		
    
		<g id="g2707" transform="matrix(4.1392457,0,0,4.1392457,-833.16617,-546.81735)">
			
      
			
			
      
			
			
      
			
			
      
			
			
      
			
			
      
			
			
      
			
			
      
			
			
      
			
			
      
			
			
      
			
			
      
			
			
      
			
			
      
			
			
      
			
			
      
			
			
      
			<path animation_id="16" d="M 284.20919,158.04341 C 284.20919,153.66591 286.38669,150.37591 290.11294,150.37591 C 291.34794,150.37591 292.27544,150.56216 293.13669,150.91966 L 292.85919,154.07591 C 292.27544,153.71841 291.65294,153.48591 290.70794,153.48591 C 288.82794,153.48591 287.58794,155.31591 287.58794,158.05841 C 287.58794,160.71966 288.71294,162.71716 290.80294,162.71716 C 291.68419,162.71716 292.64169,162.34091 293.19419,162.02466 L 293.32419,165.31091 C 292.40919,165.66841 291.44044,165.82591 290.20794,165.82591 C 286.32919,165.82591 284.20919,162.60716 284.20919,158.04341" id="path195" stroke="black" style="fill:#ffffff;fill-opacity:1;fill-rule:nonzero;"/>
			
      
			
			
      
			
			
    
		</g>
		
  
	</g>
	

</svg>