<?xml version="1.0" encoding="iso-8859-1"?><!DOCTYPE svg  PUBLIC '-//W3C//DTD SVG 1.0//EN'  'http://www.w3.org/TR/2001/REC-SVG-20010904/DTD/svg10.dtd'><!-- Created with Inkscape (http://www.inkscape.org/) by Steadfast--><svg height="215" id="svg2678" version="1.0" width="900" xmlns="http://www.w3.org/2000/svg" xmlns:svg="http://www.w3.org/2000/svg">
	
  
	<defs id="defs2680"/>
	
  
	<g id="layer1">
		
    
		<g id="g2707" transform="matrix(4.1392457,0,0,4.1392457,-833.16617,-546.81735)">
			
      
			
			
      
			
			
      
			
			
      
			
			
      
			
			
      
			
			
      
			
			
      
			
			
      
			
			
      
			
			
      
			
			
      
			
			
      
			
			
      
			<path animation_id="13" d="M 237.31419,165.48216 L 237.31419,150.71841 L 240.32419,150.71841 L 240.32419,152.89341 L 240.36919,152.89341 C 241.30794,151.03466 242.74544,150.37591 244.01169,150.37591 C 245.66669,150.37591 246.87294,151.17216 247.53294,153.02341 C 248.28294,151.21091 249.82419,150.37591 251.30794,150.37591 C 254.30169,150.37591 255.11794,152.85591 255.11794,156.26966 L 255.11794,165.48216 L 251.87669,165.48216 L 251.87669,156.82841 C 251.87669,155.40216 251.79669,153.57091 250.13294,153.57091 C 248.19169,153.57091 247.83669,156.34216 247.83669,158.47341 L 247.83669,165.48216 L 244.59544,165.48216 L 244.59544,156.82841 C 244.59544,155.40216 244.51544,153.57091 242.85294,153.57091 C 240.91169,153.57091 240.55669,156.34216 240.55669,158.47341 L 240.55669,165.48216 L 237.31419,165.48216" id="path189" stroke="black" style="fill:#ffffff;fill-opacity:1;fill-rule:nonzero;"/>
			
      
			
			
      
			
			
      
			
			
      
			
			
      
			
			
    
		</g>
		
  
	</g>
	

</svg>