<?xml version="1.0" encoding="iso-8859-1"?><!-- Created with Inkscape (http://www.inkscape.org/) --><svg height="244.64215" id="svg2680" version="1.0" width="830.35638" xmlns="http://www.w3.org/2000/svg" xmlns:svg="http://www.w3.org/2000/svg">
	
  
	<defs id="defs2682"/>
	
  
	<g id="layer1" transform="translate(426.60679,-305.75539)">
		
    
		
		
    
		
		
    
		
		
    
		
		
    
		<path animation_id="4" d="M 23.056006,538.00988 C 23.056006,540.3513 23.056006,542.31964 23.056006,542.31964 L 10.744239,542.31964 C 10.744239,542.31964 10.744239,540.3513 10.744239,538.00988 L 10.744239,452.52222 L 82.414932,452.52222 C 84.589111,452.52222 87.483727,452.52222 87.483727,452.52222 L 87.483727,463.32879 C 87.483727,463.32879 84.589111,463.38025 82.414932,463.38025 L 23.056006,463.38025 L 23.056006,491.73462 L 62.873058,491.73462 C 65.047236,491.73462 67.941852,491.73462 67.941852,491.73462 L 67.941852,502.51546 C 67.941852,502.51546 65.047236,502.60551 62.873058,502.60551 L 23.056006,502.60551 L 23.056006,538.00988" id="path125" stroke="black" style="fill:#231f20;fill-opacity:1;fill-rule:nonzero;"/>
		
    
		
		
    
		
		
    
		
		
    
		
		
    
		
		
  
	</g>
	

</svg>