<?xml version="1.0" encoding="iso-8859-1"?><!-- Created with Inkscape (http://www.inkscape.org/) --><svg height="244.64215" id="svg2680" version="1.0" width="830.35638" xmlns="http://www.w3.org/2000/svg" xmlns:svg="http://www.w3.org/2000/svg">
	
  
	<defs id="defs2682"/>
	
  
	<g id="layer1" transform="translate(426.60679,-305.75539)">
		
    
		<path animation_id="0" d="M -405.50155,520.15332 C -405.1542,520.70651 -403.49462,521.95441 -402.88996,522.52047 C -397.61533,527.51207 -382.96224,533.19839 -368.38614,533.19839 C -348.71561,533.19839 -338.57803,525.91682 -338.57803,516.0494 C -338.57803,490.75688 -410.01715,517.90195 -410.01715,477.93052 C -410.01715,462.63408 -393.60156,451.28719 -370.6761,451.28719 C -359.93386,451.28719 -351.13423,453.51282 -344.85613,455.73846 C -338.46224,457.95123 -333.44491,460.13828 -332.58295,460.56282 L -338.02483,472.24421 C -338.5137,471.66528 -340.3148,470.23727 -341.25404,469.58116 C -346.43852,465.9661 -358.14563,461.65634 -372.85028,461.65634 C -387.92801,461.65634 -399.14636,467.81866 -399.14636,477.81473 C -399.14636,502.60551 -327.72,476.95278 -327.72,515.30323 C -327.72,533.81591 -345.57656,543.55468 -368.86225,543.55468 C -396.25164,543.55468 -408.43476,532.43935 -411.75402,531.44875 L -405.50155,520.15332" id="path117" stroke="black" style="fill:#231f20;fill-opacity:1;fill-rule:nonzero;"/>
		
    
		
		
    
		
		
    
		
		
    
		
		
    
		
		
    
		
		
    
		
		
    
		
		
    
		
		
  
	</g>
	

</svg>