<?xml version="1.0" encoding="iso-8859-1"?><!-- Created with Inkscape (http://www.inkscape.org/) --><svg height="244.64215" id="svg2680" version="1.0" width="830.35638" xmlns="http://www.w3.org/2000/svg" xmlns:svg="http://www.w3.org/2000/svg">
	
  
	<defs id="defs2682"/>
	
  
	<g id="layer1" transform="translate(426.60679,-305.75539)">
		
    
		
		
    
		
		
    
		
		
    
		<path animation_id="3" d="M -119.78365,464.70534 L -126.13894,475.7692 L -131.79952,471.53663 C -137.35718,467.09822 -149.21868,461.65634 -161.00308,461.65634 C -182.60325,461.65634 -200.22835,475.96218 -200.22835,498.54018 C -200.22835,518.87969 -181.88281,533.19839 -163.42159,533.19839 C -151.47015,533.19839 -139.64715,530.48388 -129.99843,522.95788 L -129.99843,508.52339 L -152.67935,508.52339 L -157.74815,508.49766 L -157.74815,498.12851 L -152.67935,498.1671 L -117.69963,498.1671 L -117.68666,503.84055 L -117.68666,527.64072 C -130.71886,538.87183 -143.39085,543.55468 -162.21229,543.55468 C -188.63691,543.55468 -212.52715,526.77877 -212.52715,497.92267 C -212.52715,470.0443 -187.91648,451.28719 -161.37617,451.28719 C -139.05536,451.28719 -122.81978,462.94284 -119.78365,464.70534" id="path123" stroke="black" style="fill:#231f20;fill-opacity:1;fill-rule:nonzero;"/>
		
    
		
		
    
		
		
    
		
		
    
		
		
    
		
		
    
		
		
  
	</g>
	

</svg>