<?xml version="1.0" encoding="iso-8859-1"?><!-- Created with Inkscape (http://www.inkscape.org/) --><svg height="244.64215" id="svg2680" version="1.0" width="830.35638" xmlns="http://www.w3.org/2000/svg" xmlns:svg="http://www.w3.org/2000/svg">
	
  
	<defs id="defs2682"/>
	
  
	<g id="layer1" transform="translate(426.60679,-305.75539)">
		
    
		
		
    
		
		
    
		
		
    
		
		
    
		
		
    
		
		
    
		
		
    
		<path animation_id="7" d="M 318.75712,463.38025 L 358.94725,463.38025 C 370.52572,463.38025 376.19916,469.91565 376.19916,477.19722 C 376.19916,489.03298 368.95619,492.73809 361.353,492.73809 L 318.75712,492.73809 L 318.75712,463.38025 z M 318.73139,542.31964 C 318.73139,542.31964 318.75712,540.3513 318.75712,538.00988 L 318.75712,503.59611 L 352.30893,503.59611 L 369.80528,532.69665 C 371.97946,536.40176 375.59451,542.31964 375.59451,542.31964 L 388.89688,542.31964 C 388.89688,542.31964 387.77763,540.22266 386.56822,538.25432 L 364.85217,502.23243 C 378.96513,502.11664 388.49807,492.73809 388.49807,477.93052 C 388.49807,462.14521 376.67517,452.52222 358.94725,452.52222 L 306.41962,452.52222 C 306.41962,452.52222 306.45821,454.49056 306.45821,456.84485 L 306.45821,538.00988 C 306.45821,540.3513 306.41962,542.31964 306.41962,542.31964 L 318.73139,542.31964" id="path131" stroke="black" style="fill:#231f20;fill-opacity:1;fill-rule:nonzero;"/>
		
    
		
		
    
		
		
  
	</g>
	

</svg>