<?xml version="1.0" encoding="iso-8859-1"?><!-- Created with Inkscape (http://www.inkscape.org/) --><svg height="250.15747" id="svg2" version="1.0" width="814.96063" xmlns="http://www.w3.org/2000/svg" xmlns:svg="http://www.w3.org/2000/svg">
	
  
	<defs id="defs4"/>
	
  
	<g id="layer1" transform="translate(-340.62244,-304.90885)">
		
    
		<g id="g8184" transform="translate(17.716536,17.641875)">
			
      
			
			
      
			
			
      
			
			
      
			
			
      
			
			
      
			
			
      
			
			
      
			
			
      
			
			
      
			
			
      
			
			
      
			
			
      
			
			
      
			
			
      
			
			
      
			
			
      
			
			
      
			
			
      
			
			
      
			
			
      
			
			
      
			
			
      
			
			
      
			<path animation_id="23" d="M 519.74504,375.52548 C 519.74504,384.58891 526.91362,386.02504 535.04756,386.02504 L 550.52562,386.02504 C 558.77528,386.02504 567.08076,385.27906 567.08076,375.06673 L 567.08076,372.37003 C 567.08076,365.31315 562.5291,362.1577 551.66255,362.1577 L 535.16326,362.1577 C 526.45884,362.1577 524.923,360.4942 524.923,355.55959 C 524.923,348.7341 528.73267,348.15963 539.48752,348.15963 L 545.40351,348.15963 C 560.02388,348.15963 560.71002,349.36438 560.82172,355.96249 L 566.05553,355.96249 L 566.05553,354.52638 C 566.05553,347.12645 562.58495,343.57207 548.76239,343.57207 L 536.75494,343.57207 C 525.2621,343.57207 519.68919,345.69431 519.68919,355.16066 C 519.68919,366.17482 525.2621,367.20803 542.27599,367.20803 L 552.8553,367.20803 C 559.79649,367.20803 561.84696,368.52445 561.84696,373.74629 C 561.84696,379.71414 559.45743,381.43349 551.37931,381.43349 L 534.08217,381.43349 C 527.14099,381.43349 524.97885,379.48276 524.97885,375.40979 L 524.97885,372.48572 L 519.74504,372.48572 L 519.74504,375.52548" id="path7822" stroke="black" style="fill:#000000;fill-rule:nonzero;"/>
			
      
			
			
      
			
			
      
			
			
      
			
			
      
			
			
      
			
			
      
			
			
      
			
			
      
			
			
    
		</g>
		
  
	</g>
	

</svg>