<?xml version="1.0" encoding="iso-8859-1"?><!-- Created with Inkscape (http://www.inkscape.org/) --><svg height="250.15747" id="svg2" version="1.0" width="814.96063" xmlns="http://www.w3.org/2000/svg" xmlns:svg="http://www.w3.org/2000/svg">
	
  
	<defs id="defs4"/>
	
  
	<g id="layer1" transform="translate(-340.62244,-304.90885)">
		
    
		<g id="g8184" transform="translate(17.716536,17.641875)">
			
      
			
			
      
			
			
      
			
			
      
			
			
      
			
			
      
			
			
      
			
			
      
			
			
      
			
			
      
			
			
      
			
			
      
			
			
      
			
			
      
			
			
      
			
			
      
			
			
      
			
			
      
			
			
      
			
			
      
			
			
      
			<path animation_id="20" d="M 1109.459,423.88643 C 1109.459,420.08075 1109.5308,418.38932 1113.5559,418.38932 C 1117.581,418.38932 1117.6528,420.08075 1117.6528,423.88643 L 1109.459,423.88643 z M 1119.9147,426.14431 L 1119.9147,423.42769 C 1119.9147,418.52895 1119.0291,416.34288 1113.6277,416.34288 C 1108.1904,416.34288 1106.9897,418.17789 1106.9897,425.61376 C 1106.9897,432.90996 1107.6958,434.88463 1113.6277,434.88463 C 1119.0291,434.88463 1119.9147,433.51236 1119.9147,429.91409 L 1119.9147,429.24391 L 1117.6528,429.24391 C 1117.6528,432.77034 1116.8749,432.84215 1113.2368,432.84215 C 1110.1332,432.84215 1109.459,431.71322 1109.459,427.79983 L 1109.459,426.14431 L 1119.9147,426.14431" id="path7810" stroke="black" style="fill:#000000;fill-rule:evenodd;"/>
			
      
			
			
      
			
			
      
			
			
      
			
			
      
			
			
      
			
			
      
			
			
      
			
			
      
			
			
      
			
			
      
			
			
      
			
			
    
		</g>
		
  
	</g>
	

</svg>