<?xml version="1.0" encoding="iso-8859-1"?><!-- Created with Inkscape (http://www.inkscape.org/) --><svg height="250.15747" id="svg2" version="1.0" width="814.96063" xmlns="http://www.w3.org/2000/svg" xmlns:svg="http://www.w3.org/2000/svg">
	
  
	<defs id="defs4"/>
	
  
	<g id="layer1" transform="translate(-340.62244,-304.90885)">
		
    
		<g id="g8184" transform="translate(17.716536,17.641875)">
			
      
			
			
      
			
			
      
			
			
      
			
			
      
			
			
      
			
			
      
			
			
      
			
			
      
			
			
      
			
			
      
			
			
      
			
			
      
			
			
      
			
			
      
			
			
      
			
			
      
			
			
      
			
			
      
			
			
      
			
			
      
			
			
      
			
			
      
			
			
      
			
			
      
			
			
      
			
			
      
			
			
      
			<path animation_id="27" d="M 780.41466,364.9701 L 753.73096,364.9701 L 753.73096,369.55766 L 774.83776,369.55766 L 774.83776,373.74629 C 774.83776,379.48276 771.42301,381.43349 765.8501,381.43349 L 744.05716,381.43349 C 738.71165,381.43349 734.38738,379.82584 734.38738,372.59742 L 734.38738,356.9957 C 734.38738,349.76728 738.71165,348.15963 744.05716,348.15963 L 758.51001,348.15963 C 772.2767,348.15963 774.61037,348.7341 774.61037,356.47711 L 779.84418,356.47711 L 779.84418,354.98915 C 779.84418,345.40711 771.9376,343.57207 764.54166,343.57207 L 743.4907,343.57207 C 732.33692,343.57207 728.81049,348.61841 728.81049,359.11794 L 728.81049,370.47518 C 728.81049,380.97471 732.33692,386.02504 743.4907,386.02504 L 766.47643,386.02504 C 776.77251,386.02504 780.41466,382.00792 780.41466,370.70653 L 780.41466,364.9701" id="path7838" stroke="black" style="fill:#000000;fill-rule:nonzero;"/>
			
      
			
			
      
			
			
      
			
			
      
			
			
      
			
			
    
		</g>
		
  
	</g>
	

</svg>