<?xml version="1.0" encoding="iso-8859-1"?><!-- Created with Inkscape (http://www.inkscape.org/) --><svg height="250.15747" id="svg2" version="1.0" width="814.96063" xmlns="http://www.w3.org/2000/svg" xmlns:svg="http://www.w3.org/2000/svg">
	
  
	<defs id="defs4"/>
	
  
	<g id="layer1" transform="translate(-340.62244,-304.90885)">
		
    
		<g id="g8184" transform="translate(17.716536,17.641875)">
			
      
			<path animation_id="0" d="M 427.21579,480.89196 C 433.8099,482.89452 440.81093,483.97161 448.06329,483.97161 C 487.62009,483.97161 519.68919,451.90251 519.68919,412.34571 C 519.68919,411.14495 519.65728,409.95219 519.59744,408.7634 L 555.4443,408.7634 C 555.4802,409.95219 555.50015,411.14894 555.50015,412.34571 C 555.50015,471.68089 507.39851,519.78257 448.06329,519.78257 C 434.61971,519.78257 421.7506,517.31326 409.88674,512.80548 L 427.21579,480.89196 z M 376.43739,412.34571 C 376.43739,419.59804 377.51448,426.59507 379.51704,433.19321 L 347.60352,450.52226 C 343.09175,438.6584 340.62244,425.78926 340.62244,412.34571 C 340.62244,353.0065 388.72408,304.90885 448.06329,304.90885 C 449.26003,304.90885 450.45282,304.9288 451.64158,304.9647 L 451.64158,340.80757 C 450.45681,340.75172 449.26402,340.71981 448.06329,340.71981 C 408.5025,340.71981 376.43739,372.78891 376.43739,412.34571" id="path7736" stroke="black" style="fill:#a7a5a5;fill-rule:evenodd;"/>
			
      
			
			
      
			
			
      
			
			
      
			
			
      
			
			
      
			
			
      
			
			
      
			
			
      
			
			
      
			
			
      
			
			
      
			
			
      
			
			
      
			
			
      
			
			
      
			
			
      
			
			
      
			
			
      
			
			
      
			
			
      
			
			
      
			
			
      
			
			
      
			
			
      
			
			
      
			
			
      
			
			
      
			
			
      
			
			
      
			
			
      
			
			
      
			
			
    
		</g>
		
  
	</g>
	

</svg>