<?xml version="1.0" encoding="iso-8859-1"?><!-- Created with Inkscape (http://www.inkscape.org/) --><svg height="250.15747" id="svg2" version="1.0" width="814.96063" xmlns="http://www.w3.org/2000/svg" xmlns:svg="http://www.w3.org/2000/svg">
	
  
	<defs id="defs4"/>
	
  
	<g id="layer1" transform="translate(-340.62244,-304.90885)">
		
    
		<g id="g8184" transform="translate(17.716536,17.641875)">
			
      
			
			
      
			
			
      
			
			
      
			
			
      
			<path animation_id="4" d="M 653.21135,434.60538 L 655.25782,434.60538 L 655.25782,421.45302 C 655.25782,417.96649 654.12887,416.34288 649.11444,416.34288 C 643.50168,416.34288 642.97109,418.45714 642.97109,420.64321 L 642.97109,421.59664 L 645.22897,421.59664 C 645.22897,419.30285 645.30078,418.38932 649.01075,418.38932 C 652.75261,418.38932 652.99991,419.30285 652.99991,421.94767 L 652.99991,425.22679 L 652.92814,425.22679 C 652.11434,423.99414 651.37634,423.60319 647.94962,423.60319 C 643.14663,423.60319 642.33682,425.72147 642.33682,429.24391 C 642.33682,432.69856 643.35806,434.88463 647.94962,434.88463 C 650.59845,434.88463 651.90291,434.46176 653.21135,433.05358 L 653.21135,434.60538 z M 644.5947,429.14019 C 644.5947,426.39165 645.90317,425.64966 648.90304,425.64966 C 651.90291,425.64966 653.21135,426.39165 653.21135,429.14019 C 653.21135,431.88875 651.90291,432.63074 648.90304,432.63074 C 645.90317,432.63074 644.5947,431.88875 644.5947,429.14019" id="path7752" stroke="black" style="fill:#000000;fill-rule:evenodd;"/>
			
      
			
			
      
			
			
      
			
			
      
			
			
      
			
			
      
			
			
      
			
			
      
			
			
      
			
			
      
			
			
      
			
			
      
			
			
      
			
			
      
			
			
      
			
			
      
			
			
      
			
			
      
			
			
      
			
			
      
			
			
      
			
			
      
			
			
      
			
			
      
			
			
      
			
			
      
			
			
      
			
			
      
			
			
    
		</g>
		
  
	</g>
	

</svg>