<?xml version="1.0" encoding="iso-8859-1"?><!-- Created with Inkscape (http://www.inkscape.org/) --><svg height="250.15747" id="svg2" version="1.0" width="814.96063" xmlns="http://www.w3.org/2000/svg" xmlns:svg="http://www.w3.org/2000/svg">
	
  
	<defs id="defs4"/>
	
  
	<g id="layer1" transform="translate(-340.62244,-304.90885)">
		
    
		<g id="g8184" transform="translate(17.716536,17.641875)">
			
      
			
			
      
			
			
      
			
			
      
			
			
      
			
			
      
			
			
      
			
			
      
			
			
      
			
			
      
			
			
      
			
			
      
			
			
      
			
			
      
			
			
      
			
			
      
			
			
      
			
			
      
			
			
      
			
			
      
			
			
      
			
			
      
			
			
      
			
			
      
			
			
      
			
			
      
			
			
      
			
			
      
			
			
      
			
			
      
			
			
      
			
			
      
			
			
      
			<path animation_id="32" d="M 954.11987,385.56627 L 959.69677,385.56627 L 959.69677,369.15873 L 986.89107,369.15873 C 991.95737,369.15873 995.08497,369.96055 995.08497,376.443 L 995.08497,385.56627 L 1000.3188,385.56627 L 1000.3188,374.95104 C 1000.3188,371.16531 998.95447,368.1814 993.26587,367.14819 L 993.26587,367.03649 C 997.53027,366.63359 1000.8294,365.02595 1000.8294,359.17379 L 1000.8294,355.79095 C 1000.8294,347.98812 998.95447,344.03084 987.06267,344.03084 L 954.11987,344.03084 L 954.11987,385.56627 z M 959.69677,364.56717 L 959.69677,348.61841 L 985.07207,348.61841 C 993.26587,348.61841 995.25647,350.11036 995.25647,354.75777 L 995.25647,358.5435 C 995.25647,362.90368 992.63957,364.56717 986.43637,364.56717 L 959.69677,364.56717" id="path7856" stroke="black" style="fill:#000000;fill-rule:evenodd;"/>
			
    
		</g>
		
  
	</g>
	

</svg>