<?xml version="1.0" encoding="iso-8859-1"?><!-- Created with Inkscape (http://www.inkscape.org/) --><svg height="250.15747" id="svg2" version="1.0" width="814.96063" xmlns="http://www.w3.org/2000/svg" xmlns:svg="http://www.w3.org/2000/svg">
	
  
	<defs id="defs4"/>
	
  
	<g id="layer1" transform="translate(-340.62244,-304.90885)">
		
    
		<g id="g8184" transform="translate(17.716536,17.641875)">
			
      
			
			
      
			
			
      
			
			
      
			
			
      
			
			
      
			
			
      
			
			
      
			
			
      
			
			
      
			<path animation_id="9" d="M 798.17054,425.61376 C 798.17054,419.41057 798.94843,418.60076 802.47885,418.60076 C 805.72605,418.60076 806.78719,420.14857 806.78719,424.55661 C 806.78719,431.29035 806.2566,432.63074 802.47885,432.63074 C 798.94843,432.63074 798.17054,431.82094 798.17054,425.61376 z M 806.78719,434.60538 L 809.04507,434.60538 L 809.04507,409.08255 L 806.78719,409.08255 L 806.78719,418.87998 L 806.71538,418.87998 C 805.47871,416.76572 803.78333,416.34288 801.73686,416.34288 C 797.07748,416.34288 795.69723,418.56486 795.69723,425.61376 C 795.69723,432.66665 797.07748,434.88463 802.09191,434.88463 C 804.633,434.88463 805.86967,434.14663 806.71538,432.3475 L 806.78719,432.3475 L 806.78719,434.60538" id="path7770" stroke="black" style="fill:#000000;fill-rule:evenodd;"/>
			
      
			
			
      
			
			
      
			
			
      
			
			
      
			
			
      
			
			
      
			
			
      
			
			
      
			
			
      
			
			
      
			
			
      
			
			
      
			
			
      
			
			
      
			
			
      
			
			
      
			
			
      
			
			
      
			
			
      
			
			
      
			
			
      
			
			
      
			
			
    
		</g>
		
  
	</g>
	

</svg>