<?xml version="1.0" encoding="iso-8859-1"?><!-- Created with Inkscape (http://www.inkscape.org/) --><svg height="250.15747" id="svg2" version="1.0" width="814.96063" xmlns="http://www.w3.org/2000/svg" xmlns:svg="http://www.w3.org/2000/svg">
	
  
	<defs id="defs4"/>
	
  
	<g id="layer1" transform="translate(-340.62244,-304.90885)">
		
    
		<g id="g8184" transform="translate(17.716536,17.641875)">
			
      
			
			
      
			
			
      
			<path animation_id="2" d="M 588.00805,428.57373 C 588.00805,433.72376 590.0904,434.88463 595.95452,434.88463 C 601.7109,434.88463 603.82919,433.72376 603.82919,427.6961 C 603.82919,421.48892 602.45289,420.78284 596.13005,420.35997 C 591.39887,420.04484 590.76457,419.41057 590.76457,415.78038 C 590.76457,412.00661 591.15153,411.26862 595.99043,411.26862 C 600.22693,411.26862 601.39179,412.07842 601.39179,415.42536 L 601.39179,415.99182 L 603.65366,415.99182 C 603.51004,410.06788 602.20558,408.7993 595.99043,408.7993 C 590.19811,408.7993 588.29129,409.57321 588.29129,415.78038 C 588.29129,420.64321 589.31649,422.1591 593.65675,422.51017 L 596.26965,422.72556 C 601.35588,423.14843 601.35588,424.09787 601.35588,427.34105 C 601.35588,432.17197 600.72161,432.41931 595.91862,432.41931 C 591.11563,432.41931 590.26992,431.88875 590.26992,428.08307 L 590.26992,426.60305 L 588.00805,426.60305 L 588.00805,428.57373" id="path7744" stroke="black" style="fill:#000000;fill-rule:nonzero;"/>
			
      
			
			
      
			
			
      
			
			
      
			
			
      
			
			
      
			
			
      
			
			
      
			
			
      
			
			
      
			
			
      
			
			
      
			
			
      
			
			
      
			
			
      
			
			
      
			
			
      
			
			
      
			
			
      
			
			
      
			
			
      
			
			
      
			
			
      
			
			
      
			
			
      
			
			
      
			
			
      
			
			
      
			
			
      
			
			
      
			
			
    
		</g>
		
  
	</g>
	

</svg>