<?xml version="1.0" encoding="iso-8859-1"?><!-- Created with Inkscape (http://www.inkscape.org/) --><svg height="142.3045" id="svg4237" inkscape:version="0.48.5 r10040" sodipodi:docname="Saturn-Logo.svg" sodipodi:version="0.32" version="1.0" width="654.36682" xmlns="http://www.w3.org/2000/svg" xmlns:cc="http://creativecommons.org/ns#" xmlns:dc="http://purl.org/dc/elements/1.1/" xmlns:inkscape="http://www.inkscape.org/namespaces/inkscape" xmlns:rdf="http://www.w3.org/1999/02/22-rdf-syntax-ns#" xmlns:sodipodi="http://sodipodi.sourceforge.net/DTD/sodipodi-0.dtd" xmlns:svg="http://www.w3.org/2000/svg">
	
  
	<defs id="defs4239"/>
	
  
	<sodipodi:namedview bordercolor="#666666" borderopacity="1.0" id="base" inkscape:current-layer="layer1" inkscape:cx="339.50196" inkscape:cy="215.28355" inkscape:document-units="px" inkscape:pageopacity="0.0" inkscape:pageshadow="2" inkscape:window-height="705" inkscape:window-maximized="1" inkscape:window-width="1366" inkscape:window-x="-8" inkscape:window-y="-8" inkscape:zoom="0.7" pagecolor="#ffffff" showgrid="false"/>
	
  
	<metadata id="metadata4242">
		
    
		<rdf:RDF>
			
      
			<cc:Work rdf:about="">
				
        
				<dc:format>image/svg+xml</dc:format>
				
        
				<dc:type rdf:resource="http://purl.org/dc/dcmitype/StillImage"/>
				
      
			</cc:Work>
			
    
		</rdf:RDF>
		
  
	</metadata>
	
  
	<g id="layer1" inkscape:groupmode="layer" inkscape:label="Ebene 1" transform="translate(175.7548,-436.9242)">
		
    
		
		
    
		
		
    
		
		
    
		<path animation_id="3" class="ps02" d="M 59.013105,481.65501 L 59.013105,483.01675 C 59.013105,498.98074 68.739833,507.02961 77.651947,514.23955 L 79.998521,516.13626 C 87.816378,522.56806 92.375782,529.01202 92.375782,534.16232 L 92.375782,534.54288 C 92.375782,541.8744 89.287546,543.50849 86.089884,543.50849 C 83.074598,543.50849 79.585135,540.38256 79.585135,534.04073 C 79.585135,534.04073 79.585135,526.47577 79.585135,526.38337 C 79.475709,526.38337 58.2836,526.38337 58.174175,526.38337 C 58.174175,526.47577 58.174175,533.09846 58.174175,533.09846 C 58.174175,549.47097 69.396387,560.46704 86.089884,560.46704 C 103.96275,560.46704 114.57704,550.50444 114.57704,533.7003 L 114.57704,532.79693 C 114.57704,516.53749 107.47653,510.23943 96.242156,500.56134 L 94.467028,499.04154 C 94.45487,499.02938 91.232891,496.31805 91.232891,496.31805 C 85.627864,491.63706 81.238678,487.33299 81.238678,481.70364 L 81.238678,481.14436 C 81.238678,478.05612 82.247826,472.5362 87.57321,472.5362 C 92.497366,472.5362 93.628098,478.91937 93.628098,482.20214 C 93.628098,482.20214 93.628098,488.98653 93.628098,489.07164 C 93.725365,489.07164 114.34603,489.07164 114.43114,489.07164 C 114.43114,488.98653 114.43114,482.0684 114.43114,482.0684 C 114.43114,465.229 103.8898,454.34722 87.57321,454.34722 C 73.80989,454.34722 59.013105,462.89458 59.013105,481.65501" id="path3882" stroke="black" style="fill:white;fill-rule:nonzero;"/>
		
    
		
		
    
		
		
    
		
		
    
		
		
  
	</g>
	

</svg>