<?xml version="1.0" encoding="iso-8859-1"?><!-- Created with Inkscape (http://www.inkscape.org/) --><svg height="173.226" id="Logo_DB_Schenker" inkscape:output_extension="org.inkscape.output.svg.inkscape" inkscape:version="0.46" sodipodi:docname="Logo_DB_Schenker.svg" sodipodi:version="0.32" version="1.0" width="880" xml:space="preserve" xmlns="http://www.w3.org/2000/svg" xmlns:cc="http://creativecommons.org/ns#" xmlns:dc="http://purl.org/dc/elements/1.1/" xmlns:inkscape="http://www.inkscape.org/namespaces/inkscape" xmlns:rdf="http://www.w3.org/1999/02/22-rdf-syntax-ns#" xmlns:sodipodi="http://sodipodi.sourceforge.net/DTD/sodipodi-0.dtd" xmlns:svg="http://www.w3.org/2000/svg">
	<metadata id="metadata2437">
		<rdf:RDF>
			<cc:Work rdf:about="">
				<dc:format>image/svg+xml</dc:format>
				<dc:type rdf:resource="http://purl.org/dc/dcmitype/StillImage"/>
			</cc:Work>
		</rdf:RDF>
	</metadata>
	<sodipodi:namedview bordercolor="#666666" borderopacity="1.0" gridtolerance="10.0" guidetolerance="10.0" id="base" inkscape:current-layer="Logo_DB_Schenker" inkscape:cx="427.72709" inkscape:cy="146.5035" inkscape:pageopacity="0.0" inkscape:pageshadow="2" inkscape:window-height="998" inkscape:window-width="1280" inkscape:window-x="-4" inkscape:window-y="-4" inkscape:zoom="1.0658384" objecttolerance="10.0" pagecolor="#ffffff" showgrid="false"/>
	<defs id="defs5">
		<inkscape:perspective id="perspective2439" inkscape:persp3d-origin="510.3963 : 57.741999 : 1" inkscape:vp_x="0 : 86.612999 : 1" inkscape:vp_y="0 : 1000 : 0" inkscape:vp_z="1020.7926 : 86.612999 : 1" sodipodi:type="inkscape:persp3d"/>
	</defs>
	<path animation_id="0" d="M 856.89536,105.37542 C 854.60781,101.59945 852.23093,99.234048 849.63318,97.634548 C 860.20412,94.126648 864.94643,88.018448 864.94643,77.26881 C 864.94643,60.966248 855.04056,53.047935 834.67353,53.047935 L 803.74706,53.047935 L 803.74706,134.87091 L 824.54683,134.87091 C 824.54683,134.87091 824.54683,104.19846 824.54683,102.58749 C 825.52338,102.58749 827.18926,102.58749 827.18926,102.58749 C 831.87666,102.58749 833.56423,103.84231 837.22787,110.10624 L 851.68712,134.87091 L 874.38636,134.87091 L 856.89536,105.37542 z M 824.54683,68.838598 C 825.95612,68.838598 834.01868,68.838598 834.01868,68.838598 C 842.11443,68.838598 844.70195,71.16061 844.70195,78.367898 C 844.70195,85.529223 841.81445,88.195885 834.01868,88.195885 C 834.01868,88.195885 825.95612,88.195885 824.54683,88.195885 L 824.54683,68.838598 M 752.21868,118.27986 L 752.21868,101.14374 C 753.79647,101.14374 779.90405,101.14374 779.90405,101.14374 L 779.90405,85.331373 C 779.90405,85.331373 753.79647,85.331373 752.21868,85.331373 L 752.21868,69.627498 C 753.82967,69.627498 787.28877,69.627498 787.28877,69.627498 L 787.28877,53.047935 L 731.4419,53.047935 L 731.4419,134.87091 L 788.95465,134.87091 L 790.42137,118.27986 C 790.42137,118.27986 753.82967,118.27986 752.21868,118.27986 M 688.80965,91.592748 C 689.59855,90.582998 719.24848,53.047935 719.24848,53.047935 L 697.63812,53.047935 C 697.63812,53.047935 673.7849,84.453123 671.08631,87.97251 C 671.08631,83.66421 671.08631,53.047935 671.08631,53.047935 L 650.30825,53.047935 L 650.30825,134.87091 L 671.08631,134.87091 C 671.08631,134.87091 671.08631,104.61972 671.08631,100.26675 C 673.7849,103.82061 697.21558,134.87091 697.21558,134.87091 L 721.91388,134.87091 C 721.91388,134.87091 689.59855,92.626723 688.80965,91.592748 M 615.11688,53.047935 C 615.11688,53.047935 615.11688,93.247123 615.11688,97.768585 C 612.36213,94.092173 581.6348,53.047935 581.6348,53.047935 L 564.18848,53.047935 L 564.18848,134.87091 L 581.82372,134.87091 C 581.82372,134.87091 581.82372,89.949835 581.82372,85.40796 C 584.60018,89.094573 618.90308,134.87091 618.90308,134.87091 L 632.75087,134.87091 L 632.75087,53.047935 L 615.11688,53.047935 M 512.64988,118.27986 L 512.64988,101.14374 C 514.21618,101.14374 540.34675,101.14374 540.34675,101.14374 L 540.34675,85.331373 C 540.34675,85.331373 514.21618,85.331373 512.64988,85.331373 L 512.64988,69.627498 C 514.24938,69.627498 547.71998,69.627498 547.71998,69.627498 L 547.71998,53.047935 L 491.86161,53.047935 L 491.86161,134.87091 L 549.39733,134.87091 L 550.83981,118.27986 C 550.83981,118.27986 514.24938,118.27986 512.64988,118.27986 M 453.52616,53.047935 C 453.52616,53.047935 453.52616,83.176585 453.52616,84.786285 L 424.79787,84.786285 C 424.79787,83.176585 424.79787,53.047935 424.79787,53.047935 L 404.00958,53.047935 L 404.00958,134.87091 L 424.79787,134.87091 C 424.79787,134.87091 424.79787,102.76492 424.79787,101.14374 L 453.52616,101.14374 C 453.52616,102.76492 453.52616,134.87091 453.52616,134.87091 L 474.31571,134.87091 L 474.31571,53.047935 L 453.52616,53.047935 M 389.02952,116.35741 C 381.34353,119.2564 376.3472,120.26742 369.87265,120.26742 C 356.41292,120.26742 351.17148,112.98226 351.17148,94.236435 C 351.17148,74.679997 356.26866,67.417823 369.98371,67.417823 C 376.3472,67.417823 381.91158,68.561598 388.57381,71.205285 L 389.71757,71.671223 L 389.71757,54.736785 L 389.17376,54.524873 C 382.92132,52.22586 376.6574,51.171435 369.4399,51.171435 C 358.23452,51.171435 348.69503,54.358935 341.8541,60.422448 C 333.29241,67.97311 329.30582,78.745748 329.30582,94.347498 C 329.30582,107.57361 332.01588,117.03525 337.8458,124.09829 C 344.64205,132.22722 355.33681,136.5138 368.78503,136.5138 C 376.31401,136.5138 383.543,134.9692 389.67288,132.0268 L 390.15031,131.81617 L 390.15031,115.93615 L 389.02952,116.35741 M 299.82182,85.840698 C 299.83331,85.85346 298.5236,85.286685 298.5236,85.286685 C 290.14956,81.643473 289.81638,81.509423 287.82882,80.08866 C 285.08556,78.134298 284.17541,76.61266 284.17541,74.069823 C 284.17541,69.59431 287.86202,67.306773 295.15738,67.306773 C 301.61023,67.306773 306.32957,68.417348 313.82536,71.760585 L 315.00231,72.271198 L 315.00231,55.169535 L 314.44701,54.957623 C 307.24101,52.303723 301.21068,51.171435 294.29191,51.171435 C 275.6801,51.171435 265.01981,60.233523 265.01981,76.045885 C 265.01981,87.950798 270.32762,94.792998 283.98648,100.4225 C 298.48913,106.53069 299.86651,108.06252 299.86651,112.52655 C 299.86651,117.73479 295.53523,120.37847 287.00675,120.37847 C 279.65522,120.37847 274.0921,118.90153 265.78572,114.7477 L 264.56408,114.13752 L 264.56408,131.2494 L 265.05171,131.49448 C 272.76962,135.07005 279.51096,136.5138 288.31775,136.5138 C 308.67327,136.5138 319.88886,127.45172 319.88886,110.98321 C 319.88886,98.50131 314.82488,92.160798 299.82182,85.840698" id="SCHENKER" stroke="black" style="fill:#000000;fill-opacity:1;fill-rule:nonzero;"/>
	
</svg>