<?xml version="1.0" encoding="iso-8859-1"?><!-- Created with Inkscape (http://www.inkscape.org/) --><svg height="121.28802" id="svg17810" version="1.0" width="708.66144" xmlns="http://www.w3.org/2000/svg" xmlns:svg="http://www.w3.org/2000/svg">
	
  
	<defs id="defs17812">
		
    
		<clipPath id="clp10">
			

			
			


		</clipPath>
		
  
	</defs>
	
  
	<g id="layer1" transform="translate(-135.63306,-292.95335)">
		
    
		<g id="g17890" transform="matrix(7.9863699,0,0,7.9863699,-947.58281,-2894.0432)">
			
      
			<g id="q11" style="font-size:8.5px;letter-spacing:0;word-spacing:0;fill:#ffffff;fill-rule:nonzero;stroke:none;font-family:fnt1" transform="matrix(1.2499487,0,0,-1.2499487,-20.385526,716.61643)">
				

				<clipPath id="clipPath17821">
					

					
					


				</clipPath>
				


				<g clip-path="url(#clp10)" id="g2671">
					

					
					


					
					


					
					


					
					


					
					


					
					


					
					


					
					


					
					


					
					


					
					


					
					


					
					


					
					


					
					


					
					


					
					


					
					


					
					


					
					


					
					


					
					


					
					


					
					


					
					


					
					


					
					


					
					


					
					


					
					


					
					


					
					


					
					


					
					


					
					


					
					


					
					


					
					


					
					


					
					


					
					


					
					


					
					


					
					


					
					


					
					


					
					


					
					


					
					


					
					


					
					


					<path animation_id="53" d="M 137.82,251.08 L 137.88,251.08 C 138.11,251.85 138.58,252.04 139.33,252.04 C 140.4,252.04 140.89,251.53 140.89,250.49 L 140.89,247.15 L 139.3,247.15 L 139.3,250.12 C 139.29,250.59 139.16,250.82 138.65,250.82 C 137.94,250.82 137.82,250.4 137.82,249.81 L 137.82,247.15 L 136.23,247.15 L 136.23,254.06 L 137.82,254.06 L 137.82,251.08 z" id="path2775" stroke="black" style="fill:#004493;fill-rule:nonzero;"/>
					


					
					


					
					


					
					


					
					


					
					


					
					


					
					


					
					


					
					


					
					


					
					


					
					


				</g>
				


			</g>
			
    
		</g>
		
  
	</g>
	

</svg>