<?xml version="1.0" encoding="iso-8859-1"?><!-- Created with Inkscape (http://www.inkscape.org/) --><svg height="121.28802" id="svg17810" version="1.0" width="708.66144" xmlns="http://www.w3.org/2000/svg" xmlns:svg="http://www.w3.org/2000/svg">
	
  
	<defs id="defs17812">
		
    
		<clipPath id="clp10">
			

			
			


		</clipPath>
		
  
	</defs>
	
  
	<g id="layer1" transform="translate(-135.63306,-292.95335)">
		
    
		<g id="g17890" transform="matrix(7.9863699,0,0,7.9863699,-947.58281,-2894.0432)">
			
      
			<g id="q11" style="font-size:8.5px;letter-spacing:0;word-spacing:0;fill:#ffffff;fill-rule:nonzero;stroke:none;font-family:fnt1" transform="matrix(1.2499487,0,0,-1.2499487,-20.385526,716.61643)">
				

				<clipPath id="clipPath17821">
					

					
					


				</clipPath>
				


				<g clip-path="url(#clp10)" id="g2671">
					

					
					


					
					


					
					


					
					


					
					


					
					


					
					


					
					


					
					


					
					


					
					


					
					


					
					


					
					


					
					


					
					


					
					


					
					


					
					


					
					


					
					


					
					


					
					


					
					


					
					


					
					


					
					


					
					


					
					


					
					


					
					


					
					


					
					


					
					


					
					


					
					


					
					


					
					


					
					


					
					


					
					


					
					


					
					


					
					


					
					


					
					


					
					


					
					


					
					


					
					


					
					


					
					


					
					


					
					


					
					


					
					


					
					


					<path animation_id="59" d="M 163.84,251.4 L 163.86,251.38 C 164.15,251.93 164.81,252.04 165.41,252.04 C 167.17,252.04 167.3,251.01 167.3,249.56 C 167.3,247.64 166.83,247.09 165.41,247.09 C 164.86,247.09 164.13,247.16 163.86,247.72 L 163.84,247.72 L 163.84,244.36 L 163.11,244.36 L 163.11,251.99 L 163.84,251.99 L 163.84,251.4 z M 163.84,249.56 C 163.84,248.42 163.91,247.68 165.21,247.68 C 166.34,247.68 166.55,247.99 166.55,249.56 C 166.55,251.01 166.45,251.45 165.21,251.45 C 163.84,251.45 163.84,250.84 163.84,249.56" id="path2787" stroke="black" style="fill:#004493;fill-rule:nonzero;"/>
					


					
					


					
					


					
					


					
					


					
					


					
					


				</g>
				


			</g>
			
    
		</g>
		
  
	</g>
	

</svg>