<?xml version="1.0" encoding="iso-8859-1"?><!-- Created with Inkscape (http://www.inkscape.org/) --><svg height="121.28802" id="svg17810" version="1.0" width="708.66144" xmlns="http://www.w3.org/2000/svg" xmlns:svg="http://www.w3.org/2000/svg">
	
  
	<defs id="defs17812">
		
    
		<clipPath id="clp10">
			

			
			


		</clipPath>
		
  
	</defs>
	
  
	<g id="layer1" transform="translate(-135.63306,-292.95335)">
		
    
		<g id="g17890" transform="matrix(7.9863699,0,0,7.9863699,-947.58281,-2894.0432)">
			
      
			<g id="q11" style="font-size:8.5px;letter-spacing:0;word-spacing:0;fill:#ffffff;fill-rule:nonzero;stroke:none;font-family:fnt1" transform="matrix(1.2499487,0,0,-1.2499487,-20.385526,716.61643)">
				

				<clipPath id="clipPath17821">
					

					
					


				</clipPath>
				


				<g clip-path="url(#clp10)" id="g2671">
					

					
					


					
					


					
					


					
					


					
					


					
					


					
					


					
					


					
					


					
					


					
					


					
					


					
					


					
					


					
					


					
					


					
					


					
					


					
					


					
					


					
					


					
					


					
					


					
					


					
					


					
					


					
					


					
					


					
					


					
					


					
					


					
					


					
					


					
					


					
					


					
					


					
					


					
					


					
					


					
					


					
					


					
					


					
					


					
					


					
					


					
					


					
					


					
					


					
					


					
					


					
					


					
					


					
					


					
					


					<path animation_id="56" d="M 151.97,251.99 L 151.97,251.08 L 152.03,251.08 C 152.26,251.85 152.73,252.04 153.48,252.04 C 154.55,252.04 155.04,251.53 155.04,250.49 L 155.04,247.15 L 153.45,247.15 L 153.45,250.12 C 153.44,250.59 153.31,250.82 152.8,250.82 C 152.09,250.82 151.97,250.4 151.97,249.81 L 151.97,247.15 L 150.38,247.15 L 150.38,251.99 L 151.97,251.99 z" id="path2781" stroke="black" style="fill:#004493;fill-rule:nonzero;"/>
					


					
					


					
					


					
					


					
					


					
					


					
					


					
					


					
					


					
					


				</g>
				


			</g>
			
    
		</g>
		
  
	</g>
	

</svg>