<?xml version="1.0" encoding="iso-8859-1"?><!-- Created with Inkscape (http://www.inkscape.org/) --><svg height="121.28802" id="svg17810" version="1.0" width="708.66144" xmlns="http://www.w3.org/2000/svg" xmlns:svg="http://www.w3.org/2000/svg">
	
  
	<defs id="defs17812">
		
    
		<clipPath id="clp10">
			

			
			


		</clipPath>
		
  
	</defs>
	
  
	<g id="layer1" transform="translate(-135.63306,-292.95335)">
		
    
		<g id="g17890" transform="matrix(7.9863699,0,0,7.9863699,-947.58281,-2894.0432)">
			
      
			<g id="q11" style="font-size:8.5px;letter-spacing:0;word-spacing:0;fill:#ffffff;fill-rule:nonzero;stroke:none;font-family:fnt1" transform="matrix(1.2499487,0,0,-1.2499487,-20.385526,716.61643)">
				

				<clipPath id="clipPath17821">
					

					
					


				</clipPath>
				


				<g clip-path="url(#clp10)" id="g2671">
					

					
					


					
					


					
					


					
					


					
					


					
					


					
					


					
					


					
					


					
					


					
					


					
					


					
					


					
					


					
					


					
					


					
					


					
					


					
					


					
					


					
					


					
					


					
					


					
					


					
					


					
					


					
					


					
					


					
					


					
					


					
					


					
					


					
					


					
					


					
					


					
					


					
					


					
					


					
					


					
					


					
					


					
					


					
					


					
					


					
					


					
					


					
					


					
					


					
					


					
					


					
					


					
					


					
					


					
					


					
					


					
					


					
					


					
					


					
					


					
					


					<path animation_id="62" d="M 180.85,251.4 L 178.98,251.4 L 178.98,248.33 C 178.99,247.8 179.13,247.68 179.66,247.68 C 180.34,247.68 180.34,248.04 180.34,248.5 L 180.34,248.86 L 181.03,248.86 L 181.03,248.5 C 181.03,247.54 180.64,247.09 179.64,247.09 C 178.51,247.09 178.25,247.41 178.25,248.55 L 178.25,251.4 L 177.6,251.4 L 177.6,251.99 L 178.25,251.99 L 178.25,253.16 L 178.98,253.16 L 178.98,251.99 L 180.85,251.99 L 180.85,251.4 z" id="path2793" stroke="black" style="fill:#004493;fill-rule:nonzero;"/>
					


					
					


					
					


					
					


				</g>
				


			</g>
			
    
		</g>
		
  
	</g>
	

</svg>