<?xml version="1.0" encoding="iso-8859-1"?><!-- Created with Inkscape (http://www.inkscape.org/) --><svg height="121.28802" id="svg17810" version="1.0" width="708.66144" xmlns="http://www.w3.org/2000/svg" xmlns:svg="http://www.w3.org/2000/svg">
	
  
	<defs id="defs17812">
		
    
		<clipPath id="clp10">
			

			
			


		</clipPath>
		
  
	</defs>
	
  
	<g id="layer1" transform="translate(-135.63306,-292.95335)">
		
    
		<g id="g17890" transform="matrix(7.9863699,0,0,7.9863699,-947.58281,-2894.0432)">
			
      
			<g id="q11" style="font-size:8.5px;letter-spacing:0;word-spacing:0;fill:#ffffff;fill-rule:nonzero;stroke:none;font-family:fnt1" transform="matrix(1.2499487,0,0,-1.2499487,-20.385526,716.61643)">
				

				<clipPath id="clipPath17821">
					

					
					


				</clipPath>
				


				<g clip-path="url(#clp10)" id="g2671">
					

					
					


					
					


					
					


					
					


					
					


					
					


					
					


					
					


					
					


					
					


					
					


					
					


					
					


					
					


					
					


					
					


					
					


					
					


					
					


					
					


					
					


					
					


					
					


					
					


					
					


					
					


					
					


					
					


					
					


					
					


					
					


					
					


					
					


					
					


					
					


					
					


					
					


					
					


					
					


					
					


					
					


					
					


					
					


					
					


					
					


					
					


					
					


					
					


					
					


					<path animation_id="51" d="M 128.48,250.61 C 128.42,251.02 128.08,251.02 127.83,251.02 C 127,251.02 127,250.92 127,250.63 C 127,250.39 127.02,250.22 127.83,250.21 C 129.47,250.17 130.2,250.08 130.2,248.72 C 130.2,247.3 129.1,247.09 127.83,247.09 C 126.58,247.09 125.46,247.06 125.46,248.66 L 127.05,248.66 C 127.05,248.11 127.45,248.11 127.83,248.11 C 128.55,248.11 128.66,248.16 128.66,248.54 C 128.66,249.02 128.39,249.02 127.83,249.02 C 125.82,249.02 125.46,249.47 125.46,250.46 C 125.46,252.01 126.49,252.04 127.83,252.04 C 128.72,252.04 129.97,252.03 129.97,250.84 L 129.97,250.61 L 128.48,250.61 z" id="path2771" stroke="black" style="fill:#004493;fill-rule:nonzero;"/>
					


					
					


					
					


					
					


					
					


					
					


					
					


					
					


					
					


					
					


					
					


					
					


					
					


					
					


					
					


				</g>
				


			</g>
			
    
		</g>
		
  
	</g>
	

</svg>