<?xml version="1.0" encoding="iso-8859-1"?><!-- Created with Inkscape (http://www.inkscape.org/) --><svg height="121.28802" id="svg17810" version="1.0" width="708.66144" xmlns="http://www.w3.org/2000/svg" xmlns:svg="http://www.w3.org/2000/svg">
	
  
	<defs id="defs17812">
		
    
		<clipPath id="clp10">
			

			
			


		</clipPath>
		
  
	</defs>
	
  
	<g id="layer1" transform="translate(-135.63306,-292.95335)">
		
    
		<g id="g17890" transform="matrix(7.9863699,0,0,7.9863699,-947.58281,-2894.0432)">
			
      
			<g id="q11" style="font-size:8.5px;letter-spacing:0;word-spacing:0;fill:#ffffff;fill-rule:nonzero;stroke:none;font-family:fnt1" transform="matrix(1.2499487,0,0,-1.2499487,-20.385526,716.61643)">
				

				<clipPath id="clipPath17821">
					

					
					


				</clipPath>
				


				<g clip-path="url(#clp10)" id="g2671">
					

					
					


					
					


					
					


					
					


					
					


					
					


					
					


					
					


					
					


					
					


					
					


					
					


					
					


					
					


					
					


					
					


					
					


					
					


					
					


					
					


					
					


					
					


					
					


					
					


					
					


					
					


					
					


					
					


					
					


					
					


					
					


					
					


					
					


					
					


					
					


					
					


					
					


					
					


					
					


					
					


					
					


					
					


					
					


					
					


					
					


					
					


					
					


					
					


					
					


					
					


					
					


					
					


					
					


					
					


					
					


					
					


					
					


					
					


					<path animation_id="60" d="M 171.73,247.15 L 171.73,247.64 L 171.71,247.66 C 171.43,247.11 170.72,247.09 170.12,247.09 C 169.03,247.09 168.27,247.29 168.27,248.56 C 168.27,249.89 168.96,250.08 170.16,250.08 C 170.64,250.08 171.58,250.03 171.68,249.59 L 171.73,249.59 L 171.73,250.48 C 171.73,251.37 171.26,251.45 170.44,251.45 C 169.87,251.45 169.17,251.45 169.18,250.79 L 169.18,250.62 L 168.42,250.62 L 168.42,250.72 C 168.42,251.97 169.28,252.05 170.36,252.04 C 171.57,252.05 172.47,251.92 172.46,250.45 L 172.46,247.15 L 171.73,247.15 z M 171.71,248.58 C 171.71,249.5 171.17,249.49 170.24,249.49 C 169.38,249.49 169.03,249.43 169.03,248.65 C 169.03,247.73 169.41,247.68 170.24,247.68 C 170.97,247.68 171.71,247.7 171.71,248.58" id="path2789" stroke="black" style="fill:#004493;fill-rule:nonzero;"/>
					


					
					


					
					


					
					


					
					


					
					


				</g>
				


			</g>
			
    
		</g>
		
  
	</g>
	

</svg>