<?xml version="1.0" encoding="iso-8859-1"?><!-- Created with Inkscape (http://www.inkscape.org/) --><svg height="50.380001" id="svg3671" version="1.0" width="185.85001" xmlns="http://www.w3.org/2000/svg" xmlns:svg="http://www.w3.org/2000/svg">
	
  
	<defs id="defs3673">
		
    
		<clipPath id="clipPath3611">
			
      
			
			
    
		</clipPath>
		
  
	</defs>
	
  
	<g id="layer1" transform="translate(-342.36009,-385.31254)">
		
    
		<g id="g3607" transform="matrix(1.25,0,0,-1.25,285.9033,850.63825)">
			
      
			<g clip-path="url(#clipPath3611)" id="g3609">
				
        
				
				
        
				
				
        
				
				
      
			</g>
			
    
		</g>
		
    
		
		
    
		
		
    
		
		
    
		
		
    
		
		
    
		
		
    
		
		
    
		
		
    
		
		
    
		
		
    
		
		
    
		
		
    
		
		
    
		
		
    
		
		
    
		<path animation_id="19" d="M 512.2483,424.962 L 506.3133,424.962 L 506.3133,426.7445 L 510.2783,426.7445 C 510.30205,429.5695 509.9708,432.9195 506.3133,432.75325 C 502.79705,432.5845 502.94205,427.86075 502.94205,425.15325 C 502.94205,422.11325 502.9883,417.64825 506.88205,417.72075 C 509.1383,417.767 510.0633,419.28825 510.08705,421.47075 L 512.08205,421.47075 C 512.1308,418.14825 510.18205,415.9395 506.78705,415.9395 C 501.6358,415.9395 500.8983,420.927 500.8983,425.082 C 500.8983,429.262 501.3008,434.53325 506.5958,434.53325 C 508.5683,434.53325 510.1583,433.48825 510.6808,431.46825 L 510.72955,431.46825 L 510.72955,434.247 L 512.2483,434.247 L 512.2483,424.962" id="path3651" stroke="black" style="fill:#231f20;fill-opacity:1;fill-rule:nonzero;"/>
		
  
	</g>
	

</svg>