<?xml version="1.0" encoding="iso-8859-1"?><!-- Generator: Adobe Illustrator 14.0.0, SVG Export Plug-In . SVG Version: 6.00 Build 43363)  --><!DOCTYPE svg  PUBLIC '-//W3C//DTD SVG 1.1//EN'  'http://www.w3.org/Graphics/SVG/1.1/DTD/svg11.dtd'><svg enable-background="new 0 0 1024 279" height="279px" id="Ebene_1" version="1.1" viewBox="0 0 1024 279" width="1024px" x="0px" xml:space="preserve" xmlns="http://www.w3.org/2000/svg" xmlns:xlink="http://www.w3.org/1999/xlink" y="0px">
	

	
	

	
	

	
	

	
	

	
	

	
	

	
	

	
	

	
	

	
	

	
	

	
	

	
	

	
	

	
	

	
	

	
	

	
	

	
	

	<path animation_id="14" clip-rule="evenodd" d="M481.14,182.328c0.672-0.803,1.367-1.641,2.133-2.546  c1.637-0.564,1.555,1.197,2.332,1.877c0,0.213-0.006,0.438-0.024,0.656 M432.055,182.328c3.11-0.96,6.287-1.841,9.018-3.42  c3.642-2.412,3.025-6.773,5.719-9.55c6.455-11.76,13.845-22.84,24.48-31.053c2.439-0.692,3.809,1.136,4.687,3.099  c0.18,3.219-0.318,7.21-2.979,9.342c-3.031-0.449-0.723-5.491-3.784-5.303c-7.414,4.337-10.81,12.216-16.058,18.412  c-1.786,4.1-4.362,7.842-7.247,11.407c0.233,1.938,3.152,1.422,4.304,0.833c5.555-2.169,12.577-1.222,16.787-5.692  c0.96,0.2,2.26-0.225,2.843,1.088c-0.155,3.529-2.412,7.44-4.322,10.733c-0.042,0.042-0.088,0.079-0.131,0.121l-5.904-0.018  c0.735-1.531,1.531-3.062,2.843-4.259c0.046-0.96,0.268-2.399-1.021-2.296c-6.66,1.64-12.176,3.001-18.254,6.11  c-0.082,0.146-0.164,0.292-0.243,0.438L432.055,182.328z M385.26,182.328c0.094-0.128,0.179-0.256,0.273-0.383  c2.405-0.062,3.459-1.938,5.877-2.314c2.195-0.03,3.608,1.136,4.944,2.715L385.26,182.328z M361.371,182.328  c4.687-8.396,9.531-16.39,18.285-20.234c1.087,0.687,2.044,0.893,1.982,2.332c0.522,2.758-3.01,2.765-4.838,4.125  c-4.033,4.35-9.115,8.771-12.48,13.777H361.371z M346.383,182.328c0.759-1.397,1.497-2.807,2.059-4.253  c4.502-7.514,7.931-16.2,16.702-18.381c1.747,0.395,3.942,1.615,4.18,3.554c0.106,1.293-0.462,3.194-1.887,2.648  c-0.901-1.324-2.345-1.392-3.787-1.452c-2.381,3.11-5.157,4.112-6.928,7.891c-2.609,2.569-4.741,6.245-6.707,9.986L346.383,182.328z  " fill="#1A171B" fill-rule="evenodd" stroke="black"/>
	

	
	

	
	

	
	

	
	

</svg>