<?xml version="1.0" encoding="iso-8859-1"?><!-- Generator: Adobe Illustrator 14.0.0, SVG Export Plug-In . SVG Version: 6.00 Build 43363)  --><!DOCTYPE svg  PUBLIC '-//W3C//DTD SVG 1.1//EN'  'http://www.w3.org/Graphics/SVG/1.1/DTD/svg11.dtd'><svg enable-background="new 0 0 1024 279" height="279px" id="Ebene_1" version="1.1" viewBox="0 0 1024 279" width="1024px" x="0px" xml:space="preserve" xmlns="http://www.w3.org/2000/svg" xmlns:xlink="http://www.w3.org/1999/xlink" y="0px">
	

	
	

	
	

	
	

	
	

	
	

	
	

	
	

	
	

	
	

	
	

	<path animation_id="5" d="M485.921,152.277c-0.043,0.966-1.373,2.028-0.125,2.885c0.298,0.498,0.954,0.201,1.437,0.225  c1.999-1.676,2.142-4.89,5.613-3.45c1.658,6.014-6.023,9.058-5.182,15.673c-1.157,0.753-2.6,0.692-3.852-0.164  c-0.261-1.294-1.494-2.479-0.944-4.058c-1.233-1.179-4.118-1.307-3.852-3.7c0.137-3.207,2.648-5.509,4.368-8.164  C484.181,151.718,485.492,151.135,485.921,152.277" fill="#1A171B" stroke="black"/>
	

	
	

	
	

	
	

	
	

	
	

	
	

	
	

	
	

	
	

	
	

	
	

	
	

	
	

</svg>