<?xml version="1.0" encoding="iso-8859-1"?><!-- Generator: Adobe Illustrator 14.0.0, SVG Export Plug-In . SVG Version: 6.00 Build 43363)  --><!DOCTYPE svg  PUBLIC '-//W3C//DTD SVG 1.1//EN'  'http://www.w3.org/Graphics/SVG/1.1/DTD/svg11.dtd'><svg enable-background="new 0 0 1024 279" height="279px" id="Ebene_1" version="1.1" viewBox="0 0 1024 279" width="1024px" x="0px" xml:space="preserve" xmlns="http://www.w3.org/2000/svg" xmlns:xlink="http://www.w3.org/1999/xlink" y="0px">
	

	
	

	
	

	
	

	
	

	
	

	
	

	
	

	
	

	
	

	
	

	
	

	
	

	
	

	
	

	
	

	
	

	<path animation_id="11" clip-rule="evenodd" d="M311.175,170.828c-0.784,3.178-2.992,5.972-5.021,8.292  c-3.745,8.511-13.665,14.986-11.284,26.649c6.254,0.273,13.58-1.975,17-6.81c4.118-2.388,7.417-8.024,13.264-5.838  c3.557,3.201,4.908,9.045,3.384,14.434c-2.552,6.955-6.539,13.691-14.175,15.763c-3.074,0.511-6.202-1.391-8.019-4.039  c-1.431-3.918,0.055-8.511,0.547-12.508c-4.475-0.517-8.031,3.669-13.124,2.643c-2.379,6.64-4.948,13.917-10.625,18.971  c-1.12-0.049-1.281-0.055-2.235-0.419c-2.226-4.112,0.848-8.316,2.434-11.457c0.361-4.641,5.561-9.713-0.226-13.34  c-0.267-4.829-0.209-9.81,3.138-12.871c1.646-1.058,3.757-1.446,5.474-0.243l1.995,2.011c3.645-2.569,4.504-7.509,6.919-11.263  c2.588-4.058,4.429-9.439,7.961-13.139C311.032,166.649,311.561,169.237,311.175,170.828 M290.959,195.965  c-0.101,2.399-0.659,4.143-2.029,6.014c-0.465-0.34-1.118-0.048-1.418-0.547c0.592-2.545,0.051-4.816,1.434-7.004  C290.733,193.863,290.175,195.606,290.959,195.965z M324.436,198.066c1.513,5.844-1.023,12.483-4.252,16.517  c-1.707,2.339-4.387,4.787-7.418,4.332c-1.733-0.711-1.959-2.971-2.037-4.745c-0.226-5.952,5.193-8.602,6.867-13.831  C319.739,198.984,321.626,196.336,324.436,198.066z" fill="#1A171B" fill-rule="evenodd" stroke="black"/>
	

	
	

	
	

	
	

	
	

	
	

	
	

	
	

</svg>