<?xml version="1.0" encoding="iso-8859-1"?><!-- Created with Inkscape (http://www.inkscape.org/) --><svg height="50.380001" id="svg3671" version="1.0" width="185.85001" xmlns="http://www.w3.org/2000/svg" xmlns:svg="http://www.w3.org/2000/svg">
	
  
	<defs id="defs3673">
		
    
		<clipPath id="clipPath3611">
			
      
			
			
    
		</clipPath>
		
  
	</defs>
	
  
	<g id="layer1" transform="translate(-342.36009,-385.31254)">
		
    
		<g id="g3607" transform="matrix(1.25,0,0,-1.25,285.9033,850.63825)">
			
      
			<g clip-path="url(#clipPath3611)" id="g3609">
				
        
				
				
        
				
				
        
				
				
      
			</g>
			
    
		</g>
		
    
		
		
    
		
		
    
		
		
    
		
		
    
		
		
    
		
		
    
		
		
    
		<path animation_id="11" d="M 420.96205,399.887 C 420.6033,395.812 417.18205,393.787 413.34455,393.787 C 408.37455,393.787 405.2508,397.2995 405.2508,402.2095 C 405.2508,406.9395 408.70205,410.12325 413.34455,410.12325 C 417.4508,410.12325 420.6633,407.74325 421.1108,403.607 L 416.2008,403.607 C 415.9633,405.2445 415.0708,406.25575 413.31455,406.25575 C 411.1733,406.25575 410.30955,404.20325 410.30955,402.2095 C 410.30955,400.067 410.7558,397.65575 413.58205,397.65575 C 414.86205,397.65575 416.02205,398.57825 416.05205,399.887 L 420.96205,399.887" id="path3635" stroke="black" style="fill:#231f20;fill-opacity:1;fill-rule:nonzero;"/>
		
    
		
		
    
		
		
    
		
		
    
		
		
    
		
		
    
		
		
    
		
		
    
		
		
  
	</g>
	

</svg>