<?xml version="1.0" encoding="iso-8859-1"?><!-- Generator: Adobe Illustrator 14.0.0, SVG Export Plug-In . SVG Version: 6.00 Build 43363)  --><!DOCTYPE svg  PUBLIC '-//W3C//DTD SVG 1.1//EN'  'http://www.w3.org/Graphics/SVG/1.1/DTD/svg11.dtd'><svg enable-background="new 0 0 1024 279" height="279px" id="Ebene_1" version="1.1" viewBox="0 0 1024 279" width="1024px" x="0px" xml:space="preserve" xmlns="http://www.w3.org/2000/svg" xmlns:xlink="http://www.w3.org/1999/xlink" y="0px">
	

	
	

	
	

	
	

	
	

	
	

	
	

	
	

	
	

	
	

	
	

	
	

	
	

	
	

	
	

	
	

	
	

	
	

	
	

	<path animation_id="13" clip-rule="evenodd" d="M392.573,186.264l-1.108,3.171  c-4.596,2.363-8.024,7.192-14.755,6.895c0-3.687,3.781-5.606,6.135-8.079c2.958-1.476,5.467-3.778,9.16-3.778 M465.225,214.377  c8.48-1.021,16.535-1.245,25.659-2.94c2.706,0.602,4.373-0.765,7.259-0.644c47.303-5.644,91.16-9.513,137.254-13.279  c5.929,0.262,11.438-0.625,17.361-0.37c15.849-2.357,33.507-2.229,50.606-3.894c11.937-1.239,24.942-1.154,38.811-2.32  c4.325,0.194,9.026-0.888,13.838-0.675c-1.27,3.316-5.018,0.747-7.781,1.743c-13.395,1.501-26.419,1.737-39.758,1.962  c-2.035,2.479-4.167-0.34-6.488,1.482c-2.217-0.741-4.98-0.055-8.03-0.03c-12.72,0.571-25.774,1.762-39.958,2.916  c-7.702-0.183-14.36,1.458-22.105,2.247c-2.375-0.747-5.935,0.062-8.353,0.116c-4.848,0.589-10.448,0.182-14.536,1.773  c-7.198-0.638-13.206,0.862-20.587,0.704c-2.922,0.675-5.175,0.899-7.611,1.434c-3.007-1.093-5.704,1.841-8.364,0.28  c-4.404,1.573-10.46,0.504-15.192,2.229c-3.335-0.953-6.312,1.167-9.811,0.371c-3.693-0.158-6.348,1.811-10.156,0.687  c-3.329,2.903-8.662-0.061-12.283,1.864c-5.625,0.079-13.559,1.659-19.378,2.369c-6.457,0.353-12.118,0.116-18.002,1.963  l-0.479,0.012c-0.607-0.862-1.419-0.328-2.3-0.012L465.225,214.377z M465.367,182.328c-3.924,3.699-5.883,9.33-4.547,15.106  c2.309,2.357,4.678-0.431,7.253-0.644c3.192-3.073,6.85-5.965,8.778-9.737c1.591-1.562,2.885-3.056,4.285-4.726h4.446  c-0.403,6.014-6.679,11.796-4.024,18.266l-2.481,1.652c-2.973-1.737-1.995-5.704-2.518-8.462l-1.442-0.061  c-2.907,4.052-6.533,6.142-11.277,8.183c-2.569,0.048-5.774-0.249-7.417-3.056c-2.238-3.948,0.219-8.669,0.871-12.653  c0.896-1.105,1.507-2.49,2.178-3.882L465.367,182.328z M442.794,182.328c-5.527,10.211-11.486,20.556-15.277,31.162  c-0.036,0.291-0.097,0.577-0.167,0.862l-2.873,0.024c3.271-9.78,8.665-17.98,12.571-27.937c-0.298-0.492-0.896-1.482-1.697-1.519  c-4.374,0.771-9.35,8.104-13.112,2.32c2.624-2.576,6.175-3.797,9.813-4.914H442.794z M350.012,182.328  c-1.33,2.526-2.581,5.096-3.851,7.374c1.309,3.269,5.114,0.547,7.684,0.656c0.884-1.89,2.904-0.353,3.925-1.598  c1.232-2.126,2.414-4.289,3.602-6.427l2.949-0.006c-0.58,0.856-1.103,1.737-1.57,2.636c1.689,1.835,3.08-0.668,4.973,0.219  c0.871,2.12-1.692,2.011-2.385,3.104c-1.938,0.236-4.875,1.232-5.765,3.286c-0.564,1.901,1.734,0.717,2.339,1.549  c8.31-2.169,17.978-3.499,23.351-10.801l11.092,0.007c0.328,0.413,0.659,0.826,0.987,1.257c0.55,9.501-9.409,13.236-16.453,16.304  c-2.772,1.003-7.532-0.327-8.203,3.979c-0.262,2.399-0.393,5.284,1.977,6.189c4.417,1.962,10.552,1.264,14.813-0.802  c2.928-0.832,6.107-3.742,8.78-2.509c-5.616,3.608-11.729,7.521-18.798,7.532c-3.984-0.655-9.813,0.377-11.021-4.98  c-1.543-5.2,2.208-10.175,3.234-15.277c-1.853-1.683-3.6,1.609-5.54,1.847c-4.96,3.164-14.023,1.16-14.065,9.506  c-2.32,1.671-1.674,5.23-3.538,7.399c-0.188,0.534-0.386,1.057-0.599,1.585l-2.922,0.019c2.934-6.481,5.795-13.006,8.167-19.712  c0.501-0.462,1.947-0.401,1.521-1.701l-0.304-0.498c-4.355,0.456-7.869,3.669-11.806,5.589c-1.959,5.4-5.075,10.739-7.806,16.304  l-2.974,0.019c2.333-5.097,4.429-10.266,5.777-15.739c-1.386-1.343-4.347,0.134-5.392-1.677c-0.432-1.147-0.337-3.231,1.267-3.164  c2.739-0.195,8.149,0.844,9.442-2.959c0.45-3.049,2.005-5.771,3.479-8.498L350.012,182.328z" fill="#1A171B" fill-rule="evenodd" stroke="black"/>
	

	
	

	
	

	
	

	
	

	
	

</svg>