<?xml version="1.0" encoding="iso-8859-1"?><!-- Generator: Adobe Illustrator 14.0.0, SVG Export Plug-In . SVG Version: 6.00 Build 43363)  --><!DOCTYPE svg  PUBLIC '-//W3C//DTD SVG 1.1//EN'  'http://www.w3.org/Graphics/SVG/1.1/DTD/svg11.dtd'><svg enable-background="new 0 0 1024 279" height="279px" id="Ebene_1" version="1.1" viewBox="0 0 1024 279" width="1024px" x="0px" xml:space="preserve" xmlns="http://www.w3.org/2000/svg" xmlns:xlink="http://www.w3.org/1999/xlink" y="0px">
	

	
	

	
	

	
	

	
	

	
	

	
	

	
	

	
	

	
	

	
	

	
	

	
	

	
	

	
	

	
	

	
	

	
	

	<path animation_id="12" clip-rule="evenodd" d="M487.621,214.377c-0.137,0.024-0.267,0.066-0.403,0.109  c-0.024-0.043-0.049-0.079-0.079-0.115 M345.004,214.377c-1.151,2.521-2.309,5.036-3.46,7.563c-1.437,3.469-1.015,8.475-5.533,9.075  c-2.707-0.601-4.997,0.426-7.876,0.14c-0.848-2.77,2.269-4.239,2.542-6.797c1.039-3.444,2.509-6.761,4.101-9.999l-2.974,0.019  c-2.071,4.489-4.328,8.924-6.418,13.443c-0.544,1.421-0.213,4.805-2.794,5.181l-14.232,2.267c-3.502-0.796-5.498,0.887-7.895,0.455  c-3.141,2.114-7.599,1.275-11.021,2.412c-1.531,1.864-3.526-0.152-5.641,0.395c-0.641-0.024-1.182,1.391-1.94,0.4  c-5.37,1.531-10.986,1.446-16.362,3.141c-12.947,2.327-28.307,4.544-41.097,6.877c-7.475,2.083-15.053,2.715-21.896,4.829  c-11.937,1.245-22.835,4.459-33.993,6.221c-7.302,1.609-15.247,3.353-21.89,4.665c-4.921-1.337-7.988,2.703-12.653,2.824  c-8.246,1.403-18.373,5.297-27.002,4.119c-1.306,0.583-3.396,0.649-3.01,2.758c1.877,1.208,2.071,4.106,4.97,3.911  c2.843-2.605,7.963-2.064,11.721-3.505c5.229-2.181,11.8-1.73,17.19-3.905c4.89,2.138,10.421-3.238,15.235-3.031  c21.255-5.012,40.213-8.839,62.066-12.708c11.663-2.375,25.242-4.355,37.097-7.368c4.368-0.62,10.172-1.167,14.91-3.044  c3.794,1.446,6.831-1.956,10.643-0.983c8.617-2.352,19.253-3.171,28.341-5.353c4.826-0.103,7.942-1.579,12.79-2.332  c6.481-1.318,0.933,4.38,3.207,7.532c1.066,1.336,2.87,0.449,3.709-0.322c0.707-1.573,0.304-3.358-0.28-4.665  c0.368-1.111,0.435-2.558,1.264-3.158c2.612-1.009,6.618-0.833,9.553-1.829c0.947,0.358,0.425,1.3,0.562,1.95  c-1.923,3.608-4.373,8.158-3.128,12.714c0.926,0.845,2.523,1.075,3.355,0.304c1.822-1.203,0.635-3.505,0.231-5.127  c0.646-3.827,1.579-6.834,3.004-9.992c13.114-2.473,27.496-4.423,40.259-6.105c13.118-2.484,26.952-3.001,39.269-5.516  c1.598,0.073,1.352,2.15,1.313,2.946c0.926,0.845,1.3,3.433,3.24,3.037c4.256-1.743-0.428-4.841,2.065-6.821  c6.618-0.668,14.221-1.944,20.981-2.296c2.719,0.285,5.513-1.203,7.733-0.462l0.993-0.76c9.473,0.092,18.405-2.247,27.271-2.988  c0.446,0.128,0.89,0.024,1.312-0.128l-19.611,0.019c-3.253,0.364-6.569,0.862-10.029,1.604c-9.938-0.438-18.892,2.229-28.229,2.788  c-0.607-1.506,0.021-2.958,0.38-4.416l-2.867,0.024c-0.361,1.063-0.695,2.156-1.002,3.268c-0.887,2.048-3.942,2.078-5.859,1.841  c-6.506,1.798-14.381,1.938-20.514,2.637c-10.356,1.792-22.654,3.984-34.405,4.44c-6.406-0.285-11.539,3.183-17.944,2.745  l-2.054-0.729c0.659-5.31,3.354-9.622,5.225-14.221L345.004,214.377z" fill="#1A171B" fill-rule="evenodd" stroke="black"/>
	

	
	

	
	

	
	

	
	

	
	

	
	

</svg>