<?xml version="1.0" encoding="iso-8859-1"?><!-- Created with Inkscape (http://www.inkscape.org/) --><svg height="50.380001" id="svg3671" version="1.0" width="185.85001" xmlns="http://www.w3.org/2000/svg" xmlns:svg="http://www.w3.org/2000/svg">
	
  
	<defs id="defs3673">
		
    
		<clipPath id="clipPath3611">
			
      
			
			
    
		</clipPath>
		
  
	</defs>
	
  
	<g id="layer1" transform="translate(-342.36009,-385.31254)">
		
    
		<g id="g3607" transform="matrix(1.25,0,0,-1.25,285.9033,850.63825)">
			
      
			<g clip-path="url(#clipPath3611)" id="g3609">
				
        
				
				
        
				
				
        
				
				
      
			</g>
			
    
		</g>
		
    
		
		
    
		
		
    
		<path animation_id="6" d="M 412.4358,429.61825 C 412.4358,428.397 413.3883,427.922 414.51955,427.65575 C 415.61955,427.357 416.92955,427.267 417.6433,426.82075 C 417.76205,430.0045 416.9583,431.37325 414.54955,431.37325 C 413.4183,431.37325 412.4358,430.86825 412.4358,429.61825 z M 412.73455,423.37075 C 412.97205,422.0595 413.86455,421.4345 415.2633,421.4345 C 416.30455,421.4345 417.7033,421.882 417.7033,423.04325 C 417.7033,423.99575 417.22705,424.29075 416.36455,424.472 C 412.8533,425.1845 407.3783,424.79825 407.3783,429.82575 C 407.3783,433.0095 409.69955,434.49825 412.64455,434.49825 C 414.48955,434.49825 416.42455,433.962 417.7333,432.5945 C 417.79205,433.0995 417.85205,433.57575 418.0308,434.052 L 423.1183,434.052 C 422.5233,432.83075 422.5233,431.40325 422.5233,430.0945 L 422.5233,423.342 C 422.5233,418.96575 418.9833,418.16325 415.3233,418.16325 C 413.5683,418.16325 411.78205,418.46075 410.4133,419.2345 C 409.04455,420.03825 408.0933,421.347 408.00205,423.37075 L 412.73455,423.37075" id="path3625" stroke="black" style="fill:#231f20;fill-opacity:1;fill-rule:evenodd;"/>
		
    
		
		
    
		
		
    
		
		
    
		
		
    
		
		
    
		
		
    
		
		
    
		
		
    
		
		
    
		
		
    
		
		
    
		
		
    
		
		
  
	</g>
	

</svg>