<?xml version="1.0" encoding="iso-8859-1"?><!-- Created with Inkscape (http://www.inkscape.org/) --><svg height="50.380001" id="svg3671" version="1.0" width="185.85001" xmlns="http://www.w3.org/2000/svg" xmlns:svg="http://www.w3.org/2000/svg">
	
  
	<defs id="defs3673">
		
    
		<clipPath id="clipPath3611">
			
      
			
			
    
		</clipPath>
		
  
	</defs>
	
  
	<g id="layer1" transform="translate(-342.36009,-385.31254)">
		
    
		<g id="g3607" transform="matrix(1.25,0,0,-1.25,285.9033,850.63825)">
			
      
			<g clip-path="url(#clipPath3611)" id="g3609">
				
        
				
				
        
				
				
        
				
				
      
			</g>
			
    
		</g>
		
    
		
		
    
		
		
    
		
		
    
		
		
    
		
		
    
		
		
    
		
		
    
		
		
    
		
		
    
		
		
    
		<path animation_id="14" d="M 476.0108,392.152 L 480.4733,392.152 L 480.4733,388.4325 L 476.0108,388.4325 L 476.0108,392.152 z M 469.67205,392.152 L 474.1358,392.152 L 474.1358,388.4325 L 469.67205,388.4325 L 469.67205,392.152 z M 471.96205,401.97075 C 471.96205,400.007 472.6783,397.65575 475.0258,397.65575 C 477.37705,397.65575 478.12205,400.007 478.12205,401.97075 C 478.12205,403.9345 477.37705,406.25575 475.0258,406.25575 C 472.6783,406.25575 471.96205,403.9345 471.96205,401.97075 z M 466.9033,401.97075 C 466.9033,406.612 470.2358,410.12325 475.0258,410.12325 C 479.8183,410.12325 483.1808,406.612 483.1808,401.97075 C 483.1808,397.32825 479.8183,393.787 475.0258,393.787 C 470.2358,393.787 466.9033,397.32825 466.9033,401.97075" id="path3641" stroke="black" style="fill:#231f20;fill-opacity:1;fill-rule:evenodd;"/>
		
    
		
		
    
		
		
    
		
		
    
		
		
    
		
		
  
	</g>
	

</svg>