<?xml version="1.0" encoding="iso-8859-1"?><!-- Created with Inkscape (http://www.inkscape.org/) --><svg height="50.380001" id="svg3671" version="1.0" width="185.85001" xmlns="http://www.w3.org/2000/svg" xmlns:svg="http://www.w3.org/2000/svg">
	
  
	<defs id="defs3673">
		
    
		<clipPath id="clipPath3611">
			
      
			
			
    
		</clipPath>
		
  
	</defs>
	
  
	<g id="layer1" transform="translate(-342.36009,-385.31254)">
		
    
		<g id="g3607" transform="matrix(1.25,0,0,-1.25,285.9033,850.63825)">
			
      
			<g clip-path="url(#clipPath3611)" id="g3609">
				
        
				
				
        
				
				
        
				
				
      
			</g>
			
    
		</g>
		
    
		
		
    
		
		
    
		
		
    
		
		
    
		
		
    
		
		
    
		
		
    
		
		
    
		
		
    
		
		
    
		
		
    
		
		
    
		<path animation_id="16" d="M 502.51455,400.36325 C 502.81205,398.4895 504.0008,397.21075 505.7883,397.21075 C 507.48205,397.21075 508.7033,398.63825 508.7933,400.36325 L 502.51455,400.36325 z M 513.84955,403.19075 C 514.0883,397.95325 511.3233,393.787 505.7883,393.787 C 501.23455,393.787 497.4558,397.1795 497.4558,401.91075 C 497.4558,407.08825 500.8783,410.12325 505.9058,410.12325 C 509.35705,410.12325 512.6608,408.577 513.5833,405.00575 L 508.85205,405.00575 C 508.3758,406.13575 507.18455,406.702 505.9658,406.702 C 503.8233,406.702 502.60455,405.30325 502.51455,403.19075 L 513.84955,403.19075" id="path3645" stroke="black" style="fill:#231f20;fill-opacity:1;fill-rule:evenodd;"/>
		
    
		
		
    
		
		
    
		
		
  
	</g>
	

</svg>