<?xml version="1.0" encoding="iso-8859-1"?><!-- Generator: Adobe Illustrator 14.0.0, SVG Export Plug-In . SVG Version: 6.00 Build 43363)  --><!DOCTYPE svg  PUBLIC '-//W3C//DTD SVG 1.1//EN'  'http://www.w3.org/Graphics/SVG/1.1/DTD/svg11.dtd'><svg enable-background="new 0 0 1024 279" height="279px" id="Ebene_1" version="1.1" viewBox="0 0 1024 279" width="1024px" x="0px" xml:space="preserve" xmlns="http://www.w3.org/2000/svg" xmlns:xlink="http://www.w3.org/1999/xlink" y="0px">
	

	
	

	
	

	
	

	
	

	
	

	
	

	
	

	
	

	
	

	
	

	
	

	
	

	
	

	
	

	
	

	<path animation_id="10" clip-rule="evenodd" d="M204.873,199.749c6.084,11.506-6.581,18.346-6.071,28.642  c2.91,3.184,4.404-1.573,7.296-1.604c5.929-6.968,10.293-14.974,14.821-23.126c0.812-0.127,1.644-0.729,2.594-0.528  c3.08,6.719-3.888,11.718-4.808,18.103c0.599,1.147-0.125,2.885,0.468,4.033c4.777,1.015,7.433-4.653,10.445-7.411  c3.247-4.52,5.585-10.199,10.394-13.68c0.622,0.511,2.238,0.255,1.858,1.524c1.631,6.816-5.015,11.827-3.04,18.176  c1.674,2.162,5.261,0.874,6.797,2.551c-2.189,2.309-4.701,0.911-7.313,1.926c-2.378-0.747-4.213-2.916-4.902-5.352  c-0.13-0.814,0.237-1.756-0.225-2.26l-0.802-0.036c-3.899,4.652-7.42,8.03-12.34,10.387c-2.391-0.431-4.748-1.658-5.917-4.276  c0.213-1.117-0.076-1.932-0.689-2.6c-4.125,2.551-6.238,6.791-11.153,8.99c-2.159,1.664-4.877,1.391-6.895-0.304  c-0.731-1.641-1.454-3.433-3.004-4.793c-4.167,3.518-6.15,8.565-11.368,10.266c-1.601-0.066-2.608,0.851-4.183,0.14  c-4.334-3.724-1.74-7.945-1.36-12.901c4.528-11.688,11.159-23.771,23.387-28.059C201.277,197.502,204.002,197.63,204.873,199.749   M202.459,203.497c-0.766,6.555-4.72,12.483-9.124,17.756c-1.501,1.222-3.092,4.52-5.774,3.438c0.043-0.96-0.717-1.956-1.506-2.314  c-1.616,0.249-0.738,2.218-1.118,3.487c1.081,1.014,0.374,2.587,0.471,4.033c-1.983,1.202-3.259,4.677-6.257,3.42  c-2.159-5.716,2.267-11.299,3.937-16.529c5.4-6.031,9.443-14.044,18.309-14.621L202.459,203.497z" fill="#1A171B" fill-rule="evenodd" stroke="black"/>
	

	
	

	
	

	
	

	
	

	
	

	
	

	
	

	
	

</svg>