<?xml version="1.0" encoding="iso-8859-1"?><!-- Generator: Adobe Illustrator 14.0.0, SVG Export Plug-In . SVG Version: 6.00 Build 43363)  --><!DOCTYPE svg  PUBLIC '-//W3C//DTD SVG 1.1//EN'  'http://www.w3.org/Graphics/SVG/1.1/DTD/svg11.dtd'><svg enable-background="new 0 0 1024 279" height="279px" id="Ebene_1" version="1.1" viewBox="0 0 1024 279" width="1024px" x="0px" xml:space="preserve" xmlns="http://www.w3.org/2000/svg" xmlns:xlink="http://www.w3.org/1999/xlink" y="0px">
	

	
	

	
	

	
	

	
	

	
	

	
	

	
	

	
	

	
	

	<path animation_id="4" d="M698.201,149.665c-2.26,7.605-8.771,13.267-12.446,20.174l-1.288,3.796c3.098,2.546,5.759-3.122,8.347-3.65  c0.838-0.766,1.081-2.527,2.673-2.296c4.714-4.933,9.828-8.079,15.295-12.016c1.16-0.754,3.73-0.645,4.495,0.2  c1.228,5.029-1.421,10.533-4.021,14.913c-1.179,1.239-1.13,3.65-2.005,5.376c0.577,1.476,2.958,2.06,4.288,0.996  c12.138-5.734,22.938-13.941,35.166-18.065c0.93,0.844-0.541,1.264-0.565,1.901c-5.023,4.604-11.639,5.278-16.17,9.737  c-7.818,2.552-16.96,13.395-25.039,10.794c-4.55-6.305,2.132-12.112,3.188-17.853l-0.212-2.575  c-6.038,2.302-9.452,6.81-14.288,10.939c-4.482,3.171-7.52,10.272-14.056,9.179c-2.345-1.385-1.58-4.246-1.173-6.312  c2.503-9.366,8.911-16.474,12.981-24.972C694.732,148.067,697.199,146.889,698.201,149.665" fill="#1A171B" stroke="black"/>
	

	
	

	
	

	
	

	
	

	
	

	
	

	
	

	
	

	
	

	
	

	
	

	
	

	
	

	
	

</svg>