<?xml version="1.0" encoding="iso-8859-1"?><!-- Generator: Adobe Illustrator 14.0.0, SVG Export Plug-In . SVG Version: 6.00 Build 43363)  --><!DOCTYPE svg  PUBLIC '-//W3C//DTD SVG 1.1//EN'  'http://www.w3.org/Graphics/SVG/1.1/DTD/svg11.dtd'><svg enable-background="new 0 0 1024 279" height="279px" id="Ebene_1" version="1.1" viewBox="0 0 1024 279" width="1024px" x="0px" xml:space="preserve" xmlns="http://www.w3.org/2000/svg" xmlns:xlink="http://www.w3.org/1999/xlink" y="0px">
	

	
	

	
	

	
	

	
	

	
	

	
	

	
	

	
	

	
	

	
	

	
	

	
	

	
	

	
	

	<path animation_id="9" clip-rule="evenodd" d="M157.24,190.766c0.616,0.668-1.075,2.521,0.225,2.253  c6.035,1.549,14.576,0.96,16.501,8.273c-1.728,10.206-12.619,13.104-20.216,17.908c1.792,3.128,4.419,1.798,7.11,2.722  c2.221,0.577,4.574,1.962,5.625,3.62c0.186,10.442-11.775,12.173-18.375,16.219c-4.69,0.76-10.066,2.454-15.099,3.682  c-1.397,2.502-3.083,4.355-5.965,4.069c-2.661-5.254-9.403-1.536-13.896-1.725c-2.861-0.614-7.433,1.117-9.698-2.193  c-1.006-2.776,2.271-4.233,3.909-4.969c3.277-1.464,0.993,2.934,3.705,3.371c6.096,0.268,9.941,0.438,15.603-0.443  c2.697-2.934,3.365-7.24,5.598-10.515c1.765-3.614,3.229-7.727,4.845-11.669c3.757-1.446,0.54-4.957,2.113-7.939  c1.179-1.239,1.431-3.317,3.372-3.706c1.816-4.744,5.339-8.128,6.682-13.2c-7.146-1.761-13.935,2.758-20.086,3.937  c-2.244-0.097-4.908,2.035-7.353,2.892c-3.794,2.248-7.402,4.016-9.023,7.958c-1.003,0.917-2.926,0.838-3.846-0.17  c-1.264-0.535-2.002-2.018-1.619-3.438c4.896-5.412,12.475-6.038,18.415-9.641c1.118,0.049,2.904-0.353,3.751-1.275  c7.277-1.294,14.275-3.396,21.838-3.705c1.822-1.209,1.604-3.621,2.949-5.012C156.083,187.819,157.31,189.161,157.24,190.766   M169.334,200.77l-0.13,2.88c-6.481,8.717-15.46,15.715-26.37,15.398c0.344-4.161,4.933-6.208,6.713-10.145  c0.23-1.604,1.579-3.152,2.588-4.228c2.368-2.782,2.345-9.537,7.757-8.334C163.214,197.447,167.369,197.951,169.334,200.77z   M162.397,227.127c-2.363,6.318-8.888,8.602-13.819,11.281c-5.176,0.734-10.321,4.531-15.703,2.69  c0.386-5.127,3.642-9.641,5.449-14.385c4.13-2.703,10.32-0.996,15.192-2.065C156.07,224.922,160.259,224.625,162.397,227.127z" fill="#1A171B" fill-rule="evenodd" stroke="black"/>
	

	
	

	
	

	
	

	
	

	
	

	
	

	
	

	
	

	
	

</svg>