<?xml version="1.0" encoding="iso-8859-1"?><!-- Generator: Adobe Illustrator 14.0.0, SVG Export Plug-In . SVG Version: 6.00 Build 43363)  --><!DOCTYPE svg  PUBLIC '-//W3C//DTD SVG 1.1//EN'  'http://www.w3.org/Graphics/SVG/1.1/DTD/svg11.dtd'><svg enable-background="new 0 0 1024 279" height="279px" id="Ebene_1" version="1.1" viewBox="0 0 1024 279" width="1024px" x="0px" xml:space="preserve" xmlns="http://www.w3.org/2000/svg" xmlns:xlink="http://www.w3.org/1999/xlink" y="0px">
	

	
	

	
	

	
	

	<path animation_id="2" d="M159.938,12.441c2.781,1.585,5.691,5.145,5.952,9.349l0.064,16.827h-14.555V26.802  c-0.972-4.368-6.634-3.165-7.764-3.074c-1.686,0.261-2.071,0.88-2.979,2.43c-0.901,2.588-0.255,6.476-0.386,9.707  c0,0,18.373,20.313,24.064,26.005c2.588,4.277,1.458,11.202,1.555,15.533c0.158,7.053-2.587,12.684-7.76,16.183  c-6.345,3.104-15.788,3.104-22.394,0.516c-5.176-2.205-9.188-7.38-9.573-13.072V67.307h14.074c0.188,2.849-0.482,10.126,0.55,12.817  c1.425,2.715,5.045,2.193,7.764,1.938c0.907-0.127,2.037-0.583,2.523-2.199c0.386-3.165,0.194-10.746,0.194-10.746  s-15.401-15.654-23.165-24.456c-3.496-5.692-1.619-12.362-2.071-20.702c0.616-5.728,4.38-10.46,8.541-12.034  c4.689-1.78,8.738-1.78,17.473-1.688C155.025,10.273,157.479,11.402,159.938,12.441" fill="#1A171B" stroke="black"/>
	

	
	

	
	

	
	

	
	

	
	

	
	

	
	

	
	

	
	

	
	

	
	

	
	

	
	

	
	

	
	

	
	

	
	

	
	

	
	

	
	

</svg>