<?xml version="1.0" encoding="iso-8859-1"?><!-- Created with Inkscape (http://www.inkscape.org/) --><svg height="50.380001" id="svg3671" version="1.0" width="185.85001" xmlns="http://www.w3.org/2000/svg" xmlns:svg="http://www.w3.org/2000/svg">
	
  
	<defs id="defs3673">
		
    
		<clipPath id="clipPath3611">
			
      
			
			
    
		</clipPath>
		
  
	</defs>
	
  
	<g id="layer1" transform="translate(-342.36009,-385.31254)">
		
    
		<g id="g3607" transform="matrix(1.25,0,0,-1.25,285.9033,850.63825)">
			
      
			<g clip-path="url(#clipPath3611)" id="g3609">
				
        
				
				
        
				
				
        
				
				
      
			</g>
			
    
		</g>
		
    
		
		
    
		
		
    
		
		
    
		
		
    
		
		
    
		
		
    
		<path animation_id="10" d="M 384.9758,402.53575 C 385.00455,407.98075 389.3183,410.12325 394.1983,410.12325 C 398.8708,410.12325 403.4533,408.39825 403.4533,403.012 C 403.4533,399.17325 400.3583,397.7445 397.2933,396.882 C 394.1983,396.02075 391.1333,395.722 391.1333,394.08575 C 391.1333,392.68825 392.62205,392.27075 393.81205,392.27075 C 395.50705,392.27075 397.32205,392.89575 397.2333,394.8295 L 402.7683,394.8295 C 402.7383,390.03825 398.4833,387.98575 394.2583,387.98575 C 390.2708,387.98575 385.59955,389.80075 385.59955,394.44325 C 385.59955,398.34075 388.7833,399.7095 391.8183,400.572 C 394.8833,401.43575 397.9183,401.792 397.9183,403.667 C 397.9183,405.2445 396.19205,405.83825 394.5258,405.83825 C 392.17455,405.83825 390.6283,405.03575 390.5083,402.53575 L 384.9758,402.53575" id="path3633" stroke="black" style="fill:#231f20;fill-opacity:1;fill-rule:nonzero;"/>
		
    
		
		
    
		
		
    
		
		
    
		
		
    
		
		
    
		
		
    
		
		
    
		
		
    
		
		
  
	</g>
	

</svg>