<?xml version="1.0" encoding="iso-8859-1"?><!-- Created with Inkscape (http://www.inkscape.org/) --><svg height="344.40945" id="svg9066" version="1.1" width="892.91339" xmlns="http://www.w3.org/2000/svg" xmlns:cc="http://creativecommons.org/ns#" xmlns:dc="http://purl.org/dc/elements/1.1/" xmlns:rdf="http://www.w3.org/1999/02/22-rdf-syntax-ns#" xmlns:svg="http://www.w3.org/2000/svg">
	
  
	<defs id="defs9068">
		
    
		<clipPath id="clipPath8586">
			
      
			
			
    
		</clipPath>
		
  
	</defs>
	
  
	<metadata id="metadata9071">
		
    
		<rdf:RDF>
			
      
			<cc:Work rdf:about="">
				
        
				<dc:format>image/svg+xml</dc:format>
				
        
				<dc:type rdf:resource="http://purl.org/dc/dcmitype/StillImage"/>
				
        
				<dc:title/>
				
      
			</cc:Work>
			
    
		</rdf:RDF>
		
  
	</metadata>
	
  
	<g id="layer1" transform="translate(71.695091,-299.067)">
		
    
		<g id="g8582" transform="matrix(10.709773,0,0,-10.709773,-3580.2612,3300.5078)">
			
      
			<g clip-path="url(#clipPath8586)" id="g8584">
				
        
				<g id="g8590" transform="translate(324.5337,279.9213)">
					
          
					
					
        
				</g>
				
        
				<g id="g8594" transform="translate(415.2829,279.9213)">
					
          
					
					
        
				</g>
				
        
				<g id="g8598" transform="translate(370.3015,269.7581)">
					
          
					
					
        
				</g>
				
        
				<g id="g8602" transform="translate(351.0132,255.5731)">
					
          
					
					
        
				</g>
				
        
				<g id="g8606" transform="translate(352.4106,253.9131)">
					
          
					
					
        
				</g>
				
        
				<g id="g8610" transform="translate(353.3778,255.4414)">
					
          
					
					
        
				</g>
				
        
				<g id="g8614" transform="translate(355.6205,254.1558)">
					
          
					
					
        
				</g>
				
        
				<g id="g8618" transform="translate(357.295,253.9131)">
					
          
					
					
        
				</g>
				
        
				<g id="g8622" transform="translate(358.7297,255.067)">
					
          
					
					
        
				</g>
				
        
				<g id="g8626" transform="translate(360.0159,254.4122)">
					
          
					
					
        
				</g>
				
        
				<g id="g8630" transform="translate(362.4702,255.067)">
					
          
					
					
        
				</g>
				
        
				<g id="g8634" transform="translate(364.8309,254.4122)">
					
          
					
					
        
				</g>
				
        
				<g id="g8638" transform="translate(367.174,254.745)">
					
          
					
					
        
				</g>
				
        
				<g id="g8642" transform="translate(368.7201,255.4067)">
					
          
					
					
        
				</g>
				
        
				<g id="g8646" transform="translate(370.647,254.8697)">
					
          
					
					
        
				</g>
				
        
				<g id="g8650" transform="translate(372.6024,255.067)">
					
          
					
					
        
				</g>
				
        
				<g id="g8654" transform="translate(374.8967,253.9096)">
					
          
					
					
        
				</g>
				
        
				<g id="g8658" transform="translate(375.6531,253.8162)">
					
          
					
					
        
				</g>
				
        
				<g id="g8662" transform="translate(378.2008,255.2473)">
					
          
					<path animation_id="19" d="m 0,0 c 0.218,-0.114 0.561,-0.291 0.561,-0.752 0,-0.451 -0.347,-0.714 -0.8,-0.714 -0.562,0 -0.794,0.368 -0.794,0.568 0,0.153 0.121,0.212 0.204,0.212 0.139,0 0.194,-0.107 0.246,-0.201 0.046,-0.094 0.143,-0.281 0.375,-0.281 0.187,0 0.326,0.132 0.326,0.326 0,0.246 -0.181,0.34 -0.458,0.485 l -0.19,0.097 c -0.132,0.073 -0.472,0.256 -0.472,0.676 0,0.419 0.312,0.676 0.742,0.676 0.457,0 0.731,-0.264 0.731,-0.461 0,-0.118 -0.086,-0.201 -0.198,-0.201 -0.121,0 -0.166,0.076 -0.211,0.152 -0.059,0.094 -0.149,0.236 -0.336,0.236 -0.177,0 -0.302,-0.135 -0.302,-0.309 0,-0.225 0.177,-0.315 0.413,-0.429 L 0,0 z" id="path8664" stroke="black" style="fill:#231f20;fill-opacity:1;fill-rule:nonzero;"/>
					
        
				</g>
				
        
				<g id="g8666" transform="translate(380.0272,255.067)">
					
          
					
					
        
				</g>
				
        
				<g id="g8670" transform="translate(381.2546,253.9131)">
					
          
					
					
        
				</g>
				
        
				<g id="g8674" transform="translate(382.3602,255.4414)">
					
          
					
					
        
				</g>
				
        
				<g id="g8678" transform="translate(384.5266,255.7395)">
					
          
					
					
        
				</g>
				
        
				<g id="g8682" transform="translate(386.6656,255.7464)">
					
          
					
					
        
				</g>
				
        
				<g id="g8686" transform="translate(388.0312,256.0792)">
					
          
					
					
        
				</g>
				
        
				<g id="g8690" transform="translate(390.222,255.7464)">
					
          
					
					
        
				</g>
				
        
				<g id="g8694" transform="translate(391.2694,253.8162)">
					
          
					
					
        
				</g>
				
      
			</g>
			
    
		</g>
		
  
	</g>
	

</svg>