<?xml version="1.0" encoding="iso-8859-1"?><!-- Created with Inkscape (http://www.inkscape.org/) --><svg height="344.40945" id="svg9066" version="1.1" width="892.91339" xmlns="http://www.w3.org/2000/svg" xmlns:cc="http://creativecommons.org/ns#" xmlns:dc="http://purl.org/dc/elements/1.1/" xmlns:rdf="http://www.w3.org/1999/02/22-rdf-syntax-ns#" xmlns:svg="http://www.w3.org/2000/svg">
	
  
	<defs id="defs9068">
		
    
		<clipPath id="clipPath8586">
			
      
			
			
    
		</clipPath>
		
  
	</defs>
	
  
	<metadata id="metadata9071">
		
    
		<rdf:RDF>
			
      
			<cc:Work rdf:about="">
				
        
				<dc:format>image/svg+xml</dc:format>
				
        
				<dc:type rdf:resource="http://purl.org/dc/dcmitype/StillImage"/>
				
        
				<dc:title/>
				
      
			</cc:Work>
			
    
		</rdf:RDF>
		
  
	</metadata>
	
  
	<g id="layer1" transform="translate(71.695091,-299.067)">
		
    
		<g id="g8582" transform="matrix(10.709773,0,0,-10.709773,-3580.2612,3300.5078)">
			
      
			<g clip-path="url(#clipPath8586)" id="g8584">
				
        
				<g id="g8590" transform="translate(324.5337,279.9213)">
					
          
					
					
        
				</g>
				
        
				<g id="g8594" transform="translate(415.2829,279.9213)">
					
          
					
					
        
				</g>
				
        
				<g id="g8598" transform="translate(370.3015,269.7581)">
					
          
					
					
        
				</g>
				
        
				<g id="g8602" transform="translate(351.0132,255.5731)">
					
          
					
					
        
				</g>
				
        
				<g id="g8606" transform="translate(352.4106,253.9131)">
					
          
					
					
        
				</g>
				
        
				<g id="g8610" transform="translate(353.3778,255.4414)">
					
          
					
					
        
				</g>
				
        
				<g id="g8614" transform="translate(355.6205,254.1558)">
					
          
					
					
        
				</g>
				
        
				<g id="g8618" transform="translate(357.295,253.9131)">
					
          
					
					
        
				</g>
				
        
				<g id="g8622" transform="translate(358.7297,255.067)">
					
          
					
					
        
				</g>
				
        
				<g id="g8626" transform="translate(360.0159,254.4122)">
					
          
					
					
        
				</g>
				
        
				<g id="g8630" transform="translate(362.4702,255.067)">
					
          
					
					
        
				</g>
				
        
				<g id="g8634" transform="translate(364.8309,254.4122)">
					
          
					
					
        
				</g>
				
        
				<g id="g8638" transform="translate(367.174,254.745)">
					
          
					
					
        
				</g>
				
        
				<g id="g8642" transform="translate(368.7201,255.4067)">
					
          
					
					
        
				</g>
				
        
				<g id="g8646" transform="translate(370.647,254.8697)">
					
          
					
					
        
				</g>
				
        
				<g id="g8650" transform="translate(372.6024,255.067)">
					
          
					<path animation_id="16" d="m 0,0 c -0.014,0.222 -0.149,0.35 -0.301,0.35 -0.24,0 -0.347,-0.218 -0.364,-0.457 L 0,0 z m -0.648,-0.322 c 0.058,-0.478 0.311,-0.572 0.478,-0.572 0.184,0 0.322,0.111 0.412,0.229 0.056,0.079 0.073,0.1 0.118,0.1 0.045,0 0.091,-0.038 0.091,-0.107 0,-0.097 -0.143,-0.603 -0.687,-0.603 -0.457,0 -0.776,0.333 -0.776,0.946 0,0.689 0.405,0.939 0.776,0.939 0.541,0 0.669,-0.485 0.669,-0.651 0,-0.122 -0.08,-0.132 -0.121,-0.139 l -0.96,-0.142 z" id="path8652" stroke="black" style="fill:#231f20;fill-opacity:1;fill-rule:nonzero;"/>
					
        
				</g>
				
        
				<g id="g8654" transform="translate(374.8967,253.9096)">
					
          
					
					
        
				</g>
				
        
				<g id="g8658" transform="translate(375.6531,253.8162)">
					
          
					
					
        
				</g>
				
        
				<g id="g8662" transform="translate(378.2008,255.2473)">
					
          
					
					
        
				</g>
				
        
				<g id="g8666" transform="translate(380.0272,255.067)">
					
          
					
					
        
				</g>
				
        
				<g id="g8670" transform="translate(381.2546,253.9131)">
					
          
					
					
        
				</g>
				
        
				<g id="g8674" transform="translate(382.3602,255.4414)">
					
          
					
					
        
				</g>
				
        
				<g id="g8678" transform="translate(384.5266,255.7395)">
					
          
					
					
        
				</g>
				
        
				<g id="g8682" transform="translate(386.6656,255.7464)">
					
          
					
					
        
				</g>
				
        
				<g id="g8686" transform="translate(388.0312,256.0792)">
					
          
					
					
        
				</g>
				
        
				<g id="g8690" transform="translate(390.222,255.7464)">
					
          
					
					
        
				</g>
				
        
				<g id="g8694" transform="translate(391.2694,253.8162)">
					
          
					
					
        
				</g>
				
      
			</g>
			
    
		</g>
		
  
	</g>
	

</svg>