<?xml version="1.0" encoding="iso-8859-1"?><!-- Generator: Adobe Illustrator 16.0.4, SVG Export Plug-In . SVG Version: 6.00 Build 0)  --><!DOCTYPE svg  PUBLIC '-//W3C//DTD SVG 1.1//EN'  'http://www.w3.org/Graphics/SVG/1.1/DTD/svg11.dtd'><svg enable-background="new 0 0 680.315 396.851" height="396.851px" id="Ebene_1" version="1.1" viewBox="0 0 680.315 396.851" width="680.315px" x="0px" xml:space="preserve" xmlns="http://www.w3.org/2000/svg" xmlns:xlink="http://www.w3.org/1999/xlink" y="0px">
	

	
	

	
	

	<g>
		
	
		
		
	
		
		
	
		
		
	
		<path animation_id="4" d="M355.705,186.822c-0.213-16.41-8.885-25.162-23.131-26.91c-3.035-0.372-9.52-0.452-12.04-0.452   l-31.462,0.007v12.037l31.462-0.001c3.506,0,6.524,0.223,9.014,0.645c9.429,1.599,11.984,7.533,12.121,14.675h-32.695   c-15.257,0.16-22.554,8.325-22.554,19.385v0.329c0,1.267,0.096,2.495,0.288,3.68l0,0c1.505,9.249,8.922,15.707,22.724,15.707   h46.279l-0.002-15.707L355.705,186.822z M301.175,210.214c-0.574-0.962-0.879-2.079-0.879-3.299v-1.562   c0-3.952,3.205-6.831,8.367-6.831l33.001,0.002v11.691v3.527l-33.001,0.003c-3.569,0-6.203-1.376-7.488-3.53" fill="#AFE600" stroke="black"/>
		
	
		
		
	
		
		

	</g>
	

</svg>