<?xml version="1.0" encoding="iso-8859-1"?><!-- Generator: Adobe Illustrator 16.0.4, SVG Export Plug-In . SVG Version: 6.00 Build 0)  --><!DOCTYPE svg  PUBLIC '-//W3C//DTD SVG 1.1//EN'  'http://www.w3.org/Graphics/SVG/1.1/DTD/svg11.dtd'><svg enable-background="new 0 0 680.315 396.851" height="396.851px" id="Ebene_1" version="1.1" viewBox="0 0 680.315 396.851" width="680.315px" x="0px" xml:space="preserve" xmlns="http://www.w3.org/2000/svg" xmlns:xlink="http://www.w3.org/1999/xlink" y="0px">
	

	
	

	
	

	<g>
		
	
		<path animation_id="1" d="M257.397,159.293c-3.034-0.373-9.519-0.452-12.04-0.452h-7.061c-2.521,0-9.006,0.079-12.041,0.452   c-14.425,1.77-23.135,10.722-23.135,27.534v11.402c0,4.57,0.644,8.56,1.871,11.986h0.001c3.288,9.164,10.761,14.26,21.263,15.549   c3.035,0.372,9.52,0.451,12.041,0.451h7.061c2.521,0,9.005-0.079,12.04-0.451c10.504-1.289,17.978-6.386,21.265-15.549v-0.004   c1.227-3.422,1.871-7.412,1.871-11.982v-11.402C280.533,170.015,271.823,161.063,257.397,159.293z M266.498,198.23   c0,4.798-1.014,9.102-4.356,11.986v0.003c-1.825,1.575-4.344,2.729-7.77,3.311c-2.49,0.422-5.508,0.645-9.014,0.645h-7.061   c-3.506,0-6.524-0.223-9.014-0.645c-3.426-0.581-5.945-1.735-7.77-3.313h-0.003c-3.34-2.887-4.353-7.189-4.353-11.986v-11.402   c0-7.418,2.424-13.654,12.126-15.299c2.49-0.422,5.508-0.645,9.014-0.645h7.061c3.506,0,6.524,0.223,9.014,0.645   c9.702,1.645,12.126,7.88,12.126,15.299V198.23z" fill="#AFE600" stroke="black"/>
		
	
		
		
	
		
		
	
		
		
	
		
		
	
		
		

	</g>
	

</svg>