<?xml version="1.0" encoding="iso-8859-1"?><!-- Generator: Adobe Illustrator 16.0.4, SVG Export Plug-In . SVG Version: 6.00 Build 0)  --><!DOCTYPE svg  PUBLIC '-//W3C//DTD SVG 1.1//EN'  'http://www.w3.org/Graphics/SVG/1.1/DTD/svg11.dtd'><svg enable-background="new 0 0 680.315 396.851" height="396.851px" id="Ebene_1" version="1.1" viewBox="0 0 680.315 396.851" width="680.315px" x="0px" xml:space="preserve" xmlns="http://www.w3.org/2000/svg" xmlns:xlink="http://www.w3.org/1999/xlink" y="0px">
	

	
	

	
	

	<g>
		
	
		
		
	
		
		
	
		
		
	
		
		
	
		
		
	
		<path animation_id="6" d="M365.229,210.223c3.344,8.966,10.766,13.959,21.146,15.232c3.035,0.372,9.52,0.452,12.041,0.452   l31.461-0.007v-12.037l-31.461,0.002c-3.508,0-6.525-0.223-9.014-0.646c-3.199-0.542-5.605-1.583-7.396-3.004h-0.005   c-3.637-2.884-4.726-7.323-4.726-12.295v-10.475c0-7.418,2.424-13.654,12.127-15.299c2.488-0.422,5.506-0.645,9.014-0.645   l31.461,0.001v-12.037l-31.461-0.007c-2.521,0-9.006,0.08-12.041,0.452c-14.426,1.77-23.135,10.722-23.135,27.534v10.475   c0,4.714,0.684,8.81,1.988,12.295" fill="#AFE600" stroke="black"/>
		

	</g>
	

</svg>