<?xml version="1.0" encoding="iso-8859-1"?><!-- Created with Inkscape (http://www.inkscape.org/) --><svg height="398.2677" id="svg7461" version="1.1" width="892.91339" xml:space="preserve" xmlns="http://www.w3.org/2000/svg" xmlns:cc="http://creativecommons.org/ns#" xmlns:dc="http://purl.org/dc/elements/1.1/" xmlns:rdf="http://www.w3.org/1999/02/22-rdf-syntax-ns#" xmlns:svg="http://www.w3.org/2000/svg">
	<metadata id="metadata7467">
		<rdf:RDF>
			<cc:Work rdf:about="">
				<dc:format>image/svg+xml</dc:format>
				<dc:type rdf:resource="http://purl.org/dc/dcmitype/StillImage"/>
				<dc:title/>
			</cc:Work>
		</rdf:RDF>
	</metadata>
	<defs id="defs7465">
		<clipPath id="clipPath7477">
			
		</clipPath>
		<clipPath id="clipPath7485">
			
		</clipPath>
		<clipPath id="clipPath7517">
			
		</clipPath>
		<clipPath id="clipPath7585">
			
		</clipPath>
		<clipPath id="clipPath7603">
			
		</clipPath>
		<clipPath id="clipPath7617">
			
		</clipPath>
		<clipPath id="clipPath7629">
			
		</clipPath>
		<clipPath id="clipPath7637">
			
		</clipPath>
		<clipPath id="clipPath7701">
			
		</clipPath>
		<clipPath id="clipPath7713">
			
		</clipPath>
		<clipPath id="clipPath7809">
			
		</clipPath>
		<clipPath id="clipPath7823">
			
		</clipPath>
		<clipPath id="clipPath7891">
			
		</clipPath>
		<clipPath id="clipPath7959">
			
		</clipPath>
		<clipPath id="clipPath8027">
			
		</clipPath>
		<clipPath id="clipPath8095">
			
		</clipPath>
		<clipPath id="clipPath8163">
			
		</clipPath>
		<clipPath id="clipPath8231">
			
		</clipPath>
		<clipPath id="clipPath8299">
			
		</clipPath>
		<clipPath id="clipPath8367">
			
		</clipPath>
		<clipPath id="clipPath8379">
			
		</clipPath>
		<clipPath id="clipPath8387">
			
		</clipPath>
	</defs>
	<g id="g7469" transform="matrix(1.25,0,0,-1.25,-151.428,1142.9751)">
		<g id="g7513" transform="matrix(3.0162428,0,0,3.0162428,-753.1352,-2634.0148)">
			<g clip-path="url(#clipPath7517)" id="g7515">
				<g id="g7521" transform="translate(395.9742,1096.5187)">
					
				</g>
				<g id="g7525" transform="translate(395.9742,1096.5187)">
					
				</g>
				<g id="g7529" transform="translate(298.4473,1100.0105)">
					<path animation_id="24" d="m 0,0 -1.68,-0.454 c -0.922,-0.247 -1.622,-0.373 -2.08,-0.373 -0.274,0 -0.481,0.075 -0.651,0.238 l -0.949,0.903 0.001,-1.31 c 0,-2.468 1.1,-2.986 2.023,-2.986 0.392,0 0.836,0.045 1.316,0.125 -0.198,-1.404 -2.361,-16.762 -2.462,-17.483 -0.552,-0.106 -0.84,-0.133 -0.984,-0.133 -0.421,0 -0.822,0.152 -1.226,0.463 l -0.959,0.737 0.056,-1.208 c 0.054,-1.181 0.227,-1.993 0.527,-2.483 0.244,-0.398 0.745,-0.874 1.74,-0.874 0.389,0 1.018,0.088 1.923,0.27 l 2.41,0.457 c 0.762,0.146 1.408,0.22 1.92,0.22 0.481,0 0.946,-0.109 1.383,-0.325 l 0.81,-0.399 0,0.903 c 0,2.72 -1.055,3.292 -1.939,3.292 -0.486,0 -1.216,-0.082 -2.209,-0.247 0.193,1.372 2.352,16.751 2.455,17.486 0.039,0.009 0.084,0.017 0.118,0.027 l -0.04,-0.01 c 0.64,0.131 1.219,0.198 1.721,0.198 0.32,0 0.622,-0.1 0.925,-0.306 l 0.971,-0.66 -0.096,1.17 C 4.848,-0.617 4.104,0.47 2.811,0.47 2.143,0.47 1.224,0.317 0,0" id="path7531" stroke="black" style="fill:#622a11;fill-opacity:1;fill-rule:nonzero;"/>
				</g>
				<g id="g7533" transform="translate(302.6111,1102.9697)">
					
				</g>
				<g id="g7537" transform="translate(351.2556,1100.2006)">
					
				</g>
				<g id="g7541" transform="translate(394.9772,1098.1309)">
					
				</g>
				<g id="g7545" transform="translate(411.8388,1098.1309)">
					
				</g>
				<g id="g7549" transform="translate(467.3236,1099.176)">
					
				</g>
				<g id="g7553" transform="translate(463.2403,1099.2097)">
					
				</g>
				<g id="g7557" transform="translate(467.6387,1088.8108)">
					
				</g>
				<g id="g7561" transform="translate(389.8041,1175.4858)">
					
				</g>
				<g id="g7565" transform="translate(438.1401,1158.6912)">
					
				</g>
				<g id="g7569" transform="translate(359.0664,1150.2856)">
					
				</g>
				<g id="g7573" transform="translate(500.7886,1150.2856)">
					
				</g>
				<g id="g7577" transform="translate(298.0826,1127.6561)">
					
				</g>
			</g>
		</g>
	</g>
</svg>