<?xml version="1.0" encoding="iso-8859-1"?><!-- Created with Inkscape (http://www.inkscape.org/) --><svg height="398.2677" id="svg7461" version="1.1" width="892.91339" xml:space="preserve" xmlns="http://www.w3.org/2000/svg" xmlns:cc="http://creativecommons.org/ns#" xmlns:dc="http://purl.org/dc/elements/1.1/" xmlns:rdf="http://www.w3.org/1999/02/22-rdf-syntax-ns#" xmlns:svg="http://www.w3.org/2000/svg">
	<metadata id="metadata7467">
		<rdf:RDF>
			<cc:Work rdf:about="">
				<dc:format>image/svg+xml</dc:format>
				<dc:type rdf:resource="http://purl.org/dc/dcmitype/StillImage"/>
				<dc:title/>
			</cc:Work>
		</rdf:RDF>
	</metadata>
	<defs id="defs7465">
		<clipPath id="clipPath7477">
			
		</clipPath>
		<clipPath id="clipPath7485">
			
		</clipPath>
		<clipPath id="clipPath7517">
			
		</clipPath>
		<clipPath id="clipPath7585">
			
		</clipPath>
		<clipPath id="clipPath7603">
			
		</clipPath>
		<clipPath id="clipPath7617">
			
		</clipPath>
		<clipPath id="clipPath7629">
			
		</clipPath>
		<clipPath id="clipPath7637">
			
		</clipPath>
		<clipPath id="clipPath7701">
			
		</clipPath>
		<clipPath id="clipPath7713">
			
		</clipPath>
		<clipPath id="clipPath7809">
			
		</clipPath>
		<clipPath id="clipPath7823">
			
		</clipPath>
		<clipPath id="clipPath7891">
			
		</clipPath>
		<clipPath id="clipPath7959">
			
		</clipPath>
		<clipPath id="clipPath8027">
			
		</clipPath>
		<clipPath id="clipPath8095">
			
		</clipPath>
		<clipPath id="clipPath8163">
			
		</clipPath>
		<clipPath id="clipPath8231">
			
		</clipPath>
		<clipPath id="clipPath8299">
			
		</clipPath>
		<clipPath id="clipPath8367">
			<path animation_id="19" d="m 639.105,148.505 c -0.169,-0.085 -0.338,-0.17 -0.506,-0.254 l 0,0 0,-0.507 -0.254,0 0,-0.761 -0.254,0 0,-0.507 -0.254,0 c -0.084,-0.339 -0.169,-0.677 -0.254,-1.015 l 0,0 -0.252,0 c -0.085,-0.592 -0.17,-1.184 -0.254,-1.775 l 0,0 -0.254,0 0,-0.508 -0.254,0 0,-1.014 -0.254,0 c -0.084,-0.93 -0.169,-1.86 -0.254,-2.79 l 0,0 -0.252,0 0,-1.776 -0.254,0 0,-1.775 -0.254,0 0,-1.015 -0.254,0 0,-2.79 -0.254,0 c -0.168,-0.506 -0.337,-1.014 -0.506,-1.522 l 0,0 -0.254,0 c -0.169,-0.506 -0.339,-1.014 -0.508,-1.521 l 0,0 -0.506,-0.253 0,-0.762 c -0.17,-0.084 -0.339,-0.169 -0.508,-0.253 l 0,0 c -0.085,-0.338 -0.169,-0.676 -0.254,-1.015 l 0,0 -0.254,0 0,-0.507 -0.253,0 0,-0.507 -0.253,0 0,-0.761 c -0.169,-0.084 -0.339,-0.169 -0.508,-0.254 l 0,0 c -0.169,-0.507 -0.337,-1.014 -0.507,-1.521 l 0,0 c -0.169,-0.085 -0.338,-0.17 -0.507,-0.254 l 0,0 0,-0.761 -0.508,-0.253 c -0.084,-0.339 -0.169,-0.677 -0.253,-1.015 l 0,0 c -0.169,-0.084 -0.338,-0.169 -0.507,-0.254 l 0,0 0,-0.507 c -0.17,-0.085 -0.339,-0.169 -0.508,-0.254 l 0,0 0,-0.507 -0.253,0 0,-0.507 c -0.169,-0.085 -0.338,-0.169 -0.507,-0.254 l 0,0 0,-0.507 -0.254,0 0,-0.507 c -0.169,-0.085 -0.339,-0.17 -0.507,-0.254 l 0,0 c -0.084,-0.338 -0.169,-0.676 -0.254,-1.014 l 0,0 -0.507,-0.254 c -0.085,-0.253 -0.17,-0.507 -0.254,-0.761 l 0,0 -0.254,0 c -0.084,-0.338 -0.168,-0.677 -0.253,-1.014 l 0,0 c -0.169,-0.085 -0.338,-0.169 -0.507,-0.254 l 0,0 0,-0.507 -0.508,-0.254 0,-0.507 -0.253,0 c -0.178,-0.58 0.379,-1.231 0.507,-1.776 l 0,0 c -0.506,0.153 -0.218,-0.035 -0.507,0.254 l 0,0 c -1.093,-0.058 -0.859,-0.157 -1.522,-0.507 l 0,0 0,-1.015 0.254,0 c 0.599,-0.599 0.884,-0.316 1.775,-0.254 l 0,0 0.254,0.254 0,1.522 c 0.423,0.339 0.845,0.676 1.268,1.014 l 0,0 0,0.508 0.253,0 0,0.507 0.508,0.254 0,0.507 c 0.168,0.085 0.338,0.169 0.507,0.254 l 0,0 c 0.084,0.337 0.169,0.676 0.254,1.014 l 0,0 c 0.253,0.169 0.507,0.339 0.76,0.508 l 0,0 c 0.085,0.337 0.169,0.676 0.254,1.014 l 0,0 c 0.169,0.085 0.338,0.169 0.508,0.254 l 0,0 c 0.084,0.253 0.169,0.507 0.253,0.76 l 0,0 0.253,0 c 0.085,0.339 0.169,0.677 0.254,1.015 l 0,0 c 0.169,0.084 0.338,0.169 0.508,0.253 l 0,0 c 0.084,0.254 0.169,0.508 0.253,0.761 l 0,0 0.253,0 c 0.169,0.508 0.339,1.015 0.508,1.522 l 0,0 c 0.169,0.085 0.338,0.169 0.507,0.254 l 0,0 0,0.761 0.507,0.253 c 0.169,0.508 0.339,1.015 0.508,1.522 l 0,0 c 0.169,0.085 0.338,0.169 0.507,0.254 l 0,0 0,0.507 0.253,0 c 0.085,0.253 0.169,0.507 0.254,0.761 l 0,0 0.254,0 0,0.254 0.254,0 c -0.007,-2.309 -0.024,-3.374 -0.508,-5.073 l 0,0 0,-3.551 -0.254,0 0,-4.311 -0.253,0 0,-1.522 -0.253,0 0,-3.044 -0.254,0 0,-2.282 -0.254,0 0,-1.016 -0.254,0 0,-1.774 -0.254,0 0,-0.762 -0.253,0 0,-0.76 -0.253,0 c -0.34,-1.061 0.355,-2.577 -0.254,-3.298 l 0,0 c 0.156,-0.615 0.268,-0.557 0.507,-1.014 l 0,0 c 0.667,0.03 0.862,0.1 1.269,0.254 l 0,0 c 0.191,0.974 0.501,2.192 0.76,3.044 l 0,0 c 0.085,0.845 0.169,1.691 0.254,2.536 l 0,0 0.254,0 0,0.76 0.253,0 0,1.522 0.253,0 0,0.508 0.254,0 c 0.254,1.099 0.508,2.197 0.762,3.296 l 0,0 0.252,0 c 0.085,0.339 0.17,0.677 0.254,1.015 l 0,0 0.254,0 c 0.085,0.507 0.169,1.015 0.254,1.522 l 0,0 0.254,0 c 0.084,0.338 0.169,0.676 0.254,1.015 l 0,0 0.252,0 0,0.76 0.254,0 0,0.508 0.254,0 0,0.76 0.254,0 c 0.084,0.339 0.169,0.677 0.254,1.015 l 0,0 0.253,0 0,0.761 c 0.169,0.085 0.338,0.169 0.507,0.254 l 0,0 0,0.507 0.254,0 0,0.507 0.507,0.507 0,0.507 0.507,0.254 c 0.485,0.774 0.215,1.448 1.014,2.029 l 0,0 c -10e-4,0.784 -0.074,1.302 -0.253,1.776 l 0,0 c -0.102,-10e-4 -0.206,0.001 -0.307,0.002 l 0,0 c -0.504,0.008 -0.985,0.017 -1.214,-0.256 l 0,0 0,-0.507 -0.254,0 0,-0.507 c -0.169,-0.085 -0.339,-0.17 -0.508,-0.254 l 0,0 c -0.169,-0.761 -0.338,-1.522 -0.506,-2.283 l 0,0 -0.254,0 0,-0.507 c -0.169,-0.085 -0.339,-0.169 -0.508,-0.254 l 0,0 0,-0.761 -0.254,0 c -0.084,-0.338 -0.169,-0.676 -0.252,-1.014 l 0,0 -0.254,0 0,-0.761 -0.254,0 c -0.339,-1.015 -0.677,-2.029 -1.014,-3.043 l 0,0 -0.508,0 0,4.565 0.254,0 0,1.014 0.254,0 0,4.058 0.252,0 0,4.058 0.254,0 0,1.268 0.254,0 c 0.085,1.268 0.169,2.537 0.254,3.805 l 0,0 0.254,0 c 0.169,0.507 0.338,1.015 0.506,1.521 l 0,0 0.254,0 c 0.085,0.508 0.169,1.016 0.254,1.522 l 0,0 0.254,0 c 0.169,0.508 0.338,1.016 0.507,1.522 l 0,0 0.253,0 0,0.508 0.254,0 0,0.506 0.254,0 c 0.085,0.339 0.169,0.677 0.254,1.016 l 0,0 0.253,0 0,0.76 0.253,0 c 0.085,0.339 0.17,0.677 0.254,1.014 l 0,0 0.254,0 c 0.085,0.508 0.169,1.016 0.254,1.522 l 0,0 0.253,0 0,0.508 0.253,0 c 0.085,0.591 0.17,1.183 0.254,1.775 l 0,0 c 0.492,1.291 2.221,5.933 1.015,7.102 l 0,0 c -0.085,0.169 -0.17,0.338 -0.253,0.507 l 0,0 c -2.601,-0.088 -2.541,-1.448 -3.552,-3.043 m -1.268,-6.595 c 0.254,0.085 0.508,0.169 0.762,0.254 l 0,0 c 0.095,1.524 0.572,2.462 1.014,3.55 l 0,0 c 0.085,0.423 0.169,0.846 0.254,1.269 l 0,0 c 0.168,0.084 0.337,0.169 0.506,0.253 l 0,0 0,0.508 0.254,0 c 0.085,0.253 0.169,0.507 0.254,0.761 l 0,0 0.507,0 c -0.592,-2.283 -1.184,-4.566 -1.775,-6.849 l 0,0 -0.508,-0.253 0,-0.507 -0.253,0 0,-0.762 -0.253,0 c -0.304,-0.729 0.054,-0.749 -0.508,-1.268 l 0,0 0,-0.253 -0.254,0 c 0.059,1.598 0.311,2.385 0,3.297 m 34.494,5.834 -0.507,-0.254 0,-1.522 -0.254,0 0,-1.014 -0.254,0 0,-1.268 -0.253,0 0,-1.522 -0.254,0 0,-1.776 -0.253,0 c -0.085,-0.929 -0.169,-1.86 -0.254,-2.79 l 0,0 -0.254,0 0,-0.76 -0.254,0 0,-2.284 -0.253,0 0,-2.536 -0.253,0 c -0.085,-1.014 -0.17,-2.028 -0.254,-3.043 l 0,0 c -0.966,-3.295 -1.054,-7.408 -2.03,-10.652 l 0,0 0,-2.029 -0.253,0 0,-1.776 -0.253,0 0,-1.014 -0.254,0 0,-2.537 c -0.088,-1.051 -0.646,-6.406 -0.254,-6.848 l 0,0 c -0.007,-0.903 0.041,-1.716 0.254,-2.282 l 0,0 1.268,0 0,0.254 c 0.724,0.566 0.152,0.193 0.507,1.014 l 0,0 0.253,0 0,0.76 0.254,0 c 0.085,0.593 0.169,1.185 0.254,1.776 l 0,0 0.254,0 0,0.761 0.254,0 0,1.015 0.253,0 0,0.76 0.253,0 0,0.762 0.254,0 c 0.085,0.591 0.169,1.183 0.254,1.775 l 0,0 0.254,0 0,1.268 0.253,0 0,0.507 0.254,0 c 0.084,0.676 0.169,1.353 0.253,2.029 l 0,0 0.254,0 0,0.507 0.254,0 c 0.085,0.676 0.169,1.353 0.254,2.03 l 0,0 0.253,0 0,0.507 0.253,0 0,1.521 0.254,0 c 0.423,1.269 0.845,2.537 1.268,3.805 l 0,0 c 0.507,-0.152 0.219,0.035 0.508,-0.254 l 0,0 c 0.39,-0.438 0.233,-1.467 0.253,-2.282 l 0,0 0,-1.015 0.254,0 0,-3.55 c 0.253,-1.522 0.507,-3.044 0.761,-4.566 l 0,0 0.253,0 c 0.169,-0.507 0.338,-1.014 0.507,-1.522 l 0,0 0.254,0 c 0.169,-0.254 0.339,-0.507 0.507,-0.76 l 0,0 c 0.656,-0.126 1.12,-0.258 2.029,-0.254 l 0,0 c 0.592,0.422 1.184,0.845 1.776,1.268 l 0,0 0,0.507 c 0.168,0.084 0.338,0.169 0.507,0.254 l 0,0 c 0.169,0.507 0.338,1.015 0.507,1.521 l 0,0 c 0.17,0.085 0.339,0.17 0.508,0.254 l 0,0 0,0.508 0.253,0 0,0.507 0.254,0 0,0.761 0.254,0 0,0.507 0.253,0 0,0.507 0.254,0 c 0.169,0.507 0.338,1.015 0.507,1.522 l 0,0 0.254,0 0,0.761 0.254,0 0,0.761 0.253,0 0,0.507 0.253,0 0,1.014 0.254,0 0,0.508 0.254,0 c 0.084,0.507 0.169,1.014 0.254,1.522 l 0,0 0.253,0 0,0.253 c 1.443,-0.384 1.872,-1.873 2.79,-2.79 l 0,0 c 0.253,-0.169 0.507,-0.338 0.761,-0.507 l 0,0 0,-0.254 0.507,0 c 0.846,-0.93 1.691,-1.859 2.537,-2.789 l 0,0 c 0.422,-0.339 0.845,-0.677 1.268,-1.015 l 0,0 0,-0.507 c 0.169,-0.085 0.338,-0.169 0.507,-0.254 l 0,0 c 0.084,-0.338 0.169,-0.677 0.253,-1.014 l 0,0 0.254,0 c 0.254,-0.339 0.508,-0.677 0.761,-1.015 l 0,0 1.015,0 0,0.253 c 0.993,0.721 0.965,1.409 1.522,2.537 l 0,0 0.253,0 0,0.761 0.253,0 c 0.085,0.337 0.17,0.676 0.254,1.014 l 0,0 0.254,0 c 0.085,0.423 0.169,0.845 0.254,1.268 l 0,0 0.253,0 c 0.084,0.508 0.169,1.015 0.253,1.522 l 0,0 0.254,0 0,0.507 0.254,0 0,1.015 0.254,0 0,0.507 0.253,0 0,0.761 0.254,0 0,1.015 0.253,0 c 0.085,0.338 0.17,0.676 0.254,1.014 l 0,0 0.254,0 c 0.085,0.507 0.169,1.015 0.253,1.522 l 0,0 0.254,0 c 0.084,0.338 0.169,0.677 0.253,1.014 l 0,0 0.254,0 0,0.508 0.254,0 c 0.085,0.423 0.169,0.845 0.254,1.268 l 0,0 0.253,0 0,1.014 0.254,0 0,0.761 -0.254,0 0,0.253 c -1.348,-0.343 -0.938,-0.864 -1.522,-1.774 l 0,0 -0.507,-0.254 0,-0.508 -0.254,0 0,-0.506 -0.253,0 c -0.085,-0.339 -0.17,-0.677 -0.254,-1.015 l 0,0 -0.253,0 c -0.254,-0.761 -0.508,-1.522 -0.762,-2.283 l 0,0 -0.253,0 0,-0.507 -0.253,0 c -0.169,-0.761 -0.339,-1.522 -0.508,-2.283 l 0,0 -0.254,0 c -0.084,-0.338 -0.169,-0.676 -0.253,-1.014 l 0,0 -0.253,0 0,-1.015 -0.508,-0.254 c -0.169,-0.507 -0.338,-1.014 -0.508,-1.521 l 0,0 c -0.169,-0.085 -0.337,-0.17 -0.506,-0.254 l 0,0 c -0.169,-0.507 -0.339,-1.014 -0.508,-1.521 l 0,0 -0.76,0 0,0.507 -0.508,0 c -0.085,0.253 -0.169,0.507 -0.254,0.761 l 0,0 -0.253,0 c -0.085,0.168 -0.17,0.337 -0.253,0.507 l 0,0 -0.508,0 c -0.254,0.338 -0.508,0.676 -0.76,1.014 l 0,0 -0.254,0 c -0.085,0.169 -0.17,0.338 -0.254,0.507 l 0,0 -0.508,0 c -0.254,0.339 -0.506,0.677 -0.76,1.015 l 0,0 c -1.208,1.201 -3.353,2.715 -3.805,4.565 l 0,0 c -0.475,0.554 -0.234,2.38 0,3.044 l 0,0 0.254,0 0,1.521 0.253,0 0,1.015 0.254,0 0,0.507 0.254,0 c 0.084,0.93 0.169,1.86 0.254,2.79 l 0,0 0.253,0 0,0.762 0.253,0 0,1.521 0.254,0 0,1.015 0.254,0 0,0.76 0.254,0 c 0.332,1.021 -0.142,1.827 0.506,2.536 l 0,0 c 0.062,1.272 0.31,1.998 -0.76,2.284 l 0,0 c -0.288,0.283 0.003,0.108 -0.508,0.253 l 0,0 c -0.271,-0.321 -0.451,-0.263 -0.76,-0.507 l 0,0 0,-0.254 -0.508,0 c -0.169,-0.338 -0.337,-0.677 -0.507,-1.014 l 0,0 -0.507,-0.254 c -0.085,-0.423 -0.169,-0.846 -0.254,-1.268 l 0,0 -0.254,0 0,-0.508 -0.253,0 0,-0.76 -0.253,0 c -0.085,-0.338 -0.17,-0.677 -0.254,-1.014 l 0,0 -0.254,0 0,-1.016 -0.254,0 0,-0.76 -0.253,0 0,-1.014 -0.253,0 0,-1.269 -0.254,0 0,-1.268 -0.254,0 c 0.084,-1.691 0.169,-3.382 0.254,-5.073 l 0,0 0.254,0 c 0.084,-0.93 0.169,-1.859 0.253,-2.79 l 0,0 c -0.677,-2.028 -1.352,-4.058 -2.029,-6.087 l 0,0 -0.254,0 0,-0.507 -0.253,0 0,-0.761 -0.254,0 0,-0.507 -0.254,0 0,-0.761 -0.507,-0.254 c -0.254,-0.76 -0.507,-1.521 -0.761,-2.282 l 0,0 c -0.676,-0.592 -1.352,-1.183 -2.029,-1.776 l 0,0 c -0.216,-0.285 0.034,-0.039 -0.253,-0.253 l 0,0 c -0.128,0.237 -0.484,0.463 -0.508,0.507 l 0,0 0,0.761 -0.253,0 0,0.761 -0.254,0 0,1.268 -0.254,0 0,1.522 -0.253,0 0,1.522 -0.254,0 0,4.819 c -0.299,1.047 -0.578,2.671 -0.761,3.804 l 0,0 c -0.6,0.164 -0.475,0.071 -0.761,0.507 l 0,0 -1.014,0 0,-0.253 c -1.181,-0.306 -1.013,-1.073 -1.522,-2.03 l 0,0 -0.254,0 0,-0.507 -0.253,0 0,-0.761 -0.253,0 0,-0.507 -0.254,0 0,-0.761 -0.254,0 0,-0.761 -0.254,0 0,-0.761 -0.253,0 0,-1.268 -0.254,0 0,-0.761 -0.253,0 0,-0.76 -0.254,0 0,-1.015 c -0.169,-0.085 -0.338,-0.17 -0.508,-0.253 l 0,0 0,-1.015 c -0.432,-1.222 -0.989,-2.665 -1.014,-4.312 l 0,0 -0.508,0 c 0.019,2.034 0.288,3.977 0.762,5.58 l 0,0 0,1.522 0.254,0 0,2.282 0.253,0 0,1.015 0.253,0 0,1.775 0.254,0 0,1.268 0.254,0 0,1.776 0.254,0 0,1.776 0.253,0 0,1.014 0.254,0 c 0.084,1.099 0.169,2.198 0.253,3.297 l 0,0 0.254,0 0,1.268 0.254,0 0,2.537 0.254,0 0,1.522 0.253,0 0,0.76 0.253,0 0,2.79 0.254,0 0,1.268 0.254,0 c 0.085,0.93 0.169,1.86 0.254,2.79 l 0,0 0.253,0 0,0.761 0.253,0 c 0.081,0.352 -0.253,0.507 -0.253,0.507 l 0,0 c -0.031,0.465 0.523,1.775 0.761,2.029 l 0,0 c -0.031,0.666 -0.1,0.861 -0.254,1.268 l 0,0 c -0.506,0.153 -0.218,-0.035 -0.507,0.254 l 0,0 c -1.878,-0.236 -0.714,-0.549 -1.268,-1.775 m 13.95,-15.218 0.506,0.254 c 0.085,0.76 0.169,1.522 0.254,2.282 l 0,0 0.254,0 0,0.508 0.254,0 0,1.268 0.253,0 c 0.085,0.422 0.17,0.845 0.254,1.268 l 0,0 0.507,0 c -0.087,-3.079 -1.306,-5.884 -1.776,-8.624 l 0,0 -0.506,0 0,3.044 z" id="path8369" stroke="black"/>
		</clipPath>
		<clipPath id="clipPath8379">
			
		</clipPath>
		<clipPath id="clipPath8387">
			
		</clipPath>
	</defs>
	<g id="g7469" transform="matrix(1.25,0,0,-1.25,-151.428,1142.9751)">
		<g id="g7513" transform="matrix(3.0162428,0,0,3.0162428,-753.1352,-2634.0148)">
			<g clip-path="url(#clipPath7517)" id="g7515">
				<g id="g7521" transform="translate(395.9742,1096.5187)">
					
				</g>
				<g id="g7525" transform="translate(395.9742,1096.5187)">
					
				</g>
				<g id="g7529" transform="translate(298.4473,1100.0105)">
					
				</g>
				<g id="g7533" transform="translate(302.6111,1102.9697)">
					
				</g>
				<g id="g7537" transform="translate(351.2556,1100.2006)">
					
				</g>
				<g id="g7541" transform="translate(394.9772,1098.1309)">
					
				</g>
				<g id="g7545" transform="translate(411.8388,1098.1309)">
					
				</g>
				<g id="g7549" transform="translate(467.3236,1099.176)">
					
				</g>
				<g id="g7553" transform="translate(463.2403,1099.2097)">
					
				</g>
				<g id="g7557" transform="translate(467.6387,1088.8108)">
					
				</g>
				<g id="g7561" transform="translate(389.8041,1175.4858)">
					
				</g>
				<g id="g7565" transform="translate(438.1401,1158.6912)">
					
				</g>
				<g id="g7569" transform="translate(359.0664,1150.2856)">
					
				</g>
				<g id="g7573" transform="translate(500.7886,1150.2856)">
					
				</g>
				<g id="g7577" transform="translate(298.0826,1127.6561)">
					
				</g>
			</g>
		</g>
	</g>
</svg>