<?xml version="1.0" encoding="iso-8859-1"?><!-- Created with Inkscape (http://www.inkscape.org/) --><svg height="398.2677" id="svg7461" version="1.1" width="892.91339" xml:space="preserve" xmlns="http://www.w3.org/2000/svg" xmlns:cc="http://creativecommons.org/ns#" xmlns:dc="http://purl.org/dc/elements/1.1/" xmlns:rdf="http://www.w3.org/1999/02/22-rdf-syntax-ns#" xmlns:svg="http://www.w3.org/2000/svg">
	<metadata id="metadata7467">
		<rdf:RDF>
			<cc:Work rdf:about="">
				<dc:format>image/svg+xml</dc:format>
				<dc:type rdf:resource="http://purl.org/dc/dcmitype/StillImage"/>
				<dc:title/>
			</cc:Work>
		</rdf:RDF>
	</metadata>
	<defs id="defs7465">
		<clipPath id="clipPath7477">
			
		</clipPath>
		<clipPath id="clipPath7485">
			
		</clipPath>
		<clipPath id="clipPath7517">
			
		</clipPath>
		<clipPath id="clipPath7585">
			
		</clipPath>
		<clipPath id="clipPath7603">
			
		</clipPath>
		<clipPath id="clipPath7617">
			
		</clipPath>
		<clipPath id="clipPath7629">
			
		</clipPath>
		<clipPath id="clipPath7637">
			
		</clipPath>
		<clipPath id="clipPath7701">
			
		</clipPath>
		<clipPath id="clipPath7713">
			
		</clipPath>
		<clipPath id="clipPath7809">
			
		</clipPath>
		<clipPath id="clipPath7823">
			
		</clipPath>
		<clipPath id="clipPath7891">
			
		</clipPath>
		<clipPath id="clipPath7959">
			
		</clipPath>
		<clipPath id="clipPath8027">
			
		</clipPath>
		<clipPath id="clipPath8095">
			
		</clipPath>
		<clipPath id="clipPath8163">
			
		</clipPath>
		<clipPath id="clipPath8231">
			
		</clipPath>
		<clipPath id="clipPath8299">
			
		</clipPath>
		<clipPath id="clipPath8367">
			
		</clipPath>
		<clipPath id="clipPath8379">
			
		</clipPath>
		<clipPath id="clipPath8387">
			
		</clipPath>
	</defs>
	<g id="g7469" transform="matrix(1.25,0,0,-1.25,-151.428,1142.9751)">
		<g id="g7513" transform="matrix(3.0162428,0,0,3.0162428,-753.1352,-2634.0148)">
			<g clip-path="url(#clipPath7517)" id="g7515">
				<g id="g7521" transform="translate(395.9742,1096.5187)">
					
				</g>
				<g id="g7525" transform="translate(395.9742,1096.5187)">
					
				</g>
				<g id="g7529" transform="translate(298.4473,1100.0105)">
					
				</g>
				<g id="g7533" transform="translate(302.6111,1102.9697)">
					
				</g>
				<g id="g7537" transform="translate(351.2556,1100.2006)">
					
				</g>
				<g id="g7541" transform="translate(394.9772,1098.1309)">
					
				</g>
				<g id="g7545" transform="translate(411.8388,1098.1309)">
					
				</g>
				<g id="g7549" transform="translate(467.3236,1099.176)">
					
				</g>
				<g id="g7553" transform="translate(463.2403,1099.2097)">
					
				</g>
				<g id="g7557" transform="translate(467.6387,1088.8108)">
					
				</g>
				<g id="g7561" transform="translate(389.8041,1175.4858)">
					
				</g>
				<g id="g7565" transform="translate(438.1401,1158.6912)">
					<path animation_id="33" d="m 0,0 c -4.145,-0.617 -8.778,-2.969 -8.778,-5.248 0,-3.92 3.261,-3.03 3.261,-7.52 l 0,-28.403 c 0,0 -0.761,-8.016 8.791,-8.016 9.551,0 8.763,7.891 8.763,7.891 l 0,28.327 c 0,0 -0.158,3.811 3.452,3.811 3.609,0 3.444,-3.756 3.444,-3.756 l 0,-28.142 c 0,0 -0.654,-9.991 11.303,-9.991 5.881,0 9.626,1.441 9.626,4.366 0,2.926 -3.562,2.098 -3.562,7.331 l 0,26.92 c 0,0 0.665,12.675 -12.989,12.675 -8.6,0 -12.027,-4.387 -12.027,-4.387 0,0 -1.875,5.543 -11.284,4.142" id="path7567" stroke="black" style="fill:#ee7f00;fill-opacity:1;fill-rule:nonzero;"/>
				</g>
				<g id="g7569" transform="translate(359.0664,1150.2856)">
					
				</g>
				<g id="g7573" transform="translate(500.7886,1150.2856)">
					
				</g>
				<g id="g7577" transform="translate(298.0826,1127.6561)">
					
				</g>
			</g>
		</g>
	</g>
</svg>