<?xml version="1.0" encoding="iso-8859-1"?><!-- Created with Inkscape (http://www.inkscape.org/) --><svg height="398.2677" id="svg7461" version="1.1" width="892.91339" xml:space="preserve" xmlns="http://www.w3.org/2000/svg" xmlns:cc="http://creativecommons.org/ns#" xmlns:dc="http://purl.org/dc/elements/1.1/" xmlns:rdf="http://www.w3.org/1999/02/22-rdf-syntax-ns#" xmlns:svg="http://www.w3.org/2000/svg">
	<metadata id="metadata7467">
		<rdf:RDF>
			<cc:Work rdf:about="">
				<dc:format>image/svg+xml</dc:format>
				<dc:type rdf:resource="http://purl.org/dc/dcmitype/StillImage"/>
				<dc:title/>
			</cc:Work>
		</rdf:RDF>
	</metadata>
	<defs id="defs7465">
		<clipPath id="clipPath7477">
			
		</clipPath>
		<clipPath id="clipPath7485">
			
		</clipPath>
		<clipPath id="clipPath7517">
			
		</clipPath>
		<clipPath id="clipPath7585">
			
		</clipPath>
		<clipPath id="clipPath7603">
			
		</clipPath>
		<clipPath id="clipPath7617">
			
		</clipPath>
		<clipPath id="clipPath7629">
			
		</clipPath>
		<clipPath id="clipPath7637">
			
		</clipPath>
		<clipPath id="clipPath7701">
			
		</clipPath>
		<clipPath id="clipPath7713">
			
		</clipPath>
		<clipPath id="clipPath7809">
			
		</clipPath>
		<clipPath id="clipPath7823">
			
		</clipPath>
		<clipPath id="clipPath7891">
			
		</clipPath>
		<clipPath id="clipPath7959">
			
		</clipPath>
		<clipPath id="clipPath8027">
			
		</clipPath>
		<clipPath id="clipPath8095">
			
		</clipPath>
		<clipPath id="clipPath8163">
			
		</clipPath>
		<clipPath id="clipPath8231">
			
		</clipPath>
		<clipPath id="clipPath8299">
			
		</clipPath>
		<clipPath id="clipPath8367">
			
		</clipPath>
		<clipPath id="clipPath8379">
			
		</clipPath>
		<clipPath id="clipPath8387">
			
		</clipPath>
	</defs>
	<g id="g7469" transform="matrix(1.25,0,0,-1.25,-151.428,1142.9751)">
		<g id="g7513" transform="matrix(3.0162428,0,0,3.0162428,-753.1352,-2634.0148)">
			<g clip-path="url(#clipPath7517)" id="g7515">
				<g id="g7521" transform="translate(395.9742,1096.5187)">
					
				</g>
				<g id="g7525" transform="translate(395.9742,1096.5187)">
					
				</g>
				<g id="g7529" transform="translate(298.4473,1100.0105)">
					
				</g>
				<g id="g7533" transform="translate(302.6111,1102.9697)">
					
				</g>
				<g id="g7537" transform="translate(351.2556,1100.2006)">
					
				</g>
				<g id="g7541" transform="translate(394.9772,1098.1309)">
					
				</g>
				<g id="g7545" transform="translate(411.8388,1098.1309)">
					
				</g>
				<g id="g7549" transform="translate(467.3236,1099.176)">
					
				</g>
				<g id="g7553" transform="translate(463.2403,1099.2097)">
					
				</g>
				<g id="g7557" transform="translate(467.6387,1088.8108)">
					
				</g>
				<g id="g7561" transform="translate(389.8041,1175.4858)">
					
				</g>
				<g id="g7565" transform="translate(438.1401,1158.6912)">
					
				</g>
				<g id="g7569" transform="translate(359.0664,1150.2856)">
					
				</g>
				<g id="g7573" transform="translate(500.7886,1150.2856)">
					
				</g>
				<g id="g7577" transform="translate(298.0826,1127.6561)">
					<path animation_id="36" d="m 0,0 c 4.578,0 6.592,-1.456 8.07,-5.104 1.471,-3.633 3.209,-5.298 7.727,-5.298 3.486,0 4.903,1.81 4.903,3.784 0,2.756 -2.172,3.773 -9.383,6.962 -9.197,4.397 -17.166,6.158 -17.166,16.852 0,8.636 8.481,14.127 20.519,14.127 9.172,0 14.707,-2.573 16.777,-4.642 1.582,-1.582 3.157,-4.085 3.152,-6.658 -0.004,-2.574 -0.428,-6.001 -5.689,-6.001 -5.55,0 -6.976,2.193 -7.577,4.669 -0.574,2.371 -1.776,3.589 -5.553,3.589 -5.267,0 -6.125,-5.026 -1.481,-6.784 1.108,-0.462 9.318,-3.391 13.626,-5.17 3.58,-1.479 8.998,-4.716 8.998,-13.377 0,-12.574 -12.291,-16.061 -20.787,-16.061 -8.799,0 -15.27,2.057 -18.832,4.923 -3.658,2.943 -3.973,6.162 -3.973,8.097 C -6.669,-4.157 -5.549,0 0,0" id="path7579" stroke="black" style="fill:#ee7f00;fill-opacity:1;fill-rule:nonzero;"/>
				</g>
			</g>
		</g>
	</g>
</svg>