<?xml version="1.0" encoding="iso-8859-1"?><!-- Created with Inkscape (http://www.inkscape.org/) --><svg height="398.2677" id="svg7461" version="1.1" width="892.91339" xml:space="preserve" xmlns="http://www.w3.org/2000/svg" xmlns:cc="http://creativecommons.org/ns#" xmlns:dc="http://purl.org/dc/elements/1.1/" xmlns:rdf="http://www.w3.org/1999/02/22-rdf-syntax-ns#" xmlns:svg="http://www.w3.org/2000/svg">
	<metadata id="metadata7467">
		<rdf:RDF>
			<cc:Work rdf:about="">
				<dc:format>image/svg+xml</dc:format>
				<dc:type rdf:resource="http://purl.org/dc/dcmitype/StillImage"/>
				<dc:title/>
			</cc:Work>
		</rdf:RDF>
	</metadata>
	<defs id="defs7465">
		<clipPath id="clipPath7477">
			
		</clipPath>
		<clipPath id="clipPath7485">
			
		</clipPath>
		<clipPath id="clipPath7517">
			
		</clipPath>
		<clipPath id="clipPath7585">
			
		</clipPath>
		<clipPath id="clipPath7603">
			
		</clipPath>
		<clipPath id="clipPath7617">
			
		</clipPath>
		<clipPath id="clipPath7629">
			
		</clipPath>
		<clipPath id="clipPath7637">
			
		</clipPath>
		<clipPath id="clipPath7701">
			
		</clipPath>
		<clipPath id="clipPath7713">
			
		</clipPath>
		<clipPath id="clipPath7809">
			
		</clipPath>
		<clipPath id="clipPath7823">
			
		</clipPath>
		<clipPath id="clipPath7891">
			
		</clipPath>
		<clipPath id="clipPath7959">
			
		</clipPath>
		<clipPath id="clipPath8027">
			
		</clipPath>
		<clipPath id="clipPath8095">
			
		</clipPath>
		<clipPath id="clipPath8163">
			
		</clipPath>
		<clipPath id="clipPath8231">
			
		</clipPath>
		<clipPath id="clipPath8299">
			
		</clipPath>
		<clipPath id="clipPath8367">
			
		</clipPath>
		<clipPath id="clipPath8379">
			
		</clipPath>
		<clipPath id="clipPath8387">
			
		</clipPath>
	</defs>
	<g id="g7469" transform="matrix(1.25,0,0,-1.25,-151.428,1142.9751)">
		<g id="g7513" transform="matrix(3.0162428,0,0,3.0162428,-753.1352,-2634.0148)">
			<g clip-path="url(#clipPath7517)" id="g7515">
				<g id="g7521" transform="translate(395.9742,1096.5187)">
					
				</g>
				<g id="g7525" transform="translate(395.9742,1096.5187)">
					
				</g>
				<g id="g7529" transform="translate(298.4473,1100.0105)">
					
				</g>
				<g id="g7533" transform="translate(302.6111,1102.9697)">
					
				</g>
				<g id="g7537" transform="translate(351.2556,1100.2006)">
					<path animation_id="26" d="m 0,0 c -1.309,-0.489 -2.988,-0.736 -4.99,-0.736 l -2.789,0 c -3.497,0 -4.412,-0.359 -4.818,-0.671 -0.803,-0.627 -1.339,-1.776 -1.643,-3.515 l 1,-0.436 c 0.718,0.946 1.637,1.454 2.796,1.55 -0.15,-1.07 -1.001,-7.108 -1.11,-7.882 -0.639,-0.039 -1.142,-0.246 -1.479,-0.635 -0.321,-0.371 -0.646,-1.083 -1.022,-2.241 l -0.457,-1.407 1.276,0.75 c 0.448,0.264 0.87,0.431 1.265,0.51 -0.172,-1.228 -1.499,-10.69 -1.499,-10.69 -0.194,-1.405 -0.217,-1.78 -0.217,-1.94 0,-0.724 0.438,-1.192 1.115,-1.192 0.711,0 1.482,0.293 2.293,0.87 l 0.323,0.23 -0.109,0.381 c -0.077,0.268 -0.116,0.52 -0.116,0.747 0,0.145 0.026,0.569 0.195,1.767 0,0 1.26,9.006 1.383,9.885 l 1.815,0 c 1.45,0 2.383,0.18 2.937,0.566 0.557,0.389 1.013,1.194 1.395,2.46 l 0.397,1.317 -1.206,-0.663 c -0.842,-0.464 -1.942,-0.699 -3.27,-0.699 l -1.659,0 c 0.145,1.038 0.985,7.085 1.096,7.887 l 2.77,0 0.928,-0.015 c 1.139,0 1.973,0.215 2.557,0.658 0.565,0.429 1.076,1.216 1.559,2.407 L 1.197,0.447 0,0 z" id="path7539" stroke="black" style="fill:#622a11;fill-opacity:1;fill-rule:nonzero;"/>
				</g>
				<g id="g7541" transform="translate(394.9772,1098.1309)">
					
				</g>
				<g id="g7545" transform="translate(411.8388,1098.1309)">
					
				</g>
				<g id="g7549" transform="translate(467.3236,1099.176)">
					
				</g>
				<g id="g7553" transform="translate(463.2403,1099.2097)">
					
				</g>
				<g id="g7557" transform="translate(467.6387,1088.8108)">
					
				</g>
				<g id="g7561" transform="translate(389.8041,1175.4858)">
					
				</g>
				<g id="g7565" transform="translate(438.1401,1158.6912)">
					
				</g>
				<g id="g7569" transform="translate(359.0664,1150.2856)">
					
				</g>
				<g id="g7573" transform="translate(500.7886,1150.2856)">
					
				</g>
				<g id="g7577" transform="translate(298.0826,1127.6561)">
					
				</g>
			</g>
		</g>
	</g>
</svg>