<?xml version="1.0" encoding="iso-8859-1"?><svg height="146.96465" id="svg3682" version="1.1" width="587.45001" xmlns="http://www.w3.org/2000/svg" xmlns:svg="http://www.w3.org/2000/svg">
	
  
	<defs id="defs3684"/>
	
  
	<g id="layer1" transform="translate(-56.275,-458.87986)">
		
    
		<path animation_id="0" d="m 426.93811,485.55008 c 0,-3.368 -0.24445,-5.97096 -4.45899,-5.97096 l -8.22535,0 0,-14.77125 20.60639,0 c 7.827,0 12.15922,4.06063 12.15922,11.39419 l 0,66.87121 -20.08127,0 0,-57.52319 z M 638.725,531.43009 c 0,5.39153 -2.91532,12.53043 -14.32761,12.53043 -5.37342,0 -10.75588,-0.88726 -14.88441,-7.1389 l -30.53387,-46.00225 c -0.89633,-1.33542 -1.55273,-1.88319 -2.12764,-1.88319 -0.44364,0 -1.3309,0.20824 -1.3309,2.2227 l 0,51.91438 -17.003,0 0,-66.9029 c 0,-8.5015 6.48251,-12.2905 14.76219,-12.2905 5.58617,0 10.96865,1.54819 14.43172,6.71337 l 30.73305,46.40967 c 0.57944,0.78315 1.02308,1.91035 2.0371,1.91035 1.23584,0 1.23584,-1.35354 1.23584,-1.91035 l 0,-52.23578 17.00753,0 0,66.66298 z m -94.35848,-27.49632 c 0,32.63888 -10.85095,40.02675 -41.61569,40.02675 -30.76927,0 -41.62475,-7.38788 -41.62475,-40.02675 0,-32.55739 10.85548,-40.05391 41.62475,-40.05391 30.76474,0 41.61569,7.49652 41.61569,40.05391 m -41.61569,24.3773 c 16.32849,0 21.03193,-5.93927 21.03193,-24.3773 0,-18.48781 -4.70344,-24.3954 -21.03193,-24.3954 -16.33302,0 -21.0274,5.90759 -21.0274,24.3954 0,18.43803 4.69438,24.3773 21.0274,24.3773 m -144.58931,-5.3707 c 0.33951,1.00044 0.89632,1.67043 1.5663,1.67043 0.66093,0 1.10456,-0.66999 1.56177,-1.67043 l 20.93687,-58.17052 21.47103,0 -27.86752,68.68648 c -2.23176,5.57713 -6.0434,10.50239 -16.10215,10.50239 -10.08137,0 -13.99261,-5.02032 -16.23342,-10.50239 l -27.75888,-68.68648 21.48461,0 20.94139,58.17052 z m -53.04428,8.48973 c 0,5.39152 -2.91983,12.53042 -14.33213,12.53042 -5.36889,0 -10.73325,-0.88726 -14.8844,-7.1389 l -30.54293,-46.00225 c -0.8918,-1.33542 -1.57989,-1.88319 -2.11859,-1.88319 -0.45268,0 -1.35806,0.20824 -1.35806,2.2227 l 0,51.91438 -16.99395,0 0,-66.9029 c 0,-8.5015 6.48704,-12.2905 14.75314,-12.2905 5.61334,0 10.96412,1.54819 14.45436,6.71337 l 30.75115,46.40967 c 0.57039,0.78315 1.0095,1.91035 2.04616,1.91035 1.20415,0 1.20415,-1.35354 1.20415,-1.91035 l 0,-52.23578 17.0211,0 0,66.66298 z m -95.2892,-51.449 -40.28478,0 c -3.92934,0 -5.24666,1.34448 -5.24666,5.2693 l 0,10.83285 44.51742,0 0,14.53131 -44.51743,0 0,11.98267 c 0,3.9067 1.31733,5.2693 5.24667,5.2693 l 40.72842,0 0,15.20582 -54.2774,0 c -7.26566,0 -11.84687,-3.58982 -11.84687,-11.96457 l 0,-54.25476 c 0,-8.39739 4.58121,-12.0868 11.84687,-12.0868 l 53.83376,0 0,15.21488 z m -147.652189,47.44135 43.412869,0 c 5.36889,0 5.59976,-3.48118 5.59976,-5.38248 0,-2.67539 -1.35354,-4.92525 -6.0434,-6.36932 L 74.48899,506.47653 C 64.294435,503.46162 61.275,495.51693 61.275,484.55733 c 0,-11.7337 5.13802,-19.78703 18.139245,-19.78703 l 48.338125,0 0,15.65398 -40.520186,0 c -2.901736,0 -5.47301,1.13625 -5.47301,5.14708 0,3.02396 1.561777,5.14254 6.260688,6.58662 l 27.528008,8.08049 c 11.63864,3.34538 16.23342,9.17149 16.23342,22.02785 0,12.42631 -4.59478,20.80558 -17.90836,20.80558 l -51.697079,0 0,-15.64945 z" id="path82" stroke="black" style="fill:#009d6c;fill-opacity:1;fill-rule:nonzero;"/>
		
    
		
		
  
	</g>
	

</svg>