<?xml version="1.0" encoding="iso-8859-1"?><svg height="68.082802" id="svg3644" version="1.1" width="544.44385" xmlns="http://www.w3.org/2000/svg" xmlns:svg="http://www.w3.org/2000/svg">
	
  
	<defs id="defs3646"/>
	
  
	<g id="layer1" transform="translate(-77.778065,-498.32078)">
		
    
		
		
    
		<path animation_id="1" d="m 610.42101,510.21258 c 0.83637,0 1.27607,-0.38235 1.27607,-1.10401 0,-0.75991 -0.42059,-1.10402 -1.37166,-1.10402 l -0.24853,0 0,2.20803 0.34412,0 z m 2.94881,4.35872 -1.32865,0 -1.96428,-2.87235 0,2.87235 -1.0849,0 0,-7.61342 1.29518,0 c 0.80293,0 1.25696,0.11475 1.67754,0.4158 0.5305,0.38234 0.83637,1.00843 0.83637,1.754 0,1.12314 -0.64519,1.90217 -1.74922,2.07422 l 2.31796,3.36939 z m -6.91085,-7.4079 c -0.83638,0.97497 -1.2952,2.23192 -1.2952,3.48888 0,3.08264 2.43745,5.5392 5.50576,5.5392 3.0444,0 5.48185,-2.45656 5.48185,-5.50097 0,-2.99184 -2.45656,-5.48663 -5.40539,-5.48663 -1.73488,0 -3.20213,0.6691 -4.28702,1.95952 m 10.76297,3.52711 c 0,3.65616 -2.91538,6.56676 -6.55241,6.56676 -3.65616,0 -6.57155,-2.92971 -6.57155,-6.60499 0,-3.61793 2.95362,-6.51418 6.66714,-6.51418 3.54145,0 6.45682,2.97272 6.45682,6.55241" id="path154" stroke="black" style="fill:#231f20;fill-opacity:1;fill-rule:nonzero;"/>
		
  
	</g>
	

</svg>