<?xml version="1.0" encoding="iso-8859-1"?><!-- Created with Inkscape (http://www.inkscape.org/) --><svg height="386.5748" id="svg3155" version="1.0" width="744.09448" xmlns="http://www.w3.org/2000/svg" xmlns:svg="http://www.w3.org/2000/svg">
	
  
	<defs id="defs3157"/>
	
  
	<g id="layer1" transform="translate(-4699.3528,644.37708)">
		
    
		<g id="g31580" transform="translate(17.716541,17.745664)">
			
      
			
			
      
			
			
      
			
			
      
			
			
      
			
			
      
			
			
      
			
			
      
			<path animation_id="7" d="M 4900.5694,-304.31702 L 4910.6007,-304.31702 L 4910.6007,-315.87071 C 4910.6007,-321.67252 4914.1566,-324.86036 4918.2866,-324.86036 C 4922.8343,-324.86036 4924.6621,-321.93452 4924.6621,-317.75474 L 4924.6621,-304.31702 L 4934.6939,-304.31702 L 4934.6939,-319.27069 C 4934.6939,-326.11431 4931.0941,-331.55428 4921.5245,-331.55428 C 4916.9264,-331.55428 4913.0086,-329.3583 4910.3946,-325.85231 L 4910.2888,-325.85231 C 4910.2888,-327.42436 4910.183,-328.99023 4910.0766,-330.5561 L 4900.3573,-330.5561 C 4900.513,-328.78438 4900.5694,-326.85045 4900.5694,-325.17227 L 4900.5694,-304.31702" id="path31416" stroke="black" style="fill:#000000;fill-rule:evenodd;"/>
			
      
			
			
      
			
			
      
			
			
      
			
			
      
			
			
      
			
			
      
			
			
      
			
			
      
			
			
      
			
			
      
			
			
      
			
			
    
		</g>
		
  
	</g>
	

</svg>