<?xml version="1.0" encoding="iso-8859-1"?><!-- Created with Inkscape (http://www.inkscape.org/) --><svg height="386.5748" id="svg3155" version="1.0" width="744.09448" xmlns="http://www.w3.org/2000/svg" xmlns:svg="http://www.w3.org/2000/svg">
	
  
	<defs id="defs3157"/>
	
  
	<g id="layer1" transform="translate(-4699.3528,644.37708)">
		
    
		<g id="g31580" transform="translate(17.716541,17.745664)">
			
      
			
			
      
			
			
      
			
			
      
			
			
      
			
			
      
			
			
      
			
			
      
			
			
      
			
			
      
			
			
      
			
			
      
			
			
      
			
			
      
			
			
      
			
			
      
			<path animation_id="15" d="M 5205.9495,-314.14887 C 5205.8248,-310.74889 5203.4543,-309.07701 5200.1475,-309.07701 C 5195.2194,-309.07701 5193.1605,-312.88873 5193.1605,-317.49273 C 5193.1605,-322.30259 5195.6562,-325.80239 5200.1475,-325.80239 C 5203.3919,-325.80239 5205.388,-324.49853 5205.9495,-321.25454 L 5216.3053,-321.25454 C 5215.3694,-329.3583 5207.3222,-331.55428 5200.1475,-331.55428 C 5191.0396,-331.55428 5182.4927,-327.84235 5182.4927,-317.33675 C 5182.4927,-306.88102 5191.7259,-303.32512 5199.4617,-303.32512 C 5207.1974,-303.32512 5215.6814,-305.62712 5216.6173,-314.14887 L 5205.9495,-314.14887" id="path31432" stroke="black" style="fill:#000000;fill-rule:evenodd;"/>
			
      
			
			
      
			
			
      
			
			
      
			
			
    
		</g>
		
  
	</g>
	

</svg>