<?xml version="1.0" encoding="iso-8859-1"?><!-- Created with Inkscape (http://www.inkscape.org/) --><svg height="386.5748" id="svg3155" version="1.0" width="744.09448" xmlns="http://www.w3.org/2000/svg" xmlns:svg="http://www.w3.org/2000/svg">
	
  
	<defs id="defs3157"/>
	
  
	<g id="layer1" transform="translate(-4699.3528,644.37708)">
		
    
		<g id="g31580" transform="translate(17.716541,17.745664)">
			
      
			
			
      
			
			
      
			
			
      
			
			
      
			
			
      
			
			
      
			
			
      
			
			
      
			
			
      
			<path animation_id="9" d="M 4996.9537,-320.41857 C 4997.4219,-323.13856 4998.7881,-326.11431 5003.4356,-326.11431 C 5006.9915,-326.11431 5009.8112,-324.70442 5009.9175,-320.41857 L 4996.9537,-320.41857 z M 5020.5792,-314.98483 C 5020.5293,-325.22843 5016.1374,-331.55428 5003.3298,-331.55428 C 4994.3397,-331.55428 4986.4482,-327.16236 4986.4482,-317.0186 C 4986.4482,-306.67518 4994.3961,-303.32512 5003.492,-303.32512 C 5010.7536,-303.32512 5017.9153,-304.01134 5020.0052,-312.31476 L 5009.3435,-312.31476 C 5008.8194,-310.54305 5008.0332,-308.76504 5003.6418,-308.76504 C 4999.412,-308.76504 4997.0037,-310.90488 4996.798,-314.98483 L 5020.5792,-314.98483" id="path31420" stroke="black" style="fill:#000000;fill-rule:evenodd;"/>
			
      
			
			
      
			
			
      
			
			
      
			
			
      
			
			
      
			
			
      
			
			
      
			
			
      
			
			
      
			
			
    
		</g>
		
  
	</g>
	

</svg>