<?xml version="1.0" encoding="iso-8859-1"?><!-- Created with Inkscape (http://www.inkscape.org/) --><svg height="386.5748" id="svg3155" version="1.0" width="744.09448" xmlns="http://www.w3.org/2000/svg" xmlns:svg="http://www.w3.org/2000/svg">
	
  
	<defs id="defs3157"/>
	
  
	<g id="layer1" transform="translate(-4699.3528,644.37708)">
		
    
		<g id="g31580" transform="translate(17.716541,17.745664)">
			
      
			
			
      
			
			
      
			
			
      
			
			
      
			
			
      
			
			
      
			
			
      
			
			
      
			<path animation_id="8" d="M 4953.4154,-318.1228 C 4953.4154,-322.19652 4956.0229,-325.17227 4960.8891,-325.17227 C 4965.3309,-325.17227 4968.8309,-322.56459 4968.8309,-318.1228 C 4968.8309,-313.98669 4966.0108,-311.06705 4960.9889,-311.06705 C 4956.235,-311.06705 4953.4154,-314.09271 4953.4154,-318.1228 z M 4968.8309,-307.97899 C 4968.8309,-300.97944 4966.0607,-299.0455 4960.4713,-299.0455 C 4959.0552,-299.0455 4957.7514,-299.14533 4956.6533,-299.66933 C 4955.6051,-300.13723 4954.8754,-301.02935 4954.5634,-302.59522 L 4943.9017,-302.59522 C 4944.3199,-298.15338 4945.6796,-293.29361 4959.9971,-293.29361 C 4971.0766,-293.29361 4978.8622,-295.95744 4978.8622,-308.2972 L 4978.8622,-326.37631 C 4978.8622,-327.89226 4978.9681,-329.51428 4979.0744,-330.5561 L 4969.3545,-330.5561 C 4969.1988,-329.40821 4969.1429,-327.99833 4969.1429,-326.37631 L 4969.0431,-326.37631 C 4966.4291,-329.72013 4962.4549,-331.55428 4957.2273,-331.55428 C 4948.6555,-331.55428 4942.7476,-326.42622 4942.7476,-318.1228 C 4942.7476,-310.59296 4948.6056,-304.69133 4957.0212,-304.69133 C 4961.4631,-304.69133 4966.3727,-306.25095 4968.7246,-310.01899 L 4968.8309,-310.01899 L 4968.8309,-307.97899" id="path31418" stroke="black" style="fill:#000000;fill-rule:evenodd;"/>
			
      
			
			
      
			
			
      
			
			
      
			
			
      
			
			
      
			
			
      
			
			
      
			
			
      
			
			
      
			
			
      
			
			
    
		</g>
		
  
	</g>
	

</svg>