<?xml version="1.0" encoding="iso-8859-1"?><!-- Created with Inkscape (http://www.inkscape.org/) --><svg height="386.5748" id="svg3155" version="1.0" width="744.09448" xmlns="http://www.w3.org/2000/svg" xmlns:svg="http://www.w3.org/2000/svg">
	
  
	<defs id="defs3157"/>
	
  
	<g id="layer1" transform="translate(-4699.3528,644.37708)">
		
    
		<g id="g31580" transform="translate(17.716541,17.745664)">
			
      
			
			
      
			
			
      
			
			
      
			
			
      
			
			
      
			
			
      
			
			
      
			
			
      
			
			
      
			
			
      
			
			
      
			
			
      
			
			
      
			
			
      
			
			
      
			
			
      
			
			
      
			<path animation_id="17" d="M 5289.3581,-315.77089 C 5289.3581,-313.0509 5287.8606,-309.07701 5281.3104,-309.07701 C 5278.5032,-309.07701 5277.0058,-310.17498 5277.0058,-311.79695 C 5277.0058,-313.98669 5278.3784,-315.77089 5285.1782,-315.77089 L 5289.3581,-315.77089 z M 5278.5032,-322.8204 C 5278.5656,-324.65451 5279.751,-326.11431 5283.4317,-326.11431 C 5287.4244,-326.11431 5289.3581,-325.07249 5289.3581,-320.88647 L 5281.9967,-320.88647 C 5272.2025,-320.88647 5266.338,-318.06665 5266.338,-311.84686 C 5266.338,-306.35702 5270.7051,-303.32512 5278.1912,-303.32512 C 5282.6206,-303.32512 5287.1124,-304.58526 5289.5453,-308.55296 L 5289.67,-308.55296 C 5289.67,-307.14307 5289.7324,-305.20914 5289.8572,-304.31702 L 5299.589,-304.31702 C 5299.4019,-306.25095 5299.3395,-308.24104 5299.3395,-310.17498 L 5299.3395,-320.21267 C 5299.3395,-329.0963 5293.5379,-331.55428 5283.2446,-331.55428 C 5276.3818,-331.55428 5268.7085,-329.67026 5268.1474,-322.8204 L 5278.5032,-322.8204" id="path31436" stroke="black" style="fill:#000000;fill-rule:evenodd;"/>
			
      
			
			
      
			
			
    
		</g>
		
  
	</g>
	

</svg>