<?xml version="1.0" encoding="iso-8859-1"?><!-- Created with Inkscape (http://www.inkscape.org/) --><svg height="386.5748" id="svg3155" version="1.0" width="744.09448" xmlns="http://www.w3.org/2000/svg" xmlns:svg="http://www.w3.org/2000/svg">
	
  
	<defs id="defs3157"/>
	
  
	<g id="layer1" transform="translate(-4699.3528,644.37708)">
		
    
		<g id="g31580" transform="translate(17.716541,17.745664)">
			
      
			
			
      
			
			
      
			
			
      
			
			
      
			
			
      
			
			
      
			
			
      
			
			
      
			
			
      
			
			
      
			
			
      
			<path animation_id="11" d="M 5075.7771,-320.41857 C 5076.2448,-323.13856 5077.605,-326.11431 5082.259,-326.11431 C 5085.8149,-326.11431 5088.6346,-324.70442 5088.7409,-320.41857 L 5075.7771,-320.41857 z M 5099.4022,-314.98483 C 5099.3522,-325.22843 5094.9608,-331.55428 5082.1527,-331.55428 C 5073.1631,-331.55428 5065.2716,-327.16236 5065.2716,-317.0186 C 5065.2716,-306.67518 5073.2195,-303.32512 5082.3089,-303.32512 C 5089.5765,-303.32512 5096.7387,-304.01134 5098.8286,-312.31476 L 5088.1669,-312.31476 C 5087.6428,-310.54305 5086.8567,-308.76504 5082.4712,-308.76504 C 5078.2349,-308.76504 5075.8335,-310.90488 5075.6214,-314.98483 L 5099.4022,-314.98483" id="path31424" stroke="black" style="fill:#000000;fill-rule:evenodd;"/>
			
      
			
			
      
			
			
      
			
			
      
			
			
      
			
			
      
			
			
      
			
			
      
			
			
    
		</g>
		
  
	</g>
	

</svg>