<?xml version="1.0" encoding="iso-8859-1"?><!-- Created with Inkscape (http://www.inkscape.org/) --><svg height="386.5748" id="svg3155" version="1.0" width="744.09448" xmlns="http://www.w3.org/2000/svg" xmlns:svg="http://www.w3.org/2000/svg">
	
  
	<defs id="defs3157"/>
	
  
	<g id="layer1" transform="translate(-4699.3528,644.37708)">
		
    
		<g id="g31580" transform="translate(17.716541,17.745664)">
			
      
			
			
      
			<path animation_id="1" d="M 5234.3968,-527.81716 L 5203.2047,-483.99801 L 5275.2592,-378.56127 L 5275.2592,-527.81716 L 5234.3968,-527.81716 z M 5018.7324,-518.92729 L 5018.7264,-383.90142 L 5086.7568,-484.93376 L 5054.847,-526.73162 C 5081.5043,-534.08681 5105.7093,-545.46581 5126.8082,-561.98535 L 5147.3575,-535.95211 L 5186.3606,-594.88092 L 5408.0142,-594.88092 L 5408.0142,-527.99805 L 5358.1686,-527.99805 L 5358.1686,-364.69314 L 5186.3606,-364.69314 L 5142.392,-430.37816 L 5096.6888,-364.69314 L 4935.0803,-364.69314 L 4935.0803,-409.60401 C 4923.4647,-377.84385 4886.7945,-358.50454 4814.0852,-358.50454 C 4706.234,-358.50454 4701.006,-396.62795 4699.3528,-440.29112 L 4784.6456,-440.29112 C 4784.9201,-427.25891 4787.1224,-417.8076 4792.3499,-411.61906 C 4797.8525,-405.42423 4805.2827,-402.16771 4816.2874,-402.16771 C 4833.6177,-402.16771 4852.3271,-407.05244 4852.3271,-425.95509 C 4852.3271,-430.19103 4850.9545,-433.77189 4848.7522,-436.70402 C 4837.4731,-451.68883 4742.5483,-462.7684 4715.86,-490.46732 C 4705.1299,-501.54688 4701.8296,-518.15996 4701.8296,-531.52281 C 4701.8296,-583.00282 4741.7247,-606.13513 4821.2404,-606.13513 C 4905.7036,-606.13513 4925.6979,-576.57095 4926.802,-528.023 L 4844.6662,-528.023 C 4844.1172,-541.05522 4840.2119,-551.23642 4834.4847,-555.95897 C 4828.9512,-560.52555 4824.1539,-562.64037 4815.7318,-562.4782 C 4798.127,-562.12885 4788.7755,-554.65511 4788.7755,-542.59613 C 4788.7755,-539.01522 4789.8737,-534.45488 4792.3499,-531.8472 C 4805.2827,-517.18673 4897.1752,-506.756 4923.5895,-478.73892 C 4927.7813,-474.30338 4932.055,-468.51405 4935.0803,-460.47887 L 4935.0803,-514.6664 C 4962.3675,-513.65578 4990.7653,-514.55409 5018.7324,-518.92729" id="path31404" stroke="black" style="fill:#000000;fill-rule:evenodd;"/>
			
      
			
			
      
			
			
      
			
			
      
			
			
      
			
			
      
			
			
      
			
			
      
			
			
      
			
			
      
			
			
      
			
			
      
			
			
      
			
			
      
			
			
      
			
			
      
			
			
      
			
			
      
			
			
    
		</g>
		
  
	</g>
	

</svg>