<?xml version="1.0" encoding="iso-8859-1"?><!-- Created with Inkscape (http://www.inkscape.org/) --><svg height="386.5748" id="svg3155" version="1.0" width="744.09448" xmlns="http://www.w3.org/2000/svg" xmlns:svg="http://www.w3.org/2000/svg">
	
  
	<defs id="defs3157"/>
	
  
	<g id="layer1" transform="translate(-4699.3528,644.37708)">
		
    
		<g id="g31580" transform="translate(17.716541,17.745664)">
			
      
			
			
      
			
			
      
			
			
      
			
			
      
			
			
      
			
			
      
			
			
      
			
			
      
			
			
      
			
			
      
			
			
      
			
			
      
			
			
      
			
			
      
			<path animation_id="14" d="M 5145.4363,-312.5269 C 5145.7981,-308.65903 5146.8458,-303.32512 5159.9654,-303.32512 C 5165.7674,-303.32512 5175.905,-304.16103 5175.905,-312.15878 C 5175.905,-316.50078 5173.7587,-319.05855 5168.0131,-320.00059 L 5161.2197,-321.09855 C 5159.0734,-321.46038 5156.6216,-321.93452 5156.6216,-323.81854 C 5156.6216,-325.43432 5158.7614,-326.11431 5160.3836,-326.11431 C 5161.6375,-326.11431 5163.2033,-325.90841 5163.9331,-325.43432 C 5164.5635,-325.01634 5165.0876,-324.18037 5165.2433,-322.77049 L 5175.2746,-322.77049 C 5175.069,-328.25409 5171.9872,-331.55428 5160.5893,-331.55428 C 5154.8436,-331.55428 5146.2723,-330.24418 5146.2723,-322.77049 C 5146.2723,-318.69672 5149.1978,-316.2887 5154.2137,-315.50265 L 5161.1633,-314.41092 C 5163.2033,-314.09271 5165.5553,-313.46888 5165.5553,-311.64101 C 5165.5553,-309.07701 5162.4171,-308.76504 5160.3272,-308.76504 C 5159.0235,-308.76504 5157.826,-308.92103 5157.0399,-309.5511 C 5156.2537,-310.17498 5155.786,-311.11696 5155.786,-312.5269 L 5145.4363,-312.5269" id="path31430" stroke="black" style="fill:#000000;fill-rule:evenodd;"/>
			
      
			
			
      
			
			
      
			
			
      
			
			
      
			
			
    
		</g>
		
  
	</g>
	

</svg>