<?xml version="1.0" encoding="iso-8859-1"?><!-- Created with Inkscape (http://www.inkscape.org/) --><svg height="386.5748" id="svg3155" version="1.0" width="744.09448" xmlns="http://www.w3.org/2000/svg" xmlns:svg="http://www.w3.org/2000/svg">
	
  
	<defs id="defs3157"/>
	
  
	<g id="layer1" transform="translate(-4699.3528,644.37708)">
		
    
		<g id="g31580" transform="translate(17.716541,17.745664)">
			
      
			
			
      
			
			
      
			
			
      
			
			
      
			
			
      
			
			
      
			
			
      
			
			
      
			
			
      
			
			
      
			<path animation_id="10" d="M 5027.6911,-312.5269 C 5028.0529,-308.65903 5029.1006,-303.32512 5042.2142,-303.32512 C 5048.0157,-303.32512 5058.1598,-304.16103 5058.1598,-312.15878 C 5058.1598,-316.50078 5056.0135,-319.05855 5050.2679,-320.00059 L 5043.4745,-321.09855 C 5041.3282,-321.46038 5038.8704,-321.93452 5038.8704,-323.81854 C 5038.8704,-325.43432 5041.0162,-326.11431 5042.6384,-326.11431 C 5043.8923,-326.11431 5045.4581,-325.90841 5046.1879,-325.43432 C 5046.8183,-325.01634 5047.3424,-324.18037 5047.4981,-322.77049 L 5057.5294,-322.77049 C 5057.3238,-328.25409 5054.2356,-331.55428 5042.8441,-331.55428 C 5037.0924,-331.55428 5028.5206,-330.24418 5028.5206,-322.77049 C 5028.5206,-318.69672 5031.4526,-316.2887 5036.4685,-315.50265 L 5043.4181,-314.41092 C 5045.4581,-314.09271 5047.8101,-313.46888 5047.8101,-311.64101 C 5047.8101,-309.07701 5044.6784,-308.76504 5042.582,-308.76504 C 5041.2723,-308.76504 5040.0743,-308.92103 5039.2882,-309.5511 C 5038.5085,-310.17498 5038.0343,-311.11696 5038.0343,-312.5269 L 5027.6911,-312.5269" id="path31422" stroke="black" style="fill:#000000;fill-rule:evenodd;"/>
			
      
			
			
      
			
			
      
			
			
      
			
			
      
			
			
      
			
			
      
			
			
      
			
			
      
			
			
    
		</g>
		
  
	</g>
	

</svg>