<?xml version="1.0" encoding="iso-8859-1"?><!-- Created with Inkscape (http://www.inkscape.org/) --><svg height="18.069136" id="svg4248" inkscape:version="0.47 r22583" sodipodi:docname="New document 13" version="1.1" width="91.676041" xmlns="http://www.w3.org/2000/svg" xmlns:cc="http://creativecommons.org/ns#" xmlns:dc="http://purl.org/dc/elements/1.1/" xmlns:inkscape="http://www.inkscape.org/namespaces/inkscape" xmlns:rdf="http://www.w3.org/1999/02/22-rdf-syntax-ns#" xmlns:sodipodi="http://sodipodi.sourceforge.net/DTD/sodipodi-0.dtd" xmlns:svg="http://www.w3.org/2000/svg">
	
  
	<defs id="defs4250">
		
    
		<inkscape:perspective id="perspective4256" inkscape:persp3d-origin="372.04724 : 350.78739 : 1" inkscape:vp_x="0 : 526.18109 : 1" inkscape:vp_y="0 : 1000 : 0" inkscape:vp_z="744.09448 : 526.18109 : 1" sodipodi:type="inkscape:persp3d"/>
		
    
		<inkscape:perspective id="perspective4206" inkscape:persp3d-origin="0.5 : 0.33333333 : 1" inkscape:vp_x="0 : 0.5 : 1" inkscape:vp_y="0 : 1000 : 0" inkscape:vp_z="1 : 0.5 : 1" sodipodi:type="inkscape:persp3d"/>
		
    
		<clipPath clipPathUnits="userSpaceOnUse" id="clipPath452">
			
      
			
			
    
		</clipPath>
		
    
		<clipPath clipPathUnits="userSpaceOnUse" id="clipPath512">
			
      
			
			
    
		</clipPath>
		
  
	</defs>
	
  
	<sodipodi:namedview bordercolor="#666666" borderopacity="1.0" id="base" inkscape:current-layer="layer1" inkscape:cx="46.054422" inkscape:cy="8.9115646" inkscape:document-units="px" inkscape:pageopacity="0.0" inkscape:pageshadow="2" inkscape:window-height="678" inkscape:window-maximized="1" inkscape:window-width="1024" inkscape:window-x="-4" inkscape:window-y="-4" inkscape:zoom="9.9144526" pagecolor="#ffffff" showgrid="false"/>
	
  
	<metadata id="metadata4253">
		
    
		<rdf:RDF>
			
      
			<cc:Work rdf:about="">
				
        
				<dc:format>image/svg+xml</dc:format>
				
        
				<dc:type rdf:resource="http://purl.org/dc/dcmitype/StillImage"/>
				
        
				<dc:title/>
				
      
			</cc:Work>
			
    
		</rdf:RDF>
		
  
	</metadata>
	
  
	<g id="layer1" inkscape:groupmode="layer" inkscape:label="Layer 1" transform="translate(-234.16198,-491.89905)">
		
    
		<g id="g448" transform="matrix(1.25,0,0,-1.25,-155.19864,1175.6728)">
			
      
			<g clip-path="url(#clipPath452)" id="g450">
				
        
				<g id="g456" transform="matrix(0.1564026,0,0,-0.1566162,312.44485,432.89929)">
					
          
					
					
          
					
					
          
					
					
          
					
					
          
					
					
          
					
					
          
					
					
          
					
					
          
					
					
          
					
					
          
					
					
          
					
					
          
					
					
          
					
					
          
					
					
          
					
					
          
					
					
          
					
					
          
					
					
          
					
					
          
					
					
          
					
					
          
					
					
          
					
					
          
					
					
          
					<g id="g508">
						
            
						<g clip-path="url(#clipPath512)" id="g510">
							
              
							<path animation_id="27" d="m 437.235,-693.023 c 6.325,0 9.999,4.97 9.999,10.878 0,6.095 -3.674,10.785 -9.999,10.785 -6.324,0 -9.999,-4.69 -9.999,-10.785 0,-5.908 3.675,-10.878 9.999,-10.878 z m 25.254,-11.697 -15.648,0 0,4.778 -0.172,0 c -3.096,-4.513 -7.824,-6.282 -12.984,-6.282 -13.499,0 -22.613,11.325 -22.613,24.596 0,13.095 8.857,23.182 21.753,23.182 5.848,0 9.975,-2.035 14.016,-6.193 l 0,2.123 c 0,7.343 -1.634,13.005 -10.061,13.005 -1.461,0 -3.095,-0.353 -4.47,-1.061 -1.376,-0.708 -2.494,-1.857 -2.924,-3.45 l -17.54,0 c 1.376,11.944 14.961,17.342 25.107,17.342 16.25,0 25.536,-7.787 25.536,-27.075 l 0,-40.965 z" id="path516" stroke="black" style="fill:none;stroke:#ed192d;stroke-width:0.61199999;stroke-linecap:butt;stroke-linejoin:miter;stroke-miterlimit:3.86400008;stroke-opacity:1;stroke-dasharray:none"/>
							
            
						</g>
						
          
					</g>
					
          
					
					
          
					
					
          
					
					
        
				</g>
				
      
			</g>
			
    
		</g>
		
  
	</g>
	

</svg>