<?xml version="1.0" encoding="iso-8859-1"?><svg height="196.08208" id="svg4681" version="1.1" viewBox="0 0 621.62891 196.08208" width="621.62891" xmlns="http://www.w3.org/2000/svg" xmlns:svg="http://www.w3.org/2000/svg">
	
  
	<defs id="defs4683"/>
	
  
	<g id="layer1" transform="translate(-29.185545,-260.03545)">
		
    
		
		
    
		<path animation_id="1" d="m 65.806635,265.03545 c -18.32209,0 -31.62109,10.54109 -31.62109,29.50781 0,11.03043 4.38001,17.03049 7.45899,20.43555 3.40885,3.89041 8.1066,6.96785 9.24414,7.7793 4.70187,3.08276 9.56665,6.00017 14.10546,9.24219 9.89288,6.97317 11.67579,12.00038 11.67579,18.16211 0,5.02796 -1.78326,19.29687 -18.16016,19.29687 -11.34894,0 -18.97006,-5.02846 -22.37891,-7.13672 l -0.80664,14.75781 c 10.70054,4.70187 20.75224,5.35157 24.96875,5.35157 10.05214,0 17.99945,-3.08058 24.32422,-11.1875 5.02416,-6.16551 6.97266,-13.29647 6.97266,-21.24414 0,-7.62158 -1.78504,-17.34927 -14.91992,-27.56446 -4.21652,-3.40506 -8.5931,-6.16038 -12.97266,-9.08008 -7.29547,-4.86491 -14.26758,-9.40872 -14.26758,-19.13476 0,-11.02663 7.45873,-16.86524 18,-16.86524 8.75534,0 15.56553,3.89367 17.9961,5.35352 l 0.81054,-13.94531 c -3.07896,-0.97071 -11.02595,-3.72852 -20.42969,-3.72852 z m 68.773445,1.44531 c -1.21362,-0.004 -2.14576,0.0116 -2.67187,0.006 l -22.86133,0 -0.31836,0 0,114.48633 14.58594,0 0,-47.67383 9.08203,0 c 6.15792,-0.15926 12.48386,-0.32351 18.48633,-2.43554 11.8343,-4.21273 16.04991,-14.40898 17.50976,-18.44727 1.78595,-5.33131 1.78516,-10.17667 1.78516,-12.27734 0,-14.21557 -5.84264,-27.32447 -20.4336,-31.86328 -5.34931,-1.57835 -11.52319,-1.7816 -15.16406,-1.79493 z m 154.27539,0.006 0,12.97852 33.24219,0 c 7.62158,0 10.21513,-0.1593 14.43164,-0.64844 l -49.29297,88.69922 0,13.45703 65.83008,0 0,-12.94922 -49.75977,0 48.625,-88.55859 0,-12.97852 -63.07617,0 z m 157.69727,0.006 0,114.48047 54.5039,0 0,-12.94922 -39.89062,0 0,-39.62109 36.1582,0 0,-12.94141 -36.1582,0 0,-35.99609 38.10352,0 0,-12.97266 -52.37111,0 -0.3457,0 z m -263.44922,0.002 0,114.47656 14.5918,0 0,-114.47656 -14.5918,0 z m 179.72656,0 0,114.47656 14.61133,0 0,-55.61524 40.85938,55.61524 18.49023,0 -46.54102,-60.31641 42.96875,-54.16015 -17.34765,0 -38.42969,49.77929 0,-49.77929 -14.26953,0 -0.3418,0 z m 172.83008,0 0,114.47656 110.1543,0 0,-114.47656 -110.1543,0 z m -325.03516,0.002 0,12.97461 26.5918,0 0,101.5 14.5918,0 0,-101.5 26.43164,0 0,-12.97461 -67.61524,0 z m -87.31054,12.32031 4.37695,0 c 6.8139,0 13.78268,-0.32529 19.78515,3.7168 3.72737,2.42297 7.78125,7.42825 7.78125,17.2832 0,5.81666 -1.29695,9.20593 -2.59375,11.62891 -5.18723,9.85496 -16.05525,9.69336 -25.45898,9.69336 l -3.89062,0 0,-42.32227 z" id="path130" stroke="black" style="fill:#004a9d;fill-opacity:1;fill-rule:nonzero;"/>
		
    
		
		
  
	</g>
	

</svg>