<?xml version="1.0" encoding="iso-8859-1"?><svg height="196.08208" id="svg4681" version="1.1" viewBox="0 0 621.62891 196.08208" width="621.62891" xmlns="http://www.w3.org/2000/svg" xmlns:svg="http://www.w3.org/2000/svg">
	
  
	<defs id="defs4683"/>
	
  
	<g id="layer1" transform="translate(-29.185545,-260.03545)">
		
    
		<path animation_id="0" d="m 184.50196,415.1917 c -8.32306,0 -13.2168,6.15406 -13.2168,18.31445 0,10.89768 4.99387,17.60938 12.81641,17.60938 8.32685,0 13.21679,-6.1541 13.21679,-18.31445 0,-10.90151 -4.99387,-17.60938 -12.8164,-17.60938 z m 276.63866,0 c -9.1838,0 -15.59375,6.91202 -15.59375,17.91211 0,9.53262 4.69199,18.01172 15.84375,18.01172 2.06655,0 4.28857,-0.4026 6.40821,-1.0586 l 0,-4.4394 c -1.81629,1.0579 -4.03924,1.664 -6.31054,1.664 -7.66708,0 -11.29884,-6.0064 -11.29884,-15.08788 0,-8.57711 5.2478,-13.16796 11,-13.16796 2.47227,0 4.69072,0.55224 6.60938,1.76562 l 0,-4.33789 c -1.61532,-0.80766 -4.13664,-1.26172 -6.65821,-1.26172 z m 134.20118,0 c -5.34647,0 -9.78711,3.02479 -9.78711,8.83008 0,4.53882 1.41065,6.70759 7.76953,10.54492 4.74358,2.87423 5.44922,4.43773 5.44922,7.16403 0,2.878 -2.27261,5.5508 -6.25781,5.5508 -2.07034,0 -4.69369,-1.0581 -6.71094,-2.2715 l 0,4.5918 c 1.86938,0.9101 4.54229,1.5137 7.36719,1.5137 6.76084,0 10.24609,-4.3915 10.24609,-9.9883 0,-4.0383 -1.82067,-7.11782 -7.26953,-10.24608 -5.04692,-2.92729 -5.95312,-4.33807 -5.95312,-6.60937 0,-2.97658 2.16894,-5.24609 5.50195,-5.24609 2.16891,0 4.33734,0.6066 6.00194,1.61523 l 0,-4.28906 c -1.56602,-0.65599 -4.03682,-1.16016 -6.35742,-1.16016 z m 42.40039,0 c -5.35027,0 -9.79101,3.02479 -9.79101,8.83008 0,4.53882 1.41063,6.70759 7.76953,10.54492 4.74357,2.87423 5.44922,4.43773 5.44922,7.16403 0,2.878 -2.27066,5.5508 -6.25586,5.5508 -2.07034,0 -4.69174,-1.0581 -6.70899,-2.2715 l 0,4.5918 c 1.86559,0.9101 4.53838,1.5137 7.36328,1.5137 6.76084,0 10.2461,-4.3915 10.2461,-9.9883 0,-4.0383 -1.82067,-7.11782 -7.26953,-10.24608 -5.04693,-2.92729 -5.95313,-4.33807 -5.95313,-6.60937 0,-2.97658 2.16894,-5.24609 5.50195,-5.24609 2.16893,0 4.33929,0.6066 6.00391,1.61523 l 0,-4.28906 c -1.56224,-0.65599 -4.03487,-1.16016 -6.35547,-1.16016 z m -560.472655,0.34961 0,22.25392 c 0,3.4809 0.20056,5.4008 1.41015,7.873 1.46365,2.9235 4.54246,5.4493 9.63867,5.4493 5.09623,0 8.17492,-2.5258 9.63477,-5.4493 1.21339,-2.4722 1.41406,-4.3921 1.41406,-7.873 l 0,-22.25392 -4.43945,0 0,22.91012 c 0,5.4982 -2.4232,9.0332 -6.60938,9.0332 -4.18996,0 -6.60937,-3.535 -6.60937,-9.0332 l 0,-22.91012 -4.43945,0 z m 145.564455,0 0,35.22262 4.43944,0 0,-14.7343 2.97657,0 c 7.4661,0 11.45508,-3.63293 11.45508,-10.49613 0,-3.07517 -1.0084,-5.54793 -2.77539,-7.26563 -1.86937,-1.76699 -4.0871,-2.72656 -7.62109,-2.72656 l -8.47461,0 z m -188.134775,0.002 0,35.22072 17.05469,0 0,-3.836 -12.61523,0 0,-12.51362 11.40625,0 0,-3.83789 -11.40625,0 0,-11.19727 11.95898,0 0,-3.83594 -16.39844,0 z m 90.183605,0 0,35.21872 4.43945,0 0,-15.94333 2.01757,0 c 3.33301,0 4.59098,1.10973 5.59961,4.03703 l 4.03907,11.9063 4.79296,0 -4.94531,-14.127 c -0.70528,-2.01717 -1.7162,-3.02583 -3.83204,-3.43156 l 0,-0.0996 c 5.19482,-1.11101 6.96094,-4.69462 6.96094,-8.42578 0,-2.57465 -0.80871,-4.99703 -2.625,-6.71094 -1.61531,-1.51294 -3.68106,-2.42383 -7.41601,-2.42383 l -9.03125,0 z m 142.33593,0 0,35.21872 17.05664,0 0,-3.834 -12.61719,0 0,-12.51362 11.40235,0 0,-3.83594 -11.40235,0 0,-11.20117 11.95703,0 0,-3.83399 -16.39648,0 z m 96.23633,0 0,35.21872 4.23827,0 0,-28.85934 0.0996,0 13.27149,28.85934 5.49804,0 0,-35.21872 -4.23632,0 0,29.06452 -0.10156,0 -13.26757,-29.06452 -5.50196,0 z m 128.8789,0 0,35.21872 15.99414,0 0,-3.834 -11.55469,0 0,-31.38472 -4.43945,0 z m -170.74023,0.002 -11.80859,35.21872 4.44141,0 2.82422,-9.1836 13.42382,0 2.82422,9.1836 4.64453,0 -11.50781,-35.21872 -4.8418,0 z m 223.07618,0 -11.8086,35.21872 4.44531,0 2.82422,-9.1836 13.41993,0 2.82812,9.1836 4.64063,0 -11.50392,-35.21872 -4.8457,0 z m -360.16798,3.27929 c 5.95697,0 8.17579,6.8631 8.17579,13.97657 0,10.84846 -3.93497,14.68166 -8.57617,14.68166 -5.95317,0 -8.17578,-6.8631 -8.17578,-13.97659 0,-10.84841 3.93496,-14.68164 8.57616,-14.68164 z m -55.17968,0.35157 3.5293,0 c 3.88662,0 6.46288,1.87061 6.46288,5.80273 0,3.07896 -1.81696,6.20703 -6.56054,6.20703 l -3.43164,0 0,-12.00976 z m 97.95116,0.002 2.52149,0 c 4.54261,0 7.26563,1.91576 7.26563,6.76172 0,3.93591 -1.96751,6.45703 -7.36328,6.45703 l -2.42384,0 0,-13.21875 z m 96.53907,1.00781 0.10156,0 5.40039,17.56055 -11.05077,0 5.54882,-17.56055 z m 223.08008,0 0.0977,0 5.40039,17.56055 -11.05078,0 5.55273,-17.56055 z" id="path72" stroke="black" style="fill:#e20916;fill-opacity:1;fill-rule:nonzero;"/>
		
    
		
		
    
		
		
  
	</g>
	

</svg>