<?xml version="1.0" encoding="iso-8859-1"?><svg height="196.08208" id="svg4681" version="1.1" viewBox="0 0 621.62891 196.08208" width="621.62891" xmlns="http://www.w3.org/2000/svg" xmlns:svg="http://www.w3.org/2000/svg">
	
  
	<defs id="defs4683"/>
	
  
	<g id="layer1" transform="translate(-29.185545,-260.03545)">
		
    
		
		
    
		
		
    
		<path animation_id="2" d="m 591.01172,275.25615 c -3.37472,0.0455 -2.77271,5.10822 -3.97851,5.19922 -0.3716,0.0265 -0.50781,-0.7292 -0.50781,-1.6582 0,-1.17546 0.20478,-2.02032 0.64843,-3.08203 l -2.86523,-0.41406 c -0.34126,1.47122 -0.50977,2.6239 -0.50977,4.14062 0,2.27889 1.10807,4.83203 3.33008,4.83203 3.74253,0 3.321,-5.31239 4.25,-5.24414 0.6484,0.0455 0.50838,1.14756 0.46289,1.70117 -0.0645,0.77733 -0.33739,1.82745 -0.64453,2.71094 l 2.81444,0.33789 c 0.21993,-1.07309 0.35158,-2.29316 0.35158,-3.40039 0,-2.33576 -0.51528,-5.16097 -3.35158,-5.12305 z m -11.64062,1.9375 c 0,0 -38.07432,2.00916 -38.20703,22.83008 -0.13272,20.49483 38.30468,22.41407 38.30468,22.41407 l 0,-2.57813 c 0,0 -30.86132,-2.30631 -30.86132,-19.83594 0,-16.99876 30.76367,-20.29297 30.76367,-20.29297 l 0,-2.53711 z m 4.75195,13.51758 0,3.76953 3.37109,0 0,1.79297 c 0,1.74804 0.97373,3.81836 3.46875,3.81836 2.54053,0 3.32618,-2.34918 3.32618,-3.95312 l 0,-5.42774 -10.16602,0 z m 7.5957,3.62891 -0.0195,0.79297 c 0,0.91382 -0.52418,1.1875 -0.9375,1.1875 -0.46638,0 -1.01515,-0.22781 -1.06445,-1.24024 l 0,-0.72851 2.02148,-0.0117 z m -7.57618,12.86328 0,3.75781 10.12891,0 0,-3.75781 -10.12891,0 z m 7.47072,9.85938 0,2.76171 -7.49024,0 0,3.72657 7.49024,0 0,2.94336 2.77148,0 -0.0117,-9.43164 -2.75976,0 z m 7.46678,4.78515 0,2.88672 c 0,0 32.15625,3.4262 32.15625,21.49805 0,17.90501 -32.15625,20.55664 -32.15625,20.55664 l 0,2.76758 c 0,0 39.14053,-2.18099 39.91406,-23.32422 0.7925,-21.73854 -39.91405,-24.38477 -39.91405,-24.38477 z m -14.95507,10.25781 0,9.47461 2.58594,0 0,-5.00586 4.89844,4.91602 2.68164,0 -0.008,-9.19531 -2.66211,0 -0.0117,4.54883 -4.71289,-4.73829 -2.77149,0 z m 0.0469,15.17969 0,3.86328 3.36914,0 -3.4043,2.21875 -0.0156,4.91016 5.45703,-4.18555 4.71289,3.4961 -0.004,-4.4668 -3.18164,-1.92774 3.18164,-0.0137 -0.004,-3.89062 -10.11133,-0.004 z m -0.0352,16.08203 0,8.80469 2.61132,-0.008 0,-4.9668 1.38868,0 0,4.45899 2.49805,0 0,-4.45899 1.11133,0 -0.004,4.875 2.4961,-0.004 0,-8.70117 -10.10157,0 z" id="path134" stroke="black" style="fill:#ffffff;fill-opacity:1;fill-rule:nonzero;"/>
		
  
	</g>
	

</svg>