<?xml version="1.0" encoding="iso-8859-1"?><!-- Created with Inkscape (http://www.inkscape.org/) --><svg height="198.42519" id="svg3525" version="1.1" width="715.74799" xmlns="http://www.w3.org/2000/svg" xmlns:cc="http://creativecommons.org/ns#" xmlns:dc="http://purl.org/dc/elements/1.1/" xmlns:rdf="http://www.w3.org/1999/02/22-rdf-syntax-ns#" xmlns:svg="http://www.w3.org/2000/svg">
	
  
	<defs id="defs3527"/>
	
  
	<metadata id="metadata3530">
		
    
		<rdf:RDF>
			
      
			<cc:Work rdf:about="">
				
        
				<dc:format>image/svg+xml</dc:format>
				
        
				<dc:type rdf:resource="http://purl.org/dc/dcmitype/StillImage"/>
				
        
				<dc:title/>
				
      
			</cc:Work>
			
    
		</rdf:RDF>
		
  
	</metadata>
	
  
	<g id="layer1" transform="translate(-0.86381957,-458.21987)">
		
    
		<g id="g3814" transform="matrix(2.4689456,0,0,2.4689456,-1971.7261,-981.49071)">
			
      
			
			
      
			
			
      
			
			
      
			
			
      
			
			
      
			
			
      
			
			
      
			
			
      
			
			
      
			
			
      
			
			
      
			
			
      
			
			
      
			
			
      
			
			
      
			
			
      
			
			
      
			
			
      
			
			
      
			
			
      
			
			
      
			
			
      
			
			
      
			
			
      
			
			
      
			
			
      
			
			
      
			
			
      
			
			
      
			
			
      
			
			
      
			
			
      
			
			
      
			
			
      
			
			
      
			
			
      
			
			
      
			
			
      
			
			
      
			
			
      
			
			
      
			
			
      
			
			
      
			
			
      
			
			
      
			
			
      
			
			
      
			
			
      
			
			
      
			
			
      
			
			
      
			
			
      
			
			
      
			
			
      
			
			
      
			
			
      
			
			
      
			
			
      
			
			
      
			
			
      
			
			
      
			
			
      
			
			
      
			
			
      
			
			
      
			
			
      
			
			
      
			
			
      
			
			
      
			
			
      
			
			
      
			
			
      
			
			
      
			
			
      
			
			
      
			
			
      
			<path animation_id="76" d="m 1014.8181,631.6519 0.2275,-0.12125 16.005,-8.53375 5.2513,-24.685 0.1112,-0.68875 0.079,-0.67125 0.045,-0.65375 0.016,-0.635 -0.015,-0.61875 -0.043,-0.6 -0.069,-0.5825 -0.095,-0.56375 -0.1175,-0.545 -0.1387,-0.5275 -0.16,-0.50875 -0.1775,-0.49 -0.1963,-0.47 -0.2125,-0.4525 -0.225,-0.4325 -0.2387,-0.41375 -0.25,-0.395 -0.2587,-0.37625 -0.2688,-0.35625 -0.2725,-0.3375 -0.5625,-0.61625 -0.5712,-0.54125 -0.5688,-0.4625 -0.5537,-0.38625 -0.5288,-0.30875 -0.2537,-0.12625 -0.4263,-0.1875 -0.9637,0.64625 -0.7663,0.56375 c -0.375,0.295 -0.7412,0.595 -1.1012,0.90625 l -0.6988,0.64625 -0.6687,0.67875 -0.6363,0.71625 -0.6025,0.75 -0.565,0.78625 -0.5262,0.825 -0.4863,0.86125 -0.445,0.90125 -0.3987,0.93875 -0.3538,0.98 -0.305,1.01875 -0.255,1.05875 -7.165,33.725 0.405,0.285" id="path3193" stroke="black" style="fill:#0068ac;fill-opacity:1;fill-rule:evenodd;"/>
			
      
			
			
      
			
			
      
			
			
      
			
			
      
			
			
      
			
			
      
			
			
      
			
			
      
			
			
      
			
			
      
			
			
      
			
			
      
			
			
      
			
			
      
			
			
      
			
			
      
			
			
      
			
			
      
			
			
      
			
			
      
			
			
      
			
			
      
			
			
      
			
			
      
			
			
      
			
			
      
			
			
      
			
			
      
			
			
      
			
			
      
			
			
      
			
			
      
			
			
      
			
			
      
			
			
      
			
			
      
			
			
      
			
			
      
			
			
      
			
			
      
			
			
      
			
			
      
			
			
      
			
			
      
			
			
      
			
			
      
			
			
      
			
			
      
			
			
      
			
			
      
			
			
      
			
			
      
			
			
      
			
			
      
			
			
      
			
			
      
			
			
      
			
			
      
			
			
      
			
			
      
			
			
    
		</g>
		
  
	</g>
	

</svg>