<?xml version="1.0" encoding="iso-8859-1"?><!-- Created with Inkscape (http://www.inkscape.org/) --><svg height="198.42519" id="svg3525" version="1.1" width="715.74799" xmlns="http://www.w3.org/2000/svg" xmlns:cc="http://creativecommons.org/ns#" xmlns:dc="http://purl.org/dc/elements/1.1/" xmlns:rdf="http://www.w3.org/1999/02/22-rdf-syntax-ns#" xmlns:svg="http://www.w3.org/2000/svg">
	
  
	<defs id="defs3527"/>
	
  
	<metadata id="metadata3530">
		
    
		<rdf:RDF>
			
      
			<cc:Work rdf:about="">
				
        
				<dc:format>image/svg+xml</dc:format>
				
        
				<dc:type rdf:resource="http://purl.org/dc/dcmitype/StillImage"/>
				
        
				<dc:title/>
				
      
			</cc:Work>
			
    
		</rdf:RDF>
		
  
	</metadata>
	
  
	<g id="layer1" transform="translate(-0.86381957,-458.21987)">
		
    
		<g id="g3814" transform="matrix(2.4689456,0,0,2.4689456,-1971.7261,-981.49071)">
			
      
			
			
      
			
			
      
			
			
      
			
			
      
			
			
      
			
			
      
			
			
      
			
			
      
			
			
      
			<path animation_id="9" d="m 1025.0494,649.49315 0.052,0.75625 0.096,0.7275 0.1375,0.69875 0.1762,0.6675 0.2125,0.63875 0.2488,0.61 0.28,0.58 0.3112,0.55125 0.3375,0.52125 0.3663,0.4925 0.3875,0.46375 0.41,0.435 0.4287,0.4075 0.4463,0.38 0.46,0.35125 0.4737,0.325 0.4825,0.2975 0.4925,0.27125 0.4988,0.245 0.5025,0.21875 0.5037,0.19375 0.505,0.16875 0.5025,0.14375 0.5,0.12 0.4925,0.095 0.4863,0.0712 0.4762,0.0488 0.465,0.0237 14.21,0 -2.3025,-0.895 -0.7625,-0.335 -0.7887,-0.39875 -0.8,-0.465 -0.7975,-0.53 -0.3938,-0.29 -0.3887,-0.3075 -0.3812,-0.3225 -0.3713,-0.34125 -0.3612,-0.35625 -0.3488,-0.375 -0.335,-0.39125 -0.3187,-0.40625 -0.3025,-0.42625 -0.2838,-0.44125 -0.2625,-0.46 -0.2425,-0.4775 -0.2162,-0.49375 -0.1938,-0.5125 -0.165,-0.53125 -0.1387,-0.54875 -0.1088,-0.5675 -0.078,-0.5875 -0.044,-0.60625 -0.01,-0.625 0.027,-0.64625 0.065,-0.66625 0.1013,-0.65625 10.215,-48.02625 0.1275,-0.80625 0.084,-0.78125 0.04,-0.75625 10e-4,-0.73125 -0.038,-0.705 -0.075,-0.6825 -0.1112,-0.6575 -0.1425,-0.6325 -0.1763,-0.6075 -0.2062,-0.5825 -0.235,-0.55875 -0.26,-0.53375 -0.285,-0.50875 -0.3075,-0.48375 -0.3288,-0.46 -0.3475,-0.435 -0.3637,-0.41125 -0.3788,-0.3875 -0.3937,-0.36375 -0.4025,-0.34 -0.4138,-0.31625 -0.4212,-0.2925 -0.4263,-0.27 -0.4312,-0.24875 -0.435,-0.225 -0.4338,-0.2025 -0.435,-0.18 -0.43,-0.16 -0.4275,-0.13625 -0.42,-0.11625 -0.4137,-0.095 -0.43,-0.0788 -16.9988,0 -0.785,0.0638 -0.97,0.13625 -0.5087,0.10375 5.2012,0.5625 0.7838,0.13 0.7387,0.16875 0.6925,0.205 0.6475,0.2375 0.6075,0.27 0.5638,0.29875 0.5262,0.32625 0.4875,0.35125 0.4513,0.37625 0.4162,0.3975 0.3838,0.4175 0.3487,0.435 0.3175,0.4525 0.2875,0.46625 0.2588,0.48 0.23,0.49 0.2025,0.49875 0.1762,0.505 0.1513,0.51125 0.1262,0.5125 0.1038,0.515 0.081,0.51125 0.059,0.5075 0.041,0.5025 0.02,0.495 0,0.48375 -0.014,0.4725 -0.03,0.4575 -0.044,0.44 -0.1175,0.765 -10.3263,48.515 0.031,0 -0.066,0.4175 -0.088,0.84625 -0.039,0.8175 0.01,0.78625" id="path3059" stroke="black" style="fill:#0068ac;fill-opacity:1;fill-rule:evenodd;"/>
			
      
			
			
      
			
			
      
			
			
      
			
			
      
			
			
      
			
			
      
			
			
      
			
			
      
			
			
      
			
			
      
			
			
      
			
			
      
			
			
      
			
			
      
			
			
      
			
			
      
			
			
      
			
			
      
			
			
      
			
			
      
			
			
      
			
			
      
			
			
      
			
			
      
			
			
      
			
			
      
			
			
      
			
			
      
			
			
      
			
			
      
			
			
      
			
			
      
			
			
      
			
			
      
			
			
      
			
			
      
			
			
      
			
			
      
			
			
      
			
			
      
			
			
      
			
			
      
			
			
      
			
			
      
			
			
      
			
			
      
			
			
      
			
			
      
			
			
      
			
			
      
			
			
      
			
			
      
			
			
      
			
			
      
			
			
      
			
			
      
			
			
      
			
			
      
			
			
      
			
			
      
			
			
      
			
			
      
			
			
      
			
			
      
			
			
      
			
			
      
			
			
      
			
			
      
			
			
      
			
			
      
			
			
      
			
			
      
			
			
      
			
			
      
			
			
      
			
			
      
			
			
      
			
			
      
			
			
      
			
			
      
			
			
      
			
			
      
			
			
      
			
			
      
			
			
      
			
			
      
			
			
      
			
			
      
			
			
      
			
			
      
			
			
      
			
			
      
			
			
      
			
			
      
			
			
      
			
			
      
			
			
      
			
			
      
			
			
      
			
			
      
			
			
      
			
			
      
			
			
      
			
			
      
			
			
      
			
			
      
			
			
      
			
			
      
			
			
      
			
			
      
			
			
      
			
			
      
			
			
      
			
			
      
			
			
      
			
			
      
			
			
      
			
			
      
			
			
      
			
			
      
			
			
      
			
			
      
			
			
      
			
			
      
			
			
      
			
			
      
			
			
      
			
			
    
		</g>
		
  
	</g>
	

</svg>