<?xml version="1.0" encoding="iso-8859-1"?><!-- Created with Inkscape (http://www.inkscape.org/) --><svg height="198.42519" id="svg3525" version="1.1" width="715.74799" xmlns="http://www.w3.org/2000/svg" xmlns:cc="http://creativecommons.org/ns#" xmlns:dc="http://purl.org/dc/elements/1.1/" xmlns:rdf="http://www.w3.org/1999/02/22-rdf-syntax-ns#" xmlns:svg="http://www.w3.org/2000/svg">
	
  
	<defs id="defs3527"/>
	
  
	<metadata id="metadata3530">
		
    
		<rdf:RDF>
			
      
			<cc:Work rdf:about="">
				
        
				<dc:format>image/svg+xml</dc:format>
				
        
				<dc:type rdf:resource="http://purl.org/dc/dcmitype/StillImage"/>
				
        
				<dc:title/>
				
      
			</cc:Work>
			
    
		</rdf:RDF>
		
  
	</metadata>
	
  
	<g id="layer1" transform="translate(-0.86381957,-458.21987)">
		
    
		<g id="g3814" transform="matrix(2.4689456,0,0,2.4689456,-1971.7261,-981.49071)">
			
      
			
			
      
			
			
      
			
			
      
			
			
      
			
			
      
			
			
      
			
			
      
			
			
      
			
			
      
			
			
      
			
			
      
			
			
      
			
			
      
			
			
      
			
			
      
			
			
      
			
			
      
			
			
      
			
			
      
			
			
      
			
			
      
			
			
      
			
			
      
			
			
      
			
			
      
			
			
      
			
			
      
			
			
      
			
			
      
			
			
      
			
			
      
			
			
      
			
			
      
			
			
      
			
			
      
			
			
      
			
			
      
			
			
      
			
			
      
			
			
      
			
			
      
			
			
      
			
			
      
			
			
      
			
			
      
			
			
      
			
			
      
			
			
      
			
			
      
			
			
      
			
			
      
			
			
      
			
			
      
			
			
      
			
			
      
			
			
      
			
			
      
			
			
      
			
			
      
			
			
      
			
			
      
			
			
      
			
			
      
			
			
      
			
			
      
			
			
      
			
			
      
			
			
      
			
			
      
			
			
      
			
			
      
			
			
      
			
			
      
			
			
      
			<path animation_id="74" d="m 1017.0081,622.8944 -1.82,8.56 -0.37,0.1975 -12.3112,-8.66875 5.2687,-24.77 0.1488,-0.695 0.2037,-0.71375 0.2488,-0.71625 0.2975,-0.71875 0.3412,-0.71625 0.3863,-0.7125 0.4262,-0.705 0.47,-0.6975 0.5075,-0.685 0.5475,-0.67125 0.5838,-0.65375 0.62,-0.635 0.655,-0.6125 0.6875,-0.5875 0.72,-0.56125 0.7512,-0.53125 0.78,-0.4975 0.8088,-0.4625 0.835,-0.42375 0.8625,-0.38375 0.8862,-0.33875 0.9088,-0.29375 0.9312,-0.24375 0.9525,-0.1925 0.97,-0.13625 0.9875,-0.08 1.005,-0.0175 1.02,0.0437 1.0325,0.11125 1.0438,0.17875 1.0537,0.25 1.8538,0.565 c -0.4913,0.315 -0.9838,0.6275 -1.4625,0.9575 -0.3863,0.27625 -0.7625,0.56125 -1.1313,0.8575 -0.3112,0.2575 -0.6137,0.52125 -0.9112,0.79 -0.3188,0.3 -0.6275,0.605 -0.93,0.91875 l -0.62,0.68625 -0.6075,0.74875 -0.5888,0.80875 -0.5625,0.8725 -0.2687,0.46125 -0.2575,0.475 -0.2475,0.49375 -0.2375,0.51 -0.2225,0.52625 -0.21,0.54375 -0.195,0.56125 -0.1788,0.5775 -0.1625,0.59625 -0.1437,0.61375 -0.1288,0.64 -5.2275,24.57625" id="path3189" stroke="black" style="fill:#0068ac;fill-opacity:1;fill-rule:evenodd;"/>
			
      
			
			
      
			
			
      
			
			
      
			
			
      
			
			
      
			
			
      
			
			
      
			
			
      
			
			
      
			
			
      
			
			
      
			
			
      
			
			
      
			
			
      
			
			
      
			
			
      
			
			
      
			
			
      
			
			
      
			
			
      
			
			
      
			
			
      
			
			
      
			
			
      
			
			
      
			
			
      
			
			
      
			
			
      
			
			
      
			
			
      
			
			
      
			
			
      
			
			
      
			
			
      
			
			
      
			
			
      
			
			
      
			
			
      
			
			
      
			
			
      
			
			
      
			
			
      
			
			
      
			
			
      
			
			
      
			
			
      
			
			
      
			
			
      
			
			
      
			
			
      
			
			
      
			
			
      
			
			
      
			
			
      
			
			
      
			
			
      
			
			
      
			
			
      
			
			
      
			
			
      
			
			
      
			
			
      
			
			
    
		</g>
		
  
	</g>
	

</svg>