<?xml version="1.0" encoding="iso-8859-1"?><!-- Created with Inkscape (http://www.inkscape.org/) --><svg height="198.42519" id="svg3525" version="1.1" width="715.74799" xmlns="http://www.w3.org/2000/svg" xmlns:cc="http://creativecommons.org/ns#" xmlns:dc="http://purl.org/dc/elements/1.1/" xmlns:rdf="http://www.w3.org/1999/02/22-rdf-syntax-ns#" xmlns:svg="http://www.w3.org/2000/svg">
	
  
	<defs id="defs3527"/>
	
  
	<metadata id="metadata3530">
		
    
		<rdf:RDF>
			
      
			<cc:Work rdf:about="">
				
        
				<dc:format>image/svg+xml</dc:format>
				
        
				<dc:type rdf:resource="http://purl.org/dc/dcmitype/StillImage"/>
				
        
				<dc:title/>
				
      
			</cc:Work>
			
    
		</rdf:RDF>
		
  
	</metadata>
	
  
	<g id="layer1" transform="translate(-0.86381957,-458.21987)">
		
    
		<g id="g3814" transform="matrix(2.4689456,0,0,2.4689456,-1971.7261,-981.49071)">
			
      
			
			
      
			
			
      
			
			
      
			
			
      
			
			
      
			
			
      
			
			
      
			
			
      
			
			
      
			
			
      
			
			
      
			
			
      
			
			
      
			
			
      
			
			
      
			
			
      
			
			
      
			
			
      
			
			
      
			
			
      
			
			
      
			
			
      
			
			
      
			
			
      
			
			
      
			
			
      
			
			
      
			
			
      
			
			
      
			
			
      
			
			
      
			
			
      
			
			
      
			
			
      
			
			
      
			
			
      
			
			
      
			
			
      
			
			
      
			
			
      
			
			
      
			
			
      
			
			
      
			
			
      
			
			
      
			
			
      
			
			
      
			
			
      
			
			
      
			
			
      
			
			
      
			
			
      
			
			
      
			
			
      
			
			
      
			
			
      
			
			
      
			
			
      
			
			
      
			
			
      
			
			
      
			
			
      
			
			
      
			
			
      
			
			
      
			
			
      
			
			
      
			
			
      
			
			
      
			
			
      
			
			
      
			
			
      
			
			
      
			
			
      
			
			
      
			
			
      
			
			
      
			
			
      
			
			
      
			
			
      
			
			
      
			
			
      
			
			
      
			
			
      
			
			
      
			
			
      
			
			
      
			
			
      
			<path animation_id="88" d="m 833.52436,654.5169 c -0.2775,-0.185 -0.885,-0.38 -1.59375,-0.38 -1.0275,0 -1.83,0.4625 -2.375,1.22375 -0.4925,0.68875 -0.8225,1.73625 -0.8225,2.59 0,1.1825 0.65875,1.90125 1.7475,1.90125 0.47375,0 0.86375,-0.1025 1.12125,-0.23625 l -0.0925,0.38 c -0.195,0.79125 -0.69875,1.43875 -1.68625,1.43875 -0.51375,0 -1.0075,-0.1325 -1.26375,-0.2875 l -0.37,0.555 c 0.37,0.22625 1.00625,0.39125 1.665,0.39125 1.34625,0 2.27125,-0.8025 2.56,-2.2 l 1.11,-5.37625 z m -0.93625,0.30875 -0.88375,4.255 c -0.23625,0.13375 -0.58625,0.22625 -0.935,0.22625 -0.8125,0 -1.15125,-0.45125 -1.15125,-1.26375 0,-0.72 0.24625,-1.68625 0.60625,-2.3025 0.39,-0.66875 0.935,-1.05875 1.62375,-1.05875 0.39125,0 0.61625,0.0725 0.74,0.14375" id="path3217" stroke="black" style="fill:#0068ac;fill-opacity:1;fill-rule:nonzero;"/>
			
      
			
			
      
			
			
      
			
			
      
			
			
      
			
			
      
			
			
      
			
			
      
			
			
      
			
			
      
			
			
      
			
			
      
			
			
      
			
			
      
			
			
      
			
			
      
			
			
      
			
			
      
			
			
      
			
			
      
			
			
      
			
			
      
			
			
      
			
			
      
			
			
      
			
			
      
			
			
      
			
			
      
			
			
      
			
			
      
			
			
      
			
			
      
			
			
      
			
			
      
			
			
      
			
			
      
			
			
      
			
			
      
			
			
      
			
			
      
			
			
      
			
			
      
			
			
      
			
			
      
			
			
      
			
			
      
			
			
      
			
			
      
			
			
      
			
			
    
		</g>
		
  
	</g>
	

</svg>