<?xml version="1.0" encoding="iso-8859-1"?><svg height="300" id="svg5246" version="1.1" viewBox="0 0 80.168754 79.375002" width="303" xmlns="http://www.w3.org/2000/svg" xmlns:cc="http://creativecommons.org/ns#" xmlns:dc="http://purl.org/dc/elements/1.1/" xmlns:rdf="http://www.w3.org/1999/02/22-rdf-syntax-ns#" xmlns:svg="http://www.w3.org/2000/svg">
	
  
	<defs id="defs5240"/>
	
  
	<metadata id="metadata5243">
		
    
		<rdf:RDF>
			
      
			<cc:Work rdf:about="">
				
        
				<dc:format>image/svg+xml</dc:format>
				
        
				<dc:type rdf:resource="http://purl.org/dc/dcmitype/StillImage"/>
				
        
				<dc:title/>
				
      
			</cc:Work>
			
    
		</rdf:RDF>
		
  
	</metadata>
	
  
	<g id="layer1" transform="translate(-31.957789,-22.249892)">
		
    
		
		
    
		<path animation_id="1" d="m 100.97126,33.828842 c -9.691817,-2.720577 -19.004363,0.370998 -24.281063,5.358726 -5.045843,4.773384 -4.32855,8.413197 0.329796,12.527034 3.809112,3.322413 4.592373,6.030627 1.39749,9.052122 -2.345652,2.21768 -7.140029,3.751103 -12.758891,2.172338 -3.677199,-1.030521 -5.482821,-2.82776 -6.146532,-3.812933 -3.79263,-4.179804 -7.119423,0.927474 -5.091195,3.128663 0.944031,1.314957 3.231978,2.951421 7.383267,4.117977 7.964511,2.234175 17.239958,-0.04539 22.599116,-5.111396 4.814988,-4.554912 3.627729,-8.512122 -1.051215,-12.267348 -3.776142,-3.1905 -5.676582,-5.593677 -2.481705,-8.611053 3.483444,-3.293547 10.594632,-4.649721 15.994998,-3.132789 6.047594,1.286091 9.065214,-2.427915 4.105934,-3.421341" id="path3237" stroke="black" style="fill:#fffad9;fill-opacity:1;fill-rule:nonzero;;stroke-width:1.05529797"/>
		
    
		
		
  
	</g>
	

</svg>