<?xml version="1.0" encoding="iso-8859-1"?><!-- Created with Inkscape (http://www.inkscape.org/) --><svg height="80" id="svg2662" inkscape:output_extension="org.inkscape.output.svg.inkscape" inkscape:version="0.46" sodipodi:docname="Steinway_and_Sons_Logo.svg" sodipodi:version="0.32" version="1.0" width="350" xmlns="http://www.w3.org/2000/svg" xmlns:cc="http://creativecommons.org/ns#" xmlns:dc="http://purl.org/dc/elements/1.1/" xmlns:inkscape="http://www.inkscape.org/namespaces/inkscape" xmlns:rdf="http://www.w3.org/1999/02/22-rdf-syntax-ns#" xmlns:sodipodi="http://sodipodi.sourceforge.net/DTD/sodipodi-0.dtd" xmlns:svg="http://www.w3.org/2000/svg">
	
  
	<metadata id="metadata22">
		
    
		<rdf:RDF>
			
      
			<cc:Work rdf:about="">
				
        
				<dc:format>image/svg+xml</dc:format>
				
        
				<dc:type rdf:resource="http://purl.org/dc/dcmitype/StillImage"/>
				
      
			</cc:Work>
			
    
		</rdf:RDF>
		
  
	</metadata>
	
  
	<sodipodi:namedview bordercolor="#666666" borderopacity="1.0" gridtolerance="10.0" guidetolerance="10.0" id="base" inkscape:current-layer="svg2662" inkscape:cx="170.64168" inkscape:cy="37.5" inkscape:pageopacity="0.0" inkscape:pageshadow="2" inkscape:window-height="701" inkscape:window-width="1126" inkscape:window-x="0" inkscape:window-y="22" inkscape:zoom="1.9155833" objecttolerance="10.0" pagecolor="#ffffff" showgrid="false"/>
	
  
	<defs id="defs2664">
		
    
		<inkscape:perspective id="perspective24" inkscape:persp3d-origin="141.73228 : 25 : 1" inkscape:vp_x="0 : 37.5 : 1" inkscape:vp_y="0 : 1000 : 0" inkscape:vp_z="283.46457 : 37.5 : 1" sodipodi:type="inkscape:persp3d"/>
		
  
	</defs>
	
  
	<g id="g2428" transform="matrix(1.289489,0,0,1.289489,-3.9675329,-8.3558375)">
		
    
		
		
    
		
		
    
		
		
    
		
		
    
		
		
    
		
		
    
		
		
    
		
		
    
		
		
    
		
		
    
		<path animation_id="10" d="M 263.647,52.88625 C 265.052,52.88625 265.2895,53.36125 266.19575,53.36125 C 266.477,53.36125 266.69325,53.21 266.69325,53.21 L 266.69325,55.2625 C 266.69325,55.2625 264.922,53.7075 263.4745,53.7075 C 262.027,53.7075 261.35825,54.39875 261.35825,55.37 C 261.35825,56.55875 262.222,57.09875 264.6845,57.94 C 267.147,58.7825 267.53575,60.36 267.53575,61.4175 C 267.53575,64.2475 265.07325,65.06875 263.432,65.06875 C 261.7895,65.06875 260.25575,64.22625 259.932,64.22625 C 259.60825,64.22625 259.30575,64.485 259.30575,64.485 C 259.30575,64.485 259.32825,63.12375 259.30575,62.195 C 260.2345,63.14625 261.29325,64.1175 263.19325,64.14 C 265.0945,64.16125 265.8295,62.9725 265.8295,61.87125 C 265.8295,60.77 264.922,60.1225 263.172,59.47375 C 261.42325,58.82625 259.60825,57.9625 259.60825,55.95375 C 259.60825,53.945 261.8545,52.88625 263.647,52.88625" id="path2526" stroke="black" style="fill:#231f20;fill-opacity:1;fill-rule:nonzero;"/>
		
    
		
		
    
		
		
    
		
		
  
	</g>
	

</svg>