<?xml version="1.0" encoding="iso-8859-1"?><!-- Created with Inkscape (http://www.inkscape.org/) --><svg height="80" id="svg2662" inkscape:output_extension="org.inkscape.output.svg.inkscape" inkscape:version="0.46" sodipodi:docname="Steinway_and_Sons_Logo.svg" sodipodi:version="0.32" version="1.0" width="350" xmlns="http://www.w3.org/2000/svg" xmlns:cc="http://creativecommons.org/ns#" xmlns:dc="http://purl.org/dc/elements/1.1/" xmlns:inkscape="http://www.inkscape.org/namespaces/inkscape" xmlns:rdf="http://www.w3.org/1999/02/22-rdf-syntax-ns#" xmlns:sodipodi="http://sodipodi.sourceforge.net/DTD/sodipodi-0.dtd" xmlns:svg="http://www.w3.org/2000/svg">
	
  
	<metadata id="metadata22">
		
    
		<rdf:RDF>
			
      
			<cc:Work rdf:about="">
				
        
				<dc:format>image/svg+xml</dc:format>
				
        
				<dc:type rdf:resource="http://purl.org/dc/dcmitype/StillImage"/>
				
      
			</cc:Work>
			
    
		</rdf:RDF>
		
  
	</metadata>
	
  
	<sodipodi:namedview bordercolor="#666666" borderopacity="1.0" gridtolerance="10.0" guidetolerance="10.0" id="base" inkscape:current-layer="svg2662" inkscape:cx="170.64168" inkscape:cy="37.5" inkscape:pageopacity="0.0" inkscape:pageshadow="2" inkscape:window-height="701" inkscape:window-width="1126" inkscape:window-x="0" inkscape:window-y="22" inkscape:zoom="1.9155833" objecttolerance="10.0" pagecolor="#ffffff" showgrid="false"/>
	
  
	<defs id="defs2664">
		
    
		<inkscape:perspective id="perspective24" inkscape:persp3d-origin="141.73228 : 25 : 1" inkscape:vp_x="0 : 37.5 : 1" inkscape:vp_y="0 : 1000 : 0" inkscape:vp_z="283.46457 : 37.5 : 1" sodipodi:type="inkscape:persp3d"/>
		
  
	</defs>
	
  
	<g id="g2428" transform="matrix(1.289489,0,0,1.289489,-3.9675329,-8.3558375)">
		
    
		
		
    
		
		
    
		
		
    
		
		
    
		
		
    
		<path animation_id="5" d="M 46.236999,53.7725 L 53.580749,53.7725 L 53.580749,54.93875 C 53.580749,54.93875 53.191999,54.44125 52.328249,54.44125 C 51.463249,54.44125 48.115749,54.44125 48.115749,54.44125 L 48.115749,58.5675 C 48.115749,58.5675 50.966999,58.5675 51.376999,58.5675 C 51.788249,58.5675 52.198249,58.35125 52.198249,58.35125 L 52.198249,59.5175 C 52.198249,59.5175 51.895749,59.345 51.399499,59.345 C 50.901999,59.345 48.115749,59.345 48.115749,59.345 L 48.115749,64.1175 C 48.115749,64.1175 51.981999,64.1175 52.694499,64.1175 C 53.408249,64.1175 53.818249,63.68625 53.818249,63.68625 L 53.818249,64.895 C 53.818249,64.895 46.755749,64.895 46.539499,64.895 C 46.323249,64.895 46.236999,64.8525 46.236999,64.6575 C 46.236999,64.46375 46.518249,64.4425 46.518249,64.09625 C 46.518249,63.75125 46.518249,54.6575 46.518249,54.33375 C 46.518249,54.01 46.236999,53.7725 46.236999,53.7725" id="path2516" stroke="black" style="fill:#231f20;fill-opacity:1;fill-rule:nonzero;"/>
		
    
		
		
    
		
		
    
		
		
    
		
		
    
		
		
    
		
		
    
		
		
    
		
		
  
	</g>
	

</svg>