<?xml version="1.0" encoding="iso-8859-1"?><!-- Created with Inkscape (http://www.inkscape.org/) --><svg height="80" id="svg2662" inkscape:output_extension="org.inkscape.output.svg.inkscape" inkscape:version="0.46" sodipodi:docname="Steinway_and_Sons_Logo.svg" sodipodi:version="0.32" version="1.0" width="350" xmlns="http://www.w3.org/2000/svg" xmlns:cc="http://creativecommons.org/ns#" xmlns:dc="http://purl.org/dc/elements/1.1/" xmlns:inkscape="http://www.inkscape.org/namespaces/inkscape" xmlns:rdf="http://www.w3.org/1999/02/22-rdf-syntax-ns#" xmlns:sodipodi="http://sodipodi.sourceforge.net/DTD/sodipodi-0.dtd" xmlns:svg="http://www.w3.org/2000/svg">
	
  
	<metadata id="metadata22">
		
    
		<rdf:RDF>
			
      
			<cc:Work rdf:about="">
				
        
				<dc:format>image/svg+xml</dc:format>
				
        
				<dc:type rdf:resource="http://purl.org/dc/dcmitype/StillImage"/>
				
      
			</cc:Work>
			
    
		</rdf:RDF>
		
  
	</metadata>
	
  
	<sodipodi:namedview bordercolor="#666666" borderopacity="1.0" gridtolerance="10.0" guidetolerance="10.0" id="base" inkscape:current-layer="svg2662" inkscape:cx="170.64168" inkscape:cy="37.5" inkscape:pageopacity="0.0" inkscape:pageshadow="2" inkscape:window-height="701" inkscape:window-width="1126" inkscape:window-x="0" inkscape:window-y="22" inkscape:zoom="1.9155833" objecttolerance="10.0" pagecolor="#ffffff" showgrid="false"/>
	
  
	<defs id="defs2664">
		
    
		<inkscape:perspective id="perspective24" inkscape:persp3d-origin="141.73228 : 25 : 1" inkscape:vp_x="0 : 37.5 : 1" inkscape:vp_y="0 : 1000 : 0" inkscape:vp_z="283.46457 : 37.5 : 1" sodipodi:type="inkscape:persp3d"/>
		
  
	</defs>
	
  
	<g id="g2428" transform="matrix(1.289489,0,0,1.289489,-3.9675329,-8.3558375)">
		
    
		
		
    
		
		
    
		
		
    
		
		
    
		
		
    
		
		
    
		
		
    
		<path animation_id="7" d="M 14.384499,52.88625 C 15.788249,52.88625 16.025749,53.36125 16.933249,53.36125 C 17.214499,53.36125 17.429499,53.21 17.429499,53.21 L 17.429499,55.2625 C 17.429499,55.2625 15.658249,53.7075 14.211999,53.7075 C 12.764499,53.7075 12.094499,54.39875 12.094499,55.37 C 12.094499,56.55875 12.959499,57.09875 15.420749,57.94 C 17.883249,58.7825 18.271999,60.36 18.271999,61.4175 C 18.271999,64.2475 15.809499,65.06875 14.168249,65.06875 C 12.526999,65.06875 10.993249,64.22625 10.669499,64.22625 C 10.345749,64.22625 10.043249,64.485 10.043249,64.485 C 10.043249,64.485 10.064499,63.12375 10.043249,62.195 C 10.971999,63.14625 12.030749,64.1175 13.930749,64.14 C 15.831999,64.16125 16.565749,62.9725 16.565749,61.87125 C 16.565749,60.77 15.658249,60.1225 13.909499,59.47375 C 12.159499,58.82625 10.345749,57.9625 10.345749,55.95375 C 10.345749,53.945 12.591999,52.88625 14.384499,52.88625" id="path2520" stroke="black" style="fill:#231f20;fill-opacity:1;fill-rule:nonzero;"/>
		
    
		
		
    
		
		
    
		
		
    
		
		
    
		
		
    
		
		
  
	</g>
	

</svg>