<?xml version="1.0" encoding="iso-8859-1"?><!-- Created with Inkscape (http://www.inkscape.org/) --><svg height="80" id="svg2662" inkscape:output_extension="org.inkscape.output.svg.inkscape" inkscape:version="0.46" sodipodi:docname="Steinway_and_Sons_Logo.svg" sodipodi:version="0.32" version="1.0" width="350" xmlns="http://www.w3.org/2000/svg" xmlns:cc="http://creativecommons.org/ns#" xmlns:dc="http://purl.org/dc/elements/1.1/" xmlns:inkscape="http://www.inkscape.org/namespaces/inkscape" xmlns:rdf="http://www.w3.org/1999/02/22-rdf-syntax-ns#" xmlns:sodipodi="http://sodipodi.sourceforge.net/DTD/sodipodi-0.dtd" xmlns:svg="http://www.w3.org/2000/svg">
	
  
	<metadata id="metadata22">
		
    
		<rdf:RDF>
			
      
			<cc:Work rdf:about="">
				
        
				<dc:format>image/svg+xml</dc:format>
				
        
				<dc:type rdf:resource="http://purl.org/dc/dcmitype/StillImage"/>
				
      
			</cc:Work>
			
    
		</rdf:RDF>
		
  
	</metadata>
	
  
	<sodipodi:namedview bordercolor="#666666" borderopacity="1.0" gridtolerance="10.0" guidetolerance="10.0" id="base" inkscape:current-layer="svg2662" inkscape:cx="170.64168" inkscape:cy="37.5" inkscape:pageopacity="0.0" inkscape:pageshadow="2" inkscape:window-height="701" inkscape:window-width="1126" inkscape:window-x="0" inkscape:window-y="22" inkscape:zoom="1.9155833" objecttolerance="10.0" pagecolor="#ffffff" showgrid="false"/>
	
  
	<defs id="defs2664">
		
    
		<inkscape:perspective id="perspective24" inkscape:persp3d-origin="141.73228 : 25 : 1" inkscape:vp_x="0 : 37.5 : 1" inkscape:vp_y="0 : 1000 : 0" inkscape:vp_z="283.46457 : 37.5 : 1" sodipodi:type="inkscape:persp3d"/>
		
  
	</defs>
	
  
	<g id="g2428" transform="matrix(1.289489,0,0,1.289489,-3.9675329,-8.3558375)">
		
    
		
		
    
		
		
    
		
		
    
		
		
    
		
		
    
		
		
    
		
		
    
		
		
    
		
		
    
		<path animation_id="9" d="M 205.39575,52.88625 C 206.7995,52.88625 207.037,53.36125 207.94325,53.36125 C 208.2245,53.36125 208.44075,53.21 208.44075,53.21 L 208.44075,55.2625 C 208.44075,55.2625 206.6695,53.7075 205.222,53.7075 C 203.77575,53.7075 203.10575,54.39875 203.10575,55.37 C 203.10575,56.55875 203.9695,57.09875 206.432,57.94 C 208.8945,58.7825 209.28325,60.36 209.28325,61.4175 C 209.28325,64.2475 206.82075,65.06875 205.1795,65.06875 C 203.537,65.06875 202.0045,64.22625 201.6795,64.22625 C 201.35575,64.22625 201.05325,64.485 201.05325,64.485 C 201.05325,64.485 201.07575,63.12375 201.05325,62.195 C 201.982,63.14625 203.04075,64.1175 204.942,64.14 C 206.842,64.16125 207.577,62.9725 207.577,61.87125 C 207.577,60.77 206.6695,60.1225 204.9195,59.47375 C 203.17075,58.82625 201.35575,57.9625 201.35575,55.95375 C 201.35575,53.945 203.602,52.88625 205.39575,52.88625" id="path2524" stroke="black" style="fill:#231f20;fill-opacity:1;fill-rule:nonzero;"/>
		
    
		
		
    
		
		
    
		
		
    
		
		
  
	</g>
	

</svg>