<?xml version="1.0" encoding="iso-8859-1"?><svg height="300" id="svg5246" version="1.1" viewBox="0 0 80.168754 79.375002" width="303" xmlns="http://www.w3.org/2000/svg" xmlns:cc="http://creativecommons.org/ns#" xmlns:dc="http://purl.org/dc/elements/1.1/" xmlns:rdf="http://www.w3.org/1999/02/22-rdf-syntax-ns#" xmlns:svg="http://www.w3.org/2000/svg">
	
  
	<defs id="defs5240"/>
	
  
	<metadata id="metadata5243">
		
    
		<rdf:RDF>
			
      
			<cc:Work rdf:about="">
				
        
				<dc:format>image/svg+xml</dc:format>
				
        
				<dc:type rdf:resource="http://purl.org/dc/dcmitype/StillImage"/>
				
        
				<dc:title/>
				
      
			</cc:Work>
			
    
		</rdf:RDF>
		
  
	</metadata>
	
  
	<g id="layer1" transform="translate(-31.957789,-22.249892)">
		
    
		
		
    
		
		
    
		<path animation_id="2" d="m 67.83523,46.310543 c -11.563392,0.457548 -30.617235,8.033958 -30.617235,22.428308 0,8.128764 9.774267,12.044754 15.830106,12.044754 h 37.559393 c 5.787879,0 15.842466,-3.66042 15.842466,-12.267348 0,-5.0001 -3.12892,-11.348123 -9.972132,-15.709298 -1.508811,-0.960447 -3.982266,-2.370198 -4.361532,-2.370198 -0.309186,0 -1.067712,-0.19785 -1.550034,0.894489 -0.20613,0.465798 -0.09477,1.244874 0.420492,1.529298 1.335669,0.733728 12.730046,6.030618 12.730046,15.923642 0,5.816271 -7.412123,9.237609 -13.410245,9.237609 H 53.027488 c -4.88919,0 -13.199994,-3.128661 -13.092813,-9.373635 0.21438,-12.621848 16.802997,-18.912164 28.172634,-19.604678 0.758523,-0.11541 1.195509,-0.882117 1.195509,-1.409745 0,-0.490539 -0.354531,-1.368543 -1.467588,-1.323198" id="path3241" stroke="black" style="fill:#ffffff;fill-opacity:1;fill-rule:nonzero;;stroke-width:1.05529797"/>
		
  
	</g>
	

</svg>