<?xml version="1.0" encoding="iso-8859-1"?><!-- Created with Inkscape (http://www.inkscape.org/) --><svg height="80" id="svg2662" inkscape:output_extension="org.inkscape.output.svg.inkscape" inkscape:version="0.46" sodipodi:docname="Steinway_and_Sons_Logo.svg" sodipodi:version="0.32" version="1.0" width="350" xmlns="http://www.w3.org/2000/svg" xmlns:cc="http://creativecommons.org/ns#" xmlns:dc="http://purl.org/dc/elements/1.1/" xmlns:inkscape="http://www.inkscape.org/namespaces/inkscape" xmlns:rdf="http://www.w3.org/1999/02/22-rdf-syntax-ns#" xmlns:sodipodi="http://sodipodi.sourceforge.net/DTD/sodipodi-0.dtd" xmlns:svg="http://www.w3.org/2000/svg">
	
  
	<metadata id="metadata22">
		
    
		<rdf:RDF>
			
      
			<cc:Work rdf:about="">
				
        
				<dc:format>image/svg+xml</dc:format>
				
        
				<dc:type rdf:resource="http://purl.org/dc/dcmitype/StillImage"/>
				
      
			</cc:Work>
			
    
		</rdf:RDF>
		
  
	</metadata>
	
  
	<sodipodi:namedview bordercolor="#666666" borderopacity="1.0" gridtolerance="10.0" guidetolerance="10.0" id="base" inkscape:current-layer="svg2662" inkscape:cx="170.64168" inkscape:cy="37.5" inkscape:pageopacity="0.0" inkscape:pageshadow="2" inkscape:window-height="701" inkscape:window-width="1126" inkscape:window-x="0" inkscape:window-y="22" inkscape:zoom="1.9155833" objecttolerance="10.0" pagecolor="#ffffff" showgrid="false"/>
	
  
	<defs id="defs2664">
		
    
		<inkscape:perspective id="perspective24" inkscape:persp3d-origin="141.73228 : 25 : 1" inkscape:vp_x="0 : 37.5 : 1" inkscape:vp_y="0 : 1000 : 0" inkscape:vp_z="283.46457 : 37.5 : 1" sodipodi:type="inkscape:persp3d"/>
		
  
	</defs>
	
  
	<g id="g2428" transform="matrix(1.289489,0,0,1.289489,-3.9675329,-8.3558375)">
		
    
		
		
    
		
		
    
		
		
    
		<path animation_id="3" d="M 86.114499,53.75 C 86.114499,53.75 86.394499,54.03125 86.394499,54.50625 C 86.394499,54.84125 86.394499,59.535 86.394499,62.2275 L 78.089499,53.1675 C 78.089499,53.1675 78.089499,63.66375 78.089499,64.1175 C 78.089499,64.57125 77.809499,64.895 77.809499,64.895 L 79.170749,64.895 C 79.170749,64.895 78.889499,64.615 78.889499,64.1175 C 78.889499,63.86375 78.890749,56.2725 78.890749,56.2725 L 86.856999,64.97375 L 87.108249,64.98125 C 87.108249,64.98125 87.108249,54.96 87.108249,54.50625 C 87.108249,54.0525 87.388249,53.75 87.388249,53.75 L 86.114499,53.75" id="path2512" stroke="black" style="fill:#231f20;fill-opacity:1;fill-rule:nonzero;"/>
		
    
		
		
    
		
		
    
		
		
    
		
		
    
		
		
    
		
		
    
		
		
    
		
		
    
		
		
    
		
		
  
	</g>
	

</svg>