<?xml version="1.0" encoding="iso-8859-1"?><!-- Created with Inkscape (http://www.inkscape.org/) --><svg height="80" id="svg2662" inkscape:output_extension="org.inkscape.output.svg.inkscape" inkscape:version="0.46" sodipodi:docname="Steinway_and_Sons_Logo.svg" sodipodi:version="0.32" version="1.0" width="350" xmlns="http://www.w3.org/2000/svg" xmlns:cc="http://creativecommons.org/ns#" xmlns:dc="http://purl.org/dc/elements/1.1/" xmlns:inkscape="http://www.inkscape.org/namespaces/inkscape" xmlns:rdf="http://www.w3.org/1999/02/22-rdf-syntax-ns#" xmlns:sodipodi="http://sodipodi.sourceforge.net/DTD/sodipodi-0.dtd" xmlns:svg="http://www.w3.org/2000/svg">
	
  
	<metadata id="metadata22">
		
    
		<rdf:RDF>
			
      
			<cc:Work rdf:about="">
				
        
				<dc:format>image/svg+xml</dc:format>
				
        
				<dc:type rdf:resource="http://purl.org/dc/dcmitype/StillImage"/>
				
      
			</cc:Work>
			
    
		</rdf:RDF>
		
  
	</metadata>
	
  
	<sodipodi:namedview bordercolor="#666666" borderopacity="1.0" gridtolerance="10.0" guidetolerance="10.0" id="base" inkscape:current-layer="svg2662" inkscape:cx="170.64168" inkscape:cy="37.5" inkscape:pageopacity="0.0" inkscape:pageshadow="2" inkscape:window-height="701" inkscape:window-width="1126" inkscape:window-x="0" inkscape:window-y="22" inkscape:zoom="1.9155833" objecttolerance="10.0" pagecolor="#ffffff" showgrid="false"/>
	
  
	<defs id="defs2664">
		
    
		<inkscape:perspective id="perspective24" inkscape:persp3d-origin="141.73228 : 25 : 1" inkscape:vp_x="0 : 37.5 : 1" inkscape:vp_y="0 : 1000 : 0" inkscape:vp_z="283.46457 : 37.5 : 1" sodipodi:type="inkscape:persp3d"/>
		
  
	</defs>
	
  
	<g id="g2428" transform="matrix(1.289489,0,0,1.289489,-3.9675329,-8.3558375)">
		
    
		
		
    
		
		
    
		<path animation_id="2" d="M 97.699499,53.79375 C 97.699499,53.79375 97.980749,53.945 98.196999,54.5925 C 98.413249,55.24125 101.652,65.2625 101.652,65.2625 L 105.00075,56.53625 L 108.65075,65.2625 C 108.65075,65.2625 111.912,55.28375 112.1495,54.61375 C 112.387,53.945 112.77575,53.79375 112.77575,53.79375 L 111.1345,53.79375 C 111.1345,53.79375 111.28575,54.09625 111.28575,54.26875 C 111.28575,54.44125 111.1345,55.04625 111.1345,55.04625 L 108.932,61.7425 L 105.4545,52.95125 L 102.192,61.52625 L 100.1195,55.305 C 100.1195,55.305 99.924499,54.7875 99.924499,54.44125 C 99.924499,54.09625 100.162,53.79375 100.162,53.79375 L 97.699499,53.79375" id="path2510" stroke="black" style="fill:#231f20;fill-opacity:1;fill-rule:nonzero;"/>
		
    
		
		
    
		
		
    
		
		
    
		
		
    
		
		
    
		
		
    
		
		
    
		
		
    
		
		
    
		
		
    
		
		
  
	</g>
	

</svg>