<?xml version="1.0" encoding="iso-8859-1"?><!-- Created with Inkscape (http://www.inkscape.org/) --><svg height="80" id="svg2662" inkscape:output_extension="org.inkscape.output.svg.inkscape" inkscape:version="0.46" sodipodi:docname="Steinway_and_Sons_Logo.svg" sodipodi:version="0.32" version="1.0" width="350" xmlns="http://www.w3.org/2000/svg" xmlns:cc="http://creativecommons.org/ns#" xmlns:dc="http://purl.org/dc/elements/1.1/" xmlns:inkscape="http://www.inkscape.org/namespaces/inkscape" xmlns:rdf="http://www.w3.org/1999/02/22-rdf-syntax-ns#" xmlns:sodipodi="http://sodipodi.sourceforge.net/DTD/sodipodi-0.dtd" xmlns:svg="http://www.w3.org/2000/svg">
	
  
	<metadata id="metadata22">
		
    
		<rdf:RDF>
			
      
			<cc:Work rdf:about="">
				
        
				<dc:format>image/svg+xml</dc:format>
				
        
				<dc:type rdf:resource="http://purl.org/dc/dcmitype/StillImage"/>
				
      
			</cc:Work>
			
    
		</rdf:RDF>
		
  
	</metadata>
	
  
	<sodipodi:namedview bordercolor="#666666" borderopacity="1.0" gridtolerance="10.0" guidetolerance="10.0" id="base" inkscape:current-layer="svg2662" inkscape:cx="170.64168" inkscape:cy="37.5" inkscape:pageopacity="0.0" inkscape:pageshadow="2" inkscape:window-height="701" inkscape:window-width="1126" inkscape:window-x="0" inkscape:window-y="22" inkscape:zoom="1.9155833" objecttolerance="10.0" pagecolor="#ffffff" showgrid="false"/>
	
  
	<defs id="defs2664">
		
    
		<inkscape:perspective id="perspective24" inkscape:persp3d-origin="141.73228 : 25 : 1" inkscape:vp_x="0 : 37.5 : 1" inkscape:vp_y="0 : 1000 : 0" inkscape:vp_z="283.46457 : 37.5 : 1" sodipodi:type="inkscape:persp3d"/>
		
  
	</defs>
	
  
	<g id="g2428" transform="matrix(1.289489,0,0,1.289489,-3.9675329,-8.3558375)">
		
    
		<path animation_id="0" d="M 151.30825,53.7525 C 151.30825,53.7525 151.502,53.89125 151.502,54.10625 C 151.502,54.3225 151.30825,54.5825 151.30825,54.5825 L 148.80825,57.81125 L 145.9195,54.63875 C 145.9195,54.63875 145.60575,54.355 145.60575,54.1175 C 145.60575,53.88 145.757,53.7525 145.757,53.7525 L 142.9495,53.7525 C 142.9495,53.7525 143.33825,53.83625 143.662,54.225 C 143.98575,54.61375 147.8095,58.9875 147.8095,58.9875 C 147.8095,58.9875 147.8095,63.8775 147.8095,64.1175 C 147.8095,64.57125 147.52825,64.895 147.52825,64.895 L 149.49325,64.895 C 149.49325,64.895 149.21325,64.615 149.21325,64.1175 C 149.21325,63.84 149.21325,58.55625 149.21325,58.55625 C 149.21325,58.55625 152.2795,54.60375 152.582,54.23625 C 152.8845,53.86875 153.27325,53.7525 153.27325,53.7525 L 151.30825,53.7525" id="path2506" stroke="black" style="fill:#231f20;fill-opacity:1;fill-rule:nonzero;"/>
		
    
		
		
    
		
		
    
		
		
    
		
		
    
		
		
    
		
		
    
		
		
    
		
		
    
		
		
    
		
		
    
		
		
    
		
		
    
		
		
  
	</g>
	

</svg>