<?xml version="1.0" encoding="iso-8859-1"?><svg height="254.40373" id="svg4414" version="1.1" width="642.8692" xmlns="http://www.w3.org/2000/svg" xmlns:svg="http://www.w3.org/2000/svg">
	
  
	<defs id="defs4416"/>
	
  
	<g id="layer1" transform="translate(-15.708262,-222.30318)">
		
    
		<path animation_id="0" d="m 178.30201,222.32113 c -1.52216,0.0928 -3.21144,0.55463 -4.96875,1.40625 l -26.375,12.78125 c -7.02925,3.40323 -12.71875,11.84575 -12.71875,18.875 l 0,26.375 c 0,7.02925 5.6895,9.99697 12.71875,6.59375 l 26.375,-12.78125 c 7.02925,-3.4 12.75,-11.87055 12.75,-18.90625 l 0,-26.375 c 0,-5.27193 -3.21477,-8.24724 -7.78125,-7.96875 z m -59.25,89.71875 c -1.52216,0.0929 -3.21144,0.55463 -4.96875,1.40625 l -26.406248,12.78125 c -7.02603,3.40323 -12.71875,11.84575 -12.71875,18.875 l 0,26.40625 c 0,7.02925 5.69272,9.96573 12.71875,6.5625 l 26.406248,-12.78125 c 7.02925,-3.4 12.71875,-11.8393 12.71875,-18.875 l 0,-26.40625 c 0,-5.26951 -3.18352,-8.24739 -7.75,-7.96875 z m 59.25,97.21875 c -1.52216,0.0931 -3.21144,0.55464 -4.96875,1.40625 l -26.375,12.78125 c -7.02603,3.40323 -12.71875,11.84575 -12.71875,18.875 l 0,26.40625 c 0,7.0292 5.69272,9.9657 12.71875,6.5625 l 26.375,-12.7812 c 7.02925,-3.4 12.71875,-11.8393 12.71875,-18.87505 l 0,-26.40625 c 0,-5.27194 -3.18352,-8.24815 -7.75,-7.96875 z" id="path668" stroke="black" style="fill:#542791;fill-opacity:1;fill-rule:nonzero;"/>
		
    
		
		
    
		
		
  
	</g>
	

</svg>