<?xml version="1.0" encoding="iso-8859-1"?><!-- Created with Inkscape (http://www.inkscape.org/) --><svg height="35.965" id="svg2985" version="1.1" width="93.963745" xml:space="preserve" xmlns="http://www.w3.org/2000/svg" xmlns:cc="http://creativecommons.org/ns#" xmlns:dc="http://purl.org/dc/elements/1.1/" xmlns:rdf="http://www.w3.org/1999/02/22-rdf-syntax-ns#" xmlns:svg="http://www.w3.org/2000/svg">
	<metadata id="metadata2991">
		<rdf:RDF>
			<cc:Work rdf:about="">
				<dc:format>image/svg+xml</dc:format>
				<dc:type rdf:resource="http://purl.org/dc/dcmitype/StillImage"/>
				<dc:title/>
			</cc:Work>
		</rdf:RDF>
	</metadata>
	<defs id="defs2989">
		<clipPath id="clipPath3001">
			
		</clipPath>
		<clipPath id="clipPath3007">
			
		</clipPath>
		<clipPath id="clipPath3017">
			
		</clipPath>
		<clipPath id="clipPath3023">
			
		</clipPath>
		<clipPath id="clipPath3029">
			
		</clipPath>
		<clipPath id="clipPath3055">
			
		</clipPath>
		<clipPath id="clipPath3139">
			
		</clipPath>
		<clipPath id="clipPath3289">
			
		</clipPath>
		<clipPath id="clipPath3355">
			
		</clipPath>
		<clipPath id="clipPath3975">
			
		</clipPath>
		<clipPath id="clipPath3981">
			
		</clipPath>
		<clipPath id="clipPath4003">
			
		</clipPath>
		<clipPath id="clipPath4009">
			
		</clipPath>
		<clipPath id="clipPath4015">
			
		</clipPath>
		<clipPath id="clipPath4047">
			
		</clipPath>
		<clipPath id="clipPath4053">
			
		</clipPath>
		<clipPath id="clipPath4059">
			
		</clipPath>
		<clipPath id="clipPath4139">
			
		</clipPath>
		<clipPath id="clipPath4145">
			
		</clipPath>
		<clipPath id="clipPath4151">
			
		</clipPath>
		<clipPath id="clipPath4185">
			
		</clipPath>
		<clipPath id="clipPath4191">
			
		</clipPath>
		<clipPath id="clipPath4197">
			
		</clipPath>
		<clipPath id="clipPath4259">
			
		</clipPath>
		<clipPath id="clipPath4265">
			
		</clipPath>
	</defs>
	<g id="g2993" transform="matrix(1.25,0,0,-1.25,-74.445427,546.11811)">
		
		
		
		
		
		
		
		
		
		
		<path animation_id="35" d="m 103.83734,428.31249 c 0,-2.544 -0.841,-3.958 -3.083,-3.958 -1.330998,0 -2.543998,0.408 -3.404998,1.156 l 0,3.631 c 0.704,-0.952 1.487,-1.428 2.348,-1.428 0.733998,0 1.291998,0.327 1.184998,1.238 -0.265,-0.245 -0.734,-0.435 -1.213998,-0.435 -1.439,0 -2.339,1.183 -2.339,3.033 0,1.346 0.519,2.203 0.871,2.489 0.548,0.435 0.93,0.544 2.319998,0.544 l 3.317,0.014 0,-6.284 z m -3.024,4.026 c -0.675,0 -0.987998,-0.313 -0.987998,-1.007 0,-0.544 0.253998,-0.897 0.645998,-0.897 0.166,0 0.303,0.054 0.411,0.176 l 0,1.728 -0.069,0" id="path3493" stroke="black" style="fill:#ed3a21;fill-opacity:1;fill-rule:nonzero;"/>
		
		
		
		
		
		
		
		
		
		
		
	</g>
</svg>