<?xml version="1.0" encoding="iso-8859-1"?><!-- Created with Inkscape (http://www.inkscape.org/) --><svg height="35.965" id="svg2985" version="1.1" width="93.963745" xml:space="preserve" xmlns="http://www.w3.org/2000/svg" xmlns:cc="http://creativecommons.org/ns#" xmlns:dc="http://purl.org/dc/elements/1.1/" xmlns:rdf="http://www.w3.org/1999/02/22-rdf-syntax-ns#" xmlns:svg="http://www.w3.org/2000/svg">
	<metadata id="metadata2991">
		<rdf:RDF>
			<cc:Work rdf:about="">
				<dc:format>image/svg+xml</dc:format>
				<dc:type rdf:resource="http://purl.org/dc/dcmitype/StillImage"/>
				<dc:title/>
			</cc:Work>
		</rdf:RDF>
	</metadata>
	<defs id="defs2989">
		<clipPath id="clipPath3001">
			
		</clipPath>
		<clipPath id="clipPath3007">
			
		</clipPath>
		<clipPath id="clipPath3017">
			
		</clipPath>
		<clipPath id="clipPath3023">
			
		</clipPath>
		<clipPath id="clipPath3029">
			
		</clipPath>
		<clipPath id="clipPath3055">
			
		</clipPath>
		<clipPath id="clipPath3139">
			
		</clipPath>
		<clipPath id="clipPath3289">
			
		</clipPath>
		<clipPath id="clipPath3355">
			
		</clipPath>
		<clipPath id="clipPath3975">
			
		</clipPath>
		<clipPath id="clipPath3981">
			
		</clipPath>
		<clipPath id="clipPath4003">
			
		</clipPath>
		<clipPath id="clipPath4009">
			
		</clipPath>
		<clipPath id="clipPath4015">
			
		</clipPath>
		<clipPath id="clipPath4047">
			
		</clipPath>
		<clipPath id="clipPath4053">
			
		</clipPath>
		<clipPath id="clipPath4059">
			
		</clipPath>
		<clipPath id="clipPath4139">
			
		</clipPath>
		<clipPath id="clipPath4145">
			
		</clipPath>
		<clipPath id="clipPath4151">
			
		</clipPath>
		<clipPath id="clipPath4185">
			
		</clipPath>
		<clipPath id="clipPath4191">
			
		</clipPath>
		<clipPath id="clipPath4197">
			
		</clipPath>
		<clipPath id="clipPath4259">
			
		</clipPath>
		<clipPath id="clipPath4265">
			
		</clipPath>
	</defs>
	<g id="g2993" transform="matrix(1.25,0,0,-1.25,-74.445427,546.11811)">
		
		
		
		
		
		
		
		
		
		
		
		
		
		
		
		
		
		
		<path animation_id="43" d="m 79.774342,423.39849 c -0.284,0 -0.477,-0.124 -0.739,-0.307 l 0,0.307 -0.227,0 -1.011,-0.17 0,-0.534 0.04,0 c 0.409,-0.052 0.397,-0.182 0.397,-0.612 l 0,-0.808 c 0,-0.45 0,-0.574 -0.454,-0.613 l 0,-0.534 1.812,0 0,0.534 -0.051,0.007 c -0.369,0.032 -0.358,0.182 -0.358,0.612 l 0,1.206 c 0,0.065 0.085,0.104 0.171,0.104 0.142,0 0.221,-0.202 0.477,-0.202 0.239,0 0.449,0.189 0.449,0.482 0,0.332 -0.228,0.528 -0.506,0.528" id="path3509" stroke="black" style="fill:#58b33f;fill-opacity:1;fill-rule:nonzero;"/>
		
		
		
	</g>
</svg>