<?xml version="1.0" encoding="iso-8859-1"?><!-- Created with Inkscape (http://www.inkscape.org/) --><svg height="35.965" id="svg2985" version="1.1" width="93.963745" xml:space="preserve" xmlns="http://www.w3.org/2000/svg" xmlns:cc="http://creativecommons.org/ns#" xmlns:dc="http://purl.org/dc/elements/1.1/" xmlns:rdf="http://www.w3.org/1999/02/22-rdf-syntax-ns#" xmlns:svg="http://www.w3.org/2000/svg">
	<metadata id="metadata2991">
		<rdf:RDF>
			<cc:Work rdf:about="">
				<dc:format>image/svg+xml</dc:format>
				<dc:type rdf:resource="http://purl.org/dc/dcmitype/StillImage"/>
				<dc:title/>
			</cc:Work>
		</rdf:RDF>
	</metadata>
	<defs id="defs2989">
		<clipPath id="clipPath3001">
			
		</clipPath>
		<clipPath id="clipPath3007">
			
		</clipPath>
		<clipPath id="clipPath3017">
			
		</clipPath>
		<clipPath id="clipPath3023">
			
		</clipPath>
		<clipPath id="clipPath3029">
			
		</clipPath>
		<clipPath id="clipPath3055">
			
		</clipPath>
		<clipPath id="clipPath3139">
			
		</clipPath>
		<clipPath id="clipPath3289">
			
		</clipPath>
		<clipPath id="clipPath3355">
			
		</clipPath>
		<clipPath id="clipPath3975">
			
		</clipPath>
		<clipPath id="clipPath3981">
			
		</clipPath>
		<clipPath id="clipPath4003">
			
		</clipPath>
		<clipPath id="clipPath4009">
			
		</clipPath>
		<clipPath id="clipPath4015">
			
		</clipPath>
		<clipPath id="clipPath4047">
			
		</clipPath>
		<clipPath id="clipPath4053">
			
		</clipPath>
		<clipPath id="clipPath4059">
			
		</clipPath>
		<clipPath id="clipPath4139">
			
		</clipPath>
		<clipPath id="clipPath4145">
			
		</clipPath>
		<clipPath id="clipPath4151">
			
		</clipPath>
		<clipPath id="clipPath4185">
			
		</clipPath>
		<clipPath id="clipPath4191">
			
		</clipPath>
		<clipPath id="clipPath4197">
			
		</clipPath>
		<clipPath id="clipPath4259">
			
		</clipPath>
		<clipPath id="clipPath4265">
			
		</clipPath>
	</defs>
	<g id="g2993" transform="matrix(1.25,0,0,-1.25,-74.445427,546.11811)">
		
		
		
		
		
		
		
		
		
		
		
		
		
		
		
		
		
		
		
		
		<path animation_id="45" d="m 73.475342,424.46649 c -0.302,0.098 -0.79,0.098 -1.108,0.098 l -1.756,0 0,-0.534 c 0.477,-0.046 0.483,-0.183 0.483,-0.639 l 0,-2.091 c 0,-0.463 -0.011,-0.6 -0.483,-0.639 l 0,-0.534 1.892,0 c 0.591,0 1.153,0.019 1.625,0.495 0.437,0.443 0.619,1.056 0.619,1.72 0,0.482 -0.113,0.964 -0.358,1.355 -0.21,0.346 -0.556,0.652 -0.914,0.769 z m -0.989,-3.74 c -0.097,0 -0.244,0.007 -0.324,0.065 -0.074,0.053 -0.062,0.196 -0.062,0.287 l 0,2.47 c 0,0.39 0.079,0.417 0.426,0.417 0.329,0 0.63,-0.105 0.858,-0.45 0.21,-0.319 0.267,-0.756 0.267,-1.153 0,-0.899 -0.341,-1.636 -1.165,-1.636" id="path3513" stroke="black" style="fill:#58b33f;fill-opacity:1;fill-rule:nonzero;"/>
		
	</g>
</svg>