<?xml version="1.0" encoding="iso-8859-1"?><!-- Created with Inkscape (http://www.inkscape.org/) --><svg height="35.965" id="svg2985" version="1.1" width="93.963745" xml:space="preserve" xmlns="http://www.w3.org/2000/svg" xmlns:cc="http://creativecommons.org/ns#" xmlns:dc="http://purl.org/dc/elements/1.1/" xmlns:rdf="http://www.w3.org/1999/02/22-rdf-syntax-ns#" xmlns:svg="http://www.w3.org/2000/svg">
	<metadata id="metadata2991">
		<rdf:RDF>
			<cc:Work rdf:about="">
				<dc:format>image/svg+xml</dc:format>
				<dc:type rdf:resource="http://purl.org/dc/dcmitype/StillImage"/>
				<dc:title/>
			</cc:Work>
		</rdf:RDF>
	</metadata>
	<defs id="defs2989">
		<clipPath id="clipPath3001">
			
		</clipPath>
		<clipPath id="clipPath3007">
			
		</clipPath>
		<clipPath id="clipPath3017">
			
		</clipPath>
		<clipPath id="clipPath3023">
			
		</clipPath>
		<clipPath id="clipPath3029">
			
		</clipPath>
		<clipPath id="clipPath3055">
			
		</clipPath>
		<clipPath id="clipPath3139">
			
		</clipPath>
		<clipPath id="clipPath3289">
			
		</clipPath>
		<clipPath id="clipPath3355">
			
		</clipPath>
		<clipPath id="clipPath3975">
			
		</clipPath>
		<clipPath id="clipPath3981">
			
		</clipPath>
		<clipPath id="clipPath4003">
			
		</clipPath>
		<clipPath id="clipPath4009">
			
		</clipPath>
		<clipPath id="clipPath4015">
			
		</clipPath>
		<clipPath id="clipPath4047">
			
		</clipPath>
		<clipPath id="clipPath4053">
			
		</clipPath>
		<clipPath id="clipPath4059">
			
		</clipPath>
		<clipPath id="clipPath4139">
			
		</clipPath>
		<clipPath id="clipPath4145">
			
		</clipPath>
		<clipPath id="clipPath4151">
			
		</clipPath>
		<clipPath id="clipPath4185">
			
		</clipPath>
		<clipPath id="clipPath4191">
			
		</clipPath>
		<clipPath id="clipPath4197">
			
		</clipPath>
		<clipPath id="clipPath4259">
			
		</clipPath>
		<clipPath id="clipPath4265">
			
		</clipPath>
	</defs>
	<g id="g2993" transform="matrix(1.25,0,0,-1.25,-74.445427,546.11811)">
		
		
		
		
		
		
		
		
		
		
		
		
		
		
		
		<path animation_id="40" d="m 91.608342,422.23149 -0.285,0.066 c -0.153,0.032 -0.511,0.071 -0.511,0.319 0,0.195 0.267,0.254 0.398,0.254 0.312,0 0.562,-0.228 0.733,-0.508 l 0.46,0.078 -0.108,0.958 -0.352,0 -0.074,-0.144 c -0.239,0.144 -0.455,0.228 -0.727,0.228 -0.296,0 -0.591,-0.097 -0.824,-0.325 -0.205,-0.209 -0.335,-0.502 -0.335,-0.815 0,-0.339 0.119,-0.625 0.375,-0.795 0.221,-0.15 0.471,-0.182 0.715,-0.221 0.16,-0.026 0.375,-0.052 0.523,-0.111 0.085,-0.039 0.165,-0.104 0.165,-0.222 0,-0.234 -0.347,-0.312 -0.5,-0.312 -0.409,0 -0.631,0.247 -0.864,0.593 l -0.46,-0.079 0.227,-1.068 0.381,0 0.063,0.13 c 0.233,-0.13 0.471,-0.182 0.727,-0.182 0.619,0 1.273,0.391 1.273,1.179 0,0.274 -0.103,0.534 -0.29,0.704 -0.199,0.182 -0.46,0.221 -0.71,0.273" id="path3503" stroke="black" style="fill:#58b33f;fill-opacity:1;fill-rule:nonzero;"/>
		
		
		
		
		
		
	</g>
</svg>