<?xml version="1.0" encoding="iso-8859-1"?><!-- Created with Inkscape (http://www.inkscape.org/) --><svg height="35.965" id="svg2985" version="1.1" width="93.963745" xml:space="preserve" xmlns="http://www.w3.org/2000/svg" xmlns:cc="http://creativecommons.org/ns#" xmlns:dc="http://purl.org/dc/elements/1.1/" xmlns:rdf="http://www.w3.org/1999/02/22-rdf-syntax-ns#" xmlns:svg="http://www.w3.org/2000/svg">
	<metadata id="metadata2991">
		<rdf:RDF>
			<cc:Work rdf:about="">
				<dc:format>image/svg+xml</dc:format>
				<dc:type rdf:resource="http://purl.org/dc/dcmitype/StillImage"/>
				<dc:title/>
			</cc:Work>
		</rdf:RDF>
	</metadata>
	<defs id="defs2989">
		<clipPath id="clipPath3001">
			
		</clipPath>
		<clipPath id="clipPath3007">
			
		</clipPath>
		<clipPath id="clipPath3017">
			
		</clipPath>
		<clipPath id="clipPath3023">
			
		</clipPath>
		<clipPath id="clipPath3029">
			
		</clipPath>
		<clipPath id="clipPath3055">
			
		</clipPath>
		<clipPath id="clipPath3139">
			
		</clipPath>
		<clipPath id="clipPath3289">
			
		</clipPath>
		<clipPath id="clipPath3355">
			
		</clipPath>
		<clipPath id="clipPath3975">
			
		</clipPath>
		<clipPath id="clipPath3981">
			
		</clipPath>
		<clipPath id="clipPath4003">
			
		</clipPath>
		<clipPath id="clipPath4009">
			
		</clipPath>
		<clipPath id="clipPath4015">
			
		</clipPath>
		<clipPath id="clipPath4047">
			
		</clipPath>
		<clipPath id="clipPath4053">
			
		</clipPath>
		<clipPath id="clipPath4059">
			
		</clipPath>
		<clipPath id="clipPath4139">
			
		</clipPath>
		<clipPath id="clipPath4145">
			
		</clipPath>
		<clipPath id="clipPath4151">
			
		</clipPath>
		<clipPath id="clipPath4185">
			
		</clipPath>
		<clipPath id="clipPath4191">
			
		</clipPath>
		<clipPath id="clipPath4197">
			
		</clipPath>
		<clipPath id="clipPath4259">
			
		</clipPath>
		<clipPath id="clipPath4265">
			
		</clipPath>
	</defs>
	<g id="g2993" transform="matrix(1.25,0,0,-1.25,-74.445427,546.11811)">
		
		
		
		
		<path animation_id="29" d="m 85.293342,426.59849 -2.829,0 0,1.401 -0.019,0 c -0.607,-1.061 -1.165,-1.469 -1.968,-1.469 -1.076,0 -2.006,0.87 -2.006,2.829 l 0,5.237 2.789,0 0,-4.312 c 0,-0.667 0.128,-1.088 0.539,-1.088 0.234,0 0.43,0.163 0.538,0.421 l 0,4.979 2.956,0 0,-7.998 z m -2.085,10.296 c 0.372,0 0.665,-0.408 0.665,-0.925 0,-0.516 -0.293,-0.924 -0.665,-0.924 -0.372,0 -0.666,0.408 -0.666,0.924 0,0.517 0.294,0.925 0.666,0.925 z m -2.466,0 c 0.371,0 0.665,-0.408 0.665,-0.925 0,-0.516 -0.294,-0.924 -0.665,-0.924 -0.372,0 -0.666,0.408 -0.666,0.924 0,0.517 0.294,0.925 0.666,0.925" id="path3481" stroke="black" style="fill:#ed3a21;fill-opacity:1;fill-rule:nonzero;"/>
		
		
		
		
		
		
		
		
		
		
		
		
		
		
		
		
		
	</g>
</svg>