<?xml version="1.0" encoding="iso-8859-1"?><!-- Created with Inkscape (http://www.inkscape.org/) --><svg height="35.965" id="svg2985" version="1.1" width="93.963745" xml:space="preserve" xmlns="http://www.w3.org/2000/svg" xmlns:cc="http://creativecommons.org/ns#" xmlns:dc="http://purl.org/dc/elements/1.1/" xmlns:rdf="http://www.w3.org/1999/02/22-rdf-syntax-ns#" xmlns:svg="http://www.w3.org/2000/svg">
	<metadata id="metadata2991">
		<rdf:RDF>
			<cc:Work rdf:about="">
				<dc:format>image/svg+xml</dc:format>
				<dc:type rdf:resource="http://purl.org/dc/dcmitype/StillImage"/>
				<dc:title/>
			</cc:Work>
		</rdf:RDF>
	</metadata>
	<defs id="defs2989">
		<clipPath id="clipPath3001">
			
		</clipPath>
		<clipPath id="clipPath3007">
			
		</clipPath>
		<clipPath id="clipPath3017">
			
		</clipPath>
		<clipPath id="clipPath3023">
			
		</clipPath>
		<clipPath id="clipPath3029">
			
		</clipPath>
		<clipPath id="clipPath3055">
			
		</clipPath>
		<clipPath id="clipPath3139">
			
		</clipPath>
		<clipPath id="clipPath3289">
			
		</clipPath>
		<clipPath id="clipPath3355">
			
		</clipPath>
		<clipPath id="clipPath3975">
			
		</clipPath>
		<clipPath id="clipPath3981">
			
		</clipPath>
		<clipPath id="clipPath4003">
			
		</clipPath>
		<clipPath id="clipPath4009">
			
		</clipPath>
		<clipPath id="clipPath4015">
			
		</clipPath>
		<clipPath id="clipPath4047">
			
		</clipPath>
		<clipPath id="clipPath4053">
			
		</clipPath>
		<clipPath id="clipPath4059">
			
		</clipPath>
		<clipPath id="clipPath4139">
			
		</clipPath>
		<clipPath id="clipPath4145">
			
		</clipPath>
		<clipPath id="clipPath4151">
			
		</clipPath>
		<clipPath id="clipPath4185">
			
		</clipPath>
		<clipPath id="clipPath4191">
			
		</clipPath>
		<clipPath id="clipPath4197">
			
		</clipPath>
		<clipPath id="clipPath4259">
			
		</clipPath>
		<clipPath id="clipPath4265">
			
		</clipPath>
	</defs>
	<g id="g2993" transform="matrix(1.25,0,0,-1.25,-74.445427,546.11811)">
		
		
		
		
		
		
		
		
		
		
		
		
		
		<path animation_id="38" d="m 98.736342,420.88349 c -0.028,0.11 -0.028,0.28 -0.028,0.391 l 0,1.075 c 0,0.312 -0.006,0.56 -0.205,0.801 -0.181,0.215 -0.431,0.332 -0.687,0.332 -0.341,0 -0.642,-0.143 -0.915,-0.319 l 0,1.688 -0.307,0 c -0.346,-0.176 -0.715,-0.267 -1.09,-0.287 l 0,-0.534 c 0.136,0 0.295,-0.02 0.38,-0.092 0.08,-0.071 0.068,-0.332 0.068,-0.443 l 0,-2.221 c 0,-0.45 0.017,-0.548 -0.42,-0.613 l 0,-0.534 1.687,0 0,0.534 -0.091,0.026 c -0.09,0.026 -0.193,0.046 -0.204,0.196 -0.028,0.11 -0.023,0.28 -0.023,0.391 l 0,1.225 c 0.148,0.143 0.432,0.28 0.659,0.26 0.228,0 0.199,-0.3 0.199,-0.489 l 0,-0.996 c 0,-0.118 0.006,-0.326 -0.04,-0.437 -0.045,-0.111 -0.142,-0.13 -0.221,-0.163 l -0.057,-0.013 0,-0.534 1.653,0 0,0.534 -0.096,0.026 c -0.125,0.026 -0.222,0.046 -0.262,0.196" id="path3499" stroke="black" style="fill:#58b33f;fill-opacity:1;fill-rule:nonzero;"/>
		
		
		
		
		
		
		
		
	</g>
</svg>