<?xml version="1.0" encoding="iso-8859-1"?><!DOCTYPE svg  PUBLIC '-//W3C//DTD SVG 1.1//EN'  'http://www.w3.org/Graphics/SVG/1.1/DTD/svg11.dtd'><!-- Creator: CorelDRAW --><svg height="919px" style="shape-rendering:geometricPrecision; text-rendering:geometricPrecision; image-rendering:optimizeQuality; fill-rule:evenodd; clip-rule:evenodd" viewBox="0 0 1960.82 918.185" width="1963px" xml:space="preserve" xmlns="http://www.w3.org/2000/svg" xmlns:xlink="http://www.w3.org/1999/xlink">
	
 
	<defs>
		
  
		<style type="text/css">
			
   
<![CDATA[
    .fil1 {fill:#231F20}
    .fil0 {fill:#ED1C24;fill-rule:nonzero}
   ]]>			
  
		</style>
		
 
	</defs>
	
 
	<g id="Ebene_x0020_1">
		
  
		<metadata id="CorelCorpID_0Corel-Layer"/>
		
  
		
		
  
		
		
  
		
		
  
		
		
  
		
		
  
		
		
  
		<path animation_id="6" class="fil1" d="M1183.38 810.031c0,36.8845 -12.2685,64.2287 -36.8857,81.8874 -24.6172,17.5171 -58.7972,26.2657 -102.64,26.2657 -25.0444,0 -46.1416,-1.44432 -63.3744,-4.37427 -17.2316,-2.95001 -31.4329,-6.61155 -42.6429,-11.0472l0 -59.9359c8.7686,5.37137 22.4814,10.3356 41.28,14.9943 18.7373,4.37427 37.1701,6.67291 55.3386,6.67291 25.4715,0 42.9887,-3.43853 52.5302,-10.1929 9.68428,-6.73427 14.5058,-17.9443 14.5058,-33.6501 0,-10.1315 -3.45859,-19.1042 -10.3356,-26.9985 -6.89593,-7.81162 -26.6303,-18.1473 -59.0815,-31.0659 -25.7559,-10.4772 -45.7758,-23.7629 -59.9146,-39.9171 -14.14,-16.2758 -21.1799,-38.3902 -21.1799,-66.3846 0,-26.7743 11.3327,-49.3772 34.0985,-67.8301 22.8873,-18.4328 54.463,-27.6286 94.8073,-27.6286 19.45,0 37.0273,1.5871 52.5302,4.88285 15.6457,3.01137 26.6315,5.81859 32.9386,8.26002l0 53.0387c-13.2042,-3.23439 -26.327,-6.10297 -39.3873,-8.5444 -13.0614,-2.44142 -26.9985,-3.66273 -41.7072,-3.66273 -20.9557,0 -36.0314,3.23557 -45.2071,9.6241 -9.27718,6.53013 -13.8544,14.5659 -13.8544,24.2502 0,12.2685 3.43853,21.607 10.3958,27.9342 6.89711,6.22569 27.2014,15.5631 60.8716,27.8315 31.3515,11.413 53.6099,25.8385 66.8943,43.3545 13.347,17.3755 20.0199,38.1058 20.0199,62.2357z" stroke="black"/>
		
  
		
		
  
		
		
 
	</g>
	

</svg>