<?xml version="1.0" encoding="iso-8859-1"?><svg height="131" id="svg2" inkscape:output_extension="org.inkscape.output.svg.inkscape" inkscape:version="0.46" sodipodi:docname="tata steel.svg" sodipodi:version="0.32" version="1.0" viewBox="0 0 1788 233" width="1000" xmlns="http://www.w3.org/2000/svg" xmlns:cc="http://creativecommons.org/ns#" xmlns:dc="http://purl.org/dc/elements/1.1/" xmlns:inkscape="http://www.inkscape.org/namespaces/inkscape" xmlns:rdf="http://www.w3.org/1999/02/22-rdf-syntax-ns#" xmlns:sodipodi="http://sodipodi.sourceforge.net/DTD/sodipodi-0.dtd" xmlns:svg="http://www.w3.org/2000/svg">
	
  
	<metadata id="metadata27">
		
    
		<rdf:RDF>
			
      
			<cc:Work rdf:about="">
				
        
				<dc:format>image/svg+xml</dc:format>
				
        
				<dc:type rdf:resource="http://purl.org/dc/dcmitype/StillImage"/>
				
      
			</cc:Work>
			
    
		</rdf:RDF>
		
  
	</metadata>
	
  
	<defs id="defs25">
		
    
		<inkscape:perspective id="perspective29" inkscape:persp3d-origin="1117.5 : 97.083333 : 1" inkscape:vp_x="0 : 145.625 : 1" inkscape:vp_y="0 : 1000 : 0" inkscape:vp_z="2235 : 145.625 : 1" sodipodi:type="inkscape:persp3d"/>
		
  
	</defs>
	
  
	<sodipodi:namedview bordercolor="#666666" borderopacity="1.0" gridtolerance="10.0" guidetolerance="10.0" id="base" inkscape:current-layer="svg2" inkscape:cx="1117.5" inkscape:cy="145.625" inkscape:pageopacity="0.0" inkscape:pageshadow="2" inkscape:window-height="669" inkscape:window-width="640" inkscape:window-x="138" inkscape:window-y="95" inkscape:zoom="0.24340045" objecttolerance="10.0" pagecolor="#ffffff" showgrid="false"/>
	
  
	<g id="#ffffffff"/>
	
  
	<g id="#3c78bbff">
		
    
		<path animation_id="0" d="M 1003.77,18.76 C 1017.47,9.97 1033.9,6.46 1050,5.99 C 1068.61,5.77 1087.69,8.32 1104.55,16.6 C 1101.43,27.25 1098.26,37.87 1095.09,48.5 C 1081.52,41.54 1066.23,38.13 1051.01,38.21 C 1041.95,38.44 1032.44,40.37 1025.23,46.17 C 1018.57,51.48 1015.01,60.57 1016.88,68.96 C 1018.01,76.15 1023.21,81.91 1029.1,85.8 C 1042.82,94.96 1059.16,98.75 1073.71,106.27 C 1084.79,111.8 1095.38,119.04 1102.8,129.12 C 1112.01,141.53 1114.67,157.87 1112.42,172.93 C 1110.52,186.75 1103.49,199.83 1092.84,208.87 C 1082.78,217.61 1070.09,222.86 1057.12,225.49 C 1042.02,228.54 1026.39,228.75 1011.18,226.4 C 997.99,224.43 984.92,220.84 973.11,214.54 C 975.61,203.46 978.9,192.55 981.76,181.55 C 997.63,190.5 1015.85,195.15 1034.04,195.37 C 1044.81,195.19 1056.46,193.19 1064.67,185.64 C 1071.26,179.8 1073.95,170.49 1072.72,161.91 C 1071.93,154.47 1067.29,147.99 1061.42,143.6 C 1049.28,134.3 1034.07,130.9 1020.39,124.61 C 1006.09,118.03 992.09,108.96 983.78,95.21 C 976.63,83.64 975.14,69.33 977.57,56.14 C 980.47,40.67 990.51,27.04 1003.77,18.76 z" id="path6" stroke="black" style="opacity:1;fill:#3c78bb"/>
		
    
		
		
    
		
		
    
		
		
    
		
		
    
		
		
    
		
		
    
		
		
    
		
		
  
	</g>
	

</svg>