<?xml version="1.0" encoding="iso-8859-1"?><svg height="131" id="svg2" inkscape:output_extension="org.inkscape.output.svg.inkscape" inkscape:version="0.46" sodipodi:docname="tata steel.svg" sodipodi:version="0.32" version="1.0" viewBox="0 0 1788 233" width="1000" xmlns="http://www.w3.org/2000/svg" xmlns:cc="http://creativecommons.org/ns#" xmlns:dc="http://purl.org/dc/elements/1.1/" xmlns:inkscape="http://www.inkscape.org/namespaces/inkscape" xmlns:rdf="http://www.w3.org/1999/02/22-rdf-syntax-ns#" xmlns:sodipodi="http://sodipodi.sourceforge.net/DTD/sodipodi-0.dtd" xmlns:svg="http://www.w3.org/2000/svg">
	
  
	<metadata id="metadata27">
		
    
		<rdf:RDF>
			
      
			<cc:Work rdf:about="">
				
        
				<dc:format>image/svg+xml</dc:format>
				
        
				<dc:type rdf:resource="http://purl.org/dc/dcmitype/StillImage"/>
				
      
			</cc:Work>
			
    
		</rdf:RDF>
		
  
	</metadata>
	
  
	<defs id="defs25">
		
    
		<inkscape:perspective id="perspective29" inkscape:persp3d-origin="1117.5 : 97.083333 : 1" inkscape:vp_x="0 : 145.625 : 1" inkscape:vp_y="0 : 1000 : 0" inkscape:vp_z="2235 : 145.625 : 1" sodipodi:type="inkscape:persp3d"/>
		
  
	</defs>
	
  
	<sodipodi:namedview bordercolor="#666666" borderopacity="1.0" gridtolerance="10.0" guidetolerance="10.0" id="base" inkscape:current-layer="svg2" inkscape:cx="1117.5" inkscape:cy="145.625" inkscape:pageopacity="0.0" inkscape:pageshadow="2" inkscape:window-height="669" inkscape:window-width="640" inkscape:window-x="138" inkscape:window-y="95" inkscape:zoom="0.24340045" objecttolerance="10.0" pagecolor="#ffffff" showgrid="false"/>
	
  
	<g id="#ffffffff"/>
	
  
	<g id="#3c78bbff">
		
    
		
		
    
		
		
    
		
		
    
		
		
    
		
		
    
		
		
    
		<path animation_id="6" d="M 1304.94,9.27 C 1346.78,9.47 1388.62,9.21 1430.46,9.4 C 1430.35,20.15 1430.4,30.89 1430.43,41.64 C 1401.79,41.65 1373.15,41.72 1344.52,41.6 C 1344.24,60.05 1344.51,78.5 1344.38,96.95 C 1371.49,97.13 1398.6,96.85 1425.72,97.09 C 1425.46,107.82 1425.93,118.57 1425.48,129.3 C 1398.46,129.05 1371.43,129.25 1344.41,129.2 C 1344.37,150.11 1344.45,171.03 1344.37,191.94 C 1374.64,192.08 1404.92,191.95 1435.19,192.01 C 1435.26,202.83 1435.05,213.66 1435.3,224.49 C 1391.83,224.91 1348.34,224.51 1304.86,224.69 C 1304.74,167.46 1304.84,110.23 1304.81,53 C 1304.89,38.42 1304.63,23.84 1304.94,9.27 z" id="path18" stroke="black" style="opacity:1;fill:#3c78bb"/>
		
    
		
		
    
		
		
  
	</g>
	

</svg>