<?xml version="1.0" encoding="iso-8859-1"?><svg height="131" id="svg2" inkscape:output_extension="org.inkscape.output.svg.inkscape" inkscape:version="0.46" sodipodi:docname="tata steel.svg" sodipodi:version="0.32" version="1.0" viewBox="0 0 1788 233" width="1000" xmlns="http://www.w3.org/2000/svg" xmlns:cc="http://creativecommons.org/ns#" xmlns:dc="http://purl.org/dc/elements/1.1/" xmlns:inkscape="http://www.inkscape.org/namespaces/inkscape" xmlns:rdf="http://www.w3.org/1999/02/22-rdf-syntax-ns#" xmlns:sodipodi="http://sodipodi.sourceforge.net/DTD/sodipodi-0.dtd" xmlns:svg="http://www.w3.org/2000/svg">
	
  
	<metadata id="metadata27">
		
    
		<rdf:RDF>
			
      
			<cc:Work rdf:about="">
				
        
				<dc:format>image/svg+xml</dc:format>
				
        
				<dc:type rdf:resource="http://purl.org/dc/dcmitype/StillImage"/>
				
      
			</cc:Work>
			
    
		</rdf:RDF>
		
  
	</metadata>
	
  
	<defs id="defs25">
		
    
		<inkscape:perspective id="perspective29" inkscape:persp3d-origin="1117.5 : 97.083333 : 1" inkscape:vp_x="0 : 145.625 : 1" inkscape:vp_y="0 : 1000 : 0" inkscape:vp_z="2235 : 145.625 : 1" sodipodi:type="inkscape:persp3d"/>
		
  
	</defs>
	
  
	<sodipodi:namedview bordercolor="#666666" borderopacity="1.0" gridtolerance="10.0" guidetolerance="10.0" id="base" inkscape:current-layer="svg2" inkscape:cx="1117.5" inkscape:cy="145.625" inkscape:pageopacity="0.0" inkscape:pageshadow="2" inkscape:window-height="669" inkscape:window-width="640" inkscape:window-x="138" inkscape:window-y="95" inkscape:zoom="0.24340045" objecttolerance="10.0" pagecolor="#ffffff" showgrid="false"/>
	
  
	<g id="#ffffffff"/>
	
  
	<g id="#3c78bbff">
		
    
		
		
    
		
		
    
		
		
    
		
		
    
		
		
    
		
		
    
		
		
    
		<path animation_id="7" d="M 1475.7,9.51 C 1517.6,9.13 1559.53,9.41 1601.44,9.37 C 1601.37,20.13 1601.39,30.88 1601.43,41.64 C 1572.79,41.65 1544.14,41.71 1515.51,41.61 C 1515.25,60.05 1515.51,78.5 1515.37,96.94 C 1542.47,97.1 1569.57,96.92 1596.68,97.03 C 1596.68,107.71 1596.58,118.38 1596.73,129.06 C 1569.63,129.37 1542.52,129.1 1515.41,129.2 C 1515.38,150.12 1515.43,171.04 1515.38,191.96 C 1545.65,192.06 1575.92,191.96 1606.19,192.01 C 1606.24,202.85 1606.09,213.69 1606.27,224.53 C 1562.83,224.87 1519.37,224.49 1475.93,224.72 C 1475.58,152.99 1476.03,81.24 1475.7,9.51 z" id="path20" stroke="black" style="opacity:1;fill:#3c78bb"/>
		
    
		
		
  
	</g>
	

</svg>