<?xml version="1.0" encoding="iso-8859-1"?><!-- Created with Inkscape (http://www.inkscape.org/) --><svg height="197.77885" id="svg2817" version="1.0" width="1129.2074" xmlns="http://www.w3.org/2000/svg" xmlns:svg="http://www.w3.org/2000/svg">
	
  
	<defs id="defs2819">
		
    
		<clipPath id="clipPath49">
			
      
			
			
    
		</clipPath>
		
  
	</defs>
	
  
	<g id="layer1" transform="translate(651.74659,-360.61562)">
		
    
		
		
    
		<g clip-path="url(#clipPath49)" id="g47" transform="matrix(6.0629292,0,0,-6.0629292,-892.23271,4811.0801)">
			
      
			<g id="g53" transform="translate(43.306702,732.58591)">
				
        
				
				
      
			</g>
			
      
			<g id="g57" transform="translate(43.306702,732.58591)">
				
        
				<path animation_id="3" d="M 0,0 C -1.033,0 -1.877,-0.843 -1.877,-1.882 L -1.877,-28.075 C -1.877,-29.113 -1.033,-29.956 0,-29.956 L 31.045,-29.956 C 32.08,-29.956 32.918,-29.113 32.918,-28.075 L 32.918,-1.882 C 32.918,-0.843 32.08,0 31.045,0 L 0,0 z M -0.474,-28.075 L -0.474,-1.882 C -0.474,-1.62 -0.258,-1.406 0,-1.406 L 31.045,-1.406 C 31.301,-1.406 31.516,-1.62 31.516,-1.882 L 31.516,-28.075 C 31.516,-28.337 31.301,-28.558 31.045,-28.558 L 0,-28.558 C -0.258,-28.558 -0.474,-28.337 -0.474,-28.075" id="path59" stroke="black" style="fill:#000000;fill-opacity:1;fill-rule:nonzero;"/>
				
      
			</g>
			
      
			<g id="g61" transform="translate(71.903595,728.5504)">
				
        
				
				
      
			</g>
			
      
			<g id="g65" transform="translate(94.353607,706.5018)">
				
        
				
				
      
			</g>
			
      
			<g id="g69" transform="translate(112.1342,706.5018)">
				
        
				
				
      
			</g>
			
      
			<g id="g73" transform="translate(165.46471,706.5018)">
				
        
				
				
      
			</g>
			
      
			<g id="g77" transform="translate(216.59419,706.45889)">
				
        
				
				
      
			</g>
			
      
			<g id="g81" transform="translate(143.4097,724.0753)">
				
        
				
				
      
			</g>
			
      
			<g id="g85" transform="translate(218.9269,707.71271)">
				
        
				
				
      
			</g>
			
    
		</g>
		
  
	</g>
	

</svg>