<?xml version="1.0" encoding="iso-8859-1"?><!-- Created with Inkscape (http://www.inkscape.org/) --><svg height="197.77885" id="svg2817" version="1.0" width="1129.2074" xmlns="http://www.w3.org/2000/svg" xmlns:svg="http://www.w3.org/2000/svg">
	
  
	<defs id="defs2819">
		
    
		<clipPath id="clipPath49">
			
      
			
			
    
		</clipPath>
		
  
	</defs>
	
  
	<g id="layer1" transform="translate(651.74659,-360.61562)">
		
    
		
		
    
		<g clip-path="url(#clipPath49)" id="g47" transform="matrix(6.0629292,0,0,-6.0629292,-892.23271,4811.0801)">
			
      
			<g id="g53" transform="translate(43.306702,732.58591)">
				
        
				
				
      
			</g>
			
      
			<g id="g57" transform="translate(43.306702,732.58591)">
				
        
				
				
      
			</g>
			
      
			<g id="g61" transform="translate(71.903595,728.5504)">
				
        
				<path animation_id="4" d="M 0,0 L -5.766,-5.765 L -5.766,-5.781 C -5.948,-5.995 -6.246,-6.106 -6.515,-6.106 C -6.785,-6.106 -7.027,-5.974 -7.229,-5.747 L -13.072,0.085 L -18.902,-5.752 C -19.106,-5.984 -19.357,-6.106 -19.626,-6.106 C -19.897,-6.106 -20.192,-5.974 -20.375,-5.765 L -26.141,0 L -26.184,0.041 L -26.184,-22.085 L -13.89,-22.085 L -12.248,-22.085 L 0.039,-22.085 L 0.039,0.041 L 0,0 z M -15.244,-13.882 L -24.004,-13.903 C -24.594,-13.903 -25.074,-13.422 -25.074,-12.827 C -25.074,-12.609 -25.01,-12.405 -24.892,-12.234 L -20.304,-7.625 C -20.122,-7.468 -19.879,-7.371 -19.614,-7.371 C -19.276,-7.371 -19.044,-7.456 -18.848,-7.695 L -14.375,-12.191 C -14.249,-12.364 -14.171,-12.582 -14.171,-12.813 C -14.171,-13.403 -14.657,-13.882 -15.244,-13.882 M -2.108,-13.903 L -10.862,-13.882 C -11.456,-13.882 -11.938,-13.403 -11.938,-12.813 C -11.938,-12.582 -11.862,-12.364 -11.737,-12.191 L -7.264,-7.695 C -7.066,-7.456 -6.831,-7.371 -6.498,-7.371 C -6.231,-7.371 -5.988,-7.468 -5.804,-7.625 L -1.22,-12.234 C -1.105,-12.405 -1.043,-12.609 -1.043,-12.827 C -1.043,-13.422 -1.515,-13.903 -2.108,-13.903" id="path63" stroke="black" style="fill:#d31145;fill-opacity:1;fill-rule:nonzero;"/>
				
      
			</g>
			
      
			<g id="g65" transform="translate(94.353607,706.5018)">
				
        
				
				
      
			</g>
			
      
			<g id="g69" transform="translate(112.1342,706.5018)">
				
        
				
				
      
			</g>
			
      
			<g id="g73" transform="translate(165.46471,706.5018)">
				
        
				
				
      
			</g>
			
      
			<g id="g77" transform="translate(216.59419,706.45889)">
				
        
				
				
      
			</g>
			
      
			<g id="g81" transform="translate(143.4097,724.0753)">
				
        
				
				
      
			</g>
			
      
			<g id="g85" transform="translate(218.9269,707.71271)">
				
        
				
				
      
			</g>
			
    
		</g>
		
  
	</g>
	

</svg>