<?xml version="1.0" encoding="iso-8859-1"?><!-- Created with Inkscape (http://www.inkscape.org/) --><svg height="217.99989" id="svg63728" version="1.0" width="709.2168" xmlns="http://www.w3.org/2000/svg" xmlns:svg="http://www.w3.org/2000/svg">
	
  
	<defs id="defs63730">
		
    
		<clipPath id="clp10">
			

			
			


		</clipPath>
		
    
		<clipPath id="clp9">
			

			
			


		</clipPath>
		
    
		<clipPath id="clp11">
			

			
			


		</clipPath>
		
    
		<clipPath id="clp3">
			

			
			


		</clipPath>
		
    
		<clipPath id="clp2">
			

			
			


		</clipPath>
		
    
		<clipPath id="clp4">
			

			
			


		</clipPath>
		
    
		<clipPath id="clp5">
			

			
			


		</clipPath>
		
    
		<clipPath id="clp6">
			

			
			


		</clipPath>
		
    
		<clipPath id="clp7">
			

			
			


		</clipPath>
		
    
		<clipPath id="clp8">
			

			
			


		</clipPath>
		
    
		<clipPath id="clp13">
			

			
			


		</clipPath>
		
    
		<clipPath id="clp12">
			

			
			


		</clipPath>
		
  
	</defs>
	
  
	<g id="layer1" transform="translate(-7405.307,2699.588)">
		
    
		<g id="g86304">
			
      
			
			
      
			
			
      
			
			
      
			
			
      
			
			
      
			
			
      
			<path animation_id="18" d="M 7681.236,-2564.0428 L 7709.5819,-2564.0428 C 7709.5819,-2564.0428 7704.5379,-2545.8614 7728.6213,-2546.962 C 7750.1471,-2547.9305 7744.1796,-2561.5335 7743.9664,-2561.3354 C 7742.0483,-2571.0424 7707.4506,-2573.3756 7695.2313,-2596.5094 C 7685.4985,-2628.756 7722.0143,-2639.2554 7723.5773,-2639.0573 C 7757.5355,-2646.6292 7776.5749,-2633.7966 7776.5749,-2633.7966 C 7792.1332,-2625.6524 7789.2205,-2607.383 7789.2205,-2607.383 L 7761.0877,-2607.383 C 7761.0877,-2607.383 7763.2189,-2620.0175 7743.3981,-2620.2156 C 7723.0089,-2620.0175 7726.7031,-2607.7792 7726.7031,-2607.7792 C 7729.1896,-2598.4464 7760.3062,-2592.2172 7768.6182,-2581.5417 C 7790.9255,-2552.2887 7763.7162,-2525.6551 7735.7966,-2524.4224 C 7692.8869,-2522.8596 7690.6136,-2533.4471 7687.3456,-2534.1294 C 7673.9896,-2545.7294 7681.236,-2564.0428 7681.236,-2564.0428" id="path2637" stroke="black" style="fill:white;fill-rule:nonzero;;stroke-width:0.000001;stroke-linecap:butt;stroke-linejoin:miter;stroke-miterlimit:3.86369991;stroke-dasharray:none"/>
			
      
			
			
      
			
			
      
			
			
      
			
			
    
		</g>
		
  
	</g>
	

</svg>