<?xml version="1.0" encoding="iso-8859-1"?><!-- Created with Inkscape (http://www.inkscape.org/) --><svg height="200" id="svg2" version="1.1" width="800" xmlns="http://www.w3.org/2000/svg" xmlns:cc="http://creativecommons.org/ns#" xmlns:dc="http://purl.org/dc/elements/1.1/" xmlns:rdf="http://www.w3.org/1999/02/22-rdf-syntax-ns#" xmlns:svg="http://www.w3.org/2000/svg">
	
  
	<defs id="defs4"/>
	
  
	<metadata id="metadata7">
		
    
		<rdf:RDF>
			
      
			<cc:Work rdf:about="">
				
        
				<dc:format>image/svg+xml</dc:format>
				
        
				<dc:type rdf:resource="http://purl.org/dc/dcmitype/StillImage"/>
				
        
				<dc:title/>
				
      
			</cc:Work>
			
    
		</rdf:RDF>
		
  
	</metadata>
	
  
	<g id="layer1" transform="translate(0,-852)">
		
    
		
		
    
		<g id="text2996" style="font-size:51.2717px;font-style:normal;font-variant:normal;font-weight:normal;font-stretch:normal;text-align:start;line-height:100%;letter-spacing:0px;word-spacing:0px;writing-mode:lr-tb;text-anchor:start;fill:#769bc9;fill-opacity:1;stroke:none;font-family:OfficinaSanITCMedium;-inkscape-font-specification:OfficinaSanITCMedium" transform="matrix(0.7382,0,0,0.7382,96,571.7)">
			
      
			
			
      
			
			
      
			
			
      
			
			
      
			
			
      
			
			
      
			
			
      
			<path animation_id="8" d="m 370.7,599.5 c -0.1,-4.5 -1.6,-6.8 -4.5,-6.8 -1.6,0 -2.7,0.6 -3.5,1.6 -0.8,1.1 -1.3,2.9 -1.5,5.2 l 9.5,0 z m 5.5,2 c 0,0.6 0,1.1 -0.1,1.4 0,0.4 -0.3,0.5 -0.7,0.5 l -14.3,0 c 0.2,5 2.3,7.6 6.2,7.6 1.5,0 2.8,-0.3 3.7,-0.7 1,-0.4 1.8,-0.8 2.6,-1.2 0.3,-0.2 0.5,-0.1 0.7,0.3 l 1.1,2.6 c 0.2,0.3 0.3,0.5 0.1,0.7 -0.1,0.2 -0.3,0.4 -0.6,0.6 -1,0.6 -2.3,1.1 -3.8,1.5 -1.5,0.4 -2.9,0.6 -4.3,0.6 -3.5,0 -6.2,-1.2 -8.1,-3.5 -1.9,-2.3 -2.9,-5.5 -2.9,-9.7 0,-2 0.3,-3.9 0.8,-5.5 0.5,-1.7 1.2,-3.1 2.1,-4.2 1,-1.2 2.1,-2.1 3.4,-2.7 1.3,-0.7 2.8,-1 4.4,-1 3.2,0 5.6,1.1 7.2,3.3 1.7,2.1 2.5,5.3 2.5,9.4 z" id="path3015" stroke="black" style="fill:#769bc9;fill-opacity:1"/>
			
      
			
			
      
			
			
      
			
			
      
			
			
      
			
			
      
			
			
      
			
			
      
			
			
      
			
			
      
			
			
    
		</g>
		
    
		
		
    
		
		
    
		
		
    
		
		
    
		
		
  
	</g>
	

</svg>