<?xml version="1.0" encoding="iso-8859-1"?><!-- Created with Inkscape (http://www.inkscape.org/) --><svg height="200" id="svg2" version="1.1" width="800" xmlns="http://www.w3.org/2000/svg" xmlns:cc="http://creativecommons.org/ns#" xmlns:dc="http://purl.org/dc/elements/1.1/" xmlns:rdf="http://www.w3.org/1999/02/22-rdf-syntax-ns#" xmlns:svg="http://www.w3.org/2000/svg">
	
  
	<defs id="defs4"/>
	
  
	<metadata id="metadata7">
		
    
		<rdf:RDF>
			
      
			<cc:Work rdf:about="">
				
        
				<dc:format>image/svg+xml</dc:format>
				
        
				<dc:type rdf:resource="http://purl.org/dc/dcmitype/StillImage"/>
				
        
				<dc:title/>
				
      
			</cc:Work>
			
    
		</rdf:RDF>
		
  
	</metadata>
	
  
	<g id="layer1" transform="translate(0,-852)">
		
    
		
		
    
		<g id="text2996" style="font-size:51.2717px;font-style:normal;font-variant:normal;font-weight:normal;font-stretch:normal;text-align:start;line-height:100%;letter-spacing:0px;word-spacing:0px;writing-mode:lr-tb;text-anchor:start;fill:#769bc9;fill-opacity:1;stroke:none;font-family:OfficinaSanITCMedium;-inkscape-font-specification:OfficinaSanITCMedium" transform="matrix(0.7382,0,0,0.7382,96,571.7)">
			
      
			
			
      
			
			
      
			
			
      
			
			
      
			
			
      
			
			
      
			
			
      
			
			
      
			
			
      
			
			
      
			
			
      
			
			
      
			<path animation_id="13" d="m 468.5,607.6 c 0,2.3 -0.8,4.2 -2.3,5.6 -1.5,1.5 -3.6,2.2 -6.2,2.2 -1.4,0 -2.9,-0.2 -4.3,-0.6 -1.5,-0.4 -2.9,-0.9 -4.1,-1.6 -0.3,-0.2 -0.4,-0.3 -0.4,-0.4 -0.1,-0.1 0,-0.3 0.1,-0.7 l 1.1,-2.6 c 0.1,-0.3 0.3,-0.4 0.4,-0.4 0.2,0.1 0.4,0.2 0.6,0.3 1.2,0.6 2.3,1 3.4,1.3 1.2,0.4 2.2,0.5 3,0.5 1.1,0 2,-0.3 2.6,-0.9 0.7,-0.5 1,-1.3 1,-2.3 0,-0.8 -0.3,-1.4 -0.8,-1.8 -0.5,-0.4 -1.4,-1 -2.8,-1.7 -0.3,-0.1 -0.7,-0.3 -1.1,-0.5 -0.4,-0.3 -0.9,-0.5 -1.3,-0.7 -0.5,-0.3 -1,-0.5 -1.4,-0.7 -0.4,-0.3 -0.8,-0.5 -1.1,-0.7 -1.1,-0.7 -1.9,-1.5 -2.3,-2.5 -0.4,-0.9 -0.6,-1.9 -0.6,-2.8 0,-1.2 0.2,-2.2 0.6,-3.1 0.5,-1 1.1,-1.8 1.8,-2.5 0.8,-0.7 1.7,-1.2 2.7,-1.6 1,-0.4 2.2,-0.6 3.4,-0.6 1.1,0 2.3,0.2 3.5,0.5 1.3,0.3 2.3,0.7 3.2,1.2 0.5,0.3 0.6,0.7 0.3,1.2 l -1,2.2 c -0.2,0.3 -0.3,0.5 -0.5,0.5 -0.1,0 -0.3,-0.1 -0.6,-0.2 -1.9,-0.9 -3.5,-1.3 -4.8,-1.3 -1.2,0 -2,0.3 -2.7,0.8 -0.6,0.5 -0.9,1.3 -0.9,2.2 0,0.8 0.3,1.4 0.7,1.9 0.5,0.4 1.3,0.9 2.4,1.5 0.4,0.2 0.8,0.4 1.3,0.7 0.4,0.2 0.9,0.5 1.4,0.7 0.5,0.3 1,0.5 1.5,0.8 0.4,0.2 0.7,0.4 0.9,0.5 1.3,0.7 2.2,1.6 2.6,2.5 0.5,0.8 0.7,1.9 0.7,3.1 z" id="path3025" stroke="black" style="fill:#769bc9;fill-opacity:1"/>
			
      
			
			
      
			
			
      
			
			
      
			
			
      
			
			
    
		</g>
		
    
		
		
    
		
		
    
		
		
    
		
		
    
		
		
  
	</g>
	

</svg>