<?xml version="1.0" encoding="iso-8859-1"?><!-- Created with Inkscape (http://www.inkscape.org/) --><svg height="200" id="svg2" version="1.1" width="800" xmlns="http://www.w3.org/2000/svg" xmlns:cc="http://creativecommons.org/ns#" xmlns:dc="http://purl.org/dc/elements/1.1/" xmlns:rdf="http://www.w3.org/1999/02/22-rdf-syntax-ns#" xmlns:svg="http://www.w3.org/2000/svg">
	
  
	<defs id="defs4"/>
	
  
	<metadata id="metadata7">
		
    
		<rdf:RDF>
			
      
			<cc:Work rdf:about="">
				
        
				<dc:format>image/svg+xml</dc:format>
				
        
				<dc:type rdf:resource="http://purl.org/dc/dcmitype/StillImage"/>
				
        
				<dc:title/>
				
      
			</cc:Work>
			
    
		</rdf:RDF>
		
  
	</metadata>
	
  
	<g id="layer1" transform="translate(0,-852)">
		
    
		
		
    
		<g id="text2996" style="font-size:51.2717px;font-style:normal;font-variant:normal;font-weight:normal;font-stretch:normal;text-align:start;line-height:100%;letter-spacing:0px;word-spacing:0px;writing-mode:lr-tb;text-anchor:start;fill:#769bc9;fill-opacity:1;stroke:none;font-family:OfficinaSanITCMedium;-inkscape-font-specification:OfficinaSanITCMedium" transform="matrix(0.7382,0,0,0.7382,96,571.7)">
			
      
			
			
      
			
			
      
			
			
      
			
			
      
			
			
      
			
			
      
			
			
      
			
			
      
			
			
      
			
			
      
			
			
      
			
			
      
			
			
      
			<path animation_id="14" d="m 488.8,595.1 c -0.2,0.2 -0.3,0.2 -0.5,0.2 -0.2,-0.1 -0.3,-0.2 -0.3,-0.2 -1,-0.8 -1.9,-1.3 -2.6,-1.6 -0.6,-0.2 -1.4,-0.4 -2.2,-0.4 -3.7,0 -5.6,3 -5.6,9 0,3.1 0.4,5.3 1.3,6.8 0.9,1.4 2.3,2.2 4.1,2.2 1.1,0 2,-0.2 2.7,-0.6 0.8,-0.3 1.6,-0.8 2.4,-1.4 0.4,-0.3 0.7,-0.3 0.8,0.1 l 1.1,2.5 c 0.1,0.3 0.2,0.6 0.1,0.7 0,0.2 -0.1,0.4 -0.5,0.6 -0.9,0.8 -2,1.3 -3.4,1.8 -1.3,0.4 -2.6,0.6 -3.8,0.6 -3.3,0 -5.9,-1.1 -7.6,-3.4 -1.8,-2.2 -2.7,-5.3 -2.7,-9.3 0,-2.2 0.2,-4.1 0.7,-5.8 0.5,-1.7 1.3,-3.2 2.2,-4.4 1,-1.2 2.2,-2.1 3.5,-2.7 1.4,-0.7 3,-1 4.7,-1 1.3,0 2.5,0.2 3.7,0.6 1.1,0.4 2.2,1 3.1,1.7 0.2,0.1 0.3,0.3 0.5,0.6 0.1,0.2 0.1,0.4 0,0.6 z" id="path3027" stroke="black" style="fill:#769bc9;fill-opacity:1"/>
			
      
			
			
      
			
			
      
			
			
      
			
			
    
		</g>
		
    
		
		
    
		
		
    
		
		
    
		
		
    
		
		
  
	</g>
	

</svg>