<?xml version="1.0" encoding="iso-8859-1"?><!-- Created with Inkscape (http://www.inkscape.org/) --><svg height="200" id="svg2" version="1.1" width="800" xmlns="http://www.w3.org/2000/svg" xmlns:cc="http://creativecommons.org/ns#" xmlns:dc="http://purl.org/dc/elements/1.1/" xmlns:rdf="http://www.w3.org/1999/02/22-rdf-syntax-ns#" xmlns:svg="http://www.w3.org/2000/svg">
	
  
	<defs id="defs4"/>
	
  
	<metadata id="metadata7">
		
    
		<rdf:RDF>
			
      
			<cc:Work rdf:about="">
				
        
				<dc:format>image/svg+xml</dc:format>
				
        
				<dc:type rdf:resource="http://purl.org/dc/dcmitype/StillImage"/>
				
        
				<dc:title/>
				
      
			</cc:Work>
			
    
		</rdf:RDF>
		
  
	</metadata>
	
  
	<g id="layer1" transform="translate(0,-852)">
		
    
		
		
    
		<g id="text2996" style="font-size:51.2717px;font-style:normal;font-variant:normal;font-weight:normal;font-stretch:normal;text-align:start;line-height:100%;letter-spacing:0px;word-spacing:0px;writing-mode:lr-tb;text-anchor:start;fill:#769bc9;fill-opacity:1;stroke:none;font-family:OfficinaSanITCMedium;-inkscape-font-specification:OfficinaSanITCMedium" transform="matrix(0.7382,0,0,0.7382,96,571.7)">
			
      
			
			
      
			
			
      
			<path animation_id="3" d="m 263.5,612.9 c 0,0.3 0.1,0.5 0,0.6 0,0.1 -0.2,0.3 -0.5,0.4 -1,0.5 -2,0.8 -3.1,1 -1,0.3 -2.1,0.4 -3.1,0.4 -1.3,0 -2.4,-0.2 -3.3,-0.6 -0.8,-0.4 -1.5,-0.9 -2,-1.6 -0.5,-0.7 -0.8,-1.5 -1,-2.4 -0.2,-1 -0.3,-2 -0.3,-3.2 l 0,-13.9 -3.5,0 c -0.3,0 -0.6,-0.1 -0.7,-0.2 -0.1,-0.1 -0.1,-0.3 -0.1,-0.6 l 0,-2.4 c 0,-0.4 0,-0.6 0.1,-0.7 0.1,-0.1 0.4,-0.1 0.7,-0.1 l 3.5,0 0,-6.7 c 0,-0.3 0.1,-0.5 0.2,-0.6 0,-0.1 0.2,-0.1 0.5,-0.2 l 3.5,-0.7 c 0.3,0 0.6,-0.1 0.8,0 0.1,0 0.2,0.2 0.2,0.6 l 0,7.6 6.8,0 c 0.4,0 0.6,0.1 0.6,0.2 0,0.2 0,0.4 -0.1,0.7 l -0.5,2.4 c -0.1,0.3 -0.2,0.5 -0.3,0.6 0,0 -0.2,0.1 -0.5,0.1 l -6,0 0,13.4 c 0,1.5 0.2,2.5 0.5,3 0.3,0.5 1,0.8 2,0.8 0.8,0 1.4,-0.1 2,-0.4 0.6,-0.2 1.2,-0.4 1.9,-0.7 0.4,-0.1 0.6,-0.2 0.7,0 0.1,0.1 0.2,0.3 0.2,0.5 l 0.8,2.7 z" id="path3005" stroke="black" style="fill:#769bc9;fill-opacity:1"/>
			
      
			
			
      
			
			
      
			
			
      
			
			
      
			
			
      
			
			
      
			
			
      
			
			
      
			
			
      
			
			
      
			
			
      
			
			
      
			
			
      
			
			
      
			
			
    
		</g>
		
    
		
		
    
		
		
    
		
		
    
		
		
    
		
		
  
	</g>
	

</svg>