<?xml version="1.0" encoding="iso-8859-1"?><!-- Generator: Adobe Illustrator 18.1.0, SVG Export Plug-In . SVG Version: 6.00 Build 0)  --><!DOCTYPE svg  PUBLIC '-//W3C//DTD SVG 1.1//EN'  'http://www.w3.org/Graphics/SVG/1.1/DTD/svg11.dtd'><svg enable-background="new 0 0 960 320" id="Ebene_1" version="1.1" viewBox="0 0 960 320" x="0px" xml:space="preserve" xmlns="http://www.w3.org/2000/svg" xmlns:xlink="http://www.w3.org/1999/xlink" y="0px">
	

	
	

	<g>
		
	
		
		
	
		
		

	</g>
	

	<g>
		
	
		
		
	
		
		
	
		
		
	
		
		
	
		<path animation_id="6" d="M631.5,145.3c-0.1-5.9-2.2-11.7-9.9-11.7c-5.2,0-7.8,1.9-10.4,4.5c-3.3,3.3-5.6,9.4-9.1,26.6   c-1.2,5.8-2.7,14.8-2.7,20.2c0,7.1,4,10.9,10.4,10.9c7.6,0,12.1-5.8,14.4-11.7h24.6c-7.5,22.5-22.6,32.7-40.9,32.7   c-21.6,0-32.5-14.5-32.5-30c0-4.6,0.7-12.1,2.7-22.2c3.6-18,6.2-30.4,15.4-40.2c8.5-9.1,19.9-12,29.8-12   c21.9,0,32.1,14.7,32.1,32.7H631.5z" fill="#0069B4" stroke="black"/>
		
	
		
		
	
		
		
	
		
		

	</g>
	

</svg>