<?xml version="1.0" encoding="iso-8859-1"?><!-- Generator: Adobe Illustrator 18.1.0, SVG Export Plug-In . SVG Version: 6.00 Build 0)  --><!DOCTYPE svg  PUBLIC '-//W3C//DTD SVG 1.1//EN'  'http://www.w3.org/Graphics/SVG/1.1/DTD/svg11.dtd'><svg enable-background="new 0 0 960 320" id="Ebene_1" version="1.1" viewBox="0 0 960 320" x="0px" xml:space="preserve" xmlns="http://www.w3.org/2000/svg" xmlns:xlink="http://www.w3.org/1999/xlink" y="0px">
	

	
	

	<g>
		
	
		
		
	
		
		

	</g>
	

	<g>
		
	
		
		
	
		
		
	
		<path animation_id="4" d="M491.9,167.9l-9.6,48.1h-22.5l9.4-46.8c0.3-1.3,0.4-2.7,0.4-3.9c0-5.2-3.6-7.3-6.5-7.3   c-5.2,0-10.2,2.6-12,11.2l-9.4,46.8h-22.5l9.4-46.8c0.3-1.3,0.4-2.7,0.4-3.9c0-5.2-3.6-7.3-6.5-7.3c-5.2,0-10.2,2.6-12,11.2   l-9.4,46.8h-22.5l15.4-77.5h21.5l-1.3,6.8c4.9-4.9,12.2-7.6,19-7.6c3.9,0,10.9,1.4,15.3,8.4c4.8-4.3,10.8-8.4,22.8-8.4   c9.5,0,21.5,6.3,21.5,21.3C492.9,162.6,492.3,165.6,491.9,167.9z" fill="#0069B4" stroke="black"/>
		
	
		
		
	
		
		
	
		
		
	
		
		
	
		
		

	</g>
	

</svg>