<?xml version="1.0" encoding="iso-8859-1"?><!-- Generator: Adobe Illustrator 18.1.0, SVG Export Plug-In . SVG Version: 6.00 Build 0)  --><!DOCTYPE svg  PUBLIC '-//W3C//DTD SVG 1.1//EN'  'http://www.w3.org/Graphics/SVG/1.1/DTD/svg11.dtd'><svg enable-background="new 0 0 960 320" id="Ebene_1" version="1.1" viewBox="0 0 960 320" x="0px" xml:space="preserve" xmlns="http://www.w3.org/2000/svg" xmlns:xlink="http://www.w3.org/1999/xlink" y="0px">
	

	
	

	<g>
		
	
		
		
	
		
		

	</g>
	

	<g>
		
	
		
		
	
		
		
	
		
		
	
		
		
	
		
		
	
		
		
	
		
		
	
		<path animation_id="9" d="M857.1,215.6c-6.8,0-12.4-5.5-12.4-12.4s5.5-12.4,12.4-12.4s12.4,5.5,12.4,12.4S863.9,215.6,857.1,215.6z    M857.1,193.6c-5.3,0-9.4,4.1-9.4,9.6c0,5.5,4.1,9.6,9.4,9.6s9.4-4.1,9.4-9.6C866.5,197.7,862.4,193.6,857.1,193.6z M859.3,209.8   l-2.4-5.1h-1.4v5.1h-3v-13.2h5.4c2.7,0,4.4,1.9,4.4,4.1c0,1.8-1.1,3-2.4,3.5l2.7,5.5H859.3z M857.5,199h-2v3.4h2   c1.1,0,1.8-0.7,1.8-1.7C859.4,199.8,858.6,199,857.5,199z" fill="#0069B4" stroke="black"/>
		

	</g>
	

</svg>