<?xml version="1.0" encoding="iso-8859-1"?><!-- Generator: Adobe Illustrator 18.1.0, SVG Export Plug-In . SVG Version: 6.00 Build 0)  --><!DOCTYPE svg  PUBLIC '-//W3C//DTD SVG 1.1//EN'  'http://www.w3.org/Graphics/SVG/1.1/DTD/svg11.dtd'><svg enable-background="new 0 0 960 320" id="Ebene_1" version="1.1" viewBox="0 0 960 320" x="0px" xml:space="preserve" xmlns="http://www.w3.org/2000/svg" xmlns:xlink="http://www.w3.org/1999/xlink" y="0px">
	

	
	

	<g>
		
	
		
		
	
		<path animation_id="1" d="M100,158.7c0-32.6,61.3-60,145-68.5c-4.6-6.3-12.2-10.2-21.5-10.2h-96c-17.7,0-34.8,14.3-38.2,32l-18.7,96   c-3.4,17.7,8.1,32,25.8,32h96c11.6,0,23-6.2,30.4-15.5C150.7,213.8,100,188.4,100,158.7z M140,138.5c0-10.4,11.8-20,31.7-27.8   c-26,9-41.7,20.9-41.7,33.8c0,21.3,42.8,39.6,103.8,47.4l2.1-10.8C179.4,173.9,140,157.6,140,138.5z M249.7,102.2   c-51.1,4.6-87.2,15.9-87.2,29.1c0,12.4,31.7,23.1,77.6,28.1l9.2-47.4C250,108.6,250.1,105.3,249.7,102.2z" fill="#0069B4" stroke="black"/>
		

	</g>
	

	<g>
		
	
		
		
	
		
		
	
		
		
	
		
		
	
		
		
	
		
		
	
		
		
	
		
		

	</g>
	

</svg>