<?xml version="1.0" encoding="iso-8859-1"?><!-- Generator: Adobe Illustrator 18.1.0, SVG Export Plug-In . SVG Version: 6.00 Build 0)  --><!DOCTYPE svg  PUBLIC '-//W3C//DTD SVG 1.1//EN'  'http://www.w3.org/Graphics/SVG/1.1/DTD/svg11.dtd'><svg enable-background="new 0 0 960 320" id="Ebene_1" version="1.1" viewBox="0 0 960 320" x="0px" xml:space="preserve" xmlns="http://www.w3.org/2000/svg" xmlns:xlink="http://www.w3.org/1999/xlink" y="0px">
	

	
	

	<g>
		
	
		
		
	
		
		

	</g>
	

	<g>
		
	
		
		
	
		
		
	
		
		
	
		
		
	
		
		
	
		<path animation_id="7" d="M720.3,177.3c-3.2,15.8-6.3,23.3-13.4,30.4c-5.5,5.5-14,9.2-24.6,9.2c-13.4,0-26.9-8.2-26.9-25.6   c0-4.8,0.9-10.4,1.6-14c3.2-15.8,6.3-23.3,13.4-30.4c5.5-5.5,14-9.2,24.6-9.2c13.4,0,26.9,8.2,26.9,25.6   C721.9,168,721.1,173.7,720.3,177.3z M692.7,158c-2.9,0-5.2,0.9-6.9,2.6c-3.2,3-4.9,8.8-6.5,16.7c-1.4,7.2-1.6,10.2-1.6,11.2   c0,5,2.3,8.1,6.9,8.1c2.9,0,5.2-0.9,6.9-2.6c3.2-3,4.9-8.8,6.5-16.7c1.4-7.2,1.6-10.2,1.6-11.2C699.6,161,697.3,158,692.7,158z" fill="#0069B4" stroke="black"/>
		
	
		
		
	
		
		

	</g>
	

</svg>