<?xml version="1.0" encoding="iso-8859-1"?><svg data-name="Ebene 1" id="Ebene_1" viewBox="0 0 886.85 138.9" xmlns="http://www.w3.org/2000/svg" xmlns:xlink="http://www.w3.org/1999/xlink">
	
  
	<defs>
		
    
		<radialGradient cx="-249.04" cy="31.69" fx="-234.47618694833056" fy="14.730909198533059" gradientTransform="matrix(-1, 0, 0, 1, 459.82, 0)" gradientUnits="userSpaceOnUse" id="radial-gradient" r="84.71">
			
      
			<stop offset="0" stop-color="#f29000"/>
			
      
			<stop offset="1" stop-color="#ee7c00"/>
			
    
		</radialGradient>
		
    
		<linearGradient data-name="TOF Logoverlauf" gradientUnits="userSpaceOnUse" id="TOF_Logoverlauf" x1="73.42" x2="73.42" y1="111.51" y2="46.1">
			
      
			<stop offset="0" stop-color="#636a6d"/>
			
      
			<stop offset="1" stop-color="#92989b"/>
			
    
		</linearGradient>
		
    
		<linearGradient id="TOF_Logoverlauf-2" x1="451.07" x2="451.07" xlink:href="#TOF_Logoverlauf" y1="111.51" y2="26.22"/>
		
    
		<linearGradient id="TOF_Logoverlauf-3" x1="608.53" x2="608.53" xlink:href="#TOF_Logoverlauf" y1="111.51" y2="47.22"/>
		
    
		<linearGradient id="TOF_Logoverlauf-4" x1="540.64" x2="540.64" xlink:href="#TOF_Logoverlauf" y1="112.68" y2="46.04"/>
		
    
		<linearGradient id="TOF_Logoverlauf-5" x1="490.56" x2="490.56" xlink:href="#TOF_Logoverlauf" y1="111.51" y2="27.39"/>
		
    
		<linearGradient id="TOF_Logoverlauf-6" x1="364.41" x2="364.41" xlink:href="#TOF_Logoverlauf" y1="112.68" y2="46.04"/>
		
    
		<linearGradient id="TOF_Logoverlauf-7" x1="412.84" x2="412.84" xlink:href="#TOF_Logoverlauf" y1="83.13" y2="70.27"/>
		
    
		<linearGradient id="TOF_Logoverlauf-8" x1="313.96" x2="313.96" xlink:href="#TOF_Logoverlauf" y1="83.13" y2="70.27"/>
		
    
		<linearGradient id="TOF_Logoverlauf-9" x1="267.99" x2="267.99" xlink:href="#TOF_Logoverlauf" y1="112.68" y2="46.04"/>
		
    
		<linearGradient id="TOF_Logoverlauf-10" x1="197.85" x2="197.85" xlink:href="#TOF_Logoverlauf" y1="111.51" y2="46.04"/>
		
    
		<linearGradient id="TOF_Logoverlauf-11" x1="125.08" x2="125.08" xlink:href="#TOF_Logoverlauf" y1="112.68" y2="46.04"/>
		
    
		<linearGradient id="TOF_Logoverlauf-12" x1="22.71" x2="22.71" xlink:href="#TOF_Logoverlauf" y1="112.68" y2="27.39"/>
		
  
	</defs>
	
  
	<title>tof_logo</title>
	
  
	<g>
		
    
		
		
    
		
		
    
		
		
    
		
		
    
		
		
    
		
		
    
		
		
    
		
		
    
		
		
    
		
		
    
		<path animation_id="10" d="M212.32,46q-9.91,0-21,8.51l.66-3.7a3.18,3.18,0,0,0-.48-2.61,2.64,2.64,0,0,0-2.27-1H176.72a3.8,3.8,0,0,0-2.6,1,4.36,4.36,0,0,0-1.45,2.61l-10.31,57.07a3.15,3.15,0,0,0,.49,2.58,2.67,2.67,0,0,0,2.26,1H177.6a3.89,3.89,0,0,0,2.6-1,4.35,4.35,0,0,0,1.44-2.58l7.09-39.3q9.48-8.38,16.45-8.39,10.64-.05,8.11,14l-6.07,33.67a3.16,3.16,0,0,0,.48,2.55,2.67,2.67,0,0,0,2.27,1h12.43a4,4,0,0,0,2.66-1,4.33,4.33,0,0,0,1.44-2.58l6.08-33.67q2.57-14.32-3-21.26T212.32,46Z" fill="url(#TOF_Logoverlauf-10)" stroke="black"/>
		
    
		
		
    
		
		
  
	</g>
	

</svg>