<?xml version="1.0" encoding="iso-8859-1"?><svg data-name="Ebene 1" id="Ebene_1" viewBox="0 0 886.85 138.9" xmlns="http://www.w3.org/2000/svg" xmlns:xlink="http://www.w3.org/1999/xlink">
	
  
	<defs>
		
    
		<radialGradient cx="-249.04" cy="31.69" fx="-234.47618694833056" fy="14.730909198533059" gradientTransform="matrix(-1, 0, 0, 1, 459.82, 0)" gradientUnits="userSpaceOnUse" id="radial-gradient" r="84.71">
			
      
			<stop offset="0" stop-color="#f29000"/>
			
      
			<stop offset="1" stop-color="#ee7c00"/>
			
    
		</radialGradient>
		
    
		<linearGradient data-name="TOF Logoverlauf" gradientUnits="userSpaceOnUse" id="TOF_Logoverlauf" x1="73.42" x2="73.42" y1="111.51" y2="46.1">
			
      
			<stop offset="0" stop-color="#636a6d"/>
			
      
			<stop offset="1" stop-color="#92989b"/>
			
    
		</linearGradient>
		
    
		<linearGradient id="TOF_Logoverlauf-2" x1="451.07" x2="451.07" xlink:href="#TOF_Logoverlauf" y1="111.51" y2="26.22"/>
		
    
		<linearGradient id="TOF_Logoverlauf-3" x1="608.53" x2="608.53" xlink:href="#TOF_Logoverlauf" y1="111.51" y2="47.22"/>
		
    
		<linearGradient id="TOF_Logoverlauf-4" x1="540.64" x2="540.64" xlink:href="#TOF_Logoverlauf" y1="112.68" y2="46.04"/>
		
    
		<linearGradient id="TOF_Logoverlauf-5" x1="490.56" x2="490.56" xlink:href="#TOF_Logoverlauf" y1="111.51" y2="27.39"/>
		
    
		<linearGradient id="TOF_Logoverlauf-6" x1="364.41" x2="364.41" xlink:href="#TOF_Logoverlauf" y1="112.68" y2="46.04"/>
		
    
		<linearGradient id="TOF_Logoverlauf-7" x1="412.84" x2="412.84" xlink:href="#TOF_Logoverlauf" y1="83.13" y2="70.27"/>
		
    
		<linearGradient id="TOF_Logoverlauf-8" x1="313.96" x2="313.96" xlink:href="#TOF_Logoverlauf" y1="83.13" y2="70.27"/>
		
    
		<linearGradient id="TOF_Logoverlauf-9" x1="267.99" x2="267.99" xlink:href="#TOF_Logoverlauf" y1="112.68" y2="46.04"/>
		
    
		<linearGradient id="TOF_Logoverlauf-10" x1="197.85" x2="197.85" xlink:href="#TOF_Logoverlauf" y1="111.51" y2="46.04"/>
		
    
		<linearGradient id="TOF_Logoverlauf-11" x1="125.08" x2="125.08" xlink:href="#TOF_Logoverlauf" y1="112.68" y2="46.04"/>
		
    
		<linearGradient id="TOF_Logoverlauf-12" x1="22.71" x2="22.71" xlink:href="#TOF_Logoverlauf" y1="112.68" y2="27.39"/>
		
  
	</defs>
	
  
	<title>tof_logo</title>
	
  
	<g>
		
    
		
		
    
		
		
    
		<path animation_id="2" d="M470.63,57.19H450.47l.16-.91q1.75-9.7,5.66-12.77c2.52-2,7.35-3,14.45-3.08h4a4,4,0,0,0,2.66-1,4.34,4.34,0,0,0,1.44-2.58l1.26-7a3.22,3.22,0,0,0-.51-2.61,2.75,2.75,0,0,0-2.29-1H468.7q-17.78,0-26.09,6.83t-11.26,23.2L422,107.93a3.14,3.14,0,0,0,.48,2.58,2.7,2.7,0,0,0,2.28,1h12.48a3.86,3.86,0,0,0,2.6-1,4.26,4.26,0,0,0,1.44-2.58l6.6-36.54h20.17a4,4,0,0,0,2.66-1,4.35,4.35,0,0,0,1.44-2.58l1.26-7a3.13,3.13,0,0,0-.51-2.61A2.7,2.7,0,0,0,470.63,57.19Z" fill="url(#TOF_Logoverlauf-2)" stroke="black"/>
		
    
		
		
    
		
		
    
		
		
    
		
		
    
		
		
    
		
		
    
		
		
    
		
		
    
		
		
    
		
		
  
	</g>
	

</svg>