<?xml version="1.0" encoding="iso-8859-1"?><svg data-name="Ebene 1" id="Ebene_1" viewBox="0 0 886.85 138.9" xmlns="http://www.w3.org/2000/svg" xmlns:xlink="http://www.w3.org/1999/xlink">
	
  
	<defs>
		
    
		<radialGradient cx="-249.04" cy="31.69" fx="-234.47618694833056" fy="14.730909198533059" gradientTransform="matrix(-1, 0, 0, 1, 459.82, 0)" gradientUnits="userSpaceOnUse" id="radial-gradient" r="84.71">
			
      
			<stop offset="0" stop-color="#f29000"/>
			
      
			<stop offset="1" stop-color="#ee7c00"/>
			
    
		</radialGradient>
		
    
		<linearGradient data-name="TOF Logoverlauf" gradientUnits="userSpaceOnUse" id="TOF_Logoverlauf" x1="73.42" x2="73.42" y1="111.51" y2="46.1">
			
      
			<stop offset="0" stop-color="#636a6d"/>
			
      
			<stop offset="1" stop-color="#92989b"/>
			
    
		</linearGradient>
		
    
		<linearGradient id="TOF_Logoverlauf-2" x1="451.07" x2="451.07" xlink:href="#TOF_Logoverlauf" y1="111.51" y2="26.22"/>
		
    
		<linearGradient id="TOF_Logoverlauf-3" x1="608.53" x2="608.53" xlink:href="#TOF_Logoverlauf" y1="111.51" y2="47.22"/>
		
    
		<linearGradient id="TOF_Logoverlauf-4" x1="540.64" x2="540.64" xlink:href="#TOF_Logoverlauf" y1="112.68" y2="46.04"/>
		
    
		<linearGradient id="TOF_Logoverlauf-5" x1="490.56" x2="490.56" xlink:href="#TOF_Logoverlauf" y1="111.51" y2="27.39"/>
		
    
		<linearGradient id="TOF_Logoverlauf-6" x1="364.41" x2="364.41" xlink:href="#TOF_Logoverlauf" y1="112.68" y2="46.04"/>
		
    
		<linearGradient id="TOF_Logoverlauf-7" x1="412.84" x2="412.84" xlink:href="#TOF_Logoverlauf" y1="83.13" y2="70.27"/>
		
    
		<linearGradient id="TOF_Logoverlauf-8" x1="313.96" x2="313.96" xlink:href="#TOF_Logoverlauf" y1="83.13" y2="70.27"/>
		
    
		<linearGradient id="TOF_Logoverlauf-9" x1="267.99" x2="267.99" xlink:href="#TOF_Logoverlauf" y1="112.68" y2="46.04"/>
		
    
		<linearGradient id="TOF_Logoverlauf-10" x1="197.85" x2="197.85" xlink:href="#TOF_Logoverlauf" y1="111.51" y2="46.04"/>
		
    
		<linearGradient id="TOF_Logoverlauf-11" x1="125.08" x2="125.08" xlink:href="#TOF_Logoverlauf" y1="112.68" y2="46.04"/>
		
    
		<linearGradient id="TOF_Logoverlauf-12" x1="22.71" x2="22.71" xlink:href="#TOF_Logoverlauf" y1="112.68" y2="27.39"/>
		
  
	</defs>
	
  
	<title>tof_logo</title>
	
  
	<g>
		
    
		<path animation_id="0" d="M743,88.44a19,19,0,0,1,0-38c11.9,0,24.8,10,25,31.88v.28h21.46v-.3c-.1-19.46-5.07-34.06-14.77-43.4-7.83-7.54-18.8-11.52-31.72-11.5-22.86,0-41.46,18.9-41.46,42.07s18.6,42,41.46,42H886.85l-23.16-23H743M674.53,69.51c0,38.29,30.72,69.42,68.48,69.39H863.69l23.16-23H743c-25.21,0-45.71-20.78-45.71-46.36S717.79,23.08,743,23.06c9.73,0,23.64,2.24,34.63,13,10.47,10.26,15.84,25.82,15.94,46.25v.3H816v-.32C815.7,25.7,778,0,743,0c-37.76,0-68.48,31.21-68.48,69.51" fill="url(#radial-gradient)" stroke="black"/>
		
    
		
		
    
		
		
    
		
		
    
		
		
    
		
		
    
		
		
    
		
		
    
		
		
    
		
		
    
		
		
    
		
		
    
		
		
  
	</g>
	

</svg>