<?xml version="1.0" encoding="iso-8859-1"?><svg data-name="Ebene 1" id="Ebene_1" viewBox="0 0 886.85 138.9" xmlns="http://www.w3.org/2000/svg" xmlns:xlink="http://www.w3.org/1999/xlink">
	
  
	<defs>
		
    
		<radialGradient cx="-249.04" cy="31.69" fx="-234.47618694833056" fy="14.730909198533059" gradientTransform="matrix(-1, 0, 0, 1, 459.82, 0)" gradientUnits="userSpaceOnUse" id="radial-gradient" r="84.71">
			
      
			<stop offset="0" stop-color="#f29000"/>
			
      
			<stop offset="1" stop-color="#ee7c00"/>
			
    
		</radialGradient>
		
    
		<linearGradient data-name="TOF Logoverlauf" gradientUnits="userSpaceOnUse" id="TOF_Logoverlauf" x1="73.42" x2="73.42" y1="111.51" y2="46.1">
			
      
			<stop offset="0" stop-color="#636a6d"/>
			
      
			<stop offset="1" stop-color="#92989b"/>
			
    
		</linearGradient>
		
    
		<linearGradient id="TOF_Logoverlauf-2" x1="451.07" x2="451.07" xlink:href="#TOF_Logoverlauf" y1="111.51" y2="26.22"/>
		
    
		<linearGradient id="TOF_Logoverlauf-3" x1="608.53" x2="608.53" xlink:href="#TOF_Logoverlauf" y1="111.51" y2="47.22"/>
		
    
		<linearGradient id="TOF_Logoverlauf-4" x1="540.64" x2="540.64" xlink:href="#TOF_Logoverlauf" y1="112.68" y2="46.04"/>
		
    
		<linearGradient id="TOF_Logoverlauf-5" x1="490.56" x2="490.56" xlink:href="#TOF_Logoverlauf" y1="111.51" y2="27.39"/>
		
    
		<linearGradient id="TOF_Logoverlauf-6" x1="364.41" x2="364.41" xlink:href="#TOF_Logoverlauf" y1="112.68" y2="46.04"/>
		
    
		<linearGradient id="TOF_Logoverlauf-7" x1="412.84" x2="412.84" xlink:href="#TOF_Logoverlauf" y1="83.13" y2="70.27"/>
		
    
		<linearGradient id="TOF_Logoverlauf-8" x1="313.96" x2="313.96" xlink:href="#TOF_Logoverlauf" y1="83.13" y2="70.27"/>
		
    
		<linearGradient id="TOF_Logoverlauf-9" x1="267.99" x2="267.99" xlink:href="#TOF_Logoverlauf" y1="112.68" y2="46.04"/>
		
    
		<linearGradient id="TOF_Logoverlauf-10" x1="197.85" x2="197.85" xlink:href="#TOF_Logoverlauf" y1="111.51" y2="46.04"/>
		
    
		<linearGradient id="TOF_Logoverlauf-11" x1="125.08" x2="125.08" xlink:href="#TOF_Logoverlauf" y1="112.68" y2="46.04"/>
		
    
		<linearGradient id="TOF_Logoverlauf-12" x1="22.71" x2="22.71" xlink:href="#TOF_Logoverlauf" y1="112.68" y2="27.39"/>
		
  
	</defs>
	
  
	<title>tof_logo</title>
	
  
	<g>
		
    
		
		
    
		
		
    
		
		
    
		
		
    
		
		
    
		
		
    
		
		
    
		
		
    
		
		
    
		
		
    
		
		
    
		
		
    
		<path animation_id="12" d="M42.6,47.45H27L30,31a3.26,3.26,0,0,0-.48-2.6,2.67,2.67,0,0,0-2.27-1H14.82a3.88,3.88,0,0,0-2.61,1A4.47,4.47,0,0,0,10.76,31L.79,86.29Q-4,112.74,20,112.68a81.86,81.86,0,0,0,15-1.14,5.29,5.29,0,0,0,2.7-1.2,3.83,3.83,0,0,0,1.39-2.28l1.1-6.1a3,3,0,0,0-.53-2.51,2.83,2.83,0,0,0-2.31-1H35.32a33,33,0,0,0-3.69.35,30.6,30.6,0,0,1-4.08.36c-3,0-5.16-1.09-6.54-3.3s-1.72-5.31-1-9.34l4.46-24.9H40a3.87,3.87,0,0,0,2.61-1,4.34,4.34,0,0,0,1.44-2.59l1.27-7a3.18,3.18,0,0,0-.49-2.59A2.68,2.68,0,0,0,42.6,47.45Z" fill="url(#TOF_Logoverlauf-12)" stroke="black"/>
		
  
	</g>
	

</svg>