<?xml version="1.0" encoding="iso-8859-1"?><svg height="105.45" id="svg2" version="1.1" viewBox="0 0 602.36249 105.45" width="602.36249" xml:space="preserve" xmlns="http://www.w3.org/2000/svg" xmlns:cc="http://creativecommons.org/ns#" xmlns:dc="http://purl.org/dc/elements/1.1/" xmlns:rdf="http://www.w3.org/1999/02/22-rdf-syntax-ns#" xmlns:svg="http://www.w3.org/2000/svg">
	<metadata id="metadata8">
		<rdf:RDF>
			<cc:Work rdf:about="">
				<dc:format>image/svg+xml</dc:format>
				<dc:type rdf:resource="http://purl.org/dc/dcmitype/StillImage"/>
			</cc:Work>
		</rdf:RDF>
	</metadata>
	<defs id="defs6"/>
	<g id="g10" transform="matrix(1.25,0,0,-1.25,0,105.45)">
		<g id="g12" transform="scale(0.1,0.1)">
			
			
			
			
			<path animation_id="4" d="m 1028.24,390.105 -51.334,0 0,405.653 48.954,0 c 113.4,0 189.81,-64.617 189.81,-199.832 l 0,-2.391 c 0,-130.433 -72.83,-203.43 -187.43,-203.43 z m 95.51,-29.921 c 90.73,34.711 144.44,118.468 144.44,234.543 l 0,2.39 c 0,156.762 -94.31,246.512 -239.95,246.512 l -103.853,0 0,-843.629 52.519,0 0,343.441 46.554,0 c 16.72,0 32.23,1.192 46.56,3.59 L 1224.23,0 l 62.08,0 -162.56,360.184" id="path22" stroke="black" style="fill:#231f20;fill-opacity:1;fill-rule:nonzero;"/>
			
		</g>
	</g>
</svg>