<?xml version="1.0" encoding="iso-8859-1"?><!-- Generator: Adobe Illustrator 15.1.0, SVG Export Plug-In . SVG Version: 6.00 Build 0)  --><!DOCTYPE svg  PUBLIC '-//W3C//DTD SVG 1.1//EN'  'http://www.w3.org/Graphics/SVG/1.1/DTD/svg11.dtd'><svg enable-background="new 0 0 120 43" height="43px" id="Ebene_1" version="1.1" viewBox="0 0 120 43" width="120px" x="0px" xml:space="preserve" xmlns="http://www.w3.org/2000/svg" xmlns:xlink="http://www.w3.org/1999/xlink" y="0px">
	

	
	

	
	

	<path animation_id="0" d="M46.221,33.764l-0.289-3.754c-0.122-1.47-0.944-2.334-1.961-2.623v-0.048c1.983-0.578,2.66-2.312,2.66-3.927  c0-1.879-1.063-3.538-2.347-4.162c-0.944-0.459-2.128-0.627-4.087-0.627H25.812v17.161h6.827v-5.29h4.844  c1.26,0,1.694,0.772,1.769,2.045c0.12,1.994,0.12,2.739,0.363,3.245h7.452C46.631,35.255,46.293,34.532,46.221,33.764z   M37.483,26.163H32.64v-3.21h4.746c1.139,0,1.986,0.313,1.986,1.615C39.372,25.636,38.814,26.163,37.483,26.163z" fill="#FFFFFF" stroke="black"/>
	

	
	

	
	

	
	

</svg>