<?xml version="1.0" encoding="iso-8859-1"?><!-- Created with Inkscape (http://www.inkscape.org/) --><svg height="171.85039" id="svg3165" version="1.1" width="892.91339" xmlns="http://www.w3.org/2000/svg" xmlns:cc="http://creativecommons.org/ns#" xmlns:dc="http://purl.org/dc/elements/1.1/" xmlns:rdf="http://www.w3.org/1999/02/22-rdf-syntax-ns#" xmlns:svg="http://www.w3.org/2000/svg">
	
  
	<defs id="defs3167"/>
	
  
	<metadata id="metadata3170">
		
    
		<rdf:RDF>
			
      
			<cc:Work rdf:about="">
				
        
				<dc:format>image/svg+xml</dc:format>
				
        
				<dc:type rdf:resource="http://purl.org/dc/dcmitype/StillImage"/>
				
        
				<dc:title/>
				
      
			</cc:Work>
			
    
		</rdf:RDF>
		
  
	</metadata>
	
  
	<g id="layer1" transform="translate(63.039852,-491.09548)">
		
    
		<g id="g3230" transform="matrix(3.8146076,0,0,3.8146076,-951.6958,-1453.7321)">
			
      
			<g id="g3017" transform="matrix(1.25,0,0,-1.25,288.68869,516.59344)">
				
        
				
				
      
			</g>
			
      
			<g id="g3021" transform="matrix(1.25,0,0,-1.25,296.94044,516.59344)">
				
        
				
				
      
			</g>
			
      
			<g id="g3025" transform="matrix(1.25,0,0,-1.25,244.92143,544.48105)">
				
        
				
				
      
			</g>
			
      
			<g id="g3029" transform="matrix(1.25,0,0,-1.25,263.8388,527.15706)">
				
        
				
				
      
			</g>
			
      
			<g id="g3033" transform="matrix(1.25,0,0,-1.25,280.63794,542.38631)">
				
        
				
				
      
			</g>
			
      
			<g id="g3037" transform="matrix(1.25,0,0,-1.25,351.81905,539.75355)">
				
        
				
				
      
			</g>
			
      
			<g id="g3041" transform="matrix(1.25,0,0,-1.25,365.87455,543.30269)">
				
        
				<path animation_id="6" d="m 0,0 c 0.715,-0.47 1.504,-0.808 2.35,-1.034 0.846,-0.226 1.768,-0.338 2.783,-0.338 0.808,0 1.598,0.075 2.387,0.263 0.79,0.188 1.58,0.47 2.369,0.827 l 0,5.246 C 9.213,4.212 8.517,3.686 7.84,3.347 7.163,3.008 6.43,2.839 5.64,2.839 4.23,2.839 3.083,3.29 2.162,4.231 1.26,5.152 0.808,6.318 0.808,7.727 c 0,1.504 0.452,2.726 1.336,3.667 0.883,0.939 2.067,1.409 3.496,1.409 0.79,0 1.523,-0.169 2.2,-0.507 0.677,-0.357 1.373,-0.884 2.049,-1.598 l 0,5.208 C 9.1,16.282 8.31,16.545 7.52,16.733 6.731,16.921 5.941,17.015 5.133,17.015 3.779,17.015 2.575,16.789 1.486,16.376 0.376,15.943 -0.602,15.323 -1.466,14.458 -2.388,13.575 -3.083,12.578 -3.534,11.469 -4.004,10.379 -4.23,9.156 -4.23,7.821 -4.23,6.148 -3.873,4.644 -3.139,3.309 -2.426,1.974 -1.373,0.884 0,0" id="path3043" stroke="black" style="fill:#154281;fill-opacity:1;fill-rule:evenodd;"/>
				
      
			</g>
			
      
			<g id="g3045" transform="matrix(1.25,0,0,-1.25,387.9173,535.54718)">
				
        
				
				
      
			</g>
			
      
			<g id="g3049" transform="matrix(1.25,0,0,-1.25,420.68693,539.35419)">
				
        
				
				
      
			</g>
			
      
			<g id="g3053" transform="matrix(1.25,0,0,-1.25,438.0498,539.56532)">
				
        
				
				
      
			</g>
			
      
			<g id="g3057" transform="matrix(1.25,0,0,-1.25,452.19731,532.25706)">
				
        
				
				
      
			</g>
			
      
			<g id="g3061" transform="matrix(1.25,0,0,-1.25,307.40107,544.46719)">
				
        
				
				
      
			</g>
			
      
			<g id="g3065" transform="matrix(1.25,0,0,-1.25,339.68918,544.46719)">
				
        
				
				
      
			</g>
			
    
		</g>
		
  
	</g>
	

</svg>