<?xml version="1.0" encoding="iso-8859-1"?><!-- Created with Inkscape (http://www.inkscape.org/) --><svg height="171.85039" id="svg3165" version="1.1" width="892.91339" xmlns="http://www.w3.org/2000/svg" xmlns:cc="http://creativecommons.org/ns#" xmlns:dc="http://purl.org/dc/elements/1.1/" xmlns:rdf="http://www.w3.org/1999/02/22-rdf-syntax-ns#" xmlns:svg="http://www.w3.org/2000/svg">
	
  
	<defs id="defs3167"/>
	
  
	<metadata id="metadata3170">
		
    
		<rdf:RDF>
			
      
			<cc:Work rdf:about="">
				
        
				<dc:format>image/svg+xml</dc:format>
				
        
				<dc:type rdf:resource="http://purl.org/dc/dcmitype/StillImage"/>
				
        
				<dc:title/>
				
      
			</cc:Work>
			
    
		</rdf:RDF>
		
  
	</metadata>
	
  
	<g id="layer1" transform="translate(63.039852,-491.09548)">
		
    
		<g id="g3230" transform="matrix(3.8146076,0,0,3.8146076,-951.6958,-1453.7321)">
			
      
			<g id="g3017" transform="matrix(1.25,0,0,-1.25,288.68869,516.59344)">
				
        
				
				
      
			</g>
			
      
			<g id="g3021" transform="matrix(1.25,0,0,-1.25,296.94044,516.59344)">
				
        
				
				
      
			</g>
			
      
			<g id="g3025" transform="matrix(1.25,0,0,-1.25,244.92143,544.48105)">
				
        
				
				
      
			</g>
			
      
			<g id="g3029" transform="matrix(1.25,0,0,-1.25,263.8388,527.15706)">
				
        
				
				
      
			</g>
			
      
			<g id="g3033" transform="matrix(1.25,0,0,-1.25,280.63794,542.38631)">
				
        
				
				
      
			</g>
			
      
			<g id="g3037" transform="matrix(1.25,0,0,-1.25,351.81905,539.75355)">
				
        
				
				
      
			</g>
			
      
			<g id="g3041" transform="matrix(1.25,0,0,-1.25,365.87455,543.30269)">
				
        
				
				
      
			</g>
			
      
			<g id="g3045" transform="matrix(1.25,0,0,-1.25,387.9173,535.54718)">
				
        
				
				
      
			</g>
			
      
			<g id="g3049" transform="matrix(1.25,0,0,-1.25,420.68693,539.35419)">
				
        
				
				
      
			</g>
			
      
			<g id="g3053" transform="matrix(1.25,0,0,-1.25,438.0498,539.56532)">
				
        
				
				
      
			</g>
			
      
			<g id="g3057" transform="matrix(1.25,0,0,-1.25,452.19731,532.25706)">
				
        
				
				
      
			</g>
			
      
			<g id="g3061" transform="matrix(1.25,0,0,-1.25,307.40107,544.46719)">
				
        
				<path animation_id="11" d="m 0,0 0,13.387 -4.136,0 0,4.136 13.273,0 0,-4.136 -4.117,0 L 5.02,0" id="path3063" stroke="black" style="fill:#154281;fill-opacity:1;fill-rule:evenodd;"/>
				
      
			</g>
			
      
			<g id="g3065" transform="matrix(1.25,0,0,-1.25,339.68918,544.46719)">
				
        
				
				
      
			</g>
			
    
		</g>
		
  
	</g>
	

</svg>