<?xml version="1.0" encoding="iso-8859-1"?><!-- Created with Inkscape (http://www.inkscape.org/) --><svg height="171.85039" id="svg3165" version="1.1" width="892.91339" xmlns="http://www.w3.org/2000/svg" xmlns:cc="http://creativecommons.org/ns#" xmlns:dc="http://purl.org/dc/elements/1.1/" xmlns:rdf="http://www.w3.org/1999/02/22-rdf-syntax-ns#" xmlns:svg="http://www.w3.org/2000/svg">
	
  
	<defs id="defs3167"/>
	
  
	<metadata id="metadata3170">
		
    
		<rdf:RDF>
			
      
			<cc:Work rdf:about="">
				
        
				<dc:format>image/svg+xml</dc:format>
				
        
				<dc:type rdf:resource="http://purl.org/dc/dcmitype/StillImage"/>
				
        
				<dc:title/>
				
      
			</cc:Work>
			
    
		</rdf:RDF>
		
  
	</metadata>
	
  
	<g id="layer1" transform="translate(63.039852,-491.09548)">
		
    
		<g id="g3230" transform="matrix(3.8146076,0,0,3.8146076,-951.6958,-1453.7321)">
			
      
			<g id="g3017" transform="matrix(1.25,0,0,-1.25,288.68869,516.59344)">
				
        
				
				
      
			</g>
			
      
			<g id="g3021" transform="matrix(1.25,0,0,-1.25,296.94044,516.59344)">
				
        
				
				
      
			</g>
			
      
			<g id="g3025" transform="matrix(1.25,0,0,-1.25,244.92143,544.48105)">
				
        
				
				
      
			</g>
			
      
			<g id="g3029" transform="matrix(1.25,0,0,-1.25,263.8388,527.15706)">
				
        
				
				
      
			</g>
			
      
			<g id="g3033" transform="matrix(1.25,0,0,-1.25,280.63794,542.38631)">
				
        
				
				
      
			</g>
			
      
			<g id="g3037" transform="matrix(1.25,0,0,-1.25,351.81905,539.75355)">
				
        
				<path animation_id="5" d="m 0,0 c -0.432,-0.339 -0.977,-0.527 -1.654,-0.527 -0.714,0 -1.448,0.207 -2.162,0.602 -0.734,0.395 -1.448,1.015 -2.2,1.805 l -2.256,-3.554 c 0.977,-0.883 1.974,-1.522 3.027,-1.955 1.034,-0.414 2.2,-0.62 3.497,-0.62 2.124,0 3.835,0.564 5.132,1.711 1.279,1.127 1.918,2.613 1.918,4.474 0,0.733 -0.113,1.41 -0.339,2.012 C 4.738,4.549 4.4,5.057 3.967,5.49 3.329,6.129 1.974,6.693 -0.075,7.22 -0.169,7.257 -0.244,7.275 -0.301,7.295 -1.241,7.52 -1.88,7.783 -2.218,8.047 -2.538,8.31 -2.707,8.648 -2.707,9.1 c 0,0.431 0.188,0.789 0.564,1.052 0.376,0.282 0.865,0.414 1.466,0.414 0.584,0 1.185,-0.113 1.786,-0.357 C 1.711,9.983 2.294,9.625 2.858,9.174 l 1.579,3.422 c -0.827,0.527 -1.673,0.921 -2.594,1.185 -0.903,0.263 -1.861,0.395 -2.877,0.395 -1.879,0 -3.403,-0.527 -4.568,-1.598 C -6.787,11.525 -7.37,10.152 -7.37,8.479 -7.37,7.201 -6.993,6.166 -6.242,5.433 -5.508,4.7 -4.249,4.08 -2.444,3.628 -1.128,3.29 -0.282,2.97 0.094,2.651 0.47,2.331 0.64,1.88 0.64,1.297 0.64,0.771 0.432,0.338 0,0" id="path3039" stroke="black" style="fill:#154281;fill-opacity:1;fill-rule:evenodd;"/>
				
      
			</g>
			
      
			<g id="g3041" transform="matrix(1.25,0,0,-1.25,365.87455,543.30269)">
				
        
				
				
      
			</g>
			
      
			<g id="g3045" transform="matrix(1.25,0,0,-1.25,387.9173,535.54718)">
				
        
				
				
      
			</g>
			
      
			<g id="g3049" transform="matrix(1.25,0,0,-1.25,420.68693,539.35419)">
				
        
				
				
      
			</g>
			
      
			<g id="g3053" transform="matrix(1.25,0,0,-1.25,438.0498,539.56532)">
				
        
				
				
      
			</g>
			
      
			<g id="g3057" transform="matrix(1.25,0,0,-1.25,452.19731,532.25706)">
				
        
				
				
      
			</g>
			
      
			<g id="g3061" transform="matrix(1.25,0,0,-1.25,307.40107,544.46719)">
				
        
				
				
      
			</g>
			
      
			<g id="g3065" transform="matrix(1.25,0,0,-1.25,339.68918,544.46719)">
				
        
				
				
      
			</g>
			
    
		</g>
		
  
	</g>
	

</svg>