<?xml version="1.0" encoding="iso-8859-1"?><!-- Created with Inkscape (http://www.inkscape.org/) --><svg height="171.85039" id="svg3165" version="1.1" width="892.91339" xmlns="http://www.w3.org/2000/svg" xmlns:cc="http://creativecommons.org/ns#" xmlns:dc="http://purl.org/dc/elements/1.1/" xmlns:rdf="http://www.w3.org/1999/02/22-rdf-syntax-ns#" xmlns:svg="http://www.w3.org/2000/svg">
	
  
	<defs id="defs3167"/>
	
  
	<metadata id="metadata3170">
		
    
		<rdf:RDF>
			
      
			<cc:Work rdf:about="">
				
        
				<dc:format>image/svg+xml</dc:format>
				
        
				<dc:type rdf:resource="http://purl.org/dc/dcmitype/StillImage"/>
				
        
				<dc:title/>
				
      
			</cc:Work>
			
    
		</rdf:RDF>
		
  
	</metadata>
	
  
	<g id="layer1" transform="translate(63.039852,-491.09548)">
		
    
		<g id="g3230" transform="matrix(3.8146076,0,0,3.8146076,-951.6958,-1453.7321)">
			
      
			<g id="g3017" transform="matrix(1.25,0,0,-1.25,288.68869,516.59344)">
				
        
				
				
      
			</g>
			
      
			<g id="g3021" transform="matrix(1.25,0,0,-1.25,296.94044,516.59344)">
				
        
				
				
      
			</g>
			
      
			<g id="g3025" transform="matrix(1.25,0,0,-1.25,244.92143,544.48105)">
				
        
				
				
      
			</g>
			
      
			<g id="g3029" transform="matrix(1.25,0,0,-1.25,263.8388,527.15706)">
				
        
				
				
      
			</g>
			
      
			<g id="g3033" transform="matrix(1.25,0,0,-1.25,280.63794,542.38631)">
				
        
				
				
      
			</g>
			
      
			<g id="g3037" transform="matrix(1.25,0,0,-1.25,351.81905,539.75355)">
				
        
				
				
      
			</g>
			
      
			<g id="g3041" transform="matrix(1.25,0,0,-1.25,365.87455,543.30269)">
				
        
				
				
      
			</g>
			
      
			<g id="g3045" transform="matrix(1.25,0,0,-1.25,387.9173,535.54718)">
				
        
				
				
      
			</g>
			
      
			<g id="g3049" transform="matrix(1.25,0,0,-1.25,420.68693,539.35419)">
				
        
				
				
      
			</g>
			
      
			<g id="g3053" transform="matrix(1.25,0,0,-1.25,438.0498,539.56532)">
				
        
				
				
      
			</g>
			
      
			<g id="g3057" transform="matrix(1.25,0,0,-1.25,452.19731,532.25706)">
				
        
				<path animation_id="10" d="m 0,0 c -0.302,-0.225 -0.733,-0.376 -1.278,-0.451 -0.32,-0.057 -0.678,-0.076 -1.091,-0.076 l -0.922,0 0,4.607 0.998,0 c 0.376,0 0.714,-0.019 1.015,-0.057 C -0.696,3.929 -0.263,3.76 0.056,3.516 0.508,3.159 0.752,2.52 0.752,1.654 0.752,0.903 0.508,0.357 0,0 z m 1.579,-2.707 c 1.335,0.281 2.369,0.846 3.065,1.692 0.696,0.846 1.053,1.955 1.053,3.309 0,0.902 -0.188,1.71 -0.546,2.463 C 4.794,5.49 4.286,6.111 3.629,6.581 3.046,6.994 2.35,7.295 1.542,7.483 0.94,7.614 0,7.708 -1.278,7.727 -1.73,7.746 -2.219,7.746 -2.764,7.746 l -5.245,0 0,-17.522 4.718,0 0,6.862 6.665,-10.522 -175.341,0 -2.04,-3.943 185.137,0" id="path3059" stroke="black" style="fill:#154281;fill-opacity:1;fill-rule:evenodd;"/>
				
      
			</g>
			
      
			<g id="g3061" transform="matrix(1.25,0,0,-1.25,307.40107,544.46719)">
				
        
				
				
      
			</g>
			
      
			<g id="g3065" transform="matrix(1.25,0,0,-1.25,339.68918,544.46719)">
				
        
				
				
      
			</g>
			
    
		</g>
		
  
	</g>
	

</svg>