<?xml version="1.0" encoding="iso-8859-1"?><!-- Created with Inkscape (http://www.inkscape.org/) --><svg height="171.85039" id="svg3165" version="1.1" width="892.91339" xmlns="http://www.w3.org/2000/svg" xmlns:cc="http://creativecommons.org/ns#" xmlns:dc="http://purl.org/dc/elements/1.1/" xmlns:rdf="http://www.w3.org/1999/02/22-rdf-syntax-ns#" xmlns:svg="http://www.w3.org/2000/svg">
	
  
	<defs id="defs3167"/>
	
  
	<metadata id="metadata3170">
		
    
		<rdf:RDF>
			
      
			<cc:Work rdf:about="">
				
        
				<dc:format>image/svg+xml</dc:format>
				
        
				<dc:type rdf:resource="http://purl.org/dc/dcmitype/StillImage"/>
				
        
				<dc:title/>
				
      
			</cc:Work>
			
    
		</rdf:RDF>
		
  
	</metadata>
	
  
	<g id="layer1" transform="translate(63.039852,-491.09548)">
		
    
		<g id="g3230" transform="matrix(3.8146076,0,0,3.8146076,-951.6958,-1453.7321)">
			
      
			<g id="g3017" transform="matrix(1.25,0,0,-1.25,288.68869,516.59344)">
				
        
				
				
      
			</g>
			
      
			<g id="g3021" transform="matrix(1.25,0,0,-1.25,296.94044,516.59344)">
				
        
				
				
      
			</g>
			
      
			<g id="g3025" transform="matrix(1.25,0,0,-1.25,244.92143,544.48105)">
				
        
				
				
      
			</g>
			
      
			<g id="g3029" transform="matrix(1.25,0,0,-1.25,263.8388,527.15706)">
				
        
				<path animation_id="3" d="M 0,0 0.996,0 C 1.391,0 1.73,-0.019 2.031,-0.057 2.595,-0.151 3.046,-0.32 3.346,-0.564 3.817,-0.921 4.042,-1.56 4.042,-2.426 4.042,-3.177 3.798,-3.723 3.309,-4.08 2.989,-4.305 2.557,-4.456 2.031,-4.531 1.711,-4.588 1.335,-4.607 0.94,-4.607 L 0,-4.607 0,0 z m -4.7,-13.856 4.7,0 0,6.862 2.031,-3.29 2.199,-3.572 5.659,0 -5.001,7.069 c 1.335,0.281 2.35,0.846 3.046,1.692 0.714,0.846 1.053,1.955 1.053,3.309 0,0.902 -0.169,1.71 -0.527,2.463 C 8.103,1.41 7.595,2.031 6.938,2.501 6.336,2.914 5.64,3.215 4.832,3.403 4.23,3.534 3.309,3.628 2.031,3.647 1.579,3.666 1.072,3.666 0.545,3.666 l -5.245,0" id="path3031" stroke="black" style="fill:#154281;fill-opacity:1;fill-rule:evenodd;"/>
				
      
			</g>
			
      
			<g id="g3033" transform="matrix(1.25,0,0,-1.25,280.63794,542.38631)">
				
        
				
				
      
			</g>
			
      
			<g id="g3037" transform="matrix(1.25,0,0,-1.25,351.81905,539.75355)">
				
        
				
				
      
			</g>
			
      
			<g id="g3041" transform="matrix(1.25,0,0,-1.25,365.87455,543.30269)">
				
        
				
				
      
			</g>
			
      
			<g id="g3045" transform="matrix(1.25,0,0,-1.25,387.9173,535.54718)">
				
        
				
				
      
			</g>
			
      
			<g id="g3049" transform="matrix(1.25,0,0,-1.25,420.68693,539.35419)">
				
        
				
				
      
			</g>
			
      
			<g id="g3053" transform="matrix(1.25,0,0,-1.25,438.0498,539.56532)">
				
        
				
				
      
			</g>
			
      
			<g id="g3057" transform="matrix(1.25,0,0,-1.25,452.19731,532.25706)">
				
        
				
				
      
			</g>
			
      
			<g id="g3061" transform="matrix(1.25,0,0,-1.25,307.40107,544.46719)">
				
        
				
				
      
			</g>
			
      
			<g id="g3065" transform="matrix(1.25,0,0,-1.25,339.68918,544.46719)">
				
        
				
				
      
			</g>
			
    
		</g>
		
  
	</g>
	

</svg>