<?xml version="1.0" encoding="iso-8859-1"?><!-- Generator: Adobe Illustrator 19.2.1, SVG Export Plug-In . SVG Version: 6.00 Build 0)  --><svg id="Ebene_1" style="enable-background:new 0 0 332 365;" version="1.1" viewBox="0 0 332 365" x="0px" xml:space="preserve" xmlns="http://www.w3.org/2000/svg" xmlns:xlink="http://www.w3.org/1999/xlink" y="0px">
	

	<style type="text/css">
	.st0{fill:#333E48;}
	.st1{fill:#C6093B;}
</style>
	

	<g>
		
	
		
		
	
		
		
	
		
		
	
		
		
	
		
		
	
		
		
	
		
		
	
		
		
	
		
		
	
		<path animation_id="5" class="st0" d="M186.6,331.7c0,0.5,0,1,0.1,1.7c0,0.6,0.1,1.3,0.2,2.1c-0.4-0.8-0.7-1.6-1.1-2.2c-0.3-0.6-0.6-1-0.7-1.2   l-7.3-10h-5.1v19.4h5.1v-9.6c0-0.5,0-1-0.1-1.7c0-0.6-0.1-1.3-0.2-2.2c0.4,0.8,0.7,1.6,1.1,2.2c0.3,0.6,0.6,1,0.7,1.2l7.3,10h5.1   V322h-5.1V331.7z" stroke="black"/>
		
	
		
		
	
		
		
	
		
		
	
		
		
	
		
		
	
		
		

	</g>
	

	<g>
		
	
		
		
	
		
		

	</g>
	

</svg>