<?xml version="1.0" encoding="iso-8859-1"?><!-- Generator: Adobe Illustrator 19.2.1, SVG Export Plug-In . SVG Version: 6.00 Build 0)  --><svg id="Ebene_1" style="enable-background:new 0 0 332 365;" version="1.1" viewBox="0 0 332 365" x="0px" xml:space="preserve" xmlns="http://www.w3.org/2000/svg" xmlns:xlink="http://www.w3.org/1999/xlink" y="0px">
	

	<style type="text/css">
	.st0{fill:#333E48;}
	.st1{fill:#C6093B;}
</style>
	

	<g>
		
	
		
		
	
		
		
	
		<path animation_id="1" class="st0" d="M70.4,331.3c-0.7-0.7-2.1-1.3-4.3-1.9l-0.2-0.1c-1-0.3-1.7-0.5-2-0.8s-0.5-0.7-0.5-1.2s0.2-0.9,0.6-1.2   c0.4-0.3,0.9-0.5,1.6-0.5c0.6,0,1.2,0.1,1.9,0.4c0.6,0.3,1.2,0.6,1.9,1.2l1.7-3.8c-0.9-0.6-1.8-1-2.7-1.3c-1-0.3-2-0.4-3-0.4   c-2,0-3.6,0.6-4.8,1.8c-1.2,1.2-1.9,2.7-1.9,4.5c0,1.4,0.4,2.6,1.2,3.4s2.1,1.5,4,2c1.4,0.4,2.3,0.7,2.7,1.1   c0.4,0.3,0.6,0.8,0.6,1.5c0,0.6-0.2,1.1-0.7,1.4c-0.5,0.4-1,0.6-1.7,0.6c-0.8,0-1.5-0.2-2.3-0.7s-1.5-1.1-2.3-2l-2.4,3.9   c1,1,2.1,1.7,3.2,2.2c1.1,0.5,2.3,0.7,3.7,0.7c2.3,0,4.1-0.6,5.4-1.9c1.4-1.3,2-2.9,2-5c0-0.8-0.1-1.6-0.4-2.2   C71.3,332.3,70.9,331.7,70.4,331.3z" stroke="black"/>
		
	
		
		
	
		
		
	
		
		
	
		
		
	
		
		
	
		
		
	
		
		
	
		
		
	
		
		
	
		
		
	
		
		
	
		
		
	
		
		

	</g>
	

	<g>
		
	
		
		
	
		
		

	</g>
	

</svg>