<?xml version="1.0" encoding="iso-8859-1"?><!-- Generator: Adobe Illustrator 19.2.1, SVG Export Plug-In . SVG Version: 6.00 Build 0)  --><svg id="Ebene_1" style="enable-background:new 0 0 332 365;" version="1.1" viewBox="0 0 332 365" x="0px" xml:space="preserve" xmlns="http://www.w3.org/2000/svg" xmlns:xlink="http://www.w3.org/1999/xlink" y="0px">
	

	<style type="text/css">
	.st0{fill:#333E48;}
	.st1{fill:#C6093B;}
</style>
	

	<g>
		
	
		
		
	
		
		
	
		
		
	
		
		
	
		
		
	
		
		
	
		
		
	
		
		
	
		
		
	
		
		
	
		<path animation_id="6" class="st0" d="M215.5,330.3h-10.4v4.1h5.3c-0.2,1.1-0.7,2-1.6,2.6c-0.9,0.7-2,1-3.4,1c-1.6,0-2.8-0.5-3.7-1.6   s-1.4-2.5-1.4-4.4c0-1.8,0.5-3.3,1.4-4.3s2.2-1.6,3.7-1.6c0.8,0,1.6,0.2,2.3,0.5c0.7,0.4,1.3,0.9,1.9,1.7l4.6-2.2   c-1-1.5-2.2-2.6-3.7-3.4s-3.1-1.1-5-1.1c-1.5,0-2.8,0.2-4.1,0.7c-1.3,0.5-2.4,1.2-3.3,2.1c-1,1-1.7,2.1-2.2,3.3   c-0.5,1.2-0.7,2.5-0.7,4c0,1.4,0.3,2.7,0.8,4s1.2,2.4,2.1,3.3c1,1,2.1,1.7,3.3,2.2c1.2,0.5,2.6,0.7,4.2,0.7c3.2,0,5.7-0.9,7.4-2.8   c1.8-1.8,2.6-4.4,2.6-7.8c0-0.3,0-0.5,0-0.7C215.5,330.6,215.5,330.4,215.5,330.3z" stroke="black"/>
		
	
		
		
	
		
		
	
		
		
	
		
		
	
		
		

	</g>
	

	<g>
		
	
		
		
	
		
		

	</g>
	

</svg>