<?xml version="1.0" encoding="iso-8859-1"?><!-- Generator: Adobe Illustrator 19.2.1, SVG Export Plug-In . SVG Version: 6.00 Build 0)  --><svg id="Ebene_1" style="enable-background:new 0 0 332 365;" version="1.1" viewBox="0 0 332 365" x="0px" xml:space="preserve" xmlns="http://www.w3.org/2000/svg" xmlns:xlink="http://www.w3.org/1999/xlink" y="0px">
	

	<style type="text/css">
	.st0{fill:#333E48;}
	.st1{fill:#C6093B;}
</style>
	

	<g>
		
	
		
		
	
		
		
	
		
		
	
		
		
	
		
		
	
		
		
	
		
		
	
		
		
	
		
		
	
		
		
	
		
		
	
		
		
	
		
		
	
		
		
	
		
		
	
		
		

	</g>
	

	<g>
		
	
		
		
	
		<path animation_id="11" class="st1" d="M269.8,131.6c-6.6-8.6-16.4-15-29.4-19c10.8-4.6,18.9-10.3,24.4-17.3c5.4-7,8.1-15.3,8.1-24.7   c0-16-5.6-28.4-16.7-37.3C245,24.4,229.3,20,209,20h-67.6l0,0c-10.4,0-18.9,8.5-18.9,18.9l0,0v160.6l0,0l0,0   c0,10.4,8.5,18.9,18.9,18.9l0,0h74.1c19.6,0,35.2-5,46.8-15c11.6-10,17.4-23.3,17.4-39.8C279.7,150.9,276.4,140.3,269.8,131.6z    M226.9,56.8c5.3,4.1,7.9,9.8,7.9,16.9c0,7.6-2.6,13.6-7.9,18c-5.3,4.4-12.6,6.6-22,6.6h-44.7V50.6h45   C214.4,50.6,221.6,52.7,226.9,56.8z M232.3,179.9c-5.8,5-14.4,7.5-25.6,7.5h-46.5v-58.5h45c11.3,0,20.1,2.6,26.4,7.8   s9.4,12.4,9.4,21.6C241.1,167.7,238.2,174.9,232.3,179.9z" stroke="black"/>
		

	</g>
	

</svg>