<?xml version="1.0" encoding="iso-8859-1"?><!-- Generator: Adobe Illustrator 19.2.1, SVG Export Plug-In . SVG Version: 6.00 Build 0)  --><svg id="Ebene_1" style="enable-background:new 0 0 332 365;" version="1.1" viewBox="0 0 332 365" x="0px" xml:space="preserve" xmlns="http://www.w3.org/2000/svg" xmlns:xlink="http://www.w3.org/1999/xlink" y="0px">
	

	<style type="text/css">
	.st0{fill:#333E48;}
	.st1{fill:#C6093B;}
</style>
	

	<g>
		
	
		
		
	
		
		
	
		
		
	
		
		
	
		<path animation_id="2" class="st0" d="M98.9,331.1c1.2-0.3,2.1-0.8,2.7-1.5c0.6-0.7,0.8-1.5,0.8-2.6c0-0.9-0.2-1.6-0.6-2.3c-0.4-0.7-0.9-1.2-1.6-1.6   c-0.6-0.3-1.4-0.6-2.2-0.7c-0.9-0.1-2.4-0.2-4.6-0.2h-5.3v19.4h5.5c2.2,0,3.8-0.1,4.8-0.2s1.8-0.4,2.5-0.8c0.8-0.4,1.4-1,1.9-1.8   c0.4-0.8,0.7-1.7,0.7-2.7c0-1.4-0.4-2.6-1.2-3.5C101.4,331.7,100.3,331.2,98.9,331.1z M93,326h1.1c1.3,0,2.2,0.1,2.7,0.4   s0.7,0.8,0.7,1.5s-0.2,1.2-0.7,1.5s-1.4,0.4-2.7,0.4H93V326z M97.5,337.1c-0.5,0.3-1.4,0.5-2.7,0.5H93v-4.2h1.9   c1.3,0,2.2,0.2,2.7,0.5s0.7,0.9,0.7,1.7C98.3,336.3,98,336.8,97.5,337.1z" stroke="black"/>
		
	
		
		
	
		
		
	
		
		
	
		
		
	
		
		
	
		
		
	
		
		
	
		
		
	
		
		
	
		
		
	
		
		

	</g>
	

	<g>
		
	
		
		
	
		
		

	</g>
	

</svg>