<?xml version="1.0" encoding="iso-8859-1"?><svg height="21.164787mm" id="svg4665" version="1.1" viewBox="0 0 500.07403 74.99334" width="141.132mm" xmlns="http://www.w3.org/2000/svg" xmlns:cc="http://creativecommons.org/ns#" xmlns:dc="http://purl.org/dc/elements/1.1/" xmlns:rdf="http://www.w3.org/1999/02/22-rdf-syntax-ns#" xmlns:svg="http://www.w3.org/2000/svg">
	
  
	<defs id="defs4667">
		
    
		<clipPath clipPathUnits="userSpaceOnUse" id="clipPath4535">
			
      
			
			
    
		</clipPath>
		
  
	</defs>
	
  
	<metadata id="metadata4670">
		
    
		<rdf:RDF>
			
      
			<cc:Work rdf:about="">
				
        
				<dc:format>image/svg+xml</dc:format>
				
        
				<dc:type rdf:resource="http://purl.org/dc/dcmitype/StillImage"/>
				
        
				<dc:title/>
				
      
			</cc:Work>
			
    
		</rdf:RDF>
		
  
	</metadata>
	
  
	<g id="layer1" transform="translate(-1.379233e-5,-977.36886)">
		
    
		
		
    
		
		
    
		
		
    
		
		
    
		
		
    
		
		
    
		
		
    
		
		
    
		
		
    
		
		
    
		
		
    
		
		
    
		
		
    
		
		
    
		
		
    
		
		
    
		
		
    
		<path animation_id="18" d="m 224.79318,1050.9592 c 0.895,0 1.6475,-0.28 2.255,-0.7975 0.6675,-0.5825 1.02,-1.44 1.0325,-2.56 -0.0275,-1.1625 -0.0425,-2.4425 -0.09,-3.88 -0.0675,-2.8575 -0.0675,-6.095 -0.0675,-9.63 l 0,-8.505 c 0,-3.915 -1.15,-6.925 -3.455,-8.9574 -1.8275,-1.655 -3.99499,-2.4825 -6.56999,-2.4825 -3.79249,0 -6.38999,1.3075 -9.36999,4.6174 -0.195,0.215 -0.77999,0.87 -1.13249,1.25 -0.5725,-1.3225 -1.37,-2.46 -2.4175,-3.3849 -1.8275,-1.655 -3.99499,-2.4825 -6.56999,-2.4825 -3.7925,0 -6.39249,1.3075 -9.37249,4.6174 -0.2025,0.225 -0.3775,0.4225 -0.445,0.4225 -0.1375,0 -0.1825,-0.1625 -0.23,-0.3825 -0.2025,-0.9325 -0.3275,-1.9074 -0.665,-3.4874 -0.0675,-0.4525 -0.27249,-0.6775 -0.47499,-0.6775 -2.845,0.375 -5.2575,0.4275 -7.35499,0.505 -0.3175,0 -0.45,0.07 -0.4675,0.26 0.025,0.12 0.1225,1.46 0.3025,3.8999 0.21,2.87 0.44,5.83 0.44,8.915 l 0,7.7525 c 0,3.3875 -0.0675,6.8475 -0.135,10.385 -0.055,2.835 -0.1075,4.315 -0.1275,4.5175 0.0175,0.1625 0.0875,0.2225 0.2625,0.2225 0.2725,0 0.94999,0 2.03249,-0.075 0.6275,-0.04 1.1225,-0.058 1.51,-0.065 l 0,0 c 1.355,0 2.495,-0.42 3.4175,-1.205 1.01999,-0.8975 1.55999,-2.2075 1.56999,-3.93 -0.065,-3.66 -0.13,-7.3175 -0.13,-11.05 l 0.1375,-4.63 c 0,-0.6025 0.4925,-2.525 0.8475,-3.275 1.835,-3.86 3.955,-5.4975 6.93499,-5.4975 2.505,0 3.5725,2.6375 3.5725,7.23 l 0,5.72 c 0,3.6125 0,6.85 -0.0675,9.63 -0.0675,3.915 -0.2025,7 -0.2025,6.775 0,0.225 0.0675,0.375 0.27,0.375 0.2725,0 0.95,0 2.09999,-0.075 1.1525,-0.075 1.83,-0.075 2.1675,-0.075 0.2025,0 0.5425,0 0.9975,0.017 l 0,0 c 0.895,0 1.6475,-0.2775 2.2575,-0.795 0.67249,-0.5925 1.02999,-1.46 1.03499,-2.5975 -0.0275,-1.155 -0.0425,-2.425 -0.09,-3.85 -0.0675,-2.8575 -0.0675,-6.095 -0.0675,-9.63 l 0,-4.0225 0.002,0.01 c -0.002,-0.028 0,-0.06 -0.002,-0.088 l 0,-0.51 c 0.045,-0.905 0.31,-2.04 0.585,-2.615 1.8325,-3.86 3.5275,-5.4975 6.50499,-5.4975 2.5075,0 4.0025,2.6375 4.0025,7.23 l 0,5.72 c 0,3.6125 0,6.85 -0.0675,9.63 -0.07,3.915 -0.205,7 -0.205,6.775 0,0.225 0.0675,0.375 0.2725,0.375 0.27,0 0.9475,0 2.09999,-0.075 1.15,-0.075 1.8275,-0.075 2.165,-0.075 0.2025,0 0.545,0 1.0025,0.02 l 0,-0.01 z" id="path4609" stroke="black" style="fill:#4a4a49;fill-opacity:1;fill-rule:nonzero;"/>
		
    
		
		
  
	</g>
	

</svg>