<?xml version="1.0" encoding="iso-8859-1"?><svg height="21.164787mm" id="svg4665" version="1.1" viewBox="0 0 500.07403 74.99334" width="141.132mm" xmlns="http://www.w3.org/2000/svg" xmlns:cc="http://creativecommons.org/ns#" xmlns:dc="http://purl.org/dc/elements/1.1/" xmlns:rdf="http://www.w3.org/1999/02/22-rdf-syntax-ns#" xmlns:svg="http://www.w3.org/2000/svg">
	
  
	<defs id="defs4667">
		
    
		<clipPath clipPathUnits="userSpaceOnUse" id="clipPath4535">
			
      
			
			
    
		</clipPath>
		
  
	</defs>
	
  
	<metadata id="metadata4670">
		
    
		<rdf:RDF>
			
      
			<cc:Work rdf:about="">
				
        
				<dc:format>image/svg+xml</dc:format>
				
        
				<dc:type rdf:resource="http://purl.org/dc/dcmitype/StillImage"/>
				
        
				<dc:title/>
				
      
			</cc:Work>
			
    
		</rdf:RDF>
		
  
	</metadata>
	
  
	<g id="layer1" transform="translate(-1.379233e-5,-977.36886)">
		
    
		
		
    
		
		
    
		
		
    
		
		
    
		
		
    
		
		
    
		
		
    
		
		
    
		
		
    
		
		
    
		
		
    
		
		
    
		
		
    
		
		
    
		
		
    
		
		
    
		
		
    
		
		
    
		<path animation_id="19" d="m 346.742,1050.436 c 0.665,-0.5825 1.015,-1.435 1.0325,-2.5475 -0.03,-1.17 -0.045,-2.46 -0.0925,-3.905 -0.0675,-2.86 -0.0675,-6.095 -0.0675,-9.6325 l 0,-8.505 c 0,-3.915 -1.1525,-6.925 -3.455,-8.9575 -1.82749,-1.6549 -3.99499,-2.4824 -6.56999,-2.4824 -3.79249,0 -6.81749,1.3075 -9.79998,4.6174 -0.2025,0.2275 -0.3775,0.425 -0.445,0.425 -0.135,0 -0.1825,-0.1625 -0.23,-0.385 -0.2025,-0.9325 -0.325,-1.9075 -0.665,-3.4874 -0.0675,-0.4525 -0.27,-0.6775 -0.475,-0.6775 -2.845,0.3775 -5.25499,0.43 -7.35499,0.505 -0.315,0 -0.45,0.07 -0.4675,0.26 0.025,0.12 0.1225,1.4624 0.3025,3.9024 0.2125,2.8675 0.4425,5.8275 0.4425,8.9125 l 0,7.755 c 0,3.385 -0.07,6.845 -0.1375,10.3825 -0.055,2.8375 -0.1075,4.315 -0.1275,4.52 0.0175,0.16 0.0875,0.2225 0.265,0.2225 0.27,0 0.9475,0 2.03,-0.075 0.635,-0.043 1.1325,-0.06 1.52,-0.068 1.35749,0 2.49749,-0.4225 3.41749,-1.2075 0.98,-0.8575 1.5125,-2.105 1.565,-3.7275 -0.0675,-3.7275 -0.135,-7.4525 -0.135,-11.2525 l 0.1375,-4.63 c 0,-0.6 0.4925,-2.5225 0.85,-3.275 1.83499,-3.86 3.95249,-5.4975 6.93249,-5.4975 2.50749,0 4.00249,2.64 4.00249,7.23 l 0,5.72 c 0,3.6125 0,6.85 -0.0675,9.6325 -0.07,3.9125 -0.205,7 -0.205,6.7725 0,0.2275 0.0675,0.3775 0.2725,0.3775 0.27,0 0.9475,0 2.0975,-0.075 1.1525,-0.075 1.83,-0.075 2.16749,-0.075 0.2125,0 0.5675,0 1.0575,0.02 0.87,-0.013 1.605,-0.285 2.2025,-0.7925" id="path4613" stroke="black" style="fill:#4a4a49;fill-opacity:1;fill-rule:nonzero;"/>
		
  
	</g>
	

</svg>