<?xml version="1.0" encoding="iso-8859-1"?><svg height="21.164787mm" id="svg4665" version="1.1" viewBox="0 0 500.07403 74.99334" width="141.132mm" xmlns="http://www.w3.org/2000/svg" xmlns:cc="http://creativecommons.org/ns#" xmlns:dc="http://purl.org/dc/elements/1.1/" xmlns:rdf="http://www.w3.org/1999/02/22-rdf-syntax-ns#" xmlns:svg="http://www.w3.org/2000/svg">
	
  
	<defs id="defs4667">
		
    
		<clipPath clipPathUnits="userSpaceOnUse" id="clipPath4535">
			
      
			
			
    
		</clipPath>
		
  
	</defs>
	
  
	<metadata id="metadata4670">
		
    
		<rdf:RDF>
			
      
			<cc:Work rdf:about="">
				
        
				<dc:format>image/svg+xml</dc:format>
				
        
				<dc:type rdf:resource="http://purl.org/dc/dcmitype/StillImage"/>
				
        
				<dc:title/>
				
      
			</cc:Work>
			
    
		</rdf:RDF>
		
  
	</metadata>
	
  
	<g id="layer1" transform="translate(-1.379233e-5,-977.36886)">
		
    
		
		
    
		
		
    
		<path animation_id="3" d="m 251.53889,1051.9852 c -4.99249,0 -9.15749,-1.6425 -12.50748,-4.91 -3.425,-3.5025 -5.13749,-8.0425 -5.13749,-13.625 0,-5.7375 1.71249,-10.35 5.20999,-13.845 3.49499,-3.5049 7.96749,-5.2124 13.39998,-5.2124 4.83749,0 8.93499,1.4925 12.20998,4.5449 3.6425,3.3425 5.42999,7.96 5.42999,13.8425 0,5.4325 -1.565,9.895 -4.76249,13.3975 -3.4275,3.87 -8.03999,5.8075 -13.84248,5.8075 m 0.22,-30.45 c -5.28499,0 -8.40999,4.69 -8.40999,11.245 0,7.37 4.02,11.98 8.85749,11.98 2.305,0 4.24499,-0.9675 5.80999,-2.8225 1.7825,-2.085 2.675,-4.77 2.675,-8.115 0,-3.35 -0.82,-6.2575 -2.3825,-8.635 -1.565,-2.455 -3.79749,-3.6525 -6.54999,-3.6525" id="path4549" stroke="black" style="fill:#4a4a49;fill-opacity:1;fill-rule:nonzero;"/>
		
    
		
		
    
		
		
    
		
		
    
		
		
    
		
		
    
		
		
    
		
		
    
		
		
    
		
		
    
		
		
    
		
		
    
		
		
    
		
		
    
		
		
    
		
		
    
		
		
  
	</g>
	

</svg>