<?xml version="1.0" encoding="iso-8859-1"?><svg height="21.164787mm" id="svg4665" version="1.1" viewBox="0 0 500.07403 74.99334" width="141.132mm" xmlns="http://www.w3.org/2000/svg" xmlns:cc="http://creativecommons.org/ns#" xmlns:dc="http://purl.org/dc/elements/1.1/" xmlns:rdf="http://www.w3.org/1999/02/22-rdf-syntax-ns#" xmlns:svg="http://www.w3.org/2000/svg">
	
  
	<defs id="defs4667">
		
    
		<clipPath clipPathUnits="userSpaceOnUse" id="clipPath4535">
			
      
			
			
    
		</clipPath>
		
  
	</defs>
	
  
	<metadata id="metadata4670">
		
    
		<rdf:RDF>
			
      
			<cc:Work rdf:about="">
				
        
				<dc:format>image/svg+xml</dc:format>
				
        
				<dc:type rdf:resource="http://purl.org/dc/dcmitype/StillImage"/>
				
        
				<dc:title/>
				
      
			</cc:Work>
			
    
		</rdf:RDF>
		
  
	</metadata>
	
  
	<g id="layer1" transform="translate(-1.379233e-5,-977.36886)">
		
    
		
		
    
		
		
    
		
		
    
		
		
    
		<path animation_id="5" d="m 439.67636,1040.9247 c -0.0775,-0.2925 -0.295,-0.3675 -0.6675,-0.1475 -4.20499,2.2175 -7.89749,3.325 -11.06248,3.325 -4.4225,0 -8.04249,-2.29 -10.77749,-5.7625 -2.72249,-3.465 -4.04999,-9.045 -4.04999,-14.8775 0,-5.685 1.5425,-10.17 4.63999,-13.34 2.66,-2.6625 5.97999,-3.9874 9.96249,-3.9874 3.48249,0 6.90249,1.0999 10.25248,3.2349 1.29,-0.925 2.335,-2.0775 3.1225,-3.4299 0.7275,-1.305 1.1275,-2.84 1.19,-4.4 -3.895,-2.38004 -8.59999,-3.54754 -14.19498,-3.54754 -7.59749,0 -13.72248,2.43254 -18.44248,7.37754 -4.64999,4.8674 -7.01249,11.7224 -7.01249,19.3199 0,8.3325 2.435,16.0125 7.30499,20.885 4.505,4.5025 10.10999,6.7875 16.97248,6.7875 5.67999,0 11.06498,-1.3275 16.07498,-4.055 0.14999,-0.1475 0.14999,-0.295 0.0775,-0.44 -1.25749,-2.2925 -2.43499,-4.65 -3.38999,-6.9425" id="path4557" stroke="black" style="fill:#4a4a49;fill-opacity:1;fill-rule:nonzero;"/>
		
    
		
		
    
		
		
    
		
		
    
		
		
    
		
		
    
		
		
    
		
		
    
		
		
    
		
		
    
		
		
    
		
		
    
		
		
    
		
		
    
		
		
  
	</g>
	

</svg>