<?xml version="1.0" encoding="iso-8859-1"?><svg height="21.164787mm" id="svg4665" version="1.1" viewBox="0 0 500.07403 74.99334" width="141.132mm" xmlns="http://www.w3.org/2000/svg" xmlns:cc="http://creativecommons.org/ns#" xmlns:dc="http://purl.org/dc/elements/1.1/" xmlns:rdf="http://www.w3.org/1999/02/22-rdf-syntax-ns#" xmlns:svg="http://www.w3.org/2000/svg">
	
  
	<defs id="defs4667">
		
    
		<clipPath clipPathUnits="userSpaceOnUse" id="clipPath4535">
			
      
			
			
    
		</clipPath>
		
  
	</defs>
	
  
	<metadata id="metadata4670">
		
    
		<rdf:RDF>
			
      
			<cc:Work rdf:about="">
				
        
				<dc:format>image/svg+xml</dc:format>
				
        
				<dc:type rdf:resource="http://purl.org/dc/dcmitype/StillImage"/>
				
        
				<dc:title/>
				
      
			</cc:Work>
			
    
		</rdf:RDF>
		
  
	</metadata>
	
  
	<g id="layer1" transform="translate(-1.379233e-5,-977.36886)">
		
    
		
		
    
		
		
    
		
		
    
		<path animation_id="4" d="m 390.62744,1031.0693 c 0.1525,0 0.2025,0.052 0.2025,0.1525 -0.05,4.68 -1.3225,8.645 -3.81499,11.9 -0.1525,0.1525 -0.1525,0.255 0,0.4075 0.96749,1.0175 1.93249,1.5275 3.00249,1.5275 0.7625,0 1.2025,-0.015 2.07,-0.2 0.405,-0.088 0.815,0.1025 0.9225,0.5175 0.4025,1.555 0.5475,2.85 0.415,4.5125 -0.01,0.115 0,0.205 -0.155,0.255 -1.015,0.355 -2.135,0.5075 -3.305,0.5075 -2.99999,0 -5.38999,-0.9675 -7.21999,-2.95 -0.1025,-0.1525 -0.205,-0.2025 -0.3575,-0.05 -2.69499,2.135 -6.05249,3.2025 -10.06998,3.2025 -3.305,0 -6.10249,-0.965 -8.38999,-2.8975 -2.44,-2.085 -3.6625,-4.8325 -3.6625,-8.2375 0,-2.4425 0.7625,-4.63 2.2875,-6.5125 1.22,-1.525 2.8,-2.745 4.67999,-3.61 0.1525,-0.05 0.1525,-0.2025 0,-0.355 -1.93249,-1.985 -2.89999,-4.2725 -2.89999,-6.815 0,-2.34 0.9675,-4.2725 2.84999,-5.7475 1.9325,-1.525 4.3225,-2.29 7.21999,-2.29 5.545,0 9.05499,3.0025 9.05499,7.275 0,3.865 -2.1875,6.7125 -6.51249,8.595 -0.15,0.05 -0.2025,0.1525 -0.1,0.255 0.7625,0.76 1.6775,1.7775 2.7475,3.05 1.37249,1.88 2.48999,3.51 3.35499,4.9325 0.1025,0.1525 0.2025,0.1525 0.255,0 0.4575,-0.7625 0.915,-1.78 1.27,-3.1025 0.3125,-1.1675 0.4575,-1.8975 0.505,-2.8875 0.0575,-1.2375 0.6325,-1.4675 1.325,-1.44 0.3075,0.013 0.9175,0.057 1.37499,0.057 0.4075,0 1.0175,0 1.78,-0.052 l 1.17,0 z m -11.90248,11.85 c -1.1175,-1.78 -2.5925,-3.915 -4.475,-6.4075 -0.5075,-0.66 -1.52499,-1.78 -2.99999,-3.255 -0.05,-0.053 -0.1025,-0.1025 -0.2525,-0.053 -2.6975,1.425 -4.06999,3.51 -4.06999,6.205 0,3.51 2.69749,6.0525 6.35749,6.0525 2.03499,0 3.91749,-0.66 5.64499,-2.0325 0.05,-0.053 -0.0525,-0.205 -0.205,-0.51 m -5.49249,-16.02 c 2.79999,-1.0675 4.22249,-2.695 4.22249,-4.9325 0,-1.8825 -1.17,-2.85 -3.51,-2.85 -2.38749,0 -3.60999,1.07 -3.60999,3.205 0,1.3725 0.865,2.9 2.5425,4.5275 0.1025,0.1 0.2025,0.1 0.355,0.05" id="path4553" stroke="black" style="fill:#4a4a49;fill-opacity:1;fill-rule:nonzero;"/>
		
    
		
		
    
		
		
    
		
		
    
		
		
    
		
		
    
		
		
    
		
		
    
		
		
    
		
		
    
		
		
    
		
		
    
		
		
    
		
		
    
		
		
    
		
		
  
	</g>
	

</svg>