<?xml version="1.0" encoding="iso-8859-1"?><svg height="21.164787mm" id="svg4665" version="1.1" viewBox="0 0 500.07403 74.99334" width="141.132mm" xmlns="http://www.w3.org/2000/svg" xmlns:cc="http://creativecommons.org/ns#" xmlns:dc="http://purl.org/dc/elements/1.1/" xmlns:rdf="http://www.w3.org/1999/02/22-rdf-syntax-ns#" xmlns:svg="http://www.w3.org/2000/svg">
	
  
	<defs id="defs4667">
		
    
		<clipPath clipPathUnits="userSpaceOnUse" id="clipPath4535">
			
      
			
			
    
		</clipPath>
		
  
	</defs>
	
  
	<metadata id="metadata4670">
		
    
		<rdf:RDF>
			
      
			<cc:Work rdf:about="">
				
        
				<dc:format>image/svg+xml</dc:format>
				
        
				<dc:type rdf:resource="http://purl.org/dc/dcmitype/StillImage"/>
				
        
				<dc:title/>
				
      
			</cc:Work>
			
    
		</rdf:RDF>
		
  
	</metadata>
	
  
	<g id="layer1" transform="translate(-1.379233e-5,-977.36886)">
		
    
		
		
    
		<path animation_id="2" d="m 139.50306,997.6028 c -0.0725,0 -0.815,0 -2.2325,0.075 -1.41499,0.08 -2.37999,0.08 -2.90499,0.08 -0.3925,0 -1.39,-0.0475 -2.9475,-0.1 l 0,0.003 c -0.7225,0 -1.375,0.17 -1.825,0.635 -0.32249,0.3325 -0.48249,0.735 -0.63249,1.285 -0.0275,0.1125 -0.06,0.23 -0.09,0.3425 -0.0375,0.1575 -0.075,0.3125 -0.1175,0.4925 l -0.01,0 c -1.2575,4.745 -3.72,12.4925 -5.56,18.2725 -1.04249,3.3475 -2.85999,8.7375 -5.76749,17.3724 -0.225,0.75 -0.49,1.8 -0.715,2.695 -0.135,0.6625 -0.2925,1.295 -0.365,1.295 0,0 -0.3825,-1.57 -0.89499,-3.5 l -5.66,-17.8624 c -2.30499,-7.22 -4.79249,-15.8125 -6.05749,-20.5725 -0.1475,-0.37 -0.3,-0.525 -0.37,-0.525 -0.0775,0 -0.8975,0 -2.37999,0.075 -1.417501,0.08 -2.459999,0.08 -2.979999,0.08 -0.527499,0 -1.334998,-0.025 -2.382496,-0.0575 l 0,0.002 c -0.722499,0 -1.594998,0.2175 -2.087497,0.64 -0.484999,0.4275 -0.794999,1.035 -0.634999,1.82 2.404996,6.27 5.819991,16.0725 8.782491,24.4175 4.24249,12.2799 7.21999,21.0649 8.92748,26.1974 0.0775,0.2975 0.3025,0.445 0.6,0.445 0.075,0 1.255,-0.065 2.6675,-0.16 1.3625,-0.095 1.975,-0.1325 2.49499,-0.1175 1.795,0.057 2.7025,0.12 3.4625,-0.1425 0.7375,-0.2575 1.1025,-0.4875 1.575,-0.905 0.7475,-0.62 1.34999,-1.8975 1.46749,-2.26 3.755,-11.5425 5.7975,-17.5424 7.31249,-21.9399 4.095,-11.765 7.91499,-22.5725 9.62749,-27.4075 0.145,-0.45 0.07,-0.675 -0.3025,-0.675" id="path4545" stroke="black" style="fill:#4a4a49;fill-opacity:1;fill-rule:nonzero;"/>
		
    
		
		
    
		
		
    
		
		
    
		
		
    
		
		
    
		
		
    
		
		
    
		
		
    
		
		
    
		
		
    
		
		
    
		
		
    
		
		
    
		
		
    
		
		
    
		
		
    
		
		
  
	</g>
	

</svg>