<?xml version="1.0" encoding="iso-8859-1"?><!DOCTYPE svg  PUBLIC '-//W3C//DTD SVG 1.1//EN'  'http://www.w3.org/Graphics/SVG/1.1/DTD/svg11.dtd'><svg height="208pt" version="1.1" viewBox="0 0 600 208" width="600pt" xmlns="http://www.w3.org/2000/svg">
	

	
	

	
	

	
	

	
	

	
	

	
	

	
	

	
	

	
	

	
	

	
	

	
	

	
	

	
	

	
	

	
	

	
	

	
	

	
	

	<path animation_id="19" d=" M 344.16 156.95 C 345.31 156.94 346.46 156.95 347.62 156.96 C 352.54 164.18 357.07 171.66 362.08 178.81 C 362.06 171.53 362.06 164.24 362.11 156.96 C 362.90 156.99 364.48 157.05 365.27 157.08 C 364.84 165.90 364.84 174.74 364.89 183.57 C 363.70 183.54 362.52 183.52 361.34 183.50 C 356.64 176.31 352.14 168.98 347.13 162.00 C 346.83 169.21 346.99 176.44 346.96 183.65 C 346.24 183.64 344.80 183.62 344.08 183.61 C 344.12 174.72 344.12 165.83 344.16 156.95 Z" fill="#282828" stroke="black"/>
	

	
	

	
	

	
	

	
	

	
	

	
	

	
	

	
	

	
	

</svg>