<?xml version="1.0" encoding="iso-8859-1"?><!DOCTYPE svg  PUBLIC '-//W3C//DTD SVG 1.1//EN'  'http://www.w3.org/Graphics/SVG/1.1/DTD/svg11.dtd'><svg height="208pt" version="1.1" viewBox="0 0 600 208" width="600pt" xmlns="http://www.w3.org/2000/svg">
	

	
	

	
	

	
	

	
	

	
	

	
	

	
	

	
	

	
	

	
	

	
	

	
	

	
	

	
	

	
	

	
	

	
	

	
	

	
	

	
	

	
	

	<path animation_id="21" d=" M 464.40 157.00 C 465.56 157.00 466.72 157.00 467.89 157.00 C 467.91 163.34 467.60 169.71 467.99 176.04 C 469.05 182.88 480.93 182.98 482.12 176.19 C 482.59 169.81 482.25 163.39 482.32 157.00 C 483.20 156.99 484.97 156.99 485.85 156.99 C 485.71 163.01 485.87 169.03 485.69 175.05 C 485.58 179.04 482.88 182.84 478.91 183.74 C 475.04 184.30 470.53 184.47 467.38 181.74 C 465.12 179.92 464.46 176.86 464.38 174.11 C 464.27 168.40 464.48 162.70 464.40 157.00 Z" fill="#282828" stroke="black"/>
	

	
	

	
	

	
	

	
	

	
	

	
	

	
	

</svg>