<?xml version="1.0" encoding="iso-8859-1"?><!DOCTYPE svg  PUBLIC '-//W3C//DTD SVG 1.1//EN'  'http://www.w3.org/Graphics/SVG/1.1/DTD/svg11.dtd'><svg height="208pt" version="1.1" viewBox="0 0 600 208" width="600pt" xmlns="http://www.w3.org/2000/svg">
	

	
	

	
	

	
	

	
	

	
	

	
	

	
	

	
	

	
	

	
	

	
	

	
	

	
	

	
	

	
	

	
	

	
	

	
	

	
	

	
	

	
	

	
	

	
	

	
	

	<path animation_id="24" d=" M 551.75 156.90 C 557.81 156.99 563.88 156.94 569.95 156.85 C 569.95 157.58 569.95 159.04 569.95 159.77 C 564.93 159.76 559.90 159.75 554.88 159.84 C 554.87 162.65 554.87 165.46 554.88 168.27 C 559.56 168.33 564.23 168.29 568.91 168.28 C 568.92 168.93 568.95 170.24 568.96 170.89 C 564.25 171.01 559.53 170.74 554.85 171.28 C 554.87 174.34 554.87 177.40 554.87 180.46 C 559.89 180.52 564.92 180.53 569.95 180.42 C 569.94 181.49 569.93 182.57 569.93 183.64 C 563.82 183.58 557.70 183.67 551.60 183.42 C 551.78 174.58 552.06 165.74 551.75 156.90 Z" fill="#282828" stroke="black"/>
	

	
	

	
	

	
	

	
	

</svg>