<?xml version="1.0" encoding="iso-8859-1"?><!DOCTYPE svg  PUBLIC '-//W3C//DTD SVG 1.1//EN'  'http://www.w3.org/Graphics/SVG/1.1/DTD/svg11.dtd'><svg height="208pt" version="1.1" viewBox="0 0 600 208" width="600pt" xmlns="http://www.w3.org/2000/svg">
	

	
	

	
	

	
	

	
	

	
	

	
	

	
	

	
	

	
	

	
	

	
	

	
	

	
	

	
	

	
	

	
	

	
	

	
	

	
	

	
	

	<path animation_id="20" d=" M 435.16 157.00 C 439.82 157.04 444.48 156.92 449.14 157.02 C 452.43 156.95 455.57 159.68 455.67 163.03 C 455.98 165.20 454.96 167.18 454.19 169.12 C 453.52 169.35 452.18 169.81 451.51 170.04 C 452.54 171.15 453.71 172.17 454.53 173.47 C 455.05 176.90 455.27 180.37 456.05 183.76 C 454.79 183.55 453.55 183.34 452.31 183.11 C 452.06 179.69 452.51 175.70 450.32 172.85 C 446.74 170.99 442.50 172.17 438.64 171.85 C 438.58 175.76 438.60 179.67 438.51 183.58 C 437.65 183.58 435.95 183.59 435.10 183.59 C 435.14 174.73 435.16 165.87 435.16 157.00 Z" fill="#282828" stroke="black"/>
	

	
	

	
	

	
	

	
	

	
	

	
	

	
	

	
	

</svg>