<?xml version="1.0" encoding="iso-8859-1"?><!DOCTYPE svg  PUBLIC '-//W3C//DTD SVG 1.1//EN'  'http://www.w3.org/Graphics/SVG/1.1/DTD/svg11.dtd'><svg height="208pt" version="1.1" viewBox="0 0 600 208" width="600pt" xmlns="http://www.w3.org/2000/svg">
	

	
	

	
	

	
	

	
	

	
	

	
	

	
	

	
	

	
	

	
	

	
	

	
	

	
	

	<path animation_id="13" d=" M 163.03 156.95 C 168.04 156.99 173.06 156.76 178.06 157.18 C 182.00 157.65 184.53 162.30 183.19 165.95 C 182.92 168.01 181.02 169.13 179.65 170.44 C 184.13 173.45 182.22 179.30 183.97 183.68 C 182.79 183.62 181.60 183.56 180.42 183.50 C 179.94 180.40 179.52 177.30 179.15 174.19 C 178.38 173.44 177.61 172.69 176.84 171.94 C 173.39 171.90 169.94 171.87 166.49 171.86 C 166.30 175.79 166.41 179.74 166.16 183.67 C 165.38 183.64 163.83 183.58 163.05 183.54 C 163.00 174.68 162.97 165.82 163.03 156.95 Z" fill="#282828" stroke="black"/>
	

	
	

	
	

	
	

	
	

	
	

	
	

	
	

	
	

	
	

	
	

	
	

	
	

	
	

	
	

	
	

</svg>