<?xml version="1.0" encoding="iso-8859-1"?><!DOCTYPE svg  PUBLIC '-//W3C//DTD SVG 1.1//EN'  'http://www.w3.org/Graphics/SVG/1.1/DTD/svg11.dtd'><svg height="208pt" version="1.1" viewBox="0 0 600 208" width="600pt" xmlns="http://www.w3.org/2000/svg">
	

	
	

	
	

	
	

	<path animation_id="3" d=" M 249.35 16.18 C 268.20 16.19 287.05 16.18 305.90 16.21 C 306.08 17.49 306.27 18.76 306.46 20.04 C 301.96 20.82 296.90 20.33 292.98 23.01 C 289.30 26.58 289.66 32.22 289.52 36.96 C 289.52 62.32 289.31 87.68 289.46 113.04 C 289.24 116.35 291.44 119.60 294.90 119.90 C 306.35 121.45 318.84 120.27 328.63 113.62 C 336.76 107.80 341.22 98.35 344.73 89.27 C 346.40 89.21 348.06 89.17 349.74 89.14 C 347.43 101.33 345.10 113.52 343.09 125.77 C 311.69 125.62 280.28 125.98 248.87 125.74 C 248.94 124.33 249.01 122.91 249.09 121.50 C 252.97 121.35 257.25 121.19 260.38 118.57 C 262.92 116.11 263.26 112.31 263.28 108.96 C 263.31 82.99 263.39 57.02 263.42 31.04 C 263.54 28.04 262.60 24.86 260.21 22.90 C 257.10 20.47 252.97 20.72 249.27 20.18 C 249.29 18.85 249.32 17.51 249.35 16.18 Z" fill="#087c58" stroke="black"/>
	

	
	

	
	

	
	

	
	

	
	

	
	

	
	

	
	

	
	

	
	

	
	

	
	

	
	

	
	

	
	

	
	

	
	

	
	

	
	

	
	

	
	

	
	

	
	

	
	

	
	

</svg>