<?xml version="1.0" encoding="iso-8859-1"?><!DOCTYPE svg  PUBLIC '-//W3C//DTD SVG 1.1//EN'  'http://www.w3.org/Graphics/SVG/1.1/DTD/svg11.dtd'><svg height="208pt" version="1.1" viewBox="0 0 600 208" width="600pt" xmlns="http://www.w3.org/2000/svg">
	

	
	

	
	

	
	

	
	

	
	

	
	

	
	

	
	

	
	

	
	

	<path animation_id="10" d=" M 80.10 156.92 C 81.36 156.98 82.63 157.03 83.89 157.09 C 88.26 163.89 92.87 170.53 96.96 177.50 L 98.20 177.50 C 98.06 170.66 98.22 163.82 98.12 156.98 C 98.90 156.97 100.44 156.94 101.22 156.93 C 101.06 165.81 100.77 174.70 101.13 183.59 C 99.66 183.39 97.72 183.93 96.75 182.50 C 92.07 175.79 88.32 168.40 83.10 162.08 C 83.01 169.24 83.00 176.40 83.01 183.56 C 82.27 183.56 80.79 183.56 80.05 183.56 C 80.07 174.68 80.02 165.80 80.10 156.92 Z" fill="#282828" stroke="black"/>
	

	
	

	
	

	
	

	
	

	
	

	
	

	
	

	
	

	
	

	
	

	
	

	
	

	
	

	
	

	
	

	
	

	
	

	
	

</svg>