<?xml version="1.0" encoding="iso-8859-1"?><!DOCTYPE svg  PUBLIC '-//W3C//DTD SVG 1.1//EN'  'http://www.w3.org/Graphics/SVG/1.1/DTD/svg11.dtd'><svg height="208pt" version="1.1" viewBox="0 0 600 208" width="600pt" xmlns="http://www.w3.org/2000/svg">
	

	
	

	
	

	
	

	
	

	
	

	
	

	
	

	
	

	
	

	
	

	
	

	
	

	
	

	
	

	
	

	
	

	
	

	<path animation_id="17" d=" M 281.11 157.00 C 282.67 157.00 284.25 157.00 285.82 157.00 C 288.53 164.45 291.37 171.87 293.98 179.36 C 297.10 172.00 299.94 164.52 302.66 157.00 C 304.34 156.99 306.03 156.99 307.72 156.99 C 307.51 165.84 307.63 174.69 307.54 183.54 C 306.71 183.52 305.04 183.48 304.21 183.46 C 304.11 176.18 304.42 168.89 304.21 161.61 C 300.81 168.77 298.67 176.49 295.29 183.67 C 293.68 183.91 292.61 183.31 292.09 181.89 C 289.32 175.22 287.37 168.23 284.45 161.63 C 283.95 168.92 284.16 176.26 283.87 183.58 C 283.16 183.58 281.75 183.59 281.04 183.60 C 281.07 174.73 281.12 165.86 281.11 157.00 Z" fill="#282828" stroke="black"/>
	

	
	

	
	

	
	

	
	

	
	

	
	

	
	

	
	

	
	

	
	

	
	

</svg>