<?xml version="1.0" encoding="iso-8859-1"?><!DOCTYPE svg  PUBLIC '-//W3C//DTD SVG 1.1//EN'  'http://www.w3.org/Graphics/SVG/1.1/DTD/svg11.dtd'><svg height="208pt" version="1.1" viewBox="0 0 600 208" width="600pt" xmlns="http://www.w3.org/2000/svg">
	

	
	

	
	

	<path animation_id="2" d=" M 14.59 16.22 C 32.65 16.15 50.70 16.23 68.76 16.18 C 68.77 17.46 68.78 18.75 68.79 20.04 C 64.82 20.75 60.59 20.34 56.83 21.94 C 53.97 24.39 54.65 28.81 55.99 31.92 C 64.41 51.63 72.63 71.42 81.07 91.12 C 88.62 72.16 96.06 53.15 103.39 34.11 C 104.85 30.55 105.06 26.63 104.16 22.90 C 100.11 20.90 95.56 20.63 91.15 20.09 C 91.18 18.78 91.20 17.48 91.23 16.18 C 102.71 16.15 114.19 16.24 125.67 16.20 C 125.66 17.46 125.65 18.71 125.64 19.97 C 122.08 20.87 118.13 21.67 115.68 24.67 C 113.40 27.66 111.89 31.15 110.48 34.61 C 100.26 59.85 90.72 85.35 80.52 110.59 C 77.93 116.65 75.66 122.84 73.30 128.99 C 71.80 128.93 70.31 128.86 68.82 128.79 C 59.45 105.02 48.47 81.91 39.02 58.16 C 36.45 51.99 33.77 45.88 31.18 39.72 C 28.87 34.52 27.03 29.02 23.70 24.35 C 21.49 21.43 17.72 20.70 14.38 19.89 C 14.44 18.67 14.51 17.44 14.59 16.22 Z" fill="#087c58" stroke="black"/>
	

	
	

	
	

	
	

	
	

	
	

	
	

	
	

	
	

	
	

	
	

	
	

	
	

	
	

	
	

	
	

	
	

	
	

	
	

	
	

	
	

	
	

	
	

	
	

	
	

	
	

	
	

</svg>