<?xml version="1.0" encoding="iso-8859-1"?><!DOCTYPE svg  PUBLIC '-//W3C//DTD SVG 1.1//EN'  'http://www.w3.org/Graphics/SVG/1.1/DTD/svg11.dtd'><svg height="208pt" version="1.1" viewBox="0 0 600 208" width="600pt" xmlns="http://www.w3.org/2000/svg">
	

	
	

	
	

	
	

	
	

	
	

	
	

	
	

	
	

	
	

	
	

	
	

	
	

	
	

	
	

	
	

	<path animation_id="15" d=" M 223.28 157.00 C 229.45 157.01 235.63 156.98 241.80 157.02 C 241.78 157.73 241.75 159.15 241.74 159.86 C 236.73 159.85 231.73 159.85 226.72 159.85 C 226.73 162.68 226.72 165.51 226.74 168.34 C 231.38 168.32 236.02 168.35 240.66 168.32 C 240.67 168.99 240.69 170.35 240.70 171.02 C 236.12 171.14 231.53 170.93 226.96 171.13 C 226.40 174.22 226.80 177.39 226.67 180.52 C 231.72 180.49 236.79 180.59 241.84 180.82 C 241.80 181.53 241.72 182.94 241.68 183.65 C 235.52 183.52 229.35 183.52 223.19 183.46 C 223.28 174.64 223.33 165.82 223.28 157.00 Z" fill="#282828" stroke="black"/>
	

	
	

	
	

	
	

	
	

	
	

	
	

	
	

	
	

	
	

	
	

	
	

	
	

	
	

</svg>