<?xml version="1.0" encoding="iso-8859-1"?><!DOCTYPE svg  PUBLIC '-//W3C//DTD SVG 1.1//EN'  'http://www.w3.org/Graphics/SVG/1.1/DTD/svg11.dtd'><svg height="208pt" version="1.1" viewBox="0 0 600 208" width="600pt" xmlns="http://www.w3.org/2000/svg">
	

	
	

	
	

	
	

	
	

	<path animation_id="4" d=" M 357.18 16.22 C 375.60 16.22 394.01 16.08 412.43 16.25 C 412.47 17.55 412.51 18.84 412.55 20.14 C 408.67 20.70 404.58 21.05 401.19 23.20 C 399.04 25.17 398.52 28.23 398.39 31.00 C 397.50 43.71 398.02 56.45 397.83 69.17 C 400.60 67.59 402.69 65.14 404.94 62.93 C 414.66 53.31 424.23 43.55 433.87 33.85 C 435.91 31.52 438.59 29.30 439.01 26.03 C 439.29 24.37 438.40 22.59 436.84 21.93 C 433.10 20.59 429.07 20.61 425.17 20.22 C 425.19 18.88 425.21 17.55 425.24 16.22 C 440.94 16.23 456.63 16.18 472.32 16.23 C 472.38 17.52 472.44 18.80 472.50 20.09 C 463.59 20.90 454.61 23.85 447.99 30.07 C 438.94 37.60 430.83 46.16 422.39 54.36 C 421.13 55.40 419.39 57.18 421.13 58.69 C 435.98 77.23 450.88 95.73 465.77 114.24 C 467.44 116.20 468.92 118.35 470.88 120.04 C 472.71 121.58 475.39 120.87 477.38 122.05 C 477.37 123.25 477.33 124.45 477.24 125.65 C 458.94 125.71 440.63 125.81 422.33 125.77 C 422.41 124.39 422.46 123.01 422.67 121.64 C 426.90 121.17 431.29 121.75 435.36 120.12 C 435.49 115.70 432.26 112.49 429.76 109.24 C 420.44 97.81 411.77 85.83 402.00 74.80 C 400.31 75.77 399.02 77.25 397.71 78.65 C 397.88 89.09 397.64 99.52 397.72 109.96 C 397.93 113.35 398.42 117.60 401.80 119.38 C 404.83 121.28 408.46 121.39 411.93 121.54 C 411.94 122.93 411.96 124.33 411.98 125.73 C 393.65 125.60 375.33 125.84 357.00 125.78 C 357.00 124.39 356.99 123.01 357.00 121.63 C 360.71 121.35 364.74 121.29 367.86 118.96 C 370.85 116.20 371.01 111.78 371.21 107.99 C 371.19 82.66 371.22 57.32 371.31 31.99 C 371.35 28.96 370.89 25.58 368.53 23.43 C 365.58 20.47 361.04 20.72 357.18 20.39 C 357.18 19.00 357.18 17.61 357.18 16.22 Z" fill="#087c58" stroke="black"/>
	

	
	

	
	

	
	

	
	

	
	

	
	

	
	

	
	

	
	

	
	

	
	

	
	

	
	

	
	

	
	

	
	

	
	

	
	

	
	

	
	

	
	

	
	

	
	

	
	

</svg>