<?xml version="1.0" encoding="iso-8859-1"?><!DOCTYPE svg  PUBLIC '-//W3C//DTD SVG 1.1//EN'  'http://www.w3.org/Graphics/SVG/1.1/DTD/svg11.dtd'><svg height="208pt" version="1.1" viewBox="0 0 600 208" width="600pt" xmlns="http://www.w3.org/2000/svg">
	

	
	

	
	

	
	

	
	

	
	

	
	

	
	

	
	

	
	

	
	

	
	

	
	

	
	

	
	

	
	

	
	

	<path animation_id="16" d=" M 250.11 156.99 C 251.28 157.00 252.46 157.01 253.64 157.03 C 253.55 160.79 253.57 164.56 253.58 168.33 C 258.22 168.30 262.87 168.34 267.51 168.39 C 267.58 164.59 267.66 160.80 267.72 157.00 C 268.54 157.00 270.17 157.00 270.99 157.00 C 270.94 165.93 270.99 174.87 270.91 183.81 C 269.74 183.62 268.58 183.43 267.41 183.23 C 267.47 179.13 267.58 175.03 267.39 170.94 C 262.84 171.21 258.09 170.43 253.65 171.31 C 253.39 175.29 253.56 179.29 253.55 183.27 C 252.40 183.45 251.24 183.62 250.09 183.79 C 250.01 174.85 250.14 165.92 250.11 156.99 Z" fill="#282828" stroke="black"/>
	

	
	

	
	

	
	

	
	

	
	

	
	

	
	

	
	

	
	

	
	

	
	

	
	

</svg>