<?xml version="1.0" encoding="iso-8859-1"?><!DOCTYPE svg  PUBLIC '-//W3C//DTD SVG 1.1//EN'  'http://www.w3.org/Graphics/SVG/1.1/DTD/svg11.dtd'><svg height="208pt" version="1.1" viewBox="0 0 600 208" width="600pt" xmlns="http://www.w3.org/2000/svg">
	

	
	

	
	

	
	

	
	

	
	

	
	

	
	

	<path animation_id="7" d=" M 375.93 158.99 C 379.94 155.58 386.37 155.14 390.63 158.30 C 392.69 159.73 393.18 162.26 393.85 164.51 C 392.68 164.63 391.51 164.74 390.34 164.85 C 390.26 164.15 390.09 162.76 390.01 162.06 C 387.54 159.29 383.48 158.15 380.07 159.83 C 377.20 160.44 377.66 163.74 377.73 165.94 C 381.89 168.12 386.75 168.17 390.98 170.17 C 394.45 171.72 395.79 176.48 393.67 179.64 C 391.47 183.77 386.10 184.42 381.90 183.98 C 377.07 183.86 373.30 179.57 373.01 174.89 C 373.73 174.85 375.18 174.76 375.90 174.71 C 376.98 176.61 377.37 179.29 379.67 180.17 C 382.12 181.55 385.02 180.90 387.70 181.04 C 390.51 179.88 392.70 176.21 390.29 173.59 C 385.59 170.06 377.89 172.03 374.45 166.54 C 373.79 163.97 373.97 160.97 375.93 158.99 Z" fill="#282828" stroke="black"/>
	

	
	

	
	

	
	

	
	

	
	

	
	

	
	

	
	

	
	

	
	

	
	

	
	

	
	

	
	

	
	

	
	

	
	

	
	

	
	

	
	

	
	

</svg>