<?xml version="1.0" encoding="iso-8859-1"?><!DOCTYPE svg  PUBLIC '-//W3C//DTD SVG 1.1//EN'  'http://www.w3.org/Graphics/SVG/1.1/DTD/svg11.dtd'><svg height="208pt" version="1.1" viewBox="0 0 600 208" width="600pt" xmlns="http://www.w3.org/2000/svg">
	

	
	

	
	

	
	

	
	

	
	

	
	

	
	

	
	

	
	

	<path animation_id="9" d=" M 49.07 157.00 C 50.25 157.00 51.44 157.00 52.63 157.00 C 52.58 163.00 52.37 169.01 52.59 175.02 C 52.28 182.63 65.92 183.48 66.78 176.06 C 67.63 169.76 66.99 163.34 67.16 157.00 C 68.01 157.00 69.71 157.00 70.57 157.00 C 70.43 162.68 70.60 168.36 70.47 174.04 C 70.26 177.63 68.92 181.90 65.14 183.15 C 60.74 184.70 55.25 184.52 51.57 181.37 C 49.91 179.73 49.08 177.39 49.11 175.08 C 49.00 169.06 49.16 163.03 49.07 157.00 Z" fill="#282828" stroke="black"/>
	

	
	

	
	

	
	

	
	

	
	

	
	

	
	

	
	

	
	

	
	

	
	

	
	

	
	

	
	

	
	

	
	

	
	

	
	

	
	

</svg>