<?xml version="1.0" encoding="iso-8859-1"?><!-- Created with Inkscape (http://www.inkscape.org/) --><svg height="228.5433" id="svg16714" version="1.1" width="892.91339" xmlns="http://www.w3.org/2000/svg" xmlns:cc="http://creativecommons.org/ns#" xmlns:dc="http://purl.org/dc/elements/1.1/" xmlns:rdf="http://www.w3.org/1999/02/22-rdf-syntax-ns#" xmlns:svg="http://www.w3.org/2000/svg">
	
  
	<defs id="defs16716"/>
	
  
	<metadata id="metadata16719">
		
    
		<rdf:RDF>
			
      
			<cc:Work rdf:about="">
				
        
				<dc:format>image/svg+xml</dc:format>
				
        
				<dc:type rdf:resource="http://purl.org/dc/dcmitype/StillImage"/>
				
        
				<dc:title/>
				
      
			</cc:Work>
			
    
		</rdf:RDF>
		
  
	</metadata>
	
  
	<g id="layer1" transform="translate(48.40416,-466.11989)">
		
    
		<g id="g16743" transform="matrix(6.0738589,0,0,6.0738589,-4813.9292,-4570.5598)">
			
      
			
			
      
			<path animation_id="1" d="m 821.63931,848.0519 -7.2925,0 c -2.51625,0 -4.5575,1.83625 -4.5575,4.1025 l 0,14.12875 4.5575,0 0,-5.24125 7.2925,0 0,5.24125 4.5575,0 0,-14.12875 c 0,-2.26625 -2.04125,-4.1025 -4.5575,-4.1025 z m 0,8.8875 -7.2925,0 0,-3.87375 c 0,-0.50375 0.40875,-0.91125 0.9125,-0.91125 l 5.46875,0 c 0.5025,0 0.91125,0.4075 0.91125,0.91125 l 0,3.87375" id="path16600" stroke="black" style="fill:#1c418a;fill-opacity:1;fill-rule:nonzero;"/>
			
      
			
			
      
			
			
      
			
			
      
			
			
      
			
			
      
			
			
    
		</g>
		
  
	</g>
	

</svg>