<?xml version="1.0" encoding="iso-8859-1"?><svg height="15.145759mm" id="svg4594" version="1.1" viewBox="0 0 402.50884 53.666074" width="113.59694mm" xmlns="http://www.w3.org/2000/svg" xmlns:cc="http://creativecommons.org/ns#" xmlns:dc="http://purl.org/dc/elements/1.1/" xmlns:rdf="http://www.w3.org/1999/02/22-rdf-syntax-ns#" xmlns:svg="http://www.w3.org/2000/svg">
	
  
	<defs id="defs4596">
		
    
		<clipPath clipPathUnits="userSpaceOnUse" id="clipPath54">
			
      
			
			
    
		</clipPath>
		
  
	</defs>
	
  
	<metadata id="metadata4599">
		
    
		<rdf:RDF>
			
      
			<cc:Work rdf:about="">
				
        
				<dc:format>image/svg+xml</dc:format>
				
        
				<dc:type rdf:resource="http://purl.org/dc/dcmitype/StillImage"/>
				
        
				<dc:title/>
				
      
			</cc:Work>
			
    
		</rdf:RDF>
		
  
	</metadata>
	
  
	<g id="layer1" transform="translate(-278.07697,-307.15466)">
		
    
		<g id="g5222">
			
      
			<g id="g38" transform="matrix(2.3665838,0,0,-2.3665838,278.07697,316.91276)">
				
        
				
				
      
			</g>
			
      
			<g id="g42" transform="matrix(2.3665838,0,0,-2.3665838,380.14324,318.8543)">
				
        
				
				
      
			</g>
			
      
			<g id="g46" transform="matrix(2.3665838,0,0,-2.3665838,360.26392,360.29129)">
				
        
				
				
      
			</g>
			
      
			<g id="g50" transform="matrix(2.3665838,0,0,-2.3665838,-723.43003,2247.8523)">
				
        
				<g clip-path="url(#clipPath54)" id="g52">
					
          
					<g id="g58" transform="translate(452.1388,801.4435)">
						
            
						
						
          
					</g>
					
          
					<g id="g62" transform="translate(477.0509,815.9185)">
						
            
						
						
          
					</g>
					
          
					<g id="g66" transform="translate(480.6271,797.5889)">
						
            
						<path animation_id="6" d="m 0,0 4.752,0 1.536,7.364 c 0.216,1.08 0.816,1.85 1.992,1.85 0.768,0 1.2,-0.362 1.2,-1.155 0,-0.335 -0.12,-0.837 -0.192,-1.15 L 7.848,0 l 4.76,0 1.632,7.771 c 0.192,0.914 0.864,1.443 1.8,1.443 0.768,0 1.224,-0.409 1.224,-1.202 0,-0.36 -0.24,-1.583 -0.288,-1.826 L 15.704,0 l 4.752,0 1.512,7.339 c 0.096,0.554 0.288,1.393 0.288,1.97 0,2.571 -1.52,3.848 -3.944,3.848 -1.656,0 -3.088,-0.919 -4.12,-2.214 -0.312,1.536 -1.688,2.214 -3.32,2.214 -1.584,0 -3,-0.919 -3.96,-2.095 l -0.048,0 0.352,1.825 -4.608,0 L 0,0 Z" id="path68" stroke="black" style="fill:#f46d16;fill-opacity:1;fill-rule:nonzero;"/>
						
          
					</g>
					
          
					<g id="g70" transform="translate(518.8989,810.4756)">
						
            
						
						
          
					</g>
					
          
					<g id="g74" transform="translate(507.6669,811.8364)">
						
            
						
						
          
					</g>
					
          
					<g id="g78" transform="translate(513.5388,811.8364)">
						
            
						
						
          
					</g>
					
          
					<g id="g82" transform="translate(522.5548,815.963)">
						
            
						
						
          
					</g>
					
          
					<g id="g86" transform="translate(529.9708,815.963)">
						
            
						
						
          
					</g>
					
          
					<g id="g90" transform="translate(542.4188,801.4122)">
						
            
						
						
          
					</g>
					
          
					<g id="g94" transform="translate(548.179,797.5889)">
						
            
						
						
          
					</g>
					
          
					<g id="g98" transform="translate(570.0349,816.3646)">
						
            
						
						
          
					</g>
					
          
					<g id="g102" transform="translate(591.3309,801.1974)">
						
            
						
						
          
					</g>
					
          
					<g id="g106" transform="translate(579.5149,807.5638)">
						
            
						
						
          
					</g>
					
          
					<g id="g110" transform="translate(591.3387,810.6294)">
						
            
						
						
          
					</g>
					
        
				</g>
				
      
			</g>
			
    
		</g>
		
  
	</g>
	

</svg>