<?xml version="1.0" encoding="iso-8859-1"?><svg height="15.145759mm" id="svg4594" version="1.1" viewBox="0 0 402.50884 53.666074" width="113.59694mm" xmlns="http://www.w3.org/2000/svg" xmlns:cc="http://creativecommons.org/ns#" xmlns:dc="http://purl.org/dc/elements/1.1/" xmlns:rdf="http://www.w3.org/1999/02/22-rdf-syntax-ns#" xmlns:svg="http://www.w3.org/2000/svg">
	
  
	<defs id="defs4596">
		
    
		<clipPath clipPathUnits="userSpaceOnUse" id="clipPath54">
			
      
			
			
    
		</clipPath>
		
  
	</defs>
	
  
	<metadata id="metadata4599">
		
    
		<rdf:RDF>
			
      
			<cc:Work rdf:about="">
				
        
				<dc:format>image/svg+xml</dc:format>
				
        
				<dc:type rdf:resource="http://purl.org/dc/dcmitype/StillImage"/>
				
        
				<dc:title/>
				
      
			</cc:Work>
			
    
		</rdf:RDF>
		
  
	</metadata>
	
  
	<g id="layer1" transform="translate(-278.07697,-307.15466)">
		
    
		<g id="g5222">
			
      
			<g id="g38" transform="matrix(2.3665838,0,0,-2.3665838,278.07697,316.91276)">
				
        
				
				
      
			</g>
			
      
			<g id="g42" transform="matrix(2.3665838,0,0,-2.3665838,380.14324,318.8543)">
				
        
				
				
      
			</g>
			
      
			<g id="g46" transform="matrix(2.3665838,0,0,-2.3665838,360.26392,360.29129)">
				
        
				
				
      
			</g>
			
      
			<g id="g50" transform="matrix(2.3665838,0,0,-2.3665838,-723.43003,2247.8523)">
				
        
				<g clip-path="url(#clipPath54)" id="g52">
					
          
					<g id="g58" transform="translate(452.1388,801.4435)">
						
            
						
						
          
					</g>
					
          
					<g id="g62" transform="translate(477.0509,815.9185)">
						
            
						
						
          
					</g>
					
          
					<g id="g66" transform="translate(480.6271,797.5889)">
						
            
						
						
          
					</g>
					
          
					<g id="g70" transform="translate(518.8989,810.4756)">
						
            
						
						
          
					</g>
					
          
					<g id="g74" transform="translate(507.6669,811.8364)">
						
            
						
						
          
					</g>
					
          
					<g id="g78" transform="translate(513.5388,811.8364)">
						
            
						
						
          
					</g>
					
          
					<g id="g82" transform="translate(522.5548,815.963)">
						
            
						
						
          
					</g>
					
          
					<g id="g86" transform="translate(529.9708,815.963)">
						
            
						
						
          
					</g>
					
          
					<g id="g90" transform="translate(542.4188,801.4122)">
						
            
						
						
          
					</g>
					
          
					<g id="g94" transform="translate(548.179,797.5889)">
						
            
						
						
          
					</g>
					
          
					<g id="g98" transform="translate(570.0349,816.3646)">
						
            
						
						
          
					</g>
					
          
					<g id="g102" transform="translate(591.3309,801.1974)">
						
            
						
						
          
					</g>
					
          
					<g id="g106" transform="translate(579.5149,807.5638)">
						
            
						
						
          
					</g>
					
          
					<g id="g110" transform="translate(591.3387,810.6294)">
						
            
						<path animation_id="17" d="m 0,0 -3.8,0 c -1.272,0 -1.64,0.277 -2.368,1.073 -0.216,0.235 -1.12,1.333 -2.16,2.599 l -2.328,-2.86 c 0.656,-0.814 1.152,-1.424 1.168,-1.441 0.4,-0.451 0.6,-0.862 0.6,-1.219 0,-0.368 -0.192,-0.754 -0.6,-1.218 -0.04,-0.048 -3.856,-4.743 -4.52,-5.551 -0.472,-0.574 -0.768,-0.815 -1.384,-0.815 l -5.912,0 c -0.968,0 -1.936,-0.598 -1.936,-1.827 0,-1.227 0.984,-1.85 1.936,-1.85 l 6.888,0 c 1.16,0 1.792,0.474 2.376,1.186 0,0 5.304,6.536 5.872,7.154 0.728,0.793 1.096,1.072 2.368,1.072 l 3.8,0 c 0.96,0 1.928,0.602 1.928,1.837 C 1.928,-0.626 0.952,0 0,0" id="path112" stroke="black" style="fill:#231f20;fill-opacity:1;fill-rule:nonzero;"/>
						
          
					</g>
					
        
				</g>
				
      
			</g>
			
    
		</g>
		
  
	</g>
	

</svg>