<?xml version="1.0" encoding="iso-8859-1"?><svg height="15.145759mm" id="svg4594" version="1.1" viewBox="0 0 402.50884 53.666074" width="113.59694mm" xmlns="http://www.w3.org/2000/svg" xmlns:cc="http://creativecommons.org/ns#" xmlns:dc="http://purl.org/dc/elements/1.1/" xmlns:rdf="http://www.w3.org/1999/02/22-rdf-syntax-ns#" xmlns:svg="http://www.w3.org/2000/svg">
	
  
	<defs id="defs4596">
		
    
		<clipPath clipPathUnits="userSpaceOnUse" id="clipPath54">
			
      
			
			
    
		</clipPath>
		
  
	</defs>
	
  
	<metadata id="metadata4599">
		
    
		<rdf:RDF>
			
      
			<cc:Work rdf:about="">
				
        
				<dc:format>image/svg+xml</dc:format>
				
        
				<dc:type rdf:resource="http://purl.org/dc/dcmitype/StillImage"/>
				
        
				<dc:title/>
				
      
			</cc:Work>
			
    
		</rdf:RDF>
		
  
	</metadata>
	
  
	<g id="layer1" transform="translate(-278.07697,-307.15466)">
		
    
		<g id="g5222">
			
      
			<g id="g38" transform="matrix(2.3665838,0,0,-2.3665838,278.07697,316.91276)">
				
        
				
				
      
			</g>
			
      
			<g id="g42" transform="matrix(2.3665838,0,0,-2.3665838,380.14324,318.8543)">
				
        
				
				
      
			</g>
			
      
			<g id="g46" transform="matrix(2.3665838,0,0,-2.3665838,360.26392,360.29129)">
				
        
				
				
      
			</g>
			
      
			<g id="g50" transform="matrix(2.3665838,0,0,-2.3665838,-723.43003,2247.8523)">
				
        
				<g clip-path="url(#clipPath54)" id="g52">
					
          
					<g id="g58" transform="translate(452.1388,801.4435)">
						
            
						<path animation_id="4" d="m 0,0 c -0.24,-0.432 -0.84,-0.889 -1.872,-0.889 -1.488,0 -1.944,1.105 -1.944,2.427 l 8.888,0 c 0.216,0.767 0.232,1.489 0.232,2.16 0,3.915 -3.328,5.604 -6.088,5.604 -3.104,0 -7.472,-2.026 -7.472,-7.742 0,-3.025 1.656,-5.602 6.08,-5.602 5.376,0 6.424,3.201 6.736,4.042 L 0,0 Z m -3.408,4.012 c 0.36,1.319 1.2,2.088 2.472,2.088 1.2,0 1.8,-0.745 1.8,-1.681 0,-0.121 -0.024,-0.288 -0.048,-0.407 l -4.224,0 z" id="path60" stroke="black" style="fill:#f46d16;fill-opacity:1;fill-rule:evenodd;"/>
						
          
					</g>
					
          
					<g id="g62" transform="translate(477.0509,815.9185)">
						
            
						
						
          
					</g>
					
          
					<g id="g66" transform="translate(480.6271,797.5889)">
						
            
						
						
          
					</g>
					
          
					<g id="g70" transform="translate(518.8989,810.4756)">
						
            
						
						
          
					</g>
					
          
					<g id="g74" transform="translate(507.6669,811.8364)">
						
            
						
						
          
					</g>
					
          
					<g id="g78" transform="translate(513.5388,811.8364)">
						
            
						
						
          
					</g>
					
          
					<g id="g82" transform="translate(522.5548,815.963)">
						
            
						
						
          
					</g>
					
          
					<g id="g86" transform="translate(529.9708,815.963)">
						
            
						
						
          
					</g>
					
          
					<g id="g90" transform="translate(542.4188,801.4122)">
						
            
						
						
          
					</g>
					
          
					<g id="g94" transform="translate(548.179,797.5889)">
						
            
						
						
          
					</g>
					
          
					<g id="g98" transform="translate(570.0349,816.3646)">
						
            
						
						
          
					</g>
					
          
					<g id="g102" transform="translate(591.3309,801.1974)">
						
            
						
						
          
					</g>
					
          
					<g id="g106" transform="translate(579.5149,807.5638)">
						
            
						
						
          
					</g>
					
          
					<g id="g110" transform="translate(591.3387,810.6294)">
						
            
						
						
          
					</g>
					
        
				</g>
				
      
			</g>
			
    
		</g>
		
  
	</g>
	

</svg>