<?xml version="1.0" encoding="iso-8859-1"?><!-- Created with Inkscape (http://www.inkscape.org/) --><svg height="185.85715" id="svg2642" version="1.0" width="734.42859" xmlns="http://www.w3.org/2000/svg" xmlns:svg="http://www.w3.org/2000/svg">
	
  
	<defs id="defs2644">
		
    
		<clipPath id="clipPath115">
			
      
			
			
    
		</clipPath>
		
    
		<clipPath id="clipPath149">
			
      
			
			
    
		</clipPath>
		
    
		<clipPath id="clipPath143">
			
      
			
			
    
		</clipPath>
		
    
		<clipPath id="clipPath137">
			
      
			
			
    
		</clipPath>
		
  
	</defs>
	
  
	<g id="layer1" transform="translate(281.5,-379.43362)">
		
    
		<g id="g111" transform="matrix(5.022698,0,0,-5.022698,-2290.5434,4260.0644)">
			
      
			<g clip-path="url(#clipPath115)" id="g113">
				
        
				
				
        
				
				
        
				
				
        
				
				
        
				<path animation_id="8" d="M 490.443,754.242 C 490.443,752.243 490.342,749.126 487.529,749.126 C 486.106,749.126 485.056,750.142 485.056,751.565 C 485.056,754.31 488.681,754.276 490.443,754.242 z M 485.835,758.443 C 485.767,759.223 486.343,760.883 488.105,760.883 C 489.901,760.883 490.443,759.494 490.443,758.782 L 490.443,757.19 C 488.41,757.258 485.835,757.156 483.802,756.275 C 480.719,754.954 480.177,752.073 480.177,750.888 C 480.177,747.567 482.549,745.737 485.734,745.737 C 488.038,745.737 489.8,746.551 490.952,748.516 L 491.019,748.516 C 491.019,747.804 491.087,747.025 491.189,746.246 L 495.763,746.246 C 495.695,746.754 495.56,747.262 495.526,748.109 L 495.526,757.393 C 495.526,762.51 491.697,763.763 488.275,763.763 C 486.445,763.763 484.649,763.492 483.26,762.679 C 481.905,761.9 480.99,760.578 480.956,758.443 L 485.835,758.443" id="path127" stroke="black" style="fill:#f15a22;fill-opacity:1;fill-rule:evenodd;"/>
				
        
				
				
        
				
				
      
			</g>
			
    
		</g>
		
    
		<g id="g133" transform="matrix(5.022698,0,0,-5.022698,-2290.5434,4260.0644)">
			
      
			<g clip-path="url(#clipPath137)" id="g135">
				
        
				<g clip-path="url(#clipPath143)" id="g141">
					
          
					<g clip-path="url(#clipPath149)" id="g147">
						
            
						
						
          
					</g>
					
        
				</g>
				
      
			</g>
			
    
		</g>
		
  
	</g>
	

</svg>