<?xml version="1.0" encoding="iso-8859-1"?><!-- Created with Inkscape (http://www.inkscape.org/) --><svg height="185.85715" id="svg2642" version="1.0" width="734.42859" xmlns="http://www.w3.org/2000/svg" xmlns:svg="http://www.w3.org/2000/svg">
	
  
	<defs id="defs2644">
		
    
		<clipPath id="clipPath115">
			
      
			
			
    
		</clipPath>
		
    
		<clipPath id="clipPath149">
			
      
			
			
    
		</clipPath>
		
    
		<clipPath id="clipPath143">
			
      
			
			
    
		</clipPath>
		
    
		<clipPath id="clipPath137">
			
      
			
			
    
		</clipPath>
		
  
	</defs>
	
  
	<g id="layer1" transform="translate(281.5,-379.43362)">
		
    
		<g id="g111" transform="matrix(5.022698,0,0,-5.022698,-2290.5434,4260.0644)">
			
      
			<g clip-path="url(#clipPath115)" id="g113">
				
        
				
				
        
				
				
        
				<path animation_id="6" d="M 468.143,753.395 C 468.143,754.513 468.143,755.597 468.008,756.648 C 467.872,757.732 467.635,758.749 467.161,759.697 C 465.738,762.679 463.095,763.763 459.91,763.763 C 454.726,763.763 451.744,759.833 451.744,754.716 C 451.744,749.024 454.082,745.737 459.91,745.737 C 463.874,745.737 467.161,747.127 467.601,751.328 L 463.027,751.328 C 462.553,749.769 461.672,749.126 459.91,749.126 C 457.301,749.126 456.996,751.193 456.996,753.395 L 468.143,753.395 z M 456.996,756.783 C 457.064,758.647 457.572,760.375 459.91,760.375 C 462.383,760.375 462.892,758.647 462.892,756.783 L 456.996,756.783" id="path123" stroke="black" style="fill:#f15a22;fill-opacity:1;fill-rule:evenodd;"/>
				
        
				
				
        
				
				
        
				
				
        
				
				
      
			</g>
			
    
		</g>
		
    
		<g id="g133" transform="matrix(5.022698,0,0,-5.022698,-2290.5434,4260.0644)">
			
      
			<g clip-path="url(#clipPath137)" id="g135">
				
        
				<g clip-path="url(#clipPath143)" id="g141">
					
          
					<g clip-path="url(#clipPath149)" id="g147">
						
            
						
						
          
					</g>
					
        
				</g>
				
      
			</g>
			
    
		</g>
		
  
	</g>
	

</svg>