<?xml version="1.0" encoding="iso-8859-1"?><!-- Created with Inkscape (http://www.inkscape.org/) --><svg height="185.85715" id="svg2642" version="1.0" width="734.42859" xmlns="http://www.w3.org/2000/svg" xmlns:svg="http://www.w3.org/2000/svg">
	
  
	<defs id="defs2644">
		
    
		<clipPath id="clipPath115">
			
      
			
			
    
		</clipPath>
		
    
		<clipPath id="clipPath149">
			
      
			
			
    
		</clipPath>
		
    
		<clipPath id="clipPath143">
			
      
			
			
    
		</clipPath>
		
    
		<clipPath id="clipPath137">
			
      
			
			
    
		</clipPath>
		
  
	</defs>
	
  
	<g id="layer1" transform="translate(281.5,-379.43362)">
		
    
		<g id="g111" transform="matrix(5.022698,0,0,-5.022698,-2290.5434,4260.0644)">
			
      
			<g clip-path="url(#clipPath115)" id="g113">
				
        
				
				
        
				
				
        
				
				
        
				
				
        
				
				
        
				
				
        
				<path animation_id="10" d="M 525.237,754.75 C 525.237,757.359 525.643,760.375 528.896,760.375 C 531.641,760.375 532.555,757.088 532.555,754.75 C 532.555,752.412 531.641,749.126 528.896,749.126 C 525.643,749.126 525.237,752.141 525.237,754.75 z M 532.555,761.29 L 532.488,761.29 C 531.539,762.713 529.709,763.763 527.947,763.763 C 522.661,763.763 519.985,759.324 519.985,754.75 C 519.985,750.379 522.323,745.737 527.304,745.737 C 529.506,745.737 531.403,746.652 532.521,748.651 L 532.589,748.651 C 532.589,747.838 532.657,747.059 532.725,746.246 L 537.807,746.246 C 537.74,747.364 537.638,748.516 537.638,749.634 L 537.638,770.709 L 532.555,770.709 L 532.555,761.29" id="path131" stroke="black" style="fill:#f15a22;fill-opacity:1;fill-rule:evenodd;"/>
				
      
			</g>
			
    
		</g>
		
    
		<g id="g133" transform="matrix(5.022698,0,0,-5.022698,-2290.5434,4260.0644)">
			
      
			<g clip-path="url(#clipPath137)" id="g135">
				
        
				<g clip-path="url(#clipPath143)" id="g141">
					
          
					<g clip-path="url(#clipPath149)" id="g147">
						
            
						
						
          
					</g>
					
        
				</g>
				
      
			</g>
			
    
		</g>
		
  
	</g>
	

</svg>