<?xml version="1.0" encoding="iso-8859-1"?><!-- Created with Inkscape (http://www.inkscape.org/) --><svg height="185.85715" id="svg2642" version="1.0" width="734.42859" xmlns="http://www.w3.org/2000/svg" xmlns:svg="http://www.w3.org/2000/svg">
	
  
	<defs id="defs2644">
		
    
		<clipPath id="clipPath115">
			
      
			
			
    
		</clipPath>
		
    
		<clipPath id="clipPath149">
			
      
			
			
    
		</clipPath>
		
    
		<clipPath id="clipPath143">
			
      
			
			
    
		</clipPath>
		
    
		<clipPath id="clipPath137">
			
      
			
			
    
		</clipPath>
		
  
	</defs>
	
  
	<g id="layer1" transform="translate(281.5,-379.43362)">
		
    
		<g id="g111" transform="matrix(5.022698,0,0,-5.022698,-2290.5434,4260.0644)">
			
      
			<g clip-path="url(#clipPath115)" id="g113">
				
        
				
				
        
				
				
        
				
				
        
				
				
        
				
				
        
				<path animation_id="9" d="M 505.054,763.255 L 500.005,763.255 L 500.005,746.246 L 505.088,746.246 L 505.088,756.478 C 505.155,758.952 506.545,760.375 508.137,760.375 C 510.644,760.375 511.153,758.308 511.187,756.478 L 511.187,746.246 L 516.269,746.246 L 516.269,757.325 C 516.269,757.901 516.201,758.986 515.93,760.036 C 515.32,762.51 512.034,763.763 510.339,763.763 C 507.764,763.763 506.172,762.747 505.122,761.188 L 505.054,761.29 L 505.054,763.255" id="path129" stroke="black" style="fill:#f15a22;fill-opacity:1;fill-rule:nonzero;"/>
				
        
				
				
      
			</g>
			
    
		</g>
		
    
		<g id="g133" transform="matrix(5.022698,0,0,-5.022698,-2290.5434,4260.0644)">
			
      
			<g clip-path="url(#clipPath137)" id="g135">
				
        
				<g clip-path="url(#clipPath143)" id="g141">
					
          
					<g clip-path="url(#clipPath149)" id="g147">
						
            
						
						
          
					</g>
					
        
				</g>
				
      
			</g>
			
    
		</g>
		
  
	</g>
	

</svg>