<?xml version="1.0" encoding="iso-8859-1"?><svg height="66" version="1.2" viewBox="0 0 366.75 49.5" width="489" xmlns="http://www.w3.org/2000/svg">
	
    
	<path animation_id="0" d="M366.695.044h-14.507l-10.17 35.13c-.464 1.41-1.246 2.507-2.353 3.284-1.102.777-2.59 1.102-4.463 1.102l-5.61.006c-1.872 0-3.14-.325-3.795-1.108-.656-.777-.81-1.873-.463-3.283L335.488.039l-14.507.006-10.815 37.73c-.463 1.603-.513 3.124-.166 4.557a8.094 8.094 0 0 0 2.05 3.746c1.014 1.058 2.325 1.896 3.94 2.507 1.608.612 3.415.915 5.404.915h16.502c1.995 0 3.973-.309 5.934-.92 1.961-.612 3.758-1.444 5.383-2.507a18.23 18.23 0 0 0 4.193-3.741c1.173-1.438 1.994-2.96 2.452-4.557zm0 0M248.611 49.488L262.815.033 248.016.04l-5.686 19.719-16.435-.011L231.53.039h-14.755l-14.143 49.438 14.716.022 5.68-19.851h16.513l-5.625 19.835zm0 0M160.88.033L119.403.028l-14.22 49.471h41.559l2.826-9.94-26.881.017 2.82-9.912 26.877-.016 2.865-9.896h-26.904l2.86-9.906 26.854.005zm0 0M96.962 49.494L111.166.034 96.57.027l-14.205 49.46zm0 0M77.419 37.775L88.356.039l-14.607.01-10.22 35.219c-.463 1.41-1.245 2.507-2.347 3.283-1.102.777-2.568 1.009-4.447 1.009H45.683L57.165.044h-.259l.006-.005H42.405l-11.427 39.52-11.003.007c-1.873 0-3.229-.237-3.884-1.014-.656-.777-.81-1.868-.463-3.284L25.826.045 11.325.05.449 37.775c-.463 1.604-.518 3.119-.166 4.557.348 1.438 1.097 2.683 2.11 3.74 1.014 1.064 2.326 1.896 3.94 2.513 1.609.606 3.416.915 5.405.915l30.755-.012 16.965.006c1.994 0 3.972-.303 5.934-.915a21.476 21.476 0 0 0 5.377-2.506 18.166 18.166 0 0 0 4.199-3.747c1.173-1.433 1.989-2.953 2.451-4.551M312.628.028h-41.493L256.93 49.483l41.57.012 2.816-9.934h-26.86l2.86-9.912h26.865l2.865-9.901h-26.91l2.822-9.912h26.948M208.423.006L182.412 0c-2.055 0-4.044.309-5.978.92a21.753 21.753 0 0 0-5.34 2.502c-1.619 1.063-3.018 2.308-4.192 3.746-1.179 1.438-1.994 2.953-2.452 4.557 0 0-1.768 6.193-1.94 6.832-.247.942-1.773 4.81.166 7.432 2.81 3.802 8.49 3.61 8.986 3.626l12.783.01c2.54.017 3.499 1.532 2.242 5.329-1.256 3.796-5.983 4.584-7.113 4.578-1.13-.006-21.802 0-21.802 0l-2.787 9.923 26.005.012c2.056 0 4.05-.308 5.984-.92a21.532 21.532 0 0 0 5.333-2.507A18.23 18.23 0 0 0 196.5 42.3c1.18-1.438 1.995-2.959 2.452-4.557 0 0 1.769-6.192 1.94-6.832.247-.942 1.774-4.81-.166-7.432-2.81-3.796-8.623-3.752-9.118-3.769a9797.92 9797.92 0 0 0-12.623-.016c-2.546-.017-3.526-1.383-2.27-5.18 1.256-3.796 5.752-4.7 7.102-4.7l18.435.006h3.361zm0 0" fill="#002e51" stroke="black"/>
	

</svg>