<?xml version="1.0" encoding="iso-8859-1"?><!-- Created with Inkscape (http://www.inkscape.org/) --><svg height="26.200001" id="svg3507" inkscape:version="0.48.1 " sodipodi:docname="Neues Dokument 3" version="1.1" width="95.919998" xmlns="http://www.w3.org/2000/svg" xmlns:cc="http://creativecommons.org/ns#" xmlns:dc="http://purl.org/dc/elements/1.1/" xmlns:inkscape="http://www.inkscape.org/namespaces/inkscape" xmlns:rdf="http://www.w3.org/1999/02/22-rdf-syntax-ns#" xmlns:sodipodi="http://sodipodi.sourceforge.net/DTD/sodipodi-0.dtd" xmlns:svg="http://www.w3.org/2000/svg">
	
  
	<defs id="defs3509"/>
	
  
	<sodipodi:namedview bordercolor="#666666" borderopacity="1.0" fit-margin-bottom="0" fit-margin-left="0" fit-margin-right="0" fit-margin-top="0" id="base" inkscape:current-layer="layer1" inkscape:cx="47.959995" inkscape:cy="13.100001" inkscape:document-units="px" inkscape:pageopacity="0.0" inkscape:pageshadow="2" inkscape:window-height="678" inkscape:window-maximized="1" inkscape:window-width="1024" inkscape:window-x="-4" inkscape:window-y="-4" inkscape:zoom="9.5190687" pagecolor="#ffffff" showgrid="false"/>
	
  
	<metadata id="metadata3512">
		
    
		<rdf:RDF>
			
      
			<cc:Work rdf:about="">
				
        
				<dc:format>image/svg+xml</dc:format>
				
        
				<dc:type rdf:resource="http://purl.org/dc/dcmitype/StillImage"/>
				
        
				<dc:title/>
				
      
			</cc:Work>
			
    
		</rdf:RDF>
		
  
	</metadata>
	
  
	<g id="layer1" inkscape:groupmode="layer" inkscape:label="Ebene 1" transform="translate(-287.58276,-582.06773)">
		
    
		
		
    
		
		
    
		
		
    
		
		
    
		
		
    
		
		
    
		<g id="g40" transform="matrix(1.25,0,0,-1.25,288.58438,598.25548)">
			
      
			
			
    
		</g>
		
    
		
		
    
		
		
    
		<g id="g56" transform="matrix(1.25,0,0,-1.25,315.46838,594.38298)">
			
      
			<path animation_id="9" d="m 0,0 2.435,0 0,-4.139 0.027,0 c 0.527,0.73 1.299,1.204 2.353,1.204 1.921,0 2.692,-1.353 2.692,-2.814 l 0,-4.395 -2.435,0 0,3.408 c 0,1.325 -0.46,1.772 -1.122,1.772 -1.001,0 -1.515,-0.69 -1.515,-2.205 l 0,-2.975 -2.435,0 L 0,0" id="path58" inkscape:connector-curvature="0" stroke="black" style="fill:#092239;fill-opacity:1;fill-rule:nonzero;"/>
			
    
		</g>
		
    
		<g id="g60" transform="matrix(1.25,0,0,-1.25,329.39963,603.54698)">
			
      
			
			
    
		</g>
		
    
		
		
    
		<g id="g66" transform="matrix(1.25,0,0,-1.25,341.97501,598.25548)">
			
      
			
			
    
		</g>
		
    
		<g id="g70" transform="matrix(1.25,0,0,-1.25,371.79625,603.54698)">
			
      
			
			
    
		</g>
		
    
		
		
    
		<g id="g76" transform="matrix(1.25,0,0,-1.25,361.01013,598.36923)">
			
      
			
			
    
		</g>
		
  
	</g>
	

</svg>