<?xml version="1.0" encoding="iso-8859-1"?><!-- Created with Inkscape (http://www.inkscape.org/) --><svg height="26.200001" id="svg3507" inkscape:version="0.48.1 " sodipodi:docname="Neues Dokument 3" version="1.1" width="95.919998" xmlns="http://www.w3.org/2000/svg" xmlns:cc="http://creativecommons.org/ns#" xmlns:dc="http://purl.org/dc/elements/1.1/" xmlns:inkscape="http://www.inkscape.org/namespaces/inkscape" xmlns:rdf="http://www.w3.org/1999/02/22-rdf-syntax-ns#" xmlns:sodipodi="http://sodipodi.sourceforge.net/DTD/sodipodi-0.dtd" xmlns:svg="http://www.w3.org/2000/svg">
	
  
	<defs id="defs3509"/>
	
  
	<sodipodi:namedview bordercolor="#666666" borderopacity="1.0" fit-margin-bottom="0" fit-margin-left="0" fit-margin-right="0" fit-margin-top="0" id="base" inkscape:current-layer="layer1" inkscape:cx="47.959995" inkscape:cy="13.100001" inkscape:document-units="px" inkscape:pageopacity="0.0" inkscape:pageshadow="2" inkscape:window-height="678" inkscape:window-maximized="1" inkscape:window-width="1024" inkscape:window-x="-4" inkscape:window-y="-4" inkscape:zoom="9.5190687" pagecolor="#ffffff" showgrid="false"/>
	
  
	<metadata id="metadata3512">
		
    
		<rdf:RDF>
			
      
			<cc:Work rdf:about="">
				
        
				<dc:format>image/svg+xml</dc:format>
				
        
				<dc:type rdf:resource="http://purl.org/dc/dcmitype/StillImage"/>
				
        
				<dc:title/>
				
      
			</cc:Work>
			
    
		</rdf:RDF>
		
  
	</metadata>
	
  
	<g id="layer1" inkscape:groupmode="layer" inkscape:label="Ebene 1" transform="translate(-287.58276,-582.06773)">
		
    
		
		
    
		
		
    
		
		
    
		
		
    
		
		
    
		
		
    
		<g id="g40" transform="matrix(1.25,0,0,-1.25,288.58438,598.25548)">
			
      
			
			
    
		</g>
		
    
		
		
    
		
		
    
		<g id="g56" transform="matrix(1.25,0,0,-1.25,315.46838,594.38298)">
			
      
			
			
    
		</g>
		
    
		<g id="g60" transform="matrix(1.25,0,0,-1.25,329.39963,603.54698)">
			
      
			
			
    
		</g>
		
    
		
		
    
		<g id="g66" transform="matrix(1.25,0,0,-1.25,341.97501,598.25548)">
			
      
			
			
    
		</g>
		
    
		<g id="g70" transform="matrix(1.25,0,0,-1.25,371.79625,603.54698)">
			
      
			<path animation_id="13" d="m 0,0 c 0.136,-0.973 0.879,-1.353 2.07,-1.353 0.663,0 1.42,0.15 2.151,0.542 l 0,-1.718 C 3.436,-2.84 2.543,-2.975 1.636,-2.975 c -2.325,0 -4.097,1.366 -4.097,3.693 0,2.325 1.582,3.678 3.773,3.678 2.61,0 3.557,-1.853 3.557,-3.95 L 4.869,0 0,0 z m 2.678,1.379 c 0,0.813 -0.378,1.475 -1.352,1.475 -0.879,0 -1.299,-0.662 -1.353,-1.475 l 2.705,0" id="path72" inkscape:connector-curvature="0" stroke="black" style="fill:#092239;fill-opacity:1;fill-rule:nonzero;"/>
			
    
		</g>
		
    
		
		
    
		<g id="g76" transform="matrix(1.25,0,0,-1.25,361.01013,598.36923)">
			
      
			
			
    
		</g>
		
  
	</g>
	

</svg>