<?xml version="1.0" encoding="iso-8859-1"?><!-- Generator: Adobe Illustrator 14.0.0, SVG Export Plug-In . SVG Version: 6.00 Build 43363)  --><!DOCTYPE svg  PUBLIC '-//W3C//DTD SVG 1.1//EN'  'http://www.w3.org/Graphics/SVG/1.1/DTD/svg11.dtd'><svg enable-background="new 0 0 1024 194" height="194px" id="Ebene_1" version="1.1" viewBox="0 0 1024 194" width="1024px" x="0px" xml:space="preserve" xmlns="http://www.w3.org/2000/svg" xmlns:xlink="http://www.w3.org/1999/xlink" y="0px">
	

	<g>
		
	
		
		
	
		
		
	
		
		
	
		
		
	
		
		
	
		
		
	
		
		
	
		
		
	
		
		
	
		
		
	
		
		
	
		
		
	
		
		
	
		
		
	
		
		
	
		
		
	
		
		
	
		
		
	
		
		
	
		
		
	
		
		
	
		
		
	
		
		
	
		
		
	
		
		
	
		
		
	
		
		
	
		
		
	
		
		
	
		
		
	
		
		
	
		
		
	
		
		
	
		<path animation_id="33" d="M778.849,134.194c0,4.013-0.327,7.578-0.986,10.693c-0.658,3.111-1.865,5.738-3.634,7.889   c-1.76,2.146-4.203,3.771-7.319,4.875c-3.111,1.105-7.098,1.658-11.935,1.658c-4.013,0-8.046-0.553-12.097-1.658   c-4.046-1.104-7.522-2.626-10.43-4.568l5.083-11.204c2.631,1.449,5.398,2.694,8.301,3.736c2.911,1.032,5.955,1.556,9.143,1.556   c3.455,0,5.789-0.816,7.005-2.44c1.207-1.628,1.818-4.169,1.818-7.625v-3.217c-1.245,1.245-2.767,2.214-4.568,2.907   c-1.798,0.688-4.017,1.037-6.644,1.037c-3.048,0-5.883-0.48-8.514-1.458c-2.631-0.965-4.951-2.521-6.953-4.667   c-2.011-2.143-3.583-4.96-4.73-8.454c-1.14-3.498-1.709-7.804-1.709-12.925c0-4.357,0.519-8.263,1.556-11.728   c1.037-3.455,2.508-6.396,4.412-8.815c1.904-2.422,4.208-4.289,6.906-5.606c2.699-1.313,5.708-1.977,9.032-1.977   c4.913,0,8.994,1.628,12.249,4.884V83.45h14.014V134.194z M763.798,98.708c-1.037-0.969-2.371-1.798-4.003-2.49   c-1.624-0.693-3.124-1.042-4.506-1.042c-3.119,0-5.453,1.199-7.009,3.587c-1.56,2.38-2.338,6.138-2.338,11.259   c0,10.026,3.01,15.042,9.032,15.042c2.143,0,3.902-0.311,5.292-0.931c1.381-0.616,2.559-1.352,3.531-2.181V98.708z" stroke="black"/>
		
	
		
		
	
		
		
	
		
		
	
		
		
	
		
		

	</g>
	

</svg>