<?xml version="1.0" encoding="iso-8859-1"?><!-- Generator: Adobe Illustrator 14.0.0, SVG Export Plug-In . SVG Version: 6.00 Build 43363)  --><!DOCTYPE svg  PUBLIC '-//W3C//DTD SVG 1.1//EN'  'http://www.w3.org/Graphics/SVG/1.1/DTD/svg11.dtd'><svg enable-background="new 0 0 1024 194" height="194px" id="Ebene_1" version="1.1" viewBox="0 0 1024 194" width="1024px" x="0px" xml:space="preserve" xmlns="http://www.w3.org/2000/svg" xmlns:xlink="http://www.w3.org/1999/xlink" y="0px">
	

	<g>
		
	
		
		
	
		<path animation_id="1" d="M234.649,193.091c0-1.704,0-3.455,0.244-4.819h-0.098c-1.171,2.967-4.237,5.253-8.229,5.253   c-3.993,0-6.72-2.138-6.72-5.984c0-5.305,5.404-8.662,14.56-8.662v-1.802c0-3.354-1.315-5.156-5.307-5.156   c-2.291,0-5.211,0.731-7.307,1.994l-0.438-3.754c2.338-0.965,5.26-1.751,8.473-1.751c6.962,0,8.959,3.265,8.959,8.084v9.636   c0,2.291,0.049,4.867,0.096,6.962H234.649z M234.407,181.942c-8.424,0-10.273,2.58-10.273,4.773c0,2.04,1.458,3.357,3.698,3.357   c3.944,0,6.575-3.897,6.575-7.688V181.942z" stroke="black"/>
		
	
		
		
	
		
		
	
		
		
	
		
		
	
		
		
	
		
		
	
		
		
	
		
		
	
		
		
	
		
		
	
		
		
	
		
		
	
		
		
	
		
		
	
		
		
	
		
		
	
		
		
	
		
		
	
		
		
	
		
		
	
		
		
	
		
		
	
		
		
	
		
		
	
		
		
	
		
		
	
		
		
	
		
		
	
		
		
	
		
		
	
		
		
	
		
		
	
		
		
	
		
		
	
		
		
	
		
		
	
		
		

	</g>
	

</svg>