<?xml version="1.0" encoding="iso-8859-1"?><!-- Generator: Adobe Illustrator 14.0.0, SVG Export Plug-In . SVG Version: 6.00 Build 43363)  --><!DOCTYPE svg  PUBLIC '-//W3C//DTD SVG 1.1//EN'  'http://www.w3.org/Graphics/SVG/1.1/DTD/svg11.dtd'><svg enable-background="new 0 0 1024 194" height="194px" id="Ebene_1" version="1.1" viewBox="0 0 1024 194" width="1024px" x="0px" xml:space="preserve" xmlns="http://www.w3.org/2000/svg" xmlns:xlink="http://www.w3.org/1999/xlink" y="0px">
	

	<g>
		
	
		
		
	
		
		
	
		
		
	
		
		
	
		
		
	
		
		
	
		
		
	
		
		
	
		
		
	
		
		
	
		
		
	
		
		
	
		<path animation_id="12" d="M528.122,193.524c-1.798,0-3.601-0.145-5.113-0.434l0.145-3.897c1.513,0.489,3.46,0.825,5.309,0.825   c3.218,0,5.402-1.454,5.402-3.694c0-5.401-11.247-2.095-11.247-10.608c0-4.093,3.362-7.256,9.695-7.256   c1.458,0,3.162,0.196,4.62,0.489l-0.098,3.651c-1.505-0.489-3.26-0.782-4.866-0.782c-3.214,0-4.82,1.364-4.82,3.455   c0,5.305,11.298,2.436,11.298,10.566C538.446,190.218,534.544,193.524,528.122,193.524" stroke="black"/>
		
	
		
		
	
		
		
	
		
		
	
		
		
	
		
		
	
		
		
	
		
		
	
		
		
	
		
		
	
		
		
	
		
		
	
		
		
	
		
		
	
		
		
	
		
		
	
		
		
	
		
		
	
		
		
	
		
		
	
		
		
	
		
		
	
		
		
	
		
		
	
		
		
	
		
		
	
		
		

	</g>
	

</svg>