<?xml version="1.0" encoding="iso-8859-1"?><!-- Generator: Adobe Illustrator 14.0.0, SVG Export Plug-In . SVG Version: 6.00 Build 43363)  --><!DOCTYPE svg  PUBLIC '-//W3C//DTD SVG 1.1//EN'  'http://www.w3.org/Graphics/SVG/1.1/DTD/svg11.dtd'><svg enable-background="new 0 0 1024 194" height="194px" id="Ebene_1" version="1.1" viewBox="0 0 1024 194" width="1024px" x="0px" xml:space="preserve" xmlns="http://www.w3.org/2000/svg" xmlns:xlink="http://www.w3.org/1999/xlink" y="0px">
	

	<g>
		
	
		
		
	
		
		
	
		
		
	
		
		
	
		
		
	
		
		
	
		
		
	
		
		
	
		
		
	
		
		
	
		
		
	
		
		
	
		
		
	
		
		
	
		
		
	
		
		
	
		
		
	
		
		
	
		
		
	
		
		
	
		
		
	
		
		
	
		
		
	
		
		
	
		
		
	
		
		
	
		
		
	
		
		
	
		<path animation_id="28" d="M466.414,82.204c7.402,0,13.129,2.389,17.18,7.162c4.05,4.781,6.074,11.557,6.074,20.342c0,0.965-0.017,1.87-0.053,2.695   c-0.036,0.833-0.119,1.733-0.257,2.703h-33.118c0.138,3.392,1.09,6.086,2.856,8.092c1.762,2.007,4.408,3.01,7.94,3.01   c2.561,0,4.811-0.638,6.75-1.921c1.934-1.279,3.423-2.542,4.465-3.787l9.342,10.068c-3.254,3.248-6.631,5.483-10.12,6.694   c-3.496,1.207-7.013,1.815-10.539,1.815c-4.499,0-8.396-0.659-11.682-1.973s-6.004-3.2-8.15-5.661   c-2.145-2.452-3.736-5.39-4.775-8.815c-1.037-3.426-1.556-7.251-1.556-11.467c0-4.357,0.584-8.301,1.766-11.829   c1.175-3.528,2.888-6.571,5.139-9.134s4.949-4.531,8.097-5.917C458.92,82.901,462.467,82.204,466.414,82.204 M465.58,94.556   c-1.591,0-2.941,0.281-4.048,0.833c-1.107,0.553-2.025,1.279-2.75,2.177c-0.727,0.9-1.3,1.938-1.713,3.115   c-0.417,1.177-0.692,2.427-0.831,3.736h18.478c-0.07-2.903-0.867-5.275-2.386-7.107C470.804,95.474,468.556,94.556,465.58,94.556" stroke="black"/>
		
	
		
		
	
		
		
	
		
		
	
		
		
	
		
		
	
		
		
	
		
		
	
		
		
	
		
		
	
		
		

	</g>
	

</svg>