<?xml version="1.0" encoding="iso-8859-1"?><!-- Generator: Adobe Illustrator 14.0.0, SVG Export Plug-In . SVG Version: 6.00 Build 43363)  --><!DOCTYPE svg  PUBLIC '-//W3C//DTD SVG 1.1//EN'  'http://www.w3.org/Graphics/SVG/1.1/DTD/svg11.dtd'><svg enable-background="new 0 0 1024 194" height="194px" id="Ebene_1" version="1.1" viewBox="0 0 1024 194" width="1024px" x="0px" xml:space="preserve" xmlns="http://www.w3.org/2000/svg" xmlns:xlink="http://www.w3.org/1999/xlink" y="0px">
	

	<g>
		
	
		
		
	
		
		
	
		
		
	
		
		
	
		
		
	
		
		
	
		
		
	
		
		
	
		
		
	
		
		
	
		
		
	
		
		
	
		
		
	
		
		
	
		
		
	
		
		
	
		
		
	
		
		
	
		
		
	
		
		
	
		
		
	
		
		
	
		
		
	
		
		
	
		
		
	
		
		
	
		
		
	
		
		
	
		
		
	
		
		
	
		
		
	
		
		
	
		
		
	
		
		
	
		
		
	
		<path animation_id="35" d="M912.237,127.865c-1.25,1.526-2.665,2.963-4.259,4.314c-1.599,1.348-3.342,2.542-5.241,3.579   c-1.904,1.037-3.982,1.849-6.231,2.435c-2.248,0.587-4.688,0.885-7.314,0.885c-3.944,0-7.515-0.642-10.698-1.926   c-3.184-1.275-5.882-3.128-8.097-5.542c-2.21-2.423-3.928-5.381-5.143-8.879c-1.207-3.494-1.811-7.455-1.811-11.884   c0-4.217,0.604-8.089,1.811-11.616c1.215-3.528,2.975-6.559,5.296-9.083c2.32-2.524,5.126-4.479,8.411-5.865   c3.285-1.381,7.009-2.074,11.157-2.074c2.703,0,5.16,0.332,7.379,0.99c2.21,0.65,4.254,1.535,6.12,2.64   c1.87,1.109,3.532,2.354,4.985,3.74c1.454,1.381,2.768,2.835,3.944,4.356l-9.754,9.44c-0.834-1.037-1.7-2.015-2.602-2.954   c-0.901-0.935-1.854-1.764-2.852-2.49c-1.008-0.727-2.113-1.296-3.32-1.713c-1.215-0.413-2.584-0.621-4.105-0.621   c-3.256,0-5.955,1.211-8.102,3.634c-2.146,2.418-3.213,6.29-3.213,11.616c0,5.325,1.066,9.188,3.213,11.573   c2.146,2.389,4.846,3.579,8.102,3.579c2.835,0,5.287-0.688,7.37-2.074c2.078-1.386,4.046-3.184,5.921-5.394L912.237,127.865z" stroke="black"/>
		
	
		
		
	
		
		
	
		
		

	</g>
	

</svg>