<?xml version="1.0" encoding="iso-8859-1"?><!-- Generator: Adobe Illustrator 14.0.0, SVG Export Plug-In . SVG Version: 6.00 Build 43363)  --><!DOCTYPE svg  PUBLIC '-//W3C//DTD SVG 1.1//EN'  'http://www.w3.org/Graphics/SVG/1.1/DTD/svg11.dtd'><svg enable-background="new 0 0 1024 194" height="194px" id="Ebene_1" version="1.1" viewBox="0 0 1024 194" width="1024px" x="0px" xml:space="preserve" xmlns="http://www.w3.org/2000/svg" xmlns:xlink="http://www.w3.org/1999/xlink" y="0px">
	

	<g>
		
	
		
		
	
		
		
	
		
		
	
		
		
	
		
		
	
		
		
	
		
		
	
		
		
	
		
		
	
		
		
	
		<path animation_id="10" d="M483.532,193.091h-5.502l-6.282-22.093c-0.533-1.904-0.924-3.851-1.218-5.695h-0.047c-0.24,1.896-0.633,3.744-1.167,5.64   l-6.138,22.148h-5.353l-8.671-32.854h4.773l5.549,21.417c0.586,2.189,0.975,4.187,1.315,6.324h0.049   c0.342-2.091,0.782-4.135,1.315-6.077l6.084-21.664h5.066l6.28,21.851c0.489,1.709,0.976,3.8,1.313,5.798h0.049   c0.34-1.904,0.686-3.604,1.122-5.355l5.693-22.293h4.431L483.532,193.091z" stroke="black"/>
		
	
		
		
	
		
		
	
		
		
	
		
		
	
		
		
	
		
		
	
		
		
	
		
		
	
		
		
	
		
		
	
		
		
	
		
		
	
		
		
	
		
		
	
		
		
	
		
		
	
		
		
	
		
		
	
		
		
	
		
		
	
		
		
	
		
		
	
		
		
	
		
		
	
		
		
	
		
		
	
		
		
	
		
		

	</g>
	

</svg>