<?xml version="1.0" encoding="iso-8859-1"?><!-- Generator: Adobe Illustrator 14.0.0, SVG Export Plug-In . SVG Version: 6.00 Build 43363)  --><!DOCTYPE svg  PUBLIC '-//W3C//DTD SVG 1.1//EN'  'http://www.w3.org/Graphics/SVG/1.1/DTD/svg11.dtd'><svg enable-background="new 0 0 1024 194" height="194px" id="Ebene_1" version="1.1" viewBox="0 0 1024 194" width="1024px" x="0px" xml:space="preserve" xmlns="http://www.w3.org/2000/svg" xmlns:xlink="http://www.w3.org/1999/xlink" y="0px">
	

	<g>
		
	
		
		
	
		
		
	
		
		
	
		
		
	
		
		
	
		
		
	
		
		
	
		
		
	
		
		
	
		
		
	
		
		
	
		
		
	
		
		
	
		
		
	
		
		
	
		
		
	
		
		
	
		
		
	
		
		
	
		
		
	
		
		
	
		
		
	
		
		
	
		
		
	
		
		
	
		
		
	
		
		
	
		
		
	
		
		
	
		
		
	
		
		
	
		
		
	
		
		
	
		
		
	
		
		
	
		
		
	
		<path animation_id="36" d="M952.471,137.833v-29.995c0-4.633-0.766-7.795-2.287-9.491c-1.521-1.696-3.664-2.542-6.435-2.542   c-3.044,0-5.33,0.918-6.852,2.75c-1.521,1.836-2.282,5.1-2.282,9.805v29.473h-15.468V66.431h15.468v21.481   c1.589-1.658,3.616-3.022,6.073-4.093c2.457-1.075,5.309-1.611,8.564-1.611c6.644,0,11.421,1.938,14.328,5.81   c2.902,3.872,4.36,9.479,4.36,16.814v33H952.471z" stroke="black"/>
		
	
		
		
	
		
		

	</g>
	

</svg>