<?xml version="1.0" encoding="iso-8859-1"?><!-- Generator: Adobe Illustrator 14.0.0, SVG Export Plug-In . SVG Version: 6.00 Build 43363)  --><!DOCTYPE svg  PUBLIC '-//W3C//DTD SVG 1.1//EN'  'http://www.w3.org/Graphics/SVG/1.1/DTD/svg11.dtd'><svg enable-background="new 0 0 1024 194" height="194px" id="Ebene_1" version="1.1" viewBox="0 0 1024 194" width="1024px" x="0px" xml:space="preserve" xmlns="http://www.w3.org/2000/svg" xmlns:xlink="http://www.w3.org/1999/xlink" y="0px">
	

	<g>
		
	
		
		
	
		
		
	
		
		
	
		
		
	
		
		
	
		
		
	
		
		
	
		
		
	
		
		
	
		
		
	
		
		
	
		
		
	
		
		
	
		
		
	
		<path animation_id="14" d="M581.289,180.727H565.47c-0.195,6.474,2.481,9.245,7.642,9.245c2.482,0,5.117-0.583,7.06-1.509l0.388,3.557   c-2.33,0.97-5.16,1.505-8.178,1.505c-7.451,0-11.442-3.889-11.442-12.406c0-7.256,3.944-12.653,10.813-12.653   c6.818,0,9.683,4.62,9.683,10.171C581.434,179.223,581.387,179.902,581.289,180.727 M571.552,171.674   c-3.167,0-5.402,2.385-5.891,5.941h11.297C577.056,174.059,574.965,171.674,571.552,171.674" stroke="black"/>
		
	
		
		
	
		
		
	
		
		
	
		
		
	
		
		
	
		
		
	
		
		
	
		
		
	
		
		
	
		
		
	
		
		
	
		
		
	
		
		
	
		
		
	
		
		
	
		
		
	
		
		
	
		
		
	
		
		
	
		
		
	
		
		
	
		
		
	
		
		
	
		
		

	</g>
	

</svg>