<?xml version="1.0" encoding="iso-8859-1"?><!-- Generator: Adobe Illustrator 14.0.0, SVG Export Plug-In . SVG Version: 6.00 Build 43363)  --><!DOCTYPE svg  PUBLIC '-//W3C//DTD SVG 1.1//EN'  'http://www.w3.org/Graphics/SVG/1.1/DTD/svg11.dtd'><svg enable-background="new 0 0 1024 194" height="194px" id="Ebene_1" version="1.1" viewBox="0 0 1024 194" width="1024px" x="0px" xml:space="preserve" xmlns="http://www.w3.org/2000/svg" xmlns:xlink="http://www.w3.org/1999/xlink" y="0px">
	

	<g>
		
	
		
		
	
		
		
	
		
		
	
		
		
	
		
		
	
		
		
	
		
		
	
		
		
	
		
		
	
		
		
	
		
		
	
		
		
	
		
		
	
		
		
	
		
		
	
		
		
	
		
		
	
		
		
	
		
		
	
		
		
	
		
		
	
		
		
	
		
		
	
		
		
	
		
		
	
		
		
	
		
		
	
		
		
	
		
		
	
		
		
	
		<path animation_id="30" d="M633.016,110.639c0,4.085-0.484,7.859-1.453,11.314c-0.965,3.46-2.368,6.452-4.199,8.977   c-1.837,2.529-4.089,4.514-6.75,5.968c-2.669,1.449-5.661,2.181-8.981,2.181c-2.835,0-5.368-0.468-7.578-1.403   c-2.219-0.931-4.084-2.197-5.605-3.786l-0.523,3.944h-13.593V66.436h15.148v19.926c1.182-0.969,2.878-1.904,5.092-2.806   c2.215-0.896,4.812-1.352,7.787-1.352c2.767,0,5.397,0.527,7.884,1.564c2.495,1.037,4.692,2.678,6.593,4.926   c1.904,2.249,3.408,5.168,4.518,8.769C632.463,101.063,633.016,105.453,633.016,110.639 M617.757,110.125   c0-4.981-0.85-8.684-2.542-11.103c-1.695-2.422-3.97-3.634-6.8-3.634c-1.803,0-3.443,0.327-4.931,0.986   c-1.487,0.658-2.822,1.538-4.004,2.644v22.833c0.901,0.896,2.168,1.798,3.791,2.694c1.628,0.905,3.341,1.352,5.144,1.352   c2.975,0,5.278-1.189,6.902-3.579C616.941,119.931,617.757,115.862,617.757,110.125" stroke="black"/>
		
	
		
		
	
		
		
	
		
		
	
		
		
	
		
		
	
		
		
	
		
		
	
		
		

	</g>
	

</svg>