<?xml version="1.0" encoding="iso-8859-1"?><!-- Generator: Adobe Illustrator 14.0.0, SVG Export Plug-In . SVG Version: 6.00 Build 43363)  --><!DOCTYPE svg  PUBLIC '-//W3C//DTD SVG 1.1//EN'  'http://www.w3.org/Graphics/SVG/1.1/DTD/svg11.dtd'><svg enable-background="new 0 0 1024 194" height="194px" id="Ebene_1" version="1.1" viewBox="0 0 1024 194" width="1024px" x="0px" xml:space="preserve" xmlns="http://www.w3.org/2000/svg" xmlns:xlink="http://www.w3.org/1999/xlink" y="0px">
	

	<g>
		
	
		
		
	
		
		
	
		
		
	
		
		
	
		
		
	
		
		
	
		
		
	
		
		
	
		
		
	
		
		
	
		
		
	
		
		
	
		
		
	
		
		
	
		
		
	
		
		
	
		
		
	
		
		
	
		
		
	
		
		
	
		
		
	
		
		
	
		
		
	
		
		
	
		
		
	
		
		
	
		
		
	
		
		
	
		
		
	
		
		
	
		
		
	
		<path animation_id="31" d="M664.218,82.204c7.399,0,13.129,2.389,17.18,7.162c4.05,4.781,6.073,11.557,6.073,20.342c0,0.965-0.017,1.87-0.051,2.695   c-0.038,0.833-0.123,1.733-0.264,2.703h-33.114c0.141,3.392,1.093,6.086,2.86,8.092c1.76,2.007,4.403,3.01,7.936,3.01   c2.563,0,4.812-0.638,6.754-1.921c1.93-1.279,3.422-2.542,4.459-3.787l9.346,10.068c-3.256,3.248-6.63,5.483-10.124,6.694   c-3.494,1.207-7.013,1.815-10.536,1.815c-4.502,0-8.395-0.659-11.685-1.973c-3.281-1.313-6.001-3.2-8.147-5.661   c-2.146-2.452-3.736-5.39-4.773-8.815s-1.556-7.251-1.556-11.467c0-4.357,0.582-8.301,1.769-11.829   c1.173-3.528,2.881-6.571,5.134-9.134c2.249-2.563,4.947-4.531,8.097-5.917C656.729,82.901,660.269,82.204,664.218,82.204    M663.385,94.556c-1.595,0-2.941,0.281-4.051,0.833c-1.105,0.553-2.023,1.279-2.746,2.177c-0.727,0.9-1.301,1.938-1.717,3.115   c-0.412,1.177-0.688,2.427-0.829,3.736h18.477c-0.068-2.903-0.867-5.275-2.389-7.107C668.612,95.474,666.363,94.556,663.385,94.556   " stroke="black"/>
		
	
		
		
	
		
		
	
		
		
	
		
		
	
		
		
	
		
		
	
		
		

	</g>
	

</svg>