<?xml version="1.0" encoding="iso-8859-1"?><!-- Generator: Adobe Illustrator 14.0.0, SVG Export Plug-In . SVG Version: 6.00 Build 43363)  --><!DOCTYPE svg  PUBLIC '-//W3C//DTD SVG 1.1//EN'  'http://www.w3.org/Graphics/SVG/1.1/DTD/svg11.dtd'><svg enable-background="new 0 0 1024 194" height="194px" id="Ebene_1" version="1.1" viewBox="0 0 1024 194" width="1024px" x="0px" xml:space="preserve" xmlns="http://www.w3.org/2000/svg" xmlns:xlink="http://www.w3.org/1999/xlink" y="0px">
	

	<g>
		
	
		
		
	
		
		
	
		
		
	
		
		
	
		
		
	
		
		
	
		
		
	
		
		
	
		
		
	
		
		
	
		
		
	
		
		
	
		
		
	
		
		
	
		
		
	
		
		
	
		
		
	
		
		
	
		
		
	
		
		
	
		
		
	
		
		
	
		
		
	
		
		
	
		
		
	
		
		
	
		
		
	
		
		
	
		
		
	
		<path animation_id="29" d="M560.633,137.833v-30.819c0-4.429-0.693-7.404-2.083-8.926c-1.381-1.522-3.493-2.283-6.324-2.283   c-2.771,0-4.812,0.846-6.129,2.542c-1.313,1.696-1.973,4.515-1.973,8.454v31.032h-15.471v-31.236c0-4.017-0.655-6.813-1.973-8.407   c-1.309-1.589-3.354-2.384-6.12-2.384c-2.839,0-4.952,0.867-6.335,2.593c-1.384,1.729-2.077,4.564-2.077,8.509v30.926h-15.465   V83.454h14.428v4.879c1.594-1.934,3.649-3.442,6.176-4.514c2.524-1.075,5.07-1.611,7.633-1.611c7.196,0,12.147,2.491,14.843,7.472   c0.973-1.037,2.01-2.023,3.119-2.954c1.105-0.939,2.347-1.734,3.732-2.389c1.386-0.659,2.962-1.177,4.727-1.56   c1.764-0.378,3.753-0.569,5.972-0.569c3.455,0,6.346,0.501,8.666,1.504c2.316,1.003,4.183,2.402,5.602,4.2   c1.424,1.798,2.444,3.965,3.069,6.49c0.62,2.524,0.935,5.308,0.935,8.352v35.078H560.633z" stroke="black"/>
		
	
		
		
	
		
		
	
		
		
	
		
		
	
		
		
	
		
		
	
		
		
	
		
		
	
		
		

	</g>
	

</svg>