<?xml version="1.0" encoding="iso-8859-1"?><!-- Created with Inkscape (http://www.inkscape.org/) --><svg height="307.91339" id="svg5569" version="1.1" width="892.91339" xmlns="http://www.w3.org/2000/svg" xmlns:cc="http://creativecommons.org/ns#" xmlns:dc="http://purl.org/dc/elements/1.1/" xmlns:rdf="http://www.w3.org/1999/02/22-rdf-syntax-ns#" xmlns:svg="http://www.w3.org/2000/svg">
	
  
	<defs id="defs5571"/>
	
  
	<metadata id="metadata5574">
		
    
		<rdf:RDF>
			
      
			<cc:Work rdf:about="">
				
        
				<dc:format>image/svg+xml</dc:format>
				
        
				<dc:type rdf:resource="http://purl.org/dc/dcmitype/StillImage"/>
				
        
				<dc:title/>
				
      
			</cc:Work>
			
    
		</rdf:RDF>
		
  
	</metadata>
	
  
	<g id="layer1" transform="translate(182.00809,-194.06571)">
		
    
		<g id="g5610" transform="matrix(7.1428282,0,0,7.1428282,-1755.9514,-3168.8361)">
			
      
			<g id="g4537" transform="matrix(1.25,0,0,-1.25,237.77277,501.88218)">
				
        
				
				
      
			</g>
			
      
			<g id="g4541" style="fill:#134b98;fill-opacity:1" transform="matrix(1.25,0,0,-1.25,253.29652,471.31718)">
				
        
				
				
      
			</g>
			
      
			<g id="g4545" transform="matrix(1.25,0,0,-1.25,234.84402,485.35843)">
				
        
				
				
      
			</g>
			
      
			<g id="g4549" style="fill:#134b98;fill-opacity:1" transform="matrix(1.25,0,0,-1.25,338.42777,491.42968)">
				
        
				
				
      
			</g>
			
      
			<g id="g4553" style="fill:#134b98;fill-opacity:1" transform="matrix(1.25,0,0,-1.25,279.55652,496.64218)">
				
        
				<path animation_id="4" d="m 0,0 -13.767,0 0,4.206 8.611,-0.001 c -0.151,3.854 -2.376,5.907 -5.408,5.907 -3.033,0 -5.308,-2.053 -5.409,-5.907 l 0,-4.205 c 0,-4.155 2.578,-6.257 6.116,-6.257 1.972,0 4.095,0.901 5.611,2.452 l 3.741,-3.153 c -2.528,-2.904 -5.814,-4.105 -9.251,-4.105 -5.257,0 -11.373,2.503 -11.373,12.915 0,9.862 5.611,13.066 10.565,13.066 C -4.903,14.918 0,10.763 0,4.205 L 0,0" id="path4555" stroke="black" style="fill:#134b98;fill-opacity:1;fill-rule:nonzero;"/>
				
      
			</g>
			
      
			<g id="g4557" style="fill:#134b98;fill-opacity:1" transform="matrix(1.25,0,0,-1.25,285.09902,502.54468)">
				
        
				
				
      
			</g>
			
      
			<g id="g4561" style="fill:#134b98;fill-opacity:1" transform="matrix(1.25,0,0,-1.25,304.03527,502.54468)">
				
        
				
				
      
			</g>
			
    
		</g>
		
  
	</g>
	

</svg>