<?xml version="1.0" encoding="iso-8859-1"?><!-- Created with Inkscape (http://www.inkscape.org/) --><svg height="307.91339" id="svg5569" version="1.1" width="892.91339" xmlns="http://www.w3.org/2000/svg" xmlns:cc="http://creativecommons.org/ns#" xmlns:dc="http://purl.org/dc/elements/1.1/" xmlns:rdf="http://www.w3.org/1999/02/22-rdf-syntax-ns#" xmlns:svg="http://www.w3.org/2000/svg">
	
  
	<defs id="defs5571"/>
	
  
	<metadata id="metadata5574">
		
    
		<rdf:RDF>
			
      
			<cc:Work rdf:about="">
				
        
				<dc:format>image/svg+xml</dc:format>
				
        
				<dc:type rdf:resource="http://purl.org/dc/dcmitype/StillImage"/>
				
        
				<dc:title/>
				
      
			</cc:Work>
			
    
		</rdf:RDF>
		
  
	</metadata>
	
  
	<g id="layer1" transform="translate(182.00809,-194.06571)">
		
    
		<g id="g5610" transform="matrix(7.1428282,0,0,7.1428282,-1755.9514,-3168.8361)">
			
      
			<g id="g4537" transform="matrix(1.25,0,0,-1.25,237.77277,501.88218)">
				
        
				<path animation_id="0" d="m 0,0 3.961,-6.65 5.625,0 L 2.803,4.656 0,0" id="path4539" stroke="black" style="fill:#acb0e0;fill-opacity:1;fill-rule:nonzero;"/>
				
      
			</g>
			
      
			<g id="g4541" style="fill:#134b98;fill-opacity:1" transform="matrix(1.25,0,0,-1.25,253.29652,471.31718)">
				
        
				
				
      
			</g>
			
      
			<g id="g4545" transform="matrix(1.25,0,0,-1.25,234.84402,485.35843)">
				
        
				
				
      
			</g>
			
      
			<g id="g4549" style="fill:#134b98;fill-opacity:1" transform="matrix(1.25,0,0,-1.25,338.42777,491.42968)">
				
        
				
				
      
			</g>
			
      
			<g id="g4553" style="fill:#134b98;fill-opacity:1" transform="matrix(1.25,0,0,-1.25,279.55652,496.64218)">
				
        
				
				
      
			</g>
			
      
			<g id="g4557" style="fill:#134b98;fill-opacity:1" transform="matrix(1.25,0,0,-1.25,285.09902,502.54468)">
				
        
				
				
      
			</g>
			
      
			<g id="g4561" style="fill:#134b98;fill-opacity:1" transform="matrix(1.25,0,0,-1.25,304.03527,502.54468)">
				
        
				
				
      
			</g>
			
    
		</g>
		
  
	</g>
	

</svg>