<?xml version="1.0" encoding="iso-8859-1"?><!-- Created with Inkscape (http://www.inkscape.org/) --><svg height="307.91339" id="svg5569" version="1.1" width="892.91339" xmlns="http://www.w3.org/2000/svg" xmlns:cc="http://creativecommons.org/ns#" xmlns:dc="http://purl.org/dc/elements/1.1/" xmlns:rdf="http://www.w3.org/1999/02/22-rdf-syntax-ns#" xmlns:svg="http://www.w3.org/2000/svg">
	
  
	<defs id="defs5571"/>
	
  
	<metadata id="metadata5574">
		
    
		<rdf:RDF>
			
      
			<cc:Work rdf:about="">
				
        
				<dc:format>image/svg+xml</dc:format>
				
        
				<dc:type rdf:resource="http://purl.org/dc/dcmitype/StillImage"/>
				
        
				<dc:title/>
				
      
			</cc:Work>
			
    
		</rdf:RDF>
		
  
	</metadata>
	
  
	<g id="layer1" transform="translate(182.00809,-194.06571)">
		
    
		<g id="g5610" transform="matrix(7.1428282,0,0,7.1428282,-1755.9514,-3168.8361)">
			
      
			<g id="g4537" transform="matrix(1.25,0,0,-1.25,237.77277,501.88218)">
				
        
				
				
      
			</g>
			
      
			<g id="g4541" style="fill:#134b98;fill-opacity:1" transform="matrix(1.25,0,0,-1.25,253.29652,471.31718)">
				
        
				
				
      
			</g>
			
      
			<g id="g4545" transform="matrix(1.25,0,0,-1.25,234.84402,485.35843)">
				
        
				
				
      
			</g>
			
      
			<g id="g4549" style="fill:#134b98;fill-opacity:1" transform="matrix(1.25,0,0,-1.25,338.42777,491.42968)">
				
        
				<path animation_id="3" d="m 0,0 -0.006,2.661 c 0,2.409 -1.567,3.263 -5.257,3.263 -2.679,0 -3.942,-0.502 -4.852,-1.958 l -4.044,3.062 c 1.971,2.711 4.802,3.715 8.643,3.715 6.319,0 10.666,-2.108 10.666,-8.384 l 0,-17.369 -5.156,0 0,10.793 -6.167,0 c -3.032,0 -4.448,-1.205 -4.448,-3.062 0,-1.707 1.365,-3.213 4.852,-3.213 1.525,0 2.697,0.065 3.569,0.316 l -0.005,-4.323 c -1.005,-0.408 -2.918,-0.812 -4.636,-0.812 -5.712,0 -9.048,3.363 -9.048,7.781 0,4.066 2.831,7.53 8.34,7.53 L 0,0" id="path4551" stroke="black" style="fill:#134b98;fill-opacity:1;fill-rule:nonzero;"/>
				
      
			</g>
			
      
			<g id="g4553" style="fill:#134b98;fill-opacity:1" transform="matrix(1.25,0,0,-1.25,279.55652,496.64218)">
				
        
				
				
      
			</g>
			
      
			<g id="g4557" style="fill:#134b98;fill-opacity:1" transform="matrix(1.25,0,0,-1.25,285.09902,502.54468)">
				
        
				
				
      
			</g>
			
      
			<g id="g4561" style="fill:#134b98;fill-opacity:1" transform="matrix(1.25,0,0,-1.25,304.03527,502.54468)">
				
        
				
				
      
			</g>
			
    
		</g>
		
  
	</g>
	

</svg>