<?xml version="1.0" encoding="iso-8859-1"?><svg height="261.29987" id="svg3336" version="1.1" viewBox="0 0 431.69974 261.29987" width="431.69974" xml:space="preserve" xmlns="http://www.w3.org/2000/svg" xmlns:cc="http://creativecommons.org/ns#" xmlns:dc="http://purl.org/dc/elements/1.1/" xmlns:rdf="http://www.w3.org/1999/02/22-rdf-syntax-ns#" xmlns:svg="http://www.w3.org/2000/svg">
	<metadata id="metadata3342">
		<rdf:RDF>
			<cc:Work rdf:about="">
				<dc:format>image/svg+xml</dc:format>
				<dc:type rdf:resource="http://purl.org/dc/dcmitype/StillImage"/>
				<dc:title/>
			</cc:Work>
		</rdf:RDF>
	</metadata>
	<defs id="defs3340">
		<clipPath clipPathUnits="userSpaceOnUse" id="clipPath3350">
			
		</clipPath>
		<clipPath clipPathUnits="userSpaceOnUse" id="clipPath3360">
			
		</clipPath>
		<clipPath clipPathUnits="userSpaceOnUse" id="clipPath3370">
			
		</clipPath>
		<clipPath clipPathUnits="userSpaceOnUse" id="clipPath3394">
			
		</clipPath>
		<clipPath clipPathUnits="userSpaceOnUse" id="clipPath3406">
			
		</clipPath>
	</defs>
	<g id="g3344" transform="matrix(1.25,0,0,-1.25,0,261.29987)">
		<g id="g3346">
			<g clip-path="url(#clipPath3350)" id="g3348">
				
			</g>
		</g>
		<g id="g3356">
			<g clip-path="url(#clipPath3360)" id="g3358">
				
			</g>
		</g>
		<g id="g3366">
			<g clip-path="url(#clipPath3370)" id="g3368">
				
				
				
				
				
				
				
				
			</g>
		</g>
		<g id="g3390">
			<g clip-path="url(#clipPath3394)" id="g3392">
				
				
			</g>
		</g>
		<g id="g3402">
			<g clip-path="url(#clipPath3406)" id="g3404">
				
				
				<path animation_id="19" d="M 47.319,4.458 C 47.048,3.102 46.808,1.778 46.657,0.363 l -5.028,0 0.422,2.558 -0.06,0 c -1.566,-1.746 -3.192,-2.92 -6.052,-2.92 -3.161,0 -4.877,2.349 -4.877,5.419 0,1.054 0.091,1.657 0.422,3.312 l 1.445,7.315 5.599,0 -1.505,-7.345 c -0.15,-0.783 -0.361,-1.566 -0.361,-2.378 0,-0.934 0.602,-1.866 2.107,-1.807 2.288,0 3.643,1.987 4.035,4.306 l 1.535,7.224 5.419,0 -2.439,-11.589" id="path3414" stroke="black" style="fill:#ed1b29;fill-opacity:1;fill-rule:nonzero;"/>
				
				
				
				
				
				
				
				
				
				
				
				
				
				
				
				
			</g>
		</g>
	</g>
</svg>