<?xml version="1.0" encoding="iso-8859-1"?><svg height="261.29987" id="svg3336" version="1.1" viewBox="0 0 431.69974 261.29987" width="431.69974" xml:space="preserve" xmlns="http://www.w3.org/2000/svg" xmlns:cc="http://creativecommons.org/ns#" xmlns:dc="http://purl.org/dc/elements/1.1/" xmlns:rdf="http://www.w3.org/1999/02/22-rdf-syntax-ns#" xmlns:svg="http://www.w3.org/2000/svg">
	<metadata id="metadata3342">
		<rdf:RDF>
			<cc:Work rdf:about="">
				<dc:format>image/svg+xml</dc:format>
				<dc:type rdf:resource="http://purl.org/dc/dcmitype/StillImage"/>
				<dc:title/>
			</cc:Work>
		</rdf:RDF>
	</metadata>
	<defs id="defs3340">
		<clipPath clipPathUnits="userSpaceOnUse" id="clipPath3350">
			
		</clipPath>
		<clipPath clipPathUnits="userSpaceOnUse" id="clipPath3360">
			
		</clipPath>
		<clipPath clipPathUnits="userSpaceOnUse" id="clipPath3370">
			
		</clipPath>
		<clipPath clipPathUnits="userSpaceOnUse" id="clipPath3394">
			
		</clipPath>
		<clipPath clipPathUnits="userSpaceOnUse" id="clipPath3406">
			
		</clipPath>
	</defs>
	<g id="g3344" transform="matrix(1.25,0,0,-1.25,0,261.29987)">
		<g id="g3346">
			<g clip-path="url(#clipPath3350)" id="g3348">
				
			</g>
		</g>
		<g id="g3356">
			<g clip-path="url(#clipPath3360)" id="g3358">
				
			</g>
		</g>
		<g id="g3366">
			<g clip-path="url(#clipPath3370)" id="g3368">
				
				
				
				
				
				
				
				
			</g>
		</g>
		<g id="g3390">
			<g clip-path="url(#clipPath3394)" id="g3392">
				
				
			</g>
		</g>
		<g id="g3402">
			<g clip-path="url(#clipPath3406)" id="g3404">
				
				
				
				
				<path animation_id="21" d="m 78.201,9.696 c 0,1.685 -0.663,3.1 -2.65,3.1 -2.348,0 -3.612,-1.595 -4.004,-3.1 l 6.654,0 M 79.645,0.875 C 77.749,0.302 75.732,0.001 74.167,0.001 c -5.239,0 -8.069,3.222 -8.069,7.166 0,3.642 2.408,9.242 9.393,9.242 4.125,0 7.225,-2.077 7.225,-6.834 0,-0.632 -0.18,-2.017 -0.391,-2.95 l -11.109,0 c 0.06,-1.686 0.903,-3.011 4.215,-3.011 1.445,0 3.402,0.361 4.907,1.084 L 79.645,0.875" id="path3418" stroke="black" style="fill:#ed1b29;fill-opacity:1;fill-rule:nonzero;"/>
				
				
				
				
				
				
				
				
				
				
				
				
				
				
			</g>
		</g>
	</g>
</svg>