<?xml version="1.0" encoding="iso-8859-1"?><svg height="261.29987" id="svg3336" version="1.1" viewBox="0 0 431.69974 261.29987" width="431.69974" xml:space="preserve" xmlns="http://www.w3.org/2000/svg" xmlns:cc="http://creativecommons.org/ns#" xmlns:dc="http://purl.org/dc/elements/1.1/" xmlns:rdf="http://www.w3.org/1999/02/22-rdf-syntax-ns#" xmlns:svg="http://www.w3.org/2000/svg">
	<metadata id="metadata3342">
		<rdf:RDF>
			<cc:Work rdf:about="">
				<dc:format>image/svg+xml</dc:format>
				<dc:type rdf:resource="http://purl.org/dc/dcmitype/StillImage"/>
				<dc:title/>
			</cc:Work>
		</rdf:RDF>
	</metadata>
	<defs id="defs3340">
		<clipPath clipPathUnits="userSpaceOnUse" id="clipPath3350">
			
		</clipPath>
		<clipPath clipPathUnits="userSpaceOnUse" id="clipPath3360">
			
		</clipPath>
		<clipPath clipPathUnits="userSpaceOnUse" id="clipPath3370">
			
		</clipPath>
		<clipPath clipPathUnits="userSpaceOnUse" id="clipPath3394">
			
		</clipPath>
		<clipPath clipPathUnits="userSpaceOnUse" id="clipPath3406">
			
		</clipPath>
	</defs>
	<g id="g3344" transform="matrix(1.25,0,0,-1.25,0,261.29987)">
		<g id="g3346">
			<g clip-path="url(#clipPath3350)" id="g3348">
				
			</g>
		</g>
		<g id="g3356">
			<g clip-path="url(#clipPath3360)" id="g3358">
				
			</g>
		</g>
		<g id="g3366">
			<g clip-path="url(#clipPath3370)" id="g3368">
				
				
				
				
				<path animation_id="11" d="m 301.096,49.713 c 4.522,-0.816 9.147,-1.122 14.586,-1.122 6.697,0 10.096,0.646 12.203,4.046 0.715,1.155 1.6,3.808 1.6,5.711 0,5.1 -3.401,5.27 -7.276,5.27 -5.337,0 -6.017,0.271 -6.017,1.257 0,1.157 0.951,1.735 4.996,1.735 3.332,0 6.596,-0.341 9.895,-0.748 l 2.14,7.513 c -4.963,0.748 -10.435,0.917 -13.836,0.917 -2.515,0 -5.814,-0.068 -8.092,-0.713 -4.08,-1.156 -6.798,-5.406 -6.798,-10.641 0,-3.808 3.433,-4.862 6.56,-4.862 6.086,0 6.697,-0.238 6.697,-1.427 0,-1.599 -2.379,-1.599 -3.502,-1.599 -3.908,0 -7.75,0.307 -11.625,0.783 l -1.531,-6.12 0,0" id="path3382" stroke="black" style="fill:#ffffff;fill-opacity:1;fill-rule:nonzero;"/>
				
				
				
			</g>
		</g>
		<g id="g3390">
			<g clip-path="url(#clipPath3394)" id="g3392">
				
				
			</g>
		</g>
		<g id="g3402">
			<g clip-path="url(#clipPath3406)" id="g3404">
				
				
				
				
				
				
				
				
				
				
				
				
				
				
				
				
				
				
				
			</g>
		</g>
	</g>
</svg>