<?xml version="1.0" encoding="iso-8859-1"?><svg height="261.29987" id="svg3336" version="1.1" viewBox="0 0 431.69974 261.29987" width="431.69974" xml:space="preserve" xmlns="http://www.w3.org/2000/svg" xmlns:cc="http://creativecommons.org/ns#" xmlns:dc="http://purl.org/dc/elements/1.1/" xmlns:rdf="http://www.w3.org/1999/02/22-rdf-syntax-ns#" xmlns:svg="http://www.w3.org/2000/svg">
	<metadata id="metadata3342">
		<rdf:RDF>
			<cc:Work rdf:about="">
				<dc:format>image/svg+xml</dc:format>
				<dc:type rdf:resource="http://purl.org/dc/dcmitype/StillImage"/>
				<dc:title/>
			</cc:Work>
		</rdf:RDF>
	</metadata>
	<defs id="defs3340">
		<clipPath clipPathUnits="userSpaceOnUse" id="clipPath3350">
			
		</clipPath>
		<clipPath clipPathUnits="userSpaceOnUse" id="clipPath3360">
			
		</clipPath>
		<clipPath clipPathUnits="userSpaceOnUse" id="clipPath3370">
			
		</clipPath>
		<clipPath clipPathUnits="userSpaceOnUse" id="clipPath3394">
			
		</clipPath>
		<clipPath clipPathUnits="userSpaceOnUse" id="clipPath3406">
			
		</clipPath>
	</defs>
	<g id="g3344" transform="matrix(1.25,0,0,-1.25,0,261.29987)">
		<g id="g3346">
			<g clip-path="url(#clipPath3350)" id="g3348">
				
			</g>
		</g>
		<g id="g3356">
			<g clip-path="url(#clipPath3360)" id="g3358">
				
			</g>
		</g>
		<g id="g3366">
			<g clip-path="url(#clipPath3370)" id="g3368">
				
				
				
				
				
				
				
				
			</g>
		</g>
		<g id="g3390">
			<g clip-path="url(#clipPath3394)" id="g3392">
				<path animation_id="15" d="m 272.487,79.431 10.367,0 2.176,8.431 5.033,-8.431 12.137,0 -7.039,9.961 1.836,0 c 4.386,0 7.785,2.788 7.785,8.907 0,3.434 -0.985,5.406 -5.61,5.406 l -20.056,0 -6.629,-24.274 0,0 m 15.058,17.475 4.522,0 c 1.43,0 2.244,-0.545 2.244,-1.7 0,-1.564 -1.019,-3.332 -3.398,-3.332 l -4.659,0 1.291,5.032 0,0" id="path3398" stroke="black" style="fill:#ffffff;fill-opacity:1;fill-rule:evenodd;"/>
				
			</g>
		</g>
		<g id="g3402">
			<g clip-path="url(#clipPath3406)" id="g3404">
				
				
				
				
				
				
				
				
				
				
				
				
				
				
				
				
				
				
				
			</g>
		</g>
	</g>
</svg>