<?xml version="1.0" encoding="iso-8859-1"?><svg height="261.29987" id="svg3336" version="1.1" viewBox="0 0 431.69974 261.29987" width="431.69974" xml:space="preserve" xmlns="http://www.w3.org/2000/svg" xmlns:cc="http://creativecommons.org/ns#" xmlns:dc="http://purl.org/dc/elements/1.1/" xmlns:rdf="http://www.w3.org/1999/02/22-rdf-syntax-ns#" xmlns:svg="http://www.w3.org/2000/svg">
	<metadata id="metadata3342">
		<rdf:RDF>
			<cc:Work rdf:about="">
				<dc:format>image/svg+xml</dc:format>
				<dc:type rdf:resource="http://purl.org/dc/dcmitype/StillImage"/>
				<dc:title/>
			</cc:Work>
		</rdf:RDF>
	</metadata>
	<defs id="defs3340">
		<clipPath clipPathUnits="userSpaceOnUse" id="clipPath3350">
			
		</clipPath>
		<clipPath clipPathUnits="userSpaceOnUse" id="clipPath3360">
			
		</clipPath>
		<clipPath clipPathUnits="userSpaceOnUse" id="clipPath3370">
			
		</clipPath>
		<clipPath clipPathUnits="userSpaceOnUse" id="clipPath3394">
			
		</clipPath>
		<clipPath clipPathUnits="userSpaceOnUse" id="clipPath3406">
			
		</clipPath>
	</defs>
	<g id="g3344" transform="matrix(1.25,0,0,-1.25,0,261.29987)">
		<g id="g3346">
			<g clip-path="url(#clipPath3350)" id="g3348">
				
			</g>
		</g>
		<g id="g3356">
			<g clip-path="url(#clipPath3360)" id="g3358">
				
			</g>
		</g>
		<g id="g3366">
			<g clip-path="url(#clipPath3370)" id="g3368">
				
				
				
				
				
				
				
				
			</g>
		</g>
		<g id="g3390">
			<g clip-path="url(#clipPath3394)" id="g3392">
				
				
			</g>
		</g>
		<g id="g3402">
			<g clip-path="url(#clipPath3406)" id="g3404">
				
				
				
				
				
				
				
				
				
				
				
				
				
				
				
				
				
				
				<path animation_id="35" d="m 335.522,4.156 c 2.56,0 4.095,2.438 4.095,4.877 0,1.927 -0.873,3.221 -2.589,3.221 -2.56,0 -4.095,-2.83 -4.095,-4.907 0,-1.596 0.783,-3.191 2.589,-3.191 m -9.874,-3.793 c 0.361,0.993 0.722,2.348 1.083,3.914 l 4.155,18.665 5.328,0 -1.957,-8.791 0.061,0 c 1.354,1.445 3.011,2.258 5.057,2.258 3.854,0 5.841,-2.95 5.841,-6.473 0,-5.147 -2.589,-9.935 -8.249,-9.935 -2.679,0 -4.485,1.084 -5.449,3.312 l -0.06,0 -0.783,-2.95 -5.027,0" id="path3446" stroke="black" style="fill:#ed1b29;fill-opacity:1;fill-rule:nonzero;"/>
			</g>
		</g>
	</g>
</svg>