<?xml version="1.0" encoding="iso-8859-1"?><svg height="261.29987" id="svg3336" version="1.1" viewBox="0 0 431.69974 261.29987" width="431.69974" xml:space="preserve" xmlns="http://www.w3.org/2000/svg" xmlns:cc="http://creativecommons.org/ns#" xmlns:dc="http://purl.org/dc/elements/1.1/" xmlns:rdf="http://www.w3.org/1999/02/22-rdf-syntax-ns#" xmlns:svg="http://www.w3.org/2000/svg">
	<metadata id="metadata3342">
		<rdf:RDF>
			<cc:Work rdf:about="">
				<dc:format>image/svg+xml</dc:format>
				<dc:type rdf:resource="http://purl.org/dc/dcmitype/StillImage"/>
				<dc:title/>
			</cc:Work>
		</rdf:RDF>
	</metadata>
	<defs id="defs3340">
		<clipPath clipPathUnits="userSpaceOnUse" id="clipPath3350">
			
		</clipPath>
		<clipPath clipPathUnits="userSpaceOnUse" id="clipPath3360">
			
		</clipPath>
		<clipPath clipPathUnits="userSpaceOnUse" id="clipPath3370">
			
		</clipPath>
		<clipPath clipPathUnits="userSpaceOnUse" id="clipPath3394">
			
		</clipPath>
		<clipPath clipPathUnits="userSpaceOnUse" id="clipPath3406">
			
		</clipPath>
	</defs>
	<g id="g3344" transform="matrix(1.25,0,0,-1.25,0,261.29987)">
		<g id="g3346">
			<g clip-path="url(#clipPath3350)" id="g3348">
				
			</g>
		</g>
		<g id="g3356">
			<g clip-path="url(#clipPath3360)" id="g3358">
				
			</g>
		</g>
		<g id="g3366">
			<g clip-path="url(#clipPath3370)" id="g3368">
				
				
				
				
				
				
				
				
			</g>
		</g>
		<g id="g3390">
			<g clip-path="url(#clipPath3394)" id="g3392">
				
				
			</g>
		</g>
		<g id="g3402">
			<g clip-path="url(#clipPath3406)" id="g3404">
				
				
				
				
				
				
				<path animation_id="23" d="m 116.97,9.063 c 0,1.565 -0.783,3.191 -2.59,3.191 -2.558,0 -4.094,-2.438 -4.094,-4.877 0,-1.926 0.873,-3.221 2.589,-3.221 2.559,0 4.095,2.83 4.095,4.907 m -0.693,-6.201 -0.06,0 c -1.385,-1.746 -2.679,-2.861 -5.69,-2.861 -3.372,0 -5.84,2.951 -5.84,6.473 0,5.149 2.588,9.935 7.947,9.935 2.74,0 4.637,-1.204 5.449,-2.89 l 0.061,0 1.897,9.423 5.328,0 -4.215,-20.231 c -0.18,-0.933 -0.271,-1.716 -0.331,-2.348 l -4.968,0 0.422,2.499" id="path3422" stroke="black" style="fill:#ed1b29;fill-opacity:1;fill-rule:nonzero;"/>
				
				
				
				
				
				
				
				
				
				
				
				
			</g>
		</g>
	</g>
</svg>