<?xml version="1.0" encoding="iso-8859-1"?><svg height="261.29987" id="svg3336" version="1.1" viewBox="0 0 431.69974 261.29987" width="431.69974" xml:space="preserve" xmlns="http://www.w3.org/2000/svg" xmlns:cc="http://creativecommons.org/ns#" xmlns:dc="http://purl.org/dc/elements/1.1/" xmlns:rdf="http://www.w3.org/1999/02/22-rdf-syntax-ns#" xmlns:svg="http://www.w3.org/2000/svg">
	<metadata id="metadata3342">
		<rdf:RDF>
			<cc:Work rdf:about="">
				<dc:format>image/svg+xml</dc:format>
				<dc:type rdf:resource="http://purl.org/dc/dcmitype/StillImage"/>
				<dc:title/>
			</cc:Work>
		</rdf:RDF>
	</metadata>
	<defs id="defs3340">
		<clipPath clipPathUnits="userSpaceOnUse" id="clipPath3350">
			
		</clipPath>
		<clipPath clipPathUnits="userSpaceOnUse" id="clipPath3360">
			
		</clipPath>
		<clipPath clipPathUnits="userSpaceOnUse" id="clipPath3370">
			
		</clipPath>
		<clipPath clipPathUnits="userSpaceOnUse" id="clipPath3394">
			
		</clipPath>
		<clipPath clipPathUnits="userSpaceOnUse" id="clipPath3406">
			
		</clipPath>
	</defs>
	<g id="g3344" transform="matrix(1.25,0,0,-1.25,0,261.29987)">
		<g id="g3346">
			<g clip-path="url(#clipPath3350)" id="g3348">
				
			</g>
		</g>
		<g id="g3356">
			<g clip-path="url(#clipPath3360)" id="g3358">
				
			</g>
		</g>
		<g id="g3366">
			<g clip-path="url(#clipPath3370)" id="g3368">
				
				
				
				
				
				
				
				
			</g>
		</g>
		<g id="g3390">
			<g clip-path="url(#clipPath3394)" id="g3392">
				
				
			</g>
		</g>
		<g id="g3402">
			<g clip-path="url(#clipPath3406)" id="g3404">
				
				
				
				<path animation_id="20" d="m 50.988,4.517 c 1.385,-0.601 2.89,-0.903 4.396,-0.903 0.873,0 3.04,0.091 3.04,1.386 0,2.227 -6.472,1.083 -6.472,6.261 0,3.673 4.275,5.148 7.918,5.148 1.354,0 3.251,-0.301 5.208,-0.933 l -1.144,-3.553 c -1.385,0.573 -2.71,0.873 -4.335,0.873 -1.205,0 -2.529,-0.27 -2.529,-1.354 0,-1.746 6.773,-1.626 6.773,-5.569 0,-3.884 -3.281,-5.811 -7.345,-5.872 -2.379,-0.03 -4.908,0.332 -6.594,0.813 l 1.084,3.703" id="path3416" stroke="black" style="fill:#ed1b29;fill-opacity:1;fill-rule:nonzero;"/>
				
				
				
				
				
				
				
				
				
				
				
				
				
				
				
			</g>
		</g>
	</g>
</svg>