<?xml version="1.0" encoding="iso-8859-1"?><svg height="261.29987" id="svg3336" version="1.1" viewBox="0 0 431.69974 261.29987" width="431.69974" xml:space="preserve" xmlns="http://www.w3.org/2000/svg" xmlns:cc="http://creativecommons.org/ns#" xmlns:dc="http://purl.org/dc/elements/1.1/" xmlns:rdf="http://www.w3.org/1999/02/22-rdf-syntax-ns#" xmlns:svg="http://www.w3.org/2000/svg">
	<metadata id="metadata3342">
		<rdf:RDF>
			<cc:Work rdf:about="">
				<dc:format>image/svg+xml</dc:format>
				<dc:type rdf:resource="http://purl.org/dc/dcmitype/StillImage"/>
				<dc:title/>
			</cc:Work>
		</rdf:RDF>
	</metadata>
	<defs id="defs3340">
		<clipPath clipPathUnits="userSpaceOnUse" id="clipPath3350">
			
		</clipPath>
		<clipPath clipPathUnits="userSpaceOnUse" id="clipPath3360">
			
		</clipPath>
		<clipPath clipPathUnits="userSpaceOnUse" id="clipPath3370">
			
		</clipPath>
		<clipPath clipPathUnits="userSpaceOnUse" id="clipPath3394">
			
		</clipPath>
		<clipPath clipPathUnits="userSpaceOnUse" id="clipPath3406">
			
		</clipPath>
	</defs>
	<g id="g3344" transform="matrix(1.25,0,0,-1.25,0,261.29987)">
		<g id="g3346">
			<g clip-path="url(#clipPath3350)" id="g3348">
				
			</g>
		</g>
		<g id="g3356">
			<g clip-path="url(#clipPath3360)" id="g3358">
				
			</g>
		</g>
		<g id="g3366">
			<g clip-path="url(#clipPath3370)" id="g3368">
				
				
				
				
				
				
				
				
			</g>
		</g>
		<g id="g3390">
			<g clip-path="url(#clipPath3394)" id="g3392">
				
				<path animation_id="16" d="m -50.302,62.976 c 0,-48.611 36.186,-50.138 84.579,-50.138 31.172,0 72.154,1.963 89.157,28.994 17.003,26.376 26.376,63.215 26.376,85.668 0,48.611 -45.123,50.137 -84.579,50.137 -39.673,0 -72.153,-3.924 -90.9,-33.788 -15.477,-24.851 -24.633,-58.421 -24.633,-80.873 l 0,0 m 107.686,63.216 c 15.041,0 21.144,-6.976 21.144,-18.311 C 78.528,90.224 70.245,73.439 67.847,69.08 61.308,57.09 54.768,54.256 38.854,54.256 c -8.937,0 -19.836,3.706 -19.836,19.837 0,7.848 5.014,25.505 10.899,36.622 7.848,14.823 16.785,15.477 27.467,15.477 l 0,0 m 22.67,62.781 40.546,0 6.975,27.684 -40.545,0 -6.976,-27.684 0,0 m -53.843,0 40.546,0 6.975,27.684 -40.545,0 -6.976,-27.684 0,0" id="path3400" stroke="black" style="fill:#ffffff;fill-opacity:1;fill-rule:evenodd;"/>
			</g>
		</g>
		<g id="g3402">
			<g clip-path="url(#clipPath3406)" id="g3404">
				
				
				
				
				
				
				
				
				
				
				
				
				
				
				
				
				
				
				
			</g>
		</g>
	</g>
</svg>