<?xml version="1.0" encoding="iso-8859-1"?>
<svg xmlns="http://www.w3.org/2000/svg" xmlns:xlink="http://www.w3.org/1999/xlink" width="224.87999pt" height="225pt" viewBox="0 0 224.87999 225" version="1.2">
	
	
	

	
	
	<defs>
		
		
		

		
		
		<clipPath id="clip1">
			
			
			
  
			
			
			<path d="M 0 0.0585938 L 224.761719 0.0585938 L 224.761719 224.9375 L 0 224.9375 Z M 0 0.0585938 " animation_id="0"/>
			
			
			

		
		
		</clipPath>
		
		
		

		
		
		<clipPath id="clip2">
			
			
			
  
			
			
			<path d="M 91.25 79.203125 L 133.976562 79.203125 L 133.976562 145.917969 L 91.25 145.917969 Z M 91.25 79.203125 " animation_id="1"/>
			
			
			

		
		
		</clipPath>
		
		
		

		
		
		<clipPath id="clip3">
			
			
			
  
			
			
			<path d="M 99 128 L 127 128 L 127 145.917969 L 99 145.917969 Z M 99 128 " animation_id="2"/>
			
			
			

		
		
		</clipPath>
		
		
		

	
	
	</defs>
	
	
	

	
	
	<g id="surface1">
		
		
		

		
		
		<g clip-path="url(#clip1)" clip-rule="nonzero">
			
			
			

			
			
			<path style=" stroke:none;fill-rule:nonzero;fill:rgb(100%,100%,100%);fill-opacity:1;" d="M 0 0.0585938 L 224.878906 0.0585938 L 224.878906 224.941406 L 0 224.941406 Z M 0 0.0585938 " animation_id="3"/>
			
			
			

			
			
			

		
		
		</g>
		
		
		

		
		
		<g clip-path="url(#clip2)" clip-rule="nonzero">
			
			
			

			
			
			<path style=" stroke:none;fill-rule:nonzero;fill:rgb(63.529968%,32.939148%,23.529053%);fill-opacity:1;" d="M 125.472656 101.027344 C 122.722656 97.808594 119.457031 95.003906 117.128906 91.472656 C 114.804688 87.941406 113.523438 83.34375 115.253906 79.492188 C 110.40625 83.210938 108.367188 90.144531 110.449219 95.859375 C 111.023438 97.433594 111.871094 98.902344 112.359375 100.503906 C 112.847656 102.105469 112.933594 103.941406 112.039062 105.359375 C 111.148438 106.78125 109.039062 107.496094 107.679688 106.5 C 106.347656 105.523438 106.335938 103.5625 106.667969 101.949219 C 106.996094 100.339844 107.523438 98.613281 106.84375 97.113281 C 105.542969 102.636719 100.566406 106.394531 97.054688 110.875 C 92.96875 116.09375 90.726562 122.945312 91.988281 129.433594 C 92.847656 133.863281 95.617188 137.75 99.054688 140.660156 C 99.484375 141.023438 99.925781 141.375 100.375 141.707031 C 104.871094 145.035156 110.191406 146.160156 115.746094 145.460938 C 118.464844 145.117188 121.21875 144.445312 123.425781 142.820312 C 124.355469 142.132812 125.214844 141.359375 126.007812 140.523438 C 126.820312 139.667969 127.5625 138.742188 128.242188 137.78125 C 131.019531 133.847656 132.875 129.144531 133.453125 124.375 C 133.539062 123.660156 133.597656 122.945312 133.617188 122.226562 C 133.828125 114.496094 130.511719 106.929688 125.472656 101.027344 Z M 125.472656 101.027344 " animation_id="5"/>
			
			
			

		
		
		</g>
		
		
		

		
		
		<g clip-path="url(#clip3)" clip-rule="nonzero">
			
			
			

			
			
			<path style=" stroke:none;fill-rule:nonzero;fill:rgb(100%,85.099792%,62.748718%);fill-opacity:1;" d="M 123.671875 135.09375 C 124.515625 136.871094 125.492188 138.644531 126.007812 140.523438 C 125.214844 141.363281 124.355469 142.132812 123.425781 142.820312 C 121.21875 144.445312 118.464844 145.117188 115.746094 145.460938 C 110.191406 146.160156 104.871094 145.035156 100.375 141.707031 C 99.925781 141.375 99.484375 141.023438 99.054688 140.660156 C 99.558594 138.726562 100.558594 136.914062 101.425781 135.089844 C 102.34375 133.15625 103.136719 131.03125 103.015625 128.933594 C 104.875 128.714844 106.65625 129.320312 108.265625 130.324219 C 109.503906 131.09375 110.703125 132.164062 111.976562 132.890625 C 112.675781 133.289062 113.253906 133.429688 114.035156 133.179688 C 114.808594 132.933594 115.46875 132.414062 116.035156 131.851562 C 116.808594 131.082031 117.511719 130.289062 118.414062 129.667969 C 119.484375 128.929688 120.808594 128.652344 122.085938 128.820312 C 121.929688 130.953125 122.734375 133.121094 123.671875 135.09375 Z M 123.671875 135.09375 " animation_id="6"/>
			
			
			

		
		
		</g>
		
		
		

		
		
		<path style=" stroke:none;fill-rule:nonzero;fill:rgb(100%,76.858521%,52.938843%);fill-opacity:1;" d="M 123.144531 123.730469 C 122.84375 122.953125 122.246094 121.878906 121.472656 121.46875 C 121.492188 117.726562 123.285156 114.3125 123.101562 110.574219 C 123.082031 110.21875 122.992188 109.789062 122.65625 109.664062 C 122.378906 109.5625 122.085938 109.71875 121.839844 109.875 C 119.6875 111.234375 117.78125 112.96875 116.230469 114.972656 C 116.03125 115.226562 115.800781 115.511719 115.476562 115.53125 C 115.257812 115.546875 115.058594 115.4375 114.859375 115.339844 C 113.230469 114.546875 111.183594 114.660156 109.652344 115.625 C 107.867188 113.476562 105.769531 111.585938 103.445312 110.027344 C 103.109375 109.800781 102.648438 109.582031 102.328125 109.828125 C 102.066406 110.023438 102.066406 110.40625 102.097656 110.726562 C 102.324219 113.355469 102.796875 115.964844 103.5 118.507812 C 103.773438 119.492188 104.0625 120.621094 103.488281 121.46875 C 102.167969 123.421875 101.207031 125.820312 100.917969 128.152344 C 100.875 128.496094 100.871094 128.902344 101.152344 129.109375 C 101.425781 129.308594 101.800781 129.183594 102.128906 129.097656 C 102.425781 129.023438 102.722656 128.96875 103.015625 128.933594 C 104.875 128.714844 106.65625 129.320312 108.265625 130.324219 C 109.503906 131.09375 110.703125 132.164062 111.976562 132.890625 C 112.675781 133.289062 113.253906 133.429688 114.035156 133.179688 C 114.808594 132.933594 115.46875 132.414062 116.035156 131.851562 C 116.808594 131.082031 117.511719 130.289062 118.414062 129.667969 C 119.484375 128.929688 120.808594 128.652344 122.085938 128.820312 C 122.5625 128.882812 123.035156 129.003906 123.484375 129.191406 C 123.71875 129.289062 124 129.429688 124.199219 129.273438 C 124.34375 129.164062 124.363281 128.957031 124.367188 128.773438 C 124.375 127.03125 123.777344 125.351562 123.144531 123.730469 Z M 123.144531 123.730469 " animation_id="7"/>
		
		
		

		
		
		

		
		
		<path style=" stroke:none;fill-rule:nonzero;fill:rgb(25.878906%,12.939453%,4.309082%);fill-opacity:1;" d="M 114.550781 129.691406 C 114.769531 129.808594 114.953125 130.136719 114.859375 130.378906 C 114.824219 130.476562 114.757812 130.558594 114.691406 130.632812 C 114.378906 130.984375 113.996094 131.265625 113.617188 131.546875 C 113.5625 131.585938 113.523438 131.628906 113.453125 131.628906 C 113.402344 131.628906 113.332031 131.609375 113.285156 131.585938 C 112.820312 131.351562 112.398438 131.035156 112.039062 130.660156 C 111.96875 130.585938 111.910156 130.511719 111.863281 130.410156 C 111.761719 130.1875 111.964844 129.855469 112.167969 129.738281 C 112.296875 129.660156 112.441406 129.625 112.589844 129.601562 C 113.097656 129.511719 113.621094 129.5 114.128906 129.574219 C 114.273438 129.597656 114.421875 129.625 114.550781 129.691406 Z M 114.550781 129.691406 " animation_id="9"/>
		
		
		

		
		
		

	
	
	</g>
	
	
	



</svg>
