<?xml version="1.0" encoding="iso-8859-1"?>
<!-- Generator: Adobe Illustrator 12.0.1, SVG Export Plug-In . SVG Version: 6.00 Build 51448)  -->
<!DOCTYPE svg
  PUBLIC '-//W3C//DTD SVG 1.1//EN'
  'http://www.w3.org/Graphics/SVG/1.1/DTD/svg11.dtd'>
<svg enable-background="new 0 0 171.107 177.002" height="177.002" id="Ebene_1" overflow="visible" version="1.1" viewBox="-42.77675 -44.2505 256.6605 265.50300000000004" width="171.107" xml:space="preserve" xmlns="http://www.w3.org/2000/svg" xmlns:xlink="http://www.w3.org/1999/xlink">
	

	<g>
		
	
		<path animation_id="0" d="M116.803,54.907V48.52h2.781v-4.4h-4.398v2.782h-10.971v-2.767h-4.398v4.4h2.797v9.166h-4.709v-2.762   h-2.779V36.245h2.748v-4.4h-4.398v2.749h-5.42V31.99l-0.01-0.11C87.762,30.185,86.381,29,84.671,29   c-1.753,0.009-3.139,1.216-3.372,2.935l-0.002,2.659h-5.468v-2.749h-4.4v4.4h2.749v18.694h-2.779v2.762H66.69v-9.166h2.797v-4.4   h-4.4v2.767H54.118V44.12h-4.4v4.4H52.5v6.387h-2.797v4.4h23.295v-2.763h2.785l0.001-20.299h0.045V36.2h5.467l-0.003,2.703h6.762   V36.2h5.42v0.045h0.045v20.299h2.783v2.763H119.6v-4.4H116.803L116.803,54.907z M54.104,57.701V48.52h0.013v-0.012l10.966-0.001   v9.194H54.104L54.104,57.701z M86.716,37.564h-4.085v-5.492c0.159-1.033,0.977-1.729,2.058-1.734c1.026,0,1.835,0.685,2.028,1.71   V37.564L86.716,37.564z M104.219,57.701v-9.193l-0.002-0.001h10.969v0.013h0.012v9.181H104.219L104.219,57.701z" fill="#002F56"/>
		
	
		<polygon animation_id="11" fill="#002F56" points="131.061,101.398 137.045,92.024 132.783,82.862 127.375,84.254 128.016,66.06 126.744,66.06    126.045,85.908 132.078,84.355 135.6,91.929 130.461,99.978 125.189,98.89 119.959,115.744 125.008,117.479 122.203,129.06    110.682,129.501 108.961,126.423 94.725,132.238 96.309,136.489 84.643,144.224 72.85,136.491 74.509,132.178 60.243,126.251    58.514,129.436 47.152,129.122 44.217,117.504 49.246,115.618 44.021,98.782 38.826,99.955 33.69,91.849 37.143,84.301    43.175,85.946 42.474,66.06 41.203,66.06 41.845,84.267 36.436,82.792 32.249,91.946 38.233,101.391 43.156,100.279 47.678,114.85    42.708,116.714 46.156,130.364 59.259,130.727 60.812,127.863 72.88,132.877 71.297,136.991 84.646,145.745 97.85,136.991    96.344,132.948 108.402,128.022 109.953,130.799 123.211,130.292 126.514,116.654 121.535,114.942 126.061,100.367    131.061,101.398  "/>
		
	
		<polygon animation_id="12" fill="#002F56" points="132.262,104.244 139.941,92.217 134.197,79.871 130.037,80.942 130.561,66.059 129.289,66.059    128.707,82.596 133.49,81.364 138.494,92.121 131.662,102.823 126.934,101.847 123.119,114.14 128.025,115.827 124.223,131.529    109.221,132.102 107.84,129.628 97.969,133.66 99.396,137.493 84.651,147.27 69.74,137.493 71.246,133.577 61.384,129.479    60.005,132.021 45.157,131.612 41.193,115.921 46.106,114.079 42.289,101.78 37.637,102.83 30.803,92.045 35.728,81.279    40.511,82.583 39.929,66.059 38.658,66.059 39.182,80.904 35.021,79.77 29.362,92.144 37.043,104.266 41.423,103.276    44.538,113.311 39.684,115.131 44.161,132.854 60.749,133.312 61.955,131.092 69.617,134.275 68.187,137.993 84.654,148.791    100.939,137.994 99.588,134.37 107.279,131.229 108.492,133.4 125.23,132.76 129.531,115.001 124.697,113.34 127.805,103.323    132.262,104.244  "/>
		
	
		<polygon animation_id="13" fill="#002F56" points="50.101,79.25 50.658,91.282 57.896,91.282 57.896,79.25 50.101,79.25  "/>
		
	
		<path animation_id="1" d="M60.477,80.688h9.157v9.157h-9.157V80.688L60.477,80.688z M59.039,91.284h12.033V79.251H59.039V91.284   L59.039,91.284z" fill="#002F56"/>
		
	
		<polygon animation_id="14" fill="#002F56" points="111.736,79.25 111.736,91.282 118.822,91.282 118.879,89.845 113.172,89.845 113.172,80.687    119.242,80.687 119.297,79.25 111.736,79.25  "/>
		
	
		<polygon animation_id="15" fill="#002F56" points="54.508,105.598 57.896,117.511 57.896,105.598 54.508,105.598  "/>
		
	
		<polygon animation_id="16" fill="#002F56" points="72.213,117.631 84.246,117.631 84.246,105.598 72.213,105.598 72.213,117.631  "/>
		
	
		<polygon animation_id="17" fill="#002F56" points="98.561,117.631 110.594,117.631 110.594,105.598 98.561,105.598 98.561,117.631  "/>
		
	
		<path animation_id="2" d="M60.477,107.035h9.157v9.156h-9.157V107.035L60.477,107.035z M59.039,117.631h12.033v-12.033H59.039   V117.631L59.039,117.631z" fill="#002F56"/>
		
	
		<polygon animation_id="18" fill="#002F56" points="111.736,105.598 111.736,117.631 111.748,117.631 113.172,112.479 113.172,107.035    114.682,107.035 115.08,105.598 111.736,105.598  "/>
		
	
		<path animation_id="3" d="M86.825,107.035h9.158v9.156h-9.158V107.035L86.825,107.035z M85.388,117.631H97.42v-12.033H85.388V117.631   L85.388,117.631z" fill="#002F56"/>
		
	
		<polygon animation_id="19" fill="#002F56" points="59.039,104.457 71.072,104.457 71.072,92.424 59.039,92.424 59.039,104.457  "/>
		
	
		<polygon animation_id="20" fill="#002F56" points="111.736,92.424 111.736,104.457 115.395,104.457 118.727,92.424 111.736,92.424  "/>
		
	
		<polygon animation_id="21" fill="#002F56" points="50.761,92.424 51.17,93.86 56.459,93.86 56.459,103.019 53.775,103.019 54.184,104.457    57.898,104.457 57.898,92.424 50.761,92.424  "/>
		
	
		<polygon animation_id="22" fill="#002F56" points="59.039,78.109 71.072,78.109 71.072,66.074 59.039,66.074 59.039,78.109  "/>
		
	
		<polygon animation_id="23" fill="#002F56" points="111.736,66.075 111.736,78.11 119.344,78.11 119.818,66.075 111.736,66.075  "/>
		
	
		<polygon animation_id="24" fill="#002F56" points="72.213,91.284 84.246,91.284 84.246,79.251 72.213,79.251 72.213,91.284  "/>
		
	
		<polygon animation_id="25" fill="#002F56" points="98.561,91.284 110.594,91.284 110.594,79.251 98.561,79.251 98.561,91.284  "/>
		
	
		<path animation_id="4" d="M86.825,80.688h9.158v9.157h-9.158V80.688L86.825,80.688z M85.388,91.284H97.42V79.251H85.388V91.284   L85.388,91.284z" fill="#002F56"/>
		
	
		<polygon animation_id="26" fill="#002F56" points="85.388,104.457 97.42,104.457 97.42,92.424 85.388,92.424 85.388,104.457  "/>
		
	
		<path animation_id="5" d="M73.652,93.862h9.156v9.156h-9.156V93.862L73.652,93.862z M72.213,104.457h12.033V92.424H72.213V104.457   L72.213,104.457z" fill="#002F56"/>
		
	
		<path animation_id="6" d="M100,93.862h9.156v9.156H100V93.862L100,93.862z M98.561,104.457h12.033V92.424H98.561V104.457   L98.561,104.457z" fill="#002F56"/>
		
	
		<polygon animation_id="27" fill="#002F56" points="85.388,78.109 97.42,78.109 97.42,66.074 85.388,66.074 85.388,78.109  "/>
		
	
		<path animation_id="7" d="M73.652,67.514h9.156v9.157h-9.156V67.514L73.652,67.514z M72.213,78.109h12.033V66.076H72.213V78.109   L72.213,78.109z" fill="#002F56"/>
		
	
		<path animation_id="8" d="M100,67.514h9.156v9.157H100V67.514L100,67.514z M98.561,78.109h12.033V66.076H98.561V78.109L98.561,78.109   z" fill="#002F56"/>
		
	
		<polygon animation_id="28" fill="#002F56" points="49.492,66.076 49.558,67.513 56.46,67.513 56.46,76.671 49.983,76.671 50.049,78.109    57.898,78.109 57.898,66.076 49.492,66.076  "/>
		
	
		<polygon animation_id="29" fill="#002F56" points="59.039,118.772 59.039,118.822 71.072,124.148 71.072,118.772 59.039,118.772  "/>
		
	
		<polygon animation_id="30" fill="#002F56" points="85.387,118.772 85.387,129.999 97.42,124.629 97.42,118.772 85.387,118.772  "/>
		
	
		<polygon animation_id="31" fill="#002F56" points="72.213,118.772 72.213,124.654 73.65,125.291 73.65,120.211 82.808,120.211 82.808,129.345    84.246,129.982 84.246,118.772 72.213,118.772  "/>
		
	
		<polygon animation_id="32" fill="#002F56" points="98.561,118.772 98.561,124.12 100,123.478 100,120.211 107.322,120.211 110.545,118.772    98.561,118.772  "/>
		
	
		<polygon animation_id="33" fill="#002F56" points="2.648,75.419 0,80.675 2.635,85.917 3.279,85.917 5.915,80.675 3.279,75.419 2.648,75.419  "/>
		
	
		<polygon animation_id="34" fill="#002F56" points="170.113,80.675 167.479,75.419 166.846,75.419 164.197,80.675 166.832,85.917 167.479,85.917    170.113,80.675  "/>
		
	
		<path animation_id="9" d="M11.311,116.418l-0.982-3.045l-0.359,0.116c0.226,0.916,0.159,1.233-0.315,1.472   c-0.38,0.18-0.906,0.391-2.083,0.771L6.6,116.046c-2.11,0.681-3.832,0.601-4.426-1.241c-0.512-1.587,0.401-2.785,2.46-3.45   l2.917-0.94c1.151-0.372,1.261-0.294,1.652,0.696l0.358-0.116l-1.069-3.314l-0.359,0.117c0.237,1.039,0.219,1.157-0.932,1.53   l-3.198,1.031c-1.497,0.483-2.341,1.151-2.682,2.108c-0.253,0.704-0.192,1.503,0.047,2.245c0.272,0.845,0.817,1.615,1.622,2.005   c1.02,0.49,2.182,0.37,3.691-0.118l1.062-0.342c1.177-0.38,1.735-0.532,2.093-0.605c0.545-0.105,0.819,0.132,1.118,0.883   L11.311,116.418L11.311,116.418z M16.407,127.393l-1.438-2.827l-0.335,0.172c0.373,0.851,0.363,1.217-0.146,1.552   c-0.317,0.206-0.844,0.534-1.946,1.095l-2.948,1.499l-0.019-0.035l3.474-8.056l-0.902-1.774l-0.335,0.171   c0.238,0.588,0.277,0.9,0.099,1.292c-0.178,0.362-0.214,0.41-1.088,0.855l-2.636,1.341c-1.103,0.561-1.696,0.817-2.085,0.97   c-0.618,0.239-0.926,0.02-1.315-0.657l-0.335,0.171l1.444,2.839l0.335-0.17c-0.367-0.84-0.363-1.188,0.218-1.56   c0.329-0.213,0.886-0.541,1.988-1.102l3.007-1.53l0.012,0.025l-3.683,8.297l0.189,0.371l4.829-2.455   c1.115-0.567,1.666-0.817,2.05-0.952c0.552-0.221,0.854-0.013,1.23,0.641L16.407,127.393L16.407,127.393z M12.995,138.376   l0.312-0.21c-0.546-0.96-0.55-1.087,0.41-1.731l4.466-2.995c0.949-0.636,1.076-0.591,1.757,0.279l0.312-0.21l-1.984-2.958   l-0.312,0.209c0.547,0.961,0.54,1.095-0.41,1.731l-4.466,2.996c-0.949,0.636-1.076,0.592-1.757-0.279l-0.312,0.209L12.995,138.376   L12.995,138.376z M27.474,142.73l-1.944-2.316l-0.289,0.242c0.598,0.921,0.567,1.052-0.185,1.349   c-1.306,0.535-3.97,1.437-5.69,2.002l-0.017-0.02c1.192-2.177,2.549-4.597,3.055-5.478c0.315-0.545,0.421-0.564,1.118,0.098   l0.288-0.241l-2.117-2.523l-0.298,0.25c0.458,0.651,0.514,0.885-0.007,1.832c-0.992,1.85-2.498,4.552-3.803,6.823l0.268,0.318   c2.77-1.007,6.301-2.11,7.204-2.394c1.255-0.387,1.46-0.331,2.13,0.3L27.474,142.73L27.474,142.73z M29.327,153.599   c-0.492,0.278-0.989,0.443-1.339,0.487c-0.455,0.058-0.805-0.117-1.558-0.808c-0.495-0.453-0.833-0.781-0.913-1.073   c-0.061-0.292,0.071-0.555,0.497-1.021l1.716-1.874l0.942,0.863c0.863,0.789,0.877,0.913,0.353,1.744l0.287,0.264l1.743-1.903   l-0.288-0.264c-0.737,0.546-0.859,0.58-1.751-0.236l-0.933-0.854l2.061-2.25c0.272-0.297,0.31-0.299,0.618-0.018l0.753,0.69   c0.714,0.653,0.918,0.967,0.866,1.303c-0.071,0.337-0.171,0.646-0.463,1.144l0.333,0.213c0.433-0.532,1-1.252,1.228-1.5   l-4.422-4.048l-0.254,0.277c0.71,0.776,0.762,0.88-0.055,1.771l-3.613,3.946c-0.735,0.803-0.887,0.81-1.853,0.053l-0.254,0.277   l4.778,4.376c0.371-0.226,1.422-0.977,1.781-1.249L29.327,153.599L29.327,153.599z M38.167,162.743   c-0.196-0.236-0.364-0.534-0.431-1.073c-0.065-0.471-0.096-0.919-0.092-1.77c0.015-0.727,0.068-1.788,0.135-2.283   c1.061,0.217,2.053,0.041,2.715-0.906c0.462-0.662,0.522-1.358,0.281-1.953c-0.226-0.567-0.697-1.044-1.502-1.604l-2.733-1.909   l-0.215,0.308c0.806,0.678,0.87,0.773,0.216,1.709l-3.094,4.431c-0.654,0.938-0.799,0.935-1.749,0.368l-0.216,0.31l2.898,2.023   l0.216-0.308c-0.836-0.682-0.888-0.817-0.234-1.755l1.224-1.752l0.352,0.246c0.574,0.399,0.669,0.664,0.641,1.103   c-0.047,0.771-0.127,1.732-0.119,2.541c-0.004,1.063,0.29,1.628,1.085,2.25c0.125,0.104,0.246,0.188,0.379,0.28L38.167,162.743   L38.167,162.743z M35.84,156.214l1.893-2.711c0.208-0.297,0.345-0.399,0.46-0.4c0.135-0.005,0.353,0.082,0.672,0.307   c0.838,0.584,1.313,1.571,0.481,2.762c-0.415,0.595-0.899,0.913-1.56,0.943c-0.43,0.028-0.855-0.139-1.417-0.53L35.84,156.214   L35.84,156.214z M48.79,161.303c0.302-0.798,0.488-1.293,0.668-1.745c-0.376-0.383-0.805-0.777-1.351-1.067   c-1.531-0.813-2.962-0.326-3.568,0.813c-0.713,1.341,0.171,2.572,0.716,3.379c0.638,0.948,1.071,1.711,0.604,2.589   c-0.461,0.866-1.291,1.141-2.181,0.668c-1.223-0.649-1.12-2.133-0.925-2.958l-0.389-0.1c-0.232,0.608-0.62,1.711-0.657,2.011   c0.075,0.116,0.209,0.293,0.449,0.559c0.253,0.239,0.582,0.537,1.069,0.796c1.579,0.839,3.165,0.402,3.827-0.843   c0.707-1.33-0.125-2.487-0.798-3.454c-0.68-0.985-1.035-1.691-0.575-2.559c0.341-0.641,1.098-1.092,2.012-0.605   c1.033,0.549,0.906,1.532,0.716,2.404L48.79,161.303L48.79,161.303z M53.692,170.936l0.139-0.35   c-0.995-0.481-1.07-0.584-0.644-1.658l1.983-4.998c0.422-1.062,0.551-1.098,1.605-0.766l0.139-0.351l-3.311-1.313l-0.139,0.351   c0.995,0.481,1.065,0.596,0.644,1.657l-1.983,4.998c-0.422,1.062-0.552,1.098-1.606,0.766l-0.139,0.351L53.692,170.936   L53.692,170.936z M67.021,168.153c0.14-0.771,0.333-1.734,0.495-2.331l-0.272-0.074c-0.275,0.189-0.4,0.24-0.75,0.145l-5.124-1.394   c-0.363-0.1-0.525-0.17-0.625-0.519l-0.26-0.07c-0.22,0.707-0.514,1.531-0.79,2.293l0.376,0.102   c0.311-0.528,0.513-0.863,0.729-1.041c0.25-0.253,0.538-0.286,1.614,0.006l0.804,0.22l-1.735,6.382   c-0.279,1.024-0.418,1.127-1.619,0.883l-0.099,0.364l3.723,1.012l0.098-0.363c-1.211-0.413-1.279-0.57-1.001-1.596l1.736-6.382   l0.921,0.251c0.973,0.264,1.168,0.415,1.291,0.783c0.1,0.249,0.128,0.605,0.102,1.267L67.021,168.153L67.021,168.153z    M77.516,176.639l0.048-0.374c-0.857-0.189-1.015-0.332-1.295-1.533c-0.559-2.429-1.13-5.075-1.665-7.475l-0.429,0.068   l-3.651,6.649c-0.615,1.114-0.812,1.17-1.668,1.184l-0.047,0.374l2.893,0.367l0.048-0.374c-0.988-0.22-1.091-0.368-0.691-1.171   c0.244-0.539,0.516-1.072,0.805-1.646l2.84,0.361c0.19,0.85,0.366,1.604,0.473,2.146c0.107,0.542-0.026,0.633-0.88,0.633   l-0.048,0.373L77.516,176.639L77.516,176.639z M74.591,172.473l-2.454-0.312c0.539-1.042,1.113-2.148,1.686-3.24l0.027,0.003   L74.591,172.473L74.591,172.473z M75.862,165.669c-0.333-0.042-0.664,0.214-0.711,0.587c-0.044,0.347,0.212,0.678,0.545,0.72   c0.36,0.046,0.677-0.212,0.722-0.559C76.465,166.044,76.222,165.715,75.862,165.669 M73.327,165.36   c-0.347-0.045-0.676,0.198-0.723,0.571c-0.044,0.348,0.212,0.678,0.558,0.723c0.361,0.046,0.664-0.215,0.708-0.561   C73.917,165.72,73.687,165.406,73.327,165.36 M88.83,170.229c-0.078-0.777-0.16-1.759-0.168-2.377l-0.283,0.004   c-0.211,0.259-0.316,0.342-0.68,0.347l-5.309,0.073c-0.377,0.006-0.552-0.02-0.745-0.325l-0.268,0.004   c-0.017,0.738-0.072,1.613-0.128,2.421l0.39-0.006c0.153-0.594,0.255-0.972,0.413-1.201c0.171-0.312,0.438-0.423,1.554-0.439   l0.833-0.012l0.092,6.613c0.015,1.062-0.091,1.198-1.313,1.296l0.006,0.376l3.857-0.054l-0.006-0.376   c-1.277-0.063-1.386-0.195-1.401-1.258l-0.092-6.613l0.954-0.014c1.008-0.014,1.239,0.077,1.458,0.397   c0.164,0.213,0.291,0.547,0.447,1.189L88.83,170.229L88.83,170.229z M111.109,173.312l-0.092-0.364   c-1.16,0.176-1.215,0.121-1.598-1.253l-1.299-4.691c-0.371-1.335-0.285-1.384,0.836-1.772l-0.09-0.365l-2.219,0.549l-1.4,7.271   l-4.588-5.789l-2.141,0.529l0.09,0.365c1.217-0.176,1.295-0.141,1.596,1.586l0.49,2.759c0.23,1.383,0.295,1.978,0.342,2.45   c0.045,0.57-0.182,0.778-0.914,1.057l0.09,0.365l3.041-0.752l-0.092-0.365c-0.883,0.121-1.219,0.108-1.4-0.512   c-0.143-0.52-0.283-1.093-0.496-2.176l-0.725-3.769l0.025-0.006l4.646,6.246l0.262-0.065l1.416-7.938l0.053-0.012l1.355,5.313   c0.355,1.38,0.318,1.458-0.713,1.824l0.09,0.365L111.109,173.312L111.109,173.312z M122.789,168.751l-0.146-0.346   c-0.836,0.27-1.045,0.227-1.895-0.667c-1.711-1.812-3.543-3.807-5.221-5.604l-0.334,0.275l0.217,7.583   c0.033,1.271-0.109,1.421-0.838,1.864l0.146,0.347l2.682-1.148l-0.148-0.346c-0.963,0.31-1.127,0.234-1.188-0.661   c-0.062-0.587-0.1-1.186-0.139-1.827l2.633-1.126c0.594,0.638,1.127,1.2,1.494,1.613c0.365,0.413,0.297,0.559-0.439,0.991   l0.148,0.346L122.789,168.751L122.789,168.751z M118.158,166.639l-2.275,0.974c-0.062-1.173-0.127-2.417-0.186-3.649l0.023-0.011   L118.158,166.639L118.158,166.639z M129.68,154.847l-2.703,1.66l0.197,0.321c0.818-0.44,1.186-0.46,1.559,0.021   c0.23,0.299,0.602,0.798,1.248,1.853l1.73,2.817l-0.033,0.021l-8.309-2.817l-1.695,1.042l0.197,0.32   c0.566-0.284,0.875-0.348,1.279-0.202c0.375,0.149,0.426,0.18,0.939,1.016l1.549,2.521c0.646,1.054,0.949,1.625,1.135,2.001   c0.287,0.597,0.092,0.921-0.553,1.364l0.197,0.319l2.715-1.667l-0.195-0.319c-0.809,0.432-1.156,0.457-1.572-0.094   c-0.238-0.311-0.611-0.839-1.258-1.893l-1.766-2.875l0.023-0.014l8.566,3.005l0.354-0.218l-2.834-4.617   c-0.654-1.065-0.949-1.595-1.113-1.967c-0.264-0.531-0.082-0.851,0.539-1.278L129.68,154.847L129.68,154.847z M139.664,146.904   l-2.412,2.061l0.244,0.286c0.74-0.562,1.1-0.638,1.543-0.222c0.275,0.26,0.719,0.694,1.521,1.635l2.148,2.515l-0.031,0.026   l-8.645-1.489l-1.512,1.292l0.244,0.286c0.514-0.369,0.809-0.479,1.232-0.399c0.395,0.088,0.449,0.112,1.086,0.858l1.922,2.248   c0.803,0.94,1.191,1.457,1.432,1.8c0.377,0.545,0.234,0.896-0.332,1.433l0.244,0.286l2.422-2.068l-0.244-0.286   c-0.73,0.553-1.07,0.631-1.566,0.153c-0.285-0.271-0.732-0.735-1.537-1.676l-2.191-2.564l0.02-0.018l8.932,1.636l0.314-0.271   l-3.518-4.119c-0.812-0.95-1.186-1.428-1.406-1.769c-0.344-0.485-0.211-0.827,0.334-1.348L139.664,146.904L139.664,146.904z    M148.32,137.345l-2.25,2.691l0.287,0.24c0.746-0.743,0.867-0.782,1.721-0.066l1.67,1.397l-2.939,3.516l-1.672-1.397   c-0.855-0.716-0.838-0.842-0.254-1.686l-0.289-0.242l-2.234,2.671l0.289,0.241c0.779-0.785,0.889-0.833,1.756-0.108l4.164,3.485   c0.867,0.725,0.85,0.85,0.221,1.727l0.289,0.241l2.268-2.711l-0.287-0.242c-0.77,0.794-0.9,0.824-1.758,0.109l-2.061-1.726   l2.941-3.516l2.062,1.726c0.865,0.725,0.84,0.859,0.168,1.788l0.289,0.242l2.311-2.764l-0.287-0.241   c-0.762,0.783-0.881,0.823-1.746,0.099l-4.166-3.485c-0.855-0.717-0.838-0.842-0.203-1.747L148.32,137.345L148.32,137.345z    M159.615,132.244c0.365,0.432,0.621,0.889,0.729,1.225c0.143,0.437,0.035,0.812-0.5,1.681c-0.354,0.572-0.611,0.966-0.885,1.099   c-0.273,0.114-0.557,0.034-1.096-0.298l-2.16-1.335l0.67-1.086c0.615-0.996,0.734-1.033,1.648-0.674l0.205-0.332l-2.197-1.355   l-0.203,0.332c0.674,0.622,0.73,0.734,0.094,1.765l-0.664,1.075l-2.596-1.604c-0.344-0.213-0.352-0.248-0.133-0.604l0.537-0.869   c0.508-0.824,0.779-1.083,1.119-1.095c0.342,0.006,0.666,0.048,1.209,0.242l0.146-0.368c-0.604-0.325-1.416-0.749-1.703-0.925   l-3.15,5.101l0.32,0.198c0.631-0.843,0.723-0.913,1.752-0.278l4.553,2.812c0.926,0.571,0.961,0.72,0.396,1.81l0.322,0.198   l3.404-5.513c-0.291-0.322-1.225-1.215-1.561-1.517L159.615,132.244L159.615,132.244z M165.566,125.497l-0.342-0.158   c-0.535,0.967-0.643,1.036-1.691,0.552l-4.881-2.254c-1.039-0.479-1.066-0.611-0.678-1.645l-0.342-0.158l-1.492,3.235l0.342,0.156   c0.535-0.967,0.652-1.03,1.689-0.552l4.883,2.254c1.037,0.48,1.064,0.611,0.676,1.646l0.342,0.157L165.566,125.497L165.566,125.497   z M171.107,110.338l-0.359-0.115c-0.459,1.08-0.535,1.1-1.904,0.701l-4.676-1.358c-1.33-0.384-1.326-0.481-1.066-1.641   l-0.359-0.116l-0.699,2.177l5.453,5.011l-7.338,0.864l-0.672,2.1l0.357,0.115c0.488-1.128,0.561-1.176,2.188-0.526l2.605,1.033   c1.299,0.53,1.838,0.787,2.264,0.995c0.51,0.262,0.568,0.562,0.42,1.334l0.357,0.114l0.957-2.981l-0.357-0.115   c-0.361,0.815-0.549,1.094-1.172,0.922c-0.516-0.15-1.08-0.332-2.113-0.72l-3.586-1.361l0.008-0.025l7.756-0.675l0.082-0.257   l-6.014-5.373l0.018-0.051l5.234,1.636c1.361,0.424,1.408,0.494,1.178,1.564l0.359,0.115L171.107,110.338L171.107,110.338z" fill="#002F56"/>
		
	
		<path animation_id="10" d="M15.079,50.887l-0.333-0.175c-0.584,0.938-0.694,1.003-1.717,0.465l-4.761-2.501   c-1.011-0.532-1.033-0.664-0.591-1.678l-0.333-0.175l-1.657,3.154l0.333,0.174c0.584-0.937,0.705-0.995,1.717-0.464l4.76,2.501   c1.011,0.532,1.033,0.664,0.591,1.677l0.333,0.176L15.079,50.887L15.079,50.887z M15.182,34.566l-1.834,2.588l0.307,0.217   c0.58-0.726,0.909-0.888,1.441-0.593c0.331,0.185,0.867,0.499,1.875,1.213l2.698,1.912l-0.023,0.033L10.9,40.609L9.75,42.232   l0.308,0.218c0.409-0.485,0.668-0.664,1.097-0.689c0.403-0.011,0.463-0.002,1.263,0.566l2.413,1.709   c1.009,0.715,1.512,1.121,1.829,1.395c0.499,0.436,0.447,0.811,0.029,1.47l0.307,0.218l1.842-2.6l-0.307-0.217   c-0.572,0.715-0.882,0.874-1.48,0.532c-0.342-0.192-0.892-0.533-1.9-1.248l-2.753-1.951l0.016-0.022l9.058-0.6l0.242-0.34   l-4.42-3.132c-1.021-0.723-1.498-1.094-1.796-1.371c-0.452-0.386-0.408-0.75-0.005-1.388L15.182,34.566L15.182,34.566z    M25.674,22.955c-2.139,1.904-1.902,4.717-0.311,6.504c1.716,1.928,4.432,2.066,6.279,0.421s2.194-4.329,0.263-6.497   C30.117,21.375,27.411,21.409,25.674,22.955 M25.804,23.505c1.295-1.153,3.35-0.948,5.218,1.151c1.707,1.917,1.584,3.7,0.5,4.666   c-1.396,1.242-3.622,0.723-5.267-1.125C24.601,26.339,24.709,24.479,25.804,23.505 M47.146,18.432l-0.196-0.321   c-1.054,0.517-1.123,0.48-1.9-0.715l-2.648-4.085c-0.756-1.161-0.69-1.233,0.264-1.94l-0.196-0.321l-1.951,1.19l0.849,7.355   l-6.116-4.143l-1.882,1.148l0.196,0.32c1.107-0.533,1.193-0.522,2,1.033l1.295,2.485c0.636,1.25,0.876,1.796,1.063,2.232   c0.214,0.532,0.062,0.797-0.556,1.284l0.197,0.321l2.673-1.631l-0.195-0.321c-0.807,0.382-1.131,0.469-1.49-0.068   c-0.292-0.452-0.6-0.957-1.128-1.926l-1.822-3.376l0.023-0.013l6.308,4.56l0.23-0.14l-1.036-7.997l0.046-0.028l2.89,4.662   c0.753,1.209,0.743,1.294-0.131,1.953l0.196,0.321L47.146,18.432L47.146,18.432z M55.801,5.054l-2.949,1.169l0.139,0.35   c0.881-0.292,1.246-0.248,1.531,0.289c0.176,0.335,0.454,0.89,0.91,2.04l1.219,3.074l-0.038,0.015l-7.698-4.208l-1.849,0.733   l0.139,0.35c0.607-0.183,0.921-0.192,1.295,0.022c0.344,0.21,0.389,0.25,0.751,1.163L50.34,12.8   c0.456,1.15,0.656,1.765,0.772,2.167c0.181,0.637-0.068,0.924-0.778,1.248l0.139,0.35l2.962-1.174l-0.139-0.35   c-0.869,0.287-1.216,0.25-1.531-0.362c-0.182-0.348-0.457-0.932-0.912-2.082L49.609,9.46l0.025-0.01l7.919,4.438l0.388-0.154   l-1.997-5.036c-0.46-1.162-0.658-1.734-0.757-2.129C55.019,6,55.254,5.719,55.938,5.404L55.801,5.054L55.801,5.054z M66.049,11.147   l-0.09-0.366c-1.09,0.186-1.21,0.146-1.487-0.977l-1.284-5.221C62.915,3.473,63,3.369,64.051,3.028l-0.09-0.366l-3.459,0.852   l0.09,0.365c1.09-0.185,1.213-0.133,1.486,0.977l1.285,5.221c0.273,1.109,0.188,1.213-0.864,1.555l0.091,0.365L66.049,11.147   L66.049,11.147z M74.085,4.792c0.76-0.301,1.76-0.959,1.596-2.225c-0.081-0.627-0.435-1.164-0.942-1.424   c-0.478-0.236-1.099-0.319-2.112-0.188l-3.506,0.453l0.049,0.386c1.066-0.042,1.129,0.031,1.272,1.137l0.688,5.333   c0.143,1.106,0.076,1.21-1.034,1.435l0.05,0.387l3.026-0.391c1.053-0.135,1.953-0.414,2.583-0.889   c0.718-0.526,1.122-1.283,1.008-2.163c-0.172-1.333-1.288-1.786-2.673-1.81L74.085,4.792L74.085,4.792z M71.977,4.943l-0.335-2.6   c-0.054-0.413-0.035-0.578,0.075-0.674s0.383-0.185,0.702-0.226c1.174-0.152,1.815,0.511,1.939,1.471   c0.144,1.12-0.381,1.77-1.821,1.957L71.977,4.943L71.977,4.943z M72.036,5.396l0.546-0.071c1.6-0.207,2.586,0.29,2.758,1.623   c0.179,1.387-0.696,2.069-1.722,2.202c-0.825,0.12-1.113-0.114-1.236-1.074L72.036,5.396L72.036,5.396z M89.824,0.098l-3.199-0.034   L86.622,0.44c0.941,0.077,1.22,0.242,1.296,0.767c0.049,0.417,0.082,0.982,0.07,2.219l-0.012,1.021   c-0.023,2.218-0.645,3.824-2.581,3.804c-1.667-0.018-2.514-1.264-2.491-3.428l0.033-3.064c0.013-1.21,0.121-1.29,1.184-1.346   l0.004-0.376L80.645,0L80.64,0.376c1.062,0.106,1.169,0.161,1.155,1.371l-0.035,3.36c-0.017,1.573,0.348,2.585,1.148,3.212   c0.586,0.463,1.364,0.66,2.144,0.667c0.887,0.01,1.791-0.263,2.415-0.902c0.789-0.812,1.043-1.951,1.061-3.537l0.012-1.116   c0.012-1.237,0.045-1.815,0.09-2.177c0.074-0.55,0.385-0.735,1.191-0.78L89.824,0.098L89.824,0.098z M98.705,3.044   c0.02-0.854,0.031-1.381,0.051-1.868c-0.48-0.235-1.018-0.466-1.629-0.558c-1.715-0.259-2.902,0.676-3.096,1.953   c-0.227,1.502,1.016,2.369,1.799,2.95c0.916,0.682,1.578,1.257,1.43,2.241c-0.146,0.97-0.84,1.504-1.836,1.354   c-1.369-0.207-1.766-1.639-1.855-2.482l-0.4,0.035c-0.016,0.65-0.016,1.82,0.049,2.115c0.109,0.084,0.295,0.207,0.609,0.377   c0.318,0.144,0.729,0.314,1.273,0.396c1.768,0.267,3.117-0.671,3.328-2.067c0.225-1.489-0.943-2.304-1.9-2.992   c-0.967-0.703-1.537-1.251-1.391-2.222c0.109-0.718,0.674-1.394,1.695-1.24c1.158,0.175,1.365,1.144,1.477,2.031L98.705,3.044   L98.705,3.044z M119.219,6.687l-2.844-1.035l-0.127,0.354c0.977,0.499,1.016,0.627,0.514,1.26   c-0.863,1.116-2.721,3.229-3.928,4.579l-0.025-0.009c-0.055-2.48-0.09-5.254-0.092-6.271c0-0.629,0.082-0.699,1.018-0.474   l0.129-0.354l-3.096-1.127l-0.133,0.366c0.723,0.335,0.887,0.509,0.908,1.59c0.066,2.098,0.113,5.191,0.117,7.811l0.393,0.143   c1.895-2.257,4.4-4.978,5.041-5.675c0.895-0.961,1.1-1.015,1.996-0.804L119.219,6.687L119.219,6.687z M125.311,17.008   c-0.408,0.39-0.852,0.67-1.18,0.798c-0.428,0.166-0.809,0.082-1.707-0.405c-0.592-0.319-1-0.555-1.146-0.819   c-0.131-0.269-0.066-0.555,0.232-1.111l1.211-2.234l1.123,0.608c1.029,0.557,1.072,0.672,0.766,1.606l0.344,0.186l1.229-2.27   l-0.344-0.186c-0.582,0.709-0.693,0.771-1.758,0.196l-1.111-0.602l1.453-2.684c0.191-0.354,0.229-0.365,0.596-0.167l0.898,0.486   c0.852,0.461,1.125,0.716,1.156,1.054c0.012,0.343-0.01,0.667-0.172,1.221l0.375,0.126c0.291-0.622,0.666-1.458,0.826-1.753   l-5.273-2.853l-0.178,0.331c0.877,0.582,0.953,0.668,0.377,1.732l-2.547,4.706c-0.518,0.958-0.664,1.001-1.785,0.501l-0.178,0.332   l5.697,3.083c0.307-0.309,1.143-1.292,1.426-1.644L125.311,17.008L125.311,17.008z M134.525,25.409   c-0.193-0.239-0.355-0.541-0.412-1.08c-0.055-0.473-0.078-0.921-0.059-1.771c0.029-0.727,0.102-1.787,0.178-2.28   c1.059,0.236,2.053,0.079,2.732-0.856c0.475-0.652,0.547-1.348,0.318-1.946c-0.215-0.572-0.678-1.057-1.471-1.634l-2.697-1.96   l-0.221,0.305c0.793,0.692,0.855,0.788,0.184,1.712l-3.178,4.372c-0.67,0.924-0.816,0.918-1.756,0.335l-0.221,0.305l2.859,2.079   l0.221-0.304c-0.822-0.698-0.873-0.834-0.201-1.759l1.258-1.729l0.348,0.253c0.566,0.411,0.656,0.676,0.619,1.115   c-0.062,0.77-0.16,1.729-0.166,2.538c-0.025,1.062,0.258,1.633,1.043,2.27c0.121,0.105,0.242,0.192,0.371,0.287L134.525,25.409   L134.525,25.409z M132.322,18.839l1.943-2.675c0.213-0.293,0.352-0.392,0.467-0.392c0.135-0.002,0.352,0.089,0.666,0.318   c0.826,0.601,1.283,1.597,0.43,2.771c-0.428,0.587-0.918,0.896-1.578,0.913c-0.43,0.021-0.852-0.154-1.408-0.556L132.322,18.839   L132.322,18.839z M139.441,29.971l0.256-0.275c-0.754-0.809-0.787-0.931,0-1.779l3.658-3.941c0.775-0.837,0.91-0.824,1.771-0.133   l0.256-0.276l-2.609-2.423l-0.256,0.275c0.754,0.809,0.775,0.941,0,1.779l-3.658,3.942c-0.777,0.837-0.91,0.823-1.773,0.132   l-0.256,0.276L139.441,29.971L139.441,29.971z M152.379,33.932c0.543-0.562,1.24-1.256,1.707-1.662l-0.186-0.213   c-0.332,0.006-0.465-0.022-0.703-0.297l-3.482-4.008c-0.248-0.284-0.342-0.434-0.23-0.778l-0.176-0.203   c-0.576,0.464-1.281,0.987-1.934,1.465l0.256,0.294c0.553-0.266,0.906-0.432,1.186-0.46c0.348-0.071,0.605,0.062,1.338,0.904   l0.545,0.629l-4.992,4.338c-0.801,0.696-0.973,0.703-1.836-0.167l-0.285,0.247l2.531,2.912l0.285-0.247   c-0.777-1.017-0.746-1.187,0.055-1.883l4.992-4.338l0.627,0.72c0.66,0.761,0.74,0.996,0.637,1.369   c-0.057,0.263-0.23,0.575-0.621,1.11L152.379,33.932L152.379,33.932z M153.559,47.087l0.311-0.212   c-0.424-0.769-0.422-0.981,0.293-1.986c1.455-2.024,3.062-4.203,4.51-6.19l-0.336-0.277l-7.4,1.657   c-1.244,0.274-1.416,0.164-1.992-0.469l-0.312,0.211l1.639,2.414l0.311-0.211c-0.488-0.888-0.445-1.063,0.422-1.293   c0.566-0.172,1.146-0.322,1.768-0.483l1.607,2.37c-0.514,0.705-0.963,1.335-1.299,1.774c-0.336,0.438-0.492,0.399-1.057-0.241   l-0.312,0.21L153.559,47.087L153.559,47.087z M154.75,42.137l-1.389-2.048c1.139-0.285,2.348-0.584,3.547-0.877l0.014,0.022   L154.75,42.137L154.75,42.137z M163.051,50.446c0.697-0.491,1.131-0.796,1.531-1.071c-0.096-0.526-0.229-1.094-0.52-1.641   c-0.811-1.532-2.27-1.931-3.41-1.326c-1.342,0.71-1.301,2.225-1.301,3.199c-0.004,1.143-0.074,2.016-0.953,2.482   c-0.867,0.46-1.707,0.221-2.18-0.67c-0.648-1.224,0.268-2.394,0.893-2.968l-0.268-0.3c-0.531,0.373-1.471,1.069-1.67,1.296   c-0.004,0.138,0.01,0.36,0.059,0.714c0.074,0.341,0.182,0.771,0.438,1.258c0.838,1.58,2.396,2.109,3.645,1.449   c1.33-0.706,1.289-2.13,1.273-3.308c-0.01-1.196,0.094-1.98,0.959-2.44c0.643-0.34,1.521-0.288,2.004,0.626   c0.549,1.034-0.107,1.777-0.754,2.393L163.051,50.446L163.051,50.446z" fill="#002F56"/>
		

	</g>
	

</svg>
