<?xml version="1.0" encoding="UTF-8"?>
<svg width="315.18" height="60" version="1.1" viewBox="0 0 315.18 60" xmlns="http://www.w3.org/2000/svg" xmlns:cc="http://creativecommons.org/ns#" xmlns:dc="http://purl.org/dc/elements/1.1/" xmlns:rdf="http://www.w3.org/1999/02/22-rdf-syntax-ns#">
 <metadata>
  <rdf:RDF>
   <cc:Work rdf:about="">
    <dc:format>image/svg+xml</dc:format>
    <dc:type rdf:resource="http://purl.org/dc/dcmitype/StillImage"/>
    <dc:title/>
   </cc:Work>
  </rdf:RDF>
 </metadata>
 <g transform="translate(108.1 -160.53)">
  <path d="m74.652 207.06h-19.929v-11.186h19.939c3.2786 0.0535 5.925 2.5071 5.925 5.5714 0 3.0643-2.6572 5.6142-5.9357 5.6142m-19.929-32.796h19.586c2.6786 0.0321 4.95 2.1 4.95 4.8107 0 2.7-2.3786 4.8536-5.0678 4.8214h-19.468zm31.189 15.643c3.6857-2.5929 5.0786-6.8893 5.0786-11.614 0-8.8928-7.4893-16.018-16.671-16.018h-33.257v56.775h34.564v0.0218c9.7071 0 17.786-7.4893 17.786-16.661 0-5.9786-3.6-10.404-7.5-12.504m51.289-27.761v31.918c0 9.7607-5.7 13.854-12.707 13.854-7.0178 0-12.675-4.0821-12.675-13.843v-31.929h-14.154v32.014c0 20.421 12 26.368 26.829 26.368 14.839 0 26.85-5.9464 26.85-26.368v-32.014zm49.661 22.125c-11.454-2.4857-15.321-3.5892-15.321-7.2214 0-3.2036 4.1464-4.8214 10.693-4.8214 6.1822 0 13.65 2.6357 18.032 5.2607l4.4679-11.55c-6.6429-2.7643-14.636-5.4107-25.2-5.4107-13.854 0-22.5 8.1-22.5 18 0 9.9107 7.125 14.271 21.246 17.261 10.95 2.3143 13.918 3.7071 13.918 7.1143 0 3.4071-4.3929 4.6607-10.329 4.6607-7.6821 0-15.075-2.5607-22.039-5.55l-4.2107 11.26c8.325 3.8571 16.971 6.9536 27.279 6.9536 17.175 0 24.182-8.2072 24.182-17.775 0-8.5072-5.8928-15.064-20.218-18.182m-266.28-21.996-28.682 56.764 17.036 0.01 4.2857-9.1286h19.564l-6.0857-12.439h-7.725l7.275-15.525 18.321 37.093h17.079l-29.796-56.774zm115.24 18.879c0-10.339-7.0929-18.729-21.675-18.729h-29.454v56.775l13.65-0.01v-44.774h16.746c4.95 0 7.0071 3.0643 7.0071 6.7071 0 3.6536-2.1643 6.5786-7.1143 6.5786h-11.711l17.721 31.489h14.014s-12.129-20.582-12.064-20.593c8.7536-2.7218 12.879-9.354 12.879-17.443m-71.25 37.918h14.121v-56.765h-14.121z" fill="#00205b"/>
 </g>
</svg>
