<svg height="306" viewBox="0 0 470.00031 306.00001" width="470.00034" xmlns="http://www.w3.org/2000/svg">
  <g transform="translate(-202.45769 -102.01989)">
    <path d="m337.12922 176.14391c4.10144-13.0277 11.30455-24.46191 21.75264-33.47689 44.31397-38.2437 130.20874-18.48036 191.86681 44.11265 2.81505 2.85599 5.52432 5.75293 8.14487 8.684h9.94309c-8.43831-10.42421-17.98559-20.52085-28.59064-30.0886-75.92781-68.468776-177.53908-83.837229-226.93719-34.32993-12.35209 12.37939-20.28199 28.0993-24.02856 45.09877z" fill="#008ac3"/>
    <path d="m363.07747 292.06928c7.66034 11.39668 16.73332 22.5545 27.178 33.15955 61.65125 62.60325 147.54262 82.3427 191.87705 44.11606 21.05315-18.17326 28.92846-46.17019 24.78266-77.26879h6.6674c4.60985 33.79422-3.34735 64.91671-25.30131 86.91843-49.39129 49.51413-150.99915 34.14227-226.93719-34.32651-18.09478-16.32045-33.09813-34.18321-44.78826-52.59192z" fill="#008ac3"/>
    <g fill="#000">
      <path d="m264.37508 266.97952c-.10919.75068-.53912 1.07484-1.29663 1.07484h-10.14099c-.64832 0-.86328-.21156-.86328-.75068v-.32416l11.54681-65.83458c.21497-.75409.6449-1.07483 1.29321-1.07483h10.14441c.64832 0 .86328.21155.86328.75068v.32415z"/>
      <path d="m232.79298 236.1423c0-3.6715-2.58984-6.26135-6.4729-6.26135-4.53479 0-8.31207 3.34735-9.06616 7.66717l-2.05072 11.32843c-.10919.43335-.10919.96906-.10919 1.40241 0 3.6715 2.58984 6.36712 6.58209 6.36712 4.4256 0 8.0971-3.23816 8.96038-7.76953l2.05072-11.32843c.10578-.54595.10578-.97589.10578-1.40582m7.11098 30.75397c-.10578.76091-.53912 1.08507-1.29322 1.08507h-9.17534c-.53913 0-.86329-.21838-.86329-.76092v-.21155c0-.76092-.10577-1.18744-.53912-1.18744-1.4024 0-4.31641 2.15991-9.28113 2.15991-9.82025 0-16.29656-6.26476-16.29656-15.32751 0-1.18744.10919-2.48406.32416-3.77728l2.05071-11.32843c2.05072-11.22607 11.54682-18.9956 22.6637-18.9956 4.74975 0 7.2304 2.15991 8.41784 2.15991 1.08166 0 .64832-2.15991 2.2691-2.15991h9.17194c.64831 0 .86328.21838.86328.75409v.32416z"/>
      <path d="m290.97438 266.89627c-.10578.76092-.53912 1.08507-1.29322 1.08507h-10.1444c-.64832 0-.8667-.21838-.8667-.76091v-.32416l5.4902-31.2965v-.32416c0-.53913-.21156-.75068-.85987-.75068h-2.48407c-.6449 0-.96906-.21838-.96906-.86669v-.21497l1.61738-9.17194c.10578-.7575.53912-1.08166 1.29321-1.08166h2.48407c.75409 0 1.18744-.32416 1.29663-1.07825l.53912-3.01977c1.94153-11.1203 12.51929-20.18304 23.63275-20.18304 5.0705 0 7.55457.53912 7.55457 1.50818 0 .21838-.10578.43335-.32416.64831l-4.74634 9.06616c-.32416.53913-.75751.75751-1.40582.75751-1.4024-.43335-2.58984-.6449-3.45312-.6449-3.99225 0-7.87531 3.34052-8.63282 7.76611l-.75409 4.10144v.32416c0 .53912.21497.75409.86328.75409h7.01544c.64832 0 .85987.21838.85987.75751v.32415l-1.61737 9.17194c-.10578.7575-.42994 1.08166-1.18744 1.08166h-7.01203c-.7575 0-1.18743.32074-1.29662 1.07484z"/>
      <path d="m340.1722 236.1423c0-3.6715-2.58984-6.26135-6.4729-6.26135-4.53479 0-8.31207 3.34735-9.06616 7.66717l-2.05072 11.32843c-.10919.43335-.10919.96906-.10919 1.40241 0 3.6715 2.58984 6.36712 6.58209 6.36712 4.4256 0 8.0971-3.23816 8.96038-7.76953l2.04731-11.32843c.10919-.54595.10919-.97589.10919-1.40582m7.11098 30.75397c-.10578.76091-.53912 1.08507-1.29322 1.08507h-9.17534c-.53913 0-.86329-.21838-.86329-.76092v-.21155c0-.76092-.10577-1.18744-.53912-1.18744-1.4024 0-4.31641 2.15991-9.28113 2.15991-9.82025 0-16.29656-6.26476-16.29656-15.32751 0-1.18744.10919-2.48406.32416-3.77728l2.05071-11.32843c2.05072-11.22607 11.54682-18.9956 22.6637-18.9956 4.74975 0 7.2304 2.15991 8.41784 2.15991 1.07825 0 .6449-2.15991 2.2691-2.15991h9.17194c.64831 0 .86328.21838.86328.75409v.32416z"/>
      <path d="m388.08772 225.3506c-.21497.75409-.53912 1.07484-1.29322 1.07484h-7.87872c-.75409 0-1.18743.32415-1.29662 1.08166l-4.20722 23.85113c-.21497.97247-.21497 1.83575-.21497 2.59325 0 4.74634 3.01978 6.14534 7.44538 8.6294.42993.21838.64831.42994.64831.75409v.32416l-.7575 4.20722c-.10578.76091-.53913 1.08507-1.40241 1.08507-7.12122 0-13.38256-5.61645-13.38256-14.24926 0-1.07483.10919-2.15649.32415-3.34393l4.21063-23.85113v-.32416c0-.53571-.21838-.7575-.86328-.7575h-6.26135c-.6449 0-.96906-.21156-.96906-.64491 0-.10577.10578-.32415.10578-.42993l.32416-2.05072 14.46081-12.84344.86328-.32416h1.72656c.64832 0 .86329.21497.86329.75751v.32415l-1.40241 7.9845v.32075c0 .64831.21497.7575.86328.7575h7.87872c.64832 0 .86328.21497.86328.7575v.32416z"/>
      <path d="m425.21461 226.85981c-.10919.86328-.43335 1.08166-1.18744 1.08166-.86328 0-2.26568-.32416-3.99566-.32416-6.68787 0-12.41009 4.96472-13.48834 11.32844l-4.85553 27.94915c-.10919.76092-.53913 1.08508-1.29663 1.08508h-5.17969c-.64831 0-.86328-.21838-.86328-.76092v-.32416l7.98791-45.53893c.10578-.75751.53913-1.07825 1.29322-1.07825h3.99225c.64831 0 .86328.21155.86328.7575v.32075l-.97247 5.39465v.32416c0 .54253.32415.86669.7575.86669.86328 0 3.01978-2.48407 7.77294-5.83141 1.50819-1.07484 3.77729-1.83234 5.28547-1.83234h3.99225c.64831 0 .86328.21155.86328.7575v.32075z"/>
      <path d="m460.39657 235.92733c0-5.39124-4.10485-9.49951-10.14782-9.49951-6.14875 0-11.98016 5.1831-13.055 11.44104l-2.15991 12.41009c-.10577.64832-.21496 1.29663-.21496 1.94153 0 5.50726 4.09802 9.6087 10.03863 9.6087 6.15216 0 12.08252-5.39807 13.1676-11.55023l2.15308-12.40668c.1126-.6449.21838-1.29663.21838-1.94494m2.04731 30.97576c-.10578.75409-.53571 1.07825-1.29322 1.07825h-3.99225c-.6449 0-.86669-.21838-.86669-.76092v-.32416l.76091-4.63715v-.32415c0-.54254-.32074-.8667-.76091-.8667-.75068 0-2.58984 1.94153-6.36713 4.75317-1.82892 1.39899-4.53137 2.15991-7.65693 2.15991-8.74541 0-14.78838-5.72223-14.78838-14.24926 0-1.07825.10578-2.26569.32416-3.45313l2.15991-12.41009c1.72656-10.2536 10.79272-17.59319 20.82794-17.59319 2.69562 0 4.74975.53912 5.72222 1.29662 3.34052 2.48748 4.85212 5.50726 6.04297 5.50726.42993 0 .85646-.42993.96906-1.18744l.75409-4.53137c.10578-.7575.54254-1.08166 1.29322-1.08166h3.99907c.64831 0 .85987.21497.85987.7575v.32416z"/>
      <path d="m485.00452 266.90377c-.1126.75409-.54254 1.07484-1.29322 1.07484h-5.18992c-.64831 0-.85646-.20815-.85646-.75068v-.32416l7.98791-45.54235c.10578-.7575.53572-1.08166 1.29322-1.08166h5.1831c.6449 0 .85646.21497.85646.7575v.32416z"/>
      <path d="m537.88135 266.90377c-.10237.75409-.53571 1.07484-1.29322 1.07484h-5.17968c-.64832 0-.8667-.20815-.8667-.75068v-.32416l5.07391-29.03082c.11261-.64831.21838-1.29663.21838-1.94494 0-5.39465-4.10144-9.49609-10.14782-9.49609-6.14874 0-11.97674 5.1831-13.05499 11.44103l-5.07391 29.03082c-.10578.75409-.53913 1.07484-1.29322 1.07484h-5.17969c-.64831 0-.86669-.20815-.86669-.75068v-.32416l7.98791-45.54235c.10578-.7575.54254-1.08166 1.29663-1.08166h3.98884c.64831 0 .86669.21497.86669.7575v.32416l-.75409 4.31641v.32415c0 .53913.32415.86328.75409.86328.75409 0 2.26569-1.72997 5.39807-3.99566 2.36805-1.72656 5.17627-2.58984 8.41443-2.58984 8.96038 0 15.10913 5.72222 15.10913 14.24926 0 1.07483-.10578 2.15649-.32416 3.34393z"/>
      <path d="m560.43551 266.90377c-.10578.75409-.53571 1.07484-1.29663 1.07484h-5.17969c-.6449 0-.86328-.20815-.86328-.75068v-.32416l7.98791-45.54235c.11261-.7575.54254-1.08166 1.29663-1.08166h5.1831c.64832 0 .85987.21497.85987.7575v.32416z"/>
      <path d="m613.32121 266.90377c-.10578.75409-.54254 1.07484-1.29663 1.07484h-5.17969c-.64831 0-.86669-.20815-.86669-.75068v-.32416l5.07732-29.03082c.10237-.64831.21497-1.29663.21497-1.94494 0-5.39465-4.10144-9.49609-10.14782-9.49609-6.14875 0-11.97675 5.1831-13.05841 11.44103l-5.06708 29.03082c-.1126.75409-.54254 1.07484-1.29322 1.07484h-5.18651c-.64831 0-.85987-.20815-.85987-.75068v-.32416l7.98791-45.54235c.10578-.7575.5323-1.08166 1.29322-1.08166h3.99225c.6449 0 .86328.21497.86328.7575v.32416l-.76092 4.31641v.32415c0 .53913.32416.86328.76092.86328.75409 0 2.26568-1.72997 5.39806-3.99566 2.37147-1.72656 5.17969-2.58984 8.41444-2.58984 8.96038 0 15.10912 5.72222 15.10912 14.24926 0 1.07483-.1126 2.15649-.32415 3.34393z"/>
      <path d="m662.41768 235.92733c0-5.39124-4.09461-9.49609-10.141-9.49609-6.14874 0-11.97674 5.1831-13.06182 11.44103l-2.15308 12.4101c-.1126.64831-.21497 1.29662-.21497 1.94153 0 5.50384 4.10144 9.60528 10.03522 9.60528 6.14533 0 12.08594-5.39466 13.16419-11.54681l2.1599-12.4101c.10578-.6449.21156-1.29663.21156-1.94494m.76092 38.42113c-2.05755 11.65259-10.47198 18.88641-22.23035 18.88641-9.17535 0-15.10913-4.96813-15.10913-9.4995 0-.42653.21838-.5323.8667-.85646l4.85553-2.26569c.21155-.11601.42652-.11601.5323-.11601.32415 0 .44017.22179.76091.54254 2.58985 3.45653 4.313 6.04638 9.16853 6.04638 6.58209 0 12.51928-5.29229 13.59753-11.54682l2.26569-13.16759v-.32416c0-.54254-.21156-.86669-.64832-.86669-.96906 0-3.12555 2.48406-7.76953 5.50384-.96906.64831-3.23474 1.29663-5.93037 1.29663-7.98791 0-14.03429-5.828-14.03429-14.24585 0-1.18744.11602-2.26569.32416-3.45312l2.15991-12.4101c1.72656-10.25018 10.78931-17.59319 20.83135-17.59319 2.69562 0 4.74293.53912 5.7154 1.29663 3.34735 2.48406 4.85894 5.50384 6.04297 5.50384.43676 0 .86669-.42993.97247-1.18744l.7575-4.53137c.10578-.7575.53572-1.08166 1.29663-1.08166h3.98884c.64831 0 .86669.21497.86669.7575v.32416z"/>
    </g>
  </g>
</svg>
