<?xml version="1.0" encoding="UTF-8" standalone="no"?>
<!-- Created with Inkscape (http://www.inkscape.org/) -->

<svg
   xmlns:dc="http://purl.org/dc/elements/1.1/"
   xmlns:cc="http://creativecommons.org/ns#"
   xmlns:rdf="http://www.w3.org/1999/02/22-rdf-syntax-ns#"
   xmlns:svg="http://www.w3.org/2000/svg"
   xmlns="http://www.w3.org/2000/svg"
   version="1.1"
   width="900"
   height="232.90953"
   id="svg2"
   xml:space="preserve"><metadata
     id="metadata8"><rdf:RDF><cc:Work
         rdf:about=""><dc:format>image/svg+xml</dc:format><dc:type
           rdf:resource="http://purl.org/dc/dcmitype/StillImage" /><dc:title></dc:title></cc:Work></rdf:RDF></metadata><defs
     id="defs6"><clipPath
       id="clipPath16"><path
         d="m 0,0 595.275,0 0,841.89 L 0,841.89 0,0 z"
         id="path18" /></clipPath><clipPath
       id="clipPath38"><path
         d="m 110.539,472.82 c 0,0 -4.524,0 -4.524,-4.524 l 0,0 0,-34.628 c 0,0 0,-4.524 4.524,-4.524 l 0,0 249.018,0 c 0,0 4.524,0 4.524,4.524 l 0,0 0,34.628 c 0,0 0,4.524 -4.524,4.524 l 0,0 -249.018,0 z"
         id="path40" /></clipPath><clipPath
       id="clipPath110"><path
         d="m 0,0 595.276,0 0,841.89 L 0,841.89 0,0 z"
         id="path112" /></clipPath><clipPath
       id="clipPath124"><path
         d="m 9.355,773.639 86.408,0 0,38.912 -86.408,0 0,-38.912 z"
         id="path126" /></clipPath><clipPath
       id="clipPath140"><path
         d="m 381.915,771.024 184.419,0 0,39.685 -184.419,0 0,-39.685 z"
         id="path142" /></clipPath><clipPath
       id="clipPath152"><path
         d="m 381.928,771.024 184.405,0 0,39.685 -184.405,0 0,-39.685 z"
         id="path154" /></clipPath></defs><g
     transform="matrix(1.25,0,0,-1.25,-452.39427,1171.6892)"
     id="g10"><g
       transform="matrix(3.6872656,0,0,3.6872656,-1026.3081,-2071.9455)"
       id="g3160"><path
         d="m 560.7269,782.49271 c 0,-3.619 -2.497,-7.187 -6.219,-7.187 -2.14,0 -3.466,1.478 -3.466,3.415 0,2.396 2.09,4.486 9.685,4.486 l 0,-0.714 z m 5.607,-10.959 c -0.102,2.141 -0.153,4.74 -0.153,6.932 l 0,10.501 c 0,5.046 -2.141,8.41 -9.838,8.41 -3.262,0 -6.677,-0.714 -9.226,-1.682 l 1.071,-4.384 c 2.039,1.071 4.893,1.835 7.238,1.835 3.976,0 5.301,-1.682 5.301,-4.791 l 0,-1.478 c -9.277,0 -14.935,-3.11 -14.935,-8.819 0,-4.128 2.753,-7.034 7.085,-7.034 4.027,0 7.187,2.243 8.411,5.25 l 0.051,-0.051 c -0.204,-1.376 -0.255,-3.058 -0.255,-4.689 l 5.25,0 z m -25.639,25.333 -5.454,0 0,-25.333 5.454,0 0,25.333 z m 0.765,7.901 c 0,1.886 -1.58,3.415 -3.466,3.415 -1.937,0 -3.517,-1.529 -3.517,-3.415 0,-1.937 1.58,-3.415 3.517,-3.415 1.886,0 3.466,1.529 3.466,3.415 m -18.452,-20.134 c 0,-4.333 -2.242,-9.124 -6.269,-9.124 -3.466,0 -5.046,2.854 -5.046,7.952 0,6.83 2.956,9.48 7.289,9.48 1.325,0 2.65,-0.153 4.026,-0.458 l 0,-7.85 z m 5.404,-13.1 0,37.21 -5.404,0 0,-11.673 c -1.376,0.102 -2.599,0.204 -3.822,0.204 -8.207,0 -13.253,-5.607 -13.253,-14.323 0,-7.34 3.109,-11.928 9.328,-11.928 3.925,0 6.881,2.141 8.257,5.25 l 0.102,0 c -0.254,-1.427 -0.357,-3.415 -0.357,-4.74 l 5.149,0 z m -32.52,16.005 -10.755,0 c 0.458,3.568 2.599,5.811 5.658,5.811 3.211,0 5.199,-2.192 5.097,-5.811 m 5.454,-1.121 c 0,6.015 -3.109,10.959 -10.347,10.959 -7.391,0 -11.571,-5.709 -11.571,-13.355 0,-8.92 4.332,-12.998 12.131,-12.998 3.16,0 6.321,0.561 8.971,1.631 l -0.713,4.282 c -2.294,-1.02 -4.843,-1.529 -7.289,-1.529 -5.047,0 -7.646,2.6 -7.493,8.359 l 16.158,0 c 0.102,1.071 0.153,1.937 0.153,2.651 m -27.066,-14.884 0,17.483 c 0,5.709 -2.701,8.36 -7.544,8.36 -4.587,0 -7.391,-3.058 -8.461,-5.454 -0.408,2.243 -2.039,5.454 -7.034,5.454 -3.925,0 -7.086,-2.192 -8.564,-5.556 l -0.102,0.051 c 0.255,1.529 0.357,3.619 0.357,4.995 l -5.199,0 0,-25.333 5.454,0 0,12.08 c 0,5.353 3.007,9.226 6.473,9.226 3.059,0 3.671,-2.242 3.671,-5.148 l 0,-16.158 5.352,0 0,12.08 c 0,5.607 3.262,9.226 6.524,9.226 2.905,0 3.67,-2.038 3.67,-5.148 l 0,-16.158 5.403,0 z"
         id="path146"
         style="fill:#024682;fill-opacity:1;fill-rule:nonzero;stroke:none" /><g
         id="g3156"><path
           d="m 417.9481,790.58659 c 4.441,1.536 7.616,5.077 7.616,10.333 0,1.319 -0.668,4.516 -3.086,6.578 -1.597,1.361 -3.905,2.968 -11.355,3.149 -1.538,0.038 -6.219,-0.13 -6.219,-0.13 l 0,-0.267 c 1.322,-1.012 2.744,-2.684 3.426,-4.616 0.713,0.025 1.789,0.081 2.85,0.025 2.993,-0.161 4.296,-0.719 5.645,-1.779 1.355,-1.064 2.081,-2.891 2.075,-4.549 -0.01,-2.262 -1.081,-4.602 -4.349,-5.934 -2.642,-1.077 -5.841,-1.314 -5.841,-1.314 l -0.002,-0.825 c 0,0 1.915,-0.915 3.829,-3.445 1.647,-2.178 11.211,-16.258 11.211,-16.258 l 7.903,0 c 0,0 -12.77,17.792 -13.703,19.032"
           id="path158"
           style="fill:#0089cc;fill-opacity:1;fill-rule:nonzero;stroke:none" /><path
           d="m 392.6684,776.9863 -4.422,0 0,28.705 c 0.058,0 1.983,0.026 3.182,0.026 4.939,0 7.679,-2.556 7.758,-6.063 0.047,-2.128 -0.584,-4.172 -2.754,-5.674 -1.772,-1.227 -4.244,-1.594 -4.244,-1.594 l 0,-0.923 c 0,0 3.423,-0.512 5.161,-1.324 3.236,-1.511 4.199,-3.858 4.222,-6.895 0.036,-4.798 -4.6,-6.258 -8.903,-6.258 m 7.907,15.583 c 3.037,1.795 4.985,4.435 4.985,8.37 0,4.208 -2.496,9.769 -12.956,9.769 -5.064,0 -10.689,-0.189 -10.689,-0.189 l 0,-38.965 8.924,0 c 11.354,0 17.355,4.185 17.355,12.101 0,4.715 -2.957,7.832 -7.619,8.914"
           id="path162"
           style="fill:#0089cc;fill-opacity:1;fill-rule:nonzero;stroke:none" /></g></g></g></svg>