<?xml version="1.0" encoding="UTF-8" standalone="no"?>
<!-- Created with Inkscape (http://www.inkscape.org/) -->
<svg
   xmlns:svg="http://www.w3.org/2000/svg"
   xmlns="http://www.w3.org/2000/svg"
   version="1.0"
   width="157.0528"
   height="40.927921"
   id="svg2676">
  <defs
     id="defs2678" />
  <g
     transform="translate(-270.28885,-516.8347)"
     id="layer1">
    <path
       d="M 270.28885,557.76262 L 427.34165,557.76262 L 427.34165,516.8347 L 270.28885,516.8347 L 270.28885,557.76262 z"
       id="path23"
       style="fill:#0060af;fill-opacity:1;fill-rule:nonzero;stroke:none" />
    <path
       d="M 374.36716,543.72646 L 374.36716,537.43021 C 374.36716,535.03771 375.77716,533.52021 378.34841,533.18021 C 379.36841,533.04146 379.88091,533.14646 380.42466,533.24646 L 380.42341,528.98146 C 376.72966,528.98146 374.97966,529.91271 374.18966,532.52396 L 374.12966,532.52396 L 374.12966,529.53646 L 368.73966,529.53646 L 368.73966,543.72896 L 374.36716,543.72646"
       id="path117"
       style="fill:#ffffff;fill-opacity:1;fill-rule:nonzero;stroke:none" />
    <path
       d="M 402.51091,539.16646 C 403.49716,543.21771 407.47716,544.44146 412.58091,544.44146 C 416.57466,544.44146 420.81591,542.97896 420.81591,539.06396 C 420.81591,533.14146 408.66716,535.39021 408.66716,532.94146 C 408.66716,531.98771 410.51591,531.73896 411.42716,531.73896 C 412.19966,531.77021 413.46591,531.98771 413.83966,532.25896 C 414.22591,532.58146 414.69216,532.87021 414.75841,533.48396 L 420.14216,533.48396 C 419.18216,530.42396 415.74466,528.75396 411.66341,528.75396 C 406.72841,528.75396 402.84841,530.31646 402.84841,533.99396 C 402.84841,539.59896 414.96216,537.43021 414.96216,540.05146 C 414.96216,541.16146 413.03841,541.43021 411.83216,541.37896 C 411.01466,541.34396 409.96091,541.20771 409.17841,540.66646 C 408.70341,540.42771 408.22841,539.75271 408.12466,539.16646 L 402.51091,539.16646"
       id="path121"
       style="fill:#ffffff;fill-opacity:1;fill-rule:nonzero;stroke:none" />
    <path
       d="M 314.93091,529.60021 L 314.93091,537.39396 C 314.91966,539.13271 313.77341,540.80771 311.68716,540.80771 C 309.60966,540.80771 308.43466,539.11021 308.43466,537.24271 L 308.43466,529.60021 L 302.77216,529.60771 L 302.77216,537.94021 C 302.77216,542.08896 306.23091,544.30396 309.71341,544.30396 C 311.75091,544.30396 313.59341,543.59021 315.02966,542.15896 L 315.08966,542.15896 L 315.08966,543.76146 L 320.60091,543.76146 L 320.60091,529.60021 L 314.93091,529.60021"
       id="path125"
       style="fill:#ffffff;fill-opacity:1;fill-rule:nonzero;stroke:none" />
    <path
       d="M 394.31091,529.49146 L 394.31091,537.28521 C 394.30091,539.02396 393.15341,540.69771 391.06716,540.69771 C 388.99341,540.69771 387.81716,538.99896 387.81716,537.13146 L 387.81716,529.49146 L 382.16091,529.46896 L 382.15216,537.82646 C 382.15216,541.97771 385.61091,544.19396 389.09466,544.19396 C 391.13466,544.19396 392.97591,543.48146 394.41341,542.04646 L 394.47091,542.04646 L 394.47091,543.65021 L 399.98216,543.65021 L 399.98216,529.49146 L 394.31091,529.49146"
       id="path129"
       style="fill:#ffffff;fill-opacity:1;fill-rule:nonzero;stroke:none" />
    <path
       d="M 394.31091,529.49146 L 394.31091,537.28521 C 394.30091,539.02396 393.15341,540.69771 391.06716,540.69771 C 388.99341,540.69771 387.81716,538.99896 387.81716,537.13146 L 387.81716,529.49146 L 382.16091,529.46896 L 382.15216,537.82646 C 382.15216,541.97771 385.61091,544.19396 389.09466,544.19396 C 391.13466,544.19396 392.97591,543.48146 394.41341,542.04646 L 394.47091,542.04646 L 394.47091,543.65021 L 399.98216,543.65021 L 399.98216,529.49146 L 394.31091,529.49146"
       id="path133"
       style="fill:#ffffff;fill-opacity:1;fill-rule:nonzero;stroke:none" />
    <path
       d="M 278.09466,551.32396 L 419.99216,551.32396 L 419.99216,549.78021 L 278.09466,549.78021 L 278.09466,551.32396 z"
       id="path135"
       style="fill:#ffffff;fill-opacity:1;fill-rule:nonzero;stroke:none" />
    <path
       d="M 333.74841,540.78396 C 331.35841,540.78396 329.42091,538.91146 329.42091,536.60146 C 329.42091,534.29021 331.35841,532.41771 333.74841,532.41771 C 336.13841,532.41771 338.07466,534.29021 338.07466,536.60146 C 338.07466,538.91146 336.13841,540.78396 333.74841,540.78396 M 337.79841,523.94396 L 337.79841,530.54771 C 336.36466,529.23146 334.14341,528.86146 332.16091,528.86146 C 326.18341,528.95646 323.35341,533.46146 323.35341,536.86396 C 323.35341,541.62021 328.51591,544.40646 332.24216,544.40646 C 334.69966,544.40646 336.87841,543.67271 337.90341,542.17021 L 337.96966,542.17021 L 337.96966,543.88521 L 343.54341,543.88521 L 343.54341,523.94396 L 337.79841,523.94396"
       id="path139"
       style="fill:#ffffff;fill-opacity:1;fill-rule:nonzero;stroke:none" />
    <path
       d="M 352.46966,534.91396 C 352.73091,533.24146 354.07591,531.91896 356.17341,531.91896 C 358.22966,531.91896 359.61216,533.24146 359.83716,534.91396 L 352.46966,534.91396 M 356.27716,528.84396 C 350.43466,528.84396 346.23091,531.60146 346.23091,536.90771 C 346.23091,541.90521 350.93341,544.48021 356.20716,544.48021 C 360.19716,544.48021 363.91841,542.97896 365.45091,539.71146 L 359.85216,539.71146 C 359.12341,540.97146 357.72716,541.29021 356.27716,541.29021 C 353.99841,541.29021 352.58466,540.08271 352.37091,537.90771 L 366.03841,537.90771 C 366.60966,533.82646 363.82966,528.84396 356.27716,528.84396"
       id="path143"
       style="fill:#ffffff;fill-opacity:1;fill-rule:nonzero;stroke:none" />
    <path
       d="M 288.91841,540.11646 L 284.04341,540.11646 L 284.04341,535.41771 L 290.31716,535.41771 C 292.58091,535.41771 293.47716,536.20271 293.47716,537.90146 C 293.47716,539.43646 292.54716,540.11646 288.91841,540.11646 M 284.04341,527.72646 L 289.86466,527.72646 C 292.35716,527.72646 292.99216,528.46271 292.99216,529.59646 C 292.99216,530.84521 292.35716,531.85396 289.86466,531.85396 L 284.04341,531.85396 L 284.04341,527.72646 z M 295.32841,533.29646 C 295.27841,533.30396 295.23341,533.32021 295.18216,533.33021 L 295.20966,533.27396 C 295.25091,533.27896 295.28716,533.29146 295.32841,533.29646 C 297.92966,532.82521 299.58841,531.07646 299.40216,528.54271 C 299.26716,526.68771 298.41591,523.71521 290.69091,523.88146 L 278.07216,523.88146 L 278.07216,543.95021 L 292.29091,543.92396 C 297.87216,543.99146 300.25341,541.06646 300.26591,538.16271 C 300.27716,535.67771 298.36091,533.71021 295.32841,533.29646"
       id="path147"
       style="fill:#ffffff;fill-opacity:1;fill-rule:nonzero;stroke:none" />
  </g>
</svg>
