<?xml version="1.0" encoding="UTF-8" standalone="no"?>
<!-- Created with Inkscape (http://www.inkscape.org/) -->

<svg
   xmlns:dc="http://purl.org/dc/elements/1.1/"
   xmlns:cc="http://creativecommons.org/ns#"
   xmlns:rdf="http://www.w3.org/1999/02/22-rdf-syntax-ns#"
   xmlns:svg="http://www.w3.org/2000/svg"
   xmlns="http://www.w3.org/2000/svg"
   version="1.1"
   width="715.74799"
   height="283.11023"
   id="svg5479">
  <defs
     id="defs5481" />
  <metadata
     id="metadata5484">
    <rdf:RDF>
      <cc:Work
         rdf:about="">
        <dc:format>image/svg+xml</dc:format>
        <dc:type
           rdf:resource="http://purl.org/dc/dcmitype/StillImage" />
        <dc:title></dc:title>
      </cc:Work>
    </rdf:RDF>
  </metadata>
  <g
     transform="translate(-21.391424,-316.21053)"
     id="layer1">
    <g
       transform="matrix(7.5101946,0,0,7.5101946,-1659.2156,-6008.0133)"
       id="g5504">
      <path
         d="m 272.19856,854.02674 0,-11.37875 -0.095,0 -5.19125,0 0,11.37875 c -0.007,0.73375 -0.69,1.33 -1.50125,1.33 l -10.87125,0 0,5.1775 10.87125,0 c 3.745,-0.015 6.7875,-2.935 6.7875,-6.5075"
         id="path3162"
         style="fill:#bd112a;fill-opacity:1;fill-rule:nonzero;stroke:none" />
      <path
         d="m 287.33856,858.36424 -10.79125,0 c -3.74125,0.01 -6.785,2.9325 -6.785,6.50375 l 0,11.38625 5.28625,0 0,-11.38625 c 0.01,-0.73 0.685,-1.325 1.50625,-1.325 l 10.865,0 0,-5.17875 -0.0813,0"
         id="path3164"
         style="fill:#bd112a;fill-opacity:1;fill-rule:nonzero;stroke:none" />
      <path
         d="m 316.72981,860.35799 c -1.29125,-1.2975 -3.03375,-2.00875 -4.91,-2.00875 l -18.995,0 -0.0863,0 0,5.16375 19.08125,0 c 0.82875,0.015 1.4925,0.615 1.4925,1.3375 l 0.0137,7.91375 c -0.0137,0.73125 -0.685,1.3325 -1.51125,1.3325 l -22.13875,0 0,5.17875 22.14375,0 c 3.74375,-0.0213 6.78875,-2.9375 6.78875,-6.51125 l 0,-7.91375 c 0.005,-1.67625 -0.66,-3.27125 -1.87875,-4.4925"
         id="path3166"
         style="fill:#373638;fill-opacity:1;fill-rule:nonzero;stroke:none" />
      <path
         d="m 292.71731,849.05799 c 0.002,-0.7175 0.6825,-1.2975 1.505,-1.2975 l 21.45,0 0,-5.21375 -0.0875,0 -21.36875,0 c -3.7425,0.01 -6.78875,2.9275 -6.78875,6.50625 l 0,9.31125 5.29,0 0,-9.30625"
         id="path3168"
         style="fill:#373638;fill-opacity:1;fill-rule:nonzero;stroke:none" />
      <path
         d="m 249.39481,872.89049 c -0.0125,0.7775 -0.7325,1.41875 -1.60875,1.41875 l -18.36625,0 0,-21.44625 -5.17125,0 0,26.4575 23.55375,0 c 3.695,-0.02 6.695,-2.8975 6.695,-6.425 l 0,-12.335 -5.11125,0 0.009,12.33"
         id="path3170"
         style="fill:#373638;fill-opacity:1;fill-rule:nonzero;stroke:none" />
      <path
         d="m 247.80231,842.62674 -23.55375,0 0,4.9875 23.55375,0.005 c 0.865,0.005 1.57875,0.64625 1.57875,1.4225 0,0 0.001,3.82625 0.001,6.28875 l 5.115,0 0,-6.28875 c 0.004,-3.5375 -3,-6.415 -6.695,-6.415"
         id="path3172"
         style="fill:#373638;fill-opacity:1;fill-rule:nonzero;stroke:none" />
    </g>
  </g>
</svg>
