<?xml version="1.0" encoding="UTF-8" standalone="no"?>
<!-- Created with Inkscape (http://www.inkscape.org/) -->

<svg
   xmlns:dc="http://purl.org/dc/elements/1.1/"
   xmlns:cc="http://creativecommons.org/ns#"
   xmlns:rdf="http://www.w3.org/1999/02/22-rdf-syntax-ns#"
   xmlns:svg="http://www.w3.org/2000/svg"
   xmlns="http://www.w3.org/2000/svg"
   version="1.1"
   width="685"
   height="685"
   id="svg4178">
  <defs
     id="defs4180">
    <clipPath
       id="clipPath3043">
      <path
         d="m 0,0 595.275,0 0,841.887 L 0,841.887 0,0 z"
         id="path3045" />
    </clipPath>
    <clipPath
       id="clipPath3055">
      <path
         d="m 43.461,642.42 c 0,-49.914 40.464,-90.369 90.369,-90.369 l 0,0 c 49.914,0 90.369,40.455 90.369,90.369 l 0,0 c 0,49.905 -40.455,90.369 -90.369,90.369 l 0,0 c -49.905,0 -90.369,-40.464 -90.369,-90.369"
         id="path3057" />
    </clipPath>
    <clipPath
       id="clipPath3065">
      <path
         d="m 0,0 595.275,0 0,841.887 L 0,841.887 0,0 z"
         id="path3067" />
    </clipPath>
  </defs>
  <metadata
     id="metadata4183">
    <rdf:RDF>
      <cc:Work
         rdf:about="">
        <dc:format>image/svg+xml</dc:format>
        <dc:type
           rdf:resource="http://purl.org/dc/dcmitype/StillImage" />
        <dc:title></dc:title>
      </cc:Work>
    </rdf:RDF>
  </metadata>
  <g
     transform="translate(0,-83)"
     id="layer1">
    <g
       transform="matrix(3.75,0,0,-3.75,-159.87413,2835.0683)"
       id="g4089">
      <g
         id="g3039">
        <g
           clip-path="url(#clipPath3043)"
           id="g3041">
          <g
             transform="translate(43.4646,642.4164)"
             id="g3047">
            <path
               d="m 0,0 c 0,49.91 40.459,90.369 90.369,90.369 49.91,0 90.368,-40.459 90.368,-90.369 0,-49.91 -40.458,-90.369 -90.368,-90.369 C 40.459,-90.369 0,-49.91 0,0"
               id="path3049"
               style="fill:#bdd018;fill-opacity:1;fill-rule:nonzero;stroke:none" />
          </g>
        </g>
      </g>
      <g
         id="g3051">
        <g
           clip-path="url(#clipPath3055)"
           id="g3053">
          <path
             d="m 183.631,662.419 -5.425,0 0,75.146 5.425,0 0,-75.146 z"
             id="path3059"
             style="fill:#ffffff;fill-opacity:1;fill-rule:nonzero;stroke:none" />
        </g>
      </g>
      <g
         id="g3061">
        <g
           clip-path="url(#clipPath3065)"
           id="g3063">
          <path
             d="m 59.619,622.908 148.429,0 0,-1.531 -148.429,0 0,1.531 z"
             id="path3069"
             style="fill:#563938;fill-opacity:1;fill-rule:nonzero;stroke:none" />
          <g
             transform="translate(186.034,642.8002)"
             id="g3071">
            <path
               d="M 0,0 0,-1.384 C 0,-8.59 2.774,-13.84 11.984,-13.84 c 7.11,0 12.108,4.259 12.108,12.311 0,5.66 -1.811,9.105 -7.142,11.218 l -5.088,2.04 c -2.818,1.092 -3.678,2.794 -3.678,4.688 0,2.769 1.615,4.326 3.883,4.326 2.758,0 3.757,-2.167 3.757,-6.101 l 7.381,0 0,1.603 c 0,6.839 -3.854,11.145 -10.975,11.145 -8.703,0 -11.984,-5.536 -11.984,-11.801 0,-5.536 2.423,-8.692 7.082,-10.658 l 5.944,-2.55 c 1.655,-0.728 2.88,-2.262 2.88,-4.812 0,-3.132 -1.716,-4.762 -4.29,-4.762 -3.089,0 -4.413,2.358 -4.413,5.782 L 7.449,0 0,0 z"
               id="path3073"
               style="fill:#563938;fill-opacity:1;fill-rule:nonzero;stroke:none" />
          </g>
          <g
             transform="translate(175.1771,659.0289)"
             id="g3075">
            <path
               d="m 0,0 0,-29.049 -8.391,0 0,28.642 c 0,2.835 -1.81,4.212 -4.044,4.212 -2.234,0 -4.044,-1.377 -4.044,-4.212 l 0,-28.642 -8.391,0 0,28.882 c 0,6.903 5.53,11.328 12.435,11.328 C -5.53,11.161 0,6.905 0,0"
               id="path3077"
               style="fill:#563938;fill-opacity:1;fill-rule:nonzero;stroke:none" />
          </g>
          <g
             transform="translate(144.2487,659.0289)"
             id="g3079">
            <path
               d="m 0,0 0,-29.049 -8.391,0 0,28.642 c 0,2.836 -1.811,4.212 -4.044,4.212 -2.234,0 -4.045,-1.376 -4.045,-4.212 l 0,-28.642 -8.39,0 0,28.882 c 0,6.903 5.53,11.328 12.435,11.328 C -5.53,11.161 0,6.905 0,0"
               id="path3081"
               style="fill:#563938;fill-opacity:1;fill-rule:nonzero;stroke:none" />
          </g>
          <g
             transform="translate(114.3687,647.9113)"
             id="g3083">
            <path
               d="m 0,0 0,2.393 c 0,12.019 -2.206,19.886 -12.072,19.886 -11.4,0 -13.116,-9.761 -13.116,-20.251 0,-9.761 0.49,-20.979 12.747,-20.979 7.967,0 11.644,5.099 11.951,14.205 l -7.6,0 c -0.49,-4.808 -1.654,-7.358 -4.473,-7.358 -3.126,0 -4.168,4.517 -4.168,9.106 L -16.731,0 0,0 z m -16.731,6.242 c 0.051,5.754 1.141,9.189 4.352,9.189 3.493,0 4.176,-3.328 4.289,-9.189 l -8.641,0 z"
               id="path3085"
               style="fill:#563938;fill-opacity:1;fill-rule:nonzero;stroke:none" />
          </g>
          <g
             transform="translate(66.6674,649.5751)"
             id="g3087">
            <path
               d="M 0,0 C 0,8.242 0.846,12.994 4.412,12.994 8.019,12.994 8.886,8.266 8.886,0 8.886,-8.523 8.151,-13.514 4.412,-13.514 0.735,-13.514 0,-8.523 0,0 m 17.342,0.001 0.001,32.415 -8.39,0 0,-13.725 c 0,0 -1.893,1.924 -5.958,1.924 -7.497,0 -11.453,-5.676 -11.453,-20.615 0,-14.049 3.23,-20.615 12.87,-20.615 9.707,0 12.93,6.566 12.93,20.616"
               id="path3089"
               style="fill:#563938;fill-opacity:1;fill-rule:nonzero;stroke:none" />
          </g>
          <g
             transform="translate(208.0478,615.1422)"
             id="g3091">
            <path
               d="m 0,0 0,-1.114 -4.561,0 0,-8.781 -1.276,0 0,8.781 -4.562,0 0,1.114 L 0,0 z"
               id="path3093"
               style="fill:#563938;fill-opacity:1;fill-rule:nonzero;stroke:none" />
          </g>
          <g
             transform="translate(190.1828,610.9183)"
             id="g3095">
            <path
               d="m 0,0 c 3.712,0 4.731,-0.88 4.731,-4.126 l 0,-1.545 -1.278,0 0,1.545 C 3.453,-1.76 2.71,-1.114 0,-1.114 l -4.885,0 0,-4.557 -1.26,0 0,9.895 1.26,0 0,-4.224 1.83,0 5.955,4.224 2.003,0 L -1.035,0 0,0 z"
               id="path3097"
               style="fill:#563938;fill-opacity:1;fill-rule:nonzero;stroke:none" />
          </g>
          <g
             transform="translate(144.5539,615.1422)"
             id="g3099">
            <path
               d="m 0,0 1.64,0 0,-9.895 -1.278,0 0,8.135 -4.919,-8.135 -1.433,0 -4.937,8.135 0,-8.135 -1.26,0 0,9.895 1.64,0 5.265,-8.702 L 0,0 z"
               id="path3101"
               style="fill:#563938;fill-opacity:1;fill-rule:nonzero;stroke:none" />
          </g>
          <path
             d="m 107.584,615.118 1.26,0 0,-9.895 -1.26,0 0,9.895 z"
             id="path3103"
             style="fill:#563938;fill-opacity:1;fill-rule:nonzero;stroke:none" />
          <g
             transform="translate(176.9915,609.9992)"
             id="g3105">
            <path
               d="m 0,0 c 0.934,-0.41 1.244,-1.173 1.244,-2.444 l 0,-2.308 -1.278,0 0,2.308 c 0,1.838 -0.742,1.799 -3.452,1.799 l -4.885,0 0,-4.107 -1.26,0 0,9.895 5.764,0 c 3.729,0 4.748,-0.606 4.748,-2.894 C 0.881,1.154 0.64,0.45 0,0 m -8.371,0.47 4.504,0 c 2.729,0 3.472,-0.059 3.472,1.779 0,1.408 -0.743,1.78 -3.472,1.78 l -4.504,0 0,-3.559 z"
               id="path3107"
               style="fill:#563938;fill-opacity:1;fill-rule:nonzero;stroke:none" />
          </g>
          <g
             transform="translate(157.4761,615.1422)"
             id="g3109">
            <path
               d="m 0,0 5.576,-9.895 -1.416,0 -1.762,3.129 -6.196,0 -1.762,-3.129 -1.414,0 L -1.416,0 0,0 z m -3.176,-5.651 4.954,0 -2.487,4.4 -2.467,-4.4 z"
               id="path3111"
               style="fill:#563938;fill-opacity:1;fill-rule:nonzero;stroke:none" />
          </g>
          <g
             transform="translate(121.5422,615.2555)"
             id="g3113">
            <path
               d="m 0,0 c 3.729,0 4.73,-0.878 4.73,-4.118 l 0,-1.952 c 0,-3.239 -1.001,-4.118 -4.73,-4.118 l -1.778,0 c -3.729,0 -4.73,0.879 -4.73,4.118 l 0,1.952 c 0,3.24 1.001,4.118 4.73,4.118 L 0,0 z m 3.47,-6.07 0,1.952 c 0,2.381 -0.742,3.025 -3.47,3.025 l -1.778,0 c -2.728,0 -3.452,-0.644 -3.452,-3.025 l 0,-1.952 c 0,-2.361 0.724,-3.005 3.452,-3.005 l 1.778,0 c 2.728,0 3.47,0.644 3.47,3.005"
               id="path3115"
               style="fill:#563938;fill-opacity:1;fill-rule:nonzero;stroke:none" />
          </g>
          <g
             transform="translate(99.9384,612.4592)"
             id="g3117">
            <path
               d="m 0,0 c 0,1.213 -0.725,1.545 -3.452,1.545 l -4.333,0 0,-3.11 4.902,0 C -0.621,-1.565 0,-1.545 0,0 m -2.9,-6.121 c 2.71,0 3.452,0.352 3.452,1.721 0,1.779 -0.742,1.721 -3.452,1.721 l -4.885,0 0,-3.442 4.885,0 z m 3.435,4.126 C 1.502,-2.386 1.83,-3.129 1.83,-4.4 1.83,-6.629 0.811,-7.235 -2.9,-7.235 l -6.145,0 0,9.894 5.593,0 c 3.728,0 4.73,-0.567 4.73,-2.659 0,-0.938 -0.208,-1.584 -0.743,-1.995"
               id="path3119"
               style="fill:#563938;fill-opacity:1;fill-rule:nonzero;stroke:none" />
          </g>
        </g>
      </g>
    </g>
  </g>
</svg>
