<?xml version="1.0" encoding="UTF-8" standalone="no"?>
<svg
   xmlns:svg="http://www.w3.org/2000/svg"
   xmlns="http://www.w3.org/2000/svg"
   version="1.1"
   width="543.15021"
   height="214.63289"
   id="svg3577">
  <defs
     id="defs3579" />
  <path
     d="m 435.82748,5 c -56.41823,0 -102.31644,45.90447 -102.31644,102.31645 0,56.41824 45.89821,102.31644 102.31644,102.31644 56.41824,0 102.32272,-45.8982 102.32272,-102.31644 C 538.1502,50.90447 492.24572,5 435.82749,5"
     id="path174"
     style="fill:#fbb900;fill-opacity:1;fill-rule:nonzero;stroke:none" />
  <path
     d="M 271.59014,5 C 215.1719,5 169.2737,50.90447 169.2737,107.31645 c 0,56.41824 45.8982,102.31644 102.31644,102.31644 56.41825,0 102.32272,-45.8982 102.32272,-102.31644 C 373.91286,50.90447 328.00839,5 271.59014,5"
     id="path178"
     style="fill:#f39100;fill-opacity:1;fill-rule:nonzero;stroke:none" />
  <path
     d="M 107.31645,5 C 50.898206,5 5,50.90447 5,107.31645 c 0,56.41824 45.898206,102.31644 102.31645,102.31644 56.41824,0 102.31644,-45.8982 102.31644,-102.31644 C 209.63289,50.90447 163.73469,5 107.31645,5"
     id="path182"
     style="fill:#ec6504;fill-opacity:1;fill-rule:nonzero;stroke:none" />
  <path
     d="m 315.85642,159.51601 c -2.11905,2.13787 -4.93401,3.31651 -7.93077,3.31651 -3.00304,0 -5.82425,-1.17237 -7.93705,-3.31024 -4.35095,-4.40738 -4.35095,-11.56702 -0.0125,-15.96813 l 86.17275,-87.25738 c 2.1128,-2.14412 4.92775,-3.32277 7.91199,-3.32277 1.46703,0 3.19738,0.28212 4.58292,0.86517 4.13153,1.73663 6.80855,5.83054 6.80855,10.43226 l 0,59.96673 67.4461,-67.94765 c 2.08144,-2.10653 5.02179,-3.31651 8.0499,-3.31651 1.56735,0 3.2162,0.31346 4.5265,0.86517 4.40738,1.84948 6.97783,6.04369 6.97783,10.43226 l 0,87.25738 c 0,6.11893 -4.70205,11.29117 -10.94009,11.29117 -6.22551,0 -11.48552,-5.17224 -11.48552,-11.29117 l 0,-60.49335 -67.97273,68.46802 c -2.11278,2.14413 -4.92775,3.3165 -7.91825,3.3165 -1.46076,0 -2.90272,-0.28839 -4.26317,-0.8589 -4.15034,-1.74289 -6.82738,-5.84308 -6.82738,-10.43227 l 0,-60.20495 -67.18905,68.19215 z M 73.715651,107.30202 c 0,-18.70786 15.222079,-33.92994 33.923669,-33.92994 5.94338,0 11.66107,1.52347 16.74554,4.43247 l -46.080015,46.52514 c -3.015576,-5.15971 -4.589194,-10.9777 -4.589194,-17.02767 m 81.031869,-3.19112 c -0.80875,-0.18182 -1.63631,-0.26958 -2.4576,-0.26958 -5.32272,0 -10.01849,3.79298 -11.17833,9.02165 -0.0314,0.1442 -0.0502,0.28213 -0.0878,0.48902 -2.91526,16.15622 -16.95869,27.8737 -33.38449,27.8737 -4.25066,0 -8.463685,-0.80875 -12.407135,-2.35102 L 149.50003,84.58802 c 2.11279,-2.12532 3.2789,-4.96536 3.2789,-7.99347 0,-2.81495 -1.20373,-5.51079 -3.49832,-7.79913 -10.70185,-11.57328 -25.88005,-18.21257 -41.64129,-18.21257 -31.27172,0 -56.712905,25.44746 -56.712905,56.71918 0,31.27171 25.441185,56.71917 56.712905,56.71917 27.14019,0 50.53755,-19.29092 55.68472,-45.87312 0.0251,-0.11913 0.0627,-0.23198 0.0815,-0.34483 0.10031,-0.43259 0.16928,-0.87771 0.21943,-1.39807 l 0.006,-0.0815 c 0.52663,-5.53588 -3.4607,-11.01532 -8.88372,-12.21278 m 83.02365,55.16186 c -1.97486,1.96859 -4.63935,3.56729 -7.62985,3.56729 -1.42942,0 -2.7021,-0.26959 -4.12526,-0.85891 -4.06256,-1.6802 -6.58286,-5.68634 -6.58286,-10.4448 l 0,-87.27618 c 0,-6.33836 5.17225,-11.30371 11.36014,-11.30371 6.18162,0 11.02786,4.96535 11.02786,11.30371 l 0,59.1705 67.27682,-67.16398 c 2.09398,-2.10651 5.05314,-3.30397 8.10634,-3.30397 3.01557,0 5.85559,1.17865 7.98719,3.30397 2.13786,2.14413 3.30396,4.97163 3.30396,7.99348 0,3.04691 -1.80556,5.98099 -3.51085,7.73015 l -87.21349,87.28245 z"
     id="path194"
     style="fill:#ffffff;fill-opacity:1;fill-rule:nonzero;stroke:none" />
</svg>
