<?xml version="1.0" encoding="utf-8"?>
<!-- Generator: Adobe Illustrator 14.0.0, SVG Export Plug-In . SVG Version: 6.00 Build 43363)  -->
<!DOCTYPE svg PUBLIC "-//W3C//DTD SVG 1.1//EN" "http://www.w3.org/Graphics/SVG/1.1/DTD/svg11.dtd">
<svg version="1.1" id="Ebene_1" xmlns="http://www.w3.org/2000/svg" xmlns:xlink="http://www.w3.org/1999/xlink" x="0px" y="0px"
	 width="1024px" height="521px" viewBox="0 0 1024 521" enable-background="new 0 0 1024 521" xml:space="preserve">
<polygon points="854.423,248.44 895.187,248.44 920.179,175.384 916.926,248.44 947.519,248.44 977.655,176.069 967.979,248.44 
	1005.315,248.44 1024.148,103.113 975.91,103.113 953.139,173.821 953.147,103.122 911.096,103.122 "/>
<path fill="#009EE0" d="M1001.167,267.228C957.68,412.473,777.583,521.322,562.031,521.322c-119.12,0-227.348-33.134-307.761-87.513
	l0.302-1.653c67.711,43.084,165.96,65.828,272.544,56.489c175.034-15.187,312.476-111.308,325.826-221.573L1001.167,267.228z"/>
<path d="M287.815,238.288c-0.146,1.654-0.457,3.765-0.758,5.272h-19.948h-20.551c3.628-14.611,10.737-23.95,20.551-26.061
	c1.371-0.302,2.869-0.448,4.395-0.448C282.991,217.052,288.272,226.546,287.815,238.288z M274.685,178.49
	c-2.422,0-5.008,0.155-7.575,0.448c-28.875,3.765-65.445,29.223-68.616,95.499c0,0.311,0,0.457,0,0.603v10.546
	c1.499,33.143,17.837,58.445,56.079,58.445c4.514,0,8.599-0.293,12.537-0.75c40.964-5.729,50.34-39.311,53.52-48.96h-43.853
	c-1.654,3.473-4.815,7.237-9.667,9.348c-2.413,1.206-5.437,1.801-8.763,1.801c-14.355,0-17.983-14.009-17.243-30.722h26.006h59.258
	c2.559-9.641,3.162-18.824,3.628-27.268c0-0.155,0-0.301,0-0.456v-9.339C328.031,195.368,299.466,178.49,274.685,178.49z"/>
<path d="M732.689,307.58c-1.818,0.612-3.938,0.904-6.031,0.904c-7.265,0-14.228-2.714-13.624-13.56
	c0.447-11.597,7.703-16.723,15.26-17.618c1.526-0.155,2.869-0.302,4.396-0.612c6.808-0.904,13.597-2.403,19.637-6.314
	C749.155,290.255,743.728,304.117,732.689,307.58z M749.155,178.646c-5.583,0-11.185,0.438-16.466,1.344
	c-21.318,3.773-38.699,16.722-45.799,50.321h42.016c0.914-3.618,2.257-6.634,3.783-8.891c3.481-5.126,8.616-7.237,14.821-7.237
	c6.799,0,13.907,2.714,13.451,13.716c-0.914,16.713-16.037,17.17-28.272,17.773c-1.965,0.155-3.783,0.155-5.446,0.301
	c-33.865,3.464-57.432,14.612-59.405,56.18c0,0.155,0,0.311,0,0.447v5.739c1.061,25.448,17.39,35.692,36.131,35.692
	c9.221,0,20.095-4.066,28.721-10.838c3.627-2.869,6.808-6.332,9.375-10.106l-0.612,1.818l-3.773,15.215h43.679
	c0,0,21.775-112.075,22.826-119.604c0-0.155,0-0.302,0.146-0.448v-12.053C800.107,181.652,767.751,178.646,749.155,178.646z"/>
<path fill="#009EE0" d="M756.877,90.073c-67.729-43.085-165.988-65.838-272.563-56.49
	C293.417,50.15,147.239,162.966,157.967,285.439c1.672,19.28,7.109,37.501,15.881,54.681H0.907
	c-0.448-5.721-0.758-11.459-0.758-17.18c0-177.895,201.214-322.198,449.25-322.198c119.129,0,227.349,33.289,307.78,87.668
	L756.877,90.073z"/>
<path d="M325.911,340.12h45.643l17.389-83.602c3.628-16.266,9.083-29.973,23.585-29.973c7.383,0,12.692,5.108,12.253,15.206
	l-20.268,98.368h45.652l24.343-118.855c1.334-31.032-16.768-42.774-37.785-42.774c-14.52,0-28.885,9.787-38.26,23.95h-0.438
	l4.359-20.039h-43.962L325.911,340.12z"/>
<polygon points="617.352,182.401 569.881,182.401 532.553,271.732 532.087,271.732 531.63,182.401 485.85,182.401 492.347,340.12 
	545.995,340.12 "/>
<polygon points="597.404,340.12 643.047,340.12 675.377,182.401 629.889,182.401 "/>
<polygon points="687.493,123.207 641.832,123.207 633.206,165.387 678.858,165.387 "/>
</svg>
