<?xml version="1.0" encoding="utf-8"?>
<!-- Generator: Adobe Illustrator 14.0.0, SVG Export Plug-In . SVG Version: 6.00 Build 43363)  -->
<!DOCTYPE svg PUBLIC "-//W3C//DTD SVG 1.1//EN" "http://www.w3.org/Graphics/SVG/1.1/DTD/svg11.dtd">
<svg version="1.1" id="Ebene_1" xmlns="http://www.w3.org/2000/svg" xmlns:xlink="http://www.w3.org/1999/xlink" x="0px" y="0px"
	 width="1024px" height="437px" viewBox="0 0 1024 437" enable-background="new 0 0 1024 437" xml:space="preserve">
<path fill="#004494" d="M108.097,164.067C130.39,98.96,192.628,52.093,265.934,52.093c73.294,0,135.545,46.867,157.838,111.974
	h12.894C410.422,69.81,322.462,0.493,217.972,0.493C113.494,0.493,25.534,69.81-0.715,164.067H108.097"/>
<path fill="none" stroke="#004494" stroke-width="0.402" d="M108.097,164.067C130.39,98.96,192.628,52.093,265.934,52.093
	c73.294,0,135.545,46.867,157.838,111.974h12.894C410.422,69.81,322.462,0.493,217.972,0.493
	C113.494,0.493,25.534,69.81-0.715,164.067H108.097z"/>
<path fill="#E2001A" d="M328.876,273.42c-22.293,65.119-84.544,111.974-157.824,111.974c-73.307,0-135.544-46.854-157.837-111.974
	H0.301C26.564,367.702,114.523,437,219.001,437c104.491,0,192.438-69.298,218.7-163.58H328.876"/>
<path fill="none" stroke="#E2001A" stroke-width="0.228" d="M328.876,273.42c-22.293,65.119-84.544,111.974-157.824,111.974
	c-73.307,0-135.544-46.854-157.837-111.974H0.301C26.564,367.702,114.523,437,219.001,437c104.491,0,192.438-69.298,218.7-163.58
	H328.876z"/>
<polyline points="175.367,177.716 261.267,177.716 250.264,196.32 188.482,196.32 180.816,209.278 239.352,209.278 229.496,225.966 
	170.947,225.966 163.308,238.911 226.498,238.911 215.129,258.153 127.835,258.153 175.367,177.716 "/>
<path d="M275.686,177.716h24.092l-27.469,46.49c-6.049,10.233-4.85,14.236,5.02,14.236h23.818c9.869,0,15.813-4.003,21.863-14.236
	l27.469-46.49h24.111l-30.644,51.822c-11.824,19.998-27.56,29.541-49.696,29.541h-34.443c-22.137,0-26.582-9.543-14.758-29.541
	L275.686,177.716"/>
<path d="M608.044,205.889c13.95-23.597,30.128-29.125,51.796-29.125h36.138c27.325,0,25.188,10.064,15.905,25.761l-1.525,2.582
	h-23.662c4.771-8.083,0.926-9.1-6.753-9.1h-26.061c-12.111,0-17.039,3.025-25.266,16.948l-5.932,10.012
	c-8.174,13.858-6.831,16.896,5.28,16.896h25.63c6.271,0,13.154-1.018,17.796-8.865l1.395-2.347h-29.867l9.869-16.687h53.959
	l-13.584,22.958c-13.624,23.063-26.021,24.171-53.1,24.171h-28.877c-21.667,0-31.314-5.528-17.378-29.099L608.044,205.889"/>
<polyline points="832.683,177.729 924.41,177.729 912.599,197.728 878.781,197.728 843.06,258.153 818.955,258.153 854.676,197.728 
	820.857,197.728 832.683,177.729 "/>
<polyline points="937.395,177.716 1023.281,177.716 1012.278,196.32 950.496,196.32 942.844,209.278 1001.366,209.278 
	991.511,225.966 932.975,225.966 925.322,238.911 988.512,238.911 977.144,258.153 889.849,258.153 937.395,177.716 "/>
<path d="M446.677,206.189l-1.584,2.672c-3.422,5.775-7.379,8.448-13.877,8.448h-39.724l11.583-19.581h37.56
	C448.216,197.728,450.895,199.058,446.677,206.189 M463.396,177.729h-72.608l-47.546,80.424h24.105l12.32-20.846h37.78
	c7.477,0,8.214,2.777,3.233,11.199l-5.684,9.646h24.099l8.057-13.636c7.77-13.129,3.695-16.349-2.68-17.691l0.131-0.222
	c12.646-2.673,18.792-9.021,25.193-19.842l3.019-5.123C481.375,187.168,481.968,177.729,463.396,177.729z"/>
<path d="M781.2,226.617h-30.768l33.088-30.297L781.2,226.617 M778.905,177.716l-90.032,80.437h26.882l15.448-14.21h48.758
	l-0.912,14.21h26.777l4.406-80.437H778.905z"/>
<path d="M563.393,213.581l-5.136,8.696c-6.923,11.707-11.942,16.166-23.311,16.166h-30.757c-11.375,0-11.121-4.459-4.198-16.166
	l5.137-8.696c5.932-10.038,11.941-16.166,24.604-16.166h28.16C570.576,197.415,569.338,203.542,563.393,213.581 M575.296,176.765
	h-38.563c-21.677,0-37.862,5.554-51.799,29.137l-14.242,24.066c-13.917,23.571-4.289,29.111,17.391,29.111h38.56
	c21.693,0,37.886-5.54,51.809-29.111l14.236-24.066C606.623,182.318,596.976,176.765,575.296,176.765z"/>
</svg>
