<svg height="129" viewBox="0 0 904.99676 129" width="904.99677" xmlns="http://www.w3.org/2000/svg">
  <g fill="#f39d00">
    <path d="m0 0s-2.71 19.711-17.226 19.711c-14.137 0-21.621-19.711-21.621-19.711h.042 4.479c.12.511 3.014 12.531 9.778 12.531 6.946 0 9.103-12.02 9.191-12.531z" transform="matrix(5.37345506566 0 0 -5.37345506566 208.7426084481 128.08436002289)"/>
    <path d="m0 0v8.924c0 1.241-.108 2.228-.323 2.963-.215.734-.614 1.443-1.196 2.126-.659.785-1.443 1.386-2.355 1.804-.911.418-1.898.627-2.962.627-1.063 0-2.057-.216-2.981-.646-.924-.431-1.703-1.051-2.335-1.861-.532-.658-.918-1.354-1.159-2.088-.241-.735-.361-1.621-.361-2.659v-9.19h3.722v8.127c0 .911.044 1.601.133 2.07.089.468.247.892.475 1.272.253.405.613.727 1.082.968.468.241.955.361 1.462.361.506 0 .988-.127 1.443-.38.456-.253.798-.582 1.026-.987s.385-.868.474-1.386c.089-.519.133-1.248.133-2.184v-7.861z" transform="matrix(5.37345506566 0 0 -5.37345506566 537.5958935601 127.77484936396)"/>
    <path d="m0 0h-4.519l-3.984-4.405c-.265-.425-1.853-1.99-2.868-3.019v14.987h-3.721v-23.779h3.721v3.222l2.362 2.671s.089-.12.393-.576l3.645-5.317h4.633l-6.19 8.621z" transform="matrix(5.37345506566 0 0 -5.37345506566 633.52229116194 40.63943820901)"/>
    <path d="m0 0v6.57c0 .81-.019 1.512-.057 2.108-.038.594-.108 1.126-.209 1.595-.101.468-.234.892-.399 1.272s-.373.772-.626 1.177c-.735 1.139-1.728 2.044-2.981 2.715-1.254.671-2.577 1.007-3.969 1.007-1.139 0-2.221-.222-3.247-.665-1.025-.443-1.918-1.044-2.677-1.804-.76-.759-1.361-1.646-1.804-2.658-.443-1.013-.665-2.089-.665-3.228s.222-2.209.665-3.209 1.031-1.88 1.766-2.639c.734-.76 1.595-1.362 2.582-1.804.988-.443 2.038-.665 3.152-.665 1.671 0 3.253.57 4.747 1.709v-1.481zm-3.57 7.975c0-.659-.12-1.26-.361-1.804-.24-.545-.569-1.025-.987-1.443s-.911-.741-1.481-.968c-.57-.228-1.171-.342-1.804-.342-.659 0-1.279.12-1.861.361-.582.24-1.082.569-1.5.987s-.747.911-.987 1.481c-.241.57-.361 1.183-.361 1.842 0 .658.12 1.278.361 1.861.24.582.575 1.082 1.006 1.5.43.418.937.746 1.519.987s1.202.361 1.861.361c.658 0 1.266-.12 1.823-.361s1.044-.582 1.462-1.025.741-.956.968-1.538c.228-.583.342-1.215.342-1.899" transform="matrix(5.37345506566 0 0 -5.37345506566 718.86348902841 127.77484936396)"/>
    <path d="m0 0v8.924c0 1.241-.108 2.228-.323 2.963-.215.734-.614 1.443-1.196 2.126-.659.785-1.443 1.386-2.355 1.804-.911.418-1.898.627-2.962.627-1.063 0-2.057-.216-2.981-.646-.924-.431-1.703-1.051-2.335-1.861-.532-.658-.918-1.354-1.159-2.088-.241-.735-.36-1.621-.36-2.659v-9.19h3.721v8.127c0 .911.044 1.601.133 2.07.089.468.247.892.475 1.272.253.405.613.727 1.082.968.468.241.955.361 1.462.361.506 0 .988-.127 1.443-.38.456-.253.798-.582 1.026-.987s.385-.868.474-1.386c.089-.519.133-1.248.133-2.184v-7.861z" transform="matrix(5.37345506566 0 0 -5.37345506566 805.95163351788 127.77484936396)"/>
    <path d="m0 0v6.57c0 .81-.019 1.512-.057 2.108-.038.594-.108 1.126-.209 1.595-.101.468-.234.892-.399 1.272s-.373.772-.626 1.177c-.735 1.139-1.728 2.044-2.981 2.715-1.254.671-2.577 1.007-3.969 1.007-1.139 0-2.222-.222-3.247-.665s-1.918-1.044-2.677-1.804c-.76-.759-1.361-1.646-1.804-2.658-.443-1.013-.665-2.089-.665-3.228s.222-2.209.665-3.209 1.031-1.88 1.766-2.639c.734-.76 1.595-1.362 2.582-1.804.988-.443 2.038-.665 3.152-.665 1.671 0 3.253.57 4.747 1.709v-1.481zm-3.57 7.975c0-.659-.12-1.26-.361-1.804-.24-.545-.569-1.025-.987-1.443s-.911-.741-1.481-.968c-.57-.228-1.171-.342-1.804-.342-.659 0-1.279.12-1.861.361-.582.24-1.082.569-1.5.987s-.747.911-.987 1.481c-.241.57-.361 1.183-.361 1.842 0 .658.12 1.278.361 1.861.24.582.575 1.082 1.006 1.5.43.418.937.746 1.519.987s1.202.361 1.861.361c.658 0 1.266-.12 1.823-.361s1.044-.582 1.462-1.025.741-.956.968-1.538c.228-.583.342-1.215.342-1.899" transform="matrix(5.37345506566 0 0 -5.37345506566 904.99676437508 127.77484936396)"/>
    <path d="m0 0v9.051h7.684v3.936h-7.692s.008.259.008 3.062c0 1.309.889 2.036 2.777 2.06 3.046.038 6.567.057 6.567.057v4.111h-6.885c-1.215 0-2.972-.24-4.654-1.632-1.233-1.167-1.603-2.509-1.682-3.31-.059-.961-.13-1.858-.13-3.478l-.018-13.857z" transform="matrix(5.37345506566 0 0 -5.37345506566 259.17355385399 128.10961602226)"/>
    <path d="m0 0v8.545c0 .784.057 1.43.171 1.937.114.506.304.917.57 1.234.265.316.626.55 1.082.702s1.911.439 3.021.259v3.712c-.203.025-1.654-.021-1.806-.021h-.38c-2.05 0-3.626-.583-4.728-1.747-1.101-1.165-1.652-2.861-1.652-5.089v-9.532z" transform="matrix(5.37345506566 0 0 -5.37345506566 333.00373867491 127.77484936396)"/>
    <path d="m0 0v6.57c0 .81-.019 1.512-.057 2.108-.038.594-.108 1.126-.209 1.595-.101.468-.234.892-.399 1.272s-.373.772-.626 1.177c-.735 1.139-1.728 2.044-2.981 2.715-1.254.671-2.577 1.007-3.969 1.007-1.139 0-2.221-.222-3.247-.665-1.025-.443-1.918-1.044-2.677-1.804-.76-.759-1.361-1.646-1.804-2.658-.443-1.013-.665-2.089-.665-3.228s.222-2.209.665-3.209 1.031-1.88 1.766-2.639c.734-.76 1.595-1.362 2.582-1.804.988-.443 2.038-.665 3.152-.665 1.671 0 3.253.57 4.747 1.709v-1.481zm-3.57 7.975c0-.659-.12-1.26-.361-1.804-.24-.545-.569-1.025-.987-1.443s-.911-.741-1.481-.968c-.57-.228-1.171-.342-1.804-.342-.659 0-1.279.12-1.861.361-.582.24-1.082.569-1.5.987s-.747.911-.987 1.481c-.241.57-.361 1.183-.361 1.842 0 .658.12 1.278.361 1.861.24.582.575 1.082 1.006 1.5.43.418.937.746 1.519.987s1.202.361 1.861.361c.658 0 1.266-.12 1.823-.361s1.044-.582 1.462-1.025.741-.956.968-1.538c.228-.583.342-1.215.342-1.899" transform="matrix(5.37345506566 0 0 -5.37345506566 451.78128237213 127.77484936396)"/>
  </g>
</svg>
