<?xml version="1.0" encoding="UTF-8" standalone="no"?>
<!-- Created with Inkscape (http://www.inkscape.org/) -->

<svg
   xmlns:dc="http://purl.org/dc/elements/1.1/"
   xmlns:cc="http://creativecommons.org/ns#"
   xmlns:rdf="http://www.w3.org/1999/02/22-rdf-syntax-ns#"
   xmlns:svg="http://www.w3.org/2000/svg"
   xmlns="http://www.w3.org/2000/svg"
   xmlns:sodipodi="http://sodipodi.sourceforge.net/DTD/sodipodi-0.dtd"
   xmlns:inkscape="http://www.inkscape.org/namespaces/inkscape"
   width="554.98285"
   height="71.999977"
   viewBox="0 0 554.98287 71.999975"
   version="1.1"
   id="svg14098"
   inkscape:version="0.92.3 (2405546, 2018-03-11)"
   sodipodi:docname="von.svg">
  <defs
     id="defs14092">
    <clipPath
       clipPathUnits="userSpaceOnUse"
       id="clipPath7818">
      <path
         d="M 193.695,338.233 H 172.2 v 165.669 h 21.495 z"
         id="path7816"
         inkscape:connector-curvature="0" />
    </clipPath>
    <clipPath
       clipPathUnits="userSpaceOnUse"
       id="clipPath7762">
      <path
         d="M 193.695,338.233 H 172.2 v 165.669 h 21.495 z"
         id="path7760"
         inkscape:connector-curvature="0" />
    </clipPath>
  </defs>
  <sodipodi:namedview
     id="base"
     pagecolor="#ffffff"
     bordercolor="#666666"
     borderopacity="1.0"
     inkscape:pageopacity="0.0"
     inkscape:pageshadow="2"
     inkscape:zoom="1.979899"
     inkscape:cx="68.926449"
     inkscape:cy="-2.5508938"
     inkscape:document-units="px"
     inkscape:current-layer="layer1"
     showgrid="false"
     fit-margin-top="0"
     fit-margin-left="0"
     fit-margin-right="0"
     fit-margin-bottom="0"
     inkscape:window-width="1213"
     inkscape:window-height="745"
     inkscape:window-x="67"
     inkscape:window-y="27"
     inkscape:window-maximized="1"
     units="px" />
  <metadata
     id="metadata14095">
    <rdf:RDF>
      <cc:Work
         rdf:about="">
        <dc:format>image/svg+xml</dc:format>
        <dc:type
           rdf:resource="http://purl.org/dc/dcmitype/StillImage" />
        <dc:title></dc:title>
      </cc:Work>
    </rdf:RDF>
  </metadata>
  <g
     inkscape:label="Layer 1"
     inkscape:groupmode="layer"
     id="layer1"
     transform="translate(13.302732,-233.41775)">
    <path
       inkscape:connector-curvature="0"
       id="path7766"
       style="fill:#e31836;fill-opacity:1;fill-rule:evenodd;stroke:none;stroke-width:3.34997725"
       d="m 348.50696,264.23714 10.82044,6.37523 -0.2143,19.35943 -10.59263,-5.65465 z m -294.422713,-0.74697 11.410017,7.15893 -0.519249,18.97429 -11.168813,-6.4455 z m -13.349656,-0.36535 c -0.06015,0.3286 0.680039,8.29107 0.613037,12.69977 -0.187596,5.07522 -0.921238,15.16189 -0.854236,14.82033 0,0 5.376716,2.33479 10.934318,5.72495 4.562671,2.86086 9.647936,6.84725 9.647936,6.84725 L 79.373207,292.2227 79.061673,273.79448 c 0.07355,-4.41872 0.964791,-9.36997 0.964791,-9.36997 L 62.127546,253.02466 c 0.355092,0.0688 -4.978069,3.53083 -10.080082,5.67149 -6.271164,2.6196 -11.312871,4.42867 -11.312871,4.42867 m -46.8661687,30.67557 c 0,0 6.14385122,2.13738 9.4134322,4.09028 3.9831196,2.08398 8.8305355,5.33678 8.8305355,5.33678 l 19.597367,-14.16704 c 0,0 -1.155747,-5.64817 -1.370141,-14.53577 0.304847,-5.73494 1.25959,-13.04483 1.25959,-13.04483 l -13.03811,-8.14366 -9.3330331,9.54728 7.4871971,4.75387 -0.234504,23.44651 c 0.05702,-0.33487 -8.9511321,-4.6733 -9.2425837,-5.07199 l 0.3483591,-24.1065 -10.8137245,-8.41515 -8.9879829,11.65451 6.9009444,3.96318 c 0,0 0.043541,5.79544 -0.1440394,10.86062 0.043536,5.80551 -0.6163735,13.5138 -0.6733239,13.83191 m 95.4609309,-24.62881 -0.190951,29.23184 14.043103,4.58266 0.0329,-36.42433 8.35484,5.94619 -0.0544,22.4551 9.76522,8.22408 7.75182,-10.85053 -4.09033,-3.46386 0.35178,-24.10322 c -0.0583,0.33128 -4.67656,-2.20749 -6.90094,-3.96957 -2.92452,-1.89268 -7.31308,-5.7452 -7.31308,-5.7452 l -7.57091,7.82869 -11.098477,-8.82032 -6.535802,12.10022 z m 70.071462,-1.96643 c 1.3936,4.33129 3.67155,7.81878 6.70995,11.08485 0.51928,1.11549 1.52095,1.63505 1.52095,1.63505 l -8.23764,15.53372 -0.12052,0.66352 c -0.006,2.0333 0.74697,3.8758 1.3902,4.33126 0.93801,0.85151 2.33825,1.09897 3.51414,0.63355 1.52423,-0.40198 2.51916,-1.92607 1.99993,-3.04514 -0.28809,-0.38487 -1.28308,-0.90786 -1.63812,-0.97463 -1.11556,0.14089 -2.05025,-0.7037 -1.86597,-1.69514 0.23118,-1.31998 1.17582,-2.51588 2.64317,-2.58948 1.04513,0.18783 2.45215,0.44211 3.09199,0.89761 1.34666,0.58314 1.64148,0.98177 2.93121,1.89628 1.80907,2.02335 3.62468,4.05351 5.0183,6.34461 0.57954,0.77704 1.10885,1.90303 1.10885,1.90303 l 10.33128,-11.07169 11.86902,10.65269 7.75849,-12.89041 -4.97132,-4.64658 -0.0546,-1.71192 0.11737,-46.95003 -4.75029,2.20794 c -0.41542,0.26791 -0.99492,-0.51576 -1.69846,-0.64652 -7.06849,-5.02139 -17.02792,-6.14051 -24.58883,-2.40177 -2.34498,0.94786 -4.80723,2.5391 -6.56929,4.26785 -2.58622,2.25453 -4.17409,5.03509 -5.46717,8.19403 -0.76709,2.24451 -0.8375,4.62306 -1.24951,6.93104 -0.0646,2.36182 -0.12397,4.73696 0.16078,7.17245 0.4623,1.44374 0.57951,2.83063 1.04518,4.27464 m 21.16516,15.39623 c -4.27455,-2.4721 -8.48879,-3.23941 -8.48879,-3.23941 l 14.71638,-31.37575 0.99497,0.51564 0.0703,41.88156 c 0,0 -1.7956,-4.0703 -7.29289,-7.78227 M 165.594,273.09145 c -2.5661,-3.86232 -3.14899,-8.73651 -2.7202,-13.08162 0.46232,-0.60605 0.58625,-1.26634 0.70685,-1.91608 0.35507,-1.97977 1.35002,-3.50426 2.70339,-4.96475 3.88266,-5.42355 10.56584,-8.30111 16.76666,-6.49551 0.35176,0.061 0.9916,0.51562 0.9916,0.51562 l -15.17875,29.93544 c 0,0 -2.16746,-2.09032 -3.26955,-3.9933 m 49.30494,-24.11969 -0.20773,39.44941 c -0.12066,0.65987 -1.00164,1.5208 -0.65328,1.58444 2.57614,1.81916 4.44209,3.52757 6.66987,5.28615 2.86079,2.22127 6.83391,6.34149 6.83391,6.34149 l 5.41355,-9.91572 0.46894,-0.59956 -5.66809,-4.76348 0.19434,-33.32892 c -0.045,-3.74874 0.60294,-7.37343 1.49074,-10.28114 0,0 -3.98313,2.00999 -6.39512,3.27624 -3.56776,1.74197 -8.14716,2.95132 -8.14716,2.95132 m 24.96738,42.63503 0.93793,0.84786 c 2.21443,1.75545 3.73197,3.3937 4.67325,4.24463 2.57617,1.82902 6.7737,6.66637 6.7737,6.66637 l 6.82051,-11.69815 -5.02827,-4.32156 0.20429,-35.35226 c -0.22782,-2.77378 0.83423,-6.65978 1.3768,-9.63118 0,0 -4.88089,2.86772 -7.62451,4.07708 -2.355,0.94127 -6.9244,2.15388 -6.9244,2.15388 l -0.32832,40.10594 c 0.0587,1.71527 -0.93799,3.23601 -0.881,2.90764 m 26.40785,-23.83145 -0.11085,22.78982 c 0.0511,1.70511 -1.59122,2.78038 -1.23944,2.83736 3.80557,1.02183 5.79211,2.07031 8.77692,3.6281 3.62469,2.0133 8.23759,6.58917 8.23759,6.58917 l 6.35493,-11.1084 -8.3046,-6.26119 0.12739,-24.82323 -11.00135,-7.43686 -6.40516,11.44345 z m 23.07467,24.9271 c 0,0 5.44363,2.00329 9.65122,4.80042 4.56274,2.87441 8.12373,7.2559 7.77195,7.1925 l 0.88107,-0.86434 c 9.39336,-9.86895 17.78505,-14.14031 17.83532,-14.47519 -0.22442,-0.72666 -0.6935,-2.17087 -0.56953,-4.87087 l 0.0929,-14.61586 c -0.16761,-3.09537 -0.048,-5.79236 1.48741,-8.24108 l -13.52386,-7.55426 -9.61106,9.16572 8.8205,5.32957 -0.11386,22.78999 -10.17051,-5.91929 0.34502,-24.10325 -11.3397,-7.49044 -10.33127,9.02132 8.70988,5.99996 z m 44.67862,-0.43884 c -0.061,0.32444 5.45377,1.99976 10.35813,4.92441 4.62299,2.54265 9.23924,7.11871 9.30286,6.78695 9.15217,-10.59946 18.94748,-14.61922 19.00444,-14.94762 l 0.2178,-17.31939 c 0,-2.03998 0.41538,-4.35146 0.83753,-6.65969 0,0 -6.20416,-3.84567 -10.12027,-6.24783 -2.27464,-1.43033 -6.9512,-5.67824 -6.9512,-5.67824 -9.21577,6.84409 -13.95604,7.00162 -20.64597,9.89262 l -1.57779,0.73691 c 0,0 0.99157,4.59952 1.0854,12.09652 -0.19778,9.15239 -0.50592,12.85056 -1.51085,16.41518 m 10.14707,-50.25312 c -3.22263,-0.23819 -5.92611,2.67664 -6.17069,6.03652 0.10736,3.4171 2.92125,5.96634 6.1439,6.21089 3.26959,-0.0839 6.32814,-2.93455 6.21754,-6.36161 -0.16759,-3.09536 -2.90772,-5.97287 -6.19075,-5.8858 m 23.59725,-0.16385 c -3.27963,0.0896 -5.98302,2.99811 -6.16727,6.03656 0.1138,3.42371 2.85756,6.30141 6.1405,6.21432 3.21594,0.23821 6.27446,-2.61968 6.16056,-6.04353 -0.11064,-3.41351 -2.56607,-5.90277 -6.13379,-6.20735 m 15.98277,26.03246 -0.23114,21.3998 c -0.003,4.08696 -1.82576,6.14052 -1.82576,6.14052 l 12.92422,6.75344 8.46207,-10.72316 -5.96298,-3.12896 0.16074,-21.06449 9.93941,7.23905 7.81551,-11.18206 -11.74841,-9.2695 -5.75862,7.8122 -9.46698,-7.8423 -7.93613,11.84887 z m 56.57102,24.17024 -9.35312,-6.46545 0.0554,-20.408 9.28283,8.82361 z m -13.51042,-29.674 -9.84894,4.34472 c 0,0 1.33996,2.6264 1.09542,5.99326 l -0.15402,14.94078 c 0.055,1.70867 -0.94807,3.23619 -0.94807,3.23619 7.14216,2.65646 12.93761,6.75687 18.83026,12.25095 0,0 4.34825,-3.97987 8.15715,-7.04518 4.51579,-2.91775 8.97125,-5.52753 8.97125,-5.52753 l -0.009,-22.11992 -27.33247,-25.35922 -6.06681,13.53397 z m 32.83982,31.11772 19.99934,9.7316 7.05837,-10.97106 -9.36648,-4.41864 15.8085,-21.31909 c 0,0 -3.33319,-1.61818 -7.4202,-5.0819 -2.8073,-2.54931 -5.55761,-5.43387 -7.30965,-7.78876 0,0 -3.86919,3.38677 -8.02986,6.37494 -4.57943,3.26295 -10.5558,6.27449 -10.5558,6.27449 0.22439,0.71977 1.45726,1.96328 1.68171,4.72332 l -0.33161,17.98275 c 0.16756,3.09213 -1.53425,4.49235 -1.53425,4.49235 m 14.98777,-24.86677 7.0651,7.05509 -7.16558,9.601 z m 25.94221,0.93472 -0.13398,28.90696 13.6981,4.51573 0.0857,-36.74605 9.1789,7.44052 -0.345,22.06965 9.87571,7.56402 7.75857,-10.85725 -4.09365,-3.45388 0.23437,-23.45318 c 0,0 -3.97309,-2.07364 -7.48386,-4.74679 -2.86088,-2.22438 -7.18569,-6.40519 -7.18569,-6.40519 -0.81738,0.52948 -5.92946,6.75028 -8.2175,9.40681 l -9.58091,-9.21256 -7.53411,11.57428" />
    <path
       style="color:#000000;font-style:normal;font-variant:normal;font-weight:normal;font-stretch:normal;font-size:medium;line-height:normal;font-family:sans-serif;font-variant-ligatures:normal;font-variant-position:normal;font-variant-caps:normal;font-variant-numeric:normal;font-variant-alternates:normal;font-feature-settings:normal;text-indent:0;text-align:start;text-decoration:none;text-decoration-line:none;text-decoration-style:solid;text-decoration-color:#000000;letter-spacing:normal;word-spacing:normal;text-transform:none;writing-mode:lr-tb;direction:ltr;text-orientation:mixed;dominant-baseline:auto;baseline-shift:baseline;text-anchor:start;white-space:normal;shape-padding:0;clip-rule:nonzero;display:inline;overflow:visible;visibility:visible;opacity:1;isolation:auto;mix-blend-mode:normal;color-interpolation:sRGB;color-interpolation-filters:linearRGB;solid-color:#000000;solid-opacity:1;vector-effect:none;fill:#ffffff;fill-opacity:1;fill-rule:nonzero;stroke:none;stroke-width:1.45723951;stroke-linecap:butt;stroke-linejoin:miter;stroke-miterlimit:4;stroke-dasharray:none;stroke-dashoffset:0;stroke-opacity:1;color-rendering:auto;image-rendering:auto;shape-rendering:auto;text-rendering:auto;enable-background:accumulate"
       d="m 347.77829,262.96002 v 1.27568 l 0.0138,20.51701 12.03732,6.42835 0.22587,-20.98316 z m 1.45743,2.55156 9.35311,5.51575 -0.19145,17.73456 -9.14695,-4.88264 z"
       id="path7770"
       inkscape:connector-curvature="0" />
    <path
       style="color:#000000;font-style:normal;font-variant:normal;font-weight:normal;font-stretch:normal;font-size:medium;line-height:normal;font-family:sans-serif;font-variant-ligatures:normal;font-variant-position:normal;font-variant-caps:normal;font-variant-numeric:normal;font-variant-alternates:normal;font-feature-settings:normal;text-indent:0;text-align:start;text-decoration:none;text-decoration-line:none;text-decoration-style:solid;text-decoration-color:#000000;letter-spacing:normal;word-spacing:normal;text-transform:none;writing-mode:lr-tb;direction:ltr;text-orientation:mixed;dominant-baseline:auto;baseline-shift:baseline;text-anchor:start;white-space:normal;shape-padding:0;clip-rule:nonzero;display:inline;overflow:visible;visibility:visible;opacity:1;isolation:auto;mix-blend-mode:normal;color-interpolation:sRGB;color-interpolation-filters:linearRGB;solid-color:#000000;solid-opacity:1;vector-effect:none;fill:#ffffff;fill-opacity:1;fill-rule:nonzero;stroke:none;stroke-width:1.45723951;stroke-linecap:butt;stroke-linejoin:miter;stroke-miterlimit:4;stroke-dasharray:none;stroke-dashoffset:0;stroke-opacity:1;color-rendering:auto;image-rendering:auto;shape-rendering:auto;text-rendering:auto;enable-background:accumulate"
       d="m 53.37619,262.18448 -0.01972,1.29549 -0.284613,20.11964 12.601669,7.26758 0.554509,-20.61508 z m 1.418179,2.61563 9.956693,6.24673 -0.466187,17.33737 -9.745677,-5.61887 z"
       id="path7774"
       inkscape:connector-curvature="0" />
    <path
       style="color:#000000;font-style:normal;font-variant:normal;font-weight:normal;font-stretch:normal;font-size:medium;line-height:normal;font-family:sans-serif;font-variant-ligatures:normal;font-variant-position:normal;font-variant-caps:normal;font-variant-numeric:normal;font-variant-alternates:normal;font-feature-settings:normal;text-indent:0;text-align:start;text-decoration:none;text-decoration-line:none;text-decoration-style:solid;text-decoration-color:#000000;letter-spacing:normal;word-spacing:normal;text-transform:none;writing-mode:lr-tb;direction:ltr;text-orientation:mixed;dominant-baseline:auto;baseline-shift:baseline;text-anchor:start;white-space:normal;shape-padding:0;clip-rule:nonzero;display:inline;overflow:visible;visibility:visible;opacity:1;isolation:auto;mix-blend-mode:normal;color-interpolation:sRGB;color-interpolation-filters:linearRGB;solid-color:#000000;solid-opacity:1;vector-effect:none;fill:#ffffff;fill-opacity:1;fill-rule:nonzero;stroke:none;stroke-width:1.45723951;stroke-linecap:butt;stroke-linejoin:miter;stroke-miterlimit:4;stroke-dasharray:none;stroke-dashoffset:0;stroke-opacity:1;color-rendering:auto;image-rendering:auto;shape-rendering:auto;text-rendering:auto;enable-background:accumulate"
       d="m 62.272932,252.31139 -0.529976,1.31501 c -0.05438,-0.0324 -0.108699,-0.0764 -0.107959,-0.0764 0.0012,10e-4 -0.16266,-0.24254 -0.161926,-0.24088 7.18e-4,0.001 -0.05405,-0.25695 -0.05396,-0.25517 4e-5,0.003 0.0071,-0.12981 0.01972,-0.17688 0.01167,-0.052 0.02709,-0.084 0.03921,-0.11265 0.02444,-0.061 0.04462,-0.0839 0.05878,-0.10295 0.05672,-0.0764 0.03603,-0.0442 -0.0046,-0.008 -0.08168,0.0687 -0.271457,0.21176 -0.52507,0.3877 -0.50723,0.35177 -1.290958,0.85459 -2.242592,1.41818 -1.90326,1.12717 -4.487549,2.51314 -6.992745,3.56272 -6.256501,2.61214 -11.28163,4.41625 -11.28163,4.41625 l -0.397482,0.14252 -0.07345,0.41248 c -0.03925,0.21421 -0.01702,0.20921 -0.01465,0.29965 0.0022,0.088 0.0066,0.20075 0.01465,0.33389 0.01472,0.2655 0.03856,0.61813 0.06877,1.05007 0.05992,0.86409 0.14626,2.02867 0.230639,3.31725 0.168756,2.57724 0.332115,5.66531 0.299339,7.8223 -0.09346,2.51898 -0.318033,6.29987 -0.515257,9.40699 -0.09888,1.55601 -0.192504,2.94184 -0.255175,3.92075 -0.03123,0.48926 -0.05392,0.87594 -0.06876,1.13364 -0.0066,0.12894 -0.01228,0.22104 -0.01473,0.28943 -10e-4,0.0326 -0.0024,0.0519 0,0.11775 6.93e-4,0.0155 0.0085,0.091 0.0087,0.0919 9.5e-5,5.7e-4 0.05382,0.18099 0.05391,0.1818 7.3e-5,1.6e-4 0.319394,0.13165 0.588865,0.24606 l -0.211002,0.11257 c 0,0 5.342738,2.316 10.844893,5.6777 4.510427,2.82407 9.573931,6.79646 9.573931,6.79646 l 0.397478,0.30914 19.089001,-11.46321 -0.318868,-18.83393 v -0.004 -0.0154 c 0.07288,-4.32079 0.956901,-9.22054 0.956901,-9.22054 l 0.08358,-0.48067 -18.308727,-11.66443 -0.0046,0.004 c -0.03296,-0.0244 -0.07281,-0.0525 -0.07344,-0.0525 -0.0018,-7e-4 -0.123413,-0.0519 -0.171752,-0.061 z m -0.04924,1.63887 17.032858,10.85472 c -0.08659,0.48766 -0.854601,4.7123 -0.922548,8.98036 v 0.008 l 0.304245,18.02876 -17.528485,10.52621 c -0.410252,-0.32111 -4.874845,-3.82952 -9.294223,-6.59547 h -0.0046 l -0.0045,-0.004 c -5.373884,-3.28327 -10.143042,-5.34127 -10.565197,-5.52564 0.01457,-0.2475 0.03634,-0.55745 0.0639,-0.98631 0.06258,-0.97666 0.151377,-2.36798 0.250264,-3.92567 0.197757,-3.11561 0.425742,-6.90325 0.520164,-9.45636 v -0.008 -0.004 c 0.03438,-2.2515 -0.134655,-5.3546 -0.304243,-7.94452 -0.08494,-1.29514 -0.170909,-2.45781 -0.230634,-3.31742 -0.02802,-0.40138 -0.04458,-0.72054 -0.05877,-0.96657 0.419471,-0.15114 4.834862,-1.73348 10.849798,-4.24492 2.596823,-1.08778 5.229188,-2.50083 7.179223,-3.65584 0.975028,-0.57713 1.773716,-1.08879 2.326016,-1.47212 0.165021,-0.1144 0.266202,-0.19643 0.387668,-0.28947 z"
       id="path7778"
       inkscape:connector-curvature="0" />
    <path
       style="color:#000000;font-style:normal;font-variant:normal;font-weight:normal;font-stretch:normal;font-size:medium;line-height:normal;font-family:sans-serif;font-variant-ligatures:normal;font-variant-position:normal;font-variant-caps:normal;font-variant-numeric:normal;font-variant-alternates:normal;font-feature-settings:normal;text-indent:0;text-align:start;text-decoration:none;text-decoration-line:none;text-decoration-style:solid;text-decoration-color:#000000;letter-spacing:normal;word-spacing:normal;text-transform:none;writing-mode:lr-tb;direction:ltr;text-orientation:mixed;dominant-baseline:auto;baseline-shift:baseline;text-anchor:start;white-space:normal;shape-padding:0;clip-rule:nonzero;display:inline;overflow:visible;visibility:visible;opacity:1;isolation:auto;mix-blend-mode:normal;color-interpolation:sRGB;color-interpolation-filters:linearRGB;solid-color:#000000;solid-opacity:1;vector-effect:none;fill:#ffffff;fill-opacity:1;fill-rule:nonzero;stroke:none;stroke-width:1.45723951;stroke-linecap:butt;stroke-linejoin:miter;stroke-miterlimit:4;stroke-dasharray:none;stroke-dashoffset:0;stroke-opacity:1;color-rendering:auto;image-rendering:auto;shape-rendering:auto;text-rendering:auto;enable-background:accumulate"
       d="m 18.451704,252.4094 -10.1529809,10.38372 0.019628,-1.24165 -11.6742146,-9.0831 -9.9468685,12.8961 7.2577329,4.16129 c 0.00264,0.40989 0.041828,5.56868 -0.13738,10.42291 v 0.0157 0.0153 c 0.021356,2.87096 -0.1324279,6.23411 -0.29935,8.91652 -0.083663,1.34097 -0.1713616,2.51284 -0.2404358,3.36638 -0.034144,0.42682 -0.06488,0.77686 -0.088383,1.02538 -0.023052,0.24868 -0.055491,0.47316 -0.039288,0.38254 l -0.1079251,0.61305 0.5888813,0.20585 c 0,0 6.14986132,2.15959 9.2795009,4.02391 l 0.019632,0.008 0.014502,0.008 c 3.9199452,2.0557 8.7642498,5.29496 8.7642498,5.29496 l 0.422048,0.28417 20.384478,-14.73629 -0.09327,-0.46105 c 0,0 -1.131456,-5.57796 -1.344572,-14.37797 0.300878,-5.68215 1.246429,-12.96487 1.246429,-12.96487 l 0.06389,-0.46616 z m 0.225733,1.85996 12.160023,7.59129 c -0.0651,0.50136 -0.928885,7.05768 -1.22189,12.63129 v 0.0244 0.0245 c 0.205199,8.64113 1.260798,13.80111 1.334754,14.17186 L 12.07727,302.35572 c -0.442456,-0.29539 -4.59083,-3.08011 -8.4207484,-5.09382 l -0.00498,-0.004 c -3.22404675,-1.91869 -8.3771833,-3.69206 -9.0046913,-3.91106 0.023052,-0.25102 0.051216,-0.56598 0.083661,-0.9666 0.070001,-0.86275 0.1564206,-2.0399 0.2404368,-3.39085 0.167434,-2.69181 0.3247934,-6.06645 0.3042163,-8.98997 v -0.0328 c 0.1864748,-5.08149 0.1423317,-10.86444 0.1423317,-10.86444 l -0.00498,-0.41751 -6.5412891,-3.75385 8.0330689,-10.42297 9.9468831,7.74824 -0.3484454,23.99636 0.147199,0.19638 c 0.1886943,0.25268 0.23591,0.22697 0.3386253,0.29458 0.1026345,0.0687 0.2239565,0.13824 0.3680827,0.22103 0.2882511,0.16475 0.667859,0.36815 1.113938,0.60366 0.8921582,0.47144 2.0449884,1.06612 3.1847664,1.65383 1.139775,0.58752 2.267652,1.17126 3.096434,1.62441 0.4144,0.22612 0.754498,0.42343 0.97163,0.55902 0.108559,0.0688 0.18882,0.11965 0.211006,0.13764 0.0099,0.008 0.0067,0.008 -0.02938,-0.0245 -0.01867,-0.0244 -0.04604,-0.0523 -0.08357,-0.12731 -0.01877,-0.0324 -0.03896,-0.0913 -0.05396,-0.16204 -0.0066,-0.0337 -0.01472,-0.11885 -0.01465,-0.11791 1.2e-5,2.5e-4 -6.33e-4,-0.0158 0,-0.0245 l 1.447622,0.12727 c 1.62e-4,-6.9e-4 0.0017,-0.0688 0.0044,-0.11275 h 0.0044 c 0.001,-0.0155 1.2e-5,-0.0442 0,-0.0442 l 0.235588,-23.80966 -7.06635,-4.49496 z m -10.3836238,8.88675 7.6895758,4.88266 -0.215915,21.70943 c -0.114837,-0.0687 -0.185808,-0.11182 -0.314059,-0.18182 -0.853423,-0.46621 -1.988819,-1.05037 -3.130794,-1.63913 -1.141978,-0.58821 -2.292058,-1.17985 -3.1700424,-1.64382 -0.4390349,-0.23214 -0.8091669,-0.43467 -1.0697701,-0.58396 -0.050377,-0.0245 -0.071734,-0.0442 -0.112875,-0.0688 z"
       id="path7782"
       inkscape:connector-curvature="0" />
    <path
       style="color:#000000;font-style:normal;font-variant:normal;font-weight:normal;font-stretch:normal;font-size:medium;line-height:normal;font-family:sans-serif;font-variant-ligatures:normal;font-variant-position:normal;font-variant-caps:normal;font-variant-numeric:normal;font-variant-alternates:normal;font-feature-settings:normal;text-indent:0;text-align:start;text-decoration:none;text-decoration-line:none;text-decoration-style:solid;text-decoration-color:#000000;letter-spacing:normal;word-spacing:normal;text-transform:none;writing-mode:lr-tb;direction:ltr;text-orientation:mixed;dominant-baseline:auto;baseline-shift:baseline;text-anchor:start;white-space:normal;shape-padding:0;clip-rule:nonzero;display:inline;overflow:visible;visibility:visible;opacity:1;isolation:auto;mix-blend-mode:normal;color-interpolation:sRGB;color-interpolation-filters:linearRGB;solid-color:#000000;solid-opacity:1;vector-effect:none;fill:#ffffff;fill-opacity:1;fill-rule:nonzero;stroke:none;stroke-width:1.45723951;stroke-linecap:butt;stroke-linejoin:miter;stroke-miterlimit:4;stroke-dasharray:none;stroke-dashoffset:0;stroke-opacity:1;color-rendering:auto;image-rendering:auto;shape-rendering:auto;text-rendering:auto;enable-background:accumulate"
       d="m 92.187185,252.95908 -7.228305,13.372 3.646047,3.17491 -0.196286,29.42838 15.501819,5.06452 0.034,-36.0238 6.90437,4.90709 -0.0598,22.42108 10.62896,8.95568 8.60231,-12.04244 -4.34282,-3.67536 0.34833,-23.75573 -1.44762,-0.14247 c 0.0393,-0.21111 0.24343,-0.44164 0.39261,-0.51059 0.14926,-0.0687 0.23423,-0.0609 0.27972,-0.0609 0.0901,0.003 0.0709,0.008 0.034,0 -0.0726,-0.0244 -0.2538,-0.0932 -0.47601,-0.19636 -0.44427,-0.20387 -1.0834,-0.53788 -1.7911,-0.93717 -1.41535,-0.79918 -3.11791,-1.86966 -4.17113,-2.70399 l -0.0236,-0.0245 -0.028,-0.0154 c -2.82452,-1.82804 -7.22335,-5.68752 -7.22335,-5.68752 l -0.52512,-0.456 -7.59623,7.85164 z m 0.456359,2.22296 10.933226,8.68567 7.57667,-7.83188 c 0.56759,0.49691 3.99589,3.52129 6.79159,5.34389 0.006,0.004 0.0166,0.008 0.0235,0.0155 1.17073,0.92423 2.87719,1.9949 4.3331,2.81674 0.73192,0.41306 1.3913,0.75805 1.89904,0.99133 0.13714,0.061 0.24173,0.0946 0.35823,0.14247 l -0.3484,23.86364 3.84229,3.25349 -6.89946,9.66712 -8.90658,-7.49798 0.0601,-22.49965 -9.81439,-6.97311 -0.0344,36.83331 -12.582031,-4.1121 0.186481,-29.03592 -0.25027,-0.21602 -3.01302,-2.62512 z"
       id="path7786"
       inkscape:connector-curvature="0" />
    <path
       style="color:#000000;font-style:normal;font-variant:normal;font-weight:normal;font-stretch:normal;font-size:medium;line-height:normal;font-family:sans-serif;font-variant-ligatures:normal;font-variant-position:normal;font-variant-caps:normal;font-variant-numeric:normal;font-variant-alternates:normal;font-feature-settings:normal;text-indent:0;text-align:start;text-decoration:none;text-decoration-line:none;text-decoration-style:solid;text-decoration-color:#000000;letter-spacing:normal;word-spacing:normal;text-transform:none;writing-mode:lr-tb;direction:ltr;text-orientation:mixed;dominant-baseline:auto;baseline-shift:baseline;text-anchor:start;white-space:normal;shape-padding:0;clip-rule:nonzero;display:inline;overflow:visible;visibility:visible;opacity:1;isolation:auto;mix-blend-mode:normal;color-interpolation:sRGB;color-interpolation-filters:linearRGB;solid-color:#000000;solid-opacity:1;vector-effect:none;fill:#ffffff;fill-opacity:1;fill-rule:nonzero;stroke:none;stroke-width:1.45723951;stroke-linecap:butt;stroke-linejoin:miter;stroke-miterlimit:4;stroke-dasharray:none;stroke-dashoffset:0;stroke-opacity:1;color-rendering:auto;image-rendering:auto;shape-rendering:auto;text-rendering:auto;enable-background:accumulate"
       d="m 184.03507,233.55111 c -4.43321,-0.45075 -8.93204,0.23394 -12.84704,2.164 -2.43536,0.98456 -4.93787,2.59673 -6.77185,4.39699 -0.003,0.003 -0.006,0.003 -0.009,0.004 -2.68287,2.3476 -4.32339,5.23648 -5.63349,8.44041 l -0.009,0.0154 -0.004,0.0155 c -0.81361,2.38053 -0.87652,4.79987 -1.27587,7.03701 l -0.009,0.052 -0.004,0.052 c -0.0646,2.3652 -0.1306,4.77706 0.16192,7.28233 l 0.009,0.0688 0.0236,0.0687 c 0.33772,1.04463 0.53315,2.16945 0.81457,3.31731 h -0.0734 l 0.30424,0.95191 c 1.42938,4.44265 3.77173,8.03708 6.87007,11.36011 l -0.12757,-0.19108 c 0.45116,0.96898 0.92354,1.14871 1.31515,1.40818 l -8.06745,15.21254 -0.15213,0.83908 v 0.0611 c -0.001,1.10649 0.19578,2.14703 0.49071,2.99819 0.28756,0.82979 0.61276,1.46358 1.17283,1.88448 1.14551,1.01209 2.77828,1.30472 4.20055,0.76062 0.91748,-0.2586 1.67764,-0.81268 2.14441,-1.52608 0.47625,-0.72752 0.67369,-1.66209 0.28957,-2.49772 l -0.0337,-0.0764 -0.0457,-0.0611 c -0.29116,-0.3893 -0.64759,-0.59334 -1.02069,-0.80493 -0.37312,-0.21201 -0.67533,-0.37764 -1.0698,-0.45172 l -0.11286,-0.0157 -0.11285,0.0157 c -0.70661,0.087 -1.14858,-0.35875 -1.05996,-0.84438 0.18714,-1.05364 0.87437,-1.90274 1.94812,-1.9728 0.48654,0.0865 1.01902,0.18603 1.49672,0.30896 0.52467,0.13487 0.98155,0.31677 1.14827,0.43633 l 0.0647,0.052 0.0734,0.0245 c 1.23868,0.53201 1.48953,0.88306 2.71853,1.76637 1.79114,2.00375 3.55674,3.98667 4.90232,6.18313 l 0.0132,0.0245 0.0184,0.0245 c 0.50682,0.68234 1.03539,1.7765 1.03539,1.7765 l 0.45637,0.97163 10.5799,-11.33079 11.99317,10.76155 8.51396,-14.15238 -5.17707,-4.83863 -0.0458,-1.39348 0.11777,-48.08576 -5.68748,2.64022 c -0.0404,-0.0157 -0.0642,-0.0341 -0.14717,-0.084 -0.25666,-0.16129 -0.63956,-0.46262 -1.21207,-0.56942 l 0.28951,0.1229 c -3.64677,-2.58954 -8.01773,-4.17582 -12.45937,-4.62763 z m -0.14222,1.47214 c 4.19447,0.42684 8.33252,1.91078 11.75761,4.34274 l 0.13244,0.0922 0.15706,0.0245 c 0.12769,0.0245 0.38806,0.17658 0.70174,0.37305 0.15679,0.097 0.32628,0.2092 0.57406,0.2844 0.24794,0.0764 0.64696,0.0764 0.95204,-0.11785 l -0.0868,0.0522 3.70991,-1.72736 -0.11287,45.82311 0.0649,2.02183 4.75991,4.45101 -6.99765,11.62988 -11.74781,-10.54059 -10.14804,10.87911 c -0.2065,-0.39082 -0.28278,-0.59918 -0.6232,-1.06953 l -0.009,-0.0157 c -1.44796,-2.35535 -3.28335,-4.41461 -5.089,-6.43413 l -0.0552,-0.061 -0.0691,-0.0518 c -1.20766,-0.85847 -1.65107,-1.31976 -2.96885,-1.90408 -0.46613,-0.3235 -1.01063,-0.50186 -1.59484,-0.65218 -0.59847,-0.15376 -1.22873,-0.26477 -1.75188,-0.35867 l -0.0778,-0.0155 -0.0822,0.004 c -1.84702,0.0914 -3.0457,1.61036 -3.32711,3.18498 -0.27324,1.49772 1.14992,2.73888 2.67444,2.54671 l -0.22569,-0.004 c -0.0401,-0.007 0.33145,0.12208 0.61827,0.28437 0.24259,0.13745 0.41842,0.29194 0.48583,0.34833 0.10188,0.28011 0.0817,0.63181 -0.1718,1.02067 -0.27162,0.41476 -0.76324,0.79743 -1.34454,0.95199 l -0.0394,0.008 -0.0401,0.0155 c -0.90997,0.35792 -2.0359,0.15891 -2.76273,-0.49492 l -0.034,-0.0245 -0.0281,-0.0245 c -0.0571,-0.0437 -0.43215,-0.52867 -0.6723,-1.22181 -0.23779,-0.68646 -0.40535,-1.57582 -0.40729,-2.49291 l 0.0822,-0.44654 8.52867,-16.08574 -0.65263,-0.33897 c 0,0 -0.788,-0.42693 -1.19246,-1.2955 l -0.05,-0.10275 -0.0777,-0.084 c -2.99195,-3.20923 -5.19328,-6.59509 -6.55111,-10.81553 -0.42277,-1.31085 -0.5575,-2.6653 -1.02067,-4.15135 -0.27244,-2.34923 -0.21506,-4.66109 -0.15214,-7.00266 0.4137,-2.34919 0.49992,-4.65322 1.2072,-6.7375 1.26901,-3.09885 2.78934,-5.75405 5.26052,-7.90556 l 0.0187,-0.0152 0.0131,-0.0156 c 1.67575,-1.64703 4.0812,-3.20258 6.33035,-4.10737 l 0.0236,-0.008 0.0235,-0.0155 c 3.64072,-1.80019 7.89184,-2.42913 12.08642,-2.00222 z"
       id="path7790"
       inkscape:connector-curvature="0" />
    <path
       style="color:#000000;font-style:normal;font-variant:normal;font-weight:normal;font-stretch:normal;font-size:medium;line-height:normal;font-family:sans-serif;font-variant-ligatures:normal;font-variant-position:normal;font-variant-caps:normal;font-variant-numeric:normal;font-variant-alternates:normal;font-feature-settings:normal;text-indent:0;text-align:start;text-decoration:none;text-decoration-line:none;text-decoration-style:solid;text-decoration-color:#000000;letter-spacing:normal;word-spacing:normal;text-transform:none;writing-mode:lr-tb;direction:ltr;text-orientation:mixed;dominant-baseline:auto;baseline-shift:baseline;text-anchor:start;white-space:normal;shape-padding:0;clip-rule:nonzero;display:inline;overflow:visible;visibility:visible;opacity:1;isolation:auto;mix-blend-mode:normal;color-interpolation:sRGB;color-interpolation-filters:linearRGB;solid-color:#000000;solid-opacity:1;vector-effect:none;fill:#ffffff;fill-opacity:1;fill-rule:nonzero;stroke:none;stroke-width:1.45723951;stroke-linecap:butt;stroke-linejoin:miter;stroke-miterlimit:4;stroke-dasharray:none;stroke-dashoffset:0;stroke-opacity:1;color-rendering:auto;image-rendering:auto;shape-rendering:auto;text-rendering:auto;enable-background:accumulate"
       d="m 186.46416,246.99186 -15.44786,32.92732 0.93237,0.16653 c 0,0 4.09903,0.75475 8.23919,3.14543 5.32432,3.60741 7.00743,7.44924 7.00743,7.44924 l 1.39366,-0.29461 -0.0695,-42.32475 z m 0.5987,2.15431 0.0649,38.74233 c -1.11875,-1.59976 -2.88472,-3.68483 -6.14873,-5.88862 l -0.0183,-0.0156 -0.0235,-0.008 c -3.96204,-2.29328 -7.13473,-2.84644 -7.8662,-2.9934 z"
       id="path7794"
       inkscape:connector-curvature="0" />
    <path
       style="color:#000000;font-style:normal;font-variant:normal;font-weight:normal;font-stretch:normal;font-size:medium;line-height:normal;font-family:sans-serif;font-variant-ligatures:normal;font-variant-position:normal;font-variant-caps:normal;font-variant-numeric:normal;font-variant-alternates:normal;font-feature-settings:normal;text-indent:0;text-align:start;text-decoration:none;text-decoration-line:none;text-decoration-style:solid;text-decoration-color:#000000;letter-spacing:normal;word-spacing:normal;text-transform:none;writing-mode:lr-tb;direction:ltr;text-orientation:mixed;dominant-baseline:auto;baseline-shift:baseline;text-anchor:start;white-space:normal;shape-padding:0;clip-rule:nonzero;display:inline;overflow:visible;visibility:visible;opacity:1;isolation:auto;mix-blend-mode:normal;color-interpolation:sRGB;color-interpolation-filters:linearRGB;solid-color:#000000;solid-opacity:1;vector-effect:none;fill:#ffffff;fill-opacity:1;fill-rule:nonzero;stroke:none;stroke-width:1.45723951;stroke-linecap:butt;stroke-linejoin:miter;stroke-miterlimit:4;stroke-dasharray:none;stroke-dashoffset:0;stroke-opacity:1;color-rendering:auto;image-rendering:auto;shape-rendering:auto;text-rendering:auto;enable-background:accumulate"
       d="m 178.3231,245.39706 c -4.89204,0.3134 -9.55427,3.06188 -12.58695,7.2676 -1.38953,1.50839 -2.48734,3.16594 -2.87065,5.29978 -0.11995,0.64548 -0.22553,1.15369 -0.56929,1.60475 l -0.1227,0.16639 -0.0181,0.20578 c -0.44001,4.45876 0.14284,9.48684 2.83147,13.54391 0.003,0.003 0.003,0.006 0.004,0.008 1.19956,2.0447 3.36615,4.11197 3.36615,4.11197 l 0.71159,0.68756 15.91402,-31.37164 -0.51525,-0.36301 c 0,0 -0.18069,-0.13155 -0.4122,-0.26972 -0.22619,-0.13504 -0.46571,-0.28855 -0.84894,-0.36292 -1.61657,-0.46287 -3.26324,-0.63352 -4.88271,-0.53015 z m 0.0822,1.45743 c 1.48172,-0.0962 2.9793,0.0518 4.4459,0.47647 l 0.0334,0.0155 0.0395,0.004 c -0.0198,-0.003 0.10145,0.0609 0.16193,0.0839 l -14.36812,28.32954 c -0.59009,-0.60369 -1.69208,-1.65017 -2.49291,-3.03285 l -0.009,-0.0157 -0.009,-0.0156 c -2.43825,-3.67324 -3.02299,-8.37895 -2.60573,-12.6066 0.37247,-0.64479 0.60101,-1.31703 0.70172,-1.86 0.3247,-1.8074 1.21769,-3.19182 2.51741,-4.59794 l 0.0281,-0.0326 0.0279,-0.0329 c 2.79229,-3.90006 7.0818,-6.41097 11.52695,-6.70265 z"
       id="path7798"
       inkscape:connector-curvature="0" />
    <path
       style="color:#000000;font-style:normal;font-variant:normal;font-weight:normal;font-stretch:normal;font-size:medium;line-height:normal;font-family:sans-serif;font-variant-ligatures:normal;font-variant-position:normal;font-variant-caps:normal;font-variant-numeric:normal;font-variant-alternates:normal;font-feature-settings:normal;text-indent:0;text-align:start;text-decoration:none;text-decoration-line:none;text-decoration-style:solid;text-decoration-color:#000000;letter-spacing:normal;word-spacing:normal;text-transform:none;writing-mode:lr-tb;direction:ltr;text-orientation:mixed;dominant-baseline:auto;baseline-shift:baseline;text-anchor:start;white-space:normal;shape-padding:0;clip-rule:nonzero;display:inline;overflow:visible;visibility:visible;opacity:1;isolation:auto;mix-blend-mode:normal;color-interpolation:sRGB;color-interpolation-filters:linearRGB;solid-color:#000000;solid-opacity:1;vector-effect:none;fill:#ffffff;fill-opacity:1;fill-rule:nonzero;stroke:none;stroke-width:1.45723951;stroke-linecap:butt;stroke-linejoin:miter;stroke-miterlimit:4;stroke-dasharray:none;stroke-dashoffset:0;stroke-opacity:1;color-rendering:auto;image-rendering:auto;shape-rendering:auto;text-rendering:auto;enable-background:accumulate"
       d="m 230.63863,241.32396 -1.52113,0.77016 c 0,0 -3.98327,2.01047 -6.40393,3.28301 -3.46694,1.68612 -7.99873,2.89526 -7.99873,2.89526 l -0.5349,0.14253 -0.004,0.55412 -0.20611,39.33624 c -0.0214,0.0875 -0.19867,0.43203 -0.39258,0.74114 -0.0981,0.15878 -0.20065,0.29362 -0.28457,0.53005 -0.0433,0.11883 -0.108,0.28279 -0.0236,0.56948 0.0824,0.28692 0.42976,0.53551 0.64285,0.57463 l -0.28956,-0.12292 c 2.53662,1.79778 4.38656,3.49018 6.63947,5.2656 l 0.004,0.004 c 2.77062,2.15044 6.75229,6.26668 6.75229,6.26668 l 0.68702,0.71609 5.86903,-10.73199 0.85383,-1.10407 -5.93766,-5.00052 0.19628,-32.99093 v -0.004 c -0.0472,-3.65858 0.59008,-7.21876 1.45736,-10.0598 z m -2.10507,2.70893 c -0.71005,2.7146 -1.34649,5.70995 -1.30535,8.99983 l -0.19636,33.65352 5.3882,4.54394 -0.0695,0.0872 -5.00052,9.14206 c -0.68735,-0.70759 -3.54919,-3.69209 -6.18789,-5.74115 l -0.004,-0.004 c -2.07153,-1.63267 -3.91753,-3.26565 -6.30079,-4.99545 0.18644,-0.28618 0.45652,-0.63686 0.55455,-1.17288 l 0.008,-0.0611 0.20613,-39.00238 c 0.53956,-0.14518 4.31109,-1.13748 7.74354,-2.8119 l 0.008,-0.004 0.008,-0.004 c 1.93022,-1.01471 4.06284,-2.08426 5.14268,-2.63024 z"
       id="path7802"
       inkscape:connector-curvature="0" />
    <path
       style="color:#000000;font-style:normal;font-variant:normal;font-weight:normal;font-stretch:normal;font-size:medium;line-height:normal;font-family:sans-serif;font-variant-ligatures:normal;font-variant-position:normal;font-variant-caps:normal;font-variant-numeric:normal;font-variant-alternates:normal;font-feature-settings:normal;text-indent:0;text-align:start;text-decoration:none;text-decoration-line:none;text-decoration-style:solid;text-decoration-color:#000000;letter-spacing:normal;word-spacing:normal;text-transform:none;writing-mode:lr-tb;direction:ltr;text-orientation:mixed;dominant-baseline:auto;baseline-shift:baseline;text-anchor:start;white-space:normal;shape-padding:0;clip-rule:nonzero;display:inline;overflow:visible;visibility:visible;opacity:1;isolation:auto;mix-blend-mode:normal;color-interpolation:sRGB;color-interpolation-filters:linearRGB;solid-color:#000000;solid-opacity:1;vector-effect:none;fill:#ffffff;fill-opacity:1;fill-rule:nonzero;stroke:none;stroke-width:1.45723951;stroke-linecap:butt;stroke-linejoin:miter;stroke-miterlimit:4;stroke-dasharray:none;stroke-dashoffset:0;stroke-opacity:1;color-rendering:auto;image-rendering:auto;shape-rendering:auto;text-rendering:auto;enable-background:accumulate"
       d="m 256.62719,240.92661 -1.36916,0.80448 c 0,0 -4.90279,2.87225 -7.55216,4.03865 -2.25856,0.89953 -6.81111,2.11966 -6.81111,2.11966 l -0.53979,0.14262 -0.33373,40.67588 v 0.0158 c 0.0205,0.63882 -0.16201,1.24862 -0.34344,1.72241 l -0.29941,-0.2697 -0.22568,1.30518 c -0.006,0.0442 -0.0157,0.0954 -0.0129,0.17691 10e-4,0.044 0.004,0.0839 0.0186,0.14674 0.007,0.0337 0.0326,0.10723 0.0326,0.10856 3.6e-4,7.7e-4 0.0687,0.12733 0.0695,0.12733 4.6e-4,6.6e-4 0.0642,0.0523 0.1227,0.10833 0.0778,0.0688 0.15614,0.14676 0.15705,0.14676 2e-5,0 0.004,-1.1e-4 0.004,0 l 0.79008,0.71648 0.0182,0.0155 c 2.1711,1.71876 3.63807,3.31442 4.64216,4.21542 l 0.0329,0.0245 0.0275,0.0245 c 2.38333,1.69451 6.64434,6.55123 6.64434,6.55123 l 0.66734,0.77012 7.6405,-13.10233 -5.23596,-4.49991 0.20619,-35.04226 -0.004,-0.0324 c -0.20812,-2.5349 0.81167,-6.41576 1.36426,-9.44148 z m -1.91869,2.74819 c -0.56094,2.69867 -1.39375,5.80635 -1.18267,8.37638 l -0.21098,35.62633 4.82866,4.14654 -6.04565,10.36897 c -0.70926,-0.81453 -3.7139,-4.32748 -6.19286,-6.08991 l 0.0687,0.0518 c -0.88531,-0.79389 -2.4516,-2.482 -4.71584,-4.27418 l 0.0397,0.0244 -0.46623,-0.42191 c 0.0512,-0.10004 0.0987,-0.16647 0.15214,-0.28941 0.26584,-0.62749 0.52907,-1.52316 0.49566,-2.52716 l 0.32384,-39.54212 c 0.6064,-0.16143 4.20155,-1.10973 6.4677,-2.01683 l 0.0129,-0.004 0.008,-0.004 c 2.36973,-1.04326 5.22244,-2.73763 6.41373,-3.43018 z"
       id="path7806"
       inkscape:connector-curvature="0" />
    <path
       style="color:#000000;font-style:normal;font-variant:normal;font-weight:normal;font-stretch:normal;font-size:medium;line-height:normal;font-family:sans-serif;font-variant-ligatures:normal;font-variant-position:normal;font-variant-caps:normal;font-variant-numeric:normal;font-variant-alternates:normal;font-feature-settings:normal;text-indent:0;text-align:start;text-decoration:none;text-decoration-line:none;text-decoration-style:solid;text-decoration-color:#000000;letter-spacing:normal;word-spacing:normal;text-transform:none;writing-mode:lr-tb;direction:ltr;text-orientation:mixed;dominant-baseline:auto;baseline-shift:baseline;text-anchor:start;white-space:normal;shape-padding:0;clip-rule:nonzero;display:inline;overflow:visible;visibility:visible;opacity:1;isolation:auto;mix-blend-mode:normal;color-interpolation:sRGB;color-interpolation-filters:linearRGB;solid-color:#000000;solid-opacity:1;vector-effect:none;fill:#ffffff;fill-opacity:1;fill-rule:nonzero;stroke:none;stroke-width:1.45723951;stroke-linecap:butt;stroke-linejoin:miter;stroke-miterlimit:4;stroke-dasharray:none;stroke-dashoffset:0;stroke-opacity:1;color-rendering:auto;image-rendering:auto;shape-rendering:auto;text-rendering:auto;enable-background:accumulate"
       d="m 268.8657,252.94435 -7.12036,12.71941 3.80314,2.50265 -0.11289,22.40638 v 0.0157 c 0.0166,0.61464 -0.27274,1.15067 -0.58892,1.58006 -0.15803,0.21516 -0.31158,0.38766 -0.44654,0.56454 -0.0679,0.0864 -0.146,0.13575 -0.22077,0.39775 -0.0369,0.13148 -0.0679,0.4047 0.097,0.65245 0.16514,0.24746 0.40828,0.3184 0.53978,0.33897 l -0.0778,-0.0156 c 3.73981,1.00396 5.63734,2.01659 8.61219,3.56731 3.44739,1.91919 8.07723,6.46794 8.07723,6.46794 l 0.67715,0.66743 7.14484,-12.48857 -8.52861,-6.42845 0.1276,-24.85004 z m 0.50053,2.09542 10.0205,6.76701 -0.12763,24.80591 8.08708,6.09455 -5.61385,9.81453 c -0.6859,-0.67536 -4.19461,-4.1997 -7.67486,-6.13397 h -0.009 l -0.009,-0.004 c -2.68629,-1.40056 -4.85236,-2.37312 -8.0429,-3.32223 0.009,-0.008 0.0122,-0.0158 0.0237,-0.0245 0.40316,-0.54729 0.9056,-1.3973 0.87347,-2.48796 l 0.11286,-23.16175 -0.3288,-0.21603 -2.9983,-1.97266 z"
       id="path7810"
       inkscape:connector-curvature="0" />
    <path
       style="color:#000000;font-style:normal;font-variant:normal;font-weight:normal;font-stretch:normal;font-size:medium;line-height:normal;font-family:sans-serif;font-variant-ligatures:normal;font-variant-position:normal;font-variant-caps:normal;font-variant-numeric:normal;font-variant-alternates:normal;font-feature-settings:normal;text-indent:0;text-align:start;text-decoration:none;text-decoration-line:none;text-decoration-style:solid;text-decoration-color:#000000;letter-spacing:normal;word-spacing:normal;text-transform:none;writing-mode:lr-tb;direction:ltr;text-orientation:mixed;dominant-baseline:auto;baseline-shift:baseline;text-anchor:start;white-space:normal;shape-padding:0;clip-rule:nonzero;display:inline;overflow:visible;visibility:visible;opacity:1;isolation:auto;mix-blend-mode:normal;color-interpolation:sRGB;color-interpolation-filters:linearRGB;solid-color:#000000;solid-opacity:1;vector-effect:none;fill:#ffffff;fill-opacity:1;fill-rule:nonzero;stroke:none;stroke-width:1.45723951;stroke-linecap:butt;stroke-linejoin:miter;stroke-miterlimit:4;stroke-dasharray:none;stroke-dashoffset:0;stroke-opacity:1;color-rendering:auto;image-rendering:auto;shape-rendering:auto;text-rendering:auto;enable-background:accumulate"
       d="m 290.84999,252.92958 -11.45831,10.00579 9.1666,6.31571 0.0649,23.96157 0.47596,0.17159 c 0,0 5.40432,2.00041 9.50037,4.72585 l 0.009,0.004 0.009,0.004 c 2.21047,1.39177 4.20366,3.17237 5.5893,4.58808 0.69275,0.70808 1.23619,1.32726 1.57029,1.74715 0.0435,0.0519 0.0489,0.0688 0.0824,0.11282 l -0.60356,0.59321 1.38376,0.25038 c 0.0424,0.006 0.0906,0.008 0.15195,0.008 0.0618,-9.7e-4 0.21413,-0.0335 0.21586,-0.0335 10e-4,-5.9e-4 0.24905,-0.13664 0.25032,-0.13753 1.3e-4,-1.7e-4 0.0166,-0.0245 0.0237,-0.0325 l 0.0198,-0.0155 0.87346,-0.85871 0.009,-0.008 c 4.65814,-4.89271 9.06261,-8.39444 12.31207,-10.71747 1.62471,-1.16138 2.95935,-2.0262 3.89632,-2.62528 0.46839,-0.29966 0.83778,-0.53453 1.10414,-0.71121 0.13302,-0.0871 0.23793,-0.16058 0.33363,-0.23562 0.0489,-0.0335 0.0943,-0.0764 0.15221,-0.1324 0.0267,-0.0244 0.0595,-0.0611 0.0971,-0.11784 0.0194,-0.0245 0.0472,-0.0688 0.0687,-0.11779 0.0222,-0.0523 0.0604,-0.19378 0.0604,-0.19641 l 0.0275,-0.17155 -0.0554,-0.16654 c -0.23035,-0.73168 -0.65931,-2.00873 -0.53978,-4.61276 v -0.016 l 0.0971,-14.65792 v -0.0153 c -0.16869,-3.0568 -0.0417,-5.55367 1.3788,-7.8172 l 0.40732,-0.64804 -14.66266,-8.19018 -9.90281,9.43653 0.0236,-1.66348 z m 0.1226,1.82539 10.54556,6.9682 -0.3484,24.1288 11.63004,6.77205 0.12262,-24.4626 -8.36186,-5.05441 8.53359,-8.1361 12.53298,7.0027 c -1.27136,2.44781 -1.49758,5.07072 -1.33966,7.93486 l -0.097,14.57447 0.004,-0.0244 c -0.11454,2.4988 0.29394,3.76653 0.5398,4.57847 -0.0166,0.008 -0.0194,0.0158 -0.0393,0.0245 -0.23941,0.15877 -0.6123,0.39012 -1.0845,0.69155 -0.94454,0.60371 -2.30199,1.48768 -3.95522,2.66952 -3.30645,2.36361 -7.78803,5.93055 -12.5231,10.9036 l 0.0138,-0.0157 -0.23536,0.23051 c -0.37714,-0.47294 -0.93923,-1.11495 -1.65863,-1.84999 -1.44338,-1.47502 -3.5024,-3.31208 -5.84448,-4.78926 l -0.004,-0.004 c -4.102,-2.72731 -8.83181,-4.45453 -9.32363,-4.6372 l -0.0649,-23.77042 -8.25392,-5.68736 z m 11.97354,9.07832 8.51396,5.14763 -0.10815,21.11587 -8.71024,-5.07413 z"
       id="path7822"
       inkscape:connector-curvature="0" />
    <path
       style="color:#000000;font-style:normal;font-variant:normal;font-weight:normal;font-stretch:normal;font-size:medium;line-height:normal;font-family:sans-serif;font-variant-ligatures:normal;font-variant-position:normal;font-variant-caps:normal;font-variant-numeric:normal;font-variant-alternates:normal;font-feature-settings:normal;text-indent:0;text-align:start;text-decoration:none;text-decoration-line:none;text-decoration-style:solid;text-decoration-color:#000000;letter-spacing:normal;word-spacing:normal;text-transform:none;writing-mode:lr-tb;direction:ltr;text-orientation:mixed;dominant-baseline:auto;baseline-shift:baseline;text-anchor:start;white-space:normal;shape-padding:0;clip-rule:nonzero;display:inline;overflow:visible;visibility:visible;opacity:1;isolation:auto;mix-blend-mode:normal;color-interpolation:sRGB;color-interpolation-filters:linearRGB;solid-color:#000000;solid-opacity:1;vector-effect:none;fill:#ffffff;fill-opacity:1;fill-rule:nonzero;stroke:none;stroke-width:1.45723951;stroke-linecap:butt;stroke-linejoin:miter;stroke-miterlimit:4;stroke-dasharray:none;stroke-dashoffset:0;stroke-opacity:1;color-rendering:auto;image-rendering:auto;shape-rendering:auto;text-rendering:auto;enable-background:accumulate"
       d="m 356.71915,252.17877 -0.48083,0.35785 c -9.12425,6.76934 -13.70498,6.87116 -20.49737,9.8046 l -0.009,0.004 -2.11014,0.9911 0.12264,0.56946 c 0,0 0.96652,4.51702 1.06482,11.93437 -0.2007,9.12555 -0.5031,12.75182 -1.48193,16.22332 l -0.009,0.0322 -0.004,0.0244 c -0.0511,0.26881 0.0569,0.47889 0.12755,0.58392 0.0725,0.10536 0.1342,0.15367 0.18641,0.19633 0.10453,0.084 0.18672,0.12895 0.28471,0.18199 0.19596,0.10451 0.43565,0.21094 0.73608,0.33903 0.60064,0.25515 1.43363,0.58643 2.4192,0.99602 1.97113,0.81978 4.54708,1.95879 6.94856,3.39083 l 0.009,0.004 0.009,0.004 c 2.23948,1.23176 4.52564,2.98764 6.25175,4.39687 0.86306,0.70452 1.58618,1.32172 2.1101,1.75195 0.26193,0.21512 0.46876,0.38076 0.64772,0.50557 0.0881,0.061 0.16063,0.117 0.30433,0.17653 0.0718,0.0339 0.15478,0.0764 0.38761,0.0611 0.0595,-0.004 0.19896,-0.0442 0.20121,-0.0442 0.003,-7.8e-4 0.22417,-0.13573 0.22562,-0.13757 6.8e-4,-7.8e-4 0.0521,-0.0611 0.0971,-0.12294 l -0.0193,0.0438 c 4.52176,-5.23665 9.20602,-8.84989 12.76356,-11.19324 1.77877,-1.17155 3.27334,-2.02203 4.33307,-2.6057 0.52982,-0.29188 0.94914,-0.51914 1.25129,-0.68724 0.15105,-0.0839 0.27128,-0.15112 0.37781,-0.22124 0.0539,-0.0323 0.10198,-0.0687 0.16683,-0.12288 0.031,-0.0245 0.0695,-0.061 0.11787,-0.12291 0.0237,-0.0328 0.0503,-0.0687 0.0778,-0.12294 0.014,-0.0245 0.0283,-0.0611 0.0458,-0.097 0.0139,-0.0324 0.0326,-0.13143 0.0326,-0.13219 l 0.009,-0.0519 0.22083,-17.37641 v -0.007 c 0,-1.9447 0.40259,-4.22474 0.82435,-6.5314 l 0.0926,-0.48603 -0.42208,-0.26459 c 0,0 -6.19903,-3.83784 -10.1186,-6.24196 l -0.004,-0.004 c -2.10807,-1.32781 -6.84553,-5.59918 -6.84553,-5.59918 z m -0.12261,1.81571 c 0.48432,0.44061 4.34305,3.97527 6.64432,5.42258 h 0.004 v 0.004 c 3.75931,2.30583 9.26549,5.71923 9.72114,6.00147 -0.38935,2.14042 -0.78518,4.3034 -0.78518,6.28606 l -0.21585,16.93489 c -0.0336,0.0157 -0.048,0.0245 -0.0868,0.0522 -0.27956,0.15536 -0.70256,0.38004 -1.24154,0.67704 -1.07798,0.59334 -2.61535,1.47016 -4.43616,2.66957 -3.52388,2.32101 -8.12694,5.93126 -12.61627,11.01653 -0.0904,-0.0688 -0.14127,-0.108 -0.26016,-0.20563 -0.50394,-0.41417 -1.2382,-1.04098 -2.11498,-1.75675 -1.75365,-1.43165 -4.08906,-3.23327 -6.47262,-4.54428 -2.49532,-1.48507 -5.12019,-2.64648 -7.11051,-3.47409 -0.99846,-0.41506 -1.83991,-0.74471 -2.40939,-0.98631 -0.19923,-0.084 -0.31038,-0.14346 -0.43186,-0.20152 0.94701,-3.54198 1.28766,-7.17664 1.48197,-16.02703 v -0.0157 -0.008 c -0.0926,-7.18442 -0.95621,-11.20817 -1.04522,-11.63977 l 1.09917,-0.51596 0.0193,-0.008 c 6.42308,-2.76984 11.3568,-3.22014 20.25691,-9.6769 z m -21.85661,38.37416 c -0.001,0.008 0.007,0.016 0.004,0.0244 l -0.014,0.0611 c 0.004,-0.0153 0.004,-0.0764 0.009,-0.0923 z"
       id="path7826"
       inkscape:connector-curvature="0" />
    <path
       style="color:#000000;font-style:normal;font-variant:normal;font-weight:normal;font-stretch:normal;font-size:medium;line-height:normal;font-family:sans-serif;font-variant-ligatures:normal;font-variant-position:normal;font-variant-caps:normal;font-variant-numeric:normal;font-variant-alternates:normal;font-feature-settings:normal;text-indent:0;text-align:start;text-decoration:none;text-decoration-line:none;text-decoration-style:solid;text-decoration-color:#000000;letter-spacing:normal;word-spacing:normal;text-transform:none;writing-mode:lr-tb;direction:ltr;text-orientation:mixed;dominant-baseline:auto;baseline-shift:baseline;text-anchor:start;white-space:normal;shape-padding:0;clip-rule:nonzero;display:inline;overflow:visible;visibility:visible;opacity:1;isolation:auto;mix-blend-mode:normal;color-interpolation:sRGB;color-interpolation-filters:linearRGB;solid-color:#000000;solid-opacity:1;vector-effect:none;fill:#ffffff;fill-opacity:1;fill-rule:nonzero;stroke:none;stroke-width:1.45723951;stroke-linecap:butt;stroke-linejoin:miter;stroke-miterlimit:4;stroke-dasharray:none;stroke-dashoffset:0;stroke-opacity:1;color-rendering:auto;image-rendering:auto;shape-rendering:auto;text-rendering:auto;enable-background:accumulate"
       d="m 344.18619,241.29452 c -3.66259,-0.24578 -6.63615,2.99448 -6.90935,6.69361 l -0.004,0.0442 v 0.0329 c 0.12315,3.80736 3.24708,6.65196 6.82596,6.91925 l 0.0328,0.004 0.0395,-0.004 c 3.67523,-0.0932 7.04787,-3.23694 6.91913,-7.11062 v -0.008 -0.004 c -0.18494,-3.49121 -3.20792,-6.63208 -6.90441,-6.56086 z m -0.0688,1.43805 0.0328,0.004 h 0.0403 c 2.84292,-0.0764 5.297,2.49487 5.44208,5.18692 0.0945,2.96362 -2.62781,5.49208 -5.46171,5.5893 -2.84836,-0.23138 -5.30041,-2.46095 -5.42244,-5.45679 0.24278,-2.9792 2.6341,-5.52942 5.36846,-5.32421 z"
       id="path7830"
       inkscape:connector-curvature="0" />
    <path
       style="color:#000000;font-style:normal;font-variant:normal;font-weight:normal;font-stretch:normal;font-size:medium;line-height:normal;font-family:sans-serif;font-variant-ligatures:normal;font-variant-position:normal;font-variant-caps:normal;font-variant-numeric:normal;font-variant-alternates:normal;font-feature-settings:normal;text-indent:0;text-align:start;text-decoration:none;text-decoration-line:none;text-decoration-style:solid;text-decoration-color:#000000;letter-spacing:normal;word-spacing:normal;text-transform:none;writing-mode:lr-tb;direction:ltr;text-orientation:mixed;dominant-baseline:auto;baseline-shift:baseline;text-anchor:start;white-space:normal;shape-padding:0;clip-rule:nonzero;display:inline;overflow:visible;visibility:visible;opacity:1;isolation:auto;mix-blend-mode:normal;color-interpolation:sRGB;color-interpolation-filters:linearRGB;solid-color:#000000;solid-opacity:1;vector-effect:none;fill:#ffffff;fill-opacity:1;fill-rule:nonzero;stroke:none;stroke-width:1.45723951;stroke-linecap:butt;stroke-linejoin:miter;stroke-miterlimit:4;stroke-dasharray:none;stroke-dashoffset:0;stroke-opacity:1;color-rendering:auto;image-rendering:auto;shape-rendering:auto;text-rendering:auto;enable-background:accumulate"
       d="m 367.75054,241.11317 c -3.69677,0.097 -6.66265,3.28026 -6.87495,6.72283 l -0.004,0.0327 0.004,0.0328 c 0.12583,3.78049 3.14898,6.97614 6.85039,6.90444 3.66345,0.24771 7.03388,-2.92528 6.90936,-6.78176 -0.12133,-3.75103 -2.92851,-6.5782 -6.8063,-6.90924 l -0.0396,-0.004 z m 0,1.47688 c 3.23286,0.29812 5.32834,2.42266 5.42734,5.48147 0.0952,2.9777 -2.62426,5.4986 -5.37826,5.29475 h -0.0328 -0.0405 c -2.8382,0.0764 -5.26189,-2.44431 -5.38318,-5.47142 0.18211,-2.61453 2.58481,-5.2025 5.40775,-5.3048 z"
       id="path7834"
       inkscape:connector-curvature="0" />
    <path
       style="color:#000000;font-style:normal;font-variant:normal;font-weight:normal;font-stretch:normal;font-size:medium;line-height:normal;font-family:sans-serif;font-variant-ligatures:normal;font-variant-position:normal;font-variant-caps:normal;font-variant-numeric:normal;font-variant-alternates:normal;font-feature-settings:normal;text-indent:0;text-align:start;text-decoration:none;text-decoration-line:none;text-decoration-style:solid;text-decoration-color:#000000;letter-spacing:normal;word-spacing:normal;text-transform:none;writing-mode:lr-tb;direction:ltr;text-orientation:mixed;dominant-baseline:auto;baseline-shift:baseline;text-anchor:start;white-space:normal;shape-padding:0;clip-rule:nonzero;display:inline;overflow:visible;visibility:visible;opacity:1;isolation:auto;mix-blend-mode:normal;color-interpolation:sRGB;color-interpolation-filters:linearRGB;solid-color:#000000;solid-opacity:1;vector-effect:none;fill:#ffffff;fill-opacity:1;fill-rule:nonzero;stroke:none;stroke-width:1.45723951;stroke-linecap:butt;stroke-linejoin:miter;stroke-miterlimit:4;stroke-dasharray:none;stroke-dashoffset:0;stroke-opacity:1;color-rendering:auto;image-rendering:auto;shape-rendering:auto;text-rendering:auto;enable-background:accumulate"
       d="m 387.90929,252.93448 -8.82805,13.17105 3.94043,2.19349 -0.22553,20.96825 v 0.004 c -0.002,1.93533 -0.42943,3.36152 -0.84893,4.30373 -0.41963,0.94216 -0.79501,1.35433 -0.79501,1.35433 l -0.61827,0.69675 14.28486,7.46389 9.38251,-11.88525 -6.34989,-3.32726 0.15199,-19.20169 9.39238,6.84052 8.63177,-12.35615 -12.87651,-10.15799 -5.75122,7.78766 z m 15.51652,2.14436 10.6192,8.37686 -6.99273,10.01039 -10.4867,-7.63536 -0.1816,22.92635 5.5844,2.92473 -7.54729,9.55922 -11.71346,-6.11922 c 0.20199,-0.29217 0.29788,-0.34254 0.56923,-0.95222 0.49226,-1.10523 0.97429,-2.74375 0.9765,-4.89234 v -0.004 l 0.23544,-21.82716 -0.37788,-0.21076 -2.93453,-1.62936 7.04674,-10.52083 9.43162,7.81715 z"
       id="path7838"
       inkscape:connector-curvature="0" />
    <path
       style="color:#000000;font-style:normal;font-variant:normal;font-weight:normal;font-stretch:normal;font-size:medium;line-height:normal;font-family:sans-serif;font-variant-ligatures:normal;font-variant-position:normal;font-variant-caps:normal;font-variant-numeric:normal;font-variant-alternates:normal;font-feature-settings:normal;text-indent:0;text-align:start;text-decoration:none;text-decoration-line:none;text-decoration-style:solid;text-decoration-color:#000000;letter-spacing:normal;word-spacing:normal;text-transform:none;writing-mode:lr-tb;direction:ltr;text-orientation:mixed;dominant-baseline:auto;baseline-shift:baseline;text-anchor:start;white-space:normal;shape-padding:0;clip-rule:nonzero;display:inline;overflow:visible;visibility:visible;opacity:1;isolation:auto;mix-blend-mode:normal;color-interpolation:sRGB;color-interpolation-filters:linearRGB;solid-color:#000000;solid-opacity:1;vector-effect:none;fill:#ffffff;fill-opacity:1;fill-rule:nonzero;stroke:none;stroke-width:1.45723951;stroke-linecap:butt;stroke-linejoin:miter;stroke-miterlimit:4;stroke-dasharray:none;stroke-dashoffset:0;stroke-opacity:1;color-rendering:auto;image-rendering:auto;shape-rendering:auto;text-rendering:auto;enable-background:accumulate"
       d="m 430.30251,263.47997 -0.0604,22.47992 10.8105,7.4687 v -1.38862 l -0.0138,-18.36264 z m 1.44762,3.3813 7.83191,7.43903 0.0138,16.35107 -7.8957,-5.45222 z"
       id="path7842"
       inkscape:connector-curvature="0" />
    <path
       style="color:#000000;font-style:normal;font-variant:normal;font-weight:normal;font-stretch:normal;font-size:medium;line-height:normal;font-family:sans-serif;font-variant-ligatures:normal;font-variant-position:normal;font-variant-caps:normal;font-variant-numeric:normal;font-variant-alternates:normal;font-feature-settings:normal;text-indent:0;text-align:start;text-decoration:none;text-decoration-line:none;text-decoration-style:solid;text-decoration-color:#000000;letter-spacing:normal;word-spacing:normal;text-transform:none;writing-mode:lr-tb;direction:ltr;text-orientation:mixed;dominant-baseline:auto;baseline-shift:baseline;text-anchor:start;white-space:normal;shape-padding:0;clip-rule:nonzero;display:inline;overflow:visible;visibility:visible;opacity:1;isolation:auto;mix-blend-mode:normal;color-interpolation:sRGB;color-interpolation-filters:linearRGB;solid-color:#000000;solid-opacity:1;vector-effect:none;fill:#ffffff;fill-opacity:1;fill-rule:nonzero;stroke:none;stroke-width:1.45723951;stroke-linecap:butt;stroke-linejoin:miter;stroke-miterlimit:4;stroke-dasharray:none;stroke-dashoffset:0;stroke-opacity:1;color-rendering:auto;image-rendering:auto;shape-rendering:auto;text-rendering:auto;enable-background:accumulate"
       d="m 425.32173,241.85895 -6.71304,14.98172 6.8014,5.35375 -9.44636,4.16134 0.34833,0.68718 c 0,0 1.24929,2.46862 1.02073,5.60887 v 0.0157 l -0.15704,14.98652 v 0.0156 c 0.0458,1.40563 -0.82931,2.81166 -0.82931,2.81166 l -0.50545,0.76087 0.85877,0.31917 c 7.03659,2.61623 12.73789,6.64642 18.58847,12.10105 l 0.49558,0.46107 0.49568,-0.45583 c 0,0 4.33058,-3.95455 8.10177,-6.99762 4.47909,-2.88618 8.90166,-5.48149 8.90166,-5.48149 l 0.36311,-0.21086 -0.009,-22.85759 z m 0.50051,2.44881 26.35649,24.45261 0.009,21.39532 c -0.33469,0.19627 -4.28642,2.51064 -8.64154,5.3194 l -0.0328,0.0245 -0.0275,0.0245 c -3.61315,2.91334 -7.25682,6.24682 -7.71408,6.66382 -5.59054,-5.1405 -11.21386,-9.06624 -17.97509,-11.68871 0.29807,-0.50982 0.88853,-1.29693 0.83916,-2.87083 l 0.15218,-14.87354 v -0.004 c 0.20784,-2.8728 -0.54729,-4.82319 -0.90293,-5.6434 l 10.33455,-4.56369 -0.95197,-0.74619 -6.86026,-5.39773 z"
       id="path7846"
       inkscape:connector-curvature="0" />
    <path
       style="color:#000000;font-style:normal;font-variant:normal;font-weight:normal;font-stretch:normal;font-size:medium;line-height:normal;font-family:sans-serif;font-variant-ligatures:normal;font-variant-position:normal;font-variant-caps:normal;font-variant-numeric:normal;font-variant-alternates:normal;font-feature-settings:normal;text-indent:0;text-align:start;text-decoration:none;text-decoration-line:none;text-decoration-style:solid;text-decoration-color:#000000;letter-spacing:normal;word-spacing:normal;text-transform:none;writing-mode:lr-tb;direction:ltr;text-orientation:mixed;dominant-baseline:auto;baseline-shift:baseline;text-anchor:start;white-space:normal;shape-padding:0;clip-rule:nonzero;display:inline;overflow:visible;visibility:visible;opacity:1;isolation:auto;mix-blend-mode:normal;color-interpolation:sRGB;color-interpolation-filters:linearRGB;solid-color:#000000;solid-opacity:1;vector-effect:none;fill:#ffffff;fill-opacity:1;fill-rule:nonzero;stroke:none;stroke-width:1.45723951;stroke-linecap:butt;stroke-linejoin:miter;stroke-miterlimit:4;stroke-dasharray:none;stroke-dashoffset:0;stroke-opacity:1;color-rendering:auto;image-rendering:auto;shape-rendering:auto;text-rendering:auto;enable-background:accumulate"
       d="m 478.54019,252.57149 -0.5937,0.51989 c 0,0 -3.85801,3.37442 -7.98402,6.33515 -4.50319,3.20962 -10.45229,6.20749 -10.45229,6.20749 l -0.55449,0.28004 0.18641,0.58917 c 0.19064,0.60298 0.54345,1.00944 0.87837,1.698 0.33444,0.68722 0.66408,1.5886 0.77041,2.86571 1.7e-4,0.003 -1.7e-4,0.003 0,0.004 l -0.33374,17.93561 v 0.0245 c 0.074,1.40881 -0.2702,2.38434 -0.61828,3.01786 -0.34808,0.63354 -0.65267,0.87839 -0.65267,0.87839 l -0.87839,0.72137 1.02069,0.49533 20.58569,10.01086 7.8564,-12.21917 -9.31387,-4.38694 15.80113,-21.31203 -0.79,-0.38241 c 0,0 -3.23809,-1.58192 -7.26269,-4.98573 h -0.004 c -2.76968,-2.52022 -5.49328,-5.37631 -7.18906,-7.66015 z m -0.18635,2.05595 c 1.79394,2.30979 4.25138,4.94205 6.88484,7.33636 l 0.009,0.008 0.009,0.008 c 3.76348,3.18386 6.30001,4.41115 6.86027,4.69604 l -15.88952,21.42983 9.41203,4.44089 -6.25182,9.73114 -18.63254,-9.06369 c 0.15828,-0.19986 0.1972,-0.16398 0.36315,-0.46624 0.46175,-0.84024 0.88433,-2.11153 0.79496,-3.79824 l 0.33367,-17.96504 -0.004,-0.0442 c -0.12211,-1.47634 -0.52076,-2.58053 -0.91276,-3.38606 -0.2621,-0.53867 -0.38473,-0.73594 -0.53491,-1.00113 0.64533,-0.32687 5.64324,-2.83471 10.01559,-5.95234 h 0.004 c 3.91637,-2.81042 7.0599,-5.56681 7.53747,-5.98189 z"
       id="path7850"
       inkscape:connector-curvature="0" />
    <path
       style="color:#000000;font-style:normal;font-variant:normal;font-weight:normal;font-stretch:normal;font-size:medium;line-height:normal;font-family:sans-serif;font-variant-ligatures:normal;font-variant-position:normal;font-variant-caps:normal;font-variant-numeric:normal;font-variant-alternates:normal;font-feature-settings:normal;text-indent:0;text-align:start;text-decoration:none;text-decoration-line:none;text-decoration-style:solid;text-decoration-color:#000000;letter-spacing:normal;word-spacing:normal;text-transform:none;writing-mode:lr-tb;direction:ltr;text-orientation:mixed;dominant-baseline:auto;baseline-shift:baseline;text-anchor:start;white-space:normal;shape-padding:0;clip-rule:nonzero;display:inline;overflow:visible;visibility:visible;opacity:1;isolation:auto;mix-blend-mode:normal;color-interpolation:sRGB;color-interpolation-filters:linearRGB;solid-color:#000000;solid-opacity:1;vector-effect:none;fill:#ffffff;fill-opacity:1;fill-rule:nonzero;stroke:none;stroke-width:1.45723951;stroke-linecap:butt;stroke-linejoin:miter;stroke-miterlimit:4;stroke-dasharray:none;stroke-dashoffset:0;stroke-opacity:1;color-rendering:auto;image-rendering:auto;shape-rendering:auto;text-rendering:auto;enable-background:accumulate"
       d="m 473.91766,266.87594 -0.009,1.74204 -0.1128,18.86805 8.87219,-11.88027 z m 1.43782,3.4889 5.38806,5.37845 -5.4617,7.31653 z"
       id="path7854"
       inkscape:connector-curvature="0" />
    <path
       style="color:#000000;font-style:normal;font-variant:normal;font-weight:normal;font-stretch:normal;font-size:medium;line-height:normal;font-family:sans-serif;font-variant-ligatures:normal;font-variant-position:normal;font-variant-caps:normal;font-variant-numeric:normal;font-variant-alternates:normal;font-feature-settings:normal;text-indent:0;text-align:start;text-decoration:none;text-decoration-line:none;text-decoration-style:solid;text-decoration-color:#000000;letter-spacing:normal;word-spacing:normal;text-transform:none;writing-mode:lr-tb;direction:ltr;text-orientation:mixed;dominant-baseline:auto;baseline-shift:baseline;text-anchor:start;white-space:normal;shape-padding:0;clip-rule:nonzero;display:inline;overflow:visible;visibility:visible;opacity:1;isolation:auto;mix-blend-mode:normal;color-interpolation:sRGB;color-interpolation-filters:linearRGB;solid-color:#000000;solid-opacity:1;vector-effect:none;fill:#ffffff;fill-opacity:1;fill-rule:nonzero;stroke:none;stroke-width:1.45723951;stroke-linecap:butt;stroke-linejoin:miter;stroke-miterlimit:4;stroke-dasharray:none;stroke-dashoffset:0;stroke-opacity:1;color-rendering:auto;image-rendering:auto;shape-rendering:auto;text-rendering:auto;enable-background:accumulate"
       d="m 504.23922,253.44482 -8.35207,12.83714 3.96505,3.59202 -0.13246,29.11467 15.1534,4.99548 0.0824,-36.22488 7.71904,6.25669 -0.34352,22.08217 10.76142,8.24892 8.58764,-12.01754 -4.34285,-3.67552 0.23544,-23.5546 -0.39261,-0.20568 c 0,0 -3.93849,-2.05228 -7.38043,-4.6716 l -0.004,-0.004 c -2.79003,-2.17627 -7.11538,-6.34981 -7.11538,-6.34981 l -0.41712,-0.40223 -0.48581,0.31426 c -0.23037,0.14846 -0.38252,0.30556 -0.61837,0.54462 -0.23587,0.23912 -0.51953,0.54402 -0.83911,0.89797 -0.63915,0.70874 -1.42687,1.62194 -2.26218,2.60087 -1.49157,1.74776 -3.01856,3.56943 -4.16132,4.90713 z m 17.93575,1.92364 c 0.53936,0.52004 4.00897,3.88199 6.72776,6.00147 l 0.004,0.004 h 0.004 c 3.39079,2.58181 6.8126,4.36074 7.19883,4.56367 l -0.24045,23.38758 3.84237,3.24869 -6.92896,9.69661 -8.98017,-6.88494 0.33856,-22.05777 -10.63389,-8.62193 -0.0925,37.26519 -12.23367,-4.03865 0.13246,-28.70204 -0.24046,-0.21601 -3.28778,-2.98361 6.71299,-10.31013 9.50039,9.13244 0.5005,-0.58397 c 1.1544,-1.33839 3.00412,-3.55287 4.66669,-5.50109 0.83131,-0.97418 1.61562,-1.8815 2.23769,-2.57144 0.30362,-0.33636 0.56236,-0.61725 0.77042,-0.82904 z"
       id="path7858"
       inkscape:connector-curvature="0" />
  </g>
</svg>
