<?xml version="1.0" encoding="utf-8"?>
<!-- Generator: Adobe Illustrator 14.0.0, SVG Export Plug-In . SVG Version: 6.00 Build 43363)  -->
<!DOCTYPE svg PUBLIC "-//W3C//DTD SVG 1.1//EN" "http://www.w3.org/Graphics/SVG/1.1/DTD/svg11.dtd">
<svg version="1.1" id="Layer_1" xmlns="http://www.w3.org/2000/svg" xmlns:xlink="http://www.w3.org/1999/xlink" x="0px" y="0px"
	 viewBox="0 0 340 69" enable-background="new 0 0 340 69" xml:space="preserve">
<g>
	<path fill="#004B93" d="M38.423,25.848h-4.804c-0.329,0-0.597,0.27-0.597,0.597v15.924c0,0.329,0.268,0.6,0.597,0.6h4.804
		c0.329,0,0.597-0.271,0.597-0.6V26.445C39.02,26.118,38.752,25.848,38.423,25.848"/>
	<path fill="#004B93" d="M129.179,25.848h-4.803c-0.33,0-0.599,0.27-0.599,0.597v15.924c0,0.329,0.269,0.6,0.599,0.6h4.803
		c0.329,0,0.597-0.271,0.597-0.6V26.445C129.775,26.118,129.508,25.848,129.179,25.848"/>
	<path fill="#004B93" d="M165.837,25.859c-0.328,0-0.597,0.269-0.597,0.597c0.005,0.033,1.793,6.705,1.793,6.705
		c0.069,0.279-0.093,1.44-1.264,5.378l-0.097,0.326c-0.016,0.062-0.046,0.086-0.064,0.086c-0.051-0.121-3.438-11.967-3.599-12.55
		c-0.128-0.458-0.321-0.542-0.652-0.542h-4.953c-0.33,0-0.596,0.269-0.596,0.597c0.002,0.033,4.34,15.956,4.34,15.956
		c-0.006,0.297,0.263,0.566,0.593,0.566h5.014c0.2,0,0.466-0.098,0.593-0.566c0,0,1.413-5.189,1.615-5.938
		c0.197,0.729,1.617,5.938,1.617,5.938c0.101,0.377,0.299,0.566,0.592,0.566c0,0.008,5.517,0,5.517,0
		c0.209,0,0.484-0.098,0.593-0.57l4.335-15.919v-0.008c0-0.355-0.267-0.622-0.594-0.622l-0.734,0.004
		c-0.455,0.017-0.605,0.536-0.611,0.556c0,0.004-3.459,12.536-3.459,12.536c-0.027,0.095-0.068,0.127-0.083,0.127
		c-0.021,0-0.085-0.053-0.124-0.207l-3.4-12.45c0.006-0.297-0.262-0.565-0.59-0.565H165.837"/>
	<path fill="#004B93" d="M106.136,38.625c-0.021-2.156-1.02-3.358-1.5-3.938c0,0-0.213-0.283-0.215-0.286
		c0.014,0.003,0.194-0.213,0.194-0.213c0.486-0.519,1.497-1.597,1.521-3.995c0.016-1.609-0.689-2.66-1.286-3.262
		c-0.749-0.755-1.598-1.081-1.862-1.08L92.184,25.85c-0.33,0-0.598,0.27-0.598,0.597v15.924c0,0.329,0.268,0.6,0.598,0.6
		l10.804-0.016c0.605-0.002,1.311-0.348,1.883-0.928c0.817-0.828,1.267-2.012,1.267-3.346
		C106.137,38.664,106.137,38.644,106.136,38.625 M99.854,39.843c-0.74,0.645-1.92,0.594-2.256,0.562V36.16
		c0.347-0.027,1.521-0.065,2.254,0.576c0.413,0.361,0.622,0.884,0.622,1.557C100.475,38.964,100.266,39.49,99.854,39.843z
		 M99.854,32.263c-0.74,0.645-1.92,0.59-2.256,0.562v-4.244c0.346-0.027,1.52-0.067,2.254,0.574
		c0.413,0.361,0.622,0.886,0.622,1.558C100.475,31.385,100.266,31.907,99.854,32.263z"/>
	<path fill="#004B93" d="M254.491,32.249c-0.74,0.644-1.92,0.589-2.258,0.561v-4.244c0.35-0.026,1.521-0.067,2.258,0.576
		c0.408,0.359,0.619,0.884,0.619,1.556C255.11,31.37,254.903,31.892,254.491,32.249 M259.267,34.173
		c0.449-0.48,1.496-1.596,1.521-3.995V30.13c0-1.584-0.699-2.622-1.291-3.218c-0.748-0.755-1.592-1.077-1.859-1.077h-10.822
		c-0.326,0-0.596,0.269-0.596,0.597v15.924c0,0.328,0.27,0.597,0.596,0.597l4.771,0.002c0.369-0.004,0.646-0.261,0.646-0.602v-5.337
		c-0.004-0.583-0.004-0.904,0.111-1.021c0.102-0.103,0.377-0.103,0.83-0.104c0.324,0,0.662,0.154,0.932,0.426
		c0.297,0.293,0.646,0.855,0.646,1.868v4.167c0,0.358,0.283,0.602,0.553,0.602h4.889c0.283,0,0.594-0.189,0.594-0.602v-3.747
		c0-2.157-1.01-3.356-1.498-3.935c0,0-0.217-0.284-0.217-0.286C259.089,34.385,259.267,34.173,259.267,34.173"/>
	<path fill="#004B93" d="M217.927,25.831c-0.168,0.01-3.926,0.314-3.926,8.664c0,8.358,3.764,8.454,3.926,8.454h10.027
		c0.33,0,0.598-0.268,0.598-0.597l0.008-8.451c-0.006-0.334-0.279-0.604-0.615-0.604l-4.676,0.004c-0.316,0-0.604,0.293-0.604,0.615
		l-0.002,5.865c-0.008,0.533-0.631,0.929-1.189,0.929c-0.57,0-1.211-0.382-1.217-0.929l0.006-1.893l-0.006-6.299
		c0.244-2.316,2.102-3.166,2.479-3.173l5.227-0.107c0.365-0.007,0.584-0.201,0.592-0.519c0-0.001-0.002-1.364-0.002-1.364
		c0-0.327-0.268-0.596-0.598-0.596H217.927"/>
	<path fill="#004B93" d="M135.39,25.878c-0.034,0-3.466,0.257-3.498,4.39c-0.018,2.335,1.707,4.248,3.095,5.786
		c0.919,1.017,1.712,1.896,1.7,2.579c-0.026,1.45-0.54,2.185-1.527,2.183c-0.519,0-1.5-0.443-2.151-0.736l-0.776-0.3
		c-0.33,0-0.578,0.333-0.578,0.63l0.005,1.957l0.147,0.369c0.181,0.183,0.517,0.277,1.006,0.279l5.466-0.081
		c0.787-0.007,1.681-0.441,2.391-1.163c0.698-0.711,1.526-2.008,1.505-4.146c-0.02-2.514-2.133-4.911-3.532-6.498
		c-0.545-0.619-1.018-1.156-1.095-1.417c-0.242-0.848,0.18-1.172,0.638-1.435c0.254-0.144,1.376,0.086,2.046,0.22l0.853,0.144
		c0.393-0.02,0.658-0.277,0.673-0.662c0,0.003,0.005-1.531,0.005-1.531c0-0.329-0.266-0.601-0.595-0.601L135.39,25.878"/>
	<path fill="#004B93" d="M147.263,25.878c-0.035,0-3.465,0.257-3.498,4.39c-0.017,2.335,1.707,4.248,3.095,5.786
		c0.919,1.017,1.712,1.896,1.699,2.579c-0.025,1.45-0.539,2.185-1.527,2.183c-0.517,0-1.5-0.443-2.15-0.736l-0.778-0.3
		c-0.329,0-0.575,0.333-0.575,0.63l0.004,1.957l0.146,0.369c0.181,0.183,0.518,0.277,1.007,0.279l5.466-0.081
		c0.786-0.007,1.681-0.441,2.391-1.163c0.699-0.711,1.525-2.008,1.505-4.146c-0.02-2.514-2.133-4.911-3.532-6.498
		c-0.546-0.619-1.018-1.156-1.095-1.417c-0.241-0.848,0.18-1.172,0.639-1.435c0.253-0.144,1.375,0.086,2.044,0.22l0.854,0.144
		c0.393-0.02,0.658-0.277,0.673-0.662c0,0.003,0.005-1.531,0.005-1.531c0-0.329-0.266-0.601-0.595-0.601L147.263,25.878"/>
	<path fill="#004B93" d="M6.872,36.068c0-0.229,0.186-0.414,0.414-0.414l0.221,0.001h1.048l0.2,0.006
		c0.228,0,0.414,0.187,0.414,0.414L9.167,36.08v6.289c0,0.343,0.277,0.619,0.618,0.619h4.743c0.342,0,0.621-0.276,0.621-0.619
		V26.446c0-0.34-0.279-0.619-0.621-0.619H9.785c-0.341,0-0.618,0.279-0.618,0.619v5.913l0.002,0.323
		c0,0.229-0.187,0.413-0.414,0.413l-0.269-0.001H7.214c-0.149-0.004-0.342-0.21-0.342-0.426v-6.223c0-0.34-0.278-0.619-0.62-0.619
		h-4.78c-0.342,0-0.621,0.279-0.621,0.619v15.923c0,0.343,0.279,0.619,0.621,0.619h4.78c0.342,0,0.62-0.276,0.62-0.619V36.068"/>
	<path fill="#004B93" d="M85.869,35.72c0.331,0,0.597-0.27,0.597-0.6V33.81c0-0.329-0.266-0.598-0.597-0.598l-2.388-0.005
		c-0.161-0.004-0.366-0.222-0.365-0.451v-3.553c0-0.33-0.27-0.599-0.599-0.599H77.74c-0.338,0-0.599,0.265-0.599,0.599l0.001,3.541
		c0.003,0.231-0.207,0.459-0.364,0.463l-2.387,0.005c-0.33,0-0.599,0.269-0.599,0.598v1.311c0,0.33,0.269,0.6,0.599,0.6h2.067
		l0.271,0.002c0.229,0,0.413,0.185,0.413,0.414l0.002,0.316c-0.01-0.018,0,0.021,0,0.001l-0.004,3.337
		c0,0.33,0.268,0.596,0.599,0.596h4.777c0.329,0,0.599-0.266,0.599-0.596l-0.004-3.657c0-0.229,0.186-0.414,0.413-0.414
		L85.869,35.72"/>
	<path fill="#004B93" d="M41.595,26.44v15.925c0,0.328,0.268,0.594,0.596,0.594l1.753,0.006c0.297,0,0.559-0.28,0.559-0.596
		c0,0,0-7.309,0-8.109c0.425,0.695,5.278,8.642,5.278,8.642c0.023,0.037,0.062,0.058,0.108,0.058l4.37,0.006
		c0.327,0,0.597-0.269,0.597-0.598V26.444c0-0.328-0.27-0.599-0.597-0.599l-1.776,0.011c-0.285,0.019-0.522,0.283-0.53,0.591
		c0,0-0.003,6.325-0.003,8.073c-0.426-0.74-4.945-8.61-4.945-8.61c-0.023-0.039-0.064-0.064-0.109-0.064l-4.704-0.004
		C41.862,25.841,41.595,26.112,41.595,26.44"/>
	<path fill="#004B93" d="M198.209,26.443v15.924c0,0.328,0.267,0.596,0.597,0.596l1.751,0.004c0.298,0,0.56-0.278,0.56-0.596v-8.108
		c0.423,0.696,5.277,8.642,5.277,8.642c0.023,0.037,0.062,0.059,0.107,0.059l4.371,0.006c0.329,0,0.597-0.27,0.597-0.6V26.446
		c0-0.329-0.268-0.597-0.597-0.597l-1.775,0.009c-0.285,0.019-0.523,0.284-0.531,0.592c0,0-0.003,6.325-0.003,8.074
		c-0.425-0.741-4.945-8.61-4.945-8.61c-0.022-0.04-0.063-0.064-0.109-0.064l-4.702-0.005
		C198.476,25.844,198.209,26.115,198.209,26.443"/>
	<path fill="#004B93" d="M24.417,40.892c-0.228,0-0.414-0.185-0.414-0.414l0.003-0.215l-0.003-4.066
		c0-0.229,0.186-0.412,0.413-0.412l2.879-0.01c0.314,0,0.578-0.271,0.578-0.596v-1.331c0-0.302-0.281-0.586-0.578-0.586
		l-2.925-0.007c-0.147-0.004-0.365-0.16-0.364-0.4v-3.857c0-0.229,0.185-0.414,0.414-0.414l0.018,0.002l6.144-0.002
		c0.006,0,0.01,0.002,0.014,0.002c0.329,0,0.593-0.253,0.626-0.576l0.013-0.012l-0.007-1.415c0-0.327-0.27-0.596-0.6-0.596H18.594
		c-0.33,0-0.598,0.269-0.598,0.596v15.925c0,0.33,0.268,0.6,0.598,0.6h12.033c0.33,0,0.6-0.27,0.6-0.6l0.004-1.074
		c0-0.283-0.284-0.541-0.595-0.541H24.417"/>
	<path fill="#004B93" d="M63.782,40.742c-0.229,0-0.414-0.185-0.414-0.414l0.004-0.213l-0.004-4.068
		c0-0.227,0.185-0.412,0.413-0.412l2.877-0.01c0.315,0,0.581-0.271,0.581-0.596v-1.33c0-0.303-0.282-0.586-0.581-0.586l-2.923-0.007
		c-0.147-0.005-0.366-0.161-0.363-0.401l-0.001-3.857c0-0.229,0.184-0.413,0.414-0.413l0.017,0.002l6.145-0.002
		c0.005,0,0.009,0.002,0.012,0.002c0.332,0,0.594-0.255,0.627-0.577l0.013-0.012l-0.007-1.415c0-0.326-0.269-0.597-0.6-0.597H57.959
		c-0.33,0-0.6,0.271-0.6,0.597v15.925c0,0.329,0.27,0.6,0.6,0.6h12.032c0.331,0,0.6-0.271,0.6-0.6l0.004-1.074
		c0-0.283-0.283-0.541-0.595-0.541H63.782"/>
	<path fill="#004B93" d="M189.278,40.74c-0.228,0-0.412-0.186-0.412-0.414l0.003-0.215l-0.004-4.066
		c0-0.229,0.184-0.412,0.412-0.412l2.878-0.01c0.314,0,0.581-0.271,0.581-0.596v-1.332c0-0.301-0.282-0.585-0.581-0.585
		l-2.924-0.007c-0.147-0.004-0.364-0.161-0.362-0.4l-0.002-3.857c0-0.229,0.185-0.414,0.413-0.414l0.019,0.003l6.144-0.003
		c0.006,0,0.01,0.003,0.015,0.003c0.329,0,0.591-0.255,0.625-0.577l0.014-0.012l-0.009-1.416c0-0.326-0.268-0.595-0.599-0.595
		h-12.031c-0.331,0-0.6,0.269-0.6,0.595v15.926c0,0.328,0.269,0.598,0.6,0.598h12.031c0.331,0,0.599-0.27,0.599-0.598l0.004-1.074
		c0-0.284-0.283-0.541-0.594-0.541H189.278"/>
	<path fill="#004B93" d="M237.569,40.756c-0.229,0-0.414-0.186-0.414-0.414l0.002-0.215l-0.002-4.065
		c0-0.229,0.186-0.414,0.412-0.414l2.877-0.008c0.316,0,0.58-0.273,0.58-0.598V33.71c0-0.3-0.281-0.584-0.58-0.584l-2.922-0.007
		c-0.15-0.004-0.367-0.161-0.365-0.4l-0.002-3.858c0-0.229,0.188-0.414,0.416-0.414l0.016,0.003l6.145-0.003
		c0.008,0,0.01,0.003,0.014,0.003c0.33,0,0.594-0.254,0.625-0.576l0.014-0.012l-0.006-1.416c0-0.326-0.27-0.596-0.6-0.596h-12.033
		c-0.328,0-0.6,0.27-0.6,0.598v15.923c0,0.329,0.271,0.6,0.6,0.6h12.033c0.33,0,0.6-0.271,0.6-0.6l0.004-1.074
		c0-0.283-0.285-0.54-0.596-0.54H237.569"/>
	<path fill="#004B93" d="M115.08,40.752c-0.229,0-0.412-0.185-0.412-0.413l0.002-0.215l-0.004-4.065
		c0-0.229,0.186-0.413,0.413-0.413l2.878-0.01c0.315,0,0.58-0.271,0.58-0.596v-1.332c0-0.301-0.282-0.585-0.58-0.585l-2.924-0.007
		c-0.148-0.004-0.364-0.161-0.363-0.399l-0.001-3.859c0-0.229,0.185-0.414,0.413-0.414l0.019,0.003l6.145-0.003
		c0.005,0,0.008,0.003,0.013,0.003c0.33,0,0.593-0.254,0.625-0.576l0.015-0.012l-0.009-1.416c0-0.326-0.269-0.596-0.6-0.596h-12.032
		c-0.329,0-0.598,0.27-0.598,0.597v15.923c0,0.33,0.269,0.6,0.598,0.6h12.032c0.331,0,0.6-0.27,0.6-0.6l0.005-1.073
		c0-0.284-0.284-0.541-0.595-0.541H115.08"/>
	<path fill="#004B93" d="M222.12,59.919c-1.305,0.344-2.072,0.467-2.951,0.467c-1.357,0-2.387-0.412-3.17-1.262
		c-0.822-0.893-1.248-2.113-1.248-3.568c0-1.441,0.426-2.73,1.193-3.58c0.729-0.783,1.797-1.209,3.115-1.209
		c1.016,0,2.045,0.15,3.143,0.467l-0.082,1.592l-0.604-0.068l-0.084-0.687c-0.891-0.507-1.508-0.7-2.223-0.7
		c-0.92,0-1.756,0.412-2.264,1.098c-0.562,0.797-0.904,1.99-0.904,3.184c0,2.471,1.398,4.09,3.553,4.09
		c0.438,0,0.727-0.041,1.303-0.191v-2.334l-0.686-0.082l-0.082-0.604h2.676l-0.084,0.604l-0.52,0.082l-0.082,1.139V59.919"/>
	<path fill="#004B93" d="M226.155,58.328l0.082,1.139l0.686,0.084l0.068,0.603h-2.744l0.082-0.603l0.521-0.084l0.084-1.139v-3.046
		l-0.084-1.153l-0.521-0.068l-0.082-0.617l1.908-0.082v0.699l-0.082,0.646h0.082c0.549-0.934,1.289-1.413,2.195-1.413
		c0.15,0,0.246,0.014,0.396,0.068l-0.082,1.688l-0.604-0.082l-0.082-0.604h-0.191c-0.535,0-1.057,0.304-1.633,0.92V58.328"/>
	<path fill="#004B93" d="M234.952,59.55l0.082-0.66h-0.082c-0.576,0.878-1.496,1.414-2.414,1.414c-1.154,0-1.854-0.811-1.854-2.127
		v-2.908l-0.082-1.141l-0.521-0.082l-0.082-0.604l1.988-0.082l-0.082,1.908v2.715c0,1.043,0.275,1.4,1.057,1.4
		c0.672,0,1.318-0.343,1.99-1.057v-3.059l-0.082-1.141l-0.521-0.082l-0.082-0.604l1.988-0.082l-0.082,1.908v3.059l0.082,1.139
		l0.521,0.084l0.082,0.603l-1.906,0.082V59.55"/>
	<path fill="#004B93" d="M240.456,60.756l0.082,1.152l0.521,0.069l0.082,0.617h-2.594l0.084-0.617l0.52-0.069l0.082-1.152v-5.487
		l-0.082-1.141l-0.52-0.082l-0.084-0.604l1.908-0.082v0.686l-0.082,0.659h0.082c0.562-0.905,1.426-1.413,2.359-1.413
		c1.51,0,2.482,1.289,2.482,3.307c0,2.236-1.111,3.705-2.826,3.705c-0.795,0-1.453-0.302-2.016-0.92h-0.082l0.082,0.769V60.756
		 M240.456,58.699c0.59,0.521,1.221,0.768,1.879,0.768c1.043,0,1.674-0.987,1.674-2.62c0-1.701-0.562-2.634-1.592-2.634
		c-0.754,0-1.357,0.343-1.961,1.097V58.699z"/>
	<path fill="#004B93" d="M248.882,60.756l0.082,1.152l0.521,0.069l0.082,0.617h-2.594l0.082-0.617l0.523-0.069l0.082-1.152v-5.487
		l-0.082-1.141l-0.523-0.082l-0.082-0.604l1.908-0.082v0.686l-0.082,0.659h0.082c0.562-0.905,1.426-1.413,2.359-1.413
		c1.51,0,2.484,1.289,2.484,3.307c0,2.236-1.111,3.705-2.828,3.705c-0.793,0-1.453-0.302-2.016-0.92H248.8l0.082,0.769V60.756
		 M248.882,58.699c0.59,0.521,1.223,0.768,1.879,0.768c1.043,0,1.676-0.987,1.676-2.62c0-1.701-0.564-2.634-1.592-2.634
		c-0.756,0-1.359,0.343-1.963,1.097V58.699z"/>
	<path fill="#004B93" d="M260.78,59.851c-0.893,0.343-1.414,0.453-2.141,0.453c-1.963,0-3.32-1.469-3.32-3.582
		c0-2.003,1.232-3.43,2.963-3.43c0.809,0,1.441,0.302,1.895,0.892c0.438,0.562,0.604,1.194,0.604,2.224v0.232h-4.158
		c0.027,1.029,0.164,1.537,0.508,1.989c0.412,0.536,1.029,0.837,1.688,0.837c0.645,0,1.332-0.191,1.963-0.535V59.851
		 M259.476,56.037v-0.151c0-1.345-0.412-1.989-1.262-1.989c-0.879,0-1.428,0.797-1.51,2.141H259.476z"/>
	<polyline fill="#004B93" points="310.487,33.757 308.192,33.757 308.192,31.467 306.89,31.467 306.89,33.757 304.593,33.757 
		304.593,35.06 306.89,35.06 306.89,37.351 308.192,37.351 308.192,35.06 310.487,35.06 310.487,33.757 	"/>
	<polyline fill="#004B93" points="303.585,19.841 291.89,19.841 291.89,31.011 286.573,31.011 286.573,19.841 274.116,19.841 
		274.116,25.827 277.489,25.827 277.489,42.992 274.116,42.992 274.116,49.159 286.573,49.159 286.573,37.806 291.89,37.806 
		291.89,49.159 304.163,49.159 304.163,42.992 300.882,42.992 300.882,25.827 304.163,25.827 304.163,19.841 303.585,19.841 	"/>
	<path fill="#A0ACD4" d="M301.245,59.537v0.617h2.346v-0.617h-0.727v-2.898h-0.781c-0.006,0.094-0.029,0.172-0.07,0.233
		s-0.104,0.114-0.184,0.153c-0.068,0.033-0.156,0.056-0.26,0.069c-0.105,0.013-0.213,0.02-0.324,0.02v0.578h0.74v1.845H301.245"/>
	<path fill="#A0ACD4" d="M305.78,59.386c-0.084,0.066-0.186,0.113-0.303,0.145s-0.236,0.046-0.359,0.046
		c-0.152,0-0.27-0.013-0.357-0.038c-0.084-0.025-0.152-0.047-0.201-0.072h-0.092v0.697c0.041,0.012,0.129,0.024,0.266,0.039
		c0.135,0.014,0.262,0.021,0.379,0.021c0.328,0,0.615-0.047,0.863-0.143c0.246-0.092,0.455-0.232,0.621-0.42
		c0.154-0.172,0.268-0.387,0.344-0.64c0.078-0.253,0.113-0.528,0.113-0.821c0-0.302-0.035-0.557-0.107-0.766
		c-0.072-0.21-0.18-0.382-0.324-0.517c-0.123-0.118-0.27-0.207-0.438-0.264c-0.17-0.058-0.363-0.087-0.584-0.087
		c-0.424,0-0.768,0.119-1.029,0.355c-0.262,0.238-0.393,0.545-0.393,0.921c0,0.231,0.039,0.423,0.117,0.574
		c0.076,0.153,0.18,0.274,0.311,0.368c0.1,0.068,0.209,0.117,0.328,0.148c0.121,0.033,0.246,0.05,0.377,0.05
		c0.176,0,0.32-0.022,0.438-0.063s0.242-0.101,0.379-0.182c-0.02,0.15-0.059,0.278-0.119,0.385
		C305.948,59.229,305.874,59.316,305.78,59.386 M305.942,58.341c-0.082,0.018-0.16,0.027-0.23,0.027c-0.088,0-0.17-0.01-0.242-0.025
		c-0.074-0.018-0.139-0.049-0.193-0.09c-0.059-0.044-0.104-0.102-0.137-0.177c-0.031-0.075-0.049-0.167-0.049-0.276
		c0-0.114,0.016-0.211,0.045-0.292c0.031-0.082,0.07-0.147,0.119-0.199c0.051-0.051,0.105-0.087,0.16-0.108
		c0.057-0.021,0.113-0.031,0.176-0.031c0.066,0,0.129,0.01,0.188,0.033c0.061,0.021,0.111,0.057,0.156,0.106
		c0.064,0.067,0.117,0.164,0.152,0.288c0.037,0.121,0.057,0.28,0.057,0.471c0,0.064-0.004,0.113-0.006,0.145
		c0,0.032-0.002,0.058-0.002,0.074C306.089,58.306,306.026,58.324,305.942,58.341z"/>
	<path fill="#A0ACD4" d="M309.942,56.688c-0.182-0.081-0.408-0.12-0.678-0.12c-0.258,0-0.479,0.039-0.664,0.117
		c-0.186,0.074-0.338,0.191-0.453,0.346c-0.117,0.154-0.203,0.346-0.256,0.57c-0.053,0.226-0.08,0.49-0.08,0.795
		c0,0.295,0.025,0.557,0.078,0.787c0.053,0.229,0.137,0.42,0.254,0.574c0.113,0.154,0.264,0.271,0.449,0.348
		c0.186,0.08,0.41,0.119,0.672,0.119c0.268,0,0.494-0.039,0.676-0.117c0.184-0.076,0.332-0.193,0.449-0.346
		c0.113-0.149,0.195-0.341,0.248-0.574c0.055-0.234,0.082-0.498,0.082-0.793s-0.027-0.556-0.078-0.781
		c-0.053-0.225-0.135-0.416-0.25-0.57C310.276,56.886,310.126,56.767,309.942,56.688 M309.681,59.302
		c-0.086,0.184-0.225,0.274-0.416,0.274s-0.328-0.091-0.414-0.274c-0.084-0.186-0.127-0.487-0.127-0.904
		c0-0.426,0.043-0.731,0.125-0.912c0.084-0.18,0.223-0.27,0.416-0.27s0.334,0.09,0.418,0.27c0.084,0.181,0.125,0.484,0.125,0.908
		C309.808,58.814,309.765,59.117,309.681,59.302z"/>
	<path fill="#A0ACD4" d="M311.491,59.537v0.617h2.346v-0.617h-0.725v-2.898h-0.783c-0.006,0.094-0.027,0.172-0.068,0.233
		c-0.043,0.062-0.104,0.114-0.186,0.153c-0.068,0.033-0.156,0.056-0.26,0.069c-0.104,0.013-0.213,0.02-0.324,0.02v0.578h0.74v1.845
		H311.491"/>
	<path fill="#004B93" d="M329.55,31.011h-6.264v-5.185h6.264c0,0,1.814,0,1.814,2.632c0,2.53-1.816,2.553-1.816,2.553
		 M328.417,42.992h-5.131v-5.185h6.264c0,0,1.814,0,1.814,2.632c0,2.553-1.814,2.553-1.814,2.553H328.417z M335.915,34.488
		c1.965-1.729,3.205-4.259,3.205-7.081c0-3.098-1.492-5.845-3.797-7.565l-24.389,0.001l0.008,5.984h3.258v17.165h-3.252
		l-0.002,6.167h24.408c2.303-1.72,3.795-4.468,3.795-7.565C339.149,38.759,337.897,36.216,335.915,34.488"/>
	<path fill="#A0ACD4" d="M280.468,13.906c0.467,0.143,3.199,0.975,3.199,0.975l0.424-0.127c1.129-1.354,2.389-2.614,3.746-3.743
		l0.125-0.439c0,0-0.895-2.643-1.057-3.118c1.043-0.786,2.139-1.521,3.271-2.177c1.145-0.664,2.336-1.254,3.549-1.773
		c0.33,0.365,2.213,2.432,2.213,2.432l0.434,0.106c1.65-0.607,3.369-1.065,5.107-1.361l0.324-0.318c0,0,0.541-2.736,0.639-3.229
		c1.289-0.156,2.604-0.243,3.916-0.243c1.324,0,2.652,0.088,3.955,0.248c0.109,0.479,0.74,3.256,0.74,3.256l0.322,0.307
		c1.729,0.304,3.445,0.771,5.1,1.389l0.441-0.112c0,0,1.828-2.098,2.158-2.478c1.195,0.514,2.377,1.099,3.512,1.758
		c1.148,0.664,2.252,1.407,3.299,2.198c-0.154,0.472-0.992,3.058-0.992,3.058l0.123,0.435c1.348,1.132,2.602,2.397,3.725,3.763
		l0.439,0.124c0,0,2.629-0.898,3.102-1.06c0.781,1.047,1.467,2.069,2.119,3.208h0.92c-0.717-1.251-1.699-2.788-2.566-3.931
		l-0.447-0.137c0,0-2.711,0.926-3.137,1.071c-1.049-1.249-2.201-2.413-3.438-3.469c0.139-0.422,1.006-3.093,1.006-3.093
		l-0.137-0.444c-1.141-0.877-2.355-1.692-3.615-2.422c-1.246-0.724-2.547-1.369-3.863-1.921l-0.457,0.106
		c0,0-1.885,2.163-2.182,2.502c-1.531-0.555-3.111-0.984-4.707-1.278c-0.098-0.43-0.746-3.293-0.746-3.293l-0.34-0.309
		c-1.426-0.188-2.883-0.282-4.334-0.282c-1.443,0-2.891,0.094-4.305,0.277l-0.34,0.32c0,0-0.557,2.82-0.645,3.265
		c-1.602,0.289-3.182,0.71-4.711,1.257c-0.299-0.327-2.238-2.458-2.238-2.458l-0.451-0.1c-1.33,0.555-2.639,1.206-3.893,1.934
		c-1.244,0.721-2.451,1.529-3.59,2.401l-0.135,0.45c0,0,0.922,2.722,1.066,3.15c-1.246,1.055-2.406,2.214-3.459,3.457
		c-0.416-0.128-3.234-0.985-3.234-0.985l-0.436,0.141c-0.875,1.154-1.781,2.532-2.502,3.789h0.949
		C279.095,15.833,279.675,14.966,280.468,13.906"/>
	<path fill="#A0ACD4" d="M289.386,16.981c4.357-4.454,10.363-7.211,16.986-7.211s12.629,2.757,16.986,7.211h1.094
		c-4.537-4.928-10.965-8.008-18.08-8.008c-7.117,0-13.543,3.08-18.08,8.008H289.386"/>
	<path fill="#A0ACD4" d="M280.468,55.094c0.467-0.143,3.199-0.976,3.199-0.976l0.424,0.129c1.129,1.354,2.389,2.613,3.746,3.742
		l0.125,0.44c0,0-0.895,2.642-1.057,3.117c1.043,0.786,2.139,1.521,3.271,2.177c1.145,0.664,2.336,1.256,3.549,1.773
		c0.33-0.365,2.213-2.432,2.213-2.432l0.434-0.107c1.65,0.609,3.369,1.066,5.107,1.361l0.324,0.319c0,0,0.541,2.737,0.639,3.229
		c1.289,0.156,2.604,0.243,3.916,0.243c1.324,0,2.652-0.089,3.955-0.247c0.109-0.479,0.74-3.256,0.74-3.256l0.322-0.309
		c1.729-0.303,3.445-0.771,5.1-1.387l0.441,0.111c0,0,1.828,2.098,2.158,2.479c1.195-0.514,2.377-1.1,3.512-1.76
		c1.148-0.663,2.252-1.405,3.299-2.198c-0.154-0.472-0.992-3.058-0.992-3.058l0.123-0.434c1.348-1.132,2.602-2.396,3.725-3.762
		l0.439-0.125c0,0,2.629,0.898,3.102,1.061c0.781-1.048,1.467-2.07,2.119-3.209h0.92c-0.717,1.252-1.699,2.789-2.566,3.931
		l-0.447,0.137c0,0-2.711-0.925-3.137-1.071c-1.049,1.248-2.201,2.413-3.438,3.469c0.139,0.422,1.006,3.093,1.006,3.093
		l-0.137,0.444c-1.141,0.877-2.355,1.691-3.615,2.422c-1.246,0.723-2.547,1.37-3.863,1.921l-0.457-0.105
		c0,0-1.885-2.163-2.182-2.503c-1.531,0.555-3.111,0.984-4.707,1.278c-0.098,0.43-0.746,3.293-0.746,3.293l-0.34,0.31
		c-1.426,0.188-2.883,0.281-4.334,0.281c-1.443,0-2.891-0.094-4.305-0.277l-0.34-0.321c0,0-0.557-2.819-0.645-3.264
		c-1.602-0.29-3.182-0.71-4.711-1.257c-0.299,0.326-2.238,2.458-2.238,2.458l-0.451,0.101c-1.33-0.556-2.639-1.207-3.893-1.935
		c-1.244-0.72-2.451-1.528-3.59-2.401l-0.135-0.45c0,0,0.922-2.722,1.066-3.15c-1.246-1.056-2.406-2.214-3.459-3.457
		c-0.416,0.127-3.234,0.985-3.234,0.985l-0.436-0.141c-0.875-1.154-1.781-2.531-2.502-3.789h0.949
		C279.095,53.167,279.675,54.033,280.468,55.094"/>
	<path fill="#A0ACD4" d="M324.452,52.019h-1.094c-2.27,2.32-4.988,4.178-8.006,5.428v0.859
		C318.831,56.92,321.933,54.755,324.452,52.019"/>
	<path fill="#A0ACD4" d="M289.386,52.019h-1.094c3.045,3.31,6.945,5.783,11.336,7.053v-0.83
		C295.71,57.067,292.202,54.899,289.386,52.019"/>
</g>
</svg>
