<?xml version="1.0" encoding="UTF-8" standalone="no"?>
<!-- Created with Inkscape (http://www.inkscape.org/) -->
<svg
   xmlns:dc="http://purl.org/dc/elements/1.1/"
   xmlns:cc="http://creativecommons.org/ns#"
   xmlns:rdf="http://www.w3.org/1999/02/22-rdf-syntax-ns#"
   xmlns:svg="http://www.w3.org/2000/svg"
   xmlns="http://www.w3.org/2000/svg"
   xmlns:sodipodi="http://sodipodi.sourceforge.net/DTD/sodipodi-0.dtd"
   xmlns:inkscape="http://www.inkscape.org/namespaces/inkscape"
   width="112.06375"
   height="14.061204"
   id="svg3426"
   sodipodi:version="0.32"
   inkscape:version="0.46"
   version="1.0"
   sodipodi:docname="HellermannTyton-Logo.svg"
   inkscape:output_extension="org.inkscape.output.svg.inkscape">
  <defs
     id="defs3428">
    <clipPath
       clipPathUnits="userSpaceOnUse"
       id="clipPath63">
      <path
         d="M 0.029999,1191.03 L 842.01,1191.03 L 842.01,0.03 L 0.029999,0.03 L 0.029999,1191.03 z"
         id="path65" />
    </clipPath>
    <clipPath
       clipPathUnits="userSpaceOnUse"
       id="clipPath57">
      <path
         d="M 30.076,1145.035 L 811.673,1145.035 L 811.673,46.155 L 30.076,46.155 L 30.076,1145.035 z"
         id="path59" />
    </clipPath>
    <clipPath
       clipPathUnits="userSpaceOnUse"
       id="clipPath51">
      <path
         d="M 63.772,196.856 L 76.504,196.856 L 76.504,103.467 L 63.772,103.467 L 63.772,196.856 z"
         clip-rule="evenodd"
         id="path53" />
    </clipPath>
    <inkscape:perspective
       sodipodi:type="inkscape:persp3d"
       inkscape:vp_x="0 : 526.18109 : 1"
       inkscape:vp_y="0 : 1000 : 0"
       inkscape:vp_z="744.09448 : 526.18109 : 1"
       inkscape:persp3d-origin="372.04724 : 350.78739 : 1"
       id="perspective3434" />
  </defs>
  <sodipodi:namedview
     id="base"
     pagecolor="#ffffff"
     bordercolor="#666666"
     borderopacity="1.0"
     inkscape:pageopacity="0.0"
     inkscape:pageshadow="2"
     inkscape:zoom="5.0506966"
     inkscape:cx="56.03187"
     inkscape:cy="7.0306022"
     inkscape:document-units="px"
     inkscape:current-layer="layer1"
     showgrid="false"
     inkscape:window-width="640"
     inkscape:window-height="667"
     inkscape:window-x="22"
     inkscape:window-y="29" />
  <metadata
     id="metadata3431">
    <rdf:RDF>
      <cc:Work
         rdf:about="">
        <dc:format>image/svg+xml</dc:format>
        <dc:type
           rdf:resource="http://purl.org/dc/dcmitype/StillImage" />
      </cc:Work>
    </rdf:RDF>
  </metadata>
  <g
     inkscape:label="Ebene 1"
     inkscape:groupmode="layer"
     id="layer1"
     transform="translate(-255.3967,-496.76015)">
    <g
       transform="matrix(0,-1.25,-1.25,0,499.35607,591.24265)"
       id="g47">
      <g
         id="g49"
         clip-path="url(#clipPath51)">
        <g
           id="g55"
           clip-path="url(#clipPath57)">
          <g
             id="g61"
             clip-path="url(#clipPath63)">
            <path
               d="M 70.627,189.792 L 66.683,189.792 L 66.683,187.955 L 75.476,187.955 L 75.476,189.792 L 72.145,189.792 L 72.145,193.221 L 75.476,193.221 L 75.476,195.058 L 66.683,195.058 L 66.683,193.221 L 70.627,193.221 L 70.627,189.792 z"
               style="fill:#005aaa;fill-opacity:1;fill-rule:nonzero;stroke:#005aaa;stroke-width:0.219;stroke-linecap:butt;stroke-linejoin:miter;stroke-miterlimit:3.86400008;stroke-dasharray:none;stroke-opacity:1"
               id="path67" />
            <path
               d="M 66.683,178.52 L 75.4765,178.52 L 75.4765,180.2346 L 66.683,180.2346 L 66.683,178.52 z"
               style="fill:#005aaa;fill-opacity:1;fill-rule:nonzero;stroke:#005aaa;stroke-width:0.219;stroke-linecap:butt;stroke-linejoin:miter;stroke-miterlimit:3.86400008;stroke-dasharray:none;stroke-opacity:1"
               id="path69" />
            <path
               d="M 66.683,175.68 L 75.4765,175.68 L 75.4765,177.3946 L 66.683,177.3946 L 66.683,175.68 z"
               style="fill:#005aaa;fill-opacity:1;fill-rule:nonzero;stroke:#005aaa;stroke-width:0.219;stroke-linecap:butt;stroke-linejoin:miter;stroke-miterlimit:3.86400008;stroke-dasharray:none;stroke-opacity:1"
               id="path71" />
            <path
               d="M 66.683,168.093 L 66.683,166.378 L 70.075,166.378 C 70.798,166.378 71.631,166.133 71.631,164.798 C 71.631,164.639 71.66,164.455 71.636,164.308 L 73.345,164.308 C 73.358,164.419 73.37,164.529 73.37,164.639 C 73.37,165.68 72.733,166.072 72.072,166.427 L 72.072,166.452 L 73.198,166.452 L 73.198,168.093 L 66.683,168.093 z"
               style="fill:#005aaa;fill-opacity:1;fill-rule:nonzero;stroke:#005aaa;stroke-width:0.219;stroke-linecap:butt;stroke-linejoin:miter;stroke-miterlimit:3.86400008;stroke-dasharray:none;stroke-opacity:1"
               id="path73" />
            <path
               d="M 71.19,154.426 C 72.623,154.426 73.37,155.418 73.37,156.692 C 73.37,157.733 72.647,158.211 72.329,158.431 C 73.027,158.872 73.37,159.301 73.37,160.244 C 73.37,161.395 72.672,161.873 72.243,162.093 L 72.243,162.118 L 73.198,162.118 L 73.198,163.759 L 66.683,163.759 L 66.683,162.044 L 70.651,162.044 C 71.361,162.044 71.925,161.787 71.925,160.979 C 71.925,159.95 71.153,159.95 70.602,159.95 L 66.683,159.95 L 66.683,158.235 L 70.59,158.235 C 71.361,158.235 71.925,157.929 71.925,157.072 C 71.925,156.569 71.606,156.141 70.639,156.141 L 66.683,156.141 L 66.683,154.426 L 71.19,154.426 z"
               style="fill:#005aaa;fill-opacity:1;fill-rule:nonzero;stroke:#005aaa;stroke-width:0.219;stroke-linecap:butt;stroke-linejoin:miter;stroke-miterlimit:3.86400008;stroke-dasharray:none;stroke-opacity:1"
               id="path75" />
            <path
               d="M 71.19,140.948 C 72.623,140.948 73.37,141.94 73.37,143.214 C 73.37,144.451 72.635,144.941 72.243,145.173 L 72.243,145.197 L 73.198,145.197 L 73.198,146.839 L 66.683,146.839 L 66.683,145.124 L 70.418,145.124 C 71.41,145.124 71.925,144.536 71.925,143.777 C 71.925,142.687 71.116,142.663 70.639,142.663 L 66.683,142.663 L 66.683,140.948 L 71.19,140.948 z"
               style="fill:#005aaa;fill-opacity:1;fill-rule:nonzero;stroke:#005aaa;stroke-width:0.219;stroke-linecap:butt;stroke-linejoin:miter;stroke-miterlimit:3.86400008;stroke-dasharray:none;stroke-opacity:1"
               id="path77" />
            <path
               d="M 71.19,133.874 C 72.623,133.874 73.37,134.866 73.37,136.14 C 73.37,137.377 72.635,137.867 72.243,138.1 L 72.243,138.124 L 73.198,138.124 L 73.198,139.765 L 66.683,139.765 L 66.683,138.051 L 70.418,138.051 C 71.41,138.051 71.925,137.463 71.925,136.703 C 71.925,135.614 71.116,135.588 70.639,135.588 L 66.683,135.588 L 66.683,133.874 L 71.19,133.874 z"
               style="fill:#005aaa;fill-opacity:1;fill-rule:nonzero;stroke:#005aaa;stroke-width:0.219;stroke-linecap:butt;stroke-linejoin:miter;stroke-miterlimit:3.86400008;stroke-dasharray:none;stroke-opacity:1"
               id="path79" />
            <path
               d="M 73.921,130.179 L 73.921,127.521 L 75.476,127.521 L 75.476,134.674 L 73.921,134.674 L 73.921,132.016 L 66.683,132.016 L 66.683,130.179 L 73.921,130.179 z"
               style="fill:#ed1c24;fill-opacity:1;fill-rule:nonzero;stroke:#ed1c24;stroke-width:0.219;stroke-linecap:butt;stroke-linejoin:miter;stroke-miterlimit:3.86400008;stroke-dasharray:none;stroke-opacity:1"
               id="path81" />
            <path
               d="M 73.096,122.824 L 73.096,124.637 L 68.397,125.971 L 68.397,125.997 L 73.096,127.392 L 73.096,129.303 L 66.719,126.903 C 65.826,127.062 65.813,127.405 65.813,128.03 C 65.813,128.176 65.811,128.287 65.823,128.36 L 64.451,128.36 C 64.439,128.115 64.455,127.822 64.455,127.588 C 64.455,126.094 64.381,125.874 66.793,125.065 L 73.096,122.824 z"
               style="fill:#ed1c24;fill-opacity:1;fill-rule:nonzero;stroke:#ed1c24;stroke-width:0.219;stroke-linecap:butt;stroke-linejoin:miter;stroke-miterlimit:3.86400008;stroke-dasharray:none;stroke-opacity:1"
               id="path83" />
            <path
               d="M 74.962,120.308 L 74.962,122.022 L 73.096,122.022 L 73.096,122.905 L 71.872,122.905 L 71.872,122.022 L 68.018,122.022 C 67.173,122.022 66.609,121.753 66.609,120.272 L 66.609,120.051 C 66.609,119.781 66.621,119.512 66.634,119.243 L 67.932,119.243 C 67.92,119.365 67.908,119.488 67.908,119.597 C 67.908,120.296 68.055,120.308 68.434,120.308 L 71.872,120.308 L 71.872,119.243 L 73.096,119.243 L 73.096,120.308 L 74.962,120.308 z"
               style="fill:#ed1c24;fill-opacity:1;fill-rule:nonzero;stroke:#ed1c24;stroke-width:0.219;stroke-linecap:butt;stroke-linejoin:miter;stroke-miterlimit:3.86400008;stroke-dasharray:none;stroke-opacity:1"
               id="path85" />
            <path
               d="M 69.94,112.309 C 72.292,112.309 73.37,113.888 73.37,115.64 C 73.37,117.392 72.292,118.971 69.94,118.971 C 67.589,118.971 66.511,117.392 66.511,115.64 C 66.511,113.888 67.589,112.309 69.94,112.309 z M 69.94,114.072 C 69.108,114.072 67.957,114.318 67.957,115.64 C 67.957,116.962 69.108,117.208 69.94,117.208 C 70.774,117.208 71.925,116.962 71.925,115.64 C 71.925,114.318 70.774,114.072 69.94,114.072"
               style="fill:#ed1c24;fill-opacity:1;fill-rule:nonzero;stroke:none"
               id="path87" />
            <path
               d="M 69.94,112.309 C 72.292,112.309 73.37,113.888 73.37,115.64 C 73.37,117.392 72.292,118.971 69.94,118.971 C 67.589,118.971 66.511,117.392 66.511,115.64 C 66.511,113.888 67.589,112.309 69.94,112.309 z M 69.94,114.072 C 69.108,114.072 67.957,114.318 67.957,115.64 C 67.957,116.962 69.108,117.208 69.94,117.208 C 70.774,117.208 71.925,116.962 71.925,115.64 C 71.925,114.318 70.774,114.072 69.94,114.072 z"
               style="fill:none;stroke:#ed1c24;stroke-width:0.219;stroke-linecap:butt;stroke-linejoin:miter;stroke-miterlimit:3.86400008;stroke-dasharray:none;stroke-opacity:1"
               id="path89" />
            <path
               d="M 71.19,105.626 C 72.623,105.626 73.37,106.618 73.37,107.892 C 73.37,109.129 72.635,109.619 72.243,109.852 L 72.243,109.876 L 73.198,109.876 L 73.198,111.517 L 66.683,111.517 L 66.683,109.802 L 70.418,109.802 C 71.41,109.802 71.925,109.215 71.925,108.455 C 71.925,107.366 71.116,107.34 70.639,107.34 L 66.683,107.34 L 66.683,105.626 L 71.19,105.626 z"
               style="fill:#ed1c24;fill-opacity:1;fill-rule:nonzero;stroke:#ed1c24;stroke-width:0.219;stroke-linecap:butt;stroke-linejoin:miter;stroke-miterlimit:3.86400008;stroke-dasharray:none;stroke-opacity:1"
               id="path91" />
            <path
               d="M 71.484,147.959 C 73.088,147.959 73.37,149.637 73.37,150.556 C 73.37,151.891 73.088,153.275 71.092,153.471 L 71.092,151.817 C 71.471,151.768 71.998,151.621 71.998,150.764 C 71.998,150.323 71.961,149.637 71.239,149.637 C 70.871,149.637 70.761,149.968 70.725,150.237 L 70.492,151.78 C 70.333,152.87 69.683,153.679 68.41,153.679 C 67.062,153.679 66.511,152.674 66.511,151.695 C 66.511,150.531 67.05,149.98 67.454,149.588 C 67.087,149.552 66.989,149.527 66.683,149.429 L 66.683,147.798 C 66.683,147.798 67.185,147.959 67.957,147.959 L 71.484,147.959 z M 69.022,149.637 C 68.226,149.637 67.736,150.409 67.736,151.168 C 67.736,151.499 67.92,151.964 68.52,151.964 C 69.23,151.964 69.389,151.437 69.5,150.801 C 69.61,150.09 69.72,149.809 69.855,149.637 L 69.022,149.637"
               style="fill:#005aaa;fill-opacity:1;fill-rule:nonzero;stroke:none"
               id="path93" />
            <path
               d="M 71.484,147.959 C 73.088,147.959 73.37,149.637 73.37,150.556 C 73.37,151.891 73.088,153.275 71.092,153.471 L 71.092,151.817 C 71.471,151.768 71.998,151.621 71.998,150.764 C 71.998,150.323 71.961,149.637 71.239,149.637 C 70.871,149.637 70.761,149.968 70.725,150.237 L 70.492,151.78 C 70.333,152.87 69.683,153.679 68.41,153.679 C 67.062,153.679 66.511,152.674 66.511,151.695 C 66.511,150.531 67.05,149.98 67.454,149.588 C 67.087,149.552 66.989,149.527 66.683,149.429 L 66.683,147.798 C 66.683,147.798 67.185,147.959 67.957,147.959 L 71.484,147.959 z M 69.022,149.637 C 68.226,149.637 67.736,150.409 67.736,151.168 C 67.736,151.499 67.92,151.964 68.52,151.964 C 69.23,151.964 69.389,151.437 69.5,150.801 C 69.61,150.09 69.72,149.809 69.855,149.637 L 69.022,149.637 z"
               style="fill:none;stroke:#005aaa;stroke-width:0.219;stroke-linecap:butt;stroke-linejoin:miter;stroke-miterlimit:3.86400008;stroke-dasharray:none;stroke-opacity:1"
               id="path95" />
            <path
               d="M 68.521,182.849 C 68.055,182.984 67.883,183.474 67.883,183.952 C 67.883,185.336 68.985,185.492 69.475,185.541 L 69.475,181.012 L 69.781,181.012 C 72.757,181.012 73.37,182.788 73.37,184.074 C 73.37,186.928 70.859,187.197 70.075,187.197 C 67.393,187.197 66.511,185.789 66.511,183.952 C 66.511,182.837 66.953,181.539 68.521,181.086 L 68.521,182.849 z M 70.59,185.507 C 71.447,185.408 71.99,184.907 71.99,184.099 C 71.99,183.548 71.643,182.801 70.59,182.703 L 70.59,185.507"
               style="fill:#005aaa;fill-opacity:1;fill-rule:nonzero;stroke:none"
               id="path97" />
            <path
               d="M 68.521,182.849 C 68.055,182.984 67.883,183.474 67.883,183.952 C 67.883,185.336 68.985,185.492 69.475,185.541 L 69.475,181.012 L 69.781,181.012 C 72.757,181.012 73.37,182.788 73.37,184.074 C 73.37,186.928 70.859,187.197 70.075,187.197 C 67.393,187.197 66.511,185.789 66.511,183.952 C 66.511,182.837 66.953,181.539 68.521,181.086 L 68.521,182.849 z M 70.59,185.507 C 71.447,185.408 71.99,184.907 71.99,184.099 C 71.99,183.548 71.643,182.801 70.59,182.703 L 70.59,185.507 z"
               style="fill:none;stroke:#005aaa;stroke-width:0.219;stroke-linecap:butt;stroke-linejoin:miter;stroke-miterlimit:3.86400008;stroke-dasharray:none;stroke-opacity:1"
               id="path99" />
            <path
               d="M 68.521,170.646 C 68.055,170.781 67.883,171.271 67.883,171.748 C 67.883,173.132 68.985,173.288 69.475,173.337 L 69.475,168.809 L 69.781,168.809 C 72.757,168.809 73.37,170.585 73.37,171.871 C 73.37,174.724 70.859,174.994 70.075,174.994 C 67.393,174.994 66.511,173.585 66.511,171.748 C 66.511,170.634 66.953,169.335 68.521,168.882 L 68.521,170.646 z M 70.59,173.303 C 71.447,173.205 71.99,172.704 71.99,171.895 C 71.99,171.344 71.643,170.67 70.59,170.572 L 70.59,173.303"
               style="fill:#005aaa;fill-opacity:1;fill-rule:nonzero;stroke:none"
               id="path101" />
            <path
               d="M 68.521,170.646 C 68.055,170.781 67.883,171.271 67.883,171.748 C 67.883,173.132 68.985,173.288 69.475,173.337 L 69.475,168.809 L 69.781,168.809 C 72.757,168.809 73.37,170.585 73.37,171.871 C 73.37,174.724 70.859,174.994 70.075,174.994 C 67.393,174.994 66.511,173.585 66.511,171.748 C 66.511,170.634 66.953,169.335 68.521,168.882 L 68.521,170.646 z M 70.59,173.303 C 71.447,173.205 71.99,172.704 71.99,171.895 C 71.99,171.344 71.643,170.67 70.59,170.572 L 70.59,173.303 z"
               style="fill:none;stroke:#005aaa;stroke-width:0.219;stroke-linecap:butt;stroke-linejoin:miter;stroke-miterlimit:3.86400008;stroke-dasharray:none;stroke-opacity:1"
               id="path103" />
          </g>
        </g>
      </g>
    </g>
  </g>
</svg>
