<?xml version="1.0" encoding="utf-8"?>
<!-- Generator: Adobe Illustrator 15.0.0, SVG Export Plug-In . SVG Version: 6.00 Build 0)  -->
<!DOCTYPE svg PUBLIC "-//W3C//DTD SVG 1.1//EN" "http://www.w3.org/Graphics/SVG/1.1/DTD/svg11.dtd" [
	<!ENTITY st0 "fill:#E3191C;">
	<!ENTITY st1 "fill:#FFFFFF;">
]>
<svg version="1.1" id="Ebene_1" xmlns="http://www.w3.org/2000/svg" xmlns:xlink="http://www.w3.org/1999/xlink" x="0px" y="0px"
	 width="344.807px" height="344.808px" viewBox="0 0 344.807 344.808" style="enable-background:new 0 0 344.807 344.808;"
	 xml:space="preserve">
<path style="&st0;" d="M0,0v337.915c0,3.806,3.088,6.894,6.896,6.894h331.02c3.806,0,6.891-3.088,6.891-6.894V0H0z"/>
<path style="&st1;" d="M70.688,213.872c0,0.762,0.615,1.38,1.377,1.38h11.725c0.762,0,1.377-0.618,1.377-1.38v-76.548
	c0-0.762-0.615-1.377-1.377-1.377H72.064c-0.762,0-1.377,0.615-1.377,1.377v27.93c0,0.762-0.621,1.38-1.383,1.38H39.656
	c-0.762,0-1.383-0.618-1.383-1.38v-27.93c0-0.762-0.615-1.377-1.377-1.377H25.172c-0.762,0-1.377,0.615-1.377,1.377v76.548
	c0,0.762,0.615,1.38,1.377,1.38h11.725c0.762,0,1.377-0.618,1.377-1.38v-32.757c0-0.762,0.621-1.383,1.383-1.383h29.648
	c0.762,0,1.383,0.621,1.383,1.383V213.872z"/>
<path style="&st1;" d="M115.099,150.426c0-0.762,0.618-1.38,1.38-1.38h35.859c0.762,0,1.377-0.618,1.377-1.377v-10.346
	c0-0.763-0.615-1.377-1.377-1.377h-50.344c-0.762,0-1.377,0.614-1.377,1.377v76.545c0,0.762,0.615,1.383,1.377,1.383h50.344
	c0.762,0,1.377-0.621,1.377-1.383v-10.342c0-0.762-0.615-1.38-1.377-1.38h-35.859c-0.762,0-1.38-0.618-1.38-1.377v-19.655
	c0-0.762,0.618-1.383,1.38-1.383h29.651c0.762,0,1.38-0.615,1.38-1.377v-10.342c0-0.763-0.618-1.381-1.38-1.381h-29.651
	c-0.762,0-1.38-0.617-1.38-1.38V150.426z"/>
<path style="&st1;" d="M300.305,187.088c0.762,0,1.169-0.618,0.905-1.38l-10.107-29.703c-0.123-0.357-0.261-0.541-0.442-0.541
	c-0.185,0-0.322,0.183-0.445,0.541l-10.11,29.703c-0.261,0.762,0.141,1.38,0.902,1.38H300.305z M297.451,135.945
	c0.762,0,1.594,0.618,1.857,1.38l26.455,76.544c0.264,0.762-0.144,1.383-0.905,1.383h-12.067c-0.762,0-1.591-0.621-1.857-1.383
	l-4.26-12.645c-0.258-0.762-1.093-1.377-1.852-1.377h-28.327c-0.762,0-1.591,0.615-1.854,1.377l-4.26,12.645
	c-0.264,0.762-1.096,1.383-1.857,1.383h-12.067c-0.765,0-1.163-0.621-0.905-1.383l26.458-76.544c0.267-0.762,1.096-1.38,1.857-1.38
	H297.451z"/>
<path style="&st1;" d="M203.262,213.872c-0.762,0-1.605-0.618-1.887-1.38l-19.444-52.797c-0.261-0.715-0.419-0.678-0.419,0.081
	v54.097c0,0.762-0.615,1.38-1.377,1.38H168.41c-0.762,0-1.383-0.618-1.383-1.38v-76.548c0-0.762,0.621-1.377,1.383-1.377h17.232
	c0.762,0,1.605,0.615,1.887,1.377l19.002,52.135c0.161,0.434,0.275,0.56,0.463,0.56c0.19,0,0.305-0.126,0.463-0.56l19.002-52.135
	c0.281-0.762,1.128-1.377,1.89-1.377h17.235c0.762,0,1.377,0.615,1.377,1.377v76.548c0,0.762-0.615,1.38-1.377,1.38h-11.725
	c-0.762,0-1.38-0.618-1.38-1.38v-54.097c0-0.759-0.158-0.795-0.419-0.081l-19.441,52.797c-0.284,0.762-1.131,1.38-1.893,1.38
	H203.262z"/>
</svg>
