<?xml version="1.0" encoding="utf-8"?>
<!-- Generator: Adobe Illustrator 16.0.3, SVG Export Plug-In . SVG Version: 6.00 Build 0)  -->
<!DOCTYPE svg PUBLIC "-//W3C//DTD SVG 1.1//EN" "http://www.w3.org/Graphics/SVG/1.1/DTD/svg11.dtd">
<svg version="1.1" id="Ebene_1" xmlns="http://www.w3.org/2000/svg" xmlns:xlink="http://www.w3.org/1999/xlink" x="0px" y="0px"
	 width="396.85px" height="396.851px" viewBox="0 0 396.85 396.851" enable-background="new 0 0 396.85 396.851"
	 xml:space="preserve">
<g display="none">
	<path display="inline" fill="none" d="M222.039,338.69c34.497-5.811,64.794-24.145,86.035-50.155l-67.188-16.748L222.039,338.69z"
		/>
	<path display="inline" fill="none" d="M331.801,246.481c5.262-14.793,8.137-30.708,8.137-47.284
		c0-16.546-2.865-32.433-8.108-47.203l-49.798,47.697L331.801,246.481z"/>
	<path display="inline" fill="none" d="M308.403,110.269c-21.344-26.333-51.936-44.874-86.788-50.634l19.617,68.228L308.403,110.269
		z"/>
	<path display="inline" fill="none" d="M89.87,289.747c21.126,25.295,50.901,43.121,84.738,48.894l-19.491-66.634L89.87,289.747z"/>
	<path display="inline" fill="none" d="M175.849,59.548c-35.195,5.681-66.08,24.39-87.54,51.006l68.33,17.337L175.849,59.548z"/>
	<path display="inline" fill="none" d="M65.518,150.848c-5.506,15.093-8.513,31.376-8.513,48.35c0,17.499,3.202,34.26,9.037,49.743
		l48.816-49.119L65.518,150.848z"/>
	<path display="inline" fill="#004A93" d="M308.403,110.269l13.883-3.636c-24.615-32.841-61.972-55.604-104.669-60.9l3.998,13.902
		C256.467,65.395,287.059,83.935,308.403,110.269z"/>
	<path display="inline" fill="#004A93" d="M339.938,199.198c0,16.576-2.875,32.491-8.137,47.284l10.405,9.783
		c7.039-17.666,10.915-36.922,10.915-57.067c0-20.166-3.885-39.44-10.938-57.121l-10.354,9.918
		C337.073,166.765,339.938,182.652,339.938,199.198z"/>
	<path display="inline" fill="#004A93" d="M57.005,199.198c0-16.974,3.007-33.257,8.513-48.35L55.314,140.72
		c-7.4,18.05-11.493,37.794-11.493,58.478c0,21.241,4.307,41.495,12.09,59.937l10.131-10.194
		C60.207,233.458,57.005,216.696,57.005,199.198z"/>
	<path display="inline" fill="#004A93" d="M322.083,292.026l-14.009-3.491c-21.241,26.011-51.538,44.345-86.035,50.155l-3.92,13.915
		C260.492,347.209,297.562,324.597,322.083,292.026z"/>
	<path display="inline" fill="#004A93" d="M89.87,289.747l-13.867,3.771c24.495,31.731,61.019,53.726,102.684,59.069l-4.079-13.946
		C140.771,332.868,110.996,315.042,89.87,289.747z"/>
	<path display="inline" fill="#004A93" d="M175.849,59.548l3.896-13.864c-43.038,5.218-80.682,28.179-105.374,61.334l13.937,3.536
		C109.769,83.938,140.654,65.229,175.849,59.548z"/>
</g>
<g>
	<path fill="#004A93" d="M157.048,238.958l26.586-0.268v-29.768h29.165l0.117,29.768l28.484,0.268c0,0-0.367-12.02-0.379-38.727
		c-0.012-26.709,0.375-39.396,0.375-39.396l-28.121,0.45l-0.037,27.972h-29.485v-27.972l-26.709-0.45c0,0,0.526,16.247,0.467,39.396
		L157.048,238.958z"/>
</g>
<g>
	<path fill="#004A93" d="M368.475,289.044c-6.299-5.67-88.8-83.466-88.8-83.466c-3.402-3.208-3.42-8.478-0.038-11.708
		c0,0,84.967-81.177,89.759-85.73c4.621-4.392,0.834-8-3.333-6.667c-5.629,1.801-120.821,31.905-120.821,31.905
		c-4.525,1.182-9.275-1.531-10.557-6.029c0,0-30.447-106.927-31.956-112.542s-5.772-4.875-7.333,0.333
		c-1.693,5.649-31.704,112.229-31.704,112.229c-1.268,4.502-6.011,7.231-10.54,6.065c0,0-107.07-27.57-115.089-29.128
		c-6-1.166-7.333,2.834-3.547,6.701c5.126,5.235,83.478,82.868,83.478,82.868c3.323,3.292,3.349,8.705,0.058,12.029
		c0,0-78.558,79.353-83.868,84.365c-4.455,4.204-3.569,9.313,3.988,7.259s113.648-30.902,113.648-30.902
		c4.513-1.228,9.286,1.439,10.606,5.927c0,0,30.594,103.991,32.303,111.254c1.333,5.668,6.333,6.001,8,0.334
		c2.077-7.062,31.663-111.757,31.663-111.757c1.271-4.501,6.023-7.248,10.559-6.104c0,0,111.308,28.065,119.389,29.736
		C371.396,297.474,373.396,293.474,368.475,289.044z M235.865,250.592c-4.538-1.131-9.289,1.627-10.557,6.129l-24.18,85.821
		c-1.268,4.502-3.38,4.513-4.693,0.023l-25.125-85.902c-1.313-4.489-6.08-7.158-10.593-5.931l-86.225,23.446
		c-4.513,1.228-5.508-0.482-2.211-3.801l64.15-64.548c3.297-3.317,3.279-8.728-0.041-12.022l-63.24-62.77
		c-3.32-3.295-2.326-5.05,2.207-3.899l86.874,22.042c4.534,1.15,9.278-1.593,10.544-6.095l23.843-84.823
		c1.266-4.502,3.358-4.509,4.65-0.014l24.424,84.943c1.292,4.495,6.05,7.197,10.572,6.004l90.039-23.744
		c4.522-1.193,5.459,0.479,2.081,3.714l-67.639,64.784c-3.378,3.235-3.354,8.503,0.054,11.707l67.844,63.781
		c3.407,3.204,2.482,4.899-2.056,3.769L235.865,250.592z"/>
</g>
<ellipse fill="none" cx="203.73" cy="199.473" rx="190.667" ry="184.667"/>
<rect x="-30.271" y="-22.861" fill="none" width="444.667" height="444.667"/>
<g>
</g>
<g>
</g>
<g>
</g>
<g>
</g>
<g>
</g>
<g>
</g>
</svg>
