<?xml version="1.0" encoding="utf-8"?>
<!-- Generator: Adobe Illustrator 13.0.0, SVG Export Plug-In . SVG Version: 6.00 Build 14948)  -->
<!DOCTYPE svg PUBLIC "-//W3C//DTD SVG 1.1//EN" "http://www.w3.org/Graphics/SVG/1.1/DTD/svg11.dtd">
<svg version="1.1" id="Ebene_1" xmlns="http://www.w3.org/2000/svg" xmlns:xlink="http://www.w3.org/1999/xlink" x="0px" y="0px"
	 width="1504px" height="112.898px" viewBox="0 0 1504 112.898" enable-background="new 0 0 1504 112.898" xml:space="preserve">
<g>
	<path fill="#FFFFFF" stroke="#FFFFFF" stroke-width="8" stroke-miterlimit="3.8637" d="M423.6,4
		c28.967,0,52.449,23.482,52.449,52.449s-23.482,52.449-52.449,52.449H56.451C27.482,108.898,4,85.416,4,56.449S27.482,4,56.451,4
		H423.6L423.6,4z"/>
	<path fill="#E2001A" d="M423.6,4c28.967,0,52.449,23.482,52.449,52.449s-23.482,52.449-52.449,52.449H56.451
		C27.482,108.898,4,85.416,4,56.449S27.482,4,56.451,4H423.6L423.6,4z"/>
	<path fill-rule="evenodd" clip-rule="evenodd" fill="#FFFFFF" d="M249.636,85.056l-27.417,0.008V27.844l27.417-0.003l1.193,0.04
		c4.608,0,8.344,3.736,8.344,8.344v1.152V75.52v1.19c0,4.61-3.736,8.346-8.344,8.346H249.636L249.636,85.056z M279.43,81.46
		c0,8.559-6.938,15.495-15.496,15.495l-2.341,0.021h-59.662l-0.003-79.71l-33.379,47.669l0.005,32.041h-21.457V65.056
		l-33.396-47.668l0.019,79.589H93.456V62.408H56.472v34.568H36.189l0.007-81.055h20.276V50.49l36.983,0.014V15.921h43.484
		l20.886,30.974l20.843-30.974h82.924l2.374,0.023c8.558,0,15.496,6.938,15.496,15.496l0.011,2.36v45.295L279.43,81.46L279.43,81.46
		z"/>
	<path fill-rule="evenodd" clip-rule="evenodd" fill="#FFFFFF" d="M390.281,75.52V37.377l0.027-1.232
		c0-4.608,3.737-8.264,8.345-8.264l1.165-0.04h17.881l1.201,0.04c4.608,0,8.344,3.736,8.344,8.344l-0.01-0.025l20.266-0.001v-2.398
		l-0.018-2.401c0-8.558-6.938-15.498-15.496-15.498l-2.367,0.019h-41.721l-2.383,0.055c-8.558,0-15.497,6.938-15.497,15.498
		l-0.001,2.327v45.295l-0.032,2.397c0,8.558,6.938,15.494,15.497,15.494l2.416-0.011h41.721l0,0l2.367,0.011
		c8.558,0,15.496-6.937,15.496-15.494l0.018-2.397v-2.366h-20.266l0.01-0.02c0,4.61-3.736,8.346-8.344,8.346h-1.201h-17.881h-1.173
		c-4.609,0-8.345-3.735-8.345-8.346L390.281,75.52L390.281,75.52z"/>
	<path fill-rule="evenodd" clip-rule="evenodd" fill="#FFFFFF" d="M299.754,96.984l7.463-16.66h35.061l7.412,16.639h22.833
		l-38.188-81.044h-19.134l-38.189,81.068L299.754,96.984L299.754,96.984z M312.46,68.411l12.28-27.454l12.229,27.435L312.46,68.411
		L312.46,68.411z"/>
	<path fill="#E2001A" d="M1279.72,15.848c11.016,16.714,25.83,34.838,36.846,51.548V15.848h19.374l0.112,81.394h-22.445
		l-36.362-48.58l0.104,48.58l-21.661,0.003l0.104-81.396H1279.72L1279.72,15.848z"/>
	<polygon fill="#E2001A" points="1120.732,26.864 1095.281,26.864 1095.311,97.241 1075.531,97.135 1075.58,26.947 1049.701,26.864 
		1049.701,15.848 1120.732,15.848 1120.732,26.864 	"/>
	<path fill="#E2001A" d="M911.781,15.81c11.016,16.714,25.83,34.838,36.846,51.548V15.81h19.513l-0.027,81.394h-22.444
		l-36.362-48.58l-0.102,48.58l-21.407,0.038l0.052-81.432H911.781L911.781,15.81z"/>
	<polygon fill="#E2001A" points="1458.242,86.39 1504,86.341 1504,97.356 1438.286,97.356 1438.488,15.848 1458.242,15.848 
		1458.242,86.39 	"/>
	<polygon fill="#E2001A" points="709.382,26.864 683.933,26.864 683.961,97.241 664.179,97.135 664.228,26.947 638.349,26.864 
		638.349,15.848 709.382,15.848 709.382,26.864 	"/>
	<polygon fill="#E2001A" points="787.251,26.864 737.872,26.864 737.98,50.874 778.896,50.794 778.896,62.566 737.872,62.566 
		737.98,86.39 787.251,86.499 787.251,97.135 717.358,97.135 717.358,15.848 787.251,15.848 787.251,26.864 	"/>
	<polygon fill="#E2001A" points="536.927,97.282 517.934,97.282 517.934,15.995 536.927,15.995 536.927,97.282 	"/>
	<path fill="#E2001A" d="M574.351,15.848c11.015,16.714,25.831,34.838,36.845,51.548V15.848h19.373l0.114,81.394h-22.446
		l-36.363-48.58l0.104,48.58l-21.663,0.003l0.105-81.396H574.351L574.351,15.848z"/>
	<polygon fill="#E2001A" points="1148.306,97.282 1127.794,97.282 1127.794,15.995 1148.306,15.995 1148.306,97.282 	"/>
	<path fill-rule="evenodd" clip-rule="evenodd" fill="#E2001A" d="M797.671,15.995h63.631c9.266,0,16.781,7.513,16.781,16.781
		v11.677c0,9.267-7.516,16.779-16.781,16.779h-6.9l25.914,36.013l-23.93,0.038l-26.21-36.086h-10.636l0.082,36.045l-22.114,0.041
		V15.995C797.508,15.995,797.557,15.995,797.671,15.995L797.671,15.995z M819.872,26.537h29.595c4.632,0,8.392,3.758,8.392,8.39
		v6.324c0,4.634-3.76,8.39-8.392,8.39h-29.674L819.872,26.537L819.872,26.537z"/>
	<path fill-rule="evenodd" clip-rule="evenodd" fill="#E2001A" d="M1178.199,15.848h47.836c9.268,0,16.78,7.513,16.78,16.781v47.833
		c0,9.271-7.513,16.78-16.78,16.78h-47.836c-9.268,0-16.78-7.51-16.78-16.78V32.628C1161.418,23.36,1168.931,15.848,1178.199,15.848
		L1178.199,15.848z M1190.527,27.688h23.18c4.633,0,8.389,3.757,8.389,8.392v40.934c0,4.633-3.756,8.392-8.389,8.392h-23.18
		c-4.633,0-8.392-3.759-8.392-8.392V36.079C1182.135,31.445,1185.894,27.688,1190.527,27.688L1190.527,27.688z"/>
	<path fill-rule="evenodd" clip-rule="evenodd" fill="#E2001A" d="M1362.168,97.121l7.482-16.704h35.153l7.431,16.686h22.89
		l-38.286-81.255h-19.184l-38.286,81.276L1362.168,97.121L1362.168,97.121z M1374.909,68.474l12.312-27.524l12.261,27.506
		L1374.909,68.474L1374.909,68.474z"/>
	<path fill-rule="evenodd" clip-rule="evenodd" fill="#E2001A" d="M993.913,97.121l7.485-16.704h35.149l7.431,16.686h22.894
		l-38.29-81.255h-19.183l-38.286,81.276L993.913,97.121L993.913,97.121z M1006.653,68.474l12.312-27.524l12.26,27.506
		L1006.653,68.474L1006.653,68.474z"/>
</g>
</svg>
