<?xml version="1.0" encoding="utf-8"?>
<!-- Generator: Adobe Illustrator 14.0.0, SVG Export Plug-In . SVG Version: 6.00 Build 43363)  -->
<!DOCTYPE svg PUBLIC "-//W3C//DTD SVG 1.1//EN" "http://www.w3.org/Graphics/SVG/1.1/DTD/svg11.dtd">
<svg version="1.1" id="Ebene_1" xmlns="http://www.w3.org/2000/svg" xmlns:xlink="http://www.w3.org/1999/xlink" x="0px" y="0px"
	 width="795px" height="601px" viewBox="0 0 795 601" enable-background="new 0 0 795 601" xml:space="preserve">
<polyline fill="#39388B" points="0.175,1.635 54.78,1.635 54.78,105.216 155.289,105.216 155.289,1.635 209.904,1.635 
	209.904,271.579 155.289,271.579 155.289,155.127 54.78,155.127 54.78,271.579 0.175,271.579 0.175,1.635 "/>
<path fill="#39388B" d="M458.375,169.49c0,72.966-39.209,108.515-104.925,108.515c-66.064,0-104.606-35.17-104.606-108.515V1.635
	h54.029V169.49c0,29.501,6.883,58.604,50.577,58.604c38.522,0,50.936-18.52,50.936-58.604V1.635h53.989V169.49"/>
<polyline fill="#39388B" points="493.088,1.635 546.182,1.635 647.574,182.738 648.251,182.738 648.251,1.635 698.281,1.635 
	698.281,271.579 644.85,271.579 543.794,90.854 543.117,90.854 543.117,271.579 493.088,271.579 493.088,1.635 "/>
<rect x="735.699" y="1.635" fill="#39388B" width="53.412" height="269.944"/>
<polyline fill="#39388B" points="117.522,336.827 145.163,336.827 145.163,454.155 262.5,454.155 262.5,481.806 145.163,481.806 
	145.163,599.134 117.522,599.134 117.522,481.806 0.194,481.806 0.194,454.155 117.522,454.155 117.522,336.827 "/>
<path fill="#39388B" d="M481.609,415.026c-3.422-26.836-26.557-47.246-53.074-47.246c-47.991,0-66.024,45.355-66.024,92.621
	c0,44.997,18.033,90.353,66.024,90.353c32.664,0,51.025-24.945,55.104-60.474h51.721c-5.45,67.277-47.285,110.385-106.824,110.385
	c-75.204,0-119.456-62.363-119.456-140.264c0-80.148,44.251-142.531,119.456-142.531c53.412,0,98.33,34.792,104.795,97.156H481.609"
	/>
<path fill="#39388B" d="M674.529,550.754c48.519,0,66.76-45.355,66.76-90.353c0-47.266-18.241-92.621-66.76-92.621
	c-48.499,0-66.74,45.355-66.74,92.621C607.789,505.398,626.03,550.754,674.529,550.754 M674.529,317.87
	c76.03,0,120.769,62.383,120.769,142.531c0,77.9-44.738,140.264-120.769,140.264S553.78,538.302,553.78,460.401
	C553.78,380.253,598.499,317.87,674.529,317.87z"/>
<path fill="#39388B" d="M350.924,21.209c0,11.876-9.658,21.564-21.554,21.564c-11.896,0-21.554-9.688-21.554-21.564
	c0-11.518,9.658-21.544,21.554-21.544C341.266-0.335,350.924,9.691,350.924,21.209"/>
<path fill="#39388B" d="M398.935,21.487c0,11.677-9.488,21.186-21.166,21.186c-11.687,0-21.166-9.509-21.166-21.186
	c0-11.319,9.479-21.166,21.166-21.166C389.446,0.322,398.935,10.168,398.935,21.487"/>
</svg>
