<?xml version="1.0" encoding="UTF-8" standalone="no"?>
<svg
   xmlns:svg="http://www.w3.org/2000/svg"
   xmlns="http://www.w3.org/2000/svg"
   version="1.1"
   width="618.75708"
   height="79.360069"
   id="svg5335">
  <defs
     id="defs5337" />
  <g
     transform="translate(-40.62147,-492.68215)"
     id="layer1">
    <path
       d="m 148.01134,541.85154 0,-15.11514 30.02448,0 -30.02448,15.11514 z"
       id="path1346"
       style="fill:#e20049;fill-opacity:1;fill-rule:nonzero;stroke:none" />
    <path
       d="m 561.93371,565.22856 c -2.3463,-15.01223 -5.39239,-36.22777 -7.50407,-51.24412 l -14.65822,0 c 0,0 0.85619,3.02961 0.62156,4.4374 l -22.90322,46.55151 9.41815,0 5.5241,-11.31578 12.99112,0 1.55596,11.57099 14.95462,0 z m -17.58905,-19.48668 -8.02684,0 6.16214,-12.77707 1.8647,12.77707 z m -20.05063,-8.30262 c 3.51946,-4.21924 5.6229,-10.08911 3.74998,-15.72025 -1.6383,-3.98872 -5.86988,-6.80016 -9.85037,-7.27354 -7.98155,-0.70389 -24.72676,-0.33754 -24.72676,-0.33754 l -8.88715,50.86542 14.26308,0 c 0,0 3.87345,-21.07558 3.86933,-21.43782 7.9692,0 15.71202,-0.93852 21.58189,-6.09627 m -12.46422,-4.72143 c -2.11168,1.87705 -4.92313,2.11579 -7.49995,1.87705 l 2.22282,-13.1105 c 3.04608,-0.23874 6.21565,-0.0206 7.63166,2.55624 0.94264,3.28483 -0.23875,6.56965 -2.35453,8.67721 m -29.41938,-8.88714 c -3.24366,-10.57896 -14.22601,-9.84625 -14.22601,-9.84625 l -20.47871,0.12349 -8.86245,50.86542 13.87612,0 4.02576,-22.62332 c 0.69979,-0.23052 1.85235,-0.46515 2.3175,0.23463 3.0008,7.0348 7.82102,22.38869 7.82102,22.38869 l 14.45241,0 -9.09708,-25.20014 c 6.24859,-2.58094 11.26227,-10.11381 10.17144,-15.94252 m -16.93044,9.11765 c -2.08286,1.87293 -4.85726,2.10345 -7.39292,1.87293 l 2.30515,-13.13519 c 3.00491,-0.23051 6.00982,0 7.40526,2.58505 0.92206,3.28483 -0.23462,6.56554 -2.31749,8.67721 m -132.84121,-18.84082 9.38523,22.83325 4.05868,-22.83325 9.17942,0 -8.97772,50.90247 -10.85475,0 -11.64507,-28.5673 -5.0672,28.5673 -9.36053,-0.0371 8.85834,-50.86543 14.4236,0 z m 105.6006,0 -1.64241,8.38495 -18.42055,-0.4034 -2.32984,13.14342 13.27514,-0.13172 -1.25136,7.03068 -12.90057,0 -2.81556,14.7241 19.24381,-0.18112 -1.25136,8.33556 -33.42455,0 8.52079,-50.90247 32.99646,0 z m 216.13915,0 -1.65065,8.38495 -18.41644,-0.4034 -2.32983,13.14342 13.27515,-0.13172 -1.24313,7.03068 -12.90056,0 -2.8238,14.7241 19.23559,-0.18112 -1.23903,8.33556 -33.43279,0 8.53315,-50.90247 32.99234,0 z m -255.78759,0 -1.39543,7.98155 -11.07292,0.0988 -7.29001,42.82213 -13.48919,0 7.1377,-42.92092 -11.69447,0.0988 1.30487,-8.08034 36.49945,0 z m 191.22963,0 9.38934,22.83325 4.05457,-22.83325 9.18764,0 -8.9777,50.90247 -10.85475,0 -11.64096,-28.5673 -5.07543,28.5673 -9.35641,-0.0371 8.85421,-50.86543 14.41949,0 z m -289.09195,50.77692 -17.63845,0.1276 11.29107,-64.9556 18.02128,0.0535 -11.6739,64.77448 z m -79.31786,2.15778 c -20.4005,0 -34.38367,-13.60446 -34.38367,-34.84469 0,-20.99326 13.98317,-34.51538 34.38367,-34.51538 12.64946,0 22.80032,5.70934 26.18806,13.18047 l -11.93735,10.33197 c -1.69181,-3.86523 -7.47936,-7.3888 -12.46835,-7.3888 -8.5496,0 -15.32095,6.29798 -15.32095,18.39174 0,12.08553 6.41322,18.63872 15.32095,18.63872 4.89844,0 11.13055,-3.43713 13.27104,-8.14209 l 11.3981,10.91237 c -4.45387,8.31498 -14.60472,13.43569 -26.4515,13.43569 m -69.65644,0 c -22.53276,0 -35.62268,-13.76911 -35.62268,-34.84469 0,-20.32641 13.44804,-34.51538 33.30519,-34.51538 13.3657,0 23.61124,4.70084 27.6123,12.84705 l -11.66566,10.32785 c -2.93905,-5.03426 -7.7428,-7.89099 -13.80615,-7.89099 -9.25761,0 -15.49796,6.96482 -15.49796,19.23147 0,12.25841 6.68078,19.98064 15.67496,19.98064 5.08366,0 8.37672,-1.51069 9.80096,-3.35481 l 0,-6.97305 -13.5427,0 30.02035,-15.11514 0,29.55932 c -4.72554,6.54907 -13.62502,10.74773 -26.27861,10.74773 m -36.92509,-1.93056 -22.359872,-65.49896 -24.492126,0 -22.355762,65.49896 19.058575,0 4.634987,-13.68266 21.553075,0 4.544425,13.68266 19.416698,0 z m -28.95011,-28.88837 -11.579212,0 c 2.494487,-7.13359 4.453862,-13.01581 5.7011,-19.56489 l 0.354012,0 c 1.1608,6.54908 3.297175,12.59596 5.5241,19.56489"
       id="path1374"
       style="fill:#004c99;fill-opacity:1;fill-rule:nonzero;stroke:none" />
  </g>
</svg>
