<?xml version="1.0" encoding="UTF-8" standalone="no"?>
<!-- Created with Inkscape (http://www.inkscape.org/) -->
<svg
   xmlns:svg="http://www.w3.org/2000/svg"
   xmlns="http://www.w3.org/2000/svg"
   version="1.0"
   width="566.929"
   height="283.121">
  <path
     d="M 107.943,20.876 L 31.995,49.149 L 23.179,71.857 L 38.613,92.68 L 62.072,109.128 L 0,109.042 L 0,0 L 107.943,0 M 24.725,280.275 C 24.412,281.755 23.4,283.041 21.763,283.041 C 20.128,283.041 19.116,281.832 18.804,280.312 L 15.064,261.965 L 11.44,280.312 C 11.127,281.792 10.077,283.041 8.48,283.041 C 6.843,283.041 5.831,281.756 5.519,280.275 L 0.298,256.707 L 4,256.707 L 8.597,277.237 L 12.221,259.316 C 12.531,257.754 13.311,256.394 15.102,256.394 C 16.933,256.394 17.714,257.718 18.024,259.316 L 21.648,277.237 L 26.245,256.707 L 29.947,256.707 L 24.725,280.275 z M 44.686,282.688 C 41.14,282.688 38.608,280.935 38.608,277.158 L 38.608,262.47 C 38.608,258.924 40.751,256.707 44.335,256.707 L 55.477,256.707 L 55.477,260.484 L 45.66,260.484 C 43.633,260.484 42.386,261.26 42.386,263.406 L 42.386,267.848 L 55.477,267.848 L 55.477,271.586 L 42.386,271.586 L 42.386,275.948 C 42.386,278.133 43.633,278.909 45.698,278.909 L 55.477,278.909 L 55.477,282.687 L 44.686,282.687 L 44.686,282.688 z M 101.541,282.688 L 101.541,262.081 L 94.88,280.432 C 94.373,281.792 93.829,283.121 92.152,283.121 C 90.555,283.121 90.048,281.832 89.581,280.548 L 82.763,262.081 L 82.763,282.688 L 79.141,282.688 L 79.141,259.9 C 79.141,257.915 80.31,256.434 82.375,256.434 C 84.05,256.434 84.984,257.367 85.53,258.887 L 92.114,277.429 L 98.815,258.847 C 99.322,257.443 100.335,256.394 101.931,256.394 C 104.074,256.394 105.164,257.991 105.164,260.016 L 105.164,282.688 L 101.541,282.688 L 101.541,282.688 z M 132.178,282.688 L 129.919,276.22 L 119.633,276.22 L 117.374,282.688 L 113.322,282.688 L 121.776,258.811 C 122.282,257.407 123.216,256.434 124.776,256.434 C 126.373,256.434 127.269,257.407 127.775,258.811 L 136.23,282.688 L 132.178,282.688 z M 124.582,260.989 L 120.842,272.638 L 128.71,272.638 L 124.582,260.989 z M 161.868,280.975 C 160.621,282.34 159.453,282.688 157.66,282.688 L 151.076,282.688 C 149.205,282.688 147.803,282.537 146.401,281.208 C 144.88,279.807 144.764,278.286 144.764,276.341 L 144.764,262.822 C 144.764,260.757 144.958,259.196 146.711,257.875 C 148.036,256.858 149.439,256.707 151.075,256.707 L 161.945,256.707 L 161.945,260.484 L 151.853,260.484 C 149.594,260.484 148.541,261.029 148.541,263.446 L 148.541,275.873 C 148.541,277.702 149.243,278.91 151.269,278.91 L 156.684,278.91 C 158.555,278.91 159.568,277.898 159.568,276.029 L 159.568,268.352 L 163.307,268.352 L 163.307,276.42 C 163.309,278.21 163.115,279.615 161.868,280.975 z M 189.305,283.001 C 187.202,283.001 186.852,281.641 186.072,280.039 L 177.267,261.613 L 177.267,282.688 L 173.645,282.688 L 173.645,260.288 C 173.645,258.264 174.423,256.475 176.723,256.475 C 178.826,256.475 179.254,257.755 180.035,259.397 L 188.762,277.783 L 188.762,256.708 L 192.384,256.708 L 192.384,279.456 C 192.383,281.328 191.332,283.001 189.305,283.001 z M 208.756,282.688 C 205.21,282.688 202.679,280.935 202.679,277.158 L 202.679,262.47 C 202.679,258.924 204.822,256.707 208.406,256.707 L 219.549,256.707 L 219.549,260.484 L 209.732,260.484 C 207.705,260.484 206.459,261.26 206.459,263.406 L 206.459,267.848 L 219.55,267.848 L 219.55,271.586 L 206.459,271.586 L 206.459,275.948 C 206.459,278.133 207.705,278.909 209.771,278.909 L 219.55,278.909 L 219.55,282.687 L 208.756,282.687 L 208.756,282.688 z M 238.994,260.484 L 238.994,282.688 L 235.214,282.688 L 235.214,260.484 L 228.787,260.484 L 228.787,256.707 L 245.46,256.707 L 245.46,260.484 L 238.994,260.484 z M 254.855,282.688 L 254.855,256.707 L 258.632,256.707 L 258.632,282.688 L 254.855,282.688 z M 301.305,282.688 C 297.758,282.688 295.229,280.935 295.229,277.158 L 295.229,262.47 C 295.229,258.924 297.371,256.707 300.957,256.707 L 312.099,256.707 L 312.099,260.484 L 302.283,260.484 C 300.258,260.484 299.009,261.26 299.009,263.406 L 299.009,267.848 L 312.1,267.848 L 312.1,271.586 L 299.009,271.586 L 299.009,275.948 C 299.009,278.133 300.258,278.909 302.322,278.909 L 312.099,278.909 L 312.099,282.687 L 301.305,282.687 L 301.305,282.688 z M 344.136,260.484 L 344.136,282.688 L 340.358,282.688 L 340.358,260.484 L 333.926,260.484 L 333.926,256.707 L 350.604,256.707 L 350.604,260.484 L 344.136,260.484 z M 374.224,282.688 L 374.224,271.586 L 362.846,271.586 L 362.846,282.688 L 359.068,282.688 L 359.068,256.707 L 362.846,256.707 L 362.846,267.849 L 374.224,267.849 L 374.224,256.707 L 378.002,256.707 L 378.002,282.688 L 374.224,282.688 z M 394.371,282.688 C 390.829,282.688 388.296,280.935 388.296,277.158 L 388.296,262.47 C 388.296,258.924 390.437,256.707 394.023,256.707 L 405.166,256.707 L 405.166,260.484 L 395.349,260.484 C 393.324,260.484 392.076,261.26 392.076,263.406 L 392.076,267.848 L 405.167,267.848 L 405.167,271.586 L 392.076,271.586 L 392.076,275.948 C 392.076,278.133 393.324,278.909 395.389,278.909 L 405.166,278.909 L 405.166,282.687 L 394.371,282.687 L 394.371,282.688 z M 451.622,280.275 C 451.31,281.755 450.298,283.041 448.66,283.041 C 447.023,283.041 446.011,281.832 445.699,280.312 L 441.957,261.965 L 438.335,280.312 C 438.022,281.792 436.971,283.041 435.373,283.041 C 433.736,283.041 432.724,281.756 432.412,280.275 L 427.193,256.707 L 430.894,256.707 L 435.493,277.237 L 439.115,259.316 C 439.428,257.754 440.204,256.394 441.997,256.394 C 443.83,256.394 444.606,257.718 444.919,259.316 L 448.545,277.237 L 453.139,256.707 L 456.841,256.707 L 451.622,280.275 z M 477.809,282.688 L 472.081,282.688 C 470.484,282.688 468.848,282.496 467.602,281.408 C 466.314,280.311 465.809,278.482 465.809,276.845 L 465.809,262.629 C 465.809,260.912 466.354,259.195 467.638,258.026 C 468.887,256.897 470.444,256.706 472.08,256.706 L 477.848,256.706 C 481.858,256.706 484.043,258.499 484.043,262.629 L 484.043,276.805 C 484.044,280.895 481.783,282.688 477.809,282.688 z M 480.302,263.718 C 480.302,261.34 479.289,260.484 476.952,260.484 L 472.977,260.484 C 470.64,260.484 469.587,261.3 469.587,263.718 L 469.587,275.756 C 469.587,276.652 469.783,277.549 470.443,278.209 C 471.147,278.909 472.04,278.909 472.976,278.909 L 476.951,278.909 C 479.172,278.909 480.301,278.209 480.301,275.872 L 480.301,263.718 L 480.302,263.718 z M 508.209,282.688 L 498.936,272.714 C 498.584,272.326 498.468,271.586 498.468,271.081 C 498.468,269.48 499.324,268.896 500.805,268.86 C 502.638,268.784 504.507,268.86 506.336,268.82 C 508.089,268.784 509.106,268.04 509.106,266.211 L 509.106,263.249 C 509.106,261.3 507.817,260.483 505.989,260.483 L 498.156,260.483 L 498.156,282.687 L 494.379,282.687 L 494.379,256.706 L 507.077,256.706 C 510.663,256.706 512.885,258.534 512.885,262.236 L 512.885,266.718 C 512.885,269.989 510.663,272.093 507.43,272.093 L 503.068,272.093 L 512.922,282.687 L 508.209,282.687 L 508.209,282.688 z M 529.297,282.688 C 527.464,282.688 525.947,282.496 524.466,281.328 C 522.869,280.079 522.673,278.366 522.673,276.457 L 522.673,256.707 L 526.451,256.707 L 526.451,275.561 C 526.451,277.743 527.151,278.952 529.528,278.911 L 530.384,278.911 L 539.581,278.911 L 539.581,282.689 L 529.297,282.689 L 529.297,282.688 z M 561.25,282.688 L 548.043,282.688 L 548.043,256.707 L 561.17,256.707 C 564.952,256.707 566.861,258.848 566.861,262.55 L 566.861,276.73 C 566.861,280.275 564.912,282.688 561.25,282.688 z M 563.119,263.562 C 563.119,261.533 562.03,260.484 560.001,260.484 L 551.82,260.484 L 551.82,278.91 L 560.001,278.91 C 562.263,278.91 563.119,277.666 563.119,275.524 L 563.119,263.562 z M 276.324,260.486 C 273.402,260.486 273.012,261.576 273.012,264.185 C 273.012,265.315 272.934,266.329 273.908,267.107 C 274.648,267.692 275.427,267.692 276.323,267.692 L 280.336,267.692 C 283.686,267.692 285.983,269.562 285.983,273.028 L 285.983,277.158 C 285.983,280.819 283.646,282.689 280.102,282.689 L 269.272,282.689 L 269.272,278.91 L 278.972,278.91 C 281.66,278.91 282.284,277.975 282.243,275.482 L 282.243,274.119 C 282.243,272.015 280.997,271.47 279.088,271.47 L 275.076,271.47 C 271.921,271.47 269.232,269.601 269.232,266.251 L 269.232,262.2 C 269.232,260.562 269.855,258.927 271.141,257.837 C 272.309,256.863 273.556,256.707 274.998,256.707 L 286.022,256.707 L 286.022,260.486 L 276.324,260.486 L 276.324,260.486 z"
     style="fill:#a8a8a7;stroke:none" />
  <path
     d="M 555.639,67.885 L 555.639,93.831 L 521.633,68.018 L 515.377,67.846 L 515.377,109.172 L 526.671,109.172 L 526.671,83.399 L 560.626,109.172 L 566.929,109.172 L 566.929,67.884 L 555.639,67.884 L 555.639,67.885 z M 485.505,98.212 C 480.979,100.859 475.079,102.233 467.743,102.233 C 460.43,102.233 454.572,100.86 450.061,98.212 C 445.535,95.519 443.57,92.429 443.545,88.581 C 443.569,84.791 445.534,81.709 450.061,79.019 C 454.572,76.368 460.439,74.991 467.743,74.991 C 475.039,74.991 480.922,76.38 485.48,79.054 C 490.059,81.77 492.036,84.839 492.06,88.581 C 492.036,92.428 490.059,95.514 485.505,98.212 M 493.253,72.786 C 486.558,68.79 478.032,66.839 467.743,66.839 C 457.525,66.839 449.037,68.79 442.353,72.786 C 435.681,76.736 432.059,82.119 432.08,88.545 C 432.059,94.986 435.705,100.383 442.417,104.375 C 449.141,108.412 457.613,110.393 467.743,110.393 C 477.944,110.393 486.457,108.43 493.184,104.408 C 499.9,100.446 503.558,95.033 503.534,88.546 C 503.559,82.119 499.933,76.736 493.253,72.786 M 408.683,109.173 L 420.15,109.173 L 420.15,67.704 L 408.683,67.704 L 408.683,109.173 z M 375.564,84.098 L 346.829,84.098 L 346.829,76.215 L 375.564,76.215 C 378.57,76.211 380.731,76.659 381.972,77.356 C 383.197,78.085 383.613,78.793 383.653,80.122 C 383.613,81.491 383.188,82.211 381.964,82.949 C 380.731,83.65 378.57,84.102 375.564,84.098 M 390.753,88.291 C 393.566,86.138 395.144,83.31 395.127,80.13 C 395.159,76.324 393.158,73.131 389.616,71.098 C 386.07,69.025 381.344,68.062 375.436,68.058 L 335.371,68.058 L 335.371,109.174 L 346.829,109.174 L 346.829,92.253 L 369.457,92.253 L 385.462,109.174 L 398.434,109.174 L 382.469,91.835 C 385.71,91.204 388.483,90.031 390.753,88.291 M 307.291,97.536 C 303.758,99.807 298.739,101.015 292.215,101.015 L 277.19,101.015 L 277.19,76.043 L 292.215,76.047 C 298.459,76.047 303.405,77.298 307.088,79.679 L 307.088,79.675 C 310.793,82.118 312.414,84.92 312.446,88.564 C 312.414,92.409 310.825,95.236 307.291,97.536 M 314.855,73.494 C 308.936,69.724 301.292,67.886 291.983,67.886 L 265.726,67.886 L 265.726,109.174 L 291.983,109.174 C 301.484,109.174 309.18,107.409 315.007,103.761 C 320.83,100.152 323.944,94.967 323.911,88.696 C 323.944,82.445 320.759,77.232 314.855,73.494 M 237.613,93.836 L 203.581,68.02 L 197.332,67.848 L 197.332,109.174 L 208.63,109.174 L 208.63,83.401 L 242.592,109.174 L 248.908,109.174 L 248.908,67.886 L 237.613,67.886 L 237.613,93.836 L 237.613,93.836 z M 141.066,91.384 L 169.832,91.384 L 169.832,83.223 L 141.071,83.223 L 141.071,76.043 L 184.951,76.043 L 184.951,67.885 L 129.595,67.885 L 129.595,109.173 L 187.393,109.173 L 187.393,101.015 L 141.066,101.015 L 141.066,91.384 z M 121.674,68.057 L 105.039,68.057 L 76.958,84.228 L 76.958,68.057 L 65.496,68.057 L 65.496,109.173 L 76.958,109.173 L 76.958,94.055 L 87.239,88.138 L 110.232,109.173 L 123.861,109.173 L 95.596,83.301 L 121.674,68.057 z M 30.606,65.254 C 39.683,27.272 166.602,20.08 313.747,49.049 C 314.344,49.165 314.916,49.279 315.512,49.405 C 151.811,6.197 17.652,5.277 6.123,44.598 C 1.066,61.856 23.471,85.47 61.363,108.641 C 40.418,93.805 27.569,77.995 30.606,65.254 M 514.976,121.924 C 534.659,134.723 542.499,145.965 539.65,156.951 C 537.308,165.912 526.603,172.884 509.433,177.778 C 458.925,190.089 361.449,184.177 256.87,163.182 C 208.117,153.397 166.541,142.867 128.584,128.959 C 165.57,143.875 204.577,155.953 250.198,168.137 C 403.595,209.127 539.894,214.066 560.865,179.239 C 571.264,159.557 550.58,141.931 514.976,121.924"
     style="fill:#000000;stroke:none" />
  <path
     d="M 518.387,123.856 C 538.077,136.659 545.858,148.027 542.992,159.029 C 540.671,167.982 529.945,174.954 512.783,179.841 C 462.276,192.152 364.799,186.237 260.214,165.261 C 211.449,155.467 166.541,142.865 128.582,128.959 C 165.572,143.877 207.915,158.017 253.542,170.203 C 406.945,211.193 543.229,216.137 564.212,181.302 C 574.598,161.619 554.006,143.857 518.387,123.856 M 33.5,66.054 C 42.545,28.24 169.977,20.908 316.372,49.731 C 316.965,49.845 317.557,49.965 318.145,50.08 C 159.562,9.023 21.721,6.908 9.415,45.575 C 3.968,62.722 24.177,85.951 62.07,109.126 C 41.124,94.292 30.473,78.791 33.5,66.054"
     style="fill:#dc231a;stroke:none" />
</svg>
