<?xml version="1.0" encoding="UTF-8" standalone="no"?>
<svg
   xmlns:svg="http://www.w3.org/2000/svg"
   xmlns="http://www.w3.org/2000/svg"
   version="1.1"
   width="543.25262"
   height="106.99528"
   id="svg3211">
  <defs
     id="defs3213" />
  <g
     transform="translate(-78.37394,-478.86433)"
     id="layer1">
    <path
       d="m 182.23094,508.74986 31.31415,0 0,69.71658 -31.31415,0 0,-69.71658 z m 419.68597,0.005 14.70265,0 0.007,24.05322 -14.70916,0 0.005,45.79039 -31.45909,-0.0117 -0.0326,-45.76921 -9.73497,0.0228 -0.0163,-24.0858 10.05584,-0.0212 0.0147,-23.21931 31.16756,0.0117 0,23.22908 z m -419.68597,-23.23061 31.31415,0 0,18.87057 -31.31415,0 0,-18.87057 z m 136.061,-1.65953 31.25389,0 0,44.37827 19.60025,-19.48624 45.04442,-0.007 c -8.95969,7.9906 -17.92102,15.99097 -26.88072,23.98156 9.44344,15.25478 18.89013,30.51444 28.33193,45.76921 l -39.22982,0 c -5.32598,-8.47596 -10.65522,-16.95355 -15.98445,-25.42788 l -10.88161,10.37833 c 0,0.24268 -0.0146,0.27689 -0.0146,0.51957 l 0.0146,14.49578 -31.25389,0.0343 0,-94.63629 z m -234.918,0 31.25226,0 0,44.37827 19.60351,-19.48624 45.04116,-0.007 c -8.95969,7.9906 -17.92102,15.99097 -26.87909,23.98156 9.44343,15.25478 18.8885,30.51444 28.33356,45.76921 l -39.23146,0 c -5.3276,-8.47596 -10.65521,-16.95355 -15.98282,-25.42788 l -10.88486,10.37833 c 0,0.24268 -0.013,0.27689 -0.013,0.51957 l 0.013,14.49578 -31.25226,0.0343 0,-94.63629 z m 423.7259,24.88551 31.0389,0 0,7.53129 c 2.79166,-7.19088 10.05583,-8.06877 20.48301,-7.53129 l 0,24.05486 c -22.74535,-3.57183 -21.24039,23.1623 -20.48303,45.66171 l -31.03889,0 0,-69.71657 z m -256.21817,41.72099 66.11054,0 c 0.52771,-25.43603 -10.178,-39.1207 -29.78476,-44.31475 -30.07142,-7.96942 -65.72453,1.23947 -71.19873,23.97342 -14.03322,58.29422 84.27425,65.10398 100.98349,24.69983 l 0,-0.72641 -37.05057,0 c -3.46107,9.7366 -25.20312,11.90283 -29.05997,-3.63209 m -0.40882,-19.02531 c 0.89255,-4.92205 7.08013,-8.75448 14.53813,-8.75448 7.458,0 13.64396,3.83243 14.5365,8.75448 l -29.07463,0 z m 188.88494,19.44796 66.11217,0 c 0.52608,-25.43603 -10.17962,-39.1207 -29.78639,-44.31638 -30.07142,-7.96779 -65.72453,1.2411 -71.1971,23.97505 -14.03485,58.29422 84.27099,65.10398 100.98348,24.69984 l 0,-0.72642 -37.0522,0 c -3.46269,9.73497 -25.20311,11.9012 -29.05996,-3.63209 m -0.40882,-19.02694 c 0.89255,-4.92042 7.08014,-8.75284 14.53651,-8.75284 7.45799,0 13.64558,3.83242 14.53975,8.75284 l -29.07626,0 z"
       id="path116"
       style="fill:#2e5aa0;fill-opacity:1;fill-rule:nonzero;stroke:none" />
  </g>
</svg>
