<?xml version="1.0" encoding="UTF-8" standalone="no"?>
<!-- Created with Inkscape (http://www.inkscape.org/) -->

<svg
   xmlns:dc="http://purl.org/dc/elements/1.1/"
   xmlns:cc="http://creativecommons.org/ns#"
   xmlns:rdf="http://www.w3.org/1999/02/22-rdf-syntax-ns#"
   xmlns:svg="http://www.w3.org/2000/svg"
   xmlns="http://www.w3.org/2000/svg"
   version="1.1"
   width="715.74799"
   height="226.77165"
   id="svg7377">
  <defs
     id="defs7379">
    <clipPath
       id="clipPath7093">
      <path
         d="m 0,0 1213.228,0 0,841.89 L 0,841.89 0,0 z"
         id="path7095" />
    </clipPath>
  </defs>
  <metadata
     id="metadata7382">
    <rdf:RDF>
      <cc:Work
         rdf:about="">
        <dc:format>image/svg+xml</dc:format>
        <dc:type
           rdf:resource="http://purl.org/dc/dcmitype/StillImage" />
        <dc:title></dc:title>
      </cc:Work>
    </rdf:RDF>
  </metadata>
  <g
     transform="translate(-15.139867,-455.14564)"
     id="layer1">
    <g
       transform="matrix(6.5406166,0,0,-6.5406166,-7022.5156,968.6314)"
       id="g7089">
      <g
         clip-path="url(#clipPath7093)"
         id="g7091">
        <g
           transform="translate(1115.7754,58.060593)"
           id="g7097">
          <path
             d="m 0,0 c 0,6.221 -4.529,12.121 -11.573,12.121 -7.318,0 -12.487,-6.037 -12.487,-12.899 0,-1.92 0.346,-3.733 0.997,-5.363 -0.256,0.038 -0.525,0.057 -0.809,0.057 l -7.959,0 0,22.047 c 0,2.608 -1.554,3.935 -3.704,3.935 -2.15,0 -3.706,-1.327 -3.706,-3.935 l 0,-25.203 c 0,-2.379 1.784,-3.704 3.706,-3.704 l 11.663,0 c 1.992,0 3.28,1.002 3.615,2.576 2.136,-2.061 5.095,-3.308 8.684,-3.308 5.397,0 11.206,2.287 11.206,5.763 0,1.829 -1.372,3.064 -2.973,3.064 -1.647,0 -3.797,-2.241 -7.318,-2.241 -4.574,0 -5.718,2.47 -5.718,3.98 l 12.899,0 C -1.19,-3.11 0,-2.516 0,0 m -16.376,1.783 c 0,1.601 1.83,4.301 4.62,4.301 2.79,0 4.619,-2.7 4.619,-4.301 l -9.239,0 z"
             id="path7099"
             style="fill:#2056ae;fill-opacity:1;fill-rule:nonzero;stroke:none" />
        </g>
        <g
           transform="translate(1130.501,70.181396)"
           id="g7101">
          <path
             d="m 0,0 c -3.064,0 -4.985,-0.961 -6.129,-2.744 -0.458,1.052 -1.647,2.287 -3.568,2.287 -2.103,0 -3.567,-1.646 -3.567,-3.705 l 0,-17.473 c 0,-2.058 1.464,-3.705 3.567,-3.705 2.105,0 3.568,1.647 3.568,3.705 l 0,11.297 c 0,2.471 1.464,4.301 3.934,4.301 2.47,0 3.934,-1.83 3.934,-4.301 l 0,-11.297 c 0,-2.058 1.464,-3.705 3.568,-3.705 2.103,0 3.567,1.647 3.567,3.705 l 0,13.22 C 8.874,-2.561 4.94,0 0,0"
             id="path7103"
             style="fill:#2056ae;fill-opacity:1;fill-rule:nonzero;stroke:none" />
        </g>
        <g
           transform="translate(1158.356,51.702698)"
           id="g7105">
          <path
             d="M 0,0 -7.548,0 2.24,13.127 c 0.596,0.823 0.916,1.419 0.916,2.059 0,0.641 -0.184,1.234 -0.64,1.691 -0.687,0.687 -1.373,0.87 -2.7,0.87 l -13.722,0 c -2.287,0 -3.751,-1.006 -3.751,-3.294 0,-2.286 1.464,-3.293 3.751,-3.293 l 6.267,0 -9.148,-12.578 c -1.052,-1.464 -1.098,-2.105 -1.098,-2.653 0,-0.458 0.137,-1.419 1.051,-2.013 0.641,-0.366 1.053,-0.503 2.38,-0.503 l 14.454,0 c 2.287,0 3.75,1.007 3.75,3.294 C 3.75,-1.006 2.287,0 0,0"
             id="path7107"
             style="fill:#2056ae;fill-opacity:1;fill-rule:nonzero;stroke:none" />
        </g>
        <g
           transform="translate(1181.5422,53.211594)"
           id="g7109">
          <path
             d="m 0,0 c -1.646,0 -3.796,-2.241 -7.319,-2.241 -4.573,0 -5.717,2.471 -5.717,3.98 l 12.9,0 c 2.287,0 3.476,0.594 3.476,3.11 0,6.221 -4.529,12.121 -11.573,12.121 -7.319,0 -12.487,-6.037 -12.487,-12.899 0,-7.181 4.803,-12.898 12.487,-12.898 5.397,0 11.207,2.287 11.207,5.763 C 2.974,-1.235 1.601,0 0,0 m -8.416,10.933 c 2.79,0 4.62,-2.7 4.62,-4.301 l -9.24,0 c 0,1.601 1.83,4.301 4.62,4.301"
             id="path7111"
             style="fill:#2056ae;fill-opacity:1;fill-rule:nonzero;stroke:none" />
        </g>
      </g>
    </g>
  </g>
</svg>
