<?xml version="1.0" encoding="UTF-8" standalone="no"?>
<!-- Created with Inkscape (http://www.inkscape.org/) -->
<svg
   xmlns:svg="http://www.w3.org/2000/svg"
   xmlns="http://www.w3.org/2000/svg"
   version="1.0"
   width="956.69287"
   height="486.49606"
   id="svg2">
  <defs
     id="defs4" />
  <g
     transform="translate(174.907,474.61869)"
     id="layer1">
    <g
       transform="translate(35.433029,35.500193)"
       id="g6548">
      <path
         d="M -172.94276,-274.62481 L 262.06746,-472.65445 L 708.94837,-274.62481 L 262.06746,-61.087255 L -172.94276,-274.62481 z"
         id="path6147"
         style="fill:#ffffff;fill-opacity:1;fill-rule:nonzero;stroke:#005aaa;stroke-width:3.92848277;stroke-linecap:square;stroke-linejoin:miter;stroke-miterlimit:3.86400008;stroke-dasharray:none;stroke-opacity:1" />
      <path
         d="M 489.64244,-353.70588 L 489.67086,-391.36391 L 543.29855,-413.57084 C 543.45484,-412.56919 557.98241,-392.05299 557.98241,-392.05299 L 557.98241,-324.08242 L 678.80635,-274.62474 L 555.93648,-214.78108 L 555.87965,-201.16282 L 597.60113,-185.40626 L 597.60113,-134.52069 L 581.94403,-122.63578 L 489.67086,-169.69943 L 489.64244,-185.88223 L 262.06749,-78.165072 L 12.86101,-198.73327 L 12.86101,-158.76646 L -38.990702,-129.83208 L -56.189358,-138.42786 L -56.111215,-231.63165 L -140.15091,-274.62474 L -56.111215,-312.12648 L -56.189358,-413.89052 L -38.990702,-421.21469 L 11.838042,-396.83394 L 28.233952,-349.86975 L 262.06749,-455.91748 L 489.64244,-353.70588"
         id="path6151"
         style="fill:#005aaa;fill-opacity:1;fill-rule:nonzero;stroke:none" />
      <path
         d="M 38.563118,-296.6116 L 80.796085,-358.96295 L 115.7404,-352.07212 L 115.7404,-192.92949 L 74.45226,-184.05666 C 74.45226,-184.05666 74.935329,-263.18753 74.558819,-262.66894 L 42.143507,-185.79002 L 6.8866165,-270.3412 L 6.8866165,-163.55467 L -38.884117,-138.61981 L -38.884117,-413.57099 L 6.8866165,-391.71214 L 38.563118,-296.6116"
         id="path6155"
         style="fill:#ffffff;fill-opacity:1;fill-rule:nonzero;stroke:none" />
      <path
         d="M 540.90454,-196.6803 L 580.52325,-180.62538 L 580.52325,-131.78574 L 497.18685,-173.45039 L 497.18685,-386.92401 L 540.90454,-404.85437 L 540.90454,-196.6803"
         id="path6159"
         style="fill:#ffffff;fill-opacity:1;fill-rule:nonzero;stroke:none" />
      <path
         d="M 473.65154,-179.97182 L 427.81687,-188.88727 L 425.73541,-207.2865 C 418.56753,-208.94882 409.14059,-209.37506 401.84484,-211.41389 L 398.5344,-194.00922 C 381.05869,-196.33931 374.31704,-197.19179 356.48614,-199.06723 L 391.08946,-351.01356 C 413.30351,-355.23331 439.76571,-361.59134 439.76571,-361.59134 L 473.65154,-179.97182"
         id="path6163"
         style="fill:#ffffff;fill-opacity:1;fill-rule:nonzero;stroke:none" />
      <path
         d="M 224.42369,-342.25431 L 259.06254,-205.70934 C 245.77816,-205.90114 225.32589,-205.80879 216.04814,-204.62243 L 210.09503,-232.87483 L 180.58523,-230.36003 L 173.90752,-201.39014 C 163.23739,-199.93383 148.32621,-198.88955 129.13134,-195.28074 L 171.09436,-345.70683 C 192.24991,-342.89367 198.25985,-343.24176 224.42369,-342.25431"
         id="path6167"
         style="fill:#ffffff;fill-opacity:1;fill-rule:nonzero;stroke:none" />
      <path
         d="M 365.51525,-293.7983 C 364.74802,-275.9745 362.33268,-233.92623 305.76395,-233.92623 L 305.65739,-203.40057 L 269.02944,-206.13559 L 268.93709,-343.19915 L 303.65408,-344.30737 C 344.21051,-345.00355 366.77265,-323.14471 365.51525,-293.7983"
         id="path6171"
         style="fill:#ffffff;fill-opacity:1;fill-rule:nonzero;stroke:none" />
      <path
         d="M 423.06424,-249.53374 L 405.56011,-251.09661 L 413.77228,-308.61017 L 423.06424,-249.53374"
         id="path6175"
         style="fill:#005aaa;fill-opacity:1;fill-rule:nonzero;stroke:none" />
      <path
         d="M 206.30863,-262.058 L 183.3984,-260.76508 L 195.48932,-312.6239 L 206.30863,-262.058"
         id="path6179"
         style="fill:#005aaa;fill-opacity:1;fill-rule:nonzero;stroke:none" />
      <path
         d="M 333.02878,-291.8874 C 331.63641,-260.24642 303.62554,-264.69349 303.62554,-264.69349 L 303.32718,-313.90253 C 317.74109,-313.54023 332.23314,-311.18883 333.02878,-291.8874 z"
         id="path6183"
         style="fill:#005aaa;fill-opacity:1;fill-rule:nonzero;stroke:#ffffff;stroke-width:2.58583689;stroke-linecap:butt;stroke-linejoin:miter;stroke-miterlimit:3.86400008;stroke-dasharray:none;stroke-opacity:1" />
      <path
         d="M 23.793948,-363.01923 L 262.06745,-472.65445 L 491.21238,-368.48217"
         id="path6187"
         style="fill:none;stroke:#005aaa;stroke-width:3.92848277;stroke-linecap:square;stroke-linejoin:miter;stroke-miterlimit:3.86400008;stroke-dasharray:none;stroke-opacity:1" />
      <path
         d="M 495.04854,-172.0225 L 262.07459,-61.087257 L 10.13309,-182.67842"
         id="path6191"
         style="fill:none;stroke:#005aaa;stroke-width:3.92848277;stroke-linecap:square;stroke-linejoin:miter;stroke-miterlimit:3.86400008;stroke-dasharray:none;stroke-opacity:1" />
      <path
         d="M 548.18614,-344.54186 L 708.95557,-274.62481 L 549.9195,-198.09398"
         id="path6195"
         style="fill:none;stroke:#005aaa;stroke-width:3.92848277;stroke-linecap:square;stroke-linejoin:miter;stroke-miterlimit:3.86400008;stroke-dasharray:none;stroke-opacity:1" />
    </g>
  </g>
</svg>
