<?xml version="1.0" encoding="UTF-8" standalone="no"?>
<svg
   xmlns:svg="http://www.w3.org/2000/svg"
   xmlns="http://www.w3.org/2000/svg"
   version="1.1"
   width="519.76819"
   height="126.23654"
   id="svg9372">
  <defs
     id="defs9374" />
  <g
     transform="translate(-90.11591,-469.24391)"
     id="layer1"
     style="fill:#009ee0;fill-opacity:1">
    <path
       d="m 281.84751,496.89645 c -16.20705,0 -39.3138,6.12064 -39.3138,6.12064 l 0,22.71307 c 4.64953,-0.9614 22.60119,-4.71583 31.53557,-5.57778 22.14536,-2.14657 19.33575,9.88751 19.43106,11.2633 l 0,5.85128 -6.39828,0 c -20.47119,0 -50.39477,0.71691 -50.39477,33.04398 l 0,18.93378 26.09455,0 0,-14.57847 c 0,-17.5124 17.40466,-16.56343 27.89718,-16.56343 l 2.80132,0 -0.004,31.1419 26.93992,0 0,-62.1139 c 0,-24.29607 -16.84522,-30.23437 -38.5886,-30.23437 m 172.8945,46.38009 c 0,-34.14628 11.49536,-47.15004 43.38317,-47.15004 31.90439,0 43.39561,13.20267 43.39561,47.15004 0,34.05096 -11.49122,47.20391 -43.39561,47.20391 -31.88781,0 -43.38317,-12.94575 -43.38317,-47.20391 m 59.14682,0 c 0,-20.06094 -3.02096,-25.6843 -15.76365,-25.6843 -12.72612,0 -15.70148,5.25455 -15.70148,25.6843 0,20.52506 2.91735,25.70087 15.70148,25.70087 12.78828,0 15.76365,-5.53219 15.76365,-25.70087 m -90.07622,-69.03263 0,22.01275 18.61469,0 0,25.05441 -18.61469,0 0,39.3511 c 0,6.29468 2.80132,9.54769 9.93723,9.54769 2.85519,0 5.76425,-0.10774 8.83908,-0.36467 l 2.16315,18.77631 c -5.77669,1.03184 -12.63081,1.85649 -18.5111,1.85649 -20.99747,0 -29.89871,-8.86808 -29.89871,-26.72028 l 0,-89.5138 27.47035,0 z m 130.46937,114.9996 0,-84.0852 c 10.8489,-6.34441 26.69543,-9.0297 40.13431,-9.0297 3.78758,0 7.1732,0.15747 10.46765,0.56772 l -2.29575,24.05158 -6.44801,0.008 c -5.0142,0 -11.10583,0.9241 -14.55775,2.57755 l 0.11603,65.90976 -27.41648,0 z m -219.42875,0 0,-84.0852 c 10.85719,-6.34441 26.69128,-9.0297 40.13845,-9.0297 3.77516,0 7.16906,0.15747 10.46352,0.56772 l -2.29991,24.05158 -6.44386,0.008 c -5.02249,0 -11.10583,0.9241 -14.54946,2.57755 l 0.10359,65.90976 -27.41233,0 z m -212.26712,0 -27.47035,0 0,-84.0852 c 11.28402,-6.19523 27.41233,-9.0297 42.26016,-9.0297 10.03668,0 17.32178,1.7529 22.5556,4.74484 8.3128,-2.83862 18.13814,-4.74484 27.58224,-4.74484 31.51485,0 36.15195,16.09102 36.15195,35.07452 l 0,58.04038 -27.51593,0 0,-56.02227 c 0,-10.00767 -2.43251,-15.68905 -13.75796,-15.68905 -2.92564,0 -6.05019,0.6216 -9.28663,2.01811 l 0,69.69321 -27.4662,0 0,-56.02227 c 0,-9.59327 -2.32477,-15.68905 -12.80071,-15.68905 -3.34004,0 -7.87354,0.72934 -10.25217,1.75704 l 0,69.95428 z"
       id="path5914"
       style="fill:#009ee0;fill-opacity:1;fill-rule:nonzero;stroke:none" />
  </g>
</svg>
