<?xml version="1.0" encoding="UTF-8" standalone="no"?>
<!-- Created with Inkscape (http://www.inkscape.org/) -->
<svg
   xmlns:svg="http://www.w3.org/2000/svg"
   xmlns="http://www.w3.org/2000/svg"
   version="1.0"
   width="1001.8954"
   height="551.48157"
   id="Logo_Melitta_(Unternehmen)"
   xml:space="preserve"><defs
     id="defs5" /><path
     d="M 919.69759,195.28044 C 923.94648,195.28044 928.29241,195.28044 932.24108,194.68911 C 935.70001,193.50189 938.07104,192.22105 940.44321,190.93679 C 942.71263,189.35687 945.18184,188.2701 946.96153,186.29748 C 949.32913,184.02806 951.10883,181.7552 952.78807,179.08851 C 958.12258,170.70145 959.70369,159.74131 957.4297,150.06885 C 955.25613,141.87243 951.60427,136.04931 947.84967,132.3986 C 946.2686,131.01274 943.30511,128.44765 941.42838,127.06636 C 932.54131,121.43845 919.20786,120.25465 907.74657,125.38826 C 901.62551,128.44765 896.28984,132.98993 892.53524,138.61441 C 886.80688,147.4033 884.93015,159.5461 888.38795,169.80989 C 892.34118,181.0657 901.3287,190.5441 913.67356,194.09664 C 915.74892,194.68911 917.82086,194.78614 919.69759,195.28044 z M 921.38025,188.96303 C 932.04701,189.35687 941.82564,184.61939 947.45697,176.03027 C 952.49126,168.13294 952.9867,157.27325 950.5175,148.19326 C 949.03347,144.44094 946.96153,141.87243 945.18184,138.91007 C 939.85074,132.19997 930.17028,127.65769 920.48869,128.74331 C 915.74892,129.14058 910.9087,131.01274 907.74657,132.89289 C 907.4509,132.98993 907.1541,133.28559 906.96003,133.77989 C 905.37897,134.07555 904.68604,135.35639 902.80817,136.54361 C 895.79555,143.05965 892.14255,153.02664 893.52498,162.79955 C 894.90741,170.89666 898.26817,176.42639 903.50224,181.55657 C 908.14383,185.60455 914.6633,188.17307 921.38025,188.96303 z M 934.21941,178.40015 L 941.03454,178.40015 L 930.96025,161.1226 C 936.48998,159.74131 938.56534,158.06321 939.94891,154.40907 C 941.42838,150.75835 941.03454,147.69896 939.05621,143.65098 C 934.61325,136.73768 922.76268,138.31874 909.32763,138.22171 L 909.32763,178.40015 L 916.14276,178.40015 L 916.14276,161.41826 L 923.94648,161.41826 L 933.82214,178.40015 C 933.82214,178.40015 933.82214,178.40015 934.21941,178.40015 z M 916.54003,155.00382 L 929.08352,155.39766 C 936.29591,154.6077 935.70001,144.83364 929.08352,143.94665 L 916.14276,143.94665 L 916.14276,155.00382 L 916.54003,155.00382 M 45.330154,425.64095 C 54.314252,418.5861 59.31658,409.86684 65.734446,400.11789 C 70.482208,392.42262 74.459412,386.39403 79.465165,379.33917 C 101.02586,347.53181 124.12538,315.97559 147.22605,285.44792 C 155.94987,273.39301 165.70452,261.9751 173.78793,249.9202 C 185.4684,235.17121 196.63288,220.8035 208.31335,205.92437 C 239.88213,166.42288 276.07309,124.22158 313.29032,87.665319 C 313.67503,87.665319 314.31544,87.924454 314.70129,87.924454 C 314.95586,88.30916 314.95586,88.690442 315.34171,88.949577 C 312.00492,99.08323 305.97176,106.7785 301.22514,116.52745 C 294.16686,128.83692 287.49328,140.00026 280.82085,151.66932 C 277.73977,155.64424 276.07309,160.39314 273.37786,164.11349 L 231.79873,234.7865 C 225.12514,246.20099 221.01438,253.89512 216.39676,261.33469 C 209.33848,273.77886 206.00284,279.03804 201.2505,288.142 C 196.24818,297.25167 191.24128,305.20152 186.87937,313.92534 C 177.76971,330.08416 166.72964,344.06716 159.28665,362.53537 C 158.39053,366.64043 157.62111,370.23406 159.03094,373.56971 C 160.31634,375.36425 162.75358,376.64394 165.31981,376.64394 C 173.14751,372.67016 185.4684,357.53532 198.94455,339.70754 C 203.30646,333.03738 208.69806,326.75308 213.31569,320.33864 C 231.15375,297.50624 249.8925,275.70354 271.0662,253.89512 C 277.09936,248.89508 281.46127,243.89161 285.43847,239.14727 C 295.19198,230.80816 302.89068,218.36855 313.29032,214.39363 C 310.33481,227.73279 299.55846,238.50686 293.91115,251.97045 L 284.15764,266.3393 L 277.73977,277.75264 C 276.45894,278.39762 276.71351,280.06316 275.42811,281.47299 C 260.92684,309.95042 227.43225,349.45191 232.82384,368.5651 C 234.10583,371.64504 235.13552,374.97954 238.85701,375.61996 C 245.52944,375.61996 248.86623,371.64504 253.99869,367.92468 C 272.7363,347.78637 293.1406,328.67433 312.26063,307.89561 C 327.40574,291.86236 343.83397,273.39301 362.31245,260.69427 C 362.31245,260.69427 362.95287,260.94998 362.95287,261.33469 L 350.24727,281.73213 L 341.1376,296.22655 L 320.72874,332.00884 C 320.08833,335.72805 317.39652,338.03857 315.98212,342.14249 C 306.99803,360.61526 298.91462,384.72849 308.28342,404.09282 C 311.62021,411.79037 318.29265,415.89543 325.73564,418.84523 C 336.51541,421.28019 346.52578,414.87031 354.2279,410.50612 C 371.03627,399.73205 386.05239,388.4477 403.25003,378.31405 C 411.97499,386.39403 425.0653,389.34383 437.13047,386.6486 C 454.58382,382.28897 466.64444,373.56971 479.99501,364.59018 C 487.82271,359.20086 494.75199,354.45653 502.19498,349.19735 C 503.48038,348.42679 503.48038,348.17222 504.50551,347.78637 C 505.14592,347.78637 505.91648,347.78637 506.17219,348.17222 L 503.48038,356.89148 C 499.88332,365.6153 495.77712,373.56971 493.46659,385.3689 C 493.46659,390.11324 494.75199,394.732 497.18809,398.06765 C 501.80913,404.09282 511.94849,403.4524 519.64719,400.5026 C 547.10977,390.11324 566.87365,373.94985 590.10331,357.15061 C 590.10331,357.15061 590.74486,357.15061 590.74486,357.92117 C 590.10331,366.64043 580.7345,373.56971 584.327,383.05838 C 585.9971,386.6486 589.7186,387.0333 593.05539,387.67829 C 597.16159,387.0333 600.11367,386.39403 603.19018,384.34378 C 613.58982,378.31405 617.56588,368.30939 622.95406,359.20086 C 627.70524,346.76125 637.71561,334.70292 634.63453,320.33864 C 633.99297,318.92881 632.96328,318.02926 632.32286,317.00414 C 627.32053,314.56462 620.90267,315.33517 615.51107,317.64455 C 600.75409,325.72453 588.4332,334.70292 574.31663,343.81145 C 569.31431,347.53181 565.97409,349.45191 560.84163,352.53185 C 548.52531,359.84584 538.38595,367.28084 534.01947,368.5651 C 532.73864,368.5651 531.71237,367.53998 531.06853,366.25572 C 532.09822,360.86983 533.76376,355.86636 534.66445,352.14714 C 540.05149,337.13788 547.49562,324.69941 554.5539,312.90022 C 583.68658,273.00831 632.96328,242.48178 668.25926,206.69493 C 669.28438,205.92437 669.54009,205.6698 669.9248,205.6698 C 691.9992,184.25066 709.45255,163.0838 727.29061,141.27996 C 733.70848,132.94198 738.07039,126.53096 743.07728,119.09254 C 748.07961,112.16326 752.82737,107.03307 754.49748,97.414265 C 754.11277,92.668788 753.72692,87.280612 750.13556,84.330814 C 744.1024,79.585338 736.40371,82.280567 729.98698,83.560259 C 709.83726,90.999824 695.46156,101.38919 679.93402,112.16326 C 670.56522,119.86195 660.81513,127.55609 652.85729,135.25136 L 626.93469,159.36802 C 622.31364,164.36806 618.2063,169.11354 613.84439,174.50171 C 602.16506,186.81575 592.41497,200.28048 582.66032,213.36394 C 581.37492,216.44387 579.70938,218.36855 578.03927,221.06263 C 575.98788,222.72817 575.98788,224.39714 574.31663,226.06268 C 573.29151,229.39718 571.23556,231.452 569.57002,234.52737 C 564.30741,243.25119 559.17495,251.59031 554.16805,260.30956 C 551.47282,262.61894 550.44656,266.97971 547.75475,269.6738 C 546.46935,274.03343 543.77298,276.08824 542.10744,279.80745 C 540.05149,283.14196 538.77065,286.47646 537.10055,289.4274 C 536.07542,291.86236 534.66445,294.17174 534.01947,296.86583 C 526.96119,305.58622 518.62207,310.58969 510.27839,317.64455 L 487.82271,333.03738 C 483.45623,335.08763 481.02014,337.39815 476.65366,339.44726 C 471.26548,343.81145 465.61817,346.11741 460.23114,350.22247 C 451.88745,353.81611 444.18875,360.61526 434.04939,359.58557 C 433.79368,359.20086 433.40898,358.81615 432.76856,358.17574 C 432.38271,357.92117 432.38271,357.15061 432.38271,357.15061 C 438.1556,350.4816 444.82917,345.8617 450.86119,339.70754 C 462.53709,329.31475 474.73241,318.66968 485.38205,307.89561 C 492.82618,300.58618 498.85819,294.17174 503.22011,286.47646 C 504.50551,284.16708 505.14592,281.08829 506.55689,278.78233 C 507.84229,273.77886 505.91648,268.38954 503.48038,265.31417 C 492.18462,258.25932 476.01324,260.94998 462.92294,265.05504 C 454.58382,269.03339 447.52554,273.00831 440.08141,278.13849 C 436.74577,279.03804 426.99111,289.81211 422.6292,293.53132 C 419.67712,297.50624 417.3666,300.84075 413.90081,305.20152 C 411.58915,308.28031 400.93951,325.33868 396.83216,337.13788 C 394.77735,344.45187 393.49652,350.22247 391.44513,357.15061 C 384.12771,363.56506 377.70985,368.30939 370.39585,373.56971 C 369.37073,373.94985 368.72917,374.59369 367.69948,374.97954 C 363.97799,379.72388 358.59095,380.36429 354.61375,384.0835 C 346.13993,390.11324 340.10791,395.11785 330.74253,393.06304 C 330.09869,393.06304 329.71741,392.67833 329.71741,392.67833 C 325.35093,375.36425 336.51541,356.50677 342.80428,340.73266 C 344.8591,338.80798 345.2438,336.11275 346.52578,334.44721 C 353.58406,319.95393 360.64234,307.25519 368.72917,294.55645 C 378.73954,279.42275 382.46103,273.77886 390.41544,261.33469 L 430.71261,201.95059 C 434.4341,194.89573 442.1328,189.25071 441.10768,180.14218 C 440.46726,178.86248 439.43757,177.83622 438.79715,177.45151 C 434.4341,176.42639 429.68748,176.42639 425.0653,177.45151 C 410.56402,184.50637 398.50341,193.87061 386.05239,204.25883 L 376.04317,213.36394 C 353.19821,231.452 333.04963,256.33464 310.59395,275.05855 C 310.59395,275.05855 309.95353,275.05855 309.56768,274.67385 C 308.28342,273.77886 309.56768,271.08363 310.33481,269.6738 C 320.98902,248.89508 331.38295,227.73279 342.80428,208.6196 C 348.19588,198.99965 353.19821,190.92081 358.59095,182.19699 C 366.28965,168.47312 374.75777,156.41479 382.07632,142.95006 C 384.12771,137.30503 390.41544,130.25132 386.82294,124.47729 C 383.74186,122.55604 379.37995,121.52749 375.65846,123.19646 C 373.09223,124.862 370.01115,126.53096 367.31934,128.83692 C 361.9266,132.17599 357.56012,136.27991 353.58406,139.61556 C 351.27696,142.56535 348.19588,145.00031 346.13993,146.92498 C 341.52231,150.64419 337.1604,156.03009 332.40921,161.03356 C 332.1535,161.41826 331.7688,161.67397 331.12838,161.67397 L 315.34171,178.47664 C 311.3645,184.50637 305.33134,187.84088 300.19888,194.64002 C 290.18509,205.02939 276.45894,217.33886 264.64833,227.73279 C 264.39376,227.73279 264.00791,227.47708 264.00791,227.0878 C 271.45204,210.28514 281.46127,196.30556 290.18509,181.17187 C 292.50018,177.19694 293.91115,175.78255 295.57783,173.09188 C 304.94664,154.74925 315.34171,137.94545 324.71051,119.09254 C 331.38295,108.06276 337.1604,97.029558 342.54857,85.615072 C 347.5509,76.250833 352.94364,67.912859 357.56012,58.167337 C 361.67203,50.468638 365.64924,43.029074 367.31934,34.054107 C 367.31934,32.000436 366.93349,29.945623 366.67436,28.280083 C 365.64924,25.585995 362.95287,24.301737 360.25649,23.920455 C 350.24727,25.330285 343.83397,33.025559 336.77569,38.284739 C 334.07932,41.74824 330.74253,43.41378 328.68772,46.10901 C 322.01414,52.778019 314.31544,60.862567 307.25716,67.912859 C 307.64301,67.52701 300.96943,75.610416 296.86323,79.585338 L 289.54467,87.280612 L 259.00102,120.50237 C 253.61398,126.14626 244.49975,135.25136 243.21891,136.92033 C 237.1869,144.35989 187.13851,205.6698 177.51056,218.10941 C 172.37695,224.78185 168.40089,230.80816 164.03784,235.81163 C 160.05721,240.81624 156.72042,245.17586 154.02519,249.27978 C 146.96691,259.02987 138.49765,271.34277 130.54325,282.11684 L 115.78284,303.28027 L 94.992702,334.44721 L 54.954669,399.09277 C 51.617881,404.86223 48.281093,409.48099 45.585864,416.15114 C 44.30503,418.5861 42.633782,422.30987 43.919182,424.61583 C 44.30503,425.25511 44.30503,425.64095 44.945447,425.64095 L 45.330154,425.64095 z M 430.07219,331.36842 C 437.77089,325.9791 445.85544,320.33864 452.52787,312.90022 C 455.86808,310.97554 457.91947,307.64104 460.87155,304.5611 C 466.64444,298.53137 474.98812,292.89091 474.73241,284.16708 C 474.34656,283.39767 473.70614,282.75725 472.67645,282.37255 C 461.89668,283.39767 456.50964,291.47765 448.16596,298.14666 C 443.16249,302.89556 440.85197,308.28031 436.74577,312.90022 C 434.4341,319.31352 428.66122,324.05899 429.42721,331.75313 L 430.07219,331.36842 z M 590.35902,242.48178 L 610.24846,227.0878 C 615.89577,222.72817 625.26458,213.36394 625.01001,213.74864 C 632.32286,207.33534 641.4371,199.64007 648.49538,192.58635 C 671.5949,170.13866 699.44333,147.95011 709.19684,119.09254 C 708.553,116.78202 708.81213,117.42244 707.78244,116.52745 C 697.39194,116.52745 691.09965,124.47729 683.01624,129.60748 C 672.87688,137.94545 662.2261,147.30969 652.85729,157.69905 C 646.82528,163.72765 641.69281,168.72769 638.10031,174.11701 C 629.63106,183.48125 620.90267,194.25532 612.94484,205.6698 C 605.50185,215.41875 594.46636,228.11749 589.7186,242.48178 C 590.10331,242.48178 590.10331,242.48178 590.35902,242.48178 M 866.14802,411.14653 C 881.93013,411.14653 895.66084,403.19669 907.47145,396.14297 C 918.89164,387.67829 931.21139,378.69875 940.32106,367.28084 L 942.25144,363.18035 C 942.25144,362.92121 941.99117,362.53537 941.60646,362.53537 C 931.85181,364.20547 926.59377,372.67016 916.45441,376.00466 C 902.33784,383.05838 882.57511,395.75827 865.50304,388.4477 C 859.47444,383.6988 857.41963,377.28892 858.44476,369.97493 C 864.47677,339.44726 888.34799,324.95398 895.66084,298.14666 C 895.02043,297.25167 893.9953,296.22655 893.60945,295.19686 C 890.65851,292.5062 885.27034,294.55645 881.93013,296.48112 C 878.20863,298.91607 875.26112,301.48116 871.9209,303.92068 C 857.16392,299.55649 839.71057,292.89091 824.95359,302.25172 C 812.5037,311.23011 794.02523,315.58974 777.59814,316.23472 C 776.56845,315.58974 776.31274,315.58974 775.92803,315.33517 C 775.92803,314.95046 775.54218,314.56462 775.28647,314.31005 C 775.28647,312.90022 776.56845,311.61482 776.95316,309.95042 C 787.35165,290.45253 799.02756,274.03343 809.80733,256.33464 C 812.75941,252.87 816.2252,247.86653 818.53572,243.89161 C 834.31897,220.8035 845.9983,209.64472 853.44243,187.58517 C 852.03146,184.50637 853.44243,181.81228 845.74373,185.14679 C 838.94001,187.84088 833.2927,192.97106 827.90453,197.97453 C 822.51293,202.58987 817.8953,208.6196 813.14412,213.36394 C 808.5265,219.39367 805.83013,222.72817 800.05382,229.39718 C 794.66564,235.55592 791.7147,241.84136 786.32653,247.86653 C 767.20307,262.61894 747.6949,273.00831 728.57601,288.142 C 723.31341,291.47765 719.2072,295.19686 713.55875,297.89095 C 712.91834,297.89095 712.53363,297.50624 712.53363,296.86583 C 719.59191,282.11684 727.93103,268.38954 736.019,254.28097 C 739.9962,248.51037 742.04759,244.92015 744.99853,239.91669 C 750.77598,230.80816 756.808,223.11288 762.45188,214.39363 C 773.62093,198.23024 785.29684,181.81228 796.07662,166.42288 C 797.36202,163.46851 799.79811,161.41826 799.79811,158.08376 C 799.79811,157.05864 799.02756,156.41479 798.00243,156.03009 C 785.29684,153.72413 773.62093,159.36802 765.91767,169.49825 C 761.81147,175.14213 757.19385,180.14218 753.47235,185.14679 C 745.38438,195.28044 739.35579,205.2851 732.2975,215.41875 C 724.98009,227.47708 717.9218,239.14727 710.86352,250.94532 C 706.11576,258.00018 703.16482,264.66919 699.05748,270.69893 L 683.01624,298.14666 C 681.98998,302.25172 679.2936,304.94581 677.23879,308.53945 C 672.23532,316.61943 659.14502,313.28492 653.49771,320.97906 C 652.08674,324.95398 653.75685,329.05904 655.16782,332.77825 C 662.86652,348.8115 644.38804,362.2808 648.75109,378.31405 C 650.16092,380.62343 652.85729,382.03326 655.55366,382.67367 C 660.17129,383.6988 665.17818,382.67367 668.25926,380.36429 C 668.51383,378.95446 669.9248,378.95446 670.56522,378.31405 C 684.68635,330.3433 722.54285,299.55649 763.48157,276.34281 C 764.12199,276.34281 764.5067,276.34281 764.89255,276.34281 C 766.55809,276.72866 765.91767,278.78233 765.53296,279.80745 C 752.82737,293.14662 750.77598,317.64455 729.98698,322.38889 C 725.87964,322.6446 723.56912,324.31356 722.54285,327.3935 C 719.59191,335.08763 729.342,339.70754 726.26435,347.1471 C 721.89901,359.58557 712.91834,371.00005 713.55875,384.34378 C 715.48457,388.4477 720.23233,387.67829 723.95382,387.67829 C 746.4095,379.33917 746.79535,349.83776 761.17105,335.34334 C 768.4839,332.00884 779.64953,328.41862 787.99207,330.3433 C 784.01486,340.73266 773.23509,351.89143 776.31274,366.25572 C 777.59814,372.67016 781.96005,376.64394 786.96694,379.33917 C 798.77299,383.6988 811.47744,381.00813 822.25836,376.64394 C 826.87484,374.97954 830.98218,372.92473 834.96395,371.25919 C 835.34866,371.25919 835.60437,371.25919 835.98907,371.64504 C 836.24478,372.28431 836.24478,373.30944 836.24478,374.33456 C 836.62949,380.62343 837.0142,386.39403 838.94001,392.42262 C 842.66265,401.78686 851.00177,408.2013 861.52583,410.50612 C 863.19594,410.50612 864.86262,410.50612 866.14802,411.14653 z M 817.8953,358.81615 C 822.89877,359.20086 828.54609,357.15061 832.908,354.84123 C 838.2996,350.4816 844.71404,344.83658 847.6684,338.03857 C 850.10564,334.44721 852.80087,328.41862 851.38647,323.67314 C 850.74606,322.6446 850.74606,322.00418 850.36021,321.61947 C 845.9983,318.02926 838.94001,318.28497 832.908,320.97906 C 823.28348,324.95398 815.45464,332.39354 810.45232,342.14249 C 809.80733,346.76125 809.16692,351.89143 811.47744,354.84123 C 812.5037,355.48165 812.75941,356.25106 813.52883,356.89148 L 817.8953,358.81615 z M 641.69281,294.17174 C 650.16092,294.55645 656.19408,290.19682 660.81513,284.16708 C 663.89278,279.42275 666.2033,273.00831 663.89278,267.36442 C 661.58568,263.64407 658.5046,260.30956 654.5274,259.66915 C 646.82528,257.23419 639.76699,261.9751 635.40394,266.724 C 631.68245,272.36789 627.70524,281.08829 631.68245,287.50273 C 633.73383,291.0918 637.71561,293.53132 641.69281,294.17174"
     id="Schriftzug"
     style="fill:#e2001a;fill-opacity:1;fill-rule:evenodd;stroke:none" /><path
     d="M 325.96831,515.74418 C 444.60815,457.44395 564.13714,457.44395 682.78122,515.74418"
     id="Bogen"
     style="fill:none;stroke:#c5c6c8;stroke-width:23.63377762;stroke-linecap:round;stroke-linejoin:round;stroke-miterlimit:2.61299992;stroke-dasharray:none;stroke-opacity:1" /></svg>