<?xml version="1.0" encoding="UTF-8" standalone="no"?>
<svg
   xmlns:dc="http://purl.org/dc/elements/1.1/"
   xmlns:cc="http://creativecommons.org/ns#"
   xmlns:rdf="http://www.w3.org/1999/02/22-rdf-syntax-ns#"
   xmlns:svg="http://www.w3.org/2000/svg"
   xmlns="http://www.w3.org/2000/svg"
   version="1.1"
   id="svg6228"
   viewBox="0 0 533.49604 85.558008"
   height="85.558006"
   width="533.49603">
  <defs
     id="defs6230" />
  <metadata
     id="metadata6233">
    <rdf:RDF>
      <cc:Work
         rdf:about="">
        <dc:format>image/svg+xml</dc:format>
        <dc:type
           rdf:resource="http://purl.org/dc/dcmitype/StillImage" />
        <dc:title></dc:title>
      </cc:Work>
    </rdf:RDF>
  </metadata>
  <g
     transform="translate(-72.664861,-423.74813)"
     id="layer1">
    <path
       id="path4244"
       style="fill:#007bbc;fill-opacity:1;fill-rule:nonzero;stroke:none"
       d="m 528.86962,507.01796 0,0 c 5.46928,0 9.92833,-2.36747 13.30744,-5.74462 0.27868,-0.27853 2.61271,-2.36747 5.50411,-5.50091 1.81148,-1.5667 3.90166,-2.85488 6.51437,-3.13341 0.52255,0 1.56764,0 1.84632,0 0.7664,0 1.81148,0 2.61271,0 2.85658,0.52224 5.4693,1.323 7.83816,2.36748 l 22.99189,9.40027 c 0,0 5.74798,2.61119 10.45086,2.61119 l 3.41395,0 c 1.0451,0 1.81149,-0.80077 1.81149,-1.84525 l 0,-8.5995 c 0,-5.74463 -3.37911,-11.24552 -9.12708,-13.8567 l -5.22543,-2.08895 c -4.18035,-1.56673 -8.6394,-4.42161 -10.97342,-6.78909 0,0 -4.70288,-5.46609 0.76639,-10.68847 l 20.3792,-20.64578 c 2.61271,-2.88972 4.18034,-6.54538 4.18034,-10.20105 0,0 0,-1.56671 -0.52255,-2.8549 -0.24384,-1.04447 -1.04508,-2.08895 -1.56763,-2.61119 -1.28893,-1.323 -3.13526,-2.08895 -5.22543,-2.08895 l -3.37911,0 c -5.22542,0 -9.92832,2.33266 -13.34227,5.74462 -0.24384,0.24371 -13.58612,13.57817 -17.24393,17.23385 l -18.5677,18.80054 0,-29.76754 c 0,-6.54538 -5.46927,-12.01147 -12.26233,-12.01147 l -5.22545,0 c -1.32376,0 -3.41395,0 -4.18034,0.52224 -0.80122,0.24371 -0.80122,1.2882 -0.80122,2.08895 l 0,77.81339 c 0,1.04448 0.80122,1.84525 1.84632,1.84525 l 4.18034,0 z" />
    <path
       id="path4254"
       style="fill:#007bbc;fill-opacity:1;fill-rule:nonzero;stroke:none"
       d="m 431.64176,497.09545 0,0 c -0.24385,0 -4.42419,-1.32302 -13.06359,-8.1121 -4.42419,-3.37713 -7.55946,-5.98831 -9.12709,-7.0328 1.56763,-1.04446 6.79308,-3.13341 11.49596,-8.63432 2.85658,-3.37714 4.42419,-7.55504 4.42419,-12.77742 0,-4.97867 -1.28893,-9.6788 -4.18035,-13.8567 -2.85656,-4.45642 -6.51435,-8.35579 -10.9734,-11.48922 -4.70288,-3.13343 -9.64962,-5.74462 -15.3976,-7.58986 -5.50413,-2.08895 -10.9734,-2.8549 -16.47753,-2.8549 0,0 -33.44275,0 -33.44275,0 -1.0451,0 -1.84633,0.76595 -1.84633,1.81044 l 0,55.63569 0,12.53371 0,4.1779 0,5.5009 c 0,0.76594 0,1.56671 0.80123,2.08895 1.0451,0.52224 3.37911,0.52224 4.7029,0.52224 1.81148,0 3.90166,0 5.74798,-0.80077 2.85656,-0.76595 5.22542,-2.8549 7.0369,-5.22238 3.1701,-4.17789 3.9365,-8.87803 3.9365,-13.82188 l 0,-33.70173 c 0,-0.52224 0,-1.56671 0.27869,-2.33266 0.24384,-0.80076 0.76639,-1.56671 0.76639,-1.56671 2.36887,-4.45642 10.97341,-6.26686 20.37918,-3.93418 12.54104,3.13341 16.19885,11.76775 14.9099,15.4234 -1.56763,3.89937 -6.02666,6.26685 -11.49595,6.26685 -2.8914,0 -5.50411,-0.27851 -8.36069,-1.323 0,0 -1.84632,-0.52224 -3.13525,-1.04448 -0.80123,0 -2.09018,-0.76593 -2.89142,-0.76593 -1.04508,0 -1.56763,0.76593 -1.56763,2.33265 l 0,8.87804 c 0,2.88972 1.32379,5.74462 3.13527,7.31133 0,0 27.17225,21.41173 27.17225,21.41173 2.61272,1.84524 5.50411,2.88972 8.63938,2.88972 l 17.76646,0 c 1.28895,0 1.81148,-0.80077 1.81148,-2.36747 l 0,-5.46609 c 0,-1.04449 -0.52253,-1.84524 -1.04508,-2.08895 z" />
    <path
       id="path4264"
       style="fill:#007bbc;fill-opacity:1;fill-rule:nonzero;stroke:none"
       d="m 322.95278,485.60622 0,0 -23.79313,0 c -3.37911,0 -6.51437,-0.80077 -9.64964,-2.08894 -2.36885,-1.04449 -6.27051,-4.45645 -7.59429,-5.74462 -2.09017,-2.36748 -3.90164,-5.22238 -4.94673,-8.35581 -1.32378,-3.13342 -2.09018,-6.54538 -2.09018,-9.9225 0,-4.17792 1.28895,-7.58986 3.90166,-9.92252 0.27869,-0.27853 1.32377,-1.04448 2.36887,-1.84523 1.28893,-0.76596 2.61271,-1.04449 3.65779,-1.2882 1.28893,-0.27853 2.85656,-0.52224 4.4242,-0.52224 1.84631,0 3.41395,0.24371 4.70289,0.52224 2.61272,0.52224 5.50411,1.56671 8.11683,3.13343 3.65781,2.33266 7.55947,5.98831 10.17219,9.40028 l -24.80339,0 c -1.56763,0 -2.36887,0.76595 -2.36887,2.08894 0,2.61119 0.52255,4.1779 1.56763,6.26685 1.04508,2.08895 5.74798,9.40027 15.43244,9.40027 l 23.23575,0 c 3.9365,0 6.79306,-1.04446 8.3607,-3.13341 1.56763,-2.36748 2.09018,-4.17791 2.09018,-7.06762 0,-4.70013 -1.28895,-9.40027 -3.90166,-14.34412 -2.36887,-4.97867 -5.74798,-9.43509 -10.20701,-13.61299 -4.18035,-4.17791 -9.12709,-7.31132 -14.63122,-9.92251 -5.74796,-2.61119 -11.7398,-3.89939 -17.76646,-3.89939 l -34.244,0 c -0.7664,0 -1.56761,0.76595 -1.56761,1.81044 l 0,33.70171 c 0,6.5454 1.04508,12.53371 3.65779,18.03462 2.36887,5.7446 5.78282,10.68845 9.96316,14.86636 4.18035,4.1779 9.12709,7.58984 14.6312,10.20103 5.74798,2.33266 11.7398,3.65567 18.01033,3.65567 l 34.24398,0 c 1.0451,0 1.8115,-0.80077 1.8115,-1.56672 l 0,-7.06762 c 0,-3.89936 -1.28895,-7.03279 -3.37911,-9.40027 -2.36887,-2.08895 -5.50413,-3.37713 -9.40579,-3.37713 z" />
    <path
       id="path4274"
       style="fill:#007bbc;fill-opacity:1;fill-rule:nonzero;stroke:none"
       d="m 245.86026,436.7596 0,0 c 0,-6.54538 -5.50413,-12.01147 -12.29719,-12.01147 l -12.78488,0 c -0.52255,0 -1.0451,0.24371 -1.56764,0.52224 l -25.8833,24.30146 c -8.60454,8.35579 -20.62305,12.77742 -33.68661,12.77742 -13.62096,0 -25.88331,-4.94385 -34.76655,-13.8219 0,0 -18.81155,-17.79089 -19.09023,-18.0346 -3.65782,-3.41196 -8.604558,-5.74462 -14.352535,-5.74462 l -15.432435,0 c -1.288928,0 -2.334029,1.04448 -2.334029,2.33266 l 0,67.92571 c 0,6.78908 5.469293,12.01146 12.018505,12.01146 l 4.702877,0 3.37911,0 c 1.323786,0 2.368867,-1.04448 2.368867,-2.36747 l 0,-24.02293 c 0,-6.51058 5.22543,-11.73294 11.21727,-11.73294 11.77462,0 19.85663,9.92252 27.45092,16.7116 9.12709,8.07727 16.19883,15.91083 24.83823,15.91083 8.88322,0 15.92014,-7.83356 25.08207,-15.91083 7.55945,-6.78908 15.67628,-16.7116 27.17223,-16.7116 6.27051,0 11.49596,5.22236 11.49596,11.48923 l 0,14.62265 c 0,6.78908 5.46927,12.01146 12.01849,12.01146 l 5.22542,0 c 1.56763,0 2.85658,0 2.85658,0 l 0,0 c 1.32377,0 2.36887,-1.04448 2.36887,-2.36747 l 0,-67.89089 z" />
    <path
       id="path4284"
       style="fill:#007bbc;fill-opacity:1;fill-rule:nonzero;stroke:none"
       d="m 513.43717,472.55028 0,0 -12.26233,0 c -4.7029,0 -7.5943,2.08894 -9.16193,5.98833 -0.7664,2.61119 -2.09018,4.70014 -4.18034,6.26684 -1.81148,1.56671 -4.4242,2.36748 -7.55946,2.36748 -2.89142,0 -5.74798,-0.80077 -8.88324,-2.61119 -2.8914,-1.5667 -5.50411,-3.65565 -7.83814,-6.26684 -2.64755,-2.61119 -4.45903,-5.74462 -6.02666,-8.87805 -1.32379,-3.41195 -2.09019,-6.54538 -2.09019,-9.9225 0,-3.93421 1.04508,-7.31133 3.65782,-9.67881 2.33401,-2.61119 5.50411,-3.89938 9.1619,-3.89938 4.42422,0 8.60456,1.56672 12.78491,4.70014 1.56763,1.28819 3.41395,1.81043 5.22542,1.81043 2.09017,0 3.9365,-1.04448 6.27051,-3.13343 l 8.36069,-8.35579 c 0.52255,-0.52224 0.80124,-1.04448 0.52255,-1.56673 0,-0.27853 -0.52255,-0.80075 -1.04508,-1.32299 -4.42421,-4.1779 -9.40577,-7.55504 -14.87506,-9.92252 -5.50411,-2.33266 -11.25209,-3.37714 -17.24394,-3.37714 l -33.47758,0 c -1.0451,0 -1.8115,0.76595 -1.8115,2.08895 l 0,33.4232 c 0,6.5454 1.28895,12.53371 3.90166,18.27833 2.61272,5.7446 6.02667,10.96698 10.45088,15.42341 4.45903,4.17789 9.68446,7.83356 15.43243,10.44475 5.50411,2.61119 11.49596,3.89937 17.52262,3.89937 4.94674,0 9.40577,-0.76595 13.58612,-2.61119 4.18034,-1.56671 7.83814,-3.89937 10.9734,-6.78908 3.13527,-2.85491 5.4693,-6.51056 7.31561,-10.68846 1.81148,-3.9342 2.85656,-8.63434 3.13527,-13.33447 0.24384,-1.56671 -0.52255,-2.33266 -1.84634,-2.33266 z" />
  </g>
</svg>
