<?xml version="1.0" encoding="UTF-8" standalone="no"?>
<!DOCTYPE svg PUBLIC "-//W3C//DTD SVG 1.0//EN" "http://www.w3.org/TR/2001/REC-SVG-20010904/DTD/svg10.dtd">
<!-- Created with Inkscape (http://www.inkscape.org/) -->
<svg
   xmlns:svg="http://www.w3.org/2000/svg"
   xmlns="http://www.w3.org/2000/svg"
   version="1.0"
   width="800"
   height="250"
   id="svg2">
  <defs
     id="defs4" />
  <path
     d="M 526.47438,35.528833 L 526.47438,136.47025 C 526.47438,158.97524 545.09928,177.60008 567.60424,177.60011 L 583.42342,177.60011 L 583.42342,143.85253 L 567.60424,143.85253 C 563.21166,143.85253 560.22196,140.86281 560.22196,136.47025 L 560.22196,97.148297 L 583.42342,97.148297 L 583.42342,63.400718 L 560.22196,63.400718 L 560.22196,35.528833 L 526.47438,35.528833 z M 343.42388,60.839518 C 311.02004,60.839518 284.36557,87.493896 284.36562,119.89778 C 284.36562,152.30163 311.02004,178.95604 343.42388,178.95604 C 375.82773,178.95604 402.48219,152.30164 402.48215,119.89778 C 402.48215,87.49393 375.82773,60.839518 343.42388,60.839518 z M 653.93176,60.839518 C 621.52781,60.839518 594.87344,87.493896 594.87349,119.89778 C 594.87339,152.30163 621.52791,178.95604 653.93176,178.95604 C 659.52788,178.95604 664.92951,178.07082 670.05225,176.5455 L 670.05225,139.33277 C 665.68184,142.98082 660.16411,145.20846 653.93176,145.20846 C 639.78737,145.20846 628.62107,134.04207 628.62107,119.89778 C 628.62097,105.75352 639.78747,94.587097 653.93176,94.587097 C 667.86869,94.587097 678.92169,105.44588 679.24244,119.29514 L 679.24244,119.4458 L 679.24244,178.95604 L 712.99002,178.95604 L 712.99002,121.85634 L 712.99002,119.89778 C 712.99002,87.49393 686.3356,60.839518 653.93176,60.839518 z M 164.29053,61.140835 C 138.6711,61.140835 117.43563,82.225629 117.43563,107.84507 L 117.43563,178.80538 L 151.18321,178.80538 L 151.18321,107.84507 C 151.18321,100.33804 156.78352,94.888415 164.29053,94.888415 L 166.24909,94.888415 C 173.13244,94.888415 178.3759,99.488745 179.20575,106.03717 C 179.18256,106.63319 179.05509,107.24384 179.05509,107.84507 L 179.05509,178.80538 L 213.10399,178.80538 L 213.10399,107.84507 C 213.10399,107.24384 212.97652,106.63319 212.95333,106.03717 C 213.78318,99.488735 219.02664,94.888415 225.90999,94.888415 L 227.86855,94.888415 C 235.37556,94.888415 240.97587,100.33806 240.97587,107.84507 L 240.97587,178.80538 L 274.72345,178.80538 L 274.72345,107.84507 C 274.72345,82.225634 253.48798,61.140835 227.86855,61.140835 L 225.90999,61.140835 C 214.62543,61.140835 204.22293,65.221135 196.07954,71.988272 C 187.93615,65.221135 177.53365,61.140835 166.24909,61.140835 L 164.29053,61.140835 z M 462.44437,61.140835 C 436.82494,61.140835 415.74012,82.225629 415.74012,107.84507 L 415.74012,178.80538 L 449.4877,178.80538 L 449.4877,107.84507 C 449.4877,100.33804 454.93737,94.888415 462.44437,94.888415 L 464.5536,94.888415 C 472.06075,94.888415 477.51026,100.33806 477.51026,107.84507 L 477.51026,178.80538 L 511.25784,178.80538 L 511.25784,107.84507 C 511.25784,82.225634 490.17307,61.140835 464.5536,61.140835 L 462.44437,61.140835 z M 343.42388,94.587097 C 357.56817,94.587097 368.73457,105.75349 368.73457,119.89778 C 368.73457,134.04206 357.56817,145.20846 343.42388,145.20846 C 329.2796,145.20846 318.1132,134.04207 318.1132,119.89778 C 318.1132,105.75352 329.2796,94.587097 343.42388,94.587097 z"
     id="rect3214"
     style="opacity:1;fill:#e80004;fill-opacity:1;fill-rule:nonzero;stroke:none;stroke-width:7;stroke-linecap:butt;stroke-linejoin:miter;stroke-miterlimit:4;stroke-dasharray:none;stroke-dashoffset:0;stroke-opacity:1" />
  <path
     d="M 728.55276,85.924691 L 728.55276,70.636744 L 735.04961,70.636744 C 736.68338,70.636758 737.87047,70.774063 738.61089,71.048662 C 739.35127,71.32329 739.94397,71.81168 740.38891,72.513842 C 740.83385,73.216033 741.05629,74.019013 741.05634,74.922792 C 741.05629,76.069916 740.71915,77.017157 740.04478,77.764512 C 739.37041,78.511886 738.36232,78.982901 737.02056,79.177552 C 737.68794,79.566883 738.23895,79.994446 738.67347,80.46024 C 739.10795,80.926043 739.69366,81.75336 740.43061,82.942186 L 742.29728,85.924691 L 738.60569,85.924691 L 736.37401,82.598053 C 735.58142,81.409222 735.03914,80.660122 734.74718,80.350743 C 734.45517,80.041374 734.1458,79.829334 733.81907,79.714616 C 733.4923,79.599908 732.97437,79.542551 732.26524,79.542547 L 731.63951,79.542547 L 731.63951,85.924691 L 728.55276,85.924691 z M 731.63951,77.102312 L 733.92335,77.102312 C 735.40415,77.102322 736.32878,77.039754 736.69726,76.914603 C 737.06574,76.789472 737.35428,76.573955 737.56284,76.268048 C 737.7714,75.96216 737.87568,75.579785 737.87568,75.120929 C 737.87568,74.606476 737.73837,74.191082 737.46376,73.874742 C 737.18915,73.558426 736.80154,73.358553 736.30101,73.27511 C 736.0507,73.240365 735.29987,73.222985 734.04846,73.22297 L 731.63951,73.22297 L 731.63951,77.102312 z"
     id="text3299"
     style="font-size:4.42996883px;font-style:normal;font-variant:normal;font-weight:bold;font-stretch:normal;text-align:start;line-height:100%;writing-mode:lr-tb;text-anchor:start;fill:#e80004;fill-opacity:1;stroke:none;stroke-width:1px;stroke-linecap:butt;stroke-linejoin:miter;stroke-opacity:1;font-family:Arial;-inkscape-font-specification:Arial Bold" />
  <path
     d="M 345.10809,66.911507 A 3.1295097,3.1295097 0 1 1 338.84907,66.911507 A 3.1295097,3.1295097 0 1 1 345.10809,66.911507 z"
     transform="matrix(4.8210828,0,0,4.8210828,-913.28202,-244.30519)"
     id="path3303"
     style="opacity:1;fill:none;fill-opacity:1;fill-rule:nonzero;stroke:#e70004;stroke-width:0.80000001;stroke-linecap:butt;stroke-linejoin:miter;stroke-miterlimit:4;stroke-dasharray:none;stroke-dashoffset:0;stroke-opacity:1" />
  <path
     d="M 756.68108,148.07098 C 740.99882,148.07098 728.05595,161.01399 728.0559,176.69616 C 728.0559,184.39226 731.16314,191.44941 736.19148,196.58312 C 493.66228,186.54964 98.811107,181.10662 21.465946,225.66028 C 139.25136,201.04043 506.51351,195.58563 753.66791,205.02002 C 754.52876,205.10781 755.49934,205.16173 756.37976,205.17068 C 756.47729,205.17167 756.58331,205.17068 756.68108,205.17068 C 772.36324,205.17068 785.15555,192.37835 785.1556,176.69616 C 785.15555,161.01397 772.36329,148.07096 756.68108,148.07098 z M 756.68108,162.53423 C 764.53771,162.53423 770.69235,168.83949 770.69235,176.69616 C 770.69231,184.55284 764.53776,190.70743 756.68108,190.70743 C 748.82436,190.70744 742.51915,184.55283 742.51915,176.69616 C 742.5191,168.83948 748.8244,162.53423 756.68108,162.53423 z"
     id="path3305"
     style="opacity:1;fill:#0062b2;fill-opacity:1;fill-rule:nonzero;stroke:none;stroke-width:3;stroke-linecap:butt;stroke-linejoin:miter;stroke-miterlimit:4;stroke-dasharray:none;stroke-dashoffset:0;stroke-opacity:1" />
</svg>
