<?xml version="1.0" encoding="utf-8"?>
<!-- Generator: Adobe Illustrator 14.0.0, SVG Export Plug-In . SVG Version: 6.00 Build 43363)  -->
<!DOCTYPE svg PUBLIC "-//W3C//DTD SVG 1.1//EN" "http://www.w3.org/Graphics/SVG/1.1/DTD/svg11.dtd">
<svg version="1.1" id="Ebene_1" xmlns="http://www.w3.org/2000/svg" xmlns:xlink="http://www.w3.org/1999/xlink" x="0px" y="0px"
	 width="1024px" height="245px" viewBox="0 0 1024 245" enable-background="new 0 0 1024 245" xml:space="preserve">
<g>
	<path d="M29.985,38.854h33.903l-2.729,12.836h0.333c8.933-8.722,23.138-15.139,40.749-15.139c21.884,0,35.614,10.533,30.895,32.755
		l-12.495,58.761H85.752l10.246-48.229c2.411-11.354-2.813-16.955-14.5-16.955c-12.343,0-23.158,6.75-26.279,21.401l-9.305,43.782
		H11.021L29.985,38.854"/>
	<path d="M264.551,101.564c-7.423,14.813-27.636,30.118-65.651,30.118c-40.166,0-59.286-15.305-52.255-48.388
		c6.718-31.605,34.737-48.06,71.767-48.06c38.187,0,58.355,16.626,50.446,53.815l-0.563,2.639H180.74
		c-0.637,11.522,5.802,19.912,23.746,19.912c11.192,0,17.968-4.768,23.197-10.036H264.551 M236.268,73.58
		c0.127-9.874-5.498-18.262-21.957-18.262c-16.459,0-25.652,8.389-29.724,18.262H236.268z"/>
	<polygon points="313.057,81.817 284.504,38.851 327.782,38.851 340.562,64.699 364.327,38.851 407.614,38.851 360.956,81.817 
		392.105,128.066 347.176,128.066 332.937,100.575 307.011,128.066 262.077,128.066 	"/>
	<path d="M422.069,38.854h34.894l-9.8,46.087c-3.214,15.144,2.083,20.412,13.774,20.412c12.338,0,23.153-6.748,26.265-21.394
		l9.584-45.105h34.901l-18.961,89.213h-33.909l2.445-11.53h-0.324c-8.928,8.732-23.133,15.146-40.749,15.146
		c-21.394,0-35.893-9.214-30.194-36.044L422.069,38.854"/>
	<path d="M572.788,100.247c-0.206,3.291,0.549,5.927,3.332,7.578c2.734,1.806,7.302,2.793,14.877,2.793
		c7.732,0,16.278-1.48,17.64-7.896c1.01-4.778-2.165-6.093-10.505-7.081l-30.313-3.788c-19.885-2.464-28.714-9.709-25.49-24.853
		c5.146-24.189,27.489-31.762,60.898-31.762c23.706,0,52.754,4.275,49.334,29.626h-39.171c0.479-3.791-1.471-6.258-4.646-7.573
		c-3.136-1.485-7.645-1.977-12.094-1.977c-10.035,0-16.454,2.303-17.748,8.396c-0.588,2.798,1.186,5.268,9.869,6.255l29.42,3.293
		c23.462,2.634,33.742,10.036,30.027,27.487c-4.469,21.063-26.646,30.943-63.681,30.943c-24.697,0-57.155-4.444-52.245-31.441
		H572.788"/>
	<polygon points="715.498,0.246 733.462,0.246 699.357,160.73 681.384,160.73 	"/>
	<path fill="#B52735" d="M768.057,66.833c8.928-26.497,34.908-30.283,62.24-30.283c32.419,0,55.655,5.265,50.334,30.283
		l-9.575,45.098c-1.607,7.573-1.509,11.025,0.187,16.136h-34.889c-0.588-2.636-0.422-5.762-0.059-8.232
		c-12.064,9.545-26.882,11.853-44.493,11.853c-28.479,0-41.66-9.224-37.701-27.82c4.303-20.245,19.336-27.487,44.698-29.126
		l35.223-2.303c9.202-0.664,11.094-2.641,12.073-7.252c1.333-6.245-4.714-9.543-20.021-9.543c-12.838,0-19.865,3.624-23.118,11.189
		H768.057 M842.576,86.421c-2.813,0.823-7.262,1.646-13.867,2.47l-24.128,2.8c-7.252,0.823-10.81,3.619-11.956,9.05
		c-1.47,6.917,3.939,10.859,13.328,10.859c20.071,0,32.88-7.566,35.467-19.745L842.576,86.421z"/>
	<path fill="#B52735" d="M991.431,38.856h33.909l-17.248,81.14c-6.331,29.798-25.618,42.298-68.405,42.298
		c-35.222,0-56.352-5.92-54.725-30.606h38.505c-0.059,8.061,8.801,10.53,19.003,10.53c19.591,0,27.47-6.914,30.938-23.207
		l1.323-6.25c-9.408,7.892-24.628,11.354-38.122,11.354c-37.858,0-48.707-19.422-43.532-43.785
		c5.008-23.533,26.254-43.777,62.143-43.777c15.465,0,28.293,3.955,33.468,13.657h0.333L991.431,38.856 M950.996,102.057
		c19.757,0,28.038-9.543,30.458-20.904c2.666-12.507-3.479-21.56-21.423-21.56c-17.61,0-27.715,9.547-30.185,21.234
		C927.328,92.673,933.395,102.057,950.996,102.057"/>
	<path fill="#B52735" d="M394.403,232.556c-0.441,5.214,3.95,7.008,10.579,7.008c8.193,0,12.755-2.539,13.593-6.483
		c1.857-8.717-29.797-2.082-26.627-16.988c1.75-8.267,10.305-11.696,20.664-11.696c7.747,0,17.312,1.936,15.813,11.104h-7.081
		c-0.039-4.699-3.93-6.042-9.516-6.042c-6.562,0-11.652,2.239-12.388,5.669c-0.543,2.612,1.49,4.249,6.851,5.287l11.883,2.304
		c6.718,1.353,9.452,4.253,8.266,9.839c-1.695,7.968-9.197,12.074-23.354,12.074c-9.981,0-17.768-3.356-16.435-12.074H394.403"/>
	<path fill="#B52735" d="M457.105,244.63c-15.205,0-21.845-7.301-19.12-20.12c2.582-12.143,12.024-20.119,27.67-20.119
		c15.195,0,21.84,7.306,19.115,20.119C482.051,237.329,472.305,244.63,457.105,244.63 M445.736,224.51
		c-1.808,8.497,2.24,15.054,12.441,15.054c10.207,0,17.047-6.557,18.846-15.054c1.808-8.491-2.239-15.053-12.441-15.053
		C454.371,209.457,447.535,216.019,445.736,224.51"/>
	<polygon fill="#B52735" points="504.528,189.421 511.819,189.421 500.387,243.214 493.086,243.214 	"/>
	<path fill="#B52735" d="M558.598,234.722c-0.607,2.832-1.029,5.508-1.51,8.497h-6.85c0.245-1.867,0.559-4.028,1.117-6.635h-0.157
		c-5.458,5.732-11.319,8.046-18.022,8.046c-10.506,0-16.858-5.89-14.367-17.582l4.509-21.231h7.301l-4.43,20.85
		c-1.783,8.35,2.244,12.897,9.251,12.897c6.929,0,15.729-4.249,18.248-16.092l3.754-17.655h7.301L558.598,234.722"/>
	<path fill="#B52735" d="M585.725,198.956l7.947-3.053l-2.116,9.913h11.025l-1.068,5.057h-11.035l-4.567,21.536
		c-0.862,4.027-0.195,6.188,4.342,6.188c1.353,0,3.538-0.151,5.685-0.451l-1.078,5.067c-2.44,0.299-4.861,0.445-7.096,0.445
		c-7.38,0-11.045-2.381-9.271-10.726l4.694-22.061h-9.762l1.078-5.057h9.761L585.725,198.956"/>
	<path fill="#B52735" d="M613.547,205.812h7.301l-7.947,37.402H605.6L613.547,205.812z M617.036,189.421h7.291l-1.578,7.453h-7.301
		L617.036,189.421z"/>
	<path fill="#B52735" d="M648.278,244.63c-15.189,0-21.844-7.301-19.12-20.12c2.578-12.143,12.025-20.119,27.676-20.119
		c15.2,0,21.845,7.306,19.12,20.119C673.23,237.329,663.479,244.63,648.278,244.63 M636.91,224.51
		c-1.803,8.497,2.245,15.054,12.446,15.054c10.212,0,17.043-6.557,18.846-15.054c1.804-8.491-2.234-15.053-12.446-15.053
		C645.545,209.457,638.714,216.019,636.91,224.51"/>
	<path fill="#B52735" d="M689.891,214.308c0.607-2.832,1.028-5.517,1.509-8.496h6.86c-0.255,1.862-0.568,4.027-1.117,6.63h0.146
		c5.469-5.729,11.319-8.051,18.032-8.051c10.506,0,16.856,5.89,14.367,17.591l-4.508,21.232h-7.301l4.43-20.86
		c1.773-8.34-2.255-12.892-9.252-12.892c-6.938,0-15.729,4.248-18.258,16.087l-3.753,17.665h-7.302L689.891,214.308"/>
</g>
<g>
	<path fill="#B52735" d="M746.045,232.556c-0.44,5.214,3.959,7.008,10.584,7.008c8.203,0,12.76-2.539,13.603-6.483
		c1.853-8.717-29.812-2.082-26.646-16.988c1.755-8.267,10.319-11.696,20.669-11.696c7.742,0,17.326,1.936,15.817,11.104h-7.086
		c-0.039-4.699-3.92-6.042-9.506-6.042c-6.557,0-11.652,2.239-12.388,5.669c-0.549,2.612,1.48,4.249,6.851,5.287l11.878,2.304
		c6.723,1.353,9.447,4.253,8.262,9.839c-1.695,7.968-9.192,12.074-23.344,12.074c-9.986,0-17.769-3.356-16.436-12.074H746.045"/>
	<path fill="#B52735" d="M43.95,226.44H8.934c-0.882,7.684,2.876,13.123,11.074,13.123c5.287,0,11.349-2.234,14.132-7.615h7.747
		c-3.616,9.996-14.318,12.682-22.584,12.682c-13.71,0-19.934-7.526-17.415-19.375c2.896-13.632,12.632-20.859,26.186-20.859
		c13.265,0,19.051,7.148,16.356,19.811L43.95,226.44 M37.286,221.379c1.686-8.648-4.023-11.922-10.432-11.922
		c-7.526,0-13.671,3.655-16.538,11.922H37.286z"/>
</g>
<g>
	<polygon fill="#B52735" points="57.18,220.041 82.215,220.041 80.823,226.598 55.784,226.598 	"/>
	<path fill="#B52735" d="M100.345,189.421h7.301l-4.875,22.937h0.147c4.616-5.571,10.932-7.967,17.562-7.967
		c10.506,0,16.856,5.89,14.367,17.591l-4.513,21.232h-7.301l4.435-20.86c1.774-8.35-2.254-12.896-9.251-12.896
		c-6.938,0-15.734,4.248-18.257,16.102l-3.749,17.655h-7.296L100.345,189.421"/>
	<path fill="#B52735" d="M187.468,226.44h-35.016c-0.892,7.684,2.872,13.123,11.064,13.123c5.292,0,11.354-2.234,14.132-7.615h7.752
		c-3.611,9.996-14.318,12.682-22.584,12.682c-13.715,0-19.934-7.526-17.415-19.375c2.896-13.632,12.632-20.859,26.19-20.859
		c13.26,0,19.042,7.148,16.347,19.811L187.468,226.44 M180.794,221.379c1.69-8.648-4.023-11.922-10.432-11.922
		c-7.522,0-13.662,3.655-16.538,11.922H180.794z"/>
	<path fill="#B52735" d="M201.027,215.567c2.773-8.864,12.877-11.177,21.001-11.177c10.349,0,17.116,3.949,15.132,13.265
		l-3.911,18.399c-0.598,2.832-1.014,5.149-1.22,7.164h-6.855c0.142-1.729,0.446-3.509,0.809-5.224h-0.147
		c-5.434,5.591-10.422,6.635-17.729,6.635c-9.462,0-14.837-5.219-13.343-12.221c1.676-7.904,8.511-11.996,21.849-12.368
		c5.547-0.146,9.35-0.146,12.775-0.146l0.22-1.044c1.524-7.159-2.475-9.394-9.702-9.394c-5.14,0-9.893,2.019-11.133,6.11H201.027
		 M228.311,224.956c-2.46,0-6.037,0-11.672,0.23c-7.664,0.284-12.922,1.558-14.078,6.997c-0.794,3.724,1.485,7.38,8.561,7.38
		c9.021,0,14.911-3.881,16.827-12.893L228.311,224.956z"/>
	<polygon fill="#B52735" points="257.471,189.421 264.767,189.421 253.34,243.214 246.034,243.214 	"/>
	<path fill="#B52735" d="M282.785,198.951l7.948-3.048l-2.107,9.898h11.025l-1.068,5.071h-11.035l-4.572,21.531
		c-0.857,4.022-0.196,6.188,4.347,6.188c1.347,0,3.533-0.151,5.679-0.451l-1.073,5.077c-2.45,0.284-4.866,0.436-7.1,0.436
		c-7.375,0-11.04-2.386-9.266-10.726l4.689-22.056h-9.761l1.078-5.071h9.756L282.785,198.951"/>
	<path fill="#B52735" d="M313.572,189.421h7.306l-4.886,22.937h0.152c4.611-5.571,10.932-7.967,17.562-7.967
		c10.506,0,16.861,5.89,14.367,17.591l-4.513,21.232h-7.306l4.435-20.86c1.778-8.35-2.25-12.896-9.251-12.896
		c-6.934,0-15.729,4.248-18.248,16.102l-3.753,17.655h-7.301L313.572,189.421"/>
</g>
</svg>
