<?xml version="1.0" encoding="UTF-8" standalone="no"?>
<svg
   xmlns:dc="http://purl.org/dc/elements/1.1/"
   xmlns:cc="http://web.resource.org/cc/"
   xmlns:rdf="http://www.w3.org/1999/02/22-rdf-syntax-ns#"
   xmlns:svg="http://www.w3.org/2000/svg"
   xmlns="http://www.w3.org/2000/svg"
   xmlns:sodipodi="http://sodipodi.sourceforge.net/DTD/sodipodi-0.dtd"
   xmlns:inkscape="http://www.inkscape.org/namespaces/inkscape"
   version="1.0"
   id="Ebene_1"
   width="800"
   height="360"
   viewBox="0 0 372.234 149.42"
   overflow="visible"
   enable-background="new 0 0 372.234 149.42"
   xml:space="preserve"
   sodipodi:version="0.32"
   inkscape:version="0.45.1"
   sodipodi:docname="ruv.svg"
   inkscape:output_extension="org.inkscape.output.svg.inkscape"
   sodipodi:docbase="C:\Home\xavax\Desktop"><metadata
   id="metadata8"><rdf:RDF><cc:Work
       rdf:about=""><dc:format>image/svg+xml</dc:format><dc:type
         rdf:resource="http://purl.org/dc/dcmitype/StillImage" /></cc:Work></rdf:RDF></metadata><defs
   id="defs6" /><sodipodi:namedview
   inkscape:window-height="579"
   inkscape:window-width="801"
   inkscape:pageshadow="2"
   inkscape:pageopacity="0.0"
   guidetolerance="10.0"
   gridtolerance="10.0"
   objecttolerance="10.0"
   borderopacity="1.0"
   bordercolor="#666666"
   pagecolor="#ffffff"
   id="base"
   inkscape:zoom="0.34050863"
   inkscape:cx="182.71186"
   inkscape:cy="63.276905"
   inkscape:window-x="176"
   inkscape:window-y="176"
   inkscape:current-layer="Ebene_1"
   width="800px"
   height="360px" />
<path
   d="M 359.501,6.2275673 L 280.82946,143.83709 L 228.40911,143.83709 L 228.45336,80.746661 L 182.15245,80.728226 L 182.15245,143.83709 L 169.04529,143.83709 L 169.04529,80.728226 L 117.02774,80.728226 L 153.97574,143.83709 L 106.27655,143.83709 L 68.531244,76.383138 C 69.732273,77.027436 84.164898,73.274105 84.281959,59.180681 C 84.416533,43.716628 69.525803,41.329318 68.808688,41.356049 C 68.092495,41.374483 59.957207,41.329318 59.957207,41.329318 L 59.957207,143.95415 L 16.406776,143.89147 L 16.397558,6.2275673 C 16.397558,6.2275673 82.480877,6.2275673 82.338006,6.2275673 C 108.57076,6.6441943 124.36572,23.751712 124.49108,45.37484 C 124.55375,58.450662 116.49036,67.54917 116.49036,67.54917 L 169.04621,67.54917 L 169.04621,6.2275673 L 182.15337,6.2275673 L 182.15337,67.54917 L 228.41095,67.54917 L 228.41095,6.2275673 L 271.97061,6.2275673 L 271.97061,96.461427 C 271.97061,96.461427 274.47959,84.867767 281.50326,71.908084 L 313.98818,6.2275673 L 359.501,6.2275673"
   id="path3"
   style="fill:#30529d" />
</svg>