<?xml version="1.0" standalone="no"?>
<!DOCTYPE svg PUBLIC "-//W3C//DTD SVG 20010904//EN"
 "http://www.w3.org/TR/2001/REC-SVG-20010904/DTD/svg10.dtd">
<svg version="1.0" xmlns="http://www.w3.org/2000/svg"
 width="2008.000000pt" height="592.000000pt" viewBox="0 0 2008.000000 592.000000"
 preserveAspectRatio="xMidYMid meet">

<g transform="translate(0.000000,592.000000) scale(0.100000,-0.100000)"
fill="#000000" stroke="none">
<path d="M10610 4483 c-139 -15 -320 -70 -439 -134 -367 -197 -611 -614 -670
-1144 -24 -224 -8 -553 39 -767 136 -624 585 -1022 1175 -1042 173 -6 327 16
476 70 261 94 491 308 631 589 178 355 245 855 172 1288 -125 740 -576 1156
-1244 1145 -58 0 -121 -3 -140 -5z m374 -263 c70 -15 187 -64 253 -106 375
-239 563 -858 457 -1499 -83 -501 -325 -832 -686 -936 -105 -30 -325 -38 -437
-15 -420 85 -678 422 -765 996 -8 56 -14 170 -14 280 -1 398 89 718 268 960
119 160 287 273 468 316 130 31 320 33 456 4z"/>
<path d="M1340 2946 l0 -1476 140 0 140 0 0 650 0 650 348 0 347 -1 428 -602
c235 -331 442 -623 460 -649 l32 -47 178 -1 c140 0 177 3 170 12 -4 7 -86 121
-183 253 -540 735 -750 1025 -750 1033 0 4 19 9 43 10 209 10 413 80 549 187
243 191 330 558 217 910 -39 122 -90 206 -179 295 -132 131 -280 200 -500 230
-42 6 -375 13 -757 17 l-683 6 0 -1477z m1500 1191 c204 -62 332 -199 375
-402 59 -279 -51 -540 -269 -640 -135 -63 -179 -67 -783 -72 l-543 -5 0 572 0
571 583 -4 c506 -3 589 -5 637 -20z"/>
<path d="M4530 2944 l0 -1474 140 0 140 0 0 1475 0 1476 -140 -2 -140 -1 0
-1474z"/>
<path d="M5940 2944 l0 -1474 140 0 140 0 1 1243 c0 760 4 1234 10 1222 5 -11
69 -177 142 -370 74 -192 284 -743 467 -1222 l334 -873 110 0 111 0 470 1230
c258 676 471 1228 472 1226 2 -1 4 -554 6 -1227 l2 -1224 143 -3 142 -3 -2
1473 -3 1473 -179 0 -179 0 -408 -1035 c-224 -569 -445 -1129 -490 -1243 -45
-115 -85 -205 -89 -200 -3 4 -224 562 -490 1238 -266 677 -489 1233 -494 1238
-6 4 -89 7 -183 6 l-173 -1 0 -1474z"/>
<path d="M12460 4409 c0 -7 192 -663 426 -1458 234 -795 427 -1454 430 -1464
5 -16 17 -17 121 -15 l115 3 347 1178 c190 647 348 1177 351 1177 3 0 161
-530 351 -1178 l346 -1177 114 -3 115 -3 429 1453 c235 799 430 1463 433 1476
l4 22 -145 0 c-104 0 -147 -4 -154 -12 -5 -7 -159 -551 -343 -1208 -183 -657
-336 -1198 -339 -1202 -4 -5 -159 517 -345 1160 -187 642 -345 1188 -353 1215
l-14 47 -93 0 c-63 0 -97 -4 -104 -12 -8 -11 -354 -1192 -654 -2235 -29 -101
-55 -179 -59 -175 -4 4 -156 543 -339 1197 -183 655 -337 1198 -342 1208 -8
15 -26 17 -153 17 -103 0 -145 -3 -145 -11z"/>
<path d="M17301 4403 c-12 -24 -64 -151 -711 -1738 -186 -456 -372 -912 -413
-1012 l-75 -183 158 0 158 0 30 77 c16 43 91 243 167 446 l138 367 669 -2 670
-3 166 -443 166 -442 158 0 158 0 -19 47 c-10 27 -159 392 -331 813 -172 421
-431 1058 -577 1415 -146 358 -270 656 -275 663 -7 8 -44 12 -119 12 -93 0
-110 -2 -118 -17z m402 -1070 c151 -395 277 -724 279 -731 2 -10 -106 -13
-556 -12 -308 0 -562 2 -564 5 -5 5 551 1454 559 1455 3 0 130 -323 282 -717z"/>
</g>
</svg>
