<?xml version="1.0" encoding="UTF-8" standalone="no"?>
<!-- Created with Inkscape (http://www.inkscape.org/) -->

<svg
   xmlns:dc="http://purl.org/dc/elements/1.1/"
   xmlns:cc="http://creativecommons.org/ns#"
   xmlns:rdf="http://www.w3.org/1999/02/22-rdf-syntax-ns#"
   xmlns:svg="http://www.w3.org/2000/svg"
   xmlns="http://www.w3.org/2000/svg"
   version="1.1"
   width="329.96237"
   height="86.330872"
   id="svg2"
   xml:space="preserve"><metadata
     id="metadata8"><rdf:RDF><cc:Work
         rdf:about=""><dc:format>image/svg+xml</dc:format><dc:type
           rdf:resource="http://purl.org/dc/dcmitype/StillImage" /><dc:title></dc:title></cc:Work></rdf:RDF></metadata><defs
     id="defs6"><clipPath
       id="clipPath16"><path
         d="m 0,0 609.448,0 0,822.047 L 0,822.047 0,0 z"
         id="path18" /></clipPath><clipPath
       id="clipPath30"><path
         d="m 176.991,166.772 263.97,0 0,94.724 -263.97,0 0,-94.724 z"
         id="path32" /></clipPath><clipPath
       id="clipPath30-1"><path
         d="m 176.991,166.772 263.97,0 0,94.724 -263.97,0 0,-94.724 z"
         id="path32-9" /></clipPath></defs><g
     transform="matrix(1.25,0,0,-1.25,-226.88442,376.79555)"
     id="g10"><g
       transform="translate(4.5164352,39.94054)"
       id="g26"
       style="fill:#000000"><g
         clip-path="url(#clipPath30-1)"
         id="g28"
         style="fill:#000000"><g
           transform="translate(348.9904,203.6768)"
           id="g34"
           style="fill:#000000"><path
             d="M 0,0 -0.439,0 C -0.844,-0.297 -1.516,-0.734 -2.232,-1.202 -2.935,-1.657 -3.67,-2.078 -4.279,-2.391 l 0.251,-0.452 c 0.703,0.327 1.484,0.704 2.124,1.001 l 0,-7.859 c 0,-0.826 -0.766,-0.844 -1.454,-0.844 l -0.343,0 0,-0.464 c 0.953,0 1.891,0.059 2.843,0.043 0.872,0 1.748,-0.043 2.622,-0.043 l 0,0.464 -0.358,0 c -0.752,0 -1.406,0 -1.406,0.859 L 0,0 z m 5.449,-8.702 c 0,-1.733 1.748,-2.543 3.263,-2.543 1.766,0 3.389,1.216 3.389,3.122 0,1.468 -1.061,2.438 -2.311,2.969 1.047,0.486 2.124,1.376 2.124,2.641 C 11.914,-0.841 10.494,0 9.01,0 7.666,0 5.697,-0.732 5.697,-3.013 c 0,-1.374 0.688,-2.188 1.687,-2.826 L 7.603,-5.981 C 6.339,-6.497 5.449,-7.215 5.449,-8.702 m 1.278,0.142 c 0,0.955 0.439,1.892 1.251,2.376 1.11,-0.674 2.469,-1.236 2.469,-2.766 0,-0.984 -0.657,-1.733 -1.671,-1.733 -1.251,0 -2.049,0.888 -2.049,2.123 m 0.468,6.281 c 0,0.876 0.72,1.719 1.626,1.719 1.142,0 1.813,-0.984 1.813,-2.063 0,-0.905 -0.468,-1.797 -1.219,-2.31 -1.111,0.56 -2.22,1.233 -2.22,2.654 m 9.374,-3.671 c 0.344,0.093 0.827,0.203 1.343,0.203 1.11,0 1.938,-0.939 1.938,-2.454 0,-1.327 -0.904,-2.482 -2.282,-2.482 -0.779,0 -1.469,0.437 -1.703,1.216 -0.124,0.015 -0.436,-0.031 -0.654,-0.123 -0.078,-0.033 -0.172,-0.096 -0.172,-0.156 0,-0.127 0.016,-0.439 0.111,-0.642 0.279,-0.67 1.28,-0.857 1.997,-0.857 2.142,0 4.607,1.592 4.607,3.952 0,1.733 -1.34,2.529 -2.918,2.42 l 0,0.031 c 1.217,0.609 2.247,1.345 2.247,2.861 C 21.083,-0.747 19.836,0 18.726,0 17.43,0 16.288,-0.857 15.523,-1.856 l 0.312,-0.328 c 0.486,0.516 1.142,0.939 1.875,0.939 0.968,0 1.626,-0.691 1.626,-1.643 0,-1.345 -1.58,-2.188 -2.859,-2.594 l 0.092,-0.468 z m 13.357,1.169 c -0.359,-0.233 -0.608,-0.404 -1.125,-0.404 -1.297,0 -2.047,1.485 -2.047,2.703 0,1.015 0.485,1.922 1.609,1.922 1.641,0 2.125,-2.578 2.125,-3.751 0,-3.388 -2.422,-5.763 -5.592,-6.512 l 0.219,-0.422 c 3.421,0.515 7.277,3.297 7.277,7.059 0,2.172 -1.278,4.186 -3.653,4.186 -1.938,0 -3.733,-1.403 -3.733,-3.452 0,-1.546 0.872,-2.98 2.654,-2.98 0.985,0 1.924,0.606 2.314,1.262 l -0.048,0.389 z"
             id="path36"
             style="fill:#000000;fill-opacity:1;fill-rule:nonzero;stroke:none" /></g><g
           transform="translate(192.8381,238.0454)"
           id="g38"
           style="fill:#000000"><path
             d="m 0,0 c 6.576,0 9.268,3.961 9.268,8.795 0,4.911 -3.723,7.764 -9.19,7.764 l -9.586,0 L -9.508,0 0,0 z m -0.238,-5.388 -9.27,0 0,-14.497 -6.339,0 0,41.99 15.054,0 c 11.884,0 16.716,-6.656 16.716,-13.31 0,-7.369 -4.911,-11.411 -9.507,-12.995 l 12.914,-15.685 -8.001,0 -11.567,14.497 z"
             id="path40"
             style="fill:#000000;fill-opacity:1;fill-rule:nonzero;stroke:none" /></g><g
           transform="translate(224.6044,239.1549)"
           id="g42"
           style="fill:#000000"><path
             d="m 0,0 c 0,-10.3 6.733,-16.636 15.846,-16.636 9.111,0 15.845,6.336 15.845,16.636 0,10.298 -6.734,16.638 -15.845,16.638 C 6.733,16.638 0,10.298 0,0 m -6.655,0 c 0,14.498 11.724,22.341 22.501,22.341 10.932,0 22.501,-7.843 22.501,-22.341 0,-14.499 -11.489,-22.345 -22.501,-22.345 -11.172,0 -22.501,7.846 -22.501,22.345"
             id="path44"
             style="fill:#000000;fill-opacity:1;fill-rule:nonzero;stroke:none" /></g><g
           transform="translate(303.3527,260.1504)"
           id="g46"
           style="fill:#000000"><path
             d="m 0,0 0,-5.546 -22.184,0 0,-12.439 19.174,0 0,-5.546 -19.174,0 0,-12.915 22.977,0 0,-5.544 -29.314,0 0,41.99 L 0,0 z"
             id="path48"
             style="fill:#000000;fill-opacity:1;fill-rule:nonzero;stroke:none" /></g><g
           transform="translate(350.6509,246.9977)"
           id="g50"
           style="fill:#000000"><path
             d="m 0,0 c -2.854,5.627 -8.004,8.795 -14.737,8.795 -9.112,0 -15.847,-6.339 -15.847,-16.638 0,-10.301 6.735,-16.636 15.847,-16.636 6.891,0 12.041,3.406 14.657,8.952 l 5.625,-2.617 c -3.883,-7.685 -11.805,-12.042 -20.282,-12.042 -11.17,0 -22.501,7.844 -22.501,22.343 0,14.498 11.725,22.341 22.501,22.341 7.922,0 16.32,-3.723 20.362,-11.724 L 0,0 z"
             id="path52"
             style="fill:#000000;fill-opacity:1;fill-rule:nonzero;stroke:none" /></g><g
           transform="translate(402.3023,260.1504)"
           id="g54"
           style="fill:#000000"><path
             d="m 0,0 -20.125,-20.679 20.522,-21.311 -8.241,0 -20.361,21.073 0,-21.073 -6.337,0 0,41.99 6.337,0 0,-20.838 L -7.764,0 0,0 z"
             id="path56"
             style="fill:#000000;fill-opacity:1;fill-rule:nonzero;stroke:none" /></g><g
           transform="translate(417.9858,260.1504)"
           id="g58"
           style="fill:#000000"><path
             d="m 0,0 0,-36.286 22.976,0 0,-5.704 -29.315,0 0,41.99 L 0,0 z"
             id="path60"
             style="fill:#000000;fill-opacity:1;fill-rule:nonzero;stroke:none" /></g><g
           transform="translate(325.7692,203.1901)"
           id="g62"
           style="fill:#000000"><path
             d="M 0,0 C -0.475,0 -0.934,-0.056 -1.41,-0.056 -2.01,-0.056 -2.629,0 -3.232,0 l 0,-0.448 0.208,0 c 0.715,0 1.441,-0.516 1.441,-1.359 l 0,-6.356 c 0,-1.21 -0.333,-1.92 -1.424,-1.92 l -0.225,0 0,-0.446 c 0.714,0 1.442,0.055 2.157,0.055 0.68,0 1.36,-0.055 2.045,-0.055 l 0,0.446 -0.27,0 c -1.223,0 -1.492,0.456 -1.492,1.771 l 0,6.216 8.161,-8.662 0.604,0 c -0.08,0.466 -0.096,0.995 -0.096,1.524 l 0,6.866 c 0,1.798 0.743,1.92 1.412,1.92 l 0.236,0 0,0.448 C 8.876,0 8.228,-0.056 7.578,-0.056 6.836,-0.056 6.106,0 5.362,0 l 0,-0.448 0.344,0 c 0.479,0 1.381,-0.182 1.381,-1.419 l 0,-5.661 L 7.056,-7.561 0,0 z"
             id="path64"
             style="fill:#000000;fill-opacity:1;fill-rule:nonzero;stroke:none" /></g><g
           transform="translate(310.7132,192.6611)"
           id="g66"
           style="fill:#000000"><path
             d="M 0,0 C 0.907,0 2.788,0.055 4.217,0.055 5.641,0.055 7.467,0 8.477,0 8.622,0.795 8.811,1.594 9.021,2.397 L 8.577,2.504 C 8.098,0.78 7.261,0.658 5.357,0.658 c -1.015,0 -1.934,0 -1.934,0.984 l 0,3.517 1.904,0 c 1.092,0 1.143,-0.586 1.236,-1.493 L 7.037,3.754 C 7.005,4.326 6.991,4.902 6.991,5.478 c 0,0.584 0.014,1.174 0.046,1.763 l -0.474,0 C 6.47,6.425 6.261,5.913 5.308,5.913 l -1.885,0 0,3.956 2.203,0 c 1.668,0 1.856,-0.787 1.936,-1.767 L 8.035,8.223 C 7.99,8.887 7.975,9.882 8.004,10.529 6.927,10.529 5.278,10.473 3.945,10.473 2.617,10.473 0.97,10.529 0,10.529 l 0,-0.448 0.226,0 c 0.57,0 1.168,-0.079 1.168,-0.862 l 0,-7.909 C 1.394,0.528 0.796,0.446 0.226,0.446 L 0,0.446 0,0 z"
             id="path68"
             style="fill:#000000;fill-opacity:1;fill-rule:nonzero;stroke:none" /></g><g
           transform="translate(298.3777,197.7316)"
           id="g70"
           style="fill:#000000"><path
             d="m 0,0 5.755,0 0,-3.761 c 0,-0.814 -0.664,-0.864 -1.235,-0.864 l -0.299,0 0,-0.446 c 0.695,0 1.708,0.056 2.563,0.056 0.808,0 1.759,-0.056 2.394,-0.056 l 0,0.446 -0.221,0 c -0.574,0 -1.175,0.082 -1.175,0.864 l 0,7.91 c 0,0.783 0.601,0.862 1.175,0.862 l 0.221,0 0,0.447 c -0.635,0 -1.586,-0.056 -2.394,-0.056 -0.855,0 -1.868,0.056 -2.563,0.056 l 0,-0.447 0.299,0 c 0.571,0 1.235,-0.047 1.235,-0.862 l 0,-3.307 -5.755,0 0,3.307 c 0,0.815 0.668,0.862 1.238,0.862 l 0.301,0 0,0.447 c -0.696,0 -1.714,-0.056 -2.569,-0.056 -0.805,0 -1.756,0.056 -2.389,0.056 l 0,-0.447 0.22,0 c 0.571,0 1.175,-0.079 1.175,-0.862 l 0,-7.91 c 0,-0.782 -0.604,-0.864 -1.175,-0.864 l -0.22,0 0,-0.446 c 0.633,0 1.584,0.056 2.389,0.056 0.855,0 1.873,-0.056 2.569,-0.056 l 0,0.446 -0.301,0 C 0.668,-4.625 0,-4.575 0,-3.761 L 0,0 z"
             id="path72"
             style="fill:#000000;fill-opacity:1;fill-rule:nonzero;stroke:none" /></g><g
           transform="translate(291.7059,195.3422)"
           id="g74"
           style="fill:#000000"><path
             d="m 0,0 c -0.047,0.048 -0.109,0 -0.189,-0.103 -0.663,-0.921 -2.042,-1.754 -3.785,-1.754 -0.762,0 -1.681,0.121 -2.727,1.182 -1.176,1.204 -1.459,2.985 -1.459,3.919 0,2.176 1.045,4.35 3.581,4.35 1.238,0 2.064,-0.484 2.759,-1.117 0.667,-0.664 1.045,-1.418 1.235,-1.963 0.047,-0.12 0.096,-0.181 0.173,-0.15 l 0.303,0.092 c 0.062,0.013 0.079,0.058 0.062,0.15 -0.062,0.44 -0.379,2.854 -0.379,3.14 0,0.222 -0.032,0.255 -0.221,0.255 -0.19,0 -0.222,0 -0.253,-0.096 L -1.027,7.493 c -0.031,-0.126 -0.095,-0.126 -0.316,0 -0.571,0.313 -1.744,0.733 -3.204,0.733 -1.901,0 -3.264,-0.724 -4.12,-1.599 -1.108,-1.147 -1.616,-2.563 -1.616,-4.042 0,-1.333 0.538,-3.08 1.711,-4.08 0.982,-0.844 2.124,-1.416 4.152,-1.416 2.251,0 3.773,1.235 4.723,2.536 0.031,0.06 0.015,0.103 -0.032,0.149 L 0,0 z"
             id="path76"
             style="fill:#000000;fill-opacity:1;fill-rule:nonzero;stroke:none" /></g><g
           transform="translate(269.0464,203.1901)"
           id="g78"
           style="fill:#000000"><path
             d="M 0,0 C -0.477,0 -0.935,-0.056 -1.41,-0.056 -2.012,-0.056 -2.63,0 -3.232,0 l 0,-0.448 0.207,0 c 0.712,0 1.441,-0.516 1.441,-1.359 l 0,-6.356 c 0,-1.21 -0.333,-1.92 -1.425,-1.92 l -0.223,0 0,-0.446 c 0.713,0 1.442,0.055 2.154,0.055 0.681,0 1.363,-0.055 2.044,-0.055 l 0,0.446 -0.27,0 c -1.219,0 -1.489,0.456 -1.489,1.771 l 0,6.216 8.163,-8.662 0.601,0 c -0.079,0.466 -0.095,0.995 -0.095,1.524 l 0,6.866 c 0,1.798 0.744,1.92 1.41,1.92 l 0.238,0 0,0.448 C 8.873,0 8.226,-0.056 7.575,-0.056 6.832,-0.056 6.103,0 5.357,0 l 0,-0.448 0.35,0 c 0.476,0 1.379,-0.182 1.379,-1.419 l 0,-5.661 L 7.053,-7.561 0,0 z"
             id="path80"
             style="fill:#000000;fill-opacity:1;fill-rule:nonzero;stroke:none" /></g><g
           transform="translate(252.3546,196.188)"
           id="g82"
           style="fill:#000000"><path
             d="m 0,0 c 0,-2.703 1.695,-3.756 4.739,-3.756 2.362,0 4.26,0.981 4.26,4.392 l 0,4.816 c 0,1.086 0.588,1.102 1.016,1.102 l 0.332,0 0,0.448 c -0.618,0 -1.22,-0.056 -1.837,-0.056 -0.633,0 -1.283,0.056 -1.918,0.056 l 0,-0.448 0.318,0 c 0.539,0 1.142,-0.016 1.142,-1.102 l 0,-5.147 c 0,-2.041 -0.92,-3.304 -3.013,-3.304 -2.267,0 -3.012,1.325 -3.012,3.241 l 0,5.21 c 0,1.086 0.633,1.102 1.268,1.102 l 0.19,0 0,0.448 c -0.634,0 -1.426,-0.056 -2.377,-0.056 -0.997,0 -1.836,0.056 -2.518,0.056 l 0,-0.448 0.191,0 C -0.586,6.554 0,6.538 0,5.452 L 0,0 z"
             id="path84"
             style="fill:#000000;fill-opacity:1;fill-rule:nonzero;stroke:none" /></g><g
           transform="translate(257.8543,205.0646)"
           id="g86"
           style="fill:#000000"><path
             d="m 0,0 c 0,-0.467 0.397,-0.845 0.887,-0.845 0.489,0 0.886,0.378 0.886,0.845 0,0.467 -0.397,0.845 -0.886,0.845 C 0.397,0.845 0,0.467 0,0"
             id="path88"
             style="fill:#000000;fill-opacity:1;fill-rule:nonzero;stroke:none" /></g><g
           transform="translate(254.5898,205.0646)"
           id="g90"
           style="fill:#000000"><path
             d="m 0,0 c 0,-0.467 0.395,-0.845 0.887,-0.845 0.49,0 0.886,0.378 0.886,0.845 0,0.467 -0.396,0.845 -0.886,0.845 C 0.395,0.845 0,0.467 0,0"
             id="path92"
             style="fill:#000000;fill-opacity:1;fill-rule:nonzero;stroke:none" /></g><g
           transform="translate(236.8125,203.1901)"
           id="g94"
           style="fill:#000000"><path
             d="M 0,0 C -0.476,0 -0.951,-0.056 -1.425,-0.056 -2.075,-0.056 -2.708,0 -3.358,0 l 0,-0.448 0.206,0 c 0.698,0 1.378,-0.29 1.378,-1.133 0,-0.604 -0.062,-1.587 -0.189,-2.658 L -2.44,-8.434 c -0.143,-1.09 -0.19,-1.603 -1.442,-1.649 l -0.221,0 0,-0.446 c 0.618,0.027 1.251,0.055 1.87,0.055 0.712,0 1.441,-0.028 2.153,-0.055 l 0,0.446 -0.19,0 c -0.443,0.016 -0.776,0.032 -1.014,0.167 -0.205,0.138 -0.332,0.376 -0.332,0.863 l 0.538,6.624 0.032,0 3.836,-8.329 0.381,0 4.041,8.496 0.032,0 0.444,-6.372 c 0.016,-0.391 0.016,-0.557 0.016,-0.739 0,-0.66 -0.539,-0.66 -1.363,-0.71 l 0,-0.446 c 0.871,0.027 1.743,0.055 2.614,0.055 0.761,0 1.536,-0.028 2.281,-0.055 l 0,0.446 c -0.95,0.032 -1.347,0.094 -1.411,0.847 l -0.601,6.914 c -0.032,0.332 -0.095,0.787 -0.079,1.177 0.032,0.666 0.998,0.697 1.473,0.697 l 0.143,0 0,0.448 C 10.206,0 9.637,-0.056 9.081,-0.056 8.512,-0.056 7.941,0 7.467,0 L 3.71,-7.893 0,0 z"
             id="path96"
             style="fill:#000000;fill-opacity:1;fill-rule:nonzero;stroke:none" /></g></g></g></g></svg>