<?xml version="1.0" encoding="UTF-8" standalone="no"?>
<!-- Created with Inkscape (http://www.inkscape.org/) -->
<svg
   xmlns:dc="http://purl.org/dc/elements/1.1/"
   xmlns:cc="http://creativecommons.org/ns#"
   xmlns:rdf="http://www.w3.org/1999/02/22-rdf-syntax-ns#"
   xmlns:svg="http://www.w3.org/2000/svg"
   xmlns="http://www.w3.org/2000/svg"
   xmlns:sodipodi="http://sodipodi.sourceforge.net/DTD/sodipodi-0.dtd"
   xmlns:inkscape="http://www.inkscape.org/namespaces/inkscape"
   version="1.0"
   width="880"
   height="173.226"
   id="Logo_DB_Schenker"
   xml:space="preserve"
   sodipodi:version="0.32"
   inkscape:version="0.46"
   sodipodi:docname="Logo_DB_Schenker.svg"
   inkscape:output_extension="org.inkscape.output.svg.inkscape"><metadata
     id="metadata2437"><rdf:RDF><cc:Work
         rdf:about=""><dc:format>image/svg+xml</dc:format><dc:type
           rdf:resource="http://purl.org/dc/dcmitype/StillImage" /></cc:Work></rdf:RDF></metadata><sodipodi:namedview
     inkscape:window-height="998"
     inkscape:window-width="1280"
     inkscape:pageshadow="2"
     inkscape:pageopacity="0.0"
     guidetolerance="10.0"
     gridtolerance="10.0"
     objecttolerance="10.0"
     borderopacity="1.0"
     bordercolor="#666666"
     pagecolor="#ffffff"
     id="base"
     showgrid="false"
     inkscape:zoom="1.0658384"
     inkscape:cx="427.72709"
     inkscape:cy="146.5035"
     inkscape:window-x="-4"
     inkscape:window-y="-4"
     inkscape:current-layer="Logo_DB_Schenker" /><defs
     id="defs5"><inkscape:perspective
       sodipodi:type="inkscape:persp3d"
       inkscape:vp_x="0 : 86.612999 : 1"
       inkscape:vp_y="0 : 1000 : 0"
       inkscape:vp_z="1020.7926 : 86.612999 : 1"
       inkscape:persp3d-origin="510.3963 : 57.741999 : 1"
       id="perspective2439" /></defs><path
     d="M 856.89536,105.37542 C 854.60781,101.59945 852.23093,99.234048 849.63318,97.634548 C 860.20412,94.126648 864.94643,88.018448 864.94643,77.26881 C 864.94643,60.966248 855.04056,53.047935 834.67353,53.047935 L 803.74706,53.047935 L 803.74706,134.87091 L 824.54683,134.87091 C 824.54683,134.87091 824.54683,104.19846 824.54683,102.58749 C 825.52338,102.58749 827.18926,102.58749 827.18926,102.58749 C 831.87666,102.58749 833.56423,103.84231 837.22787,110.10624 L 851.68712,134.87091 L 874.38636,134.87091 L 856.89536,105.37542 z M 824.54683,68.838598 C 825.95612,68.838598 834.01868,68.838598 834.01868,68.838598 C 842.11443,68.838598 844.70195,71.16061 844.70195,78.367898 C 844.70195,85.529223 841.81445,88.195885 834.01868,88.195885 C 834.01868,88.195885 825.95612,88.195885 824.54683,88.195885 L 824.54683,68.838598 M 752.21868,118.27986 L 752.21868,101.14374 C 753.79647,101.14374 779.90405,101.14374 779.90405,101.14374 L 779.90405,85.331373 C 779.90405,85.331373 753.79647,85.331373 752.21868,85.331373 L 752.21868,69.627498 C 753.82967,69.627498 787.28877,69.627498 787.28877,69.627498 L 787.28877,53.047935 L 731.4419,53.047935 L 731.4419,134.87091 L 788.95465,134.87091 L 790.42137,118.27986 C 790.42137,118.27986 753.82967,118.27986 752.21868,118.27986 M 688.80965,91.592748 C 689.59855,90.582998 719.24848,53.047935 719.24848,53.047935 L 697.63812,53.047935 C 697.63812,53.047935 673.7849,84.453123 671.08631,87.97251 C 671.08631,83.66421 671.08631,53.047935 671.08631,53.047935 L 650.30825,53.047935 L 650.30825,134.87091 L 671.08631,134.87091 C 671.08631,134.87091 671.08631,104.61972 671.08631,100.26675 C 673.7849,103.82061 697.21558,134.87091 697.21558,134.87091 L 721.91388,134.87091 C 721.91388,134.87091 689.59855,92.626723 688.80965,91.592748 M 615.11688,53.047935 C 615.11688,53.047935 615.11688,93.247123 615.11688,97.768585 C 612.36213,94.092173 581.6348,53.047935 581.6348,53.047935 L 564.18848,53.047935 L 564.18848,134.87091 L 581.82372,134.87091 C 581.82372,134.87091 581.82372,89.949835 581.82372,85.40796 C 584.60018,89.094573 618.90308,134.87091 618.90308,134.87091 L 632.75087,134.87091 L 632.75087,53.047935 L 615.11688,53.047935 M 512.64988,118.27986 L 512.64988,101.14374 C 514.21618,101.14374 540.34675,101.14374 540.34675,101.14374 L 540.34675,85.331373 C 540.34675,85.331373 514.21618,85.331373 512.64988,85.331373 L 512.64988,69.627498 C 514.24938,69.627498 547.71998,69.627498 547.71998,69.627498 L 547.71998,53.047935 L 491.86161,53.047935 L 491.86161,134.87091 L 549.39733,134.87091 L 550.83981,118.27986 C 550.83981,118.27986 514.24938,118.27986 512.64988,118.27986 M 453.52616,53.047935 C 453.52616,53.047935 453.52616,83.176585 453.52616,84.786285 L 424.79787,84.786285 C 424.79787,83.176585 424.79787,53.047935 424.79787,53.047935 L 404.00958,53.047935 L 404.00958,134.87091 L 424.79787,134.87091 C 424.79787,134.87091 424.79787,102.76492 424.79787,101.14374 L 453.52616,101.14374 C 453.52616,102.76492 453.52616,134.87091 453.52616,134.87091 L 474.31571,134.87091 L 474.31571,53.047935 L 453.52616,53.047935 M 389.02952,116.35741 C 381.34353,119.2564 376.3472,120.26742 369.87265,120.26742 C 356.41292,120.26742 351.17148,112.98226 351.17148,94.236435 C 351.17148,74.679997 356.26866,67.417823 369.98371,67.417823 C 376.3472,67.417823 381.91158,68.561598 388.57381,71.205285 L 389.71757,71.671223 L 389.71757,54.736785 L 389.17376,54.524873 C 382.92132,52.22586 376.6574,51.171435 369.4399,51.171435 C 358.23452,51.171435 348.69503,54.358935 341.8541,60.422448 C 333.29241,67.97311 329.30582,78.745748 329.30582,94.347498 C 329.30582,107.57361 332.01588,117.03525 337.8458,124.09829 C 344.64205,132.22722 355.33681,136.5138 368.78503,136.5138 C 376.31401,136.5138 383.543,134.9692 389.67288,132.0268 L 390.15031,131.81617 L 390.15031,115.93615 L 389.02952,116.35741 M 299.82182,85.840698 C 299.83331,85.85346 298.5236,85.286685 298.5236,85.286685 C 290.14956,81.643473 289.81638,81.509423 287.82882,80.08866 C 285.08556,78.134298 284.17541,76.61266 284.17541,74.069823 C 284.17541,69.59431 287.86202,67.306773 295.15738,67.306773 C 301.61023,67.306773 306.32957,68.417348 313.82536,71.760585 L 315.00231,72.271198 L 315.00231,55.169535 L 314.44701,54.957623 C 307.24101,52.303723 301.21068,51.171435 294.29191,51.171435 C 275.6801,51.171435 265.01981,60.233523 265.01981,76.045885 C 265.01981,87.950798 270.32762,94.792998 283.98648,100.4225 C 298.48913,106.53069 299.86651,108.06252 299.86651,112.52655 C 299.86651,117.73479 295.53523,120.37847 287.00675,120.37847 C 279.65522,120.37847 274.0921,118.90153 265.78572,114.7477 L 264.56408,114.13752 L 264.56408,131.2494 L 265.05171,131.49448 C 272.76962,135.07005 279.51096,136.5138 288.31775,136.5138 C 308.67327,136.5138 319.88886,127.45172 319.88886,110.98321 C 319.88886,98.50131 314.82488,92.160798 299.82182,85.840698"
     id="SCHENKER"
     style="fill:#000000;fill-opacity:1;fill-rule:nonzero;stroke:none" /><path
     d="M 69.114953,134.85942 L 34.211323,134.85942 L 34.211323,38.35636 L 69.114953,38.35636 C 93.701534,38.35636 106.87226,53.992573 106.87226,86.162385 C 106.87226,114.09157 98.099054,134.6373 69.114953,134.85942 z M 84.273214,88.172923 C 84.273214,68.728823 82.285674,53.558548 61.652223,53.558548 L 57.032733,53.558548 L 57.032733,119.21174 L 65.161673,119.21174 C 77.232784,119.21174 84.273214,109.39522 84.273214,88.172923 M 153.85708,134.85942 L 116.97726,134.85942 L 116.97726,38.35636 L 155.62381,38.35636 C 173.84626,38.35636 183.71893,45.963198 183.71893,64.052898 C 183.71893,73.436673 176.03423,80.133348 167.69466,84.375235 C 179.33277,87.717198 187.22811,94.881073 187.22811,106.92897 C 187.22811,126.59645 170.98172,134.85942 153.85708,134.85942 z M 139.58676,76.556498 L 147.49487,76.556498 C 154.95746,76.556498 160.44271,73.215823 160.44271,64.94136 C 160.44271,55.780998 153.41285,53.326223 145.95026,53.326223 L 139.58676,53.326223 L 139.58676,76.556498 z M 163.07491,106.486 C 163.07491,96.657998 156.93351,94.42536 147.9391,94.42536 L 139.58676,94.42536 L 139.58676,119.21174 L 147.7157,119.21174 C 155.84465,119.21174 163.07491,116.53612 163.07491,106.486 M 192.50273,12.903648 L 26.515764,12.903648 C 15.111252,12.903648 5.6719566,22.05381 5.6719566,33.892335 L 5.6719566,139.10132 C 5.6719566,150.93857 15.111252,160.32235 26.515764,160.32235 L 192.50273,160.32235 C 203.69661,160.32235 213.14676,150.93857 213.14676,139.10132 L 213.14676,33.892335 C 213.14676,22.05381 203.69661,12.903648 192.50273,12.903648 z M 197.98925,139.10132 C 197.98925,142.45477 195.7898,145.14315 192.50273,145.14315 L 26.515764,145.14315 C 23.228701,145.14315 20.818743,142.45477 20.818743,139.10132 L 20.818743,33.892335 C 20.818743,30.537623 23.228701,27.862023 26.515764,27.862023 L 192.50273,27.862023 C 195.7898,27.862023 197.98925,30.537623 197.98925,33.892335 L 197.98925,139.10132"
     id="DB"
     style="fill:#ff0000;fill-opacity:1;fill-rule:nonzero;stroke:none" /></svg>