<?xml version="1.0" encoding="utf-8"?>
<!-- Generator: Adobe Illustrator 14.0.0, SVG Export Plug-In . SVG Version: 6.00 Build 43363)  -->
<!DOCTYPE svg PUBLIC "-//W3C//DTD SVG 1.1//EN" "http://www.w3.org/Graphics/SVG/1.1/DTD/svg11.dtd">
<svg version="1.1" id="Ebene_1" xmlns="http://www.w3.org/2000/svg" xmlns:xlink="http://www.w3.org/1999/xlink" x="0px" y="0px"
	 width="1024px" height="279px" viewBox="0 0 1024 279" enable-background="new 0 0 1024 279" xml:space="preserve">
<polyline fill="#E2001A" points="1023,11.421 504.25,11.421 484.189,51.78 505.544,94.156 1023,94.156 "/>
<path fill-rule="evenodd" clip-rule="evenodd" fill="#1A171B" d="M78.377,9.811c0.086,5.273-0.157,11.839-0.734,16.942
	c-0.695,6.621-2.494,12.945-4.262,19.104c-1.716,5.922-4.079,11.578-6.667,17.112c-2.271,4.544-4.765,9.015-7.69,13.243
	c-0.771,1.215-1.591,2.399-2.436,3.56c-0.462,0.796-1.816,2.466-1.935,2.563c-2.202,2.733-4.449,5.528-6.938,8.024
	c-2.393,2.515-5.622,5.09-8.328,7.216c-3.21-2.047-10.967-9.968-15.189-15.508c-1.755-2.296-5.506-7.982-6.6-9.743
	c-3.359-5.382-6.214-10.977-8.486-16.796c-2.25-5.491-4.403-13.042-5.318-17.021c-1.785-7.751-2.226-12.143-2.518-18.91
	c-0.024-0.893-0.455-6.166-0.188-9.786 M26.033,36.673c2.293,0.334,4.471,0.893,6.886,0.917c0.701,0,1.139-0.674,1.84-0.699
	c0.891,0.024,1.717,0.219,2.582,0.268c2.73,0.286,5.513-0.104,8.174-0.438c1.524-0.17,3.191-0.17,4.713,0.091
	c0.289,0.055,0.604,0.267,0.748,0.534c1.306,2.132,2.854,4.161,4.789,5.801c2.13,1.841,3.888,4.228,4.642,6.84
	c0.261,1.5-0.393,2.898-1.525,3.772L14.986,37.608c0.602-1.081,1.641-1.008,2.464-1.421C20.378,35.439,23.202,36.454,26.033,36.673z
	 M72.959,15.229c0,0-0.058,0.681-0.058,1.087c-0.098,7.642-1.1,13.498-2.928,22.02c-0.735,3.438-1.911,6.694-2.949,10.035
	c-0.872,2.296-1.628,5.188-2.792,7.362L62.358,55c0,0-0.018-1.409-0.218-2.132c-0.453-2.466-0.721-5.054-0.721-7.642
	c-0.023-0.602-0.652-0.917-0.972-1.428c-2.05-2.654-1.978-6.19-2.873-9.349c0.024-0.777,0.938-0.802,1.425-1.111
	c1.716-0.681,3.769-2.083,3.945-4.113c0.261-2.199-0.924-3.912-1.066-6.014c0.17-1.701,0.771-3.268,2.129-4.428
	c0.72-0.632,1.449-1.306,2.369-1.519c-0.072-0.662-0.701-0.438-1.114-0.462c-1.088,0.042-1.983,0.48-2.904,0.942
	c-1.883,1.233-3.383,3.213-3.14,5.583c0.072,1.81,0.777,3.334,1.163,5.029c0.31,1.598-0.511,2.971-1.768,3.942
	c-0.602,0.31-1.14,0.863-1.884,0.699c-1.861-1.039-4.088-1.136-6.165-1.67c-2.998-0.602-6.041-1.136-9.039-1.737
	c-2.561-0.48-5.148-0.869-7.587-1.573c-0.778-0.504-1.482-1.16-2.227-1.762c-2.104-1.81-4.231-3.487-6.26-5.394
	c-0.944-0.845-1.89-1.834-3.289-1.64c-1.14-0.097-2.272,0.048-2.874,1.111c-0.194,0.292-0.461,0.553-0.802,0.602
	c-1.352,0.024-2.657-0.073-3.939,0.073c-0.747,0.462,0.024,1.257,0.076,1.865c0.504,1.136,1.811,1.087,2.825,1.379
	c1.136,0.237,2.175,0.748,3.338,0.912c0.99,0.607,1.47,1.622,2.247,2.472c1.307,1.834,2.974,3.475,4.062,5.437
	c-1.212,0.723-2.227,0.82-3.192,1.039c-3.332,0.601-6.867,0.729-10.175,1.33c-0.896,0.146-1.644,0.553-2.516,0.747l-2.617-0.941
	c-0.404-1.446-0.198-1.185-0.602-3.529c-1.203-6.998-1.464-8.905-1.607-16.499L72.959,15.229z M62.021,60.855
	c-0.665,1.628-1.087,2.114-2.05,3.809L11.503,46.477c-0.544-1.331-1.27-3.693-1.507-5.024L62.021,60.855z M56.946,69.5
	c-1.087,2.126-4.279,6.573-4.279,6.573c-1.425,1.956-4.757,6.281-5.023,6.457c-1.576,1.834-3.269,3.718-4.96,5.437
	c-0.869,0.82-1.871,2.078-3.08,2.922c-1.789-1.208-3.444-3.092-4.969-4.665c-2.706-3.068-5.294-5.819-7.538-9.136
	c-0.99-1.209-1.841-2.491-2.731-3.796c-2.153-3.384-4.23-6.719-5.946-10.266c-1.307-1.986-2.035-4.234-3.074-6.36
	c-0.482-0.923-1.1-2.661-1.485-3.608L56.946,69.5z"/>
<path fill="#1A171B" d="M210.541,16.451c4.14,5.825,2.199,14.366,2.585,21.479h-13.844c-0.486-8.377,1.293-12.422-2.98-14.749
	c-1.713-0.905-4.983-0.583-6.238,0.134c-1.98,1.063-1.85,2.587-2.11,4.264l-0.062,49.562c0,1.944,0.231,3.208,1.687,4.793
	c1.679,1.16,3.557,1.968,7.438,0.674c1.78-0.966,2.005-3.778,2.267-5.333V64.336h13.582c-0.124,9.185,0.972,22.974-4.911,27.044
	c-5.051,4.793-9.999,5.339-17.245,4.823c-7.444-0.486-14.562-4.046-16.532-10.388l-0.517-4.531V22.276
	c0.547-6.147,5.562-10.223,10.481-11.906C193.067,7.782,205.104,7.91,210.541,16.451"/>
<path fill="#1A171B" d="M159.938,12.441c2.781,1.585,5.691,5.145,5.952,9.349l0.064,16.827h-14.555V26.802
	c-0.972-4.368-6.634-3.165-7.764-3.074c-1.686,0.261-2.071,0.88-2.979,2.43c-0.901,2.588-0.255,6.476-0.386,9.707
	c0,0,18.373,20.313,24.064,26.005c2.588,4.277,1.458,11.202,1.555,15.533c0.158,7.053-2.587,12.684-7.76,16.183
	c-6.345,3.104-15.788,3.104-22.394,0.516c-5.176-2.205-9.188-7.38-9.573-13.072V67.307h14.074c0.188,2.849-0.482,10.126,0.55,12.817
	c1.425,2.715,5.045,2.193,7.764,1.938c0.907-0.127,2.037-0.583,2.523-2.199c0.386-3.165,0.194-10.746,0.194-10.746
	s-15.401-15.654-23.165-24.456c-3.496-5.692-1.619-12.362-2.071-20.702c0.616-5.728,4.38-10.46,8.541-12.034
	c4.689-1.78,8.738-1.78,17.473-1.688C155.025,10.273,157.479,11.402,159.938,12.441"/>
<polyline fill="#1A171B" points="262.205,94.259 247.976,94.259 247.936,57.089 234.866,56.828 234.866,94.259 220.959,94.259 
	221.022,11.761 234.866,11.761 234.866,42.595 248.136,42.462 248.136,11.761 262.175,11.761 "/>
<path fill="#1A171B" d="M281.78,11.761c2.071,12.167,6.469,37.043,6.469,37.043l7.438-37.043h15.05l7.86,37.043l6.054-37.043h14.068
	l-11.481,82.499h-13.752l-10.16-47.782l-9.901,47.782H280l-11.812-82.499"/>
<polyline fill="#1A171B" points="375.737,11.761 375.668,24.864 359.428,24.864 359.428,43.786 373.797,43.786 373.727,56.895 
	359.428,56.956 359.428,81.806 375.607,81.806 375.607,94.259 345.028,94.259 345.028,11.761 "/>
<polyline fill="#1A171B" points="431.896,11.761 431.896,94.259 415.721,94.259 398.739,48.676 398.705,94.259 384.467,94.259 
	384.5,11.761 401.327,11.761 417.014,53.335 417.081,11.761 "/>
<polyline fill="#1A171B" points="457.975,11.761 457.944,44.436 473.954,11.761 490.133,11.761 470.072,51.78 491.427,94.259 
	475.448,94.095 458.36,60.455 458.427,94.259 443.706,94.259 443.706,11.761 "/>
<path fill="#1A171B" d="M698.201,149.665c-2.26,7.605-8.771,13.267-12.446,20.174l-1.288,3.796c3.098,2.546,5.759-3.122,8.347-3.65
	c0.838-0.766,1.081-2.527,2.673-2.296c4.714-4.933,9.828-8.079,15.295-12.016c1.16-0.754,3.73-0.645,4.495,0.2
	c1.228,5.029-1.421,10.533-4.021,14.913c-1.179,1.239-1.13,3.65-2.005,5.376c0.577,1.476,2.958,2.06,4.288,0.996
	c12.138-5.734,22.938-13.941,35.166-18.065c0.93,0.844-0.541,1.264-0.565,1.901c-5.023,4.604-11.639,5.278-16.17,9.737
	c-7.818,2.552-16.96,13.395-25.039,10.794c-4.55-6.305,2.132-12.112,3.188-17.853l-0.212-2.575
	c-6.038,2.302-9.452,6.81-14.288,10.939c-4.482,3.171-7.52,10.272-14.056,9.179c-2.345-1.385-1.58-4.246-1.173-6.312
	c2.503-9.366,8.911-16.474,12.981-24.972C694.732,148.067,697.199,146.889,698.201,149.665"/>
<path fill="#1A171B" d="M485.921,152.277c-0.043,0.966-1.373,2.028-0.125,2.885c0.298,0.498,0.954,0.201,1.437,0.225
	c1.999-1.676,2.142-4.89,5.613-3.45c1.658,6.014-6.023,9.058-5.182,15.673c-1.157,0.753-2.6,0.692-3.852-0.164
	c-0.261-1.294-1.494-2.479-0.944-4.058c-1.233-1.179-4.118-1.307-3.852-3.7c0.137-3.207,2.648-5.509,4.368-8.164
	C484.181,151.718,485.492,151.135,485.921,152.277"/>
<path fill="#1A171B" d="M534.019,165.301c-0.115,2.563-2.12,4.24-4.392,4.944c-2.199-1.221-4.544,1.088-5.261,2.661
	c-1.275,3.639-2.764,8.237,0.14,11.572c1.331,2.63,5.638,3.298,3.712,6.906c-3.256,4.835-9.671,4.556-15.733,3.645
	c-1.421-0.54-2.995-1.409-3.742-2.728c-0.109-1.123,0.571-2.059,1.556-2.339c2.855,0.766,5.479,3.293,9.233,1.847
	c1.281,0.055,3.414-0.978,4.118-2.387c-3.894-2.746-6.22-8.304-5.188-13.559c0.741-6.074,4.969-10.861,10.339-12.562
	C530.538,164.025,533.302,163.339,534.019,165.301"/>
<path fill="#1A171B" d="M519.956,167.257c-2.83,2.442-7.35,2.892-10.679,5.637c-3.669,3.05-5.601,6.822-8.489,10.394
	c0.567,1.792-1.081,2.68-1.935,3.925c-2.394,3.268-0.073,8.99-5.528,8.911c-2.937-2.691-0.206-6.433,0.41-9.452
	c1.883-6.348,8.501-10.873,9.765-17.726c1.376-2.022,2.601-0.687,4.501-0.121C511.622,166.893,517.223,163.764,519.956,167.257"/>
<path fill="#1A171B" d="M280.353,199.835c-0.695,1.257,0.176,3.383-2.202,2.636c-1.212-1.658-1.573-4.41-4.137-4.52
	c-3.657,2.733-3.888,8.024-5.989,12.106c-2.938,4.696-1.485,11.821-1.051,16.656c-0.062,1.44-0.784,3.178-2.394,3.433
	c-4.307-0.832-10.956-3.05-12.019-8.073c-1.579-4.252,0.504-7.849,3.347-10.46c1.567,0.874,2.169-1.835,2.861,0.613
	c0.03,3.05-3.092,4.684-2.104,7.775c0.841,2.764,2.682,4.774,5.215,5.691l0.832-0.771c0.337-11.39,0.553-23.581,8.453-31.751
	c1.321-0.747,3.092-0.832,4.361-0.449C277.989,195.078,279.526,196.749,280.353,199.835"/>
<path fill-rule="evenodd" clip-rule="evenodd" fill="#1A171B" d="M157.24,190.766c0.616,0.668-1.075,2.521,0.225,2.253
	c6.035,1.549,14.576,0.96,16.501,8.273c-1.728,10.206-12.619,13.104-20.216,17.908c1.792,3.128,4.419,1.798,7.11,2.722
	c2.221,0.577,4.574,1.962,5.625,3.62c0.186,10.442-11.775,12.173-18.375,16.219c-4.69,0.76-10.066,2.454-15.099,3.682
	c-1.397,2.502-3.083,4.355-5.965,4.069c-2.661-5.254-9.403-1.536-13.896-1.725c-2.861-0.614-7.433,1.117-9.698-2.193
	c-1.006-2.776,2.271-4.233,3.909-4.969c3.277-1.464,0.993,2.934,3.705,3.371c6.096,0.268,9.941,0.438,15.603-0.443
	c2.697-2.934,3.365-7.24,5.598-10.515c1.765-3.614,3.229-7.727,4.845-11.669c3.757-1.446,0.54-4.957,2.113-7.939
	c1.179-1.239,1.431-3.317,3.372-3.706c1.816-4.744,5.339-8.128,6.682-13.2c-7.146-1.761-13.935,2.758-20.086,3.937
	c-2.244-0.097-4.908,2.035-7.353,2.892c-3.794,2.248-7.402,4.016-9.023,7.958c-1.003,0.917-2.926,0.838-3.846-0.17
	c-1.264-0.535-2.002-2.018-1.619-3.438c4.896-5.412,12.475-6.038,18.415-9.641c1.118,0.049,2.904-0.353,3.751-1.275
	c7.277-1.294,14.275-3.396,21.838-3.705c1.822-1.209,1.604-3.621,2.949-5.012C156.083,187.819,157.31,189.161,157.24,190.766
	 M169.334,200.77l-0.13,2.88c-6.481,8.717-15.46,15.715-26.37,15.398c0.344-4.161,4.933-6.208,6.713-10.145
	c0.23-1.604,1.579-3.152,2.588-4.228c2.368-2.782,2.345-9.537,7.757-8.334C163.214,197.447,167.369,197.951,169.334,200.77z
	 M162.397,227.127c-2.363,6.318-8.888,8.602-13.819,11.281c-5.176,0.734-10.321,4.531-15.703,2.69
	c0.386-5.127,3.642-9.641,5.449-14.385c4.13-2.703,10.32-0.996,15.192-2.065C156.07,224.922,160.259,224.625,162.397,227.127z"/>
<path fill-rule="evenodd" clip-rule="evenodd" fill="#1A171B" d="M204.873,199.749c6.084,11.506-6.581,18.346-6.071,28.642
	c2.91,3.184,4.404-1.573,7.296-1.604c5.929-6.968,10.293-14.974,14.821-23.126c0.812-0.127,1.644-0.729,2.594-0.528
	c3.08,6.719-3.888,11.718-4.808,18.103c0.599,1.147-0.125,2.885,0.468,4.033c4.777,1.015,7.433-4.653,10.445-7.411
	c3.247-4.52,5.585-10.199,10.394-13.68c0.622,0.511,2.238,0.255,1.858,1.524c1.631,6.816-5.015,11.827-3.04,18.176
	c1.674,2.162,5.261,0.874,6.797,2.551c-2.189,2.309-4.701,0.911-7.313,1.926c-2.378-0.747-4.213-2.916-4.902-5.352
	c-0.13-0.814,0.237-1.756-0.225-2.26l-0.802-0.036c-3.899,4.652-7.42,8.03-12.34,10.387c-2.391-0.431-4.748-1.658-5.917-4.276
	c0.213-1.117-0.076-1.932-0.689-2.6c-4.125,2.551-6.238,6.791-11.153,8.99c-2.159,1.664-4.877,1.391-6.895-0.304
	c-0.731-1.641-1.454-3.433-3.004-4.793c-4.167,3.518-6.15,8.565-11.368,10.266c-1.601-0.066-2.608,0.851-4.183,0.14
	c-4.334-3.724-1.74-7.945-1.36-12.901c4.528-11.688,11.159-23.771,23.387-28.059C201.277,197.502,204.002,197.63,204.873,199.749
	 M202.459,203.497c-0.766,6.555-4.72,12.483-9.124,17.756c-1.501,1.222-3.092,4.52-5.774,3.438c0.043-0.96-0.717-1.956-1.506-2.314
	c-1.616,0.249-0.738,2.218-1.118,3.487c1.081,1.014,0.374,2.587,0.471,4.033c-1.983,1.202-3.259,4.677-6.257,3.42
	c-2.159-5.716,2.267-11.299,3.937-16.529c5.4-6.031,9.443-14.044,18.309-14.621L202.459,203.497z"/>
<path fill-rule="evenodd" clip-rule="evenodd" fill="#1A171B" d="M311.175,170.828c-0.784,3.178-2.992,5.972-5.021,8.292
	c-3.745,8.511-13.665,14.986-11.284,26.649c6.254,0.273,13.58-1.975,17-6.81c4.118-2.388,7.417-8.024,13.264-5.838
	c3.557,3.201,4.908,9.045,3.384,14.434c-2.552,6.955-6.539,13.691-14.175,15.763c-3.074,0.511-6.202-1.391-8.019-4.039
	c-1.431-3.918,0.055-8.511,0.547-12.508c-4.475-0.517-8.031,3.669-13.124,2.643c-2.379,6.64-4.948,13.917-10.625,18.971
	c-1.12-0.049-1.281-0.055-2.235-0.419c-2.226-4.112,0.848-8.316,2.434-11.457c0.361-4.641,5.561-9.713-0.226-13.34
	c-0.267-4.829-0.209-9.81,3.138-12.871c1.646-1.058,3.757-1.446,5.474-0.243l1.995,2.011c3.645-2.569,4.504-7.509,6.919-11.263
	c2.588-4.058,4.429-9.439,7.961-13.139C311.032,166.649,311.561,169.237,311.175,170.828 M290.959,195.965
	c-0.101,2.399-0.659,4.143-2.029,6.014c-0.465-0.34-1.118-0.048-1.418-0.547c0.592-2.545,0.051-4.816,1.434-7.004
	C290.733,193.863,290.175,195.606,290.959,195.965z M324.436,198.066c1.513,5.844-1.023,12.483-4.252,16.517
	c-1.707,2.339-4.387,4.787-7.418,4.332c-1.733-0.711-1.959-2.971-2.037-4.745c-0.226-5.952,5.193-8.602,6.867-13.831
	C319.739,198.984,321.626,196.336,324.436,198.066z"/>
<path fill-rule="evenodd" clip-rule="evenodd" fill="#1A171B" d="M487.621,214.377c-0.137,0.024-0.267,0.066-0.403,0.109
	c-0.024-0.043-0.049-0.079-0.079-0.115 M345.004,214.377c-1.151,2.521-2.309,5.036-3.46,7.563c-1.437,3.469-1.015,8.475-5.533,9.075
	c-2.707-0.601-4.997,0.426-7.876,0.14c-0.848-2.77,2.269-4.239,2.542-6.797c1.039-3.444,2.509-6.761,4.101-9.999l-2.974,0.019
	c-2.071,4.489-4.328,8.924-6.418,13.443c-0.544,1.421-0.213,4.805-2.794,5.181l-14.232,2.267c-3.502-0.796-5.498,0.887-7.895,0.455
	c-3.141,2.114-7.599,1.275-11.021,2.412c-1.531,1.864-3.526-0.152-5.641,0.395c-0.641-0.024-1.182,1.391-1.94,0.4
	c-5.37,1.531-10.986,1.446-16.362,3.141c-12.947,2.327-28.307,4.544-41.097,6.877c-7.475,2.083-15.053,2.715-21.896,4.829
	c-11.937,1.245-22.835,4.459-33.993,6.221c-7.302,1.609-15.247,3.353-21.89,4.665c-4.921-1.337-7.988,2.703-12.653,2.824
	c-8.246,1.403-18.373,5.297-27.002,4.119c-1.306,0.583-3.396,0.649-3.01,2.758c1.877,1.208,2.071,4.106,4.97,3.911
	c2.843-2.605,7.963-2.064,11.721-3.505c5.229-2.181,11.8-1.73,17.19-3.905c4.89,2.138,10.421-3.238,15.235-3.031
	c21.255-5.012,40.213-8.839,62.066-12.708c11.663-2.375,25.242-4.355,37.097-7.368c4.368-0.62,10.172-1.167,14.91-3.044
	c3.794,1.446,6.831-1.956,10.643-0.983c8.617-2.352,19.253-3.171,28.341-5.353c4.826-0.103,7.942-1.579,12.79-2.332
	c6.481-1.318,0.933,4.38,3.207,7.532c1.066,1.336,2.87,0.449,3.709-0.322c0.707-1.573,0.304-3.358-0.28-4.665
	c0.368-1.111,0.435-2.558,1.264-3.158c2.612-1.009,6.618-0.833,9.553-1.829c0.947,0.358,0.425,1.3,0.562,1.95
	c-1.923,3.608-4.373,8.158-3.128,12.714c0.926,0.845,2.523,1.075,3.355,0.304c1.822-1.203,0.635-3.505,0.231-5.127
	c0.646-3.827,1.579-6.834,3.004-9.992c13.114-2.473,27.496-4.423,40.259-6.105c13.118-2.484,26.952-3.001,39.269-5.516
	c1.598,0.073,1.352,2.15,1.313,2.946c0.926,0.845,1.3,3.433,3.24,3.037c4.256-1.743-0.428-4.841,2.065-6.821
	c6.618-0.668,14.221-1.944,20.981-2.296c2.719,0.285,5.513-1.203,7.733-0.462l0.993-0.76c9.473,0.092,18.405-2.247,27.271-2.988
	c0.446,0.128,0.89,0.024,1.312-0.128l-19.611,0.019c-3.253,0.364-6.569,0.862-10.029,1.604c-9.938-0.438-18.892,2.229-28.229,2.788
	c-0.607-1.506,0.021-2.958,0.38-4.416l-2.867,0.024c-0.361,1.063-0.695,2.156-1.002,3.268c-0.887,2.048-3.942,2.078-5.859,1.841
	c-6.506,1.798-14.381,1.938-20.514,2.637c-10.356,1.792-22.654,3.984-34.405,4.44c-6.406-0.285-11.539,3.183-17.944,2.745
	l-2.054-0.729c0.659-5.31,3.354-9.622,5.225-14.221L345.004,214.377z"/>
<path fill-rule="evenodd" clip-rule="evenodd" fill="#1A171B" d="M392.573,186.264l-1.108,3.171
	c-4.596,2.363-8.024,7.192-14.755,6.895c0-3.687,3.781-5.606,6.135-8.079c2.958-1.476,5.467-3.778,9.16-3.778 M465.225,214.377
	c8.48-1.021,16.535-1.245,25.659-2.94c2.706,0.602,4.373-0.765,7.259-0.644c47.303-5.644,91.16-9.513,137.254-13.279
	c5.929,0.262,11.438-0.625,17.361-0.37c15.849-2.357,33.507-2.229,50.606-3.894c11.937-1.239,24.942-1.154,38.811-2.32
	c4.325,0.194,9.026-0.888,13.838-0.675c-1.27,3.316-5.018,0.747-7.781,1.743c-13.395,1.501-26.419,1.737-39.758,1.962
	c-2.035,2.479-4.167-0.34-6.488,1.482c-2.217-0.741-4.98-0.055-8.03-0.03c-12.72,0.571-25.774,1.762-39.958,2.916
	c-7.702-0.183-14.36,1.458-22.105,2.247c-2.375-0.747-5.935,0.062-8.353,0.116c-4.848,0.589-10.448,0.182-14.536,1.773
	c-7.198-0.638-13.206,0.862-20.587,0.704c-2.922,0.675-5.175,0.899-7.611,1.434c-3.007-1.093-5.704,1.841-8.364,0.28
	c-4.404,1.573-10.46,0.504-15.192,2.229c-3.335-0.953-6.312,1.167-9.811,0.371c-3.693-0.158-6.348,1.811-10.156,0.687
	c-3.329,2.903-8.662-0.061-12.283,1.864c-5.625,0.079-13.559,1.659-19.378,2.369c-6.457,0.353-12.118,0.116-18.002,1.963
	l-0.479,0.012c-0.607-0.862-1.419-0.328-2.3-0.012L465.225,214.377z M465.367,182.328c-3.924,3.699-5.883,9.33-4.547,15.106
	c2.309,2.357,4.678-0.431,7.253-0.644c3.192-3.073,6.85-5.965,8.778-9.737c1.591-1.562,2.885-3.056,4.285-4.726h4.446
	c-0.403,6.014-6.679,11.796-4.024,18.266l-2.481,1.652c-2.973-1.737-1.995-5.704-2.518-8.462l-1.442-0.061
	c-2.907,4.052-6.533,6.142-11.277,8.183c-2.569,0.048-5.774-0.249-7.417-3.056c-2.238-3.948,0.219-8.669,0.871-12.653
	c0.896-1.105,1.507-2.49,2.178-3.882L465.367,182.328z M442.794,182.328c-5.527,10.211-11.486,20.556-15.277,31.162
	c-0.036,0.291-0.097,0.577-0.167,0.862l-2.873,0.024c3.271-9.78,8.665-17.98,12.571-27.937c-0.298-0.492-0.896-1.482-1.697-1.519
	c-4.374,0.771-9.35,8.104-13.112,2.32c2.624-2.576,6.175-3.797,9.813-4.914H442.794z M350.012,182.328
	c-1.33,2.526-2.581,5.096-3.851,7.374c1.309,3.269,5.114,0.547,7.684,0.656c0.884-1.89,2.904-0.353,3.925-1.598
	c1.232-2.126,2.414-4.289,3.602-6.427l2.949-0.006c-0.58,0.856-1.103,1.737-1.57,2.636c1.689,1.835,3.08-0.668,4.973,0.219
	c0.871,2.12-1.692,2.011-2.385,3.104c-1.938,0.236-4.875,1.232-5.765,3.286c-0.564,1.901,1.734,0.717,2.339,1.549
	c8.31-2.169,17.978-3.499,23.351-10.801l11.092,0.007c0.328,0.413,0.659,0.826,0.987,1.257c0.55,9.501-9.409,13.236-16.453,16.304
	c-2.772,1.003-7.532-0.327-8.203,3.979c-0.262,2.399-0.393,5.284,1.977,6.189c4.417,1.962,10.552,1.264,14.813-0.802
	c2.928-0.832,6.107-3.742,8.78-2.509c-5.616,3.608-11.729,7.521-18.798,7.532c-3.984-0.655-9.813,0.377-11.021-4.98
	c-1.543-5.2,2.208-10.175,3.234-15.277c-1.853-1.683-3.6,1.609-5.54,1.847c-4.96,3.164-14.023,1.16-14.065,9.506
	c-2.32,1.671-1.674,5.23-3.538,7.399c-0.188,0.534-0.386,1.057-0.599,1.585l-2.922,0.019c2.934-6.481,5.795-13.006,8.167-19.712
	c0.501-0.462,1.947-0.401,1.521-1.701l-0.304-0.498c-4.355,0.456-7.869,3.669-11.806,5.589c-1.959,5.4-5.075,10.739-7.806,16.304
	l-2.974,0.019c2.333-5.097,4.429-10.266,5.777-15.739c-1.386-1.343-4.347,0.134-5.392-1.677c-0.432-1.147-0.337-3.231,1.267-3.164
	c2.739-0.195,8.149,0.844,9.442-2.959c0.45-3.049,2.005-5.771,3.479-8.498L350.012,182.328z"/>
<path fill-rule="evenodd" clip-rule="evenodd" fill="#1A171B" d="M481.14,182.328c0.672-0.803,1.367-1.641,2.133-2.546
	c1.637-0.564,1.555,1.197,2.332,1.877c0,0.213-0.006,0.438-0.024,0.656 M432.055,182.328c3.11-0.96,6.287-1.841,9.018-3.42
	c3.642-2.412,3.025-6.773,5.719-9.55c6.455-11.76,13.845-22.84,24.48-31.053c2.439-0.692,3.809,1.136,4.687,3.099
	c0.18,3.219-0.318,7.21-2.979,9.342c-3.031-0.449-0.723-5.491-3.784-5.303c-7.414,4.337-10.81,12.216-16.058,18.412
	c-1.786,4.1-4.362,7.842-7.247,11.407c0.233,1.938,3.152,1.422,4.304,0.833c5.555-2.169,12.577-1.222,16.787-5.692
	c0.96,0.2,2.26-0.225,2.843,1.088c-0.155,3.529-2.412,7.44-4.322,10.733c-0.042,0.042-0.088,0.079-0.131,0.121l-5.904-0.018
	c0.735-1.531,1.531-3.062,2.843-4.259c0.046-0.96,0.268-2.399-1.021-2.296c-6.66,1.64-12.176,3.001-18.254,6.11
	c-0.082,0.146-0.164,0.292-0.243,0.438L432.055,182.328z M385.26,182.328c0.094-0.128,0.179-0.256,0.273-0.383
	c2.405-0.062,3.459-1.938,5.877-2.314c2.195-0.03,3.608,1.136,4.944,2.715L385.26,182.328z M361.371,182.328
	c4.687-8.396,9.531-16.39,18.285-20.234c1.087,0.687,2.044,0.893,1.982,2.332c0.522,2.758-3.01,2.765-4.838,4.125
	c-4.033,4.35-9.115,8.771-12.48,13.777H361.371z M346.383,182.328c0.759-1.397,1.497-2.807,2.059-4.253
	c4.502-7.514,7.931-16.2,16.702-18.381c1.747,0.395,3.942,1.615,4.18,3.554c0.106,1.293-0.462,3.194-1.887,2.648
	c-0.901-1.324-2.345-1.392-3.787-1.452c-2.381,3.11-5.157,4.112-6.928,7.891c-2.609,2.569-4.741,6.245-6.707,9.986L346.383,182.328z
	"/>
<path fill-rule="evenodd" clip-rule="evenodd" fill="#1A171B" d="M591.381,135.366c-1.179,8.456-8.82,14.226-12.489,21.133
	c-7.362,10.436-11.001,23.934-16.037,36.076c3.736,2.897,5.576-2.484,9.075-1.688c4.617-2.849,12.004-2.849,16.341-6.512
	c1.094-6.536,2.648-12.732,7.192-17.52c4.592-5.904,9.313-10.988,17.228-11.937c2.642,2.048,3.663,4.338,2.867,7.837
	c-3.171,6.444-10.303,11.596-16.851,14.366c-2.078-0.098-5.425-0.723-5.564,2.326c-0.286,2.873-1.416,6.84,1.068,8.717
	c2.229,0.419,4.496-0.121,5.528-1.53c2.77-0.839,5.57-2.484,7.981-2.533c-2.6,4.38-8.504,7.168-14.147,7.732
	c-3.201-0.304-4.282-5.011-8.085-2.605c-5.886,2.473-11.596,4.477-17.98,7.24c-2.654,1.975-6.391,2.94-9.258,2.333
	c-2.6-3.007,1.877-6.178,1.556-9.89c2.526-6.159,5.369-12.61,7.727-18.618c6.159-12.422,13.218-23.192,19.997-35.099
	C588.563,133.634,590.968,133.731,591.381,135.366 M611.025,159.991c-0.23,5.127-5.782,7.296-8.492,10.388
	c-1.287,0.268-2.466,1.337-4.052,0.948c-0.929-4.374,4.319-6.877,6.664-9.35C606.652,160.763,608.924,160.223,611.025,159.991z"/>
<path fill-rule="evenodd" clip-rule="evenodd" fill="#1A171B" d="M637.426,140.262c-8.134,9.604-14.239,20.738-17.993,33.106
	c0.292,0.649-0.765,2.696,0.82,3.243c2.982-2.277,4.41-5.431,8.62-6.044l8.334-7.187c5.012-0.583,10.484-8.219,14.883-2.235
	c0.947,4.052-0.924,6.379-1.884,9.871c0.577,1.628,2.673,1.397,3.669,0.638c5.164-7.963,9.854-19.645,20.617-19.814
	c2.843,1.087,1.264,4.233,1.16,6.633c-3.833,6.901-10.733,10.297-16.856,14.524c-1.665,1.379-0.814,3.821-1.057,5.734
	c0.862,2.448,2.794,2.375,4.689,3.092c4.301,0.675,7.313-2.09,11.311-1.749l-0.024,0.802c-5.552,2.005-11.542,6.725-17.641,3.086
	c-5.078-1.507-0.097-8.996-6.057-8.62c-0.103-1.124-1.84-1.847-2.217-0.741c-5.546,5.704-11.207,13.966-18.758,17.659
	c-3.566,0.808-5.881-1.385-8.188-3.572c-0.741-1.64-1.392-5.042-4.495-3.888c-4.058-2.588,0.534-8.492,0.54-12.35
	c3.493-13.661,9.41-27.852,19.591-36.563C638.556,136.137,638.276,138.858,637.426,140.262 M647.023,163.011
	c0.383,9.652-6.798,15.921-12.684,21.929c-2.624,1.324-3.748,4.976-7.229,3.857c-2.807-2.047-2.952-6.068-2.648-9.111
	C631.788,173.423,636.86,164.013,647.023,163.011z M671.917,156.08c1.093,2.308-7.119,10.952-10.376,10.144
	C660.569,164.754,669.238,154.998,671.917,156.08z"/>
<rect x="1.003" y="102.114" fill="#1A171B" width="1021.973" height="2.916"/>
<rect x="1" y="0.517" fill="#1A171B" width="1021.97" height="2.916"/>
</svg>
