<?xml version="1.0" encoding="utf-8"?>
<!-- Generator: Adobe Illustrator 16.0.4, SVG Export Plug-In . SVG Version: 6.00 Build 0)  -->
<!DOCTYPE svg PUBLIC "-//W3C//DTD SVG 1.1//EN" "http://www.w3.org/Graphics/SVG/1.1/DTD/svg11.dtd">
<svg version="1.1" id="Ebene_1" xmlns="http://www.w3.org/2000/svg" xmlns:xlink="http://www.w3.org/1999/xlink" x="0px" y="0px"
	 width="680.315px" height="396.851px" viewBox="0 0 680.315 396.851" enable-background="new 0 0 680.315 396.851"
	 xml:space="preserve">
<polygon fill="#66676C" points="590.455,168.424 557.465,138.374 516.588,138.374 549.578,168.424 516.592,198.473 557.467,198.473 
	590.455,168.424 "/>
<path fill-rule="evenodd" clip-rule="evenodd" fill="#AFE600" d="M575.035,145.236l7.533-6.862h40.877l-27.973,25.479
	L575.035,145.236L575.035,145.236z M595.473,172.996l27.969,25.477h-40.875l-7.531-6.859L595.473,172.996L595.473,172.996z"/>
<g>
	<path fill="#AFE600" d="M257.397,159.293c-3.034-0.373-9.519-0.452-12.04-0.452h-7.061c-2.521,0-9.006,0.079-12.041,0.452
		c-14.425,1.77-23.135,10.722-23.135,27.534v11.402c0,4.57,0.644,8.56,1.871,11.986h0.001c3.288,9.164,10.761,14.26,21.263,15.549
		c3.035,0.372,9.52,0.451,12.041,0.451h7.061c2.521,0,9.005-0.079,12.04-0.451c10.504-1.289,17.978-6.386,21.265-15.549v-0.004
		c1.227-3.422,1.871-7.412,1.871-11.982v-11.402C280.533,170.015,271.823,161.063,257.397,159.293z M266.498,198.23
		c0,4.798-1.014,9.102-4.356,11.986v0.003c-1.825,1.575-4.344,2.729-7.77,3.311c-2.49,0.422-5.508,0.645-9.014,0.645h-7.061
		c-3.506,0-6.524-0.223-9.014-0.645c-3.426-0.581-5.945-1.735-7.77-3.313h-0.003c-3.34-2.887-4.353-7.189-4.353-11.986v-11.402
		c0-7.418,2.424-13.654,12.126-15.299c2.49-0.422,5.508-0.645,9.014-0.645h7.061c3.506,0,6.524,0.223,9.014,0.645
		c9.702,1.645,12.126,7.88,12.126,15.299V198.23z"/>
	<path fill="#AFE600" d="M133.749,210.223c3.345,8.966,10.767,13.959,21.148,15.232c3.034,0.372,9.519,0.452,12.04,0.452
		l31.462-0.007v-12.037l-31.462,0.002c-3.506,0-6.524-0.223-9.014-0.646c-3.198-0.542-5.605-1.583-7.396-3.004h-0.004
		c-3.638-2.884-4.726-7.323-4.726-12.295v-10.475c0-7.418,2.423-13.654,12.126-15.299c2.49-0.422,5.508-0.645,9.014-0.645
		l31.462,0.001v-12.037l-31.462-0.007c-2.521,0-9.006,0.08-12.04,0.452c-14.425,1.77-23.135,10.722-23.135,27.534v10.475
		c0,4.714,0.684,8.81,1.987,12.295"/>
	<path fill="#AFE600" d="M111.03,210.222c-1.293,2.134-3.917,3.495-7.466,3.495l-47.046-0.004v12.181h46.279
		c13.782,0,21.197-6.44,22.717-15.673h0.001c0.196-1.194,0.294-2.435,0.294-3.714v-0.33c0-11.169-7.444-19.387-23.012-19.387
		l-24.034,0.004c-5.162,0-8.367-2.879-8.367-6.831v-1.562c0-3.952,3.205-6.831,8.367-6.831l44.329,0.004v-12.181H79.53
		c-15.568,0-23.012,8.217-23.012,19.388v0.329c0,11.17,7.444,19.387,23.012,19.387l24.034-0.004c5.163,0,8.367,2.879,8.367,6.832
		v1.562c0,1.235-0.313,2.365-0.901,3.33"/>
	<path fill="#AFE600" d="M355.705,186.822c-0.213-16.41-8.885-25.162-23.131-26.91c-3.035-0.372-9.52-0.452-12.04-0.452
		l-31.462,0.007v12.037l31.462-0.001c3.506,0,6.524,0.223,9.014,0.645c9.429,1.599,11.984,7.533,12.121,14.675h-32.695
		c-15.257,0.16-22.554,8.325-22.554,19.385v0.329c0,1.267,0.096,2.495,0.288,3.68l0,0c1.505,9.249,8.922,15.707,22.724,15.707
		h46.279l-0.002-15.707L355.705,186.822z M301.175,210.214c-0.574-0.962-0.879-2.079-0.879-3.299v-1.562
		c0-3.952,3.205-6.831,8.367-6.831l33.001,0.002v11.691v3.527l-33.001,0.003c-3.569,0-6.203-1.376-7.488-3.53"/>
	<path fill="#AFE600" d="M484.9,159.912c-3.033-0.372-9.52-0.452-12.039-0.452l-20.324,0.004V138.37h-14.045v71.846v15.707h14.045
		v-15.706v-0.001v-38.713l20.324-0.001c3.506,0,6.523,0.223,9.014,0.645c9.701,1.645,12.125,7.88,12.125,15.299v22.77v15.707h14.035
		v-15.707v-22.77C508.035,170.633,499.326,161.682,484.9,159.912z"/>
	<path fill="#AFE600" d="M365.229,210.223c3.344,8.966,10.766,13.959,21.146,15.232c3.035,0.372,9.52,0.452,12.041,0.452
		l31.461-0.007v-12.037l-31.461,0.002c-3.508,0-6.525-0.223-9.014-0.646c-3.199-0.542-5.605-1.583-7.396-3.004h-0.005
		c-3.637-2.884-4.726-7.323-4.726-12.295v-10.475c0-7.418,2.424-13.654,12.127-15.299c2.488-0.422,5.506-0.645,9.014-0.645
		l31.461,0.001v-12.037l-31.461-0.007c-2.521,0-9.006,0.08-12.041,0.452c-14.426,1.77-23.135,10.722-23.135,27.534v10.475
		c0,4.714,0.684,8.81,1.988,12.295"/>
</g>
</svg>
