<?xml version="1.0" standalone="no"?>
<!DOCTYPE svg PUBLIC "-//W3C//DTD SVG 20010904//EN"
 "http://www.w3.org/TR/2001/REC-SVG-20010904/DTD/svg10.dtd">
<svg version="1.0" xmlns="http://www.w3.org/2000/svg"
 width="468pt" height="58pt" viewBox="0 0 468 58"
 preserveAspectRatio="xMidYMid meet">
<metadata>
Created by potrace 1.9, written by Peter Selinger 2001-2010
</metadata>
<g transform="translate(0,58) scale(0.078000,-0.078000)"
fill="#000000" stroke="none">
<path d="M524 685 c-10 -26 6 -35 61 -35 43 0 56 4 65 19 5 11 10 22 10 25 0
3 -29 6 -65 6 -48 0 -67 -4 -71 -15z"/>
<path d="M680 675 l0 -25 110 0 110 0 0 25 0 25 -110 0 -110 0 0 -25z"/>
<path d="M920 692 c0 -4 6 -16 13 -26 10 -13 24 -17 67 -14 47 3 55 6 55 23 0
18 -8 20 -67 23 -38 2 -68 -1 -68 -6z"/>
<path d="M4175 693 c-26 -7 -65 -33 -65 -44 0 -5 29 -9 65 -9 l65 0 0 30 c0
31 -13 36 -65 23z"/>
<path d="M4280 695 c0 -3 7 -17 16 -30 15 -23 22 -25 105 -25 l89 0 0 30 0 30
-105 0 c-58 0 -105 -2 -105 -5z"/>
<path d="M5060 694 c-65 -21 -100 -37 -100 -45 0 -12 137 -12 145 1 9 15 -4
50 -18 49 -7 0 -19 -3 -27 -5z"/>
<path d="M5157 694 c-4 -4 -7 -18 -7 -31 0 -22 3 -23 75 -23 41 0 75 4 75 9 0
18 -129 58 -143 45z"/>
<path d="M123 678 c-38 -18 -26 -28 36 -28 50 0 59 3 64 20 5 18 0 20 -36 19
-23 0 -52 -5 -64 -11z"/>
<path d="M272 670 c11 -18 24 -20 105 -20 86 0 93 1 93 20 0 19 -7 20 -105 20
-103 0 -105 0 -93 -20z"/>
<path d="M1172 673 c3 -16 18 -18 117 -21 101 -2 113 -1 107 13 -3 9 -6 19 -6
21 0 2 -50 4 -111 4 -100 0 -110 -2 -107 -17z"/>
<path d="M1625 680 c-44 -4 -60 -9 -60 -20 0 -12 18 -15 105 -15 89 0 105 2
108 16 2 14 -7 18 -45 20 -26 2 -75 2 -108 -1z"/>
<path d="M1830 680 c-7 -4 -10 -15 -7 -24 5 -13 22 -16 82 -16 41 0 75 4 75 9
0 21 -125 46 -150 31z"/>
<path d="M3812 682 c-15 -2 -22 -9 -20 -20 3 -15 18 -17 108 -17 98 0 105 1
105 20 0 18 -7 19 -85 20 -47 0 -95 -1 -108 -3z"/>
<path d="M5464 675 c-3 -8 -3 -18 0 -23 4 -6 130 -8 244 -2 1 0 -2 9 -8 20
-10 18 -21 20 -121 20 -87 0 -111 -3 -115 -15z"/>
<path d="M5750 676 c0 -24 24 -31 105 -30 74 0 80 2 83 22 3 21 0 22 -92 22
-75 0 -96 -3 -96 -14z"/>
<path d="M2980 660 c0 -20 5 -21 108 -18 87 2 107 6 107 18 0 12 -20 16 -107
18 -103 3 -108 2 -108 -18z"/>
<path d="M3240 660 c0 -19 7 -20 108 -20 60 0 111 3 115 6 3 3 3 12 0 20 -4
11 -30 14 -114 14 -102 0 -109 -1 -109 -20z"/>
<path d="M3512 663 c3 -16 17 -18 123 -18 106 0 120 2 123 18 3 15 -8 17 -123
17 -115 0 -126 -2 -123 -17z"/>
<path d="M4580 660 c0 -19 7 -20 105 -20 98 0 105 1 105 20 0 19 -7 20 -105
20 -98 0 -105 -1 -105 -20z"/>
<path d="M2402 658 c3 -9 32 -13 106 -13 140 0 139 19 -1 23 -85 2 -108 0
-105 -10z"/>
<path d="M2662 659 c3 -9 23 -15 59 -17 67 -4 56 15 -15 24 -39 6 -48 4 -44
-7z"/>
<path d="M75 629 c-11 -16 -6 -17 80 -19 101 -3 100 -3 85 15 -15 18 -155 22
-165 4z"/>
<path d="M310 626 c0 -19 22 -24 98 -24 54 0 62 2 62 19 0 17 -8 19 -80 19
-63 0 -80 -3 -80 -14z"/>
<path d="M525 630 c-12 -19 6 -30 50 -30 39 0 55 11 55 36 0 9 -99 3 -105 -6z"/>
<path d="M690 632 c-6 -2 -10 -10 -10 -18 0 -11 22 -14 110 -14 89 0 110 3
110 14 0 12 -21 15 -100 18 -55 2 -105 2 -110 0z"/>
<path d="M952 618 c5 -15 97 -18 101 -3 1 6 -22 11 -52 13 -40 2 -52 0 -49
-10z"/>
<path d="M1182 618 c3 -9 37 -14 117 -16 88 -2 112 0 109 10 -3 9 -37 14 -117
16 -88 2 -112 0 -109 -10z"/>
<path d="M1565 620 c-4 -6 -5 -13 -3 -15 2 -2 51 -5 108 -6 84 -1 105 1 105
12 0 18 -199 26 -210 9z"/>
<path d="M1825 620 c-14 -23 10 -30 101 -30 86 0 95 2 92 18 -3 14 -17 17 -95
20 -55 2 -94 -1 -98 -8z"/>
<path d="M2405 619 c-11 -17 1 -22 50 -21 25 0 70 1 100 1 42 1 55 5 55 16 0
12 -18 15 -99 15 -60 0 -102 -4 -106 -11z"/>
<path d="M2660 616 c0 -9 23 -15 82 -19 88 -7 104 -3 74 19 -27 19 -156 20
-156 0z"/>
<path d="M2992 622 c-7 -2 -12 -9 -12 -15 0 -8 32 -12 105 -12 91 0 105 2 105
17 0 14 -13 16 -93 15 -51 0 -99 -3 -105 -5z"/>
<path d="M3255 620 c-13 -20 5 -24 116 -25 92 0 109 2 107 15 -3 12 -25 16
-110 18 -69 2 -109 -1 -113 -8z"/>
<path d="M3525 619 c-12 -19 3 -22 103 -22 102 0 136 8 111 24 -20 13 -206 11
-214 -2z"/>
<path d="M3795 620 c-13 -21 6 -25 108 -24 80 1 102 4 102 15 0 18 -199 26
-210 9z"/>
<path d="M4089 613 c-9 -11 0 -13 52 -15 35 0 79 -1 96 -2 36 -1 41 5 19 23
-20 17 -153 12 -167 -6z"/>
<path d="M4330 621 c0 -18 21 -23 88 -23 54 -1 68 3 70 16 3 14 -8 16 -77 16
-45 0 -81 -4 -81 -9z"/>
<path d="M4580 613 c0 -16 9 -18 68 -17 136 3 142 3 142 19 0 12 -18 15 -105
15 -93 0 -105 -2 -105 -17z"/>
<path d="M4941 621 c-55 -15 -28 -26 63 -26 94 0 124 8 96 25 -17 11 -123 11
-159 1z"/>
<path d="M5155 620 c-13 -21 6 -25 100 -22 82 3 95 6 84 18 -14 17 -174 20
-184 4z"/>
<path d="M5470 615 c0 -13 21 -15 131 -15 116 0 130 2 119 15 -10 12 -38 15
-131 15 -99 0 -119 -3 -119 -15z"/>
<path d="M5780 615 c0 -12 15 -15 81 -15 60 0 80 3 77 13 -3 8 -31 13 -81 15
-64 2 -77 0 -77 -13z"/>
<path d="M60 575 c0 -12 19 -15 110 -15 93 0 109 2 104 15 -5 12 -27 15 -110
15 -86 0 -104 -3 -104 -15z"/>
<path d="M342 578 c3 -8 28 -14 66 -16 51 -2 62 0 62 13 0 12 -13 15 -66 15
-48 0 -65 -3 -62 -12z"/>
<path d="M525 579 c-9 -14 -5 -17 35 -21 27 -2 35 1 38 15 3 13 -4 17 -32 17
-19 0 -38 -5 -41 -11z"/>
<path d="M682 573 c3 -16 15 -18 108 -18 87 0 105 3 105 15 0 12 -20 16 -108
18 -100 2 -108 1 -105 -15z"/>
<path d="M978 584 c-15 -15 6 -34 39 -34 27 0 34 4 31 18 -3 17 -57 30 -70 16z"/>
<path d="M1192 568 c3 -9 37 -14 111 -16 91 -2 107 0 107 13 0 13 -18 15 -111
15 -84 0 -110 -3 -107 -12z"/>
<path d="M1560 565 c0 -13 18 -15 111 -15 84 0 110 3 107 13 -3 8 -37 13 -111
15 -91 2 -107 0 -107 -13z"/>
<path d="M1820 565 c0 -13 18 -15 111 -15 84 0 110 3 107 13 -3 8 -37 13 -111
15 -91 2 -107 0 -107 -13z"/>
<path d="M2400 565 c0 -12 18 -15 105 -15 87 0 105 3 105 15 0 12 -18 15 -105
15 -87 0 -105 -3 -105 -15z"/>
<path d="M2660 565 c0 -12 17 -15 106 -15 80 0 105 3 102 13 -3 8 -36 13 -106
15 -86 2 -102 0 -102 -13z"/>
<path d="M2980 565 c0 -12 18 -15 105 -15 87 0 105 3 105 15 0 12 -18 15 -105
15 -87 0 -105 -3 -105 -15z"/>
<path d="M3270 565 c0 -12 19 -15 115 -15 98 0 114 2 109 15 -5 12 -27 15
-115 15 -90 0 -109 -3 -109 -15z"/>
<path d="M3540 565 c0 -12 17 -15 95 -15 78 0 95 3 95 15 0 12 -17 15 -95 15
-78 0 -95 -3 -95 -15z"/>
<path d="M3790 565 c0 -13 15 -15 108 -13 63 2 107 7 107 13 0 6 -44 11 -107
13 -93 2 -108 0 -108 -13z"/>
<path d="M4077 573 c-19 -18 3 -23 114 -23 107 0 120 2 109 15 -10 12 -36 15
-115 15 -56 0 -105 -3 -108 -7z"/>
<path d="M4372 568 c3 -8 27 -14 61 -16 46 -2 57 0 57 13 0 12 -13 15 -61 15
-44 0 -60 -3 -57 -12z"/>
<path d="M4580 565 c0 -12 18 -15 105 -15 87 0 105 3 105 15 0 12 -18 15 -105
15 -87 0 -105 -3 -105 -15z"/>
<path d="M4886 565 c-5 -13 11 -15 104 -15 91 0 110 3 110 15 0 12 -18 15
-104 15 -83 0 -105 -3 -110 -15z"/>
<path d="M5150 565 c0 -12 20 -15 116 -15 102 0 115 2 104 15 -10 12 -36 15
-116 15 -86 0 -104 -3 -104 -15z"/>
<path d="M5492 568 c3 -10 39 -14 132 -16 100 -2 127 0 124 10 -3 10 -39 14
-132 16 -100 2 -127 0 -124 -10z"/>
<path d="M5800 565 c0 -13 11 -15 68 -13 37 2 67 8 67 13 0 6 -30 11 -67 13
-57 2 -68 0 -68 -13z"/>
<path d="M60 525 c0 -13 20 -15 126 -15 96 0 125 3 122 13 -3 8 -40 13 -126
15 -104 2 -122 0 -122 -13z"/>
<path d="M380 525 c7 -9 29 -15 51 -15 28 0 39 4 39 15 0 11 -12 15 -51 15
-45 0 -50 -2 -39 -15z"/>
<path d="M520 524 c0 -11 8 -14 27 -12 39 4 42 28 4 28 -21 0 -31 -5 -31 -16z"/>
<path d="M680 525 c0 -13 18 -15 111 -15 84 0 110 3 107 13 -3 8 -37 13 -111
15 -91 2 -107 0 -107 -13z"/>
<path d="M992 528 c7 -20 58 -23 58 -4 0 11 -10 16 -31 16 -20 0 -29 -4 -27
-12z"/>
<path d="M1227 533 c-16 -2 -26 -10 -24 -16 2 -8 39 -13 110 -15 90 -2 107 0
107 13 0 12 -14 15 -62 15 -35 0 -72 2 -83 4 -11 2 -33 1 -48 -1z"/>
<path d="M1130 520 c0 -5 5 -10 10 -10 6 0 10 5 10 10 0 6 -4 10 -10 10 -5 0
-10 -4 -10 -10z"/>
<path d="M1560 515 c0 -13 16 -15 107 -13 74 2 108 7 111 16 3 9 -23 12 -107
12 -93 0 -111 -2 -111 -15z"/>
<path d="M1820 515 c0 -12 19 -15 110 -15 91 0 110 3 110 15 0 12 -19 15 -110
15 -91 0 -110 -3 -110 -15z"/>
<path d="M2400 515 c0 -12 18 -15 105 -15 87 0 105 3 105 15 0 12 -18 15 -105
15 -87 0 -105 -3 -105 -15z"/>
<path d="M2660 515 c0 -13 18 -15 116 -15 88 0 115 3 112 13 -3 8 -38 13 -116
15 -95 2 -112 0 -112 -13z"/>
<path d="M2980 515 c0 -12 18 -15 105 -15 87 0 105 3 105 15 0 12 -18 15 -105
15 -87 0 -105 -3 -105 -15z"/>
<path d="M3280 515 c0 -13 18 -15 116 -15 88 0 115 3 112 13 -3 8 -38 13 -116
15 -95 2 -112 0 -112 -13z"/>
<path d="M3550 515 c0 -12 16 -15 80 -15 64 0 80 3 80 15 0 12 -16 15 -80 15
-64 0 -80 -3 -80 -15z"/>
<path d="M3790 515 c0 -12 18 -15 105 -15 87 0 105 3 105 15 0 12 -18 15 -105
15 -87 0 -105 -3 -105 -15z"/>
<path d="M4080 515 c0 -13 20 -15 131 -15 100 0 130 3 127 13 -3 8 -41 13
-131 15 -109 2 -127 0 -127 -13z"/>
<path d="M4402 518 c3 -7 23 -14 46 -16 33 -2 42 0 42 12 0 12 -11 16 -46 16
-32 0 -44 -4 -42 -12z"/>
<path d="M4580 515 c0 -12 18 -15 105 -15 87 0 105 3 105 15 0 12 -18 15 -105
15 -87 0 -105 -3 -105 -15z"/>
<path d="M4866 515 c-5 -14 9 -15 117 -13 159 4 163 22 6 26 -98 2 -118 0
-123 -13z"/>
<path d="M5150 515 c0 -12 20 -15 120 -15 100 0 120 3 120 15 0 13 -20 15
-120 15 -100 0 -120 -2 -120 -15z"/>
<path d="M5460 515 c0 -8 4 -15 10 -15 5 0 7 7 4 15 -4 8 -8 15 -10 15 -2 0
-4 -7 -4 -15z"/>
<path d="M5512 518 c3 -10 39 -14 132 -16 100 -2 127 0 124 10 -3 10 -39 14
-132 16 -100 2 -127 0 -124 -10z"/>
<path d="M5816 515 c5 -12 19 -15 63 -13 76 4 71 22 -6 26 -54 3 -62 1 -57
-13z"/>
<path d="M72 478 c4 -10 41 -14 142 -16 108 -2 137 0 134 10 -4 10 -41 14
-142 16 -108 2 -137 0 -134 -10z"/>
<path d="M420 475 c7 -8 21 -15 31 -15 11 0 19 7 19 15 0 10 -10 15 -31 15
-27 0 -30 -2 -19 -15z"/>
<path d="M520 475 c0 -8 6 -15 14 -15 8 0 16 7 20 15 4 10 -1 15 -14 15 -11 0
-20 -7 -20 -15z"/>
<path d="M670 475 c0 -12 19 -15 110 -15 91 0 110 3 110 15 0 12 -19 15 -110
15 -91 0 -110 -3 -110 -15z"/>
<path d="M1012 478 c7 -19 38 -22 38 -4 0 10 -9 16 -21 16 -12 0 -19 -5 -17
-12z"/>
<path d="M1117 483 c-13 -12 -7 -23 13 -23 11 0 20 7 20 15 0 15 -21 21 -33 8z"/>
<path d="M1217 484 c-19 -19 2 -24 104 -24 84 0 110 3 107 13 -5 13 -198 23
-211 11z"/>
<path d="M2478 482 c-60 -2 -78 -6 -78 -17 0 -12 20 -15 105 -15 83 0 105 3
105 14 0 17 -34 22 -132 18z"/>
<path d="M4607 482 c-24 -2 -37 -8 -34 -15 5 -15 196 -22 210 -8 6 6 8 13 5
16 -6 6 -129 11 -181 7z"/>
<path d="M4918 482 c-52 -2 -68 -6 -68 -17 0 -12 22 -15 119 -15 74 0 122 4
126 11 4 6 5 12 3 15 -7 6 -104 9 -180 6z"/>
<path d="M5178 482 c-41 -5 -34 -22 10 -23 82 -1 207 3 211 7 2 2 1 7 -3 12
-8 7 -165 10 -218 4z"/>
<path d="M5560 480 c-58 -11 -15 -19 113 -22 88 -2 117 0 117 10 0 6 -6 13
-12 13 -47 5 -189 4 -218 -1z"/>
<path d="M5851 482 c-28 -9 -6 -22 40 -22 27 0 48 4 45 9 -6 10 -67 19 -85 13z"/>
<path d="M1560 470 c0 -5 20 -10 44 -10 23 0 71 -3 105 -6 52 -6 61 -5 61 10
0 14 -14 16 -105 16 -63 0 -105 -4 -105 -10z"/>
<path d="M1820 465 c0 -13 16 -15 102 -13 70 2 103 7 106 16 3 9 -22 12 -102
12 -89 0 -106 -3 -106 -15z"/>
<path d="M2660 465 c0 -12 20 -15 120 -15 100 0 120 3 120 15 0 13 -20 15
-120 15 -100 0 -120 -2 -120 -15z"/>
<path d="M2977 474 c-17 -17 13 -24 109 -24 86 0 104 3 104 15 0 12 -18 15
-103 15 -57 0 -107 -3 -110 -6z"/>
<path d="M3292 468 c3 -9 38 -14 116 -16 95 -2 112 0 112 13 0 13 -18 15 -116
15 -88 0 -115 -3 -112 -12z"/>
<path d="M3562 468 c3 -8 28 -14 65 -16 47 -2 62 1 66 13 5 13 -5 15 -64 15
-52 0 -70 -3 -67 -12z"/>
<path d="M3790 465 c0 -12 18 -15 105 -15 87 0 105 3 105 15 0 12 -18 15 -105
15 -87 0 -105 -3 -105 -15z"/>
<path d="M4092 468 c4 -10 41 -14 142 -16 108 -2 137 0 134 10 -4 10 -41 14
-142 16 -108 2 -137 0 -134 -10z"/>
<path d="M4440 465 c7 -8 21 -15 31 -15 11 0 19 7 19 15 0 10 -10 15 -31 15
-27 0 -30 -2 -19 -15z"/>
<path d="M5460 470 c0 -5 7 -10 15 -10 8 0 15 5 15 10 0 6 -7 10 -15 10 -8 0
-15 -4 -15 -10z"/>
<path d="M95 441 c-10 -17 10 -20 153 -24 96 -2 132 0 132 9 0 18 -15 20 -151
23 -84 2 -129 -1 -134 -8z"/>
<path d="M450 436 c0 -9 5 -16 10 -16 6 0 10 4 10 9 0 6 -4 13 -10 16 -5 3
-10 -1 -10 -9z"/>
<path d="M516 435 c-3 -8 -1 -15 4 -15 6 0 10 7 10 15 0 8 -2 15 -4 15 -2 0
-6 -7 -10 -15z"/>
<path d="M2100 435 c0 -12 18 -15 105 -15 87 0 105 3 105 15 0 12 -18 15 -105
15 -87 0 -105 -3 -105 -15z"/>
<path d="M672 429 c2 -6 47 -12 111 -14 89 -4 107 -2 107 10 0 12 -20 15 -111
15 -74 0 -109 -4 -107 -11z"/>
<path d="M1030 430 c0 -5 5 -10 10 -10 6 0 10 5 10 10 0 6 -4 10 -10 10 -5 0
-10 -4 -10 -10z"/>
<path d="M1100 425 c0 -10 10 -15 30 -15 20 0 30 5 30 15 0 10 -10 15 -30 15
-20 0 -30 -5 -30 -15z"/>
<path d="M1220 425 c0 -12 19 -15 110 -15 91 0 110 3 110 15 0 12 -19 15 -110
15 -91 0 -110 -3 -110 -15z"/>
<path d="M1560 425 c0 -12 18 -15 105 -15 87 0 105 3 105 15 0 12 -18 15 -105
15 -87 0 -105 -3 -105 -15z"/>
<path d="M1827 433 c-19 -18 1 -24 80 -21 58 2 88 7 91 16 3 9 -18 12 -80 12
-47 0 -88 -3 -91 -7z"/>
<path d="M2397 434 c-17 -17 13 -24 109 -24 80 0 105 3 102 13 -5 13 -198 23
-211 11z"/>
<path d="M2657 434 c-19 -20 4 -24 124 -24 100 0 130 3 127 13 -5 13 -238 24
-251 11z"/>
<path d="M2977 434 c-19 -19 2 -24 104 -24 84 0 110 3 107 13 -5 13 -198 23
-211 11z"/>
<path d="M3310 425 c0 -12 19 -15 115 -15 98 0 114 2 109 15 -5 12 -27 15
-115 15 -90 0 -109 -3 -109 -15z"/>
<path d="M3580 425 c0 -11 12 -15 50 -15 38 0 50 4 50 15 0 11 -12 15 -50 15
-38 0 -50 -4 -50 -15z"/>
<path d="M3790 425 c0 -12 18 -15 105 -15 87 0 105 3 105 15 0 12 -18 15 -105
15 -87 0 -105 -3 -105 -15z"/>
<path d="M4117 434 c-18 -18 17 -24 150 -24 128 0 144 2 133 15 -10 12 -39 15
-145 15 -72 0 -135 -3 -138 -6z"/>
<path d="M4466 425 c4 -8 10 -15 15 -15 5 0 9 7 9 15 0 8 -7 15 -15 15 -9 0
-12 -6 -9 -15z"/>
<path d="M4577 434 c-19 -19 2 -24 104 -24 84 0 110 3 107 13 -5 13 -198 23
-211 11z"/>
<path d="M4850 425 c0 -13 21 -15 125 -15 104 0 125 2 125 15 0 13 -21 15
-125 15 -104 0 -125 -2 -125 -15z"/>
<path d="M5150 425 c0 -13 21 -15 125 -15 104 0 125 2 125 15 0 13 -21 15
-125 15 -104 0 -125 -2 -125 -15z"/>
<path d="M5460 426 c0 -11 9 -16 26 -16 31 0 28 23 -4 28 -15 2 -22 -2 -22
-12z"/>
<path d="M5560 425 c0 -13 20 -15 126 -15 96 0 125 3 122 13 -3 8 -40 13 -126
15 -104 2 -122 0 -122 -13z"/>
<path d="M5860 425 c0 -10 11 -15 35 -15 24 0 35 5 35 15 0 10 -11 15 -35 15
-24 0 -35 -5 -35 -15z"/>
<path d="M2125 401 c-64 -13 -27 -26 78 -29 101 -3 107 -2 107 17 0 18 -7 20
-77 19 -43 -1 -91 -4 -108 -7z"/>
<path d="M132 388 c4 -10 42 -14 147 -16 112 -2 142 0 139 10 -4 10 -42 14
-147 16 -112 2 -142 0 -139 -10z"/>
<path d="M670 385 c0 -13 18 -15 111 -15 84 0 110 3 107 13 -3 8 -37 13 -111
15 -91 2 -107 0 -107 -13z"/>
<path d="M1087 386 c-4 -10 6 -15 36 -18 48 -5 52 -4 44 17 -8 19 -73 21 -80
1z"/>
<path d="M5627 392 c-50 -3 -57 -5 -47 -18 18 -21 262 -21 254 0 -6 16 -99 24
-207 18z"/>
<path d="M1232 378 c3 -9 37 -14 111 -16 91 -2 107 0 107 13 0 13 -18 15 -111
15 -84 0 -110 -3 -107 -12z"/>
<path d="M1560 375 c0 -12 18 -15 105 -15 87 0 105 3 105 15 0 12 -18 15 -105
15 -87 0 -105 -3 -105 -15z"/>
<path d="M1820 376 c0 -11 9 -13 38 -9 80 13 89 21 25 22 -49 1 -63 -2 -63
-13z"/>
<path d="M2397 384 c-17 -17 13 -24 109 -24 86 0 104 3 104 15 0 12 -18 15
-103 15 -57 0 -107 -3 -110 -6z"/>
<path d="M2650 375 c0 -13 21 -15 130 -15 109 0 130 2 130 15 0 13 -21 15
-130 15 -109 0 -130 -2 -130 -15z"/>
<path d="M2970 375 c0 -13 15 -15 108 -13 63 2 107 7 107 13 0 6 -44 11 -107
13 -93 2 -108 0 -108 -13z"/>
<path d="M3322 378 c7 -20 232 -24 226 -6 -3 9 -37 14 -117 16 -88 2 -112 0
-109 -10z"/>
<path d="M3592 378 c7 -20 68 -23 68 -4 0 12 -10 16 -36 16 -24 0 -34 -4 -32
-12z"/>
<path d="M3787 384 c-17 -17 13 -24 109 -24 86 0 104 3 104 15 0 12 -18 15
-103 15 -57 0 -107 -3 -110 -6z"/>
<path d="M4152 378 c3 -10 44 -14 146 -16 124 -2 141 -1 136 13 -5 12 -30 15
-146 15 -107 0 -139 -3 -136 -12z"/>
<path d="M4570 375 c0 -13 16 -15 107 -13 74 2 108 7 111 16 3 9 -23 12 -107
12 -93 0 -111 -2 -111 -15z"/>
<path d="M4847 383 c-19 -19 4 -23 123 -23 109 0 130 2 130 15 0 13 -20 15
-123 15 -68 0 -127 -3 -130 -7z"/>
<path d="M5150 375 c0 -13 17 -15 128 -13 76 2 127 7 127 13 0 6 -51 11 -127
13 -111 2 -128 0 -128 -13z"/>
<path d="M5460 375 c0 -10 11 -15 35 -15 24 0 35 5 35 15 0 10 -11 15 -35 15
-24 0 -35 -5 -35 -15z"/>
<path d="M5882 378 c7 -20 48 -23 48 -4 0 11 -9 16 -26 16 -16 0 -24 -5 -22
-12z"/>
<path d="M2095 350 c-14 -23 11 -30 111 -30 97 0 104 1 104 20 0 19 -7 20
-104 20 -59 0 -108 -4 -111 -10z"/>
<path d="M60 335 c0 -8 9 -15 20 -15 11 0 20 7 20 15 0 8 -9 15 -20 15 -11 0
-20 -7 -20 -15z"/>
<path d="M170 335 c17 -20 284 -23 278 -2 -3 9 -44 13 -148 15 -127 2 -142 1
-130 -13z"/>
<path d="M670 335 c0 -12 19 -15 110 -15 91 0 110 3 110 15 0 12 -19 15 -110
15 -91 0 -110 -3 -110 -15z"/>
<path d="M1070 335 c0 -13 28 -15 195 -15 176 0 225 6 179 24 -26 10 -202 7
-209 -4 -3 -5 -17 -10 -30 -10 -13 0 -27 5 -30 10 -3 6 -28 10 -56 10 -37 0
-49 -4 -49 -15z"/>
<path d="M1565 342 c-3 -3 -5 -11 -5 -19 0 -10 24 -13 105 -13 87 0 105 3 105
15 0 12 -14 15 -62 16 -35 1 -80 3 -100 4 -21 1 -40 -1 -43 -3z"/>
<path d="M2667 342 c-9 -2 -17 -10 -17 -18 0 -21 245 -21 254 1 4 13 -8 15
-77 16 -45 1 -96 2 -113 3 -17 0 -38 0 -47 -2z"/>
<path d="M3373 342 c-21 -2 -33 -9 -33 -18 0 -11 21 -14 110 -14 91 0 110 3
110 15 0 11 -13 15 -52 16 -29 1 -64 2 -78 3 -14 0 -40 0 -57 -2z"/>
<path d="M4593 342 c-13 -2 -23 -10 -23 -18 0 -13 17 -15 105 -13 76 2 105 6
105 15 0 12 -133 23 -187 16z"/>
<path d="M5161 339 c-50 -19 -5 -30 115 -27 98 2 119 6 119 18 0 12 -19 15
-105 16 -58 1 -116 -2 -129 -7z"/>
<path d="M5465 340 c-10 -16 -6 -18 43 -23 35 -3 42 -1 40 12 -4 19 -72 28
-83 11z"/>
<path d="M5600 336 c0 -14 19 -16 132 -16 106 0 130 3 120 13 -9 8 -54 13
-132 15 -103 3 -120 1 -120 -12z"/>
<path d="M5900 336 c0 -9 7 -16 16 -16 9 0 14 5 12 12 -6 18 -28 21 -28 4z"/>
<path d="M1812 328 c6 -18 62 -25 56 -6 -6 18 -62 25 -56 6z"/>
<path d="M2390 325 c0 -13 16 -15 107 -13 74 2 108 7 111 16 3 9 -23 12 -107
12 -93 0 -111 -2 -111 -15z"/>
<path d="M2970 325 c0 -13 15 -15 108 -13 63 2 107 7 107 13 0 6 -44 11 -107
13 -93 2 -108 0 -108 -13z"/>
<path d="M3606 325 c4 -8 12 -15 19 -15 7 0 15 7 19 15 4 11 -1 15 -19 15 -18
0 -23 -4 -19 -15z"/>
<path d="M3790 325 c0 -12 18 -15 105 -15 87 0 105 3 105 15 0 12 -18 15 -105
15 -87 0 -105 -3 -105 -15z"/>
<path d="M4080 326 c0 -10 9 -16 21 -16 24 0 21 23 -4 28 -10 2 -17 -3 -17
-12z"/>
<path d="M4190 325 c17 -20 284 -23 278 -2 -3 9 -44 13 -148 15 -127 2 -142 1
-130 -13z"/>
<path d="M4842 328 c3 -9 41 -14 131 -16 109 -2 127 0 127 13 0 13 -20 15
-131 15 -100 0 -130 -3 -127 -12z"/>
<path d="M60 296 c0 -8 14 -16 38 -18 44 -6 49 -3 32 17 -16 19 -70 20 -70 1z"/>
<path d="M200 296 c0 -9 25 -15 83 -19 117 -10 197 -8 197 2 0 18 -18 21 -149
25 -102 4 -131 2 -131 -8z"/>
<path d="M2095 300 c-16 -26 9 -32 109 -27 55 3 102 6 104 6 1 1 2 8 2 16 0
12 -18 15 -104 15 -59 0 -108 -4 -111 -10z"/>
<path d="M670 285 c0 -12 18 -15 105 -15 87 0 105 3 105 15 0 12 -18 15 -105
15 -87 0 -105 -3 -105 -15z"/>
<path d="M1057 294 c-20 -20 11 -24 204 -24 164 0 210 3 207 13 -4 9 -55 13
-204 15 -110 1 -203 -1 -207 -4z"/>
<path d="M1557 294 c-19 -19 2 -24 104 -24 84 0 110 3 107 13 -5 13 -198 23
-211 11z"/>
<path d="M1820 290 c-8 -5 -12 -11 -10 -13 10 -8 100 -16 100 -9 0 28 -58 42
-90 22z"/>
<path d="M2397 294 c-19 -20 2 -24 101 -22 63 2 107 7 107 13 0 11 -197 20
-208 9z"/>
<path d="M2650 285 c0 -15 1 -15 183 -19 59 -1 81 9 56 25 -8 5 -65 9 -126 9
-94 0 -113 -3 -113 -15z"/>
<path d="M2976 293 c-22 -22 0 -29 99 -29 89 1 105 3 103 16 -3 12 -23 15 -99
17 -53 2 -99 0 -103 -4z"/>
<path d="M3350 285 c0 -12 20 -15 116 -15 102 0 115 2 104 15 -10 12 -36 15
-116 15 -86 0 -104 -3 -104 -15z"/>
<path d="M3793 293 c-38 -14 0 -23 98 -23 84 0 110 3 107 13 -3 8 -33 12 -99
13 -52 1 -100 -1 -106 -3z"/>
<path d="M4086 293 c-14 -15 -3 -23 30 -23 24 0 34 4 32 12 -5 13 -52 21 -62
11z"/>
<path d="M4222 294 c-36 -16 14 -24 139 -24 108 0 140 3 137 13 -3 9 -41 13
-134 14 -71 1 -135 -1 -142 -3z"/>
<path d="M4570 285 c0 -12 17 -15 106 -15 80 0 105 3 102 13 -3 8 -36 13 -106
15 -86 2 -102 0 -102 -13z"/>
<path d="M4856 292 c-18 -17 7 -22 120 -22 96 0 125 3 121 13 -3 8 -37 12
-120 13 -64 1 -118 -1 -121 -4z"/>
<path d="M5147 293 c-19 -18 4 -23 118 -23 104 0 125 2 125 15 0 12 -20 15
-118 15 -65 0 -122 -3 -125 -7z"/>
<path d="M5457 294 c-15 -15 8 -24 59 -24 41 0 54 4 54 15 0 11 -13 15 -53 15
-30 0 -57 -3 -60 -6z"/>
<path d="M5622 288 c3 -10 39 -14 132 -16 100 -2 127 0 124 10 -3 10 -39 14
-132 16 -100 2 -127 0 -124 -10z"/>
<path d="M5921 284 c0 -11 3 -14 6 -6 3 7 2 16 -1 19 -3 4 -6 -2 -5 -13z"/>
<path d="M60 245 c0 -12 13 -15 61 -15 54 0 60 2 49 15 -8 10 -30 15 -61 15
-37 0 -49 -4 -49 -15z"/>
<path d="M232 248 c3 -10 39 -14 132 -16 100 -2 127 0 124 10 -3 10 -39 14
-132 16 -100 2 -127 0 -124 -10z"/>
<path d="M664 249 c-13 -22 14 -29 112 -29 95 0 105 2 102 18 -3 15 -17 17
-106 18 -56 1 -105 -2 -108 -7z"/>
<path d="M1083 253 c-29 -3 -43 -9 -43 -19 0 -11 16 -14 75 -14 60 0 75 3 75
15 0 8 -9 15 -19 15 -11 0 -25 1 -33 3 -7 2 -32 2 -55 0z"/>
<path d="M1252 238 c3 -9 37 -14 117 -16 88 -2 112 0 109 10 -5 15 -232 24
-226 6z"/>
<path d="M1557 244 c-19 -19 2 -24 104 -24 84 0 110 3 107 13 -5 13 -198 23
-211 11z"/>
<path d="M1817 243 c-18 -17 -1 -23 64 -23 62 0 70 2 59 15 -13 15 -110 22
-123 8z"/>
<path d="M2390 235 c0 -12 18 -15 105 -15 87 0 105 3 105 15 0 12 -18 15 -105
15 -87 0 -105 -3 -105 -15z"/>
<path d="M2650 235 c0 -12 19 -15 115 -15 96 0 115 3 115 15 0 12 -19 15 -115
15 -96 0 -115 -3 -115 -15z"/>
<path d="M2970 235 c0 -12 18 -15 105 -15 87 0 105 3 105 15 0 12 -18 15 -105
15 -87 0 -105 -3 -105 -15z"/>
<path d="M3360 235 c0 -13 18 -15 116 -15 88 0 115 3 112 13 -3 8 -38 13 -116
15 -95 2 -112 0 -112 -13z"/>
<path d="M3787 244 c-19 -19 2 -24 104 -24 84 0 110 3 107 13 -5 13 -198 23
-211 11z"/>
<path d="M4080 235 c0 -12 13 -15 56 -15 49 0 55 2 44 15 -8 9 -30 15 -56 15
-32 0 -44 -4 -44 -15z"/>
<path d="M4252 238 c3 -9 41 -14 131 -16 109 -2 127 0 127 13 0 13 -20 15
-131 15 -100 0 -130 -3 -127 -12z"/>
<path d="M4567 244 c-17 -17 13 -24 109 -24 86 0 104 3 104 15 0 12 -18 15
-103 15 -57 0 -107 -3 -110 -6z"/>
<path d="M4860 235 c0 -13 19 -15 121 -15 92 0 120 3 117 13 -3 8 -39 13 -121
15 -100 2 -117 0 -117 -13z"/>
<path d="M5140 235 c0 -13 17 -15 117 -13 82 2 118 7 121 16 3 9 -25 12 -117
12 -102 0 -121 -2 -121 -15z"/>
<path d="M5457 243 c-18 -17 -1 -23 63 -23 56 0 70 3 70 15 0 12 -14 15 -63
15 -35 0 -67 -3 -70 -7z"/>
<path d="M5642 238 c3 -10 39 -14 132 -16 100 -2 127 0 124 10 -3 10 -39 14
-132 16 -100 2 -127 0 -124 -10z"/>
<path d="M52 198 c3 -9 30 -14 82 -16 60 -2 77 0 74 10 -3 9 -30 14 -82 16
-60 2 -77 0 -74 -10z"/>
<path d="M270 195 c11 -13 32 -15 114 -13 140 4 131 22 -13 26 -103 2 -113 1
-101 -13z"/>
<path d="M667 203 c-19 -18 2 -23 103 -23 91 0 110 3 110 15 0 12 -18 15 -103
15 -57 0 -107 -3 -110 -7z"/>
<path d="M1026 195 c-4 -12 5 -15 53 -15 32 0 73 -3 90 -6 24 -5 31 -3 31 9 0
21 -22 27 -100 27 -51 0 -69 -4 -74 -15z"/>
<path d="M5502 203 c-83 -6 -61 -27 31 -31 64 -2 77 0 77 13 0 8 -6 15 -14 15
-8 0 -20 1 -28 3 -7 2 -37 2 -66 0z"/>
<path d="M1262 188 c3 -9 37 -14 111 -16 91 -2 107 0 107 13 0 13 -18 15 -111
15 -84 0 -110 -3 -107 -12z"/>
<path d="M1550 185 c0 -13 15 -15 108 -13 63 2 107 7 107 13 0 6 -44 11 -107
13 -93 2 -108 0 -108 -13z"/>
<path d="M1810 185 c0 -12 17 -15 91 -15 80 0 90 2 79 15 -9 11 -33 15 -91 15
-64 0 -79 -3 -79 -15z"/>
<path d="M2387 194 c-17 -17 13 -24 109 -24 86 0 104 3 104 15 0 12 -18 15
-103 15 -57 0 -107 -3 -110 -6z"/>
<path d="M2640 185 c0 -12 18 -15 99 -15 75 0 101 4 111 15 11 13 -1 15 -99
15 -92 0 -111 -3 -111 -15z"/>
<path d="M2967 193 c-19 -18 2 -23 103 -23 91 0 110 3 110 15 0 12 -18 15
-103 15 -57 0 -107 -3 -110 -7z"/>
<path d="M3376 185 c5 -12 27 -15 109 -15 82 0 104 3 109 15 5 13 -11 15 -109
15 -98 0 -114 -2 -109 -15z"/>
<path d="M3780 185 c0 -13 15 -15 108 -13 63 2 107 7 107 13 0 6 -44 11 -107
13 -93 2 -108 0 -108 -13z"/>
<path d="M4077 194 c-16 -16 10 -24 80 -24 66 0 74 2 63 15 -13 15 -129 22
-143 9z"/>
<path d="M4290 185 c10 -12 36 -15 116 -15 86 0 104 3 104 15 0 12 -20 15
-116 15 -102 0 -115 -2 -104 -15z"/>
<path d="M4560 185 c0 -13 16 -15 107 -13 74 2 108 7 111 16 3 9 -23 12 -107
12 -93 0 -111 -2 -111 -15z"/>
<path d="M4882 188 c3 -9 32 -13 106 -13 140 0 139 19 -1 23 -85 2 -108 0
-105 -10z"/>
<path d="M5140 185 c0 -12 18 -15 104 -15 83 0 105 3 110 15 5 13 -11 15 -104
15 -91 0 -110 -3 -110 -15z"/>
<path d="M5662 188 c3 -9 41 -14 131 -16 109 -2 127 0 127 13 0 13 -20 15
-131 15 -100 0 -130 -3 -127 -12z"/>
<path d="M52 148 c3 -9 33 -14 97 -16 72 -2 92 0 89 10 -3 9 -33 14 -97 16
-72 2 -92 0 -89 -10z"/>
<path d="M302 148 c7 -20 142 -23 158 -3 11 13 3 15 -75 15 -65 0 -86 -3 -83
-12z"/>
<path d="M660 145 c0 -12 19 -15 110 -15 91 0 110 3 110 15 0 12 -19 15 -110
15 -91 0 -110 -3 -110 -15z"/>
<path d="M1010 145 c0 -12 18 -15 100 -15 82 0 100 3 100 15 0 12 -18 15 -100
15 -82 0 -100 -3 -100 -15z"/>
<path d="M1270 146 c0 -12 21 -15 110 -18 94 -3 110 -1 108 12 -5 22 -218 28
-218 6z"/>
<path d="M2657 152 c-10 -2 -16 -9 -14 -15 6 -20 132 -22 159 -3 22 16 22 16
-12 17 -19 1 -53 2 -75 3 -22 1 -48 0 -58 -2z"/>
<path d="M3417 152 c-16 -2 -27 -8 -24 -15 5 -15 166 -22 180 -8 6 6 8 14 4
17 -7 7 -115 11 -160 6z"/>
<path d="M4372 152 c-36 -2 -52 -7 -49 -15 4 -14 156 -11 170 3 11 10 -51 16
-121 12z"/>
<path d="M4587 152 c-16 -2 -26 -8 -24 -15 5 -17 209 -17 214 0 4 12 -128 22
-190 15z"/>
<path d="M4956 150 c-72 -8 -39 -27 44 -25 99 3 105 4 93 16 -12 12 -72 17
-137 9z"/>
<path d="M5150 151 c-8 -5 -11 -13 -7 -17 10 -10 170 -4 182 7 5 5 7 9 5 10
-64 7 -169 8 -180 0z"/>
<path d="M5463 154 c-35 -15 -4 -24 78 -24 68 0 90 3 87 13 -5 12 -140 21
-165 11z"/>
<path d="M5685 150 c-12 -19 33 -26 134 -23 108 4 126 8 101 23 -19 12 -228
12 -235 0z"/>
<path d="M1552 138 c3 -7 40 -12 106 -14 84 -3 102 -1 102 11 0 12 -20 15
-106 15 -76 0 -105 -3 -102 -12z"/>
<path d="M1807 144 c-17 -18 14 -24 115 -24 97 0 109 2 98 15 -10 11 -35 15
-110 15 -53 0 -100 -3 -103 -6z"/>
<path d="M2382 138 c3 -9 34 -13 108 -13 74 0 105 4 107 13 4 9 -22 12 -107
12 -85 0 -111 -3 -108 -12z"/>
<path d="M2960 135 c0 -13 16 -15 107 -13 74 2 108 7 111 16 3 9 -23 12 -107
12 -93 0 -111 -2 -111 -15z"/>
<path d="M3780 135 c0 -12 18 -15 105 -15 87 0 105 3 105 15 0 12 -18 15 -105
15 -87 0 -105 -3 -105 -15z"/>
<path d="M4072 138 c3 -9 33 -14 97 -16 72 -2 92 0 89 10 -3 9 -33 14 -97 16
-72 2 -92 0 -89 -10z"/>
<path d="M58 114 c-5 -4 -8 -13 -8 -21 0 -10 26 -13 115 -13 107 0 134 7 103
26 -17 11 -201 18 -210 8z"/>
<path d="M363 112 c-38 -2 -53 -7 -53 -18 0 -18 53 -18 95 0 38 16 24 22 -42
18z"/>
<path d="M660 91 c0 -17 11 -20 89 -26 92 -7 131 2 131 30 0 12 -20 15 -110
15 -101 0 -110 -2 -110 -19z"/>
<path d="M995 100 c-14 -23 11 -30 116 -30 102 0 109 1 109 20 0 19 -7 20
-109 20 -63 0 -112 -4 -116 -10z"/>
<path d="M1280 90 c0 -19 6 -20 111 -20 100 0 110 2 107 18 -3 15 -18 17 -111
20 -102 3 -107 2 -107 -18z"/>
<path d="M1545 100 c-14 -23 11 -30 111 -30 97 0 104 1 104 20 0 19 -7 20
-104 20 -59 0 -108 -4 -111 -10z"/>
<path d="M1803 94 c-3 -8 -3 -17 -1 -20 3 -2 64 -3 136 -2 98 2 129 6 124 15
-5 7 -52 13 -130 17 -103 4 -124 2 -129 -10z"/>
<path d="M2387 103 c-19 -18 2 -23 98 -23 87 0 105 3 105 15 0 12 -18 15 -98
15 -54 0 -102 -3 -105 -7z"/>
<path d="M2640 94 c0 -14 8 -16 47 -10 72 10 78 26 10 26 -46 0 -57 -3 -57
-16z"/>
<path d="M2966 103 c-3 -4 -6 -12 -6 -20 0 -11 22 -13 108 -11 87 2 107 6 107
18 0 12 -19 15 -102 17 -55 1 -104 -1 -107 -4z"/>
<path d="M3407 104 c-16 -16 10 -24 79 -24 59 0 74 3 74 15 0 12 -15 15 -73
15 -41 0 -77 -3 -80 -6z"/>
<path d="M3784 99 c-14 -24 11 -30 103 -25 100 6 109 8 98 25 -8 14 -192 13
-201 0z"/>
<path d="M4077 103 c-4 -3 -7 -15 -7 -25 0 -16 10 -18 120 -18 66 0 120 4 120
8 0 5 -8 16 -18 25 -15 13 -39 17 -114 17 -52 0 -98 -3 -101 -7z"/>
<path d="M4340 91 c-15 -28 -13 -31 20 -31 32 0 100 29 100 42 0 4 -25 8 -55
8 -43 0 -56 -4 -65 -19z"/>
<path d="M4565 100 c-14 -22 9 -28 102 -27 84 2 98 4 101 20 3 15 -7 17 -97
17 -56 0 -103 -4 -106 -10z"/>
<path d="M4960 102 c0 -11 68 -32 104 -32 21 0 27 4 24 18 -3 14 -16 18 -66
20 -34 2 -62 -1 -62 -6z"/>
<path d="M5140 90 c0 -16 7 -20 30 -20 31 0 100 24 100 34 0 4 -29 6 -65 6
-58 0 -65 -2 -65 -20z"/>
<path d="M5457 104 c-19 -19 1 -24 94 -24 76 0 100 3 97 13 -5 13 -178 23
-191 11z"/>
<path d="M5702 98 c3 -9 37 -14 117 -16 88 -2 112 0 109 10 -7 19 -232 24
-226 6z"/>
</g>
</svg>
