<?xml version="1.0" encoding="UTF-8" standalone="no"?>
<!-- Created with Inkscape (http://www.inkscape.org/) -->

<svg
   xmlns:dc="http://purl.org/dc/elements/1.1/"
   xmlns:cc="http://creativecommons.org/ns#"
   xmlns:rdf="http://www.w3.org/1999/02/22-rdf-syntax-ns#"
   xmlns:svg="http://www.w3.org/2000/svg"
   xmlns="http://www.w3.org/2000/svg"
   xmlns:sodipodi="http://sodipodi.sourceforge.net/DTD/sodipodi-0.dtd"
   xmlns:inkscape="http://www.inkscape.org/namespaces/inkscape"
   id="svg3159"
   version="1.1"
   inkscape:version="0.91 r13725"
   xml:space="preserve"
   width="300"
   height="65.996315"
   viewBox="0 0 300 65.996312"
   sodipodi:docname="Trepel Airport Equipment logo.svg"><metadata
     id="metadata3165"><rdf:RDF><cc:Work
         rdf:about=""><dc:format>image/svg+xml</dc:format><dc:type
           rdf:resource="http://purl.org/dc/dcmitype/StillImage" /><dc:title></dc:title></cc:Work></rdf:RDF></metadata><defs
     id="defs3163"><clipPath
       clipPathUnits="userSpaceOnUse"
       id="clipPath3203"><path
         d="m 0,0 595.276,0 0,841.89 L 0,841.89 0,0 Z"
         id="path3205"
         inkscape:connector-curvature="0" /></clipPath><clipPath
       clipPathUnits="userSpaceOnUse"
       id="clipPath3235"><path
         d="m 0,0 595.276,0 0,841.89 L 0,841.89 0,0 Z"
         id="path3237"
         inkscape:connector-curvature="0" /></clipPath><clipPath
       clipPathUnits="userSpaceOnUse"
       id="clipPath3253"><path
         d="m 0,0 595.276,0 0,841.89 L 0,841.89 0,0 Z"
         id="path3255"
         inkscape:connector-curvature="0" /></clipPath><clipPath
       clipPathUnits="userSpaceOnUse"
       id="clipPath3281"><path
         d="m 0,0 595.276,0 0,841.89 L 0,841.89 0,0 Z"
         id="path3283"
         inkscape:connector-curvature="0" /></clipPath><clipPath
       clipPathUnits="userSpaceOnUse"
       id="clipPath3297"><path
         d="m 0,0 595.276,0 0,841.89 L 0,841.89 0,0 Z"
         id="path3299"
         inkscape:connector-curvature="0" /></clipPath><clipPath
       clipPathUnits="userSpaceOnUse"
       id="clipPath3315"><path
         d="m 0,0 595.276,0 0,841.89 L 0,841.89 0,0 Z"
         id="path3317"
         inkscape:connector-curvature="0" /></clipPath><clipPath
       clipPathUnits="userSpaceOnUse"
       id="clipPath3333"><path
         d="m 0,0 595.276,0 0,841.89 L 0,841.89 0,0 Z"
         id="path3335"
         inkscape:connector-curvature="0" /></clipPath></defs><sodipodi:namedview
     pagecolor="#ffffff"
     bordercolor="#666666"
     borderopacity="1"
     objecttolerance="10"
     gridtolerance="10"
     guidetolerance="10"
     inkscape:pageopacity="0"
     inkscape:pageshadow="2"
     inkscape:window-width="1215"
     inkscape:window-height="776"
     id="namedview3161"
     showgrid="false"
     fit-margin-top="0"
     fit-margin-left="0"
     fit-margin-right="0"
     fit-margin-bottom="0"
     inkscape:zoom="0.92187859"
     inkscape:cx="152.67634"
     inkscape:cy="39.258843"
     inkscape:window-x="65"
     inkscape:window-y="24"
     inkscape:window-maximized="1"
     inkscape:current-layer="g3167" /><g
     id="g3167"
     inkscape:groupmode="layer"
     inkscape:label="trepel_challenger_160"
     transform="matrix(1.25,0,0,-1.25,-63.778999,308.77231)"><g
       id="g3392"
       transform="matrix(1.2859703,0,0,1.2859703,-14.591121,-55.541387)"><g
         transform="translate(57.6868,195.5188)"
         id="g3193"><path
           inkscape:connector-curvature="0"
           id="path3195"
           style="fill:#7b7c7e;fill-opacity:1;fill-rule:nonzero;stroke:none"
           d="m 0,0 1.235,0 0.834,1.771 4.021,0 L 6.925,0 8.207,0 4.738,7.024 3.504,7.024 0,0 Z m 5.714,2.596 -3.268,0 1.634,3.482 1.634,-3.482 z" /></g><path
         inkscape:connector-curvature="0"
         id="path3197"
         style="fill:#7b7c7e;fill-opacity:1;fill-rule:nonzero;stroke:none"
         d="m 68.256,195.519 1.176,0 0,7.024 -1.176,0 0,-7.024 z" /><g
         id="g3199"><g
           clip-path="url(#clipPath3203)"
           id="g3201"><g
             transform="translate(72.626,195.5188)"
             id="g3207"><path
               inkscape:connector-curvature="0"
               id="path3209"
               style="fill:#7b7c7e;fill-opacity:1;fill-rule:nonzero;stroke:none"
               d="m 0,0 1.176,0 0,3.119 0.705,0 c 0.624,0 1.011,0 1.376,-0.684 L 4.515,0 5.855,0 4.303,2.797 C 4.045,3.23 3.868,3.381 3.504,3.502 l 0,0.02 c 0.952,0.141 1.693,0.745 1.693,1.6 0,1.68 -1.564,1.902 -3.186,1.902 L 0,7.024 0,0 Z m 1.176,6.138 1.129,0 c 1.081,0 1.646,-0.402 1.646,-1.036 0,-0.675 -0.659,-1.097 -1.776,-1.097 l -0.999,0 0,2.133 z" /></g><g
             transform="translate(82.1562,201.657)"
             id="g3211"><path
               inkscape:connector-curvature="0"
               id="path3213"
               style="fill:#7b7c7e;fill-opacity:1;fill-rule:nonzero;stroke:none"
               d="m 0,0 1,0 c 0.729,0 1.81,-0.322 1.81,-1.208 0,-0.925 -0.917,-1.237 -1.646,-1.237 L 0,-2.445 0,0 Z m -1.176,-6.138 1.176,0 0,2.807 1.152,0 c 1.482,0 2.904,0.554 2.904,2.113 0,1.6 -1.399,2.103 -3.08,2.103 l -2.152,0 0,-7.023 z" /></g><g
             transform="translate(89.5857,199.0308)"
             id="g3215"><path
               inkscape:connector-curvature="0"
               id="path3217"
               style="fill:#7b7c7e;fill-opacity:1;fill-rule:nonzero;stroke:none"
               d="M 0,0 C 0,1.429 0.894,2.757 2.704,2.747 4.515,2.757 5.408,1.429 5.408,0 5.408,-1.399 4.597,-2.747 2.704,-2.747 0.811,-2.747 0,-1.399 0,0 m -1.246,0 c 0,-2.133 1.446,-3.633 3.95,-3.633 2.504,0 3.951,1.5 3.951,3.633 0,2.083 -1.458,3.633 -3.951,3.633 -2.492,0 -3.95,-1.55 -3.95,-3.633" /></g><g
             transform="translate(99.0122,195.5188)"
             id="g3219"><path
               inkscape:connector-curvature="0"
               id="path3221"
               style="fill:#7b7c7e;fill-opacity:1;fill-rule:nonzero;stroke:none"
               d="m 0,0 1.176,0 0,3.119 0.705,0 c 0.623,0 1.011,0 1.376,-0.684 L 4.515,0 5.855,0 4.303,2.797 C 4.044,3.23 3.868,3.381 3.504,3.502 l 0,0.02 c 0.952,0.141 1.693,0.745 1.693,1.6 0,1.68 -1.564,1.902 -3.187,1.902 L 0,7.024 0,0 Z m 1.176,6.138 1.128,0 C 3.386,6.138 3.95,5.736 3.95,5.102 3.95,4.427 3.292,4.005 2.175,4.005 l -0.999,0 0,2.133 z" /></g></g></g><g
         transform="translate(108.8598,195.5188)"
         id="g3223"><path
           inkscape:connector-curvature="0"
           id="path3225"
           style="fill:#7b7c7e;fill-opacity:1;fill-rule:nonzero;stroke:none"
           d="m 0,0 1.176,0 0,6.138 2.551,0 0,0.886 -6.278,0 0,-0.886 L 0,6.138 0,0 Z" /></g><g
         transform="translate(119.4372,195.5188)"
         id="g3227"><path
           inkscape:connector-curvature="0"
           id="path3229"
           style="fill:#7b7c7e;fill-opacity:1;fill-rule:nonzero;stroke:none"
           d="m 0,0 4.597,0 0,0.885 -3.421,0 0,2.315 3.116,0 0,0.885 -3.116,0 0,2.053 3.421,0 0,0.886 L 0,7.024 0,0 Z" /></g><g
         id="g3231"><g
           clip-path="url(#clipPath3235)"
           id="g3233"><g
             transform="translate(127.9128,199.0308)"
             id="g3239"><path
               inkscape:connector-curvature="0"
               id="path3241"
               style="fill:#7b7c7e;fill-opacity:1;fill-rule:nonzero;stroke:none"
               d="M 0,0 C 0,1.429 0.894,2.757 2.704,2.747 4.515,2.757 5.408,1.429 5.408,0 5.408,-1.399 4.597,-2.747 2.704,-2.747 0.811,-2.747 0,-1.399 0,0 m 4.891,-4.81 1.458,0 -1.905,1.479 C 5.867,-2.798 6.655,-1.57 6.655,0 c 0,2.083 -1.458,3.633 -3.951,3.633 -2.492,0 -3.95,-1.55 -3.95,-3.633 0,-2.133 1.446,-3.633 3.95,-3.633 0.235,0 0.447,0.01 0.659,0.041 L 4.891,-4.81 Z" /></g><g
             transform="translate(143.7942,202.5425)"
             id="g3243"><path
               inkscape:connector-curvature="0"
               id="path3245"
               style="fill:#7b7c7e;fill-opacity:1;fill-rule:nonzero;stroke:none"
               d="m 0,0 -1.176,0 0,-3.985 c 0,-1.348 -0.493,-2.274 -2.01,-2.274 -1.517,0 -2.011,0.926 -2.011,2.274 l 0,3.985 -1.175,0 0,-4.115 c 0,-1.973 1.164,-3.029 3.186,-3.029 2.022,0 3.186,1.056 3.186,3.029 L 0,0 Z" /></g></g></g><path
         inkscape:connector-curvature="0"
         id="path3247"
         style="fill:#7b7c7e;fill-opacity:1;fill-rule:nonzero;stroke:none"
         d="m 147.073,195.519 1.176,0 0,7.024 -1.176,0 0,-7.024 z" /><g
         id="g3249"><g
           clip-path="url(#clipPath3253)"
           id="g3251"><g
             transform="translate(152.6199,201.657)"
             id="g3257"><path
               inkscape:connector-curvature="0"
               id="path3259"
               style="fill:#7b7c7e;fill-opacity:1;fill-rule:nonzero;stroke:none"
               d="M 0,0 0.999,0 C 1.728,0 2.81,-0.322 2.81,-1.208 2.81,-2.133 1.893,-2.445 1.164,-2.445 L 0,-2.445 0,0 Z m -1.176,-6.138 1.176,0 0,2.807 1.152,0 c 1.482,0 2.904,0.554 2.904,2.113 0,1.6 -1.399,2.103 -3.08,2.103 l -2.152,0 0,-7.023 z" /></g></g></g><g
         transform="translate(159.2378,195.5188)"
         id="g3261"><path
           inkscape:connector-curvature="0"
           id="path3263"
           style="fill:#7b7c7e;fill-opacity:1;fill-rule:nonzero;stroke:none"
           d="m 0,0 1.176,0 0,6.078 0.023,0 L 3.915,0 l 1.152,0 2.716,6.078 0.024,0 0,-6.078 1.176,0 0,7.024 -1.941,0 L 4.515,1.187 1.94,7.024 0,7.024 0,0 Z" /></g><g
         transform="translate(171.5571,195.5188)"
         id="g3265"><path
           inkscape:connector-curvature="0"
           id="path3267"
           style="fill:#7b7c7e;fill-opacity:1;fill-rule:nonzero;stroke:none"
           d="m 0,0 4.597,0 0,0.885 -3.421,0 0,2.315 3.115,0 0,0.885 -3.115,0 0,2.053 3.421,0 0,0.886 L 0,7.024 0,0 Z" /></g><g
         transform="translate(179.198,195.5188)"
         id="g3269"><path
           inkscape:connector-curvature="0"
           id="path3271"
           style="fill:#7b7c7e;fill-opacity:1;fill-rule:nonzero;stroke:none"
           d="m 0,0 1.176,0 0,5.776 0.023,0 L 4.915,0 6.42,0 l 0,7.024 -1.176,0 0,-5.655 -0.024,0 L 1.599,7.024 0,7.024 0,0 Z" /></g><g
         transform="translate(190.5076,195.5188)"
         id="g3273"><path
           inkscape:connector-curvature="0"
           id="path3275"
           style="fill:#7b7c7e;fill-opacity:1;fill-rule:nonzero;stroke:none"
           d="m 0,0 1.176,0 0,6.138 2.551,0 0,0.886 -6.279,0 0,-0.886 L 0,6.138 0,0 Z" /></g><g
         id="g3277"><g
           clip-path="url(#clipPath3281)"
           id="g3279"><g
             transform="translate(207.3513,202.3113)"
             id="g3285"><path
               inkscape:connector-curvature="0"
               id="path3287"
               style="fill:#7b7c7e;fill-opacity:1;fill-rule:nonzero;stroke:none"
               d="m 0,0 c -0.682,0.201 -1.211,0.352 -2.41,0.352 -2.505,0 -4.339,-1.439 -4.339,-3.602 0,-2.234 1.728,-3.663 4.327,-3.663 1.281,0 2.057,0.181 2.504,0.312 l 0,3.653 -2.904,0 0,-0.826 1.728,0 0,-2.133 c -0.293,-0.05 -0.505,-0.121 -1.316,-0.121 -1.705,0 -3.092,1.097 -3.092,2.747 0,1.57 1.258,2.747 3.15,2.747 1.059,0 1.682,-0.161 2.258,-0.483 L 0,0 Z" /></g></g></g><g
         transform="translate(210.7009,195.5188)"
         id="g3289"><path
           inkscape:connector-curvature="0"
           id="path3291"
           style="fill:#7b7c7e;fill-opacity:1;fill-rule:nonzero;stroke:none"
           d="m 0,0 1.176,0 0,6.078 0.023,0 L 3.915,0 l 1.152,0 2.716,6.078 0.024,0 0,-6.078 1.176,0 0,7.024 -1.941,0 L 4.515,1.187 1.94,7.024 0,7.024 0,0 Z" /></g><g
         id="g3293"><g
           clip-path="url(#clipPath3297)"
           id="g3295"><g
             transform="translate(222.8909,195.5188)"
             id="g3301"><path
               inkscape:connector-curvature="0"
               id="path3303"
               style="fill:#7b7c7e;fill-opacity:1;fill-rule:nonzero;stroke:none"
               d="m 0,0 2.187,0 c 1.669,0 3.127,0.362 3.127,1.872 0,0.986 -0.787,1.61 -1.904,1.69 l 0,0.02 c 1.034,0.222 1.693,0.705 1.693,1.671 0,1.298 -1.176,1.771 -2.881,1.771 L 0,7.024 0,0 Z m 1.176,3.2 0.764,0 C 2.951,3.2 4.068,3.049 4.068,1.962 4.068,1.016 3.116,0.825 2.057,0.825 l -0.881,0 0,2.375 z m 0,2.998 1.234,0 c 0.682,0 1.517,-0.211 1.517,-1.046 0,-1.037 -0.964,-1.127 -2.104,-1.127 l -0.647,0 0,2.173 z" /></g></g></g><g
         transform="translate(231.3747,195.5188)"
         id="g3305"><path
           inkscape:connector-curvature="0"
           id="path3307"
           style="fill:#7b7c7e;fill-opacity:1;fill-rule:nonzero;stroke:none"
           d="m 0,0 1.176,0 0,3.2 3.927,0 0,-3.2 1.175,0 0,7.024 -1.175,0 0,-2.939 -3.927,0 0,2.939 L 0,7.024 0,0 Z" /></g><path
         inkscape:connector-curvature="0"
         id="path3309"
         style="fill:#003964;fill-opacity:1;fill-rule:nonzero;stroke:none"
         d="m 86.186,235.277 13.048,0 0,-26.883 -13.048,0 0,26.883 z" /><g
         id="g3311"><g
           clip-path="url(#clipPath3315)"
           id="g3313"><g
             transform="translate(100.8169,235.2766)"
             id="g3319"><path
               inkscape:connector-curvature="0"
               id="path3321"
               style="fill:#003964;fill-opacity:1;fill-rule:nonzero;stroke:none"
               d="m 0,0 9.363,0 c 0,0 4.74,0 4.74,-7.71 0,-7.739 -4.93,-7.739 -4.93,-7.739 L 0,-15.449 0,0 Z" /></g></g></g><g
         transform="translate(100.769,218.9111)"
         id="g3323"><path
           inkscape:connector-curvature="0"
           id="path3325"
           style="fill:#003964;fill-opacity:1;fill-rule:nonzero;stroke:none"
           d="m 0,0 0,-10.518 14.103,0 L 0,0 Z" /></g><path
         inkscape:connector-curvature="0"
         id="path3327"
         style="fill:#003964;fill-opacity:1;fill-rule:nonzero;stroke:none"
         d="m 148.376,235.277 12.76,0 0,-26.883 -12.76,0 0,26.883 z" /><g
         id="g3329"><g
           clip-path="url(#clipPath3333)"
           id="g3331"><g
             transform="translate(163.0832,235.2766)"
             id="g3337"><path
               inkscape:connector-curvature="0"
               id="path3339"
               style="fill:#003964;fill-opacity:1;fill-rule:nonzero;stroke:none"
               d="m 0,0 8.923,0 c 0,0 4.941,0 4.941,-7.71 0,-7.739 -4.941,-7.739 -4.941,-7.739 L 0,-15.449 0,0 Z" /></g></g></g><g
         transform="translate(209.6152,235.2766)"
         id="g3341"><path
           inkscape:connector-curvature="0"
           id="path3343"
           style="fill:#003964;fill-opacity:1;fill-rule:nonzero;stroke:none"
           d="m 0,0 13.096,0 0,-20.795 14.727,0 0,-6.088 L 0,-26.883 0,0 Z" /></g><path
         d="m 130.1272,214.3923 0,4.596 9.786,0 0,6.532 -9.786,0 0,3.589 15.207,0 0,6.167 -28.063,0 0,-26.883 28.111,0 -0.007,5.999 -15.248,0 z"
         style="fill:#003964;fill-opacity:1;fill-rule:nonzero;stroke:none"
         id="path3347"
         inkscape:connector-curvature="0" /><g
         transform="translate(191.914,214.4458)"
         id="g3349"><path
           inkscape:connector-curvature="0"
           id="path3351"
           style="fill:#003964;fill-opacity:1;fill-rule:nonzero;stroke:none"
           d="m 0,0 0,4.78 9.413,0 0,6.167 -9.413,0.004 0,3.713 15.207,0 0,6.167 -28.063,0 0,-26.883 28.111,0 0,6.052 L 0,0 Z" /></g><g
         transform="translate(51.0232,235.2766)"
         id="g3353"><path
           inkscape:connector-curvature="0"
           id="path3355"
           style="fill:#003964;fill-opacity:1;fill-rule:nonzero;stroke:none"
           d="m 0,0 33.364,0 0,-6.078 -9.786,0 0,-20.805 -13.432,0 0,20.805 L 0.001,-6.109 0,0 Z" /></g></g></g></svg>