<?xml version="1.0" encoding="UTF-8" standalone="no"?>
<svg
   xmlns:dc="http://purl.org/dc/elements/1.1/"
   xmlns:cc="http://creativecommons.org/ns#"
   xmlns:rdf="http://www.w3.org/1999/02/22-rdf-syntax-ns#"
   xmlns:svg="http://www.w3.org/2000/svg"
   xmlns="http://www.w3.org/2000/svg"
   viewBox="0 0 602.36249 105.45"
   height="105.45"
   width="602.36249"
   xml:space="preserve"
   version="1.1"
   id="svg2"><metadata
     id="metadata8"><rdf:RDF><cc:Work
         rdf:about=""><dc:format>image/svg+xml</dc:format><dc:type
           rdf:resource="http://purl.org/dc/dcmitype/StillImage" /></cc:Work></rdf:RDF></metadata><defs
     id="defs6" /><g
     transform="matrix(1.25,0,0,-1.25,0,105.45)"
     id="g10"><g
       transform="scale(0.1,0.1)"
       id="g12"><path
         id="path14"
         style="fill:#231f20;fill-opacity:1;fill-rule:nonzero;stroke:none"
         d="m 3868.91,843.625 52.53,0 L 3747.14,0 l -52.52,0 -174.3,843.625 54.92,0 146.84,-744.3086 146.83,744.3086" /><path
         id="path16"
         style="fill:#231f20;fill-opacity:1;fill-rule:nonzero;stroke:none"
         d="m 4644.6,843.625 -52.52,0 L 4417.79,0 4470.31,0 4617.15,744.313 4763.98,0 4818.9,0 4644.6,843.625" /><path
         id="path18"
         style="fill:#231f20;fill-opacity:1;fill-rule:nonzero;stroke:none"
         d="m 2877.25,224.961 c 0,-113.672 -50.14,-177.0977 -128.93,-177.0977 -78.79,0 -127.73,63.4257 -127.73,177.0977 l 0,618.664 -52.53,0 0,-617.473 C 2568.06,87.3555 2637.29,0 2748.32,0 c 111.02,0 181.46,87.3555 181.46,226.152 l 0,617.473 -52.53,0 0,-618.664" /><path
         id="path20"
         style="fill:#231f20;fill-opacity:1;fill-rule:nonzero;stroke:none"
         d="m 1878.26,0 52.5195,0 0,843.625 -52.5195,0 0,-843.625 z" /><path
         id="path22"
         style="fill:#231f20;fill-opacity:1;fill-rule:nonzero;stroke:none"
         d="m 1028.24,390.105 -51.334,0 0,405.653 48.954,0 c 113.4,0 189.81,-64.617 189.81,-199.832 l 0,-2.391 c 0,-130.433 -72.83,-203.43 -187.43,-203.43 z m 95.51,-29.921 c 90.73,34.711 144.44,118.468 144.44,234.543 l 0,2.39 c 0,156.762 -94.31,246.512 -239.95,246.512 l -103.853,0 0,-843.629 52.519,0 0,343.441 46.554,0 c 16.72,0 32.23,1.192 46.56,3.59 L 1224.23,0 l 62.08,0 -162.56,360.184" /><path
         id="path24"
         style="fill:#231f20;fill-opacity:1;fill-rule:nonzero;stroke:none"
         d="m 0,795.762 136.09,0 0,-795.7268437 52.523,0 0,795.7268437 136.094,0 0,47.867 -324.707,0 0,-47.867" /></g></g></svg>