<?xml version="1.0" encoding="utf-8"?>
<!-- Generator: Adobe Illustrator 15.1.0, SVG Export Plug-In . SVG Version: 6.00 Build 0)  -->
<!DOCTYPE svg PUBLIC "-//W3C//DTD SVG 1.1//EN" "http://www.w3.org/Graphics/SVG/1.1/DTD/svg11.dtd">
<svg version="1.1" id="Ebene_1" xmlns="http://www.w3.org/2000/svg" xmlns:xlink="http://www.w3.org/1999/xlink" x="0px" y="0px"
	 width="120px" height="43px" viewBox="0 0 120 43" enable-background="new 0 0 120 43" xml:space="preserve">
<rect fill="#E63C14" width="120" height="43"/>
<polygon fill="#FFFFFF" points="11.114,22.953 4.8,22.953 4.8,18.623 24.258,18.623 24.258,22.953 17.94,22.953 17.94,35.783 
	11.114,35.783 "/>
<path fill="#FFFFFF" d="M46.221,33.764l-0.289-3.754c-0.122-1.47-0.944-2.334-1.961-2.623v-0.048c1.983-0.578,2.66-2.312,2.66-3.927
	c0-1.879-1.063-3.538-2.347-4.162c-0.944-0.459-2.128-0.627-4.087-0.627H25.812v17.161h6.827v-5.29h4.844
	c1.26,0,1.694,0.772,1.769,2.045c0.12,1.994,0.12,2.739,0.363,3.245h7.452C46.631,35.255,46.293,34.532,46.221,33.764z
	 M37.483,26.163H32.64v-3.21h4.746c1.139,0,1.986,0.313,1.986,1.615C39.372,25.636,38.814,26.163,37.483,26.163z"/>
<path fill="#FFFFFF" d="M48.183,27.203c0,8.889,7.671,9.178,11.811,9.178c4.138,0,11.809-0.289,11.809-9.178
	c0-8.893-7.671-9.181-11.809-9.181C55.854,18.022,48.183,18.311,48.183,27.203 M55.44,27.203c0-3.482,1.769-4.852,4.553-4.852
	c2.781,0,4.549,1.369,4.549,4.852c0,3.479-1.768,4.849-4.549,4.849C57.209,32.052,55.44,30.682,55.44,27.203"/>
<path fill="#FFFFFF" d="M78.094,28.509c-3.34-0.508-4.717-2.43-4.717-4.83c0-4.455,4.378-5.657,9.992-5.657
	c7.696,0,10.87,1.997,11.11,5.631h-7.946c0-0.697-0.407-1.131-1.036-1.367c-0.607-0.266-1.38-0.362-2.128-0.362
	c-2.032,0-2.732,0.505-2.732,1.227c0,0.479,0.217,0.793,0.894,0.888l8.155,1.202c3.438,0.503,5.569,2.091,5.569,4.995
	c0,4.18-3.439,6.147-11.111,6.147c-5.251,0-10.985-0.72-11.011-5.76h8.23c0.021,0.574,0.242,0.958,0.725,1.215
	c0.505,0.241,1.254,0.361,2.318,0.361c2.127,0,2.71-0.576,2.71-1.393c0-0.504-0.315-1.008-1.233-1.147L78.094,28.509z"/>
<polygon fill="#FFFFFF" points="102.054,22.953 95.737,22.953 95.737,18.623 115.199,18.623 115.199,22.953 108.882,22.953 
	108.882,35.783 102.054,35.783 "/>
</svg>
