<?xml version="1.0" encoding="UTF-8" standalone="no"?>
<!-- Created with Inkscape (http://www.inkscape.org/) -->

<svg
   xmlns:dc="http://purl.org/dc/elements/1.1/"
   xmlns:cc="http://creativecommons.org/ns#"
   xmlns:rdf="http://www.w3.org/1999/02/22-rdf-syntax-ns#"
   xmlns:svg="http://www.w3.org/2000/svg"
   xmlns="http://www.w3.org/2000/svg"
   version="1.1"
   width="892.91339"
   height="171.85039"
   id="svg3165">
  <defs
     id="defs3167" />
  <metadata
     id="metadata3170">
    <rdf:RDF>
      <cc:Work
         rdf:about="">
        <dc:format>image/svg+xml</dc:format>
        <dc:type
           rdf:resource="http://purl.org/dc/dcmitype/StillImage" />
        <dc:title></dc:title>
      </cc:Work>
    </rdf:RDF>
  </metadata>
  <g
     transform="translate(63.039852,-491.09548)"
     id="layer1">
    <g
       transform="matrix(3.8146076,0,0,3.8146076,-951.6958,-1453.7321)"
       id="g3230">
      <g
         transform="matrix(1.25,0,0,-1.25,288.68869,516.59344)"
         id="g3017">
        <path
           d="m 0,0 -6.655,0 3.478,-3.704"
           id="path3019"
           style="fill:#154281;fill-opacity:1;fill-rule:evenodd;stroke:none" />
      </g>
      <g
         transform="matrix(1.25,0,0,-1.25,296.94044,516.59344)"
         id="g3021">
        <path
           d="m 0,0 -6.656,0 3.479,-3.704"
           id="path3023"
           style="fill:#154281;fill-opacity:1;fill-rule:evenodd;stroke:none" />
      </g>
      <g
         transform="matrix(1.25,0,0,-1.25,244.92143,544.48105)"
         id="g3025">
        <path
           d="m 0,0 5.599,0 0.019,21.658 9.496,0 -3.497,5.332 -16.851,0 -3.591,-5.332 8.825,0"
           id="path3027"
           style="fill:#154281;fill-opacity:1;fill-rule:evenodd;stroke:none" />
      </g>
      <g
         transform="matrix(1.25,0,0,-1.25,263.8388,527.15706)"
         id="g3029">
        <path
           d="M 0,0 0.996,0 C 1.391,0 1.73,-0.019 2.031,-0.057 2.595,-0.151 3.046,-0.32 3.346,-0.564 3.817,-0.921 4.042,-1.56 4.042,-2.426 4.042,-3.177 3.798,-3.723 3.309,-4.08 2.989,-4.305 2.557,-4.456 2.031,-4.531 1.711,-4.588 1.335,-4.607 0.94,-4.607 L 0,-4.607 0,0 z m -4.7,-13.856 4.7,0 0,6.862 2.031,-3.29 2.199,-3.572 5.659,0 -5.001,7.069 c 1.335,0.281 2.35,0.846 3.046,1.692 0.714,0.846 1.053,1.955 1.053,3.309 0,0.902 -0.169,1.71 -0.527,2.463 C 8.103,1.41 7.595,2.031 6.938,2.501 6.336,2.914 5.64,3.215 4.832,3.403 4.23,3.534 3.309,3.628 2.031,3.647 1.579,3.666 1.072,3.666 0.545,3.666 l -5.245,0"
           id="path3031"
           style="fill:#154281;fill-opacity:1;fill-rule:evenodd;stroke:none" />
      </g>
      <g
         transform="matrix(1.25,0,0,-1.25,280.63794,542.38631)"
         id="g3033">
        <path
           d="m 0,0 c 0.639,-0.714 1.504,-1.241 2.594,-1.598 1.109,-0.357 2.444,-0.545 4.005,-0.545 1.579,0 2.914,0.188 4.004,0.545 1.091,0.357 1.974,0.884 2.595,1.598 0.583,0.639 0.978,1.41 1.222,2.332 0.244,0.921 0.376,2.33 0.376,4.249 l 0,9.268 -5.001,0 0,-7.313 0,-1.203 C 9.795,6.073 9.757,5.17 9.701,4.625 9.626,4.08 9.513,3.629 9.362,3.272 9.156,2.82 8.817,2.482 8.347,2.238 7.878,2.012 7.294,1.881 6.599,1.881 5.922,1.881 5.339,2.012 4.851,2.238 4.38,2.482 4.042,2.82 3.854,3.272 3.685,3.629 3.572,4.08 3.515,4.625 3.441,5.17 3.422,6.073 3.422,7.333 l 0,8.516 -5.02,0 0,-7.444 0,-1.824 c 0,-1.919 0.131,-3.328 0.376,-4.249 C -0.978,1.41 -0.564,0.639 0,0"
           id="path3035"
           style="fill:#154281;fill-opacity:1;fill-rule:evenodd;stroke:none" />
      </g>
      <g
         transform="matrix(1.25,0,0,-1.25,351.81905,539.75355)"
         id="g3037">
        <path
           d="m 0,0 c -0.432,-0.339 -0.977,-0.527 -1.654,-0.527 -0.714,0 -1.448,0.207 -2.162,0.602 -0.734,0.395 -1.448,1.015 -2.2,1.805 l -2.256,-3.554 c 0.977,-0.883 1.974,-1.522 3.027,-1.955 1.034,-0.414 2.2,-0.62 3.497,-0.62 2.124,0 3.835,0.564 5.132,1.711 1.279,1.127 1.918,2.613 1.918,4.474 0,0.733 -0.113,1.41 -0.339,2.012 C 4.738,4.549 4.4,5.057 3.967,5.49 3.329,6.129 1.974,6.693 -0.075,7.22 -0.169,7.257 -0.244,7.275 -0.301,7.295 -1.241,7.52 -1.88,7.783 -2.218,8.047 -2.538,8.31 -2.707,8.648 -2.707,9.1 c 0,0.431 0.188,0.789 0.564,1.052 0.376,0.282 0.865,0.414 1.466,0.414 0.584,0 1.185,-0.113 1.786,-0.357 C 1.711,9.983 2.294,9.625 2.858,9.174 l 1.579,3.422 c -0.827,0.527 -1.673,0.921 -2.594,1.185 -0.903,0.263 -1.861,0.395 -2.877,0.395 -1.879,0 -3.403,-0.527 -4.568,-1.598 C -6.787,11.525 -7.37,10.152 -7.37,8.479 -7.37,7.201 -6.993,6.166 -6.242,5.433 -5.508,4.7 -4.249,4.08 -2.444,3.628 -1.128,3.29 -0.282,2.97 0.094,2.651 0.47,2.331 0.64,1.88 0.64,1.297 0.64,0.771 0.432,0.338 0,0"
           id="path3039"
           style="fill:#154281;fill-opacity:1;fill-rule:evenodd;stroke:none" />
      </g>
      <g
         transform="matrix(1.25,0,0,-1.25,365.87455,543.30269)"
         id="g3041">
        <path
           d="m 0,0 c 0.715,-0.47 1.504,-0.808 2.35,-1.034 0.846,-0.226 1.768,-0.338 2.783,-0.338 0.808,0 1.598,0.075 2.387,0.263 0.79,0.188 1.58,0.47 2.369,0.827 l 0,5.246 C 9.213,4.212 8.517,3.686 7.84,3.347 7.163,3.008 6.43,2.839 5.64,2.839 4.23,2.839 3.083,3.29 2.162,4.231 1.26,5.152 0.808,6.318 0.808,7.727 c 0,1.504 0.452,2.726 1.336,3.667 0.883,0.939 2.067,1.409 3.496,1.409 0.79,0 1.523,-0.169 2.2,-0.507 0.677,-0.357 1.373,-0.884 2.049,-1.598 l 0,5.208 C 9.1,16.282 8.31,16.545 7.52,16.733 6.731,16.921 5.941,17.015 5.133,17.015 3.779,17.015 2.575,16.789 1.486,16.376 0.376,15.943 -0.602,15.323 -1.466,14.458 -2.388,13.575 -3.083,12.578 -3.534,11.469 -4.004,10.379 -4.23,9.156 -4.23,7.821 -4.23,6.148 -3.873,4.644 -3.139,3.309 -2.426,1.974 -1.373,0.884 0,0"
           id="path3043"
           style="fill:#154281;fill-opacity:1;fill-rule:evenodd;stroke:none" />
      </g>
      <g
         transform="matrix(1.25,0,0,-1.25,387.9173,535.54718)"
         id="g3045">
        <path
           d="m 0,0 6.693,0 0,-7.144 5.019,0 0,17.522 -5.019,0 0,-6.398 -6.693,0 0,6.398 -5.02,0 0,-17.522 5.02,0"
           id="path3047"
           style="fill:#154281;fill-opacity:1;fill-rule:evenodd;stroke:none" />
      </g>
      <g
         transform="matrix(1.25,0,0,-1.25,420.68693,539.35419)"
         id="g3049">
        <path
           d="m 0,0 -6.223,0 0,13.423 -5.02,0 0,-17.521 11.243,0"
           id="path3051"
           style="fill:#154281;fill-opacity:1;fill-rule:evenodd;stroke:none" />
      </g>
      <g
         transform="matrix(1.25,0,0,-1.25,438.0498,539.56532)"
         id="g3053">
        <path
           d="m 0,0 -6.393,0 0,2.952 6.017,0 0,3.759 -6.017,0 0,3.046 6.393,0 0,3.835 -11.281,0 0,-17.521 11.281,0"
           id="path3055"
           style="fill:#154281;fill-opacity:1;fill-rule:evenodd;stroke:none" />
      </g>
      <g
         transform="matrix(1.25,0,0,-1.25,452.19731,532.25706)"
         id="g3057">
        <path
           d="m 0,0 c -0.302,-0.225 -0.733,-0.376 -1.278,-0.451 -0.32,-0.057 -0.678,-0.076 -1.091,-0.076 l -0.922,0 0,4.607 0.998,0 c 0.376,0 0.714,-0.019 1.015,-0.057 C -0.696,3.929 -0.263,3.76 0.056,3.516 0.508,3.159 0.752,2.52 0.752,1.654 0.752,0.903 0.508,0.357 0,0 z m 1.579,-2.707 c 1.335,0.281 2.369,0.846 3.065,1.692 0.696,0.846 1.053,1.955 1.053,3.309 0,0.902 -0.188,1.71 -0.546,2.463 C 4.794,5.49 4.286,6.111 3.629,6.581 3.046,6.994 2.35,7.295 1.542,7.483 0.94,7.614 0,7.708 -1.278,7.727 -1.73,7.746 -2.219,7.746 -2.764,7.746 l -5.245,0 0,-17.522 4.718,0 0,6.862 6.665,-10.522 -175.341,0 -2.04,-3.943 185.137,0"
           id="path3059"
           style="fill:#154281;fill-opacity:1;fill-rule:evenodd;stroke:none" />
      </g>
      <g
         transform="matrix(1.25,0,0,-1.25,307.40107,544.46719)"
         id="g3061">
        <path
           d="m 0,0 0,13.387 -4.136,0 0,4.136 13.273,0 0,-4.136 -4.117,0 L 5.02,0"
           id="path3063"
           style="fill:#154281;fill-opacity:1;fill-rule:evenodd;stroke:none" />
      </g>
      <g
         transform="matrix(1.25,0,0,-1.25,339.68918,544.46719)"
         id="g3065">
        <path
           d="m 0,0 -16.262,0 9.287,13.725 -7.464,0 0,3.798 15.511,0 -9.269,-13.706 8.197,0"
           id="path3067"
           style="fill:#154281;fill-opacity:1;fill-rule:evenodd;stroke:none" />
      </g>
    </g>
  </g>
</svg>
