<?xml version="1.0" encoding="UTF-8" standalone="no"?>
<svg
   xmlns:dc="http://purl.org/dc/elements/1.1/"
   xmlns:cc="http://creativecommons.org/ns#"
   xmlns:rdf="http://www.w3.org/1999/02/22-rdf-syntax-ns#"
   xmlns:svg="http://www.w3.org/2000/svg"
   xmlns="http://www.w3.org/2000/svg"
   id="svg2"
   viewBox="0 0 19690.001 17029.799"
   style="clip-rule:evenodd;fill-rule:evenodd;image-rendering:optimizeQuality;shape-rendering:geometricPrecision;text-rendering:geometricPrecision"
   version="1.1"
   height="17.030493in"
   width="19.690571in"
   xml:space="preserve"><metadata
   id="metadata19"><rdf:RDF><cc:Work
       rdf:about=""><dc:format>image/svg+xml</dc:format><dc:type
         rdf:resource="http://purl.org/dc/dcmitype/StillImage" /><dc:title></dc:title></cc:Work></rdf:RDF></metadata>
 <defs
   id="defs4">
  <style
   id="style6"
   type="text/css">
   <![CDATA[
    .fil0 {fill:none;fill-rule:nonzero}
    .fil1 {fill:#008DD1;fill-rule:nonzero}
   ]]>
  </style>
 </defs>
 <g
   transform="translate(-1065,12913.971)"
   id="Boundingbox">
  <metadata
   id="CorelCorpID_0Corel-Layer" />
  <g
   id="_161192408">
   <polygon
   style="fill:none;fill-rule:nonzero"
   id="polygon11"
   points="5864,-9 5864,4903 -13,4903 -13,-9 "
   class="fil0" />
  </g>
 </g>
 <g
   transform="matrix(5,0,0,5,-5325,-3550.0288)"
   id="Logo">
  <metadata
   id="CorelCorpID_1Corel-Layer" />
  <path
   style="fill:#008dd1;fill-rule:nonzero"
   id="path15"
   d="m 2144,1192 -369,0 0,880 -161,0 c -118,0 -180,-40 -180,-189 l 0,-691 -369,0 0,691 c 0,350 166,511 520,511 l 558,0 0,-1201 z m 832,511 0,0 0,691 369,0 0,-691 c 0,-350 -166,-511 -520,-511 l -558,0 0,1201 369,0 0,-880 161,0 c 118,0 180,40 180,189 z m 861,-511 0,0 -190,0 -179,0 0,1201 369,0 0,-1201 z m 0,-482 0,0 -190,0 -179,0 0,341 369,0 0,-341 z m 824,1797 0,0 c -355,0 -520,161 -520,511 l 0,687 369,0 0,-687 c 0,-149 61,-189 180,-189 l 313,0 0,-321 -342,0 z m -1201,-28 0,0 c -407,0 -596,262 -596,624 0,381 201,624 624,624 182,0 367,-71 477,-189 l -215,-217 c -57,54 -142,95 -243,95 -135,0 -222,-43 -253,-170 l 787,0 c 5,-35 5,-132 5,-151 0,-340 -163,-615 -586,-615 z m -213,511 0,0 c 17,-139 78,-208 213,-208 139,0 196,73 213,208 l -426,0 z m -1081,-482 0,0 -513,0 0,1608 368,0 0,-410 144,0 c 402,0 622,-197 622,-599 0,-402 -220,-599 -622,-599 z m -21,875 0,0 -123,0 0,-552 123,0 c 170,0 265,67 265,276 0,209 -95,276 -265,276 z"
   class="fil1" />
 </g>
</svg>