<?xml version="1.0" encoding="utf-8"?>
<!-- Generator: Adobe Illustrator 14.0.0, SVG Export Plug-In . SVG Version: 6.00 Build 43363)  -->
<!DOCTYPE svg PUBLIC "-//W3C//DTD SVG 1.1//EN" "http://www.w3.org/Graphics/SVG/1.1/DTD/svg11.dtd">
<svg version="1.1" id="Ebene_1" xmlns="http://www.w3.org/2000/svg" xmlns:xlink="http://www.w3.org/1999/xlink" x="0px" y="0px"
	 width="1024px" height="194px" viewBox="0 0 1024 194" enable-background="new 0 0 1024 194" xml:space="preserve">
<g>
	<path d="M204.661,180.629c-0.827,0-1.751,0-2.627-0.098v12.56h-4.482v-32.854c2.436-0.098,5.115-0.191,8.084-0.191
		c7.546,0,11.733,3.795,11.733,9.631C217.37,176.106,212.114,180.629,204.661,180.629 M205.148,163.742
		c-1.213,0-2.189,0-3.114,0.047v12.947c0.825,0.148,1.753,0.195,2.678,0.195c4.869-0.047,7.982-2.678,7.982-6.813
		C212.694,166.029,210.312,163.742,205.148,163.742"/>
	<path d="M234.649,193.091c0-1.704,0-3.455,0.244-4.819h-0.098c-1.171,2.967-4.237,5.253-8.229,5.253
		c-3.993,0-6.72-2.138-6.72-5.984c0-5.305,5.404-8.662,14.56-8.662v-1.802c0-3.354-1.315-5.156-5.307-5.156
		c-2.291,0-5.211,0.731-7.307,1.994l-0.438-3.754c2.338-0.965,5.26-1.751,8.473-1.751c6.962,0,8.959,3.265,8.959,8.084v9.636
		c0,2.291,0.049,4.867,0.096,6.962H234.649z M234.407,181.942c-8.424,0-10.273,2.58-10.273,4.773c0,2.04,1.458,3.357,3.698,3.357
		c3.944,0,6.575-3.897,6.575-7.688V181.942z"/>
	<path d="M259.042,172.745c-5.111-0.876-7.544,2.873-7.544,10.612v9.733h-4.382v-24.192h4.235c0,1.513-0.146,3.753-0.538,5.742h0.1
		c1.024-3.354,3.507-6.712,8.327-6.176L259.042,172.745z"/>
	<path d="M272.67,193.478c-4.968,0-6.477-2.044-6.477-7.251v-13.92h-4.964v-3.408h4.964v-7.834l4.382-1.215v9.049h6.769v3.408
		h-6.769v12.364c0,3.991,0.731,5.059,3.458,5.059c1.122,0,2.338-0.196,3.311-0.438v3.698
		C275.981,193.286,274.226,193.478,272.67,193.478"/>
	<path d="M298.666,193.091v-15.624c0-3.408-0.924-5.402-4.135-5.402c-3.993,0-6.864,4.038-6.864,9.394v11.633h-4.384v-24.192h4.237
		c0,1.415-0.098,3.65-0.391,5.062l0.1,0.047c1.413-3.357,4.382-5.598,8.518-5.598c5.551,0,7.306,3.46,7.306,7.74v16.941H298.666z"/>
	<path d="M329.489,180.727h-15.824c-0.193,6.474,2.482,9.245,7.644,9.245c2.484,0,5.111-0.583,7.06-1.509l0.391,3.557
		c-2.34,0.97-5.165,1.505-8.18,1.505c-7.451,0-11.441-3.889-11.441-12.406c0-7.256,3.942-12.653,10.806-12.653
		c6.818,0,9.688,4.62,9.688,10.171C329.633,179.223,329.587,179.902,329.489,180.727 M319.75,171.674
		c-3.163,0-5.404,2.385-5.889,5.941h11.295C325.256,174.059,323.16,171.674,319.75,171.674"/>
	<path d="M347.942,172.745c-5.113-0.876-7.546,2.873-7.546,10.612v9.733h-4.382v-24.192h4.235c0,1.513-0.146,3.753-0.535,5.742h0.1
		c1.02-3.354,3.504-6.712,8.322-6.176L347.942,172.745z"/>
	<path d="M373.796,193.091h-4.528l-9.104-24.192h4.917l5.111,14.413c0.538,1.551,1.022,3.064,1.413,4.573h0.096
		c0.391-1.416,0.829-2.972,1.364-4.434l5.26-14.553h4.72L373.796,193.091z"/>
	<path d="M395.112,193.524c-6.575,0-10.861-3.795-10.861-12.309c0-7.111,4.482-12.751,11.786-12.751
		c6.182,0,10.906,3.404,10.906,12.113C406.943,187.885,402.268,193.524,395.112,193.524 M395.646,172.111
		c-3.507,0-6.817,2.678-6.817,8.662c0,5.845,2.389,9.054,6.817,9.054c3.602,0,6.715-2.822,6.715-9.003
		C402.361,175.324,400.125,172.111,395.646,172.111"/>
	<path d="M428.413,193.091v-15.624c0-3.408-0.924-5.402-4.135-5.402c-3.996,0-6.867,4.038-6.867,9.394v11.633h-4.384v-24.192h4.235
		c0,1.415-0.094,3.65-0.385,5.062l0.094,0.047c1.415-3.357,4.382-5.598,8.521-5.598c5.549,0,7.302,3.46,7.302,7.74v16.941H428.413z"
		/>
	<path d="M483.532,193.091h-5.502l-6.282-22.093c-0.533-1.904-0.924-3.851-1.218-5.695h-0.047c-0.24,1.896-0.633,3.744-1.167,5.64
		l-6.138,22.148h-5.353l-8.671-32.854h4.773l5.549,21.417c0.586,2.189,0.975,4.187,1.315,6.324h0.049
		c0.342-2.091,0.782-4.135,1.315-6.077l6.084-21.664h5.066l6.28,21.851c0.489,1.709,0.976,3.8,1.313,5.798h0.049
		c0.34-1.904,0.686-3.604,1.122-5.355l5.693-22.293h4.431L483.532,193.091z"/>
	<path d="M511.811,193.091c0-1.411,0.145-3.655,0.389-5.062l-0.096-0.052c-1.411,3.362-4.384,5.598-8.522,5.598
		c-5.547,0-7.253-3.455-7.253-7.739v-16.938h4.333v15.624c0,3.409,0.973,5.406,4.138,5.406c3.995,0,6.915-4.042,6.915-9.397v-11.633
		h4.335v24.192H511.811z M501.296,163.84c-1.464,0-2.629-1.117-2.629-2.584c0-1.458,1.165-2.622,2.629-2.622
		c1.458,0,2.58,1.164,2.58,2.622C503.876,162.723,502.754,163.84,501.296,163.84 M510.645,163.84c-1.46,0-2.631-1.117-2.631-2.584
		c0-1.458,1.171-2.622,2.631-2.622s2.58,1.164,2.58,2.622C513.225,162.723,512.104,163.84,510.645,163.84"/>
	<path d="M528.122,193.524c-1.798,0-3.601-0.145-5.113-0.434l0.145-3.897c1.513,0.489,3.46,0.825,5.309,0.825
		c3.218,0,5.402-1.454,5.402-3.694c0-5.401-11.247-2.095-11.247-10.608c0-4.093,3.362-7.256,9.695-7.256
		c1.458,0,3.162,0.196,4.62,0.489l-0.098,3.651c-1.505-0.489-3.26-0.782-4.866-0.782c-3.214,0-4.82,1.364-4.82,3.455
		c0,5.305,11.298,2.436,11.298,10.566C538.446,190.218,534.544,193.524,528.122,193.524"/>
	<path d="M552.468,193.478c-4.969,0-6.481-2.044-6.481-7.251v-13.92h-4.965v-3.408h4.965v-7.834l4.386-1.215v9.049h6.767v3.408
		h-6.767v12.364c0,3.991,0.731,5.059,3.456,5.059c1.117,0,2.337-0.196,3.311-0.438v3.698
		C555.778,193.286,554.023,193.478,552.468,193.478"/>
	<path d="M581.289,180.727H565.47c-0.195,6.474,2.481,9.245,7.642,9.245c2.482,0,5.117-0.583,7.06-1.509l0.388,3.557
		c-2.33,0.97-5.16,1.505-8.178,1.505c-7.451,0-11.442-3.889-11.442-12.406c0-7.256,3.944-12.653,10.813-12.653
		c6.818,0,9.683,4.62,9.683,10.171C581.434,179.223,581.387,179.902,581.289,180.727 M571.552,171.674
		c-3.167,0-5.402,2.385-5.891,5.941h11.297C577.056,174.059,574.965,171.674,571.552,171.674"/>
	<path d="M603.199,193.091v-15.624c0-3.408-0.926-5.402-4.135-5.402c-3.996,0-6.869,4.038-6.869,9.394v11.633h-4.378v-24.192h4.233
		c0,1.415-0.098,3.65-0.391,5.062l0.094,0.047c1.41-3.357,4.386-5.598,8.518-5.598c5.555,0,7.311,3.46,7.311,7.74v16.941H603.199z"
		/>
	<path d="M627.736,172.745c-5.108-0.876-7.54,2.873-7.54,10.612v9.733h-4.386v-24.192h4.233c0,1.513-0.145,3.753-0.536,5.742h0.103
		c1.02-3.354,3.502-6.712,8.322-6.176L627.736,172.745z"/>
	<path d="M641.121,193.524c-6.575,0-10.859-3.795-10.859-12.309c0-7.111,4.479-12.751,11.781-12.751
		c6.188,0,10.907,3.404,10.907,12.113C652.95,187.885,648.278,193.524,641.121,193.524 M641.652,172.111
		c-3.502,0-6.809,2.678-6.809,8.662c0,5.845,2.38,9.054,6.809,9.054c3.604,0,6.716-2.822,6.716-9.003
		C648.368,175.324,646.132,172.111,641.652,172.111"/>
	<path d="M666.482,193.478c-4.964,0-6.469-2.044-6.469-7.251v-13.92h-4.973v-3.408h4.973v-7.834l4.378-1.215v9.049h6.767v3.408
		h-6.767v12.364c0,3.991,0.731,5.059,3.455,5.059c1.127,0,2.338-0.196,3.312-0.438v3.698
		C669.798,193.286,668.047,193.478,666.482,193.478"/>
	<path fill="#FFFFFF" d="M72.699,131.972c0.784,4.824,5.532,4.471,5.532,4.471s3.413-0.042,5.674-3.693L76.9,124.81
		C74.805,126.582,72.223,129.039,72.699,131.972"/>
	<path fill="#FFFFFF" d="M124.648,119.582l-8.237-36.145h-14.147l-8.08,36.217L86.7,83.437H70.495l-7.525,36.145l-8.233-36.145
		H40.588l-8.08,36.217l-7.482-36.217H8.704l13.174,52.819h17.964l7.712-35.541l8.084,35.541h11.92
		c-0.591-0.943-0.965-1.904-1.105-2.81c-1.232-7.753,7.122-12.585,7.122-12.585s-2.493-2.092-3.203-5.101
		c-1.216-5.186,2.108-9.69,6.586-10.413c5.419-0.872,9.032,2.732,9.814,6.511c1.264,6.108-5.037,9.849-5.037,9.849l5.087,5.768
		c0,0,1.29-2.24,1.774-4.539h5.054c-0.808,4.279-3.032,8.505-3.032,8.505l4.418,4.815h6.486l7.704-35.541l8.086,35.541h17.89
		l13.17-52.819h-16.239L124.648,119.582z"/>
	<path fill="#FFFFFF" d="M78.341,118.455c0,0,4.127-2.346,3.47-5.733c-0.321-1.666-1.759-3.111-3.653-2.801
		c-2.104,0.353-3.083,2.261-2.999,4.004C75.279,116.505,78.341,118.455,78.341,118.455"/>
	<path fill="#E64515" d="M0.157,156.585h156.771V-0.116H0.157V156.585z M76.9,124.81l7.004,7.939
		c-2.261,3.651-5.674,3.693-5.674,3.693s-4.748,0.354-5.532-4.471C72.223,129.043,74.805,126.582,76.9,124.81 M75.158,113.925
		c-0.083-1.738,0.897-3.655,3.001-4.004c1.894-0.311,3.332,1.135,3.651,2.797c0.659,3.392-3.468,5.733-3.468,5.733
		S75.279,116.5,75.158,113.925 M135.202,136.256h-17.89l-8.088-35.541l-7.704,35.541h-6.486l-4.414-4.815
		c0,0,2.225-4.226,3.028-8.505h-5.052c-0.482,2.304-1.772,4.539-1.772,4.539l-5.09-5.772c0,0,6.303-3.735,5.034-9.844
		c-0.78-3.778-4.393-7.378-9.814-6.511c-4.476,0.723-7.797,5.228-6.583,10.413c0.708,3.009,3.203,5.096,3.203,5.096
		s-8.352,4.837-7.124,12.59c0.145,0.901,0.514,1.861,1.105,2.81h-11.92l-8.08-35.541l-7.714,35.541H21.878L8.704,83.437h16.319
		l7.483,36.221l8.082-36.221h14.149l8.235,36.145l7.523-36.145h16.202l7.485,36.221l8.08-36.221h14.151l8.233,36.145l7.487-36.145
		h16.236L135.202,136.256z"/>
	<path d="M248.826,137.833H235.54l-7.891-34.453h-0.208c-1.384,5.602-2.682,11.344-3.894,17.222
		c-1.213,5.883-2.51,11.625-3.893,17.231h-13.493l-14.849-54.379h15.363l6.854,31.856h0.208l7.474-31.856h13.287l7.474,31.856h0.208
		l6.956-31.856h15.159L248.826,137.833z"/>
	<path d="M302.642,83.454h15.472v33.208c0,8.092-2.098,13.94-6.282,17.541c-4.191,3.596-10.294,5.389-18.325,5.389
		c-4.359,0-8.044-0.539-11.055-1.606c-3.011-1.071-5.47-2.575-7.372-4.514c-1.904-1.938-3.271-4.271-4.102-7
		c-0.829-2.737-1.243-5.764-1.243-9.083V83.454h15.885v31.444c0,2.283,0.153,4.148,0.465,5.603c0.311,1.453,0.797,2.613,1.452,3.477
		c0.659,0.862,1.545,1.475,2.648,1.814c1.107,0.349,2.459,0.519,4.051,0.519c2.979,0,5.122-0.808,6.439-2.431
		c1.312-1.632,1.968-4.692,1.968-9.189V83.454z M280.842,77.436c-2.629,0-4.775-0.812-6.435-2.44
		c-1.664-1.624-2.495-3.613-2.495-5.967c0-2.351,0.831-4.335,2.495-5.963c1.66-1.632,3.806-2.444,6.435-2.444
		c2.421,0,4.446,0.812,6.074,2.444c1.626,1.628,2.44,3.613,2.44,5.963c0,2.354-0.814,4.344-2.44,5.967
		C285.288,76.624,283.263,77.436,280.842,77.436 M307.627,77.436c-2.631,0-4.777-0.812-6.439-2.44
		c-1.66-1.624-2.489-3.613-2.489-5.967c0-2.351,0.829-4.335,2.489-5.963c1.662-1.632,3.808-2.444,6.439-2.444
		c2.423,0,4.441,0.812,6.069,2.444c1.628,1.628,2.442,3.613,2.442,5.963c0,2.354-0.814,4.344-2.442,5.967
		C312.069,76.624,310.05,77.436,307.627,77.436"/>
	<path d="M353.459,82.208c1.315,0,2.461,0.072,3.43,0.208c0.969,0.14,1.832,0.31,2.597,0.519v14.527
		c-1.388-0.484-2.791-0.833-4.208-1.037c-1.419-0.208-2.65-0.31-3.685-0.31c-1.248,0-2.474,0.174-3.687,0.519
		c-1.211,0.344-2.266,0.952-3.167,1.819c-0.897,0.863-1.628,2.04-2.181,3.523c-0.55,1.488-0.829,3.337-0.829,5.551v30.301h-15.053
		V83.454h14.43v5.292c1.383-1.866,3.13-3.421,5.243-4.667C348.462,82.829,350.832,82.208,353.459,82.208"/>
	<path d="M398.48,137.105c-1.524,0.688-3.396,1.19-5.61,1.505c-2.215,0.311-4.291,0.468-6.229,0.468
		c-5.26,0-9.308-1.263-12.143-3.787c-2.841-2.525-4.257-6.384-4.257-11.578V95.805H363.7V83.45h6.541V66.436h15.471V83.45h11.727
		v12.355h-11.727v24.287c0,2.622,0.55,4.438,1.658,5.44c1.107,1.007,2.563,1.509,4.363,1.509c1.796,0,4.046-0.48,6.748-1.458
		V137.105z"/>
	<path d="M436.236,137.105c-1.526,0.688-3.396,1.19-5.612,1.505c-2.21,0.311-4.291,0.468-6.225,0.468
		c-5.262,0-9.311-1.263-12.147-3.787c-2.837-2.525-4.254-6.384-4.254-11.578V95.805h-6.543V83.45h6.543V66.436h15.469V83.45h11.731
		v12.355h-11.731v24.287c0,2.622,0.555,4.438,1.662,5.44c1.107,1.007,2.557,1.509,4.358,1.509c1.8,0,4.051-0.48,6.75-1.458V137.105z
		"/>
	<path d="M466.414,82.204c7.402,0,13.129,2.389,17.18,7.162c4.05,4.781,6.074,11.557,6.074,20.342c0,0.965-0.017,1.87-0.053,2.695
		c-0.036,0.833-0.119,1.733-0.257,2.703h-33.118c0.138,3.392,1.09,6.086,2.856,8.092c1.762,2.007,4.408,3.01,7.94,3.01
		c2.561,0,4.811-0.638,6.75-1.921c1.934-1.279,3.423-2.542,4.465-3.787l9.342,10.068c-3.254,3.248-6.631,5.483-10.12,6.694
		c-3.496,1.207-7.013,1.815-10.539,1.815c-4.499,0-8.396-0.659-11.682-1.973s-6.004-3.2-8.15-5.661
		c-2.145-2.452-3.736-5.39-4.775-8.815c-1.037-3.426-1.556-7.251-1.556-11.467c0-4.357,0.584-8.301,1.766-11.829
		c1.175-3.528,2.888-6.571,5.139-9.134s4.949-4.531,8.097-5.917C458.92,82.901,462.467,82.204,466.414,82.204 M465.58,94.556
		c-1.591,0-2.941,0.281-4.048,0.833c-1.107,0.553-2.025,1.279-2.75,2.177c-0.727,0.9-1.3,1.938-1.713,3.115
		c-0.417,1.177-0.692,2.427-0.831,3.736h18.478c-0.07-2.903-0.867-5.275-2.386-7.107C470.804,95.474,468.556,94.556,465.58,94.556"
		/>
	<path d="M560.633,137.833v-30.819c0-4.429-0.693-7.404-2.083-8.926c-1.381-1.522-3.493-2.283-6.324-2.283
		c-2.771,0-4.812,0.846-6.129,2.542c-1.313,1.696-1.973,4.515-1.973,8.454v31.032h-15.471v-31.236c0-4.017-0.655-6.813-1.973-8.407
		c-1.309-1.589-3.354-2.384-6.12-2.384c-2.839,0-4.952,0.867-6.335,2.593c-1.384,1.729-2.077,4.564-2.077,8.509v30.926h-15.465
		V83.454h14.428v4.879c1.594-1.934,3.649-3.442,6.176-4.514c2.524-1.075,5.07-1.611,7.633-1.611c7.196,0,12.147,2.491,14.843,7.472
		c0.973-1.037,2.01-2.023,3.119-2.954c1.105-0.939,2.347-1.734,3.732-2.389c1.386-0.659,2.962-1.177,4.727-1.56
		c1.764-0.378,3.753-0.569,5.972-0.569c3.455,0,6.346,0.501,8.666,1.504c2.316,1.003,4.183,2.402,5.602,4.2
		c1.424,1.798,2.444,3.965,3.069,6.49c0.62,2.524,0.935,5.308,0.935,8.352v35.078H560.633z"/>
	<path d="M633.016,110.639c0,4.085-0.484,7.859-1.453,11.314c-0.965,3.46-2.368,6.452-4.199,8.977
		c-1.837,2.529-4.089,4.514-6.75,5.968c-2.669,1.449-5.661,2.181-8.981,2.181c-2.835,0-5.368-0.468-7.578-1.403
		c-2.219-0.931-4.084-2.197-5.605-3.786l-0.523,3.944h-13.593V66.436h15.148v19.926c1.182-0.969,2.878-1.904,5.092-2.806
		c2.215-0.896,4.812-1.352,7.787-1.352c2.767,0,5.397,0.527,7.884,1.564c2.495,1.037,4.692,2.678,6.593,4.926
		c1.904,2.249,3.408,5.168,4.518,8.769C632.463,101.063,633.016,105.453,633.016,110.639 M617.757,110.125
		c0-4.981-0.85-8.684-2.542-11.103c-1.695-2.422-3.97-3.634-6.8-3.634c-1.803,0-3.443,0.327-4.931,0.986
		c-1.487,0.658-2.822,1.538-4.004,2.644v22.833c0.901,0.896,2.168,1.798,3.791,2.694c1.628,0.905,3.341,1.352,5.144,1.352
		c2.975,0,5.278-1.189,6.902-3.579C616.941,119.931,617.757,115.862,617.757,110.125"/>
	<path d="M664.218,82.204c7.399,0,13.129,2.389,17.18,7.162c4.05,4.781,6.073,11.557,6.073,20.342c0,0.965-0.017,1.87-0.051,2.695
		c-0.038,0.833-0.123,1.733-0.264,2.703h-33.114c0.141,3.392,1.093,6.086,2.86,8.092c1.76,2.007,4.403,3.01,7.936,3.01
		c2.563,0,4.812-0.638,6.754-1.921c1.93-1.279,3.422-2.542,4.459-3.787l9.346,10.068c-3.256,3.248-6.63,5.483-10.124,6.694
		c-3.494,1.207-7.013,1.815-10.536,1.815c-4.502,0-8.395-0.659-11.685-1.973c-3.281-1.313-6.001-3.2-8.147-5.661
		c-2.146-2.452-3.736-5.39-4.773-8.815s-1.556-7.251-1.556-11.467c0-4.357,0.582-8.301,1.769-11.829
		c1.173-3.528,2.881-6.571,5.134-9.134c2.249-2.563,4.947-4.531,8.097-5.917C656.729,82.901,660.269,82.204,664.218,82.204
		 M663.385,94.556c-1.595,0-2.941,0.281-4.051,0.833c-1.105,0.553-2.023,1.279-2.746,2.177c-0.727,0.9-1.301,1.938-1.717,3.115
		c-0.412,1.177-0.688,2.427-0.829,3.736h18.477c-0.068-2.903-0.867-5.275-2.389-7.107C668.612,95.474,666.363,94.556,663.385,94.556
		"/>
	<path d="M721.261,82.208c1.318,0,2.457,0.072,3.431,0.208c0.969,0.14,1.832,0.31,2.597,0.519v14.527
		c-1.386-0.484-2.788-0.833-4.204-1.037c-1.424-0.208-2.647-0.31-3.685-0.31c-1.25,0-2.478,0.174-3.689,0.519
		c-1.216,0.344-2.27,0.952-3.171,1.819c-0.896,0.863-1.623,2.04-2.176,3.523c-0.553,1.488-0.829,3.337-0.829,5.551v30.301h-15.05
		V83.454h14.43v5.292c1.381-1.866,3.128-3.421,5.24-4.667C716.263,82.829,718.635,82.208,721.261,82.208"/>
	<path d="M778.849,134.194c0,4.013-0.327,7.578-0.986,10.693c-0.658,3.111-1.865,5.738-3.634,7.889
		c-1.76,2.146-4.203,3.771-7.319,4.875c-3.111,1.105-7.098,1.658-11.935,1.658c-4.013,0-8.046-0.553-12.097-1.658
		c-4.046-1.104-7.522-2.626-10.43-4.568l5.083-11.204c2.631,1.449,5.398,2.694,8.301,3.736c2.911,1.032,5.955,1.556,9.143,1.556
		c3.455,0,5.789-0.816,7.005-2.44c1.207-1.628,1.818-4.169,1.818-7.625v-3.217c-1.245,1.245-2.767,2.214-4.568,2.907
		c-1.798,0.688-4.017,1.037-6.644,1.037c-3.048,0-5.883-0.48-8.514-1.458c-2.631-0.965-4.951-2.521-6.953-4.667
		c-2.011-2.143-3.583-4.96-4.73-8.454c-1.14-3.498-1.709-7.804-1.709-12.925c0-4.357,0.519-8.263,1.556-11.728
		c1.037-3.455,2.508-6.396,4.412-8.815c1.904-2.422,4.208-4.289,6.906-5.606c2.699-1.313,5.708-1.977,9.032-1.977
		c4.913,0,8.994,1.628,12.249,4.884V83.45h14.014V134.194z M763.798,98.708c-1.037-0.969-2.371-1.798-4.003-2.49
		c-1.624-0.693-3.124-1.042-4.506-1.042c-3.119,0-5.453,1.199-7.009,3.587c-1.56,2.38-2.338,6.138-2.338,11.259
		c0,10.026,3.01,15.042,9.032,15.042c2.143,0,3.902-0.311,5.292-0.931c1.381-0.616,2.559-1.352,3.531-2.181V98.708z"/>
	<path d="M857.365,121.333c0,3.115-0.519,5.793-1.556,8.041c-1.037,2.249-2.508,4.081-4.416,5.5c-1.9,1.42-4.17,2.47-6.797,3.167
		c-2.635,0.688-5.508,1.037-8.619,1.037c-2.21,0-4.434-0.157-6.64-0.468c-2.218-0.318-4.386-0.765-6.494-1.348
		c-2.108-0.591-4.098-1.283-5.967-2.078c-1.871-0.795-3.532-1.679-4.981-2.647l4.981-11.621c2.631,1.454,5.627,2.788,8.98,3.995
		c3.357,1.212,6.516,1.815,9.499,1.815c2.211,0,3.821-0.272,4.824-0.829c1.008-0.557,1.509-1.556,1.509-3.005
		c0-1.525-0.781-2.669-2.337-3.43c-1.556-0.757-4.272-1.662-8.148-2.699c-2.078-0.553-4.178-1.207-6.286-1.973
		c-2.108-0.761-4.013-1.78-5.712-3.06c-1.692-1.275-3.095-2.886-4.2-4.824c-1.104-1.934-1.661-4.429-1.661-7.472
		c0-5.331,1.887-9.53,5.657-12.611c3.773-3.073,9.121-4.62,16.04-4.62c4.081,0,8.042,0.591,11.884,1.768
		c3.847,1.178,7.082,2.767,9.713,4.773l-6.542,10.69c-2.767-1.59-5.482-2.801-8.151-3.634c-2.661-0.825-4.999-1.246-7.005-1.246
		c-3.876,0-5.814,1.109-5.814,3.319c0,1.386,0.782,2.423,2.338,3.115c1.556,0.693,4.131,1.59,7.735,2.695
		c2.418,0.765,4.722,1.581,6.898,2.443c2.181,0.863,4.105,1.973,5.768,3.32c1.657,1.352,2.988,2.979,3.995,4.879
		C856.863,116.229,857.365,118.565,857.365,121.333"/>
	<path d="M912.237,127.865c-1.25,1.526-2.665,2.963-4.259,4.314c-1.599,1.348-3.342,2.542-5.241,3.579
		c-1.904,1.037-3.982,1.849-6.231,2.435c-2.248,0.587-4.688,0.885-7.314,0.885c-3.944,0-7.515-0.642-10.698-1.926
		c-3.184-1.275-5.882-3.128-8.097-5.542c-2.21-2.423-3.928-5.381-5.143-8.879c-1.207-3.494-1.811-7.455-1.811-11.884
		c0-4.217,0.604-8.089,1.811-11.616c1.215-3.528,2.975-6.559,5.296-9.083c2.32-2.524,5.126-4.479,8.411-5.865
		c3.285-1.381,7.009-2.074,11.157-2.074c2.703,0,5.16,0.332,7.379,0.99c2.21,0.65,4.254,1.535,6.12,2.64
		c1.87,1.109,3.532,2.354,4.985,3.74c1.454,1.381,2.768,2.835,3.944,4.356l-9.754,9.44c-0.834-1.037-1.7-2.015-2.602-2.954
		c-0.901-0.935-1.854-1.764-2.852-2.49c-1.008-0.727-2.113-1.296-3.32-1.713c-1.215-0.413-2.584-0.621-4.105-0.621
		c-3.256,0-5.955,1.211-8.102,3.634c-2.146,2.418-3.213,6.29-3.213,11.616c0,5.325,1.066,9.188,3.213,11.573
		c2.146,2.389,4.846,3.579,8.102,3.579c2.835,0,5.287-0.688,7.37-2.074c2.078-1.386,4.046-3.184,5.921-5.394L912.237,127.865z"/>
	<path d="M952.471,137.833v-29.995c0-4.633-0.766-7.795-2.287-9.491c-1.521-1.696-3.664-2.542-6.435-2.542
		c-3.044,0-5.33,0.918-6.852,2.75c-1.521,1.836-2.282,5.1-2.282,9.805v29.473h-15.468V66.431h15.468v21.481
		c1.589-1.658,3.616-3.022,6.073-4.093c2.457-1.075,5.309-1.611,8.564-1.611c6.644,0,11.421,1.938,14.328,5.81
		c2.902,3.872,4.36,9.479,4.36,16.814v33H952.471z"/>
	<path d="M1000.907,82.204c7.396,0,13.125,2.389,17.176,7.162c4.05,4.781,6.073,11.557,6.073,20.342c0,0.965-0.017,1.87-0.051,2.695
		c-0.038,0.833-0.123,1.733-0.264,2.703h-33.114c0.141,3.392,1.093,6.086,2.853,8.092c1.768,2.007,4.411,3.01,7.943,3.01
		c2.559,0,4.812-0.638,6.75-1.921c1.934-1.279,3.421-2.542,4.462-3.787l9.343,10.068c-3.252,3.248-6.626,5.483-10.12,6.694
		c-3.494,1.207-7.013,1.815-10.536,1.815c-4.502,0-8.395-0.659-11.685-1.973c-3.281-1.313-6.002-3.2-8.144-5.661
		c-2.15-2.452-3.74-5.39-4.777-8.815s-1.556-7.251-1.556-11.467c0-4.357,0.582-8.301,1.769-11.829
		c1.173-3.528,2.881-6.571,5.134-9.134c2.248-2.563,4.947-4.531,8.097-5.917C993.414,82.901,996.954,82.204,1000.907,82.204
		 M1000.07,94.556c-1.595,0-2.941,0.281-4.051,0.833c-1.105,0.553-2.023,1.279-2.746,2.177c-0.73,0.9-1.301,1.938-1.717,3.115
		c-0.412,1.177-0.688,2.427-0.829,3.736h18.477c-0.068-2.903-0.867-5.275-2.389-7.107
		C1005.298,95.474,1003.041,94.556,1000.07,94.556"/>
	<path d="M796.568,77.436c-2.627,0-4.777-0.808-6.443-2.436c-1.662-1.632-2.491-3.622-2.491-5.976s0.829-4.344,2.491-5.972
		c1.666-1.624,3.816-2.439,6.443-2.439c2.423,0,4.454,0.816,6.086,2.439c1.624,1.628,2.44,3.617,2.44,5.972s-0.816,4.344-2.44,5.976
		C801.022,76.628,798.991,77.436,796.568,77.436 M788.676,83.462h15.483v54.413h-15.483V83.462z"/>
</g>
</svg>
