<?xml version="1.0" encoding="UTF-8" standalone="no"?>
<!DOCTYPE svg PUBLIC "-//W3C//DTD SVG 1.0//EN" "http://www.w3.org/TR/2001/REC-SVG-20010904/DTD/svg10.dtd">
<!-- Created with Inkscape (http://www.inkscape.org/) -->
<svg
   xmlns:svg="http://www.w3.org/2000/svg"
   xmlns="http://www.w3.org/2000/svg"
   version="1.0"
   width="800"
   height="200"
   id="svg2">
  <defs
     id="defs4" />
  <g
     id="layer1">
    <path
       d="M 14.532458,10.262455 L 14.532458,193.07004 L 141.35627,193.07004 C 156.56159,193.07004 173.57972,191.44465 192.30402,188.11795 C 206.0013,185.70603 218.80725,180.87481 230.74565,173.59742 C 242.6836,166.32014 251.9722,157.25732 258.69557,146.48684 C 265.41841,135.71647 268.85123,120.6235 268.85155,101.07871 C 268.85126,88.603424 266.57656,76.719487 262.05292,65.574758 C 257.52869,54.430378 250.1992,44.682333 240.14623,36.2819 C 230.09274,27.881923 217.35016,21.468503 201.9564,16.97715 C 186.56221,12.486228 166.36349,10.262616 141.35627,10.262455 L 14.532458,10.262455 z M 316.86162,10.262455 L 316.86162,193.07004 L 398.44517,193.07004 L 398.44517,10.262455 L 316.86162,10.262455 z M 426.89869,10.262455 L 498.24233,193.07004 L 576.3846,193.07004 L 609.62234,77.996945 L 638.24373,193.07004 L 721.08628,193.07004 L 791.84239,10.262455 L 715.71453,10.262455 L 688.10034,112.40976 L 647.6443,10.262455 L 571.34858,10.262455 L 531.06041,112.40976 L 503.44622,10.262455 L 426.89869,10.262455 z M 99.893023,51.641765 L 121.21218,51.641765 C 154.83989,52.795028 191.12895,63.993045 191.12895,102.16985 C 191.12895,140.29777 157.26712,153.92237 120.87645,151.60679 L 99.893023,151.60679 L 99.893023,51.641765 z"
       id="text4189"
       style="font-size:116.92948914px;font-style:normal;font-variant:normal;font-weight:normal;font-stretch:normal;text-align:start;line-height:100%;writing-mode:lr-tb;text-anchor:start;fill:#016ca0;fill-opacity:1;stroke:none;stroke-width:1px;stroke-linecap:butt;stroke-linejoin:miter;stroke-opacity:1;font-family:Arial Black;-inkscape-font-specification:Arial Black" />
  </g>
</svg>
