<?xml version="1.0" encoding="UTF-8"?>
<!-- Generator: Adobe Illustrator 22.1.0, SVG Export Plug-In . SVG Version: 6.00 Build 0)  -->
<svg width="800" height="272" version="1.1" xml:space="preserve" xmlns="http://www.w3.org/2000/svg"><title>EWE Logo</title>
<style type="text/css">
	.st0{fill:none;}
	.st1{fill:#F7CD00;}
</style>
<g id="Bounding_Box" transform="translate(0,193)">
	<rect class="st0" width="145.2" height="79" fill="none"/>
</g>
<g id="EWE_on_dark" transform="matrix(7.9966 0 0 7.9966 -180.45 -180.16)">
	<g fill="#f7cd00">
		<polygon class="st1" points="48.6 22.6 47.3 30.7 35.8 30.7 35.1 35.6 44.8 35.6 43.7 42.9 34 42.9 33.2 48.3 44.7 48.3 43.5 56.4 22.6 56.4 27.7 22.6"/>
		<path class="st1" d="m51.9 22.6h9.8l1.5 19.4h0.2l7.8-19.4h9.3l0.7 19.8h0.1s6.6-9.1 8-19.8h8.3c-2 17.7-15.3 33.9-15.3 33.9h-8.6l-1.3-19.2h-0.1l-7.7 19.2h-9z"/>
		<polygon class="st1" points="122.6 22.6 121.3 30.7 109.8 30.7 109.1 35.6 118.8 35.6 117.7 42.9 108 42.9 107.2 48.3 118.7 48.3 117.4 56.4 96.6 56.4 101.7 22.6"/>
	</g></g></svg>