<?xml version="1.0" encoding="UTF-8" standalone="no"?>
<!-- Created with Inkscape (http://www.inkscape.org/) -->

<svg
   xmlns:dc="http://purl.org/dc/elements/1.1/"
   xmlns:cc="http://creativecommons.org/ns#"
   xmlns:rdf="http://www.w3.org/1999/02/22-rdf-syntax-ns#"
   xmlns:svg="http://www.w3.org/2000/svg"
   xmlns="http://www.w3.org/2000/svg"
   xmlns:sodipodi="http://sodipodi.sourceforge.net/DTD/sodipodi-0.dtd"
   xmlns:inkscape="http://www.inkscape.org/namespaces/inkscape"
   width="250mm"
   height="80.995766mm"
   viewBox="0 0 250 80.995766"
   version="1.1"
   id="svg403"
   inkscape:version="0.92.4 (5da689c313, 2019-01-14)"
   sodipodi:docname="Faurecia.svg">
  <defs
     id="defs397" />
  <sodipodi:namedview
     id="base"
     pagecolor="#ffffff"
     bordercolor="#666666"
     borderopacity="1.0"
     inkscape:pageopacity="0.0"
     inkscape:pageshadow="2"
     inkscape:zoom="1.4"
     inkscape:cx="536.05939"
     inkscape:cy="125.97648"
     inkscape:document-units="mm"
     inkscape:current-layer="layer1"
     showgrid="false"
     inkscape:pagecheckerboard="true"
     fit-margin-top="0"
     fit-margin-left="0"
     fit-margin-right="0"
     fit-margin-bottom="0"
     inkscape:window-width="1920"
     inkscape:window-height="1001"
     inkscape:window-x="-9"
     inkscape:window-y="-9"
     inkscape:window-maximized="1" />
  <metadata
     id="metadata400">
    <rdf:RDF>
      <cc:Work
         rdf:about="">
        <dc:format>image/svg+xml</dc:format>
        <dc:type
           rdf:resource="http://purl.org/dc/dcmitype/StillImage" />
        <dc:title></dc:title>
      </cc:Work>
    </rdf:RDF>
  </metadata>
  <g
     inkscape:label="Calque 1"
     inkscape:groupmode="layer"
     id="layer1"
     transform="translate(4.8635125,-140.44849)">
    <g
       id="g632">
      <path
         d="m 40.314746,170.40284 c 0,-5.2546 3.136179,-8.22144 7.628781,-8.22144 4.321506,0 7.88278,3.21908 7.88278,7.79811 0,5.2546 -3.561274,8.47544 -7.88278,8.47544 -4.492602,0 -7.628781,-3.39018 -7.628781,-8.05211 m 180.284414,0 c 0,-5.2546 3.13618,-8.22144 7.62878,-8.22144 4.32327,0 7.88278,3.21908 7.88278,7.88278 0,5.16993 -3.55951,8.39077 -7.88278,8.39077 -4.4926,0 -7.62878,-3.39018 -7.62878,-8.05211 m -75.18186,-8.39078 c 3.05151,0 4.57727,1.35643 5.2546,2.96509 l -12.46005,4.2386 c 0.0847,-4.40794 2.88218,-7.20369 7.20545,-7.20369 m -45.17649,9.40854 v -15.4269 h -8.053881 v 14.49381 c 0,4.40793 -1.608659,7.54411 -6.185927,7.54411 -4.577269,0 -6.187691,-3.13618 -6.187691,-7.54411 V 155.9937 h -8.052112 v 15.4269 c 0,8.13678 4.831267,13.89937 14.239803,13.89937 9.408536,0 14.239808,-5.76259 14.239808,-13.89937 m 97.47377,13.13738 h 8.05211 V 155.9937 h -8.05211 z m -89.67566,-16.10423 v 16.10423 h 8.05211 v -15.51156 c 0,-4.49084 2.45709,-6.27236 9.91653,-6.01836 v -7.45945 c -12.62938,-0.93133 -17.96864,3.81527 -17.96864,12.88514 m 50.51576,13.30671 -3.39018,-5.76259 c -2.03375,1.52399 -4.32327,2.54175 -7.96745,2.54175 -3.39017,0 -6.18769,-1.10243 -7.71344,-3.39018 l 19.83483,-6.27236 c -0.76376,-8.7312 -5.6797,-13.56247 -13.81647,-13.56247 -8.73121,0 -14.66314,6.01836 -14.66314,14.9189 0,9.2392 6.52636,15.08646 16.35822,15.08646 4.91594,0 8.73121,-1.26999 11.35763,-3.55951 m 22.54591,-19.07107 c 2.79752,0 4.40794,0.762 6.18769,1.94909 l 3.47485,-6.10302 c -2.62642,-2.11842 -5.93193,-3.22085 -10.33987,-3.22085 -8.39254,0 -15.34223,5.59503 -15.34223,15.00356 0,9.40854 6.78036,15.0018 15.76556,15.0018 4.49261,0 7.62878,-1.01599 10.25697,-3.39017 l -3.55951,-5.84903 c -1.69686,1.27176 -3.30728,2.12018 -6.1877,2.12018 -4.66193,0 -8.13854,-2.96684 -8.13854,-7.71344 0,-4.91594 3.47661,-7.79812 7.88278,-7.79812 M 55.910973,184.55798 h 7.544115 V 155.9937 h -7.544115 v 2.71285 c -2.203086,-2.37418 -5.169932,-3.47661 -9.154537,-3.47661 -8.475444,0 -14.663135,6.10303 -14.663135,15.08823 0,8.98521 6.103025,15.0018 14.663135,15.0018 3.899938,0 6.951451,-1.10066 9.154537,-3.47484 z m 180.284407,0 h 7.54412 V 155.9937 h -7.54412 v 2.96685 c -2.37241,-2.54351 -5.59326,-3.73061 -9.15277,-3.73061 -8.47721,0 -14.6649,6.10303 -14.6649,15.08823 0,8.98521 6.10303,15.0018 14.6649,15.0018 3.55951,0 6.78036,-1.18709 9.15277,-3.81351 z m -38.4808,-33.73421 h 8.05211 v -7.79811 h -8.05211 z M 28.618458,163.70715 v -7.71345 h -12.88338 v -1.52575 c 0,-5.08527 3.134415,-7.37478 13.306711,-6.18769 v -7.45945 C 14.547987,138.95639 7.682966,144.21099 7.682966,153.95995 v 30.59803 h 8.052112 v -20.85083"
         style="fill:#243a8d;fill-opacity:1;fill-rule:nonzero;stroke:none;stroke-width:1.76388001"
         id="path164"
         inkscape:connector-curvature="0" />
      <path
         inkscape:connector-curvature="0"
         id="path166"
         style="fill:#e60672;fill-opacity:1;fill-rule:nonzero;stroke:none;stroke-width:1.76388001"
         d="m -4.8635125,163.7054 h 7.3747823 v -7.71344 h -7.3747823 z" />
      <g
         id="g592">
        <g
           id="g538">
          <g
             transform="matrix(1.76388,0,0,-1.76388,33.636696,199.45573)"
             id="g168">
            <path
               inkscape:connector-curvature="0"
               id="path170"
               style="fill:#243a8d;fill-opacity:1;fill-rule:nonzero;stroke:none"
               d="M 0,0 C 0,0.543 0.396,0.939 0.968,0.939 1.525,0.939 1.921,0.543 1.921,0 1.921,-0.542 1.525,-0.939 0.968,-0.939 0.396,-0.939 0,-0.542 0,0 M 0.249,-1.98 H 1.716 V -9.679 H 0.249 Z" />
          </g>
          <g
             transform="matrix(1.76388,0,0,-1.76388,40.648102,205.19891)"
             id="g172">
            <path
               inkscape:connector-curvature="0"
               id="path174"
               style="fill:#243a8d;fill-opacity:1;fill-rule:nonzero;stroke:none"
               d="M 0,0 C 0,0.44 0,0.851 -0.015,1.276 H 1.423 V 0.322 h 0.014 c 0.352,0.646 1.32,1.189 2.405,1.189 1.775,0 2.86,-1.13 2.86,-3.124 v -4.81 H 5.235 v 4.414 c 0,1.335 -0.469,2.244 -1.818,2.244 -1.32,0 -1.95,-0.998 -1.95,-1.965 V -6.423 H 0" />
          </g>
          <g
             transform="matrix(1.76388,0,0,-1.76388,55.653446,214.27761)"
             id="g176">
            <path
               inkscape:connector-curvature="0"
               id="path178"
               style="fill:#243a8d;fill-opacity:1;fill-rule:nonzero;stroke:none"
               d="m 0,0 h 3.124 c 0.997,0 1.584,0.058 1.584,0.807 0,0.645 -0.47,0.747 -1.438,0.982 L 2.273,2.038 c -1.422,0.352 -2.405,0.646 -2.405,2.317 0,0.66 0.22,1.13 0.572,1.438 0.498,0.44 1.188,0.63 2.229,0.63 H 5.514 L 5.411,5.147 H 2.61 C 1.701,5.147 1.261,5.059 1.261,4.4 1.261,3.754 1.584,3.651 2.625,3.402 L 3.652,3.153 C 4.957,2.83 6.115,2.522 6.115,0.924 6.115,0.044 5.793,-0.47 5.294,-0.792 4.708,-1.159 3.96,-1.276 2.977,-1.276 H 0" />
          </g>
          <g
             transform="matrix(1.76388,0,0,-1.76388,69.261781,205.19891)"
             id="g180">
            <path
               inkscape:connector-curvature="0"
               id="path182"
               style="fill:#243a8d;fill-opacity:1;fill-rule:nonzero;stroke:none"
               d="M 0,0 C 0,0.44 0,0.851 -0.015,1.276 H 1.467 C 1.467,0.968 1.452,0.631 1.452,0.293 h 0.029 c 0.499,0.69 1.423,1.218 2.596,1.218 2.273,0 3.754,-1.716 3.754,-4.121 0,-2.376 -1.584,-4.078 -3.783,-4.078 -1.217,0 -2.083,0.499 -2.611,1.159 0.015,-0.337 0.03,-1.143 0.03,-1.892 V -9.063 H 0 Z m 6.292,-2.552 c 0,1.599 -0.924,2.787 -2.464,2.787 -1.54,0 -2.464,-1.203 -2.464,-2.787 0,-1.657 0.909,-2.86 2.464,-2.86 1.54,0 2.464,1.203 2.464,2.86" />
          </g>
          <g
             transform="matrix(1.76388,0,0,-1.76388,85.690577,199.45573)"
             id="g184">
            <path
               inkscape:connector-curvature="0"
               id="path186"
               style="fill:#243a8d;fill-opacity:1;fill-rule:nonzero;stroke:none"
               d="M 0,0 C 0,0.543 0.396,0.939 0.968,0.939 1.525,0.939 1.921,0.543 1.921,0 1.921,-0.542 1.525,-0.939 0.968,-0.939 0.396,-0.939 0,-0.542 0,0 M 0.249,-1.98 H 1.716 V -9.679 H 0.249 Z" />
          </g>
          <g
             transform="matrix(1.76388,0,0,-1.76388,92.701982,205.19891)"
             id="g188">
            <path
               inkscape:connector-curvature="0"
               id="path190"
               style="fill:#243a8d;fill-opacity:1;fill-rule:nonzero;stroke:none"
               d="M 0,0 C 0,0.44 0,0.851 -0.015,1.276 H 1.408 V 0.293 h 0.015 c 0.249,0.719 0.953,1.173 1.833,1.173 0.19,0 0.293,-0.014 0.396,-0.029 V 0.088 C 3.52,0.118 3.285,0.132 3.124,0.132 1.73,0.132 1.467,-0.909 1.467,-2.361 V -6.423 H 0" />
          </g>
          <g
             transform="matrix(1.76388,0,0,-1.76388,101.08394,199.45573)"
             id="g192">
            <path
               inkscape:connector-curvature="0"
               id="path194"
               style="fill:#243a8d;fill-opacity:1;fill-rule:nonzero;stroke:none"
               d="M 0,0 C 0,0.543 0.396,0.939 0.968,0.939 1.525,0.939 1.921,0.543 1.921,0 1.921,-0.542 1.525,-0.939 0.968,-0.939 0.396,-0.939 0,-0.542 0,0 M 0.249,-1.98 H 1.716 V -9.679 H 0.249 Z" />
          </g>
          <g
             transform="matrix(1.76388,0,0,-1.76388,108.09536,205.19891)"
             id="g196">
            <path
               inkscape:connector-curvature="0"
               id="path198"
               style="fill:#243a8d;fill-opacity:1;fill-rule:nonzero;stroke:none"
               d="M 0,0 C 0,0.44 0,0.851 -0.015,1.276 H 1.423 V 0.322 h 0.014 c 0.352,0.646 1.32,1.189 2.406,1.189 1.774,0 2.859,-1.13 2.859,-3.124 v -4.81 H 5.235 v 4.414 c 0,1.335 -0.469,2.244 -1.818,2.244 -1.32,0 -1.95,-0.998 -1.95,-1.965 V -6.423 H 0" />
          </g>
          <g
             transform="matrix(1.76388,0,0,-1.76388,122.94545,219.08947)"
             id="g200">
            <path
               inkscape:connector-curvature="0"
               id="path202"
               style="fill:#243a8d;fill-opacity:1;fill-rule:nonzero;stroke:none"
               d="m 0,0 0.953,1.085 c 0.689,-0.631 1.57,-1.115 2.772,-1.115 1.393,0 2.552,0.661 2.552,2.479 0,0.161 0,0.44 0.015,0.601 H 6.262 C 5.749,2.449 4.737,1.863 3.593,1.863 c -2.2,0 -3.666,1.613 -3.666,3.768 0,2.156 1.554,3.755 3.695,3.755 1.188,0 2.068,-0.455 2.581,-1.1 h 0.015 v 0.865 h 1.393 c -0.014,-0.411 0,-0.645 0,-1.07 V 2.376 C 7.611,-0.308 5.719,-1.335 3.607,-1.335 2.259,-1.335 0.983,-0.88 0,0 m 6.277,5.602 c 0,1.437 -0.939,2.522 -2.449,2.522 -1.467,0 -2.376,-1.114 -2.376,-2.522 0,-1.393 0.909,-2.478 2.376,-2.478 1.495,0 2.449,1.114 2.449,2.478" />
          </g>
        </g>
        <g
           id="g555">
          <g
             transform="matrix(1.76388,0,0,-1.76388,146.74727,205.19891)"
             id="g204">
            <path
               inkscape:connector-curvature="0"
               id="path206"
               style="fill:#243a8d;fill-opacity:1;fill-rule:nonzero;stroke:none"
               d="M 0,0 C 0,0.44 0,0.851 -0.015,1.276 H 1.423 V 0.322 h 0.014 c 0.352,0.646 1.276,1.189 2.361,1.189 1.13,0 1.966,-0.47 2.435,-1.32 h 0.029 c 0.352,0.557 1.202,1.32 2.698,1.32 1.775,0 2.831,-1.13 2.831,-3.124 v -4.81 h -1.467 v 4.414 c 0,1.335 -0.44,2.244 -1.788,2.244 -1.321,0 -1.907,-0.998 -1.907,-1.965 V -6.423 H 5.162 v 4.414 c 0,1.335 -0.44,2.244 -1.789,2.244 -1.32,0 -1.906,-0.998 -1.906,-1.965 V -6.423 H 0" />
          </g>
          <g
             transform="matrix(1.76388,0,0,-1.76388,170.44676,209.80264)"
             id="g208">
            <path
               inkscape:connector-curvature="0"
               id="path210"
               style="fill:#243a8d;fill-opacity:1;fill-rule:nonzero;stroke:none"
               d="M 0,0 C 0,2.478 1.672,4.121 4.047,4.121 6.423,4.121 8.095,2.478 8.095,0 8.095,-2.42 6.468,-4.077 4.047,-4.077 1.628,-4.077 0,-2.42 0,0 m 6.57,0.015 c 0,1.613 -1.012,2.83 -2.523,2.83 -1.51,0 -2.522,-1.217 -2.522,-2.83 0,-1.643 0.997,-2.816 2.522,-2.816 1.526,0 2.523,1.173 2.523,2.816" />
          </g>
          <g
             transform="matrix(1.76388,0,0,-1.76388,190.21103,214.84734)"
             id="g212">
            <path
               inkscape:connector-curvature="0"
               id="path214"
               style="fill:#243a8d;fill-opacity:1;fill-rule:nonzero;stroke:none"
               d="M 0,0 V -0.953 H -1.379 V 9.532 H 0.088 V 7.978 c 0,-0.777 0,-1.437 -0.015,-2.214 H 0.102 C 0.601,6.453 1.525,6.981 2.698,6.981 4.971,6.981 6.453,5.265 6.453,2.86 6.453,0.484 4.869,-1.217 2.669,-1.217 1.452,-1.217 0.528,-0.704 0,0 m 4.913,2.919 c 0,1.598 -0.924,2.786 -2.464,2.786 -1.54,0 -2.464,-1.202 -2.464,-2.786 0,-1.658 0.909,-2.86 2.464,-2.86 1.54,0 2.464,1.202 2.464,2.86" />
          </g>
          <g
             transform="matrix(1.76388,0,0,-1.76388,204.20742,199.45573)"
             id="g216">
            <path
               inkscape:connector-curvature="0"
               id="path218"
               style="fill:#243a8d;fill-opacity:1;fill-rule:nonzero;stroke:none"
               d="M 0,0 C 0,0.543 0.396,0.939 0.968,0.939 1.526,0.939 1.922,0.543 1.922,0 1.922,-0.542 1.526,-0.939 0.968,-0.939 0.396,-0.939 0,-0.542 0,0 M 0.25,-1.98 H 1.716 V -9.679 H 0.25 Z" />
          </g>
          <path
             inkscape:connector-curvature="0"
             id="path220"
             style="fill:#243a8d;fill-opacity:1;fill-rule:nonzero;stroke:none;stroke-width:1.76388001"
             d="m 211.21884,216.52655 h 2.58761 v -18.49428 h -2.58761 z" />
          <g
             transform="matrix(1.76388,0,0,-1.76388,217.35185,199.45573)"
             id="g222">
            <path
               inkscape:connector-curvature="0"
               id="path224"
               style="fill:#243a8d;fill-opacity:1;fill-rule:nonzero;stroke:none"
               d="M 0,0 C 0,0.543 0.396,0.939 0.968,0.939 1.526,0.939 1.922,0.543 1.922,0 1.922,-0.542 1.526,-0.939 0.968,-0.939 0.396,-0.939 0,-0.542 0,0 M 0.25,-1.98 H 1.716 V -9.679 H 0.25 Z" />
          </g>
          <g
             transform="matrix(1.76388,0,0,-1.76388,225.00886,205.19891)"
             id="g226">
            <path
               inkscape:connector-curvature="0"
               id="path228"
               style="fill:#243a8d;fill-opacity:1;fill-rule:nonzero;stroke:none"
               d="M 0,0 H -0.983 V 1.276 H 0 V 3.373 H 1.466 V 1.276 H 3.652 V 0 H 1.466 V -6.423 H 0" />
          </g>
          <g
             transform="matrix(1.76388,0,0,-1.76388,237.1955,216.60592)"
             id="g230">
            <path
               inkscape:connector-curvature="0"
               id="path232"
               style="fill:#243a8d;fill-opacity:1;fill-rule:nonzero;stroke:none"
               d="m 0,0 -2.948,7.744 h 1.554 L 0.087,3.564 C 0.337,2.831 0.557,2.185 0.748,1.569 H 0.777 C 1.026,2.288 1.188,2.86 1.452,3.608 L 2.933,7.744 H 4.502 L 0.396,-2.596 H -1.1" />
          </g>
        </g>
      </g>
    </g>
  </g>
</svg>
