<?xml version="1.0" encoding="UTF-8" standalone="no"?>
<!-- Created with Inkscape (http://www.inkscape.org/) -->

<svg
   xmlns:dc="http://purl.org/dc/elements/1.1/"
   xmlns:cc="http://creativecommons.org/ns#"
   xmlns:rdf="http://www.w3.org/1999/02/22-rdf-syntax-ns#"
   xmlns:svg="http://www.w3.org/2000/svg"
   xmlns="http://www.w3.org/2000/svg"
   version="1.1"
   width="448.2052"
   height="143.4315"
   id="svg3283">
  <defs
     id="defs3285" />
  <g
     transform="translate(-170.18312,-517.78928)"
     id="layer1">
    <path
       d="m 266.63817,518.78928 0,7.27363 20.38409,0 0,-7.27363 -20.38409,0 z m 28.55569,0 0,7.27363 20.3841,0 0,-7.27363 -20.3841,0 z m -2.60414,11.67371 c -8.87992,0 -17.59137,1.3114 -24.33519,5.29807 -6.5768,3.82074 -11.06055,10.36698 -11.22473,20.83308 l 23.70663,0 c -0.32903,-3.82178 2.49312,-11.94309 11.04511,-11.94309 8.71579,0 11.31453,6.74957 11.31453,10.23693 l 0,7.81242 c -9.86555,-0.33224 -22.37006,0.17039 -32.23741,4.48989 -14.96499,6.478 -17.60036,20.58739 -17.60036,26.40055 0,16.27925 11.57169,25.23317 27.02914,25.23317 11.18267,0 19.7318,-3.92633 25.32297,-13.55947 l 0.26924,0 c 0,3.48775 0.40624,7.31492 0.89798,11.13493 l 22.18005,0 c -0.32973,-2.49135 -1.00322,-5.00603 -1.16736,-9.15938 l 0,-45.52747 c 0,-25.08269 -18.59103,-31.24963 -35.20074,-31.24963 z m 76.50772,0 c -24.50331,0 -36.8171,22.08776 -36.8171,44.18052 0,22.0924 12.31379,44.1805 36.8171,44.1805 22.69334,0 35.72515,-11.60475 36.5477,-32.86599 l -24.0658,0 c -0.16408,6.81027 -2.94432,16.25339 -12.4819,16.25339 -10.52503,0 -10.65683,-21.0935 -11.31453,-28.73527 0.32902,-6.47766 0.43138,-26.40055 10.95534,-26.40055 9.53831,0 12.4079,8.36484 12.57169,15.17582 l 24.3352,0 c 0.16408,-19.60106 -15.49767,-31.78842 -36.5477,-31.78842 z m 153.01542,1.43676 c -24.90918,0 -39.24164,19.27742 -39.24164,44.36012 0,27.90733 11.23947,44.00091 39.24164,44.00091 19.04791,0 34.78981,-6.79087 36.90688,-27.38833 l -21.91066,0 c -2.28014,7.64071 -6.53008,10.77573 -14.99622,10.77573 -12.53577,0 -14.00846,-10.12525 -14.00846,-20.92288 l 53.51948,0 c 0,-5.48162 0.023,-10.83463 -0.62859,-15.984 -0.65084,-5.31603 -1.7618,-10.25634 -4.04088,-14.90643 -6.83758,-14.61871 -19.53713,-19.93512 -34.84155,-19.93512 z m 95.27545,1.70616 c -12.30696,-0.32542 -22.85571,2.87713 -28.10671,15.71462 l -0.35919,0 -0.44899,-14.72684 -22.44945,0 c 0.32796,6.01321 0.80818,12.83964 0.80818,16.25341 l 0.1796,65.28298 24.425,0 0,-40.409 c 0.16494,-5.36345 0.60632,-9.90613 3.23272,-14.45745 2.46155,-3.41269 7.93056,-5.6928 12.03291,-6.01645 l 10.68593,0 0,-21.64127 z m -446.20519,1.16737 0,81.4466 25.32298,0 0,-32.32721 26.49035,0 0,32.32721 25.32297,0 0,-81.4466 -25.32297,0 0,32.23741 -26.40055,0 0,-32.23741 -25.41278,0 z m 239.22129,0.1796 0,81.44659 25.23318,0 0,-40.3192 23.79641,40.3192 30.89044,0 -30.26185,-45.61727 28.91488,-35.82932 -29.54347,0 -23.79641,33.22518 0,-33.22518 -25.23318,0 z m 111.70845,13.55947 c 11.88419,0 14.27784,8.46363 14.27784,17.60036 l -28.2863,0 c 0.32544,-9.13673 2.77439,-17.60036 14.00846,-17.60036 z m -222.6087,28.64548 c 1.29944,-0.006 2.52312,-0.0201 3.59191,0 0,9.80052 -0.44865,25.05358 -14.09826,25.05358 -6.90652,0 -12.03289,-4.96617 -12.03289,-11.94309 0,-11.77371 13.44307,-13.07007 22.53924,-13.11049 z m -128.32104,50.82555 0,25.32297 5.29808,0 0,-9.60835 0.0897,-0.0897 5.29805,9.69817 6.10626,0 -6.46545,-10.14716 6.01646,-7.63281 -5.83686,0 -5.11846,7.36342 -0.0897,-0.0897 0,-14.81663 -5.29808,0 z m 23.79642,0 0,4.57969 5.56746,0 0,-4.57969 -5.56746,0 z m 54.68685,0 0,25.32297 5.20827,0 0,-10.59613 c 0.0701,-2.55275 1.49854,-4.0409 3.14291,-4.0409 2.58871,0 3.19862,2.15299 3.23273,4.0409 l 0,10.59613 5.20827,0 0,-11.49411 c 0,-0.59444 -0.0794,-1.69969 -0.35919,-2.78373 -0.62968,-2.5535 -3.99743,-3.8613 -5.74706,-3.8613 -2.65802,0 -4.30382,1.08403 -5.38786,2.69393 l -0.0897,-0.0897 0,-9.78795 -5.20827,0 z m 325.78636,0 0,10.05736 -0.0897,0 c -1.01473,-2.09768 -3.2381,-2.87353 -5.47767,-2.87353 -5.45721,0 -7.81241,4.58078 -7.81241,9.33897 0,4.51181 2.0621,9.24916 7.27362,9.24916 2.55457,0 4.82716,-0.87389 6.01646,-3.3225 l 0.0897,0 0,0.17959 0.0897,2.69392 3.41232,0 c -0.0701,-1.014 -0.17959,-2.09336 -0.17959,-3.14291 l 0,-22.18006 -3.32252,0 z m -359.46053,2.33474 -5.29808,1.88576 0,3.50211 -3.50211,0 0,3.50212 3.50211,0 0,8.62059 c 0,3.81208 0.93606,5.92664 5.02868,5.92664 0.73491,0 3.53589,-0.16925 4.1307,-0.44899 l 0,-3.14291 c -0.55962,0.0341 -1.14582,0.0897 -1.70616,0.0897 -1.8186,0 -2.15514,-0.56535 -2.15514,-2.87351 l 0,-8.17161 3.9511,0 0,-3.50211 -3.9511,0 0,-5.38787 z m 285.10796,0.89798 0,22.09025 3.50212,0 0,-19.8453 8.08179,19.8453 3.23272,0 7.99201,-19.8453 0.0897,0 0,19.8453 3.50211,0 0,-22.09025 -5.83686,0 -7.09403,18.13916 -7.27362,-18.13916 -6.19604,0 z m -266.78922,3.95111 c -5.21258,0 -7.8124,4.68673 -7.8124,9.33897 0,4.6519 2.59982,9.24916 7.8124,9.24916 4.82753,0 7.54805,-2.43565 7.72261,-6.91442 l -5.11847,0 c -0.036,1.43389 -0.57508,3.41232 -2.60414,3.41232 -2.23883,0 -2.28518,-4.40728 -2.42454,-6.01645 0.0693,-1.36458 0.0965,-5.56747 2.33474,-5.56747 2.02909,0 2.65983,1.79811 2.69394,3.23272 l 5.11847,0 c 0.036,-4.12854 -3.24493,-6.73483 -7.72261,-6.73483 z m 48.84999,0 c -5.35088,0 -8.44098,4.05708 -8.44098,9.33897 0,5.87637 2.42454,9.24916 8.44098,9.24916 4.09369,0 7.53799,-1.40912 7.99201,-5.74704 l -4.75929,0 c -0.48921,1.60917 -1.41376,2.24494 -3.23272,2.24494 -2.69286,0 -2.96331,-2.12713 -2.96331,-4.40009 l 11.49411,0 c 0,-1.15407 -0.0391,-2.23776 -0.1796,-3.32252 -0.13929,-1.11887 -0.31896,-2.16412 -0.80818,-3.14293 -1.46981,-3.07898 -4.25425,-4.22049 -7.54302,-4.22049 z m 27.11893,0 c -2.65982,0 -4.30311,1.08403 -5.38785,2.69393 l -0.0897,-0.0897 0,-2.06535 -5.20827,0 0,17.60038 5.20827,0 0,-10.59615 c 0.0684,-2.55275 1.49855,-4.0409 3.14292,-4.0409 2.58867,0 3.19858,2.15299 3.23271,4.0409 l 0,10.59615 5.20828,0 0,-11.49413 c 0,-0.59444 -0.0794,-1.69969 -0.3592,-2.78373 -0.62964,-2.55351 -3.99922,-3.86131 -5.74706,-3.86131 z m 38.61306,0 c -5.31712,0 -8.1716,3.99742 -8.1716,9.06958 0,4.93203 2.19107,8.71037 7.54301,8.71037 2.16952,0 4.69715,-0.86383 5.74706,-2.96331 l 0.0897,0 c -0.10599,3.95326 -0.12668,7.90219 -4.84907,7.90219 -2.34337,0 -3.90081,-0.97953 -4.0409,-3.32252 l -3.50211,0 c 0.036,4.05743 2.68781,5.65727 6.46544,5.65727 6.43598,0 9.24916,-2.54308 9.24916,-8.97977 l 0,-12.3921 c 0,-1.04884 0.0755,-2.09337 0.1796,-3.14293 l -3.41232,0 -0.0897,2.60414 c 0,0.24454 -0.46766,-0.73815 -0.53878,-0.80818 -1.08296,-1.60918 -2.95615,-2.33474 -4.66949,-2.33474 z m 25.95156,0 c -5.56171,0 -8.1716,4.28658 -8.1716,9.42877 0,5.17666 2.27043,9.15936 7.9022,9.15936 4.19786,0 7.28798,-1.93854 7.8124,-5.92664 l -3.5021,0 c -0.38505,2.55457 -1.72162,3.50212 -4.3103,3.50212 -3.39291,0 -4.64471,-3.11813 -4.40009,-6.19606 l 12.39209,0 0,-1.70615 c 0,-4.86164 -2.47516,-8.1569 -7.7226,-8.2614 z m 43.82131,0 c -1.78374,0 -3.97984,0.85022 -5.02868,3.05312 l -0.0897,0 0,-2.51434 -3.23271,0 0,17.60036 3.3225,0 0,-9.06956 c 0,-0.41989 -0.11464,-2.68317 0.26925,-3.59192 1.01543,-2.34408 2.94681,-2.87353 4.3103,-2.87353 3.18425,0 3.86131,2.07648 3.86131,5.11848 l 0,10.41653 3.32252,0 0,-9.06956 c 0,-0.41989 -0.0959,-2.16343 0.35919,-3.77151 0.62965,-2.1688 2.84838,-2.69394 3.86131,-2.69394 3.8832,0 4.22048,2.70543 4.22048,5.11848 l 0,10.41653 3.32252,0 0,-12.39208 c 0,-3.14902 -2.40802,-5.74706 -6.46543,-5.74706 -2.58871,0 -4.57826,1.153 -5.83686,3.32251 -0.91019,-2.16951 -2.87247,-3.32251 -6.19605,-3.32251 z m 35.64973,0 c -3.46298,0 -6.46975,1.36133 -6.64504,5.20827 l 3.50211,0 c 0.036,-1.81857 1.64329,-2.78373 3.32252,-2.78373 3.53229,0 3.6817,1.80601 3.6817,4.84908 l -2.96331,0 c -4.16266,0 -8.5308,1.44466 -8.5308,6.37565 0,3.42884 3.06319,4.93886 6.10626,4.93886 2.41412,0 4.3929,-0.93891 5.47765,-3.14291 0.036,0.80531 0.11039,1.62032 0.17959,2.42453 0.036,0.42063 0.67314,0.26925 0.98778,0.26925 l 2.24495,0 c -0.10515,-1.46909 -0.1796,-3.00139 -0.1796,-3.77151 l 0,-8.35118 c 0,-4.89578 -3.58041,-6.01646 -7.18381,-6.01646 z m 27.29853,0 c -1.74927,0 -4.17847,0.93927 -5.29808,3.14292 l -0.0897,0 0,-2.60414 -3.23272,0 0,17.60036 3.32252,0 0,-9.60835 c 0,-3.42778 0.94649,-4.18027 1.43677,-4.66949 1.39869,-1.39975 3.23272,-1.25717 3.23272,-1.25717 2.79844,0 3.9511,1.4964 3.9511,4.4001 l 0,11.13491 3.32251,0 0,-12.21249 c 0,-5.63246 -5.4209,-5.92665 -6.64502,-5.92665 z m 64.11561,0 c -3.46298,0 -6.47048,1.36133 -6.64504,5.20827 l 3.50211,0 c 0.036,-1.81857 1.55352,-2.78373 3.23272,-2.78373 3.53338,0 3.77151,1.80601 3.77151,4.84908 l -3.05312,0 c -4.16193,0 -8.5308,1.44466 -8.5308,6.37565 0,3.42884 3.06353,4.93886 6.10626,4.93886 2.41448,0 4.39397,-0.93891 5.47766,-3.14291 l 0.0897,0 c 0.0358,0.80531 0.10954,1.62032 0.1796,2.42453 0.0358,0.42063 0.58294,0.26925 0.89798,0.26925 l 2.24494,0 c -0.10458,-1.46909 -0.0897,-3.00139 -0.0897,-3.77151 l 0,-8.35118 c 0,-4.89578 -3.58114,-6.01646 -7.18382,-6.01646 z m 50.28676,0 c -5.56172,0 -8.17161,4.28658 -8.17161,9.42877 0,5.17666 2.27044,9.15936 7.90221,9.15936 4.19679,0 7.288,-1.93854 7.81241,-5.92664 l -3.50211,0 c -0.38505,2.55457 -1.72159,3.50212 -4.3103,3.50212 -3.39292,0 -4.64578,-3.11813 -4.40009,-6.19606 l 12.3921,0 0,-1.70615 c 0,-4.86164 -2.4752,-8.1569 -7.72261,-8.2614 z m -196.02856,0.26925 c -2.41521,0 -4.62747,1.2676 -5.11848,3.68171 l -0.0897,0 0,-3.41232 -3.32252,0 0,17.60036 3.32252,0 0,-8.71037 c 0,-3.70864 0.74172,-5.96652 4.93888,-6.10626 0.45509,0 0.98275,0.006 1.43677,0.1796 l 0,-3.14293 c -0.38396,0 -0.74818,-0.0897 -1.16737,-0.0897 z m -204.82875,0.26925 0,17.60036 5.20828,0 0,-17.60036 -5.20828,0 z m 375.35473,1.79596 c 3.7787,0 4.93889,3.73198 4.93889,6.91443 0,3.28837 -0.91632,7.09401 -4.93889,7.09401 -3.74277,0 -4.93888,-3.80564 -4.93888,-7.09401 0,-3.28877 0.9508,-6.91443 4.93888,-6.91443 z m -221.35153,0.0897 c 3.60268,0 4.93888,3.07252 4.93888,6.46543 0,3.39364 -1.3362,6.46545 -4.93888,6.46545 -3.88286,0 -4.93888,-3.70148 -4.93888,-6.46545 0,-2.76327 1.05602,-6.46543 4.93888,-6.46543 z m 25.41277,0 c 3.21836,0 4.56029,2.27043 4.4899,5.20826 l -8.88999,0 c 0,-2.86739 1.63576,-5.20826 4.40009,-5.20826 z m 221.17194,0 c 3.21729,0 4.56101,2.27043 4.48989,5.20826 l -8.88998,0 c 0,-2.86739 1.63685,-5.20826 4.40009,-5.20826 z m -312.58609,1.07758 c 2.55386,0 3.14293,1.75788 3.14293,3.6817 l -6.10624,0 c 0.0693,-1.92382 0.55099,-3.6817 2.96331,-3.6817 z m 171.69338,6.01644 3.3225,0 c 0.0701,3.25249 -0.66269,6.64504 -4.57967,6.64504 -1.96012,0 -3.41232,-1.06393 -3.41232,-3.23272 0,-2.55276 2.64111,-3.30815 4.66949,-3.41232 z m 91.41413,0 3.32252,0 c 0.0702,3.25249 -0.66126,6.64504 -4.57969,6.64504 -1.95903,0 -3.50211,-1.06393 -3.50211,-3.23272 0,-2.55276 2.73022,-3.30815 4.75928,-3.41232 z m -219.73517,3.9511 0,4.66949 4.48989,0 0,-4.66949 -4.48989,0 z m 286.18553,0 0,4.66949 4.48989,0 0,-4.66949 -4.48989,0 z"
       id="path46"
       style="fill:#231f20;fill-opacity:1;fill-rule:evenodd;stroke:none" />
  </g>
</svg>
