<?xml version="1.0" encoding="UTF-8" standalone="no"?>
<!DOCTYPE svg PUBLIC "-//W3C//DTD SVG 1.0//EN" "http://www.w3.org/TR/2001/REC-SVG-20010904/DTD/svg10.dtd">
<!-- Created with Inkscape (http://www.inkscape.org/) -->
<svg
   xmlns:svg="http://www.w3.org/2000/svg"
   xmlns="http://www.w3.org/2000/svg"
   version="1.0"
   width="800"
   height="800"
   id="svg2">
  <defs
     id="defs4" />
  <g
     id="layer1">
    <rect
       width="700.00018"
       height="700.00024"
       ry="75.714287"
       x="53.144302"
       y="53.662132"
       id="rect4385"
       style="opacity:1;fill:#000000;fill-opacity:1;fill-rule:evenodd;stroke:none;stroke-width:4;stroke-linecap:square;stroke-linejoin:miter;stroke-miterlimit:4;stroke-dasharray:none;stroke-dashoffset:0;stroke-opacity:1" />
    <path
       d="M 402.02823,89.88981 C 359.33943,89.88981 317.62599,94.04728 277.24698,101.98356 L 295.52823,220.95231 L 246.71573,199.38981 L 279.55948,130.79606 L 218.55948,108.32731 L 185.65323,177.95231 L 165.52823,134.76481 L 165.49698,134.76481 C 143.3453,143.52064 121.77904,153.4523 100.90323,164.51481 L 184.02823,324.73356 C 200.01964,315.3088 216.62355,306.91238 233.74698,299.57731 L 214.55948,252.95231 L 272.05948,282.95231 L 297.46573,233.63981 L 304.05948,276.38981 C 335.59568,268.9582 368.37456,265.04606 402.02823,265.04606 C 402.74783,265.04606 403.46567,265.04248 404.18448,265.04606 L 410.27823,211.51481 C 383.63025,211.27342 352.91938,214.49753 353.15323,215.07731 C 352.86222,210.16418 352.77999,202.48058 350.99698,196.17106 C 367.5446,193.40506 384.10561,192.69923 400.65323,193.29606 L 398.49698,150.79606 C 381.94936,150.24327 365.4196,151.25075 348.87198,154.73356 L 346.37198,134.73356 C 366.37199,132.37912 386.37198,131.51598 406.37198,131.17106 L 402.68448,89.88981 C 402.46566,89.88959 402.2471,89.88981 402.02823,89.88981 z M 427.71573,90.38981 L 417.90323,265.35856 C 438.12941,266.10175 458.00615,268.24855 477.46573,271.73356 L 482.49698,231.42106 L 510.99698,279.01481 L 543.87198,237.57731 L 557.43448,295.79606 L 598.49698,255.45231 L 609.21573,312.23356 L 669.93448,294.73356 L 644.93448,128.67106 L 578.49698,195.07731 L 572.43448,103.67106 L 486.34073,200.92106 L 499.30948,97.20231 C 475.83825,93.64281 451.94213,91.34119 427.71573,90.38981 z"
       id="path4355"
       style="fill:#ffffff;fill-rule:evenodd;stroke:#000000;stroke-width:1px;stroke-linecap:butt;stroke-linejoin:miter;stroke-opacity:1" />
    <path
       d="M 209.1236,368.67952 C 332.63386,287.51416 474.6052,288.14006 597.54025,370.39193 L 402.04071,736.37058 L 209.1236,368.67952 z"
       id="path4363"
       style="fill:#7d1619;fill-opacity:1;fill-rule:evenodd;stroke:none;stroke-width:4;stroke-linecap:square;stroke-linejoin:miter;stroke-miterlimit:4;stroke-dashoffset:0;stroke-opacity:1" />
  </g>
</svg>
