<?xml version="1.0" encoding="UTF-8" standalone="no"?>
<!-- Created with Inkscape (http://www.inkscape.org/) -->

<svg
   xmlns:dc="http://purl.org/dc/elements/1.1/"
   xmlns:cc="http://creativecommons.org/ns#"
   xmlns:rdf="http://www.w3.org/1999/02/22-rdf-syntax-ns#"
   xmlns:svg="http://www.w3.org/2000/svg"
   xmlns="http://www.w3.org/2000/svg"
   version="1.1"
   width="1024"
   height="305"
   id="svg3117">
  <defs
     id="defs3119">
    <clipPath
       id="clipPath3009">
      <path
         d="m 225.731,738.071 156.947,0 0,45.235 -156.947,0 0,-45.235 z"
         id="path3011" />
    </clipPath>
  </defs>
  <metadata
     id="metadata3122">
    <rdf:RDF>
      <cc:Work
         rdf:about="">
        <dc:format>image/svg+xml</dc:format>
        <dc:type
           rdf:resource="http://purl.org/dc/dcmitype/StillImage" />
        <dc:title></dc:title>
      </cc:Work>
    </rdf:RDF>
  </metadata>
  <g
     transform="translate(0,-463)"
     id="layer1">
    <g
       transform="matrix(6.4723951,0,0,-6.4723951,-1456.9295,5539.4777)"
       id="g3005">
      <g
         clip-path="url(#clipPath3009)"
         id="g3007">
        <g
           transform="translate(232.3363,738.1826)"
           id="g3013">
          <path
             d="m 0,0 0,6.513 -1.27,0 0,-2.61 -4.065,0 0,2.61 -1.27,0 0,-6.513 1.27,0 0,3.147 4.065,0 L -1.27,0 0,0 z m 5.474,0.849 c 0.663,-0.639 1.58,-0.96 2.753,-0.96 1.287,0 2.276,0.302 2.966,0.91 0.69,0.605 1.035,1.443 1.035,2.512 0,1.044 -0.344,1.857 -1.032,2.441 C 10.507,6.336 9.518,6.628 8.227,6.628 7.08,6.628 6.168,6.312 5.493,5.677 4.817,5.042 4.479,4.255 4.479,3.311 4.479,2.31 4.811,1.489 5.474,0.849 M 6.43,5.152 c 0.41,0.451 1.009,0.675 1.797,0.675 1.779,0 2.668,-0.838 2.668,-2.516 0,-0.828 -0.229,-1.473 -0.684,-1.933 C 9.756,0.918 9.095,0.689 8.227,0.689 c -0.767,0 -1.36,0.25 -1.781,0.752 -0.422,0.5 -0.633,1.125 -0.633,1.87 0,0.777 0.205,1.39 0.617,1.841 m 16.839,0.56 0,0.801 -7.323,0 0,-0.801 2.959,0 0,-5.712 1.271,0 0,5.712 3.093,0 z m 9.719,0 0,0.801 -5.557,0 0,-6.513 5.488,0 0,0.8 -4.217,0 0,2.347 3.073,0 0,0.756 -3.073,0 0,1.809 4.286,0 z M 42.968,0 l 0,0.8 -4.203,0 0,5.713 -1.271,0 0,-6.513 5.474,0 z m 5.904,-0.111 c 0.939,0 1.689,0.17 2.25,0.511 0.561,0.34 0.842,0.755 0.842,1.245 0,0.45 -0.128,0.821 -0.385,1.113 -0.255,0.292 -0.701,0.544 -1.336,0.754 L 49.481,3.766 C 48.989,3.931 48.664,4.059 48.505,4.152 48.347,4.244 48.223,4.358 48.134,4.494 48.045,4.631 48,4.782 48,4.948 c 0,0.27 0.125,0.49 0.372,0.663 0.248,0.171 0.588,0.257 1.02,0.257 0.296,0 0.618,-0.041 0.965,-0.12 0.347,-0.08 0.606,-0.162 0.774,-0.249 l 0.375,0.774 C 51.105,6.507 50.389,6.624 49.36,6.624 48.59,6.624 47.959,6.463 47.467,6.144 46.976,5.824 46.73,5.42 46.73,4.935 c 0,-0.4 0.126,-0.743 0.378,-1.028 0.253,-0.284 0.696,-0.53 1.331,-0.738 l 0.749,-0.244 c 0.674,-0.222 1.094,-0.427 1.261,-0.615 0.168,-0.189 0.252,-0.392 0.252,-0.611 0,-0.295 -0.151,-0.536 -0.452,-0.725 -0.3,-0.19 -0.699,-0.285 -1.194,-0.285 -0.28,0 -0.596,0.041 -0.95,0.122 -0.353,0.082 -0.648,0.183 -0.886,0.304 L 46.756,0.298 c 0.585,-0.273 1.289,-0.409 2.116,-0.409 m 20.759,0.022 c 0.572,0 1.08,0.045 1.524,0.134 L 70.983,0.831 C 70.675,0.721 70.407,0.666 70.178,0.666 69.793,0.666 69.521,0.74 69.365,0.889 69.209,1.037 69.13,1.315 69.13,1.725 l 0,1.466 1.581,0 0,0.712 -1.581,0 0,1.152 -1.207,-0.326 0,-0.812 -2.362,0 c -0.491,0.266 -0.737,0.592 -0.737,0.978 0,0.711 0.562,1.066 1.689,1.066 0.381,0 0.813,-0.14 1.296,-0.422 l 0.526,0.685 c -0.474,0.27 -1.147,0.404 -2.018,0.404 -0.822,0 -1.478,-0.161 -1.967,-0.481 -0.489,-0.323 -0.734,-0.71 -0.734,-1.164 0,-0.447 0.3,-0.879 0.897,-1.293 C 64.123,3.42 63.855,3.16 63.71,2.907 63.563,2.656 63.49,2.357 63.49,2.013 c 0,-0.669 0.242,-1.187 0.724,-1.553 0.483,-0.366 1.166,-0.549 2.051,-0.549 0.868,0 1.61,0.105 2.224,0.316 0.367,-0.211 0.749,-0.316 1.142,-0.316 m -1.638,0.975 c -0.288,-0.147 -0.72,-0.22 -1.296,-0.22 -1.291,0 -1.936,0.463 -1.936,1.388 0,0.397 0.201,0.776 0.603,1.137 l 2.559,0 0,-1.794 c 0,-0.206 0.023,-0.376 0.07,-0.511 M 89.453,0 86.752,2.996 c 0.496,0.081 0.924,0.284 1.283,0.611 0.361,0.328 0.539,0.697 0.539,1.106 0,1.244 -1.116,1.867 -3.353,1.867 -0.279,0 -0.723,-0.011 -1.336,-0.034 C 83.274,6.525 82.944,6.513 82.897,6.513 l 0,-6.513 1.271,0 0,2.84 C 84.781,2.811 85.231,2.796 85.515,2.796 L 87.997,0 89.453,0 z m -4.535,5.757 c 0.803,0 1.391,-0.08 1.764,-0.24 0.373,-0.16 0.56,-0.422 0.56,-0.788 0,-0.441 -0.175,-0.747 -0.521,-0.919 -0.348,-0.173 -0.902,-0.259 -1.665,-0.259 -0.287,0 -0.583,0.015 -0.888,0.045 l 0,2.116 c 0.373,0.03 0.622,0.045 0.75,0.045 m 14.14,-0.045 0,0.801 -5.558,0 0,-6.513 5.488,0 0,0.8 -4.219,0 0,2.347 3.075,0 0,0.756 -3.075,0 0,1.809 4.289,0 z m 6.201,-5.823 c 0.939,0 1.69,0.17 2.25,0.511 0.562,0.34 0.842,0.755 0.842,1.245 0,0.45 -0.128,0.821 -0.384,1.113 -0.256,0.292 -0.702,0.544 -1.337,0.754 l -0.763,0.254 c -0.49,0.165 -0.814,0.293 -0.974,0.386 -0.159,0.092 -0.282,0.206 -0.372,0.342 -0.088,0.137 -0.133,0.288 -0.133,0.454 0,0.27 0.124,0.49 0.372,0.663 0.248,0.171 0.588,0.257 1.019,0.257 0.297,0 0.618,-0.041 0.966,-0.12 0.347,-0.08 0.605,-0.162 0.775,-0.249 l 0.373,0.774 c -0.401,0.234 -1.117,0.351 -2.145,0.351 -0.772,0 -1.402,-0.161 -1.893,-0.48 -0.491,-0.32 -0.737,-0.724 -0.737,-1.209 0,-0.4 0.126,-0.743 0.378,-1.028 0.252,-0.284 0.695,-0.53 1.33,-0.738 l 0.75,-0.244 c 0.673,-0.222 1.093,-0.427 1.261,-0.615 0.166,-0.189 0.25,-0.392 0.25,-0.611 0,-0.295 -0.151,-0.536 -0.451,-0.725 -0.299,-0.19 -0.697,-0.285 -1.194,-0.285 -0.278,0 -0.596,0.041 -0.949,0.122 -0.354,0.082 -0.649,0.183 -0.886,0.304 l -0.464,-0.817 c 0.584,-0.273 1.29,-0.409 2.116,-0.409 m 8.203,0.96 c 0.663,-0.639 1.581,-0.96 2.754,-0.96 1.288,0 2.276,0.302 2.966,0.91 0.69,0.605 1.035,1.443 1.035,2.512 0,1.044 -0.344,1.857 -1.031,2.441 -0.688,0.584 -1.678,0.876 -2.97,0.876 -1.147,0 -2.059,-0.316 -2.734,-0.951 -0.675,-0.635 -1.012,-1.422 -1.012,-2.366 0,-1.001 0.331,-1.822 0.992,-2.462 m 0.957,4.303 c 0.411,0.451 1.011,0.675 1.797,0.675 1.779,0 2.667,-0.838 2.667,-2.516 0,-0.828 -0.226,-1.473 -0.682,-1.933 -0.454,-0.46 -1.117,-0.689 -1.985,-0.689 -0.765,0 -1.361,0.25 -1.781,0.752 -0.422,0.5 -0.632,1.125 -0.632,1.87 0,0.777 0.206,1.39 0.616,1.841 M 131.392,0 l -2.7,2.996 c 0.496,0.081 0.923,0.284 1.284,0.611 0.36,0.328 0.539,0.697 0.539,1.106 0,1.244 -1.118,1.867 -3.353,1.867 -0.28,0 -0.725,-0.011 -1.338,-0.034 -0.611,-0.021 -0.94,-0.033 -0.986,-0.033 l 0,-6.513 1.27,0 0,2.84 c 0.614,-0.029 1.062,-0.044 1.346,-0.044 L 129.937,0 l 1.455,0 z m -4.535,5.757 c 0.804,0 1.393,-0.08 1.766,-0.24 0.373,-0.16 0.558,-0.422 0.558,-0.788 0,-0.441 -0.174,-0.747 -0.521,-0.919 -0.347,-0.173 -0.902,-0.259 -1.664,-0.259 -0.288,0 -0.583,0.015 -0.888,0.045 l 0,2.116 c 0.372,0.03 0.622,0.045 0.749,0.045 m 14.534,-0.045 0,0.801 -7.324,0 0,-0.801 2.961,0 0,-5.712 1.271,0 0,5.712 3.092,0 z m 5.857,-5.823 c 0.941,0 1.692,0.17 2.252,0.511 0.561,0.34 0.841,0.755 0.841,1.245 0,0.45 -0.126,0.821 -0.383,1.113 -0.256,0.292 -0.701,0.544 -1.338,0.754 l -0.762,0.254 c -0.49,0.165 -0.816,0.293 -0.975,0.386 -0.158,0.092 -0.282,0.206 -0.37,0.342 -0.09,0.137 -0.135,0.288 -0.135,0.454 0,0.27 0.125,0.49 0.373,0.663 0.247,0.171 0.586,0.257 1.019,0.257 0.295,0 0.618,-0.041 0.965,-0.12 0.347,-0.08 0.606,-0.162 0.775,-0.249 l 0.375,0.774 c -0.402,0.234 -1.118,0.351 -2.147,0.351 -0.769,0 -1.401,-0.161 -1.892,-0.48 -0.492,-0.32 -0.737,-0.724 -0.737,-1.209 0,-0.4 0.126,-0.743 0.377,-1.028 0.252,-0.284 0.695,-0.53 1.331,-0.738 l 0.749,-0.244 c 0.673,-0.222 1.094,-0.427 1.261,-0.615 0.168,-0.189 0.251,-0.392 0.251,-0.611 0,-0.295 -0.15,-0.536 -0.451,-0.725 -0.301,-0.19 -0.698,-0.285 -1.192,-0.285 -0.282,0 -0.597,0.041 -0.951,0.122 -0.354,0.082 -0.649,0.183 -0.886,0.304 l -0.464,-0.817 c 0.584,-0.273 1.289,-0.409 2.114,-0.409"
             id="path3015"
             style="fill:#000000;fill-opacity:1;fill-rule:nonzero;stroke:none" />
        </g>
        <g
           transform="translate(242.4159,756.2349)"
           id="g3017">
          <path
             d="m 0,0 0,4.18 -11.979,0 0,22.332 -4.706,0 L -16.685,0 0,0 z"
             id="path3019"
             style="fill:#000000;fill-opacity:1;fill-rule:nonzero;stroke:none" />
        </g>
        <g
           transform="translate(279.5456,755.3217)"
           id="g3021">
          <path
             d="m 0,0 0,27.424 -4.524,0 0,-15.34 -14.785,15.9 0,-27.09 4.525,0 0,14.934 L 0,0 z"
             id="path3023"
             style="fill:#000000;fill-opacity:1;fill-rule:nonzero;stroke:none" />
        </g>
        <g
           transform="translate(306.4809,770.5307)"
           id="g3025">
          <path
             d="m 0,0 c 0,3.74 -1.131,6.741 -3.393,9.003 -2.263,2.263 -5.324,3.211 -9.184,3.211 -0.966,0 -3.324,0.133 -7.077,0 l 0,-26.52 5.882,-0.009 C -4.59,-14.315 0,-9.53 0,0 m -4.887,-0.29 c 0,-3.099 -0.672,-5.513 -2.016,-7.238 -1.346,-1.726 -3.207,-2.478 -5.584,-2.478 l -2.461,0 0,18.095 c 0,0 1.646,-0.001 2.153,-0.001 5.272,0 7.908,-2.707 7.908,-8.378"
             id="path3027"
             style="fill:#000000;fill-opacity:1;fill-rule:nonzero;stroke:none" />
        </g>
        <g
           transform="translate(356.0064,778.5659)"
           id="g3029">
          <path
             d="m 0,0 0,4.18 -16.92,0 0,-26.511 16.721,0 0,4.181 -12.016,0 0,7.943 8.758,0 0,3.999 -8.758,0 0,6.208 L 0,0 z"
             id="path3031"
             style="fill:#000000;fill-opacity:1;fill-rule:nonzero;stroke:none" />
        </g>
        <g
           transform="translate(378.0735,770.9096)"
           id="g3033">
          <path
             d="m 0,0 c 0.928,1.291 1.393,2.722 1.393,4.288 0,5.213 -3.999,7.606 -10.731,7.606 -1.086,0 -3.656,-0.059 -3.656,-0.059 l -3.059,0 0,-26.51 4.886,0 0,11.073 c 0.028,0 0.05,0 0.078,-0.001 l 9.612,-11.072 6.028,0 -10.2,11.387 c 0.804,0.142 1.613,0.326 2.138,0.557 C -2.12,-2.123 -0.93,-1.291 0,0 M -3.494,4.344 C -3.494,2.739 -3.948,1.66 -4.859,1.105 -5.771,0.549 -7.21,0.381 -9.176,0.381 l -1.991,0 0,7.365 1.593,0 c 2.1,0 3.638,-0.152 4.615,-0.669 0.977,-0.519 1.465,-1.431 1.465,-2.733"
             id="path3035"
             style="fill:#000000;fill-opacity:1;fill-rule:nonzero;stroke:none" />
        </g>
        <g
           transform="translate(331.781,755.3217)"
           id="g3037">
          <path
             d="m 0,0 0,27.424 -4.524,0 0,-15.34 -14.785,15.9 0,-27.09 4.525,0 0,14.934 L 0,0 z"
             id="path3039"
             style="fill:#000000;fill-opacity:1;fill-rule:nonzero;stroke:none" />
        </g>
        <path
           d="m 252.865,760.491 -4.705,0 0,-4.256 4.705,0 0,4.256 z"
           id="path3041"
           style="fill:#97bf0d;fill-opacity:1;fill-rule:nonzero;stroke:none" />
        <path
           d="m 252.865,782.746 -4.705,0 0,-19.525 4.705,0 0,19.525 z"
           id="path3043"
           style="fill:#97bf0d;fill-opacity:1;fill-rule:nonzero;stroke:none" />
      </g>
    </g>
  </g>
</svg>
