<?xml version="1.0" encoding="utf-8"?>
<!-- Generator: Adobe Illustrator 20.0.0, SVG Export Plug-In . SVG Version: 6.00 Build 0)  -->
<svg version="1.1" id="Ebene_1" xmlns="http://www.w3.org/2000/svg" xmlns:xlink="http://www.w3.org/1999/xlink" x="0px" y="0px"
	 viewBox="0 0 209.6 70.3" style="enable-background:new 0 0 209.6 70.3;" xml:space="preserve">
<style type="text/css">
	.st0{fill:#333333;}
</style>
<g>
	<path class="st0" d="M46.2,48.7V32.4L40,48.7h-2.8L31,32.4v16.3h-6.4V24.1h8.8l5.2,13.6l5.1-13.6h8.8v24.6H46.2z"/>
	<path class="st0" d="M54.7,39.8c0-5.6,4.1-9.3,9.7-9.3c3.9,0,6.2,1.7,7.3,3.3L68,37.2c-0.7-1-1.8-1.7-3.4-1.7
		c-2.4,0-4.2,1.6-4.2,4.3s1.8,4.4,4.2,4.4c1.5,0,2.7-0.7,3.4-1.7l3.7,3.5c-1.1,1.6-3.4,3.3-7.3,3.3C58.9,49.2,54.7,45.4,54.7,39.8z"
		/>
	<path class="st0" d="M97,48.7V32.4l-6.2,16.3H88l-6.2-16.3v16.3h-6.4V24.1h8.8l5.2,13.6l5.1-13.6h8.8v24.6H97z"/>
	<path class="st0" d="M117.3,48.7v-1.8c-1.1,1.3-3.3,2.2-5.5,2.2c-2.7,0-6.1-1.9-6.1-5.9c0-4.3,3.4-5.8,6.1-5.8
		c2.4,0,4.5,0.8,5.5,2.1v-1.8c0-1.6-1.3-2.6-3.6-2.6c-1.8,0-3.5,0.7-5,1.9l-2.1-4c2.3-2,5.4-2.8,8.1-2.8c4.3,0,8.3,1.6,8.3,7.1v11.2
		h-5.7C117.3,48.5,117.3,48.7,117.3,48.7z M117.3,44.1v-1.6c-0.6-0.8-1.9-1.3-3.2-1.3c-1.5,0-2.8,0.7-2.8,2.1c0,1.4,1.4,2.1,2.8,2.1
		C115.3,45.4,116.7,45,117.3,44.1z"/>
	<path class="st0" d="M136.8,48.7l-3.9-6.3l-1.7,2v4.3h-5.7V24.1h5.7V38l5.4-7.1h6.9l-6.6,8.1l6.9,9.7H136.8z"/>
	<path class="st0" d="M145.4,48.7V24.1h5.7v24.6H145.4z"/>
	<path class="st0" d="M153.1,39.8c0-5.2,3.9-9.3,9.5-9.3c5.3,0,9.1,3.9,9.1,9.9v1.3H159c0.4,1.6,1.9,2.9,4.5,2.9
		c1.3,0,3.3-0.6,4.4-1.5l2.5,3.7c-1.8,1.6-4.7,2.4-7.5,2.4C157.4,49.2,153.1,45.6,153.1,39.8z M162.6,35c-2.5,0-3.4,1.5-3.7,2.8h7.4
		C166.2,36.5,165.2,35,162.6,35z"/>
	<path class="st0" d="M173.6,48.7V30.9h5.7v2.2c1.2-1.4,3.5-2.7,5.6-2.7v5.5c-0.3-0.1-0.8-0.1-1.4-0.1c-1.5,0-3.4,0.6-4.2,1.6v11.4
		L173.6,48.7L173.6,48.7z"/>
</g>
</svg>
