<?xml version="1.0" encoding="UTF-8" standalone="no"?>
<!-- Created with Inkscape (http://www.inkscape.org/) -->

<svg
   xmlns:dc="http://purl.org/dc/elements/1.1/"
   xmlns:cc="http://creativecommons.org/ns#"
   xmlns:rdf="http://www.w3.org/1999/02/22-rdf-syntax-ns#"
   xmlns:svg="http://www.w3.org/2000/svg"
   xmlns="http://www.w3.org/2000/svg"
   xmlns:sodipodi="http://sodipodi.sourceforge.net/DTD/sodipodi-0.dtd"
   xmlns:inkscape="http://www.inkscape.org/namespaces/inkscape"
   width="818.85999"
   height="510"
   id="svg3428"
   version="1.1"
   inkscape:version="0.48.1 "
   sodipodi:docname="Neues Dokument 3">
  <defs
     id="defs3430" />
  <sodipodi:namedview
     id="base"
     pagecolor="#ffffff"
     bordercolor="#666666"
     borderopacity="1.0"
     inkscape:pageopacity="0.0"
     inkscape:pageshadow="2"
     inkscape:zoom="1.546"
     inkscape:cx="409.42998"
     inkscape:cy="280.87322"
     inkscape:document-units="px"
     inkscape:current-layer="layer1"
     showgrid="false"
     fit-margin-top="0"
     fit-margin-left="0"
     fit-margin-right="0"
     fit-margin-bottom="0"
     inkscape:window-width="1680"
     inkscape:window-height="990"
     inkscape:window-x="-4"
     inkscape:window-y="-4"
     inkscape:window-maximized="1" />
  <metadata
     id="metadata3433">
    <rdf:RDF>
      <cc:Work
         rdf:about="">
        <dc:format>image/svg+xml</dc:format>
        <dc:type
           rdf:resource="http://purl.org/dc/dcmitype/StillImage" />
        <dc:title></dc:title>
      </cc:Work>
    </rdf:RDF>
  </metadata>
  <g
     inkscape:label="Ebene 1"
     inkscape:groupmode="layer"
     id="layer1"
     transform="translate(-487.31143,-55.50406)">
    <g
       id="g230"
       transform="matrix(23.778951,0,0,-23.778951,864.25939,414.92932)">
      <path
         inkscape:connector-curvature="0"
         d="m 0,0 0.336,0 c 0.284,0 0.409,-0.128 0.409,-0.549 0,-0.402 -0.163,-0.589 -0.409,-0.589 L 0,-1.138 0,0 z m -0.373,0.318 0,-1.774 0.773,0 c 0.456,0 0.735,0.347 0.735,0.931 0,0.589 -0.313,0.843 -0.77,0.843 l -0.738,0"
         style="fill:#001f45;fill-opacity:1;fill-rule:nonzero;stroke:none"
         id="path232" />
    </g>
    <g
       id="g234"
       transform="matrix(23.778951,0,0,-23.778951,1221.1101,407.32006)">
      <path
         inkscape:connector-curvature="0"
         d="m 0,0 0,-1.775 0.358,0 0,1.243 0.706,-1.243 0.38,0 0,1.775 -0.355,0 0,-1.22 L 0.397,0 0,0"
         style="fill:#001f45;fill-opacity:1;fill-rule:nonzero;stroke:none"
         id="path236" />
    </g>
    <g
       id="g238"
       transform="matrix(23.778951,0,0,-23.778951,1196.1422,417.35478)">
      <path
         inkscape:connector-curvature="0"
         d="m 0,0 0.217,-0.687 -0.442,0 L 0,0 z m -0.215,0.421 -0.632,-1.775 0.405,0 0.114,0.348 0.651,0 0.109,-0.348 0.415,0 -0.627,1.775 -0.435,0"
         style="fill:#001f45;fill-opacity:1;fill-rule:nonzero;stroke:none"
         id="path240" />
    </g>
    <g
       id="g242"
       transform="matrix(23.778951,0,0,-23.778951,1144.1139,407.32006)">
      <path
         inkscape:connector-curvature="0"
         d="m 0,0 0,-1.775 1.188,0 0,0.328 -0.803,0 L 0.385,0 0,0"
         style="fill:#001f45;fill-opacity:1;fill-rule:nonzero;stroke:none"
         id="path244" />
    </g>
    <g
       id="g246"
       transform="matrix(23.778951,0,0,-23.778951,1099.9563,407.32006)">
      <path
         inkscape:connector-curvature="0"
         d="m 0,0 0,-1.775 0.38,0 0,0.79 0.669,0 0,-0.79 0.385,0 0,1.775 -0.385,0 0,-0.671 -0.669,0 L 0.38,0 0,0"
         style="fill:#001f45;fill-opacity:1;fill-rule:nonzero;stroke:none"
         id="path248" />
    </g>
    <g
       id="g250"
       transform="matrix(23.778951,0,0,-23.778951,1093.2031,421.46853)">
      <path
         inkscape:connector-curvature="0"
         d="m 0,0 c -0.01,0.308 -0.242,0.629 -0.75,0.629 -0.474,0 -0.832,-0.296 -0.832,-0.938 0,-0.632 0.365,-0.92 0.824,-0.92 0.536,0 0.733,0.387 0.753,0.649 l -0.38,0 c -0.037,-0.207 -0.18,-0.319 -0.38,-0.319 -0.222,0 -0.422,0.161 -0.422,0.588 0,0.422 0.182,0.612 0.419,0.612 0.242,0 0.351,-0.116 0.385,-0.301 L 0,0"
         style="fill:#001f45;fill-opacity:1;fill-rule:nonzero;stroke:none"
         id="path252" />
    </g>
    <g
       id="g254"
       transform="matrix(23.778951,0,0,-23.778951,1015.3508,419.23331)">
      <path
         inkscape:connector-curvature="0"
         d="M 0,0 C 0,-0.294 0.163,-0.432 0.469,-0.504 L 0.75,-0.568 c 0.294,-0.066 0.316,-0.133 0.316,-0.212 0,-0.151 -0.123,-0.227 -0.36,-0.227 -0.232,0 -0.341,0.086 -0.363,0.279 l -0.368,0 c 0,-0.393 0.304,-0.593 0.748,-0.593 0.484,0 0.714,0.274 0.714,0.568 0,0.309 -0.203,0.435 -0.464,0.496 l -0.314,0.072 c -0.252,0.059 -0.303,0.106 -0.303,0.212 0,0.121 0.111,0.212 0.306,0.212 0.209,0 0.338,-0.093 0.348,-0.266 l 0.368,0 C 1.363,0.328 1.076,0.558 0.689,0.558 0.23,0.558 0,0.313 0,0"
         style="fill:#001f45;fill-opacity:1;fill-rule:nonzero;stroke:none"
         id="path256" />
    </g>
    <g
       id="g258"
       transform="matrix(23.778951,0,0,-23.778951,976.59115,407.36762)">
      <path
         inkscape:connector-curvature="0"
         d="m 0,0 0,-0.326 0.526,0 0,-1.449 0.39,0 0,1.449 0.523,0 L 1.439,0 0,0"
         style="fill:#001f45;fill-opacity:1;fill-rule:nonzero;stroke:none"
         id="path260" />
    </g>
    <g
       id="g262"
       transform="matrix(23.778951,0,0,-23.778951,937.47478,407.36762)">
      <path
         inkscape:connector-curvature="0"
         d="m 0,0 0,-1.097 c 0,-0.53 0.257,-0.725 0.718,-0.725 0.506,0 0.716,0.244 0.716,0.725 l 0,1.097 -0.392,0 0,-1.092 c 0,-0.281 -0.079,-0.406 -0.321,-0.406 -0.22,0 -0.328,0.098 -0.328,0.406 L 0.393,0 0,0"
         style="fill:#001f45;fill-opacity:1;fill-rule:nonzero;stroke:none"
         id="path264" />
    </g>
    <g
       id="g266"
       transform="matrix(23.778951,0,0,-23.778951,898.38218,407.36762)">
      <path
         inkscape:connector-curvature="0"
         d="m 0,0 0,-1.775 1.349,0 0,0.329 -0.973,0 0,0.444 0.849,0 0,0.318 -0.849,0 0,0.358 0.926,0 L 1.302,0 0,0"
         style="fill:#001f45;fill-opacity:1;fill-rule:nonzero;stroke:none"
         id="path268" />
    </g>
    <g
       id="g270"
       transform="matrix(23.778951,0,0,-23.778951,1274.1609,414.90554)">
      <path
         inkscape:connector-curvature="0"
         d="m 0,0 0.336,0 c 0.284,0 0.41,-0.128 0.41,-0.549 0,-0.402 -0.163,-0.589 -0.41,-0.589 L 0,-1.138 0,0 z m -0.373,0.318 0,-1.774 0.773,0 c 0.457,0 0.736,0.348 0.736,0.931 0,0.589 -0.314,0.843 -0.771,0.843 l -0.738,0"
         style="fill:#001f45;fill-opacity:1;fill-rule:nonzero;stroke:none"
         id="path272" />
    </g>
    <g
       id="g274"
       transform="matrix(23.778951,0,0,-23.778951,766.0761,407.93831)">
      <path
         inkscape:connector-curvature="0"
         d="m 0,0 0,-6.416 4.435,0 0,1.187 -3.043,0 L 1.392,0 0,0"
         style="fill:#001f45;fill-opacity:1;fill-rule:nonzero;stroke:none"
         id="path276" />
    </g>
    <g
       id="g278"
       transform="matrix(23.778951,0,0,-23.778951,631.5348,407.93831)">
      <path
         inkscape:connector-curvature="0"
         d="m 0,0 0,-1.178 1.901,0 0,-5.238 1.409,0 0,5.238 1.892,0 L 5.202,0 0,0"
         style="fill:#001f45;fill-opacity:1;fill-rule:nonzero;stroke:none"
         id="path280" />
    </g>
    <g
       id="g282"
       transform="matrix(23.778951,0,0,-23.778951,535.75318,435.30788)">
      <path
         inkscape:connector-curvature="0"
         d="m 0,0 1.499,0 c 0.741,0 1.026,-0.257 1.026,-0.879 0,-0.559 -0.392,-0.799 -1.053,-0.799 L 0,-1.678 0,0 z m -1.356,1.151 0,-6.416 1.356,0 0,2.49 0.357,0 1.901,-2.49 1.767,0 -2.124,2.49 c 1.088,0.125 2.016,0.83 2.016,2.092 0,1.04 -0.678,1.834 -2.106,1.834 l -3.167,0"
         style="fill:#001f45;fill-opacity:1;fill-rule:nonzero;stroke:none"
         id="path284" />
    </g>
    <g
       id="g286"
       transform="matrix(23.778951,0,0,-23.778951,1181.8273,234.23308)">
      <path
         inkscape:connector-curvature="0"
         d="m 0,0 0,-6.405 4.864,0 0,1.185 -3.51,0 0,1.603 3.065,0 0,1.149 -3.065,0 0,1.292 3.341,0 L 4.695,0 0,0"
         style="fill:#4e81ad;fill-opacity:1;fill-rule:nonzero;stroke:none"
         id="path288" />
    </g>
    <g
       id="g290"
       transform="matrix(23.778951,0,0,-23.778951,961.0635,261.53131)">
      <path
         inkscape:connector-curvature="0"
         d="m 0,0 1.194,0 c 0.695,0 0.971,-0.337 0.971,-0.904 0,-0.665 -0.383,-0.94 -0.971,-0.94 L 0,-1.844 0,0 z m -1.381,1.149 0,-6.405 1.381,0 0,2.272 1.292,0 c 1.577,0 2.245,0.694 2.245,2.089 0,1.305 -0.731,2.044 -2.129,2.044 l -2.789,0"
         style="fill:#4e81ad;fill-opacity:1;fill-rule:nonzero;stroke:none"
         id="path292" />
    </g>
    <g
       id="g294"
       transform="matrix(23.778951,0,0,-23.778951,1087.5913,261.53131)">
      <path
         inkscape:connector-curvature="0"
         d="m 0,0 1.194,0 c 0.695,0 0.971,-0.337 0.971,-0.904 0,-0.665 -0.383,-0.94 -0.971,-0.94 L 0,-1.844 0,0 z m -1.381,1.149 0,-6.405 1.381,0 0,2.272 1.292,0 c 1.577,0 2.245,0.694 2.245,2.089 0,1.305 -0.731,2.044 -2.129,2.044 l -2.789,0"
         style="fill:#4e81ad;fill-opacity:1;fill-rule:nonzero;stroke:none"
         id="path296" />
    </g>
    <g
       id="g298"
       transform="matrix(23.778951,0,0,-23.778951,788.00029,234.2093)">
      <path
         inkscape:connector-curvature="0"
         d="m 0,0 0,-3.958 c 0,-1.913 0.927,-2.617 2.592,-2.617 1.827,0 2.584,0.882 2.584,2.617 l 0,3.958 -1.417,0 0,-3.94 c 0,-1.014 -0.285,-1.467 -1.158,-1.467 -0.793,0 -1.185,0.355 -1.185,1.467 L 1.416,0 0,0"
         style="fill:#4e81ad;fill-opacity:1;fill-rule:nonzero;stroke:none"
         id="path300" />
    </g>
    <g
       id="g302"
       transform="matrix(23.778951,0,0,-23.778951,682.16018,261.53131)">
      <path
         inkscape:connector-curvature="0"
         d="m 0,0 1.497,0 c 0.739,0 1.024,-0.257 1.024,-0.877 0,-0.559 -0.392,-0.798 -1.051,-0.798 L 0,-1.675 0,0 z m -1.354,1.149 0,-6.405 1.354,0 0,2.485 0.356,0 1.898,-2.485 1.764,0 -2.12,2.485 c 1.086,0.125 2.013,0.829 2.013,2.089 0,1.038 -0.677,1.831 -2.102,1.831 l -3.163,0"
         style="fill:#4e81ad;fill-opacity:1;fill-rule:nonzero;stroke:none"
         id="path304" />
    </g>
    <g
       id="g306"
       transform="matrix(23.778951,0,0,-23.778951,492.30904,311.51467)">
      <path
         inkscape:connector-curvature="0"
         d="m 0,0 c 0,-2.058 1.283,-3.323 2.94,-3.323 1.995,0 3.029,0.936 3.029,3.608 l -2.655,0 0,-1.105 1.399,0 C 4.594,-1.702 4,-2.156 3.154,-2.156 c -0.989,0 -1.738,0.677 -1.738,2.129 0,1.55 0.731,2.308 1.738,2.308 0.775,0 1.363,-0.428 1.434,-1.034 l 1.372,0 C 5.853,2.432 4.757,3.421 3.234,3.421 1.14,3.421 0,1.996 0,0"
         style="fill:#4e81ad;fill-opacity:1;fill-rule:nonzero;stroke:none"
         id="path308" />
    </g>
    <g
       id="g310"
       transform="matrix(23.778951,0,0,-23.778951,1172.601,60.50406)">
      <path
         inkscape:connector-curvature="0"
         d="m 0,0 0,-6.405 1.292,0 0,4.484 2.548,-4.484 1.371,0 0,6.405 -1.282,0 0,-4.403 L 1.434,0 0,0"
         style="fill:#4e81ad;fill-opacity:1;fill-rule:nonzero;stroke:none"
         id="path312" />
    </g>
    <g
       id="g314"
       transform="matrix(23.778951,0,0,-23.778951,1034.3502,60.50406)">
      <path
         inkscape:connector-curvature="0"
         d="m 0,0 0,-6.405 4.864,0 0,1.185 -3.51,0 0,1.603 3.065,0 0,1.149 -3.065,0 0,1.292 3.341,0 L 4.695,0 0,0"
         style="fill:#4e81ad;fill-opacity:1;fill-rule:nonzero;stroke:none"
         id="path316" />
    </g>
    <path
       inkscape:connector-curvature="0"
       d="m 971.21711,212.80824 32.83149,0 0,-152.30418 -32.83149,0 0,152.30418 z"
       style="fill:#4e81ad;fill-opacity:1;fill-rule:nonzero;stroke:none"
       id="path318" />
    <g
       id="g320"
       transform="matrix(23.778951,0,0,-23.778951,851.75166,87.826075)">
      <path
         inkscape:connector-curvature="0"
         d="M 0,0 1.212,0 C 2.236,0 2.69,-0.462 2.69,-1.982 2.69,-3.431 2.102,-4.107 1.212,-4.107 L 0,-4.107 0,0 z m -1.345,1.149 0,-6.405 2.788,0 c 1.648,0 2.655,1.256 2.655,3.363 0,2.125 -1.131,3.042 -2.78,3.042 l -2.663,0"
         style="fill:#4e81ad;fill-opacity:1;fill-rule:nonzero;stroke:none"
         id="path322" />
    </g>
    <g
       id="g324"
       transform="matrix(23.778951,0,0,-23.778951,681.51815,60.50406)">
      <path
         inkscape:connector-curvature="0"
         d="m 0,0 0,-6.405 4.864,0 0,1.185 -3.51,0 0,1.603 3.065,0 0,1.149 -3.065,0 0,1.292 3.341,0 L 4.695,0 0,0"
         style="fill:#4e81ad;fill-opacity:1;fill-rule:nonzero;stroke:none"
         id="path326" />
    </g>
    <g
       id="g328"
       transform="matrix(23.778951,0,0,-23.778951,503.50893,60.50406)">
      <path
         inkscape:connector-curvature="0"
         d="m 0,0 0,-6.405 1.292,0 0,4.368 1.39,-2.171 0.792,0 1.435,2.171 0,-4.368 1.3,0 L 6.209,0 4.9,0 3.109,-2.802 1.399,0 0,0"
         style="fill:#4e81ad;fill-opacity:1;fill-rule:nonzero;stroke:none"
         id="path330" />
    </g>
  </g>
</svg>
