<?xml version="1.0" encoding="UTF-8" standalone="no"?>
<!-- Created with Inkscape (http://www.inkscape.org/) -->
<svg
   xmlns:svg="http://www.w3.org/2000/svg"
   xmlns="http://www.w3.org/2000/svg"
   version="1.0"
   width="726.35028"
   height="389.20743"
   id="svg2612">
  <defs
     id="defs2614" />
  <g
     transform="translate(286.03229,-197.75846)"
     id="layer1">
    <path
       d="M 409.73509,516.20404 L 356.74453,569.34656 L -276.05448,569.34656 L -276.05448,262.77566 L -223.06392,209.79117 L -223.06392,516.20404 L 409.73509,516.20404"
       id="path63"
       style="fill:#fbbd09;fill-opacity:1;fill-rule:nonzero;stroke:none" />
    <path
       d="M 398.1134,233.17436 C 400.34413,233.04064 402.05213,232.77928 403.10367,232.12282 C 404.28286,231.33872 404.9454,230.01973 404.9454,228.18409 C 404.9454,226.34236 404.28286,224.89573 402.96995,224.11163 C 401.91841,223.45517 400.21041,223.06008 398.1134,222.92636 L 398.1134,219.90545 C 401.79076,220.03917 404.54423,220.69563 406.51968,221.87482 C 408.35532,223.19381 409.40687,225.16317 409.40687,227.92272 C 409.40687,229.89209 408.75041,231.60009 407.57122,233.04064 C 406.25223,234.35963 404.67795,235.14373 402.57486,235.53882 L 409.01785,248.80774 L 404.0215,248.80774 L 398.1134,236.329 L 398.1134,233.17436 z M 398.1134,259.83984 C 400.87294,259.70612 403.62641,259.04966 406.25223,257.87047 C 409.40687,256.55756 412.16636,254.71584 414.53087,252.35138 C 416.89532,249.98693 418.73705,247.3611 419.91624,244.34019 C 421.1015,241.44692 421.75188,238.16464 421.75188,234.74864 C 421.75188,231.33872 421.1015,228.18409 419.91624,225.16317 C 418.60332,222.00854 416.89532,219.38272 414.53087,217.01826 C 412.16636,214.6538 409.54059,212.81208 406.51968,211.63289 C 403.76013,210.44762 401.00058,209.92489 398.1134,209.79117 L 398.1134,212.55071 C 400.6055,212.68444 403.10367,213.20717 405.33441,214.13107 C 408.09395,215.31026 410.45841,216.88454 412.69522,219.12135 C 414.66459,221.09072 416.23887,223.45517 417.41806,226.21472 C 418.4696,228.96819 418.99841,231.86145 418.99841,234.88237 C 418.99841,237.90328 418.4696,240.79047 417.41806,243.42237 C 416.36651,246.04819 414.79223,248.41265 412.69522,250.38201 C 410.45841,252.4851 407.96018,254.1931 405.20676,255.37229 C 402.96995,256.29012 400.47177,256.81893 398.1134,256.94657 L 398.1134,259.83984 z M 396.66676,222.92636 L 391.28139,222.92636 L 391.28139,233.17436 L 396.66676,233.17436 C 397.19557,233.17436 397.58458,233.17436 398.1134,233.17436 L 398.1134,236.329 L 397.97967,236.06155 L 391.28139,236.06155 L 391.28139,248.80774 L 386.81385,248.80774 L 386.81385,219.90545 L 397.45694,219.90545 C 397.58458,219.90545 397.85203,219.90545 398.1134,219.90545 L 398.1134,222.92636 C 397.58458,222.92636 397.06185,222.92636 396.66676,222.92636 z M 398.1134,209.79117 L 398.1134,212.55071 C 397.58458,212.55071 397.19557,212.55071 396.66676,212.55071 C 393.77957,212.55071 390.8863,213.07953 388.26043,214.13107 C 385.63466,215.17654 383.2702,216.88454 381.16711,218.8539 C 378.9303,221.09072 377.35602,223.58282 376.17683,226.34236 C 374.99157,228.96819 374.46883,231.86145 374.46883,234.74864 C 374.46883,237.76955 374.99157,240.5291 376.17683,243.28865 C 377.22838,245.91447 378.9303,248.27892 381.03339,250.51574 C 383.13648,252.61275 385.50094,254.1931 388.26043,255.37229 C 390.8863,256.42384 393.77957,257.08029 396.66676,257.08029 C 397.19557,257.08029 397.58458,257.08029 398.1134,256.94657 L 398.1134,259.83984 C 397.58458,259.83984 397.19557,259.83984 396.66676,259.83984 C 393.38448,259.83984 390.1022,259.18338 387.07521,257.87047 C 384.06038,256.68521 381.42848,254.84956 379.06402,252.35138 C 376.69957,249.98693 374.86392,247.3611 373.55101,244.34019 C 372.36574,241.31928 371.70929,238.037 371.70929,234.74864 C 371.70929,231.46636 372.36574,228.31781 373.68473,225.16317 C 374.86392,222.14226 376.83329,219.38272 379.19775,216.88454 C 381.42848,214.52008 384.18802,212.81208 387.07521,211.49917 C 390.1022,210.31998 393.25076,209.66352 396.66676,209.66352 C 397.19557,209.66352 397.58458,209.66352 398.1134,209.79117"
       id="path65"
       style="fill:#fbbd09;fill-opacity:1;fill-rule:nonzero;stroke:none" />
    <path
       d="M -96.507763,237.43525 C -54.269699,242.9665 -30.922973,267.07909 -29.999072,309.16519 C -29.999072,309.62714 -29.999072,309.93106 -29.999072,310.39301 L -29.999072,313.77254 C -30.461022,353.39694 -51.34604,377.97148 -96.507763,383.19273 L -96.507763,335.73342 C -84.83136,333.5817 -76.230575,327.59458 -76.382532,310.08302 C -76.382532,292.72949 -84.83136,287.97018 -96.507763,286.74237 L -96.507763,237.43525 z M -169.9214,236.20743 L -115.85497,236.20743 C -109.10199,236.35939 -102.64684,236.66938 -96.507763,237.43525 L -96.507763,286.74237 C -102.64684,286.12238 -109.55786,286.43238 -116.77887,286.43238 L -116.77887,336.80927 C -109.7159,336.80927 -102.64684,336.80927 -96.507763,335.73342 L -96.507763,383.19273 C -102.80488,383.96468 -109.55786,384.26859 -116.77887,384.26859 L -116.77887,463.36543 L -169.9214,463.36543 L -169.9214,236.20743"
       id="path67"
       style="fill:#ed1639;fill-opacity:1;fill-rule:nonzero;stroke:none" />
    <path
       d="M 303.60201,236.05548 L 356.74453,235.90352 L 356.74453,463.06151 L 303.60201,463.21347 L 303.60201,236.05548"
       id="path69"
       style="fill:#ed1639;fill-opacity:1;fill-rule:nonzero;stroke:none" />
    <path
       d="M 42.800653,327.44262 L 102.39832,327.44262 L 102.39832,371.52241 L 42.800653,371.52241 L 42.800653,419.44368 L 102.39832,419.44368 L 102.39832,463.36543 L -10.031877,463.36543 L -10.031877,236.20743 L 102.39832,236.20743 L 102.08833,280.13526 L 42.800653,280.13526 L 42.800653,327.44262"
       id="path71"
       style="fill:#ed1639;fill-opacity:1;fill-rule:nonzero;stroke:none" />
    <path
       d="M 204.07602,237.43525 C 246.30801,242.9665 269.81277,267.07909 270.73059,309.16519 C 271.3445,338.96099 261.5159,360.76991 239.24503,372.90218 L 289.31801,462.90956 L 231.25815,463.06151 L 204.07602,414.21635 L 204.07602,335.73342 C 215.8983,333.5817 224.34713,327.59458 224.34713,310.08302 C 224.34713,292.72949 215.8983,287.97018 204.07602,286.74237 L 204.07602,237.43525 z M 130.9663,236.20743 L 184.87469,236.20743 C 191.63375,236.35939 198.08278,236.66938 204.07602,237.43525 L 204.07602,286.74237 C 198.08278,286.12238 191.01985,286.43238 183.95079,286.43238 L 183.95079,336.80927 C 191.01985,336.80927 198.08278,336.80927 204.07602,335.73342 L 204.07602,414.21635 L 187.48228,384.26859 C 186.4125,384.26859 185.17861,384.26859 183.95079,384.26859 L 183.95079,463.36543 L 130.9663,463.36543 L 130.9663,236.20743"
       id="path73"
       style="fill:#ed1639;fill-opacity:1;fill-rule:nonzero;stroke:none" />
  </g>
</svg>
