<?xml version="1.0" encoding="UTF-8" standalone="no"?>
<svg
   xmlns:svg="http://www.w3.org/2000/svg"
   xmlns="http://www.w3.org/2000/svg"
   version="1.1"
   id="svg4681"
   viewBox="0 0 621.62891 196.08208"
   height="196.08208"
   width="621.62891">
  <defs
     id="defs4683" />
  <g
     transform="translate(-29.185545,-260.03545)"
     id="layer1">
    <path
       id="path72"
       d="m 184.50196,415.1917 c -8.32306,0 -13.2168,6.15406 -13.2168,18.31445 0,10.89768 4.99387,17.60938 12.81641,17.60938 8.32685,0 13.21679,-6.1541 13.21679,-18.31445 0,-10.90151 -4.99387,-17.60938 -12.8164,-17.60938 z m 276.63866,0 c -9.1838,0 -15.59375,6.91202 -15.59375,17.91211 0,9.53262 4.69199,18.01172 15.84375,18.01172 2.06655,0 4.28857,-0.4026 6.40821,-1.0586 l 0,-4.4394 c -1.81629,1.0579 -4.03924,1.664 -6.31054,1.664 -7.66708,0 -11.29884,-6.0064 -11.29884,-15.08788 0,-8.57711 5.2478,-13.16796 11,-13.16796 2.47227,0 4.69072,0.55224 6.60938,1.76562 l 0,-4.33789 c -1.61532,-0.80766 -4.13664,-1.26172 -6.65821,-1.26172 z m 134.20118,0 c -5.34647,0 -9.78711,3.02479 -9.78711,8.83008 0,4.53882 1.41065,6.70759 7.76953,10.54492 4.74358,2.87423 5.44922,4.43773 5.44922,7.16403 0,2.878 -2.27261,5.5508 -6.25781,5.5508 -2.07034,0 -4.69369,-1.0581 -6.71094,-2.2715 l 0,4.5918 c 1.86938,0.9101 4.54229,1.5137 7.36719,1.5137 6.76084,0 10.24609,-4.3915 10.24609,-9.9883 0,-4.0383 -1.82067,-7.11782 -7.26953,-10.24608 -5.04692,-2.92729 -5.95312,-4.33807 -5.95312,-6.60937 0,-2.97658 2.16894,-5.24609 5.50195,-5.24609 2.16891,0 4.33734,0.6066 6.00194,1.61523 l 0,-4.28906 c -1.56602,-0.65599 -4.03682,-1.16016 -6.35742,-1.16016 z m 42.40039,0 c -5.35027,0 -9.79101,3.02479 -9.79101,8.83008 0,4.53882 1.41063,6.70759 7.76953,10.54492 4.74357,2.87423 5.44922,4.43773 5.44922,7.16403 0,2.878 -2.27066,5.5508 -6.25586,5.5508 -2.07034,0 -4.69174,-1.0581 -6.70899,-2.2715 l 0,4.5918 c 1.86559,0.9101 4.53838,1.5137 7.36328,1.5137 6.76084,0 10.2461,-4.3915 10.2461,-9.9883 0,-4.0383 -1.82067,-7.11782 -7.26953,-10.24608 -5.04693,-2.92729 -5.95313,-4.33807 -5.95313,-6.60937 0,-2.97658 2.16894,-5.24609 5.50195,-5.24609 2.16893,0 4.33929,0.6066 6.00391,1.61523 l 0,-4.28906 c -1.56224,-0.65599 -4.03487,-1.16016 -6.35547,-1.16016 z m -560.472655,0.34961 0,22.25392 c 0,3.4809 0.20056,5.4008 1.41015,7.873 1.46365,2.9235 4.54246,5.4493 9.63867,5.4493 5.09623,0 8.17492,-2.5258 9.63477,-5.4493 1.21339,-2.4722 1.41406,-4.3921 1.41406,-7.873 l 0,-22.25392 -4.43945,0 0,22.91012 c 0,5.4982 -2.4232,9.0332 -6.60938,9.0332 -4.18996,0 -6.60937,-3.535 -6.60937,-9.0332 l 0,-22.91012 -4.43945,0 z m 145.564455,0 0,35.22262 4.43944,0 0,-14.7343 2.97657,0 c 7.4661,0 11.45508,-3.63293 11.45508,-10.49613 0,-3.07517 -1.0084,-5.54793 -2.77539,-7.26563 -1.86937,-1.76699 -4.0871,-2.72656 -7.62109,-2.72656 l -8.47461,0 z m -188.134775,0.002 0,35.22072 17.05469,0 0,-3.836 -12.61523,0 0,-12.51362 11.40625,0 0,-3.83789 -11.40625,0 0,-11.19727 11.95898,0 0,-3.83594 -16.39844,0 z m 90.183605,0 0,35.21872 4.43945,0 0,-15.94333 2.01757,0 c 3.33301,0 4.59098,1.10973 5.59961,4.03703 l 4.03907,11.9063 4.79296,0 -4.94531,-14.127 c -0.70528,-2.01717 -1.7162,-3.02583 -3.83204,-3.43156 l 0,-0.0996 c 5.19482,-1.11101 6.96094,-4.69462 6.96094,-8.42578 0,-2.57465 -0.80871,-4.99703 -2.625,-6.71094 -1.61531,-1.51294 -3.68106,-2.42383 -7.41601,-2.42383 l -9.03125,0 z m 142.33593,0 0,35.21872 17.05664,0 0,-3.834 -12.61719,0 0,-12.51362 11.40235,0 0,-3.83594 -11.40235,0 0,-11.20117 11.95703,0 0,-3.83399 -16.39648,0 z m 96.23633,0 0,35.21872 4.23827,0 0,-28.85934 0.0996,0 13.27149,28.85934 5.49804,0 0,-35.21872 -4.23632,0 0,29.06452 -0.10156,0 -13.26757,-29.06452 -5.50196,0 z m 128.8789,0 0,35.21872 15.99414,0 0,-3.834 -11.55469,0 0,-31.38472 -4.43945,0 z m -170.74023,0.002 -11.80859,35.21872 4.44141,0 2.82422,-9.1836 13.42382,0 2.82422,9.1836 4.64453,0 -11.50781,-35.21872 -4.8418,0 z m 223.07618,0 -11.8086,35.21872 4.44531,0 2.82422,-9.1836 13.41993,0 2.82812,9.1836 4.64063,0 -11.50392,-35.21872 -4.8457,0 z m -360.16798,3.27929 c 5.95697,0 8.17579,6.8631 8.17579,13.97657 0,10.84846 -3.93497,14.68166 -8.57617,14.68166 -5.95317,0 -8.17578,-6.8631 -8.17578,-13.97659 0,-10.84841 3.93496,-14.68164 8.57616,-14.68164 z m -55.17968,0.35157 3.5293,0 c 3.88662,0 6.46288,1.87061 6.46288,5.80273 0,3.07896 -1.81696,6.20703 -6.56054,6.20703 l -3.43164,0 0,-12.00976 z m 97.95116,0.002 2.52149,0 c 4.54261,0 7.26563,1.91576 7.26563,6.76172 0,3.93591 -1.96751,6.45703 -7.36328,6.45703 l -2.42384,0 0,-13.21875 z m 96.53907,1.00781 0.10156,0 5.40039,17.56055 -11.05077,0 5.54882,-17.56055 z m 223.08008,0 0.0977,0 5.40039,17.56055 -11.05078,0 5.55273,-17.56055 z"
       style="fill:#e20916;fill-opacity:1;fill-rule:nonzero;stroke:none" />
    <path
       id="path130"
       d="m 65.806635,265.03545 c -18.32209,0 -31.62109,10.54109 -31.62109,29.50781 0,11.03043 4.38001,17.03049 7.45899,20.43555 3.40885,3.89041 8.1066,6.96785 9.24414,7.7793 4.70187,3.08276 9.56665,6.00017 14.10546,9.24219 9.89288,6.97317 11.67579,12.00038 11.67579,18.16211 0,5.02796 -1.78326,19.29687 -18.16016,19.29687 -11.34894,0 -18.97006,-5.02846 -22.37891,-7.13672 l -0.80664,14.75781 c 10.70054,4.70187 20.75224,5.35157 24.96875,5.35157 10.05214,0 17.99945,-3.08058 24.32422,-11.1875 5.02416,-6.16551 6.97266,-13.29647 6.97266,-21.24414 0,-7.62158 -1.78504,-17.34927 -14.91992,-27.56446 -4.21652,-3.40506 -8.5931,-6.16038 -12.97266,-9.08008 -7.29547,-4.86491 -14.26758,-9.40872 -14.26758,-19.13476 0,-11.02663 7.45873,-16.86524 18,-16.86524 8.75534,0 15.56553,3.89367 17.9961,5.35352 l 0.81054,-13.94531 c -3.07896,-0.97071 -11.02595,-3.72852 -20.42969,-3.72852 z m 68.773445,1.44531 c -1.21362,-0.004 -2.14576,0.0116 -2.67187,0.006 l -22.86133,0 -0.31836,0 0,114.48633 14.58594,0 0,-47.67383 9.08203,0 c 6.15792,-0.15926 12.48386,-0.32351 18.48633,-2.43554 11.8343,-4.21273 16.04991,-14.40898 17.50976,-18.44727 1.78595,-5.33131 1.78516,-10.17667 1.78516,-12.27734 0,-14.21557 -5.84264,-27.32447 -20.4336,-31.86328 -5.34931,-1.57835 -11.52319,-1.7816 -15.16406,-1.79493 z m 154.27539,0.006 0,12.97852 33.24219,0 c 7.62158,0 10.21513,-0.1593 14.43164,-0.64844 l -49.29297,88.69922 0,13.45703 65.83008,0 0,-12.94922 -49.75977,0 48.625,-88.55859 0,-12.97852 -63.07617,0 z m 157.69727,0.006 0,114.48047 54.5039,0 0,-12.94922 -39.89062,0 0,-39.62109 36.1582,0 0,-12.94141 -36.1582,0 0,-35.99609 38.10352,0 0,-12.97266 -52.37111,0 -0.3457,0 z m -263.44922,0.002 0,114.47656 14.5918,0 0,-114.47656 -14.5918,0 z m 179.72656,0 0,114.47656 14.61133,0 0,-55.61524 40.85938,55.61524 18.49023,0 -46.54102,-60.31641 42.96875,-54.16015 -17.34765,0 -38.42969,49.77929 0,-49.77929 -14.26953,0 -0.3418,0 z m 172.83008,0 0,114.47656 110.1543,0 0,-114.47656 -110.1543,0 z m -325.03516,0.002 0,12.97461 26.5918,0 0,101.5 14.5918,0 0,-101.5 26.43164,0 0,-12.97461 -67.61524,0 z m -87.31054,12.32031 4.37695,0 c 6.8139,0 13.78268,-0.32529 19.78515,3.7168 3.72737,2.42297 7.78125,7.42825 7.78125,17.2832 0,5.81666 -1.29695,9.20593 -2.59375,11.62891 -5.18723,9.85496 -16.05525,9.69336 -25.45898,9.69336 l -3.89062,0 0,-42.32227 z"
       style="fill:#004a9d;fill-opacity:1;fill-rule:nonzero;stroke:none" />
    <path
       id="path134"
       d="m 591.01172,275.25615 c -3.37472,0.0455 -2.77271,5.10822 -3.97851,5.19922 -0.3716,0.0265 -0.50781,-0.7292 -0.50781,-1.6582 0,-1.17546 0.20478,-2.02032 0.64843,-3.08203 l -2.86523,-0.41406 c -0.34126,1.47122 -0.50977,2.6239 -0.50977,4.14062 0,2.27889 1.10807,4.83203 3.33008,4.83203 3.74253,0 3.321,-5.31239 4.25,-5.24414 0.6484,0.0455 0.50838,1.14756 0.46289,1.70117 -0.0645,0.77733 -0.33739,1.82745 -0.64453,2.71094 l 2.81444,0.33789 c 0.21993,-1.07309 0.35158,-2.29316 0.35158,-3.40039 0,-2.33576 -0.51528,-5.16097 -3.35158,-5.12305 z m -11.64062,1.9375 c 0,0 -38.07432,2.00916 -38.20703,22.83008 -0.13272,20.49483 38.30468,22.41407 38.30468,22.41407 l 0,-2.57813 c 0,0 -30.86132,-2.30631 -30.86132,-19.83594 0,-16.99876 30.76367,-20.29297 30.76367,-20.29297 l 0,-2.53711 z m 4.75195,13.51758 0,3.76953 3.37109,0 0,1.79297 c 0,1.74804 0.97373,3.81836 3.46875,3.81836 2.54053,0 3.32618,-2.34918 3.32618,-3.95312 l 0,-5.42774 -10.16602,0 z m 7.5957,3.62891 -0.0195,0.79297 c 0,0.91382 -0.52418,1.1875 -0.9375,1.1875 -0.46638,0 -1.01515,-0.22781 -1.06445,-1.24024 l 0,-0.72851 2.02148,-0.0117 z m -7.57618,12.86328 0,3.75781 10.12891,0 0,-3.75781 -10.12891,0 z m 7.47072,9.85938 0,2.76171 -7.49024,0 0,3.72657 7.49024,0 0,2.94336 2.77148,0 -0.0117,-9.43164 -2.75976,0 z m 7.46678,4.78515 0,2.88672 c 0,0 32.15625,3.4262 32.15625,21.49805 0,17.90501 -32.15625,20.55664 -32.15625,20.55664 l 0,2.76758 c 0,0 39.14053,-2.18099 39.91406,-23.32422 0.7925,-21.73854 -39.91405,-24.38477 -39.91405,-24.38477 z m -14.95507,10.25781 0,9.47461 2.58594,0 0,-5.00586 4.89844,4.91602 2.68164,0 -0.008,-9.19531 -2.66211,0 -0.0117,4.54883 -4.71289,-4.73829 -2.77149,0 z m 0.0469,15.17969 0,3.86328 3.36914,0 -3.4043,2.21875 -0.0156,4.91016 5.45703,-4.18555 4.71289,3.4961 -0.004,-4.4668 -3.18164,-1.92774 3.18164,-0.0137 -0.004,-3.89062 -10.11133,-0.004 z m -0.0352,16.08203 0,8.80469 2.61132,-0.008 0,-4.9668 1.38868,0 0,4.45899 2.49805,0 0,-4.45899 1.11133,0 -0.004,4.875 2.4961,-0.004 0,-8.70117 -10.10157,0 z"
       style="fill:#ffffff;fill-opacity:1;fill-rule:nonzero;stroke:none" />
  </g>
</svg>
