<?xml version="1.0" encoding="UTF-8" standalone="no"?>
<!-- Created with Inkscape (http://www.inkscape.org/) -->

<svg
   xmlns:dc="http://purl.org/dc/elements/1.1/"
   xmlns:cc="http://creativecommons.org/ns#"
   xmlns:rdf="http://www.w3.org/1999/02/22-rdf-syntax-ns#"
   xmlns:svg="http://www.w3.org/2000/svg"
   xmlns="http://www.w3.org/2000/svg"
   version="1.1"
   width="993.66199"
   height="215.42999"
   id="svg2"
   xml:space="preserve"><metadata
     id="metadata8"><rdf:RDF><cc:Work
         rdf:about=""><dc:format>image/svg+xml</dc:format><dc:type
           rdf:resource="http://purl.org/dc/dcmitype/StillImage" /><dc:title></dc:title></cc:Work></rdf:RDF></metadata><defs
     id="defs6"><clipPath
       id="clipPath22"><path
         d="m 262.205,329.541 46.049,0 0,46.049 -46.049,0 0,-46.049 z"
         id="path24" /></clipPath><clipPath
       id="clipPath36"><path
         d="m 290.268,654.675 46.048,0 0,46.049 -46.048,0 0,-46.049 z"
         id="path38" /></clipPath><clipPath
       id="clipPath78"><path
         d="m 0,0 453.543,0 0,841.89 L 0,841.89 0,0 z"
         id="path80" /></clipPath><linearGradient
       x1="0"
       y1="0"
       x2="1"
       y2="0"
       id="linearGradient172"
       gradientUnits="userSpaceOnUse"
       gradientTransform="matrix(10.267914,-5.2769928,-5.2769928,-10.267914,101.45355,603.86386)"
       spreadMethod="pad"><stop
         id="stop174"
         style="stop-color:#2056ae;stop-opacity:1"
         offset="0" /><stop
         id="stop176"
         style="stop-color:#297ecb;stop-opacity:1"
         offset="1" /></linearGradient><linearGradient
       x1="0"
       y1="0"
       x2="1"
       y2="0"
       id="linearGradient192"
       gradientUnits="userSpaceOnUse"
       gradientTransform="matrix(-10.084503,10.084503,10.084503,10.084503,92.011307,590.25606)"
       spreadMethod="pad"><stop
         id="stop194"
         style="stop-color:#f57c14;stop-opacity:1"
         offset="0" /><stop
         id="stop196"
         style="stop-color:#fddd04;stop-opacity:1"
         offset="1" /></linearGradient><clipPath
       id="clipPath204"><path
         d="m 0,0 453.543,0 0,841.89 L 0,841.89 0,0 z"
         id="path206" /></clipPath><clipPath
       id="clipPath268"><path
         d="m 0,0 453.543,0 0,841.89 L 0,841.89 0,0 z"
         id="path270" /></clipPath><clipPath
       id="clipPath288"><path
         d="m 0,0 453.543,0 0,841.89 L 0,841.89 0,0 z"
         id="path290" /></clipPath><clipPath
       id="clipPath332"><path
         d="m 0,0 453.543,0 0,841.89 L 0,841.89 0,0 z"
         id="path334" /></clipPath><linearGradient
       x1="0"
       y1="0"
       x2="1"
       y2="0"
       id="linearGradient372"
       gradientUnits="userSpaceOnUse"
       gradientTransform="matrix(10.781052,-5.5407104,-5.5407104,-10.781052,102.28226,537.90004)"
       spreadMethod="pad"><stop
         id="stop374"
         style="stop-color:#2056ae;stop-opacity:1"
         offset="0" /><stop
         id="stop376"
         style="stop-color:#297ecb;stop-opacity:1"
         offset="1" /></linearGradient><linearGradient
       x1="0"
       y1="0"
       x2="1"
       y2="0"
       id="linearGradient392"
       gradientUnits="userSpaceOnUse"
       gradientTransform="matrix(-10.58873,10.58873,10.58873,10.58873,92.359589,523.61635)"
       spreadMethod="pad"><stop
         id="stop394"
         style="stop-color:#f57c14;stop-opacity:1"
         offset="0" /><stop
         id="stop396"
         style="stop-color:#fddd04;stop-opacity:1"
         offset="1" /></linearGradient><clipPath
       id="clipPath404"><path
         d="m 0,0 453.543,0 0,841.89 L 0,841.89 0,0 z"
         id="path406" /></clipPath><clipPath
       id="clipPath468"><path
         d="m 0,0 453.543,0 0,841.89 L 0,841.89 0,0 z"
         id="path470" /></clipPath><clipPath
       id="clipPath500"><path
         d="m 0,0 453.543,0 0,841.89 L 0,841.89 0,0 z"
         id="path502" /></clipPath><linearGradient
       x1="0"
       y1="0"
       x2="1"
       y2="0"
       id="linearGradient544"
       gradientUnits="userSpaceOnUse"
       gradientTransform="matrix(10.883469,-5.5933533,-5.5933533,-10.883469,102.43875,410.0014)"
       spreadMethod="pad"><stop
         id="stop546"
         style="stop-color:#2056ae;stop-opacity:1"
         offset="0" /><stop
         id="stop548"
         style="stop-color:#297ecb;stop-opacity:1"
         offset="1" /></linearGradient><linearGradient
       x1="0"
       y1="0"
       x2="1"
       y2="0"
       id="linearGradient564"
       gradientUnits="userSpaceOnUse"
       gradientTransform="matrix(-10.689575,10.689575,10.689575,10.689575,92.429581,395.57669)"
       spreadMethod="pad"><stop
         id="stop566"
         style="stop-color:#f57c14;stop-opacity:1"
         offset="0" /><stop
         id="stop568"
         style="stop-color:#fddd04;stop-opacity:1"
         offset="1" /></linearGradient><clipPath
       id="clipPath576"><path
         d="m 0,0 453.543,0 0,841.89 L 0,841.89 0,0 z"
         id="path578" /></clipPath><clipPath
       id="clipPath640"><path
         d="m 0,0 453.543,0 0,841.89 L 0,841.89 0,0 z"
         id="path642" /></clipPath><clipPath
       id="clipPath656"><path
         d="m 0,0 453.543,0 0,841.89 L 0,841.89 0,0 z"
         id="path658" /></clipPath><clipPath
       id="clipPath692"><path
         d="m 0,0 453.543,0 0,841.89 L 0,841.89 0,0 z"
         id="path694" /></clipPath><clipPath
       id="clipPath724"><path
         d="m 0,0 453.543,0 0,841.89 L 0,841.89 0,0 z"
         id="path726" /></clipPath><clipPath
       id="clipPath752"><path
         d="m 0,0 453.543,0 0,841.89 L 0,841.89 0,0 z"
         id="path754" /></clipPath><clipPath
       id="clipPath778"><path
         d="m 0,0 453.543,0 0,841.89 L 0,841.89 0,0 z"
         id="path780" /></clipPath><clipPath
       id="clipPath798"><path
         d="m 0,0 453.543,0 0,841.89 L 0,841.89 0,0 z"
         id="path800" /></clipPath><clipPath
       id="clipPath818"><path
         d="m 0,0 453.543,0 0,841.89 L 0,841.89 0,0 z"
         id="path820" /></clipPath><clipPath
       id="clipPath844"><path
         d="m 0,0 453.543,0 0,841.89 L 0,841.89 0,0 z"
         id="path846" /></clipPath><clipPath
       id="clipPath872"><path
         d="m 0,0 453.543,0 0,841.89 L 0,841.89 0,0 z"
         id="path874" /></clipPath><clipPath
       id="clipPath912"><path
         d="m 0,0 453.543,0 0,841.89 L 0,841.89 0,0 z"
         id="path914" /></clipPath><clipPath
       id="clipPath956"><path
         d="m 0,0 453.543,0 0,841.89 L 0,841.89 0,0 z"
         id="path958" /></clipPath><clipPath
       id="clipPath1000"><path
         d="m 0,0 453.543,0 0,841.89 L 0,841.89 0,0 z"
         id="path1002" /></clipPath><clipPath
       id="clipPath1024"><path
         d="m 0,0 453.543,0 0,841.89 L 0,841.89 0,0 z"
         id="path1026" /></clipPath><clipPath
       id="clipPath1048"><path
         d="m 0,0 453.543,0 0,841.89 L 0,841.89 0,0 z"
         id="path1050" /></clipPath><clipPath
       id="clipPath1068"><path
         d="m 0,0 453.543,0 0,841.89 L 0,841.89 0,0 z"
         id="path1070" /></clipPath><clipPath
       id="clipPath1096"><path
         d="m 0,0 453.543,0 0,841.89 L 0,841.89 0,0 z"
         id="path1098" /></clipPath><clipPath
       id="clipPath1128"><path
         d="m 0,0 453.543,0 0,841.89 L 0,841.89 0,0 z"
         id="path1130" /></clipPath><clipPath
       id="clipPath1144"><path
         d="m 0,0 453.543,0 0,841.89 L 0,841.89 0,0 z"
         id="path1146" /></clipPath><clipPath
       id="clipPath1164"><path
         d="m 0,0 453.543,0 0,841.89 L 0,841.89 0,0 z"
         id="path1166" /></clipPath><clipPath
       id="clipPath1192"><path
         d="m 0,0 453.543,0 0,841.89 L 0,841.89 0,0 z"
         id="path1194" /></clipPath><clipPath
       id="clipPath1244"><path
         d="m 0,0 453.543,0 0,841.89 L 0,841.89 0,0 z"
         id="path1246" /></clipPath><clipPath
       id="clipPath1328"><path
         d="m 0,0 453.543,0 0,841.89 L 0,841.89 0,0 z"
         id="path1330" /></clipPath><clipPath
       id="clipPath1342"><path
         d="m 0,0 453.543,0 0,841.89 L 0,841.89 0,0 z"
         id="path1344" /></clipPath><clipPath
       id="clipPath1368"><path
         d="m 0,0 453.543,0 0,841.89 L 0,841.89 0,0 z"
         id="path1370" /></clipPath><clipPath
       id="clipPath1396"><path
         d="m 0,0 453.543,0 0,841.89 L 0,841.89 0,0 z"
         id="path1398" /></clipPath><clipPath
       id="clipPath1420"><path
         d="m 0,0 453.543,0 0,841.89 L 0,841.89 0,0 z"
         id="path1422" /></clipPath><clipPath
       id="clipPath1446"><path
         d="m 0,0 453.543,0 0,841.89 L 0,841.89 0,0 z"
         id="path1448" /></clipPath><clipPath
       id="clipPath1478"><path
         d="m 0,0 453.543,0 0,841.89 L 0,841.89 0,0 z"
         id="path1480" /></clipPath><clipPath
       id="clipPath1502"><path
         d="m 0,0 453.543,0 0,841.89 L 0,841.89 0,0 z"
         id="path1504" /></clipPath><clipPath
       id="clipPath1530"><path
         d="m 0,0 453.543,0 0,841.89 L 0,841.89 0,0 z"
         id="path1532" /></clipPath><clipPath
       id="clipPath1590"><path
         d="m 0,0 453.543,0 0,841.89 L 0,841.89 0,0 z"
         id="path1592" /></clipPath><clipPath
       id="clipPath1616"><path
         d="m 0,0 453.543,0 0,841.89 L 0,841.89 0,0 z"
         id="path1618" /></clipPath><clipPath
       id="clipPath1666"><path
         d="m 0,0 453.543,0 0,841.89 L 0,841.89 0,0 z"
         id="path1668" /></clipPath><clipPath
       id="clipPath1694"><path
         d="m 0,0 453.543,0 0,841.89 L 0,841.89 0,0 z"
         id="path1696" /></clipPath><linearGradient
       x1="0"
       y1="0"
       x2="1"
       y2="0"
       id="linearGradient1754"
       gradientUnits="userSpaceOnUse"
       gradientTransform="matrix(9.5144196,-4.8897552,-4.8897552,-9.5144196,100.24825,475.20305)"
       spreadMethod="pad"><stop
         id="stop1756"
         style="stop-color:#2056ae;stop-opacity:1"
         offset="0" /><stop
         id="stop1758"
         style="stop-color:#297ecb;stop-opacity:1"
         offset="1" /></linearGradient><linearGradient
       x1="0"
       y1="0"
       x2="1"
       y2="0"
       id="linearGradient1774"
       gradientUnits="userSpaceOnUse"
       gradientTransform="matrix(-9.3441315,9.3441315,9.3441315,9.3441315,91.498596,462.59419)"
       spreadMethod="pad"><stop
         id="stop1776"
         style="stop-color:#f57c14;stop-opacity:1"
         offset="0" /><stop
         id="stop1778"
         style="stop-color:#fddd04;stop-opacity:1"
         offset="1" /></linearGradient><clipPath
       id="clipPath1786"><path
         d="m 0,0 453.543,0 0,841.89 L 0,841.89 0,0 z"
         id="path1788" /></clipPath><clipPath
       id="clipPath1850"><path
         d="m 0,0 453.543,0 0,841.89 L 0,841.89 0,0 z"
         id="path1852" /></clipPath><clipPath
       id="clipPath1870"><path
         d="m 0,0 453.543,0 0,841.89 L 0,841.89 0,0 z"
         id="path1872" /></clipPath><clipPath
       id="clipPath1896"><path
         d="m 0,0 453.543,0 0,841.89 L 0,841.89 0,0 z"
         id="path1898" /></clipPath><clipPath
       id="clipPath1916"><path
         d="m 0,0 453.543,0 0,841.89 L 0,841.89 0,0 z"
         id="path1918" /></clipPath><clipPath
       id="clipPath1936"><path
         d="m 0,0 453.543,0 0,841.89 L 0,841.89 0,0 z"
         id="path1938" /></clipPath><clipPath
       id="clipPath1962"><path
         d="m 0,0 453.543,0 0,841.89 L 0,841.89 0,0 z"
         id="path1964" /></clipPath><clipPath
       id="clipPath1986"><path
         d="m 0,0 453.543,0 0,841.89 L 0,841.89 0,0 z"
         id="path1988" /></clipPath><clipPath
       id="clipPath2036"><path
         d="m 0,0 453.543,0 0,841.89 L 0,841.89 0,0 z"
         id="path2038" /></clipPath><clipPath
       id="clipPath2060"><path
         d="m 0,0 453.543,0 0,841.89 L 0,841.89 0,0 z"
         id="path2062" /></clipPath><clipPath
       id="clipPath2160"><path
         d="m 0,0 453.543,0 0,841.89 L 0,841.89 0,0 z"
         id="path2162" /></clipPath></defs><g
     transform="matrix(1.25,0,0,-1.25,-106.29875,950.49625)"
     id="g10"><g
       transform="matrix(8,0,0,8,-595.273,-4116.371)"
       id="g160"><g
         id="g162"><g
           id="g168"><g
             id="g170"><path
               d="m 96.795,600.896 0,-4.384 3.654,0 c 1.139,0 2.067,-0.86 2.067,-1.915 l 0,0 c 0,-1.057 -0.928,-1.916 -2.067,-1.916 l 0,0 -14.545,0 0,-2.313 c 0,-1.277 1.12,-2.315 2.499,-2.315 l 0,0 12.046,0 c 3.895,0 7.066,2.937 7.066,6.544 l 0,0 c 0,2.992 -2.182,5.523 -5.149,6.299 l 0,0 -5.571,0 z"
               id="path178"
               style="fill:url(#linearGradient172);stroke:none" /></g></g></g></g><g
       transform="matrix(8,0,0,8,-595.273,-4116.371)"
       id="g180"><g
         id="g182"><g
           id="g188"><g
             id="g190"><path
               d="m 92.106,609.596 c -3.897,0 -7.067,-2.935 -7.067,-6.541 l 0,0 c 0,-3.608 3.17,-6.543 7.067,-6.543 l 0,0 3.583,0 0,4.629 -3.583,0 c -1.139,0 -2.068,0.856 -2.068,1.914 l 0,0 c 0,1.056 0.929,1.914 2.068,1.914 l 0,0 14.046,0 0,2.314 c 0,1.277 -1.119,2.313 -2.5,2.313 l 0,0 -11.546,0 z"
               id="path198"
               style="fill:url(#linearGradient192);stroke:none" /></g></g></g></g><g
       transform="matrix(8,0,0,8,-595.273,-4116.371)"
       id="g200"><g
         clip-path="url(#clipPath204)"
         id="g202"><g
           transform="translate(113.5883,599.6514)"
           id="g208"><path
             d="m 0,0 c -0.449,0 -0.899,0.047 -1.292,0.15 l 0.075,1.132 c 0.356,-0.121 0.861,-0.224 1.32,-0.224 0.618,0 1.095,0.252 1.095,0.833 0,1.207 -2.649,0.655 -2.649,2.733 0,1.123 0.89,1.9 2.406,1.9 0.356,0 0.767,-0.047 1.142,-0.112 L 2.031,5.345 C 1.675,5.447 1.283,5.513 0.899,5.513 0.197,5.513 -0.159,5.195 -0.159,4.745 -0.159,3.613 2.499,4.034 2.499,2.059 2.499,0.87 1.554,0 0,0"
             id="path210"
             style="fill:#231f20;fill-opacity:1;fill-rule:nonzero;stroke:none" /></g><g
           transform="translate(118.5872,599.6606)"
           id="g212"><path
             d="m 0,0 c -1.03,0 -1.348,0.374 -1.348,1.46 l 0,2.359 -0.805,0 0,0.926 0.796,0 0,1.433 1.198,0.318 0,-1.751 1.133,0 0,-0.926 -1.133,0 0,-2.041 c 0,-0.599 0.14,-0.767 0.552,-0.767 0.197,0 0.412,0.028 0.581,0.075 l 0,-0.964 C 0.674,0.047 0.328,0 0,0"
             id="path214"
             style="fill:#231f20;fill-opacity:1;fill-rule:nonzero;stroke:none" /></g><g
           transform="translate(122.9309,599.7543)"
           id="g216"><path
             d="m 0,0 c 0,0.271 0.009,0.543 0.047,0.786 l -0.01,0.01 c -0.224,-0.525 -0.795,-0.89 -1.488,-0.89 -0.842,0 -1.329,0.478 -1.329,1.227 0,1.113 1.104,1.703 2.686,1.703 l 0,0.253 c 0,0.487 -0.234,0.739 -0.907,0.739 -0.422,0 -0.983,-0.14 -1.377,-0.365 l -0.103,1.002 c 0.468,0.168 1.068,0.29 1.667,0.29 1.497,0 1.918,-0.609 1.918,-1.619 l 0,-1.938 C 1.104,0.824 1.114,0.384 1.132,0 L 0,0 z m -1.647,5.419 c -0.356,0 -0.646,0.291 -0.646,0.646 0,0.365 0.29,0.646 0.646,0.646 0.355,0 0.646,-0.281 0.646,-0.646 0,-0.355 -0.291,-0.646 -0.646,-0.646 m 1.553,-3.36 c -1.263,0 -1.544,-0.365 -1.544,-0.739 0,-0.3 0.206,-0.496 0.552,-0.496 0.59,0 0.992,0.561 0.992,1.123 l 0,0.112 z m 0.337,3.36 c -0.355,0 -0.645,0.291 -0.645,0.646 0,0.365 0.29,0.646 0.645,0.646 0.356,0 0.646,-0.281 0.646,-0.646 0,-0.355 -0.29,-0.646 -0.646,-0.646"
             id="path218"
             style="fill:#231f20;fill-opacity:1;fill-rule:nonzero;stroke:none" /></g><g
           transform="translate(128.061,599.7543)"
           id="g220"><path
             d="m 0,0 c 0,0.225 0.019,0.524 0.056,0.777 l -0.018,0 c -0.244,-0.515 -0.759,-0.88 -1.47,-0.88 -1.132,0 -1.694,0.852 -1.694,2.181 0,1.572 0.917,2.658 2.462,2.658 0.196,0 0.383,-0.009 0.589,-0.037 l 0,2.134 1.189,0 L 1.114,0 0,0 z m -0.075,3.716 c -0.215,0.047 -0.421,0.075 -0.627,0.075 -0.683,0 -1.17,-0.431 -1.17,-1.582 0,-0.87 0.253,-1.32 0.796,-1.32 0.627,0 1.001,0.73 1.001,1.526 l 0,1.301 z"
             id="path222"
             style="fill:#231f20;fill-opacity:1;fill-rule:nonzero;stroke:none" /></g><g
           transform="translate(131.9461,599.6606)"
           id="g224"><path
             d="m 0,0 c -1.03,0 -1.348,0.374 -1.348,1.46 l 0,2.359 -0.805,0 0,0.926 0.796,0 0,1.433 1.198,0.318 0,-1.751 1.133,0 0,-0.926 -1.133,0 0,-2.041 c 0,-0.599 0.14,-0.767 0.552,-0.767 0.197,0 0.412,0.028 0.581,0.075 l 0,-0.964 C 0.674,0.047 0.328,0 0,0"
             id="path226"
             style="fill:#231f20;fill-opacity:1;fill-rule:nonzero;stroke:none" /></g><g
           transform="translate(134.3991,605.0052)"
           id="g228"><path
             d="m 0,0 c -0.412,0 -0.74,0.328 -0.74,0.73 0,0.393 0.328,0.721 0.74,0.721 0.412,0 0.749,-0.318 0.749,-0.721 C 0.749,0.328 0.412,0 0,0 m -0.599,-0.599 1.198,0 0,-4.652 -1.198,0 0,4.652 z"
             id="path230"
             style="fill:#231f20;fill-opacity:1;fill-rule:nonzero;stroke:none" /></g><g
           transform="translate(137.0011,599.6606)"
           id="g232"><path
             d="m 0,0 c -0.337,0 -0.674,0.038 -0.973,0.084 l 0.028,0.983 c 0.29,-0.075 0.645,-0.14 1.001,-0.14 0.459,0 0.758,0.187 0.758,0.496 0,0.823 -1.881,0.355 -1.881,1.937 0,0.814 0.665,1.489 1.976,1.489 0.271,0 0.57,-0.038 0.851,-0.085 L 1.722,3.819 C 1.461,3.894 1.152,3.941 0.861,3.941 0.394,3.941 0.169,3.753 0.169,3.463 0.169,2.705 2.078,3.042 2.078,1.535 2.078,0.618 1.273,0 0,0"
             id="path234"
             style="fill:#231f20;fill-opacity:1;fill-rule:nonzero;stroke:none" /></g><g
           transform="translate(141.7753,599.6702)"
           id="g236"><path
             d="m 0,0 c -1.291,0 -2.097,0.674 -2.097,2.256 0,1.45 0.759,2.564 2.406,2.564 0.318,0 0.655,-0.047 0.955,-0.131 L 1.142,3.65 C 0.89,3.744 0.599,3.819 0.3,3.819 c -0.759,0 -1.142,-0.562 -1.142,-1.442 0,-0.795 0.309,-1.338 1.104,-1.338 0.318,0 0.665,0.065 0.918,0.196 L 1.273,0.215 C 0.955,0.093 0.496,0 0,0"
             id="path238"
             style="fill:#231f20;fill-opacity:1;fill-rule:nonzero;stroke:none" /></g><g
           transform="translate(146.7459,599.7543)"
           id="g240"><path
             d="m 0,0 0,2.976 c 0,0.487 -0.131,0.777 -0.571,0.777 -0.608,0 -1.085,-0.692 -1.085,-1.507 l 0,-2.246 -1.198,0 0,6.833 1.198,0 0,-1.994 c 0,-0.281 -0.019,-0.674 -0.085,-0.945 l 0.019,-0.009 c 0.271,0.524 0.805,0.87 1.526,0.87 1.048,0 1.385,-0.674 1.385,-1.488 L 1.189,0 0,0 z"
             id="path242"
             style="fill:#231f20;fill-opacity:1;fill-rule:nonzero;stroke:none" /></g><g
           transform="translate(152.9155,601.8883)"
           id="g244"><path
             d="m 0,0 -2.883,0 c -0.009,-0.87 0.421,-1.292 1.282,-1.292 0.459,0 0.955,0.103 1.358,0.29 l 0.112,-0.926 c -0.496,-0.197 -1.086,-0.3 -1.666,-0.3 -1.479,0 -2.303,0.74 -2.303,2.378 0,1.423 0.786,2.471 2.181,2.471 1.357,0 1.956,-0.927 1.956,-2.078 C 0.037,0.384 0.028,0.197 0,0 m -1.956,1.741 c -0.496,0 -0.843,-0.365 -0.908,-0.927 l 1.713,0 c 0.019,0.581 -0.3,0.927 -0.805,0.927"
             id="path246"
             style="fill:#231f20;fill-opacity:1;fill-rule:nonzero;stroke:none" /></g><g
           transform="translate(161.9278,599.7543)"
           id="g248"><path
             d="m 0,0 -1.498,0 -0.917,3.482 c -0.112,0.403 -0.178,0.852 -0.243,1.301 l -0.01,0 C -2.714,4.343 -2.789,3.931 -2.902,3.51 L -3.819,0 l -1.414,0 -1.609,6.318 1.301,0 0.861,-3.491 c 0.103,-0.412 0.178,-0.843 0.234,-1.283 l 0.009,0 c 0.066,0.422 0.132,0.843 0.244,1.245 l 0.964,3.529 1.291,0 0.974,-3.51 C -0.87,2.462 -0.768,2.022 -0.711,1.582 l 0.009,0 c 0.065,0.44 0.141,0.833 0.234,1.207 l 0.861,3.529 1.217,0 L 0,0 z"
             id="path250"
             style="fill:#231f20;fill-opacity:1;fill-rule:nonzero;stroke:none" /></g><g
           transform="translate(167.7222,601.8883)"
           id="g252"><path
             d="m 0,0 -2.883,0 c -0.009,-0.87 0.422,-1.292 1.283,-1.292 0.458,0 0.954,0.103 1.357,0.29 l 0.112,-0.926 c -0.496,-0.197 -1.086,-0.3 -1.666,-0.3 -1.479,0 -2.302,0.74 -2.302,2.378 0,1.423 0.786,2.471 2.181,2.471 1.357,0 1.956,-0.927 1.956,-2.078 C 0.038,0.384 0.028,0.197 0,0 m -1.956,1.741 c -0.496,0 -0.842,-0.365 -0.908,-0.927 l 1.713,0 c 0.019,0.581 -0.3,0.927 -0.805,0.927"
             id="path254"
             style="fill:#231f20;fill-opacity:1;fill-rule:nonzero;stroke:none" /></g><g
           transform="translate(171.1581,603.3298)"
           id="g256"><path
             d="m 0,0 c -0.861,0.178 -1.291,-0.384 -1.291,-1.675 l 0,-1.901 -1.198,0 0,4.652 1.132,0 c 0,-0.234 -0.028,-0.608 -0.084,-0.935 l 0.019,0 C -1.198,0.73 -0.748,1.245 0.056,1.18 L 0,0 z"
             id="path258"
             style="fill:#231f20;fill-opacity:1;fill-rule:nonzero;stroke:none" /></g></g></g><g
       transform="matrix(8,0,0,8,801.0302,681.6634)"
       id="g260"><path
         d="m 0,0 -1.442,2.302 0,-2.302 -1.198,0 0,6.833 1.198,0 0,-4.119 1.358,1.938 1.46,0 L -0.253,2.527 1.498,0 0,0 z"
         id="path262"
         style="fill:#231f20;fill-opacity:1;fill-rule:nonzero;stroke:none" /></g><g
       transform="matrix(8,0,0,8,-595.273,-4116.371)"
       id="g264"><g
         clip-path="url(#clipPath268)"
         id="g266"><g
           transform="translate(180.2768,601.8883)"
           id="g272"><path
             d="m 0,0 -2.883,0 c -0.01,-0.87 0.421,-1.292 1.282,-1.292 0.459,0 0.955,0.103 1.358,0.29 l 0.112,-0.926 c -0.496,-0.197 -1.086,-0.3 -1.666,-0.3 -1.479,0 -2.303,0.74 -2.303,2.378 0,1.423 0.786,2.471 2.181,2.471 1.357,0 1.956,-0.927 1.956,-2.078 C 0.037,0.384 0.028,0.197 0,0 m -1.956,1.741 c -0.496,0 -0.843,-0.365 -0.908,-0.927 l 1.713,0 c 0.018,0.581 -0.3,0.927 -0.805,0.927"
             id="path274"
             style="fill:#231f20;fill-opacity:1;fill-rule:nonzero;stroke:none" /></g><g
           transform="translate(116.3777,590.4628)"
           id="g276"><path
             d="m 0,0 -0.487,1.394 -2.555,0 L -3.529,0 l -1.029,0 2.265,6.318 1.132,0 L 1.132,0 0,0 z M -1.479,4.193 C -1.601,4.521 -1.685,4.82 -1.76,5.167 l -0.018,0 C -1.844,4.848 -1.947,4.502 -2.069,4.165 l -0.711,-1.956 2.022,0 -0.721,1.984 z"
             id="path278"
             style="fill:#7b7979;fill-opacity:1;fill-rule:nonzero;stroke:none" /></g></g></g><g
       transform="matrix(8,0,0,8,370.8742,607.3314)"
       id="g280"><path
         d="m 0,0 -1.591,2.358 0,-2.358 -1.002,0 0,6.833 1.002,0 0,-4.175 1.507,1.994 1.226,0 L -0.58,2.527 1.273,0 0,0 z"
         id="path282"
         style="fill:#7b7979;fill-opacity:1;fill-rule:nonzero;stroke:none" /></g><g
       transform="matrix(8,0,0,8,-595.273,-4116.371)"
       id="g284"><g
         clip-path="url(#clipPath288)"
         id="g286"><g
           transform="translate(124.2887,590.3787)"
           id="g292"><path
             d="m 0,0 c -0.992,0 -1.292,0.384 -1.292,1.422 l 0,2.537 -0.889,0 0,0.777 0.889,0 0,1.479 0.993,0.271 0,-1.75 1.226,0 0,-0.777 -1.217,0 0,-2.228 c 0,-0.692 0.14,-0.879 0.608,-0.879 0.206,0 0.431,0.028 0.609,0.075 l 0,-0.824 C 0.655,0.046 0.309,0 0,0"
             id="path294"
             style="fill:#7b7979;fill-opacity:1;fill-rule:nonzero;stroke:none" /></g><g
           transform="translate(126.676,595.8072)"
           id="g296"><path
             d="m 0,0 c -0.356,0 -0.646,0.28 -0.646,0.627 0,0.347 0.29,0.627 0.646,0.627 0.346,0 0.636,-0.271 0.636,-0.627 C 0.636,0.28 0.346,0 0,0 m -0.506,-0.693 1.001,0 0,-4.652 -1.001,0 0,4.652 z"
             id="path298"
             style="fill:#7b7979;fill-opacity:1;fill-rule:nonzero;stroke:none" /></g><g
           transform="translate(132.133,592.7278)"
           id="g300"><path
             d="m 0,0 -2.967,0 c -0.028,-1.076 0.449,-1.563 1.376,-1.563 0.477,0 0.973,0.112 1.357,0.299 L -0.14,-2.06 c -0.468,-0.196 -1.039,-0.299 -1.61,-0.299 -1.451,0 -2.247,0.749 -2.247,2.387 0,1.404 0.768,2.452 2.125,2.452 1.329,0 1.9,-0.907 1.9,-2.012 C 0.028,0.337 0.019,0.178 0,0 m -1.909,1.741 c -0.562,0 -0.955,-0.412 -1.039,-1.039 l 1.975,0 c 0.018,0.636 -0.347,1.039 -0.936,1.039"
             id="path302"
             style="fill:#7b7979;fill-opacity:1;fill-rule:nonzero;stroke:none" /></g><g
           transform="translate(136.0836,590.4628)"
           id="g304"><path
             d="m 0,0 0,2.995 c 0,0.58 -0.159,0.917 -0.692,0.917 -0.702,0 -1.217,-0.739 -1.217,-1.666 l 0,-2.246 -1.002,0 0,4.652 0.955,0 c 0,-0.243 -0.019,-0.646 -0.066,-0.908 l 0.01,-0.009 c 0.271,0.599 0.833,1.01 1.619,1.01 1.058,0 1.386,-0.664 1.386,-1.488 L 0.993,0 0,0 z"
             id="path306"
             style="fill:#7b7979;fill-opacity:1;fill-rule:nonzero;stroke:none" /></g><g
           transform="translate(140.0158,588.0667)"
           id="g308"><path
             d="m 0,0 c -1.217,0 -1.975,0.468 -1.975,1.366 0,0.524 0.347,0.964 0.749,1.17 -0.281,0.141 -0.458,0.384 -0.458,0.693 0,0.337 0.205,0.655 0.533,0.796 -0.459,0.252 -0.693,0.729 -0.693,1.31 0,0.983 0.749,1.806 2.078,1.806 0.281,0 0.515,-0.037 0.767,-0.093 l 1.573,0 0,-0.786 -0.711,0 C 2.059,6.103 2.181,5.822 2.181,5.485 2.181,4.474 1.479,3.763 0.169,3.763 -0.01,3.763 -0.225,3.782 -0.365,3.81 -0.552,3.735 -0.637,3.594 -0.637,3.463 c 0,-0.234 0.207,-0.328 0.768,-0.328 l 0.796,0 C 1.938,3.135 2.509,2.658 2.509,1.788 2.509,0.795 1.498,0 0,0 m 0.656,2.321 -0.871,0 c -0.085,0 -0.178,0 -0.253,0.009 -0.318,-0.177 -0.515,-0.458 -0.515,-0.776 0,-0.497 0.469,-0.778 1.142,-0.778 0.871,0 1.357,0.375 1.357,0.88 0,0.403 -0.271,0.665 -0.86,0.665 M 0.187,6.402 C -0.477,6.402 -0.87,6 -0.87,5.428 c 0,-0.608 0.374,-0.963 1.048,-0.963 0.627,0 1.039,0.346 1.039,0.954 0,0.618 -0.384,0.983 -1.03,0.983"
             id="path310"
             style="fill:#7b7979;fill-opacity:1;fill-rule:nonzero;stroke:none" /></g><g
           transform="translate(147.0821,592.7278)"
           id="g312"><path
             d="m 0,0 -2.967,0 c -0.028,-1.076 0.449,-1.563 1.376,-1.563 0.478,0 0.973,0.112 1.357,0.299 L -0.14,-2.06 c -0.469,-0.196 -1.04,-0.299 -1.611,-0.299 -1.45,0 -2.245,0.749 -2.245,2.387 0,1.404 0.767,2.452 2.124,2.452 1.33,0 1.901,-0.907 1.901,-2.012 C 0.029,0.337 0.019,0.178 0,0 m -1.909,1.741 c -0.562,0 -0.955,-0.412 -1.04,-1.039 l 1.976,0 c 0.018,0.636 -0.347,1.039 -0.936,1.039"
             id="path314"
             style="fill:#7b7979;fill-opacity:1;fill-rule:nonzero;stroke:none" /></g><g
           transform="translate(148.8896,590.3687)"
           id="g316"><path
             d="m 0,0 c -0.347,0 -0.693,0.038 -0.983,0.094 l 0.028,0.852 c 0.29,-0.084 0.655,-0.15 1.011,-0.15 0.543,0 0.917,0.234 0.917,0.618 0,0.936 -2.04,0.374 -2.04,1.984 0,0.805 0.655,1.441 1.919,1.441 0.271,0 0.589,-0.037 0.87,-0.084 L 1.694,3.941 C 1.413,4.025 1.086,4.072 0.786,4.072 c -0.553,0 -0.824,-0.225 -0.824,-0.58 0,-0.899 2.06,-0.441 2.06,-1.984 C 2.022,0.637 1.245,0 0,0"
             id="path318"
             style="fill:#7b7979;fill-opacity:1;fill-rule:nonzero;stroke:none" /></g><g
           transform="translate(155.5637,592.7278)"
           id="g320"><path
             d="m 0,0 -2.967,0 c -0.028,-1.076 0.449,-1.563 1.376,-1.563 0.478,0 0.973,0.112 1.357,0.299 L -0.14,-2.06 c -0.469,-0.196 -1.04,-0.299 -1.611,-0.299 -1.45,0 -2.245,0.749 -2.245,2.387 0,1.404 0.767,2.452 2.124,2.452 1.33,0 1.901,-0.907 1.901,-2.012 C 0.029,0.337 0.019,0.178 0,0 m -1.909,1.741 c -0.562,0 -0.955,-0.412 -1.04,-1.039 l 1.976,0 c 0.018,0.636 -0.347,1.039 -0.936,1.039"
             id="path322"
             style="fill:#7b7979;fill-opacity:1;fill-rule:nonzero;stroke:none" /></g></g></g><path
       d="m 657.551,661.997 8.008,0 0,-54.664 -8.008,0 0,54.664 z"
       id="path324"
       style="fill:#7b7979;fill-opacity:1;fill-rule:nonzero;stroke:none" /><path
       d="m 676.279,661.997 8.008,0 0,-54.664 -8.008,0 0,54.664 z"
       id="path326"
       style="fill:#7b7979;fill-opacity:1;fill-rule:nonzero;stroke:none" /><g
       transform="matrix(8,0,0,8,-595.273,-4116.371)"
       id="g328"><g
         clip-path="url(#clipPath332)"
         id="g330"><g
           transform="translate(162.0513,590.3687)"
           id="g336"><path
             d="m 0,0 c -0.346,0 -0.692,0.038 -0.983,0.094 l 0.028,0.852 c 0.291,-0.084 0.655,-0.15 1.011,-0.15 0.543,0 0.918,0.234 0.918,0.618 0,0.936 -2.041,0.374 -2.041,1.984 0,0.805 0.655,1.441 1.919,1.441 0.271,0 0.589,-0.037 0.87,-0.084 L 1.694,3.941 C 1.413,4.025 1.086,4.072 0.786,4.072 0.234,4.072 -0.037,3.847 -0.037,3.492 -0.037,2.593 2.022,3.051 2.022,1.508 2.022,0.637 1.245,0 0,0"
             id="path338"
             style="fill:#7b7979;fill-opacity:1;fill-rule:nonzero;stroke:none" /></g><g
           transform="translate(166.7974,590.3878)"
           id="g340"><path
             d="m 0,0 c -1.198,0 -2.069,0.59 -2.069,2.246 0,1.479 0.759,2.555 2.359,2.555 0.347,0 0.703,-0.046 1.011,-0.14 L 1.198,3.791 c -0.28,0.103 -0.599,0.178 -0.936,0.178 -0.851,0 -1.282,-0.627 -1.282,-1.61 0,-0.852 0.309,-1.498 1.235,-1.498 0.356,0 0.74,0.085 1.011,0.225 L 1.311,0.234 C 1.002,0.112 0.515,0 0,0"
             id="path342"
             style="fill:#7b7979;fill-opacity:1;fill-rule:nonzero;stroke:none" /></g><g
           transform="translate(171.9278,590.4628)"
           id="g344"><path
             d="m 0,0 0,2.995 c 0,0.58 -0.159,0.917 -0.693,0.917 -0.702,0 -1.217,-0.739 -1.217,-1.675 l 0,-2.237 -1.001,0 0,6.833 1.001,0 0,-2.107 c 0,-0.289 -0.018,-0.683 -0.084,-0.935 l 0.019,-0.009 c 0.272,0.58 0.823,0.963 1.582,0.963 1.058,0 1.385,-0.664 1.385,-1.488 L 0.992,0 0,0 z"
             id="path346"
             style="fill:#7b7979;fill-opacity:1;fill-rule:nonzero;stroke:none" /></g><g
           transform="translate(176.7395,590.4628)"
           id="g348"><path
             d="m 0,0 c 0,0.3 0.01,0.608 0.047,0.861 l -0.009,0.01 c -0.225,-0.553 -0.805,-0.965 -1.545,-0.965 -0.796,0 -1.301,0.45 -1.301,1.189 0,1.067 1.067,1.685 2.743,1.685 l 0,0.299 c 0,0.58 -0.244,0.88 -0.974,0.88 -0.431,0 -0.992,-0.131 -1.385,-0.374 l -0.093,0.852 c 0.458,0.177 1.038,0.308 1.637,0.308 1.423,0 1.816,-0.618 1.816,-1.572 l 0,-1.9 C 0.936,0.871 0.946,0.393 0.964,0 L 0,0 z m -0.065,2.106 c -1.461,0 -1.779,-0.44 -1.779,-0.843 0,-0.346 0.243,-0.571 0.637,-0.571 0.683,0 1.142,0.655 1.142,1.321 l 0,0.093 z"
             id="path350"
             style="fill:#7b7979;fill-opacity:1;fill-rule:nonzero;stroke:none" /></g><g
           transform="translate(181.7671,596.4532)"
           id="g352"><path
             d="m 0,0 c -0.206,0.065 -0.431,0.093 -0.637,0.093 -0.599,0 -0.87,-0.327 -0.87,-1.058 l 0,-0.374 1.207,0 0,-0.777 -1.207,0 0,-3.874 -0.992,0 0,3.874 -0.889,0 0,0.777 0.889,0 0,0.356 c 0,1.273 0.608,1.891 1.816,1.891 0.262,0 0.515,-0.028 0.758,-0.085 L 0,0 z"
             id="path354"
             style="fill:#7b7979;fill-opacity:1;fill-rule:nonzero;stroke:none" /></g><g
           transform="translate(183.4782,590.3787)"
           id="g356"><path
             d="m 0,0 c -0.992,0 -1.291,0.384 -1.291,1.422 l 0,2.537 -0.89,0 0,0.777 0.89,0 0,1.479 0.991,0.271 0,-1.75 1.227,0 0,-0.777 -1.217,0 0,-2.228 c 0,-0.692 0.141,-0.879 0.609,-0.879 0.205,0 0.43,0.028 0.608,0.075 l 0,-0.824 C 0.655,0.046 0.309,0 0,0"
             id="path358"
             style="fill:#7b7979;fill-opacity:1;fill-rule:nonzero;stroke:none" /></g></g></g></g></svg>